<svg xmlns="http://www.w3.org/2000/svg" fill="currentColor" viewBox="0 0 24 24">
  <path d="M12 5.25a2.025 2.025 0 1 1-2.025-2.025A2.025 2.025 0 0 1 12 5.25" opacity=".2"/>
  <path d="M22.765 17.187a.675.675 0 0 0-.853-.427l-1.47.49-2.439-4.877A.68.68 0 0 0 17.4 12h-6.75V9.975h4.725a.675.675 0 0 0 0-1.35H10.65v-.759a2.7 2.7 0 1 0-1.35 0v.912a6.075 6.075 0 0 0 1.35 11.997c2.828 0 5.374-1.916 6.054-4.556a.675.675 0 1 0-1.308-.338c-.52 2.025-2.56 3.544-4.746 3.544a4.725 4.725 0 0 1-1.35-9.253v2.503a.675.675 0 0 0 .675.675h7.007l2.514 5.027a.675.675 0 0 0 .817.338l2.025-.675a.675.675 0 0 0 .427-.853M8.625 5.25a1.35 1.35 0 1 1 1.35 1.35 1.35 1.35 0 0 1-1.35-1.35"/>
</svg>
