<svg xmlns="http://www.w3.org/2000/svg" fill="currentColor" viewBox="0 0 24 24">
  <path d="M16.05 7.95v8.1h-8.1v-8.1z" opacity=".2"/>
  <path d="M20.1 4.575V7.95a.675.675 0 0 1-1.35 0v-2.7h-2.7a.675.675 0 0 1 0-1.35h3.375a.675.675 0 0 1 .675.675M7.95 18.75h-2.7v-2.7a.675.675 0 0 0-1.35 0v3.375a.675.675 0 0 0 .675.675H7.95a.675.675 0 0 0 0-1.35m11.475-3.375a.675.675 0 0 0-.675.675v2.7h-2.7a.675.675 0 0 0 0 1.35h3.375a.675.675 0 0 0 .675-.675V16.05a.675.675 0 0 0-.675-.675m-14.85-6.75a.675.675 0 0 0 .675-.675v-2.7h2.7a.675.675 0 0 0 0-1.35H4.575a.675.675 0 0 0-.675.675V7.95a.675.675 0 0 0 .675.675m3.375-1.35h8.1a.675.675 0 0 1 .675.675v8.1a.675.675 0 0 1-.675.675h-8.1a.675.675 0 0 1-.675-.675v-8.1a.675.675 0 0 1 .675-.675m.675 8.1h6.75v-6.75h-6.75z"/>
</svg>
