<svg xmlns="http://www.w3.org/2000/svg" fill="currentColor" viewBox="0 0 24 24">
  <path d="M20.775 12 12 20.775 3.225 12 12 3.225z" opacity=".2"/>
  <path d="M8.822 6.403a.675.675 0 0 1 0-.956l2.7-2.7a.675.675 0 0 1 .956 0l2.7 2.7a.675.675 0 0 1-.956.956l-1.547-1.549V9.3a.675.675 0 0 1-1.35 0V4.854L9.778 6.403a.675.675 0 0 1-.956 0m5.4 11.194-1.547 1.549V14.7a.675.675 0 0 0-1.35 0v4.446l-1.547-1.549a.675.675 0 0 0-.956.956l2.7 2.7a.675.675 0 0 0 .956 0l2.7-2.7a.675.675 0 0 0-.956-.956m7.031-6.075-2.7-2.7a.675.675 0 0 0-.956.956l1.549 1.547H14.7a.675.675 0 0 0 0 1.35h4.446l-1.549 1.547a.675.675 0 0 0 .956.956l2.7-2.7a.675.675 0 0 0 0-.956M4.854 12.675H9.3a.675.675 0 0 0 0-1.35H4.854l1.549-1.547a.675.675 0 0 0-.956-.956l-2.7 2.7a.675.675 0 0 0 0 .956l2.7 2.7a.675.675 0 0 0 .956-.956z"/>
</svg>
