<svg xmlns="http://www.w3.org/2000/svg" fill="currentColor" viewBox="0 0 24 24">
  <path d="M16.05 9.3A4.05 4.05 0 1 1 12 5.25a4.05 4.05 0 0 1 4.05 4.05" opacity=".2"/>
  <path d="M19.425 9.3a7.425 7.425 0 1 0-12.15 5.723v6.427a.675.675 0 0 0 .977.604L12 20.184l3.749 1.874a.7.7 0 0 0 .301.067.675.675 0 0 0 .675-.675v-6.427a7.41 7.41 0 0 0 2.7-5.723m-13.5 0A6.075 6.075 0 1 1 12 15.375 6.08 6.08 0 0 1 5.925 9.3m9.45 11.058-3.074-1.536a.68.68 0 0 0-.604 0l-3.072 1.536v-4.446a7.42 7.42 0 0 0 6.75 0zM12 14.025A4.725 4.725 0 1 0 7.275 9.3 4.73 4.73 0 0 0 12 14.025m0-8.1A3.375 3.375 0 1 1 8.625 9.3 3.375 3.375 0 0 1 12 5.925"/>
</svg>
