<svg xmlns="http://www.w3.org/2000/svg" fill="currentColor" viewBox="0 0 24 24">
  <path d="M18.075 5.25v5.324c0 3.35-2.679 6.126-6.029 6.151a6.075 6.075 0 0 1-6.121-6.075v-5.4z" opacity=".2"/>
  <path d="M20.775 6.6H18.75V5.25a.675.675 0 0 0-.675-.675H5.925a.675.675 0 0 0-.675.675V6.6H3.225a1.35 1.35 0 0 0-1.35 1.35V9.3a3.375 3.375 0 0 0 3.375 3.375h.308a6.76 6.76 0 0 0 5.767 4.692v2.058H9.3a.675.675 0 0 0 0 1.35h5.4a.675.675 0 0 0 0-1.35h-2.025v-2.06c2.695-.273 4.931-2.163 5.744-4.69h.331A3.375 3.375 0 0 0 22.125 9.3V7.95a1.35 1.35 0 0 0-1.35-1.35M5.25 11.325A2.025 2.025 0 0 1 3.225 9.3V7.95H5.25v2.7q0 .338.033.675zm12.15-.751c0 2.997-2.447 5.454-5.4 5.476a5.4 5.4 0 0 1-5.4-5.4V5.925h10.8zM20.775 9.3a2.025 2.025 0 0 1-2.025 2.025h-.042a7 7 0 0 0 .042-.751V7.95h2.025z"/>
</svg>
