<svg xmlns="http://www.w3.org/2000/svg" fill="currentColor" viewBox="0 0 24 24">
  <path d="M20.1 5.25v13.5H3.9V5.25z" opacity=".2"/>
  <path d="M20.775 5.25v3.375a.675.675 0 0 1-1.35 0v-2.7h-2.7a.675.675 0 0 1 0-1.35H20.1a.675.675 0 0 1 .675.675m-13.5 12.825h-2.7v-2.7a.675.675 0 0 0-1.35 0v3.375a.675.675 0 0 0 .675.675h3.375a.675.675 0 0 0 0-1.35M20.1 14.7a.675.675 0 0 0-.675.675v2.7h-2.7a.675.675 0 0 0 0 1.35H20.1a.675.675 0 0 0 .675-.675v-3.375a.675.675 0 0 0-.675-.675M3.9 9.3a.675.675 0 0 0 .675-.675v-2.7h2.7a.675.675 0 0 0 0-1.35H3.9a.675.675 0 0 0-.675.675v3.375A.675.675 0 0 0 3.9 9.3m4.05-1.35a.675.675 0 0 0-.675.675v6.75a.675.675 0 0 0 1.35 0v-6.75a.675.675 0 0 0-.675-.675m8.775 7.425v-6.75a.675.675 0 0 0-1.35 0v6.75a.675.675 0 0 0 1.35 0M13.35 7.95a.675.675 0 0 0-.675.675v6.75a.675.675 0 0 0 1.35 0v-6.75a.675.675 0 0 0-.675-.675m-2.7 0a.675.675 0 0 0-.675.675v6.75a.675.675 0 0 0 1.35 0v-6.75a.675.675 0 0 0-.675-.675"/>
</svg>
