<svg xmlns="http://www.w3.org/2000/svg" fill="currentColor" viewBox="0 0 24 24">
  <path d="M9.975 15.375A3.375 3.375 0 1 1 6.6 12a3.375 3.375 0 0 1 3.375 3.375M17.4 12a3.375 3.375 0 1 0 3.375 3.375A3.375 3.375 0 0 0 17.4 12" opacity=".2"/>
  <path d="M21.214 14.014a4 4 0 0 0-.199-.46l-3.509-7.983a.7.7 0 0 0-.14-.206 2.7 2.7 0 0 0-3.819 0 .68.68 0 0 0-.197.476V7.95h-2.7V5.841a.68.68 0 0 0-.197-.478 2.7 2.7 0 0 0-3.819 0 .7.7 0 0 0-.14.206l-3.509 7.984a4 4 0 0 0-.199.459 4.05 4.05 0 1 0 7.864 1.363V9.3h2.7v6.075a4.05 4.05 0 1 0 7.864-1.361M7.672 6.241A1.35 1.35 0 0 1 9.3 6.157v6.202a4.04 4.04 0 0 0-3.948-.837zM6.6 18.075a2.7 2.7 0 1 1 2.7-2.7 2.7 2.7 0 0 1-2.7 2.7m8.1-11.919a1.35 1.35 0 0 1 1.628.085l2.32 5.28a4.04 4.04 0 0 0-3.948.838zm2.7 11.919a2.7 2.7 0 1 1 2.7-2.7 2.7 2.7 0 0 1-2.7 2.7"/>
</svg>
