<svg xmlns="http://www.w3.org/2000/svg" fill="currentColor" viewBox="0 0 24 24">
  <path d="M20.1 3.9c0 2.768-2.67 5.689-4.948 7.682a7.1 7.1 0 0 0-2.73-2.734C14.411 6.57 17.332 3.9 20.1 3.9" opacity=".2"/>
  <path d="M20.775 3.9a.675.675 0 0 0-.675-.675c-3.719 0-7.536 4.194-9.655 6.972a5.063 5.063 0 0 0-6.545 4.84c0 2.606-1.649 3.774-1.727 3.829A.675.675 0 0 0 2.55 20.1h6.413a5.063 5.063 0 0 0 4.84-6.545c2.779-2.119 6.972-5.936 6.972-9.655M8.963 18.75H4.122c.569-.809 1.128-2.032 1.128-3.713a3.713 3.713 0 1 1 3.713 3.713m2.735-7.969q.434-.562.851-1.059a6.4 6.4 0 0 1 1.729 1.729q-.498.417-1.059.851a5.1 5.1 0 0 0-1.521-1.521m3.603-.226a7.8 7.8 0 0 0-1.856-1.857c2.681-2.913 4.704-3.797 5.897-4.042-.24 1.195-1.128 3.217-4.041 5.899"/>
</svg>
