<svg xmlns="http://www.w3.org/2000/svg" fill="currentColor" viewBox="0 0 24 24">
  <path d="M16.05 6.6v4.05h-8.1V6.6z" opacity=".2"/>
  <path d="M7.95 11.325h8.1a.675.675 0 0 0 .675-.675V6.6a.675.675 0 0 0-.675-.675h-8.1a.675.675 0 0 0-.675.675v4.05a.675.675 0 0 0 .675.675m.675-4.05h6.75v2.7h-6.75zm9.45-4.05H5.925a1.35 1.35 0 0 0-1.35 1.35v14.85a1.35 1.35 0 0 0 1.35 1.35h12.15a1.35 1.35 0 0 0 1.35-1.35V4.575a1.35 1.35 0 0 0-1.35-1.35m0 16.2H5.925V4.575h12.15zm-8.438-5.737a1.013 1.013 0 1 1-1.012-1.013 1.013 1.013 0 0 1 1.012 1.013m3.375-.001A1.013 1.013 0 1 1 12 12.675a1.013 1.013 0 0 1 1.012 1.013zm3.375 0a1.013 1.013 0 1 1-1.012-1.012 1.013 1.013 0 0 1 1.013 1.013zm-6.75 3.375a1.013 1.013 0 1 1-1.012-1.012 1.013 1.013 0 0 1 1.012 1.013zm3.375 0A1.013 1.013 0 1 1 12 16.05a1.013 1.013 0 0 1 1.012 1.013zm3.375 0a1.013 1.013 0 1 1-1.012-1.012 1.013 1.013 0 0 1 1.013 1.013z"/>
</svg>
