<svg xmlns="http://www.w3.org/2000/svg" fill="currentColor" viewBox="0 0 24 24">
  <path d="M16.725 16.05H20.1v2.025a.675.675 0 0 1-.675.675H17.4a.675.675 0 0 1-.675-.675zM3.9 18.075a.675.675 0 0 0 .675.675H6.6a.675.675 0 0 0 .675-.675V16.05H3.9zM17.578 4.976a.68.68 0 0 0-.617-.401H7.039a.68.68 0 0 0-.617.401L3.9 10.65h16.2z" opacity=".2"/>
  <path d="M21.45 9.975h-.911l-2.344-5.273a1.35 1.35 0 0 0-1.234-.802H7.039a1.35 1.35 0 0 0-1.234.802L3.461 9.975H2.55a.675.675 0 0 0 0 1.35h.675v6.75a1.35 1.35 0 0 0 1.35 1.35H6.6a1.35 1.35 0 0 0 1.35-1.35v-1.35h8.1v1.35a1.35 1.35 0 0 0 1.35 1.35h2.025a1.35 1.35 0 0 0 1.35-1.35v-6.75h.675a.675.675 0 0 0 0-1.35M7.039 5.25h9.922l2.1 4.725H4.939zM6.6 18.075H4.575v-1.35H6.6zm10.8 0v-1.35h2.025v1.35zm2.025-2.7H4.575v-4.05h14.85zm-13.5-2.025a.675.675 0 0 1 .675-.675h1.35a.675.675 0 0 1 0 1.35H6.6a.675.675 0 0 1-.675-.675m9.45 0a.675.675 0 0 1 .675-.675h1.35a.675.675 0 0 1 0 1.35h-1.35a.675.675 0 0 1-.675-.675"/>
</svg>
