<svg xmlns="http://www.w3.org/2000/svg" fill="currentColor" viewBox="0 0 24 24">
  <path d="M20.1 6.6v12.15H3.9V5.25h14.85A1.35 1.35 0 0 1 20.1 6.6" opacity=".2"/>
  <path d="M20.775 18.75a.675.675 0 0 1-.675.675H3.9a.675.675 0 0 1-.675-.675V5.25a.675.675 0 0 1 1.35 0v12.825H20.1a.675.675 0 0 1 .675.675m-8.437-4.05a1.013 1.013 0 1 0-1.013-1.013 1.013 1.013 0 0 0 1.013 1.013m-2.025-4.725A1.013 1.013 0 1 0 9.3 8.963a1.013 1.013 0 0 0 1.013 1.012m-2.7 6.075A1.013 1.013 0 1 0 6.6 15.037a1.013 1.013 0 0 0 1.013 1.013m8.1-4.05a1.013 1.013 0 1 0-1.013-1.013A1.013 1.013 0 0 0 15.713 12m2.025-3.375a1.013 1.013 0 1 0-1.013-1.013 1.013 1.013 0 0 0 1.013 1.013m-1.688 6.412a1.013 1.013 0 1 0 1.013-1.012 1.013 1.013 0 0 0-1.013 1.012"/>
</svg>
