<svg xmlns="http://www.w3.org/2000/svg" fill="currentColor" viewBox="0 0 24 24">
  <path d="M14.7 7.275v12.15l-5.4-2.7V4.575z" opacity=".2"/>
  <path d="M20.515 5.393a.68.68 0 0 0-.579-.123l-5.158 1.29-5.176-2.589a.68.68 0 0 0-.466-.051l-5.4 1.35a.675.675 0 0 0-.511.655v12.15a.675.675 0 0 0 .839.655l5.158-1.289 5.176 2.588a.7.7 0 0 0 .302.071.7.7 0 0 0 .164-.02l5.4-1.35a.675.675 0 0 0 .511-.655V5.925a.68.68 0 0 0-.26-.532m-10.54.274 4.05 2.025v10.641l-4.05-2.025zm-5.4.785 4.05-1.012v10.758l-4.05 1.012zm14.85 11.096-4.05 1.012V7.802l4.05-1.012z"/>
</svg>
