<svg xmlns="http://www.w3.org/2000/svg" fill="currentColor" viewBox="0 0 24 24">
  <path d="M14.025 7.95A2.025 2.025 0 1 1 12 5.925a2.025 2.025 0 0 1 2.025 2.025m-9.45 6.075A2.025 2.025 0 1 0 6.6 16.05a2.025 2.025 0 0 0-2.025-2.025m14.85 0a2.025 2.025 0 1 0 2.025 2.025 2.025 2.025 0 0 0-2.025-2.025" opacity=".2"/>
  <path d="M19.853 13.385a8.16 8.16 0 0 0-3.381-4.76h4.978a.675.675 0 0 0 0-1.35h-6.834a2.7 2.7 0 0 0-5.232 0H2.55a.675.675 0 0 0 0 1.35h4.978a8.16 8.16 0 0 0-3.381 4.76 2.7 2.7 0 1 0 1.363.134 6.8 6.8 0 0 1 4.043-4.435 2.7 2.7 0 0 0 4.899 0 6.8 6.8 0 0 1 4.038 4.435 2.7 2.7 0 1 0 1.363-.133zM5.925 16.05a1.35 1.35 0 1 1-1.35-1.35 1.35 1.35 0 0 1 1.35 1.35M12 9.3a1.35 1.35 0 1 1 1.35-1.35A1.35 1.35 0 0 1 12 9.3m7.425 8.1a1.35 1.35 0 1 1 1.35-1.35 1.35 1.35 0 0 1-1.35 1.35"/>
</svg>
