<svg xmlns="http://www.w3.org/2000/svg" fill="currentColor" viewBox="0 0 24 24">
  <path d="M17.638 13.977 12.99 15.69l-1.713 4.648a.668.668 0 0 1-1.254 0L8.31 15.69l-4.648-1.713a.668.668 0 0 1 0-1.254L8.31 11.01l1.713-4.648a.668.668 0 0 1 1.254 0l1.713 4.648 4.648 1.713a.668.668 0 0 1 0 1.254" opacity=".2"/>
  <path d="m17.871 12.089-4.352-1.608-1.603-4.355a1.343 1.343 0 0 0-2.521 0l-1.614 4.355-4.355 1.603a1.343 1.343 0 0 0 0 2.521l4.355 1.614 1.603 4.355a1.343 1.343 0 0 0 2.522 0l1.613-4.355 4.355-1.603a1.343 1.343 0 0 0 0-2.522zm-5.112 2.967a.68.68 0 0 0-.4.4l-1.709 4.631-1.706-4.628a.68.68 0 0 0-.403-.403L3.913 13.35l4.628-1.706a.68.68 0 0 0 .403-.403l1.706-4.628 1.706 4.628a.68.68 0 0 0 .4.4l4.631 1.709zm.591-10.481a.675.675 0 0 1 .675-.675h1.35V2.55a.675.675 0 0 1 1.35 0V3.9h1.35a.675.675 0 0 1 0 1.35h-1.35V6.6a.675.675 0 0 1-1.35 0V5.25h-1.35a.675.675 0 0 1-.675-.675m8.775 4.05a.675.675 0 0 1-.675.675h-.675v.675a.675.675 0 0 1-1.35 0V9.3h-.675a.675.675 0 0 1 0-1.35h.675v-.675a.675.675 0 0 1 1.35 0v.675h.675a.675.675 0 0 1 .675.675"/>
</svg>
