<svg xmlns="http://www.w3.org/2000/svg" fill="currentColor" viewBox="0 0 24 24">
  <path d="M19.425 12A7.425 7.425 0 1 1 12 4.575 7.425 7.425 0 0 1 19.425 12" opacity=".2"/>
  <path d="M12.675 7.95v3.668l3.048 1.828a.675.675 0 0 1-.696 1.158l-3.375-2.025a.68.68 0 0 1-.327-.579V7.95a.675.675 0 0 1 1.35 0M12 3.9a8.05 8.05 0 0 0-5.731 2.375 35 35 0 0 0-1.694 1.844V6.6a.675.675 0 0 0-1.35 0v3.375a.675.675 0 0 0 .675.675h3.375a.675.675 0 0 0 0-1.35H5.334c.603-.71 1.204-1.38 1.89-2.073a6.75 6.75 0 1 1 .14 9.682.675.675 0 1 0-.929.982A8.1 8.1 0 1 0 12 3.9"/>
</svg>
