<svg xmlns="http://www.w3.org/2000/svg" fill="currentColor" viewBox="0 0 24 24">
  <path d="M20.775 6.6v10.8a.675.675 0 0 1-.675.675H3.9a.675.675 0 0 1-.675-.675V6.6a.675.675 0 0 1 .675-.675h16.2a.675.675 0 0 1 .675.675" opacity=".2"/>
  <path d="M20.1 5.25H3.9A1.35 1.35 0 0 0 2.55 6.6v10.8a1.35 1.35 0 0 0 1.35 1.35h16.2a1.35 1.35 0 0 0 1.35-1.35V6.6a1.35 1.35 0 0 0-1.35-1.35m0 12.15H3.9V6.6h16.2zm-8.865-3.399a.675.675 0 0 1-.247.922 3.375 3.375 0 1 1 0-5.846.675.675 0 1 1-.675 1.169 2.025 2.025 0 1 0 0 3.508.675.675 0 0 1 .922.247m6.75 0a.675.675 0 0 1-.247.922 3.375 3.375 0 1 1 0-5.846.675.675 0 1 1-.675 1.169 2.025 2.025 0 1 0 0 3.508.675.675 0 0 1 .922.247"/>
</svg>
