<svg xmlns="http://www.w3.org/2000/svg" fill="currentColor" viewBox="0 0 24 24">
  <path d="M20.1 9.3v10.8l-3.34-2.7H8.625a.675.675 0 0 1-.675-.675V13.35h7.425a.675.675 0 0 0 .675-.675v-4.05h3.375a.675.675 0 0 1 .675.675" opacity=".2"/>
  <path d="M19.425 7.95h-2.7v-2.7a1.35 1.35 0 0 0-1.35-1.35h-10.8a1.35 1.35 0 0 0-1.35 1.35v10.8a.675.675 0 0 0 1.097.525l2.953-2.381v2.531a1.35 1.35 0 0 0 1.35 1.35h7.897l3.156 2.55a.68.68 0 0 0 .422.15.675.675 0 0 0 .675-.675V9.3a1.35 1.35 0 0 0-1.35-1.35m-12.61 4.875-2.24 1.812V5.25h10.8v7.425H7.24a.68.68 0 0 0-.425.15m12.61 5.862-2.24-1.812a.68.68 0 0 0-.422-.15H8.625v-2.7h6.75a1.35 1.35 0 0 0 1.35-1.35V9.3h2.7z"/>
</svg>
