<svg xmlns="http://www.w3.org/2000/svg" fill="currentColor" viewBox="0 0 24 24">
  <path d="M20.1 12a8.1 8.1 0 0 1-12.156 7.012l-3.155 1.053a.675.675 0 0 1-.854-.854l1.053-3.155A8.1 8.1 0 1 1 20.1 12" opacity=".2"/>
  <path d="M5.75 4.121a.675.675 0 1 0-1 .908l.865.952a8.78 8.78 0 0 0-1.362 10.143l-.958 2.873a1.35 1.35 0 0 0 1.708 1.708l2.873-.958a8.78 8.78 0 0 0 9.509-.821l.866.953a.675.675 0 1 0 .999-.908zM12 19.425a7.4 7.4 0 0 1-3.718-.996.68.68 0 0 0-.551-.056l-3.156 1.052 1.052-3.156a.68.68 0 0 0-.056-.551 7.425 7.425 0 0 1 .956-8.735l9.945 10.943A7.4 7.4 0 0 1 12 19.425M20.775 12a8.8 8.8 0 0 1-1.045 4.155.675.675 0 0 1-1.188-.639A7.425 7.425 0 0 0 9.121 5.154a.675.675 0 0 1-.524-1.245A8.78 8.78 0 0 1 20.775 12"/>
</svg>
