<svg xmlns="http://www.w3.org/2000/svg" fill="currentColor" viewBox="0 0 24 24">
  <path d="m19.088 12.338-4.947 4.946a2.7 2.7 0 0 1-3.818 0l-3.607-3.607a2.7 2.7 0 0 1 0-3.818l4.946-4.946z" opacity=".2"/>
  <path d="M21.253 6.797a.675.675 0 0 0-.956 0L17.4 9.696 14.304 6.6l2.899-2.897a.675.675 0 1 0-.956-.956L13.35 5.646l-2.222-2.224a.675.675 0 0 0-.956.956l.536.535-4.472 4.471a3.375 3.375 0 0 0 0 4.773l1.326 1.326-4.14 4.139a.675.675 0 0 0 .956.956l4.142-4.142 1.325 1.325a3.375 3.375 0 0 0 4.773 0l4.472-4.472.535.536a.675.675 0 0 0 .955-.955l-2.226-2.22 2.899-2.897a.675.675 0 0 0 0-.956m-7.589 10.012a2.025 2.025 0 0 1-2.865 0l-3.608-3.608a2.025 2.025 0 0 1 0-2.865l4.472-4.472 6.47 6.474z"/>
</svg>
