<svg xmlns="http://www.w3.org/2000/svg" fill="currentColor" viewBox="0 0 24 24">
  <path d="M20.775 15.037c0 1.304-1.209 2.363-2.7 2.363s-2.7-1.058-2.7-2.363 1.209-2.363 2.7-2.362 2.7 1.058 2.7 2.362M4.138 14.025h7.624l-3.812-8.1z" opacity=".2"/>
  <path d="M8.561 5.637a.675.675 0 0 0-1.222 0l-5.4 11.475a.675.675 0 1 0 1.222.575L4.567 14.7h6.766l1.406 2.987a.675.675 0 1 0 1.222-.575zM5.202 13.35 7.95 7.51l2.748 5.84zM18.075 9.3c-1.077 0-1.918.293-2.5.871a.675.675 0 0 0 .95.958c.321-.318.844-.479 1.55-.479 1.116 0 2.025.759 2.025 1.688v.271A3.6 3.6 0 0 0 18.075 12c-1.861 0-3.375 1.363-3.375 3.038s1.514 3.038 3.375 3.037a3.6 3.6 0 0 0 2.025-.612.675.675 0 0 0 1.35-.063v-5.062c0-1.675-1.514-3.038-3.375-3.038m0 7.425c-1.116 0-2.025-.759-2.025-1.687s.909-1.688 2.025-1.688 2.025.759 2.025 1.688-.909 1.687-2.025 1.687"/>
</svg>
