<svg xmlns="http://www.w3.org/2000/svg" fill="currentColor" viewBox="0 0 24 24">
  <path d="M20.578 8.822 8.822 20.578a.675.675 0 0 1-.954 0l-4.446-4.444a.675.675 0 0 1 0-.954L15.178 3.422a.675.675 0 0 1 .954 0l4.446 4.444a.675.675 0 0 1 0 .956" opacity=".2"/>
  <path d="m21.055 7.391-4.446-4.445a1.35 1.35 0 0 0-1.909 0L2.945 14.7a1.35 1.35 0 0 0 0 1.909l4.446 4.445a1.35 1.35 0 0 0 1.909 0L21.055 9.3a1.35 1.35 0 0 0 0-1.909M8.345 20.1 3.9 15.654l2.7-2.7 2.222 2.224a.675.675 0 0 0 .956-.956L7.554 12 9.3 10.254l2.222 2.224a.675.675 0 0 0 .956-.956L10.254 9.3 12 7.554l2.222 2.224a.675.675 0 0 0 .956-.956L12.954 6.6l2.7-2.7L20.1 8.346z"/>
</svg>
