<svg xmlns="http://www.w3.org/2000/svg" fill="currentColor" viewBox="0 0 24 24">
  <path d="M20.775 12c0 1.056-1.504 1.852-1.914 2.843-.395.955.12 2.586-.656 3.362s-2.407.262-3.362.656c-.987.41-1.788 1.914-2.843 1.914s-1.856-1.504-2.843-1.914c-.955-.395-2.585.12-3.362-.656s-.262-2.407-.656-3.362c-.41-.987-1.914-1.788-1.914-2.843s1.504-1.856 1.914-2.843c.395-.954-.12-2.586.656-3.362s2.408-.261 3.362-.656c.991-.41 1.788-1.914 2.843-1.914s1.856 1.504 2.843 1.914c.955.395 2.585-.12 3.362.656s.262 2.407.656 3.362c.41.991 1.914 1.788 1.914 2.843" opacity=".2"/>
  <path d="M20.257 9.875c-.318-.332-.647-.675-.771-.976-.115-.276-.121-.733-.128-1.176-.013-.824-.026-1.757-.675-2.406s-1.582-.662-2.406-.675c-.443-.007-.9-.014-1.176-.128-.3-.124-.644-.453-.976-.771C13.542 3.184 12.881 2.55 12 2.55s-1.542.634-2.125 1.193c-.332.318-.675.647-.976.771-.274.115-.733.122-1.176.129-.824.013-1.757.026-2.405.675S4.659 6.9 4.643 7.723c-.007.443-.014.9-.129 1.176-.124.3-.453.644-.771.976-.559.583-1.193 1.244-1.193 2.125s.634 1.542 1.193 2.125c.318.332.647.675.771.976.115.276.121.733.129 1.176.013.824.026 1.757.675 2.406s1.582.662 2.405.675c.443.007.9.014 1.176.128.3.124.644.453.976.771.583.559 1.244 1.193 2.125 1.193s1.542-.634 2.125-1.193c.332-.318.675-.647.976-.771.276-.115.733-.121 1.176-.129.824-.013 1.757-.026 2.406-.675s.662-1.582.675-2.405c.007-.443.014-.9.128-1.176.124-.3.453-.644.771-.976.559-.583 1.193-1.244 1.193-2.125s-.634-1.542-1.193-2.125m-.975 3.316c-.404.422-.823.858-1.044 1.393-.213.515-.222 1.103-.23 1.673-.008.591-.018 1.209-.281 1.47s-.877.272-1.47.28c-.57.008-1.158.018-1.673.231-.536.222-.972.64-1.393 1.044s-.853.818-1.191.818-.772-.415-1.191-.818-.858-.823-1.393-1.044c-.515-.213-1.103-.222-1.673-.231-.591-.008-1.209-.018-1.47-.28s-.272-.877-.281-1.47c-.008-.57-.018-1.158-.23-1.673-.222-.536-.64-.972-1.044-1.393S3.9 12.338 3.9 12s.415-.771.818-1.191.823-.858 1.044-1.393c.213-.515.222-1.103.231-1.673.008-.591.018-1.209.28-1.47s.876-.272 1.47-.28c.57-.008 1.158-.018 1.673-.231.536-.222.972-.64 1.393-1.044S11.662 3.9 12 3.9s.772.415 1.191.818.858.823 1.393 1.044c.515.213 1.103.222 1.673.231.591.008 1.209.018 1.47.28s.272.877.281 1.47c.008.57.018 1.158.23 1.673.222.536.64.972 1.044 1.393s.818.853.818 1.191-.415.771-.818 1.191M11.325 9.3A2.025 2.025 0 1 0 9.3 11.325 2.025 2.025 0 0 0 11.325 9.3m-2.7 0a.675.675 0 1 1 .675.675.675.675 0 0 1-.675-.675m6.075 3.375a2.025 2.025 0 1 0 2.025 2.025 2.025 2.025 0 0 0-2.025-2.025m0 2.7a.675.675 0 1 1 .675-.675.675.675 0 0 1-.675.675m1.153-6.272-6.75 6.75a.675.675 0 0 1-.956-.956l6.75-6.75a.675.675 0 0 1 .956.956"/>
</svg>
