<svg xmlns="http://www.w3.org/2000/svg" fill="currentColor" viewBox="0 0 24 24">
  <path d="M18.75 7.275v9.45a.675.675 0 0 1-.675.675H16.05V9.975L12.675 6.6H7.95V4.575a.675.675 0 0 1 .675-.675h6.75z" opacity=".2"/>
  <path d="m19.228 6.797-3.375-3.375a.68.68 0 0 0-.478-.197h-6.75a1.35 1.35 0 0 0-1.35 1.35v1.35h-1.35a1.35 1.35 0 0 0-1.35 1.35v12.15a1.35 1.35 0 0 0 1.35 1.35h9.45a1.35 1.35 0 0 0 1.35-1.35v-1.35h1.35a1.35 1.35 0 0 0 1.35-1.35v-9.45a.68.68 0 0 0-.197-.478m-3.853 12.628h-9.45V7.275h6.471l2.979 2.979zm2.7-2.7h-1.35v-6.75a.68.68 0 0 0-.197-.478l-3.375-3.375a.68.68 0 0 0-.478-.197h-4.05v-1.35h6.471l2.979 2.979zm-4.725-2.7a.675.675 0 0 1-.675.675h-4.05a.675.675 0 0 1 0-1.35h4.05a.675.675 0 0 1 .675.675m0 2.7a.675.675 0 0 1-.675.675h-4.05a.675.675 0 0 1 0-1.35h4.05a.675.675 0 0 1 .675.675"/>
</svg>
