<svg xmlns="http://www.w3.org/2000/svg" fill="currentColor" viewBox="0 0 24 24">
  <path d="M20.775 12.675v5.4a.675.675 0 0 1-.675.675H3.9a.675.675 0 0 1-.675-.675v-5.4A.675.675 0 0 1 3.9 12h16.2a.675.675 0 0 1 .675.675" opacity=".2"/>
  <path d="M21.45 12.675v5.4a1.35 1.35 0 0 1-1.35 1.35H3.9a1.35 1.35 0 0 1-1.35-1.35v-5.4a1.35 1.35 0 0 1 1.35-1.35h3.375a.675.675 0 0 1 0 1.35H3.9v5.4h16.2v-5.4h-3.375a.675.675 0 0 1 0-1.35H20.1a1.35 1.35 0 0 1 1.35 1.35m-9.928-.197a.675.675 0 0 0 .956 0l4.05-4.05a.675.675 0 0 0-.956-.956l-2.897 2.899V3.225a.675.675 0 0 0-1.35 0v7.146L8.428 7.472a.675.675 0 0 0-.956.956zm6.553 2.897a1.013 1.013 0 1 0-1.013 1.013 1.013 1.013 0 0 0 1.013-1.013"/>
</svg>
