<svg xmlns="http://www.w3.org/2000/svg" fill="currentColor" viewBox="0 0 24 24">
  <path d="M18.75 9.975v9.45H5.25v-9.45z" opacity=".2"/>
  <path d="M19.425 10.65v8.1a1.35 1.35 0 0 1-1.35 1.35H5.925a1.35 1.35 0 0 1-1.35-1.35v-8.1a1.35 1.35 0 0 1 1.35-1.35H7.95a.675.675 0 0 1 0 1.35H5.925v8.1h12.15v-8.1H16.05a.675.675 0 0 1 0-1.35h2.025a1.35 1.35 0 0 1 1.35 1.35M9.103 7.078l2.222-2.224v7.821a.675.675 0 0 0 1.35 0V4.854l2.222 2.224a.675.675 0 0 0 .956-.956l-3.375-3.375a.675.675 0 0 0-.956 0L8.147 6.122a.675.675 0 0 0 .956.956"/>
</svg>
