<svg xmlns="http://www.w3.org/2000/svg" fill="currentColor" viewBox="0 0 24 24">
  <path d="M18.75 8.625h-4.725V3.9z" opacity=".2"/>
  <path d="M5.25 11.325a.675.675 0 0 0 .675-.675V4.575h7.425v4.05a.675.675 0 0 0 .675.675h4.05v1.35a.675.675 0 0 0 1.35 0V8.625a.68.68 0 0 0-.197-.478l-4.725-4.725a.68.68 0 0 0-.478-.197h-8.1a1.35 1.35 0 0 0-1.35 1.35v6.075a.675.675 0 0 0 .675.675m9.45-5.796 2.421 2.421H14.7zm-.463 8.888-1.408 1.971 1.408 1.97a.675.675 0 0 1-1.097.784L12 17.549l-1.138 1.593a.675.675 0 1 1-1.097-.784l1.406-1.97-1.408-1.971a.675.675 0 1 1 1.097-.784L12 15.227l1.138-1.594a.675.675 0 0 1 1.097.784zm-5.274-.392a.675.675 0 0 1-.675.675H7.275v4.05a.675.675 0 0 1-1.35 0V14.7H4.913a.675.675 0 0 1 0-1.35h3.374a.675.675 0 0 1 .676.675m10.8 0a.675.675 0 0 1-.675.675h-1.013v4.05a.675.675 0 0 1-1.35 0V14.7h-1.012a.675.675 0 0 1 0-1.35h3.375a.675.675 0 0 1 .674.675z"/>
</svg>
