<svg xmlns="http://www.w3.org/2000/svg" fill="currentColor" viewBox="0 0 24 24">
  <path d="M20.1 6.6v12.15H3.9V5.25h14.85A1.35 1.35 0 0 1 20.1 6.6" opacity=".2"/>
  <path d="M20.775 18.75a.675.675 0 0 1-.675.675H3.9a.675.675 0 0 1-.675-.675V5.25a.675.675 0 0 1 1.35 0v9.171l4.247-4.249a.675.675 0 0 1 .956 0L12 12.396l4.446-4.446H14.7a.675.675 0 0 1 0-1.35h3.375a.675.675 0 0 1 .675.675v3.375a.675.675 0 0 1-1.35 0V8.904l-4.922 4.924a.675.675 0 0 1-.956 0L9.3 11.604l-4.725 4.725v1.746H20.1a.675.675 0 0 1 .675.675"/>
</svg>
