<svg xmlns="http://www.w3.org/2000/svg" fill="currentColor" viewBox="0 0 24 24">
  <path d="M20.1 12a8.1 8.1 0 1 1-2.373-5.727l-3.818 3.818A2.7 2.7 0 1 0 14.7 12z" opacity=".2"/>
  <path d="M12 3.225A8.775 8.775 0 1 0 20.775 12 8.784 8.784 0 0 0 12 3.225m3.308 8.1a3.4 3.4 0 0 0-.493-1.181l2.888-2.889a7.4 7.4 0 0 1 1.687 4.073zM14.025 12A2.025 2.025 0 1 1 12 9.975 2.025 2.025 0 0 1 14.025 12M12 19.425a7.425 7.425 0 1 1 4.749-13.129l-2.893 2.889a3.375 3.375 0 1 0 1.451 3.49h4.087A7.434 7.434 0 0 1 12 19.425"/>
</svg>
