<svg xmlns="http://www.w3.org/2000/svg" fill="currentColor" viewBox="0 0 24 24">
  <path d="M18.75 8.625h-4.725V3.9z" opacity=".2"/>
  <path d="M5.25 16.388c0 .928.606 1.688 1.35 1.687a1.2 1.2 0 0 0 .862-.393.675.675 0 0 1 .976.933 2.54 2.54 0 0 1-1.838.81c-1.489 0-2.7-1.363-2.7-3.038s1.211-3.038 2.7-3.037a2.54 2.54 0 0 1 1.838.81.675.675 0 0 1-.976.933A1.2 1.2 0 0 0 6.6 14.7c-.744 0-1.35.759-1.35 1.688m6.716-.734c-.338-.098-.687-.198-.881-.324-.105-.068-.104-.084-.095-.16a.39.39 0 0 1 .169-.31c.388-.263 1.294-.146 1.673-.047a.675.675 0 0 0 .349-1.306c-.179-.046-1.772-.44-2.771.233a1.74 1.74 0 0 0-.759 1.261c-.169 1.34 1.152 1.722 1.941 1.95 1.018.294 1.107.415 1.078.641-.026.203-.106.282-.181.331-.388.258-1.28.132-1.649.031a.675.675 0 0 0-.364 1.302 5.2 5.2 0 0 0 1.282.169c.491 0 1.038-.084 1.476-.376a1.76 1.76 0 0 0 .775-1.285c.185-1.461-1.208-1.868-2.043-2.11m7.011-2.264a.675.675 0 0 0-.863.408l-1.051 2.945-1.053-2.945a.675.675 0 0 0-1.271.454l1.687 4.725a.675.675 0 0 0 1.272 0l1.687-4.725a.675.675 0 0 0-.408-.862m.448-4.765v2.025a.675.675 0 0 1-1.35 0V9.3h-4.05a.675.675 0 0 1-.675-.675v-4.05H5.925v6.075a.675.675 0 0 1-1.35 0V4.575a1.35 1.35 0 0 1 1.35-1.35h8.1a.68.68 0 0 1 .478.197l4.725 4.725a.68.68 0 0 1 .197.478m-2.304-.675L14.7 5.529V7.95z"/>
</svg>
