<svg xmlns="http://www.w3.org/2000/svg" fill="currentColor" viewBox="0 0 24 24">
  <path d="M18.75 8.625h-4.725V3.9z" opacity=".2"/>
  <path d="m19.228 8.147-4.725-4.725a.68.68 0 0 0-.478-.197h-8.1a1.35 1.35 0 0 0-1.35 1.35v14.85a1.35 1.35 0 0 0 1.35 1.35h12.15a1.35 1.35 0 0 0 1.35-1.35v-10.8a.68.68 0 0 0-.197-.478M14.7 5.529l2.421 2.421H14.7zm3.375 13.896H5.925V4.575h7.425v4.05a.675.675 0 0 0 .675.675h4.05zm-3.375-5.4a.675.675 0 0 1-.675.675h-1.35v1.35a.675.675 0 0 1-1.35 0V14.7h-1.35a.675.675 0 0 1 0-1.35h1.35V12a.675.675 0 0 1 1.35 0v1.35h1.35a.675.675 0 0 1 .675.675"/>
</svg>
