<svg xmlns="http://www.w3.org/2000/svg" fill="currentColor" viewBox="0 0 24 24">
  <path d="M18.75 8.625h-4.725V3.9z" opacity=".2"/>
  <path d="M14.363 18.75a.675.675 0 0 1-.675.675h-2.363a.675.675 0 0 1-.675-.675v-4.725a.675.675 0 0 1 1.35 0v4.05h1.688a.675.675 0 0 1 .675.675m-5.346-5.274a.675.675 0 0 0-.941.157l-1.138 1.594-1.139-1.594a.675.675 0 1 0-1.097.784l1.406 1.971-1.407 1.97a.675.675 0 0 0 1.097.784l1.14-1.593 1.138 1.593a.675.675 0 0 0 1.097-.784l-1.406-1.97 1.407-1.971a.675.675 0 0 0-.157-.941m8.348 2.178c-.338-.098-.687-.198-.881-.324-.105-.069-.104-.084-.095-.16a.38.38 0 0 1 .169-.31c.388-.263 1.294-.146 1.672-.047a.675.675 0 0 0 .344-1.306c-.178-.046-1.772-.44-2.77.233a1.74 1.74 0 0 0-.756 1.26c-.169 1.341 1.152 1.723 1.941 1.951 1.018.294 1.107.415 1.078.641-.026.203-.106.281-.181.331-.388.258-1.279.132-1.649.03a.675.675 0 0 0-.362 1.303 5 5 0 0 0 1.282.169c.491 0 1.038-.084 1.476-.376a1.76 1.76 0 0 0 .774-1.285c.187-1.461-1.207-1.868-2.042-2.11M4.575 10.65V4.575a1.35 1.35 0 0 1 1.35-1.35h8.1a.68.68 0 0 1 .478.197l4.725 4.725a.68.68 0 0 1 .197.478v2.025a.675.675 0 1 1-1.35 0V9.3h-4.05a.675.675 0 0 1-.675-.675v-4.05H5.925v6.075a.675.675 0 0 1-1.35 0M14.7 7.95h2.42L14.7 5.529z"/>
</svg>
