<svg xmlns="http://www.w3.org/2000/svg" fill="currentColor" viewBox="0 0 24 24">
  <path d="M12 7.95H3.9V5.925a.675.675 0 0 1 .675-.675h4.446a.68.68 0 0 1 .476.197z" opacity=".2"/>
  <path d="M19.425 7.275h-7.146L9.975 4.971a1.34 1.34 0 0 0-.954-.396H4.575a1.35 1.35 0 0 0-1.35 1.35v12.202a1.3 1.3 0 0 0 1.298 1.298H19.5a1.277 1.277 0 0 0 1.275-1.275V8.625a1.35 1.35 0 0 0-1.35-1.35M9.021 5.925l1.35 1.35H4.575v-1.35zm10.404 12.15H4.575v-9.45h14.85zM12 10.65a.675.675 0 0 1 .675.675v1.35h1.35a.675.675 0 0 1 0 1.35h-1.35v1.35a.675.675 0 0 1-1.35 0v-1.35h-1.35a.675.675 0 0 1 0-1.35h1.35v-1.35A.675.675 0 0 1 12 10.65"/>
</svg>
