<svg xmlns="http://www.w3.org/2000/svg" fill="currentColor" viewBox="0 0 24 24">
  <path d="M13.35 12a.66.66 0 0 1-.306.556l-7.441 4.738a.667.667 0 0 1-1.028-.556V7.262a.667.667 0 0 1 1.028-.556l7.441 4.738a.66.66 0 0 1 .306.556m8.469-.556-7.441-4.738a.667.667 0 0 0-1.028.556v9.476a.667.667 0 0 0 1.028.556l7.441-4.738a.658.658 0 0 0 0-1.112" opacity=".2"/>
  <path d="M22.182 10.874 14.74 6.136a1.342 1.342 0 0 0-2.065 1.126v3.147L5.966 6.136A1.342 1.342 0 0 0 3.9 7.262v9.477a1.343 1.343 0 0 0 2.066 1.125l6.709-4.273v3.148a1.343 1.343 0 0 0 2.066 1.125l7.441-4.738a1.333 1.333 0 0 0 0-2.252M5.25 16.72V7.281L12.66 12zm8.775 0V7.281L21.435 12z"/>
</svg>
