<svg xmlns="http://www.w3.org/2000/svg" fill="currentColor" viewBox="0 0 24 24">
  <path d="M15.375 12A3.375 3.375 0 1 1 12 8.625 3.375 3.375 0 0 1 15.375 12" opacity=".2"/>
  <path d="M12 3.225A8.775 8.775 0 1 0 20.775 12 8.784 8.784 0 0 0 12 3.225m0 1.35a7.43 7.43 0 0 1 6.22 3.375H12a4.06 4.06 0 0 0-3.848 2.784L6.205 7.359A7.42 7.42 0 0 1 12 4.575M14.7 12A2.7 2.7 0 1 1 12 9.3a2.7 2.7 0 0 1 2.7 2.7m-3.821 7.341A7.425 7.425 0 0 1 5.382 8.637l3.111 5.388.016.024a4.05 4.05 0 0 0 4.32 1.917zm1.519.073 3.109-5.389.019-.035a4.04 4.04 0 0 0-.506-4.69h3.899a7.425 7.425 0 0 1-6.522 10.114z"/>
</svg>
