<svg xmlns="http://www.w3.org/2000/svg" fill="currentColor" viewBox="0 0 24 24">
  <path d="M18.75 8.625v2.025H7.087a.675.675 0 0 0-.641.462L3.9 18.75V6.6a.675.675 0 0 1 .675-.675h4.5a.68.68 0 0 1 .405.135L12 7.95h6.075a.675.675 0 0 1 .675.675" opacity=".2"/>
  <path d="M21.872 10.535a1.35 1.35 0 0 0-1.097-.56h-1.35v-1.35a1.35 1.35 0 0 0-1.35-1.35h-5.85L9.886 5.52a1.36 1.36 0 0 0-.81-.27H4.575a1.35 1.35 0 0 0-1.35 1.35v12.15a.675.675 0 0 0 .675.675h15.112a.675.675 0 0 0 .64-.462l2.404-7.211a1.35 1.35 0 0 0-.184-1.217M9.076 6.6l2.519 1.89a.68.68 0 0 0 .405.135h6.075v1.35H7.087a1.35 1.35 0 0 0-1.281.923L4.575 14.59V6.6zm9.45 11.475H4.837l2.25-6.75h13.688z"/>
</svg>
