<svg xmlns="http://www.w3.org/2000/svg" fill="currentColor" viewBox="0 0 24 24">
  <path d="M20.1 7.95 12 12.675 3.9 7.95 12 3.225z" opacity=".2"/>
  <path d="M20.683 15.713a.675.675 0 0 1-.245.92l-8.101 4.725a.68.68 0 0 1-.68 0l-8.1-4.725a.675.675 0 0 1 .68-1.166L12 19.994l7.763-4.527a.675.675 0 0 1 .92.246m-.921-4.296L12 15.944l-7.763-4.527a.675.675 0 0 0-.674 1.166l8.1 4.725a.68.68 0 0 0 .68 0l8.1-4.725a.675.675 0 1 0-.681-1.166M3.225 7.95a.68.68 0 0 1 .338-.583l8.1-4.725a.68.68 0 0 1 .68 0l8.1 4.725a.675.675 0 0 1 0 1.166l-8.1 4.725a.68.68 0 0 1-.68 0l-8.1-4.725a.68.68 0 0 1-.338-.583m2.015 0L12 11.894l6.76-3.944L12 4.006z"/>
</svg>
