<svg xmlns="http://www.w3.org/2000/svg" fill="currentColor" viewBox="0 0 24 24">
  <path d="M21.45 7.275V18.75H5.925a1.35 1.35 0 0 1-1.35-1.35V5.925H20.1a1.35 1.35 0 0 1 1.35 1.35" opacity=".2"/>
  <path d="M22.125 18.75a.675.675 0 0 1-.675.675H17.4a.675.675 0 0 1-.54-1.08l3.642-4.857a1.35 1.35 0 1 0-2.155-1.626 1.4 1.4 0 0 0-.196.363.675.675 0 1 1-1.272-.45 2.7 2.7 0 1 1 4.702 2.525l-2.831 3.775h2.7a.675.675 0 0 1 .675.675M13.35 5.25a.675.675 0 0 0-.675.675v4.388H5.25V5.925a.675.675 0 0 0-1.35 0V16.05a.675.675 0 0 0 1.35 0v-4.388h7.425v4.388a.675.675 0 0 0 1.35 0V5.925a.675.675 0 0 0-.675-.675"/>
</svg>
