<svg xmlns="http://www.w3.org/2000/svg" fill="currentColor" viewBox="0 0 24 24">
  <path d="M22.125 7.275V17.4a1.35 1.35 0 0 1-1.35 1.35H5.925a1.35 1.35 0 0 1-1.35-1.35V5.925h16.2a1.35 1.35 0 0 1 1.35 1.35" opacity=".2"/>
  <path d="M14.025 5.925V16.05a.675.675 0 0 1-1.35 0v-4.388H5.25v4.388a.675.675 0 0 1-1.35 0V5.925a.675.675 0 0 1 1.35 0v4.388h7.425V5.925a.675.675 0 0 1 1.35 0m8.775 10.8a.675.675 0 0 1-.675.675h-.675v1.35a.675.675 0 0 1-1.35 0V17.4h-4.05a.675.675 0 0 1-.532-1.089l4.725-6.075a.675.675 0 0 1 1.207.414v5.4h.675a.675.675 0 0 1 .675.675m-2.7-4.107-2.67 3.432h2.67z"/>
</svg>
