<svg xmlns="http://www.w3.org/2000/svg" fill="currentColor" viewBox="0 0 24 24">
  <path d="M21.45 7.275V17.4a1.35 1.35 0 0 1-1.35 1.35H5.925a1.35 1.35 0 0 1-1.35-1.35V5.925H20.1a1.35 1.35 0 0 1 1.35 1.35" opacity=".2"/>
  <path d="M14.025 5.925V16.05a.675.675 0 0 1-1.35 0v-4.388H5.25v4.388a.675.675 0 0 1-1.35 0V5.925a.675.675 0 0 1 1.35 0v4.388h7.425V5.925a.675.675 0 0 1 1.35 0m8.1 10.463a3.038 3.038 0 1 1-5.682-1.492l.019-.036 2.721-4.556a.675.675 0 0 1 1.159.692l-1.408 2.362c.051 0 .102-.004.154-.004a3.04 3.04 0 0 1 3.037 3.034m-1.35 0a1.688 1.688 0 1 0-1.687 1.687 1.69 1.69 0 0 0 1.687-1.687"/>
</svg>
