<svg xmlns="http://www.w3.org/2000/svg" fill="currentColor" viewBox="0 0 24 24">
  <path d="M20.1 5.25v13.5a1.35 1.35 0 0 1-1.35 1.35H5.25a1.35 1.35 0 0 1-1.35-1.35V5.25A1.35 1.35 0 0 1 5.25 3.9h13.5a1.35 1.35 0 0 1 1.35 1.35" opacity=".2"/>
  <path d="m19.228 5.728-4.249 4.247H17.4a.675.675 0 0 1 0 1.35h-4.05a.675.675 0 0 1-.675-.675V6.6a.675.675 0 0 1 1.35 0v2.421l4.247-4.249a.675.675 0 0 1 .956.956m-8.578 6.947H6.6a.675.675 0 0 0 0 1.35h2.421l-4.249 4.247a.675.675 0 0 0 .956.956l4.247-4.249V17.4a.675.675 0 0 0 1.35 0v-4.05a.675.675 0 0 0-.675-.675"/>
</svg>
