<svg xmlns="http://www.w3.org/2000/svg" fill="currentColor" viewBox="0 0 24 24">
  <path d="M20.1 5.25v13.5H3.9V5.25z" opacity=".2"/>
  <path d="M16.05 7.275h-2.025a.675.675 0 0 0-.675.675v8.1a.675.675 0 0 0 .675.675h2.025a4.725 4.725 0 0 0 0-9.45m0 8.1H14.7v-6.75h1.35a3.375 3.375 0 0 1 0 6.75m-5.4.675v-3.375H5.925v3.375a.675.675 0 0 1-1.35 0v-8.1a.675.675 0 0 1 1.35 0v3.375h4.725V7.95a.675.675 0 0 1 1.35 0v8.1a.675.675 0 0 1-1.35 0M3.225 5.25a.675.675 0 0 1 .675-.675h16.2a.675.675 0 0 1 0 1.35H3.9a.675.675 0 0 1-.675-.675m17.55 13.5a.675.675 0 0 1-.675.675H3.9a.675.675 0 0 1 0-1.35h16.2a.675.675 0 0 1 .675.675"/>
</svg>
