<svg xmlns="http://www.w3.org/2000/svg" fill="currentColor" viewBox="0 0 24 24">
  <path d="M20.775 9.806C20.775 15.375 12 20.1 12 20.1S3.225 15.375 3.225 9.806A4.556 4.556 0 0 1 7.781 5.25c1.906 0 3.539 1.039 4.219 2.7.68-1.661 2.313-2.7 4.219-2.7a4.556 4.556 0 0 1 4.556 4.556" opacity=".2"/>
  <path d="M16.219 4.575c-1.742 0-3.268.749-4.219 2.016-.951-1.267-2.476-2.016-4.219-2.016A5.237 5.237 0 0 0 2.55 9.806c0 5.906 8.757 10.687 9.13 10.885a.68.68 0 0 0 .64 0c.373-.198 9.13-4.978 9.13-10.885a5.237 5.237 0 0 0-5.231-5.231M12 19.324c-1.541-.898-8.1-4.988-8.1-9.518a3.886 3.886 0 0 1 3.881-3.881c1.641 0 3.019.874 3.595 2.278a.675.675 0 0 0 1.248 0c.575-1.407 1.953-2.278 3.595-2.278A3.886 3.886 0 0 1 20.1 9.806c0 4.524-6.561 8.619-8.1 9.518"/>
</svg>
