<svg xmlns="http://www.w3.org/2000/svg" fill="currentColor" viewBox="0 0 24 24">
  <path d="M16.725 7.95v10.8a.675.675 0 0 1-.675.675H5.25a.675.675 0 0 1-.675-.675V7.95a.675.675 0 0 1 .675-.675h10.8a.675.675 0 0 1 .675.675" opacity=".2"/>
  <path d="M20.1 9.975a.675.675 0 0 1-1.35 0v-3.77l-5.597 5.598a.675.675 0 0 1-.955-.956l5.597-5.597h-3.77a.675.675 0 0 1 0-1.35h5.4a.675.675 0 0 1 .675.675zM16.725 12a.675.675 0 0 0-.675.675v6.075H5.25V7.95h6.075a.675.675 0 0 0 0-1.35H5.25A1.35 1.35 0 0 0 3.9 7.95v10.8a1.35 1.35 0 0 0 1.35 1.35h10.8a1.35 1.35 0 0 0 1.35-1.35v-6.075a.675.675 0 0 0-.675-.675"/>
</svg>
