<svg xmlns="http://www.w3.org/2000/svg" fill="currentColor" viewBox="0 0 24 24">
  <path d="M12.675 11.325v7.425H5.25v-7.425z" opacity=".2"/>
  <path d="M12.675 10.65H5.25a.675.675 0 0 0-.675.675v7.425a.675.675 0 0 0 .675.675h7.425a.675.675 0 0 0 .675-.675v-7.425a.675.675 0 0 0-.675-.675M12 18.075H5.925V12H12zm7.425-1.35v1.35a1.35 1.35 0 0 1-1.35 1.35H16.05a.675.675 0 0 1 0-1.35h2.025v-1.35a.675.675 0 0 1 1.35 0m0-6.075v2.7a.675.675 0 0 1-1.35 0v-2.7a.675.675 0 0 1 1.35 0m0-4.725v1.35a.675.675 0 0 1-1.35 0v-1.35h-1.35a.675.675 0 0 1 0-1.35h1.35a1.35 1.35 0 0 1 1.35 1.35m-5.4-.675a.675.675 0 0 1-.675.675h-2.7a.675.675 0 0 1 0-1.35h2.7a.675.675 0 0 1 .675.675m-9.45 2.7V5.925a1.35 1.35 0 0 1 1.35-1.35h1.35a.675.675 0 0 1 0 1.35h-1.35V7.95a.675.675 0 0 1-1.35 0"/>
</svg>
