<svg xmlns="http://www.w3.org/2000/svg" fill="currentColor" viewBox="0 0 24 24">
  <path d="M20.1 5.925v6.924l-2.001-2.002a.675.675 0 0 0-.955 0l-2.165 2.165-4.189-4.19a.675.675 0 0 0-.955 0L6.6 12.058V5.925a.675.675 0 0 1 .675-.675h12.15a.675.675 0 0 1 .675.675" opacity=".2"/>
  <path d="M19.425 4.575H7.275a1.35 1.35 0 0 0-1.35 1.35v1.35h-1.35a1.35 1.35 0 0 0-1.35 1.35v9.45a1.35 1.35 0 0 0 1.35 1.35h12.15a1.35 1.35 0 0 0 1.35-1.35v-1.35h1.35a1.35 1.35 0 0 0 1.35-1.35v-9.45a1.35 1.35 0 0 0-1.35-1.35m-12.15 1.35h12.15v5.295l-.85-.849a1.35 1.35 0 0 0-1.909 0l-1.688 1.687-3.712-3.712a1.35 1.35 0 0 0-1.909 0l-2.082 2.082zm9.45 12.15H4.575v-9.45h1.35v6.75a1.35 1.35 0 0 0 1.35 1.35h9.45zm2.7-2.7H7.275v-3.037L10.313 9.3l4.19 4.19a.675.675 0 0 0 .954 0l2.165-2.165 1.803 1.804zM14.7 8.287A1.013 1.013 0 1 1 15.713 9.3 1.013 1.013 0 0 1 14.7 8.287"/>
</svg>
