<svg xmlns="http://www.w3.org/2000/svg" fill="currentColor" viewBox="0 0 24 24">
  <path d="M19.425 5.25v13.5H4.575V5.25a1.35 1.35 0 0 1 1.35-1.35h12.15a1.35 1.35 0 0 1 1.35 1.35" opacity=".2"/>
  <path d="M20.1 13.35v5.4a.675.675 0 0 1-.675.675H4.575a.675.675 0 0 1-.675-.675v-5.4a.675.675 0 0 1 1.35 0v4.725h13.5V13.35a.675.675 0 0 1 1.35 0m-8.578.478a.675.675 0 0 0 .956 0l3.375-3.375a.675.675 0 0 0-.956-.956l-2.222 2.224V3.9a.675.675 0 0 0-1.35 0v7.821L9.103 9.497a.675.675 0 0 0-.956.956z"/>
</svg>
