<svg xmlns="http://www.w3.org/2000/svg" fill="currentColor" viewBox="0 0 24 24">
  <path d="M19.425 6.6v10.8H4.575V6.6z" opacity=".2"/>
  <path d="M20.1 12a.675.675 0 0 1-.675.675H10.65a.675.675 0 0 1 0-1.35h8.775A.675.675 0 0 1 20.1 12m-9.45-4.725h8.775a.675.675 0 0 0 0-1.35H10.65a.675.675 0 0 0 0 1.35m8.775 9.45H4.575a.675.675 0 0 0 0 1.35h14.85a.675.675 0 0 0 0-1.35M4.097 13.153a.675.675 0 0 0 .956 0l3.375-3.375a.675.675 0 0 0 0-.956L5.053 5.447a.675.675 0 0 0-.956.956L6.996 9.3l-2.899 2.897a.675.675 0 0 0 0 .956"/>
</svg>
