<svg xmlns="http://www.w3.org/2000/svg" fill="currentColor" viewBox="0 0 24 24">
  <path d="M16.05 5.25v13.5H14.7a2.7 2.7 0 0 1-2.7-2.7 2.7 2.7 0 0 1-2.7 2.7H7.95V5.25H9.3a2.7 2.7 0 0 1 2.7 2.7 2.7 2.7 0 0 1 2.7-2.7z" opacity=".2"/>
  <path d="M16.725 18.75a.675.675 0 0 1-.675.675H14.7a3.38 3.38 0 0 1-2.7-1.35 3.38 3.38 0 0 1-2.7 1.35H7.95a.675.675 0 0 1 0-1.35H9.3a2.025 2.025 0 0 0 2.025-2.025v-3.375h-1.35a.675.675 0 0 1 0-1.35h1.35V7.95A2.025 2.025 0 0 0 9.3 5.925H7.95a.675.675 0 0 1 0-1.35H9.3a3.38 3.38 0 0 1 2.7 1.35 3.38 3.38 0 0 1 2.7-1.35h1.35a.675.675 0 0 1 0 1.35H14.7a2.025 2.025 0 0 0-2.025 2.025v3.375h1.35a.675.675 0 0 1 0 1.35h-1.35v3.375a2.025 2.025 0 0 0 2.025 2.025h1.35a.675.675 0 0 1 .675.675"/>
</svg>
