<svg xmlns="http://www.w3.org/2000/svg" fill="currentColor" viewBox="0 0 24 24">
  <path d="m9.2 17.4-2.485 1.877a.675.675 0 0 1-1.081-.381l-1.043-4.694a.68.68 0 0 1 .14-.579l2.558-3.065c-.098 1.969.383 4.263 1.911 6.842m10.069-3.777-2.557-3.065c.102 1.969-.383 4.263-1.912 6.842l2.485 1.877a.675.675 0 0 0 1.081-.381l1.043-4.694a.68.68 0 0 0-.14-.579" opacity=".2"/>
  <path d="M14.025 20.1a.675.675 0 0 1-.675.675h-2.7a.675.675 0 0 1 0-1.35h2.7a.675.675 0 0 1 .675.675M12 10.65a1.013 1.013 0 1 0-1.013-1.013A1.013 1.013 0 0 0 12 10.65m8.068 3.698-1.043 4.694a1.35 1.35 0 0 1-2.152.769l-2.299-1.736H9.427l-2.3 1.736a1.35 1.35 0 0 1-2.152-.769l-1.043-4.694a1.36 1.36 0 0 1 .28-1.157l2.41-2.89a10.4 10.4 0 0 1 .723-3.094c1.088-2.729 3.038-4.441 3.828-5.05a1.35 1.35 0 0 1 1.654 0c.788.609 2.74 2.321 3.828 5.05a10.4 10.4 0 0 1 .723 3.094l2.41 2.89a1.36 1.36 0 0 1 .28 1.157M9.589 16.725h4.822c1.782-3.167 2.115-6.2.99-9.018-.992-2.487-2.853-4.06-3.401-4.482-.549.422-2.411 1.995-3.403 4.482-1.123 2.818-.79 5.851.992 9.018m-1.265.494q-1.363-2.477-1.654-4.868l-1.42 1.704 1.043 4.695.015-.011zm10.426-3.164-1.42-1.704q-.289 2.386-1.65 4.868l2.012 1.518.015.011z"/>
</svg>
