<svg xmlns="http://www.w3.org/2000/svg" fill="currentColor" viewBox="0 0 24 24">
  <path d="M18.075 4.575v14.85h-13.5a1.35 1.35 0 0 1-1.35-1.35V5.925a1.35 1.35 0 0 1 1.35-1.35z" opacity=".2"/>
  <path d="m13.153 12.478-3.375 3.375a.675.675 0 0 1-.956-.956l2.224-2.222H3.225a.675.675 0 0 1 0-1.35h7.821L8.822 9.103a.675.675 0 0 1 .956-.956l3.375 3.375a.675.675 0 0 1 0 .956M18.075 3.9h-5.4a.675.675 0 0 0 0 1.35H17.4v13.5h-4.725a.675.675 0 0 0 0 1.35h5.4a.675.675 0 0 0 .675-.675V4.575a.675.675 0 0 0-.675-.675"/>
</svg>
