<svg xmlns="http://www.w3.org/2000/svg" fill="currentColor" viewBox="0 0 24 24">
  <path d="M20.1 7.95v7.425L18.075 17.4H5.25V6.6h13.5a1.35 1.35 0 0 1 1.35 1.35" opacity=".2"/>
  <path d="M12 12a.675.675 0 0 1-.675.675H5.25a.675.675 0 0 1 0-1.35h6.075A.675.675 0 0 1 12 12M5.25 7.275h11.475a.675.675 0 0 0 0-1.35H5.25a.675.675 0 0 0 0 1.35m4.725 9.45H5.25a.675.675 0 0 0 0 1.35h4.725a.675.675 0 0 0 0-1.35m10.603-1.828a.675.675 0 0 0-.956 0L17.4 17.121V10.65a.675.675 0 0 0-1.35 0v6.471l-2.222-2.224a.675.675 0 0 0-.956.956l3.375 3.375a.675.675 0 0 0 .956 0l3.375-3.375a.675.675 0 0 0 0-.956"/>
</svg>
