<svg xmlns="http://www.w3.org/2000/svg" fill="currentColor" viewBox="0 0 24 24">
  <path d="M21.45 12.338c0 1.677-3.022 3.038-6.75 3.037-1.654 0-3.169-.267-4.343-.712 3.226-.229 5.693-1.482 5.693-3.001V9.361c3.081.282 5.4 1.507 5.4 2.977m-5.4-4.051c0-1.677-3.022-3.038-6.75-3.037S2.55 6.61 2.55 8.287s3.022 3.038 6.75 3.038 6.75-1.36 6.75-3.038" opacity=".2"/>
  <path d="M16.725 8.757v-.47c0-2.116-3.192-3.713-7.425-3.712S1.875 6.171 1.875 8.287v3.375c0 1.763 2.215 3.163 5.4 3.583v.468c0 2.116 3.192 3.713 7.425 3.712s7.425-1.596 7.425-3.712v-3.375c0-1.747-2.145-3.149-5.4-3.581m4.05 3.581c0 1.115-2.598 2.363-6.075 2.362q-.473 0-.935-.031c1.82-.663 2.96-1.741 2.96-3.007v-1.54c2.52.375 4.05 1.395 4.05 2.216m-13.5 1.539V11.87A15.5 15.5 0 0 0 9.3 12a15.5 15.5 0 0 0 2.025-.13v2.007a14 14 0 0 1-2.025.148 14 14 0 0 1-2.025-.148m8.1-3.402v1.187c0 .708-1.047 1.468-2.7 1.93V11.62c1.089-.264 2.012-.657 2.7-1.145M9.3 5.925c3.477 0 6.075 1.247 6.075 2.363S12.777 10.651 9.3 10.65 3.225 9.403 3.225 8.287 5.823 5.925 9.3 5.925m-6.075 5.737v-1.187c.689.488 1.611.881 2.7 1.145v1.972c-1.653-.461-2.7-1.222-2.7-1.93m5.4 4.05v-.351q.332.013.675.014.49 0 .961-.03a10 10 0 0 0 1.064.318v1.979c-1.653-.461-2.7-1.222-2.7-1.929zm4.05 2.215v-2.012a15 15 0 0 0 2.025.135 15.5 15.5 0 0 0 2.025-.13v2.007a14 14 0 0 1-4.05 0m5.4-.285V15.67c1.089-.264 2.012-.657 2.7-1.145v1.188c0 .707-1.047 1.468-2.7 1.929"/>
</svg>
