<svg xmlns="http://www.w3.org/2000/svg" fill="currentColor" viewBox="0 0 24 24">
  <path d="m9.3 21.45 1.35-6.75-5.4-2.025L14.7 2.55 13.35 9.3l5.4 2.025z" opacity=".2"/>
  <path d="M19.407 11.171a.68.68 0 0 0-.422-.478l-4.86-1.823 1.237-6.188a.675.675 0 0 0-1.156-.59l-9.45 10.125a.675.675 0 0 0 .254 1.097l4.862 1.823-1.233 6.181a.675.675 0 0 0 1.155.59l9.45-10.125a.68.68 0 0 0 .163-.612m-8.979 8.085.883-4.419a.675.675 0 0 0-.421-.765l-4.459-1.675 7.14-7.649-.883 4.42a.675.675 0 0 0 .422.764l4.455 1.671z"/>
</svg>
