<svg xmlns="http://www.w3.org/2000/svg" fill="currentColor" viewBox="0 0 24 24">
  <path d="M19.425 5.25v9.45a.675.675 0 0 1-.675.675h-3.375V9.3a.675.675 0 0 0-.675-.675H8.625V5.25a.675.675 0 0 1 .675-.675h9.45a.675.675 0 0 1 .675.675" opacity=".2"/>
  <path d="M14.7 7.95H5.25A1.35 1.35 0 0 0 3.9 9.3v9.45a1.35 1.35 0 0 0 1.35 1.35h9.45a1.35 1.35 0 0 0 1.35-1.35V9.3a1.35 1.35 0 0 0-1.35-1.35m0 10.8H5.25V9.3h9.45zM12.675 4.575a.675.675 0 0 1 .675-.675h1.35a.675.675 0 0 1 0 1.35h-1.35a.675.675 0 0 1-.675-.675m7.425.675v.675a.675.675 0 0 1-1.35 0V5.25h-.675a.675.675 0 0 1 0-1.35h.675a1.35 1.35 0 0 1 1.35 1.35m0 4.05v1.35a.675.675 0 0 1-1.35 0V9.3a.675.675 0 0 1 1.35 0m0 4.725v.675a1.35 1.35 0 0 1-1.35 1.35h-.675a.675.675 0 0 1 0-1.35h.675v-.675a.675.675 0 0 1 1.35 0m-12.15-8.1V5.25A1.35 1.35 0 0 1 9.3 3.9h.675a.675.675 0 0 1 0 1.35H9.3v.675a.675.675 0 0 1-1.35 0"/>
</svg>
