<svg xmlns="http://www.w3.org/2000/svg" fill="currentColor" viewBox="0 0 24 24">
  <path d="M19.87 19.384 12 16.725l-7.87 2.659a.675.675 0 0 1-.816-.966l8.087-14.175a.675.675 0 0 1 1.181 0l8.108 14.175a.675.675 0 0 1-.82.966" opacity=".2"/>
  <path d="M21.273 18.083 13.169 3.915a1.35 1.35 0 0 0-2.354 0L2.725 18.09a1.35 1.35 0 0 0 1.625 1.934L12 17.438l7.65 2.584a1.4 1.4 0 0 0 .45.078 1.35 1.35 0 0 0 1.169-2.017zm-1.186.662-7.412-2.504v-4.916a.675.675 0 0 0-1.35 0v4.916l-7.412 2.504-.013.005 8.088-14.175L20.1 18.75z"/>
</svg>
