<svg xmlns="http://www.w3.org/2000/svg" fill="currentColor" viewBox="0 0 24 24">
  <path d="M16.451 10.038 18.413 12l-6.924 6.914a4.05 4.05 0 0 1-5.728-5.728l8.38-8.495a2.7 2.7 0 0 1 3.818 3.818z" opacity=".2"/>
  <path d="M18.89 11.522a.675.675 0 0 1 0 .956l-6.923 6.918a4.725 4.725 0 0 1-6.682-6.683l8.375-8.498a3.375 3.375 0 1 1 4.776 4.771l-8.377 8.498a2.025 2.025 0 1 1-2.868-2.868l7.028-7.14a.675.675 0 1 1 .962.946L8.152 15.57a.675.675 0 1 0 .951.958l8.375-8.494a2.025 2.025 0 1 0-2.862-2.868l-8.374 8.495a3.375 3.375 0 1 0 4.77 4.777l6.924-6.919a.675.675 0 0 1 .954.003"/>
</svg>
