<svg xmlns="http://www.w3.org/2000/svg" fill="currentColor" viewBox="0 0 24 24">
  <path d="M20.1 5.25v13.5a1.35 1.35 0 0 1-1.35 1.35H5.25a1.35 1.35 0 0 1-1.35-1.35V5.25A1.35 1.35 0 0 1 5.25 3.9h13.5a1.35 1.35 0 0 1 1.35 1.35" opacity=".2"/>
  <path d="M9.131 3.225c-1.887 0-3.206 1.666-3.206 4.05s1.319 4.05 3.206 4.05 3.206-1.666 3.207-4.05-1.319-4.05-3.207-4.05m0 6.75c-1.466 0-1.856-1.697-1.856-2.7s.391-2.7 1.856-2.7 1.856 1.697 1.856 2.7-.39 2.7-1.856 2.7m6.075 2.7c-1.887 0-3.206 1.666-3.206 4.05s1.319 4.05 3.206 4.05 3.206-1.666 3.206-4.05-1.318-4.05-3.206-4.05m0 6.75c-1.466 0-1.856-1.697-1.856-2.7s.391-2.7 1.856-2.7 1.856 1.697 1.856 2.7-.39 2.7-1.856 2.7M13.434 5.353a.675.675 0 0 1 .263-.918l2.025-1.125a.675.675 0 0 1 1.003.59v6.75a.675.675 0 0 1-1.35 0V5.048l-1.023.567a.675.675 0 0 1-.918-.262M9.975 13.35v6.75a.675.675 0 0 1-1.35 0v-5.602l-1.023.567a.675.675 0 0 1-.654-1.181l2.025-1.125a.675.675 0 0 1 1.002.591"/>
</svg>
