<svg xmlns="http://www.w3.org/2000/svg" fill="currentColor" viewBox="0 0 24 24">
  <path d="M22.8 7.275v9.45a1.35 1.35 0 0 1-1.35 1.35H2.55a1.35 1.35 0 0 1-1.35-1.35v-9.45a1.35 1.35 0 0 1 1.35-1.35h18.9a1.35 1.35 0 0 1 1.35 1.35" opacity=".2"/>
  <path d="M5.25 5.925v12.15a.675.675 0 0 1-1.35 0V5.925a.675.675 0 0 1 1.35 0m7.763 4.598-1.688.549V9.3a.675.675 0 0 0-1.35 0v1.772l-1.688-.549a.675.675 0 0 0-.421 1.285l1.687.547-1.041 1.435a.675.675 0 1 0 1.092.793l1.041-1.435 1.041 1.435a.675.675 0 1 0 1.092-.793l-1.041-1.435 1.687-.547a.675.675 0 0 0-.412-1.285zm8.943.434a.675.675 0 0 0-.843-.434l-1.688.549V9.3a.675.675 0 0 0-1.35 0v1.772l-1.688-.548a.675.675 0 0 0-.417 1.284l1.687.548-1.041 1.434a.675.675 0 1 0 1.092.794l1.041-1.435 1.041 1.435a.675.675 0 1 0 1.092-.794l-1.041-1.434 1.687-.548a.675.675 0 0 0 .428-.851"/>
</svg>
