<svg xmlns="http://www.w3.org/2000/svg" fill="currentColor" viewBox="0 0 24 24">
  <path d="m14.7 14.7-4.282 4.282a3.82 3.82 0 0 1-5.4 0 3.82 3.82 0 0 1 0-5.4L9.3 9.3z" opacity=".2"/>
  <path d="M19.461 4.541a4.495 4.495 0 0 0-6.356 0l-8.564 8.563a4.494 4.494 0 0 0 6.355 6.355l8.565-8.563a4.5 4.5 0 0 0 0-6.355M9.942 18.504a3.144 3.144 0 0 1-4.446-4.445L9.3 10.254l4.447 4.446zm8.564-8.563L14.7 13.746 10.255 9.3l3.805-3.804a3.144 3.144 0 0 1 4.446 4.445m-1.302-1.794a.675.675 0 0 1 0 .956l-2.025 2.025a.675.675 0 1 1-.954-.956l2.025-2.025a.675.675 0 0 1 .954 0"/>
</svg>
