<svg xmlns="http://www.w3.org/2000/svg" fill="currentColor" viewBox="0 0 24 24">
  <path d="m20.578 9.497-4.833 4.849c.967 1.935-.145 3.869-.853 4.809a.675.675 0 0 1-1.012.07l-9.108-9.102a.675.675 0 0 1 .056-1.004c2.502-2.018 4.843-.844 4.843-.844l4.832-4.848a.675.675 0 0 1 .955 0l5.12 5.114a.675.675 0 0 1 0 .956" opacity=".2"/>
  <path d="m21.055 8.066-5.121-5.12a1.35 1.35 0 0 0-1.909 0L9.5 7.485c-.899-.282-2.953-.622-5.096 1.109a1.35 1.35 0 0 0-.109 2.006l4.077 4.076-3.6 3.596a.675.675 0 0 0 .956.956l3.596-3.6 4.075 4.075a1.35 1.35 0 0 0 .955.397h.095a1.34 1.34 0 0 0 .983-.534c1.657-2.202 1.498-3.993 1.112-5.063l4.512-4.528a1.35 1.35 0 0 0-.001-1.909m-.955.955-4.832 4.848a.675.675 0 0 0-.126.778c.798 1.597-.152 3.256-.788 4.102L5.25 9.644c1.019-.822 1.995-1.039 2.741-1.038a3.4 3.4 0 0 1 1.377.272.675.675 0 0 0 .781-.127L14.98 3.9l5.12 5.12z"/>
</svg>
