<svg xmlns="http://www.w3.org/2000/svg" fill="currentColor" viewBox="0 0 24 24">
  <path d="M18.075 17.4a2.025 2.025 0 1 1-2.025-2.025 2.025 2.025 0 0 1 2.025 2.025" opacity=".2"/>
  <path d="M3.9 6.6a.675.675 0 0 1 .675-.675h14.85a.675.675 0 0 1 0 1.35H4.575A.675.675 0 0 1 3.9 6.6m.675 6.075H14.7a.675.675 0 0 0 0-1.35H4.575a.675.675 0 0 0 0 1.35m6.075 4.05H4.575a.675.675 0 0 0 0 1.35h6.075a.675.675 0 0 0 0-1.35m11.446-4.868a.675.675 0 0 1-.843.452l-2.503-.752V17.4a2.704 2.704 0 1 1-1.35-2.336V10.65a.675.675 0 0 1 .869-.646l3.375 1.012a.675.675 0 0 1 .452.841M17.4 17.4a1.35 1.35 0 1 0-1.35 1.35 1.35 1.35 0 0 0 1.35-1.35"/>
</svg>
