<svg xmlns="http://www.w3.org/2000/svg" fill="currentColor" viewBox="0 0 24 24">
  <path d="M10.65 5.925v4.05a.675.675 0 0 1-.675.675h-4.05a.675.675 0 0 1-.675-.675v-4.05a.675.675 0 0 1 .675-.675h4.05a.675.675 0 0 1 .675.675m-.675 7.425h-4.05a.675.675 0 0 0-.675.675v4.05a.675.675 0 0 0 .675.675h4.05a.675.675 0 0 0 .675-.675v-4.05a.675.675 0 0 0-.675-.675m8.1-8.1h-4.05a.675.675 0 0 0-.675.675v4.05a.675.675 0 0 0 .675.675h4.05a.675.675 0 0 0 .675-.675v-4.05a.675.675 0 0 0-.675-.675" opacity=".2"/>
  <path d="M9.975 4.575h-4.05a1.35 1.35 0 0 0-1.35 1.35v4.05a1.35 1.35 0 0 0 1.35 1.35h4.05a1.35 1.35 0 0 0 1.35-1.35v-4.05a1.35 1.35 0 0 0-1.35-1.35m0 5.4h-4.05v-4.05h4.05zm0 2.7h-4.05a1.35 1.35 0 0 0-1.35 1.35v4.05a1.35 1.35 0 0 0 1.35 1.35h4.05a1.35 1.35 0 0 0 1.35-1.35v-4.05a1.35 1.35 0 0 0-1.35-1.35m0 5.4h-4.05v-4.05h4.05zm8.1-13.5h-4.05a1.35 1.35 0 0 0-1.35 1.35v4.05a1.35 1.35 0 0 0 1.35 1.35h4.05a1.35 1.35 0 0 0 1.35-1.35v-4.05a1.35 1.35 0 0 0-1.35-1.35m0 5.4h-4.05v-4.05h4.05zm-5.4 6.075v-2.7a.675.675 0 0 1 1.35 0v2.7a.675.675 0 0 1-1.35 0m6.75-1.35a.675.675 0 0 1-.675.675h-2.025v3.375a.675.675 0 0 1-.675.675h-2.7a.675.675 0 0 1 0-1.35h2.025V13.35a.675.675 0 0 1 1.35 0v.675h2.025a.675.675 0 0 1 .675.675m0 2.7v1.35a.675.675 0 0 1-1.35 0V17.4a.675.675 0 0 1 1.35 0"/>
</svg>
