<svg xmlns="http://www.w3.org/2000/svg" fill="currentColor" viewBox="0 0 24 24">
  <path d="M20.1 12A8.1 8.1 0 1 1 12 3.9a8.1 8.1 0 0 1 8.1 8.1" opacity=".2"/>
  <path d="M13.012 16.388A1.013 1.013 0 1 1 12 15.375a1.013 1.013 0 0 1 1.012 1.013M12 7.275c-1.861 0-3.375 1.363-3.375 3.038v.337a.675.675 0 0 0 1.35 0v-.337c0-.928.909-1.688 2.025-1.688s2.025.759 2.025 1.688S13.116 12.001 12 12a.675.675 0 0 0-.675.675v.675a.675.675 0 0 0 1.35 0v-.061c1.539-.283 2.7-1.51 2.7-2.977 0-1.674-1.514-3.037-3.375-3.037M20.775 12A8.775 8.775 0 1 1 12 3.225 8.784 8.784 0 0 1 20.775 12m-1.35 0A7.425 7.425 0 1 0 12 19.425 7.433 7.433 0 0 0 19.425 12"/>
</svg>
