<svg xmlns="http://www.w3.org/2000/svg" fill="currentColor" viewBox="0 0 24 24">
  <path d="M19.425 5.25v8.775a.675.675 0 0 1-.675.675h-3.375v4.05a.675.675 0 0 1-.675.675H5.25a.675.675 0 0 1-.675-.675V9.975A.675.675 0 0 1 5.25 9.3h3.375V5.25a.675.675 0 0 1 .675-.675h9.45a.675.675 0 0 1 .675.675" opacity=".2"/>
  <path d="M20.1 5.25v8.775a1.35 1.35 0 0 1-1.35 1.35H9.579l.874.872a.675.675 0 0 1-.956.956l-2.025-2.025a.675.675 0 0 1 0-.956l2.025-2.025a.675.675 0 0 1 .956.956l-.874.872h9.171V5.25H9.3v.675a.675.675 0 0 1-1.35 0V5.25A1.35 1.35 0 0 1 9.3 3.9h9.45a1.35 1.35 0 0 1 1.35 1.35M15.375 17.4a.675.675 0 0 0-.675.675v.675H5.25V9.975h9.171l-.874.872a.675.675 0 0 0 .956.956l2.025-2.025a.675.675 0 0 0 0-.956l-2.025-2.025a.675.675 0 0 0-.956.956l.874.872H5.25a1.35 1.35 0 0 0-1.35 1.35v8.775a1.35 1.35 0 0 0 1.35 1.35h9.45a1.35 1.35 0 0 0 1.35-1.35v-.675a.675.675 0 0 0-.675-.675"/>
</svg>
