<svg xmlns="http://www.w3.org/2000/svg" fill="currentColor" viewBox="0 0 24 24">
  <path d="M20.1 7.262v9.476a.667.667 0 0 1-1.028.556l-7.441-4.738a.658.658 0 0 1 0-1.112l7.441-4.738a.667.667 0 0 1 1.028.556m-9.803-.556-7.441 4.738a.658.658 0 0 0 0 1.112l7.441 4.738a.667.667 0 0 0 1.028-.556V7.262a.667.667 0 0 0-1.028-.556" opacity=".2"/>
  <path d="M20.081 6.094a1.35 1.35 0 0 0-1.371.044L12 10.409V7.262a1.342 1.342 0 0 0-2.066-1.126l-7.441 4.738a1.333 1.333 0 0 0 0 2.252l7.441 4.738A1.342 1.342 0 0 0 12 16.739v-3.148l6.71 4.273a1.342 1.342 0 0 0 2.065-1.125V7.262a1.34 1.34 0 0 0-.694-1.168M10.65 16.719 3.24 12l7.41-4.72zm8.775 0L12.015 12l7.41-4.72z"/>
</svg>
