<svg xmlns="http://www.w3.org/2000/svg" fill="currentColor" viewBox="0 0 24 24">
  <path d="M14.7 7.95a2.7 2.7 0 1 1-2.7-2.7 2.7 2.7 0 0 1 2.7 2.7" opacity=".2"/>
  <path d="M19.351 11.632a.675.675 0 1 0-1.202-.614 6.7 6.7 0 0 1-2.791 2.826l-1.399-3.148a3.375 3.375 0 0 0-1.284-6.053V3.225a.675.675 0 0 0-1.35 0v1.418a3.375 3.375 0 0 0-1.284 6.053l-4.058 9.13a.675.675 0 1 0 1.234.548l2.121-4.772A8 8 0 0 0 12 16.05a8.4 8.4 0 0 0 2.666-.44l2.117 4.764a.675.675 0 0 0 1.234-.548l-2.11-4.746a8.1 8.1 0 0 0 3.444-3.448M12 5.925A2.025 2.025 0 1 1 9.975 7.95 2.025 2.025 0 0 1 12 5.925m0 8.775a6.7 6.7 0 0 1-2.109-.337l1.385-3.117a3.4 3.4 0 0 0 1.451 0l1.391 3.127A7 7 0 0 1 12 14.7"/>
</svg>
