<svg xmlns="http://www.w3.org/2000/svg" fill="currentColor" viewBox="0 0 24 24">
  <path d="m20.1 9.975-4.05 4.05v-8.1z" opacity=".2"/>
  <path d="m20.578 9.497-4.05-4.05a.675.675 0 0 0-1.153.478V9.3h-.253a8.77 8.77 0 0 0-8.501 6.581.675.675 0 0 0 1.308.338 7.425 7.425 0 0 1 7.193-5.569h.253v3.375a.675.675 0 0 0 1.153.478l4.05-4.05a.675.675 0 0 0 0-.956m-3.853 2.899V7.554l2.421 2.421zm1.35 7.029a.675.675 0 0 1-.675.675H3.9a.675.675 0 0 1-.675-.675v-10.8a.675.675 0 0 1 1.35 0V18.75H17.4a.675.675 0 0 1 .675.675"/>
</svg>
