<svg xmlns="http://www.w3.org/2000/svg" fill="currentColor" viewBox="0 0 24 24">
  <path d="M6.888 13.229c-2.675-1.101-1.857-9.323.893-9.329 2.854.004 1.182 4.916-.893 9.329" opacity=".2"/>
  <path d="M20.775 15.375H6.588q.337-.665.675-1.359c1.261.139 2.749-.741 4.443-2.628.422 1.136 1.219 2.61 2.581 2.637.767.015 1.528-.439 2.313-1.381.573.685 1.753 1.381 4.175 1.381a.675.675 0 0 0 0-1.35c-2.568 0-3.327-.882-3.375-1.359a.65.65 0 0 0-.461-.654.69.69 0 0 0-.78.294c-1.018 1.565-1.628 1.724-1.849 1.719-.697-.014-1.406-1.647-1.649-2.82a.675.675 0 0 0-1.188-.284c-1.706 2.138-2.848 2.858-3.559 3.044.716-1.592 1.251-2.99 1.594-4.167.575-1.978.618-3.361.127-4.227-.253-.454-.788-.996-1.861-.996-1.355 0-2.424 1.281-2.934 3.514-.303 1.326-.353 2.802-.137 4.05s.664 2.156 1.316 2.695a76 76 0 0 1-.948 1.891H3.225a.675.675 0 0 0 0 1.35h1.131c-.955 1.772-1.698 3.007-1.709 3.027a.675.675 0 1 0 1.157.696c.013-.022.951-1.585 2.084-3.723h14.887a.675.675 0 0 0 0-1.35M6.156 7.04c.336-1.474.987-2.465 1.618-2.465.45 0 .599.157.686.31.253.45.55 2.041-1.828 7.289-.697-.952-.934-3.127-.476-5.134"/>
</svg>
