<svg xmlns="http://www.w3.org/2000/svg" fill="currentColor" viewBox="0 0 24 24">
  <path d="M20.1 6.6v10.8a.675.675 0 0 1-.675.675H4.575A.675.675 0 0 1 3.9 17.4V6.6a.675.675 0 0 1 .675-.675h14.85a.675.675 0 0 1 .675.675" opacity=".2"/>
  <path d="M19.425 5.25H4.575a1.35 1.35 0 0 0-1.35 1.35v10.8a1.35 1.35 0 0 0 1.35 1.35h14.85a1.35 1.35 0 0 0 1.35-1.35V6.6a1.35 1.35 0 0 0-1.35-1.35m-9.45 8.1v-2.7h4.05v2.7zm4.05 1.35v2.7h-4.05v-2.7zm-9.45-4.05h4.05v2.7h-4.05zm5.4-1.35V6.6h4.05v2.7zm5.4 1.35h4.05v2.7h-4.05zm4.05-1.35h-4.05V6.6h4.05zm-10.8-2.7v2.7h-4.05V6.6zm-4.05 8.1h4.05v2.7h-4.05zm14.85 2.7h-4.05v-2.7h4.05z"/>
</svg>
