<svg xmlns="http://www.w3.org/2000/svg" fill="currentColor" viewBox="0 0 24 24">
  <path d="m14.654 5.672-1.5 7.003h-2.308l-1.5-7.003a2.025 2.025 0 0 1 1.979-2.447h1.35a2.025 2.025 0 0 1 1.979 2.447" opacity=".2"/>
  <path d="M20.1 20.1a.675.675 0 0 1-.675.675H4.575a.675.675 0 0 1 0-1.35h14.85a.675.675 0 0 1 .675.675m0-6.75v3.375a1.35 1.35 0 0 1-1.35 1.35H5.25a1.35 1.35 0 0 1-1.35-1.35V13.35A1.35 1.35 0 0 1 5.25 12h4.761L8.686 5.816a2.7 2.7 0 0 1 2.639-3.266h1.35a2.7 2.7 0 0 1 2.64 3.266L13.989 12h4.761a1.35 1.35 0 0 1 1.35 1.35M11.392 12h1.216l1.387-6.467a1.35 1.35 0 0 0-1.32-1.633h-1.35a1.35 1.35 0 0 0-1.32 1.633zm7.358 4.725V13.35H5.25v3.375z"/>
</svg>
