<svg xmlns="http://www.w3.org/2000/svg" fill="currentColor" viewBox="0 0 24 24">
  <path d="m14.7 15.375-4.05 4.05H6.832l-2.536-2.536a1.35 1.35 0 0 1 0-1.91L9.3 9.975z" opacity=".2"/>
  <path d="m20.184 7.984-3.493-3.493a2.025 2.025 0 0 0-2.863 0L3.816 14.503a2.025 2.025 0 0 0 0 2.863l2.536 2.537a.68.68 0 0 0 .479.197h12.594a.675.675 0 0 0 0-1.35h-7.147l7.906-7.903a2.025 2.025 0 0 0 0-2.863M10.37 18.75H7.11l-2.338-2.339a.675.675 0 0 1 0-.954L9.3 10.929l4.446 4.446zm8.859-8.859-4.529 4.53-4.446-4.446 4.53-4.528a.675.675 0 0 1 .956 0l3.491 3.492a.675.675 0 0 1 0 .954z"/>
</svg>
