<svg xmlns="http://www.w3.org/2000/svg" fill="currentColor" viewBox="0 0 24 24">
  <path d="M12 3.9a8.1 8.1 0 1 0 8.1 8.1A8.1 8.1 0 0 0 12 3.9m1.35 9.45-5.4 2.7 2.7-5.4 5.4-2.7z" opacity=".2"/>
  <path d="M12 3.225A8.775 8.775 0 1 0 20.775 12 8.784 8.784 0 0 0 12 3.225m0 16.2A7.425 7.425 0 1 1 19.425 12 7.433 7.433 0 0 1 12 19.425m3.748-12.079-5.4 2.7a.68.68 0 0 0-.302.302l-2.7 5.4a.675.675 0 0 0 .604.977.7.7 0 0 0 .302-.071l5.4-2.7a.68.68 0 0 0 .302-.302l2.7-5.4a.675.675 0 0 0-.906-.906m-2.904 5.498-3.385 1.697 1.697-3.385 3.388-1.693z"/>
</svg>
