<svg xmlns="http://www.w3.org/2000/svg" fill="currentColor" viewBox="0 0 24 24">
  <path d="M21.45 7.275V18.75H5.925a1.35 1.35 0 0 1-1.35-1.35V5.925H20.1a1.35 1.35 0 0 1 1.35 1.35" opacity=".2"/>
  <path d="M22.125 18.75a.675.675 0 0 1-.675.675H17.4a.675.675 0 0 1-.54-1.08l3.642-4.857a1.35 1.35 0 1 0-2.35-1.265.675.675 0 0 1-1.273-.451 2.7 2.7 0 0 1 .39-.725 2.7 2.7 0 0 1 4.313 3.251l-2.832 3.777h2.7a.675.675 0 0 1 .675.675M13.792 5.419a.675.675 0 0 0-.952.068L8.963 9.956 5.085 5.485a.675.675 0 0 0-1.016.882l4 4.621-4 4.62a.675.675 0 0 0 1.021.884l3.881-4.472 3.877 4.472a.675.675 0 1 0 1.021-.884l-4.013-4.62 4.004-4.621a.675.675 0 0 0-.068-.948"/>
</svg>
