<svg xmlns="http://www.w3.org/2000/svg" fill="currentColor" viewBox="0 0 24 24">
  <path d="M21.45 6.6v10.125a1.35 1.35 0 0 1-1.35 1.35H4.575V6.6a1.35 1.35 0 0 1 1.35-1.35H20.1a1.35 1.35 0 0 1 1.35 1.35" opacity=".2"/>
  <path d="M22.125 13.35a.675.675 0 0 1-.675.675H17.4a.675.675 0 0 1-.54-1.08l3.642-4.856a1.35 1.35 0 1 0-2.35-1.265.675.675 0 0 1-1.273-.45 2.7 2.7 0 1 1 4.703 2.524l-2.832 3.777h2.7a.675.675 0 0 1 .675.675m-8.333-5.906a.675.675 0 0 0-.952.067l-3.877 4.471L5.085 7.51a.675.675 0 0 0-1.016.882l4 4.62-4 4.621a.675.675 0 0 0 1.021.884l3.881-4.472 3.877 4.472a.675.675 0 1 0 1.021-.884l-4.013-4.621 4.004-4.62a.675.675 0 0 0-.068-.948"/>
</svg>
