<svg xmlns="http://www.w3.org/2000/svg" fill="currentColor" viewBox="0 0 24 24">
  <path d="M7.95 9.975v8.775H3.9a.675.675 0 0 1-.675-.675V10.65a.675.675 0 0 1 .675-.675z" opacity=".2"/>
  <path d="M20.944 7.96a2.03 2.03 0 0 0-1.519-.685H14.7v-1.35a3.375 3.375 0 0 0-3.375-3.375.68.68 0 0 0-.604.373L7.533 9.3H3.9a1.35 1.35 0 0 0-1.35 1.35v7.425a1.35 1.35 0 0 0 1.35 1.35h14.513a2.025 2.025 0 0 0 2.009-1.772l1.013-8.1a2.03 2.03 0 0 0-.491-1.593M3.9 10.65h3.375v7.425H3.9zm16.195-1.266-1.013 8.1a.675.675 0 0 1-.669.591H8.625v-7.941l3.097-6.195a2.025 2.025 0 0 1 1.628 1.986V7.95a.675.675 0 0 0 .675.675h5.4a.675.675 0 0 1 .67.759"/>
</svg>
