<svg xmlns="http://www.w3.org/2000/svg" fill="currentColor" viewBox="0 0 24 24">
  <path d="M13.35 10.65v4.725a1.35 1.35 0 0 0 1.35 1.35h2.7v4.05h-3.375A4.725 4.725 0 0 1 9.3 16.05v-5.4H6.6V7.275a4.05 4.05 0 0 0 4.05-4.05h2.7v4.05h4.05v3.375z" opacity=".2"/>
  <path d="M17.4 11.325a.675.675 0 0 0 .675-.675V7.275A.675.675 0 0 0 17.4 6.6h-3.375V3.225a.675.675 0 0 0-.675-.675h-2.7a.675.675 0 0 0-.675.675A3.375 3.375 0 0 1 6.6 6.6a.675.675 0 0 0-.675.675v3.375a.675.675 0 0 0 .675.675h2.025v4.725a5.406 5.406 0 0 0 5.4 5.4H17.4a.675.675 0 0 0 .675-.675v-4.05a.675.675 0 0 0-.675-.675h-2.7a.675.675 0 0 1-.675-.675v-4.05zM14.7 17.4h2.025v2.7h-2.7a4.054 4.054 0 0 1-4.05-4.05v-5.4a.675.675 0 0 0-.675-.675H7.275V7.902A4.74 4.74 0 0 0 11.277 3.9h1.398v3.375a.675.675 0 0 0 .675.675h3.375v2.025H13.35a.675.675 0 0 0-.675.675v4.725A2.025 2.025 0 0 0 14.7 17.4"/>
</svg>
