<svg xmlns="http://www.w3.org/2000/svg" fill="currentColor" viewBox="0 0 24 24">
  <path d="m21.45 7.275-2.7 2.7c-.359 5.64-5.069 10.125-10.8 10.125-2.7 0-3.375-1.013-3.375-1.013s2.7-1.013 4.05-3.037c0 0-4.653-2.7-3.984-10.125 0 0 3.346 3.375 7.359 4.05v-1.35c0-1.856 1.519-3.398 3.375-3.375a3.44 3.44 0 0 1 3.094 2.025z" opacity=".2"/>
  <path d="M22.074 7.017a.675.675 0 0 0-.624-.417h-2.568a4.1 4.1 0 0 0-3.499-2.025 3.96 3.96 0 0 0-2.846 1.156 4.04 4.04 0 0 0-1.212 2.894v.514C7.928 8.243 5.15 5.48 5.12 5.45a.675.675 0 0 0-1.152.415c-.363 4.032.807 6.731 1.857 8.284a9.4 9.4 0 0 0 1.847 2.042c-1.289 1.479-3.312 2.256-3.333 2.265a.675.675 0 0 0-.325 1.006c.062.095.316.426.935.736.766.383 1.776.577 3.001.577 5.964 0 10.945-4.592 11.455-10.5l2.523-2.522a.675.675 0 0 0 .146-.736m-3.797 2.481a.68.68 0 0 0-.196.434c-.343 5.323-4.792 9.493-10.131 9.493-.891 0-1.519-.118-1.959-.26.972-.527 2.325-1.434 3.196-2.74a.675.675 0 0 0-.22-.957c-.011-.007-1.085-.653-2.066-2.134C5.802 11.672 5.25 9.67 5.25 7.367c1.35 1.097 3.818 2.8 6.639 3.274a.675.675 0 0 0 .786-.666v-1.35a2.7 2.7 0 0 1 .81-1.934 2.6 2.6 0 0 1 1.882-.766c1.068.014 2.066.665 2.484 1.621a.68.68 0 0 0 .618.404h1.35z"/>
</svg>
