<svg xmlns="http://www.w3.org/2000/svg" fill="currentColor" viewBox="0 0 24 24">
  <path d="m20.578 9.497-4.833 4.849c.967 1.935-.145 3.869-.853 4.809a.675.675 0 0 1-1.012.07l-9.108-9.102a.675.675 0 0 1 .056-1.004c2.502-2.018 4.843-.844 4.843-.844l4.832-4.848a.675.675 0 0 1 .955 0l5.12 5.114a.675.675 0 0 1 0 .956" opacity=".2"/>
  <path d="M5.75 4.121a.675.675 0 1 0-1 .908l2.134 2.347a5.9 5.9 0 0 0-2.478 1.218 1.35 1.35 0 0 0-.109 2.006l4.075 4.076-3.6 3.596a.675.675 0 0 0 .956.956l3.596-3.6 4.075 4.075a1.35 1.35 0 0 0 .955.397h.095a1.34 1.34 0 0 0 .983-.534 7.6 7.6 0 0 0 .977-1.71l1.842 2.025a.675.675 0 1 0 .999-.908zm8.604 14.629L5.25 9.644c.863-.696 1.789-1.043 2.756-1.035l7.354 8.09c-.188.833-.64 1.564-1.006 2.051m6.701-8.775-3.766 3.779a.675.675 0 1 1-.956-.953L20.1 9.022 14.98 3.9l-3.478 3.489a.675.675 0 0 1-.956-.953l3.479-3.489a1.35 1.35 0 0 1 1.909 0l5.121 5.119a1.35 1.35 0 0 1 0 1.909"/>
</svg>
