<svg xmlns="http://www.w3.org/2000/svg" fill="currentColor" viewBox="0 0 24 24">
  <path d="M22.125 10.65v5.4a.675.675 0 0 1-.675.675h-2.025a2.025 2.025 0 0 0-4.05 0h-5.4a2.025 2.025 0 0 0-4.05 0H3.9a.675.675 0 0 1-.675-.675v-5.4z" opacity=".2"/>
  <path d="m22.637 10.21-3.842-4.477a1.35 1.35 0 0 0-1.036-.483H3.9A1.35 1.35 0 0 0 2.55 6.6v9.45A1.35 1.35 0 0 0 3.9 17.4h1.434a2.7 2.7 0 0 0 5.232 0h4.218a2.7 2.7 0 0 0 5.232 0h1.434a1.35 1.35 0 0 0 1.35-1.35v-5.4a.68.68 0 0 0-.163-.44m-1.981-.235H16.05V6.6h1.709zm-10.681 0V6.6H14.7v3.375zM8.625 6.6v3.375H3.9V6.6zM7.95 18.075a1.35 1.35 0 1 1 1.35-1.35 1.35 1.35 0 0 1-1.35 1.35m9.45 0a1.35 1.35 0 1 1 1.35-1.35 1.35 1.35 0 0 1-1.35 1.35m2.616-2.025a2.7 2.7 0 0 0-5.232 0h-4.218a2.7 2.7 0 0 0-5.232 0H3.9v-4.725h17.55v4.725z"/>
</svg>
