<svg xmlns="http://www.w3.org/2000/svg" fill="currentColor" viewBox="0 0 24 24">
  <path d="M19.425 5.25H4.575a.675.675 0 0 0-.675.675v9.45a.675.675 0 0 0 .675.675h14.85a.675.675 0 0 0 .675-.675v-9.45a.675.675 0 0 0-.675-.675m-8.775 8.1v-5.4l4.05 2.7z" opacity=".2"/>
  <path d="m15.075 10.088-4.05-2.7a.675.675 0 0 0-1.05.562v5.4a.675.675 0 0 0 1.05.562l4.05-2.7a.675.675 0 0 0 0-1.124m-3.75 2.001V9.216l2.158 1.434zm8.1-7.514H4.575a1.35 1.35 0 0 0-1.35 1.35v9.45a1.35 1.35 0 0 0 1.35 1.35h14.85a1.35 1.35 0 0 0 1.35-1.35v-9.45a1.35 1.35 0 0 0-1.35-1.35m0 10.8H4.575v-9.45h14.85zm1.35 3.375a.675.675 0 0 1-.675.675H3.9a.675.675 0 0 1 0-1.35h16.2a.675.675 0 0 1 .675.675"/>
</svg>
