<svg xmlns="http://www.w3.org/2000/svg" fill="currentColor" viewBox="0 0 24 24">
  <path d="M7.95 8.625v6.75H3.9a.675.675 0 0 1-.675-.675V9.3a.675.675 0 0 1 .675-.675z" opacity=".2"/>
  <path d="M14.321 3.293a.68.68 0 0 0-.71.075L7.718 7.95H3.9A1.35 1.35 0 0 0 2.55 9.3v5.4a1.35 1.35 0 0 0 1.35 1.35h3.818l5.893 4.582A.675.675 0 0 0 14.7 20.1V3.9a.68.68 0 0 0-.379-.607M3.9 9.3h3.375v5.4H3.9zm9.45 9.42-4.725-3.677V8.957L13.35 5.28zm8.578-5.173a.675.675 0 0 1-.956.956l-1.547-1.549-1.547 1.549a.675.675 0 0 1-.956-.956L18.471 12l-1.549-1.547a.675.675 0 0 1 .956-.956l1.547 1.549 1.547-1.549a.675.675 0 0 1 .956.956L20.379 12z"/>
</svg>
