<svg xmlns="http://www.w3.org/2000/svg" fill="currentColor" viewBox="0 0 24 24">
  <path d="M20.319 7.235a1.35 1.35 0 0 0-.813-.928C16.681 5.22 12 5.25 12 5.25s-4.681-.03-7.509 1.061a1.35 1.35 0 0 0-.813.929c-.194.756-.453 2.236-.453 4.76s.259 4.004.456 4.765a1.35 1.35 0 0 0 .81.924C7.319 18.78 12 18.75 12 18.75s4.681.03 7.509-1.061a1.35 1.35 0 0 0 .813-.924c.197-.759.456-2.241.456-4.765s-.262-4.004-.459-4.765M10.65 14.7V9.3L14.7 12z" opacity=".2"/>
  <path d="m15.075 11.438-4.05-2.7a.675.675 0 0 0-1.05.562v5.4a.675.675 0 0 0 1.05.562l4.05-2.7a.675.675 0 0 0 0-1.124m-3.75 2.001v-2.873L13.483 12zm9.647-6.373a2.03 2.03 0 0 0-1.223-1.384C16.857 4.565 12.253 4.575 12 4.575s-4.857-.01-7.749 1.107a2.03 2.03 0 0 0-1.223 1.384C2.81 7.908 2.55 9.447 2.55 12s.26 4.092.478 4.934a2.03 2.03 0 0 0 1.223 1.385c2.771 1.069 7.108 1.106 7.693 1.106h.112c.586 0 4.925-.037 7.693-1.106a2.03 2.03 0 0 0 1.223-1.385c.219-.844.478-2.381.478-4.934s-.26-4.092-.478-4.934M19.665 16.6a.68.68 0 0 1-.403.463c-2.67 1.031-7.212 1.013-7.266 1.013s-4.587.015-7.256-1.013a.68.68 0 0 1-.403-.463c-.201-.77-.437-2.189-.437-4.6s.236-3.83.435-4.596a.68.68 0 0 1 .403-.466c2.67-1.028 7.211-1.013 7.266-1.013s4.587-.015 7.256 1.013a.68.68 0 0 1 .403.463c.201.769.437 2.188.437 4.599s-.236 3.83-.435 4.596z"/>
</svg>
