<svg width="24" height="24" viewBox="0 0 24 24" fill="none" xmlns="http://www.w3.org/2000/svg">
<g clip-path="url(#clip0_2021_26469)">
<path d="M9.37405 3.37498C9.37405 2.85581 9.528 2.3483 9.81644 1.91662C10.1049 1.48494 10.5148 1.14849 10.9945 0.949816C11.4741 0.751137 12.0019 0.699154 12.5111 0.800439C13.0203 0.901725 13.4881 1.15173 13.8552 1.51884C14.2223 1.88595 14.4723 2.35368 14.5736 2.86287C14.6749 3.37207 14.6229 3.89987 14.4242 4.37952C14.2255 4.85917 13.8891 5.26914 13.4574 5.55757C13.0257 5.84601 12.5182 5.99996 11.999 5.99996C11.3028 5.99996 10.6352 5.7234 10.1429 5.23112C9.65061 4.73884 9.37405 4.07117 9.37405 3.37498ZM21.3365 8.67838C21.2681 8.34235 21.0846 8.04073 20.8176 7.82558C20.5506 7.61043 20.2168 7.49526 19.874 7.49995H4.12409C3.78211 7.49993 3.4504 7.61677 3.18392 7.8311C2.91744 8.04543 2.7322 8.34438 2.65889 8.67841C2.58559 9.01244 2.62862 9.36149 2.78086 9.66771C2.9331 9.97393 3.18541 10.2189 3.49597 10.3621H3.50159L8.55374 12.5868L6.49876 20.3961C6.34193 20.7549 6.33161 21.1607 6.46999 21.527C6.60838 21.8933 6.8845 22.191 7.23938 22.3564C7.43772 22.4506 7.65449 22.4996 7.87406 22.4998C8.15682 22.5003 8.43395 22.4207 8.67347 22.2705C8.91299 22.1202 9.10515 21.9052 9.2278 21.6505L11.999 16.8749L14.7721 21.6561C14.9446 22.007 15.2473 22.2766 15.6156 22.4076C15.984 22.5386 16.389 22.5206 16.7443 22.3575C17.0996 22.1943 17.3771 21.8989 17.5178 21.5341C17.6585 21.1693 17.6512 20.764 17.4974 20.4045L15.4424 12.5952L20.5049 10.3677C20.8191 10.2277 21.0743 9.98203 21.2262 9.67343C21.3781 9.36482 21.4171 9.01276 21.3365 8.67838Z" fill="black"/>
</g>
<defs>
<clipPath id="clip0_2021_26469">
<rect width="23.9998" height="23.9998" fill="white"/>
</clipPath>
</defs>
</svg>
