<svg width="24" height="24" viewBox="0 0 24 24" fill="none" xmlns="http://www.w3.org/2000/svg">
<path d="M15 10.5C15 10.945 14.868 11.38 14.6208 11.75C14.3736 12.12 14.0222 12.4084 13.611 12.5787C13.1999 12.749 12.7475 12.7936 12.311 12.7068C11.8746 12.62 11.4737 12.4057 11.159 12.091C10.8443 11.7763 10.63 11.3754 10.5432 10.939C10.4564 10.5025 10.501 10.0501 10.6713 9.63896C10.8416 9.22783 11.13 8.87643 11.5 8.62919C11.87 8.38196 12.305 8.25 12.75 8.25C13.3467 8.25 13.919 8.48705 14.341 8.90901C14.7629 9.33097 15 9.90326 15 10.5ZM21 3.75V20.25C21 20.6478 20.842 21.0294 20.5607 21.3107C20.2794 21.592 19.8978 21.75 19.5 21.75H6C5.60218 21.75 5.22064 21.592 4.93934 21.3107C4.65804 21.0294 4.5 20.6478 4.5 20.25V18H3C2.80109 18 2.61032 17.921 2.46967 17.7803C2.32902 17.6397 2.25 17.4489 2.25 17.25C2.25 17.0511 2.32902 16.8603 2.46967 16.7197C2.61032 16.579 2.80109 16.5 3 16.5H4.5V12.75H3C2.80109 12.75 2.61032 12.671 2.46967 12.5303C2.32902 12.3897 2.25 12.1989 2.25 12C2.25 11.8011 2.32902 11.6103 2.46967 11.4697C2.61032 11.329 2.80109 11.25 3 11.25H4.5V7.5H3C2.80109 7.5 2.61032 7.42098 2.46967 7.28033C2.32902 7.13968 2.25 6.94891 2.25 6.75C2.25 6.55109 2.32902 6.36032 2.46967 6.21967C2.61032 6.07902 2.80109 6 3 6H4.5V3.75C4.5 3.35218 4.65804 2.97064 4.93934 2.68934C5.22064 2.40804 5.60218 2.25 6 2.25H19.5C19.8978 2.25 20.2794 2.40804 20.5607 2.68934C20.842 2.97064 21 3.35218 21 3.75ZM17.85 15.3C17.1859 14.4096 16.3003 13.7086 15.2812 13.2666C15.8397 12.7567 16.231 12.0899 16.4037 11.3537C16.5764 10.6175 16.5225 9.84624 16.2491 9.14121C15.9756 8.43617 15.4954 7.83028 14.8715 7.40304C14.2476 6.9758 13.509 6.74718 12.7528 6.74718C11.9966 6.74718 11.2581 6.9758 10.6341 7.40304C10.0102 7.83028 9.52999 8.43617 9.25655 9.14121C8.98311 9.84624 8.92922 10.6175 9.10194 11.3537C9.27466 12.0899 9.66592 12.7567 10.2244 13.2666C9.20328 13.7077 8.31566 14.4088 7.65 15.3C7.5909 15.3788 7.54791 15.4685 7.52346 15.5639C7.49902 15.6593 7.49361 15.7586 7.50754 15.8561C7.52147 15.9536 7.55446 16.0474 7.60464 16.1321C7.65482 16.2169 7.72121 16.2909 7.8 16.35C7.87879 16.4091 7.96845 16.4521 8.06386 16.4765C8.15927 16.501 8.25856 16.5064 8.35607 16.4925C8.45357 16.4785 8.54737 16.4455 8.63212 16.3954C8.71687 16.3452 8.79091 16.2788 8.85 16.2C9.30409 15.5945 9.89291 15.1031 10.5698 14.7647C11.2468 14.4262 11.9932 14.25 12.75 14.25C13.5068 14.25 14.2532 14.4262 14.9302 14.7647C15.6071 15.1031 16.1959 15.5945 16.65 16.2C16.7693 16.3591 16.947 16.4643 17.1439 16.4925C17.3408 16.5206 17.5409 16.4693 17.7 16.35C17.8591 16.2307 17.9643 16.053 17.9925 15.8561C18.0206 15.6592 17.9693 15.4591 17.85 15.3Z" fill="black"/>
</svg>
