<svg xmlns="http://www.w3.org/2000/svg" fill="currentColor" viewBox="0 0 24 24" width="24" height="24"><path d="M15.24 10.38a2.43 2.43 0 1 1-2.43-2.43A2.43 2.43 0 0 1 15.24 10.38m6.48-7.29v17.82a1.62 1.62 0 0 1-1.62 1.62H5.52a1.62 1.62 0 0 1-1.62-1.62V18.48H2.28a0.81 0.81 0 0 1 0-1.62h1.62v-4.05H2.28a0.81 0.81 0 0 1 0-1.62h1.62V7.14H2.28a0.81 0.81 0 0 1 0-1.62h1.62V3.09a1.62 1.62 0 0 1 1.62-1.62h14.58a1.62 1.62 0 0 1 1.62 1.62M18.318 15.564a6.84 6.84 0 0 0-2.774-2.196 4.05 4.05 0 1 0-5.462 0 6.84 6.84 0 0 0-2.78 2.196 0.81 0.81 0 1 0 1.296 0.972 5.266 5.266 0 0 1 8.424 0 0.81 0.81 0 1 0 1.296-0.972"/></svg>