<svg width="24" height="24" viewBox="0 0 24 24" fill="none" xmlns="http://www.w3.org/2000/svg">
<path d="M19.5 3H4.5C4.10218 3 3.72064 3.15804 3.43934 3.43934C3.15804 3.72064 3 4.10218 3 4.5V19.5C3 19.8978 3.15804 20.2794 3.43934 20.5607C3.72064 20.842 4.10218 21 4.5 21H19.5C19.8978 21 20.2794 20.842 20.5607 20.5607C20.842 20.2794 21 19.8978 21 19.5V4.5C21 4.10218 20.842 3.72064 20.5607 3.43934C20.2794 3.15804 19.8978 3 19.5 3ZM17.25 4.5H19.5V8.25H17.25V4.5ZM17.25 9.75H19.5V14.25H17.25V9.75ZM13.6875 16.4766C13.5921 16.5011 13.4928 16.5066 13.3952 16.4927C13.2977 16.4788 13.2039 16.4459 13.1191 16.3957C13.0343 16.3456 12.9602 16.2792 12.901 16.2004C12.8419 16.1216 12.7989 16.032 12.7744 15.9366C12.5278 14.9747 11.55 14.2491 10.5009 14.2491C9.45187 14.2491 8.475 14.9747 8.2275 15.9366C8.20288 16.032 8.1597 16.1216 8.10044 16.2003C8.04118 16.2791 7.96699 16.3453 7.88211 16.3954C7.79723 16.4455 7.70333 16.4783 7.60575 16.4921C7.50818 16.5058 7.40885 16.5002 7.31344 16.4756C7.21802 16.451 7.12839 16.4078 7.04967 16.3486C6.97094 16.2893 6.90465 16.2151 6.8546 16.1302C6.80454 16.0454 6.77169 15.9515 6.75793 15.8539C6.74416 15.7563 6.74975 15.657 6.77438 15.5616C7.01775 14.6557 7.59305 13.8746 8.38594 13.3734C7.96459 12.9546 7.6771 12.4201 7.55989 11.8377C7.44269 11.2552 7.50106 10.6511 7.72759 10.1019C7.95413 9.55267 8.33864 9.08308 8.83237 8.75265C9.32611 8.42221 9.90683 8.24582 10.5009 8.24582C11.095 8.24582 11.6758 8.42221 12.1695 8.75265C12.6632 9.08308 13.0477 9.55267 13.2743 10.1019C13.5008 10.6511 13.5592 11.2552 13.442 11.8377C13.3248 12.4201 13.0373 12.9546 12.6159 13.3734C13.4092 13.8744 13.9843 14.6561 14.2266 15.5625C14.2512 15.6579 14.2569 15.7573 14.2431 15.8548C14.2294 15.9524 14.1965 16.0464 14.1465 16.1313C14.0964 16.2161 14.0301 16.2903 13.9514 16.3496C13.8726 16.4088 13.7829 16.452 13.6875 16.4766ZM19.5 19.5H17.25V15.75H19.5V19.5ZM12 11.25C12 11.5467 11.912 11.8367 11.7472 12.0834C11.5824 12.33 11.3481 12.5223 11.074 12.6358C10.7999 12.7494 10.4983 12.7791 10.2074 12.7212C9.91639 12.6633 9.64912 12.5204 9.43934 12.3107C9.22956 12.1009 9.0867 11.8336 9.02882 11.5426C8.97094 11.2517 9.00065 10.9501 9.11418 10.676C9.22771 10.4019 9.41997 10.1676 9.66665 10.0028C9.91332 9.83797 10.2033 9.75 10.5 9.75C10.8978 9.75 11.2794 9.90804 11.5607 10.1893C11.842 10.4706 12 10.8522 12 11.25Z" fill="black"/>
</svg>
