<svg xmlns="http://www.w3.org/2000/svg" fill="currentColor" viewBox="0 0 24 24" width="24" height="24"><path d="M20.1 2.28H3.9A1.62 1.62 0 0 0 2.28 3.9v16.2a1.62 1.62 0 0 0 1.62 1.62h16.2a1.62 1.62 0 0 0 1.62-1.62V3.9a1.62 1.62 0 0 0-1.62-1.62m-2.43 1.62h2.43v4.05h-2.43z m0 5.67h2.43v4.86h-2.43z m-3.847 7.265a0.81 0.81 0 0 1-0.987-0.583c-0.266-1.039-1.322-1.823-2.455-1.823s-2.188 0.784-2.455 1.823a0.81 0.81 0 0 1-1.57-0.406 4.032 4.032 0 0 1 1.74-2.363 3.24 3.24 0 1 1 4.569 0 4.032 4.032 0 0 1 1.74 2.364 0.81 0.81 0 0 1-0.582 0.988m6.277 3.265h-2.43v-4.05h2.43zM12 11.19a1.62 1.62 0 1 1-1.62-1.62 1.62 1.62 0 0 1 1.62 1.62"/></svg>