<svg xmlns="http://www.w3.org/2000/svg" fill="currentColor" viewBox="0 0 24 24" width="24" height="24"><path d="M14.7 10.65a2.025 2.025 0 1 1-2.025-2.025A2.025 2.025 0 0 1 14.7 10.65m5.4-6.075v14.85a1.35 1.35 0 0 1-1.35 1.35H6.6a1.35 1.35 0 0 1-1.35-1.35V17.4H3.9a.675.675 0 0 1 0-1.35h1.35v-3.375H3.9a.675.675 0 0 1 0-1.35h1.35V7.95H3.9a.675.675 0 0 1 0-1.35h1.35V4.575a1.35 1.35 0 0 1 1.35-1.35h12.15a1.35 1.35 0 0 1 1.35 1.35M17.265 14.97a5.7 5.7 0 0 0-2.312-1.83 3.375 3.375 0 1 0-4.551 0 5.7 5.7 0 0 0-2.317 1.83.675.675 0 1 0 1.08.81 4.388 4.388 0 0 1 7.02 0 .675.675 0 1 0 1.08-.81"/></svg>