<svg width="24" height="24" viewBox="0 0 24 24" fill="none" xmlns="http://www.w3.org/2000/svg">
<path d="M20.9989 9.75141V18.7513C20.9989 19.1492 20.8409 19.5307 20.5595 19.812C20.2782 20.0933 19.8967 20.2513 19.4989 20.2513H4.49901C4.10119 20.2513 3.71966 20.0933 3.43836 19.812C3.15706 19.5307 2.99902 19.1492 2.99902 18.7513V9.75141C2.99902 9.35359 3.15706 8.97206 3.43836 8.69076C3.71966 8.40945 4.10119 8.25142 4.49901 8.25142H19.4989C19.8967 8.25142 20.2782 8.40945 20.5595 8.69076C20.8409 8.97206 20.9989 9.35359 20.9989 9.75141ZM5.24901 6.75143H18.7489C18.9478 6.75143 19.1386 6.67241 19.2792 6.53176C19.4199 6.39111 19.4989 6.20035 19.4989 6.00144C19.4989 5.80253 19.4199 5.61176 19.2792 5.47111C19.1386 5.33046 18.9478 5.25144 18.7489 5.25144H5.24901C5.0501 5.25144 4.85933 5.33046 4.71868 5.47111C4.57803 5.61176 4.49901 5.80253 4.49901 6.00144C4.49901 6.20035 4.57803 6.39111 4.71868 6.53176C4.85933 6.67241 5.0501 6.75143 5.24901 6.75143ZM6.74899 3.75145H17.2489C17.4478 3.75145 17.6386 3.67244 17.7792 3.53179C17.9199 3.39113 17.9989 3.20037 17.9989 3.00146C17.9989 2.80255 17.9199 2.61178 17.7792 2.47113C17.6386 2.33048 17.4478 2.25146 17.2489 2.25146H6.74899C6.55008 2.25146 6.35932 2.33048 6.21867 2.47113C6.07802 2.61178 5.999 2.80255 5.999 3.00146C5.999 3.20037 6.07802 3.39113 6.21867 3.53179C6.35932 3.67244 6.55008 3.75145 6.74899 3.75145Z" fill="black"/>
</svg>
