<svg width="24" height="24" viewBox="0 0 24 24" fill="none" xmlns="http://www.w3.org/2000/svg">
<path d="M20.25 3.75049H3.75M9.75 21.0005H6C5.58579 21.0005 5.25 20.6647 5.25 20.2505V7.50049C5.25 7.08627 5.58579 6.75049 6 6.75049H9.75C10.1642 6.75049 10.5 7.08627 10.5 7.50049V20.2505C10.5 20.6647 10.1642 21.0005 9.75 21.0005ZM18 17.2505H14.25C13.8358 17.2505 13.5 16.9147 13.5 16.5005V7.50049C13.5 7.08627 13.8358 6.75049 14.25 6.75049H18C18.4142 6.75049 18.75 7.08627 18.75 7.50049V16.5005C18.75 16.9147 18.4142 17.2505 18 17.2505Z" stroke="black" stroke-width="1.5" stroke-linecap="round" stroke-linejoin="round"/>
</svg>
