<svg width="24" height="24" viewBox="0 0 24 24" fill="none" xmlns="http://www.w3.org/2000/svg">
<path d="M7.5 5.27409C7.08579 5.27409 6.75 5.60987 6.75 6.02409V9.77409C6.75 10.1883 7.08579 10.5241 7.5 10.5241H16.5C16.9142 10.5241 17.25 10.1883 17.25 9.77409V6.02409C17.25 5.60987 16.9142 5.27409 16.5 5.27409H7.5Z" fill="black"/>
<path d="M3.75 3.75L3.75 20.25M21 14.25V18C21 18.4142 20.6642 18.75 20.25 18.75H7.5C7.08579 18.75 6.75 18.4142 6.75 18V14.25C6.75 13.8358 7.08579 13.5 7.5 13.5H20.25C20.6642 13.5 21 13.8358 21 14.25ZM17.25 6.02409V9.77409C17.25 10.1883 16.9142 10.5241 16.5 10.5241H7.5C7.08579 10.5241 6.75 10.1883 6.75 9.77409V6.02409C6.75 5.60987 7.08579 5.27409 7.5 5.27409H16.5C16.9142 5.27409 17.25 5.60987 17.25 6.02409Z" stroke="black" stroke-width="1.5" stroke-linecap="round"/>
</svg>
