<svg width="24" height="24" viewBox="0 0 24 24" fill="none" xmlns="http://www.w3.org/2000/svg">
<path d="M5.26807 6.74561C5.26807 6.33139 5.60385 5.99561 6.01807 5.99561H9.76807C10.1823 5.99561 10.5181 6.33139 10.5181 6.74561V11.2456C10.5181 11.6598 10.1823 11.9956 9.76807 11.9956H6.01807C5.60385 11.9956 5.26807 11.6598 5.26807 11.2456V6.74561Z" fill="black"/>
<path d="M13.5 4.5C13.5 4.08579 13.8358 3.75 14.25 3.75L18.0027 3.75098C18.4169 3.75098 18.7527 4.08676 18.7527 4.50098V11.2456C18.7527 11.6598 18.4169 11.9956 18.0027 11.9956H14.25C13.8358 11.9956 13.5 11.6598 13.5 11.2456V4.5Z" fill="black"/>
<path d="M3 12.0005L21 12.0005M13.5 4.5C13.5 4.08579 13.8358 3.75 14.25 3.75L18 3.75C18.4142 3.75 18.75 4.08579 18.75 4.5V19.5C18.75 19.9142 18.4142 20.25 18 20.25H14.25C13.8358 20.25 13.5 19.9142 13.5 19.5V4.5ZM14.25 3.75L18.0027 3.75098C18.4169 3.75098 18.7527 4.08676 18.7527 4.50098V11.2456C18.7527 11.6598 18.4169 11.9956 18.0027 11.9956H14.25C13.8358 11.9956 13.5 11.6598 13.5 11.2456V4.5M6 18H9.75C10.1642 18 10.5 17.6642 10.5 17.25L10.5 6.75C10.5 6.33579 10.1642 6 9.75 6L6 6C5.58579 6 5.25 6.33579 5.25 6.75L5.25 17.25C5.25 17.6642 5.58579 18 6 18ZM6.01807 11.9956H9.76807C10.1823 11.9956 10.5181 11.6598 10.5181 11.2456V6.74561C10.5181 6.33139 10.1823 5.99561 9.76807 5.99561H6.01807C5.60385 5.99561 5.26807 6.33139 5.26807 6.74561V11.2456C5.26807 11.6598 5.60385 11.9956 6.01807 11.9956Z" stroke="black" stroke-width="1.5" stroke-linecap="round"/>
</svg>
