<svg viewBox="0 0 24 24" fill="none" xmlns="http://www.w3.org/2000/svg" width="24" height="24">
<path d="M18.113 14.038H8.825V16.437H18.113V14.038Z" fill="black"/>
<path fill-rule="evenodd" clip-rule="evenodd" d="M21.72 3.18C21.72 2.683 21.317 2.28 20.82 2.28H3.18C2.683 2.28 2.28 2.683 2.28 3.18V20.82C2.28 21.317 2.683 21.72 3.18 21.72H20.82C21.317 21.72 21.72 21.317 21.72 20.82V3.18ZM5.888 18.315C5.888 18.762 5.525 19.124 5.078 19.124 4.631 19.124 4.269 18.762 4.269 18.315V5.684C4.269 5.237 4.631 4.874 5.078 4.874 5.525 4.875 5.888 5.237 5.888 5.684V18.315ZM16.069 9.795C16.069 10.347 15.622 10.793 15.071 10.794H8.18C7.629 10.793 7.182 10.347 7.182 9.795V6.924C7.182 6.373 7.629 5.926 8.18 5.926H15.071C15.622 5.926 16.069 6.373 16.069 6.924V9.795ZM19.733 16.673C19.733 17.437 19.113 18.057 18.349 18.057H8.589C7.825 18.057 7.205 17.437 7.205 16.673V13.803C7.206 13.039 7.825 12.419 8.589 12.419H18.349C19.113 12.419 19.732 13.039 19.733 13.803V16.673Z" fill="black"/>
</svg>