<svg viewBox="0 0 24 24" fill="none" xmlns="http://www.w3.org/2000/svg" width="24" height="24">
<path d="M14.246 6.495H16.645V17.505H14.246V6.495Z" fill="black"/>
<path fill-rule="evenodd" clip-rule="evenodd" d="M2.28 3.18C2.28 2.683 2.683 2.28 3.18 2.28H20.82C21.317 2.28 21.72 2.683 21.72 3.18V20.82C21.72 21.317 21.317 21.72 20.82 21.72H3.18C2.683 21.72 2.28 21.317 2.28 20.82V3.18ZM4.119 12.001C4.119 12.448 4.481 12.81 4.928 12.81H5.73V16.335C5.73 16.931 6.251 17.413 6.892 17.413H10.23C10.872 17.413 11.392 16.931 11.392 16.335V12.81H12.626V17.74C12.626 18.505 13.246 19.124 14.01 19.124H16.88C17.644 19.124 18.264 18.505 18.264 17.74V12.81H19.072C19.519 12.81 19.881 12.448 19.881 12.001 19.881 11.553 19.519 11.191 19.072 11.191H18.264V6.258C18.264 5.495 17.644 4.875 16.88 4.874H14.01C13.246 4.874 12.627 5.494 12.626 6.258V11.191H11.392V7.665C11.392 7.07 10.871 6.588 10.23 6.588H6.892C6.251 6.588 5.73 7.07 5.73 7.665V11.191H4.928C4.481 11.191 4.119 11.553 4.119 12.001Z" fill="black"/>
</svg>