<svg width="24" height="24" viewBox="0 0 24 24" fill="none" xmlns="http://www.w3.org/2000/svg">
<path d="M3 21.75H21M3 2.25L21 2.25M14.2524 18.7505H18.0024C18.4167 18.7505 18.7524 18.4147 18.7524 18.0005L18.7524 5.99951C18.7524 5.5853 18.4167 5.24951 18.0024 5.24951L14.2524 5.24951C13.8382 5.24951 13.5024 5.5853 13.5024 5.99951L13.5024 18.0005C13.5024 18.4147 13.8382 18.7505 14.2524 18.7505ZM6 18.7505H9.75C10.1642 18.7505 10.5 18.4147 10.5 18.0005L10.5 5.99951C10.5 5.5853 10.1642 5.24951 9.75 5.24951L6 5.24951C5.58579 5.24951 5.25 5.5853 5.25 5.99951L5.25 18.0005C5.25 18.4147 5.58579 18.7505 6 18.7505Z" stroke="black" stroke-width="1.5" stroke-linecap="round"/>
</svg>
