<svg viewBox="0 0 24 24" fill="none" xmlns="http://www.w3.org/2000/svg" width="24" height="24">
<path d="M5.887 14.038H15.175V16.437H5.887V14.038Z" fill="black"/>
<path fill-rule="evenodd" clip-rule="evenodd" d="M2.28 3.18C2.28 2.683 2.683 2.28 3.18 2.28H20.82C21.317 2.28 21.72 2.683 21.72 3.18V20.82C21.72 21.317 21.317 21.72 20.82 21.72H3.18C2.683 21.72 2.28 21.317 2.28 20.82V3.18ZM18.112 18.315C18.112 18.762 18.474 19.124 18.922 19.124 19.369 19.124 19.731 18.762 19.731 18.315V5.684C19.731 5.237 19.369 4.874 18.922 4.874 18.475 4.875 18.112 5.237 18.112 5.684V18.315ZM7.931 9.795C7.931 10.347 8.378 10.793 8.929 10.794H15.82C16.371 10.793 16.818 10.347 16.818 9.795V6.924C16.818 6.373 16.371 5.926 15.82 5.926H8.929C8.378 5.926 7.931 6.373 7.931 6.924V9.795ZM4.267 16.673C4.267 17.437 4.887 18.057 5.651 18.057H15.411C16.175 18.057 16.795 17.437 16.795 16.673V13.803C16.794 13.039 16.175 12.419 15.411 12.419H5.651C4.887 12.419 4.268 13.039 4.267 13.803V16.673Z" fill="black"/>
</svg>