<svg width="24" height="24" viewBox="0 0 24 24" fill="none" xmlns="http://www.w3.org/2000/svg">
<path d="M19.5 20.8213C19.8728 20.8213 20.1748 21.1233 20.1748 21.4961C20.1748 21.8689 19.8728 22.1709 19.5 22.1709H4.5C4.12721 22.1709 3.8252 21.8689 3.8252 21.4961C3.8252 21.1233 4.12721 20.8213 4.5 20.8213H19.5Z" fill="black"/>
<path d="M19.5 1.8291C19.8728 1.8291 20.1748 2.13111 20.1748 2.50391C20.1748 2.8767 19.8728 3.17871 19.5 3.17871L4.5 3.17871C4.12721 3.17871 3.8252 2.8767 3.8252 2.50391C3.8252 2.13111 4.12721 1.8291 4.5 1.8291L19.5 1.8291Z" fill="black"/>
<path d="M6.00391 5.75C6.00391 5.33579 6.33969 5 6.75391 5H17.2539C17.6681 5 18.0039 5.33579 18.0039 5.75V18.25C18.0039 18.6642 17.6681 19 17.2539 19H6.75391C6.33969 19 6.00391 18.6642 6.00391 18.25V5.75ZM12.7041 16.375C12.7042 16.6649 12.9396 16.8994 13.2295 16.8994H15.6787C15.9686 16.8994 16.204 16.6649 16.2041 16.375V7.625C16.2041 7.33505 15.9687 7.09961 15.6787 7.09961H13.2295C12.9395 7.09961 12.7041 7.33505 12.7041 7.625V16.375ZM7.80371 16.375C7.80376 16.6649 8.03918 16.8994 8.3291 16.8994H10.7783C11.0682 16.8994 11.3037 16.6649 11.3037 16.375V7.625C11.3037 7.33505 11.0683 7.09961 10.7783 7.09961H8.3291C8.03915 7.09961 7.80371 7.33505 7.80371 7.625V16.375Z" fill="black"/>
</svg>
