<svg width="24" height="24" viewBox="0 0 24 24" fill="none" xmlns="http://www.w3.org/2000/svg">
<path d="M19.4989 3.00317H4.49901C4.10119 3.00317 3.71966 3.16121 3.43836 3.44251C3.15706 3.72381 2.99902 4.10534 2.99902 4.50316V19.503C2.99902 19.9009 3.15706 20.2824 3.43836 20.5637C3.71966 20.845 4.10119 21.003 4.49901 21.003H19.4989C19.8967 21.003 20.2782 20.845 20.5595 20.5637C20.8409 20.2824 20.9989 19.9009 20.9989 19.503V4.50316C20.9989 4.10534 20.8409 3.72381 20.5595 3.44251C20.2782 3.16121 19.8967 3.00317 19.4989 3.00317ZM17.9989 17.2531H5.999C5.80009 17.2531 5.60933 17.174 5.46867 17.0334C5.32802 16.8927 5.24901 16.702 5.24901 16.5031C5.24901 16.3042 5.32802 16.1134 5.46867 15.9727C5.60933 15.8321 5.80009 15.7531 5.999 15.7531H17.9989C18.1978 15.7531 18.3886 15.8321 18.5292 15.9727C18.6699 16.1134 18.7489 16.3042 18.7489 16.5031C18.7489 16.702 18.6699 16.8927 18.5292 17.0334C18.3886 17.174 18.1978 17.2531 17.9989 17.2531ZM17.9989 14.2531H5.999C5.80009 14.2531 5.60933 14.1741 5.46867 14.0334C5.32802 13.8928 5.24901 13.702 5.24901 13.5031C5.24901 13.3042 5.32802 13.1134 5.46867 12.9728C5.60933 12.8321 5.80009 12.7531 5.999 12.7531H17.9989C18.1978 12.7531 18.3886 12.8321 18.5292 12.9728C18.6699 13.1134 18.7489 13.3042 18.7489 13.5031C18.7489 13.702 18.6699 13.8928 18.5292 14.0334C18.3886 14.1741 18.1978 14.2531 17.9989 14.2531ZM17.9989 11.2531H5.999C5.80009 11.2531 5.60933 11.1741 5.46867 11.0334C5.32802 10.8928 5.24901 10.702 5.24901 10.5031C5.24901 10.3042 5.32802 10.1134 5.46867 9.97279C5.60933 9.83214 5.80009 9.75312 5.999 9.75312H17.9989C18.1978 9.75312 18.3886 9.83214 18.5292 9.97279C18.6699 10.1134 18.7489 10.3042 18.7489 10.5031C18.7489 10.702 18.6699 10.8928 18.5292 11.0334C18.3886 11.1741 18.1978 11.2531 17.9989 11.2531ZM17.9989 8.25313H5.999C5.80009 8.25313 5.60933 8.17412 5.46867 8.03347C5.32802 7.89281 5.24901 7.70205 5.24901 7.50314C5.24901 7.30423 5.32802 7.11346 5.46867 6.97281C5.60933 6.83216 5.80009 6.75315 5.999 6.75315H17.9989C18.1978 6.75315 18.3886 6.83216 18.5292 6.97281C18.6699 7.11346 18.7489 7.30423 18.7489 7.50314C18.7489 7.70205 18.6699 7.89281 18.5292 8.03347C18.3886 8.17412 18.1978 8.25313 17.9989 8.25313Z" fill="black"/>
</svg>
