<svg width="24" height="24" viewBox="0 0 24 24" fill="none" xmlns="http://www.w3.org/2000/svg">
<g clip-path="url(#clip0_831_307)">
<path d="M11.646 13.8638V15.8628H7.4126V13.8638H11.646Z" fill="black"/>
<path d="M11.6245 10.1353H8.82666V8.13623H11.6245V10.1353Z" fill="black"/>
<path fill-rule="evenodd" clip-rule="evenodd" d="M19.3501 3.8999C19.7642 3.90001 20.1001 4.23575 20.1001 4.6499V19.3501C20.1 19.7642 19.7642 20.1 19.3501 20.1001H4.6499C4.23575 20.1001 3.90001 19.7642 3.8999 19.3501V4.6499C3.8999 4.23569 4.23569 3.8999 4.6499 3.8999H19.3501ZM11.9995 5.42432C11.6268 5.42439 11.3247 5.72638 11.3247 6.09912V6.78662H8.63037C7.99367 6.78682 7.47727 7.30325 7.47705 7.93994V10.3315C7.47705 10.9684 7.99354 11.4847 8.63037 11.4849H11.3052V12.5142H7.21631C6.57944 12.5142 6.06322 13.0307 6.06299 13.6675V16.0591C6.06309 16.696 6.57936 17.2124 7.21631 17.2124H11.3247V17.9009C11.3248 18.2735 11.6269 18.5755 11.9995 18.5757C12.3723 18.5757 12.6743 18.2736 12.6743 17.9009V17.2124H16.7847C17.4213 17.212 17.9379 16.6958 17.938 16.0591V13.6675C17.9378 13.0309 17.4212 12.5146 16.7847 12.5142H12.6548V11.4849H15.3276C15.9646 11.4849 16.481 10.9686 16.481 10.3315V7.93994C16.4807 7.30312 15.9645 6.78662 15.3276 6.78662H12.6743V6.09912C12.6743 5.72633 12.3723 5.42432 11.9995 5.42432Z" fill="black"/>
</g>
<defs>
<clipPath id="clip0_831_307">
<rect width="24" height="24" fill="white"/>
</clipPath>
</defs>
</svg>
