<svg width="24" height="24" viewBox="0 0 24 24" fill="none" xmlns="http://www.w3.org/2000/svg">
<path d="M20.9989 14.2509V18.0009C20.9989 18.3987 20.8409 18.7802 20.5595 19.0615C20.2782 19.3428 19.8967 19.5008 19.4989 19.5008H12.7489V21.0008C12.7489 21.1997 12.6699 21.3905 12.5293 21.5312C12.3886 21.6718 12.1979 21.7508 11.999 21.7508C11.8 21.7508 11.6093 21.6718 11.4686 21.5312C11.328 21.3905 11.249 21.1997 11.249 21.0008V19.5008H4.49901C4.10119 19.5008 3.71966 19.3428 3.43836 19.0615C3.15706 18.7802 2.99902 18.3987 2.99902 18.0009V14.2509C2.99902 13.8531 3.15706 13.4715 3.43836 13.1902C3.71966 12.9089 4.10119 12.7509 4.49901 12.7509H11.249V11.2509H6.74899C6.35117 11.2509 5.96965 11.0929 5.68834 10.8116C5.40704 10.5303 5.24901 10.1487 5.24901 9.75092V6.00095C5.24901 5.60313 5.40704 5.2216 5.68834 4.9403C5.96965 4.65899 6.35117 4.50096 6.74899 4.50096H11.249V3.00097C11.249 2.80206 11.328 2.6113 11.4686 2.47064C11.6093 2.32999 11.8 2.25098 11.999 2.25098C12.1979 2.25098 12.3886 2.32999 12.5293 2.47064C12.6699 2.6113 12.7489 2.80206 12.7489 3.00097V4.50096H17.2489C17.6467 4.50096 18.0283 4.65899 18.3096 4.9403C18.5909 5.2216 18.7489 5.60313 18.7489 6.00095V9.75092C18.7489 10.1487 18.5909 10.5303 18.3096 10.8116C18.0283 11.0929 17.6467 11.2509 17.2489 11.2509H12.7489V12.7509H19.4989C19.8967 12.7509 20.2782 12.9089 20.5595 13.1902C20.8409 13.4715 20.9989 13.8531 20.9989 14.2509Z" fill="black"/>
</svg>
