<svg width="24" height="24" viewBox="0 0 24 24" fill="none" xmlns="http://www.w3.org/2000/svg">
<path d="M6.90576 13.6987H14.646V15.6978H6.90576V13.6987Z" fill="black"/>
<path fill-rule="evenodd" clip-rule="evenodd" d="M3.8999 4.6499C3.90001 4.23578 4.23575 3.8999 4.6499 3.8999H19.3501C19.7642 3.90001 20.1 4.23584 20.1001 4.6499V19.3501C20.1001 19.7642 19.7642 20.1 19.3501 20.1001H4.6499C4.23569 20.1001 3.8999 19.7643 3.8999 19.3501V4.6499ZM17.0933 17.2622C17.0933 17.6349 17.3954 17.9368 17.7681 17.937C18.1409 17.937 18.4429 17.635 18.4429 17.2622V6.73682C18.4424 6.3644 18.1406 6.06201 17.7681 6.06201C17.3957 6.06218 17.0937 6.36451 17.0933 6.73682V17.2622ZM8.60889 10.1626C8.60908 10.6221 8.98144 10.9942 9.44092 10.9946H15.1831C15.6426 10.9943 16.0149 10.6222 16.0151 10.1626V7.77002C16.015 7.31043 15.6427 6.93831 15.1831 6.93799H9.44092C8.98142 6.93838 8.60906 7.31047 8.60889 7.77002V10.1626ZM5.55615 15.894C5.55615 16.5309 6.07268 17.0471 6.70947 17.0474H14.8423C15.4793 17.0474 15.9956 16.531 15.9956 15.894V13.5024C15.9954 12.8656 15.4792 12.3491 14.8423 12.3491H6.70947C6.0728 12.3494 5.55635 12.8658 5.55615 13.5024V15.894Z" fill="black"/>
</svg>
