<svg width="24" height="24" viewBox="0 0 24 24" fill="none" xmlns="http://www.w3.org/2000/svg">
<path fill-rule="evenodd" clip-rule="evenodd" d="M19.5 3C19.8978 3 20.2792 3.15815 20.5605 3.43945C20.8419 3.72076 21 4.10218 21 4.5V19.5C21 19.8978 20.8419 20.2792 20.5605 20.5605C20.2792 20.8419 19.8978 21 19.5 21H4.5C4.10218 21 3.72076 20.8419 3.43945 20.5605C3.15815 20.2792 3 19.8978 3 19.5V4.5C3 4.10218 3.15815 3.72076 3.43945 3.43945C3.72076 3.15815 4.10218 3 4.5 3H19.5ZM7.14453 5.1875C6.86592 4.88119 6.39141 4.85924 6.08496 5.1377C5.77859 5.41634 5.75559 5.89081 6.03418 6.19727L6.53125 6.74414H5.98926C5.57504 6.74414 5.23926 7.07993 5.23926 7.49414C5.23951 7.90814 5.5752 8.24414 5.98926 8.24414H7.89453L9.25879 9.74414H5.98926C5.57504 9.74414 5.23926 10.0799 5.23926 10.4941C5.2394 10.9082 5.57513 11.2441 5.98926 11.2441H10.6221L11.9873 12.7451H5.98926C5.57504 12.7451 5.23926 13.0809 5.23926 13.4951C5.23929 13.9093 5.57507 14.2451 5.98926 14.2451H13.3506L14.7148 15.7461H5.98926C5.57509 15.7461 5.23933 16.0819 5.23926 16.4961C5.23926 16.9103 5.57504 17.2461 5.98926 17.2461H16.0791L18.0381 19.4014C18.3167 19.7077 18.7912 19.7297 19.0977 19.4512C19.4039 19.1725 19.4269 18.698 19.1484 18.3916L16.9922 16.0195C16.9717 15.9948 16.9512 15.9701 16.9277 15.9482L7.14453 5.1875ZM17.3828 12.7451C16.9687 12.7452 16.6328 13.081 16.6328 13.4951C16.6328 13.9093 16.9687 14.245 17.3828 14.2451H18.0059C18.42 14.245 18.7559 13.9092 18.7559 13.4951C18.7559 13.081 18.42 12.7452 18.0059 12.7451H17.3828ZM14.6016 9.74414C14.1875 9.74427 13.8516 10.08 13.8516 10.4941C13.8518 10.9081 14.1876 11.244 14.6016 11.2441H18.0059C18.4198 11.244 18.7556 10.908 18.7559 10.4941C18.7559 10.08 18.42 9.74427 18.0059 9.74414H14.6016ZM12.1016 6.74414C11.6875 6.74427 11.3516 7.08001 11.3516 7.49414C11.3518 7.90805 11.6876 8.24401 12.1016 8.24414H18.0059C18.4198 8.24401 18.7556 7.90805 18.7559 7.49414C18.7559 7.08001 18.42 6.74427 18.0059 6.74414H12.1016Z" fill="black"/>
</svg>
