<svg width="24" height="24" viewBox="0 0 24 24" fill="none" xmlns="http://www.w3.org/2000/svg">
<path fill-rule="evenodd" clip-rule="evenodd" d="M20.25 3L3.75 3C3.33579 3 3 3.33579 3 3.75C3 4.16421 3.33579 4.5 3.75 4.5L20.25 4.5C20.6642 4.5 21 4.16421 21 3.75C21 3.33579 20.6642 3 20.25 3Z" fill="black"/>
<path d="M9.77441 18C10.6027 17.9998 11.2744 17.3283 11.2744 16.5L11.2744 7.5C11.2744 6.67168 10.6027 6.00018 9.77441 6L6.02441 6C5.19599 6 4.52441 6.67157 4.52441 7.5L4.52441 16.5C4.52441 17.3284 5.19599 18 6.02441 18L9.77441 18Z" fill="black"/>
<path fill-rule="evenodd" clip-rule="evenodd" d="M19.5 20.25C19.5 21.0784 18.8284 21.75 18 21.75L14.25 21.75C13.4216 21.75 12.75 21.0784 12.75 20.25L12.75 7.5C12.75 6.67157 13.4216 6 14.25 6L18 6C18.8284 6 19.5 6.67157 19.5 7.5L19.5 20.25ZM14.25 7.5L18 7.5L18 20.25L14.25 20.25L14.25 7.5Z" fill="black"/>
</svg>
