<svg viewBox="0 0 24 24" fill="none" xmlns="http://www.w3.org/2000/svg" width="24" height="24">
<path d="M17.505 14.246V16.645H6.495V14.246H17.505Z" fill="black"/>
<path fill-rule="evenodd" clip-rule="evenodd" d="M20.82 2.28C21.317 2.28 21.72 2.683 21.72 3.18V20.82C21.72 21.317 21.317 21.72 20.82 21.72H3.18C2.683 21.72 2.28 21.317 2.28 20.82V3.18C2.28 2.683 2.683 2.28 3.18 2.28H20.82ZM11.999 4.119C11.552 4.119 11.19 4.481 11.19 4.928V5.73H7.665C7.069 5.73 6.587 6.251 6.587 6.892V10.23C6.587 10.872 7.069 11.392 7.665 11.392H11.19V12.626H6.26C5.495 12.626 4.876 13.246 4.876 14.01V16.88C4.876 17.644 5.495 18.264 6.26 18.264H11.19V19.072C11.19 19.519 11.552 19.881 11.999 19.881 12.447 19.881 12.809 19.519 12.809 19.072V18.264H17.742C18.505 18.264 19.125 17.644 19.126 16.88V14.01C19.126 13.246 18.506 12.627 17.742 12.626H12.809V11.392H16.335C16.93 11.392 17.412 10.871 17.412 10.23V6.892C17.412 6.251 16.93 5.73 16.335 5.73H12.809V4.928C12.809 4.481 12.447 4.119 11.999 4.119Z" fill="black"/>
</svg>