<svg width="24" height="24" viewBox="0 0 24 24" fill="none" xmlns="http://www.w3.org/2000/svg">
<path fill-rule="evenodd" clip-rule="evenodd" d="M19.5 21C20.3284 21 21 20.3284 21 19.5V4.5C21 3.67157 20.3284 3 19.5 3H4.5C3.67157 3 3 3.67157 3 4.5V19.5C3 20.3284 3.67157 21 4.5 21H19.5ZM8.25 6.74512C7.83579 6.74512 7.5 6.40933 7.5 5.99512C7.5 5.5809 7.83579 5.24512 8.25 5.24512H15.25C15.6642 5.24512 16 5.5809 16 5.99512C16 6.40933 15.6642 6.74512 15.25 6.74512H8.25ZM6 9.74512C5.58579 9.74512 5.25 9.40933 5.25 8.99512C5.25 8.5809 5.58579 8.24512 6 8.24512H18C18.4142 8.24512 18.75 8.5809 18.75 8.99512C18.75 9.40933 18.4142 9.74512 18 9.74512H6ZM8.25 12.7451C7.83579 12.7451 7.5 12.4093 7.5 11.9951C7.5 11.5809 7.83579 11.2451 8.25 11.2451H15.25C15.6642 11.2451 16 11.5809 16 11.9951C16 12.4093 15.6642 12.7451 15.25 12.7451H8.25Z" fill="black"/>
</svg>
