<svg width="24" height="24" viewBox="0 0 24 24" fill="none" xmlns="http://www.w3.org/2000/svg">
<path d="M20.9989 3.75073V20.2506C20.9989 20.4495 20.9199 20.6403 20.7792 20.7809C20.6386 20.9216 20.4478 21.0006 20.2489 21.0006C20.05 21.0006 19.8592 20.9216 19.7186 20.7809C19.5779 20.6403 19.4989 20.4495 19.4989 20.2506V3.75073C19.4989 3.55182 19.5779 3.36105 19.7186 3.2204C19.8592 3.07975 20.05 3.00073 20.2489 3.00073C20.4478 3.00073 20.6386 3.07975 20.7792 3.2204C20.9199 3.36105 20.9989 3.55182 20.9989 3.75073ZM16.4989 4.50072H7.49898C7.10116 4.50072 6.71963 4.65875 6.43833 4.94006C6.15703 5.22136 5.99899 5.60289 5.99899 6.00071V9.75068C5.99899 10.1485 6.15703 10.53 6.43833 10.8113C6.71963 11.0926 7.10116 11.2507 7.49898 11.2507H16.4989C16.8967 11.2507 17.2783 11.0926 17.5596 10.8113C17.8409 10.53 17.9989 10.1485 17.9989 9.75068V6.00071C17.9989 5.60289 17.8409 5.22136 17.5596 4.94006C17.2783 4.65875 16.8967 4.50072 16.4989 4.50072ZM16.4989 12.7507H3.74901C3.35119 12.7507 2.96966 12.9087 2.68836 13.19C2.40706 13.4713 2.24902 13.8528 2.24902 14.2506V18.0006C2.24902 18.3984 2.40706 18.78 2.68836 19.0613C2.96966 19.3426 3.35119 19.5006 3.74901 19.5006H16.4989C16.8967 19.5006 17.2783 19.3426 17.5596 19.0613C17.8409 18.78 17.9989 18.3984 17.9989 18.0006V14.2506C17.9989 13.8528 17.8409 13.4713 17.5596 13.19C17.2783 12.9087 16.8967 12.7507 16.4989 12.7507Z" fill="black"/>
</svg>
