<svg width="24" height="24" viewBox="0 0 24 24" fill="none" xmlns="http://www.w3.org/2000/svg">
<path d="M16.5 5.27409C16.9142 5.27409 17.25 5.60987 17.25 6.02409V9.77409C17.25 10.1883 16.9142 10.5241 16.5 10.5241H7.5C7.08579 10.5241 6.75 10.1883 6.75 9.77409V6.02409C6.75 5.60987 7.08579 5.27409 7.5 5.27409H16.5Z" fill="black"/>
<path d="M20.25 3.75V20.25M3 14.25V18C3 18.4142 3.33579 18.75 3.75 18.75H16.5C16.9142 18.75 17.25 18.4142 17.25 18V14.25C17.25 13.8358 16.9142 13.5 16.5 13.5H3.75C3.33579 13.5 3 13.8358 3 14.25ZM6.75 6.02409V9.77409C6.75 10.1883 7.08579 10.5241 7.5 10.5241H16.5C16.9142 10.5241 17.25 10.1883 17.25 9.77409V6.02409C17.25 5.60987 16.9142 5.27409 16.5 5.27409H7.5C7.08579 5.27409 6.75 5.60987 6.75 6.02409Z" stroke="black" stroke-width="1.5" stroke-linecap="round"/>
</svg>
