<svg width="24" height="24" viewBox="0 0 24 24" fill="none" xmlns="http://www.w3.org/2000/svg">
<path fill-rule="evenodd" clip-rule="evenodd" d="M1.5 21V3C1.5 2.58579 1.83579 2.25 2.25 2.25C2.66421 2.25 3 2.58579 3 3V21C3 21.4142 2.66421 21.75 2.25 21.75C1.83579 21.75 1.5 21.4142 1.5 21ZM21 21V3C21 2.58579 21.3358 2.25 21.75 2.25C22.1642 2.25 22.5 2.58579 22.5 3V21C22.5 21.4142 22.1642 21.75 21.75 21.75C21.3358 21.75 21 21.4142 21 21Z" fill="black"/>
<path d="M19.5 9.75C19.5 10.5784 18.8284 11.25 18 11.25H6C5.17157 11.25 4.5 10.5784 4.5 9.75V6C4.5 5.17157 5.17157 4.5 6 4.5H18C18.8284 4.5 19.5 5.17157 19.5 6V9.75Z" fill="black"/>
<path fill-rule="evenodd" clip-rule="evenodd" d="M18.001 19.5029C18.829 19.5027 19.5007 18.831 19.501 18.0029V14.2529C19.501 13.4247 18.8292 12.7532 18.001 12.7529H6C5.17157 12.7529 4.5 13.4245 4.5 14.2529V18.0029C4.50026 18.8311 5.17174 19.5029 6 19.5029H18.001ZM6 14.2529V18.0029H18.001V14.2529H6Z" fill="black"/>
</svg>
