<svg xmlns="http://www.w3.org/2000/svg" width="24" height="24" fill="currentColor" viewBox="0 0 24 24"><path d="M20.1 2.28H3.9A1.62 1.62 0 0 0 2.28 3.9v16.2a1.62 1.62 0 0 0 1.62 1.62h16.2a1.62 1.62 0 0 0 1.62-1.62V3.9a1.62 1.62 0 0 0-1.62-1.62m-3.24 15.39h-9.72a0.81 0.81 0 0 1 0-1.62h9.72a0.81 0.81 0 0 1 0 1.62m1.62-3.24H5.52a0.81 0.81 0 0 1 0-1.62h12.96a0.81 0.81 0 0 1 0 1.62M6.33 10.38a0.81 0.81 0 0 1 0.81-0.81h9.72a0.81 0.81 0 0 1 0 1.62h-9.72a0.81 0.81 0 0 1-0.81-0.81M18.48 7.95H5.52a0.81 0.81 0 0 1 0-1.62h12.96a0.81 0.81 0 0 1 0 1.62"/></svg>