<svg width="24" height="24" viewBox="0 0 24 24" fill="none" xmlns="http://www.w3.org/2000/svg">
<g clip-path="url(#clip0_831_358)">
<path d="M13.8638 12.354H15.8628V16.5874H13.8638V12.354Z" fill="black"/>
<path d="M10.1353 12.3745V15.1724H8.13623V12.3745H10.1353Z" fill="black"/>
<path fill-rule="evenodd" clip-rule="evenodd" d="M3.8999 4.6499C3.90001 4.23578 4.23575 3.8999 4.6499 3.8999H19.3501C19.7642 3.90001 20.1 4.23584 20.1001 4.6499V19.3501C20.1001 19.7642 19.7642 20.1 19.3501 20.1001H4.6499C4.23569 20.1001 3.8999 19.7643 3.8999 19.3501V4.6499ZM5.42432 12.0005C5.42453 12.3731 5.72646 12.6753 6.09912 12.6753H6.78662V15.3687C6.78669 16.0055 7.30315 16.5218 7.93994 16.522H10.3315C10.9684 16.5219 11.4848 16.0055 11.4849 15.3687V12.6948H12.5142V16.7837C12.5142 17.4206 13.0307 17.9368 13.6675 17.937H16.0591C16.696 17.9369 17.2124 17.4206 17.2124 16.7837V12.6753H17.9009C18.2735 12.6752 18.5755 12.3731 18.5757 12.0005C18.5757 11.6277 18.2736 11.3257 17.9009 11.3257H17.2124V7.21533C17.212 6.57872 16.6958 6.06212 16.0591 6.06201H13.6675C13.0309 6.06224 12.5146 6.5788 12.5142 7.21533V11.3452H11.4849V8.67139C11.4847 8.03456 10.9684 7.51818 10.3315 7.51807H7.93994C7.30318 7.51827 6.78675 8.03461 6.78662 8.67139V11.3257H6.09912C5.72633 11.3257 5.42432 11.6277 5.42432 12.0005Z" fill="black"/>
</g>
<defs>
<clipPath id="clip0_831_358">
<rect width="24" height="24" fill="white" transform="matrix(0 -1 1 0 0 24)"/>
</clipPath>
</defs>
</svg>
