<svg width="24" height="24" viewBox="0 0 24 24" fill="none" xmlns="http://www.w3.org/2000/svg">
<path d="M12 5.99463C12 5.58042 12.3358 5.24463 12.75 5.24463H17.2468C17.661 5.24463 17.9968 5.58042 17.9968 5.99463V9.74414C17.9968 10.1584 17.661 10.4941 17.2468 10.4941H12.75C12.3358 10.4941 12 10.1584 12 9.74414V5.99463Z" fill="black"/>
<path d="M12 14.25C12 13.8358 12.3358 13.5 12.75 13.5H19.5C19.9142 13.5 20.25 13.8358 20.25 14.25V18C20.25 18.4142 19.9142 18.75 19.5 18.75L12.75 18.7495C12.3358 18.7495 12 18.4137 12 17.9995V14.25Z" fill="black"/>
<path d="M12.7495 3C12.7495 2.58579 12.4137 2.25 11.9995 2.25C11.5853 2.25 11.2495 2.58579 11.2495 3L11.9995 3L12.7495 3ZM12.75 18.7495L12.7501 17.9995H12.75V18.7495ZM11.9995 3L11.2495 3L11.2495 21H11.9995H12.7495L12.7495 3L11.9995 3ZM20.25 14.25H19.5V18H20.25H21V14.25H20.25ZM19.5 18.75V18H4.5V18.75V19.5H19.5V18.75ZM3.75 18H4.5V14.25H3.75H3V18H3.75ZM4.5 13.5V14.25H19.5V13.5V12.75H4.5V13.5ZM3.75 14.25H4.5V13.5V12.75C3.67157 12.75 3 13.4216 3 14.25H3.75ZM4.5 18.75V18H4.5H3.75H3C3 18.8284 3.67157 19.5 4.5 19.5V18.75ZM20.25 18H19.5V18.75V19.5C20.3284 19.5 21 18.8284 21 18H20.25ZM20.25 14.25H21C21 13.4216 20.3284 12.75 19.5 12.75V13.5V14.25H20.25ZM18 6H17.25V9.75H18H18.75V6H18ZM17.25 10.5V9.75H6.75V10.5V11.25H17.25V10.5ZM6 9.75H6.75V6H6H5.25V9.75H6ZM6.75 5.25V6H17.25V5.25V4.5H6.75V5.25ZM6 6H6.75V5.25V4.5C5.92157 4.5 5.25 5.17157 5.25 6H6ZM6.75 10.5V9.75H6H5.25C5.25 10.5784 5.92157 11.25 6.75 11.25V10.5ZM18 9.75H17.25V10.5V11.25C18.0784 11.25 18.75 10.5784 18.75 9.75H18ZM18 6H18.75C18.75 5.17157 18.0784 4.5 17.25 4.5V5.25V6H18ZM12.75 5.24463V5.99463H17.2468V5.24463V4.49463H12.75V5.24463ZM17.9968 5.99463H17.2468V9.74414H17.9968H18.7468V5.99463H17.9968ZM17.2468 10.4941V9.74414H12.75V10.4941V11.2441H17.2468V10.4941ZM12 9.74414H12.75V5.99463H12H11.25V9.74414H12ZM12.75 10.4941V9.74414H12H11.25C11.25 10.5726 11.9216 11.2441 12.75 11.2441V10.4941ZM17.9968 9.74414H17.2468V10.4941V11.2441C18.0753 11.2441 18.7468 10.5726 18.7468 9.74414H17.9968ZM17.2468 5.24463V5.99463H17.9968H18.7468C18.7468 5.1662 18.0753 4.49463 17.2468 4.49463V5.24463ZM12.75 5.24463V4.49463C11.9216 4.49463 11.25 5.1662 11.25 5.99463H12H12.75V5.24463ZM12.75 13.5V14.25H19.5V13.5V12.75H12.75V13.5ZM19.5 18.75L19.5001 18L12.7501 17.9995L12.75 18.7495L12.7499 19.4995L19.4999 19.5L19.5 18.75ZM12 17.9995H12.75V14.25H12H11.25V17.9995H12ZM12.75 18.7495V17.9995H12H11.25C11.25 18.8279 11.9216 19.4995 12.75 19.4995V18.7495ZM12.75 13.5V12.75C11.9216 12.75 11.25 13.4216 11.25 14.25H12H12.75V13.5Z" fill="black"/>
</svg>
