<svg width="24" height="24" viewBox="0 0 24 24" fill="none" xmlns="http://www.w3.org/2000/svg">
<path fill-rule="evenodd" clip-rule="evenodd" d="M2.625 20.625V4.125C2.625 3.71079 2.96079 3.375 3.375 3.375C3.78921 3.375 4.125 3.71079 4.125 4.125V20.625C4.125 21.0392 3.78921 21.375 3.375 21.375C2.96079 21.375 2.625 21.0392 2.625 20.625Z" fill="black"/>
<path d="M17.625 10.1494C17.6248 10.9777 16.9533 11.6494 16.125 11.6494H7.125C6.29668 11.6494 5.62518 10.9777 5.625 10.1494V6.39941C5.625 5.57099 6.29657 4.89941 7.125 4.89941H16.125C16.9534 4.89941 17.625 5.57099 17.625 6.39941V10.1494Z" fill="black"/>
<path fill-rule="evenodd" clip-rule="evenodd" d="M19.875 19.875C20.7034 19.875 21.375 19.2034 21.375 18.375V14.625C21.375 13.7966 20.7034 13.125 19.875 13.125H7.125C6.29657 13.125 5.625 13.7966 5.625 14.625V18.375C5.625 19.2034 6.29657 19.875 7.125 19.875H19.875ZM7.125 14.625V18.375H19.875V14.625H7.125Z" fill="black"/>
</svg>
