<svg width="24" height="24" viewBox="0 0 24 24" fill="none" xmlns="http://www.w3.org/2000/svg">
<path fill-rule="evenodd" clip-rule="evenodd" d="M21 21C21.4142 21 21.75 21.3358 21.75 21.75C21.75 22.1642 21.4142 22.5 21 22.5H3C2.58579 22.5 2.25 22.1642 2.25 21.75C2.25 21.3358 2.58579 21 3 21H21ZM21 1.5C21.4142 1.5 21.75 1.83579 21.75 2.25C21.75 2.66421 21.4142 3 21 3H3C2.58579 3 2.25 2.66421 2.25 2.25C2.25 1.83579 2.58579 1.5 3 1.5H21Z" fill="black"/>
<path d="M11.25 18.001C11.2497 18.8292 10.5783 19.501 9.75 19.501H6C5.17174 19.501 4.50026 18.8292 4.5 18.001V6C4.5 5.17157 5.17157 4.5 6 4.5L9.75 4.49902C10.5783 4.49902 11.2497 5.17082 11.25 5.99902V18.001Z" fill="black"/>
<path fill-rule="evenodd" clip-rule="evenodd" d="M18.0029 19.501C18.831 19.5007 19.5027 18.829 19.5029 18.001V5.99902C19.5027 5.17098 18.831 4.49929 18.0029 4.49902L14.2529 4.5C13.4245 4.5 12.7529 5.17157 12.7529 6V18.001C12.7532 18.8292 13.4247 19.501 14.2529 19.501H18.0029ZM14.2529 6V18.001H18.0029V5.99902L14.2529 6Z" fill="black"/>
</svg>
