<svg viewBox="0 0 24 24" fill="none" xmlns="http://www.w3.org/2000/svg" width="24" height="24">
<path d="M9.962 18.113V8.825H7.563V18.113H9.962Z" fill="black"/>
<path fill-rule="evenodd" clip-rule="evenodd" d="M20.82 21.72C21.317 21.72 21.72 21.317 21.72 20.82V3.18C21.72 2.683 21.317 2.28 20.82 2.28H3.18C2.683 2.28 2.28 2.683 2.28 3.18V20.82C2.28 21.317 2.683 21.72 3.18 21.72H20.82ZM5.685 5.888C5.238 5.888 4.876 5.525 4.876 5.078 4.876 4.631 5.238 4.269 5.685 4.269H18.316C18.763 4.269 19.126 4.631 19.126 5.078 19.125 5.525 18.763 5.888 18.316 5.888H5.685ZM14.205 16.069C13.653 16.069 13.207 15.622 13.206 15.071V8.18C13.207 7.629 13.653 7.182 14.205 7.182H17.076C17.628 7.182 18.074 7.629 18.074 8.18V15.071C18.074 15.622 17.627 16.069 17.076 16.069H14.205ZM7.327 19.733C6.563 19.733 5.943 19.113 5.943 18.349V8.589C5.943 7.825 6.563 7.205 7.327 7.205H10.197C10.961 7.206 11.581 7.825 11.581 8.589V18.349C11.581 19.113 10.961 19.732 10.197 19.733H7.327Z" fill="black"/>
</svg>