<svg viewBox="0 0 24 24" fill="none" xmlns="http://www.w3.org/2000/svg" width="24" height="24">
<g clip-path="url(#clip0_831_307)">
<path d="M11.575 14.237V16.635H6.495V14.237H11.575Z" fill="black"/>
<path d="M11.549 9.762H8.192V7.363H11.549V9.762Z" fill="black"/>
<path fill-rule="evenodd" clip-rule="evenodd" d="M20.82 2.28C21.317 2.28 21.72 2.683 21.72 3.18V20.82C21.72 21.317 21.317 21.72 20.82 21.72H3.18C2.683 21.72 2.28 21.317 2.28 20.82V3.18C2.28 2.683 2.683 2.28 3.18 2.28H20.82ZM11.999 4.109C11.552 4.109 11.19 4.472 11.19 4.919V5.744H7.956C7.192 5.744 6.573 6.364 6.572 7.128V9.998C6.572 10.762 7.192 11.382 7.956 11.382H11.166V12.617H6.26C5.495 12.617 4.876 13.237 4.876 14.001V16.871C4.876 17.635 5.495 18.255 6.26 18.255H11.19V19.081C11.19 19.528 11.552 19.891 11.999 19.891 12.447 19.891 12.809 19.528 12.809 19.081V18.255H17.742C18.506 18.254 19.125 17.635 19.126 16.871V14.001C19.125 13.237 18.505 12.618 17.742 12.617H12.786V11.382H15.993C16.758 11.382 17.377 10.762 17.377 9.998V7.128C17.377 6.364 16.757 5.744 15.993 5.744H12.809V4.919C12.809 4.472 12.447 4.109 11.999 4.109Z" fill="black"/>
</g>
<defs>
<clipPath id="clip0_831_307">
<rect width="24" height="24" fill="white"/>
</clipPath>
</defs>
</svg>