<svg viewBox="0 0 24 24" fill="none" xmlns="http://www.w3.org/2000/svg" width="24" height="24">
<path d="M20.82 2.28C21.317 2.28 21.72 2.683 21.72 3.18V20.82C21.72 21.317 21.317 21.72 20.82 21.72H3.18C2.683 21.72 2.28 21.317 2.28 20.82V3.18C2.28 2.683 2.683 2.28 3.18 2.28H20.82ZM6.732 17.874C6.285 17.874 5.922 18.237 5.922 18.684 5.922 19.131 6.285 19.493 6.732 19.494H17.267C17.714 19.494 18.078 19.131 18.078 18.684 18.078 18.236 17.714 17.874 17.267 17.874H6.732ZM4.757 14.581C4.31 14.581 3.948 14.943 3.947 15.391 3.947 15.838 4.31 16.201 4.757 16.201H19.244C19.691 16.2 20.054 15.838 20.054 15.391 20.054 14.944 19.691 14.581 19.244 14.581H4.757ZM6.732 11.288C6.285 11.288 5.922 11.651 5.922 12.098 5.922 12.545 6.285 12.907 6.732 12.908H17.267C17.714 12.908 18.078 12.545 18.078 12.098 18.078 11.651 17.714 11.288 17.267 11.288H6.732Z" fill="black"/>
</svg>