<svg width="24" height="24" viewBox="0 0 24 24" fill="none" xmlns="http://www.w3.org/2000/svg">
<path d="M21.7489 14.2504V18.0004C21.7489 18.3982 21.5908 18.7797 21.3095 19.061C21.0282 19.3423 20.6467 19.5004 20.2489 19.5004H7.49899C7.10117 19.5004 6.71964 19.3423 6.43834 19.061C6.15703 18.7797 5.999 18.3982 5.999 18.0004V14.2504C5.999 13.8526 6.15703 13.4711 6.43834 13.1898C6.71964 12.9084 7.10117 12.7504 7.49899 12.7504H20.2489C20.6467 12.7504 21.0282 12.9084 21.3095 13.1898C21.5908 13.4711 21.7489 13.8526 21.7489 14.2504ZM3.74902 3.00049C3.55011 3.00049 3.35934 3.07951 3.21869 3.22016C3.07804 3.36081 2.99902 3.55157 2.99902 3.75048V20.2504C2.99902 20.4493 3.07804 20.64 3.21869 20.7807C3.35934 20.9213 3.55011 21.0004 3.74902 21.0004C3.94793 21.0004 4.13869 20.9213 4.27934 20.7807C4.41999 20.64 4.49901 20.4493 4.49901 20.2504V3.75048C4.49901 3.55157 4.41999 3.36081 4.27934 3.22016C4.13869 3.07951 3.94793 3.00049 3.74902 3.00049ZM7.49899 11.2504H16.4989C16.8967 11.2504 17.2783 11.0924 17.5596 10.8111C17.8409 10.5298 17.9989 10.1483 17.9989 9.75044V6.00047C17.9989 5.60264 17.8409 5.22112 17.5596 4.93981C17.2783 4.65851 16.8967 4.50048 16.4989 4.50048H7.49899C7.10117 4.50048 6.71964 4.65851 6.43834 4.93981C6.15703 5.22112 5.999 5.60264 5.999 6.00047V9.75044C5.999 10.1483 6.15703 10.5298 6.43834 10.8111C6.71964 11.0924 7.10117 11.2504 7.49899 11.2504Z" fill="black"/>
</svg>
