<svg xmlns="http://www.w3.org/2000/svg" width="24" height="24" fill="currentColor" viewBox="0 0 24 24"><path d="M21.72 13.62c0 3.859-2.802 4.624-5.052 5.237-2.464 0.672-3.858 1.174-3.858 3.673a0.81 0.81 0 0 1-1.62 0c0-2.5-1.394-3.001-3.858-3.673-2.251-0.613-5.052-1.378-5.052-5.237a0.81 0.81 0 0 1 1.62 0c0 2.5 1.394 3.001 3.858 3.673 1.151 0.314 2.442 0.668 3.432 1.452V12h-3.24a0.81 0.81 0 0 1 0-1.62h3.24V7.427a2.836 2.836 0 1 1 1.62 0v2.953h3.24a0.81 0.81 0 0 1 0 1.62h-3.24v6.745c0.99-0.784 2.282-1.138 3.432-1.452 2.464-0.672 3.858-1.174 3.858-3.673a0.81 0.81 0 0 1 1.62 0"/></svg>