<svg viewBox="0 0 24 24" fill="none" xmlns="http://www.w3.org/2000/svg" width="24" height="24">
<g clip-path="url(#clip0_1013_668)">
<path d="M0.236 11.103L10.054 21.881C10.777 22.675 11.786 23.15 12.859 23.2 13.932 23.25 14.981 22.871 15.775 22.148L21.165 17.239C21.641 16.805 21.925 16.2 21.955 15.556 21.985 14.912 21.759 14.283 21.325 13.806L18.052 10.213 22.083 7.622C22.121 7.597 22.157 7.57 22.19 7.539 22.825 6.961 23.205 6.153 23.245 5.295 23.285 4.437 22.982 3.598 22.404 2.962 21.825 2.327 21.018 1.948 20.159 1.908 19.301 1.868 18.462 2.17 17.827 2.749 17.793 2.779 17.763 2.812 17.735 2.848L14.779 6.62 11.506 3.028C11.072 2.551 10.467 2.267 9.823 2.237 9.179 2.207 8.55 2.433 8.074 2.867L0.289 9.958C0.13 10.103 0.035 10.305 0.025 10.519 0.015 10.734 0.091 10.944 0.236 11.103ZM11.251 20.79L4.161 13.006 7.155 10.278C7.313 10.134 7.408 9.932 7.418 9.717 7.428 9.503 7.353 9.293 7.208 9.134 7.063 8.975 6.861 8.881 6.647 8.871 6.432 8.861 6.223 8.936 6.064 9.081L3.07 11.808 1.979 10.611 7.368 5.701 18.277 17.678 14.684 20.95C14.208 21.384 13.578 21.611 12.935 21.581 12.291 21.551 11.685 21.267 11.251 20.79Z" fill="black"/>
</g>
<defs>
<clipPath id="clip0_1013_668">
<rect width="24" height="24" fill="white"/>
</clipPath>
</defs>
</svg>