<svg xmlns="http://www.w3.org/2000/svg" width="24" height="24" fill="currentColor" viewBox="0 0 24 24"><path d="M20.1 2.28H3.9A1.62 1.62 0 0 0 2.28 3.9v16.2a1.62 1.62 0 0 0 1.62 1.62h16.2a1.62 1.62 0 0 0 1.62-1.62V3.9a1.62 1.62 0 0 0-1.62-1.62M9.57 19.29h-3.24a1.62 1.62 0 0 1-1.62-1.62v-3.24a0.81 0.81 0 0 1 1.62 0v3.24h3.24a0.81 0.81 0 0 1 0 1.62m0-12.96h-3.24v3.24a0.81 0.81 0 0 1-1.62 0v-3.24a1.62 1.62 0 0 1 1.62-1.62h3.24a0.81 0.81 0 0 1 0 1.62m9.72 11.34a1.62 1.62 0 0 1-1.62 1.62h-3.24a0.81 0.81 0 0 1 0-1.62h3.24v-3.24a0.81 0.81 0 0 1 1.62 0z m0-8.1a0.81 0.81 0 0 1-1.62 0v-3.24h-3.24a0.81 0.81 0 0 1 0-1.62h3.24a1.62 1.62 0 0 1 1.62 1.62z"/></svg>