<svg width="24" height="24" viewBox="0 0 24 24" fill="none" xmlns="http://www.w3.org/2000/svg">
<path d="M11.1918 16.2124C11.2487 16.3494 11.2636 16.5002 11.2347 16.6457C11.2059 16.7913 11.1345 16.9249 11.0296 17.0299L8.02966 20.0299C7.96 20.0996 7.87729 20.1549 7.78624 20.1927C7.69519 20.2304 7.5976 20.2498 7.49904 20.2498C7.40048 20.2498 7.30288 20.2304 7.21183 20.1927C7.12079 20.1549 7.03807 20.0996 6.96841 20.0299L3.96844 17.0299C3.86343 16.925 3.79191 16.7913 3.76292 16.6458C3.73393 16.5002 3.74878 16.3493 3.8056 16.2122C3.86241 16.0751 3.95863 15.9579 4.08208 15.8755C4.20552 15.7931 4.35064 15.7492 4.49906 15.7493H6.74904V4.49936C6.74904 4.30045 6.82806 4.10969 6.96871 3.96904C7.10936 3.82839 7.30013 3.74937 7.49904 3.74937C7.69795 3.74937 7.88871 3.82839 8.02936 3.96904C8.17001 4.10969 8.24903 4.30045 8.24903 4.49936V15.7493H10.499C10.6473 15.7493 10.7923 15.7933 10.9157 15.8758C11.039 15.9582 11.1351 16.0753 11.1918 16.2124ZM20.0296 6.96872L17.0296 3.96874C16.9599 3.89901 16.8772 3.84369 16.7862 3.80595C16.6951 3.76821 16.5975 3.74878 16.499 3.74878C16.4004 3.74878 16.3028 3.76821 16.2118 3.80595C16.1207 3.84369 16.038 3.89901 15.9683 3.96874L12.9684 6.96872C12.8634 7.07361 12.7918 7.2073 12.7628 7.35286C12.7339 7.49842 12.7487 7.64932 12.8055 7.78643C12.8623 7.92355 12.9586 8.04072 13.082 8.12313C13.2055 8.20553 13.3506 8.24945 13.499 8.24933H15.749V19.4992C15.749 19.6982 15.828 19.8889 15.9686 20.0296C16.1093 20.1702 16.3001 20.2492 16.499 20.2492C16.6979 20.2492 16.8886 20.1702 17.0293 20.0296C17.1699 19.8889 17.249 19.6982 17.249 19.4992V8.24933H19.4989C19.6474 8.24945 19.7925 8.20553 19.9159 8.12313C20.0394 8.04072 20.1356 7.92355 20.1924 7.78643C20.2492 7.64932 20.2641 7.49842 20.2351 7.35286C20.2061 7.2073 20.1346 7.07361 20.0296 6.96872Z" fill="black"/>
</svg>
