<?xml version="1.0" encoding="utf-8"?>
<svg width="512" height="512" viewBox="0 0 512 512" xmlns="http://www.w3.org/2000/svg">
    <path   d="M336 192C327.163 192 320 184.837 320 176C320 167.163 327.164 160 336.001 160H392.527C352.582 123.61 309.395 96 256 96C167.634 96 95.9999 167.634 95.9999 256C95.9999 344.366 167.634 416 256 416C339.535 416 408.724 352.014 416.064 270.564C416.857 261.764 424.635 255.272 433.435 256.064C442.236 256.858 448.728 264.635 447.935 273.436C439.108 371.393 356.082 448 256 448C149.961 448 63.9999 362.039 63.9999 256C63.9999 149.961 149.961 64 256 64C321.891 64 373.241 98.7163 416 138.075V80.001C416 71.1644 423.163 64 432 64C440.836 64 448 71.1644 448 80.001V176C448 184.837 440.836 192 432 192H336Z" />
</svg>
