<svg width="24" height="24" viewBox="0 0 24 24" fill="none" xmlns="http://www.w3.org/2000/svg">
<path d="M21.5295 17.7842L18.5295 20.7841C18.4599 20.8539 18.3772 20.9092 18.2861 20.9469C18.1951 20.9847 18.0975 21.0041 17.9989 21.0041C17.9004 21.0041 17.8028 20.9847 17.7117 20.9469C17.6207 20.9092 17.5379 20.8539 17.4683 20.7841L14.4683 17.7842C14.3633 17.6793 14.2918 17.5456 14.2628 17.4C14.2338 17.2545 14.2487 17.1036 14.3055 16.9665C14.3623 16.8293 14.4585 16.7122 14.582 16.6298C14.7054 16.5474 14.8505 16.5034 14.9989 16.5035H17.2489V13.0639L11.999 7.81393L6.749 13.0639V16.5035H8.99898C9.1474 16.5034 9.29252 16.5474 9.41597 16.6298C9.53941 16.7122 9.63563 16.8293 9.69244 16.9665C9.74926 17.1036 9.76411 17.2545 9.73512 17.4C9.70614 17.5456 9.63461 17.6793 9.5296 17.7842L6.52963 20.7841C6.45997 20.8539 6.37726 20.9092 6.28621 20.9469C6.19516 20.9847 6.09757 21.0041 5.99901 21.0041C5.90044 21.0041 5.80285 20.9847 5.7118 20.9469C5.62075 20.9092 5.53804 20.8539 5.46838 20.7841L2.46841 17.7842C2.3634 17.6793 2.29187 17.5456 2.26289 17.4C2.2339 17.2545 2.24875 17.1036 2.30557 16.9665C2.36238 16.8293 2.4586 16.7122 2.58205 16.6298C2.70549 16.5474 2.85061 16.5034 2.99903 16.5035H5.24901V12.7536C5.24893 12.6551 5.26827 12.5575 5.30591 12.4664C5.34355 12.3754 5.39876 12.2927 5.46838 12.223L11.249 6.44331V2.25366C11.249 2.05475 11.328 1.86398 11.4686 1.72333C11.6093 1.58268 11.8 1.50366 11.999 1.50366C12.1979 1.50366 12.3886 1.58268 12.5293 1.72333C12.6699 1.86398 12.749 2.05475 12.749 2.25366V6.44331L18.5295 12.223C18.5992 12.2927 18.6544 12.3754 18.692 12.4664C18.7297 12.5575 18.749 12.6551 18.7489 12.7536V16.5035H20.9989C21.1473 16.5034 21.2924 16.5474 21.4159 16.6298C21.5393 16.7122 21.6355 16.8293 21.6924 16.9665C21.7492 17.1036 21.764 17.2545 21.735 17.4C21.706 17.5456 21.6345 17.6793 21.5295 17.7842Z" fill="black"/>
</svg>
