<svg width="24" height="24" viewBox="0 0 24 24" fill="none" xmlns="http://www.w3.org/2000/svg">
<path d="M18.749 6.00024V15.7502C18.7491 15.8986 18.7052 16.0437 18.6228 16.1671C18.5404 16.2906 18.4232 16.3868 18.2861 16.4436C18.149 16.5004 17.9981 16.5153 17.8525 16.4863C17.7069 16.4573 17.5732 16.3858 17.4684 16.2808L13.124 11.9355L6.52969 18.5308C6.38896 18.6715 6.19809 18.7506 5.99907 18.7506C5.80005 18.7506 5.60918 18.6715 5.46845 18.5308C5.32772 18.39 5.24866 18.1992 5.24866 18.0001C5.24866 17.8011 5.32772 17.6103 5.46845 17.4695L12.0637 10.8752L7.71843 6.53086C7.61342 6.42597 7.5419 6.29228 7.51291 6.14672C7.48392 6.00116 7.49878 5.85026 7.55559 5.71315C7.6124 5.57603 7.70862 5.45886 7.83207 5.37645C7.95551 5.29405 8.10063 5.25013 8.24905 5.25024H17.999C18.1979 5.25024 18.3887 5.32926 18.5293 5.46991C18.67 5.61056 18.749 5.80133 18.749 6.00024Z" fill="black"/>
</svg>
