<svg width="24" height="24" viewBox="0 0 24 24" fill="none" xmlns="http://www.w3.org/2000/svg">
<path d="M20.9989 12.0037C20.9991 14.3699 20.0675 16.6409 18.4058 18.3253C16.744 20.0096 14.4858 20.9719 12.1199 21.0037H11.999C9.70045 21.0094 7.48801 20.1298 5.82088 18.5474C5.74929 18.4797 5.69174 18.3986 5.65151 18.3086C5.61128 18.2187 5.58916 18.1217 5.58642 18.0232C5.58368 17.9247 5.60036 17.8266 5.63552 17.7345C5.67069 17.6425 5.72363 17.5582 5.79135 17.4867C5.85906 17.4151 5.94021 17.3575 6.03016 17.3173C6.12012 17.2771 6.21712 17.2549 6.31562 17.2522C6.41412 17.2495 6.5122 17.2661 6.60425 17.3013C6.6963 17.3365 6.78053 17.3894 6.85212 17.4571C7.92442 18.4684 9.27093 19.1413 10.7234 19.3917C12.1759 19.6422 13.67 19.4591 15.0191 18.8653C16.3681 18.2716 17.5123 17.2935 18.3087 16.0532C19.1051 14.8129 19.5184 13.3655 19.497 11.8917C19.4755 10.418 19.0203 8.98316 18.1882 7.7666C17.356 6.55003 16.1839 5.60563 14.8181 5.05137C13.4523 4.49711 11.9535 4.35757 10.5089 4.65017C9.06435 4.94277 7.73799 5.65455 6.69556 6.69658C6.6879 6.70486 6.67976 6.71269 6.67118 6.72002L5.68307 7.6247L7.2768 9.21844C7.38326 9.3229 7.45616 9.45674 7.48617 9.60284C7.51618 9.74894 7.50195 9.90067 7.44529 10.0386C7.38863 10.1766 7.29212 10.2946 7.16809 10.3774C7.04406 10.4603 6.89815 10.5042 6.749 10.5037H2.24903C2.05012 10.5037 1.85936 10.4247 1.7187 10.2841C1.57805 10.1434 1.49904 9.95266 1.49904 9.75374V5.25378C1.49817 5.10504 1.54156 4.9594 1.62367 4.83538C1.70579 4.71136 1.82293 4.61455 1.9602 4.55727C2.09747 4.49999 2.24867 4.48482 2.39459 4.51369C2.5405 4.54256 2.67454 4.61417 2.77965 4.71941L4.62182 6.56627L5.64744 5.62878C6.90741 4.3737 8.51098 3.52004 10.2557 3.17557C12.0004 2.8311 13.8081 3.01126 15.4506 3.69331C17.093 4.37536 18.4965 5.52871 19.484 7.00778C20.4715 8.48684 20.9986 10.2253 20.9989 12.0037Z" fill="black"/>
</svg>
