<?xml version="1.0" encoding="utf-8"?>
<svg width="512" height="512" viewBox="0 0 512 512" xmlns="http://www.w3.org/2000/svg">
    <path   d="M240 80V390.445L139.868 279.689C133.942 273.135 123.824 272.625 117.269 278.551C110.715 284.477 110.206 294.595 116.132 301.149L244.132 442.73L244.42 443.04C247.435 446.203 251.618 448 256 448C260.523 448 264.835 446.086 267.868 442.73L395.868 301.149C401.794 294.595 401.285 284.477 394.73 278.551C388.176 272.625 378.058 273.135 372.132 279.689L272 390.445V80C272 71.1635 264.836 64 256 64C247.163 64 240 71.1635 240 80Z" />
</svg>
