<svg width="24" height="24" viewBox="0 0 24 24" fill="none" xmlns="http://www.w3.org/2000/svg">
<path d="M18.7489 3.00317V16.5031C18.7489 16.702 18.6699 16.8927 18.5293 17.0334C18.3886 17.174 18.1979 17.2531 17.999 17.2531H9.74902V21.003C9.74914 21.1515 9.70521 21.2966 9.62281 21.42C9.54041 21.5435 9.42323 21.6397 9.28611 21.6965C9.149 21.7533 8.99811 21.7682 8.85255 21.7392C8.70698 21.7102 8.57329 21.6387 8.4684 21.5337L3.96844 17.0337C3.89871 16.964 3.84339 16.8813 3.80564 16.7903C3.7679 16.6992 3.74847 16.6016 3.74847 16.5031C3.74847 16.4045 3.7679 16.3069 3.80564 16.2159C3.84339 16.1248 3.89871 16.0421 3.96844 15.9724L8.4684 11.4725C8.57329 11.3675 8.70698 11.2959 8.85255 11.267C8.99811 11.238 9.149 11.2528 9.28611 11.3096C9.42323 11.3665 9.54041 11.4627 9.62281 11.5861C9.70521 11.7096 9.74914 11.8547 9.74902 12.0031V15.7531H17.249V3.00317C17.249 2.80426 17.328 2.61349 17.4686 2.47284C17.6093 2.33219 17.8 2.25317 17.999 2.25317C18.1979 2.25317 18.3886 2.33219 18.5293 2.47284C18.6699 2.61349 18.7489 2.80426 18.7489 3.00317Z" fill="black"/>
</svg>
