<svg width="24" height="24" viewBox="0 0 24 24" fill="none" xmlns="http://www.w3.org/2000/svg">
<path d="M8.24895 9.74633H3.74899C3.55008 9.74633 3.35931 9.66731 3.21866 9.52666C3.07801 9.38601 2.99899 9.19524 2.99899 8.99633V4.49637C2.99888 4.34795 3.0428 4.20283 3.1252 4.07938C3.2076 3.95594 3.32478 3.85972 3.4619 3.80291C3.59901 3.74609 3.7499 3.73124 3.89547 3.76023C4.04103 3.78921 4.17472 3.86074 4.27961 3.96575L5.99897 5.68698C7.66039 4.08355 9.87746 3.18462 12.1864 3.17825H12.2361C14.5874 3.17219 16.8464 4.09272 18.5239 5.74042C18.6608 5.88054 18.7375 6.06869 18.7375 6.26463C18.7375 6.46057 18.6609 6.64874 18.5239 6.78887C18.387 6.929 18.2006 7.00998 18.0047 7.01447C17.8089 7.01896 17.619 6.94662 17.4758 6.81291C16.0776 5.44049 14.1953 4.67365 12.2361 4.67824H12.1939C10.2816 4.68365 8.44457 5.42411 7.06302 6.74635L8.77957 8.46571C8.88458 8.5706 8.95611 8.70429 8.98509 8.84985C9.01408 8.99542 8.99923 9.14631 8.94241 9.28342C8.8856 9.42054 8.78938 9.53772 8.66594 9.62012C8.54249 9.70252 8.39737 9.74644 8.24895 9.74633ZM20.2489 14.2463H15.7489C15.6005 14.2462 15.4554 14.2901 15.3319 14.3725C15.2085 14.4549 15.1122 14.5721 15.0554 14.7092C14.9986 14.8463 14.9838 14.9972 15.0128 15.1428C15.0417 15.2883 15.1133 15.422 15.2183 15.5269L16.9348 17.2463C15.554 18.5693 13.7172 19.3108 11.8049 19.3172H11.7627C9.80348 19.3218 7.92122 18.5549 6.52303 17.1825C6.45317 17.1111 6.36974 17.0543 6.27763 17.0155C6.18552 16.9767 6.08659 16.9568 5.98666 16.9568C5.88672 16.9568 5.7878 16.9768 5.69569 17.0155C5.60359 17.0543 5.52016 17.1111 5.45031 17.1826C5.38046 17.254 5.3256 17.3388 5.28896 17.4317C5.25231 17.5247 5.23461 17.6241 5.2369 17.724C5.23919 17.8239 5.26143 17.9223 5.3023 18.0135C5.34317 18.1047 5.40186 18.1868 5.47491 18.255C7.15234 19.9027 9.41137 20.8232 11.7627 20.8172H11.8114C14.1204 20.8108 16.3375 19.9119 17.9989 18.3084L19.7201 20.0297C19.8253 20.1342 19.9591 20.2052 20.1046 20.2338C20.2501 20.2623 20.4008 20.2471 20.5376 20.19C20.6745 20.1329 20.7913 20.0365 20.8734 19.913C20.9555 19.7896 20.9992 19.6445 20.9989 19.4963V14.9963C20.9989 14.7974 20.9198 14.6066 20.7792 14.466C20.6385 14.3253 20.4478 14.2463 20.2489 14.2463Z" fill="black"/>
</svg>
