<svg xmlns="http://www.w3.org/2000/svg" fill="currentColor" viewBox="0 0 24 24" width="24" height="24"><path d="M22.294 18.244l-3.24 3.24a0.81 0.81 0 0 1-1.146 0l-3.24-3.24a0.81 0.81 0 0 1 0.573-1.384h2.43v-3.715l-5.67-5.67-5.67 5.67v3.715h2.43a0.81 0.81 0 0 1 0.574 1.384l-3.24 3.24a0.81 0.81 0 0 1-1.146 0l-3.24-3.24a0.81 0.81 0 0 1 0.573-1.384h2.43v-4.05a0.816 0.816 0 0 1 0.237-0.574l6.243-6.242V1.469a0.81 0.81 0 0 1 1.62 0v4.525l6.244 6.242a0.816 0.816 0 0 1 0.236 0.574v4.05h2.43a0.81 0.81 0 0 1 0.574 1.384z"/></svg>