<svg width="24" height="24" viewBox="0 0 24 24" fill="none" xmlns="http://www.w3.org/2000/svg">
<path d="M21.5296 18.5301L18.5296 21.5301C18.4247 21.6351 18.291 21.7066 18.1454 21.7356C17.9999 21.7646 17.849 21.7498 17.7119 21.6929C17.5747 21.6361 17.4576 21.5399 17.3752 21.4165C17.2928 21.293 17.2488 21.1479 17.249 20.9995V18.7495H7.49904C7.30013 18.7495 7.10936 18.6705 6.96871 18.5298C6.82806 18.3892 6.74904 18.1984 6.74904 17.9995V7.49958H4.49906C4.35064 7.4997 4.20552 7.45577 4.08208 7.37337C3.95863 7.29097 3.86241 7.17379 3.8056 7.03668C3.74878 6.89956 3.73393 6.74867 3.76292 6.60311C3.79191 6.45754 3.86343 6.32385 3.96844 6.21896L6.96842 3.21899C7.03807 3.14925 7.12079 3.09394 7.21183 3.05619C7.30288 3.01845 7.40048 2.99902 7.49904 2.99902C7.5976 2.99902 7.69519 3.01845 7.78624 3.05619C7.87729 3.09394 7.96 3.14925 8.02966 3.21899L11.0296 6.21896C11.1346 6.32385 11.2062 6.45754 11.2352 6.60311C11.2641 6.74867 11.2493 6.89956 11.1925 7.03668C11.1357 7.17379 11.0394 7.29097 10.916 7.37337C10.7926 7.45577 10.6474 7.4997 10.499 7.49958H8.24903V17.2495H17.249V14.9995C17.2488 14.8511 17.2928 14.706 17.3752 14.5825C17.4576 14.4591 17.5747 14.3629 17.7119 14.3061C17.849 14.2492 17.9999 14.2344 18.1454 14.2634C18.291 14.2924 18.4247 14.3639 18.5296 14.4689L21.5296 17.4689C21.5993 17.5385 21.6546 17.6212 21.6923 17.7123C21.7301 17.8033 21.7495 17.9009 21.7495 17.9995C21.7495 18.0981 21.7301 18.1957 21.6923 18.2867C21.6546 18.3777 21.5993 18.4605 21.5296 18.5301Z" fill="black"/>
</svg>
