<svg width="24" height="24" viewBox="0 0 24 24" fill="none" xmlns="http://www.w3.org/2000/svg">
<path d="M15.6918 18.4655C15.7486 18.6026 15.7635 18.7534 15.7347 18.8989C15.7058 19.0444 15.6344 19.1781 15.5296 19.283L12.5296 22.283C12.4599 22.3527 12.3772 22.4081 12.2862 22.4458C12.1951 22.4835 12.0975 22.503 11.999 22.503C11.9004 22.503 11.8028 22.4835 11.7118 22.4458C11.6207 22.4081 11.538 22.3527 11.4684 22.283L8.46838 19.283C8.36337 19.1781 8.29184 19.0445 8.26286 18.8989C8.23387 18.7533 8.24872 18.6024 8.30554 18.4653C8.36235 18.3282 8.45857 18.211 8.58201 18.1286C8.70546 18.0462 8.85058 18.0023 8.999 18.0024H11.249V6.00251H8.999C8.85058 6.00263 8.70546 5.9587 8.58201 5.8763C8.45857 5.7939 8.36235 5.67672 8.30554 5.53961C8.24872 5.40249 8.23387 5.2516 8.26286 5.10604C8.29184 4.96047 8.36337 4.82678 8.46838 4.72189L11.4684 1.72192C11.538 1.65218 11.6207 1.59687 11.7118 1.55912C11.8028 1.52138 11.9004 1.50195 11.999 1.50195C12.0975 1.50195 12.1951 1.52138 12.2862 1.55912C12.3772 1.59687 12.4599 1.65218 12.5296 1.72192L15.5296 4.72189C15.6346 4.82678 15.7061 4.96047 15.7351 5.10604C15.7641 5.2516 15.7492 5.40249 15.6924 5.53961C15.6356 5.67672 15.5394 5.7939 15.4159 5.8763C15.2925 5.9587 15.1474 6.00263 14.999 6.00251H12.749V18.0024H14.999C15.1473 18.0024 15.2923 18.0465 15.4156 18.1289C15.5389 18.2113 15.635 18.3285 15.6918 18.4655Z" fill="black"/>
</svg>
