<svg xmlns="http://www.w3.org/2000/svg" fill="currentColor" viewBox="0 0 24 24" width="24" height="24"><path d="M7.95 9.57h-4.86A0.81 0.81 0 0 1 2.28 8.76V3.9a0.81 0.81 0 0 1 1.384-0.574L5.52 5.185a9.66 9.66 0 0 1 6.683-2.709h0.054a9.66 9.66 0 0 1 6.791 2.767 0.81 0.81 0 0 1-1.132 1.158 8.04 8.04 0 0 0-5.659-2.305h-0.046a8.04 8.04 0 0 0-5.541 2.233l1.854 1.856a0.81 0.81 0 0 1-0.574 1.384z m12.96 4.86h-4.86a0.81 0.81 0 0 0-0.574 1.384l1.854 1.856a8.04 8.04 0 0 1-5.54 2.237h-0.046a8.04 8.04 0 0 1-5.659-2.305 0.81 0.81 0 1 0-1.131 1.158 9.66 9.66 0 0 0 6.79 2.767h0.053a9.66 9.66 0 0 0 6.683-2.71l1.859 1.859a0.81 0.81 0 0 0 1.381-0.576V15.24a0.81 0.81 0 0 0-0.81-0.81"/></svg>