<svg width="24" height="24" viewBox="0 0 24 24" fill="none" xmlns="http://www.w3.org/2000/svg">
<path d="M22.4989 5.25378V9.75374C22.4989 9.95265 22.4199 10.1434 22.2792 10.2841C22.1386 10.4247 21.9478 10.5037 21.7489 10.5037H17.2489C17.1005 10.5039 16.9554 10.4599 16.8319 10.3775C16.7085 10.2951 16.6123 10.178 16.5555 10.0408C16.4986 9.90372 16.4838 9.75283 16.5128 9.60726C16.5418 9.4617 16.6133 9.32801 16.7183 9.22312L18.312 7.62938L17.323 6.7247L17.2995 6.7022C16.2571 5.66017 14.9308 4.9484 13.4862 4.65579C12.0416 4.36319 10.5428 4.50274 9.17701 5.057C7.81125 5.61126 6.63909 6.55566 5.80695 7.77222C4.97481 8.98879 4.51958 10.4236 4.49814 11.8974C4.4767 13.3711 4.88999 14.8186 5.68638 16.0588C6.48278 17.2991 7.62697 18.2772 8.97602 18.8709C10.3251 19.4647 11.8192 19.6478 13.2717 19.3973C14.7242 19.1469 16.0707 18.474 17.143 17.4627C17.2876 17.326 17.4806 17.2523 17.6795 17.2578C17.8784 17.2634 18.067 17.3477 18.2038 17.4923C18.3405 17.6369 18.4142 17.8298 18.4087 18.0288C18.4031 18.2277 18.3188 18.4163 18.1742 18.5531C16.5066 20.1322 14.2956 21.0096 11.999 21.0037H11.8752C10.4012 20.9835 8.95477 20.6015 7.66296 19.8914C6.37116 19.1813 5.27356 18.1647 4.46664 16.9311C3.65971 15.6974 3.16817 14.2844 3.03522 12.8163C2.90226 11.3482 3.13196 9.86989 3.70413 8.51134C4.27629 7.15279 5.17341 5.95558 6.31662 5.02493C7.45984 4.09429 8.81415 3.4587 10.2605 3.17404C11.7069 2.88938 13.2011 2.96435 14.6117 3.39237C16.0223 3.8204 17.3062 4.58836 18.3505 5.62878L19.3752 6.56627L21.2183 4.71941C21.3234 4.61417 21.4574 4.54256 21.6033 4.51369C21.7492 4.48482 21.9004 4.49999 22.0377 4.55727C22.175 4.61455 22.2921 4.71136 22.3742 4.83538C22.4564 4.9594 22.4997 5.10504 22.4989 5.25378Z" fill="black"/>
</svg>
