<svg width="24" height="24" viewBox="0 0 24 24" fill="none" xmlns="http://www.w3.org/2000/svg">
<path d="M20.9989 4.5028V9.00277C20.9989 9.20168 20.9198 9.39244 20.7792 9.53309C20.6385 9.67375 20.4478 9.75276 20.2489 9.75276H15.7489C15.6005 9.75288 15.4554 9.70896 15.3319 9.62655C15.2085 9.54415 15.1122 9.42698 15.0554 9.28986C14.9986 9.15274 14.9838 9.00185 15.0128 8.85629C15.0417 8.71073 15.1133 8.57704 15.2183 8.47215L16.9348 6.75279C15.554 5.42974 13.7172 4.68828 11.8049 4.68186H11.7627C9.80308 4.67802 7.92077 5.4459 6.52303 6.81935C6.3798 6.95305 6.18993 7.0254 5.99404 7.02091C5.79816 7.01641 5.6118 6.93544 5.47486 6.7953C5.33791 6.65517 5.26124 6.46701 5.26125 6.27107C5.26126 6.07513 5.33795 5.88697 5.47491 5.74686C7.14682 4.11335 9.38866 3.19438 11.7261 3.18441C14.0635 3.17443 16.3131 4.07424 17.9989 5.69342L19.7201 3.97218C19.8251 3.86782 19.9586 3.79685 20.1039 3.76824C20.2491 3.73962 20.3996 3.75462 20.5363 3.81136C20.673 3.8681 20.7899 3.96403 20.8722 4.08707C20.9545 4.21012 20.9986 4.35477 20.9989 4.5028ZM17.4748 17.1861C16.0856 18.543 14.2242 19.3081 12.2824 19.3206C10.3405 19.333 8.46948 18.5917 7.06302 17.2527L8.77957 15.5362C8.88555 15.4314 8.95793 15.2975 8.98748 15.1514C9.01703 15.0054 9.00241 14.8539 8.94548 14.7162C8.88855 14.5785 8.79189 14.4608 8.66784 14.3783C8.54378 14.2958 8.39795 14.252 8.24895 14.2527H3.74899C3.55008 14.2527 3.35931 14.3317 3.21866 14.4724C3.07801 14.613 2.99899 14.8038 2.99899 15.0027V19.5027C2.99888 19.6511 3.0428 19.7962 3.1252 19.9197C3.2076 20.0431 3.32478 20.1393 3.4619 20.1961C3.59901 20.253 3.7499 20.2678 3.89547 20.2388C4.04103 20.2098 4.17472 20.1383 4.27961 20.0333L5.99897 18.3121C7.66039 19.9155 9.87746 20.8144 12.1864 20.8208H12.2361C14.5874 20.8269 16.8464 19.9063 18.5239 18.2586C18.6608 18.1185 18.7375 17.9304 18.7375 17.7344C18.7375 17.5385 18.6609 17.3503 18.5239 17.2102C18.387 17.0701 18.2006 16.9891 18.0047 16.9846C17.8089 16.9801 17.619 17.0524 17.4758 17.1861H17.4748Z" fill="black"/>
</svg>
