<svg width="24" height="24" viewBox="0 0 24 24" fill="none" xmlns="http://www.w3.org/2000/svg">
<path d="M19.2795 14.0276L12.5296 20.7776C12.4599 20.8473 12.3772 20.9026 12.2861 20.9404C12.1951 20.9781 12.0975 20.9975 11.9989 20.9975C11.9004 20.9975 11.8028 20.9781 11.7117 20.9404C11.6207 20.9026 11.538 20.8473 11.4683 20.7776L4.71838 14.0276C4.61337 13.9227 4.54184 13.789 4.51286 13.6435C4.48387 13.4979 4.49872 13.347 4.55554 13.2099C4.61235 13.0728 4.70857 12.9556 4.83201 12.8732C4.95546 12.7908 5.10058 12.7469 5.249 12.747H11.249V3.74706C11.249 3.54815 11.328 3.35739 11.4686 3.21674C11.6093 3.07609 11.8 2.99707 11.9989 2.99707C12.1979 2.99707 12.3886 3.07609 12.5293 3.21674C12.6699 3.35739 12.7489 3.54815 12.7489 3.74706V12.747H18.7489C18.8973 12.7469 19.0424 12.7908 19.1659 12.8732C19.2893 12.9556 19.3855 13.0728 19.4424 13.2099C19.4992 13.347 19.514 13.4979 19.485 13.6435C19.456 13.789 19.3845 13.9227 19.2795 14.0276Z" fill="black"/>
</svg>
