<svg width="24" height="24" viewBox="0 0 24 24" fill="none" xmlns="http://www.w3.org/2000/svg">
<path d="M8.30626 5.53988C8.24941 5.40285 8.23448 5.25204 8.26335 5.10653C8.29222 4.96101 8.36359 4.82733 8.46845 4.72238L11.4684 1.7224C11.5381 1.65267 11.6208 1.59735 11.7118 1.55961C11.8029 1.52187 11.9005 1.50244 11.999 1.50244C12.0976 1.50244 12.1952 1.52187 12.2862 1.55961C12.3773 1.59735 12.46 1.65267 12.5297 1.7224L15.5296 4.72238C15.6347 4.82727 15.7062 4.96096 15.7352 5.10652C15.7642 5.25209 15.7493 5.40298 15.6925 5.54009C15.6357 5.67721 15.5394 5.79439 15.416 5.87679C15.2926 5.95919 15.1474 6.00311 14.999 6.003H12.749V9.00297C12.749 9.20189 12.67 9.39265 12.5294 9.5333C12.3887 9.67395 12.198 9.75297 11.999 9.75297C11.8001 9.75297 11.6094 9.67395 11.4687 9.5333C11.3281 9.39265 11.2491 9.20189 11.2491 9.00297V6.003H8.99907C8.85073 6.00297 8.70574 5.95895 8.58242 5.87652C8.4591 5.79408 8.363 5.67693 8.30626 5.53988ZM14.999 18.0029H12.749V15.0029C12.749 14.804 12.67 14.6133 12.5294 14.4726C12.3887 14.332 12.198 14.2529 11.999 14.2529C11.8001 14.2529 11.6094 14.332 11.4687 14.4726C11.3281 14.6133 11.2491 14.804 11.2491 15.0029V18.0029H8.99907C8.85065 18.0028 8.70553 18.0467 8.58209 18.1291C8.45864 18.2115 8.36242 18.3287 8.30561 18.4658C8.24879 18.6029 8.23394 18.7538 8.26293 18.8994C8.29191 19.0449 8.36344 19.1786 8.46845 19.2835L11.4684 22.2835C11.5381 22.3532 11.6208 22.4085 11.7118 22.4463C11.8029 22.484 11.9005 22.5035 11.999 22.5035C12.0976 22.5035 12.1952 22.484 12.2862 22.4463C12.3773 22.4085 12.46 22.3532 12.5297 22.2835L15.5296 19.2835C15.6347 19.1786 15.7062 19.0449 15.7352 18.8994C15.7642 18.7538 15.7493 18.6029 15.6925 18.4658C15.6357 18.3287 15.5394 18.2115 15.416 18.1291C15.2926 18.0467 15.1474 18.0028 14.999 18.0029ZM22.2796 11.4723L19.2796 8.47235C19.1747 8.36735 19.041 8.29582 18.8955 8.26683C18.7499 8.23785 18.599 8.2527 18.4619 8.30951C18.3248 8.36633 18.2076 8.46255 18.1252 8.58599C18.0428 8.70944 17.9989 8.85455 17.999 9.00297V11.253H14.999C14.8001 11.253 14.6093 11.332 14.4687 11.4726C14.328 11.6133 14.249 11.804 14.249 12.003C14.249 12.2019 14.328 12.3926 14.4687 12.5333C14.6093 12.6739 14.8001 12.7529 14.999 12.7529H17.999V15.0029C17.9989 15.1513 18.0428 15.2965 18.1252 15.4199C18.2076 15.5434 18.3248 15.6396 18.4619 15.6964C18.599 15.7532 18.7499 15.7681 18.8955 15.7391C19.041 15.7101 19.1747 15.6386 19.2796 15.5335L22.2796 12.5336C22.3493 12.4639 22.4046 12.3812 22.4424 12.2902C22.4801 12.1991 22.4996 12.1015 22.4996 12.003C22.4996 11.9044 22.4801 11.8068 22.4424 11.7157C22.4046 11.6247 22.3493 11.542 22.2796 11.4723ZM8.99907 12.7529C9.19798 12.7529 9.38874 12.6739 9.52939 12.5333C9.67004 12.3926 9.74906 12.2019 9.74906 12.003C9.74906 11.804 9.67004 11.6133 9.52939 11.4726C9.38874 11.332 9.19798 11.253 8.99907 11.253H5.99909V9.00297C5.99921 8.85455 5.95528 8.70944 5.87288 8.58599C5.79048 8.46255 5.6733 8.36633 5.53619 8.30951C5.39907 8.2527 5.24818 8.23785 5.10262 8.26683C4.95706 8.29582 4.82337 8.36735 4.71848 8.47235L1.7185 11.4723C1.64877 11.542 1.59345 11.6247 1.5557 11.7157C1.51796 11.8068 1.49854 11.9044 1.49854 12.003C1.49854 12.1015 1.51796 12.1991 1.5557 12.2902C1.59345 12.3812 1.64877 12.4639 1.7185 12.5336L4.71848 15.5335C4.82337 15.6386 4.95706 15.7101 5.10262 15.7391C5.24818 15.7681 5.39907 15.7532 5.53619 15.6964C5.6733 15.6396 5.79048 15.5434 5.87288 15.4199C5.95528 15.2965 5.99921 15.1513 5.99909 15.0029V12.7529H8.99907Z" fill="black"/>
</svg>
