<svg width="24" height="24" viewBox="0 0 24 24" fill="none" xmlns="http://www.w3.org/2000/svg">
<path d="M4.71835 11.0274C4.61335 10.9225 4.54182 10.7888 4.51283 10.6432C4.48385 10.4977 4.4987 10.3468 4.55551 10.2097C4.61233 10.0726 4.70855 9.95538 4.83199 9.87298C4.95544 9.79058 5.10056 9.74665 5.24898 9.74677H11.2489V2.99682C11.2489 2.79791 11.3279 2.60715 11.4686 2.46649C11.6092 2.32584 11.8 2.24683 11.9989 2.24683C12.1978 2.24683 12.3886 2.32584 12.5293 2.46649C12.6699 2.60715 12.7489 2.79791 12.7489 2.99682V9.74677H18.7489C18.8973 9.74665 19.0424 9.79058 19.1659 9.87298C19.2893 9.95538 19.3855 10.0726 19.4423 10.2097C19.4991 10.3468 19.514 10.4977 19.485 10.6432C19.456 10.7888 19.3845 10.9225 19.2795 11.0274L12.5295 17.7773C12.4599 17.8471 12.3772 17.9024 12.2861 17.9401C12.1951 17.9779 12.0975 17.9973 11.9989 17.9973C11.9004 17.9973 11.8028 17.9779 11.7117 17.9401C11.6207 17.9024 11.538 17.8471 11.4683 17.7773L4.71835 11.0274ZM20.2489 19.4967H3.74899C3.55008 19.4967 3.35931 19.5757 3.21866 19.7164C3.07801 19.857 2.99899 20.0478 2.99899 20.2467C2.99899 20.4456 3.07801 20.6364 3.21866 20.777C3.35931 20.9177 3.55008 20.9967 3.74899 20.9967H20.2489C20.4478 20.9967 20.6385 20.9177 20.7792 20.777C20.9198 20.6364 20.9989 20.4456 20.9989 20.2467C20.9989 20.0478 20.9198 19.857 20.7792 19.7164C20.6385 19.5757 20.4478 19.4967 20.2489 19.4967Z" fill="black"/>
</svg>
