<svg width="24" height="24" viewBox="0 0 24 24" fill="none" xmlns="http://www.w3.org/2000/svg">
<g clip-path="url(#clip0_2133_33793)">
<path d="M20.9989 11.9961C20.9989 12.195 20.9198 12.3858 20.7792 12.5264C20.6385 12.6671 20.4478 12.7461 20.2489 12.7461H3.74899C3.55008 12.7461 3.35931 12.6671 3.21866 12.5264C3.07801 12.3858 2.99899 12.195 2.99899 11.9961C2.99899 11.7972 3.07801 11.6064 3.21866 11.4658C3.35931 11.3251 3.55008 11.2461 3.74899 11.2461H20.2489C20.4478 11.2461 20.6385 11.3251 20.7792 11.4658C20.9198 11.6064 20.9989 11.7972 20.9989 11.9961ZM8.99895 5.24616H11.2489V8.99613C11.2489 9.19504 11.3279 9.38581 11.4686 9.52646C11.6092 9.66711 11.8 9.74613 11.9989 9.74613C12.1978 9.74613 12.3886 9.66711 12.5293 9.52646C12.6699 9.38581 12.7489 9.19504 12.7489 8.99613V5.24616H14.9989C15.1473 5.24628 15.2924 5.20235 15.4159 5.11995C15.5393 5.03755 15.6355 4.92037 15.6924 4.78326C15.7492 4.64614 15.764 4.49525 15.735 4.34969C15.7061 4.20413 15.6345 4.07044 15.5295 3.96555L12.5295 0.965569C12.4599 0.895837 12.3772 0.840518 12.2861 0.802775C12.1951 0.765032 12.0975 0.745605 11.9989 0.745605C11.9004 0.745605 11.8028 0.765032 11.7117 0.802775C11.6207 0.840518 11.538 0.895837 11.4683 0.965569L8.46833 3.96555C8.36332 4.07044 8.29179 4.20413 8.26281 4.34969C8.23382 4.49525 8.24867 4.64614 8.30549 4.78326C8.3623 4.92037 8.45852 5.03755 8.58196 5.11995C8.70541 5.20235 8.85053 5.24628 8.99895 5.24616ZM14.9989 18.7461H12.7489V14.9961C12.7489 14.7972 12.6699 14.6064 12.5293 14.4658C12.3886 14.3251 12.1978 14.2461 11.9989 14.2461C11.8 14.2461 11.6092 14.3251 11.4686 14.4658C11.3279 14.6064 11.2489 14.7972 11.2489 14.9961V18.7461H8.99895C8.85053 18.7459 8.70541 18.7899 8.58196 18.8723C8.45852 18.9547 8.3623 19.0718 8.30549 19.209C8.24867 19.3461 8.23382 19.497 8.26281 19.6425C8.29179 19.7881 8.36332 19.9218 8.46833 20.0267L11.4683 23.0266C11.538 23.0964 11.6207 23.1517 11.7117 23.1894C11.8028 23.2272 11.9004 23.2466 11.9989 23.2466C12.0975 23.2466 12.1951 23.2272 12.2861 23.1894C12.3772 23.1517 12.4599 23.0964 12.5295 23.0266L15.5295 20.0267C15.6345 19.9218 15.7061 19.7881 15.735 19.6425C15.764 19.497 15.7492 19.3461 15.6924 19.209C15.6355 19.0718 15.5393 18.9547 15.4159 18.8723C15.2924 18.7899 15.1473 18.7459 14.9989 18.7461Z" fill="black"/>
</g>
<defs>
<clipPath id="clip0_2133_33793">
<rect width="23.9998" height="23.9998" fill="white"/>
</clipPath>
</defs>
</svg>
