<?xml version="1.0" encoding="utf-8"?>
<svg xmlns="http://www.w3.org/2000/svg" width="512" height="512" viewBox="0 0 512 512">
<path d="M394.33 396.89L357.75 400.23L338.02 428.17L367.95 480L379.8 435.97L424 447.77L394.33 396.89ZM448 172.55L401.7 139.88L396.55 83.45L340.12 78.3L307.45 32L256 55.75L204.55 32L171.88 78.3L115.45 83.45L110.3 139.88L64 172.55L87.75 224L64 275.45L110.3 308.12L115.45 364.55L171.78 369.69H171.88L172.1 370.01L204.55 416L256 392.25L307.45 416L340.12 369.7L396.55 364.55L401.7 308.12L448 275.45L424.25 224L448 172.55ZM288 320H256V174.6C256 174.6 237.9 192 208 192V160C237.9 160 264 128 264 128H288V320ZM154.25 400.23L117.64 396.89L87.97 447.77L132.17 435.97L144.02 480L173.96 428.15L154.25 400.23Z" fill="black"/>
</svg>
