<svg width="24" height="24" viewBox="0 0 24 24" fill="none" xmlns="http://www.w3.org/2000/svg">
<g clip-path="url(#clip0_2021_25242)">
<path d="M15.7489 12.0017C15.7489 12.7433 15.529 13.4684 15.1169 14.085C14.7049 14.7017 14.1192 15.1824 13.434 15.4662C12.7488 15.75 11.9948 15.8243 11.2674 15.6796C10.5399 15.5349 9.87175 15.1777 9.34731 14.6533C8.82286 14.1288 8.46571 13.4607 8.32102 12.7332C8.17633 12.0058 8.25059 11.2518 8.53442 10.5666C8.81824 9.88139 9.29889 9.29572 9.91557 8.88367C10.5322 8.47162 11.2573 8.25169 11.9989 8.25169C12.9935 8.25169 13.9473 8.64677 14.6506 9.35003C15.3538 10.0533 15.7489 11.0071 15.7489 12.0017ZM23.2489 6.0017V18.0016C23.2489 18.2005 23.1698 18.3913 23.0292 18.5319C22.8885 18.6726 22.6978 18.7516 22.4989 18.7516H1.49902C1.30011 18.7516 1.10934 18.6726 0.968692 18.5319C0.82804 18.3913 0.749023 18.2005 0.749023 18.0016V6.0017C0.749023 5.80279 0.82804 5.61203 0.968692 5.47138C1.10934 5.33073 1.30011 5.25171 1.49902 5.25171H22.4989C22.6978 5.25171 22.8885 5.33073 23.0292 5.47138C23.1698 5.61203 23.2489 5.80279 23.2489 6.0017ZM21.7489 10.347C20.8972 10.0952 20.1222 9.63431 19.4942 9.00635C18.8663 8.3784 18.4054 7.60331 18.1536 6.7517H5.8443C5.59249 7.60331 5.13162 8.3784 4.50367 9.00635C3.87571 9.63431 3.10063 10.0952 2.24901 10.347V13.6563C3.10063 13.9081 3.87571 14.369 4.50367 14.997C5.13162 15.6249 5.59249 16.4 5.8443 17.2516H18.1536C18.4054 16.4 18.8663 15.6249 19.4942 14.997C20.1222 14.369 20.8972 13.9081 21.7489 13.6563V10.347Z" fill="black"/>
</g>
<defs>
<clipPath id="clip0_2021_25242">
<rect width="23.9998" height="23.9998" fill="white"/>
</clipPath>
</defs>
</svg>
