<svg width="24" height="24" viewBox="0 0 24 24" fill="none" xmlns="http://www.w3.org/2000/svg">
<g clip-path="url(#clip0_2021_25541)">
<path d="M23.2489 19.502C23.2489 19.701 23.1698 19.8917 23.0292 20.0324C22.8885 20.173 22.6978 20.252 22.4989 20.252H1.49902C1.30011 20.252 1.10934 20.173 0.968692 20.0324C0.82804 19.8917 0.749023 19.701 0.749023 19.502C0.749023 19.3031 0.82804 19.1124 0.968692 18.9717C1.10934 18.8311 1.30011 18.7521 1.49902 18.7521H22.4989C22.6978 18.7521 22.8885 18.8311 23.0292 18.9717C23.1698 19.1124 23.2489 19.3031 23.2489 19.502ZM1.52714 9.2065C1.48253 9.04922 1.49054 8.88167 1.54994 8.72936C1.60934 8.57704 1.71689 8.44831 1.8562 8.36276L11.6061 2.3628C11.7243 2.29017 11.8602 2.25171 11.9989 2.25171C12.1376 2.25171 12.2736 2.29017 12.3917 2.3628L22.1417 8.36276C22.281 8.44821 22.3887 8.57685 22.4482 8.7291C22.5077 8.88135 22.5158 9.04887 22.4713 9.20617C22.4269 9.36347 22.3322 9.50194 22.2018 9.60049C22.0714 9.69905 21.9123 9.75229 21.7489 9.75212H19.4989V15.7521H20.9989C21.1978 15.7521 21.3885 15.8311 21.5292 15.9717C21.6698 16.1124 21.7489 16.3032 21.7489 16.5021C21.7489 16.701 21.6698 16.8917 21.5292 17.0324C21.3885 17.173 21.1978 17.2521 20.9989 17.2521H2.99901C2.8001 17.2521 2.60933 17.173 2.46868 17.0324C2.32803 16.8917 2.24901 16.701 2.24901 16.5021C2.24901 16.3032 2.32803 16.1124 2.46868 15.9717C2.60933 15.8311 2.8001 15.7521 2.99901 15.7521H4.49899V9.75212H2.24901C2.08569 9.75218 1.92681 9.69892 1.79652 9.60044C1.66623 9.50196 1.57165 9.36364 1.52714 9.2065ZM13.4989 15.0021C13.4989 15.201 13.5779 15.3918 13.7186 15.5324C13.8592 15.6731 14.05 15.7521 14.2489 15.7521C14.4478 15.7521 14.6386 15.6731 14.7792 15.5324C14.9199 15.3918 14.9989 15.201 14.9989 15.0021V10.5021C14.9989 10.3032 14.9199 10.1124 14.7792 9.97179C14.6386 9.83114 14.4478 9.75212 14.2489 9.75212C14.05 9.75212 13.8592 9.83114 13.7186 9.97179C13.5779 10.1124 13.4989 10.3032 13.4989 10.5021V15.0021ZM8.99896 15.0021C8.99896 15.201 9.07798 15.3918 9.21863 15.5324C9.35928 15.6731 9.55004 15.7521 9.74895 15.7521C9.94787 15.7521 10.1386 15.6731 10.2793 15.5324C10.4199 15.3918 10.4989 15.201 10.4989 15.0021V10.5021C10.4989 10.3032 10.4199 10.1124 10.2793 9.97179C10.1386 9.83114 9.94787 9.75212 9.74895 9.75212C9.55004 9.75212 9.35928 9.83114 9.21863 9.97179C9.07798 10.1124 8.99896 10.3032 8.99896 10.5021V15.0021Z" fill="black"/>
</g>
<defs>
<clipPath id="clip0_2021_25541">
<rect width="23.9998" height="23.9998" fill="white"/>
</clipPath>
</defs>
</svg>
