<?xml version="1.0" encoding="utf-8"?>
<svg xmlns="http://www.w3.org/2000/svg" width="512" height="512" viewBox="0 0 512 512">
<path d="M32 96H0V0h96v32H32v64zm0 288H0v96h96v-32H32v-64zM416 0v32h64v64h32V0h-96zm64 448h-64v32h96v-96h-32v64zm-192-32h32V288h-32v128zm32-352h-32v128h32V64zm-64 0h-32v128h32V64zM128 416h64V288h-64v128zm-64 0h32V288H64v128zM192 64h-64v128h64V64zm32 352h32V288h-32v128zM64 64v128h32V64H64zm384 0h-32v128h32V64zm0 352V288h-32v128h32zm-96 0h32V288h-32v128zm32-352h-32v128h32V64zm96 160H32v32h448v-32z"/>
</svg>
