<svg width="24" height="24" viewBox="0 0 24 24" fill="none" xmlns="http://www.w3.org/2000/svg">
<path d="M21 3.75C21.1989 3.75 21.3896 3.82907 21.5303 3.96973C21.6709 4.11038 21.75 4.30109 21.75 4.5V19.5C21.75 19.6989 21.6709 19.8896 21.5303 20.0303C21.3896 20.1709 21.1989 20.25 21 20.25H3C2.80109 20.25 2.61038 20.1709 2.46973 20.0303C2.32907 19.8896 2.25 19.6989 2.25 19.5V4.5C2.25 4.30109 2.32907 4.11038 2.46973 3.96973C2.61038 3.82907 2.80109 3.75 3 3.75H21ZM4.5 14.25C4.08579 14.25 3.75 14.5858 3.75 15V18C3.75 18.4142 4.08579 18.75 4.5 18.75H7.5C7.91399 18.7497 8.25 18.4141 8.25 18C8.24982 17.5861 7.91388 17.2503 7.5 17.25H5.25V15C5.25 14.5859 4.91399 14.2503 4.5 14.25ZM19.5029 14.25C19.0887 14.25 18.7529 14.5858 18.7529 15V17.25H16.5029C16.0888 17.25 15.7531 17.5859 15.7529 18C15.7529 18.4142 16.0887 18.75 16.5029 18.75H19.5029C19.9169 18.7497 20.2529 18.414 20.2529 18V15C20.2529 14.586 19.9169 14.2503 19.5029 14.25ZM9.00098 9C8.58682 9.00007 8.25098 9.33583 8.25098 9.75V14.25C8.25102 14.6641 8.58684 14.9999 9.00098 15C9.41494 14.9997 9.75094 14.664 9.75098 14.25V9.75C9.75098 9.33595 9.41497 9.00026 9.00098 9ZM12.001 9C11.5868 9 11.251 9.33579 11.251 9.75V14.25C11.251 14.6642 11.5868 15 12.001 15C12.4147 14.9995 12.7509 14.6639 12.751 14.25V9.75C12.751 9.33611 12.4147 9.00053 12.001 9ZM15 9C14.586 9.00023 14.25 9.33593 14.25 9.75V14.25C14.25 14.664 14.586 14.9998 15 15C15.414 14.9997 15.75 14.664 15.75 14.25V9.75C15.75 9.33595 15.414 9.00026 15 9ZM4.49902 5.25C4.30023 5.25 4.10938 5.32923 3.96875 5.46973C3.8281 5.61038 3.74902 5.80109 3.74902 6V9C3.74902 9.41421 4.08481 9.75 4.49902 9.75C4.91301 9.74974 5.24902 9.41405 5.24902 9V6.75H7.49902C7.91301 6.74974 8.24902 6.41405 8.24902 6C8.24902 5.58595 7.91301 5.25026 7.49902 5.25H4.49902ZM16.502 5.25C16.0877 5.25 15.752 5.58579 15.752 6C15.752 6.41421 16.0877 6.75 16.502 6.75H18.752V9C18.752 9.41421 19.0877 9.75 19.502 9.75C19.9159 9.74974 20.252 9.41405 20.252 9V6C20.252 5.58595 19.9159 5.25026 19.502 5.25H16.502Z" fill="black"/>
</svg>
