<svg xmlns="http://www.w3.org/2000/svg" width="24" height="24" fill="currentColor" viewBox="0 0 24 24"><path d="M23.34 8.76h-2.43a0.81 0.81 0 0 0-0.81-0.81h-7.29A0.81 0.81 0 0 0 12 8.76H5.52V4.304a1.216 1.216 0 0 1 1.216-1.215 1.26 1.26 0 0 1 1.231 0.971 0.81 0.81 0 0 0 1.587-0.322 2.868 2.868 0 0 0-2.818-2.269 2.836 2.836 0 0 0-2.835 2.834v4.456h-3.24a0.81 0.81 0 0 0-0.81 0.81v4.05a5.676 5.676 0 0 0 5.67 5.67v1.62a0.81 0.81 0 0 0 1.62 0v-1.62h9.72v1.62a0.81 0.81 0 0 0 1.62 0v-1.62a5.676 5.676 0 0 0 5.67-5.67V9.569a0.81 0.81 0 0 0-0.81-0.81z m-4.05 0.81v4.05H13.62V9.57z"/></svg>