<?xml version="1.0" encoding="utf-8"?><svg width="512" height="512" viewBox="0 0 512 512" fill="none" xmlns="http://www.w3.org/2000/svg">
<path d="M448 258.73V96C448 60.65 419.35 32 384 32H368C344.12 32 323.29 45.08 312.3 64.46C310.03 64.73 307.8 65.12 305.62 65.62C277.2 72.14 256 97.59 256 128V160H384V128C384 102.87 369.53 81.14 348.47 70.67C353.87 66.49 360.65 64 368 64H384C401.64 64 416 78.35 416 96V256H80C53.49 256 32 277.49 32 304C32 324.9 45.36 342.68 64 349.27V352C64 422.69 121.31 480 192 480H320C390.69 480 448 422.69 448 352V349.27C466.64 342.68 480 324.9 480 304C480 283.1 466.64 265.32 448 258.73ZM352 128H288C288 116.19 294.44 105.84 304 100.3C308.71 97.57 314.17 96 320 96C325.83 96 331.29 97.57 336 100.3C345.56 105.84 352 116.19 352 128ZM320 448H192C139.07 448 96 404.93 96 352H416C416 404.93 372.93 448 320 448ZM432 320H80C71.18 320 64 312.82 64 304C64 295.18 71.18 288 80 288H432C440.82 288 448 295.18 448 304C448 312.82 440.82 320 432 320ZM268 176C268 176 256 186.66 256 196C256 202.63 261.37 208 268 208C274.63 208 280 202.63 280 196C280 186.66 268 176 268 176ZM320 176C320 176 308 186.66 308 196C308 202.63 313.37 208 320 208C326.63 208 332 202.63 332 196C332 186.66 320 176 320 176ZM372 176C372 176 360 186.66 360 196C360 202.63 365.37 208 372 208C378.63 208 384 202.63 384 196C384 186.66 372 176 372 176Z" fill="black"/>
</svg>
