<svg width="24" height="24" viewBox="0 0 24 24" fill="none" xmlns="http://www.w3.org/2000/svg">
<path d="M8.62397 11.2507H5.99899V9.00069H8.62397C8.92234 9.00069 9.20848 9.11922 9.41946 9.33019C9.63043 9.54117 9.74896 9.82732 9.74896 10.1257C9.74896 10.424 9.63043 10.7102 9.41946 10.9212C9.20848 11.1321 8.92234 11.2507 8.62397 11.2507ZM8.99897 12.7507H5.99899V15.7506H8.99897C9.39679 15.7506 9.77832 15.5926 10.0596 15.3113C10.3409 15.03 10.499 14.6485 10.499 14.2507C10.499 13.8528 10.3409 13.4713 10.0596 13.19C9.77832 12.9087 9.39679 12.7507 8.99897 12.7507ZM16.4989 11.2507C16.0337 11.2508 15.5801 11.3951 15.2003 11.6638C14.8205 11.9324 14.5334 12.3121 14.3783 12.7507H18.6195C18.4645 12.3121 18.1773 11.9324 17.7975 11.6638C17.4178 11.3951 16.9641 11.2508 16.4989 11.2507ZM22.4989 5.25072V18.7506C22.4989 19.1484 22.3408 19.53 22.0595 19.8113C21.7782 20.0926 21.3967 20.2506 20.9989 20.2506H2.99901C2.60119 20.2506 2.21966 20.0926 1.93836 19.8113C1.65706 19.53 1.49902 19.1484 1.49902 18.7506V5.25072C1.49902 4.8529 1.65706 4.47137 1.93836 4.19007C2.21966 3.90877 2.60119 3.75073 2.99901 3.75073H20.9989C21.3967 3.75073 21.7782 3.90877 22.0595 4.19007C22.3408 4.47137 22.4989 4.8529 22.4989 5.25072ZM13.4989 8.2507C13.4989 8.44961 13.5779 8.64037 13.7186 8.78102C13.8593 8.92168 14.05 9.00069 14.2489 9.00069H18.7489C18.9478 9.00069 19.1386 8.92168 19.2792 8.78102C19.4199 8.64037 19.4989 8.44961 19.4989 8.2507C19.4989 8.05179 19.4199 7.86102 19.2792 7.72037C19.1386 7.57972 18.9478 7.5007 18.7489 7.5007H14.2489C14.05 7.5007 13.8593 7.57972 13.7186 7.72037C13.5779 7.86102 13.4989 8.05179 13.4989 8.2507ZM11.9989 14.2507C11.9987 13.7593 11.8778 13.2755 11.6468 12.8419C11.4158 12.4082 11.0819 12.0379 10.6743 11.7635C10.9826 11.3773 11.1756 10.912 11.2312 10.421C11.2868 9.92994 11.2027 9.43321 10.9885 8.9879C10.7743 8.54258 10.4388 8.16676 10.0205 7.90368C9.60217 7.64059 9.11812 7.50091 8.62397 7.5007H5.24899C5.05008 7.5007 4.85932 7.57972 4.71867 7.72037C4.57802 7.86102 4.499 8.05179 4.499 8.2507V16.5006C4.499 16.6995 4.57802 16.8903 4.71867 17.031C4.85932 17.1716 5.05008 17.2506 5.24899 17.2506H8.99897C9.79461 17.2506 10.5577 16.9346 11.1203 16.372C11.6829 15.8094 11.9989 15.0463 11.9989 14.2507ZM20.2489 13.5007C20.2488 12.6432 19.9549 11.8116 19.4161 11.1445C18.8773 10.4775 18.1261 10.0152 17.2878 9.83481C16.4495 9.65442 15.5747 9.76678 14.8092 10.1532C14.0437 10.5396 13.4337 11.1766 13.0809 11.9582C12.7282 12.7398 12.6539 13.6187 12.8706 14.4483C13.0873 15.278 13.5817 16.0084 14.2716 16.5177C14.9614 17.027 15.805 17.2845 16.6617 17.2473C17.5184 17.2101 18.3364 16.8804 18.9795 16.3131C19.1287 16.1815 19.2195 15.996 19.2319 15.7974C19.2443 15.5988 19.1773 15.4034 19.0456 15.2542C18.9804 15.1804 18.9013 15.1201 18.8128 15.0768C18.7243 15.0335 18.6282 15.008 18.5298 15.0019C18.3313 14.9895 18.1359 15.0565 17.9867 15.1881C17.7106 15.4314 17.379 15.6032 17.0211 15.6886C16.6631 15.7739 16.2897 15.7701 15.9336 15.6776C15.5774 15.5851 15.2494 15.4066 14.9782 15.1578C14.7071 14.909 14.5011 14.5975 14.3783 14.2507H19.4989C19.6978 14.2507 19.8886 14.1716 20.0292 14.031C20.1699 13.8903 20.2489 13.6996 20.2489 13.5007Z" fill="black"/>
</svg>
