<svg xmlns="http://www.w3.org/2000/svg" width="24" height="24" fill="currentColor" viewBox="0 0 24 24"><path d="M23.058 14.42v-0.009l-0.007-0.023a4.8 4.8 0 0 0-0.234-0.536l-4.209-9.567a0.84 0.84 0 0 0-0.169-0.247 3.24 3.24 0 0 0-4.583 0 0.816 0.816 0 0 0-0.236 0.571V7.14h-3.24V4.609a0.816 0.816 0 0 0-0.236-0.573 3.24 3.24 0 0 0-4.583 0 0.84 0.84 0 0 0-0.169 0.247l-4.205 9.567a4.8 4.8 0 0 0-0.234 0.537l-0.007 0.021v0.011a4.86 4.86 0 0 0 9.145 3.292 4.8 4.8 0 0 0 0.294-1.68v-7.272h3.24v7.273a4.8 4.8 0 0 0 0.294 1.68 4.86 4.86 0 0 0 9.145-3.292zM8.564 17.154a3.24 3.24 0 0 1-6.094-2.198l0.183-0.418a3.24 3.24 0 0 1 6.108 1.5v0.012a3.24 3.24 0 0 1-0.195 1.108z m11.03 1.94a3.24 3.24 0 0 1-4.354-3.044v-0.011a3.24 3.24 0 0 1 6.108-1.496l0.184 0.417a3.24 3.24 0 0 1-1.937 4.134z"/></svg>