<svg width="24" height="24" viewBox="0 0 24 24" fill="none" xmlns="http://www.w3.org/2000/svg">
<path d="M22.2382 14.2407V14.2313C22.2366 14.2243 22.2344 14.2174 22.2316 14.2107C22.1694 14.0409 22.0971 13.875 22.0151 13.7138L18.1179 4.85636C18.0804 4.77105 18.0273 4.69348 17.9614 4.62762C17.6828 4.34897 17.352 4.12793 16.988 3.97713C16.624 3.82632 16.2338 3.7487 15.8398 3.7487C15.4458 3.7487 15.0556 3.82632 14.6916 3.97713C14.3276 4.12793 13.9968 4.34897 13.7183 4.62762C13.5781 4.76793 13.4992 4.95804 13.4989 5.15636V7.50009H10.4989V5.15636C10.499 5.05784 10.4797 4.96027 10.442 4.86923C10.4044 4.77818 10.3492 4.69544 10.2795 4.62574C10.001 4.3471 9.67021 4.12606 9.30619 3.97525C8.94217 3.82445 8.55201 3.74683 8.15799 3.74683C7.76397 3.74683 7.37381 3.82445 7.00979 3.97525C6.64577 4.12606 6.31503 4.3471 6.03645 4.62574C5.9705 4.6916 5.9174 4.76917 5.87988 4.85449L1.98648 13.7138C1.90446 13.875 1.83215 14.0409 1.76992 14.2107C1.76731 14.2171 1.76512 14.2237 1.76335 14.2304C1.76335 14.2304 1.76335 14.2379 1.76335 14.2407C1.37616 15.3594 1.44543 16.5857 1.95616 17.6537C2.46689 18.7218 3.37792 19.5455 4.49183 19.9465C5.60573 20.3474 6.83277 20.2932 7.90701 19.7957C8.98125 19.2982 9.81616 18.3973 10.2308 17.2885C10.4134 16.7904 10.5054 16.2636 10.5027 15.7332V9.00008H13.5026V15.7341C13.4999 16.2646 13.5919 16.7913 13.7745 17.2894C14.1891 18.3983 15.024 19.2991 16.0983 19.7966C17.1725 20.2942 18.3996 20.3483 19.5135 19.9474C20.6274 19.5465 21.5384 18.7227 22.0491 17.6547C22.5599 16.5866 22.6291 15.3604 22.2419 14.2416L22.2382 14.2407ZM8.81799 16.7719C8.54104 17.5109 7.98406 18.111 7.26774 18.4421C6.55142 18.7733 5.73346 18.8089 4.99109 18.5412C4.24872 18.2734 3.64174 17.724 3.30167 17.0118C2.9616 16.2997 2.91583 15.4823 3.17428 14.7366L3.34397 14.3494C3.65584 13.7566 4.15716 13.2852 4.76804 13.0103C5.37892 12.7355 6.06421 12.673 6.71473 12.8328C7.36525 12.9927 7.94356 13.3656 8.35752 13.8922C8.77148 14.4189 8.99727 15.0689 8.99892 15.7388V15.75C8.99887 16.0998 8.93763 16.4469 8.81799 16.7756V16.7719ZM19.0301 18.5691C18.5766 18.7351 18.0898 18.7891 17.6109 18.7267C17.1321 18.6643 16.6754 18.4871 16.2796 18.2104C15.8839 17.9337 15.5608 17.5655 15.3378 17.1371C15.1149 16.7088 14.9986 16.2329 14.9989 15.75V15.7397C15.0014 15.0702 15.2277 14.4207 15.642 13.8947C16.0563 13.3687 16.6346 12.9964 17.2849 12.837C17.9352 12.6777 18.6201 12.7405 19.2306 13.0154C19.8411 13.2903 20.3421 13.7616 20.6538 14.3541L20.8235 14.7413C21.0903 15.4869 21.0514 16.3076 20.7155 17.0247C20.3795 17.7417 19.7737 18.2969 19.0301 18.5691Z" fill="black"/>
</svg>
