<?xml version="1.0" encoding="utf-8"?>
<svg xmlns="http://www.w3.org/2000/svg" width="512" height="512" viewBox="0 0 512 512">
<path d="M480 288v96c0 17.7-14.3 32-32 32h-96c-17.7 0-32-14.3-32-32v-64H192v64c0 17.7-14.3 32-32 32H64c-17.7 0-32-14.3-32-32v-96c0-17.7 14.3-32 32-32v-64c0-17.7 14.3-32 32-32v-32c0-17.7 14.3-32 32-32h64s32 0 32 32v128h64V128c0-32 32-32 32-32h64c17.7 0 32 14.3 32 32v32c17.7 0 32 14.3 32 32v64c17.7 0 32 14.3 32 32zM208 64h16V32h-96v32h80zm160 0h16V32h-96v32h80zM48 448H32v32h160v-32H48zm272 32h160v-32H320v32z"/>
</svg>
