<?xml version="1.0" encoding="utf-8"?>
<svg xmlns="http://www.w3.org/2000/svg" width="512" height="512" viewBox="0 0 512 512">
<path d="M448 32H64c-17.7 0-32 14.3-32 32v384c0 17.7 14.3 32 32 32h384c17.7 0 32-14.3 32-32V64c0-17.7-14.3-32-32-32zm-31 280.7c0 57.1-46.6 103.3-104.2 103.3H200.4C142.7 416 96 369.8 96 312.7V199.3C96 142.2 142.7 96 200.4 96h52.1C310 96 356 138.9 356 196c.7 10.7 10.4 20 21.4 20h18c11.5 0 20.7 12.1 20.6 23.5l1 73.2zM196 216h60c11 0 20-9 20-20s-9-20-20-20h-60c-11 0-20 9-20 20s9 20 20 20zm120 80H196c-11 0-20 9-20 20s9 20 20 20h120c11 0 20-9 20-20s-9-20-20-20z"/>
</svg>
