<svg width="24" height="24" viewBox="0 0 24 24" fill="none" xmlns="http://www.w3.org/2000/svg">
<path d="M16.3125 4.4766C15.1545 3.13919 13.8511 1.9349 12.4266 0.885971C12.3005 0.797632 12.1502 0.750244 11.9963 0.750244C11.8423 0.750244 11.692 0.797632 11.5659 0.885971C10.144 1.93533 8.84317 3.13961 7.6875 4.4766C5.11031 7.43628 3.75 10.5563 3.75 13.5C3.75 15.6881 4.61919 17.7865 6.16637 19.3337C7.71354 20.8808 9.81196 21.75 12 21.75C14.188 21.75 16.2865 20.8808 17.8336 19.3337C19.3808 17.7865 20.25 15.6881 20.25 13.5C20.25 10.5563 18.8897 7.43628 16.3125 4.4766Z" fill="black"/>
</svg>
