<svg width="24" height="24" viewBox="0 0 24 24" fill="none" xmlns="http://www.w3.org/2000/svg">
<path d="M15.7489 14.6244C15.7489 15.1217 15.5514 15.5986 15.1998 15.9502C14.8481 16.3019 14.3712 16.4994 13.8739 16.4994H8.99898V12.7494H13.8739C14.3712 12.7494 14.8481 12.947 15.1998 13.2986C15.5514 13.6502 15.7489 14.1271 15.7489 14.6244ZM20.9989 4.4995V19.4994C20.9989 19.8972 20.8409 20.2787 20.5595 20.56C20.2782 20.8413 19.8967 20.9994 19.4989 20.9994H4.49901C4.10119 20.9994 3.71966 20.8413 3.43836 20.56C3.15706 20.2787 2.99902 19.8972 2.99902 19.4994V4.4995C2.99902 4.10168 3.15706 3.72015 3.43836 3.43885C3.71966 3.15755 4.10119 2.99951 4.49901 2.99951H19.4989C19.8967 2.99951 20.2782 3.15755 20.5595 3.43885C20.8409 3.72015 20.9989 4.10168 20.9989 4.4995ZM17.2489 14.6244C17.2485 14.0324 17.0923 13.4509 16.7961 12.9384C16.4999 12.4258 16.0741 12.0001 15.5614 11.7041C16.0173 11.2263 16.3229 10.6253 16.4405 9.97548C16.5581 9.32567 16.4825 8.65564 16.223 8.04838C15.9636 7.44112 15.5316 6.92333 14.9808 6.55914C14.4299 6.19495 13.7843 6.00036 13.1239 5.99949H8.24898C8.05007 5.99949 7.85931 6.07851 7.71866 6.21916C7.57801 6.35981 7.49899 6.55057 7.49899 6.74948V17.2494C7.49899 17.4483 7.57801 17.6391 7.71866 17.7797C7.85931 17.9204 8.05007 17.9994 8.24898 17.9994H13.8739C14.769 17.9994 15.6275 17.6438 16.2604 17.0109C16.8933 16.378 17.2489 15.5195 17.2489 14.6244ZM14.9989 9.37446C14.9989 8.87719 14.8014 8.40028 14.4498 8.04865C14.0981 7.69702 13.6212 7.49948 13.1239 7.49948H8.99898V11.2494H13.1239C13.6212 11.2494 14.0981 11.0519 14.4498 10.7003C14.8014 10.3486 14.9989 9.87174 14.9989 9.37446Z" fill="black"/>
</svg>
