<svg xmlns="http://www.w3.org/2000/svg" width="24" height="24" fill="currentColor" viewBox="0 0 24 24"><path d="M16.05 14.836a2.028 2.028 0 0 1-2.026 2.025H8.76v-4.05h5.264a2.028 2.028 0 0 1 2.026 2.026zM21.72 3.9v16.2a1.62 1.62 0 0 1-1.62 1.62H3.9a1.62 1.62 0 0 1-1.62-1.62V3.9A1.62 1.62 0 0 1 3.9 2.28h16.2a1.62 1.62 0 0 1 1.62 1.62m-4.05 10.936a3.648 3.648 0 0 0-1.823-3.154 3.646 3.646 0 0 0-2.633-6.161H7.95a0.81 0.81 0 0 0-0.81 0.81v11.34a0.81 0.81 0 0 0 0.81 0.81h6.076a3.648 3.648 0 0 0 3.644-3.644zM15.24 9.166a2.028 2.028 0 0 0-2.026-2.026H8.76v4.05h4.456A2.028 2.028 0 0 0 15.24 9.164z"/></svg>