<svg xmlns="http://www.w3.org/2000/svg" fill="currentColor" viewBox="0 0 24 24" width="24" height="24"><path d="M22.494 18.738l-3.36-15.977a1.62 1.62 0 0 0-1.924-1.254l-4.74 1.019a1.628 1.628 0 0 0-1.245 1.924l3.36 15.976a1.62 1.62 0 0 0 1.581 1.294 1.68 1.68 0 0 0 0.342-0.036l4.74-1.019a1.632 1.632 0 0 0 1.246-1.927m-9.684-14.621v-0.009l4.739-1.013 0.337 1.607-4.739 1.02z m1.013 4.798l-0.34-1.611 4.74-1.018 0.339 1.61z m7.087 10.166l-4.739 1.013-0.337-1.607 4.739-1.02 0.337 1.605zM9.57 2.28h-4.86a1.62 1.62 0 0 0-1.62 1.62v16.2a1.62 1.62 0 0 0 1.62 1.62h4.86a1.62 1.62 0 0 0 1.62-1.62V3.9a1.62 1.62 0 0 0-1.62-1.62m-4.86 1.62h4.86V5.52h-4.86z m4.86 16.2h-4.86V18.48h4.86z"/></svg>