<svg width="24" height="24" viewBox="0 0 24 24" fill="none" xmlns="http://www.w3.org/2000/svg">
<path d="M22.4989 7.4982V18.7481C22.4989 18.947 22.4198 19.1378 22.2792 19.2784C22.1385 19.4191 21.9478 19.4981 21.7489 19.4981H14.9989C14.4032 19.4981 13.8317 19.7344 13.4099 20.1551C12.9881 20.5759 12.7504 21.1467 12.7489 21.7425C12.7519 21.8956 12.7074 22.0459 12.6214 22.1727C12.5355 22.2994 12.4123 22.3964 12.2689 22.4503C12.1551 22.4942 12.0323 22.5097 11.9112 22.4954C11.79 22.4811 11.6741 22.4375 11.5737 22.3683C11.4732 22.2992 11.3911 22.2065 11.3345 22.0984C11.2779 21.9903 11.2485 21.8701 11.2489 21.7481C11.2489 21.1514 11.0119 20.5791 10.5899 20.1571C10.168 19.7352 9.5957 19.4981 8.99897 19.4981H2.24902C2.05011 19.4981 1.85934 19.4191 1.71869 19.2784C1.57804 19.1378 1.49902 18.947 1.49902 18.7481V7.4982C1.49902 7.29929 1.57804 7.10853 1.71869 6.96788C1.85934 6.82722 2.05011 6.74821 2.24902 6.74821H8.24897C9.04462 6.74821 9.80767 7.06427 10.3703 7.62688C10.9329 8.18948 11.2489 8.95254 11.2489 9.74818V15.7228C11.2463 15.9164 11.3171 16.1037 11.447 16.2472C11.577 16.3907 11.7564 16.4797 11.9493 16.4963C12.0518 16.5031 12.1547 16.4887 12.2515 16.4541C12.3484 16.4195 12.437 16.3653 12.512 16.295C12.587 16.2246 12.6467 16.1396 12.6875 16.0452C12.7282 15.9508 12.7492 15.8491 12.7489 15.7463V9.74818C12.7489 8.95254 13.065 8.18948 13.6276 7.62688C14.1902 7.06427 14.9533 6.74821 15.7489 6.74821H21.7489C21.9478 6.74821 22.1385 6.82722 22.2792 6.96788C22.4198 7.10853 22.4989 7.29929 22.4989 7.4982ZM8.32491 5.24822H8.34272C8.98956 5.26107 9.62598 5.41347 10.2085 5.69501C10.791 5.97655 11.3058 6.38058 11.7177 6.87946C11.7529 6.92062 11.7966 6.95367 11.8458 6.97634C11.895 6.999 11.9485 7.01073 12.0027 7.01073C12.0569 7.01073 12.1104 6.999 12.1596 6.97634C12.2088 6.95367 12.2525 6.92062 12.2877 6.87946C12.6988 6.38152 13.2124 5.97806 13.7935 5.69656C14.3746 5.41506 15.0096 5.26214 15.6552 5.24822H15.673C15.7373 5.24803 15.8004 5.23132 15.8564 5.19969C15.9123 5.16807 15.9592 5.12258 15.9926 5.06761C16.0259 5.01264 16.0445 4.95002 16.0467 4.88577C16.0488 4.82152 16.0344 4.7578 16.0048 4.70072C15.6274 3.96314 15.0536 3.34408 14.3468 2.91178C13.64 2.47949 12.8275 2.25073 11.9989 2.25073C11.1704 2.25073 10.3579 2.47949 9.65109 2.91178C8.94425 3.34408 8.37049 3.96314 7.99304 4.70072C7.96347 4.7578 7.94906 4.82152 7.95122 4.88577C7.95337 4.95002 7.972 5.01264 8.00532 5.06761C8.03864 5.12258 8.08554 5.16807 8.1415 5.19969C8.19747 5.23132 8.26062 5.24803 8.32491 5.24822Z" fill="black"/>
</svg>
