<svg width="24" height="24" viewBox="0 0 24 24" fill="none" xmlns="http://www.w3.org/2000/svg">
<path d="M21.7161 18.2369L18.6045 3.44329C18.5643 3.24983 18.4862 3.06622 18.3748 2.90303C18.2634 2.73983 18.1208 2.60026 17.9553 2.49232C17.7898 2.38439 17.6046 2.31022 17.4103 2.27408C17.2161 2.23794 17.0166 2.24054 16.8233 2.28173L12.4349 3.22485C12.0467 3.30984 11.7078 3.54466 11.4919 3.87823C11.2759 4.2118 11.2004 4.61714 11.2818 5.00609L14.3933 19.7997C14.4627 20.1372 14.6461 20.4406 14.9128 20.6588C15.1794 20.877 15.5131 20.9967 15.8577 20.9978C15.9642 20.9977 16.0704 20.9864 16.1746 20.9641L20.563 20.021C20.9516 19.9358 21.2908 19.7005 21.5068 19.3664C21.7228 19.0322 21.798 18.6263 21.7161 18.2369ZM12.749 4.69953C12.749 4.6939 12.749 4.69109 12.749 4.69109L17.1364 3.7536L17.4486 5.2414L13.0611 6.18545L12.749 4.69953ZM13.6864 9.14137L13.3724 7.65075L17.7617 6.70764L18.0749 8.19825L13.6864 9.14137ZM20.2489 18.5547L15.8614 19.4922L15.5492 18.0044L19.9367 17.0604L20.2489 18.5463C20.2489 18.5519 20.2489 18.5547 20.2489 18.5547ZM9.74898 2.99798H5.24901C4.85119 2.99798 4.46966 3.15601 4.18836 3.43731C3.90706 3.71862 3.74902 4.10014 3.74902 4.49797V19.4979C3.74902 19.8957 3.90706 20.2772 4.18836 20.5585C4.46966 20.8398 4.85119 20.9978 5.24901 20.9978H9.74898C10.1468 20.9978 10.5283 20.8398 10.8096 20.5585C11.0909 20.2772 11.249 19.8957 11.249 19.4979V4.49797C11.249 4.10014 11.0909 3.71862 10.8096 3.43731C10.5283 3.15601 10.1468 2.99798 9.74898 2.99798ZM5.24901 4.49797H9.74898V5.99795H5.24901V4.49797ZM9.74898 19.4979H5.24901V17.9979H9.74898V19.4979Z" fill="black"/>
</svg>
