<svg width="24" height="24" viewBox="0 0 24 24" fill="none" xmlns="http://www.w3.org/2000/svg">
<path d="M21.3101 6.87427L17.1205 2.68555C16.9812 2.54623 16.8158 2.43571 16.6338 2.36031C16.4518 2.2849 16.2567 2.24609 16.0597 2.24609C15.8627 2.24609 15.6676 2.2849 15.4856 2.36031C15.3036 2.43571 15.1382 2.54623 14.9989 2.68555L3.43872 14.2458C3.29882 14.3846 3.18791 14.5498 3.11243 14.7318C3.03695 14.9138 2.9984 15.109 2.99903 15.3061V19.4957C2.99903 19.8936 3.15707 20.2751 3.43837 20.5564C3.71967 20.8377 4.1012 20.9957 4.49902 20.9957H20.2489C20.4478 20.9957 20.6386 20.9167 20.7792 20.7761C20.9199 20.6354 20.9989 20.4446 20.9989 20.2457C20.9989 20.0468 20.9199 19.8561 20.7792 19.7154C20.6386 19.5748 20.4478 19.4957 20.2489 19.4957H10.8102L21.3101 8.99582C21.4495 8.85652 21.56 8.69115 21.6354 8.50914C21.7108 8.32713 21.7496 8.13205 21.7496 7.93504C21.7496 7.73803 21.7108 7.54295 21.6354 7.36094C21.56 7.17893 21.4495 7.01356 21.3101 6.87427ZM17.9989 10.1855L13.8102 5.99584L16.0602 3.74586L20.2489 7.93551L17.9989 10.1855Z" fill="black"/>
</svg>
