<svg width="24" height="24" viewBox="0 0 24 24" fill="none" xmlns="http://www.w3.org/2000/svg">
<path fill-rule="evenodd" clip-rule="evenodd" d="M5.25 3.90039C4.89196 3.90039 4.5481 4.04272 4.29492 4.2959C4.04202 4.54901 3.90042 4.89218 3.90039 5.25V18.75C3.90039 19.108 4.04175 19.4519 4.29492 19.7051C4.5481 19.9583 4.89196 20.1006 5.25 20.1006H18.75C19.1078 20.1006 19.451 19.958 19.7041 19.7051C19.9573 19.4519 20.0996 19.108 20.0996 18.75V5.25C20.0996 4.89199 19.9573 4.54905 19.7041 4.2959C19.4509 4.04275 19.108 3.90042 18.75 3.90039H5.25ZM17.4004 16.7197C17.7728 16.72 18.0749 17.0221 18.0752 17.3945V17.4004L18.0605 17.5361C17.9976 17.8434 17.7263 18.075 17.4004 18.0752H17.3945C17.0221 18.0749 16.72 17.7728 16.7197 17.4004C16.7197 17.2123 16.7967 17.0423 16.9209 16.9199C17.0432 16.7963 17.2128 16.7197 17.4004 16.7197ZM14.7061 16.7256C15.0785 16.726 15.3809 17.0279 15.3809 17.4004C15.3806 17.7727 15.0783 18.0748 14.7061 18.0752H14.6953C14.3227 18.0752 14.0198 17.773 14.0195 17.4004C14.0195 17.0276 14.3225 16.7256 14.6953 16.7256H14.7061ZM12 16.7197C12.1862 16.7197 12.3545 16.795 12.4766 16.917L12.4824 16.9229C12.6045 17.045 12.6807 17.214 12.6807 17.4004C12.6804 17.7728 12.3782 18.0749 12.0059 18.0752H11.9951C11.6225 18.0752 11.3206 17.773 11.3203 17.4004C11.3203 17.2123 11.3974 17.0423 11.5215 16.9199C11.6437 16.7965 11.8125 16.7197 12 16.7197ZM9.30566 16.7256C9.67823 16.7258 9.98047 17.0278 9.98047 17.4004C9.98021 17.7728 9.67807 18.0749 9.30566 18.0752H9.29492C8.92233 18.0751 8.62038 17.7729 8.62012 17.4004C8.62012 17.0276 8.92217 16.7256 9.29492 16.7256H9.30566ZM6.60547 5.92578C6.97804 5.92604 7.28125 6.22796 7.28125 6.60059C7.28124 6.61875 7.27682 6.63649 7.27539 6.6543V11.9453C7.27685 11.9634 7.28125 11.9815 7.28125 12C7.28125 12.0182 7.2768 12.0359 7.27539 12.0537V17.3359C7.27739 17.3571 7.28125 17.3787 7.28125 17.4004C7.28099 17.7728 6.97788 18.0749 6.60547 18.0752H6.59961C6.2272 18.0749 5.92507 17.7728 5.9248 17.4004L5.92578 6.60059C5.92578 6.22779 6.22779 5.92578 6.60059 5.92578H6.60547ZM17.4004 14.0195C17.773 14.0198 18.0752 14.3227 18.0752 14.6953V14.7061C18.0748 15.0783 17.7727 15.3806 17.4004 15.3809C17.0279 15.3809 16.726 15.0785 16.7256 14.7061V14.6953C16.7256 14.3225 17.0276 14.0195 17.4004 14.0195ZM12 14.0195C12.3728 14.0195 12.6748 14.3225 12.6748 14.6953V14.7061C12.6744 15.0785 12.3725 15.3809 12 15.3809C11.6275 15.3809 11.3256 15.0785 11.3252 14.7061V14.6953C11.3252 14.3225 11.6272 14.0195 12 14.0195ZM17.4004 11.3203C17.773 11.3206 18.0752 11.6225 18.0752 11.9951V12.0059C18.0749 12.3782 17.7728 12.6804 17.4004 12.6807C17.2125 12.6807 17.0432 12.6024 16.9209 12.4785C16.7972 12.3562 16.7197 12.1877 16.7197 12C16.7197 11.812 16.7969 11.6428 16.9209 11.5205C17.0432 11.397 17.2128 11.3203 17.4004 11.3203ZM12 11.3203C12.1878 11.3203 12.3582 11.3959 12.4805 11.5195C12.6042 11.6418 12.6807 11.8123 12.6807 12C12.6807 12.1865 12.6047 12.3554 12.4824 12.4775L12.4775 12.4824C12.3554 12.6047 12.1865 12.6807 12 12.6807C11.8122 12.6807 11.6428 12.6032 11.5205 12.4795C11.3968 12.3572 11.3203 12.1878 11.3203 12C11.3203 11.8135 11.3953 11.6446 11.5176 11.5225L11.5225 11.5176C11.6446 11.3953 11.8135 11.3203 12 11.3203ZM14.7061 11.3252C15.0785 11.3256 15.3809 11.6275 15.3809 12C15.3809 12.3725 15.0785 12.6744 14.7061 12.6748H14.6953C14.3225 12.6748 14.0195 12.3728 14.0195 12C14.0195 11.6272 14.3225 11.3252 14.6953 11.3252H14.7061ZM9.30566 11.3252C9.67823 11.3255 9.98047 11.6274 9.98047 12C9.98047 12.3726 9.67823 12.6745 9.30566 12.6748H9.29492C8.92217 12.6748 8.62012 12.3728 8.62012 12C8.62012 11.6272 8.92217 11.3252 9.29492 11.3252H9.30566ZM17.4004 8.62012C17.7729 8.62038 18.0751 8.92233 18.0752 9.29492V9.30566C18.0749 9.67807 17.7728 9.98021 17.4004 9.98047C17.0278 9.98047 16.7258 9.67823 16.7256 9.30566V9.29492C16.7256 8.92217 17.0276 8.62012 17.4004 8.62012ZM12 8.62012C12.3728 8.62012 12.6748 8.92217 12.6748 9.29492V9.30566C12.6745 9.67823 12.3726 9.98047 12 9.98047C11.6274 9.98047 11.3255 9.67823 11.3252 9.30566V9.29492C11.3252 8.92217 11.6272 8.62012 12 8.62012ZM17.4004 5.92578C17.773 5.92604 18.0752 6.22795 18.0752 6.60059V6.60547C18.0749 6.97788 17.7728 7.28099 17.4004 7.28125C17.2126 7.28125 17.0432 7.20304 16.9209 7.0791C16.7971 6.95689 16.7199 6.78822 16.7197 6.60059C16.7197 6.22795 17.022 5.92604 17.3945 5.92578H17.4004ZM12.0059 5.92578C12.3784 5.92609 12.6807 6.22799 12.6807 6.60059C12.6806 6.74013 12.638 6.87 12.5654 6.97754L12.4775 7.08301C12.3554 7.20535 12.1864 7.28125 12 7.28125C11.8136 7.28125 11.6446 7.20536 11.5225 7.08301L11.4346 6.97754C11.362 6.87 11.3204 6.74013 11.3203 6.60059C11.3203 6.22779 11.6223 5.92578 11.9951 5.92578H12.0059ZM14.7061 5.92578C15.0785 5.9262 15.3809 6.22805 15.3809 6.60059C15.3806 6.9729 15.0783 7.27498 14.7061 7.27539H14.6953C14.3227 7.27539 14.0198 6.97315 14.0195 6.60059C14.0195 6.22779 14.3225 5.92578 14.6953 5.92578H14.7061ZM9.30566 5.92578C9.67823 5.92604 9.98047 6.22796 9.98047 6.60059C9.98021 6.97299 9.67807 7.27513 9.30566 7.27539H9.29492C8.92233 7.27534 8.62038 6.97312 8.62012 6.60059C8.62012 6.22782 8.92217 5.92583 9.29492 5.92578H9.30566Z" fill="black"/>
</svg>
