<svg width="24" height="24" viewBox="0 0 24 24" fill="none" xmlns="http://www.w3.org/2000/svg">
<path fill-rule="evenodd" clip-rule="evenodd" d="M18.75 3.89941C19.1078 3.89944 19.451 4.04201 19.7041 4.29492C19.9573 4.5481 20.0996 4.89196 20.0996 5.25V18.75C20.0996 19.108 19.9573 19.451 19.7041 19.7041C19.451 19.9573 19.108 20.0996 18.75 20.0996H5.25C4.89196 20.0996 4.5481 19.9573 4.29492 19.7041C4.04201 19.451 3.89944 19.1078 3.89941 18.75V5.25C3.89941 4.89196 4.04175 4.5481 4.29492 4.29492C4.5481 4.04175 4.89196 3.89941 5.25 3.89941H18.75ZM6.60059 16.7197C6.22795 16.7197 5.92604 17.022 5.92578 17.3945V17.4004L5.93945 17.5361C6.00243 17.8434 6.27373 18.075 6.59961 18.0752H6.60645C6.97871 18.0747 7.28104 17.7727 7.28125 17.4004C7.28125 17.2123 7.20333 17.0423 7.0791 16.9199C6.95693 16.7964 6.78797 16.7199 6.60059 16.7197ZM9.29492 16.7256C8.92226 16.7257 8.62012 17.0277 8.62012 17.4004C8.62033 17.7729 8.92239 18.075 9.29492 18.0752H9.30566C9.67815 18.075 9.98123 17.7729 9.98145 17.4004C9.98145 17.0277 9.67828 16.7258 9.30566 16.7256H9.29492ZM12 16.7197C11.8138 16.7198 11.6455 16.795 11.5234 16.917L11.5176 16.9229C11.3955 17.045 11.3203 17.214 11.3203 17.4004C11.3205 17.773 11.6225 18.0751 11.9951 18.0752H12.0059C12.3783 18.075 12.6805 17.7729 12.6807 17.4004C12.6807 17.2134 12.6042 17.0441 12.4814 16.9219C12.359 16.797 12.1887 16.7197 12 16.7197ZM14.6953 16.7256C14.3225 16.7256 14.0205 17.0276 14.0205 17.4004C14.0207 17.773 14.3226 18.0752 14.6953 18.0752H14.7061C15.0785 18.0749 15.3806 17.7728 15.3809 17.4004C15.3809 17.0278 15.0786 16.7258 14.7061 16.7256H14.6953ZM17.4004 16.7197C17.214 16.7197 17.045 16.7948 16.9229 16.917L16.917 16.9229C16.7948 17.0449 16.7197 17.2141 16.7197 17.4004C16.7199 17.773 17.0228 18.0752 17.3955 18.0752H17.4004L17.5361 18.0615C17.8436 17.9986 18.075 17.7264 18.0752 17.4004V17.3945C18.0749 17.0221 17.7729 16.7199 17.4004 16.7197ZM6.60059 14.0195C6.22779 14.0195 5.92578 14.3225 5.92578 14.6953V14.7061C5.9262 15.0785 6.22805 15.3809 6.60059 15.3809C6.9729 15.3806 7.27497 15.0783 7.27539 14.7061V14.6953C7.27539 14.3227 6.97315 14.0198 6.60059 14.0195ZM12 14.0195C11.6273 14.0196 11.3252 14.3226 11.3252 14.6953V14.7061C11.3256 15.0785 11.6275 15.3808 12 15.3809C12.3725 15.3809 12.6744 15.0785 12.6748 14.7061V14.6953C12.6748 14.3225 12.3728 14.0195 12 14.0195ZM17.4004 14.0195C17.0276 14.0195 16.7256 14.3225 16.7256 14.6953V14.7061C16.726 15.0785 17.0279 15.3809 17.4004 15.3809C17.7728 15.3807 18.0748 15.0784 18.0752 14.7061V14.6953C18.0752 14.3226 17.773 14.0197 17.4004 14.0195ZM6.60059 11.3203C6.22779 11.3203 5.92578 11.6223 5.92578 11.9951V12.0059C5.92609 12.3784 6.22799 12.6807 6.60059 12.6807C6.78827 12.6805 6.95688 12.6023 7.0791 12.4785C7.20287 12.3562 7.28125 12.1877 7.28125 12C7.28125 11.812 7.20316 11.6428 7.0791 11.5205C6.95692 11.3971 6.78803 11.3204 6.60059 11.3203ZM12 11.3203C11.8123 11.3203 11.6418 11.3958 11.5195 11.5195C11.3959 11.6418 11.3203 11.8123 11.3203 12C11.3203 12.1865 11.3954 12.3554 11.5176 12.4775L11.5225 12.4824C11.6446 12.6047 11.8135 12.6806 12 12.6807C12.1877 12.6807 12.3572 12.6032 12.4795 12.4795C12.6032 12.3572 12.6807 12.1878 12.6807 12C12.6807 11.8135 12.6047 11.6446 12.4824 11.5225L12.4775 11.5176C12.3554 11.3954 12.1865 11.3203 12 11.3203ZM17.4004 11.3203C17.2606 11.3203 17.1302 11.3618 17.0225 11.4346L16.917 11.5225C16.7947 11.6446 16.7197 11.8136 16.7197 12C16.7197 12.1886 16.797 12.359 16.9219 12.4814C17.0441 12.6042 17.2135 12.6807 17.4004 12.6807C17.7729 12.6805 18.0749 12.3783 18.0752 12.0059V11.9951C18.0752 11.6224 17.773 11.3205 17.4004 11.3203ZM9.29492 11.3252C8.92226 11.3253 8.62012 11.6273 8.62012 12C8.62012 12.3727 8.92226 12.6747 9.29492 12.6748H9.30566C9.67828 12.6746 9.98145 12.3727 9.98145 12C9.98144 11.6273 9.67828 11.3254 9.30566 11.3252H9.29492ZM14.6953 11.3252C14.3225 11.3252 14.0205 11.6272 14.0205 12C14.0205 12.3728 14.3225 12.6748 14.6953 12.6748H14.7061C15.0786 12.6745 15.3809 12.3726 15.3809 12C15.3809 11.6274 15.0786 11.3255 14.7061 11.3252H14.6953ZM6.60059 8.62012C6.22782 8.62012 5.92583 8.92217 5.92578 9.29492V9.30566C5.92604 9.67823 6.22796 9.98047 6.60059 9.98047C6.97299 9.98021 7.27513 9.67807 7.27539 9.30566V9.29492C7.27534 8.92233 6.97312 8.62038 6.60059 8.62012ZM12 8.62012C11.6273 8.62017 11.3252 8.9222 11.3252 9.29492V9.30566C11.3255 9.6782 11.6274 9.98042 12 9.98047C12.3726 9.98047 12.6745 9.67823 12.6748 9.30566V9.29492C12.6748 8.92217 12.3728 8.62012 12 8.62012ZM17.4004 8.62012C17.0276 8.62012 16.7256 8.92217 16.7256 9.29492V9.30566C16.7258 9.67823 17.0278 9.98047 17.4004 9.98047C17.7729 9.98031 18.0749 9.67813 18.0752 9.30566V9.29492C18.0751 8.92227 17.773 8.62028 17.4004 8.62012ZM6.60059 5.92578C6.22796 5.92578 5.92604 6.22704 5.92578 6.59961V6.60547C5.92604 6.97804 6.22796 7.28125 6.60059 7.28125C6.61908 7.28124 6.63715 7.27687 6.65527 7.27539H11.9453C11.9634 7.27686 11.9815 7.28125 12 7.28125C12.0185 7.28125 12.0366 7.27685 12.0547 7.27539H17.3457C17.3637 7.27684 17.382 7.28125 17.4004 7.28125C17.7729 7.28109 18.0749 6.97794 18.0752 6.60547V6.60059C18.0752 6.22789 17.773 5.92594 17.4004 5.92578H6.60059Z" fill="black"/>
</svg>
