<svg viewBox="0 0 24 24" fill="none" xmlns="http://www.w3.org/2000/svg" width="24" height="24">
<path fill-rule="evenodd" clip-rule="evenodd" d="M3.721 2.279C2.925 2.279 2.279 2.925 2.279 3.721V20.279C2.279 21.075 2.925 21.72 3.721 21.72H20.279C21.075 21.719 21.719 21.075 21.72 20.279V3.721C21.719 2.925 21.075 2.28 20.279 2.279H3.721ZM14.936 17.671C15.382 17.671 15.745 18.033 15.745 18.48 15.745 18.927 15.382 19.29 14.936 19.29H9.055C8.608 19.29 8.246 18.928 8.245 18.48 8.245 18.033 8.608 17.671 9.055 17.671H14.936ZM18.479 8.245C18.927 8.245 19.289 8.608 19.289 9.055V14.936C19.288 15.382 18.926 15.745 18.479 15.745 18.033 15.745 17.67 15.382 17.67 14.936V9.055C17.67 8.608 18.032 8.246 18.479 8.245ZM5.52 8.245C5.967 8.245 6.329 8.608 6.329 9.055V14.936C6.329 15.382 5.967 15.745 5.52 15.745 5.073 15.745 4.71 15.382 4.71 14.936V9.055C4.71 8.608 5.072 8.246 5.52 8.245ZM14.934 4.711C15.381 4.711 15.744 5.074 15.744 5.521 15.744 5.968 15.381 6.33 14.934 6.33H9.054C8.607 6.33 8.244 5.968 8.244 5.521 8.244 5.074 8.607 4.711 9.054 4.711H14.934Z" fill="black"/>
</svg>