<svg width="24" height="24" viewBox="0 0 24 24" fill="none" xmlns="http://www.w3.org/2000/svg">
<path fill-rule="evenodd" clip-rule="evenodd" d="M4.5 3C4.1022 3.00002 3.72074 3.15816 3.43945 3.43945C3.15817 3.72075 3 4.10219 3 4.5V19.5C3 19.8978 3.15817 20.2792 3.43945 20.5605C3.72074 20.8418 4.1022 21 4.5 21H19.5C19.8978 21 20.2792 20.8418 20.5605 20.5605C20.8419 20.2792 21 19.8978 21 19.5V4.5C21 4.10218 20.8419 3.72076 20.5605 3.43945C20.2792 3.15817 19.8978 3 19.5 3H4.5ZM15.0723 16.0283C15.9006 16.0285 16.5723 16.7 16.5723 17.5283C16.5722 18.3566 15.9005 19.0282 15.0723 19.0283H8.82031C7.99195 19.0283 7.32041 18.3567 7.32031 17.5283C7.32031 16.6999 7.99189 16.0283 8.82031 16.0283H15.0723ZM18 7.12207C18.4141 7.12207 18.7499 7.45795 18.75 7.87207V15.5723C18.7498 15.9863 18.4141 16.3223 18 16.3223C17.5859 16.3223 17.2502 15.9863 17.25 15.5723V7.87207C17.2501 7.45795 17.5859 7.12207 18 7.12207ZM6 7.12207C6.41419 7.1221 6.75 7.45788 6.75 7.87207V15.5723C6.7498 15.9863 6.41406 16.3222 6 16.3223C5.58591 16.3223 5.2502 15.9863 5.25 15.5723V7.87207C5.25 7.45786 5.58579 7.12207 6 7.12207ZM15.8506 4.97168C16.2645 4.97202 16.6005 5.30776 16.6006 5.72168C16.6006 6.13569 16.2645 6.47134 15.8506 6.47168H8.15039C7.73618 6.47168 7.40039 6.13589 7.40039 5.72168C7.40049 5.30755 7.73624 4.97168 8.15039 4.97168H15.8506Z" fill="black"/>
</svg>
