<svg width="24" height="24" viewBox="0 0 24 24" fill="none" xmlns="http://www.w3.org/2000/svg">
<path fill-rule="evenodd" clip-rule="evenodd" d="M11.9453 7.27539C11.9634 7.27685 11.9815 7.28125 12 7.28125C12.0185 7.28125 12.0366 7.27685 12.0547 7.27539H16.7256V11.9414C16.7239 11.9608 16.7197 11.9801 16.7197 12C16.7197 12.0182 16.7242 12.0359 16.7256 12.0537V16.7256H12.0586C12.0392 16.7239 12.0199 16.7197 12 16.7197C11.9801 16.7197 11.9608 16.7239 11.9414 16.7256H7.27539V12.0537C7.2768 12.0359 7.28125 12.0182 7.28125 12C7.28125 11.9815 7.27685 11.9634 7.27539 11.9453V7.27539H11.9453ZM12 14.0195C11.6272 14.0195 11.3252 14.3225 11.3252 14.6953V14.7061C11.3256 15.0785 11.6275 15.3809 12 15.3809C12.3725 15.3809 12.6744 15.0785 12.6748 14.7061V14.6953C12.6748 14.3225 12.3728 14.0195 12 14.0195ZM12 11.3203C11.8122 11.3203 11.6418 11.3958 11.5195 11.5195C11.3958 11.6418 11.3203 11.8123 11.3203 12C11.3203 12.1865 11.3953 12.3554 11.5176 12.4775L11.5225 12.4824C11.6446 12.6047 11.8135 12.6807 12 12.6807C12.1878 12.6807 12.3572 12.6032 12.4795 12.4795C12.6032 12.3572 12.6807 12.1878 12.6807 12C12.6807 11.8135 12.6047 11.6446 12.4824 11.5225L12.4775 11.5176C12.3554 11.3953 12.1865 11.3203 12 11.3203ZM9.29492 11.3252C8.92226 11.3253 8.62012 11.6273 8.62012 12C8.62012 12.3727 8.92226 12.6747 9.29492 12.6748H9.30566C9.67823 12.6745 9.98145 12.3726 9.98145 12C9.98145 11.6274 9.67823 11.3255 9.30566 11.3252H9.29492ZM14.6953 11.3252C14.3225 11.3252 14.0205 11.6272 14.0205 12C14.0205 12.3728 14.3225 12.6748 14.6953 12.6748H14.7061C15.0786 12.6745 15.3809 12.3726 15.3809 12C15.3809 11.6274 15.0786 11.3255 14.7061 11.3252H14.6953ZM12 8.62012C11.6272 8.62012 11.3252 8.92217 11.3252 9.29492V9.30566C11.3255 9.67823 11.6274 9.98047 12 9.98047C12.3726 9.98047 12.6745 9.67823 12.6748 9.30566V9.29492C12.6748 8.92217 12.3728 8.62012 12 8.62012Z" fill="black"/>
<path fill-rule="evenodd" clip-rule="evenodd" d="M18.75 3.89941C19.108 3.89941 19.4519 4.04175 19.7051 4.29492C19.9583 4.5481 20.0996 4.89196 20.0996 5.25V18.75C20.0996 19.1078 19.958 19.451 19.7051 19.7041C19.4519 19.9573 19.108 20.0996 18.75 20.0996H5.25C4.89199 20.0996 4.54905 19.9573 4.2959 19.7041C4.04275 19.451 3.90042 19.108 3.90039 18.75V5.25C3.90039 4.89196 4.04272 4.5481 4.2959 4.29492C4.54901 4.04201 4.89218 3.89944 5.25 3.89941H18.75ZM6.60059 5.92578C6.22796 5.92578 5.92604 6.22704 5.92578 6.59961V17.4004L5.93945 17.5361C6.00247 17.8435 6.27449 18.0752 6.60059 18.0752H17.4004L17.5361 18.0605C17.8434 17.9976 18.075 17.7263 18.0752 17.4004V6.60059C18.0752 6.22796 17.773 5.92604 17.4004 5.92578H6.60059Z" fill="black"/>
</svg>
