<svg viewBox="0 0 24 24" fill="none" xmlns="http://www.w3.org/2000/svg" width="24" height="24">
<path fill-rule="evenodd" clip-rule="evenodd" d="M3.721 2.279C2.925 2.279 2.279 2.925 2.279 3.721V20.279C2.279 21.075 2.925 21.72 3.721 21.72H20.279C21.075 21.719 21.719 21.075 21.72 20.279V3.721C21.719 2.925 21.075 2.28 20.279 2.279H3.721ZM18.486 16.044C18.933 16.044 19.296 16.407 19.296 16.854 19.296 17.301 18.934 17.664 18.486 17.664 18.039 17.664 17.677 17.301 17.677 16.854 17.677 16.407 18.039 16.044 18.486 16.044ZM14.166 16.044C14.613 16.044 14.976 16.407 14.977 16.854 14.977 17.301 14.613 17.664 14.166 17.664 13.719 17.663 13.356 17.301 13.356 16.854 13.356 16.407 13.719 16.044 14.166 16.044ZM9.846 16.044C10.293 16.044 10.656 16.407 10.656 16.854 10.656 17.301 10.293 17.664 9.846 17.664 9.399 17.664 9.036 17.301 9.036 16.854 9.036 16.407 9.399 16.044 9.846 16.044ZM5.527 16.044C5.974 16.044 6.336 16.407 6.336 16.854 6.336 17.301 5.974 17.663 5.527 17.664 5.079 17.664 4.716 17.301 4.716 16.854 4.716 16.407 5.079 16.044 5.527 16.044ZM18.48 11.19C18.927 11.19 19.29 11.553 19.29 12 19.29 12.447 18.928 12.81 18.48 12.81H14.161C13.714 12.81 13.35 12.447 13.35 12 13.35 11.553 13.714 11.19 14.161 11.19H18.48ZM9.84 11.19C10.287 11.19 10.65 11.553 10.65 12 10.65 12.447 10.288 12.81 9.84 12.81H5.521C5.073 12.81 4.71 12.447 4.71 12 4.71 11.553 5.073 11.19 5.521 11.19H9.84ZM18.479 6.33C18.927 6.33 19.289 6.693 19.289 7.14 19.289 7.588 18.927 7.95 18.479 7.95H5.52C5.072 7.95 4.71 7.587 4.71 7.14 4.71 6.693 5.073 6.33 5.521 6.33H18.479Z" fill="black"/>
</svg>