<svg width="24" height="24" viewBox="0 0 24 24" fill="none" xmlns="http://www.w3.org/2000/svg">
<path fill-rule="evenodd" clip-rule="evenodd" d="M19.5 3C19.8978 3 20.2792 3.15815 20.5605 3.43945C20.8419 3.72076 21 4.10218 21 4.5V19.5C21 19.8978 20.8419 20.2792 20.5605 20.5605C20.2792 20.8419 19.8978 21 19.5 21H4.5C4.10218 21 3.72076 20.8419 3.43945 20.5605C3.15815 20.2792 3 19.8978 3 19.5V4.5C3 4.10218 3.15815 3.72076 3.43945 3.43945C3.72076 3.15815 4.10218 3 4.5 3H19.5ZM6 17.2441C5.79315 17.2443 5.60534 17.3283 5.46973 17.4639L5.4668 17.4668C5.33117 17.6024 5.24719 17.7901 5.24707 17.9971V18.002C5.24707 18.416 5.58305 18.7517 5.99707 18.752C6.2062 18.752 6.39425 18.6654 6.53027 18.5273C6.66822 18.3913 6.75486 18.2031 6.75488 17.9941C6.75465 17.5802 6.41881 17.2443 6.00488 17.2441H6ZM12 5.24707C11.5861 5.2473 11.2502 5.5832 11.25 5.99707V8.93848C11.2485 8.95769 11.2471 8.97748 11.2471 8.99707V9.00195C11.2471 9.02116 11.2486 9.04072 11.25 9.05957V11.25H9.06641C9.04756 11.2486 9.028 11.2471 9.00879 11.2471H9.00391C8.98465 11.2471 8.96518 11.2486 8.94629 11.25H6.06152C6.04296 11.2486 6.0238 11.2471 6.00488 11.2471H6C5.7405 11.2472 5.5115 11.3797 5.37695 11.5801C5.29508 11.7002 5.24718 11.8457 5.24707 12.002C5.24707 12.416 5.58305 12.7517 5.99707 12.752H6.00195C6.0149 12.752 6.02823 12.7507 6.04102 12.75H11.25V14.9346C11.2485 14.9536 11.2471 14.9737 11.2471 14.9932V14.998C11.2471 15.017 11.2486 15.0361 11.25 15.0547V17.9385C11.2485 17.9577 11.2471 17.9775 11.2471 17.9971V18.002C11.2471 18.416 11.5831 18.7517 11.9971 18.752C12.205 18.752 12.3925 18.6669 12.5283 18.5303C12.5382 18.5205 12.5454 18.5084 12.5547 18.498C12.6088 18.4372 12.6563 18.3701 12.6885 18.2939C12.7176 18.2259 12.7383 18.1528 12.7461 18.0762L12.75 17.999V12.75H17.958C17.9708 12.7507 17.9841 12.7519 17.9971 12.752H18.002C18.1963 12.752 18.3716 12.676 18.5049 12.5547C18.657 12.4175 18.7548 12.2209 18.7549 12C18.7547 11.5861 18.4188 11.2502 18.0049 11.25H15.0615C15.043 11.2486 15.0238 11.2471 15.0049 11.2471H15C14.9809 11.2471 14.9611 11.2486 14.9424 11.25H12.75V5.99707C12.7498 5.5832 12.4139 5.2473 12 5.24707ZM18 17.2461C17.9471 17.2461 17.8946 17.2522 17.8447 17.2627C17.5039 17.3332 17.2473 17.6354 17.2471 17.9971V18.002C17.2471 18.416 17.5831 18.7517 17.9971 18.752C18.1547 18.752 18.3002 18.7022 18.4209 18.6191C18.6217 18.4846 18.7549 18.256 18.7549 17.9961C18.7544 17.5824 18.4187 17.2463 18.0049 17.2461H18ZM9.00391 17.2441C8.59003 17.2444 8.25414 17.5803 8.25391 17.9941C8.25394 18.4082 8.58991 18.7439 9.00391 18.7441H9.00879C9.42298 18.7441 9.75875 18.4083 9.75879 17.9941C9.75856 17.5801 9.42286 17.2441 9.00879 17.2441H9.00391ZM15 17.2441C14.5861 17.2444 14.2502 17.5803 14.25 17.9941C14.25 18.4082 14.586 18.7439 15 18.7441H15.0049C15.4189 18.744 15.7548 18.4082 15.7549 17.9941C15.7547 17.5802 15.4188 17.2443 15.0049 17.2441H15ZM5.99707 14.2432C5.5832 14.2434 5.2473 14.5793 5.24707 14.9932V14.998C5.24724 15.412 5.58316 15.7478 5.99707 15.748C6.41118 15.748 6.7469 15.4121 6.74707 14.998V14.9932C6.74684 14.5791 6.41114 14.2432 5.99707 14.2432ZM17.9971 14.2432C17.5832 14.2434 17.2473 14.5793 17.2471 14.9932V14.998C17.2472 15.412 17.5832 15.7478 17.9971 15.748C18.4112 15.748 18.7469 15.4121 18.7471 14.998V14.9932C18.7468 14.5791 18.4111 14.2432 17.9971 14.2432ZM5.99707 8.24707C5.5832 8.2473 5.2473 8.5832 5.24707 8.99707V9.00195C5.24707 9.41602 5.58305 9.75172 5.99707 9.75195C6.41128 9.75195 6.74707 9.41617 6.74707 9.00195V8.99707C6.74684 8.58305 6.41114 8.24707 5.99707 8.24707ZM17.9971 8.24707C17.5832 8.2473 17.2473 8.5832 17.2471 8.99707V9.00195C17.2471 9.41602 17.5831 9.75172 17.9971 9.75195C18.4113 9.75195 18.7471 9.41617 18.7471 9.00195V8.99707C18.7468 8.58305 18.4111 8.24707 17.9971 8.24707ZM6 5.24707C5.58613 5.2473 5.25023 5.5832 5.25 5.99707V6.00195C5.25 6.41602 5.58598 6.75172 6 6.75195C6.15533 6.75187 6.29928 6.70399 6.41895 6.62305C6.62066 6.48871 6.75474 6.2605 6.75488 6C6.75471 5.68965 6.56576 5.42248 6.29688 5.30859C6.20595 5.26936 6.10531 5.24713 6 5.24707ZM18 5.24707C17.5861 5.2473 17.2502 5.5832 17.25 5.99707V6.00195C17.25 6.41602 17.586 6.75172 18 6.75195H18.0049C18.419 6.75179 18.7549 6.41606 18.7549 6.00195C18.7547 5.79387 18.6692 5.60551 18.5322 5.46973C18.3964 5.33278 18.2081 5.24719 18 5.24707ZM9.00391 5.25C8.59003 5.25023 8.25414 5.58612 8.25391 6C8.25414 6.41387 8.59003 6.74977 9.00391 6.75H9.00879C9.42286 6.75 9.75856 6.41402 9.75879 6C9.75856 5.58598 9.42286 5.25 9.00879 5.25H9.00391ZM15 5.25C14.5861 5.25023 14.2502 5.58612 14.25 6C14.2502 6.41387 14.5861 6.74977 15 6.75H15.0049C15.4188 6.74983 15.7547 6.41391 15.7549 6C15.7547 5.58609 15.4188 5.25017 15.0049 5.25H15Z" fill="black"/>
</svg>
