<svg width="24" height="24" viewBox="0 0 24 24" fill="none" xmlns="http://www.w3.org/2000/svg">
<path fill-rule="evenodd" clip-rule="evenodd" d="M5.10059 3.89941C4.43745 3.89946 3.89957 4.43747 3.89941 5.10059V18.8994C3.89957 19.5625 4.43744 20.0996 5.10059 20.0996H18.8994C19.5624 20.0993 20.0995 19.5624 20.0996 18.8994V5.10059C20.0995 4.4376 19.5624 3.89968 18.8994 3.89941H5.10059ZM17.4053 15.3701C17.7779 15.3702 18.08 15.6723 18.0801 16.0449C18.0801 16.4176 17.778 16.7196 17.4053 16.7197C17.0325 16.7197 16.7305 16.4177 16.7305 16.0449C16.7306 15.6722 17.0325 15.3701 17.4053 15.3701ZM13.8047 15.3701C14.1774 15.3701 14.4804 15.6722 14.4805 16.0449C14.4805 16.4177 14.1775 16.7197 13.8047 16.7197C13.4321 16.7195 13.1299 16.4176 13.1299 16.0449C13.13 15.6723 13.4321 15.3703 13.8047 15.3701ZM10.2051 15.3701C10.5778 15.3701 10.8798 15.6722 10.8799 16.0449C10.8799 16.4177 10.5779 16.7197 10.2051 16.7197C9.83229 16.7197 9.53027 16.4177 9.53027 16.0449C9.53036 15.6722 9.83234 15.3701 10.2051 15.3701ZM6.60547 15.3701C6.97803 15.3703 7.28019 15.6723 7.28027 16.0449C7.28027 16.4176 6.97808 16.7195 6.60547 16.7197C6.23268 16.7197 5.92969 16.4177 5.92969 16.0449C5.92977 15.6722 6.23273 15.3701 6.60547 15.3701ZM17.4004 11.3252C17.7729 11.3254 18.0751 11.6274 18.0752 12C18.0752 12.3727 17.773 12.6746 17.4004 12.6748H13.8008C13.428 12.6748 13.125 12.3728 13.125 12C13.1251 11.6273 13.4281 11.3252 13.8008 11.3252H17.4004ZM10.2002 11.3252C10.5729 11.3252 10.8749 11.6273 10.875 12C10.875 12.3728 10.573 12.6748 10.2002 12.6748H6.60059C6.22779 12.6748 5.9248 12.3728 5.9248 12C5.92491 11.6273 6.22786 11.3252 6.60059 11.3252H10.2002ZM17.3994 7.27539C17.7722 7.27539 18.0742 7.5774 18.0742 7.9502C18.0742 8.32299 17.7722 8.625 17.3994 8.625H6.59961C6.22704 8.62474 5.9248 8.32282 5.9248 7.9502C5.9248 7.5774 6.22779 7.27539 6.60059 7.27539H17.3994Z" fill="black"/>
</svg>
