<?xml version="1.0" encoding="utf-8"?>
<svg xmlns="http://www.w3.org/2000/svg" width="512" height="512" viewBox="0 0 512 512">
  <path d="M448 32v32H32V32h416zM64 96H32v32h32V96zm0 96H32v-32h32v32zm0 64H32v-32h32v32zm0 64H32v-32h32v32zm0 64H32v-32h32v32zm384-192h-32v-32h32v32zm0 64h-32v-32h32v32zm0 64h-32v-32h32v32zm0 64h-32v-32h32v32zM128 256H96v-32h32v32zm64 0h-32v-32h32v32zm64-128h-32V96h32v32zm0 64h-32v-32h32v32zm0 64h-32v-32h32v32zm0 64h-32v-32h32v32zm0 64h-32v-32h32v32zm0 64h-32v-32h32v32zM64 416H32v32h32v-32zm64 32H96v-32h32v32zm64 0h-32v-32h32v32zm128-32h-32v32h32v-32zm64 32h-32v-32h32v32zm64 0h-32v-32h32v32zM320 224h-32v32h32v-32zm64 32h-32v-32h32v32zm64-128h-32V96h32v32z"/>
</svg>
