<svg viewBox="0 0 24 24" fill="none" xmlns="http://www.w3.org/2000/svg" width="24" height="24">
<path fill-rule="evenodd" clip-rule="evenodd" d="M21.72 20.399C21.72 21.195 21.075 21.84 20.279 21.84H3.721C2.925 21.84 2.28 21.195 2.28 20.399L2.28 3.841C2.281 3.046 2.925 2.4 3.721 2.4L20.279 2.4C21.075 2.4 21.719 3.046 21.72 3.841V20.399ZM17.064 16.248C17.064 15.801 16.701 15.438 16.254 15.438 14.212 15.438 12.254 14.627 10.811 13.184 9.367 11.74 8.556 9.782 8.556 7.74 8.556 7.293 8.193 6.931 7.746 6.93 7.299 6.93 6.936 7.293 6.936 7.74 6.936 10.211 7.917 12.581 9.664 14.328 11.412 16.076 13.783 17.058 16.254 17.058 16.701 17.058 17.064 16.695 17.064 16.248Z" fill="black"/>
</svg>