<svg viewBox="0 0 24 24" fill="none" xmlns="http://www.w3.org/2000/svg" width="24" height="24">
<path d="M21.72 20.279C21.719 21.075 21.075 21.719 20.279 21.72L3.721 21.72C2.925 21.72 2.281 21.075 2.28 20.279L2.28 3.721C2.281 2.925 2.925 2.281 3.721 2.28L20.279 2.28C21.075 2.281 21.719 2.925 21.72 3.721L21.72 20.279ZM17.214 7.896C17.214 7.449 16.851 7.086 16.404 7.086 13.933 7.086 11.562 8.068 9.814 9.816 8.067 11.563 7.086 13.933 7.086 16.404 7.086 16.851 7.449 17.214 7.896 17.214 8.343 17.214 8.706 16.851 8.706 16.404 8.706 14.362 9.517 12.404 10.961 10.961 12.404 9.517 14.362 8.706 16.404 8.706 16.851 8.706 17.214 8.343 17.214 7.896Z" fill="black"/>
</svg>