<svg viewBox="0 0 24 24" fill="none" xmlns="http://www.w3.org/2000/svg" width="24" height="24">
<path fill-rule="evenodd" clip-rule="evenodd" d="M3.9 2.28C3.47 2.28 3.058 2.451 2.754 2.755 2.45 3.059 2.281 3.471 2.28 3.9V20.1C2.28 20.53 2.45 20.942 2.754 21.246 3.058 21.55 3.47 21.721 3.9 21.721H20.1C20.529 21.721 20.941 21.55 21.245 21.246 21.549 20.942 21.72 20.53 21.72 20.1V3.9C21.72 3.47 21.549 3.059 21.245 2.755 20.941 2.451 20.53 2.281 20.1 2.28H3.9ZM18.48 17.664C18.927 17.664 19.29 18.027 19.29 18.473V18.48L19.273 18.643C19.197 19.012 18.872 19.29 18.48 19.29H18.473C18.027 19.29 17.664 18.927 17.664 18.48 17.664 18.255 17.756 18.051 17.905 17.904 18.052 17.756 18.255 17.664 18.48 17.664ZM15.247 17.671C15.694 17.671 16.057 18.033 16.057 18.48 16.057 18.927 15.694 19.29 15.247 19.29H15.234C14.787 19.29 14.424 18.928 14.423 18.48 14.423 18.033 14.787 17.671 15.234 17.671H15.247ZM12 17.664C12.223 17.664 12.425 17.754 12.572 17.9L12.579 17.907C12.725 18.054 12.817 18.257 12.817 18.48 12.816 18.927 12.454 19.29 12.007 19.29H11.994C11.547 19.29 11.185 18.928 11.184 18.48 11.184 18.255 11.277 18.051 11.426 17.904 11.572 17.756 11.775 17.664 12 17.664ZM8.767 17.671C9.214 17.671 9.577 18.033 9.577 18.48 9.576 18.927 9.214 19.29 8.767 19.29H8.754C8.307 19.29 7.944 18.927 7.944 18.48 7.944 18.033 8.307 17.671 8.754 17.671H8.767ZM5.527 4.711C5.974 4.711 6.338 5.074 6.338 5.521 6.337 5.543 6.332 5.564 6.33 5.585V11.934C6.332 11.956 6.338 11.978 6.338 12 6.338 12.022 6.332 12.043 6.33 12.064V18.403C6.333 18.429 6.338 18.454 6.338 18.48 6.337 18.927 5.973 19.29 5.527 19.29H5.52C5.073 19.29 4.71 18.927 4.71 18.48L4.711 5.521C4.711 5.073 5.073 4.711 5.521 4.711H5.527ZM18.48 14.423C18.928 14.424 19.29 14.787 19.29 15.234V15.247C19.29 15.694 18.927 16.057 18.48 16.057 18.033 16.057 17.671 15.694 17.671 15.247V15.234C17.671 14.787 18.033 14.423 18.48 14.423ZM12 14.423C12.447 14.423 12.81 14.787 12.81 15.234V15.247C12.809 15.694 12.447 16.057 12 16.057 11.553 16.057 11.191 15.694 11.19 15.247V15.234C11.19 14.787 11.553 14.423 12 14.423ZM18.48 11.184C18.928 11.185 19.29 11.547 19.29 11.994V12.007C19.29 12.454 18.927 12.816 18.48 12.817 18.255 12.817 18.052 12.723 17.905 12.574 17.757 12.427 17.664 12.225 17.664 12 17.664 11.774 17.756 11.571 17.905 11.425 18.052 11.276 18.255 11.184 18.48 11.184ZM12 11.184C12.225 11.184 12.43 11.275 12.577 11.423 12.725 11.57 12.817 11.775 12.817 12 12.817 12.224 12.726 12.426 12.579 12.573L12.573 12.579C12.426 12.726 12.224 12.817 12 12.817 11.775 12.817 11.571 12.724 11.425 12.575 11.276 12.429 11.184 12.225 11.184 12 11.184 11.776 11.274 11.574 11.421 11.427L11.427 11.421C11.574 11.274 11.776 11.184 12 11.184ZM15.247 11.19C15.694 11.191 16.057 11.553 16.057 12 16.057 12.447 15.694 12.809 15.247 12.81H15.234C14.787 12.81 14.423 12.447 14.423 12 14.423 11.553 14.787 11.19 15.234 11.19H15.247ZM8.767 11.19C9.214 11.191 9.577 11.553 9.577 12 9.577 12.447 9.214 12.809 8.767 12.81H8.754C8.307 12.81 7.944 12.447 7.944 12 7.944 11.553 8.307 11.19 8.754 11.19H8.767ZM18.48 7.944C18.927 7.944 19.29 8.307 19.29 8.754V8.767C19.29 9.214 18.927 9.576 18.48 9.577 18.033 9.577 17.671 9.214 17.671 8.767V8.754C17.671 8.307 18.033 7.944 18.48 7.944ZM12 7.944C12.447 7.944 12.81 8.307 12.81 8.754V8.767C12.809 9.214 12.447 9.577 12 9.577 11.553 9.577 11.191 9.214 11.19 8.767V8.754C11.19 8.307 11.553 7.944 12 7.944ZM18.48 4.711C18.928 4.711 19.29 5.074 19.29 5.521V5.527C19.29 5.973 18.927 6.337 18.48 6.338 18.255 6.338 18.052 6.244 17.905 6.095 17.757 5.948 17.664 5.746 17.664 5.521 17.664 5.074 18.026 4.711 18.473 4.711H18.48ZM12.007 4.711C12.454 4.711 12.817 5.074 12.817 5.521 12.817 5.688 12.766 5.844 12.678 5.973L12.573 6.1C12.426 6.246 12.224 6.338 12 6.338 11.776 6.338 11.574 6.246 11.427 6.1L11.322 5.973C11.234 5.844 11.184 5.688 11.184 5.521 11.184 5.073 11.547 4.711 11.994 4.711H12.007ZM15.247 4.711C15.694 4.711 16.057 5.074 16.057 5.521 16.057 5.967 15.694 6.33 15.247 6.33H15.234C14.787 6.33 14.424 5.968 14.423 5.521 14.423 5.073 14.787 4.711 15.234 4.711H15.247ZM8.767 4.711C9.214 4.711 9.577 5.074 9.577 5.521 9.576 5.968 9.214 6.33 8.767 6.33H8.754C8.307 6.33 7.944 5.968 7.944 5.521 7.944 5.073 8.307 4.711 8.754 4.711H8.767Z" fill="black"/>
</svg>