<svg width="24" height="24" viewBox="0 0 24 24" fill="none" xmlns="http://www.w3.org/2000/svg">
<path fill-rule="evenodd" clip-rule="evenodd" d="M19.5 3C19.8978 3 20.2792 3.15815 20.5605 3.43945C20.8419 3.72076 21 4.10218 21 4.5V19.5C21 19.8978 20.8419 20.2792 20.5605 20.5605C20.2792 20.8419 19.8978 21 19.5 21H4.5C4.10218 21 3.72076 20.8419 3.43945 20.5605C3.15815 20.2792 3 19.8978 3 19.5V4.5C3 4.10218 3.15815 3.72076 3.43945 3.43945C3.72076 3.15815 4.10218 3 4.5 3H19.5ZM11.9414 5.25195H6.54395C5.82865 5.25211 5.24908 5.83156 5.24902 6.54688V8.94043C5.24754 8.95968 5.24609 8.9794 5.24609 8.99902V9.00391C5.24611 9.02317 5.24759 9.04263 5.24902 9.06152V11.9463C5.24758 11.9652 5.2461 11.9846 5.24609 12.0039C5.24611 12.0232 5.24759 12.0426 5.24902 12.0615V14.9365C5.24756 14.9556 5.24609 14.9756 5.24609 14.9951V15C5.24612 15.019 5.24762 15.038 5.24902 15.0566V17.4561C5.24919 18.1713 5.82872 18.7518 6.54395 18.752H9.54883C9.96269 18.7518 10.2984 18.4158 10.2988 18.002C10.2988 17.5878 9.96293 17.2521 9.54883 17.252H9.09766C9.06826 17.2484 9.03815 17.2461 9.00781 17.2461H9.00293C8.97256 17.2461 8.94251 17.2484 8.91309 17.252H6.74902V12.0811C6.75194 12.0542 6.75389 12.0266 6.75391 11.999C6.75391 11.9707 6.75208 11.9425 6.74902 11.915V6.75195H11.916C11.9431 6.75492 11.9712 6.75683 11.999 6.75684C12.0267 6.75682 12.0542 6.75489 12.0811 6.75195H17.249V8.94043C17.2475 8.95968 17.2461 8.9794 17.2461 8.99902V9.00391C17.2461 9.02317 17.2476 9.04263 17.249 9.06152V11.9463C17.2476 11.9652 17.2461 11.9846 17.2461 12.0039C17.2463 12.4179 17.5821 12.7538 17.9961 12.7539H18.001C18.1952 12.7539 18.3707 12.6778 18.5039 12.5566C18.6559 12.4195 18.7537 12.2228 18.7539 12.002C18.7539 11.9738 18.752 11.9453 18.749 11.918V6.54688C18.749 5.83146 18.1685 5.25195 17.4531 5.25195H12.0557C12.037 5.25055 12.018 5.24903 11.999 5.24902C11.9798 5.24903 11.9602 5.25053 11.9414 5.25195ZM18.5293 13.6533C18.2364 13.3605 17.7616 13.3605 17.4688 13.6533L14.1807 16.9414L13.0742 15.835C12.7813 15.5421 12.3066 15.5421 12.0137 15.835C11.7211 16.1279 11.7209 16.6027 12.0137 16.8955L13.6504 18.5322C13.791 18.6726 13.982 18.7519 14.1807 18.752C14.3793 18.7519 14.5704 18.6726 14.7109 18.5322L18.5293 14.7139C18.822 14.4211 18.8218 13.9462 18.5293 13.6533ZM11.999 11.249C11.7394 11.2491 11.5106 11.3815 11.376 11.582C11.2942 11.7022 11.2461 11.8476 11.2461 12.0039C11.2463 12.4179 11.5821 12.7538 11.9961 12.7539H12.001C12.4151 12.7539 12.7508 12.418 12.751 12.0039C12.751 11.8475 12.703 11.7022 12.6211 11.582C12.4866 11.3816 12.2585 11.2492 11.999 11.249ZM9.00293 11.249C8.5888 11.2491 8.25293 11.5849 8.25293 11.999C8.2531 12.413 8.5889 12.7489 9.00293 12.749H9.00781C9.42192 12.749 9.75765 12.4131 9.75781 11.999C9.75781 11.5848 9.42203 11.249 9.00781 11.249H9.00293ZM14.999 11.249C14.5849 11.2491 14.249 11.5849 14.249 11.999C14.2492 12.413 14.585 12.7489 14.999 12.749H15.0039C15.4179 12.7489 15.7537 12.413 15.7539 11.999C15.7539 11.5849 15.418 11.2492 15.0039 11.249H14.999ZM11.9961 8.24902C11.582 8.24912 11.2461 8.58487 11.2461 8.99902V9.00391C11.2463 9.41792 11.5821 9.75381 11.9961 9.75391C12.4102 9.75391 12.7459 9.41798 12.7461 9.00391V8.99902C12.7461 8.58481 12.4103 8.24902 11.9961 8.24902Z" fill="black"/>
</svg>
