<svg width="24" height="24" viewBox="0 0 24 24" fill="none" xmlns="http://www.w3.org/2000/svg">
<path d="M11.0889 12.75V17.25H6.58887V12.75H11.0889Z" fill="black"/>
<path d="M17.0889 12.75V17.25H12.5889V12.75H17.0889Z" fill="black"/>
<path d="M11.0889 6.75V11.25H6.58887V6.75H11.0889Z" fill="black"/>
<path d="M17.0889 6.75V11.25H12.5889V6.75H17.0889Z" fill="black"/>
<path fill-rule="evenodd" clip-rule="evenodd" d="M19.3389 3C19.7367 3 20.1191 3.15815 20.4004 3.43945C20.6815 3.72073 20.8389 4.1023 20.8389 4.5V19.5C20.8389 19.8977 20.6815 20.2793 20.4004 20.5605C20.1191 20.8419 19.7367 21 19.3389 21H4.33887C3.9412 20.9999 3.55952 20.8418 3.27832 20.5605C2.99715 20.2793 2.83887 19.8977 2.83887 19.5V4.5C2.83887 4.10228 2.99715 3.72074 3.27832 3.43945C3.55952 3.15825 3.9412 3.00011 4.33887 3H19.3389ZM6.38477 5.25C5.6695 5.25023 5.08887 5.83058 5.08887 6.5459V17.4541C5.08887 18.1694 5.6695 18.7498 6.38477 18.75H17.293C18.0084 18.75 18.5889 18.1696 18.5889 17.4541V6.5459C18.5889 5.83044 18.0084 5.25 17.293 5.25H6.38477Z" fill="black"/>
</svg>
