<svg viewBox="0 0 24 24" fill="none" xmlns="http://www.w3.org/2000/svg" width="24" height="24">
<path d="M21.72 20.279C21.719 21.075 21.075 21.719 20.279 21.72L3.721 21.72C2.925 21.72 2.281 21.075 2.28 20.279L2.28 3.721C2.281 2.925 2.925 2.281 3.721 2.28L20.279 2.28C21.075 2.281 21.719 2.925 21.72 3.721L21.72 20.279ZM17.064 7.74C17.064 7.293 16.701 6.93 16.254 6.93 15.807 6.931 15.444 7.293 15.444 7.74 15.444 9.782 14.633 11.74 13.189 13.184 11.746 14.627 9.788 15.438 7.746 15.438 7.299 15.438 6.936 15.801 6.936 16.248 6.936 16.695 7.299 17.058 7.746 17.058 10.217 17.058 12.588 16.076 14.336 14.328 16.083 12.581 17.064 10.211 17.064 7.74Z" fill="black"/>
</svg>