<svg viewBox="0 0 24 24" fill="none" xmlns="http://www.w3.org/2000/svg" width="24" height="24">
<path fill-rule="evenodd" clip-rule="evenodd" d="M2.1 0.18C1.04 0.18 0.18 1.04 0.18 2.1V21.9C0.18 22.96 1.04 23.82 2.1 23.82H21.9C22.96 23.82 23.82 22.96 23.82 21.9V2.1C23.82 1.04 22.96 0.18 21.9 0.18H2.1ZM18.475 16.86C18.922 16.86 19.284 17.222 19.284 17.67 19.284 18.117 18.922 18.479 18.475 18.479H5.527C5.079 18.479 4.716 18.117 4.716 17.67 4.716 17.222 5.079 16.86 5.527 16.86H18.475ZM18.384 12C18.881 12 19.284 12.403 19.284 12.9V14.34C19.284 14.837 18.881 15.24 18.384 15.24H5.616C5.119 15.24 4.716 14.837 4.716 14.34V12.9C4.716 12.403 5.119 12 5.616 12H18.384ZM18.384 5.521C18.881 5.521 19.284 5.924 19.284 6.421V9.48C19.284 9.977 18.881 10.38 18.384 10.38H5.616C5.119 10.38 4.716 9.977 4.716 9.48V6.42C4.716 5.923 5.119 5.521 5.616 5.521H18.384Z" fill="black"/>
</svg>