<svg width="24" height="24" viewBox="0 0 24 24" fill="none" xmlns="http://www.w3.org/2000/svg">
<path fill-rule="evenodd" clip-rule="evenodd" d="M4.33398 2.6875C3.59725 2.68761 3.00023 3.28478 3 4.02148V19.3535C3.00012 20.0903 3.59717 20.6874 4.33398 20.6875H19.666C20.4027 20.6873 20.9999 20.0903 21 19.3535V4.02148C20.9998 3.28485 20.4027 2.68773 19.666 2.6875H4.33398ZM18 16.5C18.4142 16.5 18.75 16.8358 18.75 17.25C18.7499 17.6642 18.4142 18 18 18H6C5.58583 18 5.25007 17.6642 5.25 17.25C5.25 16.8358 5.58579 16.5 6 16.5H18ZM17.4043 12.001C18.1601 12.0778 18.7499 12.7161 18.75 13.4922C18.7499 14.32 18.0788 14.9912 17.251 14.9912H6.74902C5.92119 14.9912 5.2501 14.32 5.25 13.4922C5.25006 12.6643 5.92116 11.9932 6.74902 11.9932H17.251L17.4043 12.001ZM16.502 6C17.7435 6.00011 18.7499 7.00653 18.75 8.24805C18.75 9.48965 17.7435 10.496 16.502 10.4961H7.49805C6.25647 10.496 5.25 9.48965 5.25 8.24805C5.25011 7.00653 6.25653 6.00011 7.49805 6H16.502Z" fill="black"/>
</svg>
