<svg viewBox="0 0 24 24" fill="none" xmlns="http://www.w3.org/2000/svg" width="24" height="24">
<path d="M20.1 2.28C20.53 2.281 20.941 2.451 21.245 2.755 21.549 3.059 21.72 3.47 21.72 3.9V20.1C21.72 20.53 21.549 20.942 21.245 21.246 20.941 21.55 20.529 21.72 20.1 21.72H3.9C3.47 21.72 3.058 21.55 2.754 21.246 2.45 20.942 2.28 20.53 2.28 20.1L2.279 3.9C2.279 3.471 2.45 3.059 2.754 2.755 3.058 2.451 3.47 2.28 3.9 2.28H20.1ZM5.52 4.71C5.305 4.71 5.099 4.796 4.948 4.948 4.796 5.099 4.71 5.305 4.71 5.52V18.48C4.71 18.695 4.796 18.9 4.948 19.052 5.099 19.204 5.305 19.29 5.52 19.29H10.47C10.684 19.29 10.891 19.204 11.043 19.052 11.194 18.901 11.279 18.695 11.279 18.48 11.279 18.266 11.194 18.059 11.043 17.907 10.891 17.756 10.684 17.67 10.47 17.67H6.33V12.064C6.332 12.043 6.338 12.022 6.338 12 6.338 11.978 6.332 11.956 6.33 11.934V6.33H11.934C11.956 6.332 11.978 6.338 12 6.338 12.022 6.338 12.044 6.332 12.066 6.33H17.67V11.941C17.668 11.961 17.664 11.98 17.664 12 17.664 12.395 17.946 12.721 18.32 12.793 18.329 12.795 18.338 12.795 18.347 12.797 18.388 12.803 18.431 12.81 18.475 12.81H18.48C18.535 12.81 18.588 12.804 18.641 12.793 18.657 12.79 18.673 12.784 18.689 12.779 18.724 12.77 18.759 12.76 18.792 12.747 18.824 12.733 18.853 12.715 18.882 12.698 18.898 12.689 18.915 12.682 18.93 12.672 19.061 12.584 19.164 12.46 19.226 12.314 19.267 12.216 19.29 12.109 19.29 12V5.52C19.29 5.305 19.204 5.099 19.052 4.948 18.901 4.796 18.695 4.71 18.48 4.71H5.52ZM18.48 13.62C18.266 13.62 18.059 13.705 17.907 13.857L14.43 17.334 13.384 16.287C13.232 16.135 13.026 16.05 12.811 16.05 12.596 16.05 12.39 16.135 12.238 16.287 12.086 16.439 12 16.645 12 16.86 12 17.075 12.086 17.281 12.238 17.433L13.857 19.053C13.932 19.128 14.022 19.188 14.12 19.228 14.218 19.269 14.324 19.29 14.43 19.29 14.537 19.29 14.643 19.269 14.741 19.228 14.839 19.188 14.928 19.128 15.003 19.053L19.053 15.003C19.205 14.852 19.291 14.645 19.291 14.43 19.291 14.216 19.205 14.009 19.053 13.857 18.902 13.705 18.695 13.62 18.48 13.62ZM12 14.425C11.553 14.425 11.19 14.787 11.19 15.234V15.24C11.191 15.687 11.553 16.051 12 16.051 12.447 16.051 12.809 15.687 12.81 15.24V15.234C12.81 14.787 12.447 14.425 12 14.425ZM12 11.184C11.775 11.184 11.57 11.275 11.423 11.423 11.275 11.57 11.184 11.775 11.184 12 11.184 12.224 11.274 12.426 11.421 12.573L11.427 12.579C11.574 12.726 11.776 12.817 12 12.817 12.225 12.817 12.429 12.724 12.575 12.575 12.724 12.429 12.817 12.225 12.817 12 12.817 11.776 12.726 11.574 12.579 11.427L12.573 11.421C12.426 11.274 12.224 11.184 12 11.184ZM8.754 11.19C8.307 11.19 7.944 11.553 7.944 12 7.944 12.447 8.307 12.81 8.754 12.81H8.767C9.214 12.809 9.578 12.447 9.578 12 9.578 11.553 9.214 11.191 8.767 11.19H8.754ZM15.234 11.19C14.787 11.19 14.425 11.553 14.425 12 14.425 12.447 14.787 12.81 15.234 12.81H15.247C15.694 12.809 16.057 12.447 16.057 12 16.057 11.553 15.694 11.191 15.247 11.19H15.234ZM12 7.944C11.553 7.944 11.191 8.306 11.19 8.753V8.766C11.19 9.213 11.553 9.578 12 9.578 12.447 9.578 12.809 9.214 12.81 8.767V8.754C12.81 8.307 12.447 7.944 12 7.944Z" fill="black"/>
</svg>