<svg viewBox="0 0 24 24" fill="none" xmlns="http://www.w3.org/2000/svg" width="24" height="24">
<path fill-rule="evenodd" clip-rule="evenodd" d="M11.934 6.33C11.956 6.332 11.978 6.338 12 6.338 12.022 6.338 12.044 6.332 12.066 6.33H17.671V11.93C17.669 11.953 17.664 11.976 17.664 12 17.664 12.022 17.669 12.043 17.671 12.064V17.671H12.07C12.047 17.669 12.024 17.664 12 17.664 11.976 17.664 11.953 17.669 11.93 17.671H6.33V12.064C6.332 12.043 6.338 12.022 6.338 12 6.338 11.978 6.332 11.956 6.33 11.934V6.33H11.934ZM12 14.423C11.553 14.423 11.19 14.787 11.19 15.234V15.247C11.191 15.694 11.553 16.057 12 16.057 12.447 16.057 12.809 15.694 12.81 15.247V15.234C12.81 14.787 12.447 14.423 12 14.423ZM12 11.184C11.775 11.184 11.57 11.275 11.423 11.423 11.275 11.57 11.184 11.775 11.184 12 11.184 12.224 11.274 12.426 11.421 12.573L11.427 12.579C11.574 12.726 11.776 12.817 12 12.817 12.225 12.817 12.429 12.724 12.575 12.575 12.724 12.429 12.817 12.225 12.817 12 12.817 11.776 12.726 11.574 12.579 11.427L12.573 11.421C12.426 11.274 12.224 11.184 12 11.184ZM8.754 11.19C8.307 11.19 7.944 11.553 7.944 12 7.944 12.447 8.307 12.81 8.754 12.81H8.767C9.214 12.809 9.578 12.447 9.578 12 9.578 11.553 9.214 11.191 8.767 11.19H8.754ZM15.234 11.19C14.787 11.19 14.425 11.553 14.425 12 14.425 12.447 14.787 12.81 15.234 12.81H15.247C15.694 12.809 16.057 12.447 16.057 12 16.057 11.553 15.694 11.191 15.247 11.19H15.234ZM12 7.944C11.553 7.944 11.19 8.307 11.19 8.754V8.767C11.191 9.214 11.553 9.577 12 9.577 12.447 9.577 12.809 9.214 12.81 8.767V8.754C12.81 8.307 12.447 7.944 12 7.944Z" fill="black"/>
<path fill-rule="evenodd" clip-rule="evenodd" d="M20.1 2.279C20.53 2.279 20.942 2.45 21.246 2.754 21.55 3.058 21.72 3.47 21.72 3.9V20.1C21.72 20.529 21.55 20.941 21.246 21.245 20.942 21.549 20.53 21.72 20.1 21.72H3.9C3.47 21.72 3.059 21.549 2.755 21.245 2.451 20.941 2.281 20.53 2.28 20.1V3.9C2.28 3.47 2.451 3.058 2.755 2.754 3.059 2.45 3.471 2.279 3.9 2.279H20.1ZM5.521 4.711C5.074 4.711 4.711 5.072 4.711 5.52V18.48L4.727 18.643C4.803 19.012 5.129 19.29 5.521 19.29H18.48L18.643 19.273C19.012 19.197 19.29 18.872 19.29 18.48V5.521C19.29 5.074 18.928 4.711 18.48 4.711H5.521Z" fill="black"/>
</svg>