<svg width="24" height="24" viewBox="0 0 24 24" fill="none" xmlns="http://www.w3.org/2000/svg">
<path fill-rule="evenodd" clip-rule="evenodd" d="M3 4.5C3 4.10218 3.15815 3.72076 3.43945 3.43945C3.72076 3.15815 4.10218 3 4.5 3L19.5 3C19.8978 3 20.2792 3.15815 20.5605 3.43945C20.8419 3.72076 21 4.10218 21 4.5V19.5C21 19.8978 20.8419 20.2792 20.5605 20.5605C20.2792 20.8419 19.8978 21 19.5 21H4.5C4.10218 21 3.72076 20.8419 3.43945 20.5605C3.15815 20.2792 3 19.8978 3 19.5L3 4.5ZM17.2441 18C17.2443 18.2068 17.3283 18.3947 17.4639 18.5303L17.4668 18.5332C17.6024 18.6688 17.7901 18.7528 17.9971 18.7529H18.002C18.416 18.7529 18.7517 18.4169 18.752 18.0029C18.752 17.7938 18.6654 17.6058 18.5273 17.4697C18.3913 17.3318 18.2031 17.2451 17.9941 17.2451C17.5802 17.2453 17.2443 17.5812 17.2441 17.9951V18ZM17.2441 12C17.2443 12.2076 17.3285 12.3965 17.4648 12.5322C17.6006 12.6687 17.7894 12.7528 17.9971 12.7529H18.002C18.416 12.7529 18.7517 12.4169 18.752 12.0029C18.752 11.795 18.6669 11.6075 18.5303 11.4717C18.5205 11.4618 18.5084 11.4546 18.498 11.4453C18.4372 11.3912 18.3701 11.3437 18.2939 11.3115C18.2034 11.2727 18.1038 11.25 17.999 11.25H17.9941C17.5803 11.2502 17.2444 11.5861 17.2441 12ZM17.2461 6C17.2461 6.05295 17.2522 6.10543 17.2627 6.15527C17.3332 6.49613 17.6354 6.75273 17.9971 6.75293H18.002C18.416 6.75293 18.7517 6.41695 18.752 6.00293C18.752 5.84533 18.7022 5.69982 18.6191 5.5791C18.4846 5.37827 18.256 5.24512 17.9961 5.24512C17.5824 5.24561 17.2463 5.58135 17.2461 5.99512V6ZM17.2441 14.9961C17.2444 15.41 17.5803 15.7459 17.9941 15.7461C18.4082 15.7461 18.7439 15.4101 18.7441 14.9961V14.9912C18.7441 14.577 18.4083 14.2412 17.9941 14.2412C17.5801 14.2414 17.2441 14.5771 17.2441 14.9912V14.9961ZM17.2441 9C17.2444 9.41387 17.5803 9.74977 17.9941 9.75C18.4082 9.74996 18.7439 9.41399 18.7441 9V8.99512C18.744 8.58107 18.4082 8.24515 17.9941 8.24512C17.5802 8.24535 17.2443 8.58119 17.2441 8.99512V9ZM14.2432 18.0029C14.2434 18.4168 14.5793 18.7527 14.9932 18.7529H14.998C15.412 18.7528 15.7478 18.4168 15.748 18.0029C15.748 17.5888 15.4121 17.2531 14.998 17.2529H14.9932C14.5791 17.2532 14.2432 17.5889 14.2432 18.0029ZM14.2432 12.0029C14.2434 12.4168 14.5793 12.7527 14.9932 12.7529H14.998C15.412 12.7528 15.7478 12.4168 15.748 12.0029C15.748 11.5888 15.4121 11.2531 14.998 11.2529H14.9932C14.5791 11.2532 14.2432 11.5889 14.2432 12.0029ZM14.2432 6.00293C14.2434 6.4168 14.5793 6.7527 14.9932 6.75293H14.998C15.412 6.75276 15.7478 6.41684 15.748 6.00293C15.748 5.58882 15.4121 5.2531 14.998 5.25293H14.9932C14.5791 5.25316 14.2432 5.58886 14.2432 6.00293ZM11.2471 18C11.2472 18.2595 11.3797 18.4885 11.5801 18.623C11.7002 18.7049 11.8457 18.7528 12.002 18.7529C12.416 18.7529 12.7517 18.4169 12.752 18.0029V17.998C12.752 17.6356 12.4951 17.3326 12.1533 17.2627C12.103 17.252 12.0506 17.2451 11.9971 17.2451C11.5832 17.2453 11.2472 17.5812 11.2471 17.9951V18ZM11.2471 12C11.2472 12.2595 11.3797 12.4885 11.5801 12.623C11.7002 12.7049 11.8457 12.7528 12.002 12.7529C12.416 12.7529 12.7517 12.4169 12.752 12.0029V11.998C12.752 11.5838 12.4162 11.248 12.002 11.248C11.8457 11.2482 11.7002 11.296 11.5801 11.3779C11.3799 11.5125 11.2472 11.7407 11.2471 12ZM11.25 6C11.2501 6.15682 11.2975 6.30349 11.3799 6.42383C11.5147 6.62261 11.7437 6.75275 12.002 6.75293C12.416 6.75293 12.7517 6.41695 12.752 6.00293V5.99805C12.752 5.80367 12.676 5.62836 12.5547 5.49512C12.4175 5.34301 12.2209 5.24524 12 5.24512C11.5861 5.24535 11.2502 5.58119 11.25 5.99512V6ZM11.2471 14.9961C11.2473 15.41 11.5832 15.7459 11.9971 15.7461C12.4111 15.7461 12.7468 15.4101 12.7471 14.9961V14.9912C12.7471 14.577 12.4113 14.2412 11.9971 14.2412C11.5831 14.2414 11.2471 14.5771 11.2471 14.9912V14.9961ZM11.2471 9C11.2473 9.41388 11.5832 9.74977 11.9971 9.75C12.4111 9.75 12.7468 9.41402 12.7471 9V8.99512C12.7469 8.58105 12.4112 8.24512 11.9971 8.24512C11.5832 8.24535 11.2472 8.58119 11.2471 8.99512V9ZM8.24707 18.0029C8.2473 18.4168 8.5832 18.7527 8.99707 18.7529H9.00195C9.41602 18.7529 9.75172 18.4169 9.75195 18.0029C9.75195 17.5887 9.41617 17.2529 9.00195 17.2529H8.99707C8.58305 17.2532 8.24707 17.5889 8.24707 18.0029ZM8.24707 12.0029C8.2473 12.4168 8.5832 12.7527 8.99707 12.7529H9.00195C9.41602 12.7529 9.75172 12.4169 9.75195 12.0029C9.75195 11.5887 9.41617 11.2529 9.00195 11.2529H8.99707C8.58305 11.2532 8.24707 11.5889 8.24707 12.0029ZM8.24707 6.00293C8.2473 6.4168 8.5832 6.7527 8.99707 6.75293H9.00195C9.41602 6.75293 9.75172 6.41695 9.75195 6.00293C9.75195 5.58872 9.41617 5.25293 9.00195 5.25293H8.99707C8.58305 5.25316 8.24707 5.58886 8.24707 6.00293ZM5.25 6.05762L5.25 11.9434C5.2486 11.9619 5.24708 11.9811 5.24707 12C5.24709 12.0191 5.24858 12.0389 5.25 12.0576L5.25 17.9434C5.2486 17.9619 5.24708 17.9811 5.24707 18C5.2473 18.4139 5.5832 18.7498 5.99707 18.75H6.00195C6.41602 18.75 6.75172 18.414 6.75195 18C6.75195 17.9873 6.75065 17.9744 6.75 17.9619L6.75 12.083C6.75296 12.056 6.75486 12.0278 6.75488 12C6.75487 11.9724 6.75292 11.9448 6.75 11.918L6.75 6.03906C6.75064 6.02639 6.75192 6.01284 6.75195 6V5.99512C6.75179 5.58105 6.41606 5.24512 6.00195 5.24512C5.79387 5.24527 5.60551 5.33079 5.46973 5.46777C5.33278 5.60358 5.24719 5.79193 5.24707 6C5.24709 6.01912 5.24858 6.03886 5.25 6.05762Z" fill="black"/>
</svg>
