<svg viewBox="0 0 24 24" fill="none" xmlns="http://www.w3.org/2000/svg" width="24" height="24">
<path d="M21.72 20.279C21.719 21.075 21.075 21.719 20.279 21.72L3.721 21.72C2.925 21.72 2.281 21.075 2.28 20.279L2.28 3.721C2.281 2.925 2.925 2.281 3.721 2.28L20.279 2.28C21.075 2.281 21.719 2.925 21.72 3.721L21.72 20.279ZM8.713 7.897C8.713 7.45 8.35 7.087 7.903 7.086 7.901 7.086 7.898 7.086 7.896 7.086 7.449 7.086 7.086 7.449 7.086 7.896 7.086 8.343 7.449 8.706 7.896 8.706 7.898 8.706 7.9 8.706 7.902 8.706 8.349 8.706 8.712 8.344 8.713 7.897ZM11.906 8.857C12.078 8.444 11.882 7.969 11.469 7.798 11.465 7.796 11.46 7.795 11.455 7.793 11.042 7.622 10.568 7.818 10.397 8.231 10.226 8.645 10.423 9.119 10.836 9.289 10.84 9.291 10.844 9.293 10.848 9.294 11.261 9.465 11.735 9.27 11.906 8.857ZM14.489 10.965C14.805 10.649 14.806 10.137 14.49 9.82L14.48 9.81C14.163 9.494 13.651 9.495 13.335 9.811 13.019 10.127 13.019 10.64 13.335 10.956L13.344 10.965C13.66 11.281 14.173 11.281 14.489 10.965ZM16.069 13.903C16.482 13.732 16.679 13.258 16.508 12.845 16.506 12.841 16.504 12.836 16.502 12.832 16.331 12.419 15.856 12.222 15.443 12.394 15.03 12.565 14.835 13.039 15.006 13.452 15.007 13.456 15.009 13.46 15.011 13.464 15.181 13.877 15.655 14.074 16.069 13.903ZM17.214 16.397C17.213 15.95 16.851 15.587 16.404 15.587 15.957 15.588 15.594 15.951 15.594 16.398 15.594 16.4 15.594 16.402 15.594 16.404 15.594 16.851 15.957 17.214 16.404 17.214 16.851 17.214 17.214 16.851 17.214 16.404 17.214 16.402 17.214 16.399 17.214 16.397Z" fill="black"/>
</svg>