<svg width="24" height="24" viewBox="0 0 24 24" fill="none" xmlns="http://www.w3.org/2000/svg">
<path d="M20.0996 18.8994C20.0995 19.5624 19.5624 20.0993 18.8994 20.0996L5.10059 20.0996C4.43744 20.0996 3.90055 19.5625 3.90039 18.8994L3.90039 5.10059C3.90055 4.43747 4.43745 3.90044 5.10059 3.90039L18.8994 3.90039C19.5624 3.90066 20.0995 4.4376 20.0996 5.10059L20.0996 18.8994ZM9.26074 8.58106C9.26103 8.20826 8.95873 7.90557 8.58594 7.90527C8.58399 7.90527 8.58203 7.90527 8.58008 7.90527C8.20729 7.90527 7.90528 8.20729 7.90527 8.58008C7.90527 8.95287 8.20729 9.25488 8.58008 9.25488C8.58171 9.25488 8.58333 9.25488 8.58496 9.25488C8.95761 9.25517 9.26021 8.95364 9.26074 8.58106ZM11.9219 9.38086C12.0648 9.03661 11.9018 8.64102 11.5576 8.49805C11.5539 8.4965 11.5496 8.49568 11.5459 8.49414C11.2014 8.3518 10.8065 8.51499 10.6641 8.85938C10.5217 9.20383 10.6859 9.59876 11.0303 9.74121C11.0334 9.74249 11.0369 9.74384 11.04 9.74512C11.3842 9.88783 11.7789 9.72491 11.9219 9.38086ZM14.0742 11.1377C14.3379 10.8743 14.3386 10.4474 14.0752 10.1836L14.0664 10.1748C13.8026 9.91161 13.3757 9.9121 13.1123 10.1758C12.8491 10.4394 12.8489 10.8665 13.1123 11.1299L13.1201 11.1377C13.3835 11.4012 13.8105 11.401 14.0742 11.1377ZM15.3906 13.5859C15.735 13.4435 15.8991 13.0486 15.7568 12.7041C15.7554 12.7005 15.7534 12.6969 15.752 12.6934C15.609 12.349 15.2135 12.1852 14.8691 12.3281C14.5252 12.4711 14.3623 12.8659 14.5049 13.21C14.5062 13.2131 14.5075 13.2166 14.5088 13.2197C14.6512 13.5642 15.0461 13.7283 15.3906 13.5859ZM16.3447 15.6641C16.3444 15.2914 16.0425 14.9892 15.6699 14.9893C15.2971 14.9896 14.9948 15.2923 14.9951 15.665C14.9951 15.6667 14.9951 15.6683 14.9951 15.6699C14.9951 16.0427 15.2972 16.3446 15.6699 16.3447C16.0427 16.3447 16.3447 16.0427 16.3447 15.6699C16.3447 15.668 16.3447 15.666 16.3447 15.6641Z" fill="black"/>
</svg>
