<svg width="24" height="24" viewBox="0 0 24 24" fill="none" xmlns="http://www.w3.org/2000/svg">
<path fill-rule="evenodd" clip-rule="evenodd" d="M21 19.5C21 19.8978 20.8419 20.2792 20.5605 20.5605C20.2792 20.8419 19.8978 21 19.5 21H4.5C4.10218 21 3.72076 20.8419 3.43945 20.5605C3.15815 20.2792 3 19.8978 3 19.5L3 4.5C3 4.10218 3.15815 3.72076 3.43945 3.43945C3.72076 3.15815 4.10218 3 4.5 3L19.5 3C19.8978 3 20.2792 3.15815 20.5605 3.43945C20.8419 3.72076 21 4.10218 21 4.5V19.5ZM17.25 7.5C17.25 7.08579 16.9142 6.75 16.5 6.75C16.0858 6.75 15.75 7.08579 15.75 7.5C15.75 9.6881 14.8811 11.7869 13.334 13.334C11.7869 14.8811 9.6881 15.75 7.5 15.75C7.08579 15.75 6.75 16.0858 6.75 16.5C6.75 16.9142 7.08579 17.25 7.5 17.25C10.0858 17.25 12.566 16.2231 14.3945 14.3945C16.2231 12.566 17.25 10.0858 17.25 7.5Z" fill="black"/>
</svg>
