<svg viewBox="0 0 24 24" fill="none" xmlns="http://www.w3.org/2000/svg" width="24" height="24">
<path d="M21.72 20.399C21.72 21.195 21.075 21.84 20.279 21.84L3.721 21.84C2.925 21.84 2.28 21.195 2.28 20.399L2.28 3.841C2.281 3.046 2.925 2.4 3.721 2.4L20.279 2.4C21.075 2.4 21.719 3.046 21.72 3.841L21.72 20.399ZM11.164 5.521C11.164 5.073 10.802 4.711 10.355 4.711 8.858 4.711 7.422 5.306 6.363 6.364 5.305 7.423 4.71 8.859 4.71 10.356 4.71 10.803 5.073 11.165 5.52 11.166 5.967 11.166 6.33 10.803 6.33 10.356 6.33 9.289 6.754 8.264 7.508 7.509 8.263 6.755 9.287 6.33 10.355 6.33 10.802 6.33 11.164 5.968 11.164 5.521ZM11.164 18.48C11.164 18.033 10.802 17.671 10.355 17.671 9.287 17.671 8.263 17.247 7.508 16.492 6.754 15.737 6.33 14.713 6.33 13.645 6.33 13.198 5.967 12.836 5.52 12.836 5.073 12.836 4.71 13.198 4.71 13.645 4.71 15.142 5.305 16.578 6.363 17.637 7.422 18.695 8.858 19.29 10.355 19.29 10.802 19.29 11.164 18.928 11.164 18.48ZM19.29 10.355C19.29 8.858 18.695 7.422 17.637 6.363 16.578 5.305 15.142 4.71 13.645 4.71 13.198 4.71 12.836 5.073 12.836 5.52 12.836 5.967 13.198 6.33 13.645 6.33 14.712 6.331 15.737 6.754 16.492 7.508 17.246 8.263 17.671 9.287 17.671 10.355 17.671 10.802 18.033 11.164 18.48 11.164 18.928 11.164 19.29 10.802 19.29 10.355ZM19.29 13.645C19.29 13.198 18.927 12.836 18.48 12.836 18.033 12.836 17.67 13.198 17.67 13.645 17.67 14.713 17.246 15.737 16.492 16.492 15.737 17.247 14.713 17.671 13.645 17.671 13.198 17.671 12.836 18.033 12.836 18.48 12.836 18.928 13.198 19.29 13.645 19.29 15.142 19.29 16.578 18.695 17.637 17.637 18.695 16.578 19.29 15.142 19.29 13.645Z" fill="black"/>
</svg>