<svg width="24" height="24" viewBox="0 0 24 24" fill="none" xmlns="http://www.w3.org/2000/svg">
<path d="M17.9736 16.3496C17.9338 16.3765 17.8886 16.3963 17.8398 16.4062C17.8642 16.4012 17.8878 16.3943 17.9102 16.3848L17.9736 16.3496Z" fill="black"/>
<path d="M17.3887 16.0391C17.3887 16.0648 17.3915 16.09 17.3965 16.1143C17.4013 16.1378 17.4099 16.1599 17.4189 16.1816C17.4007 16.1376 17.3887 16.0897 17.3887 16.0391Z" fill="black"/>
<path d="M12.7354 16.1816C12.7362 16.1796 12.7375 16.1778 12.7383 16.1758L12.7568 16.1143C12.752 16.1377 12.7443 16.16 12.7354 16.1816Z" fill="black"/>
<path d="M12.0137 16.0391C12.0137 16.0648 12.0165 16.09 12.0215 16.1143C12.0263 16.1378 12.0349 16.1599 12.0439 16.1816C12.0257 16.1376 12.0137 16.0897 12.0137 16.0391Z" fill="black"/>
<path d="M12.5293 15.6904C12.5257 15.6889 12.5223 15.6869 12.5186 15.6855L12.4648 15.6709C12.4871 15.6754 12.5086 15.6821 12.5293 15.6904Z" fill="black"/>
<path d="M7.01465 16.4141L7.08105 16.4082C7.08338 16.4078 7.08558 16.4067 7.08789 16.4062C7.06419 16.411 7.03973 16.414 7.01465 16.4141Z" fill="black"/>
<path d="M7.1543 15.6904C7.15066 15.6889 7.14725 15.6869 7.14355 15.6855L7.08984 15.6709C7.11211 15.6754 7.13364 15.6821 7.1543 15.6904Z" fill="black"/>
<path fill-rule="evenodd" clip-rule="evenodd" d="M4.33398 3C3.59725 3.00011 3.00023 3.59728 3 4.33398V19.666C3.00011 20.4028 3.59717 20.9999 4.33398 21H19.666C20.4027 20.9998 20.9999 20.4028 21 19.666V4.33398C20.9998 3.59735 20.4027 3.00023 19.666 3H4.33398ZM17.8789 14.9199C18.4463 14.9775 18.8887 15.4565 18.8887 16.0391C18.8884 16.6602 18.3848 17.1641 17.7637 17.1641C17.1813 17.1638 16.7019 16.7206 16.6445 16.1533L16.6387 16.0391L16.6445 15.9238C16.702 15.3566 17.1814 14.9144 17.7637 14.9141L17.8789 14.9199ZM12.5039 14.9199C13.0713 14.9775 13.5137 15.4565 13.5137 16.0391C13.5134 16.6602 13.0098 17.1641 12.3887 17.1641C11.8063 17.1638 11.3269 16.7206 11.2695 16.1533L11.2637 16.0391L11.2695 15.9238C11.327 15.3566 11.8064 14.9144 12.3887 14.9141L12.5039 14.9199ZM7.12891 14.9199C7.69631 14.9774 8.13965 15.4565 8.13965 16.0391C8.13942 16.66 7.6356 17.1638 7.01465 17.1641C6.43211 17.164 5.95195 16.7207 5.89453 16.1533L5.88867 16.0391L5.89453 15.9238C5.95204 15.3565 6.43217 14.9142 7.01465 14.9141L7.12891 14.9199ZM18.335 11.1953C18.7492 11.1953 19.085 11.5311 19.085 11.9453C19.0847 12.3593 18.749 12.6953 18.335 12.6953H14.1816C13.7677 12.6952 13.4319 12.3592 13.4316 11.9453C13.4316 11.5312 13.7675 11.1954 14.1816 11.1953H18.335ZM10.4883 11.1953C10.9025 11.1953 11.2383 11.5311 11.2383 11.9453C11.238 12.3593 10.9023 12.6953 10.4883 12.6953H6.33496C5.92101 12.6952 5.58526 12.3592 5.58496 11.9453C5.58496 11.5312 5.92083 11.1954 6.33496 11.1953H10.4883ZM18.335 6.83008C18.7492 6.83008 19.085 7.16586 19.085 7.58008C19.0849 7.99426 18.7492 8.33008 18.335 8.33008H6.33496C5.92085 8.32998 5.58499 7.9942 5.58496 7.58008C5.58496 7.16593 5.92083 6.83018 6.33496 6.83008H18.335Z" fill="black"/>
</svg>
