<svg viewBox="0 0 24 24" fill="none" xmlns="http://www.w3.org/2000/svg" width="24" height="24">
<path fill-rule="evenodd" clip-rule="evenodd" d="M20.1 2.279C20.529 2.279 20.941 2.45 21.245 2.754 21.549 3.058 21.72 3.47 21.72 3.9V20.1C21.72 20.53 21.549 20.941 21.245 21.245 20.941 21.549 20.53 21.72 20.1 21.72H3.9C3.47 21.72 3.058 21.549 2.754 21.245 2.45 20.941 2.279 20.529 2.279 20.1V3.9C2.279 3.47 2.45 3.058 2.754 2.754 3.058 2.45 3.47 2.279 3.9 2.279H20.1ZM5.521 17.664C5.074 17.664 4.711 18.026 4.711 18.473V18.48L4.727 18.643C4.803 19.012 5.128 19.29 5.52 19.29H5.527C5.973 19.29 6.336 18.927 6.336 18.48 6.336 18.255 6.244 18.051 6.095 17.904 5.948 17.756 5.746 17.664 5.521 17.664ZM8.754 17.671C8.307 17.671 7.943 18.033 7.943 18.48 7.943 18.927 8.306 19.29 8.753 19.29H8.766C9.213 19.29 9.577 18.928 9.578 18.48 9.578 18.033 9.214 17.671 8.767 17.671H8.754ZM11.994 4.711C11.547 4.711 11.184 5.073 11.184 5.521 11.184 5.54 11.189 5.559 11.19 5.578V11.19H5.579C5.56 11.189 5.541 11.184 5.521 11.184 5.073 11.184 4.711 11.547 4.711 11.994V12.007C4.711 12.454 5.074 12.817 5.521 12.817 5.543 12.817 5.565 12.812 5.586 12.81H11.19V18.422C11.189 18.441 11.184 18.461 11.184 18.48 11.185 18.927 11.546 19.29 11.993 19.29H12.006C12.453 19.29 12.816 18.928 12.817 18.48 12.817 18.459 12.811 18.436 12.81 18.415V12.81H18.415C18.436 12.811 18.459 12.817 18.48 12.817 18.927 12.816 19.29 12.454 19.29 12.007V11.994C19.29 11.547 18.928 11.185 18.48 11.184 18.461 11.184 18.441 11.189 18.422 11.19H12.81V5.585C12.811 5.564 12.817 5.543 12.817 5.521 12.817 5.074 12.454 4.711 12.007 4.711H11.994ZM15.234 17.671C14.787 17.671 14.425 18.033 14.425 18.48 14.425 18.928 14.787 19.29 15.234 19.29H15.247C15.694 19.29 16.057 18.927 16.057 18.48 16.057 18.033 15.694 17.671 15.247 17.671H15.234ZM18.48 17.664C18.257 17.664 18.054 17.754 17.907 17.9L17.9 17.907C17.754 18.054 17.664 18.257 17.664 18.48 17.664 18.928 18.027 19.29 18.475 19.29H18.48L18.643 19.273C19.012 19.197 19.29 18.872 19.29 18.48V18.473C19.29 18.027 18.927 17.664 18.48 17.664ZM5.521 14.423C5.073 14.423 4.711 14.787 4.711 15.234V15.247C4.711 15.694 5.074 16.057 5.521 16.057 5.967 16.057 6.33 15.694 6.33 15.247V15.234C6.33 14.787 5.968 14.424 5.521 14.423ZM18.48 14.423C18.033 14.423 17.671 14.787 17.671 15.234V15.247C17.671 15.694 18.033 16.057 18.48 16.057 18.927 16.057 19.29 15.694 19.29 15.247V15.234C19.29 14.787 18.928 14.424 18.48 14.423ZM5.521 7.944C5.073 7.944 4.711 8.307 4.711 8.754V8.767C4.711 9.214 5.074 9.577 5.521 9.577 5.968 9.576 6.33 9.214 6.33 8.767V8.754C6.33 8.307 5.968 7.944 5.521 7.944ZM18.48 7.944C18.033 7.944 17.671 8.307 17.671 8.754V8.767C17.671 9.214 18.033 9.577 18.48 9.577 18.927 9.576 19.29 9.214 19.29 8.767V8.754C19.29 8.307 18.927 7.944 18.48 7.944ZM5.521 4.711C5.074 4.711 4.711 5.072 4.711 5.52V5.525C4.711 5.973 5.073 6.338 5.521 6.338 5.746 6.337 5.948 6.244 6.095 6.095 6.243 5.948 6.336 5.746 6.336 5.521 6.336 5.074 5.974 4.711 5.527 4.711H5.521ZM18.475 4.711C18.027 4.711 17.664 5.073 17.664 5.521 17.664 5.745 17.756 5.948 17.904 6.095 18.051 6.244 18.255 6.338 18.48 6.338 18.927 6.337 19.29 5.973 19.29 5.527V5.521C19.29 5.074 18.928 4.711 18.48 4.711H18.475ZM8.754 4.711C8.307 4.711 7.943 5.073 7.943 5.521 7.943 5.967 8.306 6.33 8.753 6.33H8.766C9.213 6.33 9.577 5.968 9.578 5.521 9.578 5.074 9.214 4.711 8.767 4.711H8.754ZM15.234 4.711C14.787 4.711 14.425 5.073 14.425 5.521 14.425 5.968 14.787 6.33 15.234 6.33H15.247C15.694 6.33 16.057 5.968 16.057 5.521 16.057 5.074 15.694 4.711 15.247 4.711H15.234Z" fill="black"/>
</svg>