<?xml version="1.0" encoding="utf-8"?>
<svg xmlns="http://www.w3.org/2000/svg" width="512" height="512" viewBox="0 0 512 512">
<path d="M384 64V32h-32v32h32zm-96 0V32h32v32h-32zm-64 0V32h32v32h-32zm-64 0V32h32v32h-32zm-64 0V32h32v32H96zm192 384v-32h32v32h-32zm-64 0v-32h32v32h-32zm-64 0v-32h32v32h-32zm-64 0v-32h32v32H96zm128-320V96h32v32h-32zm0 64v-32h32v32h-32zm128 64v-32h32v32h-32zm-64 0v-32h32v32h-32zm-64 0v-32h32v32h-32zm-64 0v-32h32v32h-32zm-64 0v-32h32v32H96zm-64 0v-32h32v32H32zM64 64V32H32v32h32zm-32 64V96h32v32H32zm0 64v-32h32v32H32zm32 128v-32H32v32h32zm-32 64v-32h32v32H32zm0 64v-32h32v32H32zm384-192v-32h32v32h-32zm32-192V32h-32v32h32zm-32 64V96h32v32h-32zm0 64v-32h32v32h-32zm32 128v-32h-32v32h32zm-32 64v-32h32v32h-32zm0 64v-32h32v32h-32zM256 320v-32h-32v32h32zm-32 64v-32h32v32h-32zm128 64v-32h32v32h-32z"/>
</svg>
