<svg width="24" height="24" viewBox="0 0 24 24" fill="none" xmlns="http://www.w3.org/2000/svg">
<path fill-rule="evenodd" clip-rule="evenodd" d="M4.5 21C4.10218 21 3.72076 20.8419 3.43945 20.5605C3.15815 20.2792 3 19.8978 3 19.5L3 4.5C3 4.10218 3.15815 3.72076 3.43945 3.43945C3.72076 3.15815 4.10218 3 4.5 3L19.5 3C19.8978 3 20.2792 3.15815 20.5605 3.43945C20.8419 3.72076 21 4.10218 21 4.5L21 19.5C21 19.8978 20.8419 20.2792 20.5605 20.5605C20.2792 20.8419 19.8978 21 19.5 21L4.5 21ZM18 6.75586C18.2068 6.75574 18.3947 6.67166 18.5303 6.53613L18.5332 6.5332C18.6688 6.39757 18.7528 6.20987 18.7529 6.00293V5.99805C18.7529 5.58398 18.4169 5.24828 18.0029 5.24805C17.7938 5.24805 17.6058 5.33459 17.4697 5.47266C17.3318 5.60865 17.2451 5.79685 17.2451 6.00586C17.2453 6.41977 17.5812 6.75569 17.9951 6.75586H18ZM12 6.75586C12.2076 6.75574 12.3965 6.67154 12.5322 6.53516C12.6687 6.39941 12.7528 6.21061 12.7529 6.00293V5.99805C12.7529 5.58398 12.4169 5.24828 12.0029 5.24805C11.795 5.24805 11.6075 5.33311 11.4717 5.46973C11.4618 5.47952 11.4546 5.49163 11.4453 5.50195C11.3912 5.56279 11.3437 5.62993 11.3115 5.70606C11.2727 5.7966 11.25 5.89624 11.25 6.00098V6.00586C11.2502 6.41973 11.5861 6.75563 12 6.75586ZM6 6.75391C6.05295 6.75387 6.10544 6.74777 6.15527 6.7373C6.49613 6.6668 6.75273 6.36463 6.75293 6.00293V5.99805C6.75293 5.58398 6.41695 5.24828 6.00293 5.24805C5.84533 5.24805 5.69982 5.29781 5.5791 5.38086C5.37827 5.51543 5.24512 5.744 5.24512 6.00391C5.24561 6.4176 5.58135 6.75374 5.99512 6.75391H6ZM14.9961 6.75586C15.41 6.75563 15.7459 6.41973 15.7461 6.00586C15.7461 5.59182 15.4101 5.25609 14.9961 5.25586H14.9912C14.577 5.25586 14.2412 5.59168 14.2412 6.00586C14.2414 6.41988 14.5771 6.75586 14.9912 6.75586H14.9961ZM9 6.75586C9.41388 6.75563 9.74977 6.41973 9.75 6.00586C9.74996 5.59182 9.41399 5.25609 9 5.25586H8.99512C8.58107 5.25603 8.24516 5.59178 8.24512 6.00586C8.24535 6.41977 8.58119 6.75569 8.99512 6.75586H9ZM18.0029 9.75684C18.4168 9.75661 18.7527 9.42071 18.7529 9.00684V9.00195C18.7528 8.58803 18.4168 8.25219 18.0029 8.25195C17.5888 8.25195 17.2531 8.58788 17.2529 9.00195V9.00684C17.2532 9.42085 17.5889 9.75684 18.0029 9.75684ZM12.0029 9.75684C12.4168 9.75661 12.7527 9.42071 12.7529 9.00684V9.00195C12.7528 8.58803 12.4168 8.25218 12.0029 8.25195C11.5888 8.25195 11.2531 8.58788 11.2529 9.00195V9.00684C11.2532 9.42085 11.5889 9.75684 12.0029 9.75684ZM6.00293 9.75684C6.41681 9.75661 6.7527 9.42071 6.75293 9.00684V9.00195C6.75276 8.58803 6.41684 8.25218 6.00293 8.25195C5.58882 8.25195 5.2531 8.58788 5.25293 9.00195V9.00684C5.25316 9.42085 5.58886 9.75684 6.00293 9.75684ZM18 12.7529C18.2595 12.7528 18.4885 12.6203 18.623 12.4199C18.7049 12.2998 18.7528 12.1543 18.7529 11.998C18.7529 11.584 18.4169 11.2483 18.0029 11.248H17.998C17.6356 11.248 17.3326 11.5049 17.2627 11.8467C17.252 11.897 17.2451 11.9494 17.2451 12.0029C17.2453 12.4168 17.5812 12.7528 17.9951 12.7529H18ZM12 12.7529C12.2595 12.7528 12.4885 12.6203 12.623 12.4199C12.7049 12.2998 12.7528 12.1543 12.7529 11.998C12.7529 11.584 12.4169 11.2483 12.0029 11.248H11.998C11.5838 11.248 11.248 11.5838 11.248 11.998C11.2482 12.1543 11.296 12.2998 11.3779 12.4199C11.5125 12.6201 11.7407 12.7528 12 12.7529ZM6 12.75C6.15682 12.7499 6.30349 12.7025 6.42383 12.6201C6.62261 12.4853 6.75275 12.2563 6.75293 11.998C6.75293 11.584 6.41695 11.2483 6.00293 11.248H5.99805C5.80367 11.248 5.62836 11.324 5.49512 11.4453C5.34301 11.5825 5.24524 11.7791 5.24512 12C5.24535 12.4139 5.58119 12.7498 5.99512 12.75H6ZM14.9961 12.7529C15.41 12.7527 15.7459 12.4168 15.7461 12.0029C15.7461 11.5889 15.4101 11.2532 14.9961 11.2529H14.9912C14.577 11.2529 14.2412 11.5887 14.2412 12.0029C14.2414 12.4169 14.5771 12.7529 14.9912 12.7529H14.9961ZM9 12.7529C9.41388 12.7527 9.74977 12.4168 9.75 12.0029C9.75 11.5889 9.41402 11.2532 9 11.2529H8.99512C8.58105 11.2531 8.24512 11.5888 8.24512 12.0029C8.24535 12.4168 8.58119 12.7528 8.99512 12.7529H9ZM18.0029 15.7529C18.4168 15.7527 18.7527 15.4168 18.7529 15.0029V14.998C18.7529 14.584 18.4169 14.2483 18.0029 14.248C17.5887 14.248 17.2529 14.5838 17.2529 14.998V15.0029C17.2532 15.4169 17.5889 15.7529 18.0029 15.7529ZM12.0029 15.7529C12.4168 15.7527 12.7527 15.4168 12.7529 15.0029V14.998C12.7529 14.584 12.4169 14.2483 12.0029 14.248C11.5887 14.248 11.2529 14.5838 11.2529 14.998V15.0029C11.2532 15.4169 11.5889 15.7529 12.0029 15.7529ZM6.00293 15.7529C6.4168 15.7527 6.7527 15.4168 6.75293 15.0029V14.998C6.75293 14.584 6.41695 14.2483 6.00293 14.248C5.58872 14.248 5.25293 14.5838 5.25293 14.998V15.0029C5.25316 15.4169 5.58886 15.7529 6.00293 15.7529ZM6.05762 18.75L11.9434 18.75C11.9619 18.7514 11.9811 18.7529 12 18.7529C12.0191 18.7529 12.0389 18.7514 12.0576 18.75H17.9434C17.9619 18.7514 17.9811 18.7529 18 18.7529C18.4139 18.7527 18.7498 18.4168 18.75 18.0029V17.998C18.75 17.584 18.414 17.2483 18 17.248C17.9873 17.2481 17.9744 17.2494 17.9619 17.25H12.083C12.056 17.247 12.0278 17.2451 12 17.2451C11.9724 17.2451 11.9448 17.2471 11.918 17.25L6.03906 17.25C6.02639 17.2494 6.01284 17.2481 6 17.248H5.99512C5.58105 17.2482 5.24512 17.5839 5.24512 17.998C5.24527 18.2061 5.33079 18.3945 5.46777 18.5303C5.60358 18.6672 5.79193 18.7528 6 18.7529C6.01912 18.7529 6.03886 18.7514 6.05762 18.75Z" fill="black"/>
</svg>
