<svg width="24" height="24" viewBox="0 0 24 24" fill="none" xmlns="http://www.w3.org/2000/svg">
<path fill-rule="evenodd" clip-rule="evenodd" d="M20.0996 18.999C20.0996 19.6621 19.5625 20.1999 18.8994 20.2002H5.10059C4.43735 20.2001 3.90039 19.6623 3.90039 18.999L3.90039 5.20117C3.9005 4.53801 4.43742 4.00005 5.10059 4L18.8994 4C19.5624 4.00026 20.0995 4.53815 20.0996 5.20117V18.999ZM16.2197 15.54C16.2197 15.1672 15.9177 14.8652 15.5449 14.8652C13.8435 14.8652 12.2118 14.1893 11.0088 12.9863C9.80582 11.7834 9.12993 10.1516 9.12988 8.4502C9.12988 8.07746 8.8278 7.77548 8.45508 7.77539C8.08229 7.77539 7.78028 8.0774 7.78027 8.4502C7.78032 10.5093 8.59774 12.4842 10.0537 13.9404C11.51 15.3967 13.4856 16.2148 15.5449 16.2148C15.9177 16.2148 16.2197 15.9128 16.2197 15.54Z" fill="black"/>
</svg>
