<svg xmlns="http://www.w3.org/2000/svg" width="24" height="24" fill="currentColor" viewBox="0 0 24 24"><path d="M20.1 8.76a1.62 1.62 0 0 0 1.62-1.62v-3.24a1.62 1.62 0 0 0-1.62-1.62h-3.24a1.62 1.62 0 0 0-1.62 1.62v0.81H8.76V3.9A1.62 1.62 0 0 0 7.14 2.28h-3.24A1.62 1.62 0 0 0 2.28 3.9v3.24A1.62 1.62 0 0 0 3.9 8.76h0.81v6.48H3.9a1.62 1.62 0 0 0-1.62 1.62v3.24a1.62 1.62 0 0 0 1.62 1.62h3.24a1.62 1.62 0 0 0 1.62-1.62v-0.81h6.48v0.81a1.62 1.62 0 0 0 1.62 1.62h3.24a1.62 1.62 0 0 0 1.62-1.62v-3.24a1.62 1.62 0 0 0-1.62-1.62h-0.81V8.76z m-2.43 6.48h-0.81a1.62 1.62 0 0 0-1.62 1.62v0.81H8.76v-0.81a1.62 1.62 0 0 0-1.62-1.62h-0.81V8.76h0.81A1.62 1.62 0 0 0 8.76 7.14v-0.81h6.48v0.81a1.62 1.62 0 0 0 1.62 1.62h0.81z"/></svg>