<svg width="24" height="24" viewBox="0 0 24 24" fill="none" xmlns="http://www.w3.org/2000/svg">
<path d="M19.4996 8.99898C19.8974 8.99898 20.279 8.84094 20.5603 8.55964C20.8416 8.27834 20.9996 7.89681 20.9996 7.49899V4.49901C20.9996 4.10119 20.8416 3.71966 20.5603 3.43836C20.279 3.15706 19.8974 2.99902 19.4996 2.99902H16.4996C16.1018 2.99902 15.7203 3.15706 15.439 3.43836C15.1577 3.71966 14.9996 4.10119 14.9996 4.49901V5.24901H8.99969V4.49901C8.99969 4.10119 8.84165 3.71966 8.56035 3.43836C8.27905 3.15706 7.89752 2.99902 7.4997 2.99902H4.49972C4.1019 2.99902 3.72037 3.15706 3.43907 3.43836C3.15777 3.71966 2.99973 4.10119 2.99973 4.49901V7.49899C2.99973 7.89681 3.15777 8.27834 3.43907 8.55964C3.72037 8.84094 4.1019 8.99898 4.49972 8.99898H5.24972V14.9989H4.49972C4.1019 14.9989 3.72037 15.157 3.43907 15.4383C3.15777 15.7196 2.99973 16.1011 2.99973 16.4989V19.4989C2.99973 19.8967 3.15777 20.2782 3.43907 20.5595C3.72037 20.8409 4.1019 20.9989 4.49972 20.9989H7.4997C7.89752 20.9989 8.27905 20.8409 8.56035 20.5595C8.84165 20.2782 8.99969 19.8967 8.99969 19.4989V18.7489H14.9996V19.4989C14.9996 19.8967 15.1577 20.2782 15.439 20.5595C15.7203 20.8409 16.1018 20.9989 16.4996 20.9989H19.4996C19.8974 20.9989 20.279 20.8409 20.5603 20.5595C20.8416 20.2782 20.9996 19.8967 20.9996 19.4989V16.4989C20.9996 16.1011 20.8416 15.7196 20.5603 15.4383C20.279 15.157 19.8974 14.9989 19.4996 14.9989H18.7496V8.99898H19.4996ZM17.2496 14.9989H16.4996C16.1018 14.9989 15.7203 15.157 15.439 15.4383C15.1577 15.7196 14.9996 16.1011 14.9996 16.4989V17.2489H8.99969V16.4989C8.99969 16.1011 8.84165 15.7196 8.56035 15.4383C8.27905 15.157 7.89752 14.9989 7.4997 14.9989H6.7497V8.99898H7.4997C7.89752 8.99898 8.27905 8.84094 8.56035 8.55964C8.84165 8.27834 8.99969 7.89681 8.99969 7.49899V6.74899H14.9996V7.49899C14.9996 7.89681 15.1577 8.27834 15.439 8.55964C15.7203 8.84094 16.1018 8.99898 16.4996 8.99898H17.2496V14.9989Z" fill="black"/>
</svg>
