<?xml version="1.0" encoding="utf-8"?>
<svg xmlns="http://www.w3.org/2000/svg" width="512" height="512" viewBox="0 0 512 512">
<path d="M32,0H0v448v32h480v-32V32V0H32z M448,448H32V32h416V448z M352,128h-32V96h32V128z M96,192H64v-32h32V192z M96,128H64V96h32V128z M160,128h-32V96h32V128z M224,128h-32V96h32V128z M288,128h-32V96h32V128z M96,256H64v-32h32V256z M416,128h-32V96h32V128z M416,256h-32v-32h32V256z M416,192h-32v-32h32V192z M96,384H64v-32h32V384z M352,384h-32v-32h32V384z M160,384h-32v-32h32V384z M224,384h-32v-32h32V384z M288,384h-32v-32h32V384z M416,384h-32v-32h32V384z M96,320H64v-32h32V320z M416,320h-32v-32h32V320z"/>
</svg>
