<svg width="24" height="24" viewBox="0 0 24 24" fill="none" xmlns="http://www.w3.org/2000/svg">
<g clip-path="url(#clip0_2097_2648)">
<path d="M11.2497 3.74876V1.49877C11.2497 1.29986 11.3287 1.1091 11.4693 0.968448C11.61 0.827796 11.8008 0.748779 11.9997 0.748779C12.1986 0.748779 12.3893 0.827796 12.53 0.968448C12.6706 1.1091 12.7497 1.29986 12.7497 1.49877V3.74876C12.7497 3.94767 12.6706 4.13843 12.53 4.27908C12.3893 4.41973 12.1986 4.49875 11.9997 4.49875C11.8008 4.49875 11.61 4.41973 11.4693 4.27908C11.3287 4.13843 11.2497 3.94767 11.2497 3.74876ZM11.9997 5.99874C10.813 5.99874 9.65296 6.35063 8.66627 7.00991C7.67959 7.6692 6.91056 8.60626 6.45644 9.70261C6.00231 10.799 5.88349 12.0053 6.115 13.1692C6.34651 14.3331 6.91795 15.4022 7.75706 16.2413C8.59617 17.0804 9.66526 17.6519 10.8291 17.8834C11.993 18.1149 13.1994 17.9961 14.2958 17.5419C15.3921 17.0878 16.3292 16.3188 16.9884 15.3321C17.6477 14.3454 17.9996 13.1854 17.9996 11.9987C17.9979 10.4079 17.3652 8.88284 16.2404 7.758C15.1155 6.63317 13.5904 6.00048 11.9997 5.99874ZM5.46909 6.52936C5.60982 6.67009 5.80069 6.74915 5.99972 6.74915C6.19874 6.74915 6.38961 6.67009 6.53034 6.52936C6.67107 6.38863 6.75013 6.19776 6.75013 5.99874C6.75013 5.79972 6.67107 5.60885 6.53034 5.46812L5.03035 3.96813C4.88962 3.8274 4.69875 3.74834 4.49973 3.74834C4.30071 3.74834 4.10984 3.8274 3.96911 3.96813C3.82838 4.10886 3.74932 4.29973 3.74932 4.49875C3.74932 4.69777 3.82838 4.88864 3.96911 5.02937L5.46909 6.52936ZM5.46909 17.468L3.96911 18.968C3.82838 19.1087 3.74932 19.2996 3.74932 19.4986C3.74932 19.6977 3.82838 19.8885 3.96911 20.0293C4.10984 20.17 4.30071 20.249 4.49973 20.249C4.69875 20.249 4.88962 20.17 5.03035 20.0293L6.53034 18.5293C6.60002 18.4596 6.65529 18.3769 6.69301 18.2858C6.73072 18.1948 6.75013 18.0972 6.75013 17.9986C6.75013 17.9001 6.73072 17.8025 6.69301 17.7115C6.65529 17.6204 6.60002 17.5377 6.53034 17.468C6.46065 17.3983 6.37793 17.3431 6.28689 17.3054C6.19584 17.2676 6.09826 17.2482 5.99972 17.2482C5.90117 17.2482 5.80359 17.2676 5.71255 17.3054C5.6215 17.3431 5.53878 17.3983 5.46909 17.468ZM17.9996 6.74873C18.0981 6.74881 18.1957 6.72948 18.2868 6.69184C18.3778 6.6542 18.4605 6.59899 18.5302 6.52936L20.0302 5.02937C20.171 4.88864 20.25 4.69777 20.25 4.49875C20.25 4.29973 20.171 4.10886 20.0302 3.96813C19.8895 3.8274 19.6986 3.74834 19.4996 3.74834C19.3006 3.74834 19.1097 3.8274 18.969 3.96813L17.469 5.46812C17.364 5.57301 17.2925 5.7067 17.2635 5.85226C17.2345 5.99782 17.2493 6.14871 17.3062 6.28583C17.363 6.42295 17.4592 6.54012 17.5826 6.62252C17.7061 6.70493 17.8512 6.74885 17.9996 6.74873ZM18.5302 17.468C18.3895 17.3273 18.1986 17.2482 17.9996 17.2482C17.8006 17.2482 17.6097 17.3273 17.469 17.468C17.3283 17.6088 17.2492 17.7996 17.2492 17.9986C17.2492 18.1977 17.3283 18.3885 17.469 18.5293L18.969 20.0293C19.0387 20.0989 19.1214 20.1542 19.2124 20.1919C19.3035 20.2296 19.4011 20.249 19.4996 20.249C19.5982 20.249 19.6957 20.2296 19.7868 20.1919C19.8778 20.1542 19.9606 20.0989 20.0302 20.0293C20.0999 19.9596 20.1552 19.8769 20.1929 19.7858C20.2306 19.6948 20.25 19.5972 20.25 19.4986C20.25 19.4001 20.2306 19.3025 20.1929 19.2115C20.1552 19.1204 20.0999 19.0377 20.0302 18.968L18.5302 17.468ZM4.49973 11.9987C4.49973 11.7998 4.42071 11.609 4.28006 11.4684C4.13941 11.3277 3.94864 11.2487 3.74973 11.2487H1.49975C1.30084 11.2487 1.11008 11.3277 0.969424 11.4684C0.828773 11.609 0.749756 11.7998 0.749756 11.9987C0.749756 12.1976 0.828773 12.3884 0.969424 12.529C1.11008 12.6697 1.30084 12.7487 1.49975 12.7487H3.74973C3.94864 12.7487 4.13941 12.6697 4.28006 12.529C4.42071 12.3884 4.49973 12.1976 4.49973 11.9987ZM11.9997 19.4986C11.8008 19.4986 11.61 19.5777 11.4693 19.7183C11.3287 19.859 11.2497 20.0497 11.2497 20.2486V22.4986C11.2497 22.6975 11.3287 22.8883 11.4693 23.0289C11.61 23.1696 11.8008 23.2486 11.9997 23.2486C12.1986 23.2486 12.3893 23.1696 12.53 23.0289C12.6706 22.8883 12.7497 22.6975 12.7497 22.4986V20.2486C12.7497 20.0497 12.6706 19.859 12.53 19.7183C12.3893 19.5777 12.1986 19.4986 11.9997 19.4986ZM22.4996 11.2487H20.2496C20.0507 11.2487 19.8599 11.3277 19.7193 11.4684C19.5786 11.609 19.4996 11.7998 19.4996 11.9987C19.4996 12.1976 19.5786 12.3884 19.7193 12.529C19.8599 12.6697 20.0507 12.7487 20.2496 12.7487H22.4996C22.6985 12.7487 22.8893 12.6697 23.0299 12.529C23.1706 12.3884 23.2496 12.1976 23.2496 11.9987C23.2496 11.7998 23.1706 11.609 23.0299 11.4684C22.8893 11.3277 22.6985 11.2487 22.4996 11.2487Z" fill="black"/>
</g>
<defs>
<clipPath id="clip0_2097_2648">
<rect width="23.9998" height="23.9998" fill="white"/>
</clipPath>
</defs>
</svg>
