<svg width="24" height="24" viewBox="0 0 24 24" fill="none" xmlns="http://www.w3.org/2000/svg">
<path d="M20.25 18.75V10.1247C20.25 9.50352 19.7465 9 19.1254 9C18.5042 9 18.0007 9.50352 18.0007 10.1247L18.0007 16.5C18.0007 17.3284 17.3291 18 16.5007 18H10.125C9.50368 18 9 18.5037 9 19.125C9 19.7463 9.50368 20.25 10.125 20.25H18.75C19.5784 20.25 20.25 19.5784 20.25 18.75Z" fill="black"/>
<path d="M15.0045 13.5C15.0045 14.3284 14.3329 15 13.5045 15L5.25452 15C4.42609 15 3.75452 14.3284 3.75452 13.5L3.75452 5.25C3.75452 4.42157 4.42609 3.75 5.25452 3.75L13.5045 3.75C14.3329 3.75 15.0045 4.42157 15.0045 5.25L15.0045 13.5Z" stroke="black" stroke-width="1.5"/>
<path d="M20.25 18.75V10.1247C20.25 9.50352 19.7465 9 19.1254 9C18.5042 9 18.0007 9.50352 18.0007 10.1247L18.0007 16.5C18.0007 17.3284 17.3291 18 16.5007 18H10.125C9.50368 18 9 18.5037 9 19.125C9 19.7463 9.50368 20.25 10.125 20.25H18.75C19.5784 20.25 20.25 19.5784 20.25 18.75Z" stroke="black" stroke-width="1.5"/>
</svg>
