<svg viewBox="0 0 24 24" fill="none" xmlns="http://www.w3.org/2000/svg" width="24" height="24">
<path fill-rule="evenodd" clip-rule="evenodd" d="M3.69 9.618L3.69 3.69 9.618 3.69 9.618 4.254C9.618 4.586 9.887 4.854 10.218 4.854 10.55 4.854 10.818 4.586 10.818 4.254L10.818 3.535C10.818 2.958 10.35 2.49 9.773 2.49L3.535 2.49C2.958 2.49 2.49 2.958 2.49 3.535L2.49 9.773C2.49 10.35 2.958 10.818 3.535 10.818H4.254C4.586 10.818 4.854 10.55 4.854 10.218 4.854 9.887 4.586 9.618 4.254 9.618L3.69 9.618Z" fill="black"/>
<path fill-rule="evenodd" clip-rule="evenodd" d="M19.147 13.782C19.147 14.114 19.415 14.382 19.747 14.382H20.311V20.311H14.382V19.747C14.382 19.415 14.114 19.147 13.782 19.147 13.451 19.147 13.182 19.415 13.182 19.747V20.466C13.183 21.043 13.651 21.511 14.228 21.511H20.466C21.043 21.511 21.511 21.043 21.511 20.466V14.228C21.511 13.651 21.043 13.183 20.466 13.182H19.747C19.415 13.182 19.147 13.451 19.147 13.782Z" fill="black"/>
<path d="M17.947 7.322C17.947 6.622 17.379 6.055 16.679 6.054L7.322 6.054C6.622 6.055 6.055 6.622 6.054 7.322L6.054 16.679C6.055 17.379 6.622 17.947 7.322 17.947L16.679 17.947C16.766 17.947 16.852 17.938 16.934 17.921 17.512 17.802 17.947 17.291 17.947 16.679V7.322ZM17.344 7.265L17.345 7.281C17.346 7.294 17.347 7.31 17.347 7.323L17.333 7.188 17.336 7.203 17.338 7.215 17.34 7.23 17.343 7.25 17.344 7.265ZM17.329 7.173L17.322 7.142C17.3 7.068 17.266 7 17.224 6.938L17.211 6.92C17.219 6.93 17.229 6.944 17.236 6.954 17.244 6.965 17.251 6.977 17.258 6.989 17.266 7.003 17.274 7.017 17.281 7.032 17.305 7.079 17.317 7.119 17.329 7.173ZM17.121 6.822C17.146 6.844 17.155 6.852 17.176 6.876 17.18 6.881 17.186 6.888 17.191 6.894L17.201 6.906C17.192 6.896 17.173 6.875 17.163 6.864 17.15 6.85 17.133 6.834 17.121 6.822ZM17.121 6.822L17.104 6.808 17.088 6.795C17.031 6.754 16.961 6.716 16.891 6.691 16.858 6.68 16.825 6.671 16.794 6.664 16.801 6.666 16.816 6.669 16.824 6.67 16.85 6.676 16.868 6.683 16.891 6.691 16.904 6.696 16.922 6.7 16.934 6.705 16.962 6.716 16.984 6.727 17.009 6.742 17.016 6.746 17.032 6.755 17.039 6.76 17.061 6.774 17.084 6.791 17.104 6.808 17.109 6.812 17.117 6.818 17.121 6.822Z" fill="black"/>
</svg>