<svg viewBox="0 0 24 24" fill="none" xmlns="http://www.w3.org/2000/svg" width="24" height="24">
<path fill-rule="evenodd" clip-rule="evenodd" d="M12.019 6.054H16.679C17.379 6.055 17.947 6.622 17.947 7.322V11.982L14.228 11.982C12.988 11.982 11.982 12.988 11.982 14.228L11.982 17.947H7.322C6.622 17.947 6.055 17.379 6.054 16.679L6.054 12.019 9.773 12.019C11.013 12.018 12.018 11.013 12.019 9.773L12.019 6.054Z" fill="black"/>
<path d="M14.228 13.182C14.156 13.182 14.085 13.19 14.017 13.204 13.541 13.301 13.182 13.723 13.182 14.228L13.182 20.465C13.183 21.042 13.651 21.511 14.228 21.511H20.466C21.043 21.511 21.511 21.043 21.511 20.466V14.228C21.511 13.651 21.043 13.183 20.466 13.182L14.228 13.182ZM20.311 14.382V20.311H14.382L14.382 14.382 20.311 14.382ZM20.555 13.792L20.465 13.782C20.711 13.782 20.911 13.982 20.911 14.228L20.902 14.139C20.866 13.964 20.729 13.827 20.555 13.792ZM13.864 20.722C13.883 20.748 13.904 20.772 13.927 20.794 13.912 20.779 13.897 20.764 13.884 20.748 13.849 20.705 13.823 20.663 13.807 20.61 13.791 20.565 13.782 20.516 13.782 20.465L13.791 20.543C13.803 20.608 13.828 20.67 13.864 20.722ZM20.555 20.902L20.469 20.911C20.499 20.91 20.527 20.907 20.555 20.902Z" fill="black"/>
<path d="M9.618 3.69V9.618L3.69 9.618 3.69 3.69 9.618 3.69ZM10.818 9.773V3.535C10.818 2.958 10.35 2.49 9.773 2.49L3.535 2.49C2.958 2.49 2.49 2.958 2.49 3.535L2.49 9.773C2.49 10.35 2.958 10.818 3.535 10.818H9.773C10.35 10.818 10.818 10.35 10.818 9.773ZM9.777 10.218L9.862 10.209C10.065 10.168 10.218 9.989 10.219 9.773 10.219 10.02 10.023 10.218 9.777 10.218ZM3.09 9.773L3.1 9.863C3.141 10.065 3.32 10.219 3.536 10.219 3.29 10.219 3.09 10.02 3.09 9.773ZM9.862 3.1L9.773 3.09C10.02 3.09 10.218 3.286 10.218 3.532L10.209 3.446C10.174 3.272 10.037 3.135 9.862 3.1Z" fill="black"/>
</svg>