<svg width="24" height="24" viewBox="0 0 24 24" fill="none" xmlns="http://www.w3.org/2000/svg">
<path fill-rule="evenodd" clip-rule="evenodd" d="M5.07471 10.0151L5.07471 5.07471L10.0151 5.07471L10.0151 5.54541C10.0151 5.82155 10.239 6.04541 10.5151 6.04541C10.7913 6.04541 11.0151 5.82155 11.0151 5.54541L11.0151 4.9458C11.0149 4.46489 10.625 4.0748 10.144 4.07471L4.9458 4.07471C4.46499 4.07496 4.07496 4.46499 4.07471 4.9458L4.07471 10.144C4.0748 10.625 4.46489 11.0149 4.9458 11.0151H5.54541C5.82155 11.0151 6.04541 10.7913 6.04541 10.5151C6.04541 10.239 5.82155 10.0151 5.54541 10.0151L5.07471 10.0151Z" fill="black"/>
<path fill-rule="evenodd" clip-rule="evenodd" d="M17.9556 13.4854C17.9556 13.7615 18.1794 13.9854 18.4556 13.9854H18.9258V18.9258H13.9854V18.4556C13.9854 18.1794 13.7615 17.9556 13.4854 17.9556C13.2092 17.9556 12.9854 18.1794 12.9854 18.4556V19.0547C12.9856 19.5356 13.3755 19.9257 13.8564 19.9258H19.0547C19.5355 19.9255 19.9255 19.5355 19.9258 19.0547V13.8564C19.9257 13.3755 19.5356 12.9856 19.0547 12.9854H18.4556C18.1794 12.9854 17.9556 13.2092 17.9556 13.4854Z" fill="black"/>
<path d="M16.9556 8.10205C16.9555 7.51853 16.4824 7.04554 15.8989 7.04541L8.10205 7.04541C7.51852 7.04552 7.04552 7.51851 7.04541 8.10205L7.04541 15.8989C7.04554 16.4824 7.51853 16.9555 8.10205 16.9556L15.8989 16.9556C15.9719 16.9555 16.0431 16.9481 16.1119 16.934C16.5933 16.8354 16.9555 16.4093 16.9556 15.8988V8.10205ZM16.4533 8.05458L16.4544 8.06728C16.4551 8.07813 16.4556 8.09183 16.4556 8.10226L16.4438 7.98975L16.4463 8.00255L16.4481 8.01275L16.45 8.02536L16.4522 8.04202L16.4533 8.05458ZM16.4411 7.97731L16.4346 7.95203C16.4169 7.88961 16.3887 7.83312 16.3532 7.78151L16.3425 7.7667C16.3488 7.77482 16.3575 7.78669 16.363 7.79476C16.3696 7.8044 16.3756 7.81407 16.3813 7.82393C16.3884 7.83587 16.3948 7.84777 16.4007 7.85987C16.4208 7.89916 16.4307 7.93225 16.4411 7.97731ZM16.2672 7.68508C16.2887 7.70292 16.2959 7.71015 16.313 7.73014C16.3166 7.73418 16.3217 7.74036 16.3259 7.74539L16.3339 7.75534C16.3266 7.74688 16.3109 7.72951 16.3028 7.7204C16.2916 7.70869 16.2778 7.69491 16.2672 7.68508ZM16.2672 7.68508L16.2531 7.67308L16.2396 7.66276C16.1922 7.62796 16.1338 7.59673 16.0762 7.57621C16.0484 7.56679 16.0205 7.55916 15.995 7.55371C16.0011 7.55486 16.0137 7.55728 16.0198 7.55863C16.0415 7.5631 16.0563 7.56917 16.0762 7.57621C16.0867 7.57981 16.1017 7.5834 16.1118 7.58759C16.1353 7.59693 16.1532 7.60602 16.1741 7.61806C16.1804 7.62163 16.1934 7.62943 16.1994 7.63333C16.2172 7.64479 16.2365 7.65934 16.2531 7.67308C16.2576 7.67669 16.2638 7.68201 16.2672 7.68508Z" fill="black"/>
</svg>
