<svg width="24" height="24" viewBox="0 0 24 24" fill="none" xmlns="http://www.w3.org/2000/svg">
<path d="M9 10.5C9 9.67157 9.67157 9 10.5 9H18.75C19.5784 9 20.25 9.67157 20.25 10.5V18.75C20.25 19.5784 19.5784 20.25 18.75 20.25H10.5C9.67157 20.25 9 19.5784 9 18.75V10.5Z" fill="black"/>
<path d="M6.00381 15H5.25452C4.42609 15 3.75452 14.3284 3.75452 13.5V5.25C3.75452 4.42157 4.42609 3.75 5.25452 3.75H13.5045C14.3329 3.75 15.0045 4.42157 15.0045 5.25V6M10.5 20.25H18.75C19.5784 20.25 20.25 19.5784 20.25 18.75V10.5C20.25 9.67157 19.5784 9 18.75 9H10.5C9.67157 9 9 9.67157 9 10.5V18.75C9 19.5784 9.67157 20.25 10.5 20.25Z" stroke="black" stroke-width="1.5" stroke-linecap="round"/>
</svg>
