<svg xmlns="http://www.w3.org/2000/svg" width="24" height="24" fill="currentColor" viewBox="0 0 24 24"><path d="M22.53 2.28a0.81 0.81 0 0 0-0.81-0.81c-4.463 0-9.043 5.033-11.586 8.366A6.076 6.076 0 0 0 2.28 15.646c0 3.127-1.979 4.529-2.072 4.593A0.81 0.81 0 0 0 0.66 21.72h7.694a6.076 6.076 0 0 0 5.81-7.854c3.334-2.544 8.366-7.123 8.366-11.586m-10.892 8.257q0.521-0.674 1.021-1.271a7.68 7.68 0 0 1 2.075 2.075q-0.598 0.5-1.271 1.021a6.12 6.12 0 0 0-1.825-1.825m4.323-0.271a9.36 9.36 0 0 0-2.227-2.227c3.217-3.496 5.645-4.556 7.078-4.851-0.288 1.434-1.354 3.86-4.851 7.079z"/></svg>