<?xml version="1.0" encoding="utf-8"?>
<svg xmlns="http://www.w3.org/2000/svg" width="512" height="512" viewBox="0 0 512 512">
<path d="M351.09 365.17C351.03 365.6 350.98 366.02 350.92 366.45C351 365.96 351.07 365.46 351.13 364.96C351.13 365.03 351.1 365.1 351.09 365.17ZM351.17 364.68C351.21 364.47 351.23 364.25 351.26 364.04C351.28 363.86 351.3 363.68 351.32 363.5C351.27 363.9 351.22 364.29 351.17 364.68ZM351.13 364.96C351.07 365.46 351 365.96 350.92 366.45C350.98 366.02 351.03 365.6 351.09 365.17C351.1 365.1 351.13 365.03 351.13 364.96ZM351.32 363.5C351.3 363.68 351.28 363.86 351.26 364.04C351.23 364.25 351.21 364.47 351.17 364.68C351.22 364.29 351.27 363.9 351.32 363.5ZM384 240V272H464C472.84 272 480 279.16 480 288C480 292.42 478.21 296.42 475.32 299.32C472.42 302.21 468.42 304 464 304H384V336C436.93 336 480 379.07 480 432V463.79C480 472 473.95 478.92 465.93 479.88C465.29 479.96 464.66 480 464.02 480C460.13 480 456.34 478.58 453.39 475.97C449.97 472.93 448 468.56 448 464V432C448 396.71 419.29 368 384 368H383.01C383.59 363.3 383.93 358.51 383.98 353.66C383.91 358.4 383.58 363.07 383.01 367.67C375.13 430.99 321.27 480 256 480C190.73 480 136.87 430.99 128.99 367.67C128.42 363.07 128.09 358.4 128.02 353.66C128.07 358.51 128.41 363.3 128.99 368H128C92.71 368 64 396.71 64 432V464C64 468.56 62.03 472.93 58.61 475.97C55.66 478.58 51.87 480 47.98 480C47.34 480 46.71 479.96 46.07 479.88C42.06 479.4 38.54 477.43 36.03 474.55C33.51 471.68 32 467.9 32 463.79V432C32 379.07 75.07 336 128 336V304H48C39.16 304 32 296.84 32 288C32 283.58 33.79 279.58 36.68 276.68C39.58 273.79 43.58 272 48 272H128V240C75.07 240 32 196.93 32 144V112.21C32 104 38.05 97.08 46.07 96.12C46.71 96.04 47.35 96 47.98 96C51.88 96 55.67 97.42 58.61 100.03C62.03 103.07 64 107.44 64 112V144C64 179.29 92.71 208 128 208V207.19C128 181.72 142.78 159.72 164.21 149.35C167.46 147.77 170.86 146.47 174.39 145.46C174.78 145.35 175.17 145.24 175.57 145.14C178.28 128.48 186.05 113.51 197.26 101.87C193.89 95.31 192 87.88 192 80V48C192 39.16 199.16 32 208 32C209.63 32 211.2 32.24 212.68 32.7C215.22 33.47 217.49 34.85 219.32 36.68C222.21 39.58 224 43.58 224 48V80C224 81.11 224.11 82.19 224.33 83.23C234.06 79.12 244.76 76.85 256 76.85C267.24 76.85 277.95 79.13 287.69 83.24C287.9 82.23 288 81.19 288 80.13V48.13C288 43.71 289.79 39.71 292.68 36.81C294.51 34.98 296.78 33.6 299.32 32.83C300.8 32.37 302.37 32.13 304 32.13C312.84 32.13 320 39.29 320 48.13V80.13C320 87.97 318.12 95.38 314.79 101.91C325.97 113.55 333.72 128.49 336.43 145.13C340.38 146.18 344.17 147.6 347.78 149.35C369.21 159.72 384 181.71 384 207.19V208C419.29 208 448 179.29 448 144V112C448 107.44 449.97 103.07 453.39 100.03C456.82 97 461.38 95.57 465.93 96.12C469.94 96.6 473.46 98.57 475.97 101.45C478.49 104.32 480 108.1 480 112.21V144C480 196.93 436.93 240 384 240ZM351.13 364.96C351.13 365.03 351.1 365.1 351.09 365.17C351.03 365.6 350.98 366.02 350.92 366.45C351 365.96 351.07 365.46 351.13 364.96ZM351.13 364.62C351.13 364.69 351.1 364.76 351.09 364.83C351.03 365.26 350.98 365.68 350.92 366.11C351 365.62 351.07 365.12 351.13 364.62ZM351.32 363.5C351.27 363.9 351.22 364.29 351.17 364.68C351.21 364.47 351.23 364.25 351.26 364.04C351.28 363.86 351.3 363.68 351.32 363.5ZM351.32 363.15C351.27 363.55 351.22 363.95 351.17 364.34C351.21 364.13 351.23 363.91 351.26 363.69C351.28 363.51 351.3 363.33 351.32 363.15Z" fill="black"/>
</svg>
