<svg width="24" height="24" viewBox="0 0 24 24" fill="none" xmlns="http://www.w3.org/2000/svg">
<g clip-path="url(#clip0_2021_25557)">
<path d="M15.7489 8.62324C15.7489 8.84574 15.6829 9.06325 15.5593 9.24825C15.4357 9.43325 15.26 9.57745 15.0544 9.6626C14.8489 9.74774 14.6227 9.77002 14.4044 9.72661C14.1862 9.68321 13.9858 9.57606 13.8284 9.41873C13.6711 9.26139 13.564 9.06094 13.5205 8.84271C13.4771 8.62449 13.4994 8.39829 13.5846 8.19272C13.6697 7.98716 13.8139 7.81146 13.9989 7.68784C14.1839 7.56423 14.4014 7.49825 14.6239 7.49825C14.9223 7.49825 15.2084 7.61677 15.4194 7.82775C15.6304 8.03873 15.7489 8.32487 15.7489 8.62324ZM9.37396 7.49825C9.15145 7.49825 8.93395 7.56423 8.74895 7.68784C8.56394 7.81146 8.41975 7.98716 8.3346 8.19272C8.24945 8.39829 8.22717 8.62449 8.27058 8.84271C8.31399 9.06094 8.42114 9.26139 8.57847 9.41873C8.7358 9.57606 8.93626 9.68321 9.15448 9.72661C9.37271 9.77002 9.59891 9.74774 9.80447 9.6626C10.01 9.57745 10.1857 9.43325 10.3094 9.24825C10.433 9.06325 10.4989 8.84574 10.4989 8.62324C10.4989 8.32487 10.3804 8.03873 10.1694 7.82775C9.95847 7.61677 9.67232 7.49825 9.37396 7.49825ZM20.2489 13.4982C20.2509 14.2262 20.1564 14.9513 19.9676 15.6544L22.0526 16.5657C22.2079 16.6364 22.3345 16.758 22.4113 16.9104C22.4882 17.0628 22.5108 17.2368 22.4754 17.4038C22.44 17.5707 22.3487 17.7206 22.2166 17.8287C22.0845 17.9368 21.9195 17.9965 21.7489 17.9982C21.6456 17.9984 21.5434 17.977 21.4489 17.9354L19.4408 17.0607C18.7689 18.4646 17.7137 19.6499 16.3969 20.4796C15.08 21.3093 13.5554 21.7496 11.9989 21.7496C10.4425 21.7496 8.91785 21.3093 7.60102 20.4796C6.28419 19.6499 5.22893 18.4646 4.55712 17.0607L2.54901 17.9354C2.45449 17.977 2.3523 17.9984 2.24901 17.9982C2.07679 17.9981 1.90985 17.9387 1.77624 17.83C1.64263 17.7214 1.55049 17.57 1.5153 17.4014C1.48011 17.2328 1.50401 17.0573 1.58299 16.9042C1.66197 16.7512 1.79122 16.63 1.94901 16.561L4.03025 15.6544C3.84151 14.9513 3.74694 14.2262 3.749 13.4982V12.7482H1.49902C1.30011 12.7482 1.10934 12.6692 0.968692 12.5285C0.82804 12.3879 0.749023 12.1971 0.749023 11.9982C0.749023 11.7993 0.82804 11.6085 0.968692 11.4679C1.10934 11.3272 1.30011 11.2482 1.49902 11.2482H3.749V10.4982C3.74694 9.7702 3.84151 9.04513 4.03025 8.34199L1.94901 7.43544C1.85662 7.3975 1.77273 7.34149 1.70227 7.2707C1.63181 7.1999 1.5762 7.11574 1.53871 7.02317C1.50122 6.93059 1.48259 6.83145 1.48393 6.73158C1.48527 6.63171 1.50655 6.53311 1.54651 6.44157C1.58647 6.35003 1.64432 6.26739 1.71665 6.19851C1.78898 6.12963 1.87434 6.07589 1.96773 6.04045C2.06111 6.00501 2.16063 5.98857 2.26045 5.99212C2.36027 5.99566 2.45837 6.0191 2.54901 6.06107L4.55712 6.93575C5.22893 5.53179 6.28419 4.34651 7.60102 3.51681C8.91785 2.6871 10.4425 2.24683 11.9989 2.24683C13.5554 2.24683 15.08 2.6871 16.3969 3.51681C17.7137 4.34651 18.7689 5.53179 19.4408 6.93575L21.4489 6.05826C21.6302 5.9838 21.8335 5.98331 22.0152 6.05691C22.1969 6.1305 22.3426 6.27231 22.4211 6.45198C22.4995 6.63166 22.5045 6.8349 22.4349 7.01819C22.3653 7.20148 22.2268 7.35024 22.0489 7.43262L19.9676 8.34668C20.1564 9.04981 20.2509 9.77489 20.2489 10.5029V11.2529H22.4989C22.6978 11.2529 22.8885 11.3319 23.0292 11.4726C23.1698 11.6132 23.2489 11.804 23.2489 12.0029C23.2489 12.2018 23.1698 12.3926 23.0292 12.5332C22.8885 12.6739 22.6978 12.7529 22.4989 12.7529H20.2489V13.4982ZM12.7489 13.4982C12.7489 13.2993 12.6699 13.1085 12.5293 12.9679C12.3886 12.8272 12.1978 12.7482 11.9989 12.7482C11.8 12.7482 11.6093 12.8272 11.4686 12.9679C11.328 13.1085 11.2489 13.2993 11.2489 13.4982V19.4982C11.2489 19.6971 11.328 19.8878 11.4686 20.0285C11.6093 20.1691 11.8 20.2481 11.9989 20.2481C12.1978 20.2481 12.3886 20.1691 12.5293 20.0285C12.6699 19.8878 12.7489 19.6971 12.7489 19.4982V13.4982ZM18.7489 10.4982C18.7489 8.70803 18.0377 6.99115 16.7719 5.72529C15.506 4.45943 13.7891 3.74828 11.9989 3.74828C10.2087 3.74828 8.49186 4.45943 7.226 5.72529C5.96014 6.99115 5.24899 8.70803 5.24899 10.4982V11.2482H18.7489V10.4982Z" fill="black"/>
</g>
<defs>
<clipPath id="clip0_2021_25557">
<rect width="23.9998" height="23.9998" fill="white"/>
</clipPath>
</defs>
</svg>
