<svg xmlns="http://www.w3.org/2000/svg" width="24" height="24" fill="currentColor" viewBox="0 0 24 24"><path d="M21.427 18.75H20.1V9.3a1.35 1.35 0 0 0-1.35-1.35h-3.713a.34.34 0 0 0-.338.338V18.75h-1.35V3.935a1.39 1.39 0 0 0-.52-1.097 1.35 1.35 0 0 0-1.579-.058L4.5 7.276a1.35 1.35 0 0 0-.601 1.126v10.349H2.572a.69.69 0 0 0-.698.63.675.675 0 0 0 .675.72h18.9a.675.675 0 0 0 .675-.72.69.69 0 0 0-.698-.63zM7.612 16.725a.675.675 0 0 1-.72.675.69.69 0 0 1-.63-.699v-1.304a.69.69 0 0 1 .63-.698.675.675 0 0 1 .72.675zm0-4.725a.675.675 0 0 1-.72.675.69.69 0 0 1-.63-.699v-1.304a.69.69 0 0 1 .63-.698.675.675 0 0 1 .72.675zm3.375 4.725a.675.675 0 0 1-.72.675.69.69 0 0 1-.63-.697v-1.305a.69.69 0 0 1 .63-.697.675.675 0 0 1 .72.675zm0-4.725a.675.675 0 0 1-.72.675.69.69 0 0 1-.63-.697v-1.305a.69.69 0 0 1 .63-.697.675.675 0 0 1 .72.675z"/></svg>