<svg width="24" height="24" viewBox="0 0 24 24" fill="none" xmlns="http://www.w3.org/2000/svg">
<g clip-path="url(#clip0_2021_25561)">
<path d="M22.4737 19.4977H20.9991V8.99779C20.9991 8.59997 20.841 8.21844 20.5597 7.93714C20.2784 7.65584 19.8969 7.4978 19.4991 7.4978H15.3741C15.2746 7.4978 15.1793 7.53731 15.1089 7.60764C15.0386 7.67796 14.9991 7.77335 14.9991 7.8728V19.4977H13.4991V3.03628C13.5016 2.80264 13.4509 2.57149 13.3508 2.36034C13.2508 2.14919 13.104 1.96357 12.9216 1.81754C12.673 1.6237 12.3696 1.51312 12.0546 1.50151C11.7395 1.48989 11.4288 1.57784 11.1666 1.75285L3.66668 6.74781C3.46094 6.88508 3.29233 7.07109 3.17588 7.28929C3.05942 7.50749 2.99872 7.75109 2.99919 7.99843V19.4977H1.52451C1.3307 19.4949 1.143 19.5655 0.999155 19.6954C0.855314 19.8253 0.766009 20.0049 0.749206 20.198C0.742395 20.3006 0.756749 20.4035 0.791378 20.5003C0.826007 20.5971 0.88017 20.6858 0.950504 20.7608C1.02084 20.8358 1.10584 20.8955 1.20023 20.9363C1.29462 20.977 1.39639 20.9979 1.4992 20.9977H22.499C22.6019 20.9979 22.7036 20.977 22.798 20.9363C22.8924 20.8955 22.9774 20.8358 23.0477 20.7608C23.1181 20.6858 23.1722 20.5971 23.2069 20.5003C23.2415 20.4035 23.2558 20.3006 23.249 20.198C23.2322 20.0049 23.1429 19.8253 22.9991 19.6954C22.8552 19.5655 22.6675 19.4949 22.4737 19.4977ZM7.12416 17.2477C7.12438 17.3505 7.10347 17.4523 7.06271 17.5467C7.02195 17.6411 6.96222 17.7261 6.88722 17.7964C6.81223 17.8668 6.72358 17.9209 6.62677 17.9556C6.52996 17.9902 6.42707 18.0045 6.32448 17.9977C6.13121 17.9809 5.9515 17.8915 5.82155 17.7474C5.6916 17.6034 5.62107 17.4155 5.62417 17.2215V15.7731C5.62153 15.5793 5.69224 15.3917 5.82212 15.2479C5.95201 15.1041 6.13146 15.0148 6.32448 14.9977C6.42707 14.9909 6.52996 15.0053 6.62677 15.0399C6.72358 15.0745 6.81223 15.1287 6.88722 15.199C6.96222 15.2694 7.02195 15.3544 7.06271 15.4488C7.10347 15.5432 7.12438 15.6449 7.12416 15.7477V17.2477ZM7.12416 11.9978C7.12438 12.1006 7.10347 12.2023 7.06271 12.2967C7.02195 12.3911 6.96222 12.4761 6.88722 12.5465C6.81223 12.6168 6.72358 12.671 6.62677 12.7056C6.52996 12.7402 6.42707 12.7546 6.32448 12.7478C6.13129 12.7307 5.95171 12.6412 5.8218 12.4972C5.6919 12.3532 5.62129 12.1654 5.62417 11.9715V10.5231C5.62153 10.3293 5.69224 10.1418 5.82212 9.99796C5.95201 9.85417 6.13146 9.7648 6.32448 9.74779C6.42707 9.74098 6.52996 9.75533 6.62677 9.78996C6.72358 9.82459 6.81223 9.87875 6.88722 9.94909C6.96222 10.0194 7.02195 10.1044 7.06271 10.1988C7.10347 10.2932 7.12438 10.395 7.12416 10.4978V11.9978ZM10.8741 17.2477C10.8744 17.3505 10.8534 17.4523 10.8127 17.5467C10.7719 17.6411 10.7122 17.7261 10.6372 17.7964C10.5622 17.8668 10.4735 17.9209 10.3767 17.9556C10.2799 17.9902 10.177 18.0045 10.0744 17.9977C9.88151 17.9809 9.70207 17.8918 9.57216 17.7481C9.44226 17.6045 9.37152 17.417 9.37414 17.2234V15.7731C9.37174 15.5795 9.44256 15.3921 9.57242 15.2485C9.70228 15.1049 9.88159 15.0157 10.0744 14.9987C10.177 14.9919 10.2799 15.0062 10.3767 15.0409C10.4735 15.0755 10.5622 15.1296 10.6372 15.2C10.7122 15.2703 10.7719 15.3553 10.8127 15.4497C10.8534 15.5441 10.8744 15.6459 10.8741 15.7487V17.2477ZM10.8741 11.9978C10.8744 12.1006 10.8534 12.2023 10.8127 12.2967C10.7719 12.3911 10.7122 12.4761 10.6372 12.5465C10.5622 12.6168 10.4735 12.671 10.3767 12.7056C10.2799 12.7402 10.177 12.7546 10.0744 12.7478C9.88159 12.7308 9.70228 12.6415 9.57242 12.4979C9.44256 12.3543 9.37174 12.167 9.37414 11.9734V10.5231C9.37174 10.3295 9.44256 10.1422 9.57242 9.99856C9.70228 9.85497 9.88159 9.76573 10.0744 9.74872C10.177 9.74191 10.2799 9.75627 10.3767 9.7909C10.4735 9.82553 10.5622 9.87969 10.6372 9.95002C10.7122 10.0204 10.7719 10.1054 10.8127 10.1997C10.8534 10.2941 10.8744 10.3959 10.8741 10.4987V11.9978Z" fill="black"/>
</g>
<defs>
<clipPath id="clip0_2021_25561">
<rect width="23.9998" height="23.9998" fill="white"/>
</clipPath>
</defs>
</svg>
