<svg width="24" height="24" viewBox="0 0 24 24" fill="none" xmlns="http://www.w3.org/2000/svg">
<path d="M20.9689 6.19947L12.7189 1.68544C12.4985 1.56364 12.2508 1.49976 11.9989 1.49976C11.7471 1.49976 11.4994 1.56364 11.279 1.68544L3.02902 6.20134C2.79341 6.33025 2.59674 6.52005 2.45954 6.75093C2.32234 6.9818 2.24963 7.24527 2.24902 7.51383V16.48C2.24963 16.7486 2.32234 17.0121 2.45954 17.2429C2.59674 17.4738 2.79341 17.6636 3.02902 17.7925L11.279 22.3084C11.4994 22.4302 11.7471 22.4941 11.9989 22.4941C12.2508 22.4941 12.4985 22.4302 12.7189 22.3084L20.9689 17.7925C21.2045 17.6636 21.4012 17.4738 21.5384 17.2429C21.6756 17.0121 21.7483 16.7486 21.7489 16.48V7.51477C21.7488 7.24573 21.6763 6.98167 21.5391 6.75026C21.4018 6.51885 21.2049 6.32861 20.9689 6.19947ZM11.9989 11.2479L4.46619 7.1229L11.9989 2.99793L19.5317 7.1229L11.9989 11.2479ZM12.7489 20.589V12.5444L20.2489 8.44008V16.48L12.7489 20.589Z" fill="black"/>
</svg>
