<?xml version="1.0" encoding="utf-8"?>
<svg xmlns="http://www.w3.org/2000/svg" width="512" height="512" viewBox="0 0 512 512">
<path d="m144,96h-32v32h32v-32Zm64,0h-32v32h32v-32Zm79.97,128.24v32h32v-32h-32Zm.03,63.76v32h32v-32h-32Zm63.97-63.76v32h32v-32h-32Zm.03,63.76v32h32v-32h-32ZM112,160v32h32v-32h-32Zm0,64v32h32v-32h-32Zm0,64v32h32v-32h-32Zm64-128v32h32v-32h-32Zm0,64v32h32v-32h-32Zm0,64v32h32v-32h-32Zm111.97-63.76v32h32v-32h-32Zm.03,63.76v32h32v-32h-32Zm63.97-63.76v32h32v-32h-32Zm.03,63.76v32h32v-32h-32ZM112,160v32h32v-32h-32Zm0,64v32h32v-32h-32Zm0,64v32h32v-32h-32Zm64-128v32h32v-32h-32Zm0,64v32h32v-32h-32Zm0,64v32h32v-32h-32Zm111.97-63.76v32h32v-32h-32Zm.03,63.76v32h32v-32h-32Zm63.97-63.76v32h32v-32h-32Zm.03,63.76v32h32v-32h-32Zm0,0v32h32v-32h-32Zm-.03-63.76v32h32v-32h-32Zm-63.97,63.76v32h32v-32h-32Zm-.03-63.76v32h32v-32h-32Zm-111.97,63.76v32h32v-32h-32Zm0-64v32h32v-32h-32Zm0-64v32h32v-32h-32Zm-64,128v32h32v-32h-32Zm0-64v32h32v-32h-32Zm0-64v32h32v-32h-32Zm240,128v32h32v-32h-32Zm-.03-63.76v32h32v-32h-32Zm-63.97,63.76v32h32v-32h-32Zm-.03-63.76v32h32v-32h-32Zm-111.97,63.76v32h32v-32h-32Zm0-64v32h32v-32h-32Zm0-64v32h32v-32h-32Zm-64,128v32h32v-32h-32Zm0-64v32h32v-32h-32Zm0-64v32h32v-32h-32Zm240,128v32h32v-32h-32Zm-.03-63.76v32h32v-32h-32Zm-63.97,63.76v32h32v-32h-32Zm-.03-63.76v32h32v-32h-32Zm-175.97,63.76v32h32v-32h-32Zm64,0v32h32v-32h-32Zm-64-64v32h32v-32h-32Zm64,0v32h32v-32h-32Zm-64-64v32h32v-32h-32Zm64,0v32h32v-32h-32Zm112,128v32h32v-32h-32Zm64,0v32h32v-32h-32Zm-64.03-63.76v32h32v-32h-32Zm64,0v32h32v-32h-32Zm96.03,223.76V160h-192V32H64v416h-32v32h448v-32h-32Zm-224,0h-32v-96h-64v96h-32V64h128v384Zm192,0h-32v-96h-96v96h-32V192h160v256Z"/>
</svg>
