<?xml version="1.0" encoding="utf-8"?>
<svg xmlns="http://www.w3.org/2000/svg" width="512" height="512" viewBox="0 0 512 512">
<path d="m479.16,221.81l-28.95-57.89c-1.35-2.71-4.12-4.42-7.15-4.42H40c-4.42,0-8,3.58-8,8v144c0,4.42,3.58,8,8,8h58.73c6.59,18.64,24.37,32,45.27,32s38.68-13.36,45.27-32h132.75c.11.33.22.67.34,1,6.59,18.64,24.37,32,45.27,32s38.68-13.36,45.27-32c.12-.33.23-.67.34-1h58.76c4.42,0,8-3.58,8-8v-86.11c0-1.24-.29-2.47-.84-3.58Zm-383.16,1.69h-32v-32h32v32Zm48,96c-8.82,0-16-7.18-16-16s7.18-16,16-16,16,7.18,16,16-7.18,16-16,16Zm16-96h-32v-32h32v32Zm160-31.74h32v64h-32v-64Zm-96,31.74h-32v-32h32v32Zm64,0h-32v-32h32v32Zm85.2,96c-1.74.65-3.61,1-5.57,1s-3.83-.35-5.57-1c-6.08-2.27-10.43-8.14-10.43-15,0-8.82,7.18-16,16-16s16,7.18,16,16c0,6.86-4.35,12.73-10.43,15Zm10.8-96v-32h48l16,32h-64Z"/>
</svg>
