<svg xmlns="http://www.w3.org/2000/svg" width="24" height="24" fill="currentColor" viewBox="0 0 24 24"><path d="M21.365 18.361a1.216 1.216 0 0 1 0 1.721l-1.285 1.282a1.216 1.216 0 0 1-1.721 0l-5.727-5.728-1.947 5.08c0 0.01-0.008 0.022-0.013 0.032a1.608 1.608 0 0 1-1.479 0.971h-0.08a1.608 1.608 0 0 1-1.459-1.114L2.362 4.397a1.62 1.62 0 0 1 2.037-2.038l16.209 5.292a1.62 1.62 0 0 1 0.142 3.017l-0.032 0.013-5.08 1.951zM8.76 2.28a0.81 0.81 0 0 0 0.81-0.81V0.66a0.81 0.81 0 0 0-1.62 0v0.81A0.81 0.81 0 0 0 8.76 2.28M0.66 9.57h0.81a0.81 0.81 0 0 0 0-1.62H0.66a0.81 0.81 0 0 0 0 1.62m10.978-6.565a0.81 0.81 0 0 0 1.087-0.363l0.81-1.62a0.81 0.81 0 0 0-1.449-0.724l-0.81 1.62a0.81 0.81 0 0 0 0.362 1.087m-9.72 8.271l-1.62 0.81a0.81 0.81 0 0 0 0.724 1.449l1.62-0.81a0.81 0.81 0 1 0-0.724-1.449"/></svg>