<svg xmlns="http://www.w3.org/2000/svg" width="24" height="24" fill="currentColor" viewBox="0 0 24 24"><path d="M19.29 1.47H4.71a1.62 1.62 0 0 0-1.62 1.62v17.82a1.62 1.62 0 0 0 1.62 1.62h14.58a1.62 1.62 0 0 0 1.62-1.62V3.09a1.62 1.62 0 0 0-1.62-1.62m-11.34 17.82a1.216 1.216 0 1 1 1.214-1.214 1.216 1.216 0 0 1-1.214 1.214m0-4.05a1.216 1.216 0 1 1 1.214-1.214A1.216 1.216 0 0 1 7.95 15.24M12 19.29a1.216 1.216 0 1 1 1.214-1.214A1.216 1.216 0 0 1 12 19.29m0-4.05a1.216 1.216 0 1 1 1.214-1.214A1.216 1.216 0 0 1 12 15.24m4.05 4.05a1.216 1.216 0 1 1 1.214-1.214 1.216 1.216 0 0 1-1.214 1.214m0-4.05a1.216 1.216 0 1 1 1.214-1.214 1.216 1.216 0 0 1-1.214 1.214m1.62-5.67a0.81 0.81 0 0 1-0.81 0.81h-9.72a0.81 0.81 0 0 1-0.81-0.81V5.52a0.81 0.81 0 0 1 0.81-0.81h9.72a0.81 0.81 0 0 1 0.81 0.81z"/></svg>