<svg width="24" height="24" viewBox="0 0 24 24" fill="none" xmlns="http://www.w3.org/2000/svg">
<path d="M19.4989 2.99974H17.2489V2.24975C17.2489 2.05084 17.1699 1.86008 17.0292 1.71942C16.8886 1.57877 16.6978 1.49976 16.4989 1.49976C16.3 1.49976 16.1092 1.57877 15.9686 1.71942C15.8279 1.86008 15.7489 2.05084 15.7489 2.24975V2.99974H8.24898V2.24975C8.24898 2.05084 8.16997 1.86008 8.02931 1.71942C7.88866 1.57877 7.6979 1.49976 7.49899 1.49976C7.30008 1.49976 7.10931 1.57877 6.96866 1.71942C6.82801 1.86008 6.74899 2.05084 6.74899 2.24975V2.99974H4.49901C4.10119 2.99974 3.71966 3.15778 3.43836 3.43908C3.15706 3.72038 2.99902 4.10191 2.99902 4.49973V19.4996C2.99902 19.8974 3.15706 20.279 3.43836 20.5603C3.71966 20.8416 4.10119 20.9996 4.49901 20.9996H19.4989C19.8967 20.9996 20.2782 20.8416 20.5595 20.5603C20.8409 20.279 20.9989 19.8974 20.9989 19.4996V4.49973C20.9989 4.10191 20.8409 3.72038 20.5595 3.43908C20.2782 3.15778 19.8967 2.99974 19.4989 2.99974ZM11.999 15.7496C11.7023 15.7496 11.4123 15.6617 11.1656 15.4969C10.9189 15.332 10.7267 15.0978 10.6131 14.8237C10.4996 14.5496 10.4699 14.248 10.5278 13.957C10.5857 13.6661 10.7285 13.3988 10.9383 13.189C11.1481 12.9792 11.4154 12.8364 11.7063 12.7785C11.9973 12.7206 12.2989 12.7503 12.573 12.8638C12.8471 12.9774 13.0813 13.1696 13.2462 13.4163C13.411 13.663 13.4989 13.953 13.4989 14.2497C13.4989 14.6475 13.3409 15.029 13.0596 15.3103C12.7783 15.5916 12.3968 15.7496 11.999 15.7496ZM19.4989 7.49971H4.49901V4.49973H6.74899V5.24973C6.74899 5.44864 6.82801 5.6394 6.96866 5.78005C7.10931 5.9207 7.30008 5.99972 7.49899 5.99972C7.6979 5.99972 7.88866 5.9207 8.02931 5.78005C8.16997 5.6394 8.24898 5.44864 8.24898 5.24973V4.49973H15.7489V5.24973C15.7489 5.44864 15.8279 5.6394 15.9686 5.78005C16.1092 5.9207 16.3 5.99972 16.4989 5.99972C16.6978 5.99972 16.8886 5.9207 17.0292 5.78005C17.1699 5.6394 17.2489 5.44864 17.2489 5.24973V4.49973H19.4989V7.49971Z" fill="black"/>
</svg>
