<svg width="24" height="24" viewBox="0 0 24 24" fill="none" xmlns="http://www.w3.org/2000/svg">
<path d="M18.7489 11.9994C18.7497 13.5304 18.2278 15.0157 17.2695 16.2097L7.78867 6.72885C8.78104 5.93457 9.97764 5.43686 11.2406 5.29306C12.5035 5.14927 13.7814 5.36525 14.9269 5.91611C16.0724 6.46697 17.039 7.3303 17.7152 8.40659C18.3914 9.48289 18.7497 10.7283 18.7489 11.9994ZM5.249 11.9994C5.24817 13.2705 5.60651 14.516 6.28272 15.5923C6.95893 16.6686 7.92549 17.5319 9.07102 18.0828C10.2165 18.6336 11.4944 18.8496 12.7573 18.7058C14.0203 18.562 15.2169 18.0643 16.2092 17.27L6.72837 7.78915C5.77011 8.98313 5.2482 10.4685 5.249 11.9994ZM22.1239 11.9994C22.1239 14.002 21.5301 15.9595 20.4175 17.6245C19.305 19.2896 17.7237 20.5873 15.8736 21.3536C14.0235 22.12 11.9877 22.3205 10.0237 21.9298C8.05963 21.5391 6.25555 20.5748 4.83955 19.1588C3.42355 17.7428 2.45925 15.9388 2.06858 13.9747C1.6779 12.0107 1.87841 9.97488 2.64474 8.12479C3.41107 6.27471 4.70881 4.69341 6.37385 3.58087C8.03888 2.46833 9.99643 1.87451 11.999 1.87451C14.6833 1.87749 17.2569 2.94518 19.1551 4.84332C21.0532 6.74147 22.1209 9.31505 22.1239 11.9994ZM20.2489 11.9994C20.2489 10.3678 19.765 8.77271 18.8585 7.41601C17.952 6.05932 16.6635 5.0019 15.1561 4.37749C13.6486 3.75307 11.9898 3.58969 10.3895 3.90802C8.78914 4.22634 7.31914 5.01207 6.16536 6.16585C5.01159 7.31962 4.22586 8.78962 3.90753 10.39C3.58921 11.9903 3.75258 13.6491 4.377 15.1565C5.00142 16.664 6.05884 17.9525 7.41553 18.859C8.77223 19.7655 10.3673 20.2494 11.999 20.2494C14.1862 20.2469 16.2832 19.3769 17.8298 17.8303C19.3764 16.2837 20.2464 14.1867 20.2489 11.9994Z" fill="black"/>
</svg>
