<?xml version="1.0" encoding="UTF-8"?><svg xmlns="http://www.w3.org/2000/svg" width="512" height="512" viewBox="0 0 512 512"><path d="m475.08,241.41l-5.43-9.51c-9.79-13.82-25.62-23.06-43.65-23.84-.83-.04-1.66-.06-2.5-.06h-68.25l-83.25-48h-128l-56.51,32h-31.49c-13.25,0-24,10.75-24,24v80c0,13.25,10.75,24,24,24h42.73c6.59,18.64,24.37,32,45.27,32s38.68-13.36,45.27-32h134.07c6.61,18.62,24.37,31.95,45.25,31.95s38.53-13.25,45.19-31.78c.02-.06.04-.11.06-.17h49.86c9,0,16.3-7.3,16.3-16.3v-39.2c0-8.23-1.76-16.04-4.92-23.09Zm-331.08,78.59c-8.82,0-16-7.18-16-16s7.18-16,16-16,16,7.18,16,16-7.18,16-16,16Zm64-96h-64v-32h64v32Zm96,.15h-64v-32.15h24l55.6,32-15.6.15Zm80.52,81.25c-.73,8.15-7.6,14.55-15.93,14.55-8.83,0-16-7.17-16-16s6.52-15.33,14.78-15.95c.4-.03.81-.05,1.22-.05s.83.02,1.23.05c.84.07,1.67.2,2.47.39,7.05,1.67,12.3,8.02,12.3,15.56,0,.49-.02.97-.07,1.45Z"/></svg>