<svg width="24" height="24" viewBox="0 0 24 24" fill="none" xmlns="http://www.w3.org/2000/svg">
<path d="M20.7795 11.4719L13.2796 3.97192C13.1747 3.86691 13.041 3.79538 12.8954 3.7664C12.7498 3.73741 12.599 3.75226 12.4618 3.80908C12.3247 3.86589 12.2075 3.96211 12.1251 4.08555C12.0427 4.209 11.9988 4.35412 11.9989 4.50254V10.1922L5.77961 3.97192C5.67472 3.86691 5.54103 3.79538 5.39547 3.7664C5.2499 3.73741 5.09901 3.75226 4.9619 3.80908C4.82478 3.86589 4.7076 3.96211 4.6252 4.08555C4.5428 4.209 4.49888 4.35412 4.49899 4.50254V19.5024C4.49888 19.6508 4.5428 19.796 4.6252 19.9194C4.7076 20.0429 4.82478 20.1391 4.9619 20.1959C5.09901 20.2527 5.2499 20.2676 5.39547 20.2386C5.54103 20.2096 5.67472 20.1381 5.77961 20.033L11.9989 13.8128V19.5024C11.9988 19.6508 12.0427 19.796 12.1251 19.9194C12.2075 20.0429 12.3247 20.1391 12.4618 20.1959C12.599 20.2527 12.7498 20.2676 12.8954 20.2386C13.041 20.2096 13.1747 20.1381 13.2796 20.033L20.7795 12.5331C20.8492 12.4634 20.9045 12.3807 20.9423 12.2897C20.98 12.1986 20.9995 12.101 20.9995 12.0025C20.9995 11.9039 20.98 11.8063 20.9423 11.7153C20.9045 11.6242 20.8492 11.5415 20.7795 11.4719Z" fill="black"/>
</svg>
