<svg width="24" height="24" viewBox="0 0 24 24" fill="none" xmlns="http://www.w3.org/2000/svg">
<path d="M19.0358 3.80949C18.8988 3.75264 18.748 3.7377 18.6024 3.76657C18.4569 3.79544 18.3232 3.86682 18.2183 3.97167L11.999 10.1919V4.50229C11.9991 4.35387 11.9552 4.20875 11.8728 4.08531C11.7904 3.96187 11.6732 3.86565 11.5361 3.80883C11.3989 3.75202 11.2481 3.73717 11.1025 3.76615C10.9569 3.79514 10.8232 3.86667 10.7183 3.97167L3.21841 11.4716C3.14868 11.5413 3.09336 11.624 3.05561 11.715C3.01787 11.8061 2.99844 11.9037 2.99844 12.0022C2.99844 12.1008 3.01787 12.1984 3.05561 12.2894C3.09336 12.3805 3.14868 12.4632 3.21841 12.5329L10.7183 20.0328C10.8232 20.1378 10.9569 20.2093 11.1025 20.2383C11.2481 20.2673 11.3989 20.2525 11.5361 20.1956C11.6732 20.1388 11.7904 20.0426 11.8728 19.9192C11.9552 19.7957 11.9991 19.6506 11.999 19.5022V13.8125L18.2183 20.0328C18.3232 20.1378 18.4569 20.2093 18.6024 20.2383C18.748 20.2673 18.8989 20.2525 19.036 20.1956C19.1731 20.1388 19.2903 20.0426 19.3727 19.9192C19.4551 19.7957 19.499 19.6506 19.4989 19.5022V4.50229C19.4989 4.35396 19.4549 4.20897 19.3724 4.08565C19.29 3.96233 19.1728 3.86622 19.0358 3.80949Z" fill="black"/>
</svg>
