<svg width="24" height="24" viewBox="0 0 24 24" fill="none" xmlns="http://www.w3.org/2000/svg">
<path d="M14.0295 11.4675C14.0993 11.5371 14.1546 11.6198 14.1923 11.7109C14.2301 11.8019 14.2495 11.8995 14.2495 11.9981C14.2495 12.0966 14.2301 12.1942 14.1923 12.2853C14.1546 12.3763 14.0993 12.4591 14.0295 12.5287L6.52959 20.0286C6.4247 20.1337 6.29101 20.2052 6.14545 20.2342C5.99989 20.2632 5.849 20.2483 5.71188 20.1915C5.57477 20.1347 5.45759 20.0385 5.37519 19.915C5.29278 19.7916 5.24886 19.6464 5.24898 19.498V4.49814C5.24886 4.34972 5.29278 4.2046 5.37519 4.08116C5.45759 3.95772 5.57477 3.8615 5.71188 3.80468C5.849 3.74787 5.99989 3.73301 6.14545 3.762C6.29101 3.79099 6.4247 3.86251 6.52959 3.96752L14.0295 11.4675ZM17.2489 3.74815C17.05 3.74815 16.8592 3.82717 16.7186 3.96782C16.5779 4.10847 16.4989 4.29923 16.4989 4.49814V19.498C16.4989 19.6969 16.5779 19.8877 16.7186 20.0284C16.8592 20.169 17.05 20.248 17.2489 20.248C17.4478 20.248 17.6386 20.169 17.7792 20.0284C17.9199 19.8877 17.9989 19.6969 17.9989 19.498V4.49814C17.9989 4.29923 17.9199 4.10847 17.7792 3.96782C17.6386 3.82717 17.4478 3.74815 17.2489 3.74815Z" fill="black"/>
</svg>
