<svg viewBox="0 0 24 24" fill="none" xmlns="http://www.w3.org/2000/svg" width="24" height="24">
<path d="M5.76 14.97V19.29H3.18C2.683 19.29 2.28 18.887 2.28 18.39V14.97H5.76ZM11.401 12.6V14.79L10.625 14.014C10.391 13.78 10.011 13.78 9.776 14.013 9.542 14.248 9.542 14.627 9.776 14.862L11.575 16.663 11.669 16.74C11.902 16.894 12.219 16.867 12.424 16.663L14.225 14.863C14.459 14.629 14.459 14.249 14.225 14.014 13.99 13.78 13.611 13.78 13.376 14.014L12.601 14.79V12.6H17.04V19.29H6.96V12.6H11.401ZM21.72 18.39C21.72 18.887 21.317 19.29 20.82 19.29H18.24V14.97H21.72V18.39ZM21.72 13.77H18.24V10.17H21.72V13.77ZM5.76 10.17V13.77H2.28V10.17H5.76ZM17.04 11.4H12.601V9.226L13.376 10.002C13.611 10.236 13.99 10.236 14.225 10.002 14.459 9.768 14.459 9.388 14.225 9.154L12.425 7.354C12.22 7.149 11.903 7.123 11.67 7.276L11.576 7.354 9.776 9.154C9.542 9.388 9.542 9.768 9.776 10.002 10.011 10.236 10.39 10.236 10.625 10.002L11.401 9.226V11.4H6.96V4.71H17.04V11.4ZM20.82 4.71C21.317 4.71 21.72 5.113 21.72 5.61V8.97H18.24V4.71H20.82ZM5.76 8.97H2.28V5.61C2.28 5.113 2.683 4.71 3.18 4.71H5.76V8.97Z" fill="black"/>
</svg>