<svg width="24" height="24" viewBox="0 0 24 24" fill="none" xmlns="http://www.w3.org/2000/svg">
<path d="M6.80029 14.4746V18.0752H4.6499C4.23582 18.0752 3.90011 17.7392 3.8999 17.3252V14.4746H6.80029ZM11.5005 12.5V14.3252L10.854 13.6787C10.6589 13.4836 10.3423 13.483 10.147 13.6777C9.95171 13.873 9.95171 14.1895 10.147 14.3848L11.646 15.8857L11.7241 15.9502C11.918 16.0782 12.1821 16.0562 12.353 15.8857L13.854 14.3857C14.0491 14.1906 14.0488 13.874 13.854 13.6787C13.6587 13.4834 13.3422 13.4834 13.147 13.6787L12.5005 14.3252V12.5H16.1997V18.0752H7.80029V12.5H11.5005ZM20.1001 17.3252C20.0999 17.7392 19.7641 18.0751 19.3501 18.0752H17.1997V14.4746H20.1001V17.3252ZM20.1001 13.4746H17.1997V10.4746H20.1001V13.4746ZM6.80029 10.4746V13.4746H3.8999V10.4746H6.80029ZM16.1997 11.5H12.5005V9.68848L13.147 10.335C13.3422 10.5302 13.6587 10.5302 13.854 10.335C14.049 10.1397 14.0492 9.82311 13.854 9.62793L12.354 8.12793C12.1832 7.95715 11.9192 7.93552 11.7251 8.06348L11.647 8.12793L10.147 9.62793C9.95171 9.82319 9.95171 10.1397 10.147 10.335C10.3422 10.5302 10.6587 10.5302 10.854 10.335L11.5005 9.68848V11.5H7.80029V5.9248H16.1997V11.5ZM19.3501 5.9248C19.7642 5.92494 20.1001 6.26068 20.1001 6.6748V9.47461H17.1997V5.9248H19.3501ZM6.80029 9.47461H3.8999V6.6748C3.89991 6.26059 4.23569 5.9248 4.6499 5.9248H6.80029V9.47461Z" fill="black"/>
</svg>
