<svg width="24" height="24" viewBox="0 0 24 24" fill="none" xmlns="http://www.w3.org/2000/svg">
<path d="M7.87501 19.5H3.83301C2.95881 19.4998 2.25017 18.7912 2.25 17.917V15.375H7.87501V19.5ZM14.625 19.5H9.37501V15.375H14.625V19.5ZM21.75 17.917C21.7499 18.7912 21.0412 19.4998 20.167 19.5H16.125V15.375H21.75V17.917ZM21.75 13.875H2.25V10.125H21.75V13.875ZM7.87501 8.625H2.25V6.08301C2.25017 5.20881 2.95881 4.50017 3.83301 4.5H7.87501V8.625ZM14.625 8.625H9.37501V4.5H14.625V8.625ZM20.167 4.5C21.0412 4.50017 21.7499 5.20881 21.75 6.08301V8.625H16.125V4.5H20.167Z" fill="black"/>
</svg>
