<svg viewBox="0 0 24 24" fill="none" xmlns="http://www.w3.org/2000/svg" width="24" height="24">
<path d="M8.161 19.29H3.18C2.683 19.29 2.28 18.887 2.28 18.39V15.031H8.15C8.154 15.031 8.158 15.03 8.161 15.03V19.29ZM14.651 19.29H9.361V4.71H14.651V19.29ZM21.72 18.39C21.72 18.887 21.317 19.29 20.82 19.29H15.851V15.031H21.72V18.39ZM21.72 13.831H15.851V10.171H21.72V13.831ZM8.161 13.831H2.28V10.171H8.15C8.154 10.171 8.158 10.17 8.161 10.17V13.831ZM20.82 4.71C21.317 4.71 21.72 5.113 21.72 5.61V8.971H15.851V4.71H20.82ZM8.161 8.971H2.28V5.61C2.28 5.113 2.683 4.71 3.18 4.71H8.161V8.971Z" fill="black"/>
</svg>