<svg width="24" height="24" viewBox="0 0 24 24" fill="none" xmlns="http://www.w3.org/2000/svg">
<path d="M12.6703 7.91601C12.6081 7.7912 12.5123 7.68621 12.3937 7.61282C12.2751 7.53944 12.1385 7.50056 11.999 7.50056C11.8596 7.50056 11.7229 7.53944 11.6043 7.61282C11.4857 7.68621 11.39 7.7912 11.3278 7.91601L4.57782 21.4159C4.4888 21.5938 4.47411 21.7998 4.53696 21.9885C4.59981 22.1773 4.73507 22.3333 4.91297 22.4223C5.09087 22.5113 5.29684 22.526 5.48558 22.4632C5.67432 22.4003 5.83035 22.2651 5.91937 22.0871L7.21779 19.5015H16.7896L18.0824 22.0871C18.1444 22.211 18.2395 22.3153 18.3571 22.3885C18.4748 22.4616 18.6104 22.5008 18.749 22.5015C18.8768 22.5015 19.0025 22.4687 19.1141 22.4064C19.2257 22.3441 19.3196 22.2543 19.3867 22.1455C19.4539 22.0368 19.4921 21.9127 19.4978 21.785C19.5035 21.6573 19.4765 21.5302 19.4193 21.4159L12.6703 7.91601ZM11.999 9.9288L14.5359 15.0016H9.46215L11.999 9.9288ZM14.9512 8.78975C15.0284 8.35791 15.01 7.91438 14.8973 7.49043C14.7845 7.06647 14.5801 6.6724 14.2986 6.336C14.017 5.99959 13.6651 5.72903 13.2676 5.54338C12.8701 5.35774 12.4368 5.26152 11.9981 5.26152C11.5594 5.26152 11.126 5.35774 10.7285 5.54338C10.3311 5.72903 9.97914 5.99959 9.69757 6.336C9.416 6.6724 9.21164 7.06647 9.09888 7.49043C8.98612 7.91438 8.96772 8.35791 9.04497 8.78975C9.06498 8.88764 9.06523 8.98854 9.04571 9.08652C9.02618 9.18451 8.98728 9.27761 8.93127 9.36035C8.87527 9.44309 8.8033 9.51381 8.71959 9.56835C8.63588 9.62289 8.54211 9.66016 8.4438 9.67796C8.34548 9.69576 8.2446 9.69374 8.14708 9.67202C8.04956 9.65029 7.95736 9.6093 7.8759 9.55144C7.79445 9.49359 7.72537 9.42005 7.67272 9.33513C7.62008 9.25021 7.58494 9.15563 7.56935 9.05694C7.4518 8.40857 7.47807 7.74231 7.64631 7.10521C7.81455 6.46812 8.12066 5.87575 8.54299 5.36995C8.96533 4.86416 9.49359 4.45729 10.0904 4.17809C10.6873 3.8989 11.3382 3.75418 11.9971 3.75418C12.6561 3.75418 13.307 3.8989 13.9038 4.17809C14.5007 4.45729 15.0289 4.86416 15.4513 5.36995C15.8736 5.87575 16.1797 6.46812 16.348 7.10521C16.5162 7.74231 16.5425 8.40857 16.4249 9.05694C16.3937 9.22976 16.3029 9.38617 16.1683 9.49889C16.0336 9.61162 15.8637 9.67352 15.688 9.67381C15.6431 9.67343 15.5983 9.66935 15.554 9.66162C15.3585 9.62582 15.1852 9.51389 15.0722 9.35042C14.9591 9.18694 14.9156 8.98529 14.9512 8.78975ZM6.01312 12.7713C5.17275 11.658 4.65948 10.3325 4.53097 8.94363C4.40246 7.55475 4.6638 6.15755 5.28563 4.90902C5.90747 3.66048 6.86515 2.61009 8.05108 1.87587C9.23701 1.14165 10.6042 0.752686 11.999 0.752686C13.3938 0.752686 14.761 1.14165 15.9469 1.87587C17.1329 2.61009 18.0905 3.66048 18.7124 4.90902C19.3342 6.15755 19.5956 7.55475 19.4671 8.94363C19.3385 10.3325 18.8253 11.658 17.9849 12.7713C17.8637 12.9265 17.6864 13.0279 17.4911 13.0534C17.2959 13.079 17.0984 13.0268 16.9413 12.908C16.7842 12.7892 16.6802 12.6134 16.6516 12.4186C16.6231 12.2237 16.6723 12.0255 16.7887 11.8666C17.4606 10.9759 17.871 9.91556 17.9735 8.80456C18.0761 7.69357 17.8669 6.57598 17.3694 5.57733C16.8718 4.57869 16.1057 3.73856 15.157 3.15131C14.2084 2.56406 13.1147 2.25297 11.999 2.25297C10.8833 2.25297 9.78967 2.56406 8.841 3.15131C7.89233 3.73856 7.12619 4.57869 6.62866 5.57733C6.13112 6.57598 5.92189 7.69357 6.02447 8.80456C6.12705 9.91556 6.53738 10.9759 7.20936 11.8666C7.32573 12.0255 7.37494 12.2237 7.34638 12.4186C7.31782 12.6134 7.21378 12.7892 7.05671 12.908C6.89965 13.0268 6.70216 13.079 6.50691 13.0534C6.31165 13.0279 6.13429 12.9265 6.01312 12.7713Z" fill="black"/>
</svg>
