<svg xmlns="http://www.w3.org/2000/svg" fill="currentColor" viewBox="0 0 24 24" width="24" height="24"><path d="M12.725 7.588a0.81 0.81 0 0 0-1.45 0l-7.29 14.58a0.81 0.81 0 0 0 1.449 0.724l1.402-2.792h10.338l1.397 2.792a0.816 0.816 0 0 0 0.72 0.448 0.81 0.81 0 0 0 0.724-1.172zM12 9.762l2.74 5.479H9.26z m3.188-1.23a3.24 3.24 0 1 0-6.379 0 0.81 0.81 0 1 1-1.593 0.288 4.86 4.86 0 1 1 9.564 0 0.81 0.81 0 0 1-0.796 0.666 1.2 1.2 0 0 1-0.145-0.013 0.81 0.81 0 0 1-0.652-0.942z m-9.652 4.3a8.1 8.1 0 1 1 12.93 0 0.81 0.81 0 0 1-1.293-0.977 6.48 6.48 0 1 0-10.345 0 0.81 0.81 0 0 1-1.292 0.977"/></svg>