<svg width="24" height="24" viewBox="0 0 24 24" fill="none" xmlns="http://www.w3.org/2000/svg">
<path d="M6.375 19.5066H3.83301C2.95885 19.5064 2.25023 18.7977 2.25 17.9236V15.3748H6.375V19.5066ZM11.25 14.113L10.8633 13.7263C10.5704 13.4336 10.0956 13.4336 9.80273 13.7263C9.51017 14.0192 9.5101 14.4941 9.80273 14.7869L11.4697 16.4539L11.5264 16.5056C11.8208 16.7456 12.2557 16.7281 12.5303 16.4539L14.1963 14.7869C14.4892 14.494 14.4891 14.0192 14.1963 13.7263C13.9034 13.4338 13.4285 13.4335 13.1357 13.7263L12.75 14.1121V12.7498H16.125V19.5066H7.875V12.7498H11.25V14.113ZM21.75 17.9236C21.7498 18.7977 21.0411 19.5064 20.167 19.5066H17.625V15.3748H21.75V17.9236ZM6.375 13.8748H2.25V10.1248H6.375V13.8748ZM21.75 13.8748H17.625V10.1248H21.75V13.8748ZM16.125 11.2498H12.75V9.90015L13.1367 10.2869C13.4295 10.5796 13.9044 10.5794 14.1973 10.2869C14.4898 9.99395 14.49 9.51908 14.1973 9.22632L12.5312 7.55933C12.2568 7.28492 11.8219 7.2678 11.5273 7.50757L11.4707 7.55933L9.80371 9.22632C9.51098 9.51922 9.51087 9.99403 9.80371 10.2869C10.0966 10.5795 10.5714 10.5795 10.8643 10.2869L11.25 9.90015V11.2498H7.875V4.50659H16.125V11.2498ZM6.375 8.62476H2.25V6.0896C2.25018 5.21541 2.95882 4.50677 3.83301 4.50659H6.375V8.62476ZM20.167 4.50659C21.0412 4.5068 21.7498 5.21542 21.75 6.0896V8.62476H17.625V4.50659H20.167Z" fill="black"/>
</svg>
