<svg width="24" height="24" viewBox="0 0 24 24" fill="none" xmlns="http://www.w3.org/2000/svg">
<path d="M7.875 19.5129H3.83301C2.95871 19.5128 2.25 18.8043 2.25 17.9299V16.5002H7.875V19.5129ZM14.625 19.5129H9.375V16.5002H14.625V19.5129ZM21.75 17.9299C21.75 18.8043 21.0413 19.5128 20.167 19.5129H16.125V16.5002H21.75V17.9299ZM21.75 15.0002H2.25V9.00024H21.75V15.0002ZM7.875 7.50024H2.25V6.08228C2.25032 5.20821 2.95891 4.49944 3.83301 4.49927H7.875V7.50024ZM14.625 7.50024H9.375V4.49927H14.625V7.50024ZM20.167 4.49927C21.0411 4.49944 21.7497 5.20821 21.75 6.08228V7.50024H16.125V4.49927H20.167Z" fill="black"/>
</svg>
