<svg width="24" height="24" viewBox="0 0 24 24" fill="none" xmlns="http://www.w3.org/2000/svg">
<path fill-rule="evenodd" clip-rule="evenodd" d="M3.75 20.25V3.75C3.75 3.35217 3.90815 2.97076 4.18945 2.68945C4.47076 2.40815 4.85217 2.25 5.25 2.25H14.25C14.4489 2.25 14.6396 2.32907 14.7803 2.46973L20.0303 7.71973C20.2448 7.93421 20.3094 8.25687 20.1934 8.53711C20.0773 8.81737 19.8033 9 19.5 9H14.25C13.8358 9 13.5 8.66421 13.5 8.25V3.75H5.25V20.25H8.37891C8.79312 20.25 9.12891 20.5858 9.12891 21C9.12891 21.4142 8.79312 21.75 8.37891 21.75H5.25C4.85218 21.75 4.47076 21.5919 4.18945 21.3105C3.90815 21.0292 3.75 20.6478 3.75 20.25ZM15 7.5H17.6895L15 4.81055V7.5Z" fill="black"/>
<path d="M18.7861 10.5049C19.0024 10.5263 19.2078 10.6113 19.376 10.749L19.457 10.8223L21.4307 12.7949C21.6371 13.0017 21.7529 13.282 21.7529 13.5742C21.7529 13.8667 21.6374 14.1476 21.4307 14.3545L19.8369 15.9473C19.809 15.99 19.7778 16.0318 19.7402 16.0693C19.7027 16.1069 19.661 16.1381 19.6182 16.166L15.9863 19.7998C15.7796 20.0063 15.4982 20.1229 15.2061 20.123H13.2334C12.9409 20.123 12.66 20.0066 12.4531 19.7998C12.2462 19.5929 12.1299 19.3121 12.1299 19.0195V17.0459C12.1301 16.7539 12.2467 16.4732 12.4531 16.2666L17.8975 10.8223L17.9785 10.749C18.1746 10.5885 18.4211 10.5001 18.6768 10.5L18.7861 10.5049ZM17.7861 13.0547L19.1973 14.4648L20.0879 13.5742L18.6768 12.1641L17.7861 13.0547Z" fill="black"/>
<path fill-rule="evenodd" clip-rule="evenodd" d="M11.2441 14.2461V13.8643L10.7578 14.6436C10.6208 14.8628 10.3797 14.9961 10.1211 14.9961C9.86265 14.9959 9.62233 14.8627 9.48535 14.6436L8.99902 13.8643V14.3486C9.22225 14.4785 9.37394 14.7183 9.37402 14.9951C9.37402 15.4092 9.03804 15.7449 8.62402 15.7451H7.5C7.08579 15.7451 6.75 15.4093 6.75 14.9951C6.75013 14.5813 7.08534 14.2456 7.49902 14.2451V11.999C7.08534 11.9985 6.75013 11.6638 6.75 11.25C6.75 10.8358 7.08579 10.5 7.5 10.5H8.24902L8.34473 10.5059C8.56597 10.5343 8.76479 10.6606 8.88477 10.8525L10.1211 12.8301L11.3584 10.8525L11.4141 10.7744C11.5554 10.6019 11.7678 10.5 11.9941 10.5H12.7432C13.1574 10.5 13.4932 10.8358 13.4932 11.25C13.493 11.6638 13.1579 11.9985 12.7441 11.999V14.2461C12.7441 14.6603 12.4083 14.9961 11.9941 14.9961C11.58 14.9961 11.2442 14.6603 11.2441 14.2461Z" fill="black"/>
</svg>
