<?xml version="1.0" encoding="utf-8"?>
<svg xmlns="http://www.w3.org/2000/svg" width="512" height="512" viewBox="0 0 512 512">
<path d="m416 353 32-32v159H32V32h416v64h-32V64H64v384h352v-95zm-192-3.7V416h66.7l169.7-168.5-67.9-67.9L224 349.3zm55.3 34-22.6-22.6 135.8-135.8 22.6 22.6-135.8 135.8zM502.7 160 480 137.3c-12.4-12.4-32.8-12.4-45.3 0L412.2 160l67.9 67.9 22.6-22.6c12.4-12.5 12.4-32.9 0-45.3zM191.9 416H167v-22h-.6c-7.9 14.6-19.4 22-34.6 22-11.2 0-20-3.3-26.3-9.8S96 391 96 380.3c0-23.1 12.4-36.5 37.2-40.4l33.9-5.1c0-17.4-7.7-26.1-23.2-26.1-13.6 0-25.8 5-36.8 15v-24.2c12-7.6 25.9-11.5 41.7-11.5 28.8 0 43.3 15.2 43.3 45.6V416h-.2zM167 353.1l-23.9 3.6c-7.4 1-13 3-16.8 5.8s-5.6 7.8-5.6 14.9c0 5.2 1.7 9.4 5.2 12.7 3.5 3.3 8.1 5 13.9 5 7.9 0 14.4-3 19.5-8.9 5.2-5.9 7.7-13.4 7.7-22.4v-10.7z"/>
</svg>
