<svg viewBox="0 0 24 24" fill="none" xmlns="http://www.w3.org/2000/svg" width="24" height="24">
<path fill-rule="evenodd" clip-rule="evenodd" d="M20.673 7.377L15.003 1.707C14.928 1.632 14.839 1.572 14.74 1.532 14.642 1.491 14.537 1.47 14.43 1.47H4.71C4.281 1.47 3.869 1.641 3.565 1.945 3.261 2.248 3.09 2.66 3.09 3.09V20.91C3.09 21.34 3.261 21.752 3.565 22.056 3.869 22.359 4.281 22.53 4.71 22.53H19.29C19.72 22.53 20.132 22.359 20.436 22.056 20.74 21.752 20.91 21.34 20.91 20.91V19.046L19.437 20.52C19.031 20.925 18.497 21.176 17.93 21.233L17.888 21.237 17.847 21.24 17.761 21.243 17.722 21.246H15.806C15.152 21.245 14.519 20.985 14.052 20.518 13.587 20.052 13.326 19.421 13.326 18.763V16.849L13.327 16.809 13.331 16.724 13.333 16.683 13.337 16.644C13.394 16.074 13.646 15.54 14.051 15.134L19.254 9.931 19.286 9.903 19.348 9.846 19.376 9.821 19.406 9.796C19.83 9.449 20.359 9.25 20.91 9.235V7.95C20.91 7.844 20.889 7.738 20.849 7.64 20.808 7.542 20.748 7.452 20.673 7.377ZM14.43 7.95V3.495L18.885 7.95H14.43ZM6.651 11.34L8.158 13.75 9.662 11.346C9.663 11.344 9.661 11.348 9.662 11.346 9.663 11.344 9.669 11.335 9.67 11.332 9.771 11.177 9.948 11.057 10.143 11.044 10.157 11.044 10.17 11.043 10.183 11.043H10.993C11.324 11.043 11.593 11.312 11.593 11.643 11.593 11.975 11.324 12.243 10.993 12.243H10.783V15.093H10.993C11.325 15.093 11.593 15.362 11.593 15.693 11.593 16.024 11.325 16.293 10.993 16.293H9.778C9.447 16.293 9.178 16.025 9.178 15.693 9.178 15.43 9.348 15.206 9.583 15.126V13.734L8.667 15.201C8.557 15.376 8.365 15.483 8.158 15.483 7.951 15.483 7.759 15.376 7.65 15.201L6.733 13.734V15.126C6.969 15.207 7.138 15.43 7.138 15.693 7.138 16.024 6.87 16.293 6.538 16.293H5.323C4.992 16.293 4.723 16.025 4.723 15.693 4.723 15.362 4.992 15.093 5.323 15.093H5.533V12.243H5.323C4.992 12.243 4.723 11.975 4.723 11.643 4.723 11.312 4.992 11.043 5.323 11.043H6.133C6.165 11.043 6.197 11.046 6.227 11.051 6.235 11.052 6.243 11.053 6.251 11.055 6.415 11.087 6.556 11.188 6.642 11.326 6.645 11.33 6.648 11.335 6.651 11.34Z" fill="black"/>
<path fill-rule="evenodd" clip-rule="evenodd" d="M23.665 14.398C23.879 14.184 24 13.892 24 13.588 24 13.285 23.879 12.993 23.665 12.779L21.79 10.906C21.602 10.718 21.356 10.603 21.094 10.577L20.981 10.571C20.958 10.571 20.934 10.572 20.91 10.573 20.632 10.59 20.368 10.708 20.17 10.906L14.999 16.077C14.784 16.292 14.664 16.584 14.664 16.887V18.762C14.664 19.066 14.784 19.357 14.999 19.572 15.214 19.787 15.505 19.907 15.809 19.907H17.684C17.987 19.907 18.279 19.786 18.493 19.572L23.665 14.398ZM20.98 12.387L22.182 13.588 21.401 14.369 20.2 13.168 20.98 12.387ZM16.283 17.084V18.288H17.487L20.55 15.222 19.348 14.02 16.283 17.084Z" fill="black"/>
<path fill-rule="evenodd" clip-rule="evenodd" d="M9.662 11.346C9.663 11.344 9.661 11.348 9.662 11.346Z" fill="white"/>
</svg>