<svg width="24" height="24" viewBox="0 0 24 24" fill="none" xmlns="http://www.w3.org/2000/svg">
<path fill-rule="evenodd" clip-rule="evenodd" d="M20.25 3.75C20.6478 3.75 21.0292 3.90819 21.3105 4.18945C21.5919 4.47076 21.75 4.85218 21.75 5.25V18.75C21.75 19.1478 21.5919 19.5292 21.3105 19.8105C21.0292 20.0918 20.6478 20.25 20.25 20.25H3.75C3.35222 20.25 2.97073 20.0918 2.68945 19.8105C2.40819 19.5292 2.25 19.1478 2.25 18.75V5.25C2.25 4.8522 2.40819 4.47075 2.68945 4.18945C2.97073 3.90818 3.35222 3.75003 3.75 3.75H20.25ZM5.25 5.24902C4.83579 5.24902 4.5 5.58481 4.5 5.99902V17.248C4.50022 17.6621 4.83592 17.998 5.25 17.998H18.749C19.1629 17.9978 19.4988 17.6619 19.499 17.248C19.499 16.834 19.1631 16.4983 18.749 16.498H6V16.3574L9.77832 13.9629L13.8906 16.1973C14.1843 16.3567 14.5486 16.3024 14.7832 16.0645L19.2842 11.4912C19.4007 11.3728 19.4682 11.225 19.4902 11.0723C19.4917 11.0623 19.4941 11.0521 19.4951 11.042L19.499 10.9648V7.66504C19.4989 7.37092 19.3264 7.10403 19.0586 6.98242C18.7907 6.86086 18.4763 6.90696 18.2549 7.10059L14.2129 10.6367L10.1992 7.62793C9.95121 7.44199 9.61917 7.42979 9.36133 7.58594L9.25586 7.66309L6 10.5117V5.99902C6 5.58481 5.66421 5.24902 5.25 5.24902Z" fill="black"/>
</svg>
