<svg viewBox="0 0 24 24" fill="none" xmlns="http://www.w3.org/2000/svg" width="24" height="24">
<path fill-rule="evenodd" clip-rule="evenodd" d="M20.91 3.09C21.339 3.09 21.752 3.261 22.056 3.565 22.359 3.869 22.53 4.28 22.53 4.71V19.29C22.53 19.72 22.36 20.133 22.056 20.436 21.752 20.74 21.339 20.91 20.91 20.91H3.09C2.661 20.91 2.248 20.74 1.944 20.436 1.64 20.133 1.47 19.72 1.47 19.29V4.71C1.47 4.28 1.641 3.869 1.944 3.565 2.248 3.261 2.661 3.09 3.09 3.09H20.91ZM4.712 4.696C4.265 4.696 3.902 5.058 3.902 5.505V17.664C3.902 18.111 4.265 18.473 4.712 18.473H19.302C19.749 18.473 20.112 18.111 20.112 17.664 20.112 17.217 19.749 16.854 19.302 16.854H5.522V5.505C5.522 5.058 5.159 4.696 4.712 4.696ZM13.002 5.96C12.226 5.999 11.363 6.119 10.618 6.42 9.87 6.722 9.139 7.253 8.839 8.161 8.684 8.633 8.685 9.102 8.859 9.538 9.026 9.955 9.322 10.269 9.626 10.506 10.208 10.96 11.03 11.286 11.695 11.556 12.432 11.854 13.012 12.097 13.378 12.382 13.548 12.514 13.613 12.614 13.637 12.674 13.654 12.715 13.673 12.79 13.622 12.945 13.527 13.232 13.276 13.486 12.775 13.689 12.269 13.893 11.611 13.997 10.916 14.032 10.231 14.067 9.561 14.032 9.057 13.987 8.807 13.965 8.6 13.941 8.457 13.922 8.387 13.913 8.331 13.905 8.295 13.9 8.277 13.897 8.264 13.895 8.256 13.894 8.252 13.893 8.246 13.891 8.246 13.891 7.805 13.819 7.387 14.12 7.315 14.561 7.243 15.002 7.542 15.418 7.983 15.491H7.986L7.991 15.492C7.994 15.493 8 15.494 8.005 15.495 8.017 15.496 8.036 15.499 8.058 15.503 8.102 15.509 8.166 15.518 8.246 15.528 8.408 15.55 8.637 15.578 8.913 15.602 9.463 15.651 10.213 15.69 10.998 15.65 11.774 15.611 12.636 15.493 13.382 15.192 14.13 14.89 14.861 14.359 15.161 13.451 15.316 12.978 15.315 12.51 15.141 12.074 14.974 11.657 14.678 11.342 14.374 11.105 13.792 10.65 12.969 10.325 12.305 10.056 11.568 9.757 10.988 9.514 10.622 9.229 10.452 9.096 10.388 8.997 10.364 8.937 10.348 8.895 10.328 8.822 10.378 8.668 10.473 8.381 10.722 8.124 11.224 7.922 11.73 7.718 12.389 7.614 13.084 7.579 13.769 7.544 14.44 7.579 14.944 7.624 15.194 7.646 15.401 7.67 15.543 7.689 15.613 7.698 15.668 7.707 15.704 7.712 15.722 7.715 15.737 7.715 15.745 7.717 15.749 7.717 15.753 7.719 15.753 7.719L15.756 7.72C16.197 7.792 16.612 7.492 16.684 7.051 16.756 6.61 16.458 6.195 16.017 6.122L16.01 6.12C16.007 6.119 16.001 6.119 15.995 6.118 15.983 6.116 15.965 6.112 15.943 6.109 15.899 6.102 15.834 6.094 15.753 6.083 15.592 6.062 15.363 6.035 15.087 6.011 14.537 5.962 13.787 5.92 13.002 5.96Z" fill="black"/>
</svg>