<svg width="24" height="24" viewBox="0 0 24 24" fill="none" xmlns="http://www.w3.org/2000/svg">
<path d="M10.6875 11.5752L9.81641 12.6201L9.08105 11.5166L9.78516 10.8994L10.6875 11.5752Z" fill="black"/>
<path d="M14.8887 11.7539L14.2139 12.3447L12.8506 11.3223L13.5596 10.4717L14.8887 11.7539Z" fill="black"/>
<path d="M7.10254 11.2539L6 12.2197V9.59961L7.10254 11.2539Z" fill="black"/>
<path fill-rule="evenodd" clip-rule="evenodd" d="M20.25 3.75C20.6478 3.75 21.0292 3.90819 21.3105 4.18945C21.5919 4.47076 21.75 4.85218 21.75 5.25V18.75C21.75 19.1478 21.5919 19.5292 21.3105 19.8105C21.0292 20.0918 20.6478 20.25 20.25 20.25H3.75C3.35222 20.25 2.97073 20.0918 2.68945 19.8105C2.40819 19.5292 2.25 19.1478 2.25 18.75V5.25C2.25 4.8522 2.40819 4.47075 2.68945 4.18945C2.97073 3.90818 3.35222 3.75003 3.75 3.75H20.25ZM5.25 6C4.83579 6 4.5 6.33579 4.5 6.75V17.248C4.50023 17.6621 4.83593 17.998 5.25 17.998H18.75C19.1641 17.998 19.4998 17.6621 19.5 17.248C19.5 16.8338 19.1642 16.498 18.75 16.498H6V14.2119L7.94141 12.5127L9.12598 14.2891C9.25725 14.4857 9.47382 14.6085 9.70996 14.6211C9.94625 14.6337 10.1747 14.5343 10.3262 14.3525L11.8887 12.4766L13.7998 13.9102C14.0833 14.1228 14.4774 14.1074 14.7441 13.874L15.9727 12.7988L17.5928 14.3613C17.8909 14.6488 18.3658 14.64 18.6533 14.3418C18.9408 14.0436 18.9329 13.5688 18.6348 13.2812L17.1055 11.8066L18.6035 10.4971C18.9152 10.2243 18.9475 9.75021 18.6748 9.43848C18.4021 9.12678 17.9279 9.0955 17.6162 9.36816L16.0215 10.7627L14.0205 8.83301C13.8705 8.68839 13.667 8.61269 13.459 8.62402C13.2771 8.63399 13.1058 8.70911 12.9766 8.83496L12.9238 8.89258L11.6494 10.4219L10.2002 9.33496C9.95211 9.1489 9.61923 9.13667 9.36133 9.29297L9.25586 9.37109L8.24121 10.2578L6 6.89453V6.75C6 6.33579 5.66421 6 5.25 6Z" fill="black"/>
</svg>
