<svg width="24" height="24" viewBox="0 0 24 24" fill="none" xmlns="http://www.w3.org/2000/svg">
<path d="M19.4248 4.5752C19.7828 4.5752 20.1267 4.71753 20.3799 4.9707C20.6329 5.22377 20.7753 5.56697 20.7754 5.9248V18.0752C20.7754 18.4332 20.6331 18.7771 20.3799 19.0303C20.1267 19.2834 19.7828 19.4248 19.4248 19.4248H4.5752C4.21718 19.4248 3.87329 19.2834 3.62012 19.0303C3.36694 18.7771 3.22461 18.4332 3.22461 18.0752V5.9248C3.22471 5.56702 3.36719 5.22376 3.62012 4.9707C3.87329 4.71753 4.21715 4.5752 4.5752 4.5752H19.4248ZM5.92578 5.9082C5.55311 5.90834 5.25098 6.2103 5.25098 6.58301V16.7197C5.2511 17.0923 5.55318 17.3944 5.92578 17.3945H18.0898C18.4624 17.3944 18.7645 17.0923 18.7646 16.7197C18.7646 16.347 18.4625 16.0451 18.0898 16.0449H6.60059V15.999C7.26083 15.96 7.78398 15.4151 7.78418 14.7451C7.78418 14.6069 7.76182 14.474 7.7207 14.3496L8.74902 13.3086L10.9014 14.7344L10.9004 14.7588C10.9006 15.4541 11.4649 16.0174 12.1602 16.0176C12.8554 16.0174 13.4187 15.454 13.4189 14.7588C13.4189 14.6361 13.4019 14.5174 13.3691 14.4053L14.8545 12.7119L16.2305 13.4551C16.2264 13.4964 16.2236 13.5386 16.2236 13.5811C16.2238 14.2763 16.7881 14.8397 17.4834 14.8398C18.1786 14.8396 18.742 14.2763 18.7422 13.5811C18.7422 12.8857 18.1788 12.3215 17.4834 12.3213C17.3453 12.3213 17.2123 12.3436 17.0879 12.3848L15.7676 11.6719L17.3164 9.90723C17.371 9.91447 17.4268 9.91796 17.4834 9.91797C18.1786 9.91776 18.742 9.3544 18.7422 8.65918C18.7422 7.96378 18.1788 7.39963 17.4834 7.39941C16.7879 7.3995 16.2236 7.9637 16.2236 8.65918C16.2237 8.79109 16.2446 8.91862 16.2822 9.03809L14.5488 11.0137L12.3887 9.84668C12.3484 9.18763 11.801 8.66524 11.1318 8.66504C10.4364 8.66518 9.87207 9.22936 9.87207 9.9248C9.8721 10.025 9.88411 10.1224 9.90625 10.2158L8.56934 11.5703L7.78418 11.0498C7.77166 10.3908 7.25289 9.85699 6.60059 9.81836V6.58301C6.60059 6.21022 6.29857 5.9082 5.92578 5.9082ZM12.1602 14.499C12.3032 14.4992 12.4189 14.6157 12.4189 14.7588C12.4187 14.9017 12.3031 15.0174 12.1602 15.0176C12.0172 15.0174 11.9006 14.9018 11.9004 14.7588C11.9004 14.6156 12.017 14.4992 12.1602 14.499ZM17.4834 13.3213C17.6265 13.3215 17.7422 13.4379 17.7422 13.5811C17.742 13.724 17.6263 13.8396 17.4834 13.8398C17.3404 13.8397 17.2238 13.724 17.2236 13.5811C17.2236 13.4379 17.3403 13.3214 17.4834 13.3213ZM13.6357 12.0547L12.3555 13.5137C12.292 13.5038 12.2264 13.499 12.1602 13.499C11.9775 13.4991 11.8041 13.5384 11.6475 13.6084L9.71582 12.3291L10.874 11.1572C10.9572 11.1745 11.0435 11.1836 11.1318 11.1836C11.3511 11.1835 11.5578 11.1278 11.7373 11.0293L13.6357 12.0547ZM7.60254 12.5488L6.66895 13.4932C6.64638 13.4906 6.6235 13.4906 6.60059 13.4893V12.3281C6.77219 12.318 6.93474 12.2762 7.08105 12.2041L7.60254 12.5488ZM11.1318 9.66504C11.2749 9.66525 11.3906 9.78169 11.3906 9.9248C11.3904 10.0677 11.2748 10.1834 11.1318 10.1836C10.9888 10.1835 10.8723 10.0678 10.8721 9.9248C10.8721 9.78164 10.9887 9.66518 11.1318 9.66504ZM17.4834 8.39941C17.6265 8.39962 17.7422 8.51606 17.7422 8.65918C17.742 8.80212 17.6263 8.91776 17.4834 8.91797C17.3404 8.91788 17.2238 8.8022 17.2236 8.65918C17.2236 8.51598 17.3402 8.3995 17.4834 8.39941Z" fill="black"/>
</svg>
