<svg width="24" height="24" viewBox="0 0 24 24" fill="none" xmlns="http://www.w3.org/2000/svg">
<path d="M13.9463 9.94531C14.1708 10.0601 14.4379 10.0541 14.6572 9.92969L17.9648 8.05078L14.2148 13.1104L9.86816 9.64746C9.7119 9.52306 9.51185 9.46596 9.31348 9.48926C9.16476 9.50685 9.0261 9.56902 8.91406 9.66504L8.81152 9.77246L6 13.3672V10.8477L9.82617 7.83594L13.9463 9.94531Z" fill="black"/>
<path fill-rule="evenodd" clip-rule="evenodd" d="M20.25 3.75C20.6478 3.75 21.0292 3.90819 21.3105 4.18945C21.5919 4.47076 21.75 4.85218 21.75 5.25V18.75C21.75 19.1478 21.5919 19.5292 21.3105 19.8105C21.0292 20.0918 20.6478 20.25 20.25 20.25H3.75C3.35222 20.25 2.97073 20.0918 2.68945 19.8105C2.40819 19.5292 2.25 19.1478 2.25 18.75V5.25C2.25 4.8522 2.40819 4.47075 2.68945 4.18945C2.97073 3.90818 3.35222 3.75003 3.75 3.75H20.25ZM18.665 6.00586C18.6536 6.007 18.6422 6.00906 18.6309 6.01074C18.6103 6.01397 18.5903 6.01954 18.5703 6.02441C18.5022 6.04039 18.434 6.06236 18.3701 6.09863L14.2686 8.42676L10.082 6.2832C9.82151 6.14981 9.50637 6.18034 9.27637 6.36133L6 8.93945V6.75293C6 6.33919 5.66468 6.00405 5.25098 6.00391C4.83715 6.00391 4.50195 6.3391 4.50195 6.75293V10.376C4.49035 10.4497 4.49133 10.5243 4.50195 10.5986V15.4482C4.49127 15.5229 4.4902 15.5979 4.50195 15.6719V15.9395C4.49487 15.9809 4.49123 16.023 4.49121 16.0654V17.2422C4.49121 17.5054 4.62776 17.7355 4.83301 17.8691C4.95241 17.9495 5.0962 17.9971 5.25098 17.9971H18.75C19.1634 17.9967 19.4988 17.6615 19.499 17.248C19.499 17.2351 19.4977 17.2218 19.4971 17.209V11.0029C19.4977 10.9903 19.499 10.9776 19.499 10.9648V7.66504C19.499 7.65226 19.4977 7.63958 19.4971 7.62695V6.75C19.4971 6.40812 19.267 6.12316 18.9541 6.0332C18.9463 6.03089 18.9385 6.02843 18.9307 6.02637C18.8891 6.01591 18.8467 6.00711 18.8027 6.00391C18.7983 6.00353 18.7935 6.00418 18.7891 6.00391C18.7755 6.00317 18.7618 6.001 18.748 6.00098C18.7201 6.00098 18.6922 6.00288 18.665 6.00586Z" fill="black"/>
</svg>
