<svg xmlns="http://www.w3.org/2000/svg" fill="currentColor" viewBox="0 0 24 24" width="24" height="24"><path d="M20.91 3.09H3.09a1.62 1.62 0 0 0-1.62 1.62v14.58a1.62 1.62 0 0 0 1.62 1.62h17.82a1.62 1.62 0 0 0 1.62-1.62V4.71a1.62 1.62 0 0 0-1.62-1.62M19.29 18.48H4.71a0.81 0.81 0 0 1-0.81-0.81v-11.34a0.81 0.81 0 0 1 1.62 0v2.095l3.24 3.24 3.476-3.477a0.81 0.81 0 0 1 1.146 0l3.477 3.477V9.57a0.81 0.81 0 0 1 1.62 0v4.05a0.81 0.81 0 0 1-0.81 0.81h-4.05a0.81 0.81 0 0 1 0-1.62h2.095l-2.905-2.905-3.477 3.477a0.81 0.81 0 0 1-1.146 0L5.52 10.715v6.145h13.77a0.81 0.81 0 0 1 0 1.62"/></svg>