<svg width="24" height="24" viewBox="0 0 24 24" fill="none" xmlns="http://www.w3.org/2000/svg">
<path fill-rule="evenodd" clip-rule="evenodd" d="M20.6553 3.75C21.053 3.75 21.4345 3.9083 21.7158 4.18945C21.9971 4.47076 22.1553 4.85315 22.1553 5.25098V18.751C22.1551 19.1486 21.997 19.5303 21.7158 19.8115C21.4345 20.0927 21.053 20.251 20.6553 20.251H4.15527C3.75756 20.251 3.37601 20.0927 3.09473 19.8115C2.81354 19.5303 2.6554 19.1486 2.65527 18.751V5.25098C2.65527 4.85315 2.81342 4.47076 3.09473 4.18945C3.37601 3.9083 3.75756 3.75 4.15527 3.75H20.6553ZM5.6543 6.00195C5.24014 6.00195 4.90439 6.33781 4.9043 6.75195V17.2471C4.9043 17.6613 5.24008 17.9971 5.6543 17.9971H19.1533C19.5675 17.9971 19.9033 17.6613 19.9033 17.2471C19.9033 16.8329 19.5675 16.4971 19.1533 16.4971H6.4043V6.75195C6.40421 6.33781 6.06846 6.00195 5.6543 6.00195ZM9.6543 11.8662C8.80383 11.8663 8.11426 12.5558 8.11426 13.4062C8.11441 14.2566 8.80393 14.9462 9.6543 14.9463C10.5047 14.9463 11.1942 14.2566 11.1943 13.4062C11.1943 12.5557 10.5048 11.8662 9.6543 11.8662ZM15.6953 8.89941C14.6324 8.89965 13.7706 9.76131 13.7705 10.8242C13.7705 11.8872 14.6324 12.7488 15.6953 12.749C16.7585 12.749 17.6201 11.8874 17.6201 10.8242C17.62 9.76116 16.7584 8.89941 15.6953 8.89941ZM9.6543 7.49707C9.05392 7.49719 8.55956 7.9534 8.5 8.53809L8.49414 8.65723L8.5 8.77539C8.55926 9.36039 9.0537 9.81726 9.6543 9.81738C10.2948 9.8173 10.8144 9.29775 10.8145 8.65723C10.8145 8.05652 10.3575 7.5622 9.77246 7.50293L9.6543 7.49707Z" fill="black"/>
</svg>
