<svg width="24" height="24" viewBox="0 0 24 24" fill="none" xmlns="http://www.w3.org/2000/svg">
<path fill-rule="evenodd" clip-rule="evenodd" d="M20.25 3.75C20.6477 3.75 21.0293 3.9083 21.3105 4.18945C21.5919 4.47076 21.75 4.85315 21.75 5.25098V18.751C21.7499 19.1486 21.5917 19.5303 21.3105 19.8115C21.0293 20.0927 20.6477 20.251 20.25 20.251H3.75C3.35229 20.251 2.97073 20.0927 2.68945 19.8115C2.40826 19.5303 2.25013 19.1486 2.25 18.751V5.25098C2.25 4.85315 2.40815 4.47076 2.68945 4.18945C2.97073 3.9083 3.35229 3.75 3.75 3.75H20.25ZM5.24902 6.00195C4.83492 6.00199 4.49916 6.33787 4.49902 6.75195V17.2471C4.4991 17.6612 4.83488 17.997 5.24902 17.9971H18.748C19.1622 17.9971 19.498 17.6612 19.498 17.2471C19.4979 16.833 19.1622 16.4971 18.748 16.4971H5.99902V6.75195C5.99889 6.33785 5.66316 6.00195 5.24902 6.00195ZM9.84375 7.91504C9.42979 7.91524 9.09388 8.25106 9.09375 8.66504V9.16504H8.24512C7.83105 9.16511 7.49525 9.50098 7.49512 9.91504V13.3428C7.49512 13.5415 7.57438 13.7324 7.71484 13.873C7.85546 14.0137 8.04626 14.0927 8.24512 14.0928H9.09375V14.5928C9.09375 15.0069 9.42971 15.3426 9.84375 15.3428C10.258 15.3428 10.5938 15.007 10.5938 14.5928V14.0928H11.4434C11.8574 14.0925 12.1934 13.7568 12.1934 13.3428V9.91504C12.1932 9.50108 11.8573 9.16527 11.4434 9.16504H10.5938V8.66504C10.5936 8.25094 10.2579 7.91504 9.84375 7.91504ZM16.0234 8.58398C15.6093 8.58402 15.2736 8.9199 15.2734 9.33398V9.83398H14.4229C14.0089 9.8342 13.673 10.17 13.6729 10.584V12.6738C13.6729 13.0879 14.0088 13.4236 14.4229 13.4238H15.2734V13.9238C15.2734 14.338 15.6093 14.6738 16.0234 14.6738C16.4375 14.6737 16.7734 14.338 16.7734 13.9238V13.4238H17.623C18.0373 13.4238 18.373 13.088 18.373 12.6738V10.584C18.3729 10.1699 18.0372 9.83398 17.623 9.83398H16.7734V9.33398C16.7733 8.91997 16.4375 8.58412 16.0234 8.58398Z" fill="black"/>
</svg>
