<svg width="24" height="24" viewBox="0 0 24 24" fill="none" xmlns="http://www.w3.org/2000/svg">
<path d="M10.6875 11.5752L9.91602 12.501C9.90721 12.4999 9.8985 12.498 9.88965 12.4971L9.74805 12.4902C9.74218 12.4902 9.73632 12.4902 9.73047 12.4902L9.08105 11.5166L9.35742 11.2744C9.4814 11.3109 9.61225 11.332 9.74805 11.332C9.92131 11.332 10.0864 11.2974 10.2393 11.2393L10.6875 11.5752Z" fill="black"/>
<path d="M7.10254 11.2539L6 12.2197V9.59961L7.10254 11.2539Z" fill="black"/>
<path d="M14.8887 11.7539L14.6367 11.9746C14.557 11.9513 14.4746 11.9344 14.3896 11.9258L14.248 11.9189C14.0772 11.9189 13.9137 11.9502 13.7627 12.0068L12.8506 11.3223L13.333 10.7441C13.3875 10.7507 13.4428 10.7549 13.499 10.7549C13.6075 10.7549 13.7131 10.7414 13.8145 10.7178L14.8887 11.7539Z" fill="black"/>
<path fill-rule="evenodd" clip-rule="evenodd" d="M20.25 3.75C20.6478 3.75 21.0292 3.90819 21.3105 4.18945C21.5919 4.47076 21.75 4.85218 21.75 5.25V18.75C21.75 19.1478 21.5919 19.5292 21.3105 19.8105C21.0292 20.0918 20.6478 20.25 20.25 20.25H3.75C3.35222 20.25 2.97073 20.0918 2.68945 19.8105C2.40819 19.5292 2.25 19.1478 2.25 18.75V5.25C2.25 4.8522 2.40819 4.47075 2.68945 4.18945C2.97073 3.90818 3.35222 3.75003 3.75 3.75H20.25ZM5.25 6C4.83579 6 4.5 6.33579 4.5 6.75V17.248C4.50023 17.6621 4.83593 17.998 5.25 17.998H18.75C19.1641 17.998 19.4998 17.6621 19.5 17.248C19.5 16.8338 19.1642 16.498 18.75 16.498H6V14.2119L7.94141 12.5127L8.48047 13.3203C8.40673 13.4894 8.3653 13.6759 8.36523 13.8721C8.36523 14.6357 8.98445 15.2548 9.74805 15.2549C10.5118 15.2549 11.1309 14.6358 11.1309 13.8721C11.1308 13.7285 11.109 13.5901 11.0684 13.46L11.8887 12.4766L12.8691 13.2119L12.8652 13.3008L12.8721 13.4424C12.9428 14.1398 13.532 14.6836 14.248 14.6836C15.0117 14.6835 15.6309 14.0644 15.6309 13.3008C15.6308 13.2361 15.6248 13.1727 15.6162 13.1104L15.9727 12.7988L16.7588 13.5576C16.7428 13.6417 16.7344 13.7286 16.7344 13.8174C16.7344 14.5811 17.3535 15.2002 18.1172 15.2002C18.8809 15.2002 19.5 14.5811 19.5 13.8174C19.4998 13.1017 18.9558 12.5133 18.2588 12.4424L18.1172 12.4355C18.0068 12.4355 17.8998 12.4492 17.7969 12.4736L17.1055 11.8066L17.7363 11.2549C17.8574 11.2895 17.985 11.3086 18.1172 11.3086C18.8809 11.3086 19.5 10.6895 19.5 9.92578C19.4998 9.21011 18.9558 8.62169 18.2588 8.55078L18.1172 8.54395C17.3536 8.54395 16.7346 9.1623 16.7344 9.92578C16.7344 9.99333 16.7406 10.06 16.75 10.125L16.0215 10.7627L14.8555 9.63867C14.8723 9.55249 14.8818 9.46317 14.8818 9.37207C14.8816 8.65627 14.3378 8.06781 13.6406 7.99707L13.499 7.99023C12.7356 7.99043 12.1165 8.60871 12.1162 9.37207C12.1162 9.51573 12.1381 9.65489 12.1787 9.78516L11.6494 10.4219L11.127 10.0293C11.1285 10.0028 11.1309 9.97613 11.1309 9.94922C11.1309 9.23323 10.587 8.64404 9.88965 8.57324L9.74805 8.56641C9.03219 8.56653 8.44386 9.11041 8.37305 9.80762L8.36523 9.94922L8.37305 10.0908C8.37462 10.1063 8.37781 10.1214 8.37988 10.1367L8.24121 10.2578L6 6.89453V6.75C6 6.33579 5.66421 6 5.25 6Z" fill="black"/>
</svg>
