<svg viewBox="0 0 24 24" fill="none" xmlns="http://www.w3.org/2000/svg" width="24" height="24">
<path fill-rule="evenodd" clip-rule="evenodd" d="M14.347 2.497L14.398 2.491 14.414 2.491C14.421 2.49 14.428 2.49 14.436 2.49L19.296 2.49C19.627 2.49 19.895 2.759 19.896 3.09L19.896 20.311 20.916 20.311C21.247 20.311 21.516 20.58 21.516 20.911 21.516 21.242 21.247 21.511 20.916 21.511L19.296 21.511 14.436 21.511C14.136 21.511 13.883 21.25 13.838 20.961 13.869 21.222 14.069 21.448 14.325 21.5 14.073 21.449 13.873 21.218 13.838 20.961 13.869 21.264 14.125 21.511 14.436 21.511L9.575 21.511 4.716 21.511 3.096 21.511C2.765 21.511 2.496 21.242 2.496 20.911 2.496 20.58 2.765 20.311 3.096 20.311L4.116 20.311 4.116 3.09C4.116 2.759 4.384 2.49 4.716 2.49L9.576 2.491 14.347 2.497ZM14.347 2.497C14.266 2.509 14.191 2.537 14.124 2.578 14.035 2.631 13.965 2.701 13.915 2.791 13.907 2.806 13.895 2.831 13.888 2.845 13.885 2.852 13.882 2.859 13.879 2.866 13.959 2.68 14.141 2.53 14.347 2.497ZM18.696 20.311L18.696 13.41 15.036 13.41 15.036 20.311 18.696 20.311ZM10.176 20.311L13.836 20.311 13.836 8.551 10.176 8.551 10.176 20.311ZM8.975 20.311L8.976 16.955 5.318 16.955 5.316 20.311 8.975 20.311Z" fill="black"/>
</svg>