<svg viewBox="0 0 24 24" fill="none" xmlns="http://www.w3.org/2000/svg" width="24" height="24">
<path fill-rule="evenodd" clip-rule="evenodd" d="M12.362 5.921L12.993 3.568C12.667 3.529 12.336 3.51 12 3.51 9.322 3.51 6.938 4.762 5.399 6.713L7.508 7.931 9.114 8.858 10.218 9.496 11.245 10.089 11.552 8.943 11.882 7.711 12.362 5.921Z" fill="black"/>
<path fill-rule="evenodd" clip-rule="evenodd" d="M10.904 14.703L10.448 15.159 10.002 15.605 8.691 16.916 7.399 18.208 6.97 18.637 6.541 19.066 5.686 19.921 5.259 20.348 4.832 20.775C6.74 22.32 9.157 23.261 11.793 23.308L11.74 22.707 11.687 22.105 11.582 20.9 11.529 20.297 11.476 19.692 11.317 17.871 11.156 16.025 11.1 15.396 11.044 14.754 11.029 14.578 10.904 14.703Z" fill="black"/>
<path d="M6 11.91C6 13.133 6.366 14.27 6.994 15.219L8.305 13.908 9.207 13.006 10.046 12.167 9.019 11.574 7.913 10.936 6.307 10.009C6.108 10.606 6 11.246 6 11.91Z" fill="black"/>
<path d="M13.347 13.53L13.435 14.545 13.491 15.187 13.546 15.816 13.708 17.663 13.867 19.485 13.92 20.089 13.973 20.693C16.837 20.052 19.186 18.046 20.301 15.394L19.716 15.237 19.129 15.08 17.362 14.606 15.569 14.126 14.958 13.962 14.334 13.795 13.347 13.53Z" fill="black"/>
<path fill-rule="evenodd" clip-rule="evenodd" d="M23.231 13.701C23.231 13.701 23.4 13.669 23.4 11.91 23.4 7.057 20.368 2.912 16.094 1.267L15.468 3.602 15.312 4.187 15.154 4.774 14.681 6.54 14.201 8.332 14.038 8.941 13.871 9.564 13.465 11.077 14.97 11.48 15.591 11.647 16.199 11.81 17.988 12.289 19.754 12.762 20.34 12.919 20.925 13.076 23.231 13.701Z" fill="black"/>
</svg>