<svg width="24" height="24" viewBox="0 0 24 24" fill="none" xmlns="http://www.w3.org/2000/svg">
<path fill-rule="evenodd" clip-rule="evenodd" d="M14.25 3C14.6642 3 15 3.33579 15 3.75V10.5H18.75C19.1642 10.5 19.5 10.8358 19.5 11.25V19.5H20.25C20.6642 19.5 21 19.8358 21 20.25C21 20.6642 20.6642 21 20.25 21H3.75C3.33579 21 3 20.6642 3 20.25C3 19.8358 3.33579 19.5 3.75 19.5H4.5V8.25C4.5 7.83579 4.83579 7.5 5.25 7.5H9V3.75C9 3.33579 9.33579 3 9.75 3H14.25ZM6 19.5H9V16.5H6V19.5ZM10.5 19.5H13.5V10.5H10.5V19.5ZM15 19.5H18V16.5H15V19.5Z" fill="black"/>
</svg>
