<svg xmlns="http://www.w3.org/2000/svg" width="24" height="24" fill="currentColor" viewBox="0 0 24 24"><path d="M20.91 3.09H3.09a1.62 1.62 0 0 0-1.62 1.62v14.58a1.62 1.62 0 0 0 1.62 1.62h17.82a1.62 1.62 0 0 0 1.62-1.62V4.71a1.62 1.62 0 0 0-1.62-1.62m-2.836 3.24a1.216 1.216 0 1 1-1.214 1.216 1.216 1.216 0 0 1 1.214-1.216m0 5.67a1.216 1.216 0 1 1-1.214 1.214A1.216 1.216 0 0 1 18.074 12m-4.05-1.62a1.216 1.216 0 1 1-1.214 1.216 1.216 1.216 0 0 1 1.214-1.216m-2.43-4.05a1.216 1.216 0 1 1-1.215 1.216 1.216 1.216 0 0 1 1.215-1.216M9.164 12a1.216 1.216 0 1 1-1.215 1.214A1.216 1.216 0 0 1 9.164 12m10.126 6.48H4.71a0.81 0.81 0 0 1-0.81-0.81v-11.34a0.81 0.81 0 0 1 1.62 0v10.53h13.77a0.81 0.81 0 0 1 0 1.62"/></svg>