<svg width="24" height="24" viewBox="0 0 24 24" fill="none" xmlns="http://www.w3.org/2000/svg">
<path fill-rule="evenodd" clip-rule="evenodd" d="M20.25 3.75C20.6478 3.75 21.0292 3.90819 21.3105 4.18945C21.5919 4.47076 21.75 4.85218 21.75 5.25V18.75C21.75 19.1478 21.5919 19.5292 21.3105 19.8105C21.0292 20.0918 20.6478 20.25 20.25 20.25H3.75C3.35222 20.25 2.97073 20.0918 2.68945 19.8105C2.40819 19.5292 2.25 19.1478 2.25 18.75V5.25C2.25 4.8522 2.40819 4.47075 2.68945 4.18945C2.97073 3.90818 3.35222 3.75003 3.75 3.75H20.25ZM5.25 6C4.83579 6 4.5 6.33579 4.5 6.75V17.248C4.5002 17.6621 4.83591 17.998 5.25 17.998H18.749C19.1629 17.9978 19.4988 17.662 19.499 17.248C19.499 16.834 19.1631 16.4983 18.749 16.498H6V14.2129L9.78516 10.9004L13.7988 13.9102C14.0823 14.1228 14.4765 14.1084 14.7432 13.875L19.2422 9.9375C19.5538 9.66486 19.5859 9.19162 19.3135 8.87988C19.0408 8.56825 18.5666 8.53609 18.2549 8.80859L14.2119 12.3457L10.1992 9.33594C9.95123 9.15005 9.61914 9.13785 9.36133 9.29395L9.25586 9.37109L6 12.2197V7.5H18.749C19.1631 7.49979 19.499 7.16408 19.499 6.75C19.499 6.33592 19.1631 6.00021 18.749 6H5.25Z" fill="black"/>
</svg>
