<svg viewBox="0 0 24 24" fill="none" xmlns="http://www.w3.org/2000/svg" width="24" height="24">
<path d="M3.898 21.717H21.718C22.165 21.717 22.527 21.355 22.527 20.908 22.527 20.46 22.165 20.098 21.718 20.098H3.898C3.451 20.098 3.087 20.46 3.087 20.908 3.087 21.355 3.451 21.717 3.898 21.717Z" fill="black"/>
<path d="M4.724 16.127C4.724 16.575 5.087 16.937 5.534 16.937H8.486C8.933 16.937 9.296 16.575 9.296 16.127V3.093C9.296 2.645 8.933 2.283 8.486 2.283L5.534 2.283C5.087 2.283 4.724 2.645 4.724 3.093V16.127ZM7.676 3.902V15.318H6.344L6.344 3.902H7.676Z" fill="black"/>
<path fill-rule="evenodd" clip-rule="evenodd" d="M14.285 8.801H11.333C10.885 8.801 10.523 9.163 10.523 9.61L10.523 17.845C10.523 18.293 10.885 18.655 11.333 18.655H14.285C14.732 18.655 15.094 18.292 15.094 17.845V9.61C15.094 9.163 14.732 8.801 14.285 8.801ZM15.094 9.61C15.094 9.722 15.072 9.829 15.031 9.926 15.062 9.853 15.082 9.775 15.09 9.693 15.093 9.666 15.094 9.638 15.094 9.61ZM13.475 10.42V17.035H12.142V10.42H13.475Z" fill="black"/>
<path d="M16.337 6.885C16.337 6.894 16.336 6.915 16.336 6.924V12.756C16.337 13.203 16.699 13.566 17.146 13.566H20.098C20.153 13.566 20.206 13.561 20.258 13.55 20.268 13.548 20.278 13.546 20.289 13.544 20.553 13.48 20.767 13.286 20.859 13.034 20.882 12.972 20.897 12.906 20.904 12.839 20.907 12.812 20.908 12.784 20.908 12.756V6.923C20.908 6.476 20.545 6.114 20.098 6.114H17.146C16.774 6.114 16.461 6.365 16.366 6.707 16.352 6.759 16.342 6.813 16.338 6.868L16.337 6.885Z" fill="black"/>
</svg>