<svg width="24" height="24" viewBox="0 0 24 24" fill="none" xmlns="http://www.w3.org/2000/svg">
<path d="M7.37402 12.751C7.6942 14.7386 9.26315 16.3074 11.251 16.627V18.7061C11.0645 18.8132 10.9037 18.9592 10.7783 19.1328C7.76133 18.6195 5.38207 16.2404 4.86816 13.2236C5.0417 13.0981 5.18785 12.9375 5.29492 12.751H7.37402Z" fill="black"/>
<path d="M18.7061 12.751C18.813 12.9372 18.9587 13.0983 19.1318 13.2236C18.618 16.24 16.24 18.6181 13.2236 19.1318C13.0982 18.9585 12.9374 18.812 12.751 18.7051V16.627C14.7382 16.3069 16.3069 14.7382 16.627 12.751H18.7061Z" fill="black"/>
<path d="M11.251 12.751V15.0977C10.0933 14.8185 9.18196 13.9084 8.90234 12.751H11.251Z" fill="black"/>
<path d="M15.0986 12.751C14.8192 13.9081 13.9081 14.8181 12.751 15.0977V12.751H15.0986Z" fill="black"/>
<path d="M10.7783 4.86719C10.9036 5.04069 11.0646 5.18678 11.251 5.29395V7.37305C9.26258 7.69262 7.69366 9.2626 7.37402 11.251H5.29395C5.18678 11.0646 5.04069 10.9037 4.86719 10.7783C5.38048 7.76065 7.76067 5.38054 10.7783 4.86719Z" fill="black"/>
<path d="M11.251 11.251H8.90234C9.18155 10.0927 10.0927 9.18155 11.251 8.90234V11.251Z" fill="black"/>
<path d="M12.751 8.90234C13.9085 9.18197 14.8195 10.0932 15.0986 11.251H12.751V8.90234Z" fill="black"/>
<path d="M13.2236 4.86816C16.2405 5.38204 18.6195 7.76125 19.1328 10.7783C18.9594 10.9036 18.8142 11.0647 18.707 11.251H16.627C16.3074 9.2631 14.7387 7.69317 12.751 7.37305V5.29492C12.9376 5.18785 13.0981 5.0417 13.2236 4.86816Z" fill="black"/>
<path fill-rule="evenodd" clip-rule="evenodd" d="M12 1.5C17.799 1.5 22.5 6.20101 22.5 12C22.5 17.799 17.799 22.5 12 22.5C6.20101 22.5 1.5 17.799 1.5 12C1.5 6.20101 6.20101 1.5 12 1.5ZM12.002 2.47656C11.3875 2.47656 10.8595 2.8442 10.624 3.37109C6.90118 3.96027 3.96061 6.90032 3.37109 10.623C2.84402 10.8585 2.47656 11.3874 2.47656 12.002C2.47691 12.616 2.8445 13.1435 3.37109 13.3789C3.9612 17.1008 6.90178 20.0398 10.624 20.6289C10.8595 21.1559 11.3874 21.5244 12.002 21.5244C12.6162 21.5241 13.1436 21.1558 13.3789 20.6289C17.1001 20.039 20.0389 17.1001 20.6289 13.3789C21.1558 13.1436 21.5241 12.6162 21.5244 12.002C21.5244 11.3873 21.1561 10.8584 20.6289 10.623C20.0394 6.90117 17.1006 3.96111 13.3789 3.37109C13.1435 2.8445 12.616 2.47689 12.002 2.47656Z" fill="black"/>
</svg>
