<svg width="24" height="24" viewBox="0 0 24 24" fill="none" xmlns="http://www.w3.org/2000/svg">
<path d="M12.8789 15.668C12.9194 15.9936 13.0735 16.2833 13.2998 16.498H6V16.3779L9.16504 14.3721C9.34155 14.4538 9.5378 14.501 9.74512 14.501C9.98755 14.5009 10.215 14.4378 10.4131 14.3281L12.8789 15.668Z" fill="black"/>
<path fill-rule="evenodd" clip-rule="evenodd" d="M20.25 3.75C20.6478 3.75 21.0292 3.90819 21.3105 4.18945C21.5919 4.47076 21.75 4.85218 21.75 5.25V18.75C21.75 19.1478 21.5919 19.5292 21.3105 19.8105C21.0292 20.0918 20.6478 20.25 20.25 20.25H3.75C3.35222 20.25 2.97073 20.0918 2.68945 19.8105C2.40819 19.5292 2.25 19.1478 2.25 18.75V5.25C2.25 4.8522 2.40819 4.47075 2.68945 4.18945C2.97073 3.90818 3.35222 3.75003 3.75 3.75H20.25ZM5.25 5.24902C4.83579 5.24902 4.5 5.58481 4.5 5.99902V17.248C4.50022 17.6621 4.83592 17.998 5.25 17.998H18.749C19.1629 17.9978 19.4988 17.6619 19.499 17.248C19.499 16.834 19.1631 16.4983 18.749 16.498H15.2012C15.4665 16.2462 15.6327 15.8908 15.6328 15.4961C15.6328 15.4098 15.6235 15.3251 15.6084 15.2432L17.8311 12.9766C17.9229 12.9958 18.0186 13.0059 18.1162 13.0059C18.8796 13.0056 19.4979 12.3865 19.498 11.623C19.4979 10.9072 18.9541 10.3187 18.2568 10.248L18.1162 10.2402C17.4001 10.2402 16.8109 10.785 16.7402 11.4824L16.7334 11.623L16.7402 11.7646C16.7457 11.8179 16.7543 11.8705 16.7656 11.9219L14.5771 14.1533C14.5167 14.1386 14.4549 14.1265 14.3916 14.1201L14.25 14.1133C13.9866 14.1133 13.7408 14.1875 13.5312 14.3154L11.1211 13.0068C11.0679 12.3421 10.5465 11.8101 9.88574 11.7432L9.74512 11.7354C8.98579 11.7354 8.36929 12.3478 8.3623 13.1055L6 14.6025V12.5049L9.35449 9.56836C9.47932 9.60544 9.61119 9.62691 9.74805 9.62695C9.92185 9.62695 10.088 9.59272 10.2412 9.53418L12.8662 11.5029L12.8613 11.5967L12.8691 11.7373C12.9399 12.4345 13.5283 12.9794 14.2441 12.9795C15.0076 12.9795 15.6266 12.3601 15.627 11.5967C15.627 11.5319 15.6209 11.4677 15.6123 11.4053L17.7139 9.56641C17.8411 9.60503 17.9763 9.62695 18.1162 9.62695C18.8796 9.62673 19.4978 9.0075 19.498 8.24414C19.498 7.52809 18.9543 6.93882 18.2568 6.86816L18.1162 6.86133C17.4003 6.86133 16.8111 7.40533 16.7402 8.10254L16.7334 8.24414L16.7402 8.38574C16.7414 8.39746 16.7436 8.40927 16.7451 8.4209L14.6328 10.2695C14.5531 10.2462 14.4707 10.2293 14.3857 10.2207L14.2441 10.2139C14.0747 10.2139 13.9127 10.245 13.7627 10.3008L11.127 8.32324C11.1284 8.2971 11.1308 8.27065 11.1309 8.24414C11.1309 7.52811 10.587 6.93885 9.88965 6.86816L9.74805 6.86133C9.03237 6.86157 8.44389 7.40549 8.37305 8.10254L8.36621 8.24414L8.37305 8.38574C8.37455 8.40041 8.37696 8.41516 8.37891 8.42969L6 10.5117V5.99902C6 5.58481 5.66421 5.24902 5.25 5.24902Z" fill="black"/>
</svg>
