<svg viewBox="0 0 24 24" fill="none" xmlns="http://www.w3.org/2000/svg" width="24" height="24">
<path d="M1.47 3.9C1.47 3.453 1.833 3.09 2.28 3.09 2.727 3.09 3.09 3.453 3.09 3.9V19.29H21.72C22.167 19.29 22.53 19.653 22.53 20.1 22.53 20.547 22.167 20.91 21.72 20.91H2.28C1.833 20.91 1.47 20.547 1.47 20.1V3.9Z" fill="black"/>
<path d="M7.56 6.886L7.56 5.517C7.56 5.07 7.923 4.707 8.37 4.707 8.817 4.707 9.18 5.07 9.18 5.517L9.18 6.886 10.796 6.886 10.815 6.886C11.254 6.896 11.61 7.255 11.61 7.696L11.61 15.13C11.61 15.213 11.597 15.293 11.574 15.368 11.556 15.426 11.532 15.481 11.502 15.533 11.492 15.55 11.481 15.567 11.47 15.583 11.324 15.798 11.076 15.94 10.797 15.94H9.18L9.18 17.297C9.18 17.744 8.817 18.107 8.37 18.107 7.923 18.107 7.56 17.744 7.56 17.297L7.56 15.94H5.944C5.803 15.94 5.671 15.904 5.555 15.841 5.534 15.83 5.513 15.817 5.493 15.804L5.48 15.795C5.272 15.65 5.134 15.401 5.13 15.13L5.13 7.696C5.13 7.668 5.132 7.64 5.135 7.613 5.176 7.205 5.521 6.886 5.94 6.886H7.56ZM8.37 8.505C8.342 8.505 8.315 8.504 8.287 8.501L8.37 8.505ZM8.51 14.321C8.464 14.313 8.418 14.309 8.37 14.309 8.323 14.309 8.276 14.313 8.231 14.321L8.37 14.309 8.51 14.321Z" fill="black"/>
<path fill-rule="evenodd" clip-rule="evenodd" d="M13.2 9.056L13.236 9.056H14.82V7.688C14.82 7.24 15.182 6.878 15.629 6.878 16.077 6.878 16.439 7.24 16.439 7.688V9.056L18.059 9.056C18.086 9.056 18.112 9.057 18.138 9.059 18.549 9.099 18.87 9.446 18.87 9.866V13.586C18.87 14.033 18.507 14.397 18.06 14.397H16.439V15.414C16.439 15.862 16.077 16.224 15.629 16.224 15.182 16.224 14.82 15.862 14.82 15.414V14.397H13.2C13.024 14.397 12.862 14.341 12.729 14.245 12.524 14.098 12.39 13.857 12.39 13.586V9.866C12.39 9.419 12.752 9.056 13.2 9.056Z" fill="black"/>
</svg>