<svg viewBox="0 0 24 24" fill="none" xmlns="http://www.w3.org/2000/svg" width="24" height="24">
<path fill-rule="evenodd" clip-rule="evenodd" d="M22.314 14.341L22.32 14.392 22.32 14.408C22.321 14.415 22.321 14.423 22.321 14.43V19.29C22.321 19.621 22.052 19.889 21.721 19.89H4.5V20.91C4.5 21.241 4.231 21.51 3.9 21.51 3.569 21.51 3.3 21.241 3.3 20.91V19.29 14.43C3.3 14.13 3.561 13.877 3.85 13.832 3.589 13.863 3.363 14.063 3.311 14.319 3.362 14.067 3.593 13.867 3.85 13.832 3.547 13.863 3.3 14.119 3.3 14.43V9.57 4.71 3.09C3.3 2.759 3.569 2.49 3.9 2.49 4.231 2.49 4.5 2.759 4.5 3.09V4.11H21.721C22.052 4.11 22.321 4.379 22.321 4.71L22.32 9.57 22.314 14.341ZM22.314 14.341C22.302 14.26 22.274 14.185 22.233 14.118 22.18 14.03 22.11 13.959 22.019 13.909 22.005 13.901 21.98 13.889 21.966 13.882 21.959 13.879 21.952 13.876 21.945 13.873 22.131 13.953 22.281 14.135 22.314 14.341ZM4.5 18.69H11.401V15.03H4.5V18.69ZM4.5 10.17V13.83H16.26V10.17L4.5 10.17ZM4.5 8.97L7.856 8.97V5.312L4.5 5.31V8.97Z" fill="black"/>
</svg>