<svg width="24" height="24" viewBox="0 0 24 24" fill="none" xmlns="http://www.w3.org/2000/svg">
<path fill-rule="evenodd" clip-rule="evenodd" d="M20.25 3.75C20.6478 3.75 21.0292 3.90815 21.3105 4.18945C21.5919 4.47076 21.75 4.85218 21.75 5.25V18.75C21.75 19.1478 21.5919 19.5292 21.3105 19.8105C21.0292 20.0919 20.6478 20.25 20.25 20.25H3.75C3.35218 20.25 2.97076 20.0919 2.68945 19.8105C2.40815 19.5292 2.25 19.1478 2.25 18.75V5.25C2.25 4.85218 2.40815 4.47076 2.68945 4.18945C2.97076 3.90815 3.35218 3.75 3.75 3.75H20.25ZM5.24902 6.00195C4.83484 6.00199 4.49902 6.33776 4.49902 6.75195V17.252C4.49916 17.666 4.83492 18.0019 5.24902 18.002H18.748C19.1622 18.002 19.4979 17.6661 19.498 17.252C19.498 16.8377 19.1623 16.502 18.748 16.502H5.99902V6.75195C5.99902 6.33774 5.66324 6.00195 5.24902 6.00195ZM15.1211 6.55664C14.7046 6.55666 14.3319 6.74384 14.083 7.03906C13.7032 7.01702 13.2597 7.00709 12.8018 7.03027C12.1654 7.06252 11.4515 7.1607 10.8311 7.41113C10.6002 7.50432 10.3692 7.62387 10.1572 7.77734L10.0332 7.77148C9.33029 7.77171 8.75293 8.30598 8.68359 8.99023L8.67676 9.12891L8.68359 9.26758C8.73501 9.77268 9.06342 10.1958 9.51465 10.3828C9.65301 10.5903 9.82556 10.7593 10 10.8955C10.4867 11.2754 11.1701 11.5465 11.708 11.7646C12.1517 11.9446 12.517 12.0967 12.793 12.2529C12.6659 12.4596 12.5918 12.7026 12.5918 12.9629C12.5918 13.0841 12.6089 13.2017 12.6387 13.3135C12.622 13.3207 12.6054 13.3299 12.5879 13.3369C12.1893 13.4977 11.6643 13.5819 11.1025 13.6104C10.734 13.629 10.3703 13.6206 10.0479 13.6035C9.84206 13.2074 9.44733 12.9253 8.98242 12.8779L8.84375 12.8711C8.14063 12.8711 7.56247 13.4054 7.49316 14.0898L7.48633 14.2285L7.49316 14.3672C7.56283 15.0512 8.1409 15.5859 8.84375 15.5859C9.26228 15.5858 9.63594 15.3954 9.88477 15.0977C10.2674 15.1202 10.7155 15.1318 11.1787 15.1084C11.8151 15.0762 12.5289 14.9779 13.1494 14.7275C13.4009 14.626 13.6508 14.4902 13.8779 14.3164C13.9015 14.3176 13.9253 14.3203 13.9492 14.3203C14.699 14.3202 15.3065 13.7121 15.3066 12.9629C15.3066 12.3802 14.9387 11.8838 14.4229 11.6914C14.2926 11.5128 14.1368 11.3652 13.9805 11.2432C13.4937 10.8632 12.8104 10.5922 12.2725 10.374C11.8177 10.1896 11.4453 10.0345 11.167 9.87402C11.3079 9.66006 11.3905 9.40416 11.3906 9.12891C11.3906 9.02208 11.3769 8.91809 11.3535 8.81836C11.3663 8.81293 11.3793 8.80712 11.3926 8.80176C11.7912 8.64087 12.316 8.55678 12.8779 8.52832C13.2394 8.51002 13.5962 8.51593 13.9141 8.53223C14.139 8.97048 14.5944 9.27146 15.1211 9.27148C15.8708 9.27148 16.4782 8.66321 16.4785 7.91406C16.4785 7.21147 15.9444 6.63297 15.2598 6.56348L15.1211 6.55664Z" fill="black"/>
</svg>
