<svg viewBox="0 0 24 24" fill="none" xmlns="http://www.w3.org/2000/svg" width="24" height="24">
<path fill-rule="evenodd" clip-rule="evenodd" d="M14.431 7.95C14.431 7.978 14.432 8.006 14.435 8.033L14.431 7.95Z" fill="black"/>
<path d="M14.431 7.95L14.435 8.033 14.431 20.1 11.191 20.1 11.19 11.19 11.191 3.9 14.431 3.9 14.431 7.95ZM9.571 3.09L9.571 10.379 5.52 10.379C5.073 10.379 4.71 10.743 4.71 11.19L4.71 20.1 3.901 20.1C3.453 20.1 3.09 20.462 3.09 20.91 3.09 21.357 3.453 21.72 3.901 21.72L5.52 21.72 10.381 21.72 15.241 21.72H20.101L21.72 21.72C22.167 21.72 22.53 21.357 22.53 20.91 22.53 20.462 22.167 20.1 21.72 20.1L20.91 20.1 20.91 7.95C20.91 7.503 20.548 7.14 20.101 7.14L16.051 7.14 16.051 3.09C16.051 2.643 15.688 2.279 15.241 2.279L10.381 2.279C9.934 2.279 9.571 2.643 9.571 3.09ZM9.571 20.1L6.33 20.1 6.33 12 9.571 12 9.571 20.1Z" fill="black"/>
</svg>