<svg width="24" height="24" viewBox="0 0 24 24" fill="none" xmlns="http://www.w3.org/2000/svg">
<path fill-rule="evenodd" clip-rule="evenodd" d="M10.622 4.3022C10.7343 3.88285 10.4477 3.45887 10.0136 3.45887C8.42155 3.45887 6.95456 3.99417 5.78276 4.8946C5.05794 5.45157 5.2621 6.51902 6.05374 6.97607L8.53975 8.41137C8.96846 8.65888 9.51532 8.4322 9.64345 7.95403L10.622 4.3022Z" fill="black"/>
<path fill-rule="evenodd" clip-rule="evenodd" d="M9.19639 13.3835L4.24426 18.3356C4.04415 18.5357 4.06094 18.8659 4.28997 19.0321C5.75846 20.0979 7.52809 20.7741 9.44708 20.9089C9.72935 20.9287 9.9546 20.6866 9.92993 20.4047L9.31958 13.4283C9.31423 13.3671 9.23983 13.34 9.19639 13.3835Z" fill="black"/>
<path d="M3.50098 10.8851C3.50098 11.4085 3.57337 11.915 3.70868 12.3952C3.94926 13.2489 5.00799 13.3625 5.63515 12.7353L6.47014 11.9003C6.86196 11.5085 6.77583 10.8513 6.29595 10.5742L5.27269 9.98346C4.50453 9.53996 3.51298 9.92449 3.50145 10.8114C3.50114 10.8359 3.50098 10.8605 3.50098 10.8851Z" fill="black"/>
<path d="M13.0508 12.6306C12.6081 12.512 12.1787 12.8685 12.2187 13.3251L12.6678 18.4588C12.6937 18.7547 12.9749 18.961 13.2597 18.8767C15.4822 18.2186 17.3173 16.6586 18.341 14.6208C18.4742 14.3555 18.3204 14.0426 18.0337 13.9658L13.0508 12.6306Z" fill="black"/>
<path fill-rule="evenodd" clip-rule="evenodd" d="M20.0291 11.4936C20.2497 11.5534 20.4253 11.4811 20.4529 11.2542C20.478 11.0467 20.4987 10.7089 20.4987 10.1593C20.4987 6.89238 18.7711 4.02895 16.1796 2.4328C15.421 1.96553 14.4864 2.44374 14.2558 3.30439L12.9189 8.29372C12.7419 8.95452 13.1321 9.64085 13.7929 9.81791L18.5301 11.0872L20.0291 11.4936Z" fill="black"/>
<path fill-rule="evenodd" clip-rule="evenodd" d="M10.622 4.3022C10.7343 3.88285 10.4477 3.45887 10.0136 3.45887C8.42155 3.45887 6.95456 3.99417 5.78276 4.8946C5.05794 5.45157 5.2621 6.51902 6.05374 6.97607L8.53975 8.41137C8.96846 8.65888 9.51532 8.4322 9.64345 7.95403L10.622 4.3022Z" stroke="black" stroke-width="1.5"/>
<path fill-rule="evenodd" clip-rule="evenodd" d="M9.19639 13.3835L4.24426 18.3356C4.04415 18.5357 4.06094 18.8659 4.28997 19.0321C5.75846 20.0979 7.52809 20.7741 9.44708 20.9089C9.72935 20.9287 9.9546 20.6866 9.92993 20.4047L9.31958 13.4283C9.31423 13.3671 9.23983 13.34 9.19639 13.3835Z" stroke="black" stroke-width="1.5"/>
<path d="M3.50098 10.8851C3.50098 11.4085 3.57337 11.915 3.70868 12.3952C3.94926 13.2489 5.00799 13.3625 5.63515 12.7353L6.47014 11.9003C6.86196 11.5085 6.77583 10.8513 6.29595 10.5742L5.27269 9.98346C4.50453 9.53996 3.51298 9.92449 3.50145 10.8114C3.50114 10.8359 3.50098 10.8605 3.50098 10.8851Z" stroke="black" stroke-width="1.5"/>
<path d="M13.0508 12.6306C12.6081 12.512 12.1787 12.8685 12.2187 13.3251L12.6678 18.4588C12.6937 18.7547 12.9749 18.961 13.2597 18.8767C15.4822 18.2186 17.3173 16.6586 18.341 14.6208C18.4742 14.3555 18.3204 14.0426 18.0337 13.9658L13.0508 12.6306Z" stroke="black" stroke-width="1.5"/>
<path fill-rule="evenodd" clip-rule="evenodd" d="M20.0291 11.4936C20.2497 11.5534 20.4253 11.4811 20.4529 11.2542C20.478 11.0467 20.4987 10.7089 20.4987 10.1593C20.4987 6.89238 18.7711 4.02895 16.1796 2.4328C15.421 1.96553 14.4864 2.44374 14.2558 3.30439L12.9189 8.29372C12.7419 8.95452 13.1321 9.64085 13.7929 9.81791L18.5301 11.0872L20.0291 11.4936Z" stroke="black" stroke-width="1.5"/>
</svg>
