<svg viewBox="0 0 24 24" fill="none" xmlns="http://www.w3.org/2000/svg" width="24" height="24">
<path d="M18.492 7.133V7.636L14.224 12.359 9.547 10.314C9.274 10.194 8.961 10.236 8.729 10.413L8.636 10.498 5.528 13.76V7.133H18.492Z" fill="black"/>
<path fill-rule="evenodd" clip-rule="evenodd" d="M20.91 3.09C21.339 3.09 21.752 3.261 22.056 3.565 22.359 3.869 22.53 4.28 22.53 4.71V19.29C22.53 19.72 22.36 20.133 22.056 20.436 21.752 20.74 21.339 20.91 20.91 20.91H3.09C2.661 20.91 2.248 20.74 1.944 20.436 1.64 20.133 1.47 19.72 1.47 19.29V4.71C1.47 4.28 1.641 3.869 1.944 3.565 2.248 3.261 2.661 3.09 3.09 3.09H20.91ZM4.718 5.515C4.271 5.515 3.908 5.878 3.908 6.325V15.568C3.849 15.738 3.851 15.921 3.908 16.091V17.665C3.908 18.112 4.271 18.475 4.718 18.475H19.302L19.465 18.458C19.833 18.383 20.111 18.056 20.111 17.665L20.112 6.325C20.112 5.878 19.749 5.515 19.302 5.515H4.718Z" fill="black"/>
</svg>