<svg width="24" height="24" viewBox="0 0 24 24" fill="none" xmlns="http://www.w3.org/2000/svg">
<path d="M13.624 10.6504C13.8792 10.8416 14.2336 10.8281 14.4736 10.6182L17.4219 8.03809V8.34961L13.8535 12.2988L9.95605 10.5947C9.72843 10.4952 9.46719 10.5298 9.27441 10.6777L9.19629 10.748L6.60645 13.4668V10.8916L9.99414 7.92773L13.624 10.6504Z" fill="black"/>
<path fill-rule="evenodd" clip-rule="evenodd" d="M19.4248 4.5752C19.7828 4.5752 20.1267 4.71753 20.3799 4.9707C20.6329 5.22377 20.7753 5.56697 20.7754 5.9248V18.0752C20.7754 18.4332 20.6331 18.7771 20.3799 19.0303C20.1267 19.2834 19.7828 19.4248 19.4248 19.4248H4.5752C4.21718 19.4248 3.87329 19.2834 3.62012 19.0303C3.36694 18.7771 3.22461 18.4332 3.22461 18.0752V5.9248C3.22471 5.56702 3.36719 5.22376 3.62012 4.9707C3.87329 4.71753 4.21715 4.5752 4.5752 4.5752H19.4248ZM18.0586 5.87891C18.0334 5.88031 18.0084 5.88249 17.9834 5.88672C17.9627 5.89023 17.9428 5.89603 17.9229 5.90137C17.9026 5.90678 17.8821 5.91159 17.8623 5.91895C17.839 5.92758 17.8169 5.93818 17.7949 5.94922C17.7774 5.95802 17.7601 5.9671 17.7432 5.97754C17.7228 5.99014 17.7034 6.00393 17.6846 6.01855C17.674 6.02677 17.6626 6.03403 17.6523 6.04297L13.9961 9.24121L10.3662 6.51953C10.1111 6.32821 9.75664 6.3409 9.5166 6.55078L6.60645 9.09668V7.27051C6.60645 6.89813 6.304 6.59578 5.93164 6.5957C5.55922 6.5957 5.25684 6.89808 5.25684 7.27051V10.4033C5.20931 10.5445 5.2076 10.6977 5.25684 10.8398V14.9736C5.2079 15.1151 5.20927 15.2678 5.25684 15.4092V16.7207C5.2571 17.0929 5.55938 17.3955 5.93164 17.3955H18.085L18.0898 17.3945C18.0921 17.3946 18.0944 17.3955 18.0967 17.3955C18.4693 17.3955 18.7712 17.0933 18.7715 16.7207V6.55078C18.7715 6.53794 18.7683 6.52536 18.7676 6.5127C18.7662 6.48748 18.764 6.4625 18.7598 6.4375C18.7563 6.41687 18.7514 6.3969 18.7461 6.37695C18.7406 6.35656 18.7349 6.33635 18.7275 6.31641C18.7189 6.29311 18.7083 6.27102 18.6973 6.24902C18.6884 6.2315 18.6794 6.21416 18.6689 6.19727C18.6558 6.17608 18.6413 6.15626 18.626 6.13672C18.6184 6.12704 18.6127 6.11581 18.6045 6.10645C18.6001 6.10144 18.5943 6.09762 18.5898 6.09277C18.5724 6.07398 18.5537 6.05674 18.5342 6.04004C18.519 6.02697 18.5044 6.01346 18.4883 6.00195C18.4703 5.98913 18.4508 5.97882 18.4316 5.96777C18.4128 5.95695 18.3946 5.9454 18.375 5.93652C18.3542 5.9271 18.3324 5.9204 18.3105 5.91309C18.2914 5.90668 18.2725 5.90016 18.2529 5.89551C18.2302 5.89013 18.2071 5.88681 18.1836 5.88379C18.1625 5.88104 18.1414 5.87868 18.1201 5.87793C18.1124 5.87767 18.1045 5.87598 18.0967 5.87598C18.0839 5.87598 18.0712 5.8782 18.0586 5.87891Z" fill="black"/>
</svg>
