<svg width="24" height="24" viewBox="0 0 24 24" fill="none" xmlns="http://www.w3.org/2000/svg">
<path fill-rule="evenodd" clip-rule="evenodd" d="M20.5951 13.9509L20.5996 13.9931L20.6003 14.0068C20.6005 14.0128 20.6006 14.0188 20.6006 14.0249V18.0747C20.6006 18.3507 20.3765 18.5744 20.1006 18.5747H5.75V19.4248C5.75 19.7009 5.52614 19.9248 5.25 19.9248C4.97386 19.9248 4.75 19.7009 4.75 19.4248V18.0747V14.0249C4.7501 13.7754 4.9677 13.5643 5.20794 13.5266C4.99063 13.5527 4.80252 13.7194 4.75931 13.9324C4.80191 13.7223 4.99445 13.5562 5.20794 13.5266C4.95587 13.5523 4.7501 13.7661 4.75 14.0249V9.97461V5.9248V4.5752C4.75 4.29905 4.97386 4.0752 5.25 4.0752C5.52614 4.0752 5.75 4.29905 5.75 4.5752V5.4248H20.1006C20.3765 5.42507 20.6006 5.64883 20.6006 5.9248L20.5996 9.9751L20.5951 13.9509ZM20.5951 13.9509C20.5851 13.8837 20.5617 13.8207 20.5277 13.765C20.4832 13.6913 20.4248 13.6327 20.3495 13.591C20.3378 13.5844 20.317 13.5742 20.3047 13.5685C20.299 13.5659 20.2932 13.5635 20.2874 13.5611C20.4428 13.6277 20.5676 13.7792 20.5951 13.9509ZM5.75 17.5747H11.501V14.5249H5.75V17.5747ZM5.75 10.4751V13.5249H15.5498V10.4748L5.75 10.4751ZM5.75 9.47461L8.54688 9.4747V6.42638L5.75 6.4248V9.47461Z" fill="black"/>
</svg>
