<svg width="24" height="24" viewBox="0 0 24 24" fill="none" xmlns="http://www.w3.org/2000/svg">
<path fill-rule="evenodd" clip-rule="evenodd" d="M20.25 3.75C20.6478 3.75 21.0292 3.90819 21.3105 4.18945C21.5919 4.47076 21.75 4.85218 21.75 5.25V18.75C21.75 19.1478 21.5919 19.5292 21.3105 19.8105C21.0292 20.0918 20.6478 20.25 20.25 20.25H3.75C3.35222 20.25 2.97073 20.0918 2.68945 19.8105C2.40819 19.5292 2.25 19.1478 2.25 18.75V5.25C2.25 4.8522 2.40819 4.47075 2.68945 4.18945C2.97073 3.90818 3.35222 3.75003 3.75 3.75H20.25ZM18.1826 5.35059C17.6984 5.35059 17.2755 5.6125 17.0469 6.00195H15.1953C14.9882 5.64924 14.6224 5.40095 14.1953 5.35742L14.0605 5.35059C13.5763 5.35059 13.1534 5.61246 12.9248 6.00195H11.0732C10.8661 5.64923 10.5004 5.4009 10.0732 5.35742L9.93848 5.35059C9.45434 5.35059 9.03239 5.61265 8.80371 6.00195H6.95117C6.7225 5.61264 6.30055 5.35059 5.81641 5.35059C5.08938 5.35061 4.50002 5.93997 4.5 6.66699C4.50006 6.68089 4.5025 6.69519 4.50293 6.70898C4.50211 6.723 4.5 6.73775 4.5 6.75195V17.249C4.50026 17.663 4.83595 17.999 5.25 17.999H18.749C19.1629 17.9988 19.4988 17.6629 19.499 17.249C19.4988 16.8351 19.1629 16.4992 18.749 16.499H6V15.0576C6.63976 14.9683 7.13235 14.4201 7.13281 13.7559C7.13281 13.7391 7.13054 13.7217 7.12988 13.7051L9.71094 11.4463C9.8121 11.4712 9.91751 11.4863 10.0264 11.4863C10.1542 11.4863 10.2777 11.4666 10.3945 11.4326L12.46 13.0977L12.4561 13.1895L12.4629 13.3232C12.5304 13.987 13.0909 14.5059 13.7725 14.5059C14.4991 14.5057 15.0884 13.916 15.0889 13.1895C15.0889 13.1589 15.0861 13.1277 15.084 13.0977L17.1455 11.4316C17.2636 11.4664 17.3883 11.4863 17.5176 11.4863C18.2445 11.4863 18.8337 10.8968 18.834 10.1699C18.834 9.44289 18.2446 8.85352 17.5176 8.85352C16.7906 8.8536 16.2012 9.44294 16.2012 10.1699C16.2012 10.2006 16.203 10.2315 16.2051 10.2617L14.1455 11.9268C14.0684 11.904 13.9885 11.8872 13.9062 11.8789L13.7725 11.873C13.6423 11.873 13.5162 11.8916 13.3975 11.9268L11.3379 10.2656C11.3402 10.2342 11.3427 10.202 11.3428 10.1699C11.3428 9.44289 10.7534 8.85352 10.0264 8.85352C9.2994 8.8536 8.70998 9.44294 8.70996 10.1699C8.70998 10.2209 8.71308 10.2718 8.71875 10.3213L6.22461 12.5039C6.15229 12.4803 6.07722 12.4629 6 12.4521V7.96875C6.33464 7.92199 6.62929 7.75098 6.83398 7.50195H8.9209C9.16234 7.79567 9.52858 7.9834 9.93848 7.9834C10.3484 7.98337 10.7146 7.7957 10.9561 7.50195H13.043C13.2844 7.79562 13.6507 7.9834 14.0605 7.9834C14.4704 7.98332 14.8367 7.79571 15.0781 7.50195H17.1641C17.4055 7.79585 17.7726 7.9834 18.1826 7.9834C18.8022 7.98319 19.3201 7.55417 19.46 6.97754C19.4826 6.90615 19.4989 6.83081 19.499 6.75195C19.499 6.73775 19.4969 6.72299 19.4961 6.70898C19.4965 6.6952 19.499 6.68088 19.499 6.66699C19.499 5.98529 18.9804 5.42469 18.3164 5.35742L18.1826 5.35059Z" fill="black"/>
</svg>
