<svg width="24" height="24" viewBox="0 0 24 24" fill="none" xmlns="http://www.w3.org/2000/svg">
<path fill-rule="evenodd" clip-rule="evenodd" d="M3.22723 5.30407L3.2251 5.25C3.2251 4.87727 3.5272 4.5753 3.8999 4.5752L20.1001 4.5752C20.4729 4.5752 20.7749 4.87721 20.7749 5.25L20.7749 18.75C20.7749 19.1227 20.4728 19.4247 20.1001 19.4248H3.8999C3.52711 19.4248 3.2251 19.1228 3.2251 18.75L3.22858 5.319L3.22723 5.30407ZM7.74756 12.1221C7.52709 12.0747 7.32187 11.9732 7.15088 11.8262C6.97958 11.6788 6.8478 11.4898 6.76807 11.2783L5.79736 8.68946C5.67623 8.36621 5.68365 8.00847 5.81787 7.69043L6.56492 5.92481L4.57471 5.9248L4.57471 18.0752H12.1129L10.8594 16.7842L10.8486 16.7725C10.6692 16.5787 10.55 16.3367 10.5068 16.0762C10.4637 15.8157 10.4982 15.5479 10.6055 15.3066L11.216 13.9365H11.0913C10.8381 13.9365 10.5901 13.8648 10.3755 13.7305C10.1607 13.5959 9.98708 13.4039 9.87646 13.1758L9.55615 12.5117L7.74756 12.1221ZM9.84033 11.1914L9.16197 11.0456L9.82568 9.88672L11.2358 9.88574C11.4636 9.88596 11.688 9.82907 11.8872 9.71875L12.9233 9.14746C13.0148 9.09769 13.1006 9.0382 13.1772 8.96778L15.4497 6.91309C15.6757 6.70752 15.8258 6.43148 15.8745 6.12988C15.8777 6.11008 15.8815 6.08884 15.8855 6.06622C15.8929 6.02495 15.9012 5.97846 15.9088 5.92481L19.4253 5.92481L19.4253 14.7075L15.625 12.3701L15.502 12.3037C15.376 12.2438 15.2403 12.2026 15.1016 12.1836L13.1758 11.9238C12.8866 11.8847 12.5928 11.941 12.3379 12.083C12.1244 12.202 11.9477 12.376 11.8261 12.5859H11.0923L10.771 11.9219L10.6958 11.7881C10.6138 11.6589 10.5101 11.5441 10.3892 11.4492C10.2278 11.3227 10.0408 11.2344 9.84033 11.1914Z" fill="black"/>
</svg>
