<svg viewBox="0 0 24 24" fill="none" xmlns="http://www.w3.org/2000/svg" width="24" height="24">
<path d="M5.521 13.543C5.644 13.585 5.734 13.701 5.734 13.839 5.734 13.976 5.644 14.093 5.521 14.134 5.49 14.144 5.457 14.149 5.423 14.149 5.252 14.149 5.112 14.01 5.112 13.839 5.112 13.667 5.252 13.527 5.423 13.527 5.457 13.527 5.49 13.533 5.521 13.543Z" fill="black"/>
<path d="M14.434 13.527C14.606 13.527 14.745 13.667 14.745 13.839 14.744 14.01 14.605 14.149 14.434 14.149 14.262 14.149 14.123 14.01 14.122 13.839 14.122 13.667 14.262 13.527 14.434 13.527Z" fill="black"/>
<path d="M9.578 10.88C9.749 10.88 9.888 11.02 9.888 11.191 9.888 11.363 9.749 11.502 9.578 11.502 9.406 11.502 9.266 11.363 9.266 11.191 9.266 11.02 9.406 10.88 9.578 10.88Z" fill="black"/>
<path d="M18.619 9.266C18.79 9.266 18.929 9.406 18.929 9.578 18.929 9.749 18.79 9.888 18.619 9.888 18.447 9.888 18.307 9.749 18.307 9.578 18.307 9.406 18.447 9.266 18.619 9.266Z" fill="black"/>
<path d="M5.46 5.196C5.614 5.214 5.734 5.346 5.734 5.505 5.734 5.643 5.644 5.76 5.521 5.801 5.49 5.811 5.457 5.816 5.423 5.816 5.252 5.816 5.112 5.677 5.112 5.505 5.112 5.334 5.252 5.194 5.423 5.194 5.436 5.194 5.448 5.195 5.46 5.196Z" fill="black"/>
<path d="M9.803 5.194C9.974 5.194 10.113 5.334 10.113 5.505 10.113 5.677 9.974 5.816 9.803 5.816 9.631 5.816 9.491 5.677 9.491 5.505 9.491 5.334 9.631 5.194 9.803 5.194Z" fill="black"/>
<path d="M14.211 5.194C14.383 5.194 14.522 5.334 14.522 5.505 14.522 5.677 14.383 5.816 14.211 5.816 14.04 5.816 13.9 5.677 13.9 5.505 13.9 5.334 14.039 5.194 14.211 5.194Z" fill="black"/>
<path d="M18.619 5.194C18.79 5.194 18.929 5.334 18.929 5.505 18.929 5.677 18.79 5.816 18.619 5.816 18.447 5.816 18.307 5.677 18.307 5.505 18.307 5.334 18.447 5.194 18.619 5.194Z" fill="black"/>
<path fill-rule="evenodd" clip-rule="evenodd" d="M20.91 3.09C21.339 3.09 21.752 3.261 22.056 3.565 22.359 3.869 22.53 4.28 22.53 4.71V19.29C22.53 19.72 22.36 20.133 22.056 20.436 21.752 20.74 21.339 20.91 20.91 20.91H3.09C2.661 20.91 2.248 20.74 1.944 20.436 1.64 20.133 1.47 19.72 1.47 19.29V4.71C1.47 4.28 1.641 3.869 1.944 3.565 2.248 3.261 2.661 3.09 3.09 3.09H20.91ZM18.619 3.994C18.082 3.994 17.611 4.274 17.343 4.696H15.486C15.218 4.274 14.748 3.994 14.211 3.994 13.675 3.994 13.202 4.274 12.934 4.696H11.079C10.811 4.274 10.339 3.994 9.803 3.994 9.266 3.994 8.795 4.274 8.527 4.696H6.7C6.432 4.274 5.96 3.994 5.423 3.994 4.589 3.994 3.901 4.671 3.901 5.505V17.664C3.901 18.111 4.264 18.473 4.711 18.473H19.301C19.748 18.473 20.11 18.111 20.111 17.664 20.111 17.216 19.748 16.854 19.301 16.854H5.521V15.346C6.309 15.295 6.934 14.64 6.934 13.839V13.826L8.933 12.558C9.129 12.65 9.347 12.702 9.578 12.702 9.842 12.702 10.092 12.634 10.308 12.514L12.925 13.936C12.975 14.725 13.632 15.349 14.434 15.349 15.268 15.349 15.944 14.673 15.945 13.839 15.945 13.724 15.931 13.612 15.907 13.505L18.33 11.06C18.424 11.078 18.52 11.088 18.619 11.088 19.453 11.088 20.129 10.412 20.129 9.578 20.129 8.743 19.453 8.066 18.619 8.066 17.784 8.066 17.107 8.743 17.107 9.578 17.107 9.705 17.123 9.829 17.153 9.947L14.757 12.362C14.653 12.339 14.545 12.327 14.434 12.327 14.169 12.327 13.92 12.395 13.704 12.514L11.086 11.093C11.035 10.304 10.379 9.68 9.578 9.68 8.743 9.68 8.066 10.357 8.066 11.191L6.056 12.465C5.892 12.389 5.711 12.343 5.521 12.33V7.013C6.016 6.981 6.447 6.711 6.698 6.315H8.527C8.795 6.737 9.266 7.016 9.803 7.016 10.339 7.016 10.811 6.737 11.079 6.315H12.935C13.203 6.736 13.675 7.016 14.211 7.016 14.748 7.016 15.218 6.736 15.486 6.315H17.343C17.611 6.737 18.082 7.016 18.619 7.016 19.453 7.016 20.129 6.34 20.129 5.505 20.129 4.671 19.453 3.994 18.619 3.994Z" fill="black"/>
</svg>