<svg width="24" height="24" viewBox="0 0 24 24" fill="none" xmlns="http://www.w3.org/2000/svg">
<path fill-rule="evenodd" clip-rule="evenodd" d="M20.25 3.75C20.6478 3.75 21.0292 3.90815 21.3105 4.18945C21.5919 4.47076 21.75 4.85218 21.75 5.25V18.75C21.75 19.1478 21.5919 19.5292 21.3105 19.8105C21.0292 20.0919 20.6478 20.25 20.25 20.25H3.75C3.35218 20.25 2.97076 20.0919 2.68945 19.8105C2.40815 19.5292 2.25 19.1478 2.25 18.75V5.25C2.25 4.85218 2.40815 4.47076 2.68945 4.18945C2.97076 3.90815 3.35218 3.75 3.75 3.75H20.25ZM5.24902 6.07715C4.87626 6.07718 4.57422 6.37918 4.57422 6.75195V17.252C4.57435 17.6246 4.87634 17.9267 5.24902 17.9268H18.748C19.1208 17.9268 19.4237 17.6246 19.4238 17.252C19.4238 16.8792 19.1208 16.5771 18.748 16.5771H5.92383V6.75195C5.92383 6.37916 5.62182 6.07715 5.24902 6.07715ZM15.1211 6.63086C14.6072 6.63088 14.1645 6.93385 13.96 7.37012C13.8302 7.39918 13.6915 7.42971 13.5459 7.46289C12.7921 7.63471 11.8378 7.86044 10.8232 8.12012C10.6379 7.9747 10.4123 7.87771 10.165 7.85254L10.0332 7.84668C9.3691 7.84691 8.82324 8.35151 8.75781 8.99805L8.75098 9.12891L8.75781 9.25977C8.8235 9.90603 9.36929 10.4109 10.0332 10.4111C10.1793 10.4111 10.3194 10.3848 10.4502 10.3398C10.7082 10.598 10.9507 10.8412 11.2246 11.1152C11.6143 11.5051 12.0669 11.9592 12.7168 12.6094C12.7124 12.6248 12.7089 12.6406 12.7051 12.6562C11.7554 12.8972 10.9007 13.0999 10.2266 13.2529C10.0664 13.2893 9.91588 13.3208 9.77734 13.3516C9.57158 13.1323 9.29061 12.9843 8.97461 12.9521L8.84375 12.9453C8.17944 12.9453 7.63278 13.4509 7.56738 14.0977L7.56152 14.2285L7.56738 14.3594C7.63311 15.0057 8.17969 15.5107 8.84375 15.5107C9.39449 15.5106 9.86146 15.1621 10.043 14.6748C10.1909 14.642 10.3527 14.6085 10.5254 14.5693C11.2285 14.4097 12.1262 14.1975 13.124 13.9434C13.347 14.1313 13.6346 14.2451 13.9492 14.2451C14.6575 14.245 15.2313 13.6707 15.2314 12.9629C15.2314 12.2992 14.7268 11.7532 14.0801 11.6875L13.9492 11.6807C13.8709 11.6807 13.7942 11.6887 13.7197 11.7021C13.0442 11.0263 12.5788 10.5604 12.1797 10.1611C11.9001 9.88138 11.6527 9.63427 11.3887 9.37012C12.3022 9.13884 13.1581 8.93626 13.8467 8.7793C13.942 8.75757 14.0345 8.73773 14.123 8.71777C14.358 9.00919 14.7175 9.19627 15.1211 9.19629C15.8294 9.19628 16.4031 8.62184 16.4033 7.91406C16.4033 7.25021 15.8989 6.70326 15.252 6.6377L15.1211 6.63086Z" fill="black"/>
</svg>
