<svg width="24" height="24" viewBox="0 0 24 24" fill="none" xmlns="http://www.w3.org/2000/svg">
<path d="M20.2489 3.75122H3.74901C3.35119 3.75122 2.96966 3.90925 2.68836 4.19056C2.40706 4.47186 2.24902 4.85339 2.24902 5.25121V18.7511C2.24902 19.1489 2.40706 19.5305 2.68836 19.8118C2.96966 20.0931 3.35119 20.2511 3.74901 20.2511H20.2489C20.6467 20.2511 21.0282 20.0931 21.3095 19.8118C21.5908 19.5305 21.7489 19.1489 21.7489 18.7511V5.25121C21.7489 4.85339 21.5908 4.47186 21.3095 4.19056C21.0282 3.90925 20.6467 3.75122 20.2489 3.75122ZM17.6239 6.7512C17.8464 6.7512 18.0639 6.81718 18.2489 6.94079C18.4339 7.06441 18.5781 7.24011 18.6633 7.44567C18.7484 7.65124 18.7707 7.87744 18.7273 8.09566C18.6839 8.31389 18.5767 8.51435 18.4194 8.67168C18.2621 8.82901 18.0616 8.93616 17.8434 8.97956C17.6252 9.02297 17.399 9.00069 17.1934 8.91555C16.9878 8.8304 16.8121 8.6862 16.6885 8.5012C16.5649 8.3162 16.4989 8.09869 16.4989 7.87619C16.4989 7.57782 16.6174 7.29168 16.8284 7.0807C17.0394 6.86972 17.3255 6.7512 17.6239 6.7512ZM17.6239 12.0012C17.8464 12.0012 18.0639 12.0671 18.2489 12.1908C18.4339 12.3144 18.5781 12.4901 18.6633 12.6956C18.7484 12.9012 18.7707 13.1274 18.7273 13.3456C18.6839 13.5639 18.5767 13.7643 18.4194 13.9216C18.2621 14.079 18.0616 14.1861 17.8434 14.2295C17.6252 14.2729 17.399 14.2507 17.1934 14.1655C16.9878 14.0804 16.8121 13.9362 16.6885 13.7512C16.5649 13.5662 16.4989 13.3487 16.4989 13.1261C16.4989 12.8278 16.6174 12.5416 16.8284 12.3307C17.0394 12.1197 17.3255 12.0012 17.6239 12.0012ZM13.8739 10.5012C14.0964 10.5012 14.3139 10.5671 14.4989 10.6908C14.684 10.8144 14.8281 10.9901 14.9133 11.1956C14.9984 11.4012 15.0207 11.6274 14.9773 11.8456C14.9339 12.0639 14.8268 12.2643 14.6694 12.4216C14.5121 12.579 14.3116 12.6861 14.0934 12.7295C13.8752 12.7729 13.649 12.7507 13.4434 12.6655C13.2379 12.5804 13.0622 12.4362 12.9385 12.2512C12.8149 12.0662 12.7489 11.8487 12.7489 11.6262C12.7489 11.3278 12.8675 11.0416 13.0784 10.8307C13.2894 10.6197 13.5756 10.5012 13.8739 10.5012ZM11.624 6.7512C11.8465 6.7512 12.064 6.81718 12.249 6.94079C12.434 7.06441 12.5782 7.24011 12.6633 7.44567C12.7485 7.65124 12.7707 7.87744 12.7273 8.09566C12.6839 8.31389 12.5768 8.51435 12.4194 8.67168C12.2621 8.82901 12.0617 8.93616 11.8434 8.97956C11.6252 9.02297 11.399 9.00069 11.1934 8.91555C10.9879 8.8304 10.8122 8.6862 10.6886 8.5012C10.5649 8.3162 10.499 8.09869 10.499 7.87619C10.499 7.57782 10.6175 7.29168 10.8285 7.0807C11.0394 6.86972 11.3256 6.7512 11.624 6.7512ZM9.37397 12.0012C9.59647 12.0012 9.81398 12.0671 9.99898 12.1908C10.184 12.3144 10.3282 12.4901 10.4133 12.6956C10.4985 12.9012 10.5208 13.1274 10.4773 13.3456C10.4339 13.5639 10.3268 13.7643 10.1695 13.9216C10.0121 14.079 9.81167 14.1861 9.59344 14.2295C9.37522 14.2729 9.14902 14.2507 8.94345 14.1655C8.73789 14.0804 8.56219 13.9362 8.43857 13.7512C8.31496 13.5662 8.24898 13.3487 8.24898 13.1261C8.24898 12.8278 8.3675 12.5416 8.57848 12.3307C8.78946 12.1197 9.0756 12.0012 9.37397 12.0012ZM18.7489 18.0011H5.249C5.05009 18.0011 4.85933 17.9221 4.71867 17.7814C4.57802 17.6408 4.49901 17.45 4.49901 17.2511V6.7512C4.49901 6.55229 4.57802 6.36152 4.71867 6.22087C4.85933 6.08022 5.05009 6.0012 5.249 6.0012C5.44791 6.0012 5.63868 6.08022 5.77933 6.22087C5.91998 6.36152 5.99899 6.55229 5.99899 6.7512V16.5011H18.7489C18.9478 16.5011 19.1386 16.5801 19.2792 16.7208C19.4199 16.8614 19.4989 17.0522 19.4989 17.2511C19.4989 17.45 19.4199 17.6408 19.2792 17.7814C19.1386 17.9221 18.9478 18.0011 18.7489 18.0011Z" fill="black"/>
</svg>
