<svg width="24" height="24" viewBox="0 0 24 24" fill="none" xmlns="http://www.w3.org/2000/svg">
<path d="M6.74951 16.2505C5.92108 16.2505 5.24951 15.5755 5.24951 14.7471C5.24951 10.2806 5.24951 9.72006 5.24951 5.25363C5.24951 4.42519 5.92111 3.75022 6.74955 3.75024L8.24991 3.75028C9.07833 3.7503 9.74988 4.42187 9.74988 5.25028V14.7505" fill="black"/>
<path d="M15.7495 14.2524C14.9211 14.2524 14.2495 13.5808 14.2495 12.7524V7.24849C14.2495 6.42006 14.9211 5.74849 15.7495 5.74849H17.2495C18.0779 5.74849 18.7495 6.42006 18.7495 7.24849V12.7524" fill="black"/>
<path fill-rule="evenodd" clip-rule="evenodd" d="M8.24991 3.75028L6.74955 3.75024C5.92111 3.75022 5.24951 4.42519 5.24951 5.25363V14.7471C5.24951 15.5755 5.92108 16.2505 6.74951 16.2505H8.24988C9.07831 16.2505 9.74988 15.5789 9.74988 14.7505V5.25028C9.74988 4.42187 9.07833 3.7503 8.24991 3.75028Z" fill="black"/>
<path fill-rule="evenodd" clip-rule="evenodd" d="M14.2495 12.7524C14.2495 13.5808 14.9211 14.2524 15.7495 14.2524H17.2495C18.0779 14.2524 18.7495 13.5808 18.7495 12.7524V7.24849C18.7495 6.42006 18.0779 5.74849 17.2495 5.74849H15.7495C14.9211 5.74849 14.2495 6.42006 14.2495 7.24849V12.7524Z" fill="black"/>
<path d="M5.24951 14.7471C5.24951 15.5755 5.92108 16.2505 6.74951 16.2505H8.24988C9.07831 16.2505 9.74988 15.5789 9.74988 14.7505V5.25028C9.74988 4.42187 9.07833 3.7503 8.24991 3.75028L6.74955 3.75024C5.92111 3.75022 5.24951 4.42519 5.24951 5.25363M5.24951 14.7471C5.24951 10.2806 5.24951 9.72006 5.24951 5.25363M5.24951 14.7471V5.25363M20.25 20.2514H3.75M15.7495 14.2524C14.9211 14.2524 14.2495 13.5808 14.2495 12.7524V7.24849C14.2495 6.42006 14.9211 5.74849 15.7495 5.74849H17.2495C18.0779 5.74849 18.7495 6.42006 18.7495 7.24849V12.7524C18.7495 13.5808 18.0779 14.2524 17.2495 14.2524H15.7495Z" stroke="black" stroke-width="1.5" stroke-linecap="round"/>
</svg>
