<svg viewBox="0 0 24 24" fill="none" xmlns="http://www.w3.org/2000/svg" width="24" height="24">
<path fill-rule="evenodd" clip-rule="evenodd" d="M1.473 3.965L1.47 3.9C1.47 3.453 1.833 3.09 2.28 3.09L21.72 3.09C22.167 3.09 22.53 3.453 22.53 3.9L22.53 20.1C22.53 20.547 22.167 20.91 21.72 20.91H2.28C1.833 20.91 1.47 20.547 1.47 20.1L1.474 3.983 1.473 3.965ZM6.897 12.147C6.633 12.09 6.386 11.968 6.181 11.791 5.975 11.615 5.817 11.388 5.722 11.134L4.557 8.027C4.411 7.639 4.42 7.21 4.581 6.829L5.478 4.71 3.09 4.71 3.09 19.29H12.135L10.631 17.741 10.618 17.727C10.403 17.494 10.26 17.204 10.208 16.891 10.156 16.579 10.198 16.257 10.327 15.968L11.059 14.324H10.91C10.606 14.324 10.308 14.238 10.051 14.077 9.793 13.915 9.584 13.685 9.452 13.411L9.067 12.614 6.897 12.147ZM9.408 11.03L8.594 10.855 9.391 9.464 11.083 9.463C11.356 9.463 11.626 9.395 11.865 9.263L13.108 8.577C13.218 8.517 13.321 8.446 13.413 8.361L16.14 5.896C16.411 5.649 16.591 5.318 16.649 4.956 16.653 4.932 16.658 4.907 16.663 4.879 16.671 4.83 16.681 4.774 16.691 4.71L20.91 4.71 20.91 15.249 16.35 12.444 16.202 12.364C16.051 12.293 15.888 12.243 15.722 12.22L13.411 11.909C13.064 11.862 12.711 11.929 12.405 12.1 12.149 12.242 11.937 12.451 11.791 12.703H10.911L10.525 11.906 10.435 11.746C10.337 11.591 10.212 11.453 10.067 11.339 9.873 11.187 9.649 11.081 9.408 11.03Z" fill="black"/>
</svg>