<svg width="24" height="24" viewBox="0 0 24 24" fill="none" xmlns="http://www.w3.org/2000/svg">
<path fill-rule="evenodd" clip-rule="evenodd" d="M20.25 3.75C20.6477 3.75 21.0293 3.9083 21.3105 4.18945C21.5919 4.47076 21.75 4.85315 21.75 5.25098V18.751C21.7499 19.1486 21.5917 19.5303 21.3105 19.8115C21.0293 20.0927 20.6477 20.251 20.25 20.251H3.75C3.35229 20.251 2.97073 20.0927 2.68945 19.8115C2.40826 19.5303 2.25013 19.1486 2.25 18.751V5.25098C2.25 4.85315 2.40815 4.47076 2.68945 4.18945C2.97073 3.9083 3.35229 3.75 3.75 3.75H20.25ZM5.24902 6.00195C4.83492 6.00199 4.49916 6.33787 4.49902 6.75195V17.252C4.49902 17.6661 4.83484 18.0019 5.24902 18.002H18.748C19.1623 18.002 19.498 17.6662 19.498 17.252C19.4979 16.8379 19.1622 16.502 18.748 16.502H5.99902V6.75195C5.99889 6.33785 5.66316 6.00195 5.24902 6.00195ZM9.44922 7.49805C9.03522 7.49821 8.69935 7.83404 8.69922 8.24805V9.00098H7.4668C7.05281 9.00101 6.71711 9.33705 6.7168 9.75098C6.7168 10.1652 7.05261 10.5009 7.4668 10.501H8.69922V14.2539C8.69922 14.668 9.03514 15.0037 9.44922 15.0039C9.86343 15.0039 10.1992 14.6681 10.1992 14.2539V13.9531H10.9492C11.3634 13.9531 11.6991 13.6173 11.6992 13.2031C11.6991 12.789 11.3634 12.4531 10.9492 12.4531H10.1992V8.24805C10.1991 7.83395 9.86335 7.49805 9.44922 7.49805ZM16.1182 8.08691C15.7041 8.08695 15.3683 8.42283 15.3682 8.83691V10.9521H14.6182C14.2042 10.9523 13.8684 11.2882 13.8682 11.7021C13.8682 12.1163 14.2041 12.452 14.6182 12.4521H15.3682V13.2031C15.3683 13.6172 15.704 13.9531 16.1182 13.9531C16.5323 13.9531 16.8681 13.6172 16.8682 13.2031V11.1016H17.6182C18.0324 11.1016 18.3682 10.7658 18.3682 10.3516C18.368 9.93748 18.0323 9.60156 17.6182 9.60156H16.8682V8.83691C16.868 8.42282 16.5323 8.08693 16.1182 8.08691Z" fill="black"/>
</svg>
