<svg width="24" height="24" viewBox="0 0 24 24" fill="none" xmlns="http://www.w3.org/2000/svg">
<path d="M11.249 15.184V21.3096C11.2493 21.3627 11.2384 21.4152 11.2169 21.4638C11.1954 21.5123 11.1639 21.5558 11.1243 21.5912C11.0848 21.6267 11.0382 21.6533 10.9876 21.6694C10.937 21.6855 10.8836 21.6907 10.8308 21.6846C9.09783 21.4717 7.45346 20.7987 6.0686 19.7353C4.68374 18.6719 3.60894 17.257 2.9559 15.6377C2.93638 15.5885 2.9275 15.5357 2.92986 15.4828C2.93222 15.4299 2.94576 15.3781 2.96958 15.3308C2.99341 15.2835 3.02698 15.2418 3.06809 15.2084C3.10919 15.175 3.15691 15.1507 3.20808 15.1371L9.12272 13.549C9.19844 13.5291 9.27847 13.5335 9.35161 13.5614C9.42474 13.5893 9.48731 13.6394 9.53053 13.7046C9.88865 14.2227 10.3996 14.616 10.9921 14.8296C11.0666 14.8544 11.1315 14.9019 11.1776 14.9654C11.2237 15.029 11.2486 15.1055 11.249 15.184ZM12.0046 2.25222C11.9056 2.25148 11.8075 2.27033 11.7158 2.30769C11.6242 2.34504 11.5409 2.40017 11.4706 2.46989C11.4004 2.53961 11.3446 2.62253 11.3066 2.7139C11.2685 2.80526 11.249 2.90325 11.249 3.00221V8.25217C11.2475 8.44943 11.3243 8.63922 11.4627 8.77985C11.601 8.92047 11.7895 9.00043 11.9868 9.00217C12.6951 8.99911 13.3816 9.24678 13.9249 9.70133C14.4681 10.1559 14.833 10.788 14.9549 11.4857C15.0768 12.1835 14.9479 12.9019 14.591 13.5137C14.2341 14.1255 13.6723 14.5914 13.0049 14.8287C12.9304 14.8536 12.8656 14.9014 12.8197 14.9651C12.7737 15.0289 12.749 15.1054 12.7489 15.184V21.3096C12.7486 21.3626 12.7595 21.4151 12.7809 21.4635C12.8024 21.512 12.8338 21.5554 12.8733 21.5908C12.9127 21.6263 12.9592 21.653 13.0096 21.6691C13.0601 21.6853 13.1135 21.6905 13.1661 21.6846C15.6369 21.3923 17.9024 20.1666 19.4989 18.2584C21.0954 16.3502 21.902 13.9039 21.7535 11.4204C21.6051 8.93684 20.5128 6.60402 18.7004 4.89957C16.888 3.19513 14.4925 2.24804 12.0046 2.25222ZM9.0046 11.7668C9.0395 11.3238 9.17239 10.8941 9.39366 10.5087V10.5022C9.46798 10.3738 9.50256 10.2263 9.49305 10.0783C9.48354 9.93026 9.43036 9.78839 9.34022 9.6706C9.27717 9.58957 9.19881 9.52173 9.1096 9.47091L4.5787 6.85156C4.49333 6.80233 4.3991 6.77041 4.30139 6.75762C4.20367 6.74484 4.1044 6.75143 4.00924 6.77702C3.91408 6.80262 3.82489 6.84672 3.74678 6.9068C3.66867 6.96689 3.60317 7.04177 3.55402 7.12718C2.46288 9.01695 2.03643 11.2178 2.34278 13.3784C2.35 13.4311 2.36838 13.4817 2.39667 13.5268C2.42496 13.5719 2.46252 13.6104 2.50687 13.6399C2.55121 13.6693 2.60131 13.689 2.65383 13.6975C2.70636 13.7061 2.76012 13.7034 2.81152 13.6896L8.73835 12.0959C8.8118 12.0756 8.87718 12.0331 8.92552 11.9742C8.97385 11.9153 9.00279 11.8428 9.00835 11.7668H9.0046Z" fill="black"/>
</svg>
