<svg width="24" height="24" viewBox="0 0 24 24" fill="none" xmlns="http://www.w3.org/2000/svg">
<path fill-rule="evenodd" clip-rule="evenodd" d="M20.25 3.75C20.6478 3.75 21.0292 3.90815 21.3105 4.18945C21.5919 4.47076 21.75 4.85218 21.75 5.25V18.75C21.75 19.1478 21.5919 19.5292 21.3105 19.8105C21.0292 20.0919 20.6478 20.25 20.25 20.25H3.75C3.35218 20.25 2.97076 20.0919 2.68945 19.8105C2.40815 19.5292 2.25 19.1478 2.25 18.75V5.25C2.25 4.85218 2.40815 4.47076 2.68945 4.18945C2.97076 3.90815 3.35218 3.75 3.75 3.75H20.25ZM5.24902 6.00195C4.83481 6.00195 4.49902 6.33774 4.49902 6.75195V17.252C4.49916 17.6661 4.83489 18.002 5.24902 18.002H18.748C19.1622 18.002 19.4979 17.6661 19.498 17.252C19.498 16.8377 19.1623 16.502 18.748 16.502H5.99902V6.75195C5.99902 6.33774 5.66324 6.00195 5.24902 6.00195ZM12.8018 7.03027C12.1654 7.06252 11.4515 7.16071 10.8311 7.41113C10.2073 7.66297 9.58409 8.11052 9.3291 8.88574C9.19685 9.28818 9.19734 9.69166 9.34766 10.0684C9.49128 10.428 9.74472 10.6962 10 10.8955C10.365 11.1804 10.8411 11.4038 11.2832 11.5898L12.1348 11.9395C12.5319 12.1075 12.8433 12.2585 13.0576 12.4258C13.1884 12.5279 13.2286 12.5968 13.2402 12.626C13.2452 12.6383 13.262 12.6764 13.2266 12.7842C13.1606 12.9844 12.9831 13.1774 12.5879 13.3369C12.1893 13.4977 11.6643 13.5819 11.1025 13.6104C10.5497 13.6383 10.0078 13.6106 9.59961 13.5742C9.39682 13.5562 9.22999 13.5366 9.11523 13.5215C9.05797 13.514 9.01338 13.5072 8.98438 13.5029C8.97022 13.5008 8.95971 13.4991 8.95312 13.498C8.95 13.4976 8.94629 13.4971 8.94629 13.4971C8.53753 13.4301 8.15096 13.7074 8.08398 14.1162C8.01745 14.5247 8.29461 14.9106 8.70312 14.9775H8.70508L8.70898 14.9785C8.71193 14.979 8.71586 14.9797 8.7207 14.9805C8.73102 14.9821 8.74625 14.9836 8.76465 14.9863C8.80143 14.9918 8.8539 14.9991 8.91992 15.0078C9.05229 15.0252 9.24027 15.0482 9.4668 15.0684C9.91722 15.1085 10.5334 15.1411 11.1787 15.1084C11.8151 15.0762 12.5289 14.9779 13.1494 14.7275C13.7732 14.4758 14.3963 14.0282 14.6514 13.2529C14.7838 12.8503 14.7842 12.4462 14.6338 12.0693C14.4902 11.7097 14.2357 11.4425 13.9805 11.2432C13.6155 10.9583 13.1401 10.7347 12.6982 10.5488L11.8467 10.1992C11.4493 10.0311 11.1373 9.88024 10.9229 9.71289C10.7924 9.61101 10.752 9.54201 10.7402 9.5127C10.7354 9.50065 10.7193 9.46276 10.7549 9.35449C10.8208 9.15423 10.9974 8.96131 11.3926 8.80176C11.7912 8.64086 12.316 8.55678 12.8779 8.52832C13.4308 8.50033 13.9727 8.52813 14.3809 8.56445C14.5835 8.58249 14.7505 8.60212 14.8652 8.61719C14.9225 8.62471 14.9671 8.63143 14.9961 8.63574C15.0105 8.63789 15.0217 8.63959 15.0283 8.64062L15.0352 8.6416C15.4438 8.70854 15.8294 8.43108 15.8965 8.02246C15.9633 7.61392 15.6868 7.22826 15.2783 7.16113H15.2754L15.2725 7.16016C15.2694 7.15967 15.2649 7.15901 15.2598 7.1582C15.2495 7.1566 15.235 7.15505 15.2168 7.15234C15.18 7.14687 15.1268 7.13858 15.0605 7.12988C14.9283 7.11251 14.7408 7.09045 14.5146 7.07031C14.0642 7.03021 13.4472 6.99759 12.8018 7.03027Z" fill="black"/>
</svg>
