<svg viewBox="0 0 24 24" fill="none" xmlns="http://www.w3.org/2000/svg" width="24" height="24">
<path fill-rule="evenodd" clip-rule="evenodd" d="M20.91 3.09C21.339 3.09 21.752 3.261 22.056 3.565 22.359 3.869 22.53 4.28 22.53 4.71V19.29C22.53 19.72 22.36 20.133 22.056 20.436 21.752 20.74 21.339 20.91 20.91 20.91H3.09C2.661 20.91 2.248 20.74 1.944 20.436 1.64 20.133 1.47 19.72 1.47 19.29V4.71C1.47 4.28 1.641 3.869 1.944 3.565 2.248 3.261 2.661 3.09 3.09 3.09H20.91ZM4.712 4.697C4.265 4.697 3.902 5.059 3.902 5.507V17.665C3.903 18.112 4.265 18.475 4.712 18.475H19.302C19.749 18.474 20.111 18.112 20.112 17.665 20.112 17.218 19.749 16.855 19.302 16.855H5.522V14.721L9.606 12.132 14.052 14.548C14.369 14.72 14.762 14.662 15.015 14.405L19.881 9.462C20.194 9.143 20.19 8.629 19.872 8.316 19.553 8.002 19.039 8.007 18.725 8.325L14.289 12.832 9.962 10.482C9.736 10.36 9.468 10.353 9.238 10.458L9.142 10.511 5.522 12.804V6.315H19.302C19.749 6.315 20.112 5.953 20.112 5.505 20.112 5.058 19.749 4.696 19.302 4.696L4.712 4.697Z" fill="black"/>
</svg>