<svg width="24" height="24" viewBox="0 0 24 24" fill="none" xmlns="http://www.w3.org/2000/svg">
<path d="M8.77637 13.9736C8.91944 13.9738 9.03516 14.0903 9.03516 14.2334C9.03495 14.3763 8.91931 14.492 8.77637 14.4922C8.63325 14.4922 8.51681 14.3765 8.5166 14.2334C8.5166 14.0901 8.63312 13.9736 8.77637 13.9736Z" fill="black"/>
<path d="M13.9873 12.7539C14.1304 12.7541 14.2461 12.8706 14.2461 13.0137C14.2457 13.1564 14.1301 13.2723 13.9873 13.2725C13.8443 13.2724 13.7279 13.1566 13.7275 13.0137C13.7275 12.8704 13.8441 12.7539 13.9873 12.7539Z" fill="black"/>
<path d="M9.99512 8.80469C10.138 8.80507 10.2539 8.92144 10.2539 9.06445C10.2537 9.20728 10.1379 9.32286 9.99512 9.32324C9.85201 9.32324 9.73558 9.20751 9.73535 9.06445C9.73535 8.9212 9.85187 8.80469 9.99512 8.80469Z" fill="black"/>
<path d="M15.2793 7.51367C15.3998 7.53609 15.4912 7.64253 15.4912 7.76953C15.491 7.91247 15.3754 8.02811 15.2324 8.02832C15.0893 8.02832 14.9729 7.9126 14.9727 7.76953C14.9727 7.62628 15.0892 7.50977 15.2324 7.50977C15.2484 7.50979 15.2641 7.51087 15.2793 7.51367Z" fill="black"/>
<path fill-rule="evenodd" clip-rule="evenodd" d="M19.4248 4.5752C19.7828 4.5752 20.1267 4.71753 20.3799 4.9707C20.6329 5.22377 20.7753 5.56697 20.7754 5.9248V18.0752C20.7754 18.4332 20.6331 18.7771 20.3799 19.0303C20.1267 19.2834 19.7828 19.4248 19.4248 19.4248H4.5752C4.21718 19.4248 3.87329 19.2834 3.62012 19.0303C3.36694 18.7771 3.22461 18.4332 3.22461 18.0752V5.9248C3.22471 5.56702 3.36719 5.22376 3.62012 4.9707C3.87329 4.71753 4.21715 4.5752 4.5752 4.5752H19.4248ZM5.92676 5.91309C5.55397 5.91309 5.25195 6.2151 5.25195 6.58789V16.7197C5.25208 17.0924 5.55404 17.3945 5.92676 17.3945H18.085C18.4573 17.3941 18.7596 17.0922 18.7598 16.7197C18.7598 16.3472 18.4574 16.0453 18.085 16.0449H6.60156V6.58789C6.60156 6.21526 6.29933 5.91335 5.92676 5.91309ZM15.2324 6.50977C14.8347 6.50977 14.4799 6.69435 14.249 6.98242C13.8394 6.95525 13.3456 6.94097 12.835 6.9668C12.1889 6.99951 11.4703 7.09833 10.8496 7.34863C10.5734 7.46007 10.2993 7.60967 10.0586 7.80664C10.0376 7.80558 10.0164 7.8047 9.99512 7.80469C9.29958 7.80469 8.73535 8.36892 8.73535 9.06445C8.73552 9.59648 9.0656 10.0511 9.53223 10.2354C9.66854 10.4447 9.84348 10.615 10.0215 10.7539C10.4928 11.1216 11.1521 11.3895 11.6973 11.6104L11.7461 11.6299C12.2734 11.8437 12.7045 12.0229 13.0088 12.2197C12.8329 12.4364 12.7275 12.713 12.7275 13.0137C12.7276 13.1304 12.7436 13.2434 12.7734 13.3506C12.7335 13.3696 12.6912 13.3882 12.6465 13.4062C12.2252 13.5762 11.676 13.664 11.0967 13.6934C10.6776 13.7145 10.265 13.7051 9.90918 13.6836C9.70508 13.2637 9.27448 12.9738 8.77637 12.9736C8.08083 12.9736 7.5166 13.5379 7.5166 14.2334C7.51681 14.9288 8.08096 15.4922 8.77637 15.4922C9.1709 15.4921 9.52313 15.3104 9.75391 15.0264C10.1632 15.0533 10.6563 15.0678 11.166 15.042C11.8122 15.0093 12.5306 14.9096 13.1514 14.6592C13.3969 14.5601 13.6403 14.4313 13.8604 14.2656C13.9021 14.2698 13.9445 14.2725 13.9873 14.2725C14.6824 14.2723 15.2457 13.7087 15.2461 13.0137C15.2461 12.5128 14.9536 12.08 14.5303 11.877C14.3875 11.6189 14.1851 11.4141 13.9785 11.2529C13.5102 10.8877 12.8555 10.6232 12.3125 10.4033L12.2539 10.3789C11.7394 10.1703 11.3164 9.99417 11.0137 9.80273C11.1643 9.5953 11.2538 9.34042 11.2539 9.06445C11.2539 8.9281 11.2315 8.79683 11.1914 8.67383C11.2416 8.64876 11.2965 8.624 11.3545 8.60059C11.7757 8.43078 12.3244 8.34475 12.9033 8.31543C13.3268 8.29402 13.7441 8.30417 14.1025 8.32617C14.3082 8.74218 14.7369 9.02832 15.2324 9.02832C15.9276 9.02811 16.491 8.46476 16.4912 7.76953C16.4912 7.07413 15.9278 6.50998 15.2324 6.50977Z" fill="black"/>
</svg>
