<svg viewBox="0 0 24 24" fill="none" xmlns="http://www.w3.org/2000/svg" width="24" height="24">
<path d="M1.47 3.9C1.47 3.453 1.833 3.09 2.28 3.09 2.727 3.09 3.09 3.453 3.09 3.9V19.29H21.72C22.167 19.29 22.53 19.653 22.53 20.1 22.53 20.547 22.167 20.91 21.72 20.91H2.28C1.833 20.91 1.47 20.547 1.47 20.1V3.9Z" fill="black"/>
<path d="M7.519 5.52V6.318H5.089C4.642 6.318 4.279 6.681 4.279 7.128 4.279 7.575 4.642 7.938 5.089 7.938H7.519V17.28C7.519 17.727 7.881 18.091 8.329 18.091 8.776 18.091 9.138 17.727 9.138 17.28V14.859H11.569C12.016 14.859 12.378 14.496 12.378 14.049 12.378 13.602 12.016 13.239 11.569 13.239H9.138V5.52C9.138 5.073 8.776 4.71 8.329 4.71 7.881 4.71 7.519 5.073 7.519 5.52Z" fill="black"/>
<path d="M16.066 5.521C16.066 5.073 16.428 4.71 16.875 4.71 17.323 4.71 17.685 5.073 17.685 5.521V7.928H20.116C20.563 7.928 20.925 8.29 20.925 8.738 20.925 9.185 20.563 9.547 20.116 9.547H17.685L17.685 15.397C17.685 15.845 17.323 16.207 16.875 16.207 16.428 16.207 16.066 15.845 16.066 15.397V12.974H13.636C13.188 12.974 12.826 12.612 12.826 12.164 12.826 11.717 13.188 11.354 13.636 11.354H16.066L16.066 5.521Z" fill="black"/>
</svg>