<svg viewBox="0 0 24 24" fill="none" xmlns="http://www.w3.org/2000/svg" width="24" height="24">
<path d="M13.949 10.38C14.255 10.61 14.68 10.594 14.968 10.342L18.506 7.246V7.62L14.224 12.359 9.547 10.314C9.274 10.194 8.961 10.236 8.729 10.413L8.636 10.498 5.528 13.76V10.67L9.593 7.113 13.949 10.38Z" fill="black"/>
<path fill-rule="evenodd" clip-rule="evenodd" d="M20.91 3.09C21.339 3.09 21.752 3.261 22.056 3.565 22.359 3.869 22.53 4.28 22.53 4.71V19.29C22.53 19.72 22.36 20.133 22.056 20.436 21.752 20.74 21.339 20.91 20.91 20.91H3.09C2.661 20.91 2.248 20.74 1.944 20.436 1.64 20.133 1.47 19.72 1.47 19.29V4.71C1.47 4.28 1.641 3.869 1.944 3.565 2.248 3.261 2.661 3.09 3.09 3.09H20.91ZM19.27 4.655C19.24 4.656 19.21 4.659 19.18 4.664 19.155 4.668 19.131 4.675 19.107 4.682 19.083 4.688 19.059 4.694 19.035 4.703 19.007 4.713 18.98 4.726 18.954 4.739 18.933 4.75 18.912 4.761 18.892 4.773 18.867 4.788 18.844 4.805 18.822 4.822 18.809 4.832 18.795 4.841 18.783 4.852L14.395 8.689 10.039 5.423C9.733 5.194 9.308 5.209 9.02 5.461L5.528 8.516V6.325C5.528 5.878 5.165 5.515 4.718 5.515 4.271 5.515 3.908 5.878 3.908 6.325V10.084C3.851 10.253 3.849 10.437 3.908 10.608V15.568C3.849 15.738 3.851 15.921 3.908 16.091V17.665C3.909 18.111 4.271 18.475 4.718 18.475H19.302L19.308 18.473C19.311 18.474 19.313 18.475 19.316 18.475 19.763 18.475 20.125 18.112 20.126 17.665V5.461C20.126 5.446 20.122 5.43 20.121 5.415 20.119 5.385 20.117 5.355 20.112 5.325 20.108 5.3 20.102 5.276 20.095 5.252 20.089 5.228 20.082 5.204 20.073 5.18 20.063 5.152 20.05 5.125 20.037 5.099 20.026 5.078 20.015 5.057 20.003 5.037 19.987 5.011 19.97 4.988 19.951 4.964 19.942 4.952 19.935 4.939 19.925 4.928 19.92 4.922 19.913 4.917 19.908 4.911 19.887 4.889 19.864 4.868 19.841 4.848 19.823 4.832 19.805 4.816 19.786 4.802 19.764 4.787 19.741 4.775 19.718 4.761 19.695 4.748 19.674 4.734 19.65 4.724 19.625 4.713 19.599 4.704 19.573 4.696 19.55 4.688 19.527 4.68 19.503 4.675 19.476 4.668 19.449 4.664 19.42 4.661 19.395 4.657 19.37 4.654 19.344 4.654 19.335 4.653 19.325 4.651 19.316 4.651 19.301 4.651 19.285 4.654 19.27 4.655Z" fill="black"/>
</svg>