<svg viewBox="0 0 24 24" fill="none" xmlns="http://www.w3.org/2000/svg" width="24" height="24">
<path d="M20.91 3.09H3.09C2.66 3.09 2.248 3.261 1.945 3.565 1.641 3.869 1.47 4.281 1.47 4.71V19.29C1.47 19.72 1.641 20.132 1.945 20.436 2.248 20.74 2.66 20.91 3.09 20.91H20.91C21.34 20.91 21.752 20.74 22.056 20.436 22.359 20.132 22.53 19.72 22.53 19.29V4.71C22.53 4.281 22.359 3.869 22.056 3.565 21.752 3.261 21.34 3.09 20.91 3.09Z" fill="black"/>
<path d="M3.902 5.505C3.902 5.058 4.264 4.696 4.712 4.696 5.159 4.696 5.521 5.058 5.521 5.505V16.854H19.301C19.749 16.854 20.111 17.216 20.111 17.664 20.111 18.111 19.749 18.473 19.301 18.473H4.712C4.264 18.473 3.902 18.111 3.902 17.664V5.505Z" fill="white"/>
<path fill-rule="evenodd" clip-rule="evenodd" d="M17.389 6.924C17.389 7.758 16.713 8.434 15.879 8.434 15.465 8.434 15.09 8.268 14.817 7.999 14.632 8.04 14.431 8.086 14.216 8.135 13.39 8.323 12.362 8.565 11.266 8.842L14.147 11.723C14.224 11.711 14.304 11.705 14.385 11.705 15.219 11.705 15.895 12.382 15.895 13.216 15.895 14.051 15.219 14.727 14.385 14.727 13.99 14.727 13.63 14.575 13.36 14.327 12.159 14.633 11.077 14.887 10.231 15.079 9.978 15.137 9.746 15.189 9.537 15.235 9.316 15.795 8.77 16.191 8.132 16.191 7.297 16.191 6.62 15.515 6.62 14.68 6.62 13.846 7.297 13.169 8.132 13.169 8.565 13.169 8.955 13.351 9.23 13.643 9.425 13.6 9.639 13.552 9.872 13.499 10.695 13.313 11.741 13.066 12.903 12.77L10.051 9.918C9.907 9.963 9.753 9.988 9.594 9.988 8.759 9.988 8.082 9.312 8.082 8.478 8.082 7.643 8.759 6.966 9.594 6.966 9.976 6.966 10.325 7.108 10.591 7.342 11.807 7.031 12.952 6.76 13.856 6.554 14.069 6.506 14.269 6.461 14.453 6.42 14.661 5.833 15.221 5.412 15.879 5.412 16.713 5.412 17.389 6.089 17.389 6.924ZM16.189 6.924C16.189 6.752 16.051 6.612 15.879 6.612 15.707 6.612 15.567 6.752 15.567 6.924 15.567 7.095 15.707 7.234 15.879 7.234 16.05 7.234 16.189 7.095 16.189 6.924ZM8.132 14.369C8.303 14.369 8.442 14.509 8.442 14.68 8.442 14.852 8.303 14.991 8.132 14.991 7.96 14.991 7.82 14.852 7.82 14.68 7.82 14.508 7.96 14.369 8.132 14.369ZM14.695 13.216C14.695 13.044 14.556 12.905 14.385 12.905 14.213 12.905 14.073 13.044 14.073 13.216 14.073 13.388 14.213 13.527 14.385 13.527 14.556 13.527 14.695 13.388 14.695 13.216ZM9.904 8.478C9.904 8.306 9.765 8.166 9.594 8.166 9.422 8.166 9.282 8.306 9.282 8.478 9.282 8.649 9.422 8.788 9.594 8.788 9.765 8.788 9.904 8.649 9.904 8.478Z" fill="white"/>
</svg>