<svg width="24" height="24" viewBox="0 0 24 24" fill="none" xmlns="http://www.w3.org/2000/svg">
<path d="M7.0752 12.6211L6.00098 13.749V11.2354L7.0752 12.6211Z" fill="black"/>
<path d="M14.4268 12.1895L13.6553 13.4219L12.2852 12.5361L13.4658 11.1885L14.4268 12.1895Z" fill="black"/>
<path fill-rule="evenodd" clip-rule="evenodd" d="M20.25 3.75C20.6478 3.75 21.0292 3.90819 21.3105 4.18945C21.5919 4.47076 21.75 4.85218 21.75 5.25V18.75C21.75 19.1478 21.5919 19.5292 21.3105 19.8105C21.0292 20.0918 20.6478 20.25 20.25 20.25H3.75C3.35222 20.25 2.97073 20.0918 2.68945 19.8105C2.40819 19.5292 2.25 19.1478 2.25 18.75V5.25C2.25 4.8522 2.40819 4.47075 2.68945 4.18945C2.97073 3.90818 3.35222 3.75003 3.75 3.75H20.25ZM5.25098 5.24902C4.83676 5.24902 4.50098 5.58481 4.50098 5.99902V17.248C4.5012 17.6621 4.8369 17.998 5.25098 17.998H18.75C19.1637 17.9976 19.4998 17.6618 19.5 17.248C19.5 17.2351 19.4987 17.2218 19.498 17.209V6.69727C19.498 6.36292 19.2763 6.06902 18.9551 5.97656C18.6336 5.88434 18.2897 6.01629 18.1123 6.2998L15.2471 10.8779L13.9814 9.55957C13.836 9.40806 13.6328 9.3244 13.4229 9.3291C13.239 9.33335 13.0643 9.40554 12.9307 9.5293L12.876 9.58496L11.0117 11.7139L9.63184 10.8223C9.36701 10.6513 9.02817 10.6665 8.78125 10.8477L8.68164 10.9355L8.38965 11.2422L8.12207 11.5225L6.00098 8.79004V5.99902C6.00098 5.58495 5.66499 5.24925 5.25098 5.24902Z" fill="black"/>
</svg>
