<svg width="24" height="24" viewBox="0 0 24 24" fill="none" xmlns="http://www.w3.org/2000/svg">
<path d="M7.37305 12.75C7.6928 14.738 9.262 16.3072 11.25 16.627V19.1982C7.85185 18.8483 5.15063 16.1482 4.80078 12.75H7.37305Z" fill="black"/>
<path d="M19.1992 12.75C18.8494 16.1481 16.1481 18.8483 12.75 19.1982V16.627C14.738 16.3072 16.3072 14.738 16.627 12.75H19.1992Z" fill="black"/>
<path d="M11.25 12.75V15.0977C10.0922 14.8183 9.18167 13.9078 8.90234 12.75H11.25Z" fill="black"/>
<path d="M15.0977 12.75C14.8183 13.9078 13.9078 14.8183 12.75 15.0977V12.75H15.0977Z" fill="black"/>
<path d="M11.25 7.37207C9.26192 7.69177 7.69281 9.26195 7.37305 11.25H4.80078C5.15072 7.85189 7.85187 5.15066 11.25 4.80078V7.37207Z" fill="black"/>
<path d="M11.25 11.25H8.90234C9.18168 10.0921 10.0921 9.18063 11.25 8.90137V11.25Z" fill="black"/>
<path d="M12.75 8.90137C13.9079 9.18063 14.8183 10.0921 15.0977 11.25H12.75V8.90137Z" fill="black"/>
<path d="M12.75 4.80078C16.1481 5.15068 18.8493 7.85189 19.1992 11.25H16.627C16.3072 9.26195 14.7381 7.69177 12.75 7.37207V4.80078Z" fill="black"/>
<path fill-rule="evenodd" clip-rule="evenodd" d="M12 1.5C17.799 1.5 22.5 6.20101 22.5 12C22.5 17.799 17.799 22.5 12 22.5C6.20101 22.5 1.5 17.799 1.5 12C1.5 6.20101 6.20101 1.5 12 1.5ZM12 3.2627C7.17457 3.2628 3.2628 7.17457 3.2627 12C3.2627 16.8255 7.1745 20.7372 12 20.7373C16.8255 20.7372 20.7373 16.8255 20.7373 12C20.7372 7.17454 16.8255 3.26276 12 3.2627Z" fill="black"/>
</svg>
