<svg viewBox="0 0 24 24" fill="none" xmlns="http://www.w3.org/2000/svg" width="24" height="24">
<path fill-rule="evenodd" clip-rule="evenodd" d="M12.841 1.797C13.245 2.068 13.511 2.529 13.511 3.053 13.511 3.588 13.232 4.059 12.812 4.327V4.757C14.454 4.943 15.984 5.681 17.152 6.849 18.32 8.018 19.058 9.548 19.243 11.19H19.67C19.939 10.768 20.41 10.488 20.947 10.488 21.472 10.488 21.934 10.755 22.204 11.161L22.219 11.155C22.271 11.132 22.318 11.098 22.356 11.055 22.395 11.013 22.423 10.962 22.441 10.908 22.458 10.853 22.464 10.795 22.457 10.738 22.171 8.4 21.111 6.224 19.444 4.558 17.778 2.891 15.602 1.831 13.264 1.545 13.207 1.538 13.149 1.544 13.094 1.561 13.04 1.579 12.989 1.607 12.947 1.646 12.904 1.684 12.87 1.731 12.847 1.783L12.841 1.797ZM11.161 1.796C10.756 2.067 10.489 2.529 10.489 3.053 10.489 3.589 10.769 4.06 11.19 4.328V4.757C9.548 4.942 8.017 5.68 6.849 6.849 5.68 8.017 4.942 9.548 4.757 11.19H4.334C4.066 10.768 3.594 10.488 3.058 10.488 2.533 10.488 2.07 10.755 1.799 11.162 1.794 11.16 1.789 11.158 1.783 11.155 1.731 11.132 1.684 11.098 1.646 11.055 1.607 11.013 1.579 10.962 1.561 10.908 1.544 10.853 1.538 10.795 1.545 10.738 1.831 8.4 2.891 6.224 4.558 4.558 6.224 2.891 8.4 1.831 10.738 1.545 10.795 1.538 10.853 1.544 10.907 1.561 10.962 1.578 11.012 1.607 11.055 1.645 11.097 1.683 11.131 1.73 11.155 1.782L11.161 1.796ZM1.801 12.839C1.795 12.842 1.789 12.844 1.783 12.847 1.731 12.87 1.684 12.904 1.646 12.947 1.607 12.989 1.579 13.04 1.561 13.094 1.544 13.149 1.538 13.207 1.545 13.264 1.831 15.602 2.891 17.778 4.558 19.444 6.224 21.111 8.4 22.171 10.738 22.457 10.795 22.464 10.853 22.458 10.908 22.441 10.962 22.423 11.013 22.395 11.055 22.356 11.098 22.318 11.132 22.271 11.155 22.219L11.162 22.204C10.756 21.933 10.489 21.471 10.489 20.947 10.489 20.411 10.769 19.939 11.19 19.671V19.243C9.548 19.058 8.018 18.32 6.849 17.152 5.681 15.984 4.943 14.454 4.757 12.812H4.331C4.063 13.232 3.593 13.51 3.058 13.51 2.534 13.51 2.072 13.244 1.801 12.839ZM12.838 22.204L12.845 22.219C12.868 22.271 12.902 22.318 12.945 22.356 12.987 22.395 13.038 22.423 13.092 22.441 13.147 22.458 13.205 22.464 13.262 22.457 15.6 22.171 17.776 21.111 19.442 19.444 21.108 17.778 22.169 15.602 22.455 13.264 22.462 13.207 22.457 13.149 22.44 13.094 22.422 13.039 22.394 12.989 22.356 12.946 22.318 12.903 22.271 12.869 22.218 12.845L22.203 12.839C21.932 13.243 21.471 13.51 20.947 13.51 20.411 13.51 19.94 13.231 19.671 12.81H19.243C19.057 14.452 18.32 15.983 17.151 17.151 15.983 18.32 14.452 19.057 12.81 19.243V19.671C13.231 19.939 13.511 20.411 13.511 20.947 13.511 21.471 13.244 21.933 12.838 22.204ZM16.007 16.007C15.142 16.872 14.021 17.435 12.81 17.611V12.81H17.611C17.435 14.021 16.872 15.142 16.007 16.007ZM16.007 7.993C16.872 8.858 17.435 9.979 17.611 11.19H12.81V6.389C14.021 6.565 15.142 7.128 16.007 7.993ZM7.993 7.993C8.858 7.128 9.979 6.565 11.19 6.389V11.19H6.389C6.565 9.979 7.128 8.858 7.993 7.993ZM7.993 16.007C7.128 15.142 6.565 14.021 6.389 12.81H11.19V17.611C9.979 17.435 8.858 16.872 7.993 16.007Z" fill="black"/>
<path fill-rule="evenodd" clip-rule="evenodd" d="M12.311 3.053C12.311 2.881 12.172 2.741 12 2.741 11.829 2.741 11.689 2.881 11.689 3.053 11.689 3.224 11.829 3.363 12 3.363 12.172 3.363 12.311 3.224 12.311 3.053Z" fill="black"/>
<path fill-rule="evenodd" clip-rule="evenodd" d="M3.368 11.999C3.368 11.828 3.229 11.688 3.058 11.688 2.886 11.688 2.746 11.828 2.746 11.999 2.746 12.171 2.886 12.31 3.058 12.31 3.229 12.31 3.368 12.171 3.368 11.999Z" fill="black"/>
<path fill-rule="evenodd" clip-rule="evenodd" d="M20.947 11.688C21.119 11.688 21.258 11.828 21.258 11.999 21.258 12.171 21.119 12.31 20.947 12.31 20.775 12.31 20.636 12.171 20.636 11.999 20.636 11.828 20.775 11.688 20.947 11.688Z" fill="black"/>
<path d="M12.311 20.947C12.311 20.775 12.172 20.636 12 20.635 11.829 20.635 11.689 20.775 11.689 20.947 11.689 21.119 11.829 21.258 12 21.258 12.172 21.257 12.311 21.119 12.311 20.947Z" fill="black"/>
</svg>