<svg width="24" height="24" viewBox="0 0 24 24" fill="none" xmlns="http://www.w3.org/2000/svg">
<path fill-rule="evenodd" clip-rule="evenodd" d="M20.25 3.75C20.6478 3.75 21.0292 3.90819 21.3105 4.18945C21.5919 4.47076 21.75 4.85218 21.75 5.25V18.75C21.75 19.1478 21.5919 19.5292 21.3105 19.8105C21.0292 20.0918 20.6478 20.25 20.25 20.25H3.75C3.35222 20.25 2.97073 20.0918 2.68945 19.8105C2.40819 19.5292 2.25 19.1478 2.25 18.75V5.25C2.25 4.8522 2.40819 4.47075 2.68945 4.18945C2.97073 3.90818 3.35222 3.75003 3.75 3.75H20.25ZM5.25 5.24902C4.83579 5.24902 4.5 5.58481 4.5 5.99902V17.248C4.50022 17.6621 4.83592 17.998 5.25 17.998H18.749C19.1629 17.9978 19.4988 17.6619 19.499 17.248C19.499 16.834 19.1631 16.4983 18.749 16.498H6V16.3574L9.77832 13.9629L13.8906 16.1973C14.1843 16.3567 14.5486 16.3024 14.7832 16.0645L19.2842 11.4912C19.5746 11.1961 19.5713 10.7212 19.2764 10.4307C18.9812 10.1401 18.5064 10.1442 18.2158 10.4395L14.1104 14.6084L10.1074 12.4346C9.89822 12.321 9.64934 12.3144 9.43652 12.4121L9.34766 12.4609L6 14.582V12.5049L9.78516 9.19238L13.7988 12.2021C14.0823 12.4147 14.4765 12.4002 14.7432 12.167L19.2422 8.22949C19.5537 7.95687 19.5858 7.4836 19.3135 7.17188C19.0408 6.86025 18.5666 6.82812 18.2549 7.10059L14.2119 10.6377L10.1992 7.62793C9.95125 7.44208 9.61912 7.42987 9.36133 7.58594L9.25586 7.66309L6 10.5117V5.99902C6 5.58481 5.66421 5.24902 5.25 5.24902Z" fill="black"/>
</svg>
