<svg width="24" height="24" viewBox="0 0 24 24" fill="none" xmlns="http://www.w3.org/2000/svg">
<path d="M3.90039 18.75V17.1514C3.90047 16.7786 4.20245 16.4766 4.5752 16.4766C4.94794 16.4766 5.24992 16.7786 5.25 17.1514V18.75H6.84863C7.22129 18.75 7.52323 19.0522 7.52344 19.4248C7.52344 19.7976 7.22142 20.1006 6.84863 20.1006H5.25C4.50451 20.1005 3.90039 19.4955 3.90039 18.75ZM13.5986 18.75C13.9713 18.75 14.2732 19.0522 14.2734 19.4248C14.2734 19.7976 13.9714 20.1006 13.5986 20.1006H10.4014C10.0286 20.1005 9.72656 19.7975 9.72656 19.4248C9.72677 19.0522 10.0288 18.7501 10.4014 18.75H13.5986ZM18.75 18.75V17.1514C18.7501 16.7788 19.0522 16.4768 19.4248 16.4766C19.7975 16.4766 20.1005 16.7786 20.1006 17.1514V18.75C20.1006 19.4956 19.4956 20.1006 18.75 20.1006H17.1514C16.7786 20.1005 16.4766 19.7975 16.4766 19.4248C16.4768 19.0522 16.7788 18.7501 17.1514 18.75H18.75ZM3.90039 13.5986V10.4014C3.90047 10.0286 4.20245 9.72656 4.5752 9.72656C4.94794 9.72656 5.24992 10.0286 5.25 10.4014V13.5986C5.25 13.9714 4.94799 14.2734 4.5752 14.2734C4.2024 14.2734 3.90039 13.9714 3.90039 13.5986ZM18.75 13.5986V10.4014C18.7501 10.0288 19.0522 9.72677 19.4248 9.72656C19.7975 9.72656 20.1005 10.0286 20.1006 10.4014V13.5986C20.1006 13.9714 19.7976 14.2734 19.4248 14.2734C19.0522 14.2732 18.75 13.9713 18.75 13.5986ZM3.90039 6.84863V5.25C3.9005 4.50457 4.50457 3.9005 5.25 3.90039H6.84863C7.22143 3.90039 7.52344 4.2024 7.52344 4.5752C7.52344 4.94799 7.22143 5.25 6.84863 5.25H5.25V6.84863C5.25 7.22142 4.94799 7.52344 4.5752 7.52344C4.2024 7.52344 3.90039 7.22142 3.90039 6.84863ZM18.75 6.84863V5.25H17.1514C16.7786 5.24992 16.4766 4.94794 16.4766 4.5752C16.4766 4.20245 16.7786 3.90047 17.1514 3.90039H18.75C19.4955 3.90039 20.1005 4.50451 20.1006 5.25V6.84863C20.1006 7.22143 19.7976 7.52344 19.4248 7.52344C19.0522 7.52323 18.75 7.22129 18.75 6.84863ZM13.5986 3.90039C13.9714 3.90039 14.2734 4.2024 14.2734 4.5752C14.2734 4.94799 13.9714 5.25 13.5986 5.25H10.4014C10.0286 5.24992 9.72656 4.94794 9.72656 4.5752C9.72656 4.20245 10.0286 3.90047 10.4014 3.90039H13.5986Z" fill="black"/>
</svg>
