<svg width="24" height="24" viewBox="0 0 24 24" fill="none" xmlns="http://www.w3.org/2000/svg">
<path d="M11.999 2.24976C10.0706 2.24976 8.18555 2.82158 6.58218 3.89291C4.97882 4.96425 3.72915 6.48698 2.9912 8.26855C2.25325 10.0501 2.06017 12.0105 2.43637 13.9018C2.81257 15.7931 3.74116 17.5304 5.10471 18.8939C6.46827 20.2575 8.20554 21.1861 10.0968 21.5623C11.9881 21.9385 13.9485 21.7454 15.7301 21.0074C17.5117 20.2695 19.0344 19.0198 20.1057 17.4164C21.1771 15.8131 21.7489 13.928 21.7489 11.9997C21.7461 9.41468 20.7181 6.93633 18.8902 5.10846C17.0623 3.28058 14.584 2.25249 11.999 2.24976ZM16.2795 10.2803L11.0296 15.5303C10.9599 15.6 10.8772 15.6553 10.7862 15.6931C10.6951 15.7308 10.5975 15.7502 10.499 15.7502C10.4004 15.7502 10.3028 15.7308 10.2118 15.6931C10.1207 15.6553 10.038 15.6 9.96834 15.5303L7.71836 13.2803C7.57763 13.1396 7.49857 12.9487 7.49857 12.7497C7.49857 12.5507 7.57763 12.3598 7.71836 12.2191C7.85909 12.0783 8.04996 11.9993 8.24898 11.9993C8.448 11.9993 8.63887 12.0783 8.7796 12.2191L10.499 13.9394L15.2183 9.21908C15.288 9.14939 15.3707 9.09412 15.4618 9.05641C15.5528 9.0187 15.6504 8.99929 15.7489 8.99929C15.8475 8.99929 15.9451 9.0187 16.0361 9.05641C16.1271 9.09412 16.2099 9.14939 16.2795 9.21908C16.3492 9.28876 16.4045 9.37148 16.4422 9.46253C16.4799 9.55357 16.4993 9.65115 16.4993 9.7497C16.4993 9.84824 16.4799 9.94582 16.4422 10.0369C16.4045 10.1279 16.3492 10.2106 16.2795 10.2803Z" fill="black"/>
</svg>
