<svg width="24" height="24" viewBox="0 0 24 24" fill="none" xmlns="http://www.w3.org/2000/svg">
<path fill-rule="evenodd" clip-rule="evenodd" d="M19.5 3C19.8978 3 20.2792 3.15815 20.5605 3.43945C20.8419 3.72076 21 4.10218 21 4.5V19.5C21 19.8978 20.8419 20.2792 20.5605 20.5605C20.2792 20.8419 19.8978 21 19.5 21H4.5C4.10218 21 3.72076 20.8419 3.43945 20.5605C3.15815 20.2792 3 19.8978 3 19.5V4.5C3 4.10218 3.15815 3.72076 3.43945 3.43945C3.72076 3.15815 4.10218 3 4.5 3H19.5ZM6 15.4131C5.58579 15.4131 5.25 15.7489 5.25 16.1631V17.4541C5.25 18.1696 5.83044 18.75 6.5459 18.75H7.83691C8.25113 18.75 8.58691 18.4142 8.58691 18C8.58691 17.5858 8.25113 17.25 7.83691 17.25H6.75V16.1631C6.75 15.7489 6.41421 15.4131 6 15.4131ZM10.708 17.25C10.2939 17.2501 9.95801 17.5858 9.95801 18C9.95801 18.4142 10.2939 18.7499 10.708 18.75H13.292C13.7061 18.7499 14.042 18.4142 14.042 18C14.042 17.5858 13.7061 17.2501 13.292 17.25H10.708ZM18 15.4131C17.5858 15.4131 17.25 15.7489 17.25 16.1631V17.25H16.1631C15.7489 17.25 15.4131 17.5858 15.4131 18C15.4131 18.4142 15.7489 18.75 16.1631 18.75H17.4541C18.1696 18.75 18.75 18.1696 18.75 17.4541V16.1631C18.75 15.7489 18.4142 15.4131 18 15.4131ZM6 9.95801C5.58583 9.95801 5.25007 10.2939 5.25 10.708V13.292C5.25007 13.7061 5.58583 14.042 6 14.042C6.41417 14.042 6.74993 13.7061 6.75 13.292V10.708C6.74993 10.2939 6.41417 9.95801 6 9.95801ZM18 9.95801C17.5858 9.95801 17.2501 10.2939 17.25 10.708V13.292C17.2501 13.7061 17.5858 14.042 18 14.042C18.4142 14.042 18.7499 13.7061 18.75 13.292V10.708C18.7499 10.2939 18.4142 9.95801 18 9.95801ZM6.5459 5.25C5.83044 5.25 5.25 5.83044 5.25 6.5459V7.83691C5.25 8.25113 5.58579 8.58691 6 8.58691C6.41421 8.58691 6.75 8.25113 6.75 7.83691V6.75H7.83691C8.25113 6.75 8.58691 6.41421 8.58691 6C8.58691 5.58579 8.25113 5.25 7.83691 5.25H6.5459ZM16.1631 5.25C15.7489 5.25 15.4131 5.58579 15.4131 6C15.4131 6.41421 15.7489 6.75 16.1631 6.75H17.25V7.83691C17.25 8.25113 17.5858 8.58691 18 8.58691C18.4142 8.58691 18.75 8.25113 18.75 7.83691V6.5459C18.75 5.83044 18.1696 5.25 17.4541 5.25H16.1631ZM10.708 5.25C10.2939 5.25007 9.95801 5.58583 9.95801 6C9.95801 6.41417 10.2939 6.74993 10.708 6.75H13.292C13.7061 6.74993 14.042 6.41417 14.042 6C14.042 5.58583 13.7061 5.25007 13.292 5.25H10.708Z" fill="black"/>
</svg>
