<svg width="24" height="24" viewBox="0 0 24 24" fill="none" xmlns="http://www.w3.org/2000/svg">
<path d="M20.0295 17.4678C20.1345 17.5727 20.2061 17.7064 20.2351 17.852C20.264 17.9975 20.2492 18.1484 20.1924 18.2855C20.1356 18.4227 20.0393 18.5398 19.9159 18.6222C19.7925 18.7046 19.6473 18.7486 19.4989 18.7484H4.49903C4.35061 18.7486 4.20549 18.7046 4.08205 18.6222C3.9586 18.5398 3.86238 18.4227 3.80557 18.2855C3.74875 18.1484 3.7339 17.9975 3.76289 17.852C3.79187 17.7064 3.8634 17.5727 3.96841 17.4678L11.4683 9.96788C11.538 9.89815 11.6207 9.84283 11.7118 9.80509C11.8028 9.76734 11.9004 9.74792 11.999 9.74792C12.0975 9.74792 12.1951 9.76734 12.2862 9.80509C12.3772 9.84283 12.4599 9.89815 12.5296 9.96788L20.0295 17.4678ZM4.49903 7.49852H19.4989C19.6978 7.49852 19.8886 7.41951 20.0292 7.27886C20.1699 7.1382 20.2489 6.94744 20.2489 6.74853C20.2489 6.54962 20.1699 6.35885 20.0292 6.2182C19.8886 6.07755 19.6978 5.99854 19.4989 5.99854H4.49903C4.30012 5.99854 4.10935 6.07755 3.9687 6.2182C3.82805 6.35885 3.74903 6.54962 3.74903 6.74853C3.74903 6.94744 3.82805 7.1382 3.9687 7.27886C4.10935 7.41951 4.30012 7.49852 4.49903 7.49852Z" fill="black"/>
</svg>
