<svg width="24" height="24" viewBox="0 0 24 24" fill="none" xmlns="http://www.w3.org/2000/svg">
<path d="M19.4989 12.0012H13.8093L20.0296 5.78184C20.1346 5.67695 20.2061 5.54326 20.2351 5.39769C20.2641 5.25213 20.2492 5.10124 20.1924 4.96412C20.1356 4.82701 20.0394 4.70983 19.9159 4.62743C19.7925 4.54503 19.6474 4.5011 19.4989 4.50122H4.49906C4.35064 4.5011 4.20552 4.54503 4.08208 4.62743C3.95863 4.70983 3.86241 4.82701 3.8056 4.96412C3.74878 5.10124 3.73393 5.25213 3.76292 5.39769C3.79191 5.54326 3.86343 5.67695 3.96844 5.78184L10.1887 12.0012H4.49906C4.35064 12.001 4.20552 12.045 4.08208 12.1274C3.95863 12.2098 3.86241 12.327 3.8056 12.4641C3.74878 12.6012 3.73393 12.7521 3.76292 12.8976C3.79191 13.0432 3.86343 13.1769 3.96844 13.2818L11.4684 20.7817C11.538 20.8515 11.6208 20.9068 11.7118 20.9445C11.8028 20.9823 11.9004 21.0017 11.999 21.0017C12.0976 21.0017 12.1952 20.9823 12.2862 20.9445C12.3773 20.9068 12.46 20.8515 12.5296 20.7817L20.0296 13.2818C20.1346 13.1769 20.2061 13.0432 20.2351 12.8976C20.2641 12.7521 20.2492 12.6012 20.1924 12.4641C20.1356 12.327 20.0394 12.2098 19.9159 12.1274C19.7925 12.045 19.6474 12.001 19.4989 12.0012Z" fill="black"/>
</svg>
