<svg width="24" height="24" viewBox="0 0 24 24" fill="none" xmlns="http://www.w3.org/2000/svg">
<path d="M3.96841 7.27964C3.8634 7.17475 3.79187 7.04106 3.76289 6.8955C3.7339 6.74993 3.74875 6.59904 3.80557 6.46193C3.86238 6.32481 3.9586 6.20763 4.08205 6.12523C4.20549 6.04283 4.35061 5.99891 4.49903 5.99902H19.4989C19.6473 5.99891 19.7925 6.04283 19.9159 6.12523C20.0393 6.20763 20.1356 6.32481 20.1924 6.46193C20.2492 6.59904 20.264 6.74993 20.2351 6.8955C20.2061 7.04106 20.1345 7.17475 20.0295 7.27964L12.5296 14.7796C12.4599 14.8493 12.3772 14.9046 12.2862 14.9424C12.1951 14.9801 12.0975 14.9995 11.999 14.9995C11.9004 14.9995 11.8028 14.9801 11.7118 14.9424C11.6207 14.9046 11.538 14.8493 11.4683 14.7796L3.96841 7.27964ZM19.4989 17.2489H4.49903C4.30012 17.2489 4.10935 17.328 3.9687 17.4686C3.82805 17.6093 3.74903 17.8 3.74903 17.9989C3.74903 18.1978 3.82805 18.3886 3.9687 18.5293C4.10935 18.6699 4.30012 18.7489 4.49903 18.7489H19.4989C19.6978 18.7489 19.8886 18.6699 20.0292 18.5293C20.1699 18.3886 20.2489 18.1978 20.2489 17.9989C20.2489 17.8 20.1699 17.6093 20.0292 17.4686C19.8886 17.328 19.6978 17.2489 19.4989 17.2489Z" fill="black"/>
</svg>
