<svg width="24" height="24" viewBox="0 0 24 24" fill="none" xmlns="http://www.w3.org/2000/svg">
<path d="M20.7795 11.4719L13.2795 3.97192C13.1746 3.86691 13.0409 3.79538 12.8954 3.7664C12.7498 3.73741 12.5989 3.75226 12.4618 3.80908C12.3247 3.86589 12.2075 3.96211 12.1251 4.08555C12.0427 4.209 11.9988 4.35412 11.9989 4.50254V10.1922L5.77958 3.97192C5.67469 3.86691 5.541 3.79538 5.39544 3.7664C5.24987 3.73741 5.09898 3.75226 4.96187 3.80908C4.82475 3.86589 4.70757 3.96211 4.62517 4.08555C4.54277 4.209 4.49885 4.35412 4.49896 4.50254V19.5024C4.49885 19.6508 4.54277 19.796 4.62517 19.9194C4.70757 20.0429 4.82475 20.1391 4.96187 20.1959C5.09898 20.2527 5.24987 20.2676 5.39544 20.2386C5.541 20.2096 5.67469 20.1381 5.77958 20.033L11.9989 13.8128V19.5024C11.9988 19.6508 12.0427 19.796 12.1251 19.9194C12.2075 20.0429 12.3247 20.1391 12.4618 20.1959C12.5989 20.2527 12.7498 20.2676 12.8954 20.2386C13.0409 20.2096 13.1746 20.1381 13.2795 20.033L20.7795 12.5331C20.8492 12.4634 20.9045 12.3807 20.9423 12.2897C20.98 12.1986 20.9994 12.101 20.9994 12.0025C20.9994 11.9039 20.98 11.8063 20.9423 11.7153C20.9045 11.6242 20.8492 11.5415 20.7795 11.4719Z" fill="black"/>
</svg>
