<svg width="24" height="24" viewBox="0 0 24 24" fill="none" xmlns="http://www.w3.org/2000/svg">
<path d="M18.7489 4.49863V19.4985C18.749 19.6469 18.7051 19.7921 18.6227 19.9155C18.5403 20.0389 18.4231 20.1352 18.286 20.192C18.1489 20.2488 17.998 20.2636 17.8524 20.2347C17.7068 20.2057 17.5732 20.1341 17.4683 20.0291L9.96832 12.5292C9.89859 12.4595 9.84327 12.3768 9.80553 12.2858C9.76779 12.1947 9.74836 12.0971 9.74836 11.9986C9.74836 11.9 9.76779 11.8024 9.80553 11.7114C9.84327 11.6203 9.89859 11.5376 9.96832 11.468L17.4683 3.96801C17.5732 3.863 17.7068 3.79148 17.8524 3.76249C17.998 3.7335 18.1489 3.74836 18.286 3.80517C18.4231 3.86198 18.5403 3.9582 18.6227 4.08165C18.7051 4.20509 18.749 4.35021 18.7489 4.49863ZM6.74897 3.74864C6.55006 3.74864 6.3593 3.82765 6.21865 3.96831C6.07799 4.10896 5.99898 4.29972 5.99898 4.49863V19.4985C5.99898 19.6974 6.07799 19.8882 6.21865 20.0288C6.3593 20.1695 6.55006 20.2485 6.74897 20.2485C6.94788 20.2485 7.13865 20.1695 7.2793 20.0288C7.41995 19.8882 7.49897 19.6974 7.49897 19.4985V4.49863C7.49897 4.29972 7.41995 4.10896 7.2793 3.96831C7.13865 3.82765 6.94788 3.74864 6.74897 3.74864Z" fill="black"/>
</svg>
