<svg width="24" height="24" viewBox="0 0 24 24" fill="none" xmlns="http://www.w3.org/2000/svg">
<path d="M17.5909 10.6231L18.0976 10.0701L18.0976 10.0701L17.5909 10.6231ZM20.9086 13.6632L21.4153 13.1103V13.1103L20.9086 13.6632ZM8.83608 4.63529L8.28312 4.1286L8.28267 4.12909L8.83608 4.63529ZM9.53696 5.01781C9.88553 4.79405 9.98671 4.33008 9.76294 3.98151C9.53918 3.63293 9.07521 3.53176 8.72664 3.75552L9.1318 4.38667L9.53696 5.01781ZM16.4418 20.759L16.9948 21.2657V21.2657L16.4418 20.759ZM14.3609 21.7293L14.3936 22.4786V22.4786L14.3609 21.7293ZM12.2032 20.944L12.7099 20.3911L12.2032 20.944ZM2.25 11.8236L1.69704 11.3169C1.4172 11.6223 1.43792 12.0967 1.74331 12.3765L2.25 11.8236ZM7.09613 7.64508C7.37597 7.33969 7.35525 6.86527 7.04986 6.58543C6.74447 6.3056 6.27005 6.32631 5.99021 6.6317L6.54317 7.13839L7.09613 7.64508ZM3.90881 13.344C3.62897 13.6494 3.64968 14.1238 3.95507 14.4036C4.26046 14.6835 4.73489 14.6628 5.01472 14.3574L4.46177 13.8507L3.90881 13.344ZM8.05488 11.0396C8.33472 10.7342 8.31401 10.2598 8.00862 9.97998C7.70323 9.70014 7.2288 9.72086 6.94896 10.0262L7.50192 10.5329L8.05488 11.0396ZM17.407 10.3632L18.0976 10.0705L18.0976 10.0705L17.407 10.3632ZM17.3478 10.0501L16.5981 10.0297V10.0297L17.3478 10.0501ZM17.6217 9.49076L17.1609 8.89902C17.1559 8.90296 17.1508 8.90697 17.1459 8.91104L17.6217 9.49076ZM21.1377 6.75275L21.5985 7.34449C21.6316 7.31876 21.6624 7.29031 21.6907 7.25944L21.1377 6.75275ZM21.7267 5.13452L20.9774 5.16724V5.16724L21.7267 5.13452ZM19.3807 2.98481L19.4134 3.7341V3.7341L19.3807 2.98481ZM17.82 3.71259L17.267 3.2059C17.2387 3.23677 17.2131 3.26996 17.1903 3.30511L17.82 3.71259ZM15.3988 7.45386L16.0178 7.87736C16.0214 7.87207 16.025 7.86672 16.0285 7.86134L15.3988 7.45386ZM14.8655 7.77544L14.7799 7.03035L14.7799 7.03035L14.8655 7.77544ZM14.5485 7.74376L14.317 8.45717L14.317 8.45717L14.5485 7.74376ZM14.2731 7.5833L14.7799 7.03035L14.7798 7.03034L14.2731 7.5833ZM10.9554 4.54314L11.4621 3.99018V3.99018L10.9554 4.54314ZM9.87658 4.15048L9.84387 3.4012L9.84387 3.4012L9.87658 4.15048ZM9.58059 4.19324L9.39986 3.46534L9.39986 3.46534L9.58059 4.19324ZM8.63158 4.85886L8.07817 4.35266C7.79873 4.65816 7.8197 5.13232 8.12503 5.41195L8.63158 4.85886ZM20.7999 16.0033L20.2934 16.5564C20.5988 16.8361 21.0731 16.8153 21.3529 16.51L20.7999 16.0033ZM21.0021 15.7827L21.555 16.2894V16.2894L21.0021 15.7827ZM21.3947 14.7039L20.6454 14.7366V14.7366L21.3947 14.7039ZM4.28305 3.91764C3.97754 3.63793 3.50313 3.65883 3.22342 3.96434C2.94371 4.26985 2.96462 4.74426 3.27012 5.02397L3.77659 4.4708L4.28305 3.91764ZM19.717 20.0822C20.0225 20.3619 20.4969 20.341 20.7766 20.0355C21.0563 19.73 21.0354 19.2556 20.7299 18.9759L20.2234 19.5291L19.717 20.0822ZM17.5909 10.6231L17.0842 11.176L20.4019 14.2162L20.9086 13.6632L21.4153 13.1103L18.0976 10.0701L17.5909 10.6231ZM8.83608 4.63529L9.38904 5.14198C9.43234 5.09473 9.48201 5.05309 9.53696 5.01781L9.1318 4.38667L8.72664 3.75552C8.56573 3.85882 8.4161 3.98348 8.28312 4.1286L8.83608 4.63529ZM18.2942 18.7375L17.7413 18.2308L15.8889 20.2523L16.4418 20.759L16.9948 21.2657L18.8472 19.2442L18.2942 18.7375ZM16.4418 20.759L15.8889 20.2523C15.4857 20.6922 14.9243 20.954 14.3282 20.9801L14.3609 21.7293L14.3936 22.4786C15.3872 22.4353 16.3229 21.9989 16.9948 21.2657L16.4418 20.759ZM14.3609 21.7293L14.3282 20.9801C13.732 21.0061 13.1499 20.7942 12.7099 20.3911L12.2032 20.944L11.6966 21.497C12.4298 22.1689 13.4 22.522 14.3936 22.4786L14.3609 21.7293ZM2.25 11.8236L2.80296 12.3303L7.09613 7.64508L6.54317 7.13839L5.99021 6.6317L1.69704 11.3169L2.25 11.8236ZM12.2032 20.944L12.7099 20.3911L2.75669 11.2706L2.25 11.8236L1.74331 12.3765L11.6966 21.497L12.2032 20.944ZM4.46177 13.8507L5.01472 14.3574L8.05488 11.0396L7.50192 10.5329L6.94896 10.0262L3.90881 13.344L4.46177 13.8507ZM17.5909 10.6231L18.0976 10.0701L18.0976 10.0705L17.407 10.3632L16.7165 10.6559C16.8008 10.8546 16.9265 11.0315 17.0842 11.176L17.5909 10.6231ZM17.407 10.3632L18.0976 10.0705V10.0705L17.3478 10.0501L16.5981 10.0297C16.5923 10.2445 16.6327 10.458 16.7165 10.6559L17.407 10.3632ZM17.3478 10.0501L18.0976 10.0705V10.0705L17.424 9.74065L16.7504 9.41081C16.6559 9.6038 16.604 9.81485 16.5981 10.0297L17.3478 10.0501ZM17.424 9.74065L18.0976 10.0705L18.0976 10.0705L17.6217 9.49076L17.1459 8.91104C16.9798 9.04738 16.8449 9.21782 16.7504 9.41081L17.424 9.74065ZM17.6217 9.49076L18.0825 10.0825L21.5985 7.34449L21.1377 6.75275L20.6769 6.161L17.1609 8.89902L17.6217 9.49076ZM21.1377 6.75275L21.6907 7.25944C22.2282 6.67282 22.5107 5.8967 22.476 5.10181L21.7267 5.13452L20.9774 5.16724C20.9948 5.56469 20.8536 5.95275 20.5848 6.24605L21.1377 6.75275ZM21.7267 5.13452L22.476 5.10181C22.4413 4.30692 22.0923 3.55837 21.5056 3.02084L20.9989 3.57379L20.4923 4.12675C20.7856 4.39552 20.9601 4.76979 20.9774 5.16724L21.7267 5.13452ZM20.9989 3.57379L21.5056 3.02084C20.919 2.4833 20.1429 2.20082 19.348 2.23552L19.3807 2.98481L19.4134 3.7341C19.8109 3.71674 20.1989 3.85799 20.4923 4.12675L20.9989 3.57379ZM19.3807 2.98481L19.348 2.23552C18.5531 2.27023 17.8046 2.61928 17.267 3.2059L17.82 3.71259L18.373 4.21928C18.6417 3.92597 19.016 3.75145 19.4134 3.7341L19.3807 2.98481ZM17.82 3.71259L17.1903 3.30511L14.7692 7.04638L15.3988 7.45386L16.0285 7.86134L18.4496 4.12007L17.82 3.71259ZM15.3988 7.45386L14.7799 7.03035L14.7799 7.03035L15.1671 7.67262L15.5544 8.31489C15.7384 8.20393 15.8965 8.05472 16.0178 7.87736L15.3988 7.45386ZM15.1671 7.67262L14.7799 7.03035L14.7799 7.03035L14.8655 7.77544L14.9512 8.52053C15.1647 8.49599 15.3704 8.42586 15.5544 8.31489L15.1671 7.67262ZM14.8655 7.77544L14.7799 7.03035V7.03035L14.5485 7.74376L14.317 8.45717C14.5215 8.52347 14.7377 8.54508 14.9512 8.52053L14.8655 7.77544ZM14.5485 7.74376L14.7799 7.03035L14.7799 7.03035L14.2731 7.5833L13.7664 8.13624C13.9249 8.28142 14.1126 8.39087 14.317 8.45717L14.5485 7.74376ZM14.2731 7.5833L14.7798 7.03034L11.4621 3.99018L10.9554 4.54314L10.4487 5.0961L13.7665 8.13625L14.2731 7.5833ZM10.9554 4.54314L11.4621 3.99018C11.0221 3.58703 10.44 3.37517 9.84387 3.4012L9.87658 4.15048L9.9093 4.89977C10.108 4.89109 10.3021 4.96172 10.4487 5.0961L10.9554 4.54314ZM9.87658 4.15048L9.84387 3.4012C9.69302 3.40778 9.54433 3.42948 9.39986 3.46534L9.58059 4.19324L9.76131 4.92115C9.80942 4.9092 9.85896 4.90197 9.9093 4.89977L9.87658 4.15048ZM9.58059 4.19324L9.39986 3.46534C8.97426 3.57101 8.58466 3.79953 8.28312 4.1286L8.83608 4.63529L9.38904 5.14198C9.48898 5.03291 9.61861 4.95657 9.76131 4.92114L9.58059 4.19324ZM8.83608 4.63529L8.28267 4.12909L8.07817 4.35266L8.63158 4.85886L9.18499 5.36507L9.38949 5.14149L8.83608 4.63529ZM20.7999 16.0033L21.3529 16.51L21.555 16.2894L21.0021 15.7827L20.4491 15.276L20.247 15.4966L20.7999 16.0033ZM21.0021 15.7827L21.555 16.2894C21.9582 15.8494 22.17 15.2673 22.144 14.6712L21.3947 14.7039L20.6454 14.7366C20.6541 14.9353 20.5835 15.1294 20.4491 15.276L21.0021 15.7827ZM21.3947 14.7039L22.144 14.6712C22.1179 14.074 21.8545 13.5127 21.4153 13.1103L20.9086 13.6632L20.4019 14.2162C20.5493 14.3513 20.6368 14.5389 20.6454 14.7366L21.3947 14.7039ZM8.63158 4.85886L8.12503 5.41195L20.2934 16.5564L20.7999 16.0033L21.3065 15.4502L9.13813 4.30577L8.63158 4.85886ZM3.77659 4.4708L3.27012 5.02397L19.717 20.0822L20.2234 19.5291L20.7299 18.9759L4.28305 3.91764L3.77659 4.4708Z" fill="black"/>
</svg>
