<svg width="24" height="24" viewBox="0 0 24 24" fill="none" xmlns="http://www.w3.org/2000/svg">
<path fill-rule="evenodd" clip-rule="evenodd" d="M4.28305 3.91711C3.97761 3.63758 3.50318 3.65873 3.22348 3.96398C2.94376 4.26949 2.96485 4.74384 3.27035 5.02355L5.55063 7.11144L1.69711 11.3165C1.41734 11.6218 1.43784 12.0962 1.74301 12.3761L11.6961 21.4972C12.4294 22.1691 13.3998 22.522 14.3934 22.4786C15.387 22.4352 16.323 21.999 16.995 21.2657L18.826 19.2667L19.7166 20.0821C20.0221 20.3618 20.4965 20.3407 20.7762 20.0353C21.0559 19.7298 21.0348 19.2554 20.7293 18.9757L4.28305 3.91711ZM4.41488 12.7902L3.30844 11.7765L6.65609 8.12316L17.7196 18.253L15.8885 20.2521C15.4854 20.692 14.9241 20.9536 14.328 20.9796C13.7318 21.0056 13.1498 20.7939 12.7098 20.3907L5.52133 13.8038L8.05453 11.0392C8.33429 10.7338 8.314 10.2594 8.00863 9.97961C7.70324 9.69979 7.22889 9.7211 6.94906 10.0265L4.41488 12.7902Z" fill="black"/>
<path fill-rule="evenodd" clip-rule="evenodd" d="M8.68246 3.78429C8.69468 3.77603 8.71405 3.76293 8.72641 3.755L8.68246 3.78429ZM8.41813 3.99395C8.41881 3.99338 8.41744 3.99452 8.41813 3.99395Z" fill="black"/>
<path d="M19.3475 2.23546C20.1424 2.20076 20.9191 2.48309 21.5057 3.02062C22.0923 3.55814 22.4407 4.30683 22.4754 5.10168C22.5101 5.89653 22.2278 6.6723 21.6903 7.2589C21.662 7.28977 21.6315 7.31911 21.5985 7.34484L18.0975 10.0704L21.4149 13.1105C21.8541 13.5129 22.1173 14.0738 22.1434 14.671C22.1694 15.2672 21.9577 15.8492 21.5545 16.2892L21.3524 16.5099C21.0726 16.815 20.5982 16.8354 20.2928 16.5558L8.12484 5.41222C7.81955 5.13261 7.79861 4.65816 8.07797 4.35265L8.28207 4.12902L8.29672 4.11437C8.32889 4.07988 8.36135 4.04591 8.39535 4.01379C8.402 4.0075 8.40901 4.00161 8.41601 3.99572C8.42155 3.99108 8.42711 3.9864 8.43246 3.98156L8.44126 3.9736C8.46506 3.95204 8.4888 3.93054 8.51352 3.91027C8.52503 3.90082 8.53693 3.89188 8.54883 3.88295L8.5682 3.86828C8.59074 3.85091 8.61347 3.83394 8.63656 3.8175L8.65462 3.80429C8.66381 3.79749 8.67299 3.79068 8.68246 3.78429L8.72641 3.755C8.73585 3.74894 8.74552 3.74333 8.75513 3.73775C8.95417 3.61434 9.17166 3.52151 9.39926 3.46496C9.54368 3.4291 9.69279 3.40807 9.84359 3.40148C10.2136 3.38533 10.5782 3.46077 10.9067 3.61672C11.1075 3.71204 11.2949 3.83742 11.4618 3.99035L14.7791 7.02941L17.1903 3.3048L17.2664 3.20617C17.8039 2.61964 18.5527 2.27026 19.3475 2.23546Z" fill="black"/>
</svg>
