<svg xmlns="http://www.w3.org/2000/svg" width="24" height="24" fill="currentColor" viewBox="0 0 24 24"><path d="M22.864 20.981c-2.272-1.115-3.574-3.502-3.574-6.551v-1.753a1.614 1.614 0 0 0-1.021-1.506l-2.901-1.161a0.81 0.81 0 0 1-0.452-1.048l2.26-5.739c0.496-1.27-0.113-2.746-1.395-3.222a2.43 2.43 0 0 0-3.108 1.389l-2.267 5.757a0.81 0.81 0 0 1-1.053 0.456l-2.909-1.164a1.608 1.608 0 0 0-1.759 0.371c-2.131 2.194-3.212 4.756-3.213 7.62a11.28 11.28 0 0 0 3.154 7.85 0.816 0.816 0 0 0 0.593 0.25h17.313a0.81 0.81 0 0 0 0.81-0.761 0.828 0.828 0 0 0-0.476-0.788z m-12.168-0.071a8.88 8.88 0 0 1-2.457-4.223 0.832 0.832 0 0 0-0.936-0.625 0.81 0.81 0 0 0-0.639 1.001 10.68 10.68 0 0 0 1.858 3.847H5.566a9.684 9.684 0 0 1-2.475-6.48 8.7 8.7 0 0 1 0.783-3.676l13.952 5.583c0.304 1.829 1.068 3.392 2.216 4.575z"/></svg>