<svg viewBox="0 0 24 24" fill="none" xmlns="http://www.w3.org/2000/svg" width="24" height="24">
<path fill-rule="evenodd" clip-rule="evenodd" d="M20.992 17.387L21.16 17.235C21.636 16.801 21.921 16.195 21.951 15.551 21.981 14.908 21.754 14.278 21.32 13.802L18.047 10.209 22.079 7.617C22.116 7.593 22.152 7.565 22.186 7.535 22.821 6.956 23.2 6.149 23.24 5.291 23.28 4.432 22.978 3.593 22.399 2.958 21.82 2.323 21.013 1.943 20.155 1.903 19.296 1.863 18.457 2.166 17.822 2.744 17.789 2.775 17.758 2.808 17.73 2.843L14.775 6.616 11.502 3.023C11.068 2.547 10.462 2.262 9.819 2.232 9.175 2.202 8.546 2.429 8.069 2.863L7.915 3.003 20.992 17.387Z" fill="black"/>
<path fill-rule="evenodd" clip-rule="evenodd" d="M4.581 1.746C4.28 1.415 3.768 1.391 3.438 1.692 3.107 1.993 3.083 2.505 3.384 2.836L5.52 5.185 0.284 9.954C0.126 10.099 0.031 10.3 0.021 10.515 0.011 10.73 0.086 10.939 0.231 11.098L10.049 21.877C10.773 22.671 11.782 23.145 12.855 23.195 13.928 23.245 14.977 22.867 15.771 22.144L18.597 19.57 19.584 20.655C19.885 20.986 20.396 21.011 20.727 20.71 21.058 20.409 21.082 19.896 20.781 19.566L19.795 18.478 5.166 2.386 4.581 1.746ZM6.609 6.384L1.974 10.606 3.065 11.804 6.059 9.076C6.218 8.932 6.428 8.856 6.642 8.866 6.857 8.876 7.059 8.971 7.203 9.13 7.348 9.289 7.424 9.498 7.414 9.713 7.404 9.928 7.309 10.129 7.15 10.274L4.156 13.001 11.247 20.786C11.681 21.262 12.286 21.547 12.93 21.577 13.574 21.607 14.203 21.38 14.68 20.946L17.507 18.371 6.609 6.384Z" fill="black"/>
</svg>