<?xml version="1.0" encoding="utf-8"?>
<svg xmlns="http://www.w3.org/2000/svg" width="512" height="512" viewBox="0 0 512 512">
<path d="m224,368H64c0-8.84,3.58-16.84,9.37-22.63s13.79-9.37,22.63-9.37h32V48c0-8.84,7.16-16,16-16,4.42,0,8.42,1.79,11.32,4.68,2.89,2.9,4.68,6.9,4.68,11.32v288h32c17.67,0,32,14.33,32,32Zm-23.06,48l10.67,32H76.4l10.67-32h113.87Zm23.06-32H64l-32,96h224l-32-96Zm244-64h-20c0-44.46-35.54-80.25-80-80.25s-80,35.79-80,80.25h-20c-6.6,0-12,5.4-12,12v8c0,6.6,5.4,12,12,12h20l12.5,99.97c2,16.01,15.61,28.03,31.75,28.03h71.5c16.14,0,29.75-12.02,31.75-28.03l12.5-99.97h20c6.6,0,12-5.15,12-11.75v-8c0-6.6-5.4-12.25-12-12.25Zm-64.25,128h-71.5l-12.25-96h96l-12.25,96Zm-83.75-128c0-26.74,21.26-48.25,48-48.25s48,21.51,48,48.25h-96Z"/>
</svg>
