<svg width="24" height="24" viewBox="0 0 24 24" fill="none" xmlns="http://www.w3.org/2000/svg">
<path fill-rule="evenodd" clip-rule="evenodd" d="M12 1.5C13.1935 1.5 14.3377 1.97445 15.1816 2.81836C15.2406 2.87731 15.2972 2.9382 15.3525 3H18.75C19.1478 3 19.5292 3.15815 19.8105 3.43945C20.0919 3.72076 20.25 4.10218 20.25 4.5V20.25C20.25 20.6478 20.0919 21.0292 19.8105 21.3105C19.5292 21.5919 19.1478 21.75 18.75 21.75H5.25C4.85218 21.75 4.47076 21.5919 4.18945 21.3105C3.90815 21.0292 3.75 20.6478 3.75 20.25V4.5C3.75 4.10217 3.90815 3.72076 4.18945 3.43945C4.47076 3.15815 4.85217 3 5.25 3H8.64746C8.70277 2.9382 8.7594 2.87731 8.81836 2.81836C9.66227 1.97445 10.8065 1.5 12 1.5ZM8.25 18C7.83579 18 7.5 18.3358 7.5 18.75C7.5 19.1642 7.83579 19.5 8.25 19.5H15.75C16.1642 19.5 16.5 19.1642 16.5 18.75C16.5 18.3358 16.1642 18 15.75 18H8.25ZM14.8066 10.5225C14.4049 10.4221 13.9979 10.6666 13.8975 11.0684L13.2637 13.6016L12.6709 12.415C12.5439 12.161 12.2841 12 12 12C11.7513 12 11.5215 12.1231 11.3828 12.3242L11.3291 12.415L10.7354 13.6016L10.1025 11.0684C10.0021 10.6666 9.59513 10.4221 9.19336 10.5225C8.79159 10.6229 8.54715 11.0299 8.64746 11.4316L9.77246 15.9316C9.84856 16.236 10.1061 16.4608 10.418 16.4951C10.73 16.5294 11.0305 16.3657 11.1709 16.085L12 14.4268L12.8291 16.085C12.9695 16.3657 13.27 16.5294 13.582 16.4951C13.8939 16.4608 14.1514 16.236 14.2275 15.9316L15.3525 11.4316C15.4529 11.0299 15.2084 10.6229 14.8066 10.5225ZM12 3C11.2044 3 10.4415 3.3163 9.87891 3.87891C9.3163 4.44152 9 5.20435 9 6H15C15 5.20435 14.6837 4.44152 14.1211 3.87891C13.5585 3.3163 12.7956 3 12 3Z" fill="black"/>
</svg>
