<svg viewBox="0 0 24 24" fill="none" xmlns="http://www.w3.org/2000/svg" width="24" height="24">
<path d="M3.3 4.305V21.315C3.3 21.688 3.448 22.047 3.713 22.312 3.977 22.576 4.336 22.725 4.71 22.726H19.29C19.664 22.725 20.023 22.576 20.287 22.312 20.552 22.047 20.7 21.688 20.7 21.315V4.305C20.7 3.931 20.552 3.572 20.287 3.308 20.023 3.043 19.664 2.895 19.29 2.895H15.24C14.909 2.895 14.64 3.164 14.64 3.495 14.64 3.826 14.909 4.095 15.24 4.095H16.275 19.29C19.346 4.095 19.4 4.117 19.439 4.156 19.478 4.195 19.5 4.249 19.5 4.305V21.315C19.5 21.37 19.478 21.424 19.439 21.463 19.4 21.503 19.346 21.525 19.29 21.526H4.71C4.654 21.525 4.6 21.503 4.561 21.463 4.522 21.424 4.5 21.37 4.5 21.315V4.305C4.5 4.249 4.522 4.195 4.561 4.156 4.6 4.117 4.654 4.095 4.71 4.095H7.725 8.76C9.091 4.095 9.36 3.826 9.36 3.495 9.36 3.164 9.091 2.895 8.76 2.895H4.71C4.336 2.895 3.977 3.043 3.713 3.308 3.448 3.572 3.3 3.931 3.3 4.305Z" fill="black"/>
<path d="M15.45 5.925C15.45 5.01 15.087 4.132 14.44 3.485 13.793 2.838 12.915 2.475 12 2.475 11.085 2.475 10.207 2.838 9.56 3.485 8.913 4.132 8.55 5.01 8.55 5.925V6.135H15.45V5.925ZM16.65 6.735C16.65 7.066 16.381 7.335 16.05 7.335H7.95C7.619 7.335 7.35 7.066 7.35 6.735V5.925C7.35 5.29 7.48 4.668 7.725 4.095 7.956 3.556 8.289 3.06 8.712 2.637 9.584 1.765 10.767 1.275 12 1.275 13.233 1.275 14.416 1.765 15.288 2.637 15.711 3.06 16.044 3.556 16.275 4.095 16.52 4.668 16.65 5.29 16.65 5.925V6.735Z" fill="black"/>
<path fill-rule="evenodd" clip-rule="evenodd" d="M7.725 4.095C7.48 4.668 7.35 5.29 7.35 5.925V6.735C7.35 7.066 7.619 7.335 7.95 7.335H16.05C16.381 7.335 16.65 7.066 16.65 6.735V5.925C16.65 5.29 16.52 4.668 16.275 4.095H19.29C19.346 4.095 19.4 4.117 19.439 4.156 19.478 4.195 19.5 4.249 19.5 4.305V21.315C19.5 21.37 19.478 21.424 19.439 21.463 19.4 21.503 19.346 21.525 19.29 21.526H4.71C4.654 21.525 4.6 21.503 4.561 21.463 4.522 21.424 4.5 21.37 4.5 21.315V4.305C4.5 4.249 4.522 4.195 4.561 4.156 4.6 4.117 4.654 4.095 4.71 4.095H7.725ZM16.358 9.196C16.16 9.196 16.002 9.247 15.887 9.349 15.772 9.445 15.683 9.593 15.619 9.791L14.184 13.983 12.768 9.81C12.691 9.599 12.597 9.445 12.489 9.349 12.38 9.247 12.236 9.196 12.057 9.196 11.872 9.196 11.721 9.247 11.606 9.349 11.497 9.445 11.404 9.596 11.327 9.8L9.868 13.907 8.486 9.791C8.415 9.586 8.323 9.436 8.208 9.34 8.099 9.244 7.942 9.196 7.737 9.196 7.443 9.196 7.235 9.282 7.113 9.455 6.998 9.627 6.982 9.836 7.065 10.079L9.005 15.532C9.081 15.737 9.184 15.89 9.312 15.993 9.44 16.088 9.606 16.137 9.811 16.137 10.015 16.137 10.175 16.088 10.29 15.993 10.412 15.89 10.511 15.74 10.588 15.541L12.008 11.565 13.411 15.532C13.488 15.737 13.587 15.89 13.709 15.993 13.83 16.088 13.993 16.137 14.197 16.137 14.408 16.137 14.575 16.088 14.697 15.993 14.818 15.89 14.914 15.74 14.985 15.541L16.943 10.079C17.033 9.836 17.021 9.627 16.905 9.455 16.79 9.282 16.608 9.196 16.358 9.196Z" fill="black"/>
</svg>