<svg width="24" height="24" viewBox="0 0 24 24" fill="none" xmlns="http://www.w3.org/2000/svg">
<path fill-rule="evenodd" clip-rule="evenodd" d="M12 1.5C13.1935 1.5 14.3377 1.97445 15.1816 2.81836C15.2406 2.87731 15.2972 2.9382 15.3525 3H18.75C19.1478 3 19.5292 3.15815 19.8105 3.43945C20.0919 3.72076 20.25 4.10218 20.25 4.5V20.25C20.25 20.6478 20.0919 21.0292 19.8105 21.3105C19.5292 21.5919 19.1478 21.75 18.75 21.75H5.25C4.85218 21.75 4.47076 21.5919 4.18945 21.3105C3.90815 21.0292 3.75 20.6478 3.75 20.25V4.5C3.75 4.10217 3.90815 3.72076 4.18945 3.43945C4.47076 3.15815 4.85217 3 5.25 3H8.64746C8.70277 2.9382 8.7594 2.87731 8.81836 2.81836C9.66227 1.97445 10.8065 1.5 12 1.5ZM11.0312 10.7197C10.7383 10.4269 10.2636 10.4269 9.9707 10.7197L7.7207 12.9697C7.42808 13.2626 7.42799 13.7375 7.7207 14.0303L9.9707 16.2803C10.2635 16.5731 10.7383 16.5729 11.0312 16.2803C11.3241 15.9874 11.3241 15.5126 11.0312 15.2197L9.31152 13.5L11.0312 11.7803C11.3241 11.4874 11.3241 11.0126 11.0312 10.7197ZM14.0283 10.7197C13.7354 10.427 13.2606 10.4269 12.9678 10.7197C12.6751 11.0126 12.675 11.4874 12.9678 11.7803L14.6875 13.5L12.9678 15.2197C12.6751 15.5126 12.675 15.9874 12.9678 16.2803C13.2606 16.573 13.7355 16.5729 14.0283 16.2803L16.2783 14.0303C16.5711 13.7374 16.5711 13.2626 16.2783 12.9697L14.0283 10.7197ZM12 3C11.2044 3 10.4415 3.3163 9.87891 3.87891C9.3163 4.44152 9 5.20435 9 6H15C15 5.20435 14.6837 4.44152 14.1211 3.87891C13.5585 3.3163 12.7956 3 12 3Z" fill="black"/>
</svg>
