<svg width="24" height="24" viewBox="0 0 24 24" fill="none" xmlns="http://www.w3.org/2000/svg">
<path d="M15.1943 5.80161C15.1943 4.9544 14.858 4.14158 14.2589 3.54251C13.6599 2.94345 12.8471 2.60719 11.9998 2.60719C11.1526 2.60719 10.3398 2.94345 9.74076 3.54251C9.14169 4.14158 8.80544 4.9544 8.80544 5.80161V5.99583H15.1943V5.80161ZM16.3054 6.55138C16.3054 6.8582 16.0566 7.10693 15.7498 7.10693H8.24989C7.94306 7.10693 7.69434 6.8582 7.69434 6.55138V5.80161C7.69434 5.21345 7.81462 4.63765 8.04161 4.10718C8.21321 3.70616 8.44579 3.33104 8.73349 2.99608C8.80409 2.91387 8.87802 2.83409 8.95517 2.75693C9.76261 1.94949 10.858 1.49609 11.9998 1.49609C13.1417 1.49609 14.2371 1.94949 15.0445 2.75693C15.1217 2.83409 15.1956 2.91387 15.2662 2.99608C15.5539 3.33104 15.7865 3.70616 15.9581 4.10718C16.1851 4.63765 16.3054 5.21345 16.3054 5.80161V6.55138Z" fill="black"/>
<path fill-rule="evenodd" clip-rule="evenodd" d="M15.2662 2.99608L14.9999 2.99658C14.6931 2.99658 14.4444 3.24531 14.4444 3.55213C14.4444 3.85895 14.6931 4.10768 14.9999 4.10768L15.9581 4.10718C15.7865 3.70616 15.5539 3.33104 15.2662 2.99608ZM8.04161 4.10718L8.99955 4.10768C9.30637 4.10768 9.5551 3.85895 9.5551 3.55213C9.5551 3.24531 9.30637 2.99658 8.99955 2.99658L8.73349 2.99608C8.44579 3.33104 8.21321 3.70616 8.04161 4.10718Z" fill="black"/>
<path fill-rule="evenodd" clip-rule="evenodd" d="M8.73349 2.99608C8.44579 3.33104 8.21321 3.70616 8.04161 4.10718C7.81462 4.63765 7.69434 5.21345 7.69434 5.80161V6.55138C7.69434 6.8582 7.94306 7.10693 8.24989 7.10693H15.7498C16.0566 7.10693 16.3054 6.8582 16.3054 6.55138V5.80161C16.3054 5.21345 16.1851 4.63765 15.9581 4.10718C15.7866 3.70644 15.554 3.33184 15.2666 2.99707H18.75C19.0962 2.99714 19.4291 3.13413 19.6738 3.37891C19.9183 3.62362 20.0556 3.95584 20.0557 4.30176V20.0518C20.0556 20.3976 19.9182 20.7299 19.6738 20.9746C19.4291 21.2194 19.0962 21.3583 18.75 21.3584H5.25C4.90383 21.3583 4.57096 21.2194 4.32617 20.9746C4.08172 20.7299 3.9444 20.3977 3.94434 20.0518V4.30176C3.94443 3.95575 4.08158 3.62363 4.32617 3.37891C4.57096 3.13412 4.90383 2.99713 5.25 2.99707L8.73349 2.99608ZM13.7344 9.01465C13.3452 8.87333 12.915 9.0748 12.7734 9.46387L9.81641 17.5938C9.67504 17.9829 9.87662 18.413 10.2656 18.5547C10.6548 18.696 11.085 18.4955 11.2266 18.1064L14.1826 9.97559C14.3238 9.58647 14.1234 9.15616 13.7344 9.01465ZM9.62012 11.46C9.35497 11.1418 8.88168 11.0992 8.56348 11.3643L6.3457 13.2119C6.17495 13.3544 6.07621 13.5657 6.07617 13.7881C6.0763 14.0104 6.17497 14.2219 6.3457 14.3643L8.56348 16.2119C8.88159 16.4768 9.35497 16.4341 9.62012 16.1162C9.88508 15.7981 9.8414 15.3247 9.52344 15.0596L7.99707 13.7881L9.52344 12.5166C9.84155 12.2515 9.88503 11.7782 9.62012 11.46ZM15.4365 11.3643C15.1184 11.0991 14.6451 11.1419 14.3799 11.46C14.115 11.7781 14.1576 12.2515 14.4756 12.5166L16.001 13.7881L14.4756 15.0596C14.1576 15.3248 14.1148 15.7981 14.3799 16.1162C14.645 16.4341 15.1184 16.4768 15.4365 16.2119L17.6533 14.3643C17.8242 14.2219 17.9237 14.0105 17.9238 13.7881C17.9238 13.5656 17.8242 13.3544 17.6533 13.2119L15.4365 11.3643Z" fill="black"/>
</svg>
