<?xml version="1.0" encoding="utf-8"?>
<svg xmlns="http://www.w3.org/2000/svg" width="512" height="512" viewBox="0 0 512 512">
  <path d="M226 224h30v128h-32v-72.8l-32.2 45.6L160 279v73h-32V224h32l31.8 46.2L226 224zm126 64h32l-48 64-48-64h32l.2-64H352v64zm64-256H311.4C300.3 12.9 279.7 0 256 0s-44.3 12.9-55.4 32H96c-17.7 0-32 14.3-32 32v384c0 17.7 14.3 32 32 32h320c17.7 0 32-14.3 32-32V64c0-17.7-14.3-32-32-32zm-160 0c17.7 0 32 14.3 32 32h-64c0-17.7 14.3-32 32-32zm160 416H96V64h64v64h192V64h64v384z"/>
</svg>
