<?xml version="1.0" encoding="utf-8"?>
<svg xmlns="http://www.w3.org/2000/svg" width="512" height="512" viewBox="0 0 512 512">
  <path d="M214.6 361.4 192 384l-80-80 80-80 22.6 22.6-57.3 57.4 57.3 57.4zM448 64v384c0 17.7-14.3 32-32 32H96c-17.7 0-32-14.3-32-32V64c0-17.7 14.3-32 32-32h104.6C211.7 12.9 232.3 0 256 0s44.3 12.9 55.4 32H416c17.7 0 32 14.3 32 32zm-224 0h64c0-17.7-14.3-32-32-32s-32 14.3-32 32zm192 0h-64v64H160V64H96v384h320V64zM297.4 246.6l57.4 57.4-57.4 57.4L320 384l80-80-80-80-22.6 22.6z"/>
</svg>
