<svg width="24" height="24" viewBox="0 0 24 24" fill="none" xmlns="http://www.w3.org/2000/svg">
<path d="M18.7489 2.99863H15.3496C14.9282 2.52681 14.4118 2.14932 13.8344 1.89085C13.257 1.63239 12.6316 1.49878 11.999 1.49878C11.3664 1.49878 10.7409 1.63239 10.1635 1.89085C9.58607 2.14932 9.06977 2.52681 8.64836 2.99863H5.24901C4.85119 2.99863 4.46966 3.15667 4.18836 3.43797C3.90706 3.71927 3.74902 4.1008 3.74902 4.49862V20.2485C3.74902 20.6463 3.90706 21.0278 4.18836 21.3092C4.46966 21.5905 4.85119 21.7485 5.24901 21.7485H18.7489C19.1467 21.7485 19.5283 21.5905 19.8096 21.3092C20.0909 21.0278 20.2489 20.6463 20.2489 20.2485V4.49862C20.2489 4.1008 20.0909 3.71927 19.8096 3.43797C19.5283 3.15667 19.1467 2.99863 18.7489 2.99863ZM11.999 2.99863C12.7946 2.99863 13.5577 3.3147 14.1203 3.87731C14.6829 4.43991 14.9989 5.20297 14.9989 5.99861H8.99898C8.99898 5.20297 9.31505 4.43991 9.87766 3.87731C10.4403 3.3147 11.2033 2.99863 11.999 2.99863ZM14.9989 14.9985H8.99898C8.80007 14.9985 8.60931 14.9195 8.46866 14.7789C8.32801 14.6382 8.24899 14.4475 8.24899 14.2485C8.24899 14.0496 8.32801 13.8589 8.46866 13.7182C8.60931 13.5776 8.80007 13.4986 8.99898 13.4986H14.9989C15.1978 13.4986 15.3886 13.5776 15.5293 13.7182C15.6699 13.8589 15.7489 14.0496 15.7489 14.2485C15.7489 14.4475 15.6699 14.6382 15.5293 14.7789C15.3886 14.9195 15.1978 14.9985 14.9989 14.9985ZM14.9989 11.9986H8.99898C8.80007 11.9986 8.60931 11.9195 8.46866 11.7789C8.32801 11.6382 8.24899 11.4475 8.24899 11.2486C8.24899 11.0497 8.32801 10.8589 8.46866 10.7182C8.60931 10.5776 8.80007 10.4986 8.99898 10.4986H14.9989C15.1978 10.4986 15.3886 10.5776 15.5293 10.7182C15.6699 10.8589 15.7489 11.0497 15.7489 11.2486C15.7489 11.4475 15.6699 11.6382 15.5293 11.7789C15.3886 11.9195 15.1978 11.9986 14.9989 11.9986Z" fill="black"/>
</svg>
