<svg width="24" height="24" viewBox="0 0 24 24" fill="none" xmlns="http://www.w3.org/2000/svg">
<path d="M18.7489 2.99888H15.3496C14.9282 2.52706 14.4118 2.14956 13.8344 1.8911C13.257 1.63263 12.6316 1.49902 11.999 1.49902C11.3664 1.49902 10.7409 1.63263 10.1635 1.8911C9.58607 2.14956 9.06977 2.52706 8.64836 2.99888H5.24901C4.85119 2.99888 4.46966 3.15691 4.18836 3.43821C3.90706 3.71952 3.74902 4.10104 3.74902 4.49886V20.2487C3.74902 20.6466 3.90706 21.0281 4.18836 21.3094C4.46966 21.5907 4.85119 21.7487 5.24901 21.7487H18.7489C19.1467 21.7487 19.5283 21.5907 19.8096 21.3094C20.0909 21.0281 20.2489 20.6466 20.2489 20.2487V4.49886C20.2489 4.10104 20.0909 3.71952 19.8096 3.43821C19.5283 3.15691 19.1467 2.99888 18.7489 2.99888ZM11.999 2.99888C12.7946 2.99888 13.5577 3.31494 14.1203 3.87755C14.6829 4.44015 14.9989 5.20321 14.9989 5.99885H8.99898C8.99898 5.20321 9.31505 4.44015 9.87766 3.87755C10.4403 3.31494 11.2033 2.99888 11.999 2.99888Z" fill="black"/>
</svg>
