<svg width="24" height="24" viewBox="0 0 24 24" fill="none" xmlns="http://www.w3.org/2000/svg">
<path fill-rule="evenodd" clip-rule="evenodd" d="M12 1.5C13.1935 1.5 14.3377 1.97445 15.1816 2.81836C15.2406 2.87731 15.2972 2.9382 15.3525 3H18.75C19.1478 3 19.5292 3.15815 19.8105 3.43945C20.0919 3.72076 20.25 4.10218 20.25 4.5V20.25C20.25 20.6478 20.0919 21.0292 19.8105 21.3105C19.5292 21.5919 19.1478 21.75 18.75 21.75H5.25C4.85218 21.75 4.47076 21.5919 4.18945 21.3105C3.90815 21.0292 3.75 20.6478 3.75 20.25V4.5C3.75 4.10217 3.90815 3.72076 4.18945 3.43945C4.47076 3.15815 4.85217 3 5.25 3H8.64746C8.70277 2.9382 8.7594 2.87731 8.81836 2.81836C9.66227 1.97445 10.8065 1.5 12 1.5ZM13.582 9.75488C13.27 9.72064 12.9695 9.88432 12.8291 10.165L12 11.8232L11.1709 10.165C11.0305 9.88433 10.7299 9.72065 10.418 9.75488C10.1061 9.78925 9.84856 10.014 9.77246 10.3184L8.64746 14.8184C8.54741 15.22 8.79172 15.6271 9.19336 15.7275C9.59496 15.8277 10.0019 15.5831 10.1025 15.1816L10.7363 12.6484L11.3291 13.835C11.4562 14.0888 11.7161 14.25 12 14.25C12.2485 14.25 12.4785 14.1267 12.6172 13.9258L12.6709 13.835L13.2646 12.6484L13.8975 15.1816C13.9981 15.5831 14.405 15.8277 14.8066 15.7275C15.2083 15.6271 15.4526 15.22 15.3525 14.8184L14.2275 10.3184C14.1514 10.014 13.8939 9.78924 13.582 9.75488ZM12 3C11.2044 3 10.4415 3.3163 9.87891 3.87891C9.3163 4.44152 9 5.20435 9 6H15C15 5.20435 14.6837 4.44152 14.1211 3.87891C13.5585 3.3163 12.7956 3 12 3Z" fill="black"/>
</svg>
