<svg width="24" height="24" viewBox="0 0 24 24" fill="none" xmlns="http://www.w3.org/2000/svg">
<path d="M20.9989 11.9982C20.9989 13.756 20.4842 15.4754 19.5182 16.9441C18.5522 18.4128 17.1772 19.5664 15.5631 20.2625C13.949 20.9587 12.1663 21.1669 10.4352 20.8614C8.70403 20.556 7.10025 19.7503 5.82181 18.5438C5.75016 18.476 5.69254 18.3949 5.65226 18.3049C5.61197 18.2149 5.5898 18.1179 5.58702 18.0193C5.58423 17.9208 5.60088 17.8227 5.63602 17.7306C5.67116 17.6385 5.7241 17.5542 5.79181 17.4825C5.92856 17.3378 6.1172 17.2533 6.31622 17.2477C6.41476 17.2449 6.51289 17.2616 6.605 17.2967C6.69711 17.3319 6.7814 17.3848 6.85305 17.4525C7.9253 18.4641 9.27187 19.1372 10.7245 19.3879C12.1772 19.6385 13.6715 19.4555 15.0207 18.8618C16.3699 18.268 17.5143 17.2898 18.3107 16.0494C19.1072 14.8089 19.5204 13.3613 19.4988 11.8874C19.4773 10.4134 19.0218 8.9785 18.1894 7.76192C17.357 6.54535 16.1845 5.60106 14.8184 5.04704C13.4524 4.49302 11.9534 4.35385 10.5087 4.64691C9.06402 4.93996 7.73773 5.65226 6.69555 6.69478C6.36462 7.02947 6.05337 7.35853 5.75056 7.68571L7.27961 9.21758C7.38462 9.32247 7.45614 9.45616 7.48513 9.60172C7.51412 9.74728 7.49927 9.89817 7.44245 10.0353C7.38564 10.1724 7.28942 10.2896 7.16597 10.372C7.04253 10.4544 6.89741 10.4983 6.74899 10.4982H2.99902C2.80011 10.4982 2.60934 10.4192 2.46869 10.2785C2.32804 10.1379 2.24902 9.94711 2.24902 9.7482V5.99823C2.24891 5.84981 2.29283 5.70469 2.37523 5.58124C2.45763 5.4578 2.57481 5.36158 2.71193 5.30476C2.84904 5.24795 2.99993 5.2331 3.1455 5.26208C3.29106 5.29107 3.42475 5.3626 3.52964 5.46761L4.68651 6.62635C4.98838 6.29916 5.29963 5.9701 5.62962 5.63729C6.88782 4.37695 8.49165 3.51822 10.2381 3.16979C11.9846 2.82136 13.7951 2.9989 15.4406 3.67993C17.0862 4.36096 18.4926 5.51486 19.4821 6.99559C20.4715 8.47632 20.9994 10.2173 20.9989 11.9982ZM11.9989 6.74822C11.8 6.74822 11.6093 6.82724 11.4686 6.96789C11.328 7.10854 11.249 7.2993 11.249 7.49821V11.9982C11.2489 12.1277 11.2824 12.2549 11.3461 12.3676C11.4099 12.4803 11.5017 12.5746 11.6127 12.6413L15.3627 14.8913C15.4471 14.942 15.5407 14.9756 15.6382 14.9901C15.7356 15.0047 15.835 14.9999 15.9306 14.976C16.0261 14.9522 16.1161 14.9097 16.1953 14.8511C16.2745 14.7925 16.3413 14.7189 16.392 14.6344C16.4428 14.55 16.4764 14.4563 16.4909 14.3589C16.5054 14.2615 16.5006 14.1621 16.4768 14.0665C16.4529 13.9709 16.4105 13.881 16.3519 13.8018C16.2933 13.7226 16.2196 13.6558 16.1352 13.605L12.7489 11.5735V7.49821C12.7489 7.2993 12.6699 7.10854 12.5293 6.96789C12.3886 6.82724 12.1979 6.74822 11.9989 6.74822Z" fill="black"/>
</svg>
