<svg xmlns="http://www.w3.org/2000/svg" fill="currentColor" viewBox="0 0 24 24" width="24" height="24"><path d="M24.143 11.647c-0.185-4.757-4.138-8.557-8.897-8.557a8.916 8.916 0 0 0-7.975 4.928 8.88 8.88 0 0 0-0.941 3.956 0.828 0.828 0 0 1-0.752 0.837 0.81 0.81 0 0 1-0.868-0.81 10.56 10.56 0 0 1 0.541-3.333 0.406 0.406 0 0 0-0.481-0.525 6.492 6.492 0 0 0-4.92 6.288c0 3.563 3.012 6.48 6.581 6.48H15.24a8.92 8.92 0 0 0 8.903-9.263z m-5.091 0.925a0.81 0.81 0 0 1-1.146 0l-1.856-1.857v6.145a0.81 0.81 0 0 1-1.62 0v-6.145l-1.856 1.857a0.81 0.81 0 0 1-1.146-1.146l3.24-3.24a0.81 0.81 0 0 1 1.146 0l3.24 3.24a0.81 0.81 0 0 1 0 1.146z"/></svg>