<svg xmlns="http://www.w3.org/2000/svg" fill="currentColor" viewBox="0 0 24 24" width="24" height="24"><path d="M14.836 16.05h-2.376L11.002 18.48h2.619a0.81 0.81 0 0 1 0.695 1.228l-2.43 4.05a0.81 0.81 0 0 1-1.39-0.834l1.695-2.823H9.571a0.81 0.81 0 0 1-0.695-1.227l1.695-2.823H6.824c-2.911 0-5.333-2.322-5.353-5.228a5.274 5.274 0 0 1 3.781-5.089 0.406 0.406 0 0 1 0.507 0.483 9.6 9.6 0 0 0-0.238 1.672 0.824 0.824 0 0 0 0.75 0.871h0.061a0.828 0.828 0 0 0 0.819-0.781 7.696 7.696 0 1 1 7.686 8.071z"/></svg>