<svg width="24" height="24" viewBox="0 0 24 24" fill="none" xmlns="http://www.w3.org/2000/svg">
<g clip-path="url(#clip0_2053_27767)">
<path d="M14.624 15.7501H12.4237L11.0737 18.0001H13.499C13.6318 18.0001 13.7622 18.0353 13.8769 18.1021C13.9916 18.169 14.0865 18.2651 14.1519 18.3807C14.2174 18.4962 14.2509 18.6271 14.2492 18.7598C14.2475 18.8926 14.2105 19.0225 14.1421 19.1364L11.8922 22.8863C11.8414 22.9708 11.7746 23.0444 11.6954 23.103C11.6162 23.1617 11.5263 23.2041 11.4307 23.228C11.3351 23.2518 11.2357 23.2566 11.1383 23.2421C11.0409 23.2275 10.9472 23.1939 10.8628 23.1432C10.7783 23.0925 10.7047 23.0256 10.6461 22.9464C10.5875 22.8673 10.545 22.7773 10.5212 22.6817C10.4973 22.5861 10.4925 22.4868 10.5071 22.3894C10.5216 22.2919 10.5552 22.1983 10.6059 22.1138L12.1743 19.5001H9.74905C9.61627 19.5001 9.48586 19.4649 9.37114 19.3981C9.25643 19.3312 9.16152 19.2351 9.09612 19.1195C9.03071 19.004 8.99716 18.8731 8.99888 18.7404C9.00061 18.6076 9.03755 18.4777 9.10593 18.3639L10.6744 15.7501H7.20563C4.51034 15.7501 2.26785 13.6005 2.2491 10.9089C2.24303 9.8501 2.58126 8.81799 3.21283 7.96812C3.84439 7.11826 4.73507 6.49669 5.75064 6.19708C5.81371 6.17884 5.88046 6.17748 5.94422 6.19313C6.00798 6.20878 6.06651 6.24089 6.11397 6.28626C6.16142 6.33162 6.19614 6.38865 6.21464 6.45165C6.23314 6.51464 6.23477 6.58138 6.21939 6.64521C6.09949 7.15345 6.02575 7.67149 5.99908 8.19301C5.98682 8.39155 6.05258 8.58703 6.18234 8.73781C6.3121 8.88858 6.4956 8.98273 6.69376 9.00019H6.75001C6.94451 8.99812 7.13097 8.92221 7.27161 8.78783C7.41225 8.65346 7.49657 8.47065 7.5075 8.27644C7.57575 6.88379 8.05112 5.54177 8.87471 4.41668C9.6983 3.29158 10.8339 2.43287 12.1408 1.94693C13.4477 1.461 14.8685 1.36922 16.2271 1.68295C17.5856 1.99668 18.8223 2.70213 19.7838 3.7119C20.7453 4.72167 21.3894 5.99137 21.6363 7.36367C21.8832 8.73596 21.722 10.1505 21.1727 11.4321C20.6234 12.7137 19.7101 13.8059 18.5461 14.5734C17.382 15.341 16.0183 15.7501 14.624 15.7501Z" fill="black"/>
</g>
<defs>
<clipPath id="clip0_2053_27767">
<rect width="23.9998" height="23.9998" fill="white"/>
</clipPath>
</defs>
</svg>
