<svg xmlns="http://www.w3.org/2000/svg" width="24" height="24" fill="currentColor" viewBox="0 0 24 24"><path d="M19.29 3.09h-3.24a1.62 1.62 0 0 0-1.62-1.62H2.28a1.62 1.62 0 0 0-1.62 1.62v8.1a1.62 1.62 0 0 0 1.62 1.62h0.81v6.48a1.62 1.62 0 0 0 1.62 1.62h14.58a1.62 1.62 0 0 0 1.62-1.62V4.71a1.62 1.62 0 0 0-1.62-1.62m-9.484 2.194a0.81 0.81 0 0 1 1.146-1.146l2.43 2.43a0.81 0.81 0 0 1 0 1.146l-2.43 2.43a0.81 0.81 0 0 1-1.146-1.146l1.858-1.857z m-6.48 2.43a0.81 0.81 0 0 1 0-1.146l2.43-2.43a0.81 0.81 0 0 1 1.146 1.146L5.045 7.14l1.857 1.856a0.81 0.81 0 0 1-1.146 1.146z m15.964 11.576H4.71v-6.48h9.72a1.62 1.62 0 0 0 1.62-1.62v-6.48h3.24z"/></svg>