<svg width="24" height="24" viewBox="0 0 24 24" fill="none" xmlns="http://www.w3.org/2000/svg">
<g clip-path="url(#clip0_2133_33293)">
<path d="M12.749 3.74706V20.2469C12.749 20.4459 12.67 20.6366 12.5293 20.7773C12.3887 20.9179 12.1979 20.9969 11.999 20.9969C11.8001 20.9969 11.6093 20.9179 11.4687 20.7773C11.328 20.6366 11.249 20.4459 11.249 20.2469V3.74706C11.249 3.54815 11.328 3.35739 11.4687 3.21674C11.6093 3.07609 11.8001 2.99707 11.999 2.99707C12.1979 2.99707 12.3887 3.07609 12.5293 3.21674C12.67 3.35739 12.749 3.54815 12.749 3.74706ZM8.999 11.247H5.24903V8.99702C5.24915 8.8486 5.20522 8.70349 5.12282 8.58004C5.04042 8.4566 4.92324 8.36038 4.78613 8.30356C4.64901 8.24675 4.49812 8.2319 4.35256 8.26088C4.20699 8.28987 4.07331 8.3614 3.96841 8.4664L0.968437 11.4664C0.898706 11.536 0.843387 11.6188 0.805644 11.7098C0.767901 11.8008 0.748474 11.8984 0.748474 11.997C0.748474 12.0956 0.767901 12.1932 0.805644 12.2842C0.843387 12.3753 0.898706 12.458 0.968437 12.5276L3.96841 15.5276C4.07331 15.6326 4.20699 15.7041 4.35256 15.7331C4.49812 15.7621 4.64901 15.7473 4.78613 15.6904C4.92324 15.6336 5.04042 15.5374 5.12282 15.414C5.20522 15.2905 5.24915 15.1454 5.24903 14.997V12.747H8.999C9.19791 12.747 9.38868 12.668 9.52933 12.5273C9.66998 12.3867 9.749 12.1959 9.749 11.997C9.749 11.7981 9.66998 11.6073 9.52933 11.4667C9.38868 11.326 9.19791 11.247 8.999 11.247ZM23.0295 11.4664L20.0295 8.4664C19.9247 8.3614 19.791 8.28987 19.6454 8.26088C19.4998 8.2319 19.3489 8.24675 19.2118 8.30356C19.0747 8.36038 18.9575 8.4566 18.8751 8.58004C18.7927 8.70349 18.7488 8.8486 18.7489 8.99702V11.247H14.999C14.8 11.247 14.6093 11.326 14.4686 11.4667C14.328 11.6073 14.249 11.7981 14.249 11.997C14.249 12.1959 14.328 12.3867 14.4686 12.5273C14.6093 12.668 14.8 12.747 14.999 12.747H18.7489V14.997C18.7488 15.1454 18.7927 15.2905 18.8751 15.414C18.9575 15.5374 19.0747 15.6336 19.2118 15.6904C19.3489 15.7473 19.4998 15.7621 19.6454 15.7331C19.791 15.7041 19.9247 15.6326 20.0295 15.5276L23.0295 12.5276C23.0993 12.458 23.1546 12.3753 23.1923 12.2842C23.2301 12.1932 23.2495 12.0956 23.2495 11.997C23.2495 11.8984 23.2301 11.8008 23.1923 11.7098C23.1546 11.6188 23.0993 11.536 23.0295 11.4664Z" fill="black"/>
</g>
<defs>
<clipPath id="clip0_2133_33293">
<rect width="23.9998" height="23.9998" fill="white"/>
</clipPath>
</defs>
</svg>
