<svg width="24" height="24" viewBox="0 0 24 24" fill="none" xmlns="http://www.w3.org/2000/svg">
<path d="M15.1015 3.25C15.7799 3.25 16.2941 3.66557 16.5439 4.16504C16.7773 4.63201 16.8115 5.22485 16.5439 5.75586L16.4863 5.86133L12.8838 11.9639C12.879 11.9719 12.872 11.9785 12.8672 11.9863C12.8782 12.003 12.891 12.0186 12.9013 12.0361L16.5048 18.1387C16.8336 18.6954 16.8105 19.3369 16.5615 19.835C16.3117 20.3344 15.7975 20.75 15.1191 20.75H8.89938C8.22081 20.75 7.70513 20.3353 7.45504 19.835C7.20578 19.3363 7.18469 18.6943 7.51461 18.1377L11.1172 12.0361C11.1217 12.0285 11.1281 12.0202 11.1328 12.0127C11.1222 11.9969 11.1104 11.9815 11.1006 11.9648L7.49606 5.86133C7.16702 5.30503 7.18842 4.66331 7.43746 4.16504C7.68755 3.66472 8.20323 3.25 8.8818 3.25H15.1015ZM8.80563 18.9014C8.75724 18.983 8.75612 19.0825 8.79684 19.1641C8.83686 19.2441 8.88116 19.25 8.89938 19.25H15.1191C15.1359 19.25 15.1793 19.2447 15.2197 19.1641C15.2506 19.1022 15.2588 19.031 15.2402 18.9648L15.2129 18.9014L12.0088 13.4746L8.80563 18.9014ZM8.8818 4.75C8.86358 4.75 8.81928 4.75588 8.77926 4.83594C8.74879 4.89699 8.74134 4.96746 8.75973 5.0332L8.78707 5.09766L11.9912 10.5244L15.1953 5.09863L15.2226 5.03516C15.2413 4.96897 15.233 4.89777 15.2021 4.83594C15.1618 4.75528 15.1183 4.75 15.1015 4.75H8.8818Z" fill="black"/>
<path fill-rule="evenodd" clip-rule="evenodd" d="M8.77926 4.83594C8.81928 4.75588 8.86358 4.75 8.8818 4.75H15.1015C15.1183 4.75 15.1618 4.75528 15.2021 4.83594C15.233 4.89777 15.2413 4.96897 15.2226 5.03516L15.1953 5.09863L11.9912 10.5244L8.78707 5.09766L8.75973 5.0332C8.74134 4.96746 8.74879 4.89699 8.77926 4.83594Z" fill="black"/>
</svg>
