<svg width="24" height="24" viewBox="0 0 24 24" fill="none" xmlns="http://www.w3.org/2000/svg">
<path d="M11.2497 4.49657V19.4965C11.2497 19.8943 11.0916 20.2758 10.8103 20.5571C10.529 20.8384 10.1475 20.9964 9.74969 20.9964H5.99971C5.60189 20.9964 5.22036 20.8384 4.93906 20.5571C4.65776 20.2758 4.49973 19.8943 4.49973 19.4965V4.49657C4.49973 4.09875 4.65776 3.71722 4.93906 3.43592C5.22036 3.15462 5.60189 2.99658 5.99971 2.99658H9.74969C10.1475 2.99658 10.529 3.15462 10.8103 3.43592C11.0916 3.71722 11.2497 4.09875 11.2497 4.49657ZM17.9996 2.99658H14.2497C13.8518 2.99658 13.4703 3.15462 13.189 3.43592C12.9077 3.71722 12.7497 4.09875 12.7497 4.49657V19.4965C12.7497 19.8943 12.9077 20.2758 13.189 20.5571C13.4703 20.8384 13.8518 20.9964 14.2497 20.9964H17.9996C18.3974 20.9964 18.779 20.8384 19.0603 20.5571C19.3416 20.2758 19.4996 19.8943 19.4996 19.4965V4.49657C19.4996 4.09875 19.3416 3.71722 19.0603 3.43592C18.779 3.15462 18.3974 2.99658 17.9996 2.99658Z" fill="black"/>
</svg>
