<svg width="24" height="24" viewBox="0 0 24 24" fill="none" xmlns="http://www.w3.org/2000/svg">
<path d="M8.80078 14.7949L5.51465 18.0811H4.65039C4.46548 18.0811 4.29775 18.0123 4.16699 17.9014L8.80078 13.2686V14.7949ZM14.2002 18.0811H9.80078V14.5322H14.2002V18.0811ZM20.0996 17.3311C20.0996 17.7453 19.7638 18.0811 19.3496 18.0811H15.2002V14.5322H20.0996V17.3311ZM8.80078 17.7363L8.45605 18.0811H6.92871L8.80078 16.209V17.7363ZM8.80078 11.8545L3.90039 16.7549V15.0625L8.80078 10.1621V11.8545ZM8.80078 8.7832L8.7832 8.76562L3.90039 13.6484V12.1201L8.80078 7.21973V8.7832ZM14.2002 13.5322H9.80078V10.4824H14.2002V13.5322ZM20.0996 13.5322H15.2002V10.4824H20.0996V13.5322ZM3.90039 10.7061V9.06641L7.03516 5.93164H8.6748L3.90039 10.7061ZM19.3496 5.93164C19.7638 5.93164 20.0996 6.26743 20.0996 6.68164V9.48242H15.2002V5.93262H14.2002V9.48242H9.80078V5.93164H19.3496ZM3.90039 7.65234V6.68164C3.90039 6.26743 4.23618 5.93164 4.65039 5.93164H5.62109L3.90039 7.65234Z" fill="black"/>
</svg>
