<svg viewBox="0 0 24 24" fill="none" xmlns="http://www.w3.org/2000/svg" width="24" height="24">
<path d="M21.591 16.027C22.038 16.027 22.4 16.388 22.4 16.835L22.403 21.684C22.403 22.134 22.209 22.552 21.888 22.85 21.569 23.147 21.148 23.304 20.721 23.304H3.274C2.847 23.304 2.426 23.147 2.107 22.85 1.786 22.552 1.593 22.134 1.593 21.684L1.586 16.842C1.585 16.392 1.95 16.027 2.4 16.027H21.591ZM9.381 20.037C8.934 20.037 8.571 20.399 8.571 20.847 8.571 21.294 8.934 21.656 9.381 21.656H14.614C15.062 21.656 15.424 21.294 15.424 20.847 15.424 20.399 15.062 20.037 14.614 20.037H9.381ZM9.381 17.576C8.934 17.576 8.571 17.938 8.571 18.386 8.571 18.833 8.934 19.195 9.381 19.195H14.614C15.062 19.195 15.424 18.833 15.424 18.386 15.424 17.938 15.062 17.576 14.614 17.576H9.381ZM10.38-0.996C10.595-0.996 10.801-0.911 10.952-0.759 11.104-0.608 11.19-0.401 11.19-0.186V14.394H1.47C1.04 14.394 0.628 14.223 0.325 13.92 0.021 13.616-0.15 13.203-0.15 12.773V3.054C-0.15 2.624 0.021 2.212 0.325 1.908 0.628 1.604 1.04 1.435 1.47 1.434H9.57V-0.186C9.57-0.401 9.656-0.608 9.807-0.759 9.959-0.911 10.166-0.996 10.38-0.996ZM22.53 1.434C22.96 1.435 23.372 1.604 23.675 1.908 23.979 2.212 24.15 2.624 24.15 3.054V12.773C24.15 13.203 23.979 13.616 23.675 13.92 23.372 14.223 22.96 14.394 22.53 14.394H13.215C13.108 14.394 13.004 14.352 12.928 14.276 12.852 14.2 12.81 14.096 12.81 13.989V1.839C12.81 1.732 12.852 1.629 12.928 1.553 13.004 1.477 13.108 1.434 13.215 1.434H22.53ZM3.9 5.484C3.685 5.484 3.479 5.569 3.327 5.721 3.211 5.837 3.134 5.986 3.104 6.145 3.093 6.198 3.088 6.253 3.088 6.309 3.088 6.757 3.45 7.119 3.898 7.119H4.709V9.55C4.709 9.997 5.071 10.359 5.518 10.359 5.914 10.359 6.242 10.074 6.312 9.698 6.323 9.645 6.33 9.59 6.33 9.534V7.119H7.138C7.534 7.119 7.862 6.835 7.932 6.459 7.944 6.405 7.95 6.35 7.95 6.294 7.95 6.079 7.865 5.873 7.713 5.721 7.561 5.569 7.355 5.484 7.14 5.484H3.9ZM15.47 6.145C15.274 6.146 15.096 6.264 15.021 6.445 14.946 6.627 14.988 6.836 15.127 6.975L17.719 9.567C17.909 9.757 18.216 9.757 18.405 9.567L20.998 6.975C21.136 6.836 21.178 6.627 21.103 6.445 21.028 6.264 20.85 6.145 20.654 6.145H15.47Z" fill="black"/>
</svg>