<?xml version="1.0" encoding="utf-8"?>
<svg width="512" height="512" viewBox="0 0 512 512" fill="none" xmlns="http://www.w3.org/2000/svg">
    <path d="M240 80V176H256V80H240ZM352 112L384 144L416 112H352ZM240 80V176H256V80H240ZM96 144H208V112H96V144ZM352 112L384 144L416 112H352ZM240 176H256V80H240V176ZM96 144H208V112H96V144ZM96 112V144H208V112H96ZM352 112L384 144L416 112H352ZM416 112L384 144L352 112H416ZM480 32H32V480H320V224H480V32ZM64 64H288V192H64V64ZM288 448H64V224H288V448ZM448 192H320V64H448V192ZM256 288H96V256H256V288ZM256 416H96V384H256V416ZM256 352H96V320H256V352Z" fill="black"/>
</svg>
