<svg width="24" height="24" viewBox="0 0 24 24" fill="none" xmlns="http://www.w3.org/2000/svg">
<path d="M19.9922 15.3555C20.3647 15.3555 20.6666 15.6568 20.667 16.0293L20.6689 20.0703C20.6689 20.445 20.5079 20.7934 20.2402 21.042C19.9742 21.2889 19.6237 21.4198 19.2676 21.4199H4.72852C4.37237 21.4198 4.02185 21.2889 3.75586 21.042C3.48822 20.7934 3.32722 20.445 3.32715 20.0703L3.32129 16.0352C3.32075 15.6599 3.62477 15.3555 4 15.3555H19.9922ZM9.81738 18.6973C9.44459 18.6973 9.14258 18.9993 9.14258 19.3721C9.14258 19.7449 9.44459 20.0469 9.81738 20.0469H14.1787C14.5515 20.0468 14.8535 19.7448 14.8535 19.3721C14.8535 18.9993 14.5515 18.6973 14.1787 18.6973H9.81738ZM9.81738 16.6465C9.44459 16.6465 9.14258 16.9485 9.14258 17.3213C9.14258 17.6941 9.44459 17.9961 9.81738 17.9961H14.1787C14.5515 17.9961 14.8535 17.6941 14.8535 17.3213C14.8535 16.9485 14.5515 16.6465 14.1787 16.6465H9.81738ZM10.6504 1.16992C10.8291 1.17002 11.0005 1.24094 11.127 1.36719C11.2535 1.49373 11.3251 1.66578 11.3252 1.84473V13.9951H3.22461C2.86675 13.995 2.52358 13.8526 2.27051 13.5996C2.01733 13.3464 1.875 13.0026 1.875 12.6445V4.54492C1.875 4.18688 2.01733 3.84302 2.27051 3.58984C2.52356 3.33694 2.86685 3.19542 3.22461 3.19531H9.97461V1.84473C9.97466 1.66578 10.0463 1.49373 10.1729 1.36719C10.2994 1.24078 10.4715 1.16992 10.6504 1.16992ZM20.7754 3.19531C21.1332 3.19542 21.4764 3.33695 21.7295 3.58984C21.9827 3.84302 22.125 4.18688 22.125 4.54492V12.6445C22.125 13.0026 21.9827 13.3464 21.7295 13.5996C21.4764 13.8526 21.1332 13.995 20.7754 13.9951H13.0127C12.9232 13.9951 12.8367 13.9598 12.7734 13.8965C12.7101 13.8332 12.6748 13.7467 12.6748 13.6572V3.53223C12.6749 3.44292 12.7104 3.35716 12.7734 3.29395C12.8367 3.23065 12.9232 3.19531 13.0127 3.19531H20.7754ZM5.25 6.57031C5.07098 6.57031 4.89905 6.64099 4.77246 6.76758C4.67553 6.86455 4.61173 6.98819 4.58691 7.12109C4.57784 7.16523 4.57324 7.21098 4.57324 7.25781C4.57324 7.6306 4.87525 7.93262 5.24805 7.93262H5.92383V9.95801C5.92393 10.3307 6.22591 10.6328 6.59863 10.6328C6.92866 10.6326 7.20139 10.3952 7.25977 10.082C7.26906 10.0373 7.27536 9.99168 7.27539 9.94531V7.93262H7.94824C8.27816 7.93252 8.55166 7.69568 8.61035 7.38281C8.61975 7.33783 8.62499 7.29177 8.625 7.24512C8.625 7.06619 8.5542 6.89415 8.42773 6.76758C8.30119 6.64104 8.12915 6.57036 7.9502 6.57031H5.25ZM14.8916 7.12109C14.7281 7.12125 14.5803 7.22019 14.5176 7.37109C14.455 7.52225 14.49 7.69667 14.6055 7.8125L16.7656 9.97266C16.9238 10.1307 17.1798 10.1308 17.3379 9.97266L19.498 7.8125C19.6137 7.69667 19.6486 7.52234 19.5859 7.37109C19.5231 7.22026 19.3753 7.12122 19.2119 7.12109H14.8916Z" fill="black"/>
</svg>
