<svg width="24" height="24" viewBox="0 0 24 24" fill="none" xmlns="http://www.w3.org/2000/svg">
<path fill-rule="evenodd" clip-rule="evenodd" d="M20 17.5996C20.4142 17.5996 20.75 17.9354 20.75 18.3496V21.25C20.7498 21.664 20.4141 22 20 22H4C3.58592 22 3.25021 21.664 3.25 21.25V18.3496C3.25 17.9354 3.58579 17.5996 4 17.5996H20ZM9.75098 19.0508C9.33676 19.0508 9.00098 19.3866 9.00098 19.8008C9.00098 20.215 9.33676 20.5508 9.75098 20.5508H14.249C14.6631 20.5506 14.999 20.2149 14.999 19.8008C14.999 19.3866 14.6631 19.0509 14.249 19.0508H9.75098Z" fill="black"/>
<path fill-rule="evenodd" clip-rule="evenodd" d="M21.75 4.09961C22.1478 4.09961 22.5292 4.25776 22.8105 4.53906C23.0919 4.82037 23.25 5.20179 23.25 5.59961V14.5996C23.25 14.9974 23.0919 15.3788 22.8105 15.6602C22.5292 15.9415 22.1478 16.0996 21.75 16.0996H13.5C13.0858 16.0996 12.75 15.7638 12.75 15.3496V4.84961C12.75 4.4354 13.0858 4.09961 13.5 4.09961H21.75ZM15.2949 8.74902L17.4727 10.9277L18.0039 11.458L20.7119 8.74902H15.2949Z" fill="black"/>
<path fill-rule="evenodd" clip-rule="evenodd" d="M9.75 2.75V4.09961H2.25C1.85217 4.09961 1.47076 4.25776 1.18945 4.53906C0.908146 4.82037 0.75 5.20179 0.75 5.59961V14.5996C0.75 14.9974 0.908146 15.3788 1.18945 15.6602C1.47076 15.9415 1.85218 16.0996 2.25 16.0996H10.5C10.9142 16.0996 11.25 15.7638 11.25 15.3496V4.84961V2.75C11.25 2.33579 10.9142 2 10.5 2C10.0858 2 9.75 2.33579 9.75 2.75ZM4.50098 7.88281C4.0868 7.88281 3.75 8.21864 3.75 8.63281C3.75 9.04698 4.0868 9.38281 4.50098 9.38281H5.25098V11.6328C5.25114 12.0468 5.5869 12.3828 6.00098 12.3828C6.4146 12.3823 6.75081 12.0465 6.75098 11.6328V9.38281H7.50098C7.91456 9.38212 8.25098 9.04656 8.25098 8.63281C8.25098 8.21907 7.91456 7.8835 7.50098 7.88281H4.50098Z" fill="black"/>
</svg>
