<svg viewBox="0 0 24 24" fill="none" xmlns="http://www.w3.org/2000/svg" width="24" height="24">
<path fill-rule="evenodd" clip-rule="evenodd" d="M2.983 3.819L2.476 3.266C2.175 2.935 1.663 2.911 1.332 3.212 1.002 3.513 0.978 4.025 1.278 4.356L2.528 5.73H2.49C2.116 5.73 1.757 5.878 1.492 6.142 1.228 6.407 1.08 6.766 1.08 7.14V20.1C1.08 20.331 1.213 20.541 1.421 20.641 1.629 20.74 1.877 20.712 2.057 20.567L5.9 17.46H13.192L17.478 22.176C17.779 22.506 18.291 22.531 18.622 22.231 18.953 21.93 18.977 21.417 18.676 21.086L2.983 3.819Z" fill="black"/>
<path fill-rule="evenodd" clip-rule="evenodd" d="M16.86 16.676V7.14C16.86 6.766 16.711 6.407 16.447 6.142 16.182 5.878 15.823 5.73 15.449 5.73H6.909L16.86 16.676Z" fill="black"/>
<path d="M18.498 4.92V13.662C18.517 13.977 18.778 14.227 19.097 14.227H21.27C21.644 14.227 22.002 14.077 22.267 13.813 22.531 13.548 22.679 13.19 22.679 12.816V3.906C22.679 3.532 22.531 3.173 22.267 2.909 22.003 2.644 21.644 2.496 21.27 2.496H7.495C7.164 2.496 6.895 2.765 6.895 3.096V3.516C6.895 3.819 7.12 4.069 7.412 4.11H17.688C17.721 4.11 17.753 4.112 17.785 4.116 17.964 4.137 18.132 4.218 18.261 4.347 18.403 4.489 18.487 4.679 18.497 4.879 18.498 4.892 18.498 4.906 18.498 4.92Z" fill="black"/>
</svg>