<svg width="24" height="24" viewBox="0 0 24 24" fill="none" xmlns="http://www.w3.org/2000/svg">
<path d="M16.5536 13.5H17.2894L21 16.5V4.5C21 4.30109 20.921 4.11032 20.7803 3.96967C20.6397 3.82902 20.4489 3.75 20.25 3.75H8.25C8.05109 3.75 7.86032 3.82902 7.71967 3.96967C7.57902 4.11032 7.5 4.30109 7.5 4.5V4.81661M3.25378 4.604L18.2538 21.104M16.5 9V14.7266L10.6499 8.25H15.75C15.9489 8.25 16.1397 8.32902 16.2803 8.46967C16.421 8.61032 16.5 8.80109 16.5 9ZM3.75 8.25H6.50596L15.3111 18H6.71063L3 21V9C3 8.80109 3.07902 8.61032 3.21967 8.46967C3.36032 8.32902 3.55109 8.25 3.75 8.25Z" stroke="black" stroke-width="1.5" stroke-linecap="round" stroke-linejoin="round"/>
</svg>
