<svg width="24" height="24" viewBox="0 0 24 24" fill="none" xmlns="http://www.w3.org/2000/svg">
<path d="M20.0539 19.741C20.1215 19.8136 20.1741 19.8989 20.2085 19.992C20.2429 20.0851 20.2585 20.1841 20.2543 20.2833C20.2502 20.3825 20.2264 20.4798 20.1843 20.5697C20.1423 20.6596 20.0828 20.7403 20.0094 20.807C19.9359 20.8738 19.85 20.9253 19.7565 20.9586C19.663 20.9918 19.5638 21.0062 19.4647 21.0009C19.3656 20.9956 19.2685 20.9706 19.1791 20.9275C19.0897 20.8844 19.0098 20.8239 18.9439 20.7497L17.8039 19.4963H7.78026L4.72403 22.1363L4.71653 22.1428C4.44611 22.3716 4.10323 22.4968 3.74904 22.4963C3.52869 22.4958 3.31112 22.4471 3.11154 22.3538C2.85267 22.2341 2.6337 22.0425 2.48076 21.8018C2.32782 21.5611 2.24739 21.2814 2.24905 20.9963V5.99638C2.24905 5.59856 2.40708 5.21703 2.68839 4.93573C2.96969 4.65442 3.35122 4.49639 3.74904 4.49639H4.16716L3.94404 4.25077C3.87641 4.17812 3.82388 4.09278 3.78948 3.99969C3.75508 3.90659 3.7395 3.80759 3.74364 3.70843C3.74779 3.60927 3.77157 3.51192 3.81361 3.42202C3.85566 3.33212 3.91513 3.25145 3.98858 3.1847C4.06202 3.11796 4.14799 3.06645 4.24149 3.03317C4.33499 2.99989 4.43417 2.9855 4.53327 2.99083C4.63238 2.99616 4.72944 3.02111 4.81883 3.06423C4.90822 3.10735 4.98816 3.16778 5.05403 3.24202L20.0539 19.741ZM20.2489 4.49639H9.06931C8.99635 4.49566 8.92477 4.51624 8.86333 4.55559C8.80189 4.59494 8.75326 4.65136 8.72341 4.71793C8.69356 4.7845 8.68377 4.85834 8.69526 4.93039C8.70674 5.00244 8.73899 5.06958 8.78806 5.12357L21.0927 18.6582C21.1433 18.7156 21.2102 18.7561 21.2846 18.7743C21.3589 18.7926 21.437 18.7876 21.5084 18.7602C21.5799 18.7327 21.6412 18.6841 21.6842 18.6208C21.7272 18.5574 21.7498 18.4825 21.7489 18.406V5.99638C21.7489 5.59856 21.5909 5.21703 21.3096 4.93573C21.0283 4.65442 20.6467 4.49639 20.2489 4.49639Z" fill="black"/>
</svg>
