<svg width="24" height="24" viewBox="0 0 24 24" fill="none" xmlns="http://www.w3.org/2000/svg">
<path d="M17.9989 2.25146H5.99901C5.60119 2.25146 5.21966 2.4095 4.93836 2.6908C4.65706 2.9721 4.49902 3.35363 4.49902 3.75145V20.2513C4.49902 20.6491 4.65706 21.0307 4.93836 21.312C5.21966 21.5933 5.60119 21.7513 5.99901 21.7513H17.9989C18.3967 21.7513 18.7783 21.5933 19.0596 21.312C19.3409 21.0307 19.4989 20.6491 19.4989 20.2513V3.75145C19.4989 3.35363 19.3409 2.9721 19.0596 2.6908C18.7783 2.4095 18.3967 2.25146 17.9989 2.25146ZM11.999 18.0013C11.7765 18.0013 11.559 17.9354 11.374 17.8117C11.189 17.6881 11.0448 17.5124 10.9596 17.3069C10.8745 17.1013 10.8522 16.8751 10.8956 16.6569C10.939 16.4387 11.0461 16.2382 11.2035 16.0809C11.3608 15.9235 11.5613 15.8164 11.7795 15.773C11.9977 15.7296 12.2239 15.7518 12.4295 15.837C12.635 15.9221 12.8107 16.0663 12.9344 16.2513C13.058 16.4363 13.124 16.6539 13.124 16.8764C13.124 17.1747 13.0054 17.4609 12.7945 17.6718C12.5835 17.8828 12.2973 18.0013 11.999 18.0013ZM14.9989 10.5014H8.99899C8.80008 10.5014 8.60931 10.4224 8.46866 10.2817C8.32801 10.1411 8.24899 9.95032 8.24899 9.75141C8.24899 9.5525 8.32801 9.36173 8.46866 9.22108C8.60931 9.08043 8.80008 9.00141 8.99899 9.00141H14.9989C15.1979 9.00141 15.3886 9.08043 15.5293 9.22108C15.6699 9.36173 15.7489 9.5525 15.7489 9.75141C15.7489 9.95032 15.6699 10.1411 15.5293 10.2817C15.3886 10.4224 15.1979 10.5014 14.9989 10.5014ZM14.9989 7.50142H8.99899C8.80008 7.50142 8.60931 7.42241 8.46866 7.28176C8.32801 7.14111 8.24899 6.95034 8.24899 6.75143C8.24899 6.55252 8.32801 6.36176 8.46866 6.2211C8.60931 6.08045 8.80008 6.00144 8.99899 6.00144H14.9989C15.1979 6.00144 15.3886 6.08045 15.5293 6.2211C15.6699 6.36176 15.7489 6.55252 15.7489 6.75143C15.7489 6.95034 15.6699 7.14111 15.5293 7.28176C15.3886 7.42241 15.1979 7.50142 14.9989 7.50142Z" fill="black"/>
</svg>
