<svg width="24" height="24" viewBox="0 0 24 24" fill="none" xmlns="http://www.w3.org/2000/svg">
<g clip-path="url(#clip0_2021_25263)">
<path d="M8.21592 10.4697C8.88658 10.375 9.51827 10.0883 10.036 9.64376L11.2955 6.94263C11.3033 6.26028 11.1169 5.59212 10.7583 5.0175C10.3997 4.44289 9.88414 3.98598 9.27276 3.70104L5.7891 2.07714C5.17783 1.79194 4.49639 1.69067 3.82574 1.78535C3.15508 1.88003 2.52338 2.16668 2.00568 2.61125L0.746123 5.31239C0.738329 5.99473 0.924787 6.6629 1.28335 7.23751C1.64191 7.81213 2.15751 8.26904 2.7689 8.55398L6.25256 10.1779C6.86382 10.4631 7.54526 10.5643 8.21592 10.4697Z" fill="black"/>
<path d="M3.7205 1.04286C4.5343 0.927973 5.36281 1.0505 6.10624 1.39735L9.58964 3.02138C10.333 3.36785 10.9593 3.92299 11.3943 4.62001C11.8293 5.31712 12.0551 6.12662 12.0457 6.95106C12.0445 7.05768 12.0204 7.16302 11.9754 7.25966L10.7156 9.96083C10.6706 10.0574 10.6051 10.1433 10.5242 10.2128C9.89878 10.7498 9.13456 11.0979 8.32108 11.2128C7.50728 11.3277 6.67877 11.2042 5.93534 10.8573L2.45194 9.23329C1.70855 8.88676 1.08229 8.33175 0.647256 7.63466C0.212231 6.93751 -0.0135294 6.12809 -0.00411146 5.3036L0.00174792 5.2245C0.0110935 5.14535 0.0323748 5.06755 0.066201 4.99501L1.32597 2.29384L1.36308 2.22352C1.40419 2.15538 1.45674 2.09395 1.51737 2.04188C2.14274 1.50497 2.90714 1.15777 3.7205 1.04286ZM5.47245 2.75673C4.99335 2.5332 4.45797 2.45374 3.93046 2.52821C3.4517 2.59583 2.99747 2.78883 2.61112 3.08681L1.49882 5.47059C1.51891 5.95812 1.66373 6.43049 1.91972 6.84071C2.20172 7.29255 2.60665 7.65061 3.08573 7.87391L6.56913 9.49794C7.04816 9.72138 7.58371 9.80189 8.11112 9.72743C8.58973 9.65986 9.0432 9.46565 9.42948 9.16786L10.5418 6.78407C10.5216 6.29677 10.3777 5.825 10.1219 5.41493C9.83984 4.96296 9.43505 4.60408 8.95585 4.38075L5.47245 2.75673Z" fill="black"/>
<path d="M22.4998 17.2499C22.4998 16.4215 21.8282 15.7499 20.9998 15.7499C20.1714 15.75 19.4998 16.4215 19.4998 17.2499C19.4999 18.0782 20.1715 18.7498 20.9998 18.7499C21.8282 18.7499 22.4997 18.0783 22.4998 17.2499ZM4.49979 17.2499C4.49979 16.4215 3.82822 15.7499 2.99979 15.7499C2.17145 15.75 1.49979 16.4215 1.49979 17.2499C1.49987 18.0782 2.17149 18.7498 2.99979 18.7499C3.82818 18.7499 4.49972 18.0783 4.49979 17.2499ZM1.49979 14.6542C1.94134 14.3984 2.45282 14.2499 2.99979 14.2499C3.89686 14.2499 4.70004 14.6453 5.24979 15.2694C5.79952 14.6453 6.60271 14.2499 7.49979 14.2499C8.89743 14.2499 10.0689 15.2063 10.4021 16.4999H10.4998V12.7489H1.49979V14.6542ZM5.47245 2.75673C4.99335 2.5332 4.45797 2.45374 3.93046 2.52821C3.4517 2.59583 2.99747 2.78883 2.61112 3.08681L1.49979 5.46962C1.51974 5.95747 1.66357 6.43023 1.91972 6.84071C2.20172 7.29255 2.60665 7.65061 3.08573 7.87391L6.56913 9.49794C7.04816 9.72138 7.58371 9.80189 8.11112 9.72743C8.58973 9.65986 9.0432 9.46565 9.42948 9.16786L10.5418 6.78407C10.5216 6.29677 10.3777 5.825 10.1219 5.41493C9.83984 4.96296 9.43505 4.60408 8.95585 4.38075L5.47245 2.75673ZM6.00761 17.4032C6.08445 18.1595 6.72325 18.7498 7.49979 18.7499C8.32818 18.7499 8.99972 18.0783 8.99979 17.2499C8.99979 16.4215 8.32822 15.7499 7.49979 15.7499C6.72316 15.75 6.08433 16.3401 6.00761 17.0966L5.99979 17.2499L6.00761 17.4032ZM23.9959 17.4042C23.9155 18.9893 22.6049 20.2499 20.9998 20.2499C19.6024 20.2498 18.4318 19.2932 18.0984 17.9999H10.4012C10.0677 19.2932 8.89725 20.2499 7.49979 20.2499C6.60253 20.2498 5.79953 19.8538 5.24979 19.2294C4.70003 19.8537 3.89705 20.2499 2.99979 20.2499C1.34307 20.2498 -0.000130486 18.9066 -0.00020521 17.2499C-0.00020521 17.1942 0.00168469 17.1388 0.0046776 17.0839C0.00180864 17.0572 -0.000200267 17.0302 -0.00020521 17.0028V12.3563C-3.99104e-05 11.8146 0.427377 11.5314 0.647256 11.4266C0.912437 11.3004 1.21927 11.2489 1.49979 11.2489H7.5828C7.0149 11.2298 6.45439 11.0995 5.93534 10.8573L2.45194 9.23329C1.70855 8.88676 1.08229 8.33175 0.647256 7.63466C0.212231 6.93751 -0.0135294 6.12809 -0.00411146 5.3036L0.00174792 5.2245C0.0110935 5.14535 0.0323748 5.06755 0.066201 4.99501L1.32597 2.29384L1.36308 2.22352C1.40419 2.15538 1.45674 2.09395 1.51737 2.04188C2.14274 1.50497 2.90714 1.15777 3.7205 1.04286C4.5343 0.927973 5.36281 1.0505 6.10624 1.39735L9.58964 3.02138C10.333 3.36785 10.9593 3.92299 11.3943 4.62001C11.8293 5.31712 12.0551 6.12662 12.0457 6.95106C12.0445 7.05768 12.0204 7.16302 11.9754 7.25966L10.7156 9.96083C10.6706 10.0574 10.6051 10.1433 10.5242 10.2128C9.89878 10.7498 9.13456 11.0979 8.32108 11.2128C8.16851 11.2343 8.01502 11.244 7.8621 11.2489H11.2498C11.6639 11.2489 11.9996 11.5849 11.9998 11.9989V16.4999H13.4998V5.24989C13.4998 4.85214 13.658 4.47063 13.9392 4.18934C14.2205 3.90808 14.602 3.74994 14.9998 3.74989H15.7498C17.1422 3.74989 18.4781 4.30245 19.4627 5.287C20.4473 6.27157 20.9998 7.60751 20.9998 8.99989V9.07509C21.715 9.22103 22.3773 9.57469 22.9012 10.0985C23.6044 10.8018 23.9998 11.7553 23.9998 12.7499V17.2499L23.9959 17.4042ZM14.9998 16.4999H18.0984C18.4317 15.2064 19.6023 14.25 20.9998 14.2499C21.5467 14.2499 22.0583 14.3985 22.4998 14.6542V12.7499C22.4998 12.1532 22.2626 11.581 21.8406 11.1591C21.4187 10.7371 20.8465 10.4999 20.2498 10.4999C19.8357 10.4998 19.4999 10.164 19.4998 9.74989V8.99989C19.4998 8.00533 19.1044 7.05178 18.4012 6.34852C17.6979 5.64527 16.7444 5.24989 15.7498 5.24989H14.9998V16.4999Z" fill="black"/>
<path d="M20.25 9.74989V8.99989C20.25 7.80642 19.7759 6.66182 18.932 5.81791C18.0881 4.974 16.9435 4.49989 15.75 4.49989H15C14.8011 4.49989 14.6104 4.57891 14.4697 4.71956C14.3291 4.86021 14.25 5.05098 14.25 5.24989V17.2499H18.75C18.75 16.6532 18.9871 16.0809 19.409 15.6589C19.831 15.2369 20.4033 14.9999 21 14.9999C21.5968 14.9999 22.1691 15.2369 22.591 15.6589C23.013 16.0809 23.25 16.6532 23.25 17.2499V12.7499C23.25 11.9542 22.934 11.1912 22.3714 10.6286C21.8088 10.066 21.0457 9.74989 20.25 9.74989Z" fill="black"/>
<path d="M13.4998 5.24989C13.4998 4.85214 13.658 4.47063 13.9392 4.18934C14.2205 3.90808 14.602 3.74994 14.9998 3.74989H15.7498C17.1422 3.74989 18.4774 4.30341 19.462 5.28798C20.4465 6.27254 20.9998 7.6075 20.9998 8.99989V9.07509C21.715 9.22103 22.3773 9.57469 22.9012 10.0985C23.6044 10.8018 23.9998 11.7553 23.9998 12.7499V17.2499H22.4998C22.4998 16.8521 22.3419 16.4706 22.0606 16.1893C21.7793 15.908 21.3976 15.7499 20.9998 15.7499C20.602 15.7499 20.2208 15.908 19.9395 16.1893C19.6582 16.4706 19.4998 16.8521 19.4998 17.2499L19.5 17.9999H13.5L13.4998 5.24989ZM14.9998 16.4999H18.0996C18.2326 15.9858 18.497 15.5107 18.8789 15.1288C19.4416 14.5662 20.2041 14.2499 20.9998 14.2499C21.5315 14.2499 22.0475 14.3936 22.5 14.6552L22.4998 12.7499C22.4998 12.1532 22.2626 11.581 21.8406 11.1591C21.4187 10.7371 20.8465 10.4999 20.2498 10.4999H19.5L19.4998 8.99989C19.4998 8.00533 19.1044 7.05178 18.4012 6.34852C17.6979 5.64527 16.7444 5.24989 15.7498 5.24989H14.9998V16.4999Z" fill="black"/>
<path d="M10.5 17.2499C10.5 15.593 9.15665 14.2499 7.49979 14.2499C6.60378 14.2499 5.79969 14.6427 5.24998 15.2655C4.70027 14.6427 3.89581 14.2499 2.99979 14.2499C2.45336 14.2499 1.94124 14.396 1.49998 14.6512L1.49979 12.7489H10.4998L10.5 17.0033C10.5 17.0897 10.5147 17.1727 10.5416 17.2499H10.5Z" fill="black"/>
<path d="M11.25 11.9994V17.0033L11.5976 18.0004H9.74998V17.2504C9.74998 16.0077 8.74262 15.0004 7.49998 15.0004C6.82807 15.0004 6.22586 15.2937 5.81248 15.7621L5.24998 16.3988L4.68748 15.7621C4.2741 15.2937 3.67189 15.0004 2.99998 15.0004C2.58909 15.0004 2.20604 15.1093 1.87595 15.3002L0.749978 15.9516V11.9994H11.25ZM2.24998 13.5746C2.4925 13.5253 2.74342 13.5004 2.99998 13.5004C3.84405 13.5004 4.62355 13.7791 5.24998 14.2494C5.8764 13.7791 6.6559 13.5004 7.49998 13.5004C8.34393 13.5004 9.12333 13.7779 9.74998 14.2484V13.4994H2.24998V13.5746Z" fill="black"/>
</g>
<defs>
<clipPath id="clip0_2021_25263">
<rect width="24" height="24" fill="white"/>
</clipPath>
</defs>
</svg>
