<?xml version="1.0" encoding="utf-8"?>
<svg xmlns="http://www.w3.org/2000/svg" width="512" height="512" viewBox="0 0 512 512">
<path d="m479.16,270.31l-28.95-57.89c-1.35-2.71-4.12-4.42-7.15-4.42h-83.06c-4.42,0-8,3.58-8,8v120h-32v-24c0-4.42-3.58-8-8-8H40c-4.42,0-8,3.58-8,8v48c0,4.42,3.58,8,8,8h10.73c6.59,18.64,24.37,32,45.27,32s38.68-13.36,45.27-32h37.46c6.59,18.64,24.37,32,45.27,32s38.68-13.36,45.27-32h101.46c6.59,18.64,24.37,32,45.27,32s38.68-13.36,45.27-32h10.73c4.42,0,8-3.58,8-8v-86.11c0-1.24-.29-2.47-.84-3.58Zm-399.16,81.69c0-8.82,7.18-16,16-16s16,7.18,16,16-7.18,16-16,16-16-7.18-16-16Zm144,16c-8.82,0-16-7.18-16-16s7.18-16,16-16,16,7.18,16,16-7.18,16-16,16Zm192,0c-8.82,0-16-7.18-16-16s7.18-16,16-16,16,7.18,16,16-7.18,16-16,16Zm-32-96v-32h48l16,32h-64Zm-88,16h-104l-96-48-64-79.36,24-48.64h104l96,44,64,83-24,49Z"/>
</svg>
