<svg width="24" height="24" viewBox="0 0 24 24" fill="none" xmlns="http://www.w3.org/2000/svg">
<g clip-path="url(#clip0_2021_26212)">
<path d="M23.0294 8.02954L20.0295 11.0295C19.8887 11.1703 19.6979 11.2493 19.4988 11.2493C19.2998 11.2493 19.1089 11.1703 18.9682 11.0295C18.8275 10.8888 18.7484 10.6979 18.7484 10.4989C18.7484 10.2999 18.8275 10.109 18.9682 9.96828L20.6885 8.24892H19.4988C15.8736 8.24892 15.1311 10.0302 14.1908 12.2876C13.2223 14.6126 12.1236 17.2488 7.49893 17.2488H7.40518C7.22264 17.9558 6.78851 18.572 6.18418 18.9818C5.57985 19.3916 4.84681 19.5669 4.12246 19.4749C3.3981 19.3829 2.73217 19.0299 2.24948 18.482C1.76679 17.9341 1.50049 17.229 1.50049 16.4989C1.50049 15.7687 1.76679 15.0636 2.24948 14.5157C2.73217 13.9678 3.3981 13.6148 4.12246 13.5228C4.84681 13.4308 5.57985 13.6061 6.18418 14.0159C6.78851 14.4257 7.22264 15.0419 7.40518 15.7489H7.49893C11.1242 15.7489 11.8667 13.9676 12.807 11.7101C13.7801 9.38516 14.8742 6.74893 19.4988 6.74893H20.6885L18.9682 5.02957C18.8275 4.88884 18.7484 4.69797 18.7484 4.49895C18.7484 4.29992 18.8275 4.10905 18.9682 3.96833C19.1089 3.8276 19.2998 3.74854 19.4988 3.74854C19.6979 3.74854 19.8887 3.8276 20.0295 3.96833L23.0294 6.9683C23.0992 7.03796 23.1545 7.12067 23.1922 7.21172C23.23 7.30277 23.2494 7.40036 23.2494 7.49892C23.2494 7.59748 23.23 7.69508 23.1922 7.78613C23.1545 7.87717 23.0992 7.95989 23.0294 8.02954Z" fill="black"/>
</g>
<defs>
<clipPath id="clip0_2021_26212">
<rect width="23.9998" height="23.9998" fill="white"/>
</clipPath>
</defs>
</svg>
