<svg width="24" height="24" viewBox="0 0 24 24" fill="none" xmlns="http://www.w3.org/2000/svg">
<path d="M18.7489 14.6286C18.7489 15.2379 18.0617 15.7536 17.2489 15.7536C16.4361 15.7536 15.7489 15.2379 15.7489 14.6286C15.7489 14.0192 16.4361 13.5036 17.2489 13.5036C18.0617 13.5036 18.7489 14.0192 18.7489 14.6286ZM21.7489 5.25365V18.7535C21.7489 19.1514 21.5908 19.5329 21.3095 19.8142C21.0282 20.0955 20.6467 20.2535 20.2489 20.2535H3.74901C3.35119 20.2535 2.96966 20.0955 2.68836 19.8142C2.40706 19.5329 2.24902 19.1514 2.24902 18.7535V5.25365C2.24902 4.85583 2.40706 4.4743 2.68836 4.193C2.96966 3.9117 3.35119 3.75366 3.74901 3.75366H20.2489C20.6467 3.75366 21.0282 3.9117 21.3095 4.193C21.5908 4.4743 21.7489 4.85583 21.7489 5.25365ZM13.4399 16.2111L9.31491 6.46114C9.25755 6.32529 9.16141 6.20936 9.03852 6.12785C8.91563 6.04635 8.77144 6.00287 8.62397 6.00287C8.47651 6.00287 8.33232 6.04635 8.20943 6.12785C8.08654 6.20936 7.9904 6.32529 7.93304 6.46114L3.80807 16.2111C3.7305 16.3943 3.7289 16.6009 3.80362 16.7853C3.87834 16.9697 4.02326 17.1169 4.20651 17.1945C4.38976 17.2721 4.59631 17.2737 4.78074 17.199C4.96517 17.1242 5.11236 16.9793 5.18994 16.7961L6.26524 14.2536H10.9827L12.058 16.7961C12.1356 16.9793 12.2828 17.1242 12.4672 17.199C12.6516 17.2737 12.8582 17.2721 13.0414 17.1945C13.2247 17.1169 13.3696 16.9697 13.4443 16.7853C13.5191 16.6009 13.5175 16.3943 13.4399 16.2111ZM20.2489 11.6286C20.2489 10.1811 18.9026 9.00362 17.2489 9.00362C16.5492 8.99845 15.8664 9.21796 15.3008 9.62987C15.1413 9.74872 15.0355 9.92606 15.0068 10.1229C14.9781 10.3197 15.0287 10.5199 15.1475 10.6794C15.2664 10.8389 15.4437 10.9446 15.6405 10.9734C15.8374 11.0021 16.0375 10.9515 16.197 10.8327C16.5036 10.6136 16.8722 10.4983 17.2489 10.5036C18.0514 10.5036 18.7301 11.0061 18.7489 11.6061V12.3561C18.2837 12.122 17.7697 12.0012 17.2489 12.0036C15.5952 12.0036 14.2489 13.1811 14.2489 14.6286C14.2489 16.0761 15.5952 17.2536 17.2489 17.2536C17.8031 17.2561 18.3491 17.1187 18.8361 16.8542C18.9144 17.0021 19.04 17.1196 19.1929 17.1879C19.3457 17.2563 19.517 17.2715 19.6795 17.2311C19.842 17.1908 19.9864 17.0973 20.0895 16.9654C20.1927 16.8336 20.2488 16.671 20.2489 16.5036V11.6286ZM6.89993 12.7536H10.348L8.62397 8.67831L6.89993 12.7536Z" fill="black"/>
</svg>
