<svg width="24" height="24" viewBox="0 0 24 24" fill="none" xmlns="http://www.w3.org/2000/svg">
<path d="M6.51953 13.1758C7.32262 13.1758 7.79883 13.726 7.79883 14.2031C7.79829 14.6801 7.32216 15.2304 6.51953 15.2305C5.71696 15.2304 5.24078 14.68 5.24023 14.2031C5.24023 13.726 5.71651 13.1759 6.51953 13.1758Z" fill="black"/>
<path d="M17.1152 12.6914H13.7471L15.4307 9.10938L17.1152 12.6914Z" fill="black"/>
<path fill-rule="evenodd" clip-rule="evenodd" d="M20.25 3.75C20.6478 3.75 21.0292 3.90815 21.3105 4.18945C21.5919 4.47076 21.75 4.85218 21.75 5.25V18.75C21.75 19.1478 21.5919 19.5292 21.3105 19.8105C21.0292 20.0919 20.6478 20.25 20.25 20.25H3.75C3.35218 20.25 2.97076 20.0919 2.68945 19.8105C2.40815 19.5292 2.25 19.1478 2.25 18.75V5.25C2.25 4.85218 2.40815 4.47076 2.68945 4.18945C2.97076 3.90815 3.35218 3.75 3.75 3.75H20.25ZM6.51953 9.64355C5.82054 9.6436 5.04113 9.80021 4.46875 10.3691C4.17525 10.6611 4.17409 11.136 4.46582 11.4297C4.75775 11.723 5.23268 11.7252 5.52637 11.4336C5.69718 11.2638 6.00618 11.1436 6.51953 11.1436C7.19716 11.1436 7.64128 11.5362 7.76367 11.9453C7.38084 11.7713 6.95464 11.6758 6.51953 11.6758C5.08103 11.6759 3.74023 12.717 3.74023 14.2031C3.74073 15.6888 5.08129 16.7304 6.51953 16.7305C7.01447 16.7304 7.49679 16.6041 7.91797 16.3818C8.05117 16.5904 8.28398 16.7305 8.5498 16.7305C8.96343 16.7302 9.29929 16.394 9.2998 15.9805V12.1709C9.29971 10.6851 7.95784 9.64361 6.51953 9.64355ZM15.4316 6.59668C15.1774 6.59668 14.9431 6.72537 14.8057 6.93359L14.7529 7.02734L10.6934 15.6611C10.5174 16.0358 10.6781 16.4829 11.0527 16.6592C11.4273 16.8351 11.8743 16.674 12.0508 16.2998L13.042 14.1914H17.8203L18.8115 16.2998C18.988 16.6741 19.435 16.8352 19.8096 16.6592C20.1842 16.483 20.3448 16.0359 20.1689 15.6611L16.1104 7.02734C15.9868 6.76453 15.722 6.5969 15.4316 6.59668Z" fill="black"/>
</svg>
