<svg viewBox="0 0 24 24" fill="none" xmlns="http://www.w3.org/2000/svg" width="24" height="24">
<path d="M17.507 12.811H13.782L15.645 8.409 17.507 12.811Z" fill="black"/>
<path d="M6.321 13.62C7.199 13.62 7.941 14.177 7.941 14.835 7.941 15.493 7.199 16.05 6.321 16.05 5.443 16.05 4.7 15.493 4.7 14.835 4.7 14.177 5.443 13.62 6.321 13.62Z" fill="black"/>
<path fill-rule="evenodd" clip-rule="evenodd" d="M20.91 3.09C21.339 3.09 21.752 3.261 22.056 3.565 22.359 3.869 22.53 4.28 22.53 4.71V19.29C22.53 19.72 22.36 20.133 22.056 20.436 21.752 20.74 21.339 20.91 20.91 20.91H3.09C2.661 20.91 2.248 20.74 1.944 20.436 1.64 20.133 1.47 19.72 1.47 19.29V4.71C1.47 4.28 1.641 3.869 1.944 3.565 2.248 3.261 2.661 3.09 3.09 3.09H20.91ZM15.645 5.52C15.485 5.52 15.33 5.566 15.197 5.654 15.064 5.742 14.96 5.867 14.898 6.014L10.443 16.545C10.359 16.742 10.357 16.965 10.438 17.164 10.519 17.364 10.676 17.523 10.874 17.606 11.072 17.69 11.295 17.692 11.494 17.611 11.693 17.53 11.852 17.374 11.936 17.176L13.097 14.43H18.192L19.353 17.176C19.437 17.374 19.596 17.53 19.795 17.611 19.995 17.692 20.217 17.69 20.415 17.606 20.613 17.522 20.769 17.364 20.85 17.164 20.931 16.965 20.929 16.742 20.845 16.545L16.391 6.014C16.329 5.867 16.225 5.742 16.092 5.654 15.96 5.566 15.804 5.52 15.645 5.52ZM6.321 8.76C5.565 8.754 4.827 8.991 4.216 9.436 4.044 9.564 3.93 9.757 3.899 9.969 3.868 10.181 3.923 10.397 4.051 10.569 4.18 10.741 4.372 10.856 4.584 10.887 4.797 10.918 5.012 10.864 5.184 10.736 5.515 10.499 5.914 10.374 6.321 10.379 7.188 10.379 7.92 10.923 7.941 11.571V12.381C7.438 12.128 6.883 11.997 6.321 12 4.535 12 3.081 13.272 3.081 14.835 3.081 16.398 4.535 17.67 6.321 17.67 6.92 17.672 7.51 17.524 8.036 17.238 8.12 17.398 8.255 17.525 8.42 17.599 8.585 17.673 8.771 17.69 8.946 17.646 9.122 17.603 9.278 17.501 9.389 17.359 9.5 17.217 9.561 17.041 9.561 16.86V11.595C9.561 10.031 8.107 8.76 6.321 8.76Z" fill="black"/>
</svg>