<svg width="24" height="24" viewBox="0 0 24 24" fill="none" xmlns="http://www.w3.org/2000/svg">
<path d="M16.1313 12.6036L19.461 12.6036L17.0851 10.4265L16.973 10.3118C16.8669 10.1913 16.7804 10.054 16.7175 9.90548C16.6338 9.70792 16.5932 9.49477 16.5989 9.28029C16.6048 9.06554 16.6572 8.85418 16.7516 8.66123C16.8461 8.46824 16.9805 8.29718 17.1466 8.16084L17.1613 8.14914L20.6159 5.46025C20.8644 5.17145 20.9949 4.79912 20.9782 4.41732C20.9608 4.01988 20.7865 3.64559 20.4932 3.37683C20.1999 3.10806 19.8118 2.96698 19.4144 2.98433C19.0326 3.001 18.6737 3.16408 18.4077 3.43678L16.0294 7.112L16.019 7.12766C15.8977 7.30501 15.739 7.45375 15.555 7.56471C15.371 7.67562 15.165 7.74623 14.9516 7.77077C14.7384 7.7952 14.5225 7.77332 14.3184 7.70717C14.114 7.64087 13.9258 7.5315 13.7674 7.38633L10.4496 4.34617C10.303 4.21179 10.1089 4.14125 9.91022 4.14993C9.7115 4.1586 9.52436 4.24579 9.38997 4.39244L8.3769 5.49801L16.1313 12.6036Z" fill="black"/>
<path d="M7.82343 5.0049C7.51796 4.72514 7.04355 4.74599 6.76379 5.05145C6.48404 5.35692 6.50488 5.83134 6.81035 6.11109L7.31689 5.55799L7.82343 5.0049ZM2.25 11.0851L1.69718 10.5782C1.56271 10.7249 1.49203 10.919 1.50071 11.1178C1.50939 11.3166 1.59672 11.5038 1.74346 11.6382L2.25 11.0851ZM8.837 3.90062L8.28419 3.39378V3.39378L8.837 3.90062ZM9.87749 3.41571L9.91019 4.16499L9.91019 4.16499L9.87749 3.41571ZM10.9563 3.80814L11.4628 3.25504V3.25504L10.9563 3.80814ZM14.2741 6.84661L14.7806 6.29353L14.7806 6.29351L14.2741 6.84661ZM14.5494 7.00699L14.3181 7.72043L14.3181 7.72044L14.5494 7.00699ZM14.8664 7.03865L14.9521 7.78375L14.9521 7.78375L14.8664 7.03865ZM15.3997 6.71725L16.0186 7.14091C16.0222 7.13562 16.0258 7.13027 16.0293 7.12488L15.3997 6.71725ZM17.8209 2.97805L17.2681 2.47121C17.2398 2.50208 17.2141 2.53526 17.1914 2.57042L17.8209 2.97805ZM20.9999 2.83933L21.5064 2.28624L20.9999 2.83933ZM21.7276 4.3992L22.4769 4.36647V4.36647L21.7276 4.3992ZM21.1386 6.01652L21.5993 6.60839C21.6323 6.58267 21.6632 6.55423 21.6915 6.52337L21.1386 6.01652ZM17.6226 8.75302L17.162 8.16115C17.1569 8.1651 17.1519 8.1691 17.1469 8.17317L17.6226 8.75302ZM17.3488 9.31202L16.599 9.2916L16.599 9.2916L17.3488 9.31202ZM17.408 9.62495L16.7175 9.91779L16.7175 9.9178L17.408 9.62495ZM17.5918 9.88508L18.0983 9.33198L18.0983 9.33197L17.5918 9.88508ZM20.403 13.4766C20.7085 13.7564 21.1829 13.7356 21.4626 13.4301C21.7424 13.1246 21.7216 12.6502 21.4161 12.3705L20.9095 12.9236L20.403 13.4766ZM3.90893 12.6034C3.62901 12.9088 3.64959 13.3832 3.9549 13.6631C4.26021 13.943 4.73464 13.9225 5.01457 13.6171L4.46175 13.1103L3.90893 12.6034ZM8.05472 10.3012C8.33464 9.99592 8.31406 9.52149 8.00875 9.24157C7.70344 8.96164 7.22901 8.98223 6.94909 9.28754L7.5019 9.79438L8.05472 10.3012ZM4.74996 12.6132C4.33574 12.6132 3.99996 12.949 3.99996 13.3632C3.99996 13.7774 4.33574 14.1132 4.74996 14.1132V13.3632V12.6132ZM21.75 14.1132C22.1642 14.1132 22.5 13.7774 22.5 13.3632C22.5 12.949 22.1642 12.6132 21.75 12.6132V13.3632V14.1132ZM12.75 22.5015C13.1642 22.5015 13.5 22.1657 13.5 21.7515C13.5 21.3373 13.1642 21.0015 12.75 21.0015V21.7515V22.5015ZM3.73947 18.7433V17.9933H2.98947V18.7433H3.73947ZM3.73947 18.7479V19.4979H4.48947V18.7479H3.73947ZM3.00001 14.7515C3.00001 14.3373 2.66422 14.0015 2.25001 14.0015C1.83579 14.0015 1.50001 14.3373 1.50001 14.7515H2.25001H3.00001ZM3.72022 18.7478L3.72982 17.9979H3.72981L3.72022 18.7478ZM5.98578 16.3441C5.98578 15.9299 5.64999 15.5941 5.23578 15.5941C4.82157 15.5941 4.48578 15.9299 4.48578 16.3441H5.23578H5.98578ZM16.1313 12.6036L15.6246 13.1565L15.8396 13.3536H16.1313L16.1313 12.6036ZM19.461 12.6036V13.3536L21.3896 13.3536L19.9677 12.0506L19.461 12.6036ZM17.0851 10.4265L16.5489 10.9508L16.5633 10.9656L16.5784 10.9794L17.0851 10.4265ZM16.973 10.3118L16.4101 10.8075L16.4231 10.8222L16.4367 10.8362L16.973 10.3118ZM16.7175 9.90548L16.0269 10.198L16.0269 10.1982L16.7175 9.90548ZM16.5989 9.28029L15.8492 9.25988L15.8492 9.26016L16.5989 9.28029ZM16.7516 8.66123L16.078 8.3314L16.078 8.33147L16.7516 8.66123ZM17.1466 8.16084L16.6793 7.57406L16.6707 7.58113L17.1466 8.16084ZM17.1613 8.14914L16.7006 7.55725L16.6941 7.56243L17.1613 8.14914ZM20.6159 5.46025L21.0766 6.0521L21.1356 6.00614L21.1844 5.94942L20.6159 5.46025ZM20.9782 4.41732L20.2289 4.45004V4.45004L20.9782 4.41732ZM20.4932 3.37683L19.9865 3.92979L19.9865 3.92979L20.4932 3.37683ZM19.4144 2.98433L19.4471 3.73362L19.4471 3.73362L19.4144 2.98433ZM18.4077 3.43678L17.8709 2.91305L17.8187 2.96656L17.778 3.02932L18.4077 3.43678ZM16.0294 7.112L16.6547 7.52624L16.6591 7.51947L16.0294 7.112ZM16.019 7.12766L16.6381 7.55123L16.6443 7.54188L16.019 7.12766ZM15.555 7.56471L15.9422 8.20703L15.9423 8.20698L15.555 7.56471ZM14.9516 7.77077L15.037 8.51589L15.0373 8.51586L14.9516 7.77077ZM14.3184 7.70717L14.087 8.42058L14.0872 8.42065L14.3184 7.70717ZM13.7674 7.38633L14.2741 6.83338L14.2741 6.83337L13.7674 7.38633ZM10.4496 4.34617L9.94293 4.89913L9.94293 4.89913L10.4496 4.34617ZM9.91022 4.14993L9.8775 3.40064V3.40064L9.91022 4.14993ZM9.38997 4.39244L8.83702 3.88575L8.83702 3.88575L9.38997 4.39244ZM8.3769 5.49801L7.82395 4.99132L7.31725 5.54428L7.87021 6.05097L8.3769 5.49801ZM15.8689 13.3901L16.3754 12.837L7.82343 5.0049L7.31689 5.55799L6.81035 6.11109L15.3623 13.9432L15.8689 13.3901ZM4.73487 13.3608L5.24141 12.8077L2.75654 10.532L2.25 11.0851L1.74346 11.6382L4.22833 13.9139L4.73487 13.3608ZM2.25 11.0851L2.80282 11.5919L9.38982 4.40747L8.837 3.90062L8.28419 3.39378L1.69718 10.5782L2.25 11.0851ZM8.837 3.90062L9.38982 4.40747C9.52416 4.26094 9.71133 4.17367 9.91019 4.16499L9.87749 3.41571L9.8448 2.66642C9.24876 2.69243 8.68738 2.95401 8.28419 3.39378L8.837 3.90062ZM9.87749 3.41571L9.91019 4.16499C10.109 4.15631 10.3031 4.22695 10.4498 4.36124L10.9563 3.80814L11.4628 3.25504C11.0229 2.8521 10.4408 2.64041 9.84479 2.66642L9.87749 3.41571ZM10.9563 3.80814L10.4498 4.36124L13.7675 7.39971L14.2741 6.84661L14.7806 6.29351L11.4628 3.25504L10.9563 3.80814ZM14.2741 6.84661L13.7675 7.3997C13.9259 7.54481 14.1137 7.65418 14.3181 7.72043L14.5494 7.00699L14.7806 6.29354L14.7806 6.29353L14.2741 6.84661ZM14.5494 7.00699L14.3181 7.72044C14.5224 7.78669 14.7386 7.80827 14.9521 7.78375L14.8664 7.03865L14.7808 6.29355L14.7806 6.29354L14.5494 7.00699ZM14.8664 7.03865L14.9521 7.78375C15.1655 7.75922 15.3712 7.68915 15.5552 7.57825L15.168 6.93589L14.7809 6.29352L14.7808 6.29356L14.8664 7.03865ZM15.168 6.93589L15.5552 7.57825C15.7392 7.46736 15.8972 7.31822 16.0186 7.14091L15.3997 6.71725L14.7809 6.29358L14.7809 6.29352L15.168 6.93589ZM15.3997 6.71725L16.0293 7.12488L18.4505 3.38569L17.8209 2.97805L17.1914 2.57042L14.7702 6.30961L15.3997 6.71725ZM17.8209 2.97805L18.3737 3.4849C18.6424 3.1918 19.0168 3.01731 19.4143 2.99996L19.3816 2.25068L19.3489 1.50139C18.5542 1.53607 17.8057 1.88487 17.2681 2.47121L17.8209 2.97805ZM19.3816 2.25068L19.4143 2.99996C19.8119 2.98262 20.2 3.12384 20.4933 3.39243L20.9999 2.83933L21.5064 2.28624C20.9198 1.74898 20.1437 1.46671 19.3489 1.50139L19.3816 2.25068ZM21.7276 4.3992L20.9783 4.43193C20.9957 4.82891 20.8545 5.21659 20.5858 5.50968L21.1386 6.01652L21.6915 6.52337C22.2291 5.93702 22.5116 5.16116 22.4769 4.36647L21.7276 4.3992ZM21.1386 6.01652L20.678 5.42466L17.162 8.16115L17.6226 8.75302L18.0833 9.34489L21.5993 6.60839L21.1386 6.01652ZM17.6226 8.75302L17.1469 8.17317C16.9808 8.30945 16.8459 8.47982 16.7514 8.67278L17.4249 9.00277L18.0984 9.33275L18.0983 9.33287L17.6226 8.75302ZM17.4249 9.00277L16.7514 8.67278C16.6569 8.86574 16.6049 9.07678 16.599 9.2916L17.3488 9.31202L18.0985 9.33244L18.0984 9.33275L17.4249 9.00277ZM17.3488 9.31202L16.599 9.2916C16.5932 9.50642 16.6336 9.71997 16.7175 9.91779L17.408 9.62495L18.0984 9.33212L18.0985 9.33244L17.3488 9.31202ZM17.408 9.62495L16.7175 9.9178C16.8014 10.1156 16.9268 10.2931 17.0853 10.4382L17.5918 9.88508L18.0983 9.33197L18.0984 9.33211L17.408 9.62495ZM20.9999 2.83933L20.4933 3.39243C20.7866 3.66102 20.961 4.03495 20.9783 4.43193L21.7276 4.3992L22.4769 4.36647C22.4422 3.57177 22.093 2.82351 21.5064 2.28624L20.9999 2.83933ZM17.5918 9.88508L17.0853 10.4382L20.403 13.4766L20.9095 12.9236L21.4161 12.3705L18.0983 9.33198L17.5918 9.88508ZM4.46175 13.1103L5.01457 13.6171L8.05472 10.3012L7.5019 9.79438L6.94909 9.28754L3.90893 12.6034L4.46175 13.1103ZM4.74996 13.3632V14.1132L21.75 14.1132V13.3632V12.6132L4.74996 12.6132V13.3632ZM12.75 21.7515V21.0015H6.73578V21.7515V22.5015H12.75V21.7515ZM5.23578 18.7433V17.9933H3.73947V18.7433V19.4933H5.23578V18.7433ZM3.73947 18.7433H2.98947V18.7479H3.73947H4.48947V18.7433H3.73947ZM2.25001 17.2585H3.00001V17.2447H2.25001H1.50001V17.2585H2.25001ZM2.25001 17.2447H3.00001V14.7515H2.25001H1.50001V17.2447H2.25001ZM6.73578 21.7515V21.0015H6.72525V21.7515V22.5015H6.73578V21.7515ZM5.23578 20.2483H5.98578V18.7433H5.23578H4.48578V20.2483H5.23578ZM3.73947 18.7479V17.9979C3.73616 17.9979 3.73295 17.9979 3.72982 17.9979L3.72022 18.7478L3.71062 19.4977C3.72031 19.4979 3.72993 19.4979 3.73947 19.4979V18.7479ZM3.72022 18.7478L3.72981 17.9979C3.33234 17.9928 3.00001 17.6638 3.00001 17.2447H2.25001H1.50001C1.50001 18.473 2.48062 19.482 3.71063 19.4977L3.72022 18.7478ZM6.72525 21.7515V21.0015C6.32333 21.0015 5.98578 20.6708 5.98578 20.2483H5.23578H4.48578C4.48578 21.4862 5.48195 22.5015 6.72525 22.5015V21.7515ZM5.23578 18.7433H5.98578V16.3441H5.23578H4.48578V18.7433H5.23578ZM3.72022 18.7478L3.72972 17.9979C3.32594 17.9927 3.00001 17.6636 3.00001 17.2585H2.25001H1.50001C1.50001 18.4857 2.48703 19.4822 3.71072 19.4977L3.72022 18.7478ZM6.73578 21.7515V21.0015C6.32365 21.0015 5.98578 20.6646 5.98578 20.2483H5.23578H4.48578C4.48578 21.4889 5.49106 22.5015 6.73578 22.5015V21.7515ZM16.1313 12.6036L16.1313 13.3536L19.461 13.3536V12.6036V11.8536L16.1312 11.8536L16.1313 12.6036ZM19.461 12.6036L19.9677 12.0506L17.5918 9.87353L17.0851 10.4265L16.5784 10.9794L18.9543 13.1565L19.461 12.6036ZM17.0851 10.4265L17.6214 9.90212L17.5092 9.78745L16.973 10.3118L16.4367 10.8362L16.5489 10.9508L17.0851 10.4265ZM16.973 10.3118L17.5358 9.81611C17.4829 9.75601 17.4395 9.68721 17.408 9.61279L16.7175 9.90548L16.0269 10.1982C16.1213 10.4207 16.2508 10.6266 16.4101 10.8075L16.973 10.3118ZM16.7175 9.90548L17.4081 9.61298C17.366 9.51352 17.3458 9.40694 17.3487 9.30043L16.5989 9.28029L15.8492 9.26016C15.8405 9.58261 15.9016 9.90231 16.0269 10.198L16.7175 9.90548ZM16.5989 9.28029L17.3487 9.3007C17.3516 9.19421 17.3776 9.08826 17.4252 8.99099L16.7516 8.66123L16.078 8.33147C15.9367 8.6201 15.858 8.93687 15.8492 9.25988L16.5989 9.28029ZM16.7516 8.66123L17.4252 8.99106C17.4733 8.89285 17.5408 8.80752 17.6224 8.74056L17.1466 8.16084L16.6707 7.58113C16.4201 7.78684 16.2189 8.04363 16.078 8.3314L16.7516 8.66123ZM17.1466 8.16084L17.6137 8.74756L17.6284 8.73586L17.1613 8.14914L16.6941 7.56243L16.6794 7.57413L17.1466 8.16084ZM17.1613 8.14914L17.6219 8.741L21.0766 6.0521L20.6159 5.46025L20.1553 4.8684L16.7006 7.55729L17.1613 8.14914ZM20.6159 5.46025L21.1844 5.94942C21.5563 5.51728 21.7526 4.95872 21.7275 4.38461L20.9782 4.41732L20.2289 4.45004C20.2372 4.63952 20.1726 4.82563 20.0474 4.97108L20.6159 5.46025ZM20.9782 4.41732L21.7275 4.38461C21.7015 3.78864 21.44 3.22716 20.9999 2.82387L20.4932 3.37683L19.9865 3.92979C20.133 4.06403 20.2202 4.25111 20.2289 4.45004L20.9782 4.41732ZM20.4932 3.37683L20.9999 2.82387C20.5598 2.42058 19.9776 2.20903 19.3817 2.23505L19.4144 2.98433L19.4471 3.73362C19.646 3.72493 19.84 3.79554 19.9865 3.92979L20.4932 3.37683ZM19.4144 2.98433L19.3817 2.23505C18.8063 2.26017 18.268 2.50593 17.8709 2.91305L18.4077 3.43678L18.9445 3.96051C19.0795 3.82222 19.2589 3.74183 19.4471 3.73362L19.4144 2.98433ZM18.4077 3.43678L17.778 3.02932L15.3998 6.70454L16.0294 7.112L16.6591 7.51947L19.0374 3.84424L18.4077 3.43678ZM16.0294 7.112L15.4042 6.69779L15.3938 6.71345L16.019 7.12766L16.6443 7.54188L16.6547 7.52622L16.0294 7.112ZM16.019 7.12766L15.4001 6.70415C15.3405 6.79125 15.2613 6.86597 15.1677 6.92244L15.555 7.56471L15.9423 8.20698C16.2166 8.04153 16.4549 7.81877 16.638 7.55118L16.019 7.12766ZM15.555 7.56471L15.1678 6.9224C15.075 6.97831 14.9717 7.01351 14.8659 7.02568L14.9516 7.77077L15.0373 8.51586C15.3583 8.47894 15.667 8.37294 15.9422 8.20703L15.555 7.56471ZM14.9516 7.77077L14.8662 7.02565C14.7603 7.03778 14.6524 7.02699 14.5496 6.9937L14.3184 7.70717L14.0872 8.42065C14.3927 8.51964 14.7165 8.55262 15.037 8.51589L14.9516 7.77077ZM14.3184 7.70717L14.5498 6.99376C14.447 6.96039 14.3528 6.90548 14.2741 6.83338L13.7674 7.38633L13.2607 7.93928C13.4988 8.15753 13.7811 8.32135 14.087 8.42058L14.3184 7.70717ZM13.7674 7.38633L14.2741 6.83337L10.9563 3.79322L10.4496 4.34617L9.94293 4.89913L13.2607 7.93929L13.7674 7.38633ZM10.4496 4.34617L10.9563 3.79322C10.6629 3.52431 10.2747 3.3833 9.8775 3.40064L9.91022 4.14993L9.94293 4.89921L9.94293 4.89913L10.4496 4.34617ZM9.91022 4.14993L9.8775 3.40064C9.48027 3.41798 9.10592 3.59229 8.83702 3.88575L9.38997 4.39244L9.94293 4.89913L9.94293 4.89921L9.91022 4.14993ZM9.38997 4.39244L8.83702 3.88575L7.82395 4.99132L8.3769 5.49801L8.92986 6.0047L9.94293 4.89913L9.38997 4.39244ZM8.3769 5.49801L7.87021 6.05097L15.6246 13.1565L16.1313 12.6036L16.6379 12.0506L8.8836 4.94505L8.3769 5.49801Z" fill="black"/>
</svg>
