<svg width="24" height="24" viewBox="0 0 24 24" fill="none" xmlns="http://www.w3.org/2000/svg">
<path d="M20.2489 4.50341V8.25338C20.249 8.4018 20.2051 8.54692 20.1227 8.67037C20.0403 8.79381 19.9231 8.89003 19.786 8.94685C19.6488 9.00366 19.498 9.01851 19.3524 8.98953C19.2068 8.96054 19.0731 8.88901 18.9683 8.78401L15.2183 5.03403C15.1133 4.92914 15.0417 4.79545 15.0128 4.64989C14.9838 4.50433 14.9986 4.35344 15.0554 4.21632C15.1123 4.07921 15.2085 3.96203 15.3319 3.87963C15.4554 3.79722 15.6005 3.7533 15.7489 3.75342H19.4989C19.6978 3.75342 19.8885 3.83244 20.0292 3.97309C20.1699 4.11374 20.2489 4.3045 20.2489 4.50341ZM5.02961 15.2227C4.92472 15.1177 4.79103 15.0462 4.64547 15.0172C4.4999 14.9882 4.34901 15.0031 4.2119 15.0599C4.07478 15.1167 3.9576 15.2129 3.8752 15.3363C3.7928 15.4598 3.74888 15.6049 3.74899 15.7533V19.5033C3.74899 19.7022 3.82801 19.893 3.96866 20.0336C4.10931 20.1743 4.30008 20.2533 4.49899 20.2533H8.24896C8.39738 20.2534 8.5425 20.2095 8.66594 20.1271C8.78939 20.0447 8.88561 19.9275 8.94242 19.7904C8.99923 19.6533 9.01409 19.5024 8.9851 19.3568C8.95611 19.2113 8.88459 19.0776 8.77958 18.9727L5.02961 15.2227ZM19.7857 15.0605C19.6487 15.0037 19.4979 14.9887 19.3524 15.0176C19.2069 15.0465 19.0732 15.1179 18.9683 15.2227L15.2183 18.9727C15.1133 19.0776 15.0417 19.2113 15.0128 19.3568C14.9838 19.5024 14.9986 19.6533 15.0554 19.7904C15.1123 19.9275 15.2085 20.0447 15.3319 20.1271C15.4554 20.2095 15.6005 20.2534 15.7489 20.2533H19.4989C19.6978 20.2533 19.8885 20.1743 20.0292 20.0336C20.1699 19.893 20.2489 19.7022 20.2489 19.5033V15.7533C20.2488 15.605 20.2048 15.46 20.1224 15.3367C20.04 15.2134 19.9228 15.1173 19.7857 15.0605ZM8.24896 3.75342H4.49899C4.30008 3.75342 4.10931 3.83244 3.96866 3.97309C3.82801 4.11374 3.74899 4.3045 3.74899 4.50341V8.25338C3.74888 8.4018 3.7928 8.54692 3.8752 8.67037C3.9576 8.79381 4.07478 8.89003 4.2119 8.94685C4.34901 9.00366 4.4999 9.01851 4.64547 8.98953C4.79103 8.96054 4.92472 8.88901 5.02961 8.78401L8.77958 5.03403C8.88459 4.92914 8.95611 4.79545 8.9851 4.64989C9.01409 4.50433 8.99923 4.35344 8.94242 4.21632C8.88561 4.07921 8.78939 3.96203 8.66594 3.87963C8.5425 3.79722 8.39738 3.7533 8.24896 3.75342Z" fill="black"/>
</svg>
