<svg width="24" height="24" viewBox="0 0 24 24" fill="none" xmlns="http://www.w3.org/2000/svg">
<path d="M9.74896 9.75116H14.2489V14.2511H9.74896V9.75116ZM22.4989 14.2511C22.4989 14.45 22.4198 14.6408 22.2792 14.7815C22.1385 14.9221 21.9478 15.0011 21.7489 15.0011H20.2489V18.7511C20.2489 19.1489 20.0908 19.5304 19.8095 19.8117C19.5282 20.093 19.1467 20.2511 18.7489 20.2511H14.9989V21.7511C14.9989 21.95 14.9199 22.1407 14.7793 22.2814C14.6386 22.422 14.4478 22.5011 14.2489 22.5011C14.05 22.5011 13.8593 22.422 13.7186 22.2814C13.5779 22.1407 13.4989 21.95 13.4989 21.7511V20.2511H10.499V21.7511C10.499 21.95 10.4199 22.1407 10.2793 22.2814C10.1386 22.422 9.94787 22.5011 9.74896 22.5011C9.55005 22.5011 9.35929 22.422 9.21863 22.2814C9.07798 22.1407 8.99897 21.95 8.99897 21.7511V20.2511H5.24899C4.85117 20.2511 4.46965 20.093 4.18834 19.8117C3.90704 19.5304 3.74901 19.1489 3.74901 18.7511V15.0011H2.24902C2.05011 15.0011 1.85934 14.9221 1.71869 14.7815C1.57804 14.6408 1.49902 14.45 1.49902 14.2511C1.49902 14.0522 1.57804 13.8614 1.71869 13.7208C1.85934 13.5801 2.05011 13.5011 2.24902 13.5011H3.74901V10.5012H2.24902C2.05011 10.5012 1.85934 10.4221 1.71869 10.2815C1.57804 10.1408 1.49902 9.95007 1.49902 9.75116C1.49902 9.55225 1.57804 9.36148 1.71869 9.22083C1.85934 9.08018 2.05011 9.00116 2.24902 9.00116H3.74901V5.25119C3.74901 4.85337 3.90704 4.47184 4.18834 4.19054C4.46965 3.90924 4.85117 3.7512 5.24899 3.7512H8.99897V2.25121C8.99897 2.0523 9.07798 1.86154 9.21863 1.72089C9.35929 1.58024 9.55005 1.50122 9.74896 1.50122C9.94787 1.50122 10.1386 1.58024 10.2793 1.72089C10.4199 1.86154 10.499 2.0523 10.499 2.25121V3.7512H13.4989V2.25121C13.4989 2.0523 13.5779 1.86154 13.7186 1.72089C13.8593 1.58024 14.05 1.50122 14.2489 1.50122C14.4478 1.50122 14.6386 1.58024 14.7793 1.72089C14.9199 1.86154 14.9989 2.0523 14.9989 2.25121V3.7512H18.7489C19.1467 3.7512 19.5282 3.90924 19.8095 4.19054C20.0908 4.47184 20.2489 4.85337 20.2489 5.25119V9.00116H21.7489C21.9478 9.00116 22.1385 9.08018 22.2792 9.22083C22.4198 9.36148 22.4989 9.55225 22.4989 9.75116C22.4989 9.95007 22.4198 10.1408 22.2792 10.2815C22.1385 10.4221 21.9478 10.5012 21.7489 10.5012H20.2489V13.5011H21.7489C21.9478 13.5011 22.1385 13.5801 22.2792 13.7208C22.4198 13.8614 22.4989 14.0522 22.4989 14.2511ZM15.7489 9.00116C15.7489 8.80225 15.6699 8.61149 15.5292 8.47084C15.3886 8.33019 15.1978 8.25117 14.9989 8.25117H8.99897C8.80006 8.25117 8.60929 8.33019 8.46864 8.47084C8.32799 8.61149 8.24897 8.80225 8.24897 9.00116V15.0011C8.24897 15.2 8.32799 15.3908 8.46864 15.5314C8.60929 15.6721 8.80006 15.7511 8.99897 15.7511H14.9989C15.1978 15.7511 15.3886 15.6721 15.5292 15.5314C15.6699 15.3908 15.7489 15.2 15.7489 15.0011V9.00116Z" fill="black"/>
</svg>
