<svg xmlns="http://www.w3.org/2000/svg" fill="currentColor" viewBox="0 0 24 24" width="24" height="24"><path d="M20.1 2.28H3.9A1.62 1.62 0 0 0 2.28 3.9v16.2a1.62 1.62 0 0 0 1.62 1.62h16.2a1.62 1.62 0 0 0 1.62-1.62V3.9a1.62 1.62 0 0 0-1.62-1.62m-8.91 4.86h4.86a0.81 0.81 0 0 1 0.81 0.81v4.86a0.81 0.81 0 0 1-1.62 0V8.76h-4.05a0.81 0.81 0 0 1 0-1.62m7.29 9.72h-1.62v1.62a0.81 0.81 0 0 1-1.62 0v-1.62H7.95a0.81 0.81 0 0 1-0.81-0.81V8.76H5.52a0.81 0.81 0 0 1 0-1.62h1.62V5.52a0.81 0.81 0 0 1 1.62 0v9.72h9.72a0.81 0.81 0 0 1 0 1.62"/></svg>