<svg width="24" height="24" viewBox="0 0 24 24" fill="none" xmlns="http://www.w3.org/2000/svg">
<path d="M19.4996 3.00342H4.49974C4.10192 3.00342 3.72039 3.16145 3.43909 3.44275C3.15779 3.72406 2.99976 4.10558 2.99976 4.50341V19.5033C2.99976 19.9011 3.15779 20.2826 3.43909 20.5639C3.72039 20.8452 4.10192 21.0033 4.49974 21.0033H19.4996C19.8975 21.0033 20.279 20.8452 20.5603 20.5639C20.8416 20.2826 20.9996 19.9011 20.9996 19.5033V4.50341C20.9996 4.10558 20.8416 3.72406 20.5603 3.44275C20.279 3.16145 19.8975 3.00342 19.4996 3.00342ZM11.2497 7.50338H15.7497C15.9486 7.50338 16.1393 7.5824 16.28 7.72305C16.4206 7.8637 16.4997 8.05447 16.4997 8.25338V12.7533C16.4997 12.9523 16.4206 13.143 16.28 13.2837C16.1393 13.4243 15.9486 13.5033 15.7497 13.5033C15.5507 13.5033 15.36 13.4243 15.2193 13.2837C15.0787 13.143 14.9997 12.9523 14.9997 12.7533V9.00337H11.2497C11.0508 9.00337 10.86 8.92436 10.7194 8.7837C10.5787 8.64305 10.4997 8.45229 10.4997 8.25338C10.4997 8.05447 10.5787 7.8637 10.7194 7.72305C10.86 7.5824 11.0508 7.50338 11.2497 7.50338ZM17.9996 16.5033H16.4997V18.0033C16.4997 18.2022 16.4206 18.393 16.28 18.5336C16.1393 18.6743 15.9486 18.7533 15.7497 18.7533C15.5507 18.7533 15.36 18.6743 15.2193 18.5336C15.0787 18.393 14.9997 18.2022 14.9997 18.0033V16.5033H8.24972C8.05081 16.5033 7.86004 16.4243 7.71939 16.2836C7.57874 16.143 7.49972 15.9522 7.49972 15.7533V9.00337H5.99973C5.80082 9.00337 5.61006 8.92436 5.46941 8.7837C5.32876 8.64305 5.24974 8.45229 5.24974 8.25338C5.24974 8.05447 5.32876 7.8637 5.46941 7.72305C5.61006 7.5824 5.80082 7.50338 5.99973 7.50338H7.49972V6.0034C7.49972 5.80448 7.57874 5.61372 7.71939 5.47307C7.86004 5.33242 8.05081 5.2534 8.24972 5.2534C8.44863 5.2534 8.63939 5.33242 8.78004 5.47307C8.92069 5.61372 8.99971 5.80448 8.99971 6.0034V15.0033H17.9996C18.1986 15.0033 18.3893 15.0823 18.53 15.223C18.6706 15.3636 18.7496 15.5544 18.7496 15.7533C18.7496 15.9522 18.6706 16.143 18.53 16.2836C18.3893 16.4243 18.1986 16.5033 17.9996 16.5033Z" fill="black"/>
</svg>
