<svg viewBox="0 0 24 24" fill="none" xmlns="http://www.w3.org/2000/svg" width="24" height="24">
<path d="M15.865 15.582C16.229 15.219 16.818 15.219 17.182 15.582L22.83 21.232C23.194 21.596 23.194 22.185 22.83 22.549L21.993 23.388C21.629 23.752 21.039 23.752 20.675 23.388L15.026 17.739C14.662 17.375 14.662 16.785 15.026 16.422L15.865 15.582ZM17.841 18.836L21.334 22.329 21.772 21.891 18.28 18.397 17.841 18.836ZM12.514 17.868C12.738 17.868 12.92 18.049 12.92 18.273V19.079H13.726C13.95 19.079 14.131 19.261 14.132 19.485 14.132 19.708 13.95 19.89 13.726 19.89H12.92V20.697C12.92 20.92 12.738 21.102 12.514 21.102 12.291 21.102 12.109 20.92 12.109 20.697V19.89H11.303C11.079 19.89 10.897 19.708 10.897 19.485 10.898 19.261 11.079 19.079 11.303 19.079H12.109V18.273C12.109 18.049 12.291 17.868 12.514 17.868ZM8.161 19.298H3.18C2.684 19.298 2.281 18.895 2.28 18.398V15.037H8.161V19.298ZM13.068 11.572C13.399 11.572 13.667 11.841 13.668 12.172V13.482H14.978C15.309 13.483 15.578 13.751 15.578 14.082 15.578 14.414 15.309 14.682 14.978 14.682H13.668V15.991C13.667 16.323 13.399 16.591 13.068 16.591 12.736 16.591 12.468 16.323 12.468 15.991V14.682H11.159C10.827 14.682 10.559 14.414 10.559 14.082 10.559 13.751 10.827 13.483 11.159 13.482H12.468V12.172C12.468 11.841 12.737 11.572 13.068 11.572ZM21.72 11.896C21.885 11.896 22.02 12.03 22.02 12.196V12.806H22.631C22.797 12.806 22.931 12.941 22.931 13.106 22.931 13.272 22.797 13.406 22.631 13.406H22.02V14.018C22.019 14.183 21.885 14.318 21.72 14.318 21.554 14.318 21.42 14.183 21.42 14.018V13.406H20.809C20.643 13.406 20.509 13.272 20.509 13.106 20.509 12.941 20.643 12.806 20.809 12.806H21.42V12.196C21.42 12.03 21.554 11.896 21.72 11.896ZM8.161 13.837H2.28V10.178H8.161V13.837ZM8.161 8.978H2.28V5.618C2.28 5.121 2.683 4.718 3.18 4.718H8.161V8.978ZM14.64 8.978H9.361V4.718H14.64V8.978ZM20.821 4.718C21.317 4.718 21.721 5.121 21.721 5.618V8.978H15.84V4.718H20.821Z" fill="black"/>
</svg>