<svg xmlns="http://www.w3.org/2000/svg" fill="currentColor" viewBox="0 0 24 24" width="24" height="24"><path d="M16.86 12.81h2.383a7.301 7.301 0 0 1-6.433 6.433V16.86a0.81 0.81 0 0 0-1.62 0v2.383a7.301 7.301 0 0 1-6.433-6.433H7.14a0.81 0.81 0 0 0 0-1.62H4.757a7.301 7.301 0 0 1 6.433-6.433V7.14a0.81 0.81 0 0 0 1.62 0V4.757a7.301 7.301 0 0 1 6.433 6.433H16.86a0.81 0.81 0 0 0 0 1.62M22.53 12A10.53 10.53 0 1 1 12 1.47 10.541 10.541 0 0 1 22.53 12m-1.62 0A8.91 8.91 0 1 0 12 20.91 8.92 8.92 0 0 0 20.91 12"/></svg>