<svg width="24" height="24" viewBox="0 0 24 24" fill="none" xmlns="http://www.w3.org/2000/svg">
<path fill-rule="evenodd" clip-rule="evenodd" d="M9.375 19.5H14.625V15.375H9.375V19.5ZM20.1738 19.5C21.0443 19.4999 21.7499 18.7943 21.75 17.9238V15.375H16.125V19.5H20.1738ZM9.375 13.875H14.625V10.125H9.375V13.875ZM16.125 13.875H21.75V10.125H16.125V13.875Z" fill="black"/>
<path fill-rule="evenodd" clip-rule="evenodd" d="M4.5 15.375V13.875H7.875V10.125H4.5V8.625H7.875V6.75H9.375V8.625H14.625V6.75H16.125V8.625H21.75V6.75V6.07617C21.7499 5.20572 21.0443 4.50009 20.1738 4.5H3.82617C2.95572 4.50009 2.25009 5.20572 2.25 6.07617V17.9238C2.25009 18.7943 2.95572 19.4999 3.82617 19.5H4.5H7.875V15.375H4.5Z" fill="black"/>
</svg>
