<svg width="24" height="24" viewBox="0 0 24 24" fill="none" xmlns="http://www.w3.org/2000/svg">
<path d="M15.999 12.5518V14.0518H14.499V12.5518H15.999Z" fill="black"/>
<path fill-rule="evenodd" clip-rule="evenodd" d="M21 3.04883C21.9583 3.04883 22.5 3.93666 22.5 4.71094V19.2891C22.4996 20.0631 21.958 20.9502 21 20.9502H3C2.04201 20.9502 1.5004 20.0631 1.5 19.2891V4.71094C1.5 3.93666 2.04165 3.04883 3 3.04883H21ZM7.74902 10.3018C5.98723 10.3018 4.74902 11.926 4.74902 13.6768C4.74948 15.4272 5.98755 17.0518 7.74902 17.0518L7.75781 17.0508C8.14213 17.0461 8.52198 16.9631 8.87305 16.8066C9.22412 16.6501 9.54032 16.4233 9.80078 16.1406C10.0809 15.8361 10.0608 15.3617 9.75684 15.0811C9.4522 14.8006 8.97788 14.8204 8.69727 15.125C8.57528 15.2573 8.42706 15.3632 8.2627 15.4365C8.09925 15.5094 7.92205 15.5481 7.74316 15.5508C7.02053 15.547 6.24946 14.8212 6.24902 13.6768C6.24902 12.5288 7.02457 11.8018 7.74902 11.8018C7.92591 11.8052 8.10104 11.844 8.2627 11.916C8.42693 11.9893 8.57537 12.0953 8.69727 12.2275C8.97794 12.5316 9.45237 12.5518 9.75684 12.2715C10.0611 11.9911 10.0805 11.5166 9.80078 11.2119C9.54041 10.9293 9.22399 10.7024 8.87305 10.5459C8.52198 10.3895 8.14213 10.3065 7.75781 10.3018H7.74902ZM16.749 9.55176C16.3348 9.55176 15.999 9.88754 15.999 10.3018V11.0518H14.499V10.3018C14.499 9.88779 14.1629 9.55215 13.749 9.55176C13.3348 9.55176 12.999 9.88754 12.999 10.3018V11.0518H12.249C11.8348 11.0518 11.499 11.3875 11.499 11.8018C11.4996 12.2155 11.8351 12.5518 12.249 12.5518H12.999V14.0518H12.249C11.8348 14.0518 11.499 14.3875 11.499 14.8018C11.4996 15.2155 11.8351 15.5518 12.249 15.5518H12.999V16.3018C12.9996 16.7155 13.3351 17.0518 13.749 17.0518C14.1626 17.0514 14.4985 16.7153 14.499 16.3018V15.5518H15.999V16.3018C15.9996 16.7155 16.3351 17.0518 16.749 17.0518C17.1626 17.0514 17.4985 16.7153 17.499 16.3018V15.5518H18.249C18.6626 15.5514 18.9985 15.2153 18.999 14.8018C18.999 14.3878 18.6629 14.0522 18.249 14.0518H17.499V12.5518H18.249C18.6626 12.5514 18.9985 12.2153 18.999 11.8018C18.999 11.3878 18.6629 11.0522 18.249 11.0518H17.499V10.3018C17.499 9.88779 17.1629 9.55215 16.749 9.55176ZM5.62305 6.07031C5.00173 6.07031 4.49707 6.57497 4.49707 7.19629C4.49733 7.81739 5.00189 8.32129 5.62305 8.32129C6.24398 8.32103 6.74778 7.81722 6.74805 7.19629C6.74805 6.57513 6.24414 6.07058 5.62305 6.07031ZM11.375 6.07031C10.7538 6.07044 10.25 6.57505 10.25 7.19629C10.2503 7.8173 10.754 8.32116 11.375 8.32129C11.9959 8.32103 12.4997 7.81722 12.5 7.19629C12.5 6.57513 11.9961 6.07058 11.375 6.07031Z" fill="black"/>
</svg>
