<svg width="24" height="24" viewBox="0 0 24 24" fill="none" xmlns="http://www.w3.org/2000/svg">
<path d="M20.2489 3.75122H3.74901C3.35119 3.75122 2.96966 3.90925 2.68836 4.19056C2.40706 4.47186 2.24902 4.85339 2.24902 5.25121V18.7511C2.24902 19.1489 2.40706 19.5305 2.68836 19.8118C2.96966 20.0931 3.35119 20.2511 3.74901 20.2511H20.2489C20.6467 20.2511 21.0282 20.0931 21.3095 19.8118C21.5908 19.5305 21.7489 19.1489 21.7489 18.7511V5.25121C21.7489 4.85339 21.5908 4.47186 21.3095 4.19056C21.0282 3.90925 20.6467 3.75122 20.2489 3.75122ZM8.24898 14.6111C8.27617 15.948 8.28742 16.5011 9.74897 16.5011C9.94788 16.5011 10.1386 16.5801 10.2793 16.7208C10.4199 16.8614 10.499 17.0522 10.499 17.2511C10.499 17.45 10.4199 17.6408 10.2793 17.7814C10.1386 17.9221 9.94788 18.0011 9.74897 18.0011C6.81743 18.0011 6.77524 15.8983 6.74899 14.6411C6.7218 13.3043 6.71055 12.7512 5.249 12.7512C5.05009 12.7512 4.85933 12.6721 4.71867 12.5315C4.57802 12.3908 4.49901 12.2001 4.49901 12.0012C4.49901 11.8022 4.57802 11.6115 4.71867 11.4708C4.85933 11.3302 5.05009 11.2512 5.249 11.2512C6.71055 11.2512 6.7218 10.698 6.74899 9.36118C6.77524 8.104 6.81743 6.0012 9.74897 6.0012C9.94788 6.0012 10.1386 6.08022 10.2793 6.22087C10.4199 6.36152 10.499 6.55229 10.499 6.7512C10.499 6.95011 10.4199 7.14087 10.2793 7.28152C10.1386 7.42217 9.94788 7.50119 9.74897 7.50119C8.28742 7.50119 8.27617 8.05431 8.24898 9.39118C8.23304 10.1702 8.21054 11.2746 7.49898 12.0012C8.21054 12.7277 8.23304 13.8321 8.24898 14.6111ZM18.7489 12.7512C17.2873 12.7512 17.2761 13.3043 17.2489 14.6411C17.2227 15.8983 17.1805 18.0011 14.2489 18.0011C14.05 18.0011 13.8593 17.9221 13.7186 17.7814C13.578 17.6408 13.4989 17.45 13.4989 17.2511C13.4989 17.0522 13.578 16.8614 13.7186 16.7208C13.8593 16.5801 14.05 16.5011 14.2489 16.5011C15.7105 16.5011 15.7217 15.948 15.7489 14.6111C15.7649 13.8321 15.7874 12.7277 16.4989 12.0012C15.7864 11.2746 15.7639 10.1702 15.7489 9.39118C15.7217 8.05431 15.7105 7.50119 14.2489 7.50119C14.05 7.50119 13.8593 7.42217 13.7186 7.28152C13.578 7.14087 13.4989 6.95011 13.4989 6.7512C13.4989 6.55229 13.578 6.36152 13.7186 6.22087C13.8593 6.08022 14.05 6.0012 14.2489 6.0012C17.1805 6.0012 17.2227 8.104 17.2489 9.36118C17.2761 10.698 17.2873 11.2512 18.7489 11.2512C18.9478 11.2512 19.1386 11.3302 19.2792 11.4708C19.4199 11.6115 19.4989 11.8022 19.4989 12.0012C19.4989 12.2001 19.4199 12.3908 19.2792 12.5315C19.1386 12.6721 18.9478 12.7512 18.7489 12.7512Z" fill="black"/>
</svg>
