<svg xmlns="http://www.w3.org/2000/svg" width="24" height="24" fill="currentColor" viewBox="0 0 24 24"><path d="M20.91 3.09H3.09a1.62 1.62 0 0 0-1.62 1.62v14.58a1.62 1.62 0 0 0 1.62 1.62h17.82a1.62 1.62 0 0 0 1.62-1.62V4.71a1.62 1.62 0 0 0-1.62-1.62m-12.96 11.729c0.029 1.444 0.042 2.041 1.62 2.041a0.81 0.81 0 0 1 0 1.62c-3.166 0-3.211-2.272-3.24-3.629-0.029-1.444-0.042-2.041-1.62-2.041a0.81 0.81 0 0 1 0-1.62c1.578 0 1.591-0.598 1.62-2.041 0.029-1.357 0.074-3.629 3.24-3.629a0.81 0.81 0 0 1 0 1.62c-1.578 0-1.591 0.598-1.62 2.041-0.017 0.841-0.042 2.034-0.81 2.819 0.768 0.785 0.793 1.978 0.81 2.819m11.34-2.009c-1.578 0-1.591 0.598-1.62 2.041-0.029 1.357-0.074 3.629-3.24 3.629a0.81 0.81 0 0 1 0-1.62c1.578 0 1.591-0.598 1.62-2.041 0.017-0.841 0.042-2.034 0.81-2.819-0.769-0.785-0.794-1.978-0.81-2.819-0.029-1.444-0.042-2.041-1.62-2.041a0.81 0.81 0 0 1 0-1.62c3.166 0 3.211 2.272 3.24 3.629 0.029 1.444 0.042 2.041 1.62 2.041a0.81 0.81 0 0 1 0 1.62"/></svg>