<svg viewBox="0 0 24 24" fill="none" xmlns="http://www.w3.org/2000/svg" width="24" height="24">
<path fill-rule="evenodd" clip-rule="evenodd" d="M20.1 3.3C20.474 3.3 20.833 3.448 21.097 3.713 21.362 3.977 21.51 4.336 21.51 4.71V10.38C21.51 15.454 19.173 18.651 16.835 20.564 15.672 21.516 14.511 22.149 13.641 22.545 13.205 22.743 12.84 22.882 12.581 22.972 12.452 23.017 12.35 23.051 12.278 23.073 12.242 23.084 12.213 23.093 12.193 23.099 12.183 23.102 12.175 23.104 12.169 23.106 12.166 23.107 12.162 23.108 12.162 23.108H12.158C12.055 23.136 11.945 23.138 11.842 23.109L11.831 23.106C11.826 23.104 11.818 23.102 11.808 23.099 11.788 23.093 11.759 23.084 11.723 23.073 11.651 23.051 11.548 23.018 11.419 22.972 11.16 22.882 10.795 22.743 10.359 22.545 9.489 22.149 8.328 21.516 7.165 20.564 4.827 18.651 2.49 15.454 2.49 10.38V4.71C2.49 4.336 2.638 3.977 2.903 3.713 3.167 3.448 3.526 3.3 3.9 3.3H20.1ZM9.571 6.735C9.123 6.735 8.761 7.097 8.761 7.545 8.761 7.992 9.123 8.354 9.571 8.354H12.875L10.932 11.13C10.759 11.378 10.738 11.701 10.877 11.968 11.017 12.236 11.294 12.404 11.596 12.404 11.929 12.404 12.258 12.487 12.552 12.645 12.846 12.802 13.097 13.031 13.282 13.309 13.467 13.587 13.58 13.906 13.611 14.238 13.643 14.571 13.592 14.907 13.463 15.214 13.333 15.522 13.129 15.793 12.87 16.003 12.61 16.213 12.303 16.355 11.975 16.418 11.648 16.481 11.309 16.461 10.991 16.362 10.673 16.262 10.383 16.085 10.15 15.847 9.837 15.528 9.323 15.523 9.004 15.836 8.684 16.149 8.679 16.661 8.992 16.98 9.412 17.41 9.934 17.729 10.507 17.909 11.08 18.088 11.689 18.122 12.279 18.009 12.869 17.897 13.423 17.64 13.89 17.262 14.357 16.884 14.723 16.395 14.955 15.841 15.188 15.287 15.28 14.684 15.224 14.086 15.167 13.488 14.963 12.913 14.631 12.413 14.298 11.912 13.848 11.501 13.318 11.217 13.203 11.155 13.083 11.101 12.962 11.052L15.094 8.009C15.267 7.761 15.288 7.438 15.149 7.171 15.009 6.903 14.732 6.735 14.43 6.735H9.571Z" fill="black"/>
</svg>