<svg xmlns="http://www.w3.org/2000/svg" fill="currentColor" viewBox="0 0 24 24" width="24" height="24"><path d="M9.57 14.43v-4.86h4.86v4.86zM2.28 4.406v9.62a0.408 0.408 0 0 0 0.404 0.405h5.266V9.096L2.971 4.117a0.406 0.406 0 0 0-0.691 0.289m19.036 5.164h-5.265v5.335l4.979 4.979a0.406 0.406 0 0 0 0.691-0.289v-9.619a0.408 0.408 0 0 0-0.405-0.406m-6.885-6.886a0.408 0.408 0 0 0-0.405-0.404H4.406a0.406 0.406 0 0 0-0.286 0.691l4.975 4.979h5.335z m6.125 4.574L16.742 3.444a0.406 0.406 0 0 0-0.691 0.287v4.218h4.218a0.406 0.406 0 0 0 0.287-0.691m-5.65 8.791H9.571v5.264a0.408 0.408 0 0 0 0.406 0.405h9.619a0.406 0.406 0 0 0 0.287-0.692z m-11.46 0.691l3.814 3.814a0.406 0.406 0 0 0 0.691-0.287v-4.218H3.733a0.406 0.406 0 0 0-0.287 0.691"/></svg>