<svg width="24" height="24" viewBox="0 0 24 24" fill="none" xmlns="http://www.w3.org/2000/svg">
<path d="M20.9689 6.20118L12.7189 1.68715C12.4985 1.56535 12.2508 1.50146 11.9989 1.50146C11.7471 1.50146 11.4994 1.56535 11.279 1.68715L3.02902 6.20305C2.79341 6.33196 2.59674 6.52176 2.45954 6.75263C2.32234 6.98351 2.24963 7.24698 2.24902 7.51554V16.4817C2.24963 16.7503 2.32234 17.0138 2.45954 17.2446C2.59674 17.4755 2.79341 17.6653 3.02902 17.7942L11.279 22.3101C11.4994 22.4319 11.7471 22.4958 11.9989 22.4958C12.2508 22.4958 12.4985 22.4319 12.7189 22.3101L20.9689 17.7942C21.2045 17.6653 21.4012 17.4755 21.5384 17.2446C21.6756 17.0138 21.7483 16.7503 21.7489 16.4817V7.51648C21.7488 7.24744 21.6763 6.98338 21.5391 6.75197C21.4018 6.52056 21.2049 6.33032 20.9689 6.20118ZM11.9989 11.2496L4.46619 7.12461L11.9989 2.99964L19.5317 7.12461L11.9989 11.2496ZM12.7489 20.5908V12.5461L20.2489 8.44179V16.4817L12.7489 20.5908Z" fill="black"/>
</svg>
