<svg width="24" height="24" viewBox="0 0 24 24" fill="none" xmlns="http://www.w3.org/2000/svg">
<path d="M21.7489 4.4978V8.24777C21.7489 8.44668 21.6699 8.63744 21.5292 8.77809C21.3886 8.91875 21.1978 8.99776 20.9989 8.99776C20.8 8.99776 20.6092 8.91875 20.4686 8.77809C20.3279 8.63744 20.2489 8.44668 20.2489 8.24777V5.24779H17.2489C17.05 5.24779 16.8592 5.16877 16.7186 5.02812C16.5779 4.88747 16.4989 4.69671 16.4989 4.4978C16.4989 4.29889 16.5779 4.10812 16.7186 3.96747C16.8592 3.82682 17.05 3.7478 17.2489 3.7478H20.9989C21.1978 3.7478 21.3886 3.82682 21.5292 3.96747C21.6699 4.10812 21.7489 4.29889 21.7489 4.4978ZM6.74899 18.7477H3.74901V15.7477C3.74901 15.5488 3.66999 15.358 3.52934 15.2174C3.38869 15.0767 3.19793 14.9977 2.99902 14.9977C2.80011 14.9977 2.60934 15.0767 2.46869 15.2174C2.32804 15.358 2.24902 15.5488 2.24902 15.7477V19.4977C2.24902 19.6966 2.32804 19.8874 2.46869 20.028C2.60934 20.1687 2.80011 20.2477 2.99902 20.2477H6.74899C6.9479 20.2477 7.13866 20.1687 7.27931 20.028C7.41997 19.8874 7.49898 19.6966 7.49898 19.4977C7.49898 19.2988 7.41997 19.108 7.27931 18.9674C7.13866 18.8267 6.9479 18.7477 6.74899 18.7477ZM20.9989 14.9977C20.8 14.9977 20.6092 15.0767 20.4686 15.2174C20.3279 15.358 20.2489 15.5488 20.2489 15.7477V18.7477H17.2489C17.05 18.7477 16.8592 18.8267 16.7186 18.9674C16.5779 19.108 16.4989 19.2988 16.4989 19.4977C16.4989 19.6966 16.5779 19.8874 16.7186 20.028C16.8592 20.1687 17.05 20.2477 17.2489 20.2477H20.9989C21.1978 20.2477 21.3886 20.1687 21.5292 20.028C21.6699 19.8874 21.7489 19.6966 21.7489 19.4977V15.7477C21.7489 15.5488 21.6699 15.358 21.5292 15.2174C21.3886 15.0767 21.1978 14.9977 20.9989 14.9977ZM2.99902 8.99776C3.19793 8.99776 3.38869 8.91875 3.52934 8.77809C3.66999 8.63744 3.74901 8.44668 3.74901 8.24777V5.24779H6.74899C6.9479 5.24779 7.13866 5.16877 7.27931 5.02812C7.41997 4.88747 7.49898 4.69671 7.49898 4.4978C7.49898 4.29889 7.41997 4.10812 7.27931 3.96747C7.13866 3.82682 6.9479 3.7478 6.74899 3.7478H2.99902C2.80011 3.7478 2.60934 3.82682 2.46869 3.96747C2.32804 4.10812 2.24902 4.29889 2.24902 4.4978V8.24777C2.24902 8.44668 2.32804 8.63744 2.46869 8.77809C2.60934 8.91875 2.80011 8.99776 2.99902 8.99776ZM16.6789 7.80808L12.3739 5.34623C12.2606 5.28144 12.1323 5.24736 12.0018 5.24736C11.8712 5.24736 11.7429 5.28144 11.6296 5.34623L7.31898 7.80808C7.26037 7.84051 7.21152 7.88805 7.1775 7.94575C7.14348 8.00346 7.12553 8.06922 7.12553 8.13621C7.12553 8.20319 7.14348 8.26896 7.1775 8.32666C7.21152 8.38436 7.26037 8.4319 7.31898 8.46433L11.9989 11.1343L16.6789 8.45964C16.7364 8.42687 16.7842 8.37947 16.8174 8.32225C16.8507 8.26503 16.8682 8.20004 16.8682 8.13386C16.8682 8.06769 16.8507 8.00269 16.8174 7.94548C16.7842 7.88826 16.7364 7.84086 16.6789 7.80808ZM5.99899 10.0787V14.9977C5.99781 15.1305 6.0319 15.2612 6.09778 15.3765C6.16367 15.4918 6.25898 15.5876 6.37399 15.654L10.6865 18.1168C10.7435 18.1497 10.8082 18.167 10.8741 18.167C10.94 18.167 11.0047 18.1496 11.0617 18.1166C11.1187 18.0836 11.166 18.0362 11.1989 17.9791C11.2318 17.9221 11.2491 17.8573 11.249 17.7914V12.4327L6.56149 9.75338C6.50444 9.72045 6.43973 9.70312 6.37385 9.70314C6.30798 9.70317 6.24328 9.72054 6.18625 9.75352C6.12923 9.7865 6.0819 9.83392 6.04903 9.891C6.01615 9.94808 5.9989 10.0128 5.99899 10.0787ZM17.9989 14.9977V10.0787C17.999 10.0128 17.9817 9.94808 17.9489 9.891C17.916 9.83392 17.8687 9.7865 17.8116 9.75352C17.7546 9.72054 17.6899 9.70317 17.624 9.70314C17.5582 9.70312 17.4935 9.72045 17.4364 9.75338L12.7489 12.4327V17.7868C12.7488 17.8526 12.7661 17.9174 12.799 17.9745C12.8319 18.0315 12.8792 18.079 12.9362 18.1119C12.9932 18.1449 13.0579 18.1623 13.1238 18.1623C13.1897 18.1623 13.2544 18.145 13.3114 18.1121L17.6239 15.654C17.7389 15.5876 17.8342 15.4918 17.9001 15.3765C17.966 15.2612 18.0001 15.1305 17.9989 14.9977Z" fill="black"/>
</svg>
