<svg width="24" height="24" viewBox="0 0 24 24" fill="none" xmlns="http://www.w3.org/2000/svg">
<path d="M21.9635 10.77L17.7448 14.4102L19.0301 19.8543C19.101 20.1498 19.0827 20.4597 18.9776 20.7449C18.8725 21.03 18.6852 21.2776 18.4394 21.4564C18.1936 21.6352 17.9004 21.7371 17.5967 21.7493C17.293 21.7615 16.9925 21.6834 16.7332 21.5249L11.9989 18.6111L7.26173 21.5249C7.00245 21.6825 6.70234 21.7598 6.39918 21.7472C6.09603 21.7345 5.80339 21.6325 5.55812 21.4539C5.31285 21.2752 5.12592 21.028 5.02085 20.7434C4.91578 20.4588 4.89729 20.1494 4.96769 19.8543L6.25768 14.4102L2.03896 10.77C1.80955 10.5717 1.64364 10.3102 1.56195 10.0182C1.48025 9.72622 1.48639 9.41663 1.5796 9.12809C1.67281 8.83956 1.84896 8.58489 2.08605 8.39587C2.32314 8.20685 2.61066 8.09187 2.9127 8.06529L8.44391 7.61904L10.5776 2.45533C10.6931 2.17391 10.8897 1.93319 11.1424 1.76378C11.395 1.59436 11.6923 1.50391 11.9965 1.50391C12.3007 1.50391 12.5981 1.59436 12.8507 1.76378C13.1034 1.93319 13.2999 2.17391 13.4154 2.45533L15.5482 7.61904L21.0794 8.06529C21.3821 8.09088 21.6704 8.20522 21.9084 8.39398C22.1463 8.58273 22.3233 8.83751 22.4171 9.12639C22.5109 9.41528 22.5173 9.72541 22.4356 10.0179C22.354 10.3105 22.1878 10.5724 21.9579 10.7709L21.9635 10.77Z" fill="black"/>
</svg>
