<?xml version="1.0" encoding="utf-8"?>
<svg xmlns="http://www.w3.org/2000/svg" width="512" height="512" viewBox="0 0 512 512">
  <path d="M480 32h-45.3L256 210.7 210.7 256l-69.5 69.5c-9.1-3.6-18.9-5.5-29.2-5.5-44.2 0-80 35.8-80 80 0 10.3 2 20.2 5.5 29.2 8.1 20.7 24.6 37.1 45.3 45.3 9.1 3.6 18.9 5.5 29.2 5.5 44.2 0 80-35.8 80-80 0-10.3-2-20.2-5.5-29.2l69.5-69.5 69.5 69.5c-3.6 9.1-5.5 18.9-5.5 29.2 0 44.2 35.8 80 80 80 10.3 0 20.2-2 29.2-5.5 20.7-8.1 37.1-24.6 45.3-45.3 3.6-9.1 5.5-18.9 5.5-29.2 0-44.2-35.8-80-80-80-10.3 0-20.2 2-29.2 5.5L301.3 256 480 77.3V32zM160 400c0 26.5-21.5 48-48 48-.9 0-1.8 0-2.7-.1-24.4-1.3-43.9-20.9-45.3-45.3 0-.9-.1-1.8-.1-2.7 0-26.5 21.5-48 48-48 .9 0 1.8 0 2.7.1 24.4 1.3 43.9 20.9 45.3 45.3.1.9.1 1.8.1 2.7zm237.3-47.9c.9 0 1.8-.1 2.7-.1 26.5 0 48 21.5 48 48 0 .9 0 1.8-.1 2.7-1.3 24.4-20.9 43.9-45.3 45.3-.9 0-1.8.1-2.7.1-26.5 0-48-21.5-48-48 0-.9 0-1.8.1-2.7 1.4-24.5 20.9-44 45.3-45.3zM240 256c0-8.8 7.2-16 16-16s16 7.2 16 16-7.2 16-16 16-16-7.2-16-16zm-74.5-45.3L32 77.3V32h45.3l133.5 133.5-45.3 45.2z"/>
</svg>
