<svg width="24" height="24" viewBox="0 0 24 24" fill="none" xmlns="http://www.w3.org/2000/svg">
<path d="M9.56487 3.28076H4.17765C3.68177 3.28076 3.27979 3.78246 3.27979 4.40134V11.1248C3.27979 11.7437 3.68177 12.2454 4.17765 12.2454H9.56487C10.0607 12.2454 10.4627 11.7437 10.4627 11.1248V4.40134C10.4627 3.78246 10.0607 3.28076 9.56487 3.28076Z" fill="black"/>
<path d="M19.8305 3.28076H14.4433C13.9474 3.28076 13.5454 3.58416 13.5454 3.95842V8.02435C13.5454 8.39861 13.9474 8.70201 14.4433 8.70201H19.8305C20.3264 8.70201 20.7284 8.39861 20.7284 8.02435V3.95842C20.7284 3.58416 20.3264 3.28076 19.8305 3.28076Z" fill="black"/>
<path d="M9.56908 15.3065H4.17826C3.68204 15.3065 3.27979 15.61 3.27979 15.9843V20.0514C3.27979 20.4258 3.68204 20.7293 4.17826 20.7293H9.56908C10.0653 20.7293 10.4676 20.4258 10.4676 20.0514V15.9843C10.4676 15.61 10.0653 15.3065 9.56908 15.3065Z" fill="black"/>
<path d="M19.8305 11.7539H14.4433C13.9474 11.7539 13.5454 12.2558 13.5454 12.875V19.6021C13.5454 20.2213 13.9474 20.7233 14.4433 20.7233H19.8305C20.3264 20.7233 20.7284 20.2213 20.7284 19.6021V12.875C20.7284 12.2558 20.3264 11.7539 19.8305 11.7539Z" fill="black"/>
<path d="M9.56487 3.28076H4.17765C3.68177 3.28076 3.27979 3.78246 3.27979 4.40134V11.1248C3.27979 11.7437 3.68177 12.2454 4.17765 12.2454H9.56487C10.0607 12.2454 10.4627 11.7437 10.4627 11.1248V4.40134C10.4627 3.78246 10.0607 3.28076 9.56487 3.28076Z" stroke="black" stroke-width="1.55" stroke-linecap="round" stroke-linejoin="round"/>
<path d="M19.8305 3.28076H14.4433C13.9474 3.28076 13.5454 3.58416 13.5454 3.95842V8.02435C13.5454 8.39861 13.9474 8.70201 14.4433 8.70201H19.8305C20.3264 8.70201 20.7284 8.39861 20.7284 8.02435V3.95842C20.7284 3.58416 20.3264 3.28076 19.8305 3.28076Z" stroke="black" stroke-width="1.55" stroke-linecap="round" stroke-linejoin="round"/>
<path d="M9.56908 15.3065H4.17826C3.68204 15.3065 3.27979 15.61 3.27979 15.9843V20.0514C3.27979 20.4258 3.68204 20.7293 4.17826 20.7293H9.56908C10.0653 20.7293 10.4676 20.4258 10.4676 20.0514V15.9843C10.4676 15.61 10.0653 15.3065 9.56908 15.3065Z" stroke="black" stroke-width="1.55" stroke-linecap="round" stroke-linejoin="round"/>
<path d="M19.8305 11.7539H14.4433C13.9474 11.7539 13.5454 12.2558 13.5454 12.875V19.6021C13.5454 20.2213 13.9474 20.7233 14.4433 20.7233H19.8305C20.3264 20.7233 20.7284 20.2213 20.7284 19.6021V12.875C20.7284 12.2558 20.3264 11.7539 19.8305 11.7539Z" stroke="black" stroke-width="1.55" stroke-linecap="round" stroke-linejoin="round"/>
</svg>
