<svg width="24" height="24" viewBox="0 0 24 24" fill="none" xmlns="http://www.w3.org/2000/svg">
<path d="M9.975 5.25H5.925C5.55221 5.25 5.25 5.65294 5.25 6.15V11.55C5.25 12.0471 5.55221 12.45 5.925 12.45H9.975C10.3478 12.45 10.65 12.0471 10.65 11.55V6.15C10.65 5.65294 10.3478 5.25 9.975 5.25Z" fill="black"/>
<path d="M10.1504 6.15039C10.1504 5.99968 10.1039 5.8818 10.0527 5.81348C10.0278 5.7802 10.0053 5.76323 9.99219 5.75586C9.9806 5.74935 9.97461 5.75 9.97461 5.75H5.9248C5.9248 5.75 5.91877 5.74996 5.9082 5.75586C5.89514 5.76323 5.8726 5.78023 5.84766 5.81348C5.79642 5.88179 5.75 5.99959 5.75 6.15039V11.5498C5.75 11.7006 5.79642 11.8184 5.84766 11.8867C5.87256 11.9199 5.89515 11.936 5.9082 11.9434C5.919 11.9494 5.9248 11.9502 5.9248 11.9502H9.97461C9.97461 11.9502 9.98051 11.9499 9.99219 11.9434C10.0053 11.9359 10.0279 11.9198 10.0527 11.8867C10.104 11.8184 10.1504 11.7006 10.1504 11.5498V6.15039ZM11.1504 11.5498C11.1504 11.896 11.0455 12.2289 10.8525 12.4863C10.6594 12.7439 10.3537 12.9502 9.97461 12.9502H5.9248C5.54585 12.9501 5.241 12.7439 5.04785 12.4863C4.85478 12.2289 4.75 11.8961 4.75 11.5498V6.15039C4.75 5.80418 4.85483 5.47128 5.04785 5.21387C5.241 4.95633 5.54584 4.75007 5.9248 4.75H9.97461C10.3537 4.75 10.6594 4.95629 10.8525 5.21387C11.0455 5.47125 11.1504 5.80427 11.1504 6.15039V11.5498Z" fill="black"/>
<path d="M18.0751 5.25H14.0251C13.6523 5.25 13.3501 5.45147 13.3501 5.7V8.4C13.3501 8.64853 13.6523 8.85 14.0251 8.85H18.0751C18.4479 8.85 18.7501 8.64853 18.7501 8.4V5.7C18.7501 5.45147 18.4479 5.25 18.0751 5.25Z" fill="black"/>
<path d="M18.0747 4.75C18.346 4.75 18.6146 4.8225 18.8296 4.96582C19.0411 5.10685 19.2505 5.35674 19.2505 5.7002V8.40039C19.2503 8.74359 19.041 8.9928 18.8296 9.13379C18.6146 9.27715 18.346 9.34961 18.0747 9.34961H14.0249C13.7536 9.34957 13.485 9.27711 13.27 9.13379C13.0587 8.99275 12.8503 8.74337 12.8501 8.40039V5.7002C12.8501 5.35691 13.0586 5.10689 13.27 4.96582C13.485 4.8225 13.7536 4.75003 14.0249 4.75H18.0747ZM14.0249 5.75C13.9452 5.75003 13.8862 5.76918 13.8501 5.78613V8.3125C13.8862 8.32953 13.9448 8.34958 14.0249 8.34961H18.0747C18.1554 8.34961 18.2145 8.32867 18.2505 8.31152V5.78711C18.2144 5.77004 18.155 5.75 18.0747 5.75H14.0249Z" fill="black"/>
<path d="M9.975 15.1494H5.925C5.55221 15.1494 5.25 15.3509 5.25 15.5994V18.2994C5.25 18.5479 5.55221 18.7494 5.925 18.7494H9.975C10.3478 18.7494 10.65 18.5479 10.65 18.2994V15.5994C10.65 15.3509 10.3478 15.1494 9.975 15.1494Z" fill="black"/>
<path d="M9.97461 14.6494C10.2459 14.6494 10.5145 14.7219 10.7295 14.8652C10.941 15.0063 11.1504 15.2562 11.1504 15.5996V18.2998C11.1502 18.643 10.9409 18.8922 10.7295 19.0332C10.5145 19.1766 10.2459 19.249 9.97461 19.249H5.9248C5.65353 19.249 5.38491 19.1765 5.16992 19.0332C4.95863 18.8922 4.75016 18.6428 4.75 18.2998V15.5996C4.75 15.2563 4.95849 15.0063 5.16992 14.8652C5.38491 14.7219 5.65353 14.6494 5.9248 14.6494H9.97461ZM5.9248 15.6494C5.84514 15.6494 5.78613 15.6686 5.75 15.6855V18.2119C5.78608 18.2289 5.84474 18.249 5.9248 18.249H9.97461C10.0553 18.249 10.1144 18.2281 10.1504 18.2109V15.6865C10.1143 15.6695 10.0549 15.6494 9.97461 15.6494H5.9248Z" fill="black"/>
<path d="M18.0751 11.5498H14.0251C13.6523 11.5498 13.3501 11.9527 13.3501 12.4498V17.8498C13.3501 18.3469 13.6523 18.7498 14.0251 18.7498H18.0751C18.4479 18.7498 18.7501 18.3469 18.7501 17.8498V12.4498C18.7501 11.9527 18.4479 11.5498 18.0751 11.5498Z" fill="black"/>
<path d="M18.2505 12.4502C18.2505 12.2995 18.204 12.1816 18.1528 12.1133C18.1279 12.08 18.1054 12.063 18.0923 12.0557C18.0807 12.0492 18.0747 12.0498 18.0747 12.0498H14.0249C14.0249 12.0498 14.0189 12.0498 14.0083 12.0557C13.9952 12.063 13.9727 12.08 13.9478 12.1133C13.8965 12.1816 13.8501 12.2994 13.8501 12.4502V17.8496C13.8501 18.0004 13.8965 18.1182 13.9478 18.1865C13.9727 18.2197 13.9952 18.2358 14.0083 18.2432C14.0191 18.2492 14.0249 18.25 14.0249 18.25H18.0747C18.0747 18.25 18.0806 18.2497 18.0923 18.2432C18.1054 18.2357 18.128 18.2196 18.1528 18.1865C18.2041 18.1182 18.2505 18.0004 18.2505 17.8496V12.4502ZM19.2505 17.8496C19.2505 18.1958 19.1456 18.5287 18.9526 18.7861C18.7595 19.0437 18.4538 19.25 18.0747 19.25H14.0249C13.6459 19.2499 13.3411 19.0437 13.1479 18.7861C12.9549 18.5287 12.8501 18.1959 12.8501 17.8496V12.4502C12.8501 12.104 12.9549 11.7711 13.1479 11.5137C13.3411 11.2561 13.6459 11.0499 14.0249 11.0498H18.0747C18.4538 11.0498 18.7595 11.2561 18.9526 11.5137C19.1456 11.7711 19.2505 12.1041 19.2505 12.4502V17.8496Z" fill="black"/>
</svg>
