<svg width="24" height="24" viewBox="0 0 24 24" fill="none" xmlns="http://www.w3.org/2000/svg">
<path d="M12 12C16.5563 12 20.25 9.98528 20.25 7.5C20.25 5.01472 16.5563 3 12 3C7.44365 3 3.75 5.01472 3.75 7.5C3.75 9.98528 7.44365 12 12 12Z" fill="black"/>
<path d="M20.25 7.49521C20.25 9.97784 16.5563 11.9904 12 11.9904C7.44365 11.9904 3.75 9.97784 3.75 7.49521M20.25 7.49521C20.25 5.01257 16.5563 3 12 3M20.25 7.49521V10.5048C20.25 12.9875 16.5562 15 12 15C7.44375 15 3.75 12.9875 3.75 10.5048V7.49521M3.75 7.49521C3.75 5.01257 7.44365 3 12 3M12 3C7.44365 3 3.75 5.01472 3.75 7.5C3.75 9.98528 7.44365 12 12 12C16.5563 12 20.25 9.98528 20.25 7.5C20.25 5.01472 16.5563 3 12 3ZM3.75 7.06982V13.9125C3.75 14.5981 4.0311 15.2479 4.53386 15.8294C4.59183 15.8965 4.65275 15.9627 4.71652 16.0278M14.861 19.8793H13.2582M15.3954 21.7495H13.2584V18.0098H15.3954M6.99316 18.0101L7.92809 21.7498L9.17466 19.2566L10.4212 21.7498L11.3562 18.0101M17.2977 19.7812H18.9707M17.2977 19.7812V21.7495H19.266C19.527 21.7495 19.7773 21.6458 19.9619 21.4612C20.1464 21.2767 20.2501 21.0264 20.2501 20.7653C20.2501 20.5043 20.1464 20.254 19.9619 20.0695C19.7773 19.8849 19.527 19.7812 19.266 19.7812H18.9707M17.2977 19.7812V18.0098H18.9707C19.2056 18.0098 19.4309 18.1031 19.597 18.2692C19.7631 18.4353 19.8565 18.6606 19.8565 18.8955C19.8565 19.1304 19.7631 19.3557 19.597 19.5218C19.4309 19.6879 19.2056 19.7812 18.9707 19.7812" stroke="black" stroke-width="1.5" stroke-linecap="round" stroke-linejoin="round"/>
</svg>
