<svg width="24" height="24" viewBox="0 0 24 24" fill="none" xmlns="http://www.w3.org/2000/svg">
<path d="M11.999 2.25244C6.95243 2.25244 2.99902 4.55867 2.99902 7.5024V16.5023C2.99902 19.4461 6.95243 21.7523 11.999 21.7523C17.0455 21.7523 20.9989 19.4461 20.9989 16.5023V7.5024C20.9989 4.55867 17.0455 2.25244 11.999 2.25244ZM19.4989 12.0024C19.4989 12.9042 18.7602 13.8239 17.473 14.5261C16.0236 15.3164 14.0793 15.7523 11.999 15.7523C9.91866 15.7523 7.9743 15.3164 6.52493 14.5261C5.23776 13.8239 4.49901 12.9042 4.49901 12.0024V10.4424C6.09837 11.8486 8.83304 12.7524 11.999 12.7524C15.1649 12.7524 17.8995 11.8449 19.4989 10.4424V12.0024ZM17.473 19.0261C16.0236 19.8164 14.0793 20.2523 11.999 20.2523C9.91866 20.2523 7.9743 19.8164 6.52493 19.0261C5.23776 18.3239 4.49901 17.4042 4.49901 16.5023V14.9423C6.09837 16.3486 8.83304 17.2523 11.999 17.2523C15.1649 17.2523 17.8995 16.3448 19.4989 14.9423V16.5023C19.4989 17.4042 18.7602 18.3239 17.473 19.0261Z" fill="black"/>
</svg>
