<svg width="24" height="24" viewBox="0 0 24 24" fill="none" xmlns="http://www.w3.org/2000/svg">
<path d="M17.25 5.625C17.25 5.08435 16.8524 4.44242 15.875 3.89258C14.921 3.35594 13.5524 3 12 3C10.4476 3 9.07903 3.35594 8.125 3.89258C7.14761 4.44242 6.75 5.08435 6.75 5.625C6.75 6.16565 7.14761 6.80758 8.125 7.35742C9.07903 7.89406 10.4476 8.25 12 8.25C13.5524 8.25 14.921 7.89406 15.875 7.35742C16.8524 6.80758 17.25 6.16565 17.25 5.625ZM18.75 5.625C18.75 6.94825 17.8044 7.99339 16.6104 8.66504C15.3928 9.34991 13.7613 9.75 12 9.75C10.2387 9.75 8.60719 9.34991 7.38965 8.66504C6.19564 7.99339 5.25 6.94825 5.25 5.625C5.25 4.30175 6.19564 3.25661 7.38965 2.58496C8.60719 1.90009 10.2387 1.5 12 1.5C13.7613 1.5 15.3928 1.90009 16.6104 2.58496C17.8044 3.25661 18.75 4.30175 18.75 5.625Z" fill="black"/>
<path d="M5.25 18.375V5.625C5.25 5.21079 5.58579 4.875 6 4.875C6.41421 4.875 6.75 5.21079 6.75 5.625V18.375C6.75 18.9156 7.14759 19.5576 8.125 20.1074C9.07898 20.6441 10.4474 21 12 21C13.5526 21 14.921 20.6441 15.875 20.1074C16.8524 19.5576 17.25 18.9156 17.25 18.375V5.625C17.25 5.21079 17.5858 4.875 18 4.875C18.4142 4.875 18.75 5.21079 18.75 5.625V18.375C18.75 19.6981 17.8044 20.7434 16.6104 21.415C15.3929 22.0999 13.7614 22.5 12 22.5C10.2386 22.5 8.60715 22.0999 7.38965 21.415C6.19565 20.7434 5.25 19.6981 5.25 18.375Z" fill="black"/>
<path fill-rule="evenodd" clip-rule="evenodd" d="M15.875 3.89258C16.8524 4.44242 17.25 5.08435 17.25 5.625C17.25 6.16565 16.8524 6.80758 15.875 7.35742C14.921 7.89406 13.5524 8.25 12 8.25C10.4476 8.25 9.07903 7.89406 8.125 7.35742C7.14761 6.80758 6.75 6.16565 6.75 5.625C6.75 5.08435 7.14761 4.44242 8.125 3.89258C9.07903 3.35594 10.4476 3 12 3C13.5524 3 14.921 3.35594 15.875 3.89258Z" fill="black"/>
</svg>
