<svg width="24" height="24" viewBox="0 0 24 24" fill="none" xmlns="http://www.w3.org/2000/svg">
<path d="M12.6462 12C17.2025 12 20.8962 9.98528 20.8962 7.5C20.8962 5.01472 17.2025 3 12.6462 3C8.08981 3 4.39615 5.01472 4.39615 7.5C4.39615 9.98528 8.08981 12 12.6462 12Z" fill="black"/>
<path d="M20.8962 7.49521C20.8962 9.97784 17.2025 11.9904 12.6462 11.9904C8.08981 11.9904 4.39615 9.97784 4.39615 7.49521M20.8962 7.49521C20.8962 5.01257 17.2025 3 12.6462 3M20.8962 7.49521V10.5048C20.8962 12.9875 17.2024 15 12.6462 15C8.0899 15 4.39615 12.9875 4.39615 10.5048V7.49521M4.39615 7.49521C4.39615 5.01257 8.08981 3 12.6462 3M12.6462 3C8.08981 3 4.39615 5.01472 4.39615 7.5C4.39615 9.98528 8.08981 12 12.6462 12C17.2025 12 20.8962 9.98528 20.8962 7.5C20.8962 5.01472 17.2025 3 12.6462 3ZM4.80005 15.3072C4.53788 14.8681 4.39615 14.3993 4.39615 13.9125V7.06982M10.4369 18.1197C10.4369 18.1197 8.47466 17.601 8.31664 18.8531C8.15863 20.1052 10.8789 19.5278 10.7022 20.9013C10.5375 22.1788 8.58334 21.6347 8.58334 21.6347M3.75 20.5468C3.75 20.8651 3.87644 21.1703 4.10151 21.3954C4.32658 21.6205 4.63183 21.7469 4.95013 21.7469C5.26842 21.7469 5.57368 21.6205 5.79874 21.3954C6.02381 21.1703 6.15025 20.8651 6.15025 20.5468V18.0132M20.8962 18.0132V21.7469L18.2292 18.0132V21.7469M16.0699 19.88C16.0699 20.9111 15.3534 21.7469 14.4697 21.7469C13.5859 21.7469 12.8695 20.9111 12.8695 19.88C12.8695 18.849 13.5859 18.0132 14.4697 18.0132C15.3534 18.0132 16.0699 18.849 16.0699 19.88Z" stroke="black" stroke-width="1.5" stroke-linecap="round" stroke-linejoin="round"/>
</svg>
