<?xml version="1.0" encoding="UTF-8"?><svg id="Layer_2" xmlns="http://www.w3.org/2000/svg" width="512" height="512" viewBox="0 0 512 512"><polygon points="32 137.33967 32 137.63966 32.00037 137.64619 32 137.33967"/><path d="m32.09998,224.43965c.5,33.90002,86.30005,61.29999,191.90002,61.29999s191.40002-27.39996,192-61.29999v-.29999l-.09998-86.79999v.29999c-.5,33.90002-86.30005,61.29999-191.90002,61.29999-105.5932,0-191.48871-27.39648-191.99963-61.29346l.09961,86.49347v.29999Z"/><path d="m224,152.53968c105.59998,0,191.40002-27.40002,191.90002-61.29999v-.30005c0-34-85.90002-61.59998-191.90002-61.59998S32.09998,56.93965,32.09998,90.93965v.30005c.5,33.89996,86.30005,61.29999,191.90002,61.29999Z"/><polygon points="32 265.63966 32.00037 265.64735 32 265.33967 32 265.63966"/><path d="m32.00037,265.64735l.09961,86.49231v.29999c.40002,26.70001,53.70001,49.29999,127.90002,57.79999v-86.79999c-74.29285-8.39917-127.58954-31.09558-127.99963-57.7923Z"/><polygon points="457 373.33967 352 303.33967 352 355.83967 189 355.83967 189 390.83967 352 390.83967 352 443.33967 457 373.33967"/></svg>