<svg viewBox="0 0 24 24" fill="none" xmlns="http://www.w3.org/2000/svg" width="24" height="24">
<path d="M21.51 7.229C21.51 8.893 20.281 10.268 18.588 11.192 16.872 12.128 14.541 12.688 12 12.688 9.459 12.688 7.129 12.128 5.413 11.192 3.719 10.268 2.49 8.893 2.49 7.229 2.49 5.564 3.719 4.189 5.413 3.265 7.129 2.329 9.459 1.769 12 1.769 14.541 1.769 16.872 2.329 18.588 3.265 20.282 4.189 21.509 5.564 21.51 7.229Z" fill="black"/>
<path d="M2.49 12.089V7.229C2.49 6.897 2.759 6.629 3.09 6.629 3.421 6.629 3.69 6.898 3.69 7.229V12.089C3.69 13.109 4.456 14.164 5.987 14.999 7.495 15.822 9.62 16.349 12 16.349 14.379 16.349 16.504 15.822 18.013 14.999 19.544 14.164 20.31 13.109 20.31 12.089V7.229C20.31 6.898 20.578 6.63 20.91 6.629 21.241 6.629 21.51 6.897 21.51 7.229V12.089C21.51 13.753 20.281 15.129 18.588 16.052 16.872 16.989 14.541 17.549 12 17.549 9.459 17.549 7.129 16.989 5.413 16.052 3.719 15.129 2.49 13.754 2.49 12.089Z" fill="black"/>
<path d="M2.49 16.949V12.089C2.49 11.758 2.759 11.489 3.09 11.489 3.421 11.489 3.69 11.758 3.69 12.089V16.949C3.69 17.936 4.407 18.956 5.846 19.78 6.134 19.945 6.233 20.312 6.069 20.599 5.904 20.887 5.537 20.986 5.25 20.822 3.643 19.902 2.49 18.561 2.49 16.949Z" fill="black"/>
<path d="M18.493 23.657C18.305 23.657 18.161 23.609 18.061 23.513 17.965 23.413 17.917 23.271 17.917 23.087V19.997C17.917 19.813 17.965 19.673 18.061 19.577 18.161 19.477 18.305 19.427 18.493 19.427H19.957C20.261 19.427 20.519 19.473 20.731 19.565 20.947 19.653 21.111 19.779 21.223 19.943 21.335 20.107 21.391 20.299 21.391 20.519 21.391 20.767 21.319 20.979 21.175 21.155 21.035 21.331 20.843 21.451 20.599 21.515V21.419C20.887 21.471 21.109 21.587 21.265 21.767 21.425 21.947 21.505 22.177 21.505 22.457 21.505 22.829 21.371 23.123 21.103 23.339 20.839 23.551 20.477 23.657 20.017 23.657H18.493ZM18.973 22.847H19.867C20.071 22.847 20.219 22.809 20.311 22.733 20.407 22.653 20.455 22.535 20.455 22.379 20.455 22.223 20.407 22.107 20.311 22.031 20.219 21.955 20.071 21.917 19.867 21.917H18.973V22.847ZM18.973 21.107H19.759C19.959 21.107 20.105 21.071 20.197 20.999 20.293 20.927 20.341 20.817 20.341 20.669 20.341 20.521 20.293 20.413 20.197 20.345 20.105 20.273 19.959 20.237 19.759 20.237H18.973V21.107Z" fill="black"/>
<path d="M14.807 23.657C14.619 23.657 14.475 23.609 14.375 23.513 14.279 23.413 14.231 23.271 14.231 23.087V19.997C14.231 19.813 14.279 19.673 14.375 19.577 14.475 19.477 14.619 19.427 14.807 19.427H16.841C16.985 19.427 17.093 19.463 17.165 19.535 17.237 19.607 17.273 19.711 17.273 19.847 17.273 19.987 17.237 20.095 17.165 20.171 17.093 20.243 16.985 20.279 16.841 20.279H15.287V21.083H16.709C16.849 21.083 16.955 21.119 17.027 21.191 17.103 21.263 17.141 21.369 17.141 21.509 17.141 21.649 17.103 21.755 17.027 21.827 16.955 21.899 16.849 21.935 16.709 21.935H15.287V22.805H16.841C16.985 22.805 17.093 22.843 17.165 22.919 17.237 22.991 17.273 23.095 17.273 23.231 17.273 23.371 17.237 23.477 17.165 23.549 17.093 23.621 16.985 23.657 16.841 23.657H14.807Z" fill="black"/>
<path d="M9.108 23.711C8.96 23.711 8.84 23.677 8.748 23.609 8.656 23.537 8.584 23.427 8.532 23.279L7.362 20.021C7.298 19.841 7.308 19.689 7.392 19.565 7.48 19.437 7.634 19.373 7.854 19.373 8.002 19.373 8.118 19.409 8.202 19.481 8.286 19.549 8.352 19.657 8.4 19.805L9.294 22.487H9.012L9.972 19.805C10.028 19.657 10.098 19.549 10.182 19.481 10.266 19.409 10.374 19.373 10.506 19.373 10.638 19.373 10.743 19.409 10.824 19.481 10.904 19.549 10.97 19.659 11.022 19.811L11.922 22.487H11.682L12.6 19.805C12.648 19.657 12.711 19.549 12.792 19.481 12.876 19.409 12.992 19.373 13.14 19.373 13.323 19.373 13.458 19.437 13.542 19.565 13.629 19.689 13.64 19.841 13.572 20.021L12.39 23.285C12.338 23.429 12.266 23.537 12.174 23.609 12.086 23.677 11.967 23.711 11.82 23.711 11.667 23.711 11.546 23.677 11.454 23.609 11.366 23.537 11.295 23.427 11.244 23.279L10.398 20.903H10.548L9.684 23.285C9.627 23.429 9.556 23.537 9.468 23.609 9.38 23.677 9.26 23.711 9.108 23.711Z" fill="black"/>
</svg>