<svg width="24" height="24" viewBox="0 0 24 24" fill="none" xmlns="http://www.w3.org/2000/svg">
<path fill-rule="evenodd" clip-rule="evenodd" d="M9.83105 17.2549C10.1568 17.2378 10.4633 17.27 10.6797 17.3037C10.7902 17.3209 10.8829 17.3401 10.9492 17.3545L10.9781 17.3607C10.9984 17.3651 11.0156 17.3688 11.0293 17.3721C11.0351 17.3735 11.0491 17.3775 11.0537 17.3789L11.0645 17.3809C11.4648 17.4868 11.7055 17.8985 11.5996 18.2988C11.4936 18.6991 11.083 18.9369 10.6826 18.8311C10.6781 18.83 10.6704 18.8285 10.6612 18.8267C10.6517 18.8248 10.6405 18.8226 10.6299 18.8203C10.588 18.8112 10.5256 18.798 10.4492 18.7861C10.2916 18.7616 10.0953 18.7431 9.90918 18.7529C9.71306 18.7633 9.59084 18.8045 9.5359 18.8384C9.52406 18.8454 9.51221 18.8524 9.50293 18.8779C9.62627 18.9466 9.82145 19.0075 10.1582 19.1045L10.1837 19.1118C10.4759 19.1959 10.9088 19.3204 11.248 19.5566C11.4383 19.6891 11.6306 19.8768 11.7578 20.1396C11.8548 20.3403 11.8993 20.5545 11.8994 20.7734L11.8848 20.9941C11.8145 21.5394 11.5321 21.9433 11.1357 22.1904C10.7746 22.4156 10.368 22.4813 10.0508 22.4961C9.72367 22.5113 9.41567 22.4756 9.19922 22.4395C9.08905 22.421 8.99688 22.402 8.93066 22.3867C8.89751 22.3791 8.87039 22.3723 8.85059 22.3672C8.84457 22.3656 8.83088 22.3617 8.82617 22.3604L8.81543 22.3574C8.41646 22.2463 8.18103 21.8326 8.29199 21.4336C8.39616 21.0594 8.76594 20.831 9.14062 20.8955L9.21387 20.9111C9.2229 20.9134 9.24722 20.9201 9.26758 20.9248C9.30915 20.9344 9.37154 20.9473 9.44727 20.96C9.60358 20.9861 9.79682 21.0066 9.98047 20.998C10.1739 20.9891 10.2923 20.9488 10.3453 20.9159C10.3626 20.9055 10.3849 20.892 10.3965 20.8027C10.3965 20.8027 10.3915 20.7912 10.3906 20.7881C10.2828 20.713 10.0915 20.6462 9.74316 20.5459L9.67657 20.5268C9.39763 20.4473 8.99609 20.3327 8.68164 20.1367C8.49567 20.0207 8.29368 19.8502 8.1543 19.5977C8.00946 19.3351 7.96575 19.0437 8.00293 18.749L8.03809 18.5518C8.14426 18.1063 8.40685 17.7729 8.75195 17.5596C9.11074 17.3379 9.51529 17.2715 9.83105 17.2549ZM15.4844 19.874C15.4844 19.1409 14.9963 18.75 14.6279 18.75C14.2596 18.7502 13.7725 19.1411 13.7725 19.874C13.7726 20.5099 14.1398 20.8867 14.4775 20.9756C14.358 20.7012 14.4094 20.3709 14.6338 20.1465C14.8626 19.9177 15.2011 19.8694 15.4785 19.998C15.4817 19.9578 15.4844 19.9165 15.4844 19.874ZM17.625 18C17.625 17.5859 17.9609 17.2502 18.375 17.25C18.7892 17.25 19.125 17.5858 19.125 18V20.9971H20.249C20.6632 20.9972 20.999 21.3329 20.999 21.7471C20.999 22.1612 20.6632 22.497 20.249 22.4971H18.375C17.9609 22.4969 17.625 22.1612 17.625 21.7471V18ZM16.9844 19.874C16.9843 20.3164 16.8769 20.752 16.6865 21.1387L16.7646 21.2168C17.0575 21.5097 17.0575 21.9845 16.7646 22.2773C16.4718 22.5702 15.997 22.5702 15.7041 22.2773L15.6611 22.2344C15.3565 22.3994 15.0096 22.4971 14.6279 22.4971C13.2229 22.4969 12.2727 21.2101 12.2725 19.874C12.2725 18.5378 13.2227 17.2502 14.6279 17.25C16.0333 17.25 16.9844 18.5377 16.9844 19.874Z" fill="black"/>
<path fill-rule="evenodd" clip-rule="evenodd" d="M21 10.5049C21 12.1497 19.7867 13.4731 18.1924 14.3418C16.5695 15.2261 14.3788 15.75 12 15.75C9.62124 15.75 7.43053 15.2261 5.80762 14.3418C5.32968 14.0814 4.88702 13.779 4.5 13.4404V13.9121C4.5 14.3217 4.64481 14.7423 4.95703 15.1602L5.10156 15.3389L5.25391 15.5029C5.27307 15.5225 5.2926 15.542 5.3125 15.5615C5.35217 15.6004 5.39301 15.6393 5.43555 15.6777L5.4522 15.6929C5.46602 15.7054 5.47991 15.7181 5.49414 15.7305C5.55303 15.7818 5.6147 15.8324 5.67871 15.8828C5.70025 15.8998 5.72201 15.9168 5.74414 15.9336C5.93348 16.0777 6.14399 16.2181 6.375 16.3516C6.7333 16.5589 6.85561 17.0175 6.64844 17.376C6.44117 17.7344 5.98259 17.8575 5.62402 17.6504C5.44849 17.5489 5.2796 17.4414 5.11719 17.3301L5.10841 17.3249C5.10477 17.3228 5.10111 17.3207 5.09766 17.3184C5.08529 17.3098 5.07325 17.3007 5.06131 17.2916C5.05104 17.2838 5.04078 17.276 5.03027 17.2686C4.95983 17.2187 4.89085 17.1679 4.82324 17.1162L4.80221 17.1002C4.78536 17.0874 4.76854 17.0746 4.75195 17.0615C4.66484 16.993 4.57994 16.9233 4.49805 16.8516C4.48785 16.8426 4.47784 16.8335 4.46784 16.8244L4.44824 16.8066C4.37944 16.745 4.3128 16.6821 4.24805 16.6182C4.22867 16.599 4.20943 16.5799 4.19043 16.5605C4.11303 16.4818 4.03776 16.4024 3.9668 16.3203C3.37323 15.6337 3 14.8152 3 13.9121V7.06934C3.00008 6.93532 3.03794 6.811 3.09961 6.70215C3.41694 5.42317 4.47853 4.38239 5.80762 3.6582C6.51756 3.27138 7.33596 2.95296 8.23145 2.71777C8.35944 2.68412 8.48907 2.6523 8.62012 2.62207C8.88204 2.56171 9.14987 2.50814 9.42285 2.46191C9.55958 2.43874 9.69769 2.41795 9.83691 2.39844C10.1149 2.35952 10.3977 2.32754 10.6846 2.30371C11.1148 2.26794 11.5541 2.25 12 2.25C12.4459 2.25 12.8852 2.26794 13.3154 2.30371C13.6023 2.32754 13.8851 2.35952 14.1631 2.39844C14.3023 2.41795 14.4404 2.43874 14.5771 2.46191C14.8501 2.50814 15.118 2.56171 15.3799 2.62207C15.5109 2.6523 15.6406 2.68412 15.7686 2.71777C16.664 2.95296 17.4824 3.27138 18.1924 3.6582C19.7867 4.52691 21 5.85031 21 7.49512V10.5049ZM19.5 10.4375C19.113 10.7764 18.6704 11.0801 18.1924 11.3408C16.5695 12.2259 14.3787 12.75 12 12.75C9.6213 12.75 7.43053 12.2259 5.80762 11.3408C5.32961 11.0801 4.88698 10.7764 4.5 10.4375V10.5049L4.50781 10.6631C4.58265 11.4576 5.22099 12.3137 6.52539 13.0244C7.88842 13.7671 9.82251 14.25 12 14.25C14.1775 14.25 16.1116 13.7671 17.4746 13.0244C18.8661 12.2662 19.5 11.3426 19.5 10.5049V10.4375Z" fill="black"/>
</svg>
