<svg viewBox="0 0 24 24" fill="none" xmlns="http://www.w3.org/2000/svg" width="24" height="24">
<path d="M21.51 7.229C21.51 8.893 20.281 10.268 18.588 11.192 16.872 12.128 14.541 12.688 12 12.688 9.459 12.688 7.129 12.128 5.413 11.192 3.719 10.268 2.49 8.893 2.49 7.229 2.49 5.564 3.719 4.189 5.413 3.265 7.129 2.329 9.459 1.769 12 1.769 14.541 1.769 16.872 2.329 18.588 3.265 20.282 4.189 21.509 5.564 21.51 7.229Z" fill="black"/>
<path d="M2.49 12.089V7.229C2.49 6.897 2.759 6.629 3.09 6.629 3.421 6.629 3.69 6.898 3.69 7.229V12.089C3.69 13.109 4.456 14.164 5.987 14.999 7.495 15.822 9.62 16.349 12 16.349 14.379 16.349 16.504 15.822 18.013 14.999 19.544 14.164 20.31 13.109 20.31 12.089V7.229C20.31 6.898 20.578 6.63 20.91 6.629 21.241 6.629 21.51 6.897 21.51 7.229V12.089C21.51 13.753 20.281 15.129 18.588 16.052 16.872 16.989 14.541 17.549 12 17.549 9.459 17.549 7.129 16.989 5.413 16.052 3.719 15.129 2.49 13.754 2.49 12.089Z" fill="black"/>
<path d="M2.49 16.949V12.089C2.49 11.758 2.759 11.489 3.09 11.489 3.421 11.489 3.69 11.758 3.69 12.089V16.949C3.69 17.803 4.222 18.678 5.308 19.439 5.58 19.629 5.645 20.004 5.455 20.276 5.265 20.547 4.89 20.612 4.619 20.422 3.357 19.537 2.49 18.342 2.49 16.949Z" fill="black"/>
<path d="M18.249 23.711C18.081 23.711 17.953 23.667 17.865 23.579 17.777 23.491 17.733 23.361 17.733 23.189V19.919C17.733 19.743 17.777 19.609 17.865 19.517 17.953 19.421 18.069 19.373 18.213 19.373 18.341 19.373 18.441 19.397 18.513 19.445 18.585 19.493 18.665 19.573 18.753 19.685L20.655 22.061H20.487V19.889C20.487 19.721 20.529 19.593 20.613 19.505 20.701 19.417 20.829 19.373 20.997 19.373 21.165 19.373 21.291 19.417 21.375 19.505 21.463 19.593 21.507 19.721 21.507 19.889V23.213C21.507 23.365 21.467 23.487 21.387 23.579 21.307 23.667 21.199 23.711 21.063 23.711 20.927 23.711 20.819 23.687 20.739 23.639 20.663 23.587 20.581 23.507 20.493 23.399L18.591 21.017H18.759V23.189C18.759 23.361 18.715 23.491 18.627 23.579 18.543 23.667 18.417 23.711 18.249 23.711Z" fill="black"/>
<path d="M14.933 23.723C14.505 23.723 14.129 23.633 13.805 23.453 13.481 23.269 13.229 23.013 13.049 22.685 12.873 22.357 12.785 21.975 12.785 21.539 12.785 21.211 12.835 20.913 12.935 20.645 13.039 20.377 13.185 20.147 13.373 19.955 13.565 19.763 13.793 19.617 14.057 19.517 14.321 19.413 14.613 19.361 14.933 19.361 15.361 19.361 15.735 19.451 16.055 19.631 16.379 19.811 16.631 20.065 16.811 20.393 16.991 20.717 17.081 21.099 17.081 21.539 17.081 21.867 17.029 22.165 16.925 22.433 16.825 22.701 16.679 22.933 16.487 23.129 16.299 23.321 16.073 23.469 15.809 23.573 15.545 23.673 15.253 23.723 14.933 23.723ZM14.933 22.799C15.145 22.799 15.325 22.749 15.473 22.649 15.621 22.549 15.735 22.405 15.815 22.217 15.895 22.029 15.935 21.803 15.935 21.539 15.935 21.143 15.847 20.835 15.671 20.615 15.495 20.395 15.249 20.285 14.933 20.285 14.725 20.285 14.545 20.335 14.393 20.435 14.245 20.531 14.131 20.673 14.051 20.861 13.971 21.045 13.931 21.271 13.931 21.539 13.931 21.935 14.019 22.245 14.195 22.469 14.371 22.689 14.617 22.799 14.933 22.799Z" fill="black"/>
<path d="M10.557 23.723C10.397 23.723 10.229 23.711 10.053 23.687 9.881 23.667 9.717 23.635 9.561 23.591 9.405 23.547 9.265 23.495 9.141 23.435 9.033 23.383 8.957 23.315 8.913 23.231 8.869 23.143 8.853 23.051 8.865 22.955 8.877 22.859 8.911 22.775 8.967 22.703 9.023 22.627 9.097 22.577 9.189 22.553 9.281 22.525 9.385 22.537 9.501 22.589 9.653 22.661 9.825 22.717 10.017 22.757 10.209 22.797 10.389 22.817 10.557 22.817 10.821 22.817 11.005 22.783 11.109 22.715 11.217 22.643 11.271 22.555 11.271 22.451 11.271 22.359 11.233 22.285 11.157 22.229 11.085 22.173 10.955 22.125 10.767 22.085L10.065 21.935C9.681 21.855 9.395 21.715 9.207 21.515 9.019 21.315 8.925 21.057 8.925 20.741 8.925 20.533 8.967 20.345 9.051 20.177 9.139 20.005 9.261 19.859 9.417 19.739 9.577 19.619 9.765 19.527 9.981 19.463 10.201 19.395 10.445 19.361 10.713 19.361 10.921 19.361 11.131 19.385 11.343 19.433 11.559 19.477 11.745 19.545 11.901 19.637 11.993 19.685 12.059 19.751 12.099 19.835 12.139 19.919 12.155 20.007 12.147 20.099 12.139 20.187 12.107 20.265 12.051 20.333 11.999 20.401 11.927 20.447 11.835 20.471 11.747 20.491 11.641 20.475 11.517 20.423 11.401 20.371 11.269 20.333 11.121 20.309 10.977 20.281 10.837 20.267 10.701 20.267 10.553 20.267 10.427 20.285 10.323 20.321 10.219 20.353 10.139 20.401 10.083 20.465 10.031 20.529 10.005 20.603 10.005 20.687 10.005 20.771 10.039 20.843 10.107 20.903 10.179 20.959 10.309 21.007 10.497 21.047L11.193 21.197C11.581 21.281 11.871 21.419 12.063 21.611 12.255 21.803 12.351 22.053 12.351 22.361 12.351 22.569 12.309 22.757 12.225 22.925 12.141 23.093 12.021 23.237 11.865 23.357 11.709 23.473 11.521 23.563 11.301 23.627 11.081 23.691 10.833 23.723 10.557 23.723Z" fill="black"/>
<path d="M6.671 23.705C6.511 23.713 6.387 23.673 6.299 23.585 6.215 23.493 6.173 23.377 6.173 23.237 6.173 23.129 6.203 23.035 6.263 22.955 6.323 22.875 6.413 22.831 6.533 22.823L6.701 22.811C6.845 22.803 6.951 22.769 7.019 22.709 7.087 22.645 7.121 22.541 7.121 22.397V19.931C7.121 19.747 7.169 19.609 7.265 19.517 7.361 19.421 7.497 19.373 7.673 19.373 7.849 19.373 7.985 19.421 8.081 19.517 8.177 19.609 8.225 19.747 8.225 19.931V22.379C8.225 22.655 8.175 22.889 8.075 23.081 7.975 23.269 7.825 23.415 7.625 23.519 7.429 23.619 7.183 23.677 6.887 23.693L6.671 23.705Z" fill="black"/>
</svg>