<svg width="24" height="24" viewBox="0 0 24 24" fill="none" xmlns="http://www.w3.org/2000/svg">
<path fill-rule="evenodd" clip-rule="evenodd" d="M9.93359 19.8789C9.93359 19.1486 9.44801 18.7607 9.08203 18.7607C8.71609 18.761 8.23047 19.1488 8.23047 19.8789C8.23057 20.6089 8.71613 20.9968 9.08203 20.9971C9.44797 20.9971 9.9335 20.6091 9.93359 19.8789ZM14.9834 19.8789C14.9834 19.5823 14.866 19.2976 14.6562 19.0879C14.4465 18.8781 14.1619 18.7607 13.8652 18.7607H13.5479V20.9971H13.8652C14.1618 20.9971 14.4465 20.8796 14.6562 20.6699C14.8659 20.4602 14.9833 20.1755 14.9834 19.8789ZM18.3213 20.9121C18.3302 20.9144 18.3534 20.9201 18.374 20.9248C18.4154 20.9343 18.4772 20.9473 18.5527 20.96C18.7087 20.986 18.9018 21.0066 19.085 20.998C19.2779 20.9891 19.3955 20.9485 19.4478 20.9159C19.4646 20.9059 19.4867 20.8928 19.498 20.8047C19.498 20.8047 19.4931 20.7947 19.4922 20.792C19.3849 20.7175 19.1947 20.6508 18.8477 20.5508L18.7816 20.5319C18.5036 20.4526 18.103 20.3383 17.7891 20.1426C17.6033 20.0268 17.401 19.8568 17.2617 19.6045C17.1171 19.3422 17.0732 19.051 17.1104 18.7568L17.1455 18.5596C17.2516 18.115 17.5139 17.7823 17.8584 17.5693C18.2167 17.3479 18.6204 17.2812 18.9355 17.2646C19.2606 17.2476 19.5663 17.2808 19.7822 17.3145C19.8923 17.3316 19.9846 17.3499 20.0508 17.3643C20.084 17.3715 20.1111 17.378 20.1309 17.3828L20.1553 17.3887L20.166 17.3916C20.5665 17.4975 20.807 17.9081 20.7012 18.3086C20.5953 18.7088 20.1854 18.9473 19.7852 18.8418L19.7744 18.8393L19.7324 18.8301C19.6906 18.821 19.628 18.8078 19.5518 18.7959C19.3946 18.7714 19.1991 18.7529 19.0137 18.7627C18.8183 18.773 18.697 18.8144 18.6426 18.848C18.6314 18.8546 18.6203 18.8612 18.6113 18.8848C18.7341 18.9527 18.9283 19.013 19.2627 19.1094L19.2819 19.1149C19.5734 19.1988 20.0086 19.3241 20.3496 19.5615C20.5395 19.6938 20.7313 19.8801 20.8584 20.1426C20.9878 20.41 21.0232 20.7013 20.9854 20.9961C20.9151 21.5404 20.6331 21.9447 20.2373 22.1914C19.8766 22.4161 19.4708 22.4814 19.1543 22.4961C18.828 22.5112 18.5215 22.4755 18.3057 22.4395C18.1955 22.421 18.1033 22.402 18.0371 22.3867C18.004 22.3791 17.9768 22.3722 17.957 22.3672C17.9473 22.3647 17.9388 22.363 17.9326 22.3613L17.9219 22.3584C17.5229 22.2473 17.2874 21.8326 17.3984 21.4336C17.5095 21.0346 17.9223 20.8011 18.3213 20.9121ZM11.4336 19.8789C11.4335 21.2123 10.485 22.4971 9.08203 22.4971C7.6793 22.4969 6.73057 21.2122 6.73047 19.8789C6.73047 18.5455 7.67922 17.261 9.08203 17.2607C10.485 17.2607 11.4336 18.5454 11.4336 19.8789ZM16.4834 19.8789C16.4833 20.5733 16.2078 21.2395 15.7168 21.7305C15.2258 22.2214 14.5596 22.4971 13.8652 22.4971H12.7979C12.3836 22.4971 12.0479 22.1613 12.0479 21.7471V18.0107C12.0479 17.5965 12.3836 17.2607 12.7979 17.2607H13.8652C14.5597 17.2607 15.2257 17.5363 15.7168 18.0273C16.2078 18.5184 16.4834 19.1845 16.4834 19.8789Z" fill="black"/>
<path fill-rule="evenodd" clip-rule="evenodd" d="M20.25 7.5C20.25 5.01472 16.5563 3 12 3C7.44365 3 3.75 5.01472 3.75 7.5C3.75467 9.94167 7.33212 11.9275 11.7872 11.989C11.8579 11.9899 11.9288 11.9904 12 11.9904C16.5563 11.9904 20.25 9.98264 20.25 7.5Z" fill="black"/>
<path fill-rule="evenodd" clip-rule="evenodd" d="M21 10.5049C21 12.1497 19.7867 13.4731 18.1924 14.3418C16.5695 15.2261 14.3788 15.75 12 15.75C9.62124 15.75 7.43053 15.2261 5.80762 14.3418C5.32968 14.0814 4.88702 13.779 4.5 13.4404V13.9121C4.5 14.3802 4.68961 14.8623 5.10156 15.3389C5.32317 15.5952 5.6065 15.8458 5.9502 16.083C6.2911 16.3183 6.37687 16.786 6.1416 17.127C5.90632 17.4678 5.43855 17.5536 5.09766 17.3184C4.66638 17.0207 4.28396 16.6871 3.9668 16.3203C3.37323 15.6337 3 14.8152 3 13.9121V7.06934C3.00008 6.93532 3.03794 6.811 3.09961 6.70215C3.41694 5.42317 4.47853 4.38239 5.80762 3.6582C6.51756 3.27138 7.33596 2.95296 8.23145 2.71777C8.35944 2.68412 8.48907 2.6523 8.62012 2.62207C8.88204 2.56171 9.14987 2.50814 9.42285 2.46191C9.55958 2.43874 9.69769 2.41795 9.83691 2.39844C10.1149 2.35952 10.3977 2.32754 10.6846 2.30371C11.1148 2.26794 11.5541 2.25 12 2.25C12.4459 2.25 12.8852 2.26794 13.3154 2.30371C13.6023 2.32754 13.8851 2.35952 14.1631 2.39844C14.3023 2.41795 14.4404 2.43874 14.5771 2.46191C14.8501 2.50814 15.118 2.56171 15.3799 2.62207C15.5109 2.6523 15.6406 2.68412 15.7686 2.71777C16.664 2.95296 17.4824 3.27138 18.1924 3.6582C19.7867 4.52691 21 5.85031 21 7.49512V10.5049ZM20.25 7.5C20.25 5.01472 16.5563 3 12 3C7.44365 3 3.75 5.01472 3.75 7.5C3.75467 9.94167 7.33212 11.9275 11.7872 11.989C11.8579 11.9899 11.9288 11.9904 12 11.9904C16.5563 11.9904 20.25 9.98264 20.25 7.5ZM18.1924 11.3408C18.6704 11.0801 19.113 10.7764 19.5 10.4375V10.5049C19.5 11.3426 18.8661 12.2662 17.4746 13.0244C16.1116 13.7671 14.1775 14.25 12 14.25C9.82251 14.25 7.88842 13.7671 6.52539 13.0244C5.22099 12.3137 4.58265 11.4576 4.50781 10.6631L4.5 10.5049V10.4375C4.88698 10.7764 5.32961 11.0801 5.80762 11.3408C7.43053 12.2259 9.6213 12.75 12 12.75C14.3787 12.75 16.5695 12.2259 18.1924 11.3408Z" fill="black"/>
</svg>
