<?xml version="1.0" encoding="utf-8"?>
<svg xmlns="http://www.w3.org/2000/svg" width="512" height="512" viewBox="0 0 512 512">
  <path d="M384 32c-35.3 0-64 28.7-64 64v64c0 35.3 28.7 64 64 64 35.4 0 64-28.7 64-64V96c0-35.3-28.6-64-64-64zm32 116.7c0 23.5-14.3 42.6-32 42.6-17.6 0-32-19.1-32-42.6V106c0-23.6 14.4-42.7 32-42.7 17.7 0 32 19.1 32 42.7v42.7zM384 256c-35.3 0-64 28.7-64 64v64c0 35.3 28.7 64 64 64 35.4 0 64-28.7 64-64v-64c0-35.3-28.6-64-64-64zm32 116.7c0 23.6-14.3 42.7-32 42.7-17.6 0-32-19.1-32-42.7V330c0-23.6 14.4-42.7 32-42.7 17.7 0 32 19.1 32 42.7v42.7zM224 32c-35.3 0-64 28.7-64 64v64c0 35.3 28.7 64 64 64 35.4 0 64-28.7 64-64V96c0-35.3-28.7-64-64-64zm32 116.7c0 23.5-14.3 42.6-32 42.6s-32-19.1-32-42.6V106c0-23.6 14.3-42.7 32-42.7s32 19.1 32 42.7v42.7zM128 224H96v-32h32v32zm128 192h32v32h-32v-32zM64 256l128 96-128 96V256z"/>
</svg>
