<svg width="24" height="24" viewBox="0 0 24 24" fill="none" xmlns="http://www.w3.org/2000/svg">
<path d="M11.3106 5.31425C11.7481 5.14424 12.231 5.14053 12.67 5.30449L12.8819 5.39824L22.1827 10.2225L22.3116 10.2957C23.5628 11.0631 23.563 12.9376 22.3116 13.7049L22.1827 13.7771L12.8809 18.6004C12.3276 18.888 11.6723 18.8878 11.1192 18.6014L1.81742 13.7771C0.394264 13.0399 0.394123 10.9596 1.81742 10.2225L11.2813 5.31425H11.3106ZM12.1914 6.72929C12.0701 6.66684 11.9299 6.66872 11.8116 6.73027L2.50785 11.5545C2.16462 11.7322 2.16462 12.2674 2.50785 12.4451L11.8086 17.2693C11.9302 17.3323 12.0718 17.332 12.1905 17.2703L21.4922 12.4461C21.8141 12.2794 21.8346 11.7974 21.5528 11.5916L21.4922 11.5545L12.1914 6.72929Z" fill="black"/>
<path fill-rule="evenodd" clip-rule="evenodd" d="M11.8116 6.73027C11.9299 6.66872 12.0701 6.66684 12.1914 6.72929L21.4922 11.5545L21.5528 11.5916C21.8346 11.7974 21.8141 12.2794 21.4922 12.4461L12.1905 17.2703C12.0718 17.332 11.9302 17.3323 11.8086 17.2693L2.50785 12.4451C2.16462 12.2674 2.16462 11.7322 2.50785 11.5545L11.8116 6.73027Z" fill="black"/>
</svg>
