<svg viewBox="0 0 24 24" fill="none" xmlns="http://www.w3.org/2000/svg" width="24" height="24">
<path d="M15.665 9.72C16.055 9.72 16.344 9.528 16.532 9.145 16.72 8.755 16.815 8.14 16.815 7.3 16.815 6.46 16.72 5.856 16.532 5.486 16.344 5.117 16.055 4.932 15.665 4.932 15.275 4.932 14.986 5.117 14.798 5.486 14.61 5.856 14.515 6.461 14.515 7.3 14.515 8.14 14.61 8.755 14.798 9.145 14.986 9.528 15.275 9.72 15.665 9.72Z" fill="black"/>
<path d="M8.861 19.094C9.251 19.094 9.54 18.902 9.728 18.519 9.916 18.129 10.011 17.514 10.011 16.674 10.011 15.834 9.916 15.23 9.728 14.86 9.54 14.49 9.251 14.306 8.861 14.306 8.471 14.306 8.182 14.49 7.994 14.86 7.806 15.23 7.712 15.834 7.712 16.674 7.712 17.514 7.806 18.129 7.994 18.519 8.182 18.902 8.471 19.094 8.861 19.094Z" fill="black"/>
<path d="M15.665 19.094C16.055 19.094 16.344 18.902 16.532 18.519 16.72 18.129 16.815 17.514 16.815 16.674 16.815 15.834 16.72 15.23 16.532 14.86 16.344 14.49 16.055 14.306 15.665 14.306 15.275 14.306 14.986 14.49 14.798 14.86 14.61 15.23 14.517 15.834 14.517 16.674 14.517 17.514 14.61 18.129 14.798 18.519 14.986 18.902 15.275 19.094 15.665 19.094Z" fill="black"/>
<path fill-rule="evenodd" clip-rule="evenodd" d="M20.82 21.72C21.317 21.72 21.72 21.317 21.72 20.82V3.18C21.72 2.683 21.317 2.28 20.82 2.28H3.18C2.683 2.28 2.28 2.683 2.28 3.18V20.82C2.28 21.317 2.683 21.72 3.18 21.72H20.82ZM8.275 10.947C8.211 10.934 8.152 10.902 8.105 10.856L4.789 7.54C4.758 7.51 4.733 7.473 4.716 7.433 4.7 7.392 4.692 7.348 4.692 7.305 4.692 7.262 4.7 7.218 4.716 7.178 4.733 7.138 4.758 7.101 4.789 7.071L8.105 3.755C8.152 3.709 8.211 3.677 8.275 3.664 8.339 3.651 8.406 3.658 8.466 3.683 8.527 3.708 8.579 3.751 8.615 3.806 8.651 3.86 8.671 3.924 8.671 3.99V10.621C8.671 10.687 8.651 10.751 8.615 10.805 8.579 10.86 8.527 10.903 8.466 10.928 8.406 10.953 8.339 10.96 8.275 10.947ZM15.665 10.989C14.805 10.989 14.146 10.67 13.689 10.032 13.239 9.387 13.014 8.476 13.014 7.3 13.014 6.514 13.115 5.853 13.317 5.315 13.525 4.771 13.823 4.36 14.213 4.085 14.61 3.802 15.094 3.662 15.665 3.662 16.532 3.662 17.191 3.974 17.641 4.599 18.091 5.217 18.316 6.118 18.316 7.3 18.316 8.086 18.212 8.755 18.004 9.306 17.803 9.851 17.507 10.267 17.117 10.556 16.727 10.845 16.243 10.989 15.665 10.989ZM11.139 10.972C10.664 10.972 10.278 10.586 10.278 10.11 10.278 9.635 10.664 9.249 11.139 9.249 11.614 9.249 11.999 9.635 11.999 10.11 11.999 10.586 11.615 10.971 11.139 10.972ZM8.861 20.363C8.001 20.363 7.342 20.044 6.885 19.406 6.435 18.761 6.21 17.85 6.21 16.674 6.21 15.888 6.311 15.226 6.513 14.689 6.721 14.145 7.019 13.734 7.409 13.458 7.806 13.176 8.29 13.035 8.861 13.035 9.728 13.035 10.387 13.348 10.837 13.973 11.287 14.591 11.512 15.491 11.512 16.674 11.512 17.46 11.409 18.129 11.2 18.68 10.999 19.224 10.703 19.641 10.313 19.929 9.923 20.218 9.439 20.363 8.861 20.363ZM15.665 20.363C14.805 20.363 14.146 20.044 13.689 19.406 13.239 18.761 13.014 17.85 13.014 16.674 13.014 15.888 13.115 15.226 13.317 14.689 13.525 14.145 13.824 13.734 14.214 13.458 14.611 13.176 15.094 13.035 15.665 13.035 16.532 13.035 17.191 13.348 17.641 13.973 18.091 14.591 18.316 15.491 18.316 16.674 18.316 17.46 18.212 18.129 18.004 18.68 17.803 19.224 17.507 19.641 17.117 19.929 16.727 20.218 16.243 20.363 15.665 20.363Z" fill="black"/>
</svg>