<svg width="24" height="24" viewBox="0 0 24 24" fill="none" xmlns="http://www.w3.org/2000/svg">
<path d="M7.49803 8.21041C8.74066 8.21041 9.74801 7.20306 9.74801 5.96043C9.74801 4.7178 8.74066 3.71045 7.49803 3.71045C6.2554 3.71045 5.24805 4.7178 5.24805 5.96043C5.24805 7.20306 6.2554 8.21041 7.49803 8.21041Z" fill="black"/>
<path d="M18.748 8.21041C19.9907 8.21041 20.998 7.20306 20.998 5.96043C20.998 4.7178 19.9907 3.71045 18.748 3.71045C17.5054 3.71045 16.498 4.7178 16.498 5.96043C16.498 7.20306 17.5054 8.21041 18.748 8.21041Z" fill="black"/>
<path d="M7.49803 20.2104C8.74066 20.2104 9.74801 19.2031 9.74801 17.9604C9.74801 16.7178 8.74066 15.7104 7.49803 15.7104C6.2554 15.7104 5.24805 16.7178 5.24805 17.9604C5.24805 19.2031 6.2554 20.2104 7.49803 20.2104Z" fill="black"/>
<path d="M18.748 8.21167V10.4617C18.748 10.8595 18.5899 11.241 18.3086 11.5223C18.0273 11.8036 17.6458 11.9616 17.248 11.9616H8.99804C8.60021 11.9616 8.21869 12.1197 7.93738 12.401C7.65608 12.6823 7.49805 13.0638 7.49805 13.4616V15.7116V8.21167M9.74801 5.96043C9.74801 7.20306 8.74066 8.21041 7.49803 8.21041C6.2554 8.21041 5.24805 7.20306 5.24805 5.96043C5.24805 4.7178 6.2554 3.71045 7.49803 3.71045C8.74066 3.71045 9.74801 4.7178 9.74801 5.96043ZM20.998 5.96043C20.998 7.20306 19.9907 8.21041 18.748 8.21041C17.5054 8.21041 16.498 7.20306 16.498 5.96043C16.498 4.7178 17.5054 3.71045 18.748 3.71045C19.9907 3.71045 20.998 4.7178 20.998 5.96043ZM9.74801 17.9604C9.74801 19.2031 8.74066 20.2104 7.49803 20.2104C6.2554 20.2104 5.24805 19.2031 5.24805 17.9604C5.24805 16.7178 6.2554 15.7104 7.49803 15.7104C8.74066 15.7104 9.74801 16.7178 9.74801 17.9604Z" stroke="black" stroke-width="1.49999" stroke-linecap="round" stroke-linejoin="round"/>
</svg>
