<svg width="24" height="24" viewBox="0 0 24 24" fill="none" xmlns="http://www.w3.org/2000/svg">
<path d="M10.04 13.5938C10.3334 13.5938 10.6565 13.7506 10.9316 14.1172C11.207 14.4843 11.3994 15.0262 11.3994 15.6562C11.3994 16.2863 11.207 16.8282 10.9316 17.1953C10.6565 17.5619 10.3334 17.7188 10.04 17.7188C9.74665 17.7186 9.42349 17.562 9.14844 17.1953C8.8731 16.8282 8.68066 16.2863 8.68066 15.6562C8.68066 15.0262 8.8731 14.4843 9.14844 14.1172C9.42349 13.7505 9.74665 13.5939 10.04 13.5938Z" fill="black"/>
<path d="M16.415 13.5938C16.7084 13.5938 17.0315 13.7506 17.3066 14.1172C17.582 14.4843 17.7744 15.0262 17.7744 15.6562C17.7744 16.2863 17.582 16.8282 17.3066 17.1953C17.0315 17.5619 16.7084 17.7188 16.415 17.7188C16.1217 17.7186 15.7985 17.562 15.5234 17.1953C15.2481 16.8282 15.0557 16.2863 15.0557 15.6562C15.0557 15.0262 15.2481 14.4843 15.5234 14.1172C15.7985 13.7505 16.1217 13.5939 16.415 13.5938Z" fill="black"/>
<path d="M16.415 5.71875C16.7084 5.71875 17.0315 5.87556 17.3066 6.24219C17.582 6.60931 17.7744 7.15119 17.7744 7.78125C17.7744 8.41131 17.582 8.95319 17.3066 9.32031C17.0315 9.68694 16.7084 9.84375 16.415 9.84375C16.1217 9.84361 15.7985 9.68704 15.5234 9.32031C15.2481 8.95319 15.0557 8.41131 15.0557 7.78125C15.0557 7.15119 15.2481 6.60931 15.5234 6.24219C15.7985 5.87546 16.1217 5.71889 16.415 5.71875Z" fill="black"/>
<path fill-rule="evenodd" clip-rule="evenodd" d="M19.5 3C19.8978 3 20.2792 3.15815 20.5605 3.43945C20.8419 3.72076 21 4.10218 21 4.5V19.5C21 19.8978 20.8419 20.2792 20.5605 20.5605C20.2792 20.8419 19.8978 21 19.5 21H4.5C4.10218 21 3.72076 20.8419 3.43945 20.5605C3.15815 20.2792 3 19.8978 3 19.5V4.5C3 4.10218 3.15815 3.72076 3.43945 3.43945C3.72076 3.15815 4.10218 3 4.5 3H19.5ZM10.04 12.0938C9.16873 12.0939 8.43742 12.5668 7.94922 13.2178C7.46112 13.8686 7.18066 14.733 7.18066 15.6562C7.18066 16.5795 7.46112 17.4439 7.94922 18.0947C8.43742 18.7457 9.16873 19.2186 10.04 19.2188C10.9115 19.2188 11.6436 18.7458 12.1318 18.0947C12.6199 17.4439 12.8994 16.5794 12.8994 15.6562C12.8994 14.7331 12.6199 13.8686 12.1318 13.2178C11.6436 12.5667 10.9115 12.0938 10.04 12.0938ZM16.415 12.0938C15.5437 12.0939 14.8124 12.5668 14.3242 13.2178C13.8361 13.8686 13.5557 14.733 13.5557 15.6562C13.5557 16.5795 13.8361 17.4439 14.3242 18.0947C14.8124 18.7457 15.5437 19.2186 16.415 19.2188C17.2865 19.2188 18.0186 18.7458 18.5068 18.0947C18.9949 17.4439 19.2744 16.5794 19.2744 15.6562C19.2744 14.7331 18.9949 13.8686 18.5068 13.2178C18.0186 12.5667 17.2865 12.0938 16.415 12.0938ZM6.21875 17.4375C5.80454 17.4375 5.46875 17.7733 5.46875 18.1875C5.46875 18.6017 5.80454 18.9375 6.21875 18.9375H6.41895C6.83307 18.9374 7.16894 18.6016 7.16895 18.1875C7.16895 17.7734 6.83307 17.4376 6.41895 17.4375H6.21875ZM16.415 4.21875C15.5437 4.21889 14.8124 4.69184 14.3242 5.34277C13.8361 5.99357 13.5557 6.85801 13.5557 7.78125C13.5557 8.70449 13.8361 9.56893 14.3242 10.2197C14.8124 10.8707 15.5437 11.3436 16.415 11.3438C17.2865 11.3438 18.0186 10.8708 18.5068 10.2197C18.9949 9.56894 19.2744 8.70444 19.2744 7.78125C19.2744 6.85806 18.9949 5.99356 18.5068 5.34277C18.0186 4.69174 17.2865 4.21875 16.415 4.21875ZM10.5488 4.53809C10.2687 4.42223 9.94584 4.48678 9.73145 4.70117L7.17188 7.26074C7.03138 7.40137 6.95215 7.59223 6.95215 7.79102C6.95217 7.98981 7.03136 8.18067 7.17188 8.32129L9.73145 10.8809C9.94592 11.0953 10.2686 11.159 10.5488 11.043C10.829 10.9269 11.0117 10.6539 11.0117 10.3506V5.23145C11.0117 4.9281 10.8291 4.65417 10.5488 4.53809ZM12.5469 9.5625C12.1327 9.5625 11.7969 9.89829 11.7969 10.3125C11.7969 10.7267 12.1327 11.0625 12.5469 11.0625H12.7471C13.1612 11.0624 13.4971 10.7266 13.4971 10.3125C13.4971 9.89835 13.1612 9.56261 12.7471 9.5625H12.5469Z" fill="black"/>
</svg>
