<svg width="24" height="24" viewBox="0 0 24 24" fill="none" xmlns="http://www.w3.org/2000/svg">
<path d="M15.0542 13.8999C15.379 13.8999 15.6201 14.0602 15.7769 14.3794C15.9336 14.7042 16.0122 15.2167 16.0122 15.9165C16.0122 16.6163 15.9336 17.1202 15.7769 17.4282C15.6201 17.7362 15.379 17.8901 15.0542 17.8901C14.7294 17.8901 14.4883 17.7362 14.3315 17.4282C14.1748 17.1202 14.0962 16.6162 14.0962 15.9165C14.0962 15.2167 14.1748 14.7042 14.3315 14.3794C14.4883 14.0602 14.7294 13.8999 15.0542 13.8999Z" fill="black"/>
<path d="M9.38428 6.08838C9.70907 6.08838 9.95013 6.24867 10.1069 6.56787C10.2636 6.89269 10.3423 7.40517 10.3423 8.10498C10.3423 8.80474 10.2636 9.30869 10.1069 9.6167C9.95013 9.9247 9.70907 10.0786 9.38428 10.0786C9.05948 10.0786 8.81842 9.9247 8.66162 9.6167C8.50491 9.3087 8.42628 8.80474 8.42627 8.10498C8.42627 7.40517 8.50491 6.89268 8.66162 6.56787C8.81842 6.24867 9.05948 6.08838 9.38428 6.08838Z" fill="black"/>
<path d="M15.0542 6.08838C15.379 6.08838 15.6201 6.24867 15.7769 6.56787C15.9336 6.89268 16.0122 7.40513 16.0122 8.10498C16.0122 8.80479 15.9336 9.3087 15.7769 9.6167C15.6201 9.9247 15.379 10.0786 15.0542 10.0786C14.7295 10.0786 14.4883 9.92465 14.3315 9.6167C14.1749 9.30869 14.0972 8.80469 14.0972 8.10498C14.0972 7.40522 14.1749 6.89269 14.3315 6.56787C14.4883 6.24873 14.7295 6.08843 15.0542 6.08838Z" fill="black"/>
<path fill-rule="evenodd" clip-rule="evenodd" d="M19.3501 3.8999C19.7642 3.90001 20.1001 4.23575 20.1001 4.6499V19.3501C20.1 19.7642 19.7642 20.1 19.3501 20.1001H4.6499C4.23575 20.1001 3.90001 19.7642 3.8999 19.3501V4.6499C3.8999 4.23569 4.23569 3.8999 4.6499 3.8999H19.3501ZM6.08057 12.8931C6.03005 12.914 5.9869 12.9501 5.95654 12.9956C5.92623 13.0411 5.90962 13.0943 5.90967 13.1489V18.6753C5.90968 18.7299 5.92624 18.7832 5.95654 18.8286C5.98692 18.8741 6.03007 18.9102 6.08057 18.9312C6.1309 18.9519 6.18632 18.9573 6.23975 18.9468C6.29336 18.9361 6.34268 18.9092 6.38135 18.8706L9.14502 16.1079C9.17068 16.0823 9.19068 16.0516 9.20459 16.0181C9.21844 15.9846 9.22602 15.9488 9.22607 15.9126C9.22607 15.8763 9.2185 15.8397 9.20459 15.8062C9.19069 15.7727 9.17065 15.7419 9.14502 15.7163L6.38135 12.9536C6.3427 12.9149 6.29338 12.8881 6.23975 12.8774C6.18632 12.8668 6.13092 12.8723 6.08057 12.8931ZM15.0542 12.8423C14.3374 12.8423 13.7885 13.1082 13.4077 13.6401C13.0326 14.1777 12.8452 14.9366 12.8452 15.9165C12.8452 16.5715 12.9293 17.1229 13.0972 17.5708C13.2707 18.0243 13.5195 18.3666 13.8442 18.5962C14.1746 18.8314 14.5782 18.9487 15.0542 18.9487C15.7766 18.9487 16.3255 18.6883 16.7007 18.1675C17.0758 17.6523 17.2632 16.902 17.2632 15.9165C17.2632 15.2613 17.177 14.7038 17.0034 14.2446C16.8355 13.7912 16.5888 13.4444 16.2642 13.2036C15.9394 12.9628 15.5358 12.8423 15.0542 12.8423ZM11.2827 12.8569C10.8864 12.8569 10.5649 13.1784 10.5649 13.5747C10.5651 13.9709 10.8865 14.2925 11.2827 14.2925C11.6787 14.2923 11.9993 13.9707 11.9995 13.5747C11.9995 13.1785 11.6788 12.8572 11.2827 12.8569ZM9.38428 5.03076C8.66748 5.03076 8.11859 5.29661 7.73779 5.82861C7.36266 6.36621 7.17529 7.12506 7.17529 8.10498C7.1753 8.75999 7.25933 9.31135 7.42725 9.75928C7.60082 10.2128 7.84958 10.5551 8.17432 10.7847C8.50472 11.0199 8.90828 11.1372 9.38428 11.1372C10.1067 11.1372 10.6556 10.8768 11.0308 10.356C11.4059 9.84078 11.5932 9.09045 11.5933 8.10498C11.5933 7.44978 11.5071 6.89231 11.3335 6.43311C11.1656 5.97971 10.9188 5.63288 10.5942 5.39209C10.2694 5.15129 9.86587 5.03076 9.38428 5.03076ZM15.0542 5.03076C14.3375 5.0308 13.7885 5.29666 13.4077 5.82861C13.0326 6.3662 12.8452 7.12511 12.8452 8.10498C12.8452 8.75996 12.9293 9.31136 13.0972 9.75928C13.2708 10.2129 13.5204 10.5551 13.8452 10.7847C14.1755 11.0197 14.5785 11.1372 15.0542 11.1372C15.7766 11.1372 16.3255 10.8768 16.7007 10.356C17.0759 9.84078 17.2632 9.0905 17.2632 8.10498C17.2632 7.44978 17.177 6.89231 17.0034 6.43311C16.8355 5.97969 16.5888 5.63287 16.2642 5.39209C15.9394 5.15129 15.5358 5.03076 15.0542 5.03076Z" fill="black"/>
</svg>
