<svg viewBox="0 0 24 24" fill="none" xmlns="http://www.w3.org/2000/svg" width="24" height="24">
<path d="M3.096 12.813C2.648 12.813 2.285 12.451 2.285 12.003 2.285 11.556 2.648 11.194 3.096 11.194L20.915 11.194C21.362 11.194 21.725 11.556 21.725 12.003 21.725 12.451 21.362 12.813 20.915 12.813L3.096 12.813Z" fill="black"/>
<path d="M6.056 3.906C5.609 3.906 5.246 3.543 5.246 3.096 5.246 2.649 5.609 2.287 6.056 2.286L17.936 2.286C18.384 2.286 18.746 2.649 18.746 3.096 18.746 3.543 18.384 3.906 17.936 3.906L6.056 3.906Z" fill="black"/>
<path d="M6.065 21.731C5.618 21.731 5.255 21.369 5.255 20.922 5.255 20.474 5.618 20.112 6.065 20.112L17.946 20.112C18.393 20.112 18.755 20.474 18.755 20.922 18.755 21.369 18.393 21.731 17.946 21.731L6.065 21.731Z" fill="black"/>
<path d="M14.289 7.519C14.605 7.203 14.605 6.69 14.289 6.374 13.973 6.058 13.46 6.058 13.144 6.374L11.996 7.522 10.848 6.374C10.532 6.058 10.02 6.058 9.703 6.374 9.387 6.69 9.387 7.203 9.703 7.519L11.424 9.24C11.74 9.556 12.252 9.556 12.569 9.24L14.289 7.519Z" fill="black"/>
<path d="M9.713 16.886C9.396 17.202 9.396 17.715 9.713 18.031 10.029 18.347 10.541 18.347 10.858 18.031L12.005 16.883 13.153 18.031C13.469 18.347 13.982 18.347 14.298 18.031 14.615 17.715 14.615 17.202 14.298 16.886L12.578 15.165C12.262 14.849 11.749 14.849 11.433 15.165L9.713 16.886Z" fill="black"/>
</svg>