<svg width="24" height="24" viewBox="0 0 24 24" fill="none" xmlns="http://www.w3.org/2000/svg">
<path fill-rule="evenodd" clip-rule="evenodd" d="M20.75 1.5C21.2141 1.5 21.6591 1.68451 21.9873 2.0127C22.3155 2.34088 22.5 2.78587 22.5 3.25V20.75C22.5 21.2141 22.3155 21.6591 21.9873 21.9873C21.6591 22.3155 21.2141 22.5 20.75 22.5H3.25C2.78587 22.5 2.34088 22.3155 2.0127 21.9873C1.68451 21.6591 1.5 21.2141 1.5 20.75V3.25C1.5 2.78587 1.68451 2.34088 2.0127 2.0127C2.34088 1.68451 2.78587 1.5 3.25 1.5H20.75ZM12 3.90039C11.6272 3.90039 11.3252 4.2024 11.3252 4.5752V19.4248C11.3252 19.7976 11.6272 20.1006 12 20.1006C12.3728 20.1006 12.6748 19.7976 12.6748 19.4248V4.5752C12.6748 4.2024 12.3728 3.90039 12 3.90039ZM4.57715 6.38281C4.20436 6.38281 3.90234 6.68482 3.90234 7.05762V16.958C3.90255 17.3306 4.20449 17.6328 4.57715 17.6328C4.94981 17.6328 5.25174 17.3306 5.25195 16.958V7.05762C5.25195 6.68482 4.94994 6.38281 4.57715 6.38281ZM19.4316 6.375C19.0588 6.375 18.7568 6.67701 18.7568 7.0498V16.9502C18.757 17.3228 19.059 17.625 19.4316 17.625C19.8043 17.625 20.1062 17.3228 20.1064 16.9502V7.0498C20.1064 6.67701 19.8044 6.375 19.4316 6.375ZM8.26367 10.0967C8.00007 9.83308 7.5722 9.83308 7.30859 10.0967C7.04499 10.3603 7.04499 10.7882 7.30859 11.0518L8.26465 12.0078L7.30859 12.9639C7.04499 13.2275 7.04499 13.6553 7.30859 13.9189C7.5722 14.1825 8.00007 14.1825 8.26367 13.9189L9.69727 12.4854C9.96087 12.2217 9.96087 11.7939 9.69727 11.5303L8.26367 10.0967ZM17.0234 10.0889C16.7599 9.82528 16.332 9.82532 16.0684 10.0889L14.6348 11.5225C14.3712 11.7861 14.3712 12.2139 14.6348 12.4775L16.0684 13.9111C16.332 14.1747 16.7599 14.1747 17.0234 13.9111C17.287 13.6475 17.287 13.2196 17.0234 12.9561L16.0674 12L17.0234 11.0439C17.287 10.7804 17.287 10.3525 17.0234 10.0889Z" fill="black"/>
</svg>
