<svg width="24" height="24" viewBox="0 0 24 24" fill="none" xmlns="http://www.w3.org/2000/svg">
<path d="M12 5.25C12 4.42157 12.6716 3.75 13.5 3.75H18.75C19.5784 3.75 20.25 4.42157 20.25 5.25V10.5C20.25 11.3284 19.5784 12 18.75 12H12V5.25Z" fill="black"/>
<path d="M3.75 13.5C3.75 12.6716 4.42157 12 5.25 12H12V18.75C12 19.5784 11.3284 20.25 10.5 20.25H5.25C4.42157 20.25 3.75 19.5784 3.75 18.75V13.5Z" fill="black"/>
<path d="M12 12H18.75C19.5784 12 20.25 11.3284 20.25 10.5V5.25C20.25 4.42157 19.5784 3.75 18.75 3.75H13.5C12.6716 3.75 12 4.42157 12 5.25V12ZM12 12H5.25C4.42157 12 3.75 12.6716 3.75 13.5V18.75C3.75 19.5784 4.42157 20.25 5.25 20.25H10.5C11.3284 20.25 12 19.5784 12 18.75V12ZM19.5 3.75C19.9142 3.75 20.25 4.08579 20.25 4.5V12H3.75V19.5C3.75 19.9142 4.08579 20.25 4.5 20.25H12V3.75H19.5Z" stroke="black" stroke-width="1.5" stroke-linecap="round" stroke-linejoin="round"/>
</svg>
