<svg xmlns="http://www.w3.org/2000/svg" fill="currentColor" viewBox="0 0 24 24" width="24" height="24"><path d="M11.19 6.736v11.34a0.408 0.408 0 0 1-0.406 0.404H8.76v1.62h1.592a0.828 0.828 0 0 1 0.836 0.756 0.81 0.81 0 0 1-0.81 0.864H5.546a0.828 0.828 0 0 1-0.837-0.756 0.81 0.81 0 0 1 0.81-0.864h1.62V18.48h-4.86a2.43 2.43 0 0 1-2.43-2.43V8.76a2.43 2.43 0 0 1 2.43-2.43h8.505a0.408 0.408 0 0 1 0.405 0.406z m12.96-2.835v16.2a1.62 1.62 0 0 1-1.62 1.62h-8.1a1.62 1.62 0 0 1-1.62-1.62v-16.2a1.62 1.62 0 0 1 1.62-1.62h8.1a1.62 1.62 0 0 1 1.62 1.62m-4.465 13.524a1.216 1.216 0 1 0-1.047 1.047 1.212 1.212 0 0 0 1.047-1.047m2.035-7.908a0.828 0.828 0 0 0-0.838-0.756h-4.804a0.828 0.828 0 0 0-0.836 0.756 0.81 0.81 0 0 0 0.81 0.864h4.86a0.81 0.81 0 0 0 0.808-0.864m0-3.24a0.828 0.828 0 0 0-0.838-0.756h-4.804a0.828 0.828 0 0 0-0.838 0.756 0.81 0.81 0 0 0 0.81 0.864h4.86a0.81 0.81 0 0 0 0.81-0.864"/></svg>