<svg width="24" height="24" viewBox="0 0 24 24" fill="none" xmlns="http://www.w3.org/2000/svg">
<path d="M19.4989 3.75244H4.49901C3.90227 3.75244 3.32998 3.98949 2.90803 4.41145C2.48607 4.8334 2.24902 5.40569 2.24902 6.00242V16.5023C2.24902 17.0991 2.48607 17.6714 2.90803 18.0933C3.32998 18.5153 3.90227 18.7523 4.49901 18.7523H11.249V20.2523H8.99897C8.80006 20.2523 8.6093 20.3313 8.46865 20.472C8.32799 20.6126 8.24898 20.8034 8.24898 21.0023C8.24898 21.2012 8.32799 21.392 8.46865 21.5326C8.6093 21.6733 8.80006 21.7523 8.99897 21.7523H14.9989C15.1978 21.7523 15.3886 21.6733 15.5293 21.5326C15.6699 21.392 15.7489 21.2012 15.7489 21.0023C15.7489 20.8034 15.6699 20.6126 15.5293 20.472C15.3886 20.3313 15.1978 20.2523 14.9989 20.2523H12.7489V18.7523H19.4989C20.0956 18.7523 20.6679 18.5153 21.0899 18.0933C21.5118 17.6714 21.7489 17.0991 21.7489 16.5023V6.00242C21.7489 5.40569 21.5118 4.8334 21.0899 4.41145C20.6679 3.98949 20.0956 3.75244 19.4989 3.75244ZM19.4989 17.2523H4.49901C4.3001 17.2523 4.10933 17.1733 3.96868 17.0327C3.82803 16.892 3.74901 16.7013 3.74901 16.5023V15.0024H20.2489V16.5023C20.2489 16.7013 20.1699 16.892 20.0292 17.0327C19.8886 17.1733 19.6978 17.2523 19.4989 17.2523Z" fill="black"/>
</svg>
