<svg width="24" height="24" viewBox="0 0 24 24" fill="none" xmlns="http://www.w3.org/2000/svg">
<g clip-path="url(#clip0_2110_2181)">
<path d="M11.2489 7.12765V17.6276C11.2489 17.727 11.2094 17.8224 11.1391 17.8927C11.0688 17.9631 10.9734 18.0026 10.8739 18.0026H8.99896V19.5026H10.4736C10.6671 19.5002 10.8544 19.571 10.9978 19.7009C11.1412 19.8308 11.2303 20.0101 11.2471 20.2029C11.2539 20.3055 11.2395 20.4083 11.2049 20.5052C11.1703 20.602 11.1161 20.6906 11.0458 20.7656C10.9754 20.8406 10.8904 20.9003 10.796 20.9411C10.7017 20.9819 10.5999 21.0028 10.4971 21.0025H6.0243C5.83048 21.0054 5.64278 20.9348 5.49894 20.8048C5.3551 20.6749 5.26579 20.4953 5.24899 20.3022C5.24218 20.1997 5.25653 20.0968 5.29116 19.9999C5.32579 19.9031 5.37995 19.8145 5.45029 19.7395C5.52062 19.6645 5.60562 19.6048 5.70001 19.564C5.7944 19.5233 5.89617 19.5023 5.99898 19.5026H7.49897V18.0026H2.99901C2.40227 18.0026 1.82998 17.7655 1.40803 17.3436C0.986075 16.9216 0.749023 16.3493 0.749023 15.7526V9.00264C0.749023 8.40591 0.986075 7.83361 1.40803 7.41166C1.82998 6.98971 2.40227 6.75266 2.99901 6.75266H10.8739C10.9734 6.75266 11.0688 6.79217 11.1391 6.86249C11.2094 6.93282 11.2489 7.0282 11.2489 7.12765ZM23.2489 4.50267V19.5026C23.2489 19.9004 23.0908 20.2819 22.8095 20.5632C22.5282 20.8445 22.1467 21.0025 21.7489 21.0025H14.2489C13.8511 21.0025 13.4696 20.8445 13.1883 20.5632C12.907 20.2819 12.7489 19.9004 12.7489 19.5026V4.50267C12.7489 4.10485 12.907 3.72332 13.1883 3.44202C13.4696 3.16072 13.8511 3.00269 14.2489 3.00269H21.7489C22.1467 3.00269 22.5282 3.16072 22.8095 3.44202C23.0908 3.72332 23.2489 4.10485 23.2489 4.50267ZM19.1145 17.0248C19.1452 16.7918 19.1022 16.555 18.9915 16.3477C18.8807 16.1403 18.7078 15.9729 18.4971 15.8689C18.2863 15.7649 18.0483 15.7295 17.8164 15.7677C17.5845 15.8059 17.3703 15.9157 17.2041 16.0818C17.0378 16.248 16.9277 16.462 16.8893 16.6938C16.8509 16.9257 16.8861 17.1638 16.9899 17.3746C17.0937 17.5855 17.261 17.7586 17.4682 17.8695C17.6754 17.9804 17.9121 18.0237 18.1451 17.9932C18.3908 17.961 18.619 17.8487 18.7943 17.6736C18.9696 17.4985 19.0821 17.2704 19.1145 17.0248ZM20.9989 9.70295C20.9821 9.50984 20.8928 9.33027 20.7489 9.20034C20.6051 9.07041 20.4174 8.99978 20.2236 9.00264H15.7742C15.5807 9.00025 15.3935 9.07111 15.2501 9.20099C15.1066 9.33087 15.0176 9.51017 15.0008 9.70295C14.994 9.80554 15.0083 9.90843 15.043 10.0052C15.0776 10.102 15.1318 10.1907 15.2021 10.2657C15.2724 10.3407 15.3574 10.4004 15.4518 10.4412C15.5462 10.4819 15.648 10.5029 15.7508 10.5026H20.2507C20.3534 10.5026 20.455 10.4815 20.5491 10.4406C20.6433 10.3997 20.7281 10.34 20.7982 10.265C20.8683 10.19 20.9223 10.1015 20.9569 10.0048C20.9914 9.90812 21.0057 9.80538 20.9989 9.70295ZM20.9989 6.70297C20.9821 6.50987 20.8928 6.33029 20.7489 6.20036C20.6051 6.07044 20.4174 5.9998 20.2236 6.00266H15.7742C15.5804 5.9998 15.3927 6.07044 15.2489 6.20036C15.105 6.33029 15.0157 6.50987 14.9989 6.70297C14.9921 6.80556 15.0065 6.90845 15.0411 7.00526C15.0757 7.10207 15.1299 7.19072 15.2002 7.26572C15.2705 7.34071 15.3555 7.40044 15.4499 7.4412C15.5443 7.48196 15.6461 7.50288 15.7489 7.50265H20.2489C20.3517 7.50288 20.4535 7.48196 20.5478 7.4412C20.6422 7.40044 20.7272 7.34071 20.7976 7.26572C20.8679 7.19072 20.9221 7.10207 20.9567 7.00526C20.9913 6.90845 21.0057 6.80556 20.9989 6.70297Z" fill="black"/>
</g>
<defs>
<clipPath id="clip0_2110_2181">
<rect width="23.9998" height="23.9998" fill="white"/>
</clipPath>
</defs>
</svg>
