<svg width="24" height="24" viewBox="0 0 24 24" fill="none" xmlns="http://www.w3.org/2000/svg">
<g clip-path="url(#clip0_2110_2171)">
<path d="M20.9989 6.75095H19.4989V6.00096C19.4989 5.40423 19.2618 4.83193 18.8399 4.40998C18.4179 3.98803 17.8456 3.75098 17.2489 3.75098H3.74901C3.15227 3.75098 2.57998 3.98803 2.15803 4.40998C1.73607 4.83193 1.49902 5.40423 1.49902 6.00096V15.0009C1.49902 15.5976 1.73607 16.1699 2.15803 16.5919C2.57998 17.0138 3.15227 17.2509 3.74901 17.2509H14.2489V18.0009C14.2489 18.5976 14.486 19.1699 14.9079 19.5918C15.3299 20.0138 15.9022 20.2509 16.4989 20.2509H20.9989C21.5956 20.2509 22.1679 20.0138 22.5899 19.5918C23.0118 19.1699 23.2489 18.5976 23.2489 18.0009V9.00094C23.2489 8.4042 23.0118 7.83191 22.5899 7.40996C22.1679 6.988 21.5956 6.75095 20.9989 6.75095ZM21.7489 18.0009C21.7489 18.1998 21.6699 18.3905 21.5292 18.5312C21.3885 18.6718 21.1978 18.7509 20.9989 18.7509H16.4989C16.3 18.7509 16.1092 18.6718 15.9686 18.5312C15.8279 18.3905 15.7489 18.1998 15.7489 18.0009V9.00094C15.7489 8.80203 15.8279 8.61126 15.9686 8.47061C16.1092 8.32996 16.3 8.25094 16.4989 8.25094H20.9989C21.1978 8.25094 21.3885 8.32996 21.5292 8.47061C21.6699 8.61126 21.7489 8.80203 21.7489 9.00094V18.0009ZM12.7489 19.5009C12.7489 19.6998 12.6699 19.8905 12.5293 20.0312C12.3886 20.1718 12.1979 20.2509 11.9989 20.2509H8.24897C8.05006 20.2509 7.8593 20.1718 7.71865 20.0312C7.57799 19.8905 7.49898 19.6998 7.49898 19.5009C7.49898 19.3019 7.57799 19.1112 7.71865 18.9705C7.8593 18.8299 8.05006 18.7509 8.24897 18.7509H11.9989C12.1979 18.7509 12.3886 18.8299 12.5293 18.9705C12.6699 19.1112 12.7489 19.3019 12.7489 19.5009ZM20.2489 10.5009C20.2489 10.6998 20.1699 10.8906 20.0292 11.0313C19.8886 11.1719 19.6978 11.2509 19.4989 11.2509H17.9989C17.8 11.2509 17.6092 11.1719 17.4686 11.0313C17.3279 10.8906 17.2489 10.6998 17.2489 10.5009C17.2489 10.302 17.3279 10.1113 17.4686 9.9706C17.6092 9.82995 17.8 9.75093 17.9989 9.75093H19.4989C19.6978 9.75093 19.8886 9.82995 20.0292 9.9706C20.1699 10.1113 20.2489 10.302 20.2489 10.5009Z" fill="black"/>
</g>
<defs>
<clipPath id="clip0_2110_2171">
<rect width="23.9998" height="23.9998" fill="white"/>
</clipPath>
</defs>
</svg>
