<svg xmlns="http://www.w3.org/2000/svg" width="24" height="24" fill="currentColor" viewBox="0 0 24 24"><path d="M21.72 6.33h-1.62V5.52a2.43 2.43 0 0 0-2.43-2.43H3.09A2.43 2.43 0 0 0 0.66 5.52v9.72a2.43 2.43 0 0 0 2.43 2.43h11.34v0.81a2.43 2.43 0 0 0 2.43 2.43h4.86a2.43 2.43 0 0 0 2.43-2.43V8.76A2.43 2.43 0 0 0 21.72 6.33m0.81 12.15a0.81 0.81 0 0 1-0.81 0.81h-4.86a0.81 0.81 0 0 1-0.81-0.81V8.76a0.81 0.81 0 0 1 0.81-0.81h4.86a0.81 0.81 0 0 1 0.81 0.81z m-9.72 1.62a0.81 0.81 0 0 1-0.81 0.81H7.95a0.81 0.81 0 0 1 0-1.62H12a0.81 0.81 0 0 1 0.81 0.81m8.1-9.72a0.81 0.81 0 0 1-0.81 0.81H18.48a0.81 0.81 0 0 1 0-1.62h1.62a0.81 0.81 0 0 1 0.81 0.81"/></svg>