<?xml version="1.0" encoding="UTF-8"?>
<svg width="512" height="512" viewBox="0 0 512 512" fill="none" xmlns="http://www.w3.org/2000/svg">
<path d="M416 96H96C78.33 96 64 110.33 64 128V352H304V320H96V128H416V176H448V128C448 110.33 433.67 96 416 96ZM306.14 411.49L306.11 411.43C304.71 407.76 304 403.91 304 400V384H288V392C288 396.42 284.42 400 280 400H232C227.58 400 224 396.42 224 392V384H32C32 401.67 46.33 416 64 416H308.32C307.48 414.57 306.75 413.06 306.14 411.49ZM464 192H336C329.22 192 323.38 196.28 321.06 202.28C320.38 204.05 320 205.98 320 208V400C320 402.01 320.38 403.94 321.06 405.72C323.38 411.72 329.22 416 336 416H464C472.8 416 480 408.8 480 400V208C480 199.2 472.8 192 464 192ZM400 408C395.58 408 392 404.42 392 400C392 395.58 395.58 392 400 392C400.7 392 401.37 392.09 402.02 392.26C405.46 393.15 408 396.28 408 400C408 404.42 404.42 408 400 408ZM464 384H336V208H464V384Z" fill="black"/>
</svg>
