<svg width="24" height="24" viewBox="0 0 24 24" fill="none" xmlns="http://www.w3.org/2000/svg">
<path d="M14.0244 10.2939V14.0068H12.3369V10.2939H14.0244Z" fill="black"/>
<path d="M19.4248 10.2939V14.0068H17.7373V10.2939H19.4248Z" fill="black"/>
<path d="M6.2627 14.0059H4.5752V10.2939H6.2627V14.0059Z" fill="black"/>
<path fill-rule="evenodd" clip-rule="evenodd" d="M21 1.5C21.8284 1.5 22.5 2.17157 22.5 3V21C22.5 21.8284 21.8284 22.5 21 22.5H3C2.17157 22.5 1.5 21.8284 1.5 21V3C1.5 2.17157 2.17157 1.5 3 1.5H21ZM12.3369 8.94434C11.5916 8.94455 10.9874 9.54858 10.9873 10.2939V14.0068C10.9875 14.7521 11.5916 15.3562 12.3369 15.3564H14.0244V16.3691H10.9873V17.7188H14.0244C14.7699 17.7187 15.3749 17.1146 15.375 16.3691V8.94434H12.3369ZM17.7373 8.94434C16.9918 8.94434 16.3878 9.54845 16.3877 10.2939V14.0068C16.3879 14.7523 16.9918 15.3564 17.7373 15.3564H19.4248V16.3691H16.3877V17.7188H19.4248C20.1703 17.7187 20.7743 17.1146 20.7744 16.3691V8.94434H17.7373ZM6.2627 8.94336H4.5752C3.82974 8.94346 3.22565 9.54848 3.22559 10.2939V14.0059C3.22559 14.7514 3.8297 15.3563 4.5752 15.3564H7.61328V6.58105H6.2627V8.94336ZM8.625 15.3564H9.97461V8.94336H8.625V15.3564ZM8.625 7.93066H9.97461V6.58105H8.625V7.93066Z" fill="black"/>
</svg>
