<svg width="24" height="24" viewBox="0 0 24 24" fill="none" xmlns="http://www.w3.org/2000/svg">
<path d="M18.375 6.75C18.9156 6.75 19.5576 7.14761 20.1074 8.125C20.6441 9.07903 21 10.4476 21 12C21 13.5524 20.6441 14.921 20.1074 15.875C19.5576 16.8524 18.9156 17.25 18.375 17.25C17.8344 17.25 17.1924 16.8524 16.6426 15.875C16.1059 14.921 15.75 13.5524 15.75 12C15.75 10.4476 16.1059 9.07903 16.6426 8.125C17.1924 7.14761 17.8344 6.75 18.375 6.75ZM18.375 5.25C17.0517 5.25 16.0066 6.19564 15.335 7.38965C14.6501 8.60719 14.25 10.2387 14.25 12C14.25 13.7613 14.6501 15.3928 15.335 16.6104C16.0066 17.8044 17.0517 18.75 18.375 18.75C19.6983 18.75 20.7434 17.8044 21.415 16.6104C22.0999 15.3928 22.5 13.7613 22.5 12C22.5 10.2387 22.0999 8.60719 21.415 7.38965C20.7434 6.19564 19.6983 5.25 18.375 5.25Z" fill="black"/>
<path d="M5.625 18.75H18.375C18.7892 18.75 19.125 18.4142 19.125 18C19.125 17.5858 18.7892 17.25 18.375 17.25H5.625C5.08441 17.25 4.44245 16.8524 3.89258 15.875C3.35592 14.921 3 13.5526 3 12C3 10.4474 3.35592 9.07898 3.89258 8.125C4.44245 7.14759 5.08441 6.75 5.625 6.75H18.375C18.7892 6.75 19.125 6.41421 19.125 6C19.125 5.58579 18.7892 5.25 18.375 5.25H5.625C4.30185 5.25 3.25664 6.19565 2.58496 7.38965C1.90009 8.60715 1.5 10.2386 1.5 12C1.5 13.7614 1.90009 15.3929 2.58496 16.6104C3.25664 17.8044 4.30185 18.75 5.625 18.75Z" fill="black"/>
<path fill-rule="evenodd" clip-rule="evenodd" d="M20.1074 8.125C19.5576 7.14761 18.9156 6.75 18.375 6.75C17.8344 6.75 17.1924 7.14761 16.6426 8.125C16.1059 9.07903 15.75 10.4476 15.75 12C15.75 13.5524 16.1059 14.921 16.6426 15.875C17.1924 16.8524 17.8344 17.25 18.375 17.25C18.9156 17.25 19.5576 16.8524 20.1074 15.875C20.6441 14.921 21 13.5524 21 12C21 10.4476 20.6441 9.07903 20.1074 8.125Z" fill="black"/>
</svg>
