<svg width="24" height="24" viewBox="0 0 24 24" fill="none" xmlns="http://www.w3.org/2000/svg">
<path d="M16.4989 16.1256C16.4989 16.3481 16.4329 16.5656 16.3093 16.7506C16.1857 16.9356 16.01 17.0798 15.8044 17.165C15.5989 17.2501 15.3727 17.2724 15.1545 17.229C14.9362 17.1856 14.7358 17.0785 14.5784 16.9211C14.4211 16.7638 14.314 16.5633 14.2706 16.3451C14.2271 16.1269 14.2494 15.9007 14.3346 15.6951C14.4197 15.4896 14.5639 15.3139 14.7489 15.1902C14.9339 15.0666 15.1514 15.0006 15.3739 15.0006C15.6723 15.0006 15.9584 15.1192 16.1694 15.3301C16.3804 15.5411 16.4989 15.8273 16.4989 16.1256ZM8.62398 9.00069C8.84648 9.00069 9.06399 8.93471 9.24899 8.81109C9.434 8.68748 9.57819 8.51178 9.66334 8.30621C9.74849 8.10065 9.77076 7.87445 9.72736 7.65622C9.68395 7.43799 9.5768 7.23754 9.41947 7.08021C9.26214 6.92287 9.06168 6.81573 8.84346 6.77232C8.62523 6.72891 8.39903 6.75119 8.19346 6.83634C7.9879 6.92149 7.8122 7.06568 7.68858 7.25068C7.56497 7.43569 7.49899 7.65319 7.49899 7.8757C7.49899 8.17406 7.61751 8.46021 7.82849 8.67118C8.03947 8.88216 8.32561 9.00069 8.62398 9.00069ZM20.9989 4.50072V19.5006C20.9989 19.8984 20.8409 20.28 20.5595 20.5613C20.2782 20.8426 19.8967 21.0006 19.4989 21.0006H4.49901C4.10119 21.0006 3.71966 20.8426 3.43836 20.5613C3.15706 20.28 2.99902 19.8984 2.99902 19.5006V4.50072C2.99902 4.1029 3.15706 3.72137 3.43836 3.44007C3.71966 3.15877 4.10119 3.00073 4.49901 3.00073H19.4989C19.8967 3.00073 20.2782 3.15877 20.5595 3.44007C20.8409 3.72137 20.9989 4.1029 20.9989 4.50072ZM5.999 7.8757C5.999 8.39487 6.15295 8.90238 6.44139 9.33406C6.72983 9.76573 7.13979 10.1022 7.61944 10.3009C8.0991 10.4995 8.62689 10.5515 9.13609 10.4502C9.64529 10.349 10.113 10.0989 10.4801 9.73184C10.8472 9.36473 11.0972 8.897 11.1985 8.3878C11.2998 7.87861 11.2478 7.35081 11.0491 6.87116C10.8505 6.39151 10.514 5.98154 10.0823 5.6931C9.65067 5.40467 9.14315 5.25072 8.62398 5.25072C7.92779 5.25072 7.26012 5.52728 6.76784 6.01955C6.27556 6.51183 5.999 7.17951 5.999 7.8757ZM17.9989 16.1256C17.9989 15.6065 17.845 15.0989 17.5565 14.6673C17.2681 14.2356 16.8581 13.8991 16.3785 13.7005C15.8988 13.5018 15.371 13.4498 14.8618 13.5511C14.3526 13.6524 13.8849 13.9024 13.5178 14.2695C13.1507 14.6366 12.9007 15.1043 12.7994 15.6135C12.6981 16.1227 12.7501 16.6505 12.9488 17.1302C13.1474 17.6098 13.4839 18.0198 13.9156 18.3082C14.3472 18.5967 14.8548 18.7506 15.3739 18.7506C16.0701 18.7506 16.7378 18.4741 17.2301 17.9818C17.7224 17.4895 17.9989 16.8218 17.9989 16.1256ZM17.7795 6.22008C17.7099 6.15035 17.6272 6.09503 17.5361 6.05729C17.4451 6.01955 17.3475 6.00012 17.2489 6.00012C17.1504 6.00012 17.0528 6.01955 16.9617 6.05729C16.8707 6.09503 16.7879 6.15035 16.7183 6.22008L6.21837 16.72C6.07764 16.8607 5.99858 17.0516 5.99858 17.2506C5.99858 17.4496 6.07764 17.6405 6.21837 17.7812C6.3591 17.922 6.54997 18.001 6.74899 18.001C6.94802 18.001 7.13889 17.922 7.27962 17.7812L17.7795 7.28133C17.8493 7.21167 17.9046 7.12895 17.9423 7.03791C17.9801 6.94686 17.9995 6.84926 17.9995 6.7507C17.9995 6.65214 17.9801 6.55455 17.9423 6.4635C17.9046 6.37245 17.8493 6.28974 17.7795 6.22008Z" fill="black"/>
</svg>
