<?xml version="1.0" encoding="UTF-8"?>
<svg width="512" height="512" viewBox="0 0 512 512" fill="none" xmlns="http://www.w3.org/2000/svg">
<path d="M200 160C177.9 160 160 185.05 160 216C160 246.95 177.9 272 200 272C222.1 272 240 246.95 240 216C240 185.05 222.1 160 200 160ZM304 160H320L208 352H192L304 160ZM312 240C289.9 240 272 265.05 272 296C272 326.95 289.9 352 312 352C334.1 352 352 326.95 352 296C352 265.05 334.1 240 312 240ZM288 296C288 272.45 300.65 256 312 256C323.35 256 336 272.45 336 296C336 319.55 323.35 336 312 336C300.65 336 288 319.55 288 296ZM176 216C176 192.45 188.65 176 200 176C211.35 176 224 192.45 224 216C224 239.55 211.35 256 200 256C188.65 256 176 239.55 176 216ZM255.97 68.95L299.38 94.01H349.5L374.57 137.42L417.98 162.48V212.6L443.05 256L417.99 299.41V349.52L374.59 374.59L349.53 418H299.41L256 443.07L212.59 418.01H162.47L137.4 374.6L93.9895 349.54V299.42L68.9195 256.02L93.9795 212.61V162.5L137.38 137.43L162.44 94.02H212.56L255.97 68.95ZM255.97 32L204 62.02H143.98L113.98 114.01L62.0095 144.03V204.05L32.0195 256.03L62.0395 308V368.02L114.03 398.02L144.05 449.99H204.07L256.05 479.98L308.02 449.96H368.04L398.04 397.97L450.01 367.95V307.93L480 255.95L449.98 203.98V143.96L397.99 113.96L367.97 61.99H307.95L255.97 32Z" fill="black"/>
</svg>
