<svg xmlns="http://www.w3.org/2000/svg" width="24" height="24" fill="currentColor" viewBox="0 0 24 24"><path d="M16.86 16.456a1.216 1.216 0 1 1-1.214-1.216 1.216 1.216 0 0 1 1.214 1.216M8.354 8.761a1.216 1.216 0 1 0-1.215-1.215 1.216 1.216 0 0 0 1.215 1.215M21.72 3.901v16.2a1.62 1.62 0 0 1-1.62 1.62H3.9a1.62 1.62 0 0 1-1.62-1.62v-16.2a1.62 1.62 0 0 1 1.62-1.62h16.2a1.62 1.62 0 0 1 1.62 1.62M5.52 7.546a2.836 2.836 0 1 0 2.834-2.835A2.836 2.836 0 0 0 5.52 7.546m12.96 8.91a2.836 2.836 0 1 0-2.836 2.834 2.836 2.836 0 0 0 2.836-2.834m-0.236-10.698a0.81 0.81 0 0 0-1.146 0l-11.34 11.34a0.81 0.81 0 0 0 1.146 1.146l11.34-11.34a0.81 0.81 0 0 0 0-1.146"/></svg>