<svg width="24" height="24" viewBox="0 0 24 24" fill="none" xmlns="http://www.w3.org/2000/svg">
<path d="M17.6519 4.06062C17.6324 4.04396 17.612 4.02832 17.5909 4.01374C17.5694 3.99874 17.5469 3.98468 17.5244 3.97156C15.4373 2.46291 12.8375 1.84262 10.2941 2.24648C7.75068 2.65033 5.4709 4.04543 3.95378 6.12637C2.43667 8.20731 1.80582 10.8046 2.19934 13.3496C2.59285 15.8946 3.97867 18.18 6.05343 19.7056C8.12819 21.2311 10.7229 21.8725 13.2695 21.4894C15.816 21.1062 18.1071 19.7297 19.6411 17.6611C21.175 15.5926 21.827 13.0006 21.4542 10.4524C21.0813 7.9043 19.7141 5.60768 17.6519 4.06531V4.06062ZM11.9988 14.2502C11.5538 14.2502 11.1188 14.1183 10.7488 13.871C10.3787 13.6238 10.0904 13.2724 9.92006 12.8613C9.74976 12.4501 9.70521 11.9977 9.79202 11.5613C9.87884 11.1248 10.0931 10.7239 10.4078 10.4093C10.7225 10.0946 11.1234 9.88031 11.5598 9.7935C11.9963 9.70668 12.4487 9.75124 12.8598 9.92153C13.2709 10.0918 13.6223 10.3802 13.8696 10.7502C14.1168 11.1202 14.2488 11.5552 14.2488 12.0002C14.2488 12.597 14.0117 13.1693 13.5898 13.5912C13.1678 14.0132 12.5955 14.2502 11.9988 14.2502ZM20.2487 12.0002C20.2487 12.2318 20.2384 12.4615 20.2197 12.6884L15.7487 11.899C15.7235 10.9745 15.356 10.0922 14.7175 9.42308L17.3219 5.70404C18.239 6.47692 18.9761 7.44087 19.4816 8.52843C19.9872 9.616 20.249 10.8009 20.2487 12.0002Z" fill="black"/>
</svg>
