<?xml version="1.0" encoding="utf-8"?>
<svg xmlns="http://www.w3.org/2000/svg" width="512" height="512" viewBox="0 0 512 512">
<path d="m200,256c13.26,0,24-17.91,24-40s-10.74-40-24-40-24,17.91-24,40,10.74,40,24,40Zm280-.04l-30.02-51.97v-60.02l-51.99-30-30.02-51.98h-60.02l-51.99-29.99-51.97,30.02h-60.02l-30,51.99-51.98,30.02v60.02l-29.99,51.99,30.02,51.97v60.02l51.99,30,30.02,51.98h60.02l51.99,29.99,51.97-30.02h60.02l30-51.99,51.98-30.02v-60.02l29.99-51.99Zm-320-39.96c0-30.95,17.9-56,40-56s40,25.05,40,56-17.9,56-40,56-40-25.05-40-56Zm48,136h-16l112-192h16l-112,192Zm104,0c-22.1,0-40-25.05-40-56s17.9-56,40-56,40,25.05,40,56-17.9,56-40,56Zm0-96c-11.35,0-24,16.45-24,40s12.65,40,24,40,24-16.45,24-40-12.65-40-24-40Z"/>
</svg>
