<svg width="24" height="24" viewBox="0 0 24 24" fill="none" xmlns="http://www.w3.org/2000/svg">
<path d="M20.0938 5.27319L20.3164 5.28882C20.8248 5.35594 21.253 5.63483 21.5879 5.98608C21.9682 6.3851 22.275 6.92103 22.5146 7.52124C22.9955 8.72554 23.2666 10.335 23.249 12.071C23.2314 13.8066 22.9287 15.4109 22.4248 16.6072C22.1736 17.2033 21.8571 17.734 21.4697 18.1267C21.08 18.5217 20.5703 18.8205 19.9639 18.8162L7.61133 18.7273L7.30566 18.7244L0.425781 11.9011L7.43652 5.1814L20.0938 5.27319ZM2.57422 11.9187L7.92773 17.2292L19.9746 17.3171C20.0507 17.3177 20.195 17.2841 20.4023 17.074C20.6118 16.8617 20.8356 16.5141 21.042 16.0242C21.4533 15.0478 21.733 13.6454 21.749 12.0554C21.7651 10.4658 21.5131 9.05967 21.1211 8.07788C20.9244 7.58521 20.7066 7.23596 20.502 7.02124C20.3499 6.86177 20.2324 6.80187 20.1514 6.78198L20.083 6.77319L8.03418 6.6853L2.57422 11.9187Z" fill="black"/>
<path fill-rule="evenodd" clip-rule="evenodd" d="M7.92773 17.2292L2.57422 11.9187L8.03418 6.6853L20.083 6.77319L20.1514 6.78198C20.2324 6.80187 20.3499 6.86177 20.502 7.02124C20.7066 7.23596 20.9244 7.58521 21.1211 8.07788C21.5131 9.05967 21.7651 10.4658 21.749 12.0554C21.733 13.6454 21.4533 15.0478 21.042 16.0242C20.8356 16.5141 20.6118 16.8617 20.4023 17.074C20.195 17.2841 20.0507 17.3177 19.9746 17.3171L7.92773 17.2292Z" fill="black"/>
</svg>
