<svg width="24" height="24" viewBox="0 0 24 24" fill="none" xmlns="http://www.w3.org/2000/svg">
<path fill-rule="evenodd" clip-rule="evenodd" d="M5.33301 20.25C4.45881 20.2498 3.75018 19.5412 3.75 18.667V5.33301C3.75018 4.45881 4.45882 3.75018 5.33301 3.75H18.667C19.5412 3.75018 20.2498 4.45882 20.25 5.33301V18.667C20.2498 19.5412 19.5412 20.2498 18.667 20.25H5.33301ZM15.002 16.5049C15.8302 16.5049 16.5017 15.8331 16.502 15.0049V9.00195C16.502 8.17353 15.8304 7.50195 15.002 7.50195H14.25C13.4216 7.50195 12.75 8.17353 12.75 9.00195V15.0049C12.7503 15.8331 13.4217 16.5049 14.25 16.5049H15.002ZM9.75195 16.5049C10.5802 16.5049 11.2517 15.8331 11.252 15.0049V9.00195C11.252 8.17353 10.5804 7.50195 9.75195 7.50195H9C8.17157 7.50195 7.5 8.17353 7.5 9.00195V15.0049C7.50026 15.8331 8.17174 16.5049 9 16.5049H9.75195Z" fill="black"/>
</svg>
