<svg width="24" height="24" viewBox="0 0 24 24" fill="none" xmlns="http://www.w3.org/2000/svg">
<path d="M3.35254 19.5C3.35254 19.8728 3.05053 20.1748 2.67773 20.1748C2.30494 20.1748 2.00293 19.8728 2.00293 19.5L2.00293 4.5C2.00293 4.12721 2.30494 3.8252 2.67774 3.8252C3.05053 3.8252 3.35254 4.12721 3.35254 4.5L3.35254 19.5Z" fill="black"/>
<path d="M21.9971 19.5C21.9971 19.8728 21.6951 20.1748 21.3223 20.1748C20.9495 20.1748 20.6475 19.8728 20.6475 19.5V4.5C20.6475 4.12721 20.9495 3.8252 21.3223 3.8252C21.6951 3.8252 21.9971 4.12721 21.9971 4.5V19.5Z" fill="black"/>
<path d="M18.998 18.25C18.998 18.6382 18.7032 18.9575 18.3252 18.9961L18.248 19H5.74805L5.6709 18.9961C5.31829 18.9601 5.03798 18.6798 5.00195 18.3271L4.99805 18.25V5.75C4.99805 5.33579 5.33383 5 5.74805 5H18.248C18.6623 5 18.998 5.33579 18.998 5.75V18.25Z" fill="black"/>
</svg>
