<svg viewBox="0 0 24 24" fill="none" xmlns="http://www.w3.org/2000/svg" width="24" height="24">
<path d="M1.623 21C1.623 21.447 1.261 21.81 0.813 21.81 0.366 21.81 0.004 21.447 0.004 21L0.004 3C0.004 2.553 0.366 2.19 0.813 2.19 1.261 2.19 1.623 2.553 1.623 3L1.623 21Z" fill="black"/>
<path d="M23.997 21C23.997 21.447 23.634 21.81 23.187 21.81 22.739 21.81 22.377 21.447 22.377 21V3C22.377 2.553 22.739 2.19 23.187 2.19 23.634 2.19 23.997 2.553 23.997 3V21Z" fill="black"/>
<path d="M20.398 19.5C20.398 19.966 20.044 20.349 19.59 20.395L19.498 20.4H4.498L4.405 20.395C3.982 20.352 3.646 20.016 3.602 19.593L3.598 19.5V4.5C3.598 4.003 4.001 3.6 4.498 3.6H19.498C19.995 3.6 20.398 4.003 20.398 4.5V19.5Z" fill="black"/>
</svg>