<svg width="24" height="24" viewBox="0 0 24 24" fill="none" xmlns="http://www.w3.org/2000/svg">
<path d="M3.75 4.5C3.33579 4.5 3 4.16421 3 3.75C3 3.33579 3.33579 3 3.75 3H20.25C20.6642 3 21 3.33579 21 3.75C21 4.16421 20.6642 4.5 20.25 4.5H3.75Z" fill="black"/>
<path d="M3.75 21C3.33579 21 3 20.6642 3 20.25C3 19.8358 3.33579 19.5 3.75 19.5H20.25C20.6642 19.5 21 19.8358 21 20.25C21 20.6642 20.6642 21 20.25 21H3.75Z" fill="black"/>
<path d="M5.25 17.9961C4.00737 17.9961 3.00003 16.9887 3 15.7461V8.25C3 7.00736 4.00736 6 5.25 6H18.752C19.9952 6 21.0028 7.00872 21.002 8.25195L20.9971 15.748C20.996 16.9898 19.9889 17.996 18.7471 17.9961H5.25Z" fill="black"/>
</svg>
