<svg viewBox="0 0 24 24" fill="none" xmlns="http://www.w3.org/2000/svg" width="24" height="24">
<path fill-rule="evenodd" clip-rule="evenodd" d="M21.9 2.4C22.397 2.4 22.8 2.803 22.8 3.3V20.7C22.8 21.197 22.397 21.6 21.9 21.6H2.1C1.603 21.6 1.2 21.197 1.2 20.7V3.3C1.2 2.803 1.603 2.4 2.1 2.4H21.9ZM6.3 6C5.803 6 5.4 6.403 5.4 6.9V17.1C5.4 17.597 5.803 18 6.3 18H9.9C10.397 18 10.8 17.597 10.8 17.1V6.9C10.8 6.403 10.397 6 9.9 6H6.3ZM14.1 6C13.603 6 13.2 6.403 13.2 6.9V17.1C13.2 17.597 13.603 18 14.1 18H17.7C18.197 18 18.6 17.597 18.6 17.1V6.9C18.6 6.403 18.197 6 17.7 6H14.1Z" fill="black"/>
</svg>