<svg viewBox="0 0 24 24" fill="none" xmlns="http://www.w3.org/2000/svg" width="24" height="24">
<path d="M19.502 3.6C19.999 3.6 20.402 4.003 20.402 4.5V19.5C20.402 19.997 19.999 20.4 19.502 20.4H4.502C4.005 20.4 3.602 19.997 3.602 19.5V4.5C3.602 4.003 4.005 3.6 4.502 3.6H19.502ZM8.102 6C7.605 6 7.202 6.403 7.202 6.9V17.1C7.202 17.597 7.605 18 8.102 18H9.902C10.399 18 10.802 17.597 10.802 17.1V6.9C10.802 6.403 10.399 6 9.902 6H8.102ZM14.102 6C13.605 6 13.202 6.403 13.202 6.9V17.1C13.202 17.597 13.605 18 14.102 18H15.902C16.399 18 16.802 17.597 16.802 17.1V6.9C16.802 6.403 16.399 6 15.902 6H14.102Z" fill="black"/>
<path d="M24.001 21C24.001 21.447 23.639 21.81 23.191 21.81 22.744 21.81 22.382 21.447 22.382 21V3C22.382 2.553 22.744 2.19 23.191 2.19 23.639 2.19 24.001 2.553 24.001 3V21Z" fill="black"/>
<path d="M1.618 21C1.618 21.447 1.256 21.81 0.809 21.81 0.361 21.81-0.001 21.447-0.001 21L-0.001 3C-0.001 2.553 0.361 2.19 0.809 2.19 1.256 2.19 1.618 2.553 1.618 3L1.618 21Z" fill="black"/>
</svg>