<svg viewBox="0 0 24 24" fill="none" xmlns="http://www.w3.org/2000/svg" width="24" height="24">
<path d="M23.189 1.964C23.637 1.964 23.999 2.326 23.999 2.774 23.999 3.221 23.637 3.584 23.189 3.584H0.809C0.362 3.584-0.001 3.221-0.001 2.774-0.001 2.327 0.362 1.964 0.809 1.964H23.189Z" fill="black"/>
<path d="M23.189 20.417C23.636 20.417 23.999 20.779 23.999 21.227 23.999 21.674 23.636 22.037 23.189 22.037H0.806C0.359 22.037-0.004 21.674-0.004 21.227-0.004 20.779 0.359 20.417 0.806 20.417H23.189Z" fill="black"/>
<path d="M24 18.289C24 18.755 23.646 19.138 23.193 19.184L23.1 19.189H0.9C0.403 19.189 0 18.786 0 18.289V5.689C0 5.192 0.403 4.789 0.9 4.789H23.1L23.193 4.794C23.646 4.84 24 5.223 24 5.689V18.289Z" fill="black"/>
</svg>