<?xml version="1.0" encoding="utf-8"?>
<svg width="512" height="512" viewBox="0 0 512 512" fill="none" xmlns="http://www.w3.org/2000/svg">
<path d="M432 240C436.28 240 440.29 241.66 443.33 244.7C446.34 247.71 448 251.72 448 256C448 260.28 446.34 264.29 443.3 267.33C440.29 270.34 436.28 272 432 272C424.17 272 418.78 266.64 416.9 261.33L415.01 256L416.9 250.66C417.68 248.45 418.99 246.38 420.7 244.67C423.71 241.66 427.72 240 432 240ZM96 240V272H64V240H96ZM432 208C418.74 208 406.74 213.37 398.06 222.06C393.05 227.07 389.14 233.18 386.73 240H128V208H32V304H128V272H386.73C393.32 290.64 411.1 304 432 304C445.26 304 457.26 298.63 465.94 289.94C474.63 281.26 480 269.26 480 256C480 242.74 474.63 230.74 465.94 222.06C457.26 213.37 445.26 208 432 208Z" fill="black"/>
</svg>
