<svg width="24" height="24" viewBox="0 0 24 24" fill="none" xmlns="http://www.w3.org/2000/svg">
<path d="M19.856 7.85822C19.4563 8.25801 18.9381 8.51804 18.3787 8.59963C17.8192 8.68121 17.2484 8.57999 16.7511 8.31103L8.30707 16.755C8.53862 17.1833 8.64652 17.6674 8.61872 18.1535C8.59092 18.6395 8.42851 19.1082 8.14964 19.5073C7.87077 19.9063 7.48642 20.2199 7.03956 20.4131C6.59269 20.6062 6.10092 20.6713 5.61919 20.6011C5.13746 20.5308 4.68476 20.328 4.31168 20.0152C3.9386 19.7025 3.65985 19.2921 3.50656 18.8301C3.35328 18.368 3.33151 17.8724 3.44369 17.3987C3.55586 16.925 3.79757 16.4918 4.14178 16.1475C4.54155 15.7477 5.05971 15.4877 5.61917 15.4061C6.17862 15.3245 6.74947 15.4258 7.24676 15.6947L15.6908 7.25072C15.4592 6.82249 15.3513 6.33831 15.3791 5.85228C15.4069 5.36625 15.5693 4.89752 15.8482 4.49849C16.1271 4.09945 16.5114 3.78583 16.9583 3.59267C17.4051 3.39951 17.8969 3.33442 18.3786 3.40468C18.8604 3.47494 19.3131 3.67778 19.6861 3.99052C20.0592 4.30327 20.338 4.7136 20.4913 5.17567C20.6445 5.63773 20.6663 6.13332 20.5541 6.60704C20.442 7.08077 20.2003 7.51396 19.856 7.85822Z" fill="black"/>
</svg>
