<svg width="24" height="24" viewBox="0 0 24 24" fill="none" xmlns="http://www.w3.org/2000/svg">
<path fill-rule="evenodd" clip-rule="evenodd" d="M20.25 3.75C21.0784 3.75 21.75 4.42157 21.75 5.25V18.75C21.75 19.5784 21.0784 20.25 20.25 20.25H3.75C2.92157 20.25 2.25 19.5784 2.25 18.75V5.25C2.25 4.42157 2.92157 3.75 3.75 3.75H20.25ZM14.1855 5.99121C13.7963 5.84966 13.3652 6.05115 13.2236 6.44043L9.36621 17.0479C9.22498 17.437 9.42631 17.8673 9.81543 18.0088C10.2045 18.1501 10.6347 17.9495 10.7764 17.5605L14.6338 6.95215C14.775 6.56309 14.5745 6.13282 14.1855 5.99121ZM8.71875 9.1084C8.45356 8.79059 7.98117 8.74777 7.66309 9.0127L4.76953 11.4238C4.59876 11.5663 4.5 11.7776 4.5 12C4.5001 12.2225 4.59864 12.4337 4.76953 12.5762L7.66309 14.9863C7.98123 15.2514 8.45355 15.2087 8.71875 14.8906C8.98392 14.5724 8.94125 14.0992 8.62305 13.834L6.4209 11.999L8.62305 10.165C8.94125 9.89987 8.98392 9.42661 8.71875 9.1084ZM16.3379 9.0127C16.0197 8.74758 15.5465 8.79037 15.2812 9.1084C15.0161 9.42654 15.0589 9.89984 15.377 10.165L17.5781 11.999L15.377 13.834C15.0588 14.0992 15.0161 14.5724 15.2812 14.8906C15.5464 15.2088 16.0197 15.2515 16.3379 14.9863L19.2305 12.5762C19.4014 12.4337 19.4999 12.2225 19.5 12C19.5 11.7775 19.4014 11.5663 19.2305 11.4238L16.3379 9.0127Z" fill="black"/>
</svg>
