<?xml version="1.0" encoding="UTF-8"?><svg xmlns="http://www.w3.org/2000/svg" width="512" height="512" viewBox="0 0 512 512"><path d="m255.98,64c35.29,0,64.01,28.71,64.01,64,0,14.13-4.52,27.53-13.06,38.73-8.3,10.88-20.05,18.96-33.11,22.74-5.73,1.67-11.73,2.52-17.83,2.52s-12.1-.85-17.86-2.52c-13.03-3.78-24.78-11.85-33.08-22.73-8.55-11.21-13.06-24.6-13.06-38.73,0-35.29,28.69-64.01,63.99-64.01Zm.02-32c-52.99,0-96,43-96,96,0,43.7,29.25,80.6,69.22,92.2,8.49,2.47,17.48,3.79,26.78,3.79s18.28-1.32,26.78-3.79c39.98-11.6,69.22-48.5,69.22-92.2,0-53-43-96-96-96Zm164.72,317.33c-16.78-27.95-40.47-51.28-68.72-67.62-3.17-1.85-6.4-3.6-9.68-5.25-2.08-1.05-4.19-2.06-6.32-3.03l-16-6.49c-5.23-1.85-10.57-3.48-16-4.88-15.34-3.96-31.43-6.06-48-6.06-22.44,0-43.98,3.85-64,10.94-1.1.39-2.2.79-3.3,1.2-.24.09-.48.18-.72.27-.97.37-1.93.74-2.89,1.12l-.09.04c-1.7.68-3.39,1.38-5.07,2.11-.67.29-1.34.58-2.01.88-3.35,1.48-6.65,3.07-9.89,4.74-.53.27-1.05.54-1.57.82l-1.56.84c-1.65.89-3.28,1.8-4.9,2.75-2.71,1.57-5.38,3.2-8,4.9-24.72,15.96-45.55,37.45-60.72,62.72-17.31,28.84-27.28,62.59-27.28,98.67,0,17.7,14.31,32,32,32h320c17.69,0,32-14.3,32-32,0-36.08-9.96-69.83-27.28-98.67Zm-324.72,98.67c0-29.02,7.86-57.44,22.72-82.2,8.86-14.77,20.17-28.11,33.28-39.35l8-5.34v19.17c-9.56,5.53-16,15.88-16,27.72,0,17.67,14.33,32,32,32s32-14.33,32-32c0-11.84-6.44-22.19-16-27.72v-38.95c1.33-.59,2.68-1.16,4.02-1.7,2.21-.9,4.43-1.74,6.6-2.5l.06-.03c17.06-6.04,35-9.1,53.32-9.1,13.58,0,27.04,1.7,40.01,5.05,2.67.69,5.34,1.45,7.99,2.29v27.39c-6.82,2.41-12.93,6.32-17.94,11.33-8.69,8.68-14.06,20.68-14.06,33.94v48c0,8.84,7.16,16,16,16,4.42,0,8.42-1.79,11.32-4.68,2.89-2.9,4.68-6.9,4.68-11.32v-48c0-8.84,7.16-16,16-16,4.42,0,8.42,1.79,11.32,4.68,2.89,2.9,4.68,6.9,4.68,11.32v48c0,8.84,7.16,16,16,16,4.42,0,8.42-1.79,11.32-4.68,2.89-2.9,4.68-6.9,4.68-11.32v-48c0-20.9-13.36-38.68-32-45.27v-13.31c23.49,13.59,43.3,33.09,57.29,56.39,14.86,24.74,22.71,53.16,22.71,82.19H96Z"/></svg>
