<svg xmlns="http://www.w3.org/2000/svg" width="24" height="24" fill="currentColor" viewBox="0 0 24 24"><path d="M23.34 15.24a3.24 3.24 0 1 0-4.043 3.139l-0.007 0.101a3.24 3.24 0 0 1-3.24 3.24H13.62a3.24 3.24 0 0 1-3.24-3.24v-4.103c3.186-0.406 5.67-3.186 5.67-6.511v-4.776A0.81 0.81 0 0 0 15.24 2.28h-2.43a0.81 0.81 0 0 0 0 1.62h1.62v3.966c0 2.692-2.152 4.909-4.795 4.944a4.86 4.86 0 0 1-4.925-4.86V3.9h1.62a0.81 0.81 0 0 0 0-1.62H3.9a0.81 0.81 0 0 0-0.81 0.81v4.86A6.48 6.48 0 0 0 8.76 14.378V18.48a4.865 4.865 0 0 0 4.86 4.86h2.43a4.865 4.865 0 0 0 4.86-4.86l-0.007-0.101A3.24 3.24 0 0 0 23.34 15.24m-3.24 0.81a0.81 0.81 0 1 1 0.81-0.81 0.81 0.81 0 0 1-0.81 0.81"/></svg>