<svg xmlns="http://www.w3.org/2000/svg" width="24" height="24" fill="currentColor" viewBox="0 0 24 24"><path d="M20.674 5.756l-4.05-4.05a0.816 0.816 0 0 0-0.574-0.236h-8.1a1.62 1.62 0 0 0-1.62 1.62v1.62h-1.62a1.62 1.62 0 0 0-1.62 1.62v14.58a1.62 1.62 0 0 0 1.62 1.62h11.34a1.62 1.62 0 0 0 1.62-1.62v-1.62h1.62a1.62 1.62 0 0 0 1.62-1.62v-11.34a0.816 0.816 0 0 0-0.236-0.574M12.81 18.48h-4.86a0.81 0.81 0 0 1 0-1.62h4.86a0.81 0.81 0 0 1 0 1.62m0-3.24h-4.86a0.81 0.81 0 0 1 0-1.62h4.86a0.81 0.81 0 0 1 0 1.62m6.48 2.43h-1.62v-8.1a0.816 0.816 0 0 0-0.236-0.574l-4.05-4.05a0.816 0.816 0 0 0-0.574-0.236h-4.86v-1.62h7.765l3.575 3.575z"/></svg>