<svg xmlns="http://www.w3.org/2000/svg" width="24" height="24" fill="currentColor" viewBox="0 0 24 24"><path d="M15.24 14.43a1.62 1.62 0 0 1-1.62 1.62h-0.81v-3.24h0.81a1.62 1.62 0 0 1 1.62 1.62M22.53 12A10.53 10.53 0 1 1 12 1.47 10.541 10.541 0 0 1 22.53 12m-5.67 2.43a3.24 3.24 0 0 0-3.24-3.24h-0.81v-3.24h0.406a1.62 1.62 0 0 1 1.62 1.62 0.81 0.81 0 0 0 1.62 0 3.24 3.24 0 0 0-3.24-3.24h-0.406V5.52a0.81 0.81 0 0 0-1.62 0v0.81h-0.406a3.24 3.24 0 0 0 0 6.48h0.406v3.24h-0.81a1.62 1.62 0 0 1-1.62-1.62 0.81 0.81 0 0 0-1.62 0 3.24 3.24 0 0 0 3.24 3.24h0.81v0.81a0.81 0.81 0 0 0 1.62 0v-0.81h0.81a3.24 3.24 0 0 0 3.24-3.24m-7.696-4.86a1.62 1.62 0 0 0 1.62 1.62h0.406v-3.24h-0.406a1.62 1.62 0 0 0-1.62 1.62"/></svg>