<svg width="24" height="24" viewBox="0 0 24 24" fill="none" xmlns="http://www.w3.org/2000/svg">
<path d="M14.9989 14.2502C14.9989 14.648 14.8409 15.0295 14.5596 15.3108C14.2783 15.5921 13.8968 15.7501 13.4989 15.7501H12.7489V12.7502H13.4989C13.8968 12.7502 14.2783 12.9082 14.5596 13.1895C14.8409 13.4708 14.9989 13.8523 14.9989 14.2502ZM21.7489 12.0002C21.7489 13.9285 21.1771 15.8136 20.1057 17.4169C19.0344 19.0203 17.5117 20.27 15.7301 21.0079C13.9485 21.7459 11.9881 21.939 10.0968 21.5628C8.20554 21.1866 6.46827 20.258 5.10471 18.8944C3.74116 17.5309 2.81257 15.7936 2.43637 13.9023C2.06017 12.011 2.25325 10.0506 2.9912 8.26903C3.72915 6.48747 4.97882 4.96474 6.58218 3.8934C8.18555 2.82207 10.0706 2.25024 11.999 2.25024C14.584 2.25297 17.0623 3.28107 18.8902 5.10895C20.7181 6.93682 21.7461 9.41517 21.7489 12.0002ZM16.4989 14.2502C16.4989 13.4545 16.1828 12.6915 15.6202 12.1288C15.0576 11.5662 14.2946 11.2502 13.4989 11.2502H12.7489V8.2502H13.1239C13.5218 8.2502 13.9033 8.40823 14.1846 8.68954C14.4659 8.97084 14.6239 9.35237 14.6239 9.75019C14.6239 9.9491 14.7029 10.1399 14.8436 10.2805C14.9843 10.4212 15.175 10.5002 15.3739 10.5002C15.5728 10.5002 15.7636 10.4212 15.9043 10.2805C16.0449 10.1399 16.1239 9.9491 16.1239 9.75019C16.1239 8.95454 15.8079 8.19149 15.2452 7.62888C14.6826 7.06628 13.9196 6.75021 13.1239 6.75021H12.7489V6.00022C12.7489 5.8013 12.6699 5.61054 12.5293 5.46989C12.3886 5.32924 12.1979 5.25022 11.999 5.25022C11.8 5.25022 11.6093 5.32924 11.4686 5.46989C11.328 5.61054 11.249 5.8013 11.249 6.00022V6.75021H10.874C10.0783 6.75021 9.31526 7.06628 8.75266 7.62888C8.19005 8.19149 7.87398 8.95454 7.87398 9.75019C7.87398 10.5458 8.19005 11.3089 8.75266 11.8715C9.31526 12.4341 10.0783 12.7502 10.874 12.7502H11.249V15.7501H10.499C10.1011 15.7501 9.71962 15.5921 9.43831 15.3108C9.15701 15.0295 8.99898 14.648 8.99898 14.2502C8.99898 14.0512 8.91996 13.8605 8.77931 13.7198C8.63866 13.5792 8.44789 13.5002 8.24898 13.5002C8.05007 13.5002 7.85931 13.5792 7.71866 13.7198C7.578 13.8605 7.49899 14.0512 7.49899 14.2502C7.49899 15.0458 7.81506 15.8089 8.37766 16.3715C8.94027 16.9341 9.70332 17.2501 10.499 17.2501H11.249V18.0001C11.249 18.199 11.328 18.3898 11.4686 18.5305C11.6093 18.6711 11.8 18.7501 11.999 18.7501C12.1979 18.7501 12.3886 18.6711 12.5293 18.5305C12.6699 18.3898 12.7489 18.199 12.7489 18.0001V17.2501H13.4989C14.2946 17.2501 15.0576 16.9341 15.6202 16.3715C16.1828 15.8089 16.4989 15.0458 16.4989 14.2502ZM9.37397 9.75019C9.37397 10.148 9.53201 10.5295 9.81331 10.8108C10.0946 11.0921 10.4761 11.2502 10.874 11.2502H11.249V8.2502H10.874C10.4761 8.2502 10.0946 8.40823 9.81331 8.68954C9.53201 8.97084 9.37397 9.35237 9.37397 9.75019Z" fill="black"/>
</svg>
