<svg width="24" height="24" viewBox="0 0 24 24" fill="none" xmlns="http://www.w3.org/2000/svg">
<path d="M20.9979 13.4999V19.4999C20.9979 19.6988 20.9189 19.8895 20.7782 20.0302C20.6376 20.1708 20.4468 20.2499 20.2479 20.2499H3.74804C3.54913 20.2499 3.35837 20.1708 3.21772 20.0302C3.07706 19.8895 2.99805 19.6988 2.99805 19.4999V13.4999C2.99805 13.301 3.07706 13.1102 3.21772 12.9696C3.35837 12.8289 3.54913 12.7499 3.74804 12.7499C3.94695 12.7499 4.13772 12.8289 4.27837 12.9696C4.41902 13.1102 4.49804 13.301 4.49804 13.4999V18.7499H19.4979V13.4999C19.4979 13.301 19.5769 13.1102 19.7176 12.9696C19.8582 12.8289 20.049 12.7499 20.2479 12.7499C20.4468 12.7499 20.6376 12.8289 20.7782 12.9696C20.9189 13.1102 20.9979 13.301 20.9979 13.4999ZM11.4674 14.0305C11.537 14.1003 11.6197 14.1556 11.7108 14.1933C11.8018 14.2311 11.8994 14.2505 11.998 14.2505C12.0965 14.2505 12.1941 14.2311 12.2852 14.1933C12.3762 14.1556 12.4589 14.1003 12.5286 14.0305L16.2786 10.2806C16.3836 10.1757 16.4551 10.042 16.4841 9.89642C16.5131 9.75086 16.4982 9.59997 16.4414 9.46285C16.3846 9.32574 16.2884 9.20856 16.1649 9.12616C16.0415 9.04376 15.8964 8.99983 15.7479 8.99995H12.748V2.99999C12.748 2.80108 12.669 2.61032 12.5283 2.46967C12.3877 2.32902 12.1969 2.25 11.998 2.25C11.7991 2.25 11.6083 2.32902 11.4677 2.46967C11.327 2.61032 11.248 2.80108 11.248 2.99999V8.99995H8.24801C8.09959 8.99983 7.95447 9.04376 7.83102 9.12616C7.70758 9.20856 7.61136 9.32574 7.55455 9.46285C7.49773 9.59997 7.48288 9.75086 7.51187 9.89642C7.54085 10.042 7.61238 10.1757 7.71739 10.2806L11.4674 14.0305Z" fill="black"/>
</svg>
