<svg viewBox="0 0 24 24" fill="none" xmlns="http://www.w3.org/2000/svg" width="24" height="24">
<path d="M20.91 11.19C21.357 11.19 21.72 11.552 21.72 12 21.72 12.447 21.357 12.809 20.91 12.809H10.38C9.933 12.809 9.57 12.447 9.57 12 9.57 11.552 9.933 11.19 10.38 11.19H20.91Z" fill="black"/>
<path d="M3.09 7.95L7.14 12 3.09 16.05" fill="black"/>
<path d="M2.78 7.201C3.082 7.075 3.432 7.145 3.663 7.376L7.713 11.427C8.03 11.743 8.03 12.256 7.713 12.573L3.663 16.623C3.432 16.854 3.082 16.924 2.78 16.798 2.477 16.673 2.28 16.377 2.28 16.05V7.95C2.28 7.622 2.477 7.326 2.78 7.201ZM3.9 14.094L5.994 12 3.9 9.905V14.094Z" fill="black"/>
</svg>