<svg width="24" height="24" viewBox="0 0 24 24" fill="none" xmlns="http://www.w3.org/2000/svg">
<path d="M19.4253 11.3248C19.7979 11.325 20.1001 11.6269 20.1001 11.9996C20.1001 12.3723 19.7979 12.6742 19.4253 12.6744H10.6499C10.2771 12.6744 9.9751 12.3724 9.9751 11.9996C9.9751 11.6268 10.2771 11.3248 10.6499 11.3248H19.4253Z" fill="black"/>
<path d="M4.5752 8.6246L7.9502 11.9996L4.5752 15.3746" fill="black"/>
<path d="M4.31641 8.00058C4.56864 7.8961 4.85969 7.95401 5.05273 8.14706L8.42773 11.5221C8.69134 11.7857 8.69134 12.2135 8.42773 12.4771L5.05273 15.8521C4.85969 16.0452 4.56864 16.1031 4.31641 15.9986C4.06433 15.8941 3.90039 15.6475 3.90039 15.3746V8.6246C3.90039 8.35168 4.06433 8.10512 4.31641 8.00058ZM5.25 13.7447L6.99512 11.9996L5.25 10.2545V13.7447Z" fill="black"/>
</svg>
