<svg width="24" height="24" viewBox="0 0 24 24" fill="none" xmlns="http://www.w3.org/2000/svg">
<g clip-path="url(#clip0_2079_30410)">
<path d="M19.5007 3H4.50073C4.10291 3 3.72138 3.15804 3.44007 3.43934C3.15877 3.72064 3.00073 4.10218 3.00073 4.5V19.5C3.00073 19.8978 3.15877 20.2794 3.44007 20.5607C3.72138 20.842 4.10291 21 4.50073 21H19.5007C19.8986 21 20.2801 20.842 20.5614 20.5607C20.8427 20.2794 21.0007 19.8978 21.0007 19.5V4.5C21.0007 4.10218 20.8427 3.72064 20.5614 3.43934C20.2801 3.15804 19.8986 3 19.5007 3ZM18.1564 15.9056L17.4064 16.6556C17.2495 16.8137 17.1615 17.0273 17.1615 17.25C17.1615 17.4727 17.2495 17.6863 17.4064 17.8444L17.7814 18.2194C17.851 18.2891 17.9063 18.3718 17.944 18.4628C17.9817 18.5539 18.0012 18.6515 18.0012 18.75C18.0012 18.8485 17.9817 18.9461 17.944 19.0372C17.9063 19.1282 17.851 19.2109 17.7814 19.2806C17.7117 19.3503 17.629 19.4056 17.5379 19.4433C17.4469 19.481 17.3493 19.5004 17.2507 19.5004C17.1522 19.5004 17.0546 19.481 16.9636 19.4433C16.8725 19.4056 16.7898 19.3503 16.7201 19.2806L16.3451 18.9056C15.9066 18.4662 15.6603 17.8708 15.6603 17.25C15.6603 16.6292 15.9066 16.0338 16.3451 15.5944L17.0951 14.8444C17.252 14.6863 17.34 14.4727 17.34 14.25C17.34 14.0273 17.252 13.8137 17.0951 13.6556C16.9371 13.4988 16.7234 13.4107 16.5007 13.4107C16.2781 13.4107 16.0644 13.4988 15.9064 13.6556L11.4064 18.1556C10.961 18.5628 10.3757 18.7826 9.77242 18.7691C9.1691 18.7556 8.59424 18.5099 8.16753 18.0832C7.74082 17.6565 7.49514 17.0816 7.48165 16.4783C7.46816 15.875 7.68789 15.2897 8.09511 14.8444L14.8451 8.09437C15.002 7.93633 15.09 7.72268 15.09 7.5C15.09 7.27732 15.002 7.06367 14.8451 6.90563C14.6871 6.74876 14.4734 6.66073 14.2507 6.66073C14.0281 6.66073 13.8144 6.74876 13.6564 6.90563L9.15636 11.4056C8.711 11.8128 8.12573 12.0326 7.52242 12.0191C6.9191 12.0056 6.34424 11.7599 5.91753 11.3332C5.49082 10.9065 5.24514 10.3316 5.23165 9.72832C5.21816 9.125 5.43789 8.53973 5.84511 8.09437L8.47011 5.46938C8.53979 5.39969 8.62252 5.34442 8.71356 5.3067C8.8046 5.26899 8.90219 5.24958 9.00073 5.24958C9.09928 5.24958 9.19686 5.26899 9.2879 5.3067C9.37895 5.34442 9.46167 5.39969 9.53136 5.46938C9.60104 5.53906 9.65632 5.62178 9.69403 5.71283C9.73174 5.80387 9.75115 5.90145 9.75115 6C9.75115 6.09855 9.73174 6.19613 9.69403 6.28717C9.65632 6.37822 9.60104 6.46094 9.53136 6.53063L6.90636 9.15563C6.74949 9.31367 6.66147 9.52732 6.66147 9.75C6.66147 9.97268 6.74949 10.1863 6.90636 10.3444C7.06441 10.5012 7.27805 10.5893 7.50073 10.5893C7.72341 10.5893 7.93706 10.5012 8.09511 10.3444L12.5951 5.84438C13.0405 5.43716 13.6257 5.21743 14.229 5.23092C14.8324 5.24441 15.4072 5.49009 15.8339 5.9168C16.2606 6.34351 16.5063 6.91837 16.5198 7.52168C16.5333 8.125 16.3136 8.71027 15.9064 9.15563L9.15636 15.9056C8.99949 16.0637 8.91147 16.2773 8.91147 16.5C8.91147 16.7227 8.99949 16.9363 9.15636 17.0944C9.31441 17.2512 9.52805 17.3393 9.75073 17.3393C9.97341 17.3393 10.1871 17.2512 10.3451 17.0944L14.8451 12.5944C15.2905 12.1872 15.8757 11.9674 16.479 11.9809C17.0824 11.9944 17.6572 12.2401 18.0839 12.6668C18.5106 13.0935 18.7563 13.6684 18.7698 14.2717C18.7833 14.875 18.5636 15.4603 18.1564 15.9056Z" fill="black"/>
</g>
<defs>
<clipPath id="clip0_2079_30410">
<rect width="24" height="24" fill="white"/>
</clipPath>
</defs>
</svg>
