<svg width="24" height="24" viewBox="0 0 24 24" fill="none" xmlns="http://www.w3.org/2000/svg">
<path d="M8.74306 3.45438C8.68257 3.41696 8.63398 3.36312 8.60293 3.29912C8.57189 3.23513 8.55969 3.16363 8.56775 3.09297C8.57581 3.02231 8.6038 2.95539 8.64845 2.90003C8.6931 2.84467 8.75258 2.80315 8.81993 2.78032C10.1877 2.30903 11.6433 2.14822 13.081 2.30957C14.5187 2.47092 15.9024 2.95037 17.1317 3.71312C17.1763 3.74121 17.2144 3.77837 17.2437 3.82217C17.2729 3.86597 17.2926 3.91544 17.3014 3.96736C17.3103 4.01927 17.3081 4.07247 17.295 4.12348C17.2819 4.17449 17.2582 4.22218 17.2255 4.26343C16.14 5.65052 14.8089 6.82629 13.2983 7.73216C12.0781 6.01866 10.5298 4.5646 8.74306 3.45438ZM11.9596 8.43246C10.5904 6.56414 8.78905 5.0552 6.70964 4.03468C6.65009 4.00577 6.58387 3.99338 6.5179 3.99882C6.45193 4.00427 6.38864 4.02734 6.33464 4.06562C4.65126 5.26974 3.39288 6.97646 2.74029 8.94058C2.7239 8.99081 2.7183 9.04393 2.72386 9.09646C2.72943 9.149 2.74603 9.19977 2.77259 9.24544C2.79914 9.29111 2.83505 9.33066 2.87795 9.36149C2.92085 9.39231 2.96978 9.41373 3.02154 9.42433C3.99992 9.63651 4.9979 9.74523 5.99902 9.7487C8.05768 9.74982 10.0918 9.30191 11.9596 8.43621V8.43246ZM21.6908 10.9346C21.4516 8.76147 20.4876 6.73215 18.9542 5.17374C18.9168 5.13574 18.8718 5.10616 18.822 5.08696C18.7723 5.06776 18.719 5.05939 18.6658 5.06241C18.6125 5.06542 18.5606 5.07976 18.5133 5.10445C18.4661 5.12915 18.4246 5.16363 18.3917 5.20561C17.2052 6.71721 15.7538 8.00056 14.1083 8.99308C14.6224 9.88367 15.0479 10.8225 15.3786 11.7962C16.7218 11.4321 18.1073 11.248 19.4989 11.2487C20.0941 11.2487 20.6888 11.2822 21.2802 11.349C21.3352 11.3545 21.3908 11.3477 21.4429 11.3292C21.495 11.3107 21.5424 11.2809 21.5816 11.2419C21.6209 11.203 21.651 11.1558 21.6699 11.1038C21.6888 11.0518 21.6959 10.9963 21.6908 10.9412V10.9346ZM15.793 13.2315C16.0709 14.4135 16.2109 15.6238 16.2102 16.838C16.2096 18.0003 16.0804 19.1589 15.8249 20.2927C15.8076 20.3624 15.8107 20.4356 15.8339 20.5036C15.857 20.5716 15.8991 20.6315 15.9553 20.6762C16.0115 20.7209 16.0793 20.7486 16.1508 20.7559C16.2222 20.7632 16.2943 20.7498 16.3583 20.7174C17.7802 20.0041 19.0065 18.9545 19.9307 17.6598C20.8549 16.365 21.4491 14.8642 21.6617 13.2877C21.6681 13.2386 21.6648 13.1886 21.6517 13.1408C21.6387 13.0929 21.6164 13.0481 21.586 13.009C21.5555 12.9699 21.5176 12.9371 21.4745 12.9127C21.4313 12.8883 21.3838 12.8727 21.3345 12.8668C19.4806 12.6282 17.5979 12.7556 15.793 13.2418V13.2315ZM13.9518 12.2518C13.6495 11.3653 13.2604 10.5109 12.7902 9.70089C10.6714 10.7202 8.35026 11.2493 5.99902 11.2487C4.90009 11.2487 3.80415 11.1341 2.72904 10.9065C2.67717 10.8956 2.62357 10.8957 2.57177 10.907C2.51997 10.9183 2.47116 10.9405 2.42855 10.972C2.38593 11.0035 2.35049 11.0438 2.32456 11.09C2.29863 11.1362 2.2828 11.1874 2.27811 11.2403C2.25873 11.4903 2.24873 11.7431 2.24811 11.9987C2.24762 13.3337 2.52205 14.6546 3.0543 15.8789C3.58656 17.1033 4.36524 18.2049 5.34184 19.1152C5.38303 19.153 5.43214 19.181 5.48558 19.1974C5.53901 19.2137 5.59543 19.2179 5.65069 19.2096C5.70595 19.2013 5.75867 19.1808 5.80499 19.1496C5.85131 19.1183 5.89005 19.0771 5.91839 19.0289C7.7482 15.9241 10.5819 13.5359 13.9518 12.2584V12.2518ZM7.09495 19.9908C7.0703 20.0338 7.05444 20.0813 7.04827 20.1305C7.0421 20.1797 7.04574 20.2296 7.05899 20.2774C7.07225 20.3252 7.09484 20.3699 7.12547 20.4089C7.1561 20.4478 7.19416 20.4804 7.23745 20.5046C9.19805 21.6038 11.4785 21.991 13.6921 21.6005C13.7579 21.589 13.8194 21.5598 13.87 21.516C13.9205 21.4723 13.9582 21.4156 13.979 21.3521C14.4625 19.8984 14.7094 18.3765 14.7102 16.8446C14.7104 15.7892 14.5928 14.7371 14.3596 13.7077C11.2877 14.9046 8.72213 17.1235 7.09495 19.9908Z" fill="black"/>
</svg>
