<svg width="24" height="24" viewBox="0 0 24 24" fill="none" xmlns="http://www.w3.org/2000/svg">
<path d="M16.3122 4.47706C15.1542 3.13966 13.8508 1.93538 12.4263 0.886459C12.3001 0.798119 12.1499 0.750732 11.9959 0.750732C11.842 0.750732 11.6917 0.798119 11.5656 0.886459C10.1437 1.93581 8.84289 3.14008 7.68723 4.47706C5.11006 7.43672 3.74976 10.5567 3.74976 13.5004C3.74976 15.6884 4.61894 17.7868 6.16611 19.334C7.71327 20.8812 9.81167 21.7504 11.9997 21.7504C14.1877 21.7504 16.2861 20.8812 17.8333 19.334C19.3804 17.7868 20.2496 15.6884 20.2496 13.5004C20.2496 10.5567 18.8893 7.43672 16.3122 4.47706ZM17.2356 14.376C17.0411 15.4623 16.5185 16.4629 15.7381 17.2432C14.9577 18.0234 13.9569 18.5458 12.8706 18.7401C12.8306 18.7465 12.7902 18.7499 12.7497 18.7504C12.5616 18.7503 12.3803 18.6796 12.2419 18.5522C12.1035 18.4247 12.018 18.25 12.0025 18.0625C11.9869 17.875 12.0423 17.6885 12.1578 17.54C12.2733 17.3915 12.4404 17.2918 12.6259 17.2607C14.1794 16.9991 15.4975 15.681 15.7609 14.1248C15.7942 13.9286 15.9041 13.7537 16.0664 13.6386C16.2287 13.5234 16.43 13.4774 16.6262 13.5107C16.8224 13.5441 16.9973 13.6539 17.1125 13.8162C17.2276 13.9785 17.2736 14.1799 17.2403 14.376H17.2356Z" fill="black"/>
</svg>
