<svg xmlns="http://www.w3.org/2000/svg" width="24" height="24" fill="currentColor" viewBox="0 0 24 24"><path d="M20.7 20.365a0.81 0.81 0 1 1-1.199 1.09l-1.305-1.437a8.88 8.88 0 0 1-6.195 2.512c-4.86 0-8.858-3.942-8.91-8.797-0.028-2.465 0.833-5.046 2.505-7.575L3.324 3.66a0.833 0.833 0 0 1 0.014-1.152 0.81 0.81 0 0 1 1.163 0.037z m-1.02-3.529a0.406 0.406 0 0 0 0.678-0.128 8.88 8.88 0 0 0 0.552-3.088c0-3.179-1.469-6.548-4.253-9.745a25.8 25.8 0 0 0-4.196-3.879 0.81 0.81 0 0 0-0.93 0 25.2 25.2 0 0 0-3.665 3.296 0.408 0.408 0 0 0 0 0.547z"/></svg>