<svg xmlns="http://www.w3.org/2000/svg" width="24" height="24" fill="currentColor" viewBox="0 0 24 24"><path d="M24.15 7.14v9.72a1.62 1.62 0 0 1-1.62 1.62h-9.314a0.408 0.408 0 0 1-0.406-0.406V5.924a0.408 0.408 0 0 1 0.406-0.405h9.314a1.62 1.62 0 0 1 1.62 1.62z m-12.96-3.24v16.2a0.81 0.81 0 0 1-1.62 0V18.48h-8.1a1.62 1.62 0 0 1-1.62-1.62v-9.72a1.62 1.62 0 0 1 1.62-1.62h8.1V3.9a0.81 0.81 0 0 1 1.62 0m-3.24 6.48a0.81 0.81 0 0 0-0.81-0.81h-3.24a0.81 0.81 0 0 0 0 1.62h0.81v2.43a0.81 0.81 0 0 0 1.62 0v-2.43h0.81a0.81 0.81 0 0 0 0.81-0.81"/></svg>