<svg width="24" height="24" viewBox="0 0 24 24" fill="none" xmlns="http://www.w3.org/2000/svg">
<path d="M14.78 19.9321V21.3433H16.1911L19.2859 18.2466L17.8757 16.8354L14.78 19.9321Z" fill="black"/>
<path fill-rule="evenodd" clip-rule="evenodd" d="M14.78 21.3433V19.9321L17.8757 16.8354L19.2859 18.2466L16.1911 21.3433H14.78Z" fill="black"/>
<path d="M11.0342 19.9128L9.58682 21.0686C8.78931 20.8582 8.02325 20.543 7.30869 20.1311L7.02744 17.627C6.80215 17.4271 6.58897 17.2139 6.389 16.9886L3.884 16.6951C3.4696 15.9814 3.15212 15.2156 2.93994 14.418L4.51307 12.4492C4.49525 12.1482 4.49525 11.8464 4.51307 11.5455L2.94088 9.57671C3.1527 8.77897 3.46953 8.0129 3.88307 7.29858L6.38713 7.01733C6.58709 6.79205 6.80028 6.57886 7.02557 6.3789L7.30682 3.87577C8.0201 3.4642 8.78492 3.14926 9.58119 2.93921L11.5499 4.51233C11.8509 4.49452 12.1527 4.49452 12.4537 4.51233L14.4224 2.94015C15.2202 3.15197 15.9863 3.4688 16.7006 3.88233L16.9818 6.3864C17.2071 6.58636 17.4203 6.79955 17.6203 7.02483L20.1234 7.30608C20.5378 8.01986 20.8553 8.78566 21.0674 9.58327L19.9588 10.9707M17.8873 15.7866L20.3597 18.259M15.75 12C15.75 14.0711 14.0711 15.75 12 15.75C9.92893 15.75 8.25 14.0711 8.25 12C8.25 9.92893 9.92893 8.25 12 8.25C14.0711 8.25 15.75 9.92893 15.75 12ZM16.3561 22.0934H14.3832C14.2895 22.0934 14.1997 22.0562 14.1334 21.9899C14.0672 21.9237 14.03 21.8339 14.03 21.7402V19.7673C14.03 19.6737 14.0672 19.584 14.1333 19.5178L19.5775 14.0736C19.6438 14.0074 19.7336 13.9702 19.8272 13.9702C19.9208 13.9702 20.0106 14.0074 20.0769 14.0736L22.0498 16.0452C22.116 16.1114 22.1532 16.2012 22.1532 16.2948C22.1532 16.3885 22.116 16.4783 22.0498 16.5445L16.6056 21.9901C16.5394 22.0562 16.4497 22.0933 16.3561 22.0934ZM14.78 19.9321V21.3433H16.1911L19.2859 18.2466L17.8757 16.8354L14.78 19.9321Z" stroke="black" stroke-width="1.5" stroke-linecap="round" stroke-linejoin="round"/>
</svg>
