<svg width="24" height="24" viewBox="0 0 24 24" fill="none" xmlns="http://www.w3.org/2000/svg">
<path d="M20.9989 11.9981V19.498C20.9989 19.8958 20.8409 20.2774 20.5595 20.5587C20.2782 20.84 19.8967 20.998 19.4989 20.998H4.49901C4.10119 20.998 3.71966 20.84 3.43836 20.5587C3.15706 20.2774 2.99902 19.8958 2.99902 19.498V4.49813C2.99902 4.10031 3.15706 3.71878 3.43836 3.43748C3.71966 3.15618 4.10119 2.99814 4.49901 2.99814H11.999C12.1979 2.99814 12.3886 3.07716 12.5293 3.21781C12.6699 3.35846 12.7489 3.54923 12.7489 3.74814C12.7489 3.94705 12.6699 4.13781 12.5293 4.27846C12.3886 4.41911 12.1979 4.49813 11.999 4.49813H4.49901V19.498H19.4989V11.9981C19.4989 11.7992 19.5779 11.6084 19.7186 11.4677C19.8592 11.3271 20.05 11.2481 20.2489 11.2481C20.4478 11.2481 20.6386 11.3271 20.7792 11.4677C20.9199 11.6084 20.9989 11.7992 20.9989 11.9981ZM21.5295 6.52874L12.5296 15.5287C12.4599 15.5983 12.3771 15.6535 12.2861 15.6911C12.195 15.7288 12.0975 15.7481 11.999 15.748H8.99898C8.80007 15.748 8.6093 15.669 8.46865 15.5284C8.328 15.3877 8.24898 15.197 8.24898 14.9981V11.9981C8.24891 11.8996 8.26824 11.802 8.30588 11.7109C8.34352 11.6199 8.39873 11.5372 8.46836 11.4675L17.4683 2.46752C17.5379 2.39779 17.6207 2.34247 17.7117 2.30473C17.8028 2.26699 17.9003 2.24756 17.9989 2.24756C18.0975 2.24756 18.1951 2.26699 18.2861 2.30473C18.3772 2.34247 18.4599 2.39779 18.5295 2.46752L21.5295 5.4675C21.5992 5.53715 21.6546 5.61987 21.6923 5.71092C21.73 5.80196 21.7495 5.89956 21.7495 5.99812C21.7495 6.09668 21.73 6.19428 21.6923 6.28532C21.6546 6.37637 21.5992 6.45909 21.5295 6.52874ZM19.9358 5.99812L17.9989 4.05845L16.8092 5.24813L18.7489 7.1878L19.9358 5.99812Z" fill="black"/>
</svg>
