<?xml version="1.0" encoding="utf-8"?>
<svg xmlns="http://www.w3.org/2000/svg" width="512" height="512" viewBox="0 0 512 512">
<path d="M447.95 32H64C46.4 32 32 46.4 32 64V480L127.99 384H255.98V352H114.73L64 402.75V64.06L64.06 64H447.9L447.96 64.06V224H479.96V64C479.96 46.4 465.56 32 447.96 32H447.95ZM475.35 283.3L452.7 260.65C446.45 254.45 436.25 254.45 430.05 260.65L407.4 283.3L452.69 328.6L475.34 305.95C481.54 299.7 481.54 289.5 475.34 283.3H475.35ZM396.11 294.6L255.98 434.75V480H301.22L441.35 339.85L396.11 294.6ZM289.92 446.05L278.62 434.75L396.11 317.25L407.41 328.55L289.92 446.05ZM352 256H96V224H352V256ZM384 192H96V160H384V192ZM416 128H96V96H416V128ZM320 320H96V288H320V320Z"/>
</svg>
