<svg xmlns="http://www.w3.org/2000/svg" width="24" height="24" fill="currentColor" viewBox="0 0 24 24"><path d="M16.86 20.023a12 12 0 0 0 1.62-0.782v4.099a0.81 0.81 0 0 1-1.62 0z m1.19-8.953l-5.67-3.024a0.81 0.81 0 0 0-0.76 1.429L16.354 12l1.72-0.917z m6.48-3.024l-12.15-6.48a0.816 0.816 0 0 0-0.76 0l-12.15 6.48a0.81 0.81 0 0 0 0 1.429l2.81 1.5v4.902a1.608 1.608 0 0 0 0.412 1.079c1.326 1.477 4.298 3.955 9.308 3.955a13.2 13.2 0 0 0 4.86-0.887v-7.753l-0.506-0.27L12 14.323l-8.522-4.549-1.907-1.013L12 3.199l10.429 5.562-1.902 1.013h-0.006l-2.445 1.31a0.816 0.816 0 0 1 0.404 0.702v7.456a11.76 11.76 0 0 0 2.828-2.285 1.608 1.608 0 0 0 0.412-1.079v-4.902l2.81-1.5a0.81 0.81 0 0 0 0-1.429z"/></svg>