<?xml version="1.0" encoding="utf-8"?>
<svg xmlns="http://www.w3.org/2000/svg" width="512" height="512" viewBox="0 0 512 512">
  <path d="M224 432c0-5.1.8-10.1 2.3-14.7C232.5 398 250.6 384 272 384h64c-1.5-1.9-3-3.8-4.6-5.6-14.6-16.2-35.8-26.4-59.4-26.4-12.2 0-23.8 2.7-34.1 7.6-4.4 2.1-8.6 4.6-12.5 7.4-16.4 11.8-28.2 29.7-32 50.4-.9 4.7-1.4 9.6-1.4 14.6 0 44.2 35.8 80 80 80 26.2 0 49.4-12.6 64-32h-64c-26.5 0-48-21.5-48-48zm208-80c-26.2 0-49.4 12.6-64 32h64c26.5 0 48 21.5 48 48s-21.5 48-48 48h-64c14.6 19.4 37.8 32 64 32 44.2 0 80-35.8 80-80s-35.8-80-80-80zm0 64H272c-8.8 0-16 7.2-16 16s7.2 16 16 16h160c8.8 0 16-7.2 16-16s-7.2-16-16-16zM32 0C14.3 0 0 14.3 0 32v256c0 17.7 14.3 32 32 32h384c17.7 0 32-14.3 32-32V32c0-17.7-14.3-32-32-32H32zm23.7 32L224 200.3 392.3 32c11 2.9 19.7 11.6 22.6 22.6L310.6 158.9l104.3 104.3c-2.9 11-11.6 19.7-22.6 22.6L288 181.5l-64 64-64-64L55.7 285.8c-11-2.9-19.7-11.6-22.6-22.6l104.3-104.3L33.1 54.6C36 43.6 44.7 34.9 55.7 32z"/>
</svg>
