<svg width="24" height="24" viewBox="0 0 24 24" fill="none" xmlns="http://www.w3.org/2000/svg">
<path d="M19.4989 2.9978H4.49901C4.10119 2.9978 3.71966 3.15584 3.43836 3.43714C3.15706 3.71844 2.99902 4.09997 2.99902 4.49779V19.4977C2.99902 19.8955 3.15706 20.277 3.43836 20.5583C3.71966 20.8396 4.10119 20.9977 4.49901 20.9977H19.4989C19.8967 20.9977 20.2782 20.8396 20.5595 20.5583C20.8409 20.277 20.9989 19.8955 20.9989 19.4977V4.49779C20.9989 4.09997 20.8409 3.71844 20.5595 3.43714C20.2782 3.15584 19.8967 2.9978 19.4989 2.9978ZM17.2489 14.9977H6.74899C6.55008 14.9977 6.35932 14.9187 6.21867 14.778C6.07802 14.6374 5.999 14.4466 5.999 14.2477C5.999 14.0488 6.07802 13.858 6.21867 13.7174C6.35932 13.5767 6.55008 13.4977 6.74899 13.4977H17.2489C17.4478 13.4977 17.6386 13.5767 17.7792 13.7174C17.9199 13.858 17.9989 14.0488 17.9989 14.2477C17.9989 14.4466 17.9199 14.6374 17.7792 14.778C17.6386 14.9187 17.4478 14.9977 17.2489 14.9977ZM17.2489 10.4977H6.74899C6.55008 10.4977 6.35932 10.4187 6.21867 10.2781C6.07802 10.1374 5.999 9.94666 5.999 9.74775C5.999 9.54884 6.07802 9.35808 6.21867 9.21743C6.35932 9.07677 6.55008 8.99776 6.74899 8.99776H17.2489C17.4478 8.99776 17.6386 9.07677 17.7792 9.21743C17.9199 9.35808 17.9989 9.54884 17.9989 9.74775C17.9989 9.94666 17.9199 10.1374 17.7792 10.2781C17.6386 10.4187 17.4478 10.4977 17.2489 10.4977Z" fill="black"/>
</svg>
