<svg width="24" height="24" viewBox="0 0 24 24" fill="none" xmlns="http://www.w3.org/2000/svg">
<path d="M21.0927 7.53505L17.2114 3.65383C16.7895 3.2319 16.2172 2.99487 15.6205 2.99487C15.0238 2.99487 14.4515 3.2319 14.0296 3.65383L2.90529 14.7781C2.48337 15.2001 2.24634 15.7723 2.24634 16.369C2.24634 16.9657 2.48337 17.538 2.90529 17.96L5.72339 20.7781C5.79332 20.8479 5.87636 20.9033 5.96775 20.9409C6.05913 20.9786 6.15705 20.9978 6.25589 20.9974H20.2489C20.4478 20.9974 20.6386 20.9184 20.7792 20.7778C20.9199 20.6371 20.9989 20.4464 20.9989 20.2474C20.9989 20.0485 20.9199 19.8578 20.7792 19.7171C20.6386 19.5765 20.4478 19.4975 20.2489 19.4975H12.3083L21.0927 10.7169C21.5146 10.2949 21.7516 9.72268 21.7516 9.12597C21.7516 8.52926 21.5146 7.957 21.0927 7.53505ZM20.0305 9.65378L14.9989 14.6872L10.0593 9.74753L15.0927 4.71694C15.1624 4.64721 15.2451 4.59189 15.3361 4.55415C15.4272 4.51641 15.5248 4.49698 15.6233 4.49698C15.7219 4.49698 15.8195 4.51641 15.9105 4.55415C16.0016 4.59189 16.0843 4.64721 16.1539 4.71694L20.0333 8.59629C20.1738 8.73692 20.2528 8.92761 20.2528 9.12644C20.2528 9.32527 20.1738 9.51595 20.0333 9.65659L20.0305 9.65378Z" fill="black"/>
</svg>
