<svg width="24" height="24" viewBox="0 0 24 24" fill="none" xmlns="http://www.w3.org/2000/svg">
<path d="M11.999 2.24731C10.0706 2.24731 8.18555 2.81914 6.58218 3.89047C4.97882 4.96181 3.72915 6.48454 2.9912 8.2661C2.25325 10.0477 2.06017 12.0081 2.43637 13.8994C2.81257 15.7907 3.74116 17.5279 5.10471 18.8915C6.46827 20.255 8.20554 21.1836 10.0968 21.5598C11.9881 21.936 13.9485 21.7429 15.7301 21.005C17.5117 20.267 19.0344 19.0174 20.1057 17.414C21.1771 15.8106 21.7489 13.9256 21.7489 11.9972C21.7461 9.41224 20.7181 6.93389 18.8902 5.10602C17.0623 3.27814 14.584 2.25004 11.999 2.24731ZM11.249 7.49727C11.249 7.29836 11.328 7.1076 11.4686 6.96695C11.6093 6.8263 11.8 6.74728 11.999 6.74728C12.1979 6.74728 12.3886 6.8263 12.5293 6.96695C12.6699 7.1076 12.7489 7.29836 12.7489 7.49727V12.7472C12.7489 12.9461 12.6699 13.1369 12.5293 13.2776C12.3886 13.4182 12.1979 13.4972 11.999 13.4972C11.8 13.4972 11.6093 13.4182 11.4686 13.2776C11.328 13.1369 11.249 12.9461 11.249 12.7472V7.49727ZM11.999 17.2472C11.7765 17.2472 11.5589 17.1812 11.3739 17.0576C11.1889 16.934 11.0447 16.7583 10.9596 16.5527C10.8744 16.3472 10.8522 16.121 10.8956 15.9027C10.939 15.6845 11.0461 15.4841 11.2035 15.3267C11.3608 15.1694 11.5613 15.0622 11.7795 15.0188C11.9977 14.9754 12.2239 14.9977 12.4295 15.0829C12.635 15.168 12.8107 15.3122 12.9343 15.4972C13.058 15.6822 13.1239 15.8997 13.1239 16.1222C13.1239 16.4206 13.0054 16.7067 12.7944 16.9177C12.5835 17.1287 12.2973 17.2472 11.999 17.2472Z" fill="black"/>
</svg>
