<svg width="24" height="24" viewBox="0 0 24 24" fill="none" xmlns="http://www.w3.org/2000/svg">
<path d="M20.2489 3.75098H3.74901C3.35119 3.75098 2.96966 3.90901 2.68836 4.19031C2.40706 4.47162 2.24902 4.85314 2.24902 5.25097V18.7509C2.24902 19.1487 2.40706 19.5302 2.68836 19.8115C2.96966 20.0928 3.35119 20.2509 3.74901 20.2509H20.2489C20.6467 20.2509 21.0282 20.0928 21.3095 19.8115C21.5908 19.5302 21.7489 19.1487 21.7489 18.7509V5.25097C21.7489 4.85314 21.5908 4.47162 21.3095 4.19031C21.0282 3.90901 20.6467 3.75098 20.2489 3.75098ZM6.37399 9.00094C6.15149 9.00094 5.93398 8.93496 5.74898 8.81134C5.56398 8.68773 5.41978 8.51203 5.33464 8.30646C5.24949 8.1009 5.22721 7.8747 5.27062 7.65647C5.31402 7.43824 5.42117 7.23779 5.5785 7.08046C5.73584 6.92312 5.93629 6.81598 6.15452 6.77257C6.37274 6.72916 6.59894 6.75144 6.80451 6.83659C7.01007 6.92174 7.18577 7.06593 7.30939 7.25093C7.433 7.43594 7.49898 7.65344 7.49898 7.87595C7.49898 8.17431 7.38046 8.46046 7.16948 8.67143C6.9585 8.88241 6.67236 9.00094 6.37399 9.00094ZM10.124 9.00094C9.90146 9.00094 9.68396 8.93496 9.49895 8.81134C9.31395 8.68773 9.16975 8.51203 9.08461 8.30646C8.99946 8.1009 8.97718 7.8747 9.02059 7.65647C9.064 7.43824 9.17114 7.23779 9.32847 7.08046C9.48581 6.92312 9.68626 6.81598 9.90449 6.77257C10.1227 6.72916 10.3489 6.75144 10.5545 6.83659C10.76 6.92174 10.9357 7.06593 11.0594 7.25093C11.183 7.43594 11.249 7.65344 11.249 7.87595C11.249 8.17431 11.1304 8.46046 10.9195 8.67143C10.7085 8.88241 10.4223 9.00094 10.124 9.00094Z" fill="black"/>
</svg>
