<svg width="24" height="24" viewBox="0 0 24 24" fill="none" xmlns="http://www.w3.org/2000/svg">
<path d="M20.2489 10.4966V19.4965C20.2489 19.8944 20.0909 20.2759 19.8096 20.5572C19.5283 20.8385 19.1467 20.9965 18.7489 20.9965H5.24901C4.85119 20.9965 4.46966 20.8385 4.18836 20.5572C3.90706 20.2759 3.74902 19.8944 3.74902 19.4965V10.4966C3.74902 10.0988 3.90706 9.71727 4.18836 9.43596C4.46966 9.15466 4.85119 8.99663 5.24901 8.99663H11.249V13.4966C11.249 13.6955 11.328 13.8863 11.4686 14.0269C11.6093 14.1676 11.8 14.2466 11.999 14.2466C12.1979 14.2466 12.3886 14.1676 12.5293 14.0269C12.6699 13.8863 12.749 13.6955 12.749 13.4966V8.99663H18.7489C19.1467 8.99663 19.5283 9.15466 19.8096 9.43596C20.0909 9.71727 20.2489 10.0988 20.2489 10.4966ZM12.749 4.05698L15.2183 6.52727C15.359 6.668 15.5499 6.74706 15.7489 6.74706C15.948 6.74706 16.1388 6.668 16.2796 6.52727C16.4203 6.38654 16.4993 6.19567 16.4993 5.99665C16.4993 5.79763 16.4203 5.60676 16.2796 5.46603L12.5296 1.71606C12.4599 1.64633 12.3772 1.59101 12.2862 1.55326C12.1951 1.51552 12.0975 1.49609 11.999 1.49609C11.9004 1.49609 11.8028 1.51552 11.7118 1.55326C11.6207 1.59101 11.538 1.64633 11.4683 1.71606L7.71837 5.46603C7.57764 5.60676 7.49858 5.79763 7.49858 5.99665C7.49858 6.19567 7.57764 6.38654 7.71837 6.52727C7.8591 6.668 8.04997 6.74706 8.24899 6.74706C8.44801 6.74706 8.63888 6.668 8.77961 6.52727L11.249 4.05698V8.99663H12.749V4.05698Z" fill="black"/>
</svg>
