<svg width="24" height="24" viewBox="0 0 24 24" fill="none" xmlns="http://www.w3.org/2000/svg">
<path d="M17.2275 19.9225C20.0444 19.9225 21.6506 16.7373 20.207 14.3649L14.9795 5.77601C13.601 3.51151 10.399 3.51151 9.0205 5.77601L3.79296 14.3649C2.34939 16.7373 3.95561 19.9225 6.77245 19.9225H17.2275ZM6.77245 18.4225C5.22775 18.4225 4.18494 16.6055 5.07421 15.1442L10.3037 6.55629L10.3281 6.51527C11.1348 5.25201 12.9126 5.26567 13.6982 6.55629L18.9258 15.1442C19.815 16.6055 18.7722 18.4225 17.2275 18.4225H6.77245Z" fill="black"/>
<path fill-rule="evenodd" clip-rule="evenodd" d="M5.07421 15.1442C4.18494 16.6055 5.22775 18.4225 6.77245 18.4225H17.2275C18.7722 18.4225 19.815 16.6055 18.9258 15.1442L13.6982 6.55629C12.9126 5.26567 11.1348 5.25201 10.3281 6.51527L10.3037 6.55629L5.07421 15.1442Z" fill="black"/>
</svg>
