<?xml version="1.0" encoding="UTF-8"?><svg xmlns="http://www.w3.org/2000/svg" width="512" height="512" viewBox="0 0 512 512"><path d="m245.43,358.68l24.92,24.92c-4.75.26-9.54.4-14.34.4-94.7,0-179.7-51.5-224-128,13.19-22.83,30.01-43.43,49.65-61.1l23.01,23.01c-13.21,11.38-25.16,24.16-34.87,38.09,26.33,33.77,54.15,53.86,72.6,65.1,39.18,23.88,77.54,33.37,103.03,37.58m131.42-4.44l103.15,103.15-22.61,22.61-111.88-111.88s-.07.03-.1.04l-113.21-113.22s.07-.02.11-.03l-39.21-39.21s-.02.07-.03.11l-26.8-26.8s.04-.05.06-.08l-7.01-7.01s-.06.03-.09.04l-24.17-24.17s.06-.03.09-.05L32,54.61l22.61-22.61,111.87,111.87c28.03-10.26,58.24-15.87,89.52-15.87,94.8,0,179.8,51.5,224,128-24,41.53-60.05,75.69-103.15,98.24Zm-7.25-33.14c27.8-16.4,54.1-38.7,72.6-65.1-18.4-26.4-44.8-48.7-72.6-65.1-12.2-7.2-25.1-13.2-38.4-17.9,22.6,20.5,36.8,50.1,36.8,83,0,25.15-8.31,48.37-22.32,67.08l7.01,7.01c5.76-2.76,11.41-5.74,16.91-8.99Z"/></svg>