<svg width="24" height="24" viewBox="0 0 24 24" fill="none" xmlns="http://www.w3.org/2000/svg">
<g clip-path="url(#clip0_2021_26236)">
<path d="M23.1842 11.6933C23.1513 11.6192 22.3573 9.85765 20.592 8.09236C18.2398 5.74019 15.2689 4.49707 11.9989 4.49707C8.72895 4.49707 5.75804 5.74019 3.40587 8.09236C1.64057 9.85765 0.842764 11.622 0.813701 11.6933C0.771058 11.7892 0.749023 11.893 0.749023 11.998C0.749023 12.1029 0.771058 12.2067 0.813701 12.3026C0.846514 12.3767 1.64057 14.1373 3.40587 15.9026C5.75804 18.2538 8.72895 19.497 11.9989 19.497C15.2689 19.497 18.2398 18.2538 20.592 15.9026C22.3573 14.1373 23.1513 12.3767 23.1842 12.3026C23.2268 12.2067 23.2488 12.1029 23.2488 11.998C23.2488 11.893 23.2268 11.7892 23.1842 11.6933ZM11.9989 15.747C11.2573 15.747 10.5322 15.5271 9.91556 15.115C9.29888 14.7029 8.81823 14.1173 8.53441 13.4321C8.25058 12.7468 8.17632 11.9929 8.32101 11.2654C8.46571 10.538 8.82286 9.86983 9.3473 9.34538C9.87174 8.82094 10.5399 8.46379 11.2673 8.3191C11.9948 8.1744 12.7488 8.24866 13.434 8.53249C14.1192 8.81632 14.7049 9.29696 15.1169 9.91364C15.529 10.5303 15.7489 11.2553 15.7489 11.997C15.7489 12.9916 15.3538 13.9454 14.6506 14.6486C13.9473 15.3519 12.9935 15.747 11.9989 15.747Z" fill="black"/>
</g>
<defs>
<clipPath id="clip0_2021_26236">
<rect width="23.9998" height="23.9998" fill="white"/>
</clipPath>
</defs>
</svg>
