<svg width="24" height="24" viewBox="0 0 24 24" fill="none" xmlns="http://www.w3.org/2000/svg">
<path d="M20.9988 6.30621C20.9937 5.85485 20.8976 5.40915 20.7162 4.99581C20.5349 4.58246 20.2719 4.20996 19.9432 3.90061C18.6307 2.65562 16.5007 2.70249 15.1976 4.00654L13.0114 6.20309C12.5836 5.81323 12.0221 5.60319 11.4435 5.61663C10.8649 5.63008 10.3137 5.86597 9.90454 6.27528L9.4358 6.74402C9.29633 6.88333 9.1857 7.04876 9.11021 7.23086C9.03472 7.41296 8.99587 7.60814 8.99587 7.80527C8.99587 8.00239 9.03472 8.19758 9.11021 8.37967C9.1857 8.56177 9.29633 8.7272 9.4358 8.86651L9.6233 9.05963L4.84208 13.8408C4.38186 14.2975 4.04874 14.8663 3.87561 15.491C3.70248 16.1158 3.69535 16.7749 3.8549 17.4033L3.10491 19.1292C3.00031 19.3664 2.97003 19.6297 3.01806 19.8844C3.06609 20.1391 3.19018 20.3733 3.37397 20.5561C3.58656 20.7701 3.859 20.9147 4.15539 20.9707C4.45178 21.0268 4.7582 20.9917 5.03427 20.8702L6.67676 20.153C7.29384 20.2926 7.93626 20.2734 8.5439 20.0971C9.15154 19.9209 9.70452 19.5933 10.1511 19.1452L14.9323 14.364L15.1254 14.5571C15.4067 14.8382 15.7881 14.9961 16.1857 14.9961C16.5834 14.9961 16.9648 14.8382 17.246 14.5571L17.7148 14.0883C18.1248 13.6786 18.3609 13.1265 18.3738 12.547C18.3867 11.9675 18.1755 11.4053 17.7842 10.9777L20.0107 8.73995C20.3308 8.42172 20.5833 8.04212 20.7531 7.62391C20.9229 7.20571 21.0065 6.75751 20.9988 6.30621ZM9.09267 18.0905C8.80406 18.3797 8.44213 18.5849 8.04574 18.684C7.64935 18.7831 7.23346 18.7724 6.84269 18.653C6.67136 18.6002 6.48677 18.6105 6.32238 18.6821L4.62552 19.4236L5.3427 17.7539C5.41712 17.5834 5.42547 17.3913 5.36614 17.2149C5.23023 16.8177 5.2087 16.3904 5.30402 15.9816C5.39933 15.5728 5.60765 15.1991 5.9052 14.903L10.6864 10.1218L13.8683 13.3093L9.09267 18.0905Z" fill="black"/>
</svg>
