<svg width="24" height="24" viewBox="0 0 24 24" fill="none" xmlns="http://www.w3.org/2000/svg">
<path d="M21.7488 12.0037C21.7458 14.3866 20.8715 16.6862 19.2906 18.4692C17.7098 20.2523 15.5315 21.3958 13.1661 21.6842C13.1134 21.6902 13.0601 21.6849 13.0096 21.6688C12.9591 21.6526 12.9126 21.6259 12.8732 21.5905C12.8338 21.5551 12.8023 21.5117 12.7809 21.4632C12.7595 21.4147 12.7486 21.3622 12.7489 21.3092V14.2537H14.9989C15.1017 14.2539 15.2035 14.233 15.2979 14.1922C15.3922 14.1515 15.4772 14.0917 15.5476 14.0167C15.6179 13.9417 15.6721 13.8531 15.7067 13.7563C15.7413 13.6595 15.7557 13.5566 15.7489 13.454C15.7323 13.2611 15.6433 13.0817 15.4998 12.9518C15.3564 12.8219 15.169 12.7511 14.9754 12.7537H12.7489V10.5037C12.7489 10.1059 12.9069 9.72435 13.1882 9.44305C13.4695 9.16174 13.8511 9.00371 14.2489 9.00371H15.7489C15.8517 9.00393 15.9535 8.98302 16.0478 8.94226C16.1422 8.9015 16.2272 8.84177 16.2976 8.76678C16.3679 8.69178 16.4221 8.60313 16.4567 8.50632C16.4913 8.40951 16.5057 8.30662 16.4989 8.20403C16.4823 8.01084 16.393 7.83114 16.2492 7.70117C16.1053 7.5712 15.9174 7.50064 15.7236 7.50372H14.2489C13.4532 7.50372 12.6902 7.81979 12.1276 8.38239C11.565 8.945 11.2489 9.70805 11.2489 10.5037V12.7537H8.99893C8.89611 12.7535 8.79435 12.7744 8.69996 12.8151C8.60557 12.8559 8.52057 12.9156 8.45023 12.9906C8.3799 13.0656 8.32574 13.1543 8.29111 13.2511C8.25648 13.3479 8.24212 13.4508 8.24894 13.5534C8.26552 13.7465 8.35476 13.9263 8.49865 14.0562C8.64254 14.1862 8.83037 14.2568 9.02424 14.2537H11.2489V21.3111C11.2492 21.364 11.2384 21.4164 11.217 21.4648C11.1956 21.5132 11.1642 21.5566 11.1249 21.592C11.0856 21.6274 11.0392 21.6541 10.9889 21.6703C10.9385 21.6866 10.8853 21.6919 10.8327 21.6861C8.40395 21.3903 6.17479 20.1935 4.58641 18.3326C2.99802 16.4716 2.16619 14.0821 2.25554 11.6371C2.44304 6.57466 6.54364 2.45907 11.6098 2.2622C12.9215 2.21139 14.2299 2.42565 15.4568 2.89216C16.6837 3.35867 17.804 4.06784 18.7505 4.97727C19.697 5.88669 20.4504 6.97768 20.9656 8.18497C21.4808 9.39227 21.7472 10.6911 21.7488 12.0037Z" fill="black"/>
</svg>
