<svg xmlns="http://www.w3.org/2000/svg" fill="currentColor" viewBox="0 0 24 24" width="24" height="24"><path d="M12.81 11.19v9.72a0.81 0.81 0 0 1-1.62 0v-9.72a0.81 0.81 0 0 1 1.62 0m6.48 7.29a0.81 0.81 0 0 0-0.81 0.81v1.62a0.81 0.81 0 0 0 1.62 0v-1.62a0.81 0.81 0 0 0-0.81-0.81m2.43-4.86h-1.62V3.09a0.81 0.81 0 0 0-1.62 0v10.53h-1.62a0.81 0.81 0 0 0-0.81 0.81v1.62a0.81 0.81 0 0 0 0.81 0.81h4.86a0.81 0.81 0 0 0 0.81-0.81v-1.62a0.81 0.81 0 0 0-0.81-0.81M4.71 15.24a0.81 0.81 0 0 0-0.81 0.81v4.86a0.81 0.81 0 0 0 1.62 0v-4.86a0.81 0.81 0 0 0-0.81-0.81m2.43-4.86H5.52V3.09a0.81 0.81 0 0 0-1.62 0v7.29H2.28a0.81 0.81 0 0 0-0.81 0.81v1.62a0.81 0.81 0 0 0 0.81 0.81h4.86a0.81 0.81 0 0 0 0.81-0.81v-1.62a0.81 0.81 0 0 0-0.81-0.81m7.29-4.86h-1.62V3.09a0.81 0.81 0 0 0-1.62 0V5.52h-1.62a0.81 0.81 0 0 0-0.81 0.81v1.62a0.81 0.81 0 0 0 0.81 0.81h4.86a0.81 0.81 0 0 0 0.81-0.81v-1.62a0.81 0.81 0 0 0-0.81-0.81"/></svg>