<svg xmlns="http://www.w3.org/2000/svg" fill="currentColor" viewBox="0 0 24 24" width="24" height="24"><path d="M17.67 7.14a0.81 0.81 0 0 1 0.81-0.81h2.43a0.81 0.81 0 0 1 0 1.62H18.48a0.81 0.81 0 0 1-0.81-0.81m-14.58 0.81h9.72v1.62a0.81 0.81 0 0 0 0.81 0.81h1.62a0.81 0.81 0 0 0 0.81-0.81v-4.86a0.81 0.81 0 0 0-0.81-0.81h-1.62a0.81 0.81 0 0 0-0.81 0.81v1.62h-9.72a0.81 0.81 0 0 0 0 1.62m17.82 8.1H12a0.81 0.81 0 0 0 0 1.62h8.91a0.81 0.81 0 0 0 0-1.62M8.76 13.62H7.14a0.81 0.81 0 0 0-0.81 0.81v1.62h-3.24a0.81 0.81 0 0 0 0 1.62h3.24v1.62a0.81 0.81 0 0 0 0.81 0.81H8.76a0.81 0.81 0 0 0 0.81-0.81v-4.86a0.81 0.81 0 0 0-0.81-0.81"/></svg>