<svg width="24" height="24" viewBox="0 0 24 24" fill="none" xmlns="http://www.w3.org/2000/svg">
<path d="M14.4665 14.7113L12.9215 16.875L14.4712 19.0444C14.5848 19.1993 14.6361 19.3913 14.6149 19.5823C14.5937 19.7733 14.5016 19.9493 14.3568 20.0756C14.2776 20.1421 14.1855 20.1914 14.0863 20.2205C13.9871 20.2497 13.883 20.258 13.7804 20.2449C13.6778 20.2319 13.5791 20.1978 13.4903 20.1448C13.4016 20.0918 13.3247 20.021 13.2646 19.9369L11.9999 18.165L10.7353 19.9359C10.6752 20.02 10.5985 20.0907 10.5099 20.1438C10.4212 20.1968 10.3226 20.2309 10.2201 20.244C10.1177 20.2571 10.0136 20.2489 9.91448 20.22C9.81534 20.191 9.72326 20.1419 9.644 20.0756C9.49888 19.9496 9.40647 19.7735 9.3851 19.5825C9.36374 19.3915 9.415 19.1994 9.52869 19.0444L11.0784 16.875L9.53338 14.7113C9.41546 14.5513 9.36388 14.352 9.38938 14.155C9.41488 13.958 9.51551 13.7784 9.67025 13.6537C9.75013 13.5928 9.84142 13.5486 9.93873 13.5236C10.036 13.4987 10.1374 13.4935 10.2367 13.5085C10.336 13.5234 10.4313 13.5582 10.517 13.6107C10.6026 13.6632 10.6768 13.7323 10.7353 13.8141L11.9999 15.585L13.2646 13.8141C13.323 13.7323 13.3973 13.6632 13.4829 13.6107C13.5685 13.5582 13.6639 13.5234 13.7632 13.5085C13.8625 13.4935 13.9638 13.4987 14.0612 13.5236C14.1585 13.5486 14.2498 13.5928 14.3296 13.6537C14.4844 13.7784 14.585 13.958 14.6105 14.155C14.636 14.352 14.5844 14.5513 14.4665 14.7113ZM7.87494 13.5H4.15025C3.95644 13.4971 3.76873 13.5678 3.62489 13.6977C3.48105 13.8276 3.39174 14.0072 3.37494 14.2003C3.36813 14.3029 3.38248 14.4058 3.41711 14.5026C3.45174 14.5994 3.5059 14.6881 3.57624 14.7631C3.64657 14.8381 3.73158 14.8978 3.82597 14.9385C3.92036 14.9793 4.02212 15.0002 4.12494 15H5.24994V19.4747C5.24685 19.6686 5.31742 19.8564 5.44739 20.0003C5.57736 20.1442 5.75706 20.2334 5.95025 20.25C6.05284 20.2568 6.15574 20.2425 6.25255 20.2078C6.34935 20.1732 6.43801 20.119 6.513 20.0487C6.588 19.9784 6.64773 19.8934 6.68849 19.799C6.72925 19.7046 6.75016 19.6028 6.74994 19.5V15H7.84963C8.04344 15.0029 8.23115 14.9322 8.37499 14.8023C8.51883 14.6724 8.60814 14.4928 8.62494 14.2997C8.63175 14.1971 8.6174 14.0942 8.58277 13.9974C8.54814 13.9006 8.49397 13.8119 8.42364 13.7369C8.3533 13.6619 8.2683 13.6022 8.17391 13.5615C8.07952 13.5207 7.97775 13.4998 7.87494 13.5ZM19.8749 13.5H16.1503C15.9568 13.4976 15.7695 13.5685 15.6261 13.6983C15.4826 13.8282 15.3936 14.0075 15.3768 14.2003C15.37 14.3029 15.3844 14.4058 15.419 14.5026C15.4536 14.5994 15.5078 14.6881 15.5781 14.7631C15.6484 14.8381 15.7335 14.8978 15.8278 14.9385C15.9222 14.9793 16.024 15.0002 16.1268 15H17.2518V19.4747C17.2492 19.6682 17.32 19.8556 17.4499 19.9991C17.5798 20.1426 17.7593 20.2316 17.9521 20.2481C18.0547 20.2549 18.1576 20.2406 18.2544 20.206C18.3512 20.1713 18.4399 20.1172 18.5149 20.0468C18.5899 19.9765 18.6496 19.8915 18.6904 19.7971C18.7311 19.7027 18.752 19.6009 18.7518 19.4981V15H19.8515C20.045 15.0024 20.2322 14.9315 20.3757 14.8017C20.5191 14.6718 20.6082 14.4925 20.6249 14.2997C20.6318 14.1971 20.6174 14.0942 20.5828 13.9974C20.5481 13.9006 20.494 13.8119 20.4236 13.7369C20.3533 13.6619 20.2683 13.6022 20.1739 13.5615C20.0795 13.5207 19.9778 13.4998 19.8749 13.5ZM3.74994 10.875V3.75C3.74994 3.35218 3.90797 2.97064 4.18928 2.68934C4.47058 2.40804 4.85211 2.25 5.24994 2.25H14.2499C14.3485 2.24992 14.446 2.26926 14.5371 2.3069C14.6281 2.34454 14.7109 2.39975 14.7806 2.46938L20.0306 7.71938C20.1002 7.78908 20.1554 7.87182 20.193 7.96286C20.2307 8.05391 20.25 8.15148 20.2499 8.25V10.875C20.2499 10.9745 20.2104 11.0698 20.1401 11.1402C20.0698 11.2105 19.9744 11.25 19.8749 11.25H4.12494C4.02548 11.25 3.9301 11.2105 3.85977 11.1402C3.78945 11.0698 3.74994 10.9745 3.74994 10.875ZM14.2499 8.25H18.3749L14.2499 4.125V8.25Z" fill="black"/>
</svg>
