<svg xmlns="http://www.w3.org/2000/svg" width="24" height="24" fill="currentColor" viewBox="0 0 24 24"><path d="M20.674 7.376l-5.67-5.67a0.816 0.816 0 0 0-0.574-0.236h-9.72a1.62 1.62 0 0 0-1.62 1.62v7.696a0.408 0.408 0 0 0 0.404 0.405h17.01a0.408 0.408 0 0 0 0.405-0.405V7.95a0.816 0.816 0 0 0-0.237-0.574z m-6.244 0.574V3.494l4.456 4.456zM3.9 17.266c0 1.114 0.727 2.024 1.62 2.024a1.44 1.44 0 0 0 1.019-0.456 0.832 0.832 0 0 1 1.104-0.092 0.81 0.81 0 0 1 0.083 1.195 3.048 3.048 0 0 1-2.206 0.972c-1.786 0-3.24-1.636-3.24-3.645s1.454-3.644 3.24-3.644a3.036 3.036 0 0 1 2.166 0.93 0.836 0.836 0 0 1 0.074 1.123 0.81 0.81 0 0 1-1.204 0.039 1.44 1.44 0 0 0-1.035-0.472c-0.893 0-1.62 0.911-1.62 2.026z m10.511 1.651a2.112 2.112 0 0 1-0.93 1.542c-0.526 0.35-1.176 0.451-1.771 0.451a6.24 6.24 0 0 1-1.533-0.203 0.81 0.81 0 1 1 0.436-1.56c0.444 0.121 1.513 0.274 1.98-0.036 0.089-0.06 0.185-0.154 0.217-0.398 0.036-0.27-0.072-0.415-1.294-0.768-0.947-0.274-2.531-0.732-2.329-2.34a2.088 2.088 0 0 1 0.911-1.513c1.199-0.81 3.109-0.335 3.324-0.28a0.81 0.81 0 0 1-0.412 1.567c-0.455-0.119-1.542-0.259-2.007 0.057a0.456 0.456 0 0 0-0.203 0.372c-0.012 0.091-0.014 0.11 0.113 0.192 0.234 0.151 0.653 0.271 1.058 0.388 0.991 0.287 2.668 0.775 2.441 2.529z m6.44-4.183l-2.013 5.637a0.81 0.81 0 0 1-1.526 0l-2.013-5.637a0.832 0.832 0 0 1 0.456-1.059 0.81 0.81 0 0 1 1.058 0.483l1.263 3.534 1.262-3.534a0.81 0.81 0 0 1 1.058-0.483 0.833 0.833 0 0 1 0.456 1.059z"/></svg>