<svg width="24" height="24" viewBox="0 0 24 24" fill="none" xmlns="http://www.w3.org/2000/svg">
<path d="M14.2507 3V8.25H19.5007M4.50073 10.5V3.75C4.50073 3.55109 4.57975 3.36032 4.7204 3.21967C4.86105 3.07902 5.05182 3 5.25073 3H14.2507L19.5007 8.25V20.25C19.5007 20.4489 19.4217 20.6397 19.2811 20.7803C19.1404 20.921 18.9496 21 18.7507 21H18.0007M11.2507 16.125L14.2507 14.25V20.25L11.2507 18.375M4.50073 14.25H10.5007C10.9149 14.25 11.2507 14.5858 11.2507 15V19.5C11.2507 19.9142 10.9149 20.25 10.5007 20.25H4.50073C4.08652 20.25 3.75073 19.9142 3.75073 19.5V15C3.75073 14.5858 4.08652 14.25 4.50073 14.25Z" stroke="black" stroke-width="1.5" stroke-linecap="round" stroke-linejoin="round"/>
</svg>
