<svg xmlns="http://www.w3.org/2000/svg" width="24" height="24" fill="currentColor" viewBox="0 0 24 24"><path d="M20.674 7.376l-5.67-5.67a0.816 0.816 0 0 0-0.574-0.236h-9.72a1.62 1.62 0 0 0-1.62 1.62v7.696a0.408 0.408 0 0 0 0.404 0.405h12.15a0.408 0.408 0 0 1 0.406 0.406v10.53a0.408 0.408 0 0 0 0.406 0.404h2.834a1.62 1.62 0 0 0 1.62-1.62v-12.96a0.816 0.816 0 0 0-0.236-0.573z m-6.244 0.574V3.494l4.456 4.456z m-0.425 10.967a2.112 2.112 0 0 1-0.93 1.542c-0.526 0.35-1.176 0.451-1.771 0.451a6.24 6.24 0 0 1-1.532-0.203 0.81 0.81 0 1 1 0.435-1.56c0.444 0.121 1.519 0.274 1.98-0.036 0.089-0.06 0.185-0.154 0.217-0.398 0.036-0.27-0.072-0.415-1.293-0.768-0.947-0.274-2.531-0.732-2.329-2.34a2.088 2.088 0 0 1 0.91-1.513c1.199-0.81 3.109-0.335 3.324-0.28a0.81 0.81 0 0 1-0.411 1.567c-0.455-0.119-1.542-0.259-2.008 0.057a0.456 0.456 0 0 0-0.203 0.372c-0.012 0.091-0.014 0.11 0.113 0.192 0.234 0.151 0.653 0.271 1.059 0.388 0.991 0.287 2.668 0.775 2.44 2.529zM7.95 14.484a0.828 0.828 0 0 1-0.838 0.756h-1.188v4.832a0.828 0.828 0 0 1-0.756 0.838 0.81 0.81 0 0 1-0.864-0.81V15.24h-1.188a0.828 0.828 0 0 1-0.837-0.756 0.81 0.81 0 0 1 0.81-0.864h4.05a0.81 0.81 0 0 1 0.81 0.864z"/></svg>