<svg width="24" height="24" viewBox="0 0 24 24" fill="none" xmlns="http://www.w3.org/2000/svg">
<path fill-rule="evenodd" clip-rule="evenodd" d="M14.25 2.25C14.4489 2.25 14.6396 2.32907 14.7803 2.46973L20.0303 7.71973C20.1709 7.86038 20.25 8.05109 20.25 8.25V20.25C20.25 20.6478 20.0919 21.0292 19.8105 21.3105C19.5292 21.5919 19.1478 21.75 18.75 21.75H5.25C4.85218 21.75 4.47076 21.5919 4.18945 21.3105C3.90815 21.0292 3.75 20.6478 3.75 20.25V3.75C3.75 3.35217 3.90815 2.97076 4.18945 2.68945C4.47076 2.40815 4.85217 2.25 5.25 2.25H14.25ZM8.25 15.25C7.42157 15.25 6.75 15.9216 6.75 16.75V17.25C6.75007 18.0784 7.42161 18.75 8.25 18.75H9.75C10.5784 18.75 11.2499 18.0784 11.25 17.25V16.75C11.25 15.9216 10.5784 15.25 9.75 15.25H8.25ZM13.5 16.25C13.0858 16.25 12.75 16.5858 12.75 17C12.7501 17.4142 13.0858 17.75 13.5 17.75H16.5C16.9142 17.75 17.2499 17.4142 17.25 17C17.25 16.5858 16.9142 16.25 16.5 16.25H13.5ZM8.25 10.25C7.42157 10.25 6.75 10.9216 6.75 11.75V12.25C6.75007 13.0784 7.42161 13.75 8.25 13.75H9.75C10.5784 13.75 11.2499 13.0784 11.25 12.25V11.75C11.25 10.9216 10.5784 10.25 9.75 10.25H8.25ZM13.5 11.25C13.0858 11.25 12.75 11.5858 12.75 12C12.7501 12.4142 13.0858 12.75 13.5 12.75H16.5C16.9142 12.75 17.2499 12.4142 17.25 12C17.25 11.5858 16.9142 11.25 16.5 11.25H13.5ZM14.3438 8.10742H18.1045L14.3438 4.34668V8.10742Z" fill="black"/>
</svg>
