<svg width="24" height="24" viewBox="0 0 24 24" fill="none" xmlns="http://www.w3.org/2000/svg">
<path fill-rule="evenodd" clip-rule="evenodd" d="M14.25 2.25C14.4489 2.25 14.6396 2.32907 14.7803 2.46973L20.0303 7.71973C20.1709 7.86038 20.25 8.05109 20.25 8.25V20.25C20.25 20.6478 20.0919 21.0292 19.8105 21.3105C19.5292 21.5919 19.1478 21.75 18.75 21.75H12.4678C12.4685 21.7367 12.4697 21.7234 12.4697 21.71V16.0566L13.4395 17.0264C13.7322 17.3186 14.2072 17.3186 14.5 17.0264C14.7928 16.7336 14.7926 16.2578 14.5 15.9648L12.25 13.7148C11.9753 13.4404 11.5406 13.4236 11.2461 13.6641L11.1895 13.7148L8.93945 15.9648C8.64677 16.2578 8.64663 16.7335 8.93945 17.0264C9.23224 17.3186 9.70724 17.3186 10 17.0264L10.9697 16.0566V21.71C10.9697 21.7234 10.971 21.7367 10.9717 21.75H5.25C4.85218 21.75 4.47076 21.5919 4.18945 21.3105C3.90815 21.0292 3.75 20.6478 3.75 20.25V3.75C3.75 3.35217 3.90815 2.97076 4.18945 2.68945C4.47076 2.40815 4.85217 2.25 5.25 2.25H14.25ZM14.3467 8.11035H18.1064L14.3467 4.35156V8.11035Z" fill="black"/>
</svg>
