<svg xmlns="http://www.w3.org/2000/svg" width="24" height="24" fill="currentColor" viewBox="0 0 24 24"><path d="M3.496 11.19h17.017a0.408 0.408 0 0 0 0.404-0.406V7.95a0.816 0.816 0 0 0-0.236-0.574l-5.67-5.67a0.816 0.816 0 0 0-0.575-0.236H4.711a1.62 1.62 0 0 0-1.62 1.62v7.696a0.408 0.408 0 0 0 0.406 0.404z m10.935-7.696l4.456 4.456h-4.456zM4.306 13.62h-1.62a0.81 0.81 0 0 0-0.81 0.81v5.67a0.81 0.81 0 0 0 0.81 0.81h1.551c1.992 0 3.667-1.567 3.713-3.557a3.648 3.648 0 0 0-3.646-3.733z m-0.05 5.67h-0.76V15.24h0.81a2.028 2.028 0 0 1 2.025 2.102c-0.042 1.096-0.977 1.948-2.073 1.948z m17.28-0.433a0.836 0.836 0 0 1-0.074 1.123 3.036 3.036 0 0 1-2.167 0.93c-1.787 0-3.24-1.636-3.24-3.644s1.454-3.644 3.24-3.645a3.036 3.036 0 0 1 2.167 0.93 0.836 0.836 0 0 1 0.074 1.123 0.81 0.81 0 0 1-1.204 0.039 1.44 1.44 0 0 0-1.035-0.472c-0.893 0-1.62 0.911-1.62 2.026s0.727 2.026 1.62 2.025a1.44 1.44 0 0 0 1.036-0.471 0.81 0.81 0 0 1 1.205 0.038z m-9.535-5.237c-1.787 0-3.24 1.636-3.24 3.644s1.454 3.646 3.24 3.646 3.24-1.636 3.24-3.644-1.448-3.646-3.24-3.646m0 5.67c-0.894 0-1.62-0.911-1.62-2.026s0.727-2.026 1.62-2.025 1.62 0.911 1.62 2.025-0.722 2.026-1.62 2.026"/></svg>