<svg width="24" height="24" viewBox="0 0 24 24" fill="none" xmlns="http://www.w3.org/2000/svg">
<path fill-rule="evenodd" clip-rule="evenodd" d="M6.13354 13.5195C6.82974 13.5195 7.49771 13.7958 7.98999 14.2881C8.48227 14.7804 8.75854 15.4483 8.75854 16.1445C8.75854 16.8407 8.48227 17.5087 7.98999 18.001C7.49771 18.4933 6.82974 18.7695 6.13354 18.7695H5.38354V19.5195C5.38354 19.9337 5.04776 20.2695 4.63354 20.2695C4.21933 20.2695 3.88354 19.9337 3.88354 19.5195V14.2695C3.88354 13.8553 4.21933 13.5195 4.63354 13.5195H6.13354ZM5.38354 17.2695H6.13354C6.43191 17.2695 6.71847 17.1514 6.92944 16.9404C7.14042 16.7295 7.25854 16.4429 7.25854 16.1445C7.25854 15.8462 7.14042 15.5596 6.92944 15.3486C6.71847 15.1377 6.43191 15.0195 6.13354 15.0195H5.38354V17.2695Z" fill="black"/>
<path fill-rule="evenodd" clip-rule="evenodd" d="M12.1335 13.5195C13.0287 13.5195 13.8873 13.8749 14.5203 14.5078C15.1532 15.1407 15.5085 15.9994 15.5085 16.8945C15.5085 17.7896 15.1532 18.6483 14.5203 19.2812C13.8873 19.9142 13.0287 20.2695 12.1335 20.2695H10.6335C10.2193 20.2695 9.88354 19.9337 9.88354 19.5195V14.2695C9.88354 13.8553 10.2193 13.5195 10.6335 13.5195H12.1335ZM11.3835 18.7695H12.1335C12.6308 18.7695 13.1081 18.5723 13.4597 18.2207C13.8113 17.8691 14.0085 17.3918 14.0085 16.8945C14.0085 16.3973 13.8113 15.92 13.4597 15.5684C13.1081 15.2167 12.6308 15.0195 12.1335 15.0195H11.3835V18.7695Z" fill="black"/>
<path d="M20.3835 13.5195C20.7978 13.5195 21.1335 13.8553 21.1335 14.2695C21.1335 14.6837 20.7978 15.0195 20.3835 15.0195H18.1335V16.5195H19.6335C20.0478 16.5195 20.3835 16.8553 20.3835 17.2695C20.3835 17.6837 20.0478 18.0195 19.6335 18.0195H18.1335V19.5195C18.1335 19.9337 17.7978 20.2695 17.3835 20.2695C16.9693 20.2695 16.6335 19.9337 16.6335 19.5195V14.2695C16.6335 13.8553 16.9693 13.5195 17.3835 13.5195H20.3835Z" fill="black"/>
<path fill-rule="evenodd" clip-rule="evenodd" d="M14.2488 2.25195C14.3473 2.25189 14.4449 2.27098 14.5359 2.30859C14.6269 2.34623 14.7093 2.40205 14.7791 2.47168L20.0291 7.72168C20.0986 7.79137 20.1545 7.87383 20.1921 7.96484C20.2297 8.05583 20.2489 8.1535 20.2488 8.25195V10.877C20.2488 10.9764 20.2087 11.0713 20.1384 11.1416C20.0681 11.2119 19.9732 11.2519 19.8738 11.252H4.12378C4.02432 11.252 3.92848 11.2119 3.85815 11.1416C3.78813 11.0713 3.7488 10.9762 3.74878 10.877V3.75195C3.74878 3.35413 3.90693 2.97271 4.18823 2.69141C4.46953 2.4101 4.85096 2.25195 5.24878 2.25195H14.2488ZM14.2488 8.25195H18.3738L14.2488 4.12695V8.25195Z" fill="black"/>
</svg>
