<svg xmlns="http://www.w3.org/2000/svg" width="24" height="24" fill="currentColor" viewBox="0 0 24 24"><path d="M15.104 21.27a0.81 0.81 0 0 1-0.674 1.26h-12.96a0.81 0.81 0 0 1-0.682-1.248l3.646-5.67a0.81 0.81 0 0 1 1.363 0l0.989 1.537 2.111-3.168a0.81 0.81 0 0 1 1.349 0z m5.806-13.32v12.96a1.62 1.62 0 0 1-1.62 1.62H18.48a0.81 0.81 0 0 1 0-1.62h0.81V8.76h-4.86a0.81 0.81 0 0 1-0.81-0.81v-4.86H4.71V12a0.81 0.81 0 0 1-1.62 0V3.09a1.62 1.62 0 0 1 1.62-1.62h9.72a0.816 0.816 0 0 1 0.574 0.236l5.67 5.67a0.816 0.816 0 0 1 0.236 0.574M15.24 7.14h2.905L15.24 4.235z"/></svg>