<svg width="24" height="24" viewBox="0 0 24 24" fill="none" xmlns="http://www.w3.org/2000/svg">
<path d="M4.12401 11.2504H19.8805C19.9799 11.2504 20.0753 11.2109 20.1456 11.1406C20.2159 11.0703 20.2555 10.9749 20.2555 10.8754V8.25045C20.2555 8.15193 20.2362 8.05436 20.1986 7.96331C20.1609 7.87227 20.1057 7.78953 20.0361 7.71983L14.7861 2.46987C14.7162 2.40002 14.6332 2.34468 14.5418 2.30703C14.4504 2.26938 14.3525 2.25017 14.2536 2.25049H5.249C4.85118 2.25049 4.46965 2.40853 4.18835 2.68983C3.90705 2.97113 3.74901 3.35266 3.74901 3.75048V10.8754C3.74901 10.9749 3.78852 11.0703 3.85885 11.1406C3.92917 11.2109 4.02456 11.2504 4.12401 11.2504ZM14.2489 4.12548L18.3739 8.25045H14.2489V4.12548ZM4.87401 13.5004H3.37402C3.17511 13.5004 2.98434 13.5794 2.84369 13.7201C2.70304 13.8607 2.62402 14.0515 2.62402 14.2504V19.5004C2.62402 19.6993 2.70304 19.89 2.84369 20.0307C2.98434 20.1713 3.17511 20.2504 3.37402 20.2504H4.81119C6.65524 20.2504 8.20679 18.7991 8.24898 16.9569C8.25986 16.5069 8.1806 16.0593 8.01587 15.6403C7.85114 15.2214 7.60426 14.8397 7.28978 14.5176C6.97529 14.1955 6.59955 13.9396 6.18467 13.7649C5.76979 13.5902 5.32416 13.5003 4.87401 13.5004ZM4.82807 18.7504H4.12401V15.0004H4.87401C5.12643 15.0002 5.37629 15.051 5.60861 15.1497C5.84093 15.2484 6.05092 15.393 6.22601 15.5748C6.4011 15.7567 6.53767 15.972 6.62753 16.2079C6.7174 16.4437 6.75871 16.6953 6.74899 16.9476C6.71055 17.9619 5.84431 18.7504 4.82901 18.7504H4.82807ZM20.8283 18.3491C20.9482 18.4999 21.0077 18.6899 20.9951 18.8822C20.9824 19.0744 20.8985 19.2551 20.7598 19.3888C20.4997 19.6589 20.1883 19.8743 19.8437 20.0222C19.4992 20.1702 19.1285 20.2477 18.7536 20.2504C17.0989 20.2504 15.7536 18.7363 15.7536 16.8754C15.7536 15.0145 17.0999 13.5004 18.7536 13.5004C19.1285 13.503 19.4992 13.5806 19.8437 13.7286C20.1883 13.8765 20.4997 14.0919 20.7598 14.362C20.8985 14.4957 20.9824 14.6763 20.9951 14.8686C21.0077 15.0608 20.9482 15.2509 20.8283 15.4016C20.7605 15.4822 20.6765 15.5476 20.5817 15.5935C20.487 15.6395 20.3836 15.6649 20.2784 15.6683C20.1732 15.6717 20.0684 15.6528 19.9709 15.613C19.8734 15.5732 19.7854 15.5133 19.7126 15.4373C19.591 15.3032 19.4433 15.1953 19.2786 15.1201C19.1138 15.045 18.9355 15.0043 18.7545 15.0004C17.9277 15.0004 17.2545 15.8441 17.2545 16.8754C17.2545 17.9066 17.9277 18.7504 18.7545 18.7504C18.9357 18.7464 19.1141 18.7056 19.279 18.6305C19.4438 18.5554 19.5917 18.4475 19.7136 18.3135C19.7864 18.2374 19.8744 18.1775 19.9719 18.1377C20.0693 18.0979 20.1741 18.0791 20.2793 18.0825C20.3846 18.0858 20.4879 18.1113 20.5827 18.1572C20.6774 18.2032 20.7614 18.2686 20.8292 18.3491H20.8283ZM11.999 13.5004C10.3443 13.5004 8.99897 15.0145 8.99897 16.8754C8.99897 18.7363 10.3462 20.2504 11.999 20.2504C13.6518 20.2504 14.9989 18.7363 14.9989 16.8754C14.9989 15.0145 13.6574 13.5004 11.999 13.5004ZM11.999 18.7504C11.1711 18.7504 10.499 17.9066 10.499 16.8754C10.499 15.8441 11.1721 15.0004 11.999 15.0004C12.8258 15.0004 13.4989 15.8441 13.4989 16.8754C13.4989 17.9066 12.8296 18.7504 11.999 18.7504Z" fill="black"/>
</svg>
