<svg width="24" height="24" viewBox="0 0 24 24" fill="none" xmlns="http://www.w3.org/2000/svg">
<path d="M20.0295 7.71787L14.7796 2.46791C14.7099 2.39828 14.6271 2.34307 14.5361 2.30543C14.445 2.26779 14.3475 2.24846 14.2489 2.24854H5.24901C4.85119 2.24854 4.46966 2.40657 4.18836 2.68787C3.90706 2.96917 3.74902 3.3507 3.74902 3.74852V20.2484C3.74902 20.6462 3.90706 21.0277 4.18836 21.309C4.46966 21.5904 4.85119 21.7484 5.24901 21.7484H18.7489C19.1467 21.7484 19.5283 21.5904 19.8096 21.309C20.0909 21.0277 20.2489 20.6462 20.2489 20.2484V8.24849C20.249 8.14997 20.2296 8.0524 20.192 7.96135C20.1544 7.87031 20.0991 7.78757 20.0295 7.71787ZM10.2796 15.9678C10.3493 16.0375 10.4046 16.1202 10.4423 16.2113C10.48 16.3023 10.4994 16.3999 10.4994 16.4984C10.4994 16.597 10.48 16.6946 10.4423 16.7856C10.4046 16.8766 10.3493 16.9594 10.2796 17.029C10.2099 17.0987 10.1272 17.154 10.0361 17.1917C9.9451 17.2294 9.84752 17.2488 9.74898 17.2488C9.65043 17.2488 9.55285 17.2294 9.46181 17.1917C9.37076 17.154 9.28804 17.0987 9.21836 17.029L6.96837 14.7791C6.89864 14.7094 6.84332 14.6267 6.80558 14.5356C6.76784 14.4446 6.74841 14.347 6.74841 14.2484C6.74841 14.1499 6.76784 14.0523 6.80558 13.9612C6.84332 13.8702 6.89864 13.7875 6.96837 13.7178L9.21836 11.4678C9.35909 11.3271 9.54996 11.248 9.74898 11.248C9.948 11.248 10.1389 11.3271 10.2796 11.4678C10.4203 11.6086 10.4994 11.7994 10.4994 11.9985C10.4994 12.1975 10.4203 12.3884 10.2796 12.5291L8.5593 14.2484L10.2796 15.9678ZM17.0295 14.7791L14.7796 17.029C14.6388 17.1698 14.448 17.2488 14.2489 17.2488C14.0499 17.2488 13.8591 17.1698 13.7183 17.029C13.5776 16.8883 13.4985 16.6974 13.4985 16.4984C13.4985 16.2994 13.5776 16.1085 13.7183 15.9678L15.4386 14.2484L13.7183 12.5291C13.5776 12.3884 13.4985 12.1975 13.4985 11.9985C13.4985 11.7994 13.5776 11.6086 13.7183 11.4678C13.8591 11.3271 14.0499 11.248 14.2489 11.248C14.448 11.248 14.6388 11.3271 14.7796 11.4678L17.0295 13.7178C17.0993 13.7875 17.1546 13.8702 17.1923 13.9612C17.2301 14.0523 17.2495 14.1499 17.2495 14.2484C17.2495 14.347 17.2301 14.4446 17.1923 14.5356C17.1546 14.6267 17.0993 14.7094 17.0295 14.7791ZM14.2489 8.24849V4.12352L18.3739 8.24849H14.2489Z" fill="black"/>
</svg>
