<svg width="24" height="24" viewBox="0 0 24 24" fill="none" xmlns="http://www.w3.org/2000/svg">
<path d="M11.6697 13.5059C12.0984 13.4833 12.5061 13.5268 12.7976 13.5723C12.9455 13.5953 13.069 13.6195 13.157 13.6387C13.201 13.6483 13.2369 13.6569 13.2625 13.6631C13.275 13.6661 13.2851 13.669 13.2927 13.6709C13.2966 13.6719 13.3 13.6722 13.3025 13.6729C13.3036 13.6731 13.3046 13.6736 13.3054 13.6738L13.3074 13.6748C13.7076 13.7808 13.9474 14.1915 13.8416 14.5918C13.7356 14.9921 13.3249 15.2308 12.9246 15.125C12.9218 15.1243 12.916 15.1228 12.9089 15.1211C12.894 15.1175 12.8694 15.1114 12.8376 15.1045C12.7739 15.0906 12.6801 15.0725 12.5662 15.0547C12.3336 15.0184 12.0375 14.9888 11.7488 15.0039C11.4498 15.0196 11.2266 15.0798 11.0886 15.165C10.9862 15.2284 10.906 15.3166 10.8796 15.5254C10.8741 15.5699 10.876 15.5945 10.8777 15.6045C10.8792 15.6131 10.8815 15.6162 10.8826 15.6182C10.8851 15.6227 10.9059 15.6591 10.9968 15.7158C11.2107 15.8491 11.5396 15.9446 12.03 16.0859C12.4506 16.2071 13.0267 16.3717 13.4675 16.6787C13.7035 16.8431 13.9325 17.0677 14.0828 17.3779C14.2354 17.6932 14.28 18.0419 14.2332 18.4062C14.1462 19.08 13.8024 19.5673 13.323 19.8662C12.8787 20.1432 12.3677 20.2295 11.948 20.249C11.5184 20.269 11.1103 20.2225 10.8191 20.1738C10.6716 20.1492 10.5486 20.1228 10.4607 20.1025C10.4167 20.0924 10.3808 20.0837 10.3552 20.0771C10.3424 20.0739 10.3317 20.0714 10.324 20.0693C10.3201 20.0683 10.3167 20.0671 10.3142 20.0664C10.3131 20.0661 10.3121 20.0657 10.3113 20.0654L10.3093 20.0645C9.91029 19.9534 9.67675 19.5397 9.78784 19.1406C9.89901 18.7424 10.3113 18.5091 10.7097 18.6191C10.71 18.6192 10.7105 18.6198 10.7117 18.6201C10.7143 18.6208 10.7199 18.6221 10.7273 18.624C10.742 18.6278 10.7656 18.6335 10.7966 18.6406C10.8598 18.6552 10.953 18.6754 11.0662 18.6943C11.2973 18.733 11.5915 18.7642 11.8777 18.751C12.1735 18.7372 12.3931 18.6784 12.5291 18.5938C12.6298 18.5309 12.717 18.439 12.7458 18.2148C12.7609 18.0976 12.7404 18.0492 12.7322 18.0322C12.7217 18.0105 12.6942 17.9677 12.6101 17.9092C12.4106 17.7703 12.0907 17.6647 11.614 17.5273C11.2071 17.4101 10.6367 17.2581 10.2039 16.9883C9.97157 16.8435 9.73226 16.6392 9.56909 16.3438C9.40038 16.0381 9.34621 15.6947 9.39136 15.3369C9.47613 14.6657 9.82333 14.1837 10.3005 13.8887C10.7423 13.6157 11.2512 13.5279 11.6697 13.5059Z" fill="black"/>
<path d="M6.29663 13.5186C6.582 13.5512 6.86136 13.6268 7.12476 13.7441C7.47597 13.9007 7.79195 14.1274 8.05249 14.4102C8.33312 14.7148 8.31316 15.1891 8.00854 15.4697C7.70391 15.7503 7.22962 15.7314 6.94897 15.4268C6.82684 15.2942 6.67904 15.1876 6.5144 15.1143C6.35107 15.0415 6.17462 15.0027 5.99585 15C5.2728 15.0033 4.50073 15.7296 4.50073 16.875C4.50073 18.0204 5.2728 18.7458 5.99585 18.749C6.17461 18.7463 6.35107 18.7085 6.5144 18.6357C6.67904 18.5624 6.82684 18.4558 6.94897 18.3232C7.22962 18.0186 7.70391 17.9997 8.00854 18.2803C8.31316 18.5609 8.33312 19.0352 8.05249 19.3398C7.79195 19.6226 7.47597 19.8493 7.12476 20.0059C6.77362 20.1623 6.3939 20.2453 6.00952 20.25H6.00073C4.23894 20.25 3.00073 18.6258 3.00073 16.875C3.00073 15.1242 4.23894 13.5 6.00073 13.5H6.00952L6.29663 13.5186Z" fill="black"/>
<path d="M18.7947 13.998C18.934 13.608 19.3627 13.4048 19.7527 13.5439C20.1427 13.6832 20.346 14.1119 20.2068 14.502L18.3318 19.752C18.2252 20.0504 17.9427 20.25 17.6257 20.25C17.3088 20.25 17.0263 20.0504 16.9197 19.752L15.0447 14.502C14.9055 14.1119 15.1088 13.6832 15.4988 13.5439C15.8888 13.4048 16.3175 13.608 16.4568 13.998L17.6257 17.2705L18.7947 13.998Z" fill="black"/>
<path fill-rule="evenodd" clip-rule="evenodd" d="M14.2488 2.25195C14.3473 2.25189 14.4449 2.27098 14.5359 2.30859C14.6269 2.34623 14.7093 2.40205 14.7791 2.47168L20.0291 7.72168C20.0986 7.79137 20.1545 7.87383 20.1921 7.96484C20.2297 8.05583 20.2489 8.1535 20.2488 8.25195V10.877C20.2488 10.9764 20.2087 11.0713 20.1384 11.1416C20.0681 11.2119 19.9732 11.2519 19.8738 11.252H4.12378C4.02432 11.252 3.92848 11.2119 3.85815 11.1416C3.78813 11.0713 3.7488 10.9762 3.74878 10.877V3.75195C3.74878 3.35413 3.90693 2.97271 4.18823 2.69141C4.46953 2.4101 4.85096 2.25195 5.24878 2.25195H14.2488ZM14.2488 8.25195H18.3738L14.2488 4.12695V8.25195Z" fill="black"/>
</svg>
