<svg width="24" height="24" viewBox="0 0 24 24" fill="none" xmlns="http://www.w3.org/2000/svg">
<path fill-rule="evenodd" clip-rule="evenodd" d="M14.25 2.25C14.4489 2.25 14.6396 2.32907 14.7803 2.46973L20.0303 7.71973C20.1709 7.86038 20.25 8.05109 20.25 8.25V20.25C20.25 20.6478 20.0919 21.0292 19.8105 21.3105C19.5292 21.5919 19.1478 21.75 18.75 21.75H15.75C15.3358 21.75 15 21.4142 15 21C15 20.5858 15.3358 20.25 15.75 20.25H18.75V9H14.25C13.8358 9 13.5 8.66421 13.5 8.25V3.75H5.25V11.25C5.25 11.6642 4.91421 12 4.5 12C4.08579 12 3.75 11.6642 3.75 11.25V3.75C3.75 3.35217 3.90815 2.97076 4.18945 2.68945C4.47076 2.40815 4.85217 2.25 5.25 2.25H14.25ZM15 7.5H17.6895L15 4.81055V7.5Z" fill="black"/>
<path fill-rule="evenodd" clip-rule="evenodd" d="M7.97852 12.8008C9.05599 12.6298 10.1578 12.8931 11.042 13.5322C11.0513 13.5377 11.0604 13.5436 11.0693 13.5498C11.0782 13.556 11.0875 13.5623 11.0957 13.5693V13.5713C11.9693 14.2247 12.548 15.1979 12.7061 16.2773C12.864 17.3569 12.5884 18.4556 11.9385 19.332C11.2885 20.2085 10.3172 20.7918 9.23828 20.9541C8.15952 21.1163 7.06055 20.8444 6.18164 20.1982C5.30259 19.5519 4.71556 18.5832 4.54883 17.5049C4.38223 16.4268 4.64937 15.3269 5.29199 14.4453C5.93478 13.5636 6.90091 12.9719 7.97852 12.8008ZM8.51465 15.999C8.32973 16.0358 8.15969 16.1264 8.02637 16.2598C7.89309 16.3931 7.8024 16.5632 7.76562 16.748C7.72893 16.9329 7.74723 17.1247 7.81934 17.2988C7.8915 17.4729 8.0142 17.6219 8.1709 17.7266C8.32756 17.8312 8.51181 17.8867 8.7002 17.8867C8.95299 17.8867 9.19525 17.7862 9.37402 17.6074C9.5528 17.4286 9.65332 17.1864 9.65332 16.9336C9.65331 16.7452 9.59779 16.561 9.49316 16.4043C9.38844 16.2476 9.23956 16.1249 9.06543 16.0527C8.89129 15.9806 8.69952 15.9623 8.51465 15.999ZM9.85254 15.8418C10.1229 16.1252 10.2783 16.499 10.2891 16.8906L12.1836 17.2256C12.1915 17.1295 12.1953 17.0317 12.1953 16.9336C12.1954 16.4256 12.0852 15.9236 11.8711 15.4629C11.6569 15.0021 11.3446 14.5931 10.9561 14.2656L9.85254 15.8418Z" fill="black"/>
</svg>
