<svg width="24" height="24" viewBox="0 0 24 24" fill="none" xmlns="http://www.w3.org/2000/svg">
<path d="M20.0295 7.723L14.7796 2.47304C14.7099 2.40341 14.6271 2.3482 14.5361 2.31056C14.445 2.27292 14.3475 2.25358 14.2489 2.25366H5.24901C4.85119 2.25366 4.46966 2.4117 4.18836 2.693C3.90706 2.9743 3.74902 3.35583 3.74902 3.75365V20.2535C3.74902 20.6513 3.90706 21.0329 4.18836 21.3142C4.46966 21.5955 4.85119 21.7535 5.24901 21.7535H18.7489C19.1467 21.7535 19.5283 21.5955 19.8096 21.3142C20.0909 21.0329 20.2489 20.6513 20.2489 20.2535V8.25362C20.249 8.1551 20.2296 8.05753 20.192 7.96648C20.1544 7.87544 20.0991 7.7927 20.0295 7.723ZM14.2489 8.25362V4.12865L18.3739 8.25362H14.2489Z" fill="black"/>
</svg>
