<svg viewBox="0 0 24 24" fill="none" xmlns="http://www.w3.org/2000/svg" width="24" height="24">
<path d="M11.913 13.459C12.058 13.43 12.209 13.446 12.346 13.502 12.482 13.559 12.6 13.655 12.682 13.778 12.764 13.901 12.807 14.046 12.807 14.194 12.807 14.392 12.729 14.583 12.588 14.723 12.448 14.864 12.257 14.943 12.059 14.943 11.911 14.943 11.766 14.898 11.643 14.816 11.52 14.734 11.424 14.617 11.367 14.481 11.31 14.344 11.296 14.193 11.325 14.047 11.354 13.902 11.425 13.769 11.53 13.664 11.635 13.56 11.768 13.488 11.913 13.459Z" fill="black"/>
<path d="M13.83 12.098C14.136 12.356 14.381 12.676 14.549 13.038 14.717 13.4 14.804 13.795 14.804 14.194 14.804 14.271 14.801 14.348 14.795 14.423L13.307 14.16C13.298 13.852 13.176 13.559 12.963 13.336L13.83 12.098Z" fill="black"/>
<path fill-rule="evenodd" clip-rule="evenodd" d="M14.548 1.691C14.643 1.71 14.73 1.751 14.803 1.809 14.821 1.824 14.838 1.839 14.855 1.855L20.524 7.525C20.571 7.571 20.609 7.626 20.638 7.684 20.678 7.766 20.7 7.856 20.7 7.949V20.91C20.7 21.283 20.552 21.642 20.287 21.906 20.023 22.17 19.664 22.32 19.29 22.32H4.71C4.336 22.32 3.977 22.17 3.713 21.906 3.448 21.642 3.3 21.283 3.3 20.91V3.089C3.3 2.715 3.448 2.356 3.713 2.092 3.977 1.827 4.336 1.679 4.71 1.679H14.43L14.548 1.691ZM13.897 11.522C13.203 11.02 12.338 10.813 11.491 10.948 10.645 11.082 9.887 11.547 9.382 12.239 8.877 12.931 8.666 13.796 8.797 14.643 8.928 15.489 9.39 16.25 10.08 16.758 10.771 17.265 11.634 17.479 12.482 17.352 13.329 17.224 14.092 16.767 14.603 16.078 15.113 15.39 15.329 14.527 15.205 13.679 15.081 12.831 14.627 12.067 13.941 11.553V11.551C13.934 11.546 13.927 11.541 13.92 11.536 13.912 11.531 13.905 11.526 13.897 11.522ZM15.03 7.349H18.652L15.03 3.728V7.349Z" fill="black"/>
</svg>