<svg width="24" height="24" viewBox="0 0 24 24" fill="none" xmlns="http://www.w3.org/2000/svg">
<path fill-rule="evenodd" clip-rule="evenodd" d="M12.0254 13.4502C12.9402 13.4503 13.8179 13.8131 14.4648 14.46C15.1117 15.1068 15.4745 15.9846 15.4746 16.8994C15.4746 17.8144 15.1118 18.6929 14.4648 19.3398C13.8179 19.9867 12.9402 20.3495 12.0254 20.3496H10.6748C10.2607 20.3495 9.9248 20.0138 9.9248 19.5996V14.2002C9.92487 13.7861 10.2607 13.4503 10.6748 13.4502H12.0254ZM11.4248 18.8496H12.0254C12.5424 18.8495 13.0387 18.6439 13.4043 18.2783C13.7697 17.9127 13.9746 17.4164 13.9746 16.8994C13.9745 16.3827 13.7696 15.887 13.4043 15.5215C13.0387 15.1559 12.5424 14.9503 12.0254 14.9502H11.4248V18.8496Z" fill="black"/>
<path d="M7.60156 13.7275C7.79601 13.4707 8.13309 13.3672 8.43848 13.4697C8.74389 13.5723 8.95014 13.8585 8.9502 14.1807V19.5801C8.9502 19.9942 8.61432 20.33 8.2002 20.3301C7.78598 20.3301 7.4502 19.9943 7.4502 19.5801V16.4131L6.07324 18.2334C5.93147 18.4206 5.70943 18.5303 5.47461 18.5303C5.23998 18.5302 5.01865 18.4204 4.87695 18.2334L3.5 16.4131V19.5801C3.5 19.9943 3.16421 20.3301 2.75 20.3301C2.33579 20.3301 2 19.9943 2 19.5801V14.1807C2.00005 13.8585 2.20631 13.5723 2.51172 13.4697C2.81697 13.3674 3.15322 13.4709 3.34766 13.7275L5.47461 16.5361L7.60156 13.7275Z" fill="black"/>
<path fill-rule="evenodd" clip-rule="evenodd" d="M19.6465 13.3994C20.181 13.3994 20.6943 13.6123 21.0723 13.9902C21.4501 14.3681 21.662 14.8807 21.6621 15.415C21.6621 15.8169 21.5424 16.2069 21.3223 16.5361C21.3346 16.5479 21.3482 16.5592 21.3604 16.5713C21.7697 16.9808 21.9999 17.5362 22 18.1152C22 18.6945 21.7699 19.2505 21.3604 19.6602C20.9507 20.0698 20.3948 20.2998 19.8154 20.2998H17.2002C16.786 20.2998 16.4502 19.964 16.4502 19.5498V14.1494C16.4505 13.7355 16.7862 13.3994 17.2002 13.3994H19.6465ZM17.9502 18.7998H19.8154C19.9969 18.7998 20.1715 18.728 20.2998 18.5996C20.4281 18.4713 20.5 18.2967 20.5 18.1152C20.4999 17.934 20.4279 17.7601 20.2998 17.6318C20.1715 17.5035 19.9969 17.4307 19.8154 17.4307H17.9502V18.7998ZM17.9502 15.9307H19.6465C19.7832 15.9307 19.915 15.877 20.0117 15.7803C20.1084 15.6836 20.1621 15.5517 20.1621 15.415C20.162 15.2785 20.1082 15.1473 20.0117 15.0508C19.915 14.9541 19.7832 14.8994 19.6465 14.8994H17.9502V15.9307Z" fill="black"/>
<path fill-rule="evenodd" clip-rule="evenodd" d="M14.2363 2.24805C14.4351 2.24811 14.626 2.32722 14.7666 2.46777L20.0098 7.71094L20.1016 7.82227C20.1821 7.94187 20.2272 8.08328 20.2295 8.22949L20.2529 9.73438V10.4951C20.2529 10.9093 19.9171 11.2451 19.5029 11.2451C19.1371 11.2451 18.9486 11.2451 18.7539 11.2451L5.27539 11.2422C5.07684 11.2422 4.91713 11.2423 4.52637 11.2422C4.11227 11.242 3.77636 10.9063 3.77637 10.4922C3.77637 10.1436 3.77637 9.94384 3.77637 9.74609L3.75293 3.74707V3.74414C3.75297 3.34666 3.91135 2.96565 4.19238 2.68457L4.30176 2.58496C4.56851 2.36627 4.90401 2.24517 5.25195 2.24512L14.2363 2.24805ZM14.3984 8.0957H18.1592L14.3984 4.33496V8.0957Z" fill="black"/>
</svg>
