<svg viewBox="0 0 24 24" fill="none" xmlns="http://www.w3.org/2000/svg" width="24" height="24">
<path d="M20.91 7.95V20.91C20.91 21.339 20.739 21.751 20.435 22.055 20.131 22.359 19.719 22.53 19.29 22.53H15.305C15.091 22.53 14.885 22.444 14.733 22.292 14.581 22.14 14.495 21.934 14.495 21.72 14.495 21.505 14.581 21.299 14.733 21.147 14.885 20.995 15.091 20.91 15.305 20.91H19.29V8.76H14.43C14.215 8.76 14.009 8.674 13.857 8.522 13.705 8.37 13.62 8.164 13.62 7.95V3.09H4.71V10.378C4.71 10.592 4.624 10.798 4.472 10.95 4.321 11.102 4.114 11.188 3.9 11.188 3.685 11.188 3.479 11.102 3.327 10.95 3.175 10.798 3.09 10.592 3.09 10.378V3.09C3.09 2.66 3.26 2.248 3.564 1.944 3.868 1.64 4.28 1.47 4.71 1.47H14.43C14.536 1.469 14.641 1.49 14.74 1.531 14.838 1.572 14.927 1.631 15.003 1.706L20.673 7.376C20.748 7.452 20.808 7.541 20.848 7.639 20.889 7.738 20.91 7.843 20.91 7.95ZM15.24 7.14H18.144L15.24 4.235V7.14Z" fill="black"/>
<path d="M13.62 2.28C13.62 1.833 13.982 1.47 14.43 1.47 14.877 1.47 15.24 1.833 15.24 2.28L15.24 7.14 20.1 7.14C20.547 7.14 20.909 7.502 20.91 7.95 20.91 8.397 20.547 8.76 20.1 8.76L14.43 8.76C13.982 8.76 13.62 8.397 13.62 7.95L13.62 2.28Z" fill="black"/>
<path d="M12.81 16.881C12.81 14.644 10.997 12.831 8.76 12.831 6.524 12.831 4.71 14.644 4.71 16.881 4.71 19.118 6.524 20.931 8.76 20.931 10.997 20.931 12.81 19.118 12.81 16.881ZM14.431 16.881C14.431 20.012 11.892 22.552 8.76 22.552 5.629 22.551 3.091 20.012 3.091 16.881 3.091 13.75 5.629 11.211 8.76 11.211 11.892 11.211 14.431 13.749 14.431 16.881Z" fill="black"/>
<path d="M7.951 14.046C7.951 13.599 8.314 13.236 8.761 13.236 9.208 13.236 9.571 13.599 9.571 14.046V16.071H11.596C12.043 16.071 12.405 16.434 12.405 16.881 12.405 17.328 12.043 17.691 11.596 17.691H8.761C8.314 17.691 7.951 17.328 7.951 16.881V14.046Z" fill="black"/>
</svg>