<svg xmlns="http://www.w3.org/2000/svg" width="24" height="24" fill="currentColor" viewBox="0 0 24 24"><path d="M14.43 17.266a4.104 4.104 0 0 1-2.026 3.535 0.81 0.81 0 0 1-0.81-1.399 2.479 2.479 0 0 0 0-4.271 0.81 0.81 0 0 1 0.81-1.399 4.104 4.104 0 0 1 2.026 3.535z m-5.36-5.204a0.81 0.81 0 0 0-0.884 0.176l-2.192 2.193H3.899a0.81 0.81 0 0 0-0.81 0.81v4.05a0.81 0.81 0 0 0 0.81 0.81h2.095l2.192 2.194a0.81 0.81 0 0 0 1.384-0.574v-8.91a0.81 0.81 0 0 0-0.5-0.749m11.84-4.111v12.96a1.62 1.62 0 0 1-1.62 1.62h-3.24a0.81 0.81 0 0 1 0-1.62h3.24V8.761h-4.86a0.81 0.81 0 0 1-0.81-0.81v-4.86H4.71v8.1a0.81 0.81 0 0 1-1.62 0v-8.1a1.62 1.62 0 0 1 1.62-1.62h9.72a0.816 0.816 0 0 1 0.574 0.237l5.67 5.67a0.816 0.816 0 0 1 0.236 0.573M15.24 7.141h2.905L15.24 4.236z"/></svg>