<svg width="24" height="24" viewBox="0 0 24 24" fill="none" xmlns="http://www.w3.org/2000/svg">
<path d="M17.2489 13.4982H15.7489C15.55 13.4982 15.3593 13.5772 15.2186 13.7179C15.078 13.8585 14.9989 14.0493 14.9989 14.2482V19.4728C14.9963 19.6664 15.0671 19.8538 15.197 19.9972C15.327 20.1407 15.5064 20.2297 15.6992 20.2463C15.8018 20.2531 15.9047 20.2387 16.0015 20.2041C16.0983 20.1695 16.187 20.1153 16.262 20.045C16.337 19.9746 16.3967 19.8896 16.4375 19.7953C16.4782 19.7009 16.4992 19.5991 16.4989 19.4963V18.7463H17.1927C18.6214 18.7463 19.8308 17.6288 19.873 16.201C19.8834 15.8499 19.8232 15.5002 19.696 15.1728C19.5688 14.8453 19.3772 14.5467 19.1325 14.2947C18.8878 14.0426 18.595 13.8423 18.2715 13.7055C17.9479 13.5687 17.6002 13.4982 17.2489 13.4982ZM17.2161 17.2482H16.4989V14.9982H17.2489C17.4063 14.9975 17.562 15.0297 17.7061 15.0929C17.8502 15.1562 17.9795 15.2489 18.0855 15.3652C18.1915 15.4814 18.2719 15.6187 18.3216 15.768C18.3713 15.9173 18.3891 16.0753 18.3739 16.2319C18.3412 16.5147 18.2046 16.7752 17.9907 16.963C17.7768 17.1508 17.5007 17.2524 17.2161 17.2482ZM12.749 14.2482V19.4728C12.7516 19.6664 12.6808 19.8538 12.5509 19.9972C12.4209 20.1407 12.2415 20.2297 12.0486 20.2463C11.9461 20.2531 11.8432 20.2387 11.7464 20.2041C11.6495 20.1695 11.5609 20.1153 11.4859 20.045C11.4109 19.9746 11.3512 19.8896 11.3104 19.7953C11.2697 19.7009 11.2487 19.5991 11.249 19.4963V14.2735C11.2464 14.08 11.3171 13.8926 11.4471 13.7491C11.577 13.6056 11.7564 13.5166 11.9493 13.5001C12.0517 13.4933 12.1544 13.5076 12.2511 13.5421C12.3478 13.5766 12.4364 13.6306 12.5113 13.7007C12.5863 13.7709 12.6461 13.8556 12.6869 13.9498C12.7278 14.044 12.7489 14.1455 12.749 14.2482ZM8.99898 19.5478C8.9824 19.741 8.89315 19.9207 8.74927 20.0507C8.60538 20.1807 8.41755 20.2512 8.22368 20.2482H5.27057C5.16585 20.2491 5.06201 20.2288 4.96533 20.1885C4.86866 20.1483 4.78115 20.0888 4.70808 20.0138C4.59607 19.8971 4.52479 19.7473 4.50485 19.5868C4.48492 19.4263 4.5174 19.2637 4.59745 19.1232L6.95619 14.9982H5.27432C5.08045 15.0013 4.89262 14.9307 4.74874 14.8007C4.60485 14.6708 4.51561 14.4911 4.49902 14.2979C4.49221 14.1953 4.50656 14.0924 4.54119 13.9956C4.57582 13.8988 4.62998 13.8101 4.70032 13.7351C4.77065 13.6601 4.85565 13.6004 4.95004 13.5597C5.04443 13.5189 5.1462 13.498 5.24901 13.4982H8.22743C8.33215 13.4973 8.43599 13.5175 8.53267 13.5578C8.62934 13.5981 8.71685 13.6575 8.78992 13.7326C8.90267 13.8487 8.97483 13.9982 8.99561 14.1587C9.0164 14.3192 8.98469 14.4822 8.90523 14.6232L6.54181 18.7482H8.24899C8.3518 18.7479 8.45357 18.7689 8.54796 18.8096C8.64235 18.8504 8.72735 18.9101 8.79769 18.9851C8.86802 19.0601 8.92218 19.1487 8.95681 19.2456C8.99144 19.3424 9.0058 19.4453 8.99898 19.5478ZM20.0295 7.71762L14.7796 2.46766C14.7099 2.39804 14.6271 2.34283 14.5361 2.30519C14.445 2.26755 14.3475 2.24821 14.2489 2.24829H5.24901C4.85119 2.24829 4.46966 2.40633 4.18836 2.68763C3.90706 2.96893 3.74902 3.35046 3.74902 3.74828V10.8732C3.74902 10.9727 3.78853 11.0681 3.85886 11.1384C3.92918 11.2087 4.02457 11.2482 4.12402 11.2482H19.8739C19.9734 11.2482 20.0687 11.2087 20.1391 11.1384C20.2094 11.0681 20.2489 10.9727 20.2489 10.8732V8.24825C20.249 8.14973 20.2296 8.05216 20.192 7.96111C20.1544 7.87006 20.0991 7.78733 20.0295 7.71762ZM14.2489 8.24825V4.12328L18.3739 8.24825H14.2489Z" fill="black"/>
</svg>
