<svg width="24" height="24" viewBox="0 0 24 24" fill="none" xmlns="http://www.w3.org/2000/svg">
<path fill-rule="evenodd" clip-rule="evenodd" d="M14.25 2.25C14.4489 2.25 14.6396 2.32907 14.7803 2.46973L20.0303 7.71973C20.1709 7.86038 20.25 8.05109 20.25 8.25V20.25C20.25 20.6478 20.0919 21.0292 19.8105 21.3105C19.5292 21.5919 19.1478 21.75 18.75 21.75H5.25C4.85218 21.75 4.47076 21.5919 4.18945 21.3105C3.90815 21.0292 3.75 20.6478 3.75 20.25V3.75C3.75 3.35217 3.90815 2.97076 4.18945 2.68945C4.47076 2.40815 4.85217 2.25 5.25 2.25H14.25ZM9.75977 15.749C8.93153 15.7491 8.25994 16.4208 8.25977 17.249C8.25996 18.0772 8.93155 18.7489 9.75977 18.749H13.3096C14.1379 18.749 14.8094 18.0773 14.8096 17.249C14.8094 16.4207 14.1379 15.749 13.3096 15.749H9.75977ZM9 12.8076C8.58586 12.8076 8.25012 13.1435 8.25 13.5576C8.2502 13.9717 8.58591 14.3076 9 14.3076H14.0498C14.4639 14.3076 14.7996 13.9717 14.7998 13.5576C14.7997 13.1435 14.4639 12.8076 14.0498 12.8076H9ZM9 9.81543C8.58587 9.81543 8.25013 10.1513 8.25 10.5654C8.2502 10.9795 8.58591 11.3154 9 11.3154H11.5254C11.9393 11.3152 12.2752 10.9793 12.2754 10.5654C12.2753 10.1515 11.9393 9.81564 11.5254 9.81543H9ZM14.3555 8.11621H18.1162L14.3555 4.35547V8.11621Z" fill="black"/>
</svg>
