<svg width="24" height="24" viewBox="0 0 24 24" fill="none" xmlns="http://www.w3.org/2000/svg">
<path d="M14.2489 16.8781C14.2482 17.5396 14.0748 18.1894 13.746 18.7634C13.4171 19.3374 12.9442 19.8156 12.374 20.1509C12.2032 20.2359 12.0064 20.2526 11.8237 20.1977C11.6411 20.1428 11.4862 20.0203 11.3906 19.8552C11.295 19.6901 11.266 19.4948 11.3093 19.309C11.3527 19.1232 11.4652 18.961 11.624 18.8552C11.9678 18.6523 12.2528 18.3632 12.4507 18.0164C12.6487 17.6697 12.7528 17.2773 12.7528 16.8781C12.7528 16.4788 12.6487 16.0864 12.4507 15.7397C12.2528 15.393 11.9678 15.1038 11.624 14.9009C11.4652 14.7951 11.3527 14.6329 11.3093 14.4471C11.266 14.2613 11.295 14.066 11.3906 13.9009C11.4862 13.7358 11.6411 13.6133 11.8237 13.5584C12.0064 13.5035 12.2032 13.5202 12.374 13.6053C12.9442 13.9405 13.4171 14.4187 13.746 14.9927C14.0748 15.5667 14.2482 16.2166 14.2489 16.8781ZM9.28586 12.0603C9.14883 12.0034 8.99802 11.9885 8.85251 12.0174C8.70699 12.0462 8.57331 12.1176 8.46836 12.2225L6.43869 14.2531H4.49902C4.30011 14.2531 4.10934 14.3321 3.96869 14.4727C3.82804 14.6134 3.74902 14.8042 3.74902 15.0031V18.753C3.74902 18.952 3.82804 19.1427 3.96869 19.2834C4.10934 19.424 4.30011 19.503 4.49902 19.503H6.43869L8.46836 21.5337C8.57325 21.6387 8.70694 21.7102 8.8525 21.7392C8.99807 21.7682 9.14896 21.7533 9.28607 21.6965C9.42319 21.6397 9.54037 21.5435 9.62277 21.42C9.70517 21.2966 9.74909 21.1515 9.74898 21.003V12.7531C9.74895 12.6048 9.70493 12.4598 9.6225 12.3364C9.54006 12.2131 9.42291 12.117 9.28586 12.0603ZM20.2489 8.25313V20.253C20.2489 20.6509 20.0909 21.0324 19.8096 21.3137C19.5283 21.595 19.1467 21.753 18.7489 21.753H15.7489C15.55 21.753 15.3593 21.674 15.2186 21.5334C15.078 21.3927 14.9989 21.2019 14.9989 21.003C14.9989 20.8041 15.078 20.6134 15.2186 20.4727C15.3593 20.3321 15.55 20.253 15.7489 20.253H18.7489V9.00312H14.2489C14.05 9.00312 13.8593 8.92411 13.7186 8.78345C13.578 8.6428 13.4989 8.45204 13.4989 8.25313V3.75316H5.24901V11.2531C5.24901 11.452 5.16999 11.6428 5.02934 11.7834C4.88869 11.9241 4.69793 12.0031 4.49902 12.0031C4.30011 12.0031 4.10934 11.9241 3.96869 11.7834C3.82804 11.6428 3.74902 11.452 3.74902 11.2531V3.75316C3.74902 3.35534 3.90706 2.97381 4.18836 2.69251C4.46966 2.41121 4.85119 2.25317 5.24901 2.25317H14.2489C14.3475 2.2531 14.445 2.27243 14.5361 2.31007C14.6271 2.34771 14.7099 2.40292 14.7796 2.47255L20.0295 7.72251C20.0991 7.79221 20.1544 7.87495 20.192 7.96599C20.2296 8.05704 20.249 8.15461 20.2489 8.25313ZM14.9989 7.50313H17.6886L14.9989 4.81347V7.50313Z" fill="black"/>
</svg>
