<svg width="24" height="24" viewBox="0 0 24 24" fill="none" xmlns="http://www.w3.org/2000/svg">
<path d="M14.2207 12.2354V14.9424H9.78027V12.2354H14.2207Z" fill="black"/>
<path fill-rule="evenodd" clip-rule="evenodd" d="M14.25 2.25C14.4489 2.25 14.6396 2.32907 14.7803 2.46973L20.0303 7.71973C20.1709 7.86038 20.25 8.05109 20.25 8.25V20.25C20.25 20.6478 20.0919 21.0292 19.8105 21.3105C19.5292 21.5919 19.1478 21.75 18.75 21.75H5.25C4.85218 21.75 4.47076 21.5919 4.18945 21.3105C3.90815 21.0292 3.75 20.6478 3.75 20.25V3.75C3.75 3.35217 3.90815 2.97076 4.18945 2.68945C4.47076 2.40815 4.85217 2.25 5.25 2.25H14.25ZM12 9.99316C11.5884 9.99331 11.254 10.3247 11.25 10.7354H9.27734C8.72677 10.7356 8.28049 11.1818 8.28027 11.7324V15.4453C8.28047 15.9959 8.72676 16.4422 9.27734 16.4424H9.4502L9.43457 16.4619C9.17604 16.7853 9.22853 17.2569 9.55176 17.5156C9.87516 17.7741 10.3468 17.7217 10.6055 17.3984L11.3711 16.4424H12.6289L13.3945 17.3984C13.6533 17.7216 14.1259 17.7743 14.4492 17.5156C14.7721 17.257 14.8245 16.7852 14.5664 16.4619L14.5508 16.4424H14.7227C15.2733 16.4423 15.7205 15.996 15.7207 15.4453V11.7324C15.7205 11.1818 15.2733 10.7355 14.7227 10.7354H12.75C12.746 10.3247 12.4116 9.9933 12 9.99316ZM14.3564 8.11621H18.1172L14.3564 4.35547V8.11621Z" fill="black"/>
</svg>
