<svg width="24" height="24" viewBox="0 0 24 24" fill="none" xmlns="http://www.w3.org/2000/svg">
<path d="M20.0295 7.72202L14.7796 2.47206C14.7099 2.40243 14.6271 2.34722 14.5361 2.30958C14.445 2.27194 14.3475 2.25261 14.2489 2.25269H5.24901C4.85119 2.25269 4.46966 2.41072 4.18836 2.69202C3.90706 2.97332 3.74902 3.35485 3.74902 3.75267V20.2525C3.74902 20.6504 3.90706 21.0319 4.18836 21.3132C4.46966 21.5945 4.85119 21.7525 5.24901 21.7525H18.7489C19.1467 21.7525 19.5283 21.5945 19.8096 21.3132C20.0909 21.0319 20.2489 20.6504 20.2489 20.2525V8.25264C20.249 8.15412 20.2296 8.05655 20.192 7.96551C20.1544 7.87446 20.0991 7.79172 20.0295 7.72202ZM14.7796 15.972C14.8492 16.0416 14.9045 16.1244 14.9422 16.2154C14.9799 16.3065 14.9994 16.404 14.9994 16.5026C14.9994 16.6011 14.9799 16.6987 14.9422 16.7897C14.9045 16.8808 14.8492 16.9635 14.7796 17.0332C14.7099 17.1029 14.6272 17.1582 14.5361 17.1959C14.4451 17.2336 14.3475 17.253 14.2489 17.253C14.1504 17.253 14.0528 17.2336 13.9618 17.1959C13.8707 17.1582 13.788 17.1029 13.7183 17.0332L11.999 15.3129L10.2796 17.0332C10.2099 17.1029 10.1272 17.1582 10.0361 17.1959C9.9451 17.2336 9.84752 17.253 9.74898 17.253C9.65043 17.253 9.55285 17.2336 9.46181 17.1959C9.37076 17.1582 9.28804 17.1029 9.21836 17.0332C9.14867 16.9635 9.0934 16.8808 9.05569 16.7897C9.01798 16.6987 8.99857 16.6011 8.99857 16.5026C8.99857 16.404 9.01798 16.3065 9.05569 16.2154C9.0934 16.1244 9.14867 16.0416 9.21836 15.972L10.9387 14.2526L9.21836 12.5332C9.07763 12.3925 8.99857 12.2016 8.99857 12.0026C8.99857 11.8036 9.07763 11.6127 9.21836 11.472C9.35909 11.3313 9.54996 11.2522 9.74898 11.2522C9.948 11.2522 10.1389 11.3313 10.2796 11.472L11.999 13.1923L13.7183 11.472C13.788 11.4023 13.8707 11.347 13.9618 11.3093C14.0528 11.2716 14.1504 11.2522 14.2489 11.2522C14.3475 11.2522 14.4451 11.2716 14.5361 11.3093C14.6272 11.347 14.7099 11.4023 14.7796 11.472C14.8492 11.5417 14.9045 11.6244 14.9422 11.7154C14.9799 11.8065 14.9994 11.9041 14.9994 12.0026C14.9994 12.1012 14.9799 12.1987 14.9422 12.2898C14.9045 12.3808 14.8492 12.4636 14.7796 12.5332L13.0593 14.2526L14.7796 15.972ZM14.2489 8.25264V4.12767L18.3739 8.25264H14.2489Z" fill="black"/>
</svg>
