<svg width="24" height="24" viewBox="0 0 24 24" fill="none" xmlns="http://www.w3.org/2000/svg">
<path fill-rule="evenodd" clip-rule="evenodd" d="M14.2529 2.25C14.4517 2.2501 14.6426 2.32916 14.7832 2.46973L20.0332 7.71973C20.1737 7.86036 20.2529 8.05117 20.2529 8.25V20.25C20.2529 20.6477 20.0947 21.0293 19.8135 21.3105C19.5323 21.5918 19.1506 21.7499 18.7529 21.75H15.7529C15.3387 21.75 15.0029 21.4142 15.0029 21C15.0029 20.5858 15.3387 20.25 15.7529 20.25H18.7529V9H14.2529C13.8387 9 13.5029 8.66421 13.5029 8.25V3.75H5.25293V11.25C5.25293 11.6641 4.91697 11.9998 4.50293 12C4.08872 12 3.75293 11.6642 3.75293 11.25V3.75C3.75293 3.35217 3.91108 2.97076 4.19238 2.68945C4.47367 2.40826 4.85519 2.25 5.25293 2.25H14.2529ZM15.0029 7.5H17.6924L15.0029 4.81055V7.5Z" fill="black"/>
<path d="M9.13184 12.6963C9.65251 12.5286 10.2096 12.5097 10.7402 12.6426C10.7948 12.6563 10.845 12.6838 10.8857 12.7227C10.9265 12.7617 10.9565 12.8112 10.9727 12.8652C10.9887 12.9192 10.9903 12.9764 10.9775 13.0312C10.9648 13.0861 10.9386 13.1373 10.9004 13.1787L9.37793 14.8291L9.60742 15.8994L10.6777 16.1289L12.3291 14.6055C12.3705 14.5672 12.4216 14.5401 12.4766 14.5273C12.5314 14.5147 12.5887 14.5162 12.6426 14.5322C12.6965 14.5483 12.7452 14.5785 12.7842 14.6191C12.8231 14.6599 12.8515 14.71 12.8652 14.7646C12.9235 14.9983 12.9522 15.2386 12.9521 15.4795C12.9526 15.9658 12.8317 16.4442 12.6006 16.8721C12.3694 17.3 12.036 17.6645 11.6289 17.9307C11.2218 18.1968 10.7543 18.3573 10.2695 18.3975C9.78485 18.4376 9.29787 18.3556 8.85254 18.1602L6.7373 20.6064C6.73246 20.6121 6.72692 20.6188 6.72168 20.624C6.47795 20.8676 6.14732 21.0039 5.80273 21.0039C5.45817 21.0039 5.12754 20.8675 4.88379 20.624C4.63999 20.3802 4.50293 20.0489 4.50293 19.7041C4.50299 19.3594 4.64004 19.0289 4.88379 18.7852C4.88929 18.78 4.89452 18.7743 4.90039 18.7695L7.34668 16.6553C7.12752 16.154 7.0538 15.601 7.13281 15.0596C7.21184 14.5182 7.44063 14.0096 7.79395 13.5918C8.14726 13.174 8.61106 12.8641 9.13184 12.6963Z" fill="black"/>
</svg>
