<svg xmlns="http://www.w3.org/2000/svg" width="24" height="24" fill="currentColor" viewBox="0 0 24 24"><path d="M20.674 7.376l-5.67-5.67a0.816 0.816 0 0 0-0.574-0.236h-9.72a1.62 1.62 0 0 0-1.62 1.62v17.82a1.62 1.62 0 0 0 1.62 1.62h14.58a1.62 1.62 0 0 0 1.62-1.62v-12.96a0.816 0.816 0 0 0-0.236-0.574m-5.67 6.816a0.81 0.81 0 0 1-1.146 0l-1.047-1.047v4.525a0.81 0.81 0 0 1-1.62 0v-4.525l-1.046 1.047a0.81 0.81 0 0 1-1.146-1.146l2.43-2.43a0.81 0.81 0 0 1 1.146 0l2.43 2.43a0.81 0.81 0 0 1 0 1.146z m-0.574-6.243V3.493l4.456 4.456z"/></svg>