<svg viewBox="0 0 24 24" fill="none" xmlns="http://www.w3.org/2000/svg" width="24" height="24">
<path d="M14.43 1.679C14.482 1.679 14.532 1.688 14.579 1.7 14.602 1.706 14.624 1.713 14.646 1.721 14.658 1.726 14.67 1.731 14.682 1.737 14.705 1.747 14.728 1.76 14.749 1.773 14.757 1.778 14.764 1.782 14.772 1.787 14.794 1.803 14.815 1.82 14.835 1.839 14.843 1.846 14.852 1.853 14.859 1.861L20.524 7.526C20.564 7.566 20.596 7.611 20.623 7.659 20.652 7.713 20.676 7.77 20.688 7.832 20.696 7.87 20.7 7.91 20.7 7.95V20.911C20.7 21.284 20.551 21.643 20.287 21.907 20.023 22.171 19.664 22.321 19.29 22.321H4.71C4.336 22.321 3.977 22.171 3.713 21.907 3.449 21.643 3.3 21.284 3.3 20.911V3.09C3.3 2.717 3.448 2.357 3.713 2.093 3.977 1.829 4.336 1.679 4.71 1.679H14.43ZM14.101 11.007C13.557 10.788 12.959 10.741 12.388 10.875 11.817 11.009 11.301 11.317 10.913 11.756 10.524 12.195 10.28 12.745 10.215 13.328 10.151 13.911 10.269 14.5 10.553 15.013L7.669 17.5C7.469 17.7 7.357 17.97 7.357 18.253 7.357 18.536 7.469 18.808 7.669 19.008 7.869 19.208 8.141 19.32 8.423 19.32 8.706 19.319 8.977 19.208 9.177 19.008L11.664 16.124C12.177 16.407 12.766 16.526 13.349 16.461 13.932 16.397 14.481 16.153 14.92 15.764 15.359 15.375 15.667 14.86 15.802 14.289 15.936 13.718 15.889 13.119 15.669 12.575L13.746 14.35 12.578 14.099 12.327 12.93 14.101 11.007ZM15.03 7.35H18.652L15.03 3.729V7.35Z" fill="black"/>
</svg>