<svg xmlns="http://www.w3.org/2000/svg" width="24" height="24" fill="currentColor" viewBox="0 0 24 24"><path d="M3.496 11.19h17.01a0.408 0.408 0 0 0 0.404-0.406V7.95a0.816 0.816 0 0 0-0.236-0.574l-5.67-5.67a0.816 0.816 0 0 0-0.574-0.236h-9.72a1.62 1.62 0 0 0-1.62 1.62v7.696a0.408 0.408 0 0 0 0.406 0.404m10.935-7.694l4.456 4.455h-4.456z m0.406 16.658a0.828 0.828 0 0 1-0.835 0.756h-2.81a0.81 0.81 0 0 1-0.81-0.81v-5.642a0.828 0.828 0 0 1 0.756-0.836 0.81 0.81 0 0 1 0.864 0.81v4.86h2.026a0.81 0.81 0 0 1 0.81 0.862z m-6.226-5.252l-1.688 2.364 1.688 2.364a0.81 0.81 0 0 1-1.316 0.942l-1.368-1.913-1.366 1.913a0.81 0.81 0 1 1-1.316-0.942l1.687-2.364-1.688-2.364a0.81 0.81 0 0 1 0.232-1.161 0.828 0.828 0 0 1 1.102 0.241l1.35 1.89 1.366-1.912a0.81 0.81 0 0 1 1.316 0.942z m12.28 4.015a2.112 2.112 0 0 1-0.93 1.542c-0.526 0.35-1.182 0.451-1.771 0.451a6 6 0 0 1-1.539-0.203 0.81 0.81 0 0 1 0.437-1.56c0.444 0.122 1.513 0.275 1.979-0.036 0.09-0.061 0.186-0.154 0.217-0.398 0.035-0.27-0.073-0.415-1.294-0.768-0.947-0.274-2.531-0.732-2.329-2.341a2.088 2.088 0 0 1 0.906-1.514c1.199-0.81 3.11-0.335 3.324-0.279a0.81 0.81 0 0 1-0.411 1.567c-0.454-0.119-1.541-0.259-2.007 0.056a0.456 0.456 0 0 0-0.203 0.372c-0.011 0.091-0.013 0.109 0.114 0.192 0.234 0.151 0.653 0.271 1.059 0.389 1 0.286 2.672 0.774 2.448 2.527z"/></svg>