<svg xmlns="http://www.w3.org/2000/svg" fill="currentColor" viewBox="0 0 24 24" width="24" height="24"><path d="m19.228 8.147-4.725-4.725a.68.68 0 0 0-.478-.197h-8.1a1.35 1.35 0 0 0-1.35 1.35v14.85a1.35 1.35 0 0 0 1.35 1.35h12.15a1.35 1.35 0 0 0 1.35-1.35v-10.8a.68.68 0 0 0-.197-.478m-4.725 5.68a.675.675 0 0 1-.955 0l-.872-.873v3.771a.675.675 0 0 1-1.35 0v-3.771l-.872.873a.675.675 0 0 1-.955-.955l2.025-2.025a.675.675 0 0 1 .955 0l2.025 2.025a.675.675 0 0 1 0 .955zm-.478-5.203V4.911l3.713 3.713z"/></svg>