<svg width="24" height="24" viewBox="0 0 24 24" fill="none" xmlns="http://www.w3.org/2000/svg">
<path fill-rule="evenodd" clip-rule="evenodd" d="M9.87598 11.25C12.7755 11.25 15.126 13.6005 15.126 16.5C15.126 19.3995 12.7755 21.75 9.87598 21.75C6.97648 21.75 4.62598 19.3995 4.62598 16.5C4.62598 13.6005 6.97648 11.25 9.87598 11.25ZM9.87598 14.25C9.46176 14.25 9.12598 14.5858 9.12598 15V16.5C9.12604 16.9142 9.4618 17.25 9.87598 17.25H11.3711C11.7853 17.25 12.121 16.9142 12.1211 16.5C12.1211 16.0858 11.7853 15.75 11.3711 15.75H10.626V15C10.626 14.5858 10.2902 14.25 9.87598 14.25Z" fill="black"/>
<path fill-rule="evenodd" clip-rule="evenodd" d="M14.7959 2.26367C14.7988 2.26422 14.8018 2.26406 14.8047 2.26465C14.8191 2.26756 14.8326 2.27363 14.8467 2.27734C14.8797 2.2861 14.9129 2.29447 14.9443 2.30762C14.9738 2.31994 15.0009 2.3367 15.0283 2.35254C15.0428 2.3609 15.0583 2.36761 15.0723 2.37695C15.113 2.40425 15.151 2.43519 15.1855 2.46973L20.4355 7.71973C20.5713 7.85545 20.6553 8.04289 20.6553 8.25V20.25C20.6553 20.6478 20.4971 21.0292 20.2158 21.3105C19.9345 21.5919 19.5531 21.75 19.1553 21.75H15.876C15.4618 21.75 15.126 21.4142 15.126 21C15.126 20.5858 15.4618 20.25 15.876 20.25H19.1553V9H14.6553C14.2411 9 13.9053 8.66421 13.9053 8.25V3.75H5.65527V10.5C5.65527 10.9142 5.31949 11.25 4.90527 11.25C4.49106 11.25 4.15527 10.9142 4.15527 10.5V3.75C4.15527 3.35217 4.31342 2.97076 4.59473 2.68945C4.87603 2.40815 5.25745 2.25 5.65527 2.25H14.6553C14.7034 2.25 14.7503 2.25502 14.7959 2.26367ZM15.4053 7.5H18.0947L15.4053 4.81055V7.5Z" fill="black"/>
</svg>
