<svg viewBox="0 0 24 24" fill="none" xmlns="http://www.w3.org/2000/svg" width="24" height="24">
<path fill-rule="evenodd" clip-rule="evenodd" d="M14.43 1.679L14.548 1.691C14.615 1.705 14.68 1.73 14.739 1.765 14.681 1.73 14.616 1.705 14.548 1.691 14.51 1.683 14.471 1.679 14.43 1.679Z" fill="black"/>
<path fill-rule="evenodd" clip-rule="evenodd" d="M20.7 7.938C20.7 7.931 20.7 7.925 20.699 7.919L20.7 7.938Z" fill="black"/>
<path fill-rule="evenodd" clip-rule="evenodd" d="M20.7 7.938C20.7 7.936 20.7 7.924 20.699 7.919L20.7 7.938C20.7 7.94 20.7 7.933 20.7 7.938Z" fill="black"/>
<path fill-rule="evenodd" clip-rule="evenodd" d="M14.548 1.691L14.43 1.679H4.71C4.336 1.679 3.977 1.827 3.713 2.092 3.448 2.356 3.3 2.715 3.3 3.089V20.91C3.3 21.283 3.448 21.642 3.713 21.906 3.977 22.17 4.336 22.32 4.71 22.32H19.29C19.664 22.32 20.023 22.17 20.287 21.906 20.552 21.642 20.7 21.283 20.7 20.91L20.7 7.938 20.699 7.919C20.695 7.837 20.674 7.757 20.638 7.684 20.61 7.626 20.571 7.572 20.524 7.525L14.855 1.855C14.82 1.82 14.781 1.79 14.739 1.765 14.68 1.73 14.615 1.705 14.548 1.691ZM15.03 3.727V7.349H18.652L15.03 3.727ZM14.248 14.816C14.3 14.623 14.331 14.421 14.331 14.213 14.331 14.004 14.3 13.802 14.248 13.609L14.922 13.221C15.209 13.056 15.308 12.688 15.142 12.401 14.977 12.114 14.609 12.016 14.322 12.182L13.65 12.568C13.365 12.282 13.005 12.072 12.603 11.965V11.189C12.603 10.858 12.334 10.589 12.003 10.589 11.672 10.589 11.403 10.858 11.403 11.189V11.965C11 12.072 10.64 12.282 10.354 12.568L9.684 12.182C9.397 12.016 9.03 12.114 8.865 12.401 8.699 12.688 8.797 13.056 9.084 13.221L9.756 13.609C9.705 13.802 9.676 14.004 9.675 14.213 9.675 14.422 9.705 14.624 9.756 14.817L9.084 15.206C8.797 15.372 8.699 15.739 8.865 16.026 9.03 16.312 9.397 16.41 9.684 16.245L10.354 15.857C10.64 16.143 11 16.353 11.403 16.46V17.237C11.403 17.568 11.672 17.837 12.003 17.837 12.334 17.837 12.603 17.568 12.603 17.237V16.46C13.005 16.353 13.365 16.143 13.65 15.857L14.322 16.245C14.609 16.41 14.977 16.312 15.142 16.026 15.308 15.739 15.209 15.372 14.922 15.206L14.248 14.816Z" fill="black"/>
<path fill-rule="evenodd" clip-rule="evenodd" d="M12.003 13.085C12.626 13.085 13.131 13.59 13.131 14.213 13.131 14.836 12.626 15.341 12.003 15.341 11.38 15.341 10.875 14.835 10.875 14.213 10.876 13.59 11.38 13.085 12.003 13.085Z" fill="black"/>
</svg>