<svg width="24" height="24" viewBox="0 0 24 24" fill="none" xmlns="http://www.w3.org/2000/svg">
<path d="M14.25 3V8.25H19.5M4.5 11.25V3.75C4.5 3.55109 4.57902 3.36032 4.71967 3.21967C4.86032 3.07902 5.05109 3 5.25 3H14.25L19.5 8.25V20.25C19.5 20.4489 19.421 20.6397 19.2803 20.7803C19.1397 20.921 18.9489 21 18.75 21H15.75M10.7317 16.8451C10.7317 17.8012 9.95656 18.5763 9.00043 18.5763C8.0443 18.5763 7.26921 17.8012 7.26921 16.8451C7.26921 15.8889 8.0443 15.1138 9.00043 15.1138C9.95656 15.1138 10.7317 15.8889 10.7317 16.8451ZM9.08916 20.2257C9.03116 20.2257 8.97273 20.2257 8.91604 20.2257L7.52889 21C6.98889 20.8184 6.48802 20.5364 6.05259 20.169L6.0474 18.6109C6.01667 18.5624 5.98767 18.5135 5.96084 18.4633L4.58148 17.6778C4.47284 17.1282 4.47284 16.5627 4.58148 16.0132L5.95954 15.2298C5.98767 15.1801 6.01667 15.1307 6.0461 15.0822L6.05302 13.5241C6.48806 13.1557 6.9888 12.8727 7.52889 12.6901L8.91387 13.4644C8.97187 13.4644 9.0303 13.4644 9.08699 13.4644L10.472 12.6901C11.012 12.8718 11.5128 13.1537 11.9483 13.5211L11.9535 15.0792C11.9842 15.1277 12.0132 15.1766 12.04 15.2268L13.4185 16.0119C13.5272 16.5614 13.5272 17.1269 13.4185 17.6765L12.0405 18.4599C12.0123 18.5096 11.9833 18.559 11.9539 18.6074L11.947 20.1655C11.5122 20.5341 11.0118 20.8172 10.472 21L9.08916 20.2257ZM9.18257 14.2087C9.27729 14.1966 9.36921 14.1658 9.45308 14.1189L10.5302 13.5154C10.7652 13.6172 10.9896 13.7423 11.1992 13.8894L11.2031 15.0818C11.2036 15.2231 11.2446 15.3618 11.3203 15.4812C11.343 15.5172 11.3625 15.5502 11.3789 15.5808C11.4456 15.7054 11.5461 15.8087 11.6689 15.8787L12.7304 16.4832C12.755 16.7228 12.7559 16.9642 12.7314 17.2039L11.6699 17.8083C11.5814 17.8587 11.5044 17.9261 11.4433 18.0066L11.3876 18.0906C11.3636 18.133 11.3382 18.1762 11.3125 18.2185C11.2596 18.3057 11.225 18.4024 11.2109 18.5027L11.2041 18.6042L11.1982 19.7957C10.9888 19.9436 10.7653 20.07 10.5302 20.1726L9.45601 19.571C9.34405 19.5084 9.21713 19.4753 9.08882 19.4753H8.91597C8.81995 19.4753 8.72523 19.4945 8.63667 19.53L8.55073 19.571L7.46968 20.1736C7.23465 20.0717 7.01033 19.9468 6.80073 19.7996L6.7978 18.6082C6.79741 18.5023 6.77368 18.3983 6.73042 18.3025L6.68062 18.2097L6.62202 18.1101C6.57197 18.0165 6.50324 17.9344 6.41987 17.8699L6.33198 17.8113L5.26753 17.2048C5.2431 16.9652 5.24393 16.7237 5.26851 16.4841L6.33003 15.8816C6.44783 15.8146 6.54551 15.7173 6.61226 15.5994C6.63625 15.5569 6.66175 15.5138 6.68745 15.4714C6.75801 15.3551 6.79524 15.2217 6.79585 15.0857L6.80073 13.8933C7.01048 13.7452 7.23429 13.6179 7.46968 13.5154L8.5478 14.1189C8.65965 14.1814 8.78588 14.2146 8.91401 14.2146H9.08687L9.18257 14.2087ZM11.4814 16.8455C11.4812 18.2157 10.3702 19.3259 8.99995 19.3259C7.62992 19.3257 6.51966 18.2155 6.51948 16.8455C6.51948 15.4753 7.62981 14.3642 8.99995 14.364C10.3703 14.364 11.4814 15.4751 11.4814 16.8455Z" stroke="black" stroke-width="1.5" stroke-linecap="round" stroke-linejoin="round"/>
</svg>
