<svg width="24" height="24" viewBox="0 0 24 24" fill="none" xmlns="http://www.w3.org/2000/svg">
<path d="M20.0295 7.7208L14.7796 2.47084C14.7099 2.40121 14.6271 2.346 14.5361 2.30836C14.445 2.27072 14.3475 2.25139 14.2489 2.25147H5.24901C4.85119 2.25147 4.46966 2.4095 4.18836 2.6908C3.90706 2.9721 3.74902 3.35363 3.74902 3.75145V20.2513C3.74902 20.6491 3.90706 21.0307 4.18836 21.312C4.46966 21.5933 4.85119 21.7513 5.24901 21.7513H18.7489C19.1467 21.7513 19.5283 21.5933 19.8096 21.312C20.0909 21.0307 20.2489 20.6491 20.2489 20.2513V8.25142C20.249 8.1529 20.2296 8.05533 20.192 7.96428C20.1544 7.87324 20.0991 7.7905 20.0295 7.7208ZM14.7796 14.032C14.7099 14.1017 14.6272 14.1571 14.5361 14.1948C14.4451 14.2325 14.3475 14.252 14.2489 14.252C14.1504 14.252 14.0528 14.2325 13.9617 14.1948C13.8707 14.1571 13.788 14.1017 13.7183 14.032L12.749 13.0617V17.2514C12.749 17.4503 12.6699 17.641 12.5293 17.7817C12.3886 17.9223 12.1979 18.0013 11.999 18.0013C11.8 18.0013 11.6093 17.9223 11.4686 17.7817C11.328 17.641 11.249 17.4503 11.249 17.2514V13.0617L10.2796 14.032C10.2099 14.1017 10.1272 14.157 10.0361 14.1947C9.9451 14.2324 9.84752 14.2518 9.74898 14.2518C9.65043 14.2518 9.55285 14.2324 9.46181 14.1947C9.37076 14.157 9.28804 14.1017 9.21836 14.032C9.14867 13.9623 9.0934 13.8796 9.05569 13.7885C9.01798 13.6975 8.99857 13.5999 8.99857 13.5014C8.99857 13.4028 9.01798 13.3053 9.05569 13.2142C9.0934 13.1232 9.14867 13.0404 9.21836 12.9708L11.4683 10.7208C11.538 10.651 11.6207 10.5957 11.7118 10.558C11.8028 10.5202 11.9004 10.5008 11.999 10.5008C12.0975 10.5008 12.1951 10.5202 12.2862 10.558C12.3772 10.5957 12.4599 10.651 12.5296 10.7208L14.7796 12.9708C14.8493 13.0404 14.9046 13.1231 14.9424 13.2142C14.9801 13.3052 14.9995 13.4028 14.9995 13.5014C14.9995 13.5999 14.9801 13.6975 14.9424 13.7886C14.9046 13.8796 14.8493 13.9623 14.7796 14.032ZM14.2489 8.25142V4.12645L18.3739 8.25142H14.2489Z" fill="black"/>
</svg>
