<svg viewBox="0 0 24 24" fill="none" xmlns="http://www.w3.org/2000/svg" width="24" height="24">
<path fill-rule="evenodd" clip-rule="evenodd" d="M14.285 1.698C14.332 1.687 14.381 1.679 14.43 1.679 14.648 1.68 14.836 1.797 14.941 1.97 15.003 2.015 15.063 2.065 15.118 2.12L20.261 7.262C20.315 7.317 20.363 7.376 20.408 7.438 20.582 7.543 20.7 7.732 20.7 7.95 20.7 7.999 20.691 8.046 20.68 8.092 20.692 8.168 20.7 8.246 20.7 8.324V20.911C20.7 21.284 20.551 21.643 20.287 21.907 20.023 22.171 19.664 22.321 19.29 22.321H4.71C4.336 22.321 3.977 22.171 3.713 21.907 3.449 21.643 3.3 21.284 3.3 20.911V3.09C3.3 2.717 3.448 2.357 3.713 2.093 3.977 1.829 4.336 1.679 4.71 1.679H14.057C14.134 1.679 14.21 1.686 14.285 1.698ZM8.76 18.015C8.313 18.015 7.95 18.378 7.95 18.825 7.95 19.272 8.313 19.635 8.76 19.635H15.24C15.687 19.635 16.05 19.272 16.05 18.825 16.05 18.378 15.687 18.015 15.24 18.015H8.76ZM8.76 15.611C8.313 15.611 7.95 15.973 7.95 16.42 7.95 16.867 8.313 17.23 8.76 17.23H15.24C15.687 17.23 16.05 16.867 16.05 16.42 16.05 15.973 15.687 15.611 15.24 15.611H8.76ZM12 8.484C11.482 8.485 10.972 8.621 10.523 8.879 10.074 9.138 9.702 9.51 9.442 9.959 9.182 10.407 9.044 10.916 9.042 11.434 9.041 11.952 9.175 12.462 9.432 12.912 9.69 13.361 10.061 13.736 10.508 13.997 10.956 14.258 11.466 14.398 11.984 14.401 12.502 14.404 13.012 14.27 13.463 14.014 13.913 13.758 14.289 13.388 14.551 12.941 14.587 12.879 14.597 12.805 14.579 12.736 14.561 12.667 14.516 12.607 14.454 12.571L12.27 11.298V8.754C12.269 8.682 12.242 8.613 12.191 8.563 12.14 8.512 12.071 8.484 12 8.484ZM12.987 8.653C12.904 8.624 12.812 8.637 12.741 8.687 12.669 8.738 12.627 8.82 12.627 8.907V10.924C12.627 11.02 12.678 11.109 12.762 11.157L14.508 12.165C14.584 12.209 14.678 12.214 14.757 12.177 14.836 12.14 14.893 12.067 14.909 11.981 15.037 11.289 14.914 10.572 14.562 9.962 14.209 9.353 13.65 8.888 12.987 8.653ZM15.03 7.05C15.031 7.215 15.165 7.35 15.33 7.35H18.652L15.03 3.729V7.05Z" fill="black"/>
</svg>