<svg width="24" height="24" viewBox="0 0 24 24" fill="none" xmlns="http://www.w3.org/2000/svg">
<path fill-rule="evenodd" clip-rule="evenodd" d="M13.7681 4.16211L13.8662 4.17193C13.9252 4.18374 13.9817 4.2061 14.0329 4.2379C13.9826 4.20646 13.9263 4.1839 13.8662 4.17193C13.8344 4.16561 13.8017 4.16211 13.7681 4.16211Z" fill="black"/>
<path fill-rule="evenodd" clip-rule="evenodd" d="M4.99313 11.9122H4.96188C4.96876 11.9126 4.97568 11.9124 4.98263 11.9123L4.99313 11.9122Z" fill="black"/>
<path fill-rule="evenodd" clip-rule="evenodd" d="M4.49317 11.4184C4.49637 11.6812 4.70234 11.8962 4.96188 11.9122C4.7003 11.896 4.49317 11.684 4.49317 11.4184Z" fill="black"/>
<path fill-rule="evenodd" clip-rule="evenodd" d="M13.7681 4.16211L5.66794 4.16216C5.35638 4.16222 5.05719 4.2856 4.83688 4.50591C4.61657 4.72622 4.49318 5.02541 4.49313 5.33697L4.49317 11.4184C4.49637 11.6812 4.70234 11.8962 4.96188 11.9122H4.99313H18.4619C18.4688 11.9126 18.4757 11.9124 18.4826 11.9123L18.4931 11.9122C18.7693 11.9122 18.9931 11.6883 18.9931 11.4122L18.9927 9.38672C18.9927 9.37758 18.9924 9.36849 18.9919 9.35947C18.9899 9.3212 18.9835 9.28407 18.9733 9.24856C18.9502 9.16791 18.907 9.0936 18.8466 9.03326L14.122 4.30865C14.0952 4.28179 14.0652 4.25813 14.0329 4.2379C13.9817 4.2061 13.9252 4.18374 13.8662 4.17193L13.7681 4.16211ZM14.2681 5.86876L17.286 8.88672H14.2681V5.86876Z" fill="black"/>
<path d="M15.2459 19.8379C15.0699 19.8379 14.9339 19.7926 14.8379 19.7019C14.7472 19.6059 14.7019 19.4699 14.7019 19.2939V14.7419C14.7019 14.5659 14.7472 14.4326 14.8379 14.3419C14.9339 14.2459 15.0699 14.1979 15.2459 14.1979H16.7979C17.7419 14.1979 18.4699 14.4406 18.9819 14.9259C19.4992 15.4112 19.7579 16.1072 19.7579 17.0139C19.7579 17.4672 19.6912 17.8699 19.5579 18.2219C19.4299 18.5686 19.2379 18.8619 18.9819 19.1019C18.7312 19.3419 18.4219 19.5259 18.0539 19.6539C17.6912 19.7766 17.2726 19.8379 16.7979 19.8379H15.2459ZM15.7259 18.9899H16.7339C17.0646 18.9899 17.3499 18.9499 17.5899 18.8699C17.8352 18.7846 18.0379 18.6619 18.1979 18.5019C18.3632 18.3366 18.4859 18.1312 18.5659 17.8859C18.6459 17.6352 18.6859 17.3446 18.6859 17.0139C18.6859 16.3526 18.5232 15.8592 18.1979 15.5339C17.8726 15.2086 17.3846 15.0459 16.7339 15.0459H15.7259V18.9899Z" fill="black"/>
<path d="M11.599 19.9179C11.3644 19.9179 11.1297 19.8992 10.895 19.8619C10.6604 19.8299 10.439 19.7792 10.231 19.7099C10.023 19.6352 9.83636 19.5446 9.67103 19.4379C9.57503 19.3739 9.50836 19.2966 9.47103 19.2059C9.4337 19.1152 9.42036 19.0272 9.43103 18.9419C9.44703 18.8512 9.4817 18.7739 9.53503 18.7099C9.5937 18.6406 9.6657 18.5979 9.75103 18.5819C9.83636 18.5659 9.9297 18.5899 10.031 18.6539C10.2657 18.7926 10.5137 18.8939 10.775 18.9579C11.0364 19.0219 11.311 19.0539 11.599 19.0539C12.0204 19.0539 12.327 18.9846 12.519 18.8459C12.711 18.7019 12.807 18.5179 12.807 18.2939C12.807 18.1072 12.7377 17.9606 12.599 17.8539C12.4657 17.7472 12.2337 17.6592 11.903 17.5899L11.023 17.4059C10.5164 17.2992 10.1377 17.1206 9.88703 16.8699C9.6417 16.6139 9.51903 16.2779 9.51903 15.8619C9.51903 15.6006 9.57236 15.3632 9.67903 15.1499C9.7857 14.9366 9.93503 14.7526 10.127 14.5979C10.3244 14.4432 10.5564 14.3259 10.823 14.2459C11.095 14.1606 11.3937 14.1179 11.719 14.1179C12.039 14.1179 12.343 14.1579 12.631 14.2379C12.919 14.3179 13.1777 14.4352 13.407 14.5899C13.4924 14.6486 13.5484 14.7206 13.575 14.8059C13.607 14.8912 13.615 14.9766 13.599 15.0619C13.583 15.1419 13.5457 15.2112 13.487 15.2699C13.4284 15.3286 13.3537 15.3632 13.263 15.3739C13.1777 15.3846 13.079 15.3579 12.967 15.2939C12.7697 15.1819 12.5697 15.1019 12.367 15.0539C12.1644 15.0059 11.9457 14.9819 11.711 14.9819C11.4657 14.9819 11.255 15.0166 11.079 15.0859C10.903 15.1552 10.767 15.2539 10.671 15.3819C10.5804 15.5046 10.535 15.6512 10.535 15.8219C10.535 16.0139 10.599 16.1686 10.727 16.2859C10.855 16.3979 11.0737 16.4859 11.383 16.5499L12.255 16.7339C12.783 16.8459 13.175 17.0219 13.431 17.2619C13.6924 17.5019 13.823 17.8219 13.823 18.2219C13.823 18.4779 13.7697 18.7099 13.663 18.9179C13.5617 19.1259 13.4124 19.3046 13.215 19.4539C13.023 19.6032 12.791 19.7179 12.519 19.7979C12.247 19.8779 11.9404 19.9179 11.599 19.9179Z" fill="black"/>
<path d="M4.94828 19.9019C4.78295 19.9019 4.65495 19.8566 4.56428 19.7659C4.47895 19.6699 4.43628 19.5392 4.43628 19.3739V14.7179C4.43628 14.5472 4.48161 14.4192 4.57228 14.3339C4.66295 14.2432 4.79095 14.1979 4.95628 14.1979H6.88428C7.50295 14.1979 7.98028 14.3526 8.31628 14.6619C8.65228 14.9712 8.82028 15.4032 8.82028 15.9579C8.82028 16.5126 8.65228 16.9472 8.31628 17.2619C7.98028 17.5712 7.50295 17.7259 6.88428 17.7259H5.46028V19.3739C5.46028 19.5392 5.41761 19.6699 5.33228 19.7659C5.24695 19.8566 5.11895 19.9019 4.94828 19.9019ZM5.46028 16.9179H6.72428C7.08695 16.9179 7.36161 16.8379 7.54828 16.6779C7.73495 16.5126 7.82828 16.2726 7.82828 15.9579C7.82828 15.6432 7.73495 15.4059 7.54828 15.2459C7.36161 15.0859 7.08695 15.0059 6.72428 15.0059H5.46028V16.9179Z" fill="black"/>
</svg>
