<svg xmlns="http://www.w3.org/2000/svg" width="24" height="24" fill="currentColor" viewBox="0 0 24 24"><path d="M20.674 7.376l-5.67-5.67a0.816 0.816 0 0 0-0.574-0.236h-9.72a1.62 1.62 0 0 0-1.62 1.62v17.82a1.62 1.62 0 0 0 1.62 1.62h14.58a1.62 1.62 0 0 0 1.62-1.62v-12.96a0.816 0.816 0 0 0-0.236-0.574m-10.53 8.91a0.81 0.81 0 0 1-1.146 1.146l-2.43-2.43a0.81 0.81 0 0 1 0-1.146l2.43-2.43a0.81 0.81 0 0 1 1.146 1.146l-1.858 1.857z m7.29-1.284l-2.43 2.43a0.81 0.81 0 0 1-1.146-1.146l1.857-1.856-1.857-1.856a0.81 0.81 0 0 1 1.146-1.146l2.43 2.43a0.81 0.81 0 0 1 0 1.146z m-3.004-7.053V3.493l4.456 4.456z"/></svg>