<svg viewBox="0 0 24 24" fill="none" xmlns="http://www.w3.org/2000/svg" width="24" height="24">
<path fill-rule="evenodd" clip-rule="evenodd" d="M14.285 1.698C14.332 1.687 14.381 1.679 14.43 1.679 14.648 1.68 14.836 1.797 14.941 1.97 15.003 2.015 15.063 2.065 15.118 2.12L20.261 7.262C20.315 7.317 20.363 7.376 20.408 7.438 20.582 7.543 20.7 7.732 20.7 7.95 20.7 7.999 20.691 8.046 20.68 8.092 20.692 8.168 20.7 8.246 20.7 8.324V20.911C20.7 21.284 20.551 21.643 20.287 21.907 20.023 22.171 19.664 22.321 19.29 22.321H4.71C4.336 22.321 3.977 22.171 3.713 21.907 3.449 21.643 3.3 21.284 3.3 20.911V3.09C3.3 2.717 3.448 2.357 3.713 2.093 3.977 1.829 4.336 1.679 4.71 1.679H14.057C14.134 1.679 14.21 1.686 14.285 1.698ZM8.82 16.044C8.323 16.044 7.92 16.447 7.92 16.944V18.384C7.92 18.881 8.323 19.284 8.82 19.284H14.7C15.197 19.284 15.6 18.881 15.6 18.384V16.944C15.6 16.447 15.197 16.044 14.7 16.044H8.82ZM8.52 13.122C8.072 13.122 7.71 13.484 7.71 13.931 7.71 14.379 8.072 14.741 8.52 14.741H15C15.447 14.741 15.81 14.378 15.81 13.931 15.81 13.484 15.447 13.122 15 13.122H8.52ZM8.52 10.2C8.072 10.2 7.71 10.562 7.71 11.01 7.71 11.457 8.072 11.82 8.52 11.82H15C15.447 11.819 15.81 11.457 15.81 11.01 15.81 10.563 15.447 10.2 15 10.2H8.52ZM15.03 7.05C15.031 7.215 15.165 7.35 15.33 7.35H18.652L15.03 3.729V7.05Z" fill="black"/>
</svg>