<svg width="24" height="24" viewBox="0 0 24 24" fill="none" xmlns="http://www.w3.org/2000/svg">
<path fill-rule="evenodd" clip-rule="evenodd" d="M14.3357 3.50792C14.2748 3.45957 14.2023 3.42537 14.123 3.40967C14.0915 3.40341 14.0588 3.3999 14.0254 3.3999L14.123 3.40967C14.2004 3.42514 14.2734 3.45873 14.3357 3.50792Z" fill="black"/>
<path fill-rule="evenodd" clip-rule="evenodd" d="M14.3357 3.50792C14.2748 3.45957 14.2023 3.42537 14.123 3.40967L14.0254 3.3999H5.9248C5.61325 3.39995 5.31406 3.52334 5.09375 3.74365C4.87344 3.96396 4.75005 4.26315 4.75 4.57471V19.4253C4.7501 19.7366 4.87373 20.0351 5.09375 20.2554C5.31406 20.4757 5.61325 20.6 5.9248 20.6001H18.0752C18.3868 20.6 18.6859 20.4757 18.9062 20.2554C19.1263 20.0351 19.2499 19.7366 19.25 19.4253V8.62451C19.2499 8.54736 19.232 8.47193 19.1986 8.40388C19.1746 8.3551 19.1426 8.31011 19.1035 8.271L14.3789 3.54639C14.3652 3.53267 14.3508 3.51984 14.3357 3.50792ZM14.525 5.10654V8.12451H17.543L14.525 5.10654ZM9.6265 11.6465C9.82176 11.4512 10.1383 11.4512 10.3335 11.6465L12.0049 13.3179L13.6763 11.6465C13.8715 11.4513 14.1881 11.4513 14.3833 11.6465C14.5786 11.8417 14.5786 12.1583 14.3833 12.3535L12.712 14.0249L14.3833 15.6963C14.5786 15.8916 14.5786 16.2081 14.3833 16.4033C14.1881 16.5986 13.8716 16.5986 13.6763 16.4033L12.0049 14.7319L10.3335 16.4033C10.1383 16.5986 9.82176 16.5986 9.6265 16.4033C9.43134 16.208 9.43127 15.8915 9.6265 15.6963L11.2979 14.0249L9.6265 12.3535C9.43124 12.1583 9.43124 11.8417 9.6265 11.6465Z" fill="black"/>
</svg>
