<svg width="24" height="24" viewBox="0 0 24 24" fill="none" xmlns="http://www.w3.org/2000/svg">
<path fill-rule="evenodd" clip-rule="evenodd" d="M11.9834 14.7822C11.8778 14.0571 11.2553 13.5 10.501 13.5H4.50098C3.67255 13.5 3.00098 14.1716 3.00098 15V19.5C3.00098 20.3284 3.67255 21 4.50098 21H10.501C11.2557 21 11.8782 20.4424 11.9834 19.7168L13.8535 20.8857C14.0846 21.0302 14.3759 21.0382 14.6143 20.9062C14.8527 20.7741 15.001 20.5226 15.001 20.25V14.25C15.001 13.9774 14.8527 13.7259 14.6143 13.5938C14.3759 13.4618 14.0846 13.4698 13.8535 13.6143L11.9834 14.7822ZM13.501 15.6025L12.001 16.54V17.959L13.501 18.8965V15.6025Z" fill="black"/>
<path fill-rule="evenodd" clip-rule="evenodd" d="M3.75098 10.5V3.75C3.75098 3.35217 3.90913 2.97076 4.19043 2.68945C4.47173 2.40815 4.85315 2.25 5.25098 2.25H14.251C14.4499 2.25 14.6406 2.32907 14.7812 2.46973L20.0312 7.71973C20.1719 7.86038 20.251 8.05109 20.251 8.25V20.25C20.251 20.6478 20.0928 21.0292 19.8115 21.3105C19.5302 21.5918 19.1488 21.75 18.751 21.75H18.001C17.5868 21.75 17.251 21.4142 17.251 21C17.251 20.5858 17.5868 20.25 18.001 20.25H18.751V9H14.251C13.8368 9 13.501 8.66421 13.501 8.25V3.75H5.25098V10.5C5.25098 10.9142 4.91519 11.25 4.50098 11.25C4.08676 11.25 3.75098 10.9142 3.75098 10.5ZM15.001 7.5H17.6904L15.001 4.81055V7.5Z" fill="black"/>
</svg>
