<svg viewBox="0 0 24 24" fill="none" xmlns="http://www.w3.org/2000/svg" width="24" height="24">
<path fill-rule="evenodd" clip-rule="evenodd" d="M14.548 1.692L14.43 1.68C14.471 1.68 14.51 1.684 14.548 1.692Z" fill="black"/>
<path fill-rule="evenodd" clip-rule="evenodd" d="M11.669 10.752L11.689 10.752 11.708 10.752H15.698V16.08H7.681V10.752H11.669ZM9.552 14.76V13.608C9.552 13.277 9.821 13.008 10.152 13.008 10.484 13.008 10.752 13.277 10.752 13.608V14.76C10.752 15.092 10.484 15.36 10.152 15.36 9.821 15.36 9.552 15.092 9.552 14.76ZM11.089 14.761V12.84C11.089 12.509 11.357 12.24 11.689 12.24 12.02 12.24 12.289 12.509 12.289 12.84V14.761C12.288 15.092 12.02 15.361 11.689 15.361 11.358 15.361 11.089 15.092 11.089 14.761ZM12.625 14.76V12.072C12.625 11.741 12.894 11.472 13.225 11.472 13.557 11.472 13.825 11.741 13.825 12.072V14.76C13.825 15.092 13.556 15.36 13.225 15.36 12.894 15.36 12.625 15.092 12.625 14.76Z" fill="black"/>
<path fill-rule="evenodd" clip-rule="evenodd" d="M14.548 1.692L14.43 1.68H4.71C4.336 1.68 3.977 1.828 3.713 2.092 3.448 2.357 3.3 2.716 3.3 3.09V20.91C3.3 21.284 3.448 21.642 3.713 21.906 3.977 22.171 4.336 22.32 4.71 22.32H19.29C19.664 22.32 20.023 22.171 20.287 21.906 20.552 21.642 20.7 21.284 20.7 20.91V7.949C20.7 7.857 20.678 7.766 20.638 7.685 20.61 7.626 20.571 7.572 20.524 7.525L14.855 1.856C14.838 1.839 14.821 1.824 14.803 1.81 14.73 1.751 14.643 1.71 14.548 1.692ZM15.03 3.728V7.349H18.652L15.03 3.728ZM12.289 9V9.552H15.913C16.457 9.552 16.898 9.993 16.898 10.536V16.296C16.898 16.839 16.457 17.28 15.913 17.28H14.474L15.23 18.226C15.437 18.485 15.395 18.862 15.136 19.069 14.878 19.276 14.5 19.234 14.293 18.975L12.936 17.28H10.441L9.085 18.975C8.878 19.234 8.5 19.276 8.241 19.069 7.983 18.862 7.941 18.485 8.147 18.226L8.904 17.28H7.465C6.922 17.28 6.481 16.839 6.481 16.296V10.536C6.481 9.993 6.922 9.552 7.465 9.552H11.089V9C11.089 8.669 11.357 8.4 11.689 8.4 12.02 8.4 12.289 8.669 12.289 9Z" fill="black"/>
</svg>