<svg viewBox="0 0 24 24" fill="none" xmlns="http://www.w3.org/2000/svg" width="24" height="24">
<path fill-rule="evenodd" clip-rule="evenodd" d="M14.122 2.595L14.239 2.606C14.31 2.62 14.378 2.647 14.439 2.685 14.379 2.648 14.312 2.621 14.239 2.606 14.201 2.599 14.162 2.595 14.122 2.595Z" fill="black"/>
<path fill-rule="evenodd" clip-rule="evenodd" d="M3.592 11.895H3.554C3.563 11.895 3.571 11.895 3.579 11.895L3.592 11.895Z" fill="black"/>
<path fill-rule="evenodd" clip-rule="evenodd" d="M2.992 11.302C2.996 11.617 3.243 11.875 3.554 11.895 3.24 11.875 2.992 11.621 2.992 11.302Z" fill="black"/>
<path fill-rule="evenodd" clip-rule="evenodd" d="M14.122 2.595L4.402 2.595C4.028 2.595 3.669 2.743 3.404 3.007 3.14 3.271 2.992 3.63 2.992 4.004L2.992 11.302C2.996 11.617 3.243 11.875 3.554 11.895H3.592 19.754C19.763 11.895 19.771 11.895 19.779 11.895L19.792 11.895C20.123 11.895 20.392 11.626 20.392 11.295L20.391 8.864C20.391 8.853 20.391 8.842 20.39 8.831 20.388 8.785 20.38 8.741 20.368 8.698 20.34 8.601 20.288 8.512 20.216 8.44L14.546 2.77C14.514 2.738 14.478 2.71 14.439 2.685 14.378 2.647 14.31 2.62 14.239 2.606L14.122 2.595ZM14.722 4.643L18.343 8.264H14.722V4.643Z" fill="black"/>
<path d="M15.895 21.405C15.684 21.405 15.521 21.351 15.405 21.242 15.297 21.127 15.242 20.964 15.242 20.753V15.29C15.242 15.079 15.297 14.919 15.405 14.81 15.521 14.695 15.684 14.637 15.895 14.637H17.757C18.89 14.637 19.764 14.929 20.378 15.511 20.999 16.093 21.309 16.929 21.309 18.017 21.309 18.561 21.229 19.044 21.069 19.466 20.916 19.882 20.685 20.234 20.378 20.522 20.077 20.81 19.706 21.031 19.265 21.185 18.829 21.332 18.327 21.405 17.757 21.405H15.895ZM16.471 20.388H17.681C18.078 20.388 18.42 20.34 18.708 20.244 19.002 20.142 19.245 19.994 19.437 19.802 19.636 19.604 19.783 19.357 19.879 19.063 19.975 18.762 20.023 18.414 20.023 18.017 20.023 17.223 19.828 16.631 19.437 16.241 19.047 15.85 18.462 15.655 17.681 15.655H16.471V20.388Z" fill="black"/>
<path d="M11.519 21.501C11.237 21.501 10.956 21.479 10.674 21.434 10.392 21.396 10.127 21.335 9.877 21.252 9.628 21.162 9.404 21.054 9.205 20.925 9.09 20.849 9.01 20.756 8.965 20.647 8.92 20.538 8.904 20.433 8.917 20.33 8.936 20.221 8.978 20.129 9.042 20.052 9.112 19.969 9.199 19.917 9.301 19.898 9.404 19.879 9.516 19.908 9.637 19.985 9.919 20.151 10.216 20.273 10.53 20.349 10.844 20.426 11.173 20.465 11.519 20.465 12.024 20.465 12.392 20.382 12.623 20.215 12.853 20.042 12.968 19.821 12.968 19.553 12.968 19.329 12.885 19.153 12.719 19.025 12.559 18.897 12.28 18.791 11.884 18.708L10.828 18.487C10.22 18.359 9.765 18.145 9.464 17.844 9.17 17.537 9.023 17.133 9.023 16.634 9.023 16.321 9.087 16.036 9.215 15.78 9.343 15.524 9.522 15.303 9.752 15.117 9.989 14.932 10.268 14.791 10.588 14.695 10.914 14.593 11.272 14.541 11.663 14.541 12.047 14.541 12.412 14.589 12.757 14.685 13.103 14.781 13.413 14.922 13.688 15.108 13.791 15.178 13.858 15.265 13.89 15.367 13.928 15.469 13.938 15.572 13.919 15.674 13.9 15.77 13.855 15.853 13.784 15.924 13.714 15.994 13.624 16.036 13.516 16.049 13.413 16.062 13.295 16.029 13.16 15.953 12.924 15.818 12.684 15.722 12.44 15.665 12.197 15.607 11.935 15.578 11.653 15.578 11.359 15.578 11.106 15.62 10.895 15.703 10.684 15.786 10.52 15.905 10.405 16.058 10.296 16.206 10.242 16.381 10.242 16.586 10.242 16.817 10.319 17.002 10.472 17.143 10.626 17.277 10.888 17.383 11.26 17.46L12.306 17.681C12.94 17.815 13.41 18.026 13.717 18.314 14.031 18.602 14.188 18.986 14.188 19.466 14.188 19.773 14.124 20.052 13.996 20.301 13.874 20.551 13.695 20.766 13.458 20.945 13.228 21.124 12.949 21.261 12.623 21.357 12.296 21.453 11.928 21.501 11.519 21.501Z" fill="black"/>
<path d="M3.538 21.482C3.34 21.482 3.186 21.428 3.077 21.319 2.975 21.204 2.924 21.047 2.924 20.849V15.261C2.924 15.057 2.978 14.903 3.087 14.801 3.196 14.692 3.349 14.637 3.548 14.637H5.861C6.604 14.637 7.176 14.823 7.58 15.194 7.983 15.565 8.184 16.084 8.184 16.749 8.184 17.415 7.983 17.937 7.58 18.314 7.176 18.685 6.604 18.871 5.861 18.871H4.152V20.849C4.152 21.047 4.101 21.204 3.999 21.319 3.896 21.428 3.743 21.482 3.538 21.482ZM4.152 17.901H5.669C6.104 17.901 6.434 17.805 6.658 17.613 6.882 17.415 6.994 17.127 6.994 16.749 6.994 16.372 6.882 16.087 6.658 15.895 6.434 15.703 6.104 15.607 5.669 15.607H4.152V17.901Z" fill="black"/>
</svg>