<svg width="24" height="24" viewBox="0 0 24 24" fill="none" xmlns="http://www.w3.org/2000/svg">
<path fill-rule="evenodd" clip-rule="evenodd" d="M4.41602 12.002C4.00191 12.0018 3.66602 11.6661 3.66602 11.252V4.50195C3.66602 4.10419 3.82424 3.7227 4.10547 3.44141C4.38672 3.16016 4.76828 3.00202 5.16602 3.00195H14.166L14.2432 3.00586C14.265 3.00809 14.2864 3.01254 14.3076 3.0166C14.3105 3.01716 14.3135 3.01699 14.3164 3.01758C14.3321 3.02078 14.3469 3.02708 14.3623 3.03125C14.394 3.03988 14.4258 3.04786 14.4561 3.06055C14.5465 3.0985 14.628 3.15339 14.6963 3.22168L19.9463 8.47168C19.9932 8.51856 20.0309 8.57245 20.0635 8.62891C20.1271 8.73913 20.166 8.86551 20.166 9.00195V11.252C20.166 11.6662 19.8302 12.002 19.416 12.002H4.41602ZM14.916 5.5625V8.25195H17.6055L14.916 5.5625Z" fill="black"/>
<path fill-rule="evenodd" clip-rule="evenodd" d="M4.12695 20.998C3.71274 20.998 3.37695 20.6623 3.37695 20.248V14.998C3.37703 14.5839 3.71279 14.248 4.12695 14.248H5.62695C6.3231 14.2481 6.99114 14.5244 7.4834 15.0166C7.97565 15.5089 8.25192 16.1769 8.25195 16.873C8.25195 17.5692 7.97561 18.2372 7.4834 18.7295C6.99114 19.2218 6.32311 19.498 5.62695 19.498H4.87695V20.248C4.87695 20.6622 4.54112 20.998 4.12695 20.998ZM5.62695 17.998C5.92529 17.998 6.2119 17.8799 6.42285 17.6689C6.63376 17.458 6.75195 17.1714 6.75195 16.873C6.75192 16.5747 6.6338 16.2881 6.42285 16.0771C6.2119 15.8662 5.92528 15.7481 5.62695 15.748H4.87695V17.998H5.62695Z" fill="black"/>
<path d="M11.6406 20.9951C11.0115 20.995 10.4131 20.8044 9.95508 20.4609C9.497 20.1172 9.1427 19.5853 9.14258 18.9346C9.14265 18.5205 9.47859 18.1848 9.89258 18.1846C10.3067 18.1846 10.6425 18.5204 10.6426 18.9346C10.6427 19.0073 10.6809 19.1303 10.8545 19.2607C11.029 19.3916 11.3049 19.495 11.6406 19.4951C11.9765 19.4951 12.2522 19.3916 12.4268 19.2607C12.6007 19.1302 12.6386 19.0074 12.6387 18.9346C12.6386 18.8069 12.6056 18.7333 12.4473 18.6299C12.2386 18.4936 11.9249 18.3903 11.4805 18.2617C11.0939 18.1499 10.5645 18.0086 10.1504 17.7734C9.691 17.5124 9.24041 17.057 9.24023 16.3125C9.24032 15.0367 10.4144 14.2512 11.6406 14.251C12.5762 14.251 13.4443 14.6804 13.8398 15.4639C14.0265 15.8337 13.8776 16.2851 13.5078 16.4717C13.1382 16.6578 12.6875 16.5092 12.501 16.1396C12.4188 15.9771 12.1523 15.751 11.6406 15.751C10.9371 15.7511 10.7403 16.1409 10.7402 16.3125C10.7399 16.3323 10.7156 16.3687 10.8916 16.4688C11.1144 16.5953 11.4348 16.6865 11.8975 16.8203C12.3023 16.9374 12.8391 17.0942 13.2676 17.374C13.7465 17.687 14.1386 18.1884 14.1387 18.9346C14.1385 19.5852 13.7852 20.1172 13.3271 20.4609C12.869 20.8045 12.2699 20.9951 11.6406 20.9951Z" fill="black"/>
<path fill-rule="evenodd" clip-rule="evenodd" d="M15.9727 20.9834C15.5586 20.9834 15.2229 20.6474 15.2227 20.2334V15.0332C15.2227 14.619 15.5584 14.2832 15.9727 14.2832H17.2725C18.1608 14.2833 19.0134 14.6365 19.6416 15.2646C20.2694 15.8928 20.6229 16.7447 20.623 17.6328C20.623 18.5211 20.2697 19.3738 19.6416 20.002C19.0134 20.6301 18.1608 20.9833 17.2725 20.9834H15.9727ZM17.2725 19.4834C17.763 19.4833 18.2342 19.2883 18.5811 18.9414C18.9278 18.5945 19.123 18.1233 19.123 17.6328C19.1229 17.1425 18.9276 16.672 18.5811 16.3252C18.2342 15.9783 17.763 15.7833 17.2725 15.7832H16.7227V19.4834H17.2725Z" fill="black"/>
</svg>
