<?xml version="1.0" encoding="utf-8"?>
<svg width="512" height="512" viewBox="0 0 512 512" xmlns="http://www.w3.org/2000/svg">
    <path   d="M280.996 203.061C307.29 192.169 336.238 189.292 364.153 194.842C392.07 200.396 417.712 214.122 437.84 234.249C457.965 254.376 471.693 280.019 477.245 307.936C482.793 335.849 479.917 364.8 469.027 391.091C458.131 417.379 439.686 439.875 416.025 455.686C392.365 471.491 364.515 479.936 336.058 479.936C294.343 479.776 256.758 465.379 224.183 437.03L224.214 464C224.211 472.825 217.045 479.99 208.214 480C199.386 480 192.225 472.829 192.214 464L192.152 400.278L192.464 397.155C193.076 394.077 194.591 391.219 196.839 388.966C199.838 385.968 203.91 384.281 208.152 384.278H272.214C281.043 384.285 288.211 391.449 288.214 400.278C288.204 409.104 281.039 416.272 272.214 416.278H249.214C275.258 437.549 304.156 447.798 336.058 447.936C358.189 447.936 379.843 441.353 398.246 429.062C416.646 416.768 430.992 399.286 439.465 378.841C447.933 358.397 450.153 335.891 445.84 314.186C441.52 292.477 430.864 272.526 415.216 256.873C399.561 241.222 379.613 230.567 357.901 226.249C336.196 221.934 313.692 224.154 293.246 232.624C272.802 241.096 255.321 255.442 243.027 273.842C230.736 292.244 224.152 313.9 224.152 336.03C224.135 344.852 216.978 352.03 208.152 352.03C199.331 352.024 192.169 344.848 192.152 336.03C192.152 307.574 200.597 279.724 216.402 256.061C232.212 232.4 254.707 213.955 280.996 203.061ZM304.089 32.3423C330.593 32.3444 352.083 53.8393 352.089 80.3423V144.155C352.086 152.987 344.922 160.153 336.089 160.155C327.255 160.155 320.093 152.989 320.089 144.155V80.3423C320.083 71.5125 312.92 64.3445 304.089 64.3423H80.0894C71.2567 64.3423 64.0958 71.5112 64.0894 80.3423V368.342C64.0894 377.177 71.2529 384.342 80.0894 384.342H144.214C153.045 384.345 160.208 391.513 160.214 400.342C160.214 409.177 153.049 416.339 144.214 416.342H80.0894C53.5797 416.342 32.0894 394.851 32.0894 368.342V80.3423C32.0957 53.838 53.5836 32.3423 80.0894 32.3423H304.089ZM336.089 255.999C344.922 256.001 352.086 263.166 352.089 271.999V319.999H399.933C408.765 320.001 415.929 327.166 415.933 335.999C415.929 344.83 408.765 351.996 399.933 351.999H336.089C327.256 351.999 320.094 344.831 320.089 335.999V271.999C320.093 263.165 327.255 255.999 336.089 255.999ZM144.214 255.999C153.051 255.999 160.214 263.162 160.214 271.999C160.214 280.835 153.051 287.999 144.214 287.999H112.214C103.378 287.999 96.2145 280.835 96.2145 271.999C96.2145 263.162 103.378 255.999 112.214 255.999H144.214ZM176.214 191.999C185.051 191.999 192.214 199.162 192.214 207.999C192.214 216.835 185.051 223.999 176.214 223.999H112.214C103.378 223.999 96.2145 216.835 96.2145 207.999C96.2145 199.162 103.378 191.999 112.214 191.999H176.214ZM272.214 127.999C281.051 127.999 288.214 135.162 288.214 143.999C288.214 152.835 281.051 159.999 272.214 159.999H112.214C103.378 159.999 96.2145 152.835 96.2145 143.999C96.2145 135.162 103.378 127.999 112.214 127.999H272.214Z" />
</svg>
