<svg width="24" height="24" viewBox="0 0 24 24" fill="none" xmlns="http://www.w3.org/2000/svg">
<path fill-rule="evenodd" clip-rule="evenodd" d="M15.75 2.25C15.9489 2.25 16.1396 2.32907 16.2803 2.46973L20.0303 6.21973C20.1709 6.36038 20.25 6.55109 20.25 6.75V17.25C20.25 17.6478 20.0919 18.0292 19.8105 18.3105C19.5292 18.5919 19.1478 18.75 18.75 18.75H17.9229V20.7119C17.9228 21.0533 17.7872 21.3806 17.5459 21.6221C17.3043 21.8636 16.9764 21.9999 16.6348 22H5.03809C4.69646 21.9999 4.36853 21.8636 4.12695 21.6221C3.88568 21.3806 3.7501 21.0533 3.75 20.7119V6.53809C3.7501 6.1967 3.88568 5.86943 4.12695 5.62793C4.36853 5.38636 4.69646 5.25007 5.03809 5.25H6.75V3.75C6.75 3.35217 6.90815 2.97076 7.18945 2.68945C7.47076 2.40815 7.85217 2.25 8.25 2.25H15.75ZM13.2734 13.1074C12.9805 12.8147 12.5048 12.8146 12.2119 13.1074L10.8359 14.4824L9.45996 13.1074C9.16706 12.8147 8.69227 12.8146 8.39941 13.1074C8.10668 13.4003 8.10668 13.8751 8.39941 14.168L9.77441 15.5439L8.39941 16.9199C8.10668 17.2128 8.10668 17.6886 8.39941 17.9814C8.6922 18.274 9.16712 18.2739 9.45996 17.9814L10.8359 16.6045L12.2119 17.9814C12.5048 18.2743 12.9805 18.2742 13.2734 17.9814C13.5663 17.6886 13.5663 17.2128 13.2734 16.9199L11.8965 15.5439L13.2734 14.168C13.566 13.8751 13.566 13.4003 13.2734 13.1074ZM8.25 5.25H12.7695C12.9402 5.25011 13.1039 5.31784 13.2246 5.43848L17.7344 9.94824C17.8552 10.0691 17.9229 10.2334 17.9229 10.4043V17.25H18.75V7.06055L15.4395 3.75H8.25V5.25ZM12.8594 10.2891H16.0898L12.8594 7.05859V10.2891Z" fill="black"/>
</svg>
