<svg width="24" height="24" viewBox="0 0 24 24" fill="none" xmlns="http://www.w3.org/2000/svg">
<path d="M20.2489 3.75024H3.74901C3.35119 3.75024 2.96966 3.90828 2.68836 4.18958C2.40706 4.47088 2.24902 4.85241 2.24902 5.25023V18.7501C2.24902 19.148 2.40706 19.5295 2.68836 19.8108C2.96966 20.0921 3.35119 20.2501 3.74901 20.2501H20.2489C20.6467 20.2501 21.0282 20.0921 21.3095 19.8108C21.5908 19.5295 21.7489 19.148 21.7489 18.7501V5.25023C21.7489 4.85241 21.5908 4.47088 21.3095 4.18958C21.0282 3.90828 20.6467 3.75024 20.2489 3.75024ZM17.2489 5.25023H20.2489V6.75022H17.2489V5.25023ZM6.74899 18.7501H3.74901V17.2501H6.74899V18.7501ZM6.74899 6.75022H3.74901V5.25023H6.74899V6.75022ZM11.249 18.7501H8.24898V17.2501H11.249V18.7501ZM11.249 6.75022H8.24898V5.25023H11.249V6.75022ZM15.7489 18.7501H12.7489V17.2501H15.7489V18.7501ZM15.7489 6.75022H12.7489V5.25023H15.7489V6.75022ZM20.2489 18.7501H17.2489V17.2501H20.2489V18.7501Z" fill="black"/>
</svg>
