<svg width="24" height="24" viewBox="0 0 24 24" fill="none" xmlns="http://www.w3.org/2000/svg">
<path d="M19.2464 13.998C19.6604 13.9981 19.9962 14.334 19.9964 14.748V19.1875L21.5286 17.6553C21.8215 17.3625 22.2973 17.3624 22.5901 17.6553C22.8827 17.948 22.8824 18.4229 22.5901 18.7158L19.7776 21.5283C19.4848 21.8212 19.009 21.8211 18.7161 21.5283L15.9036 18.7158C15.6111 18.4229 15.6109 17.948 15.9036 17.6553C16.1965 17.3625 16.6723 17.3624 16.9651 17.6553L18.4964 19.1865V14.748C18.4965 14.3341 18.8325 13.9983 19.2464 13.998Z" fill="black"/>
<path d="M20.2483 3.75C20.5388 3.75006 20.8232 3.83465 21.0667 3.99316C21.3101 4.1517 21.5029 4.37791 21.6204 4.64355C21.7377 4.90896 21.7751 5.2028 21.7288 5.48926C21.6824 5.77599 21.554 6.04379 21.3587 6.25879L21.3509 6.26758L14.9983 13.0459V18.248L14.9876 18.4326C14.9651 18.6152 14.9088 18.7928 14.8216 18.9561C14.7051 19.1739 14.5358 19.36 14.3304 19.4971L11.3304 21.4961C11.1048 21.6466 10.8424 21.7338 10.5716 21.7471C10.3009 21.7603 10.0314 21.6998 9.79227 21.5723C9.55294 21.4445 9.35195 21.254 9.21219 21.0215C9.07247 20.789 8.99883 20.5222 8.99832 20.251V13.0449L2.64774 6.26758L2.63993 6.25879C2.44479 6.04401 2.31637 5.77666 2.26981 5.49023C2.22334 5.20388 2.26116 4.90997 2.37821 4.64453C2.4953 4.37921 2.68626 4.15287 2.92899 3.99414C3.17188 3.83537 3.45619 3.75076 3.74637 3.75H20.2483Z" fill="black"/>
</svg>
