<svg width="24" height="24" viewBox="0 0 24 24" fill="none" xmlns="http://www.w3.org/2000/svg">
<path d="M21.356 6.25873L21.3485 6.26717L14.9989 13.0471V18.2493C14.9993 18.4967 14.9384 18.7403 14.8218 18.9585C14.7052 19.1768 14.5364 19.3627 14.3305 19.4999L11.3305 21.5005C11.1044 21.6511 10.8417 21.7374 10.5704 21.7504C10.299 21.7633 10.0293 21.7023 9.78991 21.5739C9.55054 21.4455 9.35052 21.2545 9.21122 21.0214C9.07191 20.7882 8.99854 20.5215 8.99895 20.2499V13.0471L2.64931 6.26717L2.64181 6.25873C2.44657 6.04387 2.31788 5.77697 2.27135 5.49041C2.22481 5.20386 2.26244 4.90995 2.37965 4.64435C2.49687 4.37876 2.68864 4.15288 2.9317 3.99413C3.17477 3.83538 3.45867 3.75057 3.74899 3.75H20.2489C20.5394 3.75003 20.8237 3.83444 21.0672 3.99298C21.3107 4.15152 21.5029 4.37736 21.6204 4.64307C21.738 4.90877 21.7759 5.2029 21.7294 5.48972C21.683 5.77654 21.5542 6.04369 21.3589 6.25873H21.356Z" fill="black"/>
</svg>
