<svg viewBox="0 0 24 24" fill="none" xmlns="http://www.w3.org/2000/svg" width="24" height="24">
<path d="M17.305 2.815C17.551 2.815 17.792 2.888 17.998 3.022 18.204 3.156 18.366 3.347 18.465 3.571 18.565 3.796 18.597 4.045 18.558 4.287 18.519 4.53 18.41 4.756 18.245 4.938L12.013 11.588V16.719C12.013 16.927 11.962 17.133 11.864 17.317 11.766 17.502 11.623 17.66 11.449 17.776L8.532 19.719C8.342 19.846 8.12 19.919 7.89 19.931 7.661 19.942 7.433 19.891 7.231 19.783 7.028 19.675 6.859 19.513 6.741 19.317 6.623 19.12 6.56 18.895 6.559 18.666V11.587L0.335 4.944C0.17 4.762 0.056 4.531 0.016 4.288-0.023 4.046 0.009 3.797 0.108 3.572 0.207 3.348 0.37 3.157 0.575 3.023 0.781 2.889 1.02 2.816 1.266 2.815H17.305Z" fill="black"/>
<path d="M18.929 15.125C19.261 15.125 19.529 15.394 19.529 15.725V17.561H21.353C21.684 17.561 21.953 17.83 21.953 18.161 21.953 18.492 21.684 18.761 21.353 18.761H19.529V20.585C19.529 20.916 19.261 21.185 18.929 21.185 18.598 21.185 18.329 20.916 18.329 20.585V18.761H16.493C16.162 18.761 15.893 18.492 15.893 18.161 15.893 17.83 16.162 17.561 16.493 17.561H18.329V15.725C18.329 15.394 18.598 15.125 18.929 15.125Z" fill="black"/>
<path d="M22.177 15.125C21.845 15.125 21.577 15.393 21.577 15.725 21.577 16.056 21.845 16.325 22.177 16.325H22.777V19.985H22.177C21.845 19.985 21.577 20.253 21.577 20.585 21.577 20.916 21.845 21.185 22.177 21.185H23.377C23.708 21.185 23.977 20.916 23.977 20.585V15.725C23.977 15.393 23.708 15.125 23.377 15.125H22.177Z" fill="black"/>
<path d="M15.67 15.125C16.001 15.125 16.27 15.393 16.27 15.725 16.27 16.056 16.001 16.325 15.67 16.325H15.07V19.985H15.67C16.001 19.985 16.27 20.253 16.27 20.585 16.27 20.916 16.001 21.185 15.67 21.185H14.47C14.138 21.185 13.87 20.916 13.87 20.585V15.725C13.87 15.393 14.138 15.125 14.47 15.125H15.67Z" fill="black"/>
</svg>