<svg width="24" height="24" viewBox="0 0 24 24" fill="none" xmlns="http://www.w3.org/2000/svg">
<g clip-path="url(#clip0_2021_26240)">
<path d="M21.3485 6.26692L14.9989 13.0469V18.249C14.9993 18.4964 14.9384 18.7401 14.8218 18.9583C14.7052 19.1765 14.5364 19.3625 14.3305 19.4996L11.3305 21.5002C11.1044 21.6508 10.8417 21.7372 10.5704 21.7501C10.299 21.7631 10.0293 21.7021 9.78991 21.5737C9.55054 21.4453 9.35052 21.2543 9.21122 21.0211C9.07191 20.7879 8.99854 20.5213 8.99895 20.2496V13.0469L2.64931 6.26692L2.64181 6.25849C2.44657 6.04363 2.31788 5.77673 2.27135 5.49017C2.22481 5.20361 2.26244 4.90971 2.37965 4.64411C2.49687 4.37851 2.68864 4.15264 2.9317 3.99389C3.17477 3.83513 3.45867 3.75033 3.74899 3.74976H20.2489C20.5394 3.74978 20.8237 3.8342 21.0672 3.99274C21.3107 4.15128 21.5029 4.37712 21.6204 4.64283C21.738 4.90853 21.7759 5.20266 21.7294 5.48948C21.683 5.77629 21.5542 6.04345 21.3589 6.25849L21.3485 6.26692ZM21.3092 17.9996L23.0295 16.2803C23.1702 16.1396 23.2493 15.9487 23.2493 15.7497C23.2493 15.5506 23.1702 15.3598 23.0295 15.219C22.8887 15.0783 22.6979 14.9993 22.4988 14.9993C22.2998 14.9993 22.109 15.0783 21.9682 15.219L20.2489 16.9393L18.5295 15.219C18.3888 15.0783 18.1979 14.9993 17.9989 14.9993C17.7999 14.9993 17.609 15.0783 17.4683 15.219C17.3275 15.3598 17.2485 15.5506 17.2485 15.7497C17.2485 15.9487 17.3275 16.1396 17.4683 16.2803L19.1886 17.9996L17.4683 19.719C17.3275 19.8597 17.2485 20.0506 17.2485 20.2496C17.2485 20.4487 17.3275 20.6395 17.4683 20.7803C17.609 20.921 17.7999 21 17.9989 21C18.1979 21 18.3888 20.921 18.5295 20.7803L20.2489 19.06L21.9682 20.7803C22.109 20.921 22.2998 21 22.4988 21C22.6979 21 22.8887 20.921 23.0295 20.7803C23.1702 20.6395 23.2493 20.4487 23.2493 20.2496C23.2493 20.0506 23.1702 19.8597 23.0295 19.719L21.3092 17.9996Z" fill="black"/>
</g>
<defs>
<clipPath id="clip0_2021_26240">
<rect width="23.9998" height="23.9998" fill="white"/>
</clipPath>
</defs>
</svg>
