<svg width="24" height="24" viewBox="0 0 24 24" fill="none" xmlns="http://www.w3.org/2000/svg">
<path d="M16.4209 4.34619C16.6258 4.34621 16.8264 4.4063 16.9981 4.51807C17.1696 4.62981 17.3049 4.78885 17.3877 4.97607C17.4706 5.16336 17.4976 5.37059 17.4649 5.57275C17.4322 5.7748 17.3417 5.96321 17.2041 6.11475L12.0108 11.6567V15.9321C12.0109 16.1061 11.9687 16.2777 11.8868 16.4312C11.8047 16.5847 11.6858 16.7163 11.541 16.813L9.11038 18.4321C8.95128 18.5383 8.76628 18.5995 8.57523 18.6089C8.38427 18.6182 8.19409 18.5759 8.02542 18.4858C7.85675 18.3958 7.71572 18.2611 7.61722 18.0972C7.51888 17.9334 7.46629 17.7462 7.46585 17.5552V11.6558L2.27933 6.11963C2.14175 5.96823 2.04655 5.77564 2.01371 5.57373C1.98088 5.37177 2.00732 5.16427 2.08988 4.97705C2.17243 4.78985 2.30827 4.63101 2.47953 4.51904C2.65066 4.40721 2.85028 4.34677 3.05472 4.34619H16.4209Z" fill="black"/>
<path d="M17.7744 14.604C18.0505 14.604 18.2743 14.828 18.2744 15.104V16.6343H19.7939C20.0701 16.6343 20.2939 16.8581 20.2939 17.1343C20.2939 17.4104 20.0701 17.6343 19.7939 17.6343H18.2744V19.1538C18.2744 19.43 18.0506 19.6538 17.7744 19.6538C17.4983 19.6538 17.2744 19.43 17.2744 19.1538V17.6343H15.7441C15.4681 17.6341 15.2441 17.4103 15.2441 17.1343C15.2441 16.8582 15.4681 16.6344 15.7441 16.6343H17.2744V15.104C17.2745 14.828 17.4984 14.604 17.7744 14.604Z" fill="black"/>
<path d="M20.4805 14.604C20.2043 14.604 19.9805 14.8279 19.9805 15.104C19.9805 15.3801 20.2043 15.604 20.4805 15.604H20.9805V18.6538H20.4805C20.2044 18.6538 19.9806 18.8778 19.9805 19.1538C19.9805 19.43 20.2043 19.6538 20.4805 19.6538H21.4805C21.7566 19.6538 21.9805 19.43 21.9805 19.1538V15.104C21.9805 14.8279 21.7566 14.604 21.4805 14.604H20.4805Z" fill="black"/>
<path d="M15.0581 14.604C15.3342 14.604 15.5581 14.8279 15.5581 15.104C15.5581 15.3801 15.3342 15.604 15.0581 15.604H14.5581V18.6538H15.0581C15.3342 18.6538 15.558 18.8778 15.5581 19.1538C15.5581 19.43 15.3342 19.6538 15.0581 19.6538H14.0581C13.782 19.6538 13.5581 19.43 13.5581 19.1538V15.104C13.5581 14.8279 13.782 14.604 14.0581 14.604H15.0581Z" fill="black"/>
</svg>
