<svg width="24" height="24" viewBox="0 0 24 24" fill="none" xmlns="http://www.w3.org/2000/svg">
<path d="M11.2496 3.74938V18.7493C11.2496 19.1471 11.0915 19.5286 10.8102 19.8099C10.5289 20.0912 10.1474 20.2492 9.74958 20.2492H3.74963C3.50265 20.2494 3.25945 20.1885 3.04164 20.0721C2.82383 19.9557 2.63813 19.7873 2.50105 19.5818C2.36396 19.3764 2.27973 19.1403 2.25582 18.8944C2.23192 18.6486 2.26908 18.4007 2.36401 18.1727L8.36397 3.17938L8.36959 3.16626C8.50493 2.84854 8.74575 2.58726 9.0514 2.42652C9.35704 2.26578 9.70879 2.21542 10.0473 2.28396C10.3857 2.35249 10.6902 2.53571 10.9092 2.80268C11.1283 3.06966 11.2485 3.40404 11.2496 3.74938ZM21.4992 19.578C21.3624 19.7843 21.1768 19.9536 20.9587 20.0707C20.7407 20.1878 20.497 20.2492 20.2495 20.2492H14.2495C13.8517 20.2492 13.4702 20.0912 13.1889 19.8099C12.9076 19.5286 12.7496 19.1471 12.7496 18.7493V3.74938C12.7494 3.40317 12.869 3.06758 13.0881 2.79952C13.3072 2.53146 13.6123 2.34744 13.9516 2.27867C14.2909 2.2099 14.6436 2.26062 14.9497 2.42223C15.2559 2.58384 15.4967 2.84638 15.6314 3.16532L15.637 3.17844L21.637 18.1718C21.7313 18.3994 21.7681 18.6469 21.744 18.8921C21.72 19.1374 21.6359 19.373 21.4992 19.578ZM20.2495 18.7493L14.2495 3.74938V18.7493H20.2495Z" fill="black"/>
</svg>
