<svg xmlns="http://www.w3.org/2000/svg" width="24" height="24" fill="currentColor" viewBox="0 0 24 24"><path d="M8.76 20.1a0.81 0.81 0 0 1-0.81 0.81H3.028a1.56 1.56 0 0 1-1.558-1.558V18.48a0.81 0.81 0 0 1 1.62 0v0.81h4.86a0.81 0.81 0 0 1 0.81 0.81m6.48-0.81H12a0.81 0.81 0 0 0 0 1.62h3.24a0.81 0.81 0 0 0 0-1.62m6.48-5.67a0.81 0.81 0 0 0-0.81 0.81v4.86h-1.62a0.81 0.81 0 0 0 0 1.62H21a1.532 1.532 0 0 0 1.53-1.53v-4.95a0.81 0.81 0 0 0-0.81-0.81m-0.81-7.29h-4.86a0.81 0.81 0 0 0 0 1.62h4.86v2.43a0.81 0.81 0 0 0 1.62 0V7.95a1.62 1.62 0 0 0-1.62-1.62M2.28 7.95H12a0.81 0.81 0 0 0 0.574-1.384L9.57 3.564a1.608 1.608 0 0 0-1.145-0.475H3.09a1.62 1.62 0 0 0-1.62 1.62v2.43a0.81 0.81 0 0 0 0.81 0.81z m0 7.29a0.81 0.81 0 0 0 0.81-0.81v-3.24a0.81 0.81 0 0 0-1.62 0v3.24a0.81 0.81 0 0 0 0.81 0.81"/></svg>