<svg width="24" height="24" viewBox="0 0 24 24" fill="none" xmlns="http://www.w3.org/2000/svg">
<path d="M3.39463 7.94971V5.92432C3.39468 5.6111 3.51885 5.31084 3.74033 5.08936C3.96181 4.86787 4.26208 4.7437 4.57529 4.74365H9.02158L9.13779 4.74951C9.4078 4.77637 9.66187 4.89502 9.85557 5.08838L12.3585 7.59131C12.5561 7.78895 12.556 8.10941 12.3585 8.30713C12.1608 8.50483 11.8404 8.50483 11.6427 8.30713L9.13975 5.80518C9.10814 5.7737 9.06522 5.75539 9.02061 5.75537H4.57529C4.53061 5.75542 4.48775 5.77357 4.45615 5.80518C4.42455 5.83678 4.4064 5.87963 4.40635 5.92432V7.94971C4.40624 8.22921 4.18002 8.45557 3.90049 8.45557C3.62096 8.45557 3.39473 8.22921 3.39463 7.94971Z" fill="black"/>
<path d="M19.4258 7.44385C19.7388 7.44408 20.0394 7.56823 20.2607 7.78955C20.482 8.011 20.6064 8.31146 20.6064 8.62451V18.1499C20.6064 18.4431 20.4895 18.7247 20.2822 18.9321C20.0749 19.1393 19.7931 19.2562 19.5 19.2563H4.52148C4.22306 19.2555 3.93676 19.1361 3.72559 18.9253C3.51431 18.714 3.39437 18.4272 3.39355 18.1284V7.94971C3.39355 7.67011 3.6208 7.44385 3.90039 7.44385H19.4258ZM11.9775 10.2485C11.951 10.2494 11.9248 10.2523 11.8984 10.2563C11.8823 10.2588 11.8663 10.2606 11.8506 10.2642C11.8251 10.27 11.8002 10.2778 11.7754 10.2866C11.7611 10.2917 11.7462 10.2953 11.7324 10.3013C11.6968 10.3167 11.662 10.3351 11.6289 10.3569L11.626 10.3599C11.5891 10.3845 11.5537 10.4116 11.5225 10.4429L9.7002 12.2651C9.43687 12.5287 9.43679 12.9567 9.7002 13.2202C9.96374 13.4834 10.3918 13.4835 10.6553 13.2202L11.3252 12.5493V15.7808C11.3256 16.1532 11.6275 16.4556 12 16.4556C12.3725 16.4556 12.6744 16.1532 12.6748 15.7808V12.5493L13.3457 13.2202C13.6092 13.4832 14.0363 13.4833 14.2998 13.2202C14.5632 12.9567 14.5631 12.5287 14.2998 12.2651L12.4775 10.4429C12.4168 10.3822 12.3465 10.3369 12.2725 10.3042C12.2579 10.2978 12.2426 10.293 12.2275 10.2876C12.203 10.2788 12.1785 10.271 12.1533 10.2651C12.1383 10.2616 12.1229 10.2598 12.1074 10.2573C12.0801 10.2529 12.053 10.2495 12.0254 10.2485C12.0169 10.2482 12.0085 10.2456 12 10.2456C11.9925 10.2456 11.985 10.2483 11.9775 10.2485Z" fill="black"/>
</svg>
