<svg viewBox="0 0 24 24" fill="none" xmlns="http://www.w3.org/2000/svg" width="24" height="24">
<path d="M1.674 7.14V4.709C1.674 4.333 1.823 3.973 2.088 3.707 2.354 3.441 2.714 3.292 3.09 3.292H8.426L8.565 3.299C8.889 3.332 9.194 3.474 9.427 3.706L12.43 6.71C12.667 6.947 12.667 7.331 12.43 7.569 12.193 7.806 11.808 7.806 11.571 7.569L8.568 4.566C8.53 4.528 8.478 4.506 8.425 4.506H3.09C3.037 4.507 2.985 4.528 2.947 4.566 2.909 4.604 2.888 4.656 2.888 4.709V7.14C2.887 7.475 2.616 7.747 2.281 7.747 1.945 7.747 1.674 7.475 1.674 7.14Z" fill="black"/>
<path d="M20.911 6.533C21.287 6.533 21.647 6.682 21.913 6.947 22.178 7.213 22.328 7.574 22.328 7.949V19.38C22.328 19.732 22.187 20.07 21.939 20.319 21.69 20.567 21.352 20.707 21 20.708H3.026C2.668 20.707 2.324 20.563 2.071 20.31 1.817 20.057 1.673 19.713 1.672 19.354V7.14C1.672 6.804 1.945 6.533 2.28 6.533H20.911ZM11.973 9.898C11.941 9.899 11.91 9.903 11.878 9.908 11.859 9.911 11.84 9.913 11.821 9.917 11.79 9.924 11.76 9.933 11.73 9.944 11.713 9.95 11.695 9.954 11.679 9.962 11.636 9.98 11.594 10.002 11.555 10.028L11.551 10.032C11.507 10.061 11.464 10.094 11.427 10.131L9.24 12.318C8.924 12.634 8.924 13.148 9.24 13.464 9.556 13.78 10.07 13.78 10.386 13.464L11.19 12.659V16.537C11.191 16.984 11.553 17.347 12 17.347 12.447 17.347 12.809 16.984 12.81 16.537V12.659L13.615 13.464C13.931 13.78 14.444 13.78 14.76 13.464 15.076 13.148 15.076 12.634 14.76 12.318L12.573 10.131C12.5 10.059 12.416 10.004 12.327 9.965 12.309 9.957 12.291 9.952 12.273 9.945 12.244 9.935 12.214 9.925 12.184 9.918 12.166 9.914 12.147 9.912 12.129 9.909 12.096 9.903 12.064 9.899 12.03 9.898 12.02 9.898 12.01 9.895 12 9.895 11.991 9.895 11.982 9.898 11.973 9.898Z" fill="black"/>
</svg>