<svg width="24" height="24" viewBox="0 0 24 24" fill="none" xmlns="http://www.w3.org/2000/svg">
<path d="M8.99897 19.4982C8.99897 19.6971 8.91995 19.8879 8.7793 20.0285C8.63865 20.1692 8.44789 20.2482 8.24898 20.2482H3.69089C3.30863 20.2477 2.94218 20.0956 2.67188 19.8253C2.40159 19.555 2.24952 19.1886 2.24902 18.8063V17.9982C2.24902 17.7993 2.32804 17.6085 2.46869 17.4679C2.60934 17.3272 2.80011 17.2482 2.99902 17.2482C3.19793 17.2482 3.38869 17.3272 3.52934 17.4679C3.66999 17.6085 3.74901 17.7993 3.74901 17.9982V18.7482H8.24898C8.44789 18.7482 8.63865 18.8272 8.7793 18.9679C8.91995 19.1085 8.99897 19.2993 8.99897 19.4982ZM14.9989 18.7482H11.9989C11.8 18.7482 11.6093 18.8272 11.4686 18.9679C11.328 19.1085 11.249 19.2993 11.249 19.4982C11.249 19.6971 11.328 19.8879 11.4686 20.0285C11.6093 20.1692 11.8 20.2482 11.9989 20.2482H14.9989C15.1978 20.2482 15.3886 20.1692 15.5293 20.0285C15.6699 19.8879 15.7489 19.6971 15.7489 19.4982C15.7489 19.2993 15.6699 19.1085 15.5293 18.9679C15.3886 18.8272 15.1978 18.7482 14.9989 18.7482ZM20.9989 13.4982C20.8 13.4982 20.6092 13.5772 20.4686 13.7179C20.3279 13.8585 20.2489 14.0493 20.2489 14.2482V18.7482H18.7489C18.55 18.7482 18.3592 18.8272 18.2186 18.9679C18.0779 19.1085 17.9989 19.2993 17.9989 19.4982C17.9989 19.6971 18.0779 19.8879 18.2186 20.0285C18.3592 20.1692 18.55 20.2482 18.7489 20.2482H20.3323C20.7079 20.2477 21.0679 20.0983 21.3334 19.8327C21.599 19.5672 21.7484 19.2072 21.7489 18.8316V14.2482C21.7489 14.0493 21.6699 13.8585 21.5292 13.7179C21.3886 13.5772 21.1978 13.4982 20.9989 13.4982ZM20.2489 6.74828H15.7489C15.55 6.74828 15.3592 6.82729 15.2186 6.96794C15.0779 7.1086 14.9989 7.29936 14.9989 7.49827C14.9989 7.69718 15.0779 7.88794 15.2186 8.0286C15.3592 8.16925 15.55 8.24826 15.7489 8.24826H20.2489V10.4982C20.2489 10.6972 20.3279 10.8879 20.4686 11.0286C20.6092 11.1692 20.8 11.2482 20.9989 11.2482C21.1978 11.2482 21.3886 11.1692 21.5292 11.0286C21.6699 10.8879 21.7489 10.6972 21.7489 10.4982V8.24826C21.7489 7.85044 21.5908 7.46891 21.3095 7.18761C21.0282 6.90631 20.6467 6.74828 20.2489 6.74828ZM2.99902 8.24826H11.9989C12.1474 8.24838 12.2925 8.20446 12.4159 8.12206C12.5394 8.03965 12.6356 7.92248 12.6924 7.78536C12.7492 7.64824 12.7641 7.49735 12.7351 7.35179C12.7061 7.20623 12.6346 7.07254 12.5296 6.96765L9.74897 4.18798C9.61018 4.04809 9.44498 3.93718 9.26295 3.8617C9.08093 3.78622 8.88572 3.74767 8.68866 3.7483H3.74901C3.35119 3.7483 2.96966 3.90633 2.68836 4.18764C2.40706 4.46894 2.24902 4.85047 2.24902 5.24829V7.49827C2.24902 7.69718 2.32804 7.88794 2.46869 8.0286C2.60934 8.16925 2.80011 8.24826 2.99902 8.24826ZM2.99902 14.9982C3.19793 14.9982 3.38869 14.9192 3.52934 14.7785C3.66999 14.6379 3.74901 14.4471 3.74901 14.2482V11.2482C3.74901 11.0493 3.66999 10.8586 3.52934 10.7179C3.38869 10.5773 3.19793 10.4982 2.99902 10.4982C2.80011 10.4982 2.60934 10.5773 2.46869 10.7179C2.32804 10.8586 2.24902 11.0493 2.24902 11.2482V14.2482C2.24902 14.4471 2.32804 14.6379 2.46869 14.7785C2.60934 14.9192 2.80011 14.9982 2.99902 14.9982Z" fill="black"/>
</svg>
