<svg width="24" height="24" viewBox="0 0 24 24" fill="none" xmlns="http://www.w3.org/2000/svg">
<path fill-rule="evenodd" clip-rule="evenodd" d="M3.68945 20.25C3.30804 20.2489 2.94256 20.0969 2.67285 19.8271C2.40314 19.5574 2.25113 19.192 2.25 18.8105V5.25C2.25 4.85217 2.40815 4.47076 2.68945 4.18945C2.97076 3.90815 3.35217 3.75 3.75 3.75H8.69043L8.83789 3.75781C9.18072 3.79193 9.50308 3.94296 9.74902 4.18848L12.3105 6.75H20.25C20.6478 6.75 21.0292 6.90815 21.3105 7.18945C21.5919 7.47076 21.75 7.85218 21.75 8.25V18.833C21.75 19.2087 21.6006 19.5693 21.335 19.835C21.0693 20.1006 20.7087 20.25 20.333 20.25H3.68945ZM10.1895 6.75L8.68945 5.25H3.75V6.75H10.1895ZM12 16.9502C12.4139 16.95 12.7498 16.6141 12.75 16.2002V12.6104L13.4951 13.3555C13.7879 13.6481 14.2628 13.648 14.5557 13.3555C14.8478 13.0626 14.8482 12.5876 14.5557 12.2949L12.5312 10.2695C12.4969 10.2352 12.4597 10.205 12.4209 10.1787C12.4104 10.1716 12.3985 10.1667 12.3877 10.1602C12.3568 10.1414 12.3257 10.1233 12.293 10.1094C12.2864 10.1066 12.2791 10.1051 12.2725 10.1025C12.2351 10.088 12.197 10.0757 12.1582 10.0674C12.1214 10.0595 12.0835 10.054 12.0449 10.0518C12.0389 10.0514 12.0324 10.051 12.0264 10.0508C12.0179 10.0505 12.0086 10.0498 12 10.0498C11.9684 10.0498 11.9368 10.0519 11.9062 10.0557C11.9015 10.0563 11.8964 10.0578 11.8916 10.0586C11.8668 10.0622 11.8423 10.0682 11.8184 10.0742C11.7891 10.0815 11.7598 10.0907 11.7314 10.1016C11.7151 10.1079 11.6984 10.1147 11.6826 10.1221C11.6581 10.1336 11.6338 10.1468 11.6104 10.1611C11.5914 10.1727 11.5725 10.1851 11.5547 10.1982C11.5459 10.2048 11.5359 10.2108 11.5273 10.2178L11.4697 10.2695L9.44531 12.2949C9.15263 12.5878 9.15253 13.0626 9.44531 13.3555C9.73816 13.6481 10.213 13.6481 10.5059 13.3555L11.25 12.6104V16.2002C11.2502 16.6141 11.5861 16.95 12 16.9502Z" fill="black"/>
</svg>
