<svg width="24" height="24" viewBox="0 0 24 24" fill="none" xmlns="http://www.w3.org/2000/svg">
<g clip-path="url(#clip0_2053_27665)">
<path d="M22.9676 10.371C22.8284 10.178 22.6453 10.0209 22.4334 9.91265C22.2215 9.80442 21.9868 9.74815 21.7489 9.7485H20.2489V8.24851C20.2489 7.85068 20.0909 7.46916 19.8095 7.18785C19.5282 6.90655 19.1467 6.74852 18.7489 6.74852H12.2493L9.64959 4.79853C9.38951 4.60464 9.074 4.49947 8.7496 4.49854H3.74901C3.35119 4.49854 2.96966 4.65657 2.68836 4.93787C2.40706 5.21917 2.24902 5.6007 2.24902 5.99852V19.4984C2.24902 19.6973 2.32804 19.8881 2.46869 20.0287C2.60934 20.1694 2.80011 20.2484 2.99902 20.2484H19.7895C19.9469 20.2484 20.1004 20.1989 20.2281 20.1069C20.3558 20.0148 20.4513 19.8849 20.5011 19.7356L23.172 11.7229C23.2471 11.4974 23.2677 11.2573 23.2322 11.0224C23.1967 10.7874 23.106 10.5642 22.9676 10.371ZM8.7496 5.99852L11.549 8.09851C11.6788 8.19587 11.8367 8.24851 11.9989 8.24851H18.7489V9.7485H6.53993C6.22509 9.74847 5.91823 9.84751 5.66282 10.0316C5.4074 10.2157 5.21638 10.4754 5.11681 10.7741L3.74901 14.8766V5.99852H8.7496Z" fill="black"/>
</g>
<defs>
<clipPath id="clip0_2053_27665">
<rect width="23.9998" height="23.9998" fill="white"/>
</clipPath>
</defs>
</svg>
