<svg width="24" height="24" viewBox="0 0 24 24" fill="none" xmlns="http://www.w3.org/2000/svg">
<path d="M7.87793 12.8564L9.6875 9.01074L11.4971 12.8564H7.87793Z" fill="black"/>
<path fill-rule="evenodd" clip-rule="evenodd" d="M3.875 20.25C3.44402 20.25 3.03033 20.1055 2.72559 19.8477C2.42085 19.5898 2.25 19.2397 2.25 18.875V5.125C2.25 4.76034 2.42085 4.4102 2.72559 4.15234C3.03033 3.89448 3.44402 3.75 3.875 3.75H20.125C20.556 3.75 20.9697 3.89448 21.2744 4.15234C21.5791 4.4102 21.75 4.76034 21.75 5.125V18.875C21.75 19.2397 21.5791 19.5898 21.2744 19.8477C20.9697 20.1055 20.556 20.25 20.125 20.25H3.875ZM5.13086 16.9326C5.50549 17.1088 5.95245 16.9487 6.12891 16.5742L7.17285 14.3564H12.2021L13.2461 16.5742C13.4226 16.9487 13.8695 17.1089 14.2441 16.9326C14.6187 16.7562 14.7798 16.3093 14.6035 15.9346L10.3662 6.93066C10.2425 6.66787 9.97793 6.50009 9.6875 6.5C9.39704 6.50002 9.1325 6.66787 9.00879 6.93066L4.77148 15.9346C4.59514 16.3093 4.75617 16.7562 5.13086 16.9326ZM17.7119 15.3125C18.1261 15.3125 18.4618 14.9766 18.4619 14.5625V13.5869H19.4287C19.8426 13.5866 20.1786 13.2509 20.1787 12.8369C20.1787 12.4229 19.8426 12.0873 19.4287 12.0869H18.4619V11.1211C18.4619 10.707 18.1269 10.3714 17.7129 10.3711C17.2987 10.3711 16.9619 10.7069 16.9619 11.1211V12.0869H15.9873C15.5731 12.0869 15.2373 12.4227 15.2373 12.8369C15.2374 13.2511 15.5731 13.5869 15.9873 13.5869H16.9619V14.5625C16.962 14.9764 17.298 15.3122 17.7119 15.3125Z" fill="black"/>
</svg>
