<svg width="24" height="24" viewBox="0 0 24 24" fill="none" xmlns="http://www.w3.org/2000/svg">
<path fill-rule="evenodd" clip-rule="evenodd" d="M20.25 3.75C20.6478 3.75 21.0292 3.90815 21.3105 4.18945C21.5919 4.47076 21.75 4.85218 21.75 5.25V18.75C21.75 19.1478 21.5919 19.5292 21.3105 19.8105C21.0292 20.0919 20.6478 20.25 20.25 20.25H3.75C3.35218 20.25 2.97076 20.0919 2.68945 19.8105C2.40815 19.5292 2.25 19.1478 2.25 18.75V5.25C2.25 4.85218 2.40815 4.47076 2.68945 4.18945C2.97076 3.90815 3.35218 3.75 3.75 3.75H20.25ZM5.25 7.11328C4.83579 7.11328 4.5 7.44907 4.5 7.86328V9.68652C4.50026 10.1005 4.83595 10.4365 5.25 10.4365C5.66405 10.4365 5.99974 10.1005 6 9.68652V8.61328H8.60254V15.3193H7.5293C7.11508 15.3193 6.7793 15.6551 6.7793 16.0693C6.77982 16.4831 7.11541 16.8193 7.5293 16.8193H11.1758C11.5897 16.8193 11.9253 16.4831 11.9258 16.0693C11.9258 15.6551 11.59 15.3193 11.1758 15.3193H10.1025V8.61328H12.7051V9.68652C12.7053 10.1005 13.041 10.4365 13.4551 10.4365C13.8691 10.4365 14.2048 10.1005 14.2051 9.68652V7.86328C14.2051 7.44907 13.8693 7.11328 13.4551 7.11328H5.25ZM14.668 11.2363C14.2538 11.2363 13.918 11.5721 13.918 11.9863V12.8936C13.9183 13.3075 14.2539 13.6436 14.668 13.6436C15.0819 13.6434 15.4177 13.3074 15.418 12.8936V12.7363H15.959V15.3193H15.8018C15.3875 15.3193 15.0518 15.6551 15.0518 16.0693C15.0523 16.4831 15.3879 16.8193 15.8018 16.8193H17.6162C18.03 16.8192 18.3657 16.483 18.3662 16.0693C18.3662 15.6552 18.0303 15.3194 17.6162 15.3193H17.459V12.7363H18V12.8936C18.0003 13.3075 18.336 13.6436 18.75 13.6436C19.164 13.6436 19.4997 13.3075 19.5 12.8936V11.9863C19.5 11.5721 19.1642 11.2363 18.75 11.2363H14.668Z" fill="black"/>
</svg>
