<svg width="24" height="24" viewBox="0 0 24 24" fill="none" xmlns="http://www.w3.org/2000/svg">
<path d="M9.50635 9.146L10.9243 12.4976H8.07471L9.48193 9.146H9.50635Z" fill="black"/>
<path fill-rule="evenodd" clip-rule="evenodd" d="M19.3501 3.8999C19.7642 3.90001 20.1001 4.23575 20.1001 4.6499V19.3501C20.1 19.7642 19.7642 20.1 19.3501 20.1001H4.6499C4.23575 20.1001 3.90001 19.7642 3.8999 19.3501V4.6499C3.8999 4.23569 4.23569 3.8999 4.6499 3.8999H19.3501ZM9.50635 6.95361C9.26291 6.95369 9.04847 7.02143 8.86377 7.15576C8.67915 7.28179 8.51955 7.48757 8.38525 7.77295L5.15967 14.8413C5.05052 15.068 5.01288 15.2738 5.04639 15.4585C5.08839 15.6433 5.18093 15.7907 5.32373 15.8999C5.47484 16.009 5.66786 16.0639 5.90283 16.064C6.17163 16.064 6.3739 16.0005 6.5083 15.8745C6.65101 15.7401 6.78569 15.5258 6.91162 15.2319L7.42529 14.022H11.5796L12.1021 15.2319C12.2196 15.5174 12.3542 15.7274 12.5054 15.8618C12.665 15.9962 12.8877 16.064 13.1733 16.064C13.4001 16.064 13.5852 16.0134 13.728 15.9126C13.8708 15.8034 13.9548 15.656 13.98 15.4712C14.0135 15.2781 13.9758 15.068 13.8667 14.8413L10.6157 7.77295C10.4897 7.48735 10.3337 7.28176 10.1489 7.15576C9.96415 7.02141 9.7499 6.95361 9.50635 6.95361ZM17.0522 10.0493C16.6796 10.0494 16.3774 10.3514 16.3774 10.7241V11.3276H15.7739C15.4012 11.3276 15.0992 11.6297 15.0991 12.0024C15.0991 12.3752 15.4011 12.6772 15.7739 12.6772H16.3774V13.2759C16.3777 13.6483 16.6797 13.9506 17.0522 13.9507C17.4246 13.9504 17.7268 13.6483 17.7271 13.2759V12.6772H18.3257C18.698 12.6767 19.0005 12.3749 19.0005 12.0024C19.0004 11.6301 18.698 11.3282 18.3257 11.3276H17.7271V10.7241C17.7271 10.3515 17.4248 10.0496 17.0522 10.0493Z" fill="black"/>
</svg>
