<svg viewBox="0 0 24 24" fill="none" xmlns="http://www.w3.org/2000/svg" width="24" height="24">
<path d="M9.008 8.575L10.709 12.597H7.29L8.978 8.575H9.008Z" fill="black"/>
<path fill-rule="evenodd" clip-rule="evenodd" d="M20.82 2.28C21.317 2.28 21.72 2.683 21.72 3.18V20.82C21.72 21.317 21.317 21.72 20.82 21.72H3.18C2.683 21.72 2.28 21.317 2.28 20.82V3.18C2.28 2.683 2.683 2.28 3.18 2.28H20.82ZM9.008 5.944C8.715 5.944 8.458 6.026 8.237 6.187 8.015 6.338 7.823 6.585 7.662 6.928L3.792 15.41C3.661 15.682 3.615 15.929 3.656 16.15 3.706 16.372 3.817 16.549 3.988 16.68 4.17 16.811 4.401 16.877 4.683 16.877 5.006 16.877 5.249 16.801 5.41 16.649 5.581 16.488 5.743 16.231 5.894 15.878L6.51 14.426H11.496L12.123 15.878C12.264 16.221 12.425 16.473 12.606 16.634 12.798 16.795 13.065 16.877 13.408 16.877 13.68 16.877 13.902 16.816 14.074 16.695 14.245 16.564 14.346 16.387 14.376 16.165 14.416 15.934 14.371 15.682 14.24 15.41L10.339 6.928C10.188 6.585 10 6.338 9.779 6.187 9.557 6.026 9.3 5.944 9.008 5.944ZM16.529 11.193C16.081 11.193 15.719 11.556 15.719 12.003 15.719 12.45 16.081 12.813 16.529 12.813H19.591C20.038 12.812 20.401 12.45 20.401 12.003 20.4 11.556 20.038 11.194 19.591 11.193H16.529Z" fill="black"/>
</svg>