<svg width="24" height="24" viewBox="0 0 24 24" fill="none" xmlns="http://www.w3.org/2000/svg">
<path d="M20.041 16.8984C20.031 16.9232 20.0184 16.9468 20.0039 16.9688C19.9604 17.0349 19.8981 17.0878 19.8242 17.1191C19.7997 17.1295 19.7738 17.1373 19.748 17.1426L19.7471 17.1416C19.773 17.1363 19.7985 17.1286 19.8232 17.1182C19.9219 17.0764 19.9998 16.9968 20.04 16.8975C20.0452 16.8848 20.048 16.8714 20.0518 16.8584C20.0479 16.8717 20.0462 16.8856 20.041 16.8984Z" fill="black"/>
<path d="M16.1758 15.5352L15.5967 16.9043C15.5799 16.9439 15.5552 16.9789 15.5273 17.0107C15.5552 16.9788 15.5789 16.943 15.5957 16.9033L16.1758 15.5352Z" fill="black"/>
<path d="M20.0703 16.7432C20.0704 16.7494 20.0686 16.7555 20.0684 16.7617C20.0688 16.7519 20.0687 16.7422 20.0684 16.7324C20.0685 16.736 20.0703 16.7396 20.0703 16.7432Z" fill="black"/>
<path d="M17.9209 14.4277H16.9697L17.4453 13.3027L17.9209 14.4277Z" fill="black"/>
<path d="M10.458 12.8887H6.97168L8.71484 8.76855L10.458 12.8887Z" fill="black"/>
<path fill-rule="evenodd" clip-rule="evenodd" d="M20.4678 3.79102C20.8699 3.79102 21.2556 3.951 21.54 4.23535C21.8244 4.51975 21.9844 4.90542 21.9844 5.30762V18.9561C21.9844 19.3582 21.8244 19.7439 21.54 20.0283C21.2557 20.3126 20.8699 20.4727 20.4678 20.4727H3.78613C3.38407 20.4726 2.99817 20.3126 2.71387 20.0283C2.42959 19.7439 2.26954 19.3582 2.26953 18.9561V5.30762C2.26953 4.90553 2.42962 4.51973 2.71387 4.23535C2.99817 3.95104 3.38407 3.79112 3.78613 3.79102H20.4678ZM17.4453 10.793C17.307 10.793 17.1719 10.8338 17.0566 10.9102C16.9701 10.9675 16.8972 11.0429 16.8438 11.1309L16.7969 11.2227L14.5762 16.4727C14.5036 16.6444 14.5023 16.8379 14.5723 17.0107C14.6424 17.1835 14.7784 17.3218 14.9502 17.3945C15.1219 17.467 15.3155 17.4693 15.4883 17.3994C15.6611 17.3294 15.8002 17.1932 15.873 17.0215L16.374 15.835H18.5166L19.0176 17.0215C19.0904 17.1931 19.2295 17.3294 19.4023 17.3994C19.5751 17.4692 19.7688 17.4671 19.9404 17.3945C20.1122 17.3218 20.2482 17.1836 20.3184 17.0107C20.3883 16.838 20.3869 16.6444 20.3145 16.4727L18.0938 11.2227C18.04 11.0954 17.9491 10.9866 17.834 10.9102C17.7188 10.8338 17.5835 10.793 17.4453 10.793ZM8.71484 6.06445C8.56587 6.06452 8.42005 6.10809 8.2959 6.19043C8.17174 6.27283 8.07457 6.39006 8.0166 6.52734L3.84668 16.3848C3.7683 16.57 3.76634 16.7785 3.8418 16.9648C3.91734 17.1513 4.06377 17.3005 4.24902 17.3789C4.43429 17.4573 4.64362 17.4584 4.83008 17.3828C5.01628 17.3072 5.16481 17.1607 5.24316 16.9756L6.33008 14.4053H11.0996L12.1875 16.9756C12.2659 17.1608 12.4143 17.3072 12.6006 17.3828C12.787 17.4584 12.9964 17.4573 13.1816 17.3789C13.3668 17.3004 13.5134 17.1512 13.5889 16.9648C13.6643 16.7785 13.6623 16.5699 13.584 16.3848L9.41406 6.52734C9.35613 6.39014 9.25883 6.27282 9.13477 6.19043C9.01052 6.10802 8.86393 6.06445 8.71484 6.06445Z" fill="black"/>
</svg>
