<?xml version="1.0" encoding="utf-8"?>
<svg xmlns="http://www.w3.org/2000/svg" width="512" height="512" viewBox="0 0 512 512">
<path d="M256 48C284.09 48 311.33 53.5 336.96 64.34C361.73 74.82 383.97 89.82 403.08 108.92C422.19 128.03 437.19 150.27 447.66 175.04C458.5 200.67 464 227.91 464 256C464 284.09 458.5 311.33 447.66 336.96C437.18 361.73 422.18 383.97 403.08 403.08C383.97 422.19 361.73 437.19 336.96 447.66C311.33 458.5 284.09 464 256 464C227.91 464 200.67 458.5 175.04 447.66C150.27 437.18 128.03 422.18 108.92 403.08C89.81 383.97 74.81 361.73 64.34 336.96C53.5 311.33 48 284.09 48 256C48 227.91 53.5 200.67 64.34 175.04C74.82 150.27 89.82 128.03 108.92 108.92C128.03 89.81 150.27 74.81 175.04 64.34C200.67 53.5 227.91 48 256 48ZM256 32C132.29 32 32 132.29 32 256C32 379.71 132.29 480 256 480C379.71 480 480 379.71 480 256C480 132.29 379.71 32 256 32ZM224.07 128H224.12L224.07 127V128ZM208.02 128H208.07V127L208.02 128ZM224.07 128V72C224.07 69.79 223.17 67.79 221.73 66.34C220.28 64.9 218.28 64 216.07 64C211.65 64 208.07 67.58 208.07 72V128H192.07V64C183.23 64 176.07 71.16 176.07 80V152.5C176.07 170.53 188.14 185.73 204.65 190.47L192.07 424C192.07 437.25 202.82 448 216.07 448C229.32 448 240.07 437.25 240.07 424L227.49 190.47C243.54 185.87 255.39 171.37 256.04 154C256.06 153.5 256.07 153 256.07 152.5V80C256.07 75.58 254.28 71.58 251.39 68.68C248.49 65.79 244.49 64 240.07 64V128H224.07ZM256.04 154L256.07 152.5C256.07 153 256.06 153.5 256.04 154ZM316.62 70.62L256.47 245.43C255.03 250.83 259.69 256 266 256H296.98L287.93 424.02C287.93 437.27 298.68 448.02 311.93 448.02C325.18 448.02 335.93 437.27 335.93 424.02V72.34C335.74 62.28 319.24 60.82 316.62 70.62ZM352 127.99V148.67C353.98 150.45 355.92 152.28 357.82 154.18C385.02 181.37 400 217.54 400 256C400 294.46 385.02 330.63 357.82 357.82C355.92 359.72 353.98 361.55 352 363.33V384.01C390.86 354.82 416 308.35 416 256C416 203.65 390.86 157.18 352 127.99ZM156.76 151.67C156.86 151.57 156.96 151.47 157.06 151.38C157.7 150.77 158.35 150.17 159 149.58C159.3 149.29 159.61 149.02 159.92 148.74C159.95 148.72 159.97 148.69 160 148.67V127.99C159.33 128.49 158.66 129 158 129.52C157.46 129.93 156.93 130.35 156.4 130.78C155.22 131.72 154.05 132.67 152.9 133.64C152.85 133.68 152.8 133.72 152.75 133.77C152.21 134.22 151.68 134.68 151.15 135.14C150 136.13 148.87 137.14 147.76 138.17C147.26 138.63 146.77 139.08 146.28 139.54C143.9 141.78 141.59 144.1 139.35 146.48C138.94 146.93 138.53 147.37 138.11 147.82C137.6 148.38 137.09 148.94 136.59 149.51C135.58 150.64 134.58 151.78 133.61 152.94C133.12 153.52 132.63 154.11 132.15 154.69C131.61 155.35 131.07 156.02 130.54 156.69C130.13 157.21 129.72 157.73 129.32 158.26C127.79 160.23 126.31 162.24 124.88 164.29C124.57 164.73 124.26 165.18 123.95 165.63C123.58 166.17 123.21 166.72 122.84 167.27C120.65 170.54 118.58 173.9 116.64 177.34C116.28 177.98 115.93 178.61 115.58 179.25C115.18 179.97 114.78 180.7 114.4 181.44C114.07 182.06 113.75 182.69 113.43 183.31C111.98 186.13 110.62 189.01 109.34 191.93C108.9 192.94 108.47 193.95 108.06 194.96C107.98 195.15 107.9 195.34 107.83 195.52C107.63 196.01 107.43 196.49 107.24 196.98C106.9 197.82 106.58 198.66 106.25 199.52C106.07 200 105.89 200.49 105.71 200.98C105.01 202.89 104.35 204.82 103.72 206.77C103.48 207.51 103.24 208.25 103.02 208.99C102.31 211.31 101.64 213.65 101.04 216.02C100.58 217.79 100.15 219.58 99.75 221.39C99.57 222.21 99.39 223.05 99.22 223.89C99.12 224.4 99.02 224.92 98.91 225.44C98.63 226.92 98.36 228.4 98.12 229.89C98.01 230.57 97.9 231.25 97.8 231.93C97.69 232.65 97.59 233.36 97.49 234.08C97.37 234.96 97.26 235.84 97.15 236.72C97.06 237.43 96.98 238.14 96.91 238.86C96.8 239.91 96.69 240.97 96.6 242.03C96.51 243.05 96.43 244.07 96.37 245.1C96.31 245.98 96.25 246.87 96.21 247.77C96.17 248.45 96.14 249.13 96.12 249.82C96.1 250.39 96.08 250.97 96.06 251.55C96.04 252.22 96.03 252.88 96.02 253.55C96.01 254.37 96 255.18 96 256C96 256.82 96.01 257.63 96.02 258.45C96.03 259.12 96.04 259.78 96.06 260.45C96.08 261.03 96.1 261.61 96.12 262.18C96.14 262.87 96.17 263.55 96.21 264.23C96.25 265.13 96.31 266.02 96.37 266.9C96.43 267.93 96.51 268.95 96.6 269.97C96.69 271.03 96.8 272.09 96.91 273.14C96.98 273.86 97.06 274.57 97.15 275.28C97.26 276.16 97.37 277.04 97.49 277.92C97.59 278.64 97.69 279.35 97.8 280.07C97.9 280.75 98.01 281.43 98.12 282.11C98.36 283.6 98.63 285.08 98.91 286.56C99.02 287.08 99.12 287.6 99.22 288.11C99.39 288.95 99.57 289.79 99.75 290.61C100.15 292.42 100.58 294.21 101.04 295.98C101.64 298.35 102.31 300.69 103.02 303.01C103.24 303.75 103.48 304.49 103.72 305.23C104.35 307.18 105.01 309.11 105.71 311.02C105.89 311.51 106.07 312 106.25 312.48C106.58 313.34 106.9 314.18 107.24 315.02C107.43 315.51 107.63 315.99 107.83 316.48C107.9 316.66 107.98 316.85 108.06 317.04C108.47 318.06 108.9 319.07 109.34 320.07C110.62 322.99 111.98 325.87 113.43 328.69C113.75 329.31 114.07 329.94 114.4 330.56C114.78 331.3 115.18 332.03 115.58 332.75C115.93 333.39 116.28 334.02 116.64 334.66C118.58 338.1 120.65 341.46 122.84 344.73C123.21 345.28 123.58 345.83 123.95 346.37C124.26 346.82 124.57 347.27 124.88 347.71C127.18 351 129.61 354.21 132.15 357.31C132.63 357.89 133.12 358.48 133.61 359.06C134.58 360.22 135.58 361.36 136.59 362.49C137.09 363.06 137.6 363.62 138.11 364.18C138.53 364.63 138.94 365.07 139.35 365.52C141.59 367.9 143.9 370.22 146.28 372.46C146.77 372.92 147.26 373.37 147.76 373.83C148.87 374.86 150 375.87 151.15 376.86C151.68 377.32 152.21 377.78 152.75 378.23C152.8 378.28 152.85 378.32 152.9 378.36C154.05 379.33 155.22 380.28 156.4 381.22C156.93 381.65 157.46 382.07 158 382.48C158.66 383 159.33 383.51 160 384.01V363.33C160 363.33 159.95 363.28 159.92 363.26C159.61 362.98 159.3 362.71 159 362.42C158.35 361.83 157.7 361.23 157.06 360.62C156.96 360.53 156.86 360.43 156.76 360.33C155.89 359.51 155.03 358.67 154.18 357.82C126.98 330.63 112 294.46 112 256C112 217.54 126.98 181.37 154.18 154.18C155.03 153.33 155.89 152.49 156.76 151.67ZM160 363.33C160 363.33 159.95 363.28 159.92 363.26C159.61 362.98 159.3 362.71 159 362.42C158.35 361.83 157.7 361.23 157.06 360.62C156.96 360.53 156.86 360.43 156.76 360.33C155.89 359.51 155.03 358.67 154.18 357.82C126.98 330.63 112 294.46 112 256C112 217.54 126.98 181.37 154.18 154.18C155.03 153.33 155.89 152.49 156.76 151.67C156.86 151.57 156.96 151.47 157.06 151.38C157.7 150.77 158.35 150.17 159 149.58C159.3 149.29 159.61 149.02 159.92 148.74C159.95 148.72 159.97 148.69 160 148.67V127.99C159.33 128.49 158.66 129 158 129.52C157.46 129.93 156.93 130.35 156.4 130.78C155.22 131.72 154.05 132.67 152.9 133.64C152.85 133.68 152.8 133.72 152.75 133.77C152.21 134.22 151.68 134.68 151.15 135.14C150 136.13 148.87 137.14 147.76 138.17C147.26 138.63 146.77 139.08 146.28 139.54C143.9 141.78 141.59 144.1 139.35 146.48C138.94 146.93 138.53 147.37 138.11 147.82C137.6 148.38 137.09 148.94 136.59 149.51C135.58 150.64 134.58 151.78 133.61 152.94C133.12 153.52 132.63 154.11 132.15 154.69C131.61 155.35 131.07 156.02 130.54 156.69C130.13 157.21 129.72 157.73 129.32 158.26C127.79 160.23 126.31 162.24 124.88 164.29C124.57 164.73 124.26 165.18 123.95 165.63C123.58 166.17 123.21 166.72 122.84 167.27C120.65 170.54 118.58 173.9 116.64 177.34C116.28 177.98 115.93 178.61 115.58 179.25C115.18 179.97 114.78 180.7 114.4 181.44C114.07 182.06 113.75 182.69 113.43 183.31C111.98 186.13 110.62 189.01 109.34 191.93C108.9 192.94 108.47 193.95 108.06 194.96C107.98 195.15 107.9 195.34 107.83 195.52C107.63 196.01 107.43 196.49 107.24 196.98C106.9 197.82 106.58 198.66 106.25 199.52C106.07 200 105.89 200.49 105.71 200.98C105.01 202.89 104.35 204.82 103.72 206.77C103.48 207.51 103.24 208.25 103.02 208.99C102.31 211.31 101.64 213.65 101.04 216.02C100.58 217.79 100.15 219.58 99.75 221.39C99.57 222.21 99.39 223.05 99.22 223.89C99.12 224.4 99.02 224.92 98.91 225.44C98.63 226.92 98.36 228.4 98.12 229.89C98.01 230.57 97.9 231.25 97.8 231.93C97.69 232.65 97.59 233.36 97.49 234.08C97.37 234.96 97.26 235.84 97.15 236.72C97.06 237.43 96.98 238.14 96.91 238.86C96.8 239.91 96.69 240.97 96.6 242.03C96.51 243.05 96.43 244.07 96.37 245.1C96.31 245.98 96.25 246.87 96.21 247.77C96.17 248.45 96.14 249.13 96.12 249.82C96.1 250.39 96.08 250.97 96.06 251.55C96.04 252.22 96.03 252.88 96.02 253.55C96.01 254.37 96 255.18 96 256C96 256.82 96.01 257.63 96.02 258.45C96.03 259.12 96.04 259.78 96.06 260.45C96.08 261.03 96.1 261.61 96.12 262.18C96.14 262.87 96.17 263.55 96.21 264.23C96.25 265.13 96.31 266.02 96.37 266.9C96.43 267.93 96.51 268.95 96.6 269.97C96.69 271.03 96.8 272.09 96.91 273.14C96.98 273.86 97.06 274.57 97.15 275.28C97.26 276.16 97.37 277.04 97.49 277.92C97.59 278.64 97.69 279.35 97.8 280.07C97.9 280.75 98.01 281.43 98.12 282.11C98.36 283.6 98.63 285.08 98.91 286.56C99.02 287.08 99.12 287.6 99.22 288.11C99.39 288.95 99.57 289.79 99.75 290.61C100.15 292.42 100.58 294.21 101.04 295.98C101.64 298.35 102.31 300.69 103.02 303.01C103.24 303.75 103.48 304.49 103.72 305.23C104.35 307.18 105.01 309.11 105.71 311.02C105.89 311.51 106.07 312 106.25 312.48C106.58 313.34 106.9 314.18 107.24 315.02C107.43 315.51 107.63 315.99 107.83 316.48C107.9 316.66 107.98 316.85 108.06 317.04C108.47 318.06 108.9 319.07 109.34 320.07C110.62 322.99 111.98 325.87 113.43 328.69C113.75 329.31 114.07 329.94 114.4 330.56C114.78 331.3 115.18 332.03 115.58 332.75C115.93 333.39 116.28 334.02 116.64 334.66C118.58 338.1 120.65 341.46 122.84 344.73C123.21 345.28 123.58 345.83 123.95 346.37C124.26 346.82 124.57 347.27 124.88 347.71C127.18 351 129.61 354.21 132.15 357.31C132.63 357.89 133.12 358.48 133.61 359.06C134.58 360.22 135.58 361.36 136.59 362.49C137.09 363.06 137.6 363.62 138.11 364.18C138.53 364.63 138.94 365.07 139.35 365.52C141.59 367.9 143.9 370.22 146.28 372.46C146.77 372.92 147.26 373.37 147.76 373.83C148.87 374.86 150 375.87 151.15 376.86C151.68 377.32 152.21 377.78 152.75 378.23C152.8 378.28 152.85 378.32 152.9 378.36C154.05 379.33 155.22 380.28 156.4 381.22C156.93 381.65 157.46 382.07 158 382.48C158.66 383 159.33 383.51 160 384.01C165.1 387.85 170.45 391.38 176 394.59V375.77C170.42 372.04 165.07 367.88 160 363.33Z" fill="black"/>
</svg>
