<svg width="24" height="24" viewBox="0 0 24 24" fill="none" xmlns="http://www.w3.org/2000/svg">
<path d="M20.2489 3.748V20.9979C20.2489 21.1968 20.1699 21.3875 20.0292 21.5282C19.8886 21.6688 19.6978 21.7479 19.4989 21.7479C19.3 21.7479 19.1092 21.6688 18.9686 21.5282C18.8279 21.3875 18.7489 21.1968 18.7489 20.9979V16.4979H14.2489C14.05 16.4979 13.8593 16.4189 13.7186 16.2782C13.578 16.1376 13.4989 15.9468 13.4989 15.7479C13.5338 13.9514 13.7607 12.1637 14.1758 10.4155C15.0927 6.61954 16.8308 4.07519 19.2036 3.05895C19.3176 3.01009 19.442 2.9903 19.5656 3.00133C19.6892 3.01236 19.8081 3.05388 19.9117 3.12217C20.0153 3.19045 20.1003 3.28337 20.1591 3.39259C20.218 3.50182 20.2488 3.62393 20.2489 3.748ZM11.2386 3.62519C11.224 3.52671 11.1898 3.43214 11.1382 3.347C11.0866 3.26186 11.0185 3.18785 10.938 3.12928C10.8575 3.07072 10.7661 3.02878 10.6692 3.0059C10.5723 2.98303 10.4718 2.97968 10.3736 2.99604C10.2753 3.01241 10.1814 3.04818 10.0971 3.10124C10.0129 3.15431 9.94004 3.22362 9.88286 3.30514C9.82568 3.38665 9.78531 3.47873 9.76409 3.57602C9.74287 3.6733 9.74124 3.77383 9.75928 3.87175L10.4887 8.24797H8.24898V3.748C8.24898 3.54909 8.16997 3.35833 8.02931 3.21768C7.88866 3.07703 7.6979 2.99801 7.49899 2.99801C7.30008 2.99801 7.10931 3.07703 6.96866 3.21768C6.82801 3.35833 6.74899 3.54909 6.74899 3.748V8.24797H4.50932L5.23869 3.87175C5.25674 3.77383 5.2551 3.6733 5.23389 3.57602C5.21267 3.47873 5.17229 3.38665 5.11511 3.30514C5.05794 3.22362 4.9851 3.15431 4.90085 3.10124C4.8166 3.04818 4.72263 3.01241 4.62442 2.99604C4.5262 2.97968 4.42571 2.98303 4.32881 3.0059C4.2319 3.02878 4.14052 3.07072 4.06 3.12928C3.97947 3.18785 3.91141 3.26186 3.85979 3.347C3.80817 3.43214 3.77402 3.52671 3.75933 3.62519L3.00934 8.12516C3.00261 8.16575 2.99916 8.20682 2.99902 8.24797C3.00052 9.31091 3.37769 10.3391 4.06389 11.1509C4.75009 11.9626 5.70114 12.5057 6.74899 12.6842V20.9979C6.74899 21.1968 6.82801 21.3875 6.96866 21.5282C7.10931 21.6688 7.30008 21.7479 7.49899 21.7479C7.6979 21.7479 7.88866 21.6688 8.02931 21.5282C8.16997 21.3875 8.24898 21.1968 8.24898 20.9979V12.6842C9.29684 12.5057 10.2479 11.9626 10.9341 11.1509C11.6203 10.3391 11.9975 9.31091 11.999 8.24797C11.9988 8.20682 11.9954 8.16575 11.9886 8.12516L11.2386 3.62519Z" fill="black"/>
</svg>
