<svg xmlns="http://www.w3.org/2000/svg" width="24" height="24" fill="currentColor" viewBox="0 0 24 24"><path d="M20.91 3.09V21.72a0.81 0.81 0 0 1-1.62 0v-4.86h-4.86a0.81 0.81 0 0 1-0.81-0.81 27.24 27.24 0 0 1 0.731-5.759c0.99-4.099 2.867-6.847 5.43-7.945a0.81 0.81 0 0 1 1.129 0.744m-9.731-0.133a0.81 0.81 0 1 0-1.597 0.266l0.787 4.727H7.95v-4.86a0.81 0.81 0 0 0-1.62 0v4.86H3.911l0.787-4.727a0.81 0.81 0 1 0-1.597-0.266l-0.81 4.86a1.2 1.2 0 0 0-0.011 0.133 4.867 4.867 0 0 0 4.05 4.792V21.72a0.81 0.81 0 0 0 1.62 0v-8.978A4.867 4.867 0 0 0 12 7.95a1.2 1.2 0 0 0-0.011-0.133z"/></svg>