<?xml version="1.0" encoding="utf-8"?>
<svg xmlns="http://www.w3.org/2000/svg" width="512" height="512" viewBox="0 0 512 512">
<path d="M256 32C132.29 32 32 132.29 32 256C32 379.71 132.29 480 256 480C379.71 480 480 379.71 480 256C480 132.29 379.71 32 256 32ZM176 394.59C170.45 391.38 165.1 387.85 160 384.01C159.33 383.51 158.66 383 158 382.48C157.46 382.07 156.93 381.65 156.4 381.22C155.22 380.28 154.05 379.33 152.9 378.36C152.85 378.32 152.8 378.28 152.75 378.23C152.21 377.78 151.68 377.32 151.15 376.86C150 375.87 148.87 374.86 147.76 373.83C147.26 373.37 146.77 372.92 146.28 372.46C143.9 370.22 141.59 367.9 139.35 365.52C138.94 365.07 138.53 364.63 138.11 364.18C137.6 363.62 137.09 363.06 136.59 362.49C135.58 361.36 134.58 360.22 133.61 359.06C133.12 358.48 132.63 357.89 132.15 357.31C129.61 354.21 127.18 351 124.88 347.71C124.57 347.27 124.26 346.82 123.95 346.37C123.58 345.83 123.21 345.28 122.84 344.73C120.65 341.46 118.58 338.1 116.64 334.66C116.28 334.02 115.93 333.39 115.58 332.75C115.18 332.03 114.78 331.3 114.4 330.56C114.07 329.94 113.75 329.31 113.43 328.69C111.98 325.87 110.62 322.99 109.34 320.07C108.9 319.07 108.47 318.06 108.06 317.04C107.98 316.85 107.9 316.66 107.83 316.48C107.63 315.99 107.43 315.51 107.24 315.02C106.9 314.18 106.58 313.34 106.25 312.48C106.07 312 105.89 311.51 105.71 311.02C105.01 309.11 104.35 307.18 103.72 305.23C103.48 304.49 103.24 303.75 103.02 303.01C102.31 300.69 101.64 298.35 101.04 295.98C100.58 294.21 100.15 292.42 99.75 290.61C99.57 289.79 99.39 288.95 99.22 288.11C99.12 287.6 99.02 287.08 98.91 286.56C98.63 285.08 98.36 283.6 98.12 282.11C98.01 281.43 97.9 280.75 97.8 280.07C97.69 279.35 97.59 278.64 97.49 277.92C97.37 277.04 97.26 276.16 97.15 275.28C97.06 274.57 96.98 273.86 96.91 273.14C96.8 272.09 96.69 271.03 96.6 269.97C96.51 268.95 96.43 267.93 96.37 266.9C96.31 266.02 96.25 265.13 96.21 264.23C96.17 263.55 96.14 262.87 96.12 262.18C96.1 261.61 96.08 261.03 96.06 260.45C96.04 259.78 96.03 259.12 96.02 258.45C96.01 257.63 96 256.82 96 256C96 255.18 96 254.37 96.02 253.55C96.03 252.88 96.04 252.22 96.06 251.55C96.08 250.97 96.1 250.39 96.12 249.82C96.14 249.13 96.17 248.45 96.21 247.77C96.25 246.87 96.31 245.98 96.37 245.1C96.43 244.07 96.51 243.05 96.6 242.03C96.69 240.97 96.8 239.91 96.91 238.86C96.98 238.14 97.06 237.43 97.15 236.72C97.26 235.84 97.37 234.96 97.49 234.08C97.59 233.36 97.69 232.65 97.8 231.93C97.9 231.25 98.01 230.57 98.12 229.89C98.36 228.4 98.63 226.92 98.91 225.44C99.02 224.92 99.12 224.4 99.22 223.89C99.39 223.05 99.57 222.21 99.75 221.39C100.15 219.58 100.58 217.79 101.04 216.02C101.64 213.65 102.31 211.31 103.02 208.99C103.24 208.25 103.48 207.51 103.72 206.77C104.35 204.82 105.01 202.89 105.71 200.98C105.89 200.49 106.07 200 106.25 199.52C106.58 198.66 106.9 197.82 107.24 196.98C107.43 196.49 107.63 196.01 107.83 195.52C107.9 195.34 107.98 195.15 108.06 194.96C108.47 193.95 108.9 192.94 109.34 191.93C110.62 189.01 111.98 186.13 113.43 183.31C113.75 182.69 114.07 182.06 114.4 181.44C114.78 180.7 115.18 179.97 115.58 179.25C115.93 178.61 116.28 177.98 116.64 177.34C118.58 173.9 120.65 170.54 122.84 167.27C123.21 166.72 123.58 166.17 123.95 165.63C124.26 165.18 124.57 164.73 124.88 164.29C126.31 162.24 127.79 160.23 129.32 158.26C129.72 157.73 130.13 157.21 130.54 156.69C131.07 156.02 131.61 155.35 132.15 154.69C132.63 154.11 133.12 153.52 133.61 152.94C134.58 151.78 135.58 150.64 136.59 149.51C137.09 148.94 137.6 148.38 138.11 147.82C138.53 147.37 138.94 146.93 139.35 146.48C141.59 144.1 143.9 141.78 146.28 139.54C146.77 139.08 147.26 138.63 147.76 138.17C148.87 137.14 150 136.13 151.15 135.14C151.68 134.68 152.21 134.22 152.75 133.77C152.8 133.72 152.85 133.68 152.9 133.64C154.05 132.67 155.22 131.72 156.4 130.78C156.93 130.35 157.46 129.93 158 129.52C158.66 129 159.33 128.49 160 127.99V148.67L159.92 148.74C159.61 149.02 159.3 149.29 159 149.58C158.35 150.17 157.7 150.77 157.06 151.38C156.96 151.47 156.86 151.57 156.76 151.67C155.89 152.49 155.03 153.33 154.18 154.18C126.98 181.37 112 217.54 112 256C112 294.46 126.98 330.63 154.18 357.82C155.03 358.67 155.89 359.51 156.76 360.33C156.86 360.43 156.96 360.53 157.06 360.62C157.7 361.23 158.35 361.83 159 362.42C159.3 362.71 159.61 362.98 159.92 363.26L160 363.33C165.07 367.88 170.42 372.04 176 375.77V394.59ZM256.07 152.5C256.07 153 256.07 153.5 256.04 154C255.39 171.37 243.54 185.87 227.49 190.47L240.07 424C240.07 437.25 229.32 448 216.07 448C202.82 448 192.07 437.25 192.07 424L204.65 190.47C188.14 185.73 176.07 170.53 176.07 152.5V80C176.07 71.16 183.23 64 192.07 64V128H208.07V72C208.07 67.58 211.65 64 216.07 64C218.28 64 220.28 64.9 221.73 66.34C223.17 67.79 224.07 69.79 224.07 72V128H240.07V64C244.49 64 248.49 65.79 251.39 68.68C254.28 71.58 256.07 75.58 256.07 80V152.5ZM335.93 424.02C335.93 437.27 325.19 448.02 311.93 448.02C298.67 448.02 287.93 437.27 287.93 424.02L296.98 256H266C259.69 256 255.03 250.83 256.47 245.43L316.62 70.62C319.24 60.82 335.74 62.28 335.93 72.34V424.02ZM352 384.01V363.33C353.98 361.55 355.92 359.72 357.82 357.82C385.02 330.63 400 294.46 400 256C400 217.54 385.02 181.37 357.82 154.18C355.92 152.28 353.98 150.45 352 148.67V127.99C390.86 157.18 416 203.65 416 256C416 308.35 390.86 354.82 352 384.01Z" fill="black"/>
</svg>
