<svg width="24" height="24" viewBox="0 0 24 24" fill="none" xmlns="http://www.w3.org/2000/svg">
<path d="M13.4243 11.4165H10.5757L11.9819 8.06494H12.0063L13.4243 11.4165Z" fill="black"/>
<path fill-rule="evenodd" clip-rule="evenodd" d="M19.3501 3.8999C19.7642 3.90001 20.1001 4.23575 20.1001 4.6499V19.3501C20.1 19.7642 19.7642 20.1 19.3501 20.1001H4.6499C4.23575 20.1001 3.90001 19.7642 3.8999 19.3501V4.6499C3.8999 4.23569 4.23569 3.8999 4.6499 3.8999H19.3501ZM7.32178 16.4556C6.94925 16.4558 6.64705 16.7578 6.64697 17.1304C6.64697 17.503 6.9492 17.8049 7.32178 17.8052H16.6772C17.05 17.8052 17.3521 17.5032 17.3521 17.1304C17.352 16.7576 17.05 16.4556 16.6772 16.4556H7.32178ZM12.0063 5.87256C11.7629 5.87263 11.5485 5.94038 11.3638 6.07471C11.1791 6.20073 11.0196 6.40647 10.8853 6.69189L7.65967 13.7603C7.55055 13.9869 7.51292 14.1927 7.54639 14.3774C7.58839 14.5622 7.68093 14.7096 7.82373 14.8188C7.97485 14.9279 8.16782 14.9829 8.40283 14.9829C8.67163 14.9829 8.8739 14.9195 9.0083 14.7935C9.15098 14.659 9.28474 14.4447 9.41064 14.1509L9.92432 12.9419H14.0806L14.6021 14.1509C14.7196 14.4363 14.8543 14.6464 15.0054 14.7808C15.165 14.9152 15.3877 14.9829 15.6733 14.9829C15.9001 14.9829 16.0852 14.9323 16.228 14.8315C16.3707 14.7224 16.4548 14.5749 16.48 14.3901C16.5135 14.197 16.4758 13.9869 16.3667 13.7603L13.1157 6.69189C12.9897 6.40629 12.8337 6.20071 12.6489 6.07471C12.4642 5.94038 12.2499 5.87256 12.0063 5.87256Z" fill="black"/>
</svg>
