<svg viewBox="0 0 24 24" fill="none" xmlns="http://www.w3.org/2000/svg" width="24" height="24">
<path d="M13.709 11.3H10.291L11.978 7.278H12.008L13.709 11.3Z" fill="black"/>
<path fill-rule="evenodd" clip-rule="evenodd" d="M20.82 2.28C21.317 2.28 21.72 2.683 21.72 3.18V20.82C21.72 21.317 21.317 21.72 20.82 21.72H3.18C2.683 21.72 2.28 21.317 2.28 20.82V3.18C2.28 2.683 2.683 2.28 3.18 2.28H20.82ZM6.386 17.347C5.939 17.347 5.576 17.709 5.576 18.156 5.576 18.604 5.939 18.966 6.386 18.966H17.613C18.06 18.966 18.423 18.604 18.423 18.156 18.422 17.709 18.06 17.347 17.613 17.347H6.386ZM12.008 4.647C11.715 4.647 11.458 4.728 11.237 4.89 11.015 5.041 10.824 5.288 10.662 5.63L6.792 14.112C6.661 14.384 6.616 14.631 6.656 14.853 6.706 15.075 6.817 15.252 6.988 15.383 7.17 15.513 7.401 15.579 7.683 15.579 8.006 15.579 8.249 15.503 8.41 15.352 8.581 15.191 8.742 14.934 8.893 14.581L9.509 13.13H14.497L15.123 14.581C15.264 14.924 15.425 15.176 15.606 15.337 15.798 15.498 16.065 15.579 16.408 15.579 16.68 15.579 16.902 15.519 17.074 15.398 17.245 15.267 17.346 15.09 17.376 14.868 17.416 14.636 17.371 14.384 17.24 14.112L13.339 5.63C13.188 5.288 13 5.041 12.779 4.89 12.557 4.728 12.3 4.647 12.008 4.647Z" fill="black"/>
</svg>