<svg width="24" height="24" viewBox="0 0 24 24" fill="none" xmlns="http://www.w3.org/2000/svg">
<path fill-rule="evenodd" clip-rule="evenodd" d="M14.25 2.25C14.4489 2.25 14.6396 2.32907 14.7803 2.46973L20.0303 7.71973C20.1709 7.86038 20.25 8.05109 20.25 8.25V20.25C20.25 20.6478 20.0919 21.0292 19.8105 21.3105C19.5292 21.5919 19.1478 21.75 18.75 21.75H5.25C4.85218 21.75 4.47076 21.5919 4.18945 21.3105C3.90815 21.0292 3.75 20.6478 3.75 20.25V3.75C3.75 3.35217 3.90815 2.97076 4.18945 2.68945C4.47076 2.40815 4.85217 2.25 5.25 2.25H14.25ZM7.5 16.5C7.0858 16.5 6.75002 16.8358 6.75 17.25C6.75 17.6642 7.08579 18 7.5 18H10.5C10.9142 18 11.25 17.6642 11.25 17.25C11.25 16.8358 10.9142 16.5 10.5 16.5H7.5ZM13.5 16.5C13.0858 16.5 12.75 16.8358 12.75 17.25C12.75 17.6642 13.0858 18 13.5 18H16.5C16.9142 18 17.25 17.6642 17.25 17.25C17.25 16.8358 16.9142 16.5 16.5 16.5H13.5ZM7.5 13.5C7.0858 13.5 6.75002 13.8358 6.75 14.25C6.75 14.6642 7.08579 15 7.5 15H10.5C10.9142 15 11.25 14.6642 11.25 14.25C11.25 13.8358 10.9142 13.5 10.5 13.5H7.5ZM13.5 13.5C13.0858 13.5 12.75 13.8358 12.75 14.25C12.75 14.6642 13.0858 15 13.5 15H16.5C16.9142 15 17.25 14.6642 17.25 14.25C17.25 13.8358 16.9142 13.5 16.5 13.5H13.5ZM7.5 10.5C7.08579 10.5 6.75 10.8358 6.75 11.25C6.75 11.6642 7.08579 12 7.5 12H10.5C10.9142 12 11.25 11.6642 11.25 11.25C11.25 10.8358 10.9142 10.5 10.5 10.5H7.5ZM13.5 10.5C13.0858 10.5 12.75 10.8358 12.75 11.25C12.75 11.6642 13.0858 12 13.5 12H16.5C16.9142 12 17.25 11.6642 17.25 11.25C17.25 10.8358 16.9142 10.5 16.5 10.5H13.5ZM14.3555 8.11621H18.1162L14.3555 4.35547V8.11621Z" fill="black"/>
</svg>
