<svg width="24" height="24" viewBox="0 0 24 24" fill="none" xmlns="http://www.w3.org/2000/svg">
<path d="M19.4989 2.99756H4.49901C4.10119 2.99756 3.71966 3.15559 3.43836 3.4369C3.15706 3.7182 2.99902 4.09973 2.99902 4.49755V19.4974C2.99902 19.8953 3.15706 20.2768 3.43836 20.5581C3.71966 20.8394 4.10119 20.9974 4.49901 20.9974H19.4989C19.8967 20.9974 20.2782 20.8394 20.5595 20.5581C20.8409 20.2768 20.9989 19.8953 20.9989 19.4974V4.49755C20.9989 4.09973 20.8409 3.7182 20.5595 3.4369C20.2782 3.15559 19.8967 2.99756 19.4989 2.99756ZM11.0296 14.0281L8.02961 17.0281C7.95996 17.0978 7.87724 17.1531 7.78619 17.1909C7.69514 17.2286 7.59755 17.248 7.49899 17.248C7.40043 17.248 7.30283 17.2286 7.21179 17.1909C7.12074 17.1531 7.03802 17.0978 6.96837 17.0281L5.46838 15.5281C5.32765 15.3874 5.24859 15.1965 5.24859 14.9975C5.24859 14.7984 5.32765 14.6076 5.46838 14.4668C5.60911 14.3261 5.79998 14.2471 5.999 14.2471C6.19802 14.2471 6.38889 14.3261 6.52962 14.4668L7.49899 15.4372L9.96834 12.9669C10.1091 12.8261 10.2999 12.7471 10.499 12.7471C10.698 12.7471 10.8889 12.8261 11.0296 12.9669C11.1703 13.1076 11.2494 13.2985 11.2494 13.4975C11.2494 13.6965 11.1703 13.8874 11.0296 14.0281ZM11.0296 8.02815L8.02961 11.0281C7.95996 11.0979 7.87724 11.1532 7.78619 11.1909C7.69514 11.2287 7.59755 11.2481 7.49899 11.2481C7.40043 11.2481 7.30283 11.2287 7.21179 11.1909C7.12074 11.1532 7.03802 11.0979 6.96837 11.0281L5.46838 9.52813C5.3987 9.45845 5.34342 9.37573 5.30571 9.28468C5.268 9.19364 5.24859 9.09606 5.24859 8.99751C5.24859 8.79849 5.32765 8.60762 5.46838 8.46689C5.60911 8.32616 5.79998 8.2471 5.999 8.2471C6.19802 8.2471 6.38889 8.32616 6.52962 8.46689L7.49899 9.4372L9.96834 6.9669C10.1091 6.82617 10.2999 6.74711 10.499 6.74711C10.698 6.74711 10.8889 6.82617 11.0296 6.9669C11.1703 7.10763 11.2494 7.2985 11.2494 7.49752C11.2494 7.69655 11.1703 7.88742 11.0296 8.02815ZM17.9989 15.7475H13.4989C13.3 15.7475 13.1093 15.6684 12.9686 15.5278C12.828 15.3871 12.7489 15.1964 12.7489 14.9975C12.7489 14.7986 12.828 14.6078 12.9686 14.4671C13.1093 14.3265 13.3 14.2475 13.4989 14.2475H17.9989C18.1978 14.2475 18.3886 14.3265 18.5292 14.4671C18.6699 14.6078 18.7489 14.7986 18.7489 14.9975C18.7489 15.1964 18.6699 15.3871 18.5292 15.5278C18.3886 15.6684 18.1978 15.7475 17.9989 15.7475ZM17.9989 9.74751H13.4989C13.3 9.74751 13.1093 9.66849 12.9686 9.52784C12.828 9.38719 12.7489 9.19642 12.7489 8.99751C12.7489 8.7986 12.828 8.60784 12.9686 8.46719C13.1093 8.32654 13.3 8.24752 13.4989 8.24752H17.9989C18.1978 8.24752 18.3886 8.32654 18.5292 8.46719C18.6699 8.60784 18.7489 8.7986 18.7489 8.99751C18.7489 9.19642 18.6699 9.38719 18.5292 9.52784C18.3886 9.66849 18.1978 9.74751 17.9989 9.74751Z" fill="black"/>
</svg>
