<svg width="24" height="24" viewBox="0 0 24 24" fill="none" xmlns="http://www.w3.org/2000/svg">
<path d="M19.4989 2.99927H4.49901C4.10119 2.99927 3.71966 3.1573 3.43836 3.4386C3.15706 3.71991 2.99902 4.10143 2.99902 4.49926V19.4991C2.99902 19.897 3.15706 20.2785 3.43836 20.5598C3.71966 20.8411 4.10119 20.9991 4.49901 20.9991H19.4989C19.8967 20.9991 20.2782 20.8411 20.5595 20.5598C20.8409 20.2785 20.9989 19.897 20.9989 19.4991V4.49926C20.9989 4.10143 20.8409 3.71991 20.5595 3.4386C20.2782 3.1573 19.8967 2.99927 19.4989 2.99927ZM16.4989 6.74924H14.9914C14.6422 6.74894 14.3038 6.87051 14.0346 7.093C13.7654 7.31548 13.5822 7.62493 13.5168 7.96798L12.9027 11.2492H15.7489C15.9478 11.2492 16.1386 11.3282 16.2793 11.4689C16.4199 11.6095 16.4989 11.8003 16.4989 11.9992C16.4989 12.1981 16.4199 12.3889 16.2793 12.5295C16.1386 12.6702 15.9478 12.7492 15.7489 12.7492H12.6215L11.9549 16.3023C11.8259 16.99 11.4606 17.6109 10.9222 18.0577C10.3838 18.5045 9.70614 18.7491 9.00648 18.7491H7.49899C7.30008 18.7491 7.10931 18.6701 6.96866 18.5295C6.82801 18.3888 6.74899 18.1981 6.74899 17.9992C6.74899 17.8002 6.82801 17.6095 6.96866 17.4688C7.10931 17.3282 7.30008 17.2492 7.49899 17.2492H9.00648C9.35572 17.2495 9.69412 17.1279 9.96333 16.9054C10.2325 16.6829 10.4157 16.3735 10.4812 16.0304L11.0952 12.7492H8.24898C8.05007 12.7492 7.85931 12.6702 7.71866 12.5295C7.57801 12.3889 7.49899 12.1981 7.49899 11.9992C7.49899 11.8003 7.57801 11.6095 7.71866 11.4689C7.85931 11.3282 8.05007 11.2492 8.24898 11.2492H11.3765L12.043 7.69611C12.172 7.00844 12.5373 6.38749 13.0757 5.94068C13.6141 5.49386 14.2918 5.24928 14.9914 5.24925H16.4989C16.6978 5.24925 16.8886 5.32827 17.0292 5.46892C17.1699 5.60957 17.2489 5.80033 17.2489 5.99924C17.2489 6.19816 17.1699 6.38892 17.0292 6.52957C16.8886 6.67022 16.6978 6.74924 16.4989 6.74924Z" fill="black"/>
</svg>
