<svg width="24" height="24" viewBox="0 0 24 24" fill="none" xmlns="http://www.w3.org/2000/svg">
<path d="M16.5365 12.6036L19.8662 12.6036L17.4903 10.4265L17.3782 10.3118C17.2721 10.1913 17.1856 10.054 17.1227 9.90549C17.039 9.70792 16.9984 9.49478 17.0041 9.2803C17.01 9.06555 17.0624 8.85418 17.1568 8.66124C17.2513 8.46825 17.3857 8.29719 17.5518 8.16085L17.5665 8.14915L21.0211 5.46026C21.2696 5.17146 21.4001 4.79912 21.3834 4.41733C21.366 4.01988 21.1917 3.6456 20.8984 3.37684C20.6051 3.10807 20.217 2.96699 19.8196 2.98434C19.4378 3.00101 19.0789 3.16408 18.8129 3.43679L16.4346 7.11201L16.4242 7.12767C16.3029 7.30502 16.1442 7.45376 15.9602 7.56472C15.7762 7.67563 15.5702 7.74623 15.3568 7.77078C15.1436 7.79521 14.9277 7.77332 14.7236 7.70718C14.5192 7.64088 14.331 7.53151 14.1726 7.38634L10.8548 4.34618C10.7082 4.2118 10.5141 4.14126 10.3154 4.14993C10.1167 4.15861 9.92956 4.24579 9.79517 4.39245L8.7821 5.49802L16.5365 12.6036Z" fill="black"/>
<path d="M7.82335 5.00343C7.51788 4.72368 7.04347 4.74452 6.76371 5.04999C6.48396 5.35546 6.5048 5.82987 6.81027 6.10963L7.31681 5.55653L7.82335 5.00343ZM2.24992 11.0836L1.6971 10.5768L1.18998 11.1299L1.74338 11.6367L2.24992 11.0836ZM8.83693 3.89916L8.28411 3.39231V3.39231L8.83693 3.89916ZM9.87741 3.41424L9.91011 4.16353L9.91011 4.16353L9.87741 3.41424ZM10.9562 3.80668L11.4628 3.25358V3.25358L10.9562 3.80668ZM14.274 6.84515L14.7805 6.29206L14.7805 6.29205L14.274 6.84515ZM14.5493 7.00552L14.318 7.71897L14.318 7.71897L14.5493 7.00552ZM14.8664 7.03719L14.952 7.78228L14.952 7.78228L14.8664 7.03719ZM15.3997 6.71578L16.0185 7.13945L16.024 7.1315L16.0292 7.12342L15.3997 6.71578ZM17.8208 2.97659L17.268 2.46974L17.2255 2.51613L17.1913 2.56895L17.8208 2.97659ZM20.9998 2.83787L21.5063 2.28477L20.9998 2.83787ZM21.7276 4.39773L22.4768 4.365V4.365L21.7276 4.39773ZM21.1386 6.01506L21.5992 6.60693L21.6489 6.56828L21.6914 6.5219L21.1386 6.01506ZM17.6226 8.75156L17.1619 8.15969L17.1543 8.1656L17.1469 8.17171L17.6226 8.75156ZM17.3487 9.31055L16.599 9.29013L16.599 9.29014L17.3487 9.31055ZM17.4079 9.62349L16.7174 9.91632L16.7174 9.91633L17.4079 9.62349ZM17.5917 9.88362L18.0983 9.33052L18.0982 9.3305L17.5917 9.88362ZM20.4029 13.4752C20.7084 13.7549 21.1828 13.7341 21.4626 13.4286C21.7423 13.1232 21.7215 12.6487 21.416 12.369L20.9095 12.9221L20.4029 13.4752ZM3.90885 12.6025C3.62893 12.9078 3.64951 13.3822 3.95482 13.6621C4.26014 13.9421 4.73456 13.9215 5.01449 13.6162L4.46167 13.1093L3.90885 12.6025ZM8.05464 10.3003C8.33457 9.99494 8.31398 9.52051 8.00867 9.24059C7.70336 8.96067 7.22893 8.98125 6.94901 9.28656L7.50183 9.79341L8.05464 10.3003ZM2.24988 12.6118C1.83566 12.6118 1.49988 12.9475 1.49988 13.3618C1.49988 13.776 1.83566 14.1118 2.24988 14.1118L2.24988 13.3618L2.24988 12.6118ZM21.7499 14.1118C22.1641 14.1118 22.4999 13.776 22.4999 13.3618C22.4999 12.9475 22.1641 12.6118 21.7499 12.6118V13.3618V14.1118ZM2.24939 13.3554V12.6054C1.83518 12.6054 1.49939 12.9412 1.49939 13.3554H2.24939ZM21.7494 13.3554H22.4994C22.4994 12.9412 22.1636 12.6054 21.7494 12.6054V13.3554ZM21.7494 21.7514V22.5014C22.1636 22.5014 22.4994 22.1656 22.4994 21.7514H21.7494ZM2.24939 21.7514H1.49939C1.49939 22.1656 1.83518 22.5014 2.24939 22.5014V21.7514ZM7.94736 16.2817C8.26557 16.0165 8.30856 15.5436 8.04339 15.2254C7.77821 14.9072 7.30529 14.8642 6.98708 15.1293L7.46722 15.7055L7.94736 16.2817ZM5.24988 17.5533L4.76974 16.9771L4.07834 17.5533L4.76974 18.1295L5.24988 17.5533ZM6.98708 19.9772C7.30529 20.2424 7.77821 20.1994 8.04339 19.8812C8.30856 19.563 8.26557 19.0901 7.94736 18.8249L7.46722 19.4011L6.98708 19.9772ZM17.01 15.1293C16.6918 14.8642 16.2189 14.9072 15.9537 15.2254C15.6886 15.5436 15.7316 16.0165 16.0498 16.2817L16.5299 15.7055L17.01 15.1293ZM18.7472 17.5533L19.2274 18.1295L19.9188 17.5533L19.2274 16.9771L18.7472 17.5533ZM16.0498 18.8249C15.7316 19.0901 15.6886 19.563 15.9537 19.8812C16.2189 20.1994 16.6918 20.2424 17.01 19.9772L16.5299 19.4011L16.0498 18.8249ZM13.6374 15.619C13.779 15.2298 13.5782 14.7994 13.1889 14.6579C12.7996 14.5163 12.3693 14.7171 12.2277 15.1064L12.9326 15.3627L13.6374 15.619ZM10.3623 20.2364C10.2207 20.6257 10.4216 21.056 10.8108 21.1976C11.2001 21.3391 11.6304 21.1383 11.772 20.749L11.0671 20.4927L10.3623 20.2364ZM16.5365 12.6036L16.0298 13.1565L16.2448 13.3536H16.5365V12.6036ZM19.8662 12.6036V13.3536L21.7948 13.3536L20.3729 12.0506L19.8662 12.6036ZM17.4903 10.4265L16.9541 10.9509L16.9685 10.9656L16.9836 10.9795L17.4903 10.4265ZM17.3782 10.3118L16.8153 10.8075L16.8283 10.8222L16.8419 10.8362L17.3782 10.3118ZM17.1227 9.90549L16.4321 10.198L16.4321 10.1982L17.1227 9.90549ZM17.0041 9.2803L16.2544 9.25989L16.2544 9.26016L17.0041 9.2803ZM17.1568 8.66124L16.4832 8.33141L16.4832 8.33148L17.1568 8.66124ZM17.5518 8.16085L17.0845 7.57407L17.0759 7.58114L17.5518 8.16085ZM17.5665 8.14915L17.1058 7.55726L17.0993 7.56243L17.5665 8.14915ZM21.0211 5.46026L21.4818 6.05211L21.5408 6.00615L21.5896 5.94943L21.0211 5.46026ZM21.3834 4.41733L20.6341 4.45004V4.45004L21.3834 4.41733ZM20.8984 3.37684L20.3917 3.92979L20.3917 3.92979L20.8984 3.37684ZM19.8196 2.98434L19.8523 3.73363L19.8523 3.73363L19.8196 2.98434ZM18.8129 3.43679L18.2761 2.91305L18.2239 2.96656L18.1832 3.02932L18.8129 3.43679ZM16.4346 7.11201L17.0599 7.52625L17.0643 7.51947L16.4346 7.11201ZM16.4242 7.12767L17.0433 7.55123L17.0495 7.54188L16.4242 7.12767ZM15.9602 7.56472L16.3474 8.20704L16.3475 8.20699L15.9602 7.56472ZM15.3568 7.77078L15.4422 8.5159L15.4425 8.51587L15.3568 7.77078ZM14.7236 7.70718L14.4922 8.42059L14.4924 8.42065L14.7236 7.70718ZM14.1726 7.38634L14.6793 6.83339L14.6793 6.83338L14.1726 7.38634ZM10.8548 4.34618L10.3481 4.89914V4.89914L10.8548 4.34618ZM10.3154 4.14993L10.2827 3.40065V3.40065L10.3154 4.14993ZM9.79517 4.39245L9.24222 3.88575L9.24222 3.88575L9.79517 4.39245ZM8.7821 5.49802L8.22915 4.99132L7.72245 5.54428L8.27541 6.05098L8.7821 5.49802ZM15.8688 13.3886L16.3753 12.8355L7.82335 5.00343L7.31681 5.55653L6.81027 6.10963L15.3622 13.9417L15.8688 13.3886ZM4.73479 13.3593L5.24133 12.8062L2.75646 10.5305L2.24992 11.0836L1.74338 11.6367L4.22825 13.9124L4.73479 13.3593ZM2.24992 11.0836L2.80274 11.5905L9.38974 4.406L8.83693 3.89916L8.28411 3.39231L1.6971 10.5768L2.24992 11.0836ZM8.83693 3.89916L9.38974 4.406C9.52409 4.25948 9.71125 4.1722 9.91011 4.16353L9.87741 3.41424L9.84472 2.66495C9.24868 2.69096 8.6873 2.95255 8.28411 3.39231L8.83693 3.89916ZM9.87741 3.41424L9.91011 4.16353C10.109 4.15485 10.3031 4.22549 10.4497 4.35978L10.9562 3.80668L11.4628 3.25358C11.0228 2.85063 10.4408 2.63894 9.84472 2.66495L9.87741 3.41424ZM10.9562 3.80668L10.4497 4.35978L13.7674 7.39825L14.274 6.84515L14.7805 6.29205L11.4628 3.25358L10.9562 3.80668ZM14.274 6.84515L13.7674 7.39823C13.9259 7.54335 14.1136 7.65272 14.318 7.71897L14.5493 7.00552L14.7806 6.29208L14.7805 6.29206L14.274 6.84515ZM14.5493 7.00552L14.318 7.71897C14.5224 7.78522 14.7386 7.80681 14.952 7.78228L14.8664 7.03719L14.7807 6.29209L14.7806 6.29208L14.5493 7.00552ZM14.8664 7.03719L14.952 7.78228C15.1654 7.75775 15.3711 7.68768 15.5551 7.57679L15.168 6.93442L14.7808 6.29206L14.7807 6.29209L14.8664 7.03719ZM15.168 6.93442L15.5551 7.57679C15.7391 7.46589 15.8972 7.31676 16.0185 7.13945L15.3997 6.71578L14.7808 6.29212L14.7808 6.29206L15.168 6.93442ZM15.3997 6.71578L16.0292 7.12342L18.4504 3.38423L17.8208 2.97659L17.1913 2.56895L14.7701 6.30814L15.3997 6.71578ZM17.8208 2.97659L18.3736 3.48344C18.6424 3.19034 19.0167 3.01585 19.4143 2.9985L19.3816 2.24921L19.3489 1.49993C18.5541 1.53461 17.8056 1.88341 17.268 2.46974L17.8208 2.97659ZM19.3816 2.24921L19.4143 2.9985C19.8118 2.98115 20.2 3.12237 20.4932 3.39097L20.9998 2.83787L21.5063 2.28477C20.9197 1.74752 20.1436 1.46525 19.3489 1.49993L19.3816 2.24921ZM21.7276 4.39773L20.9783 4.43047C20.9956 4.82745 20.8545 5.21513 20.5858 5.50821L21.1386 6.01506L21.6914 6.5219C22.229 5.93556 22.5116 5.1597 22.4768 4.365L21.7276 4.39773ZM21.1386 6.01506L20.6779 5.42319L17.1619 8.15969L17.6226 8.75156L18.0832 9.34342L21.5992 6.60693L21.1386 6.01506ZM17.6226 8.75156L17.1469 8.17171C16.9808 8.30798 16.8459 8.47835 16.7513 8.67132L17.4248 9.0013L18.0983 9.33128L18.0982 9.3314L17.6226 8.75156ZM17.4248 9.0013L16.7513 8.67132C16.6568 8.86428 16.6048 9.07532 16.599 9.29013L17.3487 9.31055L18.0984 9.33098L18.0983 9.33128L17.4248 9.0013ZM17.3487 9.31055L16.599 9.29014C16.5931 9.50495 16.6335 9.7185 16.7174 9.91632L17.4079 9.62349L18.0983 9.33066L18.0984 9.33097L17.3487 9.31055ZM17.4079 9.62349L16.7174 9.91633C16.8013 10.1142 16.9267 10.2916 17.0852 10.4367L17.5917 9.88362L18.0982 9.3305L18.0983 9.33065L17.4079 9.62349ZM20.9998 2.83787L20.4932 3.39097C20.7865 3.65955 20.9609 4.03349 20.9783 4.43047L21.7276 4.39773L22.4768 4.365C22.4421 3.57031 22.093 2.82204 21.5063 2.28477L20.9998 2.83787ZM17.5917 9.88362L17.0852 10.4367L20.4029 13.4752L20.9095 12.9221L21.416 12.369L18.0983 9.33052L17.5917 9.88362ZM4.46167 13.1093L5.01449 13.6162L8.05464 10.3003L7.50183 9.79341L6.94901 9.28656L3.90885 12.6025L4.46167 13.1093ZM2.24988 13.3618L2.24988 14.1118L21.7499 14.1118V13.3618V12.6118L2.24988 12.6118L2.24988 13.3618ZM2.24939 13.3554V14.1054H21.7494V13.3554V12.6054H2.24939V13.3554ZM21.7494 13.3554H20.9994V21.7514H21.7494H22.4994V13.3554H21.7494ZM21.7494 21.7514V21.0014H2.24939V21.7514V22.5014H21.7494V21.7514ZM2.24939 21.7514H2.99939V13.3554H2.24939H1.49939V21.7514H2.24939ZM7.46722 15.7055L6.98708 15.1293L4.76974 16.9771L5.24988 17.5533L5.73002 18.1295L7.94736 16.2817L7.46722 15.7055ZM5.24988 17.5533L4.76974 18.1295L6.98708 19.9772L7.46722 19.4011L7.94736 18.8249L5.73002 16.9771L5.24988 17.5533ZM16.5299 15.7055L16.0498 16.2817L18.2671 18.1295L18.7472 17.5533L19.2274 16.9771L17.01 15.1293L16.5299 15.7055ZM18.7472 17.5533L18.2671 16.9771L16.0498 18.8249L16.5299 19.4011L17.01 19.9772L19.2274 18.1295L18.7472 17.5533ZM12.9326 15.3627L12.2277 15.1064L10.3623 20.2364L11.0671 20.4927L11.772 20.749L13.6374 15.619L12.9326 15.3627ZM16.5365 12.6036V13.3536L19.8662 13.3536V12.6036V11.8536L16.5365 11.8536V12.6036ZM19.8662 12.6036L20.3729 12.0506L17.997 9.87354L17.4903 10.4265L16.9836 10.9795L19.3595 13.1565L19.8662 12.6036ZM17.4903 10.4265L18.0266 9.90213L17.9144 9.78745L17.3782 10.3118L16.8419 10.8362L16.9541 10.9509L17.4903 10.4265ZM17.3782 10.3118L17.941 9.81612C17.8881 9.75602 17.8447 9.68721 17.8132 9.6128L17.1227 9.90549L16.4321 10.1982C16.5265 10.4207 16.656 10.6266 16.8153 10.8075L17.3782 10.3118ZM17.1227 9.90549L17.8133 9.61298C17.7712 9.51353 17.751 9.40695 17.7539 9.30043L17.0041 9.2803L16.2544 9.26016C16.2457 9.58262 16.3068 9.90232 16.4321 10.198L17.1227 9.90549ZM17.0041 9.2803L17.7539 9.30071C17.7568 9.19422 17.7828 9.08826 17.8304 8.99099L17.1568 8.66124L16.4832 8.33148C16.3419 8.6201 16.2632 8.93687 16.2544 9.25989L17.0041 9.2803ZM17.1568 8.66124L17.8304 8.99107C17.8785 8.89285 17.946 8.80753 18.0276 8.74056L17.5518 8.16085L17.0759 7.58114C16.8253 7.78685 16.6241 8.04364 16.4832 8.33141L17.1568 8.66124ZM17.5518 8.16085L18.0189 8.74757L18.0336 8.73587L17.5665 8.14915L17.0993 7.56243L17.0846 7.57413L17.5518 8.16085ZM17.5665 8.14915L18.0271 8.741L21.4818 6.05211L21.0211 5.46026L20.5605 4.8684L17.1058 7.55729L17.5665 8.14915ZM21.0211 5.46026L21.5896 5.94943C21.9615 5.51728 22.1578 4.95873 22.1327 4.38461L21.3834 4.41733L20.6341 4.45004C20.6424 4.63952 20.5778 4.82563 20.4526 4.97109L21.0211 5.46026ZM21.3834 4.41733L22.1327 4.38461C22.1067 3.78865 21.8452 3.22717 21.4051 2.82388L20.8984 3.37684L20.3917 3.92979C20.5382 4.06404 20.6254 4.25112 20.6341 4.45004L21.3834 4.41733ZM20.8984 3.37684L21.4051 2.82388C20.965 2.42059 20.3828 2.20903 19.7869 2.23505L19.8196 2.98434L19.8523 3.73363C20.0512 3.72494 20.2452 3.79555 20.3917 3.92979L20.8984 3.37684ZM19.8196 2.98434L19.7869 2.23505C19.2115 2.26017 18.6732 2.50593 18.2761 2.91305L18.8129 3.43679L19.3497 3.96052C19.4847 3.82223 19.6641 3.74184 19.8523 3.73363L19.8196 2.98434ZM18.8129 3.43679L18.1832 3.02932L15.805 6.70455L16.4346 7.11201L17.0643 7.51947L19.4426 3.84425L18.8129 3.43679ZM16.4346 7.11201L15.8094 6.6978L15.799 6.71346L16.4242 7.12767L17.0495 7.54188L17.0599 7.52623L16.4346 7.11201ZM16.4242 7.12767L15.8053 6.70416C15.7457 6.79126 15.6665 6.86598 15.5729 6.92245L15.9602 7.56472L16.3475 8.20699C16.6218 8.04154 16.8601 7.81877 17.0432 7.55119L16.4242 7.12767ZM15.9602 7.56472L15.573 6.9224C15.4802 6.97832 15.3769 7.01352 15.2711 7.02569L15.3568 7.77078L15.4425 8.51587C15.7635 8.47895 16.0722 8.37294 16.3474 8.20704L15.9602 7.56472ZM15.3568 7.77078L15.2714 7.02565C15.1655 7.03779 15.0576 7.027 14.9548 6.99371L14.7236 7.70718L14.4924 8.42065C14.7979 8.51965 15.1217 8.55262 15.4422 8.5159L15.3568 7.77078ZM14.7236 7.70718L14.955 6.99377C14.8522 6.9604 14.758 6.90549 14.6793 6.83339L14.1726 7.38634L13.6659 7.93928C13.904 8.15753 14.1863 8.32136 14.4922 8.42059L14.7236 7.70718ZM14.1726 7.38634L14.6793 6.83338L11.3615 3.79322L10.8548 4.34618L10.3481 4.89914L13.6659 7.93929L14.1726 7.38634ZM10.8548 4.34618L11.3615 3.79322C11.0681 3.52432 10.6799 3.3833 10.2827 3.40065L10.3154 4.14993L10.3481 4.89922L10.3481 4.89914L10.8548 4.34618ZM10.3154 4.14993L10.2827 3.40065C9.88547 3.41799 9.51112 3.59229 9.24222 3.88575L9.79517 4.39245L10.3481 4.89914L10.3481 4.89922L10.3154 4.14993ZM9.79517 4.39245L9.24222 3.88575L8.22915 4.99132L8.7821 5.49802L9.33506 6.00471L10.3481 4.89914L9.79517 4.39245ZM8.7821 5.49802L8.27541 6.05098L16.0298 13.1565L16.5365 12.6036L17.0431 12.0506L9.2888 4.94506L8.7821 5.49802Z" fill="black"/>
</svg>
