<svg width="24" height="24" viewBox="0 0 24 24" fill="none" xmlns="http://www.w3.org/2000/svg">
<g clip-path="url(#clip0_2037_2346)">
<path d="M23.9989 11.9978C23.9992 12.2473 23.9364 12.4929 23.8163 12.7115C23.6961 12.9302 23.5225 13.1149 23.3117 13.2484L15.0439 18.5134C14.819 18.6572 14.5595 18.738 14.2926 18.7473C14.0257 18.7567 13.7613 18.6942 13.5268 18.5664C13.2923 18.4386 13.0964 18.2502 12.9596 18.0209C12.8228 17.7916 12.75 17.5298 12.7489 17.2627V13.7659L5.29401 18.5134C5.06903 18.6572 4.80955 18.738 4.54268 18.7473C4.27581 18.7567 4.01133 18.6942 3.77685 18.5664C3.54238 18.4386 3.3465 18.2502 3.20968 18.0209C3.07286 17.7916 3.00011 17.5298 2.99902 17.2627V6.73282C3.00011 6.46579 3.07286 6.20394 3.20968 5.97463C3.3465 5.74531 3.54238 5.55693 3.77685 5.42915C4.01133 5.30138 4.27581 5.23889 4.54268 5.24823C4.80955 5.25756 5.06903 5.33836 5.29401 5.4822L12.7489 10.2297V6.73282C12.75 6.46579 12.8228 6.20394 12.9596 5.97463C13.0964 5.74531 13.2923 5.55693 13.5268 5.42915C13.7613 5.30138 14.0257 5.23889 14.2926 5.24823C14.5595 5.25756 14.819 5.33836 15.0439 5.4822L23.3117 10.7472C23.5225 10.8806 23.6961 11.0653 23.8163 11.284C23.9364 11.5027 23.9992 11.7483 23.9989 11.9978Z" fill="black"/>
</g>
<defs>
<clipPath id="clip0_2037_2346">
<rect width="23.9998" height="23.9998" fill="white"/>
</clipPath>
</defs>
</svg>
