<svg width="24" height="24" viewBox="0 0 24 24" fill="none" xmlns="http://www.w3.org/2000/svg">
<path fill-rule="evenodd" clip-rule="evenodd" d="M19.3501 3.8999C19.7642 3.90001 20.1001 4.23575 20.1001 4.6499V19.3501C20.1 19.7642 19.7642 20.1 19.3501 20.1001H4.6499C4.23575 20.1001 3.90001 19.7642 3.8999 19.3501V4.6499C3.8999 4.23569 4.23569 3.8999 4.6499 3.8999H19.3501ZM7.07959 6.40479C6.7068 6.40479 6.40479 6.7068 6.40479 7.07959V9.26611C6.40495 9.63877 6.7069 9.94189 7.07959 9.94189C7.45214 9.94173 7.75423 9.63867 7.75439 9.26611V7.75439H11.3247V16.2456H9.81299C9.44023 16.2456 9.13824 16.5477 9.13818 16.9204C9.13818 17.2932 9.4402 17.5952 9.81299 17.5952H11.9897C11.993 17.5953 11.9962 17.5962 11.9995 17.5962C12.0026 17.5962 12.0062 17.5953 12.0093 17.5952H14.187C14.5598 17.5952 14.8618 17.2932 14.8618 16.9204C14.8618 16.5477 14.5598 16.2456 14.187 16.2456H12.6743V7.75439H16.2456V9.26611C16.2458 9.63877 16.5487 9.94189 16.9214 9.94189C17.2938 9.94157 17.596 9.63857 17.5962 9.26611V7.07959C17.5962 6.707 17.2939 6.40511 16.9214 6.40479H7.07959Z" fill="black"/>
</svg>
