<svg width="24" height="24" viewBox="0 0 24 24" fill="none" xmlns="http://www.w3.org/2000/svg">
<path d="M19.5 3H4.5C4.10218 3 3.72064 3.15804 3.43934 3.43934C3.15804 3.72064 3 4.10218 3 4.5V19.5C3 19.8978 3.15804 20.2794 3.43934 20.5607C3.72064 20.842 4.10218 21 4.5 21H19.5C19.8978 21 20.2794 20.842 20.5607 20.5607C20.842 20.2794 21 19.8978 21 19.5V4.5C21 4.10218 20.842 3.72064 20.5607 3.43934C20.2794 3.15804 19.8978 3 19.5 3ZM17.25 9C17.25 9.19891 17.171 9.38968 17.0303 9.53033C16.8897 9.67098 16.6989 9.75 16.5 9.75C16.3011 9.75 16.1103 9.67098 15.9697 9.53033C15.829 9.38968 15.75 9.19891 15.75 9V8.25H12.75V16.5H13.875C14.0739 16.5 14.2647 16.579 14.4053 16.7197C14.546 16.8603 14.625 17.0511 14.625 17.25C14.625 17.4489 14.546 17.6397 14.4053 17.7803C14.2647 17.921 14.0739 18 13.875 18H10.125C9.92609 18 9.73532 17.921 9.59467 17.7803C9.45402 17.6397 9.375 17.4489 9.375 17.25C9.375 17.0511 9.45402 16.8603 9.59467 16.7197C9.73532 16.579 9.92609 16.5 10.125 16.5H11.25V8.25H8.25V9C8.25 9.19891 8.17098 9.38968 8.03033 9.53033C7.88968 9.67098 7.69891 9.75 7.5 9.75C7.30109 9.75 7.11032 9.67098 6.96967 9.53033C6.82902 9.38968 6.75 9.19891 6.75 9V7.5C6.75 7.30109 6.82902 7.11032 6.96967 6.96967C7.11032 6.82902 7.30109 6.75 7.5 6.75H16.5C16.6989 6.75 16.8897 6.82902 17.0303 6.96967C17.171 7.11032 17.25 7.30109 17.25 7.5V9Z" fill="black"/>
</svg>
