<svg width="24" height="24" viewBox="0 0 24 24" fill="none" xmlns="http://www.w3.org/2000/svg">
<path d="M13.4989 9.74695V5.99698C13.4988 5.84856 13.5427 5.70344 13.6251 5.58C13.7075 5.45655 13.8247 5.36033 13.9618 5.30352C14.0989 5.24671 14.2498 5.23185 14.3954 5.26084C14.5409 5.28983 14.6746 5.36135 14.7795 5.46636L16.1239 6.81166L18.9682 3.96637C19.1089 3.82564 19.2998 3.74658 19.4988 3.74658C19.6979 3.74658 19.8887 3.82564 20.0295 3.96637C20.1702 4.1071 20.2492 4.29797 20.2492 4.49699C20.2492 4.69601 20.1702 4.88688 20.0295 5.02761L17.1842 7.87197L18.5295 9.21633C18.6345 9.32122 18.706 9.45491 18.735 9.60047C18.764 9.74604 18.7491 9.89693 18.6923 10.034C18.6355 10.1712 18.5393 10.2883 18.4158 10.3707C18.2924 10.4531 18.1473 10.4971 17.9988 10.4969H14.2489C14.05 10.4969 13.8592 10.4179 13.7185 10.2773C13.5779 10.1366 13.4989 9.94586 13.4989 9.74695ZM9.74891 13.4969H5.99893C5.85051 13.4968 5.7054 13.5407 5.58195 13.6231C5.45851 13.7055 5.36229 13.8227 5.30547 13.9598C5.24866 14.0969 5.23381 14.2478 5.26279 14.3934C5.29178 14.539 5.36331 14.6726 5.46831 14.7775L6.81362 16.1219L3.96833 18.9663C3.8276 19.107 3.74854 19.2979 3.74854 19.4969C3.74854 19.6959 3.8276 19.8868 3.96833 20.0275C4.10905 20.1682 4.29992 20.2473 4.49895 20.2473C4.69797 20.2473 4.88884 20.1682 5.02957 20.0275L7.87392 17.1822L9.21829 18.5275C9.32318 18.6325 9.45686 18.704 9.60243 18.733C9.74799 18.762 9.89888 18.7472 10.036 18.6904C10.1731 18.6335 10.2903 18.5373 10.3727 18.4139C10.4551 18.2904 10.499 18.1453 10.4989 17.9969V14.2469C10.4989 14.048 10.4199 13.8572 10.2792 13.7166C10.1386 13.5759 9.94782 13.4969 9.74891 13.4969ZM17.1842 16.1219L18.5295 14.7775C18.6345 14.6726 18.706 14.539 18.735 14.3934C18.764 14.2478 18.7491 14.0969 18.6923 13.9598C18.6355 13.8227 18.5393 13.7055 18.4158 13.6231C18.2924 13.5407 18.1473 13.4968 17.9988 13.4969H14.2489C14.05 13.4969 13.8592 13.5759 13.7185 13.7166C13.5779 13.8572 13.4989 14.048 13.4989 14.2469V17.9969C13.4988 18.1453 13.5427 18.2904 13.6251 18.4139C13.7075 18.5373 13.8247 18.6335 13.9618 18.6904C14.0989 18.7472 14.2498 18.762 14.3954 18.733C14.5409 18.704 14.6746 18.6325 14.7795 18.5275L16.1239 17.1822L18.9682 20.0275C19.0379 20.0972 19.1206 20.1525 19.2117 20.1902C19.3027 20.2279 19.4003 20.2473 19.4988 20.2473C19.5974 20.2473 19.695 20.2279 19.786 20.1902C19.877 20.1525 19.9598 20.0972 20.0295 20.0275C20.0991 19.9578 20.1544 19.8751 20.1921 19.784C20.2298 19.693 20.2492 19.5954 20.2492 19.4969C20.2492 19.3983 20.2298 19.3008 20.1921 19.2097C20.1544 19.1187 20.0991 19.0359 20.0295 18.9663L17.1842 16.1219ZM10.0358 5.30417C9.89875 5.24733 9.74794 5.23239 9.60243 5.26126C9.45692 5.29013 9.32323 5.36151 9.21829 5.46636L7.87392 6.81166L5.02957 3.96637C4.88884 3.82564 4.69797 3.74658 4.49895 3.74658C4.29992 3.74658 4.10905 3.82564 3.96833 3.96637C3.8276 4.1071 3.74854 4.29797 3.74854 4.49699C3.74854 4.69601 3.8276 4.88688 3.96833 5.02761L6.81362 7.87197L5.46831 9.21633C5.36331 9.32122 5.29178 9.45491 5.26279 9.60047C5.23381 9.74604 5.24866 9.89693 5.30547 10.034C5.36229 10.1712 5.45851 10.2883 5.58195 10.3707C5.7054 10.4531 5.85051 10.4971 5.99893 10.4969H9.74891C9.94782 10.4969 10.1386 10.4179 10.2792 10.2773C10.4199 10.1366 10.4989 9.94586 10.4989 9.74695V5.99698C10.4989 5.84865 10.4549 5.70365 10.3724 5.58034C10.29 5.45702 10.1728 5.36091 10.0358 5.30417Z" fill="black"/>
</svg>
