<svg xmlns="http://www.w3.org/2000/svg" width="24" height="24" fill="currentColor" viewBox="0 0 24 24"><path d="M13.62 9.57V5.52a0.81 0.81 0 0 1 1.384-0.574l1.452 1.454 3.072-3.074a0.81 0.81 0 0 1 1.146 1.146l-3.074 3.072 1.454 1.452a0.81 0.81 0 0 1-0.574 1.384h-4.05a0.81 0.81 0 0 1-0.81-0.81M9.57 13.62H5.52a0.81 0.81 0 0 0-0.574 1.384l1.454 1.452-3.074 3.072a0.81 0.81 0 0 0 1.146 1.146l3.072-3.074 1.452 1.454a0.81 0.81 0 0 0 1.384-0.574v-4.05a0.81 0.81 0 0 0-0.81-0.81m0.31-8.849a0.81 0.81 0 0 0-0.884 0.175l-1.452 1.454-3.072-3.074a0.81 0.81 0 0 0-1.146 1.146l3.074 3.072-1.454 1.452A0.81 0.81 0 0 0 5.52 10.38h4.05a0.81 0.81 0 0 0 0.81-0.81V5.52a0.81 0.81 0 0 0-0.5-0.749m7.72 11.683l1.454-1.452a0.81 0.81 0 0 0-0.574-1.383h-4.05a0.81 0.81 0 0 0-0.81 0.81v4.05a0.81 0.81 0 0 0 1.384 0.573l1.452-1.453 3.072 3.073a0.81 0.81 0 0 0 1.146-1.146z"/></svg>