<svg width="24" height="24" viewBox="0 0 24 24" fill="none" xmlns="http://www.w3.org/2000/svg">
<path d="M4.5 21.75V22.5V22.5V21.75ZM19.5 21.75V21V21V21.75ZM20.25 21H21V21H20.25ZM20.25 17.25H19.5V17.25H20.25ZM19.5 16.5V15.75V15.75V16.5ZM4.5 16.5V17.25V17.25V16.5ZM3.75 17.25H3H3.75ZM3.75 21H4.5H3.75ZM4.5 7.5V8.25V7.5ZM19.5 7.5V6.75V7.5ZM20.25 6.75H21V6.75H20.25ZM20.25 3H19.5V3H20.25ZM19.5 2.25V3V2.25ZM4.5 2.25L4.5 1.5L4.5 2.25ZM3.75 3L3 3L3.75 3ZM3.75 6.75H4.5H3.75ZM9.87851 10.0606C9.58562 10.3535 9.58562 10.8284 9.87851 11.1213C10.1714 11.4142 10.6463 11.4142 10.9392 11.1213L10.4088 10.5909L9.87851 10.0606ZM11.9998 8.99995L12.5302 8.46962C12.2373 8.17673 11.7624 8.17673 11.4695 8.46962L11.9998 8.99995ZM13.0605 11.1213C13.3534 11.4142 13.8283 11.4142 14.1212 11.1213C14.414 10.8284 14.414 10.3535 14.1212 10.0606L13.5908 10.5909L13.0605 11.1213ZM11.9995 15.002L11.4692 15.5323L11.9995 16.0626L12.5298 15.5323L11.9995 15.002ZM14.121 13.9414C14.4139 13.6485 14.4139 13.1736 14.121 12.8807C13.8282 12.5878 13.3533 12.5878 13.0604 12.8806L13.5907 13.411L14.121 13.9414ZM10.939 12.8807C10.6462 12.5878 10.1713 12.5878 9.87838 12.8807C9.58548 13.1735 9.58546 13.6484 9.87834 13.9413L10.4087 13.411L10.939 12.8807ZM4.5 21.75V22.5H19.5V21.75V21H4.5V21.75ZM19.5 21.75V22.5C20.3284 22.5 21 21.8284 21 21H20.25H19.5V21V21.75ZM20.25 21H21V17.25H20.25H19.5V21H20.25ZM20.25 17.25H21C21 16.4216 20.3284 15.75 19.5 15.75V16.5V17.25V17.25H20.25ZM19.5 16.5V15.75H4.5V16.5V17.25H19.5V16.5ZM4.5 16.5L4.5 15.75C3.67157 15.75 3 16.4216 3 17.25H3.75H4.5L4.5 17.25L4.5 16.5ZM3.75 17.25H3L3 21H3.75H4.5L4.5 17.25H3.75ZM3.75 21H3C3 21.8284 3.67157 22.5 4.5 22.5L4.5 21.75L4.5 21V21H3.75ZM4.5 7.5V8.25L19.5 8.25V7.5V6.75L4.5 6.75V7.5ZM19.5 7.5V8.25C20.3284 8.25 21 7.57843 21 6.75H20.25H19.5V6.75V7.5ZM20.25 6.75H21V3H20.25H19.5V6.75H20.25ZM20.25 3L21 3C21 2.17157 20.3284 1.5 19.5 1.5V2.25V3V3L20.25 3ZM19.5 2.25V1.5L4.5 1.5L4.5 2.25L4.5 3L19.5 3V2.25ZM4.5 2.25L4.5 1.5C3.67157 1.5 3 2.17157 3 3L3.75 3L4.5 3H4.5L4.5 2.25ZM3.75 3L3 3L3 6.75H3.75H4.5L4.5 3L3.75 3ZM3.75 6.75H3C3 7.57843 3.67157 8.25 4.5 8.25L4.5 7.5L4.5 6.75V6.75H3.75ZM10.4088 10.5909L10.9392 11.1213L12.5302 9.53028L11.9998 8.99995L11.4695 8.46962L9.87851 10.0606L10.4088 10.5909ZM11.9998 8.99995L11.4695 9.53028L13.0605 11.1213L13.5908 10.5909L14.1212 10.0606L12.5302 8.46962L11.9998 8.99995ZM11.9995 9.00916H11.2495V15.002H11.9995H12.7495V9.00916H11.9995ZM13.5907 13.411L13.0604 12.8806L11.4692 14.4716L11.9995 15.002L12.5298 15.5323L14.121 13.9414L13.5907 13.411ZM11.9995 15.002L12.5299 14.4716L10.939 12.8807L10.4087 13.411L9.87834 13.9413L11.4692 15.5323L11.9995 15.002Z" fill="black"/>
</svg>
