<svg width="24" height="24" viewBox="0 0 24 24" fill="none" xmlns="http://www.w3.org/2000/svg">
<path d="M6.75 3C7.57843 3 8.25 3.67157 8.25 4.5V19.5C8.25 20.3284 7.57843 21 6.75 21H3C2.17157 21 1.5 20.3284 1.5 19.5V4.5C1.5 3.67157 2.17157 3 3 3H6.75Z" fill="black"/>
<path d="M21 3C21.8284 3 22.5 3.67157 22.5 4.5V19.5C22.5 20.3284 21.8284 21 21 21H17.25C16.4216 21 15.75 20.3284 15.75 19.5V12.3125L13.9414 14.1221C13.6486 14.4147 13.1737 14.4146 12.8809 14.1221C12.588 13.8292 12.588 13.3534 12.8809 13.0605L13.1914 12.75H10.8105L11.1211 13.0605C11.414 13.3534 11.4139 13.8282 11.1211 14.1211C10.8282 14.414 10.3534 14.414 10.0605 14.1211L8.46973 12.5303C8.17692 12.2374 8.17686 11.7626 8.46973 11.4697L10.0605 9.87891C10.3534 9.58604 10.8282 9.5861 11.1211 9.87891C11.414 10.1718 11.414 10.6466 11.1211 10.9395L10.8105 11.25H13.1914L12.8809 10.9395C12.588 10.6466 12.588 10.1718 12.8809 9.87891C13.1738 9.58616 13.6486 9.58606 13.9414 9.87891L15.75 11.6875V4.5C15.75 3.67157 16.4216 3 17.25 3H21Z" fill="black"/>
</svg>
