<svg xmlns="http://www.w3.org/2000/svg" width="24" height="24" fill="currentColor" viewBox="0 0 24 24"><path d="M23.34 14.43v2.43a1.62 1.62 0 0 1-1.62 1.62h-10.942a0.406 0.406 0 0 1-0.327-0.643l6.235-8.571a0.832 0.832 0 0 0-0.139-1.143 0.81 0.81 0 0 0-1.151 0.163l-7.29 10.03a0.408 0.408 0 0 1-0.332 0.165H2.281a1.62 1.62 0 0 1-1.62-1.62v-2.316c0-0.181 0-0.361 0.013-0.54a0.408 0.408 0 0 1 0.405-0.385h2.822a0.81 0.81 0 0 0 0.81-0.864 0.828 0.828 0 0 0-0.837-0.756H1.463a0.406 0.406 0 0 1-0.393-0.506c1.216-4.439 5.028-7.81 9.671-8.331a0.408 0.408 0 0 1 0.449 0.405v2.762a0.81 0.81 0 0 0 0.864 0.81 0.828 0.828 0 0 0 0.756-0.838V3.563a0.408 0.408 0 0 1 0.449-0.405 11.358 11.358 0 0 1 9.699 8.337 0.406 0.406 0 0 1-0.392 0.506h-2.438a0.828 0.828 0 0 0-0.836 0.756 0.81 0.81 0 0 0 0.81 0.864h2.828a0.408 0.408 0 0 1 0.404 0.391 9.6 9.6 0 0 1 0.006 0.419z"/></svg>