<?xml version="1.0" encoding="utf-8"?>
<svg xmlns="http://www.w3.org/2000/svg" width="512" height="512" viewBox="0 0 512 512">
<path d="M256 16C123.5 16 16 123.5 16 256C16 388.5 123.5 496 256 496C388.5 496 496 388.5 496 256C496 123.5 388.5 16 256 16ZM256 461.7C142.6 461.7 50.3 369.4 50.3 256C50.3 142.6 142.6 50.3 256 50.3C369.4 50.3 461.7 142.6 461.7 256C461.7 369.4 369.4 461.7 256 461.7ZM256 84.6C350.7 84.6 427.4 161.3 427.5 256.1H358.9C358.9 199.3 312.7 153.2 256 153.2C233.8 153.2 213.2 160.2 196.4 172.2L233.8 209.6C240.5 206.4 248.1 204.6 256 204.6C284.4 204.6 307.4 227.6 307.4 256C307.4 284.4 284.4 307.4 256 307.4C227.6 307.4 204.6 284.4 204.6 256C204.6 248 206.4 240.5 209.6 233.8L172.2 196.4C160.3 213.3 153.2 233.8 153.2 256H84.6C84.6 214.8 99.1 177.1 123.3 147.5L110.6 134.8L134.8 110.6L147.5 123.3C177.1 99.1 214.8 84.6 256 84.6Z" fill="black"/>
</svg>
