<?xml version="1.0" encoding="UTF-8"?>
<svg xmlns="http://www.w3.org/2000/svg" width="512" height="512" viewBox="0 0 512 512">
  <path d="M256,16C123.4515,16,16,123.4517,16,256s107.4515,240,240,240,240-107.4518,240-240S388.5485,16,256,16Zm0,445.7143c-113.4312,0-205.7143-92.2831-205.7143-205.7143S142.5688,50.2857,256,50.2857s205.7143,92.2831,205.7143,205.7143-92.2831,205.7143-205.7143,205.7143Z"/>
  <path d="M256,84.5714c-41.1643,0-78.9354,14.5144-108.4874,38.6975l-12.7309-12.7309-24.2437,24.2437,12.7309,12.7309c-24.1831,29.5521-38.6975,67.3231-38.6975,108.4874h68.5715c0-22.1826,7.059-42.7467,19.0476-59.5659l37.3954,37.3954c-3.2126,6.7136-5.0145,14.2311-5.0145,22.1705,0,28.4032,23.0254,51.4285,51.4286,51.4285s51.4286-23.0253,51.4286-51.4285-23.0254-51.4286-51.4286-51.4286c-7.9393,0-15.4569,1.8018-22.1705,5.0145l-37.3954-37.3954c16.8194-11.9887,37.3838-19.0477,59.5659-19.0477,56.7167,0,102.8571,46.1405,102.8571,102.8572h68.5715c0-94.6771-76.7515-171.4286-171.4286-171.4286Z"/>
</svg>
