<svg width="24" height="24" viewBox="0 0 24 24" fill="none" xmlns="http://www.w3.org/2000/svg">
<path d="M21.7479 11.2485H20.966C20.8783 10.1789 20.5982 9.13407 20.1392 8.16411L20.817 7.77317C20.9893 7.67372 21.115 7.50989 21.1665 7.31772C21.218 7.12556 21.1911 6.9208 21.0916 6.7485C20.9922 6.57619 20.8284 6.45045 20.6362 6.39893C20.444 6.34742 20.2393 6.37435 20.067 6.47381L19.3873 6.86662C18.7738 5.98689 18.0095 5.22262 17.1298 4.60914L17.5226 3.92945C17.6221 3.75715 17.649 3.55239 17.5975 3.36023C17.546 3.16806 17.4202 3.00423 17.2479 2.90477C17.0756 2.80532 16.8709 2.77839 16.6787 2.8299C16.4865 2.88141 16.3227 3.00715 16.2232 3.17946L15.8323 3.85727C14.8624 3.39821 13.8175 3.11809 12.748 3.0304V2.24853C12.748 2.04962 12.6689 1.85885 12.5283 1.7182C12.3876 1.57755 12.1969 1.49854 11.998 1.49854C11.7991 1.49854 11.6083 1.57755 11.4676 1.7182C11.327 1.85885 11.248 2.04962 11.248 2.24853V3.0304C10.1785 3.11809 9.13358 3.39821 8.16362 3.85727L7.77269 3.17946C7.67323 3.00715 7.5094 2.88141 7.31724 2.8299C7.12507 2.77839 6.92031 2.80532 6.74801 2.90477C6.5757 3.00423 6.44996 3.16806 6.39845 3.36023C6.34693 3.55239 6.37387 3.75715 6.47332 3.92945L6.86613 4.60914C5.9864 5.22262 5.22213 5.98689 4.60865 6.86662L3.92897 6.47381C3.84365 6.42456 3.74947 6.39261 3.6518 6.37976C3.55413 6.36691 3.45489 6.37343 3.35974 6.39893C3.16757 6.45045 3.00374 6.57619 2.90429 6.7485C2.80483 6.9208 2.7779 7.12556 2.82941 7.31772C2.88092 7.50989 3.00667 7.67372 3.17897 7.77317L3.85678 8.16411C3.39772 9.13407 3.11761 10.1789 3.02991 11.2485H2.24804C2.04913 11.2485 1.85837 11.3275 1.71772 11.4681C1.57706 11.6088 1.49805 11.7995 1.49805 11.9985C1.49805 12.1974 1.57706 12.3881 1.71772 12.5288C1.85837 12.6694 2.04913 12.7484 2.24804 12.7484H3.02991C3.11761 13.818 3.39772 14.8628 3.85678 15.8328L3.17897 16.2237C3.03591 16.3062 2.92408 16.4337 2.86084 16.5862C2.7976 16.7388 2.78649 16.908 2.82923 17.0675C2.87197 17.227 2.96617 17.368 3.09722 17.4685C3.22826 17.569 3.38882 17.6235 3.55397 17.6234C3.68565 17.6238 3.81507 17.5892 3.92897 17.5231L4.60865 17.1303C5.22213 18.01 5.9864 18.7743 6.86613 19.3878L6.47332 20.0675C6.37387 20.2398 6.34693 20.4445 6.39845 20.6367C6.44996 20.8288 6.5757 20.9927 6.74801 21.0921C6.92031 21.1916 7.12507 21.2185 7.31724 21.167C7.5094 21.1155 7.67323 20.9898 7.77269 20.8175L8.16362 20.1396C9.13358 20.5987 10.1785 20.8788 11.248 20.9665V21.7484C11.248 21.9473 11.327 22.1381 11.4676 22.2787C11.6083 22.4194 11.7991 22.4984 11.998 22.4984C12.1969 22.4984 12.3876 22.4194 12.5283 22.2787C12.6689 22.1381 12.748 21.9473 12.748 21.7484V20.9665C13.8175 20.8788 14.8624 20.5987 15.8323 20.1396L16.2232 20.8175C16.3227 20.9898 16.4865 21.1155 16.6787 21.167C16.8709 21.2185 17.0756 21.1916 17.2479 21.0921C17.4202 20.9927 17.546 20.8288 17.5975 20.6367C17.649 20.4445 17.6221 20.2398 17.5226 20.0675L17.1298 19.3878C18.0095 18.7743 18.7738 18.01 19.3873 17.1303L20.067 17.5231C20.1523 17.5724 20.2465 17.6043 20.3441 17.6172C20.4418 17.6301 20.5411 17.6235 20.6362 17.598C20.7314 17.5725 20.8206 17.5285 20.8987 17.4685C20.9769 17.4085 21.0424 17.3337 21.0916 17.2484C21.1912 17.0762 21.2183 16.8715 21.167 16.6794C21.1156 16.4872 20.9901 16.3233 20.8179 16.2237L20.1401 15.8328C20.5991 14.8628 20.8793 13.818 20.967 12.7484H21.7479C21.9468 12.7484 22.1376 12.6694 22.2782 12.5288C22.4189 12.3881 22.4979 12.1974 22.4979 11.9985C22.4979 11.7995 22.4189 11.6088 22.2782 11.4681C22.1376 11.3275 21.9468 11.2485 21.7479 11.2485ZM6.74801 11.9985C6.74762 11.2039 6.92786 10.4197 7.2751 9.70512C7.62234 8.9905 8.12749 8.36418 8.75237 7.87349L11.1317 11.9985L8.75237 16.1234C8.12749 15.6327 7.62234 15.0064 7.2751 14.2918C6.92786 13.5772 6.74762 12.793 6.74801 11.9985ZM11.998 17.2484C11.3306 17.2491 10.6693 17.1218 10.0499 16.8734L12.4311 12.7484H17.1936C17.0116 13.9971 16.3866 15.1387 15.4328 15.9648C14.4789 16.791 13.2598 17.2465 11.998 17.2484ZM12.4311 11.2485L10.0499 7.12349C10.7873 6.82888 11.582 6.70542 12.3741 6.76238C13.1662 6.81935 13.935 7.05527 14.6227 7.45237C15.3105 7.84948 15.8991 8.39742 16.3444 9.05496C16.7897 9.71249 17.08 10.4625 17.1936 11.2485H12.4311Z" fill="black"/>
</svg>
