<svg xmlns="http://www.w3.org/2000/svg" fill="currentColor" viewBox="0 0 24 24" width="24" height="24"><path d="M20.91 12.218q0.006-0.218 0-0.436l1.511-1.888a0.816 0.816 0 0 0 0.15-0.715 10.8 10.8 0 0 0-1.102-2.658 0.816 0.816 0 0 0-0.607-0.399l-2.401-0.267q-0.15-0.158-0.304-0.304l-0.283-2.407a0.816 0.816 0 0 0-0.398-0.607 10.8 10.8 0 0 0-2.658-1.099 0.816 0.816 0 0 0-0.716 0.15l-1.882 1.502h-0.437l-1.888-1.507a0.816 0.816 0 0 0-0.715-0.15 10.8 10.8 0 0 0-2.658 1.101 0.816 0.816 0 0 0-0.398 0.608L5.856 5.548q-0.158 0.151-0.304 0.303l-2.407 0.276a0.816 0.816 0 0 0-0.607 0.399 10.8 10.8 0 0 0-1.1 2.658 0.816 0.816 0 0 0 0.151 0.715l1.502 1.883v0.436L1.584 14.106a0.816 0.816 0 0 0-0.15 0.715 10.8 10.8 0 0 0 1.102 2.658 0.816 0.816 0 0 0 0.607 0.399l2.401 0.267q0.151 0.158 0.304 0.304l0.28 2.407a0.816 0.816 0 0 0 0.399 0.607 10.8 10.8 0 0 0 2.658 1.101 0.816 0.816 0 0 0 0.715-0.152l1.883-1.502q0.218 0.006 0.437 0l1.887 1.511a0.816 0.816 0 0 0 0.715 0.15 10.8 10.8 0 0 0 2.658-1.102 0.816 0.816 0 0 0 0.399-0.607l0.267-2.401q0.158-0.15 0.304-0.304l2.407-0.283a0.816 0.816 0 0 0 0.607-0.398 10.8 10.8 0 0 0 1.101-2.658 0.816 0.816 0 0 0-0.151-0.716zM12 16.05A4.05 4.05 0 1 1 16.05 12 4.05 4.05 0 0 1 12 16.05"/></svg>