<svg width="24" height="24" viewBox="0 0 24 24" fill="none" xmlns="http://www.w3.org/2000/svg">
<path fill-rule="evenodd" clip-rule="evenodd" d="M11.405 15.1635C11.4382 15.2871 11.5028 15.3999 11.592 15.4916L12.7731 16.7037C12.7206 17.1184 12.6166 17.5245 12.4644 17.9137L10.881 18.3431C10.7447 18.3801 10.6221 18.4555 10.5264 18.5594C10.4864 18.6029 10.4475 18.6415 10.4102 18.6765C10.3071 18.7731 10.2334 18.897 10.1976 19.0337L9.7727 20.659C9.40281 20.8099 9.01577 20.9136 8.62 20.9679L7.44154 19.7732C7.34625 19.6767 7.22627 19.6078 7.09494 19.5739C7.03188 19.5576 6.96815 19.5401 6.90502 19.5217C6.80716 19.4932 6.70472 19.4848 6.60424 19.4971L6.50437 19.5168L4.91668 19.9341C4.59001 19.6743 4.2966 19.3757 4.04324 19.0439L4.45891 17.4069C4.48262 17.3135 4.48731 17.2166 4.47449 17.1217L4.45538 17.0277L4.39775 16.8126C4.37285 16.7199 4.33087 16.6331 4.27358 16.5568L4.21172 16.4844L3.03027 15.2672C3.08285 14.8534 3.18657 14.4479 3.33851 14.0594L4.92197 13.6301C5.02404 13.6023 5.11877 13.5533 5.20003 13.4868L5.2765 13.4137L5.39179 13.2969C5.46925 13.2244 5.53081 13.1366 5.57152 13.0395L5.60537 12.9394L6.03068 11.312C6.40051 11.1611 6.78768 11.0574 7.18338 11.0031L8.36209 12.1987C8.45734 12.2951 8.57746 12.3642 8.70869 12.398C8.77158 12.4143 8.83471 12.4322 8.89766 12.4505C9.02821 12.4886 9.16679 12.4899 9.29832 12.4554L10.8876 12.0366C11.2144 12.2968 11.5073 12.5968 11.7606 12.929L11.345 14.57C11.3136 14.6941 11.3142 14.8248 11.3474 14.9485L11.405 15.1635ZM8.52353 18.3077C7.24182 18.6511 5.92351 17.89 5.58008 16.6083C5.23682 15.3267 5.99811 14.0092 7.27974 13.6658C8.56128 13.3225 9.87847 14.083 10.222 15.3645C10.5654 16.6461 9.80509 17.9641 8.52353 18.3077Z" fill="black"/>
<path fill-rule="evenodd" clip-rule="evenodd" d="M19.9246 6.30391C19.9609 6.39234 20.0144 6.47301 20.0814 6.54195L20.9661 7.45139C20.9273 7.71678 20.8617 7.9774 20.769 8.22908L19.5872 8.54981C19.4508 8.58685 19.3274 8.66238 19.2317 8.76638C19.202 8.79864 19.1746 8.82679 19.1483 8.8514C19.0451 8.9481 18.9715 9.07183 18.9357 9.20865L18.6181 10.423C18.3819 10.5137 18.1372 10.5801 17.8873 10.6199L17.005 9.72698C16.9336 9.65454 16.8485 9.59766 16.7549 9.55944L16.6594 9.52741C16.611 9.51491 16.5617 9.50097 16.513 9.48676C16.4148 9.45812 16.3121 9.45006 16.2113 9.46246L16.1124 9.48189L14.927 9.79344C14.7201 9.62202 14.5318 9.42968 14.3647 9.21921L14.6762 7.99331C14.6998 7.90015 14.7057 7.80344 14.693 7.70876L14.6739 7.6148L14.6281 7.44407C14.6033 7.35154 14.561 7.26441 14.5039 7.18819L14.4409 7.11511L13.5564 6.20258C13.5953 5.93717 13.6607 5.67658 13.7534 5.42489L14.9344 5.10442C15.0708 5.06738 15.1944 4.99279 15.2901 4.88879C15.3198 4.85648 15.3472 4.82841 15.3735 4.80377C15.4508 4.73131 15.5115 4.64359 15.5522 4.54658L15.5861 4.44652L15.9051 3.22973C16.1413 3.13917 16.3862 3.07348 16.6361 3.03384L17.5165 3.92725C17.6118 4.02383 17.7317 4.09265 17.8631 4.12656C17.9115 4.13906 17.9605 4.15206 18.0092 4.16627C18.1399 4.20437 18.2785 4.20672 18.4101 4.17208L19.5962 3.85934C19.803 4.03089 19.9908 4.22417 20.1578 4.43476L19.8464 5.66469C19.815 5.78872 19.8154 5.91867 19.8484 6.04225L19.8942 6.21299L19.9246 6.30391ZM17.7136 8.51805C16.7801 8.7682 15.8205 8.21418 15.5703 7.28062C15.3202 6.34705 15.8742 5.38746 16.8078 5.13731C17.7413 4.88717 18.7009 5.44119 18.9511 6.37475C19.2012 7.30832 18.6472 8.26791 17.7136 8.51805Z" fill="black"/>
<path d="M15.6649 7.25416C15.9011 8.13578 16.8073 8.65897 17.6889 8.42274C18.5705 8.18651 19.0937 7.28032 18.8575 6.3987C18.6212 5.51709 17.7151 4.9939 16.8334 5.23013C15.9518 5.46636 15.4286 6.37255 15.6649 7.25416Z" stroke="black" stroke-width="1.5" stroke-linecap="round" stroke-linejoin="round"/>
<path d="M13.9491 7.80865C13.9338 7.75144 13.9183 7.69379 13.9033 7.63786L12.7728 6.47405C12.8092 5.8933 12.955 5.32464 13.2023 4.79794L14.7381 4.38094C14.7778 4.33781 14.8184 4.29627 14.8608 4.25653L15.2712 2.68807C15.7846 2.43562 16.3425 2.28613 16.9134 2.24805L18.0505 3.40049C18.107 3.41508 18.1634 3.43065 18.219 3.44687L19.758 3.04182C20.2365 3.37361 20.648 3.79281 20.9709 4.27737L20.5731 5.84841C20.5885 5.90562 20.6039 5.96327 20.6189 6.0192L21.7489 7.18087C21.7124 7.76163 21.5667 8.33029 21.3193 8.85699L19.7836 9.27399C19.7439 9.31712 19.7033 9.35865 19.6608 9.3984L19.2507 10.9659C18.7373 11.2183 18.1794 11.3678 17.6085 11.4059L16.4714 10.2535C16.4148 10.2389 16.3585 10.2233 16.3029 10.2071L14.7639 10.6121C14.2854 10.2807 13.8738 9.86179 13.5508 9.37755L13.9491 7.80865Z" stroke="black" stroke-width="1.5" stroke-linecap="round" stroke-linejoin="round"/>
<path d="M6.305 16.4143C6.54123 17.2959 7.44742 17.8191 8.32904 17.5829C9.21065 17.3467 9.73384 16.4405 9.49761 15.5589C9.26138 14.6772 8.35519 14.1541 7.47358 14.3903C6.59196 14.6265 6.06877 15.5327 6.305 16.4143Z" stroke="black" stroke-width="1.5" stroke-linecap="round" stroke-linejoin="round"/>
<path d="M3.7314 17.2222C3.7121 17.1502 3.69265 17.0776 3.67378 17.0071L2.25024 15.5418C2.29614 14.8105 2.47965 14.0945 2.79112 13.4313L4.72486 12.9062C4.77485 12.8519 4.82595 12.7996 4.87939 12.7496L5.39608 10.7747C6.04255 10.4568 6.74501 10.2686 7.46381 10.2206L8.89561 11.6717C8.9668 11.6901 9.03774 11.7097 9.10775 11.7301L11.0455 11.2201C11.6481 11.6379 12.1662 12.1657 12.5728 12.7758L12.072 14.754C12.0913 14.826 12.1107 14.8986 12.1296 14.969L13.5524 16.4317C13.5065 17.163 13.323 17.879 13.0115 18.5422L11.0778 19.0673C11.0278 19.1216 10.9767 19.1739 10.9232 19.2239L10.4068 21.1976C9.76033 21.5155 9.05787 21.7037 8.33907 21.7516L6.90727 20.3006C6.83608 20.2822 6.76514 20.2626 6.69513 20.2422L4.75735 20.7522C4.15485 20.3348 3.6366 19.8074 3.22984 19.1977L3.7314 17.2222Z" stroke="black" stroke-width="1.5" stroke-linecap="round" stroke-linejoin="round"/>
<path fill-rule="evenodd" clip-rule="evenodd" d="M11.405 15.1635C11.4382 15.2871 11.5028 15.3999 11.592 15.4916L12.7731 16.7037C12.7206 17.1184 12.6166 17.5245 12.4644 17.9137L10.881 18.3431C10.7447 18.3801 10.6221 18.4555 10.5264 18.5594C10.4864 18.6029 10.4475 18.6415 10.4102 18.6765C10.3071 18.7731 10.2334 18.897 10.1976 19.0337L9.7727 20.659C9.40281 20.8099 9.01577 20.9136 8.62 20.9679L7.44154 19.7732C7.34625 19.6767 7.22627 19.6078 7.09494 19.5739C7.03188 19.5576 6.96815 19.5401 6.90502 19.5217C6.80716 19.4932 6.70472 19.4848 6.60424 19.4971L6.50437 19.5168L4.91668 19.9341C4.59001 19.6743 4.2966 19.3757 4.04324 19.0439L4.45891 17.4069C4.48262 17.3135 4.48731 17.2166 4.47449 17.1217L4.45538 17.0277L4.39775 16.8126C4.37285 16.7199 4.33087 16.6331 4.27358 16.5568L4.21172 16.4844L3.03027 15.2672C3.08285 14.8534 3.18657 14.4479 3.33851 14.0594L4.92197 13.6301C5.02404 13.6023 5.11877 13.5533 5.20003 13.4868L5.2765 13.4137L5.39179 13.2969C5.46925 13.2244 5.53081 13.1366 5.57152 13.0395L5.60537 12.9394L6.03068 11.312C6.40051 11.1611 6.78768 11.0574 7.18338 11.0031L8.36209 12.1987C8.45734 12.2951 8.57746 12.3642 8.70869 12.398C8.77158 12.4143 8.83471 12.4322 8.89766 12.4505C9.02821 12.4886 9.16679 12.4899 9.29832 12.4554L10.8876 12.0366C11.2144 12.2968 11.5073 12.5968 11.7606 12.929L11.345 14.57C11.3136 14.6941 11.3142 14.8248 11.3474 14.9485L11.405 15.1635ZM8.52353 18.3077C7.24182 18.6511 5.92351 17.89 5.58008 16.6083C5.23682 15.3267 5.99811 14.0092 7.27974 13.6658C8.56128 13.3225 9.87847 14.083 10.222 15.3645C10.5654 16.6461 9.80509 17.9641 8.52353 18.3077Z" stroke="black" stroke-width="1.5" stroke-linecap="round" stroke-linejoin="round"/>
<path fill-rule="evenodd" clip-rule="evenodd" d="M19.9246 6.30391C19.9609 6.39234 20.0144 6.47301 20.0814 6.54195L20.9661 7.45139C20.9273 7.71678 20.8617 7.9774 20.769 8.22908L19.5872 8.54981C19.4508 8.58685 19.3274 8.66238 19.2317 8.76638C19.202 8.79864 19.1746 8.82679 19.1483 8.8514C19.0451 8.9481 18.9715 9.07183 18.9357 9.20865L18.6181 10.423C18.3819 10.5137 18.1372 10.5801 17.8873 10.6199L17.005 9.72698C16.9336 9.65454 16.8485 9.59766 16.7549 9.55944L16.6594 9.52741C16.611 9.51491 16.5617 9.50097 16.513 9.48676C16.4148 9.45812 16.3121 9.45006 16.2113 9.46246L16.1124 9.48189L14.927 9.79344C14.7201 9.62202 14.5318 9.42968 14.3647 9.21921L14.6762 7.99331C14.6998 7.90015 14.7057 7.80344 14.693 7.70876L14.6739 7.6148L14.6281 7.44407C14.6033 7.35154 14.561 7.26441 14.5039 7.18819L14.4409 7.11511L13.5564 6.20258C13.5953 5.93717 13.6607 5.67658 13.7534 5.42489L14.9344 5.10442C15.0708 5.06738 15.1944 4.99279 15.2901 4.88879C15.3198 4.85648 15.3472 4.82841 15.3735 4.80377C15.4508 4.73131 15.5115 4.64359 15.5522 4.54658L15.5861 4.44652L15.9051 3.22973C16.1413 3.13917 16.3862 3.07348 16.6361 3.03384L17.5165 3.92725C17.6118 4.02383 17.7317 4.09265 17.8631 4.12656C17.9115 4.13906 17.9605 4.15206 18.0092 4.16627C18.1399 4.20437 18.2785 4.20672 18.4101 4.17208L19.5962 3.85934C19.803 4.03089 19.9908 4.22417 20.1578 4.43476L19.8464 5.66469C19.815 5.78872 19.8154 5.91867 19.8484 6.04225L19.8942 6.21299L19.9246 6.30391ZM17.7136 8.51805C16.7801 8.7682 15.8205 8.21418 15.5703 7.28062C15.3202 6.34705 15.8742 5.38746 16.8078 5.13731C17.7413 4.88717 18.7009 5.44119 18.9511 6.37475C19.2012 7.30832 18.6472 8.26791 17.7136 8.51805Z" stroke="black" stroke-width="1.5" stroke-linecap="round" stroke-linejoin="round"/>
</svg>
