<svg xmlns="http://www.w3.org/2000/svg" fill="currentColor" viewBox="0 0 24 24" width="24" height="24"><path d="M22.53 11.19h-0.845a9.6 9.6 0 0 0-0.893-3.331l0.732-0.423a0.81 0.81 0 0 0-0.81-1.402l-0.734 0.424a9.84 9.84 0 0 0-2.438-2.438l0.424-0.734a0.81 0.81 0 0 0-1.402-0.81l-0.423 0.732a9.6 9.6 0 0 0-3.331-0.893v-0.845a0.81 0.81 0 0 0-1.62 0v0.845a9.6 9.6 0 0 0-3.331 0.893l-0.423-0.732a0.81 0.81 0 0 0-1.402 0.81l0.424 0.734A9.84 9.84 0 0 0 4.02 6.458l-0.734-0.424a0.81 0.81 0 0 0-0.81 1.402l0.732 0.423a9.6 9.6 0 0 0-0.893 3.331h-0.845a0.81 0.81 0 0 0 0 1.62h0.845a9.6 9.6 0 0 0 0.893 3.331l-0.732 0.423a0.81 0.81 0 0 0 0.404 1.512 0.804 0.804 0 0 0 0.404-0.108l0.735-0.425a9.84 9.84 0 0 0 2.438 2.438l-0.425 0.735a0.81 0.81 0 0 0 1.403 0.81l0.423-0.732a9.6 9.6 0 0 0 3.331 0.892v0.845a0.81 0.81 0 0 0 1.62 0v-0.845a9.6 9.6 0 0 0 3.331-0.892l0.422 0.732a0.81 0.81 0 0 0 1.403-0.81l-0.425-0.735a9.84 9.84 0 0 0 2.439-2.438l0.734 0.425a0.81 0.81 0 0 0 1.107-0.297 0.81 0.81 0 0 0-0.296-1.106l-0.732-0.423a9.6 9.6 0 0 0 0.893-3.331h0.844a0.81 0.81 0 0 0 0-1.62zM6.33 12a5.664 5.664 0 0 1 2.165-4.456L11.064 12l-2.569 4.456A5.664 5.664 0 0 1 6.33 12M12 17.67a5.64 5.64 0 0 1-2.104-0.406l2.572-4.455h5.143A5.676 5.676 0 0 1 12 17.669z m0.468-6.48l-2.572-4.456a5.67 5.67 0 0 1 7.715 4.456z"/></svg>