<svg width="24" height="24" viewBox="0 0 24 24" fill="none" xmlns="http://www.w3.org/2000/svg">
<path d="M20.2489 12.199C20.2527 12.064 20.2527 11.9291 20.2489 11.7941L21.6477 10.0466C21.721 9.95481 21.7718 9.84712 21.7959 9.73216C21.82 9.61719 21.8167 9.49818 21.7864 9.3847C21.5567 8.5229 21.2137 7.69538 20.7664 6.92378C20.7078 6.82282 20.6264 6.73695 20.5288 6.67299C20.4311 6.60903 20.3199 6.56874 20.2039 6.55534L17.9802 6.30784C17.8877 6.21034 17.7939 6.1166 17.6989 6.0266L17.4365 3.79724C17.4229 3.68119 17.3825 3.5699 17.3184 3.47224C17.2543 3.37458 17.1682 3.29325 17.0671 3.23474C16.2955 2.78779 15.468 2.44542 14.6062 2.21662C14.4927 2.18631 14.3737 2.18307 14.2587 2.20717C14.1437 2.23127 14.036 2.28203 13.9443 2.35537L12.2015 3.74661C12.0665 3.74661 11.9315 3.74661 11.7965 3.74661L10.049 2.35069C9.95725 2.27734 9.84956 2.22658 9.7346 2.20248C9.61963 2.17838 9.50062 2.18162 9.38714 2.21194C8.52535 2.44165 7.69783 2.78464 6.92622 3.23193C6.82527 3.29055 6.73939 3.37192 6.67543 3.46957C6.61147 3.56723 6.57118 3.67846 6.55778 3.79442L6.31029 6.02191C6.21279 6.11503 6.11904 6.20878 6.02904 6.30316L3.79968 6.55909C3.68363 6.57259 3.57234 6.61302 3.47468 6.67715C3.37702 6.74128 3.29569 6.82734 3.23718 6.92846C2.79032 7.70017 2.44766 8.52768 2.21813 9.38938C2.18794 9.50294 2.18485 9.62199 2.20911 9.73696C2.23338 9.85193 2.28431 9.95958 2.35781 10.0513L3.74905 11.7941C3.74905 11.9291 3.74905 12.064 3.74905 12.199L2.35313 13.9465C2.27979 14.0383 2.22902 14.146 2.20492 14.2609C2.18082 14.3759 2.18406 14.4949 2.21438 14.6084C2.44409 15.4702 2.78708 16.2977 3.23437 17.0693C3.29299 17.1703 3.37436 17.2561 3.47201 17.3201C3.56967 17.3841 3.6809 17.4244 3.79687 17.4378L6.0206 17.6853C6.11372 17.7828 6.20747 17.8765 6.30185 17.9665L6.56153 20.1959C6.57503 20.3119 6.61546 20.4232 6.67959 20.5209C6.74372 20.6185 6.82978 20.6998 6.93091 20.7584C7.70262 21.2052 8.53012 21.5479 9.39182 21.7774C9.50538 21.8076 9.62444 21.8107 9.7394 21.7864C9.85437 21.7622 9.96202 21.7112 10.0537 21.6377L11.7965 20.2465C11.9315 20.2502 12.0665 20.2502 12.2015 20.2465L13.949 21.6452C14.0407 21.7186 14.1484 21.7693 14.2634 21.7934C14.3783 21.8175 14.4974 21.8143 14.6108 21.784C15.4728 21.5547 16.3003 21.2117 17.0718 20.764C17.1727 20.7054 17.2586 20.624 17.3226 20.5263C17.3865 20.4287 17.4268 20.3175 17.4402 20.2015L17.6877 17.9778C17.7852 17.8853 17.8789 17.7915 17.9689 17.6965L20.1983 17.434C20.3144 17.4205 20.4256 17.3801 20.5233 17.316C20.621 17.2518 20.7023 17.1658 20.7608 17.0646C21.2077 16.2929 21.5503 15.4654 21.7799 14.6037C21.81 14.4902 21.8131 14.3711 21.7889 14.2561C21.7646 14.1412 21.7137 14.0335 21.6402 13.9418L20.2489 12.199ZM11.999 15.7465C11.2573 15.7465 10.5323 15.5266 9.91562 15.1145C9.29894 14.7025 8.8183 14.1168 8.53447 13.4316C8.25064 12.7464 8.17638 11.9924 8.32107 11.265C8.46577 10.5375 8.82292 9.86936 9.34736 9.34492C9.8718 8.82048 10.54 8.46333 11.2674 8.31863C11.9948 8.17394 12.7488 8.2482 13.434 8.53203C14.1193 8.81585 14.7049 9.2965 15.117 9.91318C15.529 10.5299 15.749 11.2549 15.749 11.9966C15.749 12.9911 15.3539 13.9449 14.6506 14.6482C13.9474 15.3514 12.9935 15.7465 11.999 15.7465Z" fill="black"/>
</svg>
