<svg width="24" height="24" viewBox="0 0 24 24" fill="none" xmlns="http://www.w3.org/2000/svg">
<path d="M11.0783 19.9761C11.068 19.9892 11.0558 20.0014 11.0446 20.0136L11.0296 20.0304L11.0137 20.0445C11.0012 20.0568 10.9881 20.0684 10.9743 20.0792C10.9647 20.0875 10.9547 20.0953 10.9443 20.1026L10.9162 20.1233L10.8805 20.1448C10.8715 20.1507 10.8621 20.156 10.8524 20.1608L10.8177 20.1786L10.7858 20.1926L10.7521 20.2048C10.7405 20.2097 10.7286 20.2138 10.7165 20.217L10.6827 20.2264C10.6696 20.2264 10.6583 20.2329 10.6452 20.2348L10.6058 20.2414L10.573 20.2461C10.5484 20.2475 10.5236 20.2475 10.499 20.2461H5.999C5.80009 20.2461 5.60933 20.1671 5.46868 20.0264C5.32803 19.8858 5.24901 19.695 5.24901 19.4961C5.24901 19.2972 5.32803 19.1064 5.46868 18.9658C5.60933 18.8251 5.80009 18.7461 5.999 18.7461H8.68867L5.15526 15.2192C4.94587 15.0102 4.78005 14.7617 4.6674 14.4881C4.55475 14.2146 4.49752 13.9214 4.49901 13.6255V8.90616C3.79202 8.72361 3.17588 8.28949 2.76608 7.68516C2.35627 7.08083 2.18094 6.34779 2.27294 5.62343C2.36495 4.89908 2.71797 4.23314 3.26585 3.75046C3.81372 3.26777 4.51883 3.00146 5.24901 3.00146C5.97918 3.00146 6.68429 3.26777 7.23217 3.75046C7.78004 4.23314 8.13307 4.89908 8.22507 5.62343C8.31708 6.34779 8.14175 7.08083 7.73194 7.68516C7.32213 8.28949 6.70599 8.72361 5.999 8.90616V13.6292C5.99984 13.8269 6.07868 14.0163 6.21838 14.1561L9.74897 17.6895V14.9999C9.74897 14.801 9.82799 14.6102 9.96864 14.4695C10.1093 14.3289 10.3001 14.2499 10.499 14.2499C10.6979 14.2499 10.8886 14.3289 11.0293 14.4695C11.1699 14.6102 11.249 14.801 11.249 14.9999V19.4998C11.2504 19.5248 11.2504 19.5498 11.249 19.5748C11.249 19.5851 11.249 19.5945 11.249 19.6048C11.249 19.6151 11.249 19.633 11.2424 19.648C11.2404 19.6597 11.2376 19.6713 11.234 19.6826C11.234 19.6948 11.2283 19.707 11.2246 19.7192C11.2208 19.7314 11.2171 19.7408 11.2133 19.752L11.2002 19.7886L11.1862 19.8176C11.1805 19.8298 11.1749 19.843 11.1683 19.8551C11.1618 19.8673 11.158 19.872 11.1533 19.8814L11.1308 19.918L11.1112 19.9442L11.0783 19.9761ZM19.4989 15.0936V10.3715C19.5004 10.0756 19.4432 9.78239 19.3305 9.50882C19.2179 9.23524 19.052 8.98674 18.8427 8.77772L15.3092 5.24994H17.9989C18.1978 5.24994 18.3886 5.17092 18.5292 5.03027C18.6699 4.88962 18.7489 4.69885 18.7489 4.49994C18.7489 4.30103 18.6699 4.11027 18.5292 3.96962C18.3886 3.82896 18.1978 3.74995 17.9989 3.74995H13.4821H13.4258C13.4127 3.74995 13.3996 3.74995 13.3874 3.75557H13.3527L13.3124 3.76588L13.2814 3.77338L13.2439 3.78651L13.2121 3.7987L13.1793 3.8137L13.1455 3.83057C13.1355 3.83564 13.1258 3.84127 13.1164 3.84745C13.1052 3.85401 13.093 3.86057 13.0827 3.86807C13.0726 3.87473 13.0629 3.88192 13.0536 3.88963C13.0432 3.8966 13.0332 3.90411 13.0236 3.91213C13.0096 3.92338 12.9974 3.93463 12.9843 3.94682L12.9683 3.96088L12.9533 3.97776C12.9421 3.98994 12.9299 4.00213 12.9196 4.01526L12.8952 4.04807L12.8755 4.07432L12.853 4.11088C12.8483 4.12026 12.8427 4.12869 12.838 4.13713C12.8333 4.14557 12.8258 4.16244 12.8202 4.17463L12.8061 4.20369L12.793 4.24026C12.793 4.25151 12.7846 4.26182 12.7818 4.27307C12.779 4.28432 12.7752 4.29744 12.7724 4.30963C12.7688 4.32099 12.766 4.33258 12.764 4.34432C12.764 4.35932 12.764 4.37338 12.7574 4.38744C12.7508 4.4015 12.7574 4.40713 12.7527 4.41744C12.7513 4.44242 12.7513 4.46746 12.7527 4.49244V8.99991C12.7527 9.19882 12.8317 9.38958 12.9724 9.53023C13.113 9.67088 13.3038 9.7499 13.5027 9.7499C13.7016 9.7499 13.8924 9.67088 14.033 9.53023C14.1737 9.38958 14.2527 9.19882 14.2527 8.99991V6.31024L17.7795 9.84365C17.8492 9.91335 17.9044 9.99609 17.942 10.0871C17.9797 10.1782 17.999 10.2758 17.9989 10.3743V15.0936C17.2919 15.2762 16.6758 15.7103 16.266 16.3146C15.8562 16.9189 15.6808 17.652 15.7728 18.3763C15.8648 19.1007 16.2179 19.7666 16.7657 20.2493C17.3136 20.732 18.0187 20.9983 18.7489 20.9983C19.4791 20.9983 20.1842 20.732 20.7321 20.2493C21.2799 19.7666 21.633 19.1007 21.725 18.3763C21.817 17.652 21.6416 16.9189 21.2318 16.3146C20.822 15.7103 20.2059 15.2762 19.4989 15.0936Z" fill="black"/>
</svg>
