<svg width="24" height="24" viewBox="0 0 24 24" fill="none" xmlns="http://www.w3.org/2000/svg">
<path d="M19.4989 10.4996C18.851 10.5007 18.2207 10.7112 17.7022 11.0998C17.1837 11.4884 16.8047 12.0342 16.6218 12.6558L12.6646 12.0933C12.4842 12.0678 12.3192 11.9775 12.2005 11.8392L8.85181 7.92614C9.47835 7.6086 9.97359 7.08127 10.2512 6.43607C10.5289 5.79087 10.5713 5.06869 10.3712 4.39541C10.1711 3.72212 9.741 3.1404 9.15599 2.75164C8.57097 2.36288 7.86809 2.19172 7.16984 2.26799C6.47159 2.34426 5.82223 2.66312 5.33494 3.16901C4.84765 3.6749 4.55332 4.33573 4.50324 5.03636C4.45317 5.73698 4.65052 6.43295 5.06091 7.003C5.4713 7.57305 6.06871 7.98103 6.74902 8.15583V15.8433C6.04203 16.0258 5.42589 16.4599 5.01608 17.0643C4.60627 17.6686 4.43094 18.4016 4.52295 19.126C4.61495 19.8503 4.96798 20.5163 5.51585 20.999C6.06373 21.4817 6.76884 21.748 7.49901 21.748C8.22919 21.748 8.9343 21.4817 9.48217 20.999C10.03 20.5163 10.3831 19.8503 10.4751 19.126C10.5671 18.4016 10.3918 17.6686 9.98195 17.0643C9.57214 16.4599 8.956 16.0258 8.24901 15.8433V9.52738L11.0615 12.8086C11.4169 13.2233 11.9111 13.4945 12.4518 13.5717L16.5768 14.1605C16.7013 14.7117 16.979 15.2166 17.3779 15.617C17.7768 16.0173 18.2807 16.2969 18.8315 16.4234C19.3823 16.5499 19.9577 16.5182 20.4913 16.3321C21.0249 16.1459 21.4951 15.8127 21.8477 15.371C22.2002 14.9293 22.4209 14.397 22.4841 13.8354C22.5474 13.2738 22.4508 12.7057 22.2053 12.1967C21.9599 11.6876 21.5756 11.2582 21.0968 10.9579C20.618 10.6577 20.0641 10.4988 19.4989 10.4996ZM8.999 18.7495C8.999 19.0462 8.91103 19.3362 8.74621 19.5828C8.58139 19.8295 8.34712 20.0218 8.07303 20.1353C7.79895 20.2488 7.49735 20.2785 7.20638 20.2207C6.91541 20.1628 6.64814 20.0199 6.43836 19.8101C6.22858 19.6004 6.08572 19.3331 6.02785 19.0421C5.96997 18.7512 5.99967 18.4496 6.1132 18.1755C6.22673 17.9014 6.41899 17.6671 6.66566 17.5023C6.91234 17.3375 7.20234 17.2495 7.49901 17.2495C7.89683 17.2495 8.27836 17.4075 8.55966 17.6888C8.84097 17.9701 8.999 18.3517 8.999 18.7495ZM19.4989 14.9995C19.2023 14.9995 18.9122 14.9115 18.6656 14.7467C18.4189 14.5819 18.2266 14.3476 18.1131 14.0736C17.9996 13.7995 17.9699 13.4979 18.0278 13.2069C18.0856 12.9159 18.2285 12.6487 18.4383 12.4389C18.648 12.2291 18.9153 12.0862 19.2063 12.0284C19.4973 11.9705 19.7989 12.0002 20.0729 12.1137C20.347 12.2273 20.5813 12.4195 20.7461 12.6662C20.9109 12.9129 20.9989 13.2029 20.9989 13.4995C20.9989 13.8974 20.8409 14.2789 20.5596 14.5602C20.2783 14.8415 19.8967 14.9995 19.4989 14.9995Z" fill="black"/>
</svg>
