<svg width="24" height="24" viewBox="0 0 24 24" fill="none" xmlns="http://www.w3.org/2000/svg">
<path d="M20.9989 5.99969C20.9986 5.43865 20.841 4.88894 20.544 4.41298C20.247 3.93702 19.8224 3.55388 19.3186 3.30708C18.8148 3.06028 18.2518 2.95971 17.6937 3.01679C17.1356 3.07386 16.6047 3.2863 16.1612 3.62997C15.7178 3.97364 15.3796 4.43478 15.185 4.96101C14.9905 5.48724 14.9474 6.05747 15.0607 6.60695C15.174 7.15642 15.4391 7.66312 15.8259 8.0695C16.2127 8.47588 16.7057 8.76566 17.2489 8.90591V10.4997C17.2489 10.6986 17.1699 10.8893 17.0293 11.03C16.8886 11.1706 16.6978 11.2496 16.4989 11.2496H7.499C7.30009 11.2496 7.10932 11.1706 6.96867 11.03C6.82802 10.8893 6.749 10.6986 6.749 10.4997V8.90591C7.45599 8.72337 8.07213 8.28925 8.48194 7.68492C8.89175 7.08059 9.06708 6.34754 8.97507 5.62319C8.88307 4.89883 8.53004 4.2329 7.98217 3.75021C7.43429 3.26752 6.72918 3.00122 5.99901 3.00122C5.26883 3.00122 4.56372 3.26752 4.01585 3.75021C3.46797 4.2329 3.11495 4.89883 3.02294 5.62319C2.93094 6.34754 3.10627 7.08059 3.51608 7.68492C3.92588 8.28925 4.54202 8.72337 5.24901 8.90591V10.4997C5.24901 11.0964 5.48606 11.6687 5.90802 12.0906C6.32997 12.5126 6.90226 12.7496 7.499 12.7496H11.249V15.0934C10.542 15.2759 9.92584 15.71 9.51603 16.3144C9.10622 16.9187 8.93089 17.6517 9.0229 18.3761C9.1149 19.1004 9.46793 19.7664 10.0158 20.2491C10.5637 20.7318 11.2688 20.9981 11.999 20.9981C12.7291 20.9981 13.4342 20.7318 13.9821 20.2491C14.53 19.7664 14.883 19.1004 14.975 18.3761C15.067 17.6517 14.8917 16.9187 14.4819 16.3144C14.0721 15.71 13.4559 15.2759 12.749 15.0934V12.7496H16.4989C17.0957 12.7496 17.668 12.5126 18.0899 12.0906C18.5119 11.6687 18.7489 11.0964 18.7489 10.4997V8.90591C19.3926 8.73871 19.9627 8.3627 20.3699 7.83679C20.777 7.31089 20.9983 6.66478 20.9989 5.99969ZM13.499 17.9996C13.499 18.2963 13.411 18.5863 13.2462 18.8329C13.0813 19.0796 12.8471 19.2719 12.573 19.3854C12.2989 19.4989 11.9973 19.5286 11.7063 19.4708C11.4154 19.4129 11.1481 19.27 10.9383 19.0602C10.7285 18.8505 10.5857 18.5832 10.5278 18.2922C10.4699 18.0013 10.4996 17.6997 10.6132 17.4256C10.7267 17.1515 10.9189 16.9172 11.1656 16.7524C11.4123 16.5876 11.7023 16.4996 11.999 16.4996C12.3968 16.4996 12.7783 16.6576 13.0596 16.9389C13.3409 17.2202 13.499 17.6018 13.499 17.9996Z" fill="black"/>
</svg>
