<svg width="24" height="24" viewBox="0 0 24 24" fill="none" xmlns="http://www.w3.org/2000/svg">
<path d="M15.5854 16.5818C15.8781 16.2894 16.3531 16.2885 16.646 16.5808C16.9385 16.8733 16.939 17.3493 16.647 17.6423L15.5952 18.6941C15.4218 18.8703 15.3257 19.109 15.3266 19.3562C15.3278 19.6033 15.4263 19.8406 15.6011 20.0154C15.7759 20.1899 16.0132 20.2887 16.2602 20.2898C16.5072 20.2905 16.7453 20.1935 16.9214 20.0202L17.9721 18.9685C18.2648 18.6759 18.7397 18.6751 19.0327 18.9675C19.3251 19.26 19.3255 19.7351 19.0337 20.0281L17.978 21.0847L17.9741 21.0896C17.516 21.5403 16.897 21.7921 16.2544 21.7898C15.6116 21.7872 14.9951 21.5303 14.5405 21.0759C14.0859 20.6213 13.8294 20.0049 13.8266 19.362C13.8242 18.7193 14.076 18.1015 14.5268 17.6433L14.5307 17.6394L15.5854 16.5818Z" fill="black"/>
<path fill-rule="evenodd" clip-rule="evenodd" d="M11.9595 2.239C13.2272 2.24148 14.4888 2.49044 15.6714 2.98021C17.4526 3.7181 18.9751 4.96802 20.0464 6.57103C20.4862 7.22925 20.8404 7.93588 21.1069 8.67259C21.122 8.70485 21.1327 8.73862 21.143 8.77318C21.5023 9.80132 21.6899 10.8874 21.6899 11.988C21.6899 12.4021 21.354 12.7379 20.9399 12.738C20.5259 12.7379 20.19 12.4021 20.1899 11.988C20.1899 11.2229 20.0821 10.4662 19.8755 9.73802H16.2661C16.3768 10.4382 16.4399 11.1882 16.4399 11.988C16.4399 12.4022 16.1041 12.738 15.6899 12.738C15.2759 12.7379 14.94 12.4021 14.9399 11.988C14.9399 11.1793 14.8658 10.4296 14.7427 9.73802H9.13816C9.01499 10.4296 8.93994 11.1792 8.93992 11.988C8.93992 12.7966 9.01408 13.5465 9.13718 14.238H11.9409C12.3548 14.2383 12.6907 14.5741 12.6909 14.988C12.6909 15.4021 12.3549 15.7378 11.9409 15.738H9.5034C9.83265 16.7802 10.2674 17.6474 10.7007 18.3406C11.1397 19.0431 11.5774 19.5678 11.9009 19.9128C12.0622 20.0849 12.1952 20.2119 12.2846 20.2937C12.3291 20.3344 12.363 20.3644 12.3843 20.3826C12.3946 20.3914 12.4026 20.3977 12.4067 20.4011L12.4077 20.4021C12.457 20.4415 12.4981 20.4878 12.5346 20.5359C12.55 20.556 12.5643 20.5767 12.5776 20.5984C12.5897 20.6182 12.6007 20.6383 12.6108 20.6589C12.6231 20.6839 12.6335 20.7096 12.643 20.7361C12.6501 20.7558 12.6562 20.7755 12.6616 20.7956C12.678 20.8573 12.6899 20.9212 12.6899 20.988C12.6899 21.003 12.6879 21.0181 12.687 21.0329C12.6865 21.0414 12.6868 21.0499 12.686 21.0583C12.6827 21.0944 12.6757 21.1294 12.6675 21.1638C12.6615 21.1886 12.6535 21.2127 12.645 21.237C12.6374 21.2584 12.629 21.2791 12.6196 21.2995C12.6037 21.3342 12.5865 21.3685 12.5649 21.4011C12.5617 21.406 12.5585 21.4109 12.5552 21.4158C12.5456 21.4295 12.5364 21.4435 12.5259 21.4568C12.4854 21.5073 12.4377 21.5485 12.3882 21.5857C12.3686 21.6004 12.3486 21.6139 12.3276 21.6267C12.3059 21.6399 12.284 21.652 12.2612 21.6628C12.2411 21.6724 12.2208 21.6814 12.1997 21.6892C12.1749 21.6983 12.15 21.7062 12.1245 21.7126C12.0953 21.72 12.066 21.7273 12.0356 21.7312C12.0284 21.7321 12.0213 21.7334 12.0141 21.7341C11.9898 21.7365 11.9649 21.738 11.9399 21.738C10.0117 21.738 8.12622 21.1658 6.52293 20.0945C4.91992 19.0232 3.66999 17.5007 2.93211 15.7195C2.87385 15.5788 2.82047 15.4365 2.76902 15.2937C2.75647 15.2656 2.74685 15.2365 2.73777 15.2068C2.16391 13.5657 2.03697 11.7972 2.37742 10.0857C2.46862 9.62727 2.59313 9.17816 2.74754 8.74095C2.75393 8.72269 2.75835 8.70385 2.76609 8.68626C3.25013 7.34109 4.02615 6.11273 5.04539 5.09349C6.40885 3.73003 8.14643 2.80177 10.0376 2.42552C10.6611 2.30149 11.2926 2.24016 11.9223 2.239C11.9347 2.2387 11.9471 2.23868 11.9595 2.239ZM11.9009 4.06322C11.5774 4.40826 11.1398 4.93282 10.7007 5.63548C10.2675 6.32863 9.83269 7.19595 9.5034 8.23802H14.3764C14.0472 7.19602 13.6124 6.32859 13.1792 5.63548C12.7401 4.93295 12.3024 4.40822 11.979 4.06322C11.9659 4.0493 11.9526 4.03553 11.9399 4.0222C11.9272 4.03563 11.914 4.04919 11.9009 4.06322ZM13.8471 3.96263C14.0429 4.22265 14.2472 4.51501 14.4507 4.84056C15.0062 5.72945 15.5594 6.86275 15.9409 8.23802H19.2866C19.1407 7.95235 18.9787 7.67358 18.7993 7.40501C17.8928 6.04852 16.6044 4.99033 15.0971 4.36595C14.6902 4.19743 14.272 4.06359 13.8471 3.96263Z" fill="black"/>
<path d="M18.5346 16.0193C18.8276 15.7268 19.3024 15.7265 19.5952 16.0193C19.8875 16.3121 19.8876 16.787 19.5952 17.0798L17.3452 19.3298C17.0524 19.6224 16.5775 19.6222 16.2846 19.3298C15.9918 19.037 15.9919 18.5622 16.2846 18.2693L18.5346 16.0193Z" fill="black"/>
<path d="M19.6274 13.5613C20.2702 13.5641 20.8868 13.8206 21.3413 14.2751C21.7956 14.7297 22.0525 15.3463 22.0552 15.989C22.0576 16.6316 21.8055 17.2505 21.355 17.7087L21.3501 17.7126L20.2934 18.7683C20.0004 19.0604 19.5254 19.0599 19.2329 18.7673C18.9403 18.4743 18.941 17.9994 19.2339 17.7068L20.2856 16.655C20.4585 16.4789 20.556 16.2416 20.5552 15.9949C20.554 15.7479 20.4553 15.5104 20.2807 15.3357C20.106 15.161 19.8686 15.0625 19.6216 15.0613C19.3744 15.0603 19.1367 15.1576 18.9604 15.3308L17.9077 16.3816C17.6146 16.6739 17.1388 16.6733 16.8462 16.3806C16.5538 16.0876 16.5545 15.6127 16.8471 15.3201L17.9048 14.2654L17.9087 14.2615C18.3669 13.8108 18.9847 13.5587 19.6274 13.5613Z" fill="black"/>
</svg>
