<svg width="24" height="24" viewBox="0 0 24 24" fill="none" xmlns="http://www.w3.org/2000/svg">
<path d="M11.999 2.24634C10.0706 2.24634 8.18555 2.81816 6.58218 3.8895C4.97882 4.96083 3.72915 6.48356 2.9912 8.26513C2.25325 10.0467 2.06017 12.0071 2.43637 13.8984C2.81257 15.7897 3.74116 17.527 5.10471 18.8905C6.46827 20.2541 8.20554 21.1826 10.0968 21.5588C11.9881 21.935 13.9485 21.742 15.7301 21.004C17.5117 20.2661 19.0344 19.0164 20.1057 17.413C21.1771 15.8097 21.7489 13.9246 21.7489 11.9963C21.7459 9.41134 20.7177 6.93313 18.8899 5.10531C17.0621 3.27749 14.5839 2.24932 11.999 2.24634ZM19.3451 8.24629H16.003C15.5821 6.70215 14.8727 5.25164 13.9124 3.97132C15.0727 4.25007 16.1591 4.77642 17.097 5.5143C18.0348 6.25218 18.8021 7.18414 19.3461 8.24629H19.3451ZM20.2489 11.9963C20.2495 12.7571 20.1445 13.5143 19.9367 14.2462H16.3264C16.5564 12.7551 16.5564 11.2375 16.3264 9.74628H19.9367C20.1445 10.4782 20.2495 11.2354 20.2489 11.9963ZM11.999 4.02757C13.122 5.22993 13.9557 6.67284 14.4364 8.24629H9.56147C10.0417 6.67263 10.8755 5.22961 11.999 4.02757ZM9.56147 15.7462H14.4364C13.9562 17.3199 13.1224 18.7629 11.999 19.965C10.8759 18.7626 10.0422 17.3197 9.56147 15.7462ZM9.19585 14.2462C8.93836 12.7573 8.93836 11.2352 9.19585 9.74628H14.8096C15.067 11.2352 15.067 12.7573 14.8096 14.2462H9.19585ZM13.9161 20.0212C14.8765 18.7409 15.5859 17.2904 16.0067 15.7462H19.3498C18.8054 16.8088 18.0376 17.741 17.0991 18.4789C16.1605 19.2168 15.0734 19.7429 13.9124 20.0212H13.9161Z" fill="black"/>
</svg>
