<svg width="24" height="24" viewBox="0 0 24 24" fill="none" xmlns="http://www.w3.org/2000/svg">
<path d="M11.9989 2.25391C9.41311 2.25391 6.93318 3.28113 5.10471 5.10959C3.27624 6.93806 2.24902 9.41799 2.24902 12.0038C2.24902 14.5897 3.27624 17.0696 5.10471 18.8981C6.93318 20.7265 9.41311 21.7538 11.9989 21.7538C12.1535 21.7529 12.3041 21.7043 12.43 21.6146C12.5559 21.525 12.6511 21.3985 12.7024 21.2527C12.7537 21.1069 12.7587 20.9488 12.7167 20.8C12.6747 20.6512 12.5877 20.519 12.4677 20.4216C12.3627 20.3363 10.5102 18.7978 9.55584 15.7557H11.9933C12.1922 15.7557 12.383 15.6767 12.5236 15.536C12.6643 15.3954 12.7433 15.2046 12.7433 15.0057C12.7433 14.8068 12.6643 14.616 12.5236 14.4754C12.383 14.3347 12.1922 14.2557 11.9933 14.2557H9.19397C8.93523 12.7669 8.93523 11.2446 9.19397 9.75572H14.8077C14.9368 10.4981 15.0008 11.2503 14.9989 12.0038C14.9989 12.2027 15.0779 12.3935 15.2186 12.5342C15.3592 12.6748 15.55 12.7538 15.7489 12.7538C15.9478 12.7538 16.1386 12.6748 16.2792 12.5342C16.4199 12.3935 16.4989 12.2027 16.4989 12.0038C16.4999 11.2505 16.4423 10.4982 16.3264 9.75385H19.9367C20.1445 10.4858 20.2495 11.243 20.2489 12.0038C20.2489 12.2027 20.3279 12.3935 20.4686 12.5342C20.6092 12.6748 20.8 12.7538 20.9989 12.7538C21.1978 12.7538 21.3886 12.6748 21.5292 12.5342C21.6699 12.3935 21.7489 12.2027 21.7489 12.0038C21.7461 9.41883 20.718 6.94048 18.8902 5.11261C17.0623 3.28473 14.584 2.25664 11.9989 2.25391ZM9.56147 8.25386C10.0417 6.68019 10.8755 5.23718 11.9989 4.03514C13.122 5.2375 13.9557 6.68041 14.4364 8.25386H9.56147ZM16.0067 8.25386C15.5858 6.70972 14.8765 5.2592 13.9161 3.97889C15.0771 4.25715 16.1642 4.78328 17.1028 5.52118C18.0414 6.25909 18.8092 7.1913 19.3536 8.25386H16.0067ZM20.7833 16.2844L19.0592 18.0038L20.7795 19.7231C20.8492 19.7928 20.9045 19.8756 20.9422 19.9666C20.9799 20.0576 20.9993 20.1552 20.9993 20.2538C20.9993 20.3523 20.9799 20.4499 20.9422 20.5409C20.9045 20.632 20.8492 20.7147 20.7795 20.7844C20.7098 20.8541 20.6271 20.9093 20.5361 20.9471C20.445 20.9848 20.3474 21.0042 20.2489 21.0042C20.1503 21.0042 20.0528 20.9848 19.9617 20.9471C19.8707 20.9093 19.7879 20.8541 19.7183 20.7844L17.9989 19.0641L16.2795 20.7844C16.1388 20.9251 15.9479 21.0042 15.7489 21.0042C15.5499 21.0042 15.359 20.9251 15.2183 20.7844C15.0776 20.6437 14.9985 20.4528 14.9985 20.2538C14.9985 20.0547 15.0776 19.8639 15.2183 19.7231L16.9386 18.0038L15.2183 16.2844C15.0776 16.1437 14.9985 15.9528 14.9985 15.7538C14.9985 15.5548 15.0776 15.3639 15.2183 15.2232C15.359 15.0825 15.5499 15.0034 15.7489 15.0034C15.9479 15.0034 16.1388 15.0825 16.2795 15.2232L17.9989 16.9435L19.7183 15.2232C19.859 15.0825 20.0499 15.0034 20.2489 15.0034C20.4479 15.0034 20.6388 15.0825 20.7795 15.2232C20.9202 15.3639 20.9993 15.5548 20.9993 15.7538C20.9993 15.9528 20.9202 16.1437 20.7795 16.2844H20.7833Z" fill="black"/>
</svg>
