<?xml version="1.0" encoding="utf-8"?>
<svg xmlns="http://www.w3.org/2000/svg" width="512" height="512" viewBox="0 0 512 512">
<path d="M256 32C132.3 32 32 132.3 32 256s100.3 224 224 224 224-100.3 224-224S379.7 32 256 32zm106.2 314.7c-34.7 10-66.7 64.2-76.4 101.3-17.9-9.4 9.8-90.2 5.4-112.4-4.3-22.1-13-14.4-22.6-27.6-17.8-31.5.9-48.3-5.6-55.9-6.5-7.7-4.9-18.3-45-29.9-40.1-11.6-75.9-81.9-87.8-104.1-11.9-22.1 26.6-47 81.3-52.6 10.3-1 19.7-1.5 28.4-1.5 37.8.1 61.9 9 80 17.5 22.2 10.5 20.1 39.3 8.1 39.3s-35.8-16.6-47.2 23.2-40.1 19.9-59.1 39.3 24.4 37.1 33.6 49.3c9.2 12.2 33.1-.6 52.6 3.9 32.6 28.8 66.7 41 74.3 54.8 3.3 16.6 4.4 34.9-20 55.4z"/>
</svg>
