<svg xmlns="http://www.w3.org/2000/svg" width="128" height="128" fill="currentColor" viewBox="0 0 24 24"><path d="M12 1.47A10.53 10.53 0 1 0 22.53 12 10.542 10.542 0 0 0 12 1.47m7.934 6.48h-3.609a13.68 13.68 0 0 0-2.259-4.618 8.94 8.94 0 0 1 5.868 4.618M20.91 12a8.88 8.88 0 0 1-0.337 2.43h-3.899a15.96 15.96 0 0 0 0-4.86h3.899A8.88 8.88 0 0 1 20.91 12M12 3.394a11.64 11.64 0 0 1 2.633 4.556H9.368a11.64 11.64 0 0 1 2.633-4.556zM9.367 16.05h5.265a11.64 11.64 0 0 1-2.633 4.556 11.64 11.64 0 0 1-2.633-4.556z m-0.395-1.62a14.28 14.28 0 0 1 0-4.86h6.063a14.28 14.28 0 0 1 0 4.86z m5.098 6.236a13.68 13.68 0 0 0 2.258-4.617h3.611a8.94 8.94 0 0 1-5.873 4.617z"/></svg>