<svg width="24" height="24" viewBox="0 0 24 24" fill="none" xmlns="http://www.w3.org/2000/svg">
<path d="M11.999 2.25366C10.0706 2.25366 8.18555 2.82549 6.58218 3.89682C4.97882 4.96816 3.72915 6.49089 2.9912 8.27245C2.25325 10.054 2.06017 12.0144 2.43637 13.9057C2.81257 15.797 3.74116 17.5343 5.10471 18.8978C6.46827 20.2614 8.20554 21.19 10.0968 21.5662C11.9881 21.9424 13.9485 21.7493 15.7301 21.0113C17.5117 20.2734 19.0344 19.0237 20.1057 17.4204C21.1771 15.817 21.7489 13.9319 21.7489 12.0036C21.7489 9.41775 20.7217 6.93782 18.8932 5.10935C17.0647 3.28088 14.5848 2.25366 11.999 2.25366ZM11.999 19.5035C10.7833 19.5034 9.58586 19.2078 8.50982 18.6421C7.43378 18.0764 6.51138 17.2576 5.82205 16.2563C5.13273 15.2549 4.69715 14.101 4.55283 12.8939C4.40851 11.6869 4.55978 10.4628 4.9936 9.32718C5.42742 8.19154 6.1308 7.17839 7.04315 6.37497C7.95549 5.57155 9.04947 5.00195 10.2308 4.71523C11.4122 4.42851 12.6456 4.43326 13.8247 4.72907C15.0039 5.02489 16.0934 5.6029 16.9995 6.41332C17.1441 6.54692 17.2303 6.732 17.2397 6.92863C17.249 7.12525 17.1806 7.31766 17.0493 7.46433C16.918 7.611 16.7343 7.70017 16.5379 7.71261C16.3414 7.72504 16.148 7.65975 15.9992 7.53081C14.9993 6.63645 13.7285 6.10299 12.3899 6.01565C11.0512 5.92831 9.72184 6.29213 8.61421 7.04898C7.50657 7.80584 6.68453 8.91206 6.2794 10.191C5.87428 11.4698 5.90944 12.8476 6.37927 14.1042C6.8491 15.3607 7.72649 16.4236 8.87129 17.123C10.0161 17.8224 11.3623 18.1179 12.6947 17.9624C14.0272 17.8069 15.2691 17.2093 16.2221 16.2651C17.1751 15.3209 17.7842 14.0846 17.952 12.7536H11.999C11.8 12.7536 11.6093 12.6746 11.4686 12.5339C11.328 12.3933 11.249 12.2025 11.249 12.0036C11.249 11.8047 11.328 11.6139 11.4686 11.4733C11.6093 11.3326 11.8 11.2536 11.999 11.2536H18.7489C18.9478 11.2536 19.1386 11.3326 19.2792 11.4733C19.4199 11.6139 19.4989 11.8047 19.4989 12.0036C19.4967 13.992 18.7058 15.8984 17.2997 17.3044C15.8937 18.7104 13.9874 19.5013 11.999 19.5035Z" fill="black"/>
</svg>
