<svg width="24" height="24" viewBox="0 0 24 24" fill="none" xmlns="http://www.w3.org/2000/svg">
<path d="M18.7489 14.247C18.086 14.2466 17.4418 14.4669 16.918 14.8732L14.7514 13.1857C14.915 12.8108 14.9993 12.4061 14.9989 11.997C14.9989 11.9276 14.9989 11.8582 14.9914 11.7898L16.2317 11.3764C16.6241 11.9816 17.2214 12.4251 17.9142 12.6258C18.607 12.8265 19.3489 12.7708 20.004 12.4691C20.6591 12.1673 21.1836 11.6396 21.4813 10.9827C21.7791 10.3257 21.8302 9.5835 21.6253 8.89196C21.4203 8.20041 20.9731 7.60584 20.3656 7.21715C19.758 6.82847 19.0307 6.6717 18.3169 6.77556C17.6032 6.87941 16.9507 7.23694 16.4791 7.78266C16.0075 8.32837 15.7483 9.02573 15.7489 9.747C15.7489 9.81638 15.7489 9.88575 15.7564 9.95419L14.5161 10.3676C14.2442 9.94728 13.8715 9.60167 13.4318 9.36227C12.9922 9.12287 12.4996 8.9973 11.999 8.99701C11.8334 8.99735 11.6682 9.01115 11.5049 9.03826L10.8637 7.59077C11.4174 7.14836 11.7965 6.5242 11.934 5.82892C12.0715 5.13364 11.9583 4.41215 11.6147 3.79231C11.271 3.17248 10.719 2.69433 10.0564 2.44263C9.39388 2.19093 8.66363 2.18192 7.99508 2.41721C7.32654 2.65249 6.76288 3.11687 6.40402 3.72804C6.04516 4.33921 5.91426 5.0577 6.03454 5.75616C6.15482 6.45461 6.51849 7.08793 7.06111 7.54387C7.60373 7.9998 8.29025 8.2489 8.99898 8.24701C9.16452 8.24667 9.32974 8.23287 9.49304 8.20576L10.1343 9.6495C9.5905 10.0799 9.21308 10.6858 9.06654 11.3636C8.91999 12.0415 9.01342 12.7491 9.33086 13.3657L6.92056 15.507C6.31399 15.098 5.5791 14.9244 4.85364 15.0185C4.12819 15.1127 3.46197 15.4682 2.97987 16.0184C2.49778 16.5686 2.23289 17.2757 2.23487 18.0073C2.23686 18.7388 2.50557 19.4445 2.99064 19.9921C3.47571 20.5397 4.14384 20.8916 4.8698 20.9818C5.59575 21.072 6.32969 20.8944 6.93404 20.4822C7.53839 20.07 7.97166 19.4515 8.15264 18.7427C8.33362 18.0339 8.24988 17.2834 7.91712 16.6319L10.3274 14.4907C10.8493 14.8421 11.4687 15.02 12.0975 14.9991C12.7262 14.9783 13.3325 14.7597 13.8299 14.3745L15.9964 16.062C15.8334 16.4357 15.7491 16.8391 15.7489 17.2469C15.7489 17.8403 15.9249 18.4203 16.2545 18.9136C16.5842 19.407 17.0527 19.7915 17.6009 20.0186C18.149 20.2456 18.7522 20.305 19.3342 20.1893C19.9161 20.0735 20.4507 19.7878 20.8702 19.3682C21.2898 18.9487 21.5755 18.4142 21.6912 17.8322C21.807 17.2503 21.7476 16.6471 21.5205 16.0989C21.2935 15.5507 20.909 15.0822 20.4156 14.7526C19.9223 14.4229 19.3422 14.247 18.7489 14.247ZM18.7489 8.24701C19.0456 8.24701 19.3356 8.33499 19.5823 8.49981C19.8289 8.66463 20.0212 8.89889 20.1347 9.17298C20.2482 9.44707 20.278 9.74867 20.2201 10.0396C20.1622 10.3306 20.0193 10.5979 19.8096 10.8077C19.5998 11.0174 19.3325 11.1603 19.0415 11.2182C18.7506 11.276 18.449 11.2463 18.1749 11.1328C17.9008 11.0193 17.6665 10.827 17.5017 10.5804C17.3369 10.3337 17.2489 10.0437 17.2489 9.747C17.2489 9.34918 17.407 8.96765 17.6883 8.68635C17.9696 8.40505 18.3511 8.24701 18.7489 8.24701ZM7.49899 5.24704C7.49899 4.95037 7.58697 4.66036 7.75179 4.41369C7.91661 4.16702 8.15088 3.97476 8.42496 3.86123C8.69905 3.7477 9.00065 3.71799 9.29162 3.77587C9.58259 3.83375 9.84986 3.97661 10.0596 4.18638C10.2694 4.39616 10.4123 4.66343 10.4701 4.9544C10.528 5.24537 10.4983 5.54697 10.3848 5.82106C10.2713 6.09514 10.079 6.32941 9.83233 6.49423C9.58566 6.65905 9.29565 6.74703 8.99898 6.74703C8.60116 6.74703 8.21963 6.58899 7.93833 6.30769C7.65703 6.02639 7.49899 5.64486 7.49899 5.24704ZM5.24901 19.4969C4.95234 19.4969 4.66233 19.409 4.41566 19.2441C4.16899 19.0793 3.97673 18.845 3.8632 18.571C3.74967 18.2969 3.71997 17.9953 3.77785 17.7043C3.83572 17.4133 3.97858 17.1461 4.18836 16.9363C4.39814 16.7265 4.66541 16.5836 4.95638 16.5258C5.24735 16.4679 5.54895 16.4976 5.82303 16.6111C6.09712 16.7247 6.33139 16.9169 6.49621 17.1636C6.66103 17.4103 6.749 17.7003 6.749 17.9969C6.749 18.3948 6.59097 18.7763 6.30966 19.0576C6.02836 19.3389 5.64683 19.4969 5.24901 19.4969ZM18.7489 18.7469C18.4522 18.7469 18.1622 18.659 17.9156 18.4941C17.6689 18.3293 17.4766 18.0951 17.3631 17.821C17.2496 17.5469 17.2199 17.2453 17.2777 16.9543C17.3356 16.6633 17.4785 16.3961 17.6883 16.1863C17.898 15.9765 18.1653 15.8337 18.4563 15.7758C18.7472 15.7179 19.0488 15.7476 19.3229 15.8611C19.597 15.9747 19.8313 16.1669 19.9961 16.4136C20.1609 16.6603 20.2489 16.9503 20.2489 17.2469C20.2489 17.6448 20.0909 18.0263 19.8096 18.3076C19.5283 18.5889 19.1467 18.7469 18.7489 18.7469Z" fill="black"/>
</svg>
