<svg width="24" height="24" viewBox="0 0 24 24" fill="none" xmlns="http://www.w3.org/2000/svg">
<path d="M11.9997 2.25317C10.0713 2.25317 8.18628 2.825 6.58292 3.89633C4.97955 4.96767 3.72988 6.4904 2.99193 8.27196C2.25398 10.0535 2.0609 12.0139 2.4371 13.9052C2.81331 15.7965 3.7419 17.5338 5.10545 18.8973C6.469 20.2609 8.20627 21.1895 10.0976 21.5657C11.9889 21.9419 13.9493 21.7488 15.7308 21.0109C17.5124 20.2729 19.0351 19.0232 20.1065 17.4199C21.1778 15.8165 21.7496 13.9315 21.7496 12.0031C21.7469 9.4181 20.7188 6.93975 18.8909 5.11188C17.063 3.284 14.5847 2.2559 11.9997 2.25317ZM3.74975 12.0031C3.75223 9.81584 4.62221 7.71888 6.16884 6.17225C7.71547 4.62563 9.81243 3.75564 11.9997 3.75316V20.253C9.81243 20.2506 7.71547 19.3806 6.16884 17.8339C4.62221 16.2873 3.75223 14.1904 3.74975 12.0031Z" fill="black"/>
</svg>
