<svg width="24" height="24" viewBox="0 0 24 24" fill="none" xmlns="http://www.w3.org/2000/svg">
<path d="M19.4989 3.00293H4.49901C4.10119 3.00293 3.71966 3.16096 3.43836 3.44227C3.15706 3.72357 2.99902 4.1051 2.99902 4.50292V19.5028C2.99902 19.9006 3.15706 20.2822 3.43836 20.5635C3.71966 20.8448 4.10119 21.0028 4.49901 21.0028H19.4989C19.8967 21.0028 20.2782 20.8448 20.5595 20.5635C20.8409 20.2822 20.9989 19.9006 20.9989 19.5028V4.50292C20.9989 4.1051 20.8409 3.72357 20.5595 3.44227C20.2782 3.16096 19.8967 3.00293 19.4989 3.00293ZM17.2489 17.2528H7.49899C7.30008 17.2528 7.10931 17.1738 6.96866 17.0332C6.82801 16.8925 6.74899 16.7017 6.74899 16.5028C6.74899 16.3039 6.82801 16.1132 6.96866 15.9725C7.10931 15.8318 7.30008 15.7528 7.49899 15.7528H17.2489C17.4478 15.7528 17.6386 15.8318 17.7792 15.9725C17.9199 16.1132 17.9989 16.3039 17.9989 16.5028C17.9989 16.7017 17.9199 16.8925 17.7792 17.0332C17.6386 17.1738 17.4478 17.2528 17.2489 17.2528ZM17.4692 11.2201L7.7193 14.22C7.62512 14.249 7.52616 14.2591 7.42808 14.2497C7.32999 14.2404 7.2347 14.2119 7.14765 14.1658C7.06059 14.1196 6.98348 14.0568 6.92071 13.9808C6.85794 13.9049 6.81074 13.8173 6.78181 13.7232C6.75288 13.629 6.74278 13.53 6.75209 13.4319C6.7614 13.3339 6.78994 13.2386 6.83608 13.1515C6.88222 13.0645 6.94505 12.9873 7.02099 12.9246C7.09694 12.8618 7.1845 12.8146 7.27868 12.7857L14.6989 10.5029L7.27868 8.22008C7.08847 8.16165 6.92926 8.03005 6.83608 7.85424C6.7429 7.67842 6.72338 7.47279 6.78181 7.28258C6.84024 7.09238 6.97183 6.93317 7.14765 6.83999C7.32346 6.74681 7.52909 6.72728 7.7193 6.78571L17.4692 9.78569C17.6228 9.83267 17.7572 9.92771 17.8527 10.0568C17.9483 10.1859 17.9998 10.3423 17.9998 10.5029C17.9998 10.6635 17.9483 10.8198 17.8527 10.9489C17.7572 11.078 17.6228 11.1731 17.4692 11.2201Z" fill="black"/>
</svg>
