<svg width="24" height="24" viewBox="0 0 24 24" fill="none" xmlns="http://www.w3.org/2000/svg">
<path d="M2.25 4.50293C2.25 4.08872 2.58579 3.75293 3 3.75293H4.5C4.91421 3.75293 5.25 4.08872 5.25 4.50293V6.00293C5.25 6.41714 4.91421 6.75293 4.5 6.75293H3C2.58579 6.75293 2.25 6.41714 2.25 6.00293V4.50293Z" fill="black"/>
<path d="M8.75366 4.50293C8.75366 4.08872 9.08945 3.75293 9.50366 3.75293H21C21.4142 3.75293 21.75 4.08872 21.75 4.50293V6.00293C21.75 6.41714 21.4142 6.75293 21 6.75293H9.50366C9.08945 6.75293 8.75366 6.41714 8.75366 6.00293V4.50293Z" fill="black"/>
<path d="M8.75366 17.998C8.75366 17.5838 9.08945 17.248 9.50366 17.248H21C21.4142 17.248 21.75 17.5838 21.75 17.998V19.498C21.75 19.9123 21.4142 20.248 21 20.248H9.50366C9.08945 20.248 8.75366 19.9123 8.75366 19.498V17.998Z" fill="black"/>
<path d="M8.75366 11.25C8.75366 10.8358 9.08945 10.5 9.50366 10.5H21C21.4142 10.5 21.75 10.8358 21.75 11.25V12.75C21.75 13.1642 21.4142 13.5 21 13.5H9.50366C9.08945 13.5 8.75366 13.1642 8.75366 12.75V11.25Z" fill="black"/>
<path d="M2.25 11.2505C2.25 10.8363 2.58579 10.5005 3 10.5005H4.5C4.91421 10.5005 5.25 10.8363 5.25 11.2505V12.7505C5.25 13.1647 4.91421 13.5005 4.5 13.5005H3C2.58579 13.5005 2.25 13.1647 2.25 12.7505V11.2505Z" fill="black"/>
<path d="M2.25 17.998C2.25 17.5838 2.58579 17.248 3 17.248H4.5C4.91421 17.248 5.25 17.5838 5.25 17.998V19.498C5.25 19.9123 4.91421 20.248 4.5 20.248H3C2.58579 20.248 2.25 19.9123 2.25 19.498V17.998Z" fill="black"/>
<path d="M2.25 4.50293C2.25 4.08872 2.58579 3.75293 3 3.75293H4.5C4.91421 3.75293 5.25 4.08872 5.25 4.50293V6.00293C5.25 6.41714 4.91421 6.75293 4.5 6.75293H3C2.58579 6.75293 2.25 6.41714 2.25 6.00293V4.50293Z" stroke="black" stroke-width="1.5"/>
<path d="M8.75366 4.50293C8.75366 4.08872 9.08945 3.75293 9.50366 3.75293H21C21.4142 3.75293 21.75 4.08872 21.75 4.50293V6.00293C21.75 6.41714 21.4142 6.75293 21 6.75293H9.50366C9.08945 6.75293 8.75366 6.41714 8.75366 6.00293V4.50293Z" stroke="black" stroke-width="1.5"/>
<path d="M8.75366 17.998C8.75366 17.5838 9.08945 17.248 9.50366 17.248H21C21.4142 17.248 21.75 17.5838 21.75 17.998V19.498C21.75 19.9123 21.4142 20.248 21 20.248H9.50366C9.08945 20.248 8.75366 19.9123 8.75366 19.498V17.998Z" stroke="black" stroke-width="1.5"/>
<path d="M8.75366 11.25C8.75366 10.8358 9.08945 10.5 9.50366 10.5H21C21.4142 10.5 21.75 10.8358 21.75 11.25V12.75C21.75 13.1642 21.4142 13.5 21 13.5H9.50366C9.08945 13.5 8.75366 13.1642 8.75366 12.75V11.25Z" stroke="black" stroke-width="1.5"/>
<path d="M2.25 11.2505C2.25 10.8363 2.58579 10.5005 3 10.5005H4.5C4.91421 10.5005 5.25 10.8363 5.25 11.2505V12.7505C5.25 13.1647 4.91421 13.5005 4.5 13.5005H3C2.58579 13.5005 2.25 13.1647 2.25 12.7505V11.2505Z" stroke="black" stroke-width="1.5"/>
<path d="M2.25 17.998C2.25 17.5838 2.58579 17.248 3 17.248H4.5C4.91421 17.248 5.25 17.5838 5.25 17.998V19.498C5.25 19.9123 4.91421 20.248 4.5 20.248H3C2.58579 20.248 2.25 19.9123 2.25 19.498V17.998Z" stroke="black" stroke-width="1.5"/>
</svg>
