<svg xmlns="http://www.w3.org/2000/svg" width="24" height="24" fill="currentColor" viewBox="0 0 24 24"><path d="M20.91 4.71v6.076a0.408 0.408 0 0 1-0.404 0.405h-7.696V3.496a0.408 0.408 0 0 1 0.406-0.405h6.074a1.62 1.62 0 0 1 1.62 1.62z m-10.126-1.62H4.709a1.62 1.62 0 0 0-1.62 1.62v6.076a0.408 0.408 0 0 0 0.404 0.405h7.695V3.496a0.408 0.408 0 0 0-0.405-0.406z m9.72 9.72h-7.695v7.696a0.408 0.408 0 0 0 0.405 0.404h6.075a1.62 1.62 0 0 0 1.62-1.62v-6.076a0.408 0.408 0 0 0-0.405-0.404m-17.415 0.404v6.076a1.62 1.62 0 0 0 1.62 1.62h6.075a0.408 0.408 0 0 0 0.406-0.404v-7.696H3.496a0.408 0.408 0 0 0-0.406 0.404z"/></svg>