<svg viewBox="0 0 24 24" fill="none" xmlns="http://www.w3.org/2000/svg" width="24" height="24">
<path fill-rule="evenodd" clip-rule="evenodd" d="M23.1 3.6C23.597 3.6 24 4.003 24 4.5V19.5C24 19.997 23.597 20.4 23.1 20.4H0.9C0.403 20.4 0 19.997 0 19.5V4.5C0 4.003 0.403 3.6 0.9 3.6H23.1ZM4.05 15.36C3.702 15.36 3.42 15.642 3.42 15.99V17.25C3.42 17.598 3.702 17.879 4.05 17.879H5.31C5.658 17.879 5.94 17.598 5.94 17.25V15.99C5.94 15.642 5.658 15.36 5.31 15.36H4.05ZM7.77 15.36C7.422 15.36 7.14 15.642 7.14 15.99V17.25C7.14 17.598 7.422 17.879 7.77 17.879H19.95C20.298 17.879 20.58 17.598 20.58 17.25V15.99C20.58 15.642 20.298 15.36 19.95 15.36H7.77ZM4.05 10.74C3.702 10.74 3.42 11.023 3.42 11.371V12.63C3.42 12.978 3.702 13.26 4.05 13.26H5.31C5.658 13.26 5.94 12.978 5.94 12.63V11.371C5.94 11.023 5.658 10.74 5.31 10.74H4.05ZM7.77 10.74C7.422 10.74 7.14 11.023 7.14 11.371V12.63C7.14 12.978 7.422 13.26 7.77 13.26H19.95C20.298 13.26 20.58 12.978 20.58 12.63V11.371C20.58 11.023 20.298 10.74 19.95 10.74H7.77ZM4.05 6.121C3.702 6.121 3.42 6.402 3.42 6.75V8.01C3.42 8.358 3.702 8.64 4.05 8.64H5.31C5.658 8.64 5.94 8.358 5.94 8.01V6.75C5.94 6.402 5.658 6.121 5.31 6.121H4.05ZM7.77 6.121C7.422 6.121 7.14 6.402 7.14 6.75V8.01C7.14 8.358 7.422 8.64 7.77 8.64H19.95C20.298 8.64 20.58 8.358 20.58 8.01V6.75C20.58 6.402 20.298 6.121 19.95 6.121H7.77Z" fill="black"/>
</svg>