<svg width="24" height="24" viewBox="0 0 24 24" fill="none" xmlns="http://www.w3.org/2000/svg">
<path fill-rule="evenodd" clip-rule="evenodd" d="M19.5 3C20.3284 3 21 3.67157 21 4.5V19.5C21 20.3284 20.3284 21 19.5 21H4.5C3.67157 21 3 20.3284 3 19.5V4.5C3 3.67157 3.67157 3 4.5 3H19.5ZM6 13C5.58579 13 5.25 13.3358 5.25 13.75V18.75C5.25 19.1642 5.58579 19.5 6 19.5C6.41421 19.5 6.75 19.1642 6.75 18.75V13.75C6.75 13.3358 6.41421 13 6 13ZM9 17C8.58579 17 8.25 17.3358 8.25 17.75C8.25 18.1642 8.58579 18.5 9 18.5H18C18.4142 18.5 18.75 18.1642 18.75 17.75C18.75 17.3358 18.4142 17 18 17H9ZM9 14C8.58579 14 8.25 14.3358 8.25 14.75C8.25 15.1642 8.58579 15.5 9 15.5H18C18.4142 15.5 18.75 15.1642 18.75 14.75C18.75 14.3358 18.4142 14 18 14H9ZM6 4.5C5.58579 4.5 5.25 4.83579 5.25 5.25V10.25C5.25 10.6642 5.58579 11 6 11C6.41421 11 6.75 10.6642 6.75 10.25V5.25C6.75 4.83579 6.41421 4.5 6 4.5ZM9 8.5C8.58579 8.5 8.25 8.83579 8.25 9.25C8.25 9.66421 8.58579 10 9 10H18C18.4142 10 18.75 9.66421 18.75 9.25C18.75 8.83579 18.4142 8.5 18 8.5H9ZM9 5.5C8.58579 5.5 8.25 5.83579 8.25 6.25C8.25 6.66421 8.58579 7 9 7H18C18.4142 7 18.75 6.66421 18.75 6.25C18.75 5.83579 18.4142 5.5 18 5.5H9Z" fill="black"/>
</svg>
