<svg viewBox="0 0 24 24" fill="none" xmlns="http://www.w3.org/2000/svg" width="24" height="24">
<path fill-rule="evenodd" clip-rule="evenodd" d="M20.82 2.28C21.317 2.28 21.72 2.683 21.72 3.18V20.82C21.72 21.317 21.317 21.72 20.82 21.72H3.18C2.683 21.72 2.28 21.317 2.28 20.82V3.18C2.28 2.683 2.683 2.28 3.18 2.28H20.82ZM5.532 13.156C5.085 13.156 4.722 13.52 4.722 13.967V19.073C4.722 19.52 5.084 19.883 5.532 19.883 5.979 19.882 6.342 19.52 6.342 19.073V13.967C6.341 13.52 5.979 13.156 5.532 13.156ZM9.209 17.037C8.762 17.037 8.399 17.4 8.399 17.847 8.399 18.294 8.762 18.657 9.209 18.657H18.468C18.915 18.657 19.279 18.294 19.279 17.847 19.279 17.4 18.915 17.037 18.468 17.037H9.209ZM9.209 14.097C8.762 14.097 8.399 14.46 8.399 14.907 8.399 15.354 8.762 15.717 9.209 15.717H18.468C18.915 15.717 19.279 15.354 19.279 14.907 19.279 14.46 18.915 14.097 18.468 14.097H9.209ZM5.532 4.116C5.084 4.116 4.722 4.48 4.722 4.927V10.033C4.722 10.48 5.085 10.843 5.532 10.843 5.979 10.842 6.341 10.48 6.342 10.033V4.927C6.342 4.48 5.979 4.117 5.532 4.116ZM9.209 8.279C8.762 8.279 8.399 8.641 8.399 9.088 8.4 9.536 8.762 9.898 9.209 9.898H18.468C18.915 9.898 19.279 9.536 19.279 9.088 19.279 8.641 18.915 8.279 18.468 8.279H9.209ZM9.209 5.343C8.762 5.343 8.399 5.706 8.399 6.153 8.4 6.6 8.762 6.963 9.209 6.963H18.468C18.915 6.963 19.279 6.6 19.279 6.153 19.279 5.706 18.915 5.343 18.468 5.343H9.209Z" fill="black"/>
</svg>