<svg width="24" height="24" viewBox="0 0 24 24" fill="none" xmlns="http://www.w3.org/2000/svg">
<path d="M9.74894 3.7478C9.74894 3.54889 9.82796 3.35812 9.96861 3.21747C10.1093 3.07682 10.3 2.9978 10.4989 2.9978H13.4989C13.6978 2.9978 13.8886 3.07682 14.0292 3.21747C14.1699 3.35812 14.2489 3.54889 14.2489 3.7478C14.2489 3.94671 14.1699 4.13747 14.0292 4.27812C13.8886 4.41877 13.6978 4.49779 13.4989 4.49779H10.4989C10.3 4.49779 10.1093 4.41877 9.96861 4.27812C9.82796 4.13747 9.74894 3.94671 9.74894 3.7478ZM13.4989 19.4977H10.4989C10.3 19.4977 10.1093 19.5767 9.96861 19.7173C9.82796 19.858 9.74894 20.0488 9.74894 20.2477C9.74894 20.4466 9.82796 20.6373 9.96861 20.778C10.1093 20.9186 10.3 20.9977 10.4989 20.9977H13.4989C13.6978 20.9977 13.8886 20.9186 14.0292 20.778C14.1699 20.6373 14.2489 20.4466 14.2489 20.2477C14.2489 20.0488 14.1699 19.858 14.0292 19.7173C13.8886 19.5767 13.6978 19.4977 13.4989 19.4977ZM19.4989 2.9978H17.2489C17.05 2.9978 16.8592 3.07682 16.7186 3.21747C16.5779 3.35812 16.4989 3.54889 16.4989 3.7478C16.4989 3.94671 16.5779 4.13747 16.7186 4.27812C16.8592 4.41877 17.05 4.49779 17.2489 4.49779H19.4989V6.74777C19.4989 6.94669 19.5779 7.13745 19.7185 7.2781C19.8592 7.41875 20.0499 7.49777 20.2489 7.49777C20.4478 7.49777 20.6385 7.41875 20.7792 7.2781C20.9198 7.13745 20.9989 6.94669 20.9989 6.74777V4.49779C20.9989 4.09997 20.8408 3.71844 20.5595 3.43714C20.2782 3.15584 19.8967 2.9978 19.4989 2.9978ZM20.2489 9.74775C20.0499 9.74775 19.8592 9.82677 19.7185 9.96742C19.5779 10.1081 19.4989 10.2988 19.4989 10.4977V13.4977C19.4989 13.6966 19.5779 13.8874 19.7185 14.028C19.8592 14.1687 20.0499 14.2477 20.2489 14.2477C20.4478 14.2477 20.6385 14.1687 20.7792 14.028C20.9198 13.8874 20.9989 13.6966 20.9989 13.4977V10.4977C20.9989 10.2988 20.9198 10.1081 20.7792 9.96742C20.6385 9.82677 20.4478 9.74775 20.2489 9.74775ZM20.2489 16.4977C20.0499 16.4977 19.8592 16.5767 19.7185 16.7174C19.5779 16.858 19.4989 17.0488 19.4989 17.2477V19.4977H17.2489C17.05 19.4977 16.8592 19.5767 16.7186 19.7173C16.5779 19.858 16.4989 20.0488 16.4989 20.2477C16.4989 20.4466 16.5779 20.6373 16.7186 20.778C16.8592 20.9186 17.05 20.9977 17.2489 20.9977H19.4989C19.8967 20.9977 20.2782 20.8396 20.5595 20.5583C20.8408 20.277 20.9989 19.8955 20.9989 19.4977V17.2477C20.9989 17.0488 20.9198 16.858 20.7792 16.7174C20.6385 16.5767 20.4478 16.4977 20.2489 16.4977ZM3.74899 14.2477C3.9479 14.2477 4.13866 14.1687 4.27931 14.028C4.41996 13.8874 4.49898 13.6966 4.49898 13.4977V10.4977C4.49898 10.2988 4.41996 10.1081 4.27931 9.96742C4.13866 9.82677 3.9479 9.74775 3.74899 9.74775C3.55008 9.74775 3.35931 9.82677 3.21866 9.96742C3.07801 10.1081 2.99899 10.2988 2.99899 10.4977V13.4977C2.99899 13.6966 3.07801 13.8874 3.21866 14.028C3.35931 14.1687 3.55008 14.2477 3.74899 14.2477ZM6.74896 19.4977H4.49898V17.2477C4.49898 17.0488 4.41996 16.858 4.27931 16.7174C4.13866 16.5767 3.9479 16.4977 3.74899 16.4977C3.55008 16.4977 3.35931 16.5767 3.21866 16.7174C3.07801 16.858 2.99899 17.0488 2.99899 17.2477V19.4977C2.99899 19.8955 3.15703 20.277 3.43833 20.5583C3.71963 20.8396 4.10116 20.9977 4.49898 20.9977H6.74896C6.94788 20.9977 7.13864 20.9186 7.27929 20.778C7.41994 20.6373 7.49896 20.4466 7.49896 20.2477C7.49896 20.0488 7.41994 19.858 7.27929 19.7173C7.13864 19.5767 6.94788 19.4977 6.74896 19.4977ZM3.74899 7.49777C3.9479 7.49777 4.13866 7.41875 4.27931 7.2781C4.41996 7.13745 4.49898 6.94669 4.49898 6.74777V4.49779H6.74896C6.94788 4.49779 7.13864 4.41877 7.27929 4.27812C7.41994 4.13747 7.49896 3.94671 7.49896 3.7478C7.49896 3.54889 7.41994 3.35812 7.27929 3.21747C7.13864 3.07682 6.94788 2.9978 6.74896 2.9978H4.49898C4.10116 2.9978 3.71963 3.15584 3.43833 3.43714C3.15703 3.71844 2.99899 4.09997 2.99899 4.49779V6.74777C2.99899 6.94669 3.07801 7.13745 3.21866 7.2781C3.35931 7.41875 3.55008 7.49777 3.74899 7.49777ZM17.2489 16.4977V7.49777C17.2489 7.29886 17.1699 7.10809 17.0292 6.96744C16.8886 6.82679 16.6978 6.74777 16.4989 6.74777H7.49896C7.30005 6.74777 7.10928 6.82679 6.96863 6.96744C6.82798 7.10809 6.74896 7.29886 6.74896 7.49777V16.4977C6.74896 16.6966 6.82798 16.8874 6.96863 17.028C7.10928 17.1687 7.30005 17.2477 7.49896 17.2477H16.4989C16.6978 17.2477 16.8886 17.1687 17.0292 17.028C17.1699 16.8874 17.2489 16.6966 17.2489 16.4977Z" fill="black"/>
</svg>
