<svg width="24" height="24" viewBox="0 0 24 24" fill="none" xmlns="http://www.w3.org/2000/svg">
<path d="M11.4277 7.99805H12.4844C12.548 7.99814 12.6093 8.02343 12.6543 8.06836C12.6992 8.11342 12.7246 8.17462 12.7246 8.23828C12.7246 8.30195 12.6993 8.36315 12.6543 8.4082C12.6093 8.45313 12.548 8.47842 12.4844 8.47852H11.4277V7.99805Z" fill="black"/>
<path d="M11.4277 6.25H12.3672C12.3999 6.25 12.4319 6.26303 12.4551 6.28613C12.4783 6.30937 12.4912 6.34117 12.4912 6.37402C12.4912 6.40683 12.4783 6.43871 12.4551 6.46191C12.4319 6.48493 12.3999 6.49805 12.3672 6.49805H11.4277V6.25Z" fill="black"/>
<path d="M7.00586 7.28027L7.0625 7.40039H6.94922L7.00586 7.28027Z" fill="black"/>
<path fill-rule="evenodd" clip-rule="evenodd" d="M3 4.5C3 3.67157 3.67157 3 4.5 3H19.5C20.3284 3 21 3.67157 21 4.5V19.5C21 20.3284 20.3284 21 19.5 21H4.5C3.67157 21 3 20.3284 3 19.5V4.5ZM14.6426 7.36426C14.6426 7.9128 14.8151 8.44753 15.1357 8.89258C15.4565 9.3376 15.9093 9.67118 16.4297 9.84473C16.9502 10.0182 17.5125 10.0229 18.0361 9.85938C18.5598 9.69578 19.0185 9.37148 19.3477 8.93262C19.5962 8.60127 19.5296 8.13135 19.1982 7.88281C18.8669 7.63442 18.3969 7.70188 18.1484 8.0332C18.0081 8.22022 17.812 8.35802 17.5889 8.42773C17.3657 8.49738 17.126 8.49576 16.9043 8.42188C16.6825 8.3479 16.4892 8.20529 16.3525 8.01562C16.2159 7.82596 16.1426 7.598 16.1426 7.36426C16.1426 7.13051 16.2159 6.90255 16.3525 6.71289C16.4892 6.52325 16.6826 6.3816 16.9043 6.30762C17.1261 6.23368 17.3657 6.23112 17.5889 6.30078C17.812 6.37049 18.0081 6.50832 18.1484 6.69531C18.3969 7.02663 18.8669 7.09409 19.1982 6.8457C19.5295 6.59715 19.5962 6.12723 19.3477 5.7959C19.0185 5.35706 18.5598 5.03272 18.0361 4.86914C17.5125 4.70561 16.9502 4.7103 16.4297 4.88379C15.9093 5.05733 15.4565 5.3909 15.1357 5.83594C14.8151 6.28099 14.6426 6.8157 14.6426 7.36426ZM6.17676 17.5713C6.17702 18.358 6.81581 18.996 7.60254 18.9961H16.582C17.3689 18.9961 18.0066 18.3581 18.0068 17.5713V12.3232C18.0068 11.909 17.671 11.5732 17.2568 11.5732C16.8428 11.5735 16.5068 11.9092 16.5068 12.3232V17.4961H7.67676V12.3232C7.67676 11.909 7.34097 11.5732 6.92676 11.5732C6.51286 11.5736 6.17676 11.9093 6.17676 12.3232V17.5713ZM9.17578 15.3203C9.17578 15.7344 9.51177 16.0701 9.92578 16.0703H14.3291C14.7432 16.0702 15.0791 15.7344 15.0791 15.3203C15.0791 14.9062 14.7432 14.5704 14.3291 14.5703H9.92578C9.51179 14.5706 9.17581 14.9063 9.17578 15.3203ZM9.17578 12.3203C9.17578 12.7344 9.51177 13.0701 9.92578 13.0703H14.3291C14.7432 13.0702 15.0791 12.7344 15.0791 12.3203C15.0791 11.9062 14.7432 11.5704 14.3291 11.5703H9.92578C9.51179 11.5706 9.17581 11.9063 9.17578 12.3203ZM9.92773 9.22852C9.92773 9.64257 10.2637 9.97825 10.6777 9.97852H12.4844C12.9458 9.97842 13.3885 9.79498 13.7148 9.46875C14.0411 9.14239 14.2246 8.69978 14.2246 8.23828C14.2246 7.82448 14.0762 7.42653 13.8105 7.11328C13.9269 6.88622 13.9912 6.6339 13.9912 6.37402C13.9912 5.94334 13.8202 5.53012 13.5156 5.22559C13.2111 4.92118 12.7978 4.75 12.3672 4.75H10.6777C10.2637 4.75026 9.92773 5.08595 9.92773 5.5V9.22852ZM4.57227 8.92871C4.39603 9.3034 4.55704 9.75034 4.93164 9.92676C5.30639 10.1031 5.75329 9.94209 5.92969 9.56738L6.24316 8.90039H7.76855L8.08203 9.56738C8.25842 9.94201 8.70538 10.103 9.08008 9.92676C9.45462 9.75027 9.61479 9.30338 9.43848 8.92871L8.93652 7.86133C8.93495 7.85761 8.93228 7.85428 8.93066 7.85059L7.68457 5.2002C7.56088 4.93745 7.29625 4.76962 7.00586 4.76953C6.75167 4.76961 6.51727 4.89819 6.37988 5.10645L6.32715 5.2002L4.57227 8.92871Z" fill="black"/>
</svg>
