<svg width="24" height="24" viewBox="0 0 24 24" fill="none" xmlns="http://www.w3.org/2000/svg">
<path fill-rule="evenodd" clip-rule="evenodd" d="M19.5 21C19.8978 21 20.2792 20.8419 20.5605 20.5605C20.8419 20.2792 21 19.8978 21 19.5V4.5C21 4.10218 20.8419 3.72076 20.5605 3.43945C20.2792 3.15815 19.8978 3 19.5 3H4.5C4.10218 3 3.72076 3.15815 3.43945 3.43945C3.15815 3.72076 3 4.10218 3 4.5V19.5C3 19.8978 3.15815 20.2792 3.43945 20.5605C3.72076 20.8419 4.10218 21 4.5 21H19.5ZM6.375 18.75C5.96093 18.7498 5.62502 18.4141 5.625 18C5.62499 13.313 5.62501 10.687 5.625 6C5.62501 5.58588 5.96091 5.25014 6.375 5.25C6.78921 5.25 7.12499 5.58579 7.125 6C7.12501 10.6855 7.12499 13.3145 7.125 18C7.12499 18.4142 6.7892 18.75 6.375 18.75ZM9.39941 9C8.9855 8.99965 8.64942 8.66399 8.64941 8.25C8.64942 7.83601 8.9855 7.50035 9.39941 7.5H18.3994C18.8136 7.5 19.1494 7.83579 19.1494 8.25C19.1494 8.6642 18.8136 9 18.3994 9H9.39941ZM9.39941 12.75C8.9855 12.7496 8.64942 12.414 8.64941 12C8.64942 11.586 8.9855 11.2504 9.39941 11.25H18.3994C18.8136 11.25 19.1494 11.5858 19.1494 12C19.1494 12.4142 18.8136 12.75 18.3994 12.75H9.39941ZM9.96191 17.6221C9.2825 17.6217 8.72325 17.1052 8.65625 16.4434L8.64941 16.3096L8.65625 16.1758C8.72323 15.5139 9.28248 14.9974 9.96191 14.9971H17.8369C18.5618 14.9971 19.1494 15.5847 19.1494 16.3096C19.1494 17.0344 18.5618 17.6221 17.8369 17.6221H9.96191Z" fill="black"/>
</svg>
