<svg viewBox="0 0 24 24" fill="none" xmlns="http://www.w3.org/2000/svg" width="24" height="24">
<path d="M11.511 8.194C11.511 7.942 11.545 7.74 11.612 7.589 11.679 7.433 11.771 7.317 11.889 7.245 12.006 7.172 12.141 7.136 12.292 7.136 12.516 7.136 12.701 7.22 12.846 7.388 12.992 7.55 13.065 7.819 13.065 8.194 13.065 8.44 13.032 8.643 12.964 8.8 12.897 8.951 12.804 9.065 12.687 9.143 12.575 9.216 12.443 9.253 12.292 9.253 12.063 9.253 11.875 9.169 11.729 9.001 11.584 8.833 11.511 8.563 11.511 8.194Z" fill="black"/>
<path d="M6.502 8.933C6.502 8.833 6.535 8.751 6.602 8.689 6.669 8.622 6.773 8.576 6.913 8.548 7.058 8.514 7.241 8.497 7.459 8.497H7.779V8.648C7.779 8.794 7.745 8.922 7.678 9.034 7.611 9.14 7.521 9.224 7.409 9.286 7.302 9.347 7.179 9.378 7.039 9.379 6.866 9.379 6.732 9.337 6.636 9.253 6.547 9.169 6.502 9.062 6.502 8.933Z" fill="black"/>
<path fill-rule="evenodd" clip-rule="evenodd" d="M2.4 3.3C2.4 2.803 2.803 2.4 3.3 2.4H20.94C21.437 2.4 21.84 2.803 21.84 3.3V20.94C21.84 21.437 21.437 21.84 20.94 21.84H3.3C2.803 21.84 2.4 21.437 2.4 20.94V3.3ZM15.056 8.186C15.056 8.628 15.152 9.014 15.342 9.345 15.533 9.669 15.799 9.919 16.14 10.092 16.487 10.266 16.894 10.353 17.359 10.353 17.521 10.353 17.689 10.337 17.863 10.303 18.042 10.275 18.224 10.218 18.409 10.134 18.543 10.084 18.638 10.009 18.694 9.908 18.75 9.802 18.776 9.692 18.77 9.58 18.764 9.463 18.731 9.356 18.669 9.261 18.608 9.166 18.526 9.102 18.425 9.068 18.325 9.029 18.21 9.04 18.081 9.102 17.986 9.147 17.89 9.18 17.795 9.203 17.7 9.219 17.608 9.227 17.518 9.227 17.222 9.227 16.992 9.135 16.829 8.951 16.667 8.766 16.586 8.51 16.586 8.186 16.586 8.024 16.605 7.878 16.644 7.75 16.689 7.621 16.751 7.514 16.829 7.43 16.908 7.34 17.003 7.273 17.115 7.228 17.233 7.183 17.367 7.161 17.518 7.161 17.608 7.161 17.7 7.172 17.795 7.194 17.896 7.211 17.991 7.242 18.081 7.287 18.21 7.348 18.325 7.363 18.425 7.329 18.532 7.295 18.613 7.231 18.669 7.136 18.731 7.04 18.764 6.934 18.77 6.817 18.781 6.699 18.758 6.589 18.702 6.489 18.651 6.383 18.559 6.305 18.425 6.254 18.235 6.17 18.05 6.114 17.871 6.086 17.692 6.052 17.521 6.035 17.359 6.035 17.012 6.035 16.695 6.086 16.41 6.186 16.13 6.282 15.886 6.422 15.678 6.607 15.477 6.792 15.323 7.018 15.217 7.287 15.11 7.55 15.056 7.85 15.056 8.186ZM5.569 18.581C5.569 19.345 6.189 19.965 6.953 19.965H17.286C18.051 19.965 18.67 19.346 18.67 18.581V12.121C18.67 11.674 18.308 11.31 17.861 11.31 17.414 11.31 17.051 11.674 17.051 12.121V18.346H7.188V12.121C7.188 11.673 6.826 11.31 6.379 11.31 5.931 11.31 5.569 11.674 5.569 12.121V18.581ZM9.014 16.321C9.014 16.768 9.376 17.13 9.824 17.13H14.416C14.864 17.13 15.226 16.768 15.226 16.321 15.226 15.874 14.864 15.511 14.416 15.511H9.824C9.377 15.511 9.014 15.874 9.014 16.321ZM9.014 13.458C9.014 13.905 9.376 14.268 9.824 14.268H14.416C14.864 14.268 15.226 13.905 15.226 13.458 15.226 13.011 14.864 12.648 14.416 12.648H9.824C9.377 12.648 9.014 13.011 9.014 13.458ZM10.041 9.58C10.041 9.826 10.103 10.014 10.226 10.143 10.355 10.271 10.539 10.336 10.78 10.336 11.015 10.336 11.195 10.271 11.318 10.143 11.423 10.037 11.482 9.892 11.501 9.708 11.591 9.873 11.727 10.012 11.906 10.126 12.158 10.277 12.444 10.353 12.763 10.353 13.121 10.353 13.435 10.266 13.704 10.092 13.978 9.919 14.19 9.669 14.341 9.345 14.493 9.02 14.569 8.636 14.569 8.194 14.569 7.74 14.493 7.354 14.341 7.035 14.19 6.716 13.978 6.47 13.704 6.296 13.435 6.123 13.121 6.035 12.763 6.035 12.455 6.035 12.177 6.109 11.931 6.254 11.759 6.356 11.629 6.48 11.536 6.622V5.019C11.536 4.773 11.469 4.585 11.334 4.457 11.206 4.328 11.021 4.263 10.78 4.263 10.545 4.263 10.363 4.328 10.234 4.457 10.105 4.585 10.041 4.773 10.041 5.019V9.58ZM5.082 8.992C5.082 9.255 5.15 9.491 5.284 9.698 5.424 9.9 5.614 10.059 5.855 10.177 6.101 10.294 6.384 10.353 6.703 10.353 6.91 10.353 7.095 10.316 7.257 10.243 7.42 10.171 7.552 10.07 7.652 9.941 7.717 9.858 7.765 9.765 7.8 9.661 7.812 9.868 7.867 10.028 7.971 10.143 8.094 10.271 8.271 10.336 8.501 10.336 8.725 10.336 8.895 10.271 9.013 10.143 9.13 10.014 9.19 9.826 9.19 9.58V7.883C9.19 7.458 9.114 7.11 8.963 6.841 8.817 6.567 8.593 6.365 8.291 6.237 7.994 6.102 7.616 6.035 7.157 6.035 6.966 6.035 6.757 6.052 6.527 6.086 6.303 6.119 6.057 6.186 5.788 6.287 5.642 6.343 5.533 6.422 5.46 6.523 5.393 6.623 5.356 6.73 5.351 6.841 5.351 6.953 5.379 7.058 5.435 7.153 5.497 7.248 5.581 7.316 5.687 7.355 5.793 7.394 5.922 7.385 6.073 7.329 6.28 7.251 6.468 7.198 6.636 7.17 6.804 7.136 6.956 7.119 7.09 7.119 7.341 7.119 7.518 7.161 7.618 7.245 7.725 7.329 7.779 7.472 7.779 7.673V7.791H7.459C6.882 7.791 6.42 7.831 6.073 7.909 5.726 7.982 5.474 8.105 5.317 8.278 5.16 8.452 5.083 8.69 5.082 8.992Z" fill="black"/>
</svg>