<svg viewBox="0 0 24 24" fill="none" xmlns="http://www.w3.org/2000/svg" width="24" height="24">
<path fill-rule="evenodd" clip-rule="evenodd" d="M20.7 21.6C21.197 21.6 21.6 21.197 21.6 20.7V3.3C21.6 2.803 21.197 2.4 20.7 2.4H3.3C2.803 2.4 2.4 2.803 2.4 3.3V20.7C2.4 21.197 2.803 21.6 3.3 21.6H20.7ZM5.62 19.105C5.173 19.105 4.811 18.743 4.811 18.295V5.695C4.811 5.248 5.173 4.886 5.62 4.886 6.068 4.886 6.43 5.248 6.43 5.695V18.295C6.43 18.743 6.068 19.105 5.62 19.105ZM8.898 9.209C8.119 9.208 7.488 8.577 7.488 7.799 7.488 7.02 8.119 6.389 8.898 6.389H17.768C18.547 6.389 19.178 7.02 19.178 7.799 19.178 8.578 18.547 9.209 17.768 9.209H8.898ZM8.298 13.232C7.851 13.232 7.488 12.869 7.488 12.422 7.488 11.975 7.851 11.612 8.298 11.612H18.378C18.826 11.612 19.188 11.975 19.188 12.422 19.188 12.869 18.826 13.231 18.378 13.232H8.298ZM8.299 17.423C7.852 17.423 7.489 17.061 7.489 16.614 7.489 16.166 7.852 15.804 8.299 15.804H18.38C18.827 15.804 19.189 16.167 19.189 16.614 19.189 17.061 18.827 17.423 18.38 17.423H8.299Z" fill="black"/>
</svg>