<svg width="24" height="24" viewBox="0 0 24 24" fill="none" xmlns="http://www.w3.org/2000/svg">
<path fill-rule="evenodd" clip-rule="evenodd" d="M19.5 3C19.8978 3 20.2792 3.15815 20.5605 3.43945C20.8419 3.72076 21 4.10218 21 4.5V19.5C21 19.8978 20.8419 20.2792 20.5605 20.5605C20.2792 20.8419 19.8978 21 19.5 21H4.5C4.10218 21 3.72076 20.8419 3.43945 20.5605C3.15815 20.2792 3 19.8978 3 19.5V4.5C3 4.10218 3.15815 3.72076 3.43945 3.43945C3.72076 3.15815 4.10218 3 4.5 3H19.5ZM6.375 5.25C5.96092 5.25016 5.62501 5.58589 5.625 6V18C5.62501 18.4141 5.96091 18.7499 6.375 18.75C6.78921 18.75 7.12498 18.4142 7.125 18V6C7.125 5.58579 6.78921 5.25 6.375 5.25ZM9.39941 15C8.9855 15.0004 8.64942 15.336 8.64941 15.75C8.64943 16.164 8.98551 16.4996 9.39941 16.5H18.3994C18.8136 16.5 19.1494 16.1642 19.1494 15.75C19.1494 15.3358 18.8136 15 18.3994 15H9.39941ZM9.39941 11.25C8.9855 11.2504 8.64942 11.586 8.64941 12C8.64943 12.414 8.98551 12.7496 9.39941 12.75H18.3994C18.8136 12.75 19.1494 12.4142 19.1494 12C19.1494 11.5858 18.8136 11.25 18.3994 11.25H9.39941ZM9.96191 6.37793C9.23734 6.37828 8.64942 6.96578 8.64941 7.69043C8.64941 8.41508 9.23734 9.00258 9.96191 9.00293H17.8369C18.5618 9.00293 19.1494 8.4153 19.1494 7.69043C19.1494 6.96556 18.5618 6.37793 17.8369 6.37793H9.96191Z" fill="black"/>
</svg>
