<svg xmlns="http://www.w3.org/2000/svg" width="24" height="24" fill="currentColor" viewBox="0 0 24 24"><path d="M20.1 2.28H3.9A1.62 1.62 0 0 0 2.28 3.9v16.2a1.62 1.62 0 0 0 1.62 1.62h16.2a1.62 1.62 0 0 0 1.62-1.62V3.9a1.62 1.62 0 0 0-1.62-1.62m-6.48 12.96a0.81 0.81 0 0 1-1.62 0V12H6.33v3.24a0.81 0.81 0 0 1-1.62 0V7.14a0.81 0.81 0 0 1 1.62 0v3.24H12v-3.24a0.81 0.81 0 0 1 1.62 0z m5.67 1.62a0.81 0.81 0 0 1-1.62 0v-6.581l-1.17 0.781a0.81 0.81 0 1 1-0.899-1.348l2.43-1.62a0.81 0.81 0 0 1 1.26 0.669z"/></svg>