<svg xmlns="http://www.w3.org/2000/svg" width="24" height="24" fill="currentColor" viewBox="0 0 24 24"><path d="M20.1 2.28H3.9A1.62 1.62 0 0 0 2.28 3.9v16.2a1.62 1.62 0 0 0 1.62 1.62h16.2a1.62 1.62 0 0 0 1.62-1.62V3.9a1.62 1.62 0 0 0-1.62-1.62M12 15.24a0.81 0.81 0 0 1-1.62 0V12H6.33v3.24a0.81 0.81 0 0 1-1.62 0V7.14a0.81 0.81 0 0 1 1.62 0v3.24h4.05v-3.24a0.81 0.81 0 0 1 1.62 0z m6.48 2.43h-4.05a0.81 0.81 0 0 1-0.648-1.296l3.644-4.86a1.216 1.216 0 1 0-1.939-1.464 1.32 1.32 0 0 0-0.261 0.487 0.81 0.81 0 1 1-1.588-0.321 2.852 2.852 0 1 1 5.083 2.271l-2.672 3.563h2.43a0.81 0.81 0 0 1 0 1.62z"/></svg>