<svg width="24" height="24" viewBox="0 0 24 24" fill="none" xmlns="http://www.w3.org/2000/svg">
<path d="M19.4989 3.0022H4.49901C4.10119 3.0022 3.71966 3.16023 3.43836 3.44153C3.15706 3.72284 2.99902 4.10436 2.99902 4.50219V19.5021C2.99902 19.8999 3.15706 20.2814 3.43836 20.5627C3.71966 20.844 4.10119 21.0021 4.49901 21.0021H19.4989C19.8967 21.0021 20.2782 20.844 20.5595 20.5627C20.8409 20.2814 20.9989 19.8999 20.9989 19.5021V4.50219C20.9989 4.10436 20.8409 3.72284 20.5595 3.44153C20.2782 3.16023 19.8967 3.0022 19.4989 3.0022ZM11.999 15.0021C11.999 15.201 11.9199 15.3918 11.7793 15.5324C11.6386 15.6731 11.4479 15.7521 11.249 15.7521C11.05 15.7521 10.8593 15.6731 10.7186 15.5324C10.578 15.3918 10.499 15.201 10.499 15.0021V12.0021H6.74899V15.0021C6.74899 15.201 6.66998 15.3918 6.52933 15.5324C6.38868 15.6731 6.19791 15.7521 5.999 15.7521C5.80009 15.7521 5.60933 15.6731 5.46867 15.5324C5.32802 15.3918 5.24901 15.201 5.24901 15.0021V7.50216C5.24901 7.30325 5.32802 7.11249 5.46867 6.97184C5.60933 6.83119 5.80009 6.75217 5.999 6.75217C6.19791 6.75217 6.38868 6.83119 6.52933 6.97184C6.66998 7.11249 6.74899 7.30325 6.74899 7.50216V10.5021H10.499V7.50216C10.499 7.30325 10.578 7.11249 10.7186 6.97184C10.8593 6.83119 11.05 6.75217 11.249 6.75217C11.4479 6.75217 11.6386 6.83119 11.7793 6.97184C11.9199 7.11249 11.999 7.30325 11.999 7.50216V15.0021ZM15.7489 17.2521C15.0108 17.2522 14.2985 16.9802 13.7483 16.488C13.6001 16.3553 13.5108 16.1691 13.4999 15.9704C13.489 15.7717 13.5574 15.5769 13.6902 15.4287C13.823 15.2805 14.0092 15.1911 14.2078 15.1802C14.4065 15.1693 14.6014 15.2378 14.7496 15.3705C14.9308 15.5325 15.1488 15.6481 15.3846 15.7071C15.6205 15.7662 15.8671 15.7671 16.1034 15.7097C16.3396 15.6522 16.5584 15.5383 16.7408 15.3775C16.9232 15.2168 17.0638 15.0141 17.1505 14.787C17.2372 14.5598 17.2674 14.315 17.2384 14.0736C17.2095 13.8322 17.1223 13.6015 16.9844 13.4013C16.8465 13.201 16.662 13.0373 16.4468 12.9242C16.2315 12.8112 15.9921 12.7521 15.7489 12.7521C15.6096 12.7521 15.4731 12.7133 15.3546 12.6401C15.2361 12.5669 15.1404 12.4621 15.0781 12.3375C15.0158 12.213 14.9895 12.0735 15.002 11.9348C15.0145 11.7961 15.0654 11.6636 15.1489 11.5521L16.4989 9.75215H14.2489C14.05 9.75215 13.8593 9.67313 13.7186 9.53248C13.578 9.39183 13.4989 9.20106 13.4989 9.00215C13.4989 8.80324 13.578 8.61248 13.7186 8.47183C13.8593 8.33117 14.05 8.25216 14.2489 8.25216H17.9989C18.1382 8.25216 18.2747 8.29094 18.3932 8.36417C18.5117 8.43739 18.6074 8.54217 18.6697 8.66674C18.732 8.79132 18.7584 8.93079 18.7459 9.06951C18.7334 9.20823 18.6825 9.34072 18.5989 9.45215L17.0324 11.5409C17.648 11.8325 18.1461 12.3249 18.4447 12.9372C18.7432 13.5495 18.8245 14.2452 18.6752 14.9099C18.5258 15.5745 18.1547 16.1685 17.6229 16.5942C17.091 17.0199 16.4301 17.2519 15.7489 17.2521Z" fill="black"/>
</svg>
