<svg xmlns="http://www.w3.org/2000/svg" width="24" height="24" fill="currentColor" viewBox="0 0 24 24"><path d="M15.691 13.62l1.979-2.518v2.518z m6.029-9.72v16.2a1.62 1.62 0 0 1-1.62 1.62H3.9a1.62 1.62 0 0 1-1.62-1.62V3.9A1.62 1.62 0 0 1 3.9 2.28h16.2a1.62 1.62 0 0 1 1.62 1.62M12 7.14a0.81 0.81 0 0 0-1.62 0v3.24H6.33v-3.24a0.81 0.81 0 0 0-1.62 0v8.1a0.81 0.81 0 0 0 1.62 0V12h4.05v3.24a0.81 0.81 0 0 0 1.62 0z m8.506 7.29a0.81 0.81 0 0 0-0.81-0.81h-0.405V8.76a0.81 0.81 0 0 0-1.447-0.5l-4.456 5.67a0.81 0.81 0 0 0 0.638 1.31h3.644v1.62a0.81 0.81 0 0 0 1.62 0V15.24h0.404a0.81 0.81 0 0 0 0.81-0.81z"/></svg>