<svg width="24" height="24" viewBox="0 0 24 24" fill="none" xmlns="http://www.w3.org/2000/svg">
<path d="M15.4171 13.5019L17.2489 11.1703V13.5019H15.4171ZM20.9989 4.50194V19.5018C20.9989 19.8996 20.8409 20.2812 20.5595 20.5625C20.2782 20.8438 19.8967 21.0018 19.4989 21.0018H4.49901C4.10119 21.0018 3.71966 20.8438 3.43836 20.5625C3.15706 20.2812 2.99902 19.8996 2.99902 19.5018V4.50194C2.99902 4.10412 3.15706 3.72259 3.43836 3.44129C3.71966 3.15999 4.10119 3.00195 4.49901 3.00195H19.4989C19.8967 3.00195 20.2782 3.15999 20.5595 3.44129C20.8409 3.72259 20.9989 4.10412 20.9989 4.50194ZM11.999 7.50192C11.999 7.30301 11.9199 7.11224 11.7793 6.97159C11.6386 6.83094 11.4479 6.75192 11.249 6.75192C11.05 6.75192 10.8593 6.83094 10.7186 6.97159C10.578 7.11224 10.499 7.30301 10.499 7.50192V10.5019H6.74899V7.50192C6.74899 7.30301 6.66998 7.11224 6.52933 6.97159C6.38868 6.83094 6.19791 6.75192 5.999 6.75192C5.80009 6.75192 5.60933 6.83094 5.46867 6.97159C5.32802 7.11224 5.24901 7.30301 5.24901 7.50192V15.0019C5.24901 15.2008 5.32802 15.3915 5.46867 15.5322C5.60933 15.6728 5.80009 15.7519 5.999 15.7519C6.19791 15.7519 6.38868 15.6728 6.52933 15.5322C6.66998 15.3915 6.74899 15.2008 6.74899 15.0019V12.0019H10.499V15.0019C10.499 15.2008 10.578 15.3915 10.7186 15.5322C10.8593 15.6728 11.05 15.7519 11.249 15.7519C11.4479 15.7519 11.6386 15.6728 11.7793 15.5322C11.9199 15.3915 11.999 15.2008 11.999 15.0019V7.50192ZM19.8739 14.2519C19.8739 14.053 19.7949 13.8622 19.6542 13.7215C19.5136 13.5809 19.3228 13.5019 19.1239 13.5019H18.7489V9.00191C18.7488 8.84597 18.7002 8.69393 18.6097 8.56694C18.5192 8.43995 18.3913 8.34433 18.244 8.29338C18.0966 8.24243 17.937 8.23869 17.7874 8.28267C17.6378 8.32666 17.5056 8.41618 17.4092 8.53879L13.2843 13.7887C13.1974 13.8994 13.1434 14.0322 13.1284 14.1721C13.1135 14.312 13.1382 14.4532 13.1997 14.5797C13.2612 14.7063 13.357 14.8129 13.4762 14.8876C13.5955 14.9622 13.7333 15.0018 13.8739 15.0019H17.2489V16.5019C17.2489 16.7008 17.3279 16.8915 17.4686 17.0322C17.6092 17.1728 17.8 17.2518 17.9989 17.2518C18.1978 17.2518 18.3886 17.1728 18.5292 17.0322C18.6699 16.8915 18.7489 16.7008 18.7489 16.5019V15.0019H19.1239C19.3228 15.0019 19.5136 14.9228 19.6542 14.7822C19.7949 14.6415 19.8739 14.4508 19.8739 14.2519Z" fill="black"/>
</svg>
