<svg width="24" height="24" viewBox="0 0 24 24" fill="none" xmlns="http://www.w3.org/2000/svg">
<path d="M17.9989 14.2514C17.9989 14.548 17.9109 14.8381 17.7461 15.0847C17.5813 15.3314 17.347 15.5237 17.0729 15.6372C16.7989 15.7507 16.4973 15.7804 16.2063 15.7225C15.9153 15.6647 15.648 15.5218 15.4383 15.312C15.2285 15.1023 15.0856 14.835 15.0278 14.544C14.9699 14.253 14.9996 13.9514 15.1131 13.6774C15.2266 13.4033 15.4189 13.169 15.6656 13.0042C15.9122 12.8394 16.2023 12.7514 16.4989 12.7514C16.8967 12.7514 17.2783 12.9094 17.5596 13.1907C17.8409 13.472 17.9989 13.8536 17.9989 14.2514ZM20.9989 4.50145V19.5013C20.9989 19.8992 20.8409 20.2807 20.5595 20.562C20.2782 20.8433 19.8967 21.0013 19.4989 21.0013H4.49901C4.10119 21.0013 3.71966 20.8433 3.43836 20.562C3.15706 20.2807 2.99902 19.8992 2.99902 19.5013V4.50145C2.99902 4.10363 3.15706 3.7221 3.43836 3.4408C3.71966 3.1595 4.10119 3.00146 4.49901 3.00146H19.4989C19.8967 3.00146 20.2782 3.1595 20.5595 3.4408C20.8409 3.7221 20.9989 4.10363 20.9989 4.50145ZM11.999 7.50143C11.999 7.30252 11.9199 7.11176 11.7793 6.9711C11.6386 6.83045 11.4479 6.75144 11.249 6.75144C11.05 6.75144 10.8593 6.83045 10.7186 6.9711C10.578 7.11176 10.499 7.30252 10.499 7.50143V10.5014H6.74899V7.50143C6.74899 7.30252 6.66998 7.11176 6.52933 6.9711C6.38868 6.83045 6.19791 6.75144 5.999 6.75144C5.80009 6.75144 5.60933 6.83045 5.46867 6.9711C5.32802 7.11176 5.24901 7.30252 5.24901 7.50143V15.0014C5.24901 15.2003 5.32802 15.391 5.46867 15.5317C5.60933 15.6724 5.80009 15.7514 5.999 15.7514C6.19791 15.7514 6.38868 15.6724 6.52933 15.5317C6.66998 15.391 6.74899 15.2003 6.74899 15.0014V12.0014H10.499V15.0014C10.499 15.2003 10.578 15.391 10.7186 15.5317C10.8593 15.6724 11.05 15.7514 11.249 15.7514C11.4479 15.7514 11.6386 15.6724 11.7793 15.5317C11.9199 15.391 11.999 15.2003 11.999 15.0014V7.50143ZM19.4989 14.2514C19.4989 13.4557 19.1828 12.6927 18.6202 12.1301C18.0576 11.5675 17.2946 11.2514 16.4989 11.2514L17.5817 9.37642C17.6812 9.20411 17.7081 8.99935 17.6566 8.80719C17.6051 8.61502 17.4793 8.45119 17.307 8.35174C17.1347 8.25228 16.93 8.22535 16.7378 8.27686C16.5456 8.32837 16.3818 8.45412 16.2824 8.62642L13.9011 12.7514L13.888 12.7767C13.6619 13.1763 13.5305 13.6226 13.504 14.081C13.4774 14.5394 13.5565 14.9978 13.7351 15.4208C13.9136 15.8439 14.1869 16.2203 14.5339 16.521C14.8809 16.8218 15.2923 17.0389 15.7364 17.1556C16.1805 17.2723 16.6454 17.2856 17.0954 17.1943C17.5455 17.103 17.9685 16.9096 18.332 16.629C18.6955 16.3484 18.9897 15.9881 19.192 15.5759C19.3943 15.1637 19.4993 14.7106 19.4989 14.2514Z" fill="black"/>
</svg>
