<svg viewBox="0 0 24 24" fill="none" xmlns="http://www.w3.org/2000/svg" width="24" height="24">
<path fill-rule="evenodd" clip-rule="evenodd" d="M20.82 2.28C21.317 2.28 21.72 2.683 21.72 3.18V20.82C21.72 21.317 21.317 21.72 20.82 21.72H3.18C2.683 21.72 2.28 21.317 2.28 20.82V3.18C2.28 2.683 2.683 2.28 3.18 2.28H20.82ZM7.617 4.224C7.219 4.224 6.897 4.546 6.897 4.944V19.056C6.897 19.454 7.219 19.776 7.617 19.776H10.065C10.462 19.776 10.785 19.454 10.785 19.056V4.944C10.785 4.546 10.462 4.224 10.065 4.224H7.617ZM13.935 4.224C13.538 4.224 13.215 4.546 13.215 4.944V19.056C13.215 19.454 13.538 19.776 13.935 19.776H16.383C16.781 19.776 17.103 19.454 17.103 19.056V4.944C17.103 4.546 16.781 4.224 16.383 4.224H13.935Z" fill="black"/>
</svg>