<svg xmlns="http://www.w3.org/2000/svg" width="24" height="24" fill="currentColor" viewBox="0 0 24 24"><path d="M18.48 0.66H5.52A1.62 1.62 0 0 0 3.9 2.28v19.44a1.62 1.62 0 0 0 1.62 1.62h12.96a1.62 1.62 0 0 0 1.62-1.62V2.28a1.62 1.62 0 0 0-1.62-1.62M9.164 19.29a1.216 1.216 0 1 1 1.215-1.214 1.216 1.216 0 0 1-1.215 1.214m0-6.076A1.216 1.216 0 1 1 10.379 12a1.216 1.216 0 0 1-1.215 1.214m0-6.075a1.216 1.216 0 1 1 1.215-1.216 1.216 1.216 0 0 1-1.215 1.216m5.67 12.15a1.216 1.216 0 1 1 1.215-1.215 1.216 1.216 0 0 1-1.215 1.215m0-6.076a1.216 1.216 0 1 1 1.215-1.214 1.216 1.216 0 0 1-1.215 1.214m0-6.075a1.216 1.216 0 1 1 1.215-1.216 1.216 1.216 0 0 1-1.215 1.216"/></svg>