<svg width="24" height="24" viewBox="0 0 24 24" fill="none" xmlns="http://www.w3.org/2000/svg">
<path d="M20.9989 5.99927H2.99901C2.60119 5.99927 2.21966 6.1573 1.93836 6.4386C1.65706 6.71991 1.49902 7.10143 1.49902 7.49926V16.4992C1.49902 16.897 1.65706 17.2785 1.93836 17.5598C2.21966 17.8411 2.60119 17.9992 2.99901 17.9992H20.9989C21.3967 17.9992 21.7782 17.8411 22.0595 17.5598C22.3408 17.2785 22.4989 16.897 22.4989 16.4992V7.49926C22.4989 7.10143 22.3408 6.71991 22.0595 6.4386C21.7782 6.1573 21.3967 5.99927 20.9989 5.99927ZM17.6239 13.1242C17.4014 13.1242 17.1839 13.0582 16.9989 12.9346C16.8139 12.811 16.6697 12.6353 16.5845 12.4297C16.4994 12.2242 16.4771 11.998 16.5205 11.7797C16.5639 11.5615 16.6711 11.3611 16.8284 11.2037C16.9857 11.0464 17.1862 10.9393 17.4044 10.8958C17.6227 10.8524 17.8489 10.8747 18.0544 10.9599C18.26 11.045 18.4357 11.1892 18.5593 11.3742C18.6829 11.5592 18.7489 11.7767 18.7489 11.9992C18.7489 12.2976 18.6304 12.5837 18.4194 12.7947C18.2084 13.0057 17.9223 13.1242 17.6239 13.1242Z" fill="black"/>
</svg>
