<svg width="24" height="24" viewBox="0 0 24 24" fill="none" xmlns="http://www.w3.org/2000/svg">
<path d="M14.9414 9.87695C15.5044 9.87695 16.0443 10.101 16.4424 10.499C16.8405 10.8972 17.0645 11.437 17.0645 12C17.0645 12.563 16.8405 13.1028 16.4424 13.501C16.0443 13.899 15.5044 14.123 14.9414 14.123H14.2559V9.87695H14.9414Z" fill="black"/>
<path fill-rule="evenodd" clip-rule="evenodd" d="M21 4.5C21.8284 4.5 22.5 5.17157 22.5 6V18C22.5 18.8284 21.8284 19.5 21 19.5H3C2.17157 19.5 1.5 18.8284 1.5 18V6C1.5 5.17157 2.17157 4.5 3 4.5H21ZM10.4961 8.37305C10.0807 8.37305 9.74414 8.70965 9.74414 9.125V11.248H6.93555V9.125C6.93555 8.70973 6.59883 8.37318 6.18359 8.37305C5.76824 8.37305 5.43164 8.70965 5.43164 9.125V14.875C5.43164 15.2903 5.76824 15.627 6.18359 15.627C6.59883 15.6268 6.93555 15.2903 6.93555 14.875V12.752H9.74414V14.875C9.74414 15.2903 10.0807 15.627 10.4961 15.627C10.9113 15.6268 11.248 15.2903 11.248 14.875V9.125C11.248 8.70973 10.9113 8.37318 10.4961 8.37305ZM13.5039 8.37305C13.0887 8.37318 12.752 8.70973 12.752 9.125V14.875C12.752 15.2903 13.0887 15.6268 13.5039 15.627H14.9414C15.9033 15.627 16.8257 15.2446 17.5059 14.5645C18.1861 13.8842 18.5684 12.962 18.5684 12C18.5684 11.038 18.1861 10.1158 17.5059 9.43555C16.8257 8.75542 15.9033 8.37305 14.9414 8.37305H13.5039Z" fill="black"/>
</svg>
