<?xml version="1.0" encoding="utf-8"?>
<svg xmlns="http://www.w3.org/2000/svg" width="512" height="512" viewBox="0 0 512 512">
<path d="M480 247.65V264.35C480 295.08 455.12 320 424.43 320H415.26V320.07C410.82 365.92 386.96 406.09 352.01 432.26C351.87 458.65 330.43 480 304.01 480C289.6 480 276.68 473.65 267.88 463.6C260.49 455.17 256.01 444.11 256.01 432C256.01 405.49 277.5 384 304.01 384C318.51 384 331.51 390.43 340.31 400.6C342.49 398.71 344.61 396.72 346.67 394.66C367.04 374.28 379.67 348.23 383.07 320.07V320H367.99C359.16 320 352 312.83 352 303.99V208.01C352 199.17 359.16 192 367.99 192H384V191.5C384 157.44 370.74 125.43 346.66 101.34C322.57 77.26 290.56 64 256.5 64H255.5C221.44 64 189.43 77.26 165.34 101.34C141.26 125.43 128 157.44 128 191.5V192H143.99C152.83 192 160 199.17 160 208.01V303.99C160 312.83 152.83 320 143.99 320H87.65C56.92 320 32 295.08 32 264.35V247.65C32 216.92 56.92 192 87.65 192H96V191.5C96 103.41 167.41 32 255.5 32H256.5C344.59 32 416 103.41 416 191.5V192H424.43C455.12 192 480 216.92 480 247.65ZM208 240C199.16 240 192 247.16 192 256C192 264.84 199.16 272 208 272C216.84 272 224 264.84 224 256C224 247.16 216.84 240 208 240ZM256 240C247.16 240 240 247.16 240 256C240 264.84 247.16 272 256 272C264.84 272 272 264.84 272 256C272 247.16 264.84 240 256 240ZM304 240C295.16 240 288 247.16 288 256C288 264.84 295.16 272 304 272C312.84 272 320 264.84 320 256C320 247.16 312.84 240 304 240Z" fill="black"/>
</svg>
