<svg xmlns="http://www.w3.org/2000/svg" fill="currentColor" viewBox="0 0 24 24" width="24" height="24"><path d="M11.19 6.33A0.81 0.81 0 1 1 12 7.14a0.81 0.81 0 0 1-0.81-0.81m2.43 6.48a0.81 0.81 0 1 0 0.81-0.81 0.81 0.81 0 0 0-0.81 0.81m4.91 3.592A8.94 8.94 0 0 0 21.72 9.356q0-0.112-0.01-0.222a0.408 0.408 0 0 0-0.404-0.379h-2.446l-2.342 2.809a2.43 2.43 0 1 1-1.243-1.038l2.582-3.1a0.816 0.816 0 0 1 0.623-0.287h2.342a0.406 0.406 0 0 0 0.382-0.541c-1.178-3.306-4.258-5.736-7.915-5.931h-0.06a0.408 0.408 0 0 0-0.42 0.405v2.961a2.43 2.43 0 1 1-1.62 0V1.3a0.406 0.406 0 0 0-0.496-0.396 8.928 8.928 0 0 0-6.794 8.462l-2.273 4.368-0.023 0.046a1.62 1.62 0 0 0 0.761 2.096l0.025 0.012 2.32 1.062v3.139a1.62 1.62 0 0 0 1.62 1.62h4.05v0.81a0.81 0.81 0 0 0 0.81 0.81h7.267a0.84 0.84 0 0 0 0.412-0.101 0.81 0.81 0 0 0 0.416-0.81z"/></svg>