<svg width="24" height="24" viewBox="0 0 24 24" fill="none" xmlns="http://www.w3.org/2000/svg">
<path d="M11.9991 7.49434C12.4133 7.49434 12.7491 7.15855 12.7491 6.74434C12.7491 6.33013 12.4133 5.99435 11.9991 5.99435C11.5849 5.99435 11.2491 6.33013 11.2491 6.74434C11.2491 7.15855 11.5849 7.49434 11.9991 7.49434Z" fill="black"/>
<path d="M18.0459 16.0694C18.9943 15.2729 19.752 14.2738 20.2631 13.1457C20.7741 12.0176 21.0256 10.7892 20.999 9.55099C20.999 9.48224 20.9962 9.41381 20.9906 9.34568C20.9846 9.25034 20.9425 9.16088 20.8728 9.09554C20.8031 9.03021 20.7111 8.99394 20.6156 8.99412H18.3506L16.1822 11.5957C16.453 12.0521 16.5538 12.5897 16.4666 13.1132C16.3795 13.6368 16.11 14.1127 15.7059 14.4568C15.3018 14.801 14.7891 14.9911 14.2583 14.9938C13.7275 14.9964 13.2129 14.8113 12.8054 14.4711C12.3979 14.131 12.1238 13.6578 12.0315 13.1351C11.9392 12.6124 12.0347 12.0739 12.301 11.6148C12.5673 11.1557 12.9874 10.8055 13.487 10.6261C13.9865 10.4468 14.5334 10.4498 15.031 10.6347L17.4225 7.76413C17.4934 7.68045 17.5817 7.61332 17.6813 7.56748C17.7809 7.52164 17.8894 7.49821 17.9991 7.49882H20.1684C20.2286 7.49889 20.2879 7.48448 20.3413 7.45681C20.3948 7.42914 20.4407 7.38902 20.4754 7.33983C20.5101 7.29065 20.5324 7.23384 20.5405 7.17422C20.5485 7.1146 20.5422 7.0539 20.5219 6.99726C19.4306 3.93635 16.5797 1.68637 13.1935 1.50637H13.1382C13.0877 1.50448 13.0375 1.51278 12.9903 1.53077C12.9432 1.54877 12.9002 1.57609 12.8639 1.6111C12.8275 1.64611 12.7986 1.6881 12.7789 1.73454C12.7592 1.78097 12.7491 1.83091 12.7491 1.88136V4.62353C13.2495 4.80045 13.6713 5.14858 13.9398 5.60638C14.2084 6.06419 14.3064 6.60219 14.2167 7.12531C14.1269 7.64843 13.8551 8.12298 13.4493 8.46508C13.0435 8.80718 12.5299 8.99482 11.9991 8.99482C11.4683 8.99482 10.9547 8.80718 10.5489 8.46508C10.1431 8.12298 9.87128 7.64843 9.78153 7.12531C9.69177 6.60219 9.78984 6.06419 10.0584 5.60638C10.327 5.14858 10.7487 4.80045 11.2491 4.62353V2.0923C11.2493 2.03588 11.2367 1.98016 11.2123 1.92928C11.1879 1.87841 11.1524 1.83369 11.1083 1.79846C11.0642 1.76322 11.0128 1.73839 10.9578 1.7258C10.9028 1.71321 10.8457 1.71319 10.7907 1.72574C9.0267 2.15896 7.45456 3.16121 6.31733 4.57754C5.18009 5.99387 4.54111 7.74539 4.49916 9.56131L2.39449 13.6057L2.37387 13.6478C2.22046 13.9999 2.20797 14.3975 2.33896 14.7585C2.46994 15.1196 2.73443 15.4166 3.07792 15.5884L3.10136 15.5997L5.24916 16.5831V19.4894C5.24916 19.8872 5.40719 20.2687 5.68849 20.55C5.9698 20.8313 6.35132 20.9893 6.74915 20.9893H10.4991V21.7393C10.4991 21.9382 10.5781 22.129 10.7188 22.2697C10.8594 22.4103 11.0502 22.4893 11.2491 22.4893H17.9775C18.1103 22.491 18.2413 22.4588 18.3581 22.3956C18.4901 22.3236 18.5974 22.2136 18.6662 22.0799C18.7349 21.9461 18.7618 21.7948 18.7434 21.6456L18.0459 16.0694Z" fill="black"/>
</svg>
