<svg width="24" height="24" viewBox="0 0 24 24" fill="none" xmlns="http://www.w3.org/2000/svg">
<g clip-path="url(#clip0_2021_25304)">
<path d="M21.7489 12.0011V19.501C21.7489 20.4956 21.3538 21.4494 20.6505 22.1527C19.9473 22.8559 18.9935 23.251 17.9989 23.251H12.7489C12.55 23.251 12.3593 23.172 12.2186 23.0313C12.078 22.8907 11.999 22.6999 11.999 22.501C11.999 22.3021 12.078 22.1113 12.2186 21.9707C12.3593 21.83 12.55 21.751 12.7489 21.751H17.9989C18.5956 21.751 19.1679 21.514 19.5899 21.092C20.0118 20.67 20.2489 20.0978 20.2489 19.501H17.9989C17.4022 19.501 16.8299 19.264 16.4079 18.842C15.986 18.4201 15.7489 17.8478 15.7489 17.251V13.5011C15.7489 12.9043 15.986 12.332 16.4079 11.9101C16.8299 11.4881 17.4022 11.2511 17.9989 11.2511H20.2161C20.0741 9.69198 19.4915 8.20544 18.5363 6.9651C17.581 5.72476 16.2925 4.78183 14.8214 4.24645C13.3502 3.71107 11.7571 3.60534 10.2281 3.94161C8.69905 4.27789 7.29729 5.04228 6.18649 6.1455C4.80524 7.50853 3.95331 9.31805 3.78276 11.2511H5.999C6.59573 11.2511 7.16802 11.4881 7.58997 11.9101C8.01193 12.332 8.24898 12.9043 8.24898 13.5011V17.251C8.24898 17.8478 8.01193 18.4201 7.58997 18.842C7.16802 19.264 6.59573 19.501 5.999 19.501H4.49901C3.90227 19.501 3.32998 19.264 2.90803 18.842C2.48607 18.4201 2.24902 17.8478 2.24902 17.251V12.0011C2.25113 10.0697 2.82617 8.18246 3.90136 6.57809C4.97655 4.97371 6.50356 3.72439 8.28909 2.98826C10.0746 2.25212 12.0384 2.06226 13.9319 2.44271C15.8254 2.82317 17.5635 3.75682 18.9261 5.12551C19.8257 6.02954 20.5382 7.1022 21.0225 8.28204C21.5069 9.46187 21.7538 10.7257 21.7489 12.0011Z" fill="black"/>
</g>
<defs>
<clipPath id="clip0_2021_25304">
<rect width="23.9998" height="23.9998" fill="white"/>
</clipPath>
</defs>
</svg>
