<svg xmlns="http://www.w3.org/2000/svg" fill="currentColor" viewBox="0 0 24 24" width="24" height="24"><path d="M11.325 7.275A.675.675 0 1 1 12 7.95a.675.675 0 0 1-.675-.675m2.025 5.4a.675.675 0 1 0 .675-.675.675.675 0 0 0-.675.675m4.092 2.993A7.45 7.45 0 0 0 20.1 9.797q0-.093-.008-.185a.34.34 0 0 0-.337-.316h-2.038l-1.952 2.341a2.025 2.025 0 1 1-1.036-.865l2.152-2.584a.68.68 0 0 1 .519-.239h1.952a.338.338 0 0 0 .318-.451c-.982-2.755-3.548-4.78-6.596-4.942h-.05a.34.34 0 0 0-.35.337v2.468a2.025 2.025 0 1 1-1.35 0V3.083a.338.338 0 0 0-.413-.33 7.44 7.44 0 0 0-5.662 7.052l-1.894 3.64-.019.038a1.35 1.35 0 0 0 .634 1.747l.021.01 1.933.885v2.616a1.35 1.35 0 0 0 1.35 1.35h3.375v.675a.675.675 0 0 0 .675.675h6.056a.7.7 0 0 0 .343-.084.675.675 0 0 0 .347-.675z"/></svg>