<?xml version="1.0" encoding="utf-8"?>
<svg xmlns="http://www.w3.org/2000/svg" width="512" height="512" viewBox="0 0 512 512">
<path d="M446.57 120.72L368.1 42.41C356.11 30.44 336.88 29.8 324.11 40.93L322.5 42.34L142.15 194.11L123.71 209.62C121.63 211.37 119.87 213.33 118.44 215.43C118.37 215.52 118.31 215.61 118.26 215.7C111.32 226.55 112.32 241.02 122.04 250.73L124.16 252.85L124.11 252.97L110.11 286.91L84.56 348.85L35.76 397.55C31.4 401.9 31.02 406.6 33.64 410.97C35.76 414.49 41.61 417.01 45.07 417.01C65.79 416.98 118.77 416.59 129.82 416.61L141.13 405.32L190.62 386.83L236.51 366.16C242.13 371.74 249.46 374.51 256.76 374.51C261.99 374.51 267.21 373.09 271.79 370.27C272.89 369.61 273.95 368.86 274.96 368.02L274.98 368C276.3 366.93 277.54 365.71 278.68 364.37L446.61 166.23L448.05 164.59C459.18 151.84 458.53 132.68 446.56 120.72H446.57ZM84.56 394.02L107.19 371.43L118.51 382.72C100.83 389.08 95.17 390.49 84.55 394.02H84.56ZM177.18 362.85L154.12 374.75L119.11 336.82L146.11 272.94L214.12 343.81L177.17 362.86L177.18 362.85ZM253.98 337.66L150.46 234.81L345.36 65.14L423.81 143.44L254 337.66H253.98ZM480 385.16V416.91C478.09 417.35 477.01 417.83 475.15 418.39C468.87 420.73 463.04 423.7 457.47 427C452.22 430.33 447.13 433.83 441.91 437.19C434.68 441.85 427.31 446.39 419.81 450.79C408.06 457.69 396.26 464.44 382.13 467.91C376.07 469.4 369.47 470.24 363.04 470.24C361.8 470.24 360.57 470.21 359.35 470.15C351.21 469.72 342.96 468.43 335.03 466.9C309.1 461.92 284.59 452.47 258.16 449.17C253.13 448.72 248.08 448.5 243.03 448.5C238.28 448.5 233.53 448.7 228.8 449.11C216.65 450.77 205.15 454.4 193.82 458.21C183.28 461.76 172.74 465.22 161.8 467.94C140.55 473.21 118.76 475.25 96.66 476.75C75.2 478.21 32 481 32 481V449.05C32 449.05 62.06 447.15 76.95 446.14C90.66 445.21 104.45 444.54 118.12 443.19C137.98 440.82 157.14 436.08 175.67 429.93C188.16 425.67 200.74 421.21 214.06 418.92C223.43 417.31 232.9 416.58 242.36 416.58C259.74 416.58 277.11 419.06 293.82 423.15C315.02 428.35 335.78 435.2 357.75 438.07C359.37 438.19 360.98 438.25 362.6 438.25C363.8 438.25 365 438.21 366.2 438.14C369.03 437.7 371.8 437.06 374.5 436.27C380.12 434.12 385.26 431.37 390.37 428.51C396.16 425.27 401.85 421.92 407.46 418.49C417.55 412.15 427.21 405.38 437.52 399.26C447.82 393.16 459.43 388.32 471.88 385.71C473.92 385.28 475.78 385 477.64 385C478.42 385 479.2 385.05 480 385.16Z"/>
</svg>
