<svg xmlns="http://www.w3.org/2000/svg" width="24" height="24" fill="currentColor" viewBox="0 0 24 24"><path d="M24.724 9.806a0.81 0.81 0 0 0-1.146 0l-5.097 5.098-8.575-8.575 5.098-5.097a0.81 0.81 0 1 0-1.146-1.146L8.761 5.184a1.62 1.62 0 0 0-0.285 1.904L6.331 9.234a1.62 1.62 0 0 0 0 2.291l0.475 0.475-5.907 5.906a0.81 0.81 0 0 0 0.317 1.342l7.29 2.43a0.84 0.84 0 0 0 0.255 0.042 0.816 0.816 0 0 0 0.574-0.236l3.476-3.478 0.475 0.475a1.62 1.62 0 0 0 2.291 0l2.145-2.144a1.62 1.62 0 0 0 1.905-0.286l5.098-5.096a0.81 0.81 0 0 0 0-1.146z m-10.294 7.528l-6.955-6.955 2.095-2.095 6.955 6.955z"/></svg>