<?xml version="1.0" encoding="utf-8"?>
<svg xmlns="http://www.w3.org/2000/svg" width="512" height="512" viewBox="0 0 512 512">
  <path d="M271.66 369.51C272.72 369.02 273.77 368.29 274.83 367.26C273.82 368.1 272.76 368.85 271.66 369.51ZM480 448V480H32V448H480ZM446.57 119.72L368.1 41.41C356.11 29.44 336.88 28.8 324.11 39.93L322.5 41.34L142.15 193.11L123.71 208.62C121.63 210.37 119.87 212.33 118.44 214.43C118.37 214.52 118.31 214.61 118.26 214.7C111.32 225.55 112.32 240.02 122.04 249.73L124.16 251.85L124.11 251.97L110.11 285.91L84.56 347.85L35.76 396.55C31.4 400.9 31.02 405.6 33.64 409.97C35.76 413.49 41.61 416.01 45.07 416.01C65.79 415.98 118.77 415.59 129.82 415.61L141.13 404.32L190.62 385.83L236.51 365.16C242.13 370.74 249.46 373.51 256.76 373.51C261.99 373.51 267.21 372.09 271.79 369.27C272.89 368.61 273.95 367.86 274.96 367.02L274.98 367C276.3 365.93 277.54 364.71 278.68 363.37L446.61 165.23L448.05 163.59C459.18 150.84 458.53 131.68 446.56 119.72H446.57ZM84.56 393.02L107.19 370.43L118.51 381.72C100.83 388.08 95.17 389.49 84.55 393.02H84.56ZM177.18 361.85L154.12 373.75L119.11 335.82L146.11 271.94L214.12 342.81L177.17 361.86L177.18 361.85ZM253.98 336.66L150.46 233.81L345.36 64.14L423.81 142.44L254 336.66H253.98Z"/>
</svg>
