<svg width="24" height="24" viewBox="0 0 24 24" fill="none" xmlns="http://www.w3.org/2000/svg">
<path d="M18.8931 5.10548C17.0647 3.27699 14.5847 2.24976 11.9988 2.24976C9.41295 2.24976 6.93299 3.27699 5.1045 5.10548C3.27601 6.93397 2.24878 9.41393 2.24878 11.9998C2.24878 14.5857 3.27601 17.0656 5.1045 18.8941C6.93299 20.7226 9.41295 21.7498 11.9988 21.7498C14.5847 21.7498 17.0647 20.7226 18.8931 18.8941C20.7216 17.0656 21.7489 14.5857 21.7489 11.9998C21.7489 9.41393 20.7216 6.93397 18.8931 5.10548ZM8.99885 19.6872V14.2498H14.9988V19.6872C13.0691 20.4373 10.9285 20.4373 8.99885 19.6872ZM17.8319 17.8329C17.4264 18.2392 16.9796 18.6021 16.4988 18.9157V14.2498C16.4988 13.852 16.3408 13.4704 16.0595 13.1891C15.7781 12.9078 15.3966 12.7498 14.9988 12.7498V6.74984C14.9989 6.62193 14.9663 6.49613 14.904 6.38438C14.8418 6.27264 14.752 6.17866 14.6432 6.1114C14.5344 6.04413 14.4102 6.00581 14.2825 6.00006C14.1547 5.99432 14.0276 6.02136 13.9132 6.07859L9.41322 8.32858C9.28861 8.39093 9.18384 8.48676 9.11065 8.60532C9.03746 8.72388 8.99875 8.86049 8.99885 8.99982V12.7498C8.60102 12.7498 8.2195 12.9078 7.93819 13.1891C7.65689 13.4704 7.49886 13.852 7.49886 14.2498V18.9157C6.06963 17.986 4.96357 16.6363 4.33281 15.0522C3.70205 13.4682 3.57756 11.7276 3.97649 10.0699C4.37541 8.41224 5.27814 6.91887 6.56052 5.79523C7.84289 4.67158 9.4419 3.97286 11.1376 3.79517C12.8334 3.61747 14.5425 3.96953 16.0299 4.80293C17.5174 5.63632 18.7101 6.9101 19.444 8.44908C20.1779 9.98805 20.4169 11.7166 20.1283 13.397C19.8396 15.0774 19.0373 16.6271 17.8319 17.8329Z" fill="black"/>
</svg>
