<svg width="24" height="24" viewBox="0 0 24 24" fill="none" xmlns="http://www.w3.org/2000/svg">
<path d="M20.9989 11.2502V20.2501C20.9989 20.4491 20.9198 20.6398 20.7792 20.7805C20.6385 20.9211 20.4478 21.0001 20.2489 21.0001H14.9989C14.8 21.0001 14.6092 20.9211 14.4686 20.7805C14.3279 20.6398 14.2489 20.4491 14.2489 20.2501V15.3752C14.2489 15.2757 14.2094 15.1803 14.1391 15.11C14.0687 15.0397 13.9734 15.0002 13.8739 15.0002H10.1239C10.0245 15.0002 9.9291 15.0397 9.85878 15.11C9.78845 15.1803 9.74894 15.2757 9.74894 15.3752V20.2501C9.74894 20.4491 9.66992 20.6398 9.52927 20.7805C9.38862 20.9211 9.19786 21.0001 8.99895 21.0001H3.74899C3.55008 21.0001 3.35931 20.9211 3.21866 20.7805C3.07801 20.6398 2.99899 20.4491 2.99899 20.2501V11.2502C2.99918 10.8525 3.15733 10.4711 3.43868 10.1899L10.9386 2.68997C11.2199 2.40888 11.6013 2.25098 11.9989 2.25098C12.3966 2.25098 12.778 2.40888 13.0592 2.68997L20.5592 10.1899C20.8405 10.4711 20.9987 10.8525 20.9989 11.2502Z" fill="black"/>
</svg>
