<svg viewBox="0 0 24 24" fill="none" xmlns="http://www.w3.org/2000/svg" width="24" height="24">
<path d="M20.1 2.279C20.53 2.279 20.942 2.45 21.246 2.754 21.55 3.058 21.721 3.47 21.721 3.9V20.1C21.721 20.529 21.55 20.941 21.246 21.245 20.942 21.549 20.53 21.72 20.1 21.72H3.9C3.471 21.719 3.059 21.549 2.755 21.245 2.451 20.941 2.281 20.529 2.28 20.1V3.9C2.28 3.47 2.451 3.058 2.755 2.754 3.059 2.45 3.471 2.279 3.9 2.279H20.1ZM5.514 16.044C5.067 16.044 4.704 16.407 4.704 16.854 4.704 17.301 5.067 17.664 5.514 17.664H12.054C12.501 17.664 12.864 17.301 12.864 16.854 12.864 16.407 12.501 16.044 12.054 16.044H5.514ZM6.325 10.392C5.43 10.392 4.705 11.118 4.705 12.013 4.706 12.907 5.43 13.632 6.325 13.632H17.677C18.571 13.632 19.297 12.907 19.297 12.013 19.297 11.118 18.571 10.392 17.677 10.392H6.325ZM5.514 6.325C5.066 6.325 4.704 6.687 4.704 7.134 4.704 7.582 5.067 7.944 5.514 7.944H12.054C12.501 7.944 12.864 7.582 12.864 7.134 12.864 6.687 12.501 6.325 12.054 6.325H5.514Z" fill="black"/>
</svg>