<svg width="24" height="24" viewBox="0 0 24 24" fill="none" xmlns="http://www.w3.org/2000/svg">
<path fill-rule="evenodd" clip-rule="evenodd" d="M4.35156 3.00781C4.00836 3.04193 3.68552 3.1935 3.43945 3.43945C3.15826 3.72064 3.00012 4.10235 3 4.5V19.5C3 19.8978 3.15824 20.2793 3.43945 20.5605C3.72075 20.8418 4.10218 21 4.5 21H19.5C19.8977 20.9999 20.2793 20.8418 20.5605 20.5605C20.8417 20.2793 21 19.8977 21 19.5V4.5C20.9999 4.10235 20.8417 3.72064 20.5605 3.43945C20.2793 3.15828 19.8977 3.00005 19.5 3H4.5L4.35156 3.00781ZM14.6992 16.5C15.1134 16.5 15.4492 16.8358 15.4492 17.25C15.4492 17.6642 15.1134 18 14.6992 18H5.75C5.33579 18 5 17.6642 5 17.25C5.00007 16.8358 5.33583 16.5 5.75 16.5H14.6992ZM17.501 10.5C18.3293 10.5001 19.001 11.1717 19.001 12C19.001 12.8283 18.3293 13.4999 17.501 13.5H6.5C5.67157 13.5 5 12.8284 5 12C5 11.1716 5.67157 10.5 6.5 10.5H17.501ZM14.6992 6C15.1134 6 15.4492 6.33579 15.4492 6.75C15.4492 7.16421 15.1134 7.5 14.6992 7.5H5.75C5.33579 7.5 5 7.16421 5 6.75C5 6.33579 5.33579 6 5.75 6H14.6992Z" fill="black"/>
</svg>
