<svg width="24" height="24" viewBox="0 0 24 24" fill="none" xmlns="http://www.w3.org/2000/svg">
<path fill-rule="evenodd" clip-rule="evenodd" d="M18.75 4.75C19.0615 4.75 19.3607 4.87352 19.5811 5.09375C19.8014 5.31406 19.9248 5.61325 19.9248 5.9248V10.6504C19.9247 14.8783 17.9777 17.5425 16.0293 19.1367C15.06 19.9298 14.0924 20.4575 13.3672 20.7871C13.004 20.9522 12.6997 21.068 12.4844 21.1436C12.3769 21.1812 12.2914 21.209 12.2314 21.2275C12.2016 21.2368 12.1778 21.2442 12.1611 21.249C12.1528 21.2515 12.1455 21.2535 12.1406 21.2549C12.1384 21.2555 12.1362 21.2564 12.1348 21.2568H12.1318C12.0457 21.2803 11.9543 21.2813 11.8682 21.2578L11.8594 21.2549C11.8546 21.2535 11.8481 21.2514 11.8398 21.249C11.8232 21.2442 11.7994 21.2368 11.7695 21.2275C11.7095 21.209 11.6234 21.1813 11.5156 21.1436C11.3003 21.068 10.9959 20.9521 10.6328 20.7871C9.90761 20.4574 8.93986 19.9297 7.9707 19.1367C6.02235 17.5425 4.07532 14.8781 4.0752 10.6504V5.9248C4.07525 5.61325 4.19864 5.31406 4.41895 5.09375C4.63925 4.87344 4.93844 4.75005 5.25 4.75H18.75ZM10.6494 7.6123C10.3609 7.61253 10.1093 7.79502 10.0146 8.05859L9.9834 8.17578L9.30859 12.2266C9.26069 12.5153 9.40508 12.802 9.66504 12.9365C9.92514 13.0709 10.2423 13.0225 10.4502 12.8164C10.6073 12.6604 10.7945 12.5374 11 12.4551C11.2057 12.3728 11.427 12.3323 11.6484 12.3369H11.6621C12.1095 12.3369 12.539 12.5148 12.8555 12.8311C13.1719 13.1475 13.3496 13.5769 13.3496 14.0244C13.3496 14.4719 13.1719 14.9013 12.8555 15.2178C12.539 15.5341 12.1096 15.7119 11.6621 15.7119H11.6484C11.427 15.7165 11.2057 15.677 11 15.5947C10.7945 15.5124 10.6073 15.3894 10.4502 15.2334C10.1858 14.971 9.75873 14.9722 9.49609 15.2363C9.23365 15.5008 9.23471 15.9288 9.49902 16.1914C9.78476 16.4751 10.1252 16.6981 10.499 16.8477C10.8686 16.9955 11.2642 17.0679 11.6621 17.0615C12.4674 17.0615 13.24 16.7421 13.8096 16.1729C14.3792 15.6032 14.6992 14.83 14.6992 14.0244C14.6992 13.2189 14.3792 12.4465 13.8096 11.877C13.2429 11.3105 12.4757 10.9906 11.6748 10.9873H11.6621C11.394 10.983 11.1268 11.0147 10.8682 11.0811L11.2217 8.96191H14.0244C14.3972 8.96191 14.6992 8.6599 14.6992 8.28711C14.6992 7.91432 14.3972 7.6123 14.0244 7.6123H10.6494Z" fill="black"/>
</svg>
