<svg width="24" height="24" viewBox="0 0 24 24" fill="none" xmlns="http://www.w3.org/2000/svg">
<path d="M19.5 3.75C19.8978 3.75 20.2792 3.90815 20.5605 4.18945C20.8419 4.47076 21 4.85218 21 5.25V10.5C21 15.2673 18.8005 18.2793 16.5996 20.0801C15.5067 20.9743 14.4167 21.569 13.5996 21.9404C13.1902 22.1265 12.8466 22.2582 12.6025 22.3438C12.4806 22.3865 12.3833 22.4182 12.3145 22.4395C12.28 22.4501 12.2521 22.4582 12.2324 22.4639C12.2228 22.4667 12.2148 22.4691 12.209 22.4707C12.2063 22.4715 12.204 22.4721 12.2021 22.4727H12.1992L12.1982 22.4736L12 21.75L12.1973 22.4736C12.0681 22.5088 11.9319 22.5088 11.8027 22.4736L12 21.75L11.8018 22.4736L11.8008 22.4727H11.7979C11.796 22.4721 11.7937 22.4715 11.791 22.4707C11.7852 22.4691 11.7772 22.4667 11.7676 22.4639C11.7479 22.4582 11.72 22.4501 11.6855 22.4395C11.6167 22.4182 11.5194 22.3865 11.3975 22.3438C11.1534 22.2582 10.8098 22.1265 10.4004 21.9404C9.58327 21.569 8.4933 20.9743 7.40039 20.0801C5.19947 18.2793 3 15.2673 3 10.5V5.25C3 4.85217 3.15815 4.47076 3.43945 4.18945C3.72076 3.90815 4.10217 3.75 4.5 3.75H19.5ZM10.875 7.5C10.5621 7.5 10.2875 7.69334 10.1768 7.97656L10.1396 8.10254L9.43262 11.6387C9.37022 11.9516 9.51304 12.2698 9.78809 12.4316C10.0632 12.5934 10.4101 12.5631 10.6533 12.3564C10.8727 12.1701 11.1414 12.0507 11.4268 12.0127C11.7122 11.9747 12.0031 12.02 12.2637 12.1426C12.5241 12.2651 12.7438 12.4601 12.8965 12.7041C13.0492 12.9482 13.1287 13.2316 13.125 13.5195C13.1213 13.8073 13.0348 14.0881 12.876 14.3281C12.7171 14.5682 12.4921 14.7572 12.2285 14.873C11.965 14.9889 11.6739 15.0266 11.3896 14.9814C11.1053 14.9362 10.8396 14.8101 10.625 14.6182C10.3164 14.3422 9.84259 14.3685 9.56641 14.6768C9.29028 14.9855 9.31625 15.4602 9.625 15.7363C10.0542 16.1201 10.5847 16.3724 11.1533 16.4629C11.722 16.5533 12.3049 16.4778 12.832 16.2461C13.3591 16.0144 13.8091 15.6364 14.127 15.1562C14.4448 14.676 14.6177 14.1139 14.625 13.5381C14.6323 12.9623 14.4735 12.3963 14.168 11.9082C13.8625 11.4201 13.4224 11.0302 12.9014 10.7852C12.3805 10.5402 11.8001 10.4505 11.2295 10.5264C11.2139 10.5284 11.1982 10.5319 11.1826 10.5342L11.4902 9H13.875C14.2892 9 14.625 8.66421 14.625 8.25C14.625 7.83579 14.2892 7.5 13.875 7.5H10.875Z" fill="black"/>
</svg>
