<svg viewBox="0 0 24 24" fill="none" xmlns="http://www.w3.org/2000/svg" width="24" height="24">
<path fill-rule="evenodd" clip-rule="evenodd" d="M20.1 3.3C20.474 3.3 20.833 3.448 21.097 3.713 21.362 3.977 21.51 4.336 21.51 4.71V10.38C21.51 15.454 19.173 18.651 16.835 20.564 15.672 21.516 14.511 22.149 13.641 22.545 13.205 22.743 12.84 22.882 12.581 22.972 12.452 23.017 12.35 23.051 12.278 23.073 12.242 23.084 12.213 23.093 12.193 23.099 12.183 23.102 12.175 23.104 12.169 23.106 12.166 23.107 12.163 23.108 12.162 23.108H12.158C12.055 23.136 11.945 23.138 11.842 23.109L11.831 23.106C11.826 23.104 11.818 23.102 11.808 23.099 11.788 23.093 11.759 23.084 11.723 23.073 11.651 23.051 11.548 23.018 11.419 22.972 11.16 22.882 10.795 22.743 10.359 22.545 9.489 22.149 8.328 21.516 7.165 20.564 4.827 18.651 2.49 15.454 2.49 10.38V4.71C2.49 4.336 2.638 3.977 2.903 3.713 3.167 3.448 3.526 3.3 3.9 3.3H20.1ZM10.379 6.735C10.033 6.735 9.731 6.954 9.618 7.27L9.58 7.411 8.77 12.272C8.713 12.618 8.886 12.962 9.198 13.124 9.51 13.285 9.891 13.227 10.14 12.98 10.329 12.792 10.553 12.645 10.8 12.546 11.047 12.447 11.312 12.399 11.578 12.404H11.595C12.131 12.404 12.647 12.618 13.027 12.997 13.406 13.377 13.62 13.892 13.62 14.429 13.62 14.966 13.406 15.482 13.027 15.861 12.647 16.241 12.132 16.454 11.595 16.454H11.578C11.312 16.46 11.047 16.412 10.8 16.314 10.553 16.215 10.329 16.067 10.14 15.88 9.823 15.565 9.31 15.567 8.995 15.884 8.68 16.201 8.682 16.715 8.999 17.03 9.342 17.37 9.75 17.638 10.199 17.817 10.642 17.995 11.117 18.081 11.595 18.074 12.561 18.074 13.488 17.691 14.172 17.007 14.855 16.324 15.239 15.396 15.239 14.429 15.239 13.463 14.855 12.536 14.172 11.852 13.491 11.173 12.571 10.789 11.61 10.785H11.595C11.273 10.78 10.952 10.818 10.642 10.897L11.066 8.354H14.429C14.877 8.354 15.239 7.992 15.239 7.545 15.239 7.097 14.877 6.735 14.429 6.735H10.379Z" fill="black"/>
</svg>