<svg width="24" height="24" viewBox="0 0 24 24" fill="none" xmlns="http://www.w3.org/2000/svg">
<path d="M20.9989 9.74922C20.999 9.89764 20.9551 10.0428 20.8727 10.1662C20.7903 10.2896 20.6731 10.3859 20.536 10.4427C20.3989 10.4995 20.248 10.5143 20.1024 10.4854C19.9569 10.4564 19.8232 10.3848 19.7183 10.2798L17.2489 7.80954L13.2796 11.7798C13.1388 11.9206 12.948 11.9996 12.7489 11.9996C12.5499 11.9996 12.3591 11.9206 12.2183 11.7798C12.0776 11.6391 11.9985 11.4482 11.9985 11.2492C11.9985 11.0502 12.0776 10.8593 12.2183 10.7186L16.1886 6.74924L13.7183 4.27988C13.6133 4.17499 13.5418 4.0413 13.5128 3.89574C13.4838 3.75018 13.4987 3.59929 13.5555 3.46217C13.6123 3.32506 13.7085 3.20788 13.832 3.12548C13.9554 3.04307 14.1005 2.99915 14.2489 2.99927H20.2489C20.4478 2.99927 20.6386 3.07828 20.7792 3.21894C20.9199 3.35959 20.9989 3.55035 20.9989 3.74926V9.74922ZM17.2489 11.9992C17.05 11.9992 16.8592 12.0782 16.7186 12.2189C16.5779 12.3595 16.4989 12.5503 16.4989 12.7492V19.4991H4.49901V7.49923H11.249C11.4479 7.49923 11.6386 7.42022 11.7793 7.27957C11.9199 7.13891 11.999 6.94815 11.999 6.74924C11.999 6.55033 11.9199 6.35956 11.7793 6.21891C11.6386 6.07826 11.4479 5.99924 11.249 5.99924H4.49901C4.10119 5.99924 3.71966 6.15728 3.43836 6.43858C3.15706 6.71988 2.99902 7.10141 2.99902 7.49923V19.4991C2.99902 19.897 3.15706 20.2785 3.43836 20.5598C3.71966 20.8411 4.10119 20.9991 4.49901 20.9991H16.4989C16.8967 20.9991 17.2783 20.8411 17.5596 20.5598C17.8409 20.2785 17.9989 19.897 17.9989 19.4991V12.7492C17.9989 12.5503 17.9199 12.3595 17.7792 12.2189C17.6386 12.0782 17.4478 11.9992 17.2489 11.9992Z" fill="black"/>
</svg>
