<svg xmlns="http://www.w3.org/2000/svg" width="24" height="24" fill="currentColor" viewBox="0 0 24 24"><path d="M20.91 3.09H6.33a1.62 1.62 0 0 0-1.62 1.62v1.62h-1.62a1.62 1.62 0 0 0-1.62 1.62v11.34a1.62 1.62 0 0 0 1.62 1.62h14.58a1.62 1.62 0 0 0 1.62-1.62v-1.62h1.62a1.62 1.62 0 0 0 1.62-1.62v-11.34a1.62 1.62 0 0 0-1.62-1.62m-4.456 3.24a1.216 1.216 0 1 1-1.215 1.216 1.216 1.216 0 0 1 1.215-1.216m1.216 12.96H3.09v-11.34h1.62v8.1a1.62 1.62 0 0 0 1.62 1.62h11.34z m3.24-3.24H6.33v-4.79l3.072-3.074a0.81 0.81 0 0 1 1.146 0l5.027 5.028 2.601-2.598a0.81 0.81 0 0 1 1.145 0l1.589 1.593z"/></svg>