<svg width="24" height="24" viewBox="0 0 24 24" fill="none" xmlns="http://www.w3.org/2000/svg">
<path fill-rule="evenodd" clip-rule="evenodd" d="M20.1016 16.25C20.3777 16.25 20.6016 16.4739 20.6016 16.75V18.25H22.1016C22.3777 18.25 22.6016 18.4739 22.6016 18.75C22.6016 19.0261 22.3777 19.25 22.1016 19.25H20.6016V20.75C20.6016 21.0261 20.3777 21.25 20.1016 21.25C19.8256 21.2498 19.6016 21.026 19.6016 20.75V19.25H18.1016C17.8256 19.2498 17.6016 19.026 17.6016 18.75C17.6016 18.474 17.8256 18.2502 18.1016 18.25H19.6016V16.75C19.6016 16.474 19.8256 16.2502 20.1016 16.25ZM19.4258 4.75C20.0743 4.75046 20.6005 5.27625 20.6006 5.9248V14.7305C20.6005 14.959 20.4459 15.1494 20.2363 15.209C20.199 15.2198 20.1604 15.2258 20.1201 15.2275C20.1136 15.2278 20.1072 15.2305 20.1006 15.2305H18.6074C18.475 15.2305 18.3476 15.1775 18.2539 15.084L16.3965 13.2266C16.3638 13.1939 16.3187 13.1749 16.2725 13.1748C16.2269 13.1753 16.1827 13.1944 16.1504 13.2266L13.9834 15.3916C13.8886 15.4863 13.7589 15.5392 13.625 15.5381L13.624 15.5371L13.623 15.5381C13.489 15.5368 13.3607 15.4812 13.2676 15.3848L13.248 15.3643L9.08496 11.2012C9.06891 11.1851 9.04925 11.1719 9.02832 11.1631C9.00753 11.1545 8.98443 11.1496 8.96191 11.1494C8.93937 11.1496 8.91634 11.1545 8.89551 11.1631C8.87452 11.1718 8.85497 11.1851 8.83887 11.2012L4.39844 15.6416V18.0752C4.39854 18.1717 4.47674 18.2499 4.57324 18.25H16.0869C16.3626 18.2505 16.5868 18.4742 16.5869 18.75C16.5868 19.0258 16.3626 19.2495 16.0869 19.25H4.57324C3.92446 19.2499 3.39756 18.724 3.39746 18.0752V5.9248C3.39757 5.27603 3.92446 4.75011 4.57324 4.75H19.4258ZM14.3691 8.79395C13.8997 8.79395 13.5186 9.17418 13.5186 9.64355C13.5186 10.113 13.8997 10.4941 14.3691 10.4941C14.8384 10.4939 15.2188 10.1129 15.2188 9.64355C15.2187 9.17431 14.8383 8.79416 14.3691 8.79395Z" fill="black"/>
</svg>
