<svg width="24" height="24" viewBox="0 0 24 24" fill="none" xmlns="http://www.w3.org/2000/svg">
<path d="M3 17.6875C3.27614 17.6875 3.5 17.9114 3.5 18.1875V20.25C3.5 20.3881 3.61193 20.5 3.75 20.5H5.8125C6.08864 20.5 6.3125 20.7239 6.3125 21C6.3125 21.2761 6.08864 21.5 5.8125 21.5H3.75C3.05964 21.5 2.5 20.9404 2.5 20.25V18.1875C2.5 17.9114 2.72386 17.6875 3 17.6875ZM14.0625 20.5C14.3386 20.5 14.5625 20.7239 14.5625 21C14.5625 21.2761 14.3386 21.5 14.0625 21.5H9.9375C9.66136 21.5 9.4375 21.2761 9.4375 21C9.4375 20.7239 9.66136 20.5 9.9375 20.5H14.0625ZM21 17.6875C21.2761 17.6875 21.5 17.9114 21.5 18.1875V20.25C21.5 20.9404 20.9404 21.5 20.25 21.5H18.1875C17.9114 21.5 17.6875 21.2761 17.6875 21C17.6875 20.7239 17.9114 20.5 18.1875 20.5H20.25C20.3881 20.5 20.5 20.3881 20.5 20.25V18.1875C20.5 17.9114 20.7239 17.6875 21 17.6875ZM17.417 5.5C17.7042 5.50009 17.9795 5.6143 18.1826 5.81738C18.3857 6.02047 18.4999 6.29581 18.5 6.58301V17.417C18.4999 17.7042 18.3857 17.9795 18.1826 18.1826C17.9795 18.3857 17.7042 18.4999 17.417 18.5H6.58301C6.29581 18.4999 6.02047 18.3857 5.81738 18.1826C5.6143 17.9795 5.50009 17.7042 5.5 17.417V6.58301C5.50009 6.29581 5.6143 6.02047 5.81738 5.81738C6.02047 5.6143 6.29581 5.50009 6.58301 5.5H17.417ZM6.58301 6.58301V17.417H6.94727L14.2139 10.1504C14.417 9.94747 14.6924 9.83301 14.9795 9.83301C15.2666 9.83309 15.542 9.94746 15.7451 10.1504L17.417 11.8223V6.58301H6.58301ZM3 9.4375C3.27614 9.4375 3.5 9.66136 3.5 9.9375V14.0625C3.5 14.3386 3.27614 14.5625 3 14.5625C2.72386 14.5625 2.5 14.3386 2.5 14.0625V9.9375C2.5 9.66136 2.72386 9.4375 3 9.4375ZM21 9.4375C21.2761 9.4375 21.5 9.66136 21.5 9.9375V14.0625C21.5 14.3386 21.2761 14.5625 21 14.5625C20.7239 14.5625 20.5 14.3386 20.5 14.0625V9.9375C20.5 9.66136 20.7239 9.4375 21 9.4375ZM10.0449 8.77051C10.255 8.81233 10.4481 8.91592 10.5996 9.06738C10.751 9.21887 10.8537 9.412 10.8955 9.62207C10.9373 9.83221 10.916 10.0501 10.834 10.248C10.752 10.4459 10.6136 10.6154 10.4355 10.7344C10.2574 10.8534 10.0473 10.917 9.83301 10.917C9.54588 10.9169 9.27045 10.8026 9.06738 10.5996C8.86422 10.3964 8.75 10.1203 8.75 9.83301C8.75006 9.61886 8.81364 9.40951 8.93262 9.23145C9.05165 9.05331 9.221 8.91402 9.41895 8.83203C9.61682 8.75014 9.83489 8.72873 10.0449 8.77051ZM5.8125 2.5C6.08864 2.5 6.3125 2.72386 6.3125 3C6.3125 3.27614 6.08864 3.5 5.8125 3.5H3.75C3.61193 3.5 3.5 3.61193 3.5 3.75V5.8125C3.5 6.08864 3.27614 6.3125 3 6.3125C2.72386 6.3125 2.5 6.08864 2.5 5.8125V3.75C2.5 3.05964 3.05964 2.5 3.75 2.5H5.8125ZM20.25 2.5C20.9404 2.5 21.5 3.05964 21.5 3.75V5.8125C21.5 6.08864 21.2761 6.3125 21 6.3125C20.7239 6.3125 20.5 6.08864 20.5 5.8125V3.75C20.5 3.61193 20.3881 3.5 20.25 3.5H18.1875C17.9114 3.5 17.6875 3.27614 17.6875 3C17.6875 2.72386 17.9114 2.5 18.1875 2.5H20.25ZM14.0625 2.5C14.3386 2.5 14.5625 2.72386 14.5625 3C14.5625 3.27614 14.3386 3.5 14.0625 3.5H9.9375C9.66136 3.5 9.4375 3.27614 9.4375 3C9.4375 2.72386 9.66136 2.5 9.9375 2.5H14.0625Z" fill="black"/>
</svg>
