<svg width="24" height="24" viewBox="0 0 24 24" fill="none" xmlns="http://www.w3.org/2000/svg">
<path d="M20.2496 3.74878H6.74972C6.3519 3.74878 5.97037 3.90681 5.68907 4.18812C5.40777 4.46942 5.24973 4.85095 5.24973 5.24877V6.74876H3.74974C3.35192 6.74876 2.97039 6.90679 2.68909 7.18809C2.40779 7.4694 2.24976 7.85092 2.24976 8.24874V18.7487C2.24976 19.1465 2.40779 19.528 2.68909 19.8093C2.97039 20.0906 3.35192 20.2487 3.74974 20.2487H17.2496C17.6475 20.2487 18.029 20.0906 18.3103 19.8093C18.5916 19.528 18.7496 19.1465 18.7496 18.7487V17.2487H20.2496C20.6474 17.2487 21.029 17.0906 21.3103 16.8093C21.5916 16.528 21.7496 16.1465 21.7496 15.7487V5.24877C21.7496 4.85095 21.5916 4.46942 21.3103 4.18812C21.029 3.90681 20.6474 3.74878 20.2496 3.74878ZM16.1247 6.74876C16.3472 6.74876 16.5647 6.81474 16.7497 6.93835C16.9347 7.06197 17.0789 7.23767 17.164 7.44323C17.2492 7.6488 17.2714 7.875 17.228 8.09322C17.1846 8.31145 17.0775 8.5119 16.9201 8.66924C16.7628 8.82657 16.5624 8.93371 16.3441 8.97712C16.1259 9.02053 15.8997 8.99825 15.6941 8.9131C15.4886 8.82796 15.3129 8.68376 15.1893 8.49876C15.0656 8.31376 14.9997 8.09625 14.9997 7.87375C14.9997 7.57538 15.1182 7.28924 15.3292 7.07826C15.5401 6.86728 15.8263 6.74876 16.1247 6.74876ZM17.2496 18.7487H3.74974V8.24874H5.24973V15.7487C5.24973 16.1465 5.40777 16.528 5.68907 16.8093C5.97037 17.0906 6.3519 17.2487 6.74972 17.2487H17.2496V18.7487ZM20.2496 15.7487H6.74972V11.3134L9.59407 8.46812C9.66373 8.39839 9.74644 8.34307 9.83749 8.30533C9.92854 8.26758 10.0261 8.24816 10.1247 8.24816C10.2233 8.24816 10.3209 8.26758 10.4119 8.30533C10.5029 8.34307 10.5857 8.39839 10.6553 8.46812L15.31 13.1237L17.7184 10.7181C17.859 10.5776 18.0497 10.4986 18.2485 10.4986C18.4474 10.4986 18.6381 10.5776 18.7787 10.7181L20.2496 12.1928V15.7487Z" fill="black"/>
</svg>
