<svg width="24" height="24" viewBox="0 0 24 24" fill="none" xmlns="http://www.w3.org/2000/svg">
<path d="M2.25 18.7499V15.8095C2.25 15.3953 2.58579 15.0595 3 15.0595C3.41421 15.0595 3.75 15.3953 3.75 15.8095V18.7499H16.542C16.9562 18.7499 17.292 19.0857 17.292 19.4999C17.292 19.9142 16.9562 20.2499 16.542 20.2499H3.75C2.92157 20.2499 2.25 19.5784 2.25 18.7499Z" fill="black"/>
<path d="M20.25 3.75C21.0784 3.75001 21.75 4.42158 21.75 5.25V15.0332C21.75 15.4474 21.4142 15.7832 21 15.7832H19.3428C19.144 15.7831 18.9531 15.7041 18.8125 15.5635L16.749 13.5L14.3398 15.9062C14.1975 16.0482 14.0037 16.1269 13.8027 16.125C13.6017 16.123 13.4101 16.0403 13.2705 15.8955L8.625 11.25L3.53027 16.3447C3.31579 16.5593 2.99316 16.6239 2.71289 16.5078C2.43265 16.3917 2.25 16.1178 2.25 15.8145V5.25C2.25 4.42157 2.92157 3.75 3.75 3.75H20.25ZM14.25 7.5C13.4216 7.5 12.75 8.17157 12.75 9C12.75 9.82843 13.4216 10.5 14.25 10.5C15.0784 10.5 15.75 9.82843 15.75 9C15.75 8.17157 15.0784 7.5 14.25 7.5Z" fill="black"/>
<path d="M23.2266 18.75C23.6408 18.75 23.9766 19.0858 23.9766 19.5C23.9766 19.9142 23.6408 20.25 23.2266 20.25H18.7822C18.368 20.25 18.0322 19.9142 18.0322 19.5C18.0322 19.0858 18.368 18.75 18.7822 18.75H23.2266Z" fill="black"/>
<path d="M20.2544 21.722V17.2776C20.2544 16.8634 20.5902 16.5276 21.0044 16.5276C21.4186 16.5276 21.7544 16.8634 21.7544 17.2776V21.722C21.7544 22.1362 21.4186 22.472 21.0044 22.472C20.5902 22.472 20.2544 22.1362 20.2544 21.722Z" fill="black"/>
</svg>
