<svg width="24" height="24" viewBox="0 0 24 24" fill="none" xmlns="http://www.w3.org/2000/svg">
<path d="M6 18H18V6H6V18ZM19.5 18.1367C19.4998 18.8896 18.8896 19.4998 18.1367 19.5H5.86328C5.11045 19.4998 4.50019 18.8896 4.5 18.1367V5.86328C4.50019 5.11045 5.11045 4.50019 5.86328 4.5H18.1367C18.8896 4.50019 19.4998 5.11045 19.5 5.86328V18.1367Z" fill="black"/>
<path d="M10.2475 9.58841C10.2475 9.2242 9.95249 8.92923 9.58832 8.92923C9.22414 8.92923 8.92915 9.2242 8.92914 9.58841C8.92914 9.95263 9.22413 10.2476 9.58832 10.2476C9.9525 10.2476 10.2475 9.95263 10.2475 9.58841ZM11.9291 9.58841C11.9291 10.8811 10.881 11.9292 9.58832 11.9292C8.29565 11.9292 7.2475 10.8811 7.2475 9.58841C7.24751 8.29576 8.29565 7.24759 9.58832 7.24759C10.881 7.24759 11.9291 8.29576 11.9291 9.58841Z" fill="black"/>
<path d="M15.4355 9.75C15.5672 9.75 15.6982 9.76923 15.8242 9.80664L15.9482 9.84961L16.0674 9.90527C16.1841 9.9663 16.2919 10.0439 16.3867 10.1367L19.2744 12.9609C19.5705 13.2506 19.5758 13.7263 19.2861 14.0225C18.9966 14.3182 18.5216 14.3235 18.2256 14.0342L15.4355 11.3047L7.27441 19.2861C6.97829 19.5757 6.50348 19.5705 6.21387 19.2744C5.92428 18.9783 5.9295 18.5035 6.22559 18.2139L14.4844 10.1377C14.6107 10.014 14.76 9.91567 14.9229 9.84961L15.0469 9.80664C15.1729 9.76918 15.3038 9.75002 15.4355 9.75Z" fill="black"/>
<path d="M21 6V3.15918C21 3.11698 20.983 3.07671 20.9531 3.04688C20.9233 3.01704 20.883 3 20.8408 3H18C17.5858 3 17.25 2.66421 17.25 2.25C17.25 1.83579 17.5858 1.5 18 1.5H20.8408C21.2808 1.5 21.7025 1.67519 22.0137 1.98633C22.3248 2.29747 22.5 2.71916 22.5 3.15918V6C22.5 6.41421 22.1642 6.75 21.75 6.75C21.3358 6.75 21 6.41421 21 6Z" fill="black"/>
<path d="M21 20.8408V18C21 17.5858 21.3358 17.25 21.75 17.25C22.1642 17.25 22.5 17.5858 22.5 18V20.8408C22.5 21.2808 22.3248 21.7025 22.0137 22.0137C21.7025 22.3248 21.2808 22.5 20.8408 22.5H18C17.5858 22.5 17.25 22.1642 17.25 21.75C17.25 21.3358 17.5858 21 18 21H20.8408C20.883 21 20.9233 20.983 20.9531 20.9531C20.9829 20.9233 21 20.883 21 20.8408Z" fill="black"/>
<path d="M1.5 20.8408V18C1.5 17.5858 1.83579 17.25 2.25 17.25C2.66421 17.25 2.99999 17.5858 3 18V20.8408C3 20.883 3.01706 20.9233 3.04688 20.9531C3.07671 20.983 3.11698 21 3.15918 21H6C6.41421 21 6.75 21.3358 6.75 21.75C6.75 22.1642 6.41421 22.5 6 22.5H3.15918C2.71916 22.5 2.29747 22.3248 1.98633 22.0137C1.67521 21.7025 1.5 21.2808 1.5 20.8408Z" fill="black"/>
<path d="M1.5 6V3.15918C1.5 2.71916 1.67519 2.29747 1.98633 1.98633C2.29747 1.67519 2.71916 1.5 3.15918 1.5H6C6.41421 1.5 6.75 1.83579 6.75 2.25C6.75 2.66421 6.41421 3 6 3H3.15918C3.11699 3 3.07671 3.01704 3.04688 3.04688C3.01704 3.07671 3 3.11699 3 3.15918V6C3 6.41421 2.66421 6.75 2.25 6.75C1.83579 6.75 1.5 6.41421 1.5 6Z" fill="black"/>
<path d="M15.0094 10.6728L6.75 18.75H18.1875C18.4982 18.75 18.75 18.4982 18.75 18.1875V13.4976L15.862 10.6728C15.8061 10.618 15.7396 10.5746 15.6665 10.5449C15.5933 10.5153 15.5149 10.5 15.4357 10.5C15.3565 10.5 15.2781 10.5153 15.2049 10.5449C15.1318 10.5746 15.0653 10.618 15.0094 10.6728Z" fill="black"/>
<path d="M8.58984 18H18V13.8125L15.4355 11.3047L8.58984 18ZM19.5 18.1875C19.5 18.9124 18.9124 19.5 18.1875 19.5H6.75C6.44517 19.5 6.17079 19.3155 6.05566 19.0332C5.94058 18.7509 6.00766 18.427 6.22559 18.2139L14.4844 10.1377C14.6107 10.014 14.76 9.91567 14.9229 9.84961L15.0469 9.80664C15.1729 9.76918 15.3038 9.75002 15.4355 9.75C15.5672 9.75 15.6982 9.76923 15.8242 9.80664L15.9482 9.84961L16.0674 9.90527C16.1841 9.9663 16.2919 10.0439 16.3867 10.1367L19.2744 12.9609C19.4186 13.1019 19.4999 13.2955 19.5 13.4971V18.1875Z" fill="black"/>
</svg>
