<svg width="24" height="24" viewBox="0 0 24 24" fill="none" xmlns="http://www.w3.org/2000/svg">
<path d="M20.9989 13.4999V19.4999C20.9989 19.6988 20.9199 19.8895 20.7792 20.0302C20.6386 20.1708 20.4478 20.2499 20.2489 20.2499H3.74902C3.55011 20.2499 3.35934 20.1708 3.21869 20.0302C3.07804 19.8895 2.99902 19.6988 2.99902 19.4999V13.4999C2.99902 13.301 3.07804 13.1102 3.21869 12.9696C3.35934 12.8289 3.55011 12.7499 3.74902 12.7499C3.94793 12.7499 4.13869 12.8289 4.27934 12.9696C4.41999 13.1102 4.49901 13.301 4.49901 13.4999V18.7499H19.4989V13.4999C19.4989 13.301 19.5779 13.1102 19.7186 12.9696C19.8592 12.8289 20.05 12.7499 20.2489 12.7499C20.4478 12.7499 20.6386 12.8289 20.7792 12.9696C20.9199 13.1102 20.9989 13.301 20.9989 13.4999ZM11.4683 14.0305C11.538 14.1003 11.6207 14.1556 11.7118 14.1933C11.8028 14.2311 11.9004 14.2505 11.999 14.2505C12.0975 14.2505 12.1951 14.2311 12.2862 14.1933C12.3772 14.1556 12.4599 14.1003 12.5296 14.0305L16.2795 10.2806C16.3846 10.1757 16.4561 10.042 16.4851 9.89642C16.5141 9.75086 16.4992 9.59997 16.4424 9.46285C16.3856 9.32574 16.2894 9.20856 16.1659 9.12616C16.0425 9.04376 15.8973 8.99983 15.7489 8.99995H12.7489V2.99999C12.7489 2.80108 12.6699 2.61032 12.5293 2.46967C12.3886 2.32902 12.1979 2.25 11.999 2.25C11.8 2.25 11.6093 2.32902 11.4686 2.46967C11.328 2.61032 11.249 2.80108 11.249 2.99999V8.99995H8.24898C8.10056 8.99983 7.95544 9.04376 7.832 9.12616C7.70856 9.20856 7.61234 9.32574 7.55552 9.46285C7.49871 9.59997 7.48385 9.75086 7.51284 9.89642C7.54183 10.042 7.61335 10.1757 7.71836 10.2806L11.4683 14.0305Z" fill="black"/>
</svg>
