<svg viewBox="0 0 24 24" fill="none" xmlns="http://www.w3.org/2000/svg" width="24" height="24">
<path d="M3.096 12.813C2.648 12.813 2.285 12.451 2.285 12.003 2.285 11.556 2.648 11.194 3.096 11.194L20.915 11.194C21.362 11.194 21.725 11.556 21.725 12.003 21.725 12.451 21.362 12.813 20.915 12.813L3.096 12.813Z" fill="black"/>
<path d="M6.056 3.906C5.609 3.906 5.246 3.543 5.246 3.096 5.246 2.649 5.609 2.287 6.056 2.286L17.936 2.286C18.384 2.286 18.746 2.649 18.746 3.096 18.746 3.543 18.384 3.906 17.936 3.906L6.056 3.906Z" fill="black"/>
<path d="M6.065 21.731C5.618 21.731 5.255 21.369 5.255 20.922 5.255 20.474 5.618 20.112 6.065 20.112L17.946 20.112C18.393 20.112 18.755 20.474 18.755 20.922 18.755 21.369 18.393 21.731 17.946 21.731L6.065 21.731Z" fill="black"/>
<path d="M14.298 7.577C14.614 7.893 14.614 8.406 14.298 8.722 13.982 9.038 13.469 9.038 13.153 8.722L12.005 7.574 10.857 8.722C10.541 9.038 10.029 9.038 9.712 8.722 9.396 8.406 9.396 7.893 9.712 7.577L11.433 5.856C11.749 5.54 12.261 5.54 12.578 5.856L14.298 7.577Z" fill="black"/>
<path d="M9.712 16.441C9.396 16.125 9.396 15.612 9.712 15.296 10.029 14.979 10.541 14.979 10.858 15.296L12.005 16.443 13.153 15.296C13.469 14.979 13.982 14.979 14.298 15.296 14.614 15.612 14.614 16.125 14.298 16.441L12.578 18.161C12.261 18.477 11.749 18.477 11.433 18.161L9.712 16.441Z" fill="black"/>
</svg>