<svg viewBox="0 0 24 24" fill="none" xmlns="http://www.w3.org/2000/svg" width="24" height="24">
<path d="M12.81 20.91C12.81 21.357 12.447 21.721 12 21.721 11.553 21.721 11.19 21.357 11.19 20.91L11.19 3.09C11.19 2.643 11.553 2.28 12 2.28 12.447 2.28 12.81 2.643 12.81 3.09V20.91Z" fill="black"/>
<path d="M3.902 17.95C3.902 18.397 3.54 18.759 3.093 18.759 2.645 18.759 2.283 18.397 2.283 17.95L2.283 6.069C2.283 5.622 2.645 5.259 3.093 5.259 3.54 5.259 3.902 5.622 3.902 6.069L3.902 17.95Z" fill="black"/>
<path d="M21.728 17.94C21.727 18.387 21.365 18.75 20.918 18.75 20.471 18.75 20.108 18.387 20.108 17.94V6.06C20.108 5.612 20.471 5.25 20.918 5.25 21.365 5.25 21.728 5.612 21.728 6.06V17.94Z" fill="black"/>
<path d="M7.573 9.707C7.889 9.391 8.402 9.391 8.718 9.707 9.035 10.023 9.035 10.536 8.718 10.852L7.571 12 8.718 13.148C9.035 13.464 9.035 13.977 8.718 14.293 8.402 14.609 7.889 14.609 7.573 14.293L5.853 12.573C5.537 12.256 5.537 11.744 5.853 11.427L7.573 9.707Z" fill="black"/>
<path d="M16.437 14.293C16.121 14.609 15.608 14.609 15.292 14.293 14.975 13.977 14.975 13.464 15.292 13.148L16.439 12 15.292 10.852C14.975 10.536 14.975 10.023 15.292 9.707 15.608 9.391 16.121 9.391 16.437 9.707L18.157 11.427C18.473 11.744 18.473 12.256 18.157 12.573L16.437 14.293Z" fill="black"/>
</svg>