<svg width="24" height="24" viewBox="0 0 24 24" fill="none" xmlns="http://www.w3.org/2000/svg">
<path d="M20.9989 11.9978C20.9989 12.1968 20.9199 12.3875 20.7792 12.5282C20.6386 12.6688 20.4478 12.7478 20.2489 12.7478H10.499C10.3001 12.7478 10.1093 12.6688 9.96864 12.5282C9.82799 12.3875 9.74897 12.1968 9.74897 11.9978C9.74897 11.7989 9.82799 11.6082 9.96864 11.4675C10.1093 11.3269 10.3001 11.2479 10.499 11.2479H20.2489C20.4478 11.2479 20.6386 11.3269 20.7792 11.4675C20.9199 11.6082 20.9989 11.7989 20.9989 11.9978ZM10.499 6.74789H20.2489C20.4478 6.74789 20.6386 6.66887 20.7792 6.52822C20.9199 6.38757 20.9989 6.1968 20.9989 5.99789C20.9989 5.79898 20.9199 5.60822 20.7792 5.46757C20.6386 5.32692 20.4478 5.2479 20.2489 5.2479H10.499C10.3001 5.2479 10.1093 5.32692 9.96864 5.46757C9.82799 5.60822 9.74897 5.79898 9.74897 5.99789C9.74897 6.1968 9.82799 6.38757 9.96864 6.52822C10.1093 6.66887 10.3001 6.74789 10.499 6.74789ZM20.2489 17.2478H3.74902C3.55011 17.2478 3.35934 17.3268 3.21869 17.4675C3.07804 17.6081 2.99902 17.7989 2.99902 17.9978C2.99902 18.1967 3.07804 18.3875 3.21869 18.5281C3.35934 18.6688 3.55011 18.7478 3.74902 18.7478H20.2489C20.4478 18.7478 20.6386 18.6688 20.7792 18.5281C20.9199 18.3875 20.9989 18.1967 20.9989 17.9978C20.9989 17.7989 20.9199 17.6081 20.7792 17.4675C20.6386 17.3268 20.4478 17.2478 20.2489 17.2478ZM3.46215 13.4406C3.59917 13.4975 3.74998 13.5124 3.89549 13.4836C4.04101 13.4547 4.17469 13.3833 4.27964 13.2785L8.02961 9.52849C8.09934 9.45884 8.15466 9.37612 8.1924 9.28507C8.23015 9.19403 8.24957 9.09643 8.24957 8.99787C8.24957 8.89931 8.23015 8.80172 8.1924 8.71067C8.15466 8.61962 8.09934 8.5369 8.02961 8.46725L4.27964 4.71728C4.17475 4.61227 4.04106 4.54075 3.8955 4.51176C3.74993 4.48277 3.59904 4.49762 3.46193 4.55444C3.32481 4.61125 3.20763 4.70747 3.12523 4.83092C3.04283 4.95436 2.99891 5.09948 2.99902 5.2479V12.7478C2.99905 12.8962 3.04307 13.0412 3.1255 13.1645C3.20794 13.2878 3.32509 13.3839 3.46215 13.4406Z" fill="black"/>
</svg>
