<svg width="24" height="24" viewBox="0 0 24 24" fill="none" xmlns="http://www.w3.org/2000/svg">
<g clip-path="url(#clip0_2021_25308)">
<path d="M21 9.075V9C20.9985 7.60807 20.4449 6.27358 19.4607 5.28933C18.4764 4.30509 17.1419 3.75149 15.75 3.75H15C14.6022 3.75 14.2206 3.90804 13.9393 4.18934C13.658 4.47064 13.5 4.85218 13.5 5.25V16.5H12V6.75C12 6.55109 11.921 6.36032 11.7803 6.21967C11.6397 6.07902 11.4489 6 11.25 6H1.5C1.10218 6 0.720644 6.15804 0.43934 6.43934C0.158035 6.72064 0 7.10217 0 7.5L0 17.25C0.000684974 17.8591 0.186745 18.4535 0.533445 18.9543C0.880144 19.4551 1.37106 19.8384 1.94092 20.0535C2.51078 20.2685 3.13259 20.305 3.72368 20.158C4.31477 20.0111 4.84713 19.6877 5.25 19.2309C5.6101 19.64 6.07485 19.9433 6.59431 20.1082C7.11378 20.273 7.66834 20.2933 8.19845 20.1667C8.72856 20.0402 9.21417 19.7716 9.60315 19.3899C9.99213 19.0081 10.2698 18.5276 10.4062 18H18.0938C18.2751 18.7084 18.7089 19.3261 19.3137 19.7371C19.9185 20.1481 20.6525 20.3241 21.3779 20.232C22.1033 20.1399 22.7701 19.786 23.2529 19.2369C23.7358 18.6878 24.0014 17.9812 24 17.25V12.75C23.9989 11.8858 23.7 11.0485 23.1535 10.379C22.607 9.70959 21.8465 9.24904 21 9.075ZM3 18.75C2.70333 18.75 2.41332 18.662 2.16664 18.4972C1.91997 18.3324 1.72771 18.0981 1.61418 17.824C1.50065 17.5499 1.47094 17.2483 1.52882 16.9574C1.5867 16.6664 1.72956 16.3991 1.93934 16.1893C2.14912 15.9796 2.41639 15.8367 2.70736 15.7788C2.99834 15.7209 3.29994 15.7506 3.57403 15.8642C3.84811 15.9777 4.08238 16.17 4.2472 16.4166C4.41203 16.6633 4.5 16.9533 4.5 17.25C4.5 17.6478 4.34196 18.0294 4.06066 18.3107C3.77936 18.592 3.39782 18.75 3 18.75ZM7.5 18.75C7.20333 18.75 6.91332 18.662 6.66665 18.4972C6.41997 18.3324 6.22771 18.0981 6.11418 17.824C6.00065 17.5499 5.97094 17.2483 6.02882 16.9574C6.0867 16.6664 6.22956 16.3991 6.43934 16.1893C6.64912 15.9796 6.91639 15.8367 7.20736 15.7788C7.49834 15.7209 7.79994 15.7506 8.07403 15.8642C8.34811 15.9777 8.58238 16.17 8.7472 16.4166C8.91203 16.6633 9 16.9533 9 17.25C9 17.6478 8.84196 18.0294 8.56066 18.3107C8.27936 18.592 7.89782 18.75 7.5 18.75ZM21 18.75C20.7033 18.75 20.4133 18.662 20.1666 18.4972C19.92 18.3324 19.7277 18.0981 19.6142 17.824C19.5006 17.5499 19.4709 17.2483 19.5288 16.9574C19.5867 16.6664 19.7296 16.3991 19.9393 16.1893C20.1491 15.9796 20.4164 15.8367 20.7074 15.7788C20.9983 15.7209 21.2999 15.7506 21.574 15.8642C21.8481 15.9777 22.0824 16.17 22.2472 16.4166C22.412 16.6633 22.5 16.9533 22.5 17.25C22.5 17.6478 22.342 18.0294 22.0607 18.3107C21.7794 18.592 21.3978 18.75 21 18.75Z" fill="black"/>
</g>
<defs>
<clipPath id="clip0_2021_25308">
<rect width="24" height="24" fill="white"/>
</clipPath>
</defs>
</svg>
