<svg width="24" height="24" viewBox="0 0 24 24" fill="none" xmlns="http://www.w3.org/2000/svg">
<path d="M21.5733 5.18335C22.247 5.18335 22.7349 5.61939 22.9883 6.08765C23.2446 6.56106 23.3259 7.16097 23.171 7.73999L20.5792 17.447C20.394 18.1387 19.8256 18.8171 18.9805 18.8171H2.42682C1.75318 18.8171 1.2653 18.381 1.01178 17.9128C0.755456 17.4393 0.673175 16.8387 0.828184 16.2595L3.41998 6.55249L3.45904 6.42261C3.67713 5.77832 4.22636 5.18335 5.01861 5.18335H21.5733ZM4.9942 6.70581C4.9568 6.74063 4.90258 6.81546 4.8692 6.94019L2.2774 16.6462C2.22135 16.8555 2.25752 17.063 2.33111 17.199C2.39856 17.3233 2.44893 17.3197 2.43561 17.3171H18.9717C18.9657 17.3186 18.9772 17.3195 19.0049 17.2937C19.0423 17.2589 19.0966 17.1848 19.1299 17.0603L21.7227 7.35327L21.7393 7.27515C21.7692 7.09348 21.7335 6.92059 21.669 6.80151C21.6013 6.67657 21.5509 6.68081 21.5645 6.68335H5.02545C5.02058 6.68552 5.00998 6.69119 4.9942 6.70581Z" fill="black"/>
<path fill-rule="evenodd" clip-rule="evenodd" d="M4.8692 6.94019C4.90258 6.81546 4.9568 6.74063 4.9942 6.70581C5.00998 6.69119 5.02058 6.68552 5.02545 6.68335H21.5645C21.5509 6.68081 21.6013 6.67657 21.669 6.80151C21.7335 6.92059 21.7692 7.09348 21.7393 7.27515L21.7227 7.35327L19.1299 17.0603C19.0966 17.1848 19.0423 17.2589 19.0049 17.2937C18.9814 17.3157 18.9717 17.3171 18.9717 17.3171V17.3171H2.43561C2.44893 17.3197 2.39856 17.3233 2.33111 17.199C2.25752 17.063 2.22135 16.8555 2.2774 16.6462L4.8692 6.94019Z" fill="black"/>
</svg>
