<svg viewBox="0 0 24 24" fill="none" xmlns="http://www.w3.org/2000/svg" width="24" height="24">
<path fill-rule="evenodd" clip-rule="evenodd" d="M23.1 3.6C23.597 3.6 24 4.003 24 4.5V19.5C24 19.997 23.597 20.4 23.1 20.4H0.9C0.403 20.4 0 19.997 0 19.5V4.5C0 4.003 0.403 3.6 0.9 3.6H23.1ZM8.068 10.526C7.752 10.209 7.239 10.21 6.922 10.526 6.606 10.842 6.606 11.356 6.922 11.672L8.236 12.986H4.721L3.444 12.989C2.997 12.99 2.635 13.354 2.637 13.801 2.638 14.248 3.002 14.61 3.449 14.609L4.726 14.605H8.236L6.923 15.918C6.607 16.234 6.607 16.747 6.923 17.064 7.24 17.38 7.753 17.38 8.07 17.064L10.765 14.368C11.041 14.092 11.075 13.664 10.868 13.35L10.765 13.222 8.068 10.526ZM12.895 12.989C12.448 12.989 12.086 13.352 12.086 13.799 12.086 14.246 12.448 14.608 12.895 14.609H20.52C20.967 14.609 21.33 14.246 21.33 13.799 21.33 13.351 20.967 12.989 20.52 12.989H12.895ZM12.895 9.389C12.448 9.389 12.086 9.752 12.086 10.199 12.086 10.646 12.448 11.008 12.895 11.009H17.845C18.293 11.009 18.655 10.646 18.655 10.199 18.655 9.751 18.293 9.389 17.845 9.389H12.895ZM12.895 6.689C12.448 6.689 12.086 7.052 12.086 7.499 12.086 7.946 12.448 8.308 12.895 8.309H17.845C18.293 8.309 18.655 7.946 18.655 7.499 18.655 7.051 18.293 6.689 17.845 6.689H12.895Z" fill="black"/>
</svg>