<svg width="24" height="24" viewBox="0 0 24 24" fill="none" xmlns="http://www.w3.org/2000/svg">
<path fill-rule="evenodd" clip-rule="evenodd" d="M21.667 4.49976C22.127 4.50001 22.5 4.87366 22.5 5.33374V18.6667C22.5 19.1268 22.127 19.4995 21.667 19.4998H2.33301C1.87289 19.4997 1.50004 19.1269 1.5 18.6667V5.33374C1.5 4.87357 1.87286 4.49986 2.33301 4.49976H21.667ZM12.8291 15.408C12.4149 15.408 12.0792 15.7438 12.0791 16.158C12.0791 16.5722 12.4149 16.908 12.8291 16.908H17.4121C17.8263 16.908 18.1621 16.5722 18.1621 16.158C18.1621 15.7438 17.8263 15.408 17.4121 15.408H12.8291ZM12.8291 12.908C12.4149 12.908 12.0792 13.2438 12.0791 13.658C12.0791 14.0722 12.4149 14.408 12.8291 14.408H17.4121C17.8263 14.408 18.1621 14.0722 18.1621 13.658C18.1621 13.2438 17.8263 12.908 17.4121 12.908H12.8291ZM8.35938 7.30151C8.06651 7.00901 7.59163 7.00891 7.29883 7.30151C7.00593 7.59441 7.00593 8.07014 7.29883 8.36304L8.51465 9.57788H5.26465L4.08105 9.57495C3.66697 9.57396 3.33024 9.90888 3.3291 10.323C3.32814 10.737 3.66307 11.0738 4.07715 11.075L5.26074 11.0779H8.51465L7.29785 12.2947C7.00518 12.5875 7.00518 13.0624 7.29785 13.3552C7.59071 13.6478 8.06557 13.6479 8.3584 13.3552L10.8555 10.8582L10.9492 10.7439C11.0306 10.6217 11.0752 10.4769 11.0752 10.3279C11.0751 10.1292 10.9959 9.93816 10.8555 9.79761L8.35938 7.30151ZM12.8291 9.57495C12.4149 9.57495 12.0791 9.91074 12.0791 10.325C12.0792 10.7391 12.415 11.075 12.8291 11.075H19.8887C20.3028 11.075 20.6386 10.7391 20.6387 10.325C20.6387 9.91074 20.3029 9.57495 19.8887 9.57495H12.8291Z" fill="black"/>
</svg>
