<svg viewBox="0 0 24 24" fill="none" xmlns="http://www.w3.org/2000/svg" width="24" height="24">
<path fill-rule="evenodd" clip-rule="evenodd" d="M23.1 3.6C23.597 3.6 24 4.003 24 4.5V19.5C24 19.997 23.597 20.4 23.1 20.4H0.9C0.403 20.4 0 19.997 0 19.5V4.5C0 4.003 0.403 3.6 0.9 3.6H23.1ZM12.895 14.79C12.448 14.79 12.086 15.153 12.086 15.6 12.086 16.047 12.448 16.41 12.895 16.41H17.845C18.293 16.41 18.655 16.047 18.655 15.6 18.655 15.153 18.293 14.79 17.845 14.79H12.895ZM8.068 8.727C7.752 8.411 7.239 8.411 6.922 8.727 6.606 9.043 6.606 9.557 6.922 9.873L8.236 11.187H4.721L3.444 11.19C2.997 11.191 2.635 11.555 2.637 12.002 2.638 12.45 3.002 12.811 3.449 12.81L4.726 12.806H8.236L6.923 14.119C6.607 14.435 6.607 14.949 6.923 15.265 7.24 15.581 7.753 15.581 8.07 15.265L10.765 12.57C11.041 12.293 11.075 11.865 10.868 11.551L10.765 11.423 8.068 8.727ZM12.895 11.19C12.448 11.19 12.086 11.553 12.086 12 12.086 12.447 12.448 12.81 12.895 12.81H20.52C20.967 12.81 21.33 12.447 21.33 12 21.33 11.553 20.967 11.19 20.52 11.19H12.895ZM12.895 7.59C12.448 7.59 12.086 7.953 12.086 8.4 12.086 8.847 12.448 9.21 12.895 9.21H17.845C18.293 9.21 18.655 8.847 18.655 8.4 18.655 7.953 18.293 7.59 17.845 7.59H12.895Z" fill="black"/>
</svg>