<?xml version="1.0" encoding="UTF-8"?>
<svg width="512" height="512" viewBox="0 0 512 512" fill="none" xmlns="http://www.w3.org/2000/svg">
<path d="M256 192C220.65 192 192 220.65 192 256C192 291.35 220.65 320 256 320C291.35 320 320 291.35 320 256C320 220.65 291.35 192 256 192ZM256 192C220.65 192 192 220.65 192 256C192 291.35 220.65 320 256 320C291.35 320 320 291.35 320 256C320 220.65 291.35 192 256 192ZM414.86 177.14C413.99 158.11 410.81 147.77 408.14 140.9C404.6 131.79 400.37 125.29 393.54 118.46C386.71 111.63 380.21 107.4 371.1 103.86C364.23 101.18 353.89 98.01 334.86 97.14C314.28 96.2 308.11 96 256 96C203.89 96 197.72 96.2 177.14 97.14C158.11 98.01 147.77 101.18 140.9 103.86C131.79 107.4 125.29 111.63 118.46 118.46C111.63 125.29 107.4 131.79 103.86 140.9C101.19 147.77 98.01 158.11 97.14 177.14C96.2 197.72 96 203.89 96 256C96 308.11 96.2 314.28 97.14 334.86C98.01 353.89 101.19 364.22 103.86 371.1C107.4 380.21 111.63 386.71 118.46 393.54C125.29 400.37 131.79 404.6 140.9 408.14C147.77 410.81 158.11 413.99 177.14 414.86C197.71 415.8 203.89 416 256 416C308.11 416 314.29 415.8 334.86 414.86C353.89 413.99 364.23 410.81 371.1 408.14C380.21 404.6 386.71 400.37 393.54 393.54C400.37 386.71 404.6 380.21 408.14 371.1C410.81 364.22 413.99 353.89 414.86 334.86C415.8 314.28 416 308.11 416 256C416 203.89 415.8 197.72 414.86 177.14ZM256 352C202.98 352 160 309.02 160 256C160 202.98 202.98 160 256 160C309.02 160 352 202.98 352 256C352 309.02 309.02 352 256 352ZM360 176C346.75 176 336 165.25 336 152C336 138.75 346.75 128 360 128C373.25 128 384 138.74 384 152C384 165.26 373.25 176 360 176ZM256 192C220.65 192 192 220.65 192 256C192 291.35 220.65 320 256 320C291.35 320 320 291.35 320 256C320 220.65 291.35 192 256 192ZM414.86 177.14C413.99 158.11 410.81 147.77 408.14 140.9C404.6 131.79 400.37 125.29 393.54 118.46C386.71 111.63 380.21 107.4 371.1 103.86C364.23 101.18 353.89 98.01 334.86 97.14C314.28 96.2 308.11 96 256 96C203.89 96 197.72 96.2 177.14 97.14C158.11 98.01 147.77 101.18 140.9 103.86C131.79 107.4 125.29 111.63 118.46 118.46C111.63 125.29 107.4 131.79 103.86 140.9C101.19 147.77 98.01 158.11 97.14 177.14C96.2 197.72 96 203.89 96 256C96 308.11 96.2 314.28 97.14 334.86C98.01 353.89 101.19 364.22 103.86 371.1C107.4 380.21 111.63 386.71 118.46 393.54C125.29 400.37 131.79 404.6 140.9 408.14C147.77 410.81 158.11 413.99 177.14 414.86C197.71 415.8 203.89 416 256 416C308.11 416 314.29 415.8 334.86 414.86C353.89 413.99 364.23 410.81 371.1 408.14C380.21 404.6 386.71 400.37 393.54 393.54C400.37 386.71 404.6 380.21 408.14 371.1C410.81 364.22 413.99 353.89 414.86 334.86C415.8 314.28 416 308.11 416 256C416 203.89 415.8 197.72 414.86 177.14ZM256 352C202.98 352 160 309.02 160 256C160 202.98 202.98 160 256 160C309.02 160 352 202.98 352 256C352 309.02 309.02 352 256 352ZM360 176C346.75 176 336 165.25 336 152C336 138.75 346.75 128 360 128C373.25 128 384 138.74 384 152C384 165.26 373.25 176 360 176ZM256 192C220.65 192 192 220.65 192 256C192 291.35 220.65 320 256 320C291.35 320 320 291.35 320 256C320 220.65 291.35 192 256 192ZM448 32H64C46.34 32 32 46.34 32 64V448C32 465.66 46.34 480 64 480H448C465.66 480 480 465.66 480 448V64C480 46.34 465.66 32 448 32ZM446.84 335.16C445.91 355.6 442.67 369.55 437.92 381.77C433.01 394.39 426.45 405.1 415.78 415.77C405.1 426.45 394.39 433.01 381.77 437.92C369.55 442.67 355.6 445.91 335.16 446.85C314.68 447.78 308.14 448 256 448C203.86 448 197.32 447.78 176.84 446.85C156.4 445.91 142.45 442.67 130.23 437.92C117.61 433.01 106.9 426.45 96.23 415.77C85.55 405.1 78.99 394.39 74.08 381.77C69.33 369.55 66.09 355.6 65.15 335.16C64.22 314.68 64 308.14 64 256C64 203.86 64.22 197.32 65.15 176.84C66.09 156.4 69.33 142.45 74.08 130.23C78.99 117.61 85.55 106.9 96.23 96.23C106.9 85.55 117.61 78.99 130.23 74.08C142.45 69.33 156.4 66.09 176.84 65.16C197.32 64.22 203.86 64 256 64C308.14 64 314.68 64.22 335.16 65.16C355.6 66.09 369.55 69.33 381.77 74.08C394.39 78.99 405.1 85.55 415.78 96.23C426.45 106.9 433.01 117.61 437.92 130.23C442.67 142.45 445.91 156.4 446.84 176.84C447.78 197.32 448 203.86 448 256C448 308.14 447.78 314.68 446.84 335.16ZM408.14 140.9C404.6 131.79 400.37 125.29 393.54 118.46C386.71 111.63 380.21 107.4 371.1 103.86C364.23 101.18 353.89 98.01 334.86 97.14C314.28 96.2 308.11 96 256 96C203.89 96 197.72 96.2 177.14 97.14C158.11 98.01 147.77 101.18 140.9 103.86C131.79 107.4 125.29 111.63 118.46 118.46C111.63 125.29 107.4 131.79 103.86 140.9C101.19 147.77 98.01 158.11 97.14 177.14C96.2 197.72 96 203.89 96 256C96 308.11 96.2 314.28 97.14 334.86C98.01 353.89 101.19 364.22 103.86 371.1C107.4 380.21 111.63 386.71 118.46 393.54C125.29 400.37 131.79 404.6 140.9 408.14C147.77 410.81 158.11 413.99 177.14 414.86C197.71 415.8 203.89 416 256 416C308.11 416 314.29 415.8 334.86 414.86C353.89 413.99 364.23 410.81 371.1 408.14C380.21 404.6 386.71 400.37 393.54 393.54C400.37 386.71 404.6 380.21 408.14 371.1C410.81 364.22 413.99 353.89 414.86 334.86C415.8 314.28 416 308.11 416 256C416 203.89 415.8 197.72 414.86 177.14C413.99 158.11 410.81 147.77 408.14 140.9ZM256 352C202.98 352 160 309.02 160 256C160 202.98 202.98 160 256 160C309.02 160 352 202.98 352 256C352 309.02 309.02 352 256 352ZM360 176C346.75 176 336 165.25 336 152C336 138.75 346.75 128 360 128C373.25 128 384 138.74 384 152C384 165.26 373.25 176 360 176ZM256 192C220.65 192 192 220.65 192 256C192 291.35 220.65 320 256 320C291.35 320 320 291.35 320 256C320 220.65 291.35 192 256 192ZM256 192C220.65 192 192 220.65 192 256C192 291.35 220.65 320 256 320C291.35 320 320 291.35 320 256C320 220.65 291.35 192 256 192ZM256 192C220.65 192 192 220.65 192 256C192 291.35 220.65 320 256 320C291.35 320 320 291.35 320 256C320 220.65 291.35 192 256 192ZM414.86 177.14C413.99 158.11 410.81 147.77 408.14 140.9C404.6 131.79 400.37 125.29 393.54 118.46C386.71 111.63 380.21 107.4 371.1 103.86C364.23 101.18 353.89 98.01 334.86 97.14C314.28 96.2 308.11 96 256 96C203.89 96 197.72 96.2 177.14 97.14C158.11 98.01 147.77 101.18 140.9 103.86C131.79 107.4 125.29 111.63 118.46 118.46C111.63 125.29 107.4 131.79 103.86 140.9C101.19 147.77 98.01 158.11 97.14 177.14C96.2 197.72 96 203.89 96 256C96 308.11 96.2 314.28 97.14 334.86C98.01 353.89 101.19 364.22 103.86 371.1C107.4 380.21 111.63 386.71 118.46 393.54C125.29 400.37 131.79 404.6 140.9 408.14C147.77 410.81 158.11 413.99 177.14 414.86C197.71 415.8 203.89 416 256 416C308.11 416 314.29 415.8 334.86 414.86C353.89 413.99 364.23 410.81 371.1 408.14C380.21 404.6 386.71 400.37 393.54 393.54C400.37 386.71 404.6 380.21 408.14 371.1C410.81 364.22 413.99 353.89 414.86 334.86C415.8 314.28 416 308.11 416 256C416 203.89 415.8 197.72 414.86 177.14ZM256 352C202.98 352 160 309.02 160 256C160 202.98 202.98 160 256 160C309.02 160 352 202.98 352 256C352 309.02 309.02 352 256 352ZM360 176C346.75 176 336 165.25 336 152C336 138.75 346.75 128 360 128C373.25 128 384 138.74 384 152C384 165.26 373.25 176 360 176ZM256 192C220.65 192 192 220.65 192 256C192 291.35 220.65 320 256 320C291.35 320 320 291.35 320 256C320 220.65 291.35 192 256 192ZM256 192C220.65 192 192 220.65 192 256C192 291.35 220.65 320 256 320C291.35 320 320 291.35 320 256C320 220.65 291.35 192 256 192ZM256 192C220.65 192 192 220.65 192 256C192 291.35 220.65 320 256 320C291.35 320 320 291.35 320 256C320 220.65 291.35 192 256 192ZM414.86 177.14C413.99 158.11 410.81 147.77 408.14 140.9C404.6 131.79 400.37 125.29 393.54 118.46C386.71 111.63 380.21 107.4 371.1 103.86C364.23 101.18 353.89 98.01 334.86 97.14C314.28 96.2 308.11 96 256 96C203.89 96 197.72 96.2 177.14 97.14C158.11 98.01 147.77 101.18 140.9 103.86C131.79 107.4 125.29 111.63 118.46 118.46C111.63 125.29 107.4 131.79 103.86 140.9C101.19 147.77 98.01 158.11 97.14 177.14C96.2 197.72 96 203.89 96 256C96 308.11 96.2 314.28 97.14 334.86C98.01 353.89 101.19 364.22 103.86 371.1C107.4 380.21 111.63 386.71 118.46 393.54C125.29 400.37 131.79 404.6 140.9 408.14C147.77 410.81 158.11 413.99 177.14 414.86C197.71 415.8 203.89 416 256 416C308.11 416 314.29 415.8 334.86 414.86C353.89 413.99 364.23 410.81 371.1 408.14C380.21 404.6 386.71 400.37 393.54 393.54C400.37 386.71 404.6 380.21 408.14 371.1C410.81 364.22 413.99 353.89 414.86 334.86C415.8 314.28 416 308.11 416 256C416 203.89 415.8 197.72 414.86 177.14ZM256 352C202.98 352 160 309.02 160 256C160 202.98 202.98 160 256 160C309.02 160 352 202.98 352 256C352 309.02 309.02 352 256 352ZM360 176C346.75 176 336 165.25 336 152C336 138.75 346.75 128 360 128C373.25 128 384 138.74 384 152C384 165.26 373.25 176 360 176ZM256 192C220.65 192 192 220.65 192 256C192 291.35 220.65 320 256 320C291.35 320 320 291.35 320 256C320 220.65 291.35 192 256 192Z" fill="black"/>
</svg>
