<svg width="24" height="24" viewBox="0 0 24 24" fill="none" xmlns="http://www.w3.org/2000/svg">
<path d="M14.9989 11.997C14.9989 12.5903 14.823 13.1704 14.4933 13.6637C14.1637 14.157 13.6952 14.5416 13.147 14.7686C12.5988 14.9957 11.9956 15.0551 11.4137 14.9393C10.8317 14.8236 10.2972 14.5379 9.87764 14.1183C9.45809 13.6987 9.17237 13.1642 9.05662 12.5823C8.94086 12.0003 9.00027 11.3971 9.22733 10.849C9.45439 10.3008 9.83891 9.83225 10.3323 9.50261C10.8256 9.17296 11.4056 8.99702 11.9989 8.99702C12.7946 8.99702 13.5576 9.31309 14.1203 9.87569C14.6829 10.4383 14.9989 11.2014 14.9989 11.997ZM21.7489 7.49703V16.497C21.7474 17.8889 21.1938 19.2234 20.2096 20.2076C19.2253 21.1918 17.8908 21.7454 16.4989 21.7469H7.49898C6.10706 21.7454 4.77258 21.1918 3.78835 20.2076C2.80411 19.2234 2.25051 17.8889 2.24902 16.497V7.49703C2.25051 6.10511 2.80411 4.77063 3.78835 3.78639C4.77258 2.80216 6.10706 2.24856 7.49898 2.24707H16.4989C17.8908 2.24856 19.2253 2.80216 20.2096 3.78639C21.1938 4.77063 21.7474 6.10511 21.7489 7.49703ZM16.4989 11.997C16.4989 11.107 16.235 10.237 15.7405 9.49695C15.2461 8.75693 14.5433 8.18016 13.721 7.83957C12.8988 7.49898 11.994 7.40986 11.121 7.5835C10.2481 7.75713 9.44632 8.18571 8.81699 8.81504C8.18766 9.44437 7.75908 10.2462 7.58545 11.1191C7.41182 11.992 7.50093 12.8968 7.84152 13.7191C8.18212 14.5413 8.75889 15.2441 9.4989 15.7386C10.2389 16.233 11.1089 16.497 11.9989 16.497C13.192 16.4957 14.3359 16.0212 15.1795 15.1776C16.0232 14.3339 16.4977 13.1901 16.4989 11.997ZM18.7489 6.37204C18.7489 6.14954 18.6829 5.93203 18.5593 5.74703C18.4357 5.56202 18.26 5.41783 18.0544 5.33268C17.8489 5.24753 17.6227 5.22526 17.4044 5.26866C17.1862 5.31207 16.9858 5.41922 16.8284 5.57655C16.6711 5.73388 16.5639 5.93434 16.5205 6.15256C16.4771 6.37079 16.4994 6.59699 16.5845 6.80255C16.6697 7.00812 16.8139 7.18382 16.9989 7.30744C17.1839 7.43105 17.4014 7.49703 17.6239 7.49703C17.9223 7.49703 18.2084 7.3785 18.4194 7.16753C18.6304 6.95655 18.7489 6.6704 18.7489 6.37204Z" fill="black"/>
</svg>
