<?xml version="1.0" encoding="UTF-8"?>
<svg width="512" height="512" viewBox="0 0 512 512" fill="none" xmlns="http://www.w3.org/2000/svg">
<path d="M256 160C202.98 160 160 202.98 160 256C160 309.02 202.98 352 256 352C309.02 352 352 309.02 352 256C352 202.98 309.02 160 256 160ZM256 320C220.65 320 192 291.35 192 256C192 220.65 220.65 192 256 192C291.35 192 320 220.65 320 256C320 291.35 291.35 320 256 320ZM360 128C346.75 128 336 138.74 336 152C336 165.26 346.75 176 360 176C373.25 176 384 165.25 384 152C384 138.75 373.25 128 360 128ZM256 160C202.98 160 160 202.98 160 256C160 309.02 202.98 352 256 352C309.02 352 352 309.02 352 256C352 202.98 309.02 160 256 160ZM256 320C220.65 320 192 291.35 192 256C192 220.65 220.65 192 256 192C291.35 192 320 220.65 320 256C320 291.35 291.35 320 256 320ZM360 128C346.75 128 336 138.74 336 152C336 165.26 346.75 176 360 176C373.25 176 384 165.25 384 152C384 138.75 373.25 128 360 128ZM360 128C346.75 128 336 138.74 336 152C336 165.26 346.75 176 360 176C373.25 176 384 165.25 384 152C384 138.75 373.25 128 360 128ZM256 160C202.98 160 160 202.98 160 256C160 309.02 202.98 352 256 352C309.02 352 352 309.02 352 256C352 202.98 309.02 160 256 160ZM256 320C220.65 320 192 291.35 192 256C192 220.65 220.65 192 256 192C291.35 192 320 220.65 320 256C320 291.35 291.35 320 256 320ZM446.84 176.84C445.91 156.4 442.67 142.45 437.92 130.23C433.01 117.61 426.45 106.9 415.78 96.23C405.1 85.55 394.39 78.99 381.77 74.08C369.55 69.33 355.6 66.09 335.16 65.16C314.68 64.22 308.14 64 256 64C203.86 64 197.32 64.22 176.84 65.16C156.4 66.09 142.45 69.33 130.23 74.08C117.61 78.99 106.9 85.55 96.23 96.23C85.55 106.9 78.99 117.61 74.08 130.23C69.33 142.45 66.09 156.4 65.15 176.84C64.22 197.32 64 203.86 64 256C64 308.14 64.22 314.68 65.15 335.16C66.09 355.6 69.33 369.55 74.08 381.77C78.99 394.39 85.55 405.1 96.23 415.77C106.9 426.45 117.61 433.01 130.23 437.92C142.45 442.67 156.4 445.91 176.84 446.85C197.32 447.78 203.86 448 256 448C308.14 448 314.68 447.78 335.16 446.85C355.6 445.91 369.55 442.67 381.77 437.92C394.39 433.01 405.1 426.45 415.78 415.77C426.45 405.1 433.01 394.39 437.92 381.77C442.67 369.55 445.91 355.6 446.84 335.16C447.78 314.68 448 308.14 448 256C448 203.86 447.78 197.32 446.84 176.84ZM414.86 334.86C413.99 353.89 410.81 364.22 408.14 371.1C404.6 380.21 400.37 386.71 393.54 393.54C386.71 400.37 380.21 404.6 371.1 408.14C364.23 410.81 353.89 413.99 334.86 414.86C314.29 415.8 308.12 416 256 416C203.88 416 197.71 415.8 177.14 414.86C158.11 413.99 147.77 410.81 140.9 408.14C131.79 404.6 125.29 400.37 118.46 393.54C111.63 386.71 107.4 380.21 103.86 371.1C101.19 364.22 98.01 353.89 97.14 334.86C96.2 314.28 96 308.11 96 256C96 203.89 96.2 197.72 97.14 177.14C98.01 158.11 101.19 147.77 103.86 140.9C107.4 131.79 111.63 125.29 118.46 118.46C125.29 111.63 131.79 107.4 140.9 103.86C147.77 101.18 158.11 98.01 177.14 97.14C197.72 96.2 203.89 96 256 96C308.11 96 314.28 96.2 334.86 97.14C353.89 98.01 364.23 101.18 371.1 103.86C380.21 107.4 386.71 111.63 393.54 118.46C400.37 125.29 404.6 131.79 408.14 140.9C410.81 147.77 413.99 158.11 414.86 177.14C415.8 197.72 416 203.89 416 256C416 308.11 415.8 314.28 414.86 334.86ZM360 128C346.75 128 336 138.74 336 152C336 165.26 346.75 176 360 176C373.25 176 384 165.25 384 152C384 138.75 373.25 128 360 128ZM256 160C202.98 160 160 202.98 160 256C160 309.02 202.98 352 256 352C309.02 352 352 309.02 352 256C352 202.98 309.02 160 256 160ZM256 320C220.65 320 192 291.35 192 256C192 220.65 220.65 192 256 192C291.35 192 320 220.65 320 256C320 291.35 291.35 320 256 320ZM256 160C202.98 160 160 202.98 160 256C160 309.02 202.98 352 256 352C309.02 352 352 309.02 352 256C352 202.98 309.02 160 256 160ZM256 320C220.65 320 192 291.35 192 256C192 220.65 220.65 192 256 192C291.35 192 320 220.65 320 256C320 291.35 291.35 320 256 320ZM360 128C346.75 128 336 138.74 336 152C336 165.26 346.75 176 360 176C373.25 176 384 165.25 384 152C384 138.75 373.25 128 360 128Z" fill="black"/>
</svg>
