<svg width="24" height="24" viewBox="0 0 24 24" fill="none" xmlns="http://www.w3.org/2000/svg">
<path d="M21.75 9.71655H5.25V17.3171H19.7002C20.937 17.317 21.7498 16.4696 21.75 15.6404V9.71655ZM5.25 8.21655H21.7412C21.6541 7.43585 20.8659 6.68343 19.7002 6.68335H5.25V8.21655ZM3.75 6.74487C2.89097 6.93723 2.33141 7.56605 2.25879 8.21655H3.75V6.74487ZM2.25 15.6404C2.2502 16.3392 2.82808 17.0481 3.75 17.2546V9.71655H2.25V15.6404ZM23.25 15.6404C23.2498 17.4922 21.5569 18.817 19.7002 18.8171H4.2998C2.44314 18.817 0.750222 17.4922 0.75 15.6404V8.36011C0.75 6.50806 2.44302 5.18344 4.2998 5.18335H19.7002C21.557 5.18344 23.25 6.50806 23.25 8.36011V15.6404Z" fill="black"/>
<path fill-rule="evenodd" clip-rule="evenodd" d="M5.25 9.71655H21.75V15.6404C21.7498 16.4696 20.937 17.317 19.7002 17.3171H5.25V9.71655Z" fill="black"/>
</svg>
