<svg xmlns="http://www.w3.org/2000/svg" width="24" height="24" fill="currentColor" viewBox="0 0 24 24"><path d="M20.674 7.376l-5.67-5.67a0.816 0.816 0 0 0-0.574-0.236h-9.72a1.62 1.62 0 0 0-1.62 1.62v7.696a0.408 0.408 0 0 0 0.404 0.405h12.15a0.408 0.408 0 0 1 0.406 0.406v10.53a0.408 0.408 0 0 0 0.406 0.404h2.834a1.62 1.62 0 0 0 1.62-1.62v-12.96a0.816 0.816 0 0 0-0.236-0.573z m-6.244 0.574V3.494l4.456 4.456z m-0.425 10.967a2.112 2.112 0 0 1-0.93 1.542c-0.526 0.35-1.176 0.451-1.771 0.451a6.24 6.24 0 0 1-1.538-0.203 0.81 0.81 0 0 1 0.436-1.56c0.444 0.121 1.519 0.274 1.98-0.036 0.089-0.06 0.185-0.154 0.218-0.398 0.035-0.27-0.073-0.415-1.294-0.768-0.947-0.274-2.531-0.732-2.329-2.34a2.088 2.088 0 0 1 0.911-1.513c1.2-0.81 3.11-0.335 3.325-0.28a0.81 0.81 0 0 1-0.412 1.567c-0.455-0.119-1.542-0.259-2.007 0.057a0.468 0.468 0 0 0-0.203 0.372c-0.011 0.091-0.013 0.11 0.114 0.192 0.234 0.151 0.653 0.271 1.058 0.388 0.995 0.287 2.666 0.775 2.445 2.529zM7.14 14.43v3.787c0 1.44-1.132 2.659-2.573 2.692a2.633 2.633 0 0 1-2.693-2.595 0.828 0.828 0 0 1 0.741-0.847 0.81 0.81 0 0 1 0.879 0.833 0.9 0.9 0 0 0 0.406 0.81c0.794 0.488 1.62-0.076 1.62-0.83v-3.822a0.828 0.828 0 0 1 0.756-0.838 0.81 0.81 0 0 1 0.864 0.81"/></svg>