<svg viewBox="0 0 24 24" fill="none" xmlns="http://www.w3.org/2000/svg" width="24" height="24">
<path fill-rule="evenodd" clip-rule="evenodd" d="M2.4 0.9C2.4 0.403 2.803 0 3.3 0H20.7C21.197 0 21.6 0.403 21.6 0.9V23.1C21.6 23.597 21.197 24 20.7 24H3.3C2.803 24 2.4 23.597 2.4 23.1V0.9ZM4.89 21.002C4.89 21.45 5.253 21.812 5.7 21.812H18.3C18.747 21.812 19.11 21.45 19.11 21.002 19.11 20.555 18.747 20.193 18.3 20.193H5.7C5.253 20.193 4.89 20.555 4.89 21.002ZM4.89 2.998C4.89 3.445 5.253 3.807 5.7 3.807H18.3C18.747 3.807 19.11 3.445 19.11 2.998 19.11 2.55 18.747 2.188 18.3 2.188H5.7C5.253 2.188 4.89 2.55 4.89 2.998ZM6.123 18.275C6.123 18.623 6.406 18.905 6.754 18.905H17.253C17.601 18.905 17.883 18.623 17.883 18.275V15.335C17.883 14.987 17.601 14.705 17.253 14.705H6.754C6.406 14.705 6.123 14.987 6.123 15.335V18.275ZM6.123 9.033C6.123 9.381 6.406 9.662 6.754 9.662H17.253C17.601 9.662 17.883 9.381 17.883 9.033V6.093C17.883 5.745 17.601 5.462 17.253 5.462H6.754C6.406 5.462 6.123 5.745 6.123 6.093V9.033Z" fill="black"/>
</svg>