<svg width="24" height="24" viewBox="0 0 24 24" fill="none" xmlns="http://www.w3.org/2000/svg">
<path d="M18.5752 19.5C18.5752 19.8728 18.8772 20.1748 19.25 20.1748C19.6228 20.1748 19.9248 19.8728 19.9248 19.5L19.9248 4.5C19.9248 4.12721 19.6228 3.8252 19.25 3.8252C18.8772 3.8252 18.5752 4.12721 18.5752 4.5L18.5752 19.5Z" fill="black"/>
<path d="M5.5 6C5.08579 6 4.75 6.33579 4.75 6.75V17.25C4.75 17.6642 5.08579 18 5.5 18H16.0469C16.4611 18 16.7969 17.6642 16.7969 17.25V6.75C16.7969 6.33579 16.4611 6 16.0469 6H5.5ZM14.4287 7.80371C14.7187 7.80371 14.9541 8.03915 14.9541 8.3291V15.6787C14.9541 15.9687 14.7187 16.2041 14.4287 16.2041H11.9785C11.6887 16.2039 11.4541 15.9685 11.4541 15.6787V8.3291C11.4541 8.03927 11.6887 7.8039 11.9785 7.80371H14.4287ZM9.5293 7.80371C9.81909 7.8039 10.0537 8.03927 10.0537 8.3291V15.6787C10.0537 15.9685 9.81909 16.2039 9.5293 16.2041H7.0791C6.78915 16.2041 6.55371 15.9687 6.55371 15.6787V8.3291C6.55371 8.03915 6.78915 7.80371 7.0791 7.80371H9.5293Z" fill="black"/>
</svg>
