<svg width="24" height="24" viewBox="0 0 24 24" fill="none" xmlns="http://www.w3.org/2000/svg">
<path d="M18.3809 15.01C18.7951 15.01 19.1309 15.3458 19.1309 15.76V17.9919C19.1309 18.4061 18.7951 18.7419 18.3809 18.7419H6.37988C5.96567 18.7419 5.62988 18.4061 5.62988 17.9919V15.76C5.62988 15.3458 5.96567 15.01 6.37988 15.01H18.3809Z" fill="black"/>
<path d="M18.3809 5.25C18.7951 5.25 19.1309 5.58579 19.1309 6V8.23194C19.1309 8.64615 18.7951 8.98194 18.3809 8.98194H6.37988C5.96567 8.98194 5.62988 8.64615 5.62988 8.23194V6C5.62988 5.58579 5.96567 5.25 6.37988 5.25H18.3809Z" fill="black"/>
<path d="M21.3804 2.25L3.38037 2.25M21.3804 21.75L3.38037 21.75M5.62988 15.76V17.9919C5.62988 18.4061 5.96567 18.7419 6.37988 18.7419H18.3809C18.7951 18.7419 19.1309 18.4061 19.1309 17.9919V15.76C19.1309 15.3458 18.7951 15.01 18.3809 15.01H6.37988C5.96567 15.01 5.62988 15.3458 5.62988 15.76ZM5.62988 6V8.23194C5.62988 8.64615 5.96567 8.98194 6.37988 8.98194H18.3809C18.7951 8.98194 19.1309 8.64615 19.1309 8.23194V6C19.1309 5.58579 18.7951 5.25 18.3809 5.25H6.37988C5.96567 5.25 5.62988 5.58579 5.62988 6Z" stroke="black" stroke-width="1.5" stroke-linecap="round"/>
</svg>
