<svg viewBox="0 0 24 24" fill="none" xmlns="http://www.w3.org/2000/svg" width="24" height="24">
<path d="M21 19.89C21.447 19.89 21.81 20.253 21.81 20.7 21.81 21.147 21.447 21.51 21 21.51L3 21.51C2.553 21.51 2.19 21.147 2.19 20.7 2.19 20.253 2.553 19.89 3 19.89L21 19.89Z" fill="black"/>
<path d="M4.8 4.2C4.8 3.703 5.203 3.3 5.7 3.3H18.3C18.797 3.3 19.2 3.703 19.2 4.2V16.856C19.2 17.353 18.797 17.756 18.3 17.756H5.7C5.203 17.756 4.8 17.353 4.8 16.856V4.2ZM6.964 14.914C6.964 15.262 7.247 15.545 7.595 15.545H16.414C16.762 15.545 17.045 15.262 17.045 14.914V11.974C17.045 11.626 16.762 11.345 16.414 11.345H7.595C7.247 11.345 6.965 11.626 6.964 11.974V14.914ZM6.964 9.035C6.965 9.383 7.247 9.664 7.595 9.664H16.414C16.762 9.664 17.045 9.383 17.045 9.035V6.095C17.045 5.747 16.762 5.464 16.414 5.464H7.595C7.247 5.464 6.964 5.747 6.964 6.095V9.035Z" fill="black"/>
</svg>