<svg viewBox="0 0 24 24" fill="none" xmlns="http://www.w3.org/2000/svg" width="24" height="24">
<path d="M21 4.11C21.447 4.11 21.81 3.747 21.81 3.3 21.81 2.853 21.447 2.49 21 2.49L3 2.49C2.553 2.49 2.19 2.853 2.19 3.3 2.19 3.747 2.553 4.11 3 4.11L21 4.11Z" fill="black"/>
<path d="M4.8 19.8C4.8 20.297 5.203 20.7 5.7 20.7H18.3C18.797 20.7 19.2 20.297 19.2 19.8V7.144C19.2 6.647 18.797 6.244 18.3 6.244H5.7C5.203 6.244 4.8 6.647 4.8 7.144V19.8ZM6.964 9.086C6.964 8.738 7.247 8.455 7.595 8.455H16.414C16.762 8.455 17.045 8.738 17.045 9.086V12.026C17.045 12.374 16.762 12.655 16.414 12.655H7.595C7.247 12.655 6.965 12.374 6.964 12.026V9.086ZM6.964 14.965C6.965 14.617 7.247 14.336 7.595 14.336H16.414C16.762 14.336 17.045 14.617 17.045 14.965V17.905C17.045 18.253 16.762 18.536 16.414 18.536H7.595C7.247 18.536 6.964 18.253 6.964 17.905V14.965Z" fill="black"/>
</svg>