<svg width="24" height="24" viewBox="0 0 24 24" fill="none" xmlns="http://www.w3.org/2000/svg">
<path fill-rule="evenodd" clip-rule="evenodd" d="M4 3.75C4 3.33579 4.33579 3 4.75 3H19.25C19.6642 3 20 3.33579 20 3.75V20.25C20 20.6642 19.6642 21 19.25 21H4.75C4.33579 21 4 20.6642 4 20.25V3.75ZM6.0752 18.6475C6.07533 19.0201 6.37729 19.3223 6.75 19.3223H17.25C17.6227 19.3223 17.9247 19.0201 17.9248 18.6475C17.9248 18.2747 17.6228 17.9727 17.25 17.9727H6.75C6.37721 17.9727 6.0752 18.2747 6.0752 18.6475ZM6.0752 5.35254C6.0752 5.72533 6.37721 6.02734 6.75 6.02734H17.25C17.6228 6.02734 17.9248 5.72533 17.9248 5.35254C17.9247 4.97986 17.6227 4.67773 17.25 4.67773H6.75C6.37729 4.67773 6.07533 4.97986 6.0752 5.35254ZM7.10254 15.9746C7.10254 16.2646 7.33798 16.5 7.62793 16.5H16.3779C16.6677 16.4998 16.9023 16.2644 16.9023 15.9746V13.5254C16.9023 13.2356 16.6677 13.0002 16.3779 13H7.62793C7.33798 13 7.10254 13.2354 7.10254 13.5254V15.9746ZM7.10254 10.4746C7.10254 10.7646 7.33798 11 7.62793 11H16.3779C16.6677 10.9998 16.9023 10.7644 16.9023 10.4746V8.02539C16.9023 7.73557 16.6677 7.50021 16.3779 7.5H7.62793C7.33798 7.5 7.10254 7.73544 7.10254 8.02539V10.4746Z" fill="black"/>
</svg>
