<svg width="24" height="24" viewBox="0 0 24 24" fill="none" xmlns="http://www.w3.org/2000/svg">
<path d="M18.0005 15.0153C18.4147 15.0153 18.7505 15.3511 18.7505 15.7653V17.9992C18.7505 18.4134 18.4147 18.7492 18.0005 18.7492H5.99951C5.5853 18.7492 5.24951 18.4134 5.24951 17.9992V15.7653C5.24951 15.3511 5.5853 15.0153 5.99951 15.0153H18.0005Z" fill="black"/>
<path d="M18.0005 5.25049C18.4147 5.25049 18.7505 5.58627 18.7505 6.00049V8.23437C18.7505 8.64858 18.4147 8.98437 18.0005 8.98437H5.99951C5.5853 8.98437 5.24951 8.64858 5.24951 8.23437V6.00049C5.24951 5.58627 5.5853 5.25049 5.99951 5.25049H18.0005Z" fill="black"/>
<path d="M21 12.004L3 12.004M5.24951 15.7653V17.9992C5.24951 18.4134 5.5853 18.7492 5.99951 18.7492H18.0005C18.4147 18.7492 18.7505 18.4134 18.7505 17.9992V15.7653C18.7505 15.3511 18.4147 15.0153 18.0005 15.0153H5.99951C5.5853 15.0153 5.24951 15.3511 5.24951 15.7653ZM5.24951 6.00049V8.23437C5.24951 8.64858 5.5853 8.98437 5.99951 8.98437H18.0005C18.4147 8.98437 18.7505 8.64858 18.7505 8.23437V6.00049C18.7505 5.58627 18.4147 5.25049 18.0005 5.25049H5.99951C5.5853 5.25049 5.24951 5.58627 5.24951 6.00049Z" stroke="black" stroke-width="1.5" stroke-linecap="round"/>
</svg>
