<svg viewBox="0 0 24 24" fill="none" xmlns="http://www.w3.org/2000/svg" width="24" height="24">
<path fill-rule="evenodd" clip-rule="evenodd" d="M21.9 2.4C22.397 2.4 22.8 2.803 22.8 3.3V20.7C22.8 21.197 22.397 21.6 21.9 21.6H2.1C1.603 21.6 1.2 21.197 1.2 20.7V3.3C1.2 2.803 1.603 2.4 2.1 2.4H21.9ZM4.023 4.89C3.576 4.89 3.213 5.253 3.213 5.7V18.3C3.213 18.747 3.576 19.11 4.023 19.11 4.47 19.11 4.833 18.747 4.833 18.3V5.7C4.833 5.253 4.47 4.89 4.023 4.89ZM19.977 4.89C19.53 4.89 19.167 5.253 19.167 5.7V18.3C19.167 18.747 19.53 19.11 19.977 19.11 20.424 19.11 20.787 18.747 20.787 18.3V5.7C20.787 5.253 20.424 4.89 19.977 4.89ZM7.23 6.123C6.883 6.123 6.6 6.406 6.6 6.754V17.253C6.6 17.601 6.883 17.883 7.23 17.883H10.17C10.517 17.883 10.8 17.601 10.8 17.253V6.754C10.8 6.406 10.518 6.123 10.17 6.123H7.23ZM13.83 6.123C13.482 6.123 13.2 6.406 13.2 6.754V17.253C13.2 17.601 13.483 17.883 13.83 17.883H16.77C17.117 17.883 17.4 17.601 17.4 17.253V6.754C17.4 6.406 17.118 6.123 16.77 6.123H13.83Z" fill="black"/>
</svg>