<svg width="24" height="24" viewBox="0 0 24 24" fill="none" xmlns="http://www.w3.org/2000/svg">
<path d="M5.4248 19.5C5.4248 19.8728 5.12279 20.1748 4.75 20.1748C4.37721 20.1748 4.0752 19.8728 4.0752 19.5L4.0752 4.5C4.0752 4.12721 4.37721 3.8252 4.75 3.8252C5.12279 3.8252 5.42481 4.12721 5.42481 4.5L5.4248 19.5Z" fill="black"/>
<path d="M18.5 6C18.9142 6 19.25 6.33579 19.25 6.75V17.25C19.25 17.6642 18.9142 18 18.5 18H7.95313C7.53891 18 7.20313 17.6642 7.20313 17.25V6.75C7.20313 6.33579 7.53891 6 7.95313 6H18.5ZM9.57129 7.80371C9.28134 7.80371 9.0459 8.03915 9.0459 8.3291V15.6787C9.0459 15.9687 9.28134 16.2041 9.57129 16.2041H12.0215C12.3113 16.2039 12.5459 15.9685 12.5459 15.6787V8.3291C12.5459 8.03927 12.3113 7.8039 12.0215 7.80371H9.57129ZM14.4707 7.80371C14.1809 7.8039 13.9463 8.03927 13.9463 8.3291V15.6787C13.9463 15.9685 14.1809 16.2039 14.4707 16.2041H16.9209C17.2108 16.2041 17.4463 15.9687 17.4463 15.6787V8.3291C17.4463 8.03915 17.2108 7.80371 16.9209 7.80371H14.4707Z" fill="black"/>
</svg>
