<svg width="24" height="24" viewBox="0 0 24 24" fill="none" xmlns="http://www.w3.org/2000/svg">
<path d="M18.0005 12.0044C18.4147 12.0044 18.7505 12.3402 18.7505 12.7544V14.9883C18.7505 15.4025 18.4147 15.7383 18.0005 15.7383H5.99951C5.5853 15.7383 5.24951 15.4025 5.24951 14.9883V12.7544C5.24951 12.3402 5.5853 12.0044 5.99951 12.0044H18.0005Z" fill="black"/>
<path d="M18.0005 5.25098C18.4147 5.25098 18.7505 5.58676 18.7505 6.00098V8.23486C18.7505 8.64907 18.4147 8.98485 18.0005 8.98485H5.99951C5.5853 8.98485 5.24951 8.64907 5.24951 8.23485V6.00098C5.24951 5.58676 5.5853 5.25098 5.99951 5.25098H18.0005Z" fill="black"/>
<path d="M21 18.7495L3 18.7495M5.24951 12.7544V14.9883C5.24951 15.4025 5.5853 15.7383 5.99951 15.7383H18.0005C18.4147 15.7383 18.7505 15.4025 18.7505 14.9883V12.7544C18.7505 12.3402 18.4147 12.0044 18.0005 12.0044H5.99951C5.5853 12.0044 5.24951 12.3402 5.24951 12.7544ZM5.24951 6.00098V8.23485C5.24951 8.64907 5.5853 8.98485 5.99951 8.98485H18.0005C18.4147 8.98485 18.7505 8.64907 18.7505 8.23486V6.00098C18.7505 5.58676 18.4147 5.25098 18.0005 5.25098H5.99951C5.5853 5.25098 5.24951 5.58676 5.24951 6.00098Z" stroke="black" stroke-width="1.5" stroke-linecap="round"/>
</svg>
