<svg width="24" height="24" viewBox="0 0 24 24" fill="none" xmlns="http://www.w3.org/2000/svg">
<path d="M15.01 5.99951C15.01 5.5853 15.3458 5.24951 15.76 5.24951L17.9919 5.24951C18.4061 5.24951 18.7419 5.5853 18.7419 5.99951V18.0005C18.7419 18.4147 18.4061 18.7505 17.9919 18.7505H15.76C15.3458 18.7505 15.01 18.4147 15.01 18.0005L15.01 5.99951Z" fill="black"/>
<path d="M5.25 5.99951C5.25 5.5853 5.58579 5.24951 6 5.24951L8.23193 5.24951C8.64615 5.24951 8.98193 5.5853 8.98193 5.99951L8.98193 18.0005C8.98193 18.4147 8.64615 18.7505 8.23193 18.7505H6C5.58579 18.7505 5.25 18.4147 5.25 18.0005L5.25 5.99951Z" fill="black"/>
<path d="M2.25 3L2.25 21M21.75 3L21.75 21M15.76 18.7505H17.9919C18.4061 18.7505 18.7419 18.4147 18.7419 18.0005V5.99951C18.7419 5.5853 18.4061 5.24951 17.9919 5.24951L15.76 5.24951C15.3458 5.24951 15.01 5.5853 15.01 5.99951L15.01 18.0005C15.01 18.4147 15.3458 18.7505 15.76 18.7505ZM6 18.7505H8.23193C8.64615 18.7505 8.98193 18.4147 8.98193 18.0005L8.98193 5.99951C8.98193 5.5853 8.64615 5.24951 8.23193 5.24951L6 5.24951C5.58579 5.24951 5.25 5.5853 5.25 5.99951L5.25 18.0005C5.25 18.4147 5.58579 18.7505 6 18.7505Z" stroke="black" stroke-width="1.5" stroke-linecap="round"/>
</svg>
