<svg viewBox="0 0 24 24" fill="none" xmlns="http://www.w3.org/2000/svg" width="24" height="24">
<path d="M4.11 21C4.11 21.447 3.747 21.81 3.3 21.81 2.853 21.81 2.49 21.447 2.49 21L2.49 3C2.49 2.553 2.853 2.19 3.3 2.19 3.747 2.19 4.11 2.553 4.11 3L4.11 21Z" fill="black"/>
<path d="M19.8 4.8C20.297 4.8 20.7 5.203 20.7 5.7V18.3C20.7 18.797 20.297 19.2 19.8 19.2H7.144C6.647 19.2 6.244 18.797 6.244 18.3V5.7C6.244 5.203 6.647 4.8 7.144 4.8H19.8ZM9.086 6.964C8.738 6.964 8.455 7.247 8.455 7.595V16.414C8.455 16.762 8.738 17.045 9.086 17.045H12.026C12.374 17.045 12.655 16.762 12.655 16.414V7.595C12.655 7.247 12.374 6.965 12.026 6.964H9.086ZM14.965 6.964C14.617 6.965 14.336 7.247 14.336 7.595V16.414C14.336 16.762 14.617 17.045 14.965 17.045H17.905C18.253 17.045 18.536 16.762 18.536 16.414V7.595C18.536 7.247 18.253 6.964 17.905 6.964H14.965Z" fill="black"/>
</svg>