<svg width="24" height="24" viewBox="0 0 24 24" fill="none" xmlns="http://www.w3.org/2000/svg">
<path d="M19.5 5.4248C19.8728 5.4248 20.1748 5.12279 20.1748 4.75C20.1748 4.37721 19.8728 4.0752 19.5 4.0752L4.5 4.0752C4.12721 4.0752 3.8252 4.37721 3.8252 4.75C3.8252 5.12279 4.12721 5.42481 4.5 5.42481L19.5 5.4248Z" fill="black"/>
<path d="M6 18.5C6 18.9142 6.33579 19.25 6.75 19.25H17.25C17.6642 19.25 18 18.9142 18 18.5V7.95313C18 7.53891 17.6642 7.20313 17.25 7.20313H6.75C6.33579 7.20313 6 7.53891 6 7.95313V18.5ZM7.80371 9.57129C7.80371 9.28134 8.03915 9.0459 8.3291 9.0459H15.6787C15.9687 9.0459 16.2041 9.28134 16.2041 9.57129V12.0215C16.2039 12.3113 15.9685 12.5459 15.6787 12.5459H8.3291C8.03927 12.5459 7.8039 12.3113 7.80371 12.0215V9.57129ZM7.80371 14.4707C7.8039 14.1809 8.03927 13.9463 8.3291 13.9463H15.6787C15.9685 13.9463 16.2039 14.1809 16.2041 14.4707V16.9209C16.2041 17.2108 15.9687 17.4463 15.6787 17.4463H8.3291C8.03915 17.4463 7.80371 17.2108 7.80371 16.9209V14.4707Z" fill="black"/>
</svg>
