<svg viewBox="0 0 24 24" fill="none" xmlns="http://www.w3.org/2000/svg" width="24" height="24">
<path fill-rule="evenodd" clip-rule="evenodd" d="M2.4 2.1C2.4 1.603 2.803 1.2 3.3 1.2H20.7C21.197 1.2 21.6 1.603 21.6 2.1V21.9C21.6 22.397 21.197 22.8 20.7 22.8H3.3C2.803 22.8 2.4 22.397 2.4 21.9V2.1ZM4.89 19.977C4.89 20.424 5.253 20.787 5.7 20.787H18.3C18.747 20.787 19.11 20.424 19.11 19.977 19.11 19.53 18.747 19.167 18.3 19.167H5.7C5.253 19.167 4.89 19.53 4.89 19.977ZM4.89 4.023C4.89 4.47 5.253 4.833 5.7 4.833H18.3C18.747 4.833 19.11 4.47 19.11 4.023 19.11 3.576 18.747 3.213 18.3 3.213H5.7C5.253 3.213 4.89 3.576 4.89 4.023ZM6.123 16.77C6.123 17.118 6.406 17.4 6.754 17.4H17.253C17.601 17.4 17.883 17.117 17.883 16.77V13.83C17.883 13.483 17.601 13.2 17.253 13.2H6.754C6.406 13.2 6.123 13.482 6.123 13.83V16.77ZM6.123 10.17C6.123 10.518 6.406 10.8 6.754 10.8H17.253C17.601 10.8 17.883 10.517 17.883 10.17V7.23C17.883 6.883 17.601 6.6 17.253 6.6H6.754C6.406 6.6 6.123 6.883 6.123 7.23V10.17Z" fill="black"/>
</svg>