<?xml version="1.0" encoding="utf-8"?>
<svg xmlns="http://www.w3.org/2000/svg" width="512" height="512" viewBox="0 0 512 512">
<path d="m336.42,80.33c1.01,0,2.02.05,3,.14-16.54-28.95-47.71-48.47-83.42-48.47s-66.88,19.52-83.42,48.47c.98-.09,1.99-.14,3-.14h160.84Zm-48.37,95.67c-17.22,0-31.31-13.57-32.05-30.52-.74,16.95-14.83,30.52-32.05,30.52h-48.37c-.94,0-1.88-.04-2.8-.12,16.59,28.75,47.65,48.12,83.22,48.12s66.63-19.37,83.22-48.12c-.92.08-1.86.12-2.8.12h-48.37Zm-.08-63.67v31.66h.08s48.37,0,48.37,0h.08v-31.66h-.08s-48.45,0-48.45,0Zm-112.47,0v31.65h.08s48.37,0,48.37,0h.08v-31.67h-48.53Zm144.5,319.66v-165.06c-20.02-7.09-41.56-10.94-64-10.94-106,0-192,86-192,192,0,17.7,14.3,32,32,32h240.03c-10.06-13.38-16.03-30-16.03-48Zm144-224h-96c-4.42,0-8.42,1.79-11.32,4.68-2.89,2.9-4.68,6.9-4.68,11.32,0,8.84,7.16,16,16,16v192c0,26.51,21.49,48,48,48,.41,0,.83-.01,1.24-.02,12.77-.32,24.29-5.62,32.7-14.04,8.69-8.68,14.06-20.68,14.06-33.94v-192c4.42,0,8.42-1.79,11.32-4.68,2.89-2.9,4.68-6.9,4.68-11.32,0-8.84-7.16-16-16-16Zm-32,112h-32v-80h32v80Z"/>
</svg>
