<svg width="24" height="24" viewBox="0 0 24 24" fill="none" xmlns="http://www.w3.org/2000/svg">
<path d="M21.7489 15.746H20.9989V6.74608C20.9989 6.14934 20.7618 5.57705 20.3399 5.1551C19.9179 4.73314 19.3456 4.49609 18.7489 4.49609H5.24899C4.65226 4.49609 4.07997 4.73314 3.65802 5.1551C3.23606 5.57705 2.99901 6.14934 2.99901 6.74608V15.746H2.24902C2.05011 15.746 1.85934 15.825 1.71869 15.9657C1.57804 16.1063 1.49902 16.2971 1.49902 16.496V17.996C1.49902 18.5927 1.73607 19.165 2.15803 19.587C2.57998 20.0089 3.15227 20.246 3.74901 20.246H20.2489C20.8456 20.246 21.4179 20.0089 21.8399 19.587C22.2618 19.165 22.4989 18.5927 22.4989 17.996V16.496C22.4989 16.2971 22.4198 16.1063 22.2792 15.9657C22.1385 15.825 21.9478 15.746 21.7489 15.746ZM10.499 6.74608H13.4989C13.6978 6.74608 13.8886 6.82509 14.0293 6.96574C14.1699 7.1064 14.2489 7.29716 14.2489 7.49607C14.2489 7.69498 14.1699 7.88575 14.0293 8.0264C13.8886 8.16705 13.6978 8.24607 13.4989 8.24607H10.499C10.3 8.24607 10.1093 8.16705 9.96863 8.0264C9.82798 7.88575 9.74896 7.69498 9.74896 7.49607C9.74896 7.29716 9.82798 7.1064 9.96863 6.96574C10.1093 6.82509 10.3 6.74608 10.499 6.74608ZM20.9989 17.996C20.9989 18.1949 20.9199 18.3857 20.7792 18.5263C20.6386 18.667 20.4478 18.746 20.2489 18.746H3.74901C3.5501 18.746 3.35933 18.667 3.21868 18.5263C3.07803 18.3857 2.99901 18.1949 2.99901 17.996V17.246H20.9989V17.996Z" fill="black"/>
</svg>
