<svg xmlns="http://www.w3.org/2000/svg" width="24" height="24" fill="currentColor" viewBox="0 0 24 24"><path d="M9.353 18.392c-0.457 0.998-1.98 3.328-6.263 3.328a0.81 0.81 0 0 1-0.81-0.81c0-4.282 2.329-5.806 3.328-6.263a0.81 0.81 0 0 1 0.672 1.475c-0.652 0.296-2.088 1.252-2.342 3.94 2.688-0.253 3.646-1.69 3.94-2.342a0.81 0.81 0 1 1 1.475 0.672m12.353-14.58a1.62 1.62 0 0 0-1.52-1.519c-1.273-0.076-4.529 0.041-7.228 2.741l-5.007 5.011a0.81 0.81 0 0 1-1.147-1.145l2.689-2.69a0.406 0.406 0 0 0-0.285-0.69H6.569a1.608 1.608 0 0 0-1.15 0.474L1.946 9.469a1.62 1.62 0 0 0 0.918 2.751l3.896 0.543 4.476 4.476 0.543 3.898a1.62 1.62 0 0 0 1.092 1.308 1.68 1.68 0 0 0 0.516 0.084 1.608 1.608 0 0 0 1.144-0.474l3.475-3.473a1.62 1.62 0 0 0 0.474-1.15v-2.638a0.406 0.406 0 0 0-0.691-0.286l-2.691 2.689a0.81 0.81 0 0 1-1.185-0.042 0.828 0.828 0 0 1 0.061-1.124l4.988-4.989c2.702-2.701 2.819-5.957 2.744-7.231z"/></svg>