<svg width="24" height="24" viewBox="0 0 24 24" fill="none" xmlns="http://www.w3.org/2000/svg">
<path d="M21 14.9951C21 15.4093 20.6642 15.7451 20.25 15.7451L3.75 15.7451C3.33579 15.7451 3 15.4093 3 14.9951L3 14.2451C3 13.8309 3.33579 13.4951 3.75 13.4951L20.25 13.4951C20.6642 13.4951 21 13.8309 21 14.2451V14.9951Z" fill="black"/>
<path d="M21 20.251C21 20.6652 20.6642 21.001 20.25 21.001L3.75 21.001C3.33579 21.001 3 20.6652 3 20.251L3 19.501C3 19.0868 3.33579 18.751 3.75 18.751L20.25 18.751C20.6642 18.751 21 19.0868 21 19.501V20.251Z" fill="black"/>
<path d="M21 9.74951C21 10.1637 20.6642 10.4995 20.25 10.4995L3.75 10.4995C3.33579 10.4995 3 10.1637 3 9.74951L3 8.99951C3 8.5853 3.33579 8.24951 3.75 8.24951L20.25 8.24951C20.6642 8.24951 21 8.5853 21 8.99951V9.74951Z" fill="black"/>
<path d="M21 4.49951C21 4.91373 20.6642 5.24951 20.25 5.24951L3.75 5.24951C3.33579 5.24951 3 4.91373 3 4.49951L3 3.74951C3 3.3353 3.33579 2.99951 3.75 2.99951L20.25 2.99951C20.6642 2.99951 21 3.3353 21 3.74951V4.49951Z" fill="black"/>
<path d="M21 14.9951C21 15.4093 20.6642 15.7451 20.25 15.7451L3.75 15.7451C3.33579 15.7451 3 15.4093 3 14.9951L3 14.2451C3 13.8309 3.33579 13.4951 3.75 13.4951L20.25 13.4951C20.6642 13.4951 21 13.8309 21 14.2451V14.9951Z" stroke="black" stroke-width="1.5"/>
<path d="M21 20.251C21 20.6652 20.6642 21.001 20.25 21.001L3.75 21.001C3.33579 21.001 3 20.6652 3 20.251L3 19.501C3 19.0868 3.33579 18.751 3.75 18.751L20.25 18.751C20.6642 18.751 21 19.0868 21 19.501V20.251Z" stroke="black" stroke-width="1.5"/>
<path d="M21 9.74951C21 10.1637 20.6642 10.4995 20.25 10.4995L3.75 10.4995C3.33579 10.4995 3 10.1637 3 9.74951L3 8.99951C3 8.5853 3.33579 8.24951 3.75 8.24951L20.25 8.24951C20.6642 8.24951 21 8.5853 21 8.99951V9.74951Z" stroke="black" stroke-width="1.5"/>
<path d="M21 4.49951C21 4.91373 20.6642 5.24951 20.25 5.24951L3.75 5.24951C3.33579 5.24951 3 4.91373 3 4.49951L3 3.74951C3 3.3353 3.33579 2.99951 3.75 2.99951L20.25 2.99951C20.6642 2.99951 21 3.3353 21 3.74951V4.49951Z" stroke="black" stroke-width="1.5"/>
</svg>
