<svg viewBox="0 0 24 24" fill="none" xmlns="http://www.w3.org/2000/svg" width="24" height="24">
<path fill-rule="evenodd" clip-rule="evenodd" d="M21.9 3.6C22.397 3.6 22.8 4.003 22.8 4.5V19.5C22.8 19.997 22.397 20.4 21.9 20.4H2.1C1.603 20.4 1.2 19.997 1.2 19.5V4.5C1.2 4.003 1.603 3.6 2.1 3.6H21.9ZM4.751 4.574C4.403 4.574 4.12 4.856 4.12 5.204V18.796C4.12 19.144 4.403 19.426 4.751 19.426H10.211C10.558 19.426 10.841 19.144 10.841 18.796V5.204C10.841 4.856 10.558 4.574 10.211 4.574H4.751ZM13.576 16.593C12.797 16.593 12.166 17.224 12.166 18.002 12.167 18.781 12.798 19.412 13.576 19.412H18.616C19.395 19.412 20.026 18.78 20.026 18.002 20.026 17.224 19.395 16.593 18.616 16.593H13.576ZM13.576 12.571C12.797 12.571 12.166 13.202 12.166 13.98 12.166 14.759 12.797 15.39 13.576 15.39H18.616C19.395 15.39 20.026 14.759 20.026 13.98 20.026 13.202 19.395 12.571 18.616 12.571H13.576ZM13.576 8.544C12.797 8.544 12.166 9.175 12.166 9.954 12.166 10.733 12.797 11.364 13.576 11.364H18.616C19.395 11.363 20.026 10.732 20.026 9.954 20.026 9.175 19.395 8.545 18.616 8.544H13.576ZM13.576 4.577C12.797 4.577 12.166 5.208 12.166 5.987 12.166 6.766 12.797 7.397 13.576 7.397H18.616C19.395 7.396 20.026 6.766 20.026 5.987 20.026 5.209 19.395 4.578 18.616 4.577H13.576Z" fill="black"/>
</svg>