<svg width="24" height="24" viewBox="0 0 24 24" fill="none" xmlns="http://www.w3.org/2000/svg">
<path fill-rule="evenodd" clip-rule="evenodd" d="M20.25 5C20.6642 5 21 5.33579 21 5.75V18.25C21 18.6642 20.6642 19 20.25 19H3.75C3.33579 19 3 18.6642 3 18.25V5.75C3 5.33579 3.33579 5 3.75 5H20.25ZM5.60059 14.6523C4.95165 14.6523 4.42578 15.1782 4.42578 15.8271C4.42578 16.4761 4.95165 17.002 5.60059 17.002H18.4004C19.0491 17.0017 19.5752 16.4759 19.5752 15.8271C19.5752 15.1784 19.0491 14.6526 18.4004 14.6523H5.60059ZM5.59961 10.8252C4.95085 10.8254 4.4248 11.3512 4.4248 12C4.4248 12.6488 4.95085 13.1746 5.59961 13.1748H18.3994C19.0483 13.1748 19.5742 12.6489 19.5742 12C19.5742 11.3511 19.0483 10.8252 18.3994 10.8252H5.59961ZM5.60059 7.02539C4.95165 7.02539 4.42578 7.55126 4.42578 8.2002C4.42578 8.84913 4.95165 9.375 5.60059 9.375H18.4004C19.0491 9.37474 19.5752 8.84897 19.5752 8.2002C19.5752 7.55142 19.0491 7.02565 18.4004 7.02539H5.60059Z" fill="black"/>
</svg>
