<svg width="24" height="24" viewBox="0 0 24 24" fill="none" xmlns="http://www.w3.org/2000/svg">
<path d="M19.4994 2.99854C20.3278 2.99854 20.9994 3.67011 20.9994 4.49854V8.99854C20.9994 9.82696 20.3278 10.4985 19.4994 10.4985L4.49942 10.4985C3.67099 10.4985 2.99942 9.82696 2.99942 8.99854L2.99942 4.49854C2.99942 3.67011 3.67099 2.99854 4.49942 2.99854L19.4994 2.99854Z" fill="black"/>
<path d="M21.001 20.2471C21.001 20.6613 20.6652 20.9971 20.251 20.9971H14.251C13.8368 20.9971 13.501 20.6613 13.501 20.2471V19.4971C13.501 19.0829 13.8368 18.7471 14.251 18.7471L20.251 18.7471C20.6652 18.7471 21.001 19.0829 21.001 19.4971V20.2471Z" fill="black"/>
<path d="M21.001 15C21.001 15.4142 20.6652 15.75 20.251 15.75L14.251 15.75C13.8368 15.75 13.501 15.4142 13.501 15V14.25C13.501 13.8358 13.8368 13.5 14.251 13.5L20.251 13.5C20.6652 13.5 21.001 13.8358 21.001 14.25V15Z" fill="black"/>
<path d="M10.5026 14.9954C10.5026 15.4096 10.1668 15.7454 9.75259 15.7454L3.75259 15.7454C3.33838 15.7454 3.00259 15.4096 3.00259 14.9954L3.00259 14.2454C3.00259 13.8311 3.33838 13.4954 3.75259 13.4954L9.75259 13.4954C10.1668 13.4954 10.5026 13.8311 10.5026 14.2454V14.9954Z" fill="black"/>
<path d="M10.5026 20.2517C10.5026 20.6659 10.1668 21.0017 9.75259 21.0017H3.75259C3.33838 21.0017 3.00259 20.6659 3.00259 20.2517L3.00259 19.5017C3.00259 19.0875 3.33838 18.7517 3.75259 18.7517L9.75259 18.7517C10.1668 18.7517 10.5026 19.0875 10.5026 19.5017V20.2517Z" fill="black"/>
<path d="M19.4994 2.99854C20.3278 2.99854 20.9994 3.67011 20.9994 4.49854V8.99854C20.9994 9.82696 20.3278 10.4985 19.4994 10.4985L4.49942 10.4985C3.67099 10.4985 2.99942 9.82696 2.99942 8.99854L2.99942 4.49854C2.99942 3.67011 3.67099 2.99854 4.49942 2.99854L19.4994 2.99854Z" stroke="black" stroke-width="1.5"/>
<path d="M21.001 20.2471C21.001 20.6613 20.6652 20.9971 20.251 20.9971H14.251C13.8368 20.9971 13.501 20.6613 13.501 20.2471V19.4971C13.501 19.0829 13.8368 18.7471 14.251 18.7471L20.251 18.7471C20.6652 18.7471 21.001 19.0829 21.001 19.4971V20.2471Z" stroke="black" stroke-width="1.5"/>
<path d="M21.001 15C21.001 15.4142 20.6652 15.75 20.251 15.75L14.251 15.75C13.8368 15.75 13.501 15.4142 13.501 15V14.25C13.501 13.8358 13.8368 13.5 14.251 13.5L20.251 13.5C20.6652 13.5 21.001 13.8358 21.001 14.25V15Z" stroke="black" stroke-width="1.5"/>
<path d="M10.5026 14.9954C10.5026 15.4096 10.1668 15.7454 9.75259 15.7454L3.75259 15.7454C3.33838 15.7454 3.00259 15.4096 3.00259 14.9954L3.00259 14.2454C3.00259 13.8311 3.33838 13.4954 3.75259 13.4954L9.75259 13.4954C10.1668 13.4954 10.5026 13.8311 10.5026 14.2454V14.9954Z" stroke="black" stroke-width="1.5"/>
<path d="M10.5026 20.2517C10.5026 20.6659 10.1668 21.0017 9.75259 21.0017H3.75259C3.33838 21.0017 3.00259 20.6659 3.00259 20.2517L3.00259 19.5017C3.00259 19.0875 3.33838 18.7517 3.75259 18.7517L9.75259 18.7517C10.1668 18.7517 10.5026 19.0875 10.5026 19.5017V20.2517Z" stroke="black" stroke-width="1.5"/>
</svg>
