<svg viewBox="0 0 24 24" fill="none" xmlns="http://www.w3.org/2000/svg" width="24" height="24">
<path fill-rule="evenodd" clip-rule="evenodd" d="M21.9 3.6C22.397 3.6 22.8 4.003 22.8 4.5V19.5C22.8 19.997 22.397 20.4 21.9 20.4H2.1C1.603 20.4 1.2 19.997 1.2 19.5V4.5C1.2 4.003 1.603 3.6 2.1 3.6H21.9ZM5.07 12.84C4.722 12.84 4.44 13.122 4.44 13.47V17.25C4.44 17.598 4.722 17.88 5.07 17.88H8.85C9.198 17.88 9.48 17.598 9.48 17.25V13.47C9.48 13.122 9.198 12.84 8.85 12.84H5.07ZM11.79 12.84C11.442 12.84 11.16 13.122 11.16 13.47V17.25C11.16 17.598 11.442 17.88 11.79 17.88H18.93C19.278 17.88 19.56 17.598 19.56 17.25V13.47C19.56 13.122 19.278 12.84 18.93 12.84H11.79ZM5.07 6.121C4.722 6.121 4.44 6.402 4.44 6.75V10.53C4.44 10.878 4.722 11.16 5.07 11.16H18.93C19.278 11.16 19.56 10.878 19.56 10.53V6.75C19.56 6.402 19.278 6.121 18.93 6.121H5.07Z" fill="black"/>
</svg>