<svg viewBox="0 0 24 24" fill="none" xmlns="http://www.w3.org/2000/svg" width="24" height="24">
<path fill-rule="evenodd" clip-rule="evenodd" d="M21.9 3.6C22.397 3.6 22.8 4.003 22.8 4.5V19.5C22.8 19.997 22.397 20.4 21.9 20.4H2.1C1.603 20.4 1.2 19.997 1.2 19.5V4.5C1.2 4.003 1.603 3.6 2.1 3.6H21.9ZM4.321 15.183C3.542 15.183 2.911 15.814 2.911 16.593 2.911 17.371 3.542 18.002 4.321 18.002H19.68C20.459 18.002 21.09 17.371 21.09 16.593 21.09 15.814 20.459 15.183 19.68 15.183H4.321ZM4.32 10.59C3.541 10.59 2.91 11.221 2.91 12 2.91 12.779 3.541 13.41 4.32 13.41H19.679C20.458 13.41 21.089 12.779 21.089 12 21.089 11.221 20.458 10.59 19.679 10.59H4.32ZM4.321 6.03C3.542 6.03 2.911 6.662 2.911 7.44 2.911 8.219 3.542 8.85 4.321 8.85H19.68C20.459 8.85 21.09 8.219 21.09 7.44 21.09 6.662 20.459 6.031 19.68 6.03H4.321Z" fill="black"/>
</svg>