<svg width="24" height="24" viewBox="0 0 24 24" fill="none" xmlns="http://www.w3.org/2000/svg">
<path d="M12.8311 12.5225H11.1689L12 10.709L12.8311 12.5225Z" fill="black"/>
<path fill-rule="evenodd" clip-rule="evenodd" d="M19.5 3C19.8978 3 20.2792 3.15815 20.5605 3.43945C20.8419 3.72076 21 4.10218 21 4.5V19.5C21 19.8978 20.8419 20.2792 20.5605 20.5605C20.2792 20.8419 19.8978 21 19.5 21H4.5C4.10218 21 3.72076 20.8419 3.43945 20.5605C3.15815 20.2792 3 19.8978 3 19.5V4.5C3 4.10218 3.15815 3.72076 3.43945 3.43945C3.72076 3.15815 4.10217 3 4.5 3H19.5ZM6 7C5.58579 7 5.25 7.33579 5.25 7.75V16.25C5.25003 16.6642 5.5858 17 6 17C6.4142 17 6.74997 16.6642 6.75 16.25V7.75C6.75 7.33579 6.41421 7 6 7ZM18 7C17.5858 7 17.25 7.33581 17.25 7.75V16.25C17.25 16.6642 17.5858 17 18 17C18.4142 17 18.75 16.6642 18.75 16.25V7.75C18.75 7.33581 18.4142 7 18 7ZM12 8.15918C11.7434 8.15919 11.507 8.28966 11.3701 8.50098L11.3184 8.59668L9.3125 12.9717C9.31063 12.9759 9.30843 12.9801 9.30664 12.9844L8.48535 14.7783C8.31277 15.1549 8.47795 15.5999 8.85449 15.7725C9.23101 15.9449 9.67607 15.7798 9.84863 15.4033L10.4814 14.0225H13.5186L14.1514 15.4033C14.3239 15.7798 14.769 15.9449 15.1455 15.7725C15.522 15.5999 15.6881 15.1549 15.5156 14.7783L12.6816 8.59668C12.5595 8.33009 12.2933 8.15918 12 8.15918Z" fill="black"/>
</svg>
