<svg width="24" height="24" viewBox="0 0 24 24" fill="none" xmlns="http://www.w3.org/2000/svg">
<path d="M22.4989 18.0019C22.4989 18.2009 22.4199 18.3916 22.2792 18.5323C22.1386 18.6729 21.9478 18.7519 21.7489 18.7519H8.24902C8.05011 18.7519 7.85935 18.6729 7.7187 18.5323C7.57805 18.3916 7.49903 18.2009 7.49903 18.0019V9.75201H3.74906C3.60064 9.75213 3.45552 9.7082 3.33208 9.6258C3.20863 9.5434 3.11241 9.42622 3.0556 9.28911C2.99878 9.15199 2.98393 9.0011 3.01292 8.85554C3.04191 8.70997 3.11343 8.57628 3.21844 8.47139L7.7184 3.97143C7.78806 3.9017 7.87077 3.84638 7.96182 3.80863C8.05287 3.77089 8.15046 3.75146 8.24902 3.75146C8.34759 3.75146 8.44518 3.77089 8.53623 3.80863C8.62728 3.84638 8.70999 3.9017 8.77965 3.97143L13.2796 8.47139C13.3846 8.57628 13.4561 8.70997 13.4851 8.85554C13.5141 9.0011 13.4993 9.15199 13.4425 9.28911C13.3856 9.42622 13.2894 9.5434 13.166 9.6258C13.0425 9.7082 12.8974 9.75213 12.749 9.75201H8.99902V17.252H21.7489C21.9478 17.252 22.1386 17.331 22.2792 17.4716C22.4199 17.6123 22.4989 17.803 22.4989 18.0019Z" fill="black"/>
</svg>
