<svg viewBox="0 0 24 24" fill="none" xmlns="http://www.w3.org/2000/svg" width="24" height="24">
<path d="M12.81 8.76L7.95 3.9 3.09 8.76" fill="black"/>
<path d="M7.504 3.224C7.819 3.016 8.246 3.05 8.523 3.327L13.382 8.187C13.614 8.418 13.683 8.768 13.558 9.07 13.433 9.373 13.137 9.57 12.809 9.57H3.09C2.762 9.57 2.466 9.373 2.341 9.07 2.216 8.768 2.285 8.418 2.517 8.187L7.376 3.327 7.504 3.224ZM5.046 7.95H10.855L7.95 5.045 5.046 7.95Z" fill="black"/>
<path d="M7.14 3.9C7.14 3.453 7.502 3.09 7.95 3.09 8.397 3.09 8.76 3.453 8.76 3.9V17.67H22.53C22.977 17.67 23.34 18.033 23.34 18.481 23.34 18.928 22.977 19.29 22.53 19.29H7.95C7.503 19.29 7.14 18.928 7.14 18.481V3.9Z" fill="black"/>
<path d="M3.096 3.906C2.649 3.906 2.285 3.543 2.285 3.096 2.285 2.649 2.649 2.286 3.096 2.286L20.916 2.286C21.363 2.286 21.726 2.649 21.726 3.096 21.726 3.543 21.363 3.906 20.916 3.906L3.096 3.906Z" fill="black"/>
</svg>