<svg width="24" height="24" viewBox="0 0 24 24" fill="none" xmlns="http://www.w3.org/2000/svg">
<g clip-path="url(#clip0_2021_25675)">
<path d="M20.0473 11.7604L9.54736 23.0103C9.43609 23.1291 9.28922 23.2084 9.1289 23.2364C8.96859 23.2643 8.80353 23.2394 8.65864 23.1653C8.51375 23.0912 8.39689 22.972 8.32569 22.8257C8.25449 22.6793 8.23281 22.5138 8.26393 22.3541L9.6383 15.4794L4.23553 13.4507C4.11949 13.4073 4.01602 13.3358 3.93435 13.2427C3.85268 13.1495 3.79535 13.0376 3.7675 12.9169C3.73964 12.7962 3.74212 12.6704 3.77471 12.5509C3.80731 12.4314 3.869 12.3218 3.95428 12.232L14.4542 0.982052C14.5655 0.863305 14.7123 0.78397 14.8727 0.75602C15.033 0.728069 15.198 0.753019 15.3429 0.827104C15.4878 0.90119 15.6047 1.02039 15.6759 1.16672C15.7471 1.31305 15.7687 1.47857 15.7376 1.6383L14.3595 8.52043L19.7623 10.5464C19.8775 10.59 19.9801 10.6614 20.0611 10.7542C20.1422 10.847 20.1991 10.9583 20.2269 11.0783C20.2547 11.1983 20.2525 11.3233 20.2205 11.4423C20.1886 11.5613 20.1278 11.6705 20.0435 11.7604H20.0473Z" fill="black"/>
</g>
<defs>
<clipPath id="clip0_2021_25675">
<rect width="23.9998" height="23.9998" fill="white"/>
</clipPath>
</defs>
</svg>
