<svg width="24" height="24" viewBox="0 0 24 24" fill="none" xmlns="http://www.w3.org/2000/svg">
<path d="M16.4988 21.753C16.4988 21.9519 16.4198 22.1426 16.2791 22.2833C16.1385 22.4239 15.9477 22.503 15.7488 22.503H8.24887C8.04996 22.503 7.85919 22.4239 7.71854 22.2833C7.57789 22.1426 7.49887 21.9519 7.49887 21.753C7.49887 21.5541 7.57789 21.3633 7.71854 21.2226C7.85919 21.082 8.04996 21.003 8.24887 21.003H15.7488C15.9477 21.003 16.1385 21.082 16.2791 21.2226C16.4198 21.3633 16.4988 21.5541 16.4988 21.753ZM20.2488 9.75306C20.252 11.0033 19.9696 12.2378 19.423 13.3623C18.8764 14.4868 18.0802 15.4716 17.0951 16.2415C16.9108 16.3826 16.7614 16.5641 16.658 16.7719C16.5547 16.9797 16.5002 17.2084 16.4988 17.4405V18.003C16.4988 18.4008 16.3408 18.7823 16.0595 19.0637C15.7782 19.345 15.3966 19.503 14.9988 19.503H8.99886C8.60104 19.503 8.21951 19.345 7.93821 19.0637C7.65691 18.7823 7.49887 18.4008 7.49887 18.003V17.4405C7.49872 17.2112 7.44599 16.985 7.34474 16.7792C7.24349 16.5735 7.09641 16.3937 6.91481 16.2536C5.93214 15.4883 5.13643 14.5095 4.58794 13.3912C4.03944 12.2729 3.75252 11.0445 3.7489 9.799C3.72453 5.33091 7.33575 1.61 11.8001 1.50313C12.9001 1.47662 13.9943 1.67043 15.0183 2.07314C16.0423 2.47585 16.9753 3.07934 17.7626 3.84807C18.5498 4.6168 19.1754 5.53525 19.6023 6.54936C20.0293 7.56347 20.2491 8.65274 20.2488 9.75306ZM17.2385 8.87745C17.044 7.79117 16.5214 6.79055 15.741 6.01031C14.9606 5.23007 13.9598 4.70766 12.8735 4.51342C12.7764 4.49704 12.677 4.49996 12.581 4.52201C12.485 4.54405 12.3942 4.58479 12.314 4.6419C12.2337 4.69901 12.1655 4.77136 12.1132 4.85484C12.0609 4.93832 12.0255 5.03128 12.0092 5.12841C11.9928 5.22555 11.9957 5.32496 12.0177 5.42097C12.0398 5.51697 12.0805 5.6077 12.1376 5.68797C12.1947 5.76823 12.2671 5.83646 12.3506 5.88876C12.434 5.94106 12.527 5.97641 12.6241 5.99278C14.1776 6.25434 15.4957 7.57245 15.7591 9.12869C15.7888 9.30337 15.8794 9.4619 16.0148 9.57618C16.1501 9.69047 16.3216 9.75313 16.4988 9.75306C16.5412 9.75281 16.5835 9.74936 16.6254 9.74275C16.8214 9.70928 16.9961 9.59932 17.1111 9.43705C17.2261 9.27479 17.2719 9.07349 17.2385 8.87745Z" fill="black"/>
</svg>
