<svg xmlns="http://www.w3.org/2000/svg" width="24" height="24" fill="currentColor" viewBox="0 0 24 24"><path d="M16.86 22.53a0.81 0.81 0 0 1-0.81 0.81h-8.1a0.81 0.81 0 0 1 0-1.62h8.1a0.81 0.81 0 0 1 0.81 0.81m4.05-12.96a8.868 8.868 0 0 1-3.406 7.008 1.644 1.644 0 0 0-0.644 1.295v0.607a1.62 1.62 0 0 1-1.62 1.62H8.76a1.62 1.62 0 0 1-1.62-1.62v-0.607a1.62 1.62 0 0 0-0.631-1.282 8.868 8.868 0 0 1-3.419-6.971c-0.026-4.825 3.874-8.844 8.695-8.959a8.91 8.91 0 0 1 9.125 8.91z m-3.251-0.946a5.832 5.832 0 0 0-4.713-4.713 0.81 0.81 0 0 0-0.269 1.597c1.678 0.282 3.101 1.706 3.386 3.386a0.81 0.81 0 0 0 0.799 0.675 1.2 1.2 0 0 0 0.137-0.011 0.81 0.81 0 0 0 0.663-0.935z"/></svg>