<?xml version="1.0" encoding="utf-8"?>
<svg width="512" height="512" viewBox="0 0 512 512" xmlns="http://www.w3.org/2000/svg">
<path   d="M304 448C312.836 448 320 455.165 320 464C320 472.835 312.836 480 304 480H208C199.164 480 192 472.835 192 464C192 455.165 199.164 448 208 448H304ZM256 32C344.365 32 416 103.635 416 192C416 240.153 394.69 283.293 361.031 312.625L338.75 392.688L338.719 392.781C334.794 406.515 322.222 415.997 307.938 416H204.062C189.783 415.994 177.237 406.512 173.313 392.781L173.281 392.688L151 312.687C117.313 283.355 96 240.176 96 192C96 103.635 167.635 32 256 32ZM320.625 338.344C300.855 347.087 279.007 352 256 352C232.983 352 211.12 347.094 191.344 338.344L204.062 384H307.938L320.625 338.344ZM256 64C185.308 64 128 121.308 128 192C128 262.692 185.308 320 256 320C326.692 320 384 262.692 384 192C384 121.308 326.692 64 256 64Z" />
</svg>
