<svg width="24" height="24" viewBox="0 0 24 24" fill="none" xmlns="http://www.w3.org/2000/svg">
<path d="M19.4989 3.00024H4.49898C4.10116 3.00024 3.71963 3.15828 3.43833 3.43958C3.15703 3.72088 2.99899 4.10241 2.99899 4.50023V19.5001C2.99899 19.8979 3.15703 20.2795 3.43833 20.5608C3.71963 20.8421 4.10116 21.0001 4.49898 21.0001H19.4989C19.8967 21.0001 20.2782 20.8421 20.5595 20.5608C20.8408 20.2795 20.9989 19.8979 20.9989 19.5001V4.50023C20.9989 4.10241 20.8408 3.72088 20.5595 3.43958C20.2782 3.15828 19.8967 3.00024 19.4989 3.00024ZM12.7489 18.0001C12.7489 18.199 12.6699 18.3898 12.5293 18.5305C12.3886 18.6711 12.1978 18.7501 11.9989 18.7501C11.8 18.7501 11.6092 18.6711 11.4686 18.5305C11.3279 18.3898 11.2489 18.199 11.2489 18.0001V6.00022C11.2489 5.80131 11.3279 5.61055 11.4686 5.4699C11.6092 5.32924 11.8 5.25023 11.9989 5.25023C12.1978 5.25023 12.3886 5.32924 12.5293 5.4699C12.6699 5.61055 12.7489 5.80131 12.7489 6.00022V18.0001Z" fill="black"/>
</svg>
