<svg viewBox="0 0 24 24" fill="none" xmlns="http://www.w3.org/2000/svg" width="24" height="24">
<path d="M20.1 2.28C20.53 2.28 20.942 2.45 21.246 2.754 21.55 3.058 21.72 3.47 21.72 3.9V20.1C21.72 20.529 21.549 20.941 21.246 21.245 20.942 21.549 20.53 21.72 20.1 21.72H3.9C3.47 21.72 3.058 21.549 2.754 21.245 2.45 20.941 2.28 20.529 2.28 20.1V3.9C2.28 3.47 2.45 3.058 2.754 2.754 3.058 2.45 3.47 2.28 3.9 2.28H20.1ZM5.521 17.671C5.073 17.671 4.711 18.033 4.711 18.48 4.711 18.927 5.073 19.29 5.52 19.29H18.48C18.927 19.29 19.29 18.927 19.29 18.48 19.29 18.033 18.928 17.671 18.48 17.671H5.521ZM12.009 7.635C11.808 7.635 11.62 7.689 11.449 7.795L11.441 7.8C11.261 7.92 11.136 8.107 11.047 8.318L7.986 15.182 7.984 15.189C7.91 15.365 7.87 15.551 7.895 15.735L7.928 15.875C7.973 16.01 8.057 16.125 8.175 16.214L8.3 16.29C8.431 16.353 8.577 16.378 8.723 16.378 8.926 16.378 9.124 16.327 9.285 16.193L9.295 16.182C9.433 16.056 9.538 15.878 9.621 15.677L9.62 15.676 10.184 14.357H13.805L14.377 15.682 14.446 15.826C14.52 15.965 14.61 16.086 14.721 16.18L14.855 16.272C14.995 16.347 15.155 16.378 15.318 16.378 15.504 16.378 15.696 16.341 15.852 16.228L15.866 16.216C16.014 16.095 16.099 15.931 16.124 15.745L16.125 15.743C16.149 15.55 16.104 15.361 16.021 15.182L12.96 8.317C12.87 8.104 12.742 7.919 12.555 7.8 12.391 7.691 12.207 7.635 12.009 7.635ZM13.139 12.784H10.866L11.999 10.097 13.139 12.784ZM5.521 4.711C5.074 4.711 4.711 5.072 4.711 5.52 4.711 5.967 5.073 6.33 5.521 6.33H18.48C18.927 6.33 19.29 5.968 19.29 5.521 19.29 5.074 18.928 4.711 18.48 4.711H5.521Z" fill="black"/>
</svg>