<svg viewBox="0 0 24 24" fill="none" xmlns="http://www.w3.org/2000/svg" width="24" height="24">
<path fill-rule="evenodd" clip-rule="evenodd" d="M21.9 2.4C22.397 2.4 22.8 2.803 22.8 3.3V20.7C22.8 21.197 22.397 21.6 21.9 21.6H2.1C1.603 21.6 1.2 21.197 1.2 20.7V3.3C1.2 2.803 1.603 2.4 2.1 2.4H21.9ZM18.523 15.248C18.125 15.248 17.803 15.572 17.803 15.969V17.197H16.574C16.176 17.197 15.853 17.52 15.853 17.918 15.853 18.315 16.176 18.637 16.574 18.637H17.803V19.856C17.803 20.254 18.125 20.577 18.523 20.577 18.92 20.577 19.242 20.254 19.242 19.856V18.637H20.461C20.859 18.637 21.182 18.315 21.182 17.918 21.182 17.52 20.859 17.197 20.461 17.197H19.242V15.969C19.242 15.572 18.92 15.248 18.523 15.248ZM10.172 8.121C9.581 8.121 8.996 8.237 8.45 8.463 7.905 8.689 7.409 9.021 6.991 9.438L4.179 12.251C3.337 13.093 2.863 14.235 2.862 15.427L2.868 15.649C2.922 16.759 3.385 17.814 4.173 18.605L4.334 18.758C4.715 19.105 5.156 19.385 5.633 19.583 6.179 19.81 6.764 19.926 7.355 19.927 7.946 19.927 8.532 19.812 9.079 19.586 9.624 19.359 10.121 19.027 10.539 18.609L11.429 17.719C11.71 17.438 11.71 16.982 11.429 16.7 11.148 16.42 10.692 16.419 10.411 16.7L9.52 17.591C9.236 17.875 8.898 18.102 8.527 18.255 8.156 18.409 7.757 18.487 7.356 18.486 6.954 18.486 6.556 18.407 6.185 18.253 5.861 18.118 5.561 17.929 5.302 17.693L5.194 17.589C4.622 17.015 4.301 16.238 4.302 15.428 4.303 14.618 4.625 13.842 5.197 13.269L8.01 10.457C8.293 10.173 8.63 9.947 9.001 9.793 9.372 9.64 9.771 9.561 10.172 9.561 10.573 9.561 10.97 9.64 11.34 9.793 11.618 9.909 11.878 10.064 12.11 10.254L12.333 10.457C12.627 10.75 12.86 11.102 13.014 11.488 13.167 11.874 13.24 12.287 13.228 12.702 13.216 13.099 13.529 13.432 13.927 13.444 14.324 13.455 14.656 13.142 14.667 12.744 14.685 12.132 14.578 11.523 14.352 10.955 14.154 10.457 13.867 9.999 13.508 9.603L13.35 9.437C12.933 9.02 12.437 8.689 11.892 8.463 11.347 8.237 10.762 8.121 10.172 8.121ZM16.65 4.234C16.06 4.234 15.475 4.352 14.93 4.577 14.384 4.803 13.888 5.135 13.471 5.552L12.579 6.444C12.298 6.725 12.298 7.18 12.579 7.461 12.86 7.742 13.316 7.742 13.597 7.461L14.489 6.571C14.773 6.287 15.11 6.061 15.48 5.907 15.851 5.754 16.249 5.675 16.65 5.675 17.051 5.676 17.449 5.754 17.82 5.907 18.19 6.061 18.527 6.287 18.811 6.571 19.095 6.854 19.321 7.191 19.474 7.562 19.628 7.933 19.706 8.331 19.706 8.732 19.706 9.133 19.628 9.532 19.474 9.902 19.34 10.226 19.15 10.525 18.915 10.785L18.811 10.893 15.998 13.705C15.714 13.989 15.377 14.216 15.006 14.37 14.635 14.523 14.237 14.601 13.835 14.6 13.434 14.6 13.035 14.521 12.664 14.367 12.294 14.213 11.955 13.987 11.672 13.703L11.564 13.589C11.322 13.32 11.129 13.01 10.995 12.673 10.841 12.287 10.768 11.874 10.78 11.46 10.792 11.063 10.479 10.731 10.082 10.719 9.684 10.708 9.353 11.02 9.341 11.418 9.323 12.028 9.431 12.636 9.656 13.203 9.882 13.771 10.221 14.286 10.652 14.718 11.07 15.136 11.566 15.471 12.111 15.697 12.657 15.924 13.242 16.04 13.833 16.041 14.424 16.041 15.011 15.926 15.557 15.7 16.103 15.474 16.599 15.141 17.017 14.723L17.855 13.887 19.828 11.911 19.829 11.912C20.247 11.495 20.578 10.997 20.804 10.452 21.03 9.907 21.146 9.322 21.147 8.732 21.146 8.142 21.03 7.557 20.804 7.011 20.607 6.534 20.329 6.095 19.983 5.713L19.829 5.552C19.412 5.135 18.916 4.803 18.37 4.577 17.825 4.352 17.24 4.234 16.65 4.234Z" fill="black"/>
</svg>