<svg width="24" height="24" viewBox="0 0 24 24" fill="none" xmlns="http://www.w3.org/2000/svg">
<path d="M19.4989 3.0022H4.49901C4.10119 3.0022 3.71966 3.16023 3.43836 3.44153C3.15706 3.72284 2.99902 4.10436 2.99902 4.50219V19.5021C2.99902 19.8999 3.15706 20.2814 3.43836 20.5627C3.71966 20.844 4.10119 21.0021 4.49901 21.0021H19.4989C19.8967 21.0021 20.2782 20.844 20.5595 20.5627C20.8409 20.2814 20.9989 19.8999 20.9989 19.5021V4.50219C20.9989 4.10436 20.8409 3.72284 20.5595 3.44153C20.2782 3.16023 19.8967 3.0022 19.4989 3.0022ZM13.5514 16.2827L11.5405 18.2936C10.7636 19.0504 9.71981 19.4707 8.63523 19.4636C7.55065 19.4564 6.51253 19.0224 5.7456 18.2555C4.97867 17.4886 4.54466 16.4504 4.53752 15.3659C4.53037 14.2813 4.95068 13.2375 5.70744 12.4606L7.71836 10.4487C7.78798 10.379 7.87065 10.3237 7.96163 10.286C8.05262 10.2483 8.15015 10.2288 8.24865 10.2288C8.34715 10.2287 8.4447 10.2481 8.53572 10.2857C8.62674 10.3234 8.70945 10.3786 8.77914 10.4482C8.84882 10.5179 8.9041 10.6005 8.94184 10.6915C8.97958 10.7825 8.99902 10.88 8.99906 10.9785C8.99911 11.077 8.97975 11.1746 8.94209 11.2656C8.90444 11.3566 8.84923 11.4393 8.7796 11.509L6.76774 13.5209C6.27544 14.0132 5.99887 14.6809 5.99887 15.3771C5.99887 16.0733 6.27544 16.741 6.76774 17.2333C7.26005 17.7256 7.92776 18.0022 8.62398 18.0022C9.3202 18.0022 9.98791 17.7256 10.4802 17.2333L12.4911 15.2215C12.6319 15.0809 12.8227 15.0019 13.0216 15.002C13.2206 15.0021 13.4113 15.0812 13.5519 15.2219C13.6925 15.3627 13.7715 15.5535 13.7714 15.7524C13.7713 15.9514 13.6922 16.1421 13.5514 16.2827ZM10.2796 14.7827C10.2099 14.8524 10.1272 14.9077 10.0361 14.9454C9.9451 14.9831 9.84752 15.0025 9.74897 15.0025C9.65043 15.0025 9.55285 14.9831 9.4618 14.9454C9.37076 14.9077 9.28803 14.8524 9.21835 14.7827C9.14867 14.7131 9.09339 14.6303 9.05568 14.5393C9.01797 14.4482 8.99856 14.3507 8.99856 14.2521C8.99856 14.1536 9.01797 14.056 9.05568 13.9649C9.09339 13.8739 9.14867 13.7912 9.21835 13.7215L13.7183 9.22152C13.788 9.15184 13.8707 9.09657 13.9618 9.05886C14.0528 9.02114 14.1504 9.00173 14.2489 9.00173C14.3475 9.00173 14.4451 9.02114 14.5361 9.05886C14.6272 9.09657 14.7099 9.15184 14.7796 9.22152C14.8492 9.29121 14.9045 9.37393 14.9422 9.46498C14.9799 9.55602 14.9993 9.6536 14.9993 9.75215C14.9993 9.85069 14.9799 9.94827 14.9422 10.0393C14.9045 10.1304 14.8492 10.2131 14.7796 10.2828L10.2796 14.7827ZM18.2905 11.5437L16.2795 13.5546C16.1389 13.6953 15.9482 13.7745 15.7493 13.7745C15.5503 13.7746 15.3595 13.6957 15.2188 13.5551C15.078 13.4145 14.9989 13.2237 14.9988 13.0248C14.9988 12.8259 15.0777 12.635 15.2183 12.4943L17.2302 10.4834C17.7225 9.99109 17.999 9.32338 17.999 8.62715C17.999 7.93093 17.7225 7.26322 17.2302 6.77092C16.7379 6.27861 16.0702 6.00204 15.3739 6.00204C14.6777 6.00204 14.01 6.27861 13.5177 6.77092L11.5058 8.78278C11.3651 8.92338 11.1743 9.00233 10.9753 9.00224C10.7764 9.00215 10.5857 8.92304 10.4451 8.78231C10.3045 8.64158 10.2255 8.45076 10.2256 8.25183C10.2257 8.05289 10.3048 7.86214 10.4455 7.72154L12.4574 5.71061C13.2344 4.95385 14.2781 4.53355 15.3627 4.54069C16.4473 4.54783 17.4854 4.98185 18.2523 5.74878C19.0192 6.5157 19.4533 7.55383 19.4604 8.63841C19.4675 9.72298 19.0472 10.7667 18.2905 11.5437Z" fill="black"/>
</svg>
