<svg xmlns="http://www.w3.org/2000/svg" width="24" height="24" fill="currentColor" viewBox="0 0 24 24"><path d="M20.1 2.28H3.9A1.62 1.62 0 0 0 2.28 3.9v16.2a1.62 1.62 0 0 0 1.62 1.62h16.2a1.62 1.62 0 0 0 1.62-1.62V3.9a1.62 1.62 0 0 0-1.62-1.62m-9.346 16.249a4.385 4.385 0 0 1-5.569-6.726l2.569-2.569a4.392 4.392 0 0 1 6.202 0 4.32 4.32 0 0 1 1.008 1.562 0.811 0.811 0 1 1-1.519 0.568 2.767 2.767 0 0 0-4.546-0.984l-2.569 2.569a2.766 2.766 0 0 0 3.511 4.243 0.81 0.81 0 1 1 0.911 1.338z m8.061-6.333l-2.569 2.569a4.356 4.356 0 0 1-3.101 1.285 4.392 4.392 0 0 1-4.104-2.848 0.811 0.811 0 1 1 1.519-0.567 2.772 2.772 0 0 0 2.581 1.794 2.76 2.76 0 0 0 1.956-0.81l2.572-2.569a2.766 2.766 0 0 0-3.511-4.244 0.81 0.81 0 1 1-0.911-1.338 4.386 4.386 0 0 1 5.569 6.726z"/></svg>