<svg width="24" height="24" viewBox="0 0 24 24" fill="none" xmlns="http://www.w3.org/2000/svg">
<path d="M19.4989 3.00244H4.49901C4.10119 3.00244 3.71966 3.16048 3.43836 3.44178C3.15706 3.72308 2.99902 4.10461 2.99902 4.50243V19.5023C2.99902 19.9001 3.15706 20.2817 3.43836 20.563C3.71966 20.8443 4.10119 21.0023 4.49901 21.0023H19.4989C19.8967 21.0023 20.2782 20.8443 20.5595 20.563C20.8409 20.2817 20.9989 19.9001 20.9989 19.5023V4.50243C20.9989 4.10461 20.8409 3.72308 20.5595 3.44178C20.2782 3.16048 19.8967 3.00244 19.4989 3.00244ZM10.8458 18.0483C10.0101 18.6179 8.99189 18.8551 7.99047 18.7135C6.98904 18.5719 6.07652 18.0616 5.43153 17.2826C4.78654 16.5036 4.45551 15.5118 4.50325 14.5016C4.55099 13.4913 4.97405 12.5352 5.68963 11.8205L8.06805 9.44208C8.82999 8.68154 9.86256 8.25438 10.9391 8.25438C12.0157 8.25438 13.0483 8.68154 13.8102 9.44208C14.2219 9.8513 14.5401 10.3448 14.743 10.8886C14.7775 10.981 14.7934 11.0792 14.7899 11.1777C14.7864 11.2762 14.7636 11.373 14.7227 11.4627C14.6818 11.5524 14.6236 11.6331 14.5515 11.7003C14.4794 11.7675 14.3947 11.8198 14.3024 11.8542C14.21 11.8887 14.1118 11.9047 14.0133 11.9012C13.9148 11.8977 13.818 11.8748 13.7283 11.8339C13.6386 11.793 13.5579 11.7348 13.4907 11.6627C13.4235 11.5906 13.3712 11.506 13.3368 11.4136C13.186 11.0125 12.9371 10.6557 12.6128 10.3756C12.2886 10.0956 11.8992 9.9014 11.4804 9.81075C11.0617 9.72009 10.6269 9.7359 10.2158 9.85673C9.80473 9.97756 9.43052 10.1995 9.12741 10.5024L6.74899 12.8808C6.29815 13.3317 6.03168 13.9345 6.00169 14.5714C5.9717 15.2083 6.18035 15.8334 6.58684 16.3247C6.99332 16.8159 7.56842 17.1379 8.19967 17.2276C8.83093 17.3173 9.47296 17.1683 10.0002 16.8098C10.0813 16.7492 10.1739 16.7056 10.2723 16.6817C10.3707 16.6578 10.4729 16.654 10.5728 16.6707C10.6727 16.6874 10.7682 16.7241 10.8535 16.7786C10.9388 16.8332 11.0122 16.9045 11.0692 16.9882C11.1262 17.0719 11.1657 17.1662 11.1852 17.2656C11.2048 17.365 11.204 17.4673 11.183 17.5663C11.1619 17.6654 11.1211 17.7592 11.0628 17.842C11.0045 17.9248 10.9301 17.995 10.844 18.0483H10.8458ZM18.3092 12.1842L15.9308 14.5627C15.5548 14.941 15.1075 15.241 14.6147 15.4452C14.122 15.6494 13.5936 15.7538 13.0602 15.7523C12.234 15.7513 11.4277 15.4984 10.7488 15.0274C10.07 14.5564 9.55082 13.8897 9.26054 13.1161C9.19092 12.9296 9.19823 12.7231 9.28086 12.542C9.3635 12.361 9.51468 12.2201 9.70116 12.1505C9.88764 12.0809 10.0941 12.0882 10.2752 12.1708C10.4563 12.2535 10.5972 12.4046 10.6668 12.5911C10.8498 13.0776 11.1763 13.497 11.6031 13.7936C12.0298 14.0903 12.5367 14.2503 13.0564 14.2524C13.3929 14.2533 13.7263 14.1875 14.0372 14.0588C14.3481 13.9301 14.6304 13.7409 14.8677 13.5024L17.2489 11.1239C17.6998 10.6731 17.9662 10.0703 17.9962 9.43337C18.0262 8.79648 17.8176 8.1713 17.4111 7.68007C17.0046 7.18884 16.4295 6.86689 15.7982 6.77716C15.167 6.68744 14.525 6.8364 13.9977 7.19491C13.9166 7.25556 13.824 7.29915 13.7256 7.32307C13.6272 7.34698 13.525 7.35072 13.4251 7.33405C13.3252 7.31738 13.2297 7.28066 13.1444 7.2261C13.0591 7.17153 12.9857 7.10025 12.9287 7.01656C12.8717 6.93287 12.8322 6.8385 12.8127 6.73913C12.7931 6.63977 12.7939 6.53748 12.8149 6.43842C12.836 6.33936 12.8769 6.24559 12.9351 6.16276C12.9934 6.07993 13.0678 6.00976 13.1539 5.95648C13.9898 5.38971 15.0069 5.15471 16.0067 5.29734C17.0065 5.43997 17.9173 5.95 18.5613 6.7279C19.2054 7.5058 19.5365 8.49576 19.49 9.5046C19.4436 10.5135 19.023 11.4688 18.3102 12.1842H18.3092Z" fill="black"/>
</svg>
