<svg xmlns="http://www.w3.org/2000/svg" width="24" height="24" fill="currentColor" viewBox="0 0 24 24"><path d="M20.91 1.47H3.09a1.62 1.62 0 0 0-1.62 1.62v17.82a1.62 1.62 0 0 0 1.62 1.62h17.82a1.62 1.62 0 0 0 1.62-1.62V3.09a1.62 1.62 0 0 0-1.62-1.62M8.76 16.86a0.81 0.81 0 0 1-1.62 0v-6.48a0.81 0.81 0 0 1 1.62 0zM7.95 8.76a1.216 1.216 0 1 1 1.214-1.216A1.216 1.216 0 0 1 7.95 8.76m9.72 8.1a0.81 0.81 0 0 1-1.62 0v-3.646a2.026 2.026 0 0 0-4.05 0v3.645a0.81 0.81 0 0 1-1.62 0v-6.48a0.81 0.81 0 0 1 1.598-0.18 3.646 3.646 0 0 1 5.692 3.015z"/></svg>