<svg width="24" height="24" viewBox="0 0 24 24" fill="none" xmlns="http://www.w3.org/2000/svg">
<path fill-rule="evenodd" clip-rule="evenodd" d="M19.3501 3.8999C19.7642 3.90001 20.1001 4.23575 20.1001 4.6499V19.3501C20.1 19.7642 19.7642 20.1 19.3501 20.1001H4.6499C4.23575 20.1001 3.90001 19.7642 3.8999 19.3501V4.6499C3.8999 4.23569 4.23569 3.8999 4.6499 3.8999H19.3501ZM5.36084 16.646C5.25724 16.646 5.17636 16.6771 5.11963 16.7388C5.06301 16.8004 5.03467 16.8896 5.03467 17.0054V18.1743C5.03467 18.2902 5.06298 18.3793 5.11963 18.4409C5.17636 18.5026 5.25724 18.5337 5.36084 18.5337C5.46922 18.5336 5.55221 18.5025 5.60889 18.4409C5.66552 18.3793 5.69385 18.2901 5.69385 18.1743V17.0054C5.69385 16.8895 5.66411 16.8004 5.60498 16.7388C5.5483 16.6772 5.46675 16.6461 5.36084 16.646ZM6.40088 16.646C6.29742 16.6461 6.21733 16.6772 6.16064 16.7388C6.10391 16.8004 6.07568 16.8894 6.07568 17.0054V18.1743C6.07568 18.2902 6.10391 18.3793 6.16064 18.4409C6.21732 18.5025 6.29745 18.5336 6.40088 18.5337C6.50934 18.5337 6.5922 18.5025 6.64893 18.4409C6.70566 18.3793 6.73389 18.2902 6.73389 18.1743V17.0054C6.73389 16.8894 6.70422 16.8004 6.64502 16.7388C6.58829 16.6772 6.50684 16.646 6.40088 16.646ZM7.44189 16.646C7.33841 16.646 7.25838 16.6772 7.20166 16.7388C7.14493 16.8004 7.11572 16.8894 7.11572 17.0054V18.1743C7.11572 18.2902 7.14493 18.3793 7.20166 18.4409C7.25838 18.5024 7.33844 18.5337 7.44189 18.5337C7.55037 18.5337 7.63323 18.5026 7.68994 18.4409C7.74663 18.3793 7.7749 18.2902 7.7749 18.1743V17.0054C7.7749 16.8894 7.74523 16.8004 7.68604 16.7388C7.62932 16.6771 7.5479 16.646 7.44189 16.646ZM8.46729 17.8042C8.35643 17.8043 8.2682 17.8382 8.20166 17.9048C8.13754 17.9689 8.10498 18.0536 8.10498 18.1597C8.10499 18.2682 8.13754 18.3558 8.20166 18.4224C8.26817 18.4887 8.35658 18.5219 8.46729 18.522C8.58316 18.522 8.67222 18.4889 8.73389 18.4224C8.79801 18.3558 8.83055 18.2682 8.83057 18.1597C8.83057 18.0537 8.7979 17.9689 8.73389 17.9048C8.67222 17.8382 8.58322 17.8042 8.46729 17.8042ZM10.0903 16.4321C9.71767 16.4323 9.41553 16.7342 9.41553 17.1069C9.4159 17.4793 9.7179 17.7816 10.0903 17.7817H18.3403C18.7129 17.7817 19.0148 17.4794 19.0151 17.1069C19.0151 16.7341 18.7131 16.4321 18.3403 16.4321H10.0903ZM5.36084 15.7505C5.24491 15.7505 5.15447 15.7783 5.09033 15.8325C5.02887 15.8867 4.99765 15.9641 4.99756 16.0649C4.99756 16.1685 5.02869 16.248 5.09033 16.3022C5.15447 16.3565 5.24491 16.3833 5.36084 16.3833C5.48152 16.3833 5.57266 16.3564 5.63428 16.3022C5.69594 16.248 5.72705 16.1685 5.72705 16.0649C5.72696 15.9641 5.6958 15.8867 5.63428 15.8325C5.57266 15.7783 5.48155 15.7505 5.36084 15.7505ZM6.40088 15.7505C6.28512 15.7505 6.19543 15.7783 6.13135 15.8325C6.06977 15.8867 6.03867 15.964 6.03857 16.0649C6.03857 16.1685 6.06968 16.248 6.13135 16.3022C6.19542 16.3564 6.2852 16.3833 6.40088 16.3833C6.52175 16.3833 6.61363 16.3565 6.67529 16.3022C6.73685 16.248 6.76709 16.1684 6.76709 16.0649C6.767 15.9642 6.73667 15.8867 6.67529 15.8325C6.61363 15.7783 6.52175 15.7505 6.40088 15.7505ZM7.44189 15.7505C7.32596 15.7505 7.23552 15.7783 7.17139 15.8325C7.11 15.8867 7.07968 15.9642 7.07959 16.0649C7.07959 16.1685 7.10981 16.248 7.17139 16.3022C7.23552 16.3565 7.32596 16.3833 7.44189 16.3833C7.5626 16.3833 7.65369 16.3564 7.71533 16.3022C7.777 16.248 7.80811 16.1685 7.80811 16.0649C7.80801 15.964 7.77691 15.8867 7.71533 15.8325C7.65369 15.7783 7.56268 15.7505 7.44189 15.7505ZM5.36084 11.646C5.25724 11.646 5.17636 11.6771 5.11963 11.7388C5.06301 11.8004 5.03467 11.8896 5.03467 12.0054V13.1743C5.03467 13.2902 5.06298 13.3793 5.11963 13.4409C5.17636 13.5026 5.25724 13.5337 5.36084 13.5337C5.46922 13.5336 5.55221 13.5025 5.60889 13.4409C5.66552 13.3793 5.69385 13.2901 5.69385 13.1743V12.0054C5.69385 11.8895 5.66411 11.8004 5.60498 11.7388C5.5483 11.6772 5.46675 11.6461 5.36084 11.646ZM6.40088 11.646C6.29742 11.6461 6.21733 11.6772 6.16064 11.7388C6.10391 11.8004 6.07568 11.8894 6.07568 12.0054V13.1743C6.07568 13.2902 6.10391 13.3793 6.16064 13.4409C6.21732 13.5025 6.29745 13.5336 6.40088 13.5337C6.50934 13.5337 6.5922 13.5025 6.64893 13.4409C6.70566 13.3793 6.73389 13.2902 6.73389 13.1743V12.0054C6.73389 11.8894 6.70422 11.8004 6.64502 11.7388C6.58829 11.6772 6.50684 11.646 6.40088 11.646ZM7.42725 12.8042C7.31625 12.8042 7.22724 12.8382 7.16064 12.9048C7.09665 12.9689 7.06396 13.0537 7.06396 13.1597C7.06398 13.2682 7.09652 13.3558 7.16064 13.4224C7.22724 13.4889 7.31628 13.522 7.42725 13.522C7.54305 13.5219 7.63223 13.4889 7.69385 13.4224C7.75784 13.3558 7.78954 13.2681 7.78955 13.1597C7.78955 13.0539 7.75766 12.9689 7.69385 12.9048C7.63223 12.8382 7.54305 12.8043 7.42725 12.8042ZM10.0903 11.5532C9.71767 11.5534 9.41553 11.8553 9.41553 12.228C9.4159 12.6004 9.7179 12.9027 10.0903 12.9028H18.3403C18.7129 12.9028 19.0148 12.6005 19.0151 12.228C19.0151 11.8552 18.7131 11.5532 18.3403 11.5532H10.0903ZM5.36084 10.7505C5.24491 10.7505 5.15447 10.7783 5.09033 10.8325C5.02887 10.8867 4.99765 10.9641 4.99756 11.0649C4.99756 11.1685 5.02869 11.248 5.09033 11.3022C5.15447 11.3565 5.24491 11.3833 5.36084 11.3833C5.48152 11.3833 5.57266 11.3564 5.63428 11.3022C5.69594 11.248 5.72705 11.1685 5.72705 11.0649C5.72696 10.9641 5.6958 10.8867 5.63428 10.8325C5.57266 10.7783 5.48155 10.7505 5.36084 10.7505ZM6.40088 10.7505C6.28512 10.7505 6.19543 10.7783 6.13135 10.8325C6.06977 10.8867 6.03867 10.964 6.03857 11.0649C6.03857 11.1685 6.06968 11.248 6.13135 11.3022C6.19542 11.3564 6.2852 11.3833 6.40088 11.3833C6.52175 11.3833 6.61363 11.3565 6.67529 11.3022C6.73685 11.248 6.76709 11.1684 6.76709 11.0649C6.767 10.9642 6.73667 10.8867 6.67529 10.8325C6.61363 10.7783 6.52175 10.7505 6.40088 10.7505ZM5.36084 6.646C5.25724 6.646 5.17636 6.6771 5.11963 6.73877C5.06301 6.80043 5.03467 6.88955 5.03467 7.00537V8.17432C5.03467 8.29016 5.06298 8.37926 5.11963 8.44092C5.17636 8.50258 5.25724 8.53369 5.36084 8.53369C5.46922 8.53363 5.55221 8.50253 5.60889 8.44092C5.66552 8.37926 5.69385 8.29015 5.69385 8.17432V7.00537C5.69385 6.88951 5.66411 6.80043 5.60498 6.73877C5.5483 6.67716 5.46675 6.64606 5.36084 6.646ZM6.38623 7.8042C6.27529 7.80422 6.1862 7.83821 6.11963 7.90479C6.05577 7.96887 6.02393 8.05382 6.02393 8.15967C6.02394 8.2681 6.05559 8.35579 6.11963 8.42236C6.1862 8.48894 6.27529 8.52195 6.38623 8.52197C6.50216 8.52197 6.59117 8.48896 6.65283 8.42236C6.71695 8.35578 6.74852 8.26817 6.74854 8.15967C6.74854 8.05376 6.71678 7.96889 6.65283 7.90479C6.59117 7.83819 6.50216 7.8042 6.38623 7.8042ZM10.0903 6.34424C9.71767 6.3444 9.41553 6.64635 9.41553 7.01904C9.4159 7.39142 9.7179 7.69369 10.0903 7.69385H18.3403C18.7129 7.69385 19.0148 7.39152 19.0151 7.01904C19.0151 6.64625 18.7131 6.34424 18.3403 6.34424H10.0903ZM5.36084 5.75049C5.24491 5.75049 5.15447 5.77825 5.09033 5.83252C5.02887 5.8867 4.99765 5.96412 4.99756 6.06494C4.99756 6.16852 5.02869 6.24798 5.09033 6.30225C5.15447 6.35651 5.24491 6.3833 5.36084 6.3833C5.48152 6.38325 5.57266 6.35644 5.63428 6.30225C5.69594 6.24798 5.72705 6.16854 5.72705 6.06494C5.72696 5.96408 5.6958 5.8867 5.63428 5.83252C5.57266 5.7783 5.48155 5.75053 5.36084 5.75049Z" fill="black"/>
</svg>
