<svg width="24" height="24" viewBox="0 0 24 24" fill="none" xmlns="http://www.w3.org/2000/svg">
<path fill-rule="evenodd" clip-rule="evenodd" d="M20.125 21.75C20.556 21.75 20.9697 21.5792 21.2744 21.2744C21.5792 20.9697 21.75 20.556 21.75 20.125V3.875C21.75 3.44402 21.5792 3.03033 21.2744 2.72559C20.9697 2.42084 20.556 2.25 20.125 2.25H3.875C3.44402 2.25 3.03033 2.42084 2.72559 2.72559C2.42084 3.03033 2.25 3.44402 2.25 3.875V20.125C2.25 20.556 2.42084 20.9697 2.72559 21.2744C3.03033 21.5792 3.44402 21.75 3.875 21.75H20.125ZM6.02148 5.66992C5.65567 5.86403 5.20204 5.72509 5.00781 5.35938C4.8137 4.99355 4.95263 4.53992 5.31836 4.3457L5.33301 4.33789C5.69885 4.14376 6.15248 4.28265 6.34668 4.64844C6.54079 5.01425 6.40184 5.46788 6.03613 5.66211L6.02148 5.66992ZM13.1504 7.60254C12.7362 7.60254 12.4004 7.26675 12.4004 6.85254C12.4005 6.43845 12.7363 6.10254 13.1504 6.10254H18.3223C18.7364 6.10254 19.0721 6.43845 19.0723 6.85254C19.0723 7.26675 18.7365 7.60254 18.3223 7.60254H13.1504ZM5.67773 8.70605C5.26366 8.70605 4.92699 8.37008 4.92676 7.95605V7.25C4.92676 6.83579 5.26352 6.5 5.67773 6.5C6.09172 6.50026 6.42773 6.83595 6.42773 7.25V7.95605C6.42751 8.36991 6.09158 8.70579 5.67773 8.70605ZM5.68457 11.0977C5.27046 11.0977 4.93473 10.7617 4.93457 10.3477V10.3398C4.93457 9.92563 5.27036 9.58984 5.68457 9.58984C6.09874 9.58989 6.43457 9.92566 6.43457 10.3398V10.3477C6.43441 10.7617 6.09864 11.0976 5.68457 11.0977ZM7.89844 11.0898C7.48455 11.0896 7.14868 10.7537 7.14844 10.3398C7.14844 9.92576 7.4844 9.59005 7.89844 9.58984H7.90137C8.31549 9.58995 8.65137 9.9257 8.65137 10.3398C8.65112 10.7538 8.31534 11.0897 7.90137 11.0898H7.89844ZM13.1504 12.79C12.7362 12.79 12.4004 12.4542 12.4004 12.04C12.4004 11.6258 12.7362 11.29 13.1504 11.29H18.3223C18.7365 11.29 19.0723 11.6258 19.0723 12.04C19.0722 12.4542 18.7365 12.79 18.3223 12.79H13.1504ZM5.67773 13.8926C5.26352 13.8926 4.92676 13.5568 4.92676 13.1426V12.5996C4.92686 12.1855 5.26358 11.8496 5.67773 11.8496C6.09166 11.8499 6.42764 12.1856 6.42773 12.5996V13.1426C6.42773 13.5566 6.09172 13.8923 5.67773 13.8926ZM7.90039 13.8926C7.48618 13.8926 7.15039 13.5568 7.15039 13.1426V12.5996C7.15049 12.1855 7.48624 11.8496 7.90039 11.8496C8.31436 11.8498 8.65029 12.1856 8.65039 12.5996V13.1426C8.65039 13.5567 8.31442 13.8924 7.90039 13.8926ZM5.68457 16.1211C5.27036 16.1211 4.93457 15.7853 4.93457 15.3711C4.93459 14.9569 5.27037 14.6201 5.68457 14.6201C6.09873 14.6202 6.43455 14.9559 6.43457 15.3701C6.43457 15.7843 6.09874 16.121 5.68457 16.1211ZM7.88867 16.1201C7.47453 16.12 7.13867 15.7843 7.13867 15.3701C7.13869 14.956 7.47454 14.6202 7.88867 14.6201H7.90137C8.31547 14.6202 8.65135 14.956 8.65137 15.3701C8.65137 15.7843 8.31549 16.12 7.90137 16.1201H7.88867ZM10.1553 16.1211C9.74106 16.1211 9.40527 15.7853 9.40527 15.3711C9.40533 14.9569 9.74109 14.6211 10.1553 14.6211H10.1572C10.5714 14.6211 10.9072 14.9569 10.9072 15.3711C10.9072 15.7853 10.5714 16.1211 10.1572 16.1211H10.1553ZM13.1504 17.8975C12.7363 17.8975 12.4005 17.5615 12.4004 17.1475C12.4004 16.7332 12.7362 16.3975 13.1504 16.3975H18.3223C18.7365 16.3975 19.0723 16.7332 19.0723 17.1475C19.0721 17.5615 18.7364 17.8975 18.3223 17.8975H13.1504ZM5.67773 19C5.26352 19 4.92676 18.6642 4.92676 18.25V17.5996C4.92686 17.1855 5.26358 16.8496 5.67773 16.8496C6.09166 16.8499 6.42764 17.1856 6.42773 17.5996V18.25C6.42773 18.6641 6.09172 18.9997 5.67773 19ZM7.90039 19C7.48618 19 7.15039 18.6642 7.15039 18.25V17.5996C7.15049 17.1855 7.48624 16.8496 7.90039 16.8496C8.31436 16.8498 8.65029 17.1856 8.65039 17.5996V18.25C8.65039 18.6641 8.31442 18.9998 7.90039 19ZM10.1504 19C9.73618 19 9.40039 18.6642 9.40039 18.25V17.5996C9.40049 17.1855 9.73624 16.8496 10.1504 16.8496C10.5644 16.8498 10.9003 17.1856 10.9004 17.5996V18.25C10.9004 18.6641 10.5644 18.9998 10.1504 19Z" fill="black"/>
</svg>
