<svg width="24" height="24" viewBox="0 0 24 24" fill="none" xmlns="http://www.w3.org/2000/svg">
<path d="M19.4989 3.00195H4.49901C4.10119 3.00195 3.71966 3.15999 3.43836 3.44129C3.15706 3.72259 2.99902 4.10412 2.99902 4.50194V19.5018C2.99902 19.8996 3.15706 20.2812 3.43836 20.5625C3.71966 20.8438 4.10119 21.0018 4.49901 21.0018H19.4989C19.8967 21.0018 20.2782 20.8438 20.5595 20.5625C20.8409 20.2812 20.9989 19.8996 20.9989 19.5018V4.50194C20.9989 4.10412 20.8409 3.72259 20.5595 3.44129C20.2782 3.15999 19.8967 3.00195 19.4989 3.00195ZM6.374 17.6268C6.1515 17.6268 5.93399 17.5609 5.74899 17.4372C5.56398 17.3136 5.41979 17.1379 5.33464 16.9324C5.24949 16.7268 5.22721 16.5006 5.27062 16.2824C5.31403 16.0641 5.42118 15.8637 5.57851 15.7064C5.73584 15.549 5.9363 15.4419 6.15452 15.3985C6.37275 15.3551 6.59895 15.3773 6.80451 15.4625C7.01008 15.5476 7.18578 15.6918 7.30939 15.8768C7.43301 16.0618 7.49899 16.2793 7.49899 16.5019C7.49899 16.8002 7.38046 17.0864 7.16949 17.2973C6.95851 17.5083 6.67236 17.6268 6.374 17.6268ZM6.374 13.1269C6.1515 13.1269 5.93399 13.0609 5.74899 12.9373C5.56398 12.8137 5.41979 12.638 5.33464 12.4324C5.24949 12.2268 5.22721 12.0006 5.27062 11.7824C5.31403 11.5642 5.42118 11.3637 5.57851 11.2064C5.73584 11.0491 5.9363 10.9419 6.15452 10.8985C6.37275 10.8551 6.59895 10.8774 6.80451 10.9625C7.01008 11.0477 7.18578 11.1919 7.30939 11.3769C7.43301 11.5619 7.49899 11.7794 7.49899 12.0019C7.49899 12.3003 7.38046 12.5864 7.16949 12.7974C6.95851 13.0083 6.67236 13.1269 6.374 13.1269ZM6.374 8.62691C6.1515 8.62691 5.93399 8.56093 5.74899 8.43732C5.56398 8.3137 5.41979 8.138 5.33464 7.93243C5.24949 7.72687 5.22721 7.50067 5.27062 7.28244C5.31403 7.06422 5.42118 6.86376 5.57851 6.70643C5.73584 6.5491 5.9363 6.44195 6.15452 6.39854C6.37275 6.35514 6.59895 6.37741 6.80451 6.46256C7.01008 6.54771 7.18578 6.6919 7.30939 6.87691C7.43301 7.06191 7.49899 7.27942 7.49899 7.50192C7.49899 7.80028 7.38046 8.08643 7.16949 8.29741C6.95851 8.50838 6.67236 8.62691 6.374 8.62691ZM17.9989 17.2518H9.74897C9.55006 17.2518 9.3593 17.1728 9.21865 17.0322C9.07799 16.8915 8.99898 16.7008 8.99898 16.5019C8.99898 16.3029 9.07799 16.1122 9.21865 15.9715C9.3593 15.8309 9.55006 15.7519 9.74897 15.7519H17.9989C18.1978 15.7519 18.3886 15.8309 18.5292 15.9715C18.6699 16.1122 18.7489 16.3029 18.7489 16.5019C18.7489 16.7008 18.6699 16.8915 18.5292 17.0322C18.3886 17.1728 18.1978 17.2518 17.9989 17.2518ZM17.9989 12.7519H9.74897C9.55006 12.7519 9.3593 12.6729 9.21865 12.5322C9.07799 12.3916 8.99898 12.2008 8.99898 12.0019C8.99898 11.803 9.07799 11.6122 9.21865 11.4716C9.3593 11.3309 9.55006 11.2519 9.74897 11.2519H17.9989C18.1978 11.2519 18.3886 11.3309 18.5292 11.4716C18.6699 11.6122 18.7489 11.803 18.7489 12.0019C18.7489 12.2008 18.6699 12.3916 18.5292 12.5322C18.3886 12.6729 18.1978 12.7519 17.9989 12.7519ZM17.9989 8.25191H9.74897C9.55006 8.25191 9.3593 8.1729 9.21865 8.03224C9.07799 7.89159 8.99898 7.70083 8.99898 7.50192C8.99898 7.30301 9.07799 7.11224 9.21865 6.97159C9.3593 6.83094 9.55006 6.75192 9.74897 6.75192H17.9989C18.1978 6.75192 18.3886 6.83094 18.5292 6.97159C18.6699 7.11224 18.7489 7.30301 18.7489 7.50192C18.7489 7.70083 18.6699 7.89159 18.5292 8.03224C18.3886 8.1729 18.1978 8.25191 17.9989 8.25191Z" fill="black"/>
</svg>
