<svg viewBox="0 0 24 24" fill="none" xmlns="http://www.w3.org/2000/svg" width="24" height="24">
<path fill-rule="evenodd" clip-rule="evenodd" d="M20.82 2.28C21.317 2.28 21.72 2.683 21.72 3.18V20.82C21.72 21.317 21.317 21.72 20.82 21.72H3.18C2.683 21.72 2.28 21.317 2.28 20.82V3.18C2.28 2.683 2.683 2.28 3.18 2.28H20.82ZM4.033 17.575C3.909 17.575 3.812 17.613 3.744 17.687 3.676 17.76 3.642 17.868 3.642 18.006V19.409C3.642 19.548 3.676 19.655 3.744 19.729 3.812 19.803 3.909 19.84 4.033 19.84 4.163 19.84 4.263 19.803 4.331 19.729 4.399 19.655 4.433 19.548 4.433 19.409V18.006C4.433 17.867 4.397 17.76 4.326 17.687 4.258 17.613 4.16 17.575 4.033 17.575ZM5.281 17.575C5.157 17.575 5.061 17.613 4.993 17.687 4.925 17.76 4.891 17.867 4.891 18.006V19.409C4.891 19.548 4.925 19.655 4.993 19.729 5.061 19.803 5.157 19.84 5.281 19.84 5.411 19.84 5.511 19.803 5.579 19.729 5.647 19.655 5.681 19.548 5.681 19.409V18.006C5.681 17.867 5.645 17.76 5.574 17.687 5.506 17.613 5.408 17.575 5.281 17.575ZM6.53 17.575C6.406 17.575 6.31 17.613 6.242 17.687 6.174 17.76 6.139 17.867 6.139 18.006V19.409C6.139 19.548 6.174 19.655 6.242 19.729 6.31 19.803 6.406 19.84 6.53 19.84 6.66 19.84 6.76 19.803 6.828 19.729 6.896 19.655 6.93 19.548 6.93 19.409V18.006C6.93 17.867 6.894 17.76 6.823 17.687 6.755 17.613 6.657 17.575 6.53 17.575ZM7.761 18.965C7.628 18.965 7.522 19.006 7.442 19.086 7.365 19.163 7.326 19.264 7.326 19.392 7.326 19.522 7.365 19.627 7.442 19.707 7.522 19.786 7.628 19.826 7.761 19.826 7.9 19.826 8.007 19.787 8.081 19.707 8.158 19.627 8.197 19.522 8.197 19.392 8.197 19.264 8.157 19.163 8.081 19.086 8.007 19.006 7.9 18.965 7.761 18.965ZM9.708 17.319C9.261 17.319 8.899 17.681 8.899 18.128 8.899 18.575 9.261 18.938 9.708 18.938H19.608C20.055 18.938 20.418 18.575 20.418 18.128 20.418 17.681 20.056 17.319 19.608 17.319H9.708ZM4.033 16.501C3.894 16.501 3.785 16.534 3.708 16.599 3.635 16.664 3.597 16.757 3.597 16.878 3.597 17.002 3.634 17.098 3.708 17.163 3.785 17.228 3.894 17.26 4.033 17.26 4.178 17.26 4.287 17.228 4.361 17.163 4.435 17.098 4.472 17.002 4.472 16.878 4.472 16.757 4.435 16.664 4.361 16.599 4.287 16.534 4.178 16.501 4.033 16.501ZM5.281 16.501C5.142 16.501 5.035 16.534 4.958 16.599 4.884 16.664 4.846 16.757 4.846 16.878 4.846 17.002 4.884 17.098 4.958 17.163 5.035 17.228 5.142 17.26 5.281 17.26 5.426 17.26 5.536 17.228 5.61 17.163 5.684 17.098 5.721 17.002 5.721 16.878 5.72 16.757 5.684 16.664 5.61 16.599 5.536 16.534 5.426 16.501 5.281 16.501ZM6.53 16.501C6.391 16.501 6.283 16.534 6.206 16.599 6.132 16.664 6.096 16.757 6.096 16.878 6.096 17.002 6.132 17.098 6.206 17.163 6.283 17.228 6.391 17.26 6.53 17.26 6.675 17.26 6.784 17.228 6.858 17.163 6.932 17.098 6.97 17.002 6.97 16.878 6.97 16.757 6.932 16.664 6.858 16.599 6.784 16.534 6.675 16.501 6.53 16.501ZM4.033 11.575C3.909 11.575 3.812 11.613 3.744 11.687 3.676 11.76 3.642 11.868 3.642 12.006V13.409C3.642 13.548 3.676 13.655 3.744 13.729 3.812 13.803 3.909 13.84 4.033 13.84 4.163 13.84 4.263 13.803 4.331 13.729 4.399 13.655 4.433 13.548 4.433 13.409V12.006C4.433 11.867 4.397 11.76 4.326 11.687 4.258 11.613 4.16 11.575 4.033 11.575ZM5.281 11.575C5.157 11.575 5.061 11.613 4.993 11.687 4.925 11.76 4.891 11.867 4.891 12.006V13.409C4.891 13.548 4.925 13.655 4.993 13.729 5.061 13.803 5.157 13.84 5.281 13.84 5.411 13.84 5.511 13.803 5.579 13.729 5.647 13.655 5.681 13.548 5.681 13.409V12.006C5.681 11.867 5.645 11.76 5.574 11.687 5.506 11.613 5.408 11.575 5.281 11.575ZM6.513 12.965C6.38 12.965 6.273 13.006 6.193 13.086 6.116 13.163 6.077 13.264 6.077 13.392 6.077 13.522 6.116 13.627 6.193 13.707 6.273 13.787 6.38 13.826 6.513 13.826 6.652 13.826 6.759 13.787 6.833 13.707 6.909 13.627 6.947 13.522 6.947 13.392 6.947 13.265 6.909 13.163 6.833 13.086 6.759 13.006 6.652 12.965 6.513 12.965ZM9.708 11.464C9.261 11.464 8.899 11.826 8.899 12.274 8.899 12.72 9.261 13.083 9.708 13.083H19.608C20.055 13.083 20.418 12.721 20.418 12.274 20.418 11.826 20.056 11.464 19.608 11.464H9.708ZM4.033 10.501C3.894 10.501 3.785 10.534 3.708 10.599 3.635 10.664 3.597 10.757 3.597 10.878 3.597 11.002 3.634 11.098 3.708 11.163 3.785 11.228 3.894 11.26 4.033 11.26 4.178 11.26 4.287 11.228 4.361 11.163 4.435 11.098 4.472 11.002 4.472 10.878 4.472 10.757 4.435 10.664 4.361 10.599 4.287 10.534 4.178 10.501 4.033 10.501ZM5.281 10.501C5.142 10.501 5.035 10.534 4.958 10.599 4.884 10.664 4.846 10.757 4.846 10.878 4.846 11.002 4.884 11.098 4.958 11.163 5.035 11.228 5.142 11.26 5.281 11.26 5.426 11.26 5.536 11.228 5.61 11.163 5.684 11.098 5.721 11.002 5.721 10.878 5.72 10.757 5.684 10.664 5.61 10.599 5.536 10.534 5.426 10.501 5.281 10.501ZM4.033 5.575C3.909 5.575 3.812 5.613 3.744 5.687 3.676 5.761 3.642 5.867 3.642 6.006V7.409C3.642 7.548 3.676 7.655 3.744 7.729 3.812 7.803 3.909 7.84 4.033 7.84 4.163 7.84 4.263 7.803 4.331 7.729 4.399 7.655 4.433 7.548 4.433 7.409V6.006C4.433 5.867 4.397 5.761 4.326 5.687 4.258 5.613 4.16 5.575 4.033 5.575ZM5.263 6.965C5.13 6.965 5.023 7.006 4.944 7.086 4.867 7.163 4.829 7.265 4.829 7.392 4.829 7.522 4.867 7.627 4.944 7.707 5.023 7.787 5.13 7.826 5.263 7.826 5.403 7.826 5.509 7.787 5.583 7.707 5.66 7.627 5.698 7.522 5.698 7.392 5.698 7.265 5.66 7.163 5.583 7.086 5.509 7.006 5.403 6.965 5.263 6.965ZM9.708 5.213C9.261 5.213 8.899 5.576 8.899 6.023 8.899 6.47 9.261 6.832 9.708 6.833H19.608C20.055 6.833 20.418 6.47 20.418 6.023 20.418 5.576 20.056 5.213 19.608 5.213H9.708ZM4.033 4.501C3.894 4.501 3.785 4.534 3.708 4.599 3.635 4.664 3.597 4.757 3.597 4.878 3.597 5.002 3.634 5.098 3.708 5.163 3.785 5.228 3.894 5.26 4.033 5.26 4.178 5.26 4.287 5.228 4.361 5.163 4.435 5.098 4.472 5.002 4.472 4.878 4.472 4.757 4.435 4.664 4.361 4.599 4.287 4.534 4.178 4.501 4.033 4.501Z" fill="black"/>
</svg>