<svg width="24" height="24" viewBox="0 0 24 24" fill="none" xmlns="http://www.w3.org/2000/svg">
<path fill-rule="evenodd" clip-rule="evenodd" d="M12.001 6.37305C13.6917 6.37305 15.3132 7.04469 16.5088 8.24023C17.7042 9.43576 18.376 11.0574 18.376 12.748C18.3758 15.549 16.8289 17.9722 15.3799 19.6387C14.6462 20.4823 13.9134 21.1591 13.3652 21.625C13.0908 21.8583 12.8611 22.0406 12.6982 22.165C12.617 22.2271 12.5522 22.2755 12.5068 22.3086C12.4843 22.325 12.4657 22.3377 12.4531 22.3467C12.4471 22.351 12.4421 22.3549 12.4385 22.3574C12.4368 22.3586 12.4336 22.3604 12.4336 22.3604L12.4316 22.3613C12.4316 22.3613 12.4231 22.3517 12.0039 21.7529L12.4307 22.3623C12.1726 22.5427 11.8293 22.5427 11.5713 22.3623L11.9961 21.7539C11.5763 22.3536 11.5713 22.3623 11.5713 22.3623L11.5703 22.3613L11.5684 22.3604C11.5684 22.3604 11.5652 22.3586 11.5635 22.3574C11.5599 22.3549 11.5549 22.351 11.5488 22.3467C11.5362 22.3377 11.5177 22.3251 11.4951 22.3086C11.4498 22.2755 11.385 22.2272 11.3037 22.165C11.1408 22.0406 10.9112 21.8583 10.6367 21.625C10.0885 21.159 9.35575 20.4824 8.62207 19.6387C7.17302 17.9722 5.62616 15.549 5.62598 12.748C5.62598 11.0574 6.29779 9.43575 7.49316 8.24023C8.68869 7.0447 10.3102 6.37306 12.001 6.37305ZM12.001 11.248C11.1726 11.2481 10.501 11.9196 10.501 12.748C10.5012 13.5762 11.1727 14.248 12.001 14.248C12.8292 14.248 13.5007 13.5762 13.501 12.748C13.501 11.9196 12.8294 11.248 12.001 11.248Z" fill="black"/>
<path d="M6.46973 1.50195C7.78752 1.50195 9.05158 2.02619 9.9834 2.95801C10.2249 3.19956 10.4393 3.46372 10.624 3.74512C10.851 4.09138 10.7544 4.55698 10.4082 4.78418C10.0621 5.01099 9.59742 4.9141 9.37012 4.56836C9.24124 4.37198 9.09149 4.18723 8.92285 4.01855C8.27234 3.36804 7.3897 3.00293 6.46973 3.00293C5.54978 3.00295 4.6671 3.36805 4.0166 4.01855C3.36626 4.66905 3.00098 5.55184 3.00098 6.47168C3.0011 7.57837 3.42276 8.63721 4.02441 9.58008C4.24695 9.92922 4.14399 10.3935 3.79492 10.6162C3.44592 10.8385 2.98253 10.7354 2.75977 10.3867C2.06486 9.29765 1.5011 7.95894 1.50098 6.47168C1.50098 5.15401 2.02441 3.8898 2.95605 2.95801C3.88786 2.0262 5.15195 1.50197 6.46973 1.50195Z" fill="black"/>
<path d="M17.5303 1.50195C18.8478 1.50205 20.1113 2.02646 21.043 2.95801C21.9747 3.88981 22.499 5.15399 22.499 6.47168C22.4989 7.95886 21.9351 9.29768 21.2402 10.3867C21.0174 10.7355 20.5531 10.8388 20.2041 10.6162C19.8551 10.3935 19.7531 9.92918 19.9756 9.58008C20.5772 8.63725 20.9989 7.57831 20.999 6.47168C20.999 5.55181 20.6328 4.66905 19.9824 4.01855C19.332 3.36831 18.45 3.00303 17.5303 3.00293C16.6104 3.00295 15.7276 3.36817 15.0771 4.01855C14.9085 4.18721 14.7587 4.37201 14.6299 4.56836C14.4026 4.91414 13.9379 5.01087 13.5918 4.78418C13.2456 4.55699 13.149 4.09137 13.376 3.74512C13.5606 3.46381 13.7751 3.1995 14.0166 2.95801C14.9484 2.02632 16.2126 1.50197 17.5303 1.50195Z" fill="black"/>
</svg>
