<svg width="24" height="24" viewBox="0 0 24 24" fill="none" xmlns="http://www.w3.org/2000/svg">
<path d="M19.4989 7.50117H16.4989V5.25119C16.4989 4.05772 16.0248 2.91314 15.1809 2.06923C14.337 1.22532 13.1924 0.751221 11.999 0.751221C10.8055 0.751221 9.66091 1.22532 8.817 2.06923C7.97309 2.91314 7.49899 4.05772 7.49899 5.25119V7.50117H4.49901C4.10119 7.50117 3.71966 7.6592 3.43836 7.94051C3.15706 8.22181 2.99902 8.60334 2.99902 9.00116V19.5011C2.99902 19.8989 3.15706 20.2804 3.43836 20.5617C3.71966 20.843 4.10119 21.0011 4.49901 21.0011H19.4989C19.8967 21.0011 20.2782 20.843 20.5595 20.5617C20.8409 20.2804 20.9989 19.8989 20.9989 19.5011V9.00116C20.9989 8.60334 20.8409 8.22181 20.5595 7.94051C20.2782 7.6592 19.8967 7.50117 19.4989 7.50117ZM11.999 15.3761C11.7765 15.3761 11.5589 15.3101 11.3739 15.1865C11.1889 15.0629 11.0447 14.8872 10.9596 14.6816C10.8745 14.4761 10.8522 14.2499 10.8956 14.0316C10.939 13.8134 11.0461 13.613 11.2035 13.4556C11.3608 13.2983 11.5613 13.1912 11.7795 13.1477C11.9977 13.1043 12.2239 13.1266 12.4295 13.2118C12.635 13.2969 12.8107 13.4411 12.9344 13.6261C13.058 13.8111 13.1239 14.0286 13.1239 14.2511C13.1239 14.5495 13.0054 14.8356 12.7944 15.0466C12.5835 15.2576 12.2973 15.3761 11.999 15.3761ZM14.9989 7.50117H8.99898V5.25119C8.99898 4.45554 9.31505 3.69249 9.87765 3.12988C10.4403 2.56728 11.2033 2.25121 11.999 2.25121C12.7946 2.25121 13.5577 2.56728 14.1203 3.12988C14.6829 3.69249 14.9989 4.45554 14.9989 5.25119V7.50117Z" fill="black"/>
</svg>
