<svg width="24" height="24" viewBox="0 0 24 24" fill="none" xmlns="http://www.w3.org/2000/svg">
<path d="M13.2796 12.532L9.52959 16.282C9.4247 16.387 9.29101 16.4585 9.14545 16.4875C8.99988 16.5165 8.84899 16.5016 8.71188 16.4448C8.57476 16.388 8.45758 16.2918 8.37518 16.1684C8.29278 16.0449 8.24886 15.8998 8.24897 15.7514V12.7514H2.24902C2.05011 12.7514 1.85934 12.6724 1.71869 12.5317C1.57804 12.3911 1.49902 12.2003 1.49902 12.0014C1.49902 11.8025 1.57804 11.6117 1.71869 11.4711C1.85934 11.3304 2.05011 11.2514 2.24902 11.2514H8.24897V8.25142C8.24886 8.103 8.29278 7.95789 8.37518 7.83444C8.45758 7.711 8.57476 7.61478 8.71188 7.55796C8.84899 7.50115 8.99988 7.4863 9.14545 7.51528C9.29101 7.54427 9.4247 7.6158 9.52959 7.7208L13.2796 11.4708C13.3493 11.5404 13.4046 11.6231 13.4424 11.7142C13.4801 11.8052 13.4995 11.9028 13.4995 12.0014C13.4995 12.1 13.4801 12.1976 13.4424 12.2886C13.4046 12.3796 13.3493 12.4624 13.2796 12.532ZM18.7489 3.00146H12.7489C12.55 3.00146 12.3593 3.08048 12.2186 3.22113C12.078 3.36178 11.9989 3.55255 11.9989 3.75146C11.9989 3.95037 12.078 4.14113 12.2186 4.28179C12.3593 4.42244 12.55 4.50145 12.7489 4.50145H17.9989V19.5013H12.7489C12.55 19.5013 12.3593 19.5804 12.2186 19.721C12.078 19.8617 11.9989 20.0524 11.9989 20.2513C11.9989 20.4502 12.078 20.641 12.2186 20.7817C12.3593 20.9223 12.55 21.0013 12.7489 21.0013H18.7489C18.9478 21.0013 19.1386 20.9223 19.2792 20.7817C19.4199 20.641 19.4989 20.4502 19.4989 20.2513V3.75146C19.4989 3.55255 19.4199 3.36178 19.2792 3.22113C19.1386 3.08048 18.9478 3.00146 18.7489 3.00146Z" fill="black"/>
</svg>
