<svg width="24" height="24" viewBox="0 0 24 24" fill="none" xmlns="http://www.w3.org/2000/svg">
<path d="M11.249 20.2486C11.249 20.4476 11.1699 20.6383 11.0293 20.779C10.8886 20.9196 10.6979 20.9986 10.499 20.9986H4.49902C4.30011 20.9986 4.10934 20.9196 3.96869 20.779C3.82804 20.6383 3.74902 20.4476 3.74902 20.2486V3.74877C3.74902 3.54986 3.82804 3.3591 3.96869 3.21845C4.10934 3.0778 4.30011 2.99878 4.49902 2.99878H10.499C10.6979 2.99878 10.8886 3.0778 11.0293 3.21845C11.1699 3.3591 11.249 3.54986 11.249 3.74877C11.249 3.94768 11.1699 4.13845 11.0293 4.2791C10.8886 4.41975 10.6979 4.49877 10.499 4.49877H5.24901V19.4987H10.499C10.6979 19.4987 10.8886 19.5777 11.0293 19.7183C11.1699 19.859 11.249 20.0497 11.249 20.2486ZM21.5295 11.4681L17.7795 7.71812C17.6747 7.61311 17.541 7.54159 17.3954 7.5126C17.2498 7.48361 17.0989 7.49846 16.9618 7.55528C16.8247 7.61209 16.7075 7.70831 16.6251 7.83176C16.5427 7.9552 16.4988 8.10032 16.4989 8.24874V11.2487H10.499C10.3001 11.2487 10.1093 11.3277 9.96865 11.4684C9.82799 11.609 9.74898 11.7998 9.74898 11.9987C9.74898 12.1976 9.82799 12.3884 9.96865 12.529C10.1093 12.6697 10.3001 12.7487 10.499 12.7487H16.4989V15.7487C16.4988 15.8971 16.5427 16.0422 16.6251 16.1657C16.7075 16.2891 16.8247 16.3853 16.9618 16.4421C17.0989 16.499 17.2498 16.5138 17.3954 16.4848C17.541 16.4558 17.6747 16.3843 17.7795 16.2793L21.5295 12.5293C21.5992 12.4597 21.6546 12.377 21.6923 12.2859C21.73 12.1949 21.7495 12.0973 21.7495 11.9987C21.7495 11.9001 21.73 11.8026 21.6923 11.7115C21.6546 11.6205 21.5992 11.5377 21.5295 11.4681Z" fill="black"/>
</svg>
