<svg viewBox="0 0 24 24" fill="none" xmlns="http://www.w3.org/2000/svg" width="24" height="24">
<path d="M14.635 14.43C14.188 14.43 13.825 14.067 13.825 13.62 13.825 13.172 14.188 12.81 14.635 12.81H18.283C18.73 12.81 19.093 13.172 19.093 13.62 19.093 14.067 18.73 14.43 18.283 14.43H14.635Z" fill="black"/>
<path d="M14.635 11.189C14.188 11.189 13.825 10.827 13.825 10.38 13.825 9.932 14.188 9.57 14.635 9.57L18.283 9.57C18.73 9.57 19.093 9.932 19.093 10.38 19.093 10.827 18.73 11.189 18.283 11.189L14.635 11.189Z" fill="black"/>
<path d="M5.722 14.43C5.275 14.43 4.912 14.067 4.912 13.62 4.912 13.172 5.275 12.81 5.722 12.81H9.37C9.818 12.81 10.18 13.172 10.18 13.62 10.18 14.067 9.818 14.43 9.37 14.43H5.722Z" fill="black"/>
<path d="M5.722 11.189C5.275 11.189 4.912 10.827 4.912 10.38 4.912 9.932 5.275 9.57 5.722 9.57L9.37 9.57C9.818 9.57 10.18 9.932 10.18 10.38 10.18 10.827 9.818 11.189 9.37 11.189L5.722 11.189Z" fill="black"/>
<path d="M12.81 20.844C12.81 21.291 12.447 21.655 12 21.655 11.553 21.655 11.19 21.291 11.19 20.844L11.19 3.025C11.19 2.577 11.553 2.215 12 2.215 12.447 2.215 12.81 2.577 12.81 3.025V20.844Z" fill="black"/>
<path d="M3.902 17.884C3.902 18.331 3.54 18.694 3.093 18.694 2.645 18.694 2.283 18.331 2.283 17.884L2.283 6.004C2.283 5.556 2.645 5.194 3.093 5.194 3.54 5.194 3.902 5.556 3.902 6.004L3.902 17.884Z" fill="black"/>
<path d="M21.728 17.875C21.727 18.322 21.365 18.684 20.918 18.684 20.471 18.684 20.108 18.322 20.108 17.875V5.994C20.108 5.547 20.471 5.184 20.918 5.184 21.365 5.184 21.728 5.547 21.728 5.994V17.875Z" fill="black"/>
</svg>