<svg width="24" height="24" viewBox="0 0 24 24" fill="none" xmlns="http://www.w3.org/2000/svg">
<path d="M7.49496 11.2497H6.17953V8.81802C6.17951 8.51469 5.99688 8.24171 5.71664 8.12563C5.4364 8.00957 5.11375 8.07325 4.89926 8.28774L1.71762 11.4694C1.42479 11.7622 1.42492 12.237 1.71762 12.5299L4.89926 15.7125C5.11373 15.927 5.43641 15.9907 5.71664 15.8747C5.99682 15.7586 6.17943 15.4855 6.17953 15.1823V12.7497L7.49496 12.7497C7.90909 12.7495 8.24497 12.4138 8.24496 11.9997C8.24477 11.5857 7.90897 11.2498 7.49496 11.2497Z" fill="black"/>
<path fill-rule="evenodd" clip-rule="evenodd" d="M14.2498 12.6667C14.2498 13.5411 13.5413 14.2496 12.6668 14.2497L11.3338 14.2497C10.4594 14.2497 9.74984 13.5411 9.74985 12.6666V11.3336C9.74985 10.4592 10.4594 9.74966 11.3338 9.74966H12.6668C13.5413 9.74968 14.2498 10.4592 14.2498 11.3336V12.6667Z" fill="black"/>
<path fill-rule="evenodd" clip-rule="evenodd" d="M16.5135 11.2497C16.0994 11.2497 15.7637 11.5856 15.7635 11.9997C15.7635 12.4139 16.0993 12.7497 16.5135 12.7497H17.8202V15.1823C17.8203 15.4853 18.0031 15.7585 18.283 15.8747C18.5632 15.9907 18.8859 15.9268 19.1004 15.7125L22.283 12.5299C22.5756 12.237 22.5758 11.7622 22.283 11.4694L19.1004 8.28774C18.8859 8.07338 18.5632 8.0086 18.283 8.12466C18.0029 8.24079 17.8202 8.51475 17.8202 8.81802V11.2497H16.5135Z" fill="black"/>
</svg>
