<svg width="24" height="24" viewBox="0 0 24 24" fill="none" xmlns="http://www.w3.org/2000/svg">
<path d="M10.4997 11.2502C10.4997 10.8359 10.8355 10.5002 11.2497 10.5002H12.7497C13.1639 10.5002 13.4997 10.8359 13.4997 11.2502V12.7502C13.4997 13.1644 13.1639 13.5002 12.7497 13.5002H11.2497C10.8355 13.5002 10.4997 13.1644 10.4997 12.7502V11.2502Z" fill="black"/>
<path d="M19.9028 11.5226L17.5164 9.13611C17.3234 8.94312 17.0331 8.88469 16.7809 8.98902C16.5287 9.0935 16.3638 9.34025 16.3638 9.61326V11.3254H15C14.6275 11.3255 14.3257 11.6276 14.3254 12.0001C14.3253 12.3728 14.6273 12.676 15 12.6761H16.3638V14.3862C16.3638 14.6592 16.5287 14.906 16.7809 15.0105C17.0331 15.1148 17.3234 15.0564 17.5164 14.8634L19.9028 12.4769C20.1664 12.2133 20.1664 11.7862 19.9028 11.5226Z" fill="black"/>
<path fill-rule="evenodd" clip-rule="evenodd" d="M4.09304 11.5227C4.01906 11.5967 3.96589 11.6835 3.93348 11.7761C3.9673 11.6797 4.02234 11.5934 4.09304 11.5227Z" fill="black"/>
<path fill-rule="evenodd" clip-rule="evenodd" d="M9.13899 11.3387C9.43701 11.4031 9.66469 11.6637 9.67492 11.9776C9.66463 11.6623 9.43817 11.4014 9.13899 11.3387V11.3387C9.14211 11.3394 9.13588 11.3381 9.13899 11.3387Z" fill="black"/>
<path fill-rule="evenodd" clip-rule="evenodd" d="M9.1337 11.3376C9.43112 11.4 9.6619 11.6592 9.67471 11.9721C9.66193 11.6606 9.42996 11.4016 9.1337 11.3376Z" fill="black"/>
<path d="M4.09304 12.477L6.47953 14.8635C6.67251 15.0565 6.96278 15.1149 7.21495 15.0106C7.46718 14.9061 7.63203 14.6593 7.63203 14.3863V12.6751H8.99993C9.37273 12.6751 9.67529 12.3725 9.67528 11.9997L9.67519 11.9888L9.67471 11.9721C9.66193 11.6606 9.42996 11.4016 9.1337 11.3376C9.08749 11.3277 9.04489 11.3235 8.99585 11.3235L7.63203 11.3241L7.63203 9.61335C7.63203 9.34034 7.46718 9.09359 7.21495 8.98911C6.96278 8.88478 6.67251 8.94321 6.47953 9.13619L4.09304 11.5227C4.01906 11.5967 3.96589 11.6835 3.93348 11.7761C3.90885 11.8461 3.89553 11.9212 3.89551 11.9997C3.89552 12.186 3.97097 12.3548 4.09304 12.477Z" fill="black"/>
<path d="M9.61385 7.6322H11.326V8.99602C11.3261 9.36855 11.6282 9.6704 12.0007 9.67067C12.3734 9.6707 12.6766 9.36875 12.6767 8.99602V7.6322H14.3868C14.6598 7.6322 14.9066 7.46734 15.0111 7.21511C15.1154 6.96295 15.057 6.67268 14.864 6.4797L12.4775 4.09321C12.2139 3.82961 11.7868 3.82961 11.5232 4.09321L9.13669 6.4797C8.94371 6.67268 8.88528 6.96295 8.98961 7.21512C9.09409 7.46735 9.34084 7.6322 9.61385 7.6322Z" fill="black"/>
<path d="M11.3231 14.9972V16.361H9.61297C9.33995 16.361 9.0932 16.5259 8.98872 16.7781C8.8844 17.0303 8.94283 17.3206 9.13581 17.5135L11.5223 19.9C11.7859 20.1636 12.213 20.1636 12.4766 19.9L14.8631 17.5135C15.0561 17.3206 15.1145 17.0303 15.0102 16.7781C14.9057 16.5259 14.6589 16.361 14.3859 16.361H12.6738V14.9972C12.6737 14.6247 12.3716 14.3228 11.9991 14.3226C11.6264 14.3225 11.3232 14.6245 11.3231 14.9972Z" fill="black"/>
</svg>
