<svg viewBox="0 0 24 24" fill="none" xmlns="http://www.w3.org/2000/svg" width="24" height="24">
<path d="M13.83 14.543C14.277 14.543 14.639 14.905 14.639 15.353 14.639 15.8 14.277 16.162 13.83 16.162H10.182C9.734 16.162 9.372 15.8 9.372 15.353 9.372 14.905 9.734 14.543 10.182 14.543H13.83Z" fill="black"/>
<path d="M13.83 17.783C14.277 17.783 14.639 18.145 14.639 18.593 14.639 19.04 14.277 19.403 13.83 19.403H10.182C9.734 19.403 9.372 19.04 9.372 18.593 9.372 18.145 9.734 17.783 10.182 17.783H13.83Z" fill="black"/>
<path d="M13.765 5.63C14.212 5.63 14.574 5.993 14.574 6.44 14.574 6.887 14.212 7.25 13.765 7.25H10.116C9.669 7.25 9.307 6.887 9.307 6.44 9.307 5.993 9.669 5.63 10.116 5.63H13.765Z" fill="black"/>
<path d="M13.765 8.87C14.212 8.87 14.574 9.233 14.574 9.68 14.574 10.127 14.212 10.49 13.765 10.49H10.116C9.669 10.49 9.307 10.128 9.307 9.68 9.307 9.233 9.669 8.87 10.116 8.87H13.765Z" fill="black"/>
<path d="M3.096 13.323C2.649 13.323 2.285 12.961 2.285 12.513 2.285 12.066 2.649 11.703 3.096 11.703L20.916 11.703C21.363 11.703 21.725 12.066 21.725 12.513 21.725 12.961 21.363 13.323 20.916 13.323L3.096 13.323Z" fill="black"/>
<path d="M6.056 4.416C5.609 4.415 5.246 4.053 5.246 3.606 5.246 3.159 5.609 2.796 6.056 2.796L17.937 2.796C18.384 2.796 18.747 3.159 18.747 3.606 18.747 4.053 18.384 4.416 17.937 4.416L6.056 4.416Z" fill="black"/>
<path d="M6.066 22.241C5.618 22.241 5.256 21.878 5.256 21.431 5.256 20.984 5.618 20.622 6.066 20.622H17.946C18.393 20.622 18.756 20.984 18.756 21.431 18.756 21.879 18.393 22.241 17.946 22.241H6.066Z" fill="black"/>
</svg>