<svg viewBox="0 0 24 24" fill="none" xmlns="http://www.w3.org/2000/svg" width="24" height="24">
<path d="M10.2 11.1C10.2 10.603 10.603 10.2 11.1 10.2H12.9C13.397 10.2 13.8 10.603 13.8 11.1V12.9C13.8 13.397 13.397 13.8 12.9 13.8H11.1C10.603 13.8 10.2 13.397 10.2 12.9V11.1Z" fill="black"/>
<path d="M21.483 11.427L18.62 8.563C18.388 8.332 18.04 8.262 17.737 8.387 17.434 8.512 17.237 8.808 17.237 9.136V11.19H15.6C15.153 11.191 14.791 11.553 14.79 12 14.79 12.447 15.153 12.811 15.6 12.811H17.237V14.863C17.237 15.191 17.434 15.487 17.737 15.613 18.04 15.738 18.388 15.668 18.62 15.436L21.483 12.572C21.8 12.256 21.8 11.743 21.483 11.427Z" fill="black"/>
<path fill-rule="evenodd" clip-rule="evenodd" d="M2.512 11.427C2.423 11.516 2.359 11.62 2.32 11.731 2.361 11.616 2.427 11.512 2.512 11.427Z" fill="black"/>
<path fill-rule="evenodd" clip-rule="evenodd" d="M8.567 11.206C8.924 11.284 9.198 11.596 9.21 11.973 9.198 11.595 8.926 11.282 8.567 11.206V11.206C8.571 11.207 8.563 11.206 8.567 11.206Z" fill="black"/>
<path fill-rule="evenodd" clip-rule="evenodd" d="M8.56 11.205C8.917 11.28 9.194 11.591 9.21 11.967 9.194 11.593 8.916 11.282 8.56 11.205Z" fill="black"/>
<path d="M2.512 12.572L5.375 15.436C5.607 15.668 5.955 15.738 6.258 15.613 6.561 15.487 6.758 15.191 6.758 14.864V12.81H8.4C8.847 12.81 9.21 12.447 9.21 12L9.21 11.987 9.21 11.967C9.194 11.593 8.916 11.282 8.56 11.205 8.505 11.193 8.454 11.188 8.395 11.188L6.758 11.189 6.758 9.136C6.758 8.808 6.561 8.512 6.258 8.387 5.955 8.262 5.607 8.332 5.375 8.563L2.512 11.427C2.423 11.516 2.359 11.62 2.32 11.731 2.291 11.815 2.275 11.905 2.275 12 2.275 12.223 2.365 12.426 2.512 12.572Z" fill="black"/>
<path d="M9.137 6.759H11.191V8.395C11.191 8.842 11.554 9.204 12.001 9.205 12.448 9.205 12.812 8.843 12.812 8.395V6.759H14.864C15.192 6.759 15.488 6.561 15.613 6.258 15.738 5.956 15.668 5.607 15.437 5.376L12.573 2.512C12.257 2.196 11.744 2.196 11.428 2.512L8.564 5.376C8.332 5.607 8.262 5.956 8.388 6.258 8.513 6.561 8.809 6.759 9.137 6.759Z" fill="black"/>
<path d="M11.188 15.597V17.233H9.136C8.808 17.233 8.512 17.431 8.386 17.734 8.261 18.036 8.331 18.385 8.563 18.616L11.427 21.48C11.743 21.796 12.256 21.796 12.572 21.48L15.436 18.616C15.667 18.385 15.737 18.036 15.612 17.734 15.487 17.431 15.191 17.233 14.863 17.233H12.809V15.597C12.808 15.15 12.446 14.787 11.999 14.787 11.552 14.787 11.188 15.149 11.188 15.597Z" fill="black"/>
</svg>