<svg viewBox="0 0 24 24" fill="none" xmlns="http://www.w3.org/2000/svg" width="24" height="24">
<path fill-rule="evenodd" clip-rule="evenodd" d="M15.62 5.071C15.58 4.967 15.519 4.87 15.436 4.787 15.52 4.871 15.581 4.968 15.62 5.071ZM8.563 4.787C8.481 4.87 8.419 4.967 8.379 5.071 8.419 4.968 8.48 4.871 8.563 4.787Z" fill="black"/>
<path fill-rule="evenodd" clip-rule="evenodd" d="M8.398 5.694C8.437 5.781 8.492 5.861 8.563 5.933 8.495 5.865 8.439 5.785 8.398 5.694ZM8.379 5.071C8.306 5.264 8.308 5.479 8.387 5.67 8.306 5.475 8.307 5.261 8.379 5.071Z" fill="black"/>
<path d="M15.436 4.787C15.519 4.87 15.58 4.967 15.62 5.071 15.693 5.261 15.693 5.475 15.613 5.67 15.571 5.77 15.51 5.859 15.436 5.933 15.296 6.072 15.108 6.159 14.904 6.169 14.891 6.17 14.877 6.17 14.864 6.17H12.811V7.807C12.811 8.254 12.447 8.617 12 8.617 11.553 8.616 11.191 8.254 11.191 7.807V6.17H9.136C9.119 6.17 9.103 6.17 9.087 6.169 9.076 6.168 9.065 6.167 9.055 6.166 8.867 6.147 8.694 6.063 8.563 5.933 8.492 5.861 8.437 5.781 8.398 5.694 8.394 5.686 8.39 5.678 8.387 5.67 8.308 5.479 8.306 5.264 8.379 5.071 8.419 4.967 8.481 4.87 8.563 4.787L11.427 1.924C11.744 1.607 12.256 1.607 12.572 1.924L15.436 4.787Z" fill="black"/>
<path d="M12.809 17.846V16.209C12.809 15.762 12.446 15.4 11.999 15.399 11.552 15.399 11.188 15.762 11.188 16.209L11.188 17.846 9.136 17.846C8.808 17.846 8.512 18.043 8.387 18.346 8.262 18.649 8.332 18.997 8.563 19.229L11.427 22.092C11.744 22.409 12.256 22.409 12.572 22.092L15.436 19.229C15.668 18.997 15.738 18.649 15.613 18.346 15.487 18.043 15.191 17.846 14.864 17.846H12.809Z" fill="black"/>
<path d="M13.8 12.9C13.8 13.397 13.397 13.8 12.9 13.8H11.1C10.603 13.8 10.2 13.397 10.2 12.9V11.1C10.2 10.603 10.603 10.2 11.1 10.2H12.9C13.397 10.2 13.8 10.603 13.8 11.1V12.9Z" fill="black"/>
</svg>