<svg width="24" height="24" viewBox="0 0 24 24" fill="none" xmlns="http://www.w3.org/2000/svg">
<path d="M11.2498 16.5034V17.8189H8.81817C8.51484 17.8189 8.24187 18.0015 8.12579 18.2818C8.00972 18.562 8.07341 18.8847 8.2879 19.0991L11.4695 22.2808C11.7624 22.5736 12.2372 22.5735 12.5301 22.2808L15.7127 19.0991C15.9272 18.8847 15.9908 18.562 15.8748 18.2818C15.7588 18.0016 15.4857 17.819 15.1824 17.8189H12.7498V16.5034C12.7497 16.0893 12.414 15.7534 11.9998 15.7534C11.5858 15.7536 11.2499 16.0894 11.2498 16.5034Z" fill="black"/>
<path fill-rule="evenodd" clip-rule="evenodd" d="M12.6668 9.74856C13.5412 9.74856 14.2498 10.4571 14.2498 11.3316V12.6646C14.2498 13.539 13.5412 14.2486 12.6668 14.2486H11.3338C10.4593 14.2486 9.74981 13.539 9.74981 12.6646V11.3316C9.74983 10.4571 10.4594 9.74856 11.3338 9.74856H12.6668Z" fill="black"/>
<path fill-rule="evenodd" clip-rule="evenodd" d="M11.9998 8.23489C11.5858 8.2347 11.2498 7.89898 11.2498 7.48489V6.17825H8.81817C8.5149 6.17825 8.24095 5.9955 8.12481 5.71536C8.00876 5.43518 8.07353 5.11248 8.2879 4.89798L11.4695 1.71536C11.7623 1.42257 12.2372 1.42279 12.5301 1.71536L15.7127 4.89798C15.9269 5.11248 15.9908 5.43524 15.8748 5.71536C15.7587 5.99527 15.4855 6.17813 15.1824 6.17825H12.7498V7.48489C12.7498 7.8991 12.414 8.23489 11.9998 8.23489Z" fill="black"/>
</svg>
