<svg viewBox="0 0 24 24" fill="none" xmlns="http://www.w3.org/2000/svg" width="24" height="24">
<path d="M18.63 8.558L21.494 11.422C21.81 11.738 21.81 12.251 21.494 12.567L18.63 15.431C18.398 15.663 18.05 15.733 17.747 15.607 17.445 15.482 17.247 15.186 17.247 14.858V12.806L15.61 12.806C15.163 12.806 14.801 12.442 14.801 11.995 14.801 11.548 15.163 11.185 15.61 11.185H17.247V9.131C17.247 8.803 17.445 8.507 17.747 8.382 18.05 8.256 18.398 8.327 18.63 8.558Z" fill="black"/>
<path d="M2.525 11.423C2.208 11.739 2.208 12.251 2.525 12.568L5.389 15.432C5.62 15.663 5.968 15.733 6.271 15.608 6.574 15.483 6.772 15.186 6.772 14.859V12.804L8.408 12.804C8.855 12.804 9.217 12.442 9.218 11.995 9.218 11.547 8.855 11.184 8.408 11.184H6.772L6.772 9.131C6.772 8.804 6.574 8.508 6.271 8.382 5.968 8.257 5.62 8.327 5.389 8.559L2.525 11.423Z" fill="black"/>
<path d="M12.905 10.195C13.402 10.195 13.805 10.598 13.805 11.095V12.895C13.805 13.392 13.402 13.795 12.905 13.795H11.105C10.608 13.795 10.205 13.392 10.205 12.895V11.095C10.205 10.598 10.608 10.195 11.105 10.195H12.905Z" fill="black"/>
</svg>