<svg width="24" height="24" viewBox="0 0 24 24" fill="none" xmlns="http://www.w3.org/2000/svg">
<path d="M21.75 7.16377C21.75 6.97911 21.6806 6.84105 21.6055 6.76338C21.5334 6.68887 21.4715 6.67801 21.4277 6.68428L2.52832 9.45186C2.4566 9.4623 2.25 9.5903 2.25 9.93037V16.8376C2.25002 17.006 2.30867 17.1384 2.37793 17.2194C2.44577 17.2988 2.50886 17.317 2.5498 17.3171H21.4502C21.4906 17.317 21.5539 17.2992 21.6221 17.2194C21.6916 17.138 21.75 17.0051 21.75 16.8376V7.16377ZM23.25 16.8376C23.25 17.8147 22.5504 18.817 21.4502 18.8171H2.5498C1.45004 18.817 0.750041 17.8165 0.75 16.8376V9.93037C0.75 9.03048 1.33341 8.11005 2.31152 7.96748L21.2109 5.20088C22.419 5.02551 23.25 6.10709 23.25 7.16377V16.8376Z" fill="black"/>
<path fill-rule="evenodd" clip-rule="evenodd" d="M21.6055 6.76338C21.6806 6.84105 21.75 6.97911 21.75 7.16377V16.8376C21.75 17.0051 21.6916 17.138 21.6221 17.2194C21.5539 17.2992 21.4906 17.317 21.4502 17.3171H2.5498C2.50886 17.317 2.44577 17.2988 2.37793 17.2194C2.30867 17.1384 2.25002 17.006 2.25 16.8376V9.93037C2.25 9.5903 2.4566 9.4623 2.52832 9.45186L21.4277 6.68428C21.4715 6.67801 21.5334 6.68887 21.6055 6.76338Z" fill="black"/>
</svg>
