<svg width="24" height="24" viewBox="0 0 24 24" fill="none" xmlns="http://www.w3.org/2000/svg">
<path d="M21.3789 5.18335C22.8504 5.18335 23.6232 6.78671 23.0615 8.00366L18.5859 17.7097C18.2847 18.3648 17.6441 18.8171 16.9033 18.8171H7.28803C6.85938 18.8171 6.45076 18.6526 6.1308 18.4382C5.80841 18.2221 5.507 17.9091 5.33002 17.5251L0.938421 8.00269C0.379761 6.78772 1.14708 5.18338 2.62006 5.18335H21.3789ZM2.62006 6.68335C2.51206 6.68336 2.3996 6.74063 2.32026 6.87964C2.2399 7.02063 2.22234 7.20526 2.30073 7.37573L6.69233 16.8972L6.73237 16.9666C6.78213 17.0397 6.86081 17.1218 6.96576 17.1921C7.10852 17.2878 7.23086 17.3171 7.28803 17.3171H16.9033C17.0107 17.3171 17.1457 17.2499 17.2226 17.0828L21.6992 7.37476L21.7246 7.3103C21.7725 7.1595 21.7498 7.00374 21.6796 6.88062C21.6002 6.74135 21.4872 6.68335 21.3789 6.68335H2.62006Z" fill="black"/>
<path fill-rule="evenodd" clip-rule="evenodd" d="M2.32026 6.87964C2.3996 6.74063 2.51206 6.68336 2.62006 6.68335H21.3789C21.4872 6.68335 21.6002 6.74135 21.6796 6.88062C21.7498 7.00374 21.7725 7.1595 21.7246 7.3103L21.6992 7.37476L17.2226 17.0828C17.1457 17.2499 17.0107 17.3171 16.9033 17.3171H7.28803C7.23086 17.3171 7.10852 17.2878 6.96576 17.1921C6.86081 17.1218 6.78213 17.0397 6.73237 16.9666L6.69233 16.8972L2.30073 7.37573C2.22234 7.20526 2.2399 7.02063 2.32026 6.87964Z" fill="black"/>
</svg>
