<svg xmlns="http://www.w3.org/2000/svg" fill="currentColor" viewBox="0 0 24 24" width="24" height="24"><path d="M11.596 16.759a0.816 0.816 0 0 0 0.804 0c0.248-0.143 6.076-3.544 6.075-9.613a6.48 6.48 0 0 0-12.954-0.005c0 6.076 5.83 9.47 6.076 9.619z m0.405-12.049A2.43 2.43 0 1 1 9.571 7.14a2.43 2.43 0 0 1 2.43-2.43m11.34 12.96c0 3.157-5.843 4.86-11.34 4.86s-11.34-1.703-11.34-4.86c0-1.477 1.338-2.785 3.769-3.683a0.81 0.81 0 0 1 0.561 1.519c-1.672 0.619-2.711 1.447-2.711 2.164 0 1.352 3.697 3.24 9.72 3.24s9.72-1.888 9.72-3.24c0-0.716-1.039-1.546-2.711-2.162a0.81 0.81 0 0 1 0.561-1.52c2.431 0.896 3.769 2.204 3.769 3.682z"/></svg>