<svg width="24" height="24" viewBox="0 0 24 24" fill="none" xmlns="http://www.w3.org/2000/svg">
<path fill-rule="evenodd" clip-rule="evenodd" d="M12 1.5C14.188 1.5 16.2868 2.36884 17.834 3.91602C19.3812 5.46319 20.25 7.56196 20.25 9.75C20.25 13.3949 18.2343 16.5678 16.3164 18.7734C15.3483 19.8868 14.3812 20.7801 13.6572 21.3955C13.2948 21.7036 12.9915 21.9437 12.7773 22.1074C12.6704 22.1891 12.5854 22.2518 12.5264 22.2949C12.4971 22.3163 12.4742 22.3332 12.458 22.3447C12.4499 22.3505 12.4431 22.3552 12.4385 22.3584C12.4362 22.36 12.434 22.3613 12.4326 22.3623L12.4307 22.3643C12.4304 22.3644 12.4301 22.3644 12 21.75L12.4307 22.3643C12.1725 22.5448 11.8285 22.5448 11.5703 22.3643L12 21.75C11.5699 22.3644 11.5706 22.3644 11.5703 22.3643L11.5674 22.3623C11.566 22.3613 11.5638 22.36 11.5615 22.3584C11.5569 22.3552 11.5501 22.3505 11.542 22.3447C11.5258 22.3332 11.5029 22.3163 11.4736 22.2949C11.4146 22.2518 11.3296 22.1891 11.2227 22.1074C11.0085 21.9437 10.7052 21.7036 10.3428 21.3955C9.61876 20.7801 8.65172 19.8868 7.68359 18.7734C5.76571 16.5678 3.75 13.3949 3.75 9.75C3.75 7.56196 4.61884 5.46319 6.16602 3.91602C7.71319 2.36884 9.81196 1.5 12 1.5ZM12 7.5C10.7574 7.5 9.75 8.50736 9.75 9.75C9.75 10.9926 10.7574 12 12 12C13.2426 12 14.25 10.9926 14.25 9.75C14.25 8.50736 13.2426 7.5 12 7.5Z" fill="black"/>
</svg>
