<svg width="24" height="24" viewBox="0 0 24 24" fill="none" xmlns="http://www.w3.org/2000/svg">
<path d="M20.9989 20.2523C20.9989 20.4513 20.9199 20.642 20.7792 20.7827C20.6386 20.9233 20.4478 21.0023 20.2489 21.0023H3.74902C3.55011 21.0023 3.35934 20.9233 3.21869 20.7827C3.07804 20.642 2.99902 20.4513 2.99902 20.2523C2.99902 20.0534 3.07804 19.8627 3.21869 19.722C3.35934 19.5814 3.55011 19.5023 3.74902 19.5023H11.249V12.698C9.93528 12.5084 8.74218 11.8282 7.90976 10.7944C7.07735 9.76059 6.66742 8.44984 6.76247 7.12595C6.85752 5.80206 7.4505 4.56332 8.42206 3.65901C9.39363 2.7547 10.6717 2.25195 11.999 2.25195C13.3262 2.25195 14.6043 2.7547 15.5758 3.65901C16.5474 4.56332 17.1404 5.80206 17.2354 7.12595C17.3305 8.44984 16.9206 9.76059 16.0881 10.7944C15.2557 11.8282 14.0626 12.5084 12.7489 12.698V19.5023H20.2489C20.4478 19.5023 20.6386 19.5814 20.7792 19.722C20.9199 19.8627 20.9989 20.0534 20.9989 20.2523Z" fill="black"/>
</svg>
