<svg width="24" height="24" viewBox="0 0 24 24" fill="none" xmlns="http://www.w3.org/2000/svg">
<path d="M4.5 21C4.10218 21 3.72076 20.8419 3.43945 20.5605C3.15815 20.2792 3 19.8978 3 19.5L3 4.5C3 4.10218 3.15815 3.72076 3.43945 3.43945C3.72076 3.15815 4.10218 3 4.5 3L19.5 3C19.8978 3 20.2792 3.15815 20.5605 3.43945C20.8419 3.72076 21 4.10217 21 4.5L21 19.5C21 19.8978 20.8419 20.2792 20.5605 20.5605C20.2792 20.8419 19.8978 21 19.5 21L4.5 21ZM12 9.9375C12.4142 9.9375 12.75 9.60171 12.75 9.1875V6.5625L14.8125 6.5625C15.2267 6.5625 15.5625 6.22671 15.5625 5.8125C15.5625 5.39829 15.2267 5.0625 14.8125 5.0625L9.1875 5.0625C8.77329 5.0625 8.4375 5.39829 8.4375 5.8125C8.4375 6.22671 8.77329 6.5625 9.1875 6.5625H11.25V9.1875C11.25 9.60171 11.5858 9.9375 12 9.9375ZM18.1875 15.5625C18.6017 15.5625 18.9375 15.2267 18.9375 14.8125V9.1875C18.9375 8.77329 18.6017 8.4375 18.1875 8.4375C17.7733 8.4375 17.4375 8.77329 17.4375 9.1875V11.25H14.8125C14.3983 11.25 14.0625 11.5858 14.0625 12C14.0625 12.4142 14.3983 12.75 14.8125 12.75H17.4375V14.8125C17.4375 15.2267 17.7733 15.5625 18.1875 15.5625ZM5.8125 15.5625C6.22671 15.5625 6.5625 15.2267 6.5625 14.8125L6.5625 12.75H9.1875C9.60171 12.75 9.9375 12.4142 9.9375 12C9.9375 11.5858 9.60171 11.25 9.1875 11.25H6.5625V9.1875C6.5625 8.77329 6.22671 8.4375 5.8125 8.4375C5.39829 8.4375 5.0625 8.77329 5.0625 9.1875L5.0625 14.8125C5.0625 15.2267 5.39829 15.5625 5.8125 15.5625ZM14.2529 18.9365C14.9359 18.9363 15.4891 18.4137 15.5557 17.7568L15.5625 17.624C15.5625 16.906 14.9815 16.3108 14.2529 16.3105H13.3125V15.3721C13.3124 14.6434 12.7171 14.0625 11.999 14.0625C11.2813 14.063 10.6866 14.6437 10.6865 15.3721V16.3105H9.74707C9.01849 16.3108 8.4375 16.906 8.4375 17.624C8.43773 18.3419 9.01863 18.9363 9.74707 18.9365H14.2529Z" fill="black"/>
</svg>
