<svg width="24" height="24" viewBox="0 0 24 24" fill="none" xmlns="http://www.w3.org/2000/svg">
<path d="M19.5 3C19.8978 3 20.2792 3.15815 20.5605 3.43945C20.8419 3.72076 21 4.10218 21 4.5V19.5C21 19.8978 20.8419 20.2792 20.5605 20.5605C20.2792 20.8419 19.8978 21 19.5 21H4.5C4.10218 21 3.72076 20.8419 3.43945 20.5605C3.15815 20.2792 3 19.8978 3 19.5V4.5C3 4.10218 3.15815 3.72076 3.43945 3.43945C3.72076 3.15815 4.10218 3 4.5 3H19.5ZM12 14.0625C11.5858 14.0625 11.25 14.3983 11.25 14.8125V17.4375H9.1875C8.77329 17.4375 8.4375 17.7733 8.4375 18.1875C8.4375 18.6017 8.77329 18.9375 9.1875 18.9375H14.8125C15.2267 18.9375 15.5625 18.6017 15.5625 18.1875C15.5625 17.7733 15.2267 17.4375 14.8125 17.4375H12.75V14.8125C12.75 14.3983 12.4142 14.0625 12 14.0625ZM5.8125 8.4375C5.39829 8.4375 5.0625 8.77329 5.0625 9.1875V14.8125C5.0625 15.2267 5.39829 15.5625 5.8125 15.5625C6.22671 15.5625 6.5625 15.2267 6.5625 14.8125V12.75H9.1875C9.60171 12.75 9.9375 12.4142 9.9375 12C9.9375 11.5858 9.60171 11.25 9.1875 11.25H6.5625V9.1875C6.5625 8.77329 6.22671 8.4375 5.8125 8.4375ZM18.1875 8.4375C17.7733 8.4375 17.4375 8.77329 17.4375 9.1875V11.25H14.8125C14.3983 11.25 14.0625 11.5858 14.0625 12C14.0625 12.4142 14.3983 12.75 14.8125 12.75H17.4375V14.8125C17.4375 15.2267 17.7733 15.5625 18.1875 15.5625C18.6017 15.5625 18.9375 15.2267 18.9375 14.8125V9.1875C18.9375 8.77329 18.6017 8.4375 18.1875 8.4375ZM9.74707 5.06348C9.06409 5.0637 8.51092 5.58625 8.44434 6.24316L8.4375 6.37598C8.4375 7.09402 9.01849 7.68922 9.74707 7.68945H10.6875V8.62793C10.6876 9.35663 11.2829 9.9375 12.001 9.9375C12.7187 9.93701 13.3134 9.35632 13.3135 8.62793V7.68945H14.2529C14.9815 7.68922 15.5625 7.09402 15.5625 6.37598C15.5623 5.65813 14.9814 5.06371 14.2529 5.06348H9.74707Z" fill="black"/>
</svg>
