<svg viewBox="0 0 24 24" fill="none" xmlns="http://www.w3.org/2000/svg" width="24" height="24">
<path fill-rule="evenodd" clip-rule="evenodd" d="M21.72 20.821C21.72 21.318 21.317 21.721 20.82 21.721H3.18C2.683 21.721 2.28 21.318 2.28 20.821V3.18C2.28 2.683 2.683 2.281 3.18 2.28H20.82C21.317 2.28 21.72 2.683 21.72 3.18V20.821ZM5.292 6.472C5.292 6.025 4.929 5.663 4.482 5.663 4.035 5.663 3.672 6.025 3.672 6.472V17.529C3.672 17.976 4.035 18.338 4.482 18.339 4.929 18.339 5.291 17.976 5.292 17.529V6.472ZM17.401 11.973C17.4 11.941 17.396 11.91 17.391 11.878 17.388 11.859 17.386 11.839 17.382 11.821 17.375 11.79 17.364 11.76 17.354 11.73 17.348 11.713 17.344 11.695 17.337 11.679 17.319 11.636 17.296 11.595 17.269 11.555L17.265 11.548C17.236 11.505 17.203 11.465 17.166 11.428L14.869 9.131C14.553 8.815 14.041 8.816 13.724 9.131 13.408 9.448 13.408 9.961 13.724 10.277L14.638 11.19H9.364L10.277 10.277C10.593 9.961 10.593 9.447 10.277 9.131 9.961 8.815 9.447 8.815 9.131 9.131L6.835 11.428C6.798 11.465 6.765 11.507 6.735 11.551 6.728 11.562 6.722 11.575 6.715 11.586 6.668 11.665 6.633 11.752 6.615 11.845 6.595 11.948 6.595 12.053 6.615 12.156 6.623 12.201 6.637 12.244 6.653 12.286 6.656 12.292 6.657 12.299 6.659 12.305 6.674 12.34 6.693 12.373 6.712 12.405 6.72 12.42 6.726 12.435 6.735 12.449 6.765 12.493 6.797 12.535 6.835 12.573L9.131 14.87C9.447 15.186 9.96 15.186 10.277 14.87 10.593 14.554 10.593 14.04 10.277 13.724L9.363 12.81H14.638L13.724 13.724C13.408 14.04 13.408 14.554 13.724 14.87 14.041 15.186 14.553 15.186 14.869 14.87L17.166 12.573C17.203 12.536 17.235 12.496 17.263 12.455 17.268 12.447 17.273 12.439 17.277 12.431 17.298 12.398 17.317 12.363 17.333 12.328 17.341 12.31 17.347 12.29 17.354 12.271 17.364 12.243 17.373 12.215 17.379 12.186 17.384 12.167 17.388 12.147 17.391 12.128 17.396 12.096 17.399 12.063 17.401 12.03 17.401 12.021 17.403 12.01 17.403 12 17.403 11.991 17.401 11.982 17.401 11.973ZM20.328 6.472C20.328 6.025 19.965 5.663 19.518 5.663 19.071 5.663 18.708 6.025 18.708 6.472V17.529C18.708 17.976 19.071 18.339 19.518 18.339 19.965 18.339 20.328 17.976 20.328 17.529V6.472Z" fill="black"/>
</svg>