<svg viewBox="0 0 24 24" fill="none" xmlns="http://www.w3.org/2000/svg" width="24" height="24">
<path fill-rule="evenodd" clip-rule="evenodd" d="M20.82 2.28C21.317 2.281 21.72 2.683 21.72 3.18V20.821C21.72 21.318 21.317 21.721 20.82 21.721H3.18C2.683 21.721 2.28 21.318 2.28 20.821V3.18C2.28 2.683 2.683 2.28 3.18 2.28H20.82ZM6.472 18.709C6.024 18.709 5.662 19.071 5.662 19.519 5.662 19.966 6.024 20.328 6.472 20.328H17.528C17.975 20.328 18.338 19.966 18.338 19.519 18.338 19.071 17.976 18.709 17.528 18.709H6.472ZM11.974 6.6C11.941 6.601 11.909 6.604 11.877 6.609 11.864 6.611 11.851 6.611 11.838 6.614L11.807 6.621C11.776 6.629 11.746 6.64 11.716 6.652 11.705 6.656 11.692 6.657 11.681 6.662 11.637 6.681 11.595 6.705 11.555 6.731L11.548 6.736C11.505 6.765 11.464 6.798 11.427 6.834L9.132 9.131C8.816 9.447 8.816 9.96 9.132 10.276 9.448 10.592 9.962 10.592 10.278 10.276L11.191 9.362V14.637L10.278 13.724C9.962 13.408 9.448 13.408 9.132 13.724 8.816 14.04 8.816 14.554 9.132 14.87L11.422 17.159C11.461 17.199 11.505 17.234 11.552 17.265 11.565 17.274 11.579 17.281 11.593 17.289 11.625 17.308 11.658 17.327 11.694 17.341 11.702 17.345 11.712 17.346 11.721 17.35 11.76 17.364 11.801 17.378 11.844 17.386 11.947 17.406 12.053 17.406 12.156 17.386 12.199 17.378 12.24 17.364 12.279 17.35 12.288 17.346 12.298 17.345 12.306 17.341 12.342 17.327 12.375 17.308 12.407 17.289 12.421 17.281 12.435 17.274 12.448 17.265 12.493 17.236 12.536 17.203 12.574 17.166L14.871 14.87C15.186 14.554 15.186 14.04 14.871 13.724 14.554 13.408 14.041 13.408 13.724 13.724L12.81 14.638V9.362L13.724 10.276C14.041 10.592 14.554 10.592 14.871 10.276 15.186 9.96 15.186 9.447 14.871 9.131L12.574 6.834C12.537 6.797 12.496 6.765 12.454 6.737 12.447 6.733 12.44 6.73 12.433 6.725 12.399 6.704 12.365 6.684 12.329 6.668 12.309 6.659 12.289 6.653 12.269 6.646 12.242 6.636 12.214 6.628 12.186 6.621 12.167 6.617 12.148 6.614 12.128 6.611 12.096 6.605 12.064 6.601 12.031 6.6 12.021 6.6 12.011 6.598 12.001 6.598 11.992 6.598 11.982 6.6 11.974 6.6ZM6.472 3.673C6.024 3.673 5.662 4.035 5.662 4.482 5.662 4.93 6.024 5.292 6.472 5.292H17.528C17.976 5.292 18.338 4.93 18.338 4.482 18.338 4.035 17.976 3.673 17.528 3.673H6.472Z" fill="black"/>
</svg>