<svg width="24" height="24" viewBox="0 0 24 24" fill="none" xmlns="http://www.w3.org/2000/svg">
<path fill-rule="evenodd" clip-rule="evenodd" d="M21 1.5C21.8284 1.5 22.5 2.17157 22.5 3V21C22.5 21.8284 21.8284 22.5 21 22.5H3C2.17157 22.5 1.5 21.8284 1.5 21V3C1.5 2.17157 2.17157 1.5 3 1.5H21ZM5.78906 18.7529C5.37485 18.7529 5.03906 19.0887 5.03906 19.5029C5.03906 19.9171 5.37485 20.2529 5.78906 20.2529H17.9385C18.3525 20.2527 18.6885 19.917 18.6885 19.5029C18.6885 19.0889 18.3525 18.7532 17.9385 18.7529H5.78906ZM11.8643 6.75C11.715 6.75 11.5696 6.79437 11.4473 6.87598L11.333 6.96973L9.12402 9.17871C8.83147 9.47155 8.83144 9.94643 9.12402 10.2393C9.41692 10.532 9.89269 10.5321 10.1855 10.2393L11.1143 9.31055V14.6982L10.1855 13.7695C9.89269 13.4767 9.41693 13.4768 9.12402 13.7695C8.83146 14.0624 8.83146 14.5372 9.12402 14.8301L11.333 17.0391C11.4737 17.1796 11.6654 17.2588 11.8643 17.2588C12.0629 17.2586 12.2541 17.1795 12.3945 17.0391L14.6025 14.8301C14.8953 14.5372 14.8953 14.0624 14.6025 13.7695C14.3097 13.4769 13.8348 13.4768 13.542 13.7695L12.6143 14.6973V9.31152L13.542 10.2393C13.8348 10.532 14.3097 10.5319 14.6025 10.2393C14.8953 9.9464 14.8953 9.47158 14.6025 9.17871L12.3945 6.96973C12.2541 6.82924 12.0629 6.75019 11.8643 6.75ZM5.78906 3.75C5.37485 3.75 5.03906 4.08579 5.03906 4.5C5.03906 4.91421 5.37485 5.25 5.78906 5.25H17.9385C18.3525 5.24974 18.6885 4.91405 18.6885 4.5C18.6885 4.08595 18.3525 3.75026 17.9385 3.75H5.78906Z" fill="black"/>
</svg>
