<svg width="24" height="24" viewBox="0 0 24 24" fill="none" xmlns="http://www.w3.org/2000/svg">
<path d="M15 20.2695C15.4142 20.2695 15.75 20.6053 15.75 21.0195C15.75 21.4337 15.4142 21.7695 15 21.7695H9C8.58579 21.7695 8.25 21.4337 8.25 21.0195C8.25 20.6053 8.58579 20.2695 9 20.2695H15Z" fill="black"/>
<path d="M11.999 10.3037C12.5309 10.3037 12.9627 10.7348 12.9629 11.2666C12.9629 11.7986 12.531 12.2305 11.999 12.2305C11.4674 12.23 11.0361 11.7983 11.0361 11.2666C11.0364 10.7351 11.4676 10.3042 11.999 10.3037Z" fill="black"/>
<path fill-rule="evenodd" clip-rule="evenodd" d="M19.5 3.76953C20.7426 3.76953 21.75 4.77689 21.75 6.01953V16.5195C21.75 17.7622 20.7426 18.7695 19.5 18.7695H4.5C3.25736 18.7695 2.25 17.7622 2.25 16.5195V6.01953C2.25 4.77689 3.25736 3.76953 4.5 3.76953H19.5ZM12 7.51855C11.5858 7.51861 11.25 7.85438 11.25 8.26855V8.91992C10.9093 9.0287 10.6021 9.21118 10.3438 9.44629L9.77832 9.11914C9.41964 8.91205 8.96104 9.0349 8.75391 9.39355C8.5468 9.75223 8.66966 10.2108 9.02832 10.418L9.59277 10.7441C9.55636 10.9126 9.53616 11.0873 9.53613 11.2666C9.53613 11.4466 9.55708 11.6219 9.59375 11.791L9.02832 12.1182C8.66967 12.3253 8.54679 12.7839 8.75391 13.1426C8.96105 13.5012 9.41966 13.624 9.77832 13.417L10.3457 13.0889C10.6036 13.3232 10.9102 13.5037 11.25 13.6123V14.2666C11.2501 14.6807 11.5859 15.0165 12 15.0166C12.4142 15.0166 12.7499 14.6807 12.75 14.2666V13.6133C13.0898 13.5046 13.3954 13.3222 13.6533 13.0879L14.2217 13.417C14.5803 13.624 15.0389 13.5011 15.2461 13.1426C15.4531 12.7839 15.3302 12.3253 14.9717 12.1182L14.4053 11.791C14.442 11.6219 14.4629 11.4467 14.4629 11.2666C14.4629 11.0872 14.4427 10.9126 14.4062 10.7441L14.9717 10.418C15.3302 10.2108 15.4531 9.75219 15.2461 9.39355C15.0389 9.035 14.5803 8.91214 14.2217 9.11914L13.6543 9.44629C13.3962 9.21168 13.0902 9.0286 12.75 8.91992V8.26855C12.75 7.85434 12.4142 7.51855 12 7.51855Z" fill="black"/>
</svg>
