<svg width="24" height="24" viewBox="0 0 24 24" fill="none" xmlns="http://www.w3.org/2000/svg">
<path d="M19.4989 2.99731H4.49901C4.10119 2.99731 3.71966 3.15535 3.43836 3.43665C3.15706 3.71795 2.99902 4.09948 2.99902 4.4973V19.4972C2.99902 19.895 3.15706 20.2765 3.43836 20.5578C3.71966 20.8391 4.10119 20.9972 4.49901 20.9972H19.4989C19.8967 20.9972 20.2782 20.8391 20.5595 20.5578C20.8409 20.2765 20.9989 19.895 20.9989 19.4972V4.4973C20.9989 4.09948 20.8409 3.71795 20.5595 3.43665C20.2782 3.15535 19.8967 2.99731 19.4989 2.99731ZM6.74899 6.74729H15.7489C15.9478 6.74729 16.1386 6.8263 16.2793 6.96695C16.4199 7.10761 16.4989 7.29837 16.4989 7.49728C16.4989 7.69619 16.4199 7.88695 16.2793 8.02761C16.1386 8.16826 15.9478 8.24727 15.7489 8.24727H6.74899C6.55008 8.24727 6.35932 8.16826 6.21867 8.02761C6.07802 7.88695 5.999 7.69619 5.999 7.49728C5.999 7.29837 6.07802 7.10761 6.21867 6.96695C6.35932 6.8263 6.55008 6.74729 6.74899 6.74729ZM10.499 17.2472H6.74899C6.55008 17.2472 6.35932 17.1682 6.21867 17.0275C6.07802 16.8869 5.999 16.6961 5.999 16.4972C5.999 16.2983 6.07802 16.1075 6.21867 15.9669C6.35932 15.8262 6.55008 15.7472 6.74899 15.7472H10.499C10.6979 15.7472 10.8886 15.8262 11.0293 15.9669C11.1699 16.1075 11.249 16.2983 11.249 16.4972C11.249 16.6961 11.1699 16.8869 11.0293 17.0275C10.8886 17.1682 10.6979 17.2472 10.499 17.2472ZM11.249 12.7472H6.74899C6.55008 12.7472 6.35932 12.6682 6.21867 12.5276C6.07802 12.3869 5.999 12.1962 5.999 11.9972C5.999 11.7983 6.07802 11.6076 6.21867 11.4669C6.35932 11.3263 6.55008 11.2473 6.74899 11.2473H11.249C11.4479 11.2473 11.6386 11.3263 11.7793 11.4669C11.9199 11.6076 11.999 11.7983 11.999 11.9972C11.999 12.1962 11.9199 12.3869 11.7793 12.5276C11.6386 12.6682 11.4479 12.7472 11.249 12.7472ZM18.5295 15.5278L16.2795 17.7778C16.2099 17.8476 16.1272 17.9029 16.0361 17.9406C15.9451 17.9784 15.8475 17.9978 15.7489 17.9978C15.6504 17.9978 15.5528 17.9784 15.4617 17.9406C15.3707 17.9029 15.288 17.8476 15.2183 17.7778L12.9683 15.5278C12.8276 15.3871 12.7485 15.1962 12.7485 14.9972C12.7485 14.7982 12.8276 14.6073 12.9683 14.4666C13.1091 14.3259 13.2999 14.2468 13.4989 14.2468C13.698 14.2468 13.8888 14.3259 14.0296 14.4666L14.9989 15.4369V11.2473C14.9989 11.0483 15.0779 10.8576 15.2186 10.7169C15.3593 10.5763 15.55 10.4973 15.7489 10.4973C15.9478 10.4973 16.1386 10.5763 16.2793 10.7169C16.4199 10.8576 16.4989 11.0483 16.4989 11.2473V15.4369L17.4683 14.4666C17.609 14.3259 17.7999 14.2468 17.9989 14.2468C18.1979 14.2468 18.3888 14.3259 18.5295 14.4666C18.6703 14.6073 18.7493 14.7982 18.7493 14.9972C18.7493 15.1962 18.6703 15.3871 18.5295 15.5278Z" fill="black"/>
</svg>
