<svg width="24" height="24" viewBox="0 0 24 24" fill="none" xmlns="http://www.w3.org/2000/svg">
<path d="M20.2489 3.75024H3.74901C3.35119 3.75024 2.96966 3.90828 2.68836 4.18958C2.40706 4.47088 2.24902 4.85241 2.24902 5.25023V18.7501C2.24902 19.148 2.40706 19.5295 2.68836 19.8108C2.96966 20.0921 3.35119 20.2501 3.74901 20.2501H20.2489C20.6467 20.2501 21.0282 20.0921 21.3095 19.8108C21.5908 19.5295 21.7489 19.148 21.7489 18.7501V5.25023C21.7489 4.85241 21.5908 4.47088 21.3095 4.18958C21.0282 3.90828 20.6467 3.75024 20.2489 3.75024ZM13.4989 16.5001H10.499C10.3 16.5001 10.1093 16.4211 9.96863 16.2805C9.82798 16.1398 9.74897 15.9491 9.74897 15.7502C9.74897 15.5512 9.82798 15.3605 9.96863 15.2198C10.1093 15.0792 10.3 15.0002 10.499 15.0002H13.4989C13.6978 15.0002 13.8886 15.0792 14.0293 15.2198C14.1699 15.3605 14.2489 15.5512 14.2489 15.7502C14.2489 15.9491 14.1699 16.1398 14.0293 16.2805C13.8886 16.4211 13.6978 16.5001 13.4989 16.5001ZM16.4989 12.7502H7.49898C7.30007 12.7502 7.10931 12.6712 6.96866 12.5305C6.82801 12.3899 6.74899 12.1991 6.74899 12.0002C6.74899 11.8013 6.82801 11.6105 6.96866 11.4699C7.10931 11.3292 7.30007 11.2502 7.49898 11.2502H16.4989C16.6978 11.2502 16.8886 11.3292 17.0292 11.4699C17.1699 11.6105 17.2489 11.8013 17.2489 12.0002C17.2489 12.1991 17.1699 12.3899 17.0292 12.5305C16.8886 12.6712 16.6978 12.7502 16.4989 12.7502ZM19.4989 9.0002H4.49901C4.3001 9.0002 4.10933 8.92119 3.96868 8.78054C3.82803 8.63988 3.74901 8.44912 3.74901 8.25021C3.74901 8.0513 3.82803 7.86054 3.96868 7.71988C4.10933 7.57923 4.3001 7.50022 4.49901 7.50022H19.4989C19.6978 7.50022 19.8886 7.57923 20.0292 7.71988C20.1699 7.86054 20.2489 8.0513 20.2489 8.25021C20.2489 8.44912 20.1699 8.63988 20.0292 8.78054C19.8886 8.92119 19.6978 9.0002 19.4989 9.0002Z" fill="black"/>
</svg>
