<svg width="24" height="24" viewBox="0 0 24 24" fill="none" xmlns="http://www.w3.org/2000/svg">
<path d="M17.2275 4.07758C20.0444 4.07758 21.6506 7.26276 20.207 9.63519L14.9795 18.2241C13.601 20.4886 10.399 20.4886 9.0205 18.2241L3.79296 9.63519C2.34939 7.26276 3.95561 4.07758 6.77245 4.07758H17.2275ZM6.77245 5.57758C5.22775 5.57758 4.18494 7.39461 5.07421 8.8559L10.3037 17.4438L10.3281 17.4848C11.1348 18.7481 12.9126 18.7344 13.6982 17.4438L18.9258 8.8559C19.815 7.39461 18.7722 5.57758 17.2275 5.57758H6.77245Z" fill="black"/>
<path fill-rule="evenodd" clip-rule="evenodd" d="M5.07421 8.8559C4.18494 7.39461 5.22775 5.57758 6.77245 5.57758H17.2275C18.7722 5.57758 19.815 7.39461 18.9258 8.8559L13.6982 17.4438C12.9126 18.7344 11.1348 18.7481 10.3281 17.4848L10.3037 17.4438L5.07421 8.8559Z" fill="black"/>
</svg>
