<svg width="24" height="24" viewBox="0 0 24 24" fill="none" xmlns="http://www.w3.org/2000/svg">
<g clip-path="url(#clip0_2037_2286)">
<path d="M7.499 11.9999V5.99997C7.499 4.8065 7.9731 3.66192 8.81701 2.81801C9.66092 1.9741 10.8055 1.5 11.999 1.5C13.1924 1.5 14.337 1.9741 15.1809 2.81801C16.0248 3.66192 16.4989 4.8065 16.4989 5.99997V11.9999C16.4989 13.1934 16.0248 14.338 15.1809 15.1819C14.337 16.0258 13.1924 16.4999 11.999 16.4999C10.8055 16.4999 9.66092 16.0258 8.81701 15.1819C7.9731 14.338 7.499 13.1934 7.499 11.9999ZM19.4989 11.9999C19.4989 11.801 19.4199 11.6102 19.2792 11.4696C19.1386 11.3289 18.9478 11.2499 18.7489 11.2499C18.55 11.2499 18.3592 11.3289 18.2186 11.4696C18.0779 11.6102 17.9989 11.801 17.9989 11.9999C17.9989 13.5912 17.3668 15.1173 16.2416 16.2425C15.1164 17.3677 13.5903 17.9999 11.999 17.9999C10.4077 17.9999 8.88157 17.3677 7.75636 16.2425C6.63115 15.1173 5.99901 13.5912 5.99901 11.9999C5.99901 11.801 5.91999 11.6102 5.77934 11.4696C5.63869 11.3289 5.44793 11.2499 5.24902 11.2499C5.05011 11.2499 4.85934 11.3289 4.71869 11.4696C4.57804 11.6102 4.49902 11.801 4.49902 11.9999C4.50131 13.8585 5.19269 15.6503 6.43949 17.0287C7.68628 18.4071 9.3999 19.2742 11.249 19.4624V22.4998C11.249 22.6988 11.328 22.8895 11.4686 23.0302C11.6093 23.1708 11.8001 23.2498 11.999 23.2498C12.1979 23.2498 12.3886 23.1708 12.5293 23.0302C12.6699 22.8895 12.749 22.6988 12.749 22.4998V19.4624C14.598 19.2742 16.3117 18.4071 17.5584 17.0287C18.8052 15.6503 19.4966 13.8585 19.4989 11.9999Z" fill="black"/>
</g>
<defs>
<clipPath id="clip0_2037_2286">
<rect width="23.9998" height="23.9998" fill="white"/>
</clipPath>
</defs>
</svg>
