<svg width="24" height="24" viewBox="0 0 24 24" fill="none" xmlns="http://www.w3.org/2000/svg">
<path fill-rule="evenodd" clip-rule="evenodd" d="M20.75 1.5C21.2141 1.5 21.6591 1.68451 21.9873 2.0127C22.3155 2.34088 22.5 2.78587 22.5 3.25V20.75C22.5 21.2141 22.3155 21.6591 21.9873 21.9873C21.6591 22.3155 21.2141 22.5 20.75 22.5H3.25C2.78587 22.5 2.34088 22.3155 2.0127 21.9873C1.68451 21.6591 1.5 21.2141 1.5 20.75V3.25C1.5 2.78587 1.68451 2.34088 2.0127 2.0127C2.34088 1.68451 2.78587 1.5 3.25 1.5H20.75ZM10.3145 6.75C9.90024 6.75 9.56445 7.08579 9.56445 7.5V16.5C9.56445 16.9142 9.90024 17.25 10.3145 17.25C10.7284 17.2497 11.0645 16.9141 11.0645 16.5V7.5C11.0645 7.08595 10.7284 6.75026 10.3145 6.75ZM13.6865 6.75C13.2723 6.75 12.9365 7.08579 12.9365 7.5V16.5C12.9365 16.9142 13.2723 17.25 13.6865 17.25C14.1005 17.2497 14.4365 16.9141 14.4365 16.5V7.5C14.4365 7.08595 14.1005 6.75026 13.6865 6.75ZM7.0918 9.96973C6.79898 9.67691 6.32416 9.67705 6.03125 9.96973C5.73853 10.2626 5.73841 10.7374 6.03125 11.0303L6.43848 11.4375H4.87402C4.45981 11.4375 4.12402 11.7733 4.12402 12.1875C4.12424 12.6015 4.45994 12.9375 4.87402 12.9375H6.43848L6.03125 13.3447C5.73853 13.6376 5.73841 14.1124 6.03125 14.4053C6.32412 14.6977 6.79904 14.6978 7.0918 14.4053L8.7793 12.7178C8.81055 12.6865 8.83675 12.6512 8.86133 12.6162C8.89255 12.5717 8.92033 12.5245 8.94141 12.4736C8.95502 12.4407 8.96394 12.4063 8.97266 12.3721C8.97583 12.3596 8.98086 12.3476 8.9834 12.335C8.9845 12.3295 8.98535 12.3239 8.98633 12.3184C8.99384 12.2758 8.999 12.2322 8.99902 12.1875C8.99902 12.1423 8.994 12.0977 8.98633 12.0547C8.98535 12.0492 8.9845 12.0436 8.9834 12.0381C8.98071 12.0248 8.97509 12.0121 8.97168 11.999C8.96307 11.9658 8.95461 11.9324 8.94141 11.9004C8.9203 11.8495 8.89357 11.8014 8.8623 11.7568C8.83785 11.7221 8.81035 11.6883 8.7793 11.6572L7.0918 9.96973ZM17.9697 9.96973C17.6769 9.67691 17.2021 9.67705 16.9092 9.96973L15.2217 11.6572C15.1906 11.6884 15.1632 11.722 15.1387 11.7568C15.1074 11.8014 15.0807 11.8494 15.0596 11.9004C15.0463 11.9324 15.0379 11.9658 15.0293 11.999C15.0259 12.0121 15.0203 12.0247 15.0176 12.0381C15.0165 12.0436 15.0156 12.0492 15.0146 12.0547C15.007 12.0977 15.002 12.1422 15.002 12.1875C15.002 12.2322 15.0071 12.2758 15.0146 12.3184C15.0156 12.3239 15.0165 12.3295 15.0176 12.335C15.0201 12.3476 15.0252 12.3597 15.0283 12.3721C15.037 12.4063 15.0459 12.4407 15.0596 12.4736C15.0807 12.5245 15.1084 12.5717 15.1396 12.6162C15.1642 12.6512 15.1904 12.6865 15.2217 12.7178L16.9092 14.4053C17.2021 14.6977 17.677 14.6978 17.9697 14.4053C18.2623 14.1125 18.2621 13.6376 17.9697 13.3447L17.5625 12.9375H19.127C19.5408 12.9372 19.8767 12.6014 19.877 12.1875C19.877 11.7734 19.5409 11.4378 19.127 11.4375H17.5625L17.9697 11.0303C18.2623 10.7375 18.2621 10.2626 17.9697 9.96973Z" fill="black"/>
</svg>
