<svg xmlns="http://www.w3.org/2000/svg" width="24" height="24" fill="currentColor" viewBox="0 0 24 24"><path d="M9.334 11.426a0.81 0.81 0 0 1 0 1.146l-3.24 3.24a0.81 0.81 0 0 1-1.384-0.573v-2.43H0.66a0.81 0.81 0 0 1 0-1.62h4.05V8.759a0.81 0.81 0 0 1 1.384-0.574z m14.006-0.236h-4.05V8.76a0.81 0.81 0 0 0-1.384-0.574l-3.24 3.24a0.81 0.81 0 0 0 0 1.146l3.24 3.24a0.81 0.81 0 0 0 1.384-0.573v-2.43h4.05a0.81 0.81 0 0 0 0-1.62zM12 2.28a0.81 0.81 0 0 0-0.81 0.81v17.82a0.81 0.81 0 0 0 1.62 0V3.09A0.81 0.81 0 0 0 12 2.28"/></svg>