<svg width="24" height="24" viewBox="0 0 24 24" fill="none" xmlns="http://www.w3.org/2000/svg">
<path d="M11.999 2.24951C10.0706 2.24951 8.18555 2.82133 6.58218 3.89267C4.97882 4.96401 3.72915 6.48674 2.9912 8.2683C2.25325 10.0499 2.06017 12.0103 2.43637 13.9016C2.81257 15.7929 3.74116 17.5301 5.10471 18.8937C6.46827 20.2572 8.20554 21.1858 10.0968 21.562C11.9881 21.9382 13.9485 21.7451 15.7301 21.0072C17.5117 20.2692 19.0344 19.0196 20.1057 17.4162C21.1771 15.8128 21.7489 13.9278 21.7489 11.9994C21.7461 9.41443 20.7181 6.93609 18.8902 5.10821C17.0623 3.28034 14.584 2.25224 11.999 2.24951ZM15.7489 12.7494H8.24898C8.05007 12.7494 7.85931 12.6704 7.71866 12.5298C7.578 12.3891 7.49899 12.1983 7.49899 11.9994C7.49899 11.8005 7.578 11.6098 7.71866 11.4691C7.85931 11.3285 8.05007 11.2494 8.24898 11.2494H15.7489C15.9478 11.2494 16.1386 11.3285 16.2793 11.4691C16.4199 11.6098 16.4989 11.8005 16.4989 11.9994C16.4989 12.1983 16.4199 12.3891 16.2793 12.5298C16.1386 12.6704 15.9478 12.7494 15.7489 12.7494Z" fill="black"/>
</svg>
