<svg viewBox="0 0 24 24" fill="none" xmlns="http://www.w3.org/2000/svg" width="24" height="24">
<path d="M11.198 3.091C11.198 2.644 11.56 2.28 12.008 2.28 12.455 2.28 12.817 2.644 12.817 3.091L12.817 20.911C12.817 21.358 12.455 21.721 12.008 21.721 11.56 21.721 11.198 21.358 11.198 20.911L11.198 3.091Z" fill="black"/>
<path d="M3.701 5.41C3.701 4.913 4.104 4.51 4.601 4.51H8.072C8.57 4.51 8.972 4.913 8.972 5.41V18.595C8.972 19.092 8.57 19.495 8.072 19.495H4.601C4.104 19.495 3.701 19.092 3.701 18.595V5.41Z" fill="black"/>
<path d="M8.162 5.41C8.162 5.361 8.122 5.32 8.073 5.32H4.601C4.551 5.32 4.511 5.361 4.511 5.41V18.595C4.511 18.645 4.551 18.685 4.601 18.685H8.073C8.122 18.685 8.162 18.645 8.162 18.595V5.41ZM9.783 18.595C9.783 19.539 9.017 20.304 8.073 20.305H4.601C3.656 20.305 2.891 19.539 2.891 18.595V5.41C2.891 4.466 3.656 3.701 4.601 3.701H8.073C9.017 3.701 9.783 4.466 9.783 5.41V18.595Z" fill="black"/>
<path d="M15.046 5.407C15.046 4.91 15.449 4.507 15.946 4.507H19.418C19.915 4.507 20.318 4.91 20.318 5.407V18.592C20.318 19.089 19.915 19.492 19.418 19.492H15.946C15.449 19.492 15.046 19.089 15.046 18.592V5.407Z" fill="black"/>
<path d="M19.508 5.407C19.508 5.357 19.468 5.317 19.419 5.317H15.946C15.897 5.317 15.856 5.357 15.856 5.407V18.592C15.856 18.641 15.897 18.682 15.946 18.682H19.419C19.468 18.681 19.508 18.641 19.508 18.592V5.407ZM21.128 18.592C21.128 19.536 20.363 20.301 19.419 20.301H15.946C15.002 20.301 14.237 19.536 14.237 18.592V5.407C14.237 4.462 15.002 3.697 15.946 3.697H19.419C20.363 3.697 21.128 4.463 21.128 5.407V18.592Z" fill="black"/>
</svg>