<svg width="24" height="24" viewBox="0 0 24 24" fill="none" xmlns="http://www.w3.org/2000/svg">
<path d="M16.4989 1.49902H7.49895C6.90221 1.49902 6.32992 1.73607 5.90797 2.15803C5.48601 2.57998 5.24896 3.15227 5.24896 3.74901V20.2489C5.24896 20.8456 5.48601 21.4179 5.90797 21.8399C6.32992 22.2618 6.90221 22.4989 7.49895 22.4989H16.4989C17.0956 22.4989 17.6679 22.2618 18.0899 21.8399C18.5118 21.4179 18.7489 20.8456 18.7489 20.2489V3.74901C18.7489 3.15227 18.5118 2.57998 18.0899 2.15803C17.6679 1.73607 17.0956 1.49902 16.4989 1.49902ZM7.49895 2.99901H16.4989C16.6978 2.99901 16.8886 3.07803 17.0292 3.21868C17.1699 3.35933 17.2489 3.5501 17.2489 3.74901V4.499H6.74895V3.74901C6.74895 3.5501 6.82797 3.35933 6.96862 3.21868C7.10927 3.07803 7.30003 2.99901 7.49895 2.99901ZM16.4989 20.9989H7.49895C7.30003 20.9989 7.10927 20.9199 6.96862 20.7792C6.82797 20.6386 6.74895 20.4478 6.74895 20.2489V19.4989H17.2489V20.2489C17.2489 20.4478 17.1699 20.6386 17.0292 20.7792C16.8886 20.9199 16.6978 20.9989 16.4989 20.9989Z" fill="black"/>
</svg>
