<svg width="24" height="24" viewBox="0 0 24 24" fill="none" xmlns="http://www.w3.org/2000/svg">
<path fill-rule="evenodd" clip-rule="evenodd" d="M7.63232 2.25C6.80389 2.25 6.13232 2.92157 6.13232 3.75V5.25H18.1323V3.75C18.1323 2.92157 17.4607 2.25 16.6323 2.25H7.63232ZM1.49902 12.0381C1.49902 10.6009 1.88055 9.18878 2.60449 7.94727C2.81321 7.58967 3.27216 7.46918 3.62988 7.67773C3.98767 7.88636 4.10895 8.34532 3.90039 8.70312C3.31019 9.71529 2.99902 10.8664 2.99902 12.0381C2.99909 13.2096 3.31026 14.36 3.90039 15.3721C4.10904 15.7299 3.98769 16.1888 3.62988 16.3975C3.2721 16.6061 2.81318 16.4856 2.60449 16.1279C1.88062 14.8865 1.49909 13.4751 1.49902 12.0381ZM20.9951 12.0371C20.995 10.8657 20.6848 9.71512 20.0947 8.70312C19.8861 8.34543 20.0067 7.88649 20.3643 7.67773C20.7221 7.46908 21.182 7.58944 21.3906 7.94727C22.1145 9.18865 22.495 10.6001 22.4951 12.0371C22.4951 13.4743 22.1146 14.8864 21.3906 16.1279C21.182 16.4857 20.7221 16.6061 20.3643 16.3975C20.0067 16.1887 19.8861 15.7298 20.0947 15.3721C20.6849 14.3599 20.9951 13.2087 20.9951 12.0371ZM17.3818 3.75C17.3818 3.33579 17.0461 3 16.6318 3H7.63184C7.21784 3.00026 6.88184 3.33595 6.88184 3.75V4.5H17.3818V3.75Z" fill="black"/>
<path fill-rule="evenodd" clip-rule="evenodd" d="M16.6318 3C17.0461 3 17.3818 3.33579 17.3818 3.75V4.5H6.88184V3.75C6.88184 3.33595 7.21784 3.00026 7.63184 3H16.6318ZM6.13232 3.75V5.25H18.1323V3.75C18.1323 2.92157 17.4607 2.25 16.6323 2.25H7.63232C6.80389 2.25 6.13232 2.92157 6.13232 3.75Z" fill="black"/>
<path fill-rule="evenodd" clip-rule="evenodd" d="M18.8818 20.25C18.8818 21.4926 17.8745 22.5 16.6318 22.5H7.63184C6.38942 22.4997 5.38184 21.4925 5.38184 20.25V3.75C5.38184 2.50752 6.38942 1.50026 7.63184 1.5H16.6318C17.8745 1.5 18.8818 2.50736 18.8818 3.75V20.25ZM6.13232 5.25V3.75C6.13232 2.92157 6.80389 2.25 7.63232 2.25H16.6323C17.4607 2.25 18.1323 2.92157 18.1323 3.75V5.25H6.13232ZM17.3818 19.5H6.88184V20.25C6.88184 20.6641 7.21784 20.9997 7.63184 21H16.6318C17.046 21 17.3818 20.6642 17.3818 20.25V19.5Z" fill="black"/>
</svg>
