<?xml version="1.0" encoding="UTF-8"?>
<svg width="512" height="512" viewBox="0 0 512 512" fill="none" xmlns="http://www.w3.org/2000/svg">
<path d="M384 64V448C384 465.6 369.6 480 352 480H160C146.43 480 134.76 471.44 130.13 459.44C128.75 455.89 128 452.03 128 448V64C128 59.97 128.75 56.11 130.13 52.56C134.76 40.56 146.43 32 160 32H352C369.6 32 384 46.4 384 64ZM160 352H352V64.06L351.94 64H160.06L160 64.06V352ZM352 384H160V447.94L160.06 448H351.94L352 447.94V384ZM272 416C272 407.16 264.84 400 256 400C247.16 400 240 407.16 240 416C240 424.84 247.16 432 256 432C264.84 432 272 424.84 272 416Z" fill="black"/>
</svg>
