<?xml version="1.0" encoding="UTF-8"?>
<svg width="512" height="512" viewBox="0 0 512 512" fill="none" xmlns="http://www.w3.org/2000/svg">
<path d="M352 32H160C146.43 32 134.76 40.56 130.13 52.56C128.75 56.11 128 59.97 128 64V448C128 452.03 128.75 455.89 130.13 459.44C134.76 471.44 146.43 480 160 480H352C369.6 480 384 465.6 384 448V64C384 46.4 369.6 32 352 32ZM256 432C247.16 432 240 424.84 240 416C240 407.16 247.16 400 256 400C264.84 400 272 407.16 272 416C272 424.84 264.84 432 256 432ZM352 352H160V64.06L160.06 64H351.94L352 64.06V352ZM496 256C496 286.67 489.84 315.91 478.67 342.53C477.46 345.4 475.46 347.77 472.97 349.42C470.48 351.07 467.52 352 464.4 352C453.32 352 445.88 340.71 450.16 330.49C459.9 307.21 465 282 465 256C465 230 459.9 204.79 450.16 181.51C445.88 171.29 453.32 160 464.4 160C470.63 160 476.26 163.73 478.67 169.47C489.84 196.09 496 225.33 496 256ZM440 256C440 276.05 436.49 295.29 430.04 313.12C424.15 329.41 400 325.14 400 307.82C400 305.99 400.34 304.18 400.96 302.46C406.24 287.74 409 272.09 409 256C409 239.91 406.24 224.26 400.96 209.54C400.34 207.82 400 206.01 400 204.18C400 186.86 424.15 182.59 430.04 198.88C436.49 216.71 440 235.95 440 256ZM61.84 330.49C66.12 340.71 58.68 352 47.6 352C41.37 352 35.74 348.27 33.33 342.53C22.16 315.91 16 286.67 16 256C16 225.33 22.16 196.09 33.33 169.47C34.54 166.6 36.54 164.23 39.03 162.58C41.52 160.93 44.48 160 47.6 160C58.68 160 66.12 171.29 61.84 181.51C52.1 204.79 47 230 47 256C47 282 52.1 307.21 61.84 330.49ZM111.04 302.46C111.66 304.18 112 305.99 112 307.82C112 325.14 87.85 329.41 81.96 313.12C75.51 295.29 72 276.05 72 256C72 235.95 75.51 216.71 81.96 198.88C87.85 182.59 112 186.86 112 204.18C112 206.01 111.66 207.82 111.04 209.54C105.76 224.26 103 239.91 103 256C103 272.09 105.76 287.74 111.04 302.46Z" fill="black"/>
</svg>
