<svg xmlns="http://www.w3.org/2000/svg" fill="currentColor" viewBox="0 0 24 24" width="24" height="24"><path d="M16.05 21.72a0.81 0.81 0 0 1-0.81 0.81H8.76a0.81 0.81 0 0 1 0-1.62h6.48a0.81 0.81 0 0 1 0.81 0.81m6.48-16.2v11.34a2.43 2.43 0 0 1-2.43 2.43H3.9a2.43 2.43 0 0 1-2.43-2.43V5.52A2.43 2.43 0 0 1 3.9 3.09h16.2A2.43 2.43 0 0 1 22.53 5.52m-6.886 5.67a0.816 0.816 0 0 0-0.345-0.664l-4.05-2.835a0.81 0.81 0 0 0-1.275 0.663v5.67a0.81 0.81 0 0 0 1.275 0.664l4.05-2.836a0.816 0.816 0 0 0 0.345-0.663z"/></svg>