<svg width="24" height="24" viewBox="0 0 24 24" fill="none" xmlns="http://www.w3.org/2000/svg">
<path d="M15.8806 21.0013C15.8806 21.2002 15.8016 21.391 15.661 21.5317C15.5203 21.6723 15.3296 21.7513 15.1306 21.7513H9.13069C8.93178 21.7513 8.74101 21.6723 8.60036 21.5317C8.45971 21.391 8.38069 21.2002 8.38069 21.0013C8.38069 20.8024 8.45971 20.6117 8.60036 20.471C8.74101 20.3304 8.93178 20.2513 9.13069 20.2513H15.1306C15.3296 20.2513 15.5203 20.3304 15.661 20.471C15.8016 20.6117 15.8806 20.8024 15.8806 21.0013ZM21.8806 6.00145V16.5014C21.8806 17.0981 21.6435 17.6704 21.2216 18.0923C20.7996 18.5143 20.2273 18.7514 19.6306 18.7514H4.63072C4.03399 18.7514 3.4617 18.5143 3.03974 18.0923C2.61779 17.6704 2.38074 17.0981 2.38074 16.5014V6.00145C2.38074 5.40472 2.61779 4.83242 3.03974 4.41047C3.4617 3.98852 4.03399 3.75146 4.63072 3.75146H19.6306C20.2273 3.75146 20.7996 3.98852 21.2216 4.41047C21.6435 4.83242 21.8806 5.40472 21.8806 6.00145Z" fill="black"/>
</svg>
