<svg width="24" height="24" viewBox="0 0 24 24" fill="none" xmlns="http://www.w3.org/2000/svg">
<path d="M15.7489 21.0021C15.7489 21.201 15.6699 21.3917 15.5293 21.5324C15.3886 21.673 15.1978 21.7521 14.9989 21.7521H8.99897C8.80006 21.7521 8.6093 21.673 8.46865 21.5324C8.32799 21.3917 8.24898 21.201 8.24898 21.0021C8.24898 20.8032 8.32799 20.6124 8.46865 20.4717C8.6093 20.3311 8.80006 20.2521 8.99897 20.2521H14.9989C15.1978 20.2521 15.3886 20.3311 15.5293 20.4717C15.6699 20.6124 15.7489 20.8032 15.7489 21.0021ZM21.7489 6.00218V16.5021C21.7489 17.0988 21.5118 17.6711 21.0899 18.0931C20.6679 18.515 20.0956 18.7521 19.4989 18.7521H4.49901C3.90227 18.7521 3.32998 18.515 2.90803 18.0931C2.48607 17.6711 2.24902 17.0988 2.24902 16.5021V6.00218C2.24902 5.40545 2.48607 4.83316 2.90803 4.4112C3.32998 3.98925 3.90227 3.7522 4.49901 3.7522H19.4989C20.0956 3.7522 20.6679 3.98925 21.0899 4.4112C21.5118 4.83316 21.7489 5.40545 21.7489 6.00218ZM14.7796 9.97152L12.5296 7.72154C12.4599 7.65181 12.3772 7.59649 12.2862 7.55875C12.1951 7.52101 12.0975 7.50158 11.9989 7.50158C11.9004 7.50158 11.8028 7.52101 11.7117 7.55875C11.6207 7.59649 11.538 7.65181 11.4683 7.72154L9.21834 9.97152C9.07762 10.1123 8.99856 10.3031 8.99856 10.5021C8.99856 10.7012 9.07762 10.892 9.21834 11.0328C9.35907 11.1735 9.54994 11.2526 9.74897 11.2526C9.94799 11.2526 10.1389 11.1735 10.2796 11.0328L11.249 10.0625V14.2521C11.249 14.451 11.328 14.6418 11.4686 14.7824C11.6093 14.9231 11.8 15.0021 11.9989 15.0021C12.1979 15.0021 12.3886 14.9231 12.5293 14.7824C12.6699 14.6418 12.7489 14.451 12.7489 14.2521V10.0625L13.7183 11.0328C13.788 11.1024 13.8707 11.1577 13.9618 11.1954C14.0528 11.2331 14.1504 11.2526 14.2489 11.2526C14.3475 11.2526 14.4451 11.2331 14.5361 11.1954C14.6271 11.1577 14.7099 11.1024 14.7796 11.0328C14.8492 10.9631 14.9045 10.8804 14.9422 10.7893C14.9799 10.6983 14.9993 10.6007 14.9993 10.5021C14.9993 10.4036 14.9799 10.306 14.9422 10.215C14.9045 10.1239 14.8492 10.0412 14.7796 9.97152Z" fill="black"/>
</svg>
