<svg width="24" height="24" viewBox="0 0 24 24" fill="none" xmlns="http://www.w3.org/2000/svg">
<path d="M14.999 1.49829H8.99901C8.60119 1.49829 8.21966 1.65633 7.93836 1.93763C7.65706 2.21893 7.49902 2.60046 7.49902 2.99828V20.9981C7.49902 21.396 7.65706 21.7775 7.93836 22.0588C8.21966 22.3401 8.60119 22.4981 8.99901 22.4981H14.999C15.3968 22.4981 15.7783 22.3401 16.0596 22.0588C16.3409 21.7775 16.499 21.396 16.499 20.9981V2.99828C16.499 2.60046 16.3409 2.21893 16.0596 1.93763C15.7783 1.65633 15.3968 1.49829 14.999 1.49829ZM11.999 19.4982C11.7765 19.4982 11.559 19.4322 11.374 19.3086C11.189 19.1849 11.0448 19.0092 10.9596 18.8037C10.8745 18.5981 10.8522 18.3719 10.8956 18.1537C10.939 17.9355 11.0462 17.735 11.2035 17.5777C11.3608 17.4203 11.5613 17.3132 11.7795 17.2698C11.9977 17.2264 12.2239 17.2487 12.4295 17.3338C12.6351 17.419 12.8108 17.5631 12.9344 17.7482C13.058 17.9332 13.124 18.1507 13.124 18.3732C13.124 18.6715 13.0055 18.9577 12.7945 19.1687C12.5835 19.3796 12.2974 19.4982 11.999 19.4982ZM11.999 13.1232C11.7765 13.1232 11.559 13.0572 11.374 12.9336C11.189 12.81 11.0448 12.6343 10.9596 12.4287C10.8745 12.2232 10.8522 11.997 10.8956 11.7787C10.939 11.5605 11.0462 11.3601 11.2035 11.2027C11.3608 11.0454 11.5613 10.9382 11.7795 10.8948C11.9977 10.8514 12.2239 10.8737 12.4295 10.9589C12.6351 11.044 12.8108 11.1882 12.9344 11.3732C13.058 11.5582 13.124 11.7757 13.124 11.9982C13.124 12.2966 13.0055 12.5827 12.7945 12.7937C12.5835 13.0047 12.2974 13.1232 11.999 13.1232ZM11.999 6.74825C11.7765 6.74825 11.559 6.68227 11.374 6.55866C11.189 6.43504 11.0448 6.25934 10.9596 6.05378C10.8745 5.84821 10.8522 5.62201 10.8956 5.40378C10.939 5.18556 11.0462 4.9851 11.2035 4.82777C11.3608 4.67044 11.5613 4.56329 11.7795 4.51988C11.9977 4.47648 12.2239 4.49875 12.4295 4.5839C12.6351 4.66905 12.8108 4.81324 12.9344 4.99825C13.058 5.18325 13.124 5.40076 13.124 5.62326C13.124 5.92163 13.0055 6.20777 12.7945 6.41875C12.5835 6.62973 12.2974 6.74825 11.999 6.74825Z" fill="black"/>
</svg>
