<svg width="24" height="24" viewBox="0 0 24 24" fill="none" xmlns="http://www.w3.org/2000/svg">
<path d="M13.499 1.49805H10.499C8.90822 1.49978 7.38312 2.13248 6.25829 3.25731C5.13345 4.38214 4.50076 5.90725 4.49902 7.498V16.4979C4.50076 18.0887 5.13345 19.6138 6.25829 20.7386C7.38312 21.8635 8.90822 22.4961 10.499 22.4979H13.499C15.0897 22.4961 16.6148 21.8635 17.7396 20.7386C18.8645 19.6138 19.4972 18.0887 19.4989 16.4979V7.498C19.4972 5.90725 18.8645 4.38214 17.7396 3.25731C16.6148 2.13248 15.0897 1.49978 13.499 1.49805ZM13.7183 15.2173C13.8591 15.0766 14.0499 14.9975 14.2489 14.9975C14.448 14.9975 14.6388 15.0766 14.7796 15.2173C14.9203 15.358 14.9994 15.5489 14.9994 15.7479C14.9994 15.947 14.9203 16.1378 14.7796 16.2786L12.5296 18.5285C12.4599 18.5983 12.3772 18.6536 12.2862 18.6913C12.1951 18.7291 12.0975 18.7485 11.999 18.7485C11.9004 18.7485 11.8028 18.7291 11.7118 18.6913C11.6207 18.6536 11.538 18.5983 11.4683 18.5285L9.21836 16.2786C9.07763 16.1378 8.99857 15.947 8.99857 15.7479C8.99857 15.5489 9.07763 15.358 9.21836 15.2173C9.35909 15.0766 9.54996 14.9975 9.74898 14.9975C9.948 14.9975 10.1389 15.0766 10.2796 15.2173L11.249 16.1876V7.80831L10.2796 8.77862C10.1389 8.91935 9.948 8.99841 9.74898 8.99841C9.54996 8.99841 9.35909 8.91935 9.21836 8.77862C9.07763 8.63789 8.99857 8.44702 8.99857 8.248C8.99857 8.04897 9.07763 7.8581 9.21836 7.71737L11.4683 5.46739C11.538 5.39766 11.6207 5.34234 11.7118 5.3046C11.8028 5.26686 11.9004 5.24743 11.999 5.24743C12.0975 5.24743 12.1951 5.26686 12.2862 5.3046C12.3772 5.34234 12.4599 5.39766 12.5296 5.46739L14.7796 7.71737C14.8493 7.78706 14.9045 7.86978 14.9422 7.96083C14.9799 8.05187 14.9994 8.14945 14.9994 8.248C14.9994 8.34654 14.9799 8.44412 14.9422 8.53517C14.9045 8.62621 14.8493 8.70893 14.7796 8.77862C14.7099 8.8483 14.6272 8.90357 14.5361 8.94129C14.4451 8.979 14.3475 8.99841 14.2489 8.99841C14.1504 8.99841 14.0528 8.979 13.9618 8.94129C13.8707 8.90357 13.788 8.8483 13.7183 8.77862L12.749 7.80831V16.1876L13.7183 15.2173Z" fill="black"/>
</svg>
