<svg xmlns="http://www.w3.org/2000/svg" fill="currentColor" viewBox="0 0 24 24" width="24" height="24"><path d="M13.62 0.66h-3.24a6.487 6.487 0 0 0-6.48 6.48v9.72a6.487 6.487 0 0 0 6.48 6.48h3.24a6.487 6.487 0 0 0 6.48-6.48v-9.72a6.487 6.487 0 0 0-6.48-6.48m0.236 14.816a0.81 0.81 0 0 1 1.146 1.146l-2.43 2.43a0.81 0.81 0 0 1-1.146 0l-2.43-2.43a0.81 0.81 0 0 1 1.146-1.146l1.047 1.048V7.475l-1.047 1.047a0.81 0.81 0 0 1-1.146-1.146l2.43-2.43a0.81 0.81 0 0 1 1.146 0l2.43 2.43a0.81 0.81 0 0 1-1.146 1.146l-1.046-1.047v9.049z"/></svg>