<svg width="24" height="24" viewBox="0 0 24 24" fill="none" xmlns="http://www.w3.org/2000/svg">
<path d="M13.5 1.5H10.5C8.90923 1.50174 7.38412 2.13444 6.25928 3.25928C5.13444 4.38412 4.50174 5.90923 4.5 7.5V16.5C4.50174 18.0908 5.13444 19.6159 6.25928 20.7407C7.38412 21.8656 8.90923 22.4983 10.5 22.5H13.5C15.0908 22.4983 16.6159 21.8656 17.7407 20.7407C18.8656 19.6159 19.4983 18.0908 19.5 16.5V7.5C19.4983 5.90923 18.8656 4.38412 17.7407 3.25928C16.6159 2.13444 15.0908 1.50174 13.5 1.5ZM10.5 3H12V9.75H6V7.5C6.00124 6.30691 6.47575 5.16303 7.31939 4.31939C8.16303 3.47575 9.30691 3.00124 10.5 3ZM13.5 21H10.5C9.30691 20.9988 8.16303 20.5243 7.31939 19.6806C6.47575 18.837 6.00124 17.6931 6 16.5V11.25H18V16.5C17.9988 17.6931 17.5243 18.837 16.6806 19.6806C15.837 20.5243 14.6931 20.9988 13.5 21Z" fill="black"/>
</svg>
