<svg width="24" height="24" viewBox="0 0 24 24" fill="none" xmlns="http://www.w3.org/2000/svg">
<path d="M19.9601 1.65644C19.8703 1.58644 19.7657 1.53781 19.6543 1.51426C19.5428 1.49071 19.4275 1.49284 19.317 1.5205L7.31711 4.52048C7.15486 4.56104 7.01081 4.65466 6.90788 4.78648C6.80494 4.91829 6.74901 5.08073 6.74899 5.24797V15.5679C6.12334 15.1499 5.37593 14.9529 4.62552 15.0083C3.8751 15.0637 3.16472 15.3683 2.60724 15.8737C2.04977 16.379 1.67716 17.0562 1.54863 17.7976C1.4201 18.539 1.54301 19.3021 1.89785 19.9656C2.25268 20.6292 2.81908 21.1551 3.50705 21.4599C4.19503 21.7646 4.96512 21.8308 5.69497 21.6477C6.42483 21.4647 7.07258 21.043 7.53532 20.4496C7.99807 19.8563 8.24925 19.1253 8.24898 18.3729V5.83391L18.7489 3.20893V12.5679C18.1232 12.1499 17.3758 11.9529 16.6254 12.0083C15.875 12.0637 15.1646 12.3683 14.6072 12.8737C14.0497 13.3791 13.6771 14.0562 13.5485 14.7976C13.42 15.539 13.5429 16.3021 13.8978 16.9657C14.2526 17.6292 14.819 18.1551 15.507 18.4599C16.1949 18.7647 16.965 18.8308 17.6949 18.6477C18.4247 18.4647 19.0725 18.043 19.5352 17.4497C19.998 16.8563 20.2492 16.1254 20.2489 15.3729V2.248C20.2489 2.13393 20.2229 2.02135 20.1729 1.91885C20.1228 1.81634 20.0501 1.72659 19.9601 1.65644Z" fill="black"/>
</svg>
