<svg xmlns="http://www.w3.org/2000/svg" width="24" height="24" fill="currentColor" viewBox="0 0 24 24"><path d="M20.91 3.09H3.09a1.62 1.62 0 0 0-1.62 1.62v14.58a1.62 1.62 0 0 0 1.62 1.62h17.82a1.62 1.62 0 0 0 1.62-1.62V4.71a1.62 1.62 0 0 0-1.62-1.62m-1.187 11.773a4.05 4.05 0 0 1-5.711 0.017l-5.122-4.567-0.029-0.035a2.43 2.43 0 1 0 0 3.443q0.055-0.055 0.101-0.112a0.81 0.81 0 1 1 1.214 1.073 4.8 4.8 0 0 1-0.173 0.184 4.05 4.05 0 1 1-0.017-5.745l5.122 4.567 0.034 0.032a2.43 2.43 0 1 0-0.004-3.443q-0.055 0.054-0.101 0.111a0.81 0.81 0 0 1-1.214-1.072q0.084-0.096 0.173-0.185a4.05 4.05 0 0 1 5.727 5.726z"/></svg>