<?xml version="1.0" encoding="utf-8"?>
<svg xmlns="http://www.w3.org/2000/svg" width="512" height="512" viewBox="0 0 512 512">
<path d="M196 270.63H221.54V232.58L196 270.63ZM196 270.63H221.54V232.58L196 270.63ZM256 32C132.29 32 32 132.29 32 256C32 379.71 132.29 480 256 480C379.71 480 480 379.71 480 256C480 132.29 379.71 32 256 32ZM172.91 292.19V312H97.04C97.04 312 97.05 311.94 97.05 311.91C97.26 310.08 97.56 308.28 97.96 306.5C97.97 306.48 97.97 306.47 97.97 306.46C99.2 300.99 101.36 295.73 104.44 290.7C108.55 283.99 116.66 275.1 128.78 264.01C138.53 255.04 144.52 248.96 146.73 245.78C149.7 241.37 151.2 237.01 151.2 232.71C151.2 227.95 149.9 224.3 147.3 221.73C144.71 219.18 141.13 217.9 136.56 217.9C134.43 217.9 132.51 218.2 130.79 218.8C128.86 219.47 127.19 220.5 125.77 221.92C123.3 224.42 121.79 228.45 121.26 234.01C121.21 234.43 121.18 234.86 121.15 235.3L120.56 235.24L99.59 233.17C100.87 221.42 104.9 212.99 111.68 207.88C118.46 202.77 126.93 200.2 137.1 200.2C139.89 200.2 142.52 200.39 145.01 200.76C152.47 201.87 158.59 204.65 163.37 209.09C169.72 215.01 172.91 222.38 172.91 231.19C172.91 236.21 172 240.98 170.18 245.51C168.36 250.04 165.47 254.78 161.51 259.75C158.89 263.04 154.17 267.78 147.34 273.95C140.52 280.13 136.18 284.23 134.37 286.26C132.54 288.28 131.06 290.26 129.94 292.19H172.91ZM255.95 289.39H242.16V311.8H221.54V289.39H176.06V270.7L224.27 200H242.16V270.63H255.95V289.39ZM288.96 311.91H272.99L304.93 200.11H320.91L288.96 311.91ZM396.05 241.86C389.64 253.15 384.76 265.15 381.4 277.85C378.04 290.56 376.39 301.91 376.44 311.91H355.26C355.63 296.24 358.9 280.26 365.07 263.97C371.24 247.69 379.48 233.12 389.8 220.29H339.87V200.11H414.96V215.88C408.76 221.91 402.46 230.57 396.05 241.86ZM221.54 270.63V232.58L196 270.63H221.54Z" fill="black"/>
</svg>
