<svg width="24" height="24" viewBox="0 0 24 24" fill="none" xmlns="http://www.w3.org/2000/svg">
<path d="M20.25 12C20.25 11.5857 20.5858 11.25 21 11.25C21.4142 11.25 21.75 11.5857 21.75 12C21.75 13.5989 21.1824 15.1396 20.1592 16.3525L20.1572 16.3554L20.1387 16.3769C19.8701 16.6922 19.3964 16.7304 19.0811 16.4619C18.7657 16.1933 18.7285 15.7196 18.9971 15.4042L19.0127 15.3847C19.8085 14.4414 20.25 13.2435 20.25 12ZM2.25 12C2.25001 10.2097 2.9607 8.49238 4.22656 7.22651C4.65585 6.79723 5.13698 6.43129 5.65527 6.13569L3.94531 4.25484C3.66679 3.94846 3.68895 3.47394 3.99512 3.19526C4.3015 2.91674 4.77602 2.9389 5.05469 3.24507L7.33691 5.75484C7.43233 5.81977 7.51327 5.90692 7.57129 6.01265L20.0547 19.7451C20.3332 20.0514 20.3111 20.526 20.0049 20.8046C19.6985 21.0832 19.224 21.061 18.9453 20.7548L16.8779 18.4814C16.2728 18.6568 15.6413 18.75 15 18.75H6V20.25C6 20.5533 5.81737 20.8272 5.53711 20.9433C5.25687 21.0594 4.93421 20.9947 4.71973 20.7802L2.46973 18.5302C2.17683 18.2373 2.17683 17.7626 2.46973 17.4697L4.71973 15.2197C4.93421 15.0052 5.25687 14.9406 5.53711 15.0566C5.81737 15.1727 6 15.4466 6 15.75V17.25H15L15.2354 17.2451C15.3961 17.2379 15.5556 17.2219 15.7139 17.2001L6.69727 7.28218C6.1798 7.53474 5.70295 7.87317 5.28809 8.28804C4.30352 9.2726 3.75001 10.6076 3.75 12C3.75 12.4142 3.41421 12.75 3 12.75C2.58579 12.75 2.25 12.4142 2.25 12ZM18.4629 3.05659C18.7431 2.94055 19.0658 3.0052 19.2803 3.21968L21.5303 5.46968C21.8232 5.76257 21.8232 6.23733 21.5303 6.53023L19.2803 8.78023C19.0658 8.9947 18.7431 9.05935 18.4629 8.94331C18.1826 8.82723 18 8.5533 18 8.24995V6.74995H10.1016C9.68735 6.74995 9.35156 6.41417 9.35156 5.99995C9.35156 5.58574 9.68735 5.24995 10.1016 5.24995H18V3.74995C18 3.44661 18.1826 3.17268 18.4629 3.05659Z" fill="black"/>
</svg>
