<svg viewBox="0 0 24 24" fill="none" xmlns="http://www.w3.org/2000/svg" width="24" height="24">
<path fill-rule="evenodd" clip-rule="evenodd" d="M1.47 12C1.472 10.067 2.241 8.214 3.608 6.848 4.441 6.015 5.454 5.404 6.556 5.053L7.793 6.414C6.649 6.613 5.585 7.16 4.753 7.992 3.69 9.055 3.092 10.497 3.09 12 3.09 12.215 3.005 12.421 2.853 12.573 2.701 12.725 2.495 12.81 2.28 12.81 2.065 12.81 1.859 12.725 1.707 12.573 1.556 12.421 1.47 12.215 1.47 12ZM18.48 6.33H10.715C10.268 6.33 9.905 5.938 9.903 5.491 9.9 5.044 10.263 4.71 10.71 4.71H18.48V3.09C18.48 2.93 18.528 2.773 18.616 2.64 18.705 2.506 18.832 2.402 18.98 2.341 19.128 2.28 19.291 2.264 19.448 2.295 19.606 2.326 19.75 2.403 19.863 2.517L22.293 4.947C22.369 5.022 22.428 5.111 22.469 5.21 22.51 5.308 22.531 5.413 22.531 5.52 22.531 5.626 22.51 5.732 22.469 5.83 22.428 5.928 22.369 6.018 22.293 6.093L19.863 8.523C19.75 8.636 19.606 8.714 19.448 8.745 19.291 8.776 19.128 8.76 18.98 8.699 18.832 8.638 18.705 8.534 18.616 8.4 18.528 8.267 18.48 8.11 18.48 7.95V6.33ZM21.72 11.19C21.505 11.19 21.299 11.275 21.147 11.427 20.996 11.579 20.91 11.785 20.91 12 20.909 13.503 20.311 14.944 19.248 16.007 19.152 16.103 19.054 16.194 18.953 16.282L20.042 17.48C20.162 17.375 20.279 17.266 20.393 17.152 21.759 15.786 22.528 13.933 22.53 12 22.53 11.785 22.445 11.579 22.293 11.427 22.141 11.275 21.935 11.19 21.72 11.19ZM15.24 17.67C16.051 17.669 16.844 17.495 17.569 17.167L18.702 18.413C17.648 18.982 16.46 19.289 15.24 19.29H5.52V20.91C5.52 21.07 5.473 21.227 5.384 21.36 5.295 21.494 5.168 21.597 5.02 21.659 4.872 21.72 4.709 21.736 4.552 21.705 4.395 21.674 4.25 21.596 4.137 21.483L1.707 19.053C1.632 18.978 1.572 18.888 1.531 18.79 1.491 18.692 1.47 18.586 1.47 18.48 1.47 18.373 1.491 18.268 1.531 18.17 1.572 18.071 1.632 17.982 1.707 17.907L4.137 15.477C4.25 15.363 4.395 15.286 4.552 15.255 4.709 15.224 4.872 15.24 5.02 15.301 5.168 15.362 5.295 15.466 5.384 15.6 5.473 15.733 5.52 15.89 5.52 16.05V17.67H15.24Z" fill="black"/>
<path d="M3.355 2.728C3.686 2.427 4.198 2.451 4.499 2.782L20.699 20.601C21 20.932 20.976 21.445 20.645 21.746 20.314 22.047 19.802 22.022 19.501 21.691L3.301 3.872C3 3.541 3.024 3.029 3.355 2.728Z" fill="black"/>
</svg>