<svg width="24" height="24" viewBox="0 0 24 24" fill="none" xmlns="http://www.w3.org/2000/svg">
<path d="M19.4989 2.99756H4.49901C4.10119 2.99756 3.71966 3.15559 3.43836 3.4369C3.15706 3.7182 2.99902 4.09973 2.99902 4.49755V19.4974C2.99902 19.8953 3.15706 20.2768 3.43836 20.5581C3.71966 20.8394 4.10119 20.9974 4.49901 20.9974H19.4989C19.8967 20.9974 20.2782 20.8394 20.5595 20.5581C20.8409 20.2768 20.9989 19.8953 20.9989 19.4974V4.49755C20.9989 4.09973 20.8409 3.7182 20.5595 3.4369C20.2782 3.15559 19.8967 2.99756 19.4989 2.99756ZM17.2489 13.4975C17.4478 13.4975 17.6386 13.5765 17.7792 13.7171C17.9199 13.8578 17.9989 14.0486 17.9989 14.2475C17.9989 14.4464 17.9199 14.6371 17.7792 14.7778C17.6386 14.9185 17.4478 14.9975 17.2489 14.9975H10.3705L7.31149 18.4915C7.177 18.6274 6.99569 18.7067 6.80463 18.7134C6.61357 18.7201 6.42718 18.6535 6.28354 18.5274C6.1399 18.4012 6.04987 18.225 6.03183 18.0346C6.01379 17.8443 6.06912 17.6543 6.1865 17.5034L8.37742 14.9975H6.74899C6.55008 14.9975 6.35932 14.9185 6.21867 14.7778C6.07802 14.6371 5.999 14.4464 5.999 14.2475C5.999 14.0486 6.07802 13.8578 6.21867 13.7171C6.35932 13.5765 6.55008 13.4975 6.74899 13.4975H9.68991L12.3149 10.4975H6.74899C6.55008 10.4975 6.35932 10.4185 6.21867 10.2778C6.07802 10.1372 5.999 9.94642 5.999 9.74751C5.999 9.5486 6.07802 9.35783 6.21867 9.21718C6.35932 9.07653 6.55008 8.99751 6.74899 8.99751H13.6274L16.6864 5.50348C16.7492 5.42277 16.8278 5.35575 16.9175 5.30654C17.0071 5.25733 17.1058 5.22697 17.2076 5.21732C17.3094 5.20767 17.4121 5.21894 17.5094 5.25044C17.6067 5.28194 17.6965 5.33299 17.7733 5.40047C17.8502 5.46795 17.9124 5.55043 17.9562 5.64283C17.9999 5.73524 18.0244 5.83562 18.0279 5.93781C18.0315 6.04 18.0141 6.14185 17.9769 6.23708C17.9397 6.33231 17.8833 6.41892 17.8114 6.49159L15.6205 8.99751H17.2489C17.4478 8.99751 17.6386 9.07653 17.7792 9.21718C17.9199 9.35783 17.9989 9.5486 17.9989 9.74751C17.9989 9.94642 17.9199 10.1372 17.7792 10.2778C17.6386 10.4185 17.4478 10.4975 17.2489 10.4975H14.308L11.683 13.4975H17.2489Z" fill="black"/>
</svg>
