<?xml version="1.0" encoding="UTF-8"?><svg width="512" height="512" viewBox="0 0 512 512" fill="none" xmlns="http://www.w3.org/2000/svg">
<path d="M128 32L159.99 128.01C159.99 171.71 189.24 208.61 229.22 220.21C237.72 222.68 246.7 224 256 224C265.3 224 274.28 222.68 282.78 220.21C322.76 208.61 352.01 171.71 352.01 128.01L384 32H128ZM306.94 166.74C298.64 177.62 286.89 185.69 273.83 189.48C268.1 191.15 262.1 192 256 192C249.9 192 243.9 191.15 238.14 189.47C225.11 185.69 213.36 177.62 205.06 166.74C196.51 155.53 191.99 142.14 191.99 128.01H320.01C320.01 142.14 315.49 155.53 306.94 166.74ZM328.94 96.01H183.06L172.39 64H339.61L328.94 96.01ZM256 288C269.58 288 283.04 289.7 296.01 293.05C300.5 294.21 304.98 295.58 309.37 297.13C313.83 298.7 318.28 300.51 322.61 302.5L322.73 302.56C324.49 303.36 326.23 304.19 327.93 305.05C330.63 306.41 333.3 307.85 335.86 309.35L335.96 309.41C359.46 323 379.28 342.5 393.27 365.81C408.13 390.55 415.98 418.97 415.98 448H96.0002C96.0002 418.98 103.86 390.56 118.72 365.8C131.47 344.56 149.27 326.29 170.19 312.97L170.23 312.94C172.15 311.71 174.1 310.53 176.01 309.42L176.11 309.36C178.3 308.08 180.5 306.87 182.7 305.74C187.24 303.4 191.99 301.23 196.83 299.31C198.76 298.54 200.72 297.81 202.67 297.12C219.73 291.08 237.68 288 256 288ZM255.99 256.02C233.55 256.02 212.01 259.87 191.99 266.96C189.64 267.79 187.3 268.67 184.99 269.59C179.19 271.9 173.52 274.48 168.02 277.32C165.3 278.72 162.63 280.19 159.99 281.73C157.62 283.1 155.29 284.52 152.99 285.99C127.83 302.01 106.64 323.74 91.2702 349.35C73.9602 378.19 63.9902 411.94 63.9902 448.02C63.9902 465.72 78.3002 480.02 95.9902 480.02H415.99C433.68 480.02 447.99 465.72 447.99 448.02C447.99 411.94 438.03 378.19 420.71 349.35C403.93 321.4 380.24 298.07 351.99 281.73C348.82 279.88 345.59 278.13 342.31 276.48C340.23 275.43 338.12 274.42 335.99 273.45C330.78 271.05 325.44 268.88 319.99 266.96C314.76 265.11 309.42 263.48 303.99 262.08C288.65 258.12 272.56 256.02 255.99 256.02ZM303.99 352.02V384.02H271.99V416.02H239.99V384.02H207.99V352.02H239.99V320.02H271.99V352.02H303.99Z" fill="black"/>
</svg>
