<svg width="24" height="24" viewBox="0 0 24 24" fill="none" xmlns="http://www.w3.org/2000/svg">
<path d="M21.7489 10.1223V13.8722C21.7489 14.27 21.5908 14.6516 21.3095 14.9329C21.0282 15.2142 20.6467 15.3722 20.2489 15.3722H15.3739V20.2472C15.3739 20.645 15.2159 21.0265 14.9346 21.3078C14.6533 21.5891 14.2718 21.7472 13.8739 21.7472H10.124C9.72614 21.7472 9.34461 21.5891 9.06331 21.3078C8.78201 21.0265 8.62397 20.645 8.62397 20.2472V15.3722H3.74901C3.35119 15.3722 2.96966 15.2142 2.68836 14.9329C2.40706 14.6516 2.24902 14.27 2.24902 13.8722V10.1223C2.24902 9.72443 2.40706 9.34291 2.68836 9.0616C2.96966 8.7803 3.35119 8.62227 3.74901 8.62227H8.62397V3.7473C8.62397 3.34948 8.78201 2.96795 9.06331 2.68665C9.34461 2.40535 9.72614 2.24731 10.124 2.24731H13.8739C14.2718 2.24731 14.6533 2.40535 14.9346 2.68665C15.2159 2.96795 15.3739 3.34948 15.3739 3.7473V8.62227H20.2489C20.6467 8.62227 21.0282 8.7803 21.3095 9.0616C21.5908 9.34291 21.7489 9.72443 21.7489 10.1223Z" fill="black"/>
</svg>
