<svg width="24" height="24" viewBox="0 0 24 24" fill="none" xmlns="http://www.w3.org/2000/svg">
<path d="M20.9689 6.19898L12.7189 1.68495C12.4985 1.56315 12.2508 1.49927 11.9989 1.49927C11.7471 1.49927 11.4994 1.56315 11.279 1.68495L3.02902 6.20085C2.79341 6.32976 2.59674 6.51957 2.45954 6.75044C2.32234 6.98131 2.24963 7.24478 2.24902 7.51335V16.4795C2.24963 16.7481 2.32234 17.0116 2.45954 17.2424C2.59674 17.4733 2.79341 17.6631 3.02902 17.792L11.279 22.3079C11.4994 22.4297 11.7471 22.4936 11.9989 22.4936C12.2508 22.4936 12.4985 22.4297 12.7189 22.3079L20.9689 17.792C21.2045 17.6631 21.4012 17.4733 21.5384 17.2424C21.6756 17.0116 21.7483 16.7481 21.7489 16.4795V7.51428C21.7488 7.24524 21.6763 6.98118 21.5391 6.74977C21.4018 6.51836 21.2049 6.32812 20.9689 6.19898ZM11.9989 15.7473C11.2573 15.7473 10.5323 15.5274 9.91558 15.1154C9.2989 14.7033 8.81825 14.1176 8.53443 13.4324C8.2506 12.7472 8.17634 11.9932 8.32103 11.2658C8.46573 10.5384 8.82288 9.87019 9.34732 9.34574C9.87176 8.8213 10.5399 8.46415 11.2674 8.31946C11.9948 8.17476 12.7488 8.24902 13.434 8.53285C14.1192 8.81668 14.7049 9.29732 15.1169 9.914C15.529 10.5307 15.7489 11.2557 15.7489 11.9974C15.7489 12.9919 15.3538 13.9457 14.6506 14.649C13.9473 15.3523 12.9935 15.7473 11.9989 15.7473Z" fill="black"/>
</svg>
