<svg width="24" height="24" viewBox="0 0 24 24" fill="none" xmlns="http://www.w3.org/2000/svg">
<path d="M12.0588 3.25098C14.0484 3.26902 15.8744 3.50072 17.2249 3.87501C17.8946 4.06066 18.49 4.29341 18.9348 4.58009C19.3428 4.84306 19.8318 5.28983 19.8274 5.95313L19.7502 15.7656L12.3381 20.627L11.9192 20.9024L4.50122 15.8486L4.17017 15.624L4.24634 5.81251L4.25317 5.69044C4.31369 5.09402 4.77373 4.69294 5.1604 4.45313C5.60992 4.17437 6.20943 3.95363 6.88208 3.78028C8.23847 3.43075 10.0683 3.23215 12.0588 3.25098ZM12.0442 4.75098C10.1459 4.73305 8.45271 4.92406 7.2561 5.23243C6.65238 5.38801 6.21783 5.56333 5.95142 5.72852C5.82435 5.80733 5.76824 5.86288 5.74536 5.88966L5.67603 14.835L11.9348 19.0977L18.2561 14.9512L18.3264 6.00684C18.3037 5.97937 18.2485 5.92216 18.1223 5.84083C17.858 5.67052 17.4258 5.48699 16.8245 5.32032C15.6326 4.98997 13.9418 4.76819 12.0442 4.75098Z" fill="black"/>
<path fill-rule="evenodd" clip-rule="evenodd" d="M7.2561 5.23243C8.45271 4.92406 10.1459 4.73305 12.0442 4.75098C13.9418 4.76819 15.6326 4.98997 16.8245 5.32032C17.4258 5.48699 17.858 5.67052 18.1223 5.84083C18.2485 5.92216 18.3037 5.97937 18.3264 6.00684L18.2561 14.9512L11.9348 19.0977L5.67603 14.835L5.74536 5.88966C5.76824 5.86288 5.82435 5.80733 5.95142 5.72852C6.21783 5.56333 6.65238 5.38801 7.2561 5.23243Z" fill="black"/>
</svg>
