<svg width="24" height="24" viewBox="0 0 24 24" fill="none" xmlns="http://www.w3.org/2000/svg">
<path d="M19.2581 12C19.2581 7.99148 16.0085 4.74194 12 4.74194C7.99148 4.74194 4.74194 7.99148 4.74194 12C4.74194 16.0085 7.99148 19.2581 12 19.2581C16.0085 19.2581 19.2581 16.0085 19.2581 12ZM21 12C21 16.9706 16.9706 21 12 21C7.02944 21 3 16.9706 3 12C3 7.02944 7.02944 3 12 3C16.9706 3 21 7.02944 21 12Z" fill="black"/>
<path fill-rule="evenodd" clip-rule="evenodd" d="M12 4.74194C16.0085 4.74194 19.2581 7.99148 19.2581 12C19.2581 16.0085 16.0085 19.2581 12 19.2581C7.99148 19.2581 4.74194 16.0085 4.74194 12C4.74194 7.99148 7.99148 4.74194 12 4.74194Z" fill="black"/>
</svg>
