<?xml version="1.0" encoding="utf-8"?>
<svg width="512" height="512" viewBox="0 0 512 512" fill="none" xmlns="http://www.w3.org/2000/svg">
<path d="M384.03 109.71L290.24 118.39L304.22 89.59C300.32 87.74 296.34 85.97 292.32 84.34C281.16 82.19 269.71 81.1 258.08 81.1C228.03 81.1 199.12 88.41 173.43 102.2C158.53 110.19 144.71 120.37 132.38 132.55C98.81 165.72 80.31 209.83 80.31 256.74C80.31 298.29 94.82 337.64 121.46 369.14L98.54 391.78C67.03 355.49 47.99 308.31 47.99 256.74C47.99 142.1 142.04 49.18 258.07 49.18C265.41 49.18 272.66 49.55 279.81 50.28H279.89C281.37 50.43 282.86 50.6 284.32 50.78C284.47 50.8 284.61 50.82 284.76 50.84C296.67 52.33 308.26 54.8 319.46 58.17L332.16 32.02L384.03 109.71ZM127.97 402.29L221.76 393.61L207.78 422.41C211.68 424.26 215.66 426.03 219.68 427.66C230.84 429.81 242.29 430.9 253.92 430.9C283.97 430.9 312.88 423.59 338.57 409.8C353.47 401.81 367.29 391.63 379.62 379.45C413.19 346.28 431.69 302.17 431.69 255.26C431.69 213.71 417.18 174.36 390.54 142.86L413.46 120.22C444.97 156.51 464.01 203.69 464.01 255.26C464.01 369.9 369.96 462.82 253.93 462.82C246.59 462.82 239.34 462.45 232.19 461.72H232.11C230.63 461.57 229.14 461.4 227.68 461.22C227.53 461.2 227.39 461.18 227.24 461.16C215.33 459.67 203.74 457.2 192.54 453.83L179.84 479.98L127.97 402.29ZM358.77 286.95L338.14 271.25C339.03 266.3 339.53 261.2 339.53 256C339.53 250.8 339.03 245.7 338.14 240.75L358.77 225.05C361.95 222.6 362.85 218.15 360.86 214.65L344 185.3C342.01 181.8 337.74 180.35 334.01 181.95L310.15 192.05C302.49 185.45 293.59 180.25 283.9 176.8L280.76 151C280.27 147 276.89 144 272.86 144H239.15C235.12 144 231.74 147 231.25 151L228.02 176.8C218.32 180.25 209.42 185.45 201.77 192.05L177.9 181.95C174.22 180.4 169.95 181.85 167.91 185.3L151.05 214.65C149.07 218.15 149.96 222.6 153.14 225.05L173.77 240.75C172.98 245.7 172.48 250.8 172.48 256C172.48 261.2 172.98 266.3 173.87 271.25L153.24 286.95C150.06 289.4 149.17 293.85 151.15 297.35L168.01 326.7C170 330.2 174.27 331.65 178 330.05L201.86 319.95C209.52 326.55 218.42 331.75 228.11 335.2L231.35 361C231.84 365 235.22 368 239.25 368H272.96C276.99 368 280.37 365 280.86 361L284.1 335.2C293.79 331.75 302.69 326.55 310.35 319.95L334.21 330.05C337.89 331.6 342.16 330.15 344.2 326.7L361.06 297.35C362.9 293.85 362 289.4 358.77 286.95ZM256.01 298C232.94 298 214.24 279.2 214.24 256C214.24 232.8 232.94 214 256.01 214C279.08 214 297.77 232.8 297.77 256C297.77 279.2 279.07 298 256.01 298Z" fill="black"/>
</svg>
