<svg width="24" height="24" viewBox="0 0 24 24" fill="none" xmlns="http://www.w3.org/2000/svg">
<path d="M20.999 11.9969C20.999 12.1958 20.92 12.3865 20.7793 12.5272C20.6387 12.6678 20.4479 12.7469 20.249 12.7469H10.4991C10.3002 12.7469 10.1094 12.6678 9.96874 12.5272C9.82809 12.3865 9.74907 12.1958 9.74907 11.9969C9.74907 11.798 9.82809 11.6072 9.96874 11.4665C10.1094 11.3259 10.3002 11.2469 10.4991 11.2469H20.249C20.4479 11.2469 20.6387 11.3259 20.7793 11.4665C20.92 11.6072 20.999 11.798 20.999 11.9969ZM10.4991 6.74691H20.249C20.4479 6.74691 20.6387 6.66789 20.7793 6.52724C20.92 6.38659 20.999 6.19583 20.999 5.99692C20.999 5.79801 20.92 5.60724 20.7793 5.46659C20.6387 5.32594 20.4479 5.24692 20.249 5.24692H10.4991C10.3002 5.24692 10.1094 5.32594 9.96874 5.46659C9.82809 5.60724 9.74907 5.79801 9.74907 5.99692C9.74907 6.19583 9.82809 6.38659 9.96874 6.52724C10.1094 6.66789 10.3002 6.74691 10.4991 6.74691ZM20.249 17.2468H3.74911C3.5502 17.2468 3.35944 17.3258 3.21879 17.4665C3.07814 17.6072 2.99912 17.7979 2.99912 17.9968C2.99912 18.1957 3.07814 18.3865 3.21879 18.5272C3.35944 18.6678 3.5502 18.7468 3.74911 18.7468H20.249C20.4479 18.7468 20.6387 18.6678 20.7793 18.5272C20.92 18.3865 20.999 18.1957 20.999 17.9968C20.999 17.7979 20.92 17.6072 20.7793 17.4665C20.6387 17.3258 20.4479 17.2468 20.249 17.2468ZM6.74909 13.4969C6.948 13.4969 7.13877 13.4178 7.27942 13.2772C7.42007 13.1365 7.49908 12.9458 7.49908 12.7469V5.24692C7.4992 5.0985 7.45528 4.95338 7.37288 4.82994C7.29047 4.70649 7.1733 4.61028 7.03618 4.55346C6.89907 4.49665 6.74817 4.48179 6.60261 4.51078C6.45705 4.53977 6.32336 4.61129 6.21847 4.7163L2.4685 8.46627C2.39877 8.53593 2.34345 8.61864 2.3057 8.70969C2.26796 8.80074 2.24854 8.89833 2.24854 8.99689C2.24854 9.09546 2.26796 9.19305 2.3057 9.2841C2.34345 9.37515 2.39877 9.45786 2.4685 9.52752L6.21847 13.2775C6.28817 13.3471 6.37091 13.4023 6.46196 13.44C6.553 13.4776 6.65057 13.4969 6.74909 13.4969Z" fill="black"/>
</svg>
