<svg viewBox="0 0 24 24" fill="none" xmlns="http://www.w3.org/2000/svg" width="24" height="24">
<path d="M20.1 2.279C20.529 2.279 20.941 2.45 21.245 2.754 21.549 3.058 21.72 3.47 21.72 3.9V20.1C21.72 20.53 21.549 20.941 21.245 21.245 20.941 21.549 20.53 21.72 20.1 21.72H3.9C3.47 21.72 3.058 21.549 2.754 21.245 2.45 20.941 2.279 20.529 2.279 20.1V3.9C2.279 3.47 2.45 3.058 2.754 2.754 3.058 2.45 3.47 2.279 3.9 2.279H20.1ZM5.52 4.711C5.072 4.711 4.71 5.074 4.71 5.521L4.711 18.48C4.711 18.928 5.074 19.29 5.521 19.29H18.479C18.926 19.29 19.289 18.928 19.289 18.48V5.521C19.289 5.074 18.928 4.711 18.48 4.711H5.52ZM17.671 17.671H6.33V6.33H17.67L17.671 17.671ZM10.384 9.578C9.93 9.624 9.577 10.007 9.577 10.473V13.527C9.577 13.992 9.931 14.376 10.384 14.422L10.477 14.427H13.525L13.616 14.422C14.07 14.376 14.424 13.993 14.425 13.527V10.473C14.425 10.007 14.07 9.624 13.616 9.578L13.525 9.573H10.477L10.384 9.578ZM12.805 12.806H11.196V11.193H12.805V12.806Z" fill="black"/>
</svg>