<svg width="24" height="24" viewBox="0 0 24 24" fill="none" xmlns="http://www.w3.org/2000/svg">
<path fill-rule="evenodd" clip-rule="evenodd" d="M18.75 8.25H15.75V5.25C15.75 4.00736 14.7426 3 13.5 3H5.25C4.00736 3 3 4.00736 3 5.25V13.5C3 14.7426 4.00736 15.75 5.25 15.75H8.25V18.75C8.25 19.9926 9.25736 21 10.5 21H18.75C19.9926 21 21 19.9926 21 18.75V10.5C21 9.25736 19.9926 8.25 18.75 8.25ZM13.5 4.5C13.9142 4.5 14.25 4.83579 14.25 5.25V8.25H10.5C9.25736 8.25 8.25 9.25736 8.25 10.5V14.25H5.25C4.83579 14.25 4.5 13.9142 4.5 13.5V5.25C4.5 4.83579 4.83579 4.5 5.25 4.5H13.5ZM18.75 9.75C19.1642 9.75 19.5 10.0858 19.5 10.5V18.75C19.5 19.1642 19.1642 19.5 18.75 19.5H10.5C10.0858 19.5 9.75 19.1642 9.75 18.75V15.75H13.5C14.7426 15.75 15.75 14.7426 15.75 13.5V9.75H18.75Z" fill="black"/>
</svg>
