<svg viewBox="0 0 24 24" fill="none" xmlns="http://www.w3.org/2000/svg" width="24" height="24">
<path fill-rule="evenodd" clip-rule="evenodd" d="M16.187 7.366C16.194 7.368 16.206 7.371 16.214 7.373 16.207 7.371 16.195 7.368 16.187 7.366Z" fill="black"/>
<path fill-rule="evenodd" clip-rule="evenodd" d="M16.156 7.36C16.16 7.36 16.17 7.362 16.173 7.363 16.168 7.362 16.161 7.361 16.156 7.36ZM16.214 7.373L16.19 7.367C16.195 7.368 16.207 7.371 16.214 7.373Z" fill="black"/>
<path fill-rule="evenodd" clip-rule="evenodd" d="M16.232 7.379L16.253 7.385 16.651 7.35 16.232 7.379 16.22 7.374 16.197 7.367 16.176 7.363 16.145 7.358 16.159 7.36C16.155 7.359 16.155 7.359 16.145 7.358 16.139 7.357 16.123 7.355 16.121 7.354L16.145 7.358 16.176 7.363 16.209 7.372 16.22 7.374 16.232 7.379Z" fill="black"/>
<path fill-rule="evenodd" clip-rule="evenodd" d="M16.232 7.379L16.253 7.385 16.651 7.35H20.1C20.879 7.35 21.51 7.981 21.51 8.76V20.1C21.51 20.879 20.879 21.51 20.1 21.51H8.76C7.981 21.51 7.35 20.879 7.35 20.1L7.349 16.648 3.901 16.647C3.122 16.647 2.491 16.016 2.491 15.237L2.491 3.897C2.491 3.118 3.122 2.487 3.901 2.487L15.241 2.487C16.019 2.487 16.651 3.118 16.651 3.897V7.35L16.232 7.379 16.22 7.374 16.197 7.367 16.176 7.363 16.145 7.358C16.148 7.358 16.154 7.359 16.159 7.36L16.176 7.363C16.173 7.363 16.161 7.36 16.159 7.36 16.152 7.358 16.127 7.355 16.121 7.354L16.145 7.358 16.176 7.363 16.209 7.372 16.232 7.379ZM15.451 7.349L8.759 7.351C7.981 7.351 7.349 7.982 7.349 8.76V15.447L3.901 15.447C3.785 15.447 3.691 15.353 3.691 15.237L3.691 3.897C3.691 3.781 3.785 3.687 3.901 3.687L15.241 3.687C15.357 3.687 15.451 3.781 15.451 3.897V7.349ZM16.651 8.55H20.1C20.216 8.55 20.31 8.644 20.31 8.76V20.1C20.31 20.216 20.216 20.31 20.1 20.31H8.76C8.644 20.31 8.55 20.216 8.55 20.1V16.648L15.24 16.648C15.252 16.648 15.264 16.647 15.277 16.647 16.038 16.628 16.65 16.003 16.65 15.237L16.651 8.55Z" fill="black"/>
</svg>