<svg width="24" height="24" viewBox="0 0 24 24" fill="none" xmlns="http://www.w3.org/2000/svg">
<path d="M9.75414 11.25C9.75414 10.4216 10.4257 9.75 11.2541 9.75H12.7541C13.5826 9.75 14.2541 10.4216 14.2541 11.25V12.75C14.2541 13.5784 13.5826 14.25 12.7541 14.25H11.2541C10.4257 14.25 9.75414 13.5784 9.75414 12.75V11.25Z" fill="black"/>
<path d="M9.75414 11.25C9.75414 10.4216 10.4257 9.75 11.2541 9.75H12.7541C13.5826 9.75 14.2541 10.4216 14.2541 11.25V12.75C14.2541 13.5784 13.5826 14.25 12.7541 14.25H11.2541C10.4257 14.25 9.75414 13.5784 9.75414 12.75V11.25Z" stroke="black" stroke-width="1.5" stroke-linecap="round" stroke-linejoin="round"/>
</svg>
