<svg xmlns="http://www.w3.org/2000/svg" fill="currentColor" viewBox="0 0 24 24" width="24" height="24"><path d="M21.688 5.737l-8.91-4.875a1.608 1.608 0 0 0-1.556 0L2.312 5.738a1.62 1.62 0 0 0-0.842 1.418v9.684a1.62 1.62 0 0 0 0.842 1.417l8.91 4.877a1.608 1.608 0 0 0 1.556 0l8.91-4.877a1.62 1.62 0 0 0 0.842-1.417V7.157a1.62 1.62 0 0 0-0.842-1.421zM12 2.28l8.136 4.456-3.016 1.648-8.136-4.455z m0 8.91L3.864 6.736l3.433-1.881 8.136 4.455z m8.91 5.654l-8.1 4.434v-8.688l3.24-1.772v3.612a0.81 0.81 0 0 0 1.62 0v-4.5l3.24-1.772v8.683z"/></svg>