<svg width="24" height="24" viewBox="0 0 24 24" fill="none" xmlns="http://www.w3.org/2000/svg">
<path d="M10.75 11.4033V13.9033H13.25V11.4033H10.75Z" fill="black"/>
<path fill-rule="evenodd" clip-rule="evenodd" d="M4.5 3C4.10218 3 3.72076 3.15815 3.43945 3.43945C3.15815 3.72076 3 4.10217 3 4.5V19.5C3 19.8978 3.15815 20.2792 3.43945 20.5605C3.72076 20.8419 4.10217 21 4.5 21H19.5C19.8978 21 20.2792 20.8419 20.5605 20.5605C20.8419 20.2792 21 19.8978 21 19.5V4.5C21 4.10218 20.8419 3.72076 20.5605 3.43945C20.2792 3.15815 19.8978 3 19.5 3H4.5ZM15.8496 17.9033C16.2638 17.9033 16.5996 18.2391 16.5996 18.6533C16.5994 19.0674 16.2637 19.4033 15.8496 19.4033H8.15039C7.7363 19.4033 7.40059 19.0674 7.40039 18.6533C7.40039 18.2391 7.73618 17.9033 8.15039 17.9033H15.8496ZM18 8.05273C18.4141 8.05273 18.7499 8.38863 18.75 8.80273V16.5029C18.75 16.9171 18.4142 17.2529 18 17.2529C17.5858 17.2529 17.25 16.9171 17.25 16.5029V8.80273C17.2501 8.38863 17.5859 8.05273 18 8.05273ZM6 8.05273C6.41415 8.05273 6.74989 8.38861 6.75 8.80273V16.5029C6.75 16.9171 6.41421 17.2529 6 17.2529C5.58579 17.2529 5.25 16.9171 5.25 16.5029V8.80273C5.25011 8.38861 5.58585 8.05273 6 8.05273ZM13.79 9.90332C14.3199 9.90332 14.7498 10.3325 14.75 10.8623V14.4434C14.75 14.9733 14.32 15.4033 13.79 15.4033H10.21C9.68 15.4033 9.25 14.9733 9.25 14.4434V10.8623C9.25023 10.3325 9.68014 9.90332 10.21 9.90332H13.79ZM15.0723 5.34668C15.9007 5.34668 16.5723 6.01825 16.5723 6.84668C16.5723 7.67511 15.9007 8.34668 15.0723 8.34668H8.82031C7.99189 8.34668 7.32031 7.67511 7.32031 6.84668C7.32031 6.01825 7.99189 5.34668 8.82031 5.34668H15.0723Z" fill="black"/>
</svg>
