<svg width="24" height="24" viewBox="0 0 24 24" fill="none" xmlns="http://www.w3.org/2000/svg">
<path d="M11.0283 11V13.5H13.5283V11H11.0283Z" fill="black"/>
<path fill-rule="evenodd" clip-rule="evenodd" d="M4.5 3C4.10218 3 3.72076 3.15815 3.43945 3.43945C3.15815 3.72076 3 4.10218 3 4.5V19.5C3 19.8978 3.15815 20.2792 3.43945 20.5605C3.72076 20.8419 4.10217 21 4.5 21H19.5C19.8978 21 20.2792 20.8419 20.5605 20.5605C20.8419 20.2792 21 19.8978 21 19.5V4.5C21 4.10218 20.8419 3.72076 20.5605 3.43945C20.2792 3.15815 19.8978 3 19.5 3H4.5ZM16.1279 17.5C16.5421 17.5001 16.8779 17.8358 16.8779 18.25C16.8779 18.6642 16.5421 18.9999 16.1279 19H8.42871C8.0145 19 7.67871 18.6642 7.67871 18.25C7.67871 17.8358 8.0145 17.5 8.42871 17.5H16.1279ZM6.47168 7.67773C7.30002 7.67783 7.97168 8.34937 7.97168 9.17773V15.4297C7.97168 16.2581 7.30002 16.9296 6.47168 16.9297C5.64342 16.9295 4.97168 16.258 4.97168 15.4297V9.17773C4.97168 8.34943 5.64342 7.67793 6.47168 7.67773ZM18.2783 7.65039C18.6924 7.65049 19.0283 7.98624 19.0283 8.40039V16.0996C19.0283 16.5138 18.6924 16.8495 18.2783 16.8496C17.8641 16.8496 17.5283 16.5138 17.5283 16.0996V8.40039C17.5283 7.98618 17.8641 7.65039 18.2783 7.65039ZM14.0684 9.5C14.5982 9.5001 15.0283 9.93006 15.0283 10.46V14.04C15.0283 14.5699 14.5982 14.9999 14.0684 15H10.4883C9.95832 15 9.52832 14.57 9.52832 14.04V10.46C9.52832 9.93 9.95832 9.5 10.4883 9.5H14.0684ZM16.1279 5.5C16.5421 5.5001 16.8779 5.83585 16.8779 6.25C16.8779 6.66415 16.5421 6.9999 16.1279 7H8.42871C8.0145 7 7.67871 6.66421 7.67871 6.25C7.67871 5.83579 8.0145 5.5 8.42871 5.5H16.1279Z" fill="black"/>
</svg>
