<svg viewBox="0 0 24 24" fill="none" xmlns="http://www.w3.org/2000/svg" width="24" height="24">
<path d="M5.721 3.909C5.274 3.909 4.911 3.546 4.911 3.099 4.911 2.652 5.274 2.289 5.721 2.289L18.273 2.289C18.72 2.289 19.083 2.652 19.083 3.099 19.083 3.546 18.72 3.909 18.273 3.909L5.721 3.909Z" fill="black"/>
<path d="M2.283 5.523C2.283 5.076 2.646 4.713 3.093 4.713 3.541 4.713 3.903 5.076 3.903 5.523L3.903 18.483C3.903 18.93 3.541 19.293 3.093 19.293 2.646 19.293 2.283 18.93 2.283 18.483L2.283 5.523Z" fill="black"/>
<path d="M5.721 21.717C5.274 21.717 4.911 21.354 4.911 20.907 4.911 20.46 5.274 20.097 5.721 20.097L18.273 20.097C18.72 20.097 19.083 20.46 19.083 20.907 19.083 21.354 18.72 21.717 18.273 21.717L5.721 21.717Z" fill="black"/>
<path d="M19.377 19.074C18.88 19.074 18.477 18.671 18.477 18.174L18.477 5.813C18.477 5.316 18.88 4.913 19.377 4.913L20.817 4.913C21.314 4.913 21.717 5.316 21.717 5.813L21.717 18.174C21.717 18.671 21.314 19.074 20.817 19.074L19.377 19.074Z" fill="black"/>
<path d="M14.097 14.103L14.097 9.903 9.897 9.903 9.897 14.103 14.097 14.103ZM14.602 8.282C15.218 8.282 15.718 8.782 15.718 9.398L15.718 14.608C15.718 15.224 15.218 15.723 14.602 15.723L9.392 15.723C8.776 15.722 8.278 15.224 8.278 14.608L8.278 9.398C8.278 8.782 8.776 8.282 9.392 8.282L14.602 8.282Z" fill="black"/>
</svg>