<svg width="24" height="24" viewBox="0 0 24 24" fill="none" xmlns="http://www.w3.org/2000/svg">
<path d="M10.75 10.4717V12.9717H13.25V10.4717H10.75Z" fill="black"/>
<path fill-rule="evenodd" clip-rule="evenodd" d="M4.5 3C4.10217 3 3.72076 3.15815 3.43945 3.43945C3.15815 3.72076 3 4.10218 3 4.5V19.5C3 19.8978 3.15815 20.2792 3.43945 20.5605C3.72076 20.8419 4.10218 21 4.5 21H19.5C19.8978 21 20.2792 20.8419 20.5605 20.5605C20.8419 20.2792 21 19.8978 21 19.5V4.5C21 4.10218 20.8419 3.72076 20.5605 3.43945C20.2792 3.15815 19.8978 3 19.5 3H4.5ZM15.1797 16.0283C16.008 16.0283 16.6796 16.7 16.6797 17.5283C16.6795 18.3566 16.008 19.0283 15.1797 19.0283H8.92773C8.09943 19.0283 7.42793 18.3566 7.42773 17.5283C7.42787 16.7 8.09939 16.0283 8.92773 16.0283H15.1797ZM18 7.12207C18.4141 7.12207 18.7499 7.45797 18.75 7.87207V15.5713C18.75 15.9855 18.4142 16.3213 18 16.3213C17.5858 16.3213 17.25 15.9855 17.25 15.5713V7.87207C17.2501 7.45797 17.5859 7.12207 18 7.12207ZM6 7.12207C6.41413 7.12207 6.74987 7.45797 6.75 7.87207V15.5713C6.75 15.9855 6.41421 16.3213 6 16.3213C5.58579 16.3213 5.25 15.9855 5.25 15.5713V7.87207C5.25013 7.45797 5.58587 7.12207 6 7.12207ZM13.79 8.97168C14.3198 8.97168 14.7496 9.40102 14.75 9.93066V13.5117C14.75 14.0417 14.32 14.4717 13.79 14.4717H10.21C9.68 14.4717 9.25 14.0417 9.25 13.5117V9.93066C9.25038 9.40102 9.68023 8.97168 10.21 8.97168H13.79ZM15.8496 4.97168C16.2637 4.97168 16.5995 5.30758 16.5996 5.72168C16.5996 6.13589 16.2638 6.47168 15.8496 6.47168H8.15039C7.73618 6.47168 7.40039 6.13589 7.40039 5.72168C7.40052 5.30758 7.73626 4.97168 8.15039 4.97168H15.8496Z" fill="black"/>
</svg>
