<svg width="24" height="24" viewBox="0 0 24 24" fill="none" xmlns="http://www.w3.org/2000/svg">
<path d="M6.76758 5.25732C6.39479 5.25732 6.09277 4.95531 6.09277 4.58252C6.09277 4.20972 6.39479 3.90771 6.76758 3.90771L17.2275 3.90771C17.6003 3.90771 17.9023 4.20973 17.9023 4.58252C17.9023 4.95531 17.6003 5.25732 17.2275 5.25732L6.76758 5.25732Z" fill="black"/>
<path d="M3.90284 6.60254C3.90284 6.22975 4.20485 5.92773 4.57764 5.92773C4.95043 5.92773 5.25245 6.22975 5.25244 6.60254L5.25244 17.4023C5.25244 17.7751 4.95043 18.0771 4.57764 18.0771C4.20484 18.0771 3.90283 17.7751 3.90283 17.4023L3.90284 6.60254Z" fill="black"/>
<path d="M6.76758 20.0972C6.39479 20.0972 6.09277 19.7952 6.09277 19.4224C6.09277 19.0496 6.39479 18.7476 6.76758 18.7476L17.2275 18.7476C17.6003 18.7476 17.9023 19.0496 17.9023 19.4224C17.9023 19.7952 17.6003 20.0972 17.2275 20.0972L6.76758 20.0972Z" fill="black"/>
<path d="M18.1475 17.895C17.7332 17.895 17.3975 17.5592 17.3975 17.145L17.3975 6.84424C17.3975 6.43002 17.7332 6.09424 18.1475 6.09424L19.3475 6.09424C19.7617 6.09424 20.0975 6.43002 20.0975 6.84424L20.0975 17.145C20.0975 17.5592 19.7617 17.895 19.3475 17.895L18.1475 17.895Z" fill="black"/>
<path d="M13.7476 13.7524L13.7476 10.2524L10.2476 10.2524L10.2476 13.7524L13.7476 13.7524ZM14.1685 8.90186C14.6816 8.90186 15.0981 9.3184 15.0981 9.83154L15.0981 14.1733C15.098 14.6864 14.6815 15.1021 14.1685 15.1021L9.82666 15.1021C9.31369 15.1019 8.89806 14.6863 8.89795 14.1733L8.89795 9.83154C8.89795 9.31848 9.31362 8.90197 9.82666 8.90186L14.1685 8.90186Z" fill="black"/>
</svg>
