<svg width="24" height="24" viewBox="0 0 24 24" fill="none" xmlns="http://www.w3.org/2000/svg">
<path fill-rule="evenodd" clip-rule="evenodd" d="M18.75 2.25C19.5784 2.25 20.25 2.92157 20.25 3.75V20.25C20.25 21.0784 19.5784 21.75 18.75 21.75H5.25C4.42158 21.75 3.75001 21.0784 3.75 20.25V3.75C3.75 2.92158 4.42158 2.25001 5.25 2.25H18.75ZM9 15C8.17157 15 7.5 15.6716 7.5 16.5C7.5 17.3284 8.17157 18 9 18H15C15.8284 18 16.5 17.3284 16.5 16.5C16.5 15.6716 15.8284 15 15 15H9ZM8.25 12.0039C7.83579 12.0039 7.5 12.3397 7.5 12.7539C7.5 13.1681 7.83579 13.5039 8.25 13.5039H15.75C16.1642 13.5039 16.5 13.1681 16.5 12.7539C16.5 12.3397 16.1642 12.0039 15.75 12.0039H8.25ZM8.25 9.00098C7.83579 9.00098 7.5 9.33676 7.5 9.75098C7.5 10.1652 7.83579 10.501 8.25 10.501H15.75C16.1642 10.501 16.5 10.1652 16.5 9.75098C16.5 9.33676 16.1642 9.00098 15.75 9.00098H8.25Z" fill="black"/>
</svg>
