<svg viewBox="0 0 24 24" fill="none" xmlns="http://www.w3.org/2000/svg" width="24" height="24">
<path d="M3.3 3.09C3.301 2.311 3.932 1.68 4.71 1.68H19.29C20.068 1.68 20.699 2.311 20.7 3.09V20.91C20.7 21.689 20.069 22.32 19.29 22.32H4.71C3.931 22.32 3.3 21.689 3.3 20.91V3.09ZM7.949 18.582C7.949 19.029 8.311 19.391 8.759 19.392H15.239C15.686 19.392 16.049 19.029 16.049 18.582 16.049 18.135 15.686 17.772 15.239 17.772H8.759C8.312 17.772 7.949 18.135 7.949 18.582ZM7.949 15.66C7.949 16.108 8.311 16.47 8.759 16.47H15.239C15.686 16.47 16.049 16.108 16.049 15.66 16.049 15.213 15.686 14.851 15.239 14.851H8.759C8.311 14.851 7.949 15.213 7.949 15.66ZM8.159 11.839C8.159 12.336 8.562 12.739 9.059 12.739H14.939C15.436 12.739 15.839 12.336 15.839 11.839V10.399C15.839 9.902 15.436 9.499 14.939 9.499H9.059C8.562 9.499 8.159 9.902 8.159 10.399V11.839Z" fill="black"/>
</svg>