<svg viewBox="0 0 24 24" fill="none" xmlns="http://www.w3.org/2000/svg" width="24" height="24">
<path d="M3.3 3.089C3.301 2.311 3.932 1.679 4.71 1.679H19.29C20.068 1.679 20.699 2.311 20.7 3.089V20.91C20.7 21.688 20.069 22.319 19.29 22.32H4.71C3.931 22.319 3.3 21.688 3.3 20.91V3.089ZM7.949 12.42C7.949 12.867 8.311 13.229 8.759 13.229H15.239C15.686 13.229 16.049 12.867 16.049 12.42 16.049 11.972 15.686 11.61 15.239 11.61H8.759C8.312 11.61 7.949 11.972 7.949 12.42ZM7.949 9.498C7.949 9.945 8.312 10.308 8.759 10.308H15.239C15.686 10.308 16.049 9.945 16.049 9.498 16.049 9.051 15.686 8.688 15.239 8.688H8.759C8.311 8.689 7.949 9.051 7.949 9.498ZM8.159 17.681C8.159 18.178 8.562 18.581 9.059 18.581H14.939C15.436 18.581 15.839 18.178 15.839 17.681V16.242C15.839 15.745 15.436 15.342 14.939 15.342H9.059C8.562 15.342 8.159 15.745 8.159 16.242V17.681Z" fill="black"/>
</svg>