<svg xmlns="http://www.w3.org/2000/svg" width="24" height="24" fill="currentColor" viewBox="0 0 24 24"><path d="M19.368 4.496A10.44 10.44 0 0 0 12 1.47h-0.108A10.53 10.53 0 0 0 1.47 12c0 4.354 2.692 8.005 7.022 9.535a3.24 3.24 0 0 0 4.318-3.055 1.62 1.62 0 0 1 1.62-1.62h4.679a3.221 3.221 0 0 0 3.159-2.519 10.56 10.56 0 0 0 0.263-2.43 10.44 10.44 0 0 0-3.162-7.415z m-11.822 11.554a1.216 1.216 0 1 1 1.215-1.214 1.216 1.216 0 0 1-1.215 1.214m0-5.67a1.216 1.216 0 1 1 1.215-1.214 1.216 1.216 0 0 1-1.215 1.215z m4.455-2.43a1.216 1.216 0 1 1 1.215-1.216 1.216 1.216 0 0 1-1.215 1.216m4.456 2.43a1.216 1.216 0 1 1 1.215-1.214 1.216 1.216 0 0 1-1.215 1.215z"/></svg>