<?xml version="1.0" encoding="utf-8"?>
<svg xmlns="http://www.w3.org/2000/svg" width="512" height="512" viewBox="0 0 512 512">
<path d="m206 256.6 160-160c-2.2-5.7-4.8-11.1-7.9-16.3-24.2-40.8-60.1-66-107.8-75.9-2.3-.5-4.7-1-7.1-1.4C192-5.8 143.1 4.8 96.5 34.6 49.3 64.7 19.2 107.2 6.1 162c-13 54.8-5.2 106.4 23.4 154.6 14.2 23.8 31.3 43.2 51.4 58.4 3.8-25.2 13.4-52 36.4-75 31.3-31.4 64-41.3 88.7-43.4zM288 64c17.7 0 32 14.3 32 32s-14.3 32-32 32-32-14.3-32-32 14.3-32 32-32zm-96-32c17.7 0 32 14.3 32 32s-14.3 32-32 32-32-14.3-32-32 14.3-32 32-32zM64 256c-17.7 0-32-14.3-32-32s14.3-32 32-32 32 14.3 32 32-14.3 32-32 32zm0-128c0-17.7 14.3-32 32-32s32 14.3 32 32-14.3 32-32 32-32-14.3-32-32zm438.7 12.9L480 118.3c-12.4-12.4-32.8-12.4-45.3 0L281.1 271.9c11.5 5.8 20.8 12.2 27.7 17.6 5.3 4.2 9.2 7.7 11.3 9.8l11.3 12.7c5.4 6.8 11.8 16.2 17.6 27.6l153.5-153.5c12.6-12.4 12.6-32.8.2-45.2zM354.3 289.3c-4.8-5.8-8.6-9.9-10.6-11.9-2.3-2.3-6.3-6.1-12-10.7L457.4 141h.1l22.5 22.5-125.7 125.8zm-78.7 169c-23.8 23.7-48.4 33-70.7 37.7-49.6 10.4-96 16-96 16s34.7-17.3 33.9-77c-.4-32.7-3.7-66.4 19.7-89.8 56.6-56.7 113.3.2 113.3.2s56.7 56-.2 112.9z"/>
</svg>
