<svg width="24" height="24" viewBox="0 0 24 24" fill="none" xmlns="http://www.w3.org/2000/svg">
<path d="M18.8218 5.049C17.0065 3.25143 14.5544 2.24421 11.9997 2.24683H11.8994C9.33095 2.27326 6.87671 3.31213 5.06989 5.13774C3.26306 6.96335 2.24962 9.4282 2.24976 11.9968C2.24976 16.028 4.74161 19.4086 8.75221 20.8251C9.20456 20.9846 9.68855 21.0333 10.1636 20.9671C10.6387 20.901 11.0909 20.7218 11.4825 20.4448C11.874 20.1678 12.1934 19.8009 12.4139 19.3749C12.6344 18.949 12.7495 18.4764 12.7497 17.9967C12.7497 17.5989 12.9077 17.2174 13.189 16.9361C13.4703 16.6548 13.8518 16.4967 14.2497 16.4967H18.5818C19.2623 16.5 19.9235 16.2705 20.4555 15.8462C20.9876 15.4219 21.3585 14.8284 21.5068 14.1642C21.6744 13.4262 21.7559 12.6711 21.7496 11.9143C21.7401 10.6331 21.4764 9.36665 20.9738 8.18819C20.4712 7.00973 19.7398 5.94272 18.8218 5.049ZM7.87471 15.7467C7.65221 15.7467 7.4347 15.6807 7.2497 15.5571C7.0647 15.4335 6.9205 15.2578 6.83536 15.0523C6.75021 14.8467 6.72793 14.6205 6.77134 14.4023C6.81475 14.184 6.92189 13.9836 7.07922 13.8262C7.23656 13.6689 7.43701 13.5618 7.65524 13.5184C7.87346 13.475 8.09966 13.4972 8.30523 13.5824C8.51079 13.6675 8.68649 13.8117 8.81011 13.9967C8.93372 14.1817 8.9997 14.3992 8.9997 14.6217C8.9997 14.9201 8.88118 15.2063 8.6702 15.4172C8.45922 15.6282 8.17308 15.7467 7.87471 15.7467ZM7.87471 10.4968C7.65221 10.4968 7.4347 10.4308 7.2497 10.3072C7.0647 10.1836 6.9205 10.0079 6.83536 9.80229C6.75021 9.59673 6.72793 9.37053 6.77134 9.1523C6.81475 8.93407 6.92189 8.73362 7.07922 8.57629C7.23656 8.41896 7.43701 8.31181 7.65524 8.2684C7.87346 8.22499 8.09966 8.24727 8.30523 8.33242C8.51079 8.41757 8.68649 8.56176 8.81011 8.74677C8.93372 8.93177 8.9997 9.14928 8.9997 9.37178C8.9997 9.67014 8.88118 9.95629 8.6702 10.1673C8.45922 10.3782 8.17308 10.4968 7.87471 10.4968ZM11.9997 8.24679C11.7772 8.24679 11.5597 8.18081 11.3747 8.05719C11.1897 7.93358 11.0455 7.75788 10.9603 7.55231C10.8752 7.34674 10.8529 7.12055 10.8963 6.90232C10.9397 6.68409 11.0469 6.48364 11.2042 6.3263C11.3615 6.16897 11.562 6.06183 11.7802 6.01842C11.9984 5.97501 12.2246 5.99729 12.4302 6.08244C12.6358 6.16759 12.8115 6.31178 12.9351 6.49678C13.0587 6.68179 13.1247 6.89929 13.1247 7.12179C13.1247 7.42016 13.0061 7.70631 12.7952 7.91728C12.5842 8.12826 12.298 8.24679 11.9997 8.24679ZM16.1246 10.4968C15.9021 10.4968 15.6846 10.4308 15.4996 10.3072C15.3146 10.1836 15.1704 10.0079 15.0853 9.80229C15.0001 9.59673 14.9779 9.37053 15.0213 9.1523C15.0647 8.93407 15.1718 8.73362 15.3292 8.57629C15.4865 8.41896 15.6869 8.31181 15.9052 8.2684C16.1234 8.22499 16.3496 8.24727 16.5552 8.33242C16.7607 8.41757 16.9364 8.56176 17.06 8.74677C17.1837 8.93177 17.2496 9.14928 17.2496 9.37178C17.2496 9.67014 17.1311 9.95629 16.9201 10.1673C16.7092 10.3782 16.423 10.4968 16.1246 10.4968Z" fill="black"/>
</svg>
