<svg viewBox="0 0 24 24" fill="none" xmlns="http://www.w3.org/2000/svg" width="24" height="24">
<path d="M8.161 15.354L4.218 19.297H3.18C2.959 19.297 2.758 19.214 2.602 19.082L8.161 13.522V15.354ZM14.64 19.297H9.361V15.039H14.64V19.297ZM21.72 18.397C21.72 18.894 21.317 19.297 20.82 19.297H15.84V15.039H21.72V18.397ZM8.161 18.884L7.747 19.297H5.914L8.161 17.051V18.884ZM8.161 11.825L2.28 17.706V15.872L8.161 9.991V11.825ZM2.28 14.175V12.342L9.905 4.718H11.737L2.28 14.175ZM14.64 13.839H9.361V10.179H14.64V13.839ZM21.72 13.839H15.84V10.179H21.72V13.839ZM2.28 10.645V8.811L6.375 4.718H8.208L2.28 10.645ZM11.006 8.979H9.173L13.434 4.718H15.267L11.006 8.979ZM14.536 8.979H12.703L16.964 4.718H18.796L14.536 8.979ZM20.82 4.718C21.228 4.718 21.569 4.992 21.678 5.365L18.066 8.979H16.233L20.495 4.718H20.82ZM21.72 8.979H19.763L21.72 7.022V8.979ZM2.28 7.114V5.618C2.28 5.121 2.683 4.718 3.18 4.718H4.678L2.28 7.114Z" fill="black"/>
</svg>