<svg width="24" height="24" viewBox="0 0 24 24" fill="none" xmlns="http://www.w3.org/2000/svg">
<path d="M8.24927 16.5078C8.23849 16.5174 8.22738 16.5268 8.21704 16.5371L6.76196 17.9922L5.29224 19.5137H3.83228C3.55237 19.5136 3.28992 19.44 3.06177 19.3125L3.80298 18.5732L8.24927 14.126V16.5078ZM8.24927 19.5137H7.37817L7.83228 19.043L8.24927 18.626V19.5137ZM14.9993 19.5137H9.74927V15.75H14.9993V19.5137ZM21.7493 17.9307C21.7493 18.805 21.0406 19.5135 20.1663 19.5137H16.4993V15.75H21.7493V17.9307ZM8.26392 9.61035C8.25451 9.65772 8.2493 9.70671 8.24927 9.75684V12.043C8.19539 12.0746 8.14318 12.111 8.09692 12.1572L2.2522 18C2.2512 17.977 2.24927 17.9539 2.24927 17.9307V15.6104C2.28266 15.5865 2.31499 15.5602 2.34497 15.5303L8.26392 9.61035ZM14.9993 14.25H9.74927V10.5068H14.9993V14.25ZM21.7493 14.25H16.4993V10.5068H21.7493V14.25ZM2.24927 13.5049V11.1689L3.83325 9.58594L7.29224 6.06445L8.70142 4.65527C8.74835 4.60829 8.78477 4.55484 8.81665 4.5H11.2542L2.24927 13.5049ZM6.22778 5.00879L6.2229 5.0127L2.77271 8.52441L2.24927 9.04785V6.08301C2.24958 5.20899 2.95825 4.50027 3.83228 4.5H6.73657L6.22778 5.00879ZM11.2473 9.00684H8.99927C8.94915 9.00686 8.90015 9.01208 8.85278 9.02148L13.22 4.65527C13.2671 4.60818 13.3042 4.55498 13.3362 4.5H15.7542L11.2473 9.00684ZM20.2493 4.50391L15.7473 9.00684H13.3684L17.7805 4.59473C17.8101 4.56507 17.836 4.533 17.8596 4.5H20.1663C20.1941 4.50001 20.2217 4.50248 20.2493 4.50391ZM21.553 5.32129C21.6775 5.54739 21.7492 5.80671 21.7493 6.08301V9.00684H17.8684L21.553 5.32129Z" fill="black"/>
</svg>
