<?xml version="1.0" encoding="utf-8"?>
<svg width="512" height="512" viewBox="0 0 512 512" xmlns="http://www.w3.org/2000/svg">
    <path d="M200.609 75.1544C257.203 17.6152 349.071 17.6152 405.664 75.1544C462.112 132.546 462.112 225.488 405.664 282.88L241.647 449.637C201.829 490.121 137.158 490.121 97.3398 449.637C57.6664 409.3 57.6663 344.01 97.3398 303.674L261.356 136.916C284.4 113.488 321.873 113.487 344.917 136.916C367.816 160.197 367.815 197.836 344.917 221.117L180.9 387.875C174.704 394.175 164.574 394.259 158.274 388.063C151.974 381.866 151.89 371.736 158.087 365.436L322.102 198.679C332.753 187.85 332.753 170.184 322.102 159.356C311.597 148.675 294.675 148.674 284.17 159.356L120.154 326.113C92.7286 353.997 92.7286 399.314 120.154 427.198C147.435 454.934 191.553 454.934 218.833 427.198L382.85 260.441C427.05 215.501 427.05 142.533 382.85 97.5938C338.794 52.8024 267.479 52.8025 223.424 97.5938L59.4071 264.351C53.2107 270.651 43.0801 270.735 36.7802 264.538C30.4806 258.342 30.3966 248.212 36.5927 241.912L200.609 75.1544Z" />
</svg>
