<svg width="24" height="24" viewBox="0 0 24 24" fill="none" xmlns="http://www.w3.org/2000/svg">
<path d="M7.80322 10.3701C8.07388 10.3701 8.27509 10.4982 8.40576 10.7549C8.5364 11.0115 8.60202 11.4315 8.60205 12.0146C8.60205 12.5979 8.53638 13.0252 8.40576 13.2959C8.2751 13.5619 8.07389 13.6953 7.80322 13.6953C7.53275 13.6952 7.33226 13.5618 7.20166 13.2959C7.07101 13.0252 7.00537 12.5979 7.00537 12.0146C7.0054 11.4315 7.07102 11.0115 7.20166 10.7549C7.33227 10.4984 7.53279 10.3702 7.80322 10.3701Z" fill="black"/>
<path d="M12.0005 10.3701C12.2711 10.3701 12.4724 10.4982 12.603 10.7549C12.7337 11.0115 12.7993 11.4315 12.7993 12.0146C12.7993 12.5979 12.7336 13.0252 12.603 13.2959C12.4724 13.5619 12.2712 13.6953 12.0005 13.6953C11.73 13.6952 11.5295 13.5618 11.3989 13.2959C11.2683 13.0252 11.2026 12.5979 11.2026 12.0146C11.2027 11.4315 11.2683 11.0115 11.3989 10.7549C11.5295 10.4984 11.7301 10.3702 12.0005 10.3701Z" fill="black"/>
<path fill-rule="evenodd" clip-rule="evenodd" d="M19.4253 4.75C20.0738 4.75047 20.6 5.27625 20.6001 5.9248V18.0752C20.6 18.7237 20.0738 19.2495 19.4253 19.25H4.57471C3.92593 19.2499 3.40001 18.724 3.3999 18.0752V5.9248C3.40001 5.27602 3.92593 4.75011 4.57471 4.75H19.4253ZM7.80322 9.48828C7.40673 9.48835 7.07065 9.58629 6.79541 9.78223C6.5249 9.97353 6.31698 10.2579 6.17236 10.6357C6.03239 11.009 5.96243 11.4688 5.9624 12.0146C5.9624 12.8312 6.11855 13.4641 6.43115 13.9121C6.74842 14.3553 7.20608 14.5771 7.80322 14.5771C8.20456 14.5771 8.54134 14.477 8.81201 14.2764C9.08257 14.0758 9.28726 13.786 9.42725 13.4082C9.57191 13.0255 9.64502 12.5606 9.64502 12.0146C9.64497 11.1935 9.48792 10.5679 9.17529 10.1387C8.86263 9.70492 8.40505 9.48828 7.80322 9.48828ZM12.0005 9.48828C11.604 9.48835 11.2679 9.58629 10.9927 9.78223C10.7222 9.97353 10.5143 10.2579 10.3696 10.6357C10.2297 11.009 10.1597 11.4688 10.1597 12.0146C10.1597 12.8312 10.3158 13.4641 10.6284 13.9121C10.9457 14.3553 11.4033 14.5771 12.0005 14.5771C12.4018 14.5771 12.7386 14.477 13.0093 14.2764C13.2798 14.0758 13.4845 13.786 13.6245 13.4082C13.7692 13.0255 13.8423 12.5606 13.8423 12.0146C13.8422 11.1935 13.6852 10.5679 13.3726 10.1387C13.0599 9.70492 12.6023 9.48828 12.0005 9.48828ZM16.5337 9.50195C16.4358 9.50201 16.3354 9.52034 16.2329 9.55762C16.1349 9.59495 16.0369 9.64443 15.939 9.70508L14.9663 10.293C14.8636 10.3583 14.7937 10.4379 14.7563 10.5312C14.7191 10.6198 14.7095 10.7105 14.728 10.8037C14.7514 10.8923 14.7955 10.9698 14.8608 11.0352C14.9262 11.1005 15.0036 11.1403 15.0923 11.1543C15.1855 11.1682 15.2858 11.1424 15.3931 11.0771L15.9038 10.7656V13.6113H15.1968C15.0477 13.6114 14.9333 13.6481 14.854 13.7227C14.7747 13.7973 14.7349 13.9072 14.7349 14.0518C14.7349 14.1917 14.7748 14.3015 14.854 14.3809C14.9333 14.4601 15.0476 14.4999 15.1968 14.5H17.6265C17.771 14.4999 17.8831 14.4623 17.9624 14.3877C18.0415 14.3084 18.0815 14.1963 18.0815 14.0518C18.0815 13.9072 18.0417 13.7973 17.9624 13.7227C17.8831 13.6481 17.771 13.6114 17.6265 13.6113H16.9888V9.94336C16.9888 9.79403 16.9468 9.68426 16.8628 9.61426C16.7835 9.53963 16.6737 9.50195 16.5337 9.50195Z" fill="black"/>
</svg>
