<?xml version="1.0" encoding="utf-8"?>
<svg xmlns="http://www.w3.org/2000/svg" width="512" height="512" viewBox="0 0 512 512">
<path d="M96 32c-17.7 0-32 14.3-32 32v384c0 17.7 14.3 32 32 32h320c17.7 0 32-14.3 32-32V64c0-17.7-14.3-32-32-32H96zm320 416H96V64h320v384zM285.3 160c-8.9-25-36.3-38.1-61.4-29.2-13.7 4.8-24.4 15.6-29.2 29.2H128v32h66.7c8.9 25 36.3 38.1 61.4 29.2 13.7-4.8 24.4-15.6 29.2-29.2H384v-32h-98.7zM240 192c-8.8 0-16-7.2-16-16s7.2-16 16-16 16 7.2 16 16-7.2 16-16 16zm109.3 96c-8.9-25-36.3-38.1-61.4-29.2-13.7 4.8-24.4 15.6-29.2 29.2H128v32h130.7c8.9 25 36.3 38.1 61.4 29.2 13.7-4.8 24.4-15.6 29.2-29.2H384v-32h-34.7zM304 320c-8.8 0-16-7.2-16-16s7.2-16 16-16 16 7.2 16 16-7.2 16-16 16z"/>
</svg>
