<svg viewBox="0 0 24 24" fill="none" xmlns="http://www.w3.org/2000/svg" width="24" height="24">
<path d="M8.1 13.37C8.1 13.538 8.064 13.689 7.991 13.823 7.918 13.952 7.817 14.057 7.689 14.135 7.565 14.208 7.422 14.244 7.26 14.244 7.053 14.244 6.894 14.194 6.782 14.093 6.675 13.992 6.622 13.863 6.622 13.706 6.622 13.578 6.658 13.477 6.731 13.404 6.81 13.331 6.935 13.281 7.109 13.253 7.288 13.219 7.52 13.202 7.806 13.202H8.1V13.37Z" fill="black"/>
<path d="M12.423 11.741C12.692 11.741 12.91 11.839 13.078 12.035 13.246 12.226 13.33 12.525 13.33 12.934 13.33 13.208 13.291 13.435 13.213 13.614 13.14 13.787 13.033 13.919 12.893 14.009 12.759 14.098 12.602 14.143 12.423 14.143 12.149 14.143 11.928 14.045 11.76 13.849 11.592 13.648 11.508 13.343 11.508 12.934 11.508 12.66 11.547 12.435 11.625 12.261 11.703 12.082 11.811 11.95 11.945 11.866 12.085 11.783 12.244 11.741 12.423 11.741Z" fill="black"/>
<path fill-rule="evenodd" clip-rule="evenodd" d="M20.911 3.3C21.689 3.301 22.321 3.932 22.321 4.71V19.29C22.321 20.068 21.689 20.699 20.911 20.7H3.09C2.312 20.7 1.679 20.069 1.679 19.29V4.71C1.679 3.931 2.312 3.3 3.09 3.3H20.911ZM7.411 10.792C7.215 10.792 6.999 10.811 6.764 10.85 6.535 10.89 6.289 10.962 6.026 11.068 5.897 11.113 5.804 11.184 5.748 11.279 5.692 11.369 5.664 11.464 5.664 11.564 5.664 11.659 5.689 11.75 5.74 11.834 5.79 11.912 5.863 11.968 5.958 12.001 6.053 12.029 6.163 12.015 6.286 11.959 6.498 11.875 6.691 11.817 6.865 11.783 7.044 11.744 7.209 11.724 7.361 11.723 7.629 11.723 7.82 11.778 7.932 11.884 8.044 11.985 8.1 12.158 8.1 12.404V12.547H7.798C7.215 12.547 6.748 12.586 6.395 12.664 6.042 12.737 5.788 12.864 5.631 13.043 5.474 13.217 5.395 13.454 5.395 13.757 5.395 14.009 5.462 14.236 5.597 14.437 5.731 14.639 5.919 14.798 6.159 14.916 6.4 15.033 6.673 15.093 6.975 15.093 7.193 15.093 7.386 15.056 7.554 14.984 7.722 14.905 7.859 14.798 7.965 14.664 8.034 14.578 8.087 14.482 8.126 14.377V14.429C8.126 14.636 8.176 14.796 8.277 14.907 8.383 15.019 8.532 15.076 8.722 15.076 8.912 15.076 9.057 15.019 9.158 14.907 9.259 14.796 9.309 14.636 9.309 14.429V12.564C9.309 12.155 9.24 11.822 9.1 11.564 8.96 11.301 8.75 11.108 8.47 10.985 8.196 10.856 7.842 10.792 7.411 10.792ZM10.895 9.002C10.688 9.002 10.528 9.058 10.416 9.17 10.309 9.276 10.256 9.436 10.256 9.649V14.429C10.256 14.636 10.309 14.796 10.416 14.907 10.528 15.019 10.684 15.076 10.886 15.076 11.087 15.076 11.242 15.019 11.348 14.907 11.454 14.796 11.508 14.636 11.508 14.429V14.406C11.602 14.581 11.739 14.729 11.919 14.849 12.177 15.011 12.471 15.093 12.802 15.093 13.16 15.093 13.473 15.006 13.741 14.832 14.016 14.659 14.229 14.409 14.38 14.085 14.531 13.76 14.607 13.376 14.607 12.934 14.607 12.492 14.531 12.111 14.38 11.791 14.229 11.472 14.019 11.226 13.751 11.052 13.482 10.878 13.165 10.792 12.802 10.792 12.477 10.792 12.188 10.871 11.936 11.027 11.757 11.138 11.621 11.274 11.524 11.433V9.649C11.524 9.436 11.469 9.276 11.357 9.17 11.25 9.058 11.096 9.002 10.895 9.002ZM17.391 10.792C17.055 10.792 16.75 10.842 16.475 10.943 16.201 11.038 15.965 11.178 15.769 11.363 15.578 11.547 15.434 11.772 15.333 12.035 15.232 12.298 15.182 12.595 15.182 12.926 15.182 13.368 15.271 13.752 15.45 14.077 15.629 14.401 15.884 14.653 16.214 14.832 16.55 15.006 16.943 15.093 17.391 15.093 17.564 15.093 17.746 15.071 17.937 15.026 18.127 14.987 18.317 14.918 18.507 14.823 18.614 14.773 18.687 14.703 18.727 14.613 18.771 14.518 18.788 14.423 18.777 14.328 18.771 14.228 18.74 14.14 18.684 14.067 18.634 13.989 18.564 13.936 18.475 13.908 18.385 13.88 18.284 13.894 18.172 13.95 18.06 14.012 17.948 14.057 17.836 14.085 17.724 14.107 17.617 14.118 17.516 14.118 17.186 14.118 16.928 14.014 16.744 13.807 16.565 13.594 16.475 13.303 16.475 12.934 16.475 12.744 16.497 12.576 16.542 12.43 16.593 12.285 16.66 12.163 16.744 12.068 16.833 11.967 16.943 11.892 17.072 11.842 17.2 11.786 17.348 11.757 17.516 11.757 17.617 11.757 17.724 11.772 17.836 11.8 17.953 11.828 18.066 11.873 18.172 11.934 18.284 11.99 18.385 12.007 18.475 11.985 18.564 11.957 18.637 11.906 18.693 11.834 18.754 11.755 18.79 11.667 18.802 11.572 18.813 11.472 18.796 11.377 18.751 11.287 18.712 11.192 18.637 11.119 18.525 11.068 18.335 10.968 18.141 10.898 17.945 10.859 17.749 10.814 17.564 10.792 17.391 10.792Z" fill="black"/>
</svg>