<svg width="24" height="24" viewBox="0 0 24 24" fill="none" xmlns="http://www.w3.org/2000/svg">
<path fill-rule="evenodd" clip-rule="evenodd" d="M9 10.5C11.8995 10.5 14.25 12.8505 14.25 15.75C14.25 18.6495 11.8995 21 9 21C6.1005 21 3.75 18.6495 3.75 15.75C3.75 12.8505 6.1005 10.5 9 10.5ZM9 13.5C8.58579 13.5 8.25 13.8358 8.25 14.25V15.75C8.25006 16.1642 8.58582 16.5 9 16.5H10.4951C10.9093 16.5 11.2451 16.1642 11.2451 15.75C11.2451 15.3358 10.9093 15 10.4951 15H9.75V14.25C9.75 13.8358 9.41421 13.5 9 13.5Z" fill="black"/>
<path fill-rule="evenodd" clip-rule="evenodd" d="M16.5 1.5C16.9142 1.5 17.25 1.83579 17.25 2.25V3H19.5C20.3284 3 21 3.67157 21 4.5V19.5C21 20.3284 20.3284 21 19.5 21H15.0469C14.6327 21 14.2969 20.6642 14.2969 20.25C14.2969 19.8358 14.6327 19.5 15.0469 19.5H19.5V9H4.5V10.4463C4.5 10.8605 4.16421 11.1963 3.75 11.1963C3.33579 11.1963 3 10.8605 3 10.4463V4.5C3 3.67157 3.67157 3 4.5 3H6.75V2.25C6.75 1.83579 7.08579 1.5 7.5 1.5C7.91421 1.5 8.25 1.83579 8.25 2.25V3H15.75V2.25C15.75 1.83579 16.0858 1.5 16.5 1.5ZM4.5 7.5H19.5V4.5H17.25V5.25C17.25 5.66421 16.9142 6 16.5 6C16.0858 6 15.75 5.66421 15.75 5.25V4.5H8.25V5.25C8.25 5.66421 7.91421 6 7.5 6C7.08579 6 6.75 5.66421 6.75 5.25V4.5H4.5V7.5Z" fill="black"/>
</svg>
