<svg width="24" height="24" viewBox="0 0 24 24" fill="none" xmlns="http://www.w3.org/2000/svg">
<path fill-rule="evenodd" clip-rule="evenodd" d="M3.75 20.25C2.92157 20.25 2.25 19.5784 2.25 18.75V5.25C2.25 4.42157 2.92157 3.75 3.75 3.75H20.25C21.0784 3.75 21.75 4.42157 21.75 5.25V18.75C21.75 19.5784 21.0784 20.25 20.25 20.25H3.75ZM18.249 16.6396C18.6631 16.6395 18.999 16.3038 18.999 15.8896C18.999 15.4755 18.6631 15.1398 18.249 15.1396H15.752C15.3377 15.1396 15.002 15.4754 15.002 15.8896C15.002 16.3039 15.3377 16.6396 15.752 16.6396H18.249ZM13.249 16.6396C13.6631 16.6395 13.999 16.3038 13.999 15.8896C13.999 15.4755 13.6631 15.1398 13.249 15.1396H10.752C10.3377 15.1396 10.002 15.4754 10.002 15.8896C10.002 16.3039 10.3377 16.6396 10.752 16.6396H13.249ZM8.24902 16.6396C8.66313 16.6395 8.99902 16.3038 8.99902 15.8896C8.99902 15.4755 8.66313 15.1398 8.24902 15.1396H5.75195C5.33774 15.1396 5.00195 15.4754 5.00195 15.8896C5.00195 16.3039 5.33774 16.6396 5.75195 16.6396H8.24902Z" fill="black"/>
</svg>
