<svg width="24" height="24" viewBox="0 0 24 24" fill="none" xmlns="http://www.w3.org/2000/svg">
<path fill-rule="evenodd" clip-rule="evenodd" d="M3.75 20.25C2.92157 20.25 2.25 19.5784 2.25 18.75V5.25C2.25 4.42157 2.92157 3.75 3.75 3.75H20.25C21.0784 3.75 21.75 4.42157 21.75 5.25V18.75C21.75 19.5784 21.0784 20.25 20.25 20.25H3.75ZM10.8691 15.374C11.2691 15.4812 11.6807 15.2437 11.7881 14.8438L13.2109 9.54395C13.318 9.14416 13.0814 8.73247 12.6816 8.625C12.2818 8.51768 11.8703 8.75555 11.7627 9.15527L10.3389 14.4551C10.2315 14.8551 10.4692 15.2665 10.8691 15.374ZM15.4248 14.9941C15.839 14.9941 16.1748 14.6584 16.1748 14.2441V12.749H17.3535C17.7677 12.749 18.1035 12.4132 18.1035 11.999C18.1032 11.5851 17.7676 11.249 17.3535 11.249H16.1748V10.5049H17.6748C18.089 10.5049 18.4248 10.1691 18.4248 9.75488C18.4245 9.34089 18.0889 9.00488 17.6748 9.00488H15.4248C15.0109 9.00501 14.6751 9.34097 14.6748 9.75488V14.2441C14.6748 14.6583 15.0107 14.994 15.4248 14.9941ZM7.8252 14.9941C8.23936 14.9941 8.57512 14.6583 8.5752 14.2441V10.5049H9.3252C9.73941 10.5049 10.0752 10.1691 10.0752 9.75488C10.0749 9.3409 9.73924 9.00488 9.3252 9.00488H6.3252C5.91115 9.00488 5.57547 9.3409 5.5752 9.75488C5.5752 10.1691 5.91098 10.5049 6.3252 10.5049H7.0752V14.2441C7.07527 14.6583 7.41107 14.9941 7.8252 14.9941Z" fill="black"/>
</svg>
