<svg viewBox="0 0 24 24" fill="none" xmlns="http://www.w3.org/2000/svg" width="24" height="24">
<path fill-rule="evenodd" clip-rule="evenodd" d="M20.911 3.3C21.689 3.301 22.321 3.932 22.321 4.71V19.29C22.321 20.068 21.689 20.699 20.911 20.7H3.09C2.312 20.7 1.679 20.069 1.679 19.29V4.71C1.679 3.931 2.312 3.3 3.09 3.3H20.911ZM13.002 8.65C12.907 8.644 12.815 8.672 12.725 8.734 12.636 8.79 12.571 8.879 12.532 9.002L10.634 14.924C10.589 15.058 10.586 15.173 10.625 15.268 10.665 15.364 10.727 15.437 10.811 15.487 10.894 15.543 10.987 15.571 11.087 15.571 11.193 15.571 11.289 15.543 11.373 15.487 11.463 15.432 11.527 15.341 11.566 15.218L13.465 9.288C13.51 9.154 13.512 9.042 13.473 8.952 13.434 8.857 13.369 8.784 13.28 8.734 13.196 8.678 13.103 8.65 13.002 8.65ZM6.291 9.079C6.117 9.079 5.983 9.125 5.888 9.22 5.792 9.31 5.745 9.442 5.745 9.615 5.745 9.783 5.792 9.915 5.888 10.01 5.983 10.105 6.117 10.153 6.291 10.153H7.778V14.403C7.778 14.616 7.833 14.782 7.945 14.899 8.057 15.017 8.22 15.076 8.433 15.076 8.645 15.076 8.805 15.017 8.911 14.899 9.023 14.782 9.08 14.616 9.08 14.403V10.153H10.566C10.739 10.153 10.874 10.105 10.969 10.01 11.064 9.915 11.112 9.783 11.112 9.615 11.112 9.442 11.064 9.31 10.969 9.22 10.874 9.125 10.739 9.079 10.566 9.079H6.291ZM14.716 9.079C14.498 9.079 14.33 9.137 14.213 9.254 14.095 9.372 14.036 9.54 14.036 9.758V14.387C14.036 14.611 14.092 14.782 14.204 14.899 14.322 15.017 14.487 15.076 14.7 15.076 15.125 15.076 15.337 14.846 15.337 14.387V12.555H17.405C17.573 12.555 17.702 12.51 17.791 12.421 17.881 12.331 17.925 12.205 17.925 12.043 17.925 11.881 17.881 11.757 17.791 11.673 17.702 11.583 17.573 11.539 17.405 11.539H15.337V10.095H17.589C17.757 10.095 17.883 10.052 17.967 9.968 18.057 9.878 18.102 9.75 18.102 9.582 18.102 9.42 18.057 9.296 17.967 9.212 17.883 9.123 17.757 9.079 17.589 9.079H14.716Z" fill="black"/>
</svg>