<svg viewBox="0 0 24 24" fill="none" xmlns="http://www.w3.org/2000/svg" width="24" height="24">
<path fill-rule="evenodd" clip-rule="evenodd" d="M20.911 3.3C21.689 3.301 22.321 3.932 22.321 4.71V19.29C22.321 20.068 21.689 20.699 20.911 20.7H3.09C2.312 20.7 1.679 20.069 1.679 19.29V4.71C1.679 3.931 2.312 3.3 3.09 3.3H20.911ZM16.913 8.986C16.621 8.986 16.333 9.022 16.048 9.095 15.768 9.168 15.507 9.274 15.266 9.414 15.138 9.481 15.048 9.568 14.998 9.674 14.953 9.78 14.939 9.887 14.955 9.994 14.978 10.094 15.022 10.184 15.089 10.262 15.162 10.341 15.252 10.391 15.359 10.413 15.465 10.436 15.58 10.416 15.703 10.355 15.905 10.248 16.092 10.176 16.266 10.137 16.439 10.092 16.616 10.069 16.795 10.069 17.086 10.069 17.307 10.128 17.459 10.246 17.615 10.363 17.694 10.534 17.694 10.758 17.694 10.915 17.654 11.046 17.576 11.153 17.503 11.259 17.4 11.343 17.265 11.405 17.136 11.461 16.976 11.489 16.786 11.489H16.417C16.232 11.489 16.089 11.537 15.988 11.632 15.893 11.721 15.846 11.85 15.846 12.018 15.846 12.18 15.893 12.309 15.988 12.404 16.089 12.494 16.232 12.539 16.417 12.539H16.913C17.226 12.539 17.464 12.597 17.626 12.715 17.789 12.832 17.87 13.009 17.87 13.245 17.87 13.412 17.831 13.552 17.753 13.664 17.674 13.776 17.559 13.863 17.408 13.924 17.257 13.98 17.07 14.009 16.846 14.009 16.65 14.009 16.453 13.987 16.257 13.942 16.061 13.897 15.854 13.821 15.635 13.714 15.495 13.647 15.367 13.625 15.25 13.648 15.138 13.67 15.045 13.723 14.972 13.807 14.899 13.885 14.854 13.978 14.837 14.085 14.826 14.191 14.847 14.3 14.897 14.412 14.953 14.518 15.054 14.611 15.199 14.689 15.423 14.818 15.686 14.919 15.988 14.992 16.296 15.059 16.599 15.093 16.896 15.093 17.355 15.093 17.749 15.023 18.08 14.883 18.416 14.743 18.674 14.544 18.853 14.286 19.032 14.023 19.122 13.715 19.122 13.362 19.121 12.964 19.009 12.633 18.785 12.37 18.6 12.153 18.357 12.004 18.054 11.92 18.197 11.866 18.324 11.796 18.432 11.707 18.595 11.573 18.721 11.41 18.811 11.22 18.9 11.029 18.946 10.82 18.946 10.59 18.946 10.254 18.864 9.969 18.702 9.734 18.54 9.493 18.307 9.308 18.005 9.179 17.702 9.051 17.338 8.986 16.913 8.986ZM7.368 9.002C7.25 9.002 7.13 9.024 7.007 9.069 6.889 9.114 6.771 9.173 6.654 9.246L5.487 9.952C5.364 10.03 5.28 10.125 5.235 10.237 5.19 10.344 5.178 10.453 5.201 10.564 5.229 10.671 5.282 10.764 5.36 10.842 5.439 10.921 5.531 10.968 5.638 10.985 5.75 11.002 5.87 10.971 5.999 10.893L6.612 10.519V13.934H5.763C5.584 13.934 5.447 13.978 5.352 14.067 5.257 14.157 5.209 14.289 5.209 14.462 5.209 14.63 5.257 14.762 5.352 14.857 5.447 14.952 5.584 15 5.763 15H8.679C8.852 15 8.987 14.955 9.082 14.865 9.177 14.77 9.225 14.636 9.225 14.462 9.225 14.289 9.177 14.157 9.082 14.067 8.987 13.978 8.852 13.934 8.679 13.934H7.914V9.532C7.914 9.353 7.863 9.221 7.763 9.137 7.667 9.048 7.536 9.002 7.368 9.002ZM11.868 8.986C11.582 8.986 11.293 9.025 11.002 9.103 10.71 9.176 10.442 9.288 10.195 9.439 10.072 9.512 9.988 9.602 9.943 9.708 9.899 9.814 9.888 9.921 9.911 10.028 9.933 10.134 9.98 10.226 10.052 10.304 10.125 10.377 10.213 10.425 10.314 10.447 10.42 10.464 10.535 10.438 10.658 10.371 10.843 10.265 11.019 10.19 11.187 10.145 11.36 10.095 11.528 10.069 11.691 10.069 11.993 10.069 12.223 10.133 12.38 10.262 12.542 10.391 12.623 10.579 12.623 10.826 12.623 11.021 12.57 11.217 12.464 11.413 12.363 11.609 12.195 11.834 11.96 12.086L10.38 13.748C10.274 13.86 10.19 13.97 10.128 14.077 10.067 14.183 10.036 14.297 10.036 14.42 10.036 14.61 10.084 14.756 10.179 14.857 10.28 14.952 10.434 15 10.641 15H13.656C13.835 15 13.971 14.955 14.06 14.865 14.155 14.77 14.202 14.635 14.202 14.462 14.202 14.289 14.155 14.157 14.06 14.067 13.971 13.978 13.835 13.934 13.656 13.934H11.709L12.85 12.773C13.101 12.516 13.303 12.276 13.454 12.052 13.611 11.822 13.726 11.595 13.799 11.371 13.872 11.147 13.909 10.918 13.909 10.683 13.909 10.319 13.83 10.01 13.673 9.758 13.517 9.506 13.287 9.316 12.984 9.188 12.682 9.053 12.31 8.986 11.868 8.986Z" fill="black"/>
</svg>