<svg width="24" height="24" viewBox="0 0 24 24" fill="none" xmlns="http://www.w3.org/2000/svg">
<path fill-rule="evenodd" clip-rule="evenodd" d="M19.4258 4.75C20.0742 4.75047 20.6005 5.27625 20.6006 5.9248V18.0752C20.6005 18.7237 20.0742 19.2495 19.4258 19.25H4.5752C3.92642 19.2499 3.39952 18.724 3.39941 18.0752V5.9248C3.39952 5.27602 3.92642 4.75011 4.5752 4.75H19.4258ZM16.0938 9.48828C15.8512 9.48828 15.6109 9.5185 15.373 9.5791C15.1398 9.63975 14.9223 9.7281 14.7217 9.84473C14.6146 9.90061 14.5401 9.97311 14.498 10.0615C14.4607 10.1502 14.4489 10.2395 14.4629 10.3281C14.4815 10.4119 14.5184 10.4866 14.5742 10.5518C14.6349 10.6171 14.7102 10.6591 14.7988 10.6777C14.8875 10.6964 14.9833 10.6802 15.0859 10.6289C15.2538 10.5403 15.4101 10.4799 15.5547 10.4473C15.6994 10.4099 15.8468 10.3906 15.9961 10.3906C16.2385 10.3907 16.4229 10.4401 16.5488 10.5381C16.6793 10.6361 16.7451 10.7783 16.7451 10.9648C16.7451 11.0955 16.7118 11.2053 16.6465 11.2939C16.5858 11.3826 16.4996 11.4526 16.3877 11.5039C16.2804 11.5506 16.1469 11.5742 15.9883 11.5742H15.6807C15.5267 11.5742 15.4072 11.614 15.3232 11.6934C15.2442 11.7679 15.2051 11.875 15.2051 12.0146C15.2051 12.1498 15.2441 12.2576 15.3232 12.3369C15.4072 12.4116 15.5267 12.4492 15.6807 12.4492H16.0938C16.3549 12.4492 16.5532 12.4978 16.6885 12.5957C16.8238 12.6937 16.8916 12.8411 16.8916 13.0371C16.8916 13.1769 16.8591 13.2935 16.7939 13.3867C16.7287 13.48 16.6327 13.5522 16.5068 13.6035C16.3809 13.6501 16.2246 13.6738 16.0381 13.6738C15.8748 13.6738 15.7111 13.6555 15.5479 13.6182C15.3845 13.5808 15.2113 13.5174 15.0293 13.4287C14.9129 13.3729 14.8058 13.3545 14.708 13.373C14.6147 13.3917 14.5372 13.4359 14.4766 13.5059C14.4159 13.5712 14.3783 13.6486 14.3643 13.7373C14.355 13.8259 14.3721 13.9166 14.4141 14.0098C14.4607 14.0984 14.5447 14.1759 14.666 14.2412C14.8525 14.3484 15.0716 14.4325 15.3232 14.4932C15.5799 14.5492 15.8327 14.5771 16.0801 14.5771C16.4624 14.5771 16.7912 14.5189 17.0664 14.4023C17.3464 14.2857 17.5616 14.1199 17.7109 13.9053C17.8603 13.6859 17.9346 13.4288 17.9346 13.1348C17.9345 12.8035 17.8409 12.5279 17.6543 12.3086C17.5004 12.1279 17.2971 12.0033 17.0449 11.9336C17.1644 11.8884 17.2699 11.8301 17.3604 11.7559C17.4957 11.6439 17.6011 11.5083 17.6758 11.3496C17.7503 11.1911 17.7881 11.0163 17.7881 10.8252C17.7881 10.5454 17.7201 10.3073 17.585 10.1113C17.4497 9.91076 17.2557 9.75674 17.0039 9.64941C16.7519 9.54209 16.4484 9.48829 16.0938 9.48828ZM8.13965 9.50195C8.04179 9.50201 7.94138 9.52034 7.83887 9.55762C7.74089 9.59495 7.6429 9.64443 7.54492 9.70508L6.57227 10.293C6.4696 10.3583 6.39964 10.4379 6.3623 10.5312C6.32506 10.6198 6.31541 10.7105 6.33398 10.8037C6.35731 10.8923 6.4015 10.9698 6.4668 11.0352C6.53213 11.1005 6.60958 11.1403 6.69824 11.1543C6.79149 11.1682 6.89181 11.1424 6.99902 11.0771L7.50977 10.7656V13.6113H6.80273C6.65364 13.6114 6.53923 13.6481 6.45996 13.7227C6.38067 13.7973 6.34086 13.9072 6.34082 14.0518C6.34082 14.1917 6.38072 14.3015 6.45996 14.3809C6.53923 14.4601 6.65358 14.4999 6.80273 14.5H9.23242C9.37693 14.4999 9.48908 14.4623 9.56836 14.3877C9.64751 14.3084 9.6875 14.1963 9.6875 14.0518C9.68746 13.9072 9.64765 13.7973 9.56836 13.7227C9.48909 13.6481 9.37691 13.6114 9.23242 13.6113H8.59473V9.94336C8.59473 9.79403 8.55275 9.68426 8.46875 9.61426C8.38942 9.53963 8.27961 9.50195 8.13965 9.50195ZM11.8896 9.48828C11.6516 9.48828 11.4106 9.5206 11.168 9.58594C10.9254 9.64661 10.7013 9.74027 10.4961 9.86621C10.3936 9.92684 10.3234 10.0013 10.2861 10.0898C10.2488 10.1785 10.2401 10.2678 10.2588 10.3564C10.2775 10.4448 10.3165 10.5218 10.377 10.5869C10.4376 10.6476 10.5107 10.6874 10.5947 10.7061C10.6833 10.7199 10.7793 10.6985 10.8818 10.6426C11.0356 10.5541 11.1825 10.4914 11.3223 10.4541C11.4669 10.4121 11.6069 10.3906 11.7422 10.3906C11.9941 10.3906 12.1857 10.4445 12.3164 10.5518C12.4517 10.6591 12.5195 10.8162 12.5195 11.0215C12.5194 11.1845 12.4752 11.3477 12.3867 11.5107C12.3027 11.6741 12.1628 11.8613 11.9668 12.0713L10.6504 13.457C10.5617 13.5504 10.4918 13.6418 10.4404 13.7305C10.3893 13.8189 10.3633 13.9142 10.3633 14.0166C10.3633 14.1752 10.4031 14.2969 10.4824 14.3809C10.5664 14.4602 10.6946 14.5 10.8672 14.5H13.3799C13.5292 14.5 13.6421 14.4624 13.7168 14.3877C13.7959 14.3084 13.835 14.1962 13.835 14.0518C13.8349 13.9072 13.796 13.7973 13.7168 13.7227C13.6421 13.648 13.5292 13.6113 13.3799 13.6113H11.7578L12.708 12.6445C12.9179 12.43 13.0859 12.2296 13.2119 12.043C13.3426 11.8516 13.4384 11.6623 13.499 11.4756C13.5596 11.2891 13.5908 11.0981 13.5908 10.9023C13.5908 10.599 13.5252 10.3418 13.3945 10.1318C13.2639 9.92187 13.0723 9.76358 12.8203 9.65625C12.5684 9.54428 12.2582 9.48831 11.8896 9.48828Z" fill="black"/>
</svg>
