<svg viewBox="0 0 24 24" fill="none" xmlns="http://www.w3.org/2000/svg" width="24" height="24">
<path d="M20.91 3.9C20.91 4.115 20.825 4.321 20.673 4.473 20.521 4.625 20.315 4.71 20.1 4.71H18.48L18.48 14.648C18.48 14.863 18.395 15.069 18.243 15.221 18.091 15.373 17.885 15.458 17.67 15.458 17.455 15.458 17.249 15.373 17.097 15.221 16.945 15.069 16.86 14.863 16.86 14.648L16.86 4.71H14.43V20.1C14.43 20.315 14.345 20.521 14.193 20.673 14.041 20.825 13.835 20.91 13.62 20.91 13.405 20.91 13.199 20.825 13.047 20.673 12.895 20.521 12.81 20.315 12.81 20.1V16.05H8.76C7.041 16.05 5.393 15.368 4.178 14.152 2.963 12.937 2.28 11.289 2.28 9.57 2.28 7.852 2.963 6.203 4.178 4.988 5.393 3.773 7.041 3.09 8.76 3.09H20.1C20.315 3.09 20.521 3.176 20.673 3.327 20.825 3.479 20.91 3.685 20.91 3.9Z" fill="black"/>
<path d="M22.53 16.861C22.977 16.861 23.34 17.224 23.34 17.671 23.34 18.118 22.977 18.481 22.53 18.481H17.67C17.223 18.481 16.86 18.118 16.86 17.671 16.86 17.224 17.223 16.861 17.67 16.861H22.53Z" fill="black"/>
<path d="M19.29 20.1V15.24C19.29 14.793 19.653 14.431 20.1 14.431 20.547 14.431 20.91 14.793 20.91 15.24V20.1C20.91 20.548 20.547 20.91 20.1 20.91 19.653 20.91 19.29 20.548 19.29 20.1Z" fill="black"/>
</svg>