<svg viewBox="0 0 24 24" fill="none" xmlns="http://www.w3.org/2000/svg" width="24" height="24">
<path d="M8.392 10.044C8.717 10.044 8.958 10.198 9.115 10.506 9.272 10.814 9.35 11.318 9.35 12.018 9.35 12.717 9.272 13.23 9.115 13.555 8.958 13.874 8.717 14.034 8.392 14.034 8.067 14.034 7.827 13.874 7.67 13.555 7.513 13.23 7.434 12.717 7.434 12.018 7.434 11.318 7.513 10.814 7.67 10.506 7.827 10.198 8.067 10.044 8.392 10.044Z" fill="black"/>
<path fill-rule="evenodd" clip-rule="evenodd" d="M20.911 3.3C21.689 3.301 22.321 3.932 22.321 4.71V19.29C22.321 20.068 21.689 20.699 20.911 20.7H3.09C2.312 20.7 1.679 20.069 1.679 19.29V4.71C1.679 3.931 2.312 3.3 3.09 3.3H20.911ZM8.392 8.986C7.916 8.986 7.513 9.104 7.182 9.339 6.858 9.568 6.608 9.909 6.435 10.363 6.267 10.811 6.183 11.363 6.183 12.018 6.183 12.997 6.37 13.757 6.745 14.295 7.126 14.826 7.675 15.093 8.392 15.093 8.873 15.093 9.278 14.972 9.602 14.732 9.927 14.491 10.173 14.143 10.341 13.69 10.514 13.231 10.602 12.673 10.602 12.018 10.602 11.032 10.413 10.281 10.038 9.766 9.663 9.246 9.114 8.986 8.392 8.986ZM12.009 13.614C11.785 13.614 11.606 13.681 11.472 13.815 11.343 13.944 11.278 14.112 11.278 14.319 11.278 14.532 11.343 14.706 11.472 14.841 11.606 14.975 11.785 15.042 12.009 15.042 12.233 15.042 12.407 14.975 12.53 14.841 12.658 14.706 12.723 14.532 12.723 14.319 12.723 14.112 12.658 13.944 12.53 13.815 12.407 13.681 12.233 13.614 12.009 13.614ZM16.014 9.002C15.896 9.002 15.776 9.024 15.653 9.069 15.535 9.114 15.418 9.173 15.3 9.246L14.133 9.952C14.01 10.03 13.926 10.125 13.881 10.237 13.836 10.344 13.825 10.453 13.847 10.564 13.875 10.671 13.928 10.764 14.006 10.842 14.085 10.921 14.178 10.968 14.284 10.985 14.396 11.002 14.516 10.971 14.645 10.893L15.258 10.519V13.934H14.409C14.23 13.934 14.093 13.978 13.998 14.067 13.903 14.157 13.855 14.289 13.855 14.462 13.855 14.63 13.903 14.762 13.998 14.857 14.093 14.952 14.23 15 14.409 15H17.325C17.498 15 17.633 14.955 17.728 14.865 17.823 14.77 17.871 14.636 17.871 14.462 17.871 14.289 17.823 14.157 17.728 14.067 17.633 13.978 17.498 13.934 17.325 13.934H16.56V9.532C16.56 9.353 16.509 9.221 16.409 9.137 16.313 9.048 16.182 9.002 16.014 9.002Z" fill="black"/>
</svg>