<svg width="24" height="24" viewBox="0 0 24 24" fill="none" xmlns="http://www.w3.org/2000/svg">
<path fill-rule="evenodd" clip-rule="evenodd" d="M20.1664 3.00049C20.6266 3.00049 21.0004 3.37326 21.0004 3.8335V20.1665C21.0004 20.6267 20.6266 21.0005 20.1664 21.0005H3.83337C3.37314 21.0005 2.99939 20.6267 2.99939 20.1665V3.8335C2.99939 3.37326 3.37314 3.00049 3.83337 3.00049H20.1664ZM7.30994 4.42529C7.23348 4.42554 7.16063 4.43992 7.09119 4.46143C7.06881 4.46833 7.04558 4.47289 7.0238 4.48193C7.00641 4.48918 6.9907 4.49981 6.974 4.5083C6.90515 4.54322 6.83917 4.58747 6.78162 4.64502L4.68201 6.74463C4.38944 7.03747 4.38941 7.51235 4.68201 7.80518C4.97481 8.09798 5.44964 8.09781 5.74255 7.80518L6.56287 6.98389V17.0151L5.74255 16.1948C5.44965 15.902 4.97486 15.902 4.68201 16.1948C4.38931 16.4877 4.38928 16.9625 4.68201 17.2554L6.78162 19.355C6.81021 19.3836 6.84169 19.4081 6.87341 19.4312C6.92006 19.465 6.96992 19.4946 7.0238 19.5171C7.04559 19.5262 7.06879 19.5307 7.09119 19.5376C7.16151 19.5594 7.23537 19.5757 7.31287 19.5757C7.39344 19.5756 7.46962 19.5583 7.54236 19.5347C7.56086 19.5287 7.57994 19.5245 7.59802 19.5171C7.6526 19.4945 7.70317 19.4654 7.75037 19.4312C7.77781 19.4113 7.80433 19.3898 7.82947 19.3657C7.83497 19.3605 7.84073 19.3555 7.84607 19.3501L9.94275 17.2554C10.2355 16.9625 10.2355 16.4877 9.94275 16.1948C9.64988 15.9021 9.17507 15.9021 8.8822 16.1948L8.06287 17.0132V6.98584L8.8822 7.80518C9.17501 8.09798 9.64984 8.09781 9.94275 7.80518C10.2353 7.51226 10.2355 7.03742 9.94275 6.74463L7.84314 4.64502C7.80651 4.60842 7.76658 4.57579 7.72498 4.54834L7.60388 4.48389C7.60199 4.48309 7.59992 4.48272 7.59802 4.48193C7.57995 4.47449 7.56085 4.47033 7.54236 4.46436C7.46975 4.44088 7.39328 4.42534 7.31287 4.42529H7.30994ZM11.5902 18.0728C11.176 18.0728 10.8402 18.4086 10.8402 18.8228C10.8405 19.2367 11.1762 19.5727 11.5902 19.5728H18.6488C19.0627 19.5726 19.3985 19.2366 19.3988 18.8228C19.3988 18.4086 19.0629 18.0729 18.6488 18.0728H11.5902ZM11.5902 14.6616C11.176 14.6617 10.8402 14.9974 10.8402 15.4116C10.8405 15.8256 11.1762 16.1616 11.5902 16.1616H18.6488C19.0627 16.1615 19.3986 15.8255 19.3988 15.4116C19.3988 14.9975 19.0629 14.6618 18.6488 14.6616H11.5902ZM11.5902 11.2505C11.176 11.2505 10.8402 11.5863 10.8402 12.0005C10.8404 12.4145 11.1762 12.7504 11.5902 12.7505H18.6488C19.0627 12.7503 19.3986 12.4144 19.3988 12.0005C19.3988 11.5864 19.0629 11.2506 18.6488 11.2505H11.5902ZM11.6078 7.8335C11.1938 7.83373 10.8578 8.16944 10.8578 8.5835C10.8578 8.99756 11.1938 9.33326 11.6078 9.3335H18.6664C19.0805 9.33333 19.4164 8.99761 19.4164 8.5835C19.4164 8.1694 19.0804 7.83366 18.6664 7.8335H11.6078ZM11.5902 4.42822C11.176 4.42828 10.8402 4.76405 10.8402 5.17822C10.8404 5.59222 11.1762 5.92816 11.5902 5.92822H18.6664C19.0805 5.92822 19.4162 5.59226 19.4164 5.17822C19.4164 4.76401 19.0806 4.42822 18.6664 4.42822H11.5902Z" fill="black"/>
</svg>
