<svg viewBox="0 0 24 24" fill="none" xmlns="http://www.w3.org/2000/svg" width="24" height="24">
<path fill-rule="evenodd" clip-rule="evenodd" d="M20.809 2.28C21.312 2.28 21.72 2.688 21.72 3.192V20.809C21.72 21.312 21.312 21.72 20.809 21.72H3.191C2.688 21.72 2.28 21.312 2.28 20.809V3.192C2.28 2.688 2.688 2.28 3.191 2.28H20.809ZM7.523 6.017C7.49 6.018 7.458 6.021 7.426 6.026 7.412 6.028 7.399 6.028 7.385 6.031L7.355 6.038C7.322 6.046 7.289 6.058 7.257 6.07 7.247 6.074 7.236 6.077 7.226 6.081 7.183 6.1 7.14 6.123 7.1 6.15L7.092 6.154C7.056 6.179 7.022 6.208 6.99 6.238L6.971 6.254 4.674 8.551C4.354 8.871 4.354 9.39 4.674 9.711 4.995 10.031 5.514 10.031 5.835 9.711L6.731 8.813V15.187L5.835 14.292C5.515 13.971 4.995 13.972 4.674 14.292 4.354 14.612 4.354 15.132 4.674 15.452L6.964 17.741C7.004 17.782 7.048 17.818 7.096 17.85 7.109 17.859 7.124 17.866 7.138 17.874 7.171 17.893 7.204 17.912 7.24 17.927 7.248 17.931 7.258 17.932 7.267 17.935 7.307 17.95 7.348 17.964 7.391 17.972 7.496 17.993 7.604 17.993 7.708 17.972 7.751 17.964 7.792 17.95 7.833 17.935 7.842 17.932 7.851 17.931 7.86 17.927 7.896 17.913 7.929 17.893 7.962 17.874 7.976 17.866 7.99 17.859 8.004 17.85 8.049 17.82 8.092 17.787 8.131 17.748L10.427 15.452C10.746 15.132 10.747 14.612 10.427 14.292 10.106 13.972 9.587 13.972 9.267 14.292L8.37 15.189V8.813L9.267 9.711C9.588 10.031 10.106 10.031 10.427 9.711 10.746 9.39 10.747 8.871 10.427 8.551L8.131 6.254C8.093 6.217 8.052 6.184 8.01 6.156 8.004 6.152 7.998 6.15 7.993 6.146 7.955 6.122 7.916 6.101 7.876 6.083 7.865 6.079 7.855 6.075 7.845 6.071 7.809 6.058 7.773 6.046 7.736 6.037 7.718 6.033 7.699 6.03 7.681 6.028 7.648 6.022 7.615 6.018 7.581 6.017 7.571 6.016 7.561 6.014 7.55 6.014 7.541 6.014 7.532 6.017 7.523 6.017ZM13.612 16.344C13.16 16.345 12.794 16.711 12.794 17.164 12.794 17.617 13.161 17.984 13.614 17.984H19.568C20.02 17.984 20.387 17.617 20.387 17.164 20.387 16.711 20.019 16.345 19.566 16.344H13.612ZM13.612 13.026C13.16 13.026 12.794 13.393 12.794 13.845 12.794 14.298 13.161 14.665 13.614 14.665H19.568C20.02 14.665 20.387 14.298 20.387 13.845 20.387 13.393 20.019 13.026 19.566 13.026H13.612ZM13.612 9.525C13.16 9.526 12.794 9.893 12.794 10.345 12.794 10.798 13.161 11.165 13.614 11.165H19.568C20.02 11.165 20.387 10.798 20.387 10.345 20.387 9.892 20.019 9.526 19.566 9.525H13.612ZM13.612 5.994C13.16 5.995 12.794 6.361 12.794 6.814 12.794 7.267 13.161 7.634 13.614 7.634H19.568C20.02 7.633 20.387 7.267 20.387 6.814 20.387 6.361 20.019 5.995 19.566 5.994H13.612Z" fill="black"/>
</svg>