<svg width="24" height="24" viewBox="0 0 24 24" fill="none" xmlns="http://www.w3.org/2000/svg">
<path d="M11.5146 11.2627V11.1289H12.3438C12.3615 11.1289 12.379 11.1359 12.3916 11.1484C12.4041 11.161 12.4111 11.1786 12.4111 11.1963C12.411 11.2138 12.4039 11.2307 12.3916 11.2432C12.379 11.2557 12.3615 11.2627 12.3438 11.2627H11.5146Z" fill="black"/>
<path d="M11.5146 13.1152V12.7627H12.4531C12.4996 12.7628 12.5442 12.7816 12.5771 12.8145C12.6101 12.8475 12.6289 12.8928 12.6289 12.9395C12.6288 12.986 12.61 13.0306 12.5771 13.0635C12.5442 13.0964 12.4997 13.1152 12.4531 13.1152H11.5146Z" fill="black"/>
<path fill-rule="evenodd" clip-rule="evenodd" d="M3.75 20.25C2.92157 20.25 2.25 19.5784 2.25 18.75V5.25C2.25 4.42157 2.92157 3.75 3.75 3.75H20.25C21.0784 3.75 21.75 4.42157 21.75 5.25V18.75C21.75 19.5784 21.0784 20.25 20.25 20.25H3.75ZM16.0674 14.4873C16.5636 14.6526 17.0994 14.6578 17.5986 14.502C18.0979 14.346 18.5357 14.0365 18.8496 13.6182C19.098 13.2869 19.0312 12.817 18.7002 12.5684C18.3689 12.3199 17.899 12.3867 17.6504 12.7178C17.5253 12.8845 17.3503 13.0082 17.1514 13.0703C16.9525 13.1323 16.7386 13.1303 16.541 13.0645C16.3435 12.9986 16.1716 12.8719 16.0498 12.7031C15.928 12.5341 15.8624 12.3304 15.8623 12.1221C15.8623 11.9137 15.928 11.7101 16.0498 11.541C16.1716 11.3721 16.3435 11.2456 16.541 11.1797C16.7387 11.1138 16.9525 11.1118 17.1514 11.1738C17.3503 11.236 17.5253 11.3596 17.6504 11.5264C17.899 11.8573 18.369 11.9241 18.7002 11.6758C19.0313 11.4272 19.0979 10.9572 18.8496 10.626C18.5357 10.2075 18.0979 9.89818 17.5986 9.74219C17.0993 9.58627 16.5636 9.59148 16.0674 9.75684C15.5711 9.92229 15.1389 10.2397 14.833 10.6641C14.5271 11.0885 14.3623 11.5989 14.3623 12.1221C14.3624 12.6453 14.5271 13.1556 14.833 13.5801C15.139 14.0044 15.5711 14.3219 16.0674 14.4873ZM12.4531 14.6152C12.8975 14.6152 13.3234 14.4382 13.6377 14.124C13.9519 13.8098 14.1288 13.3838 14.1289 12.9395C14.1289 12.5517 13.994 12.1777 13.751 11.8799C13.8537 11.6685 13.9111 11.4357 13.9111 11.1963C13.9111 10.7807 13.7459 10.3818 13.4521 10.0879C13.1583 9.794 12.7594 9.62891 12.3438 9.62891H10.7646C10.3504 9.62891 10.0146 9.96469 10.0146 10.3789V13.8652C10.0148 14.2793 10.3505 14.6152 10.7646 14.6152H12.4531ZM5.43066 14.5615C5.80525 14.7377 6.25218 14.5775 6.42871 14.2031L6.70898 13.6074H8.07227L8.35254 14.2031C8.52907 14.5775 8.97599 14.7377 9.35059 14.5615C9.72507 14.3852 9.88584 13.9391 9.70996 13.5645L8.06934 10.0771C7.94556 9.81448 7.68102 9.64649 7.39062 9.64648C7.13647 9.64649 6.90211 9.77525 6.76465 9.9834L6.71191 10.0771L5.07129 13.5645C4.89542 13.9391 5.05619 14.3852 5.43066 14.5615Z" fill="black"/>
</svg>
