<svg width="24" height="24" viewBox="0 0 24 24" fill="none" xmlns="http://www.w3.org/2000/svg">
<path d="M8.9375 13.5C8.76051 13.5 8.54355 13.4057 8.34473 13.1406C8.14573 12.8753 8 12.4747 8 12C8 11.5253 8.14573 11.1247 8.34473 10.8594C8.54355 10.5943 8.76051 10.5 8.9375 10.5C9.11449 10.5 9.33145 10.5943 9.53027 10.8594C9.72927 11.1247 9.875 11.5253 9.875 12C9.875 12.4747 9.72927 12.8753 9.53027 13.1406C9.33145 13.4057 9.11449 13.5 8.9375 13.5Z" fill="black"/>
<path fill-rule="evenodd" clip-rule="evenodd" d="M3.75 20.25C2.92157 20.25 2.25 19.5784 2.25 18.75V5.25C2.25 4.42157 2.92157 3.75 3.75 3.75H20.25C21.0784 3.75 21.75 4.42157 21.75 5.25V18.75C21.75 19.5784 21.0784 20.25 20.25 20.25H3.75ZM8.9375 15C9.69242 15 10.3185 14.5902 10.7305 14.041C11.1422 13.492 11.375 12.7679 11.375 12C11.375 11.2321 11.1422 10.508 10.7305 9.95898C10.3185 9.40982 9.69242 9 8.9375 9C8.18258 9 7.55646 9.40982 7.14453 9.95898C6.73277 10.508 6.5 11.2321 6.5 12C6.5 12.7679 6.73277 13.492 7.14453 14.041C7.55646 14.5902 8.18258 15 8.9375 15ZM15.6738 15C16.088 15 16.4238 14.6642 16.4238 14.25V9.75C16.4238 9.4734 16.2712 9.21938 16.0273 9.08887C15.7835 8.95849 15.4879 8.9726 15.2578 9.12598L14.1328 9.87598C13.7882 10.1057 13.695 10.5714 13.9248 10.916C14.1458 11.2475 14.584 11.3447 14.9238 11.1475V14.25C14.9238 14.6642 15.2596 15 15.6738 15ZM12.5498 14.5439C12.9639 14.5439 13.2995 14.2079 13.2998 13.7939C13.2998 13.3797 12.964 13.0439 12.5498 13.0439H12.5C12.0858 13.0439 11.75 13.3797 11.75 13.7939C11.7503 14.2079 12.0859 14.5439 12.5 14.5439H12.5498Z" fill="black"/>
</svg>
