<svg width="24" height="24" viewBox="0 0 24 24" fill="none" xmlns="http://www.w3.org/2000/svg">
<path d="M20.9989 4.50317H2.99901C2.60119 4.50317 2.21966 4.66121 1.93836 4.94251C1.65706 5.22381 1.49902 5.60534 1.49902 6.00316V18.0031C1.49902 18.4009 1.65706 18.7824 1.93836 19.0637C2.21966 19.345 2.60119 19.5031 2.99901 19.5031H20.9989C21.3967 19.5031 21.7782 19.345 22.0595 19.0637C22.3408 18.7824 22.4989 18.4009 22.4989 18.0031V6.00316C22.4989 5.60534 22.3408 5.22381 22.0595 4.94251C21.7782 4.66121 21.3967 4.50317 20.9989 4.50317ZM19.1783 13.3822C19.2362 13.4622 19.2778 13.5528 19.3007 13.6489C19.3236 13.745 19.3273 13.8447 19.3117 13.9423C19.2961 14.0398 19.2614 14.1333 19.2096 14.2174C19.1578 14.3016 19.09 14.3747 19.01 14.4326C18.93 14.4906 18.8393 14.5322 18.7432 14.555C18.6471 14.5779 18.5474 14.5817 18.4499 14.566C18.3524 14.5504 18.2588 14.5157 18.1747 14.464C18.0906 14.4122 18.0174 14.3444 17.9595 14.2643L17.2489 13.279L16.5336 14.2643C16.4166 14.426 16.2402 14.5345 16.0432 14.566C15.8462 14.5976 15.6447 14.5496 15.4831 14.4326C15.3215 14.3156 15.213 14.1392 15.1814 13.9423C15.1499 13.7453 15.1979 13.5438 15.3149 13.3822L16.0311 12.3978L14.8724 12.0228C14.7787 11.992 14.6921 11.9431 14.6174 11.8788C14.5426 11.8146 14.4813 11.7362 14.4369 11.6483C14.3471 11.4706 14.3316 11.2646 14.3938 11.0755C14.4245 10.9818 14.4735 10.8952 14.5377 10.8205C14.602 10.7457 14.6803 10.6844 14.7683 10.64C14.946 10.5502 15.152 10.5347 15.3411 10.5969L16.4989 10.9719V9.75313C16.4989 9.55422 16.5779 9.36346 16.7186 9.22281C16.8592 9.08216 17.05 9.00314 17.2489 9.00314C17.4478 9.00314 17.6386 9.08216 17.7792 9.22281C17.9199 9.36346 17.9989 9.55422 17.9989 9.75313V10.9719L19.1567 10.5969C19.2503 10.5661 19.3491 10.5541 19.4474 10.5615C19.5457 10.5689 19.6415 10.5955 19.7295 10.64C19.8175 10.6844 19.8958 10.7457 19.9601 10.8205C20.0243 10.8952 20.0733 10.9818 20.104 11.0755C20.1348 11.1691 20.1469 11.2679 20.1395 11.3661C20.1321 11.4644 20.1054 11.5603 20.0609 11.6483C20.0165 11.7362 19.9552 11.8146 19.8804 11.8788C19.8057 11.9431 19.7191 11.992 19.6254 12.0228L18.4667 12.3978L19.1783 13.3822ZM12.4283 13.3822C12.4862 13.4622 12.5278 13.5528 12.5507 13.6489C12.5736 13.745 12.5774 13.8447 12.5617 13.9423C12.5461 14.0398 12.5114 14.1333 12.4597 14.2174C12.4079 14.3016 12.3401 14.3747 12.26 14.4326C12.18 14.4906 12.0894 14.5322 11.9933 14.555C11.8972 14.5779 11.7975 14.5817 11.7 14.566C11.6024 14.5504 11.5089 14.5157 11.4248 14.464C11.3406 14.4122 11.2675 14.3444 11.2096 14.2643L10.499 13.279L9.78365 14.2643C9.66666 14.426 9.49027 14.5345 9.29327 14.566C9.09627 14.5976 8.8948 14.5496 8.73319 14.4326C8.57157 14.3156 8.46305 14.1392 8.43149 13.9423C8.39993 13.7453 8.44792 13.5438 8.56491 13.3822L9.28115 12.3978L8.12241 12.0228C8.02878 11.992 7.94213 11.9431 7.86741 11.8788C7.79269 11.8146 7.73136 11.7362 7.68692 11.6483C7.59716 11.4706 7.58166 11.2646 7.64382 11.0755C7.6746 10.9818 7.72352 10.8952 7.78778 10.8205C7.85205 10.7457 7.9304 10.6844 8.01837 10.64C8.19603 10.5502 8.40207 10.5347 8.59116 10.5969L9.74896 10.9719V9.75313C9.74896 9.55422 9.82798 9.36346 9.96863 9.22281C10.1093 9.08216 10.3 9.00314 10.499 9.00314C10.6979 9.00314 10.8886 9.08216 11.0293 9.22281C11.1699 9.36346 11.2489 9.55422 11.2489 9.75313V10.9719L12.4068 10.5969C12.5004 10.5661 12.5992 10.5541 12.6974 10.5615C12.7957 10.5689 12.8916 10.5955 12.9795 10.64C13.0675 10.6844 13.1459 10.7457 13.2101 10.8205C13.2744 10.8952 13.3233 10.9818 13.3541 11.0755C13.3849 11.1691 13.3969 11.2679 13.3895 11.3661C13.3821 11.4644 13.3554 11.5603 13.311 11.6483C13.2666 11.7362 13.2052 11.8146 13.1305 11.8788C13.0558 11.9431 12.9691 11.992 12.8755 12.0228L11.7168 12.3978L12.4283 13.3822ZM5.99899 8.25315V15.7531C5.99899 15.952 5.91997 16.1428 5.77932 16.2834C5.63867 16.4241 5.44791 16.5031 5.24899 16.5031C5.05008 16.5031 4.85932 16.4241 4.71867 16.2834C4.57802 16.1428 4.499 15.952 4.499 15.7531V8.25315C4.499 8.05423 4.57802 7.86347 4.71867 7.72282C4.85932 7.58217 5.05008 7.50315 5.24899 7.50315C5.44791 7.50315 5.63867 7.58217 5.77932 7.72282C5.91997 7.86347 5.99899 8.05423 5.99899 8.25315Z" fill="black"/>
</svg>
