<svg width="24" height="24" viewBox="0 0 24 24" fill="none" xmlns="http://www.w3.org/2000/svg">
<path d="M20.3023 3.69916C19.111 2.50621 17.5525 1.74943 15.8784 1.55095C14.2042 1.35246 12.5119 1.72385 11.0747 2.60518C9.63751 3.48651 8.53916 4.82637 7.95691 6.40855C7.37466 7.99073 7.34248 9.72295 7.86555 11.3257L2.68872 16.5025C2.54882 16.6413 2.43791 16.8065 2.36243 16.9885C2.28695 17.1705 2.2484 17.3658 2.24903 17.5628V20.2525C2.24903 20.6503 2.40707 21.0318 2.68837 21.3131C2.96967 21.5944 3.3512 21.7525 3.74902 21.7525H6.749C6.94791 21.7525 7.13867 21.6734 7.27932 21.5328C7.41997 21.3921 7.49899 21.2014 7.49899 21.0025V19.5025H8.99898C9.19789 19.5025 9.38865 19.4235 9.5293 19.2828C9.66996 19.1422 9.74897 18.9514 9.74897 18.7525V17.2525H11.249C11.3475 17.2526 11.4451 17.2332 11.5361 17.1956C11.6271 17.158 11.7099 17.1027 11.7796 17.0331L12.6758 16.1359C13.426 16.3799 14.2101 16.5037 14.9989 16.5025H15.0083C16.4909 16.5007 17.9397 16.0595 19.1717 15.2347C20.4036 14.4099 21.3635 13.2385 21.93 11.8684C22.4965 10.4983 22.6443 8.99103 22.3546 7.53702C22.0649 6.08301 21.3507 4.74748 20.3023 3.69916ZM16.8739 8.62756C16.5772 8.62756 16.2872 8.53959 16.0406 8.37477C15.7939 8.20995 15.6016 7.97568 15.4881 7.70159C15.3746 7.42751 15.3449 7.12591 15.4028 6.83494C15.4606 6.54397 15.6035 6.2767 15.8133 6.06692C16.023 5.85714 16.2903 5.71428 16.5813 5.65641C16.8723 5.59853 17.1739 5.62823 17.4479 5.74176C17.722 5.85529 17.9563 6.04755 18.1211 6.29422C18.2859 6.5409 18.3739 6.8309 18.3739 7.12757C18.3739 7.52539 18.2159 7.90692 17.9346 8.18822C17.6533 8.46953 17.2717 8.62756 16.8739 8.62756Z" fill="black"/>
</svg>
