<svg xmlns="http://www.w3.org/2000/svg" width="24" height="24" fill="currentColor" viewBox="0 0 24 24"><path d="M21.72 3.9H2.28A1.62 1.62 0 0 0 0.66 5.52v12.96a1.62 1.62 0 0 0 1.62 1.62h19.44a1.62 1.62 0 0 0 1.62-1.62V5.52a1.62 1.62 0 0 0-1.62-1.62m-1.967 9.589a0.812 0.812 0 1 1-1.316 0.953l-0.768-1.064-0.773 1.064a0.812 0.812 0 1 1-1.316-0.953l0.774-1.063-1.252-0.406a0.81 0.81 0 1 1 0.506-1.539l1.251 0.405V9.57a0.81 0.81 0 0 1 1.62 0v1.316l1.25-0.405a0.81 0.81 0 0 1 0.507 1.539l-1.252 0.406z m-7.29 0a0.812 0.812 0 1 1-1.316 0.953l-0.768-1.064-0.773 1.064a0.812 0.812 0 1 1-1.316-0.953l0.774-1.063-1.252-0.406a0.81 0.81 0 1 1 0.506-1.539l1.251 0.405V9.57a0.81 0.81 0 0 1 1.62 0v1.316l1.25-0.405a0.81 0.81 0 1 1 0.507 1.539l-1.252 0.406zM5.52 7.95v8.1a0.81 0.81 0 0 1-1.62 0v-8.1a0.81 0.81 0 0 1 1.62 0"/></svg>