<?xml version="1.0" encoding="utf-8"?>
<svg xmlns="http://www.w3.org/2000/svg" width="512" height="512" viewBox="0 0 512 512">
  <path d="M224 16c23.7 0 44.306 12.9 55.406 32h47.313l-20 50.719L191.906 144H128V80H64v384h320V336.093l32-81.218V464c0 17.699-14.301 32-32 32H64c-17.7 0-32-14.301-32-32V80c0-17.7 14.3-32 32-32h104.594C179.694 28.9 200.3 16 224 16m0 32c-17.7 0-32 14.3-32 32h64c0-17.7-14.3-32-32-32m144 0 31.674 80.325L480 160l-80.326 31.675L368 272l-31.675-80.325L256 160l80.325-31.675z"/>
</svg>
