<svg width="24" height="24" viewBox="0 0 24 24" fill="none" xmlns="http://www.w3.org/2000/svg">
<path d="M21.3739 18.7472C21.3737 19.3776 21.1466 19.9868 20.7342 20.4636C20.3218 20.9403 19.7517 21.2528 19.1279 21.3438C18.5041 21.4348 17.8684 21.2983 17.337 20.9593C16.8056 20.6202 16.4139 20.1012 16.2336 19.4972H6.74899C5.55552 19.4972 4.41094 19.0231 3.56703 18.1792C2.72313 17.3353 2.24902 16.1907 2.24902 14.9972C2.24902 13.8038 2.72313 12.6592 3.56703 11.8153C4.41094 10.9714 5.55552 10.4973 6.74899 10.4973H15.7489C16.3457 10.4973 16.9179 10.2602 17.3399 9.83826C17.7619 9.41631 17.9989 8.84402 17.9989 8.24729C17.9989 7.65055 17.7619 7.07826 17.3399 6.65631C16.9179 6.23435 16.3457 5.9973 15.7489 5.9973H6.74899C6.55008 5.9973 6.35931 5.91829 6.21866 5.77763C6.07801 5.63698 5.999 5.44622 5.999 5.24731C5.999 5.0484 6.07801 4.85763 6.21866 4.71698C6.35931 4.57633 6.55008 4.49731 6.74899 4.49731H15.7489C16.7435 4.49731 17.6973 4.8924 18.4006 5.59566C19.1038 6.29891 19.4989 7.25273 19.4989 8.24729C19.4989 9.24184 19.1038 10.1957 18.4006 10.8989C17.6973 11.6022 16.7435 11.9973 15.7489 11.9973H6.74899C5.95335 11.9973 5.19029 12.3133 4.62769 12.8759C4.06508 13.4385 3.74901 14.2016 3.74901 14.9972C3.74901 15.7929 4.06508 16.5559 4.62769 17.1185C5.19029 17.6811 5.95335 17.9972 6.74899 17.9972H16.2336C16.4139 17.3932 16.8056 16.8742 17.337 16.5352C17.8684 16.1961 18.5041 16.0596 19.1279 16.1506C19.7517 16.2416 20.3218 16.5541 20.7342 17.0308C21.1466 17.5076 21.3737 18.1168 21.3739 18.7472Z" fill="black"/>
</svg>
