<?xml version="1.0" encoding="utf-8"?>
<svg xmlns="http://www.w3.org/2000/svg" width="512" height="512" viewBox="0 0 512 512">
<path d="M218.46 113.31L217.88 113.5C217.96 113.4 218.05 113.3 218.14 113.2L218.46 113.31ZM256 256C233.56 256 212.02 259.85 192 266.94C184.1 269.73 176.44 273.03 169.05 276.8C165.98 278.35 162.97 279.99 160 281.71C159.32 282.1 158.64 282.5 157.97 282.91C101.71 316.39 64 377.81 64 448C64 465.7 78.3 480 96 480H416C433.7 480 448 465.7 448 448C448 342 362 256 256 256ZM140.14 384L140.02 384.66L128.85 448H96C96 405.28 112.65 365.11 142.88 334.88C145.19 332.57 147.56 330.34 149.98 328.2L140.14 384ZM186.79 303.67C187.58 303.29 188.36 302.92 189.16 302.56L203.52 384H172.63L186.79 303.67ZM168.94 448C167.03 448.01 164.36 448.01 161.34 448.01L166.99 416H209.16L214.8 448H168.94ZM241.84 417H336C344.27 417 351 423.73 351 432C351 440.27 344.27 447 336 447H247.12L241.84 417ZM381.27 448C383.04 443 384 437.61 384 432C384 405.49 362.51 384 336 384H236.02L219.81 292.09C231.54 289.39 243.66 288 256 288C298.72 288 338.89 304.65 369.12 334.88C399.35 365.11 416 405.28 416 448H381.27ZM315.04 52.31C312.63 50.42 310.12 48.65 307.53 47C292.64 37.5 274.96 32 256 32C203 32 160 75 160 128C160 181 203 224 256 224C309 224 352 181 352 128C352 97.26 337.53 69.88 315.04 52.31ZM278.85 93.8L302.33 83.91C308.77 90.66 313.74 98.81 316.75 107.85L276.35 94.85L278.85 93.8ZM256 64C259.21 64 262.37 64.24 265.46 64.7L204.17 90.52C215.8 74.46 234.7 64 256 64ZM256 192C221.49 192 193.28 164.55 192.05 130.34L231.08 113.91L318.45 142C312.05 170.58 286.48 192 256 192Z" fill="black"/>
</svg>
