<?xml version="1.0" encoding="UTF-8"?><svg width="512" height="512" viewBox="0 0 512 512" fill="none" xmlns="http://www.w3.org/2000/svg">
<path d="M225.34 81.6L161.99 108.46C171.02 64.82 209.7 32 256 32C274.96 32 292.64 37.5 307.53 47C307.57 47.03 307.61 47.05 307.65 47.08L225.34 81.6ZM231.08 113.91L161.36 144.11C169.01 189.45 208.49 224 256 224C300.66 224 338.23 193.46 348.94 152.14L275.32 128.14L231.08 113.91ZM276.35 94.85L351.61 119.38C350.01 101.31 343.39 84.68 333.14 70.89L278.85 93.8L276.35 94.85ZM203.52 384H172.63L188.15 296.35L203.52 384ZM203.52 384H172.63L188.15 296.35L203.52 384ZM157.55 283.16L140.14 384L140.02 384.66L123.07 480H96C78.3 480 64 465.7 64 448C64 446.78 64.01 445.57 64.04 444.36C64.05 443.46 64.07 442.57 64.1 441.68C64.11 441.54 64.11 441.41 64.12 441.28C64.15 440.25 64.19 439.22 64.25 438.19V438.12C64.3 437.06 64.37 436.01 64.44 434.96V434.91C64.5 434.02 64.57 433.13 64.64 432.25C64.66 431.94 64.69 431.64 64.72 431.33C64.8 430.38 64.88 429.44 64.98 428.5C64.98 428.46 64.99 428.42 64.99 428.38C65.1 427.36 65.21 426.33 65.33 425.31C65.45 424.3 65.57 423.3 65.71 422.29C65.72 422.18 65.74 422.06 65.75 421.95C65.87 421.13 65.98 420.32 66.1 419.5C66.14 419.25 66.18 419.01 66.21 418.77C66.36 417.79 66.52 416.81 66.69 415.84C66.69 415.81 66.69 415.78 66.7 415.75C66.87 414.72 67.06 413.7 67.25 412.68C67.42 411.72 67.61 410.75 67.8 409.8C68.18 407.95 68.58 406.11 69.01 404.28C69.13 403.74 69.26 403.21 69.39 402.67C69.6 401.79 69.82 400.91 70.05 400.03C70.28 399.13 70.52 398.23 70.76 397.34C70.94 396.69 71.12 396.03 71.31 395.38C71.52 394.65 71.73 393.91 71.95 393.18C72.17 392.42 72.4 391.67 72.64 390.92C72.91 390.05 73.18 389.18 73.47 388.31C73.75 387.44 74.04 386.58 74.34 385.72C74.43 385.45 74.52 385.17 74.62 384.9C74.91 384.07 75.2 383.24 75.51 382.41C75.8 381.61 76.09 380.82 76.4 380.02C76.54 379.62 76.7 379.22 76.86 378.82C77.09 378.21 77.33 377.6 77.57 376.99C78 375.91 78.44 374.83 78.9 373.75C79.27 372.87 79.64 372 80.02 371.13C80.48 370.08 80.95 369.04 81.43 368C81.84 367.09 82.27 366.19 82.7 365.29C83.12 364.42 83.54 363.55 83.96 362.69C83.99 362.63 84.02 362.57 84.05 362.52C84.51 361.6 84.98 360.68 85.45 359.77C85.92 358.86 86.4 357.95 86.89 357.05C87.37 356.15 87.87 355.25 88.37 354.36C88.88 353.44 89.4 352.53 89.93 351.62C90.36 350.88 90.8 350.14 91.24 349.4C91.43 349.09 91.62 348.77 91.81 348.46C92.73 346.94 93.68 345.44 94.64 343.95C94.69 343.87 94.74 343.78 94.8 343.7C95.32 342.89 95.85 342.09 96.39 341.29C96.96 340.45 97.53 339.6 98.11 338.76C98.69 337.93 99.27 337.11 99.86 336.28C99.87 336.26 99.88 336.24 99.9 336.23C101.08 334.59 102.28 332.96 103.52 331.35C103.52 331.33 103.54 331.32 103.55 331.3C104.16 330.51 104.77 329.73 105.39 328.94C106.02 328.16 106.65 327.37 107.28 326.59C107.47 326.35 107.66 326.12 107.86 325.89C110.27 322.97 112.76 320.13 115.33 317.36C116.02 316.62 116.72 315.88 117.42 315.15C118.13 314.41 118.84 313.68 119.55 312.96C120.87 311.63 122.2 310.33 123.55 309.03C123.67 308.92 123.79 308.8 123.91 308.69C124.65 307.99 125.4 307.3 126.14 306.61C127.64 305.23 129.16 303.88 130.7 302.55C131.47 301.89 132.25 301.23 133.03 300.58C135.37 298.62 137.76 296.72 140.2 294.87C142.64 293.03 145.12 291.24 147.64 289.51C148.49 288.93 149.33 288.36 150.18 287.8C152.6 286.2 155.05 284.65 157.55 283.16ZM220.66 480H155.6L166.99 416H209.16L220.66 480ZM448 448C448 465.7 433.7 480 416 480H336C362.51 480 384 458.51 384 432C384 405.49 362.51 384 336 384H236.02L213.97 260.62C215.01 260.39 216.06 260.16 217.11 259.94C219.52 259.45 221.95 259 224.4 258.59C225.04 258.48 225.68 258.38 226.32 258.28C234.44 257.02 242.74 256.27 251.17 256.06C251.95 256.04 252.73 256.03 253.52 256.02C254.34 256.01 255.17 256 256 256C362 256 448 342 448 448ZM336 447H247.02L241.83 417H336C344.27 417 351 423.73 351 432C351 440.27 344.27 447 336 447ZM139.02 384V384.66L139.14 384H139.02ZM218.14 113.2C218.05 113.3 217.96 113.4 217.88 113.5L218.46 113.31L218.14 113.2Z" fill="black"/>
</svg>
