<svg width="24" height="24" viewBox="0 0 24 24" fill="none" xmlns="http://www.w3.org/2000/svg">
<path d="M19.5 3H7.5C7.10218 3 6.72064 3.15804 6.43934 3.43934C6.15804 3.72064 6 4.10218 6 4.5V6H4.5C4.10218 6 3.72064 6.15804 3.43934 6.43934C3.15804 6.72064 3 7.10218 3 7.5V19.5C3 19.8978 3.15804 20.2794 3.43934 20.5607C3.72064 20.842 4.10218 21 4.5 21H16.5C16.8978 21 17.2794 20.842 17.5607 20.5607C17.842 20.2794 18 19.8978 18 19.5V18H19.5C19.8978 18 20.2794 17.842 20.5607 17.5607C20.842 17.2794 21 16.8978 21 16.5V4.5C21 4.10218 20.842 3.72064 20.5607 3.43934C20.2794 3.15804 19.8978 3 19.5 3ZM7.5 4.5H19.5V11.0044L17.9344 9.43875C17.6531 9.15766 17.2717 8.99976 16.8741 8.99976C16.4764 8.99976 16.095 9.15766 15.8137 9.43875L8.75344 16.5H7.5V4.5ZM16.5 19.5H4.5V7.5H6V16.5C6 16.8978 6.15804 17.2794 6.43934 17.5607C6.72064 17.842 7.10218 18 7.5 18H16.5V19.5ZM9.75 8.25C9.75 7.95333 9.83797 7.66332 10.0028 7.41665C10.1676 7.16997 10.4019 6.97771 10.676 6.86418C10.9501 6.75065 11.2517 6.72094 11.5426 6.77882C11.8336 6.8367 12.1009 6.97956 12.3107 7.18934C12.5204 7.39912 12.6633 7.66639 12.7212 7.95736C12.7791 8.24834 12.7494 8.54994 12.6358 8.82403C12.5223 9.09811 12.33 9.33238 12.0834 9.4972C11.8367 9.66203 11.5467 9.75 11.25 9.75C10.8522 9.75 10.4706 9.59196 10.1893 9.31066C9.90804 9.02936 9.75 8.64782 9.75 8.25Z" fill="black"/>
</svg>
