<svg width="24" height="24" viewBox="0 0 24 24" fill="none" xmlns="http://www.w3.org/2000/svg">
<g clip-path="url(#clip0_2021_25760)">
<path d="M21.1864 8.25435C21.1489 8.16061 21.1095 8.06686 21.0692 7.97311C20.4643 6.57815 19.4854 5.37765 18.2408 4.50438H20.2489C20.4478 4.50438 20.6385 4.42537 20.7792 4.28471C20.9198 4.14406 20.9989 3.9533 20.9989 3.75439C20.9989 3.55548 20.9198 3.36471 20.7792 3.22406C20.6385 3.08341 20.4478 3.00439 20.2489 3.00439H10.4989C8.4253 3.00703 6.42848 3.78941 4.905 5.19618C3.38152 6.60295 2.4428 8.53122 2.27526 10.5981C1.62741 10.7591 1.05179 11.1317 0.639507 11.6567C0.227225 12.1817 0.00183734 12.8293 -0.000976562 13.4968C-0.000976562 13.6957 0.0780405 13.8865 0.218692 14.0271C0.359343 14.1678 0.550107 14.2468 0.749018 14.2468C0.947929 14.2468 1.13869 14.1678 1.27934 14.0271C1.41999 13.8865 1.49901 13.6957 1.49901 13.4968C1.49919 13.2233 1.57413 12.9551 1.71574 12.7211C1.85735 12.4871 2.06023 12.2963 2.30244 12.1693C2.48912 13.852 3.19076 15.436 4.31149 16.7049L5.48898 20.0011C5.59308 20.2927 5.78484 20.5449 6.03795 20.7232C6.29107 20.9014 6.59314 20.997 6.90272 20.9968H8.09521C8.40463 20.9968 8.7065 20.9011 8.95942 20.7229C9.21235 20.5446 9.40397 20.2925 9.50801 20.0011L9.68801 19.4968H15.0598L15.2398 20.0011C15.3439 20.2925 15.5355 20.5446 15.7884 20.7229C16.0414 20.9011 16.3432 20.9968 16.6526 20.9968H17.8451C18.1546 20.9968 18.4564 20.9011 18.7094 20.7229C18.9623 20.5446 19.1539 20.2925 19.2579 20.0011L20.7776 15.7468H20.9989C21.5956 15.7468 22.1679 15.5097 22.5898 15.0878C23.0118 14.6658 23.2488 14.0935 23.2488 13.4968V10.4968C23.2489 9.93251 23.0369 9.38875 22.6549 8.97339C22.2729 8.55802 21.7487 8.30138 21.1864 8.25435ZM14.2489 6.74687H10.4989C10.3 6.74687 10.1093 6.66785 9.96862 6.5272C9.82797 6.38655 9.74895 6.19578 9.74895 5.99687C9.74895 5.79796 9.82797 5.6072 9.96862 5.46655C10.1093 5.32589 10.3 5.24688 10.4989 5.24688H14.2489C14.4478 5.24688 14.6386 5.32589 14.7792 5.46655C14.9199 5.6072 14.9989 5.79796 14.9989 5.99687C14.9989 6.19578 14.9199 6.38655 14.7792 6.5272C14.6386 6.66785 14.4478 6.74687 14.2489 6.74687ZM16.8739 11.9968C16.6514 11.9968 16.4339 11.9308 16.2489 11.8072C16.0639 11.6836 15.9197 11.5079 15.8345 11.3024C15.7494 11.0968 15.7271 10.8706 15.7705 10.6524C15.8139 10.4341 15.9211 10.2337 16.0784 10.0763C16.2357 9.91901 16.4362 9.81187 16.6544 9.76846C16.8726 9.72505 17.0988 9.74733 17.3044 9.83248C17.51 9.91763 17.6857 10.0618 17.8093 10.2468C17.9329 10.4318 17.9989 10.6493 17.9989 10.8718C17.9989 11.1702 17.8804 11.4563 17.6694 11.6673C17.4584 11.8783 17.1723 11.9968 16.8739 11.9968Z" fill="black"/>
</g>
<defs>
<clipPath id="clip0_2021_25760">
<rect width="23.9998" height="23.9998" fill="white"/>
</clipPath>
</defs>
</svg>
