<?xml version="1.0" encoding="UTF-8"?>
<svg width="512" height="512" viewBox="0 0 512 512" fill="none" xmlns="http://www.w3.org/2000/svg">
<path d="M384 288C330.98 288 288 330.98 288 384C288 437.02 330.98 480 384 480C437.02 480 480 437.02 480 384C480 330.98 437.02 288 384 288ZM384 448C354.23 448 329.15 427.58 322.03 400H445.97C438.85 427.58 413.77 448 384 448ZM322.03 368C329.15 340.42 354.23 320 384 320C413.77 320 438.85 340.42 445.97 368H322.03ZM369.52 127.13C369.52 94.29 352.51 62.34 322.08 44.75C307.15 36.11 290.84 32 274.75 32C241.96 32 210.08 49.04 192.51 79.53L142.07 167.04L142 167L89.0001 259L89.0501 259.03L44.7201 335.95C18.5301 381.4 34.0801 439.51 79.4501 465.74C94.3901 474.38 110.7 478.49 126.79 478.49C159.57 478.49 191.44 461.45 209.01 430.97L252.85 354.91L253 355L307 261L356.8 174.55C365.43 159.58 369.52 143.25 369.52 127.13ZM247 301L181.28 414.99C170.09 434.42 149.21 446.49 126.79 446.49C115.86 446.49 105.03 443.57 95.4701 438.04C65.4201 420.67 55.1001 382.04 72.4501 351.93L116.77 275.01L138.89 238.19M154 210L220.23 95.51C231.44 76.08 252.33 64 274.75 64C285.68 64 296.5 66.92 306.07 72.46C325.47 83.67 337.52 104.62 337.52 127.13C337.52 138.12 334.6 148.99 329.08 158.57L263 273L154 210Z" fill="black"/>
</svg>
