<svg width="24" height="24" viewBox="0 0 24 24" fill="none" xmlns="http://www.w3.org/2000/svg">
<path fill-rule="evenodd" clip-rule="evenodd" d="M22.498 2.2489C22.498 1.83479 22.1621 1.49906 21.748 1.4989H11.752C11.3378 1.49897 11.002 1.83473 11.002 2.2489C11.002 2.66307 11.3378 2.99883 11.752 2.9989H21.748C22.1621 2.99874 22.498 2.66302 22.498 2.2489Z" fill="black"/>
<path d="M9.8916 3.0946C9.69151 3.02013 9.47764 2.98905 9.26465 3.00378C9.05169 3.01853 8.84415 3.07827 8.65625 3.17957C8.46841 3.28086 8.3012 3.42485 8.17188 3.5946C7.42389 4.58955 6.06131 6.83059 6.93457 9.21863L1.92188 14.2479C1.64078 14.5292 1.48242 14.9108 1.48242 15.3085C1.48252 15.706 1.64087 16.0869 1.92188 16.368L7.6084 22.0585L7.71875 22.1581C7.9856 22.3766 8.32104 22.4979 8.66895 22.4979C9.0666 22.4979 9.44919 22.3386 9.73047 22.0575L14.7607 17.0126L14.7808 17.0195C14.7883 17.0222 14.7959 17.0249 14.8037 17.0272C15.1391 17.1286 15.6134 17.235 16.1855 17.2606C17.3422 17.3125 18.8718 17.0325 20.4199 15.7841C20.5846 15.6522 20.7199 15.4873 20.8164 15.2997C20.913 15.112 20.969 14.9059 20.9805 14.6952C20.992 14.4844 20.9584 14.2732 20.8828 14.076C20.8073 13.8792 20.6922 13.7005 20.543 13.5516L16.0107 9.02039L20.0176 5.01453C20.3101 4.7216 20.3104 4.24675 20.0176 3.95398C19.7248 3.66126 19.2499 3.66146 18.957 3.95398L14.9502 7.95984L10.4248 3.43542L10.3057 3.32898C10.1813 3.22943 10.0415 3.15044 9.8916 3.0946Z" fill="black"/>
</svg>
