<svg width="24" height="24" viewBox="0 0 24 24" fill="none" xmlns="http://www.w3.org/2000/svg">
<path fill-rule="evenodd" clip-rule="evenodd" d="M12.9985 21.7516C12.9985 21.3375 12.6625 21.0018 12.2485 21.0016H2.25244C1.83823 21.0016 1.50244 21.3374 1.50244 21.7516C1.5027 22.1656 1.83839 22.5016 2.25244 22.5016H12.2485C12.6624 22.5014 12.9983 22.1654 12.9985 21.7516Z" fill="black"/>
<path d="M22.0786 9.75061C22.3592 9.46943 22.518 9.08929 22.5181 8.69202C22.5181 8.29436 22.3597 7.91274 22.0786 7.63147L16.3911 1.94202C16.1099 1.661 15.7291 1.50264 15.3315 1.50256C14.9339 1.50256 14.5513 1.66092 14.27 1.94202L9.23877 6.98694L9.21992 6.98077C9.2123 6.97821 9.20461 6.97564 9.19678 6.97327C8.86148 6.8719 8.38693 6.76556 7.81494 6.73987C6.65773 6.68795 5.12656 6.9674 3.57764 8.21741C3.41395 8.349 3.28017 8.51403 3.18408 8.70081C3.08756 8.88847 3.03152 9.09458 3.02002 9.3053C3.00858 9.51587 3.04124 9.72655 3.1167 9.92346C3.19213 10.1202 3.30846 10.299 3.45752 10.4479L7.98877 14.9781L3.98291 18.985C3.69003 19.2779 3.69006 19.7526 3.98291 20.0455C4.2758 20.3384 4.75056 20.3384 5.04346 20.0455L9.04932 16.0387L13.5757 20.5651C13.7271 20.7153 13.909 20.8315 14.1089 20.9059C14.3089 20.9803 14.5229 21.0114 14.7358 20.9967C14.9487 20.9819 15.1564 20.9222 15.3442 20.8209C15.5321 20.7196 15.6983 20.5747 15.8276 20.4049C16.5757 19.4098 17.938 17.1693 17.064 14.7809L22.0786 9.75061Z" fill="black"/>
</svg>
