<svg width="24" height="24" viewBox="0 0 24 24" fill="none" xmlns="http://www.w3.org/2000/svg">
<path d="M22.001 8.29883C22.001 8.57139 21.9065 8.8349 21.7354 9.04395L21.6572 9.12988L17.0635 13.7373C17.894 15.8341 16.6968 17.8302 16.0156 18.7363C15.9144 18.8692 15.7837 18.9812 15.6367 19.0605C15.4896 19.1399 15.3269 19.1876 15.1602 19.1992C14.9934 19.2108 14.8256 19.1862 14.6689 19.1279C14.5122 19.0696 14.3697 18.9782 14.251 18.8604L5.14551 9.75586C5.02872 9.63921 4.938 9.49886 4.87891 9.34473C4.8198 9.19043 4.79373 9.02534 4.80273 8.86035C4.81177 8.69531 4.85505 8.5337 4.93066 8.38672C5.00631 8.23974 5.11216 8.11013 5.24121 8.00684C6.59727 6.91337 7.93181 6.67176 8.93555 6.7168C9.43315 6.73914 9.84519 6.83209 10.1357 6.91992C10.1779 6.93267 10.2175 6.94614 10.2546 6.95876L10.2725 6.96484L14.877 2.34863C15.0972 2.12863 15.3967 2.00392 15.708 2.00391C16.0195 2.00391 16.3187 2.12747 16.5391 2.34766L21.6572 7.46875C21.8773 7.68896 22.0008 7.98755 22.001 8.29883Z" fill="black"/>
<path d="M9.56958 13.4883C9.83317 13.2251 10.2602 13.2249 10.5237 13.4883C10.7873 13.7519 10.7873 14.1798 10.5237 14.4434L6.44946 18.5176C6.18586 18.7812 5.75799 18.7812 5.49438 18.5176C5.23103 18.2541 5.23119 17.8271 5.49438 17.5635L9.56958 13.4883Z" fill="black"/>
<path d="M11.3242 20.6494C11.697 20.6494 11.999 20.9514 11.999 21.3242C11.999 21.697 11.697 21.999 11.3242 21.999H2.67578C2.30299 21.999 2.00098 21.697 2.00098 21.3242C2.00098 20.9514 2.30299 20.6494 2.67578 20.6494H11.3242Z" fill="black"/>
</svg>
