<?xml version="1.0" encoding="UTF-8"?>
<svg xmlns="http://www.w3.org/2000/svg" width="512" height="512" viewBox="0 0 512 512">
  <path d="m351.6,63.99q.1,0,0,0c.1,0,.1.1,0,0l.1,31.89h-32c-17.7,0-32.1,14.4-32.1,32.09v63.99c0,52.39,42.8,95.48,95.1,95.88h.8v63.99H128v-63.99h.1c52.9,1.9,95.7-43.09,95.7-96.08v-63.69c0-17.7-14.4-32.09-32.1-32.09h-31.9v-31.89l191.8-.1m0-31.99h-191.6c-17.7,0-32.1,14.4-32.1,32.09v31.89c0,17.7,14.4,32.09,32.1,32.09h31.9s.1,0,.1.1v63.99c0,35.29-28.6,63.89-63.9,63.89-17.7,0-32.1,14.4-32.1,32.09v63.79c0,17.7,14.4,32.09,32.1,32.09h111.8s.1,0,.1.1v79.48c0,8.5,6.5,15.9,15,16.4h1c8.8,0,16-7.2,16-16v-79.88s0-.1.1-.1h111.8c17.7,0,32.1-14.4,32.1-32.09v-63.89c0-17.7-14.4-32.09-32.1-32.09-35.3,0-63.9-28.59-63.9-63.89v-63.99s0-.1.1-.1h31.9c17.7,0,32.1-14.4,32.1-32.09v-31.79c-.4-17.7-14.8-32.09-32.5-32.09h0Z"/>
</svg>
