<svg xmlns="http://www.w3.org/2000/svg" width="24" height="24" fill="currentColor" viewBox="0 0 24 24"><path d="M23.34 12.071c-0.038 5.719-4.704 10.402-10.423 10.458a10.56 10.56 0 0 1-2.627-0.304 0.408 0.408 0 0 1-0.295-0.492l0.875-3.498a6.12 6.12 0 0 0 2.749 0.651c3.746 0 6.754-3.386 6.461-7.428a7.29 7.29 0 1 0-14.031 3.276 0.81 0.81 0 0 0 1.09 0.434 0.828 0.828 0 0 0 0.405-1.062 5.67 5.67 0 1 1 10.922-2.524c0.217 3.091-2.038 5.683-4.846 5.684a4.56 4.56 0 0 1-2.342-0.652l1.508-6.036a0.81 0.81 0 0 0-1.571-0.392L8.496 21.065a0.406 0.406 0 0 1-0.578 0.263 10.536 10.536 0 0 1-5.637-9.438c0.061-5.706 4.726-10.364 10.429-10.418a10.53 10.53 0 0 1 10.631 10.601z"/></svg>