<svg xmlns="http://www.w3.org/2000/svg" width="24" height="24" fill="currentColor" viewBox="0 0 24 24"><path d="M20.1 2.28h-2.43v-0.81a0.81 0.81 0 0 0-1.62 0V2.28h-3.24v-0.81a0.81 0.81 0 0 0-1.62 0V2.28h-3.24v-0.81a0.81 0.81 0 0 0-1.62 0V2.28H3.9a0.81 0.81 0 0 0-0.81 0.81v16.2a3.24 3.24 0 0 0 3.24 3.24h11.34a3.24 3.24 0 0 0 3.24-3.24v-16.2a0.81 0.81 0 0 0-0.81-0.81m-8.91 2.43a0.81 0.81 0 0 1 1.62 0V5.52a0.81 0.81 0 0 1-1.62 0zM7.14 6.33a0.81 0.81 0 0 1-0.81-0.81v-0.81a0.81 0.81 0 0 1 1.62 0V5.52a0.81 0.81 0 0 1-0.81 0.81m8.1 9.72H8.76a0.81 0.81 0 0 1 0-1.62h6.48a0.81 0.81 0 0 1 0 1.62m0-3.24H8.76a0.81 0.81 0 0 1 0-1.62h6.48a0.81 0.81 0 0 1 0 1.62M17.67 5.52a0.81 0.81 0 0 1-1.62 0v-0.81a0.81 0.81 0 0 1 1.62 0z"/></svg>