<?xml version="1.0" encoding="utf-8"?>
<svg xmlns="http://www.w3.org/2000/svg" width="512" height="512" viewBox="0 0 512 512">
<path d="M160 128C151.16 128 144 135.16 144 144C144 152.84 151.16 160 160 160C168.84 160 176 152.84 176 144C176 135.16 168.84 128 160 128ZM208 128.1V160L368 159.9V128L208 128.1ZM160 240C151.16 240 144 247.16 144 256C144 264.84 151.16 272 160 272C168.84 272 176 264.84 176 256C176 247.16 168.84 240 160 240ZM208 240.1V272L368 271.9V240L208 240.1ZM160 352C151.16 352 144 359.16 144 368C144 376.84 151.16 384 160 384C168.84 384 176 376.84 176 368C176 359.16 168.84 352 160 352ZM208 352.1V384L368 383.9V352L208 352.1ZM208 240.1V272L368 271.9V240L208 240.1ZM208 128.1V160L368 159.9V128L208 128.1ZM160 128C151.16 128 144 135.16 144 144C144 152.84 151.16 160 160 160C168.84 160 176 152.84 176 144C176 135.16 168.84 128 160 128ZM160 240C151.16 240 144 247.16 144 256C144 264.84 151.16 272 160 272C168.84 272 176 264.84 176 256C176 247.16 168.84 240 160 240ZM160 352C151.16 352 144 359.16 144 368C144 376.84 151.16 384 160 384C168.84 384 176 376.84 176 368C176 359.16 168.84 352 160 352ZM160 352C151.16 352 144 359.16 144 368C144 376.84 151.16 384 160 384C168.84 384 176 376.84 176 368C176 359.16 168.84 352 160 352ZM160 240C151.16 240 144 247.16 144 256C144 264.84 151.16 272 160 272C168.84 272 176 264.84 176 256C176 247.16 168.84 240 160 240ZM160 128C151.16 128 144 135.16 144 144C144 152.84 151.16 160 160 160C168.84 160 176 152.84 176 144C176 135.16 168.84 128 160 128ZM208 128.1V160L368 159.9V128L208 128.1ZM208 240.1V272L368 271.9V240L208 240.1ZM208 352.1V384L368 383.9V352L208 352.1ZM208 384L368 383.9V352L208 352.1V384ZM208 272L368 271.9V240L208 240.1V272ZM208 128.1V160L368 159.9V128L208 128.1ZM160 128C151.16 128 144 135.16 144 144C144 152.84 151.16 160 160 160C168.84 160 176 152.84 176 144C176 135.16 168.84 128 160 128ZM160 240C151.16 240 144 247.16 144 256C144 264.84 151.16 272 160 272C168.84 272 176 264.84 176 256C176 247.16 168.84 240 160 240ZM160 352C151.16 352 144 359.16 144 368C144 376.84 151.16 384 160 384C168.84 384 176 376.84 176 368C176 359.16 168.84 352 160 352ZM400 32H112C94.3 32 80 46.3 80 64V448C80 465.7 94.3 480 112 480H400C417.7 480 432 465.7 432 448V64C432 46.3 417.7 32 400 32ZM400 448H112V64H400V448ZM368 352L208 352.1V384L368 383.9V352ZM368 240L208 240.1V272L368 271.9V240ZM368 128L208 128.1V160L368 159.9V128ZM160 160C168.84 160 176 152.84 176 144C176 135.16 168.84 128 160 128C151.16 128 144 135.16 144 144C144 152.84 151.16 160 160 160ZM160 272C168.84 272 176 264.84 176 256C176 247.16 168.84 240 160 240C151.16 240 144 247.16 144 256C144 264.84 151.16 272 160 272ZM160 384C168.84 384 176 376.84 176 368C176 359.16 168.84 352 160 352C151.16 352 144 359.16 144 368C144 376.84 151.16 384 160 384ZM160 352C151.16 352 144 359.16 144 368C144 376.84 151.16 384 160 384C168.84 384 176 376.84 176 368C176 359.16 168.84 352 160 352ZM160 240C151.16 240 144 247.16 144 256C144 264.84 151.16 272 160 272C168.84 272 176 264.84 176 256C176 247.16 168.84 240 160 240ZM160 128C151.16 128 144 135.16 144 144C144 152.84 151.16 160 160 160C168.84 160 176 152.84 176 144C176 135.16 168.84 128 160 128ZM208 128.1V160L368 159.9V128L208 128.1ZM208 240.1V272L368 271.9V240L208 240.1ZM208 352.1V384L368 383.9V352L208 352.1ZM208 352.1V384L368 383.9V352L208 352.1ZM208 240.1V272L368 271.9V240L208 240.1ZM208 128.1V160L368 159.9V128L208 128.1ZM160 128C151.16 128 144 135.16 144 144C144 152.84 151.16 160 160 160C168.84 160 176 152.84 176 144C176 135.16 168.84 128 160 128ZM160 240C151.16 240 144 247.16 144 256C144 264.84 151.16 272 160 272C168.84 272 176 264.84 176 256C176 247.16 168.84 240 160 240ZM160 352C151.16 352 144 359.16 144 368C144 376.84 151.16 384 160 384C168.84 384 176 376.84 176 368C176 359.16 168.84 352 160 352ZM208 352.1V384L368 383.9V352L208 352.1Z" fill="black"/>
</svg>
