<svg width="24" height="24" viewBox="0 0 24 24" fill="none" xmlns="http://www.w3.org/2000/svg">
<path d="M22.4989 12.0006C22.4995 12.2553 22.4342 12.5058 22.3094 12.7277C22.1845 12.9496 22.0044 13.1355 21.7864 13.2672L8.27901 21.5303C8.05128 21.6697 7.79045 21.7458 7.52346 21.7508C7.25647 21.7557 6.993 21.6893 6.76027 21.5584C6.52975 21.4295 6.33772 21.2415 6.20393 21.0138C6.07013 20.7861 5.99941 20.5269 5.99902 20.2628V3.73851C5.99941 3.47441 6.07013 3.21517 6.20393 2.98746C6.33772 2.75975 6.52975 2.57179 6.76027 2.4429C6.993 2.31198 7.25647 2.24556 7.52346 2.2505C7.79045 2.25545 8.05128 2.33157 8.27901 2.47102L21.7864 10.7341C22.0044 10.8658 22.1845 11.0516 22.3094 11.2736C22.4342 11.4955 22.4995 11.746 22.4989 12.0006Z" fill="black"/>
</svg>
