<svg xmlns="http://www.w3.org/2000/svg" width="24" height="24" fill="currentColor" viewBox="0 0 24 24"><path d="M20.1 2.28H3.9A1.62 1.62 0 0 0 2.28 3.9v16.2a1.62 1.62 0 0 0 1.62 1.62h16.2a1.62 1.62 0 0 0 1.62-1.62V3.9a1.62 1.62 0 0 0-1.62-1.62M5.52 6.33h12.96a0.81 0.81 0 0 1 0 1.62H5.52a0.81 0.81 0 0 1 0-1.62m0 4.86h7.29a0.81 0.81 0 0 1 0 1.62H5.52a0.81 0.81 0 0 1 0-1.62m4.05 6.48H5.52a0.81 0.81 0 0 1 0-1.62h4.05a0.81 0.81 0 0 1 0 1.62m10.488-5.414a0.81 0.81 0 0 1-1.025 0.512l-1.364-0.455v4.546a2.43 2.43 0 1 1-1.62-2.291v-3.379a0.81 0.81 0 0 1 1.065-0.768l2.43 0.81a0.81 0.81 0 0 1 0.513 1.025z"/></svg>