<svg width="24" height="24" viewBox="0 0 24 24" fill="none" xmlns="http://www.w3.org/2000/svg">
<path d="M19.4989 3.00024H4.49901C4.10119 3.00024 3.71966 3.15828 3.43836 3.43958C3.15706 3.72088 2.99902 4.10241 2.99902 4.50023V19.5001C2.99902 19.8979 3.15706 20.2795 3.43836 20.5608C3.71966 20.8421 4.10119 21.0001 4.49901 21.0001H19.4989C19.8967 21.0001 20.2782 20.8421 20.5595 20.5608C20.8409 20.2795 20.9989 19.8979 20.9989 19.5001V4.50023C20.9989 4.10241 20.8409 3.72088 20.5595 3.43958C20.2782 3.15828 19.8967 3.00024 19.4989 3.00024ZM5.999 6.75022H17.9989C18.1978 6.75022 18.3886 6.82923 18.5292 6.96988C18.6699 7.11054 18.7489 7.3013 18.7489 7.50021C18.7489 7.69912 18.6699 7.88988 18.5292 8.03054C18.3886 8.17119 18.1978 8.2502 17.9989 8.2502H5.999C5.80009 8.2502 5.60933 8.17119 5.46867 8.03054C5.32802 7.88988 5.24901 7.69912 5.24901 7.50021C5.24901 7.3013 5.32802 7.11054 5.46867 6.96988C5.60933 6.82923 5.80009 6.75022 5.999 6.75022ZM5.999 11.2502H12.7489C12.9479 11.2502 13.1386 11.3292 13.2793 11.4698C13.4199 11.6105 13.4989 11.8013 13.4989 12.0002C13.4989 12.1991 13.4199 12.3899 13.2793 12.5305C13.1386 12.6712 12.9479 12.7502 12.7489 12.7502H5.999C5.80009 12.7502 5.60933 12.6712 5.46867 12.5305C5.32802 12.3899 5.24901 12.1991 5.24901 12.0002C5.24901 11.8013 5.32802 11.6105 5.46867 11.4698C5.60933 11.3292 5.80009 11.2502 5.999 11.2502ZM9.74897 17.2501H5.999C5.80009 17.2501 5.60933 17.1711 5.46867 17.0305C5.32802 16.8898 5.24901 16.6991 5.24901 16.5001C5.24901 16.3012 5.32802 16.1105 5.46867 15.9698C5.60933 15.8292 5.80009 15.7501 5.999 15.7501H9.74897C9.94788 15.7501 10.1386 15.8292 10.2793 15.9698C10.4199 16.1105 10.499 16.3012 10.499 16.5001C10.499 16.6991 10.4199 16.8898 10.2793 17.0305C10.1386 17.1711 9.94788 17.2501 9.74897 17.2501ZM19.4605 12.2374C19.4293 12.3308 19.3801 12.4172 19.3155 12.4916C19.251 12.566 19.1724 12.627 19.0843 12.6711C18.9962 12.7151 18.9003 12.7414 18.8021 12.7484C18.7038 12.7553 18.6052 12.7429 18.5117 12.7117L17.2489 12.2908V16.5001C17.2491 16.9778 17.0972 17.4431 16.8153 17.8287C16.5334 18.2143 16.1361 18.5002 15.681 18.645C15.2258 18.7897 14.7363 18.7859 14.2835 18.634C13.8306 18.4822 13.4379 18.1901 13.162 17.8001C12.8862 17.4102 12.7416 16.9426 12.7492 16.465C12.7568 15.9874 12.9162 15.5246 13.2044 15.1437C13.4925 14.7627 13.8943 14.4833 14.3518 14.3459C14.8093 14.2085 15.2986 14.2203 15.7489 14.3795V11.2502C15.7489 11.1313 15.7772 11.0142 15.8313 10.9084C15.8855 10.8026 15.964 10.7112 16.0604 10.6417C16.1568 10.5722 16.2683 10.5266 16.3858 10.5087C16.5033 10.4908 16.6234 10.501 16.7361 10.5386L18.9861 11.2886C19.0795 11.3198 19.1659 11.369 19.2403 11.4335C19.3148 11.4981 19.3757 11.5766 19.4198 11.6647C19.4638 11.7528 19.4901 11.8488 19.4971 11.947C19.5041 12.0453 19.4916 12.1439 19.4605 12.2374Z" fill="black"/>
</svg>
