<svg width="24" height="24" viewBox="0 0 24 24" fill="none" xmlns="http://www.w3.org/2000/svg">
<path d="M11.999 2.24976C10.0706 2.24976 8.18555 2.82158 6.58218 3.89291C4.97882 4.96425 3.72915 6.48698 2.9912 8.26855C2.25325 10.0501 2.06017 12.0105 2.43637 13.9018C2.81257 15.7931 3.74116 17.5304 5.10471 18.8939C6.46827 20.2575 8.20554 21.1861 10.0968 21.5623C11.9881 21.9385 13.9485 21.7454 15.7301 21.0074C17.5117 20.2695 19.0344 19.0198 20.1057 17.4164C21.1771 15.8131 21.7489 13.928 21.7489 11.9997C21.7457 9.41483 20.7174 6.93677 18.8896 5.109C17.0619 3.28124 14.5838 2.25298 11.999 2.24976ZM15.7489 12.7497H12.7489V15.7497C12.7489 15.9486 12.6699 16.1393 12.5293 16.28C12.3886 16.4206 12.1979 16.4996 11.999 16.4996C11.8 16.4996 11.6093 16.4206 11.4686 16.28C11.328 16.1393 11.249 15.9486 11.249 15.7497V12.7497H8.24898C8.05007 12.7497 7.85931 12.6707 7.71866 12.53C7.578 12.3894 7.49899 12.1986 7.49899 11.9997C7.49899 11.8008 7.578 11.61 7.71866 11.4694C7.85931 11.3287 8.05007 11.2497 8.24898 11.2497H11.249V8.24971C11.249 8.0508 11.328 7.86004 11.4686 7.71938C11.6093 7.57873 11.8 7.49972 11.999 7.49972C12.1979 7.49972 12.3886 7.57873 12.5293 7.71938C12.6699 7.86004 12.7489 8.0508 12.7489 8.24971V11.2497H15.7489C15.9478 11.2497 16.1386 11.3287 16.2793 11.4694C16.4199 11.61 16.4989 11.8008 16.4989 11.9997C16.4989 12.1986 16.4199 12.3894 16.2793 12.53C16.1386 12.6707 15.9478 12.7497 15.7489 12.7497Z" fill="black"/>
</svg>
