<svg width="24" height="24" viewBox="0 0 24 24" fill="none" xmlns="http://www.w3.org/2000/svg">
<path d="M19.4989 3H4.49901C4.10119 3 3.71966 3.15803 3.43836 3.43934C3.15706 3.72064 2.99902 4.10217 2.99902 4.49999V19.4999C2.99902 19.8977 3.15706 20.2792 3.43836 20.5605C3.71966 20.8418 4.10119 20.9999 4.49901 20.9999H19.4989C19.8967 20.9999 20.2782 20.8418 20.5595 20.5605C20.8409 20.2792 20.9989 19.8977 20.9989 19.4999V4.49999C20.9989 4.10217 20.8409 3.72064 20.5595 3.43934C20.2782 3.15803 19.8967 3 19.4989 3ZM17.2489 12.7499H12.7489V17.2499C12.7489 17.4488 12.6699 17.6396 12.5293 17.7802C12.3886 17.9209 12.1979 17.9999 11.999 17.9999C11.8 17.9999 11.6093 17.9209 11.4686 17.7802C11.328 17.6396 11.249 17.4488 11.249 17.2499V12.7499H6.74899C6.55008 12.7499 6.35932 12.6709 6.21867 12.5303C6.07802 12.3896 5.999 12.1988 5.999 11.9999C5.999 11.801 6.07802 11.6103 6.21867 11.4696C6.35932 11.329 6.55008 11.2499 6.74899 11.2499H11.249V6.74997C11.249 6.55106 11.328 6.3603 11.4686 6.21965C11.6093 6.07899 11.8 5.99998 11.999 5.99998C12.1979 5.99998 12.3886 6.07899 12.5293 6.21965C12.6699 6.3603 12.7489 6.55106 12.7489 6.74997V11.2499H17.2489C17.4478 11.2499 17.6386 11.329 17.7792 11.4696C17.9199 11.6103 17.9989 11.801 17.9989 11.9999C17.9989 12.1988 17.9199 12.3896 17.7792 12.5303C17.6386 12.6709 17.4478 12.7499 17.2489 12.7499Z" fill="black"/>
</svg>
