<svg width="24" height="24" viewBox="0 0 24 24" fill="none" xmlns="http://www.w3.org/2000/svg">
<path d="M20.67 19.4803L19.4803 20.67C19.3758 20.7749 19.2516 20.8581 19.1148 20.9149C18.9781 20.9716 18.8315 21.0009 18.6834 21.0009C18.5354 21.0009 18.3888 20.9716 18.252 20.9149C18.1153 20.8581 17.9911 20.7749 17.8866 20.67L12.5832 15.3666L10.7804 20.069L10.7682 20.1C10.6532 20.3677 10.4621 20.5956 10.2185 20.7555C9.97501 20.9154 9.68982 21.0001 9.3985 20.999H9.32538C9.02166 20.9863 8.72918 20.8806 8.48755 20.6961C8.24592 20.5117 8.0668 20.2574 7.97445 19.9678L3.07418 4.96041C2.98823 4.69781 2.97673 4.41653 3.04094 4.14778C3.10516 3.87904 3.24258 3.63334 3.43796 3.43796C3.63334 3.24258 3.87904 3.10516 4.14778 3.04094C4.41653 2.97673 4.69781 2.98823 4.96041 3.07418L19.9678 7.97445C20.2546 8.0704 20.5057 8.25081 20.6882 8.49202C20.8707 8.73322 20.976 9.02396 20.9903 9.32606C21.0045 9.62817 20.9272 9.92755 20.7683 10.1849C20.6094 10.4423 20.3765 10.6456 20.1 10.7682L20.069 10.7804L15.3666 12.5869L20.67 17.8894C20.8809 18.1003 20.9995 18.3865 20.9995 18.6848C20.9995 18.9832 20.8809 19.2693 20.67 19.4803Z" fill="black"/>
</svg>
