<svg width="24" height="24" viewBox="0 0 24 24" fill="none" xmlns="http://www.w3.org/2000/svg">
<path fill-rule="evenodd" clip-rule="evenodd" d="M5.25 4.0752C4.60124 4.07533 4.0753 4.60124 4.0752 5.25V18.75C4.0752 19.3989 4.60118 19.9247 5.25 19.9248H18.75C19.3988 19.9247 19.9248 19.3989 19.9248 18.75V5.25C19.9247 4.60122 19.3988 4.0753 18.75 4.0752H5.25ZM9.25 6C9.66421 6 10 6.33579 10 6.75V17.25C10 17.6642 9.66421 18 9.25 18H6.75C6.33579 18 6 17.6642 6 17.25V6.75C6 6.33579 6.33579 6 6.75 6H9.25Z" fill="black"/>
</svg>
