<svg width="24" height="24" viewBox="0 0 24 24" fill="none" xmlns="http://www.w3.org/2000/svg">
<path fill-rule="evenodd" clip-rule="evenodd" d="M3 19.5002C3 20.3287 3.67158 21.0002 4.5 21.0002H19.5C20.3284 21.0002 21 20.3287 21 19.5002V4.50025C21 3.67182 20.3284 3.00025 19.5 3.00025L4.5 3.00025C3.67157 3.00025 3 3.67182 3 4.50025L3 19.5002ZM5.99512 6.75025C5.99512 6.33603 6.3309 6.00025 6.74512 6.00025H9.68555C10.0996 6.00048 10.4355 6.33618 10.4355 6.75025L10.4355 17.2629C10.4355 17.677 10.0996 18.0127 9.68555 18.0129L6.74512 18.0129C6.3309 18.0129 5.99512 17.6772 5.99512 17.2629L5.99512 6.75025Z" fill="black"/>
</svg>
