<svg width="24" height="24" viewBox="0 0 24 24" fill="none" xmlns="http://www.w3.org/2000/svg">
<path fill-rule="evenodd" clip-rule="evenodd" d="M4.5 21C3.67157 21 3 20.3284 3 19.5L3 4.5C3 3.67157 3.67158 3 4.5 3L19.5 3C20.3284 3 21 3.67157 21 4.5L21 19.5C21 20.3284 20.3284 21 19.5 21L4.5 21ZM17.25 18.0049C17.6642 18.0049 18 17.6691 18 17.2549L18 14.3145C17.9998 13.9004 17.6641 13.5645 17.25 13.5645L6.73731 13.5645C6.32324 13.5645 5.98754 13.9004 5.98731 14.3145L5.98731 17.2549C5.9873 17.6691 6.32309 18.0049 6.7373 18.0049L17.25 18.0049Z" fill="black"/>
</svg>
