<svg width="24" height="24" viewBox="0 0 24 24" fill="none" xmlns="http://www.w3.org/2000/svg">
<path fill-rule="evenodd" clip-rule="evenodd" d="M18.75 4.0752C19.3988 4.07533 19.9247 4.60124 19.9248 5.25V18.75C19.9248 19.3989 19.3988 19.9247 18.75 19.9248H5.25C4.60116 19.9247 4.0752 19.3989 4.0752 18.75V5.25C4.0753 4.60122 4.60122 4.0753 5.25 4.0752H18.75ZM14.75 6C14.3358 6 14 6.33579 14 6.75V17.25C14 17.6642 14.3358 18 14.75 18H17.25C17.6642 18 18 17.6642 18 17.25V6.75C18 6.33579 17.6642 6 17.25 6H14.75Z" fill="black"/>
</svg>
