<svg width="24" height="24" viewBox="0 0 24 24" fill="none" xmlns="http://www.w3.org/2000/svg">
<path d="M16.3106 5.18335C17.2805 5.18335 18.2255 5.5397 18.9053 6.19019L19.0381 6.32397L22.4288 9.9646C23.4554 11.0683 23.5197 12.6457 22.6211 13.8083L22.4288 14.0349L19.0381 17.6736C18.3521 18.4123 17.3454 18.8171 16.3106 18.8171H7.6895C6.71951 18.8171 5.77459 18.46 5.09477 17.8093L4.96196 17.6755L1.57133 14.0349C0.476146 12.8577 0.476298 11.1428 1.57133 9.96558L4.96196 6.32495C5.64799 5.58675 6.65501 5.18335 7.6895 5.18335H16.3106ZM7.6895 6.68335C7.03028 6.68335 6.43487 6.94231 6.05962 7.34644L2.66997 10.9871C2.11058 11.5883 2.11005 12.4111 2.66899 13.0125L6.05864 16.6521C6.43642 17.057 7.03281 17.3171 7.6895 17.3171H16.3106C16.9698 17.3171 17.5652 17.0582 17.9405 16.6541L21.3301 13.0125C21.8545 12.4486 21.8877 11.6904 21.4288 11.1023L21.3301 10.9871L17.9405 7.34741C17.5626 6.94312 16.9667 6.68335 16.3106 6.68335H7.6895Z" fill="black"/>
<path fill-rule="evenodd" clip-rule="evenodd" d="M6.05962 7.34644C6.43487 6.94231 7.03028 6.68335 7.6895 6.68335H16.3106C16.9667 6.68335 17.5626 6.94312 17.9405 7.34741L21.3301 10.9871L21.4288 11.1023C21.8877 11.6904 21.8545 12.4486 21.3301 13.0125L17.9405 16.6541C17.5652 17.0582 16.9698 17.3171 16.3106 17.3171H7.6895C7.03281 17.3171 6.43642 17.057 6.05864 16.6521L2.66899 13.0125C2.11005 12.4111 2.11058 11.5883 2.66997 10.9871L6.05962 7.34644Z" fill="black"/>
</svg>
