<svg xmlns="http://www.w3.org/2000/svg" width="24" height="24" fill="currentColor" viewBox="0 0 24 24"><path d="M23.34 8.76v8.1a0.81 0.81 0 0 1-0.81 0.81h-3.24v3.24a0.81 0.81 0 0 1-0.81 0.81H5.52a0.81 0.81 0 0 1-0.81-0.81v-3.24h-3.24a0.81 0.81 0 0 1-0.81-0.81V8.76c0-1.339 1.151-2.43 2.564-2.43h1.486v-3.24A0.81 0.81 0 0 1 5.52 2.28h12.96a0.81 0.81 0 0 1 0.81 0.81v3.24h1.486c1.415 0 2.564 1.091 2.564 2.43M6.33 6.33h11.34V3.9h-11.34z m11.34 8.91h-11.34v4.86h11.34z m1.62-4.456A1.216 1.216 0 1 0 18.076 12a1.216 1.216 0 0 0 1.214-1.214z"/></svg>