<svg width="24" height="24" viewBox="0 0 24 24" fill="none" xmlns="http://www.w3.org/2000/svg">
<path d="M22.4989 8.99947V16.4994C22.4989 16.6983 22.4198 16.8891 22.2792 17.0297C22.1385 17.1704 21.9478 17.2494 21.7489 17.2494H18.7489V20.2494C18.7489 20.4483 18.6699 20.6391 18.5292 20.7797C18.3886 20.9204 18.1978 20.9994 17.9989 20.9994H5.99899C5.80008 20.9994 5.60931 20.9204 5.46866 20.7797C5.32801 20.6391 5.24899 20.4483 5.24899 20.2494V17.2494H2.24902C2.05011 17.2494 1.85934 17.1704 1.71869 17.0297C1.57804 16.8891 1.49902 16.6983 1.49902 16.4994V8.99947C1.49902 7.75916 2.56402 6.74948 3.87369 6.74948H5.24899V3.74951C5.24899 3.5506 5.32801 3.35983 5.46866 3.21918C5.60931 3.07853 5.80008 2.99951 5.99899 2.99951H17.9989C18.1978 2.99951 18.3886 3.07853 18.5292 3.21918C18.6699 3.35983 18.7489 3.5506 18.7489 3.74951V6.74948H20.1242C21.4339 6.74948 22.4989 7.75916 22.4989 8.99947ZM6.74898 6.74948H17.2489V4.4995H6.74898V6.74948ZM17.2489 14.9994H6.74898V19.4994H17.2489V14.9994ZM18.7489 10.8745C18.7489 10.6519 18.6829 10.4344 18.5593 10.2494C18.4357 10.0644 18.26 9.92024 18.0544 9.83509C17.8489 9.74995 17.6227 9.72767 17.4044 9.77108C17.1862 9.81448 16.9857 9.92163 16.8284 10.079C16.6711 10.2363 16.5639 10.4367 16.5205 10.655C16.4771 10.8732 16.4994 11.0994 16.5845 11.305C16.6697 11.5105 16.8139 11.6862 16.9989 11.8098C17.1839 11.9335 17.4014 11.9994 17.6239 11.9994C17.9223 11.9994 18.2084 11.8809 18.4194 11.6699C18.6304 11.459 18.7489 11.1728 18.7489 10.8745Z" fill="black"/>
</svg>
