<svg width="24" height="24" viewBox="0 0 24 24" fill="none" xmlns="http://www.w3.org/2000/svg">
<path d="M21.75 8.36011C21.75 7.53132 20.9366 6.68344 19.7002 6.68335H4.2998C3.06338 6.68344 2.25 7.53132 2.25 8.36011V15.6404C2.25024 16.4691 3.06356 17.317 4.2998 17.3171H19.7002C20.9364 17.317 21.7498 16.4691 21.75 15.6404V8.36011ZM23.25 15.6404C23.2498 17.4917 21.5563 18.817 19.7002 18.8171H4.2998C2.44374 18.817 0.750222 17.4917 0.75 15.6404V8.36011C0.75 6.50858 2.44362 5.18344 4.2998 5.18335H19.7002C21.5564 5.18344 23.25 6.50858 23.25 8.36011V15.6404Z" fill="black"/>
<path fill-rule="evenodd" clip-rule="evenodd" d="M19.7002 6.68335C20.9366 6.68344 21.75 7.53132 21.75 8.36011V15.6404C21.7498 16.4691 20.9364 17.317 19.7002 17.3171H4.2998C3.06356 17.317 2.25024 16.4691 2.25 15.6404V8.36011C2.25 7.53132 3.06338 6.68344 4.2998 6.68335H19.7002Z" fill="black"/>
</svg>
