<svg xmlns="http://www.w3.org/2000/svg" width="24" height="24" fill="currentColor" viewBox="0 0 24 24"><path d="M15.826 21.72h4.274a1.62 1.62 0 0 0 1.62-1.62v-3.812a0.81 0.81 0 0 0-1.12-0.744 2.4 2.4 0 0 1-0.904 0.178c-1.339 0-2.43-1.124-2.43-2.504s1.091-2.504 2.43-2.504a2.4 2.4 0 0 1 0.904 0.178 0.81 0.81 0 0 0 1.12-0.752V6.328a1.62 1.62 0 0 0-1.62-1.62h-3.667a3.6 3.6 0 0 0 0.023-0.406 3.646 3.646 0 0 0-7.29 0 3.6 3.6 0 0 0 0.022 0.406H5.521a1.62 1.62 0 0 0-1.62 1.62v3.262a3.6 3.6 0 0 0-0.404-0.022 3.646 3.646 0 0 0 0 7.29 3.6 3.6 0 0 0 0.404-0.023v3.263a1.62 1.62 0 0 0 1.62 1.62h4.275"/></svg>