<svg xmlns="http://www.w3.org/2000/svg" width="24" height="24" fill="currentColor" viewBox="0 0 24 24"><path d="M11.19 4.71v4.86a1.62 1.62 0 0 1-1.62 1.62h-4.86a1.62 1.62 0 0 1-1.62-1.62v-4.86a1.62 1.62 0 0 1 1.62-1.62h4.86a1.62 1.62 0 0 1 1.62 1.62m-1.62 8.1h-4.86a1.62 1.62 0 0 0-1.62 1.62v4.86a1.62 1.62 0 0 0 1.62 1.62h4.86a1.62 1.62 0 0 0 1.62-1.62v-4.86a1.62 1.62 0 0 0-1.62-1.62m9.72-9.72h-4.86a1.62 1.62 0 0 0-1.62 1.62v4.86a1.62 1.62 0 0 0 1.62 1.62h4.86a1.62 1.62 0 0 0 1.62-1.62v-4.86a1.62 1.62 0 0 0-1.62-1.62m-5.67 14.58a0.81 0.81 0 0 0 0.81-0.81v-3.24a0.81 0.81 0 0 0-1.62 0v3.24a0.81 0.81 0 0 0 0.81 0.81m6.48-3.24h-2.43v-0.81a0.81 0.81 0 0 0-1.62 0v5.67H13.62a0.81 0.81 0 0 0 0 1.62h3.24a0.81 0.81 0 0 0 0.81-0.81v-4.05h2.43a0.81 0.81 0 0 0 0-1.62m0 3.24a0.81 0.81 0 0 0-0.81 0.81v1.62a0.81 0.81 0 0 0 1.62 0V18.48a0.81 0.81 0 0 0-0.81-0.81"/></svg>