<svg width="24" height="24" viewBox="0 0 24 24" fill="none" xmlns="http://www.w3.org/2000/svg">
<path d="M11.25 18.75C11.25 19.5784 10.5784 20.25 9.75 20.25H5.25C4.42157 20.25 3.75 19.5784 3.75 18.75V14.25C3.75 13.4216 4.42157 12.75 5.25 12.75H9.75C10.5784 12.75 11.25 13.4216 11.25 14.25V18.75Z" fill="black"/>
<path fill-rule="evenodd" clip-rule="evenodd" d="M9.75 11.25C10.5784 11.25 11.25 10.5784 11.25 9.75V5.25C11.25 4.42157 10.5784 3.75 9.75 3.75H5.25C4.42157 3.75 3.75 4.42157 3.75 5.25V9.75C3.75 10.5784 4.42157 11.25 5.25 11.25H9.75Z" fill="black"/>
<path fill-rule="evenodd" clip-rule="evenodd" d="M20.25 9.75C20.25 10.5784 19.5784 11.25 18.75 11.25H14.25C13.4216 11.25 12.75 10.5784 12.75 9.75V5.25C12.75 4.42157 13.4216 3.75 14.25 3.75H18.75C19.5784 3.75 20.25 4.42157 20.25 5.25V9.75Z" fill="black"/>
<path fill-rule="evenodd" clip-rule="evenodd" d="M12.75 16.5V13.5C12.75 13.0858 13.0858 12.75 13.5 12.75C13.9142 12.75 14.25 13.0858 14.25 13.5V16.5C14.25 16.9142 13.9142 17.25 13.5 17.25C13.0858 17.25 12.75 16.9142 12.75 16.5Z" fill="black"/>
<path fill-rule="evenodd" clip-rule="evenodd" d="M16.5 12.75C16.0858 12.75 15.75 13.0858 15.75 13.5V18.75H13.5C13.0858 18.75 12.75 19.0858 12.75 19.5C12.75 19.9142 13.0858 20.25 13.5 20.25H16.5C16.9142 20.25 17.25 19.9142 17.25 19.5V15.75H19.5C19.9142 15.75 20.25 15.4142 20.25 15C20.25 14.5858 19.9142 14.25 19.5 14.25H17.25V13.5C17.25 13.0858 16.9142 12.75 16.5 12.75Z" fill="black"/>
<path fill-rule="evenodd" clip-rule="evenodd" d="M18.75 18C18.75 17.5858 19.0858 17.25 19.5 17.25C19.9142 17.25 20.25 17.5858 20.25 18V19.5C20.25 19.9142 19.9142 20.25 19.5 20.25C19.0858 20.25 18.75 19.9142 18.75 19.5V18Z" fill="black"/>
</svg>
