<?xml version="1.0" encoding="utf-8"?><svg width="512" height="512" viewBox="0 0 512 512" fill="none" xmlns="http://www.w3.org/2000/svg">
<path d="M256 32C132.3 32 32 132.3 32 256C32 379.7 132.3 480 256 480C379.7 480 480 379.7 480 256C480 132.3 379.7 32 256 32ZM288 416H224V352H288V416ZM311.4 273C296.3 286.3 288 293.7 288 320H224C224 264.8 251.1 240.8 269.1 225C282.9 212.9 288 208.3 288 192C288 174.4 273.6 160 256 160C238.4 160 224 174.4 224 192H160C160 139 203 96 256 96C309 96 352 139 352 192C352 237.2 328.6 257.9 311.4 273Z" fill="black"/>
</svg>
