<svg xmlns="http://www.w3.org/2000/svg" width="24" height="24" fill="currentColor" viewBox="0 0 24 24"><path d="M12 1.47A10.53 10.53 0 1 0 22.53 12 10.541 10.541 0 0 0 12 1.47M12 18.48a1.216 1.216 0 1 1 1.214-1.214A1.216 1.216 0 0 1 12 18.48m0.81-4.933v0.073a0.81 0.81 0 0 1-1.62 0v-0.81A0.81 0.81 0 0 1 12 12c1.339 0 2.43-0.911 2.43-2.026S13.339 7.949 12 7.949s-2.43 0.911-2.43 2.025v0.406a0.81 0.81 0 0 1-1.62 0v-0.406c0-2.01 1.817-3.644 4.05-3.644s4.05 1.636 4.05 3.644c0 1.759-1.393 3.233-3.24 3.573"/></svg>