<?xml version="1.0" encoding="UTF-8"?>
<svg width="512" height="512" viewBox="0 0 512 512" fill="none" xmlns="http://www.w3.org/2000/svg">
<path d="M146.517 329.47L172.357 284.45L214.027 308.39C199.897 282.96 187.197 257.52 155.577 201.06C143.907 201.27 34.4575 204.35 33.4775 204.63L75.1075 228.56L35.3575 297.88C28.4775 308.39 30.1475 319.01 37.6375 330.1C37.6375 330.1 50.2375 347.09 65.2975 366.7C72.8175 376.49 80.9475 386.92 88.4175 396.23L108.377 419.63C108.927 420.05 109.487 420.47 110.057 420.88C114.257 423.93 118.807 426.6 123.527 428.6C128.647 430.78 134.197 431.79 139.747 431.77L213.197 431.47L212.857 329.49L146.517 329.47ZM97.7475 382.29C93.8175 377.35 89.5175 371.86 84.8475 365.86C82.6375 363.01 80.3375 360.04 77.9775 356.97C64.2675 339.12 52.4575 323.26 50.7075 320.9C45.0175 312.32 47.1575 309.04 48.7375 306.63L49.0075 306.24L49.2375 305.82L96.9075 222.67L90.1975 218.82C111.417 218.2 133.537 217.59 146.297 217.27C157.467 237.3 166.097 253.18 173.297 266.56L166.447 262.6L97.7475 382.29ZM135.497 415.8C124.877 413.31 114.037 404.65 107.767 396.98L137.337 345.46H196.897L197.137 415.56L135.497 415.8ZM108.377 419.63C108.867 420.07 109.437 420.48 110.057 420.88C109.487 420.47 108.927 420.05 108.377 419.63ZM88.4175 396.23C96.0375 405.69 102.967 413.96 107.907 419.18C108.057 419.33 108.217 419.48 108.377 419.63L88.4175 396.23ZM478.557 290.4C477.887 284.88 476.017 279.58 473.217 274.77L436.357 211.31L348.008 262.43L381.047 319.89L329.098 319.95L329.117 271.94C314.087 296.85 298.327 320.53 265.077 376.05C271.077 386.04 328.297 479.29 329.017 480L329.057 432.03L409.027 431.9C421.577 432.62 429.957 425.88 435.857 413.87C435.857 413.87 444.328 394.49 453.848 371.68C458.598 360.29 463.598 348.05 467.957 336.94L478.318 308C478.408 307.3 478.488 306.61 478.568 305.92C479.117 300.76 479.167 295.49 478.557 290.4ZM443.367 355.16C441.997 358.49 440.568 361.96 439.068 365.53C430.408 386.3 422.527 404.43 421.337 407.13C416.728 416.33 412.818 416.11 409.938 415.94L409.467 415.91H408.987L313.057 416.07V423.81C301.948 405.74 290.407 386.88 283.767 376C295.587 356.34 305.068 340.95 313.087 328.05V335.96L442.147 335.81H451.198C448.878 341.66 446.247 348.13 443.367 355.16ZM458.957 319.8L399.508 319.87L369.827 268.28L430.557 233.15L461.478 286.41C464.598 296.84 462.487 310.55 458.957 319.8ZM478.318 308C478.458 307.35 478.527 306.65 478.568 305.92C478.488 306.61 478.408 307.3 478.318 308ZM467.957 336.94C472.367 325.63 476.087 315.49 478.158 308.61C478.217 308.41 478.268 308.21 478.318 308L467.957 336.94ZM355.587 123.86L324.737 50.17C320.567 38.32 311.117 33.18 297.747 32.36C297.747 32.36 276.587 32 251.837 32C239.487 32 226.247 32.09 214.307 32.35L183.577 33.92C182.907 34.1 182.237 34.29 181.567 34.49C176.577 35.96 171.697 37.94 167.227 40.46C162.377 43.19 158.207 46.97 154.837 51.39L110.357 109.77L191.567 171.59L231.977 119.02L252.007 166.91L207.627 185.35C236.427 189.64 264.378 195.06 328.467 204.37C335.397 195 399.587 106.39 399.957 105.45L355.587 123.86ZM188.577 149.22L132.757 106.74L170.087 57.74C178.527 50.85 192.007 47.52 201.927 47.22L224.847 102.02L188.577 149.22ZM321.217 187.16C298.508 183.81 280.627 180.99 265.627 178.55L272.937 175.52L219.717 48.23C226.027 48.12 233.007 48.05 240.617 48.01C244.227 47.99 247.977 47.98 251.857 47.98C274.377 47.98 294.177 48.28 297.107 48.33C307.387 49.04 308.697 52.74 309.647 55.45L309.797 55.9L309.987 56.34L347.008 144.74L354.158 141.76C341.717 158.95 328.728 176.85 321.217 187.16ZM183.577 33.92C182.907 34.1 182.237 34.29 181.567 34.49C182.257 34.24 182.937 34.04 183.577 33.92ZM184.197 33.83C183.987 33.85 183.787 33.88 183.577 33.92L214.307 32.35C202.157 32.63 191.347 33.09 184.197 33.83Z" fill="black"/>
</svg>
