<svg width="24" height="24" viewBox="0 0 24 24" fill="none" xmlns="http://www.w3.org/2000/svg">
<path d="M8.99906 19.4975C8.99906 19.6964 8.92005 19.8872 8.77939 20.0278C8.63874 20.1685 8.44798 20.2475 8.24907 20.2475H3.7491C3.35426 20.2472 2.96644 20.1431 2.62459 19.9455C2.28274 19.748 1.9989 19.4639 1.80159 19.1219C1.60427 18.7799 1.50043 18.392 1.50049 17.9972C1.50055 17.6023 1.60451 17.2145 1.80193 16.8725L4.42691 12.3444L3.13129 11.5944C3.00145 11.5209 2.89652 11.4102 2.8299 11.2767C2.76329 11.1431 2.73803 10.9928 2.75736 10.8448C2.77669 10.6968 2.83972 10.558 2.9384 10.446C3.03708 10.334 3.16691 10.2541 3.31129 10.2163L6.38346 9.39413C6.47862 9.36862 6.57789 9.36211 6.67557 9.37497C6.77326 9.38783 6.86745 9.41981 6.95277 9.46909C7.03809 9.51836 7.11286 9.58397 7.17282 9.66215C7.23278 9.74034 7.27674 9.82957 7.3022 9.92475L8.12626 12.9969C8.16472 13.1402 8.15981 13.2918 8.11214 13.4323C8.06446 13.5728 7.97618 13.696 7.85844 13.7864C7.74071 13.8767 7.59883 13.9301 7.45075 13.9397C7.30267 13.9494 7.15505 13.9149 7.02658 13.8407L5.72534 13.0907L3.10317 17.6225C3.03749 17.7363 3.00284 17.8653 3.00268 17.9966C3.00253 18.128 3.03687 18.257 3.10227 18.371C3.16767 18.4849 3.26184 18.5796 3.37536 18.6457C3.48887 18.7118 3.61775 18.7469 3.7491 18.7475H8.24907C8.44798 18.7475 8.63874 18.8265 8.77939 18.9672C8.92005 19.1078 8.99906 19.2986 8.99906 19.4975ZM22.1924 16.8725L20.023 13.1225C19.9193 12.9593 19.7564 12.8425 19.5685 12.7964C19.3807 12.7504 19.1823 12.7788 19.0148 12.8756C18.8473 12.9724 18.7237 13.1302 18.6698 13.3159C18.6159 13.5017 18.6359 13.7011 18.7256 13.8725L20.8949 17.6225C20.9606 17.7363 20.9952 17.8653 20.9954 17.9966C20.9956 18.128 20.9612 18.257 20.8958 18.371C20.8304 18.4849 20.7362 18.5796 20.6227 18.6457C20.5092 18.7118 20.3803 18.7469 20.249 18.7475H14.999V17.2475C14.9991 17.0991 14.9552 16.954 14.8728 16.8305C14.7904 16.7071 14.6732 16.6109 14.5361 16.5541C14.399 16.4972 14.2481 16.4824 14.1025 16.5114C13.957 16.5404 13.8233 16.6119 13.7184 16.7169L11.4684 18.9669C11.3987 19.0365 11.3434 19.1192 11.3056 19.2103C11.2679 19.3013 11.2485 19.3989 11.2485 19.4975C11.2485 19.5961 11.2679 19.6936 11.3056 19.7847C11.3434 19.8757 11.3987 19.9585 11.4684 20.0281L13.7184 22.2781C13.8233 22.3831 13.957 22.4546 14.1025 22.4836C14.2481 22.5126 14.399 22.4978 14.5361 22.4409C14.6732 22.3841 14.7904 22.2879 14.8728 22.1645C14.9552 22.041 14.9991 21.8959 14.999 21.7475V20.2475H20.249C20.6438 20.2472 21.0316 20.1431 21.3735 19.9455C21.7153 19.748 21.9992 19.4639 22.1965 19.1219C22.3938 18.7799 22.4977 18.392 22.4976 17.9972C22.4975 17.6023 22.3936 17.2145 22.1962 16.8725H22.1924ZM11.999 2.99762C12.1308 2.9963 12.2606 3.0304 12.3747 3.09637C12.4888 3.16233 12.5831 3.25774 12.6478 3.37262L15.2728 7.90071L13.9772 8.6507C13.8497 8.72506 13.7471 8.83535 13.682 8.96775C13.617 9.10016 13.5924 9.24882 13.6114 9.39511C13.6305 9.54141 13.6922 9.67884 13.7889 9.79023C13.8857 9.90161 14.0131 9.98199 14.1553 10.0213L17.2284 10.8454C17.2917 10.862 17.3569 10.8705 17.4224 10.8707C17.5874 10.8705 17.7478 10.816 17.8786 10.7155C18.0094 10.615 18.1035 10.4741 18.1462 10.3148L18.9702 7.24071C19.0085 7.09752 19.0035 6.94618 18.9559 6.80582C18.9082 6.66546 18.8201 6.54237 18.7025 6.45209C18.5849 6.36181 18.4433 6.3084 18.2954 6.29859C18.1474 6.28877 18 6.32301 17.8715 6.39697L16.5693 7.14696L13.9462 2.62262C13.7486 2.28122 13.4646 1.99779 13.1228 1.80076C12.7811 1.60372 12.3935 1.5 11.999 1.5C11.6045 1.5 11.217 1.60372 10.8752 1.80076C10.5335 1.99779 10.2495 2.28122 10.0519 2.62262L7.88063 6.37259C7.78735 6.54439 7.76482 6.74582 7.81786 6.93398C7.8709 7.12214 7.99532 7.28215 8.1646 7.37993C8.33388 7.47771 8.53465 7.50553 8.72414 7.45746C8.91363 7.40939 9.07686 7.28924 9.17906 7.12259L11.3503 3.37262C11.4149 3.25774 11.5092 3.16233 11.6234 3.09637C11.7375 3.0304 11.8672 2.9963 11.999 2.99762Z" fill="black"/>
</svg>
