<?xml version="1.0" encoding="utf-8"?>
<svg xmlns="http://www.w3.org/2000/svg" width="512" height="512" viewBox="0 0 512 512">
<path d="M213.04 315.69L171.63 291.69L98.9802 418.26C95.7702 423.51 95.3102 427.41 97.8602 432.14L37.4802 337.32C30.0202 326.22 30.3902 312.17 37.2902 301.66L75.1102 235.75L33.5902 211.69C34.5702 211.43 143.47 208.13 155.16 208.21C186.66 264.67 198.96 290.26 213.04 315.69ZM168.36 330.05L122.89 408.15C116.36 418.81 124.05 432.13 136.51 432.13H216.12V330.05H168.36ZM255.84 376.03C261.64 386.24 319.17 479.28 319.88 480V431.89H395.95C408.52 432.64 420.88 425.94 426.74 413.92L479.98 313.05C477.16 317.63 472.13 320.22 465.97 320.05H319.87V272.06C304.92 296.99 288.92 320.46 255.84 376.03ZM358.11 303.96L448.58 303.92C461.09 304.19 468.68 290.81 462.36 280.02L421.94 211.06L333.86 262.58L358.11 303.96ZM336.68 200.63C342.99 190.73 398.37 96.39 398.67 95.42L356.11 117.94L320.49 50.79C315.28 39.34 303.57 31.56 290.19 32.01L176.04 32.22C181.41 32.56 186.06 35.79 188.79 41.31L257.18 170.29L214.73 192.75C243.78 194.28 272.03 197.44 336.68 200.63ZM225.06 144.07L182.68 64.22C177.06 53.05 161.68 52.61 155.09 63.25L113.01 131.21L199.82 184.85L225.06 144.07Z" fill="black"/>
</svg>
