<?xml version="1.0" encoding="utf-8"?>
<svg xmlns="http://www.w3.org/2000/svg" width="512" height="512" viewBox="0 0 512 512">
<path d="M111.1 244.9c-5.2 6.1-9.6 12.7-13.2 19.9-2.1-1.5-3.9-3.6-5.5-6.5-2.3-2.6-3.4-5.9-3.4-9.8v-1.4c.5-5.8 3-10.8 7.7-15.1 5.3-4 10.9-6.3 16.8-7h2.4c2.4 0 4.6.3 6.6 1 2 .6 4.1 1.3 6.3 1.9a124.3 124.3 0 0 0-17.7 17zm252.1-94.3c4.4 3.7 9.1 5.4 14.4 5.4h1.4c5.3 0 10-1.8 14.2-5.4 4-3.7 6.3-8 6.9-13.1v-1c0-5.5-2.3-10.1-6.9-13.8-3.8-3.8-8.3-5.6-13.6-5.7h-1.1c-2.2 0-4.1.1-5.5.5-4.6.9-8.4 3.2-11.2 6.6-3.3 3.4-4.8 7.4-4.8 12.4v1c0 5.1 2 9.5 6.2 13.1zM394.5 279c2.3 6.1 3.5 12.4 3.5 19v5.7c0 1.8-.3 3.4-1 5-2.1 9.3-6.4 18-13 26.2-5.6 7.5-12.8 14.4-21.6 20.6-13.1 8.8-27.3 15.5-42.7 20.2-15.4 4.7-31 7.6-47 8.9-2.7.4-5.5.5-8.1.5h-8.1c-16 0-31.8-1.6-47.4-4.9s-30.2-8.5-44-15.7l-3.4-1.9-3.6-1.7c-9.8-6.2-18.3-13.1-25.8-20.6-7.7-8.6-12.9-18-15.8-28.1-1.3-3.9-1.9-8.4-1.9-13.7 0-13.6 4.2-25.7 12.7-36.3 8.3-10.6 18.3-19.3 30.1-26.4 11.8-7 24.2-12.4 37.3-16.1 19.6-5.7 40.2-8.7 61.8-8.7h.1c7.5 0 15.2.4 23.1 1.2s15.6 2 23.1 3.6l7.4 1.9 7.7 1.9c13.1 3.7 25.6 9 37.4 15.8 11.9 6.9 21.8 15.6 30 26.2 3.8 5.6 6.9 11.4 9.2 17.4zm-205.9 21.9c2.3.9 4.7 1.4 7.5 1.4 6.3 0 12-2.1 16.9-6.3 5.3-4.3 8-9.7 8-15.9v-1.5c0-5.9-2.5-11-7.5-15.2-5.3-4.3-11.2-6.6-17.4-6.6-1.9 0-3.5.1-4.7.5-4.3.6-8.2 2.3-11.5 5.2-3.3 2.8-5.5 6.3-6.9 10.3-.7.9-1 2-1 3.1v3.1c0 5.3 1.4 10 4.3 14 3.3 4 7.3 6.7 12.3 7.9zm139.5 38.2c0-1-.3-2.4-1-4.3-1-2.4-2.6-4.1-4.7-4.9-2.5-1.3-4.6-1.9-6.4-1.9-1.9 0-4 .5-5.9 1.5-17.2 9.6-36 14.5-56.2 14.7-15.1 0-29.3-3-42.2-8.8-1.9-.6-4.2-2.2-6.8-4.6-.6-.3-1.3-.6-2.1-1s-1.6-.6-2.4-1c-1.9-.6-3.4-1-4.3-1v.1c-.9 0-2.4.4-4.3 1h-.5c-1.9.6-3.7 2-5.4 4.3-.9 1.6-1.4 3.6-1.4 5.9 0 1.9.5 3.9 1.4 5.9 1 1.6 2.4 2.9 4.3 3.8 18.2 11.4 38.1 17.1 59.8 17.1h3.6c10.5 0 20.6-1 30.4-3 9.8-2 19.3-5.1 28.5-9.4 1.2-.6 2.6-1.3 4.1-1.9 1.4-.6 3-1.4 4.5-2.4 1.6-.7 3-1.6 4.1-2.9 1.6-1.6 2.5-3.3 2.9-5-.2-.4 0-1.2 0-2.2zm12.2-59.2c0-2.2-.5-4.6-1.5-7.2-1.2-4.6-4.2-8.4-8.8-11.5-4.5-2.6-9.2-3.9-14.1-3.9-2.7 0-5.5.5-8.4 1.4-4.6 1.6-8.4 4.4-11.3 8.4-3 3.5-4.6 7.8-4.6 12.7 0 1.8.2 3.1.4 4.1v.5c1 5.6 3.8 9.8 8.4 12.7 4.6 3.5 9.9 5.3 15.8 5.3 1.9 0 4.1-.5 6.7-1.4h.7c4.2-.8 8.2-3.4 12.2-7.7 3-3.9 4.5-8.4 4.5-13.4zM480 64v384c0 17.6-14.4 32-32 32H64c-17.6 0-32-14.4-32-32V64c0-17.6 14.4-32 32-32h384c17.6 0 32 14.4 32 32zm-32.3 181c-.9-10.3-5.2-19.1-12.4-26.6-7.4-7.6-16.2-12.7-26-15.4h-.1c-4.5-1-8.7-1.4-12.7-1.4-10.6-.2-19.8 2.4-28 7.7-1.7.8-3.9 2.1-6.5 4.1-.6-.6-1.3-1-1.9-1l-.5-.5c-13.7-7.2-28-12.7-43.1-16.3-15.1-3.7-30.4-6-46.1-7 0-5.8.5-25.5 1.4-31.3.9-5.8 2.8-11.1 5.6-16.1 3.6-7.2 10.1-11.3 19.1-12.3h4.3c5.6 0 11 .8 16.3 2.3s10.6 3.2 15.9 5.2v1.5c0 5.6 1.1 10.8 3.4 15.3 2.2 4.5 5.2 8.7 8.8 12.5 7.7 7.8 17.1 12.3 28.4 13.3h5.5c11.2 0 21.1-3.6 30.1-10.9 4-3.3 7.3-7.2 9.8-11.7 2.6-4.4 4.2-9.4 4.8-15.1.3-1 .5-2.4.5-4.3.2-8.3-2.4-16.2-7.7-23.4-5.3-6.9-11.9-11.9-19.7-14.7h-.5c-4.9-2.3-10.7-3.4-17.3-3.4-5.4 0-11.1.8-17.1 2.4h-.4c-9.7 3.8-17.1 9.7-22.5 17.6-13.3-5.4-26.5-8-39.5-8-4.9 0-9.9.5-14.9 1.4h.9c-6.6 1.6-12.4 4.4-17.5 8.3-5.1 3.9-9.3 8.7-12.5 14.3-4 6.5-6.6 23.5-7.9 30.9-1.3 7.3-1.9 18.7-1.9 26-15.7 1.1-31.3 3.4-47.2 6.8-15.7 3.5-30.4 8.9-44.2 16.4-1 .3-1.8.7-2.6 1s-1.5.6-2.2 1c-4.7-3.4-9.7-6-15.4-7.9-5.9-1.9-12.1-2.9-18.6-2.9h-4.3c-6.5 0-12.6 1.2-18.1 3.6s-10.6 5.8-15.2 10.1c-4.3 4.3-7.8 9.2-10.4 14.5-2.7 5.4-3.9 11-3.9 16.9.3 8.1 3.3 16 8.9 23.5 4.3 6.2 10.4 11.5 18.2 15.8-.4 1.6-.6 3.3-.7 5.1-.1 1.8-.2 3.6-.2 5.2 0 7.5 1.1 15 3.4 22.6 2.3 7.5 5.5 14.6 9.8 21.1 8.1 12.5 18.4 22.9 30.7 31.2s25.3 15.1 39.1 20.4c13.1 5 26.6 8.7 40.5 11.1 13.9 2.5 28.1 3.7 42.4 3.7 9.4 0 18.8-.6 28.1-1.8 9.4-1.2 18.8-2.8 28.2-4.7 17.4-4.1 34.1-10.4 50.2-18.8s29.5-19.5 40.8-33.2c12.8-15.4 19.2-32.6 19.2-51.7 0-1.9-.1-3.8-.3-5.6-.2-1.8-.4-3.6-.7-5.1 7.5-3.7 13.7-8.9 18.7-15.8 5.3-7.2 7.9-15.2 7.9-24V245h-.2zm-37.1-17c-4.7-2.2-9.4-3.3-14.1-3.3-4.6 0-8.9.9-12.9 2.9 6.5 5.3 12.5 10.9 17.7 17 5.3 6.1 9.7 12.9 13.2 20.4 2.2-1.9 4.2-4.2 6-6.9 1.9-3.2 2.9-6.8 2.9-10.8 0-2.9-.9-6-2.4-9.4-2.3-4-5.8-7.3-10.4-9.9z"/>
</svg>
