<svg width="24" height="24" viewBox="0 0 24 24" fill="none" xmlns="http://www.w3.org/2000/svg">
<g clip-path="url(#clip0_2110_2228)">
<path d="M23.2488 9.74742C23.2487 9.17254 23.0834 8.6098 22.7726 8.12618C22.4617 7.64256 22.0185 7.25843 21.4956 7.0195C20.9727 6.78058 20.3922 6.69693 19.8231 6.7785C19.2541 6.86007 18.7204 7.10344 18.2857 7.47963C16.7154 6.64526 14.8395 6.14089 12.8801 6.0237L13.3667 3.10154L15.0279 3.35654C15.1122 3.88056 15.379 4.35793 15.7812 4.70425C16.1834 5.05058 16.6951 5.24357 17.2259 5.24911C17.7566 5.25465 18.2722 5.07239 18.6816 4.73454C19.0909 4.39669 19.3676 3.92501 19.4629 3.40285C19.5581 2.8807 19.4656 2.3417 19.2019 1.88111C18.9381 1.42053 18.52 1.06802 18.0215 0.885886C17.5229 0.703754 16.976 0.703727 16.4775 0.885811C15.9789 1.06789 15.5608 1.42036 15.297 1.88092L12.8595 1.50592C12.6645 1.47586 12.4655 1.52385 12.3056 1.63949C12.1458 1.75513 12.0379 1.92912 12.0055 2.12373L11.3614 6.01245C9.31392 6.10058 7.34706 6.61057 5.71207 7.47963C5.11498 6.97523 4.34461 6.72378 3.56493 6.7788C2.78525 6.83382 2.05783 7.19096 1.53749 7.77421C1.01716 8.35747 0.745004 9.12077 0.778958 9.90165C0.812911 10.6825 1.15029 11.4193 1.71929 11.9552C1.57346 12.4563 1.49929 12.9755 1.49898 13.4974C1.49898 15.5533 2.62397 17.4677 4.67801 18.887C6.64394 20.2473 9.2436 20.9973 11.9989 20.9973C14.7542 20.9973 17.3539 20.2473 19.3198 18.887C21.3738 17.4677 22.4988 15.5533 22.4988 13.4974C22.4985 12.9755 22.4243 12.4563 22.2785 11.9552C22.5835 11.6738 22.8271 11.3325 22.994 10.9526C23.161 10.5727 23.2477 10.1624 23.2488 9.74742ZM6.74894 11.9974C6.74894 11.7007 6.83691 11.4107 7.00173 11.1641C7.16655 10.9174 7.40082 10.7251 7.6749 10.6116C7.94899 10.4981 8.25059 10.4684 8.54156 10.5262C8.83253 10.5841 9.0998 10.727 9.30958 10.9368C9.51935 11.1465 9.66221 11.4138 9.72009 11.7048C9.77797 11.9957 9.74826 12.2973 9.63473 12.5714C9.5212 12.8455 9.32895 13.0798 9.08227 13.2446C8.8356 13.4094 8.54559 13.4974 8.24892 13.4974C7.8511 13.4974 7.46957 13.3394 7.18827 13.0581C6.90697 12.7768 6.74894 12.3952 6.74894 11.9974ZM15.3504 17.1602C14.3184 17.7086 13.1676 17.9954 11.9989 17.9954C10.8302 17.9954 9.67937 17.7086 8.64736 17.1602C8.56032 17.114 8.48322 17.0512 8.42047 16.9752C8.35773 16.8992 8.31055 16.8116 8.28165 16.7175C8.25275 16.6233 8.24268 16.5243 8.25203 16.4262C8.26137 16.3281 8.28994 16.2329 8.33611 16.1458C8.38228 16.0588 8.44514 15.9817 8.5211 15.9189C8.59706 15.8562 8.68464 15.809 8.77883 15.7801C8.87303 15.7512 8.97199 15.7411 9.07007 15.7505C9.16816 15.7598 9.26344 15.7884 9.35048 15.8346C10.1659 16.2681 11.0754 16.4948 11.9989 16.4948C12.9224 16.4948 13.8319 16.2681 14.6473 15.8346C14.7344 15.7884 14.8296 15.7598 14.9277 15.7505C15.0258 15.7411 15.1248 15.7512 15.219 15.7801C15.3132 15.809 15.4007 15.8562 15.4767 15.9189C15.5527 15.9817 15.6155 16.0588 15.6617 16.1458C15.7078 16.2329 15.7364 16.3281 15.7458 16.4262C15.7551 16.5243 15.745 16.6233 15.7161 16.7175C15.6872 16.8116 15.6401 16.8992 15.5773 16.9752C15.5146 17.0512 15.4375 17.114 15.3504 17.1602ZM15.7489 13.4974C15.4522 13.4974 15.1622 13.4094 14.9155 13.2446C14.6688 13.0798 14.4766 12.8455 14.3631 12.5714C14.2495 12.2973 14.2198 11.9957 14.2777 11.7048C14.3356 11.4138 14.4784 11.1465 14.6882 10.9368C14.898 10.727 15.1653 10.5841 15.4562 10.5262C15.7472 10.4684 16.0488 10.4981 16.3229 10.6116C16.597 10.7251 16.8312 10.9174 16.9961 11.1641C17.1609 11.4107 17.2489 11.7007 17.2489 11.9974C17.2489 12.3952 17.0908 12.7768 16.8095 13.0581C16.5282 13.3394 16.1467 13.4974 15.7489 13.4974Z" fill="black"/>
</g>
<defs>
<clipPath id="clip0_2110_2228">
<rect width="23.9998" height="23.9998" fill="white"/>
</clipPath>
</defs>
</svg>
