<svg width="24" height="24" viewBox="0 0 24 24" fill="none" xmlns="http://www.w3.org/2000/svg">
<path d="M11.999 2.24731C10.0706 2.24731 8.18555 2.81914 6.58218 3.89047C4.97882 4.96181 3.72915 6.48454 2.9912 8.2661C2.25325 10.0477 2.06017 12.0081 2.43637 13.8994C2.81257 15.7907 3.74116 17.5279 5.10471 18.8915C6.46827 20.255 8.20554 21.1836 10.0968 21.5598C11.9881 21.936 13.9485 21.7429 15.7301 21.005C17.5117 20.267 19.0344 19.0174 20.1057 17.414C21.1771 15.8106 21.7489 13.9256 21.7489 11.9972C21.7461 9.41224 20.7181 6.93389 18.8902 5.10602C17.0623 3.27814 14.584 2.25004 11.999 2.24731ZM17.5705 14.3475C17.7135 14.43 17.8254 14.5575 17.8886 14.71C17.9518 14.8626 17.963 15.0318 17.9202 15.1913C17.8775 15.3508 17.7833 15.4918 17.6522 15.5923C17.5212 15.6928 17.3606 15.7473 17.1955 15.7472C17.0638 15.7476 16.9344 15.713 16.8205 15.6469L12.7489 13.2966V17.9972C12.7489 18.1961 12.6699 18.3869 12.5293 18.5275C12.3886 18.6682 12.1979 18.7472 11.999 18.7472C11.8 18.7472 11.6093 18.6682 11.4686 18.5275C11.328 18.3869 11.249 18.1961 11.249 17.9972V13.2966L7.17743 15.6469C7.00521 15.7461 6.80067 15.7729 6.60872 15.7214C6.41677 15.6699 6.25311 15.5443 6.15369 15.3722C6.05411 15.2 6.02701 14.9953 6.07835 14.8032C6.12969 14.611 6.25526 14.4471 6.42743 14.3475L10.499 11.9972L6.42743 9.64695C6.25513 9.54749 6.12939 9.38366 6.07787 9.19149C6.05237 9.09634 6.04585 8.9971 6.0587 8.89943C6.07154 8.80176 6.1035 8.70758 6.15275 8.62227C6.20199 8.53695 6.26756 8.46217 6.34571 8.40219C6.42385 8.34221 6.51305 8.29821 6.6082 8.27271C6.80036 8.22119 7.00512 8.24813 7.17743 8.34758L11.249 10.6979V5.99729C11.249 5.79837 11.328 5.60761 11.4686 5.46696C11.6093 5.32631 11.8 5.24729 11.999 5.24729C12.1979 5.24729 12.3886 5.32631 12.5293 5.46696C12.6699 5.60761 12.7489 5.79837 12.7489 5.99729V10.6979L16.8205 8.34758C16.9928 8.24813 17.1975 8.22119 17.3897 8.27271C17.5819 8.32422 17.7457 8.44996 17.8452 8.62227C17.9446 8.79457 17.9715 8.99933 17.92 9.19149C17.8685 9.38366 17.7428 9.54749 17.5705 9.64695L13.4989 11.9972L17.5705 14.3475Z" fill="black"/>
</svg>
