<svg viewBox="0 0 24 24" fill="none" xmlns="http://www.w3.org/2000/svg" width="24" height="24">
<path d="M3.096 12.805C2.649 12.805 2.285 12.443 2.285 11.995 2.285 11.548 2.649 11.186 3.096 11.186L20.916 11.186C21.363 11.186 21.725 11.548 21.725 11.995 21.725 12.443 21.363 12.805 20.916 12.805L3.096 12.805Z" fill="black"/>
<path d="M6.056 3.898C5.609 3.897 5.246 3.535 5.246 3.088 5.246 2.641 5.609 2.278 6.056 2.278L17.937 2.278C18.384 2.278 18.747 2.641 18.747 3.088 18.747 3.535 18.384 3.898 17.937 3.898L6.056 3.898Z" fill="black"/>
<path fill-rule="evenodd" clip-rule="evenodd" d="M13.293 9.687L11.998 8.392 10.704 9.686C10.469 9.92 10.089 9.92 9.855 9.686 9.621 9.452 9.621 9.072 9.855 8.838L11.149 7.543 9.856 6.25C9.81 6.204 9.773 6.152 9.745 6.097 9.631 5.872 9.668 5.59 9.856 5.402 10.091 5.167 10.471 5.167 10.705 5.402L11.998 6.695 13.292 5.401C13.526 5.167 13.906 5.167 14.14 5.401 14.328 5.589 14.365 5.871 14.251 6.097 14.223 6.152 14.186 6.204 14.14 6.25L12.847 7.543 14.141 8.838C14.376 9.072 14.376 9.452 14.141 9.687 13.907 9.921 13.527 9.921 13.293 9.687Z" fill="black"/>
<path fill-rule="evenodd" clip-rule="evenodd" d="M12.618 17.926L13.293 18.601C13.528 18.835 13.908 18.835 14.142 18.601 14.324 18.418 14.365 18.147 14.263 17.926 14.234 17.863 14.194 17.804 14.142 17.752L12.847 16.458 14.141 15.164C14.375 14.93 14.375 14.55 14.141 14.316 13.906 14.081 13.526 14.081 13.292 14.316L11.999 15.609 10.705 14.316C10.471 14.082 10.091 14.082 9.857 14.316 9.623 14.55 9.623 14.93 9.857 15.165L11.15 16.458 9.856 17.752C9.804 17.804 9.763 17.863 9.735 17.926 9.633 18.147 9.673 18.418 9.856 18.6 10.09 18.835 10.47 18.835 10.704 18.6L11.379 17.926 11.999 17.306 12.618 17.926Z" fill="black"/>
<path d="M6.066 21.723C5.618 21.723 5.256 21.36 5.256 20.913 5.256 20.466 5.618 20.104 6.066 20.103L17.946 20.103C18.393 20.103 18.756 20.466 18.756 20.913 18.756 21.361 18.393 21.723 17.946 21.723H6.066Z" fill="black"/>
</svg>