<svg width="24" height="24" viewBox="0 0 24 24" fill="none" xmlns="http://www.w3.org/2000/svg">
<path fill-rule="evenodd" clip-rule="evenodd" d="M20.75 1.5C21.2141 1.5 21.6591 1.68451 21.9873 2.0127C22.3155 2.34088 22.5 2.78587 22.5 3.25V20.75C22.5 21.2141 22.3155 21.6591 21.9873 21.9873C21.6591 22.3155 21.2141 22.5 20.75 22.5H3.25C2.78587 22.5 2.34088 22.3155 2.0127 21.9873C1.68451 21.6591 1.5 21.2141 1.5 20.75V3.25C1.5 2.78587 1.68451 2.34088 2.0127 2.0127C2.34088 1.68451 2.78587 1.5 3.25 1.5H20.75ZM11.999 3C11.5848 3 11.249 3.33579 11.249 3.75L11.248 20.25C11.248 20.6641 11.5841 20.9997 11.998 21C12.4123 21 12.748 20.6642 12.748 20.25L12.749 3.75C12.749 3.33595 12.413 3.00026 11.999 3ZM3.75 6C3.33579 6 3 6.33579 3 6.75V17.25C3 17.6642 3.33579 18 3.75 18C4.16421 18 4.5 17.6642 4.5 17.25V6.75C4.5 6.33579 4.16421 6 3.75 6ZM20.25 6C19.8358 6 19.5 6.33579 19.5 6.75V17.25C19.5 17.6642 19.8358 18 20.25 18C20.6642 18 21 17.6642 21 17.25V6.75C21 6.33579 20.6642 6 20.25 6ZM9.51953 10.3447C9.22664 10.0518 8.7509 10.0518 8.45801 10.3447L7.86328 10.9385L7.26953 10.3447C6.97664 10.0518 6.5009 10.0518 6.20801 10.3447C5.91544 10.6376 5.91544 11.1124 6.20801 11.4053L6.80273 12L6.20801 12.5947C5.91544 12.8876 5.91544 13.3624 6.20801 13.6553C6.5009 13.9482 6.97664 13.9482 7.26953 13.6553L7.86328 13.0605L8.45801 13.6553C8.7509 13.9482 9.22664 13.9482 9.51953 13.6553C9.8121 13.3624 9.8121 12.8876 9.51953 12.5947L8.9248 12L9.51953 11.4053C9.8121 11.1124 9.8121 10.6376 9.51953 10.3447ZM17.7803 10.3447C17.4874 10.052 17.0126 10.0519 16.7197 10.3447L16.125 10.9395L15.5303 10.3447C15.2374 10.052 14.7626 10.0519 14.4697 10.3447C14.177 10.6376 14.177 11.1124 14.4697 11.4053L15.0645 12L14.4697 12.5947C14.177 12.8876 14.177 13.3624 14.4697 13.6553C14.7626 13.9481 15.2374 13.948 15.5303 13.6553L16.125 13.0605L16.7197 13.6553C17.0126 13.9481 17.4874 13.948 17.7803 13.6553C18.0732 13.3624 18.0732 12.8876 17.7803 12.5947L17.1855 12L17.7803 11.4053C18.0732 11.1124 18.0732 10.6376 17.7803 10.3447Z" fill="black"/>
</svg>
