<svg width="24" height="24" viewBox="0 0 24 24" fill="none" xmlns="http://www.w3.org/2000/svg">
<path d="M2.2501 12.0001C2.25209 10.2105 2.96388 8.49477 4.22932 7.22932C5.49476 5.96388 7.2105 5.25209 9.0001 5.2501H18.0001V3.7501C18 3.60168 18.0439 3.45656 18.1263 3.33312C18.2087 3.20967 18.3259 3.11345 18.463 3.05664C18.6001 2.99982 18.751 2.98497 18.8966 3.01396C19.0421 3.04294 19.1758 3.11447 19.2807 3.21948L21.5307 5.46948C21.6005 5.53913 21.6558 5.62185 21.6935 5.7129C21.7313 5.80395 21.7507 5.90154 21.7507 6.0001C21.7507 6.09866 21.7313 6.19626 21.6935 6.28731C21.6558 6.37836 21.6005 6.46107 21.5307 6.53073L19.2807 8.78073C19.1758 8.88574 19.0421 8.95726 18.8966 8.98625C18.751 9.01524 18.6001 9.00038 18.463 8.94357C18.3259 8.88676 18.2087 8.79053 18.1263 8.66709C18.0439 8.54364 18 8.39852 18.0001 8.2501V6.7501H9.0001C7.60817 6.75159 6.27368 7.30519 5.28944 8.28944C4.30519 9.27368 3.75159 10.6082 3.7501 12.0001C3.7501 12.199 3.67108 12.3898 3.53043 12.5304C3.38978 12.6711 3.19901 12.7501 3.0001 12.7501C2.80119 12.7501 2.61042 12.6711 2.46977 12.5304C2.32912 12.3898 2.2501 12.199 2.2501 12.0001ZM21.0001 11.2501C20.8012 11.2501 20.6104 11.3291 20.4698 11.4698C20.3291 11.6104 20.2501 11.8012 20.2501 12.0001C20.2486 13.392 19.695 14.7265 18.7108 15.7108C17.7265 16.695 16.392 17.2486 15.0001 17.2501H6.0001V15.7501C6.00022 15.6017 5.9563 15.4566 5.87389 15.3331C5.79149 15.2097 5.67431 15.1135 5.53719 15.0566C5.40008 14.9998 5.24919 14.985 5.10362 15.014C4.95806 15.0429 4.82437 15.1145 4.71948 15.2195L2.46948 17.4695C2.39974 17.5391 2.34442 17.6219 2.30668 17.7129C2.26894 17.8039 2.24951 17.9015 2.24951 18.0001C2.24951 18.0987 2.26894 18.1963 2.30668 18.2873C2.34442 18.3784 2.39974 18.4611 2.46948 18.5307L4.71948 20.7807C4.82437 20.8857 4.95806 20.9573 5.10362 20.9862C5.24919 21.0152 5.40008 21.0004 5.53719 20.9436C5.67431 20.8868 5.79149 20.7905 5.87389 20.6671C5.9563 20.5436 6.00022 20.3985 6.0001 20.2501V18.7501H15.0001C16.7897 18.7481 18.5054 18.0363 19.7709 16.7709C21.0363 15.5054 21.7481 13.7897 21.7501 12.0001C21.7501 11.8012 21.6711 11.6104 21.5304 11.4698C21.3898 11.3291 21.199 11.2501 21.0001 11.2501Z" fill="black"/>
</svg>
