<svg xmlns="http://www.w3.org/2000/svg" fill="currentColor" viewBox="0 0 24 24" width="24" height="24"><path d="M3.225 12A6.08 6.08 0 0 1 9.3 5.925h8.1v-1.35a.675.675 0 0 1 1.153-.478l2.025 2.025a.675.675 0 0 1 0 .955l-2.025 2.025a.675.675 0 0 1-1.153-.478v-1.35H9.3a4.73 4.73 0 0 0-4.725 4.725.675.675 0 0 1-1.35 0zm16.875-.675a.675.675 0 0 0-.675.675 4.73 4.73 0 0 1-4.725 4.725H6.6v-1.35a.675.675 0 0 0-1.153-.478l-2.025 2.025a.675.675 0 0 0 0 .955l2.025 2.025a.675.675 0 0 0 1.153-.478v-1.35h8.1a6.08 6.08 0 0 0 6.075-6.075.675.675 0 0 0-.675-.675zM12.675 14.7a.675.675 0 0 0 .675-.675v-4.05a.675.675 0 0 0-.977-.604l-1.35.675a.675.675 0 1 0 .604 1.207l.373-.186v2.958a.675.675 0 0 0 .675.675"/></svg>