<svg xmlns="http://www.w3.org/2000/svg" fill="currentColor" viewBox="0 0 24 24" width="24" height="24"><path d="M1.47 12A7.296 7.296 0 0 1 8.76 4.71h9.72v-1.62a0.81 0.81 0 0 1 1.384-0.574l2.43 2.43a0.81 0.81 0 0 1 0 1.146l-2.43 2.43a0.81 0.81 0 0 1-1.384-0.573v-1.62H8.76a5.676 5.676 0 0 0-5.67 5.67 0.81 0.81 0 0 1-1.62 0z m20.25-0.81a0.81 0.81 0 0 0-0.81 0.81 5.676 5.676 0 0 1-5.67 5.67H5.52v-1.62a0.81 0.81 0 0 0-1.384-0.574l-2.43 2.43a0.81 0.81 0 0 0 0 1.146l2.43 2.43a0.81 0.81 0 0 0 1.384-0.573v-1.62h9.72a7.296 7.296 0 0 0 7.29-7.29 0.81 0.81 0 0 0-0.81-0.81z"/></svg>