<svg viewBox="0 0 24 24" fill="none" xmlns="http://www.w3.org/2000/svg" width="24" height="24">
<path fill-rule="evenodd" clip-rule="evenodd" d="M20.7 2.4C21.197 2.4 21.6 2.803 21.6 3.3V20.7C21.6 21.197 21.197 21.6 20.7 21.6H3.3C2.803 21.6 2.4 21.197 2.4 20.7V3.3C2.4 2.803 2.803 2.4 3.3 2.4H20.7ZM6.349 5.305C5.902 5.305 5.54 5.668 5.539 6.115V8.739C5.54 9.186 5.902 9.548 6.349 9.548 6.796 9.548 7.159 9.186 7.159 8.739V6.925H11.442V17.108H9.628C9.181 17.108 8.819 17.471 8.818 17.918 8.818 18.365 9.181 18.728 9.628 18.728H12.228C12.236 18.728 12.244 18.73 12.252 18.73 12.26 18.73 12.268 18.728 12.275 18.728H14.875C15.322 18.728 15.684 18.365 15.684 17.918 15.684 17.471 15.322 17.108 14.875 17.108H13.062V6.925H17.345V8.739C17.345 9.186 17.707 9.548 18.155 9.548 18.602 9.548 18.964 9.186 18.964 8.739V6.115C18.964 5.668 18.602 5.305 18.155 5.305H6.349ZM18.4 14.272C18.083 13.956 17.57 13.956 17.253 14.272 16.938 14.589 16.937 15.102 17.253 15.418L18.206 16.371 17.253 17.325C16.938 17.641 16.938 18.154 17.253 18.47 17.57 18.786 18.083 18.786 18.4 18.47L19.925 16.944C20.241 16.628 20.241 16.114 19.925 15.798L18.4 14.272Z" fill="black"/>
</svg>