<svg width="24" height="24" viewBox="0 0 24 24" fill="none" xmlns="http://www.w3.org/2000/svg">
<path d="M19.8438 12.75C20.7585 12.75 21.5 13.4915 21.5 14.4062V19.8438C21.5 20.7585 20.7585 21.5 19.8438 21.5H14.4062C13.4915 21.5 12.75 20.7585 12.75 19.8438V14.4062C12.75 13.4915 13.4915 12.75 14.4062 12.75H19.8438Z" fill="black"/>
<path d="M10.4443 6.74512C10.8585 6.74512 11.1943 7.0809 11.1943 7.49512C11.1941 7.90911 10.8584 8.24512 10.4443 8.24512H4V15.7441H7.49902V14.2432C7.49902 13.9398 7.68166 13.6659 7.96191 13.5498C8.24214 13.4338 8.56483 13.4984 8.7793 13.7129L11.0293 15.9629C11.3218 16.2558 11.3221 16.7307 11.0293 17.0234L8.7793 19.2734C8.56491 19.4877 8.24201 19.5523 7.96191 19.4365C7.68181 19.3205 7.49922 19.0463 7.49902 18.7432V17.2441H4C3.60245 17.2441 3.22069 17.0857 2.93945 16.8047C2.65837 16.5236 2.50026 16.1416 2.5 15.7441V8.24512C2.5 7.84744 2.65834 7.46585 2.93945 7.18457C3.22072 6.90333 3.60225 6.74515 4 6.74512H10.4443Z" fill="black"/>
<path d="M13.5 2.5C13.9142 2.5 14.25 2.83579 14.25 3.25V10.5C14.25 10.9142 13.9142 11.25 13.5 11.25C13.0858 11.25 12.75 10.9142 12.75 10.5V3.25C12.75 2.83579 13.0858 2.5 13.5 2.5Z" fill="black"/>
<path d="M15.917 2.5C16.3311 2.50013 16.667 2.83587 16.667 3.25V10.5C16.667 10.9141 16.3311 11.2499 15.917 11.25C15.5028 11.25 15.167 10.9142 15.167 10.5V3.25C15.167 2.83579 15.5028 2.5 15.917 2.5Z" fill="black"/>
<path d="M18.333 2.5C18.7472 2.5 19.083 2.83579 19.083 3.25V10.5C19.083 10.9142 18.7472 11.25 18.333 11.25C17.919 11.2498 17.583 10.9141 17.583 10.5V3.25C17.583 2.83591 17.919 2.5002 18.333 2.5Z" fill="black"/>
<path d="M20.75 2.5C21.1642 2.5 21.5 2.83579 21.5 3.25V10.5C21.5 10.9142 21.1642 11.25 20.75 11.25C20.3358 11.25 20 10.9142 20 10.5V3.25C20 2.83579 20.3358 2.5 20.75 2.5Z" fill="black"/>
</svg>
