<svg xmlns="http://www.w3.org/2000/svg" width="24" height="24" fill="currentColor" viewBox="0 0 24 24"><path d="M10.786 6.33V15.24a4.865 4.865 0 0 1-4.86 4.86 0.81 0.81 0 0 1 0-1.62 3.24 3.24 0 0 0 3.24-3.24v-0.81H3.09a1.62 1.62 0 0 1-1.62-1.62v-6.48a1.62 1.62 0 0 1 1.62-1.62h6.076a1.62 1.62 0 0 1 1.62 1.62m10.125-1.62h-6.075a1.62 1.62 0 0 0-1.62 1.62v6.48a1.62 1.62 0 0 0 1.62 1.62h6.075v0.81a3.24 3.24 0 0 1-3.24 3.24 0.81 0.81 0 0 0 0 1.62 4.865 4.865 0 0 0 4.86-4.86V6.33a1.62 1.62 0 0 0-1.62-1.62"/></svg>