<svg width="24" height="24" viewBox="0 0 24 24" fill="none" xmlns="http://www.w3.org/2000/svg">
<path d="M10.874 6.74681V14.9968C10.8727 16.1898 10.3982 17.3337 9.55458 18.1773C8.71094 19.021 7.56708 19.4955 6.37399 19.4967C6.17508 19.4967 5.98432 19.4177 5.84367 19.2771C5.70301 19.1364 5.624 18.9456 5.624 18.7467C5.624 18.5478 5.70301 18.357 5.84367 18.2164C5.98432 18.0757 6.17508 17.9967 6.37399 17.9967C7.16964 17.9967 7.93269 17.6807 8.4953 17.1181C9.0579 16.5555 9.37397 15.7924 9.37397 14.9968V14.2468H3.74901C3.35119 14.2468 2.96966 14.0887 2.68836 13.8074C2.40706 13.5261 2.24902 13.1446 2.24902 12.7468V6.74681C2.24902 6.34899 2.40706 5.96746 2.68836 5.68616C2.96966 5.40486 3.35119 5.24683 3.74901 5.24683H9.37397C9.77179 5.24683 10.1533 5.40486 10.4346 5.68616C10.7159 5.96746 10.874 6.34899 10.874 6.74681ZM20.2489 5.24683H14.6239C14.2261 5.24683 13.8446 5.40486 13.5633 5.68616C13.282 5.96746 13.1239 6.34899 13.1239 6.74681V12.7468C13.1239 13.1446 13.282 13.5261 13.5633 13.8074C13.8446 14.0887 14.2261 14.2468 14.6239 14.2468H20.2489V14.9968C20.2489 15.7924 19.9328 16.5555 19.3702 17.1181C18.8076 17.6807 18.0446 17.9967 17.2489 17.9967C17.05 17.9967 16.8592 18.0757 16.7186 18.2164C16.5779 18.357 16.4989 18.5478 16.4989 18.7467C16.4989 18.9456 16.5779 19.1364 16.7186 19.2771C16.8592 19.4177 17.05 19.4967 17.2489 19.4967C18.442 19.4955 19.5859 19.021 20.4295 18.1773C21.2731 17.3337 21.7476 16.1898 21.7489 14.9968V6.74681C21.7489 6.34899 21.5908 5.96746 21.3095 5.68616C21.0282 5.40486 20.6467 5.24683 20.2489 5.24683Z" fill="black"/>
</svg>
