<svg width="24" height="24" viewBox="0 0 24 24" fill="none" xmlns="http://www.w3.org/2000/svg">
<path d="M18.7489 4.4968H12.7489V1.49682C12.7489 1.29791 12.6699 1.10715 12.5293 0.966494C12.3886 0.825843 12.1979 0.746826 11.9989 0.746826C11.8 0.746826 11.6093 0.825843 11.4686 0.966494C11.328 1.10715 11.249 1.29791 11.249 1.49682V4.4968H5.249C4.45336 4.4968 3.6903 4.81287 3.1277 5.37547C2.56509 5.93808 2.24902 6.70113 2.24902 7.49677V17.9967C2.24902 18.7923 2.56509 19.5554 3.1277 20.118C3.6903 20.6806 4.45336 20.9967 5.249 20.9967H18.7489C19.5445 20.9967 20.3076 20.6806 20.8702 20.118C21.4328 19.5554 21.7489 18.7923 21.7489 17.9967V7.49677C21.7489 6.70113 21.4328 5.93808 20.8702 5.37547C20.3076 4.81287 19.5445 4.4968 18.7489 4.4968ZM16.1239 8.99676C16.3464 8.99676 16.5639 9.06274 16.7489 9.18636C16.9339 9.30997 17.0781 9.48567 17.1633 9.69124C17.2484 9.8968 17.2707 10.123 17.2273 10.3412C17.1839 10.5595 17.0767 10.7599 16.9194 10.9172C16.7621 11.0746 16.5616 11.1817 16.3434 11.2251C16.1252 11.2685 15.899 11.2463 15.6934 11.1611C15.4878 11.076 15.3121 10.9318 15.1885 10.7468C15.0649 10.5618 14.9989 10.3443 14.9989 10.1218C14.9989 9.82339 15.1175 9.53724 15.3284 9.32627C15.5394 9.11529 15.8256 8.99676 16.1239 8.99676ZM8.99897 17.2467H7.49898C7.10116 17.2467 6.71963 17.0887 6.43833 16.8074C6.15703 16.5261 5.99899 16.1445 5.99899 15.7467C5.99899 15.3489 6.15703 14.9674 6.43833 14.6861C6.71963 14.4048 7.10116 14.2467 7.49898 14.2467H8.99897V17.2467ZM7.87398 11.2467C7.65148 11.2467 7.43397 11.1808 7.24897 11.0572C7.06397 10.9335 6.91977 10.7578 6.83462 10.5523C6.74948 10.3467 6.7272 10.1205 6.77061 9.90228C6.81401 9.68405 6.92116 9.4836 7.07849 9.32627C7.23582 9.16893 7.43628 9.06179 7.65451 9.01838C7.87273 8.97497 8.09893 8.99725 8.3045 9.0824C8.51006 9.16755 8.68576 9.31174 8.80938 9.49674C8.93299 9.68175 8.99897 9.89925 8.99897 10.1218C8.99897 10.4201 8.88045 10.7063 8.66947 10.9172C8.45849 11.1282 8.17235 11.2467 7.87398 11.2467ZM13.4989 17.2467H10.499V14.2467H13.4989V17.2467ZM16.4989 17.2467H14.9989V14.2467H16.4989C16.8967 14.2467 17.2783 14.4048 17.5596 14.6861C17.8409 14.9674 17.9989 15.3489 17.9989 15.7467C17.9989 16.1445 17.8409 16.5261 17.5596 16.8074C17.2783 17.0887 16.8967 17.2467 16.4989 17.2467Z" fill="black"/>
</svg>
