<svg xmlns="http://www.w3.org/2000/svg" fill="currentColor" viewBox="0 0 24 24" width="24" height="24"><path d="M14.43 21.72a0.81 0.81 0 0 1-0.81 0.81h-3.24a0.81 0.81 0 0 1 0-1.62h3.24a0.81 0.81 0 0 1 0.81 0.81m7.252-6.902l-1.252 5.632a1.62 1.62 0 0 1-2.582 0.923l-2.758-2.083H8.914l-2.76 2.083a1.62 1.62 0 0 1-2.583-0.923l-1.251-5.632a1.632 1.632 0 0 1 0.336-1.389l2.892-3.469a12.48 12.48 0 0 1 0.867-3.713c1.306-3.275 3.644-5.329 4.594-6.06a1.62 1.62 0 0 1 1.985 0c0.946 0.731 3.288 2.785 4.593 6.06a12.48 12.48 0 0 1 0.868 3.713l2.892 3.469a1.632 1.632 0 0 1 0.336 1.389zM7.584 18.26q-1.631-2.97-1.98-5.839l-1.704 2.045 1.252 5.634 0.018-0.013z m5.63-9.094A1.216 1.216 0 1 0 12 10.38a1.216 1.216 0 0 0 1.214-1.214m6.886 5.301l-1.704-2.045q-0.347 2.863-1.98 5.842l2.414 1.823 0.018 0.013z"/></svg>