<svg width="24" height="24" viewBox="0 0 24 24" fill="none" xmlns="http://www.w3.org/2000/svg">
<path d="M9.54746 17.9229C9.12465 18.8473 7.71372 21.0035 3.74906 21.0035C3.55015 21.0035 3.35939 20.9245 3.21874 20.7838C3.07809 20.6432 2.99907 20.4524 2.99907 20.2535C2.99907 16.2888 5.1553 14.8779 6.07967 14.4551C6.1693 14.4142 6.2661 14.3914 6.36454 14.3879C6.46299 14.3845 6.56115 14.4004 6.65343 14.4349C6.74571 14.4694 6.83029 14.5217 6.90235 14.5889C6.97441 14.656 7.03254 14.7367 7.07341 14.8264C7.11429 14.916 7.13711 15.0128 7.14057 15.1112C7.14404 15.2097 7.12807 15.3078 7.0936 15.4001C7.05913 15.4924 7.00682 15.577 6.93965 15.649C6.87249 15.7211 6.79179 15.7792 6.70217 15.8201C6.09936 16.0948 4.76906 16.9788 4.53468 19.4679C7.02373 19.2335 7.90966 17.9032 8.18247 17.3004C8.22334 17.2108 8.28147 17.1301 8.35353 17.0629C8.42559 16.9957 8.51017 16.9434 8.60245 16.909C8.69473 16.8745 8.79289 16.8585 8.89134 16.862C8.98978 16.8655 9.08658 16.8883 9.17621 16.9291C9.26584 16.97 9.34654 17.0281 9.4137 17.1002C9.48086 17.1723 9.53317 17.2569 9.56764 17.3491C9.60212 17.4414 9.61808 17.5396 9.61462 17.638C9.61115 17.7365 9.58833 17.8333 9.54746 17.9229ZM20.9849 4.42299C20.9626 4.0573 20.8074 3.71239 20.5483 3.45333C20.2892 3.19427 19.9443 3.03898 19.5786 3.01675C18.3993 2.94644 15.3852 3.05425 12.8849 5.55455L8.24903 10.1942C8.17941 10.2639 8.09673 10.3193 8.00572 10.3571C7.91471 10.3949 7.81715 10.4144 7.7186 10.4145C7.51958 10.4146 7.32864 10.3357 7.18779 10.1951C7.04693 10.0545 6.9677 9.86373 6.96753 9.66471C6.96735 9.46569 7.04625 9.27475 7.18685 9.13389L9.67683 6.64298C9.72896 6.59054 9.76442 6.52386 9.77876 6.45133C9.7931 6.37879 9.78568 6.30364 9.75742 6.23531C9.72917 6.16698 9.68135 6.10853 9.61997 6.0673C9.55859 6.02608 9.4864 6.00392 9.41246 6.0036H6.96935C6.77176 6.00256 6.57594 6.04082 6.39327 6.11614C6.2106 6.19146 6.04473 6.30235 5.9053 6.44235L2.6897 9.65983C2.49249 9.8569 2.35411 10.105 2.29009 10.3764C2.22607 10.6477 2.23893 10.9315 2.32724 11.196C2.41554 11.4604 2.5758 11.695 2.79003 11.8734C3.00425 12.0518 3.26396 12.167 3.54 12.2061L7.14654 12.7095L11.2912 16.8541L11.7946 20.4626C11.8333 20.7386 11.9485 20.9984 12.1271 21.2124C12.3057 21.4264 12.5406 21.5863 12.8052 21.6738C12.9594 21.7253 13.1208 21.7516 13.2834 21.7516C13.4802 21.752 13.6751 21.7134 13.8569 21.6381C14.0387 21.5628 14.2038 21.4523 14.3427 21.3129L17.5602 18.0973C17.6998 17.9575 17.8104 17.7916 17.8857 17.609C17.961 17.4264 17.9995 17.2307 17.999 17.0332V14.5901C17.9988 14.516 17.9767 14.4435 17.9355 14.382C17.8942 14.3204 17.8356 14.2724 17.7671 14.2441C17.6986 14.2158 17.6232 14.2085 17.5505 14.223C17.4778 14.2375 17.411 14.2733 17.3586 14.3257L14.8677 16.8157C14.7949 16.8886 14.7078 16.9458 14.6119 16.9835C14.5159 17.0213 14.4133 17.0389 14.3103 17.0352C14.2072 17.0315 14.1061 17.0066 14.0131 16.962C13.9202 16.9175 13.8374 16.8543 13.7699 16.7763C13.6469 16.6275 13.5844 16.4378 13.5948 16.245C13.6052 16.0522 13.6878 15.8704 13.8262 15.7357L18.4452 11.1167C20.9474 8.61546 21.0552 5.60142 20.9849 4.42112V4.42299Z" fill="black"/>
</svg>
