<svg width="24" height="24" viewBox="0 0 24 24" fill="none" xmlns="http://www.w3.org/2000/svg">
<path d="M21.0004 11.9964C21.0006 14.3625 20.069 16.6336 18.4072 18.3179C16.7455 20.0023 14.4873 20.9645 12.1214 20.9963H12.0004C9.70191 21.0021 7.48947 20.1225 5.82234 18.5401C5.75075 18.4724 5.6932 18.3912 5.65297 18.3013C5.61274 18.2113 5.59063 18.1143 5.58788 18.0158C5.58514 17.9173 5.60183 17.8193 5.63699 17.7272C5.67215 17.6351 5.7251 17.5509 5.79281 17.4793C5.86052 17.4077 5.94167 17.3502 6.03163 17.31C6.12158 17.2697 6.21858 17.2476 6.31708 17.2449C6.41558 17.2421 6.51366 17.2588 6.60571 17.294C6.69777 17.3291 6.78199 17.3821 6.85358 17.4498C7.92589 18.4611 9.27239 19.1339 10.7249 19.3844C12.1774 19.6348 13.6715 19.4518 15.0205 18.858C16.3696 18.2642 17.5138 17.2861 18.3102 16.0459C19.1066 14.8056 19.5199 13.3582 19.4984 11.8844C19.477 10.4106 19.0218 8.97584 18.1896 7.75928C17.3575 6.54271 16.1853 5.59831 14.8196 5.04405C13.4538 4.48979 11.955 4.35024 10.5104 4.64285C9.06581 4.93545 7.73945 5.64722 6.69702 6.68926C6.68937 6.69754 6.68123 6.70537 6.67265 6.71269L5.68453 7.61737L7.27827 9.21111C7.38473 9.31558 7.45762 9.44941 7.48763 9.59552C7.51764 9.74162 7.50341 9.89335 7.44675 10.0313C7.39009 10.1693 7.29358 10.2872 7.16956 10.3701C7.04553 10.4529 6.89961 10.4969 6.75046 10.4964H2.2505C2.05158 10.4964 1.86082 10.4174 1.72017 10.2767C1.57952 10.1361 1.5005 9.94533 1.5005 9.74642V5.24645C1.49964 5.09771 1.54302 4.95208 1.62514 4.82805C1.70725 4.70403 1.82439 4.60723 1.96166 4.54995C2.09893 4.49267 2.25014 4.4775 2.39605 4.50637C2.54197 4.53524 2.676 4.60685 2.78112 4.71208L4.62329 6.55894L5.64891 5.62145C6.90888 4.36637 8.51245 3.51272 10.2572 3.16825C12.0019 2.82378 13.8096 3.00394 15.452 3.68599C17.0944 4.36803 18.498 5.52139 19.4855 7.00045C20.4729 8.47952 21.0001 10.218 21.0004 11.9964Z" fill="black"/>
</svg>
