<svg width="24" height="24" viewBox="0 0 24 24" fill="none" xmlns="http://www.w3.org/2000/svg">
<path d="M9.7123 6.88776C10.0523 6.73565 10.4514 6.88774 10.6039 7.22761C10.7564 7.5678 10.6042 7.96772 10.2641 8.12018C9.27504 8.56346 8.48567 9.3743 8.0707 10.378C7.92829 10.7225 7.53338 10.8866 7.18886 10.7442C6.84434 10.6018 6.68025 10.2069 6.82265 9.86237C7.36969 8.53901 8.40902 7.47185 9.7123 6.88776Z" fill="black"/>
<path d="M8.30085 6.26369L10.2893 6.7965C10.6494 6.89298 10.8629 7.26287 10.7665 7.62296L10.2337 9.61141C10.1371 9.97137 9.76721 10.185 9.40719 10.0886C9.04717 9.9921 8.83368 9.62213 8.93003 9.26211L9.28818 7.92547L7.95154 7.56732C7.59158 7.47074 7.37792 7.10087 7.47438 6.74085C7.57085 6.38083 7.94082 6.16735 8.30085 6.26369Z" fill="black"/>
<path d="M17.113 9.71252C17.2652 10.0525 17.1131 10.4516 16.7732 10.6041C16.433 10.7566 16.0331 10.6045 15.8806 10.2643C15.4373 9.27526 14.6265 8.4859 13.6228 8.07092C13.2783 7.92852 13.1142 7.53361 13.2566 7.18909C13.399 6.84457 13.7939 6.68047 14.1384 6.82288C15.4618 7.36992 16.5289 8.40925 17.113 9.71252Z" fill="black"/>
<path d="M17.7371 8.30107L17.2043 10.2895C17.1078 10.6496 16.7379 10.8632 16.3778 10.7667L14.3894 10.2339C14.0294 10.1373 13.8158 9.76743 13.9122 9.40741C14.0087 9.04739 14.3787 8.83391 14.7387 8.93025L16.0753 9.2884L16.4335 7.95177C16.5301 7.5918 16.8999 7.37814 17.2599 7.47461C17.62 7.57107 17.8335 7.94105 17.7371 8.30107Z" fill="black"/>
<path d="M14.2877 17.1129C13.9477 17.265 13.5486 17.1129 13.3961 16.7731C13.2436 16.4329 13.3957 16.0329 13.7359 15.8805C14.725 15.4372 15.5143 14.6264 15.9293 13.6227C16.0717 13.2781 16.4666 13.114 16.8111 13.2564C17.1557 13.3989 17.3197 13.7938 17.1773 14.1383C16.6303 15.4616 15.591 16.5288 14.2877 17.1129Z" fill="black"/>
<path d="M15.6991 17.737L13.7107 17.2042C13.3506 17.1077 13.1371 16.7378 13.2335 16.3777L13.7663 14.3892C13.8629 14.0293 14.2328 13.8156 14.5928 13.9121C14.9528 14.0086 15.1663 14.3785 15.07 14.7386L14.7118 16.0752L16.0484 16.4333C16.4084 16.5299 16.6221 16.8998 16.5256 17.2598C16.4291 17.6198 16.0592 17.8333 15.6991 17.737Z" fill="black"/>
<path d="M6.88667 14.2879C6.73456 13.9479 6.88665 13.5488 7.22652 13.3963C7.56671 13.2438 7.96663 13.3959 8.11909 13.7361C8.56237 14.7251 9.37321 15.5145 10.3769 15.9295C10.7214 16.0719 10.8855 16.4668 10.7431 16.8113C10.6007 17.1558 10.2058 17.3199 9.86128 17.1775C8.53792 16.6305 7.47076 15.5911 6.88667 14.2879Z" fill="black"/>
<path d="M6.2626 15.6993L6.79541 13.7109C6.89189 13.3508 7.26178 13.1372 7.62187 13.2337L9.61032 13.7665C9.97028 13.8631 10.1839 14.233 10.0875 14.593C9.99101 14.953 9.62104 15.1665 9.26102 15.0701L7.92438 14.712L7.56623 16.0486C7.46965 16.4086 7.09978 16.6222 6.73976 16.5258C6.37974 16.4293 6.16626 16.0593 6.2626 15.6993Z" fill="black"/>
<path d="M5.25049 10.1201C5.25049 8.82996 5.76218 7.59193 6.67432 6.67969C7.58658 5.76743 8.8245 5.25488 10.1147 5.25488C10.4875 5.25488 10.7896 4.95287 10.7896 4.58008C10.7896 4.20729 10.4875 3.90527 10.1147 3.90527C8.46658 3.90527 6.88573 4.56007 5.72022 5.72559C4.55482 6.89109 3.8999 8.47204 3.8999 10.1201C3.90011 10.4926 4.20222 10.7947 4.57471 10.7949C4.94737 10.7949 5.25028 10.4927 5.25049 10.1201Z" fill="black"/>
<path d="M13.8848 5.25586C15.1749 5.25586 16.413 5.76755 17.3252 6.67969C18.2375 7.59195 18.75 8.82987 18.75 10.1201C18.75 10.4929 19.052 10.7949 19.4248 10.7949C19.7976 10.7949 20.0996 10.4929 20.0996 10.1201C20.0996 8.47195 19.4448 6.8911 18.2793 5.72559C17.1138 4.56019 15.5328 3.90527 13.8848 3.90527C13.5123 3.90548 13.2102 4.20759 13.21 4.58008C13.21 4.95274 13.5122 5.25565 13.8848 5.25586Z" fill="black"/>
<path d="M18.7495 13.8905C18.7495 15.1807 18.2378 16.4187 17.3257 17.331C16.4134 18.2432 15.1755 18.7558 13.8853 18.7558C13.5125 18.7558 13.2105 19.0578 13.2105 19.4306C13.2105 19.8034 13.5125 20.1054 13.8853 20.1054C15.5334 20.1054 17.1143 19.4506 18.2798 18.2851C19.4452 17.1196 20.1001 15.5386 20.1001 13.8905C20.0999 13.5181 19.7978 13.216 19.4253 13.2157C19.0526 13.2157 18.7497 13.5179 18.7495 13.8905Z" fill="black"/>
<path d="M5.25049 13.8905C5.25049 15.1807 5.76218 16.4187 6.67432 17.331C7.58658 18.2432 8.8245 18.7558 10.1147 18.7558C10.4875 18.7558 10.7896 19.0578 10.7896 19.4306C10.7896 19.8034 10.4875 20.1054 10.1147 20.1054C8.46658 20.1054 6.88573 19.4506 5.72022 18.2851C4.55482 17.1196 3.8999 15.5386 3.8999 13.8905C3.90011 13.5181 4.20222 13.216 4.57471 13.2157C4.94737 13.2157 5.25028 13.5179 5.25049 13.8905Z" fill="black"/>
</svg>
