<svg width="24" height="24" viewBox="0 0 24 24" fill="none" xmlns="http://www.w3.org/2000/svg">
<path d="M14 12C14 13.1046 13.1046 14 12 14C10.8954 14 10 13.1046 10 12C10 10.8954 10.8954 10 12 10C13.1046 10 14 10.8954 14 12Z" fill="black"/>
<path fill-rule="evenodd" clip-rule="evenodd" d="M21 19.5C21 19.8978 20.8419 20.2792 20.5605 20.5605C20.2792 20.8419 19.8978 21 19.5 21H4.5C4.10218 21 3.72076 20.8419 3.43945 20.5605C3.15815 20.2792 3 19.8978 3 19.5L3 4.5C3 4.10218 3.15815 3.72076 3.43945 3.43945C3.72076 3.15815 4.10218 3 4.5 3L19.5 3C19.8978 3 20.2792 3.15815 20.5605 3.43945C20.8419 3.72076 21 4.10218 21 4.5V19.5ZM11.25 6C11.25 5.58579 10.9142 5.25 10.5 5.25C9.10768 5.25 7.77172 5.8025 6.78711 6.78711C5.8025 7.77172 5.25 9.10768 5.25 10.5C5.25 10.9142 5.58579 11.25 6 11.25C6.41421 11.25 6.75 10.9142 6.75 10.5C6.75 9.50537 7.14542 8.55185 7.84863 7.84863C8.55185 7.14542 9.50537 6.75 10.5 6.75C10.9142 6.75 11.25 6.41421 11.25 6ZM11.25 18C11.25 17.5858 10.9142 17.25 10.5 17.25C9.50537 17.25 8.55185 16.8546 7.84863 16.1514C7.14542 15.4482 6.75 14.4946 6.75 13.5C6.75 13.0858 6.41421 12.75 6 12.75C5.58579 12.75 5.25 13.0858 5.25 13.5C5.25 14.8923 5.8025 16.2283 6.78711 17.2129C7.77172 18.1975 9.10768 18.75 10.5 18.75C10.9142 18.75 11.25 18.4142 11.25 18ZM15.5 12C15.5 10.067 13.933 8.5 12 8.5C10.067 8.5 8.5 10.067 8.5 12C8.5 13.933 10.067 15.5 12 15.5C13.933 15.5 15.5 13.933 15.5 12ZM18.75 10.5C18.75 9.10768 18.1975 7.77172 17.2129 6.78711C16.2283 5.8025 14.8923 5.25 13.5 5.25C13.0858 5.25 12.75 5.58579 12.75 6C12.75 6.41421 13.0858 6.75 13.5 6.75C14.4946 6.75 15.4482 7.14542 16.1514 7.84863C16.8546 8.55185 17.25 9.50537 17.25 10.5C17.25 10.9142 17.5858 11.25 18 11.25C18.4142 11.25 18.75 10.9142 18.75 10.5ZM18.75 13.5C18.75 13.0858 18.4142 12.75 18 12.75C17.5858 12.75 17.25 13.0858 17.25 13.5C17.25 14.4946 16.8546 15.4482 16.1514 16.1514C15.4482 16.8546 14.4946 17.25 13.5 17.25C13.0858 17.25 12.75 17.5858 12.75 18C12.75 18.4142 13.0858 18.75 13.5 18.75C14.8923 18.75 16.2283 18.1975 17.2129 17.2129C18.1975 16.2283 18.75 14.8923 18.75 13.5Z" fill="black"/>
</svg>
