<svg viewBox="0 0 24 24" fill="none" xmlns="http://www.w3.org/2000/svg" width="24" height="24">
<path d="M9.255 5.865C9.663 5.683 10.142 5.865 10.325 6.273 10.508 6.681 10.325 7.161 9.917 7.344 8.73 7.876 7.783 8.849 7.285 10.054 7.114 10.467 6.64 10.664 6.227 10.493 5.813 10.322 5.616 9.848 5.787 9.435 6.444 7.847 7.691 6.566 9.255 5.865Z" fill="black"/>
<path d="M7.561 5.116L9.947 5.756C10.379 5.872 10.635 6.315 10.52 6.748L9.88 9.134C9.765 9.566 9.321 9.822 8.889 9.706 8.457 9.591 8.2 9.147 8.316 8.715L8.746 7.111 7.142 6.681C6.71 6.565 6.454 6.121 6.569 5.689 6.685 5.257 7.129 5.001 7.561 5.116Z" fill="black"/>
<path d="M18.136 9.255C18.318 9.663 18.136 10.142 17.728 10.325 17.32 10.508 16.84 10.325 16.657 9.917 16.125 8.73 15.152 7.783 13.947 7.285 13.534 7.114 13.337 6.64 13.508 6.227 13.679 5.813 14.153 5.617 14.566 5.787 16.154 6.444 17.435 7.691 18.136 9.255Z" fill="black"/>
<path d="M18.885 7.561L18.245 9.947C18.129 10.38 17.685 10.636 17.253 10.52L14.867 9.881C14.435 9.765 14.179 9.321 14.295 8.889 14.41 8.457 14.854 8.201 15.286 8.316L16.89 8.746 17.32 7.142C17.436 6.71 17.88 6.454 18.312 6.57 18.744 6.685 19 7.129 18.885 7.561Z" fill="black"/>
<path d="M14.745 18.135C14.337 18.318 13.858 18.135 13.675 17.728 13.492 17.319 13.675 16.839 14.083 16.657 15.27 16.125 16.217 15.152 16.715 13.947 16.886 13.534 17.36 13.337 17.773 13.508 18.187 13.679 18.384 14.153 18.213 14.566 17.556 16.154 16.309 17.435 14.745 18.135Z" fill="black"/>
<path d="M16.439 18.884L14.053 18.245C13.621 18.129 13.365 17.685 13.48 17.253L14.12 14.867C14.235 14.435 14.679 14.179 15.111 14.295 15.543 14.41 15.8 14.854 15.684 15.286L15.254 16.89 16.858 17.32C17.29 17.436 17.547 17.88 17.431 18.312 17.315 18.744 16.871 19 16.439 18.884Z" fill="black"/>
<path d="M5.864 14.745C5.681 14.337 5.864 13.859 6.272 13.676 6.68 13.493 7.16 13.675 7.343 14.083 7.875 15.27 8.848 16.217 10.052 16.715 10.466 16.886 10.663 17.36 10.492 17.774 10.321 18.187 9.847 18.384 9.434 18.213 7.846 17.557 6.565 16.309 5.864 14.745Z" fill="black"/>
<path d="M5.115 16.439L5.754 14.053C5.87 13.621 6.314 13.365 6.746 13.48L9.132 14.12C9.564 14.236 9.821 14.68 9.705 15.112 9.589 15.544 9.145 15.8 8.713 15.684L7.109 15.254 6.679 16.858C6.564 17.29 6.12 17.547 5.688 17.431 5.256 17.315 5 16.871 5.115 16.439Z" fill="black"/>
<path d="M3.901 9.744C3.901 8.196 4.515 6.71 5.609 5.616 6.704 4.521 8.189 3.906 9.738 3.906 10.185 3.906 10.548 3.543 10.548 3.096 10.548 2.649 10.185 2.286 9.738 2.286 7.76 2.286 5.863 3.072 4.464 4.471 3.066 5.869 2.28 7.766 2.28 9.744 2.28 10.191 2.643 10.554 3.09 10.554 3.537 10.554 3.9 10.191 3.901 9.744Z" fill="black"/>
<path d="M14.262 3.907C15.81 3.907 17.296 4.521 18.39 5.616 19.485 6.71 20.1 8.196 20.1 9.744 20.1 10.191 20.462 10.554 20.91 10.554 21.357 10.554 21.72 10.191 21.72 9.744 21.72 7.766 20.934 5.869 19.535 4.471 18.137 3.072 16.239 2.286 14.262 2.286 13.815 2.287 13.452 2.649 13.452 3.096 13.452 3.543 13.815 3.907 14.262 3.907Z" fill="black"/>
<path d="M20.099 14.269C20.099 15.817 19.485 17.302 18.391 18.397 17.296 19.492 15.811 20.107 14.262 20.107 13.815 20.107 13.453 20.469 13.453 20.917 13.453 21.364 13.815 21.726 14.262 21.726 16.24 21.726 18.137 20.941 19.536 19.542 20.934 18.144 21.72 16.246 21.72 14.269 21.72 13.822 21.357 13.459 20.91 13.459 20.463 13.459 20.1 13.821 20.099 14.269Z" fill="black"/>
<path d="M3.901 14.269C3.901 15.817 4.515 17.302 5.609 18.397 6.704 19.492 8.189 20.107 9.738 20.107 10.185 20.107 10.548 20.469 10.548 20.917 10.548 21.364 10.185 21.726 9.738 21.726 7.76 21.726 5.863 20.941 4.464 19.542 3.066 18.144 2.28 16.246 2.28 14.269 2.28 13.822 2.643 13.459 3.09 13.459 3.537 13.459 3.9 13.821 3.901 14.269Z" fill="black"/>
</svg>