<svg viewBox="0 0 24 24" fill="none" xmlns="http://www.w3.org/2000/svg" width="24" height="24">
<path d="M8.161 9.214H3.469V18.397C3.469 18.563 3.603 18.697 3.769 18.697H20.231C20.397 18.697 20.531 18.563 20.531 18.397V9.214H15.84V4.955H20.821C21.317 4.955 21.721 5.358 21.721 5.855V7.157H21.731V18.397C21.731 19.226 21.06 19.897 20.231 19.897H3.769C2.94 19.897 2.269 19.226 2.269 18.397V7.157H2.28V5.855C2.28 5.358 2.683 4.955 3.18 4.955H8.161V9.214ZM12 11.408C12.331 11.408 12.6 11.677 12.6 12.008V14.108H13.8C14.043 14.108 14.261 14.254 14.354 14.478 14.447 14.703 14.396 14.961 14.224 15.132L12.424 16.932C12.219 17.137 11.902 17.163 11.67 17.01L11.576 16.932 9.776 15.132C9.604 14.961 9.553 14.703 9.646 14.478 9.738 14.254 9.957 14.108 10.2 14.108H11.4V12.008C11.4 11.677 11.669 11.408 12 11.408ZM14.64 9.214H9.361V4.955H14.64V9.214Z" fill="black"/>
</svg>