<svg width="24" height="24" viewBox="0 0 24 24" fill="none" xmlns="http://www.w3.org/2000/svg">
<path fill-rule="evenodd" clip-rule="evenodd" d="M14.2502 4.5V9H9.75024V4.5H14.2502Z" fill="black"/>
<path fill-rule="evenodd" clip-rule="evenodd" d="M20.25 9V17.917C20.2498 17.9628 20.2128 17.9998 20.167 18H3.83301C3.78724 17.9998 3.75017 17.9628 3.75 17.917V9H8.25024V4.5H3.83228C2.95817 4.50027 2.24944 5.20888 2.24927 6.08301V9L2.25 17.917C2.25018 18.7912 2.95882 19.4998 3.83301 19.5H20.167C21.0412 19.4998 21.7498 18.7912 21.75 17.917L21.7493 9V6.08301C21.7491 5.20881 21.0405 4.50018 20.1663 4.5H15.7502V9H20.25Z" fill="black"/>
<path fill-rule="evenodd" clip-rule="evenodd" d="M12.75 13.749V12C12.75 11.5858 12.4142 11.25 12 11.25C11.5858 11.25 11.25 11.5858 11.25 12V13.749H10.3341C10.0308 13.749 9.75683 13.9316 9.64075 14.2119C9.5247 14.4921 9.58936 14.8148 9.80383 15.0292L11.4698 16.6953L11.5265 16.747C11.8211 16.9873 12.2558 16.9699 12.5304 16.6953L14.1964 15.0292C14.4109 14.8147 14.4746 14.4921 14.3585 14.2119C14.2424 13.9318 13.9694 13.749 13.6661 13.749H12.75Z" fill="black"/>
</svg>
