<svg width="24" height="24" viewBox="0 0 24 24" fill="none" xmlns="http://www.w3.org/2000/svg">
<path d="M7.87524 9H2.24927V6.08301C2.24944 5.20888 2.95817 4.50027 3.83228 4.5H7.87524V9ZM14.6252 4.5V9H9.37524V4.5H14.6252ZM20.1663 4.5C21.0405 4.50018 21.7491 5.20881 21.7493 6.08301V9H16.1252V4.5H20.1663Z" fill="black"/>
<path d="M2.25 17.917V15.75C2.25 15.3358 2.58579 15 3 15C3.41421 15 3.75 15.3358 3.75 15.75V17.917C3.75018 17.9628 3.78724 17.9998 3.83301 18H6.5625C6.97671 18 7.3125 18.3358 7.3125 18.75C7.3125 19.1642 6.97671 19.5 6.5625 19.5H3.83301C2.95882 19.4998 2.25018 18.7912 2.25 17.917ZM13.875 18C14.2892 18 14.625 18.3358 14.625 18.75C14.625 19.1642 14.2892 19.5 13.875 19.5H10.125C9.71079 19.5 9.375 19.1642 9.375 18.75C9.375 18.3358 9.71079 18 10.125 18H13.875ZM20.25 17.917V15.75C20.25 15.3358 20.5858 15 21 15C21.4142 15 21.75 15.3358 21.75 15.75V17.917C21.7498 18.7912 21.0412 19.4998 20.167 19.5H17.4375C17.0233 19.5 16.6875 19.1642 16.6875 18.75C16.6875 18.3358 17.0233 18 17.4375 18H20.167C20.2128 17.9998 20.2498 17.9628 20.25 17.917ZM2.25 12.75V11.25C2.25 10.8358 2.58579 10.5 3 10.5C3.41421 10.5 3.75 10.8358 3.75 11.25V12.75C3.75 13.1642 3.41421 13.5 3 13.5C2.58579 13.5 2.25 13.1642 2.25 12.75ZM20.25 12.75V11.25C20.25 10.8358 20.5858 10.5 21 10.5C21.4142 10.5 21.75 10.8358 21.75 11.25V12.75C21.75 13.1642 21.4142 13.5 21 13.5C20.5858 13.5 20.25 13.1642 20.25 12.75Z" fill="black"/>
<path fill-rule="evenodd" clip-rule="evenodd" d="M12.5304 11.4697C12.2558 11.1951 11.8211 11.1777 11.5265 11.418L11.4698 11.4697L9.80383 13.1357C9.58936 13.3502 9.5247 13.6729 9.64075 13.9531C9.75683 14.2334 10.0308 14.416 10.3341 14.416H11.25V16.165C11.25 16.5792 11.5858 16.915 12 16.915C12.4142 16.915 12.75 16.5792 12.75 16.165V14.416H13.6661C13.9694 14.416 14.2424 14.2332 14.3585 13.9531C14.4746 13.6729 14.4109 13.3502 14.1964 13.1357L12.5304 11.4697Z" fill="black"/>
</svg>
