<svg width="24" height="24" viewBox="0 0 24 24" fill="none" xmlns="http://www.w3.org/2000/svg">
<path d="M19.4989 3.00342H4.49901C4.10119 3.00342 3.71966 3.16145 3.43836 3.44275C3.15706 3.72406 2.99902 4.10558 2.99902 4.50341V19.5033C2.99902 19.9011 3.15706 20.2826 3.43836 20.5639C3.71966 20.8452 4.10119 21.0033 4.49901 21.0033H19.4989C19.8967 21.0033 20.2782 20.8452 20.5595 20.5639C20.8409 20.2826 20.9989 19.9011 20.9989 19.5033V4.50341C20.9989 4.10558 20.8409 3.72406 20.5595 3.44275C20.2782 3.16145 19.8967 3.00342 19.4989 3.00342ZM7.12399 18.0033C6.90149 18.0033 6.68398 17.9373 6.49898 17.8137C6.31398 17.6901 6.16978 17.5144 6.08464 17.3088C5.99949 17.1033 5.97721 16.8771 6.02062 16.6588C6.06402 16.4406 6.17117 16.2402 6.3285 16.0828C6.48584 15.9255 6.68629 15.8183 6.90452 15.7749C7.12274 15.7315 7.34894 15.7538 7.55451 15.839C7.76007 15.9241 7.93577 16.0683 8.05939 16.2533C8.183 16.4383 8.24898 16.6558 8.24898 16.8783C8.24898 17.1767 8.13046 17.4628 7.91948 17.6738C7.7085 17.8848 7.42236 18.0033 7.12399 18.0033ZM11.249 18.0033C11.05 18.0033 10.8593 17.9243 10.7186 17.7836C10.578 17.643 10.499 17.4522 10.499 17.2533C10.499 16.7609 10.402 16.2732 10.2135 15.8183C10.0251 15.3633 9.74884 14.9499 9.40063 14.6017C9.05241 14.2535 8.63901 13.9772 8.18405 13.7888C7.72908 13.6003 7.24145 13.5033 6.74899 13.5033C6.55008 13.5033 6.35932 13.4243 6.21867 13.2837C6.07802 13.143 5.999 12.9523 5.999 12.7533C5.999 12.5544 6.07802 12.3637 6.21867 12.223C6.35932 12.0824 6.55008 12.0033 6.74899 12.0033C8.14091 12.0048 9.4754 12.5584 10.4596 13.5427C11.4439 14.5269 11.9975 15.8614 11.999 17.2533C11.999 17.4522 11.9199 17.643 11.7793 17.7836C11.6386 17.9243 11.4479 18.0033 11.249 18.0033ZM14.2489 18.0033C14.05 18.0033 13.8593 17.9243 13.7186 17.7836C13.578 17.643 13.4989 17.4522 13.4989 17.2533C13.497 15.4637 12.7852 13.748 11.5197 12.4826C10.2543 11.2171 8.53858 10.5053 6.74899 10.5034C6.55008 10.5034 6.35932 10.4243 6.21867 10.2837C6.07802 10.143 5.999 9.95228 5.999 9.75337C5.999 9.55446 6.07802 9.36369 6.21867 9.22304C6.35932 9.08239 6.55008 9.00337 6.74899 9.00337C8.93625 9.00585 11.0332 9.87584 12.5798 11.4225C14.1265 12.9691 14.9965 15.0661 14.9989 17.2533C14.9989 17.4522 14.9199 17.643 14.7793 17.7836C14.6386 17.9243 14.4478 18.0033 14.2489 18.0033ZM17.2489 18.0033C17.05 18.0033 16.8592 17.9243 16.7186 17.7836C16.5779 17.643 16.4989 17.4522 16.4989 17.2533C16.4962 14.6683 15.4681 12.19 13.6402 10.3621C11.8123 8.53421 9.334 7.50611 6.74899 7.50338C6.55008 7.50338 6.35932 7.42437 6.21867 7.28372C6.07802 7.14306 5.999 6.9523 5.999 6.75339C5.999 6.55448 6.07802 6.36371 6.21867 6.22306C6.35932 6.08241 6.55008 6.0034 6.74899 6.0034C9.73167 6.00662 12.5913 7.19291 14.7003 9.30198C16.8094 11.4111 17.9957 14.2706 17.9989 17.2533C17.9989 17.4522 17.9199 17.643 17.7792 17.7836C17.6386 17.9243 17.4478 18.0033 17.2489 18.0033Z" fill="black"/>
</svg>
