<svg xmlns="http://www.w3.org/2000/svg" width="24" height="24" fill="currentColor" viewBox="0 0 24 24"><path d="M20.1 2.28H3.9A1.62 1.62 0 0 0 2.28 3.9v16.2a1.62 1.62 0 0 0 1.62 1.62h16.2a1.62 1.62 0 0 0 1.62-1.62V3.9a1.62 1.62 0 0 0-1.62-1.62M6.736 18.48a1.216 1.216 0 1 1 1.215-1.214A1.216 1.216 0 0 1 6.736 18.48m4.454 0a0.81 0.81 0 0 1-0.81-0.81 4.05 4.05 0 0 0-4.05-4.05 0.81 0.81 0 0 1 0-1.62A5.676 5.676 0 0 1 12 17.67a0.81 0.81 0 0 1-0.81 0.81m3.24 0a0.81 0.81 0 0 1-0.81-0.81 7.296 7.296 0 0 0-7.29-7.29 0.81 0.81 0 0 1 0-1.62 8.92 8.92 0 0 1 8.91 8.91 0.81 0.81 0 0 1-0.81 0.81m3.24 0a0.81 0.81 0 0 1-0.81-0.81A10.541 10.541 0 0 0 6.33 7.14a0.81 0.81 0 0 1 0-1.62A12.163 12.163 0 0 1 18.48 17.67a0.81 0.81 0 0 1-0.81 0.81"/></svg>