<?xml version="1.0" encoding="utf-8"?>
<svg width="512" height="512" viewBox="0 0 512 512" fill="none" xmlns="http://www.w3.org/2000/svg">
<path d="M443.298 136.759L375.24 68.7022C372.102 65.5741 368.002 64 363.891 64C359.78 64 355.68 65.5741 352.551 68.7022L68.7022 352.551C62.4359 358.818 62.4359 368.974 68.7022 375.241L136.759 443.298C139.898 446.426 143.998 448 148.109 448C152.22 448 156.32 446.426 159.449 443.298L443.298 159.449C449.564 153.182 449.564 143.026 443.298 136.759ZM148.109 409.269L102.731 363.891L125.45 341.172L148.139 363.861L159.499 352.501L136.82 329.812L159.549 307.083L182.238 329.762L193.597 318.402L170.918 295.713L193.648 272.984L216.337 295.663L227.696 284.304L205.007 261.615L227.746 238.885L250.425 261.575L261.795 250.205L239.106 227.516L261.835 204.787L284.524 227.476L295.894 216.106L273.205 193.417L295.934 170.688L318.623 193.377L329.993 182.007L307.304 159.328L329.321 137.301L352.01 159.99L363.38 148.62L340.69 125.941L363.891 102.731L409.269 148.109L148.109 409.269Z" fill="black"/>
</svg>
