<?xml version="1.0" encoding="utf-8"?>
<svg xmlns="http://www.w3.org/2000/svg" width="512" height="512" viewBox="0 0 512 512">
<path d="M352.545 68.7002L318.002 103.243L340.693 125.934L329.323 137.305L306.631 114.614L284.612 136.633L307.303 159.324L295.943 170.685L273.251 147.994L250.52 170.725L273.211 193.416L261.841 204.787L239.15 182.096L216.418 204.827L239.109 227.518L227.749 238.879L205.058 216.188L182.326 238.919L205.018 261.61L193.647 272.981L170.956 250.29L148.225 273.021L170.916 295.712L159.555 307.073L136.864 284.382L114.133 307.113L136.824 329.804L125.453 341.175L102.762 318.483L68.7002 352.545C62.4333 358.812 62.4333 368.969 68.7002 375.236L136.764 443.3C143.031 449.567 153.188 449.567 159.455 443.3L443.3 159.455C449.567 153.188 449.567 143.031 443.3 136.764L375.236 68.7002C368.969 62.4333 358.812 62.4333 352.545 68.7002Z" fill="black"/>
</svg>
