<svg width="24" height="24" viewBox="0 0 24 24" fill="none" xmlns="http://www.w3.org/2000/svg">
<path fill-rule="evenodd" clip-rule="evenodd" d="M2 4.01184C2.0001 2.77466 3.49614 2.15483 4.37109 3.02942L20.9707 19.629C21.8453 20.504 21.2255 22 19.9883 22.0001H16.6387V20.8888C16.6386 20.4746 16.3028 20.1388 15.8887 20.1388C15.4746 20.1389 15.1387 20.4747 15.1387 20.8888V22.0001H12.1943V20.8888C12.1943 20.4746 11.8585 20.1388 11.4443 20.1388C11.0302 20.1389 10.6944 20.4747 10.6943 20.8888V22.0001H7.75391V20.8888C7.75383 20.4748 7.4179 20.139 7.00391 20.1388C6.58974 20.1388 6.25398 20.4746 6.25391 20.8888V22.0001H3.38867C2.62186 21.9999 2.00016 21.3783 2 20.6114V17.7501H3.11133C3.52538 17.75 3.86128 17.4142 3.86133 17.0001C3.86133 16.586 3.52541 16.2503 3.11133 16.2501H2V13.3058H3.11133C3.52533 13.3056 3.86122 12.9698 3.86133 12.5558C3.86133 12.1417 3.52539 11.806 3.11133 11.8058H2V8.86145H3.11133C3.52529 8.86127 3.86117 8.52541 3.86133 8.11145C3.86133 7.69734 3.52539 7.36162 3.11133 7.36145H2V4.01184ZM7.76465 11.9933C7.23347 11.6043 6.44434 11.975 6.44434 12.671V16.7228C6.44462 17.1826 6.81748 17.5555 7.27734 17.5558H11.3291C12.0715 17.5558 12.4438 16.6579 11.9189 16.1329L7.86719 12.0812L7.76465 11.9933Z" fill="black"/>
</svg>
