<svg width="24" height="24" viewBox="0 0 24 24" fill="none" xmlns="http://www.w3.org/2000/svg">
<path d="M20.5592 6.75291L17.2489 3.44262C17.1101 3.30273 16.9449 3.19182 16.7629 3.11634C16.5809 3.04085 16.3857 3.00231 16.1886 3.00294H4.49901C4.10119 3.00294 3.71966 3.16097 3.43836 3.44227C3.15706 3.72358 2.99902 4.1051 2.99902 4.50293V19.5028C2.99902 19.9006 3.15706 20.2822 3.43836 20.5635C3.71966 20.8448 4.10119 21.0028 4.49901 21.0028H19.4989C19.8967 21.0028 20.2782 20.8448 20.5595 20.5635C20.8409 20.2822 20.9989 19.9006 20.9989 19.5028V7.81321C20.9995 7.61616 20.961 7.42095 20.8855 7.23892C20.81 7.0569 20.6991 6.89169 20.5592 6.75291ZM19.4989 19.5028H17.2489V14.2529C17.2489 13.855 17.0909 13.4735 16.8096 13.1922C16.5283 12.9109 16.1467 12.7529 15.7489 12.7529H8.24898C7.85116 12.7529 7.46963 12.9109 7.18833 13.1922C6.90703 13.4735 6.74899 13.855 6.74899 14.2529V19.5028H4.49901V4.50293H16.1886L19.4989 7.81321V19.5028ZM14.9989 6.75291C14.9989 6.95182 14.9199 7.14258 14.7793 7.28323C14.6386 7.42389 14.4478 7.5029 14.2489 7.5029H8.99898C8.80007 7.5029 8.6093 7.42389 8.46865 7.28323C8.328 7.14258 8.24898 6.95182 8.24898 6.75291C8.24898 6.554 8.328 6.36323 8.46865 6.22258C8.6093 6.08193 8.80007 6.00291 8.99898 6.00291H14.2489C14.4478 6.00291 14.6386 6.08193 14.7793 6.22258C14.9199 6.36323 14.9989 6.554 14.9989 6.75291Z" fill="black"/>
</svg>
