<svg width="24" height="24" viewBox="0 0 24 24" fill="none" xmlns="http://www.w3.org/2000/svg">
<path d="M13.4989 11.2526V19.5026C13.4989 19.7015 13.4199 19.8922 13.2793 20.0329C13.1386 20.1735 12.9479 20.2526 12.749 20.2526H4.49902C4.30011 20.2526 4.10934 20.1735 3.96869 20.0329C3.82804 19.8922 3.74902 19.7015 3.74902 19.5026V11.2526C3.74902 11.0537 3.82804 10.863 3.96869 10.7223C4.10934 10.5817 4.30011 10.5026 4.49902 10.5026H12.749C12.9479 10.5026 13.1386 10.5817 13.2793 10.7223C13.4199 10.863 13.4989 11.0537 13.4989 11.2526ZM19.4989 16.5026C19.3 16.5026 19.1092 16.5816 18.9686 16.7223C18.8279 16.8629 18.7489 17.0537 18.7489 17.2526V18.7526H16.4989C16.3 18.7526 16.1093 18.8316 15.9686 18.9722C15.8279 19.1129 15.7489 19.3037 15.7489 19.5026C15.7489 19.7015 15.8279 19.8922 15.9686 20.0329C16.1093 20.1735 16.3 20.2526 16.4989 20.2526H18.7489C19.1467 20.2526 19.5283 20.0945 19.8096 19.8132C20.0909 19.5319 20.2489 19.1504 20.2489 18.7526V17.2526C20.2489 17.0537 20.1699 16.8629 20.0292 16.7223C19.8886 16.5816 19.6978 16.5026 19.4989 16.5026ZM19.4989 9.75264C19.3 9.75264 19.1092 9.83166 18.9686 9.97231C18.8279 10.113 18.7489 10.3037 18.7489 10.5026V13.5026C18.7489 13.7015 18.8279 13.8923 18.9686 14.0329C19.1092 14.1736 19.3 14.2526 19.4989 14.2526C19.6978 14.2526 19.8886 14.1736 20.0292 14.0329C20.1699 13.8923 20.2489 13.7015 20.2489 13.5026V10.5026C20.2489 10.3037 20.1699 10.113 20.0292 9.97231C19.8886 9.83166 19.6978 9.75264 19.4989 9.75264ZM18.7489 3.75269H17.2489C17.05 3.75269 16.8592 3.8317 16.7186 3.97235C16.5779 4.11301 16.4989 4.30377 16.4989 4.50268C16.4989 4.70159 16.5779 4.89235 16.7186 5.03301C16.8592 5.17366 17.05 5.25267 17.2489 5.25267H18.7489V6.75266C18.7489 6.95157 18.8279 7.14234 18.9686 7.28299C19.1092 7.42364 19.3 7.50266 19.4989 7.50266C19.6978 7.50266 19.8886 7.42364 20.0292 7.28299C20.1699 7.14234 20.2489 6.95157 20.2489 6.75266V5.25267C20.2489 4.85485 20.0909 4.47332 19.8096 4.19202C19.5283 3.91072 19.1467 3.75269 18.7489 3.75269ZM13.4989 3.75269H10.499C10.3001 3.75269 10.1093 3.8317 9.96865 3.97235C9.82799 4.11301 9.74898 4.30377 9.74898 4.50268C9.74898 4.70159 9.82799 4.89235 9.96865 5.03301C10.1093 5.17366 10.3001 5.25267 10.499 5.25267H13.4989C13.6979 5.25267 13.8886 5.17366 14.0293 5.03301C14.1699 4.89235 14.2489 4.70159 14.2489 4.50268C14.2489 4.30377 14.1699 4.11301 14.0293 3.97235C13.8886 3.8317 13.6979 3.75269 13.4989 3.75269ZM4.49902 8.25265C4.69793 8.25265 4.88869 8.17363 5.02934 8.03298C5.16999 7.89233 5.24901 7.70157 5.24901 7.50266V5.25267H6.749C6.94791 5.25267 7.13868 5.17366 7.27933 5.03301C7.41998 4.89235 7.49899 4.70159 7.49899 4.50268C7.49899 4.30377 7.41998 4.11301 7.27933 3.97235C7.13868 3.8317 6.94791 3.75269 6.749 3.75269H5.24901C4.85119 3.75269 4.46966 3.91072 4.18836 4.19202C3.90706 4.47332 3.74902 4.85485 3.74902 5.25267V7.50266C3.74902 7.70157 3.82804 7.89233 3.96869 8.03298C4.10934 8.17363 4.30011 8.25265 4.49902 8.25265Z" fill="black"/>
</svg>
