<svg width="24" height="24" viewBox="0 0 24 24" fill="none" xmlns="http://www.w3.org/2000/svg">
<path d="M20.6989 15.9038C20.569 15.8064 20.4112 15.7538 20.2489 15.7538H19.4989V6.00388C19.4989 5.20824 19.1828 4.44518 18.6202 3.88258C18.0576 3.31997 17.2945 3.00391 16.4989 3.00391H3.749C2.95336 3.00391 2.1903 3.31997 1.6277 3.88258C1.06509 4.44518 0.749023 5.20824 0.749023 6.00388C0.749023 7.27981 1.6912 8.02324 1.79902 8.10387C1.92848 8.20191 2.08661 8.25462 2.24901 8.25387C2.40532 8.25344 2.55759 8.20418 2.68454 8.11298C2.81149 8.02178 2.90677 7.8932 2.95707 7.7452C3.00736 7.5972 3.01016 7.43719 2.96507 7.28752C2.91998 7.13786 2.82925 7.00602 2.70557 6.91044C2.70182 6.90575 2.24901 6.542 2.24901 6.00388C2.24901 5.60606 2.40705 5.22453 2.68835 4.94323C2.96965 4.66193 3.35118 4.50389 3.749 4.50389C4.14682 4.50389 4.52835 4.66193 4.80965 4.94323C5.09096 5.22453 5.24899 5.60606 5.24899 6.00388V18.0038C5.24899 18.7994 5.56506 19.5625 6.12766 20.1251C6.69027 20.6877 7.45332 21.0038 8.24897 21.0038H18.7489C19.5445 21.0038 20.3076 20.6877 20.8702 20.1251C21.4328 19.5625 21.7489 18.7994 21.7489 18.0038C21.7489 16.7279 20.8114 15.9844 20.6989 15.9038ZM9.74895 9.00386H15.7489C15.9478 9.00386 16.1386 9.08288 16.2792 9.22353C16.4199 9.36418 16.4989 9.55494 16.4989 9.75385C16.4989 9.95277 16.4199 10.1435 16.2792 10.2842C16.1386 10.4248 15.9478 10.5038 15.7489 10.5038H9.74895C9.55004 10.5038 9.35928 10.4248 9.21863 10.2842C9.07798 10.1435 8.99896 9.95277 8.99896 9.75385C8.99896 9.55494 9.07798 9.36418 9.21863 9.22353C9.35928 9.08288 9.55004 9.00386 9.74895 9.00386ZM8.99896 12.7538C8.99896 12.5549 9.07798 12.3642 9.21863 12.2235C9.35928 12.0829 9.55004 12.0038 9.74895 12.0038H15.7489C15.9478 12.0038 16.1386 12.0829 16.2792 12.2235C16.4199 12.3642 16.4989 12.5549 16.4989 12.7538C16.4989 12.9527 16.4199 13.1435 16.2792 13.2842C16.1386 13.4248 15.9478 13.5038 15.7489 13.5038H9.74895C9.55004 13.5038 9.35928 13.4248 9.21863 13.2842C9.07798 13.1435 8.99896 12.9527 8.99896 12.7538ZM18.7489 19.5038H10.0968C10.3609 19.0481 10.4997 18.5305 10.4989 18.0038C10.4991 17.7495 10.4609 17.4967 10.3855 17.2538H19.9479C20.1341 17.4603 20.2414 17.7259 20.2507 18.0038C20.2507 18.2009 20.2119 18.3961 20.1364 18.5782C20.0609 18.7604 19.9502 18.9258 19.8108 19.0651C19.6713 19.2044 19.5057 19.3149 19.3235 19.3901C19.1413 19.4654 18.946 19.504 18.7489 19.5038Z" fill="black"/>
</svg>
