<svg width="24" height="24" viewBox="0 0 24 24" fill="none" xmlns="http://www.w3.org/2000/svg">
<path d="M15.7489 10.5026C15.7489 11.541 15.441 12.556 14.8642 13.4194C14.2873 14.2827 13.4674 14.9556 12.5081 15.353C11.5488 15.7503 10.4932 15.8543 9.47477 15.6517C8.45638 15.4492 7.52093 14.9491 6.78671 14.2149C6.05249 13.4807 5.55248 12.5452 5.34991 11.5269C5.14734 10.5085 5.2513 9.45287 5.64866 8.49357C6.04602 7.53426 6.71892 6.71433 7.58227 6.13746C8.44562 5.56058 9.46065 5.25268 10.499 5.25268C11.8914 5.25268 13.2267 5.8058 14.2113 6.79036C15.1958 7.77492 15.7489 9.11026 15.7489 10.5026ZM21.5295 21.5332C21.4599 21.6029 21.3772 21.6582 21.2861 21.696C21.1951 21.7337 21.0975 21.7531 20.9989 21.7531C20.9003 21.7531 20.8028 21.7337 20.7117 21.696C20.6207 21.6582 20.5379 21.6029 20.4683 21.5332L15.7752 16.8392C14.1431 18.1969 12.0504 18.8733 9.93243 18.7275C7.81441 18.5817 5.83413 17.625 4.40349 16.0564C2.97285 14.4878 2.20199 12.4281 2.25125 10.3056C2.3005 8.18315 3.16609 6.16139 4.66795 4.66085C6.16982 3.16031 8.19235 2.29651 10.3148 2.24913C12.4373 2.20175 14.4964 2.97443 16.0637 4.40646C17.6311 5.83848 18.586 7.81961 18.7299 9.93775C18.8738 12.0559 18.1957 14.148 16.8364 15.7788L21.5295 20.4719C21.5993 20.5416 21.6546 20.6243 21.6923 20.7154C21.7301 20.8064 21.7495 20.904 21.7495 21.0026C21.7495 21.1011 21.7301 21.1987 21.6923 21.2898C21.6546 21.3808 21.5993 21.4635 21.5295 21.5332ZM10.499 17.2526C11.834 17.2526 13.139 16.8567 14.2491 16.115C15.3591 15.3733 16.2242 14.3191 16.7351 13.0857C17.246 11.8523 17.3797 10.4952 17.1192 9.18579C16.8588 7.87643 16.2159 6.6737 15.2719 5.7297C14.3279 4.78571 13.1252 4.14284 11.8158 3.88239C10.5065 3.62194 9.14929 3.75561 7.9159 4.2665C6.6825 4.77739 5.62831 5.64255 4.88661 6.75257C4.14492 7.86259 3.74904 9.16763 3.74904 10.5026C3.75103 12.2922 4.46282 14.008 5.72825 15.2734C6.99368 16.5388 8.7094 17.2506 10.499 17.2526Z" fill="black"/>
</svg>
