<svg width="24" height="24" viewBox="0 0 24 24" fill="none" xmlns="http://www.w3.org/2000/svg">
<path d="M19.4989 7.5019H16.4989V5.25192C16.4989 4.05845 16.0248 2.91387 15.1809 2.06996C14.337 1.22606 13.1924 0.751953 11.999 0.751953C10.8055 0.751953 9.66091 1.22606 8.817 2.06996C7.97309 2.91387 7.49899 4.05845 7.49899 5.25192V7.5019H4.49901C4.10119 7.5019 3.71966 7.65994 3.43836 7.94124C3.15706 8.22254 2.99902 8.60407 2.99902 9.00189V19.5018C2.99902 19.8996 3.15706 20.2812 3.43836 20.5625C3.71966 20.8438 4.10119 21.0018 4.49901 21.0018H19.4989C19.8967 21.0018 20.2782 20.8438 20.5595 20.5625C20.8409 20.2812 20.9989 19.8996 20.9989 19.5018V9.00189C20.9989 8.60407 20.8409 8.22254 20.5595 7.94124C20.2782 7.65994 19.8967 7.5019 19.4989 7.5019ZM11.999 15.3768C11.7765 15.3768 11.5589 15.3109 11.3739 15.1872C11.1889 15.0636 11.0447 14.8879 10.9596 14.6824C10.8745 14.4768 10.8522 14.2506 10.8956 14.0324C10.939 13.8141 11.0461 13.6137 11.2035 13.4564C11.3608 13.299 11.5613 13.1919 11.7795 13.1485C11.9977 13.1051 12.2239 13.1273 12.4295 13.2125C12.635 13.2976 12.8107 13.4418 12.9344 13.6268C13.058 13.8118 13.1239 14.0293 13.1239 14.2519C13.1239 14.5502 13.0054 14.8364 12.7944 15.0473C12.5835 15.2583 12.2973 15.3768 11.999 15.3768ZM14.9989 7.5019H8.99898V5.25192C8.99898 4.45628 9.31505 3.69322 9.87765 3.13061C10.4403 2.56801 11.2033 2.25194 11.999 2.25194C12.7946 2.25194 13.5577 2.56801 14.1203 3.13061C14.6829 3.69322 14.9989 4.45628 14.9989 5.25192V7.5019Z" fill="black"/>
</svg>
