<svg xmlns="http://www.w3.org/2000/svg" width="24" height="24" fill="currentColor" viewBox="0 0 24 24"><path d="M20.1 3.09H3.9a1.62 1.62 0 0 0-1.62 1.62v5.67c0 5.338 2.584 8.573 4.752 10.346 2.335 1.909 4.657 2.557 4.759 2.585a0.84 0.84 0 0 0 0.425 0c0.101-0.028 2.42-0.676 4.759-2.585 2.161-1.774 4.746-5.009 4.746-10.346V4.71a1.62 1.62 0 0 0-1.62-1.62z m-3.475 7.054l-5.67 5.67a0.81 0.81 0 0 1-1.146 0l-2.43-2.43a0.81 0.81 0 0 1 1.146-1.146l1.855 1.857 5.096-5.097a0.81 0.81 0 0 1 1.146 1.146z"/></svg>