<svg viewBox="0 0 24 24" fill="none" xmlns="http://www.w3.org/2000/svg" width="24" height="24">
<path fill-rule="evenodd" clip-rule="evenodd" d="M21.591 16.025C22.038 16.025 22.4 16.388 22.4 16.835L22.403 21.684C22.403 22.134 22.209 22.552 21.888 22.85 21.569 23.147 21.148 23.304 20.721 23.304H3.274C2.847 23.304 2.426 23.147 2.107 22.85 1.786 22.552 1.593 22.134 1.593 21.684L1.586 16.841C1.585 16.391 1.95 16.025 2.4 16.025H21.591ZM9.381 20.037C8.934 20.037 8.571 20.399 8.571 20.847 8.571 21.294 8.934 21.656 9.381 21.656H14.614C15.062 21.656 15.424 21.294 15.424 20.847 15.424 20.399 15.062 20.037 14.614 20.037H9.381ZM9.381 17.576C8.934 17.576 8.571 17.938 8.571 18.386 8.571 18.833 8.934 19.195 9.381 19.195H14.614C15.062 19.195 15.424 18.833 15.424 18.386 15.424 17.938 15.062 17.576 14.614 17.576H9.381Z" fill="black"/>
<path fill-rule="evenodd" clip-rule="evenodd" d="M22.53 1.433C22.96 1.433 23.372 1.604 23.675 1.908 23.979 2.212 24.15 2.624 24.15 3.054V12.773C24.15 13.203 23.979 13.615 23.675 13.918 23.372 14.222 22.96 14.393 22.53 14.393H1.47C1.04 14.393 0.628 14.222 0.325 13.918 0.021 13.615-0.15 13.203-0.15 12.773V3.054C-0.15 2.624 0.021 2.212 0.325 1.908 0.628 1.604 1.04 1.433 1.47 1.433H22.53ZM15.47 6.145C15.274 6.146 15.096 6.264 15.021 6.445 14.946 6.627 14.988 6.836 15.127 6.975L17.719 9.567C17.908 9.757 18.216 9.757 18.405 9.567L20.998 6.975C21.137 6.836 21.178 6.627 21.103 6.445 21.028 6.264 20.851 6.145 20.654 6.145H15.47Z" fill="black"/>
</svg>