<svg viewBox="0 0 24 24" fill="none" xmlns="http://www.w3.org/2000/svg" width="24" height="24">
<path d="M0.6 18.655C0.931 18.655 1.2 18.924 1.2 19.255V22.364C1.2 22.479 1.246 22.591 1.328 22.672 1.409 22.754 1.52 22.8 1.636 22.8H4.745C5.076 22.8 5.345 23.069 5.345 23.4 5.345 23.731 5.076 24 4.745 24H1.636C1.202 24 0.786 23.827 0.479 23.521 0.173 23.214 0 22.798 0 22.364V19.255C0 18.924 0.269 18.655 0.6 18.655Z" fill="black"/>
<path d="M14.072 22.8C14.403 22.8 14.672 23.069 14.672 23.4 14.672 23.731 14.403 24 14.072 24H9.927C9.596 24 9.327 23.731 9.327 23.4 9.327 23.069 9.596 22.8 9.927 22.8H14.072Z" fill="black"/>
<path d="M23.4 18.655C23.731 18.655 24 18.924 24 19.255V22.364C24 22.798 23.827 23.214 23.521 23.521 23.214 23.827 22.798 24 22.364 24H19.255C18.924 24 18.655 23.731 18.655 23.4 18.655 23.069 18.924 22.8 19.255 22.8H22.364C22.48 22.8 22.591 22.754 22.672 22.672 22.754 22.591 22.8 22.48 22.8 22.364V19.255C22.8 18.924 23.069 18.655 23.4 18.655Z" fill="black"/>
<path d="M9.145 14.006C9.38 13.772 9.759 13.772 9.994 14.006 10.228 14.241 10.228 14.62 9.994 14.855L7.178 17.67 9.184 19.676C9.355 19.847 9.407 20.106 9.314 20.33 9.221 20.554 9.002 20.7 8.76 20.7H3.9C3.692 20.7 3.51 20.594 3.402 20.434 3.392 20.419 3.385 20.403 3.376 20.387 3.329 20.301 3.3 20.205 3.3 20.1V15.24C3.3 14.998 3.446 14.779 3.67 14.686 3.895 14.593 4.153 14.644 4.324 14.816L6.329 16.821 9.145 14.006Z" fill="black"/>
<path d="M14.006 14.006C14.241 13.772 14.62 13.772 14.855 14.006L17.67 16.821 19.676 14.816C19.847 14.644 20.106 14.593 20.33 14.686 20.554 14.779 20.7 14.998 20.7 15.24V20.1C20.7 20.431 20.431 20.7 20.1 20.7H15.24C14.998 20.7 14.779 20.554 14.686 20.33 14.593 20.106 14.644 19.847 14.816 19.676L16.821 17.67 14.006 14.855C13.772 14.62 13.772 14.241 14.006 14.006Z" fill="black"/>
<path d="M0.6 9.327C0.931 9.327 1.2 9.596 1.2 9.927V14.072C1.2 14.403 0.931 14.672 0.6 14.672 0.269 14.672 0 14.403 0 14.072V9.927C0 9.596 0.269 9.327 0.6 9.327Z" fill="black"/>
<path d="M23.4 9.327C23.731 9.327 24 9.596 24 9.927V14.072C24 14.403 23.731 14.672 23.4 14.672 23.069 14.672 22.8 14.403 22.8 14.072V9.927C22.8 9.596 23.069 9.327 23.4 9.327Z" fill="black"/>
<path d="M8.76 3.3C9.002 3.3 9.221 3.446 9.314 3.67 9.407 3.895 9.356 4.153 9.184 4.324L7.178 6.329 9.994 9.145C10.228 9.38 10.228 9.759 9.994 9.994 9.759 10.228 9.38 10.228 9.145 9.994L6.329 7.178 4.324 9.184C4.153 9.356 3.895 9.407 3.67 9.314 3.446 9.221 3.3 9.002 3.3 8.76V3.9C3.3 3.86 3.303 3.821 3.311 3.782 3.324 3.713 3.353 3.649 3.388 3.591 3.412 3.55 3.441 3.511 3.476 3.476 3.517 3.435 3.563 3.403 3.611 3.376 3.664 3.347 3.72 3.323 3.782 3.311 3.821 3.303 3.86 3.3 3.9 3.3H8.76Z" fill="black"/>
<path d="M20.1 3.3C20.205 3.3 20.301 3.329 20.387 3.376 20.403 3.385 20.419 3.392 20.434 3.402 20.594 3.51 20.7 3.692 20.7 3.9V8.76C20.7 9.002 20.554 9.221 20.33 9.314 20.106 9.407 19.847 9.355 19.676 9.184L17.67 7.178 14.855 9.994C14.62 10.228 14.241 10.228 14.006 9.994 13.772 9.759 13.772 9.38 14.006 9.145L16.821 6.329 14.816 4.324C14.644 4.153 14.593 3.895 14.686 3.67 14.779 3.446 14.998 3.3 15.24 3.3H20.1Z" fill="black"/>
<path d="M4.745 0C5.076 0 5.345 0.269 5.345 0.6 5.345 0.931 5.076 1.2 4.745 1.2H1.636C1.52 1.2 1.409 1.246 1.328 1.328 1.246 1.409 1.2 1.52 1.2 1.636V4.745C1.2 5.076 0.931 5.345 0.6 5.345 0.269 5.345 0 5.076 0 4.745V1.636C0 1.202 0.173 0.786 0.479 0.479 0.786 0.173 1.202 0 1.636 0H4.745Z" fill="black"/>
<path d="M22.364 0C22.798 0 23.214 0.173 23.521 0.479 23.827 0.786 24 1.202 24 1.636V4.745C24 5.076 23.731 5.345 23.4 5.345 23.069 5.345 22.8 5.076 22.8 4.745V1.636C22.8 1.52 22.754 1.409 22.672 1.328 22.591 1.246 22.479 1.2 22.364 1.2H19.255C18.924 1.2 18.655 0.931 18.655 0.6 18.655 0.269 18.924 0 19.255 0H22.364Z" fill="black"/>
<path d="M14.072 0C14.403 0 14.672 0.269 14.672 0.6 14.672 0.931 14.403 1.2 14.072 1.2H9.927C9.596 1.2 9.327 0.931 9.327 0.6 9.327 0.269 9.596 0 9.927 0H14.072Z" fill="black"/>
</svg>