<svg viewBox="0 0 24 24" fill="none" xmlns="http://www.w3.org/2000/svg" width="24" height="24">
<path d="M11.397 20.1H4.8C4.303 20.1 3.9 19.702 3.9 19.205 3.9 16.393 3.902 7.745 3.901 4.794 3.9 4.296 4.304 3.9 4.801 3.9H11.397V20.1ZM20.1 19.2C20.1 19.697 19.697 20.1 19.2 20.1H12.603V17.825H20.1C20.1 17.993 20.1 18.639 20.1 19.2ZM20.1 16.618H12.603V14.344H20.1V16.618ZM20.1 13.137H12.603V10.863H20.1V13.137ZM20.1 9.656H12.603V7.382H20.1V9.656ZM19.2 3.9C19.697 3.9 20.1 4.303 20.1 4.8 20.1 5.361 20.1 6.007 20.1 6.175H12.603V3.9H19.2Z" fill="black"/>
</svg>