<svg width="24" height="24" viewBox="0 0 24 24" fill="none" xmlns="http://www.w3.org/2000/svg">
<path fill-rule="evenodd" clip-rule="evenodd" d="M4.5 21C4.10217 21 3.72076 20.8419 3.43945 20.5605C3.15815 20.2792 3 19.8978 3 19.5V4.5C3 4.10217 3.15815 3.72076 3.43945 3.43945C3.72076 3.15815 4.10217 3 4.5 3H19.5C19.8978 3 20.2792 3.15815 20.5605 3.43945C20.8419 3.72076 21 4.10217 21 4.5V19.5C21 19.8978 20.8419 20.2792 20.5605 20.5605C20.2792 20.8419 19.8978 21 19.5 21H4.5ZM5.28223 18.7178C5.575 19.0104 6.04988 19.0102 6.34277 18.7178L18.7178 6.34277C19.0104 6.04989 19.0105 5.57505 18.7178 5.28223C18.425 4.98941 17.9501 4.98957 17.6572 5.28223L5.28223 17.6562C4.98933 17.9491 4.98933 18.4249 5.28223 18.7178Z" fill="black"/>
</svg>
