<svg width="24" height="24" viewBox="0 0 24 24" fill="none" xmlns="http://www.w3.org/2000/svg">
<path d="M19.874 18.7513C19.874 19.2439 19.7663 19.7305 19.5582 20.177C19.3502 20.6235 19.0469 21.0191 18.6697 21.3359C18.2926 21.6528 17.8506 21.8832 17.3749 22.011C16.8991 22.1389 16.4012 22.161 15.916 22.0759C15.4308 21.9908 14.9701 21.8006 14.5663 21.5185C14.1624 21.2364 13.8253 20.8693 13.5784 20.443C13.3315 20.0168 13.181 19.5416 13.1373 19.0509C13.0936 18.5603 13.1579 18.066 13.3256 17.6028L8.35686 14.4107C7.88231 14.8762 7.28087 15.1911 6.62799 15.3161C5.9751 15.4411 5.29985 15.3705 4.68695 15.1131C4.07404 14.8558 3.55078 14.4232 3.18281 13.8696C2.81483 13.316 2.61853 12.666 2.61853 12.0013C2.61853 11.3366 2.81483 10.6866 3.18281 10.133C3.55078 9.57945 4.07404 9.14684 4.68695 8.8895C5.29985 8.63216 5.9751 8.56154 6.62799 8.68651C7.28087 8.81148 7.88231 9.12647 8.35686 9.59195L13.3256 6.40448C13.0411 5.62265 13.0546 4.7634 13.3636 3.99092C13.6725 3.21843 14.2553 2.58687 15.0005 2.21691C15.7457 1.84696 16.6011 1.76455 17.4032 1.98543C18.2054 2.20632 18.898 2.71501 19.3488 3.4143C19.7995 4.11359 19.9769 4.95446 19.8468 5.77622C19.7168 6.59798 19.2885 7.34303 18.6439 7.86899C17.9992 8.39495 17.1834 8.66495 16.3523 8.62739C15.5211 8.58984 14.733 8.24736 14.1384 7.66541L9.16967 10.8576C9.4382 11.5996 9.4382 12.4124 9.16967 13.1544L14.1384 16.3466C14.6128 15.8823 15.2135 15.5682 15.8655 15.4436C16.5175 15.319 17.1918 15.3895 17.8039 15.6461C18.4161 15.9028 18.939 16.3343 19.3072 16.8866C19.6754 17.4389 19.8725 18.0875 19.874 18.7513Z" fill="black"/>
</svg>
