<svg width="24" height="24" viewBox="0 0 24 24" fill="none" xmlns="http://www.w3.org/2000/svg">
<path d="M20.2489 3.74683H3.74901C3.35119 3.74683 2.96966 3.90486 2.68836 4.18616C2.40706 4.46746 2.24902 4.84899 2.24902 5.24681V18.7467C2.24902 19.1445 2.40706 19.5261 2.68836 19.8074C2.96966 20.0887 3.35119 20.2467 3.74901 20.2467H20.2489C20.6467 20.2467 21.0282 20.0887 21.3095 19.8074C21.5908 19.5261 21.7489 19.1445 21.7489 18.7467V5.24681C21.7489 4.84899 21.5908 4.46746 21.3095 4.18616C21.0282 3.90486 20.6467 3.74683 20.2489 3.74683ZM11.9989 14.9967C10.8059 14.9955 9.662 14.521 8.81836 13.6774C7.97472 12.8337 7.50022 11.6899 7.49898 10.4968C7.49898 10.2979 7.578 10.1071 7.71865 9.96645C7.8593 9.8258 8.05007 9.74678 8.24898 9.74678C8.44789 9.74678 8.63865 9.8258 8.7793 9.96645C8.91995 10.1071 8.99897 10.2979 8.99897 10.4968C8.99897 11.2924 9.31504 12.0555 9.87764 12.6181C10.4402 13.1807 11.2033 13.4968 11.9989 13.4968C12.7946 13.4968 13.5576 13.1807 14.1203 12.6181C14.6829 12.0555 14.9989 11.2924 14.9989 10.4968C14.9989 10.2979 15.0779 10.1071 15.2186 9.96645C15.3592 9.8258 15.55 9.74678 15.7489 9.74678C15.9478 9.74678 16.1386 9.8258 16.2792 9.96645C16.4199 10.1071 16.4989 10.2979 16.4989 10.4968C16.4977 11.6899 16.0232 12.8337 15.1795 13.6774C14.3359 14.521 13.192 14.9955 11.9989 14.9967ZM3.74901 6.7468V5.24681H20.2489V6.7468H3.74901Z" fill="black"/>
</svg>
