<svg xmlns="http://www.w3.org/2000/svg" width="24" height="24" fill="currentColor" viewBox="0 0 24 24"><path d="M7.17 11.216a5.88 5.88 0 0 1 0.071-2.348c0.235-1.02 0.697-1.728 1.124-1.728 0.26 0 0.298 0.068 0.316 0.101 0.089 0.163 0.406 1.106-1.279 4.71a2.88 2.88 0 0 1-0.232-0.736z m15.36-6.506v14.58a1.62 1.62 0 0 1-1.62 1.62H3.09a1.62 1.62 0 0 1-1.62-1.62V4.71a1.62 1.62 0 0 1 1.62-1.62h17.82a1.62 1.62 0 0 1 1.62 1.62M7.544 15.24c0.203-0.364 0.398-0.742 0.598-1.128 1.046-0.032 2.249-0.767 3.592-2.195 0.506 0.982 1.152 1.544 1.91 1.675q1.217 0.206 2.424-1.134c0.607 0.56 1.636 1.162 3.22 1.162a0.81 0.81 0 0 0 0-1.62c-1.813 0-2.46-1.102-2.516-1.201a0.792 0.792 0 0 0-0.662-0.457 0.816 0.816 0 0 0-0.734 0.364c-0.686 1.013-1.202 1.332-1.457 1.289-0.406-0.07-0.926-1.013-1.138-1.823a0.81 0.81 0 0 0-1.417-0.303c-0.899 1.108-1.65 1.801-2.24 2.193 1.6-3.61 1.344-4.92 0.972-5.599-0.187-0.353-0.67-0.943-1.732-0.943-1.26 0-2.27 1.114-2.702 2.983a7.56 7.56 0 0 0-0.084 3.018c0.172 0.901 0.523 1.592 1.028 2.038-0.304 0.588-0.617 1.157-0.911 1.681h-0.986a0.81 0.81 0 0 0 0 1.62h0.044c-0.431 0.721-0.72 1.174-0.727 1.183a0.81 0.81 0 0 0 1.364 0.873c0.036-0.055 0.554-0.868 1.245-2.057h12.653a0.81 0.81 0 0 0 0-1.62z"/></svg>