<?xml version="1.0" encoding="utf-8"?>
<svg xmlns="http://www.w3.org/2000/svg" width="512" height="512" viewBox="0 0 512 512">
<path d="M480 96v32H285.3c-6.6 18.6-24.4 32-45.3 32s-38.7-13.4-45.3-32H32V96h162.7c6.6-18.6 24.4-32 45.3-32s38.7 13.4 45.3 32H480zm-112 96c-20.9 0-38.7 13.4-45.3 32H32v32h290.7c6.6 18.6 24.4 32 45.3 32s38.7-13.4 45.3-32H480v-32h-66.7c-6.6-18.6-24.4-32-45.3-32zM176 320c-20.9 0-38.7 13.4-45.3 32H32v32h98.7c6.6 18.6 24.4 32 45.3 32s38.7-13.4 45.3-32H480v-32H221.3c-6.6-18.6-24.4-32-45.3-32z"/>
</svg>
