<svg width="24" height="24" viewBox="0 0 24 24" fill="none" xmlns="http://www.w3.org/2000/svg">
<path d="M2.99902 7.49641C2.99902 7.2975 3.07804 7.10673 3.21869 6.96608C3.35934 6.82543 3.55011 6.74642 3.74902 6.74642H7.23368C7.39534 6.2049 7.72744 5.73001 8.18062 5.39235C8.63379 5.0547 9.18384 4.87231 9.74897 4.87231C10.3141 4.87231 10.8642 5.0547 11.3173 5.39235C11.7705 5.73001 12.1026 6.2049 12.2643 6.74642H20.2489C20.4478 6.74642 20.6386 6.82543 20.7792 6.96608C20.9199 7.10673 20.9989 7.2975 20.9989 7.49641C20.9989 7.69532 20.9199 7.88608 20.7792 8.02674C20.6386 8.16739 20.4478 8.2464 20.2489 8.2464H12.2643C12.1026 8.78792 11.7705 9.26281 11.3173 9.60047C10.8642 9.93812 10.3141 10.1205 9.74897 10.1205C9.18384 10.1205 8.63379 9.93812 8.18062 9.60047C7.72744 9.26281 7.39534 8.78792 7.23368 8.2464H3.74902C3.55011 8.2464 3.35934 8.16739 3.21869 8.02674C3.07804 7.88608 2.99902 7.69532 2.99902 7.49641ZM20.2489 15.7463H18.2642C18.1026 15.2048 17.7705 14.7299 17.3173 14.3923C16.8641 14.0546 16.3141 13.8722 15.7489 13.8722C15.1838 13.8722 14.6337 14.0546 14.1806 14.3923C13.7274 14.7299 13.3953 15.2048 13.2336 15.7463H3.74902C3.55011 15.7463 3.35934 15.8254 3.21869 15.966C3.07804 16.1067 2.99902 16.2974 2.99902 16.4963C2.99902 16.6953 3.07804 16.886 3.21869 17.0267C3.35934 17.1673 3.55011 17.2463 3.74902 17.2463H13.2336C13.3953 17.7879 13.7274 18.2627 14.1806 18.6004C14.6337 18.9381 15.1838 19.1204 15.7489 19.1204C16.3141 19.1204 16.8641 18.9381 17.3173 18.6004C17.7705 18.2627 18.1026 17.7879 18.2642 17.2463H20.2489C20.4478 17.2463 20.6386 17.1673 20.7792 17.0267C20.9199 16.886 20.9989 16.6953 20.9989 16.4963C20.9989 16.2974 20.9199 16.1067 20.7792 15.966C20.6386 15.8254 20.4478 15.7463 20.2489 15.7463Z" fill="black"/>
</svg>
