<svg width="24" height="24" viewBox="0 0 24 24" fill="none" xmlns="http://www.w3.org/2000/svg">
<path fill-rule="evenodd" clip-rule="evenodd" d="M13.7744 4.0679C14.2569 3.58341 14.961 3.39033 15.623 3.56106L16.4238 3.76712C16.4303 3.76871 16.4369 3.76937 16.4434 3.77102L18.7979 4.37845C19.6493 4.59794 20.245 5.36537 20.2451 6.24466V18.5728C20.2451 19.14 19.9961 19.659 19.5918 20.0161C19.4851 20.148 19.3467 20.2586 19.1758 20.3296L19.0186 20.3814L18.8438 20.4253C18.8278 20.4299 18.812 20.4358 18.7959 20.44L16.4404 21.0435C16.3901 21.0564 16.3392 21.064 16.2891 21.0728L15.6367 21.2388C14.9778 21.4058 14.2783 21.2129 13.7979 20.732L8.16016 15.0874L5.3457 17.2837C5.00014 17.5533 4.57952 17.6664 4.1709 17.6324V17.6441H2.99609C2.58214 17.644 2.24635 17.308 2.24609 16.8941V8.25638C2.24615 7.90816 2.48618 7.6054 2.8252 7.52591L3.78418 7.3013C3.78928 7.3001 3.7947 7.29945 3.7998 7.29837C4.28898 7.15426 4.83482 7.23959 5.26367 7.56985L8.10547 9.75931L13.7744 4.0679ZM16.0547 5.22122C15.7891 5.16196 15.5345 5.36272 15.5342 5.63723V19.1763C15.5342 19.1868 15.5364 19.1972 15.5371 19.2075C15.5365 19.1985 15.5352 19.1894 15.5352 19.1802V5.64114C15.5354 5.37326 15.7776 5.17372 16.0361 5.21927L16.3154 5.29153L18.4248 5.8345C18.5898 5.87723 18.7113 6.01258 18.7393 6.1763C18.7124 6.01087 18.5903 5.8735 18.4238 5.83059L16.3145 5.28665V5.2886L16.0547 5.22122ZM4.34863 8.75833C4.29332 8.71573 4.21431 8.72059 4.16504 8.77005C4.13754 8.79768 4.12447 8.83445 4.125 8.87063C4.1254 8.83566 4.13944 8.80066 4.16602 8.77395C4.21526 8.72468 4.29339 8.71977 4.34863 8.76223L14.0342 16.2232V16.2202L4.34863 8.75833ZM4.18066 15.8277C4.14488 15.8637 4.1277 15.9113 4.12793 15.9585C4.12855 15.9123 4.14654 15.8658 4.18164 15.8306L6.53613 13.4654L7.08887 14.0181H7.09082L6.53613 13.4615L4.18066 15.8277ZM11.5684 12.4273L14.0342 14.3277V10.5034L11.5684 12.4273ZM3.74609 14.1382L5.47559 12.4009L3.74609 10.6685V14.1382ZM9.30371 10.6822L9.30664 10.6841L14.0342 5.93704V5.93216L9.30371 10.6822Z" fill="black"/>
</svg>
