<svg width="24" height="24" viewBox="0 0 24 24" fill="none" xmlns="http://www.w3.org/2000/svg">
<path d="M20.2489 4.50122H3.74904C3.35122 4.50122 2.96969 4.65925 2.68839 4.94056C2.40708 5.22186 2.24905 5.60339 2.24905 6.00121V21.0011C2.24732 21.2871 2.32824 21.5676 2.48207 21.8087C2.63591 22.0499 2.85612 22.2415 3.11623 22.3605C3.31444 22.4528 3.53039 22.5007 3.74904 22.5011C4.10116 22.5002 4.44161 22.3747 4.70997 22.1467L4.71841 22.1401L7.78026 19.5011H20.2489C20.6467 19.5011 21.0283 19.3431 21.3096 19.0618C21.5909 18.7805 21.7489 18.3989 21.7489 18.0011V6.00121C21.7489 5.60339 21.5909 5.22186 21.3096 4.94056C21.0283 4.65925 20.6467 4.50122 20.2489 4.50122ZM14.999 14.2511H8.999C8.80009 14.2511 8.60932 14.1721 8.46867 14.0315C8.32802 13.8908 8.249 13.7001 8.249 13.5012C8.249 13.3022 8.32802 13.1115 8.46867 12.9708C8.60932 12.8302 8.80009 12.7512 8.999 12.7512H14.999C15.1979 12.7512 15.3886 12.8302 15.5293 12.9708C15.6699 13.1115 15.7489 13.3022 15.7489 13.5012C15.7489 13.7001 15.6699 13.8908 15.5293 14.0315C15.3886 14.1721 15.1979 14.2511 14.999 14.2511ZM14.999 11.2512H8.999C8.80009 11.2512 8.60932 11.1722 8.46867 11.0315C8.32802 10.8908 8.249 10.7001 8.249 10.5012C8.249 10.3023 8.32802 10.1115 8.46867 9.97085C8.60932 9.8302 8.80009 9.75118 8.999 9.75118H14.999C15.1979 9.75118 15.3886 9.8302 15.5293 9.97085C15.6699 10.1115 15.7489 10.3023 15.7489 10.5012C15.7489 10.7001 15.6699 10.8908 15.5293 11.0315C15.3886 11.1722 15.1979 11.2512 14.999 11.2512Z" fill="black"/>
</svg>
