<svg width="24" height="24" viewBox="0 0 24 24" fill="none" xmlns="http://www.w3.org/2000/svg">
<path d="M11.25 12.75V17.25H6.75V12.75H11.25Z" fill="black"/>
<path d="M17.25 12.75V17.25H12.75V12.75H17.25Z" fill="black"/>
<path d="M11.25 6.75V11.25H6.75V6.75H11.25Z" fill="black"/>
<path d="M17.25 6.75V11.25H12.75V6.75H17.25Z" fill="black"/>
<path fill-rule="evenodd" clip-rule="evenodd" d="M19.5 3C19.8978 3 20.2792 3.15815 20.5605 3.43945C20.8419 3.72076 21 4.10218 21 4.5V19.5C21 19.8978 20.8419 20.2792 20.5605 20.5605C20.2792 20.8419 19.8978 21 19.5 21H4.5C4.10218 21 3.72076 20.8419 3.43945 20.5605C3.15815 20.2792 3 19.8978 3 19.5V4.5C3 4.10218 3.15815 3.72076 3.43945 3.43945C3.72076 3.15815 4.10218 3 4.5 3H19.5ZM18 4.25C17.5858 4.25 17.25 4.58579 17.25 5V5.25H12.75V5C12.75 4.58579 12.4142 4.25 12 4.25C11.5858 4.25 11.25 4.58579 11.25 5V5.25H6.75V5C6.75 4.58579 6.41421 4.25 6 4.25C5.58579 4.25 5.25 4.58579 5.25 5V5.25H5C4.58579 5.25 4.25 5.58579 4.25 6C4.25 6.41421 4.58579 6.75 5 6.75H5.25V11.25H5C4.58579 11.25 4.25 11.5858 4.25 12C4.25 12.4142 4.58579 12.75 5 12.75H5.25V17.25H5C4.58579 17.25 4.25 17.5858 4.25 18C4.25 18.4142 4.58579 18.75 5 18.75H5.25V19C5.25 19.4142 5.58579 19.75 6 19.75C6.41421 19.75 6.75 19.4142 6.75 19V18.75H11.25V19C11.25 19.4142 11.5858 19.75 12 19.75C12.4142 19.75 12.75 19.4142 12.75 19V18.75H17.25V19C17.25 19.4142 17.5858 19.75 18 19.75C18.4142 19.75 18.75 19.4142 18.75 19V18.75H19C19.4142 18.75 19.75 18.4142 19.75 18C19.75 17.5858 19.4142 17.25 19 17.25H18.75V12.75H19C19.4142 12.75 19.75 12.4142 19.75 12C19.75 11.5858 19.4142 11.25 19 11.25H18.75V6.75H19C19.4142 6.75 19.75 6.41421 19.75 6C19.75 5.58579 19.4142 5.25 19 5.25H18.75V5C18.75 4.58579 18.4142 4.25 18 4.25Z" fill="black"/>
</svg>
