<svg viewBox="0 0 24 24" fill="none" xmlns="http://www.w3.org/2000/svg" width="24" height="24">
<path d="M20.91 4.686C21.357 4.686 21.721 5.049 21.721 5.496 21.721 5.943 21.357 6.306 20.91 6.306H3.09C2.643 6.306 2.28 5.943 2.28 5.496 2.28 5.049 2.643 4.686 3.09 4.686H20.91Z" fill="black"/>
<path d="M20.91 17.694C21.357 17.694 21.721 18.057 21.721 18.504 21.721 18.951 21.357 19.314 20.91 19.314H3.09C2.643 19.314 2.28 18.951 2.28 18.504 2.28 18.057 2.643 17.694 3.09 17.694H20.91Z" fill="black"/>
<path d="M19.314 20.91C19.314 21.357 18.951 21.721 18.504 21.721 18.057 21.721 17.694 21.357 17.694 20.91L17.694 3.09C17.694 2.643 18.057 2.28 18.504 2.28 18.951 2.28 19.314 2.643 19.314 3.09L19.314 20.91Z" fill="black"/>
<path d="M6.306 20.91C6.306 21.357 5.943 21.721 5.496 21.721 5.049 21.721 4.686 21.357 4.686 20.91L4.686 3.09C4.686 2.643 5.049 2.28 5.496 2.28 5.943 2.28 6.306 2.643 6.306 3.09L6.306 20.91Z" fill="black"/>
<path d="M12.81 20.91C12.81 21.357 12.447 21.721 12 21.721 11.553 21.721 11.19 21.357 11.19 20.91L11.19 3.09C11.19 2.643 11.553 2.28 12 2.28 12.447 2.28 12.81 2.643 12.81 3.09L12.81 20.91Z" fill="black"/>
<path d="M3.09 12.81C2.643 12.81 2.279 12.447 2.279 12 2.279 11.553 2.643 11.19 3.09 11.19L20.91 11.19C21.357 11.19 21.72 11.553 21.72 12 21.72 12.447 21.357 12.81 20.91 12.81L3.09 12.81Z" fill="black"/>
</svg>