<svg viewBox="0 0 24 24" fill="none" xmlns="http://www.w3.org/2000/svg" width="24" height="24">
<path fill-rule="evenodd" clip-rule="evenodd" d="M21.72 3.9C21.72 3.681 21.666 3.471 21.582 3.273 21.575 3.255 21.567 3.238 21.558 3.22L21.553 3.209C21.546 3.193 21.538 3.178 21.53 3.162 21.454 3.015 21.365 2.874 21.246 2.755 20.942 2.451 20.53 2.28 20.1 2.28H5.182L8.864 6.33H16.05C16.265 6.33 16.471 6.416 16.623 6.568 16.775 6.72 16.86 6.926 16.86 7.14 16.86 7.355 16.775 7.561 16.623 7.713 16.471 7.865 16.265 7.95 16.05 7.95H10.337L15.24 13.344V11.19C15.24 11.148 15.243 11.105 15.25 11.063 15.277 10.895 15.356 10.739 15.477 10.618 15.617 10.478 15.803 10.394 15.999 10.382L16.042 10.343V10.38C16.257 10.38 16.471 10.466 16.623 10.618 16.775 10.77 16.86 10.976 16.86 11.19V15.126L17.141 15.434 17.907 14.667C18.059 14.515 18.265 14.43 18.48 14.43 18.695 14.43 18.901 14.515 19.053 14.667 19.205 14.819 19.29 15.026 19.29 15.24 19.29 15.455 19.205 15.662 19.053 15.814L18.232 16.635 21.277 19.984 21.686 20.433C21.708 20.324 21.72 20.213 21.72 20.1L21.712 5.191 21.72 3.9Z" fill="black"/>
<path fill-rule="evenodd" clip-rule="evenodd" d="M3.152 2.463L3.879 3.255 6.67 6.331 19.784 20.746 19.797 20.76 19.832 20.8 19.86 20.833 19.916 20.9 20.079 21.074C20.128 21.128 20.336 21.327 20.652 21.623 20.613 21.638 20.573 21.651 20.533 21.662 20.489 21.674 20.443 21.685 20.398 21.693 20.354 21.702 20.31 21.708 20.265 21.713 20.252 21.714 20.239 21.715 20.226 21.716 20.203 21.718 20.18 21.719 20.157 21.72 20.138 21.721 20.119 21.721 20.1 21.721H3.9C3.785 21.721 3.672 21.709 3.562 21.685 3.258 21.621 2.977 21.469 2.754 21.246 2.451 20.943 2.28 20.531 2.28 20.101L2.28 3.895C2.282 3.467 2.452 3.058 2.754 2.755 2.872 2.637 3.007 2.539 3.152 2.463ZM5.52 12C5.52 11.94 5.527 11.88 5.54 11.822 5.573 11.674 5.648 11.537 5.757 11.428 5.909 11.276 6.115 11.191 6.33 11.191L8.909 11.19 10.381 12.811H6.33C6.115 12.811 5.909 12.726 5.757 12.574 5.605 12.422 5.52 12.215 5.52 12ZM5.525 16.767C5.523 16.785 5.522 16.803 5.521 16.821 5.52 16.834 5.52 16.848 5.52 16.861 5.52 17.076 5.605 17.282 5.757 17.434 5.909 17.586 6.115 17.671 6.33 17.671H10.38C10.595 17.671 10.801 17.586 10.953 17.434 11.062 17.324 11.138 17.186 11.171 17.037 11.183 16.979 11.19 16.92 11.19 16.861 11.19 16.646 11.105 16.44 10.953 16.288 10.801 16.136 10.595 16.051 10.38 16.051H6.33C6.115 16.051 5.909 16.136 5.757 16.288 5.648 16.397 5.573 16.534 5.54 16.682 5.535 16.706 5.53 16.729 5.527 16.753L5.525 16.767Z" fill="black"/>
</svg>