<svg width="24" height="24" viewBox="0 0 24 24" fill="none" xmlns="http://www.w3.org/2000/svg">
<path d="M11.1534 2.65718C11.5815 2.11464 12.3981 2.11455 12.8262 2.65718L12.9121 2.78121L16.9629 9.59273C17.3168 10.189 17.2947 10.8785 17.0274 11.414C16.9196 11.6299 16.765 11.8287 16.5733 11.9912C16.7754 12.1569 16.9369 12.3637 17.0489 12.5878C17.3162 13.1234 17.3383 13.8119 16.9844 14.4082L12.9336 21.2187C12.5387 21.883 11.6335 21.924 11.1748 21.3427L11.0889 21.2187L7.03812 14.4091C6.68275 13.8125 6.70502 13.1236 6.97269 12.5878C7.08071 12.3717 7.23561 12.1723 7.42777 12.0097C7.22559 11.8441 7.06321 11.6381 6.95121 11.414C6.68349 10.8783 6.66131 10.1894 7.01664 9.59273L11.0674 2.78121L11.1534 2.65718ZM8.51566 13.1093C8.45222 13.1093 8.37253 13.1419 8.31449 13.2578C8.25559 13.3756 8.2549 13.5203 8.32718 13.6416L12.0108 19.8349L15.6944 13.6425C15.7666 13.5208 15.766 13.3759 15.7071 13.2578C15.6491 13.1416 15.5701 13.1093 15.5069 13.1093H8.51566ZM8.3057 10.3593C8.23348 10.4805 8.23427 10.6253 8.293 10.7431C8.35106 10.8593 8.43067 10.8925 8.49417 10.8925H15.4854C15.5486 10.8925 15.6276 10.8601 15.6856 10.7441C15.7445 10.626 15.7451 10.4811 15.6729 10.3593L11.9893 4.165L8.3057 10.3593Z" fill="black"/>
<path fill-rule="evenodd" clip-rule="evenodd" d="M8.293 10.7431C8.23427 10.6253 8.23348 10.4805 8.3057 10.3593L11.9893 4.165L15.6729 10.3593C15.7451 10.4811 15.7445 10.626 15.6856 10.7441C15.6276 10.8601 15.5486 10.8925 15.4854 10.8925H8.49417C8.43067 10.8925 8.35106 10.8593 8.293 10.7431Z" fill="black"/>
</svg>
