<svg width="24" height="24" viewBox="0 0 24 24" fill="none" xmlns="http://www.w3.org/2000/svg">
<path d="M19.4989 2.99756H4.49901C4.10119 2.99756 3.71966 3.15559 3.43836 3.4369C3.15706 3.7182 2.99902 4.09973 2.99902 4.49755V19.4974C2.99902 19.8953 3.15706 20.2768 3.43836 20.5581C3.71966 20.8394 4.10119 20.9974 4.49901 20.9974H19.4989C19.8967 20.9974 20.2782 20.8394 20.5595 20.5581C20.8409 20.2768 20.9989 19.8953 20.9989 19.4974V4.49755C20.9989 4.09973 20.8409 3.7182 20.5595 3.4369C20.2782 3.15559 19.8967 2.99756 19.4989 2.99756ZM6.74899 6.74753H10.499C10.6979 6.74753 10.8886 6.82655 11.0293 6.9672C11.1699 7.10785 11.249 7.29861 11.249 7.49752C11.249 7.69643 11.1699 7.8872 11.0293 8.02785C10.8886 8.1685 10.6979 8.24752 10.499 8.24752H6.74899C6.55008 8.24752 6.35932 8.1685 6.21867 8.02785C6.07802 7.8872 5.999 7.69643 5.999 7.49752C5.999 7.29861 6.07802 7.10785 6.21867 6.9672C6.35932 6.82655 6.55008 6.74753 6.74899 6.74753ZM6.74899 11.2475H11.249C11.4479 11.2475 11.6386 11.3265 11.7793 11.4672C11.9199 11.6078 11.999 11.7986 11.999 11.9975C11.999 12.1964 11.9199 12.3872 11.7793 12.5278C11.6386 12.6685 11.4479 12.7475 11.249 12.7475H6.74899C6.55008 12.7475 6.35932 12.6685 6.21867 12.5278C6.07802 12.3872 5.999 12.1964 5.999 11.9975C5.999 11.7986 6.07802 11.6078 6.21867 11.4672C6.35932 11.3265 6.55008 11.2475 6.74899 11.2475ZM15.7489 17.2474H6.74899C6.55008 17.2474 6.35932 17.1684 6.21867 17.0278C6.07802 16.8871 5.999 16.6964 5.999 16.4975C5.999 16.2985 6.07802 16.1078 6.21867 15.9671C6.35932 15.8265 6.55008 15.7475 6.74899 15.7475H15.7489C15.9478 15.7475 16.1386 15.8265 16.2793 15.9671C16.4199 16.1078 16.4989 16.2985 16.4989 16.4975C16.4989 16.6964 16.4199 16.8871 16.2793 17.0278C16.1386 17.1684 15.9478 17.2474 15.7489 17.2474ZM18.5295 9.52813C18.4599 9.59787 18.3772 9.65318 18.2861 9.69093C18.1951 9.72867 18.0975 9.7481 17.9989 9.7481C17.9003 9.7481 17.8028 9.72867 17.7117 9.69093C17.6207 9.65318 17.5379 9.59787 17.4683 9.52813L16.4989 8.55783V12.7475C16.4989 12.9464 16.4199 13.1372 16.2793 13.2778C16.1386 13.4185 15.9478 13.4975 15.7489 13.4975C15.55 13.4975 15.3593 13.4185 15.2186 13.2778C15.0779 13.1372 14.9989 12.9464 14.9989 12.7475V8.55783L14.0296 9.52813C13.8888 9.66886 13.698 9.74792 13.4989 9.74792C13.2999 9.74792 13.1091 9.66886 12.9683 9.52813C12.8276 9.3874 12.7485 9.19653 12.7485 8.99751C12.7485 8.79849 12.8276 8.60762 12.9683 8.46689L15.2183 6.21691C15.288 6.14718 15.3707 6.09186 15.4617 6.05412C15.5528 6.01637 15.6504 5.99695 15.7489 5.99695C15.8475 5.99695 15.9451 6.01637 16.0361 6.05412C16.1272 6.09186 16.2099 6.14718 16.2795 6.21691L18.5295 8.46689C18.5993 8.53655 18.6546 8.61926 18.6923 8.71031C18.7301 8.80136 18.7495 8.89895 18.7495 8.99751C18.7495 9.09607 18.7301 9.19367 18.6923 9.28472C18.6546 9.37576 18.5993 9.45848 18.5295 9.52813Z" fill="black"/>
</svg>
