<svg xmlns="http://www.w3.org/2000/svg" width="24" height="24" fill="currentColor" viewBox="0 0 24 24"><path d="M20.1 13.62a1.596 1.596 0 0 1-1.055 1.513l-5.222 1.93-1.924 5.226a1.612 1.612 0 0 1-3.025 0l-1.936-5.226-5.226-1.924a1.612 1.612 0 0 1 0-3.025l5.226-1.936 1.924-5.226a1.612 1.612 0 0 1 3.025 0l1.936 5.226 5.226 1.924a1.596 1.596 0 0 1 1.051 1.519z m-5.67-9.72h1.62V5.52a0.81 0.81 0 0 0 1.62 0V3.9h1.62a0.81 0.81 0 0 0 0-1.62h-1.62V0.66a0.81 0.81 0 0 0-1.62 0V2.28h-1.62a0.81 0.81 0 0 0 0 1.62m8.91 3.24h-0.81v-0.81a0.81 0.81 0 0 0-1.62 0v0.81h-0.81a0.81 0.81 0 0 0 0 1.62h0.81v0.81a0.81 0.81 0 0 0 1.62 0V8.76h0.81a0.81 0.81 0 0 0 0-1.62"/></svg>