<svg width="24" height="24" viewBox="0 0 24 24" fill="none" xmlns="http://www.w3.org/2000/svg">
<g clip-path="url(#clip0_2021_25840)">
<path d="M19.4988 13.5004C19.5007 13.8062 19.4078 14.1051 19.2328 14.3559C19.0579 14.6067 18.8095 14.7971 18.5219 14.901L13.6863 16.6879L11.9051 21.5272C11.7996 21.8138 11.6088 22.0611 11.3583 22.2358C11.1079 22.4105 10.8098 22.5041 10.5045 22.5041C10.1991 22.5041 9.90111 22.4105 9.65065 22.2358C9.4002 22.0611 9.20935 21.8138 9.10387 21.5272L7.31138 16.6879L2.47205 14.9066C2.18548 14.8011 1.93817 14.6103 1.76348 14.3598C1.58878 14.1094 1.49512 13.8114 1.49512 13.506C1.49512 13.2007 1.58878 12.9026 1.76348 12.6522C1.93817 12.4017 2.18548 12.2109 2.47205 12.1054L7.31138 10.3129L9.09262 5.47358C9.1981 5.18701 9.38895 4.9397 9.6394 4.76501C9.88986 4.59031 10.1879 4.49665 10.4932 4.49665C10.7986 4.49665 11.0966 4.59031 11.3471 4.76501C11.5975 4.9397 11.7884 5.18701 11.8938 5.47358L13.6863 10.3129L18.5257 12.0942C18.8135 12.199 19.0617 12.3905 19.236 12.6424C19.4103 12.8943 19.5021 13.1941 19.4988 13.5004ZM14.2488 4.50046H15.7488V6.00045C15.7488 6.19936 15.8278 6.39012 15.9685 6.53077C16.1091 6.67143 16.2999 6.75044 16.4988 6.75044C16.6977 6.75044 16.8885 6.67143 17.0291 6.53077C17.1698 6.39012 17.2488 6.19936 17.2488 6.00045V4.50046H18.7488C18.9477 4.50046 19.1385 4.42144 19.2791 4.28079C19.4198 4.14014 19.4988 3.94938 19.4988 3.75047C19.4988 3.55155 19.4198 3.36079 19.2791 3.22014C19.1385 3.07949 18.9477 3.00047 18.7488 3.00047H17.2488V1.50048C17.2488 1.30157 17.1698 1.11081 17.0291 0.970156C16.8885 0.829505 16.6977 0.750488 16.4988 0.750488C16.2999 0.750488 16.1091 0.829505 15.9685 0.970156C15.8278 1.11081 15.7488 1.30157 15.7488 1.50048V3.00047H14.2488C14.0499 3.00047 13.8592 3.07949 13.7185 3.22014C13.5779 3.36079 13.4988 3.55155 13.4988 3.75047C13.4988 3.94938 13.5779 4.14014 13.7185 4.28079C13.8592 4.42144 14.0499 4.50046 14.2488 4.50046ZM22.4988 7.50044H21.7488V6.75044C21.7488 6.55153 21.6698 6.36077 21.5291 6.22012C21.3885 6.07947 21.1977 6.00045 20.9988 6.00045C20.7999 6.00045 20.6091 6.07947 20.4685 6.22012C20.3278 6.36077 20.2488 6.55153 20.2488 6.75044V7.50044H19.4988C19.2999 7.50044 19.1091 7.57945 18.9685 7.72011C18.8278 7.86076 18.7488 8.05152 18.7488 8.25043C18.7488 8.44934 18.8278 8.64011 18.9685 8.78076C19.1091 8.92141 19.2999 9.00043 19.4988 9.00043H20.2488V9.75042C20.2488 9.94933 20.3278 10.1401 20.4685 10.2807C20.6091 10.4214 20.7999 10.5004 20.9988 10.5004C21.1977 10.5004 21.3885 10.4214 21.5291 10.2807C21.6698 10.1401 21.7488 9.94933 21.7488 9.75042V9.00043H22.4988C22.6977 9.00043 22.8884 8.92141 23.0291 8.78076C23.1697 8.64011 23.2488 8.44934 23.2488 8.25043C23.2488 8.05152 23.1697 7.86076 23.0291 7.72011C22.8884 7.57945 22.6977 7.50044 22.4988 7.50044Z" fill="black"/>
</g>
<defs>
<clipPath id="clip0_2021_25840">
<rect width="23.9998" height="23.9998" fill="white"/>
</clipPath>
</defs>
</svg>
