<svg width="24" height="24" viewBox="0 0 24 24" fill="none" xmlns="http://www.w3.org/2000/svg">
<path d="M20.799 8.52061C20.7684 8.47416 20.7277 8.43513 20.6801 8.40634C20.6325 8.37755 20.579 8.35973 20.5236 8.35416C20.4682 8.3486 20.4123 8.35543 20.3599 8.37417C20.3075 8.3929 20.2599 8.42307 20.2206 8.46248L13.15 15.5331C13.0069 15.6602 12.8206 15.7279 12.6293 15.7221C12.4379 15.7164 12.256 15.6376 12.1208 15.5021C11.9856 15.3665 11.9073 15.1844 11.9021 14.993C11.8968 14.8017 11.965 14.6155 12.0925 14.4727L20.7831 5.78313C20.8528 5.71345 20.9081 5.63072 20.9458 5.53968C20.9835 5.44863 21.0029 5.35105 21.0029 5.25251C21.0029 5.15396 20.9835 5.05638 20.9458 4.96534C20.9081 4.87429 20.8528 4.79157 20.7831 4.72189C20.7134 4.6522 20.6307 4.59693 20.5397 4.55922C20.4486 4.52151 20.351 4.5021 20.2525 4.5021C20.1539 4.5021 20.0564 4.52151 19.9653 4.55922C19.8743 4.59693 19.7915 4.6522 19.7219 4.72189L18.4675 5.97719C16.6774 4.57908 14.4823 3.79888 12.2113 3.75356C9.94034 3.70823 7.71586 4.40022 5.87135 5.72578C4.02685 7.05134 2.66169 8.93906 1.98053 11.1059C1.29937 13.2728 1.33892 15.6021 2.09325 17.7446C2.1966 18.0384 2.38833 18.2929 2.64212 18.4734C2.89592 18.6538 3.19934 18.7513 3.51074 18.7524H20.4859C20.797 18.7526 21.1004 18.6561 21.3542 18.4762C21.608 18.2963 21.7996 18.0419 21.9025 17.7483C22.4371 16.2284 22.6156 14.606 22.4243 13.0061C22.233 11.4063 21.6769 9.87168 20.799 8.52061ZM5.38385 15.6034C5.42337 15.7983 5.38385 16.0009 5.27396 16.1667C5.16408 16.3325 4.99284 16.4479 4.79792 16.4874C4.74856 16.4975 4.6983 16.5025 4.64792 16.5024C4.47505 16.5022 4.30757 16.4423 4.17381 16.3328C4.04004 16.2233 3.94822 16.0709 3.91386 15.9015C3.64567 14.5813 3.70464 13.2155 4.08563 11.9233C4.46661 10.6311 5.15804 9.45179 6.09958 8.48825C7.04111 7.52471 8.20414 6.80622 9.48718 6.39549C10.7702 5.98475 12.1343 5.89425 13.4603 6.13187C13.6562 6.16693 13.83 6.27834 13.9437 6.44158C14.0573 6.60482 14.1015 6.80653 14.0664 7.00234C14.0314 7.19814 13.92 7.372 13.7567 7.48566C13.5935 7.59932 13.3918 7.64348 13.196 7.60843C12.1108 7.41416 10.9946 7.48836 9.94478 7.82455C8.8949 8.16074 7.94324 8.74872 7.1728 9.53719C6.40236 10.3257 5.83655 11.2907 5.52472 12.348C5.2129 13.4054 5.16453 14.523 5.38385 15.6034Z" fill="black"/>
</svg>
