<?xml version="1.0" encoding="utf-8"?>
<svg xmlns="http://www.w3.org/2000/svg" width="512" height="512" viewBox="0 0 512 512">
<path d="m190.65,190.94l65.27,113.06h-.13l.11.18.06-.11.04-.07c5.81.02,11.25,1.6,15.94,4.33,3.86,2.24,7.2,5.27,9.81,8.85l1.9,2.93c2.69,4.68,4.22,10.11,4.22,15.89v.08c-.01,4.6-.99,8.97-2.75,12.92-4.96,11.16-16.13,18.95-29.12,19h-.13c-5.8,0-11.25-1.55-15.94-4.25-3.92-2.26-7.31-5.32-9.96-8.95-.63-.86-1.21-1.76-1.75-2.68-2.75-4.71-4.34-10.19-4.35-16.04v-.08c0-4.64.99-9.05,2.77-13.03.44-1,.93-1.96,1.47-2.9.02-.04.05-.08.07-.12l-68.25-118.22s-.07.03-.1.05c-40.71,18.45-75.08,51.31-93.81,92.66-6.93,14.84-11.93,30.67-14.87,46.97-1.58,8.75-2.57,17.64-2.94,26.59h-16.15c-.18-8.3.06-16.42.7-24.36,0-.1.01-.2.03-.3,6.82-84.15,57.84-147.23,124.3-178.15.12-.05.23-.11.35-.16,55.22-25.58,121.04-28.97,181.01-3.83l-24.41,42.27c-21.92-10.71-46.01-17.02-70.63-17.82-17.84-.98-35.62.9-52.76,5.29Zm215.34,14c-12.37-11.44-25.43-21.17-38.95-29.27l-25.58,44.3c11.81,8.59,22.58,18.58,31.97,29.75l48.79-28.17c-5.11-5.82-10.53-11.37-16.23-16.61Zm-14.27,71.17c4.59,8.16,8.49,16.73,11.63,25.65.31.84.6,1.68.89,2.53l62.5-6.57c-6.29-17.77-14.7-34.77-24.99-50.49l-50.03,28.88Zm88.28,91.88c-.38-13.12-1.93-26.17-4.56-39l-63.62,6.69c1.54,10.71,2.06,21.54,1.56,32.31h66.62Zm-224.21-63.99l.11.18.06-.11.04-.07h-.21Zm25.96,13.18l1.9,2.93c-.58-1.01-1.21-1.99-1.9-2.93Zm-124.31-152.15c-.12.05-.23.11-.35.16l-.02-.4.37.24Zm98.52,139.04l-.06.11-.11-.18h.13l.04.07Z"/>
</svg>
