<svg width="24" height="24" viewBox="0 0 24 24" fill="none" xmlns="http://www.w3.org/2000/svg">
<path d="M7.27637 8.98828H7.25684L7.2666 8.96582L7.27637 8.98828Z" fill="black"/>
<path d="M12.4658 9.62891C12.5195 9.62904 12.5713 9.65055 12.6094 9.68848C12.6475 9.72665 12.6689 9.77908 12.6689 9.83301C12.6688 9.88673 12.6473 9.9385 12.6094 9.97656C12.5713 10.0145 12.5195 10.037 12.4658 10.0371H11.4766V9.62891H12.4658Z" fill="black"/>
<path d="M12.3535 7.94629C12.3776 7.9464 12.4009 7.9557 12.418 7.97266C12.435 7.98979 12.4443 8.01391 12.4443 8.03809C12.4441 8.06205 12.4349 8.08556 12.418 8.10254C12.4009 8.11941 12.3775 8.1288 12.3535 8.12891H11.4766V7.94629H12.3535Z" fill="black"/>
<path fill-rule="evenodd" clip-rule="evenodd" d="M19.5 3C20.3284 3 21 3.67157 21 4.5V19.5C21 20.3284 20.3284 21 19.5 21H4.5C3.67157 21 3 20.3284 3 19.5V4.5C3 3.67157 3.67157 3 4.5 3H19.5ZM16.6133 12.6914C16.347 12.3743 15.8739 12.3334 15.5566 12.5996L10.2959 17.0146L8.63574 15.0371C8.36945 14.7199 7.89636 14.6781 7.5791 14.9443C7.26222 15.2107 7.22111 15.6839 7.4873 16.001L9.62988 18.5537C9.75765 18.7058 9.94081 18.801 10.1387 18.8184C10.3367 18.8356 10.5342 18.7732 10.6865 18.6455L16.5205 13.748C16.8376 13.4818 16.8794 13.0086 16.6133 12.6914ZM7.2666 6.4541C7.01256 6.4542 6.77804 6.58296 6.64062 6.79102L6.58789 6.88477L4.89844 10.4756C4.72241 10.8503 4.88318 11.2973 5.25781 11.4736C5.63244 11.6498 6.07937 11.4887 6.25586 11.1143L6.55078 10.4883H7.98242L8.27734 11.1143C8.45372 11.4887 8.90081 11.6495 9.27539 11.4736C9.65002 11.2973 9.81091 10.8503 9.63477 10.4756L7.94531 6.88477C7.82154 6.62216 7.55694 6.45414 7.2666 6.4541ZM10.7266 6.44629C10.3124 6.44638 9.9766 6.78216 9.97656 7.19629V10.7871C9.97705 11.2009 10.3127 11.537 10.7266 11.5371H12.4658C12.9172 11.537 13.3506 11.3571 13.6699 11.0381C13.9893 10.7187 14.1688 10.2846 14.1689 9.83301C14.1689 9.43417 14.0289 9.04955 13.7764 8.74512C13.8846 8.52728 13.9442 8.28591 13.9443 8.03809C13.9443 7.61609 13.7769 7.21054 13.4785 6.91211C13.1802 6.61385 12.7754 6.4464 12.3535 6.44629H10.7266ZM17.7461 6.5625C17.2363 6.40327 16.6893 6.40835 16.1826 6.57715C15.676 6.74609 15.2342 7.0697 14.9219 7.50293C14.6098 7.93613 14.4424 8.45728 14.4424 8.99121C14.4425 9.52512 14.6098 10.0463 14.9219 10.4795C15.2342 10.9127 15.6759 11.2373 16.1826 11.4062C16.6892 11.575 17.2364 11.58 17.7461 11.4209C18.2558 11.2616 18.703 10.9457 19.0234 10.5186C19.2718 10.1872 19.2042 9.71725 18.873 9.46875C18.5418 9.22032 18.0718 9.28711 17.8232 9.61816C17.6917 9.79343 17.508 9.92388 17.2988 9.98926C17.0895 10.0546 16.8643 10.0527 16.6562 9.9834C16.4484 9.91406 16.2679 9.78025 16.1396 9.60254C16.0115 9.4247 15.9425 9.21043 15.9424 8.99121C15.9424 8.7721 16.0116 8.55768 16.1396 8.37988C16.2678 8.20239 16.4486 8.06934 16.6562 8C16.8643 7.93067 17.0895 7.92875 17.2988 7.99414C17.5081 8.05957 17.6917 8.18886 17.8232 8.36426C18.0717 8.69528 18.5418 8.76264 18.873 8.51465C19.2041 8.26626 19.2714 7.79615 19.0234 7.46484C18.703 7.03758 18.2559 6.72181 17.7461 6.5625Z" fill="black"/>
</svg>
