<svg viewBox="0 0 24 24" fill="none" xmlns="http://www.w3.org/2000/svg" width="24" height="24">
<path d="M7.046 9.298C7.046 9.475 7.004 9.632 6.923 9.768 6.841 9.897 6.733 9.999 6.596 10.074 6.467 10.149 6.318 10.187 6.148 10.187 5.937 10.187 5.774 10.136 5.658 10.034 5.549 9.932 5.494 9.802 5.494 9.646 5.494 9.524 5.535 9.425 5.616 9.35 5.698 9.269 5.825 9.21 5.995 9.176 6.172 9.135 6.393 9.115 6.658 9.115H7.046V9.298Z" fill="black"/>
<path d="M12.53 7.461C12.802 7.462 13.026 7.564 13.203 7.768 13.38 7.965 13.469 8.292 13.469 8.748 13.469 9.047 13.428 9.292 13.347 9.482 13.265 9.666 13.152 9.806 13.01 9.901 12.874 9.989 12.714 10.034 12.53 10.034 12.251 10.034 12.023 9.932 11.846 9.728 11.669 9.524 11.581 9.197 11.581 8.748 11.581 8.442 11.622 8.197 11.703 8.013 11.785 7.823 11.897 7.683 12.04 7.594 12.183 7.506 12.347 7.461 12.53 7.461Z" fill="black"/>
<path fill-rule="evenodd" clip-rule="evenodd" d="M20.809 2.28C21.312 2.28 21.72 2.688 21.72 3.191V20.809C21.72 21.312 21.312 21.72 20.809 21.72H3.191C2.688 21.72 2.28 21.312 2.28 20.809V3.191C2.28 2.688 2.688 2.28 3.191 2.28H20.809ZM16.855 12.684C16.473 12.23 15.796 12.172 15.341 12.553L9.547 17.415 7.809 15.345C7.427 14.89 6.749 14.83 6.294 15.212 5.839 15.594 5.78 16.272 6.161 16.727L8.591 19.622C8.973 20.077 9.651 20.135 10.106 19.754L16.722 14.2C17.177 13.818 17.237 13.139 16.855 12.684ZM6.29 6.124C6.059 6.124 5.804 6.145 5.525 6.186 5.253 6.227 4.953 6.308 4.627 6.43 4.45 6.498 4.318 6.594 4.229 6.716 4.148 6.839 4.103 6.968 4.096 7.104 4.096 7.24 4.131 7.366 4.198 7.482 4.273 7.597 4.375 7.68 4.505 7.727 4.634 7.775 4.79 7.764 4.973 7.696 5.225 7.601 5.454 7.537 5.658 7.503 5.862 7.462 6.045 7.441 6.208 7.441 6.515 7.441 6.729 7.492 6.852 7.594 6.981 7.696 7.046 7.87 7.046 8.115V8.258H6.658C5.957 8.258 5.395 8.306 4.973 8.401 4.552 8.49 4.245 8.639 4.055 8.85 3.865 9.061 3.769 9.35 3.769 9.717 3.769 10.037 3.851 10.323 4.015 10.575 4.185 10.82 4.416 11.013 4.709 11.156 5.008 11.299 5.352 11.371 5.74 11.371 5.991 11.371 6.215 11.326 6.413 11.238 6.61 11.15 6.771 11.027 6.893 10.87 6.972 10.769 7.03 10.654 7.072 10.527 7.086 10.78 7.153 10.977 7.28 11.116 7.43 11.272 7.644 11.35 7.923 11.35 8.195 11.35 8.403 11.272 8.546 11.116 8.689 10.959 8.761 10.731 8.761 10.431V8.37C8.761 7.853 8.668 7.431 8.484 7.104 8.307 6.771 8.035 6.526 7.668 6.37 7.307 6.207 6.848 6.124 6.29 6.124ZM10.692 3.971C10.407 3.971 10.185 4.049 10.029 4.206 9.873 4.362 9.794 4.591 9.794 4.89V10.431C9.794 10.731 9.87 10.959 10.02 11.116 10.176 11.272 10.4 11.35 10.692 11.35 10.978 11.35 11.196 11.272 11.346 11.116 11.474 10.988 11.546 10.811 11.569 10.587 11.679 10.787 11.843 10.956 12.06 11.095 12.366 11.278 12.713 11.371 13.101 11.371 13.536 11.371 13.918 11.265 14.245 11.054 14.578 10.843 14.837 10.54 15.021 10.145 15.204 9.751 15.296 9.285 15.296 8.748 15.296 8.197 15.204 7.727 15.021 7.339 14.837 6.951 14.578 6.652 14.245 6.441 13.918 6.23 13.536 6.124 13.101 6.124 12.727 6.124 12.39 6.213 12.091 6.39 11.884 6.512 11.725 6.66 11.612 6.831V4.89C11.612 4.591 11.53 4.362 11.366 4.206 11.21 4.049 10.985 3.971 10.692 3.971ZM18.685 6.124C18.263 6.124 17.879 6.186 17.533 6.308 17.193 6.424 16.896 6.594 16.644 6.818 16.399 7.043 16.212 7.319 16.083 7.645 15.954 7.965 15.889 8.329 15.889 8.737 15.889 9.274 16.005 9.744 16.236 10.145 16.467 10.54 16.79 10.843 17.205 11.054 17.627 11.265 18.12 11.371 18.685 11.371 18.882 11.371 19.087 11.35 19.298 11.309 19.516 11.275 19.737 11.207 19.961 11.105 20.124 11.044 20.24 10.952 20.308 10.83 20.376 10.701 20.407 10.567 20.4 10.431 20.394 10.289 20.352 10.159 20.277 10.043 20.202 9.928 20.104 9.85 19.982 9.81 19.859 9.762 19.719 9.775 19.563 9.85 19.447 9.904 19.332 9.945 19.216 9.972 19.101 9.993 18.988 10.003 18.879 10.003 18.519 10.003 18.24 9.89 18.043 9.666 17.846 9.441 17.746 9.132 17.746 8.737 17.746 8.54 17.77 8.363 17.817 8.207 17.872 8.05 17.948 7.921 18.043 7.819 18.138 7.71 18.253 7.629 18.389 7.574 18.532 7.52 18.696 7.492 18.879 7.492 18.988 7.492 19.101 7.505 19.216 7.533 19.339 7.553 19.454 7.591 19.563 7.645 19.719 7.72 19.859 7.737 19.982 7.696 20.111 7.656 20.209 7.577 20.277 7.461 20.352 7.346 20.394 7.216 20.4 7.073 20.414 6.931 20.386 6.798 20.319 6.676 20.257 6.547 20.145 6.451 19.982 6.39 19.75 6.288 19.525 6.22 19.308 6.186 19.09 6.145 18.882 6.124 18.685 6.124Z" fill="black"/>
</svg>