<svg xmlns="http://www.w3.org/2000/svg" fill="currentColor" viewBox="0 0 24 24" width="24" height="24"><path d="M20.91 14.43a0.81 0.81 0 0 1-0.81 0.81h-7.29v3.24H15.24a0.81 0.81 0 0 1 0.574 1.384l-3.24 3.24a0.81 0.81 0 0 1-1.146 0l-3.24-3.24a0.81 0.81 0 0 1 0.573-1.384h2.43v-3.24H3.901a0.81 0.81 0 0 1 0-1.62h16.2a0.81 0.81 0 0 1 0.81 0.81zM3.9 10.38h16.2a0.81 0.81 0 0 0 0-1.62h-7.29V5.52H15.24a0.81 0.81 0 0 0 0.574-1.384l-3.24-3.24a0.81 0.81 0 0 0-1.146 0l-3.24 3.24A0.81 0.81 0 0 0 8.761 5.52h2.43v3.24H3.901a0.81 0.81 0 0 0 0 1.62z"/></svg>