<svg width="24" height="24" viewBox="0 0 24 24" fill="none" xmlns="http://www.w3.org/2000/svg">
<path d="M11.249 4.12109V19.871C11.249 19.9704 11.2095 20.0658 11.1391 20.1361C11.0688 20.2065 10.9734 20.246 10.874 20.246H5.24901C4.85119 20.246 4.46966 20.0879 4.18836 19.8066C3.90706 19.5253 3.74902 19.1438 3.74902 18.746V5.24608C3.74902 4.84826 3.90706 4.46673 4.18836 4.18543C4.46966 3.90413 4.85119 3.74609 5.24901 3.74609H10.874C10.9734 3.74609 11.0688 3.7856 11.1391 3.85593C11.2095 3.92625 11.249 4.02164 11.249 4.12109ZM18.7489 3.74609H13.124C13.0245 3.74609 12.9291 3.7856 12.8588 3.85593C12.7885 3.92625 12.749 4.02164 12.749 4.12109V19.871C12.749 19.9704 12.7885 20.0658 12.8588 20.1361C12.9291 20.2065 13.0245 20.246 13.124 20.246H18.7489C19.1467 20.246 19.5283 20.0879 19.8096 19.8066C20.0909 19.5253 20.2489 19.1438 20.2489 18.746V5.24608C20.2489 4.84826 20.0909 4.46673 19.8096 4.18543C19.5283 3.90413 19.1467 3.74609 18.7489 3.74609Z" fill="black"/>
</svg>
