<?xml version="1.0" encoding="utf-8"?>
<svg xmlns="http://www.w3.org/2000/svg" width="512" height="512" viewBox="0 0 512 512">
<path d="M384 288H352V272C352 245.49 330.51 224 304 224C304 208.81 309.53 197.84 316.53 183.95C325.06 167.03 335.63 146.05 335.98 113.69C336 113.13 336 112.57 336 112C336 67.82 300.18 32 256 32C211.82 32 176 67.82 176 112C176 112.57 176 113.13 176.02 113.69C176.37 146.05 186.94 167.03 195.47 183.95C202.47 197.84 208 208.81 208 224C181.49 224 160 245.49 160 272V288H128C92.65 288 64 316.65 64 352V416H95V432C95 458.51 116.49 480 143 480H368C394.51 480 416 458.51 416 432V416H448V352C448 316.65 419.35 288 384 288ZM232.94 188.62C230.28 181.92 227.14 175.69 224.04 169.54C215.79 153.17 208 137.71 208 112C208 86.29 229.53 64 256 64C282.47 64 304 85.53 304 112C304 138.47 296.21 153.17 287.96 169.54C284.86 175.69 281.72 181.92 279.06 188.62C274.97 198.87 272 210.21 272 224H240C240 210.21 237.03 198.87 232.94 188.62ZM192 272C192 263.18 199.18 256 208 256H304C312.82 256 320 263.18 320 272V288H192V272ZM384 432C384 440.82 376.82 448 368 448H143C134.18 448 127 440.82 127 432V416H384V432ZM416 384H96V352C96 334.36 110.36 320 128 320H384C401.64 320 416 334.36 416 352V384Z" fill="black"/>
</svg>
