<svg width="24" height="24" viewBox="0 0 24 24" fill="none" xmlns="http://www.w3.org/2000/svg">
<path d="M20.9989 21.0001C20.9989 21.199 20.9199 21.3898 20.7792 21.5304C20.6386 21.6711 20.4478 21.7501 20.2489 21.7501H3.74902C3.55011 21.7501 3.35934 21.6711 3.21869 21.5304C3.07804 21.3898 2.99902 21.199 2.99902 21.0001C2.99902 20.8012 3.07804 20.6104 3.21869 20.4698C3.35934 20.3291 3.55011 20.2501 3.74902 20.2501H20.2489C20.4478 20.2501 20.6386 20.3291 20.7792 20.4698C20.9199 20.6104 20.9989 20.8012 20.9989 21.0001ZM19.4989 12.0002H14.2086L15.6814 5.12928C15.7752 4.69193 15.77 4.23914 15.6662 3.80406C15.5624 3.36898 15.3627 2.96261 15.0815 2.61471C14.8004 2.2668 14.445 1.98616 14.0414 1.79333C13.6378 1.6005 13.1962 1.50036 12.7489 1.50024H11.249C10.8017 1.50036 10.3601 1.6005 9.95647 1.79333C9.55287 1.98616 9.19751 2.2668 8.91638 2.61471C8.63525 2.96261 8.43548 3.36898 8.33168 3.80406C8.22788 4.23914 8.22269 4.69193 8.31648 5.12928L9.78928 12.0002H4.49901C4.10119 12.0002 3.71966 12.1582 3.43836 12.4395C3.15706 12.7208 2.99902 13.1023 2.99902 13.5002V17.2501C2.99902 17.6479 3.15706 18.0295 3.43836 18.3108C3.71966 18.5921 4.10119 18.7501 4.49901 18.7501H19.4989C19.8967 18.7501 20.2782 18.5921 20.5595 18.3108C20.8409 18.0295 20.9989 17.6479 20.9989 17.2501V13.5002C20.9989 13.1023 20.8409 12.7208 20.5595 12.4395C20.2782 12.1582 19.8967 12.0002 19.4989 12.0002Z" fill="black"/>
</svg>
