<svg width="24" height="24" viewBox="0 0 24 24" fill="none" xmlns="http://www.w3.org/2000/svg">
<path d="M18.7489 3.75366H14.9989C14.6011 3.75366 14.2196 3.9117 13.9383 4.193C13.657 4.4743 13.4989 4.85583 13.4989 5.25365V13.5036C13.4989 13.9014 13.3409 14.2829 13.0596 14.5642C12.7783 14.8455 12.3968 15.0036 11.999 15.0036C11.6011 15.0036 11.2196 14.8455 10.9383 14.5642C10.657 14.2829 10.499 13.9014 10.499 13.5036V5.25365C10.499 4.85583 10.3409 4.4743 10.0596 4.193C9.77833 3.9117 9.39681 3.75366 8.99898 3.75366H5.24901C4.85119 3.75366 4.46966 3.9117 4.18836 4.193C3.90706 4.4743 3.74902 4.85583 3.74902 5.25365V13.5036C3.74902 15.6916 4.61821 17.79 6.16537 19.3372C7.71254 20.8843 9.81094 21.7535 11.999 21.7535H12.0618C16.5758 21.7198 20.2489 17.9764 20.2489 13.4098V5.25365C20.2489 4.85583 20.0909 4.4743 19.8096 4.193C19.5283 3.9117 19.1467 3.75366 18.7489 3.75366ZM18.7489 5.25365V9.00362H14.9989V5.25365H18.7489ZM8.99898 5.25365V9.00362H5.24901V5.25365H8.99898Z" fill="black"/>
</svg>
