<svg xmlns="http://www.w3.org/2000/svg" width="24" height="24" fill="currentColor" viewBox="0 0 24 24"><path d="M20.1 2.28H3.9A1.62 1.62 0 0 0 2.28 3.9v16.2a1.62 1.62 0 0 0 1.62 1.62h11.005a1.608 1.608 0 0 0 1.145-0.475l5.195-5.195a1.608 1.608 0 0 0 0.475-1.145V3.9a1.62 1.62 0 0 0-1.62-1.62M8.76 7.95h6.48a0.81 0.81 0 0 1 0 1.62H8.76a0.81 0.81 0 0 1 0-1.62m3.24 8.1H8.76a0.81 0.81 0 0 1 0-1.62H12a0.81 0.81 0 0 1 0 1.62m-3.24-3.24a0.81 0.81 0 0 1 0-1.62h6.48a0.81 0.81 0 0 1 0 1.62z m6.48 6.955V15.24h4.526z"/></svg>