<svg viewBox="0 0 24 24" fill="none" xmlns="http://www.w3.org/2000/svg" width="24" height="24">
<path fill-rule="evenodd" clip-rule="evenodd" d="M19.371 16.146C19.724 16.231 20.036 16.356 20.309 16.522 20.037 16.358 19.72 16.23 19.371 16.146Z" fill="black"/>
<path d="M7.321 17.817C7.417 17.798 7.502 17.76 7.575 17.704 7.606 17.68 7.635 17.652 7.662 17.621 7.758 17.518 7.817 17.394 7.837 17.25 7.865 17.105 7.847 16.961 7.786 16.816 7.724 16.672 7.607 16.552 7.435 16.455 7.173 16.297 6.864 16.177 6.506 16.094 6.344 16.053 6.182 16.021 6.021 15.999 5.834 15.973 5.648 15.96 5.464 15.96 4.879 15.96 4.352 16.049 3.885 16.228 3.424 16.407 3.031 16.662 2.708 16.992 2.385 17.315 2.137 17.707 1.965 18.168 1.8 18.622 1.717 19.135 1.717 19.706 1.717 20.47 1.865 21.134 2.161 21.698 2.464 22.255 2.894 22.689 3.451 22.998 4.008 23.308 4.679 23.463 5.464 23.463 5.828 23.463 6.196 23.414 6.568 23.318 6.939 23.222 7.252 23.088 7.507 22.916 7.658 22.819 7.761 22.702 7.817 22.565 7.872 22.427 7.885 22.29 7.858 22.152 7.837 22.014 7.779 21.897 7.682 21.801 7.593 21.698 7.476 21.636 7.331 21.615 7.194 21.588 7.036 21.619 6.857 21.708 6.643 21.825 6.42 21.911 6.186 21.966 5.959 22.021 5.735 22.049 5.515 22.049 5.054 22.049 4.665 21.959 4.349 21.78 4.039 21.595 3.805 21.326 3.647 20.975 3.489 20.625 3.41 20.201 3.41 19.706 3.41 19.204 3.489 18.781 3.647 18.437 3.805 18.093 4.039 17.831 4.349 17.652 4.665 17.467 5.054 17.374 5.515 17.374 5.749 17.374 5.98 17.401 6.207 17.456 6.434 17.511 6.65 17.601 6.857 17.725 7.029 17.814 7.184 17.845 7.321 17.817Z" fill="black"/>
<path d="M12.491 21.904C12.564 21.85 12.624 21.792 12.672 21.729 12.765 21.608 12.811 21.47 12.811 21.316 12.811 21.117 12.735 20.958 12.584 20.841 12.432 20.724 12.168 20.625 11.789 20.542L10.623 20.294C10.224 20.211 9.886 20.093 9.61 19.939 9.43 19.839 9.275 19.723 9.147 19.593 9.002 19.437 8.89 19.261 8.811 19.062 8.719 18.828 8.673 18.565 8.673 18.272 8.673 17.928 8.745 17.615 8.889 17.332 8.952 17.21 9.026 17.094 9.111 16.986 9.221 16.845 9.35 16.716 9.498 16.6 9.76 16.393 10.069 16.235 10.427 16.125 10.792 16.015 11.191 15.96 11.624 15.96 12.009 15.96 12.388 16.008 12.759 16.104 13.131 16.194 13.458 16.328 13.74 16.507 13.877 16.589 13.97 16.696 14.018 16.827 14.073 16.951 14.091 17.078 14.07 17.209 14.056 17.332 14.005 17.442 13.915 17.539 13.833 17.635 13.726 17.697 13.595 17.725 13.464 17.752 13.306 17.721 13.12 17.632 12.893 17.515 12.653 17.429 12.398 17.374 12.144 17.319 11.882 17.291 11.614 17.291 11.325 17.291 11.077 17.329 10.871 17.405 10.671 17.48 10.516 17.587 10.406 17.725 10.303 17.862 10.251 18.021 10.251 18.199 10.251 18.213 10.252 18.226 10.252 18.239 10.261 18.42 10.333 18.569 10.468 18.684 10.553 18.757 10.676 18.822 10.835 18.878 10.946 18.918 11.075 18.953 11.222 18.984L12.388 19.231C13.062 19.376 13.564 19.61 13.894 19.933 13.904 19.943 13.914 19.952 13.924 19.962 14.234 20.275 14.39 20.685 14.39 21.192 14.39 21.306 14.382 21.417 14.367 21.524 14.337 21.741 14.275 21.943 14.183 22.131 14.046 22.406 13.846 22.644 13.585 22.843 13.323 23.043 13.01 23.198 12.646 23.308 12.281 23.411 11.872 23.463 11.418 23.463 11.129 23.463 10.833 23.438 10.53 23.39 10.234 23.349 9.949 23.287 9.674 23.205 9.405 23.122 9.164 23.019 8.951 22.895 8.8 22.812 8.693 22.706 8.631 22.575 8.569 22.437 8.545 22.3 8.559 22.162 8.58 22.025 8.631 21.904 8.714 21.801 8.803 21.691 8.913 21.622 9.044 21.595 9.182 21.56 9.333 21.584 9.498 21.667 9.78 21.825 10.086 21.942 10.417 22.018 10.754 22.093 11.087 22.131 11.418 22.131 11.92 22.131 12.278 22.056 12.491 21.904Z" fill="black"/>
<path d="M16.466 20.059C16.69 20.156 16.946 20.234 17.235 20.294L18.401 20.542C18.779 20.625 19.044 20.724 19.196 20.841 19.347 20.958 19.423 21.117 19.423 21.316 19.423 21.55 19.316 21.746 19.103 21.904 18.889 22.056 18.532 22.131 18.029 22.131 17.699 22.131 17.365 22.093 17.028 22.018 16.698 21.942 16.392 21.825 16.11 21.667 15.945 21.584 15.793 21.56 15.656 21.595 15.525 21.622 15.415 21.691 15.326 21.801 15.243 21.904 15.191 22.025 15.171 22.162 15.157 22.3 15.181 22.437 15.243 22.575 15.305 22.706 15.412 22.812 15.563 22.895 15.776 23.019 16.017 23.122 16.285 23.205 16.56 23.287 16.846 23.349 17.142 23.39 17.445 23.438 17.74 23.463 18.029 23.463 18.483 23.463 18.893 23.411 19.257 23.308 19.622 23.198 19.935 23.043 20.197 22.843 20.458 22.644 20.658 22.406 20.795 22.131 20.933 21.849 21.002 21.536 21.002 21.192 21.002 20.669 20.836 20.25 20.506 19.933 20.176 19.61 19.674 19.376 18.999 19.231L17.833 18.984C17.781 18.973 17.732 18.961 17.684 18.949 17.405 18.879 17.203 18.79 17.08 18.684 16.935 18.561 16.863 18.399 16.863 18.199 16.863 18.021 16.915 17.862 17.018 17.725 17.128 17.587 17.283 17.48 17.482 17.405 17.689 17.329 17.937 17.291 18.225 17.291 18.494 17.291 18.755 17.319 19.01 17.374 19.116 17.397 19.219 17.425 19.321 17.459 19.463 17.506 19.6 17.564 19.732 17.632 19.918 17.721 20.076 17.752 20.207 17.725 20.338 17.697 20.444 17.635 20.527 17.539 20.616 17.442 20.668 17.332 20.682 17.209 20.702 17.078 20.685 16.951 20.63 16.827 20.583 16.699 20.493 16.594 20.36 16.512 20.078 16.333 19.743 16.194 19.371 16.104 18.999 16.008 18.621 15.96 18.236 15.96 18.17 15.96 18.106 15.961 18.042 15.964 17.682 15.978 17.348 16.032 17.039 16.125 16.681 16.235 16.371 16.393 16.11 16.6 15.848 16.806 15.645 17.05 15.501 17.332 15.357 17.615 15.284 17.928 15.284 18.272 15.284 18.489 15.31 18.69 15.36 18.875 15.436 19.151 15.569 19.39 15.759 19.593 15.941 19.779 16.177 19.934 16.466 20.059Z" fill="black"/>
<path d="M22.8 14.382C23.247 14.382 23.61 14.02 23.61 13.573 23.61 13.125 23.247 12.763 22.8 12.763L21.602 12.763C21.521 12.631 21.428 12.506 21.322 12.39L18.049 8.797 22.081 6.205C22.119 6.181 22.154 6.153 22.188 6.123 22.823 5.544 23.202 4.737 23.243 3.878 23.283 3.02 22.98 2.181 22.401 1.546 21.823 0.91 21.015 0.531 20.157 0.491 19.299 0.451 18.459 0.754 17.824 1.332 17.791 1.363 17.76 1.396 17.732 1.431L14.777 5.204 11.504 1.611C11.07 1.134 10.465 0.85 9.821 0.82 9.177 0.79 8.548 1.017 8.071 1.451L0.287 8.542C0.128 8.686 0.033 8.888 0.023 9.103 0.013 9.317 0.089 9.527 0.233 9.686L3.036 12.763H0C-0.447 12.763-0.81 13.125-0.81 13.573-0.81 14.02-0.447 14.382 0 14.382L22.8 14.382ZM7.366 4.285L15.088 12.763H5.227L4.158 11.589 7.152 8.862C7.311 8.717 7.406 8.515 7.416 8.301 7.426 8.086 7.35 7.876 7.206 7.718 7.061 7.559 6.859 7.464 6.645 7.454 6.43 7.444 6.22 7.52 6.061 7.664L3.067 10.392 1.976 9.194 7.366 4.285Z" fill="black"/>
</svg>