<?xml version="1.0" encoding="utf-8"?>
<svg xmlns="http://www.w3.org/2000/svg" width="512" height="512" viewBox="0 0 512 512">
  <path d="M0 288v224h352V288H0zm239.3 192h-37.7L176 385.4 147.4 480h-40.9L64 320h40.6l21.9 100.4L155.8 320h40.4l25.2 100.4 19.4-71.4H224v-29h64l-48.7 160zM502.7 77.2l-67.9 67.9 22.6 22.6c12.4 12.4 12.4 32.8 0 45.3l-22.6 22.6L276.4 77.2 299 54.6c12.4-12.4 32.8-12.4 45.3 0l22.6 22.6 67.9-67.9c12.4-12.4 32.8-12.4 45.3 0L502.7 32c12.4 12.4 12.4 32.8 0 45.2zM409.9 256H160l-74.4-74.4c12.4 12.4 32.8 12.4 45.3 0l79.7-79.7c12.4-12.4 32.8-12.4 45.3 0l154 154.1z"/>
</svg>
