<svg width="24" height="24" viewBox="0 0 24 24" fill="none" xmlns="http://www.w3.org/2000/svg">
<path d="M7.82335 5.00631C7.51788 4.72656 7.04347 4.7474 6.76371 5.05287C6.48396 5.35834 6.5048 5.83275 6.81027 6.11251L7.31681 5.55941L7.82335 5.00631ZM2.24992 11.0866L1.6971 10.5797C1.56263 10.7264 1.49196 10.9205 1.50064 11.1193C1.50932 11.3181 1.59664 11.5053 1.74338 11.6397L2.24992 11.0866ZM8.83693 3.90209L8.28411 3.39524V3.39524L8.83693 3.90209ZM9.87741 3.41717L9.91011 4.16646L9.91011 4.16646L9.87741 3.41717ZM10.9562 3.80961L11.4628 3.25651V3.25651L10.9562 3.80961ZM14.274 6.84808L14.7805 6.29499L14.7805 6.29498L14.274 6.84808ZM14.5493 7.00845L14.318 7.7219L14.318 7.7219L14.5493 7.00845ZM14.8664 7.04012L14.952 7.78521L14.952 7.78521L14.8664 7.04012ZM15.3997 6.71871L16.0185 7.14238C16.0222 7.13708 16.0257 7.13174 16.0292 7.12635L15.3997 6.71871ZM17.8208 2.97952L17.268 2.47267C17.2397 2.50354 17.214 2.53673 17.1913 2.57188L17.8208 2.97952ZM20.9998 2.8408L21.5063 2.2877L20.9998 2.8408ZM21.7276 4.40066L22.4768 4.36793V4.36793L21.7276 4.40066ZM21.1386 6.01799L21.5992 6.60985C21.6323 6.58414 21.6631 6.5557 21.6914 6.52483L21.1386 6.01799ZM17.6226 8.75449L17.1619 8.16262C17.1568 8.16656 17.1518 8.17057 17.1469 8.17464L17.6226 8.75449ZM17.3487 9.31348L16.599 9.29306L16.599 9.29307L17.3487 9.31348ZM17.4079 9.62642L16.7174 9.91925L16.7174 9.91926L17.4079 9.62642ZM17.5917 9.88655L18.0983 9.33345L18.0982 9.33343L17.5917 9.88655ZM20.4029 13.4781C20.7084 13.7579 21.1828 13.737 21.4626 13.4316C21.7423 13.1261 21.7215 12.6517 21.416 12.3719L20.9095 12.925L20.4029 13.4781ZM3.90885 12.605C3.62893 12.9103 3.64951 13.3848 3.95482 13.6647C4.26014 13.9446 4.73456 13.924 5.01449 13.6187L4.46167 13.1119L3.90885 12.605ZM8.05464 10.3028C8.33457 9.99748 8.31398 9.52306 8.00867 9.24313C7.70336 8.96321 7.22893 8.98379 6.94901 9.28911L7.50183 9.79595L8.05464 10.3028ZM2.24988 12.6146C1.83566 12.6146 1.49988 12.9504 1.49988 13.3646C1.49988 13.7789 1.83566 14.1146 2.24988 14.1146L2.24988 13.3646L2.24988 12.6146ZM21.7499 14.1146C22.1641 14.1146 22.4999 13.7789 22.4999 13.3646C22.4999 12.9504 22.1641 12.6146 21.7499 12.6146V13.3646V14.1146ZM16.1312 12.6062L15.6245 13.1592C15.7628 13.2859 15.9436 13.3562 16.1312 13.3562L16.1312 12.6062ZM19.4609 12.6062V13.3562C19.7702 13.3562 20.0478 13.1663 20.1599 12.878C20.272 12.5898 20.1956 12.2622 19.9676 12.0532L19.4609 12.6062ZM17.085 10.4291L16.5488 10.9535C16.5584 10.9633 16.5682 10.9728 16.5783 10.9821L17.085 10.4291ZM16.9729 10.3145L16.4101 10.8102C16.4187 10.8199 16.4275 10.8295 16.4367 10.8388L16.9729 10.3145ZM16.7174 9.90813L16.0268 10.2006L16.0269 10.2008L16.7174 9.90813ZM16.5989 9.28294L15.8491 9.26253L15.8491 9.26281L16.5989 9.28294ZM16.7515 8.66388L16.078 8.33405L16.0779 8.33412L16.7515 8.66388ZM17.1465 8.16349L16.6792 7.57671L16.6706 7.58378L17.1465 8.16349ZM17.1612 8.15179L16.7005 7.5599L16.694 7.56508L17.1612 8.15179ZM20.6158 5.4629L21.0765 6.05476C21.1158 6.02419 21.1519 5.98979 21.1844 5.95207L20.6158 5.4629ZM20.9781 4.41997L20.2288 4.45269V4.45269L20.9781 4.41997ZM20.4931 3.37948L19.9864 3.93244L19.9864 3.93244L20.4931 3.37948ZM19.4143 2.98698L19.447 3.73627L19.447 3.73627L19.4143 2.98698ZM18.4076 3.43943L17.8708 2.9157C17.8361 2.95128 17.805 2.99023 17.778 3.03197L18.4076 3.43943ZM16.0293 7.11466L16.6546 7.52889L16.659 7.52212L16.0293 7.11466ZM16.019 7.13031L16.638 7.55388L16.6442 7.54453L16.019 7.13031ZM15.5549 7.56736L15.9421 8.20968L15.9422 8.20963L15.5549 7.56736ZM14.9515 7.77342L15.0369 8.51854L15.0372 8.51851L14.9515 7.77342ZM14.3184 7.70982L14.087 8.42323L14.0872 8.4233L14.3184 7.70982ZM13.7673 7.38898L14.274 6.83603L14.274 6.83602L13.7673 7.38898ZM10.4495 4.34882L9.94285 4.90178L9.94285 4.90178L10.4495 4.34882ZM9.91014 4.15258L9.87742 3.40329V3.40329L9.91014 4.15258ZM9.38989 4.39509L8.83693 3.8884L8.83693 3.8884L9.38989 4.39509ZM8.37682 5.50066L7.82386 4.99397C7.54402 5.29936 7.56474 5.77378 7.87013 6.05362L8.37682 5.50066ZM16.5199 21.1738C16.2017 21.439 16.1587 21.9119 16.4239 22.2301C16.6891 22.5483 17.162 22.5913 17.4802 22.3262L17 21.75L16.5199 21.1738ZM20.3 19L20.7802 19.5762C20.9512 19.4337 21.05 19.2226 21.05 19C21.05 18.7774 20.9512 18.5663 20.7802 18.4238L20.3 19ZM17.4802 15.6738C17.162 15.4087 16.6891 15.4517 16.4239 15.7699C16.1587 16.0881 16.2017 16.561 16.5199 16.8262L17 16.25L17.4802 15.6738ZM7.63097 16.8262C7.94918 16.561 7.99217 16.0881 7.727 15.7699C7.46182 15.4517 6.9889 15.4087 6.67069 15.6738L7.15083 16.25L7.63097 16.8262ZM3.85083 19L3.37069 18.4238C3.1997 18.5663 3.10083 18.7774 3.10083 19C3.10083 19.2226 3.1997 19.4337 3.37069 19.5762L3.85083 19ZM6.67069 22.3262C6.9889 22.5913 7.46182 22.5483 7.727 22.2301C7.99217 21.9119 7.94918 21.439 7.63097 21.1738L7.15083 21.75L6.67069 22.3262ZM10.95 20.3601C10.95 19.9458 10.6142 19.6101 10.2 19.6101C9.7858 19.6101 9.45001 19.9458 9.45001 20.3601H10.2H10.95ZM12.9054 17.4726C13.092 17.8424 13.5431 17.9909 13.9129 17.8043C14.2827 17.6177 14.4312 17.1666 14.2446 16.7968L13.575 17.1347L12.9054 17.4726ZM15.8688 13.3915L16.3753 12.8384L7.82335 5.00631L7.31681 5.55941L6.81027 6.11251L15.3622 13.9446L15.8688 13.3915ZM4.73479 13.3622L5.24133 12.8092L2.75646 10.5335L2.24992 11.0866L1.74338 11.6397L4.22825 13.9153L4.73479 13.3622ZM2.24992 11.0866L2.80274 11.5934L9.38974 4.40893L8.83693 3.90209L8.28411 3.39524L1.6971 10.5797L2.24992 11.0866ZM8.83693 3.90209L9.38974 4.40893C9.52409 4.26241 9.71125 4.17513 9.91011 4.16646L9.87741 3.41717L9.84472 2.66788C9.24868 2.69389 8.6873 2.95548 8.28411 3.39524L8.83693 3.90209ZM9.87741 3.41717L9.91011 4.16646C10.109 4.15778 10.3031 4.22842 10.4497 4.36271L10.9562 3.80961L11.4628 3.25651C11.0228 2.85356 10.4408 2.64187 9.84472 2.66788L9.87741 3.41717ZM10.9562 3.80961L10.4497 4.36271L13.7674 7.40118L14.274 6.84808L14.7805 6.29498L11.4628 3.25651L10.9562 3.80961ZM14.274 6.84808L13.7674 7.40116C13.9259 7.54628 14.1136 7.65565 14.318 7.7219L14.5493 7.00845L14.7806 6.29501L14.7805 6.29499L14.274 6.84808ZM14.5493 7.00845L14.318 7.7219C14.5224 7.78815 14.7386 7.80974 14.952 7.78521L14.8664 7.04012L14.7807 6.29502L14.7806 6.29501L14.5493 7.00845ZM14.8664 7.04012L14.952 7.78521C15.1654 7.76068 15.3711 7.69061 15.5551 7.57972L15.168 6.93735L14.7808 6.29499L14.7807 6.29502L14.8664 7.04012ZM15.168 6.93735L15.5551 7.57972C15.7391 7.46882 15.8972 7.31969 16.0185 7.14238L15.3997 6.71871L14.7808 6.29505L14.7808 6.29499L15.168 6.93735ZM15.3997 6.71871L16.0292 7.12635L18.4504 3.38716L17.8208 2.97952L17.1913 2.57188L14.7701 6.31107L15.3997 6.71871ZM17.8208 2.97952L18.3736 3.48637C18.6424 3.19327 19.0167 3.01878 19.4143 3.00143L19.3816 2.25214L19.3489 1.50286C18.5541 1.53754 17.8056 1.88634 17.268 2.47267L17.8208 2.97952ZM19.3816 2.25214L19.4143 3.00143C19.8118 2.98408 20.2 3.1253 20.4932 3.3939L20.9998 2.8408L21.5063 2.2877C20.9197 1.75045 20.1436 1.46818 19.3489 1.50286L19.3816 2.25214ZM21.7276 4.40066L20.9783 4.4334C20.9956 4.83038 20.8545 5.21806 20.5858 5.51114L21.1386 6.01799L21.6914 6.52483C22.229 5.93849 22.5116 5.16263 22.4768 4.36793L21.7276 4.40066ZM21.1386 6.01799L20.6779 5.42612L17.1619 8.16262L17.6226 8.75449L18.0832 9.34635L21.5992 6.60985L21.1386 6.01799ZM17.6226 8.75449L17.1469 8.17464C16.9808 8.31091 16.8459 8.48128 16.7513 8.67425L17.4248 9.00423L18.0983 9.33421L18.0982 9.33433L17.6226 8.75449ZM17.4248 9.00423L16.7513 8.67425C16.6568 8.86721 16.6048 9.07825 16.599 9.29306L17.3487 9.31348L18.0984 9.33391L18.0983 9.33421L17.4248 9.00423ZM17.3487 9.31348L16.599 9.29307C16.5931 9.50788 16.6335 9.72143 16.7174 9.91925L17.4079 9.62642L18.0983 9.33358L18.0984 9.3339L17.3487 9.31348ZM17.4079 9.62642L16.7174 9.91926C16.8013 10.1171 16.9267 10.2946 17.0852 10.4397L17.5917 9.88655L18.0982 9.33343L18.0983 9.33358L17.4079 9.62642ZM20.9998 2.8408L20.4932 3.3939C20.7865 3.66248 20.9609 4.03641 20.9783 4.4334L21.7276 4.40066L22.4768 4.36793C22.4421 3.57324 22.093 2.82497 21.5063 2.2877L20.9998 2.8408ZM17.5917 9.88655L17.0852 10.4396L20.4029 13.4781L20.9095 12.925L21.416 12.3719L18.0983 9.33345L17.5917 9.88655ZM4.46167 13.1119L5.01449 13.6187L8.05464 10.3028L7.50183 9.79595L6.94901 9.28911L3.90885 12.605L4.46167 13.1119ZM2.24988 13.3646L2.24988 14.1146L21.7499 14.1146V13.3646V12.6146L2.24988 12.6146L2.24988 13.3646ZM16.1312 12.6062L16.1312 13.3562L19.4609 13.3562V12.6062V11.8562L16.1312 11.8562L16.1312 12.6062ZM19.4609 12.6062L19.9676 12.0532L17.5917 9.87618L17.085 10.4291L16.5783 10.9821L18.9542 13.1592L19.4609 12.6062ZM17.085 10.4291L17.6213 9.90478L17.5091 9.7901L16.9729 10.3145L16.4367 10.8388L16.5488 10.9535L17.085 10.4291ZM16.9729 10.3145L17.5357 9.81876C17.4828 9.75867 17.4395 9.68986 17.4079 9.61544L16.7174 9.90813L16.0269 10.2008C16.1212 10.4234 16.2507 10.6293 16.4101 10.8102L16.9729 10.3145ZM16.7174 9.90813L17.408 9.61563C17.3659 9.51617 17.3457 9.40959 17.3486 9.30308L16.5989 9.28294L15.8491 9.26281C15.8405 9.58526 15.9015 9.90496 16.0268 10.2006L16.7174 9.90813ZM16.5989 9.28294L17.3486 9.30335C17.3515 9.19686 17.3775 9.09091 17.4252 8.99364L16.7515 8.66388L16.0779 8.33412C15.9366 8.62275 15.8579 8.93952 15.8491 9.26253L16.5989 9.28294ZM16.7515 8.66388L17.4251 8.99371C17.4732 8.8955 17.5407 8.81017 17.6223 8.74321L17.1465 8.16349L16.6706 7.58378C16.42 7.78949 16.2189 8.04629 16.078 8.33405L16.7515 8.66388ZM17.1465 8.16349L17.6137 8.75021L17.6284 8.73851L17.1612 8.15179L16.694 7.56508L16.6793 7.57678L17.1465 8.16349ZM17.1612 8.15179L17.6218 8.74365L21.0765 6.05476L20.6158 5.4629L20.1552 4.87105L16.7005 7.55994L17.1612 8.15179ZM20.6158 5.4629L21.1844 5.95207C21.5562 5.51993 21.7525 4.96137 21.7274 4.38726L20.9781 4.41997L20.2288 4.45269C20.2371 4.64217 20.1725 4.82828 20.0473 4.97373L20.6158 5.4629ZM20.9781 4.41997L21.7274 4.38726C21.7014 3.79129 21.4399 3.22981 20.9998 2.82652L20.4931 3.37948L19.9864 3.93244C20.1329 4.06668 20.2201 4.25376 20.2288 4.45269L20.9781 4.41997ZM20.4931 3.37948L20.9998 2.82652C20.5597 2.42323 19.9775 2.21168 19.3816 2.2377L19.4143 2.98698L19.447 3.73627C19.6459 3.72758 19.8399 3.79819 19.9864 3.93244L20.4931 3.37948ZM19.4143 2.98698L19.3816 2.2377C18.8062 2.26282 18.2679 2.50858 17.8708 2.9157L18.4076 3.43943L18.9445 3.96316C19.0794 3.82487 19.2588 3.74448 19.447 3.73627L19.4143 2.98698ZM18.4076 3.43943L17.778 3.03197L15.3997 6.70719L16.0293 7.11466L16.659 7.52212L19.0373 3.84689L18.4076 3.43943ZM16.0293 7.11466L15.4041 6.70044L15.3937 6.7161L16.019 7.13031L16.6442 7.54453L16.6546 7.52887L16.0293 7.11466ZM16.019 7.13031L15.4 6.7068C15.3404 6.79391 15.2613 6.86862 15.1676 6.9251L15.5549 7.56736L15.9422 8.20963C16.2166 8.04418 16.4548 7.82142 16.6379 7.55383L16.019 7.13031ZM15.5549 7.56736L15.1677 6.92505C15.0749 6.98096 14.9717 7.01616 14.8658 7.02833L14.9515 7.77342L15.0372 8.51851C15.3582 8.4816 15.6669 8.37559 15.9421 8.20968L15.5549 7.56736ZM14.9515 7.77342L14.8661 7.0283C14.7602 7.04043 14.6523 7.02964 14.5496 6.99635L14.3184 7.70982L14.0872 8.4233C14.3926 8.52229 14.7164 8.55527 15.0369 8.51854L14.9515 7.77342ZM14.3184 7.70982L14.5498 6.99641C14.4469 6.96304 14.3527 6.90813 14.274 6.83603L13.7673 7.38898L13.2606 7.94193C13.4988 8.16018 13.781 8.32401 14.087 8.42323L14.3184 7.70982ZM13.7673 7.38898L14.274 6.83602L10.9562 3.79587L10.4495 4.34882L9.94285 4.90178L13.2606 7.94194L13.7673 7.38898ZM10.4495 4.34882L10.9562 3.79587C10.6628 3.52696 10.2747 3.38595 9.87742 3.40329L9.91014 4.15258L9.94285 4.90186L9.94285 4.90178L10.4495 4.34882ZM9.91014 4.15258L9.87742 3.40329C9.48018 3.42063 9.10584 3.59494 8.83693 3.8884L9.38989 4.39509L9.94285 4.90178L9.94285 4.90186L9.91014 4.15258ZM9.38989 4.39509L8.83693 3.8884L7.82386 4.99397L8.37682 5.50066L8.92978 6.00735L9.94285 4.90178L9.38989 4.39509ZM8.37682 5.50066L7.87013 6.05362L15.6245 13.1592L16.1312 12.6062L16.6379 12.0533L8.88351 4.9477L8.37682 5.50066ZM17 21.75L17.4802 22.3262L20.7802 19.5762L20.3 19L19.8199 18.4238L16.5199 21.1738L17 21.75ZM20.3 19L20.7802 18.4238L17.4802 15.6738L17 16.25L16.5199 16.8262L19.8199 19.5762L20.3 19ZM7.15083 16.25L6.67069 15.6738L3.37069 18.4238L3.85083 19L4.33097 19.5762L7.63097 16.8262L7.15083 16.25ZM3.85083 19L3.37069 19.5762L6.67069 22.3262L7.15083 21.75L7.63097 21.1738L4.33097 18.4238L3.85083 19ZM10.2 20.3601H9.45001C9.45001 21.0218 9.80956 21.5637 10.2773 21.9145C10.7448 22.2652 11.3564 22.4601 12 22.4601V21.7101V20.9601C11.6497 20.9601 11.3613 20.8526 11.1773 20.7146C10.9935 20.5767 10.95 20.4436 10.95 20.3601H10.2ZM12 21.7101V22.4601C12.6437 22.4601 13.2552 22.2652 13.7228 21.9145C14.1905 21.5637 14.55 21.0218 14.55 20.3601H13.8H13.05C13.05 20.4436 13.0065 20.5767 12.8227 20.7146C12.6387 20.8526 12.3503 20.9601 12 20.9601V21.7101ZM13.8 20.3601H14.55C14.55 19.6008 14.1519 19.0917 13.6635 18.7725C13.2254 18.4862 12.6762 18.3261 12.2585 18.2052C11.7828 18.0676 11.4498 17.9731 11.2174 17.8411C11.0302 17.7348 11.0501 17.6912 11.0501 17.6601H10.3001H9.55014C9.55014 18.4164 10.0075 18.879 10.4766 19.1454C10.9004 19.3861 11.4424 19.5306 11.8417 19.6461C12.299 19.7784 12.6247 19.8855 12.8428 20.0281C13.0106 20.1378 13.05 20.2193 13.05 20.3601H13.8ZM10.3001 17.6601H11.0501C11.0501 17.467 11.2672 17.0601 12 17.0601V16.3101V15.5601C10.7449 15.5601 9.55014 16.3625 9.55014 17.6601H10.3001ZM12 16.3101V17.0601C12.5334 17.0601 12.8163 17.296 12.9054 17.4726L13.575 17.1347L14.2446 16.7968C13.8421 15.9991 12.9572 15.5601 12 15.5601V16.3101Z" fill="black"/>
</svg>
