<svg width="24" height="24" viewBox="0 0 24 24" fill="none" xmlns="http://www.w3.org/2000/svg">
<path d="M7.82347 5.0046C7.51801 4.72485 7.04359 4.74569 6.76384 5.05116C6.48408 5.35663 6.50493 5.83104 6.81039 6.1108L7.31693 5.5577L7.82347 5.0046ZM2.25004 11.0848L1.69723 10.578C1.56275 10.7247 1.49208 10.9188 1.50076 11.1176C1.50944 11.3164 1.59676 11.5036 1.74351 11.6379L2.25004 11.0848ZM8.83705 3.90038L8.28423 3.39353V3.39353L8.83705 3.90038ZM9.87754 3.41546L9.91023 4.16475L9.91023 4.16475L9.87754 3.41546ZM10.9564 3.8079L11.4629 3.2548V3.2548L10.9564 3.8079ZM14.2741 6.84637L14.7807 6.29328L14.7806 6.29327L14.2741 6.84637ZM14.5494 7.00674L14.3181 7.72019L14.3181 7.72019L14.5494 7.00674ZM14.8665 7.03841L14.9521 7.7835L14.9521 7.7835L14.8665 7.03841ZM15.3998 6.717L16.0187 7.14067C16.0223 7.13537 16.0259 7.13003 16.0293 7.12464L15.3998 6.717ZM17.8209 2.97781L17.2681 2.47097C17.2398 2.50183 17.2142 2.53502 17.1914 2.57017L17.8209 2.97781ZM20.9999 2.83909L21.5064 2.28599L20.9999 2.83909ZM21.7277 4.39896L22.477 4.36622V4.36622L21.7277 4.39896ZM21.1387 6.01628L21.5993 6.60815C21.6324 6.58243 21.6632 6.55399 21.6915 6.52313L21.1387 6.01628ZM17.6227 8.75278L17.162 8.16091C17.157 8.16485 17.152 8.16886 17.147 8.17293L17.6227 8.75278ZM17.3488 9.31177L16.5991 9.29135L16.5991 9.29136L17.3488 9.31177ZM17.408 9.62471L16.7175 9.91755L16.7175 9.91755L17.408 9.62471ZM17.5918 9.88484L18.0984 9.33174L18.0984 9.33173L17.5918 9.88484ZM20.4031 13.4764C20.7085 13.7562 21.1829 13.7353 21.4627 13.4298C21.7424 13.1244 21.7216 12.65 21.4161 12.3702L20.9096 12.9233L20.4031 13.4764ZM3.90897 12.6033C3.62905 12.9086 3.64963 13.383 3.95495 13.663C4.26026 13.9429 4.73469 13.9223 5.01461 13.617L4.46179 13.1101L3.90897 12.6033ZM8.05477 10.3011C8.33469 9.99578 8.31411 9.52135 8.00879 9.24143C7.70348 8.9615 7.22905 8.98208 6.94913 9.2874L7.50195 9.79424L8.05477 10.3011ZM2.25 12.6129C1.83579 12.6129 1.5 12.9487 1.5 13.3629C1.5 13.7772 1.83579 14.1129 2.25 14.1129L2.25 13.3629L2.25 12.6129ZM21.75 14.1129C22.1642 14.1129 22.5 13.7772 22.5 13.3629C22.5 12.9487 22.1642 12.6129 21.75 12.6129V13.3629V14.1129ZM16.1313 12.6045L15.6246 13.1575L15.8396 13.3545H16.1313L16.1313 12.6045ZM19.461 12.6045V13.3545L21.3896 13.3545L19.9677 12.0515L19.461 12.6045ZM17.0852 10.4274L16.5489 10.9518L16.5633 10.9665L16.5785 10.9804L17.0852 10.4274ZM16.973 10.3127L16.4102 10.8084L16.4231 10.8231L16.4368 10.8371L16.973 10.3127ZM16.7175 9.90642L16.0269 10.1989L16.027 10.1991L16.7175 9.90642ZM16.599 9.28123L15.8493 9.26082L15.8492 9.2611L16.599 9.28123ZM16.7517 8.66217L16.0781 8.33234L16.078 8.33241L16.7517 8.66217ZM17.1466 8.16178L16.6794 7.575L16.6707 7.58207L17.1466 8.16178ZM17.1613 8.15008L16.7006 7.55819L16.6941 7.56337L17.1613 8.15008ZM20.616 5.46119L21.0766 6.05305L21.1357 6.00708L21.1845 5.95036L20.616 5.46119ZM20.9782 4.41826L20.229 4.45098V4.45098L20.9782 4.41826ZM20.4932 3.37777L19.9865 3.93073L19.9865 3.93073L20.4932 3.37777ZM19.4144 2.98527L19.4471 3.73456L19.4471 3.73456L19.4144 2.98527ZM18.4077 3.43772L17.8709 2.91399L17.8187 2.9675L17.7781 3.03026L18.4077 3.43772ZM16.0295 7.11295L16.6547 7.52718L16.6591 7.52041L16.0295 7.11295ZM16.0191 7.1286L16.6381 7.55217L16.6443 7.54282L16.0191 7.1286ZM15.555 7.56565L15.9422 8.20797L15.9423 8.20792L15.555 7.56565ZM14.9516 7.77171L15.037 8.51683L15.0373 8.5168L14.9516 7.77171ZM14.3185 7.70811L14.0871 8.42152L14.0873 8.42159L14.3185 7.70811ZM13.7674 7.38727L14.2741 6.83432L14.2741 6.83431L13.7674 7.38727ZM10.4497 4.34711L9.94297 4.90007L9.94297 4.90007L10.4497 4.34711ZM9.91026 4.15087L9.87754 3.40158V3.40158L9.91026 4.15087ZM9.39001 4.39338L8.83706 3.88669L8.83706 3.88669L9.39001 4.39338ZM8.37694 5.49895L7.82399 4.99226L7.31729 5.54522L7.87025 6.05191L8.37694 5.49895ZM8.40372 22.0704C8.58009 22.4452 9.02689 22.606 9.40168 22.4296C9.77647 22.2533 9.93732 21.8065 9.76095 21.4317L9.08233 21.751L8.40372 22.0704ZM6.54116 16.351L7.21977 16.0317C7.09607 15.7688 6.83168 15.601 6.54116 15.601C6.25064 15.601 5.98625 15.7688 5.86254 16.0317L6.54116 16.351ZM3.32137 21.4317C3.145 21.8065 3.30585 22.2533 3.68063 22.4296C4.05542 22.606 4.50222 22.4452 4.6786 22.0704L3.99998 21.751L3.32137 21.4317ZM8.33508 20.9128C8.7493 20.9128 9.08508 20.577 9.08508 20.1628C9.08508 19.7486 8.7493 19.4128 8.33508 19.4128V20.1628V20.9128ZM4.74726 19.4128C4.33305 19.4128 3.99726 19.7486 3.99726 20.1628C3.99726 20.577 4.33305 20.9128 4.74726 20.9128V20.1628V19.4128ZM14.25 22.5007C14.6642 22.5007 15 22.165 15 21.7507C15 21.3365 14.6642 21.0007 14.25 21.0007V21.7507V22.5007ZM11.55 21.7507H10.8C10.8 22.165 11.1358 22.5007 11.55 22.5007V21.7507ZM12.3 16.3507C12.3 15.9365 11.9642 15.6007 11.55 15.6007C11.1358 15.6007 10.8 15.9365 10.8 16.3507H11.55H12.3ZM19.7 22.5007C20.1142 22.5007 20.45 22.165 20.45 21.7507C20.45 21.3365 20.1142 21.0007 19.7 21.0007V21.7507V22.5007ZM17 21.7507H16.25C16.25 22.165 16.5858 22.5007 17 22.5007V21.7507ZM17.75 16.3507C17.75 15.9365 17.4142 15.6007 17 15.6007C16.5858 15.6007 16.25 15.9365 16.25 16.3507H17H17.75ZM15.8689 13.3898L16.3754 12.8367L7.82347 5.0046L7.31693 5.5577L6.81039 6.1108L15.3624 13.9429L15.8689 13.3898ZM4.73491 13.3605L5.24145 12.8074L2.75658 10.5317L2.25004 11.0848L1.74351 11.6379L4.22837 13.9136L4.73491 13.3605ZM2.25004 11.0848L2.80286 11.5917L9.38987 4.40722L8.83705 3.90038L8.28423 3.39353L1.69723 10.578L2.25004 11.0848ZM8.83705 3.90038L9.38987 4.40722C9.52421 4.2607 9.71138 4.17343 9.91023 4.16475L9.87754 3.41546L9.84484 2.66617C9.2488 2.69218 8.68742 2.95377 8.28423 3.39353L8.83705 3.90038ZM9.87754 3.41546L9.91023 4.16475C10.1091 4.15607 10.3032 4.22671 10.4498 4.361L10.9564 3.8079L11.4629 3.2548C11.0229 2.85185 10.4409 2.64017 9.84484 2.66617L9.87754 3.41546ZM10.9564 3.8079L10.4498 4.361L13.7676 7.39947L14.2741 6.84637L14.7806 6.29327L11.4629 3.2548L10.9564 3.8079ZM14.2741 6.84637L13.7675 7.39945C13.926 7.54457 14.1138 7.65394 14.3181 7.72019L14.5494 7.00674L14.7807 6.2933L14.7807 6.29328L14.2741 6.84637ZM14.5494 7.00674L14.3181 7.72019C14.5225 7.78644 14.7387 7.80803 14.9521 7.7835L14.8665 7.03841L14.7809 6.29331L14.7807 6.2933L14.5494 7.00674ZM14.8665 7.03841L14.9521 7.7835C15.1655 7.75898 15.3712 7.6889 15.5552 7.57801L15.1681 6.93564L14.781 6.29328L14.7808 6.29331L14.8665 7.03841ZM15.1681 6.93564L15.5552 7.57801C15.7392 7.46711 15.8973 7.31798 16.0187 7.14067L15.3998 6.717L14.7809 6.29334L14.781 6.29328L15.1681 6.93564ZM15.3998 6.717L16.0293 7.12464L18.4505 3.38545L17.8209 2.97781L17.1914 2.57017L14.7702 6.30936L15.3998 6.717ZM17.8209 2.97781L18.3738 3.48466C18.6425 3.19156 19.0168 3.01707 19.4144 2.99972L19.3817 2.25043L19.349 1.50115C18.5542 1.53583 17.8057 1.88463 17.2681 2.47097L17.8209 2.97781ZM19.3817 2.25043L19.4144 2.99972C19.812 2.98237 20.2001 3.12359 20.4934 3.39219L20.9999 2.83909L21.5064 2.28599C20.9198 1.74874 20.1437 1.46647 19.349 1.50115L19.3817 2.25043ZM21.7277 4.39896L20.9784 4.43169C20.9957 4.82867 20.8546 5.21635 20.5859 5.50943L21.1387 6.01628L21.6915 6.52313C22.2291 5.93678 22.5117 5.16092 22.477 4.36622L21.7277 4.39896ZM21.1387 6.01628L20.678 5.42441L17.162 8.16091L17.6227 8.75278L18.0833 9.34464L21.5993 6.60815L21.1387 6.01628ZM17.6227 8.75278L17.147 8.17293C16.9809 8.3092 16.846 8.47958 16.7514 8.67254L17.4249 9.00252L18.0985 9.3325L18.0984 9.33262L17.6227 8.75278ZM17.4249 9.00252L16.7514 8.67254C16.6569 8.8655 16.6049 9.07653 16.5991 9.29135L17.3488 9.31177L18.0985 9.3322L18.0985 9.3325L17.4249 9.00252ZM17.3488 9.31177L16.5991 9.29136C16.5932 9.50617 16.6336 9.71972 16.7175 9.91755L17.408 9.62471L18.0985 9.33188L18.0985 9.33219L17.3488 9.31177ZM17.408 9.62471L16.7175 9.91755C16.8014 10.1154 16.9269 10.2928 17.0853 10.4379L17.5918 9.88484L18.0984 9.33173L18.0985 9.33187L17.408 9.62471ZM20.9999 2.83909L20.4934 3.39219C20.7866 3.66077 20.9611 4.03471 20.9784 4.43169L21.7277 4.39896L22.477 4.36622C22.4422 3.57153 22.0931 2.82326 21.5064 2.28599L20.9999 2.83909ZM17.5918 9.88484L17.0853 10.4379L20.4031 13.4764L20.9096 12.9233L21.4161 12.3702L18.0984 9.33174L17.5918 9.88484ZM4.46179 13.1101L5.01461 13.617L8.05477 10.3011L7.50195 9.79424L6.94913 9.2874L3.90897 12.6033L4.46179 13.1101ZM2.25 13.3629L2.25 14.1129L21.75 14.1129V13.3629V12.6129L2.25 12.6129L2.25 13.3629ZM16.1313 12.6045L16.1313 13.3545L19.461 13.3545V12.6045V11.8545L16.1313 11.8545L16.1313 12.6045ZM19.461 12.6045L19.9677 12.0515L17.5919 9.87447L17.0852 10.4274L16.5785 10.9804L18.9543 13.1575L19.461 12.6045ZM17.0852 10.4274L17.6214 9.90307L17.5093 9.78839L16.973 10.3127L16.4368 10.8371L16.5489 10.9518L17.0852 10.4274ZM16.973 10.3127L17.5359 9.81705C17.4829 9.75695 17.4396 9.68815 17.408 9.61373L16.7175 9.90642L16.027 10.1991C16.1213 10.4216 16.2509 10.6275 16.4102 10.8084L16.973 10.3127ZM16.7175 9.90642L17.4081 9.61392C17.366 9.51446 17.3458 9.40788 17.3487 9.30137L16.599 9.28123L15.8492 9.2611C15.8406 9.58355 15.9017 9.90325 16.0269 10.1989L16.7175 9.90642ZM16.599 9.28123L17.3487 9.30164C17.3516 9.19515 17.3777 9.0892 17.4253 8.99193L16.7517 8.66217L16.078 8.33241C15.9367 8.62104 15.858 8.93781 15.8493 9.26082L16.599 9.28123ZM16.7517 8.66217L17.4252 8.992C17.4733 8.89379 17.5409 8.80846 17.6224 8.7415L17.1466 8.16178L16.6707 7.58207C16.4201 7.78778 16.219 8.04458 16.0781 8.33234L16.7517 8.66217ZM17.1466 8.16178L17.6138 8.7485L17.6285 8.7368L17.1613 8.15008L16.6941 7.56337L16.6794 7.57507L17.1466 8.16178ZM17.1613 8.15008L17.622 8.74194L21.0766 6.05305L20.616 5.46119L20.1553 4.86934L16.7006 7.55823L17.1613 8.15008ZM20.616 5.46119L21.1845 5.95036C21.5563 5.51822 21.7526 4.95966 21.7275 4.38555L20.9782 4.41826L20.229 4.45098C20.2372 4.64046 20.1726 4.82657 20.0475 4.97202L20.616 5.46119ZM20.9782 4.41826L21.7275 4.38555C21.7015 3.78959 21.44 3.2281 20.9999 2.82481L20.4932 3.37777L19.9865 3.93073C20.133 4.06497 20.2203 4.25205 20.229 4.45098L20.9782 4.41826ZM20.4932 3.37777L20.9999 2.82481C20.5598 2.42152 19.9777 2.20997 19.3817 2.23599L19.4144 2.98527L19.4471 3.73456C19.646 3.72587 19.84 3.79648 19.9865 3.93073L20.4932 3.37777ZM19.4144 2.98527L19.3817 2.23599C18.8063 2.26111 18.2681 2.50687 17.8709 2.91399L18.4077 3.43772L18.9446 3.96145C19.0795 3.82316 19.2589 3.74278 19.4471 3.73456L19.4144 2.98527ZM18.4077 3.43772L17.7781 3.03026L15.3998 6.70548L16.0295 7.11295L16.6591 7.52041L19.0374 3.84518L18.4077 3.43772ZM16.0295 7.11295L15.4042 6.69873L15.3938 6.71439L16.0191 7.1286L16.6443 7.54282L16.6547 7.52716L16.0295 7.11295ZM16.0191 7.1286L15.4001 6.70509C15.3405 6.7922 15.2614 6.86691 15.1677 6.92339L15.555 7.56565L15.9423 8.20792C16.2167 8.04247 16.455 7.81971 16.6381 7.55212L16.0191 7.1286ZM15.555 7.56565L15.1678 6.92334C15.0751 6.97925 14.9718 7.01445 14.8659 7.02662L14.9516 7.77171L15.0373 8.5168C15.3583 8.47989 15.667 8.37388 15.9422 8.20797L15.555 7.56565ZM14.9516 7.77171L14.8662 7.02659C14.7604 7.03872 14.6524 7.02794 14.5497 6.99464L14.3185 7.70811L14.0873 8.42159C14.3928 8.52058 14.7166 8.55356 15.037 8.51683L14.9516 7.77171ZM14.3185 7.70811L14.5499 6.99471C14.447 6.96133 14.3528 6.90642 14.2741 6.83432L13.7674 7.38727L13.2607 7.94022C13.4989 8.15847 13.7812 8.3223 14.0871 8.42152L14.3185 7.70811ZM13.7674 7.38727L14.2741 6.83431L10.9564 3.79416L10.4497 4.34711L9.94297 4.90007L13.2607 7.94023L13.7674 7.38727ZM10.4497 4.34711L10.9564 3.79416C10.6629 3.52525 10.2748 3.38424 9.87754 3.40158L9.91026 4.15087L9.94297 4.90015L9.94297 4.90007L10.4497 4.34711ZM9.91026 4.15087L9.87754 3.40158C9.48031 3.41893 9.10596 3.59323 8.83706 3.88669L9.39001 4.39338L9.94297 4.90007L9.94297 4.90015L9.91026 4.15087ZM9.39001 4.39338L8.83706 3.88669L7.82399 4.99226L8.37694 5.49895L8.9299 6.00564L9.94297 4.90007L9.39001 4.39338ZM8.37694 5.49895L7.87025 6.05191L15.6246 13.1575L16.1313 12.6045L16.638 12.0515L8.88364 4.94599L8.37694 5.49895ZM9.08233 21.751L9.76095 21.4317L7.21977 16.0317L6.54116 16.351L5.86254 16.6704L8.40372 22.0704L9.08233 21.751ZM6.54116 16.351L5.86254 16.0317L3.32137 21.4317L3.99998 21.751L4.6786 22.0704L7.21977 16.6704L6.54116 16.351ZM8.33508 20.1628V19.4128H4.74726V20.1628V20.9128H8.33508V20.1628ZM14.25 21.7507V21.0007H11.55V21.7507V22.5007H14.25V21.7507ZM11.55 21.7507H12.3V16.3507H11.55H10.8V21.7507H11.55ZM19.7 21.7507V21.0007H17V21.7507V22.5007H19.7V21.7507ZM17 21.7507H17.75V16.3507H17H16.25V21.7507H17Z" fill="black"/>
</svg>
