<svg viewBox="0 0 24 24" fill="none" xmlns="http://www.w3.org/2000/svg" width="24" height="24">
<path fill-rule="evenodd" clip-rule="evenodd" d="M6.604 16.68L5.997 16.014C6.159 16.054 6.31 16.144 6.425 16.282 6.524 16.401 6.583 16.539 6.604 16.68Z" fill="black"/>
<path fill-rule="evenodd" clip-rule="evenodd" d="M5.285 16.178C5.491 16.006 5.756 15.954 5.998 16.014 6.159 16.054 6.31 16.144 6.425 16.282 6.524 16.4 6.583 16.538 6.604 16.68 6.645 16.95 6.548 17.235 6.322 17.422L3.537 19.743 6.322 22.064C6.666 22.35 6.712 22.861 6.425 23.204 6.139 23.548 5.629 23.594 5.285 23.307L1.754 20.365C1.57 20.211 1.463 19.983 1.463 19.743 1.463 19.502 1.57 19.274 1.754 19.12L5.285 16.178Z" fill="#F5F5F5"/>
<path d="M5.285 16.178C5.491 16.006 5.756 15.954 5.998 16.014 6.159 16.054 6.31 16.144 6.425 16.282 6.524 16.4 6.583 16.538 6.604 16.68 6.645 16.95 6.548 17.235 6.322 17.422L3.537 19.743 6.322 22.064C6.666 22.35 6.712 22.861 6.425 23.204 6.139 23.548 5.629 23.594 5.285 23.307L1.754 20.365C1.57 20.211 1.463 19.983 1.463 19.743 1.463 19.502 1.57 19.274 1.754 19.12L5.285 16.178Z" fill="black"/>
<path d="M14.499 22.158C14.607 21.936 14.673 21.696 14.696 21.436 14.703 21.365 14.706 21.293 14.706 21.219 14.706 20.696 14.541 20.276 14.21 19.96 14.19 19.94 14.17 19.921 14.149 19.902 13.819 19.609 13.337 19.394 12.704 19.258L11.537 19.011C11.18 18.935 10.929 18.835 10.784 18.711 10.64 18.587 10.567 18.426 10.567 18.226 10.567 18.047 10.619 17.889 10.722 17.751 10.832 17.614 10.987 17.507 11.187 17.432 11.393 17.356 11.641 17.318 11.93 17.318 12.198 17.318 12.459 17.346 12.714 17.401 12.968 17.456 13.209 17.542 13.436 17.659 13.622 17.748 13.78 17.779 13.911 17.751 14.042 17.724 14.148 17.662 14.231 17.566 14.32 17.469 14.372 17.359 14.386 17.235 14.406 17.105 14.389 16.977 14.334 16.854 14.286 16.723 14.193 16.616 14.055 16.534 13.773 16.355 13.447 16.221 13.075 16.131 12.704 16.035 12.325 15.987 11.94 15.987 11.506 15.987 11.107 16.042 10.743 16.152 10.385 16.262 10.075 16.42 9.814 16.627 9.597 16.797 9.421 16.994 9.285 17.217 9.257 17.263 9.23 17.311 9.205 17.359 9.061 17.641 8.988 17.954 8.988 18.298 8.988 18.842 9.147 19.282 9.463 19.619 9.786 19.95 10.278 20.184 10.939 20.321L12.105 20.569C12.483 20.651 12.748 20.751 12.9 20.868 13.051 20.985 13.127 21.143 13.127 21.343 13.127 21.51 13.072 21.658 12.963 21.786 12.92 21.838 12.868 21.886 12.807 21.931 12.594 22.082 12.236 22.158 11.733 22.158 11.403 22.158 11.07 22.12 10.732 22.045 10.402 21.969 10.096 21.852 9.814 21.694 9.649 21.611 9.497 21.587 9.36 21.621 9.229 21.649 9.119 21.718 9.03 21.828 8.947 21.931 8.895 22.051 8.875 22.189 8.861 22.327 8.885 22.464 8.947 22.602 9.009 22.733 9.116 22.839 9.267 22.922 9.48 23.046 9.721 23.149 9.989 23.231 10.265 23.314 10.55 23.376 10.846 23.417 11.149 23.465 11.445 23.489 11.733 23.489 12.188 23.489 12.597 23.438 12.962 23.335 13.326 23.224 13.639 23.07 13.901 22.87 14.162 22.671 14.362 22.433 14.499 22.158Z" fill="black"/>
<path d="M18.197 18.524L19.661 19.744 16.875 22.064C16.531 22.35 16.486 22.861 16.772 23.204 17.058 23.548 17.568 23.595 17.912 23.309L21.443 20.366C21.628 20.212 21.735 19.984 21.735 19.744 21.735 19.503 21.628 19.275 21.443 19.122L19.405 17.423 18.149 16.376 17.912 16.179C17.569 15.893 17.058 15.939 16.772 16.282 16.486 16.626 16.532 17.136 16.875 17.422L16.94 17.477 18.197 18.524Z" fill="black"/>
<path fill-rule="evenodd" clip-rule="evenodd" d="M21.601 12.762C21.521 12.63 21.428 12.505 21.322 12.39L18.049 8.797 22.081 6.205C22.119 6.181 22.154 6.153 22.188 6.123 22.823 5.544 23.202 4.737 23.243 3.878 23.283 3.02 22.98 2.181 22.401 1.546 21.823 0.91 21.015 0.531 20.157 0.491 19.299 0.451 18.459 0.754 17.824 1.332 17.791 1.363 17.76 1.396 17.732 1.431L14.777 5.204 11.504 1.611C11.07 1.134 10.465 0.85 9.821 0.82 9.177 0.79 8.548 1.017 8.071 1.451L0.287 8.542C0.128 8.686 0.033 8.888 0.023 9.103 0.013 9.317 0.089 9.527 0.233 9.686L3.035 12.762H0C-0.447 12.762-0.81 13.125-0.81 13.572-0.81 14.019-0.447 14.382 0 14.382L0.474 14.382 4.51 14.382 6.702 14.382 16.563 14.381 21.93 14.381 22.8 14.382C23.247 14.382 23.61 14.019 23.61 13.572 23.61 13.125 23.247 12.762 22.8 12.762H21.601ZM15.088 12.762L7.366 4.285 1.976 9.194 3.067 10.392 6.061 7.664C6.22 7.52 6.43 7.444 6.645 7.454 6.859 7.464 7.061 7.559 7.206 7.718 7.35 7.876 7.426 8.086 7.416 8.301 7.406 8.515 7.311 8.717 7.152 8.862L4.158 11.589 5.227 12.762 15.088 12.762Z" fill="black"/>
</svg>