<svg xmlns="http://www.w3.org/2000/svg" width="24" height="24" fill="currentColor" viewBox="0 0 24 24"><path d="M20.1 2.28H3.9A1.62 1.62 0 0 0 2.28 3.9v16.2a1.62 1.62 0 0 0 1.62 1.62h16.2a1.62 1.62 0 0 0 1.62-1.62V3.9a1.62 1.62 0 0 0-1.62-1.62M7.415 8.616C7.748 6.792 9.629 5.52 12 5.52c1.843 0 3.401 0.75 4.17 2.008a0.81 0.81 0 1 1-1.384 0.844C14.323 7.612 13.254 7.14 12 7.14c-1.549 0-2.808 0.742-2.992 1.764a0.81 0.81 0 0 1-0.795 0.666 1.2 1.2 0 0 1-0.145-0.013 0.81 0.81 0 0 1-0.653-0.941m11.065 4.194h-2.401a2.88 2.88 0 0 1 0.781 2.026c0 2.045-2.135 3.646-4.86 3.645-2.419 0-4.438-1.294-4.802-3.078a0.81 0.81 0 1 1 1.586-0.324c0.203 1 1.62 1.782 3.216 1.782 1.757 0 3.24-0.928 3.24-2.025 0-0.925-0.684-1.462-2.604-2.026H5.52a0.81 0.81 0 0 1 0-1.62h12.96a0.81 0.81 0 0 1 0 1.62"/></svg>