<?xml version="1.0" encoding="utf-8"?>
<svg xmlns="http://www.w3.org/2000/svg" width="512" height="512" viewBox="0 0 512 512">
<path d="M0 288v224h416V288H0zm145 65.9c-10-6.2-21-9.3-33.4-9.3-13.6 0-24.5 4.6-32.9 13.7-8.3 9.1-12.5 21.5-12.5 37.1 0 15 3.9 26.9 11.8 35.8s18.4 13.3 31.7 13.3c12.7 0 24.3-3.3 34.3-9.9v31.8c-9.9 5.5-23.7 8.2-40.7 8.2-22.2 0-39.6-7-52.3-20.9-12.7-14-19-32.5-19-55.8 0-24.7 7.1-44.8 21.4-60.2 14.3-15.4 32.8-23.1 55.6-23.1 14.1 0 26 1.9 36 5.7v33.6zM260.6 450c-3.1 5.9-7.2 10.6-12.4 14.2-5.2 3.6-11.3 6.2-18.2 7.8-7 1.6-14.3 2.4-21.9 2.4-7.9 0-15.4-.7-22.5-2.2-7.2-1.4-13.4-3.6-18.5-6.5v-34.4c5.8 5.3 12.2 9.2 18.9 11.8 6.9 2.6 13.8 3.9 20.7 3.9 4.1 0 7.7-.4 10.7-1.2 3.1-.8 5.6-1.9 7.7-3.3 2-1.4 3.6-3.1 4.6-5 1-1.9 1.5-4 1.5-6.2 0-3-.8-5.7-2.4-8.1-1.6-2.4-3.8-4.6-6.6-6.6s-6.1-4-9.9-5.8c-3.8-1.9-8-3.8-12.4-5.7-11.3-5-19.6-11.2-25.1-18.4-5.5-7.3-8.3-15.9-8.3-26.2 0-8.1 1.5-15 4.5-20.7s7.1-10.6 12.3-14.3c5.2-3.7 11.2-6.5 18-8.3 6.9-1.8 14.1-2.6 21.7-2.6 7.5 0 14.2.5 19.9 1.5 5.8 1 11.2 2.5 16 4.5v32.2c-2.4-1.8-5.1-3.4-7.9-4.7-2.9-1.4-5.8-2.5-8.8-3.4s-6-1.6-9-2c-3-.4-5.8-.6-8.5-.6-3.7 0-7.1.4-10.1 1.1-3 .8-5.6 1.8-7.7 3.2-2.1 1.4-3.7 3-4.8 4.9-1.1 1.9-1.7 4-1.7 6.4 0 2.6.6 4.9 1.9 7 1.3 2.1 3.1 4 5.4 5.8 2.3 1.8 5.2 3.6 8.6 5.4s7.2 3.6 11.4 5.5c5.8 2.6 11 5.3 15.5 8.3 4.6 2.9 8.6 6.2 11.8 9.9 3.3 3.7 5.8 7.9 7.6 12.6 1.7 4.7 2.6 10.2 2.6 16.3 0 8.5-1.6 15.7-4.6 21.5zm119 0c-3.1 5.9-7.2 10.6-12.4 14.2-5.2 3.6-11.3 6.2-18.2 7.8-7 1.6-14.3 2.4-21.9 2.4-7.9 0-15.4-.7-22.5-2.2-7.2-1.4-13.4-3.6-18.5-6.5v-34.4c5.8 5.3 12.2 9.2 18.9 11.8 6.9 2.6 13.8 3.9 20.7 3.9 4.1 0 7.7-.4 10.7-1.2 3.1-.8 5.6-1.9 7.7-3.3 2-1.4 3.6-3.1 4.6-5 1-1.9 1.5-4 1.5-6.2 0-3-.8-5.7-2.4-8.1-1.6-2.4-3.8-4.6-6.6-6.6s-6.1-4-9.9-5.8c-3.8-1.9-8-3.8-12.4-5.7-11.3-5-19.6-11.2-25.1-18.4-5.5-7.3-8.3-15.9-8.3-26.2 0-8.1 1.5-15 4.5-20.7 3-5.8 7.1-10.6 12.3-14.3 5.2-3.7 11.2-6.5 18-8.3 6.9-1.8 14.1-2.6 21.7-2.6 7.5 0 14.2.5 19.9 1.5 5.8 1 11.2 2.5 16 4.5v32.2c-2.4-1.8-5.1-3.4-7.9-4.7-2.9-1.4-5.8-2.5-8.8-3.4-3-.9-6-1.6-9-2-3-.4-5.8-.6-8.5-.6-3.7 0-7.1.4-10.1 1.1-3 .8-5.6 1.8-7.7 3.2-2.1 1.4-3.7 3-4.8 4.9-1.1 1.9-1.7 4-1.7 6.4 0 2.6.6 4.9 1.9 7 1.3 2.1 3.1 4 5.4 5.8 2.4 1.8 5.2 3.6 8.6 5.4 3.4 1.8 7.2 3.6 11.4 5.5 5.8 2.6 11 5.3 15.5 8.3 4.6 2.9 8.5 6.2 11.8 9.9 3.3 3.7 5.8 7.9 7.6 12.6 1.7 4.7 2.6 10.2 2.6 16.3 0 8.5-1.5 15.7-4.6 21.5zM502.7 32 480 9.3c-12.4-12.4-32.8-12.4-45.3 0l-67.9 67.9-22.6-22.6c-12.4-12.4-32.8-12.4-45.3 0l-22.6 22.6 158.4 158.4 22.6-22.6c12.4-12.4 12.4-32.8 0-45.3l-22.6-22.6 67.9-67.9c12.5-12.4 12.5-32.8.1-45.2zm-246.9 69.9c-12.4-12.4-32.8-12.4-45.3 0l-79.7 79.7c-12.4 12.4-32.8 12.4-45.3 0L160 256h249.9L255.8 101.9z"/>
</svg>
