<svg viewBox="0 0 24 24" fill="none" xmlns="http://www.w3.org/2000/svg" width="24" height="24">
<path fill-rule="evenodd" clip-rule="evenodd" d="M6.595 16.67L6.059 16.082C6.115 16.106 6.167 16.137 6.217 16.173 6.366 16.275 6.492 16.44 6.595 16.67Z" fill="black"/>
<path fill-rule="evenodd" clip-rule="evenodd" d="M6.059 16.082L6.599 16.678C6.496 16.445 6.368 16.276 6.217 16.173 6.167 16.137 6.115 16.106 6.059 16.082Z" fill="black"/>
<path d="M6.599 16.678L6.059 16.082C5.947 16.032 5.824 16.008 5.691 16.008 5.491 16.008 5.316 16.063 5.164 16.173 5.013 16.276 4.882 16.445 4.772 16.678L2.13 22.468C2.041 22.654 2.01 22.822 2.037 22.974 2.072 23.125 2.147 23.245 2.264 23.335 2.388 23.424 2.546 23.469 2.739 23.469 2.959 23.469 3.124 23.417 3.234 23.314 3.351 23.204 3.462 23.029 3.565 22.788L3.985 21.797H7.389L7.817 22.788C7.913 23.022 8.023 23.194 8.147 23.304 8.278 23.414 8.46 23.469 8.694 23.469 8.88 23.469 9.031 23.428 9.148 23.345 9.265 23.256 9.334 23.135 9.354 22.984 9.382 22.826 9.351 22.654 9.261 22.468L6.599 16.678ZM6.852 20.548H4.518L5.67 17.803H5.691L6.852 20.548Z" fill="black"/>
<path d="M11.903 22.024H14.668C14.889 22.024 15.057 22.083 15.174 22.2 15.298 22.317 15.36 22.482 15.36 22.695 15.36 22.915 15.298 23.084 15.174 23.201 15.057 23.318 14.889 23.376 14.668 23.376H11.118C10.857 23.376 10.654 23.304 10.509 23.159 10.372 23.015 10.303 22.815 10.303 22.561V16.895C10.303 16.627 10.372 16.424 10.509 16.286 10.647 16.149 10.846 16.08 11.108 16.08 11.362 16.08 11.559 16.149 11.696 16.286 11.834 16.424 11.903 16.627 11.903 16.895V22.024Z" fill="black"/>
<path d="M17.034 23.376C16.773 23.376 16.57 23.304 16.425 23.159 16.288 23.015 16.219 22.815 16.219 22.561V16.895C16.219 16.627 16.288 16.424 16.425 16.286 16.563 16.149 16.762 16.08 17.024 16.08 17.278 16.08 17.474 16.149 17.612 16.286 17.712 16.386 17.776 16.521 17.803 16.691 17.813 16.754 17.818 16.822 17.818 16.895V22.024H20.584C20.804 22.024 20.973 22.083 21.09 22.2 21.214 22.317 21.276 22.482 21.276 22.695 21.276 22.915 21.214 23.084 21.09 23.201 20.973 23.318 20.804 23.376 20.584 23.376H17.034Z" fill="black"/>
<path d="M3.036 12.762H0C-0.447 12.762-0.81 13.125-0.81 13.572-0.81 14.01-0.462 14.367-0.028 14.381L0 14.382H22.8C22.81 14.382 22.819 14.382 22.829 14.381 23.263 14.366 23.61 14.01 23.61 13.572 23.61 13.125 23.247 12.762 22.8 12.762H21.602C21.521 12.63 21.428 12.505 21.322 12.39L18.05 8.797 22.081 6.205C22.119 6.181 22.155 6.153 22.188 6.123 22.823 5.544 23.203 4.737 23.243 3.878 23.283 3.02 22.98 2.181 22.401 1.546 21.823 0.91 21.015 0.531 20.157 0.491 19.299 0.451 18.46 0.754 17.824 1.332 17.791 1.363 17.76 1.396 17.732 1.431L14.777 5.204 11.504 1.611C11.07 1.134 10.465 0.85 9.821 0.82 9.177 0.79 8.548 1.017 8.071 1.451L0.287 8.542C0.128 8.686 0.033 8.888 0.023 9.103 0.013 9.317 0.089 9.527 0.233 9.686L3.036 12.762ZM7.366 4.285L15.088 12.762H5.227L4.158 11.589 7.152 8.862C7.311 8.717 7.406 8.515 7.416 8.301 7.426 8.086 7.35 7.876 7.206 7.718 7.061 7.559 6.859 7.464 6.645 7.454 6.43 7.444 6.22 7.52 6.062 7.664L3.067 10.392 1.977 9.194 7.366 4.285Z" fill="black"/>
</svg>