<svg width="24" height="24" viewBox="0 0 24 24" fill="none" xmlns="http://www.w3.org/2000/svg">
<path fill-rule="evenodd" clip-rule="evenodd" d="M7.72754 15.7695C7.46238 15.4513 6.98911 15.4087 6.6709 15.6738L3.37109 18.4238C3.2001 18.5663 3.10059 18.7774 3.10059 19C3.10059 19.2226 3.2001 19.4337 3.37109 19.5762L6.6709 22.3262C6.98911 22.5913 7.46238 22.5486 7.72754 22.2305C7.9927 21.9122 7.94906 21.439 7.63086 21.1738L5.02148 19L7.63086 16.8262C7.94906 16.561 7.9927 16.0877 7.72754 15.7695ZM17.4805 15.6738C17.1623 15.4087 16.689 15.4514 16.4238 15.7695C16.1587 16.0877 16.2023 16.561 16.5205 16.8262L19.1289 19L16.5205 21.1738C16.2023 21.439 16.1587 21.9122 16.4238 22.2305C16.689 22.5486 17.1623 22.5913 17.4805 22.3262L20.7803 19.5762C20.9513 19.4337 21.0498 19.2226 21.0498 19C21.0498 18.7774 20.9513 18.5663 20.7803 18.4238L17.4805 15.6738ZM10.2002 19.6103C9.78598 19.6103 9.4502 19.9461 9.4502 20.3603C9.4503 21.0218 9.80983 21.5633 10.2773 21.914C10.7448 22.2647 11.3564 22.4599 12 22.4599C12.6437 22.4599 13.2551 22.2647 13.7227 21.914C14.1902 21.5633 14.5497 21.0219 14.5498 20.3603C14.5498 19.6013 14.1523 19.0917 13.6641 18.7724C13.226 18.4862 12.6764 18.3259 12.2588 18.2051L12.2248 18.1952C11.7672 18.0629 11.4446 17.9696 11.2178 17.8408C11.0459 17.7432 11.0481 17.6986 11.0495 17.6679C11.0497 17.6652 11.0495 17.6704 11.0495 17.6679C11.0495 17.4749 11.2673 17.0606 12 17.0605C12.5334 17.0605 12.8161 17.2961 12.9053 17.4726C13.0919 17.8424 13.5433 17.9912 13.9131 17.8047C14.2828 17.6181 14.4316 17.1666 14.2451 16.7969C13.8426 15.9992 12.9572 15.5605 12 15.5605C10.7449 15.5606 9.5498 16.3626 9.5498 17.6601C9.54984 18.4164 10.0075 18.8791 10.4766 19.1455C10.8653 19.3663 11.3537 19.5064 11.74 19.6172C11.7748 19.6272 11.8088 19.6369 11.8418 19.6465C12.299 19.7787 12.6246 19.8857 12.8428 20.0283C13.0106 20.138 13.0498 20.2196 13.0498 20.3603C13.0497 20.4439 13.0067 20.5772 12.8232 20.7148C12.6393 20.8528 12.3503 20.9599 12 20.9599C11.65 20.9599 11.3617 20.8527 11.1777 20.7148C10.9941 20.5771 10.9503 20.4439 10.9502 20.3603C10.9502 19.9461 10.6144 19.6104 10.2002 19.6103ZM6.76787 5.04809C6.77003 5.0457 6.76565 5.05041 6.76787 5.04809ZM6.76787 5.04809C6.76599 5.05014 6.76006 5.05694 6.75832 5.0591L6.76787 5.04809Z" fill="black"/>
<path fill-rule="evenodd" clip-rule="evenodd" d="M21.5068 2.28807C20.9202 1.75082 20.1434 1.46823 19.3486 1.50291C18.5541 1.53768 17.806 1.88653 17.2686 2.47264L17.1914 2.57225L14.7803 6.29491L11.4629 3.25682C11.0229 2.85388 10.4408 2.64194 9.84473 2.66795C9.24873 2.69399 8.68734 2.95576 8.28418 3.39549L6.76787 5.04809L6.76108 5.0557L6.75391 5.06444L1.69727 10.5801C1.56293 10.7267 1.49233 10.9205 1.50098 11.1191C1.50965 11.3178 1.59653 11.5053 1.74316 11.6396L2.80762 12.6142H2.25C1.83592 12.6142 1.50021 12.9502 1.5 13.3642C1.5 13.7785 1.83579 14.1142 2.25 14.1142H21.75C22.1642 14.1142 22.5 13.7785 22.5 13.3642C22.4998 12.9502 22.1641 12.6142 21.75 12.6142H21.5928C21.5522 12.525 21.4929 12.4425 21.416 12.3721L18.0986 9.33299L21.5996 6.60936C21.6325 6.58372 21.6632 6.55514 21.6914 6.5244C22.2288 5.93812 22.5112 5.16269 22.4766 4.36815C22.4419 3.57364 22.0932 2.82531 21.5068 2.28807ZM3.30957 11.04L4.41504 12.0527L6.94922 9.28905C7.22915 8.9838 7.7035 8.96325 8.00879 9.24315C8.31409 9.52307 8.33461 9.99741 8.05469 10.3027L5.93555 12.6142H13.9102L7.36328 6.61815L3.30957 11.04Z" fill="black"/>
</svg>
