<svg width="24" height="24" viewBox="0 0 24 24" fill="none" xmlns="http://www.w3.org/2000/svg">
<path fill-rule="evenodd" clip-rule="evenodd" d="M20.2494 18.125C20.6636 18.125 20.9994 17.7892 20.9994 17.375V3.69434C20.9994 2.92589 20.3942 2.25017 19.5834 2.25H8.85002C8.43581 2.25 8.10002 2.58579 8.10002 3C8.10002 3.41421 8.43581 3.75 8.85002 3.75H19.4994V17.375C19.4994 17.7891 19.8354 18.1248 20.2494 18.125Z" fill="black"/>
<path fill-rule="evenodd" clip-rule="evenodd" d="M11.2504 14.625C13.1141 14.6247 14.6254 13.1138 14.6254 11.25C14.6254 9.3862 13.1141 7.87526 11.2504 7.875C9.38645 7.875 7.87541 9.38604 7.87541 11.25C7.87541 12.1818 8.25376 13.0268 8.86369 13.6367C9.47361 14.2465 10.3188 14.625 11.2504 14.625ZM9.37541 11.25C9.37541 11.4917 9.42221 11.7217 9.50529 11.9336L10.5004 10.9385V9.53125C9.83803 9.82051 9.37541 10.481 9.37541 11.25Z" fill="black"/>
<path fill-rule="evenodd" clip-rule="evenodd" d="M7.94084 15.5684C8.23372 15.2755 8.70851 15.2755 9.00139 15.5684L11.224 17.791C11.5165 18.0839 11.5168 18.5588 11.224 18.8516L9.00139 21.0732C8.7085 21.3661 8.23374 21.3661 7.94084 21.0732C7.64806 20.7803 7.64799 20.3056 7.94084 20.0127L8.88225 19.0713H7.35979C6.35014 19.0714 5.3988 19.4229 4.71135 20.0244C4.3018 20.3828 4.00788 20.8094 3.8383 21.2627C3.69315 21.6506 3.2614 21.8473 2.87346 21.7021C2.48551 21.557 2.28887 21.1253 2.43401 20.7373C2.69481 20.0402 3.1362 19.4091 3.72307 18.8955C4.70248 18.0385 6.01217 17.5714 7.35979 17.5713H8.88322L7.94084 16.6289C7.64801 16.336 7.64797 15.8612 7.94084 15.5684Z" fill="black"/>
<path fill-rule="evenodd" clip-rule="evenodd" d="M17.6156 21.3359C17.865 21.076 18.0004 20.7298 18.0004 20.375V6.69434C18.0004 5.92584 17.3943 5.25009 16.5834 5.25H5.85002C5.52778 5.25 5.22211 5.36708 4.98283 5.57129L4.8842 5.66406C4.63486 5.92401 4.50041 6.27017 4.50041 6.625V14.3594C4.50041 14.7736 4.8362 15.1094 5.25041 15.1094C5.6644 15.1091 6.00041 14.7734 6.00041 14.3594V6.75H16.5004V20.25H12.6C12.1858 20.25 11.85 20.5858 11.85 21C11.85 21.4142 12.1858 21.75 12.6 21.75H16.6498C17.018 21.75 17.3651 21.597 17.6156 21.3359Z" fill="black"/>
</svg>
