<svg xmlns="http://www.w3.org/2000/svg" width="24" height="24" fill="currentColor" viewBox="0 0 24 24"><path d="M19.29 1.47H4.71a1.62 1.62 0 0 0-1.62 1.62v17.82a1.62 1.62 0 0 0 1.62 1.62h14.58a1.62 1.62 0 0 0 1.62-1.62V3.09a1.62 1.62 0 0 0-1.62-1.62m-1.62 6.48a0.81 0.81 0 0 1-1.62 0v-1.62H8.76l3.888 5.184a0.81 0.81 0 0 1 0 0.972l-3.888 5.184h7.29v-1.62a0.81 0.81 0 0 1 1.62 0V18.48a0.81 0.81 0 0 1-0.81 0.81h-9.72a0.81 0.81 0 0 1-0.648-1.296L10.987 12 6.492 6.006a0.81 0.81 0 0 1 0.648-1.296h9.72a0.81 0.81 0 0 1 0.81 0.81z"/></svg>