<svg width="24" height="24" viewBox="0 0 24 24" fill="none" xmlns="http://www.w3.org/2000/svg">
<path d="M18.7489 2.24927H5.24901C4.85119 2.24927 4.46966 2.4073 4.18836 2.6886C3.90706 2.96991 3.74902 3.35143 3.74902 3.74926V20.2491C3.74902 20.647 3.90706 21.0285 4.18836 21.3098C4.46966 21.5911 4.85119 21.7491 5.24901 21.7491H18.7489C19.1467 21.7491 19.5283 21.5911 19.8096 21.3098C20.0909 21.0285 20.2489 20.647 20.2489 20.2491V3.74926C20.2489 3.35143 20.0909 2.96991 19.8096 2.6886C19.5283 2.4073 19.1467 2.24927 18.7489 2.24927ZM17.2489 8.24922C17.2489 8.44813 17.1699 8.6389 17.0293 8.77955C16.8886 8.9202 16.6978 8.99922 16.4989 8.99922C16.3 8.99922 16.1093 8.9202 15.9686 8.77955C15.8279 8.6389 15.7489 8.44813 15.7489 8.24922V6.74923H8.99898L12.599 11.5492C12.6963 11.679 12.749 11.8369 12.749 11.9992C12.749 12.1615 12.6963 12.3194 12.599 12.4492L8.99898 17.2492H15.7489V15.7492C15.7489 15.5503 15.8279 15.3595 15.9686 15.2188C16.1093 15.0782 16.3 14.9992 16.4989 14.9992C16.6978 14.9992 16.8886 15.0782 17.0293 15.2188C17.1699 15.3595 17.2489 15.5503 17.2489 15.7492V17.9991C17.2489 18.1981 17.1699 18.3888 17.0293 18.5295C16.8886 18.6701 16.6978 18.7491 16.4989 18.7491H7.49899C7.35971 18.7491 7.22318 18.7104 7.1047 18.6371C6.98622 18.5639 6.89047 18.4591 6.82818 18.3346C6.76589 18.21 6.73952 18.0705 6.75203 17.9318C6.76454 17.7931 6.81543 17.6606 6.899 17.5492L11.0615 11.9992L6.899 6.44924C6.81543 6.33781 6.76454 6.20531 6.75203 6.06659C6.73952 5.92787 6.76589 5.78841 6.82818 5.66383C6.89047 5.53925 6.98622 5.43448 7.1047 5.36126C7.22318 5.28803 7.35971 5.24924 7.49899 5.24924H16.4989C16.6978 5.24924 16.8886 5.32826 17.0293 5.46891C17.1699 5.60956 17.2489 5.80033 17.2489 5.99924V8.24922Z" fill="black"/>
</svg>
