<svg width="24" height="24" viewBox="0 0 24 24" fill="none" xmlns="http://www.w3.org/2000/svg">
<path d="M17.8096 18.8701C16.2416 20.1974 14.2152 21 12 21C9.78452 21 7.75753 20.1977 6.18945 18.8701L12 13.0605L17.8096 18.8701Z" fill="black"/>
<path d="M10.9395 12L5.12891 17.8096C3.80187 16.2416 3 14.215 3 12C3 9.78474 3.80159 7.75746 5.12891 6.18945L10.9395 12Z" fill="black"/>
<path d="M18.8701 6.18945C20.1977 7.75753 21 9.78452 21 12C21 14.2152 20.1974 16.2416 18.8701 17.8096L13.0605 12L18.8701 6.18945Z" fill="black"/>
<path d="M12 3C14.215 3 16.2416 3.80187 17.8096 5.12891L12 10.9395L6.18945 5.12891C7.75746 3.80159 9.78474 3 12 3Z" fill="black"/>
</svg>
