<svg width="24" height="24" viewBox="0 0 24 24" fill="none" xmlns="http://www.w3.org/2000/svg">
<path d="M19.4989 2.99951H4.49901C4.10119 2.99951 3.71966 3.15755 3.43836 3.43885C3.15706 3.72015 2.99902 4.10168 2.99902 4.4995V19.4994C2.99902 19.8972 3.15706 20.2787 3.43836 20.56C3.71966 20.8413 4.10119 20.9994 4.49901 20.9994H19.4989C19.8967 20.9994 20.2782 20.8413 20.5595 20.56C20.8409 20.2787 20.9989 19.8972 20.9989 19.4994V4.4995C20.9989 4.10168 20.8409 3.72015 20.5595 3.43885C20.2782 3.15755 19.8967 2.99951 19.4989 2.99951ZM11.863 16.8191C11.9221 16.8996 11.9644 16.9911 11.9876 17.0882C12.0108 17.1853 12.0144 17.2861 11.9982 17.3846C11.9819 17.4831 11.9462 17.5774 11.893 17.6619C11.8399 17.7464 11.7704 17.8195 11.6886 17.8768C11.6068 17.9341 11.5144 17.9745 11.4169 17.9956C11.3193 18.0167 11.2185 18.0181 11.1203 17.9998C11.0222 17.9814 10.9287 17.9437 10.8453 17.8887C10.762 17.8337 10.6904 17.7627 10.6349 17.6797L8.62398 14.8119L6.61306 17.6797C6.55753 17.7627 6.48598 17.8337 6.40263 17.8887C6.31928 17.9437 6.22579 17.9814 6.12764 17.9998C6.0295 18.0181 5.92868 18.0167 5.8311 17.9956C5.73352 17.9745 5.64113 17.9341 5.55937 17.8768C5.4776 17.8195 5.4081 17.7464 5.35494 17.6619C5.30178 17.5774 5.26602 17.4831 5.24978 17.3846C5.23353 17.2861 5.23712 17.1853 5.26033 17.0882C5.28354 16.9911 5.32591 16.8996 5.38494 16.8191L7.70805 13.4994L5.38494 10.1798C5.32591 10.0993 5.28354 10.0078 5.26033 9.91065C5.23712 9.81354 5.23353 9.71277 5.24978 9.61426C5.26602 9.51575 5.30178 9.42147 5.35494 9.33696C5.4081 9.25244 5.4776 9.1794 5.55937 9.1221C5.64113 9.0648 5.73352 9.0244 5.8311 9.00328C5.92868 8.98216 6.0295 8.98073 6.12764 8.99908C6.22579 9.01744 6.31928 9.0552 6.40263 9.11016C6.48598 9.16512 6.55753 9.23618 6.61306 9.31915L8.62398 12.1916L10.6349 9.31915C10.7509 9.16098 10.9242 9.05454 11.1177 9.02262C11.3112 8.99071 11.5095 9.03587 11.6701 9.14843C11.8308 9.26098 11.9409 9.43197 11.9769 9.62476C12.013 9.81754 11.9721 10.0168 11.863 10.1798L9.53991 13.4994L11.863 16.8191ZM17.9989 14.9994H14.2489C14.1097 14.9994 13.9731 14.9606 13.8546 14.8874C13.7362 14.8142 13.6404 14.7094 13.5781 14.5848C13.5158 14.4603 13.4895 14.3208 13.502 14.1821C13.5145 14.0434 13.5654 13.9109 13.6489 13.7994L17.0239 9.29946C17.1161 9.18184 17.1839 9.04704 17.2234 8.90292C17.2629 8.75879 17.2733 8.60825 17.254 8.46007C17.2347 8.31188 17.186 8.16904 17.1109 8.03986C17.0357 7.91069 16.9356 7.79778 16.8164 7.70773C16.6971 7.61768 16.5611 7.5523 16.4163 7.51539C16.2715 7.47848 16.1208 7.47079 15.973 7.49277C15.8252 7.51475 15.6832 7.56596 15.5554 7.64341C15.4276 7.72086 15.3165 7.82299 15.2286 7.94385C15.1171 8.07545 15.0347 8.22911 14.9867 8.39478C14.968 8.49211 14.9302 8.58476 14.8754 8.66738C14.8206 8.75 14.7501 8.82094 14.6677 8.8761C14.5854 8.93127 14.4929 8.96957 14.3957 8.98878C14.2984 9.008 14.1983 9.00775 14.1012 8.98804C14.0041 8.96834 13.9118 8.92958 13.8297 8.87401C13.7477 8.81843 13.6774 8.74713 13.6231 8.66425C13.5687 8.58136 13.5313 8.48852 13.5131 8.3911C13.4948 8.29367 13.4961 8.1936 13.5168 8.09666C13.5957 7.70894 13.7607 7.3439 13.9996 7.02852C14.2386 6.71315 14.5453 6.45549 14.8972 6.2746C15.2491 6.09371 15.6372 5.9942 16.0327 5.98342C16.4282 5.97265 16.8211 6.05089 17.1824 6.21237C17.5436 6.37384 17.8639 6.61441 18.1197 6.91632C18.3754 7.21822 18.5601 7.57373 18.66 7.95659C18.7599 8.33944 18.7725 8.73985 18.6968 9.12822C18.6212 9.5166 18.4592 9.88301 18.223 10.2004L15.7489 13.4994H17.9989C18.1978 13.4994 18.3886 13.5784 18.5292 13.7191C18.6699 13.8598 18.7489 14.0505 18.7489 14.2494C18.7489 14.4483 18.6699 14.6391 18.5292 14.7798C18.3886 14.9204 18.1978 14.9994 17.9989 14.9994Z" fill="black"/>
</svg>
