<svg xmlns="http://www.w3.org/2000/svg" width="24" height="24" fill="currentColor" viewBox="0 0 24 24"><path d="M21.665 3.097a0.81 0.81 0 0 0-0.761-0.762C13.196 1.883 7.021 4.204 4.39 8.557a8.82 8.82 0 0 0-1.293 4.961 10.32 10.32 0 0 0 0.672 3.26 0.406 0.406 0 0 0 0.67 0.146l8.606-8.739a0.81 0.81 0 0 1 1.146 1.146l-9.405 9.547-1.437 1.437a0.828 0.828 0 0 0-0.061 1.124 0.81 0.81 0 0 0 1.186 0.043l1.7-1.7c1.432 0.692 2.876 1.07 4.309 1.121q0.169 0.006 0.337 0.006a8.808 8.808 0 0 0 4.624-1.299c4.354-2.633 6.676-8.806 6.222-16.514z"/></svg>