<?xml version="1.0" encoding="utf-8"?>
<svg xmlns="http://www.w3.org/2000/svg" width="512" height="512" viewBox="0 0 512 512">
<path d="m384.01,109.46l-51.87-77.46-12.69,26.08c-11.2-3.36-22.79-5.83-34.7-7.31-.15-.02-.29-.04-.44-.06-1.46-.18-2.95-.35-4.43-.5h-.08c-7.14-.72-14.39-1.09-21.73-1.09-116.02,0-210.06,92.64-210.06,206.93,0,51.41,19.03,98.45,50.54,134.63l22.91-22.57c-26.63-31.41-41.14-70.63-41.14-112.06,0-46.77,18.49-90.74,52.06-123.81,12.32-12.13,26.14-22.28,41.04-30.25,25.68-13.74,54.6-21.03,84.64-21.03,11.62,0,23.07,1.09,34.23,3.23,4.02,1.62,8,3.39,11.9,5.23l-13.98,28.71,93.79-8.67Zm29.45,11.87l-22.91,22.57c26.63,31.41,41.14,70.64,41.14,112.06,0,46.77-18.49,90.74-52.06,123.81-12.32,12.14-26.15,22.29-41.04,30.25-25.68,13.74-54.59,21.03-84.64,21.03-11.62,0-23.08-1.09-34.23-3.23-4.02-1.62-8-3.39-11.9-5.23l13.98-28.71-93.77,8.65,22.43,33.56,29.42,43.92,12.69-26.08c11.2,3.36,22.79,5.83,34.7,7.31.15.02.29.04.44.06,1.46.18,2.95.35,4.43.5h.08c7.14.73,14.39,1.09,21.73,1.09,116.02,0,210.06-92.64,210.06-206.93,0-51.41-19.04-98.45-50.54-134.63Zm-157.46,198.22c-.1-.03-.21-.05-.32-.08l.51.65.59-.77c-.27.07-.53.14-.78.2Zm52.58-150.96c-20.54-26.17-40.84-45.1-41.69-45.9l-10.89-10.1-10.89,10.1c-.85.8-21.15,19.73-41.69,45.9-28.81,36.69-43.42,68.78-43.42,95.36,0,20.08,8.38,48.61,48.31,70.49,11.65,6.38,23.25,10.64,31.69,13.25v35.73c0,8.84,7.16,16,16,16s16-7.16,16-16v-35.73c8.44-2.61,20.04-6.87,31.69-13.25,39.93-21.88,48.31-50.41,48.31-70.49,0-26.58-14.61-58.67-43.42-95.36Zm-68.58,145.27c-19.87-7.53-48-22.96-48-49.91,0-6.56,1.49-13.66,4.08-21.02l43.92,55.98v14.95Zm0-66.85l-27.91-35.58c8.39-13.13,18.39-25.93,27.91-37v72.58Zm16.19,72.53l-.51-.65c.11.03.22.05.32.08.25-.06.51-.13.78-.2l-.59.77Zm15.81-145.04c3.7,4.29,7.56,8.93,11.42,13.84,5.94,7.57,11.19,14.88,15.73,21.88l-27.15,35.67v-71.39Zm0,139.37v-15.1l43.46-57.1c3.01,8.22,4.54,15.68,4.54,22.28,0,26.95-28.15,42.39-48,49.92Zm-15.22,5.49l-.59.77-.51-.65c.11.03.22.05.32.08.25-.06.51-.13.78-.2Z"/>
</svg>
