<?xml version="1.0" encoding="utf-8"?>
<svg xmlns="http://www.w3.org/2000/svg" width="512" height="512" viewBox="0 0 512 512">
<path d="m479.16,190.31l-28.95-57.89c-1.35-2.71-4.12-4.42-7.15-4.42h-115.06c-4.42,0-8,3.58-8,8v32c0-4.42-3.58-8-8-8H40c-4.42,0-8,3.58-8,8v176c0,4.42,3.58,8,8,8h10.73c6.59,18.64,24.37,32,45.27,32s38.68-13.36,45.27-32h37.46c6.59,18.64,24.37,32,45.27,32s38.68-13.36,45.27-32h13.54l-10.81,32h96l-10.81-32h13.54c6.59,18.64,24.37,32,45.27,32s38.68-13.36,45.27-32h10.73c4.42,0,8-3.58,8-8v-150.11c0-1.24-.29-2.47-.84-3.58ZM111.87,338.09c-.91,7.12-6.66,12.87-13.78,13.78-10.45,1.33-19.29-7.51-17.96-17.96.91-7.12,6.66-12.87,13.78-13.78,10.45-1.33,19.29,7.51,17.96,17.96Zm128,0c-.91,7.12-6.66,12.87-13.78,13.78-10.45,1.33-19.29-7.51-17.96-17.96.91-7.12,6.66-12.87,13.78-13.78,10.45-1.33,19.29,7.51,17.96,17.96Zm192,0c-.91,7.12-6.66,12.87-13.78,13.78-10.45,1.33-19.29-7.51-17.96-17.96.91-7.12,6.66-12.87,13.78-13.78,10.45-1.33,19.29,7.51,17.96,17.96Zm-47.87-146.09v-32h48l16,32h-64Z"/>
</svg>
