<svg width="24" height="24" viewBox="0 0 24 24" fill="none" xmlns="http://www.w3.org/2000/svg">
<g clip-path="url(#clip0_2021_25862)">
<path fill-rule="evenodd" clip-rule="evenodd" d="M14.1104 5.25586C14.162 5.25589 14.2141 5.26085 14.2646 5.27148L21.3789 6.77148L21.5049 6.81055C21.5455 6.82695 21.5848 6.84679 21.6221 6.87012C22.0102 7.11342 21.984 7.09311 22.3613 7.36816C22.5048 7.4728 22.6066 7.62526 22.6484 7.79785L23.9863 13.3232C24.0003 13.381 24.0068 13.4406 24.0068 13.5V17.249C24.0068 17.655 23.8434 18.0265 23.5684 18.3018C23.5054 18.3647 23.4363 18.4205 23.3643 18.4707C23.5339 18.6646 23.6885 18.8785 23.8018 19.1094C23.9707 19.4539 24.0854 19.9042 23.9424 20.373C23.8247 20.7585 23.5071 20.9245 23.2461 20.9736C23.2351 20.976 23.224 20.9786 23.2129 20.9805C23.2014 20.9822 23.1899 20.984 23.1787 20.9854C23.1488 20.989 23.1178 20.9922 23.0869 20.9922H19.1807C19.1494 20.9922 19.1181 20.9891 19.0879 20.9854C19.0767 20.984 19.0652 20.9822 19.0537 20.9805C19.0426 20.9786 19.0315 20.976 19.0205 20.9736C18.7597 20.9243 18.4428 20.7581 18.3252 20.373C18.1823 19.9043 18.2969 19.4539 18.4658 19.1094C18.5288 18.9811 18.6063 18.8589 18.6895 18.7412H17.042C16.7029 20.0411 15.5045 20.9979 14.1123 20.998C12.7141 20.998 11.5427 20.0404 11.21 18.7461L8.91211 18.7432C8.57843 20.0361 7.40785 20.9921 6.01074 20.9922C4.61315 20.9922 3.44171 20.0357 3.1084 18.7422H1.51074C1.11296 18.7422 0.731492 18.584 0.450195 18.3027C0.168891 18.0214 0.0107427 17.64 0.0107422 17.2422V6.75C0.0107423 6.35218 0.168891 5.97076 0.450195 5.68945C0.731491 5.40821 1.11296 5.25 1.51074 5.25L14.1104 5.25586ZM14.1123 16.498C13.2839 16.498 12.6123 17.1696 12.6123 17.998C12.6124 18.8264 13.2839 19.498 14.1123 19.498C14.9484 19.4978 15.6367 18.8116 15.6367 17.9912C15.6367 17.1766 14.9543 16.4983 14.1123 16.498ZM6.01074 16.4922C5.18231 16.4922 4.51074 17.1638 4.51074 17.9922C4.51074 18.8206 5.18232 19.4922 6.01074 19.4922C6.83908 19.4921 7.51074 18.8206 7.51074 17.9922C7.51074 17.1638 6.83909 16.4923 6.01074 16.4922ZM21.1328 18.7451C21.0698 18.7537 20.9486 18.7851 20.7783 18.8721C20.5837 18.9715 20.3763 19.117 20.1953 19.2861C20.1214 19.3552 20.057 19.4252 20.001 19.4922H22.2666C22.2106 19.4252 22.1462 19.3552 22.0723 19.2861C21.8913 19.1171 21.6838 18.9715 21.4893 18.8721C21.3174 18.7843 21.1954 18.7534 21.1328 18.7451ZM1.51074 12.75H13.3604V6.75488L1.51074 6.75V12.75ZM14.8604 12.75H22.3037L21.2559 8.42188C21.2173 8.39433 21.1891 8.37295 21.1602 8.35352C21.106 8.3172 21.0524 8.28343 20.9365 8.21094L14.8604 6.92969V12.75Z" fill="black"/>
</g>
<defs>
<clipPath id="clip0_2021_25862">
<rect width="24" height="24" fill="white"/>
</clipPath>
</defs>
</svg>
