<svg xmlns="http://www.w3.org/2000/svg" width="24" height="24" fill="currentColor" viewBox="0 0 24 24"><path d="M22.53 12v0.154c-0.035 1.444-0.57 3.086-2.836 3.086-2.342 0-2.836-1.762-2.835-3.24V7.95a0.81 0.81 0 0 0-0.864-0.81 0.828 0.828 0 0 0-0.756 0.838v0.405a4.86 4.86 0 1 0 0.681 6.485 4.08 4.08 0 0 0 0.342 0.506c0.544 0.677 1.579 1.487 3.431 1.487a5.52 5.52 0 0 0 0.934-0.075 0.406 0.406 0 0 1 0.414 0.607 10.536 10.536 0 0 1-9.255 5.138c-5.546-0.112-10.096-4.571-10.31-10.113a10.53 10.53 0 1 1 21.052-0.417zM8.76 12A3.24 3.24 0 1 0 12 8.76 3.24 3.24 0 0 0 8.76 12"/></svg>