<svg width="24" height="24" viewBox="0 0 24 24" fill="none" xmlns="http://www.w3.org/2000/svg">
<path d="M17.9989 2.24854H5.99901C5.40227 2.24854 4.82998 2.48559 4.40803 2.90754C3.98607 3.32949 3.74902 3.90179 3.74902 4.49852V19.4984C3.74902 20.0951 3.98607 20.6674 4.40803 21.0894C4.82998 21.5113 5.40227 21.7484 5.99901 21.7484H17.9989C18.5956 21.7484 19.1679 21.5113 19.5899 21.0894C20.0118 20.6674 20.2489 20.0951 20.2489 19.4984V4.49852C20.2489 3.90179 20.0118 3.32949 19.5899 2.90754C19.1679 2.48559 18.5956 2.24854 17.9989 2.24854ZM5.99901 3.74852H17.9989C18.1978 3.74852 18.3886 3.82754 18.5292 3.96819C18.6699 4.10884 18.7489 4.29961 18.7489 4.49852V5.24851H5.24901V4.49852C5.24901 4.29961 5.32803 4.10884 5.46868 3.96819C5.60933 3.82754 5.8001 3.74852 5.99901 3.74852ZM17.9989 20.2484H5.99901C5.8001 20.2484 5.60933 20.1694 5.46868 20.0287C5.32803 19.8881 5.24901 19.6973 5.24901 19.4984V18.7484H18.7489V19.4984C18.7489 19.6973 18.6699 19.8881 18.5292 20.0287C18.3886 20.1694 18.1978 20.2484 17.9989 20.2484Z" fill="black"/>
</svg>
