<svg viewBox="0 0 24 24" fill="none" xmlns="http://www.w3.org/2000/svg" width="24" height="24">
<path d="M12.006 8.072C12.337 8.072 12.606 7.803 12.606 7.472V5.636H14.429C14.761 5.636 15.029 5.367 15.029 5.036 15.029 4.705 14.761 4.436 14.429 4.436H12.606V2.612C12.606 2.281 12.337 2.012 12.006 2.012 11.675 2.013 11.406 2.281 11.406 2.612V4.436H9.57C9.239 4.436 8.97 4.705 8.97 5.036 8.97 5.367 9.239 5.636 9.57 5.636H11.406V7.472C11.406 7.803 11.675 8.072 12.006 8.072ZM8.16 17.598H1.682L1.68 16.398H8.16V11.403H3.18C2.352 11.403 1.679 12.074 1.679 12.903V21.093C1.679 21.921 2.352 22.593 3.18 22.593H8.16V17.598ZM14.64 11.403H9.36V16.398H14.64V11.403ZM22.321 12.903C22.321 12.075 21.649 11.403 20.821 11.403H15.84V16.398H22.321V12.903ZM14.64 17.598H9.36V22.593H14.64V17.598ZM20.821 22.593C21.649 22.593 22.321 21.921 22.321 21.093V17.598H15.84V22.593H20.821Z" fill="black"/>
</svg>