<svg width="24" height="24" viewBox="0 0 24 24" fill="none" xmlns="http://www.w3.org/2000/svg">
<path d="M7.875 15.375V19.5H3.0625C2.61377 19.5 2.25 19.1452 2.25 18.708V15.375H7.875ZM7.875 10.125V13.875H2.25V10.125H7.875ZM20.9375 4.5C21.3862 4.5 21.75 4.85477 21.75 5.29199V8.625H16.125V4.5H20.9375ZM7.875 4.5V8.625H2.25V5.29199C2.25 4.85477 2.61377 4.5 3.0625 4.5H7.875ZM14.625 4.5V8.625H9.375V4.5H14.625Z" fill="black"/>
<path fill-rule="evenodd" clip-rule="evenodd" d="M12.75 13.5V12C12.75 11.5858 13.0858 11.25 13.5 11.25C13.9142 11.25 14.25 11.5858 14.25 12V13.5H15.75C16.1642 13.5 16.5 13.8358 16.5 14.25C16.5 14.6642 16.1642 15 15.75 15H14.25V16.5C14.25 16.9142 13.9142 17.25 13.5 17.25C13.0858 17.25 12.75 16.9142 12.75 16.5V15H11.25C10.8358 15 10.5 14.6642 10.5 14.25C10.5 13.8358 10.8358 13.5 11.25 13.5H12.75Z" fill="black"/>
<path fill-rule="evenodd" clip-rule="evenodd" d="M20.25 13.5V12.75C20.25 12.3358 20.5858 12 21 12C21.4142 12 21.75 12.3358 21.75 12.75V13.5H22.5C22.9142 13.5 23.25 13.8358 23.25 14.25C23.25 14.6642 22.9142 15 22.5 15H21.75V15.75C21.75 16.1642 21.4142 16.5 21 16.5C20.5858 16.5 20.25 16.1642 20.25 15.75V15H19.5C19.0858 15 18.75 14.6642 18.75 14.25C18.75 13.8358 19.0858 13.5 19.5 13.5H20.25Z" fill="black"/>
<path d="M15.333 16.9455C15.0419 17.2365 14.7697 17.9151 15.2805 18.426L19.7966 22.9421C20.3074 23.4529 20.9861 23.1806 21.2771 22.8896L22.1396 22.0271C22.4306 21.7361 22.7029 21.0574 22.192 20.5466L17.676 16.0305C17.1651 15.5197 16.4865 15.792 16.1954 16.083L15.333 16.9455ZM20.5106 21.5347L18.6129 19.6371L18.8871 19.3629L20.7847 21.2606L20.5106 21.5347ZM17.8264 18.3023L17.5523 18.5764L16.6878 17.712L16.9619 17.4378L17.8264 18.3023Z" fill="black"/>
<path fill-rule="evenodd" clip-rule="evenodd" d="M12.75 20.25V19.5C12.75 19.0858 13.0858 18.75 13.5 18.75C13.9142 18.75 14.25 19.0858 14.25 19.5V20.25H15C15.4142 20.25 15.75 20.5858 15.75 21C15.75 21.4142 15.4142 21.75 15 21.75H14.25V22.5C14.25 22.9142 13.9142 23.25 13.5 23.25C13.0858 23.25 12.75 22.9142 12.75 22.5V21.75H12C11.5858 21.75 11.25 21.4142 11.25 21C11.25 20.5858 11.5858 20.25 12 20.25H12.75Z" fill="black"/>
</svg>
