<?xml version="1.0" encoding="UTF-8"?>
<svg width="512" height="512" viewBox="0 0 512 512" fill="none" xmlns="http://www.w3.org/2000/svg">
<path d="M384 32H128C114.44 32 102.76 40.56 98.12 52.56C96.76 56.1 96 59.96 96 64V448C96 452.02 96.76 455.88 98.12 459.44C102.76 471.44 114.44 480 128 480H384C401.6 480 416 465.6 416 448V64C416 46.4 401.6 32 384 32ZM256 432C247.16 432 240 424.84 240 416C240 407.16 247.16 400 256 400C257.4 400 258.74 400.18 260.04 400.52C266.92 402.3 272 408.56 272 416C272 424.84 264.84 432 256 432ZM384 352H128V64H384V352Z" fill="black"/>
</svg>
