<svg viewBox="0 0 24 24" fill="none" xmlns="http://www.w3.org/2000/svg" width="24" height="24">
<path d="M8.28 19.298H3.18C2.684 19.298 2.281 18.895 2.28 18.398V15.649H8.28V19.298ZM14.76 19.298H9.48V15.649H14.76V19.298ZM21.72 18.398C21.719 18.895 21.316 19.298 20.82 19.298H15.96V15.649H21.72V18.398ZM12.734 10.43C12.968 10.196 13.348 10.196 13.582 10.43 13.816 10.664 13.816 11.044 13.582 11.278L12.86 11.999 13.582 12.721C13.816 12.955 13.816 13.335 13.582 13.569 13.348 13.803 12.968 13.803 12.734 13.569L12.012 12.847 11.291 13.569C11.057 13.803 10.677 13.803 10.443 13.569 10.208 13.335 10.208 12.955 10.443 12.721L11.163 11.999 10.443 11.278C10.208 11.044 10.208 10.664 10.443 10.43 10.677 10.196 11.057 10.196 11.291 10.43L12.012 11.15 12.734 10.43ZM6.952 10.481C7.399 10.481 7.761 10.844 7.761 11.291V12.709C7.761 13.156 7.399 13.519 6.952 13.519H1.484C1.036 13.519 0.674 13.156 0.674 12.709V11.291C0.674 10.844 1.036 10.481 1.484 10.481H6.952ZM22.53 10.481C22.978 10.481 23.34 10.844 23.34 11.291V12.709C23.34 13.156 22.978 13.519 22.53 13.519H17.064C16.616 13.519 16.253 13.156 16.253 12.709V11.291C16.253 10.844 16.616 10.481 17.064 10.481H22.53ZM8.28 8.449H2.28V5.603C2.281 5.106 2.684 4.702 3.18 4.702H8.28V8.449ZM14.76 8.449H9.48V4.702H14.76V8.449ZM20.82 4.702C21.316 4.702 21.719 5.106 21.72 5.603V8.449H15.96V4.702H20.82Z" fill="black"/>
</svg>