<svg width="24" height="24" viewBox="0 0 24 24" fill="none" xmlns="http://www.w3.org/2000/svg">
<path d="M8.80078 18.2383H4.65039C4.23634 18.2383 3.90066 17.9023 3.90039 17.4883V14.6885H8.80078V18.2383ZM14.2002 18.2383H9.80078V14.6885H14.2002V18.2383ZM20.1006 17.4883C20.1003 17.9021 19.7644 18.238 19.3506 18.2383H15.2002V14.6885H20.1006V17.4883ZM8.80078 13.6885H3.90039V10.6387H8.80078V13.6885ZM18.9814 1.97559C19.1933 1.97566 19.3979 2.06027 19.5479 2.20996L21.7812 4.44434L21.7822 4.44336C21.9319 4.59333 22.0156 4.79689 22.0156 5.00879C22.0156 5.22066 21.9319 5.42426 21.7822 5.57422L15.6152 11.7422C15.4654 11.8916 15.2624 11.9754 15.0508 11.9756H12.8164C12.6045 11.9755 12.3999 11.891 12.25 11.7412C12.1004 11.5912 12.0156 11.3867 12.0156 11.1748L12.0146 8.94141C12.0147 8.72952 12.1012 8.52589 12.251 8.37598L18.416 2.20996C18.5659 2.06022 18.7696 1.97574 18.9814 1.97559ZM8.80078 9.63867H3.90039V6.83789C3.9006 6.42385 4.23631 6.08789 4.65039 6.08789H8.80078V9.63867ZM17.499 4.2627L19.7314 6.49414L21.2178 5.00781L18.9863 2.77539L17.499 4.2627Z" fill="black"/>
</svg>
