<svg viewBox="0 0 24 24" fill="none" xmlns="http://www.w3.org/2000/svg" width="24" height="24">
<path d="M12.607 5.959L12.614 1.166H15.902C16.732 1.166 17.404 1.838 17.405 2.666V5.97L12.607 5.959ZM6.605 5.947V2.666C6.605 1.838 7.278 1.166 8.107 1.166H11.414L11.407 5.957 6.605 5.947ZM8.107 11.95C7.277 11.949 6.605 11.278 6.605 10.45V7.147L11.406 7.157 11.398 11.95H8.107ZM12.606 7.159L17.405 7.17V10.45C17.405 11.278 16.732 11.95 15.902 11.95H12.598L12.606 7.159ZM1.805 15.591C1.473 15.591 1.205 15.322 1.205 14.991 1.205 14.659 1.473 14.391 1.805 14.391H22.205C22.536 14.391 22.805 14.659 22.805 14.991 22.805 15.322 22.536 15.591 22.205 15.591H1.805ZM1.805 19.191C1.473 19.191 1.205 18.922 1.205 18.591 1.205 18.259 1.473 17.991 1.805 17.991H22.205C22.536 17.991 22.805 18.259 22.805 18.591 22.805 18.922 22.536 19.191 22.205 19.191H1.805ZM1.805 22.791C1.473 22.791 1.205 22.522 1.205 22.191 1.205 21.859 1.473 21.591 1.805 21.591H11.405C11.736 21.591 12.005 21.859 12.005 22.191 12.005 22.522 11.736 22.791 11.405 22.791H1.805Z" fill="black"/>
</svg>