<svg viewBox="0 0 24 24" fill="none" xmlns="http://www.w3.org/2000/svg" width="24" height="24">
<path d="M3.18 3.704C2.352 3.704 1.681 4.376 1.68 5.204V17.985C1.681 18.813 2.352 19.485 3.18 19.485H20.821C21.649 19.484 22.32 18.813 22.321 17.985V5.204C22.321 4.376 21.649 3.705 20.821 3.704H3.18ZM11.227 11.516C11.558 11.516 11.827 11.785 11.827 12.116 11.826 12.447 11.558 12.716 11.227 12.716H5.227C4.895 12.716 4.627 12.447 4.627 12.116 4.627 11.785 4.895 11.516 5.227 11.516H11.227ZM17.227 9.086C17.558 9.086 17.827 9.354 17.827 9.686 17.826 10.017 17.558 10.285 17.227 10.286H5.227C4.895 10.286 4.627 10.017 4.627 9.686 4.627 9.354 4.895 9.086 5.227 9.086H17.227ZM11.227 6.655C11.558 6.655 11.826 6.924 11.827 7.255 11.827 7.586 11.558 7.855 11.227 7.855H5.227C4.895 7.855 4.627 7.586 4.627 7.255 4.627 6.924 4.895 6.655 5.227 6.655H11.227Z" fill="black"/>
</svg>