<svg viewBox="0 0 24 24" fill="none" xmlns="http://www.w3.org/2000/svg" width="24" height="24">
<path d="M8.161 19.697H3.18C2.683 19.697 2.281 19.294 2.28 18.797V15.437H8.161V19.697ZM14.64 19.697H9.361V15.437H14.64V19.697ZM21.721 18.797C21.721 19.294 21.317 19.696 20.821 19.697H15.84V15.437H21.721V18.797ZM8.161 14.237H2.28V10.577H8.161V14.237ZM10.406 13.18H13.021V14.225H9.361V10.566H10.406V13.18ZM20.378-0.029C20.632-0.029 20.877 0.072 21.057 0.252L23.737 2.933 23.739 2.932C23.918 3.112 24.019 3.356 24.019 3.611 24.019 3.865 23.918 4.109 23.739 4.289L16.338 11.691C16.158 11.87 15.915 11.97 15.661 11.971H12.98C12.725 11.971 12.48 11.869 12.3 11.689 12.12 11.509 12.019 11.264 12.019 11.01L12.018 8.33C12.018 8.075 12.121 7.831 12.301 7.651L19.699 0.252C19.879 0.072 20.124-0.029 20.378-0.029ZM8.161 9.377H2.28V6.016C2.281 5.52 2.684 5.116 3.18 5.116H8.161V9.377ZM18.599 2.715L21.278 5.393 23.061 3.609 20.384 0.93 18.599 2.715Z" fill="black"/>
</svg>