<svg width="24" height="24" viewBox="0 0 24 24" fill="none" xmlns="http://www.w3.org/2000/svg">
<path fill-rule="evenodd" clip-rule="evenodd" d="M3.82617 3.75C2.95572 3.75009 2.25009 4.45572 2.25 5.32617V17.1738C2.25009 18.0443 2.95572 18.7499 3.82617 18.75H20.1738C21.0443 18.7499 21.7499 18.0443 21.75 17.1738V5.32617C21.7499 4.45572 21.0443 3.75009 20.1738 3.75H3.82617ZM18 11.25C18.4142 11.25 18.75 11.5858 18.75 12C18.75 12.4142 18.4142 12.75 18 12.75H12.75C12.3358 12.75 12 12.4142 12 12C12 11.5858 12.3358 11.25 12.75 11.25H18ZM18 9C18.4142 9 18.75 9.33579 18.75 9.75C18.75 10.1642 18.4142 10.5 18 10.5H6.75C6.33579 10.5 6 10.1642 6 9.75C6 9.33579 6.33579 9 6.75 9H18ZM18 6.75C18.4142 6.75 18.75 7.08579 18.75 7.5C18.75 7.91421 18.4142 8.25 18 8.25H12.75C12.3358 8.25 12 7.91421 12 7.5C12 7.08579 12.3358 6.75 12.75 6.75H18Z" fill="black"/>
</svg>
