<svg width="24" height="24" viewBox="0 0 24 24" fill="none" xmlns="http://www.w3.org/2000/svg">
<path d="M8.80078 18.0811H4.65039C4.23618 18.0811 3.90039 17.7453 3.90039 17.3311V14.5322H8.80078V18.0811ZM14.2002 18.0811H9.80078V14.5322H14.2002V18.0811ZM20.0996 17.3311C20.0996 17.7453 19.7638 18.0811 19.3496 18.0811H15.2002V14.5322H20.0996V17.3311ZM6.58008 13.5322H5.05273L8.10156 10.4824H9.62988L6.58008 13.5322ZM9.52148 13.5322H7.99414L11.0439 10.4824H12.5703L9.52148 13.5322ZM12.4629 13.5322H10.9355L13.9844 10.4824H15.5127L12.4629 13.5322ZM15.4043 13.5322H13.877L16.9268 10.4824H18.4541L15.4043 13.5322ZM20.0996 11.7783L18.3467 13.5322H16.8184L19.8682 10.4824H20.0996V11.7783ZM20.0996 13.5322H19.7607L20.0996 13.1924V13.5322ZM3.90039 13.2695V10.4824H6.6875L3.90039 13.2695ZM8.80078 9.48242H3.90039V6.68164C3.90039 6.26743 4.23618 5.93164 4.65039 5.93164H8.80078V9.48242ZM14.2002 9.48242H9.80078V5.93164H14.2002V9.48242ZM19.3496 5.93164C19.7638 5.93164 20.0996 6.26743 20.0996 6.68164V9.48242H15.2002V5.93164H19.3496Z" fill="black"/>
</svg>
