<svg viewBox="0 0 24 24" fill="none" xmlns="http://www.w3.org/2000/svg" width="24" height="24">
<path d="M20.821 4.11C21.649 4.11 22.321 4.782 22.321 5.61V18.39C22.32 19.218 21.649 19.89 20.821 19.89H3.18C2.352 19.89 1.681 19.218 1.68 18.39V5.61C1.681 4.781 2.352 4.11 3.18 4.11H20.821ZM5.227 13.83C4.895 13.83 4.627 14.099 4.627 14.43 4.627 14.762 4.895 15.03 5.227 15.03H11.227C11.558 15.03 11.826 14.762 11.827 14.43 11.827 14.099 11.558 13.831 11.227 13.83H5.227ZM5.227 11.4C4.895 11.4 4.627 11.669 4.627 12 4.627 12.331 4.895 12.6 5.227 12.6H17.227C17.558 12.6 17.827 12.331 17.827 12 17.827 11.669 17.558 11.4 17.227 11.4H5.227ZM5.227 8.97C4.895 8.97 4.627 9.238 4.627 9.57 4.627 9.901 4.895 10.17 5.227 10.17H11.227C11.558 10.169 11.827 9.901 11.827 9.57 11.826 9.238 11.558 8.97 11.227 8.97H5.227Z" fill="black"/>
</svg>