<svg width="24" height="24" viewBox="0 0 24 24" fill="none" xmlns="http://www.w3.org/2000/svg">
<path d="M7.875 19.5H3.82617C2.95572 19.4999 2.25009 18.7943 2.25 17.9238V15.375H7.875V19.5ZM14.625 19.4961C14.5997 19.4973 14.5744 19.5 14.5488 19.5H9.375V15.375H14.625V19.4961ZM16.2012 15.375C16.1591 15.3751 16.1251 15.4091 16.125 15.4512V15.375H16.2012ZM7.875 13.875H2.25V10.125H7.875V13.875ZM14.625 13.875H9.375V10.125H14.625V13.875ZM21.75 13.7988C21.75 13.8244 21.7473 13.8497 21.7461 13.875H16.125V10.125H21.75V13.7988ZM7.875 8.625H2.25V6.07617C2.25009 5.20572 2.95572 4.50009 3.82617 4.5H7.875V8.625ZM14.625 8.625H9.375V4.5H14.625V8.625ZM20.1738 4.5C21.0443 4.50009 21.7499 5.20571 21.75 6.07617V8.625H16.125V4.5H20.1738Z" fill="black"/>
<path fill-rule="evenodd" clip-rule="evenodd" d="M20.1465 16.545V17.9999H21.6019C22.016 18.0001 22.3519 18.3358 22.3519 18.7499C22.3519 19.164 22.016 19.4997 21.6019 19.4999H20.1465V20.9551C20.1464 21.3692 19.8106 21.7051 19.3965 21.7051C18.9824 21.7051 18.6467 21.3692 18.6465 20.9551V19.4999H17.1918C16.7776 19.4999 16.4418 19.1641 16.4418 18.7499C16.4418 18.3357 16.7776 17.9999 17.1918 17.9999H18.6465V16.545C18.6465 16.1307 18.9823 15.795 19.3965 15.795C19.8108 15.795 20.1465 16.1307 20.1465 16.545Z" fill="black"/>
</svg>
