<svg viewBox="0 0 24 24" fill="none" xmlns="http://www.w3.org/2000/svg" width="24" height="24">
<path d="M12.006 15.928C12.337 15.928 12.606 16.197 12.606 16.528V18.364H14.429C14.761 18.364 15.029 18.633 15.029 18.964 15.029 19.295 14.761 19.564 14.429 19.564H12.606V21.387C12.606 21.719 12.337 21.987 12.006 21.987 11.675 21.987 11.406 21.719 11.406 21.387V19.564H9.57C9.239 19.564 8.97 19.295 8.97 18.964 8.97 18.633 9.239 18.364 9.57 18.364H11.406V16.528C11.406 16.197 11.675 15.928 12.006 15.928ZM8.16 6.402H1.682L1.68 7.602H8.16V12.597H3.18C2.352 12.597 1.679 11.926 1.679 11.097V2.907C1.679 2.079 2.352 1.407 3.18 1.407H8.16V6.402ZM14.64 12.597H9.36V7.602H14.64V12.597ZM22.321 11.097C22.321 11.925 21.649 12.597 20.821 12.597H15.84V7.602H22.321V11.097ZM14.64 6.402H9.36V1.407H14.64V6.402ZM20.821 1.407C21.649 1.408 22.321 2.079 22.321 2.907V6.402H15.84V1.407H20.821Z" fill="black"/>
</svg>