<svg width="24" height="24" viewBox="0 0 24 24" fill="none" xmlns="http://www.w3.org/2000/svg">
<path d="M7.99512 6.99805L8.00098 3.00391H10.7412C11.4324 3.00391 11.9928 3.56387 11.9932 4.25391V7.00684L7.99512 6.99805ZM2.99316 6.98828V4.25391C2.99354 3.56393 3.55402 3.004 4.24512 3.00391H7.00098L6.99512 6.99609L2.99316 6.98828ZM4.24512 11.9902C3.55383 11.9901 2.99323 11.4305 2.99316 10.7402V7.98828L6.99414 7.99609L6.9873 11.9902H4.24512ZM7.99414 7.99805L11.9932 8.00684V10.7402C11.9931 11.4305 11.4326 11.9902 10.7412 11.9902H7.9873L7.99414 7.99805ZM3.50391 14.9922C3.22776 14.9922 3.00391 14.7683 3.00391 14.4922C3.00391 14.216 3.22776 13.9922 3.50391 13.9922H20.5039C20.78 13.9922 21.0039 14.216 21.0039 14.4922C21.0039 14.7683 20.78 14.9922 20.5039 14.9922H3.50391ZM3.50391 17.9922C3.22776 17.9922 3.00391 17.7683 3.00391 17.4922C3.00391 17.216 3.22776 16.9922 3.50391 16.9922H20.5039C20.78 16.9922 21.0039 17.216 21.0039 17.4922C21.0039 17.7683 20.78 17.9922 20.5039 17.9922H3.50391ZM3.50391 20.9922C3.22776 20.9922 3.00391 20.7683 3.00391 20.4922C3.00391 20.216 3.22776 19.9922 3.50391 19.9922H11.5039C11.78 19.9922 12.0039 20.216 12.0039 20.4922C12.0039 20.7683 11.78 20.9922 11.5039 20.9922H3.50391Z" fill="black"/>
</svg>
