<svg viewBox="0 0 24 24" fill="none" xmlns="http://www.w3.org/2000/svg" width="24" height="24">
<path d="M12.708 15.844C13.155 15.844 13.518 16.206 13.518 16.653V20.097C13.517 20.544 13.155 20.906 12.708 20.906H11.29C10.843 20.906 10.48 20.543 10.48 20.097V16.653C10.48 16.206 10.843 15.844 11.29 15.844H12.708ZM9 19.31H3.18C2.684 19.31 2.281 18.907 2.28 18.41V15.049H9V19.31ZM21.721 18.41C21.72 18.907 21.317 19.31 20.821 19.31H15V15.049H21.721V18.41ZM9 13.849H2.28V10.189H9V13.849ZM21.721 13.849H15V10.189H21.721V13.849ZM12.721 10.44C12.955 10.207 13.335 10.206 13.569 10.44 13.803 10.674 13.803 11.055 13.569 11.29L12.847 12.011 13.569 12.732C13.803 12.967 13.803 13.347 13.569 13.581 13.335 13.815 12.955 13.815 12.721 13.581L11.999 12.859 11.278 13.581C11.044 13.815 10.664 13.815 10.43 13.581 10.196 13.347 10.195 12.967 10.43 12.732L11.15 12.011 10.43 11.29C10.196 11.055 10.195 10.676 10.43 10.441 10.664 10.207 11.044 10.207 11.278 10.441L11.999 11.162 12.721 10.44ZM9 8.989H2.28V5.63C2.281 5.133 2.684 4.73 3.18 4.73H9V8.989ZM20.821 4.73C21.317 4.73 21.72 5.133 21.721 5.63V8.989H15V4.73H20.821ZM12.708 3.094C13.155 3.094 13.517 3.456 13.518 3.904V7.346C13.518 7.794 13.155 8.156 12.708 8.156H11.29C10.843 8.156 10.48 7.794 10.48 7.346V3.904C10.48 3.456 10.843 3.094 11.29 3.094H12.708Z" fill="black"/>
</svg>