<svg viewBox="0 0 24 24" fill="none" xmlns="http://www.w3.org/2000/svg" width="24" height="24">
<path d="M8.16 19.29H3.18C2.683 19.29 2.28 18.887 2.28 18.39V15.029H8.16V19.29ZM10.329 19.29H9.362V18.973L18.148 10.186H19.433L10.329 19.29ZM21.72 10.881L13.311 19.29H12.026L21.131 10.186H21.72V10.881ZM21.72 13.863L16.293 19.29H15.009L21.72 12.578V13.863ZM21.72 18.39C21.72 18.887 21.317 19.29 20.82 19.29H17.991L21.72 15.561V18.39ZM9.362 17.276V15.99L15.166 10.186H16.451L9.362 17.276ZM9.362 14.293V10.186H13.469L9.362 14.293ZM8.16 13.829H2.28V10.17H8.16V13.829ZM8.16 8.97H2.28V5.61C2.28 5.113 2.683 4.71 3.18 4.71H8.16V8.97ZM14.64 8.97H9.36V4.71H14.64V8.97ZM20.82 4.71C21.317 4.71 21.72 5.113 21.72 5.61V8.97H15.84V4.71H20.82Z" fill="black"/>
</svg>