<svg width="24" height="24" viewBox="0 0 24 24" fill="none" xmlns="http://www.w3.org/2000/svg">
<path d="M14.3135 14.8281C14.6167 14.5249 15.1088 14.5249 15.4121 14.8281L20.1191 19.5352C20.4224 19.8384 20.4224 20.3305 20.1191 20.6338L19.4199 21.332C19.1166 21.6351 18.6255 21.6352 18.3223 21.332L13.6152 16.625C13.3121 16.3218 13.3121 15.8306 13.6152 15.5273L14.3135 14.8281ZM13.7822 18.8076C13.9683 18.8078 14.12 18.9594 14.1201 19.1455V19.8184H14.792C14.9783 19.8185 15.1299 19.9699 15.1299 20.1562C15.1296 20.3423 14.9781 20.494 14.792 20.4941H14.1201V21.165C14.1201 21.3513 13.9684 21.5027 13.7822 21.5029C13.5958 21.5029 13.4443 21.3514 13.4443 21.165V20.4941H12.7725C12.5862 20.4941 12.4348 20.3424 12.4346 20.1562C12.4346 19.9699 12.5861 19.8184 12.7725 19.8184H13.4443V19.1455C13.4445 18.9592 13.5959 18.8076 13.7822 18.8076ZM15.9609 17.5391L18.8721 20.4502L19.2373 20.085L16.3262 17.1738L15.9609 17.5391ZM8.80078 18.082H4.65039C4.23634 18.082 3.90065 17.746 3.90039 17.332V14.5312H8.80078V18.082ZM12.4287 11.7412C12.6617 11.7412 12.8506 11.9301 12.8506 12.1631V13.332H14.0195C14.2525 13.332 14.4414 13.5209 14.4414 13.7539C14.4414 13.9869 14.2525 14.1758 14.0195 14.1758H12.8506V15.3457C12.8502 15.5783 12.6614 15.7676 12.4287 15.7676C12.196 15.7676 12.0073 15.5783 12.0068 15.3457V14.1758H10.8369C10.6042 14.1754 10.415 13.9867 10.415 13.7539C10.415 13.5211 10.6042 13.3324 10.8369 13.332H12.0068V12.1631C12.0068 11.9301 12.1957 11.7412 12.4287 11.7412ZM19.3408 12.6572C19.5271 12.6573 19.6787 12.8088 19.6787 12.9951V13.416H20.0996C20.286 13.416 20.4375 13.5675 20.4375 13.7539C20.4375 13.9403 20.286 14.0918 20.0996 14.0918H19.6787V14.5137C19.6784 14.6998 19.527 14.8515 19.3408 14.8516C19.1546 14.8516 19.0032 14.6998 19.0029 14.5137V14.0918H18.5811C18.3948 14.0916 18.2432 13.9402 18.2432 13.7539C18.2432 13.5676 18.3948 13.4162 18.5811 13.416H19.0029V12.9951C19.0029 12.8087 19.1544 12.6572 19.3408 12.6572ZM8.80078 13.5312H3.90039V10.4814H8.80078V13.5312ZM8.80078 9.48145H3.90039V6.68164C3.90039 6.26743 4.23618 5.93164 4.65039 5.93164H8.80078V9.48145ZM14.2002 9.48145H9.80078V5.93164H14.2002V9.48145ZM19.3506 5.93164C19.7645 5.93197 20.1006 6.26763 20.1006 6.68164V9.48145H15.2002V5.93164H19.3506Z" fill="black"/>
</svg>
