<svg viewBox="0 0 24 24" fill="none" xmlns="http://www.w3.org/2000/svg" width="24" height="24">
<path d="M3.179 4.11C2.351 4.11 1.679 4.782 1.679 5.61V18.39C1.68 19.218 2.351 19.89 3.179 19.89H20.82C21.648 19.89 22.319 19.218 22.32 18.39V5.61C22.319 4.781 21.648 4.11 20.82 4.11H3.179ZM15 13.83C15.331 13.83 15.6 14.099 15.6 14.43 15.6 14.762 15.331 15.03 15 15.03H9C8.669 15.03 8.4 14.762 8.4 14.43 8.4 14.099 8.669 13.83 9 13.83H15ZM18 11.4C18.331 11.4 18.6 11.669 18.6 12 18.6 12.331 18.331 12.6 18 12.6H6C5.669 12.6 5.4 12.331 5.4 12 5.4 11.669 5.669 11.4 6 11.4H18ZM15 8.97C15.331 8.97 15.6 9.238 15.6 9.57 15.6 9.901 15.331 10.17 15 10.17H9C8.669 10.17 8.4 9.901 8.4 9.57 8.4 9.238 8.669 8.97 9 8.97H15Z" fill="black"/>
</svg>