<svg width="24" height="24" viewBox="0 0 24 24" fill="none" xmlns="http://www.w3.org/2000/svg">
<path fill-rule="evenodd" clip-rule="evenodd" d="M3.82617 4.50073C2.95572 4.50082 2.25009 5.20645 2.25 6.0769V17.9246C2.25029 18.7948 2.95584 19.5006 3.82617 19.5007H20.1738C21.0441 19.5005 21.7497 18.7948 21.75 17.9246V6.0769C21.7499 5.20651 21.0442 4.50092 20.1738 4.50073H3.82617ZM18.001 15.2908C18.4151 15.2909 18.751 15.6266 18.751 16.0408C18.7508 16.4547 18.415 16.7906 18.001 16.7908H12.751C12.3369 16.7908 12.0012 16.4548 12.001 16.0408C12.001 15.6266 12.3368 15.2908 12.751 15.2908H18.001ZM18.001 13.0408C18.4151 13.0409 18.751 13.3766 18.751 13.7908C18.7508 14.2047 18.415 14.5406 18.001 14.5408H6.75098C6.33688 14.5408 6.00117 14.2048 6.00098 13.7908C6.00098 13.3766 6.33676 13.0408 6.75098 13.0408H18.001ZM18.001 10.7908C18.4151 10.7909 18.751 11.1266 18.751 11.5408C18.7508 11.9547 18.415 12.2906 18.001 12.2908H12.751C12.3369 12.2908 12.0012 11.9548 12.001 11.5408C12.001 11.1266 12.3368 10.7908 12.751 10.7908H18.001Z" fill="black"/>
</svg>
