<svg width="24" height="24" viewBox="0 0 24 24" fill="none" xmlns="http://www.w3.org/2000/svg">
<path d="M4.65039 5.08691C3.96005 5.08691 3.40042 5.64659 3.40039 6.33691V16.9873C3.4006 17.6775 3.96016 18.2373 4.65039 18.2373H19.3506C20.0405 18.237 20.6004 17.6773 20.6006 16.9873V6.33691C20.6006 5.64679 20.0406 5.08724 19.3506 5.08691H4.65039ZM11.3555 11.5967C11.6315 11.5968 11.8555 11.8206 11.8555 12.0967C11.8552 12.3725 11.6313 12.5965 11.3555 12.5967H6.35547C6.07949 12.5967 5.85573 12.3726 5.85547 12.0967C5.85547 11.8205 6.07933 11.5967 6.35547 11.5967H11.3555ZM16.3555 9.57129C16.6315 9.57142 16.8555 9.79523 16.8555 10.0713C16.8554 10.3473 16.6315 10.5712 16.3555 10.5713H6.35547C6.07937 10.5713 5.85553 10.3474 5.85547 10.0713C5.85547 9.79515 6.07933 9.57129 6.35547 9.57129H16.3555ZM11.3555 7.5459C11.6314 7.54603 11.8553 7.76998 11.8555 8.0459C11.8555 8.32196 11.6315 8.54577 11.3555 8.5459H6.35547C6.07933 8.5459 5.85547 8.32204 5.85547 8.0459C5.85563 7.7699 6.07943 7.5459 6.35547 7.5459H11.3555Z" fill="black"/>
</svg>
