<svg width="24" height="24" viewBox="0 0 24 24" fill="none" xmlns="http://www.w3.org/2000/svg">
<path d="M16.6895 4.00013C17.2752 3.41434 18.2248 3.41435 18.8105 4.00013L20.75 5.93958C21.3357 6.52538 21.3358 7.47493 20.75 8.06068L15.5 13.3107C15.2187 13.592 14.8372 13.7501 14.4395 13.7501H11.75C11.3358 13.7501 11.0001 13.4143 11 13.0001V10.3107C11 9.91285 11.1581 9.53144 11.4395 9.25013L16.6895 4.00013ZM12.5 12.2501H14.4395L17.4395 9.25013L15.5 7.31068L12.5 10.3107V12.2501Z" fill="black"/>
<path d="M7.63477 17.2742V21.0769H2.62866C2.21445 21.0769 1.87866 20.7411 1.87866 20.3269V17.2742H7.63477Z" fill="black"/>
<path d="M14.8909 17.2742V21.0769H9.13477V17.2742H14.8909Z" fill="black"/>
<path d="M22.1462 17.2742V20.3269C22.1462 20.7411 21.8105 21.0769 21.3962 21.0769H16.3909V17.2742H22.1462Z" fill="black"/>
<path d="M7.63477 11.9722V15.7742H1.87866V11.9722H7.63477Z" fill="black"/>
<path d="M7.63477 6.66945V10.4722H1.87866V7.41945C1.87866 7.00524 2.21445 6.66945 2.62866 6.66945H7.63477Z" fill="black"/>
</svg>
