<svg width="24" height="24" viewBox="0 0 24 24" fill="none" xmlns="http://www.w3.org/2000/svg">
<path fill-rule="evenodd" clip-rule="evenodd" d="M20.166 4.5C21.0403 4.5 21.7498 5.20875 21.75 6.08301V17.917C21.7498 18.7912 21.0403 19.5 20.166 19.5H3.83301C2.95886 19.4998 2.25024 18.7911 2.25 17.917V6.08301C2.25022 5.20885 2.95884 4.50017 3.83301 4.5H20.166ZM6 13.5C5.58579 13.5 5.25 13.8358 5.25 14.25C5.25 14.6642 5.58579 15 6 15H11.25C11.6642 15 12 14.6642 12 14.25C12 13.8358 11.6642 13.5 11.25 13.5H6ZM6 11.25C5.58579 11.25 5.25 11.5858 5.25 12C5.25 12.4142 5.58579 12.75 6 12.75H17.25C17.6642 12.75 18 12.4142 18 12C18 11.5858 17.6642 11.25 17.25 11.25H6ZM6 9C5.58579 9 5.25 9.33579 5.25 9.75C5.25 10.1642 5.58579 10.5 6 10.5H11.25C11.6642 10.5 12 10.1642 12 9.75C12 9.33579 11.6642 9 11.25 9H6Z" fill="black"/>
</svg>
