<svg width="24" height="24" viewBox="0 0 24 24" fill="none" xmlns="http://www.w3.org/2000/svg">
<path fill-rule="evenodd" clip-rule="evenodd" d="M3.82617 3.75C2.95572 3.75009 2.25009 4.45572 2.25 5.32617V17.1738C2.25009 18.0443 2.95572 18.7499 3.82617 18.75H20.1738C21.0443 18.7499 21.7499 18.0443 21.75 17.1738V5.32617C21.7499 4.45572 21.0443 3.75009 20.1738 3.75H3.82617ZM11.25 11.25C11.6642 11.25 12 11.5858 12 12C12 12.4142 11.6642 12.75 11.25 12.75H6C5.58579 12.75 5.25 12.4142 5.25 12C5.25 11.5858 5.58579 11.25 6 11.25H11.25ZM17.25 9C17.6642 9 18 9.33579 18 9.75C18 10.1642 17.6642 10.5 17.25 10.5H6C5.58579 10.5 5.25 10.1642 5.25 9.75C5.25 9.33579 5.58579 9 6 9H17.25ZM11.25 6.75C11.6642 6.75 12 7.08579 12 7.5C12 7.91421 11.6642 8.25 11.25 8.25H6C5.58579 8.25 5.25 7.91421 5.25 7.5C5.25 7.08579 5.58579 6.75 6 6.75H11.25Z" fill="black"/>
</svg>
