<svg viewBox="0 0 24 24" fill="none" xmlns="http://www.w3.org/2000/svg" width="24" height="24">
<path d="M8.583 14.831C9.411 14.832 10.083 15.503 10.083 16.331V18.35C10.083 19.179 9.411 19.85 8.583 19.85H3.902C3.074 19.85 2.402 19.179 2.402 18.35V16.331C2.402 15.503 3.074 14.831 3.902 14.831H8.583ZM20.574 9.454C20.808 9.219 21.188 9.22 21.422 9.454 21.656 9.688 21.656 10.068 21.422 10.302L19.724 11.999 21.422 13.697C21.656 13.931 21.656 14.311 21.422 14.545 21.188 14.779 20.808 14.779 20.574 14.545L18.877 12.847 17.18 14.545C16.946 14.779 16.566 14.779 16.331 14.545 16.097 14.311 16.097 13.931 16.331 13.697L18.028 11.999 16.331 10.302C16.097 10.068 16.097 9.688 16.331 9.454 16.566 9.22 16.946 9.219 17.18 9.454L18.877 11.15 20.574 9.454ZM13.116 10.481C13.563 10.481 13.925 10.844 13.926 11.291V12.709C13.925 13.156 13.563 13.519 13.116 13.519H7.052C6.605 13.519 6.243 13.156 6.243 12.709V11.291C6.243 10.844 6.605 10.481 7.052 10.481H13.116ZM8.583 4.15C9.411 4.15 10.083 4.821 10.083 5.65V7.669C10.083 8.497 9.411 9.168 8.583 9.169H3.902C3.074 9.169 2.403 8.497 2.402 7.669V5.65C2.402 4.821 3.074 4.15 3.902 4.15H8.583Z" fill="black"/>
</svg>