<svg width="24" height="24" viewBox="0 0 24 24" fill="none" xmlns="http://www.w3.org/2000/svg">
<path fill-rule="evenodd" clip-rule="evenodd" d="M3.82617 4.50073C2.95572 4.50082 2.25009 5.20645 2.25 6.0769V17.9246C2.25029 18.7948 2.95584 19.5006 3.82617 19.5007H20.1738C21.0441 19.5005 21.7497 18.7948 21.75 17.9246V6.0769C21.7499 5.20651 21.0442 4.50092 20.1738 4.50073H3.82617ZM11.251 15.2937C11.665 15.2938 12.0008 15.6297 12.001 16.0437C12.001 16.4578 11.6651 16.7936 11.251 16.7937H6.00098C5.58676 16.7937 5.25098 16.4579 5.25098 16.0437C5.25117 15.6297 5.58689 15.2937 6.00098 15.2937H11.251ZM17.251 13.0437C17.665 13.0438 18.0008 13.3797 18.001 13.7937C18.001 14.2078 17.6651 14.5436 17.251 14.5437H6.00098C5.58676 14.5437 5.25098 14.2079 5.25098 13.7937C5.25117 13.3797 5.58689 13.0437 6.00098 13.0437H17.251ZM11.251 10.7937C11.665 10.7938 12.0008 11.1297 12.001 11.5437C12.001 11.9578 11.6651 12.2936 11.251 12.2937H6.00098C5.58676 12.2937 5.25098 11.9579 5.25098 11.5437C5.25117 11.1297 5.58689 10.7937 6.00098 10.7937H11.251Z" fill="black"/>
</svg>
