<svg width="24" height="24" viewBox="0 0 24 24" fill="none" xmlns="http://www.w3.org/2000/svg">
<path fill-rule="evenodd" clip-rule="evenodd" d="M3.82617 3.75C2.95572 3.75009 2.25009 4.45572 2.25 5.32617V17.1738C2.25009 18.0443 2.95572 18.7499 3.82617 18.75H20.1738C21.0443 18.7499 21.7499 18.0443 21.75 17.1738V5.32617C21.7499 4.45572 21.0443 3.75009 20.1738 3.75H3.82617ZM14.25 11.25C14.6642 11.25 15 11.5858 15 12C15 12.4142 14.6642 12.75 14.25 12.75H9C8.58579 12.75 8.25 12.4142 8.25 12C8.25 11.5858 8.58579 11.25 9 11.25H14.25ZM17.25 9C17.6642 9 18 9.33579 18 9.75C18 10.1642 17.6642 10.5 17.25 10.5H6.75C6.33579 10.5 6 10.1642 6 9.75C6 9.33579 6.33579 9 6.75 9H17.25ZM14.25 6.75C14.6642 6.75 15 7.08579 15 7.5C15 7.91421 14.6642 8.25 14.25 8.25H9C8.58579 8.25 8.25 7.91421 8.25 7.5C8.25 7.08579 8.58579 6.75 9 6.75H14.25Z" fill="black"/>
</svg>
