<svg width="24" height="24" viewBox="0 0 24 24" fill="none" xmlns="http://www.w3.org/2000/svg">
<path d="M11.25 21V19.5H9.75C9.33579 19.5 9 19.1642 9 18.75C9 18.3358 9.33579 18 9.75 18H11.25V16.5C11.25 16.0858 11.5858 15.75 12 15.75C12.4142 15.75 12.75 16.0858 12.75 16.5V18H14.25C14.6642 18 15 18.3358 15 18.75C15 19.1642 14.6642 19.5 14.25 19.5H12.75V21C12.75 21.4142 12.4142 21.75 12 21.75C11.5858 21.75 11.25 21.4142 11.25 21Z" fill="black"/>
<path d="M7.875 12.75H3.83203C2.95841 12.7497 2.25025 12.0416 2.25 11.168V8.375H7.875V12.75ZM14.625 12.75H9.375V8.375H14.625V12.75ZM21.75 11.168C21.7497 12.0416 21.0416 12.7497 20.168 12.75H16.125V8.375H21.75V11.168ZM7.875 6.875H2.25V3.83203C2.25025 2.95841 2.95841 2.25025 3.83203 2.25H7.875V6.875ZM14.625 6.875H9.375V2.25H14.625V6.875ZM20.168 2.25C21.0416 2.25025 21.7497 2.95841 21.75 3.83203V6.875H16.125V2.25H20.168Z" fill="black"/>
</svg>
