<svg width="24" height="24" viewBox="0 0 24 24" fill="none" xmlns="http://www.w3.org/2000/svg">
<path fill-rule="evenodd" clip-rule="evenodd" d="M3.83301 4.5C2.95885 4.50021 2.25018 5.20884 2.25 6.08301V17.917C2.25018 18.7912 2.95885 19.4998 3.83301 19.5H20.167C21.0412 19.4998 21.7498 18.7912 21.75 17.917V6.08301C21.7498 5.20881 21.0412 4.50018 20.167 4.5H3.83301ZM15 15C15.4142 15 15.75 15.3358 15.75 15.75C15.75 16.1642 15.4142 16.5 15 16.5H9C8.58579 16.5 8.25 16.1642 8.25 15.75C8.25 15.3358 8.58579 15 9 15H15ZM17.25 12.75C17.6642 12.75 18 13.0858 18 13.5C18 13.9142 17.6642 14.25 17.25 14.25H6.75C6.33579 14.25 6 13.9142 6 13.5C6 13.0858 6.33579 12.75 6.75 12.75H17.25ZM15 10.5C15.4142 10.5 15.75 10.8358 15.75 11.25C15.75 11.6642 15.4142 12 15 12H9C8.58579 12 8.25 11.6642 8.25 11.25C8.25 10.8358 8.58579 10.5 9 10.5H15Z" fill="black"/>
</svg>
