<svg width="24" height="24" viewBox="0 0 24 24" fill="none" xmlns="http://www.w3.org/2000/svg">
<path d="M21.8335 18C21.8335 18.8283 21.1618 19.4998 20.3335 19.5H15.6665V15.3692C15.694 15.3722 15.7222 15.375 15.7505 15.375H21.7505C21.7786 15.375 21.8062 15.3722 21.8335 15.3692V18ZM21.8335 13.8799C21.8061 13.8769 21.7777 13.875 21.7495 13.875H15.7495C15.7214 13.875 15.6938 13.8769 15.6665 13.8799L15.6675 10.1201C15.6944 10.1231 15.7218 10.125 15.7495 10.125H21.7495C21.7778 10.125 21.806 10.1222 21.8335 10.1192V13.8799ZM20.3335 4.50001C21.1618 4.50019 21.8335 5.17169 21.8335 6.00001V8.62989C21.8062 8.62687 21.7786 8.62503 21.7505 8.62501H15.7505C15.723 8.62501 15.6952 8.62603 15.6685 8.62892L15.6694 4.50001H20.3335Z" fill="black"/>
<path d="M2.1665 18C2.16651 18.8283 2.83823 19.4998 3.6665 19.5H8.3335V15.3692C8.30604 15.3722 8.27778 15.375 8.24951 15.375H2.24951C2.22141 15.375 2.1938 15.3722 2.1665 15.3692V18ZM2.1665 13.8799C2.19393 13.8769 2.22225 13.875 2.25049 13.875H8.25049C8.27856 13.875 8.30623 13.8769 8.3335 13.8799L8.33252 10.1201C8.30557 10.1231 8.27822 10.125 8.25049 10.125H2.25049C2.22222 10.125 2.19396 10.1222 2.1665 10.1192V13.8799ZM3.6665 4.50001C2.83823 4.50019 2.1665 5.17169 2.1665 6.00001V8.62989C2.19377 8.62687 2.22144 8.62503 2.24951 8.62501H8.24951C8.27705 8.62501 8.30478 8.62603 8.33154 8.62892L8.33057 4.50001H3.6665Z" fill="black"/>
<path d="M13.5 19.3496C13.5 19.8467 13.0967 20.25 12.5996 20.25H11.4004C10.9033 20.25 10.5 19.8467 10.5 19.3496V16.6504C10.5 16.1533 10.9033 15.75 11.4004 15.75H12.5996C13.0967 15.75 13.5 16.1533 13.5 16.6504V19.3496Z" fill="black"/>
<path d="M13.5 7.34961C13.5 7.84667 13.0967 8.25 12.5996 8.25H11.4004C10.9033 8.25 10.5 7.84667 10.5 7.34961V4.65039C10.5 4.15333 10.9033 3.75 11.4004 3.75H12.5996C13.0967 3.75 13.5 4.15333 13.5 4.65039V7.34961Z" fill="black"/>
<path fill-rule="evenodd" clip-rule="evenodd" d="M12.5303 13.591L11.9999 13.0607L11.4696 13.591C11.1767 13.8839 10.7018 13.8839 10.4089 13.591C10.116 13.2981 10.116 12.8232 10.4089 12.5303L10.9393 12L10.4089 11.4697C10.116 11.1768 10.116 10.7019 10.4089 10.409C10.7018 10.1161 11.1767 10.1161 11.4696 10.409L11.9999 10.9393L12.5303 10.409C12.8232 10.1161 13.298 10.1161 13.5909 10.409C13.8838 10.7019 13.8838 11.1768 13.5909 11.4697L13.0606 12L13.5909 12.5303C13.8838 12.8232 13.8838 13.2981 13.5909 13.591C13.298 13.8839 12.8232 13.8839 12.5303 13.591Z" fill="black"/>
</svg>
