<svg viewBox="0 0 24 24" fill="none" xmlns="http://www.w3.org/2000/svg" width="24" height="24">
<path d="M8.161 19.297H3.18C2.683 19.297 2.28 18.894 2.28 18.397V15.039H8.161V19.297ZM14.64 19.297H9.361V15.039H14.64V19.297ZM21.72 18.397C21.72 18.894 21.317 19.297 20.82 19.297H15.84V15.039H21.72V18.397ZM5.496 13.839H3.663L7.322 10.179H9.156L5.496 13.839ZM9.026 13.839H7.193L10.853 10.179H12.684L9.026 13.839ZM12.555 13.839H10.723L14.381 10.179H16.215L12.555 13.839ZM16.085 13.839H14.252L17.912 10.179H19.745L16.085 13.839ZM21.72 11.734L19.616 13.839H17.782L21.442 10.179H21.72V11.734ZM21.72 13.839H21.313L21.72 13.431V13.839ZM2.28 13.523V10.179H5.625L2.28 13.523ZM8.161 8.979H2.28V5.618C2.28 5.121 2.683 4.718 3.18 4.718H8.161V8.979ZM14.64 8.979H9.361V4.718H14.64V8.979ZM20.82 4.718C21.317 4.718 21.72 5.121 21.72 5.618V8.979H15.84V4.718H20.82Z" fill="black"/>
</svg>