<?xml version="1.0" encoding="utf-8"?>
<!-- Generator: Adobe Illustrator 24.2.0, SVG Export Plug-In . SVG Version: 6.00 Build 0)  -->
<svg xmlns="http://www.w3.org/2000/svg" width="512" height="512" viewBox="0 0 512 512">
<path id="Table_corner" d="M32,32v416h416V32H32z M288,64v96h-96V64H288z M288,192v96h-96v-96H288z M160,64v64L96,64H160z M64,96
	l64,64H64V96z M64,192h96v96H64V192z M64,416v-96h96v96H64z M192,416v-96h96v96H192z M416,416h-96v-96h96V416z M416,288h-96v-96h96
	V288z M416,160h-96V64h96V160z" />
</svg>
