<svg viewBox="0 0 24 24" fill="none" xmlns="http://www.w3.org/2000/svg" width="24" height="24">
<path d="M20.91 4.109C21.688 4.11 22.32 4.741 22.32 5.519V18.48C22.32 19.258 21.689 19.89 20.91 19.891H3.09C2.311 19.891 1.68 19.259 1.68 18.48V5.519C1.68 4.741 2.311 4.109 3.09 4.109H20.91ZM2.88 15.001V18.48C2.88 18.596 2.974 18.691 3.09 18.691H8.177V16.067H8.118C7.621 16.067 7.218 15.664 7.218 15.167V15.001H2.88ZM14.263 9.752C14.013 9.499 13.605 9.499 13.354 9.752L12.035 11.083 10.715 9.752C10.464 9.499 10.057 9.499 9.806 9.752 9.555 10.005 9.555 10.416 9.806 10.669L11.124 12.001 9.806 13.332C9.555 13.585 9.555 13.996 9.806 14.249 10.056 14.502 10.464 14.502 10.715 14.249L12.035 12.917 13.354 14.249C13.605 14.502 14.013 14.502 14.263 14.249 14.514 13.996 14.514 13.585 14.263 13.332L12.944 12.001 14.263 10.669C14.514 10.416 14.514 10.005 14.263 9.752ZM16.818 13.801H21.12V10.201H16.818V13.801ZM2.88 10.201V13.801H7.218V10.201H2.88ZM15.856 7.667H15.918C16.415 7.667 16.818 8.07 16.818 8.567V9.001H21.12V5.519C21.12 5.404 21.026 5.31 20.91 5.309H15.856V7.667ZM3.09 5.309C2.974 5.309 2.88 5.403 2.88 5.519V9.001H7.218V8.567C7.218 8.07 7.621 7.667 8.118 7.667H8.177V5.309H3.09ZM9.377 7.667H14.656V5.309H9.377V7.667ZM9.377 18.691H14.656V16.067H9.377V18.691ZM15.856 18.691H20.91C21.026 18.69 21.12 18.596 21.12 18.48V15.001H16.818V15.167C16.818 15.664 16.415 16.067 15.918 16.067H15.856V18.691Z" fill="black"/>
</svg>