<svg viewBox="0 0 24 24" fill="none" xmlns="http://www.w3.org/2000/svg" width="24" height="24">
<path d="M14.641 15.03V19.234C14.547 19.267 14.447 19.29 14.342 19.29H9.36V15.03H14.641ZM8.16 15.03V19.29H3.18C2.683 19.29 2.28 18.887 2.28 18.39V15.03H8.16ZM21.72 13.529C21.72 13.635 21.699 13.736 21.665 13.83H15.841V10.17H21.72V13.529ZM8.16 10.17V13.83H2.28V10.17H8.16ZM14.641 10.17V13.83H9.36V10.17H14.641ZM20.82 4.71C21.317 4.71 21.72 5.113 21.72 5.61V8.97H15.841V4.71H20.82ZM8.16 4.71V8.97H2.28V5.61C2.28 5.113 2.683 4.71 3.18 4.71H8.16ZM14.641 4.71V8.97H9.36V4.71H14.641Z" fill="black"/>
<path d="M20.025 16.441C20.356 16.442 20.625 16.71 20.625 17.041V18.823H22.405C22.736 18.823 23.005 19.091 23.005 19.423 23.005 19.754 22.736 20.023 22.405 20.023H20.625V21.804C20.625 22.135 20.356 22.404 20.025 22.404 19.694 22.404 19.425 22.135 19.425 21.804V20.023H17.643C17.312 20.022 17.043 19.754 17.043 19.423 17.043 19.091 17.311 18.823 17.643 18.823H19.425V17.041C19.425 16.71 19.694 16.441 20.025 16.441Z" fill="black"/>
</svg>