<svg width="24" height="24" viewBox="0 0 24 24" fill="none" xmlns="http://www.w3.org/2000/svg">
<path d="M8 19.4495H3.15234C2.65395 19.4492 2.25 19.0446 2.25 18.5461V15.3323H8V19.4495Z" fill="black"/>
<path d="M14.501 19.4495H9.5V15.3323H14.501V19.4495Z" fill="black"/>
<path d="M21.75 18.5461C21.75 19.0446 21.346 19.4492 20.8477 19.4495H16.001V15.3323H21.75V18.5461Z" fill="black"/>
<path d="M8 13.8323H2.25V10.4573H8V13.8323Z" fill="black"/>
<path d="M14.501 13.8323H9.5V10.4573H14.501V13.8323Z" fill="black"/>
<path d="M21.75 13.8323H16.001V10.4573H21.75V13.8323Z" fill="black"/>
<path d="M6.56934 8.95728H2.25V6.03833L6.56934 8.95728Z" fill="black"/>
<path d="M20.8477 4.82446C21.346 4.82471 21.75 5.2284 21.75 5.72681V8.95728H16.001V4.83228H14.501V8.95728H9.5V4.83228H8V8.11353L3.13379 4.82446H20.8477Z" fill="black"/>
</svg>
