<svg viewBox="0 0 24 24" fill="none" xmlns="http://www.w3.org/2000/svg" width="24" height="24">
<path d="M8.161 19.297H3.18C2.683 19.297 2.28 18.894 2.28 18.397V15.039H8.161V19.297ZM21.72 18.397C21.72 18.894 21.317 19.297 20.82 19.297H15.84V15.039H21.72V18.397ZM14.64 15.852L11.195 19.297H9.364L14.64 14.022V15.852ZM14.64 19.297H12.892L14.64 17.549V19.297ZM14.64 12.325L9.361 17.604V15.572L14.64 10.293V12.325ZM14.64 8.596L9.37 13.866V13.839H9.361V12.042L14.64 6.763V8.596ZM8.161 13.839H2.28V10.179H8.161V13.839ZM21.72 13.839H15.84V10.179H21.72V13.839ZM20.82 4.718C21.317 4.718 21.72 5.121 21.72 5.618V8.979H15.84V4.719H14.64V5.066L9.361 10.345V10.179H9.37V8.979H9.361V8.377L13.02 4.718H20.82ZM8.161 4.719V8.979H2.28V5.618C2.28 5.121 2.683 4.718 3.18 4.718H8.761L8.161 4.719ZM9.361 6.68V4.718H11.323L9.361 6.68Z" fill="black"/>
</svg>