<svg viewBox="0 0 24 24" fill="none" xmlns="http://www.w3.org/2000/svg" width="24" height="24">
<path d="M3.179 4.11C2.351 4.11 1.679 4.782 1.679 5.61V18.39C1.68 19.218 2.351 19.89 3.179 19.89H20.82C21.648 19.89 22.319 19.218 22.32 18.39V5.61C22.319 4.781 21.648 4.11 20.82 4.11H3.179ZM18.773 13.83C19.105 13.83 19.373 14.099 19.373 14.43 19.373 14.762 19.105 15.03 18.773 15.03H12.773C12.442 15.03 12.174 14.762 12.173 14.43 12.173 14.099 12.442 13.831 12.773 13.83H18.773ZM18.773 11.4C19.105 11.4 19.373 11.669 19.373 12 19.373 12.331 19.105 12.6 18.773 12.6H6.773C6.442 12.6 6.173 12.331 6.173 12 6.173 11.669 6.442 11.4 6.773 11.4H18.773ZM18.773 8.97C19.105 8.97 19.373 9.238 19.373 9.57 19.373 9.901 19.105 10.17 18.773 10.17H12.773C12.442 10.169 12.173 9.901 12.173 9.57 12.174 9.238 12.442 8.97 12.773 8.97H18.773Z" fill="black"/>
</svg>