<svg width="24" height="24" viewBox="0 0 24 24" fill="none" xmlns="http://www.w3.org/2000/svg">
<path d="M12.5059 6.96582L12.5117 2.97168H15.252C15.9431 2.97168 16.5035 3.5317 16.5039 4.22168V6.97461L12.5059 6.96582ZM7.50391 6.95605V4.22168C7.50435 3.53175 8.0648 2.97177 8.75586 2.97168H11.5117L11.5059 6.96387L7.50391 6.95605ZM8.75586 11.958C8.06453 11.9579 7.50391 11.3983 7.50391 10.708V7.95605L11.5049 7.96387L11.498 11.958H8.75586ZM12.5049 7.96582L16.5039 7.97461V10.708C16.5039 11.3984 15.9434 11.958 15.252 11.958H12.498L12.5049 7.96582ZM3.50391 14.9922C3.22776 14.9922 3.00391 14.7683 3.00391 14.4922C3.00391 14.216 3.22776 13.9922 3.50391 13.9922H20.5039C20.78 13.9922 21.0039 14.216 21.0039 14.4922C21.0039 14.7683 20.78 14.9922 20.5039 14.9922H3.50391ZM3.50391 17.9922C3.22776 17.9922 3.00391 17.7683 3.00391 17.4922C3.00391 17.216 3.22776 16.9922 3.50391 16.9922H20.5039C20.78 16.9922 21.0039 17.216 21.0039 17.4922C21.0039 17.7683 20.78 17.9922 20.5039 17.9922H3.50391ZM3.50391 20.9922C3.22776 20.9922 3.00391 20.7683 3.00391 20.4922C3.00391 20.216 3.22776 19.9922 3.50391 19.9922H11.5039C11.78 19.9922 12.0039 20.216 12.0039 20.4922C12.0039 20.7683 11.78 20.9922 11.5039 20.9922H3.50391Z" fill="black"/>
</svg>
