<svg width="24" height="24" viewBox="0 0 24 24" fill="none" xmlns="http://www.w3.org/2000/svg">
<path d="M7.5376 18.0819H3.38721C2.97312 18.0819 2.63742 17.7459 2.63721 17.3319V14.5311H7.5376V18.0819ZM13.436 17.3319C13.4358 17.7459 13.1001 18.0819 12.686 18.0819H8.5376V14.5311H13.436V17.3319ZM18.8433 9.47546C19.1192 9.47573 19.3433 9.69948 19.3433 9.97546V11.495H20.8628C21.1387 11.4953 21.3628 11.719 21.3628 11.995C21.3626 12.2708 21.1386 12.4947 20.8628 12.495H19.3433V14.0253C19.3429 14.301 19.119 14.525 18.8433 14.5253C18.5673 14.5253 18.3436 14.3011 18.3433 14.0253V12.495H16.813C16.5371 12.4949 16.3132 12.2709 16.313 11.995C16.313 11.7189 16.537 11.4951 16.813 11.495H18.3433V9.97546C18.3433 9.69932 18.5671 9.47546 18.8433 9.47546ZM7.5376 13.5311H2.63721V10.4813H7.5376V13.5311ZM13.436 13.5311H8.5376V10.4813H13.436V13.5311ZM7.5376 9.48132H2.63721V6.68152C2.63721 6.26731 2.973 5.93152 3.38721 5.93152H7.5376V9.48132ZM12.686 5.93152C13.1002 5.93152 13.436 6.26731 13.436 6.68152V9.48132H8.5376V5.93152H12.686Z" fill="black"/>
</svg>
