<svg viewBox="0 0 24 24" fill="none" xmlns="http://www.w3.org/2000/svg" width="24" height="24">
<path d="M17.355 19.298H22.335C22.832 19.298 23.235 18.895 23.235 18.398V15.037H17.355V19.298ZM10.277 18.398C10.277 18.895 10.68 19.298 11.177 19.298H16.155V15.037H10.277V18.398ZM3.788 8.971C3.457 8.971 3.188 9.239 3.188 9.571V11.394H1.365C1.034 11.394 0.765 11.663 0.765 11.994 0.765 12.325 1.034 12.594 1.365 12.594H3.188V14.43C3.188 14.761 3.457 15.03 3.788 15.03 4.119 15.03 4.388 14.761 4.388 14.43V12.594H6.224C6.556 12.594 6.824 12.325 6.824 11.994 6.824 11.663 6.556 11.394 6.224 11.394H4.388V9.571C4.388 9.239 4.119 8.971 3.788 8.971ZM17.355 13.837H23.235V10.178H17.355V13.837ZM10.277 13.837H16.155V10.178H10.277V13.837ZM17.355 8.978H23.235V5.618C23.235 5.121 22.832 4.718 22.335 4.718H17.355V8.978ZM11.177 4.718C10.68 4.718 10.277 5.121 10.277 5.618V8.978H16.155V4.718H11.177Z" fill="black"/>
</svg>