<svg viewBox="0 0 24 24" fill="none" xmlns="http://www.w3.org/2000/svg" width="24" height="24">
<path d="M20.821 19.89C21.649 19.89 22.321 19.218 22.321 18.39V5.61C22.32 4.782 21.649 4.11 20.821 4.11H3.18C2.352 4.11 1.681 4.782 1.68 5.61V18.39C1.681 19.218 2.352 19.89 3.18 19.89H20.821ZM5.227 12.078C4.895 12.078 4.627 11.81 4.627 11.478 4.627 11.147 4.895 10.878 5.227 10.878H11.227C11.558 10.879 11.826 11.147 11.827 11.478 11.827 11.81 11.558 12.078 11.227 12.078H5.227ZM5.227 14.509C4.895 14.509 4.627 14.24 4.627 13.909 4.627 13.578 4.895 13.309 5.227 13.309H17.227C17.558 13.309 17.827 13.578 17.827 13.909 17.826 14.24 17.558 14.509 17.227 14.509H5.227ZM5.227 16.939C4.895 16.939 4.627 16.67 4.627 16.338 4.627 16.007 4.895 15.738 5.227 15.738H11.227C11.558 15.738 11.826 16.007 11.827 16.338 11.827 16.67 11.558 16.939 11.227 16.939H5.227Z" fill="black"/>
</svg>