<svg width="24" height="24" viewBox="0 0 24 24" fill="none" xmlns="http://www.w3.org/2000/svg">
<path fill-rule="evenodd" clip-rule="evenodd" d="M20.166 4.5C21.0403 4.5 21.7498 5.20875 21.75 6.08301V17.917C21.7498 18.7912 21.0403 19.5 20.166 19.5H3.83301C2.95886 19.4998 2.25024 18.7911 2.25 17.917V6.08301C2.25022 5.20885 2.95884 4.50017 3.83301 4.5H20.166ZM12.75 13.5C12.3358 13.5 12 13.8358 12 14.25C12 14.6642 12.3358 15 12.75 15H18C18.4142 15 18.75 14.6642 18.75 14.25C18.75 13.8358 18.4142 13.5 18 13.5H12.75ZM6.75 11.25C6.33579 11.25 6 11.5858 6 12C6 12.4142 6.33579 12.75 6.75 12.75H18C18.4142 12.75 18.75 12.4142 18.75 12C18.75 11.5858 18.4142 11.25 18 11.25H6.75ZM12.75 9C12.3358 9 12 9.33579 12 9.75C12 10.1642 12.3358 10.5 12.75 10.5H18C18.4142 10.5 18.75 10.1642 18.75 9.75C18.75 9.33579 18.4142 9 18 9H12.75Z" fill="black"/>
</svg>
