<svg width="24" height="24" viewBox="0 0 24 24" fill="none" xmlns="http://www.w3.org/2000/svg">
<path d="M19.3506 5.4248C20.0406 5.42513 20.6005 5.98476 20.6006 6.6748V17.3252C20.6004 18.0152 20.0405 18.5749 19.3506 18.5752H4.65039C3.96016 18.5752 3.4006 18.0154 3.40039 17.3252V6.6748C3.40052 5.98456 3.96012 5.4248 4.65039 5.4248H19.3506ZM6.35547 13.5254C6.07933 13.5254 5.85547 13.7492 5.85547 14.0254C5.85567 14.3014 6.07945 14.5254 6.35547 14.5254H11.3555C11.6314 14.5253 11.8553 14.3013 11.8555 14.0254C11.8555 13.7493 11.6315 13.5255 11.3555 13.5254H6.35547ZM6.35547 11.5C6.07933 11.5 5.85547 11.7239 5.85547 12C5.85547 12.2761 6.07933 12.5 6.35547 12.5H16.3555C16.6315 12.4999 16.8555 12.2761 16.8555 12C16.8555 11.7239 16.6315 11.5001 16.3555 11.5H6.35547ZM6.35547 9.47461C6.07945 9.47461 5.85567 9.69864 5.85547 9.97461C5.85547 10.2508 6.07933 10.4746 6.35547 10.4746H11.3555C11.6315 10.4745 11.8555 10.2507 11.8555 9.97461C11.8553 9.69872 11.6314 9.47474 11.3555 9.47461H6.35547Z" fill="black"/>
</svg>
