<svg width="24" height="24" viewBox="0 0 24 24" fill="none" xmlns="http://www.w3.org/2000/svg">
<path d="M8.80029 18.0752H4.6499C4.23585 18.0752 3.90017 17.7392 3.8999 17.3252V14.5244H8.80029V18.0752ZM10.6079 18.0752H9.80127V17.8105L17.1235 10.4883H18.1938L10.6079 18.0752ZM20.1001 11.0674L13.0923 18.0752H12.022L19.6089 10.4883H20.1001V11.0674ZM20.1001 13.5527L15.5776 18.0752H14.5073L20.1001 12.4814V13.5527ZM20.1001 17.3252C20.1 17.7392 19.7641 18.0749 19.3501 18.0752H16.9927L20.1001 14.9678V17.3252ZM9.80127 16.3965V15.3252L14.6382 10.4883H15.7095L9.80127 16.3965ZM9.80127 13.9111V10.4883H13.2241L9.80127 13.9111ZM8.80029 13.5244H3.8999V10.4746H8.80029V13.5244ZM8.80029 9.47461H3.8999V6.6748C3.89991 6.26059 4.23569 5.9248 4.6499 5.9248H8.80029V9.47461ZM14.1997 9.47461H9.80029V5.9248H14.1997V9.47461ZM19.3501 5.9248C19.764 5.92513 20.1001 6.2608 20.1001 6.6748V9.47461H15.1997V5.9248H19.3501Z" fill="black"/>
</svg>
