<svg viewBox="0 0 24 24" fill="none" xmlns="http://www.w3.org/2000/svg" width="24" height="24">
<path d="M20.82 3.704C21.648 3.704 22.32 4.376 22.32 5.204V17.985C22.319 18.813 21.648 19.485 20.82 19.485H3.179C2.351 19.484 1.68 18.813 1.679 17.985V5.204C1.679 4.376 2.351 3.705 3.179 3.704H20.82ZM12.773 11.516C12.442 11.516 12.173 11.785 12.173 12.116 12.174 12.447 12.442 12.716 12.773 12.716H18.773C19.105 12.716 19.373 12.447 19.373 12.116 19.373 11.785 19.105 11.516 18.773 11.516H12.773ZM6.773 9.086C6.442 9.086 6.173 9.354 6.173 9.686 6.174 10.017 6.442 10.285 6.773 10.286H18.773C19.105 10.286 19.373 10.017 19.373 9.686 19.373 9.354 19.105 9.086 18.773 9.086H6.773ZM12.773 6.655C12.442 6.655 12.174 6.924 12.173 7.255 12.173 7.586 12.442 7.855 12.773 7.855H18.773C19.105 7.855 19.373 7.586 19.373 7.255 19.373 6.924 19.105 6.655 18.773 6.655H12.773Z" fill="black"/>
</svg>