<svg width="24" height="24" viewBox="0 0 24 24" fill="none" xmlns="http://www.w3.org/2000/svg">
<path d="M7.875 19.5061H4.50293C3.26029 19.5061 2.25293 18.4987 2.25293 17.2561V15.3752H7.875V19.5061ZM14.625 15.0911L10.21 19.5061H9.375V17.9622L14.625 12.7122V15.0911ZM14.625 19.5061H12.3311L14.625 17.2122V19.5061ZM19.5029 4.49243C20.7455 4.49243 21.7528 5.49987 21.7529 6.74243V17.2561C21.7529 18.4987 20.7456 19.5061 19.5029 19.5061H16.125V15.3752H21.75V13.8752H16.125V10.1252H21.75V8.62524H16.125V4.49243H19.5029ZM14.625 10.5911L9.375 15.8411V13.4622L14.625 8.21216V10.5911ZM7.875 13.8752H2.25293V10.1252H7.875V13.8752ZM14.625 6.09106L9.375 11.3411V8.97095C9.43977 8.9367 9.50213 8.89557 9.55664 8.84106L13.9072 4.49243H14.625V6.09106ZM7.875 8.62524H2.25293V6.74243C2.25303 5.49988 3.26035 4.49243 4.50293 4.49243H7.875V8.62524ZM9.375 6.90259V4.49243H11.7852L9.375 6.90259Z" fill="black"/>
</svg>
