<svg viewBox="0 0 24 24" fill="none" xmlns="http://www.w3.org/2000/svg" width="24" height="24">
<path d="M3.18 19.89C2.352 19.89 1.68 19.218 1.68 18.39V5.61C1.68 4.782 2.352 4.11 3.18 4.11H20.82C21.648 4.11 22.32 4.782 22.32 5.61V18.39C22.32 19.218 21.648 19.89 20.82 19.89H3.18ZM15.001 12.078C15.332 12.078 15.601 11.81 15.601 11.478 15.6 11.147 15.332 10.878 15.001 10.878H9.001C8.669 10.878 8.401 11.147 8.401 11.478 8.401 11.81 8.669 12.078 9.001 12.078H15.001ZM18.001 14.509C18.332 14.509 18.6 14.24 18.601 13.909 18.601 13.578 18.332 13.309 18.001 13.309H6.001C5.669 13.309 5.401 13.578 5.401 13.909 5.401 14.24 5.669 14.509 6.001 14.509H18.001ZM15.001 16.939C15.332 16.939 15.601 16.67 15.601 16.338 15.6 16.007 15.332 15.738 15.001 15.738H9.001C8.669 15.738 8.401 16.007 8.401 16.338 8.401 16.67 8.669 16.939 9.001 16.939H15.001Z" fill="black"/>
</svg>