<svg width="24" height="24" viewBox="0 0 24 24" fill="none" xmlns="http://www.w3.org/2000/svg">
<path d="M7.87476 17.375V21.999H3.83374C2.95953 21.9989 2.25086 21.2902 2.25073 20.416V17.375H7.87476ZM14.6248 17.375V21.999H9.37476V17.375H14.6248ZM21.7488 17.375V20.416C21.7486 21.2903 21.04 21.9989 20.1658 21.999H16.1248V17.375H21.7488ZM20.1658 11.25C21.04 11.2501 21.7486 11.9588 21.7488 12.833V15.875H16.1248V11.25H20.1658ZM14.6248 15.875H9.37476V11.25H14.6248V15.875ZM7.87476 15.875H2.25073V12.833C2.25086 11.9588 2.95953 11.2501 3.83374 11.25H7.87476V15.875Z" fill="black"/>
<path fill-rule="evenodd" clip-rule="evenodd" d="M11.25 4.5V3C11.25 2.58579 11.5858 2.25 12 2.25C12.4142 2.25 12.75 2.58579 12.75 3V4.5H14.25C14.664 4.50024 15 4.83594 15 5.25C15 5.66406 14.664 5.99976 14.25 6H12.75V7.5C12.75 7.91421 12.4142 8.25 12 8.25C11.5858 8.25 11.25 7.91421 11.25 7.5V6H9.75C9.33579 6 9 5.66421 9 5.25C9 4.83579 9.33579 4.5 9.75 4.5H11.25Z" fill="black"/>
</svg>
