<svg width="24" height="24" viewBox="0 0 24 24" fill="none" xmlns="http://www.w3.org/2000/svg">
<path d="M7.50098 19.5H3.08301C2.20882 19.4998 1.50018 18.7912 1.5 17.917V15.375H7.50098V19.5ZM15.001 17.917C15.0008 18.7913 14.2923 19.5 13.418 19.5H9.00098V15.375H15.001V17.917ZM7.5 13.875H1.5V10.125H7.5V13.875ZM15.001 13.875H9V10.125H15.001V13.875ZM7.5 8.625H1.5V6.08301C1.50017 5.20881 2.20882 4.50018 3.08301 4.5H7.5V8.625ZM13.418 4.5C14.2923 4.5 15.0008 5.20871 15.001 6.08301V8.625H9V4.5H13.418Z" fill="black"/>
<path fill-rule="evenodd" clip-rule="evenodd" d="M18.75 9.75V11.25H17.25C16.8358 11.25 16.5 11.5858 16.5 12C16.5 12.4142 16.8358 12.75 17.25 12.75H18.75V14.25C18.75 14.6642 19.0858 15 19.5 15C19.9142 15 20.25 14.6642 20.25 14.25V12.75H21.75C22.1642 12.75 22.5 12.4142 22.5 12C22.5 11.5858 22.1642 11.25 21.75 11.25H20.25V9.75C20.25 9.33579 19.9142 9 19.5 9C19.0858 9 18.75 9.33579 18.75 9.75Z" fill="black"/>
</svg>
