<svg width="24" height="24" viewBox="0 0 24 24" fill="none" xmlns="http://www.w3.org/2000/svg">
<path d="M8.80042 14.5311V18.0819H4.65002C4.23594 18.0819 3.90023 17.746 3.90002 17.3319V14.5311H8.80042Z" fill="black"/>
<path d="M14.1998 14.5311V18.0819H9.80042V14.5311H14.1998Z" fill="black"/>
<path d="M20.1002 17.3319C20.1 17.7459 19.7642 18.0818 19.3502 18.0819H15.1998V14.5311H20.1002V17.3319Z" fill="black"/>
<path d="M20.1002 13.5311H15.1998V10.4813H20.1002V13.5311Z" fill="black"/>
<path d="M8.80042 10.4813V13.5311H3.90002V10.4813H8.80042Z" fill="black"/>
<path d="M14.1998 10.4813V13.5311H9.80042V10.4813H14.1998Z" fill="black"/>
<path d="M19.3502 5.93154C19.7643 5.93167 20.1002 6.26741 20.1002 6.68154V9.48135H15.1998V5.93154H19.3502Z" fill="black"/>
<path d="M8.80042 9.48135H3.90002V6.68154C3.90003 6.26733 4.23581 5.93154 4.65002 5.93154H8.80042V9.48135Z" fill="black"/>
<path d="M14.1998 9.48135H9.80042V5.93154H14.1998V9.48135Z" fill="black"/>
</svg>
