<svg width="24" height="24" viewBox="0 0 24 24" fill="none" xmlns="http://www.w3.org/2000/svg">
<g clip-path="url(#clip0_2021_25804)">
<path d="M23.1232 11.5871L18.8426 5.17185C18.7064 4.96637 18.5214 4.79781 18.3042 4.68118C18.0869 4.56455 17.8442 4.50348 17.5977 4.50342H3.74901C3.35119 4.50342 2.96966 4.66145 2.68836 4.94275C2.40706 5.22406 2.24902 5.60558 2.24902 6.00341V18.0033C2.24902 18.4011 2.40706 18.7827 2.68836 19.064C2.96966 19.3453 3.35119 19.5033 3.74901 19.5033H17.5977C17.844 19.5028 18.0865 19.4417 18.3036 19.3253C18.5208 19.2089 18.7059 19.0408 18.8426 18.8358L23.1204 12.4196C23.2031 12.2966 23.2474 12.1519 23.2479 12.0038C23.2484 11.8556 23.2051 11.7106 23.1232 11.5871Z" fill="black"/>
</g>
<defs>
<clipPath id="clip0_2021_25804">
<rect width="23.9998" height="23.9998" fill="white"/>
</clipPath>
</defs>
</svg>
