<svg width="24" height="24" viewBox="0 0 24 24" fill="none" xmlns="http://www.w3.org/2000/svg">
<g clip-path="url(#clip0_2104_2427)">
<path d="M18.7489 6.74809H15.0177C14.7449 6.73216 9.99085 6.39747 5.46369 2.60062C5.24508 2.41702 4.9786 2.29961 4.69557 2.2622C4.41255 2.22479 4.12472 2.26893 3.86591 2.38943C3.60709 2.50992 3.38804 2.70178 3.23448 2.94245C3.08093 3.18313 2.99924 3.46263 2.99902 3.74812V18.748C2.99906 19.0336 3.08062 19.3132 3.23411 19.554C3.38759 19.7948 3.60663 19.9868 3.86548 20.1074C4.12433 20.228 4.41223 20.2723 4.69534 20.2349C4.97845 20.1975 5.24501 20.0801 5.46369 19.8964C9.0046 16.9265 12.6824 16.0752 14.2489 15.8371V18.8108C14.2486 19.058 14.3094 19.3014 14.4258 19.5194C14.5423 19.7374 14.7108 19.9233 14.9164 20.0605L15.9477 20.7477C16.147 20.8807 16.3753 20.9641 16.6135 20.9907C16.8516 21.0174 17.0927 20.9866 17.3165 20.901C17.5403 20.8153 17.7404 20.6773 17.8999 20.4984C18.0594 20.3196 18.1737 20.1051 18.2333 19.873L19.3367 15.7143C20.4774 15.5741 21.5212 15.0029 22.2541 14.1176C22.9871 13.2324 23.3535 12.1003 23.2783 10.9535C23.2031 9.80671 22.692 8.73214 21.8498 7.95017C21.0076 7.1682 19.8981 6.73811 18.7489 6.74809ZM16.7802 19.4877V19.498L15.7489 18.8108V15.748H17.7739L16.7802 19.4877ZM18.7489 14.248H15.7489V8.24808H18.7489C19.5445 8.24808 20.3076 8.56415 20.8702 9.12675C21.4328 9.68936 21.7489 10.4524 21.7489 11.2481C21.7489 12.0437 21.4328 12.8068 20.8702 13.3694C20.3076 13.932 19.5445 14.248 18.7489 14.248Z" fill="black"/>
</g>
<defs>
<clipPath id="clip0_2104_2427">
<rect width="23.9998" height="23.9998" fill="white"/>
</clipPath>
</defs>
</svg>
