<svg width="24" height="24" viewBox="0 0 24 24" fill="none" xmlns="http://www.w3.org/2000/svg">
<path fill-rule="evenodd" clip-rule="evenodd" d="M6.45661 20.9813H6.29791L5.02636 21.75C4.53136 21.5697 4.07223 21.2898 3.67309 20.925L3.66833 19.3781C3.64016 19.33 3.61358 19.2814 3.58898 19.2316L2.32457 18.4517C2.22498 17.9061 2.22498 17.3447 2.32457 16.7991L3.58779 16.0214C3.61358 15.972 3.64016 15.923 3.66714 15.8749L3.67348 14.328C4.07227 13.9622 4.53128 13.6813 5.02636 13.5L6.29593 14.2687H6.45462L7.72419 13.5C8.21919 13.6803 8.67832 13.9602 9.07746 14.325L9.08222 15.8719C9.11039 15.92 9.13697 15.9686 9.16157 16.0184L10.4252 16.7979C10.5248 17.3434 10.5248 17.9049 10.4252 18.4504L9.16197 19.2282C9.13618 19.2776 9.1096 19.3266 9.08262 19.3747L9.07627 20.9216C8.67775 21.2874 8.21902 21.5685 7.72419 21.75L6.45661 20.9813ZM6.5 20C7.88071 20 9 18.8807 9 17.5C9 16.1193 7.88071 15 6.5 15C5.11929 15 4 16.1193 4 17.5C4 18.8807 5.11929 20 6.5 20Z" fill="black"/>
<path d="M12 21H18.75C18.9489 21 19.1397 20.921 19.2803 20.7803C19.421 20.6397 19.5 20.4489 19.5 20.25V8.25L14.25 3H5.25C5.05109 3 4.86032 3.07902 4.71967 3.21967C4.57902 3.36032 4.5 3.55109 4.5 3.75V10.5M14.25 3V8.25H19.5M12 13.5H16.5M13.5 16.5H16.5M6.45462 14.2687H6.29593L5.02636 13.5C4.53128 13.6813 4.07227 13.9622 3.67348 14.328L3.66714 15.8749C3.64016 15.923 3.61358 15.972 3.58779 16.0214L2.32457 16.7991C2.22498 17.3447 2.22498 17.9061 2.32457 18.4517L3.58898 19.2316C3.61358 19.2814 3.64016 19.33 3.66833 19.3781L3.67309 20.925C4.07223 21.2898 4.53136 21.5697 5.02636 21.75L6.29791 20.9813C6.34988 20.9813 6.40344 20.9813 6.45661 20.9813M6.29791 20.9813H6.45661L7.72419 21.75C8.21902 21.5685 8.67775 21.2874 9.07627 20.9216L9.08262 19.3747C9.1096 19.3266 9.13618 19.2776 9.16197 19.2282L10.4252 18.4504C10.5248 17.9049 10.5248 17.3434 10.4252 16.7979L9.16157 16.0184C9.13697 15.9686 9.11039 15.92 9.08222 15.8719L9.07746 14.325C8.67832 13.9602 8.21919 13.6803 7.72419 13.5L6.45462 14.2687C6.40265 14.2687 6.34909 14.2687 6.29593 14.2687M7.5 6H11.25V10.5H7.5V6ZM9 17.5C9 18.8807 7.88071 20 6.5 20C5.11929 20 4 18.8807 4 17.5C4 16.1193 5.11929 15 6.5 15C7.88071 15 9 16.1193 9 17.5Z" stroke="black" stroke-width="1.5" stroke-linecap="round" stroke-linejoin="round"/>
</svg>
