<svg viewBox="0 0 24 24" fill="none" xmlns="http://www.w3.org/2000/svg" width="24" height="24">
<path d="M15.8 12.401C16.43 12.401 16.801 12.832 16.801 13.201 16.801 13.57 16.43 14.001 15.8 14.002 15.171 14.001 14.801 13.57 14.801 13.201 14.801 12.832 15.171 12.401 15.8 12.401Z" fill="black"/>
<path d="M11.114 12H8.487L9.8 9.207 11.114 12Z" fill="black"/>
<path fill-rule="evenodd" clip-rule="evenodd" d="M14.548 1.692C14.663 1.715 14.77 1.772 14.855 1.856L20.524 7.526C20.637 7.638 20.7 7.791 20.7 7.95V20.911C20.7 21.284 20.551 21.643 20.287 21.907 20.023 22.171 19.664 22.321 19.29 22.321H4.71C4.336 22.321 3.977 22.171 3.713 21.907 3.449 21.643 3.3 21.284 3.3 20.911V3.09C3.3 2.716 3.448 2.357 3.713 2.093 3.977 1.829 4.336 1.681 4.71 1.68H14.43L14.548 1.692ZM6.907 16.495C6.41 16.495 6.007 16.898 6.007 17.395V19.02C6.007 19.517 6.41 19.92 6.907 19.92H8.531C9.028 19.92 9.431 19.517 9.431 19.02V17.395C9.431 16.898 9.028 16.495 8.531 16.495H6.907ZM11.188 16.495C10.691 16.495 10.288 16.898 10.288 17.395V19.02C10.288 19.517 10.691 19.92 11.188 19.92H12.812C13.309 19.92 13.712 19.517 13.712 19.02V17.395C13.712 16.898 13.309 16.495 12.812 16.495H11.188ZM15.469 16.495C14.972 16.495 14.569 16.898 14.569 17.395V19.02C14.569 19.517 14.972 19.92 15.469 19.92H17.093C17.59 19.92 17.993 19.517 17.993 19.02V17.395C17.993 16.898 17.59 16.495 17.093 16.495H15.469ZM15.8 9.6C15.248 9.6 14.631 9.724 14.177 10.174 13.942 10.408 13.942 10.788 14.175 11.023 14.409 11.258 14.788 11.26 15.023 11.026 15.156 10.895 15.397 10.8 15.8 10.8 16.32 10.8 16.66 11.096 16.764 11.406 16.466 11.274 16.137 11.201 15.8 11.201 14.663 11.201 13.601 12.024 13.601 13.201 13.601 14.378 14.664 15.201 15.8 15.202 16.189 15.201 16.567 15.102 16.898 14.928 17.006 15.092 17.191 15.2 17.401 15.2 17.732 15.2 18.001 14.932 18.001 14.6V11.6C18.001 10.423 16.938 9.6 15.8 9.6ZM9.8 7.2C9.597 7.2 9.41 7.303 9.3 7.47L9.258 7.545 6.057 14.345C5.916 14.645 6.045 15.002 6.345 15.143 6.644 15.284 7.002 15.156 7.143 14.856L7.922 13.2H11.679L12.458 14.856C12.599 15.156 12.957 15.284 13.256 15.143 13.556 15.002 13.684 14.645 13.543 14.345L10.343 7.545C10.244 7.334 10.033 7.2 9.8 7.2ZM15.03 7.05C15.031 7.215 15.165 7.35 15.33 7.35H18.652L15.03 3.729V7.05Z" fill="black"/>
</svg>