<svg width="24" height="24" viewBox="0 0 24 24" fill="none" xmlns="http://www.w3.org/2000/svg">
<path d="M21.75 11.9997C21.75 10.4478 21.3407 9.07732 20.7188 8.11789C20.0921 7.15123 19.3145 6.68332 18.5674 6.68332H5.43262C4.68545 6.68332 3.90794 7.15123 3.28125 8.11789C2.65932 9.07732 2.25005 10.4478 2.25 11.9997C2.25 13.5517 2.65934 14.9221 3.28125 15.8816C3.90797 16.8484 4.68539 17.3171 5.43262 17.3171H18.5674C19.3146 17.3171 20.092 16.8484 20.7188 15.8816C21.3407 14.9221 21.75 13.5517 21.75 11.9997ZM23.25 11.9997C23.25 13.7983 22.7789 15.4617 21.9775 16.698C21.1809 17.9268 19.992 18.8171 18.5674 18.8171H5.43262C4.008 18.8171 2.81906 17.9268 2.02246 16.698C1.22111 15.4617 0.75 13.7983 0.75 11.9997C0.750046 10.2014 1.22121 8.5386 2.02246 7.30246C2.81906 6.07358 4.00794 5.18332 5.43262 5.18332H18.5674C19.9921 5.18332 21.1809 6.07358 21.9775 7.30246C22.7788 8.5386 23.25 10.2014 23.25 11.9997Z" fill="black"/>
<path fill-rule="evenodd" clip-rule="evenodd" d="M20.7188 8.11789C21.3407 9.07732 21.75 10.4478 21.75 11.9997C21.75 13.5517 21.3407 14.9221 20.7188 15.8816C20.092 16.8484 19.3146 17.3171 18.5674 17.3171H5.43262C4.68539 17.3171 3.90797 16.8484 3.28125 15.8816C2.65934 14.9221 2.25 13.5517 2.25 11.9997C2.25005 10.4478 2.65932 9.07732 3.28125 8.11789C3.90794 7.15123 4.68545 6.68332 5.43262 6.68332H18.5674C19.3145 6.68332 20.0921 7.15123 20.7188 8.11789Z" fill="black"/>
</svg>
