<svg width="24" height="24" viewBox="0 0 24 24" fill="none" xmlns="http://www.w3.org/2000/svg">
<path d="M5.44995 3.75L20.45 20.25M17.7184 17.25H2.25C2.05109 17.25 1.86032 17.171 1.71967 17.0303C1.57902 16.8897 1.5 16.6989 1.5 16.5V7.5C1.5 7.30109 1.57902 7.11032 1.71967 6.96967C1.86032 6.82902 2.05109 6.75 2.25 6.75H8.18359L17.7184 17.25ZM21.75 6.75H12.2037L21.6488 17.25H22.5V7.5C22.5 7.30109 22.421 7.11032 22.2803 6.96967C22.1397 6.82902 21.9489 6.75 21.75 6.75Z" stroke="black" stroke-width="1.5" stroke-linecap="round" stroke-linejoin="round"/>
<path d="M4.5 10.5H7.5M6 10.5V13.5" stroke="white" stroke-width="1.5" stroke-linecap="round" stroke-linejoin="round"/>
</svg>
