<svg viewBox="0 0 24 24" fill="none" xmlns="http://www.w3.org/2000/svg" width="24" height="24">
<path fill-rule="evenodd" clip-rule="evenodd" d="M10.38-0.996C10.595-0.996 10.801-0.911 10.952-0.759 11.104-0.608 11.19-0.401 11.19-0.186L11.188-0.171V11.189C11.188 11.637 11.551 12 11.999 12 12.447 12 12.81 11.637 12.81 11.189V2.316C12.808 2.297 12.809 2.278 12.809 2.259 12.809 2.241 12.808 2.222 12.81 2.203V1.839C12.81 1.732 12.852 1.629 12.928 1.553 13.004 1.477 13.108 1.434 13.215 1.434H22.53C22.96 1.435 23.372 1.604 23.675 1.908 23.979 2.212 24.15 2.624 24.15 3.054L24.149 3.069V12.22L24.15 12.773C24.15 12.776 24.149 12.787 24.149 12.79L24.148 12.813V21.525C24.148 22.013 23.944 22.474 23.595 22.806 23.247 23.137 22.782 23.316 22.307 23.316H1.689C1.213 23.316 0.749 23.137 0.401 22.806 0.051 22.474-0.152 22.013-0.152 21.525V12C-0.152 11.979-0.152 11.958-0.15 11.938V3.054C-0.15 2.624 0.021 2.212 0.325 1.908 0.628 1.604 1.04 1.435 1.47 1.434H9.57L9.568-0.171C9.568-0.174 9.569-0.184 9.57-0.186 9.57-0.206 9.57-0.226 9.572-0.245 9.573-0.261 9.575-0.285 9.578-0.301 9.602-0.473 9.683-0.635 9.807-0.759 9.959-0.911 10.166-0.996 10.38-0.996ZM20.699 15.855C20.66 15.863 20.623 15.882 20.595 15.911L16.747 19.759C16.719 19.787 16.7 19.823 16.692 19.862 16.684 19.901 16.689 19.942 16.704 19.979 16.719 20.016 16.744 20.049 16.778 20.071 16.811 20.093 16.85 20.105 16.89 20.105H20.739C20.792 20.105 20.844 20.083 20.882 20.045 20.919 20.007 20.94 19.956 20.94 19.902V16.055C20.94 16.015 20.928 15.975 20.906 15.942 20.884 15.909 20.853 15.883 20.816 15.867 20.779 15.852 20.738 15.848 20.699 15.855ZM3.898 5.5C3.45 5.5 3.088 5.862 3.088 6.309 3.088 6.757 3.45 7.119 3.898 7.119H4.709V9.55C4.709 9.997 5.071 10.359 5.518 10.359 5.965 10.359 6.328 9.997 6.328 9.55V7.119H7.138C7.585 7.119 7.948 6.757 7.948 6.309 7.948 5.862 7.585 5.5 7.138 5.5H3.898Z" fill="black"/>
</svg>