<svg width="24" height="24" viewBox="0 0 24 24" fill="none" xmlns="http://www.w3.org/2000/svg">
<path d="M19.4989 2.9978H4.49901C4.10119 2.9978 3.71966 3.15584 3.43836 3.43714C3.15706 3.71844 2.99902 4.09997 2.99902 4.49779V19.4977C2.99902 19.8955 3.15706 20.277 3.43836 20.5583C3.71966 20.8396 4.10119 20.9977 4.49901 20.9977H19.4989C19.8967 20.9977 20.2782 20.8396 20.5595 20.5583C20.8409 20.277 20.9989 19.8955 20.9989 19.4977V4.49779C20.9989 4.09997 20.8409 3.71844 20.5595 3.43714C20.2782 3.15584 19.8967 2.9978 19.4989 2.9978ZM17.9989 17.2477H8.99898C8.80007 17.2477 8.6093 17.1687 8.46865 17.028C8.328 16.8874 8.24898 16.6966 8.24898 16.4977C8.24898 16.2988 8.328 16.108 8.46865 15.9674C8.6093 15.8267 8.80007 15.7477 8.99898 15.7477H17.9989C18.1978 15.7477 18.3886 15.8267 18.5292 15.9674C18.6699 16.108 18.7489 16.2988 18.7489 16.4977C18.7489 16.6966 18.6699 16.8874 18.5292 17.028C18.3886 17.1687 18.1978 17.2477 17.9989 17.2477ZM17.9989 14.2477H5.999C5.80009 14.2477 5.60933 14.1687 5.46867 14.028C5.32802 13.8874 5.24901 13.6966 5.24901 13.4977C5.24901 13.2988 5.32802 13.108 5.46867 12.9674C5.60933 12.8267 5.80009 12.7477 5.999 12.7477H17.9989C18.1978 12.7477 18.3886 12.8267 18.5292 12.9674C18.6699 13.108 18.7489 13.2988 18.7489 13.4977C18.7489 13.6966 18.6699 13.8874 18.5292 14.028C18.3886 14.1687 18.1978 14.2477 17.9989 14.2477ZM17.9989 11.2477H8.99898C8.80007 11.2477 8.6093 11.1687 8.46865 11.0281C8.328 10.8874 8.24898 10.6967 8.24898 10.4977C8.24898 10.2988 8.328 10.1081 8.46865 9.96742C8.6093 9.82677 8.80007 9.74775 8.99898 9.74775H17.9989C18.1978 9.74775 18.3886 9.82677 18.5292 9.96742C18.6699 10.1081 18.7489 10.2988 18.7489 10.4977C18.7489 10.6967 18.6699 10.8874 18.5292 11.0281C18.3886 11.1687 18.1978 11.2477 17.9989 11.2477ZM17.9989 8.24776H5.999C5.80009 8.24776 5.60933 8.16875 5.46867 8.02809C5.32802 7.88744 5.24901 7.69668 5.24901 7.49777C5.24901 7.29886 5.32802 7.10809 5.46867 6.96744C5.60933 6.82679 5.80009 6.74777 5.999 6.74777H17.9989C18.1978 6.74777 18.3886 6.82679 18.5292 6.96744C18.6699 7.10809 18.7489 7.29886 18.7489 7.49777C18.7489 7.69668 18.6699 7.88744 18.5292 8.02809C18.3886 8.16875 18.1978 8.24776 17.9989 8.24776Z" fill="black"/>
</svg>
