<svg width="24" height="24" viewBox="0 0 24 24" fill="none" xmlns="http://www.w3.org/2000/svg">
<path fill-rule="evenodd" clip-rule="evenodd" d="M19.5 3C20.3284 3 21 3.67157 21 4.5V19.5C21 20.3284 20.3284 21 19.5 21H4.5C3.67157 21 3 20.3284 3 19.5V4.5C3 3.67157 3.67157 3 4.5 3H19.5ZM5.8125 8.53223C5.3984 8.53236 5.0625 8.86809 5.0625 9.28223C5.06285 9.69606 5.39862 10.0321 5.8125 10.0322L15.2334 10.0312C15.8175 10.0312 16.3789 10.2639 16.792 10.6768C17.2047 11.0897 17.4364 11.6505 17.4365 12.2344C17.4364 12.8184 17.2049 13.379 16.792 13.792C16.3789 14.2051 15.8177 14.4375 15.2334 14.4375L7.62402 14.4385L8.875 13.1875C9.16779 12.8947 9.16759 12.4199 8.875 12.127C8.58211 11.8341 8.10735 11.8341 7.81445 12.127L5.28809 14.6523C5.28247 14.6579 5.27694 14.6642 5.27148 14.6699C5.24827 14.6942 5.22733 14.7206 5.20801 14.7471C5.11763 14.8709 5.0625 15.0234 5.0625 15.1885C5.06271 15.3531 5.1179 15.5043 5.20801 15.6279C5.22738 15.6545 5.24818 15.6807 5.27148 15.7051C5.27702 15.7109 5.28237 15.717 5.28809 15.7227L7.81445 18.249C8.10723 18.5417 8.58212 18.5415 8.875 18.249C9.16767 17.9562 9.16771 17.4813 8.875 17.1885L7.625 15.9385L15.2334 15.9375L15.417 15.9326C16.3324 15.8873 17.2014 15.5037 17.8525 14.8525C18.5467 14.1582 18.9364 13.2162 18.9365 12.2344C18.9364 11.2525 18.5469 10.3096 17.8525 9.61523C17.1581 8.92105 16.2153 8.53125 15.2334 8.53125L5.8125 8.53223ZM5.8125 5.53223C5.3984 5.53236 5.0625 5.86809 5.0625 6.28223C5.06276 6.69613 5.39856 7.03209 5.8125 7.03223L18.1865 7.03125C18.6007 7.03125 18.9365 6.69546 18.9365 6.28125C18.9363 5.86726 18.6006 5.53125 18.1865 5.53125L5.8125 5.53223Z" fill="black"/>
</svg>
