<svg width="24" height="24" viewBox="0 0 24 24" fill="none" xmlns="http://www.w3.org/2000/svg">
<path d="M19.4989 2.99756H4.49901C4.10119 2.99756 3.71966 3.15559 3.43836 3.4369C3.15706 3.7182 2.99902 4.09973 2.99902 4.49755V19.4974C2.99902 19.8953 3.15706 20.2768 3.43836 20.5581C3.71966 20.8394 4.10119 20.9974 4.49901 20.9974H19.4989C19.8967 20.9974 20.2782 20.8394 20.5595 20.5581C20.8409 20.2768 20.9989 19.8953 20.9989 19.4974V4.49755C20.9989 4.09973 20.8409 3.7182 20.5595 3.4369C20.2782 3.15559 19.8967 2.99756 19.4989 2.99756ZM14.9989 17.2474H5.999C5.80009 17.2474 5.60933 17.1684 5.46867 17.0278C5.32802 16.8871 5.24901 16.6964 5.24901 16.4975C5.24901 16.2985 5.32802 16.1078 5.46867 15.9671C5.60933 15.8265 5.80009 15.7475 5.999 15.7475H14.9989C15.1978 15.7475 15.3886 15.8265 15.5293 15.9671C15.6699 16.1078 15.7489 16.2985 15.7489 16.4975C15.7489 16.6964 15.6699 16.8871 15.5293 17.0278C15.3886 17.1684 15.1978 17.2474 14.9989 17.2474ZM17.9989 14.2475H5.999C5.80009 14.2475 5.60933 14.1685 5.46867 14.0278C5.32802 13.8872 5.24901 13.6964 5.24901 13.4975C5.24901 13.2986 5.32802 13.1078 5.46867 12.9672C5.60933 12.8265 5.80009 12.7475 5.999 12.7475H17.9989C18.1978 12.7475 18.3886 12.8265 18.5292 12.9672C18.6699 13.1078 18.7489 13.2986 18.7489 13.4975C18.7489 13.6964 18.6699 13.8872 18.5292 14.0278C18.3886 14.1685 18.1978 14.2475 17.9989 14.2475ZM5.24901 10.4975C5.24901 10.2986 5.32802 10.1078 5.46867 9.96718C5.60933 9.82652 5.80009 9.74751 5.999 9.74751H14.9989C15.1978 9.74751 15.3886 9.82652 15.5293 9.96718C15.6699 10.1078 15.7489 10.2986 15.7489 10.4975C15.7489 10.6964 15.6699 10.8872 15.5293 11.0278C15.3886 11.1685 15.1978 11.2475 14.9989 11.2475H5.999C5.80009 11.2475 5.60933 11.1685 5.46867 11.0278C5.32802 10.8872 5.24901 10.6964 5.24901 10.4975ZM17.9989 8.24752H5.999C5.80009 8.24752 5.60933 8.1685 5.46867 8.02785C5.32802 7.8872 5.24901 7.69643 5.24901 7.49752C5.24901 7.29861 5.32802 7.10785 5.46867 6.9672C5.60933 6.82655 5.80009 6.74753 5.999 6.74753H17.9989C18.1978 6.74753 18.3886 6.82655 18.5292 6.9672C18.6699 7.10785 18.7489 7.29861 18.7489 7.49752C18.7489 7.69643 18.6699 7.8872 18.5292 8.02785C18.3886 8.1685 18.1978 8.24752 17.9989 8.24752Z" fill="black"/>
</svg>
