<svg viewBox="0 0 24 24" fill="none" xmlns="http://www.w3.org/2000/svg" width="24" height="24">
<path d="M20.82 2.28C21.317 2.28 21.72 2.683 21.72 3.18V20.82C21.72 21.317 21.317 21.72 20.82 21.72H3.18C2.683 21.72 2.28 21.317 2.28 20.82V3.18C2.28 2.683 2.683 2.28 3.18 2.28H20.82ZM5.703 10.144C5.256 10.145 4.893 10.507 4.893 10.954 4.893 11.401 5.256 11.764 5.703 11.764H15.592C16.104 11.764 16.596 11.968 16.958 12.33 17.32 12.692 17.523 13.183 17.524 13.695 17.524 14.207 17.32 14.698 16.958 15.06 16.596 15.422 16.104 15.626 15.592 15.626H7.622L8.589 14.66C8.905 14.343 8.905 13.83 8.589 13.513 8.273 13.197 7.759 13.197 7.443 13.513L5.094 15.863C5.028 15.928 4.98 16.004 4.941 16.082 4.934 16.097 4.924 16.11 4.918 16.124 4.795 16.418 4.855 16.77 5.094 17.009L7.443 19.359C7.759 19.675 8.273 19.675 8.589 19.359 8.905 19.042 8.905 18.529 8.589 18.213L7.622 17.246H15.592C16.534 17.246 17.438 16.872 18.104 16.206 18.77 15.54 19.144 14.637 19.144 13.695 19.144 12.753 18.77 11.85 18.104 11.184 17.451 10.531 16.568 10.161 15.646 10.147 15.637 10.146 15.628 10.144 15.619 10.144H5.703ZM5.703 7.274C5.256 7.275 4.893 7.637 4.893 8.084 4.893 8.531 5.256 8.894 5.703 8.894H18.333C18.78 8.894 19.143 8.531 19.143 8.084 19.143 7.637 18.78 7.275 18.333 7.274H5.703ZM5.703 4.403C5.256 4.404 4.893 4.766 4.893 5.213 4.893 5.66 5.256 6.023 5.703 6.023H18.333C18.78 6.023 19.143 5.66 19.143 5.213 19.143 4.766 18.78 4.404 18.333 4.403H5.703Z" fill="black"/>
</svg>