<svg viewBox="0 0 24 24" fill="none" xmlns="http://www.w3.org/2000/svg" width="24" height="24">
<path d="M20.82 2.28C21.317 2.28 21.72 2.683 21.72 3.18V20.82C21.72 21.317 21.317 21.72 20.82 21.72H3.18C2.683 21.72 2.28 21.317 2.28 20.82V3.18C2.28 2.683 2.683 2.28 3.18 2.28H20.82ZM13.53 13.852C13.083 13.852 12.72 14.215 12.72 14.662 12.72 15.109 13.083 15.473 13.53 15.473 13.977 15.473 14.341 15.109 14.341 14.662 14.34 14.215 13.977 13.852 13.53 13.852ZM15.95 13.852C15.503 13.852 15.14 14.215 15.14 14.662 15.14 15.109 15.502 15.473 15.95 15.473 16.397 15.473 16.76 15.109 16.76 14.662 16.759 14.215 16.397 13.852 15.95 13.852ZM18.369 13.852C17.922 13.852 17.559 14.215 17.559 14.662 17.559 15.109 17.921 15.473 18.369 15.473 18.816 15.473 19.179 15.109 19.179 14.662 19.179 14.215 18.816 13.852 18.369 13.852ZM5.685 13.848C5.238 13.848 4.876 14.21 4.876 14.657 4.876 15.105 5.238 15.467 5.685 15.467H10.862C11.309 15.467 11.671 15.104 11.671 14.657 11.671 14.21 11.308 13.848 10.862 13.848H5.685ZM5.685 10.977C5.238 10.977 4.876 11.34 4.876 11.787 4.876 12.235 5.238 12.597 5.685 12.597H18.316C18.763 12.597 19.126 12.234 19.126 11.787 19.125 11.34 18.763 10.978 18.316 10.977H5.685ZM5.685 8.106C5.238 8.106 4.876 8.469 4.876 8.916 4.876 9.364 5.238 9.726 5.685 9.726H18.316C18.763 9.725 19.126 9.363 19.126 8.916 19.125 8.469 18.763 8.107 18.316 8.106H5.685Z" fill="black"/>
</svg>