<svg viewBox="0 0 24 24" fill="none" xmlns="http://www.w3.org/2000/svg" width="24" height="24">
<path fill-rule="evenodd" clip-rule="evenodd" d="M20.82 2.28C21.317 2.28 21.72 2.683 21.72 3.18V20.82C21.72 21.317 21.317 21.72 20.82 21.72H3.18C2.683 21.72 2.28 21.317 2.28 20.82V3.18C2.28 2.683 2.683 2.28 3.18 2.28H20.82ZM6.156 4.69C5.709 4.69 5.347 5.053 5.347 5.5V18.5C5.347 18.947 5.709 19.31 6.156 19.31 6.604 19.31 6.966 18.947 6.966 18.5V5.5C6.966 5.053 6.604 4.69 6.156 4.69ZM17.828 4.69C17.381 4.691 17.019 5.054 17.02 5.501L17.034 18.496C17.035 18.943 17.397 19.305 17.845 19.305 18.292 19.304 18.654 18.941 18.653 18.494L18.639 5.499C18.639 5.052 18.276 4.69 17.828 4.69ZM13.954 9.885C13.644 9.564 13.131 9.555 12.809 9.864 12.487 10.174 12.477 10.687 12.787 11.009L12.959 11.187H9.125C8.678 11.188 8.315 11.55 8.315 11.997 8.315 12.444 8.678 12.806 9.125 12.807H12.96L12.787 12.986C12.477 13.308 12.487 13.821 12.809 14.131 13.132 14.441 13.644 14.431 13.954 14.109L15.446 12.56C15.747 12.246 15.747 11.749 15.446 11.436L13.954 9.885Z" fill="black"/>
</svg>