<svg viewBox="0 0 24 24" fill="none" xmlns="http://www.w3.org/2000/svg" width="24" height="24">
<path fill-rule="evenodd" clip-rule="evenodd" d="M3.355 2.492C3.686 2.191 4.198 2.215 4.499 2.546L20.699 20.365C21 20.696 20.976 21.209 20.645 21.51 20.314 21.81 19.801 21.786 19.5 21.455L16.797 18.481H1.47C1.04 18.48 0.628 18.31 0.325 18.006 0.021 17.702-0.15 17.289-0.15 16.86V7.14C-0.15 6.711 0.021 6.298 0.325 5.994 0.628 5.691 1.04 5.521 1.47 5.521H5.014L3.3 3.635C2.999 3.305 3.025 2.793 3.355 2.492ZM3.9 9.571C3.453 9.571 3.09 9.933 3.09 10.381 3.091 10.828 3.453 11.19 3.9 11.19H4.71V13.621C4.71 14.068 5.073 14.43 5.52 14.431 5.967 14.431 6.329 14.068 6.329 13.621V11.19H7.14C7.587 11.19 7.95 10.828 7.95 10.381 7.95 9.933 7.587 9.571 7.14 9.571H3.9Z" fill="black"/>
<path d="M22.529 5.521C22.959 5.521 23.372 5.692 23.675 5.996 23.979 6.299 24.15 6.711 24.15 7.14V16.861C24.15 17.29 23.979 17.703 23.675 18.006 23.372 18.31 22.959 18.481 22.529 18.481H21.956C21.684 18.481 21.425 18.364 21.243 18.162L10.593 6.321C10.315 6.012 10.535 5.521 10.95 5.521H22.529Z" fill="black"/>
</svg>