<svg width="24" height="24" viewBox="0 0 24 24" fill="none" xmlns="http://www.w3.org/2000/svg">
<g clip-path="url(#clip0_2109_31763)">
<path fill-rule="evenodd" clip-rule="evenodd" d="M10.5 2.00195C10.9142 2.00195 11.25 2.33774 11.25 2.75195V15.3516C11.25 15.7658 11.5858 16.1016 12 16.1016C12.4142 16.1016 12.75 15.7658 12.75 15.3516V4.10449H21C22.2426 4.10449 23.25 5.11185 23.25 6.35449V19.749C23.2497 20.9914 22.2425 21.999 21 21.999H3C1.75752 21.999 0.750264 20.9914 0.75 19.749V6.35449C0.75 5.11185 1.75736 4.10449 3 4.10449H9.75V2.75195C9.75 2.33774 10.0858 2.00195 10.5 2.00195ZM19.166 14.2227C19.034 14.249 18.91 14.3042 18.8027 14.3838L18.7012 14.4707L15.7158 17.4561C15.6207 17.5512 15.5489 17.6664 15.5039 17.792L15.4678 17.9209C15.4329 18.0968 15.4509 18.2796 15.5195 18.4453C15.5883 18.6108 15.7044 18.753 15.8535 18.8525C16.0026 18.9519 16.1783 19.0049 16.3574 19.0049H19.3428C19.5832 19.0048 19.8143 18.9092 19.9844 18.7393C20.1544 18.5693 20.2499 18.3381 20.25 18.0977V15.1123C20.25 14.9781 20.2198 14.846 20.1631 14.7256L20.0977 14.6084L20.0156 14.5029C19.9558 14.4369 19.886 14.3798 19.8096 14.334L19.6904 14.2744L19.5635 14.2324C19.4771 14.2108 19.3878 14.2017 19.2988 14.2061L19.166 14.2227ZM4.5 7.85449C4.08579 7.85449 3.75 8.19028 3.75 8.60449C3.75 9.01871 4.08579 9.35449 4.5 9.35449H5.25V11.6045C5.25 12.0187 5.58579 12.3545 6 12.3545C6.41421 12.3545 6.75 12.0187 6.75 11.6045V9.35449H7.5C7.91421 9.35449 8.25 9.01871 8.25 8.60449C8.25 8.19028 7.91421 7.85449 7.5 7.85449H4.5Z" fill="black"/>
</g>
<defs>
<clipPath id="clip0_2109_31763">
<rect width="24" height="24" fill="white"/>
</clipPath>
</defs>
</svg>
