<svg width="24" height="24" viewBox="0 0 24 24" fill="none" xmlns="http://www.w3.org/2000/svg">
<g clip-path="url(#clip0_2109_31803)">
<path d="M23.2489 7.49729V16.4972C23.2489 16.895 23.0908 17.2766 22.8095 17.5579C22.5282 17.8392 22.1467 17.9972 21.7489 17.9972H13.1239C13.0245 17.9972 12.9291 17.9577 12.8588 17.8874C12.7884 17.817 12.7489 17.7217 12.7489 17.6222V6.37229C12.7489 6.27284 12.7884 6.17746 12.8588 6.10713C12.9291 6.03681 13.0245 5.9973 13.1239 5.9973H21.7489C22.1467 5.9973 22.5282 6.15533 22.8095 6.43663C23.0908 6.71794 23.2489 7.09946 23.2489 7.49729ZM11.2489 4.49731V19.4972C11.2489 19.6961 11.1699 19.8869 11.0293 20.0275C10.8886 20.1682 10.6979 20.2472 10.4989 20.2472C10.3 20.2472 10.1093 20.1682 9.96862 20.0275C9.82797 19.8869 9.74895 19.6961 9.74895 19.4972V17.9972H2.24901C1.85119 17.9972 1.46966 17.8392 1.18836 17.5579C0.907058 17.2766 0.749023 16.895 0.749023 16.4972V7.49729C0.749023 7.09946 0.907058 6.71794 1.18836 6.43663C1.46966 6.15533 1.85119 5.9973 2.24901 5.9973H9.74895V4.49731C9.74895 4.2984 9.82797 4.10763 9.96862 3.96698C10.1093 3.82633 10.3 3.74731 10.4989 3.74731C10.6979 3.74731 10.8886 3.82633 11.0293 3.96698C11.1699 4.10763 11.2489 4.2984 11.2489 4.49731ZM8.24897 10.4973C8.24897 10.2984 8.16995 10.1076 8.0293 9.96694C7.88865 9.82629 7.69788 9.74727 7.49897 9.74727H4.49899C4.30008 9.74727 4.10932 9.82629 3.96867 9.96694C3.82802 10.1076 3.749 10.2984 3.749 10.4973C3.749 10.6962 3.82802 10.8869 3.96867 11.0276C4.10932 11.1682 4.30008 11.2473 4.49899 11.2473H5.24899V13.4972C5.24899 13.6962 5.32801 13.8869 5.46866 14.0276C5.60931 14.1682 5.80007 14.2472 5.99898 14.2472C6.19789 14.2472 6.38866 14.1682 6.52931 14.0276C6.66996 13.8869 6.74898 13.6962 6.74898 13.4972V11.2473H7.49897C7.69788 11.2473 7.88865 11.1682 8.0293 11.0276C8.16995 10.8869 8.24897 10.6962 8.24897 10.4973Z" fill="black"/>
</g>
<defs>
<clipPath id="clip0_2109_31803">
<rect width="23.9998" height="23.9998" fill="white"/>
</clipPath>
</defs>
</svg>
