<svg xmlns="http://www.w3.org/2000/svg" width="24" height="24" fill="currentColor" viewBox="0 0 24 24"><path d="M16.456 11.19A4.456 4.456 0 1 1 12 6.734a4.46 4.46 0 0 1 4.456 4.456m6.075 0.81a10.53 10.53 0 1 1-10.53-10.53A10.541 10.541 0 0 1 22.531 12m-1.62 0a8.92 8.92 0 0 0-9.261-8.903c-4.769 0.185-8.572 4.157-8.559 8.928a8.88 8.88 0 0 0 2.253 5.889 8.04 8.04 0 0 1 2.203-2.158 0.408 0.408 0 0 1 0.489 0.032 6.06 6.06 0 0 0 7.926 0 0.408 0.408 0 0 1 0.49-0.032 8.04 8.04 0 0 1 2.207 2.158A8.88 8.88 0 0 0 20.914 12z"/></svg>