<svg width="24" height="24" viewBox="0 0 24 24" fill="none" xmlns="http://www.w3.org/2000/svg">
<path d="M16.1239 11.248C16.1239 12.0638 15.882 12.8613 15.4287 13.5397C14.9755 14.218 14.3313 14.7467 13.5775 15.059C12.8238 15.3712 11.9944 15.4528 11.1942 15.2937C10.394 15.1345 9.65905 14.7417 9.08216 14.1648C8.50527 13.5879 8.11241 12.8529 7.95325 12.0527C7.79408 11.2526 7.87577 10.4232 8.18798 9.66942C8.50019 8.91568 9.0289 8.27145 9.70724 7.81819C10.3856 7.36493 11.1831 7.12301 11.999 7.12301C13.0926 7.12425 14.1411 7.55924 14.9144 8.33256C15.6877 9.10587 16.1227 10.1543 16.1239 11.248ZM21.7489 11.998C21.7489 13.9263 21.1771 15.8114 20.1057 17.4147C19.0344 19.0181 17.5117 20.2678 15.7301 21.0057C13.9485 21.7437 11.9881 21.9368 10.0968 21.5606C8.20554 21.1844 6.46827 20.2558 5.10471 18.8922C3.74116 17.5287 2.81257 15.7914 2.43637 13.9001C2.06017 12.0088 2.25325 10.0484 2.9912 8.26684C3.72915 6.48527 4.97882 4.96254 6.58218 3.89121C8.18555 2.81987 10.0706 2.24805 11.999 2.24805C14.584 2.25078 17.0623 3.27887 18.8902 5.10675C20.7181 6.93462 21.7461 9.41297 21.7489 11.998ZM20.2489 11.998C20.2477 10.8875 20.0226 9.78876 19.587 8.76733C19.1514 7.74591 18.5143 6.82282 17.7137 6.05327C16.9132 5.28372 15.9657 4.68352 14.9279 4.28856C13.8901 3.8936 12.7833 3.71199 11.6736 3.7546C7.25805 3.92522 3.73683 7.60301 3.74902 12.0214C3.75325 14.0328 4.49509 15.9728 5.834 17.4739C6.37927 16.683 7.0719 16.0047 7.87398 15.4761C7.94237 15.4309 8.02367 15.4094 8.10544 15.4148C8.18722 15.4202 8.26497 15.4523 8.32679 15.5061C9.34602 16.3876 10.6486 16.8728 11.9961 16.8728C13.3437 16.8728 14.6463 16.3876 15.6655 15.5061C15.7273 15.4523 15.8051 15.4202 15.8868 15.4148C15.9686 15.4094 16.0499 15.4309 16.1183 15.4761C16.9214 16.0044 17.615 16.6827 18.1611 17.4739C19.5066 15.9674 20.2499 14.0179 20.2489 11.998Z" fill="black"/>
</svg>
