<svg width="24" height="24" viewBox="0 0 24 24" fill="none" xmlns="http://www.w3.org/2000/svg">
<path fill-rule="evenodd" clip-rule="evenodd" d="M20.25 5C20.6642 5 21 5.33579 21 5.75V18.25C21 18.6642 20.6642 19 20.25 19H3.75C3.33579 19 3 18.6642 3 18.25V5.75C3 5.33579 3.33579 5 3.75 5H20.25ZM5.40039 11.2959C5.06915 11.2959 4.80002 11.5643 4.7998 11.8955V16.9004C4.80002 17.2316 5.06915 17.5 5.40039 17.5H18.5996C18.9309 17.5 19.2 17.2316 19.2002 16.9004V11.8955C19.2 11.5643 18.9309 11.2959 18.5996 11.2959H5.40039ZM5.40039 6.5C5.06915 6.5 4.80002 6.76842 4.7998 7.09961V9.09961C4.7998 9.43098 5.06902 9.7002 5.40039 9.7002H7.40039C7.7316 9.70001 8 9.43087 8 9.09961V7.09961C7.99979 6.76853 7.73147 6.50018 7.40039 6.5H5.40039ZM11 6.5C10.6688 6.5 10.4006 6.76842 10.4004 7.09961V9.09961C10.4004 9.43098 10.6686 9.7002 11 9.7002H13C13.3313 9.70014 13.5996 9.43095 13.5996 9.09961V7.09961C13.5994 6.76845 13.3312 6.50005 13 6.5H11ZM16.5996 6.5C16.2685 6.50021 16.0002 6.76855 16 7.09961V9.09961C16 9.43085 16.2684 9.69998 16.5996 9.7002H18.5996C18.931 9.7002 19.2002 9.43098 19.2002 9.09961V7.09961C19.2 6.76842 18.9308 6.5 18.5996 6.5H16.5996Z" fill="black"/>
</svg>
