<svg viewBox="0 0 24 24" fill="none" xmlns="http://www.w3.org/2000/svg" width="24" height="24">
<path fill-rule="evenodd" clip-rule="evenodd" d="M20.4 2.1C20.4 1.603 19.997 1.2 19.5 1.2H4.5C4.003 1.2 3.6 1.603 3.6 2.1V21.9C3.6 22.397 4.003 22.8 4.5 22.8H19.5C19.997 22.8 20.4 22.397 20.4 21.9V2.1ZM12.845 19.92C12.845 20.317 12.523 20.64 12.125 20.64H6.12C5.722 20.64 5.4 20.317 5.4 19.92V4.08C5.4 3.683 5.722 3.36 6.12 3.36H12.125C12.523 3.36 12.845 3.683 12.845 4.08V19.92ZM18.6 19.92C18.6 20.317 18.278 20.64 17.88 20.64H15.48C15.083 20.64 14.76 20.317 14.76 19.92V17.52C14.76 17.122 15.083 16.8 15.48 16.8H17.88C18.278 16.8 18.6 17.122 18.6 17.52V19.92ZM18.6 13.2C18.6 13.597 18.278 13.919 17.88 13.92H15.48C15.083 13.92 14.76 13.598 14.76 13.2V10.8C14.76 10.402 15.083 10.08 15.48 10.08H17.88C18.278 10.081 18.6 10.403 18.6 10.8V13.2ZM18.6 6.48C18.6 6.878 18.278 7.2 17.88 7.2H15.48C15.083 7.2 14.76 6.878 14.76 6.48V4.08C14.76 3.683 15.083 3.36 15.48 3.36H17.88C18.278 3.36 18.6 3.683 18.6 4.08V6.48Z" fill="black"/>
</svg>