<svg width="24" height="24" viewBox="0 0 24 24" fill="none" xmlns="http://www.w3.org/2000/svg">
<path d="M19.5025 21C20.3309 21 21.0025 20.3284 21.0025 19.5V11.46C21.0025 10.6316 20.3309 9.96 19.5025 9.96H4.50248C3.67405 9.96 3.00248 10.6316 3.00248 11.46V19.5C3.00248 20.3284 3.67405 21 4.50248 21H19.5025Z" fill="black"/>
<path d="M20.2525 6.96094C20.6667 6.96094 21.0025 6.62515 21.0025 6.21094V3.75C21.0025 3.33579 20.6667 3 20.2525 3H17.7925C17.3783 3 17.0425 3.33579 17.0425 3.75V6.21094C17.0425 6.62515 17.3783 6.96094 17.7925 6.96094H20.2525Z" fill="black"/>
<path d="M6.20805 6.96094C6.62226 6.96094 6.95805 6.62515 6.95805 6.21094V3.75C6.95805 3.33579 6.62226 3 6.20805 3H3.74805C3.33383 3 2.99805 3.33579 2.99805 3.75V6.21094C2.99805 6.62515 3.33383 6.96094 3.74805 6.96094H6.20805Z" fill="black"/>
<path d="M13.2325 6.96094C13.6467 6.96094 13.9825 6.62515 13.9825 6.21094V3.75C13.9825 3.33579 13.6467 3 13.2325 3H10.7725C10.3582 3 10.0225 3.33579 10.0225 3.75V6.21094C10.0225 6.62515 10.3582 6.96094 10.7725 6.96094H13.2325Z" fill="black"/>
<path d="M19.5025 21C20.3309 21 21.0025 20.3284 21.0025 19.5V11.46C21.0025 10.6316 20.3309 9.96 19.5025 9.96H4.50248C3.67405 9.96 3.00248 10.6316 3.00248 11.46V19.5C3.00248 20.3284 3.67405 21 4.50248 21H19.5025Z" stroke="black" stroke-width="1.5"/>
<path d="M20.2525 6.96094C20.6667 6.96094 21.0025 6.62515 21.0025 6.21094V3.75C21.0025 3.33579 20.6667 3 20.2525 3H17.7925C17.3783 3 17.0425 3.33579 17.0425 3.75V6.21094C17.0425 6.62515 17.3783 6.96094 17.7925 6.96094H20.2525Z" stroke="black" stroke-width="1.5"/>
<path d="M6.20805 6.96094C6.62226 6.96094 6.95805 6.62515 6.95805 6.21094V3.75C6.95805 3.33579 6.62226 3 6.20805 3H3.74805C3.33383 3 2.99805 3.33579 2.99805 3.75V6.21094C2.99805 6.62515 3.33383 6.96094 3.74805 6.96094H6.20805Z" stroke="black" stroke-width="1.5"/>
<path d="M13.2325 6.96094C13.6467 6.96094 13.9825 6.62515 13.9825 6.21094V3.75C13.9825 3.33579 13.6467 3 13.2325 3H10.7725C10.3582 3 10.0225 3.33579 10.0225 3.75V6.21094C10.0225 6.62515 10.3582 6.96094 10.7725 6.96094H13.2325Z" stroke="black" stroke-width="1.5"/>
</svg>
