<svg width="24" height="24" viewBox="0 0 24 24" fill="none" xmlns="http://www.w3.org/2000/svg">
<path d="M21.9369 7.50876C21.7257 7.26944 21.466 7.0778 21.175 6.94655C20.8841 6.8153 20.5685 6.74745 20.2494 6.74752H14.9994V5.24753C14.9994 4.25298 14.6043 3.29916 13.9011 2.5959C13.1978 1.89264 12.244 1.49756 11.2494 1.49756C11.1101 1.49746 10.9735 1.53617 10.8549 1.60937C10.7364 1.68256 10.6405 1.78733 10.5782 1.91193L7.03634 8.9975H2.9995C2.60168 8.9975 2.22015 9.15554 1.93885 9.43684C1.65755 9.71814 1.49951 10.0997 1.49951 10.4975V18.7474C1.49951 19.1452 1.65755 19.5268 1.93885 19.8081C2.22015 20.0894 2.60168 20.2474 2.9995 20.2474H19.1244C19.6725 20.2476 20.2019 20.0477 20.6131 19.6852C21.0243 19.3227 21.289 18.8225 21.3575 18.2787L22.4825 9.27875C22.5224 8.9619 22.4943 8.64019 22.4002 8.33501C22.3062 8.02983 22.1482 7.74817 21.9369 7.50876ZM2.9995 10.4975H6.74947V18.7474H2.9995V10.4975Z" fill="black"/>
</svg>
