<svg width="24" height="24" viewBox="0 0 24 24" fill="none" xmlns="http://www.w3.org/2000/svg">
<path d="M3 4.49756C3 3.66913 3.67157 2.99756 4.5 2.99756H12.54C13.3684 2.99756 14.04 3.66913 14.04 4.49756V19.4976C14.04 20.326 13.3684 20.9976 12.54 20.9976H4.5C3.67157 20.9976 3 20.326 3 19.4976V4.49756Z" fill="black"/>
<path d="M17.0391 3.74756C17.0391 3.33335 17.3748 2.99756 17.7891 2.99756H20.25C20.6642 2.99756 21 3.33335 21 3.74756V6.20756C21 6.62177 20.6642 6.95756 20.25 6.95756H17.7891C17.3748 6.95756 17.0391 6.62177 17.0391 6.20756V3.74756Z" fill="black"/>
<path d="M17.0391 17.792C17.0391 17.3778 17.3748 17.042 17.7891 17.042H20.25C20.6642 17.042 21 17.3778 21 17.792V20.252C21 20.6662 20.6642 21.002 20.25 21.002H17.7891C17.3748 21.002 17.0391 20.6662 17.0391 20.252V17.792Z" fill="black"/>
<path d="M17.0391 10.7676C17.0391 10.3534 17.3748 10.0176 17.7891 10.0176H20.25C20.6642 10.0176 21 10.3534 21 10.7676V13.2276C21 13.6418 20.6642 13.9776 20.25 13.9776H17.7891C17.3748 13.9776 17.0391 13.6418 17.0391 13.2276V10.7676Z" fill="black"/>
<path d="M3 4.49756C3 3.66913 3.67157 2.99756 4.5 2.99756H12.54C13.3684 2.99756 14.04 3.66913 14.04 4.49756V19.4976C14.04 20.326 13.3684 20.9976 12.54 20.9976H4.5C3.67157 20.9976 3 20.326 3 19.4976V4.49756Z" stroke="black" stroke-width="1.5"/>
<path d="M17.0391 3.74756C17.0391 3.33335 17.3748 2.99756 17.7891 2.99756H20.25C20.6642 2.99756 21 3.33335 21 3.74756V6.20756C21 6.62177 20.6642 6.95756 20.25 6.95756H17.7891C17.3748 6.95756 17.0391 6.62177 17.0391 6.20756V3.74756Z" stroke="black" stroke-width="1.5"/>
<path d="M17.0391 17.792C17.0391 17.3778 17.3748 17.042 17.7891 17.042H20.25C20.6642 17.042 21 17.3778 21 17.792V20.252C21 20.6662 20.6642 21.002 20.25 21.002H17.7891C17.3748 21.002 17.0391 20.6662 17.0391 20.252V17.792Z" stroke="black" stroke-width="1.5"/>
<path d="M17.0391 10.7676C17.0391 10.3534 17.3748 10.0176 17.7891 10.0176H20.25C20.6642 10.0176 21 10.3534 21 10.7676V13.2276C21 13.6418 20.6642 13.9776 20.25 13.9776H17.7891C17.3748 13.9776 17.0391 13.6418 17.0391 13.2276V10.7676Z" stroke="black" stroke-width="1.5"/>
</svg>
