<svg viewBox="0 0 24 24" fill="none" xmlns="http://www.w3.org/2000/svg" width="24" height="24">
<path fill-rule="evenodd" clip-rule="evenodd" d="M21.9 20.4C22.397 20.4 22.8 19.997 22.8 19.5V4.5C22.8 4.003 22.397 3.6 21.9 3.6H2.1C1.603 3.6 1.2 4.003 1.2 4.5V19.5C1.2 19.997 1.603 20.4 2.1 20.4H21.9ZM4.08 12.845C3.683 12.845 3.36 12.523 3.36 12.125V6.12C3.36 5.722 3.683 5.4 4.08 5.4H19.92C20.317 5.4 20.64 5.722 20.64 6.12V12.125C20.64 12.523 20.317 12.845 19.92 12.845H4.08ZM4.08 18.6C3.683 18.6 3.36 18.278 3.36 17.88V15.48C3.36 15.083 3.683 14.76 4.08 14.76H6.48C6.878 14.76 7.2 15.083 7.2 15.48V17.88C7.2 18.278 6.878 18.6 6.48 18.6H4.08ZM10.8 18.6C10.403 18.6 10.081 18.278 10.08 17.88V15.48C10.08 15.083 10.402 14.76 10.8 14.76H13.2C13.598 14.76 13.92 15.083 13.92 15.48V17.88C13.919 18.278 13.597 18.6 13.2 18.6H10.8ZM17.52 18.6C17.122 18.6 16.8 18.278 16.8 17.88V15.48C16.8 15.083 17.122 14.76 17.52 14.76H19.92C20.317 14.76 20.64 15.083 20.64 15.48V17.88C20.64 18.278 20.317 18.6 19.92 18.6H17.52Z" fill="black"/>
</svg>