<svg width="24" height="24" viewBox="0 0 24 24" fill="none" xmlns="http://www.w3.org/2000/svg">
<path fill-rule="evenodd" clip-rule="evenodd" d="M17.9961 3.40234C18.6862 3.40261 19.2461 3.96215 19.2461 4.65234V19.3545C19.2461 20.0447 18.6862 20.6042 17.9961 20.6045H6C5.30964 20.6045 4.75 20.0448 4.75 19.3545V4.65234C4.75 3.96199 5.30964 3.40234 6 3.40234H17.9961ZM12.8799 15.3965C12.5073 15.3966 12.2053 15.6988 12.2051 16.0713C12.2051 16.444 12.5072 16.746 12.8799 16.7461H15.5801C15.9527 16.7461 16.2546 16.4448 16.2549 16.0723C16.2549 15.6995 15.9529 15.3965 15.5801 15.3965H12.8799ZM8.89648 10.4648C8.63288 10.2012 8.20501 10.2012 7.94141 10.4648C7.67806 10.7283 7.6782 11.1554 7.94141 11.4189L9.85156 13.3281L7.94141 15.2383C7.67821 15.5019 7.67804 15.9289 7.94141 16.1924C8.20501 16.456 8.63288 16.456 8.89648 16.1924L11.2822 13.8057C11.5458 13.5421 11.5458 13.1152 11.2822 12.8516L8.89648 10.4648ZM12.8799 12.6533C12.5073 12.6534 12.2053 12.9556 12.2051 13.3281C12.2051 13.7009 12.5072 14.0028 12.8799 14.0029H15.5801C15.9527 14.0029 16.2546 13.7017 16.2549 13.3291C16.2549 12.9563 15.9529 12.6533 15.5801 12.6533H12.8799ZM12.8799 9.95312C12.5073 9.95323 12.2053 10.2554 12.2051 10.6279C12.2051 11.0007 12.5072 11.3026 12.8799 11.3027H15.5801C15.9527 11.3027 16.2546 11.0015 16.2549 10.6289C16.2549 10.2561 15.9529 9.95312 15.5801 9.95312H12.8799ZM10.1797 7.25293C9.80724 7.25314 9.50515 7.5553 9.50488 7.92773C9.50488 8.3004 9.80708 8.60233 10.1797 8.60254H15.5801C15.9527 8.60254 16.2546 8.30128 16.2549 7.92871C16.2549 7.55592 15.9529 7.25293 15.5801 7.25293H10.1797Z" fill="black"/>
</svg>
