<svg viewBox="0 0 24 24" fill="none" xmlns="http://www.w3.org/2000/svg" width="24" height="24">
<path fill-rule="evenodd" clip-rule="evenodd" d="M19.195 1.683C20.023 1.683 20.695 2.355 20.695 3.183V20.825C20.695 21.654 20.023 22.325 19.195 22.325H4.8C3.972 22.325 3.3 21.654 3.3 20.825V3.183C3.3 2.354 3.972 1.683 4.8 1.683H19.195ZM13.056 16.076C12.609 16.076 12.246 16.439 12.246 16.886 12.246 17.333 12.609 17.695 13.056 17.695H16.296C16.743 17.695 17.106 17.334 17.106 16.887 17.106 16.439 16.743 16.076 16.296 16.076H13.056ZM8.276 10.158C7.959 9.841 7.446 9.841 7.13 10.158 6.814 10.474 6.814 10.986 7.13 11.303L9.422 13.594 7.13 15.886C6.814 16.202 6.814 16.715 7.13 17.031 7.446 17.347 7.959 17.347 8.276 17.031L11.139 14.167C11.455 13.851 11.455 13.338 11.139 13.022L8.276 10.158ZM13.056 12.784C12.609 12.784 12.246 13.147 12.246 13.594 12.246 14.041 12.609 14.403 13.056 14.403H16.296C16.743 14.403 17.106 14.042 17.106 13.595 17.106 13.148 16.743 12.784 16.296 12.784H13.056ZM13.056 9.544C12.609 9.544 12.246 9.906 12.246 10.353 12.246 10.801 12.609 11.163 13.056 11.163H16.296C16.743 11.163 17.106 10.802 17.106 10.355 17.106 9.907 16.743 9.544 16.296 9.544H13.056ZM9.816 6.304C9.369 6.304 9.006 6.666 9.006 7.113 9.006 7.56 9.368 7.923 9.816 7.923H16.296C16.743 7.923 17.106 7.562 17.106 7.114 17.106 6.667 16.743 6.304 16.296 6.304H9.816Z" fill="black"/>
</svg>