<svg width="24" height="24" viewBox="0 0 24 24" fill="none" xmlns="http://www.w3.org/2000/svg">
<path fill-rule="evenodd" clip-rule="evenodd" d="M17.9951 2.25195C19.2377 2.25196 20.245 3.25943 20.2451 4.50195V19.5039C20.2451 20.7465 19.2378 21.7539 17.9951 21.7539H6C4.75747 21.7538 3.75 20.7465 3.75 19.5039V4.50195C3.75013 3.25951 4.75755 2.25209 6 2.25195H17.9951ZM10 15.7744C9.58579 15.7744 9.25 16.1102 9.25 16.5244C9.25026 16.9384 9.58595 17.2744 10 17.2744H16C16.414 17.2744 16.7497 16.9384 16.75 16.5244C16.75 16.1102 16.4142 15.7744 16 15.7744H10ZM11 12.7275C10.5858 12.7275 10.25 13.0633 10.25 13.4775C10.2505 13.8913 10.5861 14.2275 11 14.2275H14C14.4139 14.2275 14.7495 13.8913 14.75 13.4775C14.75 13.0633 14.4142 12.7275 14 12.7275H11ZM11 9.72656C10.5859 9.72656 10.2501 10.0625 10.25 10.4766C10.2503 10.8906 10.5859 11.2266 11 11.2266H14C14.4141 11.2266 14.7497 10.8906 14.75 10.4766C14.7499 10.0625 14.4141 9.72656 14 9.72656H11ZM10 6.72656C9.58579 6.72656 9.25 7.06235 9.25 7.47656C9.25026 7.89055 9.58595 8.22656 10 8.22656H16C16.414 8.22656 16.7497 7.89055 16.75 7.47656C16.75 7.06235 16.4142 6.72656 16 6.72656H10Z" fill="black"/>
</svg>
