<svg width="24" height="24" viewBox="0 0 24 24" fill="none" xmlns="http://www.w3.org/2000/svg">
<path fill-rule="evenodd" clip-rule="evenodd" d="M18.6621 2.25195C19.5362 2.25214 20.2448 2.96089 20.2451 3.83496V20.1709C20.2451 21.0452 19.5364 21.7537 18.6621 21.7539H5.33301C4.45882 21.7536 3.75 21.0452 3.75 20.1709V3.83496C3.75031 2.96096 4.45901 2.25226 5.33301 2.25195H18.6621ZM12.9775 15.7744C12.5636 15.7748 12.2275 16.1104 12.2275 16.5244C12.2278 16.9382 12.5638 17.2741 12.9775 17.2744H15.9775C16.3916 17.2744 16.7272 16.9384 16.7275 16.5244C16.7275 16.1102 16.3918 15.7744 15.9775 15.7744H12.9775ZM8.01172 10.2939C7.71888 10.0013 7.24401 10.0013 6.95117 10.2939C6.65869 10.5868 6.65861 11.0617 6.95117 11.3545L9.07227 13.4756L6.95117 15.5977C6.65862 15.8906 6.6584 16.3654 6.95117 16.6582C7.24397 16.9508 7.71885 16.9507 8.01172 16.6582L10.6631 14.0068C10.9559 13.714 10.9558 13.2392 10.6631 12.9463L8.01172 10.2939ZM12.9775 12.7256C12.5636 12.7258 12.2278 13.0617 12.2275 13.4756C12.2278 13.8894 12.5637 14.2254 12.9775 14.2256H15.9775C16.3916 14.2256 16.7273 13.8896 16.7275 13.4756C16.7273 13.0616 16.3916 12.7256 15.9775 12.7256H12.9775ZM12.9775 9.72559C12.5636 9.7258 12.2277 10.0616 12.2275 10.4756C12.2278 10.8894 12.5637 11.2254 12.9775 11.2256H15.9775C16.3916 11.2256 16.7273 10.8896 16.7275 10.4756C16.7274 10.0615 16.3917 9.72559 15.9775 9.72559H12.9775ZM9.97754 6.72559C9.5636 6.72591 9.22754 7.06157 9.22754 7.47559C9.2278 7.88938 9.56376 8.22527 9.97754 8.22559H15.9775C16.3916 8.22559 16.7273 7.88958 16.7275 7.47559C16.7275 7.06137 16.3918 6.72559 15.9775 6.72559H9.97754Z" fill="black"/>
</svg>
