<svg viewBox="0 0 24 24" fill="none" xmlns="http://www.w3.org/2000/svg" width="24" height="24">
<path fill-rule="evenodd" clip-rule="evenodd" d="M19.195 1.683C20.023 1.683 20.695 2.355 20.695 3.183V20.825C20.695 21.654 20.023 22.325 19.195 22.325H4.8C3.972 22.325 3.3 21.654 3.3 20.825V3.183C3.3 2.354 3.972 1.683 4.8 1.683H19.195ZM9.816 16.076C9.369 16.076 9.006 16.439 9.006 16.886 9.006 17.333 9.368 17.695 9.816 17.695H16.296C16.743 17.695 17.106 17.333 17.106 16.886 17.106 16.438 16.743 16.076 16.296 16.076H9.816ZM10.379 12.784C9.932 12.784 9.57 13.147 9.57 13.594 9.57 14.041 9.932 14.403 10.379 14.403H13.62C14.067 14.403 14.429 14.041 14.429 13.594 14.429 13.147 14.067 12.784 13.62 12.784H10.379ZM10.379 9.544C9.932 9.544 9.57 9.906 9.57 10.353 9.57 10.801 9.932 11.163 10.379 11.163H13.62C14.067 11.163 14.429 10.801 14.429 10.353 14.429 9.906 14.067 9.544 13.62 9.544H10.379ZM9.816 6.304C9.369 6.304 9.006 6.666 9.006 7.113 9.006 7.56 9.369 7.923 9.816 7.923H16.296C16.743 7.923 17.106 7.561 17.106 7.113 17.106 6.666 16.743 6.304 16.296 6.304H9.816Z" fill="black"/>
</svg>