<svg width="24" height="24" viewBox="0 0 24 24" fill="none" xmlns="http://www.w3.org/2000/svg">
<path d="M3.86151 7.29275C3.79011 7.2213 3.75 7.12442 3.75 7.02341C3.75 6.9224 3.79011 6.82552 3.86151 6.75407L6.75069 3.86347C6.82214 3.79206 6.91902 3.75195 7.02003 3.75195C7.12104 3.75195 7.21792 3.79206 7.28937 3.86347L10.0185 6.60023C10.0185 6.60023 11.3402 5.93961 12.7519 7.0789C12.7938 7.11241 12.8281 7.15437 12.8527 7.20206C12.8772 7.24974 12.8914 7.30206 12.8943 7.3556C12.8972 7.40915 12.8888 7.4627 12.8696 7.51277C12.8504 7.56284 12.8209 7.60829 12.7829 7.64616L7.64373 12.7848C7.60524 12.8231 7.55904 12.8526 7.50821 12.8715C7.45739 12.8904 7.40311 12.8983 7.349 12.8946C7.2949 12.8908 7.24222 12.8756 7.19448 12.8498C7.14674 12.8241 7.10505 12.7885 7.07218 12.7453C6.67258 12.2138 6.04483 11.1216 6.59065 10.0305L3.86151 7.29275Z" fill="black"/>
<path d="M3.75 16.5153H7.28772V20.2482H3.75V16.5153Z" fill="black"/>
<path d="M10.2311 16.5152H13.7689V20.2481H10.2311V16.5152Z" fill="black"/>
<path d="M16.71 16.5152H20.2477V20.2481H16.71V16.5152Z" fill="black"/>
<path d="M10.2155 10.2222L12.5155 12.5222M3.86151 7.29275C3.79011 7.2213 3.75 7.12442 3.75 7.02341C3.75 6.9224 3.79011 6.82552 3.86151 6.75407L6.75069 3.86347C6.82214 3.79206 6.91902 3.75195 7.02003 3.75195C7.12104 3.75195 7.21792 3.79206 7.28937 3.86347L10.0185 6.60023C10.0185 6.60023 11.3402 5.93961 12.7519 7.0789C12.7938 7.11241 12.8281 7.15437 12.8527 7.20206C12.8772 7.24974 12.8914 7.30206 12.8943 7.3556C12.8972 7.40915 12.8888 7.4627 12.8696 7.51277C12.8504 7.56284 12.8209 7.60829 12.7829 7.64616L7.64373 12.7848C7.60524 12.8231 7.55904 12.8526 7.50821 12.8715C7.45739 12.8904 7.40311 12.8983 7.349 12.8946C7.2949 12.8908 7.24222 12.8756 7.19448 12.8498C7.14674 12.8241 7.10505 12.7885 7.07218 12.7453C6.67258 12.2138 6.04483 11.1216 6.59065 10.0305L3.86151 7.29275ZM3.75 16.5153H7.28772V20.2482H3.75V16.5153ZM10.2311 16.5152H13.7689V20.2481H10.2311V16.5152ZM16.71 16.5152H20.2477V20.2481H16.71V16.5152Z" stroke="black" stroke-width="1.425" stroke-linecap="round" stroke-linejoin="round"/>
</svg>
