<svg viewBox="0 0 24 24" fill="none" xmlns="http://www.w3.org/2000/svg" width="24" height="24">
<path fill-rule="evenodd" clip-rule="evenodd" d="M20.1 9.395C20.292 9.322 20.494 9.273 20.7 9.25V7.949C20.7 7.79 20.637 7.638 20.524 7.525L14.855 1.856C14.77 1.771 14.663 1.715 14.548 1.692L14.43 1.68H4.71C4.336 1.68 3.977 1.828 3.712 2.092 3.448 2.357 3.3 2.716 3.3 3.09V15.581C3.495 15.513 3.696 15.47 3.9 15.452 4.1 15.435 4.302 15.442 4.5 15.475 4.986 15.554 5.452 15.78 5.827 16.155L5.938 16.267 6.05 16.155C6.999 15.206 8.537 15.206 9.486 16.155 10.435 17.104 10.435 18.642 9.486 19.591L9.374 19.703 9.486 19.815C9.855 20.184 10.081 20.642 10.163 21.12H15.03C14.666 21 14.33 20.795 14.052 20.518 13.587 20.052 13.326 19.421 13.325 18.763V16.849L13.326 16.809 13.331 16.724 13.332 16.683 13.337 16.644C13.394 16.074 13.646 15.54 14.051 15.134L19.254 9.931 19.285 9.903 19.348 9.846 19.376 9.821 19.406 9.796C19.437 9.771 19.468 9.747 19.5 9.723 19.684 9.586 19.887 9.476 20.1 9.395ZM18.651 7.349H15.03V3.728L18.651 7.349Z" fill="black"/>
<path fill-rule="evenodd" clip-rule="evenodd" d="M20.17 10.906C20.317 10.759 20.501 10.656 20.7 10.606 20.791 10.583 20.886 10.571 20.981 10.571L21.094 10.577C21.356 10.603 21.602 10.718 21.79 10.906L23.665 12.779C23.879 12.993 24 13.285 24 13.588 24 13.892 23.879 14.184 23.665 14.398L18.493 19.572C18.279 19.786 17.987 19.907 17.684 19.907H15.809C15.505 19.907 15.213 19.787 14.999 19.572 14.784 19.357 14.664 19.066 14.664 18.762V16.887C14.664 16.584 14.784 16.292 14.999 16.077L20.17 10.906ZM20.55 15.222L19.348 14.02 16.283 17.084V18.288H17.487L20.55 15.222ZM20.98 12.387L22.182 13.588 21.401 14.369 20.2 13.168 20.98 12.387Z" fill="black"/>
<path fill-rule="evenodd" clip-rule="evenodd" d="M19.437 20.52C19.16 20.796 18.825 21 18.46 21.12 18.289 21.177 18.111 21.214 17.93 21.233L17.887 21.237 17.846 21.24 17.761 21.243 17.722 21.246H15.806C15.541 21.245 15.279 21.202 15.03 21.12H10.163C10.197 21.318 10.206 21.52 10.191 21.72 10.175 21.923 10.134 22.125 10.067 22.32H19.29C19.664 22.32 20.023 22.171 20.287 21.906 20.551 21.642 20.7 21.284 20.7 20.91V19.256L19.437 20.52Z" fill="black"/>
<path fill-rule="evenodd" clip-rule="evenodd" d="M7.083 19.702L8.229 20.848 8.341 20.96C8.658 21.276 8.658 21.789 8.341 22.106 8.025 22.422 7.512 22.422 7.195 22.106L7.084 21.993 5.938 20.847 4.682 22.106C4.6 22.187 4.506 22.247 4.406 22.287 4.115 22.401 3.771 22.341 3.535 22.106 3.308 21.878 3.244 21.547 3.345 21.262 3.384 21.151 3.447 21.048 3.535 20.96L4.793 19.702 3.648 18.557 3.535 18.446C3.219 18.13 3.219 17.616 3.535 17.3 3.852 16.983 4.365 16.983 4.682 17.3L4.793 17.412 5.938 18.557 7.084 17.412 7.195 17.3C7.512 16.983 8.025 16.984 8.341 17.3 8.658 17.616 8.658 18.13 8.341 18.446L8.229 18.557 7.083 19.702Z" fill="black"/>
</svg>