<svg width="24" height="24" viewBox="0 0 24 24" fill="none" xmlns="http://www.w3.org/2000/svg">
<path d="M18.7861 10.5049C19.0024 10.5263 19.2078 10.6114 19.376 10.749L19.457 10.8223L21.4307 12.7949C21.6371 13.0017 21.7529 13.282 21.7529 13.5742C21.7529 13.8666 21.6374 14.1476 21.4307 14.3545L19.8369 15.9473C19.809 15.99 19.7778 16.0318 19.7402 16.0693C19.7027 16.1069 19.661 16.1381 19.6182 16.166L15.9863 19.7998C15.7796 20.0063 15.4982 20.1229 15.2061 20.123H13.2334C12.9408 20.123 12.66 20.0067 12.4531 19.7998C12.2462 19.5929 12.1299 19.3121 12.1299 19.0195V17.0469C12.13 16.7547 12.2466 16.4733 12.4531 16.2666L17.8975 10.8223C18.1042 10.6158 18.3846 10.5001 18.6768 10.5L18.7861 10.5049ZM17.7861 13.0547L19.1973 14.4648L20.0879 13.5742L18.6768 12.1641L17.7861 13.0547Z" fill="black"/>
<path fill-rule="evenodd" clip-rule="evenodd" d="M3.75 3.75V13.5C3.75 13.9142 4.08579 14.25 4.5 14.25C4.91421 14.25 5.25 13.9142 5.25 13.5V3.75H13.5V8.25C13.5 8.66421 13.8358 9 14.25 9H19.5C19.8033 9 20.0773 8.81737 20.1934 8.53711C20.3094 8.25687 20.2448 7.93421 20.0303 7.71973L14.7803 2.46973C14.6396 2.32907 14.4489 2.25 14.25 2.25H5.25C4.85217 2.25 4.47076 2.40815 4.18945 2.68945C3.90815 2.97076 3.75 3.35217 3.75 3.75ZM15 7.5H17.6895L15 4.81055V7.5Z" fill="black"/>
<path fill-rule="evenodd" clip-rule="evenodd" d="M9.53027 15.9697C9.23738 15.6768 8.76262 15.6768 8.46973 15.9697L6.75 17.6895L5.03027 15.9697C4.73738 15.6768 4.26262 15.6768 3.96973 15.9697C3.67683 16.2626 3.67683 16.7374 3.96973 17.0303L5.68945 18.75L3.96973 20.4697C3.67683 20.7626 3.67683 21.2374 3.96973 21.5303C4.26262 21.8232 4.73738 21.8232 5.03027 21.5303L6.75 19.8105L8.46973 21.5303C8.76262 21.8232 9.23738 21.8232 9.53027 21.5303C9.82317 21.2374 9.82317 20.7626 9.53027 20.4697L7.81055 18.75L9.53027 17.0303C9.82317 16.7374 9.82317 16.2626 9.53027 15.9697Z" fill="black"/>
</svg>
