<svg width="24" height="24" viewBox="0 0 24 24" fill="none" xmlns="http://www.w3.org/2000/svg">
<path fill-rule="evenodd" clip-rule="evenodd" d="M4.15527 3.75V20.25C4.15527 20.6478 4.31342 21.0292 4.59473 21.3105C4.87603 21.5919 5.25745 21.75 5.65527 21.75H8.78418C9.19839 21.75 9.53418 21.4142 9.53418 21C9.53418 20.5858 9.19839 20.25 8.78418 20.25H5.65527V3.75H13.9053V8.25C13.9053 8.66421 14.2411 9 14.6553 9H19.9053C20.2086 9 20.4825 8.81737 20.5986 8.53711C20.7147 8.25687 20.65 7.93421 20.4355 7.71973L15.1855 2.46973C15.0449 2.32907 14.8542 2.25 14.6553 2.25H5.65527C5.25745 2.25 4.87603 2.40815 4.59473 2.68945C4.31342 2.97076 4.15527 3.35217 4.15527 3.75ZM9.96484 16.6494C9.96471 16.2353 9.62898 15.8994 9.21484 15.8994H7.90527C7.49114 15.8994 7.15541 16.2353 7.15527 16.6494C7.15527 17.0636 7.49106 17.3994 7.90527 17.3994H9.21484C9.62906 17.3994 9.96484 17.0636 9.96484 16.6494ZM11.2803 13.9502C11.2803 13.536 10.9445 13.2002 10.5303 13.2002H7.90527C7.49106 13.2002 7.15527 13.536 7.15527 13.9502C7.15554 14.3642 7.49122 14.7002 7.90527 14.7002H10.5303C10.9443 14.7002 11.28 14.3642 11.2803 13.9502ZM13.9053 11.25C13.9053 10.8358 13.5695 10.5 13.1553 10.5H7.90527C7.49106 10.5 7.15527 10.8358 7.15527 11.25C7.15541 11.6641 7.49114 12 7.90527 12H13.1553C13.5694 12 13.9051 11.6641 13.9053 11.25ZM18.0947 7.5H15.4053V4.81055L18.0947 7.5Z" fill="black"/>
<path d="M22.1543 13.5742C22.1543 13.8667 22.0378 14.1476 21.8311 14.3545L20.2393 15.9453C20.2111 15.9888 20.1788 16.0312 20.1406 16.0693C20.1027 16.1072 20.0608 16.1389 20.0176 16.167L16.3867 19.7998C16.18 20.0063 15.8996 20.1229 15.6074 20.123H13.6338C13.3413 20.123 13.0603 20.0066 12.8535 19.7998C12.6467 19.5929 12.5312 19.312 12.5312 19.0195V17.0459C12.5315 16.7539 12.6471 16.4732 12.8535 16.2666L18.2979 10.8223C18.5047 10.6155 18.7857 10.5 19.0781 10.5L19.1875 10.5049C19.4396 10.53 19.6766 10.6417 19.8574 10.8223L21.8311 12.7939C22.0377 13.0008 22.1543 13.2819 22.1543 13.5742ZM18.1865 13.0547L19.5977 14.4658L20.4893 13.5742L19.0781 12.1631L18.1865 13.0547Z" fill="black"/>
</svg>
