<svg width="24" height="24" viewBox="0 0 24 24" fill="none" xmlns="http://www.w3.org/2000/svg">
<path d="M8.37891 21H5.25C5.05109 21 4.86032 20.921 4.71967 20.7803C4.57902 20.6397 4.5 20.4489 4.5 20.25V3.75C4.5 3.55109 4.57902 3.36032 4.71967 3.21967C4.86032 3.07902 5.05109 3 5.25 3H14.25L19.5 8.25V9.86754M14.25 3V8.25H19.5M15.2341 14.686L17.7064 17.1584M7.5 13.9497H10.125M7.5 11.2498H12.75M7.5 16.6497H8.81M13.703 20.9927H11.73C11.6364 20.9927 11.5465 20.9555 11.4803 20.8892C11.4141 20.823 11.3768 20.7332 11.3768 20.6395V18.6665C11.3769 18.573 11.414 18.4833 11.4801 18.4171L16.9244 12.9729C16.9906 12.9067 17.0804 12.8695 17.174 12.8695C17.2677 12.8695 17.3575 12.9067 17.4237 12.9729L19.3966 14.9445C19.4628 15.0107 19.5 15.1005 19.5 15.1941C19.5 15.2878 19.4628 15.3776 19.3966 15.4438L13.9524 20.8894C13.8862 20.9555 13.7965 20.9926 13.703 20.9927ZM12.1268 18.8315V20.2427H13.538L16.6327 17.146L15.2225 15.7349L12.1268 18.8315Z" stroke="black" stroke-width="1.5" stroke-linecap="round" stroke-linejoin="round"/>
</svg>
