<svg width="24" height="24" viewBox="0 0 24 24" fill="none" xmlns="http://www.w3.org/2000/svg">
<path d="M13.63 17.2117V18.6228H15.0411L18.1359 15.5261L16.7257 14.115L13.63 17.2117Z" fill="black"/>
<path fill-rule="evenodd" clip-rule="evenodd" d="M13.63 18.6228V17.2117L16.7257 14.115L18.1359 15.5261L15.0411 18.6228H13.63Z" fill="black"/>
<path d="M14.25 3V8.25H19.5L14.25 3ZM14.25 3H5.25C5.05109 3 4.86032 3.07902 4.71967 3.21967C4.57902 3.36032 4.5 3.55109 4.5 3.75V13.5M16.7372 13.0662L19.2096 15.5385M4.5 16.5L6.75 18.75M6.75 18.75L9 21M6.75 18.75L9 16.5M6.75 18.75L4.5 21M15.2061 19.3729H13.2332C13.1395 19.3729 13.0497 19.3357 12.9834 19.2695C12.9172 19.2032 12.88 19.1134 12.88 19.0197V17.0468C12.88 16.9532 12.9172 16.8635 12.9833 16.7974L18.4276 11.3531C18.4938 11.2869 18.5836 11.2498 18.6772 11.2498C18.7708 11.2498 18.8606 11.2869 18.9269 11.3531L20.8998 13.3247C20.966 13.391 21.0032 13.4808 21.0032 13.5744C21.0032 13.668 20.966 13.7578 20.8998 13.824L15.4556 19.2696C15.3894 19.3357 15.2997 19.3729 15.2061 19.3729ZM13.63 17.2117V18.6228H15.0411L18.1359 15.5261L16.7257 14.115L13.63 17.2117Z" stroke="black" stroke-width="1.5" stroke-linecap="round" stroke-linejoin="round"/>
</svg>
