<svg viewBox="0 0 24 24" fill="none" xmlns="http://www.w3.org/2000/svg" width="24" height="24">
<path fill-rule="evenodd" clip-rule="evenodd" d="M16.623 1.707L20.673 5.757C20.748 5.832 20.808 5.922 20.849 6.02 20.889 6.118 20.91 6.224 20.91 6.33V9.235C20.359 9.25 19.83 9.449 19.407 9.796L19.376 9.821 19.348 9.846 19.29 9.899V6.665L15.715 3.09H7.95V4.71H12.81C12.917 4.71 13.022 4.731 13.12 4.772 13.219 4.812 13.308 4.872 13.383 4.947L17.433 8.997C17.508 9.072 17.568 9.162 17.609 9.26 17.649 9.358 17.67 9.464 17.67 9.57V11.515L14.051 15.134C13.646 15.54 13.394 16.074 13.337 16.644L13.333 16.683 13.332 16.724 13.327 16.809 13.326 16.849V18.763C13.326 19.421 13.587 20.052 14.052 20.518 14.519 20.985 15.152 21.245 15.807 21.246H17.635C17.571 21.55 17.419 21.832 17.196 22.056 16.892 22.359 16.48 22.53 16.05 22.53H9.985C10.387 21.636 10.221 20.549 9.487 19.815L9.375 19.703 9.487 19.591C10.436 18.642 10.436 17.104 9.487 16.155 8.538 15.206 7 15.206 6.051 16.155L5.939 16.267 5.827 16.155C5.087 15.415 3.988 15.252 3.09 15.666V6.33C3.09 5.9 3.261 5.488 3.565 5.185 3.869 4.881 4.281 4.71 4.71 4.71H6.33V3.09C6.33 2.66 6.501 2.248 6.805 1.945 7.109 1.641 7.521 1.47 7.95 1.47H16.05C16.157 1.47 16.262 1.491 16.36 1.532 16.459 1.572 16.548 1.632 16.623 1.707Z" fill="black"/>
<path fill-rule="evenodd" clip-rule="evenodd" d="M3.536 18.446L4.793 19.703 3.536 20.96C3.319 21.176 3.251 21.485 3.331 21.76 3.397 21.866 3.475 21.966 3.565 22.056 3.668 22.159 3.784 22.247 3.909 22.318 4.177 22.386 4.472 22.315 4.682 22.106L5.939 20.849 7.196 22.106C7.512 22.422 8.025 22.422 8.342 22.106 8.658 21.789 8.658 21.276 8.342 20.96L7.085 19.703 8.342 18.446C8.658 18.13 8.658 17.616 8.342 17.3 8.025 16.984 7.512 16.983 7.196 17.3L5.939 18.557 4.682 17.3C4.366 16.983 3.852 16.983 3.536 17.3 3.22 17.616 3.22 18.13 3.536 18.446Z" fill="black"/>
<path fill-rule="evenodd" clip-rule="evenodd" d="M23.665 14.398L18.494 19.572C18.279 19.786 17.987 19.907 17.684 19.907H15.809C15.505 19.907 15.214 19.787 14.999 19.572 14.784 19.357 14.664 19.066 14.664 18.762V16.887C14.664 16.584 14.785 16.292 14.999 16.077L20.171 10.906C20.368 10.708 20.633 10.59 20.91 10.573 20.934 10.572 20.958 10.571 20.982 10.571L21.094 10.577C21.356 10.603 21.602 10.718 21.79 10.906L23.665 12.779C23.88 12.993 24 13.285 24 13.588 24 13.892 23.88 14.184 23.665 14.398ZM20.98 12.387L20.2 13.168 21.401 14.369 22.183 13.588 20.98 12.387ZM19.348 14.02L20.55 15.222 17.487 18.288H16.284V17.084L19.348 14.02Z" fill="black"/>
</svg>