<svg width="24" height="24" viewBox="0 0 24 24" fill="none" xmlns="http://www.w3.org/2000/svg">
<path fill-rule="evenodd" clip-rule="evenodd" d="M3.75 3.75V20.25C3.75 20.6478 3.90815 21.0292 4.18945 21.3105C4.47076 21.5919 4.85218 21.75 5.25 21.75H8.37891C8.79312 21.75 9.12891 21.4142 9.12891 21C9.12891 20.5858 8.79312 20.25 8.37891 20.25H5.25V3.75H13.5V8.25C13.5 8.66421 13.8358 9 14.25 9H18.75V9.86719C18.75 10.2814 19.0858 10.6172 19.5 10.6172C19.9142 10.6172 20.25 10.2814 20.25 9.86719V8.25C20.25 8.05109 20.1709 7.86038 20.0303 7.71973L14.7803 2.46973C14.6396 2.32907 14.4489 2.25 14.25 2.25H5.25C4.85217 2.25 4.47076 2.40815 4.18945 2.68945C3.90815 2.97076 3.75 3.35217 3.75 3.75ZM9.55957 16.6494C9.55944 16.2353 9.2237 15.8994 8.80957 15.8994H7.5C7.08587 15.8994 6.75013 16.2353 6.75 16.6494C6.75 17.0636 7.08579 17.3994 7.5 17.3994H8.80957C9.22378 17.3994 9.55957 17.0636 9.55957 16.6494ZM10.875 13.9502C10.875 13.536 10.5392 13.2002 10.125 13.2002H7.5C7.08579 13.2002 6.75 13.536 6.75 13.9502C6.75026 14.3642 7.08595 14.7002 7.5 14.7002H10.125C10.5391 14.7002 10.8747 14.3642 10.875 13.9502ZM13.5 11.25C13.5 10.8358 13.1642 10.5 12.75 10.5H7.5C7.08579 10.5 6.75 10.8358 6.75 11.25C6.75013 11.6641 7.08587 12 7.5 12H12.75C13.1641 12 13.4999 11.6641 13.5 11.25ZM17.6895 7.5H15V4.81055L17.6895 7.5Z" fill="black"/>
<path d="M20.25 15.1943C20.2499 15.4867 20.1334 15.7668 19.9268 15.9736L18.3359 17.5635C18.3075 17.6075 18.2749 17.6499 18.2363 17.6885C18.1979 17.7269 18.1562 17.7598 18.1123 17.7881L14.4824 21.4199C14.3016 21.6005 14.0646 21.7121 13.8125 21.7373L13.7031 21.7422H11.7305C11.438 21.7422 11.1571 21.6266 10.9502 21.4199C10.7433 21.2131 10.627 20.9322 10.627 20.6396V18.666C10.6271 18.3739 10.7428 18.0934 10.9492 17.8867L16.3945 12.4424L16.4756 12.3691C16.6718 12.2086 16.9181 12.1192 17.1738 12.1191C17.4298 12.1191 17.6768 12.2084 17.873 12.3691L17.9541 12.4424L19.9268 14.4141L20 14.4951C20.1609 14.6914 20.25 14.9383 20.25 15.1943ZM16.2832 14.6738L17.6934 16.085L18.585 15.1934L17.1738 13.7832L16.2832 14.6738Z" fill="black"/>
</svg>
