<svg width="24" height="24" viewBox="0 0 24 24" fill="none" xmlns="http://www.w3.org/2000/svg">
<path d="M13.63 17.2117V18.6228H15.0411L18.1359 15.5261L16.7257 14.115L13.63 17.2117Z" fill="black"/>
<path fill-rule="evenodd" clip-rule="evenodd" d="M13.63 18.6228V17.2117L16.7257 14.115L18.1359 15.5261L15.0411 18.6228H13.63Z" fill="black"/>
<path d="M4.5 13.7031V6.75C4.5 6.55109 4.57902 6.36032 4.71967 6.21967C4.86032 6.07902 5.05109 6 5.25 6H7.5M15.8958 9.14582L12.75 6H7.5M7.5 6V3.75C7.5 3.55109 7.57902 3.36032 7.71967 3.21967C7.86032 3.07902 8.05109 3 8.25 3H15.75L19.5 6.75V8M4.5 16.5L6.75 18.75M6.75 18.75L9 21M6.75 18.75L9 16.5M6.75 18.75L4.5 21M16.7372 13.0662L19.2096 15.5385M15.2061 19.3728H13.2332C13.1395 19.3728 13.0497 19.3356 12.9834 19.2694C12.9172 19.2031 12.88 19.1133 12.88 19.0196V17.0467C12.88 16.9531 12.9172 16.8634 12.9833 16.7972L18.4275 11.353C18.4938 11.2868 18.5836 11.2496 18.6772 11.2496C18.7708 11.2496 18.8606 11.2868 18.9269 11.353L20.8998 13.3246C20.966 13.3908 21.0032 13.4806 21.0032 13.5743C21.0032 13.6679 20.966 13.7577 20.8998 13.8239L15.4556 19.2695C15.3894 19.3356 15.2997 19.3727 15.2061 19.3728ZM13.63 17.2117V18.6228H15.0411L18.1359 15.5261L16.7257 14.115L13.63 17.2117Z" stroke="black" stroke-width="1.5" stroke-linecap="round" stroke-linejoin="round"/>
</svg>
