<svg viewBox="0 0 24 24" fill="none" xmlns="http://www.w3.org/2000/svg" width="24" height="24">
<path fill-rule="evenodd" clip-rule="evenodd" d="M14.43 1.471C14.537 1.471 14.642 1.491 14.74 1.532 14.838 1.572 14.928 1.632 15.003 1.707L20.673 7.377C20.748 7.452 20.808 7.541 20.849 7.639 20.889 7.738 20.91 7.844 20.91 7.95V9.235C20.359 9.25 19.83 9.449 19.406 9.796L19.376 9.821 19.348 9.845 19.286 9.903 19.254 9.931 14.051 15.134C13.646 15.54 13.394 16.074 13.337 16.643L13.333 16.683 13.331 16.724 13.327 16.809 13.326 16.848V18.763C13.326 19.42 13.587 20.052 14.052 20.518 14.519 20.985 15.152 21.245 15.806 21.245H17.722L17.761 21.243 17.847 21.24 17.888 21.237 17.93 21.233C18.497 21.176 19.031 20.925 19.437 20.52L20.91 19.046V20.91C20.91 21.339 20.74 21.752 20.436 22.056 20.133 22.36 19.72 22.53 19.29 22.53H4.71C4.28 22.53 3.869 22.359 3.565 22.056 3.261 21.752 3.09 21.339 3.09 20.91V3.09C3.09 2.661 3.261 2.248 3.565 1.944 3.869 1.641 4.28 1.471 4.71 1.471H14.43ZM8.808 16.861C8.36 16.861 7.998 17.223 7.998 17.671 7.998 18.118 8.361 18.48 8.808 18.48H10.427C10.875 18.48 11.238 18.118 11.238 17.671 11.238 17.223 10.875 16.861 10.427 16.861H8.808ZM8.808 13.621C8.36 13.621 7.998 13.983 7.998 14.43 7.998 14.878 8.361 15.24 8.808 15.24H10.427C10.875 15.24 11.238 14.878 11.238 14.43 11.238 13.983 10.875 13.621 10.427 13.621H8.808ZM8.808 10.38C8.36 10.38 7.998 10.743 7.998 11.19 7.998 11.637 8.361 12 8.808 12H12.832C13.279 12 13.641 11.637 13.642 11.19 13.642 10.743 13.279 10.381 12.832 10.38H8.808ZM14.43 7.95H18.885L14.43 3.496V7.95Z" fill="black"/>
<path d="M23.665 14.398C23.879 14.183 24 13.892 24 13.588 24 13.285 23.879 12.993 23.665 12.779L21.79 10.906C21.602 10.718 21.356 10.603 21.094 10.577L20.981 10.571C20.957 10.571 20.934 10.572 20.91 10.573 20.632 10.59 20.368 10.708 20.17 10.906L14.999 16.077C14.784 16.292 14.664 16.584 14.664 16.887V18.762C14.664 19.066 14.784 19.357 14.999 19.572 15.214 19.787 15.505 19.907 15.809 19.907H17.684C17.987 19.907 18.279 19.786 18.493 19.572L23.665 14.398ZM20.98 12.387L22.182 13.588 21.401 14.369 20.2 13.168 20.98 12.387ZM16.283 18.288V17.084L19.348 14.02 20.55 15.222 17.487 18.288H16.283Z" fill="black"/>
</svg>