<svg width="24" height="24" viewBox="0 0 24 24" fill="none" xmlns="http://www.w3.org/2000/svg">
<path fill-rule="evenodd" clip-rule="evenodd" d="M9.53027 15.9697C9.23738 15.6768 8.76262 15.6768 8.46973 15.9697L6.75 17.6895L5.03027 15.9697C4.73738 15.6768 4.26262 15.6768 3.96973 15.9697C3.67683 16.2626 3.67683 16.7374 3.96973 17.0303L5.68945 18.75L3.96973 20.4697C3.67683 20.7626 3.67683 21.2374 3.96973 21.5303C4.26262 21.8232 4.73738 21.8232 5.03027 21.5303L6.75 19.8105L8.46973 21.5303C8.76262 21.8232 9.23738 21.8232 9.53027 21.5303C9.82317 21.2374 9.82317 20.7626 9.53027 20.4697L7.81055 18.75L9.53027 17.0303C9.82317 16.7374 9.82317 16.2626 9.53027 15.9697ZM3.75 6.75V13.7031C3.75 14.1173 4.08579 14.4531 4.5 14.4531C4.91421 14.4531 5.25 14.1173 5.25 13.7031V6.75H12.4395L15.3652 9.67578C15.6581 9.96867 16.1329 9.96867 16.4258 9.67578C16.7187 9.38289 16.7187 8.90813 16.4258 8.61523L13.2803 5.46973C13.1396 5.32907 12.9489 5.25 12.75 5.25H8.25V3.75H15.4395L18.75 7.06055V8C18.75 8.41421 19.0858 8.75 19.5 8.75C19.9142 8.75 20.25 8.41421 20.25 8V6.75C20.25 6.55109 20.1709 6.36038 20.0303 6.21973L16.2803 2.46973C16.1396 2.32907 15.9489 2.25 15.75 2.25H8.25C7.85217 2.25 7.47076 2.40815 7.18945 2.68945C6.90815 2.97076 6.75 3.35217 6.75 3.75V5.25H5.25C4.85217 5.25 4.47076 5.40815 4.18945 5.68945C3.90815 5.97076 3.75 6.35217 3.75 6.75Z" fill="black"/>
<path d="M18.7861 10.5049C19.0024 10.5263 19.2078 10.6113 19.376 10.749L19.457 10.8223L21.4307 12.7949C21.6371 13.0017 21.7529 13.282 21.7529 13.5742C21.7529 13.8667 21.6374 14.1476 21.4307 14.3545L19.8369 15.9473C19.809 15.99 19.7778 16.0318 19.7402 16.0693C19.7027 16.1069 19.661 16.1381 19.6182 16.166L15.9863 19.7998C15.7796 20.0063 15.4982 20.1229 15.2061 20.123H13.2334C12.9409 20.123 12.66 20.0066 12.4531 19.7998C12.2462 19.5929 12.1299 19.3121 12.1299 19.0195V17.0459C12.1301 16.7539 12.2467 16.4732 12.4531 16.2666L17.8975 10.8223L17.9785 10.749C18.1746 10.5885 18.4211 10.5001 18.6768 10.5L18.7861 10.5049ZM17.7861 13.0547L19.1973 14.4648L20.0879 13.5742L18.6768 12.1641L17.7861 13.0547Z" fill="black"/>
</svg>
