<?xml version="1.0" encoding="utf-8"?>
<svg xmlns="http://www.w3.org/2000/svg" width="512" height="512" viewBox="0 0 512 512">
  <path d="M128 128H96V64c0-17.7 14.3-32 32-32h224l64 64h-96V64H128v64zm122.9 193.2L224 349.3V416h66.7l28.1-26.9 141.6-141.6-67.9-67.9-141.6 141.6zm28.4 62.1L268 372l-11.3-11.3 135.8-135.8 22.6 22.6-135.8 135.8zM416 337.155l32-32V448c0 17.7-14.3 32-32 32H128c-17.7 0-32-14.3-32-32v-96h32v96h288V337.155zM502.7 205.3 480 227.8 412.2 160l22.6-22.6c12.4-12.4 32.8-12.4 45.3 0l22.6 22.6c12.4 12.4 12.4 32.8 0 45.3zM288 144 112 320 0 208l45-45 67 67L243 99l45 45zm-96 272h-32v-32h32v32z"/>
</svg>
