<svg width="24" height="24" viewBox="0 0 24 24" fill="none" xmlns="http://www.w3.org/2000/svg">
<path fill-rule="evenodd" clip-rule="evenodd" d="M9.53027 17.4697C9.23738 17.1768 8.76262 17.1768 8.46973 17.4697L6 19.9395L5.03027 18.9697C4.73738 18.6768 4.26262 18.6768 3.96973 18.9697C3.67683 19.2626 3.67683 19.7374 3.96973 20.0303L5.46973 21.5303C5.76262 21.8232 6.23738 21.8232 6.53027 21.5303L9.53027 18.5303C9.82317 18.2374 9.82317 17.7626 9.53027 17.4697ZM3.75 3.75V15.8516C3.75 16.2658 4.08579 16.6016 4.5 16.6016C4.91421 16.6016 5.25 16.2658 5.25 15.8516V3.75H13.5V8.25C13.5 8.66421 13.8358 9 14.25 9H19.5C19.8033 9 20.0773 8.81737 20.1934 8.53711C20.3094 8.25687 20.2448 7.93421 20.0303 7.71973L14.7803 2.46973C14.6396 2.32907 14.4489 2.25 14.25 2.25H5.25C4.85217 2.25 4.47076 2.40815 4.18945 2.68945C3.90815 2.97076 3.75 3.35217 3.75 3.75ZM17.6895 7.5H15V4.81055L17.6895 7.5Z" fill="black"/>
<path d="M18.7861 10.5049C19.0385 10.5299 19.276 10.6415 19.457 10.8223L21.4307 12.7949C21.6371 13.0017 21.7529 13.282 21.7529 13.5742C21.7529 13.8667 21.6374 14.1476 21.4307 14.3545L19.7949 15.9893C19.7742 16.0166 19.7525 16.0444 19.7275 16.0693C19.703 16.0939 19.6763 16.1153 19.6494 16.1357L15.9863 19.7998C15.7796 20.0063 15.4982 20.1229 15.2061 20.123H13.2334C12.9408 20.123 12.66 20.0067 12.4531 19.7998C12.2462 19.5929 12.1299 19.3121 12.1299 19.0195V17.0469C12.13 16.7547 12.2466 16.4733 12.4531 16.2666L17.8975 10.8223C18.1042 10.6158 18.3846 10.5001 18.6768 10.5L18.7861 10.5049ZM17.7803 13.0605L19.1914 14.4717L20.0879 13.5742L18.6768 12.1641L17.7803 13.0605Z" fill="black"/>
</svg>
