<svg width="24" height="24" viewBox="0 0 24 24" fill="none" xmlns="http://www.w3.org/2000/svg">
<path fill-rule="evenodd" clip-rule="evenodd" d="M14.5028 3.42254L19.2278 8.14754C19.2904 8.21027 19.3401 8.28473 19.374 8.36667C19.4079 8.44862 19.4253 8.53643 19.4252 8.6251V9.69579C18.9659 9.70887 18.5253 9.87433 18.1722 10.1637L18.1468 10.1842L18.1234 10.2047L18.0717 10.2526L18.0453 10.276L13.7093 14.6119C13.3718 14.9502 13.1617 15.3951 13.1146 15.8698L13.1107 15.903L13.1097 15.9371L13.1058 16.0074L13.1049 16.0406V17.6364C13.1051 18.1839 13.3228 18.7102 13.7103 19.0983C14.0996 19.4876 14.6267 19.7041 15.1722 19.7047H16.7689L16.8011 19.7028L16.8724 19.6998L16.9066 19.6979L16.9418 19.694C17.4144 19.6466 17.859 19.4379 18.1976 19.1002L19.4252 17.8721V19.4251C19.4252 19.7831 19.283 20.1265 19.0298 20.3797C18.7766 20.6329 18.4332 20.7751 18.0752 20.7751H8.80938L11.4274 18.1571C11.8069 17.7774 12.02 17.2623 12.0201 16.7255C12.0201 16.2553 11.8566 15.8017 11.5612 15.4413L11.4274 15.2928L11.278 15.1581C10.9691 14.9052 10.5922 14.7493 10.1949 14.7098L9.99475 14.7001C9.5249 14.7001 9.07189 14.863 8.71155 15.1581L8.56213 15.2928L6.61487 17.2391C6.29499 16.9543 5.89513 16.7765 5.47034 16.7343L5.27014 16.7245C5.03086 16.7245 4.79584 16.7669 4.5752 16.8475V4.5751C4.5752 4.21706 4.71743 3.87368 4.9706 3.6205C5.22378 3.36733 5.56715 3.2251 5.9252 3.2251H14.0252C14.1139 3.22503 14.2017 3.24243 14.2836 3.27631C14.3656 3.31018 14.44 3.35987 14.5028 3.42254ZM6.63525 20.7751C6.71868 20.7732 6.80138 20.7554 6.87854 20.7235C6.96022 20.6897 7.03471 20.6405 7.09729 20.578L10.4723 17.203C10.5989 17.0764 10.6704 16.9044 10.6705 16.7255C10.6705 16.5464 10.5988 16.3746 10.4723 16.2479C10.3456 16.1213 10.1739 16.0497 9.99475 16.0497C9.81563 16.0497 9.64387 16.1213 9.51721 16.2479L6.61975 19.1454L5.74768 18.2723C5.62112 18.1458 5.44912 18.0752 5.27014 18.0751C5.09116 18.0751 4.91923 18.1459 4.7926 18.2723C4.66599 18.399 4.59441 18.5708 4.59436 18.7499C4.59436 18.929 4.66595 19.1008 4.7926 19.2274L6.14221 20.578C6.20479 20.6405 6.27928 20.6897 6.36096 20.7235C6.43812 20.7554 6.5208 20.7732 6.60422 20.7751L6.61975 20.7753L6.63525 20.7751ZM14.0252 4.9126V8.6251H17.7377L14.0252 4.9126Z" fill="black"/>
<path fill-rule="evenodd" clip-rule="evenodd" d="M21.7209 13.9987C21.8997 13.8197 22.0002 13.5768 22.0002 13.3239C22.0001 13.0711 21.8997 12.8279 21.7209 12.649L20.1584 11.0885C20.0019 10.9321 19.7967 10.8357 19.5784 10.8141L19.4846 10.8092C19.4647 10.8092 19.4449 10.8098 19.4252 10.8111C19.1938 10.8255 18.9737 10.9239 18.8088 11.0885L14.4993 15.3981C14.3207 15.5769 14.2202 15.8202 14.22 16.0729V17.6354C14.22 17.8884 14.3204 18.1312 14.4993 18.3102C14.6782 18.4891 14.921 18.5894 15.1741 18.5895H16.7366C16.9894 18.5893 17.2325 18.4888 17.4114 18.3102L21.7209 13.9987ZM19.4836 12.3229L18.8333 12.9733L19.8342 13.9742L20.4856 13.3239L19.4836 12.3229ZM19.1252 14.6852L16.5725 17.2399H15.5696V16.2369L18.1233 13.6832L19.1252 14.6852Z" fill="black"/>
</svg>
