<svg viewBox="0 0 24 24" fill="none" xmlns="http://www.w3.org/2000/svg" width="24" height="24">
<path fill-rule="evenodd" clip-rule="evenodd" d="M15.003 1.707L20.673 7.377C20.748 7.452 20.808 7.542 20.849 7.64 20.889 7.738 20.91 7.844 20.91 7.95V9.235C20.359 9.251 19.83 9.449 19.407 9.796L19.376 9.821 19.348 9.846 19.286 9.903 19.254 9.931 14.051 15.134C13.646 15.54 13.394 16.074 13.338 16.644L13.333 16.684 13.332 16.725 13.327 16.809 13.326 16.849V18.764C13.326 19.421 13.587 20.052 14.052 20.518 14.52 20.985 15.152 21.245 15.807 21.246H17.723L17.761 21.243 17.847 21.24 17.888 21.237 17.93 21.233C18.497 21.176 19.031 20.925 19.437 20.52L20.91 19.047V20.91C20.91 21.34 20.74 21.752 20.436 22.056 20.132 22.359 19.72 22.53 19.29 22.53H8.171L11.313 19.389C11.768 18.933 12.024 18.315 12.024 17.671 12.024 17.106 11.828 16.562 11.473 16.13L11.313 15.951 11.134 15.79C10.763 15.486 10.311 15.299 9.834 15.252L9.594 15.24C9.03 15.24 8.486 15.436 8.054 15.79L7.875 15.951 5.538 18.287C5.154 17.945 4.674 17.732 4.164 17.681L3.924 17.669C3.637 17.669 3.355 17.72 3.09 17.817V3.09C3.09 2.66 3.261 2.248 3.565 1.945 3.869 1.641 4.281 1.47 4.71 1.47H14.43C14.537 1.47 14.642 1.491 14.74 1.532 14.839 1.572 14.928 1.632 15.003 1.707ZM5.562 22.53C5.662 22.528 5.762 22.506 5.854 22.468 5.952 22.428 6.042 22.369 6.117 22.294L10.167 18.244C10.319 18.092 10.404 17.885 10.405 17.671 10.405 17.456 10.319 17.25 10.167 17.097 10.015 16.946 9.809 16.86 9.594 16.86 9.379 16.86 9.173 16.946 9.021 17.097L5.544 20.574 4.497 19.527C4.345 19.375 4.139 19.29 3.924 19.29 3.709 19.29 3.503 19.375 3.351 19.527 3.199 19.679 3.113 19.885 3.113 20.1 3.113 20.315 3.199 20.521 3.351 20.673L4.971 22.294C5.046 22.369 5.135 22.428 5.233 22.468 5.326 22.506 5.425 22.528 5.525 22.53L5.544 22.53 5.562 22.53ZM14.43 3.495V7.95H18.885L14.43 3.495Z" fill="black"/>
<path fill-rule="evenodd" clip-rule="evenodd" d="M23.665 14.398C23.88 14.184 24 13.892 24 13.589 24 13.285 23.88 12.993 23.665 12.779L21.79 10.906C21.602 10.719 21.356 10.603 21.094 10.577L20.982 10.571C20.958 10.571 20.934 10.572 20.91 10.573 20.633 10.591 20.368 10.709 20.171 10.906L14.999 16.078C14.785 16.292 14.664 16.584 14.664 16.887V18.762C14.664 19.066 14.784 19.357 14.999 19.572 15.214 19.787 15.505 19.907 15.809 19.907H17.684C17.987 19.907 18.279 19.787 18.494 19.572L23.665 14.398ZM20.98 12.387L20.2 13.168 21.401 14.369 22.183 13.589 20.98 12.387ZM20.55 15.222L17.487 18.288H16.284V17.084L19.348 14.02 20.55 15.222Z" fill="black"/>
</svg>