<svg width="24" height="24" viewBox="0 0 24 24" fill="none" xmlns="http://www.w3.org/2000/svg">
<path d="M20.0296 17.0275L17.0296 20.0274C16.9248 20.1324 16.7911 20.204 16.6455 20.2329C16.4999 20.2619 16.3491 20.2471 16.2119 20.1903C16.0748 20.1335 15.9576 20.0372 15.8752 19.9138C15.7928 19.7903 15.7489 19.6452 15.749 19.4968V17.2468H4.49912C4.30021 17.2468 4.10944 17.1678 3.96879 17.0272C3.82814 16.8865 3.74913 16.6957 3.74913 16.4968C3.74913 16.2979 3.82814 16.1072 3.96879 15.9665C4.10944 15.8259 4.30021 15.7468 4.49912 15.7468H15.749V13.4969C15.7489 13.3484 15.7928 13.2033 15.8752 13.0799C15.9576 12.9564 16.0748 12.8602 16.2119 12.8034C16.3491 12.7466 16.4999 12.7317 16.6455 12.7607C16.7911 12.7897 16.9248 12.8612 17.0296 12.9662L20.0296 15.9662C20.0994 16.0359 20.1547 16.1186 20.1924 16.2096C20.2302 16.3007 20.2496 16.3983 20.2496 16.4968C20.2496 16.5954 20.2302 16.693 20.1924 16.784C20.1547 16.8751 20.0994 16.9578 20.0296 17.0275ZM6.96848 11.0275C7.07337 11.1325 7.20706 11.204 7.35262 11.233C7.49818 11.262 7.64907 11.2472 7.78619 11.1903C7.9233 11.1335 8.04048 11.0373 8.12288 10.9139C8.20528 10.7904 8.24921 10.6453 8.24909 10.4969V8.24689H19.499C19.6979 8.24689 19.8887 8.16788 20.0293 8.02723C20.17 7.88657 20.249 7.69581 20.249 7.4969C20.249 7.29799 20.17 7.10723 20.0293 6.96657C19.8887 6.82592 19.6979 6.74691 19.499 6.74691H8.24909V4.49692C8.24921 4.3485 8.20528 4.20338 8.12288 4.07994C8.04048 3.95649 7.9233 3.86028 7.78619 3.80346C7.64907 3.74665 7.49818 3.73179 7.35262 3.76078C7.20706 3.78977 7.07337 3.86129 6.96848 3.9663L3.9685 6.96628C3.89877 7.03593 3.84345 7.11865 3.80571 7.2097C3.76796 7.30074 3.74854 7.39834 3.74854 7.4969C3.74854 7.59546 3.76796 7.69305 3.80571 7.7841C3.84345 7.87515 3.89877 7.95787 3.9685 8.02752L6.96848 11.0275Z" fill="black"/>
</svg>
