<svg width="24" height="24" viewBox="0 0 24 24" fill="none" xmlns="http://www.w3.org/2000/svg">
<path d="M19.4996 3.00293H4.49974C4.10192 3.00293 3.72039 3.16096 3.43909 3.44227C3.15779 3.72357 2.99976 4.1051 2.99976 4.50292V19.5028C2.99976 19.9006 3.15779 20.2822 3.43909 20.5635C3.72039 20.8448 4.10192 21.0028 4.49974 21.0028H19.4996C19.8975 21.0028 20.279 20.8448 20.5603 20.5635C20.8416 20.2822 20.9996 19.9006 20.9996 19.5028V4.50292C20.9996 4.1051 20.8416 3.72357 20.5603 3.44227C20.279 3.16096 19.8975 3.00293 19.4996 3.00293ZM19.4996 19.5028H11.9997V12.0029H4.49974V4.50292H11.9997V12.0029H19.4996V19.5028Z" fill="black"/>
</svg>
