<svg xmlns="http://www.w3.org/2000/svg" width="24" height="24" fill="currentColor" viewBox="0 0 24 24"><path d="M20.91 3.9H16.86v-0.81a2.43 2.43 0 0 0-2.43-2.43h-4.86A2.43 2.43 0 0 0 7.14 3.09v0.81H3.09a0.81 0.81 0 0 0 0 1.62h0.81v14.58A1.62 1.62 0 0 0 5.52 21.72h12.96a1.62 1.62 0 0 0 1.62-1.62V5.52h0.81a0.81 0.81 0 0 0 0-1.62M10.38 16.05a0.81 0.81 0 0 1-1.62 0v-6.48a0.81 0.81 0 0 1 1.62 0z m4.86 0a0.81 0.81 0 0 1-1.62 0v-6.48a0.81 0.81 0 0 1 1.62 0z m0-12.15H8.76v-0.81a0.81 0.81 0 0 1 0.81-0.81h4.86a0.81 0.81 0 0 1 0.81 0.81z"/></svg>