<svg width="24" height="24" viewBox="0 0 24 24" fill="none" xmlns="http://www.w3.org/2000/svg">
<path d="M19.4989 2.99634H4.49901C4.10119 2.99634 3.71966 3.15437 3.43836 3.43567C3.15706 3.71698 2.99902 4.0985 2.99902 4.49633V19.4962C2.99902 19.894 3.15706 20.2756 3.43836 20.5569C3.71966 20.8382 4.10119 20.9962 4.49901 20.9962H19.4989C19.8967 20.9962 20.2782 20.8382 20.5595 20.5569C20.8409 20.2756 20.9989 19.894 20.9989 19.4962V4.49633C20.9989 4.0985 20.8409 3.71698 20.5595 3.43567C20.2782 3.15437 19.8967 2.99634 19.4989 2.99634ZM8.46836 9.21566L11.4683 6.21569C11.538 6.14596 11.6207 6.09064 11.7118 6.05289C11.8028 6.01515 11.9004 5.99572 11.999 5.99572C12.0975 5.99572 12.1951 6.01515 12.2862 6.05289C12.3772 6.09064 12.4599 6.14596 12.5296 6.21569L15.5296 9.21566C15.5992 9.28535 15.6545 9.36807 15.6922 9.45912C15.7299 9.55016 15.7493 9.64774 15.7493 9.74629C15.7493 9.84483 15.7299 9.94241 15.6922 10.0335C15.6545 10.1245 15.5992 10.2072 15.5296 10.2769C15.4599 10.3466 15.3771 10.4019 15.2861 10.4396C15.1951 10.4773 15.0975 10.4967 14.9989 10.4967C14.9004 10.4967 14.8028 10.4773 14.7118 10.4396C14.6207 10.4019 14.538 10.3466 14.4683 10.2769L12.7489 8.55661V14.2463C12.7489 14.4452 12.6699 14.6359 12.5293 14.7766C12.3886 14.9172 12.1979 14.9962 11.999 14.9962C11.8 14.9962 11.6093 14.9172 11.4686 14.7766C11.328 14.6359 11.249 14.4452 11.249 14.2463V8.55661L9.5296 10.2769C9.38887 10.4176 9.198 10.4967 8.99898 10.4967C8.79996 10.4967 8.60909 10.4176 8.46836 10.2769C8.32763 10.1362 8.24857 9.94531 8.24857 9.74629C8.24857 9.54727 8.32763 9.35639 8.46836 9.21566ZM19.4989 19.4962H4.49901V15.7462H7.18868L8.99898 17.5565C9.13776 17.6964 9.30297 17.8073 9.48499 17.8828C9.66702 17.9583 9.86223 17.9969 10.0593 17.9962H13.9386C14.1357 17.9969 14.3309 17.9583 14.5129 17.8828C14.6949 17.8073 14.8601 17.6964 14.9989 17.5565L16.8092 15.7462H19.4989V19.4962Z" fill="black"/>
</svg>
