<svg xmlns="http://www.w3.org/2000/svg" fill="currentColor" viewBox="0 0 24 24" width="24" height="24"><path d="M20.1 2.28H3.9A1.62 1.62 0 0 0 2.28 3.9v16.2a1.62 1.62 0 0 0 1.62 1.62h16.2a1.62 1.62 0 0 0 1.62-1.62V3.9a1.62 1.62 0 0 0-1.62-1.62M8.186 8.996l3.24-3.24a0.81 0.81 0 0 1 1.146 0l3.24 3.24a0.81 0.81 0 0 1-1.146 1.146l-1.856-1.857v6.145a0.81 0.81 0 0 1-1.62 0V8.285l-1.856 1.857a0.81 0.81 0 0 1-1.146-1.146z m11.914 11.104H3.9v-4.05h2.905L8.76 18.005a1.608 1.608 0 0 0 1.145 0.475h4.189a1.608 1.608 0 0 0 1.145-0.475l1.955-1.955h2.905z"/></svg>