<svg width="24" height="24" viewBox="0 0 24 24" fill="none" xmlns="http://www.w3.org/2000/svg">
<path d="M14.9999 12.7499V11.9999H8.24997V17.9999C8.24997 18.1988 8.32899 18.3895 8.46964 18.5302C8.61029 18.6709 8.80105 18.7499 8.99997 18.7499H14.9999V17.9999C14.9999 17.6021 15.158 17.2205 15.4393 16.9392C15.7206 16.6579 16.1021 16.4999 16.4999 16.4999H19.4999C19.8977 16.4999 20.2792 16.6579 20.5605 16.9392C20.8418 17.2205 20.9999 17.6021 20.9999 17.9999V20.9999C20.9999 21.3977 20.8418 21.7792 20.5605 22.0605C20.2792 22.3418 19.8977 22.4998 19.4999 22.4998H16.4999C16.1021 22.4998 15.7206 22.3418 15.4393 22.0605C15.158 21.7792 14.9999 21.3977 14.9999 20.9999V20.2499H8.99997C8.40323 20.2499 7.83094 20.0128 7.40899 19.5909C6.98703 19.1689 6.74998 18.5966 6.74998 17.9999V7.49995H5.99999C5.60217 7.49995 5.22064 7.34192 4.93934 7.06062C4.65803 6.77931 4.5 6.39779 4.5 5.99997V2.99999C4.5 2.60217 4.65803 2.22064 4.93934 1.93934C5.22064 1.65803 5.60217 1.5 5.99999 1.5H8.99997C9.39779 1.5 9.77931 1.65803 10.0606 1.93934C10.3419 2.22064 10.5 2.60217 10.5 2.99999V5.99997C10.5 6.39779 10.3419 6.77931 10.0606 7.06062C9.77931 7.34192 9.39779 7.49995 8.99997 7.49995H8.24997V10.4999H14.9999V9.74994C14.9999 9.35212 15.158 8.97059 15.4393 8.68929C15.7206 8.40798 16.1021 8.24995 16.4999 8.24995H19.4999C19.8977 8.24995 20.2792 8.40798 20.5605 8.68929C20.8418 8.97059 20.9999 9.35212 20.9999 9.74994V12.7499C20.9999 13.1477 20.8418 13.5293 20.5605 13.8106C20.2792 14.0919 19.8977 14.2499 19.4999 14.2499H16.4999C16.1021 14.2499 15.7206 14.0919 15.4393 13.8106C15.158 13.5293 14.9999 13.1477 14.9999 12.7499Z" fill="black"/>
</svg>
