<svg xmlns="http://www.w3.org/2000/svg" width="24" height="24" fill="currentColor" viewBox="0 0 24 24"><path d="M24.902 10.886l-1.417-3.543a1.608 1.608 0 0 0-1.503-1.013H18.48V5.52a0.81 0.81 0 0 0-0.81-0.81H2.28a1.62 1.62 0 0 0-1.62 1.62v11.34a1.62 1.62 0 0 0 1.62 1.62h1.721a3.24 3.24 0 0 0 6.277 0h5.063a3.24 3.24 0 0 0 6.277 0h1.721a1.62 1.62 0 0 0 1.62-1.62v-6.48a0.84 0.84 0 0 0-0.058-0.304zM7.14 20.1A1.62 1.62 0 1 1 8.76 18.48a1.62 1.62 0 0 1-1.62 1.62M2.28 12.81v-6.48h14.58v6.48z m16.2 7.29a1.62 1.62 0 1 1 1.62-1.62 1.62 1.62 0 0 1-1.62 1.62m0-9.72V7.95h3.502l0.972 2.43z"/></svg>