<?xml version="1.0" encoding="utf-8"?>
<svg xmlns="http://www.w3.org/2000/svg" width="512" height="512" viewBox="0 0 512 512">
  <path fill="black" d="m479.16 254.31-28.95-57.89a7.985 7.985 0 0 0-7.15-4.42H360c-4.42 0-8 3.58-8 8v120h-32V136c0-4.42-3.58-8-8-8H40c-4.42 0-8 3.58-8 8v208c0 4.42 3.58 8 8 8h10.73c6.59 18.64 24.37 32 45.27 32 20.9 0 38.68-13.36 45.27-32h37.46c6.59 18.64 24.37 32 45.27 32 20.9 0 38.68-13.36 45.27-32h101.46c6.59 18.64 24.37 32 45.27 32 20.9 0 38.68-13.36 45.27-32H472c4.42 0 8-3.58 8-8v-86.11c0-1.24-.29-2.47-.84-3.58ZM80 336c0-8.82 7.18-16 16-16s16 7.18 16 16-7.18 16-16 16-16-7.18-16-16Zm144 16c-8.82 0-16-7.18-16-16s7.18-16 16-16 16 7.18 16 16-7.18 16-16 16Zm192 0c-8.82 0-16-7.18-16-16s7.18-16 16-16 16 7.18 16 16-7.18 16-16 16Zm-32-96v-32h48l16 32h-64Z"/>
  <path fill="black" d="M382 352h2v-.25c-.64.16-1.31.25-2 .25Z"/>
</svg>
