<svg width="24" height="24" viewBox="0 0 24 24" fill="none" xmlns="http://www.w3.org/2000/svg">
<g clip-path="url(#clip0_2021_25877)">
<path d="M23.9454 10.9648L22.6329 7.68358C22.5215 7.40581 22.3292 7.16792 22.081 7.00075C21.8328 6.83359 21.54 6.74486 21.2407 6.74608H17.9989V5.99609C17.9989 5.79718 17.9199 5.60641 17.7792 5.46576C17.6386 5.32511 17.4478 5.24609 17.2489 5.24609H2.99901C2.60119 5.24609 2.21966 5.40413 1.93836 5.68543C1.65706 5.96673 1.49902 6.34826 1.49902 6.74608V17.246C1.49902 17.6438 1.65706 18.0254 1.93836 18.3067C2.21966 18.588 2.60119 18.746 2.99901 18.746H4.59275C4.75797 19.3913 5.13327 19.9633 5.65947 20.3717C6.18568 20.7802 6.83286 21.0019 7.49898 21.0019C8.1651 21.0019 8.81228 20.7802 9.33848 20.3717C9.86468 19.9633 10.24 19.3913 10.4052 18.746H15.0927C15.2579 19.3913 15.6332 19.9633 16.1594 20.3717C16.6856 20.7802 17.3328 21.0019 17.9989 21.0019C18.665 21.0019 19.3122 20.7802 19.8384 20.3717C20.3646 19.9633 20.7399 19.3913 20.9051 18.746H22.4989C22.8967 18.746 23.2782 18.588 23.5595 18.3067C23.8408 18.0254 23.9989 17.6438 23.9989 17.246V11.246C23.999 11.1498 23.9808 11.0543 23.9454 10.9648ZM7.49898 19.496C7.20231 19.496 6.9123 19.408 6.66563 19.2432C6.41896 19.0784 6.2267 18.8441 6.11317 18.57C5.99964 18.2959 5.96993 17.9943 6.02781 17.7034C6.08569 17.4124 6.22855 17.1451 6.43833 16.9353C6.6481 16.7256 6.91538 16.5827 7.20634 16.5248C7.49731 16.467 7.79891 16.4967 8.073 16.6102C8.34709 16.7237 8.58135 16.916 8.74617 17.1626C8.91099 17.4093 8.99897 17.6993 8.99897 17.996C8.99897 18.3938 8.84093 18.7753 8.55963 19.0566C8.27833 19.338 7.8968 19.496 7.49898 19.496ZM2.99901 12.746V6.74608H16.4989V12.746H2.99901ZM17.9989 19.496C17.7022 19.496 17.4122 19.408 17.1655 19.2432C16.9189 19.0784 16.7266 18.8441 16.6131 18.57C16.4996 18.2959 16.4699 17.9943 16.5277 17.7034C16.5856 17.4124 16.7285 17.1451 16.9382 16.9353C17.148 16.7256 17.4153 16.5827 17.7063 16.5248C17.9972 16.467 18.2988 16.4967 18.5729 16.6102C18.847 16.7237 19.0813 16.916 19.2461 17.1626C19.4109 17.4093 19.4989 17.6993 19.4989 17.996C19.4989 18.3938 19.3409 18.7753 19.0595 19.0566C18.7782 19.338 18.3967 19.496 17.9989 19.496ZM17.9989 10.4961V8.24607H21.2407L22.1407 10.4961H17.9989Z" fill="black"/>
</g>
<defs>
<clipPath id="clip0_2021_25877">
<rect width="23.9998" height="23.9998" fill="white"/>
</clipPath>
</defs>
</svg>
