<svg width="24" height="24" viewBox="0 0 24 24" fill="none" xmlns="http://www.w3.org/2000/svg">
<path d="M19.4989 2.99634H4.49901C4.10119 2.99634 3.71966 3.15437 3.43836 3.43567C3.15706 3.71698 2.99902 4.0985 2.99902 4.49633V19.4962C2.99902 19.894 3.15706 20.2756 3.43836 20.5569C3.71966 20.8382 4.10119 20.9962 4.49901 20.9962H19.4989C19.8967 20.9962 20.2782 20.8382 20.5595 20.5569C20.8409 20.2756 20.9989 19.894 20.9989 19.4962V4.49633C20.9989 4.0985 20.8409 3.71698 20.5595 3.43567C20.2782 3.15437 19.8967 2.99634 19.4989 2.99634ZM7.49899 6.74631C7.49899 6.5474 7.57801 6.35663 7.71866 6.21598C7.85931 6.07533 8.05007 5.99632 8.24898 5.99632C8.44789 5.99632 8.63866 6.07533 8.77931 6.21598C8.91996 6.35663 8.99898 6.5474 8.99898 6.74631V11.2463C8.99898 12.0419 9.31505 12.805 9.87765 13.3676C10.4403 13.9302 11.2033 14.2463 11.999 14.2463C12.7946 14.2463 13.5577 13.9302 14.1203 13.3676C14.6829 12.805 14.9989 12.0419 14.9989 11.2463V6.74631C14.9989 6.5474 15.0779 6.35663 15.2186 6.21598C15.3593 6.07533 15.55 5.99632 15.7489 5.99632C15.9478 5.99632 16.1386 6.07533 16.2793 6.21598C16.4199 6.35663 16.4989 6.5474 16.4989 6.74631V11.2463C16.4989 12.4397 16.0248 13.5843 15.1809 14.4282C14.337 15.2721 13.1924 15.7462 11.999 15.7462C10.8055 15.7462 9.66091 15.2721 8.817 14.4282C7.97309 13.5843 7.49899 12.4397 7.49899 11.2463V6.74631ZM16.4989 18.7462H7.49899C7.30008 18.7462 7.10931 18.6672 6.96866 18.5266C6.82801 18.3859 6.74899 18.1951 6.74899 17.9962C6.74899 17.7973 6.82801 17.6065 6.96866 17.4659C7.10931 17.3252 7.30008 17.2462 7.49899 17.2462H16.4989C16.6978 17.2462 16.8886 17.3252 17.0292 17.4659C17.1699 17.6065 17.2489 17.7973 17.2489 17.9962C17.2489 18.1951 17.1699 18.3859 17.0292 18.5266C16.8886 18.6672 16.6978 18.7462 16.4989 18.7462Z" fill="black"/>
</svg>
