<svg width="24" height="24" viewBox="0 0 24 24" fill="none" xmlns="http://www.w3.org/2000/svg">
<path d="M21.7501 13.5001C21.7484 15.0909 21.1157 16.616 19.9908 17.7408C18.866 18.8657 17.3409 19.4984 15.7501 19.5001H7.5001C7.30119 19.5001 7.11042 19.4211 6.96977 19.2804C6.82912 19.1398 6.7501 18.949 6.7501 18.7501C6.7501 18.5512 6.82912 18.3604 6.96977 18.2198C7.11042 18.0791 7.30119 18.0001 7.5001 18.0001H15.7501C16.9436 18.0001 18.0882 17.526 18.9321 16.6821C19.776 15.8382 20.2501 14.6936 20.2501 13.5001C20.2501 12.3066 19.776 11.162 18.9321 10.3181C18.0882 9.47421 16.9436 9.0001 15.7501 9.0001H8.2501V12.7501C8.25022 12.8985 8.2063 13.0436 8.12389 13.1671C8.04149 13.2905 7.92431 13.3868 7.78719 13.4436C7.65008 13.5004 7.49919 13.5152 7.35362 13.4862C7.20806 13.4573 7.07437 13.3857 6.96948 13.2807L2.46948 8.78073C2.39974 8.71107 2.34442 8.62836 2.30668 8.53731C2.26894 8.44626 2.24951 8.34866 2.24951 8.2501C2.24951 8.15154 2.26894 8.05395 2.30668 7.9629C2.34442 7.87185 2.39974 7.78913 2.46948 7.71948L6.96948 3.21948C7.07437 3.11447 7.20806 3.04294 7.35362 3.01396C7.49919 2.98497 7.65008 2.99982 7.78719 3.05664C7.92431 3.11345 8.04149 3.20967 8.12389 3.33312C8.2063 3.45656 8.25022 3.60168 8.2501 3.7501V7.5001H15.7501C17.3409 7.50184 18.866 8.13454 19.9908 9.25938C21.1157 10.3842 21.7484 11.9093 21.7501 13.5001Z" fill="black"/>
</svg>
