<svg xmlns="http://www.w3.org/2000/svg" width="24" height="24" fill="currentColor" viewBox="0 0 24 24"><path d="M20.1 2.28H3.9A1.62 1.62 0 0 0 2.28 3.9v16.2a1.62 1.62 0 0 0 1.62 1.62h16.2a1.62 1.62 0 0 0 1.62-1.62V3.9a1.62 1.62 0 0 0-1.62-1.62m-5.67 2.43h3.24a1.62 1.62 0 0 1 1.62 1.62v3.24a0.81 0.81 0 0 1-1.62 0v-3.24h-3.24a0.81 0.81 0 0 1 0-1.62m-4.86 14.58h-3.24a1.62 1.62 0 0 1-1.62-1.62v-3.24a0.81 0.81 0 0 1 1.62 0v3.24h3.24a0.81 0.81 0 0 1 0 1.62m10.294 0.574a0.81 0.81 0 0 1-1.146 0l-0.573-0.574h-3.715a0.81 0.81 0 0 1 0-1.62h2.095L6.33 7.475v2.095a0.81 0.81 0 0 1-1.62 0V5.855l-0.574-0.573a0.81 0.81 0 0 1 1.146-1.146l0.81 0.81 13.77 13.77a0.81 0.81 0 0 1 0 1.146z"/></svg>