<svg width="24" height="24" viewBox="0 0 24 24" fill="none" xmlns="http://www.w3.org/2000/svg">
<path d="M19.4989 3.00366H4.49901C4.10119 3.00366 3.71966 3.1617 3.43836 3.443C3.15706 3.7243 2.99902 4.10583 2.99902 4.50365V19.5035C2.99902 19.9014 3.15706 20.2829 3.43836 20.5642C3.71966 20.8455 4.10119 21.0035 4.49901 21.0035H19.4989C19.8967 21.0035 20.2782 20.8455 20.5595 20.5642C20.8409 20.2829 20.9989 19.9014 20.9989 19.5035V4.50365C20.9989 4.10583 20.8409 3.7243 20.5595 3.443C20.2782 3.1617 19.8967 3.00366 19.4989 3.00366ZM8.99898 6.00364C8.99898 5.80473 9.07799 5.61396 9.21865 5.47331C9.3593 5.33266 9.55006 5.25364 9.74897 5.25364C9.94788 5.25364 10.1386 5.33266 10.2793 5.47331C10.4199 5.61396 10.499 5.80473 10.499 6.00364V7.50363C10.499 7.70254 10.4199 7.8933 10.2793 8.03395C10.1386 8.1746 9.94788 8.25362 9.74897 8.25362C9.55006 8.25362 9.3593 8.1746 9.21865 8.03395C9.07799 7.8933 8.99898 7.70254 8.99898 7.50363V6.00364ZM5.999 9.00362H7.49899C7.6979 9.00362 7.88866 9.08263 8.02931 9.22328C8.16997 9.36394 8.24898 9.5547 8.24898 9.75361C8.24898 9.95252 8.16997 10.1433 8.02931 10.2839C7.88866 10.4246 7.6979 10.5036 7.49899 10.5036H5.999C5.80009 10.5036 5.60933 10.4246 5.46867 10.2839C5.32802 10.1433 5.24901 9.95252 5.24901 9.75361C5.24901 9.5547 5.32802 9.36394 5.46867 9.22328C5.60933 9.08263 5.80009 9.00362 5.999 9.00362ZM12.0065 17.0342L11.3305 17.7101C11 18.042 10.6072 18.3055 10.1747 18.4855C9.74216 18.6654 9.2784 18.7583 8.80995 18.7588C8.3415 18.7592 7.87755 18.6673 7.44466 18.4883C7.01178 18.3092 6.61846 18.0466 6.28721 17.7153C5.95597 17.3841 5.6933 16.9908 5.51426 16.5579C5.33521 16.125 5.2433 15.661 5.24379 15.1926C5.24427 14.7241 5.33715 14.2604 5.51709 13.8279C5.69703 13.3954 5.9605 13.0026 6.29244 12.672L6.96837 11.9961C7.10897 11.8554 7.29972 11.7763 7.49866 11.7762C7.69759 11.7761 7.88841 11.855 8.02914 11.9956C8.16987 12.1362 8.24898 12.327 8.24907 12.5259C8.24916 12.7248 8.17022 12.9157 8.02961 13.0564L7.35274 13.7323C6.96586 14.1192 6.74851 14.6439 6.74851 15.1911C6.74851 15.7382 6.96586 16.2629 7.35274 16.6498C7.73962 17.0367 8.26435 17.254 8.81148 17.254C9.35861 17.254 9.88334 17.0367 10.2702 16.6498L10.9461 15.9729C11.0158 15.9033 11.0985 15.8481 11.1896 15.8104C11.2806 15.7728 11.3781 15.7534 11.4766 15.7535C11.5751 15.7535 11.6727 15.773 11.7637 15.8107C11.8546 15.8484 11.9373 15.9037 12.0069 15.9734C12.0765 16.0431 12.1318 16.1258 12.1694 16.2168C12.2071 16.3078 12.2264 16.4054 12.2264 16.5039C12.2263 16.6024 12.2069 16.6999 12.1692 16.7909C12.1314 16.8819 12.0761 16.9646 12.0065 17.0342ZM14.9989 18.0035C14.9989 18.2025 14.9199 18.3932 14.7793 18.5339C14.6386 18.6745 14.4478 18.7535 14.2489 18.7535C14.05 18.7535 13.8593 18.6745 13.7186 18.5339C13.578 18.3932 13.4989 18.2025 13.4989 18.0035V16.5036C13.4989 16.3046 13.578 16.1139 13.7186 15.9732C13.8593 15.8326 14.05 15.7536 14.2489 15.7536C14.4478 15.7536 14.6386 15.8326 14.7793 15.9732C14.9199 16.1139 14.9989 16.3046 14.9989 16.5036V18.0035ZM17.9989 15.0036H16.4989C16.3 15.0036 16.1092 14.9246 15.9686 14.7839C15.8279 14.6433 15.7489 14.4525 15.7489 14.2536C15.7489 14.0547 15.8279 13.8639 15.9686 13.7232C16.1092 13.5826 16.3 13.5036 16.4989 13.5036H17.9989C18.1978 13.5036 18.3886 13.5826 18.5292 13.7232C18.6699 13.8639 18.7489 14.0547 18.7489 14.2536C18.7489 14.4525 18.6699 14.6433 18.5292 14.7839C18.3886 14.9246 18.1978 15.0036 17.9989 15.0036ZM17.7055 11.3352L17.0295 12.0111C16.8889 12.1518 16.6982 12.2309 16.4993 12.231C16.3003 12.2311 16.1095 12.1522 15.9688 12.0116C15.828 11.871 15.7489 11.6802 15.7488 11.4813C15.7488 11.2823 15.8277 11.0915 15.9683 10.9508L16.6452 10.2749C17.0321 9.88797 17.2494 9.36325 17.2494 8.81612C17.2494 8.26898 17.0321 7.74426 16.6452 7.35738C16.2583 6.9705 15.7336 6.75315 15.1864 6.75315C14.6393 6.75315 14.1146 6.9705 13.7277 7.35738L13.0518 8.03425C12.911 8.17485 12.7202 8.2538 12.5213 8.25371C12.3223 8.25362 12.1316 8.17451 11.991 8.03378C11.8504 7.89305 11.7714 7.70223 11.7715 7.5033C11.7716 7.30436 11.8507 7.11361 11.9915 6.97301L12.6674 6.29707C12.9979 5.96514 13.3907 5.70167 13.8232 5.52172C14.2558 5.34178 14.7195 5.24891 15.188 5.24843C15.6564 5.24794 16.1204 5.33985 16.5532 5.5189C16.9861 5.69794 17.3795 5.9606 17.7107 6.29185C18.0419 6.62309 18.3046 7.01642 18.4837 7.4493C18.6627 7.88219 18.7546 8.34614 18.7541 8.81459C18.7536 9.28304 18.6608 9.7468 18.4808 10.1793C18.3009 10.6118 18.0374 11.0046 17.7055 11.3352Z" fill="black"/>
</svg>
