<svg width="24" height="24" viewBox="0 0 24 24" fill="none" xmlns="http://www.w3.org/2000/svg">
<path d="M19.5 3H4.5C4.10218 3 3.72064 3.15804 3.43934 3.43934C3.15804 3.72064 3 4.10218 3 4.5V19.5C3 19.8978 3.15804 20.2794 3.43934 20.5607C3.72064 20.842 4.10218 21 4.5 21H19.5C19.8978 21 20.2794 20.842 20.5607 20.5607C20.842 20.2794 21 19.8978 21 19.5V4.5C21 4.10218 20.842 3.72064 20.5607 3.43934C20.2794 3.15804 19.8978 3 19.5 3ZM13.5525 16.2806L11.5416 18.2916C10.7646 19.0483 9.72084 19.4686 8.63625 19.4615C7.55167 19.4544 6.51353 19.0203 5.7466 18.2534C4.97967 17.4865 4.54565 16.4483 4.5385 15.3637C4.53136 14.2792 4.95167 13.2354 5.70844 12.4584L7.71937 10.4466C7.789 10.3769 7.87166 10.3216 7.96265 10.2839C8.05364 10.2461 8.15117 10.2267 8.24967 10.2266C8.34817 10.2266 8.44572 10.2459 8.53674 10.2836C8.62776 10.3213 8.71047 10.3765 8.78016 10.4461C8.84984 10.5157 8.90513 10.5984 8.94286 10.6894C8.9806 10.7804 9.00004 10.8779 9.00009 10.9764C9.00013 11.0749 8.98077 11.1724 8.94312 11.2635C8.90546 11.3545 8.85025 11.4372 8.78063 11.5069L6.76875 13.5187C6.27644 14.0111 5.99987 14.6788 5.99987 15.375C5.99987 16.0712 6.27644 16.7389 6.76875 17.2313C7.26106 17.7236 7.92877 18.0001 8.625 18.0001C9.32123 18.0001 9.98894 17.7236 10.4813 17.2313L12.4922 15.2194C12.6329 15.0788 12.8237 14.9998 13.0227 14.9999C13.2216 15 13.4124 15.0791 13.553 15.2198C13.6936 15.3606 13.7725 15.5514 13.7724 15.7503C13.7723 15.9493 13.6932 16.14 13.5525 16.2806ZM18.2916 11.5416L16.2806 13.5525C16.14 13.6932 15.9493 13.7723 15.7503 13.7724C15.5514 13.7725 15.3606 13.6936 15.2198 13.553C15.0791 13.4124 15 13.2216 14.9999 13.0227C14.9998 12.8237 15.0788 12.6329 15.2194 12.4922L17.2313 10.4813C17.7236 9.98894 18.0001 9.32123 18.0001 8.625C18.0001 7.92877 17.7236 7.26106 17.2313 6.76875C16.7389 6.27644 16.0712 5.99987 15.375 5.99987C14.6788 5.99987 14.0111 6.27644 13.5187 6.76875L11.5069 8.78063C11.3661 8.92123 11.1753 9.00017 10.9764 9.00009C10.7775 9 10.5867 8.92089 10.4461 8.78016C10.3055 8.63943 10.2265 8.4486 10.2266 8.24967C10.2267 8.05073 10.3058 7.85998 10.4466 7.71937L12.4584 5.70844C13.2354 4.95167 14.2792 4.53136 15.3637 4.5385C16.4483 4.54565 17.4865 4.97967 18.2534 5.7466C19.0203 6.51353 19.4544 7.55167 19.4615 8.63625C19.4686 9.72084 19.0483 10.7646 18.2916 11.5416Z" fill="black"/>
</svg>
