<svg xmlns="http://www.w3.org/2000/svg" width="24" height="24" fill="currentColor" viewBox="0 0 24 24"><path d="M20.1 2.28H3.9A1.62 1.62 0 0 0 2.28 3.9v16.2a1.62 1.62 0 0 0 1.62 1.62h16.2a1.62 1.62 0 0 0 1.62-1.62V3.9a1.62 1.62 0 0 0-1.62-1.62M8.76 5.52a0.81 0.81 0 0 1 1.62 0v1.62a0.81 0.81 0 0 1-1.62 0zM5.52 8.76h1.62a0.81 0.81 0 0 1 0 1.62H5.52a0.81 0.81 0 0 1 0-1.62m6.488 8.674l-0.729 0.729a3.847 3.847 0 1 1-5.441-5.441l0.73-0.729a0.81 0.81 0 1 1 1.146 1.145l-0.731 0.729a2.228 2.228 0 0 0 3.151 3.151l0.73-0.73a0.81 0.81 0 1 1 1.144 1.146m3.232 1.046a0.81 0.81 0 0 1-1.62 0v-1.62a0.81 0.81 0 0 1 1.62 0z m3.24-3.24h-1.62a0.81 0.81 0 0 1 0-1.62h1.62a0.81 0.81 0 0 1 0 1.62m-0.317-3.962l-0.729 0.729a0.81 0.81 0 1 1-1.146-1.145l0.73-0.729a2.228 2.228 0 0 0-3.151-3.151l-0.729 0.73a0.81 0.81 0 1 1-1.145-1.146l0.729-0.729a3.847 3.847 0 1 1 5.441 5.441"/></svg>