<svg viewBox="0 0 24 24" fill="none" xmlns="http://www.w3.org/2000/svg" width="24" height="24">
<path fill-rule="evenodd" clip-rule="evenodd" d="M1.2 2.1C1.2 1.603 1.603 1.2 2.1 1.2H21.9C22.397 1.2 22.8 1.603 22.8 2.1V21.9C22.8 22.397 22.397 22.8 21.9 22.8H2.1C1.603 22.8 1.2 22.397 1.2 21.9V2.1ZM15.315 8.811C15.326 9.259 15.697 9.613 16.144 9.602L17.486 9.571C18.122 9.582 18.729 9.843 19.175 10.297 19.622 10.752 19.872 11.363 19.873 12 19.873 12.637 19.623 13.25 19.177 13.704 18.732 14.156 18.127 14.417 17.494 14.43L16.144 14.398C15.697 14.387 15.326 14.742 15.315 15.189 15.305 15.636 15.659 16.007 16.106 16.017L17.481 16.05H17.514C18.575 16.031 19.588 15.597 20.332 14.839 21.076 14.082 21.493 13.062 21.493 12 21.493 10.938 21.076 9.918 20.332 9.161 19.588 8.404 18.575 7.969 17.514 7.95 17.503 7.95 17.492 7.95 17.481 7.95L16.106 7.983C15.659 7.993 15.305 8.364 15.315 8.811ZM13.261 16.927C12.945 17.243 12.945 17.755 13.261 18.072L14.636 19.446C14.952 19.762 15.464 19.762 15.78 19.446 16.097 19.13 16.097 18.618 15.78 18.301L14.406 16.927C14.09 16.61 13.577 16.61 13.261 16.927ZM13.261 5.929C12.945 6.245 12.945 6.757 13.261 7.073 13.577 7.39 14.09 7.39 14.406 7.073L15.78 5.699C16.096 5.382 16.097 4.87 15.78 4.554 15.464 4.238 14.952 4.238 14.636 4.554L13.261 5.929ZM8.221 18.301C7.905 18.618 7.904 19.13 8.221 19.446 8.537 19.762 9.049 19.762 9.366 19.446L10.74 18.072C11.056 17.755 11.056 17.243 10.74 16.927 10.424 16.61 9.912 16.61 9.595 16.927L8.221 18.301ZM8.221 4.554C7.905 4.87 7.905 5.382 8.221 5.699L9.595 7.073C9.912 7.39 10.424 7.39 10.74 7.073 11.056 6.757 11.057 6.245 10.74 5.929L9.366 4.554C9.049 4.238 8.537 4.238 8.221 4.554ZM2.508 12C2.508 13.062 2.925 14.082 3.669 14.839 4.413 15.597 5.426 16.032 6.488 16.05H6.52L7.895 16.017C8.342 16.007 8.696 15.636 8.686 15.189 8.675 14.742 8.305 14.387 7.857 14.398L6.507 14.43C5.874 14.417 5.269 14.156 4.825 13.704 4.378 13.249 4.129 12.637 4.129 12 4.129 11.363 4.379 10.752 4.826 10.297 5.272 9.843 5.88 9.583 6.517 9.572L7.857 9.602C8.305 9.613 8.676 9.259 8.686 8.811 8.696 8.364 8.342 7.993 7.895 7.983L6.52 7.95C6.51 7.95 6.498 7.95 6.488 7.95 5.426 7.969 4.413 8.403 3.669 9.161 2.925 9.918 2.508 10.938 2.508 12Z" fill="black"/>
</svg>