<svg width="24" height="24" viewBox="0 0 24 24" fill="none" xmlns="http://www.w3.org/2000/svg">
<path d="M19.4989 7.50337H8.99898V5.25338C8.99898 4.45774 9.31505 3.69468 9.87765 3.13208C10.4403 2.56947 11.2033 2.25341 11.999 2.25341C13.4399 2.25341 14.7364 3.28465 15.0139 4.65245C15.0551 4.84573 15.1709 5.01494 15.3362 5.1233C15.5015 5.23166 15.7028 5.27041 15.8965 5.23113C16.0902 5.19185 16.2605 5.07771 16.3705 4.91353C16.4805 4.74935 16.5213 4.54839 16.4839 4.35433C16.0602 2.26747 14.1739 0.753418 11.999 0.753418C10.8059 0.754659 9.66201 1.22916 8.81837 2.0728C7.97473 2.91644 7.50023 4.0603 7.49899 5.25338V7.50337H4.49901C4.10119 7.50337 3.71966 7.6614 3.43836 7.9427C3.15706 8.22401 2.99902 8.60553 2.99902 9.00336V19.5033C2.99902 19.9011 3.15706 20.2826 3.43836 20.5639C3.71966 20.8452 4.10119 21.0033 4.49901 21.0033H19.4989C19.8967 21.0033 20.2782 20.8452 20.5595 20.5639C20.8409 20.2826 20.9989 19.9011 20.9989 19.5033V9.00336C20.9989 8.60553 20.8409 8.22401 20.5595 7.9427C20.2782 7.6614 19.8967 7.50337 19.4989 7.50337ZM11.999 15.3783C11.7765 15.3783 11.5589 15.3123 11.3739 15.1887C11.1889 15.0651 11.0447 14.8894 10.9596 14.6838C10.8745 14.4783 10.8522 14.2521 10.8956 14.0338C10.939 13.8156 11.0461 13.6152 11.2035 13.4578C11.3608 13.3005 11.5613 13.1933 11.7795 13.1499C11.9977 13.1065 12.2239 13.1288 12.4295 13.214C12.635 13.2991 12.8107 13.4433 12.9344 13.6283C13.058 13.8133 13.1239 14.0308 13.1239 14.2533C13.1239 14.5517 13.0054 14.8378 12.7944 15.0488C12.5835 15.2598 12.2973 15.3783 11.999 15.3783Z" fill="black"/>
</svg>
