<svg xmlns="http://www.w3.org/2000/svg" width="24" height="24" fill="currentColor" viewBox="0 0 24 24"><path d="M22.867 9.57l-4.821 4.837a0.408 0.408 0 0 1-0.587-0.014l-7.485-8.239a0.408 0.408 0 0 1 0.014-0.558l4.442-4.462a1.62 1.62 0 0 1 2.291 0l6.145 6.144a1.62 1.62 0 0 1 0.001 2.291zM4.5 2.545a0.81 0.81 0 0 0-1.216 0.022 0.828 0.828 0 0 0 0.038 1.088L5.856 6.446c-0.917 0.197-1.936 0.63-2.969 1.467a1.62 1.62 0 0 0-0.131 2.407l4.889 4.89-4.298 4.296a0.828 0.828 0 0 0-0.061 1.123 0.81 0.81 0 0 0 1.185 0.043l4.317-4.318 4.888 4.888a1.62 1.62 0 0 0 1.146 0.477h0.114a1.608 1.608 0 0 0 1.179-0.641 9 9 0 0 0 1.178-2.045l2.205 2.425a0.81 0.81 0 1 0 1.198-1.089z"/></svg>