<svg width="24" height="24" viewBox="0 0 24 24" fill="none" xmlns="http://www.w3.org/2000/svg">
<path d="M22.061 9.75341L17.5967 14.2328C17.5608 14.2686 17.518 14.2969 17.4708 14.3157C17.4237 14.3346 17.3732 14.3437 17.3225 14.3425C17.2717 14.3412 17.2218 14.3297 17.1756 14.3086C17.1294 14.2875 17.088 14.2572 17.0539 14.2196L10.1239 6.59125C10.0594 6.52 10.0246 6.42667 10.0269 6.33053C10.0291 6.2344 10.0683 6.14281 10.1361 6.07469L14.2489 1.9441C14.3882 1.80477 14.5536 1.69425 14.7356 1.61885C14.9176 1.54345 15.1127 1.50464 15.3097 1.50464C15.5067 1.50464 15.7018 1.54345 15.8838 1.61885C16.0658 1.69425 16.2312 1.80477 16.3705 1.9441L22.0601 7.6328C22.3413 7.91395 22.4994 8.29526 22.4996 8.69291C22.4997 9.09056 22.342 9.47201 22.061 9.75341ZM5.05398 3.24909C4.98222 3.1705 4.89454 3.10808 4.79679 3.06599C4.69904 3.0239 4.59345 3.00309 4.48704 3.00495C4.38063 3.00681 4.27583 3.0313 4.17962 3.07679C4.0834 3.12228 3.99797 3.18772 3.92899 3.26877C3.81198 3.41257 3.75102 3.59389 3.75739 3.77918C3.76377 3.96446 3.83705 4.14116 3.96368 4.27658L6.31022 6.86125C5.46085 7.04312 4.51774 7.44437 3.56149 8.21874C3.39736 8.35072 3.26286 8.51578 3.16675 8.70318C3.07064 8.89059 3.01508 9.09613 3.00367 9.30643C2.99226 9.51674 3.02527 9.72709 3.10054 9.92379C3.17581 10.1205 3.29167 10.2991 3.44056 10.4481L7.96771 14.9762L3.98805 18.954C3.84938 19.0883 3.76653 19.27 3.7561 19.4628C3.74567 19.6556 3.80843 19.8452 3.9318 19.9936C3.99918 20.0717 4.08191 20.135 4.17485 20.1796C4.26778 20.2242 4.36891 20.2492 4.47192 20.253C4.57494 20.2567 4.67763 20.2392 4.77358 20.2016C4.86954 20.1639 4.95669 20.1068 5.02961 20.034L9.02614 16.0346L13.5533 20.5618C13.6925 20.7015 13.8578 20.8125 14.0399 20.8882C14.222 20.964 14.4173 21.0031 14.6145 21.0033C14.6502 21.0033 14.6848 21.0033 14.7205 21.0033C14.9343 20.9885 15.1424 20.9278 15.3307 20.8254C15.519 20.723 15.6831 20.5813 15.8117 20.4099C16.2573 19.8295 16.6242 19.1927 16.903 18.5162L18.9439 20.7615C19.0097 20.8357 19.0897 20.8961 19.1791 20.9392C19.2685 20.9824 19.3655 21.0073 19.4646 21.0126C19.5637 21.018 19.6629 21.0036 19.7564 20.9703C19.8499 20.937 19.9359 20.8855 20.0093 20.8188C20.0828 20.752 20.1422 20.6714 20.1843 20.5815C20.2263 20.4916 20.2501 20.3942 20.2543 20.295C20.2584 20.1959 20.2428 20.0969 20.2084 20.0038C20.174 19.9107 20.1215 19.8254 20.0539 19.7527L5.05398 3.24909Z" fill="black"/>
</svg>
