<svg width="24" height="24" viewBox="0 0 24 24" fill="none" xmlns="http://www.w3.org/2000/svg">
<path d="M8.40777 11.3284L5.8823 8.5504L5.7638 8.66643C3.21038 11.2257 3.07009 15.3284 5.42981 17.9838L5.66614 18.2367C6.29118 18.8714 7.03558 19.3765 7.85657 19.7221C8.67759 20.0677 9.55954 20.247 10.4503 20.2504C11.341 20.2537 12.2235 20.0809 13.047 19.7416C13.75 19.452 14.3984 19.0457 14.9648 18.5412L12.4429 15.767C11.9065 16.2303 11.217 16.4953 10.505 16.5024C9.71947 16.5101 8.96185 16.21 8.39564 15.6655C7.17046 14.4842 7.2168 12.5193 8.38978 11.3461L8.39856 11.3373L8.40777 11.3284Z" fill="black"/>
<path d="M18.7803 15.7637L21.5335 12.975C21.6728 12.8341 21.7507 12.6438 21.7502 12.4457C21.7496 12.2476 21.6707 12.0577 21.5307 11.9175L18.8438 9.23065C18.7737 9.16058 18.6904 9.1051 18.5987 9.06742C18.507 9.02974 18.4088 9.01061 18.3096 9.01113C18.2105 9.01166 18.1125 9.03182 18.0212 9.07047C17.9299 9.10911 17.8472 9.16547 17.7778 9.23627L15.0483 12.0357M9.36296 11.448L8.92034 11.8762C8.02878 12.7677 8.00722 14.249 8.91566 15.1246C9.34033 15.533 9.90826 15.7586 10.4974 15.7528C11.0866 15.747 11.65 15.5104 12.0666 15.0937L12.3711 14.7813M11.9403 8.95459L14.7619 6.2249C14.8333 6.15561 14.8901 6.07282 14.9292 5.98135C14.9682 5.88988 14.9887 5.79155 14.9894 5.69209C14.9901 5.59263 14.971 5.49403 14.9332 5.40202C14.8955 5.31001 14.8398 5.22643 14.7694 5.15615L12.0825 2.46927C11.9427 2.32953 11.7534 2.25064 11.5557 2.24976C11.358 2.24889 11.168 2.32609 11.0269 2.46459L8.22127 5.21069M5.92022 7.46305L5.23875 8.13006C2.31469 11.0541 2.22937 15.8176 5.13187 18.7632C5.82638 19.4684 6.6536 20.0291 7.56585 20.4131C8.47809 20.7971 9.45731 20.9967 10.4471 21.0004C11.4368 21.0042 12.4175 20.812 13.3327 20.4349C14.2478 20.0579 15.0792 19.5034 15.7791 18.8035L15.9799 18.6001M11.9466 8.94677L8.21626 5.21646M18.7716 15.7715L15.0413 12.0412M3.35002 4.6499L18.35 21.1499M8.40777 11.3284L5.8823 8.5504L5.7638 8.66643C3.21038 11.2257 3.07009 15.3284 5.42981 17.9838L5.66614 18.2367C6.29118 18.8714 7.03558 19.3765 7.85657 19.7221C8.67759 20.0677 9.55954 20.247 10.4503 20.2504C11.341 20.2537 12.2235 20.0809 13.047 19.7416C13.75 19.452 14.3984 19.0457 14.9648 18.5412L12.4429 15.767C11.9065 16.2303 11.217 16.4953 10.505 16.5024C9.71947 16.5101 8.96185 16.21 8.39564 15.6655C7.17046 14.4842 7.2168 12.5193 8.38978 11.3461L8.39856 11.3373L8.40777 11.3284Z" stroke="black" stroke-width="1.5" stroke-linecap="round" stroke-linejoin="round"/>
</svg>
