<svg viewBox="0 0 24 24" fill="none" xmlns="http://www.w3.org/2000/svg" width="24" height="24">
<path fill-rule="evenodd" clip-rule="evenodd" d="M24.095 11.655L21.368 8.661C21.078 8.343 20.675 8.153 20.246 8.133 19.816 8.113 19.397 8.265 19.079 8.554L14.689 12.553 19.593 17.947 23.988 13.943C24.306 13.654 24.496 13.25 24.516 12.821 24.536 12.392 24.384 11.972 24.095 11.655ZM7.606 4.761L12.51 10.155 16.897 6.159C17.215 5.869 17.405 5.466 17.425 5.036 17.445 4.607 17.293 4.188 17.004 3.87L14.277 0.876C13.987 0.558 13.584 0.369 13.155 0.349 12.725 0.329 12.306 0.48 11.988 0.769L7.606 4.761ZM22.897 12.746L19.903 15.473 17.176 12.479 20.17 9.751 22.897 12.746ZM15.806 4.961L12.812 7.688 10.085 4.694 13.079 1.967 15.806 4.961Z" fill="black"/>
<path fill-rule="evenodd" clip-rule="evenodd" d="M4.048 3.255C4.034 3.24 4.021 3.224 4.009 3.208L3.752 2.926C3.451 2.596 2.939 2.572 2.608 2.873 2.278 3.174 2.254 3.685 2.555 4.016L5.216 6.943C3.58 8.52 2.607 10.665 2.501 12.941 2.391 15.302 3.223 17.609 4.814 19.356L4.86 19.406C8.086 22.895 13.545 23.183 17.195 20.121L18.755 21.836C19.055 22.167 19.567 22.192 19.898 21.891 20.215 21.603 20.251 21.12 19.988 20.789L19.952 20.746 4.048 3.255ZM9.783 13.281C9.799 12.94 9.922 12.615 10.131 12.351L12.282 14.716C12 14.899 11.666 14.99 11.326 14.974 10.897 14.954 10.493 14.765 10.204 14.447 9.914 14.13 9.763 13.71 9.783 13.281Z" fill="black"/>
</svg>