<svg width="24" height="24" viewBox="0 0 24 24" fill="none" xmlns="http://www.w3.org/2000/svg">
<path d="M21.7489 12.0029C21.7489 10.0745 21.1771 8.18946 20.1057 6.58609C19.0344 4.98272 17.5117 3.73305 15.7301 2.9951C13.9485 2.25715 11.9881 2.06407 10.0968 2.44028C8.20554 2.81648 6.46827 3.74507 5.10471 5.10862C3.74116 6.47217 2.81257 8.20944 2.43637 10.1007C2.06017 11.992 2.25325 13.9524 2.9912 15.734C3.72915 17.5156 4.97882 19.0383 6.58218 20.1096C8.18555 21.181 10.0706 21.7528 11.999 21.7528C14.584 21.7501 17.0623 20.722 18.8902 18.8941C20.7181 17.0662 21.7461 14.5879 21.7489 12.0029ZM15.5296 11.7835C15.4599 11.8532 15.3772 11.9085 15.2861 11.9463C15.1951 11.984 15.0975 12.0034 14.9989 12.0034C14.9004 12.0034 14.8028 11.984 14.7117 11.9463C14.6207 11.9085 14.538 11.8532 14.4683 11.7835L12.7489 10.0632V15.7528C12.7489 15.9517 12.6699 16.1425 12.5293 16.2832C12.3886 16.4238 12.1979 16.5028 11.999 16.5028C11.8 16.5028 11.6093 16.4238 11.4686 16.2832C11.328 16.1425 11.249 15.9517 11.249 15.7528V10.0632L9.5296 11.7835C9.38887 11.9242 9.198 12.0033 8.99898 12.0033C8.79995 12.0033 8.60908 11.9242 8.46835 11.7835C8.32763 11.6428 8.24857 11.4519 8.24857 11.2529C8.24857 11.0538 8.32763 10.863 8.46835 10.7222L11.4683 7.72227C11.538 7.65253 11.6207 7.59722 11.7118 7.55947C11.8028 7.52173 11.9004 7.5023 11.999 7.5023C12.0975 7.5023 12.1951 7.52173 12.2862 7.55947C12.3772 7.59722 12.4599 7.65253 12.5296 7.72227L15.5296 10.7222C15.5993 10.7919 15.6546 10.8746 15.6923 10.9657C15.7301 11.0567 15.7495 11.1543 15.7495 11.2529C15.7495 11.3514 15.7301 11.449 15.6923 11.5401C15.6546 11.6311 15.5993 11.7138 15.5296 11.7835Z" fill="black"/>
</svg>
