<svg viewBox="0 0 24 24" fill="none" xmlns="http://www.w3.org/2000/svg" width="24" height="24">
<path d="M12 2.28C13.951 2.28 15.765 2.857 17.287 3.846 17.091 3.994 16.963 4.228 16.963 4.493V5.449C16.245 4.923 15.442 4.516 14.585 4.246 13.1 3.778 11.512 3.744 10.008 4.148 7.933 4.705 6.164 6.062 5.089 7.922 4.015 9.782 3.725 11.993 4.281 14.068 4.837 16.143 6.194 17.913 8.054 18.987 9.798 19.994 11.851 20.312 13.811 19.89L14.201 19.797C15.705 19.395 17.063 18.571 18.116 17.423 19.169 16.276 19.872 14.851 20.142 13.317 20.22 12.877 19.926 12.456 19.486 12.378 19.046 12.301 18.626 12.596 18.548 13.036 18.331 14.266 17.767 15.409 16.923 16.329 16.184 17.134 15.257 17.74 14.229 18.095L13.781 18.231C12.121 18.675 10.352 18.443 8.864 17.584 7.376 16.725 6.29 15.309 5.845 13.65 5.401 11.99 5.634 10.22 6.493 8.732 7.299 7.337 8.592 6.296 10.118 5.804L10.427 5.713C11.633 5.389 12.908 5.415 14.099 5.79 14.637 5.96 15.147 6.2 15.62 6.498H15.007C14.56 6.498 14.196 6.862 14.196 7.309 14.196 7.756 14.56 8.119 15.007 8.119L17.773 8.118C18.22 8.117 18.583 7.756 18.584 7.309V4.85C20.511 6.627 21.72 9.172 21.72 12 21.72 17.368 17.368 21.72 12 21.72 6.632 21.72 2.28 17.368 2.28 12 2.28 6.632 6.632 2.28 12 2.28ZM11.835 7.99C11.802 7.991 11.771 7.994 11.739 7.999 11.725 8.001 11.712 8.001 11.699 8.004L11.668 8.011C11.637 8.019 11.607 8.03 11.577 8.041 11.565 8.046 11.553 8.047 11.542 8.052 11.498 8.071 11.456 8.094 11.415 8.121L11.289 8.224 8.858 10.655C8.542 10.971 8.542 11.483 8.858 11.8 9.175 12.116 9.688 12.116 10.004 11.8L11.052 10.751V14.872C11.052 15.32 11.414 15.682 11.862 15.682 12.309 15.682 12.672 15.32 12.672 14.872V10.753L13.718 11.8C14.034 12.116 14.548 12.116 14.864 11.8 15.18 11.483 15.18 10.971 14.864 10.655L12.435 8.224C12.398 8.187 12.357 8.155 12.315 8.127 12.306 8.121 12.296 8.116 12.287 8.111 12.256 8.091 12.224 8.074 12.191 8.059 12.17 8.05 12.148 8.043 12.127 8.036 12.1 8.026 12.074 8.017 12.047 8.011 12.028 8.007 12.009 8.003 11.989 8 11.957 7.995 11.925 7.991 11.892 7.99 11.882 7.989 11.872 7.988 11.862 7.988 11.853 7.988 11.844 7.99 11.835 7.99Z" fill="black"/>
</svg>