<svg xmlns="http://www.w3.org/2000/svg" fill="currentColor" viewBox="0 0 24 24" width="24" height="24"><path d="M6.566 6.904a0.81 0.81 0 0 1 0-1.146l4.86-4.86a0.81 0.81 0 0 1 1.146 0l4.86 4.86a0.81 0.81 0 0 1-1.146 1.146l-3.476-3.478v8.575a0.81 0.81 0 0 1-1.62 0V3.426L7.714 6.904a0.81 0.81 0 0 1-1.146 0z m16.774 5.906v6.48a1.62 1.62 0 0 1-1.62 1.62H2.28a1.62 1.62 0 0 1-1.62-1.62v-6.48a1.62 1.62 0 0 1 1.62-1.62h6.884a0.408 0.408 0 0 1 0.406 0.406v0.35c0 1.362 1.114 2.51 2.477 2.485a2.43 2.43 0 0 0 2.383-2.43v-0.405a0.408 0.408 0 0 1 0.406-0.406h6.885a1.62 1.62 0 0 1 1.62 1.62z m-4.05 3.24a1.216 1.216 0 1 0-1.214 1.214 1.216 1.216 0 0 0 1.214-1.214"/></svg>