<svg xmlns="http://www.w3.org/2000/svg" fill="currentColor" viewBox="0 0 24 24" width="24" height="24"><path d="M5.532 14.005a0.408 0.408 0 0 1-0.406 0.425H0.659a0.81 0.81 0 0 1-0.79-0.625 0.84 0.84 0 0 1 0.165-0.702 6.84 6.84 0 0 1 2.751-2.166 4.05 4.05 0 1 1 6.73-3.625 0.396 0.396 0 0 1-0.231 0.423 6.492 6.492 0 0 0-3.765 5.884c0 0.13 0 0.257 0.012 0.385z m18.427-0.902a6.84 6.84 0 0 0-2.745-2.165 4.05 4.05 0 1 0-6.73-3.625 0.396 0.396 0 0 0 0.23 0.423A6.492 6.492 0 0 1 18.48 13.62c0 0.13 0 0.257-0.012 0.385a0.408 0.408 0 0 0 0.404 0.425h4.468a0.81 0.81 0 0 0 0.79-0.625 0.84 0.84 0 0 0-0.166-0.703z m-9.011 4.371a4.86 4.86 0 1 0-5.91 0 7.32 7.32 0 0 0-3.41 3.03 0.81 0.81 0 0 0 0.702 1.215h11.34a0.81 0.81 0 0 0 0.702-1.215 7.32 7.32 0 0 0-3.416-3.03z"/></svg>