<?xml version="1.0" encoding="utf-8"?>
<svg xmlns="http://www.w3.org/2000/svg" width="512" height="512" viewBox="0 0 512 512">
<path d="M356.57 185.14C356.57 162.43 375 144 397.71 144C420.42 144 438.85 162.43 438.85 185.14C438.85 207.85 420.42 226.28 397.71 226.28C375 226.28 356.57 207.85 356.57 185.14ZM397.71 240C382.81 240 368.82 243.97 356.76 250.91C371.18 259.35 384.45 269.62 396.42 281.59C412.37 297.53 425.29 315.8 434.91 336H466.28C473.87 336 480 329.87 480 322.29C480 276.86 443.14 240 397.71 240ZM114.29 226.29C137 226.29 155.43 207.86 155.43 185.15C155.43 162.44 137 144.01 114.29 144.01C91.58 144.01 73.15 162.44 73.15 185.15C73.15 207.86 91.58 226.29 114.29 226.29ZM156.21 251.48C143.93 244.19 129.59 240 114.29 240C68.86 240 32 276.86 32 322.29C32 329.87 38.13 336 45.72 336H79.03C88.65 315.8 101.57 297.53 117.52 281.59C129.22 269.89 142.17 259.81 156.21 251.48ZM256.05 64C210.62 64 173.76 100.86 173.76 146.29C173.76 183.75 198.83 215.38 233.1 225.32C240.38 227.44 248.08 228.57 256.05 228.57C264.02 228.57 271.72 227.44 279 225.32C313.27 215.38 338.34 183.75 338.34 146.29C338.34 100.86 301.48 64 256.05 64ZM397.24 336C381.24 309.35 357.91 287.6 330.04 273.54C307.79 262.32 282.66 256 256.05 256C229.44 256 203.24 262.59 180.65 274.26C153.41 288.34 130.59 309.8 114.86 336C100.02 360.72 91.48 389.65 91.48 420.57C91.48 435.74 103.74 448 118.91 448H393.19C408.36 448 420.62 435.74 420.62 420.57C420.62 389.65 412.08 360.72 397.24 336Z" fill="black"/>
</svg>
