<svg width="24" height="24" viewBox="0 0 24 24" fill="none" xmlns="http://www.w3.org/2000/svg">
<g clip-path="url(#clip0_2104_2442)">
<path d="M15.4179 18.343C15.4917 18.4561 15.5336 18.5871 15.5391 18.7221C15.5446 18.8571 15.5135 18.9911 15.4492 19.1099C15.3848 19.2286 15.2896 19.3279 15.1735 19.397C15.0575 19.4661 14.9249 19.5026 14.7898 19.5027H0.958033C0.822936 19.5026 0.690352 19.4661 0.574289 19.397C0.458225 19.3279 0.362992 19.2286 0.298651 19.1099C0.23431 18.9911 0.20325 18.8571 0.208752 18.7221C0.214255 18.5871 0.256116 18.4561 0.329912 18.343C1.38563 16.718 2.93848 15.4778 4.75675 14.8077C3.75157 14.1385 2.98843 13.1636 2.58017 12.0271C2.17192 10.8907 2.14023 9.65301 2.48979 8.49715C2.83936 7.34129 3.55161 6.3286 4.52123 5.60885C5.49085 4.8891 6.66635 4.50049 7.87392 4.50049C9.08148 4.50049 10.257 4.8891 11.2266 5.60885C12.1962 6.3286 12.9085 7.34129 13.258 8.49715C13.6076 9.65301 13.5759 10.8907 13.1677 12.0271C12.7594 13.1636 11.9963 14.1385 10.9911 14.8077C12.8094 15.4778 14.3622 16.718 15.4179 18.343ZM23.6594 18.3289C22.6034 16.7107 21.054 15.476 19.241 14.8077C20.4277 14.0083 21.2651 12.7868 21.5829 11.3918C21.9007 9.99675 21.6749 8.53304 20.9516 7.29859C20.2282 6.06414 19.0616 5.15174 17.6892 4.74711C16.3169 4.34248 14.8419 4.47603 13.5645 5.12058C13.5157 5.1458 13.473 5.18145 13.4394 5.225C13.4059 5.26856 13.3823 5.31896 13.3704 5.37263C13.3585 5.4263 13.3586 5.48192 13.3706 5.53557C13.3826 5.58922 13.4062 5.63958 13.4398 5.68307C14.3897 6.86789 14.9351 8.32572 14.9964 9.84302C15.0576 11.3603 14.6314 12.8574 13.7801 14.1149C13.7251 14.1971 13.7048 14.2977 13.7236 14.3948C13.7423 14.4918 13.7987 14.5776 13.8804 14.6333C14.9903 15.4079 15.9405 16.3893 16.6789 17.5236C16.9766 17.9797 17.0983 18.5285 17.021 19.0677C17.0123 19.1213 17.0154 19.1762 17.03 19.2285C17.0446 19.2808 17.0704 19.3294 17.1057 19.3707C17.1409 19.4121 17.1847 19.4453 17.234 19.4681C17.2833 19.4909 17.337 19.5027 17.3913 19.5027H23.0444C23.2096 19.5027 23.3701 19.4482 23.5012 19.3477C23.6322 19.2472 23.7264 19.1062 23.7691 18.9467C23.7952 18.8418 23.7989 18.7326 23.78 18.6261C23.7611 18.5197 23.72 18.4184 23.6594 18.3289Z" fill="black"/>
</g>
<defs>
<clipPath id="clip0_2104_2442">
<rect width="23.9998" height="23.9998" fill="white"/>
</clipPath>
</defs>
</svg>
