<svg width="24" height="24" viewBox="0 0 24 24" fill="none" xmlns="http://www.w3.org/2000/svg">
<path d="M21.5989 20.5505C21.6827 20.6619 21.7338 20.7945 21.7465 20.9333C21.7591 21.0722 21.7328 21.2119 21.6705 21.3366C21.6082 21.4613 21.5123 21.5662 21.3937 21.6395C21.275 21.7128 21.1383 21.7515 20.9989 21.7514H2.99902C2.85974 21.7514 2.7232 21.7126 2.60472 21.6394C2.48624 21.5662 2.39049 21.4614 2.3282 21.3368C2.26591 21.2122 2.23955 21.0728 2.25205 20.934C2.26456 20.7953 2.31545 20.6628 2.39902 20.5514C3.06313 19.661 3.94872 18.96 4.96775 18.518C4.40917 18.0082 4.01779 17.3414 3.84496 16.6052C3.67214 15.8689 3.72596 15.0976 3.99935 14.3925C4.27275 13.6874 4.75294 13.0815 5.37691 12.6542C6.00087 12.2269 6.73945 11.9982 7.4957 11.9982C8.25195 11.9982 8.99053 12.2269 9.6145 12.6542C10.2385 13.0815 10.7187 13.6874 10.9921 14.3925C11.2654 15.0976 11.3193 15.8689 11.1464 16.6052C10.9736 17.3414 10.5822 18.0082 10.0237 18.518C10.7589 18.8358 11.427 19.2904 11.9924 19.8577C12.5578 19.2904 13.2259 18.8358 13.9611 18.518C13.4025 18.0082 13.0112 17.3414 12.8383 16.6052C12.6655 15.8689 12.7193 15.0976 12.9927 14.3925C13.2661 13.6874 13.7463 13.0815 14.3703 12.6542C14.9942 12.2269 15.7328 11.9982 16.4891 11.9982C17.2453 11.9982 17.9839 12.2269 18.6079 12.6542C19.2318 13.0815 19.712 13.6874 19.9854 14.3925C20.2588 15.0976 20.3126 15.8689 20.1398 16.6052C19.967 17.3414 19.5756 18.0082 19.017 18.518C20.0408 18.9577 20.9311 19.6585 21.5989 20.5505ZM2.54902 11.8515C2.62781 11.9106 2.71747 11.9536 2.81288 11.978C2.90829 12.0024 3.00758 12.0079 3.10508 11.9939C3.20258 11.98 3.29639 11.947 3.38114 11.8968C3.46588 11.8466 3.53992 11.7803 3.59901 11.7015C4.0531 11.096 4.64192 10.6046 5.31883 10.2661C5.99575 9.92769 6.74217 9.75149 7.49898 9.75149C8.2558 9.75149 9.00222 9.92769 9.67913 10.2661C10.356 10.6046 10.9449 11.096 11.399 11.7015C11.4688 11.7946 11.5594 11.8702 11.6635 11.9223C11.7677 11.9744 11.8825 12.0015 11.9989 12.0015C12.1154 12.0015 12.2302 11.9744 12.3344 11.9223C12.4385 11.8702 12.5291 11.7946 12.5989 11.7015C13.053 11.096 13.6418 10.6046 14.3188 10.2661C14.9957 9.92769 15.7421 9.75149 16.4989 9.75149C17.2557 9.75149 18.0021 9.92769 18.6791 10.2661C19.356 10.6046 19.9448 11.096 20.3989 11.7015C20.458 11.7803 20.5321 11.8466 20.6169 11.8968C20.7017 11.9469 20.7956 11.9799 20.8931 11.9938C20.9907 12.0077 21.09 12.0022 21.1854 11.9777C21.2809 11.9532 21.3706 11.9102 21.4493 11.851C21.5281 11.7918 21.5945 11.7177 21.6447 11.6329C21.6948 11.5481 21.7278 11.4543 21.7417 11.3567C21.7556 11.2592 21.7501 11.1599 21.7256 11.0644C21.7011 10.969 21.658 10.8793 21.5989 10.8005C20.9347 9.91042 20.0491 9.20969 19.0301 8.76806C19.5887 8.25825 19.9801 7.59147 20.1529 6.85523C20.3258 6.11899 20.2719 5.3477 19.9985 4.6426C19.7252 3.9375 19.245 3.33153 18.621 2.90424C17.997 2.47694 17.2584 2.24829 16.5022 2.24829C15.7459 2.24829 15.0074 2.47694 14.3834 2.90424C13.7594 3.33153 13.2792 3.9375 13.0058 4.6426C12.7325 5.3477 12.6786 6.11899 12.8515 6.85523C13.0243 7.59147 13.4157 8.25825 13.9742 8.76806C13.239 9.08584 12.5709 9.54047 12.0055 10.1077C11.4401 9.54047 10.772 9.08584 10.0368 8.76806C10.5954 8.25825 10.9867 7.59147 11.1596 6.85523C11.3324 6.11899 11.2786 5.3477 11.0052 4.6426C10.7318 3.9375 10.2516 3.33153 9.62762 2.90424C9.00366 2.47694 8.26508 2.24829 7.50883 2.24829C6.75258 2.24829 6.014 2.47694 5.39003 2.90424C4.76607 3.33153 4.28587 3.9375 4.01248 4.6426C3.73908 5.3477 3.68527 6.11899 3.85809 6.85523C4.03091 7.59147 4.4223 8.25825 4.98088 8.76806C3.95706 9.20811 3.06675 9.9093 2.39902 10.8015C2.33993 10.8803 2.29693 10.9699 2.27249 11.0653C2.24804 11.1607 2.24263 11.26 2.25656 11.3575C2.27049 11.455 2.30349 11.5488 2.35367 11.6336C2.40385 11.7183 2.47023 11.7924 2.54902 11.8515Z" fill="black"/>
</svg>
