<svg xmlns="http://www.w3.org/2000/svg" fill="currentColor" viewBox="0 0 24 24" width="24" height="24"><path d="M22.368 21.233a0.81 0.81 0 0 1-0.648 1.297H2.28a0.81 0.81 0 0 1-0.648-1.296 6.84 6.84 0 0 1 2.774-2.196 4.05 4.05 0 1 1 5.46 0 6.84 6.84 0 0 1 2.127 1.447 6.84 6.84 0 0 1 2.126-1.447 4.05 4.05 0 1 1 5.46 0 6.84 6.84 0 0 1 2.789 2.195M1.794 11.838a0.81 0.81 0 0 0 1.134-0.162 5.266 5.266 0 0 1 8.424 0 0.81 0.81 0 0 0 1.296 0 5.266 5.266 0 0 1 8.424 0 0.81 0.81 0 0 0 1.296-0.973 6.84 6.84 0 0 0-2.774-2.195 4.05 4.05 0 1 0-5.46 0 6.84 6.84 0 0 0-2.127 1.447 6.84 6.84 0 0 0-2.126-1.447 4.05 4.05 0 1 0-5.46 0 6.84 6.84 0 0 0-2.789 2.196 0.81 0.81 0 0 0 0.162 1.134"/></svg>