<svg xmlns="http://www.w3.org/2000/svg" width="24" height="24" fill="currentColor" viewBox="0 0 24 24"><path d="M24.764 9.852l-4.61-5.372a1.62 1.62 0 0 0-1.242-0.58H2.281a1.62 1.62 0 0 0-1.62 1.62v11.34a1.62 1.62 0 0 0 1.62 1.62h1.721a3.24 3.24 0 0 0 6.277 0h5.063a3.24 3.24 0 0 0 6.277 0h1.721a1.62 1.62 0 0 0 1.62-1.62v-6.48a0.816 0.816 0 0 0-0.196-0.528M2.28 9.57V5.52h5.67v4.05z m4.86 9.72a1.62 1.62 0 1 1 1.62-1.62 1.62 1.62 0 0 1-1.62 1.62m8.1-9.72H9.57V5.52H15.24z m3.24 9.72a1.62 1.62 0 1 1 1.62-1.62 1.62 1.62 0 0 1-1.62 1.62m-1.62-9.72V5.52h2.051l3.476 4.05z"/></svg>