<?xml version="1.0" encoding="utf-8"?>
<svg xmlns="http://www.w3.org/2000/svg" width="512" height="512" viewBox="0 0 512 512">
<path d="m144.01,336c-8.82,0-16-7.18-16-16s7.18-16,16-16,16,7.18,16,16-7.18,16-16,16Zm240.55-14.6c-.73,8.15-7.6,14.55-15.93,14.55-8.83,0-16-7.17-16-16s6.52-15.33,14.78-15.95c.4-.03.81-.05,1.22-.05s.83.02,1.23.05c.84.07,1.67.2,2.47.39,7.05,1.67,12.3,8.02,12.3,15.56,0,.49-.02.97-.07,1.45Zm-160.56-97.4v-48h5.02c7.36,0,15.27-.65,20.98,4l44,44h-70Zm253.08,47.41c-1.5-3.36-3.33-6.54-5.43-9.51-3.35-4.72-7.4-8.9-12-12.41-3.3-2.51-6.89-4.66-10.71-6.4l-8.09-2.97-107.56-18.12-67.44-70.81c-5.71-4.65-12.85-7.19-20.21-7.19H54c-13.25,0-22,9.75-22,23v145c0,13.25,10.75,24,24,24h42.74c6.59,18.64,24.37,32,45.27,32s38.69-13.36,45.28-32h134.08c6.61,18.62,24.38,31.95,45.26,31.95s38.53-13.25,45.19-31.78l.06-.17h49.82c.56,0,1.12-.03,1.67-.08,8.21-.84,14.63-7.78,14.63-16.22,0,0,.24-41.24-2.92-48.29Z"/>
</svg>
