<svg width="24" height="24" viewBox="0 0 24 24" fill="none" xmlns="http://www.w3.org/2000/svg">
<g clip-path="url(#clip0_2021_25873)">
<path d="M23.8179 10.0135L19.5486 5.03914C19.4078 4.87094 19.2318 4.73566 19.0331 4.64285C18.8343 4.55003 18.6176 4.50194 18.3983 4.50195H2.99901C2.60119 4.50195 2.21966 4.65999 1.93836 4.94129C1.65706 5.22259 1.49902 5.60412 1.49902 6.00194V16.5019C1.49902 16.8997 1.65706 17.2812 1.93836 17.5625C2.21966 17.8438 2.60119 18.0019 2.99901 18.0019H4.59275C4.75797 18.6472 5.13327 19.2191 5.65947 19.6276C6.18568 20.036 6.83286 20.2577 7.49898 20.2577C8.1651 20.2577 8.81228 20.036 9.33848 19.6276C9.86468 19.2191 10.24 18.6472 10.4052 18.0019H15.0927C15.2579 18.6472 15.6332 19.2191 16.1594 19.6276C16.6856 20.036 17.3328 20.2577 17.9989 20.2577C18.665 20.2577 19.3122 20.036 19.8384 19.6276C20.3646 19.2191 20.7399 18.6472 20.9051 18.0019H22.4989C22.8967 18.0019 23.2782 17.8438 23.5595 17.5625C23.8408 17.2812 23.9989 16.8997 23.9989 16.5019V10.5019C23.9988 10.3227 23.9346 10.1494 23.8179 10.0135ZM2.99901 9.75191V6.00194H8.24897V9.75191H2.99901ZM7.49898 18.7518C7.20231 18.7518 6.9123 18.6639 6.66563 18.4991C6.41896 18.3342 6.2267 18.1 6.11317 17.8259C5.99964 17.5518 5.96993 17.2502 6.02781 16.9592C6.08569 16.6683 6.22855 16.401 6.43833 16.1912C6.6481 15.9814 6.91538 15.8386 7.20634 15.7807C7.49731 15.7228 7.79891 15.7525 8.073 15.866C8.34709 15.9796 8.58135 16.1718 8.74617 16.4185C8.91099 16.6652 8.99897 16.9552 8.99897 17.2519C8.99897 17.6497 8.84093 18.0312 8.55963 18.3125C8.27833 18.5938 7.8968 18.7518 7.49898 18.7518ZM14.9989 9.75191H9.74896V6.00194H14.9989V9.75191ZM17.9989 18.7518C17.7022 18.7518 17.4122 18.6639 17.1655 18.4991C16.9189 18.3342 16.7266 18.1 16.6131 17.8259C16.4996 17.5518 16.4699 17.2502 16.5277 16.9592C16.5856 16.6683 16.7285 16.401 16.9382 16.1912C17.148 15.9814 17.4153 15.8386 17.7063 15.7807C17.9972 15.7228 18.2988 15.7525 18.5729 15.866C18.847 15.9796 19.0813 16.1718 19.2461 16.4185C19.4109 16.6652 19.4989 16.9552 19.4989 17.2519C19.4989 17.6497 19.3409 18.0312 19.0595 18.3125C18.7782 18.5938 18.3967 18.7518 17.9989 18.7518ZM16.4989 9.75191V6.00194H18.3983L21.6167 9.75191H16.4989Z" fill="black"/>
</g>
<defs>
<clipPath id="clip0_2021_25873">
<rect width="23.9998" height="23.9998" fill="white"/>
</clipPath>
</defs>
</svg>
