<svg width="24" height="24" viewBox="0 0 24 24" fill="none" xmlns="http://www.w3.org/2000/svg">
<path d="M16.2266 12.5918C16.4462 12.5919 16.6572 12.6796 16.8125 12.835C16.9678 12.9904 17.0556 13.2012 17.0557 13.4209C17.0557 13.6406 16.9678 13.8514 16.8125 14.0068C16.6572 14.1622 16.4462 14.2499 16.2266 14.25H13.8184V12.5918H16.2266Z" fill="black"/>
<path d="M15.7529 9.75C15.9307 9.75014 16.1018 9.82057 16.2275 9.94629C16.3532 10.0721 16.4238 10.2431 16.4238 10.4209C16.4238 10.5987 16.3532 10.7697 16.2275 10.8955C16.1018 11.0212 15.9307 11.0917 15.7529 11.0918H13.8184V9.75H15.7529Z" fill="black"/>
<path fill-rule="evenodd" clip-rule="evenodd" d="M20.166 3C20.6261 3 20.9998 3.37292 21 3.83301V20.166C21 20.6262 20.6262 21 20.166 21H3.83301C3.37292 20.9998 3 20.6261 3 20.166V3.83301C3.00017 3.37303 3.37303 3.00017 3.83301 3H20.166ZM10.7402 8.29395C10.3505 8.15472 9.92188 8.35748 9.78223 8.74707L8.3418 12.7734L6.90137 8.74707C6.76176 8.35734 6.33223 8.15462 5.94238 8.29395C5.55258 8.43358 5.34978 8.86302 5.48926 9.25293L7.63574 15.2529C7.74257 15.551 8.02513 15.75 8.3418 15.75C8.65837 15.7498 8.94111 15.551 9.04785 15.2529L11.1943 9.25293C11.3338 8.86301 11.1301 8.43353 10.7402 8.29395ZM13.0684 8.25C12.6542 8.25005 12.3184 8.58581 12.3184 9V15C12.3184 15.4142 12.6542 15.75 13.0684 15.75H16.2266C16.8441 15.7499 17.4364 15.504 17.873 15.0674C18.3096 14.6306 18.5557 14.0384 18.5557 13.4209C18.5556 12.8034 18.3097 12.2111 17.873 11.7744C17.7896 11.691 17.6993 11.6159 17.6055 11.5469C17.8102 11.2099 17.9238 10.8218 17.9238 10.4209C17.9238 9.84524 17.6951 9.29284 17.2881 8.88574C16.8811 8.47871 16.3285 8.25014 15.7529 8.25H13.0684Z" fill="black"/>
</svg>
