<svg width="24" height="24" viewBox="0 0 24 24" fill="none" xmlns="http://www.w3.org/2000/svg">
<path d="M15.9707 14.0723C16.1661 14.0723 16.3541 14.15 16.4922 14.2881C16.6301 14.4261 16.7079 14.6135 16.708 14.8086C16.7079 15.0038 16.6302 15.1921 16.4922 15.3301C16.3541 15.468 16.1659 15.5459 15.9707 15.5459H13.748V14.0723H15.9707Z" fill="black"/>
<path d="M15.5254 11.3965C15.681 11.3966 15.8303 11.4584 15.9404 11.5684C16.0506 11.6786 16.1133 11.8285 16.1133 11.9844C16.1132 12.1401 16.0506 12.2902 15.9404 12.4004C15.8303 12.5102 15.6809 12.5722 15.5254 12.5723H13.748V11.3965H15.5254Z" fill="black"/>
<path d="M11.7441 7.12988L11.75 7.19629C11.75 7.17169 11.7467 7.1473 11.7422 7.12402C11.7426 7.12603 11.7438 7.12787 11.7441 7.12988Z" fill="black"/>
<path fill-rule="evenodd" clip-rule="evenodd" d="M21 3.04883C21.9583 3.04883 22.5 3.93666 22.5 4.71094V19.2891C22.4996 20.0631 21.958 20.9502 21 20.9502H3C2.04201 20.9502 1.5004 20.0631 1.5 19.2891V4.71094C1.5 3.93666 2.04165 3.04883 3 3.04883H21ZM10.8291 9.94043C10.439 9.80116 10.0094 10.0045 9.87012 10.3945L8.55859 14.0645L7.24805 10.3945C7.10873 10.0044 6.67914 9.80111 6.28906 9.94043C5.89966 10.08 5.69604 10.5087 5.83496 10.8984L7.85254 16.5479C7.95922 16.8461 8.24283 17.0458 8.55957 17.0459C8.8762 17.0458 9.1589 16.8459 9.26562 16.5479L11.2832 10.8984C11.4223 10.5085 11.219 10.0798 10.8291 9.94043ZM12.998 9.89648C12.5839 9.89662 12.248 10.2324 12.248 10.6465V16.2959C12.2485 16.7096 12.5842 17.0458 12.998 17.0459H15.9707C16.5637 17.0459 17.1333 16.8098 17.5527 16.3906C17.972 15.9713 18.2079 15.4016 18.208 14.8086C18.2079 14.2157 17.9719 13.6469 17.5527 13.2275C17.4821 13.1569 17.4056 13.0931 17.3271 13.0332C17.5111 12.7172 17.6132 12.3563 17.6133 11.9844C17.6133 11.4307 17.3925 10.8994 17.001 10.5078C16.6095 10.1165 16.0789 9.89659 15.5254 9.89648H12.998ZM5.62598 6.07129C5.00477 6.07142 4.50098 6.57505 4.50098 7.19629C4.50124 7.8173 5.00493 8.32116 5.62598 8.32129C6.24713 8.32129 6.75071 7.81738 6.75098 7.19629C6.75098 6.57497 6.2473 6.07129 5.62598 6.07129ZM11.375 6.07129C10.7927 6.07141 10.3126 6.51392 10.2549 7.08105L10.25 7.19629L10.2549 7.31152C10.3128 7.87843 10.7928 8.32117 11.375 8.32129C11.9959 8.32103 12.4997 7.81722 12.5 7.19629C12.5 6.61371 12.0567 6.13463 11.4893 6.07715L11.375 6.07129Z" fill="black"/>
</svg>
