<svg viewBox="0 0 24 24" fill="none" xmlns="http://www.w3.org/2000/svg" width="24" height="24">
<path d="M20.911 3.3C21.689 3.301 22.321 3.932 22.321 4.71V19.29C22.321 20.068 21.689 20.699 20.911 20.7H3.09C2.312 20.7 1.679 20.069 1.679 19.29V4.71C1.679 3.931 2.312 3.3 3.09 3.3H20.911ZM11.177 9.677C10.904 9.677 10.691 9.741 10.54 9.871 10.389 9.993 10.259 10.181 10.151 10.433L8.249 14.841 6.349 10.444C6.241 10.192 6.111 10 5.96 9.871 5.816 9.741 5.597 9.677 5.302 9.677 5.064 9.677 4.866 9.734 4.707 9.85 4.549 9.958 4.448 10.112 4.405 10.314 4.362 10.515 4.398 10.743 4.513 10.995L7.127 16.761C7.243 17.013 7.382 17.197 7.548 17.312 7.721 17.427 7.944 17.485 8.217 17.486 8.491 17.486 8.711 17.427 8.877 17.312 9.042 17.197 9.179 17.013 9.287 16.761L11.911 10.995C12.026 10.743 12.062 10.515 12.019 10.314 11.983 10.112 11.89 9.957 11.739 9.85 11.588 9.735 11.4 9.677 11.177 9.677ZM13.944 9.773C13.606 9.773 13.346 9.864 13.166 10.044 12.993 10.217 12.907 10.469 12.907 10.8V16.362C12.907 16.693 12.993 16.949 13.166 17.129 13.346 17.302 13.606 17.388 13.944 17.388H16.686C17.514 17.388 18.167 17.197 18.642 16.815 19.124 16.427 19.365 15.898 19.365 15.228 19.365 14.724 19.221 14.31 18.933 13.986 18.709 13.728 18.408 13.544 18.033 13.432 18.333 13.308 18.579 13.126 18.771 12.885 19.03 12.568 19.16 12.186 19.16 11.74 19.16 11.344 19.059 10.998 18.858 10.703 18.656 10.407 18.361 10.18 17.972 10.022 17.59 9.856 17.126 9.773 16.578 9.773H13.944ZM16.417 14.256C16.784 14.256 17.05 14.324 17.216 14.461 17.389 14.598 17.475 14.807 17.475 15.088 17.475 15.368 17.389 15.58 17.216 15.724 17.05 15.861 16.784 15.93 16.417 15.93H14.808V14.256H16.417ZM16.222 11.232C16.582 11.232 16.845 11.297 17.011 11.427 17.184 11.549 17.27 11.743 17.27 12.009 17.27 12.276 17.184 12.474 17.011 12.603 16.845 12.733 16.582 12.798 16.222 12.798H14.808V11.232H16.222ZM5.925 6.533C5.366 6.533 4.913 6.987 4.913 7.546 4.913 8.105 5.366 8.558 5.925 8.558 6.484 8.558 6.937 8.105 6.938 7.546 6.938 6.987 6.484 6.533 5.925 6.533ZM9.975 6.533C9.416 6.533 8.963 6.987 8.963 7.546 8.963 8.105 9.416 8.558 9.975 8.558 10.534 8.558 10.987 8.105 10.987 7.546 10.987 6.987 10.534 6.533 9.975 6.533Z" fill="black"/>
</svg>