<svg width="24" height="24" viewBox="0 0 24 24" fill="none" xmlns="http://www.w3.org/2000/svg">
<g clip-path="url(#clip0_2037_2271)">
<path d="M17.9989 6.75145V17.2514C17.9989 17.6492 17.8409 18.0307 17.5596 18.312C17.2783 18.5933 16.8967 18.7514 16.4989 18.7514H2.99901C2.60119 18.7514 2.21966 18.5933 1.93836 18.312C1.65706 18.0307 1.49902 17.6492 1.49902 17.2514V6.75145C1.49902 6.35363 1.65706 5.9721 1.93836 5.6908C2.21966 5.4095 2.60119 5.25146 2.99901 5.25146H16.4989C16.8967 5.25146 17.2783 5.4095 17.5596 5.6908C17.8409 5.9721 17.9989 6.35363 17.9989 6.75145ZM23.4364 6.77489C23.3305 6.749 23.2205 6.7458 23.1133 6.76552C23.0062 6.78523 22.9045 6.82741 22.8148 6.88926L19.6658 8.98831C19.6144 9.02258 19.5723 9.06901 19.5432 9.12347C19.5141 9.17794 19.4988 9.23874 19.4989 9.3005V14.7023C19.4988 14.7641 19.5141 14.8249 19.5432 14.8794C19.5723 14.9338 19.6144 14.9802 19.6658 15.0145L22.8326 17.1257C22.9511 17.2048 23.0898 17.2485 23.2322 17.2516C23.3747 17.2548 23.5151 17.2173 23.637 17.1436C23.7498 17.0719 23.8423 16.9724 23.9056 16.8547C23.969 16.737 24.0011 16.605 23.9989 16.4714V7.50145C23.9989 7.33511 23.9437 7.17347 23.8419 7.04194C23.7401 6.91042 23.5974 6.81647 23.4364 6.77489Z" fill="black"/>
</g>
<defs>
<clipPath id="clip0_2037_2271">
<rect width="23.9998" height="23.9998" fill="white"/>
</clipPath>
</defs>
</svg>
