<svg width="24" height="24" viewBox="0 0 24 24" fill="none" xmlns="http://www.w3.org/2000/svg">
<path d="M21.9903 7.41652C21.901 9.34865 20.5408 11.992 17.9125 15.3432C15.1934 18.8497 12.8915 20.6009 11.0081 20.6009C9.84322 20.6009 8.85688 19.5346 8.05054 17.3967C7.51201 15.4361 6.97491 13.4728 6.43639 11.5164C5.83786 9.37701 5.19612 8.30804 4.50835 8.30804C4.39847 8.30804 4.0868 8.47705 3.57225 8.81506C3.21431 9.05018 2.73405 8.97971 2.47058 8.64209C2.20675 8.30401 2.25371 7.8187 2.5762 7.53602C3.36511 6.84448 4.14425 6.15049 4.91438 5.45875C6.22719 4.32806 7.21349 3.73672 7.87197 3.67499C9.42474 3.52524 10.3817 4.58108 10.7417 6.83626C11.1267 9.27304 11.3988 10.7878 11.5467 11.3819C11.9945 13.4007 12.4884 14.4087 13.0269 14.4087C13.444 14.4087 14.0704 13.757 14.9089 12.4517C15.7459 11.1435 16.1938 10.1494 16.2538 9.46513C16.3723 8.33649 15.9245 7.77566 14.9089 7.77566C14.4304 7.77566 13.9365 7.87619 13.4287 8.08692C14.4163 4.90832 16.2984 3.36445 19.0774 3.45387C21.1379 3.51144 22.1089 4.83552 21.9903 7.41652Z" fill="black" stroke="black" stroke-width="1.5" stroke-linejoin="round"/>
</svg>
