<svg width="24" height="24" viewBox="0 0 24 24" fill="none" xmlns="http://www.w3.org/2000/svg">
<g clip-path="url(#clip0_2037_2252)">
<path d="M23.0295 13.7217C23.1702 13.8624 23.2493 14.0533 23.2493 14.2523C23.2493 14.4513 23.1702 14.6422 23.0295 14.7829C22.8888 14.9236 22.6979 15.0027 22.4989 15.0027C22.2998 15.0027 22.109 14.9236 21.9682 14.7829L20.2489 13.0626L18.5295 14.7829C18.3888 14.9236 18.1979 15.0027 17.9989 15.0027C17.7999 15.0027 17.609 14.9236 17.4683 14.7829C17.3275 14.6422 17.2485 14.4513 17.2485 14.2523C17.2485 14.0533 17.3275 13.8624 17.4683 13.7217L19.1886 12.0023L17.4683 10.2829C17.3275 10.1422 17.2485 9.95134 17.2485 9.75232C17.2485 9.5533 17.3275 9.36243 17.4683 9.2217C17.609 9.08097 17.7999 9.00191 17.9989 9.00191C18.1979 9.00191 18.3888 9.08097 18.5295 9.2217L20.2489 10.942L21.9682 9.2217C22.109 9.08097 22.2998 9.00191 22.4989 9.00191C22.6979 9.00191 22.8888 9.08097 23.0295 9.2217C23.1702 9.36243 23.2493 9.5533 23.2493 9.75232C23.2493 9.95134 23.1702 10.1422 23.0295 10.2829L21.3092 12.0023L23.0295 13.7217ZM5.62399 7.50234H2.99901C2.60119 7.50234 2.21966 7.66037 1.93836 7.94168C1.65706 8.22298 1.49902 8.60451 1.49902 9.00233V15.0023C1.49902 15.4001 1.65706 15.7816 1.93836 16.0629C2.21966 16.3442 2.60119 16.5023 2.99901 16.5023H5.62399C5.72345 16.5023 5.81883 16.4628 5.88915 16.3924C5.95948 16.3221 5.99899 16.2267 5.99899 16.1273V7.87734C5.99899 7.77788 5.95948 7.6825 5.88915 7.61217C5.81883 7.54185 5.72345 7.50234 5.62399 7.50234ZM14.7317 2.42582C14.6004 2.31717 14.436 2.25648 14.2656 2.25376C14.0952 2.25103 13.929 2.30643 13.7942 2.41082L7.6471 7.19203C7.6015 7.22668 7.56444 7.2713 7.53877 7.32249C7.51309 7.37368 7.49948 7.43007 7.49898 7.48734V16.5173C7.49915 16.5743 7.51232 16.6305 7.5375 16.6817C7.56268 16.7329 7.59921 16.7776 7.64429 16.8126L13.7914 21.5938C13.9105 21.6864 14.0547 21.7409 14.2052 21.7502C14.3557 21.7596 14.5056 21.7234 14.6352 21.6463C14.7492 21.5753 14.843 21.476 14.9072 21.3581C14.9714 21.2401 15.004 21.1075 15.0017 20.9732V3.02581C15.0031 2.9119 14.9794 2.79908 14.9323 2.69538C14.8851 2.59168 14.8157 2.49964 14.7289 2.42582H14.7317Z" fill="black"/>
</g>
<defs>
<clipPath id="clip0_2037_2252">
<rect width="23.9998" height="23.9998" fill="white"/>
</clipPath>
</defs>
</svg>
