<svg width="24" height="24" viewBox="0 0 24 24" fill="none" xmlns="http://www.w3.org/2000/svg">
<g clip-path="url(#clip0_2037_2247)">
<path d="M14.9989 3.02532V20.9727C15.0012 21.107 14.9686 21.2396 14.9044 21.3576C14.8401 21.4755 14.7464 21.5749 14.6324 21.6458C14.5027 21.7229 14.3529 21.7591 14.2024 21.7498C14.0519 21.7404 13.9077 21.6859 13.7886 21.5933L7.64148 16.8121C7.59691 16.7769 7.56093 16.732 7.53624 16.6808C7.51155 16.6297 7.49881 16.5736 7.49898 16.5168V7.48685C7.49915 7.42982 7.51232 7.37358 7.5375 7.3224C7.56268 7.27123 7.59921 7.22647 7.64429 7.19154L13.7914 2.41033C13.9261 2.30594 14.0924 2.25054 14.2628 2.25327C14.4332 2.256 14.5976 2.31668 14.7289 2.42533C14.8152 2.49942 14.8841 2.59158 14.9307 2.69526C14.9774 2.79895 15.0007 2.91163 14.9989 3.02532ZM5.62399 7.50185H2.99901C2.60119 7.50185 2.21966 7.65989 1.93836 7.94119C1.65706 8.22249 1.49902 8.60402 1.49902 9.00184V15.0018C1.49902 15.3996 1.65706 15.7811 1.93836 16.0624C2.21966 16.3437 2.60119 16.5018 2.99901 16.5018H5.62399C5.72345 16.5018 5.81883 16.4623 5.88915 16.3919C5.95948 16.3216 5.99899 16.2262 5.99899 16.1268V7.87685C5.99899 7.77739 5.95948 7.68201 5.88915 7.61169C5.81883 7.54136 5.72345 7.50185 5.62399 7.50185ZM17.5086 9.45559C17.4345 9.52067 17.374 9.59971 17.3305 9.6882C17.2871 9.77669 17.2615 9.87288 17.2552 9.97127C17.2489 10.0697 17.2621 10.1683 17.294 10.2616C17.3259 10.3549 17.3759 10.441 17.4411 10.515C17.8028 10.9258 18.0024 11.4544 18.0024 12.0018C18.0024 12.5492 17.8028 13.0778 17.4411 13.4887C17.3741 13.5623 17.3225 13.6484 17.2891 13.7422C17.2558 13.8359 17.2414 13.9353 17.2469 14.0347C17.2524 14.134 17.2775 14.2312 17.3209 14.3208C17.3644 14.4103 17.4251 14.4903 17.4998 14.556C17.5744 14.6218 17.6614 14.6721 17.7556 14.704C17.8499 14.7358 17.9495 14.7486 18.0487 14.7416C18.148 14.7346 18.2448 14.7079 18.3336 14.6631C18.4225 14.6182 18.5015 14.5562 18.5661 14.4805C19.1693 13.7957 19.5021 12.9144 19.5021 12.0018C19.5021 11.0892 19.1693 10.2079 18.5661 9.52309C18.501 9.44889 18.4219 9.38827 18.3333 9.3447C18.2447 9.30114 18.1484 9.27548 18.0499 9.26921C17.9514 9.26294 17.8527 9.27618 17.7593 9.30816C17.6659 9.34014 17.5798 9.39024 17.5058 9.45559H17.5086ZM21.342 7.00217C21.2775 6.92503 21.1981 6.86167 21.1085 6.81583C21.019 6.77 20.9212 6.74265 20.8209 6.73539C20.7206 6.72813 20.6198 6.74112 20.5247 6.77359C20.4295 6.80606 20.3418 6.85734 20.2668 6.92438C20.1919 6.99142 20.1311 7.07286 20.0883 7.16384C20.0454 7.25482 20.0213 7.35349 20.0174 7.45399C20.0134 7.55448 20.0297 7.65474 20.0653 7.74881C20.1009 7.84287 20.155 7.92882 20.2245 8.00154C21.2086 9.10161 21.7526 10.5258 21.7526 12.0018C21.7526 13.4778 21.2086 14.902 20.2245 16.0021C20.155 16.0748 20.1009 16.1608 20.0653 16.2548C20.0297 16.3489 20.0134 16.4492 20.0174 16.5496C20.0213 16.6501 20.0454 16.7488 20.0883 16.8398C20.1311 16.9308 20.1919 17.0122 20.2668 17.0793C20.3418 17.1463 20.4295 17.1976 20.5247 17.23C20.6198 17.2625 20.7206 17.2755 20.8209 17.2682C20.9212 17.261 21.019 17.2336 21.1085 17.1878C21.1981 17.142 21.2775 17.0786 21.342 17.0015C22.5717 15.6265 23.2515 13.8465 23.2515 12.0018C23.2515 10.1571 22.5717 8.37717 21.342 7.00217Z" fill="black"/>
</g>
<defs>
<clipPath id="clip0_2037_2247">
<rect width="23.9998" height="23.9998" fill="white"/>
</clipPath>
</defs>
</svg>
