<svg xmlns="http://www.w3.org/2000/svg" width="24" height="24" fill="currentColor" viewBox="0 0 24 24"><path d="M23.914 13.856a0.81 0.81 0 0 1-1.146 1.146l-1.857-1.857-1.856 1.857a0.81 0.81 0 0 1-1.146-1.146L19.766 12l-1.857-1.856a0.81 0.81 0 0 1 1.146-1.146l1.856 1.857 1.857-1.857a0.81 0.81 0 0 1 1.146 1.146L22.056 12zM5.116 7.14H2.281a1.62 1.62 0 0 0-1.62 1.62v6.48a1.62 1.62 0 0 0 1.62 1.62h2.835a0.408 0.408 0 0 0 0.405-0.406V7.544a0.408 0.408 0 0 0-0.405-0.405z m9.836-5.483a0.81 0.81 0 0 0-1.013-0.017L7.301 6.804a0.408 0.408 0 0 0-0.16 0.319v9.753a0.408 0.408 0 0 0 0.157 0.319l6.639 5.163a0.81 0.81 0 0 0 0.911 0.057 0.84 0.84 0 0 0 0.396-0.727V2.304a0.84 0.84 0 0 0-0.296-0.648z"/></svg>