<svg width="24" height="24" viewBox="0 0 24 24" fill="none" xmlns="http://www.w3.org/2000/svg">
<path d="M14.9989 3.02557V20.9729C15.0012 21.1072 14.9686 21.2398 14.9044 21.3578C14.8401 21.4758 14.7464 21.5751 14.6324 21.646C14.5027 21.7231 14.3529 21.7594 14.2024 21.75C14.0519 21.7406 13.9077 21.6861 13.7886 21.5936L7.64148 16.8123C7.59691 16.7771 7.56093 16.7322 7.53624 16.6811C7.51155 16.6299 7.49881 16.5738 7.49898 16.517V7.4871C7.49915 7.43006 7.51232 7.37382 7.5375 7.32265C7.56268 7.27147 7.59921 7.22672 7.64429 7.19179L13.7914 2.41057C13.9261 2.30618 14.0924 2.25079 14.2628 2.25351C14.4332 2.25624 14.5976 2.31692 14.7289 2.42557C14.8152 2.49966 14.8841 2.59182 14.9307 2.69551C14.9774 2.7992 15.0007 2.91188 14.9989 3.02557ZM5.62399 7.5021H2.99901C2.60119 7.5021 2.21966 7.66013 1.93836 7.94143C1.65706 8.22273 1.49902 8.60426 1.49902 9.00208V15.002C1.49902 15.3999 1.65706 15.7814 1.93836 16.0627C2.21966 16.344 2.60119 16.502 2.99901 16.502H5.62399C5.72345 16.502 5.81883 16.4625 5.88915 16.3922C5.95948 16.3219 5.99899 16.2265 5.99899 16.127V7.87709C5.99899 7.77764 5.95948 7.68225 5.88915 7.61193C5.81883 7.5416 5.72345 7.5021 5.62399 7.5021ZM18.5614 9.52333C18.4968 9.44768 18.4178 9.38564 18.329 9.34082C18.2401 9.296 18.1433 9.2693 18.0441 9.26228C17.9448 9.25525 17.8452 9.26804 17.7509 9.29989C17.6567 9.33175 17.5697 9.38204 17.4951 9.44783C17.4205 9.51362 17.3597 9.59361 17.3163 9.68312C17.2728 9.77263 17.2477 9.86989 17.2422 9.96922C17.2368 10.0686 17.2511 10.168 17.2844 10.2617C17.3178 10.3555 17.3694 10.4416 17.4364 10.5152C17.7981 10.926 17.9977 11.4547 17.9977 12.0021C17.9977 12.5495 17.7981 13.0781 17.4364 13.4889C17.3694 13.5625 17.3178 13.6487 17.2844 13.7424C17.2511 13.8361 17.2368 13.9356 17.2422 14.0349C17.2477 14.1342 17.2728 14.2315 17.3163 14.321C17.3597 14.4105 17.4205 14.4905 17.4951 14.5563C17.5697 14.6221 17.6567 14.6724 17.7509 14.7042C17.8452 14.7361 17.9448 14.7489 18.0441 14.7418C18.1433 14.7348 18.2401 14.7081 18.329 14.6633C18.4178 14.6185 18.4968 14.5564 18.5614 14.4808C19.1646 13.796 19.4974 12.9147 19.4974 12.0021C19.4974 11.0894 19.1646 10.2081 18.5614 9.52333Z" fill="black"/>
</svg>
