<svg xmlns="http://www.w3.org/2000/svg" width="24" height="24" fill="currentColor" viewBox="0 0 24 24"><path d="M15.24 2.305v19.384a0.84 0.84 0 0 1-0.396 0.727 0.81 0.81 0 0 1-0.911-0.056L7.295 17.196a0.408 0.408 0 0 1-0.154-0.319V7.124a0.408 0.408 0 0 1 0.157-0.319l6.639-5.163a0.81 0.81 0 0 1 1.013 0.016 0.84 0.84 0 0 1 0.291 0.648zM5.114 7.14H2.28A1.62 1.62 0 0 0 0.66 8.76v6.48a1.62 1.62 0 0 0 1.62 1.62h2.834a0.408 0.408 0 0 0 0.406-0.406V7.544a0.408 0.408 0 0 0-0.406-0.405z m12.836 2.11a0.81 0.81 0 0 0-0.074 1.143 2.43 2.43 0 0 1 0 3.211 0.81 0.81 0 1 0 1.216 1.072 4.05 4.05 0 0 0 0-5.354 0.81 0.81 0 0 0-1.145-0.074z m4.14-2.65a0.81 0.81 0 1 0-1.208 1.079 6.48 6.48 0 0 1 0 8.641 0.81 0.81 0 1 0 1.208 1.079 8.1 8.1 0 0 0 0-10.799"/></svg>