<svg xmlns="http://www.w3.org/2000/svg" width="24" height="24" fill="currentColor" viewBox="0 0 24 24"><path d="M23.282 12.506l-3.24-8.1a0.81 0.81 0 0 0-0.752-0.506 0.84 0.84 0 0 0-0.175 0.022l-6.305 1.396V3.091a0.81 0.81 0 0 0-1.62 0v2.59L4.535 7.162a0.816 0.816 0 0 0-0.577 0.484l-3.24 8.1a0.84 0.84 0 0 0-0.058 0.304c0 2.36 2.485 3.24 4.05 3.24s4.05-0.88 4.05-3.24a0.84 0.84 0 0 0-0.058-0.304l-2.887-7.212 5.375-1.191V20.1h-1.62a0.81 0.81 0 0 0 0 1.62h4.86a0.81 0.81 0 0 0 0-1.62h-1.62V6.98l5.164-1.146-2.676 6.672a0.84 0.84 0 0 0-0.058 0.304c0 2.36 2.485 3.24 4.05 3.24s4.05-0.88 4.05-3.24a0.84 0.84 0 0 0-0.058-0.304m-16.2 3.544h-4.74l2.368-5.92z m9.846-3.24l2.362-5.92 2.368 5.92z"/></svg>