<?xml version="1.0" encoding="utf-8"?>
<svg xmlns="http://www.w3.org/2000/svg" width="512" height="512" viewBox="0 0 512 512">
<path d="m480,128v320c0,17.67-14.33,32-32,32H64c-17.67,0-32-14.33-32-32V128c0-17.67,14.33-32,32-32h101.47c13.17-37.29,48.73-64,90.53-64,8.36,0,16.46,1.07,24.19,3.07-.75.65-1.48,1.34-2.19,2.05l-27.09,27.09c-21.5,1.69-40.04,14.05-50.32,31.79-5.46,9.42-8.59,20.35-8.59,32,0,13.32,4.09,25.7,11.09,35.95,1.94,3.18,4.28,6.18,7.03,8.93,1.8,1.81,3.72,3.45,5.75,4.92,10.99,8.88,24.95,14.2,40.13,14.2,34.3,0,62.39-27.12,63.93-61.05l25.95-25.95c.11-.11.33-.34.62-.65.39-.38.75-.77,1.08-1.16.2-.23.42-.47.65-.72,1.93-2.09,4.51-4.93,5.88-6.47h93.89c17.67,0,32,14.33,32,32Zm-156.75-45.63l-36.56,36.56c.86,2.87,1.31,5.92,1.31,9.07,0,17.67-14.33,32-32,32-8.09,0-15.47-3-21.1-7.94-1.75-1.54-3.34-3.27-4.72-5.15-3.89-5.3-6.18-11.83-6.18-18.91,0-17.67,14.33-32,32-32,2.58,0,5.09.3,7.49.88l37.14-37.14c3.12-3.12,7.22-4.68,11.31-4.68s8.19,1.56,11.31,4.68c6.25,6.25,6.25,16.38,0,22.63Z"/>
</svg>
