<svg xmlns="http://www.w3.org/2000/svg" width="24" height="24" fill="currentColor" viewBox="0 0 24 24"><path d="M14.489 13.745l2.329 1.163a2.43 2.43 0 0 1-2.388 1.953A7.296 7.296 0 0 1 7.14 9.571 2.43 2.43 0 0 1 9.094 7.188l1.162 2.329-0.988 1.473a0.816 0.816 0 0 0-0.075 0.76 5.712 5.712 0 0 0 3.053 3.053 0.816 0.816 0 0 0 0.768-0.067zM22.53 12a10.53 10.53 0 0 1-15.479 9.296l-3.447 1.15a1.62 1.62 0 0 1-2.05-2.05l1.15-3.447A10.53 10.53 0 1 1 22.53 12M18.48 14.43a0.816 0.816 0 0 0-0.448-0.725l-3.24-1.62a0.816 0.816 0 0 0-0.81 0.051l-1.486 0.992a4.08 4.08 0 0 1-1.62-1.62l0.992-1.487a0.816 0.816 0 0 0 0.05-0.81l-1.62-3.24a0.816 0.816 0 0 0-0.728-0.45A4.05 4.05 0 0 0 5.52 9.571a8.92 8.92 0 0 0 8.91 8.91 4.05 4.05 0 0 0 4.05-4.05z"/></svg>