<svg width="24" height="24" viewBox="0 0 24 24" fill="none" xmlns="http://www.w3.org/2000/svg">
<path d="M7.28711 12.9893C7.69117 12.9893 7.89495 13.2253 7.93945 13.4043L7.94922 13.4766L7.93945 13.5488C7.8948 13.7278 7.69095 13.9638 7.28711 13.9639C6.82556 13.9639 6.62512 13.6557 6.625 13.4766C6.625 13.2974 6.82543 12.9893 7.28711 12.9893Z" fill="black"/>
<path d="M12.2246 11.8408C12.6382 11.8411 13.1045 12.2398 13.1045 12.9023C13.1044 13.5648 12.6382 13.9636 12.2246 13.9639C11.8368 13.9639 11.4024 13.6133 11.3496 13.0234L11.3438 12.9023C11.3438 12.2396 11.8109 11.8408 12.2246 11.8408Z" fill="black"/>
<path fill-rule="evenodd" clip-rule="evenodd" d="M20.25 3.75C20.6478 3.75 21.0292 3.90815 21.3105 4.18945C21.5919 4.47076 21.75 4.85218 21.75 5.25V18.75C21.75 19.1478 21.5919 19.5292 21.3105 19.8105C21.0292 20.0919 20.6478 20.25 20.25 20.25H3.75C3.35218 20.25 2.97076 20.0919 2.68945 19.8105C2.40815 19.5292 2.25 19.1478 2.25 18.75V5.25C2.25 4.85218 2.40815 4.47076 2.68945 4.18945C2.97076 3.90815 3.35218 3.75 3.75 3.75H20.25ZM7.28711 10.0752C6.77253 10.0752 6.15855 10.1898 5.69922 10.6465C5.40554 10.9386 5.40418 11.4143 5.69629 11.708C5.78161 11.7937 5.8838 11.8509 5.99121 11.8867C5.47998 12.2345 5.125 12.7908 5.125 13.4766C5.12509 14.664 6.18925 15.4639 7.28711 15.4639C7.60355 15.4638 7.91601 15.3945 8.20215 15.2715C8.33469 15.3896 8.50771 15.4639 8.69922 15.4639C9.11321 15.4637 9.44916 15.1279 9.44922 14.7139V12.0625C9.44922 10.8753 8.38482 10.0753 7.28711 10.0752ZM10.5938 8.53613C10.1797 8.53626 9.8438 8.87204 9.84375 9.28613V14.7139C9.84376 15.128 10.1797 15.4637 10.5938 15.4639C10.8233 15.4639 11.0255 15.3578 11.1631 15.1953C11.4774 15.364 11.8348 15.4639 12.2246 15.4639C13.6114 15.4636 14.6044 14.2406 14.6045 12.9023C14.6045 11.5641 13.6115 10.341 12.2246 10.3408C11.9078 10.3408 11.6123 10.4071 11.3438 10.5215V9.28613C11.3437 8.87196 11.0079 8.53613 10.5938 8.53613ZM17.2207 10.3398C16.7714 10.34 16.3294 10.4586 15.9404 10.6836C15.5515 10.9086 15.2293 11.2328 15.0049 11.6221C14.7806 12.0114 14.6621 12.453 14.6621 12.9023C14.6622 13.3515 14.7807 13.7925 15.0049 14.1816C15.2292 14.5709 15.5516 14.8951 15.9404 15.1201C16.3294 15.3451 16.7714 15.4637 17.2207 15.4639C17.6698 15.464 18.1111 15.3457 18.5 15.1211C18.8586 14.914 18.9813 14.4553 18.7744 14.0967C18.5672 13.738 18.1087 13.6151 17.75 13.8223C17.5891 13.9152 17.4063 13.9639 17.2207 13.9639C17.0351 13.9638 16.8523 13.9143 16.6914 13.8213C16.5307 13.7282 16.3967 13.5939 16.3037 13.4326C16.211 13.2714 16.1622 13.0885 16.1621 12.9023C16.1621 12.716 16.2108 12.5324 16.3037 12.3711C16.3967 12.2098 16.5307 12.0755 16.6914 11.9824C16.8523 11.8894 17.0351 11.8399 17.2207 11.8398C17.4064 11.8398 17.5891 11.8895 17.75 11.9824C18.1085 12.1893 18.5672 12.0664 18.7744 11.708C18.9816 11.3493 18.8587 10.8898 18.5 10.6826C18.1111 10.458 17.6698 10.3398 17.2207 10.3398Z" fill="black"/>
</svg>
