<svg viewBox="0 0 24 24" fill="none" xmlns="http://www.w3.org/2000/svg" width="24" height="24">
<path d="M20.82 2.28C21.317 2.28 21.72 2.683 21.72 3.18V20.821C21.719 21.318 21.317 21.721 20.82 21.721H3.18C2.683 21.721 2.279 21.318 2.279 20.821V3.18C2.279 2.683 2.683 2.28 3.18 2.28H20.82ZM6.361 10.485C6.132 10.485 5.881 10.505 5.605 10.546 5.336 10.586 5.04 10.666 4.718 10.787 4.543 10.854 4.413 10.949 4.325 11.07 4.245 11.19 4.201 11.318 4.194 11.453 4.194 11.587 4.228 11.711 4.295 11.825 4.369 11.94 4.47 12.021 4.597 12.068 4.725 12.115 4.879 12.105 5.06 12.037 5.309 11.943 5.535 11.88 5.736 11.847 5.938 11.806 6.119 11.786 6.28 11.786 6.582 11.786 6.794 11.836 6.915 11.937 7.043 12.038 7.107 12.209 7.107 12.451V12.592H6.724C6.032 12.592 5.477 12.639 5.06 12.734 4.644 12.821 4.341 12.968 4.153 13.177 3.965 13.385 3.871 13.671 3.871 14.033 3.871 14.349 3.952 14.632 4.113 14.88 4.281 15.122 4.51 15.314 4.799 15.455 5.094 15.596 5.434 15.667 5.817 15.667 6.065 15.667 6.287 15.623 6.482 15.536 6.677 15.448 6.835 15.327 6.956 15.172 7.034 15.072 7.092 14.959 7.133 14.834 7.147 15.083 7.213 15.277 7.338 15.415 7.486 15.569 7.698 15.646 7.973 15.646 8.242 15.646 8.448 15.569 8.589 15.415 8.73 15.26 8.801 15.034 8.801 14.739V12.703C8.801 12.192 8.709 11.775 8.528 11.453 8.353 11.124 8.084 10.882 7.721 10.727 7.365 10.566 6.912 10.485 6.361 10.485ZM10.709 8.358C10.427 8.358 10.208 8.435 10.053 8.59 9.899 8.744 9.822 8.97 9.822 9.266V14.739C9.822 15.034 9.896 15.26 10.044 15.415 10.199 15.569 10.42 15.646 10.709 15.646 10.991 15.646 11.206 15.569 11.354 15.415 11.481 15.288 11.552 15.113 11.575 14.892 11.683 15.09 11.845 15.257 12.06 15.394 12.362 15.575 12.705 15.667 13.087 15.667 13.518 15.667 13.895 15.562 14.217 15.354 14.546 15.146 14.802 14.846 14.984 14.456 15.165 14.067 15.255 13.606 15.255 13.076 15.255 12.532 15.165 12.068 14.984 11.685 14.802 11.302 14.546 11.006 14.217 10.798 13.895 10.589 13.518 10.485 13.087 10.485 12.718 10.485 12.386 10.573 12.09 10.747 11.886 10.868 11.728 11.014 11.617 11.183V9.266C11.617 8.97 11.535 8.744 11.374 8.59 11.22 8.435 10.997 8.358 10.709 8.358ZM18.602 10.485C18.186 10.485 17.807 10.546 17.464 10.666 17.128 10.781 16.835 10.949 16.587 11.17 16.345 11.392 16.16 11.665 16.032 11.987 15.905 12.303 15.841 12.662 15.841 13.065 15.841 13.596 15.955 14.06 16.184 14.456 16.412 14.846 16.731 15.146 17.141 15.354 17.558 15.562 18.045 15.667 18.602 15.667 18.797 15.667 19 15.646 19.208 15.606 19.423 15.572 19.642 15.505 19.863 15.404 20.024 15.344 20.138 15.253 20.205 15.132 20.273 15.005 20.304 14.873 20.297 14.739 20.29 14.598 20.249 14.47 20.175 14.355 20.101 14.242 20.004 14.165 19.883 14.125 19.762 14.078 19.624 14.091 19.47 14.164 19.356 14.218 19.241 14.258 19.127 14.285 19.013 14.305 18.902 14.316 18.795 14.316 18.438 14.316 18.163 14.205 17.968 13.983 17.773 13.761 17.675 13.455 17.675 13.065 17.675 12.871 17.699 12.696 17.746 12.541 17.799 12.387 17.874 12.259 17.968 12.158 18.062 12.051 18.176 11.97 18.311 11.917 18.452 11.863 18.613 11.836 18.795 11.836 18.902 11.836 19.013 11.849 19.127 11.876 19.248 11.896 19.362 11.933 19.47 11.987 19.624 12.061 19.762 12.078 19.883 12.037 20.011 11.997 20.108 11.92 20.175 11.805 20.249 11.691 20.29 11.563 20.297 11.422 20.31 11.281 20.283 11.15 20.216 11.03 20.156 10.902 20.044 10.808 19.883 10.747 19.655 10.647 19.433 10.579 19.218 10.546 19.003 10.505 18.797 10.485 18.602 10.485ZM7.107 13.62C7.107 13.794 7.066 13.949 6.986 14.084 6.905 14.211 6.798 14.312 6.663 14.386 6.536 14.46 6.388 14.497 6.22 14.497 6.012 14.497 5.851 14.447 5.736 14.346 5.629 14.245 5.575 14.117 5.575 13.963 5.575 13.842 5.615 13.745 5.695 13.671 5.776 13.59 5.901 13.532 6.069 13.499 6.244 13.459 6.462 13.439 6.724 13.439H7.107V13.62ZM12.524 11.805C12.792 11.806 13.014 11.907 13.188 12.108 13.363 12.303 13.451 12.626 13.451 13.076 13.451 13.371 13.411 13.613 13.33 13.801 13.249 13.983 13.138 14.121 12.997 14.215 12.863 14.302 12.705 14.346 12.524 14.346 12.248 14.346 12.022 14.245 11.848 14.044 11.673 13.842 11.586 13.519 11.586 13.076 11.586 12.774 11.626 12.532 11.707 12.35 11.788 12.162 11.899 12.024 12.04 11.937 12.181 11.849 12.342 11.805 12.524 11.805Z" fill="black"/>
</svg>