<svg width="24" height="24" viewBox="0 0 24 24" fill="none" xmlns="http://www.w3.org/2000/svg">
<path d="M7.92285 13.1992V13.3506C7.92278 13.496 7.88842 13.6244 7.82129 13.7363C7.7541 13.8427 7.66471 13.9267 7.55273 13.9883C7.44643 14.0498 7.32344 14.081 7.18359 14.0811C7.01013 14.0811 6.87546 14.0389 6.78027 13.9551C6.69068 13.8711 6.64551 13.7645 6.64551 13.6357C6.64551 13.5351 6.67916 13.4541 6.74609 13.3926C6.81329 13.3254 6.91762 13.277 7.05762 13.249C7.20314 13.2155 7.38534 13.1992 7.60352 13.1992H7.92285Z" fill="black"/>
<path d="M12.4365 11.8379C12.6602 11.838 12.8447 11.9222 12.9902 12.0898C13.1358 12.2522 13.209 12.5213 13.209 12.8965C13.209 13.1427 13.1755 13.3442 13.1084 13.501C13.0412 13.6522 12.9486 13.7673 12.8311 13.8457C12.7191 13.9185 12.5876 13.955 12.4365 13.9551C12.2069 13.9551 12.0186 13.8711 11.873 13.7031C11.7275 13.5351 11.6553 13.266 11.6553 12.8965C11.6553 12.6446 11.6887 12.4432 11.7559 12.292C11.8231 12.1352 11.9156 12.0201 12.0332 11.9473C12.1508 11.8745 12.2854 11.8379 12.4365 11.8379Z" fill="black"/>
<path fill-rule="evenodd" clip-rule="evenodd" d="M20.25 3.75C20.6478 3.75 21.0292 3.90815 21.3105 4.18945C21.5919 4.47076 21.75 4.85218 21.75 5.25V18.75C21.75 19.1478 21.5919 19.5292 21.3105 19.8105C21.0292 20.0919 20.6478 20.25 20.25 20.25H3.75C3.35218 20.25 2.97076 20.0919 2.68945 19.8105C2.40815 19.5292 2.25 19.1478 2.25 18.75V5.25C2.25 4.85218 2.40815 4.47076 2.68945 4.18945C2.97076 3.90815 3.35218 3.75 3.75 3.75H20.25ZM7.30078 10.7373C7.11041 10.7373 6.90045 10.7545 6.6709 10.7881C6.44695 10.8217 6.20037 10.8885 5.93164 10.9893C5.78625 11.0452 5.67729 11.124 5.60449 11.2246C5.53733 11.3253 5.50075 11.432 5.49512 11.5439C5.49512 11.6559 5.52318 11.7593 5.5791 11.8545C5.6407 11.9497 5.72465 12.0174 5.83105 12.0566C5.93733 12.0957 6.06586 12.0871 6.2168 12.0312C6.424 11.9529 6.61227 11.9001 6.78027 11.8721C6.94811 11.8385 7.0991 11.8213 7.2334 11.8213C7.48531 11.8213 7.66188 11.8633 7.7627 11.9473C7.8691 12.0313 7.92285 12.1744 7.92285 12.376V12.4932H7.60352C7.02672 12.4932 6.564 12.5329 6.2168 12.6113C5.86984 12.6841 5.61767 12.8069 5.46094 12.9805C5.30423 13.154 5.22562 13.3921 5.22559 13.6943C5.22559 13.9575 5.29333 14.1932 5.42773 14.4004C5.56772 14.6019 5.75832 14.7614 5.99902 14.8789C6.24539 14.9965 6.52853 15.0557 6.84766 15.0557C7.05456 15.0556 7.23915 15.019 7.40137 14.9463C7.56377 14.8735 7.69607 14.7724 7.79688 14.6436C7.86198 14.5603 7.90964 14.4657 7.94434 14.3613C7.95582 14.5692 8.01053 14.731 8.11523 14.8457C8.23838 14.9744 8.41507 15.038 8.64453 15.0381C8.86842 15.0381 9.03963 14.9744 9.15723 14.8457C9.27483 14.7169 9.33398 14.5286 9.33398 14.2822V12.5859C9.33398 12.1603 9.25765 11.8127 9.10645 11.5439C8.96084 11.2697 8.73686 11.0682 8.43457 10.9395C8.13779 10.8051 7.7599 10.7373 7.30078 10.7373ZM10.9238 8.96582C10.6888 8.96589 10.5067 9.02949 10.3779 9.1582C10.2491 9.287 10.1846 9.47528 10.1846 9.72168V14.2822C10.1846 14.5286 10.2469 14.7169 10.3701 14.8457C10.4988 14.9742 10.6834 15.038 10.9238 15.0381C11.1589 15.0381 11.3387 14.9744 11.4619 14.8457C11.5674 14.7402 11.6264 14.5946 11.6455 14.4102C11.7358 14.5747 11.8705 14.714 12.0498 14.8281C12.3017 14.9793 12.5872 15.0556 12.9062 15.0557C13.2647 15.0557 13.5789 14.9685 13.8477 14.7949C14.122 14.6213 14.3342 14.3716 14.4854 14.0469C14.6365 13.7221 14.7129 13.3388 14.7129 12.8965C14.7129 12.4429 14.6365 12.0565 14.4854 11.7373C14.3342 11.4183 14.1219 11.1716 13.8477 10.998C13.5789 10.8244 13.2647 10.7373 12.9062 10.7373C12.5985 10.7374 12.3215 10.8106 12.0752 10.9561C11.9046 11.0569 11.7734 11.1783 11.6807 11.3193V9.72168C11.6807 9.47528 11.6129 9.287 11.4785 9.1582C11.3497 9.02955 11.1645 8.96582 10.9238 8.96582ZM17.502 10.7373C17.1549 10.7373 16.8382 10.7879 16.5527 10.8887C16.2729 10.9839 16.0294 11.1239 15.8223 11.3086C15.6207 11.4934 15.4668 11.7205 15.3604 11.9893C15.254 12.2523 15.2012 12.5519 15.2012 12.8877C15.2012 13.3299 15.2961 13.7166 15.4863 14.0469C15.6767 14.3716 15.9427 14.6213 16.2842 14.7949C16.6313 14.9685 17.0373 15.0556 17.502 15.0557C17.6644 15.0557 17.8332 15.0385 18.0068 15.0049C18.1859 14.9769 18.3681 14.9208 18.5527 14.8369C18.6869 14.7866 18.7819 14.711 18.8379 14.6104C18.8939 14.504 18.9197 14.3942 18.9141 14.2822C18.9084 14.1647 18.8741 14.058 18.8125 13.9629C18.751 13.868 18.6699 13.8041 18.5693 13.7705C18.4685 13.7313 18.3534 13.7421 18.2246 13.8037C18.1296 13.8484 18.0345 13.8819 17.9395 13.9043C17.8443 13.9211 17.7517 13.9297 17.6621 13.9297C17.3654 13.9297 17.136 13.8371 16.9736 13.6523C16.8112 13.4675 16.7295 13.2125 16.7295 12.8877C16.7295 12.7255 16.7489 12.5799 16.7881 12.4512C16.8329 12.3224 16.8952 12.2158 16.9736 12.1318C17.052 12.0424 17.147 11.9754 17.2588 11.9307C17.3764 11.8859 17.5109 11.8633 17.6621 11.8633C17.7517 11.8633 17.8443 11.8741 17.9395 11.8965C18.0401 11.9133 18.1351 11.9445 18.2246 11.9893C18.3534 12.0509 18.4685 12.0648 18.5693 12.0312C18.6757 11.9976 18.7565 11.9331 18.8125 11.8379C18.8741 11.7427 18.9085 11.6361 18.9141 11.5186C18.9252 11.4012 18.9025 11.292 18.8467 11.1914C18.7963 11.085 18.7037 11.0065 18.5693 10.9561C18.3789 10.8721 18.1938 10.8161 18.0146 10.7881C17.8355 10.7545 17.6643 10.7373 17.502 10.7373Z" fill="black"/>
</svg>
