<svg width="24" height="24" viewBox="0 0 24 24" fill="none" xmlns="http://www.w3.org/2000/svg">
<path fill-rule="evenodd" clip-rule="evenodd" d="M19.5 3C19.8978 3 20.2792 3.15815 20.5605 3.43945C20.8419 3.72076 21 4.10218 21 4.5V19.5C21 19.8978 20.8418 20.2792 20.5605 20.5605C20.2792 20.8419 19.8978 21 19.5 21H4.5C4.10218 21 3.72076 20.8419 3.43945 20.5605C3.15815 20.2792 3 19.8978 3 19.5V4.5C3 4.10218 3.15815 3.72076 3.43945 3.43945C3.72076 3.15815 4.10218 3 4.5 3H19.5ZM6.75 16.25C6.33579 16.25 6 16.5858 6 17C6 17.4142 6.33579 17.75 6.75 17.75H17.25C17.6642 17.75 18 17.4142 18 17C18 16.5858 17.6642 16.25 17.25 16.25H6.75Z" fill="black"/>
</svg>
