<svg width="24" height="24" viewBox="0 0 24 24" fill="none" xmlns="http://www.w3.org/2000/svg">
<path d="M19.4989 3.00024H4.49901C4.10119 3.00024 3.71966 3.15828 3.43836 3.43958C3.15706 3.72088 2.99902 4.10241 2.99902 4.50023V19.5001C2.99902 19.8979 3.15706 20.2795 3.43836 20.5608C3.71966 20.8421 4.10119 21.0001 4.49901 21.0001H19.4989C19.8967 21.0001 20.2782 20.8421 20.5595 20.5608C20.8409 20.2795 20.9989 19.8979 20.9989 19.5001V4.50023C20.9989 4.10241 20.8409 3.72088 20.5595 3.43958C20.2782 3.15828 19.8967 3.00024 19.4989 3.00024ZM17.0295 15.9695C17.0992 16.0392 17.1545 16.1219 17.1922 16.213C17.2299 16.304 17.2493 16.4016 17.2493 16.5001C17.2493 16.5987 17.2299 16.6963 17.1922 16.7873C17.1545 16.8784 17.0992 16.9611 17.0295 17.0308C16.9599 17.1004 16.8771 17.1557 16.7861 17.1934C16.695 17.2311 16.5975 17.2506 16.4989 17.2506C16.4004 17.2506 16.3028 17.2311 16.2118 17.1934C16.1207 17.1557 16.038 17.1004 15.9683 17.0308L11.999 13.0605L8.02961 17.0308C7.88888 17.1715 7.69801 17.2506 7.49899 17.2506C7.29997 17.2506 7.1091 17.1715 6.96837 17.0308C6.82764 16.89 6.74858 16.6992 6.74858 16.5001C6.74858 16.3011 6.82764 16.1102 6.96837 15.9695L10.9387 12.0002L6.96837 8.03083C6.82764 7.8901 6.74858 7.69923 6.74858 7.50021C6.74858 7.30119 6.82764 7.11032 6.96837 6.96959C7.1091 6.82886 7.29997 6.7498 7.49899 6.7498C7.69801 6.7498 7.88888 6.82886 8.02961 6.96959L11.999 10.9399L15.9683 6.96959C16.109 6.82886 16.2999 6.7498 16.4989 6.7498C16.6979 6.7498 16.8888 6.82886 17.0295 6.96959C17.1703 7.11032 17.2493 7.30119 17.2493 7.50021C17.2493 7.69923 17.1703 7.8901 17.0295 8.03083L13.0593 12.0002L17.0295 15.9695Z" fill="black"/>
</svg>
