<svg width="24" height="24" viewBox="0 0 24 24" fill="none" xmlns="http://www.w3.org/2000/svg">
<path d="M21.9673 6.51699C21.879 6.17138 21.7097 5.85173 21.4735 5.58441C21.2373 5.31708 20.941 5.10975 20.6089 4.97951C17.3952 3.73827 12.2802 3.74952 11.9989 3.74952C11.7177 3.74952 6.60273 3.73827 3.38901 4.97951C3.05691 5.10975 2.76055 5.31708 2.52435 5.58441C2.28816 5.85173 2.11892 6.17138 2.03058 6.51699C1.78777 7.45261 1.49902 9.1626 1.49902 11.9995C1.49902 14.8363 1.78777 16.5463 2.03058 17.4819C2.11879 17.8277 2.28797 18.1475 2.52417 18.415C2.76037 18.6825 3.05681 18.89 3.38901 19.0203C6.46774 20.2081 11.2864 20.2494 11.9371 20.2494H12.0608C12.7114 20.2494 17.533 20.2081 20.6089 19.0203C20.9411 18.89 21.2375 18.6825 21.4737 18.415C21.7099 18.1475 21.8791 17.8277 21.9673 17.4819C22.2101 16.5444 22.4989 14.8363 22.4989 11.9995C22.4989 9.1626 22.2101 7.45261 21.9673 6.51699ZM15.0542 12.6107L11.3043 15.2357C11.1921 15.3143 11.0605 15.3606 10.9239 15.3697C10.7872 15.3789 10.6507 15.3504 10.5291 15.2874C10.4074 15.2244 10.3054 15.1293 10.234 15.0125C10.1626 14.8956 10.1245 14.7614 10.124 14.6244V9.37447C10.124 9.23727 10.1617 9.10271 10.2329 8.98544C10.3041 8.86816 10.4061 8.77267 10.5278 8.70934C10.6495 8.64602 10.7863 8.6173 10.9232 8.62631C11.0601 8.63531 11.1919 8.6817 11.3043 8.76041L15.0542 11.3854C15.1529 11.4546 15.2334 11.5465 15.289 11.6534C15.3446 11.7603 15.3736 11.879 15.3736 11.9995C15.3736 12.1199 15.3446 12.2386 15.289 12.3455C15.2334 12.4524 15.1529 12.5443 15.0542 12.6135V12.6107Z" fill="black"/>
</svg>
