<svg width="24" height="24" viewBox="0 0 24 24" fill="none" xmlns="http://www.w3.org/2000/svg">
<path d="M21.5295 20.4683L16.8364 15.7752C18.1993 14.1406 18.8796 12.0435 18.7357 9.92009C18.5917 7.79672 17.6347 5.81058 16.0637 4.37486C14.4926 2.93914 12.4286 2.16439 10.3008 2.21177C8.17313 2.25915 6.1456 3.12502 4.64004 4.62925C3.13448 6.13348 2.26681 8.16025 2.21755 10.2879C2.16829 12.4156 2.94122 14.4804 4.37555 16.0527C5.80988 17.625 7.79517 18.5837 9.91841 18.7295C12.0417 18.8753 14.1394 18.1969 15.7752 16.8355L20.4683 21.5295C20.5379 21.5992 20.6207 21.6545 20.7117 21.6922C20.8028 21.7299 20.9003 21.7493 20.9989 21.7493C21.0974 21.7493 21.195 21.7299 21.286 21.6922C21.3771 21.6545 21.4598 21.5992 21.5295 21.5295C21.5992 21.4598 21.6545 21.3771 21.6922 21.286C21.7299 21.195 21.7493 21.0974 21.7493 20.9989C21.7493 20.9003 21.7299 20.8028 21.6922 20.7117C21.6545 20.6207 21.5992 20.5379 21.5295 20.4683ZM13.4989 11.249H7.49898C7.30007 11.249 7.10931 11.1699 6.96866 11.0293C6.828 10.8886 6.74899 10.6979 6.74899 10.499C6.74899 10.3 6.828 10.1093 6.96866 9.96863C7.10931 9.82798 7.30007 9.74896 7.49898 9.74896H13.4989C13.6978 9.74896 13.8886 9.82798 14.0293 9.96863C14.1699 10.1093 14.2489 10.3 14.2489 10.499C14.2489 10.6979 14.1699 10.8886 14.0293 11.0293C13.8886 11.1699 13.6978 11.249 13.4989 11.249Z" fill="black"/>
</svg>
