<svg width="24" height="24" viewBox="0 0 24 24" fill="none" xmlns="http://www.w3.org/2000/svg">
<path d="M21.5295 20.4678L16.8364 15.7747C18.1993 14.1401 18.8796 12.043 18.7357 9.9196C18.5917 7.79623 17.6347 5.81009 16.0637 4.37437C14.4926 2.93866 12.4286 2.1639 10.3008 2.21128C8.17313 2.25866 6.1456 3.12453 4.64004 4.62876C3.13448 6.13299 2.26681 8.15977 2.21755 10.2874C2.16829 12.4151 2.94122 14.4799 4.37555 16.0522C5.80988 17.6245 7.79517 18.5832 9.91841 18.729C12.0417 18.8749 14.1394 18.1965 15.7752 16.835L20.4683 21.529C20.5379 21.5987 20.6207 21.654 20.7117 21.6917C20.8028 21.7294 20.9003 21.7488 20.9989 21.7488C21.0974 21.7488 21.195 21.7294 21.286 21.6917C21.3771 21.654 21.4598 21.5987 21.5295 21.529C21.5992 21.4593 21.6545 21.3766 21.6922 21.2856C21.7299 21.1945 21.7493 21.0969 21.7493 20.9984C21.7493 20.8998 21.7299 20.8023 21.6922 20.7112C21.6545 20.6202 21.5992 20.5375 21.5295 20.4678ZM13.4989 11.2485H11.249V13.4984C11.249 13.6974 11.1699 13.8881 11.0293 14.0288C10.8886 14.1694 10.6979 14.2484 10.499 14.2484C10.3 14.2484 10.1093 14.1694 9.96863 14.0288C9.82798 13.8881 9.74896 13.6974 9.74896 13.4984V11.2485H7.49898C7.30007 11.2485 7.10931 11.1694 6.96866 11.0288C6.828 10.8881 6.74899 10.6974 6.74899 10.4985C6.74899 10.2996 6.828 10.1088 6.96866 9.96814C7.10931 9.82749 7.30007 9.74848 7.49898 9.74848H9.74896V7.49849C9.74896 7.29958 9.82798 7.10882 9.96863 6.96817C10.1093 6.82752 10.3 6.7485 10.499 6.7485C10.6979 6.7485 10.8886 6.82752 11.0293 6.96817C11.1699 7.10882 11.249 7.29958 11.249 7.49849V9.74848H13.4989C13.6978 9.74848 13.8886 9.82749 14.0293 9.96814C14.1699 10.1088 14.2489 10.2996 14.2489 10.4985C14.2489 10.6974 14.1699 10.8881 14.0293 11.0288C13.8886 11.1694 13.6978 11.2485 13.4989 11.2485Z" fill="black"/>
</svg>
