<svg width="24" height="24" viewBox="0 0 24 24" fill="none" xmlns="http://www.w3.org/2000/svg">
<path fill-rule="evenodd" clip-rule="evenodd" d="M9.99498 10.4406C9.9909 10.4184 9.98877 10.3956 9.98877 10.3723L9.99498 10.4406ZM10.2973 10.7414C10.2859 10.7394 10.2747 10.7368 10.2637 10.7338L9.98877 10.3723L10.2973 10.7414ZM10.3941 9.99846C10.4093 9.9998 10.4244 10.0021 10.439 10.0051L10.3941 9.99846L10.3638 9.99725C10.374 9.99725 10.3841 9.99766 10.3941 9.99846Z" fill="black"/>
<path fill-rule="evenodd" clip-rule="evenodd" d="M3.74951 16.3185C3.74951 15.9043 4.0853 15.5685 4.49951 15.5685C4.91373 15.5685 5.24951 15.9043 5.24951 16.3185V18.7502H7.68115C8.09531 18.7502 8.43106 19.086 8.43115 19.5002C8.43115 19.9144 8.09537 20.2502 7.68115 20.2502H4.49951C4.0853 20.2502 3.74951 19.9144 3.74951 19.5002V16.3185ZM18.7505 16.3185C18.7505 15.9043 19.0863 15.5686 19.5005 15.5685C19.9147 15.5685 20.2505 15.9043 20.2505 16.3185V19.5002C20.2505 19.9144 19.9147 20.2502 19.5005 20.2502H16.3188C15.9046 20.2502 15.5688 19.9144 15.5688 19.5002C15.5689 19.086 15.9047 18.7502 16.3188 18.7502H18.7505V16.3185ZM9.99498 10.4406C9.9909 10.4184 9.98877 10.3956 9.98877 10.3723L9.99498 10.4406ZM10.439 10.0051L10.3941 9.99846L10.3638 9.99725C10.374 9.99725 10.3841 9.99766 10.3941 9.99846C10.4093 9.9998 10.4244 10.0021 10.439 10.0051ZM3.74951 7.68085V4.49921C3.74951 4.08499 4.0853 3.74921 4.49951 3.74921H7.68115C8.09537 3.74921 8.43115 4.08499 8.43115 4.49921C8.43115 4.91342 8.09537 5.24921 7.68115 5.24921H5.24951V7.68085C5.24951 8.09506 4.91373 8.43085 4.49951 8.43085C4.0853 8.43085 3.74951 8.09506 3.74951 7.68085ZM18.7505 7.68085V5.24921H16.3188C15.9046 5.24921 15.5688 4.91342 15.5688 4.49921C15.5688 4.08499 15.9046 3.74921 16.3188 3.74921H19.5005C19.9147 3.74921 20.2505 4.08499 20.2505 4.49921V7.68085C20.2505 8.09506 19.9147 8.43085 19.5005 8.43085C19.0863 8.43084 18.7505 8.09506 18.7505 7.68085Z" fill="black"/>
<path d="M16.0903 17.258C16.7305 17.258 17.2495 16.739 17.2495 16.0988V7.91718C17.2494 7.27713 16.7304 6.758 16.0903 6.758H7.90869C7.26872 6.75812 6.74963 7.2772 6.74951 7.91718V16.0988C6.74951 16.7389 7.26865 17.2579 7.90869 17.258H16.0903ZM13.4302 10.3703L8.24951 15.551V8.258H15.7495V11.05L15.0698 10.3703C14.9891 10.2895 14.8967 10.2218 14.7964 10.1682L14.6938 10.1193L14.5864 10.0803C14.4775 10.0472 14.3637 10.0305 14.2495 10.0305C14.1355 10.0305 14.0223 10.0473 13.9136 10.0803L13.8062 10.1193C13.7006 10.1631 13.6021 10.2219 13.5142 10.2941L13.4302 10.3703Z" fill="black"/>
<path fill-rule="evenodd" clip-rule="evenodd" d="M10.2973 10.7414C10.2859 10.7394 10.2747 10.7368 10.2637 10.7338C10.2556 10.7315 10.2476 10.729 10.2397 10.7263C10.2583 10.7328 10.2776 10.7379 10.2973 10.7414Z" fill="black"/>
<path fill-rule="evenodd" clip-rule="evenodd" d="M11.4888 10.3723C11.4887 10.9934 10.9848 11.497 10.3638 11.4973C9.78143 11.4973 9.30244 11.0546 9.24463 10.4875L9.23877 10.3723L9.24463 10.257C9.30227 9.68977 9.78131 9.24725 10.3638 9.24725L10.478 9.25311C11.0455 9.31057 11.4888 9.78965 11.4888 10.3723ZM9.99498 10.4406C9.9909 10.4184 9.98877 10.3956 9.98877 10.3723L9.99498 10.4406ZM9.98877 10.3723L10.2637 10.7338C10.2556 10.7315 10.2476 10.729 10.2397 10.7263C10.2583 10.7328 10.2776 10.7379 10.2973 10.7414L9.98877 10.3723ZM10.3941 9.99846C10.3941 9.99846 10.3941 9.99846 10.3941 9.99846C10.3953 9.99855 10.3928 9.99836 10.3941 9.99846Z" fill="black"/>
</svg>
