<?xml version="1.0" encoding="utf-8"?>
<svg width="512" height="512" viewBox="0 0 512 512" xmlns="http://www.w3.org/2000/svg">
<path   d="M192 31.5938C230.794 31.5938 266.34 45.3974 294.031 68.3437L293.812 69L258.031 81.9062C238.754 70.2778 216.157 63.5936 192 63.5936C121.3 63.5936 64 120.894 64 191.594C64.0042 262.29 121.302 319.594 192 319.594C246.854 319.594 293.595 285.076 311.812 236.594C316.073 248.287 319.26 257.092 326.781 277.844C323.433 283.067 319.824 288.122 315.906 292.906L342.594 319.594H365.312L480 434.282L434.688 479.594L320 364.906V342.189L293.313 315.5C265.713 338.099 230.398 351.594 192 351.594C103.603 351.594 32.0041 279.99 32 191.594C32 103.194 103.6 31.5938 192 31.5938ZM386.813 94L480.813 128L386.813 162L352.813 256L318.812 162L224.812 128L318.812 94L352.813 0L386.813 94Z" />
</svg>
