<svg width="24" height="24" viewBox="0 0 24 24" fill="none" xmlns="http://www.w3.org/2000/svg">
<path fill-rule="evenodd" clip-rule="evenodd" d="M10.4297 9.99531L10.3622 9.98925C10.3853 9.98925 10.4078 9.99133 10.4297 9.99531ZM9.9875 10.3667C9.98769 10.3916 9.99024 10.4159 9.99506 10.4394L9.9875 10.3667Z" fill="black"/>
<path fill-rule="evenodd" clip-rule="evenodd" d="M13.7197 18.9707C14.0126 18.6778 14.4873 18.6778 14.7802 18.9707C15.0731 19.2636 15.0731 19.7383 14.7802 20.0312L12.5302 22.2812C12.2373 22.5741 11.7626 22.5741 11.4697 22.2812L9.21967 20.0312C8.92678 19.7383 8.92678 19.2636 9.21967 18.9707C9.51256 18.6778 9.98732 18.6778 10.2802 18.9707L11.9999 20.6904L13.7197 18.9707ZM3.96967 9.21972C4.26256 8.92683 4.73732 8.92683 5.03022 9.21972C5.32311 9.51262 5.32311 9.98738 5.03022 10.2803L3.31049 12L5.03022 13.7197C5.32311 14.0126 5.32311 14.4874 5.03022 14.7803C4.73732 15.0732 4.26256 15.0732 3.96967 14.7803L1.71967 12.5303C1.42678 12.2374 1.42678 11.7626 1.71967 11.4697L3.96967 9.21972ZM18.9697 9.21972C19.2626 8.92683 19.7373 8.92683 20.0302 9.21972L22.2802 11.4697C22.5731 11.7626 22.5731 12.2374 22.2802 12.5303L20.0302 14.7803C19.7373 15.0732 19.2626 15.0732 18.9697 14.7803C18.6768 14.4874 18.6768 14.0126 18.9697 13.7197L20.6894 12L18.9697 10.2803C18.6768 9.98738 18.6768 9.51262 18.9697 9.21972ZM9.98725 10.3643C9.98725 10.5714 10.1551 10.7393 10.3622 10.7393C10.1812 10.7391 10.03 10.6102 9.99506 10.4394L9.98725 10.3643ZM10.3622 9.98925C10.3853 9.98925 10.4078 9.99133 10.4297 9.99531L10.3622 9.98925ZM11.5263 1.66699C11.8209 1.42668 12.2556 1.44414 12.5302 1.71875L14.7802 3.96874C15.0731 4.26164 15.0731 4.7364 14.7802 5.02929C14.4873 5.32219 14.0126 5.32219 13.7197 5.02929L11.9999 3.30957L10.2802 5.02929C9.98732 5.32219 9.51256 5.32219 9.21967 5.02929C8.92678 4.7364 8.92678 4.26164 9.21967 3.96874L11.4697 1.71875L11.5263 1.66699Z" fill="black"/>
<path d="M16.0898 17.25C16.7299 17.25 17.249 16.731 17.249 16.0908V7.90917C17.249 7.26903 16.7299 6.75 16.0898 6.75H7.90815C7.268 6.75 6.74897 7.26903 6.74897 7.90917V16.0908C6.74897 16.731 7.268 17.25 7.90815 17.25H16.0898ZM13.4287 10.3623L8.24897 15.543V8.25H15.749V11.042L15.0693 10.3623L14.9843 10.2861C14.9256 10.2379 14.8628 10.195 14.7958 10.1592L14.6933 10.1103L14.5859 10.0723C14.4769 10.0392 14.3633 10.0225 14.249 10.0225C14.1346 10.0225 14.0211 10.0392 13.9121 10.0723L13.8056 10.1103C13.6649 10.1687 13.5363 10.2545 13.4287 10.3623Z" fill="black"/>
<path fill-rule="evenodd" clip-rule="evenodd" d="M10.3622 11.4893C10.9834 11.4893 11.487 10.9853 11.4872 10.3643C11.4872 9.78174 11.0448 9.30171 10.4775 9.24414L10.3622 9.23925C9.77977 9.23938 9.30057 9.68167 9.24311 10.249L9.23725 10.3643L9.24311 10.4785C9.30057 11.0459 9.77977 11.4891 10.3622 11.4893ZM10.3622 10.7393C10.1551 10.7393 9.98725 10.5714 9.98725 10.3643L9.99506 10.4394C10.03 10.6102 10.1812 10.7391 10.3622 10.7393ZM10.3622 9.98925C10.3853 9.98925 10.4078 9.99133 10.4297 9.99531L10.3622 9.98925ZM10.735 10.3227C10.7169 10.1572 10.5915 10.0246 10.4297 9.99531C10.5872 10.0277 10.7171 10.1602 10.735 10.3227Z" fill="black"/>
</svg>
