<svg viewBox="0 0 24 24" fill="none" xmlns="http://www.w3.org/2000/svg" width="24" height="24">
<path d="M15.835 15.835C16.151 15.518 16.664 15.518 16.981 15.835L22.593 21.447C22.909 21.763 22.909 22.277 22.593 22.593 22.277 22.909 21.763 22.909 21.447 22.593L15.835 16.981C15.518 16.664 15.518 16.151 15.835 15.835Z" fill="black"/>
<path d="M10.68 1.98C15.485 1.98 19.38 5.875 19.38 10.68 19.38 15.485 15.485 19.38 10.68 19.38 5.875 19.38 1.98 15.485 1.98 10.68 1.98 5.875 5.875 1.98 10.68 1.98ZM11.555 7.393C11.414 7.393 11.275 7.425 11.15 7.487L11.029 7.558C10.913 7.639 10.818 7.745 10.75 7.868L10.692 7.995 9.964 9.965 7.994 10.693C7.862 10.742 7.742 10.82 7.646 10.922L7.557 11.031C7.449 11.185 7.392 11.369 7.392 11.557 7.392 11.745 7.449 11.928 7.557 12.083 7.664 12.237 7.817 12.355 7.994 12.42L9.964 13.146 10.692 15.118C10.757 15.294 10.875 15.448 11.029 15.555 11.184 15.663 11.367 15.72 11.555 15.72 11.743 15.72 11.927 15.663 12.081 15.555 12.236 15.448 12.354 15.296 12.419 15.119L13.146 13.147 15.117 12.42C15.293 12.355 15.446 12.237 15.554 12.083 15.661 11.928 15.719 11.745 15.719 11.557 15.719 11.416 15.687 11.277 15.625 11.151L15.554 11.031 15.466 10.922C15.369 10.82 15.25 10.742 15.118 10.693L13.144 9.965 12.419 7.995 12.36 7.868C12.315 7.786 12.258 7.712 12.19 7.647L12.081 7.558 11.961 7.487C11.835 7.425 11.696 7.393 11.555 7.393ZM12.115 10.641C12.176 10.806 12.307 10.936 12.472 10.997L13.99 11.557 12.472 12.117C12.348 12.162 12.244 12.247 12.174 12.356L12.115 12.473 11.555 13.992 10.995 12.473C10.95 12.349 10.865 12.245 10.756 12.175L10.64 12.117 9.119 11.557 10.64 10.997C10.805 10.936 10.934 10.806 10.995 10.641L11.555 9.12 12.115 10.641ZM7.992 6.181C7.66 6.181 7.392 6.45 7.392 6.781V7.393H6.78C6.449 7.393 6.18 7.662 6.18 7.993 6.18 8.324 6.449 8.593 6.78 8.593H7.392V9.205C7.392 9.536 7.66 9.805 7.992 9.805 8.323 9.804 8.591 9.536 8.592 9.205V8.593H9.203C9.535 8.593 9.803 8.324 9.803 7.993 9.803 7.662 9.535 7.393 9.203 7.393H8.592V6.781C8.592 6.45 8.323 6.182 7.992 6.181Z" fill="black"/>
</svg>