<svg width="512" height="512" viewBox="0 0 512 512" fill="none" xmlns="http://www.w3.org/2000/svg">
<path d="M32 128V384H480V128H32ZM416 309.33C411.14 309.33 406.59 310.64 402.67 312.92C398.62 315.26 395.26 318.62 392.92 322.67C390.64 326.59 389.33 331.14 389.33 336H122.67C122.67 331.14 121.36 326.59 119.08 322.67C116.74 318.62 113.38 315.26 109.33 312.92C105.41 310.64 100.86 309.33 96 309.33V202.67C100.86 202.67 105.41 201.36 109.33 199.08C113.38 196.74 116.74 193.38 119.08 189.33C121.36 185.41 122.67 180.86 122.67 176H389.33C389.33 180.86 390.64 185.41 392.92 189.33C395.26 193.38 398.62 196.74 402.67 199.08C406.59 201.36 411.14 202.67 416 202.67V309.33Z" fill="black"/>
<path d="M366.84 208H145.16C140.7 214.84 134.84 220.7 128 225.16V286.84C134.84 291.3 140.7 297.16 145.16 304H366.84C371.3 297.16 377.16 291.3 384 286.84V225.16C377.16 220.7 371.3 214.84 366.84 208ZM256 288C238.33 288 224 273.67 224 256C224 238.33 238.33 224 256 224C273.67 224 288 238.33 288 256C288 273.67 273.67 288 256 288Z" fill="black"/>
</svg>
