<svg width="512" height="512" viewBox="0 0 512 512" fill="none" xmlns="http://www.w3.org/2000/svg">
<path d="M256 288C273.673 288 288 273.673 288 256C288 238.327 273.673 224 256 224C238.327 224 224 238.327 224 256C224 273.673 238.327 288 256 288Z" fill="black"/>
<path d="M448 160V352H64V160H448ZM480 128H32V384H480V128Z" fill="black"/>
<path d="M366.84 208C371.3 214.84 377.16 220.7 384 225.16V286.84C377.16 291.3 371.3 297.16 366.84 304H145.16C140.7 297.16 134.84 291.3 128 286.84V225.16C134.84 220.7 140.7 214.84 145.16 208H366.84ZM389.33 176H122.67C122.67 180.86 121.36 185.41 119.09 189.33C116.75 193.37 113.38 196.74 109.34 199.08C105.41 201.35 100.86 202.66 96.01 202.66V309.33C100.87 309.33 105.42 310.64 109.34 312.91C113.38 315.25 116.75 318.62 119.09 322.66C121.36 326.59 122.67 331.14 122.67 335.99H389.34C389.34 331.13 390.65 326.58 392.92 322.66C395.26 318.62 398.63 315.25 402.67 312.91C406.6 310.64 411.15 309.33 416 309.33V202.66C411.14 202.66 406.59 201.35 402.67 199.08C398.63 196.74 395.26 193.37 392.92 189.33C390.65 185.4 389.33 180.85 389.33 176Z" fill="black"/>
</svg>
