<svg width="512" height="512" viewBox="0 0 512 512" fill="none" xmlns="http://www.w3.org/2000/svg">
<path d="M480 304C480 324.9 466.64 342.68 448 349.27V352C448 422.69 390.69 480 320 480H192C121.31 480 64 422.69 64 352V349.27C45.36 342.68 32 324.9 32 304C32 277.49 53.49 256 80 256H416V96C416 78.35 401.64 64 384 64H368C360.65 64 353.87 66.49 348.47 70.67C369.53 81.14 384 102.87 384 128V160H256V128C256 97.59 277.2 72.14 305.62 65.62C307.8 65.12 310.03 64.73 312.3 64.46C323.29 45.08 344.12 32 368 32H384C419.35 32 448 60.65 448 96V258.73C466.64 265.32 480 283.1 480 304ZM256 196C256 186.66 268 176 268 176C268 176 280 186.66 280 196C280 202.63 274.63 208 268 208C261.37 208 256 202.63 256 196ZM308 196C308 186.66 320 176 320 176C320 176 332 186.66 332 196C332 202.63 326.63 208 320 208C313.37 208 308 202.63 308 196ZM360 196C360 186.66 372 176 372 176C372 176 384 186.66 384 196C384 202.63 378.63 208 372 208C365.37 208 360 202.63 360 196Z" fill="black"/>
</svg>
