<svg width="512" height="512" viewBox="0 0 512 512" fill="none" xmlns="http://www.w3.org/2000/svg">
<path d="M448 224V64C448 46.4 433.6 32 416 32H96C78.4 32 64 46.4 64 64V224C46.4 224 32 238.4 32 256V480H64C64.07 479.88 64.09 452.17 64.09 416H448V480H480V256C480 238.4 465.6 224 448 224ZM416 224H96.08C96.11 171.07 96 64.06 96 64.06L96.06 64H415.94L416 64.06V224Z" fill="black"/>
<path d="M384 128.08V207H128V128C128 110.33 142.33 96 160 96H351.92C369.64 96 384 110.36 384 128.08Z" fill="black"/>
</svg>
