<svg width="512" height="512" viewBox="0 0 512 512" fill="none" xmlns="http://www.w3.org/2000/svg">
<path d="M400 287C427.02 287 449 308.98 449 336C449 363.02 427.02 385 400 385C372.98 385 351 363.02 351 336C351 320.59 358.04 306.38 370.31 297.02L378.41 290.84L388.26 288.41C392.06 287.47 396.01 287 400 287ZM112 287C117.77 287 123.41 287.99 128.76 289.94L138.29 293.41L145.62 300.35C153.03 307.37 158.01 316.29 160 326.15L162 336.01L160.01 345.83C155.41 368.52 135.21 384.99 112 384.99C84.98 384.99 63 363.01 63 335.99C63 308.97 84.98 287 112 287ZM384 96H320V208H200.68L182.21 176H192V144H129.76L128 145.02V176H145.26L174.43 226.53L139.37 260.81C130.83 257.7 121.61 256 112 256C67.82 256 32 291.82 32 336C32 380.18 67.82 416 112 416C150.7 416 182.98 388.52 190.39 352H228.28C228.65 352.64 229.05 353.27 229.46 353.89C229.62 354.13 229.79 354.37 229.96 354.6C230.16 354.89 230.38 355.17 230.6 355.46C230.78 355.7 230.96 355.93 231.15 356.16C231.39 356.45 231.63 356.74 231.88 357.03C232.1 357.28 232.33 357.54 232.57 357.79C232.8 358.04 233.04 358.29 233.28 358.53C233.73 358.99 234.2 359.43 234.68 359.86C235 360.15 235.32 360.42 235.64 360.69C236.14 361.1 236.65 361.5 237.18 361.88C237.6 362.18 238.02 362.48 238.45 362.76C238.88 363.05 239.32 363.32 239.77 363.58C240.31 363.9 240.87 364.21 241.43 364.5L241.59 364.58C241.9 364.73 242.21 364.88 242.53 365.03C243.16 365.33 243.81 365.6 244.45 365.85C245.43 366.23 246.43 366.56 247.45 366.84C248.5 367.13 249.57 367.37 250.65 367.55C250.98 367.61 251.31 367.66 251.64 367.7C251.92 367.74 252.21 367.78 252.5 367.8C253.65 367.94 254.82 368 256 368C273.67 368 288 353.67 288 336C288 335.64 288 335.29 287.98 334.94C287.98 334.71 287.98 334.48 287.95 334.26C287.9 333.2 287.79 332.16 287.63 331.14C287.59 330.87 287.55 330.61 287.5 330.35C287.46 330.08 287.41 329.82 287.35 329.56C287.3 329.3 287.24 329.05 287.18 328.79C286.95 327.76 286.66 326.75 286.32 325.76C286.24 325.51 286.15 325.26 286.06 325.02C285.89 324.53 285.7 324.05 285.49 323.57C285.4 323.35 285.31 323.13 285.21 322.91L336.83 251.54L351.51 272.37C332.36 286.98 320 310.05 320 336C320 380.18 355.82 416 400 416C444.18 416 480 380.18 480 336C480 291.82 444.18 256 400 256C393.4 256 386.98 256.8 380.85 258.31L352 217V128H384V96ZM256.06 303.92L219.15 240H305.68L256.06 303.92ZM190.39 320C187.06 303.55 178.67 288.94 166.93 277.83L190.64 254.61L228.34 319.91L228.29 320H190.39Z" fill="black"/>
</svg>
