<svg width="512" height="512" viewBox="0 0 512 512" fill="none" xmlns="http://www.w3.org/2000/svg">
<path d="M224.12 46.05C225.09 37.94 232.26 32 240.43 32H304.01C400.81 32 480.01 111.2 480.01 208V271.58C480.01 279.74 474.07 286.91 465.96 287.89C456.3 289.05 448.01 281.45 448.01 272.01V208.01C448.01 128.48 383.54 64.01 304.01 64.01H240.01C230.57 64.01 222.97 55.72 224.13 46.06L224.12 46.05ZM176 32H144C135.16 32 128 39.16 128 48C128 56.84 135.16 64 144 64H176C184.84 64 192 56.84 192 48C192 39.16 184.84 32 176 32ZM80 32H48C39.16 32 32 39.16 32 48C32 56.84 39.16 64 48 64H80C88.84 64 96 56.84 96 48C96 39.16 88.84 32 80 32ZM464 416C455.16 416 448 423.16 448 432V464C448 472.84 455.16 480 464 480C472.84 480 480 472.84 480 464V432C480 423.16 472.84 416 464 416ZM464 320C455.16 320 448 327.16 448 336V368C448 376.84 455.16 384 464 384C472.84 384 480 376.84 480 368V336C480 327.16 472.84 320 464 320Z" fill="black"/>
</svg>
