<svg width="512" height="512" viewBox="0 0 512 512" fill="none" xmlns="http://www.w3.org/2000/svg">
<path d="M448 448V160H256V32H64V448H32V480H480V448H448ZM384 320H352V288H384V320ZM351.97 256.24V224.24H383.97V256.24H351.97ZM288 288H320V320H288V288ZM287.97 256.24V224.24H319.97V256.24H287.97ZM112 96H144V128H112V96ZM112 160H144V192H112V160ZM112 224H144V256H112V224ZM112 288H144V320H112V288ZM192 448H128V352H192V448ZM208 320H176V288H208V320ZM208 256H176V224H208V256ZM208 192H176V160H208V192ZM208 128H176V96H208V128ZM288 448V352H384V448H288Z" fill="black"/>
</svg>
