<svg width="512" height="512" viewBox="0 0 512 512" fill="none" xmlns="http://www.w3.org/2000/svg">
<path d="M423.5 240C423.32 240 423.14 240.01 422.96 240.02L423.5 240Z" fill="black"/>
<path d="M423.5 240C423.32 240 423.14 240.01 422.96 240.02L423.5 240Z" fill="black"/>
<path d="M479.16 221.81L450.21 163.92C448.86 161.21 446.09 159.5 443.06 159.5H40C35.58 159.5 32 163.08 32 167.5V311.5C32 315.92 35.58 319.5 40 319.5H98.73C105.32 338.14 123.1 351.5 144 351.5C164.9 351.5 182.68 338.14 189.27 319.5H322.02C322.13 319.83 322.24 320.17 322.36 320.5C328.95 339.14 346.73 352.5 367.63 352.5C388.53 352.5 406.31 339.14 412.9 320.5C413.02 320.17 413.13 319.83 413.24 319.5H472C476.42 319.5 480 315.92 480 311.5V225.39C480 224.15 479.71 222.92 479.16 221.81ZM96 223.5H64V191.5H96V223.5ZM144 319.5C135.18 319.5 128 312.32 128 303.5C128 294.68 135.18 287.5 144 287.5C152.82 287.5 160 294.68 160 303.5C160 312.32 152.82 319.5 144 319.5ZM160 223.5H128V191.5H160V223.5ZM320 191.76H352V255.76H320V191.76ZM224 223.5H192V191.5H224V223.5ZM288 223.5H256V191.5H288V223.5ZM373.2 319.5C371.46 320.15 369.59 320.5 367.63 320.5C365.67 320.5 363.8 320.15 362.06 319.5C355.98 317.23 351.63 311.36 351.63 304.5C351.63 295.68 358.81 288.5 367.63 288.5C376.45 288.5 383.63 295.68 383.63 304.5C383.63 311.36 379.28 317.23 373.2 319.5ZM384 223.5V191.5H432L448 223.5H384Z" fill="black"/>
</svg>
