<svg width="512" height="512" viewBox="0 0 512 512" fill="none" xmlns="http://www.w3.org/2000/svg">
<path d="M429 208V208.06C428.17 208.02 427.34 208 426.5 208H429Z" fill="black"/>
<path d="M426.5 240C426.32 240 426.14 240.01 425.96 240.02L426.5 240Z" fill="black"/>
<path d="M426 208V208.06C425.17 208.02 424.34 208 423.5 208H426Z" fill="black"/>
<path d="M423.5 240C423.32 240 423.14 240.01 422.96 240.02L423.5 240Z" fill="black"/>
<path d="M475.08 241.41L469.65 231.9C459.86 218.08 444.03 208.84 426 208.06C425.17 208.02 424.34 208 423.5 208H355.25L272 160H144L87.49 192H56C42.75 192 32 202.75 32 216V296C32 309.25 42.75 320 56 320H98.73C105.32 338.64 123.1 352 144 352C164.9 352 182.68 338.64 189.27 320H323.34C329.95 338.62 347.71 351.95 368.59 351.95C389.47 351.95 407.12 338.7 413.78 320.17C413.8 320.11 413.82 320.06 413.84 320H463.7C472.7 320 480 312.7 480 303.7V264.5C480 256.27 478.24 248.46 475.08 241.41ZM144 320C135.18 320 128 312.82 128 304C128 295.18 135.18 288 144 288C152.82 288 160 295.18 160 304C160 312.82 152.82 320 144 320ZM208 224H144V192H208V224ZM304 224.15H240V192H264L319.6 224L304 224.15ZM384.52 305.4C383.79 313.55 376.92 319.95 368.59 319.95C359.76 319.95 352.59 312.78 352.59 303.95C352.59 295.12 359.11 288.62 367.37 288C367.77 287.97 368.18 287.95 368.59 287.95C369 287.95 369.42 287.97 369.82 288C370.66 288.07 371.49 288.2 372.29 288.39C379.34 290.06 384.59 296.41 384.59 303.95C384.59 304.44 384.57 304.92 384.52 305.4Z" fill="black"/>
</svg>
