<svg width="512" height="512" viewBox="0 0 512 512" fill="none" xmlns="http://www.w3.org/2000/svg">
<path d="M208 288.06H64C46.33 288.06 32 273.73 32 256.06V64.06C32 46.39 46.33 32.06 64 32.06H208C225.67 32.06 240 46.39 240 64.06V256.06C240 273.73 225.67 288.06 208 288.06ZM480 160V64C480 46.33 465.67 32 448 32H304C286.33 32 272 46.33 272 64V160C272 177.67 286.33 192 304 192H448C465.67 192 480 177.67 480 160ZM240 448V352C240 334.33 225.67 320 208 320H64C46.33 320 32 334.33 32 352V448C32 465.67 46.33 480 64 480H208C225.67 480 240 465.67 240 448ZM480 448V256C480 238.33 465.67 224 448 224H304C286.33 224 272 238.33 272 256V448C272 465.67 286.33 480 304 480H448C465.67 480 480 465.67 480 448Z" fill="black"/>
</svg>
