<?xml version="1.0" encoding="UTF-8"?><svg id="Layer_2" xmlns="http://www.w3.org/2000/svg" width="425" height="414" viewBox="0 0 425 414"><path id="data_CSV" d="M383.89999,61.6v.3c-.5,33.9-86.30002,61.3-191.89999,61.3S.6,95.8,.1,61.9v-.3C.1,27.6,86,0,192,0s191.89999,27.6,191.89999,61.6Zm0,46.4v.3c-.5,33.90001-86.30002,61.3-191.89999,61.3S.5,142.2,0,108.3v-.3l.1,86.8v.3c.5,33.89999,86.3,61.29999,191.9,61.29999s191.39999-27.39999,192-61.3v-.3l-.10001-86.79999Zm-255.89999,186.10001C53.7,285.70001,.4,263,0,236.29999v-.29999l.1,86.79999v.29999c.4,26.70001,53.7,49.29999,127.9,57.79999v-86.79996Z"/><path d="M320,414v-52.5H157v-35h163v-52.5l105,70-105,70Z"/></svg>