<svg width="512" height="512" viewBox="0 0 512 512" fill="none" xmlns="http://www.w3.org/2000/svg">
<path d="M480 207.99L367.7 111.99V175.99C336.08 175.99 307.49 189.66 287.08 211.25V144.02H351.25L255 32L158.75 144.02H222.92V209.18C202.66 188.79 174.91 175.99 144.3 175.99V111.99L32 207.99L144.3 303.99V239.99C172.18 239.99 198.38 248 221.22 261.16C175.71 275.45 142.7 317.88 142.7 367.99C142.7 429.84 192.98 480 255 480C317.02 480 367.3 429.85 367.3 367.99C367.3 318.35 334.91 276.25 290.07 261.57C313.07 248.17 339.54 239.99 367.71 239.99V303.99L480 207.99ZM271.04 448H238.96V416H271.04V448ZM303.12 335.99C303.12 358.59 291.39 368.94 282.77 376.49C275.2 383.14 271.04 386.84 271.04 399.99H238.96C238.96 372.39 252.55 360.39 261.57 352.49C268.49 346.44 271.04 344.14 271.04 335.99C271.04 327.19 263.82 319.99 255 319.99C246.18 319.99 238.96 327.19 238.96 335.99H206.88C206.88 309.49 228.44 287.99 255.01 287.99C281.58 287.99 303.12 309.49 303.12 335.99Z" fill="black"/>
</svg>
