<svg width="512" height="512" viewBox="0 0 512 512" fill="none" xmlns="http://www.w3.org/2000/svg">
<path d="M200 256C213.255 256 224 238.091 224 216C224 193.909 213.255 176 200 176C186.745 176 176 193.909 176 216C176 238.091 186.745 256 200 256Z" fill="black"/>
<path d="M480 255.96L449.98 203.99V143.97L397.99 113.97L367.97 61.99H307.95L255.96 32L203.99 62.02H143.97L113.97 114.01L61.99 144.03V204.05L32 256.04L62.02 308.01V368.03L114.01 398.03L144.03 450.01H204.05L256.04 480L308.01 449.98H368.03L398.03 397.99L450.01 367.97V307.95L480 255.96ZM160 216C160 185.05 177.9 160 200 160C222.1 160 240 185.05 240 216C240 246.95 222.1 272 200 272C177.9 272 160 246.95 160 216ZM208 352H192L304 160H320L208 352ZM312 352C289.9 352 272 326.95 272 296C272 265.05 289.9 240 312 240C334.1 240 352 265.05 352 296C352 326.95 334.1 352 312 352ZM312 256C300.65 256 288 272.45 288 296C288 319.55 300.65 336 312 336C323.35 336 336 319.55 336 296C336 272.45 323.35 256 312 256Z" fill="black"/>
</svg>
