<svg width="512" height="512" viewBox="0 0 512 512" fill="none" xmlns="http://www.w3.org/2000/svg">
<path d="M256 64C291.29 64 320.01 92.71 320.01 128C320.01 142.13 315.49 155.53 306.95 166.73C298.65 177.61 286.9 185.69 273.84 189.47C268.11 191.14 262.11 191.99 256.01 191.99C249.91 191.99 243.91 191.14 238.15 189.47C225.12 185.69 213.37 177.62 205.07 166.74C196.52 155.53 192.01 142.14 192.01 128.01C192.01 92.72 220.7 64 256 64ZM256.02 32.01C203.02 32.01 160.01 75.01 160.01 128.01C160.01 171.71 189.26 208.61 229.24 220.21C237.73 222.68 246.72 224 256.02 224C265.32 224 274.3 222.68 282.8 220.21C322.78 208.61 352.03 171.71 352.03 128.01C352.03 75.01 309.03 32.01 256.02 32.01Z" fill="black"/>
<path d="M420.72 349.33C403.94 321.38 380.25 298.05 352 281.71C348.83 279.86 345.6 278.11 342.32 276.46C340.24 275.41 338.13 274.4 336 273.43V274.33L320 266.94C314.77 265.09 309.43 263.46 304 262.06C288.66 258.1 272.57 256 256 256C233.56 256 212.02 259.85 192 266.94C190.9 267.33 189.8 267.73 188.7 268.14C188.46 268.23 188.22 268.32 187.98 268.41C187.01 268.78 186.05 269.15 185.09 269.53L185 269.57C183.3 270.25 181.61 270.95 179.93 271.68C179.26 271.97 178.59 272.26 177.92 272.56C174.57 274.04 171.27 275.63 168.03 277.3C167.5 277.57 166.98 277.84 166.46 278.12C165.94 278.4 165.42 278.68 164.9 278.96C163.25 279.85 161.62 280.76 160 281.71C157.29 283.28 154.62 284.91 152 286.61C127.28 302.57 106.45 324.06 91.28 349.33C73.97 378.17 64 411.92 64 448C64 465.7 78.31 480 96 480H416C433.69 480 448 465.7 448 448C448 411.92 438.04 378.17 420.72 349.33ZM96 448C96 418.98 103.86 390.56 118.72 365.8C127.58 351.03 138.89 337.69 152 326.45L160 321.11V340.28C150.44 345.81 144 356.16 144 368C144 385.67 158.33 400 176 400C193.67 400 208 385.67 208 368C208 356.16 201.56 345.81 192 340.28V301.33C193.33 300.74 194.68 300.17 196.02 299.63C198.23 298.73 200.45 297.89 202.62 297.13L202.68 297.1C219.74 291.06 237.68 288 256 288C269.58 288 283.04 289.7 296.01 293.05C298.68 293.74 301.35 294.5 304 295.34V322.73C297.18 325.14 291.07 329.05 286.06 334.06C277.37 342.74 272 354.74 272 368V416C272 424.84 279.16 432 288 432C292.42 432 296.42 430.21 299.32 427.32C302.21 424.42 304 420.42 304 416V368C304 359.16 311.16 352 320 352C324.42 352 328.42 353.79 331.32 356.68C334.21 359.58 336 363.58 336 368V416C336 424.84 343.16 432 352 432C356.42 432 360.42 430.21 363.32 427.32C366.21 424.42 368 420.42 368 416V368C368 347.1 354.64 329.32 336 322.73V309.42C359.49 323.01 379.3 342.51 393.29 365.81C408.15 390.55 416 418.97 416 448H96Z" fill="black"/>
</svg>
