<svg width="512" height="512" viewBox="0 0 512 512" fill="none" xmlns="http://www.w3.org/2000/svg">
<path d="M352 128.01C352 171.71 322.75 208.61 282.77 220.21C274.28 222.68 265.29 224 255.99 224C246.69 224 237.71 222.68 229.21 220.21C189.23 208.61 159.98 171.71 159.98 128.01C159.98 75.01 202.98 32 255.98 32C308.98 32 352 75 352 128.01ZM420.71 349.34C403.93 321.39 380.24 298.06 351.99 281.72L335.99 274.34V322.74C354.63 329.33 367.99 347.11 367.99 368.01V416.01C367.99 420.43 366.2 424.43 363.31 427.33C360.41 430.22 356.41 432.01 351.99 432.01C343.15 432.01 335.99 424.85 335.99 416.01V368.01C335.99 363.59 334.2 359.59 331.31 356.69C328.41 353.8 324.41 352.01 319.99 352.01C311.15 352.01 303.99 359.17 303.99 368.01V416.01C303.99 420.43 302.2 424.43 299.31 427.33C296.41 430.22 292.41 432.01 287.99 432.01C279.15 432.01 271.99 424.85 271.99 416.01V368.01C271.99 354.75 277.36 342.75 286.05 334.07C291.06 329.06 297.17 325.15 303.99 322.74V262.07C288.65 258.11 272.56 256.01 255.99 256.01C233.55 256.01 212.01 259.86 191.99 266.95V340.29C201.55 345.82 207.99 356.17 207.99 368.01C207.99 385.68 193.66 400.01 175.99 400.01C158.32 400.01 143.99 385.68 143.99 368.01C143.99 356.17 150.43 345.82 159.99 340.29V281.72C157.62 283.09 155.29 284.51 152.99 285.98C127.83 302 106.64 323.73 91.2702 349.34C73.9602 378.18 63.9902 411.93 63.9902 448.01C63.9902 465.71 78.3002 480.01 95.9902 480.01H415.99C433.68 480.01 447.99 465.71 447.99 448.01C447.99 411.93 438.03 378.18 420.71 349.34Z" fill="black"/>
</svg>
