<svg width="512" height="512" viewBox="0 0 512 512" fill="none" xmlns="http://www.w3.org/2000/svg">
<path d="M209.34 213.19L186.72 190.57L339.62 37.68C342.75 34.56 346.84 33 350.94 33C355.04 33 359.12 34.56 362.25 37.68L475.31 150.73C481.56 156.98 481.56 167.11 475.31 173.36L322.4 326.26L299.79 303.64M231.64 417L299.77 348.87L164.11 213.19H164.09L50.7501 326.52C25.7601 351.5 25.7601 392.02 50.7401 417H231.64ZM199.56 449.07L199.63 449H82.7601L82.8301 449.07H32.0101V481H480.01V449.07H199.55H199.56ZM299.78 302.66L209.35 212.22L209.33 212.24L299.77 302.66H299.78Z" fill="black"/>
</svg>
