<svg width="512" height="512" viewBox="0 0 512 512" fill="none" xmlns="http://www.w3.org/2000/svg">
<path d="M426.45 208C426.27 208 426.09 208.01 425.91 208.02L426.45 208Z" fill="black"/>
<path d="M479.16 206.31L450.21 148.42C448.86 145.71 446.09 144 443.06 144H352C352 182 351 299.58 351 304H320V112H40C35.58 112 32 115.58 32 120V272L128 304H40C35.58 304 32 307.58 32 312V360C32 364.42 35.58 368 40 368H114.73C121.32 386.64 139.1 400 160 400C180.9 400 198.68 386.64 205.27 368H370.73C377.32 386.64 395.1 400 416 400C436.9 400 454.68 386.64 461.27 368H472C476.42 368 480 364.42 480 360V209.89C480 208.65 479.71 207.42 479.16 206.31ZM175.87 354.09C174.96 361.21 169.21 366.96 162.09 367.87C151.64 369.2 142.8 360.36 144.13 349.91C145.04 342.79 150.79 337.04 157.91 336.13C168.36 334.8 177.2 343.64 175.87 354.09ZM431.87 354.09C430.96 361.21 425.21 366.96 418.09 367.87C407.64 369.2 398.8 360.36 400.13 349.91C401.04 342.79 406.79 337.04 413.91 336.13C424.36 334.8 433.2 343.64 431.87 354.09ZM384 208V176H432L448 208H384Z" fill="black"/>
</svg>
