<svg width="512" height="512" viewBox="0 0 512 512" fill="none" xmlns="http://www.w3.org/2000/svg">
<path d="M230.4 384V179.2H154.24L153.6 128H358.4V179.2H281.6V384H230.4ZM336.04 448H125.27C118.68 466.64 100.9 480 80 480C53.49 480 32 458.51 32 432C32 411.1 45.36 393.32 64 386.73V128H32V32H128V64H386.73C393.32 45.36 411.1 32 432 32C458.51 32 480 53.49 480 80C480 100.9 466.64 118.68 448 125.27V255.71H416V125.27C402.36 120.45 391.55 109.64 386.73 96H128V128H96V386.73C109.64 391.55 120.45 402.36 125.27 416H336.04V448ZM416 80C416 88.82 423.18 96 432 96C440.82 96 448 88.82 448 80C448 71.18 440.82 64 432 64C423.18 64 416 71.18 416 80ZM64 96H96V64H64V96ZM96 432C96 423.18 88.82 416 80 416C71.18 416 64 423.18 64 432C64 440.82 71.18 448 80 448C88.82 448 96 440.82 96 432ZM384 256V480L480 368L384 256Z" fill="black"/>
</svg>
