<svg width="512" height="512" viewBox="0 0 512 512" fill="none" xmlns="http://www.w3.org/2000/svg">
<path d="M208 344V128C208 119.163 215.163 112 224 112C232.837 112 240 119.163 240 128V344C240 357.255 250.745 368 264 368C277.255 368 288 357.255 288 344V128C288 92.6538 259.346 64 224 64C188.654 64 160 92.6538 160 128V344C160 401.438 206.562 448 264 448C321.438 448 368 401.438 368 344V128C368 119.163 375.163 112 384 112C392.837 112 400 119.163 400 128V344C400 419.111 339.111 480 264 480C188.889 480 128 419.111 128 344V128C128 74.9807 170.981 32 224 32C277.019 32 320 74.9807 320 128V344C320 374.928 294.928 400 264 400C233.072 400 208 374.928 208 344Z" fill="black"/>
</svg>
