<svg width="512" height="512" viewBox="0 0 512 512" fill="none" xmlns="http://www.w3.org/2000/svg">
<path d="M224 16C247.7 16 268.306 28.9 279.406 48H326.719L306.719 98.7187L191.906 144H128V80H64V464H384V336.093L416 254.875V464C416 481.699 401.699 496 384 496H64C46.3 496 32 481.699 32 464V80C32 62.2998 46.3 48 64 48H168.594C179.694 28.9 200.3 16 224 16ZM224 48C206.3 48 192 62.2998 192 80H256C256 62.2998 241.7 48 224 48ZM368 48L399.674 128.325L480 160L399.674 191.675L368 272L336.325 191.675L256 160L336.325 128.325L368 48Z" fill="black"/>
</svg>
