<svg width="512" height="512" viewBox="0 0 512 512" fill="none" xmlns="http://www.w3.org/2000/svg">
<path d="M480 48C480 57.6 473.6 64 464 64H320V32H464C473.6 32 480 38.4 480 48ZM192 64H48C38.4 64 32 57.6 32 48C32 38.4 38.4 32 48 32H192V64ZM192 448V416C211.2 416 224 403.2 224 384V352C224 300.8 182.4 256 128 256V192H384V256C329.6 252.8 288 297.6 288 352V384C288 403.2 300.8 416 320 416V448H192ZM192 480H320C339.2 480 352 467.2 352 448V416C352 396.8 336 384 320 384V352C320 316.8 348.8 288 384 288C403.2 288 416 275.2 416 256V192C416 172.8 403.2 160 384 160H272V48C272 38.4 265.6 32 256 32C246.4 32 240 38.4 240 48V160H128C112 160 96 172.8 96 192V256C96 275.2 112 288 128 288C163.2 288 192 316.8 192 352V384C172.8 384 160 396.8 160 416V448C160 467.2 176 480 192 480Z" fill="black"/>
</svg>
