<svg width="512" height="512" viewBox="0 0 512 512" fill="none" xmlns="http://www.w3.org/2000/svg">
<path d="M345.35 172.67L368 195.32L224 339.32L144 259.32L166.65 236.67L224 294.07L345.35 172.67Z" fill="black"/>
<path d="M256.48 67.7902L415.94 147.74V147.87L416 147.9V192.05C416 240.04 414.52 293.78 403.54 328.58C402.43 332.1 401.47 335.36 400.54 338.51C398.72 344.68 397.01 350.5 395.45 353.59C384.38 375.46 361.5 396.76 329.29 415.19C300.68 431.56 272 441.67 257.41 446.24C256.98 446.38 256.5 446.53 256 446.68C255.48 446.52 255 446.37 254.55 446.23C240 441.66 211.32 431.56 182.7 415.19C150.49 396.76 127.62 375.46 116.54 353.59C114.98 350.5 113.26 344.68 111.45 338.51C110.52 335.36 109.56 332.1 108.45 328.58C97.47 293.79 95.99 240.04 95.99 192.02V147.87L96.05 147.84V147.74L96.53 147.49L255.51 67.7802L255.99 68.0202L256.48 67.7902ZM256.49 31.9902L255.99 32.2402L255.49 31.9902L64.06 127.98L64 128.04V192.05C64 250.11 66.42 301.7 77.94 338.21C81.61 349.85 84.01 360.16 88 368.04C120.84 432.9 213.01 466.73 244.97 476.76C251.51 478.82 255.53 479.87 256 480C256.47 479.87 260.49 478.82 267.03 476.76C298.99 466.73 391.16 432.9 424 368.04C427.99 360.16 430.39 349.85 434.06 338.21C445.58 301.7 448 250.11 448 192.05V128.04L447.94 128.01L256.49 31.9902ZM64.51 128L64.45 127.98L64.51 127.96V128Z" fill="black"/>
</svg>
