<svg width="512" height="512" viewBox="0 0 512 512" fill="none" xmlns="http://www.w3.org/2000/svg">
<path d="M384 109.45L290.21 118.12L304.19 89.41C300.29 87.57 296.31 85.8 292.29 84.18C281.13 82.04 269.68 80.95 258.06 80.95C228.02 80.95 199.1 88.24 173.42 101.98C158.52 109.95 144.7 120.1 132.38 132.23C98.8098 165.3 80.3198 209.27 80.3198 256.04C80.3198 297.47 94.8298 336.69 121.46 368.1L98.5498 390.67C67.0398 354.49 48.0098 307.45 48.0098 256.04C48.0098 141.75 142.05 49.11 258.06 49.11C265.4 49.11 272.65 49.48 279.79 50.2C279.81 50.2 279.84 50.2 279.87 50.2C281.35 50.35 282.84 50.52 284.3 50.7C284.45 50.72 284.59 50.74 284.74 50.76C296.65 52.24 308.24 54.71 319.44 58.07L332.13 31.99L384 109.45ZM150.45 436.08L179.87 480L192.56 453.92C203.76 457.28 215.35 459.75 227.26 461.23C227.41 461.25 227.55 461.27 227.7 461.29C229.16 461.47 230.65 461.64 232.13 461.79C232.16 461.79 232.19 461.79 232.21 461.79C239.35 462.52 246.6 462.88 253.94 462.88C369.95 462.88 463.99 370.24 463.99 255.95C463.99 204.54 444.95 157.5 413.45 121.32L390.54 143.89C417.17 175.3 431.68 214.53 431.68 255.95C431.68 302.72 413.19 346.69 379.62 379.76C367.3 391.9 353.47 402.05 338.58 410.01C312.9 423.75 283.99 431.04 253.94 431.04C242.32 431.04 230.86 429.95 219.71 427.81C215.69 426.19 211.71 424.42 207.81 422.58L221.79 393.87L128.02 402.52L150.45 436.08Z" fill="black"/>
<path d="M256 319.55C255.9 319.52 255.79 319.5 255.68 319.47L256.19 320.12L256.78 319.35C256.51 319.42 256.25 319.49 256 319.55Z" fill="black"/>
<path d="M308.58 169.17C288.04 143 267.74 124.07 266.89 123.27L256 113.17L245.11 123.27C244.26 124.07 223.96 143 203.42 169.17C174.61 205.86 160 237.95 160 264.53C160 284.61 168.38 313.14 208.31 335.02C219.96 341.4 231.56 345.66 240 348.27V384C240 392.84 247.16 400 256 400C264.84 400 272 392.84 272 384V348.27C280.44 345.66 292.04 341.4 303.69 335.02C343.62 313.14 352 284.61 352 264.53C352 237.95 337.39 205.86 308.58 169.17ZM240 314.44C220.13 306.91 192 291.48 192 264.53C192 257.97 193.49 250.87 196.08 243.51L240 299.49V314.44ZM240 247.59L212.09 212.01C220.48 198.88 230.48 186.08 240 175.01V247.59ZM256.19 320.12L255.68 319.47C255.79 319.5 255.9 319.52 256 319.55C256.25 319.49 256.51 319.42 256.78 319.35L256.19 320.12ZM272 175.08C275.7 179.37 279.56 184.01 283.42 188.92C289.36 196.49 294.61 203.8 299.15 210.8L272 246.47V175.08ZM272 314.45V299.35L315.46 242.25C318.47 250.47 320 257.93 320 264.53C320 291.48 291.85 306.92 272 314.45Z" fill="black"/>
<path d="M256.78 319.35L256.19 320.12L255.68 319.47C255.79 319.5 255.9 319.52 256 319.55C256.25 319.49 256.51 319.42 256.78 319.35Z" fill="black"/>
</svg>
