<svg width="512" height="512" viewBox="0 0 512 512" fill="none" xmlns="http://www.w3.org/2000/svg">
<path d="M426.45 208C426.27 208 426.09 208.01 425.91 208.02L426.45 208Z" fill="black"/>
<path d="M479.16 190.31L450.21 132.42C448.86 129.71 446.09 128 443.06 128H328C323.58 128 320 131.58 320 136V168C320 163.58 316.42 160 312 160H40C35.58 160 32 163.58 32 168V344C32 348.42 35.58 352 40 352H50.73C57.32 370.64 75.1 384 96 384C116.9 384 134.68 370.64 141.27 352H178.73C185.32 370.64 203.1 384 224 384C244.9 384 262.68 370.64 269.27 352H282.81L272 384H368L357.19 352H370.73C377.32 370.64 395.1 384 416 384C436.9 384 454.68 370.64 461.27 352H472C476.42 352 480 348.42 480 344V193.89C480 192.65 479.71 191.42 479.16 190.31ZM111.87 338.09C110.96 345.21 105.21 350.96 98.09 351.87C87.64 353.2 78.8 344.36 80.13 333.91C81.04 326.79 86.79 321.04 93.91 320.13C104.36 318.8 113.2 327.64 111.87 338.09ZM239.87 338.09C238.96 345.21 233.21 350.96 226.09 351.87C215.64 353.2 206.8 344.36 208.13 333.91C209.04 326.79 214.79 321.04 221.91 320.13C232.36 318.8 241.2 327.64 239.87 338.09ZM431.87 338.09C430.96 345.21 425.21 350.96 418.09 351.87C407.64 353.2 398.8 344.36 400.13 333.91C401.04 326.79 406.79 321.04 413.91 320.13C424.36 318.8 433.2 327.64 431.87 338.09ZM384 192V160H432L448 192H384Z" fill="black"/>
</svg>
