<svg width="512" height="512" viewBox="0 0 512 512" fill="none" xmlns="http://www.w3.org/2000/svg">
<path d="M160 95.3H224V128H160V192L32 112L160 32V95.3ZM480 400L352 320V384H288V416.7H352V480L480 400ZM308.75 276.85C310.9 281.65 312 287.15 312 293.4C312 299.65 310.9 305.15 308.75 310.05C306.6 314.95 303.5 319.2 299.45 322.75C295.4 326.3 290.5 329.15 284.75 331.3C279 333.4 272.6 334.8 265.55 335.45C265.55 335.45 264.95 335.5 264 335.6V368H248V335.5C247.85 335.45 247.75 335.45 247.75 335.45C241.6 334.95 235.65 333.7 229.9 331.7C224.15 329.7 219.05 326.8 214.6 323.05C210.15 319.3 206.6 314.5 203.95 308.7C201.3 302.9 200 295.95 200 287.85H222.2C222.2 293.9 223.2 298.9 225.2 302.9C227.2 306.9 229.85 310.05 233.1 312.4C236.35 314.75 240 316.4 243.95 317.3C245.3 317.6 246.65 317.85 248 318.05V262.6C243.45 261.15 239.2 259.5 235.3 257.75C229.25 255 224.1 251.8 219.85 248.1C215.6 244.4 212.35 240.15 210.1 235.3C207.85 230.45 206.75 224.9 206.75 218.55C206.75 212.65 207.75 207.25 209.75 202.4C211.75 197.5 214.6 193.3 218.35 189.7C222.1 186.1 226.6 183.2 231.9 180.95C236.7 178.9 242.05 177.5 248 176.75V144H264V176.2C266.8 176.4 269.3 176.6 269.3 176.6C282.75 178.25 293.25 183.25 300.75 191.65C308.25 200.05 312 211.5 312 226.1H289.85C289.85 221.35 289.25 217 287.95 213C286.7 209 284.8 205.55 282.25 202.65C279.7 199.7 276.6 197.45 272.85 195.8C270.5 194.8 267.25 194.1 264 193.7V247.5C271.5 249.65 278.2 252.05 284.1 254.75C290.1 257.5 295.15 260.65 299.3 264.3C303.45 267.9 306.6 272.1 308.75 276.85ZM247.95 241.85V194.4C247.67 194.48 247.4 194.55 247.12 194.62C246.5 194.78 245.89 194.94 245.3 195.15C241.6 196.35 238.55 198.05 236.15 200.2C233.75 202.4 231.95 205 230.75 208.05C229.55 211.15 228.95 214.5 228.95 218.2C228.95 221.65 229.55 224.7 230.65 227.45C231.75 230.15 233.65 232.7 236.3 234.95C238.95 237.2 242.5 239.35 246.9 241.4C247.25 241.6 247.65 241.75 247.95 241.85ZM287.45 304C289 300.95 289.75 297.45 289.75 293.6C289.75 290.4 289.15 287.45 287.95 284.75C286.75 282.05 284.8 279.55 282.1 277.2C279.45 274.85 275.95 272.7 271.65 270.7C269.35 269.65 266.8 268.6 264 267.6V318.15C266.2 317.85 268.3 317.45 270.25 316.9C274.45 315.75 277.95 314.05 280.85 311.9C283.7 309.7 285.95 307.1 287.45 304Z" fill="black"/>
</svg>
