<svg width="512" height="512" viewBox="0 0 512 512" fill="none" xmlns="http://www.w3.org/2000/svg">
<path d="M284.8 352H272V464C272 473.6 265.6 480 256 480C246.4 480 240 473.6 240 464V352H128C112 352 96 336 96 320V256C96 240 112 224 128 224C137.6 224 144 224 150.4 220.8L284.8 352ZM384 224C348.8 224 320 195.2 320 160V128C336 128 352 112 352 96V64C352 48 336 32 320 32H192C176 32 160 48 160 64V92.8L409.6 342.4C412.8 336 416 329.6 416 323.2V256C416 240 400 224 384 224ZM374.4 352L192 169.6L54.4 32L32 54.4L457.6 480L480 457.6L374.4 352Z" fill="black"/>
</svg>
