<svg width="512" height="512" viewBox="0 0 512 512" fill="none" xmlns="http://www.w3.org/2000/svg">
<path d="M397.72 226.28C420.441 226.28 438.86 207.861 438.86 185.14C438.86 162.419 420.441 144 397.72 144C374.999 144 356.58 162.419 356.58 185.14C356.58 207.861 374.999 226.28 397.72 226.28Z" fill="black"/>
<path d="M397.72 240C382.82 240 368.83 243.97 356.78 250.91C371.2 259.35 384.47 269.62 396.43 281.59C412.38 297.53 425.3 315.8 434.91 336H466.28C473.87 336 480 329.87 480 322.29C480 276.86 443.15 240 397.72 240Z" fill="black"/>
<path d="M114.28 226.28C137.001 226.28 155.42 207.861 155.42 185.14C155.42 162.419 137.001 144 114.28 144C91.559 144 73.14 162.419 73.14 185.14C73.14 207.861 91.559 226.28 114.28 226.28Z" fill="black"/>
<path d="M156.19 251.48C143.91 244.19 129.57 240 114.28 240C68.86 240 32 276.86 32 322.29C32 329.87 38.13 336 45.72 336H79.02C88.64 315.8 101.56 297.53 117.5 281.59C129.2 269.89 142.16 259.81 156.19 251.48Z" fill="black"/>
<path d="M257.04 96C284.76 96 307.32 118.56 307.32 146.29C307.32 157.4 303.77 167.92 297.06 176.72C290.54 185.27 281.31 191.62 271.04 194.6C266.54 195.91 261.84 196.57 257.04 196.57C252.24 196.57 247.54 195.91 243.01 194.59C232.78 191.62 223.55 185.28 217.02 176.72C210.31 167.92 206.76 157.4 206.76 146.29C206.76 118.56 229.31 96 257.04 96ZM257.04 64C211.62 64 174.76 100.86 174.76 146.29C174.76 183.75 199.83 215.38 234.09 225.32C241.37 227.44 249.07 228.57 257.04 228.57C265.01 228.57 272.71 227.44 279.99 225.32C314.25 215.38 339.32 183.75 339.32 146.29C339.32 100.86 302.47 64 257.04 64Z" fill="black"/>
<path d="M257.04 288C278 288 298.04 292.75 316.6 302.11C339.06 313.44 357.8 330.86 370.77 352.47C382.3 371.67 388.73 393.55 389.5 416H124.57C125.34 393.55 131.78 371.67 143.3 352.47C156.03 331.26 174.37 314.04 196.33 302.69C215.2 292.94 235.63 288 257.04 288ZM257.03 256C229.86 256 204.23 262.59 181.64 274.26C154.4 288.34 131.59 309.8 115.86 336C101.02 360.72 92.48 389.65 92.48 420.57C92.48 435.74 104.74 448 119.91 448H394.15C409.32 448 421.58 435.74 421.58 420.57C421.58 389.65 413.04 360.72 398.2 336C382.2 309.35 358.88 287.6 331.01 273.54C308.76 262.32 283.64 256 257.03 256Z" fill="black"/>
</svg>
