<svg width="512" height="512" viewBox="0 0 512 512" fill="none" xmlns="http://www.w3.org/2000/svg">
<path d="M426.45 272C426.27 272 426.09 272.01 425.91 272.02L426.45 272Z" fill="black"/>
<path d="M144.01 336C135.19 336 128.01 328.82 128.01 320C128.01 311.18 135.19 304 144.01 304C152.83 304 160.01 311.18 160.01 320C160.01 328.82 152.83 336 144.01 336ZM384.56 321.4C383.83 329.55 376.96 335.95 368.63 335.95C359.8 335.95 352.63 328.78 352.63 319.95C352.63 311.12 359.15 304.62 367.41 304C367.81 303.97 368.22 303.95 368.63 303.95C369.04 303.95 369.46 303.97 369.86 304C370.7 304.07 371.53 304.2 372.33 304.39C379.38 306.06 384.63 312.41 384.63 319.95C384.63 320.44 384.61 320.92 384.56 321.4ZM224 224V176C231.73 176 229.02 176 229.02 176C236.38 176 244.29 175.35 250 180L294 224H224ZM477.08 271.41C475.58 268.05 473.75 264.87 471.65 261.9C468.3 257.18 464.25 252.99 459.65 249.49C456.35 246.98 452.76 244.83 448.94 243.09L440.85 240.12L333.29 222L265.85 151.19C260.15 146.54 253 144 245.64 144H54C40.75 144 32 153.75 32 167V312C32 325.25 42.75 336 56 336H98.74C105.33 354.64 123.11 368 144.01 368C164.91 368 182.7 354.64 189.29 336H323.37C329.98 354.62 347.75 367.95 368.63 367.95C389.51 367.95 407.16 354.7 413.82 336.17L413.88 336H463.7C464.26 336 464.82 335.97 465.37 335.92C473.58 335.08 480 328.14 480 319.7C480 319.7 480.24 278.46 477.08 271.41Z" fill="black"/>
</svg>
