<svg width="512" height="512" viewBox="0 0 512 512" fill="none" xmlns="http://www.w3.org/2000/svg">
<path d="M416 320C416 337.67 401.67 352 384 352C366.33 352 352 337.67 352 320C352 302.33 366.33 288 384 288C401.67 288 416 302.33 416 320ZM480 192V448C480 465.68 465.67 480 448 480H64C46.33 480 32 465.68 32 448V192C32 174.32 46.33 160 64 160H96V64H230.06L230.14 63.87L249 32L415.14 127.45L396 160H448C465.67 160 480 174.32 480 192ZM210.06 160.19H357.87L369.43 140.16L258.57 76.16L210.06 160.19ZM128 160H176L211.6 96H128V160ZM448 416H384C331.2 416 288 372.8 288 320C288 267.2 331.2 224 384 224H448V192H64V448H448V416ZM448 256H384C367.01 256 350.97 262.69 338.83 274.83C326.69 286.97 320 303.01 320 320C320 336.99 326.69 353.03 338.83 365.17C350.97 377.31 367.01 384 384 384H448V256Z" fill="black"/>
</svg>
