<svg width="512" height="512" viewBox="0 0 512 512" fill="none" xmlns="http://www.w3.org/2000/svg">
<path d="M480 128V448C480 465.67 465.67 480 448 480H64C46.33 480 32 465.67 32 448V128C32 110.33 46.33 96 64 96H165.47C178.64 58.71 214.2 32 256 32C264.36 32 272.46 33.07 280.19 35.07C279.44 35.72 278.71 36.41 278 37.12L250.91 64.21C229.41 65.9 210.87 78.26 200.59 96C195.13 105.42 192 116.35 192 128C192 141.32 196.09 153.7 203.09 163.95C205.03 167.13 207.37 170.13 210.12 172.88C211.92 174.69 213.84 176.33 215.87 177.8C226.86 186.68 240.82 192 256 192C290.3 192 318.39 164.88 319.93 130.95L345.88 105C345.99 104.89 346.21 104.66 346.5 104.35C346.89 103.97 347.25 103.58 347.58 103.19C347.78 102.96 348 102.72 348.23 102.47C350.16 100.38 352.74 97.54 354.11 96H448C465.67 96 480 110.33 480 128Z" fill="black"/>
<path d="M203.09 163.95C205.03 167.13 207.37 170.13 210.12 172.88C211.92 174.69 213.84 176.33 215.87 177.8C210.96 173.86 206.64 169.18 203.09 163.95Z" fill="black"/>
<path d="M323.25 82.37L286.69 118.93C287.55 121.8 288 124.85 288 128C288 145.67 273.67 160 256 160C247.91 160 240.53 157 234.9 152.06C233.15 150.52 231.56 148.79 230.18 146.91C226.29 141.61 224 135.08 224 128C224 110.33 238.33 96 256 96C258.58 96 261.09 96.3 263.49 96.88L300.63 59.74C303.75 56.62 307.85 55.06 311.94 55.06C316.03 55.06 320.13 56.62 323.25 59.74C329.5 65.99 329.5 76.12 323.25 82.37Z" fill="black"/>
<path d="M234.9 152.06C234.14 151.53 233.42 150.93 232.75 150.25C231.72 149.23 230.87 148.11 230.18 146.91C231.56 148.79 233.15 150.52 234.9 152.06Z" fill="black"/>
</svg>
