<svg width="512" height="512" viewBox="0 0 512 512" fill="none" xmlns="http://www.w3.org/2000/svg">
<path d="M448 96H354.11C352.74 97.54 350.16 100.38 348.23 102.47C348 102.72 347.78 102.96 347.58 103.19C347.25 103.58 346.89 103.97 346.5 104.35C346.21 104.66 345.99 104.89 345.88 105L319.93 130.95C318.39 164.88 290.3 192 256 192C240.82 192 226.86 186.68 215.87 177.8C213.84 176.33 211.92 174.69 210.12 172.88C207.37 170.13 205.03 167.13 203.09 163.95C196.09 153.7 192 141.32 192 128C192 116.35 195.13 105.42 200.59 96C210.87 78.26 229.41 65.9 250.91 64.21L278 37.12C278.71 36.41 279.44 35.72 280.19 35.07C272.46 33.07 264.36 32 256 32C214.2 32 178.64 58.71 165.47 96H64C46.33 96 32 110.33 32 128V448C32 465.67 46.33 480 64 480H448C465.67 480 480 465.67 480 448V128C480 110.33 465.67 96 448 96ZM448 448H64V128H160C160 181.02 202.98 224 256 224C309.02 224 352 181.02 352 128H448V448Z" fill="black"/>
<path d="M203.09 163.95C205.03 167.13 207.37 170.13 210.12 172.88C211.92 174.69 213.84 176.33 215.87 177.8C210.96 173.86 206.64 169.18 203.09 163.95Z" fill="black"/>
<path d="M323.25 82.37L286.69 118.93C287.55 121.8 288 124.85 288 128C288 145.67 273.67 160 256 160C247.91 160 240.53 157 234.9 152.06C233.15 150.52 231.56 148.79 230.18 146.91C226.29 141.61 224 135.08 224 128C224 110.33 238.33 96 256 96C258.58 96 261.09 96.3 263.49 96.88L300.63 59.74C303.75 56.62 307.85 55.06 311.94 55.06C316.03 55.06 320.13 56.62 323.25 59.74C329.5 65.99 329.5 76.12 323.25 82.37Z" fill="black"/>
<path d="M234.9 152.06C234.14 151.53 233.42 150.93 232.75 150.25C231.72 149.23 230.87 148.11 230.18 146.91C231.56 148.79 233.15 150.52 234.9 152.06Z" fill="black"/>
</svg>
