<svg width="512" height="512" viewBox="0 0 512 512" fill="none" xmlns="http://www.w3.org/2000/svg">
<path d="M100.686 100.687C106.935 94.4381 117.065 94.4381 123.313 100.687L256.002 233.375L388.687 100.689C394.936 94.4414 405.066 94.4414 411.314 100.689C417.563 106.938 417.563 117.069 411.314 123.317L278.629 256.002L411.313 388.687C417.562 394.935 417.562 405.065 411.313 411.313C405.065 417.562 394.935 417.562 388.686 411.313L256.002 278.629L123.314 411.317C117.066 417.565 106.936 417.565 100.687 411.317C94.4389 405.069 94.4389 394.938 100.687 388.689L233.375 256.002L100.686 123.313C94.4379 117.065 94.4379 106.935 100.686 100.687Z" fill="black"/>
</svg>
