<svg width="24" height="24" viewBox="0 0 24 24" fill="none" xmlns="http://www.w3.org/2000/svg">
<path d="M9 3h13.5v1.5H9V3z m0 7.5h13.5v1.5H9v-1.5z m0 7.5h13.5v1.5H9v-1.5zM3.75 1.5c-1.2422 0-2.25 1.0078-2.25 2.25s1.0078 2.25 2.25 2.25 2.25-1.0078 2.25-2.25-1.0078-2.25-2.25-2.25z m0 7.5c-1.2422 0-2.25 1.0078-2.25 2.25s1.0078 2.25 2.25 2.25 2.25-1.0078 2.25-2.25-1.0078-2.25-2.25-2.25z m0 7.5c-1.2422 0-2.25 1.0078-2.25 2.25s1.0078 2.25 2.25 2.25 2.25-1.0078 2.25-2.25-1.0078-2.25-2.25-2.25z"/>
</svg>
