<svg xmlns="http://www.w3.org/2000/svg" width="24" height="24" fill="currentColor" viewBox="0 0 24 24"><path d="M9.975 4.575A2.025 2.025 0 1 1 12 6.6a2.025 2.025 0 0 1-2.025-2.025m9.113 3.375H4.913c-1.086 0-1.41 1.477-.422 1.932L9.3 12l-1.93 7.335a1.013 1.013 0 0 0 1.835.856L12 15.376l2.794 4.815a1.013 1.013 0 0 0 1.835-.856L14.699 12l4.809-2.118c.986-.456.662-1.932-.422-1.932z" opacity=".2"/><path d="M14.7 4.575a2.7 2.7 0 1 0-2.7 2.7 2.7 2.7 0 0 0 2.7-2.7M12 5.925a1.35 1.35 0 1 1 1.35-1.35A1.35 1.35 0 0 1 12 5.925m8.733 2.676a1.655 1.655 0 0 0-1.645-1.326H4.913a1.688 1.688 0 0 0-.707 3.22l.011.005 4.282 1.886-1.772 6.726a1.69 1.69 0 0 0 3.08 1.395l2.194-3.787 2.194 3.787a1.688 1.688 0 0 0 3.071-1.395l-1.772-6.726 4.282-1.886.011-.005a1.656 1.656 0 0 0 .947-1.894zm-1.502.667-4.803 2.115a.675.675 0 0 0-.381.79l1.93 7.337a.6.6 0 0 0 .041.114.338.338 0 1 1-.612.285q-.014-.028-.029-.053l-2.794-4.818a.675.675 0 0 0-1.168 0l-2.791 4.814-.029.053a.338.338 0 1 1-.612-.285.6.6 0 0 0 .041-.114l1.927-7.337a.675.675 0 0 0-.381-.79L4.767 9.267a.338.338 0 0 1 .143-.642h14.175a.338.338 0 0 1 .146.642z"/></svg>