<svg xmlns="http://www.w3.org/2000/svg" fill="currentColor" viewBox="0 0 24 24" width="24" height="24"><path d="M18.75 3.9H6.6a.675.675 0 0 0-.675.675v14.85a.675.675 0 0 0 .675.675h12.15a.675.675 0 0 0 .675-.675V4.575a.675.675 0 0 0-.675-.675m-6.075 9.45a2.7 2.7 0 1 1 2.7-2.7 2.7 2.7 0 0 1-2.7 2.7" opacity=".2"/><path d="M8.219 15.915a.675.675 0 0 0 .946-.135 4.388 4.388 0 0 1 7.02 0 .675.675 0 1 0 1.08-.81 5.7 5.7 0 0 0-2.312-1.83 3.375 3.375 0 1 0-4.551 0 5.7 5.7 0 0 0-2.317 1.83.675.675 0 0 0 .134.945m2.431-5.265a2.025 2.025 0 1 1 2.025 2.025 2.025 2.025 0 0 1-2.025-2.025m8.1-7.425H6.6a1.35 1.35 0 0 0-1.35 1.35V6.6H3.9a.675.675 0 0 0 0 1.35h1.35v3.375H3.9a.675.675 0 0 0 0 1.35h1.35v3.375H3.9a.675.675 0 0 0 0 1.35h1.35v2.025a1.35 1.35 0 0 0 1.35 1.35h12.15a1.35 1.35 0 0 0 1.35-1.35V4.575a1.35 1.35 0 0 0-1.35-1.35m0 16.2H6.6V4.575h12.15z"/></svg>