<svg xmlns="http://www.w3.org/2000/svg" width="24" height="24" fill="currentColor" viewBox="0 0 24 24"><path d="M18.75 8.794H5.25a1.18 1.18 0 0 0-1.181 1.181v8.1a1.18 1.18 0 0 0 1.181 1.181h13.5a1.18 1.18 0 0 0 1.181-1.181v-8.1a1.18 1.18 0 0 0-1.181-1.181m.169 9.281a.17.17 0 0 1-.169.169H5.25a.17.17 0 0 1-.169-.169v-8.1a.17.17 0 0 1 .169-.169h13.5a.17.17 0 0 1 .169.169zM5.419 6.6a.506.506 0 0 1 .506-.506h12.15a.507.507 0 0 1 0 1.013H5.925a.506.506 0 0 1-.506-.506zm1.35-2.7a.506.506 0 0 1 .506-.506h9.45a.507.507 0 0 1 0 1.013h-9.45a.506.506 0 0 1-.506-.506z"/></svg>