<svg xmlns="http://www.w3.org/2000/svg" width="24" height="24" fill="currentColor" viewBox="0 0 24 24"><path d="M19.425 9.975v8.1a.675.675 0 0 1-.675.675H5.25a.675.675 0 0 1-.675-.675v-8.1A.675.675 0 0 1 5.25 9.3h13.5a.675.675 0 0 1 .675.675" opacity=".2"/><path d="M18.75 8.625H5.25a1.35 1.35 0 0 0-1.35 1.35v8.1a1.35 1.35 0 0 0 1.35 1.35h13.5a1.35 1.35 0 0 0 1.35-1.35v-8.1a1.35 1.35 0 0 0-1.35-1.35m0 9.45H5.25v-8.1h13.5zM5.25 6.6a.675.675 0 0 1 .675-.675h12.15a.675.675 0 0 1 0 1.35H5.925A.675.675 0 0 1 5.25 6.6M6.6 3.9a.675.675 0 0 1 .675-.675h9.45a.675.675 0 0 1 0 1.35h-9.45A.675.675 0 0 1 6.6 3.9"/></svg>