<svg xmlns="http://www.w3.org/2000/svg" width="24" height="24" fill="currentColor" viewBox="0 0 24 24"><path d="M18.075 7.95v8.1a.675.675 0 0 1-.675.675h-3.375a.675.675 0 0 1-.675-.675v-8.1a.675.675 0 0 1 .675-.675H17.4a.675.675 0 0 1 .675.675m-8.1-.675H6.6a.675.675 0 0 0-.675.675v11.475a.675.675 0 0 0 .675.675h3.375a.675.675 0 0 0 .675-.675V7.95a.675.675 0 0 0-.675-.675" opacity=".2"/><path d="M20.1 4.575a.675.675 0 0 1-.675.675H4.575a.675.675 0 0 1 0-1.35h14.85a.675.675 0 0 1 .675.675M18.75 7.95v8.1a1.35 1.35 0 0 1-1.35 1.35h-3.375a1.35 1.35 0 0 1-1.35-1.35v-8.1a1.35 1.35 0 0 1 1.35-1.35H17.4a1.35 1.35 0 0 1 1.35 1.35m-1.35 0h-3.375v8.1H17.4zm-6.075 0v11.475a1.35 1.35 0 0 1-1.35 1.35H6.6a1.35 1.35 0 0 1-1.35-1.35V7.95A1.35 1.35 0 0 1 6.6 6.6h3.375a1.35 1.35 0 0 1 1.35 1.35m-1.35 0H6.6v11.475h3.375z"/></svg>