<svg xmlns="http://www.w3.org/2000/svg" width="24" height="24" fill="currentColor" viewBox="0 0 24 24"><path d="M19.425 6.6v8.775a1.35 1.35 0 0 1-1.35 1.35H5.925a1.35 1.35 0 0 1-1.35-1.35V6.6z" opacity=".2"/><path d="M3.9 6.6a.675.675 0 0 1 .675-.675h14.85a.675.675 0 0 1 0 1.35H4.575A.675.675 0 0 1 3.9 6.6m2.7 2.7a.675.675 0 0 0 0 1.35h10.8a.675.675 0 0 0 0-1.35zm12.825 3.375H4.575a.675.675 0 0 0 0 1.35h14.85a.675.675 0 0 0 0-1.35M17.4 16.05H6.6a.675.675 0 0 0 0 1.35h10.8a.675.675 0 0 0 0-1.35"/></svg>