<svg viewBox="0 0 24 24" fill="none" xmlns="http://www.w3.org/2000/svg" width="24" height="24">
<path d="M19.7625 14.0252V17.4002C19.7625 17.773 19.4602 18.0752 19.0875 18.0752H7.61245C7.23966 18.0752 6.93745 17.773 6.93745 17.4002V14.0252C6.93745 13.6524 7.23966 13.3502 7.61245 13.3502H19.0875C19.4602 13.3502 19.7625 13.6524 19.7625 14.0252Z" fill="black" fill-opacity="0.2"/>
<path d="M4.73755 4.5752C4.73755 4.29905 4.51369 4.0752 4.23755 4.0752C3.96141 4.0752 3.73755 4.29905 3.73755 4.5752V19.4248C3.73755 19.7009 3.96141 19.9248 4.23755 19.9248C4.51369 19.9248 4.73755 19.7009 4.73755 19.4248V4.5752Z" fill="black"/>
<path d="M16.8877 6.6C16.8877 5.9512 16.3617 5.42541 15.7129 5.42519H7.61236C6.96351 5.4253 6.43755 5.95113 6.43755 6.6V9.975C6.43766 10.6238 6.96358 11.1497 7.61236 11.1498H15.7129C16.3616 11.1496 16.8876 10.6237 16.8877 9.975V6.6Z" fill="black"/>
<path d="M19.0877 13.8502C19.1843 13.8503 19.2626 13.9284 19.2626 14.025V17.4C19.2624 17.4965 19.1842 17.5747 19.0877 17.5748H7.61216C7.51575 17.5746 7.43746 17.4964 7.43736 17.4V14.025C7.43736 13.9285 7.51569 13.8504 7.61216 13.8502H19.0877ZM7.61216 12.8502C6.9634 12.8504 6.43736 13.3762 6.43736 14.025V17.4C6.43746 18.0487 6.96347 18.5746 7.61216 18.5748H19.0877C19.7365 18.5747 20.2624 18.0488 20.2626 17.4V14.025C20.2626 13.3761 19.7366 12.8503 19.0877 12.8502H7.61216Z" fill="black"/>
</svg>