<svg xmlns="http://www.w3.org/2000/svg" width="24" height="24" fill="currentColor" viewBox="0 0 24 24"><path d="M5.081 4.575v14.85a.507.507 0 0 1-1.013 0V4.575a.507.507 0 0 1 1.013 0m1.687 5.4V6.6a1.18 1.18 0 0 1 1.181-1.181h8.1A1.18 1.18 0 0 1 17.23 6.6v3.375a1.18 1.18 0 0 1-1.181 1.181h-8.1a1.18 1.18 0 0 1-1.181-1.181m1.013 0a.17.17 0 0 0 .169.169h8.1a.17.17 0 0 0 .169-.169V6.6a.17.17 0 0 0-.169-.169h-8.1a.17.17 0 0 0-.169.169zm12.825 4.05V17.4a1.18 1.18 0 0 1-1.181 1.181H7.95A1.18 1.18 0 0 1 6.769 17.4v-3.375a1.18 1.18 0 0 1 1.181-1.181h11.475a1.18 1.18 0 0 1 1.181 1.181m-1.012 0a.17.17 0 0 0-.169-.169H7.95a.17.17 0 0 0-.169.169V17.4a.17.17 0 0 0 .169.169h11.475a.17.17 0 0 0 .169-.169z"/></svg>