<svg xmlns="http://www.w3.org/2000/svg" width="24" height="24" fill="currentColor" viewBox="0 0 24 24"><path d="M20.775 12a.675.675 0 0 1-.675.675h-1.35v4.05a1.35 1.35 0 0 1-1.35 1.35h-3.375a1.35 1.35 0 0 1-1.35-1.35v-4.05h-1.35v6.075a1.35 1.35 0 0 1-1.35 1.35H6.6a1.35 1.35 0 0 1-1.35-1.35v-6.075H3.9a.675.675 0 0 1 0-1.35h1.35V5.25A1.35 1.35 0 0 1 6.6 3.9h3.375a1.35 1.35 0 0 1 1.35 1.35v6.075h1.35v-4.05a1.35 1.35 0 0 1 1.35-1.35H17.4a1.35 1.35 0 0 1 1.35 1.35v4.05h1.35a.675.675 0 0 1 .675.675"/></svg>