<svg xmlns="http://www.w3.org/2000/svg" width="24" height="24" fill="currentColor" viewBox="0 0 24 24"><path d="M18.75 12.844h-6.244v-1.688h4.219a1.18 1.18 0 0 0 1.181-1.181V6.6a1.18 1.18 0 0 0-1.181-1.181h-4.219V3.9a.507.507 0 0 0-1.013 0v1.519H7.274A1.18 1.18 0 0 0 6.093 6.6v3.375a1.18 1.18 0 0 0 1.181 1.181h4.219v1.688H5.249a1.18 1.18 0 0 0-1.181 1.181V17.4a1.18 1.18 0 0 0 1.181 1.181h6.244V20.1a.507.507 0 0 0 1.013 0v-1.519h6.244a1.18 1.18 0 0 0 1.181-1.181v-3.375a1.18 1.18 0 0 0-1.181-1.181M7.106 9.975V6.6a.17.17 0 0 1 .169-.169h9.45a.17.17 0 0 1 .169.169v3.375a.17.17 0 0 1-.169.169h-9.45a.17.17 0 0 1-.169-.169M18.919 17.4a.17.17 0 0 1-.169.169H5.25a.17.17 0 0 1-.169-.169v-3.375a.17.17 0 0 1 .169-.169h13.5a.17.17 0 0 1 .169.169z"/></svg>