<svg viewBox="0 0 24 24" fill="none" xmlns="http://www.w3.org/2000/svg" width="24" height="24">
<path d="M13.8716 7.4126H15.8706V16.5874H13.8716V7.4126Z" fill="black"/>
<path fill-rule="evenodd" clip-rule="evenodd" d="M3.8999 4.6499C3.90001 4.23578 4.23575 3.8999 4.6499 3.8999H19.3501C19.7642 3.90001 20.1 4.23584 20.1001 4.6499V19.3501C20.1001 19.7642 19.7642 20.1 19.3501 20.1001H4.6499C4.23569 20.1001 3.8999 19.7643 3.8999 19.3501V4.6499ZM5.43213 12.0005C5.43234 12.3731 5.73427 12.6753 6.10693 12.6753H6.7749V15.6128C6.77505 16.1088 7.20896 16.5111 7.74365 16.5112H10.5249C11.0597 16.5112 11.4935 16.1088 11.4937 15.6128V12.6753H12.522V16.7837C12.522 17.4207 13.0383 17.937 13.6753 17.937H16.0669C16.7036 17.9367 17.2202 17.4205 17.2202 16.7837V12.6753H17.8931C18.2656 12.6751 18.5677 12.373 18.5679 12.0005C18.5679 11.6278 18.2657 11.3258 17.8931 11.3257H17.2202V7.21533C17.2198 6.57885 16.7034 6.06232 16.0669 6.06201H13.6753C13.0385 6.06201 12.5224 6.57866 12.522 7.21533V11.3257H11.4937V8.38721C11.4932 7.89146 11.0595 7.48975 10.5249 7.48975H7.74365C7.20917 7.48983 6.77539 7.89151 6.7749 8.38721V11.3257H6.10693C5.73414 11.3257 5.43213 11.6277 5.43213 12.0005Z" fill="black"/>
</svg>