<svg viewBox="0 0 24 24" fill="none" xmlns="http://www.w3.org/2000/svg" width="24" height="24">
<path d="M3.35059 19.5C3.35059 19.8728 3.04857 20.1748 2.67578 20.1748C2.30299 20.1748 2.00098 19.8728 2.00098 19.5L2.00098 4.5C2.00098 4.12721 2.30299 3.8252 2.67578 3.8252C3.04857 3.8252 3.35059 4.12721 3.35059 4.5L3.35059 19.5Z" fill="black"/>
<path d="M21.9988 19.5C21.9988 19.8728 21.6968 20.1748 21.324 20.1748C20.9512 20.1748 20.6492 19.8728 20.6492 19.5V4.5C20.6492 4.12721 20.9512 3.8252 21.324 3.8252C21.6968 3.8252 21.9988 4.12721 21.9988 4.5V19.5Z" fill="black"/>
<path d="M18.2483 6.00391C18.6625 6.00391 18.9983 6.33969 18.9983 6.75391V17.2539C18.9983 17.6681 18.6625 18.0039 18.2483 18.0039H5.74829C5.33408 18.0039 4.99829 17.6681 4.99829 17.2539V6.75391C4.99829 6.33969 5.33408 6.00391 5.74829 6.00391H18.2483ZM7.62329 12.7041C7.33339 12.7042 7.09888 12.9396 7.09888 13.2295V15.6787C7.09888 15.9686 7.33339 16.204 7.62329 16.2041H16.3733C16.6632 16.2041 16.8987 15.9687 16.8987 15.6787V13.2295C16.8987 12.9395 16.6632 12.7041 16.3733 12.7041H7.62329ZM7.62329 7.80371C7.33339 7.80376 7.09888 8.03918 7.09888 8.3291V10.7783C7.09888 11.0682 7.33339 11.3037 7.62329 11.3037H16.3733C16.6632 11.3037 16.8987 11.0683 16.8987 10.7783V8.3291C16.8987 8.03915 16.6632 7.80371 16.3733 7.80371H7.62329Z" fill="black"/>
</svg>