<svg viewBox="0 0 24 24" fill="none" xmlns="http://www.w3.org/2000/svg" width="24" height="24">
<path d="M19.2625 4.5752C19.2625 4.29905 19.4863 4.0752 19.7625 4.0752C20.0386 4.0752 20.2625 4.29905 20.2625 4.5752V19.4248C20.2625 19.7009 20.0386 19.9248 19.7625 19.9248C19.4863 19.9248 19.2625 19.7009 19.2625 19.4248V4.5752Z" fill="black"/>
<path d="M7.1123 6.6001C7.1123 5.95129 7.63835 5.4255 8.28711 5.42529H16.3877C17.0365 5.4254 17.5625 5.95123 17.5625 6.6001V9.9751C17.5624 10.6239 17.0365 11.1498 16.3877 11.1499H8.28711C7.63842 11.1497 7.11241 10.6238 7.1123 9.9751V6.6001Z" fill="black"/>
<path d="M4.91235 13.8506C4.81579 13.8507 4.73755 13.9288 4.73755 14.0254V17.4004C4.73765 17.4969 4.81586 17.5751 4.91235 17.5752H16.3879C16.4843 17.575 16.5626 17.4968 16.5627 17.4004V14.0254C16.5627 13.9289 16.4844 13.8508 16.3879 13.8506H4.91235ZM16.3879 12.8506C17.0367 12.8508 17.5627 13.3766 17.5627 14.0254V17.4004C17.5626 18.0491 17.0366 18.575 16.3879 18.5752H4.91235C4.26357 18.5751 3.73765 18.0492 3.73755 17.4004V14.0254C3.73755 13.3765 4.26351 12.8507 4.91235 12.8506H16.3879Z" fill="black"/>
</svg>