<svg viewBox="0 0 24 24" fill="none" xmlns="http://www.w3.org/2000/svg" width="24" height="24">
<path d="M10.3013 6.90576V14.646H8.30225V6.90576H10.3013Z" fill="black"/>
<path fill-rule="evenodd" clip-rule="evenodd" d="M19.3501 3.8999C19.7642 3.90001 20.1001 4.23575 20.1001 4.6499V19.3501C20.1 19.7642 19.7642 20.1 19.3501 20.1001H4.6499C4.23575 20.1001 3.90001 19.7642 3.8999 19.3501V4.6499C3.8999 4.23569 4.23569 3.8999 4.6499 3.8999H19.3501ZM6.73779 17.0933C6.36511 17.0933 6.06316 17.3954 6.06299 17.7681C6.06299 18.1409 6.365 18.4429 6.73779 18.4429H17.2632C17.6356 18.4424 17.938 18.1406 17.938 17.7681C17.9378 17.3957 17.6355 17.0937 17.2632 17.0933H6.73779ZM13.8374 8.60889C13.3779 8.60908 13.0058 8.98144 13.0054 9.44092V15.1831C13.0057 15.6426 13.3778 16.0149 13.8374 16.0151H16.23C16.6896 16.015 17.0617 15.6427 17.062 15.1831V9.44092C17.0616 8.98142 16.6895 8.60906 16.23 8.60889H13.8374ZM8.10596 5.55615C7.4691 5.55615 6.95289 6.07268 6.95264 6.70947V14.8423C6.95264 15.4793 7.46895 15.9956 8.10596 15.9956H10.4976C11.1344 15.9954 11.6509 15.4792 11.6509 14.8423V6.70947C11.6506 6.0728 11.1342 5.55635 10.4976 5.55615H8.10596Z" fill="black"/>
</svg>