<svg viewBox="0 0 24 24" fill="none" xmlns="http://www.w3.org/2000/svg" width="24" height="24">
<path d="M3.00391 19.4961C3.00391 19.7722 2.78005 19.9961 2.50391 19.9961C2.22776 19.9961 2.00391 19.7722 2.00391 19.4961L2.00391 4.49609C2.00391 4.21995 2.22776 3.99609 2.50391 3.99609C2.78005 3.99609 3.00391 4.21995 3.00391 4.49609L3.00391 19.4961Z" fill="black"/>
<path d="M21.9961 19.4961C21.9961 19.7722 21.7722 19.9961 21.4961 19.9961C21.22 19.9961 20.9961 19.7722 20.9961 19.4961V4.49609C20.9961 4.21995 21.22 3.99609 21.4961 3.99609C21.7722 3.99609 21.9961 4.21995 21.9961 4.49609V19.4961Z" fill="black"/>
<path d="M19 10.25C19 10.6382 18.7051 10.9575 18.3271 10.9961L18.25 11H5.75L5.67285 10.9961C5.32025 10.9601 5.03994 10.6798 5.00391 10.3271L5 10.25V6.75C5 6.33579 5.33579 6 5.75 6H18.25C18.6642 6 19 6.33579 19 6.75V10.25Z" fill="black"/>
<path d="M6 17H18V14H6V17ZM19 17.25C19 17.6382 18.7051 17.9575 18.3271 17.9961L18.25 18H5.75L5.67285 17.9961C5.32025 17.9601 5.03994 17.6798 5.00391 17.3271L5 17.25V13.75C5 13.3358 5.33579 13 5.75 13H18.25C18.6642 13 19 13.3358 19 13.75V17.25Z" fill="black"/>
</svg>