<svg viewBox="0 0 24 24" fill="none" xmlns="http://www.w3.org/2000/svg" width="24" height="24">
<path d="M16.5874 13.8716V15.8706H7.4126V13.8716H16.5874Z" fill="black"/>
<path fill-rule="evenodd" clip-rule="evenodd" d="M19.3501 3.8999C19.7642 3.90001 20.1001 4.23575 20.1001 4.6499V19.3501C20.1 19.7642 19.7642 20.1 19.3501 20.1001H4.6499C4.23575 20.1001 3.90001 19.7642 3.8999 19.3501V4.6499C3.8999 4.23569 4.23569 3.8999 4.6499 3.8999H19.3501ZM11.9995 5.43213C11.6269 5.43234 11.3247 5.73427 11.3247 6.10693V6.7749H8.38721C7.89124 6.77505 7.48885 7.20896 7.48877 7.74365V10.5249C7.48877 11.0597 7.89119 11.4935 8.38721 11.4937H11.3247V12.522H7.21631C6.5793 12.522 6.06299 13.0383 6.06299 13.6753V16.0669C6.0633 16.7036 6.57949 17.2202 7.21631 17.2202H11.3247V17.8931C11.3249 18.2656 11.627 18.5677 11.9995 18.5679C12.3722 18.5679 12.6742 18.2657 12.6743 17.8931V17.2202H16.7847C17.4212 17.2198 17.9377 16.7034 17.938 16.0669V13.6753C17.938 13.0385 17.4213 12.5224 16.7847 12.522H12.6743V11.4937H15.6128C16.1085 11.4932 16.5103 11.0595 16.5103 10.5249V7.74365C16.5102 7.20917 16.1085 6.77539 15.6128 6.7749H12.6743V6.10693C12.6743 5.73414 12.3723 5.43213 11.9995 5.43213Z" fill="black"/>
</svg>