<svg viewBox="0 0 24 24" fill="none" xmlns="http://www.w3.org/2000/svg" width="24" height="24">
<path d="M17.4194 11.2295C17.6956 11.2295 17.9194 11.4533 17.9194 11.7295C17.9194 12.0056 17.6956 12.2295 17.4194 12.2295H6.58057C6.30442 12.2295 6.08057 12.0056 6.08057 11.7295C6.08057 11.4533 6.30442 11.2295 6.58057 11.2295H17.4194Z" fill="black"/>
<path d="M19.4514 14.6167C19.7276 14.6167 19.9514 14.8406 19.9514 15.1167C19.9514 15.3928 19.7276 15.6167 19.4514 15.6167H4.5481C4.27195 15.6167 4.0481 15.3928 4.0481 15.1167C4.0481 14.8406 4.27195 14.6167 4.5481 14.6167H19.4514Z" fill="black"/>
<path d="M17.4194 18.0039C17.6956 18.0039 17.9194 18.2278 17.9194 18.5039C17.9194 18.78 17.6956 19.0039 17.4194 19.0039H6.58057C6.30442 19.0039 6.08057 18.78 6.08057 18.5039C6.08057 18.2278 6.30442 18.0039 6.58057 18.0039H17.4194Z" fill="black"/>
</svg>