<svg viewBox="0 0 24 24" fill="none" xmlns="http://www.w3.org/2000/svg" width="24" height="24">
<path d="M10.3013 17.0942V9.354H8.30225V17.0942H10.3013Z" fill="black"/>
<path fill-rule="evenodd" clip-rule="evenodd" d="M19.3501 20.1001C19.7642 20.1 20.1001 19.7642 20.1001 19.3501V4.6499C20.1 4.23584 19.7642 3.90001 19.3501 3.8999H4.6499C4.23575 3.8999 3.90001 4.23578 3.8999 4.6499V19.3501C3.8999 19.7643 4.23569 20.1001 4.6499 20.1001H19.3501ZM6.73779 6.90674C6.36511 6.90674 6.06316 6.60458 6.06299 6.23193C6.06299 5.85914 6.365 5.55713 6.73779 5.55713H17.2632C17.6356 5.55757 17.938 5.85942 17.938 6.23193C17.9378 6.60431 17.6355 6.9063 17.2632 6.90674H6.73779ZM13.8374 15.3911C13.3779 15.3909 13.0058 15.0186 13.0054 14.5591V8.81689C13.0057 8.35736 13.3778 7.98506 13.8374 7.98486H16.23C16.6896 7.98504 17.0617 8.35734 17.062 8.81689V14.5591C17.0616 15.0186 16.6895 15.3909 16.23 15.3911H13.8374ZM8.10596 18.4438C7.4691 18.4438 6.95289 17.9273 6.95264 17.2905V9.15771C6.95264 8.52071 7.46895 8.00439 8.10596 8.00439H10.4976C11.1344 8.0046 11.6509 8.52084 11.6509 9.15771V17.2905C11.6506 17.9272 11.1342 18.4436 10.4976 18.4438H8.10596Z" fill="black"/>
</svg>