<svg xmlns="http://www.w3.org/2000/svg" width="24" height="24" fill="currentColor" viewBox="0 0 24 24"><path d="M18.75 3.9H5.25A1.35 1.35 0 0 0 3.9 5.25v13.5a1.35 1.35 0 0 0 1.35 1.35h13.5a1.35 1.35 0 0 0 1.35-1.35V5.25a1.35 1.35 0 0 0-1.35-1.35M14.7 16.725H6.6a.675.675 0 0 1 0-1.35h8.1a.675.675 0 0 1 0 1.35m2.7-2.7H6.6a.675.675 0 0 1 0-1.35h10.8a.675.675 0 0 1 0 1.35M5.925 10.65a.675.675 0 0 1 .675-.675h8.1a.675.675 0 0 1 0 1.35H6.6a.675.675 0 0 1-.675-.675M17.4 8.625H6.6a.675.675 0 0 1 0-1.35h10.8a.675.675 0 0 1 0 1.35"/></svg>