<svg viewBox="0 0 24 24" fill="none" xmlns="http://www.w3.org/2000/svg" width="24" height="24">
<path d="M19.3501 3.8999C19.7642 3.90001 20.1001 4.23575 20.1001 4.6499V19.3501C20.1 19.7642 19.7642 20.1 19.3501 20.1001H4.6499C4.23575 20.1001 3.90001 19.7642 3.8999 19.3501V4.6499C3.8999 4.23569 4.23569 3.8999 4.6499 3.8999H19.3501ZM7.60986 16.895C7.23725 16.8952 6.93506 17.1972 6.93506 17.5698C6.93516 17.9424 7.23731 18.2444 7.60986 18.2446H16.3892C16.7619 18.2446 17.0648 17.9425 17.0649 17.5698C17.0649 17.197 16.762 16.895 16.3892 16.895H7.60986ZM5.96436 14.1509C5.5916 14.1509 5.28962 14.4529 5.28955 14.8257C5.28955 15.1985 5.59156 15.5005 5.96436 15.5005H18.0366C18.4091 15.5001 18.7114 15.1983 18.7114 14.8257C18.7114 14.4532 18.4091 14.1512 18.0366 14.1509H5.96436ZM7.60986 11.4067C7.2374 11.407 6.93529 11.7091 6.93506 12.0815C6.93506 12.4542 7.23725 12.7561 7.60986 12.7563H16.3892C16.762 12.7563 17.0649 12.4543 17.0649 12.0815C17.0647 11.7089 16.7618 11.4067 16.3892 11.4067H7.60986Z" fill="black"/>
</svg>