<svg viewBox="0 0 24 24" fill="none" xmlns="http://www.w3.org/2000/svg" width="24" height="24">
<path d="M19.5 20.9961C19.7761 20.9961 20 21.22 20 21.4961C20 21.7722 19.7761 21.9961 19.5 21.9961H4.5C4.22386 21.9961 4 21.7722 4 21.4961C4 21.22 4.22386 20.9961 4.5 20.9961H19.5Z" fill="black"/>
<path d="M19.5 2.00391C19.7761 2.00391 20 2.22776 20 2.50391C20 2.78005 19.7761 3.00391 19.5 3.00391H4.5C4.22386 3.00391 4 2.78005 4 2.50391C4 2.22776 4.22386 2.00391 4.5 2.00391H19.5Z" fill="black"/>
<path d="M11.0039 18.25C11.0039 18.6642 10.6681 19 10.2539 19H6.75391C6.33969 19 6.00391 18.6642 6.00391 18.25V5.75C6.00391 5.33579 6.33969 5 6.75391 5H10.2539C10.6681 5 11.0039 5.33579 11.0039 5.75V18.25Z" fill="black"/>
<path d="M18.0039 18.25C18.0039 18.6642 17.6681 19 17.2539 19H13.7539C13.3397 19 13.0039 18.6642 13.0039 18.25V5.75C13.0039 5.33579 13.3397 5 13.7539 5H17.2539C17.6681 5 18.0039 5.33579 18.0039 5.75V18.25Z" fill="black"/>
<path d="M9.75391 18.499C9.33969 18.499 9.00391 18.1632 9.00391 17.749V6.24976C9.00391 5.83554 9.33969 5.49976 9.75391 5.49976H14.2539C14.6681 5.49976 15.0039 5.83554 15.0039 6.24976V17.749C15.0039 18.1632 14.6681 18.499 14.2539 18.499H9.75391Z" fill="black" fill-opacity="0.2"/>
</svg>