<svg viewBox="0 0 24 24" fill="none" xmlns="http://www.w3.org/2000/svg" width="24" height="24">
<path d="M19.4246 4.7373C19.7007 4.7373 19.9246 4.51345 19.9246 4.2373C19.9246 3.96116 19.7007 3.7373 19.4246 3.7373H4.57495C4.29881 3.7373 4.07495 3.96116 4.07495 4.2373C4.07495 4.51345 4.29881 4.7373 4.57495 4.7373H19.4246Z" fill="black"/>
<path d="M17.3999 16.8877C18.0487 16.8877 18.5745 16.3616 18.5747 15.7129V7.6123C18.5746 6.96346 18.0488 6.4375 17.3999 6.4375H14.0249C13.3761 6.43761 12.8502 6.96352 12.8501 7.6123V15.7129C12.8503 16.3616 13.3762 16.8876 14.0249 16.8877H17.3999Z" fill="black"/>
<path d="M10.1497 19.0879C10.1496 19.1845 10.0714 19.2627 9.97485 19.2627H6.59985C6.50336 19.2626 6.42515 19.1844 6.42505 19.0879V7.6123C6.42526 7.5159 6.50342 7.43761 6.59985 7.4375H9.97485C10.0714 7.4375 10.1494 7.51584 10.1497 7.6123V19.0879ZM11.1497 7.6123C11.1494 6.96355 10.6237 6.4375 9.97485 6.4375H6.59985C5.95114 6.43761 5.42526 6.96361 5.42505 7.6123V19.0879C5.42515 19.7367 5.95107 20.2626 6.59985 20.2627H9.97485C10.6237 20.2627 11.1496 19.7367 11.1497 19.0879V7.6123Z" fill="black"/>
</svg>