<svg xmlns="http://www.w3.org/2000/svg" width="24" height="24" fill="currentColor" viewBox="0 0 24 24"><path d="M20.1 11.494h-1.519V7.275A1.18 1.18 0 0 0 17.4 6.094h-3.375a1.18 1.18 0 0 0-1.181 1.181v4.219h-1.688V5.25a1.18 1.18 0 0 0-1.181-1.181H6.6A1.18 1.18 0 0 0 5.419 5.25v6.244H3.9a.507.507 0 0 0 0 1.013h1.519v6.244A1.18 1.18 0 0 0 6.6 19.932h3.375a1.18 1.18 0 0 0 1.181-1.181v-6.244h1.688v4.219a1.18 1.18 0 0 0 1.181 1.181H17.4a1.18 1.18 0 0 0 1.181-1.181v-4.219H20.1a.507.507 0 0 0 0-1.013m-9.956 7.256a.17.17 0 0 1-.169.169H6.6a.17.17 0 0 1-.169-.169V5.25a.17.17 0 0 1 .169-.169h3.375a.17.17 0 0 1 .169.169zm7.425-2.025a.17.17 0 0 1-.169.169h-3.375a.17.17 0 0 1-.169-.169v-9.45a.17.17 0 0 1 .169-.169H17.4a.17.17 0 0 1 .169.169z"/></svg>