<svg viewBox="0 0 24 24" fill="none" xmlns="http://www.w3.org/2000/svg" width="24" height="24">
<path d="M4.23755 14.0252V17.4002C4.23755 17.773 4.53976 18.0752 4.91255 18.0752H16.3875C16.7603 18.0752 17.0625 17.773 17.0625 17.4002V14.0252C17.0625 13.6524 16.7603 13.3502 16.3875 13.3502H4.91255C4.53976 13.3502 4.23755 13.6524 4.23755 14.0252Z" fill="black" fill-opacity="0.2"/>
<path d="M19.2625 4.5752C19.2625 4.29905 19.4864 4.0752 19.7626 4.0752C20.0387 4.0752 20.2626 4.29905 20.2626 4.5752V19.4248C20.2626 19.7009 20.0387 19.9248 19.7626 19.9248C19.4864 19.9248 19.2625 19.7009 19.2625 19.4248V4.5752Z" fill="black"/>
<path d="M7.11235 6.6C7.11235 5.9512 7.6384 5.42541 8.28716 5.42519H16.3877C17.0366 5.4253 17.5625 5.95113 17.5625 6.6V9.975C17.5624 10.6238 17.0365 11.1497 16.3877 11.1498H8.28716C7.63847 11.1496 7.11246 10.6237 7.11235 9.975V6.6Z" fill="black"/>
<path d="M4.91235 13.8502C4.81579 13.8503 4.73755 13.9284 4.73755 14.025V17.4C4.73765 17.4965 4.81586 17.5747 4.91235 17.5748H16.3879C16.4843 17.5746 16.5626 17.4964 16.5627 17.4V14.025C16.5627 13.9285 16.4844 13.8504 16.3879 13.8502H4.91235ZM16.3879 12.8502C17.0367 12.8504 17.5627 13.3762 17.5627 14.025V17.4C17.5626 18.0487 17.0366 18.5746 16.3879 18.5748H4.91235C4.26357 18.5747 3.73765 18.0488 3.73755 17.4V14.025C3.73755 13.3761 4.26351 12.8503 4.91235 12.8502H16.3879Z" fill="black"/>
</svg>