<svg viewBox="0 0 24 24" fill="none" xmlns="http://www.w3.org/2000/svg" width="24" height="24">
<path d="M7.66016 11.7881H7.67383L8.35059 13.3906H6.98828L7.66016 11.7881Z" fill="black"/>
<path fill-rule="evenodd" clip-rule="evenodd" d="M2 6.75C2 6.33579 2.33579 6 2.75 6H21.25C21.6642 6 22 6.33579 22 6.75V17.25C22 17.6642 21.6642 18 21.25 18H2.75C2.33579 18 2 17.6642 2 17.25V6.75ZM4.3252 8.62109C4.3252 8.99389 4.62721 9.2959 5 9.2959H18.2998C18.6726 9.2959 18.9746 8.99389 18.9746 8.62109C18.9746 8.2483 18.6726 7.94629 18.2998 7.94629H5C4.62721 7.94629 4.3252 8.2483 4.3252 8.62109ZM14.8818 14.7275C14.8818 14.9329 14.9378 15.0943 15.0498 15.2109C15.1664 15.3228 15.3271 15.3788 15.5322 15.3789H17.8779C18.0549 15.3788 18.1899 15.3323 18.2832 15.2393C18.3812 15.1459 18.4307 15.0125 18.4307 14.8398C18.4307 14.6672 18.3812 14.5369 18.2832 14.4482C18.1899 14.355 18.0551 14.3077 17.8779 14.3076H16.1699V11.0879C16.1699 10.8779 16.114 10.7165 16.002 10.6045C15.8946 10.4925 15.7354 10.4365 15.5254 10.4365C15.3203 10.4366 15.1618 10.4927 15.0498 10.6045C14.9378 10.7165 14.8818 10.8779 14.8818 11.0879V14.7275ZM10.7871 14.7275C10.7871 14.9329 10.8431 15.0943 10.9551 15.2109C11.0717 15.3228 11.2324 15.3788 11.4375 15.3789H13.7832C13.9601 15.3788 14.0952 15.3323 14.1885 15.2393C14.2865 15.1459 14.3359 15.0125 14.3359 14.8398C14.3359 14.6672 14.2865 14.5369 14.1885 14.4482C14.0952 14.355 13.9604 14.3077 13.7832 14.3076H12.0752V11.0879C12.0752 10.8779 12.0192 10.7165 11.9072 10.6045C11.7999 10.4925 11.6406 10.4365 11.4307 10.4365C11.2256 10.4366 11.067 10.4927 10.9551 10.6045C10.8431 10.7165 10.7871 10.8779 10.7871 11.0879V14.7275ZM5.13281 15.0635C5.15615 15.1801 5.21743 15.2737 5.31543 15.3438C5.41332 15.4089 5.53428 15.4423 5.67871 15.4424C5.86071 15.4424 5.99629 15.3994 6.08496 15.3154C6.1735 15.2315 6.25986 15.0965 6.34375 14.9102L6.56934 14.3779H8.77051L8.99707 14.9102C9.07627 15.0964 9.1649 15.2314 9.2627 15.3154C9.36536 15.3994 9.5106 15.4424 9.69727 15.4424C9.83714 15.4423 9.9536 15.409 10.0469 15.3438C10.1449 15.2784 10.203 15.1848 10.2217 15.0635C10.2449 14.9422 10.2191 14.8074 10.1445 14.6582L8.40234 10.9062C8.31368 10.7243 8.20825 10.5908 8.08691 10.5068C7.97027 10.4229 7.83245 10.3809 7.67383 10.3809C7.51526 10.3809 7.373 10.4229 7.24707 10.5068C7.12574 10.5908 7.02345 10.7243 6.93945 10.9062L5.19629 14.6582C5.13109 14.8073 5.10962 14.9423 5.13281 15.0635Z" fill="black"/>
</svg>