<svg viewBox="0 0 24 24" fill="none" xmlns="http://www.w3.org/2000/svg" width="24" height="24">
<path d="M21.5 7.20508C21.7761 7.20508 22 7.42894 22 7.70508C22 7.98122 21.7761 8.20508 21.5 8.20508H2.5C2.22386 8.20508 2 7.98122 2 7.70508C2 7.42894 2.22386 7.20508 2.5 7.20508H21.5Z" fill="black"/>
<path d="M17.2617 16.2949C17.0084 16.2949 16.8117 16.2249 16.6717 16.0849C16.5384 15.9449 16.4717 15.7516 16.4717 15.5049V10.0149C16.4717 9.75492 16.5384 9.55826 16.6717 9.42492C16.8051 9.29159 16.9984 9.22492 17.2517 9.22492C17.4984 9.22492 17.6884 9.29159 17.8217 9.42492C17.9551 9.55826 18.0217 9.75492 18.0217 10.0149V14.9849H20.7017C20.9151 14.9849 21.0784 15.0416 21.1917 15.1549C21.3117 15.2683 21.3717 15.4283 21.3717 15.6349C21.3717 15.8483 21.3117 16.0116 21.1917 16.1249C21.0784 16.2383 20.9151 16.2949 20.7017 16.2949H17.2617Z" fill="black"/>
<path d="M11.5293 16.2949C11.276 16.2949 11.0793 16.2249 10.9393 16.0849C10.806 15.9449 10.7393 15.7516 10.7393 15.5049V10.0149C10.7393 9.75492 10.806 9.55826 10.9393 9.42492C11.0726 9.29159 11.266 9.22492 11.5193 9.22492C11.766 9.22492 11.956 9.29159 12.0893 9.42492C12.2226 9.55826 12.2893 9.75492 12.2893 10.0149V14.9849H14.9693C15.1826 14.9849 15.346 15.0416 15.4593 15.1549C15.5793 15.2683 15.6393 15.4283 15.6393 15.6349C15.6393 15.8483 15.5793 16.0116 15.4593 16.1249C15.346 16.2383 15.1826 16.2949 14.9693 16.2949H11.5293Z" fill="black"/>
<path d="M3.41 16.3849C3.22333 16.3849 3.07 16.3416 2.95 16.2549C2.83667 16.1683 2.76333 16.0516 2.73 15.9049C2.70333 15.7583 2.73333 15.5949 2.82 15.4149L5.38 9.80492C5.48667 9.57826 5.61333 9.41492 5.76 9.31492C5.90667 9.20825 6.07667 9.15492 6.27 9.15492C6.46333 9.15492 6.63333 9.20825 6.78 9.31492C6.92667 9.41492 7.05 9.57826 7.15 9.80492L9.73 15.4149C9.81667 15.5949 9.84667 15.7616 9.82 15.9149C9.8 16.0616 9.73333 16.1783 9.62 16.2649C9.50667 16.3449 9.36 16.3849 9.18 16.3849C8.95333 16.3849 8.77667 16.3316 8.65 16.2249C8.53 16.1183 8.42333 15.9516 8.33 15.7249L7.73 14.3349L8.35 14.7649H4.18L4.8 14.3349L4.21 15.7249C4.11 15.9583 4.00333 16.1283 3.89 16.2349C3.78333 16.3349 3.62333 16.3849 3.41 16.3849ZM6.25 10.8949L4.97 13.9449L4.7 13.5549H7.83L7.56 13.9449L6.27 10.8949H6.25Z" fill="black"/>
</svg>