<svg xmlns="http://www.w3.org/2000/svg" width="24" height="24" fill="currentColor" viewBox="0 0 24 24"><path d="M14.025 5.925A2.025 2.025 0 1 1 12 3.9a2.025 2.025 0 0 1 2.025 2.025" opacity=".2"/><path d="M19.425 12.675a.675.675 0 0 0-.675.675c0 2.083-1.162 2.501-3.215 3.061-.959.262-2.035.557-2.86 1.21V12h2.7a.675.675 0 0 0 0-1.35h-2.7V8.541a2.7 2.7 0 1 0-1.35 0v2.109h-2.7a.675.675 0 0 0 0 1.35h2.7v5.621c-.825-.653-1.902-.948-2.86-1.21-2.053-.56-3.215-.978-3.215-3.061a.675.675 0 0 0-1.35 0c0 3.216 2.335 3.853 4.21 4.364 2.053.56 3.215.978 3.215 3.061a.675.675 0 0 0 1.35 0c0-2.083 1.162-2.501 3.215-3.061 1.876-.511 4.21-1.148 4.21-4.364a.675.675 0 0 0-.675-.675m-8.775-6.75A1.35 1.35 0 1 1 12 7.275a1.35 1.35 0 0 1-1.35-1.35"/></svg>