<svg viewBox="0 0 24 24" fill="none" xmlns="http://www.w3.org/2000/svg" width="24" height="24">
<g clip-path="url(#clip0_1013_674)">
<path opacity="0.2" d="M9.27922 4.88569C9.54388 4.64455 9.8935 4.51843 10.2512 4.53506C10.6088 4.5517 10.9452 4.70973 11.1863 4.97439L13.914 7.96813C13.9791 8.03962 14.0588 8.09627 14.1478 8.13426C14.2367 8.17225 14.3327 8.1907 14.4294 8.18834C14.5261 8.18598 14.6211 8.16288 14.7081 8.1206C14.795 8.07832 14.8719 8.01785 14.9335 7.94328L17.4067 4.78589C17.8037 4.42418 18.3281 4.23499 18.8646 4.25995C19.4011 4.2849 19.9057 4.52195 20.2674 4.91894C20.6291 5.31594 20.8183 5.84036 20.7933 6.37684C20.7684 6.91332 20.5313 7.41792 20.1343 7.77963L16.761 9.94909C16.681 10.0035 16.6137 10.0744 16.5635 10.1571C16.5134 10.2397 16.4815 10.3322 16.4702 10.4282C16.4589 10.5243 16.4683 10.6216 16.4979 10.7137C16.5275 10.8058 16.5765 10.8904 16.6416 10.9619L19.3693 13.9556C19.6104 14.2203 19.7365 14.5699 19.7199 14.9276C19.7033 15.2852 19.5452 15.6216 19.2806 15.8627L17.7837 17.2266L7.78235 6.24951L9.27922 4.88569Z" fill="black"/>
<path d="M7.75071 6.95536L3.50008 10.8277L4.64443 12.0838L7.26905 9.69281C7.47318 9.50685 7.78942 9.52158 7.97539 9.72571C8.16135 9.92985 8.14662 10.2461 7.94249 10.4321L5.31788 12.8231L11.3453 19.4394C11.7383 19.8707 12.2866 20.1282 12.8694 20.1553C13.4523 20.1825 14.0222 19.9771 14.4535 19.5841L17.0777 17.1935L7.75071 6.95536ZM8.48995 6.28191L17.8169 16.5201L18.9445 15.4928C19.111 15.341 19.2103 15.1293 19.2208 14.9043C19.2313 14.6792 19.152 14.4592 19.0004 14.2926L16.2724 11.2981C16.1592 11.1737 16.0744 11.0263 16.0229 10.8662C15.9715 10.7059 15.9545 10.5361 15.9742 10.369C15.994 10.202 16.0493 10.0412 16.1365 9.89745C16.2238 9.75361 16.3412 9.62997 16.4803 9.53533L16.491 9.52823L19.8189 7.38954C20.1052 7.1187 20.2767 6.74774 20.2951 6.35337C20.3138 5.94951 20.1712 5.55473 19.899 5.25582C19.6267 4.95697 19.2468 4.77834 18.843 4.75938C18.4499 4.74108 18.0658 4.87642 17.7699 5.13455L15.3276 8.25117L15.3202 8.26188C15.2132 8.39126 15.0781 8.49644 14.9271 8.56986C14.7758 8.64332 14.6106 8.68352 14.4425 8.68762C14.2744 8.69171 14.1073 8.65964 13.9526 8.5936C13.7978 8.52746 13.6585 8.42877 13.5451 8.30433L10.8178 5.31056C10.666 5.14398 10.4543 5.04485 10.2292 5.03429C10.0042 5.02381 9.78418 5.10302 9.61756 5.25466L8.48995 6.28191ZM19.6179 16.2321L18.1206 17.5959L15.1269 20.3234C14.4995 20.8949 13.6707 21.1936 12.8229 21.1541C11.9751 21.1146 11.1776 20.7402 10.6061 20.1128L2.42412 11.1315C2.23816 10.9274 2.25288 10.6111 2.45702 10.4252L7.4368 5.88859L7.45698 5.87021L8.94412 4.51543C9.30669 4.18526 9.78526 4.01205 10.2751 4.03476C10.7652 4.05758 11.2266 4.27441 11.557 4.63712L14.2843 7.63089C14.3012 7.64942 14.3222 7.66466 14.3452 7.67451C14.3682 7.68429 14.3936 7.6889 14.4185 7.68829C14.4435 7.68762 14.4682 7.68111 14.4906 7.67022C14.5125 7.6595 14.5329 7.64526 14.5486 7.6266L17.0139 4.47718C17.031 4.45531 17.0501 4.43496 17.0706 4.41623C17.5657 3.96524 18.2206 3.72942 18.8895 3.76058C19.5582 3.79187 20.1873 4.08747 20.6382 4.58238C21.089 5.07734 21.325 5.7311 21.2939 6.39989C21.2628 7.06883 20.9664 7.69825 20.4714 8.14923C20.4508 8.16793 20.4288 8.18505 20.4054 8.20008L17.0418 10.3634C17.0217 10.3773 17.0044 10.3948 16.9917 10.4156C16.9787 10.437 16.9706 10.4616 16.9676 10.4864C16.9647 10.5113 16.9669 10.5368 16.9745 10.5607C16.9822 10.5844 16.9949 10.6062 17.0117 10.6247L19.7396 13.6191C20.0699 13.9818 20.2424 14.4608 20.2196 14.9508C20.1968 15.4408 19.9805 15.9016 19.6179 16.2321Z" fill="black"/>
</g>
<defs>
<clipPath id="clip0_1013_674">
<rect width="24" height="24" fill="white"/>
</clipPath>
</defs>
</svg>