<svg xmlns="http://www.w3.org/2000/svg" fill="currentColor" viewBox="0 0 24 24" width="24" height="24"><path d="M8.625 9.806h-4.05a.506.506 0 0 1-.506-.506V5.25a.507.507 0 0 1 1.013 0v2.828l1.519-1.519a7.9 7.9 0 0 1 5.569-2.323h.044a7.88 7.88 0 0 1 5.541 2.254.506.506 0 0 1-.707.724 6.92 6.92 0 0 0-9.727.061L5.798 8.794h2.828a.507.507 0 0 1 0 1.013zm10.8 4.388h-4.05a.506.506 0 0 0 0 1.012h2.828l-1.523 1.519a6.88 6.88 0 0 1-4.854 2.025h-.039a6.88 6.88 0 0 1-4.834-1.969.506.506 0 0 0-.707.724 7.88 7.88 0 0 0 5.541 2.258h.044A7.9 7.9 0 0 0 17.4 17.44l1.519-1.523v2.833a.506.506 0 0 0 1.012 0V14.7a.506.506 0 0 0-.506-.506"/></svg>