<svg xmlns="http://www.w3.org/2000/svg" width="24" height="24" fill="currentColor" viewBox="0 0 24 24"><path d="M16.05 5.25v13.5h-8.1V5.25z" opacity=".2"/><path d="M11.128 15.572a.675.675 0 0 1 0 .955l-2.7 2.7a.675.675 0 0 1-.955 0l-2.7-2.7a.675.675 0 0 1 .955-.955l1.547 1.548V5.249a.675.675 0 0 1 1.35 0V17.12l1.547-1.548a.675.675 0 0 1 .955 0zm8.1-8.1-2.7-2.7a.675.675 0 0 0-.955 0l-2.7 2.7a.675.675 0 0 0 .955.955l1.547-1.548V18.75a.675.675 0 0 0 1.35 0V6.879l1.547 1.548a.675.675 0 0 0 .955-.955z"/></svg>