<svg xmlns="http://www.w3.org/2000/svg" fill="currentColor" viewBox="0 0 24 24" width="24" height="24"><path d="M8.625 9.975h-4.05A.675.675 0 0 1 3.9 9.3V5.25a.675.675 0 0 1 1.153-.478L6.6 6.321a8.05 8.05 0 0 1 5.569-2.258h.045a8.05 8.05 0 0 1 5.659 2.306.675.675 0 0 1-.943.965 6.7 6.7 0 0 0-4.716-1.921h-.038a6.7 6.7 0 0 0-4.618 1.861l1.545 1.547a.675.675 0 0 1-.478 1.153zm10.8 4.05h-4.05a.675.675 0 0 0-.478 1.153l1.545 1.547a6.7 6.7 0 0 1-4.617 1.864h-.038a6.7 6.7 0 0 1-4.716-1.921.675.675 0 1 0-.943.965 8.05 8.05 0 0 0 5.659 2.306h.044a8.05 8.05 0 0 0 5.569-2.258l1.549 1.549a.675.675 0 0 0 1.151-.48V14.7a.675.675 0 0 0-.675-.675"/></svg>