<svg xmlns="http://www.w3.org/2000/svg" fill="currentColor" viewBox="0 0 24 24" width="24" height="24"><path d="M19.425 12A7.425 7.425 0 1 1 12 4.575 7.425 7.425 0 0 1 19.425 12" opacity=".2"/><path d="M20.1 5.25V9.3a.675.675 0 0 1-.675.675h-4.05a.675.675 0 0 1 0-1.35h2.421l-1.234-1.234a6.7 6.7 0 0 0-4.736-1.977h-.038a6.7 6.7 0 0 0-4.716 1.921.675.675 0 0 1-.943-.965 8.1 8.1 0 0 1 11.391.067l1.231 1.234V5.25a.675.675 0 0 1 1.35 0zm-3.172 11.415a6.75 6.75 0 0 1-9.49-.056l-1.234-1.234h2.421a.675.675 0 0 0 0-1.35h-4.05a.675.675 0 0 0-.675.675v4.05a.675.675 0 0 0 1.35 0v-2.421l1.234 1.234a8.05 8.05 0 0 0 5.684 2.373h.045a8.05 8.05 0 0 0 5.659-2.306.675.675 0 0 0-.943-.965z"/></svg>