<svg xmlns="http://www.w3.org/2000/svg" fill="currentColor" viewBox="0 0 24 24" width="24" height="24"><path d="M19.931 12a.506.506 0 0 1-.506.506H4.575a.507.507 0 0 1 0-1.013h14.85a.506.506 0 0 1 .506.506zM9.657 5.608l1.836-1.835V9.3a.507.507 0 0 0 1.013 0V3.773l1.836 1.835a.506.506 0 0 0 .716-.716l-2.7-2.7a.506.506 0 0 0-.716 0l-2.7 2.7a.506.506 0 0 0 .715.716m4.684 12.785-1.836 1.835v-5.527a.507.507 0 0 0-1.013 0v5.527l-1.836-1.835a.506.506 0 0 0-.716.715l2.7 2.7a.506.506 0 0 0 .716 0l2.7-2.7a.506.506 0 0 0-.716-.715z"/></svg>