<svg xmlns="http://www.w3.org/2000/svg" fill="currentColor" viewBox="0 0 24 24" width="24" height="24"><path d="M21.45 5.925v12.15a1.35 1.35 0 0 1-1.35 1.35H3.9a1.35 1.35 0 0 1-1.35-1.35V5.925a1.35 1.35 0 0 1 1.35-1.35h16.2a1.35 1.35 0 0 1 1.35 1.35" opacity=".2"/><path d="M12.675 4.575v14.85a.675.675 0 0 1-1.35 0V4.575a.675.675 0 0 1 1.35 0M9.3 11.325H4.179l1.548-1.547a.675.675 0 0 0-.955-.955l-2.7 2.7a.675.675 0 0 0 0 .955l2.7 2.7a.675.675 0 0 0 .955-.955l-1.548-1.547H9.3a.675.675 0 0 0 0-1.35zm12.628.197-2.7-2.7a.675.675 0 0 0-.955.955l1.548 1.547H14.7a.675.675 0 0 0 0 1.35h5.121l-1.548 1.547a.675.675 0 0 0 .955.955l2.7-2.7a.675.675 0 0 0 0-.955z"/></svg>