<svg xmlns="http://www.w3.org/2000/svg" width="24" height="24" fill="currentColor" viewBox="0 0 24 24"><path d="M9.3 12.675H6.6V14.7a.675.675 0 0 1-1.153.478l-2.7-2.7a.675.675 0 0 1 0-.955l2.7-2.7a.675.675 0 0 1 1.153.478v2.025h2.7a.675.675 0 0 1 0 1.35zm0-6.075h2.025v2.7a.675.675 0 0 0 1.35 0V6.6H14.7a.675.675 0 0 0 .478-1.153l-2.7-2.7a.675.675 0 0 0-.955 0l-2.7 2.7A.675.675 0 0 0 9.301 6.6zm11.953 4.922-2.7-2.7A.675.675 0 0 0 17.4 9.3v2.025h-2.7a.675.675 0 0 0 0 1.35h2.7V14.7a.675.675 0 0 0 1.153.478l2.7-2.7a.675.675 0 0 0 0-.955zM14.7 17.4h-2.025v-2.7a.675.675 0 0 0-1.35 0v2.7H9.3a.675.675 0 0 0-.478 1.153l2.7 2.7a.675.675 0 0 0 .955 0l2.7-2.7a.675.675 0 0 0-.478-1.153z"/></svg>