<svg xmlns="http://www.w3.org/2000/svg" fill="currentColor" viewBox="0 0 24 24" width="24" height="24"><path d="M19.425 12A7.425 7.425 0 1 1 12 4.575 7.425 7.425 0 0 1 19.425 12" opacity=".2"/><path d="M8.625 9.975h-4.05A.675.675 0 0 1 3.9 9.3V5.25a.675.675 0 0 1 1.35 0v2.421l1.234-1.234a8.05 8.05 0 0 1 5.684-2.373h.045a8.05 8.05 0 0 1 5.659 2.306.675.675 0 0 1-.943.965 6.7 6.7 0 0 0-4.716-1.921h-.038a6.7 6.7 0 0 0-4.737 1.977L6.204 8.625h2.421a.675.675 0 0 1 0 1.35m10.8 4.05h-4.05a.675.675 0 0 0 0 1.35h2.421l-1.234 1.234a6.7 6.7 0 0 1-4.736 1.977h-.038a6.7 6.7 0 0 1-4.716-1.921.675.675 0 1 0-.943.965 8.05 8.05 0 0 0 5.659 2.306h.044a8.05 8.05 0 0 0 5.684-2.373l1.235-1.234v2.421a.675.675 0 0 0 1.35 0V14.7a.675.675 0 0 0-.675-.675z"/></svg>