<svg xmlns="http://www.w3.org/2000/svg" fill="currentColor" viewBox="0 0 24 24" width="24" height="24"><path d="M22.125 18.75a.675.675 0 0 1-.675.675H2.55a.675.675 0 0 1 0-1.35h18.9a.675.675 0 0 1 .675.675M2.575 9.484a.675.675 0 0 1 .296-.759l8.775-5.4a.68.68 0 0 1 .707 0l8.775 5.4a.675.675 0 0 1-.354 1.25h-2.025v5.4h1.35a.675.675 0 0 1 0 1.35h-16.2a.675.675 0 0 1 0-1.35h1.35v-5.4H3.224a.675.675 0 0 1-.65-.491zM13.35 14.7a.675.675 0 0 0 1.35 0v-4.05a.675.675 0 0 0-1.35 0zm-4.05 0a.675.675 0 0 0 1.35 0v-4.05a.675.675 0 0 0-1.35 0z"/></svg>