<svg viewBox="0 0 24 24" fill="none" xmlns="http://www.w3.org/2000/svg" width="24" height="24">
<path opacity="0.2" d="M20.0999 5.25H3.8999V18.75H20.0999V5.25Z" fill="black"/>
<path d="M19.5999 8.625V5.75H16.7249C16.4488 5.75 16.2249 5.52614 16.2249 5.25C16.2249 4.97386 16.4488 4.75 16.7249 4.75H20.0999C20.376 4.75 20.5999 4.97386 20.5999 5.25V8.625C20.5999 8.90114 20.376 9.125 20.0999 9.125C19.8238 9.125 19.5999 8.90114 19.5999 8.625Z" fill="black"/>
<path d="M3.3999 15.375C3.3999 15.0989 3.62376 14.875 3.8999 14.875C4.17604 14.875 4.3999 15.0989 4.3999 15.375V18.25H7.2749C7.55104 18.25 7.7749 18.4739 7.7749 18.75C7.7749 19.0261 7.55104 19.25 7.2749 19.25H3.8999C3.62376 19.25 3.3999 19.0261 3.3999 18.75V15.375Z" fill="black"/>
<path d="M19.5999 15.375C19.5999 15.0989 19.8238 14.875 20.0999 14.875C20.376 14.875 20.5999 15.0989 20.5999 15.375V18.75C20.5999 19.0261 20.376 19.25 20.0999 19.25H16.7249C16.4488 19.25 16.2249 19.0261 16.2249 18.75C16.2249 18.4739 16.4488 18.25 16.7249 18.25H19.5999V15.375Z" fill="black"/>
<path d="M3.3999 8.625V5.25C3.3999 4.97386 3.62376 4.75 3.8999 4.75H7.2749C7.55104 4.75 7.7749 4.97386 7.7749 5.25C7.7749 5.52614 7.55104 5.75 7.2749 5.75H4.3999V8.625C4.3999 8.90114 4.17604 9.125 3.8999 9.125C3.62376 9.125 3.3999 8.90114 3.3999 8.625Z" fill="black"/>
<path d="M7.4499 15.375V8.625C7.4499 8.34886 7.67376 8.125 7.9499 8.125C8.22604 8.125 8.4499 8.34886 8.4499 8.625V15.375C8.4499 15.6511 8.22604 15.875 7.9499 15.875C7.67376 15.875 7.4499 15.6511 7.4499 15.375Z" fill="black"/>
<path d="M15.5499 15.375V8.625C15.5499 8.34886 15.7738 8.125 16.0499 8.125C16.326 8.125 16.5499 8.34886 16.5499 8.625V15.375C16.5499 15.6511 16.326 15.875 16.0499 15.875C15.7738 15.875 15.5499 15.6511 15.5499 15.375Z" fill="black"/>
<path d="M12.8499 15.375V8.625C12.8499 8.34886 13.0738 8.125 13.3499 8.125C13.626 8.125 13.8499 8.34886 13.8499 8.625V15.375C13.8499 15.6511 13.626 15.875 13.3499 15.875C13.0738 15.875 12.8499 15.6511 12.8499 15.375Z" fill="black"/>
<path d="M10.1499 15.375V8.625C10.1499 8.34886 10.3738 8.125 10.6499 8.125C10.926 8.125 11.1499 8.34886 11.1499 8.625V15.375C11.1499 15.6511 10.926 15.875 10.6499 15.875C10.3738 15.875 10.1499 15.6511 10.1499 15.375Z" fill="black"/>
</svg>