<svg xmlns="http://www.w3.org/2000/svg" width="24" height="24" fill="currentColor" viewBox="0 0 24 24"><path d="M21.45 9.3h-2.025a.675.675 0 0 0-.675-.675h-6.075A.675.675 0 0 0 12 9.3H6.6V5.587a1.013 1.013 0 0 1 1.013-1.013 1.05 1.05 0 0 1 1.026.809.675.675 0 0 0 1.323-.268 2.39 2.39 0 0 0-2.349-1.891 2.363 2.363 0 0 0-2.362 2.362v3.713h-2.7a.675.675 0 0 0-.675.675v3.375a4.73 4.73 0 0 0 4.725 4.725v1.35a.675.675 0 0 0 1.35 0v-1.35h8.1v1.35a.675.675 0 0 0 1.35 0v-1.35a4.73 4.73 0 0 0 4.725-4.725V9.974a.675.675 0 0 0-.675-.675zm-3.375.675v3.375H13.35V9.975z"/></svg>