<svg xmlns="http://www.w3.org/2000/svg" width="24" height="24" fill="currentColor" viewBox="0 0 24 24"><path d="M10.663 11.524a3.038 3.038 0 0 0-1.869-5.43H3.9a.506.506 0 0 0-.506.506v10.8a.506.506 0 0 0 .506.506h5.231a3.375 3.375 0 0 0 1.531-6.382zM4.407 7.106h4.388a2.025 2.025 0 0 1 0 4.05H4.407zm4.725 9.788H4.407v-4.725h4.725a2.363 2.363 0 0 1 0 4.725M14.87 7.95a.506.506 0 0 1 .506-.506h5.4a.507.507 0 0 1 0 1.013h-5.4a.506.506 0 0 1-.506-.506zm3.206 2.194a3.881 3.881 0 1 0 3.105 6.211.506.506 0 0 0-.81-.608 2.869 2.869 0 0 1-5.119-1.215h6.199a.506.506 0 0 0 .506-.506 3.886 3.886 0 0 0-3.881-3.881zm-2.824 3.375a2.869 2.869 0 0 1 5.648 0z"/></svg>