<svg xmlns="http://www.w3.org/2000/svg" width="24" height="24" fill="currentColor" viewBox="0 0 24 24"><path d="M8.963 11.325H6.601V9.3h2.362a1.013 1.013 0 0 1 0 2.025m.337 1.35H6.6v2.7h2.7a1.35 1.35 0 0 0 0-2.7m6.75-1.35a2.025 2.025 0 0 0-1.909 1.35h3.817a2.025 2.025 0 0 0-1.909-1.35zm5.4-5.4v12.15a1.35 1.35 0 0 1-1.35 1.35H3.9a1.35 1.35 0 0 1-1.35-1.35V5.925a1.35 1.35 0 0 1 1.35-1.35h16.2a1.35 1.35 0 0 1 1.35 1.35m-8.1 2.7a.675.675 0 0 0 .675.675h4.05a.675.675 0 0 0 0-1.35h-4.05a.675.675 0 0 0-.675.675m-1.35 5.4a2.7 2.7 0 0 0-1.192-2.238A2.363 2.363 0 0 0 8.963 7.95H5.926a.675.675 0 0 0-.675.675v7.425a.675.675 0 0 0 .675.675h3.375a2.7 2.7 0 0 0 2.7-2.7zm7.425-.675a3.375 3.375 0 1 0-1.142 2.531.676.676 0 0 0-.894-1.013 2.025 2.025 0 0 1-3.248-.844h4.609a.675.675 0 0 0 .675-.675z"/></svg>