<svg xmlns="http://www.w3.org/2000/svg" width="24" height="24" fill="currentColor" viewBox="0 0 24 24"><path d="M18.75 17.4H5.25a.675.675 0 0 1-.58-1.012c.556-.962 1.255-3.391 1.255-6.413a6.075 6.075 0 0 1 12.15 0c0 3.022.7 5.451 1.257 6.412a.675.675 0 0 1-.582 1.013" opacity=".2"/><path d="M19.914 16.045c-.468-.807-1.164-3.089-1.164-6.07a6.75 6.75 0 1 0-13.5 0c0 2.982-.697 5.263-1.165 6.07a1.35 1.35 0 0 0 1.165 2.03h3.443a3.375 3.375 0 0 0 6.613 0h3.443a1.35 1.35 0 0 0 1.164-2.03zM12 19.425a2.025 2.025 0 0 1-1.909-1.35h3.817a2.025 2.025 0 0 1-1.909 1.35zm-6.75-2.7c.65-1.117 1.35-3.706 1.35-6.75a5.4 5.4 0 1 1 10.8 0c0 3.042.699 5.63 1.35 6.75z"/></svg>