<svg xmlns="http://www.w3.org/2000/svg" width="24" height="24" fill="currentColor" viewBox="0 0 24 24"><path d="M21.215 14.017v-.008l-.006-.019a4 4 0 0 0-.195-.447l-3.507-7.972a.7.7 0 0 0-.141-.206 2.7 2.7 0 0 0-3.819 0 .68.68 0 0 0-.197.476V7.95h-2.7V5.841a.68.68 0 0 0-.197-.478 2.7 2.7 0 0 0-3.819 0 .7.7 0 0 0-.141.206l-3.504 7.973a4 4 0 0 0-.195.447l-.006.018v.009a4.05 4.05 0 0 0 7.621 2.743 4 4 0 0 0 .245-1.4v-6.06h2.7v6.061a4 4 0 0 0 .245 1.4 4.05 4.05 0 0 0 7.621-2.743zM9.137 16.295a2.7 2.7 0 0 1-5.079-1.832l.153-.348a2.7 2.7 0 0 1 5.09 1.25v.01a2.7 2.7 0 0 1-.163.923zm9.191 1.617a2.7 2.7 0 0 1-3.628-2.537v-.009a2.7 2.7 0 0 1 5.09-1.247l.153.348a2.7 2.7 0 0 1-1.614 3.445z"/></svg>