<svg xmlns="http://www.w3.org/2000/svg" fill="currentColor" viewBox="0 0 24 24" width="24" height="24"><path d="M20.775 7.444H14.7A3.2 3.2 0 0 0 12 8.925a3.2 3.2 0 0 0-2.7-1.481H3.225a.506.506 0 0 0-.506.506v10.125a.506.506 0 0 0 .506.506H9.3a2.194 2.194 0 0 1 2.194 2.194.507.507 0 0 0 1.013 0 2.194 2.194 0 0 1 2.194-2.194h6.075a.506.506 0 0 0 .506-.506V7.95a.506.506 0 0 0-.506-.506zM9.3 17.569H3.731V8.456H9.3a2.194 2.194 0 0 1 2.194 2.194v7.789a3.2 3.2 0 0 0-2.194-.87m10.969 0H14.7a3.2 3.2 0 0 0-2.194.872v-7.79A2.194 2.194 0 0 1 14.7 8.457h5.569zM8.895 4.946a3.88 3.88 0 0 1 6.21 0 .506.506 0 1 1-.81.608 2.87 2.87 0 0 0-4.59 0 .506.506 0 1 1-.81-.607z"/></svg>