<svg xmlns="http://www.w3.org/2000/svg" fill="currentColor" viewBox="0 0 24 24" width="24" height="24"><path d="M20.775 7.95v10.125H14.7a2.7 2.7 0 0 0-2.7 2.7 2.7 2.7 0 0 0-2.7-2.7H3.225V7.95H9.3a2.7 2.7 0 0 1 2.7 2.7 2.7 2.7 0 0 1 2.7-2.7z" opacity=".2"/><path d="M20.775 7.275H14.7a3.38 3.38 0 0 0-2.7 1.35 3.38 3.38 0 0 0-2.7-1.35H3.225a.675.675 0 0 0-.675.675v10.125a.675.675 0 0 0 .675.675H9.3a2.025 2.025 0 0 1 2.025 2.025.675.675 0 0 0 1.35 0A2.025 2.025 0 0 1 14.7 18.75h6.075a.675.675 0 0 0 .675-.675V7.95a.675.675 0 0 0-.675-.675M9.3 17.4H3.9V8.625h5.4a2.025 2.025 0 0 1 2.025 2.025v7.425A3.36 3.36 0 0 0 9.3 17.4m10.8 0h-5.4a3.36 3.36 0 0 0-2.025.675V10.65A2.025 2.025 0 0 1 14.7 8.625h5.4zM8.76 4.844a4.05 4.05 0 0 1 6.48 0 .675.675 0 0 1-1.079.812 2.7 2.7 0 0 0-4.322 0 .675.675 0 1 1-1.079-.812"/></svg>