<svg xmlns="http://www.w3.org/2000/svg" fill="currentColor" viewBox="0 0 24 24" width="24" height="24"><path d="M20.775 5.25h-5.4a2.7 2.7 0 0 0-2.7 2.7v7.402a.69.69 0 0 1-.63.696.675.675 0 0 1-.72-.675V7.95a2.7 2.7 0 0 0-2.7-2.7h-5.4a.675.675 0 0 0-.675.675v12.15a.675.675 0 0 0 .675.675H9.3a2.025 2.025 0 0 1 2.025 2.02.67.67 0 0 0 .432.637.675.675 0 0 0 .918-.632A2.025 2.025 0 0 1 14.7 18.75h6.075a.675.675 0 0 0 .675-.675V5.925a.675.675 0 0 0-.675-.675M18.75 15.375h-3.352a.69.69 0 0 1-.696-.63.675.675 0 0 1 .675-.72h3.352a.69.69 0 0 1 .696.63.675.675 0 0 1-.675.72m0-2.7h-3.352a.69.69 0 0 1-.696-.63.675.675 0 0 1 .675-.72h3.352a.69.69 0 0 1 .696.63.675.675 0 0 1-.675.72m0-2.7h-3.352a.69.69 0 0 1-.698-.63.675.675 0 0 1 .675-.72h3.352a.69.69 0 0 1 .698.63.675.675 0 0 1-.675.72"/></svg>