<svg viewBox="0 0 24 24" fill="none" xmlns="http://www.w3.org/2000/svg" width="24" height="24">
<rect opacity="0.2" x="4.5752" y="4.5752" width="14.85" height="14.85" fill="black"/>
<path d="M12.5 19.4297C12.5 19.7058 12.2761 19.9297 12 19.9297C11.7239 19.9297 11.5 19.7058 11.5 19.4297L11.5 4.58008C11.5 4.30394 11.7239 4.08008 12 4.08008C12.2761 4.08008 12.5 4.30394 12.5 4.58008L12.5 19.4297Z" fill="black"/>
<path d="M19.4253 12.5C19.1492 12.5 18.9253 12.2761 18.9253 12C18.9253 11.7239 19.1492 11.5 19.4253 11.5H19.4302C19.7063 11.5 19.9302 11.7239 19.9302 12C19.9302 12.2761 19.7063 12.5 19.4302 12.5H19.4253ZM16.9507 12.5C16.6745 12.5 16.4507 12.2761 16.4507 12C16.4507 11.7239 16.6745 11.5 16.9507 11.5H16.9604C17.2364 11.5002 17.4604 11.724 17.4604 12C17.4604 12.276 17.2364 12.4998 16.9604 12.5H16.9507ZM14.4751 12.5C14.199 12.4999 13.9751 12.2761 13.9751 12C13.9751 11.7239 14.199 11.5001 14.4751 11.5H14.4849C14.761 11.5 14.9849 11.7239 14.9849 12C14.9849 12.2761 14.761 12.5 14.4849 12.5H14.4751ZM12.0005 12.5C11.7243 12.5 11.5005 12.2761 11.5005 12C11.5005 11.7239 11.7243 11.5 12.0005 11.5H12.0103C12.2863 11.5001 12.5103 11.7239 12.5103 12C12.5103 12.2761 12.2863 12.4999 12.0103 12.5H12.0005ZM9.5249 12.5C9.24892 12.4998 9.0249 12.276 9.0249 12C9.0249 11.724 9.24892 11.5002 9.5249 11.5H9.53467C9.81081 11.5 10.0347 11.7239 10.0347 12C10.0347 12.2761 9.81081 12.5 9.53467 12.5H9.5249ZM7.05029 12.5C6.77415 12.5 6.55029 12.2761 6.55029 12C6.55029 11.7239 6.77415 11.5 7.05029 11.5H7.06006C7.3362 11.5 7.56006 11.7239 7.56006 12C7.56006 12.2761 7.3362 12.5 7.06006 12.5H7.05029ZM4.58057 12.5C4.30442 12.5 4.08057 12.2761 4.08057 12C4.08057 11.7239 4.30442 11.5 4.58057 11.5H4.58545C4.86143 11.5002 5.08545 11.724 5.08545 12C5.08545 12.276 4.86143 12.4998 4.58545 12.5H4.58057Z" fill="black"/>
<path d="M19.4253 19.9199C19.1492 19.9199 18.9253 19.6961 18.9253 19.4199C18.9253 19.1438 19.1492 18.9199 19.4253 18.9199H19.4302C19.7063 18.9199 19.9302 19.1438 19.9302 19.4199C19.9302 19.6961 19.7063 19.9199 19.4302 19.9199H19.4253ZM16.9507 19.9199C16.6745 19.9199 16.4507 19.6961 16.4507 19.4199C16.4507 19.1438 16.6745 18.9199 16.9507 18.9199H16.9604C17.2364 18.9201 17.4604 19.1439 17.4604 19.4199C17.4604 19.696 17.2364 19.9197 16.9604 19.9199H16.9507ZM14.4751 19.9199C14.199 19.9198 13.9751 19.696 13.9751 19.4199C13.9751 19.1438 14.199 18.92 14.4751 18.9199H14.4849C14.761 18.9199 14.9849 19.1438 14.9849 19.4199C14.9849 19.6961 14.761 19.9199 14.4849 19.9199H14.4751ZM12.0005 19.9199C11.7243 19.9199 11.5005 19.6961 11.5005 19.4199C11.5005 19.1438 11.7243 18.9199 12.0005 18.9199H12.0103C12.2863 18.92 12.5103 19.1438 12.5103 19.4199C12.5103 19.696 12.2863 19.9198 12.0103 19.9199H12.0005ZM9.5249 19.9199C9.24892 19.9197 9.0249 19.696 9.0249 19.4199C9.0249 19.1439 9.24892 18.9201 9.5249 18.9199H9.53467C9.81081 18.9199 10.0347 19.1438 10.0347 19.4199C10.0347 19.6961 9.81081 19.9199 9.53467 19.9199H9.5249ZM7.05029 19.9199C6.77415 19.9199 6.55029 19.6961 6.55029 19.4199C6.55029 19.1438 6.77415 18.9199 7.05029 18.9199H7.06006C7.3362 18.9199 7.56006 19.1438 7.56006 19.4199C7.56006 19.6961 7.3362 19.9199 7.06006 19.9199H7.05029ZM4.58057 19.9199C4.30442 19.9199 4.08057 19.6961 4.08057 19.4199C4.08057 19.1438 4.30442 18.9199 4.58057 18.9199H4.58545C4.86143 18.9201 5.08545 19.1439 5.08545 19.4199C5.08545 19.6959 4.86143 19.9197 4.58545 19.9199H4.58057Z" fill="black"/>
<path d="M19.4253 5.08008C19.1492 5.08008 18.9253 4.85622 18.9253 4.58008C18.9253 4.30394 19.1492 4.08008 19.4253 4.08008L19.4302 4.08008C19.7063 4.08008 19.9302 4.30394 19.9302 4.58008C19.9302 4.85622 19.7063 5.08008 19.4302 5.08008H19.4253ZM16.9507 5.08008C16.6745 5.08008 16.4507 4.85622 16.4507 4.58008C16.4507 4.30394 16.6745 4.08008 16.9507 4.08008L16.9604 4.08008C17.2364 4.08027 17.4604 4.30405 17.4604 4.58008C17.4604 4.85611 17.2364 5.0799 16.9604 5.08008H16.9507ZM14.4751 5.08008C14.199 5.08 13.9751 4.85617 13.9751 4.58008C13.9751 4.30399 14.199 4.08016 14.4751 4.08008L14.4849 4.08008C14.761 4.08008 14.9849 4.30394 14.9849 4.58008C14.9849 4.85622 14.761 5.08008 14.4849 5.08008H14.4751ZM12.0005 5.08008C11.7243 5.08008 11.5 4.85622 11.5 4.58008C11.5 4.30394 11.7239 4.08008 12 4.08008L12.0103 4.08008C12.2863 4.08016 12.5103 4.30399 12.5103 4.58008C12.5103 4.85617 12.2863 5.08 12.0103 5.08008H12.0005ZM9.5249 5.08008C9.24892 5.07989 9.0249 4.85611 9.0249 4.58008C9.0249 4.30405 9.24892 4.08026 9.5249 4.08008L9.53467 4.08008C9.81081 4.08008 10.0347 4.30394 10.0347 4.58008C10.0347 4.85622 9.81081 5.08008 9.53467 5.08008H9.5249ZM7.05029 5.08008C6.77415 5.08008 6.55029 4.85622 6.55029 4.58008C6.55029 4.30394 6.77415 4.08008 7.05029 4.08008L7.06006 4.08008C7.3362 4.08008 7.56006 4.30394 7.56006 4.58008C7.56006 4.85622 7.3362 5.08008 7.06006 5.08008H7.05029ZM4.58057 5.08008C4.30442 5.08008 4.08057 4.85622 4.08057 4.58008C4.08057 4.30394 4.30442 4.08008 4.58057 4.08008L4.58545 4.08008C4.86143 4.08026 5.08545 4.30405 5.08545 4.58008C5.08545 4.85611 4.86143 5.07989 4.58545 5.08008H4.58057Z" fill="black"/>
<path d="M4.08008 19.4253C4.08008 19.1492 4.30394 18.9253 4.58008 18.9253C4.85622 18.9253 5.08008 19.1492 5.08008 19.4253V19.4302C5.08008 19.7063 4.85622 19.9302 4.58008 19.9302C4.30394 19.9302 4.08008 19.7063 4.08008 19.4302L4.08008 19.4253ZM4.08008 16.9507C4.08008 16.6745 4.30394 16.4507 4.58008 16.4507C4.85622 16.4507 5.08008 16.6745 5.08008 16.9507V16.9605C5.07989 17.2364 4.85611 17.4605 4.58008 17.4605C4.30405 17.4605 4.08026 17.2364 4.08008 16.9605L4.08008 16.9507ZM4.08008 14.4751C4.08016 14.199 4.30399 13.9751 4.58008 13.9751C4.85617 13.9751 5.08 14.199 5.08008 14.4751V14.4849C5.08008 14.761 4.85622 14.9849 4.58008 14.9849C4.30394 14.9849 4.08008 14.761 4.08008 14.4849L4.08008 14.4751ZM4.08057 12C4.08057 11.7239 4.30442 11.5 4.58057 11.5C4.85671 11.5 5.08008 11.7243 5.08008 12.0005V12.0103C5.08 12.2863 4.85617 12.5103 4.58008 12.5103C4.30399 12.5103 4.08016 12.2863 4.08008 12.0103L4.08057 12ZM4.08008 9.52491C4.08027 9.24892 4.30405 9.02491 4.58008 9.02491C4.85611 9.02491 5.0799 9.24892 5.08008 9.52491V9.53467C5.08008 9.81081 4.85622 10.0347 4.58008 10.0347C4.30394 10.0347 4.08008 9.81081 4.08008 9.53467L4.08008 9.52491ZM4.08008 7.0503C4.08008 6.77415 4.30394 6.5503 4.58008 6.5503C4.85622 6.5503 5.08008 6.77416 5.08008 7.0503V7.06006C5.08008 7.33621 4.85622 7.56006 4.58008 7.56006C4.30394 7.56006 4.08008 7.3362 4.08008 7.06006L4.08008 7.0503ZM4.08057 4.58008C4.08057 4.30394 4.30442 4.08008 4.58057 4.08008C4.85671 4.08008 5.08008 4.30443 5.08008 4.58057V4.58545C5.0799 4.86144 4.85611 5.08545 4.58008 5.08545C4.30406 5.08545 4.08027 4.86144 4.08008 4.58545L4.08057 4.58008Z" fill="black"/>
<path d="M18.9199 19.4253C18.9199 19.1492 19.1438 18.9253 19.4199 18.9253C19.6961 18.9253 19.9199 19.1492 19.9199 19.4253V19.4302C19.9199 19.7063 19.6961 19.9302 19.4199 19.9302C19.1438 19.9302 18.9199 19.7063 18.9199 19.4302V19.4253ZM18.9199 16.9507C18.9199 16.6745 19.1438 16.4507 19.4199 16.4507C19.6961 16.4507 19.9199 16.6745 19.9199 16.9507V16.9605C19.9197 17.2364 19.696 17.4605 19.4199 17.4605C19.1439 17.4605 18.9201 17.2364 18.9199 16.9605V16.9507ZM18.9199 14.4751C18.92 14.199 19.1438 13.9751 19.4199 13.9751C19.696 13.9751 19.9198 14.199 19.9199 14.4751V14.4849C19.9199 14.761 19.6961 14.9849 19.4199 14.9849C19.1438 14.9849 18.9199 14.761 18.9199 14.4849V14.4751ZM18.9199 12.0005C18.9199 11.7243 19.1438 11.5005 19.4199 11.5005C19.6961 11.5005 19.9199 11.7243 19.9199 12.0005V12.0103C19.9198 12.2863 19.696 12.5103 19.4199 12.5103C19.1438 12.5103 18.92 12.2863 18.9199 12.0103V12.0005ZM18.9199 9.52491C18.9201 9.24892 19.1439 9.02491 19.4199 9.02491C19.696 9.02491 19.9197 9.24892 19.9199 9.52491V9.53467C19.9199 9.81081 19.6961 10.0347 19.4199 10.0347C19.1438 10.0347 18.9199 9.81081 18.9199 9.53467V9.52491ZM18.9199 7.0503C18.9199 6.77415 19.1438 6.5503 19.4199 6.5503C19.6961 6.5503 19.9199 6.77416 19.9199 7.0503V7.06006C19.9199 7.33621 19.6961 7.56006 19.4199 7.56006C19.1438 7.56006 18.9199 7.3362 18.9199 7.06006V7.0503ZM18.9199 4.58057C18.9199 4.30443 19.1438 4.08057 19.4199 4.08057C19.6961 4.08057 19.9199 4.30443 19.9199 4.58057V4.58545C19.9197 4.86144 19.696 5.08545 19.4199 5.08545C19.1439 5.08545 18.9201 4.86144 18.9199 4.58545V4.58057Z" fill="black"/>
</svg>