<svg viewBox="0 0 24 24" fill="none" xmlns="http://www.w3.org/2000/svg" width="24" height="24">
<rect opacity="0.2" x="4.5752" y="4.5752" width="14.85" height="14.85" rx="0.75" fill="black"/>
<path d="M4.0752 15.3752V8.6252C4.0752 8.34905 4.29905 8.1252 4.5752 8.1252C4.85134 8.1252 5.0752 8.34905 5.0752 8.6252V15.3752C5.0752 15.6513 4.85134 15.8752 4.5752 15.8752C4.29905 15.8752 4.0752 15.6513 4.0752 15.3752Z" fill="black"/>
<path d="M18.9252 15.3752V8.6252C18.9252 8.34905 19.1491 8.1252 19.4252 8.1252C19.7013 8.1252 19.9252 8.34905 19.9252 8.6252V15.3752C19.9252 15.6513 19.7013 15.8752 19.4252 15.8752C19.1491 15.8752 18.9252 15.6513 18.9252 15.3752Z" fill="black"/>
<path d="M15.3752 4.0752C15.6513 4.0752 15.8752 4.29905 15.8752 4.5752C15.8752 4.85134 15.6513 5.0752 15.3752 5.0752H8.6252C8.34905 5.0752 8.1252 4.85134 8.1252 4.5752C8.1252 4.29905 8.34905 4.0752 8.6252 4.0752H15.3752Z" fill="black"/>
<path d="M15.3752 19.9302C15.9275 19.9302 16.3752 19.4825 16.3752 18.9302C16.3752 18.3779 15.9275 17.9302 15.3752 17.9302H8.6252C8.07291 17.9302 7.6252 18.3779 7.6252 18.9302C7.6252 19.4825 8.07291 19.9302 8.6252 19.9302H15.3752Z" fill="black"/>
</svg>