<svg viewBox="0 0 24 24" fill="none" xmlns="http://www.w3.org/2000/svg" width="24" height="24">
<rect opacity="0.2" x="4.57275" y="19.4277" width="14.85" height="14.85" rx="0.75" transform="rotate(-90 4.57275 19.4277)" fill="black"/>
<path d="M15.3728 19.9277L8.62275 19.9277C8.34661 19.9277 8.12275 19.7039 8.12275 19.4277C8.12275 19.1516 8.34661 18.9277 8.62275 18.9277L15.3728 18.9277C15.6489 18.9277 15.8728 19.1516 15.8728 19.4277C15.8728 19.7039 15.6489 19.9277 15.3728 19.9277Z" fill="black"/>
<path d="M15.3728 5.07774L8.62276 5.07774C8.34661 5.07774 8.12276 4.85388 8.12276 4.57774C8.12276 4.30159 8.34661 4.07774 8.62276 4.07774L15.3728 4.07774C15.6489 4.07774 15.8728 4.30159 15.8728 4.57774C15.8728 4.85388 15.6489 5.07774 15.3728 5.07774Z" fill="black"/>
<path d="M4.07276 8.62773C4.07276 8.35159 4.29661 8.12773 4.57276 8.12773C4.8489 8.12773 5.07276 8.35159 5.07276 8.62773L5.07275 15.3777C5.07275 15.6539 4.8489 15.8777 4.57275 15.8777C4.29661 15.8777 4.07275 15.6539 4.07275 15.3777L4.07276 8.62773Z" fill="black"/>
<path d="M19.9278 8.62774C19.9278 8.07545 19.48 7.62774 18.9278 7.62774C18.3755 7.62774 17.9278 8.07545 17.9278 8.62774L17.9278 15.3777C17.9278 15.93 18.3755 16.3777 18.9278 16.3777C19.48 16.3777 19.9278 15.93 19.9278 15.3777L19.9278 8.62774Z" fill="black"/>
</svg>