<svg viewBox="0 0 24 24" fill="none" xmlns="http://www.w3.org/2000/svg" width="24" height="24">
<path fill-rule="evenodd" clip-rule="evenodd" d="M3.75 2.15039C2.86634 2.15039 2.15039 2.86635 2.15039 3.75V20.25C2.15039 21.1337 2.86635 21.8496 3.75 21.8496H20.25C21.1337 21.8496 21.8496 21.1337 21.8496 20.25V3.75C21.8496 2.86634 21.1337 2.15039 20.25 2.15039H3.75ZM17.3955 16.0498C17.7681 16.05 18.0702 16.352 18.0703 16.7246C18.0703 17.0973 17.7681 17.3992 17.3955 17.3994H6.60547C6.23268 17.3994 5.92969 17.0974 5.92969 16.7246C5.92979 16.3519 6.23274 16.0498 6.60547 16.0498H17.3955ZM17.3203 12C17.7345 12.0001 18.0703 12.3358 18.0703 12.75V13.9502C18.0702 14.3643 17.7344 14.7001 17.3203 14.7002H6.67969C6.26576 14.6999 5.92979 14.3642 5.92969 13.9502V12.75C5.92969 12.3359 6.2657 12.0003 6.67969 12H17.3203ZM17.3203 6.60059C17.7345 6.60066 18.0703 6.93642 18.0703 7.35059V9.90039C18.0702 10.3144 17.7344 10.6503 17.3203 10.6504H6.67969C6.2658 10.6501 5.92985 10.3143 5.92969 9.90039V7.34961C5.92995 6.93578 6.26586 6.60085 6.67969 6.60059H17.3203Z" fill="black"/>
</svg>