<svg viewBox="0 0 24 24" fill="none" xmlns="http://www.w3.org/2000/svg" width="24" height="24">
<path d="M20.0996 18.8994C20.0995 19.5624 19.5624 20.0993 18.8994 20.0996L5.10059 20.0996C4.43744 20.0996 3.90055 19.5625 3.90039 18.8994L3.90039 5.10059C3.90055 4.43747 4.43745 3.90044 5.10059 3.90039L18.8994 3.90039C19.5624 3.90066 20.0995 4.4376 20.0996 5.10059L20.0996 18.8994ZM16.3447 15.6699C16.3447 13.6108 15.5273 11.6359 14.0713 10.1797C12.615 8.72343 10.6394 7.90527 8.58008 7.90527C8.20729 7.90527 7.90527 8.20729 7.90527 8.58008C7.90527 8.95287 8.20729 9.25488 8.58008 9.25488C10.2815 9.25488 11.9132 9.93084 13.1162 11.1338C14.3192 12.3368 14.9951 13.9686 14.9951 15.6699C14.9951 16.0427 15.2972 16.3446 15.6699 16.3447C16.0427 16.3447 16.3447 16.0427 16.3447 15.6699Z" fill="black"/>
</svg>