<svg viewBox="0 0 24 24" fill="none" xmlns="http://www.w3.org/2000/svg" width="24" height="24">
<path opacity="0.2" d="M16.9317 16.1999C16.9774 16.6314 16.6322 17 16.1983 17H8C7.58579 17 7.25 16.6642 7.25 16.25V8C7.25 7.58579 7.58631 7.24717 7.99926 7.27952C10.2402 7.45507 12.4001 8.40005 13.75 9.75C15.6013 11.6013 16.5958 13.0242 16.9317 16.1999Z" fill="black"/>
<path d="M16.5 17C16.5 14.5467 15.5257 12.1937 13.791 10.459C12.0563 8.7243 9.7033 7.75 7.25 7.75C6.97386 7.75 6.75 7.52614 6.75 7.25C6.75 6.97386 6.97386 6.75 7.25 6.75C9.96842 6.75 12.5758 7.82967 14.498 9.75195C16.4203 11.6742 17.5 14.2816 17.5 17C17.5 17.2761 17.2761 17.5 17 17.5C16.7239 17.5 16.5 17.2761 16.5 17Z" fill="black"/>
</svg>