<svg viewBox="0 0 24 24" fill="none" xmlns="http://www.w3.org/2000/svg" width="24" height="24">
<path fill-rule="evenodd" clip-rule="evenodd" d="M18.8984 20.0996C19.5616 20.0996 20.0995 19.5616 20.0996 18.8984L20.0996 5.09961C20.0995 4.43649 19.5616 3.89946 18.8984 3.89941L5.09961 3.89941C4.43665 3.89968 3.89957 4.43662 3.89942 5.09961L3.89941 18.8984C3.89957 19.5614 4.43665 20.0993 5.09961 20.0996L18.8984 20.0996ZM9.55274 7.94824C8.80751 7.94782 8.20313 7.34396 8.20313 6.59863C8.20334 5.85349 8.80764 5.24944 9.55274 5.24902L14.4531 5.24902C15.1986 5.24902 15.8025 5.85323 15.8027 6.59863C15.8027 7.34422 15.1987 7.94824 14.4531 7.94824L9.55274 7.94824ZM6.59961 15.1279C6.22682 15.1279 5.92481 14.8259 5.92481 14.4531L5.92481 9.55273C5.92528 9.18035 6.22711 8.87793 6.59961 8.87793C6.97189 8.87819 7.27394 9.18051 7.27441 9.55273L7.27441 14.4531C7.27441 14.8258 6.97218 15.1277 6.59961 15.1279ZM17.3994 15.1279C17.0266 15.1279 16.7246 14.8259 16.7246 14.4531L16.7246 9.55273C16.7251 9.18035 17.0269 8.87793 17.3994 8.87793C17.7717 8.87819 18.0737 9.18051 18.0742 9.55273L18.0742 14.4531C18.0742 14.8258 17.772 15.1277 17.3994 15.1279ZM9.55371 18.0732C9.1811 18.073 8.87891 17.7711 8.87891 17.3984C8.87917 17.026 9.18126 16.7238 9.55371 16.7236L14.4541 16.7236C14.8265 16.7239 15.1286 17.026 15.1289 17.3984C15.1289 17.7711 14.8267 18.073 14.4541 18.0732L9.55371 18.0732Z" fill="black"/>
</svg>