<svg viewBox="0 0 24 24" fill="none" xmlns="http://www.w3.org/2000/svg" width="24" height="24">
<path d="M5.07471 10.1147C5.07471 8.7781 5.60618 7.49538 6.55127 6.55029C7.49633 5.60539 8.77824 5.07471 10.1147 5.07471C10.3909 5.07471 10.6147 4.85085 10.6147 4.57471C10.6147 4.29856 10.3909 4.07471 10.1147 4.07471C8.51312 4.07471 6.9769 4.71076 5.84424 5.84326C4.71155 6.97595 4.07471 8.51297 4.07471 10.1147C4.07492 10.3906 4.29887 10.6145 4.57471 10.6147C4.85072 10.6147 5.0745 10.3907 5.07471 10.1147Z" fill="black"/>
<path d="M13.8848 5.07471C15.2214 5.07471 16.5041 5.60618 17.4492 6.55127C18.3941 7.49633 18.9248 8.77824 18.9248 10.1147C18.9248 10.3909 19.1487 10.6147 19.4248 10.6147C19.7009 10.6147 19.9248 10.3909 19.9248 10.1147C19.9248 8.51311 19.2888 6.9769 18.1563 5.84424C17.0236 4.71155 15.4865 4.07471 13.8848 4.07471C13.6089 4.07491 13.385 4.29887 13.3848 4.57471C13.3848 4.85072 13.6088 5.0745 13.8848 5.07471Z" fill="black"/>
<path d="M18.9253 13.8848C18.9253 15.2214 18.3938 16.5041 17.4487 17.4492C16.5037 18.3941 15.2218 18.9248 13.8853 18.9248C13.6091 18.9248 13.3853 19.1487 13.3853 19.4248C13.3853 19.7009 13.6091 19.9248 13.8853 19.9248C15.4869 19.9248 17.0231 19.2888 18.1558 18.1563C19.2884 17.0236 19.9253 15.4865 19.9253 13.8848C19.9251 13.6089 19.7011 13.385 19.4253 13.3848C19.1493 13.3848 18.9255 13.6088 18.9253 13.8848Z" fill="black"/>
<path d="M5.07471 13.8848C5.07471 15.2214 5.60618 16.5041 6.55127 17.4492C7.49633 18.3941 8.77824 18.9248 10.1147 18.9248C10.3909 18.9248 10.6147 19.1487 10.6147 19.4248C10.6147 19.7009 10.3909 19.9248 10.1147 19.9248C8.51312 19.9248 6.9769 19.2888 5.84424 18.1563C4.71155 17.0236 4.07471 15.4865 4.07471 13.8848C4.07491 13.6089 4.29887 13.385 4.57471 13.3848C4.85072 13.3848 5.0745 13.6088 5.07471 13.8848Z" fill="black"/>
</svg>