<svg viewBox="0 0 24 24" fill="none" xmlns="http://www.w3.org/2000/svg" width="24" height="24">
<path d="M18.75 3.90039C19.108 3.90042 19.451 4.04275 19.7041 4.2959C19.9573 4.54905 20.0996 4.89199 20.0996 5.25V18.75C20.0996 19.108 19.9573 19.4519 19.7041 19.7051C19.451 19.958 19.1078 20.0996 18.75 20.0996H5.25C4.89196 20.0996 4.5481 19.9583 4.29492 19.7051C4.04175 19.4519 3.90039 19.108 3.90039 18.75L3.89941 5.25C3.89944 4.89218 4.04201 4.54901 4.29492 4.2959C4.5481 4.04272 4.89196 3.90039 5.25 3.90039H18.75ZM6.59961 5.9248C6.42074 5.92488 6.24956 5.99659 6.12305 6.12305C5.99657 6.24952 5.92493 6.42076 5.9248 6.59961V17.4004C5.92488 17.5793 5.99653 17.7504 6.12305 17.877C6.24956 18.0035 6.42069 18.0751 6.59961 18.0752H10.7246C10.9036 18.0752 11.0756 18.0035 11.2021 17.877C11.3285 17.7505 11.3993 17.5792 11.3994 17.4004C11.3994 17.2214 11.3287 17.0494 11.2021 16.9229C11.0756 16.7963 10.9036 16.7246 10.7246 16.7246H7.27539V12.0537C7.2768 12.0359 7.28125 12.0182 7.28125 12C7.28125 11.9815 7.27685 11.9634 7.27539 11.9453V7.27539H11.9453C11.9634 7.27685 11.9815 7.28125 12 7.28125C12.0185 7.28125 12.0366 7.27685 12.0547 7.27539H16.7246V11.9512C16.7234 11.9674 16.7197 11.9835 16.7197 12C16.7198 12.3288 16.9552 12.6011 17.2666 12.6611C17.274 12.6626 17.2816 12.6628 17.2891 12.6641C17.3237 12.6695 17.3593 12.6748 17.3955 12.6748H17.4004C17.4457 12.6748 17.4904 12.67 17.5342 12.6611C17.5479 12.6584 17.5608 12.653 17.5742 12.6494C17.6034 12.6416 17.6324 12.6337 17.6602 12.6221C17.6866 12.611 17.7108 12.5962 17.7354 12.582C17.7486 12.5744 17.7626 12.5681 17.7754 12.5596C17.8839 12.4866 17.9701 12.3836 18.0215 12.2617C18.0561 12.1796 18.0752 12.0908 18.0752 12V6.59961C18.0751 6.42076 18.0034 6.24952 17.877 6.12305C17.7505 5.99657 17.5792 5.92493 17.4004 5.9248H6.59961ZM17.4004 13.3496C17.2213 13.3496 17.0495 13.4212 16.9229 13.5479L14.0254 16.4453L13.1533 15.5723C13.0268 15.4457 12.8548 15.3751 12.6758 15.375C12.4968 15.375 12.3249 15.4458 12.1982 15.5723C12.0716 15.6989 12 15.8707 12 16.0498C12 16.2289 12.0716 16.4007 12.1982 16.5273L13.5479 17.8779C13.6104 17.9404 13.6849 17.9896 13.7666 18.0234C13.8485 18.0573 13.9367 18.0753 14.0254 18.0752C14.1141 18.0753 14.2022 18.0573 14.2842 18.0234C14.3659 17.9896 14.4404 17.9404 14.5029 17.8779L17.8779 14.5029C18.0045 14.3764 18.0761 14.2044 18.0762 14.0254C18.0762 13.8464 18.0045 13.6745 17.8779 13.5479C17.7513 13.4212 17.5795 13.3496 17.4004 13.3496ZM12 14.0205C11.6272 14.0205 11.3252 14.3225 11.3252 14.6953V14.7002C11.3255 15.0728 11.6274 15.376 12 15.376C12.3726 15.376 12.6745 15.0728 12.6748 14.7002V14.6953C12.6748 14.3225 12.3728 14.0205 12 14.0205ZM12 11.3203C11.8123 11.3203 11.6418 11.3958 11.5195 11.5195C11.3959 11.6418 11.3203 11.8123 11.3203 12C11.3203 12.1865 11.3953 12.3554 11.5176 12.4775L11.5225 12.4824C11.6446 12.6047 11.8135 12.6807 12 12.6807C12.1878 12.6807 12.3572 12.6032 12.4795 12.4795C12.6032 12.3572 12.6806 12.1877 12.6807 12C12.6807 11.8135 12.6046 11.6446 12.4824 11.5225L12.4775 11.5176C12.3554 11.3953 12.1865 11.3203 12 11.3203ZM9.29492 11.3252C8.92226 11.3253 8.62012 11.6273 8.62012 12C8.62017 12.3727 8.92229 12.6747 9.29492 12.6748H9.30566C9.6782 12.6745 9.98139 12.3726 9.98145 12C9.98145 11.6274 9.67823 11.3255 9.30566 11.3252H9.29492ZM14.6953 11.3252C14.3225 11.3252 14.0205 11.6272 14.0205 12C14.0206 12.3727 14.3226 12.6748 14.6953 12.6748H14.7061C15.0785 12.6745 15.3808 12.3726 15.3809 12C15.3809 11.6274 15.0786 11.3255 14.7061 11.3252H14.6953ZM12 8.62012C11.6275 8.62012 11.3256 8.92151 11.3252 9.29395V9.30469C11.3252 9.67748 11.6272 9.98145 12 9.98145C12.3726 9.98144 12.6745 9.67823 12.6748 9.30566V9.29492C12.6747 8.92226 12.3727 8.62012 12 8.62012Z" fill="black"/>
</svg>