<svg xmlns="http://www.w3.org/2000/svg" width="24" height="24" fill="currentColor" viewBox="0 0 24 24"><path d="M18.75 9.3a1.35 1.35 0 0 0 1.35-1.35v-2.7a1.35 1.35 0 0 0-1.35-1.35h-2.7a1.35 1.35 0 0 0-1.35 1.35v.675H9.3V5.25A1.35 1.35 0 0 0 7.95 3.9h-2.7A1.35 1.35 0 0 0 3.9 5.25v2.7A1.35 1.35 0 0 0 5.25 9.3h.675v5.4H5.25a1.35 1.35 0 0 0-1.35 1.35v2.7a1.35 1.35 0 0 0 1.35 1.35h2.7a1.35 1.35 0 0 0 1.35-1.35v-.675h5.4v.675a1.35 1.35 0 0 0 1.35 1.35h2.7a1.35 1.35 0 0 0 1.35-1.35v-2.7a1.35 1.35 0 0 0-1.35-1.35h-.675V9.3zm-2.025 5.4h-.675a1.35 1.35 0 0 0-1.35 1.35v.675H9.3v-.675a1.35 1.35 0 0 0-1.35-1.35h-.675V9.3h.675A1.35 1.35 0 0 0 9.3 7.95v-.675h5.4v.675a1.35 1.35 0 0 0 1.35 1.35h.675z"/></svg>