<svg xmlns="http://www.w3.org/2000/svg" fill="currentColor" viewBox="0 0 24 24" width="24" height="24"><path d="M21.956 11.663a4.57 4.57 0 0 0-2.7-4.162v-.225A3.881 3.881 0 0 0 12 5.363a3.881 3.881 0 0 0-7.256 1.913v.225a4.556 4.556 0 0 0 0 8.322v.228A3.881 3.881 0 0 0 12 17.964a3.881 3.881 0 0 0 7.256-1.913v-.228a4.56 4.56 0 0 0 2.7-4.16M8.625 18.919a2.87 2.87 0 0 1-2.869-2.779 4.5 4.5 0 0 0 .844.079h.675a.506.506 0 0 0 0-1.012H6.6a3.544 3.544 0 0 1-1.181-6.886.51.51 0 0 0 .338-.478v-.568a2.869 2.869 0 0 1 5.738 0v6.164a3.87 3.87 0 0 0-2.869-1.27.506.506 0 0 0 0 1.012 2.869 2.869 0 0 1 0 5.738zm8.775-3.713h-.675a.507.507 0 0 0 0 1.013h.675a4.5 4.5 0 0 0 .844-.079 2.869 2.869 0 1 1-2.869-2.958.507.507 0 0 0 0-1.013 3.87 3.87 0 0 0-2.869 1.27V7.275a2.869 2.869 0 0 1 5.738 0v.568a.51.51 0 0 0 .337.478 3.544 3.544 0 0 1-1.181 6.886zm1.181-4.556a.506.506 0 0 1-.506.506h-.337a2.87 2.87 0 0 1-2.869-2.869V7.95a.507.507 0 0 1 1.013 0v.338a1.856 1.856 0 0 0 1.856 1.856h.337a.506.506 0 0 1 .506.506m-12.319.506h-.337a.506.506 0 0 1 0-1.012h.338a1.856 1.856 0 0 0 1.856-1.856V7.95a.507.507 0 0 1 1.013 0v.338a2.87 2.87 0 0 1-2.869 2.869z"/></svg>