<svg xmlns="http://www.w3.org/2000/svg" fill="currentColor" viewBox="0 0 24 24" width="24" height="24"><path d="M21.45 11.663a4.05 4.05 0 0 1-2.7 3.82v.568a3.375 3.375 0 0 1-6.75 0 3.375 3.375 0 0 1-6.75 0v-.568a4.05 4.05 0 0 1 0-7.639v-.568a3.375 3.375 0 0 1 6.75 0 3.375 3.375 0 0 1 6.75 0v.568a4.05 4.05 0 0 1 2.7 3.82z" opacity=".2"/><path d="M22.125 11.663a4.73 4.73 0 0 0-2.7-4.27v-.117A4.05 4.05 0 0 0 12 5.041a4.05 4.05 0 0 0-7.425 2.235v.117a4.725 4.725 0 0 0 0 8.539v.119A4.05 4.05 0 0 0 12 18.286a4.05 4.05 0 0 0 7.425-2.235v-.119a4.73 4.73 0 0 0 2.7-4.269m-13.5 7.088a2.7 2.7 0 0 1-2.684-2.41 5 5 0 0 0 .659.047h.675a.675.675 0 0 0 0-1.35H6.6A3.375 3.375 0 0 1 5.475 8.48a.675.675 0 0 0 .45-.636v-.568a2.7 2.7 0 0 1 5.4 0v5.759a4.03 4.03 0 0 0-2.7-1.034.675.675 0 0 0 0 1.35 2.7 2.7 0 0 1 0 5.4m8.775-3.713h-.675a.675.675 0 0 0 0 1.35h.675a5 5 0 0 0 .659-.047 2.7 2.7 0 1 1-2.684-2.99.675.675 0 0 0 0-1.35 4.03 4.03 0 0 0-2.7 1.034V7.276a2.7 2.7 0 0 1 5.4 0v.568a.675.675 0 0 0 .45.636 3.375 3.375 0 0 1-1.125 6.558m1.35-4.388a.675.675 0 0 1-.675.675h-.337a3.04 3.04 0 0 1-3.037-3.037V7.95a.675.675 0 0 1 1.35 0v.338a1.69 1.69 0 0 0 1.688 1.688h.337a.675.675 0 0 1 .675.675zm-12.488.675h-.337a.675.675 0 0 1 0-1.35h.338A1.69 1.69 0 0 0 7.95 8.287v-.338a.675.675 0 0 1 1.35 0v.338a3.04 3.04 0 0 1-3.037 3.037z"/></svg>