<svg viewBox="0 0 24 24" fill="none" xmlns="http://www.w3.org/2000/svg" width="24" height="24">
<path opacity="0.2" fill-rule="evenodd" clip-rule="evenodd" d="M9.88037 16.8801C9.46616 16.8801 9.13037 17.2159 9.13037 17.6301L9.13037 18.7549C9.13048 18.8514 9.20859 18.9297 9.30518 18.9297L18.7554 18.9297C18.8519 18.9296 18.9301 18.8514 18.9302 18.7549L18.9302 9.30469C18.9302 9.2081 18.8519 9.12999 18.7554 9.12988L17.6298 9.12988C17.2156 9.12988 16.8798 9.46567 16.8798 9.87988L16.8798 10.1299L16.8798 14.7053C16.8797 15.9063 15.906 16.88 14.705 16.8801L10.1304 16.8801L9.88037 16.8801Z" fill="black"/>
<path fill-rule="evenodd" clip-rule="evenodd" d="M14.705 15.8798C15.3132 15.8797 15.8135 15.4174 15.8737 14.8251C15.8777 14.7856 15.8798 14.7455 15.8798 14.705L15.8799 5.25488C15.8799 4.8923 15.7157 4.56813 15.4575 4.35265C15.2544 4.18507 14.9889 4.08012 14.7051 4.08008L5.25488 4.08008C4.60595 4.08008 4.08008 4.60595 4.08008 5.25488L4.08008 14.7051C4.08012 14.9858 4.17856 15.2435 4.34278 15.4455C4.55816 15.7106 4.88672 15.8799 5.25488 15.8799L14.705 15.8798ZM5.1791 14.8626L5.19003 14.8674C5.20477 14.8733 5.22051 14.8772 5.23692 14.8789C5.24283 14.8795 5.24882 14.8799 5.25488 14.8799H14.7051C14.8016 14.8798 14.8798 14.8016 14.8799 14.7051V5.25488C14.8799 5.24885 14.8795 5.24279 14.8789 5.23691C14.8772 5.22076 14.8734 5.20527 14.8677 5.19073C14.8609 5.17355 14.8515 5.15769 14.8399 5.14369C14.8368 5.13992 14.8321 5.13478 14.8287 5.13128C14.797 5.09968 14.7534 5.08013 14.7051 5.08008L5.25488 5.08008C5.15823 5.08008 5.08008 5.15823 5.08008 5.25488L5.08008 14.7051C5.0801 14.7232 5.08286 14.7406 5.08797 14.7571C5.09649 14.7844 5.11153 14.8089 5.13128 14.8287C5.13919 14.8366 5.14786 14.8437 5.15716 14.85C5.16412 14.8547 5.17146 14.8589 5.1791 14.8626Z" fill="black"/>
<path fill-rule="evenodd" clip-rule="evenodd" d="M17.3801 8.12988C17.1039 8.12988 16.8801 8.35374 16.8801 8.62988C16.8801 8.90602 17.1039 9.12988 17.3801 9.12988H18.7557C18.8522 9.12999 18.9305 9.2081 18.9305 9.30469V18.7549C18.9304 18.8514 18.8522 18.9296 18.7557 18.9297L9.30547 18.9297C9.20888 18.9297 9.13077 18.8514 9.13066 18.7549V17.3801C9.13066 17.1039 8.90681 16.8801 8.63066 16.8801C8.35452 16.8801 8.13066 17.1039 8.13066 17.3801V18.7549C8.13077 19.4037 8.6566 19.9297 9.30547 19.9297H18.7557C19.4044 19.9296 19.9304 19.4037 19.9305 18.7549V9.30469C19.9305 8.65582 19.4045 8.12999 18.7557 8.12988H17.3801Z" fill="black"/>
</svg>