<svg viewBox="0 0 24 24" fill="none" xmlns="http://www.w3.org/2000/svg" width="24" height="24">
<path fill-rule="evenodd" clip-rule="evenodd" d="M14.8755 5.25488C14.8755 5.1583 14.7972 5.08018 14.7007 5.08008L5.25049 5.08008C5.15384 5.08008 5.07568 5.15823 5.07568 5.25488L5.07568 14.7051C5.07579 14.8016 5.1539 14.8799 5.25049 14.8799H6.62519C6.90134 14.8799 7.12519 15.1037 7.12519 15.3799C7.12519 15.656 6.90134 15.8799 6.62519 15.8799H5.25049C4.60162 15.8799 4.07579 15.3539 4.07568 14.7051L4.07568 5.25488C4.07568 4.60595 4.60155 4.08008 5.25049 4.08008L14.7007 4.08008C15.3495 4.08018 15.8755 4.60601 15.8755 5.25488L15.8755 6.63233C15.8755 6.90847 15.6516 7.13232 15.3755 7.13232C15.0993 7.13232 14.8755 6.90847 14.8755 6.63232V5.25488Z" fill="black"/>
<path fill-rule="evenodd" clip-rule="evenodd" d="M8.125 9.30713C8.12511 8.65829 8.65094 8.13232 9.2998 8.13232H18.75C19.3988 8.13243 19.9247 8.65835 19.9248 9.30713V18.7573C19.9248 19.4062 19.3988 19.932 18.75 19.9321H9.2998C8.65087 19.9321 8.125 19.4063 8.125 18.7573V9.30713ZM18.75 9.13232C18.8465 9.13243 18.9247 9.21063 18.9248 9.30713V18.7573C18.9248 18.8539 18.8466 18.932 18.75 18.9321H9.2998C9.20315 18.9321 9.125 18.854 9.125 18.7573V9.30713C9.12511 9.21057 9.20322 9.13232 9.2998 9.13232H18.75Z" fill="black"/>
<path fill-rule="evenodd" clip-rule="evenodd" d="M18.75 9.13232C18.8465 9.13243 18.9247 9.21063 18.9248 9.30713V18.7573C18.9248 18.8539 18.8466 18.932 18.75 18.9321H9.2998C9.20315 18.9321 9.125 18.854 9.125 18.7573V9.30713C9.12511 9.21057 9.20322 9.13232 9.2998 9.13232H18.75Z" fill="#D9D9D9"/>
</svg>