<svg viewBox="0 0 24 24" fill="none" xmlns="http://www.w3.org/2000/svg" width="24" height="24">
<path fill-rule="evenodd" clip-rule="evenodd" d="M5.07471 5.07471L5.07471 10.0151L5.54541 10.0151C5.82155 10.0151 6.04541 10.239 6.04541 10.5151C6.04541 10.7913 5.82155 11.0151 5.54541 11.0151H4.9458C4.46489 11.0149 4.0748 10.625 4.07471 10.144L4.07471 4.9458C4.07496 4.46499 4.46499 4.07496 4.9458 4.07471L10.144 4.07471C10.625 4.0748 11.0149 4.46489 11.0151 4.9458L11.0151 5.54541C11.0151 5.82155 10.7913 6.04541 10.5151 6.04541C10.239 6.04541 10.0151 5.82155 10.0151 5.54541L10.0151 5.07471L5.07471 5.07471Z" fill="black"/>
<path fill-rule="evenodd" clip-rule="evenodd" d="M13.9854 18.4556C13.9854 18.1794 13.7615 17.9556 13.4854 17.9556C13.2092 17.9556 12.9854 18.1794 12.9854 18.4556L12.9853 19.0547C12.9856 19.5356 13.3755 19.9257 13.8564 19.9258H19.0547C19.5355 19.9255 19.9255 19.5355 19.9258 19.0547L19.9258 13.8564C19.9257 13.3755 19.5356 12.9856 19.0547 12.9854L18.4556 12.9854C18.1794 12.9854 17.9556 13.2092 17.9556 13.4854C17.9556 13.7615 18.1794 13.9854 18.4556 13.9854L18.9258 13.9854L18.9258 18.9258H13.9853L13.9854 18.4556Z" fill="black"/>
<path fill-rule="evenodd" clip-rule="evenodd" d="M8.10205 8.04541C8.0708 8.04552 8.04552 8.0708 8.04541 8.10205L8.04541 15.8989C8.04554 15.9302 8.07081 15.9555 8.10205 15.9556L15.8989 15.9556C15.9301 15.9554 15.9554 15.9301 15.9556 15.8989V8.10205C15.9555 8.07081 15.9302 8.04554 15.8989 8.04541L8.10205 8.04541ZM15.8989 16.9556C16.4824 16.9554 16.9554 16.4824 16.9556 15.8989V8.10205C16.9555 7.51853 16.4824 7.04554 15.8989 7.04541L8.10205 7.04541C7.51852 7.04552 7.04552 7.51851 7.04541 8.10205L7.04541 15.8989C7.04554 16.4824 7.51853 16.9555 8.10205 16.9556H15.8989ZM16.4556 8.10226C16.4556 8.06171 16.4519 8.02784 16.4438 7.98975L16.4556 8.10226Z" fill="black"/>
</svg>