<svg xmlns="http://www.w3.org/2000/svg" width="24" height="24" fill="currentColor" viewBox="0 0 24 24"><path d="M18.75 12v1.35a6.75 6.75 0 0 1-13.5 0V12z" opacity=".2"/><path d="M13.35 8.963a1.013 1.013 0 1 1 1.013 1.013 1.013 1.013 0 0 1-1.013-1.013M9.637 7.95a1.013 1.013 0 1 0 1.012 1.013A1.013 1.013 0 0 0 9.637 7.95m9.788 5.4a7.4 7.4 0 0 1-.253 1.941l1.877.82a.675.675 0 0 1-.273 1.289.7.7 0 0 1-.27-.057l-1.807-.787a7.425 7.425 0 0 1-13.395 0l-1.807.787a.7.7 0 0 1-.27.057.675.675 0 0 1-.27-1.293l1.873-.816a7.4 7.4 0 0 1-.253-1.941v-.675H2.552a.675.675 0 0 1 0-1.35h2.025v-.675a7.4 7.4 0 0 1 .253-1.941l-1.873-.816a.675.675 0 1 1 .54-1.237l1.807.787a7.425 7.425 0 0 1 13.395 0l1.807-.79a.675.675 0 0 1 .54 1.237l-1.873.823a7.4 7.4 0 0 1 .253 1.941v.675h2.025a.675.675 0 0 1 0 1.35h-2.025zm-13.5-2.025h12.15v-.675a6.075 6.075 0 0 0-12.15 0zm5.4 8.061v-6.711h-5.4v.675a6.08 6.08 0 0 0 5.4 6.036m6.75-6.036v-.675h-5.4v6.711a6.08 6.08 0 0 0 5.4-6.036"/></svg>