<svg xmlns="http://www.w3.org/2000/svg" width="24" height="24" fill="currentColor" viewBox="0 0 24 24"><path d="M13.519 8.963a.844.844 0 1 1 .844.844.844.844 0 0 1-.844-.844m-3.881-.844a.844.844 0 1 0 .844.844.844.844 0 0 0-.844-.844M21.957 12a.506.506 0 0 1-.506.506h-2.194v.844a7.3 7.3 0 0 1-.291 2.032l2.012.879a.506.506 0 0 1-.405.928l-1.96-.856a7.256 7.256 0 0 1-13.225 0l-1.96.856a.506.506 0 1 1-.405-.928l2.012-.879a7.3 7.3 0 0 1-.291-2.032v-.844H2.55a.507.507 0 0 1 0-1.013h2.194v-.844a7.3 7.3 0 0 1 .291-2.032l-2.012-.879a.506.506 0 0 1 .405-.928l1.96.856a7.256 7.256 0 0 1 13.225 0l1.96-.856a.506.506 0 1 1 .405.928l-2.012.879a7.3 7.3 0 0 1 .291 2.032v.844h2.194a.506.506 0 0 1 .506.506zm-16.2-.506h12.488v-.844a6.244 6.244 0 0 0-12.488 0zm5.738 8.078v-7.066H5.757v.844a6.25 6.25 0 0 0 5.738 6.222m6.75-7.066h-5.738v7.066a6.25 6.25 0 0 0 5.738-6.222z"/></svg>