<svg xmlns="http://www.w3.org/2000/svg" width="24" height="24" fill="currentColor" viewBox="0 0 24 24"><path d="M21.45 18.919h-1.519V9.3a1.18 1.18 0 0 0-1.181-1.181h-5.569V3.9a1.181 1.181 0 0 0-1.837-.982l-6.75 4.5a1.18 1.18 0 0 0-.526.983v10.518H2.549a.506.506 0 0 0 0 1.012h18.9a.506.506 0 0 0 0-1.012zm-2.7-9.787a.17.17 0 0 1 .169.169v9.619h-5.737V9.133zM5.081 8.401a.17.17 0 0 1 .075-.14l6.75-4.501a.169.169 0 0 1 .262.14v15.019H5.08zm5.4 2.249V12a.506.506 0 0 1-1.012 0v-1.35a.506.506 0 0 1 1.012 0m-2.7 0V12a.507.507 0 0 1-1.013 0v-1.35a.507.507 0 0 1 1.013 0m0 4.725v1.35a.507.507 0 0 1-1.013 0v-1.35a.507.507 0 0 1 1.013 0m2.7 0v1.35a.506.506 0 0 1-1.012 0v-1.35a.506.506 0 0 1 1.012 0"/></svg>