<svg xmlns="http://www.w3.org/2000/svg" width="24" height="24" fill="currentColor" viewBox="0 0 24 24"><path d="M5.25 16.725h3.375v2.025a.675.675 0 0 1-.675.675H5.925a.675.675 0 0 1-.675-.675zm10.125 2.025a.675.675 0 0 0 .675.675h2.025a.675.675 0 0 0 .675-.675v-2.025h-3.375zM5.25 7.275v3.375h13.5V7.275z" opacity=".2"/><path d="M16.725 3.9h-9.45a2.7 2.7 0 0 0-2.7 2.7v12.15a1.35 1.35 0 0 0 1.35 1.35H7.95a1.35 1.35 0 0 0 1.35-1.35V17.4h5.4v1.35a1.35 1.35 0 0 0 1.35 1.35h2.025a1.35 1.35 0 0 0 1.35-1.35V6.6a2.7 2.7 0 0 0-2.7-2.7m-10.8 12.15v-4.725h12.15v4.725zm0-8.1h12.15v2.025H5.925zm1.35-2.7h9.45a1.35 1.35 0 0 1 1.35 1.35H5.925a1.35 1.35 0 0 1 1.35-1.35m.675 13.5H5.925V17.4H7.95zm8.1 0V17.4h2.025v1.35zm-6.075-5.063a1.013 1.013 0 1 1-1.013-1.012 1.013 1.013 0 0 1 1.012 1.012zm6.075 0a1.013 1.013 0 1 1-1.012-1.012 1.013 1.013 0 0 1 1.012 1.012m6.075-5.738v2.025a.675.675 0 0 1-1.35 0V7.949a.675.675 0 0 1 1.35 0m-18.9 0v2.025a.675.675 0 0 1-1.35 0V7.949a.675.675 0 0 1 1.35 0"/></svg>