<svg xmlns="http://www.w3.org/2000/svg" width="24" height="24" fill="currentColor" viewBox="0 0 24 24"><path d="M19.804 17.301a1.013 1.013 0 0 1 0 1.434l-1.071 1.068a1.013 1.013 0 0 1-1.434 0l-4.772-4.773-1.623 4.233c0 .008-.007.018-.011.027a1.34 1.34 0 0 1-1.232.809h-.067a1.34 1.34 0 0 1-1.216-.928L3.968 5.664a1.35 1.35 0 0 1 1.698-1.698l13.507 4.41a1.35 1.35 0 0 1 .119 2.514l-.027.011-4.233 1.626zM9.3 3.9a.675.675 0 0 0 .675-.675V2.55a.675.675 0 0 0-1.35 0v.675A.675.675 0 0 0 9.3 3.9M2.55 9.975h.675a.675.675 0 0 0 0-1.35H2.55a.675.675 0 0 0 0 1.35m9.148-5.471a.675.675 0 0 0 .906-.302l.675-1.35a.675.675 0 0 0-1.207-.604l-.675 1.35a.675.675 0 0 0 .301.906m-8.1 6.893-1.35.675a.675.675 0 0 0 .604 1.207l1.35-.675a.675.675 0 1 0-.604-1.207"/></svg>