<svg xmlns="http://www.w3.org/2000/svg" width="24" height="24" fill="currentColor" viewBox="0 0 24 24"><path d="M8.794 3.225V2.55a.507.507 0 0 1 1.013 0v.675a.507.507 0 0 1-1.013 0M2.55 9.806h.675a.507.507 0 0 0 0-1.013H2.55a.507.507 0 0 0 0 1.013m9.224-5.453a.506.506 0 0 0 .679-.227l.675-1.35a.506.506 0 0 0-.906-.453l-.675 1.35a.506.506 0 0 0 .227.68m-8.1 7.194-1.35.675a.506.506 0 0 0 .452.906l1.35-.675a.506.506 0 1 0-.452-.906m15.911 5.297a1.18 1.18 0 0 1 0 1.671l-1.071 1.071a1.18 1.18 0 0 1-1.671 0l-4.329-4.329a.17.17 0 0 0-.271.046l-1.498 3.902-.008.02a1.17 1.17 0 0 1-1.078.708h-.057a1.17 1.17 0 0 1-1.061-.812L4.128 5.614a1.181 1.181 0 0 1 1.485-1.485L19.12 8.542a1.181 1.181 0 0 1 .104 2.194l-.02.008-3.902 1.498a.17.17 0 0 0-.045.271zm-.716.716-4.329-4.329a1.18 1.18 0 0 1 .364-1.919l.02-.008 3.902-1.498a.169.169 0 0 0-.022-.305L5.298 5.09a.2.2 0 0 0-.055-.009.17.17 0 0 0-.154.218l4.41 13.506a.155.155 0 0 0 .149.114.15.15 0 0 0 .155-.092l1.498-3.902.008-.02a1.18 1.18 0 0 1 1.919-.364l4.329 4.329a.17.17 0 0 0 .239 0l1.07-1.07a.17.17 0 0 0 0-.239z"/></svg>