<svg xmlns="http://www.w3.org/2000/svg" width="24" height="24" fill="currentColor" viewBox="0 0 24 24"><path d="m19.228 18.159-1.068 1.068a.675.675 0 0 1-.954 0l-4.329-4.329a.675.675 0 0 0-1.097.208l-1.504 3.916a.675.675 0 0 1-1.253-.06L4.61 5.456a.675.675 0 0 1 .844-.844L18.962 9.02a.675.675 0 0 1 .06 1.253l-3.916 1.504a.675.675 0 0 0-.208 1.097l4.329 4.329a.675.675 0 0 1 0 .957z" opacity=".2"/><path d="M8.625 3.225V2.55a.675.675 0 0 1 1.35 0v.675a.675.675 0 0 1-1.35 0M2.55 9.975h.675a.675.675 0 0 0 0-1.35H2.55a.675.675 0 0 0 0 1.35m9.148-5.471a.675.675 0 0 0 .906-.302l.675-1.35a.675.675 0 0 0-1.207-.604l-.675 1.35a.675.675 0 0 0 .301.906m-8.1 6.893-1.35.675a.675.675 0 0 0 .604 1.207l1.35-.675a.675.675 0 1 0-.604-1.207m16.106 5.328a1.35 1.35 0 0 1 0 1.909l-1.07 1.07a1.35 1.35 0 0 1-1.909 0l-4.328-4.329-1.493 3.889c0 .008-.007.018-.011.027a1.34 1.34 0 0 1-1.232.809h-.067a1.34 1.34 0 0 1-1.216-.928L3.968 5.665a1.35 1.35 0 0 1 1.698-1.698l13.507 4.41a1.35 1.35 0 0 1 .119 2.514l-.027.011-3.889 1.493zm-.954.954-4.329-4.329a1.35 1.35 0 0 1 .416-2.194l.027-.012 3.877-1.488L5.25 5.25l4.404 13.488 1.489-3.881c0-.009.007-.019.011-.028a1.35 1.35 0 0 1 .986-.788 1.4 1.4 0 0 1 .253-.024 1.35 1.35 0 0 1 .953.396l4.332 4.337z"/></svg>