<svg xmlns="http://www.w3.org/2000/svg" width="24" height="24" fill="currentColor" viewBox="0 0 24 24"><path d="M16.05 6.094h-8.1a.506.506 0 0 0-.506.506v4.05a.506.506 0 0 0 .506.506h8.1a.506.506 0 0 0 .506-.506V6.6a.506.506 0 0 0-.506-.506m-.506 4.05H8.456V7.106h7.087zm2.531-6.75H5.925a1.18 1.18 0 0 0-1.181 1.181v14.85a1.18 1.18 0 0 0 1.181 1.181h12.15a1.18 1.18 0 0 0 1.181-1.181V4.575a1.18 1.18 0 0 0-1.181-1.181m.169 16.031a.17.17 0 0 1-.169.169H5.925a.17.17 0 0 1-.169-.169V4.575a.17.17 0 0 1 .169-.169h12.15a.17.17 0 0 1 .169.169zm-8.775-5.738a.844.844 0 1 1-.844-.844.844.844 0 0 1 .844.844m3.375 0a.844.844 0 1 1-.844-.844.844.844 0 0 1 .844.844m3.375 0a.844.844 0 1 1-.844-.844.844.844 0 0 1 .844.844m-6.75 3.375a.844.844 0 1 1-.844-.844.844.844 0 0 1 .844.844m3.375 0a.844.844 0 1 1-.844-.844.844.844 0 0 1 .844.844m3.375 0a.844.844 0 1 1-.844-.844.844.844 0 0 1 .844.844"/></svg>