<svg xmlns="http://www.w3.org/2000/svg" width="24" height="24" fill="currentColor" viewBox="0 0 24 24"><path d="M18.75 4.069h-2.194v-.844a.507.507 0 0 0-1.013 0v.844H8.456v-.844a.507.507 0 0 0-1.013 0v.844H5.249A1.18 1.18 0 0 0 4.068 5.25v13.5a1.18 1.18 0 0 0 1.181 1.181h13.5a1.18 1.18 0 0 0 1.181-1.181V5.25a1.18 1.18 0 0 0-1.181-1.181zM5.25 5.081h2.194v.844a.507.507 0 0 0 1.013 0v-.844h7.087v.844a.506.506 0 0 0 1.012 0v-.844h2.194a.17.17 0 0 1 .169.169v2.869H5.081V5.25a.17.17 0 0 1 .169-.169m13.5 13.838H5.25a.17.17 0 0 1-.169-.169V9.131h13.837v9.619a.17.17 0 0 1-.169.169zm-5.569-4.894A1.181 1.181 0 1 1 12 12.844a1.18 1.18 0 0 1 1.181 1.181"/></svg>