<svg xmlns="http://www.w3.org/2000/svg" width="24" height="24" fill="currentColor" viewBox="0 0 24 24"><path d="M21.45 9.975h-.911l-2.344-5.273a1.35 1.35 0 0 0-1.234-.802H7.038a1.35 1.35 0 0 0-1.234.802L3.46 9.975h-.911a.675.675 0 0 0 0 1.35h.675v6.75a1.35 1.35 0 0 0 1.35 1.35h2.025a1.35 1.35 0 0 0 1.35-1.35V17.4h8.1v.675a1.35 1.35 0 0 0 1.35 1.35h2.025a1.35 1.35 0 0 0 1.35-1.35v-6.75h.675a.675.675 0 0 0 0-1.35zm-13.5 4.05H5.925a.675.675 0 0 1 0-1.35H7.95a.675.675 0 0 1 0 1.35m10.125 0H16.05a.675.675 0 0 1 0-1.35h2.025a.675.675 0 0 1 0 1.35M4.939 9.975l2.1-4.725h9.923l2.1 4.725z"/></svg>