<svg viewBox="0 0 24 24" fill="none" xmlns="http://www.w3.org/2000/svg" width="24" height="24">
<rect x="3.90002" y="5.92505" width="16.2" height="12.15" rx="0.75" fill="black" fill-opacity="0.2"/>
<path d="M19.3506 5.4248C20.0405 5.42513 20.6004 5.98482 20.6006 6.6748V17.3379C20.6004 18.0279 20.0405 18.5876 19.3506 18.5879H4.65039C3.96016 18.5879 3.40059 18.0281 3.40039 17.3379V6.6748C3.40059 5.98462 3.96016 5.4248 4.65039 5.4248H19.3506ZM4.40039 17.3379C4.40059 17.4758 4.51244 17.5879 4.65039 17.5879H7.7998V16.5312H4.40039V17.3379ZM8.7998 17.5879H15.2002V16.5312H8.7998V17.5879ZM16.2002 17.5879H19.3506C19.4883 17.5876 19.6004 17.4756 19.6006 17.3379V16.5312H16.2002V17.5879ZM4.40039 15.5312H19.6006V8.48145H4.40039V15.5312ZM4.65039 6.4248C4.51244 6.4248 4.40059 6.5369 4.40039 6.6748V7.48145H7.7998V6.4248H4.65039ZM16.2002 7.48145H19.6006V6.6748C19.6004 6.5371 19.4883 6.42513 19.3506 6.4248H16.2002V7.48145ZM8.7998 7.48145H15.2002V6.4248H8.7998V7.48145Z" fill="black"/>
</svg>