<svg xmlns="http://www.w3.org/2000/svg" fill="currentColor" viewBox="0 0 24 24" width="24" height="24"><path d="M18.075 8.625a6.08 6.08 0 0 1-3.358 5.434L12 8.625l-2.717 5.434a6.075 6.075 0 1 1 8.792-5.434" opacity=".2"/><path d="M12.604 8.323a.675.675 0 0 0-1.208 0l-6.075 12.15a.675.675 0 0 0 1.207.604l1.169-2.327h8.615l1.164 2.327a.68.68 0 0 0 .6.373.675.675 0 0 0 .603-.977zM12 10.135l2.283 4.566H9.717zm-3.628 7.266.675-1.35h5.915l.675 1.35zm6.289-8.291a2.7 2.7 0 1 0-5.316 0 .675.675 0 1 1-1.328.24 4.05 4.05 0 1 1 7.97 0 .675.675 0 0 1-.663.555 1 1 0 0 1-.121-.011.675.675 0 0 1-.547-.785zm-8.049 3.583a6.75 6.75 0 1 1 10.775 0 .675.675 0 0 1-1.077-.814 5.4 5.4 0 1 0-8.621 0 .675.675 0 0 1-1.077.814"/></svg>