<svg viewBox="0 0 24 24" fill="none" xmlns="http://www.w3.org/2000/svg" width="24" height="24">
<path d="M3.90039 16.5322H8.80078V18.0811H4.65039C4.23618 18.0811 3.90039 17.7453 3.90039 17.3311V16.5322ZM14.2002 16.5322V18.0811H9.80078V16.5322H14.2002ZM20.0996 17.3311C20.0996 17.7453 19.7638 18.0811 19.3496 18.0811H15.2002V16.5322H20.0996V17.3311ZM20.0996 15.5322H3.90039V8.48242H20.0996V15.5322ZM8.80078 7.48242H3.90039V6.68164C3.90039 6.26743 4.23618 5.93164 4.65039 5.93164H8.80078V7.48242ZM19.3496 5.93164C19.7638 5.93164 20.0996 6.26743 20.0996 6.68164V7.48242H15.2002V5.93164H19.3496ZM14.2002 7.48242H9.80078V5.93164H14.2002V7.48242Z" fill="black"/>
</svg>