<svg xmlns="http://www.w3.org/2000/svg" width="24" height="24" fill="currentColor" viewBox="0 0 24 24"><path d="M20.606 18.75a.506.506 0 0 1-.506.506H3.9a.506.506 0 0 1-.506-.506V5.25a.507.507 0 0 1 1.013 0v12.994h15.694a.506.506 0 0 1 .506.506zm-8.269-4.219a.844.844 0 1 0-.844-.844.844.844 0 0 0 .844.844m-2.025-4.725a.844.844 0 1 0-.844-.844.844.844 0 0 0 .844.844m-2.7 6.075a.844.844 0 1 0-.844-.844.844.844 0 0 0 .844.844m8.1-4.05a.844.844 0 1 0-.844-.844.844.844 0 0 0 .844.844m2.025-3.375a.844.844 0 1 0-.844-.844.844.844 0 0 0 .844.844m-.675 5.738a.844.844 0 1 0 .844.844.844.844 0 0 0-.844-.844"/></svg>