<svg viewBox="0 0 24 24" fill="none" xmlns="http://www.w3.org/2000/svg" width="24" height="24">
<path opacity="0.2" d="M3.4624 18.75V5.25H18.3124C18.6704 5.25 19.0138 5.39223 19.267 5.64541C19.5202 5.89858 19.6624 6.24196 19.6624 6.6V18.75H3.4624Z" fill="black"/>
<path d="M2.9624 5.25C2.9624 4.97386 3.18626 4.75 3.4624 4.75C3.73854 4.75 3.9624 4.97386 3.9624 5.25V18.25H19.6626C19.9387 18.2501 20.1626 18.4739 20.1626 18.75C20.1626 19.0261 19.9387 19.2499 19.6626 19.25H3.4624C3.18626 19.25 2.9624 19.0261 2.9624 18.75V5.25Z" fill="black"/>
<path d="M19.3335 10.2575C19.5413 10.0757 19.8567 10.0966 20.0386 10.3044C20.2203 10.5121 20.1993 10.8276 19.9917 11.0094L14.5913 15.735C14.4135 15.8903 14.1513 15.9001 13.9624 15.7585L8.88623 11.9518L3.7915 16.4098C3.58378 16.5915 3.26827 16.5705 3.08643 16.3629C2.90458 16.1551 2.92548 15.8387 3.1333 15.6569L8.53271 10.9323L8.60303 10.8805C8.775 10.7762 8.99713 10.7847 9.1626 10.9088L14.2378 14.7155L19.3335 10.2575Z" fill="black"/>
<path d="M14.272 6.80846C14.1021 6.80534 13.9418 6.88903 13.8472 7.03014L8.82666 14.5145L3.85205 8.32018C3.6791 8.10517 3.36511 8.07121 3.1499 8.244C2.93465 8.41684 2.90005 8.73084 3.07275 8.94615L8.47314 15.6717C8.57277 15.7956 8.72547 15.8651 8.88428 15.8583C9.04314 15.8514 9.18925 15.7686 9.27783 15.6366L14.2466 8.23033L19.2378 16.2967C19.3831 16.5312 19.6906 16.6038 19.9253 16.4588C20.1601 16.3135 20.2327 16.0052 20.0874 15.7704L14.688 7.04576C14.5986 6.90134 14.4418 6.81164 14.272 6.80846Z" fill="black"/>
</svg>