<svg xmlns="http://www.w3.org/2000/svg" width="24" height="24" fill="currentColor" viewBox="0 0 24 24"><path d="M11.325 18.036v2.341a.34.34 0 0 1-.376.337 8.794 8.794 0 0 1-7.661-7.661.34.34 0 0 1 .337-.376h2.339a6.084 6.084 0 0 0 5.361 5.359m5.351-5.361h-4.001v4.001a4.73 4.73 0 0 0 4.001-4.001m-4.001-5.351v4.001h4.001a4.73 4.73 0 0 0-4.001-4.001m7.702 5.351h-2.341a6.084 6.084 0 0 1-5.361 5.361v2.341a.34.34 0 0 0 .376.337 8.794 8.794 0 0 0 7.661-7.661.338.338 0 0 0-.336-.378zm-2.341-1.35h2.341a.34.34 0 0 0 .337-.376 8.794 8.794 0 0 0-7.661-7.661.34.34 0 0 0-.376.337v2.339a6.084 6.084 0 0 1 5.359 5.361m-7.088-8.038a8.794 8.794 0 0 0-7.661 7.661.34.34 0 0 0 .337.376h2.339a6.084 6.084 0 0 1 5.361-5.361V3.622a.34.34 0 0 0-.376-.336zm-3.625 8.038h4.001V7.324a4.73 4.73 0 0 0-4.001 4.001m4.001 5.351v-4.001H7.323a4.73 4.73 0 0 0 4.001 4.001"/></svg>