<svg viewBox="0 0 24 24" fill="none" xmlns="http://www.w3.org/2000/svg" width="24" height="24">
<path d="M4.5752 19.4248V4.5752C4.5752 4.2024 4.87721 3.90039 5.25 3.90039C5.62279 3.90039 5.9248 4.2024 5.9248 4.5752V19.4248C5.9248 19.7976 5.62279 20.1006 5.25 20.1006C4.87721 20.1006 4.5752 19.7976 4.5752 19.4248Z" fill="black"/>
<path d="M8.47705 11.4448L13.9897 11.4448V12.5554H8.47705L8.47705 11.4448ZM14.6646 10.0954L7.80225 10.0952C7.42948 10.0952 7.12749 10.3973 7.12744 10.77L7.12744 13.2302C7.12748 13.6029 7.42948 13.905 7.80225 13.905H14.6646C15.0373 13.905 15.3393 13.6029 15.3394 13.2302V10.7702C15.3394 10.3974 15.0373 10.0954 14.6646 10.0954Z" fill="black"/>
<path d="M9.2334 14.9274C8.86061 14.9274 8.55859 15.2295 8.55859 15.6022L8.55859 18.0622C8.55864 18.435 8.86063 18.737 9.2334 18.737L20.0957 18.737C20.4685 18.737 20.7705 18.435 20.7705 18.0622V15.6022C20.7705 15.2295 20.4685 14.9274 20.0957 14.9274L9.2334 14.9274ZM9.9082 17.3872L9.9082 16.2769L19.4209 16.2771V17.3872H9.9082Z" fill="black"/>
<path d="M17.5786 8.38477V5.9248C17.5786 5.55213 17.2764 5.25019 16.9038 5.25L12.0431 5.25C11.6705 5.25019 11.3683 5.55213 11.3683 5.9248L11.3683 8.38477C11.3683 8.75744 11.6705 9.05938 12.0431 9.05957H16.9035C16.9268 9.05957 16.9498 9.05839 16.9725 9.05609C17.0296 9.05029 17.0847 9.03735 17.1367 9.01819C17.3532 8.93849 17.5175 8.75103 17.5646 8.52079C17.5736 8.47684 17.5786 8.43139 17.5786 8.38477Z" fill="black"/>
</svg>