<svg viewBox="0 0 24 24" fill="none" xmlns="http://www.w3.org/2000/svg" width="24" height="24">
<path d="M2.9624 5.25C2.9624 4.97386 3.18626 4.75 3.4624 4.75C3.73854 4.75 3.9624 4.97386 3.9624 5.25V18.25H19.6626C19.9387 18.2501 20.1626 18.4739 20.1626 18.75C20.1626 19.0261 19.9387 19.2499 19.6626 19.25H3.4624C3.18626 19.25 2.9624 19.0261 2.9624 18.75V5.25Z" fill="black"/>
<path fill-rule="evenodd" clip-rule="evenodd" d="M14.0106 6.50879C14.5281 6.50863 14.9726 6.1964 15.1661 5.75H17.7488C17.9425 6.19651 18.3875 6.50879 18.9052 6.50879C19.6004 6.50858 20.1638 5.94522 20.164 5.25C20.164 4.5546 19.6005 3.99045 18.9052 3.99023C18.3873 3.99023 17.9422 4.30307 17.7486 4.75H15.1663C14.9729 4.30318 14.5283 3.99039 14.0106 3.99023C13.4927 3.99023 13.0476 4.30307 12.854 4.75H10.2721C10.0788 4.30318 9.63417 3.99039 9.11644 3.99023C8.59854 3.99023 8.15344 4.30307 7.95987 4.75H5.37769C5.18424 4.30339 4.73975 3.99078 4.22217 3.99062C3.5273 3.99062 2.96349 4.55539 2.9624 5.25C2.96261 5.94535 3.52676 6.50918 4.22217 6.50918C4.73986 6.50902 5.18444 6.1966 5.37782 5.75H7.96008C8.15376 6.19651 8.59873 6.50879 9.11644 6.50879C9.63398 6.50863 10.0784 6.1964 10.2719 5.75H12.8542C13.0479 6.19651 13.4929 6.50879 14.0106 6.50879ZM14.0106 4.99023C14.1536 4.99045 14.2694 5.10688 14.2694 5.25C14.2692 5.39294 14.1535 5.50858 14.0106 5.50879C13.8675 5.50879 13.751 5.39307 13.7508 5.25C13.7508 5.10675 13.8673 4.99023 14.0106 4.99023ZM4.48096 5.25039C4.48096 5.10727 4.36524 4.99084 4.22217 4.99062C4.07892 4.99062 3.9624 5.10675 3.9624 5.25C3.96261 5.39307 4.07905 5.50918 4.22217 5.50918C4.36511 5.50897 4.48075 5.39333 4.48096 5.25039ZM9.11644 4.99023C9.25951 4.99045 9.37523 5.10688 9.37523 5.25C9.37502 5.39294 9.25938 5.50858 9.11644 5.50879C8.97332 5.50879 8.85688 5.39307 8.85667 5.25C8.85667 5.10675 8.97319 4.99023 9.11644 4.99023ZM18.9052 4.99023C19.0482 4.99045 19.164 5.10688 19.164 5.25C19.1638 5.39294 19.0481 5.50858 18.9052 5.50879C18.7621 5.50879 18.6456 5.39307 18.6454 5.25C18.6454 5.10675 18.7619 4.99023 18.9052 4.99023Z" fill="black"/>
<path fill-rule="evenodd" clip-rule="evenodd" d="M8.86606 12.8216C9.15717 12.8215 9.42516 12.7227 9.63837 12.5568L13.004 14.3853C13.0369 14.0294 13.2181 13.7162 13.4852 13.5083L10.1194 11.6808C10.123 11.642 10.1248 11.6026 10.1248 11.5628C10.1248 10.8674 9.56141 10.3033 8.86606 10.3031C8.17053 10.3031 7.60629 10.8673 7.60629 11.5628C7.60632 11.6304 7.61165 11.6966 7.62191 11.7613L4.93437 13.4642C4.73185 13.3248 4.48654 13.2432 4.22217 13.2432C3.52663 13.2432 2.9624 13.8074 2.9624 14.5029C2.96243 14.6063 2.97493 14.7068 2.99846 14.8029C3.0658 15.0779 3.22353 15.3175 3.43836 15.4883C3.65351 15.6595 3.92593 15.7617 4.22217 15.7617C4.91739 15.7615 5.48075 15.1982 5.48096 14.5029C5.48096 14.4375 5.47596 14.3732 5.46634 14.3104L8.15804 12.604C8.35984 12.7414 8.6036 12.8216 8.86606 12.8216ZM8.86606 11.3031C9.00913 11.3033 9.12485 11.4197 9.12485 11.5628C9.12464 11.7058 9.009 11.8214 8.86606 11.8216C8.72294 11.8216 8.60651 11.7059 8.60629 11.5628C8.60629 11.4196 8.72281 11.3031 8.86606 11.3031ZM4.22217 14.2432C4.36524 14.2434 4.48096 14.3598 4.48096 14.5029C4.48075 14.6459 4.36511 14.7615 4.22217 14.7617C4.07905 14.7617 3.96261 14.646 3.9624 14.5029C3.9624 14.3597 4.07892 14.2432 4.22217 14.2432Z" fill="black"/>
<path fill-rule="evenodd" clip-rule="evenodd" d="M18.9053 11.0303C18.7562 11.0303 18.6132 11.0044 18.4804 10.9569L15.4276 14.0357C15.4853 14.1802 15.5171 14.3379 15.5171 14.5029C15.5169 15.1982 14.9535 15.7615 14.2583 15.7617C13.5629 15.7617 12.9987 15.1983 12.9985 14.5029C12.9985 14.4633 13.0004 14.424 13.004 14.3853C13.0369 14.0294 13.2181 13.7162 13.4852 13.5083C13.6987 13.3422 13.967 13.2432 14.2583 13.2432C14.4205 13.2432 14.5755 13.2739 14.7178 13.3298L17.7495 10.2728C17.6826 10.1192 17.6456 9.94966 17.6455 9.77148C17.6455 9.07595 18.2097 8.51172 18.9053 8.51172C19.6006 8.51193 20.1641 9.07608 20.1641 9.77148C20.1639 10.4667 19.6005 11.0301 18.9053 11.0303ZM18.9053 9.51172C19.0483 9.51193 19.1641 9.62837 19.1641 9.77148C19.1639 9.91442 19.0482 10.0301 18.9053 10.0303C18.7622 10.0303 18.6457 9.91455 18.6455 9.77148C18.6455 9.62824 18.762 9.51172 18.9053 9.51172ZM14.5171 14.5029C14.5171 14.3598 14.4014 14.2434 14.2583 14.2432C14.1151 14.2432 13.9985 14.3597 13.9985 14.5029C13.9987 14.646 14.1152 14.7617 14.2583 14.7617C14.4012 14.7615 14.5169 14.6459 14.5171 14.5029Z" fill="black"/>
</svg>