<svg viewBox="0 0 24 24" fill="none" xmlns="http://www.w3.org/2000/svg" width="24" height="24">
<path d="M17.4102 7.94434V8.36328L13.8535 12.2988L9.95605 10.5947C9.72847 10.4952 9.46718 10.5298 9.27441 10.6777L9.19629 10.748L6.60645 13.4668V7.94434H17.4102Z" fill="black"/>
<path fill-rule="evenodd" clip-rule="evenodd" d="M19.4248 4.5752C19.7828 4.5752 20.1267 4.71753 20.3799 4.9707C20.6329 5.22377 20.7753 5.56697 20.7754 5.9248V18.0752C20.7754 18.4332 20.6331 18.7771 20.3799 19.0303C20.1267 19.2834 19.7828 19.4248 19.4248 19.4248H4.5752C4.21718 19.4248 3.87329 19.2834 3.62012 19.0303C3.36694 18.7771 3.22461 18.4332 3.22461 18.0752V5.9248C3.22471 5.56702 3.36719 5.22376 3.62012 4.9707C3.87329 4.71753 4.21715 4.5752 4.5752 4.5752H19.4248ZM5.93164 6.5957C5.55922 6.5957 5.25684 6.89808 5.25684 7.27051V14.9736C5.2078 15.1151 5.20937 15.2678 5.25684 15.4092V16.7207C5.25684 17.0931 5.55922 17.3955 5.93164 17.3955H18.085L18.2207 17.3818C18.5278 17.3188 18.7588 17.0465 18.7588 16.7207L18.7598 7.27051C18.7596 6.8984 18.4571 6.59592 18.085 6.5957H5.93164Z" fill="black"/>
</svg>