<svg xmlns="http://www.w3.org/2000/svg" width="24" height="24" fill="currentColor" viewBox="0 0 24 24"><path d="M20.1 12a8.1 8.1 0 0 1-8.1 8.1v-4.725a3.375 3.375 0 0 0 0-6.75V3.9a8.1 8.1 0 0 1 8.1 8.1" opacity=".2"/><path d="M12 3.225a.675.675 0 0 0-.675.675v4.725A.675.675 0 0 0 12 9.3a2.7 2.7 0 1 1-2.339 1.35.675.675 0 0 0-.247-.922L5.322 7.365a.675.675 0 0 0-.922.247 8.775 8.775 0 1 0 7.601-4.388zM5.258 8.887l2.946 1.701A4 4 0 0 0 7.951 12c0 .129.007.253.019.381l-3.286.884a7.44 7.44 0 0 1 .575-4.379zm-.225 5.679 3.291-.881a4.06 4.06 0 0 0 3.002 2.308v3.401a7.44 7.44 0 0 1-6.293-4.828m7.643 4.828v-3.401a4.05 4.05 0 0 0 0-7.986V4.606a7.425 7.425 0 0 1 0 14.788"/></svg>