<svg viewBox="0 0 24 24" fill="none" xmlns="http://www.w3.org/2000/svg" width="24" height="24">
<path fill-rule="evenodd" clip-rule="evenodd" d="M14.0258 8.625C14.0258 8.64829 14.027 8.67131 14.0293 8.694L14.0258 8.625Z" fill="black"/>
<path d="M14.0259 8.625L14.0294 8.694L14.0259 18.75L11.3257 18.75L11.3247 11.3252L11.3257 5.25L14.0259 5.25L14.0259 8.625ZM9.97608 4.57519L9.97608 10.6494L6.6001 10.6494C6.22731 10.6494 5.92529 10.9524 5.92529 11.3252L5.92529 18.75L5.25049 18.75C4.8777 18.75 4.57471 19.052 4.57471 19.4248C4.57471 19.7976 4.8777 20.0996 5.25049 20.0996L6.6001 20.0996L10.6509 20.0996L14.7007 20.0996H18.7505L20.1001 20.0996C20.4729 20.0996 20.7749 19.7976 20.7749 19.4248C20.7749 19.052 20.4729 18.75 20.1001 18.75L19.4253 18.75L19.4253 8.625C19.4253 8.25221 19.1233 7.95019 18.7505 7.95019L15.3755 7.9502L15.3755 4.5752C15.3755 4.2024 15.0735 3.89941 14.7007 3.89941L10.6509 3.89941C10.2781 3.89941 9.97608 4.2024 9.97608 4.57519ZM9.97607 18.75L7.2749 18.75L7.2749 12L9.97608 12L9.97607 18.75Z" fill="black"/>
</svg>