<svg viewBox="0 0 24 24" fill="none" xmlns="http://www.w3.org/2000/svg" width="24" height="24">
<path fill-rule="evenodd" clip-rule="evenodd" d="M19.4248 4.5752C19.7828 4.5752 20.1267 4.71753 20.3799 4.9707C20.6329 5.22377 20.7753 5.56697 20.7754 5.9248V18.0752C20.7754 18.4332 20.6331 18.7771 20.3799 19.0303C20.1267 19.2834 19.7828 19.4248 19.4248 19.4248H4.5752C4.21718 19.4248 3.87329 19.2834 3.62012 19.0303C3.36694 18.7771 3.22461 18.4332 3.22461 18.0752V5.9248C3.22471 5.56702 3.36719 5.22376 3.62012 4.9707C3.87329 4.71753 4.21715 4.5752 4.5752 4.5752H19.4248ZM5.92578 5.91797C5.553 5.91797 5.251 6.22 5.25098 6.59277V16.7197C5.25098 17.0925 5.55299 17.3945 5.92578 17.3945H18.0781C18.4509 17.3945 18.7539 17.0925 18.7539 16.7197C18.7537 16.3471 18.4508 16.0449 18.0781 16.0449H6.60059V15.5068L10.0088 12.5244L13.623 15.2354C13.8781 15.4262 14.2318 15.4127 14.4717 15.2031L18.5234 11.6582C18.6756 11.5248 18.7509 11.3381 18.751 11.1504H18.7539V6.59277H18.751C18.7511 6.435 18.6988 6.2765 18.5869 6.14844C18.3414 5.86791 17.9143 5.8395 17.6338 6.08496L13.9941 9.26855L10.3818 6.55957C10.1586 6.39212 9.85906 6.3808 9.62695 6.52148L9.53223 6.59082L6.60059 9.15625V6.59277C6.60057 6.22 6.29856 5.91797 5.92578 5.91797Z" fill="black"/>
</svg>