<svg viewBox="0 0 24 24" fill="none" xmlns="http://www.w3.org/2000/svg" width="24" height="24">
<path opacity="0.2" fill-rule="evenodd" clip-rule="evenodd" d="M15.5498 6.4248V9.4748H5.75V6.4248H15.5498Z" fill="black"/>
<path fill-rule="evenodd" clip-rule="evenodd" d="M13.3496 18.575H5.75V19.4248C5.75 19.7009 5.52614 19.9248 5.25 19.9248C4.97386 19.9248 4.75 19.7009 4.75 19.4248V18.075V14.025V9.9752V5.9252V4.5752C4.75 4.29905 4.97386 4.0752 5.25 4.0752C5.52614 4.0752 5.75 4.29905 5.75 4.5752V5.4252H16.0498C16.3259 5.4252 16.5498 5.64905 16.5498 5.9252V9.4752H20.0996C20.3758 9.4752 20.5996 9.69905 20.5996 9.9752V14.025C20.5996 14.3011 20.3758 14.525 20.0996 14.525H13.8496V18.075C13.8496 18.3511 13.6258 18.575 13.3496 18.575ZM5.75 14.525V17.575H12.8496V14.525H5.75ZM15.5498 6.4252V9.4752H5.75V6.4252H15.5498ZM16.0498 10.475L5.75 10.4752V13.525L13.3496 13.5252L19.5996 13.525V10.4752L16.0498 10.475Z" fill="black"/>
</svg>