<svg viewBox="0 0 24 24" fill="none" xmlns="http://www.w3.org/2000/svg" width="24" height="24">
<path fill-rule="evenodd" clip-rule="evenodd" d="M17.2015 12.5H16.1958C15.9678 14.4337 14.4336 15.968 12.5 16.1962V17.2019C14.9864 16.9656 16.9654 14.9865 17.2015 12.5ZM7.80418 12.5C8.03217 14.4339 9.56618 15.9683 11.5 16.1963V17.202C9.01338 16.9659 7.03458 14.9867 6.79852 12.5H7.80418ZM6.79855 11.5H7.80422C8.03239 9.56638 9.56632 8.0326 11.5 7.80466V6.799C9.01351 7.03501 7.0348 9.01358 6.79855 11.5ZM16.1958 11.5H17.2014C16.9652 9.01377 14.9863 7.03532 12.5 6.79905V7.80472C14.4335 8.0329 15.9676 9.56658 16.1958 11.5Z" fill="black"/>
<path fill-rule="evenodd" clip-rule="evenodd" d="M12 20.6006C7.25053 20.6004 3.3999 16.7495 3.3999 12C3.40011 7.25066 7.25017 3.4006 11.9995 3.40039C16.749 3.40039 20.5999 7.25053 20.6001 12C20.6001 16.7496 16.7496 20.6006 12 20.6006ZM4.41609 12.5C4.66282 16.2991 7.70095 19.3377 11.5 19.5844V17.202V16.1963V12.5H7.80418H6.79852H4.41609ZM12.5 16.1962V17.2019V19.5844C16.2988 19.3374 19.3372 16.2989 19.5839 12.5H17.2015H16.1958H12.5V16.1962ZM11.5 4.41657C7.70108 4.66324 4.66303 7.70114 4.41611 11.5H6.79855H7.80422H11.5V7.80466V6.799V4.41657ZM12.5 7.80472V11.5H16.1958H17.2014H19.5839C19.3369 7.70134 16.2987 4.66355 12.5 4.41661V6.79905V7.80472ZM12.0005 19.082C12.1436 19.0822 12.2593 19.1987 12.2593 19.3418C12.2591 19.4847 12.1434 19.6004 12.0005 19.6006C11.8574 19.6006 11.7409 19.4849 11.7407 19.3418C11.7407 19.1985 11.8572 19.082 12.0005 19.082ZM19.5996 12C19.5996 11.8569 19.4839 11.7404 19.3408 11.7402C19.1976 11.7402 19.0811 11.8568 19.0811 12C19.0813 12.1431 19.1977 12.2588 19.3408 12.2588C19.4838 12.2586 19.5994 12.1429 19.5996 12ZM12.0005 4.40039C12.1436 4.4006 12.2593 4.51704 12.2593 4.66016C12.2591 4.8031 12.1434 4.91873 12.0005 4.91895C11.8574 4.91895 11.7409 4.80323 11.7407 4.66016C11.7407 4.51691 11.8572 4.40039 12.0005 4.40039ZM4.91846 12C4.91846 11.8569 4.80274 11.7404 4.65967 11.7402C4.51642 11.7402 4.3999 11.8568 4.3999 12C4.40011 12.1431 4.51655 12.2588 4.65967 12.2588C4.80261 12.2586 4.91825 12.1429 4.91846 12Z" fill="black"/>
<path fill-rule="evenodd" clip-rule="evenodd" d="M12.0005 5.91895C12.6957 5.91873 13.2591 5.35538 13.2593 4.66016C13.2593 3.96475 12.6949 3.4006 11.9995 3.40039C11.304 3.40039 10.7407 3.96462 10.7407 4.66016C10.7409 5.35551 11.3051 5.91895 12.0005 5.91895ZM12.2593 4.66016C12.2593 4.51704 12.1436 4.4006 12.0005 4.40039C11.8572 4.40039 11.7407 4.51691 11.7407 4.66016C11.7409 4.80323 11.8574 4.91895 12.0005 4.91895C12.1434 4.91873 12.2591 4.8031 12.2593 4.66016Z" fill="black"/>
<path fill-rule="evenodd" clip-rule="evenodd" d="M4.65967 13.2588C5.35489 13.2586 5.91825 12.6952 5.91846 12C5.91846 11.3046 5.35502 10.7404 4.65967 10.7402C3.96413 10.7402 3.3999 11.3045 3.3999 12C3.40011 12.6954 3.96426 13.2588 4.65967 13.2588ZM4.91846 12C4.91846 11.8569 4.80274 11.7404 4.65967 11.7402C4.51642 11.7402 4.3999 11.8568 4.3999 12C4.40011 12.1431 4.51655 12.2588 4.65967 12.2588C4.80261 12.2586 4.91825 12.1429 4.91846 12Z" fill="black"/>
<path fill-rule="evenodd" clip-rule="evenodd" d="M19.3408 13.2588C20.036 13.2586 20.5999 12.6952 20.6001 12C20.6001 11.3046 20.0362 10.7404 19.3408 10.7402C18.6453 10.7402 18.0811 11.3045 18.0811 12C18.0813 12.6954 18.6454 13.2588 19.3408 13.2588ZM19.5996 12C19.5996 11.8569 19.4839 11.7404 19.3408 11.7402C19.1976 11.7402 19.0811 11.8568 19.0811 12C19.0813 12.1431 19.1977 12.2588 19.3408 12.2588C19.4838 12.2586 19.5994 12.1429 19.5996 12Z" fill="black"/>
<path fill-rule="evenodd" clip-rule="evenodd" d="M12 20.6006C12.6952 20.6004 13.2591 20.037 13.2593 19.3418C13.2593 18.6464 12.6958 18.0822 12.0005 18.082C11.305 18.082 10.7407 18.6463 10.7407 19.3418C10.7409 20.0372 11.3046 20.6006 12 20.6006ZM12.2593 19.3418C12.2593 19.1987 12.1436 19.0822 12.0005 19.082C11.8572 19.082 11.7407 19.1985 11.7407 19.3418C11.7409 19.4849 11.8574 19.6006 12.0005 19.6006C12.1434 19.6004 12.2591 19.4847 12.2593 19.3418Z" fill="black"/>
</svg>