<svg viewBox="0 0 24 24" fill="none" xmlns="http://www.w3.org/2000/svg" width="24" height="24">
<path d="M19.4251 4.5752H4.5751C4.21706 4.5752 3.87368 4.71743 3.6205 4.9706C3.36733 5.22378 3.2251 5.56715 3.2251 5.9252V18.0752C3.2251 18.4332 3.36733 18.7766 3.6205 19.0298C3.87368 19.283 4.21706 19.4252 4.5751 19.4252H19.4251C19.7831 19.4252 20.1265 19.283 20.3797 19.0298C20.6329 18.7766 20.7751 18.4332 20.7751 18.0752V5.9252C20.7751 5.56715 20.6329 5.22378 20.3797 4.9706C20.1265 4.71743 19.7831 4.5752 19.4251 4.5752Z" fill="black"/>
<path d="M5.25146 6.58766C5.25146 6.21487 5.55348 5.91285 5.92627 5.91285C6.29906 5.91285 6.60107 6.21487 6.60107 6.58766V16.0447H18.0845C18.4571 16.0448 18.7593 16.3468 18.7593 16.7195C18.7592 17.0921 18.4571 17.3942 18.0845 17.3943H5.92627C5.55355 17.3943 5.25159 17.0922 5.25146 16.7195V6.58766Z" fill="white"/>
<path d="M10.8491 7.34951C10.2252 7.60122 9.61508 8.04353 9.36581 8.80101C9.2363 9.19469 9.23738 9.58565 9.38238 9.94868C9.52121 10.2959 9.76782 10.5569 10.0211 10.7545C10.5066 11.1333 11.1919 11.4055 11.7461 11.6301C12.3601 11.8791 12.8438 12.0809 13.1486 12.3186C13.2899 12.4289 13.344 12.5116 13.364 12.5617C13.3778 12.5962 13.394 12.6578 13.3516 12.7868C13.2725 13.0264 13.0639 13.2382 12.6458 13.4069C12.2245 13.5769 11.6763 13.6641 11.097 13.6934C10.526 13.7223 9.96744 13.6935 9.54742 13.6562C9.33883 13.6376 9.16658 13.6171 9.04816 13.6016C8.989 13.5938 8.94228 13.5874 8.91213 13.583C8.89754 13.5808 8.88663 13.5792 8.87967 13.5781C8.87616 13.5776 8.87208 13.5761 8.87208 13.5761H8.8707C8.50296 13.5161 8.15615 13.7663 8.09592 14.134C8.03598 14.5016 8.28495 14.8484 8.65249 14.9088H8.65525L8.6587 14.9095C8.66162 14.9099 8.66552 14.9108 8.67044 14.9115C8.68077 14.9132 8.69604 14.9157 8.71463 14.9185C8.75179 14.924 8.80508 14.9318 8.87208 14.9406C9.00635 14.9582 9.19715 14.9808 9.42727 15.0013C9.88533 15.0421 10.511 15.0752 11.1653 15.0421C11.8117 15.0093 12.5304 14.91 13.1513 14.6595C13.775 14.4078 14.3846 13.9658 14.6339 13.2087C14.7635 12.815 14.7623 12.4241 14.6173 12.061C14.4785 11.7135 14.2321 11.4516 13.9786 11.2538C13.4931 10.8751 12.8077 10.6042 12.2536 10.3796C11.6396 10.1306 11.1565 9.92816 10.8518 9.69042C10.7104 9.58004 10.6564 9.4974 10.6364 9.44735C10.6226 9.41284 10.6058 9.35178 10.6481 9.22293C10.727 8.98314 10.9355 8.77024 11.3539 8.60145C11.7752 8.43147 12.3241 8.34489 12.9034 8.31557C13.4744 8.2867 14.033 8.3155 14.453 8.35286C14.6618 8.37144 14.8338 8.39186 14.9522 8.40741C15.0111 8.41514 15.0567 8.42158 15.0869 8.42605C15.102 8.42829 15.1137 8.42979 15.1207 8.43089C15.1239 8.43139 15.1276 8.43227 15.1276 8.43227L15.1297 8.43296C15.4972 8.49272 15.8435 8.24325 15.9038 7.8757C15.964 7.50786 15.715 7.16125 15.3472 7.10092L15.3451 7.10023L15.3417 7.09954C15.3387 7.09906 15.3343 7.09895 15.3293 7.09816C15.3189 7.09654 15.3043 7.09332 15.2858 7.09056C15.2486 7.08504 15.1948 7.07798 15.1276 7.06916C14.9934 7.05153 14.8024 7.02885 14.5724 7.00839C14.1145 6.96765 13.4891 6.93388 12.8351 6.96696C12.1888 6.99966 11.47 7.09904 10.8491 7.34951Z" fill="white"/>
<path d="M15.232 8.52852C15.6514 8.52852 15.9914 8.18853 15.9914 7.76914C15.9914 7.34975 15.6514 7.00977 15.232 7.00977C14.8126 7.00977 14.4727 7.34975 14.4727 7.76914C14.4727 8.18853 14.8126 8.52852 15.232 8.52852Z" fill="black"/>
<path d="M15.4912 7.76953C15.4912 7.62641 15.3755 7.50998 15.2324 7.50977C15.0892 7.50977 14.9727 7.62628 14.9727 7.76953C14.9729 7.9126 15.0893 8.02832 15.2324 8.02832C15.3754 8.02811 15.491 7.91247 15.4912 7.76953ZM16.4912 7.76953C16.491 8.46476 15.9276 9.02811 15.2324 9.02832C14.537 9.02832 13.9729 8.46489 13.9727 7.76953C13.9727 7.074 14.5369 6.50977 15.2324 6.50977C15.9278 6.50998 16.4912 7.07413 16.4912 7.76953Z" fill="white"/>
<path d="M8.77598 14.9924C9.19537 14.9924 9.53535 14.6524 9.53535 14.233C9.53535 13.8136 9.19537 13.4736 8.77598 13.4736C8.35659 13.4736 8.0166 13.8136 8.0166 14.233C8.0166 14.6524 8.35659 14.9924 8.77598 14.9924Z" fill="black"/>
<path d="M9.03516 14.2334C9.03516 14.0903 8.91944 13.9738 8.77637 13.9736C8.63312 13.9736 8.5166 14.0901 8.5166 14.2334C8.51681 14.3765 8.63325 14.4922 8.77637 14.4922C8.91931 14.492 9.03495 14.3763 9.03516 14.2334ZM10.0352 14.2334C10.0349 14.9286 9.47159 15.492 8.77637 15.4922C8.08096 15.4922 7.51681 14.9288 7.5166 14.2334C7.5166 13.5379 8.08083 12.9736 8.77637 12.9736C9.47172 12.9738 10.0352 13.538 10.0352 14.2334Z" fill="white"/>
<path d="M9.99441 9.82341C10.4138 9.82341 10.7538 9.48343 10.7538 9.06404C10.7538 8.64465 10.4138 8.30466 9.99441 8.30466C9.57502 8.30466 9.23503 8.64465 9.23503 9.06404C9.23503 9.48343 9.57502 9.82341 9.99441 9.82341Z" fill="black"/>
<path d="M10.2536 9.06443C10.2536 8.92131 10.1379 8.80487 9.9948 8.80466C9.85155 8.80466 9.73503 8.92118 9.73503 9.06443C9.73525 9.2075 9.85168 9.32322 9.9948 9.32322C10.1377 9.32301 10.2534 9.20737 10.2536 9.06443ZM11.2536 9.06443C11.2534 9.75965 10.69 10.323 9.9948 10.3232C9.2994 10.3232 8.73525 9.75978 8.73503 9.06443C8.73503 8.3689 9.29927 7.80466 9.9948 7.80466C10.6902 7.80487 11.2536 8.36903 11.2536 9.06443Z" fill="white"/>
<path d="M13.9869 13.7723C14.4063 13.7723 14.7463 13.4323 14.7463 13.0129C14.7463 12.5935 14.4063 12.2535 13.9869 12.2535C13.5675 12.2535 13.2276 12.5935 13.2276 13.0129C13.2276 13.4323 13.5675 13.7723 13.9869 13.7723Z" fill="black"/>
<path d="M14.2461 13.0133C14.2461 12.8702 14.1304 12.7538 13.9873 12.7535C13.8441 12.7535 13.7276 12.8701 13.7276 13.0133C13.7278 13.1564 13.8442 13.2721 13.9873 13.2721C14.1303 13.2719 14.2459 13.1563 14.2461 13.0133ZM15.2461 13.0133C15.2459 13.7085 14.6826 14.2719 13.9873 14.2721C13.2919 14.2721 12.7278 13.7087 12.7276 13.0133C12.7276 12.3178 13.2918 11.7535 13.9873 11.7535C14.6827 11.7538 15.2461 12.3179 15.2461 13.0133Z" fill="white"/>
</svg>