<svg xmlns="http://www.w3.org/2000/svg" fill="currentColor" viewBox="0 0 24 24" width="24" height="24"><path d="M19.425 4.575H4.575a1.35 1.35 0 0 0-1.35 1.35v12.15a1.35 1.35 0 0 0 1.35 1.35h14.85a1.35 1.35 0 0 0 1.35-1.35V5.925a1.35 1.35 0 0 0-1.35-1.35M18.075 17.4H5.925a.675.675 0 0 1-.675-.675v-9.45a.675.675 0 0 1 1.35 0v1.746l2.7 2.7 2.897-2.898a.675.675 0 0 1 .955 0l2.897 2.898V9.975a.675.675 0 0 1 1.35 0v3.375a.675.675 0 0 1-.675.675h-3.375a.675.675 0 0 1 0-1.35h1.746l-2.421-2.421-2.897 2.898a.675.675 0 0 1-.955 0L6.6 10.929v5.121h11.475a.675.675 0 0 1 0 1.35"/></svg>