<svg viewBox="0 0 24 24" fill="none" xmlns="http://www.w3.org/2000/svg" width="24" height="24">
<path fill-rule="evenodd" clip-rule="evenodd" d="M19.4248 4.5752C19.7828 4.5752 20.1267 4.71753 20.3799 4.9707C20.6329 5.22377 20.7753 5.56697 20.7754 5.9248V18.0752C20.7754 18.4332 20.6331 18.7771 20.3799 19.0303C20.1267 19.2834 19.7828 19.4248 19.4248 19.4248H4.5752C4.21718 19.4248 3.87329 19.2834 3.62012 19.0303C3.36694 18.7771 3.22461 18.4332 3.22461 18.0752V5.9248C3.22471 5.56702 3.36719 5.22376 3.62012 4.9707C3.87329 4.71753 4.21715 4.5752 4.5752 4.5752H19.4248ZM5.92676 5.91406C5.55397 5.91406 5.25195 6.21607 5.25195 6.58887V16.7207C5.25227 17.0932 5.55416 17.3955 5.92676 17.3955H18.085C18.4573 17.3952 18.7595 17.093 18.7598 16.7207C18.7598 16.3481 18.4575 16.0462 18.085 16.0459H6.60156V14.2676L10.0049 12.1104L13.71 14.123C13.9742 14.2665 14.3016 14.218 14.5127 14.0039L18.5674 9.88477C18.8285 9.61905 18.8251 9.19105 18.5596 8.92969C18.294 8.6684 17.866 8.67214 17.6045 8.9375L13.9072 12.6934L10.3018 10.7354C10.1137 10.6332 9.88966 10.6273 9.69824 10.7148L9.61816 10.7588L6.60156 12.6699V7.2627H18.085C18.4575 7.26238 18.7598 6.96049 18.7598 6.58789C18.7596 6.2154 18.4574 5.9134 18.085 5.91309L5.92676 5.91406Z" fill="black"/>
</svg>