<svg xmlns="http://www.w3.org/2000/svg" width="24" height="24" fill="currentColor" viewBox="0 0 24 24"><path d="M16.725 12A4.725 4.725 0 1 1 12 7.275 4.725 4.725 0 0 1 16.725 12" opacity=".2"/><path d="M12 3.225A8.775 8.775 0 1 0 20.775 12 8.784 8.784 0 0 0 12 3.225m7.394 8.1h-2.038a5.41 5.41 0 0 0-4.681-4.681V4.606a7.436 7.436 0 0 1 6.719 6.719m-8.069 0H8.007a4.06 4.06 0 0 1 3.318-3.318zm0 1.35v3.318a4.06 4.06 0 0 1-3.318-3.318zm1.35 0h3.318a4.06 4.06 0 0 1-3.318 3.318zm0-1.35V8.007a4.06 4.06 0 0 1 3.318 3.318zm-1.35-6.719v2.038a5.41 5.41 0 0 0-4.681 4.681H4.606a7.436 7.436 0 0 1 6.719-6.719m-6.719 8.069h2.038a5.41 5.41 0 0 0 4.681 4.681v2.038a7.436 7.436 0 0 1-6.719-6.719m8.069 6.719v-2.038a5.41 5.41 0 0 0 4.681-4.681h2.038a7.436 7.436 0 0 1-6.719 6.719"/></svg>