<svg viewBox="0 0 24 24" fill="none" xmlns="http://www.w3.org/2000/svg" width="24" height="24">
<path fill-rule="evenodd" clip-rule="evenodd" d="M12.3018 6.93378L12.8272 4.97319C12.5558 4.94124 12.2797 4.9248 11.9998 4.9248C9.76865 4.9248 7.78134 5.96861 6.49951 7.59453L8.25708 8.60926L9.59502 9.38172L10.5153 9.91305L11.3711 10.4072L11.627 9.45241L11.902 8.42615L12.3018 6.93378Z" fill="black"/>
<path fill-rule="evenodd" clip-rule="evenodd" d="M11.0866 14.2526L10.7068 14.6324L10.3351 15.0041L9.24279 16.0964L8.16549 17.1737L7.808 17.5312L7.45105 17.8882L6.73836 18.6009L6.38248 18.9567L6.02686 19.3124C7.61707 20.5997 9.63123 21.384 11.8272 21.4232L11.7834 20.9222L11.7395 20.4208L11.6517 19.4168L11.6077 18.9139L11.5637 18.4103L11.4309 16.8927L11.2963 15.354L11.2504 14.8303L11.2036 14.2952L11.1908 14.1484L11.0866 14.2526Z" fill="black"/>
<path d="M7 11.925C7 12.9441 7.30491 13.892 7.82847 14.6825L8.92076 13.5902L9.67225 12.8387L10.3715 12.1395L9.51548 11.6452L8.59454 11.1135L7.25616 10.3408C7.09 10.8386 7 11.3713 7 11.925Z" fill="black"/>
<path d="M13.1221 13.2754L13.196 14.1209L13.2429 14.6562L13.2887 15.1801L13.4234 16.7195L13.5562 18.2375L13.6003 18.7412L13.6443 19.2442C16.0312 18.7103 17.9886 17.0387 18.9175 14.8283L18.4296 14.6975L17.9409 14.5666L16.468 14.1719L14.9739 13.7716L14.4651 13.6353L13.945 13.4959L13.1221 13.2754Z" fill="black"/>
<path fill-rule="evenodd" clip-rule="evenodd" d="M21.3594 13.4178C21.3594 13.4178 21.5001 13.3906 21.5001 11.9246C21.5001 7.88044 18.973 4.42647 15.4118 3.05566L14.8903 5.0018L14.7596 5.48958L14.6287 5.9781L14.2342 7.45034L13.8342 8.94316L13.6981 9.45113L13.5591 9.97015L13.2212 11.2311L14.4747 11.567L14.9922 11.7056L15.4991 11.8415L16.9902 12.241L18.4617 12.6353L18.95 12.7661L19.4377 12.8968L21.3594 13.4178Z" fill="black"/>
</svg>