<svg xmlns="http://www.w3.org/2000/svg" width="24" height="24" fill="currentColor" viewBox="0 0 24 24"><path d="M11.325 14.864v5.513a.34.34 0 0 1-.376.337 8.8 8.8 0 0 1-7.088-5.442.34.34 0 0 1 .227-.451l5.323-1.429a.34.34 0 0 1 .367.14 2.72 2.72 0 0 0 1.315 1.012.34.34 0 0 1 .231.319zm.68-11.639a.675.675 0 0 0-.68.675v4.725a.67.67 0 0 0 .664.675 2.7 2.7 0 0 1 .916 5.244.34.34 0 0 0-.23.32v5.513a.34.34 0 0 0 .375.337 8.775 8.775 0 0 0-1.045-17.489m-2.7 8.563a2.7 2.7 0 0 1 .35-1.132v-.006a.675.675 0 0 0-.048-.748.7.7 0 0 0-.208-.18L5.321 7.365a.675.675 0 0 0-.922.248 8.8 8.8 0 0 0-1.09 5.626.338.338 0 0 0 .422.28l5.334-1.434a.33.33 0 0 0 .243-.296z"/></svg>