<svg viewBox="0 0 24 24" fill="none" xmlns="http://www.w3.org/2000/svg" width="24" height="24">
<path d="M12.499 14.5229H19.5977V17.5674H12.499V14.5229Z" fill="black" fill-opacity="0.2"/>
<path d="M9.54932 6.43262H19.5977V9.47705H9.54932V6.43262Z" fill="black" fill-opacity="0.2"/>
<path d="M16.5508 10.478H19.5977V13.5225H16.5508V10.478Z" fill="black" fill-opacity="0.2"/>
<path fill-rule="evenodd" clip-rule="evenodd" d="M19.5977 13.5225H16.5508V10.478H19.5977V13.5225ZM20.5996 9.9751L20.6006 5.9248C20.6006 5.64883 20.3765 5.42507 20.1006 5.4248H5.75V4.5752C5.75 4.29905 5.52614 4.0752 5.25 4.0752C4.97386 4.0752 4.75 4.29905 4.75 4.5752V5.9248V9.9751V14.0249V18.0747V19.4248C4.75 19.7009 4.97386 19.9248 5.25 19.9248C5.52614 19.9248 5.75 19.7009 5.75 19.4248V18.5747H20.1006C20.3765 18.5744 20.6006 18.3507 20.6006 18.0747L20.5996 14.0249V9.9751ZM19.5977 6.43262H9.54932V9.47705H19.5977V6.43262ZM19.5977 14.5229H12.499V17.5674H19.5977V14.5229ZM15.5498 13.5249V10.4748L5.75 10.4752V13.5248L15.5498 13.5249ZM5.75 14.5249V17.5747H11.5007V14.5249H5.75ZM8.54688 6.4266V9.47515L5.75 9.47517V6.42508L8.54688 6.4266Z" fill="black"/>
</svg>