<svg viewBox="0 0 24 24" fill="none" xmlns="http://www.w3.org/2000/svg" width="24" height="24">
<path fill-rule="evenodd" clip-rule="evenodd" d="M12.7009 3.4971C13.0376 3.72324 13.2592 4.10773 13.2592 4.54385C13.2591 4.99017 13.0269 5.38214 12.6766 5.60566V5.96377C14.0448 6.11906 15.3199 6.73386 16.2934 7.70768C17.2669 8.68149 17.8813 9.95673 18.0361 11.325H18.392C18.6155 10.9732 19.0086 10.7397 19.456 10.7397C19.8931 10.7399 20.278 10.9628 20.5037 11.3011L20.5155 11.2961C20.5592 11.2768 20.5983 11.2484 20.6302 11.2128C20.6621 11.1772 20.6861 11.1353 20.7006 11.0897C20.7151 11.0442 20.7197 10.9961 20.7142 10.9486C20.4759 8.99961 19.5921 7.1864 18.2036 5.79796C16.8152 4.40952 15.002 3.52572 13.053 3.2874C13.0055 3.2819 12.9574 3.28655 12.9119 3.30103C12.8663 3.31551 12.8244 3.3395 12.7888 3.3714C12.7532 3.40331 12.7248 3.4424 12.7055 3.4861L12.7009 3.4971ZM11.3005 3.49642C10.963 3.72247 10.7407 4.1073 10.7407 4.54385C10.7408 4.99072 10.9739 5.3831 11.325 5.60648V5.96377C9.95648 6.11871 8.68104 6.73335 7.70719 7.70719C6.73335 8.68104 6.11871 9.95648 5.96377 11.325H5.61126C5.38799 10.9733 4.9953 10.7399 4.54804 10.7397C4.1106 10.7397 3.7251 10.9629 3.49923 11.3016C3.49482 11.2999 3.49045 11.298 3.4861 11.2961C3.4424 11.2768 3.40331 11.2484 3.3714 11.2128C3.3395 11.1772 3.31551 11.1353 3.30103 11.0897C3.28655 11.0442 3.2819 10.9961 3.2874 10.9486C3.52572 8.99961 4.40952 7.1864 5.79796 5.79796C7.1864 4.40952 8.99961 3.52572 10.9486 3.2874C10.996 3.28192 11.0439 3.28652 11.0893 3.3009C11.1348 3.31529 11.1766 3.33912 11.2122 3.37084C11.2477 3.40256 11.2761 3.44145 11.2956 3.48495L11.3005 3.49642ZM3.50091 12.6994C3.49593 12.7013 3.49099 12.7033 3.4861 12.7055C3.4424 12.7248 3.40331 12.7532 3.3714 12.7888C3.3395 12.8244 3.31551 12.8663 3.30103 12.9119C3.28655 12.9574 3.2819 13.0055 3.2874 13.053C3.52572 15.002 4.40952 16.8152 5.79796 18.2036C7.1864 19.5921 8.99961 20.4759 10.9486 20.7142C10.9961 20.7197 11.0442 20.7151 11.0897 20.7006C11.1353 20.6861 11.1772 20.6621 11.2128 20.6302C11.2484 20.5983 11.2768 20.5592 11.2961 20.5155L11.3013 20.5031C10.9634 20.2774 10.7408 19.8927 10.7407 19.456C10.7407 19.0089 10.9738 18.6161 11.325 18.3925V18.0361C9.95673 17.8813 8.68149 17.2669 7.70768 16.2934C6.73386 15.3199 6.11906 14.0448 5.96377 12.6766H5.60926C5.38564 13.0263 4.99397 13.2582 4.54804 13.2583C4.11168 13.2583 3.727 13.0365 3.50091 12.6994ZM12.6987 20.5034L12.7038 20.5155C12.7231 20.5592 12.7515 20.5983 12.7871 20.6302C12.8227 20.6621 12.8646 20.6861 12.9102 20.7006C12.9557 20.7151 13.0038 20.7197 13.0513 20.7142C15.0003 20.4759 16.8135 19.5921 18.202 18.2036C19.5904 16.8152 20.4742 15.002 20.7125 13.053C20.7183 13.0055 20.7138 12.9574 20.6996 12.9117C20.6853 12.8661 20.6615 12.824 20.6298 12.7883C20.598 12.7526 20.559 12.724 20.5154 12.7044L20.5026 12.699C20.2768 13.0362 19.8924 13.2582 19.456 13.2583C19.0092 13.2583 18.6166 13.0257 18.3929 12.675H18.0361C17.8812 14.0434 17.2666 15.3189 16.2927 16.2927C15.3189 17.2666 14.0434 17.8812 12.675 18.0361V18.3923C13.0262 18.6158 13.2592 19.0088 13.2592 19.456C13.2591 19.8928 13.0366 20.2776 12.6987 20.5034ZM15.339 15.339C14.6181 16.0599 13.6838 16.5288 12.675 16.676V12.675H16.676C16.5288 13.6838 16.0599 14.6181 15.339 15.339ZM15.339 8.66092C16.0599 9.38181 16.5288 10.3162 16.676 11.325H12.675V7.3239C13.6838 7.47111 14.6181 7.94003 15.339 8.66092ZM8.66092 8.66092C9.38181 7.94003 10.3162 7.47111 11.325 7.3239V11.325H7.3239C7.47111 10.3162 7.94003 9.38181 8.66092 8.66092ZM8.66092 15.339C7.94003 14.6181 7.47111 13.6838 7.3239 12.675H11.325V16.676C10.3162 16.5288 9.38181 16.0599 8.66092 15.339Z" fill="black"/>
<path fill-rule="evenodd" clip-rule="evenodd" d="M12.2592 4.54385C12.2592 4.40073 12.1435 4.28429 12.0004 4.28408C11.8572 4.28408 11.7407 4.4006 11.7407 4.54385C11.7409 4.68692 11.8573 4.80264 12.0004 4.80264C12.1434 4.80243 12.259 4.68679 12.2592 4.54385Z" fill="black"/>
<path fill-rule="evenodd" clip-rule="evenodd" d="M4.80683 11.9995C4.80683 11.8564 4.69111 11.74 4.54804 11.7397C4.40479 11.7397 4.28828 11.8563 4.28828 11.9995C4.28849 12.1426 4.40492 12.2583 4.54804 12.2583C4.69098 12.2581 4.80662 12.1425 4.80683 11.9995Z" fill="black"/>
<path fill-rule="evenodd" clip-rule="evenodd" d="M19.456 11.7397C19.5991 11.74 19.7148 11.8564 19.7148 11.9995C19.7146 12.1425 19.599 12.2581 19.456 12.2583C19.3129 12.2583 19.1965 12.1426 19.1963 11.9995C19.1963 11.8563 19.3128 11.7397 19.456 11.7397Z" fill="black"/>
<path d="M12.2592 19.456C12.2592 19.3128 12.1435 19.1964 12.0004 19.1962C11.8572 19.1962 11.7407 19.3127 11.7407 19.456C11.7409 19.599 11.8573 19.7147 12.0004 19.7147C12.1434 19.7145 12.259 19.5989 12.2592 19.456Z" fill="black"/>
</svg>