<svg viewBox="0 0 24 24" fill="none" xmlns="http://www.w3.org/2000/svg" width="24" height="24">
<path fill-rule="evenodd" clip-rule="evenodd" d="M19.4248 4.5752C19.7828 4.5752 20.1267 4.71753 20.3799 4.9707C20.6329 5.22377 20.7753 5.56697 20.7754 5.9248V18.0752C20.7754 18.4332 20.6331 18.7771 20.3799 19.0303C20.1267 19.2834 19.7828 19.4248 19.4248 19.4248H4.5752C4.21718 19.4248 3.87329 19.2834 3.62012 19.0303C3.36694 18.7771 3.22461 18.4332 3.22461 18.0752V5.9248C3.22471 5.56702 3.36719 5.22376 3.62012 4.9707C3.87329 4.71753 4.21715 4.5752 4.5752 4.5752H19.4248ZM5.92676 5.91309C5.55397 5.91309 5.25195 6.2151 5.25195 6.58789V16.7197C5.25208 17.0924 5.55404 17.3945 5.92676 17.3945H18.085C18.4574 17.3942 18.7596 17.0922 18.7598 16.7197C18.7598 16.3471 18.4575 16.0452 18.085 16.0449H6.60156V15.8965L10.0049 13.7393L13.71 15.752C13.9742 15.8953 14.3016 15.8469 14.5127 15.6328L18.5674 11.5137C18.8286 11.248 18.825 10.82 18.5596 10.5586C18.2939 10.2973 17.866 10.3009 17.6045 10.5664L13.9072 14.3223L10.3018 12.3643C10.1137 12.2621 9.88968 12.2561 9.69824 12.3438L9.61816 12.3877L6.60156 14.2988V12.4463L10.0117 9.46289L13.627 12.1738C13.8821 12.365 14.2366 12.3516 14.4766 12.1416L18.5293 8.5957C18.8094 8.35026 18.8379 7.924 18.5928 7.64355C18.3474 7.36311 17.9212 7.33491 17.6406 7.58008L13.999 10.7646L10.3848 8.05469C10.1616 7.88733 9.86193 7.87621 9.62988 8.0166L9.53516 8.08691L6.60156 10.6533V6.58789C6.60156 6.2152 6.29941 5.91325 5.92676 5.91309Z" fill="black"/>
</svg>