<svg viewBox="0 0 24 24" fill="none" xmlns="http://www.w3.org/2000/svg" width="24" height="24">
<path fill-rule="evenodd" clip-rule="evenodd" d="M12.8275 4.97303C12.5561 4.94108 12.28 4.92465 12.0001 4.92465C9.76895 4.92465 7.78163 5.96846 6.4998 7.59437L11.3714 10.407L12.8275 4.97303Z" fill="black" fill-opacity="0.2"/>
<path fill-rule="evenodd" clip-rule="evenodd" d="M6.02686 19.3123C7.61707 20.5996 9.63123 21.3839 11.8272 21.4231L11.1908 14.1483L6.02686 19.3123Z" fill="black" fill-opacity="0.2"/>
<path d="M7.00006 11.9246C7.00006 12.9438 7.30497 13.8917 7.82853 14.6822L10.3716 12.1391L7.25622 10.3405C7.09006 10.8383 7.00006 11.371 7.00006 11.9246Z" fill="black" fill-opacity="0.2"/>
<path d="M13.122 13.2751L13.6442 19.2439C16.0312 18.71 17.9886 17.0384 18.9174 14.828L13.122 13.2751Z" fill="black" fill-opacity="0.2"/>
<path fill-rule="evenodd" clip-rule="evenodd" d="M21.3594 13.4178C21.3594 13.4178 21.5001 13.3907 21.5001 11.9247C21.5001 7.88046 18.973 4.42648 15.4118 3.05566L13.2212 11.2311L19.4376 12.8968L21.3594 13.4178Z" fill="black" fill-opacity="0.2"/>
<path d="M11.9998 4.42465C12.2992 4.42465 12.595 4.4422 12.8855 4.47641L13.4598 4.54379L11.6854 11.1659L11.1219 10.8397L5.7498 7.73812L6.10723 7.285C7.47973 5.54406 9.60918 4.42473 11.9998 4.42465ZM11.9998 5.42465C10.1381 5.42472 8.46072 6.20843 7.2752 7.46371L11.0564 9.64828L11.1443 9.32308L12.1873 5.42953C12.1251 5.42777 12.0625 5.42465 11.9998 5.42465Z" fill="black"/>
<path d="M11.689 14.1044L11.7017 14.2518L12.3735 21.9325L11.8179 21.9227C9.50674 21.8814 7.38601 21.0559 5.7124 19.7011L5.28076 19.3515L7.09717 17.5341L7.45459 17.1776L11.5952 13.037L11.689 14.1044ZM10.689 15.3573L7.09229 18.954L6.78564 19.2597C8.07322 20.1767 9.61156 20.7613 11.2788 20.8934L10.7983 15.3974L10.7856 15.2597L10.689 15.3573Z" fill="black"/>
<path d="M11.1856 12.0319L7.74908 15.4684L7.41217 14.9587C6.83605 14.0889 6.50006 13.0448 6.50006 11.9245C6.50008 11.3164 6.59932 10.7304 6.78229 10.1823L6.97565 9.60123L11.1856 12.0319ZM7.50006 11.9245C7.50006 12.6195 7.6577 13.2769 7.93854 13.8639L9.31842 12.485L9.5567 12.2458L7.57721 11.1032C7.52812 11.3694 7.50007 11.6435 7.50006 11.9245Z" fill="black"/>
<path d="M13.2519 12.7917L15.1035 13.2888L19.0468 14.3454L19.6005 14.4929L19.3789 15.0212C18.3883 17.3786 16.3002 19.1624 13.7529 19.7321L13.1962 19.8561L13.1025 18.7848L13.0576 18.2809L12.5615 12.6071L13.2519 12.7917ZM13.6943 14.0768L14.0546 18.194L14.0898 18.6032C15.8768 18.0446 17.355 16.7905 18.208 15.155L17.8115 15.0495L13.8154 13.9782L13.6816 13.9421L13.6943 14.0768Z" fill="black"/>
<path d="M21.0005 11.9248C21.0005 8.29179 18.8466 5.16174 15.7456 3.74023L13.8335 10.877L19.5669 12.4141H19.5688L20.9741 12.7949C20.988 12.5989 21.0005 12.3194 21.0005 11.9248ZM22.0005 11.9248C22.0005 12.6658 21.965 13.0756 21.9214 13.3115C21.9001 13.4267 21.8718 13.5321 21.8257 13.6211C21.8017 13.6672 21.7645 13.7249 21.7075 13.7783C21.6781 13.8059 21.6414 13.8341 21.5981 13.8574C21.5768 13.8689 21.5539 13.879 21.5298 13.8877C21.5177 13.892 21.5051 13.896 21.4927 13.8994C21.4863 13.9012 21.4795 13.9028 21.4731 13.9043C21.47 13.905 21.4665 13.9065 21.4634 13.9072L21.4585 13.9082L21.3598 13.418L21.4536 13.9092L21.3403 13.9307L19.3081 13.3789L18.8208 13.249L12.6089 11.585L12.7378 11.1016L15.0727 2.38965L15.5913 2.58887C19.3391 4.0315 22.0005 7.66696 22.0005 11.9248Z" fill="black"/>
</svg>