<svg viewBox="0 0 24 24" fill="none" xmlns="http://www.w3.org/2000/svg" width="24" height="24">
<path opacity="0.2" d="M3.8999 18.75V5.25H18.7499C19.1079 5.25 19.4513 5.39223 19.7045 5.64541C19.9577 5.89858 20.0999 6.24196 20.0999 6.6V18.75H3.8999Z" fill="black"/>
<path d="M2.9624 5.25C2.9624 4.97386 3.18626 4.75 3.4624 4.75C3.73854 4.75 3.9624 4.97386 3.9624 5.25V18.25H19.6626C19.9387 18.2501 20.1626 18.4739 20.1626 18.75C20.1626 19.0261 19.9387 19.2499 19.6626 19.25H3.4624C3.18626 19.25 2.9624 19.0261 2.9624 18.75V5.25Z" fill="black"/>
<path d="M2.9624 18.75C2.9624 19.0261 3.18626 19.25 3.4624 19.25C3.73854 19.25 3.9624 19.0261 3.9624 18.75V5.75H19.6626C19.9387 5.74989 20.1626 5.52608 20.1626 5.25C20.1626 4.97392 19.9387 4.75011 19.6626 4.75H3.4624C3.18626 4.75 2.9624 4.97386 2.9624 5.25V18.75Z" fill="black"/>
<path d="M19.3081 8.66113C19.5018 8.46445 19.8184 8.46161 20.0151 8.65527C20.2118 8.84899 20.2137 9.16554 20.02 9.3623L14.6187 14.8506C14.4623 15.0094 14.2198 15.0458 14.0239 14.9395L8.88135 12.1455L3.72998 15.4111C3.49688 15.5588 3.18845 15.4897 3.04053 15.2568C2.89271 15.0236 2.96158 14.7142 3.19482 14.5664L8.59521 11.1445L8.65381 11.1123C8.7957 11.0471 8.96159 11.0512 9.10107 11.127L14.1694 13.8799L19.3081 8.66113Z" fill="black"/>
</svg>