<svg viewBox="0 0 24 24" fill="none" xmlns="http://www.w3.org/2000/svg" width="24" height="24">
<path d="M3.3999 5.25C3.3999 4.97386 3.62376 4.75 3.8999 4.75C4.17604 4.75 4.3999 4.97386 4.3999 5.25V18.25H20.1001C20.3762 18.2501 20.6001 18.4739 20.6001 18.75C20.6001 19.0261 20.3762 19.2499 20.1001 19.25H3.8999C3.62376 19.25 3.3999 19.0261 3.3999 18.75V5.25Z" fill="black"/>
<path d="M19.8032 4.84785C20.0254 4.68402 20.3385 4.73118 20.5024 4.95332C20.6663 5.17547 20.619 5.48858 20.397 5.65254L15.0532 9.5959C14.8909 9.71539 14.6724 9.72583 14.4995 9.62227L9.35596 6.54023L4.229 11.0266C4.02128 11.2082 3.70577 11.1872 3.52393 10.9797C3.34208 10.7719 3.36298 10.4555 3.5708 10.2736L8.97021 5.54902L9.03467 5.50117C9.19196 5.40271 9.39415 5.39868 9.55713 5.49629L14.728 8.59199L19.8032 4.84785Z" fill="black"/>
<path d="M19.5998 18.75V5.25C19.5998 4.97386 19.8237 4.75 20.0998 4.75C20.3759 4.75 20.5998 4.97386 20.5998 5.25L20.6001 18.75C20.6001 19.0261 20.3762 19.2499 20.1001 19.25C19.824 19.25 19.5998 19.0261 19.5998 18.75Z" fill="black"/>
<path d="M17.282 11.848L19.6 8.62929V18.2501L4.3999 18.25L4.3999 16.9252L6.8783 13.2821L8.98416 10.9069L11.1675 12.4519L14.6348 14.9527C14.8319 15.0388 15.089 14.4526 15.2332 14.293L16.605 12.5972L17.282 11.848Z" fill="white"/>
<path d="M19.6723 7.71436C19.8368 7.4927 20.1497 7.44645 20.3715 7.61084C20.5931 7.77533 20.6394 8.08829 20.475 8.31006L15.2396 15.3735C15.1589 15.4824 15.0371 15.5541 14.9027 15.5718C14.7682 15.5894 14.6319 15.5508 14.5258 15.4663L8.97598 11.0454L4.29336 17.0327C4.1233 17.25 3.80965 17.2885 3.59219 17.1187C3.37467 16.9485 3.33613 16.634 3.50625 16.4165L8.49941 10.0317L8.56777 9.95947C8.6426 9.89536 8.73603 9.85495 8.83535 9.84326C8.96771 9.82778 9.10123 9.86568 9.20547 9.94873L14.7436 14.3618L19.6723 7.71436Z" fill="black"/>
</svg>