<svg viewBox="0 0 24 24" fill="none" xmlns="http://www.w3.org/2000/svg" width="24" height="24">
<path d="M5.24854 19.9231H20.0981C20.3743 19.9231 20.5981 19.6993 20.5981 19.4231C20.5981 19.147 20.3743 18.9231 20.0981 18.9231H5.24854C4.97239 18.9231 4.74854 19.147 4.74854 19.4231C4.74854 19.6993 4.97239 19.9231 5.24854 19.9231Z" fill="black"/>
<path fill-rule="evenodd" clip-rule="evenodd" d="M11.4435 9.5088H13.9035C14.1796 9.5088 14.4035 9.73266 14.4035 10.0088L14.4036 16.8711C14.4036 17.1472 14.1798 17.3711 13.9036 17.3711H11.4437C11.1675 17.3711 10.9437 17.1472 10.9437 16.8711L10.9435 10.0088C10.9435 9.73268 11.1674 9.50884 11.4435 9.5088ZM11.9435 16.3711V10.5088H13.4036V16.3711H11.9435Z" fill="black"/>
<path fill-rule="evenodd" clip-rule="evenodd" d="M9.07158 15.9395H6.6118C6.33565 15.9395 6.1118 15.7156 6.1118 15.4395V4.57715C6.1118 4.30101 6.33565 4.07715 6.6118 4.07715L9.07176 4.07715C9.34786 4.07719 9.57176 4.30103 9.57176 4.57715V15.4395C9.57176 15.4653 9.56979 15.4908 9.56599 15.5156C9.56309 15.5346 9.55912 15.5532 9.55414 15.5714C9.53091 15.6564 9.48579 15.7324 9.42521 15.793C9.33468 15.8835 9.20963 15.9394 9.07158 15.9395ZM8.57158 5.07715L8.57176 14.9395H7.1118V5.07715L8.57158 5.07715Z" fill="black"/>
<path fill-rule="evenodd" clip-rule="evenodd" d="M19.2485 12.6302C19.2485 12.6646 19.2435 12.7051 19.2369 12.7375C19.1968 12.9335 19.0309 13.0832 18.8345 13.1225C18.8065 13.1274 18.778 13.1299 18.7485 13.1299L16.2885 13.1302C16.0125 13.1302 15.7887 12.9062 15.7885 12.6302V7.76987C15.7885 7.75261 15.7894 7.73556 15.7911 7.71875C15.7939 7.69119 15.799 7.66429 15.8061 7.63824C15.8638 7.42586 16.058 7.26952 16.2885 7.26952L16.3074 7.26987L18.7485 7.26952C19.0245 7.26952 19.2483 7.49354 19.2485 7.76952L19.2485 12.6302ZM16.7885 8.26952L18.2485 8.26952L18.2485 12.1302H16.7885L16.7885 8.26952Z" fill="black"/>
</svg>