<svg viewBox="0 0 24 24" fill="none" xmlns="http://www.w3.org/2000/svg" width="24" height="24">
<path d="M14.5278 12.1763L14.5278 5.07764L17.5723 5.07764L17.5723 12.1763L14.5278 12.1763Z" fill="black" fill-opacity="0.2"/>
<path d="M6.4375 15.126L6.4375 5.07764L9.48193 5.07764L9.48193 15.126L6.4375 15.126Z" fill="black" fill-opacity="0.2"/>
<path d="M10.4829 8.12451L10.4829 5.07764L13.5273 5.07764L13.5273 8.12451L10.4829 8.12451Z" fill="black" fill-opacity="0.2"/>
<path fill-rule="evenodd" clip-rule="evenodd" d="M13.5273 5.07812L13.5273 8.125L10.4829 8.125L10.4829 5.07812L13.5273 5.07812ZM9.97998 4.07617L5.92969 4.0752C5.65371 4.0752 5.42995 4.29928 5.42969 4.5752L5.42969 18.9258L4.58008 18.9258C4.30394 18.9258 4.08008 19.1496 4.08008 19.4258C4.08008 19.7019 4.30394 19.9258 4.58008 19.9258L5.92969 19.9258L9.97998 19.9258L14.0298 19.9258L18.0796 19.9258L19.4297 19.9258C19.7058 19.9258 19.9297 19.7019 19.9297 19.4258C19.9297 19.1496 19.7058 18.9258 19.4297 18.9258L18.5796 18.9258L18.5796 4.57519C18.5793 4.29928 18.3556 4.07519 18.0796 4.07519L14.0298 4.07617L9.97998 4.07617ZM6.4375 5.07812L6.4375 15.1265L9.48193 15.1265L9.48193 5.07812L6.4375 5.07812ZM14.5278 5.07812L14.5278 12.1768L17.5723 12.1768L17.5723 5.07812L14.5278 5.07812ZM13.5298 9.12598L10.4797 9.12598L10.4801 18.9258L13.5297 18.9258L13.5298 9.12598ZM14.5298 18.9258L17.5796 18.9258L17.5796 13.175L14.5298 13.175L14.5298 18.9258ZM6.43148 16.1289L9.48003 16.1289L9.48005 18.9258L6.42996 18.9258L6.43148 16.1289Z" fill="black"/>
</svg>