<svg viewBox="0 0 24 24" fill="none" xmlns="http://www.w3.org/2000/svg" width="24" height="24">
<path d="M4.0752 18.75V17.1514C4.07527 16.8753 4.2991 16.6514 4.5752 16.6514C4.85129 16.6514 5.07512 16.8753 5.0752 17.1514V18.75C5.0752 18.8466 5.15344 18.9247 5.25 18.9248H6.84863C7.12464 18.9248 7.34842 19.1488 7.34863 19.4248C7.34863 19.7009 7.12478 19.9248 6.84863 19.9248H5.25C4.60116 19.9247 4.0752 19.3989 4.0752 18.75ZM13.5986 18.9248C13.8746 18.9248 14.0984 19.1488 14.0986 19.4248C14.0986 19.7009 13.8748 19.9248 13.5986 19.9248H10.4014C10.1253 19.9247 9.90137 19.7009 9.90137 19.4248C9.90158 19.1489 10.1254 18.9249 10.4014 18.9248H13.5986ZM18.9248 18.75V17.1514C18.9249 16.8754 19.1489 16.6516 19.4248 16.6514C19.7009 16.6514 19.9247 16.8753 19.9248 17.1514V18.75C19.9248 19.3989 19.3989 19.9248 18.75 19.9248H17.1514C16.8753 19.9247 16.6514 19.7009 16.6514 19.4248C16.6516 19.1489 16.8754 18.9249 17.1514 18.9248H18.75C18.8467 18.9248 18.9248 18.8467 18.9248 18.75ZM4.0752 13.5986V10.4014C4.07527 10.1253 4.2991 9.90137 4.5752 9.90137C4.85129 9.90137 5.07512 10.1253 5.0752 10.4014V13.5986C5.0752 13.8748 4.85134 14.0986 4.5752 14.0986C4.29905 14.0986 4.0752 13.8748 4.0752 13.5986ZM18.9248 13.5986V10.4014C18.9249 10.1254 19.1489 9.90158 19.4248 9.90137C19.7009 9.90137 19.9247 10.1253 19.9248 10.4014V13.5986C19.9248 13.8748 19.7009 14.0986 19.4248 14.0986C19.1488 14.0984 18.9248 13.8746 18.9248 13.5986ZM4.0752 6.84863V5.25C4.0753 4.60122 4.60122 4.0753 5.25 4.0752H6.84863C7.12478 4.0752 7.34863 4.29905 7.34863 4.5752C7.34863 4.85134 7.12478 5.0752 6.84863 5.0752H5.25C5.1535 5.0753 5.0753 5.1535 5.0752 5.25V6.84863C5.0752 7.12478 4.85134 7.34863 4.5752 7.34863C4.29905 7.34863 4.0752 7.12478 4.0752 6.84863ZM18.9248 6.84863V5.25C18.9247 5.15344 18.8466 5.0752 18.75 5.0752H17.1514C16.8753 5.07512 16.6514 4.85129 16.6514 4.5752C16.6514 4.2991 16.8753 4.07527 17.1514 4.0752H18.75C19.3989 4.0752 19.9247 4.60116 19.9248 5.25V6.84863C19.9248 7.12478 19.7009 7.34863 19.4248 7.34863C19.1488 7.34842 18.9248 7.12464 18.9248 6.84863ZM13.5986 4.0752C13.8748 4.0752 14.0986 4.29905 14.0986 4.5752C14.0986 4.85134 13.8748 5.0752 13.5986 5.0752H10.4014C10.1253 5.07512 9.90137 4.85129 9.90137 4.5752C9.90137 4.2991 10.1253 4.07527 10.4014 4.0752H13.5986Z" fill="black"/>
</svg>