<svg xmlns="http://www.w3.org/2000/svg" width="24" height="24" fill="currentColor" viewBox="0 0 24 24"><path d="M15.733 9.617a.506.506 0 0 1 0 .716l-4.725 4.725a.506.506 0 0 1-.716 0l-2.025-2.025a.506.506 0 0 1 .716-.716l1.667 1.666 4.367-4.366a.506.506 0 0 1 .716 0m4.199-4.367v13.5a1.18 1.18 0 0 1-1.181 1.181h-13.5A1.18 1.18 0 0 1 4.07 18.75V5.25a1.18 1.18 0 0 1 1.181-1.181h13.5a1.18 1.18 0 0 1 1.181 1.181m-1.012 0a.17.17 0 0 0-.169-.169h-13.5a.17.17 0 0 0-.169.169v13.5a.17.17 0 0 0 .169.169h13.5a.17.17 0 0 0 .169-.169z"/></svg>