<svg xmlns="http://www.w3.org/2000/svg" width="24" height="24" fill="currentColor" viewBox="0 0 24 24"><path d="M19.425 5.25v13.5a.675.675 0 0 1-.675.675H5.25a.675.675 0 0 1-.675-.675V5.25a.675.675 0 0 1 .675-.675h13.5a.675.675 0 0 1 .675.675" opacity=".2"/><path d="M15.853 9.497a.675.675 0 0 1 0 .955l-4.725 4.725a.675.675 0 0 1-.955 0l-2.025-2.025a.675.675 0 0 1 .955-.955l1.547 1.548 4.247-4.248a.675.675 0 0 1 .955 0zM20.1 5.25v13.5a1.35 1.35 0 0 1-1.35 1.35H5.25a1.35 1.35 0 0 1-1.35-1.35V5.25A1.35 1.35 0 0 1 5.25 3.9h13.5a1.35 1.35 0 0 1 1.35 1.35m-1.35 13.5V5.25H5.25v13.5z"/></svg>