<svg xmlns="http://www.w3.org/2000/svg" fill="currentColor" viewBox="0 0 24 24" width="24" height="24"><path d="m8.625 10.592 4.05 4.05v5.121a.34.34 0 0 1-.338.337H5.249a1.35 1.35 0 0 1-1.35-1.35V5.25a1.35 1.35 0 0 1 1.35-1.35h1.688a.34.34 0 0 1 .338.337v9.904a2.025 2.025 0 1 0 1.35 0zm-.675 6.133a.675.675 0 1 0-.675-.675.675.675 0 0 0 .675.675m8.775-6.75a.675.675 0 1 0-.675.675.675.675 0 0 0 .675-.675M18.75 3.9h-4.387a.34.34 0 0 0-.338.337v2.758l1.153 1.153a2.025 2.025 0 1 1-.954.954l-1.35-1.35a.68.68 0 0 1-.198-.478V4.236a.34.34 0 0 0-.338-.337H8.963a.34.34 0 0 0-.338.337v4.446l5.203 5.202a.68.68 0 0 1 .197.478v5.4a.34.34 0 0 0 .338.337h4.387a1.35 1.35 0 0 0 1.35-1.35v-13.5a1.35 1.35 0 0 0-1.35-1.35z"/></svg>