<svg xmlns="http://www.w3.org/2000/svg" fill="currentColor" viewBox="0 0 24 24" width="24" height="24"><path d="M18.75 4.575H5.25a.675.675 0 0 0-.675.675v13.5a.675.675 0 0 0 .675.675h13.5a.675.675 0 0 0 .675-.675V5.25a.675.675 0 0 0-.675-.675M8.625 16.725a1.35 1.35 0 1 1 1.35-1.35 1.35 1.35 0 0 1-1.35 1.35m6.75-5.4a1.35 1.35 0 1 1 1.35-1.35 1.35 1.35 0 0 1-1.35 1.35" opacity=".2"/><path d="M18.75 3.9H5.25A1.35 1.35 0 0 0 3.9 5.25v13.5a1.35 1.35 0 0 0 1.35 1.35h13.5a1.35 1.35 0 0 0 1.35-1.35V5.25a1.35 1.35 0 0 0-1.35-1.35M8.625 14.7a.675.675 0 1 1-.675.675.675.675 0 0 1 .675-.675M5.25 5.25h2.7v8.216a2.025 2.025 0 1 0 1.35 0v-2.537l4.05 4.05v3.771h-8.1zm13.5 13.5H14.7V14.7a.68.68 0 0 0-.197-.478L9.3 9.02V5.249H12v2.025a.68.68 0 0 0 .197.478l1.35 1.35a2 2 0 0 0-.197.872 2.025 2.025 0 1 0 2.025-2.025 2 2 0 0 0-.872.198L13.35 6.994V5.248h5.4v13.5zM15.375 9.3a.675.675 0 1 1-.675.675.675.675 0 0 1 .675-.675"/></svg>