<svg xmlns="http://www.w3.org/2000/svg" fill="currentColor" viewBox="0 0 24 24" width="24" height="24"><path d="M18.75 4.069H5.25A1.18 1.18 0 0 0 4.069 5.25v13.5a1.18 1.18 0 0 0 1.181 1.181h13.5a1.18 1.18 0 0 0 1.181-1.181V5.25a1.18 1.18 0 0 0-1.181-1.181M8.625 14.532a.844.844 0 1 1-.844.844.844.844 0 0 1 .844-.844m-3.544 4.219v-13.5a.17.17 0 0 1 .169-.169h2.869v8.508a1.856 1.856 0 1 0 1.013 0v-3.067l4.388 4.387v4.009H5.251a.17.17 0 0 1-.169-.169zm13.838 0a.17.17 0 0 1-.169.169h-4.219v-4.219a.5.5 0 0 0-.149-.358L9.13 9.091V5.082h3.037v2.194a.5.5 0 0 0 .149.358l1.434 1.434a1.856 1.856 0 1 0 .716-.716L13.18 7.065V5.081h5.569a.17.17 0 0 1 .169.169zm-3.544-9.619a.844.844 0 1 1-.844.844.844.844 0 0 1 .844-.844"/></svg>