<svg viewBox="0 0 24 24" fill="none" xmlns="http://www.w3.org/2000/svg" width="24" height="24">
<path fill-rule="evenodd" clip-rule="evenodd" d="M19.1134 16.6935L19.6435 16.2106C20.0061 15.8802 20.2224 15.4193 20.2452 14.9293C20.268 14.4394 20.0955 13.9604 19.7652 13.5977L17.0373 10.6032C17.0205 10.5848 17.0078 10.563 17.0001 10.5393C16.9925 10.5154 16.9903 10.4899 16.9932 10.465C16.9962 10.4401 17.0043 10.4156 17.0173 10.3942C17.03 10.3734 17.0473 10.3558 17.0674 10.3419L20.431 8.17864C20.4544 8.16361 20.4764 8.14649 20.497 8.12779C20.992 7.67681 21.2884 7.04739 21.3195 6.37845C21.3506 5.70966 21.1146 5.0559 20.6638 4.56094C20.2129 4.06603 19.5838 3.77043 18.9151 3.73913C18.2462 3.70798 17.5913 3.9438 17.0962 4.39479C17.0757 4.41352 17.0566 4.43387 17.0395 4.45574L14.5742 7.60516C14.5585 7.62382 14.5381 7.63806 14.5162 7.64878C14.4938 7.65967 14.4691 7.66618 14.4441 7.66685C14.4192 7.66746 14.3938 7.66285 14.3708 7.65307C14.3478 7.64322 14.3268 7.62798 14.3099 7.60945L11.5826 4.61568C11.2522 4.25297 10.7908 4.03614 10.3007 4.01332C9.81086 3.99061 9.33229 4.16382 8.96972 4.49399L8.45168 4.96591L9.12436 5.70584L9.64316 5.23322C9.80978 5.08158 10.0298 5.00237 10.2548 5.01285C10.4799 5.02341 10.6916 5.12254 10.8434 5.28912L13.5707 8.28289C13.6841 8.40733 13.8234 8.50602 13.9782 8.57216C14.1329 8.6382 14.3 8.67027 14.4681 8.66618C14.6362 8.66208 14.8014 8.62188 14.9527 8.54842C15.1037 8.475 15.2388 8.36982 15.3458 8.24044L15.3532 8.22973L17.7955 5.11311C18.0914 4.85498 18.4755 4.71964 18.8686 4.73794C19.2724 4.7569 19.6523 4.93553 19.9246 5.23438C20.1968 5.53329 20.3394 5.92807 20.3207 6.33193C20.3023 6.7263 20.1308 7.09726 19.8445 7.3681L16.5166 9.50679L16.5059 9.51389C16.3668 9.60853 16.2494 9.73217 16.1621 9.87601C16.0749 10.0197 16.0196 10.1806 15.9998 10.3475C15.9801 10.5147 15.9971 10.6845 16.0485 10.8447C16.1 11.0049 16.1848 11.1523 16.298 11.2767L19.026 14.2711C19.1776 14.4378 19.2569 14.6578 19.2464 14.8828C19.2359 15.1079 19.1366 15.3196 18.9701 15.4714L18.4408 15.9536L19.1134 16.6935Z" fill="black"/>
<path fill-rule="evenodd" clip-rule="evenodd" d="M6.30897 4.0951C6.30142 4.08679 6.29421 4.07829 6.28733 4.06963L5.81631 3.55152C5.63064 3.34728 5.31459 3.33186 5.11025 3.51734C4.90602 3.703 4.8906 4.01905 5.07607 4.22339L6.97444 6.31168L2.48262 10.4037C2.27848 10.5897 2.26375 10.9059 2.44972 11.1101L10.6317 20.0914C11.2032 20.7188 12.0007 21.0932 12.8485 21.1327C13.6963 21.1722 14.5251 20.8735 15.1525 20.3019L17.6358 18.0397L18.5761 19.074C18.7618 19.2782 19.0778 19.2928 19.2821 19.1072C19.4778 18.9293 19.5003 18.632 19.3388 18.4276L19.3163 18.4011L6.30897 4.0951ZM7.29464 9.67138L4.67003 12.0624L3.52568 10.8062L7.6471 7.05163L16.9632 17.2997L14.4791 19.5627C14.0478 19.9556 13.4779 20.161 12.895 20.1339C12.3122 20.1067 11.7639 19.8493 11.3709 19.4179L5.34348 12.8016L7.96809 10.4106C8.17222 10.2246 8.18695 9.90841 8.00099 9.70427C7.81502 9.50014 7.49878 9.48541 7.29464 9.67138Z" fill="black"/>
</svg>