<svg viewBox="0 0 24 24" fill="none" xmlns="http://www.w3.org/2000/svg" width="24" height="24">
<g clip-path="url(#clip0_1013_695)">
<path opacity="0.2" d="M9.27922 4.88569C9.54388 4.64455 9.8935 4.51843 10.2512 4.53506C10.6088 4.5517 10.9452 4.70973 11.1863 4.97439L13.914 7.96813C13.9791 8.03962 14.0588 8.09627 14.1478 8.13426C14.2367 8.17225 14.3327 8.1907 14.4294 8.18834C14.5261 8.18598 14.6211 8.16288 14.7081 8.1206C14.795 8.07832 14.8719 8.01785 14.9335 7.94328L17.4067 4.78589C17.8037 4.42418 18.3281 4.23499 18.8646 4.25995C19.4011 4.2849 19.9057 4.52195 20.2674 4.91894C20.6291 5.31594 20.8183 5.84036 20.7933 6.37684C20.7684 6.91332 20.5313 7.41792 20.1343 7.77963L16.761 9.94909C16.681 10.0035 16.6137 10.0744 16.5635 10.1571C16.5134 10.2397 16.4815 10.3322 16.4702 10.4282C16.4589 10.5243 16.4683 10.6216 16.4979 10.7137C16.5275 10.8058 16.5765 10.8904 16.6416 10.9619L19.3693 13.9556C19.6104 14.2203 19.7365 14.5699 19.7199 14.9276C19.7033 15.2852 19.5452 15.6216 19.2806 15.8627L17.7837 17.2266L7.78235 6.24951L9.27922 4.88569Z" fill="black"/>
<path fill-rule="evenodd" clip-rule="evenodd" d="M19.1139 16.6955L19.644 16.2126C20.0066 15.8822 20.2229 15.4213 20.2457 14.9313C20.2685 14.4413 20.096 13.9623 19.7657 13.5997L17.0378 10.6052C17.021 10.5867 17.0083 10.5649 17.0006 10.5412C16.993 10.5174 16.9908 10.4918 16.9937 10.4669C16.9967 10.4421 17.0048 10.4175 17.0178 10.3962C17.0305 10.3753 17.0478 10.3578 17.0679 10.3439L20.4315 8.18059C20.4549 8.16557 20.4769 8.14844 20.4975 8.12975C20.9925 7.67876 21.2888 7.04935 21.32 6.3804C21.3511 5.71161 21.1151 5.05786 20.6643 4.56289C20.2134 4.06798 19.5843 3.77238 18.9156 3.74109C18.2466 3.70993 17.5917 3.94575 17.0967 4.39674C17.0762 4.41547 17.0571 4.43582 17.0399 4.4577L14.5747 7.60712C14.559 7.62578 14.5386 7.64002 14.5167 7.65073C14.4943 7.66163 14.4695 7.66814 14.4446 7.6688C14.4197 7.66941 14.3943 7.6648 14.3713 7.65502C14.3483 7.64517 14.3273 7.62993 14.3104 7.6114L11.5831 4.61763C11.2527 4.25492 10.7913 4.0381 10.3012 4.01527C9.81134 3.99257 9.33278 4.16578 8.97021 4.49594L8.45217 4.96787L9.12485 5.7078L9.64365 5.23518C9.81026 5.08353 10.0303 5.00432 10.2553 5.0148C10.4804 5.02536 10.6921 5.12449 10.8439 5.29107L13.5712 8.28484C13.6846 8.40928 13.8239 8.50797 13.9787 8.57411C14.1334 8.64015 14.3005 8.67222 14.4686 8.66813C14.6367 8.66403 14.8019 8.62384 14.9531 8.55037C15.1042 8.47696 15.2393 8.37177 15.3463 8.24239L15.3537 8.23168L17.796 5.11506C18.0919 4.85694 18.476 4.72159 18.8691 4.7399C19.2729 4.75885 19.6528 4.93749 19.925 5.23634C20.1973 5.53524 20.3399 5.93003 20.3212 6.33388C20.3028 6.72826 20.1312 7.09921 19.845 7.37006L16.5171 9.50874L16.5064 9.51585C16.3673 9.61048 16.2499 9.73412 16.1626 9.87796C16.0754 10.0217 16.0201 10.1825 16.0003 10.3495C15.9806 10.5166 15.9976 10.6864 16.049 10.8467C16.1005 11.0068 16.1853 11.1542 16.2985 11.2786L19.0265 14.2731C19.1781 14.4397 19.2573 14.6597 19.2469 14.8848C19.2364 15.1098 19.1371 15.3215 18.9706 15.4733L18.4412 15.9556L19.1139 16.6955Z" fill="black"/>
<path fill-rule="evenodd" clip-rule="evenodd" d="M6.30946 4.09705C6.30191 4.08874 6.2947 4.08025 6.28782 4.07158L5.8168 3.55347C5.63113 3.34924 5.31508 3.33382 5.11074 3.51929C4.90651 3.70495 4.89109 4.02101 5.07656 4.22534L6.97493 6.31363L2.48311 10.4057C2.27897 10.5916 2.26424 10.9079 2.45021 11.112L10.6322 20.0933C11.2037 20.7207 12.0012 21.0952 12.849 21.1346C13.6968 21.1741 14.5256 20.8754 15.153 20.3039L17.6363 18.0416L18.5766 19.0759C18.7623 19.2802 19.0783 19.2948 19.2826 19.1091C19.4783 18.9313 19.5008 18.6339 19.3393 18.4296L19.3168 18.4031L6.30946 4.09705ZM7.29513 9.67333L4.67052 12.0643L3.52617 10.8082L7.64759 7.05358L16.9636 17.3017L14.4796 19.5646C14.0483 19.9576 13.4784 20.163 12.8955 20.1358C12.3127 20.1087 11.7643 19.8512 11.3714 19.4199L5.34397 12.8036L7.96858 10.4126C8.17271 10.2266 8.18744 9.91036 8.00147 9.70623C7.81551 9.50209 7.49927 9.48736 7.29513 9.67333Z" fill="black"/>
</g>
<defs>
<clipPath id="clip0_1013_695">
<rect width="24" height="24" fill="white"/>
</clipPath>
</defs>
</svg>