<svg xmlns="http://www.w3.org/2000/svg" width="24" height="24" fill="currentColor" viewBox="0 0 24 24"><path d="M21.053 19.484c-1.893-.929-2.978-2.918-2.978-5.459v-1.461a1.345 1.345 0 0 0-.851-1.255l-2.417-.967a.675.675 0 0 1-.377-.874l1.883-4.782c.413-1.058-.094-2.288-1.162-2.685a2.025 2.025 0 0 0-2.59 1.157l-1.889 4.798a.675.675 0 0 1-.878.38l-2.424-.97a1.34 1.34 0 0 0-1.466.309c-1.776 1.828-2.677 3.963-2.677 6.35a9.4 9.4 0 0 0 2.628 6.542.68.68 0 0 0 .494.208h14.428a.675.675 0 0 0 .675-.634.69.69 0 0 0-.397-.657zm-10.14-.059a7.4 7.4 0 0 1-2.047-3.519.693.693 0 0 0-.78-.521.675.675 0 0 0-.533.834 8.9 8.9 0 0 0 1.549 3.206H6.638a8.07 8.07 0 0 1-2.062-5.4 7.25 7.25 0 0 1 .652-3.063l11.627 4.652c.253 1.524.89 2.827 1.847 3.813z"/></svg>