<svg viewBox="0 0 24 24" fill="none" xmlns="http://www.w3.org/2000/svg" width="24" height="24">
<path fill-rule="evenodd" clip-rule="evenodd" d="M19.4936 16.4895L19.6333 16.3622C20.0303 16.0005 20.2675 15.496 20.2925 14.9595C20.3175 14.423 20.1284 13.8986 19.7667 13.5015L17.0394 10.5074L20.3989 8.34789C20.4304 8.32738 20.4602 8.30441 20.4881 8.27918C21.0174 7.79697 21.3336 7.12421 21.367 6.40891C21.4003 5.6936 21.1481 4.99434 20.6659 4.46495C20.1837 3.93557 19.511 3.61942 18.7957 3.58606C18.0804 3.5527 17.3811 3.80487 16.8517 4.28708C16.824 4.31248 16.7983 4.34004 16.775 4.36951L14.3122 7.51336L11.5849 4.51928C11.2232 4.12224 10.7187 3.88513 10.1822 3.86011C9.64571 3.8351 9.12127 4.02422 8.72423 4.38588L8.59612 4.50257L19.4936 16.4895Z" fill="black"/>
<path fill-rule="evenodd" clip-rule="evenodd" d="M5.81775 3.45495C5.56696 3.17934 5.14039 3.15934 4.86463 3.41003C4.58902 3.66083 4.56901 4.08739 4.81971 4.36315L6.59969 6.32109L2.23706 10.295C2.10471 10.4155 2.02567 10.5837 2.01734 10.7625C2.009 10.9414 2.07204 11.1162 2.19259 11.2485L10.3744 20.2308C10.9772 20.8925 11.8181 21.2877 12.7122 21.3294C13.6064 21.3711 14.4805 21.0559 15.1422 20.4531L17.4972 18.308L18.3197 19.2128C18.5705 19.4886 18.997 19.5094 19.2728 19.2587C19.5487 19.0079 19.5685 18.5804 19.3178 18.3046L18.496 17.3982L6.30475 3.98816L5.81775 3.45495ZM7.50782 7.32L3.64516 10.8384L4.55425 11.8365L7.04932 9.56374C7.18166 9.44319 7.35648 9.38015 7.53531 9.38849C7.71413 9.39683 7.88232 9.47586 8.00287 9.60821C8.12343 9.74056 8.18647 9.91537 8.17813 10.0942C8.16979 10.273 8.09075 10.4412 7.95841 10.5618L5.46334 12.8345L11.3724 19.3217C11.7341 19.7187 12.2387 19.9558 12.7751 19.9808C13.3116 20.0058 13.8361 19.8167 14.2331 19.4551L16.589 17.3091L7.50782 7.32Z" fill="black"/>
</svg>