<svg xmlns="http://www.w3.org/2000/svg" width="24" height="24" fill="currentColor" viewBox="0 0 24 24"><path d="M21.45 6.6v10.8a.675.675 0 0 1-.675.675H3.225a.675.675 0 0 1-.675-.675V6.6a.675.675 0 0 1 .675-.675h17.55a.675.675 0 0 1 .675.675" opacity=".2"/><path d="M20.775 5.25H3.225a1.35 1.35 0 0 0-1.35 1.35v10.8a1.35 1.35 0 0 0 1.35 1.35h17.55a1.35 1.35 0 0 0 1.35-1.35V6.6a1.35 1.35 0 0 0-1.35-1.35m0 12.15H3.225V6.6h17.55zM12 9.975v4.05a.675.675 0 0 1-1.35 0v-2.421l-1.547 1.548a.675.675 0 0 1-.955 0l-1.547-1.548v2.421a.675.675 0 0 1-1.35 0v-4.05a.675.675 0 0 1 1.153-.478l2.222 2.223 2.222-2.223a.675.675 0 0 1 1.153.478zm6.553 1.547a.675.675 0 0 1 0 .955l-2.025 2.025a.675.675 0 0 1-.955 0l-2.025-2.025a.675.675 0 0 1 .955-.955l.872.873V9.974a.675.675 0 0 1 1.35 0v2.421l.872-.873a.675.675 0 0 1 .955 0z"/></svg>