<svg viewBox="0 0 24 24" fill="none" xmlns="http://www.w3.org/2000/svg" width="24" height="24">
<path fill-rule="evenodd" clip-rule="evenodd" d="M9.70837 4.8258C9.70294 4.83348 9.6973 4.84099 9.69146 4.84834C9.32572 5.34107 9.125 5.94152 9.125 6.5625V6.7373H14.875V6.5625C14.875 5.94152 14.6743 5.34107 14.3085 4.84834C14.3027 4.84099 14.2971 4.83348 14.2916 4.8258C14.2151 4.7248 14.1316 4.62845 14.0414 4.5375H14.7H18.075C18.254 4.5375 18.4257 4.60862 18.5523 4.7352C18.6789 4.86179 18.75 5.03348 18.75 5.2125V19.3875C18.75 19.5665 18.6789 19.7382 18.5523 19.8648C18.4257 19.9914 18.254 20.0625 18.075 20.0625H5.925C5.74598 20.0625 5.57429 19.9914 5.4477 19.8648C5.32112 19.7382 5.25 19.5665 5.25 19.3875V5.2125C5.25 5.03348 5.32112 4.86179 5.4477 4.7352C5.57429 4.60862 5.74598 4.5375 5.925 4.5375H9.3H9.95863C9.86841 4.62845 9.78489 4.7248 9.70837 4.8258Z" fill="black" fill-opacity="0.2"/>
<path d="M4.75 19.3871V5.2123C4.75005 4.90075 4.87344 4.60156 5.09375 4.38125C5.31406 4.16094 5.61325 4.03755 5.9248 4.0375H9.2998C9.57595 4.0375 9.7998 4.26136 9.7998 4.5375C9.7998 4.64487 9.76596 4.74433 9.70837 4.8258C9.70294 4.83348 9.6973 4.84099 9.69146 4.84834C9.59987 4.9636 9.45847 5.0375 9.2998 5.0375H5.9248C5.87846 5.03755 5.83355 5.05551 5.80078 5.08828C5.76801 5.12105 5.75005 5.16596 5.75 5.2123V19.3871C5.75 19.4334 5.76815 19.4783 5.80078 19.5111C5.83355 19.5439 5.87846 19.5628 5.9248 19.5629H18.0752C18.1215 19.5628 18.1664 19.5439 18.1992 19.5111C18.2319 19.4783 18.25 19.4334 18.25 19.3871V5.2123C18.2499 5.16596 18.232 5.12105 18.1992 5.08828C18.1664 5.05551 18.1215 5.03755 18.0752 5.0375H14.7002C14.5415 5.0375 14.4001 4.9636 14.3085 4.84834C14.3027 4.84099 14.2971 4.83348 14.2916 4.8258C14.234 4.74433 14.2002 4.64487 14.2002 4.5375C14.2002 4.26136 14.4241 4.0375 14.7002 4.0375H18.0752C18.3868 4.03755 18.6859 4.16094 18.9062 4.38125C19.1266 4.60156 19.2499 4.90075 19.25 5.2123V19.3871C19.25 19.6986 19.1264 19.9978 18.9062 20.2182C18.6859 20.4385 18.3868 20.5628 18.0752 20.5629H5.9248C5.61325 20.5628 5.31406 20.4385 5.09375 20.2182C4.87358 19.9978 4.75 19.6986 4.75 19.3871Z" fill="black"/>
<path d="M14.875 6.5625C14.875 5.94152 14.6743 5.34107 14.3085 4.84834C14.3027 4.84099 14.2971 4.83348 14.2916 4.8258C14.2128 4.72176 14.1266 4.62264 14.0332 4.5293C13.494 3.99013 12.7625 3.6875 12 3.6875C11.2375 3.6875 10.506 3.99013 9.9668 4.5293C9.87345 4.62264 9.78719 4.72176 9.70837 4.8258C9.70294 4.83348 9.6973 4.84099 9.69146 4.84834C9.32572 5.34107 9.125 5.94152 9.125 6.5625V6.7373H14.875V6.5625ZM15.875 7.2373C15.875 7.51345 15.6511 7.7373 15.375 7.7373H8.625C8.34886 7.7373 8.125 7.51345 8.125 7.2373V6.5625C8.125 5.53479 8.53306 4.54897 9.25977 3.82227C9.98647 3.09556 10.9723 2.6875 12 2.6875C13.0277 2.6875 14.0135 3.09556 14.7402 3.82227C15.4669 4.54897 15.875 5.53479 15.875 6.5625V7.2373Z" fill="black"/>
<path d="M9.01953 11.5263C9.23165 11.3495 9.54684 11.3776 9.72363 11.5897C9.90041 11.8019 9.87132 12.1171 9.65918 12.2938L8.12402 13.5731L9.65918 14.8524C9.87125 15.0292 9.90039 15.3444 9.72363 15.5565C9.54685 15.7685 9.23162 15.7967 9.01953 15.62L7.02344 13.9569C6.90961 13.8619 6.84377 13.7214 6.84375 13.5731C6.84375 13.4249 6.90964 13.2843 7.02344 13.1893L9.01953 11.5263Z" fill="black"/>
<path d="M14.2769 11.5896C14.4537 11.3778 14.769 11.3495 14.981 11.5262L16.9761 13.1892C17.0901 13.2842 17.1568 13.4247 17.1568 13.573C17.1568 13.7214 17.0901 13.8618 16.9761 13.9568L14.981 15.6199C14.769 15.7966 14.4537 15.7682 14.2769 15.5564C14.1002 15.3444 14.1286 15.0292 14.3404 14.8523L15.8755 13.573L14.3404 12.2937C14.1285 12.1169 14.1002 11.8017 14.2769 11.5896Z" fill="black"/>
</svg>