<svg xmlns="http://www.w3.org/2000/svg" width="24" height="24" fill="currentColor" viewBox="0 0 24 24"><path d="M18.075 4.069h-3.136a3.874 3.874 0 0 0-5.878 0H5.925A1.18 1.18 0 0 0 4.744 5.25v14.175a1.18 1.18 0 0 0 1.181 1.181h12.15a1.18 1.18 0 0 0 1.181-1.181V5.25a1.18 1.18 0 0 0-1.181-1.181M12 3.732a2.87 2.87 0 0 1 2.869 2.869v.169H9.131v-.169A2.87 2.87 0 0 1 12 3.732m6.244 15.694a.17.17 0 0 1-.169.169H5.925a.17.17 0 0 1-.169-.169V5.251a.17.17 0 0 1 .169-.169h2.503a3.9 3.9 0 0 0-.31 1.519v.675a.506.506 0 0 0 .506.506h6.75a.506.506 0 0 0 .506-.506v-.675a3.9 3.9 0 0 0-.31-1.519h2.503a.17.17 0 0 1 .169.169z"/></svg>