<svg viewBox="0 0 24 24" fill="none" xmlns="http://www.w3.org/2000/svg" width="24" height="24">
<path d="M4.75 5.5874V19.7622C4.75 20.0737 4.87358 20.3729 5.09375 20.5933C5.31406 20.8136 5.61325 20.9379 5.9248 20.938H18.0752C18.3868 20.9379 18.6859 20.8136 18.9062 20.5933C19.1264 20.3729 19.25 20.0737 19.25 19.7622V5.5874C19.2499 5.27584 19.1266 4.97666 18.9062 4.75635C18.6859 4.53604 18.3868 4.41265 18.0752 4.4126H14.7002C14.4241 4.4126 14.2002 4.63646 14.2002 4.9126C14.2002 5.18874 14.4241 5.4126 14.7002 5.4126H15.5624H18.0752C18.1215 5.41265 18.1664 5.43061 18.1992 5.46338C18.232 5.49615 18.2499 5.54106 18.25 5.5874V19.7622C18.25 19.8085 18.2319 19.8534 18.1992 19.8862C18.1664 19.919 18.1215 19.9379 18.0752 19.938H5.9248C5.87846 19.9379 5.83355 19.919 5.80078 19.8862C5.76815 19.8534 5.75 19.8085 5.75 19.7622V5.5874C5.75005 5.54106 5.76801 5.49615 5.80078 5.46338C5.83355 5.43061 5.87846 5.41265 5.9248 5.4126H8.43755H9.2998C9.57595 5.4126 9.7998 5.18874 9.7998 4.9126C9.7998 4.63646 9.57595 4.4126 9.2998 4.4126H5.9248C5.61325 4.41265 5.31406 4.53604 5.09375 4.75635C4.87344 4.97666 4.75005 5.27584 4.75 5.5874Z" fill="black"/>
<path d="M14.875 6.9375C14.875 6.175 14.5724 5.44346 14.0332 4.9043C13.494 4.36513 12.7625 4.0625 12 4.0625C11.2375 4.0625 10.506 4.36513 9.9668 4.9043C9.42763 5.44346 9.125 6.175 9.125 6.9375V7.1123H14.875V6.9375ZM15.875 7.6123C15.875 7.88845 15.6511 8.1123 15.375 8.1123H8.625C8.34886 8.1123 8.125 7.88845 8.125 7.6123V6.9375C8.125 6.40816 8.23326 5.89003 8.43755 5.4126C8.62989 4.9631 8.90736 4.54967 9.25977 4.19727C9.98647 3.47056 10.9723 3.0625 12 3.0625C13.0277 3.0625 14.0135 3.47056 14.7402 4.19727C15.0926 4.54967 15.3701 4.9631 15.5624 5.4126C15.7667 5.89003 15.875 6.40816 15.875 6.9375V7.6123Z" fill="black"/>
<path fill-rule="evenodd" clip-rule="evenodd" d="M8.43755 5.4126C8.23326 5.89003 8.125 6.40816 8.125 6.9375V7.6123C8.125 7.88845 8.34886 8.1123 8.625 8.1123H15.375C15.6511 8.1123 15.875 7.88845 15.875 7.6123V6.9375C15.875 6.40816 15.7667 5.89003 15.5624 5.4126H18.0752C18.1215 5.41265 18.1664 5.43061 18.1992 5.46338C18.232 5.49615 18.2499 5.54106 18.25 5.5874V19.7622C18.25 19.8085 18.2319 19.8534 18.1992 19.8862C18.1664 19.919 18.1215 19.9379 18.0752 19.938H5.9248C5.87846 19.9379 5.83355 19.919 5.80078 19.8862C5.76815 19.8534 5.75 19.8085 5.75 19.7622V5.5874C5.75005 5.54106 5.76801 5.49615 5.80078 5.46338C5.83355 5.43061 5.87846 5.41265 5.9248 5.4126H8.43755ZM15.6318 9.66309C15.4665 9.66309 15.3353 9.70568 15.2393 9.79102C15.1433 9.87102 15.0689 9.99394 15.0156 10.1592L13.8203 13.6523L12.6396 10.1748C12.5757 9.99887 12.4979 9.871 12.4072 9.79102C12.3166 9.70584 12.197 9.66315 12.0479 9.66309C11.8933 9.66309 11.7679 9.70579 11.6719 9.79102C11.5812 9.87102 11.5035 9.99633 11.4395 10.167L10.2236 13.5889L9.07129 10.1592C9.01268 9.98868 8.93571 9.86321 8.83984 9.7832C8.74918 9.7032 8.61793 9.66309 8.44727 9.66309C8.20216 9.66314 8.02905 9.73506 7.92773 9.87891C7.83173 10.0229 7.81836 10.1967 7.8877 10.3994L9.50391 14.9434C9.56789 15.1138 9.65319 15.2419 9.75977 15.3271C9.8664 15.407 10.0052 15.4473 10.1758 15.4473C10.3462 15.4472 10.4793 15.407 10.5752 15.3271C10.6765 15.2419 10.7593 15.1164 10.8232 14.9512L12.0068 11.6377L13.1758 14.9434C13.2398 15.1138 13.3226 15.2419 13.4238 15.3271C13.525 15.4069 13.6608 15.4472 13.8311 15.4473C14.0068 15.4473 14.1458 15.407 14.2471 15.3271C14.3484 15.2419 14.4286 15.1164 14.4873 14.9512L16.1191 10.3994C16.1938 10.1968 16.1838 10.0229 16.0879 9.87891C15.9919 9.73498 15.8397 9.66316 15.6318 9.66309Z" fill="black"/>
</svg>