<svg viewBox="0 0 24 24" fill="none" xmlns="http://www.w3.org/2000/svg" width="24" height="24">
<path d="M4.75 19.3871V5.2123C4.75005 4.90075 4.87344 4.60156 5.09375 4.38125C5.31406 4.16094 5.61325 4.03755 5.9248 4.0375H9.2998C9.57595 4.0375 9.7998 4.26136 9.7998 4.5375C9.7998 4.81364 9.57595 5.0375 9.2998 5.0375H5.9248C5.87846 5.03755 5.83355 5.05551 5.80078 5.08828C5.76801 5.12105 5.75005 5.16596 5.75 5.2123V19.3871C5.75 19.4334 5.76815 19.4783 5.80078 19.5111C5.83355 19.5439 5.87846 19.5628 5.9248 19.5629H18.0752C18.1215 19.5628 18.1664 19.5439 18.1992 19.5111C18.2319 19.4783 18.25 19.4334 18.25 19.3871V5.2123C18.2499 5.16596 18.232 5.12105 18.1992 5.08828C18.1664 5.05551 18.1215 5.03755 18.0752 5.0375H14.7002C14.4241 5.0375 14.2002 4.81364 14.2002 4.5375C14.2002 4.26136 14.4241 4.0375 14.7002 4.0375H18.0752C18.3868 4.03755 18.6859 4.16094 18.9062 4.38125C19.1266 4.60156 19.2499 4.90075 19.25 5.2123V19.3871C19.25 19.6986 19.1264 19.9978 18.9062 20.2182C18.6859 20.4385 18.3868 20.5628 18.0752 20.5629H5.9248C5.61325 20.5628 5.31406 20.4385 5.09375 20.2182C4.87358 19.9978 4.75 19.6986 4.75 19.3871Z" fill="black"/>
<path d="M14.875 6.5625C14.875 5.8 14.5724 5.06846 14.0332 4.5293C13.494 3.99013 12.7625 3.6875 12 3.6875C11.2375 3.6875 10.506 3.99013 9.9668 4.5293C9.42763 5.06846 9.125 5.8 9.125 6.5625V6.7373H14.875V6.5625ZM15.875 7.2373C15.875 7.51345 15.6511 7.7373 15.375 7.7373H8.625C8.34886 7.7373 8.125 7.51345 8.125 7.2373V6.5625C8.125 5.53479 8.53306 4.54897 9.25977 3.82227C9.98647 3.09556 10.9723 2.6875 12 2.6875C13.0277 2.6875 14.0135 3.09556 14.7402 3.82227C15.4669 4.54897 15.875 5.53479 15.875 6.5625V7.2373Z" fill="black"/>
<path d="M9.01953 11.5264C9.23165 11.3496 9.54684 11.3778 9.72363 11.5898C9.90041 11.802 9.87132 12.1172 9.65918 12.2939L8.12402 13.5732L9.65918 14.8525C9.87125 15.0293 9.90039 15.3445 9.72363 15.5566C9.54685 15.7686 9.23162 15.7968 9.01953 15.6201L7.02344 13.957C6.90961 13.8621 6.84377 13.7215 6.84375 13.5732C6.84375 13.425 6.90964 13.2844 7.02344 13.1895L9.01953 11.5264Z" fill="black"/>
<path d="M14.2769 11.5898C14.4537 11.378 14.7689 11.3497 14.981 11.5264L16.9761 13.1895C17.09 13.2844 17.1567 13.4249 17.1567 13.5732C17.1567 13.7216 17.09 13.8621 16.9761 13.957L14.981 15.6201C14.7689 15.7968 14.4537 15.7684 14.2769 15.5566C14.1002 15.3446 14.1285 15.0294 14.3403 14.8525L15.8755 13.5732L14.3403 12.2939C14.1285 12.1171 14.1002 11.8019 14.2769 11.5898Z" fill="black"/>
<path d="M12.8601 9.74414C12.9545 9.48462 13.2422 9.35094 13.5017 9.44531C13.761 9.53981 13.8948 9.82655 13.8005 10.0859L11.1394 17.4033C11.045 17.6627 10.7582 17.7965 10.4988 17.7021C10.2393 17.6078 10.1056 17.321 10.1999 17.0615L12.8601 9.74414Z" fill="black"/>
</svg>