<svg viewBox="0 0 24 24" fill="none" xmlns="http://www.w3.org/2000/svg" width="24" height="24">
<path d="M4.75 19.7622V5.5874C4.75005 5.27584 4.87344 4.97666 5.09375 4.75635C5.31406 4.53604 5.61325 4.41265 5.9248 4.4126H9.2998C9.57595 4.4126 9.7998 4.63646 9.7998 4.9126C9.7998 5.18874 9.57595 5.4126 9.2998 5.4126H5.9248C5.87846 5.41265 5.83355 5.43061 5.80078 5.46338C5.76801 5.49615 5.75005 5.54106 5.75 5.5874V19.7622C5.75 19.8085 5.76815 19.8534 5.80078 19.8862C5.83355 19.919 5.87846 19.9379 5.9248 19.938H18.0752C18.1215 19.9379 18.1664 19.919 18.1992 19.8862C18.2319 19.8534 18.25 19.8085 18.25 19.7622V5.5874C18.2499 5.54106 18.232 5.49615 18.1992 5.46338C18.1664 5.43061 18.1215 5.41265 18.0752 5.4126H14.7002C14.4241 5.4126 14.2002 5.18874 14.2002 4.9126C14.2002 4.63646 14.4241 4.4126 14.7002 4.4126H18.0752C18.3868 4.41265 18.6859 4.53604 18.9062 4.75635C19.1266 4.97666 19.2499 5.27584 19.25 5.5874V19.7622C19.25 20.0737 19.1264 20.3729 18.9062 20.5933C18.6859 20.8136 18.3868 20.9379 18.0752 20.938H5.9248C5.61325 20.9379 5.31406 20.8136 5.09375 20.5933C4.87358 20.3729 4.75 20.0737 4.75 19.7622Z" fill="black"/>
<path d="M14.875 6.9375C14.875 6.175 14.5724 5.44346 14.0332 4.9043C13.494 4.36513 12.7625 4.0625 12 4.0625C11.2375 4.0625 10.506 4.36513 9.9668 4.9043C9.42763 5.44346 9.125 6.175 9.125 6.9375V7.1123H14.875V6.9375ZM15.875 7.6123C15.875 7.88845 15.6511 8.1123 15.375 8.1123H8.625C8.34886 8.1123 8.125 7.88845 8.125 7.6123V6.9375C8.125 5.90979 8.53306 4.92397 9.25977 4.19727C9.98647 3.47056 10.9723 3.0625 12 3.0625C13.0277 3.0625 14.0135 3.47056 14.7402 4.19727C15.4669 4.92397 15.875 5.90979 15.875 6.9375V7.6123Z" fill="black"/>
<path d="M10.1755 15.447C10.0049 15.447 9.8662 15.407 9.75953 15.327C9.65286 15.2417 9.56753 15.1137 9.50353 14.943L7.88753 10.399C7.8182 10.1963 7.83153 10.023 7.92753 9.879C8.02886 9.735 8.2022 9.663 8.44753 9.663C8.6182 9.663 8.74886 9.703 8.83953 9.783C8.93553 9.863 9.01286 9.98833 9.07153 10.159L10.3915 14.087H10.0475L11.4395 10.167C11.5035 9.99633 11.5809 9.871 11.6715 9.791C11.7675 9.70567 11.8929 9.663 12.0475 9.663C12.1969 9.663 12.3169 9.70567 12.4075 9.791C12.4982 9.871 12.5755 9.999 12.6395 10.175L13.9675 14.087H13.6715L15.0155 10.159C15.0689 9.99367 15.1435 9.871 15.2395 9.791C15.3355 9.70567 15.4662 9.663 15.6315 9.663C15.8395 9.663 15.9915 9.735 16.0875 9.879C16.1835 10.023 16.1942 10.1963 16.1195 10.399L14.4875 14.951C14.4289 15.1163 14.3489 15.2417 14.2475 15.327C14.1462 15.407 14.0075 15.447 13.8315 15.447C13.6609 15.447 13.5249 15.407 13.4235 15.327C13.3222 15.2417 13.2395 15.1137 13.1755 14.943L11.9115 11.367H12.1035L10.8235 14.951C10.7595 15.1163 10.6769 15.2417 10.5755 15.327C10.4795 15.407 10.3462 15.447 10.1755 15.447Z" fill="black"/>
<path d="M16.5 16.3731C16.7761 16.3731 17 16.597 17 16.8731C17 17.1492 16.7761 17.3731 16.5 17.3731H7.5C7.22386 17.3731 7 17.1492 7 16.8731C7 16.597 7.22386 16.3731 7.5 16.3731H16.5Z" fill="black"/>
</svg>