<svg xmlns="http://www.w3.org/2000/svg" width="24" height="24" fill="currentColor" viewBox="0 0 24 24"><path d="M20.775 5.419H3.225A1.18 1.18 0 0 0 2.044 6.6v10.8a1.18 1.18 0 0 0 1.181 1.181h17.55a1.18 1.18 0 0 0 1.181-1.181V6.6a1.18 1.18 0 0 0-1.181-1.181m.169 11.981a.17.17 0 0 1-.169.169H3.225a.17.17 0 0 1-.169-.169V6.6a.17.17 0 0 1 .169-.169h17.55a.17.17 0 0 1 .169.169zm-9.113-7.425v4.05a.506.506 0 0 1-1.012 0v-2.827l-1.836 1.835a.506.506 0 0 1-.716 0l-1.836-1.835v2.827a.507.507 0 0 1-1.013 0v-4.05a.506.506 0 0 1 .864-.358l2.342 2.341 2.342-2.341a.506.506 0 0 1 .864.358zm6.602 1.667a.506.506 0 0 1 0 .716l-2.025 2.025a.506.506 0 0 1-.716 0l-2.025-2.025a.506.506 0 1 1 .716-.716l1.161 1.16V9.975a.507.507 0 0 1 1.013 0v2.827l1.161-1.16a.506.506 0 0 1 .715 0"/></svg>