<svg viewBox="0 0 24 24" fill="none" xmlns="http://www.w3.org/2000/svg" width="24" height="24">
<path fill-rule="evenodd" clip-rule="evenodd" d="M9.70837 5.2008C9.70294 5.20848 9.6973 5.21599 9.69146 5.22334C9.32572 5.71607 9.125 6.31652 9.125 6.9375V7.1123H14.875V6.9375C14.875 6.31652 14.6743 5.71607 14.3085 5.22334C14.3027 5.21599 14.2971 5.20848 14.2916 5.2008C14.2151 5.0998 14.1316 5.00345 14.0414 4.9125H14.7H18.075C18.254 4.9125 18.4257 4.98362 18.5523 5.1102C18.6789 5.23679 18.75 5.40848 18.75 5.5875V19.7625C18.75 19.9415 18.6789 20.1132 18.5523 20.2398C18.4257 20.3664 18.254 20.4375 18.075 20.4375H5.925C5.74598 20.4375 5.57429 20.3664 5.4477 20.2398C5.32112 20.1132 5.25 19.9415 5.25 19.7625V5.5875C5.25 5.40848 5.32112 5.23679 5.4477 5.1102C5.57429 4.98362 5.74598 4.9125 5.925 4.9125H9.3H9.95863C9.86841 5.00345 9.78489 5.0998 9.70837 5.2008Z" fill="black" fill-opacity="0.2"/>
<path d="M4.75 19.7621V5.5873C4.75005 5.27575 4.87344 4.97656 5.09375 4.75625C5.31406 4.53594 5.61325 4.41255 5.9248 4.4125H9.2998C9.57595 4.4125 9.7998 4.63636 9.7998 4.9125C9.7998 5.01987 9.76596 5.11933 9.70837 5.2008C9.70294 5.20848 9.6973 5.21599 9.69146 5.22334C9.59987 5.3386 9.45847 5.4125 9.2998 5.4125H5.9248C5.87846 5.41255 5.83355 5.43051 5.80078 5.46328C5.76801 5.49605 5.75005 5.54096 5.75 5.5873V19.7621C5.75 19.8084 5.76815 19.8533 5.80078 19.8861C5.83355 19.9189 5.87846 19.9378 5.9248 19.9379H18.0752C18.1215 19.9378 18.1664 19.9189 18.1992 19.8861C18.2319 19.8533 18.25 19.8084 18.25 19.7621V5.5873C18.2499 5.54096 18.232 5.49605 18.1992 5.46328C18.1664 5.43051 18.1215 5.41255 18.0752 5.4125H14.7002C14.5415 5.4125 14.4001 5.3386 14.3085 5.22334C14.3027 5.21599 14.2971 5.20848 14.2916 5.2008C14.234 5.11933 14.2002 5.01987 14.2002 4.9125C14.2002 4.63636 14.4241 4.4125 14.7002 4.4125H18.0752C18.3868 4.41255 18.6859 4.53594 18.9062 4.75625C19.1266 4.97656 19.2499 5.27575 19.25 5.5873V19.7621C19.25 20.0736 19.1264 20.3728 18.9062 20.5932C18.6859 20.8135 18.3868 20.9378 18.0752 20.9379H5.9248C5.61325 20.9378 5.31406 20.8135 5.09375 20.5932C4.87358 20.3728 4.75 20.0736 4.75 19.7621Z" fill="black"/>
<path d="M14.875 6.9375C14.875 6.31652 14.6743 5.71607 14.3085 5.22334C14.3027 5.21599 14.2971 5.20848 14.2916 5.2008C14.2128 5.09676 14.1266 4.99765 14.0332 4.9043C13.494 4.36513 12.7625 4.0625 12 4.0625C11.2375 4.0625 10.506 4.36513 9.9668 4.9043C9.87345 4.99765 9.78719 5.09676 9.70837 5.2008C9.70294 5.20848 9.6973 5.21599 9.69146 5.22334C9.32572 5.71607 9.125 6.31652 9.125 6.9375V7.1123H14.875V6.9375ZM15.875 7.6123C15.875 7.88845 15.6511 8.1123 15.375 8.1123H8.625C8.34886 8.1123 8.125 7.88845 8.125 7.6123V6.9375C8.125 5.90979 8.53306 4.92397 9.25977 4.19727C9.98647 3.47056 10.9723 3.0625 12 3.0625C13.0277 3.0625 14.0135 3.47056 14.7402 4.19727C15.4669 4.92397 15.875 5.90979 15.875 6.9375V7.6123Z" fill="black"/>
<path d="M10.1756 15.4466C10.0049 15.4466 9.86627 15.4066 9.75961 15.3266C9.65294 15.2413 9.56761 15.1133 9.50361 14.9426L7.88761 10.3986C7.81827 10.1959 7.83161 10.0226 7.92761 9.8786C8.02894 9.7346 8.20227 9.6626 8.44761 9.6626C8.61827 9.6626 8.74894 9.7026 8.83961 9.7826C8.93561 9.8626 9.01294 9.98793 9.07161 10.1586L10.3916 14.0866H10.0476L11.4396 10.1666C11.5036 9.99593 11.5809 9.8706 11.6716 9.7906C11.7676 9.70526 11.8929 9.6626 12.0476 9.6626C12.1969 9.6626 12.3169 9.70526 12.4076 9.7906C12.4983 9.8706 12.5756 9.9986 12.6396 10.1746L13.9676 14.0866H13.6716L15.0156 10.1586C15.0689 9.99326 15.1436 9.8706 15.2396 9.7906C15.3356 9.70526 15.4663 9.6626 15.6316 9.6626C15.8396 9.6626 15.9916 9.7346 16.0876 9.8786C16.1836 10.0226 16.1943 10.1959 16.1196 10.3986L14.4876 14.9506C14.4289 15.1159 14.3489 15.2413 14.2476 15.3266C14.1463 15.4066 14.0076 15.4466 13.8316 15.4466C13.6609 15.4466 13.5249 15.4066 13.4236 15.3266C13.3223 15.2413 13.2396 15.1133 13.1756 14.9426L11.9116 11.3666H12.1036L10.8236 14.9506C10.7596 15.1159 10.6769 15.2413 10.5756 15.3266C10.4796 15.4066 10.3463 15.4466 10.1756 15.4466Z" fill="black"/>
<path d="M16.5 16.373C16.7761 16.373 17 16.5969 17 16.873C17 17.1492 16.7761 17.373 16.5 17.373H7.5C7.22386 17.373 7 17.1492 7 16.873C7 16.5969 7.22386 16.373 7.5 16.373H16.5Z" fill="black"/>
</svg>