<svg xmlns="http://www.w3.org/2000/svg" width="24" height="24" fill="currentColor" viewBox="0 0 24 24"><path d="M20.1 5.419H3.9A1.18 1.18 0 0 0 2.719 6.6v10.8A1.18 1.18 0 0 0 3.9 18.581h16.2a1.18 1.18 0 0 0 1.181-1.181V6.6A1.18 1.18 0 0 0 20.1 5.419m.169 11.981a.17.17 0 0 1-.169.169H3.9a.17.17 0 0 1-.169-.169V6.6a.17.17 0 0 1 .169-.169h16.2a.17.17 0 0 1 .169.169zm-9.181-3.315a.506.506 0 0 1-.185.692 3.206 3.206 0 1 1 0-5.554.506.506 0 1 1-.506.876 2.194 2.194 0 1 0 0 3.801.506.506 0 0 1 .691.185m6.75 0a.506.506 0 0 1-.185.692 3.206 3.206 0 1 1 0-5.554.506.506 0 1 1-.506.876 2.194 2.194 0 1 0 0 3.801.506.506 0 0 1 .691.185"/></svg>