<svg xmlns="http://www.w3.org/2000/svg" fill="currentColor" viewBox="0 0 24 24" width="24" height="24"><path d="M22.119 11.706c-.154-3.964-3.448-7.131-7.414-7.131a7.43 7.43 0 0 0-6.646 4.107 7.4 7.4 0 0 0-.784 3.296.69.69 0 0 1-.627.698.675.675 0 0 1-.723-.675 8.8 8.8 0 0 1 .451-2.778.338.338 0 0 0-.401-.437 5.41 5.41 0 0 0-4.1 5.24c0 2.969 2.51 5.4 5.484 5.4H14.7a7.433 7.433 0 0 0 7.419-7.719zm-4.242.771a.675.675 0 0 1-.955 0l-1.547-1.548v5.121a.675.675 0 0 1-1.35 0v-5.121l-1.547 1.548a.675.675 0 0 1-.955-.955l2.7-2.7a.675.675 0 0 1 .955 0l2.7 2.7a.675.675 0 0 1 0 .955z"/></svg>