<svg xmlns="http://www.w3.org/2000/svg" fill="currentColor" viewBox="0 0 24 24" width="24" height="24"><path d="M14.363 2.719a6.26 6.26 0 0 0-5.897 4.16.5.5 0 0 0-.154-.052 4.3 4.3 0 0 0-.699-.057 4.219 4.219 0 0 0 0 8.438h3.493l-1.565 2.608a.506.506 0 0 0 .435.767h2.481l-1.565 2.608a.507.507 0 0 0 .869.521l2.025-3.375a.506.506 0 0 0-.435-.767H10.87l1.418-2.363h2.076a6.244 6.244 0 0 0 0-12.488zm0 11.475h-6.75a3.206 3.206 0 1 1 .532-6.369l.067.007a6 6 0 0 0-.093.764.507.507 0 0 0 1.013.059 5.236 5.236 0 1 1 5.231 5.539"/></svg>