<svg xmlns="http://www.w3.org/2000/svg" fill="currentColor" viewBox="0 0 24 24" width="24" height="24"><path d="M21.45 12a6.75 6.75 0 0 1-6.75 6.75H7.275A4.725 4.725 0 1 1 8.45 9.447v.008a6.75 6.75 0 0 1 13 2.545" opacity=".2"/><path d="M16.247 15.178 14.7 13.63v5.121a.675.675 0 0 1-1.35 0V13.63l-1.547 1.548a.675.675 0 0 1-.955-.955l2.7-2.7a.675.675 0 0 1 .955 0l2.7 2.7a.675.675 0 0 1-.955.955zM14.7 4.575a7.43 7.43 0 0 0-6.641 4.107 5.4 5.4 0 1 0-.784 10.743h3.375a.675.675 0 0 0 0-1.35H7.275a4.05 4.05 0 0 1 0-8.1c.093 0 .186 0 .278.01A7.4 7.4 0 0 0 7.275 12a.675.675 0 0 0 1.35 0 6.075 6.075 0 1 1 8.505 5.569.675.675 0 0 0 .27 1.294.7.7 0 0 0 .27-.057A7.425 7.425 0 0 0 14.7 4.575"/></svg>