<svg xmlns="http://www.w3.org/2000/svg" fill="currentColor" viewBox="0 0 24 24" width="24" height="24"><path d="M17.083 15.058a.506.506 0 0 1-.716 0l-1.836-1.835v5.527a.506.506 0 0 1-1.012 0v-5.527l-1.836 1.835a.506.506 0 0 1-.716-.716l2.7-2.7a.506.506 0 0 1 .716 0l2.7 2.7a.506.506 0 0 1 0 .716M14.7 4.744a7.27 7.27 0 0 0-6.545 4.124 5.231 5.231 0 1 0-.88 10.388h3.375a.506.506 0 0 0 0-1.012H7.275a4.219 4.219 0 0 1 0-8.438 4 4 0 0 1 .499.03 7.2 7.2 0 0 0-.33 2.163.507.507 0 0 0 1.013 0 6.244 6.244 0 1 1 8.741 5.725.506.506 0 0 0 .405.928A7.256 7.256 0 0 0 14.7 4.743z"/></svg>