<svg xmlns="http://www.w3.org/2000/svg" width="24" height="24" fill="currentColor" viewBox="0 0 24 24"><path d="M6.924 9.014 3.341 12l3.583 2.986a.506.506 0 1 1-.648.778l-4.05-3.375a.506.506 0 0 1 0-.778l4.05-3.375a.506.506 0 0 1 .648.778m14.85 2.597-4.05-3.375a.506.506 0 1 0-.648.778L20.659 12l-3.583 2.986a.506.506 0 1 0 .648.778l4.05-3.375a.506.506 0 0 0 0-.778m-6.901-7.509a.506.506 0 0 0-.649.305l-5.4 14.85a.506.506 0 0 0 .307.645.5.5 0 0 0 .169.03.51.51 0 0 0 .476-.333l5.4-14.85a.506.506 0 0 0-.303-.649z"/></svg>