<svg xmlns="http://www.w3.org/2000/svg" width="24" height="24" fill="currentColor" viewBox="0 0 24 24"><path d="M9.975 12a.675.675 0 0 1-.675.675H5.925V14.7a.675.675 0 0 1-1.153.478l-2.7-2.7a.675.675 0 0 1 0-.955l2.7-2.7a.675.675 0 0 1 1.153.478v2.025H9.3a.675.675 0 0 1 .675.675zm11.953-.478-2.7-2.7a.675.675 0 0 0-1.153.478v2.025H14.7a.675.675 0 0 0 0 1.35h3.375V14.7a.675.675 0 0 0 1.153.478l2.7-2.7a.675.675 0 0 0 0-.955zM12 3.9a.675.675 0 0 0-.675.675v14.85a.675.675 0 0 0 1.35 0V4.575A.675.675 0 0 0 12 3.9"/></svg>