<svg viewBox="0 0 24 24" fill="none" xmlns="http://www.w3.org/2000/svg" width="24" height="24">
<path d="M7.75 7.25195C7.75 7.25605 7.75097 7.2601 7.75193 7.26414C7.75279 7.26775 7.75365 7.27135 7.75382 7.27498L7.75443 7.29255C7.75496 7.31058 7.75549 7.32839 7.75879 7.34578C7.79318 7.5884 8.00171 7.77498 8.25382 7.77498H14.8749C14.9213 7.77498 14.9661 7.793 14.9989 7.82576C15.0317 7.85853 15.0497 7.90344 15.0497 7.94979V15.5191C15.0499 15.795 15.2738 16.019 15.5497 16.0191C15.8257 16.0191 16.0495 15.7951 16.0497 15.5191V13.8555H19.7246C20.0362 13.8555 20.3353 13.7311 20.5557 13.5107C20.776 13.2904 20.9004 12.9913 20.9004 12.6797V5.25488C20.9003 4.94332 20.776 4.64414 20.5557 4.42383C20.3353 4.20366 20.0361 4.08008 19.7246 4.08008H8.9248C8.61325 4.08013 8.31406 4.20352 8.09375 4.42383C7.87344 4.64414 7.75005 4.94332 7.75 5.25488V7.25195ZM16.0497 12.8555V7.94979C16.0497 7.63823 15.9263 7.33904 15.706 7.11873C15.4856 6.89844 15.1865 6.77498 14.8749 6.77498H8.75V5.25488C8.75005 5.20854 8.76801 5.16363 8.80078 5.13086C8.83355 5.09809 8.87846 5.08013 8.9248 5.08008H19.7246C19.7709 5.08008 19.8158 5.09822 19.8486 5.13086C19.8814 5.16363 19.9003 5.20854 19.9004 5.25488V12.6797C19.9004 12.7261 19.8815 12.7709 19.8486 12.8037C19.8158 12.8365 19.771 12.8555 19.7246 12.8555H16.0497Z" fill="black"/>
<path fill-rule="evenodd" clip-rule="evenodd" d="M3.06396 4.8054C3.2683 4.61993 3.58435 4.63535 3.77002 4.83958L3.95252 5.04033C3.95909 5.04855 3.96597 5.05663 3.97314 5.06453L17.27 19.6892L17.2964 19.7207C17.4537 19.9248 17.4299 20.2188 17.2358 20.3952C17.0315 20.5809 16.7155 20.5663 16.5298 20.362L13.0648 16.5504H6.9165L3.71436 19.1392C3.56454 19.2603 3.35789 19.2837 3.18408 19.2008C3.01049 19.1177 2.8999 18.9421 2.8999 18.7496V7.94979C2.89995 7.63823 3.02334 7.33904 3.24365 7.11873C3.46396 6.89842 3.76315 6.77503 4.07471 6.77498H4.1784L3.02979 5.51146C2.84431 5.30712 2.85973 4.99107 3.06396 4.8054ZM5.08745 7.77498L12.1557 15.5504H6.73975C6.65384 15.5504 6.56977 15.5724 6.49561 15.6138L6.42529 15.6607L3.8999 17.7017V7.94979C3.89995 7.90344 3.91791 7.85853 3.95068 7.82576C3.98346 7.79299 4.02837 7.77503 4.07471 7.77498H5.08745Z" fill="black"/>
</svg>