<svg xmlns="http://www.w3.org/2000/svg" width="24" height="24" fill="currentColor" viewBox="0 0 24 24"><path d="M20.1 6.6v10.8a.675.675 0 0 1-.675.675H7.95l-2.94 2.541A.675.675 0 0 1 3.9 20.1V6.6a.675.675 0 0 1 .675-.675h14.85a.675.675 0 0 1 .675.675" opacity=".2"/><path d="M5.75 4.121a.675.675 0 1 0-.999.908l.201.221h-.376a1.35 1.35 0 0 0-1.35 1.35v13.5a1.34 1.34 0 0 0 .78 1.223 1.4 1.4 0 0 0 .57.127 1.35 1.35 0 0 0 .866-.319l.007-.006 2.756-2.375h9.021l1.026 1.129a.675.675 0 1 0 .999-.908zM7.95 17.4a.68.68 0 0 0-.441.165L4.575 20.1V6.6h1.603l9.819 10.8zM20.775 6.6v10.294a.675.675 0 0 1-1.35 0V6.6h-9.299a.675.675 0 0 1 0-1.35h9.299a1.35 1.35 0 0 1 1.35 1.35"/></svg>