<svg xmlns="http://www.w3.org/2000/svg" fill="currentColor" viewBox="0 0 24 24" width="24" height="24"><path d="M15.206 7.275a.506.506 0 0 1-.506.506H9.3a.507.507 0 0 1 0-1.013h5.4a.506.506 0 0 1 .506.506zM14.7 9.469H9.3a.506.506 0 0 0 0 1.012h5.4a.506.506 0 0 0 0-1.012m3.881-4.894v14.85a1.18 1.18 0 0 1-1.181 1.181H6.6a1.18 1.18 0 0 1-1.181-1.181V4.575A1.18 1.18 0 0 1 6.6 3.394h10.8a1.18 1.18 0 0 1 1.181 1.181m-1.012 0a.17.17 0 0 0-.169-.169H6.6a.17.17 0 0 0-.169.169v14.85a.17.17 0 0 0 .169.169h10.8a.17.17 0 0 0 .169-.169zM12 15.544a.844.844 0 1 0 .844.844.844.844 0 0 0-.844-.844"/></svg>