<svg xmlns="http://www.w3.org/2000/svg" width="24" height="24" fill="currentColor" viewBox="0 0 24 24"><path d="m22.752 11.072-1.181-2.953a1.34 1.34 0 0 0-1.253-.844H17.4V6.6a.675.675 0 0 0-.675-.675H3.9a1.35 1.35 0 0 0-1.35 1.35v9.45a1.35 1.35 0 0 0 1.35 1.35h1.434a2.7 2.7 0 0 0 5.231 0h4.219a2.7 2.7 0 0 0 5.231 0h1.434a1.35 1.35 0 0 0 1.35-1.35v-5.4a.7.7 0 0 0-.048-.253zM7.95 18.75A1.35 1.35 0 1 1 9.3 17.4a1.35 1.35 0 0 1-1.35 1.35M3.9 12.675v-5.4h12.15v5.4zm13.5 6.075a1.35 1.35 0 1 1 1.35-1.35 1.35 1.35 0 0 1-1.35 1.35m0-8.1V8.625h2.918l.81 2.025z"/></svg>