<svg xmlns="http://www.w3.org/2000/svg" width="24" height="24" fill="currentColor" viewBox="0 0 24 24"><path d="M7.95 16.05a2.7 2.7 0 1 1-2.7-2.7 2.7 2.7 0 0 1 2.7 2.7" opacity=".2"/><path d="m21.928 7.472-2.7-2.7a.675.675 0 0 0-.955.955l1.548 1.547H18.75c-4.162 0-5.151 2.373-6.023 4.465-.791 1.899-1.428 3.425-4.175 3.615a3.375 3.375 0 1 0 .008 1.35c3.65-.224 4.585-2.46 5.412-4.446.846-2.031 1.515-3.634 4.777-3.634h1.071l-1.548 1.547a.675.675 0 0 0 .955.955l2.7-2.7a.675.675 0 0 0 0-.955zM5.25 18.075a2.025 2.025 0 1 1 2.025-2.025 2.025 2.025 0 0 1-2.025 2.025"/></svg>