<svg viewBox="0 0 24 24" fill="none" xmlns="http://www.w3.org/2000/svg" width="24" height="24">
<path d="M15.377 5.4248C15.5705 5.42495 15.7467 5.53679 15.8291 5.71191L21.2285 17.1865C21.3461 17.4364 21.2391 17.735 20.9893 17.8525C20.7395 17.9699 20.4418 17.8621 20.3242 17.6123L15.376 7.09863L10.4287 17.6123C10.3112 17.8621 10.0135 17.97 9.76367 17.8525C9.51381 17.735 9.40683 17.4364 9.52441 17.1865L14.9238 5.71191C15.0063 5.53667 15.1833 5.4248 15.377 5.4248Z" fill="black"/>
<path d="M7.4502 15.0371C7.45007 14.0692 6.52964 13.1749 5.25 13.1748C3.97026 13.1748 3.04993 14.0692 3.0498 15.0371C3.0498 16.0051 3.97017 16.8994 5.25 16.8994C6.52973 16.8993 7.4502 16.0051 7.4502 15.0371ZM8.4502 15.0371C8.4502 16.6786 6.95243 17.8993 5.25 17.8994C3.54749 17.8994 2.0498 16.6787 2.0498 15.0371C2.04992 13.3957 3.54756 12.1748 5.25 12.1748C6.95236 12.1749 8.45008 13.3957 8.4502 15.0371Z" fill="black"/>
<path d="M7.44922 17.3994V12.3369C7.44909 11.3694 6.52926 10.4748 5.25 10.4746C4.50536 10.4746 3.93772 10.646 3.57715 11.0039C3.38126 11.1985 3.06472 11.1977 2.87012 11.002C2.67557 10.8061 2.67628 10.4895 2.87207 10.2949C3.50039 9.67089 4.38162 9.47461 5.25 9.47461C6.95203 9.4748 8.4491 10.6959 8.44922 12.3369V17.3994C8.44922 17.6756 8.22536 17.8994 7.94922 17.8994C7.67326 17.8992 7.44922 17.6754 7.44922 17.3994Z" fill="black"/>
<path d="M19.1514 13.5254C19.4275 13.5254 19.6514 13.7492 19.6514 14.0254C19.6514 14.3015 19.4275 14.5254 19.1514 14.5254H11.5273C11.2512 14.5254 11.0273 14.3015 11.0273 14.0254C11.0273 13.7492 11.2512 13.5254 11.5273 13.5254H19.1514Z" fill="black"/>
</svg>