<svg viewBox="0 0 24 24" fill="none" xmlns="http://www.w3.org/2000/svg" width="24" height="24">
<path d="M16.5889 12.6758H13.4854L15.0371 9.00781L16.5889 12.6758Z" fill="black"/>
<path d="M7.26758 13.3496C7.99899 13.3497 8.61713 13.814 8.61719 14.3623C8.61719 14.9107 7.99902 15.3749 7.26758 15.375C6.53605 15.375 5.91699 14.9107 5.91699 14.3623C5.91705 13.8139 6.53608 13.3496 7.26758 13.3496Z" fill="black"/>
<path fill-rule="evenodd" clip-rule="evenodd" d="M19.4248 4.5752C19.7828 4.5752 20.1267 4.71753 20.3799 4.9707C20.6329 5.22377 20.7753 5.56697 20.7754 5.9248V18.0752C20.7754 18.4332 20.6331 18.7771 20.3799 19.0303C20.1267 19.2834 19.7828 19.4248 19.4248 19.4248H4.5752C4.21718 19.4248 3.87329 19.2834 3.62012 19.0303C3.36694 18.7771 3.22461 18.4332 3.22461 18.0752V5.9248C3.22471 5.56702 3.36719 5.22376 3.62012 4.9707C3.87329 4.71753 4.21715 4.5752 4.5752 4.5752H19.4248ZM15.0371 6.59961C14.9045 6.59961 14.7746 6.63867 14.6641 6.71191C14.5535 6.78522 14.4667 6.88957 14.415 7.01172L10.7021 15.7871C10.6324 15.9519 10.6311 16.1378 10.6982 16.3037C10.7655 16.4697 10.8966 16.6021 11.0615 16.6719C11.2264 16.7416 11.4122 16.743 11.5781 16.6758C11.744 16.6085 11.8765 16.4783 11.9463 16.3135L12.9141 14.0254H17.1602L18.1279 16.3135C18.1978 16.4784 18.3301 16.6085 18.4961 16.6758C18.6621 16.743 18.8478 16.7417 19.0127 16.6719C19.1776 16.602 19.3078 16.4697 19.375 16.3037C19.4422 16.1377 19.4409 15.952 19.3711 15.7871L15.6592 7.01172C15.6076 6.88952 15.5207 6.78525 15.4102 6.71191C15.2996 6.6386 15.1698 6.59965 15.0371 6.59961ZM7.26758 9.2998C6.63787 9.29515 6.02271 9.49256 5.51367 9.86328C5.3702 9.97025 5.27489 10.1305 5.24902 10.3076C5.22332 10.4845 5.2693 10.6642 5.37598 10.8076C5.48294 10.9512 5.64317 11.0464 5.82031 11.0723C5.99717 11.098 6.17693 11.053 6.32031 10.9463C6.59621 10.7491 6.9285 10.6446 7.26758 10.6494C7.98974 10.6495 8.60031 11.1026 8.61719 11.6426V12.3174C8.19856 12.1068 7.73621 11.9979 7.26758 12C5.77923 12 4.56743 13.0596 4.56738 14.3623C4.56738 15.6651 5.7792 16.7246 7.26758 16.7246C7.76633 16.7269 8.25802 16.6033 8.69629 16.3652C8.76676 16.4983 8.87915 16.6045 9.0166 16.666C9.15417 16.7275 9.30883 16.7414 9.45508 16.7051C9.6013 16.6688 9.73136 16.5845 9.82422 16.4658C9.91708 16.3472 9.9677 16.2005 9.96777 16.0498V11.6621C9.9676 10.3595 8.75576 9.2999 7.26758 9.2998Z" fill="black"/>
</svg>