<svg xmlns="http://www.w3.org/2000/svg" fill="currentColor" viewBox="0 0 24 24" width="24" height="24"><path d="M18.75 5.25v13.5H5.25V5.25z" opacity=".2"/><path d="M19.425 5.25v3.375a.675.675 0 0 1-1.35 0v-2.7h-2.7a.675.675 0 0 1 0-1.35h3.375a.675.675 0 0 1 .675.675m-10.8 12.825h-2.7v-2.7a.675.675 0 0 0-1.35 0v3.375a.675.675 0 0 0 .675.675h3.375a.675.675 0 0 0 0-1.35M18.75 14.7a.675.675 0 0 0-.675.675v2.7h-2.7a.675.675 0 0 0 0 1.35h3.375a.675.675 0 0 0 .675-.675v-3.375a.675.675 0 0 0-.675-.675M8.625 4.575H5.25a.675.675 0 0 0-.675.675v3.375a.675.675 0 0 0 1.35 0v-2.7h2.7a.675.675 0 0 0 0-1.35"/></svg>