<svg xmlns="http://www.w3.org/2000/svg" fill="currentColor" viewBox="0 0 24 24" width="24" height="24"><path d="M19.256 5.25v3.375a.506.506 0 0 1-1.012 0V5.756h-2.869a.507.507 0 0 1 0-1.013h3.375a.506.506 0 0 1 .506.506zM8.625 18.244H5.756v-2.869a.507.507 0 0 0-1.013 0v3.375a.506.506 0 0 0 .506.506h3.375a.506.506 0 0 0 0-1.012zm10.125-3.375a.506.506 0 0 0-.506.506v2.869h-2.869a.506.506 0 0 0 0 1.012h3.375a.506.506 0 0 0 .506-.506v-3.375a.506.506 0 0 0-.506-.506M8.625 4.744H5.25a.506.506 0 0 0-.506.506v3.375a.506.506 0 0 0 1.012 0V5.756h2.869a.507.507 0 0 0 0-1.013z"/></svg>