<svg xmlns="http://www.w3.org/2000/svg" fill="currentColor" viewBox="0 0 24 24" width="24" height="24"><path d="M18.075 5.25H5.925a.675.675 0 0 0-.675.675v12.15a.675.675 0 0 0 .675.675h12.15a.675.675 0 0 0 .675-.675V5.925a.675.675 0 0 0-.675-.675m-4.05 8.775h-4.05v-4.05h4.05z" opacity=".2"/><path d="M14.025 9.3h-4.05a.675.675 0 0 0-.675.675v4.05a.675.675 0 0 0 .675.675h4.05a.675.675 0 0 0 .675-.675v-4.05a.675.675 0 0 0-.675-.675m-.675 4.05h-2.7v-2.7h2.7zm7.425 0h-1.35v-2.7h1.35a.675.675 0 0 0 0-1.35h-1.35V5.925a1.35 1.35 0 0 0-1.35-1.35H14.7v-1.35a.675.675 0 0 0-1.35 0v1.35h-2.7v-1.35a.675.675 0 0 0-1.35 0v1.35H5.925a1.35 1.35 0 0 0-1.35 1.35V9.3h-1.35a.675.675 0 0 0 0 1.35h1.35v2.7h-1.35a.675.675 0 0 0 0 1.35h1.35v3.375a1.35 1.35 0 0 0 1.35 1.35H9.3v1.35a.675.675 0 0 0 1.35 0v-1.35h2.7v1.35a.675.675 0 0 0 1.35 0v-1.35h3.375a1.35 1.35 0 0 0 1.35-1.35V14.7h1.35a.675.675 0 0 0 0-1.35m-2.7 4.725H5.925V5.925h12.15z"/></svg>