<svg xmlns="http://www.w3.org/2000/svg" fill="currentColor" viewBox="0 0 24 24" width="24" height="24"><path d="M20.1 12A8.1 8.1 0 1 1 12 3.9a8.1 8.1 0 0 1 8.1 8.1" opacity=".2"/><path d="M12 3.225A8.775 8.775 0 1 0 20.775 12 8.784 8.784 0 0 0 12 3.225m.675 16.169v-2.669a.675.675 0 0 0-1.35 0v2.669a7.436 7.436 0 0 1-6.719-6.719h2.669a.675.675 0 0 0 0-1.35H4.606a7.436 7.436 0 0 1 6.719-6.719v2.669a.675.675 0 0 0 1.35 0V4.606a7.436 7.436 0 0 1 6.719 6.719h-2.669a.675.675 0 0 0 0 1.35h2.669a7.436 7.436 0 0 1-6.719 6.719"/></svg>