<svg xmlns="http://www.w3.org/2000/svg" width="24" height="24" fill="currentColor" viewBox="0 0 24 24"><path d="M18.75 8.625h-4.725V3.9z" opacity=".2"/><path d="M5.25 16.388c0 .928.606 1.687 1.35 1.687a1.2 1.2 0 0 0 .862-.393.675.675 0 0 1 .975.933 2.54 2.54 0 0 1-1.838.81c-1.489 0-2.7-1.363-2.7-3.037s1.211-3.037 2.7-3.037a2.54 2.54 0 0 1 1.838.81.675.675 0 0 1-.975.933 1.2 1.2 0 0 0-.862-.393c-.744 0-1.35.759-1.35 1.688zm14.175-7.763V20.1a.675.675 0 0 1-1.35 0V9.3h-4.05a.675.675 0 0 1-.675-.675v-4.05H5.925v6.075a.675.675 0 0 1-1.35 0V4.575a1.35 1.35 0 0 1 1.35-1.35h8.1a.68.68 0 0 1 .478.197l4.725 4.725a.68.68 0 0 1 .197.478M14.7 7.95h2.421L14.7 5.529zm.675 7.425v1.35h.675a.675.675 0 0 1 0 1.35h-.675v.675a.675.675 0 0 1-1.35 0v-.675h-1.35v.675a.675.675 0 0 1-1.35 0v-.675h-.675a.675.675 0 0 1 0-1.35h.675v-1.35h-.675a.675.675 0 0 1 0-1.35h.675v-.675a.675.675 0 0 1 1.35 0v.675h1.35v-.675a.675.675 0 0 1 1.35 0v.675h.675a.675.675 0 0 1 0 1.35zm-1.35 0h-1.35v1.35h1.35z"/></svg>