<svg xmlns="http://www.w3.org/2000/svg" width="24" height="24" fill="currentColor" viewBox="0 0 24 24"><path d="M5.25 16.388c0 .928.606 1.687 1.35 1.687a1.2 1.2 0 0 0 .85-.381.69.69 0 0 1 .918-.076.675.675 0 0 1 .07.996 2.54 2.54 0 0 1-1.838.81c-1.489 0-2.7-1.363-2.7-3.037s1.211-3.037 2.7-3.037a2.53 2.53 0 0 1 1.804.775.696.696 0 0 1 .062.936.675.675 0 0 1-1.004.032A1.2 1.2 0 0 0 6.6 14.7c-.744 0-1.35.759-1.35 1.688m14.175-7.763v11.454a.69.69 0 0 1-.575.689.675.675 0 0 1-.775-.667v-8.438a.34.34 0 0 0-.337-.338H4.913a.34.34 0 0 1-.337-.338V4.575a1.35 1.35 0 0 1 1.35-1.35h8.1a.68.68 0 0 1 .478.197l4.725 4.725a.68.68 0 0 1 .197.478zm-1.688 0-3.713-3.713v3.713zm-2.363 6.75v1.35h.652a.69.69 0 0 1 .696.63.675.675 0 0 1-.675.72h-.675v.652a.69.69 0 0 1-.63.696.675.675 0 0 1-.72-.675v-.675h-1.348v.652a.69.69 0 0 1-.63.696.675.675 0 0 1-.72-.675v-.675h-.652a.69.69 0 0 1-.696-.63.675.675 0 0 1 .675-.72h.675v-1.347h-.652a.69.69 0 0 1-.696-.63.675.675 0 0 1 .675-.72h.675v-.652a.69.69 0 0 1 .63-.696.675.675 0 0 1 .72.675v.675h1.35v-.652a.69.69 0 0 1 .63-.696.675.675 0 0 1 .72.675v.675h.652a.69.69 0 0 1 .696.63.675.675 0 0 1-.675.72zm-1.35 0h-1.35v1.35h1.35z"/></svg>