<svg viewBox="0 0 24 24" fill="none" xmlns="http://www.w3.org/2000/svg" width="24" height="24">
<path d="M19.6001 5.9248C19.6 5.82837 19.5217 5.75021 19.4253 5.75H4.57471C4.47821 5.75011 4.40001 5.82831 4.3999 5.9248V18.0752C4.40001 18.1717 4.47821 18.2499 4.57471 18.25H19.4253C19.5217 18.2498 19.6 18.1716 19.6001 18.0752V5.9248ZM20.6001 18.0752C20.6 18.7239 20.074 19.2498 19.4253 19.25H4.57471C3.92593 19.2499 3.40001 18.724 3.3999 18.0752V5.9248C3.40001 5.27602 3.92593 4.75011 4.57471 4.75H19.4253C20.074 4.75021 20.6 5.27609 20.6001 5.9248V18.0752Z" fill="black"/>
<path d="M6.9374 9.13125C7.40339 9.13125 7.78115 8.75349 7.78115 8.2875C7.78115 7.82151 7.40339 7.44375 6.9374 7.44375C6.47141 7.44375 6.09365 7.82151 6.09365 8.2875C6.09365 8.75349 6.47141 9.13125 6.9374 9.13125Z" fill="black"/>
<path d="M10.3124 9.13125C10.7784 9.13125 11.1562 8.75349 11.1562 8.2875C11.1562 7.82151 10.7784 7.44375 10.3124 7.44375C9.84641 7.44375 9.46865 7.82151 9.46865 8.2875C9.46865 8.75349 9.84641 9.13125 10.3124 9.13125Z" fill="black"/>
<path d="M10.0639 16.4196C9.4239 16.4196 8.8639 16.2956 8.3839 16.0476C7.9119 15.7916 7.5479 15.4316 7.2919 14.9676C7.0359 14.5036 6.9079 13.9556 6.9079 13.3236C6.9079 12.8516 6.9799 12.4276 7.1239 12.0516C7.2679 11.6756 7.4759 11.3556 7.7479 11.0916C8.0279 10.8276 8.3639 10.6276 8.7559 10.4916C9.1479 10.3476 9.5839 10.2756 10.0639 10.2756C10.3119 10.2756 10.5759 10.3076 10.8559 10.3716C11.1359 10.4276 11.4119 10.5276 11.6839 10.6716C11.8439 10.7436 11.9519 10.8476 12.0079 10.9836C12.0719 11.1116 12.0959 11.2476 12.0799 11.3916C12.0639 11.5276 12.0119 11.6516 11.9239 11.7636C11.8439 11.8676 11.7399 11.9396 11.6119 11.9796C11.4839 12.0116 11.3399 11.9876 11.1799 11.9076C11.0279 11.8196 10.8679 11.7556 10.6999 11.7156C10.5399 11.6756 10.3879 11.6556 10.2439 11.6556C10.0039 11.6556 9.7919 11.6956 9.6079 11.7756C9.4239 11.8476 9.2679 11.9556 9.1399 12.0996C9.0199 12.2356 8.9239 12.4076 8.8519 12.6156C8.7879 12.8236 8.7559 13.0636 8.7559 13.3356C8.7559 13.8636 8.8839 14.2796 9.1399 14.5836C9.4039 14.8796 9.7719 15.0276 10.2439 15.0276C10.3879 15.0276 10.5399 15.0116 10.6999 14.9796C10.8599 14.9396 11.0199 14.8756 11.1799 14.7876C11.3399 14.7076 11.4839 14.6876 11.6119 14.7276C11.7399 14.7676 11.8399 14.8436 11.9119 14.9556C11.9919 15.0596 12.0359 15.1836 12.0439 15.3276C12.0599 15.4636 12.0359 15.5996 11.9719 15.7356C11.9159 15.8636 11.8119 15.9636 11.6599 16.0356C11.3879 16.1716 11.1159 16.2676 10.8439 16.3236C10.5719 16.3876 10.3119 16.4196 10.0639 16.4196Z" fill="black"/>
<path d="M13.5319 16.3596C13.3879 16.3596 13.2892 16.3169 13.2359 16.2316C13.1826 16.1463 13.1692 16.0343 13.1959 15.8956L13.3879 14.8956L13.7799 14.9596H13.2679C13.1772 14.9596 13.0999 14.9463 13.0359 14.9196C12.9719 14.8929 12.9239 14.8529 12.8919 14.7996C12.8599 14.7409 12.8439 14.6716 12.8439 14.5916C12.8439 14.4689 12.8812 14.3756 12.9559 14.3116C13.0306 14.2476 13.1346 14.2156 13.2679 14.2156H13.9159L13.4999 14.2956L13.8359 12.5676L14.1239 12.6556H13.4439C13.3532 12.6556 13.2759 12.6396 13.2119 12.6076C13.1479 12.5756 13.0972 12.5329 13.0599 12.4796C13.0279 12.4209 13.0119 12.3516 13.0119 12.2716C13.0119 12.1489 13.0492 12.0583 13.1239 11.9996C13.2039 11.9409 13.3106 11.9116 13.4439 11.9116H14.2599L13.9399 11.9836L14.1479 10.9596C14.1746 10.8316 14.2252 10.7356 14.2999 10.6716C14.3799 10.6076 14.4812 10.5756 14.6039 10.5756C14.7372 10.5756 14.8332 10.6183 14.8919 10.7036C14.9506 10.7836 14.9639 10.8956 14.9319 11.0396L14.7639 11.9116H15.6199L15.8039 10.9596C15.8359 10.8316 15.8892 10.7356 15.9639 10.6716C16.0386 10.6076 16.1399 10.5756 16.2679 10.5756C16.3959 10.5756 16.4892 10.6183 16.5479 10.7036C16.6119 10.7836 16.6279 10.8956 16.5959 11.0396L16.4119 11.9836L16.1319 11.9116H16.5319C16.6226 11.9116 16.6999 11.9249 16.7639 11.9516C16.8279 11.9783 16.8759 12.0183 16.9079 12.0716C16.9399 12.1249 16.9559 12.1916 16.9559 12.2716C16.9559 12.3889 16.9186 12.4823 16.8439 12.5516C16.7746 12.6209 16.6706 12.6556 16.5319 12.6556H15.9799L16.2999 12.5676L15.9559 14.2956L15.6759 14.2156H16.3559C16.4519 14.2156 16.5292 14.2316 16.5879 14.2636C16.6519 14.2903 16.6999 14.3303 16.7319 14.3836C16.7692 14.4369 16.7879 14.5063 16.7879 14.5916C16.7879 14.7089 16.7506 14.7996 16.6759 14.8636C16.6012 14.9276 16.4946 14.9596 16.3559 14.9596H15.5319L15.8599 14.8956L15.6359 15.9756C15.6092 16.1089 15.5586 16.2076 15.4839 16.2716C15.4092 16.3303 15.3106 16.3596 15.1879 16.3596C15.0546 16.3596 14.9586 16.3196 14.8999 16.2396C14.8412 16.1543 14.8252 16.0396 14.8519 15.8956L15.0359 14.9596H14.1799L13.9799 15.9756C13.9586 16.1089 13.9079 16.2076 13.8279 16.2716C13.7532 16.3303 13.6546 16.3596 13.5319 16.3596ZM14.3239 14.2156H15.1719L15.4759 12.6556H14.6279L14.3239 14.2156Z" fill="black"/>
</svg>