<svg viewBox="0 0 24 24" fill="none" xmlns="http://www.w3.org/2000/svg" width="24" height="24">
<path opacity="0.2" d="M19.4252 10.65V5.925C19.4252 5.74598 19.3541 5.57429 19.2275 5.4477C19.1009 5.32112 18.9292 5.25 18.7502 5.25H5.2502C5.07117 5.25 4.89949 5.32112 4.7729 5.4477C4.64631 5.57429 4.5752 5.74598 4.5752 5.925V10.65C4.5752 18.75 12.0002 20.775 12.0002 20.775C12.0002 20.775 19.4252 18.75 19.4252 10.65Z" fill="black"/>
<path d="M18.9248 5.9248C18.9248 5.87846 18.9068 5.83355 18.874 5.80078C18.8412 5.76808 18.7963 5.75 18.75 5.75H5.25C5.20366 5.75005 5.15875 5.76801 5.12598 5.80078C5.0932 5.83355 5.07525 5.87846 5.0752 5.9248V10.6504C5.07531 14.522 6.84058 16.9201 8.60449 18.3633C9.49136 19.0889 10.38 19.5738 11.0469 19.877C11.3798 20.0283 11.656 20.1333 11.8467 20.2002C11.9064 20.2211 11.958 20.2374 12 20.251C12.042 20.2374 12.0936 20.2211 12.1533 20.2002C12.3439 20.1334 12.6203 20.0282 12.9531 19.877C13.6201 19.5738 14.5095 19.089 15.3965 18.3633C17.1604 16.9201 18.9247 14.5219 18.9248 10.6504V5.9248ZM19.9248 10.6504C19.9247 14.8783 17.9777 17.5425 16.0293 19.1367C15.06 19.9298 14.0924 20.4575 13.3672 20.7871C13.004 20.9522 12.6997 21.068 12.4844 21.1436C12.3769 21.1812 12.2914 21.209 12.2314 21.2275C12.2016 21.2368 12.1778 21.2442 12.1611 21.249C12.1528 21.2515 12.1455 21.2535 12.1406 21.2549C12.1384 21.2555 12.1362 21.2564 12.1348 21.2568H12.1318C12.0457 21.2803 11.9543 21.2813 11.8682 21.2578L11.8652 21.2568C11.8637 21.2564 11.8618 21.2556 11.8594 21.2549C11.8546 21.2535 11.8481 21.2514 11.8398 21.249C11.8232 21.2442 11.7994 21.2368 11.7695 21.2275C11.7095 21.209 11.6234 21.1813 11.5156 21.1436C11.3003 21.068 10.9959 20.9521 10.6328 20.7871C9.90761 20.4574 8.93986 19.9297 7.9707 19.1367C6.02235 17.5425 4.07532 14.8781 4.0752 10.6504V5.9248C4.07525 5.61325 4.19864 5.31406 4.41895 5.09375C4.63925 4.87344 4.93844 4.75005 5.25 4.75H18.75C19.0615 4.75 19.3607 4.87352 19.5811 5.09375C19.8014 5.31406 19.9248 5.61325 19.9248 5.9248V10.6504Z" fill="black"/>
<path d="M14.0249 7.78711C14.2113 7.78711 14.3822 7.89127 14.4683 8.05664C14.5542 8.22197 14.5419 8.42155 14.4351 8.57422L12.5278 11.2959C12.6957 11.3491 12.8588 11.4181 13.0151 11.502C13.431 11.725 13.7852 12.0474 14.0464 12.4404C14.3075 12.8335 14.4677 13.2851 14.5122 13.7549C14.5567 14.2247 14.4841 14.6987 14.3013 15.1338C14.1185 15.5688 13.831 15.952 13.4644 16.249C13.0977 16.546 12.6631 16.7473 12.1997 16.8359C11.7362 16.9245 11.2575 16.8978 10.8071 16.7568C10.3568 16.6159 9.94801 16.3653 9.61768 16.0283C9.42457 15.8311 9.42835 15.5145 9.62549 15.3213C9.82271 15.1282 10.1393 15.131 10.3325 15.3281C10.5474 15.5474 10.813 15.71 11.106 15.8018C11.399 15.8935 11.7106 15.9121 12.0122 15.8545C12.3137 15.7968 12.596 15.6649 12.8345 15.4717C13.0731 15.2784 13.2604 15.0292 13.3794 14.7461C13.4983 14.4631 13.545 14.1552 13.5161 13.8496C13.4872 13.5439 13.3833 13.2499 13.2134 12.9941C13.0434 12.7384 12.8131 12.5279 12.5425 12.3828C12.2719 12.2378 11.9696 12.1622 11.6626 12.1621C11.4762 12.1621 11.3053 12.0579 11.2192 11.8926C11.1333 11.7273 11.1466 11.5276 11.2534 11.375L13.0649 8.78711H9.9751C9.69896 8.78711 9.4751 8.56325 9.4751 8.28711C9.4751 8.01097 9.69896 7.78711 9.9751 7.78711H14.0249Z" fill="black"/>
</svg>