<svg xmlns="http://www.w3.org/2000/svg" fill="currentColor" viewBox="0 0 24 24" width="24" height="24"><path d="M20.775 5.25v3.375a.675.675 0 0 1-1.35 0v-2.7h-2.7a.675.675 0 0 1 0-1.35H20.1a.675.675 0 0 1 .675.675m-13.5 12.825h-2.7v-2.7a.675.675 0 0 0-1.35 0v3.375a.675.675 0 0 0 .675.675h3.375a.675.675 0 0 0 0-1.35M20.1 14.7a.675.675 0 0 0-.675.675v2.7h-2.7a.675.675 0 0 0 0 1.35H20.1a.675.675 0 0 0 .675-.675v-3.375a.675.675 0 0 0-.675-.675M3.9 9.3a.675.675 0 0 0 .675-.675v-2.7h2.7a.675.675 0 0 0 0-1.35H3.9a.675.675 0 0 0-.675.675v3.375A.675.675 0 0 0 3.9 9.3m12.312-1.071-3.874-2.216a.68.68 0 0 0-.67 0l-3.88 2.216a.338.338 0 0 0 0 .591L12 11.223l4.212-2.407a.338.338 0 0 0 0-.586zM6.6 10.273V14.7a.68.68 0 0 0 .338.591l3.881 2.217a.338.338 0 0 0 .506-.293v-4.823L7.106 9.981a.338.338 0 0 0-.506.293zM17.4 14.7v-4.427a.338.338 0 0 0-.506-.293l-4.219 2.411v4.819a.338.338 0 0 0 .506.293l3.881-2.212a.68.68 0 0 0 .338-.591"/></svg>