<svg xmlns="http://www.w3.org/2000/svg" fill="currentColor" viewBox="0 0 24 24" width="24" height="24"><path d="M16.725 9.3v5.4L12 17.4l-4.725-2.7V9.3L12 6.6z" opacity=".2"/><path d="M20.775 5.25v3.375a.675.675 0 0 1-1.35 0v-2.7h-2.7a.675.675 0 0 1 0-1.35H20.1a.675.675 0 0 1 .675.675m-13.5 12.825h-2.7v-2.7a.675.675 0 0 0-1.35 0v3.375a.675.675 0 0 0 .675.675h3.375a.675.675 0 0 0 0-1.35M20.1 14.7a.675.675 0 0 0-.675.675v2.7h-2.7a.675.675 0 0 0 0 1.35H20.1a.675.675 0 0 0 .675-.675v-3.375a.675.675 0 0 0-.675-.675M3.9 9.3a.675.675 0 0 0 .675-.675v-2.7h2.7a.675.675 0 0 0 0-1.35H3.9a.675.675 0 0 0-.675.675v3.375A.675.675 0 0 0 3.9 9.3m13.163 5.991-4.725 2.7a.68.68 0 0 1-.67 0l-4.73-2.7A.68.68 0 0 1 6.6 14.7V9.3a.68.68 0 0 1 .338-.591l4.725-2.7a.68.68 0 0 1 .67 0l4.725 2.7a.68.68 0 0 1 .337.591v5.4a.68.68 0 0 1-.332.591M8.636 9.3l3.365 1.923L15.366 9.3l-3.365-1.923zm-.685 5.008 3.375 1.928v-3.845l-3.375-1.928zm8.1 0v-3.845l-3.375 1.928v3.845z"/></svg>