<svg xmlns="http://www.w3.org/2000/svg" fill="currentColor" viewBox="0 0 24 24" width="24" height="24"><path d="M12 12.092v8.683a.7.7 0 0 1-.324-.084l-7.425-4.064a.68.68 0 0 1-.351-.591v-8.07a.7.7 0 0 1 .059-.276z" opacity=".2"/><path d="m20.073 6.781-7.425-4.063a1.34 1.34 0 0 0-1.296 0L3.927 6.782a1.35 1.35 0 0 0-.702 1.181v8.07a1.35 1.35 0 0 0 .702 1.181l7.425 4.064a1.34 1.34 0 0 0 1.296 0l7.425-4.064a1.35 1.35 0 0 0 .702-1.181V7.964a1.35 1.35 0 0 0-.702-1.184zM12 3.9l6.779 3.713L12 11.325 5.221 7.613zM4.575 8.794l6.75 3.694v7.239l-6.75-3.691zm8.1 10.932v-7.235l6.75-3.697v7.238z"/></svg>