<svg xmlns="http://www.w3.org/2000/svg" fill="currentColor" viewBox="0 0 24 24" width="24" height="24"><path d="m19.992 6.929-7.425-4.064a1.17 1.17 0 0 0-1.134 0L4.008 6.93a1.18 1.18 0 0 0-.614 1.035v8.07a1.18 1.18 0 0 0 .614 1.035l7.425 4.065a1.18 1.18 0 0 0 1.134 0l7.425-4.065a1.18 1.18 0 0 0 .614-1.035v-8.07a1.18 1.18 0 0 0-.614-1.036m-8.076-3.177a.17.17 0 0 1 .162 0l7.053 3.86L12 11.513 4.869 7.612zm-7.425 12.43a.17.17 0 0 1-.084-.148V8.511l7.088 3.881v7.622zm15.012 0-6.996 3.833v-7.624l7.088-3.881v7.523a.17.17 0 0 1-.084.149z"/></svg>