<svg xmlns="http://www.w3.org/2000/svg" fill="currentColor" viewBox="0 0 24 24" width="24" height="24"><path d="M19.783 8.941 15.038 4.2a.5.5 0 0 0-.338-.132H4.575a.506.506 0 0 0-.506.506v10.125a.5.5 0 0 0 .148.359l4.725 4.725a.5.5 0 0 0 .358.148h10.125a.506.506 0 0 0 .506-.506V9.3a.5.5 0 0 0-.149-.359zm-4.576-3.145 2.997 2.997h-2.997zM8.794 18.199l-2.997-2.994h2.997zm0-4.006H5.081V5.796l3.712 3.713zM5.797 5.08h8.397v3.713H9.51zm8.397 4.725v4.388H9.807V9.805zm-4.387 9.112v-3.712h4.685l3.712 3.712zm9.112-.715-3.713-3.713V9.805h3.713z"/></svg>