<svg xmlns="http://www.w3.org/2000/svg" width="24" height="24" fill="currentColor" viewBox="0 0 24 24"><path d="M4.592 9.283a2.363 2.363 0 1 1 3.341 0 2.363 2.363 0 0 1-3.341 0m0 5.434a2.363 2.363 0 1 0 3.341 0 2.363 2.363 0 0 0-3.341 0" opacity=".2"/><path d="M14.508 10.745a.675.675 0 0 1 .176-.939l5.709-3.907a.675.675 0 0 1 .759 1.115l-5.71 3.907a.67.67 0 0 1-.381.118.68.68 0 0 1-.554-.294zm6.823 7.179a.675.675 0 0 1-.938.175l-7.719-5.282-3.587 2.454a3.038 3.038 0 1 1-.759-1.113l3.151-2.159L8.324 9.84a3.026 3.026 0 1 1 .759-1.113l12.066 8.258a.675.675 0 0 1 .182.939M7.949 16.387a1.688 1.688 0 1 0-.494 1.193 1.68 1.68 0 0 0 .494-1.193m-.494-7.583a1.688 1.688 0 1 0-2.386 0 1.675 1.675 0 0 0 2.386 0"/></svg>