<svg xmlns="http://www.w3.org/2000/svg" width="24" height="24" fill="currentColor" viewBox="0 0 24 24"><path d="M21.156 16.986 9.09 8.728a3.038 3.038 0 1 0-1.213 1.457l1.805 1.83-1.804 1.802a3.03 3.03 0 1 0 1.213 1.457l2.271-1.553 4.182 4.239a2.72 2.72 0 0 0 1.915.791 3 3 0 0 0 .347-.023h.024l3.06-.516a.675.675 0 0 0 .269-1.223zM7.455 8.802a1.688 1.688 0 1 1 .494-1.189 1.7 1.7 0 0 1-.494 1.192zm0 8.775a1.688 1.688 0 1 1 .494-1.189 1.7 1.7 0 0 1-.494 1.194zm5.147-8.564 2.936-2.969a2.72 2.72 0 0 1 2.265-.771h.024l3.038.512a.7.7 0 0 1 .514.373.675.675 0 0 1-.225.854l-5.9 4.037a.34.34 0 0 1-.381 0l-2.22-1.519a.338.338 0 0 1-.046-.512z"/></svg>