<svg xmlns="http://www.w3.org/2000/svg" width="24" height="24" fill="currentColor" viewBox="0 0 24 24"><path d="M14.648 10.65a.506.506 0 0 1 .132-.704l5.709-3.907a.506.506 0 0 1 .572.836l-5.71 3.907a.506.506 0 0 1-.704-.132zm6.549 7.179a.506.506 0 0 1-.704.132l-7.818-5.348-3.797 2.598a2.869 2.869 0 1 1-.591-.849l.016.017L11.778 12 8.307 9.624l-.019.013a2.869 2.869 0 1 1 .591-.852l12.182 8.336a.506.506 0 0 1 .137.708zM7.575 8.924a1.856 1.856 0 1 0-2.626 0 1.846 1.846 0 0 0 2.626 0m.543 7.463a1.856 1.856 0 1 0-.543 1.313 1.85 1.85 0 0 0 .543-1.313"/></svg>