<svg viewBox="0 0 24 24" fill="none" xmlns="http://www.w3.org/2000/svg" width="24" height="24">
<path d="M12 12.0741C16.1007 12.0741 19.425 10.2609 19.425 8.02412C19.425 5.78737 16.1007 3.97412 12 3.97412C7.89924 3.97412 4.57495 5.78737 4.57495 8.02412C4.57495 10.2609 7.89924 12.0741 12 12.0741Z" fill="black" fill-opacity="0.2"/>
<path d="M18.9246 8.02393C18.9245 7.17436 18.2863 6.29501 17.0105 5.59912C15.7535 4.91358 13.9828 4.47412 11.9998 4.47412C10.0167 4.47415 8.24596 4.91351 6.98901 5.59912C5.71322 6.29501 5.07505 7.17436 5.07495 8.02393C5.07495 8.87352 5.71323 9.7528 6.98901 10.4487C8.24596 11.1343 10.0167 11.5737 11.9998 11.5737C13.9829 11.5737 15.7535 11.1343 17.0105 10.4487C18.2864 9.75279 18.9246 8.87356 18.9246 8.02393ZM19.9246 8.02393C19.9246 9.41094 18.9012 10.5568 17.49 11.3267C16.0597 12.1068 14.1173 12.5737 11.9998 12.5737C9.88235 12.5737 7.94078 12.1068 6.5105 11.3267C5.09907 10.5568 4.07495 9.41105 4.07495 8.02393C4.07505 6.63689 5.09914 5.49102 6.5105 4.72119C7.94076 3.94112 9.88243 3.47415 11.9998 3.47412C14.1173 3.47412 16.0597 3.94101 17.49 4.72119C18.9013 5.49102 19.9245 6.63695 19.9246 8.02393Z" fill="black"/>
<path d="M4.07495 12.0742V8.02393C4.07495 7.74778 4.29881 7.52441 4.57495 7.52441C4.85109 7.52441 5.07495 7.74778 5.07495 8.02393V12.0742C5.07495 12.9238 5.71323 13.8031 6.98901 14.499C8.24597 15.1846 10.0167 15.624 11.9998 15.624C13.9828 15.624 15.7535 15.1846 17.0105 14.499C18.2864 13.8031 18.9246 12.9239 18.9246 12.0742V8.02393C18.9246 7.74791 19.1486 7.52463 19.4246 7.52441C19.7007 7.52441 19.9246 7.74778 19.9246 8.02393V12.0742C19.9246 13.4612 18.9012 14.6071 17.49 15.377C16.0596 16.1571 14.1172 16.624 11.9998 16.624C9.88238 16.624 7.94079 16.1571 6.5105 15.377C5.09907 14.6071 4.07495 13.4614 4.07495 12.0742Z" fill="black"/>
<path d="M4.07495 16.124V12.0742C4.07495 11.7981 4.29881 11.5742 4.57495 11.5742C4.85109 11.5742 5.07495 11.7981 5.07495 12.0742V16.124C5.07495 16.7166 5.37968 17.317 6.00562 17.8711C6.21228 18.0541 6.23148 18.3704 6.04858 18.5771C5.86556 18.7839 5.54929 18.8031 5.34253 18.6201C4.57464 17.9403 4.07495 17.0872 4.07495 16.124Z" fill="black"/>
<path d="M18.3219 21.7591C18.1752 21.7591 18.0619 21.7191 17.9819 21.6391C17.9019 21.5558 17.8619 21.4407 17.8619 21.2941V18.9391H17.0769C16.9535 18.9391 16.8585 18.9074 16.7919 18.8441C16.7285 18.7774 16.6969 18.6841 16.6969 18.5641C16.6969 18.4407 16.7285 18.3474 16.7919 18.2841C16.8585 18.2208 16.9535 18.1891 17.0769 18.1891H19.5669C19.6902 18.1891 19.7835 18.2208 19.8469 18.2841C19.9135 18.3474 19.9469 18.4407 19.9469 18.5641C19.9469 18.6841 19.9135 18.7774 19.8469 18.8441C19.7835 18.9074 19.6902 18.9391 19.5669 18.9391H18.7819V21.2941C18.7819 21.4407 18.7435 21.5558 18.6669 21.6391C18.5902 21.7191 18.4752 21.7591 18.3219 21.7591Z" fill="black"/>
<path d="M15.1583 21.7691C15.0249 21.7691 14.8849 21.7591 14.7383 21.7391C14.5949 21.7224 14.4583 21.6958 14.3283 21.6591C14.1983 21.6224 14.0816 21.5791 13.9783 21.5291C13.8883 21.4857 13.8249 21.4291 13.7883 21.3591C13.7516 21.2857 13.7383 21.2091 13.7483 21.1291C13.7583 21.0491 13.7866 20.9791 13.8333 20.9191C13.8799 20.8557 13.9416 20.8141 14.0183 20.7941C14.0949 20.7707 14.1816 20.7807 14.2783 20.8241C14.4049 20.8841 14.5483 20.9307 14.7083 20.9641C14.8683 20.9974 15.0183 21.0141 15.1583 21.0141C15.3783 21.0141 15.5316 20.9857 15.6183 20.9291C15.7083 20.8691 15.7533 20.7958 15.7533 20.7091C15.7533 20.6324 15.7216 20.5708 15.6583 20.5241C15.5983 20.4774 15.4899 20.4374 15.3333 20.4041L14.7483 20.2791C14.4283 20.2124 14.1899 20.0957 14.0333 19.9291C13.8766 19.7624 13.7983 19.5474 13.7983 19.2841C13.7983 19.1107 13.8333 18.9541 13.9033 18.8141C13.9766 18.6707 14.0783 18.5491 14.2083 18.4491C14.3416 18.3491 14.4983 18.2724 14.6783 18.2191C14.8616 18.1624 15.0649 18.1341 15.2883 18.1341C15.4616 18.1341 15.6366 18.1541 15.8133 18.1941C15.9933 18.2308 16.1483 18.2874 16.2783 18.3641C16.3549 18.4041 16.4099 18.4591 16.4433 18.5291C16.4766 18.5991 16.4899 18.6724 16.4833 18.7491C16.4766 18.8224 16.4499 18.8874 16.4033 18.9441C16.3599 19.0007 16.2999 19.0391 16.2233 19.0591C16.1499 19.0757 16.0616 19.0624 15.9583 19.0191C15.8616 18.9757 15.7516 18.9441 15.6283 18.9241C15.5083 18.9007 15.3916 18.8891 15.2783 18.8891C15.1549 18.8891 15.0499 18.9041 14.9633 18.9341C14.8766 18.9607 14.8099 19.0007 14.7633 19.0541C14.7199 19.1074 14.6983 19.1691 14.6983 19.2391C14.6983 19.3091 14.7266 19.3691 14.7833 19.4191C14.8433 19.4658 14.9516 19.5058 15.1083 19.5391L15.6883 19.6641C16.0116 19.7341 16.2533 19.8491 16.4133 20.0091C16.5733 20.1691 16.6533 20.3774 16.6533 20.6341C16.6533 20.8074 16.6183 20.9641 16.5483 21.1041C16.4783 21.2441 16.3783 21.3641 16.2483 21.4641C16.1183 21.5607 15.9616 21.6357 15.7783 21.6891C15.5949 21.7424 15.3883 21.7691 15.1583 21.7691Z" fill="black"/>
<path d="M11.3058 21.7141C11.1491 21.7141 11.0291 21.6741 10.9458 21.5941C10.8658 21.5108 10.8258 21.3924 10.8258 21.2391V18.6641C10.8258 18.5108 10.8658 18.3941 10.9458 18.3141C11.0291 18.2308 11.1491 18.1891 11.3058 18.1891H13.0008C13.1208 18.1891 13.2108 18.2191 13.2708 18.2791C13.3308 18.3391 13.3608 18.4258 13.3608 18.5391C13.3608 18.6558 13.3308 18.7458 13.2708 18.8091C13.2108 18.8691 13.1208 18.8991 13.0008 18.8991H11.7058V19.5691H12.8908C13.0075 19.5691 13.0958 19.5991 13.1558 19.6591C13.2191 19.7191 13.2508 19.8074 13.2508 19.9241C13.2508 20.0408 13.2191 20.1291 13.1558 20.1891C13.0958 20.2491 13.0075 20.2791 12.8908 20.2791H11.7058V21.0041H13.0008C13.1208 21.0041 13.2108 21.0357 13.2708 21.0991C13.3308 21.1591 13.3608 21.2457 13.3608 21.3591C13.3608 21.4757 13.3308 21.5641 13.2708 21.6241C13.2108 21.6841 13.1208 21.7141 13.0008 21.7141H11.3058Z" fill="black"/>
<path d="M7.75554 21.7591C7.60887 21.7591 7.49554 21.7191 7.41554 21.6391C7.33554 21.5558 7.29554 21.4407 7.29554 21.2941V18.6541C7.29554 18.5041 7.33554 18.3891 7.41554 18.3091C7.49887 18.2291 7.61387 18.1891 7.76054 18.1891H8.99054C9.39054 18.1891 9.69887 18.2874 9.91554 18.4841C10.1355 18.6774 10.2455 18.9474 10.2455 19.2941C10.2455 19.5174 10.1955 19.7124 10.0955 19.8791C9.99887 20.0424 9.8572 20.1691 9.67054 20.2591C9.4872 20.3457 9.26054 20.3891 8.99054 20.3891L9.03054 20.2991H9.27054C9.41387 20.2991 9.54054 20.3341 9.65054 20.4041C9.76054 20.4707 9.8522 20.5741 9.92554 20.7141L10.1755 21.1641C10.2289 21.2608 10.2539 21.3558 10.2505 21.4491C10.2472 21.5391 10.2105 21.6141 10.1405 21.6741C10.0739 21.7308 9.97554 21.7591 9.84554 21.7591C9.71554 21.7591 9.60887 21.7324 9.52554 21.6791C9.44554 21.6258 9.37387 21.5424 9.31054 21.4291L8.85554 20.5941C8.81554 20.5208 8.76387 20.4708 8.70054 20.4441C8.64054 20.4141 8.57054 20.3991 8.49054 20.3991H8.21554V21.2941C8.21554 21.4407 8.1772 21.5558 8.10054 21.6391C8.02387 21.7191 7.90887 21.7591 7.75554 21.7591ZM8.21554 19.7491H8.82554C9.0022 19.7491 9.1372 19.7141 9.23054 19.6441C9.32387 19.5741 9.37054 19.4657 9.37054 19.3191C9.37054 19.1791 9.32387 19.0741 9.23054 19.0041C9.1372 18.9308 9.0022 18.8941 8.82554 18.8941H8.21554V19.7491Z" fill="black"/>
</svg>