<svg viewBox="0 0 24 24" fill="none" xmlns="http://www.w3.org/2000/svg" width="24" height="24">
<path d="M12 12.0741C16.1007 12.0741 19.425 10.2609 19.425 8.02412C19.425 5.78737 16.1007 3.97412 12 3.97412C7.89924 3.97412 4.57495 5.78737 4.57495 8.02412C4.57495 10.2609 7.89924 12.0741 12 12.0741Z" fill="black" fill-opacity="0.2"/>
<path d="M18.9246 8.02393C18.9245 7.17436 18.2863 6.29501 17.0105 5.59912C15.7535 4.91358 13.9828 4.47412 11.9998 4.47412C10.0167 4.47415 8.24596 4.91351 6.98901 5.59912C5.71322 6.29501 5.07505 7.17436 5.07495 8.02393C5.07495 8.87352 5.71323 9.7528 6.98901 10.4487C8.24596 11.1343 10.0167 11.5737 11.9998 11.5737C13.9829 11.5737 15.7535 11.1343 17.0105 10.4487C18.2864 9.75279 18.9246 8.87356 18.9246 8.02393ZM19.9246 8.02393C19.9246 9.41094 18.9012 10.5568 17.49 11.3267C16.0597 12.1068 14.1173 12.5737 11.9998 12.5737C9.88235 12.5737 7.94078 12.1068 6.5105 11.3267C5.09907 10.5568 4.07495 9.41105 4.07495 8.02393C4.07505 6.63689 5.09914 5.49102 6.5105 4.72119C7.94076 3.94112 9.88243 3.47415 11.9998 3.47412C14.1173 3.47412 16.0597 3.94101 17.49 4.72119C18.9013 5.49102 19.9245 6.63695 19.9246 8.02393Z" fill="black"/>
<path d="M4.07495 12.0742V8.02393C4.07495 7.74778 4.29881 7.52441 4.57495 7.52441C4.85109 7.52441 5.07495 7.74778 5.07495 8.02393V12.0742C5.07495 12.9238 5.71323 13.8031 6.98901 14.499C8.24597 15.1846 10.0167 15.624 11.9998 15.624C13.9828 15.624 15.7535 15.1846 17.0105 14.499C18.2864 13.8031 18.9246 12.9239 18.9246 12.0742V8.02393C18.9246 7.74791 19.1486 7.52463 19.4246 7.52441C19.7007 7.52441 19.9246 7.74778 19.9246 8.02393V12.0742C19.9246 13.4612 18.9012 14.6071 17.49 15.377C16.0596 16.1571 14.1172 16.624 11.9998 16.624C9.88238 16.624 7.94079 16.1571 6.5105 15.377C5.09907 14.6071 4.07495 13.4614 4.07495 12.0742Z" fill="black"/>
<path d="M4.07495 16.124V12.0742C4.07495 11.7981 4.29881 11.5742 4.57495 11.5742C4.85109 11.5742 5.07495 11.7981 5.07495 12.0742V16.124C5.07495 16.8358 5.51845 17.5646 6.42358 18.1992C6.64965 18.3578 6.70417 18.6704 6.54565 18.8965C6.38712 19.1223 6.07537 19.1768 5.84937 19.0186C4.7975 18.2811 4.07495 17.2853 4.07495 16.124Z" fill="black"/>
<path d="M17.2072 21.7591C17.0672 21.7591 16.9606 21.7224 16.8872 21.6491C16.8139 21.5758 16.7772 21.4674 16.7772 21.3241V18.5991C16.7772 18.4524 16.8139 18.3408 16.8872 18.2641C16.9606 18.1841 17.0572 18.1441 17.1772 18.1441C17.2839 18.1441 17.3672 18.1641 17.4272 18.2041C17.4872 18.2441 17.5539 18.3107 17.6272 18.4041L19.2122 20.3841H19.0722V18.5741C19.0722 18.4341 19.1072 18.3274 19.1772 18.2541C19.2506 18.1808 19.3572 18.1441 19.4972 18.1441C19.6372 18.1441 19.7422 18.1808 19.8122 18.2541C19.8856 18.3274 19.9222 18.4341 19.9222 18.5741V21.3441C19.9222 21.4708 19.8889 21.5724 19.8222 21.6491C19.7556 21.7224 19.6656 21.7591 19.5522 21.7591C19.4389 21.7591 19.3489 21.7391 19.2822 21.6991C19.2189 21.6557 19.1506 21.5891 19.0772 21.4991L17.4922 19.5141H17.6322V21.3241C17.6322 21.4674 17.5956 21.5758 17.5222 21.6491C17.4522 21.7224 17.3472 21.7591 17.2072 21.7591Z" fill="black"/>
<path d="M14.444 21.7691C14.0874 21.7691 13.774 21.6941 13.504 21.5441C13.234 21.3907 13.024 21.1774 12.874 20.9041C12.7274 20.6307 12.654 20.3124 12.654 19.9491C12.654 19.6757 12.6957 19.4274 12.779 19.2041C12.8657 18.9808 12.9874 18.7891 13.144 18.6291C13.304 18.4691 13.494 18.3474 13.714 18.2641C13.934 18.1774 14.1774 18.1341 14.444 18.1341C14.8007 18.1341 15.1124 18.2091 15.379 18.3591C15.649 18.5091 15.859 18.7208 16.009 18.9941C16.159 19.2641 16.234 19.5824 16.234 19.9491C16.234 20.2224 16.1907 20.4708 16.104 20.6941C16.0207 20.9174 15.899 21.1108 15.739 21.2741C15.5824 21.4341 15.394 21.5574 15.174 21.6441C14.954 21.7274 14.7107 21.7691 14.444 21.7691ZM14.444 20.9991C14.6207 20.9991 14.7707 20.9574 14.894 20.8741C15.0174 20.7907 15.1124 20.6708 15.179 20.5141C15.2457 20.3574 15.279 20.1691 15.279 19.9491C15.279 19.6191 15.2057 19.3624 15.059 19.1791C14.9124 18.9957 14.7074 18.9041 14.444 18.9041C14.2707 18.9041 14.1207 18.9457 13.994 19.0291C13.8707 19.1091 13.7757 19.2274 13.709 19.3841C13.6424 19.5374 13.609 19.7257 13.609 19.9491C13.609 20.2791 13.6824 20.5374 13.829 20.7241C13.9757 20.9074 14.1807 20.9991 14.444 20.9991Z" fill="black"/>
<path d="M10.7972 21.7691C10.6639 21.7691 10.5239 21.7591 10.3772 21.7391C10.2339 21.7224 10.0972 21.6958 9.96719 21.6591C9.83719 21.6224 9.72052 21.5791 9.61719 21.5291C9.52719 21.4857 9.46385 21.4291 9.42719 21.3591C9.39052 21.2857 9.37719 21.2091 9.38719 21.1291C9.39719 21.0491 9.42552 20.9791 9.47219 20.9191C9.51885 20.8557 9.58052 20.8141 9.65719 20.7941C9.73385 20.7707 9.82052 20.7807 9.91719 20.8241C10.0439 20.8841 10.1872 20.9307 10.3472 20.9641C10.5072 20.9974 10.6572 21.0141 10.7972 21.0141C11.0172 21.0141 11.1705 20.9857 11.2572 20.9291C11.3472 20.8691 11.3922 20.7958 11.3922 20.7091C11.3922 20.6324 11.3605 20.5708 11.2972 20.5241C11.2372 20.4774 11.1289 20.4374 10.9722 20.4041L10.3872 20.2791C10.0672 20.2124 9.82885 20.0957 9.67219 19.9291C9.51552 19.7624 9.43719 19.5474 9.43719 19.2841C9.43719 19.1107 9.47219 18.9541 9.54219 18.8141C9.61552 18.6707 9.71719 18.5491 9.84719 18.4491C9.98052 18.3491 10.1372 18.2724 10.3172 18.2191C10.5005 18.1624 10.7039 18.1341 10.9272 18.1341C11.1005 18.1341 11.2755 18.1541 11.4522 18.1941C11.6322 18.2308 11.7872 18.2874 11.9172 18.3641C11.9939 18.4041 12.0489 18.4591 12.0822 18.5291C12.1155 18.5991 12.1289 18.6724 12.1222 18.7491C12.1155 18.8224 12.0889 18.8874 12.0422 18.9441C11.9989 19.0007 11.9389 19.0391 11.8622 19.0591C11.7889 19.0757 11.7005 19.0624 11.5972 19.0191C11.5005 18.9757 11.3905 18.9441 11.2672 18.9241C11.1472 18.9007 11.0305 18.8891 10.9172 18.8891C10.7939 18.8891 10.6889 18.9041 10.6022 18.9341C10.5155 18.9607 10.4489 19.0007 10.4022 19.0541C10.3589 19.1074 10.3372 19.1691 10.3372 19.2391C10.3372 19.3091 10.3655 19.3691 10.4222 19.4191C10.4822 19.4658 10.5905 19.5058 10.7472 19.5391L11.3272 19.6641C11.6505 19.7341 11.8922 19.8491 12.0522 20.0091C12.2122 20.1691 12.2922 20.3774 12.2922 20.6341C12.2922 20.8074 12.2572 20.9641 12.1872 21.1041C12.1172 21.2441 12.0172 21.3641 11.8872 21.4641C11.7572 21.5607 11.6005 21.6357 11.4172 21.6891C11.2339 21.7424 11.0272 21.7691 10.7972 21.7691Z" fill="black"/>
<path d="M7.55895 21.7541C7.42561 21.7608 7.32228 21.7274 7.24895 21.6541C7.17895 21.5774 7.14395 21.4808 7.14395 21.3641C7.14395 21.2741 7.16895 21.1958 7.21895 21.1291C7.26895 21.0624 7.34395 21.0257 7.44395 21.0191L7.58395 21.0091C7.70395 21.0024 7.79228 20.9741 7.84895 20.9241C7.90561 20.8708 7.93395 20.7841 7.93395 20.6641V18.6091C7.93395 18.4557 7.97395 18.3408 8.05395 18.2641C8.13395 18.1841 8.24728 18.1441 8.39395 18.1441C8.54061 18.1441 8.65395 18.1841 8.73395 18.2641C8.81395 18.3408 8.85395 18.4557 8.85395 18.6091V20.6491C8.85395 20.8791 8.81228 21.0741 8.72895 21.2341C8.64561 21.3907 8.52061 21.5124 8.35395 21.5991C8.19061 21.6824 7.98561 21.7308 7.73895 21.7441L7.55895 21.7541Z" fill="black"/>
</svg>