<svg viewBox="0 0 24 24" fill="none" xmlns="http://www.w3.org/2000/svg" width="24" height="24">
<path d="M12 12.0741C16.1007 12.0741 19.425 10.2609 19.425 8.02412C19.425 5.78737 16.1007 3.97412 12 3.97412C7.89924 3.97412 4.57495 5.78737 4.57495 8.02412C4.57495 10.2609 7.89924 12.0741 12 12.0741Z" fill="black" fill-opacity="0.2"/>
<path d="M18.9246 8.02393C18.9245 7.17436 18.2863 6.29501 17.0105 5.59912C15.7535 4.91358 13.9828 4.47412 11.9998 4.47412C10.0167 4.47415 8.24596 4.91351 6.98901 5.59912C5.71322 6.29501 5.07505 7.17436 5.07495 8.02393C5.07495 8.87352 5.71323 9.7528 6.98901 10.4487C8.24596 11.1343 10.0167 11.5737 11.9998 11.5737C13.9829 11.5737 15.7535 11.1343 17.0105 10.4487C18.2864 9.75279 18.9246 8.87356 18.9246 8.02393ZM19.9246 8.02393C19.9246 9.41094 18.9012 10.5568 17.49 11.3267C16.0597 12.1068 14.1173 12.5737 11.9998 12.5737C9.88235 12.5737 7.94078 12.1068 6.5105 11.3267C5.09907 10.5568 4.07495 9.41105 4.07495 8.02393C4.07505 6.63689 5.09914 5.49102 6.5105 4.72119C7.94076 3.94112 9.88243 3.47415 11.9998 3.47412C14.1173 3.47412 16.0597 3.94101 17.49 4.72119C18.9013 5.49102 19.9245 6.63695 19.9246 8.02393Z" fill="black"/>
<path d="M4.07495 12.0742V8.02393C4.07495 7.74778 4.29881 7.52441 4.57495 7.52441C4.85109 7.52441 5.07495 7.74778 5.07495 8.02393V12.0742C5.07495 12.9238 5.71323 13.8031 6.98901 14.499C8.24597 15.1846 10.0167 15.624 11.9998 15.624C13.9828 15.624 15.7535 15.1846 17.0105 14.499C18.2864 13.8031 18.9246 12.9239 18.9246 12.0742V8.02393C18.9246 7.74791 19.1486 7.52463 19.4246 7.52441C19.7007 7.52441 19.9246 7.74778 19.9246 8.02393V12.0742C19.9246 13.4612 18.9012 14.6071 17.49 15.377C16.0596 16.1571 14.1172 16.624 11.9998 16.624C9.88238 16.624 7.94079 16.1571 6.5105 15.377C5.09907 14.6071 4.07495 13.4614 4.07495 12.0742Z" fill="black"/>
<path d="M4.07495 16.124V12.0742C4.07495 11.7981 4.29881 11.5742 4.57495 11.5742C4.85109 11.5742 5.07495 11.7981 5.07495 12.0742V16.124C5.07495 16.6915 5.35361 17.2653 5.92651 17.7998C6.50099 18.3358 7.34655 18.8055 8.39429 19.1416C8.65723 19.2259 8.80187 19.5076 8.71753 19.7705C8.63317 20.0334 8.35156 20.1781 8.08862 20.0938C6.94271 19.7262 5.95513 19.1937 5.24487 18.5312C4.53296 17.8671 4.07495 17.0453 4.07495 16.124Z" fill="black"/>
<path d="M18.1454 21.7591C18.0187 21.7591 17.9154 21.7324 17.8354 21.6791C17.7587 21.6257 17.6937 21.5408 17.6404 21.4241L16.4304 18.7541C16.377 18.6374 16.3604 18.5324 16.3804 18.4391C16.4004 18.3457 16.447 18.2741 16.5204 18.2241C16.5937 18.1708 16.6854 18.1441 16.7954 18.1441C16.932 18.1441 17.0337 18.1741 17.1004 18.2341C17.1704 18.2941 17.2304 18.3824 17.2804 18.4991L18.3004 20.8591H18.0204L19.0404 18.4941C19.0904 18.3774 19.1504 18.2907 19.2204 18.2341C19.2904 18.1741 19.3887 18.1441 19.5154 18.1441C19.6187 18.1441 19.7054 18.1708 19.7754 18.2241C19.8454 18.2741 19.8887 18.3457 19.9054 18.4391C19.9254 18.5324 19.9087 18.6374 19.8554 18.7541L18.6404 21.4241C18.5904 21.5408 18.527 21.6257 18.4504 21.6791C18.3737 21.7324 18.272 21.7591 18.1454 21.7591Z" fill="black"/>
<path d="M14.7269 21.7691C14.5935 21.7691 14.4535 21.7591 14.3069 21.7391C14.1635 21.7224 14.0269 21.6958 13.8969 21.6591C13.7669 21.6224 13.6502 21.5791 13.5469 21.5291C13.4569 21.4857 13.3935 21.4291 13.3569 21.3591C13.3202 21.2857 13.3069 21.2091 13.3169 21.1291C13.3269 21.0491 13.3552 20.9791 13.4019 20.9191C13.4485 20.8557 13.5102 20.8141 13.5869 20.7941C13.6635 20.7707 13.7502 20.7807 13.8469 20.8241C13.9735 20.8841 14.1169 20.9307 14.2769 20.9641C14.4369 20.9974 14.5869 21.0141 14.7269 21.0141C14.9469 21.0141 15.1002 20.9857 15.1869 20.9291C15.2769 20.8691 15.3219 20.7958 15.3219 20.7091C15.3219 20.6324 15.2902 20.5708 15.2269 20.5241C15.1669 20.4774 15.0585 20.4374 14.9019 20.4041L14.3169 20.2791C13.9969 20.2124 13.7585 20.0957 13.6019 19.9291C13.4452 19.7624 13.3669 19.5474 13.3669 19.2841C13.3669 19.1107 13.4019 18.9541 13.4719 18.8141C13.5452 18.6707 13.6469 18.5491 13.7769 18.4491C13.9102 18.3491 14.0669 18.2724 14.2469 18.2191C14.4302 18.1624 14.6335 18.1341 14.8569 18.1341C15.0302 18.1341 15.2052 18.1541 15.3819 18.1941C15.5619 18.2308 15.7169 18.2874 15.8469 18.3641C15.9235 18.4041 15.9785 18.4591 16.0119 18.5291C16.0452 18.5991 16.0585 18.6724 16.0519 18.7491C16.0452 18.8224 16.0185 18.8874 15.9719 18.9441C15.9285 19.0007 15.8685 19.0391 15.7919 19.0591C15.7185 19.0757 15.6302 19.0624 15.5269 19.0191C15.4302 18.9757 15.3202 18.9441 15.1969 18.9241C15.0769 18.9007 14.9602 18.8891 14.8469 18.8891C14.7235 18.8891 14.6185 18.9041 14.5319 18.9341C14.4452 18.9607 14.3785 19.0007 14.3319 19.0541C14.2885 19.1074 14.2669 19.1691 14.2669 19.2391C14.2669 19.3091 14.2952 19.3691 14.3519 19.4191C14.4119 19.4658 14.5202 19.5058 14.6769 19.5391L15.2569 19.6641C15.5802 19.7341 15.8219 19.8491 15.9819 20.0091C16.1419 20.1691 16.2219 20.3774 16.2219 20.6341C16.2219 20.8074 16.1869 20.9641 16.1169 21.1041C16.0469 21.2441 15.9469 21.3641 15.8169 21.4641C15.6869 21.5607 15.5302 21.6357 15.3469 21.6891C15.1635 21.7424 14.9569 21.7691 14.7269 21.7691Z" fill="black"/>
<path d="M11.8424 21.7691C11.4524 21.7691 11.1174 21.6941 10.8374 21.5441C10.5574 21.3941 10.3424 21.1824 10.1924 20.9091C10.0457 20.6358 9.97238 20.3158 9.97238 19.9491C9.97238 19.6757 10.014 19.4274 10.0974 19.2041C10.184 18.9808 10.3074 18.7891 10.4674 18.6291C10.6307 18.4691 10.8274 18.3474 11.0574 18.2641C11.2907 18.1774 11.5524 18.1341 11.8424 18.1341C11.9957 18.1341 12.154 18.1524 12.3174 18.1891C12.484 18.2224 12.6307 18.2741 12.7574 18.3441C12.8507 18.3941 12.9157 18.4574 12.9524 18.5341C12.989 18.6108 13.0007 18.6891 12.9874 18.7691C12.9774 18.8491 12.949 18.9207 12.9024 18.9841C12.8557 19.0474 12.7957 19.0908 12.7224 19.1141C12.649 19.1341 12.569 19.1224 12.4824 19.0791C12.3824 19.0324 12.2824 18.9974 12.1824 18.9741C12.0857 18.9474 11.984 18.9341 11.8774 18.9341C11.6707 18.9341 11.4974 18.9741 11.3574 19.0541C11.2207 19.1307 11.1174 19.2441 11.0474 19.3941C10.9774 19.5441 10.9424 19.7291 10.9424 19.9491C10.9424 20.1691 10.9774 20.3557 11.0474 20.5091C11.1174 20.6591 11.2207 20.7741 11.3574 20.8541C11.4974 20.9308 11.6707 20.9691 11.8774 20.9691C11.964 20.9691 12.0574 20.9591 12.1574 20.9391C12.2574 20.9157 12.3557 20.8808 12.4524 20.8341C12.5524 20.7908 12.6407 20.7791 12.7174 20.7991C12.7974 20.8191 12.8607 20.8591 12.9074 20.9191C12.9574 20.9791 12.989 21.0491 13.0024 21.1291C13.0157 21.2058 13.004 21.2824 12.9674 21.3591C12.934 21.4357 12.874 21.4974 12.7874 21.5441C12.6707 21.6141 12.5257 21.6691 12.3524 21.7091C12.1824 21.7491 12.0124 21.7691 11.8424 21.7691Z" fill="black"/>
</svg>