<svg xmlns="http://www.w3.org/2000/svg" width="24" height="24" fill="currentColor" viewBox="0 0 24 24"><path d="M19.425 7.95c0 2.237-3.324 4.05-7.425 4.05s-7.425-1.813-7.425-4.05S7.899 3.9 12 3.9s7.425 1.813 7.425 4.05" opacity=".2"/><path d="M12 3.225c-4.542 0-8.1 2.076-8.1 4.725v8.1c0 2.649 3.558 4.725 8.1 4.725s8.1-2.076 8.1-4.725v-8.1c0-2.649-3.558-4.725-8.1-4.725M18.75 12c0 .812-.665 1.639-1.823 2.271-1.304.711-3.054 1.104-4.927 1.104s-3.622-.392-4.927-1.104C5.915 13.639 5.25 12.811 5.25 12v-1.404c1.439 1.266 3.901 2.079 6.75 2.079s5.311-.817 6.75-2.079zM7.073 5.679C8.377 4.968 10.127 4.575 12 4.575s3.622.392 4.927 1.104c1.158.632 1.823 1.46 1.823 2.271s-.665 1.639-1.823 2.271c-1.304.711-3.054 1.104-4.927 1.104s-3.622-.392-4.927-1.104C5.915 9.589 5.25 8.761 5.25 7.95s.665-1.639 1.823-2.271m9.853 12.643c-1.304.711-3.054 1.104-4.927 1.104s-3.622-.392-4.927-1.104c-1.158-.632-1.823-1.46-1.823-2.271v-1.404c1.439 1.266 3.901 2.079 6.75 2.079s5.311-.817 6.75-2.079v1.404c0 .812-.665 1.639-1.823 2.271"/></svg>