<svg viewBox="0 0 24 24" fill="none" xmlns="http://www.w3.org/2000/svg" width="24" height="24">
<path d="M18.9246 8.02393C18.9245 7.17436 18.2863 6.29501 17.0105 5.59912C15.7535 4.91358 13.9828 4.47412 11.9998 4.47412C10.0167 4.47415 8.24596 4.91351 6.98901 5.59912C5.71322 6.29501 5.07505 7.17436 5.07495 8.02393C5.07495 8.87352 5.71323 9.7528 6.98901 10.4487C8.24596 11.1343 10.0167 11.5737 11.9998 11.5737C13.9829 11.5737 15.7535 11.1343 17.0105 10.4487C18.2864 9.75279 18.9246 8.87356 18.9246 8.02393ZM19.9246 8.02393C19.9246 9.41094 18.9012 10.5568 17.49 11.3267C16.0597 12.1068 14.1173 12.5737 11.9998 12.5737C9.88235 12.5737 7.94078 12.1068 6.5105 11.3267C5.09907 10.5568 4.07495 9.41105 4.07495 8.02393C4.07505 6.63689 5.09914 5.49102 6.5105 4.72119C7.94076 3.94112 9.88243 3.47415 11.9998 3.47412C14.1173 3.47412 16.0597 3.94101 17.49 4.72119C18.9013 5.49102 19.9245 6.63695 19.9246 8.02393Z" fill="black"/>
<path d="M4.07495 12.0742V8.02393C4.07495 7.74778 4.29881 7.52441 4.57495 7.52441C4.85109 7.52441 5.07495 7.74778 5.07495 8.02393V12.0742C5.07495 12.9238 5.71323 13.8031 6.98901 14.499C8.24597 15.1846 10.0167 15.624 11.9998 15.624C13.9828 15.624 15.7535 15.1846 17.0105 14.499C18.2864 13.8031 18.9246 12.9239 18.9246 12.0742V8.02393C18.9246 7.74791 19.1486 7.52463 19.4246 7.52441C19.7007 7.52441 19.9246 7.74778 19.9246 8.02393V12.0742C19.9246 13.4612 18.9012 14.6071 17.49 15.377C16.0596 16.1571 14.1172 16.624 11.9998 16.624C9.88238 16.624 7.94079 16.1571 6.5105 15.377C5.09907 14.6071 4.07495 13.4614 4.07495 12.0742Z" fill="black"/>
<path d="M4.07495 16.124V12.0742C4.07495 11.7981 4.29881 11.5742 4.57495 11.5742C4.85109 11.5742 5.07495 11.7981 5.07495 12.0742V16.124C5.07495 17.0539 5.84416 18.0208 7.35425 18.7344C7.6039 18.8523 7.71142 19.1507 7.59351 19.4004C7.47555 19.6501 7.17716 19.7566 6.92749 19.6387C5.29428 18.867 4.07495 17.6406 4.07495 16.124Z" fill="black"/>
<path d="M18.7633 21.7691C18.3733 21.7691 18.0383 21.6941 17.7583 21.5441C17.4783 21.3941 17.2633 21.1824 17.1133 20.9091C16.9666 20.6358 16.8933 20.3158 16.8933 19.9491C16.8933 19.6757 16.9349 19.4274 17.0183 19.2041C17.1049 18.9808 17.2283 18.7891 17.3883 18.6291C17.5516 18.4691 17.7483 18.3474 17.9783 18.2641C18.2116 18.1774 18.4733 18.1341 18.7633 18.1341C18.9166 18.1341 19.0749 18.1524 19.2383 18.1891C19.4049 18.2224 19.5516 18.2741 19.6783 18.3441C19.7716 18.3941 19.8366 18.4574 19.8733 18.5341C19.9099 18.6108 19.9216 18.6891 19.9083 18.7691C19.8983 18.8491 19.8699 18.9207 19.8233 18.9841C19.7766 19.0474 19.7166 19.0908 19.6433 19.1141C19.5699 19.1341 19.4899 19.1224 19.4033 19.0791C19.3033 19.0324 19.2033 18.9974 19.1033 18.9741C19.0066 18.9474 18.9049 18.9341 18.7983 18.9341C18.5916 18.9341 18.4183 18.9741 18.2783 19.0541C18.1416 19.1307 18.0383 19.2441 17.9683 19.3941C17.8983 19.5441 17.8633 19.7291 17.8633 19.9491C17.8633 20.1691 17.8983 20.3557 17.9683 20.5091C18.0383 20.6591 18.1416 20.7741 18.2783 20.8541C18.4183 20.9308 18.5916 20.9691 18.7983 20.9691C18.8849 20.9691 18.9783 20.9591 19.0783 20.9391C19.1783 20.9157 19.2766 20.8808 19.3733 20.8341C19.4733 20.7908 19.5616 20.7791 19.6383 20.7991C19.7183 20.8191 19.7816 20.8591 19.8283 20.9191C19.8783 20.9791 19.9099 21.0491 19.9233 21.1291C19.9366 21.2058 19.9249 21.2824 19.8883 21.3591C19.8549 21.4357 19.7949 21.4974 19.7083 21.5441C19.5916 21.6141 19.4466 21.6691 19.2733 21.7091C19.1033 21.7491 18.9333 21.7691 18.7633 21.7691Z" fill="black"/>
<path d="M13.5326 21.7141C13.376 21.7141 13.256 21.6741 13.1726 21.5941C13.0926 21.5108 13.0526 21.3924 13.0526 21.2391V18.6641C13.0526 18.5108 13.0926 18.3941 13.1726 18.3141C13.256 18.2308 13.376 18.1891 13.5326 18.1891H14.5126C15.126 18.1891 15.5993 18.3424 15.9326 18.6491C16.2693 18.9558 16.4376 19.3891 16.4376 19.9491C16.4376 20.2291 16.3943 20.4791 16.3076 20.6991C16.221 20.9157 16.096 21.1008 15.9326 21.2541C15.7693 21.4041 15.5676 21.5191 15.3276 21.5991C15.091 21.6757 14.8193 21.7141 14.5126 21.7141H13.5326ZM13.9726 20.9691H14.4526C14.6293 20.9691 14.781 20.9474 14.9076 20.9041C15.0376 20.8607 15.1443 20.7974 15.2276 20.7141C15.3143 20.6308 15.3776 20.5258 15.4176 20.3991C15.461 20.2724 15.4826 20.1224 15.4826 19.9491C15.4826 19.6024 15.3976 19.3474 15.2276 19.1841C15.0576 19.0174 14.7993 18.9341 14.4526 18.9341H13.9726V20.9691Z" fill="black"/>
<path d="M10.7194 21.7691C10.3627 21.7691 10.0494 21.6941 9.77941 21.5441C9.50941 21.3907 9.29941 21.1774 9.14941 20.9041C9.00275 20.6307 8.92941 20.3124 8.92941 19.9491C8.92941 19.6757 8.97108 19.4274 9.05441 19.2041C9.14108 18.9808 9.26275 18.7891 9.41941 18.6291C9.57941 18.4691 9.76941 18.3474 9.98941 18.2641C10.2094 18.1774 10.4527 18.1341 10.7194 18.1341C11.0761 18.1341 11.3877 18.2091 11.6544 18.3591C11.9244 18.5091 12.1344 18.7208 12.2844 18.9941C12.4344 19.2641 12.5094 19.5824 12.5094 19.9491C12.5094 20.2224 12.4661 20.4708 12.3794 20.6941C12.2961 20.9174 12.1744 21.1108 12.0144 21.2741C11.8577 21.4341 11.6694 21.5574 11.4494 21.6441C11.2294 21.7274 10.9861 21.7691 10.7194 21.7691ZM10.7194 20.9991C10.8961 20.9991 11.0461 20.9574 11.1694 20.8741C11.2927 20.7907 11.3877 20.6708 11.4544 20.5141C11.5211 20.3574 11.5544 20.1691 11.5544 19.9491C11.5544 19.6191 11.4811 19.3624 11.3344 19.1791C11.1877 18.9957 10.9827 18.9041 10.7194 18.9041C10.5461 18.9041 10.3961 18.9457 10.2694 19.0291C10.1461 19.1091 10.0511 19.2274 9.98441 19.3841C9.91775 19.5374 9.88441 19.7257 9.88441 19.9491C9.88441 20.2791 9.95775 20.5374 10.1044 20.7241C10.2511 20.9074 10.4561 20.9991 10.7194 20.9991Z" fill="black"/>
</svg>