<svg viewBox="0 0 24 24" fill="none" xmlns="http://www.w3.org/2000/svg" width="24" height="24">
<path d="M15.0542 10.1001C15.379 10.1001 15.6201 9.93981 15.7769 9.62061C15.9336 9.29579 16.0122 8.78332 16.0122 8.0835C16.0122 7.38371 15.9336 6.87978 15.7769 6.57178C15.6201 6.26378 15.379 6.10986 15.0542 6.10986C14.7294 6.10989 14.4883 6.2638 14.3315 6.57178C14.1748 6.87978 14.0962 7.38376 14.0962 8.0835C14.0962 8.78327 14.1748 9.29579 14.3315 9.62061C14.4883 9.93978 14.7294 10.1001 15.0542 10.1001Z" fill="black"/>
<path d="M9.38428 17.9116C9.70907 17.9116 9.95013 17.7513 10.1069 17.4321C10.2636 17.1073 10.3423 16.5948 10.3423 15.895C10.3423 15.1953 10.2636 14.6913 10.1069 14.3833C9.95013 14.0753 9.70907 13.9214 9.38428 13.9214C9.05948 13.9214 8.81842 14.0753 8.66162 14.3833C8.50491 14.6913 8.42628 15.1953 8.42627 15.895C8.42627 16.5948 8.50491 17.1073 8.66162 17.4321C8.81842 17.7513 9.05948 17.9116 9.38428 17.9116Z" fill="black"/>
<path d="M15.0542 17.9116C15.379 17.9116 15.6201 17.7513 15.7769 17.4321C15.9336 17.1073 16.0122 16.5949 16.0122 15.895C16.0122 15.1952 15.9336 14.6913 15.7769 14.3833C15.6201 14.0753 15.379 13.9214 15.0542 13.9214C14.7295 13.9214 14.4883 14.0754 14.3315 14.3833C14.1749 14.6913 14.0972 15.1953 14.0972 15.895C14.0972 16.5948 14.1749 17.1073 14.3315 17.4321C14.4883 17.7513 14.7295 17.9116 15.0542 17.9116Z" fill="black"/>
<path fill-rule="evenodd" clip-rule="evenodd" d="M19.3501 20.1001C19.7642 20.1 20.1001 19.7642 20.1001 19.3501V4.6499C20.1 4.23584 19.7642 3.90001 19.3501 3.8999H4.6499C4.23575 3.8999 3.90001 4.23578 3.8999 4.6499V19.3501C3.8999 19.7643 4.23569 20.1001 4.6499 20.1001H19.3501ZM8.896 11.1226C8.84237 11.1119 8.79304 11.0851 8.75439 11.0464L5.99072 8.28369C5.96503 8.25803 5.94408 8.22739 5.93018 8.19385C5.91627 8.1603 5.90967 8.12372 5.90967 8.0874C5.90972 8.05127 5.91635 8.01532 5.93018 7.98193C5.94408 7.94839 5.96503 7.91775 5.99072 7.89209L8.75439 5.12939C8.79306 5.09076 8.84238 5.06386 8.896 5.05322C8.94942 5.04271 9.00487 5.04801 9.05518 5.06885C9.10567 5.08975 9.14883 5.12595 9.1792 5.17139C9.20944 5.21676 9.22606 5.27017 9.22607 5.32471V10.8511C9.22612 10.9057 9.20946 10.959 9.1792 11.0044C9.14884 11.0499 9.1057 11.086 9.05518 11.1069C9.00484 11.1277 8.94943 11.1331 8.896 11.1226ZM15.0542 11.1577C14.3374 11.1577 13.7885 10.8918 13.4077 10.3599C13.0326 9.82227 12.8452 9.06338 12.8452 8.0835C12.8452 7.4285 12.9293 6.87712 13.0972 6.4292C13.2707 5.97569 13.5195 5.63341 13.8442 5.40381C14.1746 5.16862 14.5782 5.05128 15.0542 5.05127C15.7766 5.05127 16.3255 5.31172 16.7007 5.83252C17.0758 6.3477 17.2632 7.098 17.2632 8.0835C17.2632 8.7387 17.177 9.29617 17.0034 9.75537C16.8355 10.2088 16.5888 10.5556 16.2642 10.7964C15.9394 11.0372 15.5358 11.1577 15.0542 11.1577ZM11.2827 11.1431C10.8864 11.1431 10.5649 10.8216 10.5649 10.4253C10.5651 10.0291 10.8865 9.70752 11.2827 9.70752C11.6787 9.70775 11.9993 10.0293 11.9995 10.4253C11.9995 10.8215 11.6788 11.1428 11.2827 11.1431ZM9.38428 18.9692C8.66748 18.9692 8.11859 18.7034 7.73779 18.1714C7.36266 17.6338 7.17529 16.8749 7.17529 15.895C7.1753 15.24 7.25933 14.6886 7.42725 14.2407C7.60082 13.7872 7.84958 13.4449 8.17432 13.2153C8.50472 12.9801 8.90828 12.8628 9.38428 12.8628C10.1067 12.8628 10.6556 13.1232 11.0308 13.644C11.4059 14.1592 11.5932 14.9095 11.5933 15.895C11.5933 16.5502 11.5071 17.1077 11.3335 17.5669C11.1656 18.0203 10.9188 18.3671 10.5942 18.6079C10.2694 18.8487 9.86587 18.9692 9.38428 18.9692ZM15.0542 18.9692C14.3375 18.9692 13.7885 18.7033 13.4077 18.1714C13.0326 17.6338 12.8452 16.8749 12.8452 15.895C12.8452 15.24 12.9293 14.6886 13.0972 14.2407C13.2708 13.7871 13.5204 13.4449 13.8452 13.2153C14.1755 12.9803 14.5785 12.8628 15.0542 12.8628C15.7766 12.8628 16.3255 13.1232 16.7007 13.644C17.0759 14.1592 17.2632 14.9095 17.2632 15.895C17.2632 16.5502 17.177 17.1077 17.0034 17.5669C16.8355 18.0203 16.5888 18.3671 16.2642 18.6079C15.9394 18.8487 15.5358 18.9692 15.0542 18.9692Z" fill="black"/>
</svg>