<svg viewBox="0 0 24 24" fill="none" xmlns="http://www.w3.org/2000/svg" width="24" height="24">
<path d="M12.4998 19.4248C12.4998 19.7009 12.2759 19.9248 11.9998 19.9248C11.7236 19.9248 11.4998 19.7009 11.4998 19.4248L11.4998 4.5752C11.4998 4.29905 11.7236 4.0752 11.9998 4.0752C12.2759 4.0752 12.4998 4.29905 12.4998 4.5752V19.4248Z" fill="black"/>
<path d="M5.07715 16.9582C5.07694 17.2342 4.85316 17.4582 4.57715 17.4582C4.30114 17.4582 4.07736 17.2342 4.07715 16.9582L4.07715 7.05781C4.07715 6.78167 4.30101 6.55781 4.57715 6.55781C4.85329 6.55781 5.07715 6.78167 5.07715 7.05781L5.07715 16.9582Z" fill="black"/>
<path d="M19.9313 16.9504C19.9311 17.2264 19.7073 17.4504 19.4313 17.4504C19.1553 17.4504 18.9315 17.2264 18.9313 16.9504V7.05C18.9313 6.77386 19.1552 6.55 19.4313 6.55C19.7074 6.55 19.9313 6.77386 19.9313 7.05V16.9504Z" fill="black"/>
<path d="M8.13944 10.2209C7.94418 10.0256 7.6276 10.0256 7.43234 10.2209C7.23707 10.4161 7.23707 10.7327 7.43234 10.928L8.51233 12.008L7.43234 13.088C7.23709 13.2832 7.23712 13.5998 7.43234 13.7951C7.6276 13.9903 7.94418 13.9903 8.13944 13.7951L9.57299 12.3615C9.76825 12.1663 9.76825 11.8497 9.57299 11.6544L8.13944 10.2209Z" fill="black"/>
<path d="M16.192 13.7873C16.3872 13.9826 16.7038 13.9826 16.8991 13.7873C17.0943 13.5921 17.0943 13.2755 16.8991 13.0802L15.8191 12.0002L16.8991 10.9202C17.0943 10.725 17.0943 10.4084 16.8991 10.2131C16.7038 10.0179 16.3872 10.0179 16.192 10.2131L14.7584 11.6467C14.5631 11.8419 14.5631 12.1585 14.7584 12.3538L16.192 13.7873Z" fill="black"/>
</svg>