<svg viewBox="0 0 24 24" fill="none" xmlns="http://www.w3.org/2000/svg" width="24" height="24">
<path d="M12.6748 19.4248C12.6748 19.7976 12.3728 20.1006 12 20.1006C11.6272 20.1006 11.3252 19.7976 11.3252 19.4248L11.3252 4.5752C11.3252 4.2024 11.6272 3.90039 12 3.90039C12.3728 3.90039 12.6748 4.2024 12.6748 4.5752V19.4248Z" fill="black"/>
<path d="M5.25195 16.958C5.25174 17.3306 4.94981 17.6328 4.57715 17.6328C4.20449 17.6328 3.90256 17.3306 3.90234 16.958L3.90234 7.05762C3.90234 6.68482 4.20436 6.38281 4.57715 6.38281C4.94994 6.38281 5.25195 6.68482 5.25195 7.05762L5.25195 16.958Z" fill="black"/>
<path d="M20.1064 16.9502C20.1062 17.3228 19.8043 17.625 19.4316 17.625C19.059 17.625 18.757 17.3228 18.7568 16.9502V7.0498C18.7568 6.67701 19.0588 6.375 19.4316 6.375C19.8044 6.375 20.1064 6.67701 20.1064 7.0498V16.9502Z" fill="black"/>
<path d="M8.26329 10.0971C7.99969 9.83346 7.57258 9.83346 7.30897 10.0971C7.04537 10.3607 7.04537 10.7878 7.30897 11.0514L8.26536 12.0078L7.30897 12.9642C7.04539 13.2277 7.04542 13.6549 7.30897 13.9185C7.57258 14.1821 7.99969 14.1821 8.26329 13.9185L9.69684 12.4849C9.96044 12.2213 9.96044 11.7942 9.69684 11.5306L8.26329 10.0971Z" fill="black"/>
<path d="M16.0686 13.9108C16.3322 14.1744 16.7593 14.1744 17.0229 13.9108C17.2865 13.6471 17.2865 13.22 17.0229 12.9564L16.0665 12L17.0229 11.0437C17.2865 10.7801 17.2865 10.3529 17.0229 10.0893C16.7593 9.82573 16.3322 9.82573 16.0686 10.0893L14.635 11.5229C14.3714 11.7865 14.3714 12.2136 14.635 12.4772L16.0686 13.9108Z" fill="black"/>
</svg>