<svg viewBox="0 0 24 24" fill="none" xmlns="http://www.w3.org/2000/svg" width="24" height="24">
<path opacity="0.2" d="M16.2002 4.58008C16.6144 4.58008 16.9502 4.91586 16.9502 5.33008L16.9502 18.6801C16.9502 19.0943 16.6144 19.4301 16.2002 19.4301L7.7998 19.4301C7.38559 19.4301 7.0498 19.0943 7.0498 18.6801L7.0498 5.33008C7.0498 4.91586 7.38559 4.58008 7.7998 4.58008L16.2002 4.58008Z" fill="black"/>
<path d="M4.57568 12.5029C4.29954 12.5029 4.07568 12.2791 4.07568 12.0029C4.07568 11.7268 4.29954 11.5029 4.57568 11.5029L19.4253 11.5029C19.7014 11.5029 19.9253 11.7268 19.9253 12.0029C19.9253 12.2791 19.7014 12.5029 19.4253 12.5029L4.57568 12.5029Z" fill="black"/>
<path d="M7.04248 5.08008C6.76652 5.07987 6.54248 4.85609 6.54248 4.58008C6.54248 4.30407 6.76652 4.08029 7.04248 4.08008L16.9429 4.08008C17.219 4.08008 17.4429 4.30394 17.4429 4.58008C17.4429 4.85622 17.219 5.08008 16.9429 5.08008L7.04248 5.08008Z" fill="black"/>
<path d="M7.05029 19.9346C6.77433 19.9344 6.55029 19.7106 6.55029 19.4346C6.55029 19.1586 6.77433 18.9348 7.05029 18.9346L16.9507 18.9346C17.2268 18.9346 17.4507 19.1584 17.4507 19.4346C17.4507 19.7107 17.2268 19.9346 16.9507 19.9346L7.05029 19.9346Z" fill="black"/>
<path d="M13.7797 8.14275C13.9749 7.94749 13.9749 7.63091 13.7797 7.43565C13.5844 7.24039 13.2678 7.24039 13.0726 7.43565L11.9926 8.51564L10.9126 7.43565C10.7173 7.2404 10.4007 7.24043 10.2055 7.43565C10.0102 7.63091 10.0102 7.94749 10.2055 8.14275L11.639 9.5763C11.8343 9.77156 12.1508 9.77156 12.3461 9.5763L13.7797 8.14275Z" fill="black"/>
<path d="M10.2132 16.1953C10.0179 16.3905 10.0179 16.7071 10.2132 16.9024C10.4084 17.0976 10.725 17.0976 10.9203 16.9024L12.0003 15.8224L13.0803 16.9024C13.2755 17.0976 13.5921 17.0976 13.7874 16.9024C13.9826 16.7071 13.9826 16.3905 13.7874 16.1953L12.3538 14.7617C12.1586 14.5665 11.842 14.5665 11.6467 14.7617L10.2132 16.1953Z" fill="black"/>
</svg>