<svg xmlns="http://www.w3.org/2000/svg" width="24" height="24" fill="currentColor" viewBox="0 0 24 24"><path d="M18.75 4.069H5.25A1.18 1.18 0 0 0 4.069 5.25v13.5a1.18 1.18 0 0 0 1.181 1.181h13.5a1.18 1.18 0 0 0 1.181-1.181V5.25a1.18 1.18 0 0 0-1.181-1.181m-1.141 7.425-5.103-5.103v-1.31h1.309l5.103 5.103v1.309zm-5.103-3.672 3.672 3.672h-3.672zm6.412-2.572v3.503l-3.672-3.672h3.503a.17.17 0 0 1 .169.169M5.249 5.081h6.244v6.413H5.08V5.25a.17.17 0 0 1 .169-.169m4.934 13.838L5.08 13.816v-1.31h1.31l5.103 5.103v1.309zm1.309-2.74L7.82 12.507h3.672zm-6.413 2.572v-3.503l3.672 3.672H5.248a.17.17 0 0 1-.169-.169m13.669.169h-6.244v-6.413h6.412v6.244a.17.17 0 0 1-.169.169z"/></svg>