<svg xmlns="http://www.w3.org/2000/svg" width="24" height="24" fill="currentColor" viewBox="0 0 24 24"><path d="M4.575 12H12v7.425H5.25a.675.675 0 0 1-.675-.675zM18.75 4.575H12V12h7.425V5.25a.675.675 0 0 0-.675-.675" opacity=".2"/><path d="M18.75 3.9H5.25A1.35 1.35 0 0 0 3.9 5.25v13.5a1.35 1.35 0 0 0 1.35 1.35h13.5a1.35 1.35 0 0 0 1.35-1.35V5.25a1.35 1.35 0 0 0-1.35-1.35m0 7.425h-6.075V5.25h6.075zM11.325 5.25v6.075H5.25V5.25zM5.25 12.675h6.075v6.075H5.25zm13.5 6.075h-6.075v-6.075h6.075z"/></svg>