<svg xmlns="http://www.w3.org/2000/svg" fill="currentColor" viewBox="0 0 24 24" width="24" height="24"><path d="M19.256 7.275a.506.506 0 0 1-.506.506h-2.7a.507.507 0 0 1 0-1.013h2.7a.506.506 0 0 1 .506.506zm-.506 2.194h-2.7a.506.506 0 0 0 0 1.012h2.7a.506.506 0 0 0 0-1.012m3.206-4.219v13.5a1.18 1.18 0 0 1-1.181 1.181h-6.75a1.18 1.18 0 0 1-1.181-1.181v-1.519H9.131v1.688h1.519a.506.506 0 0 1 0 1.012H6.6a.506.506 0 0 1 0-1.012h1.519v-1.688H3.9a1.856 1.856 0 0 1-1.856-1.856V9.3A1.856 1.856 0 0 1 3.9 7.444h8.944V5.25a1.18 1.18 0 0 1 1.181-1.181h6.75a1.18 1.18 0 0 1 1.181 1.181m-9.113 10.969V8.456H3.899a.844.844 0 0 0-.844.844v6.075a.844.844 0 0 0 .844.844zm8.1-10.969a.17.17 0 0 0-.169-.169h-6.75a.17.17 0 0 0-.169.169v13.5a.17.17 0 0 0 .169.169h6.75a.17.17 0 0 0 .169-.169zm-3.544 10.294a.844.844 0 1 0 .844.844.844.844 0 0 0-.844-.844"/></svg>