<svg xmlns="http://www.w3.org/2000/svg" fill="currentColor" viewBox="0 0 24 24" width="24" height="24"><path d="M21.45 5.25v13.5a.675.675 0 0 1-.675.675h-6.75a.675.675 0 0 1-.675-.675V5.25a.675.675 0 0 1 .675-.675h6.75a.675.675 0 0 1 .675.675" opacity=".2"/><path d="M19.425 7.275a.675.675 0 0 1-.675.675h-2.7a.675.675 0 0 1 0-1.35h2.7a.675.675 0 0 1 .675.675M18.75 9.3h-2.7a.675.675 0 0 0 0 1.35h2.7a.675.675 0 0 0 0-1.35m3.375-4.05v13.5a1.35 1.35 0 0 1-1.35 1.35h-6.75a1.35 1.35 0 0 1-1.35-1.35V17.4H9.3v1.35h1.35a.675.675 0 0 1 0 1.35H6.6a.675.675 0 0 1 0-1.35h1.35V17.4H3.9a2.025 2.025 0 0 1-2.025-2.025V9.3A2.025 2.025 0 0 1 3.9 7.275h8.775V5.25a1.35 1.35 0 0 1 1.35-1.35h6.75a1.35 1.35 0 0 1 1.35 1.35m-9.45 10.8V8.625H3.9a.675.675 0 0 0-.675.675v6.075a.675.675 0 0 0 .675.675zm8.1 2.7V5.25h-6.75v13.5zM17.4 15.375a1.013 1.013 0 1 0 1.012 1.012 1.013 1.013 0 0 0-1.012-1.012"/></svg>