<svg xmlns="http://www.w3.org/2000/svg" fill="currentColor" viewBox="0 0 24 24" width="24" height="24"><path d="M18.75 4.744H5.25A1.856 1.856 0 0 0 3.394 6.6v9.45a1.856 1.856 0 0 0 1.856 1.856h6.244v1.688H9.3a.506.506 0 0 0 0 1.012h5.4a.506.506 0 0 0 0-1.012h-2.194v-1.688h6.244a1.856 1.856 0 0 0 1.856-1.856V6.6a1.856 1.856 0 0 0-1.856-1.856M5.25 5.757h13.5a.844.844 0 0 1 .844.844v6.919H4.406V6.601a.844.844 0 0 1 .844-.844m13.5 11.138H5.25a.844.844 0 0 1-.844-.844v-1.519h15.188v1.519a.844.844 0 0 1-.844.844"/></svg>