<svg xmlns="http://www.w3.org/2000/svg" fill="currentColor" viewBox="0 0 24 24" width="24" height="24"><path d="M11.325 7.613v9.45a.34.34 0 0 1-.338.337H9.3v1.35h1.327a.69.69 0 0 1 .696.63.675.675 0 0 1-.675.72H6.622a.69.69 0 0 1-.698-.63.675.675 0 0 1 .675-.72h1.35V17.4h-4.05a2.025 2.025 0 0 1-2.025-2.025V9.3a2.025 2.025 0 0 1 2.025-2.025h7.088a.34.34 0 0 1 .337.338zm10.8-2.362v13.5a1.35 1.35 0 0 1-1.35 1.35h-6.75a1.35 1.35 0 0 1-1.35-1.35v-13.5a1.35 1.35 0 0 1 1.35-1.35h6.75a1.35 1.35 0 0 1 1.35 1.35m-3.721 11.27a1.013 1.013 0 1 0-.872.872 1.01 1.01 0 0 0 .872-.872m1.696-6.59a.69.69 0 0 0-.698-.63h-4.004a.69.69 0 0 0-.696.63.675.675 0 0 0 .675.72h4.05a.675.675 0 0 0 .673-.72m0-2.7a.69.69 0 0 0-.698-.63h-4.004a.69.69 0 0 0-.698.63.675.675 0 0 0 .675.72h4.05a.675.675 0 0 0 .675-.72"/></svg>