<svg xmlns="http://www.w3.org/2000/svg" fill="currentColor" viewBox="0 0 24 24" width="24" height="24"><path d="M20.1 6.6v7.425H3.9V6.6a1.35 1.35 0 0 1 1.35-1.35h13.5A1.35 1.35 0 0 1 20.1 6.6" opacity=".2"/><path d="M18.75 4.575H5.25A2.025 2.025 0 0 0 3.225 6.6v9.45a2.025 2.025 0 0 0 2.025 2.025h6.075v1.35H9.3a.675.675 0 0 0 0 1.35h5.4a.675.675 0 0 0 0-1.35h-2.025v-1.35h6.075a2.025 2.025 0 0 0 2.025-2.025V6.6a2.025 2.025 0 0 0-2.025-2.025m-13.5 1.35h13.5a.675.675 0 0 1 .675.675v6.75H4.575V6.6a.675.675 0 0 1 .675-.675m13.5 10.8H5.25a.675.675 0 0 1-.675-.675V14.7h14.85v1.35a.675.675 0 0 1-.675.675"/></svg>