<svg xmlns="http://www.w3.org/2000/svg" width="24" height="24" fill="currentColor" viewBox="0 0 24 24"><path d="M20.1 7.275h-1.35V6.6a2.025 2.025 0 0 0-2.025-2.025H4.575A2.025 2.025 0 0 0 2.55 6.6v8.1a2.025 2.025 0 0 0 2.025 2.025h9.45v.675a2.025 2.025 0 0 0 2.025 2.025h4.05a2.025 2.025 0 0 0 2.025-2.025V9.3A2.025 2.025 0 0 0 20.1 7.275m.675 10.125a.675.675 0 0 1-.675.675h-4.05a.675.675 0 0 1-.675-.675V9.3a.675.675 0 0 1 .675-.675h4.05a.675.675 0 0 1 .675.675zm-8.1 1.35a.675.675 0 0 1-.675.675H8.625a.675.675 0 0 1 0-1.35H12a.675.675 0 0 1 .675.675m6.75-8.1a.675.675 0 0 1-.675.675H17.4a.675.675 0 0 1 0-1.35h1.35a.675.675 0 0 1 .675.675"/></svg>