<svg viewBox="0 0 24 24" fill="none" xmlns="http://www.w3.org/2000/svg" width="24" height="24">
<path d="M21.5 4C21.7761 4 22 4.22386 22 4.5C22 4.77614 21.7761 5 21.5 5H2.5C2.22386 5 2 4.77614 2 4.5C2 4.22386 2.22386 4 2.5 4H21.5Z" fill="black"/>
<path d="M21.5 19C21.7761 19 22 19.2239 22 19.5C22 19.7761 21.7761 20 21.5 20H2.5C2.22386 20 2 19.7761 2 19.5C2 19.2239 2.22386 19 2.5 19H21.5Z" fill="black"/>
<path d="M5 15H19V9H5V15ZM22 17.25C22 17.6382 21.7051 17.9575 21.3271 17.9961L21.25 18H2.75C2.33579 18 2 17.6642 2 17.25V6.75C2 6.33579 2.33579 6 2.75 6H21.25L21.3271 6.00391C21.7051 6.04253 22 6.36183 22 6.75V17.25Z" fill="black"/>
</svg>