<svg xmlns="http://www.w3.org/2000/svg" width="24" height="24" fill="currentColor" viewBox="0 0 24 24"><path d="M21.45 14.7a2.7 2.7 0 1 0-3.369 2.616l-.006.084a2.7 2.7 0 0 1-2.7 2.7H13.35a2.7 2.7 0 0 1-2.7-2.7v-3.419c2.655-.338 4.725-2.655 4.725-5.426v-3.98A.675.675 0 0 0 14.7 3.9h-2.025a.675.675 0 0 0 0 1.35h1.35v3.305c0 2.243-1.793 4.091-3.996 4.12a4.05 4.05 0 0 1-4.104-4.05V5.25h1.35a.675.675 0 0 0 0-1.35H5.25a.675.675 0 0 0-.675.675v4.05A5.4 5.4 0 0 0 9.3 13.982V17.4a4.054 4.054 0 0 0 4.05 4.05h2.025a4.054 4.054 0 0 0 4.05-4.05l-.006-.084A2.7 2.7 0 0 0 21.45 14.7m-2.7.675a.675.675 0 1 1 .675-.675.675.675 0 0 1-.675.675"/></svg>