<svg xmlns="http://www.w3.org/2000/svg" width="24" height="24" fill="currentColor" viewBox="0 0 24 24"><path d="M14.025 11.494h-1.519V5.756h.844a2.87 2.87 0 0 1 2.869 2.869.506.506 0 0 0 1.012 0 3.886 3.886 0 0 0-3.881-3.881h-.844V3.225a.507.507 0 0 0-1.013 0v1.519h-.844a3.882 3.882 0 0 0 0 7.763h.844v5.738H9.974a2.87 2.87 0 0 1-2.869-2.869.507.507 0 0 0-1.013 0 3.886 3.886 0 0 0 3.881 3.881h1.519v1.519a.507.507 0 0 0 1.013 0v-1.519h1.519a3.881 3.881 0 0 0 0-7.762zm-3.375 0a2.869 2.869 0 0 1 0-5.738h.844v5.738zm3.375 6.75h-1.519v-5.738h1.519a2.869 2.869 0 0 1 0 5.738"/></svg>