<svg xmlns="http://www.w3.org/2000/svg" width="24" height="24" fill="currentColor" viewBox="0 0 24 24"><path d="M14.7 14.025a1.35 1.35 0 0 1-1.35 1.35h-.675v-2.7h.675a1.35 1.35 0 0 1 1.35 1.35M20.775 12A8.775 8.775 0 1 1 12 3.225 8.784 8.784 0 0 1 20.775 12m-4.725 2.025a2.7 2.7 0 0 0-2.7-2.7h-.675v-2.7h.338a1.35 1.35 0 0 1 1.35 1.35.675.675 0 0 0 1.35 0 2.7 2.7 0 0 0-2.7-2.7h-.338V6.6a.675.675 0 0 0-1.35 0v.675h-.338a2.7 2.7 0 0 0 0 5.4h.338v2.7h-.675a1.35 1.35 0 0 1-1.35-1.35.675.675 0 0 0-1.35 0 2.7 2.7 0 0 0 2.7 2.7h.675v.675a.675.675 0 0 0 1.35 0v-.675h.675a2.7 2.7 0 0 0 2.7-2.7m-6.413-4.05a1.35 1.35 0 0 0 1.35 1.35h.338v-2.7h-.338a1.35 1.35 0 0 0-1.35 1.35"/></svg>