<svg xmlns="http://www.w3.org/2000/svg" width="24" height="24" fill="currentColor" viewBox="0 0 24 24"><path d="M19.425 5.925v12.15a1.35 1.35 0 0 1-1.35 1.35H5.925a1.35 1.35 0 0 1-1.35-1.35V5.925a1.35 1.35 0 0 1 1.35-1.35h12.15a1.35 1.35 0 0 1 1.35 1.35" opacity=".2"/><path d="M18.553 17.203a1.233 1.233 0 0 0 0 1.745.675.675 0 0 1-.955.955 2.585 2.585 0 0 1 0-3.655l.791-.791a1.236 1.236 0 0 0-1.749-1.746l-5.63 5.629a2.584 2.584 0 0 1-3.652-3.652l8.329-8.329a1.236 1.236 0 0 0-1.748-1.748l-5.63 5.63a2.584 2.584 0 0 1-3.652-3.652l3.488-3.491a.675.675 0 0 1 .954.955L5.608 8.541a1.236 1.236 0 0 0 1.749 1.748l5.63-5.63a2.584 2.584 0 0 1 3.652 3.652L8.31 16.64a1.236 1.236 0 0 0 1.748 1.748l5.63-5.629a2.584 2.584 0 0 1 3.652 3.652z"/></svg>