<svg xmlns="http://www.w3.org/2000/svg" width="24" height="24" fill="currentColor" viewBox="0 0 24 24"><path d="M18.434 17.083a1.403 1.403 0 0 0 0 1.985.506.506 0 1 1-.715.715 2.414 2.414 0 0 1 0-3.415l.791-.791a1.403 1.403 0 0 0-1.985-1.984l-5.632 5.632a2.416 2.416 0 0 1-3.416-3.416l8.333-8.332a1.403 1.403 0 0 0-1.985-1.984l-5.633 5.632a2.416 2.416 0 0 1-3.416-3.416l3.491-3.491a.506.506 0 1 1 .716.716L5.492 8.425a1.403 1.403 0 0 0 1.985 1.984l5.632-5.632a2.416 2.416 0 0 1 3.416 3.416l-8.333 8.332a1.403 1.403 0 0 0 1.984 1.984l5.633-5.632a2.416 2.416 0 0 1 3.416 3.416z"/></svg>