<svg xmlns="http://www.w3.org/2000/svg" width="24" height="24" fill="currentColor" viewBox="0 0 24 24"><path d="M9.07 4.31a.338.338 0 0 1 .069-.607 8.77 8.77 0 0 1 7.481.84.34.34 0 0 1 .084.495A12.9 12.9 0 0 1 13.17 8.16a14.3 14.3 0 0 0-4.1-3.85m2.895 4.484A12.9 12.9 0 0 0 7.24 4.836a.33.33 0 0 0-.338.028 8.8 8.8 0 0 0-3.235 4.387.34.34 0 0 0 .253.435 13 13 0 0 0 2.68.289 12.7 12.7 0 0 0 5.365-1.181m8.758 2.252a8.76 8.76 0 0 0-2.463-5.188.338.338 0 0 0-.506.029 14.3 14.3 0 0 1-3.855 3.409 14 14 0 0 1 1.143 2.523 14.2 14.2 0 0 1 3.708-.493 14 14 0 0 1 1.603.09.338.338 0 0 0 .37-.367zm-5.308 2.067a14.2 14.2 0 0 1 .375 3.246 14.2 14.2 0 0 1-.347 3.109.338.338 0 0 0 .48.379 8.8 8.8 0 0 0 4.773-6.687.34.34 0 0 0-.294-.379 12.9 12.9 0 0 0-4.987.338zm-1.657-.882a13 13 0 0 0-1.045-2.296 14.1 14.1 0 0 1-6.112 1.39 14.2 14.2 0 0 1-2.943-.308.34.34 0 0 0-.406.3q-.026.338-.027.683a8.75 8.75 0 0 0 2.784 6.405.338.338 0 0 0 .519-.078 14.26 14.26 0 0 1 7.23-6.094zm-6.171 6.962a.34.34 0 0 0 .128.462 8.77 8.77 0 0 0 5.809.986.33.33 0 0 0 .258-.224 12.9 12.9 0 0 0 .658-4.057 12.8 12.8 0 0 0-.316-2.823 12.9 12.9 0 0 0-6.538 5.655z"/></svg>