<svg xmlns="http://www.w3.org/2000/svg" width="24" height="24" fill="currentColor" viewBox="0 0 24 24"><path d="M12 3.394A8.606 8.606 0 1 0 20.606 12 8.616 8.616 0 0 0 12 3.394m7.578 8.125a14 14 0 0 0-.827-.025 14 14 0 0 0-3.818.531 14 14 0 0 0-1.218-2.724l-.037-.062a14 14 0 0 0 3.442-2.844 7.58 7.58 0 0 1 2.458 5.126zm-3.25-5.755a13 13 0 0 1-3.198 2.625 14.1 14.1 0 0 0-3.587-3.574 7.58 7.58 0 0 1 6.785.949m-7.896-.465a13.1 13.1 0 0 1 3.797 3.567A13 13 0 0 1 6.6 10.144a13 13 0 0 1-1.927-.143 7.63 7.63 0 0 1 3.759-4.702M4.406 12a8 8 0 0 1 .067-1.006 14 14 0 0 0 2.127.162 14 14 0 0 0 6.184-1.434l.057.093a13 13 0 0 1 1.129 2.523 14 14 0 0 0-2.201 1.022 14.1 14.1 0 0 0-4.698 4.412 7.58 7.58 0 0 1-2.664-5.771zm3.475 6.377a13.1 13.1 0 0 1 4.392-4.145 13 13 0 0 1 1.973-.922 13 13 0 0 1 .363 3.051 13 13 0 0 1-.321 2.88 7.58 7.58 0 0 1-6.406-.864zm7.53.406a14 14 0 0 0 .21-2.422 14 14 0 0 0-.41-3.364 13 13 0 0 1 3.539-.491q.412 0 .824.027a7.61 7.61 0 0 1-4.163 6.25"/></svg>