<svg xmlns="http://www.w3.org/2000/svg" width="24" height="24" fill="currentColor" viewBox="0 0 24 24"><path d="M5.625 4.238a.506.506 0 0 0-.749.675l2 2.2c-1.413 2.098-2.131 4.193-2.131 6.238a7.256 7.256 0 0 0 12.427 5.09l1.205 1.322a.506.506 0 0 0 .749-.682zM12 19.594a6.25 6.25 0 0 1-6.244-6.244c0-1.772.613-3.608 1.822-5.462l8.909 9.8A6.23 6.23 0 0 1 12 19.593zM8.912 5.341a.506.506 0 0 1-.017-.716 20.7 20.7 0 0 1 2.815-2.488.51.51 0 0 1 .581 0 21.2 21.2 0 0 1 3.467 3.206c2.289 2.63 3.499 5.4 3.499 8.008a7.3 7.3 0 0 1-.26 1.93.506.506 0 0 1-.488.372.5.5 0 0 1-.134-.018.506.506 0 0 1-.354-.623 6.2 6.2 0 0 0 .224-1.661c0-5.031-4.978-9.192-6.244-10.169a21.4 21.4 0 0 0-2.373 2.141.506.506 0 0 1-.715.018z"/></svg>