<svg xmlns="http://www.w3.org/2000/svg" width="24" height="24" fill="currentColor" viewBox="0 0 24 24"><path d="M18.75 13.35A6.75 6.75 0 0 1 12 20.1V2.55s6.75 4.725 6.75 10.8" opacity=".2"/><path d="M15.881 5.229a21.5 21.5 0 0 0-3.497-3.232.675.675 0 0 0-.775 0 21.5 21.5 0 0 0-3.491 3.232c-2.319 2.664-3.544 5.472-3.544 8.121a7.425 7.425 0 0 0 14.85 0c0-2.649-1.224-5.457-3.544-8.121zM5.925 13.35c0-4.219 3.566-7.822 5.4-9.399v15.436a6.08 6.08 0 0 1-5.4-6.036zm6.75 6.036V3.95c1.834 1.577 5.4 5.181 5.4 9.399a6.08 6.08 0 0 1-5.4 6.036z"/></svg>