<svg xmlns="http://www.w3.org/2000/svg" width="24" height="24" fill="currentColor" viewBox="0 0 24 24"><path d="M15.757 5.339a21.2 21.2 0 0 0-3.467-3.206.51.51 0 0 0-.581 0 21.2 21.2 0 0 0-3.467 3.206c-2.289 2.633-3.499 5.403-3.499 8.011a7.256 7.256 0 0 0 14.513 0c0-2.608-1.21-5.378-3.499-8.011m2.487 8.011a6 6 0 0 1-.058.844h-5.679v-1.688h5.69a8 8 0 0 1 .047.844m-1.283-4.556h-4.455V7.106h3.366a15 15 0 0 1 1.089 1.688m-4.455 9.113h3.756a6.22 6.22 0 0 1-3.756 1.666zm0-1.012v-1.688h5.456a6.3 6.3 0 0 1-.825 1.688zm0-5.4V9.807h4.953a10 10 0 0 1 .564 1.688zm2.556-5.4h-2.556V3.589a21.7 21.7 0 0 1 2.556 2.506m-9.306 7.256c0-4.507 3.995-8.316 5.738-9.762v15.984a6.25 6.25 0 0 1-5.738-6.222"/></svg>