<svg xmlns="http://www.w3.org/2000/svg" width="24" height="24" fill="currentColor" viewBox="0 0 24 24"><path d="M18.075 8.625 12 14.7H9.3V12l6.075-6.075z" opacity=".2"/><path d="m20.578 6.122-2.7-2.7a.675.675 0 0 0-.955 0l-8.1 8.1a.68.68 0 0 0-.197.478v2.7a.675.675 0 0 0 .675.675h2.7a.68.68 0 0 0 .478-.197l8.1-8.1a.675.675 0 0 0 0-.955zm-8.857 7.903H9.975v-1.746l5.4-5.4 1.746 1.746zm6.354-6.354-1.746-1.746L17.4 4.854 19.146 6.6zM20.1 12v6.75a1.35 1.35 0 0 1-1.35 1.35H5.25a1.35 1.35 0 0 1-1.35-1.35V5.25A1.35 1.35 0 0 1 5.25 3.9H12a.675.675 0 0 1 0 1.35H5.25v13.5h13.5V12a.675.675 0 0 1 1.35 0"/></svg>