<svg xmlns="http://www.w3.org/2000/svg" width="24" height="24" fill="currentColor" viewBox="0 0 24 24"><path d="m20.458 6.242-2.7-2.7a.506.506 0 0 0-.716 0l-8.1 8.1a.5.5 0 0 0-.148.358v2.7a.506.506 0 0 0 .506.506H12a.5.5 0 0 0 .358-.149l8.1-8.1a.506.506 0 0 0 0-.715m-8.668 7.952H9.806V12.21l5.569-5.569 1.984 1.984zm6.285-6.285-1.984-1.984L17.4 4.616 19.384 6.6zM19.931 12v6.75a1.18 1.18 0 0 1-1.181 1.181H5.25a1.18 1.18 0 0 1-1.181-1.181V5.25A1.18 1.18 0 0 1 5.25 4.069H12a.507.507 0 0 1 0 1.013H5.25a.17.17 0 0 0-.169.169v13.5a.17.17 0 0 0 .169.169h13.5a.17.17 0 0 0 .169-.169v-6.75a.506.506 0 0 1 1.012 0z"/></svg>