<svg xmlns="http://www.w3.org/2000/svg" width="24" height="24" fill="currentColor" viewBox="0 0 24 24"><path d="M19.425 10.74v4.49a.68.68 0 0 1-.169.448c-.953 1.062-3.282 3.071-7.256 3.071s-6.301-2.009-7.256-3.071a.68.68 0 0 1-.169-.448v-4.49L12 14.7z" opacity=".2"/><path d="m22.442 8.704-10.125-5.4a.68.68 0 0 0-.634 0l-10.125 5.4a.675.675 0 0 0 0 1.191l2.342 1.25v4.085a1.34 1.34 0 0 0 .343.899C5.348 17.36 7.825 19.425 12 19.425a11 11 0 0 0 4.05-.739v2.764a.675.675 0 0 0 1.35 0v-3.416a9.8 9.8 0 0 0 2.357-1.904 1.34 1.34 0 0 0 .343-.899v-4.085l2.342-1.25a.675.675 0 0 0 0-1.191zM12 18.075c-3.651 0-5.798-1.784-6.75-2.844v-3.366l6.433 3.431a.68.68 0 0 0 .634 0l3.733-1.99v3.91c-1.063.496-2.403.86-4.05.86zm6.75-2.848a8.3 8.3 0 0 1-1.35 1.202v-3.845l1.35-.72zm-1.688-3.992-.019-.011-4.725-2.52a.675.675 0 0 0-.634 1.191l3.944 2.104L12 13.934 3.309 9.299 12 4.664l8.691 4.635z"/></svg>