<svg viewBox="0 0 24 24" fill="none" xmlns="http://www.w3.org/2000/svg" width="24" height="24">
<path fill-rule="evenodd" clip-rule="evenodd" d="M3.9001 5.25H20.1001C20.2791 5.25 20.4508 5.32112 20.5774 5.4477C20.704 5.57429 20.7751 5.74598 20.7751 5.925L20.7755 13.3502C20.7755 13.7231 20.4732 14.0254 20.1003 14.0254C19.7274 14.0254 19.4251 13.7231 19.4251 13.3502V7.45894L14.4715 12L15.4287 12.8775C15.8729 13.2847 15.5901 14.0289 14.9875 14.0298C14.8268 14.03 14.6664 13.9715 14.5457 13.8654L13.4657 12.9155L12.4532 13.8478C12.3287 13.9621 12.1658 14.0256 11.9967 14.0256C11.8277 14.0256 11.6648 13.9621 11.5403 13.8478L10.5278 12.9155L5.6357 17.4H10.7079C11.0807 17.4 11.3829 17.7243 11.3829 18.0971C11.3829 18.4699 11.0807 18.75 10.7079 18.75H4.5751C4.21706 18.75 3.87368 18.6078 3.6205 18.3546C3.36733 18.1014 3.2251 17.758 3.2251 17.4V5.925C3.2251 5.74598 3.29621 5.57429 3.4228 5.4477C3.54939 5.32112 3.72108 5.25 3.9001 5.25ZM19.4251 18.75C19.4423 18.75 19.4594 18.7497 19.4765 18.749L19.4251 18.75ZM4.5751 16.5402L9.52877 12L4.5751 7.45978V16.5402Z" fill="black"/>
<path d="M22.1251 18.0752C22.1251 17.7172 21.9836 17.3733 21.7306 17.1201C21.4774 16.8669 21.1332 16.7246 20.7751 16.7246H19.088C18.7152 16.7246 18.4132 16.4226 18.4132 16.0498C18.4132 15.677 18.7152 15.375 19.088 15.375H20.7755C21.4916 15.375 22.1783 15.6597 22.6847 16.166C22.7461 16.2275 22.8043 16.2916 22.8591 16.3581C23.2558 16.8395 23.4757 17.4461 23.4757 18.0752C23.4756 18.7911 23.1909 19.4781 22.6847 19.9844C22.1783 20.4906 21.4915 20.7744 20.7755 20.7744H19.088C18.7152 20.7744 18.4132 20.4724 18.4132 20.0996C18.4133 19.7269 18.7153 19.4248 19.088 19.4248H20.7755C21.1335 19.4248 21.4774 19.2825 21.7306 19.0293C21.9835 18.7762 22.125 18.433 22.1251 18.0752Z" fill="black"/>
<path fill-rule="evenodd" clip-rule="evenodd" d="M20.7755 15.375C21.4916 15.375 22.1783 15.6597 22.6847 16.166C22.7461 16.2275 22.8043 16.2916 22.8591 16.3581C23.2558 16.8395 23.4757 17.4461 23.4757 18.0752C23.4756 18.7911 23.1909 19.4781 22.6847 19.9844C22.1783 20.4906 21.4915 20.7744 20.7755 20.7744H19.088C18.7152 20.7744 18.4132 20.4724 18.4132 20.0996C18.4133 19.7269 18.7153 19.4248 19.088 19.4248H20.7755C21.1335 19.4248 21.4774 19.2825 21.7306 19.0293C21.9835 18.7762 22.125 18.433 22.1251 18.0752C22.1251 17.7172 21.9836 17.3733 21.7306 17.1201C21.4774 16.8669 21.1332 16.7246 20.7751 16.7246H19.088C18.7152 16.7246 18.4132 16.4226 18.4132 16.0498C18.4132 15.9225 18.4484 15.8034 18.5096 15.7019C18.6277 15.506 18.8425 15.375 19.088 15.375H20.7755Z" fill="black"/>
<path fill-rule="evenodd" clip-rule="evenodd" d="M15.3765 20.7754C14.6602 20.7754 13.9731 20.4906 13.4669 19.9844C13.4055 19.9229 13.3473 19.8588 13.2925 19.7923C12.8958 19.3109 12.6759 18.7043 12.6759 18.0752C12.676 17.3594 12.9608 16.6733 13.4669 16.167C13.9735 15.6604 14.6603 15.375 15.3761 15.375L17.0636 15.376C17.4364 15.376 17.7384 15.678 17.7384 16.0508C17.7383 16.4235 17.4363 16.7256 17.0636 16.7256H15.3761C15.018 16.7256 14.6742 16.8679 14.421 17.1211C14.1681 17.3741 14.0266 17.7174 14.0265 18.0752C14.0265 18.4331 14.1679 18.7771 14.421 19.0303C14.6742 19.2834 15.0184 19.4258 15.3765 19.4258H17.0636C17.4364 19.4258 17.7384 19.7278 17.7384 20.1006C17.7384 20.2279 17.7032 20.3469 17.6419 20.4485C17.5239 20.6444 17.3091 20.7744 17.0636 20.7744L16.7265 20.7754H15.3765Z" fill="black"/>
<path fill-rule="evenodd" clip-rule="evenodd" d="M17.0636 16.7256C17.2171 16.7255 17.3587 16.6732 17.4721 16.5868C17.6339 16.4636 17.7384 16.2699 17.7384 16.0508C17.7384 15.678 17.4364 15.376 17.0636 15.376L16.1497 15.375H15.3761C14.6603 15.375 13.9735 15.6604 13.4669 16.167C13.1231 16.5108 12.8814 16.9369 12.7617 17.4H14.2063C14.2649 17.2986 14.3368 17.2053 14.421 17.1211C14.6742 16.8679 15.018 16.7256 15.3761 16.7256H17.0636ZM15.1093 20.7612L15.13 20.7632C15.1783 20.7677 15.2269 20.7712 15.2756 20.7732C15.309 20.7746 15.3429 20.7754 15.3765 20.7754L17.0636 20.7744C17.4362 20.7742 17.7384 20.4732 17.7384 20.1006C17.7384 19.7278 17.4364 19.4258 17.0636 19.4258L15.3761 19.4248C15.018 19.4248 14.6742 19.2834 14.421 19.0303C14.3369 18.9462 14.2651 18.8512 14.2066 18.75H12.7621C12.7932 18.8693 12.8339 18.9918 12.8808 19.1055C12.981 19.3481 13.1166 19.5761 13.2844 19.7815C13.3066 19.8087 13.3294 19.8355 13.3527 19.8619C13.3894 19.9034 13.4275 19.9449 13.4669 19.9844C13.6992 20.2167 13.9694 20.4015 14.263 20.5346C14.4493 20.6188 14.6451 20.6818 14.8465 20.7221C14.9331 20.7394 15.0208 20.7525 15.1093 20.7612Z" fill="black"/>
<path fill-rule="evenodd" clip-rule="evenodd" d="M19.4251 18.75L19.4765 18.749H20.1007C20.4735 18.749 20.7755 18.447 20.7755 18.0742C20.7755 17.975 20.7541 17.8808 20.7157 17.796C20.6098 17.5621 20.3743 17.3994 20.1007 17.3994H16.0509L16.0296 17.3997C15.6667 17.411 15.3761 17.7086 15.3761 18.0742C15.3761 18.447 15.6781 18.749 16.0509 18.749L19.4251 18.75Z" fill="black"/>
</svg>