<svg viewBox="0 0 24 24" fill="none" xmlns="http://www.w3.org/2000/svg" width="24" height="24">
<path fill-rule="evenodd" clip-rule="evenodd" d="M12.9004 17.575C12.998 17.0914 13.2358 16.6428 13.5897 16.2889C14.0633 15.8153 14.7062 15.5496 15.3759 15.5496H17.0634C17.3393 15.5498 17.5634 15.7736 17.5634 16.0496C17.5634 16.1587 17.5284 16.2596 17.469 16.3418C17.3782 16.4676 17.2303 16.5495 17.0634 16.5496H15.3759C14.9714 16.5496 14.5828 16.7099 14.2968 16.9959C14.1323 17.1604 14.0093 17.3589 13.9346 17.5748C13.8794 17.7343 13.8505 17.9032 13.8505 18.075C13.8505 18.2469 13.8795 18.4158 13.9348 18.5752C14.0096 18.7907 14.1325 18.9888 14.2968 19.1531C14.5828 19.4391 14.9714 19.5994 15.3759 19.5994H17.0634C17.3393 19.5996 17.5633 19.8235 17.5634 20.0994C17.5634 20.3754 17.3393 20.5992 17.0634 20.5994H15.3759C14.7062 20.5994 14.0633 20.3337 13.5897 19.8602C13.236 19.5064 12.9982 19.0584 12.9006 18.5752C12.8675 18.4117 12.8505 18.2442 12.8505 18.075C12.8505 17.9059 12.8674 17.7384 12.9004 17.575Z" fill="black"/>
<path d="M20.7753 16.5496C21.1796 16.5496 21.5675 16.7101 21.8534 16.9959C22.1394 17.2819 22.3007 17.6705 22.3007 18.075C22.3006 18.4793 22.1393 18.8672 21.8534 19.1531C21.5674 19.439 21.1797 19.5994 20.7753 19.5994H19.0878C18.8117 19.5994 18.5879 19.8234 18.5878 20.0994C18.5878 20.3756 18.8117 20.5994 19.0878 20.5994H20.7753C21.4449 20.5994 22.0869 20.3336 22.5604 19.8602C23.0339 19.3867 23.3006 18.7445 23.3007 18.075C23.3007 17.4053 23.034 16.7624 22.5604 16.2889C22.0869 15.8155 21.4448 15.5496 20.7753 15.5496H19.0878C18.8242 15.5496 18.6083 15.7535 18.5892 16.0122C18.5883 16.0246 18.5878 16.037 18.5878 16.0496C18.5878 16.3258 18.8117 16.5496 19.0878 16.5496H20.7753Z" fill="black"/>
<path d="M15.5507 18.074C15.5507 18.3502 15.7745 18.574 16.0507 18.574L19.4253 18.5752L19.4757 18.574H20.1005C20.3766 18.574 20.6005 18.3502 20.6005 18.074C20.6005 17.9777 20.5733 17.8878 20.5261 17.8115C20.4763 17.7309 20.4042 17.6655 20.3185 17.6239C20.2526 17.5919 20.1786 17.574 20.1005 17.574H19.4448C19.4384 17.5748 19.4319 17.5752 19.4253 17.5752L18.813 17.574H16.0507C16.0433 17.574 16.0361 17.5742 16.0288 17.5745C15.7628 17.586 15.5507 17.8052 15.5507 18.074ZM20.2059 18.2736C20.225 18.2582 20.2433 18.2411 20.2604 18.2225C20.2428 18.2401 20.2246 18.2571 20.2059 18.2736Z" fill="black"/>
<path fill-rule="evenodd" clip-rule="evenodd" d="M3.91794 5.42541L3.8999 5.4248L3.88655 5.42527L3.87472 5.42596C3.86438 5.42662 3.85294 5.42752 3.84302 5.42855L3.83137 5.42989L3.81408 5.43249C3.8056 5.43396 3.79716 5.43565 3.78876 5.43755C3.73137 5.45059 3.67593 5.47382 3.62536 5.50712C3.61845 5.51167 3.61166 5.51638 3.605 5.52126C3.59895 5.52569 3.59117 5.53174 3.58528 5.53648C3.58034 5.5405 3.57162 5.54813 3.56464 5.55435C3.55729 5.56136 3.54447 5.57368 3.53921 5.57921C3.45748 5.66822 3.3999 5.79444 3.3999 5.9248V17.3994C3.3999 17.5476 3.42704 17.6912 3.4792 17.8247C3.48665 17.8438 3.49461 17.8626 3.50308 17.8813C3.52157 17.922 3.54246 17.9617 3.56569 18.0002C3.61392 18.08 3.67222 18.1546 3.74004 18.2225C3.75684 18.2407 3.77469 18.2575 3.79341 18.2727C3.86045 18.3321 3.93385 18.3839 4.01185 18.4271C4.03866 18.4419 4.06602 18.4557 4.09385 18.4685C4.24413 18.5374 4.40816 18.5752 4.57471 18.5752H11.8862C11.8862 18.2773 11.8861 17.9375 11.8861 17.5752L5.18514 17.5752L10.5266 12.6782L11.6616 13.7188C11.8527 13.8939 12.1462 13.8936 12.3374 13.7188L13.4727 12.6781L15.5141 14.5496H16.9936L14.2122 12.0001L19.6001 7.06106V14.5496H20.6001V5.92484C20.6001 5.64876 20.3762 5.42491 20.1001 5.4248L3.91794 5.42541ZM4.04201 5.44553C4.01981 5.43916 3.99691 5.43435 3.97417 5.43097C3.95495 5.42815 3.93574 5.42629 3.91794 5.42541C3.95975 5.42691 4.00147 5.43354 4.04201 5.44553ZM4.04201 5.44553C4.06314 5.45183 4.0839 5.45953 4.10412 5.46859C4.08928 5.46195 4.0742 5.45607 4.05893 5.45095L4.04201 5.44553ZM9.78715 12.0002L4.3999 7.06115V16.9383L9.78715 12.0002ZM5.18497 6.42481H18.8149L13.1041 11.6619L11.9995 12.6709L10.8963 11.6619L10.8775 11.6425L10.8527 11.6197L5.18497 6.42481Z" fill="black"/>
<path fill-rule="evenodd" clip-rule="evenodd" d="M5.18506 6.4248H18.815L13.1042 11.6619L11.9996 12.6709L10.8964 11.6619L10.8776 11.6425C10.8695 11.6346 10.8612 11.627 10.8527 11.6197L5.18506 6.4248Z" fill="black" fill-opacity="0.2"/>
</svg>