<svg xmlns="http://www.w3.org/2000/svg" width="24" height="24" fill="currentColor" viewBox="0 0 24 24"><path d="m20.064 8.103-3.491-3.491a1.856 1.856 0 0 0-2.626 0l-10.01 10.01a1.856 1.856 0 0 0 0 2.625l2.537 2.536a.5.5 0 0 0 .358.149h12.594a.506.506 0 0 0 0-1.012h-7.552l8.191-8.191a1.856 1.856 0 0 0 0-2.625zM10.44 18.919H7.041l-2.388-2.388a.844.844 0 0 1 0-1.194L9.3 10.69l4.684 4.684zm8.907-8.907L14.7 14.659l-4.684-4.684 4.647-4.647a.844.844 0 0 1 1.193 0l3.491 3.491a.844.844 0 0 1 0 1.193"/></svg>