<svg xmlns="http://www.w3.org/2000/svg" width="24" height="24" fill="currentColor" viewBox="0 0 24 24"><path d="M19.256 10.65v8.1a1.18 1.18 0 0 1-1.181 1.181H5.925a1.18 1.18 0 0 1-1.181-1.181v-8.1a1.18 1.18 0 0 1 1.181-1.181H7.95a.506.506 0 0 1 0 1.012H5.925a.17.17 0 0 0-.169.169v8.1a.17.17 0 0 0 .169.169h12.15a.17.17 0 0 0 .169-.169v-8.1a.17.17 0 0 0-.169-.169H16.05a.507.507 0 0 1 0-1.013h2.025a1.18 1.18 0 0 1 1.181 1.181zM8.982 6.958l2.511-2.51v8.227a.507.507 0 0 0 1.013 0V4.448l2.511 2.51a.506.506 0 1 0 .716-.716l-3.375-3.375a.506.506 0 0 0-.716 0L8.267 6.242a.506.506 0 1 0 .716.716z"/></svg>