<svg xmlns="http://www.w3.org/2000/svg" width="24" height="24" fill="currentColor" viewBox="0 0 24 24"><path d="M9.357 6.083a.338.338 0 0 1 .175-.557 11 11 0 0 1 2.467-.276c2.943 0 5.617 1.119 7.734 3.236 1.589 1.589 2.303 3.174 2.333 3.241a.68.68 0 0 1 0 .548c-.03.067-.744 1.651-2.333 3.24q-.361.359-.742.681a.34.34 0 0 1-.468-.03zm9.892 12.888a.675.675 0 1 1-.999.908l-1.863-2.046a10.7 10.7 0 0 1-4.388.917c-2.943 0-5.617-1.119-7.734-3.235-1.589-1.589-2.307-3.173-2.333-3.24a.68.68 0 0 1 0-.548c.026-.064.744-1.652 2.333-3.241a11.4 11.4 0 0 1 2.109-1.669L4.749 5.029a.675.675 0 1 1 .999-.908zM13.723 14.9l-4.446-4.894a3.375 3.375 0 0 0 4.446 4.894"/></svg>