<svg xmlns="http://www.w3.org/2000/svg" width="24" height="24" fill="currentColor" viewBox="0 0 24 24"><path d="M12 5.925C5.25 5.925 2.55 12 2.55 12s2.7 6.075 9.45 6.075S21.45 12 21.45 12 18.75 5.925 12 5.925m0 9.45A3.375 3.375 0 1 1 15.375 12 3.375 3.375 0 0 1 12 15.375" opacity=".2"/><path d="M5.75 4.121a.675.675 0 1 0-.999.908l1.623 1.786c-3.065 1.881-4.382 4.78-4.441 4.911a.68.68 0 0 0 0 .548c.03.067.744 1.651 2.333 3.24C6.383 17.63 9.057 18.749 12 18.749a10.7 10.7 0 0 0 4.393-.914l1.856 2.043a.675.675 0 1 0 .999-.908zm3.993 6.399 3.516 3.869a2.7 2.7 0 0 1-3.516-3.869M12 17.4c-2.597 0-4.866-.944-6.744-2.805A11.2 11.2 0 0 1 3.309 12c.396-.742 1.659-2.817 3.995-4.166L8.823 9.5a4.05 4.05 0 0 0 5.371 5.906l1.243 1.367A9.5 9.5 0 0 1 12 17.4m.506-8.052a.675.675 0 0 1 .253-1.326 4.06 4.06 0 0 1 3.271 3.598.675.675 0 0 1-.609.735h-.063a.675.675 0 0 1-.675-.613 2.71 2.71 0 0 0-2.177-2.394m9.558 2.927c-.035.079-.89 1.972-2.815 3.696a.675.675 0 1 1-.9-1.006A11.2 11.2 0 0 0 20.695 12a11.2 11.2 0 0 0-1.951-2.596C16.866 7.544 14.597 6.6 12 6.6a10 10 0 0 0-1.633.132.675.675 0 1 1-.223-1.331A11.3 11.3 0 0 1 12 5.25c2.943 0 5.617 1.119 7.734 3.236 1.589 1.589 2.303 3.174 2.333 3.241a.68.68 0 0 1 0 .548z"/></svg>