<svg xmlns="http://www.w3.org/2000/svg" width="24" height="24" fill="currentColor" viewBox="0 0 24 24"><path d="M19.931 6.882a2.85 2.85 0 0 0-.898-2.046c-1.117-1.057-2.926-1.02-4.035.092L13.25 6.685l-.053-.053a1.856 1.856 0 0 0-2.625 0l-.759.759a1.18 1.18 0 0 0 0 1.671l.293.293-4.422 4.425a3.19 3.19 0 0 0-.83 3.099l-.701 1.603a.99.99 0 0 0 .208 1.097 1.17 1.17 0 0 0 .833.352 1.2 1.2 0 0 0 .479-.1l1.519-.667a3.2 3.2 0 0 0 3.024-.85l4.425-4.426.293.294a1.18 1.18 0 0 0 1.671 0l.759-.759a1.856 1.856 0 0 0 0-2.626l-.056-.056 1.781-1.792a2.85 2.85 0 0 0 .844-2.068zM9.501 17.598a2.2 2.2 0 0 1-2.194.546.5.5 0 0 0-.351.02l-1.688.738a.17.17 0 0 1-.176-.026l.769-1.763a.5.5 0 0 0 .016-.364 2.18 2.18 0 0 1 .528-2.255l4.425-4.425 3.102 3.103zm8.873-9.366-2.141 2.157a.506.506 0 0 0 0 .715l.412.413a.844.844 0 0 1 0 1.194l-.759.759a.17.17 0 0 1-.238 0l-5.121-5.122a.17.17 0 0 1 0-.239l.759-.759a.844.844 0 0 1 1.193 0l.413.413a.5.5 0 0 0 .358.148.5.5 0 0 0 .359-.149l2.104-2.117c.724-.724 1.9-.759 2.622-.072a1.856 1.856 0 0 1 .037 2.664z"/></svg>