<svg xmlns="http://www.w3.org/2000/svg" width="24" height="24" fill="currentColor" viewBox="0 0 24 24"><path d="M20.1 6.878a3.02 3.02 0 0 0-.95-2.165c-1.181-1.12-3.098-1.078-4.271.095l-1.968 1.977a2.025 2.025 0 0 0-2.796.065l-.422.422a1.35 1.35 0 0 0 0 1.91l.169.174-4.303 4.303a3.35 3.35 0 0 0-.888 3.206l-.675 1.553a1.15 1.15 0 0 0 .242 1.284 1.34 1.34 0 0 0 1.494.283l1.478-.645a3.37 3.37 0 0 0 3.127-.907l4.303-4.303.174.174a1.35 1.35 0 0 0 1.909 0l.422-.422a2.025 2.025 0 0 0 .062-2.8l2.004-2.014a3.02 3.02 0 0 0 .889-2.19M9.384 17.484a2.03 2.03 0 0 1-2.025.506.68.68 0 0 0-.468.026l-1.527.667.645-1.503a.68.68 0 0 0 .021-.485 2.02 2.02 0 0 1 .485-2.081l4.303-4.303 2.864 2.869z"/></svg>