<svg xmlns="http://www.w3.org/2000/svg" fill="currentColor" viewBox="0 0 24 24" width="24" height="24"><path d="M16.219 7.95a.506.506 0 0 1 .506-.506h2.7a.507.507 0 0 1 0 1.013h-2.7a.506.506 0 0 1-.506-.506zm-11.644.506h8.944v1.519a.506.506 0 0 0 1.012 0v-4.05a.506.506 0 0 0-1.012 0v1.519H4.575a.507.507 0 0 0 0 1.013zm14.85 7.087h-8.1a.506.506 0 0 0 0 1.012h8.1a.506.506 0 0 0 0-1.012m-10.8-2.025a.506.506 0 0 0-.506.506v1.519H4.575a.507.507 0 0 0 0 1.013h3.544v1.519a.507.507 0 0 0 1.013 0v-4.05a.506.506 0 0 0-.506-.506z"/></svg>