<svg xmlns="http://www.w3.org/2000/svg" fill="currentColor" viewBox="0 0 24 24" width="24" height="24"><path d="M16.725 7.95a.675.675 0 0 1 .675-.675h2.025a.675.675 0 0 1 0 1.35H17.4a.675.675 0 0 1-.675-.675m-12.15.675h8.1v1.35a.675.675 0 0 0 .675.675h1.35a.675.675 0 0 0 .675-.675v-4.05a.675.675 0 0 0-.675-.675h-1.35a.675.675 0 0 0-.675.675v1.35h-8.1a.675.675 0 0 0 0 1.35m14.85 6.75H12a.675.675 0 0 0 0 1.35h7.425a.675.675 0 0 0 0-1.35M9.3 13.35H7.95a.675.675 0 0 0-.675.675v1.35h-2.7a.675.675 0 0 0 0 1.35h2.7v1.35a.675.675 0 0 0 .675.675H9.3a.675.675 0 0 0 .675-.675v-4.05a.675.675 0 0 0-.675-.675"/></svg>