<svg xmlns="http://www.w3.org/2000/svg" fill="currentColor" viewBox="0 0 24 24" width="24" height="24"><path d="M18.075 4.575v14.85H5.925V4.575z" opacity=".2"/><path d="M12.675 11.325v8.1a.675.675 0 0 1-1.35 0v-8.1a.675.675 0 0 1 1.35 0m5.4 6.075a.675.675 0 0 0-.675.675v1.35a.675.675 0 0 0 1.35 0v-1.35a.675.675 0 0 0-.675-.675m2.025-2.7h-1.35V4.575a.675.675 0 0 0-1.35 0V14.7h-1.35a.675.675 0 0 0 0 1.35h4.05a.675.675 0 0 0 0-1.35m-14.175 0a.675.675 0 0 0-.675.675v4.05a.675.675 0 0 0 1.35 0v-4.05a.675.675 0 0 0-.675-.675M7.95 12H6.6V4.575a.675.675 0 0 0-1.35 0V12H3.9a.675.675 0 0 0 0 1.35h4.05a.675.675 0 0 0 0-1.35m6.075-4.05h-1.35V4.575a.675.675 0 0 0-1.35 0V7.95h-1.35a.675.675 0 0 0 0 1.35h4.05a.675.675 0 0 0 0-1.35"/></svg>