<svg xmlns="http://www.w3.org/2000/svg" fill="currentColor" viewBox="0 0 24 24" width="24" height="24"><path d="M12.675 11.325v8.1a.675.675 0 0 1-1.35 0v-8.1a.675.675 0 0 1 1.35 0m5.4 6.075a.675.675 0 0 0-.675.675v1.35a.675.675 0 0 0 1.35 0v-1.35a.675.675 0 0 0-.675-.675m2.025-4.05h-1.35V4.575a.675.675 0 0 0-1.35 0v8.775h-1.35a.675.675 0 0 0-.675.675v1.35a.675.675 0 0 0 .675.675h4.05a.675.675 0 0 0 .675-.675v-1.35a.675.675 0 0 0-.675-.675M5.925 14.7a.675.675 0 0 0-.675.675v4.05a.675.675 0 0 0 1.35 0v-4.05a.675.675 0 0 0-.675-.675m2.025-4.05H6.6V4.575a.675.675 0 0 0-1.35 0v6.075H3.9a.675.675 0 0 0-.675.675v1.35a.675.675 0 0 0 .675.675h4.05a.675.675 0 0 0 .675-.675v-1.35a.675.675 0 0 0-.675-.675m6.075-4.05h-1.35V4.575a.675.675 0 0 0-1.35 0V6.6h-1.35a.675.675 0 0 0-.675.675v1.35a.675.675 0 0 0 .675.675h4.05a.675.675 0 0 0 .675-.675v-1.35a.675.675 0 0 0-.675-.675"/></svg>