<svg xmlns="http://www.w3.org/2000/svg" fill="currentColor" viewBox="0 0 24 24" width="24" height="24"><path d="M19.425 7.95v8.1H4.575v-8.1z" opacity=".2"/><path d="M16.05 7.95a.675.675 0 0 1 .675-.675h2.7a.675.675 0 0 1 0 1.35h-2.7a.675.675 0 0 1-.675-.675m-11.475.675h8.775v1.35a.675.675 0 0 0 1.35 0v-4.05a.675.675 0 0 0-1.35 0v1.35H4.575a.675.675 0 0 0 0 1.35m14.85 6.75h-8.1a.675.675 0 0 0 0 1.35h8.1a.675.675 0 0 0 0-1.35m-10.8-2.025a.675.675 0 0 0-.675.675v1.35H4.575a.675.675 0 0 0 0 1.35H7.95v1.35a.675.675 0 0 0 1.35 0v-4.05a.675.675 0 0 0-.675-.675"/></svg>