<svg viewBox="0 0 24 24" fill="none" xmlns="http://www.w3.org/2000/svg" width="24" height="24">
<path d="M4.75 19.4253V4.57471C4.75005 4.26315 4.87344 3.96396 5.09375 3.74365C5.31406 3.52334 5.61325 3.39995 5.9248 3.3999H14.0254L14.123 3.40967C14.2191 3.42889 14.3086 3.47607 14.3789 3.54639L19.1035 8.271C19.1972 8.36467 19.2499 8.49204 19.25 8.62451V19.4253C19.2499 19.7366 19.1263 20.0351 18.9062 20.2554C18.6859 20.4757 18.3868 20.6 18.0752 20.6001H5.9248C5.61325 20.6 5.31406 20.4757 5.09375 20.2554C4.87373 20.0351 4.7501 19.7366 4.75 19.4253ZM5.75 19.4253C5.7501 19.4714 5.7683 19.5157 5.80078 19.5483C5.83355 19.5811 5.87846 19.6 5.9248 19.6001H18.0752C18.1215 19.6 18.1664 19.5811 18.1992 19.5483C18.2317 19.5157 18.2499 19.4714 18.25 19.4253V8.83154L13.8184 4.3999H5.9248C5.87846 4.39995 5.83355 4.41791 5.80078 4.45068C5.76801 4.48346 5.75005 4.52837 5.75 4.57471V19.4253Z" fill="black"/>
<path d="M13.5249 7.87451V3.8999C13.5249 3.62376 13.7492 3.3999 14.0254 3.3999C14.3015 3.3999 14.5249 3.62376 14.5249 3.8999V7.87451C14.5249 8.01258 14.6368 8.12451 14.7749 8.12451H18.7495C19.0255 8.12451 19.2498 8.34855 19.25 8.62451C19.25 8.90065 19.0257 9.12451 18.7495 9.12451H14.7749C14.0845 9.12451 13.5249 8.56487 13.5249 7.87451Z" fill="black"/>
<path d="M14.7002 10.3301C14.9762 10.3303 15.2002 10.5541 15.2002 10.8301C15.2002 11.1061 14.9762 11.3299 14.7002 11.3301H9.2998C9.02366 11.3301 8.7998 11.1062 8.7998 10.8301C8.7998 10.5539 9.02366 10.3301 9.2998 10.3301H14.7002Z" fill="black"/>
<path d="M14.7002 13.2001C14.9762 13.2003 15.2002 13.4241 15.2002 13.7001C15.2002 13.9761 14.9762 14.1999 14.7002 14.2001H9.2998C9.02366 14.2001 8.7998 13.9762 8.7998 13.7001C8.7998 13.4239 9.02366 13.2001 9.2998 13.2001H14.7002Z" fill="black"/>
<path d="M8.8 16.8201C8.8 16.4059 9.13579 16.0701 9.55 16.0701H14.45C14.8642 16.0701 15.2 16.4059 15.2 16.8201V17.3201C15.2 17.7343 14.8642 18.0701 14.45 18.0701H9.55C9.13579 18.0701 8.8 17.7343 8.8 17.3201V16.8201Z" fill="black"/>
</svg>