<svg viewBox="0 0 24 24" fill="none" xmlns="http://www.w3.org/2000/svg" width="24" height="24">
<path d="M14.0254 3.39941C14.0683 3.39941 14.1096 3.4068 14.1494 3.41699C14.1683 3.42186 14.1869 3.42755 14.2051 3.43457C14.2153 3.43854 14.2254 3.44265 14.2354 3.44727C14.2545 3.45616 14.2731 3.46626 14.291 3.47754C14.2972 3.48145 14.3036 3.48508 14.3096 3.48926C14.3282 3.50213 14.3455 3.5168 14.3623 3.53223C14.3691 3.53847 14.3764 3.54418 14.3828 3.55078L19.1035 8.27148C19.1366 8.3046 19.1632 8.34255 19.1855 8.38281C19.2103 8.42723 19.2299 8.47496 19.2402 8.52637C19.2467 8.55846 19.25 8.59182 19.25 8.625V19.4258C19.2498 19.7369 19.1262 20.0357 18.9062 20.2559C18.686 20.476 18.3866 20.6005 18.0752 20.6006H5.9248C5.61336 20.6005 5.31404 20.476 5.09375 20.2559C4.87385 20.0357 4.75023 19.7369 4.75 19.4258V4.5752C4.75005 4.26375 4.87359 3.96443 5.09375 3.74414C5.31406 3.52383 5.61325 3.39947 5.9248 3.39941H14.0254ZM13.751 11.1729C13.2978 10.9897 12.7991 10.9507 12.3232 11.0625C11.8474 11.1743 11.4179 11.4311 11.0938 11.7969C10.7696 12.1628 10.5664 12.6206 10.5127 13.1064C10.4591 13.5922 10.5576 14.083 10.7939 14.5107L8.39062 16.583C8.22411 16.7496 8.13093 16.9754 8.13086 17.2109C8.13086 17.4467 8.22395 17.6732 8.39062 17.8398C8.5573 18.0065 8.78383 18.0996 9.01953 18.0996C9.25504 18.0995 9.48089 18.0063 9.64746 17.8398L11.7197 15.4365C12.1475 15.6729 12.6383 15.7714 13.124 15.7178C13.6099 15.6641 14.0677 15.4609 14.4336 15.1367C14.7994 14.8126 15.0561 14.383 15.168 13.9072C15.2798 13.4314 15.2408 12.9327 15.0576 12.4795L13.4551 13.958L12.4814 13.749L12.2725 12.7754L13.751 11.1729ZM14.5254 8.125H17.543L14.5254 5.10742V8.125Z" fill="black"/>
</svg>