<svg xmlns="http://www.w3.org/2000/svg" width="24" height="24" fill="currentColor" viewBox="0 0 24 24"><path d="M4.913 11.325h14.181a.34.34 0 0 0 .337-.338V8.625a.68.68 0 0 0-.197-.478l-4.725-4.725a.68.68 0 0 0-.479-.197H5.926a1.35 1.35 0 0 0-1.35 1.35v6.413a.34.34 0 0 0 .338.337zm9.113-6.413 3.713 3.713h-3.713zM5.588 13.35h-1.35a.675.675 0 0 0-.675.675v4.725a.675.675 0 0 0 .675.675h1.293c1.66 0 3.056-1.306 3.094-2.964a3.04 3.04 0 0 0-3.038-3.111zm-.041 4.725h-.634V14.7h.675a1.69 1.69 0 0 1 1.688 1.752c-.035.913-.814 1.623-1.728 1.623zm14.4-.361a.697.697 0 0 1-.062.936 2.53 2.53 0 0 1-1.806.775c-1.489 0-2.7-1.363-2.7-3.037s1.212-3.037 2.7-3.037a2.53 2.53 0 0 1 1.806.775.697.697 0 0 1 .062.936.675.675 0 0 1-1.004.032 1.2 1.2 0 0 0-.862-.393c-.744 0-1.35.759-1.35 1.688s.606 1.688 1.35 1.688a1.2 1.2 0 0 0 .863-.393.675.675 0 0 1 1.004.032zm-7.946-4.364c-1.489 0-2.7 1.363-2.7 3.037s1.212 3.038 2.7 3.038 2.7-1.363 2.7-3.037-1.207-3.038-2.7-3.038m0 4.725c-.745 0-1.35-.759-1.35-1.688s.606-1.688 1.35-1.688 1.35.759 1.35 1.688-.602 1.688-1.35 1.688"/></svg>