<svg xmlns="http://www.w3.org/2000/svg" width="24" height="24" fill="currentColor" viewBox="0 0 24 24"><path d="M18.75 8.625h-4.725V3.9z" opacity=".2"/><path d="M16.725 13.35h-1.35a.675.675 0 0 0-.675.675v4.725a.675.675 0 0 0 1.35 0v-.675h.675a2.363 2.363 0 0 0 0-4.725m0 3.375h-.675V14.7h.675a1.013 1.013 0 0 1 0 2.025m-4.05-2.7v4.725a.675.675 0 0 1-1.35 0v-4.725a.675.675 0 0 1 1.35 0M9.3 18.75a.675.675 0 0 1-.675.675h-2.7a.675.675 0 0 1-.591-1.012L7.457 14.7H5.925a.675.675 0 0 1 0-1.35h2.7a.675.675 0 0 1 .591 1.012l-2.127 3.712h1.536a.675.675 0 0 1 .675.675zm9.928-10.603-4.725-4.725a.68.68 0 0 0-.478-.197h-8.1a1.35 1.35 0 0 0-1.35 1.35v6.075a.675.675 0 0 0 1.35 0V4.575h7.425v4.05a.675.675 0 0 0 .675.675h4.05v1.35a.675.675 0 0 0 1.35 0V8.625a.68.68 0 0 0-.197-.478M14.7 7.95V5.529l2.421 2.421z"/></svg>