<svg viewBox="0 0 24 24" fill="none" xmlns="http://www.w3.org/2000/svg" width="24" height="24">
<path d="M4.75 19.4253V4.57471C4.75005 4.26315 4.87344 3.96396 5.09375 3.74365C5.31406 3.52334 5.61325 3.39995 5.9248 3.3999H14.0254L14.123 3.40967C14.2191 3.42889 14.3086 3.47607 14.3789 3.54639L19.1035 8.271C19.1972 8.36467 19.2499 8.49204 19.25 8.62451V19.4253C19.2499 19.7366 19.1263 20.0351 18.9062 20.2554C18.6859 20.4757 18.3868 20.6 18.0752 20.6001H5.9248C5.61325 20.6 5.31406 20.4757 5.09375 20.2554C4.87373 20.0351 4.7501 19.7366 4.75 19.4253ZM5.75 19.4253C5.7501 19.4714 5.7683 19.5157 5.80078 19.5483C5.83355 19.5811 5.87846 19.6 5.9248 19.6001H18.0752C18.1215 19.6 18.1664 19.5811 18.1992 19.5483C18.2317 19.5157 18.2499 19.4714 18.25 19.4253V8.83154L13.8184 4.3999H5.9248C5.87846 4.39995 5.83355 4.41791 5.80078 4.45068C5.76801 4.48346 5.75005 4.52837 5.75 4.57471V19.4253Z" fill="black"/>
<path d="M13.525 3.8999C13.525 3.62376 13.7492 3.3999 14.0254 3.3999C14.3015 3.3999 14.525 3.62376 14.525 3.8999V8.12451H18.7496C19.0256 8.12451 19.2498 8.34855 19.25 8.62451C19.25 8.90065 19.0258 9.12451 18.7496 9.12451H14.025C13.7489 9.12451 13.525 8.90065 13.525 8.62451V3.8999Z" fill="black"/>
<path d="M9.29883 17.5699C9.02286 17.5697 8.79883 17.3459 8.79883 17.0699C8.79883 16.7939 9.02286 16.5701 9.29883 16.5699H14.6992C14.9754 16.5699 15.1992 16.7938 15.1992 17.0699C15.1992 17.346 14.9754 17.5699 14.6992 17.5699H9.29883Z" fill="black"/>
<path d="M9.29883 14.6999C9.02286 14.6997 8.79883 14.4759 8.79883 14.1999C8.79883 13.9239 9.02287 13.7001 9.29883 13.6999L14.6992 13.6999C14.9754 13.6999 15.1992 13.9238 15.1992 14.1999C15.1992 14.476 14.9754 14.6999 14.6992 14.6999L9.29883 14.6999Z" fill="black"/>
<path d="M15.199 11.0799C15.199 11.4941 14.8632 11.8299 14.449 11.8299H9.54902C9.13481 11.8299 8.79902 11.4941 8.79902 11.0799V10.5799C8.79902 10.1657 9.13481 9.8299 9.54902 9.8299L14.449 9.8299C14.8632 9.8299 15.199 10.1657 15.199 10.5799V11.0799Z" fill="black"/>
</svg>