<svg xmlns="http://www.w3.org/2000/svg" width="24" height="24" fill="currentColor" viewBox="0 0 24 24"><path d="M4.913 11.325h14.175a.34.34 0 0 0 .337-.338V8.625a.68.68 0 0 0-.197-.478l-4.725-4.725a.68.68 0 0 0-.478-.197h-8.1a1.35 1.35 0 0 0-1.35 1.35v6.413a.34.34 0 0 0 .338.337m9.113-6.412 3.713 3.713h-3.713zm6.075 9.157a.69.69 0 0 1-.696.63h-2.004v1.35h1.327a.69.69 0 0 1 .696.63.675.675 0 0 1-.675.72h-1.348v1.327a.69.69 0 0 1-.63.696.675.675 0 0 1-.72-.675v-4.723a.675.675 0 0 1 .675-.675h2.7a.675.675 0 0 1 .675.72m-13.5-.72h-1.35a.675.675 0 0 0-.675.675v4.702a.69.69 0 0 0 .63.698.675.675 0 0 0 .72-.675v-.675h.624c1.286 0 2.374-1.006 2.412-2.291A2.363 2.363 0 0 0 6.6 13.35zm-.03 3.375h-.645V14.7h.675a1.013 1.013 0 0 1 1.013 1.11 1.034 1.034 0 0 1-1.042.915zm5.43-3.375h-1.35a.675.675 0 0 0-.675.675v4.725a.675.675 0 0 0 .675.675h1.293c1.659 0 3.055-1.306 3.094-2.964a3.04 3.04 0 0 0-3.037-3.111m-.041 4.725h-.634V14.7h.675a1.69 1.69 0 0 1 1.688 1.752c-.035.913-.815 1.623-1.729 1.623"/></svg>