<svg xmlns="http://www.w3.org/2000/svg" width="24" height="24" fill="currentColor" viewBox="0 0 24 24"><path d="M16.408 13.667a.506.506 0 0 1 0 .716l-2.025 2.025a.506.506 0 0 1-.716-.716l1.666-1.667-1.666-1.667a.506.506 0 1 1 .716-.716zm-6.075-2.025a.506.506 0 0 0-.716 0l-2.025 2.025a.506.506 0 0 0 0 .716l2.025 2.025a.506.506 0 1 0 .716-.716l-1.666-1.667 1.666-1.667a.506.506 0 0 0 0-.715zm8.924-3.017v10.8a1.18 1.18 0 0 1-1.181 1.181H5.926a1.18 1.18 0 0 1-1.181-1.181V4.575a1.18 1.18 0 0 1 1.181-1.181h8.1a.5.5 0 0 1 .359.148l4.725 4.725a.5.5 0 0 1 .148.358zm-4.725-.506h2.997l-2.997-2.997zm3.713 11.306V9.131h-4.219a.506.506 0 0 1-.506-.506V4.406H5.926a.17.17 0 0 0-.169.169v14.85a.17.17 0 0 0 .169.169h12.15a.17.17 0 0 0 .169-.169"/></svg>