<svg xmlns="http://www.w3.org/2000/svg" width="24" height="24" fill="currentColor" viewBox="0 0 24 24"><path d="M18.75 8.625h-4.725V3.9z" opacity=".2"/><path d="M5.588 13.35h-1.35a.675.675 0 0 0-.675.675v4.725a.675.675 0 0 0 .675.675h1.35a3.038 3.038 0 0 0 0-6.075m0 4.725h-.675V14.7h.675a1.688 1.688 0 0 1 0 3.375m14.304-.414a.675.675 0 0 1 .021.954 2.54 2.54 0 0 1-1.838.81c-1.489 0-2.7-1.363-2.7-3.037s1.211-3.037 2.7-3.037a2.54 2.54 0 0 1 1.838.81.675.675 0 0 1-.975.933 1.2 1.2 0 0 0-.862-.393c-.744 0-1.35.759-1.35 1.688s.606 1.688 1.35 1.688a1.2 1.2 0 0 0 .862-.393.675.675 0 0 1 .954-.021zM12 13.35c-1.488 0-2.7 1.363-2.7 3.037s1.212 3.038 2.7 3.038 2.7-1.363 2.7-3.037-1.212-3.038-2.7-3.038m0 4.725c-.744 0-1.35-.759-1.35-1.688s.606-1.688 1.35-1.688 1.35.759 1.35 1.688-.606 1.688-1.35 1.688m-6.75-6.75a.675.675 0 0 0 .675-.675V4.575h7.425v4.05a.675.675 0 0 0 .675.675h4.05v1.35a.675.675 0 0 0 1.35 0V8.625a.68.68 0 0 0-.197-.478l-4.725-4.725a.68.68 0 0 0-.478-.197h-8.1a1.35 1.35 0 0 0-1.35 1.35v6.075a.675.675 0 0 0 .675.675m9.45-5.796 2.421 2.421H14.7z"/></svg>