<svg viewBox="0 0 24 24" fill="none" xmlns="http://www.w3.org/2000/svg" width="24" height="24">
<path d="M18.075 20.0999H5.925C5.74598 20.0999 5.57429 20.0288 5.4477 19.9022C5.32112 19.7756 5.25 19.6039 5.25 19.4249V4.5749C5.25 4.39588 5.32112 4.22419 5.4477 4.09761C5.57429 3.97102 5.74598 3.8999 5.925 3.8999H13.7143C13.9133 3.8999 14.104 3.97892 14.2447 4.11957L18.5303 8.40523C18.671 8.54588 18.75 8.73665 18.75 8.93556V19.4249C18.75 19.6039 18.6789 19.7756 18.5523 19.9022C18.4257 20.0288 18.254 20.0999 18.075 20.0999Z" fill="black" fill-opacity="0.2"/>
<path fill-rule="evenodd" clip-rule="evenodd" d="M13.9045 3.41452C14.1028 3.44509 14.2912 3.52295 14.4531 3.64139C14.3655 3.49665 14.2065 3.3999 14.025 3.3999C13.9835 3.3999 13.9431 3.40497 13.9045 3.41452ZM19.2352 8.74418C19.2446 8.70584 19.2496 8.66576 19.2496 8.62451C19.2495 8.44328 19.1529 8.28444 19.0084 8.19674C19.1267 8.35835 19.2045 8.54629 19.2352 8.74418Z" fill="black"/>
<path fill-rule="evenodd" clip-rule="evenodd" d="M14.4531 3.64139C14.2912 3.52295 14.1028 3.44509 13.9045 3.41452C13.8418 3.40484 13.7781 3.3999 13.7139 3.3999H5.9248C5.61325 3.39995 5.31406 3.52334 5.09375 3.74365C4.87344 3.96396 4.75005 4.26315 4.75 4.57471V19.4253C4.7501 19.7366 4.87373 20.0351 5.09375 20.2554C5.31406 20.4757 5.61325 20.6 5.9248 20.6001H18.0752C18.3868 20.6 18.6859 20.4757 18.9062 20.2554C19.1263 20.0351 19.2499 19.7366 19.25 19.4253V8.93604C19.25 8.87142 19.245 8.80729 19.2352 8.74418C19.2045 8.54629 19.1267 8.35835 19.0084 8.19674C18.9709 8.14542 18.9293 8.09676 18.8838 8.05127L14.5986 3.76611C14.5531 3.7206 14.5044 3.67896 14.4531 3.64139ZM14.525 5.10654L17.543 8.12451H14.775C14.6369 8.12451 14.525 8.01258 14.525 7.87451V5.10654ZM5.9248 4.3999H13.525V7.87451C13.525 8.56487 14.0846 9.12451 14.775 9.12451H18.25V19.4253C18.2499 19.4714 18.2317 19.5157 18.1992 19.5483C18.1664 19.5811 18.1215 19.6 18.0752 19.6001H5.9248C5.87846 19.6 5.83355 19.5811 5.80078 19.5483C5.7683 19.5157 5.7501 19.4714 5.75 19.4253V4.57471C5.75005 4.52837 5.76801 4.48346 5.80078 4.45068C5.83355 4.41791 5.87846 4.39995 5.9248 4.3999Z" fill="black"/>
<path d="M14.7004 15C14.9764 15.0002 15.2004 15.224 15.2004 15.5C15.2004 15.776 14.9764 15.9998 14.7004 16H9.30005C9.02391 16 8.80005 15.7761 8.80005 15.5C8.80005 15.2239 9.02391 15 9.30005 15H14.7004Z" fill="black"/>
<path d="M14.7004 17.001C14.9764 17.0012 15.2004 17.225 15.2004 17.501C15.2004 17.777 14.9764 18.0008 14.7004 18.001H9.30005C9.02391 18.001 8.80005 17.7771 8.80005 17.501C8.80005 17.2248 9.02391 17.001 9.30005 17.001H14.7004Z" fill="black"/>
<path fill-rule="evenodd" clip-rule="evenodd" d="M12.8218 9.21133C12.7531 9.18717 12.6765 9.19745 12.617 9.23945C12.5575 9.28155 12.5222 9.35024 12.5221 9.42314V11.1036C12.5222 11.1838 12.5652 11.2577 12.6346 11.2979L14.09 12.1381C14.1533 12.1746 14.2312 12.1783 14.2975 12.1478C14.3636 12.1171 14.4107 12.056 14.424 11.9843C14.5308 11.4071 14.4285 10.8103 14.1349 10.3021C13.8411 9.79387 13.3752 9.407 12.8218 9.21133Z" fill="black"/>
<path fill-rule="evenodd" clip-rule="evenodd" d="M12 9.06982C11.5682 9.06993 11.1437 9.1838 10.7695 9.39941C10.3955 9.61501 10.0844 9.92504 9.86778 10.2985C9.65121 10.6721 9.53597 11.0964 9.53468 11.5281C9.53347 11.9599 9.64639 12.3847 9.86075 12.7595C10.0752 13.1341 10.3845 13.4461 10.7572 13.6639C11.1301 13.8815 11.5542 13.9979 11.9859 14.0005C12.4179 14.003 12.8435 13.8922 13.2191 13.6788C13.5945 13.4654 13.9073 13.1564 14.1261 12.7841C14.1561 12.7327 14.1648 12.6712 14.1498 12.6136C14.1346 12.5559 14.0968 12.5056 14.0452 12.4756L12.225 11.4147V9.29482C12.2249 9.23527 12.2012 9.17786 12.1591 9.13574C12.1169 9.09373 12.0596 9.06982 12 9.06982Z" fill="black"/>
</svg>