<svg viewBox="0 0 24 24" fill="none" xmlns="http://www.w3.org/2000/svg" width="24" height="24">
<path fill-rule="evenodd" clip-rule="evenodd" d="M14.123 3.40967L14.0254 3.3999C14.0588 3.3999 14.0915 3.40341 14.123 3.40967Z" fill="black"/>
<path d="M12.0022 10.8598C13.6203 10.8598 14.9327 12.1714 14.9329 13.7895C14.9329 15.4077 13.6204 16.7202 12.0022 16.7202C10.3842 16.72 9.07255 15.4076 9.07255 13.7895C9.07272 12.1715 10.3843 10.86 12.0022 10.8598ZM13.2112 13.2875L13.8645 13.2895C13.8205 13.1251 13.7564 12.9696 13.6731 12.8256L13.2112 13.2875ZM10.0725 13.7895C10.0725 14.8553 10.9365 15.72 12.0022 15.7202C12.8951 15.7202 13.6441 15.1128 13.8645 14.2895H13.2132C13.0167 14.765 12.5487 15.1 12.0022 15.1C11.2787 15.1 10.6927 14.513 10.6927 13.7895C10.6928 13.0661 11.2788 12.4799 12.0022 12.4799C12.1804 12.4799 12.3503 12.5151 12.5052 12.5795L12.9651 12.1196C12.6815 11.9558 12.3533 11.8598 12.0022 11.8598C10.9366 11.86 10.0727 12.7238 10.0725 13.7895ZM11.6927 13.7895C11.6927 13.9607 11.831 14.1 12.0022 14.1C12.1734 14.1 12.3118 13.9607 12.3118 13.7895C12.3117 13.6184 12.1734 13.4799 12.0022 13.4799C11.8311 13.4799 11.6928 13.6184 11.6927 13.7895Z" fill="black"/>
<path fill-rule="evenodd" clip-rule="evenodd" d="M14.525 8.12451V5.10654L17.543 8.12451H14.525ZM14.3357 3.50792C14.2748 3.45957 14.2023 3.42537 14.123 3.40967L14.0254 3.3999H5.9248C5.61325 3.39995 5.31406 3.52334 5.09375 3.74365C4.87344 3.96396 4.75005 4.26315 4.75 4.57471V19.4253C4.7501 19.7366 4.87373 20.0351 5.09375 20.2554C5.31406 20.4757 5.61325 20.6 5.9248 20.6001H18.0752C18.3868 20.6 18.6859 20.4757 18.9062 20.2554C19.1263 20.0351 19.2499 19.7366 19.25 19.4253V8.62451C19.2499 8.54736 19.232 8.47193 19.1986 8.40388C19.1746 8.3551 19.1426 8.31011 19.1035 8.271L14.3789 3.54639C14.3652 3.53267 14.3508 3.51984 14.3357 3.50792ZM14.025 9.12451C13.7489 9.12451 13.525 8.90065 13.525 8.62451V4.3999H5.9248C5.87846 4.39995 5.83355 4.41791 5.80078 4.45068C5.76801 4.48346 5.75005 4.52837 5.75 4.57471V19.4253C5.7501 19.4714 5.7683 19.5157 5.80078 19.5483C5.83355 19.5811 5.87846 19.6 5.9248 19.6001H18.0752C18.1215 19.6 18.1664 19.5811 18.1992 19.5483C18.2317 19.5157 18.2499 19.4714 18.25 19.4253V9.12451H14.025ZM12.0022 10.8598C13.6203 10.8598 14.9327 12.1714 14.9329 13.7895C14.9329 15.4077 13.6204 16.7202 12.0022 16.7202C10.3842 16.72 9.07255 15.4076 9.07255 13.7895C9.07272 12.1715 10.3843 10.86 12.0022 10.8598ZM10.0725 13.7895C10.0725 14.8553 10.9365 15.72 12.0022 15.7202C12.8951 15.7202 13.6441 15.1128 13.8645 14.2895H13.2132C13.0167 14.765 12.5487 15.1 12.0022 15.1C11.2787 15.1 10.6927 14.513 10.6927 13.7895C10.6928 13.0661 11.2788 12.4799 12.0022 12.4799C12.1804 12.4799 12.3503 12.5151 12.5052 12.5795L12.9651 12.1196C12.6815 11.9558 12.3533 11.8598 12.0022 11.8598C10.9366 11.86 10.0727 12.7238 10.0725 13.7895ZM13.8645 13.2895L13.2112 13.2875L13.6731 12.8256C13.7564 12.9696 13.8205 13.1251 13.8645 13.2895ZM11.6927 13.7895C11.6927 13.9607 11.831 14.1 12.0022 14.1C12.1734 14.1 12.3118 13.9607 12.3118 13.7895C12.3117 13.6184 12.1734 13.4799 12.0022 13.4799C11.8311 13.4799 11.6928 13.6184 11.6927 13.7895Z" fill="black"/>
</svg>