<svg xmlns="http://www.w3.org/2000/svg" width="24" height="24" fill="currentColor" viewBox="0 0 24 24"><path d="M10.397 13.744a.506.506 0 0 0-.844 0l-1.902 2.854-.963-1.497a.506.506 0 0 0-.852 0l-3.038 4.725a.506.506 0 0 0 .426.78h10.8a.506.506 0 0 0 .422-.787zm-6.244 5.85 2.109-3.282.955 1.485a.506.506 0 0 0 .844.007l1.91-2.869 3.108 4.659zM19.108 8.268l-4.725-4.725a.5.5 0 0 0-.358-.148h-8.1a1.18 1.18 0 0 0-1.181 1.181v7.425a.507.507 0 0 0 1.013 0V4.576a.17.17 0 0 1 .169-.169h7.594v4.219a.506.506 0 0 0 .506.506h4.219v10.294a.17.17 0 0 1-.169.169h-.675a.506.506 0 0 0 0 1.012h.675a1.18 1.18 0 0 0 1.181-1.181v-10.8a.5.5 0 0 0-.148-.358zm-4.577-3.146 2.997 2.997h-2.997z"/></svg>