<svg xmlns="http://www.w3.org/2000/svg" width="24" height="24" fill="currentColor" viewBox="0 0 24 24"><path d="M4.913 11.325h14.175a.34.34 0 0 0 .337-.338V8.625a.68.68 0 0 0-.197-.478l-4.725-4.725a.68.68 0 0 0-.478-.197h-8.1a1.35 1.35 0 0 0-1.35 1.35v6.413a.34.34 0 0 0 .338.337m9.113-6.412 3.713 3.713h-3.713zm.338 13.882a.69.69 0 0 1-.696.63h-2.341a.675.675 0 0 1-.675-.675v-4.702a.69.69 0 0 1 .63-.696.675.675 0 0 1 .72.675v4.05h1.688a.675.675 0 0 1 .675.718zm-5.188-4.377-1.407 1.97 1.407 1.97a.675.675 0 0 1-1.097.785l-1.14-1.594-1.138 1.594a.675.675 0 1 1-1.097-.785l1.406-1.97-1.407-1.97a.675.675 0 0 1 .194-.967.69.69 0 0 1 .918.201l1.125 1.575 1.138-1.594a.675.675 0 0 1 1.097.785zm10.233 3.346a1.76 1.76 0 0 1-.775 1.285c-.438.292-.985.376-1.476.376a5 5 0 0 1-1.282-.169.675.675 0 0 1 .364-1.3c.37.102 1.261.229 1.649-.03.075-.051.155-.128.181-.332.029-.225-.061-.346-1.078-.64-.789-.228-2.109-.61-1.941-1.951a1.74 1.74 0 0 1 .755-1.261c.999-.675 2.592-.279 2.77-.233a.675.675 0 0 1-.343 1.306c-.378-.099-1.284-.216-1.672.047a.38.38 0 0 0-.169.31c-.009.076-.011.091.095.16.195.126.544.226.882.324.833.238 2.227.645 2.04 2.106z"/></svg>