<svg viewBox="0 0 24 24" fill="none" xmlns="http://www.w3.org/2000/svg" width="24" height="24">
<path fill-rule="evenodd" clip-rule="evenodd" d="M13.9043 3.41504C13.943 3.40545 13.9838 3.39941 14.0254 3.39941C14.2065 3.39959 14.3636 3.49735 14.4512 3.6416C14.5029 3.67938 14.5528 3.72075 14.5986 3.7666L18.8838 8.05176C18.9292 8.09724 18.9693 8.14694 19.0068 8.19824C19.1515 8.28588 19.2499 8.44358 19.25 8.625C19.25 8.66587 19.2427 8.70515 19.2334 8.74316C19.2433 8.80669 19.25 8.87148 19.25 8.93652V19.4258C19.2498 19.7369 19.1262 20.0357 18.9062 20.2559C18.686 20.476 18.3866 20.6005 18.0752 20.6006H5.9248C5.61336 20.6005 5.31404 20.476 5.09375 20.2559C4.87385 20.0357 4.75023 19.7369 4.75 19.4258V4.5752C4.75005 4.26375 4.87359 3.96443 5.09375 3.74414C5.31406 3.52383 5.61325 3.39947 5.9248 3.39941H13.7139C13.778 3.39941 13.8416 3.40538 13.9043 3.41504ZM9.2998 17.0127C8.92722 17.0128 8.6252 17.3149 8.625 17.6875C8.625 18.0602 8.9271 18.3622 9.2998 18.3623H14.7002C15.0728 18.3621 15.375 18.0602 15.375 17.6875C15.3748 17.315 15.0727 17.0129 14.7002 17.0127H9.2998ZM9.2998 15.0088C8.9271 15.0089 8.625 15.3109 8.625 15.6836C8.62526 16.0561 8.92727 16.3583 9.2998 16.3584H14.7002C15.0726 16.3582 15.3747 16.056 15.375 15.6836C15.375 15.3109 15.0728 15.009 14.7002 15.0088H9.2998ZM12 9.07031C11.5682 9.07042 11.1437 9.1838 10.7695 9.39941C10.3954 9.61501 10.0848 9.92534 9.86816 10.2988C9.65162 10.6724 9.53644 11.0966 9.53516 11.5283C9.53398 11.96 9.64603 12.3851 9.86035 12.7598C10.0747 13.1343 10.3842 13.4464 10.7568 13.6641C11.1297 13.8817 11.5546 13.9984 11.9863 14.001C12.418 14.0034 12.8434 13.892 13.2188 13.6787C13.5942 13.4653 13.9072 13.1565 14.126 12.7842C14.156 12.7328 14.1644 12.6709 14.1494 12.6133C14.1341 12.5557 14.0964 12.5056 14.0449 12.4756L12.2246 11.415V9.29492C12.2245 9.23539 12.2013 9.17785 12.1592 9.13574C12.117 9.09373 12.0595 9.0703 12 9.07031ZM12.8223 9.21094C12.7536 9.18681 12.6767 9.19738 12.6172 9.23926C12.5577 9.2813 12.5227 9.35006 12.5225 9.42285V11.1035C12.5225 11.1837 12.5654 11.2577 12.6348 11.2979L14.0898 12.1377C14.1531 12.1742 14.2315 12.178 14.2979 12.1475C14.3637 12.1168 14.4105 12.0559 14.4238 11.9844C14.5306 11.4072 14.4284 10.81 14.1348 10.3018C13.8411 9.7938 13.3754 9.40661 12.8223 9.21094ZM14.5254 7.875C14.5257 8.01285 14.6375 8.125 14.7754 8.125H17.543L14.5254 5.10742V7.875Z" fill="black"/>
</svg>