<svg viewBox="0 0 24 24" fill="none" xmlns="http://www.w3.org/2000/svg" width="24" height="24">
<path d="M18.075 20.0999H5.925C5.74598 20.0999 5.57429 20.0288 5.4477 19.9022C5.32112 19.7756 5.25 19.6039 5.25 19.4249V4.5749C5.25 4.39588 5.32112 4.22419 5.4477 4.09761C5.57429 3.97102 5.74598 3.8999 5.925 3.8999H13.7143C13.9133 3.8999 14.104 3.97892 14.2447 4.11957L18.5303 8.40523C18.671 8.54588 18.75 8.73665 18.75 8.93556V19.4249C18.75 19.6039 18.6789 19.7756 18.5523 19.9022C18.4257 20.0288 18.254 20.0999 18.075 20.0999Z" fill="black" fill-opacity="0.2"/>
<path d="M9.9604 14.3002V13.3403C9.9604 13.0641 10.1843 12.8403 10.4604 12.8403C10.7365 12.8403 10.9604 13.0641 10.9604 13.3403V14.3002C10.9604 14.5764 10.7365 14.8002 10.4604 14.8002C10.1843 14.8002 9.9604 14.5764 9.9604 14.3002Z" fill="black"/>
<path d="M11.2407 14.3007V12.7001C11.2407 12.424 11.4645 12.2001 11.7407 12.2001C12.0168 12.2001 12.2407 12.424 12.2407 12.7001V14.3007C12.2404 14.5767 12.0166 14.8007 11.7407 14.8007C11.4647 14.8007 11.2409 14.5767 11.2407 14.3007Z" fill="black"/>
<path d="M12.5209 14.3002V12.06C12.5209 11.7839 12.7448 11.56 13.0209 11.56C13.2971 11.56 13.5209 11.7839 13.5209 12.06V14.3002C13.5209 14.5764 13.297 14.8002 13.0209 14.8002C12.7448 14.8002 12.521 14.5764 12.5209 14.3002Z" fill="black"/>
<path fill-rule="evenodd" clip-rule="evenodd" d="M12.2407 9.9597V9.5C12.2407 9.22386 12.0168 9 11.7407 9C11.4645 9 11.2407 9.22386 11.2407 9.5V9.9597H8.22119C7.76831 9.9597 7.40088 10.3271 7.40088 10.78V15.5798C7.40088 16.0327 7.76831 16.4001 8.22119 16.4001H9.42002L8.78952 17.1884C8.61735 17.4039 8.65233 17.718 8.86765 17.8905C9.08328 18.063 9.39827 18.028 9.57077 17.8124L10.7011 16.4001H12.7802L13.9106 17.8124C14.0831 18.028 14.3981 18.063 14.6137 17.8905C14.8289 17.7181 14.8639 17.4039 14.6918 17.1884L14.0613 16.4001H15.2612C15.7141 16.4001 16.0815 16.0327 16.0815 15.5798V10.78C16.0815 10.3271 15.7141 9.9597 15.2612 9.9597H12.2407ZM11.7407 10.96L11.7243 10.9597H8.40088V15.4001H15.0815V10.9597H11.757L11.7407 10.96ZM9.9604 13.3403V14.3002C9.9604 14.5764 10.1843 14.8002 10.4604 14.8002C10.7365 14.8002 10.9604 14.5764 10.9604 14.3002V13.3403C10.9604 13.0641 10.7365 12.8403 10.4604 12.8403C10.1843 12.8403 9.9604 13.0641 9.9604 13.3403ZM11.2407 12.7001V14.3007C11.2409 14.5767 11.4647 14.8007 11.7407 14.8007C12.0166 14.8007 12.2404 14.5767 12.2407 14.3007V12.7001C12.2407 12.424 12.0168 12.2001 11.7407 12.2001C11.4645 12.2001 11.2407 12.424 11.2407 12.7001ZM12.5209 12.06V14.3002C12.521 14.5764 12.7448 14.8002 13.0209 14.8002C13.297 14.8002 13.5209 14.5764 13.5209 14.3002V12.06C13.5209 11.7839 13.2971 11.56 13.0209 11.56C12.7448 11.56 12.5209 11.7839 12.5209 12.06Z" fill="black"/>
<path fill-rule="evenodd" clip-rule="evenodd" d="M14.123 3.40967L14.0254 3.3999C14.0588 3.3999 14.0915 3.40341 14.123 3.40967Z" fill="black"/>
<path fill-rule="evenodd" clip-rule="evenodd" d="M14.525 8.12451V5.10654L17.543 8.12451H14.525ZM14.3357 3.50792C14.2748 3.45957 14.2023 3.42537 14.123 3.40967L14.0254 3.3999H5.9248C5.61325 3.39995 5.31406 3.52334 5.09375 3.74365C4.87344 3.96396 4.75005 4.26315 4.75 4.57471V19.4253C4.7501 19.7366 4.87373 20.0351 5.09375 20.2554C5.31406 20.4757 5.61325 20.6 5.9248 20.6001H18.0752C18.3868 20.6 18.6859 20.4757 18.9062 20.2554C19.1263 20.0351 19.2499 19.7366 19.25 19.4253V8.62451C19.2499 8.54736 19.232 8.47193 19.1986 8.40388C19.1746 8.3551 19.1426 8.31011 19.1035 8.271L14.3789 3.54639C14.3652 3.53267 14.3508 3.51984 14.3357 3.50792ZM14.025 9.12451C13.7489 9.12451 13.525 8.90065 13.525 8.62451V4.3999H5.9248C5.87846 4.39995 5.83355 4.41791 5.80078 4.45068C5.76801 4.48346 5.75005 4.52837 5.75 4.57471V19.4253C5.7501 19.4714 5.7683 19.5157 5.80078 19.5483C5.83355 19.5811 5.87846 19.6 5.9248 19.6001H18.0752C18.1215 19.6 18.1664 19.5811 18.1992 19.5483C18.2317 19.5157 18.2499 19.4714 18.25 19.4253V9.12451H14.025Z" fill="black"/>
</svg>