<svg viewBox="0 0 24 24" fill="none" xmlns="http://www.w3.org/2000/svg" width="24" height="24">
<path d="M4.41187 11.0371V4.96191C4.41192 4.65035 4.53531 4.35117 4.75562 4.13086C4.97592 3.91055 5.27511 3.78716 5.58667 3.78711H13.6873L13.7849 3.79688C13.881 3.81609 13.9705 3.86328 14.0408 3.93359L18.7654 8.6582C18.8591 8.75188 18.9118 8.87925 18.9119 9.01172V11.0371C18.9119 11.3133 18.688 11.5371 18.4119 11.5371C18.1357 11.5371 17.9119 11.3133 17.9119 11.0371V9.21875L13.4802 4.78711H5.58667C5.54033 4.78716 5.49542 4.80512 5.46265 4.83789C5.42987 4.87066 5.41192 4.91557 5.41187 4.96191V11.0371C5.41187 11.3133 5.18801 11.5371 4.91187 11.5371C4.63572 11.5371 4.41187 11.3133 4.41187 11.0371Z" fill="black"/>
<path d="M13.1868 4.28711C13.1868 4.01097 13.4111 3.78711 13.6873 3.78711C13.9634 3.78711 14.1868 4.01097 14.1868 4.28711V8.51172H18.4114C18.6874 8.51172 18.9117 8.73576 18.9119 9.01172C18.9119 9.28786 18.6875 9.51172 18.4114 9.51172H13.6868C13.4106 9.51172 13.1868 9.28786 13.1868 9.01172V4.28711Z" fill="black"/>
<path d="M15.2459 19.7129C15.0699 19.7129 14.9339 19.6676 14.8379 19.5769C14.7473 19.4809 14.7019 19.3449 14.7019 19.1689V14.6169C14.7019 14.4409 14.7473 14.3076 14.8379 14.2169C14.9339 14.1209 15.0699 14.0729 15.2459 14.0729H16.7979C17.7419 14.0729 18.4699 14.3156 18.9819 14.8009C19.4993 15.2862 19.7579 15.9822 19.7579 16.8889C19.7579 17.3422 19.6913 17.7449 19.5579 18.0969C19.4299 18.4436 19.2379 18.7369 18.9819 18.9769C18.7313 19.2169 18.4219 19.4009 18.0539 19.5289C17.6913 19.6516 17.2726 19.7129 16.7979 19.7129H15.2459ZM15.7259 18.8649H16.7339C17.0646 18.8649 17.3499 18.8249 17.5899 18.7449C17.8353 18.6596 18.0379 18.5369 18.1979 18.3769C18.3633 18.2116 18.4859 18.0062 18.5659 17.7609C18.6459 17.5102 18.6859 17.2196 18.6859 16.8889C18.6859 16.2276 18.5233 15.7342 18.1979 15.4089C17.8726 15.0836 17.3846 14.9209 16.7339 14.9209H15.7259V18.8649Z" fill="black"/>
<path d="M11.5991 19.7929C11.3644 19.7929 11.1297 19.7742 10.8951 19.7369C10.6604 19.7049 10.4391 19.6542 10.2311 19.5849C10.0231 19.5102 9.8364 19.4196 9.67106 19.3129C9.57506 19.2489 9.5084 19.1716 9.47106 19.0809C9.43373 18.9902 9.4204 18.9022 9.43106 18.8169C9.44706 18.7262 9.48173 18.6489 9.53506 18.5849C9.59373 18.5156 9.66573 18.4729 9.75106 18.4569C9.8364 18.4409 9.92973 18.4649 10.0311 18.5289C10.2657 18.6676 10.5137 18.7689 10.7751 18.8329C11.0364 18.8969 11.3111 18.9289 11.5991 18.9289C12.0204 18.9289 12.3271 18.8596 12.5191 18.7209C12.7111 18.5769 12.8071 18.3929 12.8071 18.1689C12.8071 17.9822 12.7377 17.8356 12.5991 17.7289C12.4657 17.6222 12.2337 17.5342 11.9031 17.4649L11.0231 17.2809C10.5164 17.1742 10.1377 16.9956 9.88706 16.7449C9.64173 16.4889 9.51906 16.1529 9.51906 15.7369C9.51906 15.4756 9.5724 15.2382 9.67906 15.0249C9.78573 14.8116 9.93506 14.6276 10.1271 14.4729C10.3244 14.3182 10.5564 14.2009 10.8231 14.1209C11.0951 14.0356 11.3937 13.9929 11.7191 13.9929C12.0391 13.9929 12.3431 14.0329 12.6311 14.1129C12.9191 14.1929 13.1777 14.3102 13.4071 14.4649C13.4924 14.5236 13.5484 14.5956 13.5751 14.6809C13.6071 14.7662 13.6151 14.8516 13.5991 14.9369C13.5831 15.0169 13.5457 15.0862 13.4871 15.1449C13.4284 15.2036 13.3537 15.2382 13.2631 15.2489C13.1777 15.2596 13.0791 15.2329 12.9671 15.1689C12.7697 15.0569 12.5697 14.9769 12.3671 14.9289C12.1644 14.8809 11.9457 14.8569 11.7111 14.8569C11.4657 14.8569 11.2551 14.8916 11.0791 14.9609C10.9031 15.0302 10.7671 15.1289 10.6711 15.2569C10.5804 15.3796 10.5351 15.5262 10.5351 15.6969C10.5351 15.8889 10.5991 16.0436 10.7271 16.1609C10.8551 16.2729 11.0737 16.3609 11.3831 16.4249L12.2551 16.6089C12.7831 16.7209 13.1751 16.8969 13.4311 17.1369C13.6924 17.3769 13.8231 17.6969 13.8231 18.0969C13.8231 18.3529 13.7697 18.5849 13.6631 18.7929C13.5617 19.0009 13.4124 19.1796 13.2151 19.3289C13.0231 19.4782 12.7911 19.5929 12.5191 19.6729C12.2471 19.7529 11.9404 19.7929 11.5991 19.7929Z" fill="black"/>
<path d="M4.94831 19.7769C4.78298 19.7769 4.65498 19.7316 4.56431 19.6409C4.47898 19.5449 4.43631 19.4142 4.43631 19.2489V14.5929C4.43631 14.4222 4.48165 14.2942 4.57231 14.2089C4.66298 14.1182 4.79098 14.0729 4.95631 14.0729H6.88431C7.50298 14.0729 7.98031 14.2276 8.31631 14.5369C8.65231 14.8462 8.82031 15.2782 8.82031 15.8329C8.82031 16.3876 8.65231 16.8222 8.31631 17.1369C7.98031 17.4462 7.50298 17.6009 6.88431 17.6009H5.46031V19.2489C5.46031 19.4142 5.41765 19.5449 5.33231 19.6409C5.24698 19.7316 5.11898 19.7769 4.94831 19.7769ZM5.46031 16.7929H6.72431C7.08698 16.7929 7.36165 16.7129 7.54831 16.5529C7.73498 16.3876 7.82831 16.1476 7.82831 15.8329C7.82831 15.5182 7.73498 15.2809 7.54831 15.1209C7.36165 14.9609 7.08698 14.8809 6.72431 14.8809H5.46031V16.7929Z" fill="black"/>
</svg>