<svg viewBox="0 0 24 24" fill="none" xmlns="http://www.w3.org/2000/svg" width="24" height="24">
<path d="M14.0249 3.90039V8.62539H18.7499" fill="black" fill-opacity="0.2"/>
<path d="M4.75 19.4258V4.5752C4.75005 4.26364 4.87344 3.96445 5.09375 3.74414C5.31406 3.52383 5.61325 3.40044 5.9248 3.40039H14.0254L14.123 3.41016C14.2191 3.42937 14.3086 3.47656 14.3789 3.54688L19.1035 8.27148C19.1972 8.36516 19.2499 8.49253 19.25 8.625V19.4258C19.2499 19.7371 19.1263 20.0356 18.9062 20.2559C18.6859 20.4762 18.3868 20.6005 18.0752 20.6006H5.9248C5.61325 20.6005 5.31406 20.4762 5.09375 20.2559C4.87373 20.0356 4.7501 19.7371 4.75 19.4258ZM5.75 19.4258C5.7501 19.4719 5.7683 19.5161 5.80078 19.5488C5.83355 19.5816 5.87846 19.6005 5.9248 19.6006H18.0752C18.1215 19.6005 18.1664 19.5816 18.1992 19.5488C18.2317 19.5161 18.2499 19.4719 18.25 19.4258V8.83203L13.8184 4.40039H5.9248C5.87846 4.40044 5.83355 4.4184 5.80078 4.45117C5.76801 4.48394 5.75005 4.52885 5.75 4.5752V19.4258Z" fill="black"/>
<path d="M13.525 3.90039C13.525 3.62425 13.7492 3.40039 14.0254 3.40039C14.3015 3.40039 14.525 3.62425 14.525 3.90039V8.125H18.7496C19.0256 8.125 19.2498 8.34904 19.25 8.625C19.25 8.90114 19.0258 9.125 18.7496 9.125H14.025C13.7489 9.125 13.525 8.90114 13.525 8.625V3.90039Z" fill="black"/>
<path d="M12 10.5629C12.8807 10.5629 13.7034 10.7571 14.3232 11.0951C14.9241 11.4229 15.4471 11.9579 15.4473 12.6703V14.2777C15.4473 14.2803 15.4463 14.2829 15.4463 14.2855C15.4463 14.2869 15.4473 14.2881 15.4473 14.2895V15.8969C15.4473 16.6094 14.9242 17.1442 14.3232 17.4721C13.7033 17.8102 12.8808 18.0043 12 18.0043C11.1191 18.0043 10.2967 17.8102 9.67676 17.4721C9.07576 17.1442 8.55273 16.6095 8.55273 15.8969V12.6703C8.55289 11.9579 9.07585 11.4229 9.67676 11.0951C10.2966 10.757 11.1192 10.5629 12 10.5629ZM14.3232 15.8529C13.7034 16.1909 12.8807 16.3851 12 16.3852C11.1192 16.3851 10.2967 16.191 9.67676 15.8529C9.63441 15.8298 9.59415 15.8029 9.55273 15.7777V15.8969C9.55273 16.072 9.68986 16.3412 10.1553 16.5951C10.6019 16.8387 11.2536 17.0043 12 17.0043C12.7461 17.0043 13.3972 16.8385 13.8438 16.5951C14.3093 16.3412 14.4473 16.072 14.4473 15.8969V15.7777C14.406 15.8028 14.3655 15.8299 14.3232 15.8529ZM14.3232 14.2455C13.7033 14.5836 12.8808 14.7777 12 14.7777C11.1192 14.7777 10.2966 14.5836 9.67676 14.2455C9.63456 14.2225 9.59401 14.1963 9.55273 14.1713V14.2777C9.55288 14.4529 9.6901 14.7222 10.1553 14.976C10.6018 15.2195 11.2536 15.3851 12 15.3852C12.746 15.3851 13.3972 15.2193 13.8438 14.976C14.3091 14.7222 14.4471 14.4529 14.4473 14.2777V14.1703C14.4059 14.1954 14.3655 14.2224 14.3232 14.2455ZM12 11.5629C11.2535 11.5629 10.6018 11.7295 10.1553 11.973C9.69032 12.2268 9.5529 12.4952 9.55273 12.6703C9.55273 12.8454 9.69005 13.1147 10.1553 13.3686C10.6018 13.6121 11.2536 13.7777 12 13.7777C12.7461 13.7777 13.3972 13.6119 13.8438 13.3686C14.3093 13.1146 14.4473 12.8455 14.4473 12.6703C14.4471 12.4952 14.309 12.2268 13.8438 11.973C13.3972 11.7296 12.7462 11.5629 12 11.5629Z" fill="black"/>
</svg>