<svg viewBox="0 0 24 24" fill="none" xmlns="http://www.w3.org/2000/svg" width="24" height="24">
<path d="M4.75 19.4253V4.57471C4.75005 4.26315 4.87344 3.96396 5.09375 3.74365C5.31406 3.52334 5.61325 3.39995 5.9248 3.3999H13.7139C14.0454 3.3999 14.3642 3.53169 14.5986 3.76611L18.8838 8.05127C19.1182 8.28569 19.25 8.60451 19.25 8.93604V19.4253C19.2499 19.7366 19.1263 20.0351 18.9062 20.2554C18.6859 20.4757 18.3868 20.6 18.0752 20.6001H5.9248C5.61325 20.6 5.31406 20.4757 5.09375 20.2554C4.87373 20.0351 4.7501 19.7366 4.75 19.4253ZM5.75 19.4253C5.7501 19.4714 5.7683 19.5157 5.80078 19.5483C5.83355 19.5811 5.87846 19.6 5.9248 19.6001H18.0752C18.1215 19.6 18.1664 19.5811 18.1992 19.5483C18.2317 19.5157 18.2499 19.4714 18.25 19.4253V8.93604C18.25 8.86973 18.2236 8.80518 18.1768 8.7583L13.8916 4.47314C13.8447 4.42626 13.7802 4.3999 13.7139 4.3999H5.9248C5.87846 4.39995 5.83355 4.41791 5.80078 4.45068C5.76801 4.48346 5.75005 4.52836 5.75 4.57471V19.4253Z" fill="black"/>
<path d="M13.5249 7.87451V3.8999C13.5249 3.62376 13.7488 3.3999 14.0249 3.3999C14.301 3.3999 14.5249 3.62376 14.5249 3.8999V7.87451C14.5249 8.01258 14.6368 8.12451 14.7749 8.12451H18.7495C19.0255 8.12451 19.2493 8.34855 19.2495 8.62451C19.2495 8.90065 19.0257 9.12451 18.7495 9.12451H14.7749C14.0845 9.12451 13.5249 8.56487 13.5249 7.87451Z" fill="black"/>
<path d="M14.7004 15C14.9764 15.0002 15.2004 15.224 15.2004 15.5C15.2004 15.776 14.9764 15.9998 14.7004 16H9.30005C9.02391 16 8.80005 15.7761 8.80005 15.5C8.80005 15.2239 9.02391 15 9.30005 15H14.7004Z" fill="black"/>
<path d="M14.7004 17.001C14.9764 17.0012 15.2004 17.225 15.2004 17.501C15.2004 17.777 14.9764 18.0008 14.7004 18.001H9.30005C9.02391 18.001 8.80005 17.7771 8.80005 17.501C8.80005 17.2248 9.02391 17.001 9.30005 17.001H14.7004Z" fill="black"/>
<path fill-rule="evenodd" clip-rule="evenodd" d="M12.8218 9.21133C12.7531 9.18717 12.6765 9.19745 12.617 9.23945C12.5575 9.28155 12.5222 9.35024 12.5221 9.42314V11.1036C12.5222 11.1838 12.5652 11.2577 12.6346 11.2979L14.09 12.1381C14.1533 12.1746 14.2312 12.1783 14.2975 12.1478C14.3636 12.1171 14.4107 12.056 14.424 11.9843C14.5308 11.4071 14.4285 10.8103 14.1349 10.3021C13.8411 9.79387 13.3752 9.407 12.8218 9.21133Z" fill="black"/>
<path fill-rule="evenodd" clip-rule="evenodd" d="M12 9.06982C11.5682 9.06993 11.1437 9.1838 10.7695 9.39941C10.3955 9.61501 10.0844 9.92504 9.86778 10.2985C9.65121 10.6721 9.53597 11.0964 9.53468 11.5281C9.53347 11.9599 9.64639 12.3847 9.86075 12.7595C10.0752 13.1341 10.3845 13.4461 10.7572 13.6639C11.1301 13.8815 11.5542 13.9979 11.9859 14.0005C12.4179 14.003 12.8435 13.8922 13.2191 13.6788C13.5945 13.4654 13.9073 13.1564 14.1261 12.7841C14.1561 12.7327 14.1648 12.6712 14.1498 12.6136C14.1346 12.5559 14.0968 12.5056 14.0452 12.4756L12.225 11.4147V9.29482C12.2249 9.23527 12.2012 9.17786 12.1591 9.13574C12.1169 9.09373 12.0596 9.06982 12 9.06982Z" fill="black"/>
</svg>