<svg xmlns="http://www.w3.org/2000/svg" width="24" height="24" fill="currentColor" viewBox="0 0 24 24"><path d="m19.228 8.147-4.725-4.725a.68.68 0 0 0-.478-.197h-8.1a1.35 1.35 0 0 0-1.35 1.35v6.413a.34.34 0 0 0 .337.338h14.175a.34.34 0 0 0 .337-.338V8.625a.68.68 0 0 0-.197-.478zm-5.203.478V4.912l3.713 3.713zM5.25 16.388c0 .928.606 1.687 1.35 1.687a1.2 1.2 0 0 0 .849-.38.693.693 0 0 1 .92-.077.675.675 0 0 1 .069.996 2.54 2.54 0 0 1-1.838.81c-1.488 0-2.7-1.363-2.7-3.037s1.212-3.037 2.7-3.037a2.53 2.53 0 0 1 1.805.775.697.697 0 0 1 .062.936.675.675 0 0 1-1.004.032 1.2 1.2 0 0 0-.862-.393c-.744 0-1.35.759-1.35 1.688zm8.759 1.376a1.76 1.76 0 0 1-.775 1.285c-.438.292-.98.376-1.476.376a5.2 5.2 0 0 1-1.277-.169.675.675 0 1 1 .363-1.3c.37.101 1.261.228 1.65-.03.074-.05.154-.128.181-.332.03-.225-.06-.346-1.078-.64-.789-.228-2.109-.61-1.941-1.95a1.74 1.74 0 0 1 .759-1.261c.999-.675 2.591-.279 2.77-.233a.675.675 0 0 1-.343 1.306c-.379-.099-1.285-.216-1.673.047a.38.38 0 0 0-.169.31c-.01.076-.012.092.094.16.195.126.544.226.882.324.826.239 2.223.646 2.034 2.107zm5.367-3.486-1.678 4.698a.675.675 0 0 1-1.271 0l-1.678-4.698a.693.693 0 0 1 .38-.882.675.675 0 0 1 .882.402l1.052 2.945 1.052-2.945a.675.675 0 0 1 .882-.402.694.694 0 0 1 .38.882z"/></svg>