<svg xmlns="http://www.w3.org/2000/svg" width="24" height="24" fill="currentColor" viewBox="0 0 24 24"><path d="M16.725 13.35h-1.35a.675.675 0 0 0-.675.675v4.702a.69.69 0 0 0 .63.696.675.675 0 0 0 .72-.675v-.675h.624c1.286 0 2.374-1.006 2.412-2.291a2.363 2.363 0 0 0-2.362-2.433zm-.03 3.375h-.645V14.7h.675a1.013 1.013 0 0 1 1.012 1.11 1.034 1.034 0 0 1-1.042.915m-4.02-2.7v4.702a.69.69 0 0 1-.63.696.675.675 0 0 1-.72-.675v-4.701a.69.69 0 0 1 .63-.696.675.675 0 0 1 .72.673zM9.3 18.795a.69.69 0 0 1-.698.63H5.944a.7.7 0 0 1-.506-.211.675.675 0 0 1-.1-.802l2.123-3.713H5.947a.69.69 0 0 1-.698-.63.675.675 0 0 1 .675-.72h2.681a.7.7 0 0 1 .506.211.675.675 0 0 1 .104.802l-2.127 3.712h1.536a.675.675 0 0 1 .675.72zm9.928-10.647-4.725-4.725a.68.68 0 0 0-.478-.197h-8.1a1.35 1.35 0 0 0-1.35 1.35v6.413a.34.34 0 0 0 .337.338h14.175a.34.34 0 0 0 .337-.338V8.626a.68.68 0 0 0-.197-.478zm-5.203.478V4.913l3.713 3.713z"/></svg>