<svg xmlns="http://www.w3.org/2000/svg" width="24" height="24" fill="currentColor" viewBox="0 0 24 24"><path d="M5.081 16.388c0 1.023.681 1.856 1.519 1.856a1.37 1.37 0 0 0 .985-.445.506.506 0 0 1 .731.7 2.37 2.37 0 0 1-1.715.758c-1.396 0-2.531-1.287-2.531-2.869s1.136-2.869 2.531-2.869a2.37 2.37 0 0 1 1.715.759.506.506 0 0 1-.731.7 1.37 1.37 0 0 0-.985-.447c-.838 0-1.519.832-1.519 1.856zm6.839-.571c-.916-.264-1.131-.396-1.097-.667a.56.56 0 0 1 .243-.429c.473-.32 1.49-.154 1.81-.071a.506.506 0 0 0 .258-.979c-.169-.045-1.696-.422-2.633.209a1.57 1.57 0 0 0-.682 1.142c-.152 1.197 1.034 1.54 1.82 1.767 1.023.295 1.247.45 1.198.823a.58.58 0 0 1-.253.451c-.473.315-1.475.138-1.788.052a.506.506 0 0 0-.274.972 5 5 0 0 0 1.239.169c.463 0 .974-.08 1.38-.349a1.6 1.6 0 0 0 .701-1.165c.17-1.321-1.089-1.685-1.922-1.926zm7.003-2.268a.506.506 0 0 0-.647.306l-1.213 3.389-1.211-3.388a.506.506 0 1 0-.953.338l1.688 4.725a.506.506 0 0 0 .953 0l1.688-4.725a.506.506 0 0 0-.308-.646zm.333-4.923v2.025a.506.506 0 1 1-1.012 0V9.132h-4.219a.506.506 0 0 1-.506-.506V4.407H5.925a.17.17 0 0 0-.169.169v6.075a.507.507 0 1 1-1.013 0V4.576a1.18 1.18 0 0 1 1.181-1.181h8.1a.5.5 0 0 1 .358.148l4.725 4.725a.5.5 0 0 1 .148.358zm-1.729-.506-2.996-2.997V8.12z"/></svg>