<svg xmlns="http://www.w3.org/2000/svg" width="24" height="24" fill="currentColor" viewBox="0 0 24 24"><path d="M14.194 18.75a.506.506 0 0 1-.506.506h-2.363a.506.506 0 0 1-.506-.506v-4.725a.507.507 0 1 1 1.013 0v4.219h1.856a.506.506 0 0 1 .506.506m-5.275-5.138a.506.506 0 0 0-.705.117l-1.276 1.786-1.276-1.786a.507.507 0 1 0-.824.591l1.477 2.067-1.477 2.067a.507.507 0 1 0 .824.591l1.276-1.788 1.276 1.785a.5.5 0 0 0 .412.213.5.5 0 0 0 .294-.095.506.506 0 0 0 .118-.706l-1.477-2.068 1.477-2.068a.506.506 0 0 0-.118-.707zm8.397 2.203c-.915-.264-1.131-.396-1.097-.667a.56.56 0 0 1 .243-.429c.473-.32 1.489-.154 1.809-.071a.506.506 0 0 0 .259-.979c-.169-.046-1.696-.422-2.633.209a1.57 1.57 0 0 0-.682 1.142c-.152 1.197 1.034 1.54 1.82 1.767 1.023.295 1.246.45 1.198.823a.58.58 0 0 1-.253.451c-.473.315-1.475.138-1.788.052a.506.506 0 0 0-.271.973 5 5 0 0 0 1.239.169c.463 0 .974-.08 1.38-.349a1.6 1.6 0 0 0 .701-1.165c.17-1.321-1.089-1.685-1.925-1.926M4.744 10.65V4.575a1.18 1.18 0 0 1 1.181-1.181h8.1a.5.5 0 0 1 .358.148l4.725 4.725a.5.5 0 0 1 .148.358v2.025a.506.506 0 1 1-1.012 0V9.131h-4.219a.506.506 0 0 1-.506-.506V4.406H5.925a.17.17 0 0 0-.169.169v6.075a.507.507 0 1 1-1.013 0zm9.788-2.531h2.995l-2.995-2.997z"/></svg>