<svg xmlns="http://www.w3.org/2000/svg" width="24" height="24" fill="currentColor" viewBox="0 0 24 24"><path d="M20.1 14.07a.69.69 0 0 1-.696.63h-.991v4.027a.69.69 0 0 1-.63.696.675.675 0 0 1-.72-.675V14.7h-.99a.69.69 0 0 1-.696-.63.675.675 0 0 1 .675-.72h3.375a.675.675 0 0 1 .673.72M8.962 15.784c-.039 1.285-1.127 2.291-2.413 2.291h-.624v.652a.69.69 0 0 1-.63.698.675.675 0 0 1-.72-.675v-4.725a.675.675 0 0 1 .675-.675H6.6a2.363 2.363 0 0 1 2.362 2.434m-1.35-.169A1.034 1.034 0 0 0 6.57 14.7h-.645v2.025H6.6a1.013 1.013 0 0 0 1.013-1.11zm7.088.169c-.039 1.285-1.127 2.291-2.413 2.291h-.624v.652a.69.69 0 0 1-.63.696.675.675 0 0 1-.72-.675v-4.723a.675.675 0 0 1 .675-.675h1.35a2.363 2.363 0 0 1 2.362 2.434m-1.35-.169a1.034 1.034 0 0 0-1.042-.915h-.645v2.025h.675a1.013 1.013 0 0 0 1.012-1.11m-8.775-4.628V4.574a1.35 1.35 0 0 1 1.35-1.35h8.1a.68.68 0 0 1 .478.197l4.725 4.725a.68.68 0 0 1 .197.478v2.363a.34.34 0 0 1-.337.338H4.913a.34.34 0 0 1-.338-.338m9.45-2.363h3.713l-3.713-3.713z"/></svg>