<svg xmlns="http://www.w3.org/2000/svg" width="24" height="24" fill="currentColor" viewBox="0 0 24 24"><path d="M14.025 16.388a3.42 3.42 0 0 1-1.688 2.946.675.675 0 0 1-.675-1.166 2.066 2.066 0 0 0 0-3.559.675.675 0 0 1 .675-1.166 3.42 3.42 0 0 1 1.688 2.946zm-4.467-4.336a.675.675 0 0 0-.736.146l-1.827 1.828H5.249a.675.675 0 0 0-.675.675v3.375a.675.675 0 0 0 .675.675h1.746l1.827 1.828a.675.675 0 0 0 1.153-.478v-7.425a.675.675 0 0 0-.417-.624m9.867-3.426v10.8a1.35 1.35 0 0 1-1.35 1.35h-2.7a.675.675 0 0 1 0-1.35h2.7V9.301h-4.05a.675.675 0 0 1-.675-.675v-4.05H5.925v6.75a.675.675 0 0 1-1.35 0v-6.75a1.35 1.35 0 0 1 1.35-1.35h8.1a.68.68 0 0 1 .478.197l4.725 4.725a.68.68 0 0 1 .197.478M14.7 7.951h2.421L14.7 5.53z"/></svg>