<svg xmlns="http://www.w3.org/2000/svg" width="24" height="24" fill="currentColor" viewBox="0 0 24 24"><path d="M18.75 8.625h-4.725V3.9z" opacity=".2"/><path d="M20.1 14.025a.675.675 0 0 1-.675.675h-1.012v4.05a.675.675 0 0 1-1.35 0V14.7H16.05a.675.675 0 0 1 0-1.35h3.375a.675.675 0 0 1 .675.675M8.962 15.713A2.363 2.363 0 0 1 6.6 18.075h-.675v.675a.675.675 0 0 1-1.35 0v-4.725a.675.675 0 0 1 .675-.675H6.6a2.363 2.363 0 0 1 2.362 2.363m-1.35 0A1.013 1.013 0 0 0 6.599 14.7h-.675v2.025h.675a1.013 1.013 0 0 0 1.013-1.012m7.088 0a2.363 2.363 0 0 1-2.363 2.362h-.675v.675a.675.675 0 0 1-1.35 0v-4.725a.675.675 0 0 1 .675-.675h1.35a2.363 2.363 0 0 1 2.363 2.363m-1.35 0a1.013 1.013 0 0 0-1.013-1.013h-.675v2.025h.675a1.013 1.013 0 0 0 1.013-1.012M4.575 10.65V4.575a1.35 1.35 0 0 1 1.35-1.35h8.1a.68.68 0 0 1 .478.197l4.725 4.725a.68.68 0 0 1 .197.478v2.025a.675.675 0 0 1-1.35 0V9.3h-4.05a.675.675 0 0 1-.675-.675v-4.05H5.925v6.075a.675.675 0 0 1-1.35 0M14.7 7.95h2.421L14.7 5.529z"/></svg>