<svg viewBox="0 0 24 24" fill="none" xmlns="http://www.w3.org/2000/svg" width="24" height="24">
<path fill-rule="evenodd" clip-rule="evenodd" d="M18.8045 8.12797C18.8117 8.12885 18.8243 8.1305 18.8315 8.13168C18.8266 8.13086 18.8118 8.12892 18.8045 8.12797ZM19.0375 8.21606C19.0295 8.21055 19.0164 8.20167 19.0079 8.1966C18.9952 8.18914 18.977 8.17937 18.9635 8.17298C18.9269 8.15578 18.8876 8.14283 18.8475 8.1346C18.8427 8.13362 18.8363 8.13252 18.8315 8.13168C18.8321 8.13177 18.831 8.13159 18.8315 8.13168M19.1034 8.27134C19.1033 8.27129 19.1034 8.27139 19.1034 8.27134ZM19.2177 8.44912L19.2221 8.4614C19.2208 8.45771 19.2184 8.45114 19.2177 8.44912C19.2174 8.4483 19.2182 8.4506 19.2177 8.44912Z" fill="black"/>
<path fill-rule="evenodd" clip-rule="evenodd" d="M14.123 3.41016L14.025 3.40039C14.0586 3.40039 14.0913 3.40385 14.123 3.41016ZM18.8139 8.12909C18.8064 8.12814 18.7989 8.12734 18.7913 8.12672C18.8002 8.12745 18.8052 8.12791 18.8139 8.12909C18.8126 8.1289 18.8151 8.12924 18.8139 8.12909ZM18.9635 8.17298C18.977 8.17937 18.9952 8.18914 19.0079 8.1966C19.0164 8.20167 19.0295 8.21055 19.0375 8.21606C19.0279 8.20927 19.018 8.20271 19.0079 8.1966C18.9952 8.18914 18.977 8.17937 18.9635 8.17298ZM19.12 8.28887C19.1145 8.28275 19.1092 8.27717 19.1034 8.27134C19.1062 8.27421 19.1087 8.2767 19.1115 8.27964C19.1144 8.28268 19.1172 8.28576 19.12 8.28887Z" fill="black"/>
<path fill-rule="evenodd" clip-rule="evenodd" d="M8.80053 13.6879C8.80053 13.4117 9.02439 13.1879 9.30053 13.1879C9.57667 13.1879 9.80053 13.4117 9.80053 13.6879V15.5502H11.6628C11.9389 15.5502 12.1627 15.7741 12.1628 16.0502C12.1628 16.3263 11.939 16.5502 11.6628 16.5502H9.30053C9.02439 16.5502 8.80053 16.3263 8.80053 16.0502V13.6879Z" fill="white"/>
<path d="M8.80053 13.6879C8.80053 13.4117 9.02439 13.1879 9.30053 13.1879C9.57667 13.1879 9.80053 13.4117 9.80053 13.6879V15.5502H11.6628C11.9389 15.5502 12.1627 15.7741 12.1628 16.0502C12.1628 16.3263 11.939 16.5502 11.6628 16.5502H9.30053C9.02439 16.5502 8.80053 16.3263 8.80053 16.0502V13.6879Z" fill="black"/>
<path fill-rule="evenodd" clip-rule="evenodd" d="M9.30053 13.1879C9.02439 13.1879 8.80053 13.4117 8.80053 13.6879V16.0502C8.80053 16.3263 9.02439 16.5502 9.30053 16.5502H11.6628C11.939 16.5502 12.1628 16.3263 12.1628 16.0502C12.1627 15.7741 11.9389 15.5502 11.6628 15.5502H9.80053V13.6879C9.80053 13.4117 9.57667 13.1879 9.30053 13.1879Z" fill="black"/>
<path d="M9.30016 11.5004C7.86437 11.5005 6.58388 12.1655 5.75 13.2044C5.12454 13.9836 4.75028 14.9732 4.75024 16.0502C4.75024 17.1273 5.12447 18.1169 5.75 18.8961C5.95846 19.1558 6.19488 19.3922 6.45461 19.6006C6.62506 19.7374 6.80557 19.8621 6.99485 19.9736C7.46805 20.2522 7.99609 20.4477 8.55888 20.5399L8.57315 20.5422C8.68107 20.5596 8.79026 20.5731 8.90057 20.5827C9.03224 20.5942 9.16552 20.6 9.30016 20.6C10.3771 20.6 11.3666 20.2259 12.1458 19.6006C13.1849 18.7667 13.8501 17.4862 13.8501 16.0502C13.85 13.5374 11.8131 11.5004 9.30016 11.5004ZM5.75027 16.0502C5.75037 14.0897 7.33966 12.5005 9.30016 12.5004C11.2608 12.5004 12.85 14.0897 12.8501 16.0502C12.8501 18.0108 11.2608 19.6 9.30016 19.6C7.33959 19.5999 5.75027 18.0107 5.75027 16.0502Z" fill="black"/>
<path fill-rule="evenodd" clip-rule="evenodd" d="M18.8315 8.13168C18.8225 8.1302 18.8136 8.12897 18.8045 8.12797C18.8727 8.13631 18.9475 8.16155 19.0046 8.1949C19.0147 8.20084 19.0246 8.20711 19.0341 8.21368C19.026 8.20809 19.013 8.19999 19.0046 8.1949C18.991 8.18669 18.9801 8.18079 18.9654 8.17383C18.9288 8.15655 18.8881 8.14268 18.8475 8.1346L18.8315 8.13168ZM14.3789 3.54688L19.1034 8.27134L19.1139 8.28219C19.1208 8.28981 19.1386 8.31062 19.145 8.31867L19.1563 8.3339C19.1649 8.34596 19.173 8.35843 19.1805 8.37126C19.1905 8.38828 19.1995 8.40594 19.2075 8.42415C19.2111 8.43236 19.2145 8.44069 19.2177 8.44912L19.2221 8.4614C19.2243 8.46767 19.2256 8.47162 19.2275 8.47801C19.2418 8.52449 19.2496 8.57385 19.2496 8.625L19.25 19.4258C19.2499 19.7371 19.1263 20.0356 18.9062 20.2559C18.6859 20.4762 18.3868 20.6005 18.0752 20.6006H14.0659C13.7897 20.6006 13.5659 20.3767 13.5659 20.1006C13.5659 19.8244 13.7897 19.6006 14.0659 19.6006H18.0752C18.1215 19.6005 18.1664 19.5816 18.1992 19.5488C18.2317 19.5161 18.2499 19.4719 18.25 19.4258V9.125H14.025C13.7489 9.125 13.525 8.90114 13.525 8.625V4.40039H5.9248C5.87846 4.40044 5.83355 4.4184 5.80078 4.45117C5.76801 4.48394 5.75005 4.52885 5.75 4.5752V10.5343C5.75 10.8104 5.53544 11.0343 5.25929 11.0343C4.98315 11.0343 4.75 10.8104 4.75 10.5343V4.5752C4.75005 4.26364 4.87344 3.96445 5.09375 3.74414C5.31406 3.52383 5.61325 3.40044 5.9248 3.40039H14.025L14.123 3.41016C14.1803 3.42154 14.2341 3.44256 14.2825 3.47168C14.3173 3.49254 14.3498 3.51772 14.3789 3.54688ZM17.543 8.125H14.525V5.10703L17.543 8.125Z" fill="black"/>
</svg>