<svg xmlns="http://www.w3.org/2000/svg" width="24" height="24" fill="currentColor" viewBox="0 0 24 24"><path d="M19.931 14.025a.506.506 0 0 1-.506.506h-1.181v4.219a.506.506 0 0 1-1.012 0v-4.219h-1.181a.506.506 0 0 1 0-1.012h3.375a.506.506 0 0 1 .506.506zM8.793 15.713a2.194 2.194 0 0 1-2.194 2.194h-.844v.844a.507.507 0 0 1-1.013 0v-4.725a.506.506 0 0 1 .506-.506h1.35a2.194 2.194 0 0 1 2.194 2.194zm-1.013 0a1.18 1.18 0 0 0-1.181-1.181h-.844v2.363h.844a1.18 1.18 0 0 0 1.181-1.181zm6.75 0a2.194 2.194 0 0 1-2.194 2.194h-.844v.844a.507.507 0 0 1-1.013 0v-4.725a.506.506 0 0 1 .506-.506h1.35a2.194 2.194 0 0 1 2.194 2.194zm-1.012 0a1.18 1.18 0 0 0-1.181-1.181h-.844v2.363h.844a1.18 1.18 0 0 0 1.181-1.181zM4.743 10.65V4.575a1.18 1.18 0 0 1 1.181-1.181h8.1a.5.5 0 0 1 .359.148l4.725 4.725a.5.5 0 0 1 .148.358v2.025a.506.506 0 0 1-1.012 0V9.131h-4.219a.506.506 0 0 1-.506-.506V4.406H5.925a.17.17 0 0 0-.169.169v6.075a.507.507 0 0 1-1.013 0m9.788-2.531h2.997l-2.997-2.997z"/></svg>