<svg viewBox="0 0 24 24" fill="none" xmlns="http://www.w3.org/2000/svg" width="24" height="24">
<path fill-rule="evenodd" clip-rule="evenodd" d="M14.0254 3.39941L14.123 3.40918C14.1793 3.42043 14.2333 3.44126 14.2825 3.4707C14.2341 3.44158 14.1803 3.42057 14.123 3.40918C14.0915 3.4029 14.0588 3.39944 14.0254 3.39941Z" fill="black"/>
<path fill-rule="evenodd" clip-rule="evenodd" d="M19.2499 8.61469C19.2498 8.60953 19.2496 8.60439 19.2494 8.59925L19.2499 8.61469Z" fill="black"/>
<path fill-rule="evenodd" clip-rule="evenodd" d="M19.2499 8.61469C19.2498 8.61292 19.2496 8.60329 19.2494 8.59925L19.2499 8.61469C19.25 8.61651 19.2499 8.61047 19.2499 8.61469Z" fill="black"/>
<path fill-rule="evenodd" clip-rule="evenodd" d="M14.123 3.40918L14.0254 3.39941H5.9248C5.61325 3.39947 5.31406 3.52286 5.09375 3.74316C4.87344 3.96347 4.75005 4.26266 4.75 4.57422V19.4248C4.7501 19.7361 4.87373 20.0347 5.09375 20.2549C5.31406 20.4752 5.61325 20.5996 5.9248 20.5996H18.0752C18.3868 20.5996 18.6859 20.4752 18.9062 20.2549C19.1263 20.0347 19.2499 19.7361 19.25 19.4248L19.2499 8.61469L19.2494 8.59925C19.2459 8.53077 19.2284 8.46414 19.1986 8.4034C19.1746 8.35461 19.1426 8.30962 19.1035 8.27051L14.3789 3.5459C14.3498 3.51674 14.3173 3.49156 14.2825 3.4707C14.2333 3.44126 14.1793 3.42043 14.123 3.40918ZM14.525 5.10605V8.12402H17.543L14.525 5.10605ZM13.8735 14.3467C13.9165 14.1862 13.9428 14.0179 13.9428 13.8438C13.9428 13.6696 13.9166 13.5015 13.8735 13.3409L14.435 13.0176C14.6741 12.8796 14.7566 12.5732 14.6186 12.3341C14.4805 12.0949 14.1741 12.0133 13.935 12.1514L13.3754 12.4737C13.1375 12.2354 12.8376 12.06 12.5024 11.9708V11.3243C12.5024 11.0482 12.2785 10.8243 12.0024 10.8243C11.7264 10.8244 11.5024 11.0482 11.5024 11.3243V11.9708C11.1669 12.0601 10.8663 12.2351 10.6284 12.4737L10.0698 12.1514C9.83072 12.0134 9.52531 12.0951 9.38715 12.3341C9.24906 12.5732 9.33064 12.8796 9.56977 13.0176L10.1303 13.3409C10.0873 13.5014 10.063 13.6697 10.0629 13.8438C10.0629 14.0181 10.0872 14.187 10.1303 14.3477L9.56977 14.6719C9.33077 14.8101 9.24909 15.1155 9.38715 15.3546C9.5253 15.5935 9.8307 15.6752 10.0698 15.5372L10.6284 15.2139C10.8663 15.4527 11.1668 15.6275 11.5024 15.7169V16.3643C11.5024 16.6404 11.7264 16.8642 12.0024 16.8643C12.2785 16.8643 12.5024 16.6404 12.5024 16.3643V15.7169C12.8378 15.6276 13.1375 15.4524 13.3754 15.2139L13.935 15.5372C14.1741 15.6753 14.4805 15.5937 14.6186 15.3546C14.7566 15.1155 14.674 14.81 14.435 14.6719L13.8735 14.3467Z" fill="black"/>
<path fill-rule="evenodd" clip-rule="evenodd" d="M12.0024 12.9044C12.5214 12.9044 12.9426 13.3249 12.9428 13.8438C12.9428 14.363 12.5216 14.7842 12.0024 14.7842C11.4833 14.7842 11.0629 14.3629 11.0629 13.8438C11.0632 13.3249 11.4834 12.9044 12.0024 12.9044Z" fill="black"/>
</svg>