<svg xmlns="http://www.w3.org/2000/svg" width="24" height="24" fill="currentColor" viewBox="0 0 24 24"><path d="M4.744 12a.506.506 0 0 1 .506-.506h6.075a.507.507 0 0 1 0 1.013H5.25a.506.506 0 0 1-.506-.506zm.506-4.894h4.725a.507.507 0 0 0 0-1.013H5.25a.507.507 0 0 0 0 1.013m11.475 9.788H5.25a.506.506 0 0 0 0 1.012h11.475a.506.506 0 0 0 0-1.012m3.733-8.627-3.375-3.375a.506.506 0 0 0-.716 0l-3.375 3.375a.506.506 0 0 0 .716.716l2.511-2.51v6.877a.506.506 0 0 0 1.012 0V6.473l2.511 2.51a.506.506 0 0 0 .715-.716z"/></svg>