<svg xmlns="http://www.w3.org/2000/svg" width="24" height="24" fill="currentColor" viewBox="0 0 24 24"><path d="M20.415 6.84 14.7 12.942v4.682a1.35 1.35 0 0 1-.602 1.126l-2.7 1.801A1.35 1.35 0 0 1 9.3 19.425v-6.483L3.585 6.84l-.007-.008a1.35 1.35 0 0 1 .996-2.258h14.85a1.35 1.35 0 0 1 .999 2.258zM20.38 17.4l1.548-1.547a.675.675 0 0 0-.955-.955l-1.547 1.548-1.547-1.548a.675.675 0 0 0-.955.955l1.548 1.547-1.548 1.547a.675.675 0 0 0 .955.955l1.547-1.548 1.547 1.548a.675.675 0 0 0 .955-.955z"/></svg>