<svg viewBox="0 0 24 24" fill="none" xmlns="http://www.w3.org/2000/svg" width="24" height="24">
<path d="M2.60833 5.81243C2.52928 5.72544 2.47717 5.61737 2.45831 5.50135C2.43945 5.38533 2.45466 5.26633 2.50208 5.15878C2.54951 5.05122 2.62712 4.95974 2.7255 4.89541C2.82389 4.83109 2.93882 4.79669 3.05636 4.79639H16.4214C16.539 4.7964 16.6542 4.83059 16.7528 4.89479C16.8514 4.959 16.9292 5.05047 16.9769 5.15808C17.0245 5.26569 17.0398 5.38482 17.021 5.50098C17.0022 5.61714 16.95 5.72534 16.8709 5.81243L11.5614 11.4789V15.9326C11.5614 16.0327 11.5368 16.1312 11.4896 16.2194C11.4425 16.3076 11.3742 16.3828 11.291 16.4384L8.86103 18.0581C8.76962 18.1191 8.66339 18.1541 8.55364 18.1595C8.44389 18.1649 8.33474 18.1404 8.2378 18.0887C8.14087 18.037 8.05978 17.9599 8.00317 17.8657C7.94657 17.7715 7.91657 17.6638 7.91636 17.5539V11.4789L2.60833 5.81243Z" fill="black" fill-opacity="0.2"/>
<path d="M16.4209 4.34619C16.6258 4.34621 16.8264 4.4063 16.9981 4.51807C17.1696 4.62981 17.3049 4.78885 17.3877 4.97607C17.4706 5.16336 17.4976 5.37059 17.4649 5.57275C17.4322 5.7748 17.3417 5.96321 17.2041 6.11475L17.1993 6.12061L12.0108 11.6567V15.9321C12.0109 16.1061 11.9687 16.2777 11.8868 16.4312C11.8047 16.5847 11.6858 16.7163 11.541 16.813L9.11038 18.4321C8.95128 18.5383 8.76628 18.5995 8.57523 18.6089C8.38427 18.6182 8.19409 18.5759 8.02542 18.4858C7.85675 18.3958 7.71572 18.2611 7.61722 18.0972C7.51888 17.9334 7.46629 17.7462 7.46585 17.5552V11.6558L2.27933 6.11963L2.27542 6.11475C2.13785 5.96334 2.04655 5.77564 2.01371 5.57373C1.98088 5.37177 2.00732 5.16427 2.08988 4.97705C2.17243 4.78985 2.30827 4.63101 2.47953 4.51904C2.65066 4.40721 2.85028 4.34677 3.05472 4.34619H16.4209ZM3.01273 5.25342C2.99833 5.25772 2.98443 5.26368 2.97171 5.27197C2.94627 5.28861 2.9264 5.31252 2.9141 5.34033C2.9018 5.36821 2.89749 5.39912 2.90238 5.4292C2.90712 5.45828 2.92012 5.48518 2.93949 5.50732L8.24417 11.1714C8.32229 11.2548 8.36624 11.3647 8.36624 11.479V17.5532L8.3721 17.5952C8.37589 17.6087 8.38141 17.6221 8.38871 17.6343C8.40335 17.6585 8.42427 17.6785 8.44925 17.6919C8.47435 17.7053 8.50287 17.7118 8.53128 17.7104C8.55973 17.7091 8.58766 17.6999 8.61136 17.6841L11.041 16.064L11.0703 16.0386C11.0789 16.0291 11.0867 16.0187 11.0928 16.0073C11.105 15.9845 11.1113 15.959 11.1114 15.9331V11.479C11.1114 11.3648 11.1545 11.2548 11.2325 11.1714L16.542 5.50439C16.5599 5.48283 16.5717 5.45695 16.5762 5.4292C16.5811 5.39918 16.5777 5.36816 16.5655 5.34033C16.5531 5.31243 16.5324 5.28862 16.5069 5.27197C16.4813 5.25536 16.4514 5.24658 16.4209 5.24658H3.05765L3.01273 5.25342Z" fill="black"/>
<path d="M17.7741 14.6038C18.0501 14.6038 18.2739 14.8277 18.2741 15.1038V16.634H19.7936C20.0698 16.634 20.2936 16.8579 20.2936 17.134C20.2936 17.4102 20.0698 17.634 19.7936 17.634H18.2741V19.1536C18.2741 19.4297 18.0502 19.6536 17.7741 19.6536C17.4979 19.6536 17.2741 19.4297 17.2741 19.1536V17.634H15.7438C15.4678 17.6339 15.2438 17.4101 15.2438 17.134C15.2438 16.858 15.4678 16.6342 15.7438 16.634H17.2741V15.1038C17.2742 14.8277 17.498 14.6038 17.7741 14.6038Z" fill="black"/>
<path d="M20.4801 14.604C20.204 14.604 19.9801 14.8279 19.9801 15.104C19.9801 15.3801 20.204 15.604 20.4801 15.604H20.9801V18.6538H20.4801C20.2041 18.6538 19.9802 18.8778 19.9801 19.1538C19.9801 19.43 20.204 19.6538 20.4801 19.6538H21.4801C21.7563 19.6538 21.9801 19.43 21.9801 19.1538V15.104C21.9801 14.8279 21.7563 14.604 21.4801 14.604H20.4801Z" fill="black"/>
<path d="M15.058 14.604C15.3342 14.604 15.558 14.8279 15.558 15.104C15.558 15.3801 15.3342 15.604 15.058 15.604H14.558V18.6538H15.058C15.3341 18.6538 15.5579 18.8778 15.558 19.1538C15.558 19.43 15.3342 19.6538 15.058 19.6538H14.058C13.7819 19.6538 13.558 19.43 13.558 19.1538V15.104C13.558 14.8279 13.7819 14.604 14.058 14.604H15.058Z" fill="black"/>
</svg>