<svg viewBox="0 0 24 24" fill="none" xmlns="http://www.w3.org/2000/svg" width="24" height="24">
<path d="M16.4558 4.12109C16.6607 4.12111 16.8613 4.1812 17.033 4.29297C17.2046 4.40472 17.3398 4.56375 17.4226 4.75098C17.5055 4.93826 17.5325 5.14549 17.4998 5.34766C17.4671 5.5497 17.3766 5.73811 17.239 5.88965L17.2342 5.89551L12.0457 11.4316V15.707C12.0458 15.881 12.0036 16.0526 11.9217 16.2061C11.8396 16.3596 11.7207 16.4913 11.576 16.5879L9.1453 18.207C8.98619 18.3132 8.80119 18.3744 8.61014 18.3838C8.41918 18.3931 8.229 18.3508 8.06034 18.2607C7.89166 18.1707 7.75064 18.036 7.65213 17.8721C7.55379 17.7083 7.5012 17.5211 7.50077 17.3301V11.4307L2.31424 5.89453L2.31034 5.88965C2.17276 5.73825 2.08146 5.55054 2.04862 5.34863C2.01579 5.14667 2.04223 4.93918 2.12479 4.75195C2.20735 4.56475 2.34319 4.40591 2.51444 4.29395C2.68558 4.18211 2.88519 4.12168 3.08963 4.12109H16.4558ZM3.04764 5.02832C3.03324 5.03263 3.01934 5.03858 3.00663 5.04688C2.98118 5.06351 2.96131 5.08743 2.94901 5.11523C2.93671 5.14312 2.9324 5.17402 2.93729 5.2041C2.94203 5.23318 2.95503 5.26008 2.9744 5.28223L8.27909 10.9463C8.3572 11.0297 8.40116 11.1396 8.40116 11.2539V17.3281L8.40702 17.3701C8.4108 17.3836 8.41632 17.397 8.42362 17.4092C8.43826 17.4334 8.45919 17.4534 8.48416 17.4668C8.50927 17.4802 8.53778 17.4867 8.5662 17.4854C8.59465 17.484 8.62257 17.4748 8.64627 17.459L11.076 15.8389L11.1053 15.8135C11.1138 15.804 11.1216 15.7936 11.1277 15.7822C11.1399 15.7594 11.1463 15.7339 11.1463 15.708V11.2539C11.1463 11.1397 11.1894 11.0297 11.2674 10.9463L16.5769 5.2793C16.5949 5.25774 16.6066 5.23185 16.6111 5.2041C16.616 5.17408 16.6126 5.14306 16.6004 5.11523C16.588 5.08733 16.5673 5.06352 16.5418 5.04688C16.5162 5.03026 16.4863 5.02149 16.4558 5.02148H3.09256L3.04764 5.02832Z" fill="black"/>
<path d="M17.8089 14.3789C18.0849 14.3789 18.3087 14.6029 18.3089 14.8789V16.4092H19.8284C20.1045 16.4092 20.3284 16.633 20.3284 16.9092C20.3284 17.1853 20.1045 17.4092 19.8284 17.4092H18.3089V18.9287C18.3089 19.2049 18.085 19.4287 17.8089 19.4287C17.5327 19.4287 17.3089 19.2049 17.3089 18.9287V17.4092H15.7786C15.5026 17.409 15.2786 17.1852 15.2786 16.9092C15.2786 16.6331 15.5026 16.4093 15.7786 16.4092H17.3089V14.8789C17.309 14.6029 17.5328 14.3789 17.8089 14.3789Z" fill="black"/>
<path d="M20.5149 14.3789C20.2388 14.3789 20.0149 14.6028 20.0149 14.8789C20.0149 15.155 20.2388 15.3789 20.5149 15.3789H21.0149V18.4287H20.5149C20.2388 18.4287 20.015 18.6527 20.0149 18.9287C20.0149 19.2049 20.2388 19.4287 20.5149 19.4287H21.5149C21.7911 19.4287 22.0149 19.2049 22.0149 18.9287V14.8789C22.0149 14.6028 21.7911 14.3789 21.5149 14.3789H20.5149Z" fill="black"/>
<path d="M15.0928 14.3789C15.3689 14.3789 15.5928 14.6028 15.5928 14.8789C15.5928 15.155 15.3689 15.3789 15.0928 15.3789H14.5928V18.4287H15.0928C15.3689 18.4287 15.5927 18.6527 15.5928 18.9287C15.5928 19.2049 15.3689 19.4287 15.0928 19.4287H14.0928C13.8167 19.4287 13.5928 19.2049 13.5928 18.9287V14.8789C13.5928 14.6028 13.8167 14.3789 14.0928 14.3789H15.0928Z" fill="black"/>
</svg>