<svg viewBox="0 0 24 24" fill="none" xmlns="http://www.w3.org/2000/svg" width="24" height="24">
<path d="M3.76723 5.57571C3.6794 5.47905 3.6215 5.35899 3.60054 5.23007C3.57959 5.10116 3.59648 4.96893 3.64918 4.84943C3.70187 4.72993 3.78811 4.62828 3.89742 4.55681C4.00674 4.48534 4.13444 4.44712 4.26505 4.44678H19.115C19.2458 4.44679 19.3737 4.48478 19.4833 4.55612C19.5929 4.62746 19.6794 4.72909 19.7323 4.84866C19.7852 4.96823 19.8022 5.10059 19.7813 5.22966C19.7604 5.35873 19.7025 5.47895 19.6145 5.57571L13.715 11.8718V16.8204C13.7151 16.9315 13.6877 17.041 13.6353 17.139C13.5829 17.237 13.5071 17.3206 13.4147 17.3823L10.7147 19.182C10.6131 19.2498 10.4951 19.2887 10.3731 19.2947C10.2512 19.3007 10.1299 19.2735 10.0222 19.216C9.91449 19.1585 9.82439 19.0729 9.7615 18.9683C9.69861 18.8636 9.66527 18.7439 9.66505 18.6218V11.8718L3.76723 5.57571Z" fill="black" fill-opacity="0.2"/>
<path d="M19.1152 3.94678C19.3427 3.94683 19.5651 4.0131 19.7558 4.13721C19.9464 4.26134 20.0973 4.438 20.1894 4.646C20.2814 4.85401 20.3106 5.08453 20.2743 5.30908C20.238 5.53372 20.1373 5.74319 19.9843 5.91162L19.9794 5.91748L14.2148 12.0688V16.8198C14.2149 17.0133 14.1673 17.2039 14.0761 17.3745C14.0078 17.5024 13.9167 17.6163 13.8075 17.7104L13.6923 17.7983L10.9921 19.5981C10.8153 19.7161 10.6096 19.784 10.3974 19.7944C10.1852 19.8048 9.97443 19.7567 9.78703 19.6567C9.59961 19.5567 9.44241 19.4081 9.33293 19.2261C9.22345 19.0439 9.16535 18.8351 9.16496 18.6226V12.0688L3.40227 5.91748L3.39738 5.91162C3.24452 5.74337 3.14382 5.53444 3.10734 5.31006C3.07093 5.08582 3.09973 4.85584 3.19133 4.64795C3.28306 4.43993 3.43366 4.2626 3.62395 4.13818C3.81417 4.01387 4.03635 3.94738 4.26359 3.94678H19.1152ZM4.21672 4.95459C4.20065 4.95939 4.185 4.96583 4.17082 4.9751C4.14248 4.99363 4.12003 5.02029 4.10637 5.05127C4.09276 5.08221 4.08825 5.11654 4.09367 5.1499C4.09911 5.18332 4.11485 5.21469 4.13762 5.23975L10.0302 11.5298C10.1169 11.6224 10.1649 11.7447 10.165 11.8716V18.6206C10.165 18.6523 10.174 18.6833 10.1904 18.7104C10.2067 18.7376 10.2298 18.76 10.2577 18.7749C10.2856 18.7898 10.317 18.797 10.3486 18.7954C10.3802 18.7939 10.4111 18.7837 10.4374 18.7661L13.1366 16.9663C13.1606 16.9503 13.1807 16.9282 13.1943 16.9028C13.2077 16.8775 13.2148 16.8494 13.2148 16.8208V11.8716C13.2148 11.7447 13.2637 11.6224 13.3505 11.5298L19.2441 5.23975C19.2668 5.21468 19.2826 5.18333 19.288 5.1499C19.2934 5.11658 19.2889 5.08217 19.2753 5.05127C19.2616 5.02038 19.2391 4.99358 19.2109 4.9751C19.1825 4.95664 19.149 4.94683 19.1152 4.94678H4.26652L4.21672 4.95459Z" fill="black"/>
<path d="M18.3817 14.9908C18.6613 14.9908 18.8875 15.2172 18.8876 15.4967V17.0211H20.4013C20.6809 17.0211 20.9081 17.2474 20.9081 17.527C20.9081 17.8066 20.6809 18.0328 20.4013 18.0328H18.8876V19.5465C18.8876 19.8261 18.6613 20.0533 18.3817 20.0533C18.1021 20.0533 17.8759 19.8261 17.8759 19.5465V18.0328H16.3515C16.072 18.0327 15.8456 17.8065 15.8456 17.527C15.8456 17.2475 16.072 17.0212 16.3515 17.0211H17.8759V15.4967C17.876 15.2172 18.1022 14.9908 18.3817 14.9908Z" fill="black"/>
</svg>