<svg xmlns="http://www.w3.org/2000/svg" fill="currentColor" viewBox="0 0 24 24" width="24" height="24"><path d="M17.4 6.6v1.125a.68.68 0 0 1-.135.405l-1.755 2.341a.68.68 0 0 0-.135.405v9.225a.675.675 0 0 1-.675.675H9.3a.675.675 0 0 1-.675-.675v-9.225a.68.68 0 0 0-.135-.405L6.735 8.13a.68.68 0 0 1-.135-.405V6.6z" opacity=".2"/><path d="M16.725 2.55h-9.45a1.35 1.35 0 0 0-1.35 1.35v3.825a1.36 1.36 0 0 0 .27.81l1.755 2.341v9.225a1.35 1.35 0 0 0 1.35 1.35h5.4a1.35 1.35 0 0 0 1.35-1.35v-9.225l1.755-2.341a1.36 1.36 0 0 0 .27-.81V3.9a1.35 1.35 0 0 0-1.35-1.35M7.275 3.9h9.45v2.025h-9.45zm7.695 6.165a1.36 1.36 0 0 0-.27.81V20.1H9.3v-9.225a1.36 1.36 0 0 0-.27-.81L7.275 7.724v-.45h9.45v.45zm-2.295 1.26v2.7a.675.675 0 0 1-1.35 0v-2.7a.675.675 0 0 1 1.35 0"/></svg>