<svg xmlns="http://www.w3.org/2000/svg" fill="currentColor" viewBox="0 0 24 24" width="24" height="24"><path d="M16.725 2.719h-9.45A1.18 1.18 0 0 0 6.094 3.9v3.825a1.18 1.18 0 0 0 .236.709l1.755 2.34a.17.17 0 0 1 .034.102v9.225A1.18 1.18 0 0 0 9.3 21.282h5.4a1.18 1.18 0 0 0 1.181-1.181v-9.225a.17.17 0 0 1 .034-.101l1.755-2.341a1.18 1.18 0 0 0 .236-.709V3.9a1.18 1.18 0 0 0-1.181-1.181m-9.45 1.012h9.45a.17.17 0 0 1 .169.169v2.194H7.107V3.9a.17.17 0 0 1 .169-.169zm9.585 4.095-1.755 2.341a1.18 1.18 0 0 0-.236.709v9.225a.17.17 0 0 1-.169.169H9.3a.17.17 0 0 1-.169-.169v-9.225a1.18 1.18 0 0 0-.236-.709L7.14 7.827a.17.17 0 0 1-.034-.102v-.618h9.788v.618a.17.17 0 0 1-.034.101m-4.354 3.499v2.7a.507.507 0 0 1-1.013 0v-2.7a.506.506 0 0 1 1.012 0z"/></svg>