<svg xmlns="http://www.w3.org/2000/svg" width="24" height="24" fill="currentColor" viewBox="0 0 24 24"><path d="M10.21 3.418a1.17 1.17 0 0 0-1.323.697s0 .007 0 .01l-5.4 13.495a1.18 1.18 0 0 0 1.088 1.636h5.4a1.18 1.18 0 0 0 1.181-1.181v-13.5a1.17 1.17 0 0 0-.947-1.157zm-.066 14.657a.17.17 0 0 1-.169.169h-5.4a.17.17 0 0 1-.156-.235L4.423 18l5.4-13.493a.169.169 0 0 1 .321.068zm10.371-.455-5.4-13.495v-.01a1.181 1.181 0 0 0-2.271.46v13.5a1.18 1.18 0 0 0 1.181 1.181h5.4a1.18 1.18 0 0 0 1.091-1.636zm-.95.548a.16.16 0 0 1-.141.076h-5.399a.17.17 0 0 1-.169-.169v-13.5a.154.154 0 0 1 .135-.169.2.2 0 0 1 .046-.005.15.15 0 0 1 .143.101l5.4 13.493.004.009a.17.17 0 0 1-.019.163z"/></svg>