<svg xmlns="http://www.w3.org/2000/svg" width="24" height="24" fill="currentColor" viewBox="0 0 24 24"><path d="M9.3 18.75a.675.675 0 0 1-.675.675H4.523a1.3 1.3 0 0 1-1.298-1.298V17.4a.675.675 0 0 1 1.35 0v.675h4.05a.675.675 0 0 1 .675.675m5.4-.675H12a.675.675 0 0 0 0 1.35h2.7a.675.675 0 0 0 0-1.35m5.4-4.725a.675.675 0 0 0-.675.675v4.05h-1.35a.675.675 0 0 0 0 1.35H19.5a1.277 1.277 0 0 0 1.275-1.275v-4.125a.675.675 0 0 0-.675-.675m-.675-6.075h-4.05a.675.675 0 0 0 0 1.35h4.05v2.025a.675.675 0 0 0 1.35 0V8.625a1.35 1.35 0 0 0-1.35-1.35M3.9 8.625H12a.675.675 0 0 0 .478-1.153L9.975 4.97a1.34 1.34 0 0 0-.954-.396H4.575a1.35 1.35 0 0 0-1.35 1.35v2.025a.675.675 0 0 0 .675.675zm0 6.075a.675.675 0 0 0 .675-.675v-2.7a.675.675 0 0 0-1.35 0v2.7a.675.675 0 0 0 .675.675"/></svg>