<svg xmlns="http://www.w3.org/2000/svg" width="24" height="24" fill="currentColor" viewBox="0 0 24 24"><path d="M21.734 10.634a1.18 1.18 0 0 0-.959-.49h-1.519V8.625a1.18 1.18 0 0 0-1.181-1.181h-5.906L9.785 5.655a1.2 1.2 0 0 0-.709-.236H4.575A1.18 1.18 0 0 0 3.394 6.6v12.15a.506.506 0 0 0 .506.506h15.112a.51.51 0 0 0 .48-.346l2.404-7.212a1.18 1.18 0 0 0-.162-1.065zM4.575 6.431h4.501a.17.17 0 0 1 .101.034l2.519 1.89a.5.5 0 0 0 .304.101h6.075a.17.17 0 0 1 .169.169v1.519H7.087a1.18 1.18 0 0 0-1.12.807l-1.56 4.677V6.6a.17.17 0 0 1 .169-.169zm16.36 4.947-2.288 6.866H4.603l2.324-6.972a.17.17 0 0 1 .16-.116h13.688a.17.17 0 0 1 .16.222"/></svg>