<svg viewBox="0 0 24 24" fill="none" xmlns="http://www.w3.org/2000/svg" width="24" height="24">
<path d="M12.0165 10.4712C12.0338 10.4718 12.0511 10.4735 12.0683 10.4761C12.0805 10.4779 12.0925 10.4801 12.1044 10.4829C12.1196 10.4865 12.1345 10.4914 12.1493 10.4966C12.1606 10.5005 12.1717 10.5045 12.1825 10.5093C12.2317 10.5311 12.278 10.5618 12.3183 10.6021L14.1405 12.4243C14.3162 12.6 14.3162 12.8853 14.1405 13.061C13.9649 13.2366 13.6805 13.2365 13.5048 13.061L12.4501 12.0063V15.7808C12.4499 16.0291 12.2483 16.23 11.9999 16.23C11.7515 16.23 11.5499 16.0291 11.5497 15.7808V12.0063L10.496 13.061C10.3203 13.2367 10.035 13.2367 9.85928 13.061C9.68366 12.8853 9.68359 12.6 9.85928 12.4243L11.6815 10.6021C11.7028 10.5808 11.7258 10.5611 11.7509 10.5444C11.7729 10.5299 11.7975 10.5166 11.8212 10.5063C11.8309 10.5022 11.8414 10.5001 11.8515 10.4966C11.8674 10.491 11.883 10.4847 11.8993 10.481C11.9102 10.4785 11.9214 10.4777 11.9325 10.4761C11.9504 10.4734 11.9682 10.4717 11.9862 10.4712C11.9908 10.4711 11.9953 10.4702 11.9999 10.4702C12.0055 10.4702 12.011 10.471 12.0165 10.4712Z" fill="black"/>
<path fill-rule="evenodd" clip-rule="evenodd" d="M10.7782 7.44409H4.40576V5.9248C4.40581 5.88012 4.42397 5.83727 4.45557 5.80566C4.48717 5.77406 4.53002 5.75591 4.57471 5.75586H9.02002C9.06463 5.75588 9.10755 5.77419 9.13916 5.80566L10.7782 7.44409ZM3.39404 7.94995V18.1287C3.39486 18.4275 3.51382 18.7143 3.7251 18.9255C3.93629 19.1365 4.22246 19.2557 4.521 19.2566H19.4995C19.7927 19.2566 20.0743 19.1396 20.2817 18.9324C20.4892 18.725 20.6059 18.4435 20.606 18.1501V8.62476C20.6059 8.31159 20.4817 8.01127 20.2603 7.78979C20.0388 7.56836 19.7384 7.4442 19.4253 7.44409H12.2102L9.85498 5.08887C9.66128 4.89551 9.40721 4.77685 9.13721 4.75L9.021 4.74414H4.57471C4.26149 4.74419 3.96123 4.86836 3.73975 5.08984C3.51827 5.31132 3.39409 5.61159 3.39404 5.9248V7.94995ZM12.0092 8.45581H11.9908H4.40576V18.1257C4.40585 18.1569 4.4189 18.1867 4.44092 18.2087C4.46299 18.2308 4.49272 18.2438 4.52393 18.2439H19.4995C19.5242 18.2439 19.5484 18.2339 19.5659 18.2166C19.5835 18.199 19.5932 18.1749 19.5933 18.1501V8.62476C19.5932 8.58012 19.576 8.53721 19.5444 8.50562C19.5129 8.47406 19.4699 8.45591 19.4253 8.45581H12.0092Z" fill="black"/>
</svg>