<svg viewBox="0 0 24 24" fill="none" xmlns="http://www.w3.org/2000/svg" width="24" height="24">
<path d="M19.5 18.7495H4.52259C4.35758 18.749 4.19946 18.6833 4.08278 18.5666C3.96609 18.4499 3.90035 18.2918 3.8999 18.1268V7.94946H19.4249C19.6039 7.94946 19.7756 8.02058 19.9022 8.14717C20.0288 8.27375 20.0999 8.44544 20.0999 8.62446V18.1496C20.0999 18.3087 20.0367 18.4613 19.9242 18.5738C19.8117 18.6863 19.6591 18.7495 19.5 18.7495Z" fill="black" fill-opacity="0.2"/>
<path fill-rule="evenodd" clip-rule="evenodd" d="M9.85547 5.08838C9.66188 4.89513 9.40752 4.77646 9.1377 4.74951L9.02148 4.74365H4.5752C4.26209 4.7437 3.96169 4.86803 3.74023 5.08936C3.51875 5.31084 3.39361 5.6111 3.39355 5.92432V18.1284C3.39437 18.4272 3.51431 18.714 3.72559 18.9253C3.93676 19.1361 4.22306 19.2555 4.52148 19.2563H19.5C19.7931 19.2562 20.0749 19.1393 20.2822 18.9321C20.4895 18.7247 20.6064 18.4431 20.6064 18.1499V8.62451C20.6064 8.31146 20.482 8.011 20.2607 7.78955C20.0394 7.56823 19.7388 7.44408 19.4258 7.44385H12.2109L9.85547 5.08838ZM4.40625 18.1255C4.40633 18.1567 4.41939 18.1864 4.44141 18.2085C4.46345 18.2304 4.49332 18.2436 4.52441 18.2437H19.5C19.5245 18.2435 19.549 18.2336 19.5664 18.2163C19.5838 18.1988 19.5937 18.1746 19.5938 18.1499V8.62451C19.5937 8.57999 19.5763 8.53694 19.5449 8.50537C19.5135 8.47393 19.4702 8.4558 19.4258 8.45557H4.40625V18.1255ZM4.5752 5.75537C4.53063 5.75542 4.48763 5.77373 4.45605 5.80518C4.42445 5.83678 4.4063 5.87963 4.40625 5.92432V7.44385H10.7793L9.13965 5.80518C9.10816 5.77381 9.06495 5.75552 9.02051 5.75537H4.5752Z" fill="black"/>
<path d="M12.0166 10.4707C12.0339 10.4713 12.0512 10.473 12.0684 10.4756C12.0806 10.4775 12.0926 10.4796 12.1045 10.4824C12.1197 10.486 12.1346 10.4909 12.1494 10.4961C12.1607 10.5001 12.1718 10.504 12.1826 10.5088C12.2318 10.5306 12.2781 10.5613 12.3184 10.6016L14.1406 12.4238C14.3163 12.5995 14.3163 12.8848 14.1406 13.0605C13.965 13.2361 13.6806 13.236 13.5049 13.0605L12.4502 12.0059V15.7803C12.45 16.0286 12.2484 16.2295 12 16.2295C11.7516 16.2295 11.55 16.0286 11.5498 15.7803V12.0059L10.4961 13.0605C10.3204 13.2363 10.0351 13.2362 9.85938 13.0605C9.68376 12.8848 9.68369 12.5995 9.85938 12.4238L11.6816 10.6016C11.7029 10.5803 11.7259 10.5606 11.751 10.5439H11.7529C11.775 10.5294 11.7976 10.5161 11.8213 10.5059C11.831 10.5017 11.8415 10.4996 11.8516 10.4961C11.8675 10.4905 11.8831 10.4842 11.8994 10.4805C11.9103 10.478 11.9215 10.4773 11.9326 10.4756C11.9505 10.4729 11.9683 10.4713 11.9863 10.4707C11.9909 10.4706 11.9954 10.4697 12 10.4697C12.0056 10.4697 12.0111 10.4705 12.0166 10.4707Z" fill="black"/>
</svg>