<svg xmlns="http://www.w3.org/2000/svg" width="24" height="24" fill="currentColor" viewBox="0 0 24 24"><path d="M19.425 7.444H12.21L9.856 5.09a1.18 1.18 0 0 0-.835-.346H4.575a1.18 1.18 0 0 0-1.181 1.181v12.202a1.13 1.13 0 0 0 1.129 1.129H19.5a1.107 1.107 0 0 0 1.106-1.106V8.625a1.18 1.18 0 0 0-1.181-1.181M4.575 5.756h4.446a.17.17 0 0 1 .119.05l1.638 1.638H4.407V5.925a.17.17 0 0 1 .169-.169zM19.594 18.15a.094.094 0 0 1-.094.094H4.523a.12.12 0 0 1-.116-.116V8.457h15.019a.17.17 0 0 1 .169.169zm-5.063-4.8a.506.506 0 0 1-.506.506h-1.519v1.519a.507.507 0 0 1-1.013 0v-1.519H9.974a.506.506 0 0 1 0-1.012h1.519v-1.519a.507.507 0 0 1 1.013 0v1.519h1.519a.506.506 0 0 1 .506.506"/></svg>