<svg viewBox="0 0 24 24" fill="none" xmlns="http://www.w3.org/2000/svg" width="24" height="24">
<path d="M18.5049 10.5229C18.7845 10.5229 19.0107 10.7492 19.0107 11.0288V12.5532H20.5244C20.804 12.5532 21.0312 12.7795 21.0312 13.0591C21.0312 13.3387 20.804 13.5649 20.5244 13.5649H19.0107V15.0786C19.0107 15.3582 18.7845 15.5854 18.5049 15.5854C18.2253 15.5854 17.999 15.3582 17.999 15.0786V13.5649H16.4746C16.1951 13.5648 15.9688 13.3386 15.9688 13.0591C15.9688 12.7796 16.1951 12.5534 16.4746 12.5532H17.999V11.0288C17.999 10.7492 18.2253 10.523 18.5049 10.5229Z" fill="black"/>
<path fill-rule="evenodd" clip-rule="evenodd" d="M12.204 14.9629L13.4769 17.9527C13.549 18.1088 13.6331 18.2349 13.7292 18.331C13.8374 18.415 13.9756 18.457 14.1438 18.457C14.3 18.457 14.4141 18.421 14.4862 18.349C14.5704 18.2889 14.6124 18.1989 14.6124 18.0788C14.6244 17.9587 14.5944 17.8266 14.5223 17.6825L9.45748 6.04728C9.38538 5.86717 9.28925 5.74109 9.16909 5.66905C9.06095 5.58499 8.93478 5.54297 8.79058 5.54297C8.67042 5.54297 8.55026 5.58499 8.4301 5.66905C8.30994 5.74109 8.2078 5.86717 8.12368 6.04728L3.05887 17.6825C2.99879 17.8266 2.96875 17.9587 2.96875 18.0788C2.98077 18.1989 3.02883 18.2889 3.11294 18.349C3.20907 18.421 3.33524 18.457 3.49145 18.457C3.62363 18.457 3.73778 18.421 3.83391 18.349C3.94206 18.2649 4.03218 18.1328 4.10428 17.9527L5.37713 14.9629H12.204ZM5.80036 14.0083H11.7983L8.80861 7.01989H8.77256L5.80036 14.0083Z" fill="black"/>
<path fill-rule="evenodd" clip-rule="evenodd" d="M11.7983 14.0083H5.80036L8.77256 7.01989H8.80861L11.7983 14.0083Z" fill="black" fill-opacity="0.2"/>
</svg>