<svg xmlns="http://www.w3.org/2000/svg" width="24" height="24" fill="currentColor" viewBox="0 0 24 24"><path d="M18.075 14.363c0 .548-.618 1.012-1.35 1.012s-1.35-.464-1.35-1.012.618-1.012 1.35-1.012 1.35.464 1.35 1.012m2.7-8.438v12.15a1.35 1.35 0 0 1-1.35 1.35H4.575a1.35 1.35 0 0 1-1.35-1.35V5.925a1.35 1.35 0 0 1 1.35-1.35h14.85a1.35 1.35 0 0 1 1.35 1.35m-7.478 9.862L9.584 7.012a.675.675 0 0 0-1.244 0l-3.713 8.775a.676.676 0 0 0 1.244.527l.968-2.288h4.246l.968 2.288a.676.676 0 0 0 1.244-.527m6.128-4.124c0-1.303-1.212-2.363-2.7-2.363a2.94 2.94 0 0 0-1.753.564.675.675 0 0 0 .807 1.083 1.6 1.6 0 0 1 .947-.296c.722 0 1.333.452 1.35.992v.675a3 3 0 0 0-1.35-.317c-1.488 0-2.7 1.06-2.7 2.363s1.212 2.363 2.7 2.363a2.96 2.96 0 0 0 1.428-.359.675.675 0 0 0 1.272-.316zM7.411 12.676h3.103L8.962 9.008z"/></svg>