<svg xmlns="http://www.w3.org/2000/svg" width="24" height="24" fill="currentColor" viewBox="0 0 24 24"><path d="M18.75 3.9H5.25A1.35 1.35 0 0 0 3.9 5.25v13.5a1.35 1.35 0 0 0 1.35 1.35h13.5a1.35 1.35 0 0 0 1.35-1.35V5.25a1.35 1.35 0 0 0-1.35-1.35m-7.622 9.928-2.7 2.7a.675.675 0 0 1-.955 0l-1.35-1.35a.675.675 0 0 1 .955-.955l.872.873 2.222-2.223a.675.675 0 0 1 .955.955zm0-5.4-2.7 2.7a.675.675 0 0 1-.955 0l-1.35-1.35a.675.675 0 0 1 .955-.955l.872.873 2.222-2.223a.675.675 0 0 1 .955.955zm6.272 6.947h-4.05a.675.675 0 0 1 0-1.35h4.05a.675.675 0 0 1 0 1.35m0-5.4h-4.05a.675.675 0 0 1 0-1.35h4.05a.675.675 0 0 1 0 1.35"/></svg>