<svg viewBox="0 0 24 24" fill="none" xmlns="http://www.w3.org/2000/svg" width="24" height="24">
<path d="M13.5249 3.8999C13.5249 3.62376 13.7488 3.3999 14.0249 3.3999C14.301 3.3999 14.5249 3.62376 14.5249 3.8999V8.12451H18.7495C19.0255 8.12451 19.2493 8.34855 19.2495 8.62451C19.2495 8.90065 19.0257 9.12451 18.7495 9.12451H14.0249C13.7488 9.12451 13.5249 8.90065 13.5249 8.62451V3.8999Z" fill="black"/>
<path d="M4.75 19.4253V4.57471C4.75005 4.26315 4.87344 3.96396 5.09375 3.74365C5.31406 3.52334 5.61325 3.39995 5.9248 3.3999H14.0249L14.123 3.40967C14.2191 3.42889 14.3086 3.47607 14.3789 3.54639L19.1035 8.271C19.1972 8.36467 19.2494 8.49204 19.2495 8.62451L19.25 19.4253C19.2499 19.7366 19.1263 20.0351 18.9062 20.2554C18.6859 20.4757 18.3868 20.6 18.0752 20.6001H5.9248C5.61325 20.6 5.31406 20.4757 5.09375 20.2554C4.87373 20.0351 4.7501 19.7366 4.75 19.4253ZM5.75 19.4253C5.7501 19.4714 5.7683 19.5157 5.80078 19.5483C5.83355 19.5811 5.87846 19.6 5.9248 19.6001H18.0752C18.1215 19.6 18.1664 19.5811 18.1992 19.5483C18.2317 19.5157 18.2499 19.4714 18.25 19.4253V8.83154L13.8184 4.3999H5.9248C5.87846 4.39995 5.83355 4.41791 5.80078 4.45068C5.76801 4.48346 5.75005 4.52836 5.75 4.57471V19.4253Z" fill="black"/>
<path d="M13.1396 14.2C12.8636 14.2001 12.6396 14.4239 12.6396 14.7C12.6396 14.976 12.8636 15.1998 13.1396 15.2H15.8398C16.116 15.2 16.3398 14.9761 16.3398 14.7C16.3398 14.4238 16.116 14.2 15.8398 14.2H13.1396Z" fill="black"/>
<path d="M13.1396 11.5C12.8636 11.5001 12.6396 11.7239 12.6396 12C12.6396 12.2761 12.8636 12.4999 13.1396 12.5H15.8398C16.116 12.5 16.3398 12.2761 16.3398 12C16.3398 11.7239 16.116 11.5 15.8398 11.5H13.1396Z" fill="black"/>
<path d="M13.1396 16.8999C12.8636 16.9 12.6396 17.1238 12.6396 17.3999C12.6396 17.676 12.8636 17.8998 13.1396 17.8999H15.8398C16.116 17.8999 16.3398 17.676 16.3398 17.3999C16.3398 17.1238 16.116 16.8999 15.8398 16.8999H13.1396Z" fill="black"/>
<path d="M10.8604 14.2C11.1364 14.2001 11.3604 14.4239 11.3604 14.7C11.3604 14.976 11.1364 15.1998 10.8604 15.2H8.16016C7.88401 15.2 7.66016 14.9761 7.66016 14.7C7.66016 14.4238 7.88401 14.2 8.16016 14.2H10.8604Z" fill="black"/>
<path d="M10.8604 11.5C11.1364 11.5001 11.3604 11.7239 11.3604 12C11.3604 12.2761 11.1364 12.4999 10.8604 12.5H8.16016C7.88401 12.5 7.66016 12.2761 7.66016 12C7.66016 11.7239 7.88401 11.5 8.16016 11.5H10.8604Z" fill="black"/>
<path d="M10.8604 16.8999C11.1364 16.9 11.3604 17.1238 11.3604 17.3999C11.3604 17.676 11.1364 17.8998 10.8604 17.8999H8.16016C7.88401 17.8999 7.66016 17.676 7.66016 17.3999C7.66016 17.1238 7.88401 16.8999 8.16016 16.8999H10.8604Z" fill="black"/>
</svg>