<svg viewBox="0 0 24 24" fill="none" xmlns="http://www.w3.org/2000/svg" width="24" height="24">
<path d="M14.0254 3.22559C14.1139 3.22554 14.2014 3.24261 14.2832 3.27637C14.3651 3.31024 14.4402 3.36019 14.5029 3.42285L19.2275 8.14746C19.2901 8.2101 19.3402 8.28442 19.374 8.36621C19.4079 8.44812 19.4249 8.53636 19.4248 8.625V19.4248C19.4248 19.7828 19.2834 20.1267 19.0303 20.3799C18.7771 20.6331 18.4332 20.7754 18.0752 20.7754H5.9248C5.56697 20.7753 5.22377 20.6329 4.9707 20.3799C4.71753 20.1267 4.5752 19.7828 4.5752 19.4248V4.5752C4.5752 4.21715 4.71753 3.87329 4.9707 3.62012C5.22376 3.36719 5.56702 3.22569 5.9248 3.22559H14.0254ZM8.34082 16.7256C7.96803 16.7256 7.66602 17.0276 7.66602 17.4004C7.66628 17.773 7.96819 18.0752 8.34082 18.0752H11.041C11.4133 18.0748 11.7156 17.7727 11.7158 17.4004C11.7158 17.0278 11.4135 16.726 11.041 16.7256H8.34082ZM12.96 16.7256C12.5873 16.7257 12.2852 17.0277 12.2852 17.4004C12.2854 17.7729 12.5874 18.0751 12.96 18.0752H15.6602C16.0327 18.0751 16.3347 17.7729 16.335 17.4004C16.335 17.0277 16.0329 16.7257 15.6602 16.7256H12.96ZM8.34082 14.0254C7.96803 14.0254 7.66602 14.3274 7.66602 14.7002C7.66615 15.0729 7.96811 15.375 8.34082 15.375H11.041C11.4134 15.3746 11.7157 15.0726 11.7158 14.7002C11.7158 14.3276 11.4135 14.0258 11.041 14.0254H8.34082ZM12.96 14.0254C12.5873 14.0255 12.2852 14.3275 12.2852 14.7002C12.2852 15.0729 12.5873 15.3749 12.96 15.375H15.6602C16.0329 15.3749 16.335 15.0729 16.335 14.7002C16.335 14.3275 16.0329 14.0255 15.6602 14.0254H12.96ZM8.34082 11.3252C7.96803 11.3252 7.66602 11.6272 7.66602 12C7.66602 12.3728 7.96803 12.6748 8.34082 12.6748H11.041C11.4135 12.6744 11.7158 12.3726 11.7158 12C11.7158 11.6274 11.4135 11.3256 11.041 11.3252H8.34082ZM12.96 11.3252C12.5873 11.3253 12.2852 11.6273 12.2852 12C12.2852 12.3727 12.5873 12.6747 12.96 12.6748H15.6602C16.0329 12.6747 16.335 12.3727 16.335 12C16.335 11.6273 16.0329 11.3253 15.6602 11.3252H12.96ZM14.0254 8.625H17.7373L14.0254 4.91309V8.625Z" fill="black"/>
</svg>