<svg xmlns="http://www.w3.org/2000/svg" width="24" height="24" fill="currentColor" viewBox="0 0 24 24"><path d="M14.025 3.9v5.4a1.35 1.35 0 0 1-1.35 1.35H3.9A1.35 1.35 0 0 1 2.55 9.3V3.9A1.35 1.35 0 0 1 3.9 2.55h8.775a1.35 1.35 0 0 1 1.35 1.35" opacity=".2"/><path d="m6.122 9.778-2.7-2.7a.675.675 0 0 1 0-.955l2.7-2.7a.675.675 0 0 1 .955.955L4.854 6.6l2.223 2.222a.675.675 0 0 1-.955.955zm3.375 0a.675.675 0 0 0 .955 0l2.7-2.7a.675.675 0 0 0 0-.955l-2.7-2.7a.675.675 0 0 0-.955.955L11.72 6.6 9.497 8.822a.675.675 0 0 0 0 .955zm8.578-5.203H16.05a.675.675 0 0 0 0 1.35h2.025v12.15H5.925v-5.4a.675.675 0 0 0-1.35 0v5.4a1.35 1.35 0 0 0 1.35 1.35h12.15a1.35 1.35 0 0 0 1.35-1.35V5.925a1.35 1.35 0 0 0-1.35-1.35"/></svg>