<svg xmlns="http://www.w3.org/2000/svg" width="24" height="24" fill="currentColor" viewBox="0 0 24 24"><path d="m6.242 9.658-2.7-2.7a.506.506 0 0 1 0-.716l2.7-2.7a.506.506 0 1 1 .716.716L4.617 6.6l2.341 2.342a.506.506 0 1 1-.716.715zm3.375 0a.506.506 0 0 0 .716 0l2.7-2.7a.506.506 0 0 0 0-.716l-2.7-2.7a.506.506 0 1 0-.716.716L11.958 6.6 9.617 8.942a.506.506 0 0 0 0 .715zm8.458-4.914H16.05a.507.507 0 0 0 0 1.013h2.025a.17.17 0 0 1 .169.169v12.15a.17.17 0 0 1-.169.169H5.925a.17.17 0 0 1-.169-.169v-5.4a.507.507 0 0 0-1.013 0v5.4a1.18 1.18 0 0 0 1.181 1.181h12.15a1.18 1.18 0 0 0 1.181-1.181V5.926a1.18 1.18 0 0 0-1.181-1.181z"/></svg>