<svg xmlns="http://www.w3.org/2000/svg" width="24" height="24" fill="currentColor" viewBox="0 0 24 24"><path d="m22.09 11.017-7.44-4.739a1.18 1.18 0 0 0-1.2-.039 1.17 1.17 0 0 0-.607 1.023v3.459L5.874 6.278a1.18 1.18 0 0 0-1.2-.039 1.17 1.17 0 0 0-.607 1.023v9.477a1.17 1.17 0 0 0 .607 1.023 1.18 1.18 0 0 0 1.2-.039l6.969-4.439v3.455a1.17 1.17 0 0 0 .607 1.023 1.18 1.18 0 0 0 1.2-.039l7.44-4.739a1.164 1.164 0 0 0 0-1.966zm-9.318 1.112-7.438 4.738a.16.16 0 0 1-.169.005.15.15 0 0 1-.084-.134V7.261a.15.15 0 0 1 .084-.134.2.2 0 0 1 .084-.022.16.16 0 0 1 .084.027l7.441 4.739a.152.152 0 0 1 0 .258zm8.775 0-7.438 4.738a.16.16 0 0 1-.169.005.15.15 0 0 1-.084-.134V7.261a.15.15 0 0 1 .084-.134.2.2 0 0 1 .084-.022.16.16 0 0 1 .084.027l7.441 4.739a.152.152 0 0 1 0 .258z"/></svg>