<svg viewBox="0 0 24 24" fill="none" xmlns="http://www.w3.org/2000/svg" width="24" height="24">
<path d="M5.92505 6.6748C5.92505 6.26059 6.26084 5.9248 6.67505 5.9248H17.325C17.7392 5.9248 18.075 6.26059 18.075 6.6748V17.3247C18.075 17.7389 17.7392 18.0747 17.325 18.0747H6.67505C6.26084 18.0747 5.92505 17.7389 5.92505 17.3247V6.6748Z" fill="black" fill-opacity="0.2"/>
<path d="M11.5 18.0754V5.92505C11.5 5.64891 11.7239 5.42505 12 5.42505C12.2761 5.42505 12.5 5.64891 12.5 5.92505V18.0754C12.4998 18.3514 12.276 18.5754 12 18.5754C11.724 18.5754 11.5002 18.3514 11.5 18.0754Z" fill="black"/>
<path d="M17.5754 8.62524V6.42505H6.42505V8.62524C6.42494 8.9013 6.20113 9.12524 5.92505 9.12524C5.64897 9.12524 5.42515 8.9013 5.42505 8.62524V5.92505C5.42505 5.64891 5.64891 5.42505 5.92505 5.42505H18.0754C18.3514 5.42526 18.5754 5.64904 18.5754 5.92505V8.62524C18.5753 8.90117 18.3513 9.12503 18.0754 9.12524C17.7994 9.12524 17.5755 8.9013 17.5754 8.62524Z" fill="black"/>
<path d="M14.7004 17.575C14.9764 17.5752 15.2004 17.7989 15.2004 18.075C15.2004 18.351 14.9764 18.5747 14.7004 18.575H9.30005C9.02391 18.575 8.80005 18.3511 8.80005 18.075C8.80005 17.7988 9.02391 17.575 9.30005 17.575H14.7004Z" fill="black"/>
</svg>