<svg xmlns="http://www.w3.org/2000/svg" width="24" height="24" fill="currentColor" viewBox="0 0 24 24"><path d="M20.1 5.25v13.5a1.35 1.35 0 0 1-1.35 1.35H5.25a1.35 1.35 0 0 1-1.35-1.35V5.25A1.35 1.35 0 0 1 5.25 3.9h13.5a1.35 1.35 0 0 1 1.35 1.35" opacity=".2"/><path d="M13.35 9.975V6.6a.675.675 0 0 1 1.35 0v1.746l3.572-3.573a.675.675 0 0 1 .955.955L15.654 9.3H17.4a.675.675 0 0 1 0 1.35h-3.375a.675.675 0 0 1-.675-.675M9.975 13.35H6.6a.675.675 0 0 0 0 1.35h1.746l-3.573 3.572a.675.675 0 0 0 .955.955L9.3 15.654V17.4a.675.675 0 0 0 1.35 0v-3.375a.675.675 0 0 0-.675-.675m5.679 1.35H17.4a.675.675 0 0 0 0-1.35h-3.375a.675.675 0 0 0-.675.675V17.4a.675.675 0 0 0 1.35 0v-1.746l3.572 3.573a.675.675 0 0 0 .955-.955zM9.975 5.925A.675.675 0 0 0 9.3 6.6v1.746L5.728 4.773a.675.675 0 0 0-.955.955L8.346 9.3H6.6a.675.675 0 0 0 0 1.35h3.375a.675.675 0 0 0 .675-.675V6.6a.675.675 0 0 0-.675-.675"/></svg>