<svg xmlns="http://www.w3.org/2000/svg" width="24" height="24" fill="currentColor" viewBox="0 0 24 24"><path d="M13.35 9.975V6.6a.675.675 0 0 1 1.153-.478l1.21 1.211 2.56-2.561a.675.675 0 0 1 .955.955l-2.561 2.56 1.211 1.21a.675.675 0 0 1-.478 1.153h-3.375a.675.675 0 0 1-.675-.675M9.975 13.35H6.6a.675.675 0 0 0-.478 1.153l1.211 1.21-2.561 2.56a.675.675 0 0 0 .955.955l2.56-2.561 1.21 1.211a.675.675 0 0 0 1.153-.478v-3.375a.675.675 0 0 0-.675-.675m.258-7.374a.675.675 0 0 0-.736.146l-1.21 1.211-2.56-2.561a.675.675 0 0 0-.955.955l2.561 2.56-1.211 1.21A.675.675 0 0 0 6.6 10.65h3.375a.675.675 0 0 0 .675-.675V6.6a.675.675 0 0 0-.417-.624m6.434 9.736 1.211-1.21a.675.675 0 0 0-.478-1.153h-3.375a.675.675 0 0 0-.675.675v3.375a.675.675 0 0 0 1.153.478l1.21-1.211 2.56 2.561a.675.675 0 0 0 .955-.955z"/></svg>