<svg xmlns="http://www.w3.org/2000/svg" width="24" height="24" fill="currentColor" viewBox="0 0 24 24"><path d="M18.75 12.844H5.25a1.18 1.18 0 0 0-1.181 1.181V17.4a1.18 1.18 0 0 0 1.181 1.181h13.5a1.18 1.18 0 0 0 1.181-1.181v-3.375a1.18 1.18 0 0 0-1.181-1.181m.169 4.556a.17.17 0 0 1-.169.169H5.25a.17.17 0 0 1-.169-.169v-3.375a.17.17 0 0 1 .169-.169h13.5a.17.17 0 0 1 .169.169zM18.75 5.419H5.25A1.18 1.18 0 0 0 4.069 6.6v3.375a1.18 1.18 0 0 0 1.181 1.181h13.5a1.18 1.18 0 0 0 1.181-1.181V6.6a1.18 1.18 0 0 0-1.181-1.181m.169 4.556a.17.17 0 0 1-.169.169H5.25a.17.17 0 0 1-.169-.169V6.6a.17.17 0 0 1 .169-.169h13.5a.17.17 0 0 1 .169.169z"/></svg>