<svg xmlns="http://www.w3.org/2000/svg" width="24" height="24" fill="currentColor" viewBox="0 0 24 24"><path d="M10.65 5.25v13.5a.675.675 0 0 1-.675.675H6.6a.675.675 0 0 1-.675-.675V5.25a.675.675 0 0 1 .675-.675h3.375a.675.675 0 0 1 .675.675m6.75-.675h-3.375a.675.675 0 0 0-.675.675v13.5a.675.675 0 0 0 .675.675H17.4a.675.675 0 0 0 .675-.675V5.25a.675.675 0 0 0-.675-.675" opacity=".2"/><path d="M9.975 3.9H6.6a1.35 1.35 0 0 0-1.35 1.35v13.5A1.35 1.35 0 0 0 6.6 20.1h3.375a1.35 1.35 0 0 0 1.35-1.35V5.25a1.35 1.35 0 0 0-1.35-1.35m0 14.85H6.6V5.25h3.375zM17.4 3.9h-3.375a1.35 1.35 0 0 0-1.35 1.35v13.5a1.35 1.35 0 0 0 1.35 1.35H17.4a1.35 1.35 0 0 0 1.35-1.35V5.25A1.35 1.35 0 0 0 17.4 3.9m0 14.85h-3.375V5.25H17.4z"/></svg>