<svg xmlns="http://www.w3.org/2000/svg" width="24" height="24" fill="currentColor" viewBox="0 0 24 24"><path d="M21.45 14.025v2.025a1.35 1.35 0 0 1-1.35 1.35h-9.118a.338.338 0 0 1-.273-.536l5.196-7.142a.693.693 0 0 0-.116-.953.675.675 0 0 0-.959.136l-6.075 8.358a.34.34 0 0 1-.277.138H3.901a1.35 1.35 0 0 1-1.35-1.35v-1.93c0-.151 0-.301.011-.45a.34.34 0 0 1 .337-.321h2.352a.675.675 0 0 0 .675-.72.69.69 0 0 0-.698-.63H3.219a.338.338 0 0 1-.327-.422c1.013-3.699 4.19-6.508 8.059-6.942a.34.34 0 0 1 .374.337v2.302a.675.675 0 0 0 .72.675.69.69 0 0 0 .63-.698V4.969a.34.34 0 0 1 .374-.337 9.465 9.465 0 0 1 8.083 6.947.338.338 0 0 1-.327.422h-2.032a.69.69 0 0 0-.696.63.675.675 0 0 0 .675.72h2.356a.34.34 0 0 1 .337.326 8 8 0 0 1 .005.349z"/></svg>