<svg xmlns="http://www.w3.org/2000/svg" width="24" height="24" fill="currentColor" viewBox="0 0 24 24"><path d="M21.276 10.246a.68.68 0 0 0-.328-.456l-2.517-1.434-.01-2.837a.68.68 0 0 0-.239-.513 9.4 9.4 0 0 0-3.098-1.744.68.68 0 0 0-.545.05L12 4.731 9.459 3.309a.68.68 0 0 0-.546-.051 9.4 9.4 0 0 0-3.095 1.751.68.68 0 0 0-.239.512L5.566 8.36 3.049 9.794a.68.68 0 0 0-.328.456 9 9 0 0 0 0 3.507.68.68 0 0 0 .328.456l2.517 1.434.01 2.838a.68.68 0 0 0 .239.513 9.4 9.4 0 0 0 3.098 1.744.68.68 0 0 0 .545-.05l2.541-1.423 2.541 1.422a.7.7 0 0 0 .329.084.7.7 0 0 0 .217-.035 9.5 9.5 0 0 0 3.095-1.749.68.68 0 0 0 .239-.512l.013-2.839 2.517-1.434a.68.68 0 0 0 .328-.456 9 9 0 0 0-.003-3.503zM12 15.375A3.375 3.375 0 1 1 15.375 12 3.375 3.375 0 0 1 12 15.375"/></svg>