<svg xmlns="http://www.w3.org/2000/svg" width="24" height="24" fill="currentColor" viewBox="0 0 24 24"><path d="M12 8.119A3.881 3.881 0 1 0 15.881 12 3.886 3.886 0 0 0 12 8.119m0 6.75A2.869 2.869 0 1 1 14.869 12 2.87 2.87 0 0 1 12 14.869m9.113-4.59a.5.5 0 0 0-.246-.338l-2.568-1.466-.035-.06-.01-2.895a.5.5 0 0 0-.177-.385 9.3 9.3 0 0 0-3.043-1.714.5.5 0 0 0-.408.038L12.042 4.9h-.084L9.38 3.457a.5.5 0 0 0-.41-.037 9.3 9.3 0 0 0-3.042 1.718.5.5 0 0 0-.179.384l-.013 2.897-.035.06-2.565 1.459a.5.5 0 0 0-.246.342 8.8 8.8 0 0 0 0 3.441.5.5 0 0 0 .246.338l2.567 1.462.035.06.01 2.895a.5.5 0 0 0 .179.389 9.3 9.3 0 0 0 3.043 1.714.5.5 0 0 0 .408-.038l2.583-1.441h.084l2.579 1.443a.5.5 0 0 0 .246.064.5.5 0 0 0 .163-.027 9.3 9.3 0 0 0 3.037-1.718.5.5 0 0 0 .179-.384l.014-2.897.035-.06 2.567-1.459a.5.5 0 0 0 .246-.342 8.8 8.8 0 0 0 .003-3.441zm-.949 3.02-2.483 1.41a.5.5 0 0 0-.192.194c-.05.084-.102.178-.157.265a.5.5 0 0 0-.077.267l-.014 2.802a8.3 8.3 0 0 1-2.322 1.31l-2.497-1.397a.5.5 0 0 0-.247-.065h-.328a.5.5 0 0 0-.259.064l-2.503 1.397a8.3 8.3 0 0 1-2.325-1.307l-.01-2.799a.5.5 0 0 0-.077-.267 5 5 0 0 1-.157-.265.5.5 0 0 0-.192-.194l-2.483-1.415a7.9 7.9 0 0 1 0-2.598l2.479-1.41a.5.5 0 0 0 .196-.194c.05-.084.102-.178.157-.265a.5.5 0 0 0 .077-.267l.013-2.802a8.3 8.3 0 0 1 2.319-1.31l2.497 1.397a.5.5 0 0 0 .259.064h.316a.5.5 0 0 0 .259-.064l2.502-1.397A8.3 8.3 0 0 1 17.24 5.76l.01 2.799a.5.5 0 0 0 .077.267c.054.084.107.176.157.265a.5.5 0 0 0 .192.194l2.485 1.416a7.9 7.9 0 0 1 .003 2.598"/></svg>