<svg xmlns="http://www.w3.org/2000/svg" fill="currentColor" viewBox="0 0 24 24" width="24" height="24"><path d="M18.75 12A6.75 6.75 0 1 1 12 5.25 6.75 6.75 0 0 1 18.75 12" opacity=".2"/><path d="M20.775 11.325h-1.381a7.4 7.4 0 0 0-.653-2.437l1.196-.691a.675.675 0 0 0-.675-1.169l-1.198.692a7.5 7.5 0 0 0-1.784-1.784l.692-1.198a.675.675 0 0 0-1.169-.675l-.691 1.196a7.4 7.4 0 0 0-2.437-.653V3.225a.675.675 0 0 0-1.35 0v1.381a7.4 7.4 0 0 0-2.437.653l-.691-1.196a.675.675 0 0 0-1.169.675l.692 1.198A7.5 7.5 0 0 0 5.936 7.72l-1.198-.692a.675.675 0 0 0-.675 1.169l1.196.691a7.4 7.4 0 0 0-.653 2.437H3.225a.675.675 0 0 0 0 1.35h1.381a7.4 7.4 0 0 0 .653 2.437l-1.196.691a.675.675 0 0 0 .337 1.26.67.67 0 0 0 .337-.09l1.198-.692a7.5 7.5 0 0 0 1.784 1.784l-.692 1.198a.675.675 0 0 0 1.169.675l.691-1.196a7.4 7.4 0 0 0 2.437.653v1.381a.675.675 0 0 0 1.35 0v-1.381a7.4 7.4 0 0 0 2.437-.653l.691 1.196a.675.675 0 0 0 1.169-.675l-.692-1.198a7.5 7.5 0 0 0 1.784-1.784l1.198.692a.675.675 0 0 0 .922-.247.675.675 0 0 0-.246-.922l-1.196-.691a7.4 7.4 0 0 0 .652-2.437h1.381a.675.675 0 0 0 0-1.35zM8.398 16.889a6.068 6.068 0 0 1 0-9.777l2.822 4.889zM12 18.075a6 6 0 0 1-2.433-.506l2.823-4.894h5.646a6.08 6.08 0 0 1-6.036 5.4m.39-6.75-2.823-4.89a6.07 6.07 0 0 1 8.47 4.894z"/></svg>