<svg xmlns="http://www.w3.org/2000/svg" width="24" height="24" fill="currentColor" viewBox="0 0 24 24"><path d="m20.615 10.377-2.687-1.531a8 8 0 0 0-.169-.288l-.01-3.037a8.8 8.8 0 0 0-2.88-1.621l-2.7 1.509h-.338L9.131 3.9a8.8 8.8 0 0 0-2.878 1.624L6.24 8.561a6 6 0 0 0-.169.288l-2.687 1.527a8.4 8.4 0 0 0 0 3.245l2.687 1.531q.082.146.169.288l.01 3.037A8.8 8.8 0 0 0 9.131 20.1l2.7-1.508h.338l2.7 1.508a8.8 8.8 0 0 0 2.876-1.624l.014-3.037q.089-.143.169-.288l2.686-1.527a8.4 8.4 0 0 0 .002-3.247zM12 15.375A3.375 3.375 0 1 1 15.375 12 3.375 3.375 0 0 1 12 15.375" opacity=".2"/><path d="M12 7.95A4.05 4.05 0 1 0 16.05 12 4.054 4.054 0 0 0 12 7.95m0 6.75a2.7 2.7 0 1 1 2.7-2.7 2.7 2.7 0 0 1-2.7 2.7m9.276-4.454a.68.68 0 0 0-.328-.456l-2.517-1.434-.01-2.837a.68.68 0 0 0-.239-.513 9.4 9.4 0 0 0-3.098-1.744.68.68 0 0 0-.545.05L12 4.731 9.459 3.309a.68.68 0 0 0-.546-.051 9.4 9.4 0 0 0-3.095 1.751.68.68 0 0 0-.239.512L5.566 8.36 3.049 9.794a.68.68 0 0 0-.328.456 9 9 0 0 0 0 3.507.68.68 0 0 0 .328.456l2.517 1.434.01 2.838a.68.68 0 0 0 .239.513 9.4 9.4 0 0 0 3.098 1.744.68.68 0 0 0 .545-.05l2.541-1.423 2.541 1.422a.7.7 0 0 0 .329.084.7.7 0 0 0 .217-.035 9.5 9.5 0 0 0 3.095-1.749.68.68 0 0 0 .239-.512l.013-2.839 2.517-1.434a.68.68 0 0 0 .328-.456 9 9 0 0 0-.003-3.503zm-1.266 2.946-2.411 1.371a.7.7 0 0 0-.253.253c-.049.084-.1.174-.153.258a.67.67 0 0 0-.103.355l-.013 2.721a8.1 8.1 0 0 1-2.141 1.207l-2.432-1.355a.7.7 0 0 0-.33-.084h-.323a.7.7 0 0 0-.346.084L9.072 19.36a8.1 8.1 0 0 1-2.147-1.201l-.009-2.717a.7.7 0 0 0-.103-.356 5 5 0 0 1-.152-.258.7.7 0 0 0-.253-.258l-2.413-1.374a7.6 7.6 0 0 1 0-2.384l2.406-1.374a.7.7 0 0 0 .253-.253c.049-.084.1-.174.153-.258a.67.67 0 0 0 .103-.355l.013-2.721a8.1 8.1 0 0 1 2.141-1.207l2.428 1.355a.7.7 0 0 0 .346.084h.307a.7.7 0 0 0 .346-.084l2.433-1.358a8.1 8.1 0 0 1 2.147 1.201l.009 2.717a.7.7 0 0 0 .103.356q.079.125.152.258a.7.7 0 0 0 .253.258l2.413 1.374a7.6 7.6 0 0 1 .004 2.387z"/></svg>