<svg xmlns="http://www.w3.org/2000/svg" fill="currentColor" viewBox="0 0 24 24" width="24" height="24"><path d="M12 8.119A3.881 3.881 0 1 0 15.881 12 3.886 3.886 0 0 0 12 8.119m0 6.75A2.869 2.869 0 1 1 14.869 12 2.87 2.87 0 0 1 12 14.869m7.256-2.629a8 8 0 0 0 0-.479l1.293-1.617a.5.5 0 0 0 .094-.446 9 9 0 0 0-.901-2.178.5.5 0 0 0-.382-.253l-2.063-.229q-.163-.175-.338-.338l-.229-2.064a.5.5 0 0 0-.253-.382 9 9 0 0 0-2.174-.899.5.5 0 0 0-.446.096l-1.62 1.297a8 8 0 0 0-.479 0L10.145 3.45a.5.5 0 0 0-.446-.094 9 9 0 0 0-2.178.901.5.5 0 0 0-.253.382l-.225 2.063q-.175.164-.338.338l-2.065.235a.5.5 0 0 0-.382.253 9 9 0 0 0-.899 2.174.5.5 0 0 0 .094.441l1.297 1.62a8 8 0 0 0 0 .479l-1.298 1.617a.5.5 0 0 0-.094.446 9 9 0 0 0 .901 2.173.5.5 0 0 0 .382.253l2.063.229q.164.175.338.337l.235 2.061a.5.5 0 0 0 .253.382 9 9 0 0 0 2.174.899.5.5 0 0 0 .446-.094l1.612-1.293q.24.007.479 0l1.621 1.298a.5.5 0 0 0 .316.111.5.5 0 0 0 .13-.017 9 9 0 0 0 2.174-.901.5.5 0 0 0 .253-.382l.229-2.063q.175-.163.338-.338l2.064-.229a.5.5 0 0 0 .382-.253 9 9 0 0 0 .899-2.174.5.5 0 0 0-.094-.446zm-.262 3.513-1.995.222a.5.5 0 0 0-.322.169 6 6 0 0 1-.532.532.5.5 0 0 0-.169.322l-.222 1.994a8 8 0 0 1-1.465.602l-1.567-1.254a.5.5 0 0 0-.316-.111h-.03a7 7 0 0 1-.753 0 .5.5 0 0 0-.347.11L9.71 19.594a8 8 0 0 1-1.463-.605l-.222-1.993a.5.5 0 0 0-.169-.322 6 6 0 0 1-.532-.532.5.5 0 0 0-.322-.169l-1.994-.222a8 8 0 0 1-.602-1.461l1.254-1.567a.5.5 0 0 0 .11-.347 7 7 0 0 1 0-.753.5.5 0 0 0-.11-.347L4.406 9.71a8 8 0 0 1 .605-1.463l1.993-.222a.5.5 0 0 0 .322-.169 6 6 0 0 1 .532-.532.5.5 0 0 0 .169-.322l.222-1.994a8 8 0 0 1 1.461-.602l1.567 1.254a.5.5 0 0 0 .347.11 7 7 0 0 1 .753 0 .5.5 0 0 0 .347-.11l1.566-1.254a8 8 0 0 1 1.463.605l.222 1.995a.5.5 0 0 0 .169.322 6 6 0 0 1 .532.532.5.5 0 0 0 .322.169l1.994.222a8 8 0 0 1 .602 1.459l-1.254 1.567a.5.5 0 0 0-.11.347 7 7 0 0 1 0 .753.5.5 0 0 0 .11.347l1.254 1.566a8 8 0 0 1-.603 1.463z"/></svg>