<svg xmlns="http://www.w3.org/2000/svg" fill="currentColor" viewBox="0 0 24 24" width="24" height="24"><path d="M10.65 14.194a.506.506 0 0 0-.506.506v2.828l-3.465-3.466a.84.84 0 0 1-.247-.597V9.077a2.531 2.531 0 1 0-1.013 0v4.388a1.85 1.85 0 0 0 .543 1.313l3.466 3.465H6.6a.506.506 0 0 0 0 1.012h4.05a.506.506 0 0 0 .506-.506v-4.05a.506.506 0 0 0-.506-.506zM4.406 6.6a1.519 1.519 0 1 1 1.519 1.519A1.52 1.52 0 0 1 4.406 6.6m14.175 8.319v-4.388a1.85 1.85 0 0 0-.543-1.313l-3.466-3.463H17.4a.507.507 0 0 0 0-1.013h-4.05a.506.506 0 0 0-.506.506v4.05a.506.506 0 0 0 1.012 0V6.47l3.465 3.466a.84.84 0 0 1 .247.597v4.388a2.531 2.531 0 1 0 1.012 0zm-.506 3.999a1.519 1.519 0 1 1 1.519-1.519 1.52 1.52 0 0 1-1.519 1.519"/></svg>