<svg xmlns="http://www.w3.org/2000/svg" fill="currentColor" viewBox="0 0 24 24" width="24" height="24"><path d="M11.171 19.179q-.014.018-.03.034l-.014.015-.014.013-.035.031-.027.021-.025.019-.032.019-.025.014-.031.016-.029.013-.03.011-.032.011-.03.008c-.012 0-.022.006-.034.008l-.035.006-.03.004H6.601a.675.675 0 0 1 0-1.35h2.421l-3.18-3.174a2 2 0 0 1-.591-1.434V9.217a2.7 2.7 0 1 1 1.35 0v4.251a.68.68 0 0 0 .197.474l3.178 3.18v-2.421a.675.675 0 0 1 1.35 0v4.144c0 .009 0 .025-.006.039l-.008.031q-.002.016-.008.033l-.01.03-.012.033-.013.026-.016.034-.014.024-.02.033-.018.024zm7.579-4.394v-4.25a2 2 0 0 0-.591-1.434l-3.18-3.175H17.4a.675.675 0 0 0 0-1.35h-4.116q-.018-.001-.035.005h-.031l-.036.009-.028.007-.034.012-.029.011-.03.014-.03.015-.026.015-.03.019-.026.019-.027.02-.035.031-.014.013-.014.015q-.016.016-.03.034l-.022.03-.018.024-.02.033-.014.024c-.005.008-.011.023-.016.034l-.013.026-.012.033c0 .01-.008.019-.01.03l-.008.033-.008.031q.002.02-.006.039c-.008.019 0 .018-.004.027v4.124a.675.675 0 0 0 1.35 0V6.882l3.174 3.18a.68.68 0 0 1 .197.478v4.247a2.7 2.7 0 1 0 1.35 0z"/></svg>