<svg xmlns="http://www.w3.org/2000/svg" fill="currentColor" viewBox="0 0 24 24" width="24" height="24"><path d="M18.75 10.819a2.53 2.53 0 0 0-2.465 1.957l-3.713-.53a.84.84 0 0 1-.521-.286L8.893 8.274a2.531 2.531 0 1 0-1.45.132v7.189a2.531 2.531 0 1 0 1.013 0V9.319l2.828 3.3a1.86 1.86 0 0 0 1.148.629l3.826.547a2.531 2.531 0 1 0 2.492-2.976M6.431 5.925A1.519 1.519 0 1 1 7.95 7.444a1.52 1.52 0 0 1-1.519-1.519m3.038 12.15a1.519 1.519 0 1 1-1.519-1.519 1.52 1.52 0 0 1 1.519 1.519m9.281-3.206a1.519 1.519 0 1 1 1.519-1.519 1.52 1.52 0 0 1-1.519 1.519"/></svg>