<svg xmlns="http://www.w3.org/2000/svg" fill="currentColor" viewBox="0 0 24 24" width="24" height="24"><path d="M9.975 5.925A2.025 2.025 0 1 1 7.95 3.9a2.025 2.025 0 0 1 2.025 2.025" opacity=".2"/><path d="M18.75 10.65a2.7 2.7 0 0 0-2.589 1.941l-3.561-.506a.68.68 0 0 1-.418-.229L9.168 8.334a2.7 2.7 0 1 0-1.893.207v6.919a2.7 2.7 0 1 0 1.35 0V9.776l2.531 2.953a2.03 2.03 0 0 0 1.251.687l3.713.53a2.7 2.7 0 1 0 2.63-3.295zM6.6 5.925a1.35 1.35 0 1 1 1.35 1.35 1.35 1.35 0 0 1-1.35-1.35m2.7 12.15a1.35 1.35 0 1 1-1.35-1.35 1.35 1.35 0 0 1 1.35 1.35m9.45-3.375a1.35 1.35 0 1 1 1.35-1.35 1.35 1.35 0 0 1-1.35 1.35"/></svg>