<svg xmlns="http://www.w3.org/2000/svg" fill="currentColor" viewBox="0 0 24 24" width="24" height="24"><path d="M19.931 6.6a2.531 2.531 0 1 0-3.037 2.481v1.569a.844.844 0 0 1-.844.844h-8.1a.844.844 0 0 1-.844-.844V9.081a2.531 2.531 0 1 0-1.013 0v1.569a1.856 1.856 0 0 0 1.856 1.856h3.544v2.413a2.531 2.531 0 1 0 1.012 0v-2.413h3.544a1.856 1.856 0 0 0 1.856-1.856V9.081A2.535 2.535 0 0 0 19.93 6.6zm-14.85 0A1.519 1.519 0 1 1 6.6 8.119 1.52 1.52 0 0 1 5.081 6.6m8.438 10.8A1.519 1.519 0 1 1 12 15.881a1.52 1.52 0 0 1 1.519 1.519M17.4 8.119A1.519 1.519 0 1 1 18.919 6.6 1.52 1.52 0 0 1 17.4 8.119"/></svg>