<svg viewBox="0 0 24 24" fill="none" xmlns="http://www.w3.org/2000/svg" width="24" height="24">
<path d="M15.8705 14.9454C16.1584 14.9454 16.4442 15.0022 16.7103 15.1124C16.976 15.2225 17.2178 15.3838 17.4212 15.587L17.5707 15.753C17.7118 15.9257 17.8266 16.1193 17.9095 16.3272C18.0201 16.6047 18.0725 16.9027 18.0638 17.2013C18.0556 17.4771 17.8259 17.6944 17.5501 17.6866C17.2742 17.6785 17.0568 17.4479 17.0648 17.172C17.0695 17.01 17.0408 16.8479 16.9808 16.6974C16.9208 16.5469 16.83 16.4103 16.7152 16.296L16.7142 16.295C16.6035 16.1844 16.4721 16.0961 16.3275 16.0362C16.1828 15.9763 16.0271 15.9454 15.8705 15.9454C15.714 15.9455 15.559 15.9764 15.4144 16.0362C15.3059 16.0812 15.2041 16.1417 15.1136 16.2159L15.0267 16.295L13.766 17.5558C13.5425 17.7791 13.4168 18.0826 13.4164 18.3985C13.4161 18.7144 13.5412 19.0184 13.764 19.2423C13.8747 19.3533 14.0069 19.4418 14.1517 19.502C14.2965 19.5622 14.4519 19.5937 14.6087 19.5938C14.7655 19.594 14.9209 19.5629 15.0658 19.503C15.2107 19.443 15.3425 19.3542 15.4535 19.2433L15.8529 18.8438C16.0479 18.6489 16.3646 18.6493 16.5599 18.8438C16.7551 19.0391 16.755 19.3556 16.5599 19.5509L16.1605 19.9513L16.1595 19.9503C15.9557 20.154 15.7148 20.3167 15.4486 20.4269C15.1821 20.5371 14.8961 20.5941 14.6078 20.5938C14.3196 20.5936 14.034 20.5364 13.7679 20.4259C13.5017 20.3152 13.2595 20.1525 13.056 19.9483C12.646 19.5367 12.4158 18.9785 12.4164 18.3976C12.4171 17.8167 12.6482 17.2594 13.0589 16.8487L14.3197 15.588C14.5233 15.3843 14.7655 15.2226 15.0316 15.1124C15.2975 15.0023 15.5826 14.9455 15.8705 14.9454Z" fill="black"/>
<path d="M18.7748 13.2042C19.0628 13.2042 19.3485 13.2609 19.6146 13.3712C19.8805 13.4814 20.122 13.6432 20.3255 13.8468C20.5292 14.0504 20.6909 14.2926 20.8011 14.5587C20.9113 14.8246 20.9681 15.1097 20.9681 15.3976C20.9681 15.6856 20.9113 15.9713 20.8011 16.2374C20.6909 16.5033 20.5291 16.7448 20.3255 16.9483L19.0648 18.2101L19.0638 18.2091C18.8601 18.4128 18.6191 18.5754 18.3529 18.6856C18.0864 18.7959 17.8004 18.8529 17.5121 18.8526C17.2238 18.8524 16.9384 18.7952 16.6722 18.6847C16.406 18.574 16.1639 18.4113 15.9603 18.2071C15.75 17.9966 15.5839 17.7444 15.474 17.4679C15.3641 17.191 15.312 16.8945 15.3207 16.5968C15.3288 16.3208 15.5593 16.1034 15.8353 16.1114C16.1111 16.1196 16.3286 16.3502 16.3207 16.6261C16.316 16.7876 16.344 16.9485 16.4037 17.0987C16.4634 17.2492 16.5529 17.3866 16.6673 17.5011C16.7781 17.6122 16.9111 17.7006 17.056 17.7608C17.2008 17.821 17.3562 17.8525 17.513 17.8526C17.6698 17.8527 17.8252 17.8217 17.9701 17.7618C18.115 17.7018 18.2468 17.613 18.3578 17.502L18.7337 17.127L19.6185 16.2413C19.7292 16.1306 19.8173 15.9992 19.8773 15.8546C19.9372 15.7098 19.9681 15.5542 19.9681 15.3976C19.9681 15.2409 19.9372 15.0852 19.8773 14.9405C19.8323 14.8322 19.7718 14.7311 19.6976 14.6407L19.6185 14.5538C19.5078 14.4431 19.3764 14.355 19.2318 14.295C19.087 14.235 18.9314 14.2042 18.7748 14.2042C18.6181 14.2042 18.4625 14.2351 18.3177 14.295C18.2094 14.34 18.1083 14.4006 18.0179 14.4747L17.931 14.5538L17.5316 14.9532C17.3363 15.1485 17.0198 15.1485 16.8246 14.9532C16.6294 14.758 16.6293 14.4414 16.8246 14.2462L17.224 13.8468C17.4276 13.6431 17.6698 13.4814 17.9359 13.3712C18.2019 13.2611 18.4869 13.2042 18.7748 13.2042Z" fill="black"/>
<path d="M19.7324 11.5001C20.0084 11.5002 20.2324 11.724 20.2324 12.0001C20.2324 12.2762 20.0084 12.5 19.7324 12.5001H19.2322H8.76734H3.53217C3.25603 12.5001 3.03217 12.2762 3.03217 12.0001C3.03217 11.724 3.25603 11.5001 3.53217 11.5001H7.76655H8.76732H14.497H15.4978H19.2159H19.7324Z" fill="black"/>
<path fill-rule="evenodd" clip-rule="evenodd" d="M11.6322 20.1001C10.0301 20.1001 8.4641 19.625 7.13206 18.735C5.80002 17.845 4.76182 16.5799 4.14875 15.0998C3.53568 13.6198 3.37528 11.9911 3.68782 10.4199C4.00036 8.84862 4.77181 7.40534 5.90461 6.27253C7.03742 5.13973 8.4807 4.36828 10.0519 4.05574C11.6232 3.7432 13.2518 3.9036 14.7319 4.51667C16.212 5.12974 17.477 6.16794 18.3671 7.49998C19.2571 8.83202 19.7322 10.3981 19.7322 12.0001L19.2322 12.5001H8.76734C8.86298 14.8409 9.61797 16.6094 10.3685 17.8102C10.7707 18.4537 11.1724 18.9341 11.4701 19.2517C11.6187 19.4102 11.741 19.5278 11.8246 19.6042C11.8663 19.6424 11.8987 19.6706 11.9193 19.6882C11.9294 19.6968 11.9365 19.7032 11.9408 19.7067C11.9515 19.7153 11.9617 19.7242 11.9715 19.7335C11.9763 19.7378 11.9809 19.7423 11.9854 19.7468L11.6322 20.1001ZM7.76655 11.5001H8.76732H14.497H15.4978H19.2159C19.1283 10.1729 18.6933 8.88882 17.9511 7.77802C17.1161 6.52827 15.9296 5.55345 14.541 4.97822C14.0158 4.76068 13.4706 4.60401 12.9159 4.50914C12.0696 4.36438 11.2011 4.3635 10.3479 4.50982C10.0912 4.82044 9.80589 5.20381 9.52084 5.65986C8.68971 6.98967 7.86309 8.93841 7.76655 11.5001Z" fill="black" fill-opacity="0.2"/>
<path d="M19.2324 11.9997C19.2324 11.8327 19.2268 11.666 19.2159 11.5001C19.1283 10.1729 18.6933 8.88882 17.9511 7.77802C17.1161 6.52827 15.9296 5.55345 14.541 4.97822C14.0158 4.76068 13.4706 4.60401 12.9159 4.50914C12.0696 4.36438 11.2011 4.3635 10.3479 4.50982C10.2816 4.52118 10.2154 4.53344 10.1494 4.54658C8.67519 4.83985 7.32059 5.56285 6.25776 6.62568C5.19493 7.68851 4.47193 9.04311 4.17866 10.5173C3.88541 11.9915 4.03507 13.5202 4.6103 14.9089C5.18553 16.2975 6.16035 17.484 7.4101 18.319C8.65979 19.154 10.1288 19.6002 11.6318 19.6003C11.7382 19.6003 11.8382 19.6315 11.9193 19.6882C11.927 19.6936 11.9334 19.7009 11.9408 19.7067C11.9515 19.7153 11.9617 19.7242 11.9715 19.7335C11.9763 19.7378 11.9809 19.7423 11.9854 19.7468C12.0759 19.8373 12.1318 19.9623 12.1318 20.1003C12.1317 20.3763 11.9079 20.6003 11.6318 20.6003C9.93111 20.6002 8.26853 20.0959 6.85444 19.1511C5.44018 18.2061 4.33738 16.8622 3.68647 15.2907C3.03573 13.7194 2.86542 11.99 3.19721 10.322C3.52908 8.65385 4.34807 7.12131 5.55073 5.91865C6.75339 4.71599 8.28593 3.897 9.95405 3.56513C11.6221 3.23334 13.3515 3.40365 14.9228 4.05439C16.4942 4.7053 17.8382 5.8081 18.7831 7.22236C19.7279 8.63645 20.2323 10.2994 20.2324 12.0001C20.2324 12.2762 20.0084 12.5 19.7324 12.5001C19.4562 12.5001 19.2324 12.2758 19.2324 11.9997Z" fill="black"/>
<path fill-rule="evenodd" clip-rule="evenodd" d="M14.497 11.5001C14.5037 11.6638 14.5072 11.8304 14.5072 11.9997C14.5072 12.2758 14.731 12.4997 15.0072 12.4997C15.2833 12.4997 15.5072 12.2758 15.5072 11.9997C15.5072 11.8307 15.504 11.6641 15.4978 11.5001H14.497ZM8.76732 11.5001C8.76064 11.6638 8.75718 11.8304 8.75717 11.9997C8.75717 12.1693 8.76064 12.3361 8.76734 12.5001C8.86298 14.8409 9.61797 16.6094 10.3685 17.8102C10.7707 18.4537 11.1724 18.9341 11.4701 19.2517C11.6187 19.4102 11.741 19.5278 11.8246 19.6042C11.8663 19.6424 11.8987 19.6706 11.9193 19.6882C11.9294 19.6968 11.9365 19.7032 11.9408 19.7067C11.9515 19.7153 11.9617 19.7242 11.9715 19.7335C11.9763 19.7378 11.9809 19.7423 11.9854 19.7468C12.161 19.9252 12.1826 20.213 12.0228 20.4128C11.8503 20.6283 11.5353 20.6633 11.3197 20.4909C11.3164 20.488 11.3063 20.4791 11.304 20.4772C11.2957 20.4703 11.2841 20.4611 11.2699 20.4489C11.241 20.4243 11.2003 20.3887 11.1498 20.3425C11.0488 20.2501 10.9072 20.115 10.7396 19.9362C10.4045 19.5788 9.96234 19.0468 9.52084 18.3405C8.63645 16.9255 7.75717 14.8091 7.75717 11.9997C7.75718 11.8307 7.76037 11.6641 7.76655 11.5001H8.76732ZM10.3479 4.50982C11.2011 4.3635 12.0696 4.36438 12.9159 4.50914C12.7753 4.33896 12.6433 4.19063 12.5248 4.06416C12.3572 3.88541 12.2156 3.75025 12.1146 3.65791C12.0641 3.61172 12.0234 3.57611 11.9945 3.55146C11.9885 3.54635 11.983 3.54163 11.9781 3.53735C11.9711 3.53134 11.9652 3.52622 11.9603 3.52216L11.9447 3.50947C11.7621 3.36338 11.4974 3.36826 11.3148 3.51435C11.3128 3.51574 11.3064 3.52021 11.304 3.52216C11.2991 3.52622 11.2932 3.53134 11.2863 3.53735C11.2813 3.54163 11.2759 3.54635 11.2699 3.55146C11.241 3.57611 11.2003 3.61172 11.1498 3.65791C11.0488 3.75025 10.9072 3.88541 10.7396 4.06416C10.6209 4.1908 10.4887 4.33936 10.3479 4.50982Z" fill="black"/>
<path d="M8.76732 11.5001H7.76655C7.86309 8.93841 8.68971 6.98967 9.52084 5.65986C9.80589 5.20381 10.0912 4.82044 10.3479 4.50982C11.2011 4.3635 12.0696 4.36438 12.9159 4.50914C13.1727 4.81988 13.4582 5.20347 13.7435 5.65986C14.5746 6.98967 15.4013 8.93841 15.4978 11.5001H14.497C14.4014 9.15923 13.6464 7.39104 12.8958 6.19013C12.4937 5.54666 12.092 5.06627 11.7943 4.74873C11.7359 4.68645 11.6817 4.63036 11.6322 4.58076C11.5826 4.63036 11.5284 4.68645 11.4701 4.74873C11.1724 5.06627 10.7707 5.54666 10.3685 6.19013C9.61795 7.39104 8.8629 9.15923 8.76732 11.5001Z" fill="black"/>
</svg>