<svg xmlns="http://www.w3.org/2000/svg" width="24" height="24" fill="currentColor" viewBox="0 0 24 24"><path d="M12 3.394a8.607 8.607 0 0 0 0 17.213.506.506 0 0 0 .317-.9c-.008-.006-.81-.662-1.599-1.936a10.5 10.5 0 0 1-1.136-2.563h2.417a.506.506 0 0 0 0-1.012H9.337a11.7 11.7 0 0 1 0-4.387h5.324a11.6 11.6 0 0 1 .207 2.194.507.507 0 0 0 1.013 0 13 13 0 0 0-.185-2.194h3.574a7.6 7.6 0 0 1 .323 2.194.506.506 0 0 0 1.012 0 8.616 8.616 0 0 0-8.606-8.606zm-1.304 1.125a11.2 11.2 0 0 0-2.171 4.275H5.118a7.62 7.62 0 0 1 5.578-4.275m0 14.963a7.62 7.62 0 0 1-5.578-4.275h3.407a11.2 11.2 0 0 0 2.171 4.275m-2.392-5.288H4.73a7.6 7.6 0 0 1 0-4.388h3.574a13.1 13.1 0 0 0 0 4.387zm1.279-5.4a10.5 10.5 0 0 1 1.136-2.562 9.2 9.2 0 0 1 1.282-1.641 9.2 9.2 0 0 1 1.282 1.641 10.5 10.5 0 0 1 1.136 2.562zm5.893 0a11.2 11.2 0 0 0-2.171-4.275 7.62 7.62 0 0 1 5.578 4.275zm4.307 6.939L18.117 17.4l1.666 1.667a.506.506 0 1 1-.715.715l-1.667-1.666-1.667 1.666a.506.506 0 0 1-.716-.715l1.666-1.667-1.666-1.667a.506.506 0 0 1 .716-.716l1.667 1.666 1.667-1.666a.506.506 0 0 1 .715.716"/></svg>