<svg viewBox="0 0 24 24" fill="none" xmlns="http://www.w3.org/2000/svg" width="24" height="24">
<path d="M15.6203 14.6984C15.9083 14.6984 16.1941 14.7552 16.4602 14.8654C16.7258 14.9755 16.9677 15.1368 17.1711 15.34L17.3205 15.5061C17.4617 15.6787 17.5764 15.8723 17.6594 16.0803C17.7699 16.3577 17.8224 16.6557 17.8137 16.9543C17.8055 17.2301 17.5758 17.4475 17.3 17.4396C17.0241 17.4315 16.8066 17.2009 16.8146 16.925C16.8193 16.763 16.7907 16.6009 16.7307 16.4504C16.6706 16.3 16.5798 16.1633 16.465 16.049L16.4641 16.048C16.3534 15.9374 16.2219 15.8492 16.0773 15.7893C15.9326 15.7293 15.7769 15.6984 15.6203 15.6984C15.4639 15.6985 15.3088 15.7294 15.1643 15.7893C15.0557 15.8342 14.954 15.8947 14.8635 15.9689L14.7766 16.048L13.5158 17.3088C13.2924 17.5322 13.1667 17.8356 13.1662 18.1516C13.1659 18.4675 13.291 18.7714 13.5139 18.9953C13.6246 19.1064 13.7568 19.1949 13.9016 19.2551C14.0464 19.3152 14.2018 19.3467 14.3586 19.3469C14.5154 19.347 14.6707 19.3159 14.8156 19.2561C14.9606 19.1961 15.0924 19.1072 15.2033 18.9963L15.6027 18.5969C15.7978 18.4019 16.1145 18.4023 16.3098 18.5969C16.505 18.7921 16.5049 19.1086 16.3098 19.3039L15.9103 19.7043L15.9094 19.7033C15.7056 19.907 15.4647 20.0697 15.1984 20.1799C14.932 20.2901 14.646 20.3471 14.3576 20.3469C14.0695 20.3466 13.7839 20.2895 13.5178 20.1789C13.2516 20.0682 13.0094 19.9055 12.8059 19.7014C12.3959 19.2898 12.1657 18.7315 12.1662 18.1506C12.167 17.5698 12.398 17.0124 12.8088 16.6018L14.0695 15.341C14.2732 15.1374 14.5154 14.9757 14.7814 14.8654C15.0474 14.7553 15.3325 14.6985 15.6203 14.6984ZM18.5246 12.9572C18.8126 12.9572 19.0983 13.014 19.3645 13.1242C19.6304 13.2344 19.8718 13.3963 20.0754 13.5998C20.2791 13.8034 20.4407 14.0456 20.551 14.3117C20.6611 14.5777 20.7179 14.8627 20.718 15.1506C20.718 15.4386 20.6612 15.7243 20.551 15.9904C20.4407 16.2564 20.279 16.4978 20.0754 16.7014L18.8146 17.9631L18.8137 17.9621C18.6099 18.1658 18.3689 18.3285 18.1027 18.4387C17.8363 18.5489 17.5503 18.6059 17.2619 18.6057C16.9737 18.6054 16.6882 18.5482 16.4221 18.4377C16.1558 18.327 15.9137 18.1644 15.7102 17.9602C15.4998 17.7496 15.3337 17.4975 15.2238 17.2209C15.1139 16.9441 15.0618 16.6475 15.0705 16.3498C15.0786 16.0738 15.3092 15.8564 15.5852 15.8644C15.861 15.8727 16.0785 16.1032 16.0705 16.3791C16.0658 16.5407 16.0939 16.7015 16.1535 16.8518C16.2133 17.0022 16.3027 17.1397 16.4172 17.2541C16.5279 17.3652 16.661 17.4536 16.8059 17.5139C16.9507 17.574 17.1061 17.6055 17.2629 17.6057C17.4197 17.6057 17.575 17.5748 17.7199 17.5148C17.8649 17.4548 17.9967 17.366 18.1076 17.2551L18.4836 16.8801L19.3684 15.9943C19.4791 15.8836 19.5672 15.7523 19.6271 15.6076C19.6871 15.4629 19.718 15.3073 19.718 15.1506C19.7179 14.994 19.6871 14.8383 19.6271 14.6936C19.5822 14.5852 19.5216 14.4841 19.4475 14.3937L19.3684 14.3068C19.2576 14.1961 19.1263 14.108 18.9816 14.048C18.8369 13.9881 18.6813 13.9572 18.5246 13.9572C18.3679 13.9572 18.2123 13.9881 18.0676 14.048C17.9592 14.093 17.8581 14.1536 17.7678 14.2277L17.6809 14.3068L17.2814 14.7062C17.0862 14.9015 16.7697 14.9015 16.5744 14.7062C16.3792 14.511 16.3792 14.1945 16.5744 13.9992L16.9738 13.5998C17.1775 13.3961 17.4197 13.2344 17.6857 13.1242C17.9517 13.0141 18.2367 12.9572 18.5246 12.9572Z" fill="black"/>
<path d="M19.4821 11.2531C19.7582 11.2532 19.9821 11.477 19.9821 11.7531C19.9821 12.0292 19.7582 12.253 19.4821 12.2531H3.28193C3.00579 12.2531 2.78193 12.0293 2.78193 11.7531C2.78193 11.477 3.00579 11.2531 3.28193 11.2531H19.4821Z" fill="black"/>
<path d="M18.9821 11.7526C18.982 10.2497 18.5359 8.78064 17.7009 7.53095C16.8658 6.2812 15.6794 5.30638 14.2907 4.73115C12.902 4.15592 11.3734 4.00626 9.89912 4.29951C8.42494 4.59278 7.07034 5.31578 6.00751 6.37861C4.94469 7.44144 4.22169 8.79604 3.92841 10.2702C3.63517 11.7445 3.78483 13.2731 4.36005 14.6618C4.93529 16.0504 5.9101 17.2369 7.15986 18.072C8.40955 18.907 9.87857 19.3531 11.3815 19.3532C11.6577 19.3532 11.8815 19.5771 11.8815 19.8532C11.8814 20.1293 11.6576 20.3532 11.3815 20.3532C9.68086 20.3531 8.01829 19.8488 6.60419 18.904C5.18993 17.959 4.08714 16.6151 3.43623 15.0436C2.78549 13.4723 2.61517 11.743 2.94697 10.0749C3.27884 8.40678 4.09782 6.87424 5.30048 5.67158C6.50314 4.46892 8.03568 3.64993 9.7038 3.31806C11.3719 2.98626 13.1012 3.15658 14.6726 3.80732C16.244 4.45823 17.5879 5.56103 18.5329 6.97529C19.4777 8.38938 19.982 10.0524 19.9821 11.7531C19.9821 12.0292 19.7582 12.253 19.4821 12.2531C19.206 12.2531 18.9821 12.0288 18.9821 11.7526Z" fill="black"/>
<path d="M14.257 11.7526C14.2569 9.16229 13.4487 7.22797 12.6457 5.94306C12.2435 5.29959 11.8418 4.8192 11.5441 4.50166C11.4858 4.43938 11.4316 4.38329 11.382 4.33369C11.3325 4.38329 11.2783 4.43938 11.2199 4.50166C10.9222 4.8192 10.5205 5.29959 10.1184 5.94306C9.31531 7.22797 8.50711 9.16229 8.50703 11.7526C8.50703 14.3432 9.31525 16.2782 10.1184 17.5632C10.5205 18.2066 10.9222 18.687 11.2199 19.0046C11.3685 19.1631 11.4909 19.2807 11.5744 19.3571C11.6162 19.3953 11.6486 19.4236 11.6691 19.4411C11.6792 19.4497 11.6863 19.4561 11.6906 19.4597C11.6924 19.4611 11.6938 19.462 11.6945 19.4626C11.9101 19.6351 11.9451 19.9501 11.7727 20.1657C11.6002 20.3812 11.2851 20.4162 11.0695 20.2438L11.382 19.8532C11.0978 20.2084 11.072 20.2411 11.0695 20.2438L11.0646 20.239C11.062 20.2368 11.0581 20.2336 11.0539 20.2302C11.0455 20.2233 11.0339 20.214 11.0197 20.2019C10.9908 20.1772 10.9501 20.1416 10.8996 20.0954C10.7986 20.0031 10.6571 19.868 10.4894 19.6892C10.1544 19.3318 9.71219 18.7998 9.2707 18.0935C8.38631 16.6784 7.50703 14.562 7.50703 11.7526C7.50711 8.94343 8.38635 6.82775 9.2707 5.41279C9.71218 4.70646 10.1544 4.1745 10.4894 3.81709C10.657 3.63834 10.7986 3.50318 10.8996 3.41084C10.9501 3.36465 10.9908 3.32904 11.0197 3.30439C11.0341 3.29209 11.0455 3.28204 11.0539 3.27509C11.0581 3.27166 11.062 3.2694 11.0646 3.26728L11.0686 3.26337C11.0688 3.2632 11.0697 3.26259 11.382 3.65302L11.0695 3.2624C11.2521 3.11631 11.5119 3.11631 11.6945 3.2624L11.382 3.65302C11.6629 3.30188 11.6915 3.26581 11.6945 3.2624L11.6994 3.26728C11.702 3.2694 11.706 3.27166 11.7102 3.27509C11.7186 3.28204 11.7299 3.29209 11.7443 3.30439C11.7732 3.32904 11.8139 3.36465 11.8644 3.41084C11.9654 3.50318 12.107 3.63834 12.2746 3.81709C12.6097 4.1745 13.0519 4.70646 13.4934 5.41279C14.3777 6.82775 15.2569 8.94343 15.257 11.7526C15.257 12.0288 15.0332 12.2526 14.757 12.2526C14.4809 12.2526 14.257 12.0288 14.257 11.7526Z" fill="black"/>
</svg>