<svg viewBox="0 0 24 24" fill="none" xmlns="http://www.w3.org/2000/svg" width="24" height="24">
<path d="M15.8704 14.9453C16.1583 14.9453 16.4442 15.0021 16.7102 15.1123C16.9759 15.2224 17.2177 15.3837 17.4211 15.5869L17.5706 15.7529C17.7117 15.9256 17.8265 16.1192 17.9094 16.3271C18.02 16.6046 18.0724 16.9026 18.0637 17.2012C18.0556 17.477 17.8258 17.6944 17.5501 17.6865C17.2741 17.6784 17.0567 17.4478 17.0647 17.1719C17.0694 17.0099 17.0407 16.8478 16.9807 16.6973C16.9207 16.5469 16.8299 16.4102 16.7151 16.2959L16.7141 16.2949C16.6034 16.1843 16.472 16.096 16.3274 16.0361C16.1827 15.9762 16.027 15.9453 15.8704 15.9453C15.7139 15.9454 15.5589 15.9763 15.4143 16.0361C15.3058 16.0811 15.204 16.1416 15.1135 16.2158L15.0266 16.2949L13.7659 17.5557C13.5425 17.779 13.4168 18.0825 13.4163 18.3984C13.416 18.7144 13.5411 19.0183 13.7639 19.2422C13.8746 19.3532 14.0068 19.4417 14.1516 19.502C14.2964 19.5621 14.4518 19.5936 14.6086 19.5938C14.7654 19.5939 14.9208 19.5628 15.0657 19.5029C15.2106 19.4429 15.3424 19.3541 15.4534 19.2432L15.8528 18.8438C16.0478 18.6488 16.3645 18.6492 16.5598 18.8438C16.755 19.039 16.7549 19.3555 16.5598 19.5508L16.1604 19.9512L16.1594 19.9502C15.9556 20.1539 15.7147 20.3166 15.4485 20.4268C15.182 20.537 14.896 20.594 14.6077 20.5938C14.3195 20.5935 14.0339 20.5363 13.7678 20.4258C13.5016 20.3151 13.2594 20.1524 13.0559 19.9482C12.6459 19.5366 12.4157 18.9784 12.4163 18.3975C12.417 17.8166 12.6481 17.2593 13.0588 16.8486L14.3196 15.5879C14.5232 15.3842 14.7654 15.2225 15.0315 15.1123C15.2974 15.0022 15.5825 14.9454 15.8704 14.9453ZM18.7747 13.2041C19.0627 13.2041 19.3484 13.2609 19.6145 13.3711C19.8804 13.4813 20.1219 13.6431 20.3254 13.8467C20.5291 14.0503 20.6908 14.2925 20.801 14.5586C20.9112 14.8246 20.968 15.1096 20.968 15.3975C20.968 15.6855 20.9113 15.9712 20.801 16.2373C20.6908 16.5032 20.529 16.7447 20.3254 16.9482L19.0647 18.21L19.0637 18.209C18.86 18.4127 18.619 18.5753 18.3528 18.6855C18.0863 18.7958 17.8003 18.8528 17.512 18.8525C17.2238 18.8523 16.9383 18.7951 16.6721 18.6846C16.4059 18.5739 16.1638 18.4112 15.9602 18.207C15.7499 17.9965 15.5838 17.7444 15.4739 17.4678C15.364 17.1909 15.3119 16.8944 15.3206 16.5967C15.3287 16.3207 15.5592 16.1033 15.8352 16.1113C16.111 16.1196 16.3285 16.3501 16.3206 16.626C16.3159 16.7875 16.3439 16.9484 16.4036 17.0986C16.4633 17.2491 16.5528 17.3865 16.6672 17.501C16.778 17.6121 16.911 17.7005 17.0559 17.7607C17.2007 17.8209 17.3562 17.8524 17.5129 17.8525C17.6697 17.8526 17.8251 17.8216 17.97 17.7617C18.1149 17.7017 18.2467 17.6129 18.3577 17.502L18.7336 17.127L19.6184 16.2412C19.7291 16.1305 19.8172 15.9991 19.8772 15.8545C19.9372 15.7097 19.968 15.5541 19.968 15.3975C19.968 15.2408 19.9371 15.0851 19.8772 14.9404C19.8322 14.8321 19.7717 14.731 19.6975 14.6406L19.6184 14.5537C19.5077 14.443 19.3763 14.3549 19.2317 14.2949C19.0869 14.235 18.9314 14.2041 18.7747 14.2041C18.618 14.2041 18.4624 14.235 18.3176 14.2949C18.2093 14.3399 18.1082 14.4005 18.0178 14.4746L17.9309 14.5537L17.5315 14.9531C17.3362 15.1484 17.0197 15.1484 16.8245 14.9531C16.6293 14.7579 16.6292 14.4413 16.8245 14.2461L17.2239 13.8467C17.4275 13.643 17.6697 13.4813 17.9358 13.3711C18.2018 13.261 18.4868 13.2041 18.7747 13.2041Z" fill="black"/>
<path d="M19.7324 11.5001C20.0084 11.5002 20.2324 11.724 20.2324 12.0001C20.2324 12.2762 20.0084 12.5 19.7324 12.5001H7.76656H4.04873H3.53217C3.25603 12.5001 3.03217 12.2762 3.03217 12.0001C3.03217 11.724 3.25603 11.5001 3.53217 11.5001H4.04898H7.76655H19.2159H19.7324Z" fill="black"/>
<path fill-rule="evenodd" clip-rule="evenodd" d="M20.2324 12.0001C20.2324 11.724 20.0084 11.5002 19.7324 11.5001H19.2159C19.2268 11.666 19.2324 11.8327 19.2324 11.9997C19.2324 12.2758 19.4562 12.5001 19.7324 12.5001C20.0084 12.5 20.2324 12.2762 20.2324 12.0001ZM11.6213 20.6003L11.6318 20.6003C11.9079 20.6003 12.1317 20.3763 12.1318 20.1003C12.1318 19.8241 11.9079 19.6003 11.6318 19.6003C11.1996 19.6003 10.7703 19.5634 10.3482 19.4909C10.4889 19.6613 10.621 19.8097 10.7396 19.9362C10.9072 20.115 11.0488 20.2501 11.1498 20.3425C11.2003 20.3887 11.241 20.4243 11.2699 20.4489C11.2841 20.4611 11.2957 20.4703 11.304 20.4772L11.3131 20.4852C11.4023 20.5565 11.5152 20.5981 11.6213 20.6003ZM4.04873 12.5001H3.53217C3.25603 12.5001 3.03217 12.2762 3.03217 12.0001C3.03217 11.724 3.25603 11.5001 3.53217 11.5001H4.04898C4.02693 11.8336 4.02691 12.1676 4.04873 12.5001ZM10.3479 4.50982C11.2011 4.3635 12.0696 4.36438 12.9159 4.50914C12.7753 4.33896 12.6433 4.19063 12.5248 4.06416C12.3572 3.88541 12.2156 3.75025 12.1146 3.65791C12.0641 3.61172 12.0234 3.57611 11.9945 3.55146L11.9781 3.53735C11.9711 3.53134 11.9652 3.52622 11.9603 3.52216L11.9447 3.50947C11.7621 3.36338 11.4974 3.36826 11.3148 3.51435C11.3128 3.51574 11.3064 3.52021 11.304 3.52216C11.2991 3.52622 11.2932 3.53134 11.2863 3.53735L11.2699 3.55146C11.241 3.57611 11.2003 3.61172 11.1498 3.65791C11.0488 3.75025 10.9072 3.88541 10.7396 4.06416C10.6209 4.1908 10.4887 4.33936 10.3479 4.50982Z" fill="black"/>
<path d="M14.5072 11.9997C14.5071 9.40936 13.6989 7.47504 12.8958 6.19013C12.4937 5.54666 12.092 5.06627 11.7943 4.74873C11.7359 4.68645 11.6817 4.63036 11.6322 4.58076C11.5826 4.63036 11.5284 4.68645 11.4701 4.74873C11.1724 5.06627 10.7707 5.54666 10.3685 6.19013C9.56545 7.47504 8.75725 9.40936 8.75717 11.9997C8.75717 14.5903 9.56539 16.5253 10.3685 17.8102C10.7707 18.4537 11.1724 18.9341 11.4701 19.2517C11.6187 19.4102 11.741 19.5278 11.8246 19.6042C11.8663 19.6424 11.8987 19.6706 11.9193 19.6882C11.9294 19.6968 11.9365 19.7032 11.9408 19.7067C11.9425 19.7082 11.94 19.7061 11.9408 19.7067C12.1563 19.8793 12.1953 20.1972 12.0228 20.4128C11.9217 20.5391 11.7716 20.6034 11.6213 20.6003C11.5152 20.5981 11.4023 20.5565 11.3131 20.4852L11.6322 20.1003C11.348 20.4555 11.3156 20.4824 11.3131 20.4852C11.3105 20.483 11.3083 20.4807 11.304 20.4772C11.2957 20.4703 11.2841 20.4611 11.2699 20.4489C11.241 20.4243 11.2003 20.3887 11.1498 20.3425C11.0488 20.2501 10.9072 20.115 10.7396 19.9362C10.621 19.8097 10.4889 19.6613 10.3482 19.4909C10.0915 19.1803 9.80602 18.7968 9.52084 18.3405C8.68975 17.0108 7.86318 15.0616 7.76656 12.5001C7.76037 12.3358 7.75717 12.169 7.75717 11.9997C7.75718 11.8307 7.76037 11.6641 7.76655 11.5001C7.86309 8.93841 8.68971 6.98967 9.52084 5.65986C9.80589 5.20381 10.0912 4.82044 10.3479 4.50982C10.4887 4.33936 10.6209 4.1908 10.7396 4.06416C10.9072 3.88541 11.0488 3.75025 11.1498 3.65791C11.2003 3.61172 11.241 3.57611 11.2699 3.55146C11.2759 3.54635 11.2813 3.54163 11.2863 3.53735C11.2932 3.53134 11.2991 3.52622 11.304 3.52216C11.3082 3.51873 11.3122 3.51647 11.3148 3.51435C11.315 3.51418 11.3198 3.50966 11.6322 3.90009L11.3148 3.51435C11.4974 3.36826 11.7621 3.36338 11.9447 3.50947L11.6322 3.90009C11.9131 3.54895 11.9416 3.51288 11.9447 3.50947C11.9473 3.51158 11.9561 3.51873 11.9603 3.52216C11.9652 3.52622 11.9711 3.53134 11.9781 3.53735C11.983 3.54163 11.9885 3.54635 11.9945 3.55146C12.0234 3.57611 12.0641 3.61172 12.1146 3.65791C12.2156 3.75025 12.3572 3.88541 12.5248 4.06416C12.6433 4.19063 12.7753 4.33896 12.9159 4.50914C13.1727 4.81988 13.4582 5.20347 13.7435 5.65986C14.6279 7.07482 15.5071 9.1905 15.5072 11.9997C15.5072 12.2758 15.2833 12.4997 15.0072 12.4997C14.731 12.4997 14.5072 12.2758 14.5072 11.9997Z" fill="black"/>
<path d="M19.7324 11.5001C20.0084 11.5002 20.2324 11.724 20.2324 12.0001C20.2323 10.2994 19.7279 8.63645 18.7831 7.22236C17.8382 5.8081 16.4942 4.7053 14.9228 4.05439C13.3515 3.40365 11.6221 3.23334 9.95405 3.56513C8.28593 3.897 6.75339 4.71599 5.55073 5.91865C4.34807 7.12131 3.52908 8.65385 3.19721 10.322C2.86542 11.99 3.03573 13.7194 3.68647 15.2907C4.33738 16.8622 5.44018 18.2061 6.85444 19.1511C8.26563 20.0939 9.92428 20.5981 11.6213 20.6003C11.5152 20.5981 11.4023 20.5565 11.3131 20.4852L11.304 20.4772C11.2957 20.4703 11.2841 20.4611 11.2699 20.4489C11.241 20.4243 11.2003 20.3887 11.1498 20.3425C11.0488 20.2501 10.9072 20.115 10.7396 19.9362C10.621 19.8097 10.4889 19.6613 10.3482 19.4909C10.0915 19.1803 9.80602 18.7968 9.52084 18.3405C8.68975 17.0108 7.86318 15.0616 7.76656 12.5001H4.04873H3.53217C3.25603 12.5001 3.03217 12.2762 3.03217 12.0001C3.03217 11.724 3.25603 11.5001 3.53217 11.5001H4.04898H7.76655C7.86309 8.93841 8.68971 6.98967 9.52084 5.65986C9.80589 5.20381 10.0912 4.82044 10.3479 4.50982C10.4887 4.33936 10.6209 4.1908 10.7396 4.06416C10.9072 3.88541 11.0488 3.75025 11.1498 3.65791C11.2003 3.61172 11.241 3.57611 11.2699 3.55146L11.2863 3.53735C11.2932 3.53134 11.2991 3.52622 11.304 3.52216C11.3064 3.52021 11.3128 3.51574 11.3148 3.51435C11.4974 3.36826 11.7621 3.36338 11.9447 3.50947L11.9603 3.52216C11.9652 3.52622 11.9711 3.53134 11.9781 3.53735L11.9945 3.55146C12.0234 3.57611 12.0641 3.61172 12.1146 3.65791C12.2156 3.75025 12.3572 3.88541 12.5248 4.06416C12.6433 4.19063 12.7753 4.33896 12.9159 4.50914C13.4706 4.60401 14.0158 4.76068 14.541 4.97822C15.9296 5.55345 17.1161 6.52827 17.9511 7.77802C18.6933 8.88882 19.1283 10.1729 19.2159 11.5001H19.7324Z" fill="black"/>
</svg>