<svg xmlns="http://www.w3.org/2000/svg" width="24" height="24" fill="currentColor" viewBox="0 0 24 24"><path d="M12 2.55a9.45 9.45 0 1 0 0 18.9 9.45 9.45 0 0 0 0-18.9m4.48 13.276c-1.464.422-2.814 2.708-3.223 4.274-.755-.397.413-3.805.228-4.742-.181-.932-.548-.607-.953-1.164-.751-1.329.038-2.038-.236-2.358-.274-.325-.207-.772-1.898-1.261S7.196 7.12 6.694 6.183c-.502-.932 1.122-1.983 3.43-2.219.435-.042.831-.063 1.198-.063 1.595.004 2.611.38 3.375.738.937.443.848 1.658.342 1.658s-1.51-.7-1.991.979-1.692.84-2.493 1.658 1.029 1.565 1.418 2.08 1.396-.025 2.219.165c1.375 1.215 2.814 1.73 3.135 2.312.139.7.186 1.472-.844 2.337"/></svg>