<svg viewBox="0 0 24 24" fill="none" xmlns="http://www.w3.org/2000/svg" width="24" height="24">
<path d="M19.6 11.9997C19.6 10.4967 19.1538 9.02771 18.3188 7.77802C17.4837 6.52827 16.2973 5.55345 14.9086 4.97822C13.5199 4.40299 11.9913 4.25333 10.517 4.54658C9.04286 4.83985 7.68826 5.56285 6.62543 6.62568C5.56261 7.68851 4.83961 9.04311 4.54633 10.5173C4.25309 11.9915 4.40275 13.5202 4.97797 14.9089C5.55321 16.2975 6.52802 17.484 7.77778 18.319C9.02747 19.154 10.4965 19.6002 11.9995 19.6003C12.2756 19.6003 12.4995 19.8241 12.4995 20.1003C12.4994 20.3763 12.2755 20.6003 11.9995 20.6003C10.2988 20.6002 8.63621 20.0959 7.22211 19.1511C5.80785 18.2061 4.70506 16.8622 4.05415 15.2907C3.40341 13.7194 3.23309 11.99 3.56489 10.322C3.89676 8.65385 4.71574 7.12131 5.9184 5.91865C7.12106 4.71599 8.6536 3.897 10.3217 3.56513C11.9898 3.23334 13.7192 3.40365 15.2905 4.05439C16.8619 4.7053 18.2058 5.8081 19.1508 7.22236C20.0956 8.63645 20.6 10.299 20.6 11.9997C20.6 12.2758 20.3761 12.4996 20.1 12.4997C19.8239 12.4997 19.6 12.2758 19.6 11.9997Z" fill="black"/>
<path d="M14.8749 11.9998C14.8749 9.40946 14.0667 7.47514 13.2636 6.19023C12.8614 5.54675 12.4598 5.06636 12.1621 4.74882C12.1037 4.68655 12.0495 4.63046 11.9999 4.58085C11.9504 4.63046 11.8962 4.68655 11.8378 4.74882C11.5401 5.06636 11.1384 5.54675 10.7363 6.19023C9.93323 7.47514 9.12503 9.40946 9.12495 11.9998C9.12495 14.5904 9.93317 16.5254 10.7363 17.8103C11.1384 18.4538 11.5401 18.9342 11.8378 19.2518C11.9865 19.4103 12.1088 19.5279 12.1923 19.6043C12.2341 19.6425 12.2665 19.6707 12.2871 19.6883C12.2972 19.6969 12.3042 19.7033 12.3085 19.7068C12.3103 19.7083 12.3117 19.7092 12.3124 19.7098C12.528 19.8823 12.5631 20.1973 12.3906 20.4129C12.2181 20.6284 11.903 20.6634 11.6874 20.491L11.9999 20.1004C11.7158 20.4556 11.6899 20.4883 11.6874 20.491L11.6826 20.4861C11.6799 20.484 11.676 20.4808 11.6718 20.4773C11.6635 20.4704 11.6519 20.4612 11.6376 20.449C11.6088 20.4244 11.568 20.3888 11.5175 20.3426C11.4165 20.2502 11.275 20.1151 11.1074 19.9363C10.7723 19.5789 10.3301 19.0469 9.88862 18.3406C9.00423 16.9256 8.12495 14.8092 8.12495 11.9998C8.12503 9.1906 9.00427 7.07492 9.88862 5.65996C10.3301 4.95363 10.7723 4.42167 11.1074 4.06425C11.2749 3.88551 11.4165 3.75035 11.5175 3.658C11.568 3.61182 11.6088 3.57621 11.6376 3.55156C11.6521 3.53925 11.6634 3.52921 11.6718 3.52226C11.676 3.51883 11.68 3.51656 11.6826 3.51445L11.6865 3.51054C11.6867 3.51037 11.6876 3.50976 11.9999 3.90019L11.6874 3.50957C11.8701 3.36348 12.1298 3.36348 12.3124 3.50957L11.9999 3.90019C12.2809 3.54905 12.3094 3.51297 12.3124 3.50957L12.3173 3.51445C12.3199 3.51656 12.3239 3.51883 12.3281 3.52226C12.3365 3.52921 12.3478 3.53925 12.3623 3.55156C12.3911 3.57621 12.4319 3.61182 12.4824 3.658C12.5834 3.75035 12.725 3.88551 12.8925 4.06425C13.2276 4.42167 13.6698 4.95363 14.1113 5.65996C14.9956 7.07492 15.8749 9.1906 15.8749 11.9998C15.8749 12.2759 15.6511 12.4998 15.3749 12.4998C15.0988 12.4998 14.8749 12.2759 14.8749 11.9998Z" fill="black"/>
<path d="M19.639 8.80019C19.9152 8.80019 20.139 9.02405 20.139 9.30019C20.139 9.57633 19.9152 9.80019 19.639 9.80019H4.36071C4.08457 9.80019 3.86071 9.57633 3.86071 9.30019C3.86071 9.02405 4.08457 8.80019 4.36071 8.80019H19.639Z" fill="black"/>
<path d="M12.0004 14.2002C12.2763 14.2004 12.5004 14.4242 12.5004 14.7002C12.5004 14.9762 12.2763 15.2 12.0004 15.2002H4.36071C4.08457 15.2002 3.86071 14.9763 3.86071 14.7002C3.86071 14.424 4.08457 14.2002 4.36071 14.2002H12.0004Z" fill="black"/>
<path d="M16.5781 15.1652C16.866 15.1652 17.1519 15.222 17.4179 15.3322C17.6836 15.4423 17.9254 15.6036 18.1289 15.8068L18.2783 15.9728C18.4194 16.1455 18.5342 16.3391 18.6171 16.5471C18.7277 16.8245 18.7801 17.1225 18.7714 17.4211C18.7633 17.6969 18.5335 17.9143 18.2578 17.9064C17.9819 17.8983 17.7644 17.6677 17.7724 17.3918C17.7771 17.2298 17.7484 17.0677 17.6884 16.9172C17.6284 16.7668 17.5376 16.6301 17.4228 16.5158L17.4218 16.5148C17.3111 16.4042 17.1797 16.316 17.0351 16.2561C16.8904 16.1961 16.7347 16.1652 16.5781 16.1652C16.4216 16.1653 16.2666 16.1962 16.122 16.2561C16.0135 16.301 15.9117 16.3615 15.8212 16.4357L15.7343 16.5148L14.4736 17.7756C14.2502 17.999 14.1245 18.3024 14.124 18.6184C14.1237 18.9343 14.2488 19.2382 14.4716 19.4621C14.5823 19.5732 14.7145 19.6617 14.8593 19.7219C15.0041 19.782 15.1595 19.8135 15.3164 19.8137C15.4731 19.8138 15.6285 19.7827 15.7734 19.7228C15.9184 19.6629 16.0501 19.574 16.1611 19.4631L16.5605 19.0637C16.7556 18.8687 17.0723 18.8691 17.2675 19.0637C17.4627 19.2589 17.4627 19.5754 17.2675 19.7707L16.8681 20.1711L16.8671 20.1701C16.6634 20.3738 16.4224 20.5365 16.1562 20.6467C15.8897 20.7569 15.6037 20.8139 15.3154 20.8137C15.0272 20.8134 14.7416 20.7563 14.4755 20.6457C14.2093 20.535 13.9671 20.3723 13.7636 20.1682C13.3536 19.7566 13.1234 19.1983 13.124 18.6174C13.1247 18.0366 13.3558 17.4792 13.7665 17.0686L15.0273 15.8078C15.2309 15.6041 15.4731 15.4425 15.7392 15.3322C16.0051 15.2221 16.2902 15.1653 16.5781 15.1652ZM19.4824 13.424C19.7704 13.424 20.0561 13.4808 20.3222 13.591C20.5881 13.7012 20.8296 13.8631 21.0332 14.0666C21.2368 14.2702 21.3985 14.5124 21.5087 14.7785C21.6189 15.0445 21.6757 15.3295 21.6757 15.6174C21.6757 15.9054 21.619 16.1911 21.5087 16.4572C21.3985 16.7232 21.2367 16.9646 21.0332 17.1682L19.7724 18.4299L19.7714 18.4289C19.5677 18.6326 19.3267 18.7953 19.0605 18.9055C18.794 19.0157 18.508 19.0727 18.2197 19.0725C17.9315 19.0722 17.646 19.015 17.3798 18.9045C17.1136 18.7938 16.8715 18.6312 16.6679 18.4269C16.4576 18.2164 16.2915 17.9643 16.1816 17.6877C16.0717 17.4109 16.0196 17.1143 16.0283 16.8166C16.0364 16.5406 16.2669 16.3232 16.5429 16.3312C16.8188 16.3395 17.0363 16.57 17.0283 16.8459C17.0236 17.0075 17.0516 17.1683 17.1113 17.3186C17.171 17.469 17.2605 17.6065 17.3749 17.7209C17.4857 17.832 17.6188 17.9204 17.7636 17.9807C17.9084 18.0408 18.0639 18.0723 18.2207 18.0725C18.3774 18.0725 18.5328 18.0416 18.6777 17.9816C18.8226 17.9216 18.9545 17.8328 19.0654 17.7219L19.4414 17.3469L20.3261 16.4611C20.4369 16.3504 20.5249 16.2191 20.5849 16.0744C20.6449 15.9297 20.6757 15.7741 20.6757 15.6174C20.6757 15.4607 20.6449 15.305 20.5849 15.1603C20.54 15.052 20.4794 14.9509 20.4052 14.8605L20.3261 14.7736C20.2154 14.6629 20.084 14.5748 19.9394 14.5148C19.7946 14.4549 19.6391 14.424 19.4824 14.424C19.3257 14.424 19.1701 14.4549 19.0253 14.5148C18.917 14.5598 18.8159 14.6204 18.7255 14.6945L18.6386 14.7736L18.2392 15.173C18.044 15.3683 17.7274 15.3683 17.5322 15.173C17.337 14.9778 17.3369 14.6613 17.5322 14.466L17.9316 14.0666C18.1352 13.8629 18.3774 13.7012 18.6435 13.591C18.9095 13.4809 19.1945 13.424 19.4824 13.424Z" fill="black"/>
<path d="M20.0999 11.9999C20.0999 16.4734 16.4734 20.0999 11.9999 20.0999C7.5264 20.0999 3.8999 16.4734 3.8999 11.9999C3.8999 7.5264 7.5264 3.8999 11.9999 3.8999C16.4734 3.8999 20.0999 7.5264 20.0999 11.9999Z" fill="black" fill-opacity="0.2"/>
</svg>