<svg xmlns="http://www.w3.org/2000/svg" width="24" height="24" fill="currentColor" viewBox="0 0 24 24"><path d="M12 3.225a8.775 8.775 0 0 0 0 17.55.675.675 0 0 0 .422-1.199c-.095-.077-1.762-1.461-2.621-4.199h2.194a.675.675 0 0 0 0-1.35H9.476a11.8 11.8 0 0 1 0-4.05h5.052A11.6 11.6 0 0 1 14.7 12a.675.675 0 0 0 1.35 0 13 13 0 0 0-.155-2.025h3.249A7.4 7.4 0 0 1 19.425 12a.675.675 0 0 0 1.35 0A8.784 8.784 0 0 0 12 3.225m-2.194 5.4A9.7 9.7 0 0 1 12 4.828a9.7 9.7 0 0 1 2.194 3.797zm5.801 0a11.4 11.4 0 0 0-1.882-3.848 7.45 7.45 0 0 1 4.894 3.848zm4.299 7.228L18.354 17.4l1.548 1.547a.675.675 0 0 1-.955.955L17.4 18.354l-1.547 1.548a.675.675 0 0 1-.955-.955l1.548-1.547-1.548-1.547a.675.675 0 0 1 .955-.955l1.547 1.548 1.547-1.548a.675.675 0 0 1 .955.955z"/></svg>