<svg xmlns="http://www.w3.org/2000/svg" fill="currentColor" viewBox="0 0 24 24" width="24" height="24"><path d="M18.075 14.194a2.52 2.52 0 0 0-1.645.61l-2.162-1.682A2.5 2.5 0 0 0 14.531 12a3 3 0 0 0-.019-.304l1.369-.456a2.531 2.531 0 1 0-.338-1.266 3 3 0 0 0 .019.304l-1.369.456a2.52 2.52 0 0 0-2.735-1.207l-.687-1.544a2.531 2.531 0 1 0-.928.412l.687 1.544a2.525 2.525 0 0 0-.719 3.327l-2.368 2.109a2.538 2.538 0 1 0 .675.759l2.362-2.109a2.524 2.524 0 0 0 3.162-.104l2.162 1.682a2.531 2.531 0 1 0 2.271-1.409m0-5.738a1.519 1.519 0 1 1-1.519 1.519 1.52 1.52 0 0 1 1.519-1.519M7.781 5.925A1.519 1.519 0 1 1 9.3 7.444a1.52 1.52 0 0 1-1.519-1.519M5.925 18.919A1.519 1.519 0 1 1 7.444 17.4a1.52 1.52 0 0 1-1.519 1.519m6.075-5.4A1.519 1.519 0 1 1 13.519 12 1.52 1.52 0 0 1 12 13.519m6.075 4.725a1.519 1.519 0 1 1 1.519-1.519 1.52 1.52 0 0 1-1.519 1.519"/></svg>