<svg viewBox="0 0 24 24" fill="none" xmlns="http://www.w3.org/2000/svg" width="24" height="24">
<path d="M18.0753 20.8509H5.92491C5.27613 20.8508 4.75021 20.3249 4.75011 19.6761V12.0785C4.75037 11.8026 4.97413 11.5785 5.25011 11.5785C5.52609 11.5785 5.74984 11.8026 5.75011 12.0785V19.6761C5.75021 19.7726 5.82842 19.8508 5.92491 19.8509H18.0753C18.1718 19.8508 18.25 19.7726 18.2501 19.6761V12.0785C18.2504 11.8026 18.4741 11.5785 18.7501 11.5785C19.0261 11.5785 19.2498 11.8026 19.2501 12.0785V19.6761C19.25 20.3249 18.7241 20.8508 18.0753 20.8509Z" fill="black"/>
<path d="M9.29967 18.3207C9.0237 18.3205 8.79967 18.0967 8.79967 17.8207C8.79967 17.5447 9.0237 17.3209 9.29967 17.3207H14.7001C14.9762 17.3207 15.2001 17.5445 15.2001 17.8207C15.2001 18.0968 14.9762 18.3207 14.7001 18.3207H9.29967Z" fill="black"/>
<path d="M9.29967 15.7709C9.0237 15.7706 8.79967 15.5469 8.79967 15.2709C8.79967 14.9948 9.0237 14.7711 9.29967 14.7709H14.7001C14.9762 14.7709 15.2001 14.9947 15.2001 15.2709C15.2001 15.547 14.9762 15.7709 14.7001 15.7709H9.29967Z" fill="black"/>
<path d="M9.29967 13.2162C9.0237 13.216 8.79967 12.9922 8.79967 12.7162C8.79967 12.4402 9.0237 12.2164 9.29967 12.2162H14.7001C14.9762 12.2162 15.2001 12.44 15.2001 12.7162C15.2001 12.9923 14.9762 13.2162 14.7001 13.2162H9.29967Z" fill="black"/>
<path d="M18.14 10.7593C17.6067 10.7593 17.14 10.6559 16.74 10.4493C16.3467 10.2359 16.0434 9.93595 15.83 9.54928C15.6167 9.16261 15.51 8.70595 15.51 8.17928C15.51 7.78594 15.57 7.43261 15.69 7.11928C15.81 6.80595 15.9834 6.53928 16.21 6.31928C16.4434 6.09928 16.7234 5.93261 17.05 5.81928C17.3767 5.69928 17.74 5.63928 18.14 5.63928C18.3467 5.63928 18.5667 5.66595 18.8 5.71928C19.0334 5.76595 19.2634 5.84928 19.49 5.96928C19.6234 6.02928 19.7134 6.11595 19.76 6.22928C19.8134 6.33595 19.8334 6.44928 19.82 6.56928C19.8067 6.68261 19.7634 6.78595 19.69 6.87928C19.6234 6.96595 19.5367 7.02595 19.43 7.05928C19.3234 7.08595 19.2034 7.06595 19.07 6.99928C18.9434 6.92595 18.81 6.87261 18.67 6.83928C18.5367 6.80595 18.41 6.78928 18.29 6.78928C18.09 6.78928 17.9134 6.82261 17.76 6.88928C17.6067 6.94928 17.4767 7.03928 17.37 7.15928C17.27 7.27261 17.19 7.41595 17.13 7.58928C17.0767 7.76261 17.05 7.96261 17.05 8.18928C17.05 8.62928 17.1567 8.97595 17.37 9.22928C17.59 9.47595 17.8967 9.59928 18.29 9.59928C18.41 9.59928 18.5367 9.58595 18.67 9.55928C18.8034 9.52595 18.9367 9.47261 19.07 9.39928C19.2034 9.33261 19.3234 9.31595 19.43 9.34928C19.5367 9.38261 19.62 9.44595 19.68 9.53928C19.7467 9.62595 19.7834 9.72928 19.79 9.84928C19.8034 9.96261 19.7834 10.0759 19.73 10.1893C19.6834 10.2959 19.5967 10.3793 19.47 10.4393C19.2434 10.5526 19.0167 10.6326 18.79 10.6793C18.5634 10.7326 18.3467 10.7593 18.14 10.7593Z" fill="black"/>
<path d="M12.6765 10.7593C12.2832 10.7593 11.9332 10.6626 11.6265 10.4693C11.3265 10.2693 11.1265 10.0059 11.0265 9.67928L11.1365 9.34928V9.96928C11.1365 10.2159 11.0732 10.4059 10.9465 10.5393C10.8198 10.6726 10.6365 10.7393 10.3965 10.7393C10.1565 10.7393 9.96985 10.6726 9.83651 10.5393C9.70985 10.4059 9.64651 10.2159 9.64651 9.96928V4.27928C9.64651 4.02594 9.70985 3.83594 9.83651 3.70928C9.96985 3.57594 10.1598 3.50928 10.4065 3.50928C10.6465 3.50928 10.8298 3.57594 10.9565 3.70928C11.0898 3.83594 11.1565 4.02594 11.1565 4.27928V6.64928H11.0365C11.1432 6.34928 11.3465 6.10594 11.6465 5.91928C11.9465 5.73261 12.2898 5.63928 12.6765 5.63928C13.1098 5.63928 13.4865 5.74261 13.8065 5.94928C14.1265 6.15594 14.3765 6.44928 14.5565 6.82928C14.7365 7.20928 14.8265 7.66261 14.8265 8.18928C14.8265 8.71594 14.7365 9.17261 14.5565 9.55928C14.3765 9.94594 14.1232 10.2426 13.7965 10.4493C13.4765 10.6559 13.1032 10.7593 12.6765 10.7593ZM12.2265 9.62928C12.4398 9.62928 12.6265 9.57594 12.7865 9.46928C12.9532 9.36261 13.0798 9.20594 13.1665 8.99928C13.2598 8.78594 13.3065 8.51594 13.3065 8.18928C13.3065 7.70261 13.2065 7.34594 13.0065 7.11928C12.8065 6.88594 12.5465 6.76928 12.2265 6.76928C12.0132 6.76928 11.8232 6.81928 11.6565 6.91928C11.4965 7.01928 11.3698 7.17594 11.2765 7.38928C11.1832 7.59594 11.1365 7.86261 11.1365 8.18928C11.1365 8.67594 11.2365 9.03928 11.4365 9.27928C11.6365 9.51261 11.8998 9.62928 12.2265 9.62928Z" fill="black"/>
<path d="M5.74011 10.7593C5.38011 10.7593 5.05677 10.6893 4.77011 10.5493C4.48344 10.4093 4.26011 10.2193 4.10011 9.97928C3.94011 9.73928 3.86011 9.46928 3.86011 9.16928C3.86011 8.80928 3.95344 8.52595 4.14011 8.31928C4.32677 8.10595 4.63011 7.95595 5.05011 7.86928C5.47011 7.77595 6.02677 7.72928 6.72011 7.72928H7.25011V8.50928H6.73011C6.39011 8.50928 6.11344 8.52928 5.90011 8.56928C5.69344 8.60261 5.54344 8.66261 5.45011 8.74928C5.36344 8.83595 5.32011 8.95595 5.32011 9.10928C5.32011 9.29595 5.38344 9.44928 5.51011 9.56928C5.64344 9.68928 5.83344 9.74928 6.08011 9.74928C6.27344 9.74928 6.44344 9.70595 6.59011 9.61928C6.74344 9.52595 6.86344 9.40261 6.95011 9.24928C7.03677 9.08928 7.08011 8.90928 7.08011 8.70928V7.55928C7.08011 7.26595 7.01344 7.05928 6.88011 6.93928C6.74677 6.81261 6.52011 6.74928 6.20011 6.74928C6.02011 6.74928 5.82344 6.77261 5.61011 6.81928C5.40344 6.85928 5.17344 6.92928 4.92011 7.02928C4.77344 7.09595 4.64344 7.11261 4.53011 7.07928C4.41677 7.03928 4.33011 6.97261 4.27011 6.87928C4.21011 6.77928 4.18011 6.67261 4.18011 6.55928C4.18011 6.43928 4.21344 6.32595 4.28011 6.21928C4.34677 6.10595 4.45677 6.02261 4.61011 5.96928C4.92344 5.84261 5.21677 5.75595 5.49011 5.70928C5.77011 5.66261 6.02677 5.63928 6.26011 5.63928C6.77344 5.63928 7.19344 5.71595 7.52011 5.86928C7.85344 6.01595 8.10344 6.24595 8.27011 6.55928C8.43677 6.86595 8.52011 7.26261 8.52011 7.74928V9.96928C8.52011 10.2159 8.46011 10.4059 8.34011 10.5393C8.22011 10.6726 8.04677 10.7393 7.82011 10.7393C7.59344 10.7393 7.41677 10.6726 7.29011 10.5393C7.17011 10.4059 7.11011 10.2159 7.11011 9.96928V9.59928L7.18011 9.65928C7.14011 9.88595 7.05344 10.0826 6.92011 10.2493C6.79344 10.4093 6.63011 10.5359 6.43011 10.6293C6.23011 10.7159 6.00011 10.7593 5.74011 10.7593Z" fill="black"/>
<path d="M5 7.17285C5 6.75864 5.33579 6.42285 5.75 6.42285H18.25C18.6642 6.42285 19 6.75864 19 7.17285V19.501C19 19.9152 18.6642 20.251 18.25 20.251H5.75C5.33579 20.251 5 19.9152 5 19.501V7.17285Z" fill="black" fill-opacity="0.2"/>
</svg>