<svg viewBox="0 0 24 24" fill="none" xmlns="http://www.w3.org/2000/svg" width="24" height="24">
<path fill-rule="evenodd" clip-rule="evenodd" d="M19.3501 3.8999C19.7642 3.90001 20.1001 4.23575 20.1001 4.6499V19.3501C20.1 19.7642 19.7642 20.1 19.3501 20.1001H4.6499C4.23575 20.1001 3.90001 19.7642 3.8999 19.3501V4.6499C3.8999 4.23569 4.23569 3.8999 4.6499 3.8999H19.3501ZM6.60986 12.9634C6.23721 12.9634 5.93528 13.2666 5.93506 13.6392V17.894C5.93506 18.2668 6.23707 18.5688 6.60986 18.5688C6.98243 18.5686 7.28467 18.2667 7.28467 17.894V13.6392C7.28445 13.2667 6.9823 12.9636 6.60986 12.9634ZM9.67432 16.1978C9.30152 16.1978 8.99951 16.4998 8.99951 16.8726C8.99951 17.2454 9.30152 17.5474 9.67432 17.5474H17.3901C17.7629 17.5474 18.0659 17.2454 18.0659 16.8726C18.0659 16.4998 17.7629 16.1978 17.3901 16.1978H9.67432ZM9.67432 13.7476C9.30153 13.7476 8.99953 14.0496 8.99951 14.4224C8.99951 14.7952 9.30152 15.0972 9.67432 15.0972H17.3901C17.7629 15.0972 18.0659 14.7952 18.0659 14.4224C18.0659 14.0496 17.7629 13.7476 17.3901 13.7476H9.67432ZM6.60986 5.43018C6.23707 5.43018 5.93506 5.73316 5.93506 6.10596V10.3608C5.93523 10.7335 6.23718 11.0356 6.60986 11.0356C6.98233 11.0354 7.2845 10.7333 7.28467 10.3608V6.10596C7.28467 5.73333 6.98243 5.43044 6.60986 5.43018ZM9.67432 8.89893C9.30152 8.89893 8.99951 9.20094 8.99951 9.57373C8.99966 9.9464 9.30161 10.2485 9.67432 10.2485H17.3901C17.7628 10.2485 18.0658 9.9464 18.0659 9.57373C18.0659 9.20094 17.7629 8.89893 17.3901 8.89893H9.67432ZM9.67432 6.45264C9.30152 6.45264 8.99951 6.75465 8.99951 7.12744C8.99962 7.50014 9.30159 7.80225 9.67432 7.80225H17.3901C17.7629 7.80225 18.0658 7.50014 18.0659 7.12744C18.0659 6.75465 17.7629 6.45264 17.3901 6.45264H9.67432Z" fill="black"/>
</svg>