<svg xmlns="http://www.w3.org/2000/svg" width="24" height="24" fill="currentColor" viewBox="0 0 24 24"><path d="M16.05 7.95v8.1h-8.1v-8.1z" opacity=".2"/><path d="M9.975 4.575a.675.675 0 0 1 .675-.675h2.7a.675.675 0 0 1 0 1.35h-2.7a.675.675 0 0 1-.675-.675M13.35 18.75h-2.7a.675.675 0 0 0 0 1.35h2.7a.675.675 0 0 0 0-1.35m5.4-14.85h-2.025a.675.675 0 0 0 0 1.35h2.025v2.025a.675.675 0 0 0 1.35 0V5.25a1.35 1.35 0 0 0-1.35-1.35m.675 6.075a.675.675 0 0 0-.675.675v2.7a.675.675 0 0 0 1.35 0v-2.7a.675.675 0 0 0-.675-.675m0 6.075a.675.675 0 0 0-.675.675v2.025h-2.025a.675.675 0 0 0 0 1.35h2.025a1.35 1.35 0 0 0 1.35-1.35v-2.025a.675.675 0 0 0-.675-.675m-14.85-2.025a.675.675 0 0 0 .675-.675v-2.7a.675.675 0 0 0-1.35 0v2.7a.675.675 0 0 0 .675.675m2.7 4.725H5.25v-2.025a.675.675 0 0 0-1.35 0v2.025a1.35 1.35 0 0 0 1.35 1.35h2.025a.675.675 0 0 0 0-1.35m-2.7-10.8a.675.675 0 0 0 .675-.675V5.25h2.025a.675.675 0 0 0 0-1.35H5.25A1.35 1.35 0 0 0 3.9 5.25v2.025a.675.675 0 0 0 .675.675m11.475 8.775h-8.1a.675.675 0 0 1-.675-.675v-8.1a.675.675 0 0 1 .675-.675h8.1a.675.675 0 0 1 .675.675v8.1a.675.675 0 0 1-.675.675m-.675-8.1h-6.75v6.75h6.75z"/></svg>