<svg viewBox="0 0 24 24" fill="none" xmlns="http://www.w3.org/2000/svg" width="24" height="24">
<path fill-rule="evenodd" clip-rule="evenodd" d="M19.25 20C19.6642 20 20 19.6642 20 19.25V4.75C20 4.33579 19.6642 4 19.25 4H4.75C4.33579 4 4 4.33579 4 4.75V19.25C4 19.6642 4.33579 20 4.75 20H19.25ZM6.68359 17.9209C6.3108 17.9209 6.00879 17.6189 6.00879 17.2461V6.74609C6.00879 6.3733 6.3108 6.07129 6.68359 6.07129C7.05639 6.07129 7.3584 6.3733 7.3584 6.74609V17.2461C7.3584 17.6189 7.05639 17.9209 6.68359 17.9209ZM9.41504 9.67383C8.76622 9.6737 8.24023 9.14788 8.24023 8.49902C8.24023 7.85017 8.76622 7.32435 9.41504 7.32422H16.8066C17.4556 7.32422 17.9814 7.85009 17.9814 8.49902C17.9814 9.14796 17.4556 9.67383 16.8066 9.67383H9.41504ZM8.91504 13.0264C8.54226 13.0263 8.24023 12.7243 8.24023 12.3516C8.24023 11.9788 8.54226 11.6768 8.91504 11.6768H17.3154C17.688 11.677 17.9902 11.9789 17.9902 12.3516C17.9902 12.7242 17.688 13.0262 17.3154 13.0264H8.91504ZM8.91602 16.5195C8.54322 16.5195 8.24121 16.2175 8.24121 15.8447C8.24121 15.4719 8.54322 15.1699 8.91602 15.1699H17.3164C17.689 15.1701 17.9912 15.4721 17.9912 15.8447C17.9912 16.2174 17.689 16.5193 17.3164 16.5195H8.91602Z" fill="black"/>
</svg>