<svg viewBox="0 0 24 24" fill="none" xmlns="http://www.w3.org/2000/svg" width="24" height="24">
<path fill-rule="evenodd" clip-rule="evenodd" d="M19.25 4C19.6642 4 20 4.33579 20 4.75V19.25C20 19.6642 19.6642 20 19.25 20H4.75C4.33579 20 4 19.6642 4 19.25V4.75C4 4.33579 4.33579 4 4.75 4H19.25ZM6.68359 6.0791C6.3108 6.0791 6.00879 6.38111 6.00879 6.75391V17.2539C6.00879 17.6267 6.3108 17.9287 6.68359 17.9287C7.05639 17.9287 7.3584 17.6267 7.3584 17.2539V6.75391C7.3584 6.38111 7.05639 6.0791 6.68359 6.0791ZM9.41504 14.3262C8.76622 14.3263 8.24023 14.8521 8.24023 15.501C8.24023 16.1498 8.76622 16.6756 9.41504 16.6758H16.8066C17.4556 16.6758 17.9814 16.1499 17.9814 15.501C17.9814 14.852 17.4556 14.3262 16.8066 14.3262H9.41504ZM8.91504 10.9736C8.54226 10.9737 8.24023 11.2757 8.24023 11.6484C8.24023 12.0212 8.54226 12.3232 8.91504 12.3232H17.3154C17.688 12.323 17.9902 12.0211 17.9902 11.6484C17.9902 11.2758 17.688 10.9738 17.3154 10.9736H8.91504ZM8.91602 7.48047C8.54322 7.48047 8.24121 7.78248 8.24121 8.15527C8.24121 8.52807 8.54322 8.83008 8.91602 8.83008H17.3164C17.689 8.82987 17.9912 8.52794 17.9912 8.15527C17.9912 7.78261 17.689 7.48068 17.3164 7.48047H8.91602Z" fill="black"/>
</svg>