<svg viewBox="0 0 24 24" fill="none" xmlns="http://www.w3.org/2000/svg" width="24" height="24">
<path d="M19.498 7.99805C19.7742 7.99805 19.998 8.2219 19.998 8.49805C19.998 8.77419 19.7742 8.99805 19.498 8.99805H7.49805C7.2219 8.99805 6.99805 8.77419 6.99805 8.49805C6.99805 8.2219 7.2219 7.99805 7.49805 7.99805H19.498Z" fill="black"/>
<path d="M19.498 5.99805C19.7742 5.99805 19.998 6.2219 19.998 6.49805C19.998 6.77419 19.7742 6.99805 19.498 6.99805H7.49805C7.2219 6.99805 6.99805 6.77419 6.99805 6.49805C6.99805 6.2219 7.2219 5.99805 7.49805 5.99805H19.498Z" fill="black"/>
<path d="M19.498 17.002C19.7742 17.002 19.998 17.2258 19.998 17.502C19.998 17.7781 19.7742 18.002 19.498 18.002H7.49805C7.2219 18.002 6.99805 17.7781 6.99805 17.502C6.99805 17.2258 7.2219 17.002 7.49805 17.002H19.498Z" fill="black"/>
<path d="M19.4941 15.002C19.7703 15.002 19.9941 15.2258 19.9941 15.502C19.9941 15.7781 19.7703 16.002 19.4941 16.002H7.49414C7.218 16.002 6.99414 15.7781 6.99414 15.502C6.99414 15.2258 7.218 15.002 7.49414 15.002H19.4941Z" fill="black"/>
<path d="M3.99854 13.498C3.99854 13.2219 4.22239 12.998 4.49854 12.998C4.77468 12.998 4.99854 13.2219 4.99854 13.498L4.99854 19.502C4.99854 19.7781 4.77468 20.002 4.49854 20.002C4.22239 20.002 3.99854 19.7781 3.99854 19.502L3.99854 13.498Z" fill="black"/>
<path d="M3.99854 4.49805C3.99854 4.2219 4.22239 3.99805 4.49854 3.99805C4.77468 3.99805 4.99854 4.2219 4.99854 4.49805L4.99854 10.502C4.99854 10.7781 4.77468 11.002 4.49854 11.002C4.22239 11.002 3.99854 10.7781 3.99854 10.502L3.99854 4.49805Z" fill="black"/>
<path d="M7.49902 6.75C7.49902 6.33579 7.83481 6 8.24902 6H18.7517C19.1659 6 19.5017 6.33579 19.5017 6.75V17.25C19.5017 17.6642 19.1659 18 18.7517 18H8.24902C7.83481 18 7.49902 17.6642 7.49902 17.25V6.75Z" fill="black" fill-opacity="0.2"/>
</svg>