<svg viewBox="0 0 24 24" fill="none" xmlns="http://www.w3.org/2000/svg" width="24" height="24">
<path d="M18.0753 20.5999H5.92491C5.27613 20.5998 4.75021 20.0738 4.75011 19.4251V11.8274C4.75037 11.5515 4.97413 11.3274 5.25011 11.3274C5.52609 11.3274 5.74984 11.5515 5.75011 11.8274V19.4251C5.75021 19.5216 5.82842 19.5998 5.92491 19.5999H18.0753C18.1718 19.5998 18.25 19.5216 18.2501 19.4251V11.8274C18.2504 11.5515 18.4741 11.3274 18.7501 11.3274C19.0261 11.3274 19.2498 11.5515 19.2501 11.8274V19.4251C19.25 20.0738 18.7241 20.5998 18.0753 20.5999Z" fill="black"/>
<path d="M9.29972 18.0697C9.02375 18.0695 8.79972 17.8457 8.79972 17.5697C8.79972 17.2937 9.02375 17.0699 9.29972 17.0697L14.7001 17.0697C14.9762 17.0697 15.2001 17.2935 15.2001 17.5697C15.2001 17.8458 14.9762 18.0697 14.7001 18.0697L9.29972 18.0697Z" fill="black"/>
<path d="M9.29967 15.5199C9.0237 15.5197 8.79967 15.2959 8.79967 15.0199C8.79967 14.7439 9.0237 14.5201 9.29967 14.5199L14.7001 14.5199C14.9762 14.5199 15.2001 14.7437 15.2001 15.0199C15.2001 15.296 14.9762 15.5199 14.7001 15.5199L9.29967 15.5199Z" fill="black"/>
<path d="M9.29967 12.9652C9.0237 12.965 8.79967 12.7412 8.79967 12.4652C8.79967 12.1892 9.0237 11.9654 9.29967 11.9652L14.7001 11.9652C14.9762 11.9652 15.2001 12.1891 15.2001 12.4652C15.2001 12.7413 14.9762 12.9652 14.7001 12.9652L9.29967 12.9652Z" fill="black"/>
<path d="M18.14 10.5083C17.6067 10.5083 17.14 10.405 16.74 10.1983C16.3467 9.98497 16.0434 9.68497 15.83 9.2983C15.6167 8.91164 15.51 8.45497 15.51 7.9283C15.51 7.53497 15.57 7.18164 15.69 6.8683C15.81 6.55497 15.9834 6.2883 16.21 6.0683C16.4434 5.8483 16.7234 5.68164 17.05 5.5683C17.3767 5.4483 17.74 5.3883 18.14 5.3883C18.3467 5.3883 18.5667 5.41497 18.8 5.4683C19.0334 5.51497 19.2634 5.5983 19.49 5.7183C19.6234 5.7783 19.7134 5.86497 19.76 5.9783C19.8134 6.08497 19.8334 6.1983 19.82 6.3183C19.8067 6.43164 19.7634 6.53497 19.69 6.6283C19.6234 6.71497 19.5367 6.77497 19.43 6.8083C19.3234 6.83497 19.2034 6.81497 19.07 6.7483C18.9434 6.67497 18.81 6.62164 18.67 6.5883C18.5367 6.55497 18.41 6.5383 18.29 6.5383C18.09 6.5383 17.9134 6.57164 17.76 6.6383C17.6067 6.6983 17.4767 6.7883 17.37 6.9083C17.27 7.02164 17.19 7.16497 17.13 7.3383C17.0767 7.51164 17.05 7.71164 17.05 7.9383C17.05 8.3783 17.1567 8.72497 17.37 8.9783C17.59 9.22497 17.8967 9.3483 18.29 9.3483C18.41 9.3483 18.5367 9.33497 18.67 9.3083C18.8034 9.27497 18.9367 9.22164 19.07 9.1483C19.2034 9.08164 19.3234 9.06497 19.43 9.0983C19.5367 9.13164 19.62 9.19497 19.68 9.2883C19.7467 9.37497 19.7834 9.4783 19.79 9.5983C19.8034 9.71164 19.7834 9.82497 19.73 9.9383C19.6834 10.045 19.5967 10.1283 19.47 10.1883C19.2434 10.3016 19.0167 10.3816 18.79 10.4283C18.5634 10.4816 18.3467 10.5083 18.14 10.5083Z" fill="black"/>
<path d="M12.6765 10.5083C12.2832 10.5083 11.9332 10.4116 11.6265 10.2183C11.3265 10.0183 11.1265 9.75497 11.0265 9.4283L11.1365 9.0983V9.7183C11.1365 9.96497 11.0732 10.155 10.9465 10.2883C10.8198 10.4216 10.6365 10.4883 10.3965 10.4883C10.1565 10.4883 9.96985 10.4216 9.83651 10.2883C9.70985 10.155 9.64651 9.96497 9.64651 9.7183V4.0283C9.64651 3.77497 9.70985 3.58497 9.83651 3.4583C9.96985 3.32497 10.1598 3.2583 10.4065 3.2583C10.6465 3.2583 10.8298 3.32497 10.9565 3.4583C11.0898 3.58497 11.1565 3.77497 11.1565 4.0283V6.3983H11.0365C11.1432 6.0983 11.3465 5.85497 11.6465 5.6683C11.9465 5.48163 12.2898 5.3883 12.6765 5.3883C13.1098 5.3883 13.4865 5.49163 13.8065 5.6983C14.1265 5.90497 14.3765 6.1983 14.5565 6.5783C14.7365 6.9583 14.8265 7.41163 14.8265 7.9383C14.8265 8.46497 14.7365 8.92163 14.5565 9.3083C14.3765 9.69497 14.1232 9.99163 13.7965 10.1983C13.4765 10.405 13.1032 10.5083 12.6765 10.5083ZM12.2265 9.3783C12.4398 9.3783 12.6265 9.32497 12.7865 9.2183C12.9532 9.11163 13.0798 8.95497 13.1665 8.7483C13.2598 8.53497 13.3065 8.26497 13.3065 7.9383C13.3065 7.45163 13.2065 7.09497 13.0065 6.8683C12.8065 6.63497 12.5465 6.5183 12.2265 6.5183C12.0132 6.5183 11.8232 6.5683 11.6565 6.6683C11.4965 6.7683 11.3698 6.92497 11.2765 7.1383C11.1832 7.34497 11.1365 7.61163 11.1365 7.9383C11.1365 8.42497 11.2365 8.7883 11.4365 9.0283C11.6365 9.26163 11.8998 9.3783 12.2265 9.3783Z" fill="black"/>
<path d="M5.74011 10.5083C5.38011 10.5083 5.05677 10.4383 4.77011 10.2983C4.48344 10.1583 4.26011 9.9683 4.10011 9.7283C3.94011 9.4883 3.86011 9.2183 3.86011 8.9183C3.86011 8.5583 3.95344 8.27497 4.14011 8.0683C4.32677 7.85497 4.63011 7.70497 5.05011 7.6183C5.47011 7.52497 6.02677 7.4783 6.72011 7.4783H7.25011V8.2583H6.73011C6.39011 8.2583 6.11344 8.2783 5.90011 8.3183C5.69344 8.35164 5.54344 8.41164 5.45011 8.4983C5.36344 8.58497 5.32011 8.70497 5.32011 8.8583C5.32011 9.04497 5.38344 9.1983 5.51011 9.3183C5.64344 9.4383 5.83344 9.4983 6.08011 9.4983C6.27344 9.4983 6.44344 9.45497 6.59011 9.3683C6.74344 9.27497 6.86344 9.15164 6.95011 8.9983C7.03677 8.8383 7.08011 8.6583 7.08011 8.4583V7.3083C7.08011 7.01497 7.01344 6.8083 6.88011 6.6883C6.74677 6.56164 6.52011 6.4983 6.20011 6.4983C6.02011 6.4983 5.82344 6.52164 5.61011 6.5683C5.40344 6.6083 5.17344 6.6783 4.92011 6.7783C4.77344 6.84497 4.64344 6.86164 4.53011 6.8283C4.41677 6.7883 4.33011 6.72164 4.27011 6.6283C4.21011 6.5283 4.18011 6.42164 4.18011 6.3083C4.18011 6.1883 4.21344 6.07497 4.28011 5.9683C4.34677 5.85497 4.45677 5.77164 4.61011 5.7183C4.92344 5.59164 5.21677 5.50497 5.49011 5.4583C5.77011 5.41164 6.02677 5.3883 6.26011 5.3883C6.77344 5.3883 7.19344 5.46497 7.52011 5.6183C7.85344 5.76497 8.10344 5.99497 8.27011 6.3083C8.43677 6.61497 8.52011 7.01164 8.52011 7.4983V9.7183C8.52011 9.96497 8.46011 10.155 8.34011 10.2883C8.22011 10.4216 8.04677 10.4883 7.82011 10.4883C7.59344 10.4883 7.41677 10.4216 7.29011 10.2883C7.17011 10.155 7.11011 9.96497 7.11011 9.7183V9.3483L7.18011 9.4083C7.14011 9.63497 7.05344 9.83164 6.92011 9.9983C6.79344 10.1583 6.63011 10.285 6.43011 10.3783C6.23011 10.465 6.00011 10.5083 5.74011 10.5083Z" fill="black"/>
</svg>