<svg viewBox="0 0 24 24" fill="none" xmlns="http://www.w3.org/2000/svg" width="24" height="24">
<path d="M19.4998 7.99805C19.7759 7.99805 19.9998 8.2219 19.9998 8.49805C19.9998 8.77419 19.7759 8.99805 19.4998 8.99805H7.49976C7.22361 8.99805 6.99976 8.77419 6.99976 8.49805C6.99976 8.2219 7.22361 7.99805 7.49976 7.99805H19.4998Z" fill="black"/>
<path d="M19.4998 5.99805C19.7759 5.99805 19.9998 6.2219 19.9998 6.49805C19.9998 6.77419 19.7759 6.99805 19.4998 6.99805H7.49976C7.22361 6.99805 6.99976 6.77419 6.99976 6.49805C6.99976 6.2219 7.22361 5.99805 7.49976 5.99805H19.4998Z" fill="black"/>
<path d="M19.4998 17.002C19.7759 17.002 19.9998 17.2258 19.9998 17.502C19.9998 17.7781 19.7759 18.002 19.4998 18.002H7.49976C7.22361 18.002 6.99976 17.7781 6.99976 17.502C6.99976 17.2258 7.22361 17.002 7.49976 17.002H19.4998Z" fill="black"/>
<path d="M19.4958 15.002C19.772 15.002 19.9958 15.2258 19.9958 15.502C19.9958 15.7781 19.772 16.002 19.4958 16.002H7.49585C7.21971 16.002 6.99585 15.7781 6.99585 15.502C6.99585 15.2258 7.21971 15.002 7.49585 15.002H19.4958Z" fill="black"/>
<path d="M4.00024 13.498C4.00024 13.2219 4.2241 12.998 4.50024 12.998C4.77639 12.998 5.00024 13.2219 5.00024 13.498L5.00024 19.502C5.00024 19.7781 4.77639 20.002 4.50024 20.002C4.2241 20.002 4.00024 19.7781 4.00024 19.502L4.00024 13.498Z" fill="black"/>
<path d="M4.00024 4.49805C4.00024 4.2219 4.2241 3.99805 4.50024 3.99805C4.77639 3.99805 5.00024 4.2219 5.00024 4.49805L5.00024 10.502C5.00024 10.7781 4.77639 11.002 4.50024 11.002C4.2241 11.002 4.00024 10.7781 4.00024 10.502L4.00024 4.49805Z" fill="black"/>
</svg>