<svg viewBox="0 0 24 24" fill="none" xmlns="http://www.w3.org/2000/svg" width="24" height="24">
<path d="M19.4971 13.0078C19.7732 13.0078 19.9971 12.784 19.9971 12.5078C19.9971 12.2317 19.7732 12.0078 19.4971 12.0078H7.49707C7.22093 12.0078 6.99707 12.2317 6.99707 12.5078C6.99707 12.784 7.22093 13.0078 7.49707 13.0078H19.4971Z" fill="black"/>
<path d="M19.4998 18.0039C19.7759 18.0039 19.9998 17.78 19.9998 17.5039C19.9998 17.2278 19.7759 17.0039 19.4998 17.0039H7.49976C7.22361 17.0039 6.99976 17.2278 6.99976 17.5039C6.99976 17.78 7.22361 18.0039 7.49976 18.0039H19.4998Z" fill="black"/>
<path d="M18.9963 8.00391C19.5486 8.00391 19.9963 7.55619 19.9963 7.00391C19.9963 6.45162 19.5486 6.00391 18.9963 6.00391H7.99634C7.44405 6.00391 6.99634 6.45162 6.99634 7.00391C6.99634 7.55619 7.44405 8.00391 7.99634 8.00391H18.9963Z" fill="black"/>
<path d="M4.00024 19.5C4.00024 19.7761 4.2241 20 4.50024 20C4.77639 20 5.00024 19.7761 5.00024 19.5L5.00024 4.5C5.00024 4.22386 4.77639 4 4.50024 4C4.2241 4 4.00024 4.22386 4.00024 4.5L4.00024 19.5Z" fill="black"/>
</svg>