<svg viewBox="0 0 24 24" fill="none" xmlns="http://www.w3.org/2000/svg" width="24" height="24">
<path fill-rule="evenodd" clip-rule="evenodd" d="M19.3501 3.8999C19.7642 3.90001 20.1001 4.23575 20.1001 4.6499V19.3501C20.1 19.7642 19.7642 20.1 19.3501 20.1001H4.6499C4.23575 20.1001 3.90001 19.7642 3.8999 19.3501V4.6499C3.8999 4.23569 4.23569 3.8999 4.6499 3.8999H19.3501ZM6.61279 6.01318C6.24014 6.01334 5.93799 6.31627 5.93799 6.68896V17.3198C5.93817 17.6924 6.24025 17.9945 6.61279 17.9946C6.98547 17.9946 7.28741 17.6925 7.2876 17.3198V6.68896C7.2876 6.31617 6.98559 6.01318 6.61279 6.01318ZM8.87744 15.2271C8.50472 15.2271 8.20276 15.5292 8.20264 15.9019C8.20264 16.2746 8.50465 16.5767 8.87744 16.5767H17.3823C17.7551 16.5766 18.0571 16.2746 18.0571 15.9019C18.057 15.5292 17.755 15.2271 17.3823 15.2271H8.87744ZM8.87549 11.3257C8.50283 11.3257 8.2009 11.6279 8.20068 12.0005C8.20068 12.3733 8.5027 12.6753 8.87549 12.6753H17.3804C17.7531 12.6752 18.0552 12.3732 18.0552 12.0005C18.055 11.6279 17.753 11.3257 17.3804 11.3257H8.87549ZM8.87744 7.42822C8.50469 7.42822 8.20271 7.7303 8.20264 8.10303C8.20264 8.47582 8.50465 8.77783 8.87744 8.77783H17.3823C17.7551 8.77779 18.0571 8.4758 18.0571 8.10303C18.0571 7.73032 17.755 7.42826 17.3823 7.42822H8.87744Z" fill="black"/>
</svg>