<svg viewBox="0 0 24 24" fill="none" xmlns="http://www.w3.org/2000/svg" width="24" height="24">
<path d="M7.49707 6.74609C7.49707 6.33188 7.83286 5.99609 8.24707 5.99609H18.7498C19.164 5.99609 19.4998 6.33188 19.4998 6.74609V17.2461C19.4998 17.6603 19.164 17.9961 18.7498 17.9961H8.24707C7.83286 17.9961 7.49707 17.6603 7.49707 17.2461V6.74609Z" fill="black" fill-opacity="0.2"/>
<path d="M19.4971 11.4961C19.7732 11.4961 19.9971 11.72 19.9971 11.9961C19.9971 12.2722 19.7732 12.4961 19.4971 12.4961H7.49707C7.22093 12.4961 6.99707 12.2722 6.99707 11.9961C6.99707 11.72 7.22093 11.4961 7.49707 11.4961H19.4971Z" fill="black"/>
<path d="M19.4998 5.99609C19.7759 5.99609 19.9998 6.21995 19.9998 6.49609C19.9998 6.77224 19.7759 6.99609 19.4998 6.99609H7.49976C7.22361 6.99609 6.99976 6.77224 6.99976 6.49609C6.99976 6.21995 7.22361 5.99609 7.49976 5.99609H19.4998Z" fill="black"/>
<path d="M19.4998 17C19.7759 17 19.9998 17.2239 19.9998 17.5C19.9998 17.7761 19.7759 18 19.4998 18H7.49976C7.22361 18 6.99976 17.7761 6.99976 17.5C6.99976 17.2239 7.22361 17 7.49976 17H19.4998Z" fill="black"/>
<path d="M4.00024 4.5C4.00024 4.22386 4.2241 4 4.50024 4C4.77639 4 5.00024 4.22386 5.00024 4.5L5.00024 19.5C5.00024 19.7761 4.77639 20 4.50024 20C4.2241 20 4.00024 19.7761 4.00024 19.5L4.00024 4.5Z" fill="black"/>
</svg>