<svg xmlns="http://www.w3.org/2000/svg" width="24" height="24" fill="currentColor" viewBox="0 0 24 24"><path d="m15.076 13.35 1.649-2.098v2.098zm5.024-8.1v13.5a1.35 1.35 0 0 1-1.35 1.35H5.25a1.35 1.35 0 0 1-1.35-1.35V5.25A1.35 1.35 0 0 1 5.25 3.9h13.5a1.35 1.35 0 0 1 1.35 1.35M12 7.95a.675.675 0 0 0-1.35 0v2.7H7.275v-2.7a.675.675 0 0 0-1.35 0v6.75a.675.675 0 0 0 1.35 0V12h3.375v2.7a.675.675 0 0 0 1.35 0zm7.088 6.075a.675.675 0 0 0-.675-.675h-.337V9.3a.675.675 0 0 0-1.206-.417l-3.713 4.725a.675.675 0 0 0 .531 1.092h3.037v1.35a.675.675 0 0 0 1.35 0V14.7h.337a.675.675 0 0 0 .675-.675z"/></svg>