<svg xmlns="http://www.w3.org/2000/svg" width="24" height="24" fill="currentColor" viewBox="0 0 24 24"><path d="M18.75 3.9v16.2a1.35 1.35 0 0 1-1.35 1.35H6.6a1.35 1.35 0 0 1-1.35-1.35V3.9A1.35 1.35 0 0 1 6.6 2.55h10.8a1.35 1.35 0 0 1 1.35 1.35" opacity=".2"/><path d="M9.975 6.263a1.013 1.013 0 1 1-1.013-1.012 1.013 1.013 0 0 1 1.013 1.012m5.063 1.013a1.013 1.013 0 1 0-1.013-1.013 1.013 1.013 0 0 0 1.013 1.013m-6.075 3.713a1.013 1.013 0 1 0 1.013 1.012 1.013 1.013 0 0 0-1.013-1.012m6.075 0a1.013 1.013 0 1 0 1.013 1.012 1.013 1.013 0 0 0-1.013-1.012m-6.075 5.737a1.013 1.013 0 1 0 1.013 1.013 1.013 1.013 0 0 0-1.013-1.013m6.075 0a1.013 1.013 0 1 0 1.013 1.013 1.013 1.013 0 0 0-1.013-1.013"/></svg>