<svg xmlns="http://www.w3.org/2000/svg" fill="currentColor" viewBox="0 0 24 24" width="24" height="24"><path d="M18.75 4.575H5.25a1.35 1.35 0 0 0-1.35 1.35v4.05a1.35 1.35 0 0 0 1.35 1.35h13.5a1.35 1.35 0 0 0 1.35-1.35v-4.05a1.35 1.35 0 0 0-1.35-1.35m-2.362 4.388a1.013 1.013 0 1 1 1.013-1.013 1.013 1.013 0 0 1-1.013 1.013m2.362 3.713H5.25a1.35 1.35 0 0 0-1.35 1.35v4.05a1.35 1.35 0 0 0 1.35 1.35h13.5a1.35 1.35 0 0 0 1.35-1.35v-4.05a1.35 1.35 0 0 0-1.35-1.35m-2.363 4.387a1.013 1.013 0 1 1 1.012-1.012 1.013 1.013 0 0 1-1.012 1.012"/></svg>