<svg xmlns="http://www.w3.org/2000/svg" width="24" height="24" fill="currentColor" viewBox="0 0 24 24"><path d="M18.115 5.931a8.55 8.55 0 0 0-6.05-2.537H12A8.606 8.606 0 0 0 3.394 12v4.725a1.856 1.856 0 0 0 1.856 1.856H6.6a1.856 1.856 0 0 0 1.856-1.856V13.35A1.856 1.856 0 0 0 6.6 11.494H4.423A7.594 7.594 0 0 1 12 4.407h.057a7.57 7.57 0 0 1 7.52 7.088h-2.178a1.856 1.856 0 0 0-1.856 1.856v3.375a1.856 1.856 0 0 0 1.856 1.856h2.194v.169a2.194 2.194 0 0 1-2.194 2.194h-4.725a.506.506 0 0 0 0 1.012h4.725a3.206 3.206 0 0 0 3.206-3.206v-6.75a8.56 8.56 0 0 0-2.492-6.069zM6.6 12.506a.844.844 0 0 1 .844.844v3.375a.844.844 0 0 1-.844.844H5.25a.844.844 0 0 1-.844-.844v-4.219zm9.956 4.219V13.35a.844.844 0 0 1 .844-.844h2.194v5.062H17.4a.844.844 0 0 1-.844-.844z"/></svg>