<svg xmlns="http://www.w3.org/2000/svg" width="24" height="24" fill="currentColor" viewBox="0 0 24 24"><path d="M20.775 12v6.75a3.375 3.375 0 0 1-3.375 3.375h-4.725a.675.675 0 0 1 0-1.35H17.4a2.025 2.025 0 0 0 2.025-2.025H17.4a2.025 2.025 0 0 1-2.025-2.025V13.35a2.025 2.025 0 0 1 2.025-2.025h1.995A7.425 7.425 0 0 0 6.768 6.73a7.37 7.37 0 0 0-2.163 4.595H6.6a2.025 2.025 0 0 1 2.025 2.025v3.375A2.025 2.025 0 0 1 6.6 18.75H5.25a2.025 2.025 0 0 1-2.025-2.025V12a8.784 8.784 0 0 1 15.009-6.188A8.73 8.73 0 0 1 20.775 12"/></svg>