<svg xmlns="http://www.w3.org/2000/svg" fill="currentColor" viewBox="0 0 24 24" width="24" height="24"><path d="M19.419 9.698a6.75 6.75 0 0 0-13.494.277l-1.97 3.786a.675.675 0 0 0 .318.87L6.6 15.697v3.054a.675.675 0 0 0 .675.675h4.05a1.35 1.35 0 0 0 1.35 1.35H17.4l-.675-5.4a6.74 6.74 0 0 0 2.694-5.677zM10.661 7.45a1.35 1.35 0 1 1 1.164 1.164 1.35 1.35 0 0 1-1.164-1.164m2.869 6.564a1.35 1.35 0 1 1 1.164-1.164 1.35 1.35 0 0 1-1.168 1.164z" opacity=".2"/><path d="M17.442 15.668A7.45 7.45 0 0 0 20.1 9.801c-.084-3.857-3.173-7.037-7.023-7.239A7.425 7.425 0 0 0 5.25 9.807L3.356 13.45l-.022.046a1.35 1.35 0 0 0 .637 1.74l.021.009 1.933.885v2.621a1.35 1.35 0 0 0 1.35 1.35h4.05a.675.675 0 0 0 0-1.35h-4.05v-3.054a.68.68 0 0 0-.394-.614l-2.306-1.057 1.947-3.741a.7.7 0 0 0 .078-.309 6.075 6.075 0 0 1 4.725-5.924v1.315a2.025 2.025 0 1 0 1.35 0V3.901c.11 0 .219 0 .329.008a6.1 6.1 0 0 1 5.395 4.042h-1.674a.68.68 0 0 0-.519.243l-2.152 2.584a2.03 2.03 0 1 0 1.036.865l1.952-2.341h1.67q.03.263.037.532a6.1 6.1 0 0 1-2.428 5.003.68.68 0 0 0-.265.624l.675 5.4a.675.675 0 0 0 .669.591l.084-.005a.675.675 0 0 0 .586-.753zM12 7.95a.675.675 0 1 1 .675-.675.675.675 0 0 1-.675.675m1.35 5.4a.675.675 0 1 1 .675-.675.675.675 0 0 1-.675.675"/></svg>