<svg xmlns="http://www.w3.org/2000/svg" width="24" height="24" fill="currentColor" viewBox="0 0 24 24"><path d="M16.219 4.744c-1.772 0-3.313.799-4.219 2.138-.906-1.339-2.447-2.138-4.219-2.138a5.07 5.07 0 0 0-5.063 5.062c0 2.464 1.536 5.028 4.565 7.62a28 28 0 0 0 4.477 3.122.5.5 0 0 0 .479 0 28 28 0 0 0 4.477-3.122c3.029-2.592 4.565-5.156 4.565-7.62a5.07 5.07 0 0 0-5.063-5.063zM12 19.519c-1.385-.799-8.269-5.011-8.269-9.712a4.054 4.054 0 0 1 4.05-4.05c1.711 0 3.148.914 3.75 2.385a.506.506 0 0 0 .937 0c.602-1.472 2.039-2.385 3.75-2.385a4.054 4.054 0 0 1 4.05 4.05c0 4.701-6.884 8.913-8.269 9.712z"/></svg>