<svg xmlns="http://www.w3.org/2000/svg" width="24" height="24" fill="currentColor" viewBox="0 0 24 24"><path d="M20.1 7.965v8.07a.68.68 0 0 1-.351.591l-7.425 4.065a.68.68 0 0 1-.648 0l-7.425-4.065a.68.68 0 0 1-.351-.591v-8.07a.68.68 0 0 1 .351-.591l7.425-4.065a.68.68 0 0 1 .648 0l7.425 4.065a.68.68 0 0 1 .351.591" opacity=".2"/><path d="m20.073 6.781-7.425-4.063a1.34 1.34 0 0 0-1.296 0L3.927 6.782a1.35 1.35 0 0 0-.702 1.181v8.07a1.35 1.35 0 0 0 .702 1.181l7.425 4.064a1.34 1.34 0 0 0 1.296 0l7.425-4.064a1.35 1.35 0 0 0 .702-1.181V7.964a1.35 1.35 0 0 0-.702-1.184zm-.648 9.253L12 20.099l-7.425-4.065v-8.07L12 3.899l7.425 4.064z"/></svg>