<svg xmlns="http://www.w3.org/2000/svg" width="24" height="24" fill="currentColor" viewBox="0 0 24 24"><path d="M18.085 5.914a8.606 8.606 0 1 0-12.17 12.171 8.606 8.606 0 1 0 12.17-12.171m-8.954 13.12v-5.009a.17.17 0 0 1 .169-.169h5.4a.17.17 0 0 1 .169.169v5.009a7.64 7.64 0 0 1-5.738 0m4.388-6.191h-3.038V9.612l3.037-1.519zm3.851 4.526a7.7 7.7 0 0 1-1.488 1.16v-4.505a1.18 1.18 0 0 0-1.181-1.181h-.169V7.274a.506.506 0 0 0-.732-.453L9.75 8.846a.51.51 0 0 0-.28.453v3.544h-.169a1.18 1.18 0 0 0-1.181 1.181v4.505a7.7 7.7 0 0 1-1.488-1.16 7.594 7.594 0 1 1 10.739 0z"/></svg>