<svg xmlns="http://www.w3.org/2000/svg" width="24" height="24" fill="currentColor" viewBox="0 0 24 24"><path d="M17.727 17.727a8.1 8.1 0 0 1-2.352 1.638v-5.34a.675.675 0 0 0-.675-.675h-.675V7.275L9.975 9.3v4.05H9.3a.675.675 0 0 0-.675.675v5.34a8.1 8.1 0 1 1 9.102-1.638" opacity=".2"/><path d="M18.205 5.795a8.775 8.775 0 0 0-12.41 12.41 8.775 8.775 0 0 0 12.41-12.41M9.3 18.919v-4.894h5.4v4.894a7.45 7.45 0 0 1-5.4 0m4.05-6.244h-2.7V9.717l2.7-1.35zm3.9 4.575a7.4 7.4 0 0 1-1.2.975v-4.199a1.35 1.35 0 0 0-1.35-1.35v-5.4a.675.675 0 0 0-.977-.604l-4.05 2.025a.68.68 0 0 0-.373.604v3.375a1.35 1.35 0 0 0-1.35 1.35v4.199a7.425 7.425 0 1 1 9.3-.975"/></svg>