<svg xmlns="http://www.w3.org/2000/svg" width="24" height="24" fill="currentColor" viewBox="0 0 24 24"><path d="m19.585 10.49-6.75-6.75a1.18 1.18 0 0 0-1.671 0l-6.75 6.75a1.18 1.18 0 0 0-.346.835v8.1a.506.506 0 0 0 .506.506h5.4a.506.506 0 0 0 .506-.506v-4.894h3.037v4.894a.506.506 0 0 0 .506.506h5.4a.506.506 0 0 0 .506-.506v-8.1a1.18 1.18 0 0 0-.346-.835zm-.667 8.429h-4.387v-4.894a.506.506 0 0 0-.506-.506h-4.05a.506.506 0 0 0-.506.506v4.894H5.081v-7.594a.17.17 0 0 1 .049-.12l6.75-6.75a.17.17 0 0 1 .24 0l6.75 6.75a.17.17 0 0 1 .049.12z"/></svg>