<svg viewBox="0 0 24 24" fill="none" xmlns="http://www.w3.org/2000/svg" width="24" height="24">
<path d="M18.75 3.89941C19.108 3.89941 19.4519 4.04184 19.7051 4.29492C19.9583 4.5481 20.1006 4.89196 20.1006 5.25V18.75C20.1006 19.1079 19.9581 19.451 19.7051 19.7041C19.4519 19.9573 19.108 20.0996 18.75 20.0996H5.25C4.8921 20.0995 4.54898 19.9572 4.2959 19.7041C4.04284 19.451 3.90042 19.1079 3.90039 18.75V5.25C3.90039 4.89196 4.04272 4.5481 4.2959 4.29492C4.54896 4.04199 4.89221 3.89952 5.25 3.89941H18.75ZM6.59473 15.3701C6.22212 15.3702 5.92007 15.6723 5.91992 16.0449C5.92003 16.4176 6.22209 16.7196 6.59473 16.7197H12.0449C12.4176 16.7197 12.7196 16.4176 12.7197 16.0449C12.7196 15.6723 12.4176 15.3701 12.0449 15.3701H6.59473ZM7.27051 10.6602C6.5251 10.6604 5.9209 11.2653 5.9209 12.0107C5.9213 12.7559 6.52535 13.3601 7.27051 13.3604H16.7305C17.4756 13.3601 18.0807 12.7558 18.0811 12.0107C18.0811 11.2653 17.4758 10.6604 16.7305 10.6602H7.27051ZM6.59473 7.27051C6.22206 7.27066 5.91992 7.57261 5.91992 7.94531C5.92003 8.31792 6.22213 8.61997 6.59473 8.62012H12.0449C12.4176 8.62012 12.7196 8.31802 12.7197 7.94531C12.7197 7.57252 12.4177 7.27051 12.0449 7.27051H6.59473Z" fill="black"/>
</svg>