<svg viewBox="0 0 24 24" fill="none" xmlns="http://www.w3.org/2000/svg" width="24" height="24">
<rect opacity="0.2" x="4.5752" y="6.6001" width="14.85" height="10.7998" rx="0.75" fill="black"/>
<path d="M4.57959 17.8999C4.30365 17.8997 4.07959 17.6759 4.07959 17.3999C4.07959 17.1239 4.30365 16.9001 4.57959 16.8999L10.52 16.8999C10.7962 16.8999 11.02 17.1238 11.02 17.3999C11.02 17.676 10.7962 17.8999 10.52 17.8999L4.57959 17.8999Z" fill="black"/>
<path d="M18.93 12C18.93 12.5523 18.4823 13 17.93 13L5.08002 13C4.52773 13 4.08002 12.5523 4.08002 12C4.08002 11.4477 4.52773 11 5.08002 11L17.93 11C18.4823 11 18.93 11.4477 18.93 12Z" fill="black"/>
<path d="M4.57959 7.1001C4.30364 7.09987 4.07959 6.8761 4.07959 6.6001C4.07959 6.3241 4.30364 6.10033 4.57959 6.1001L10.52 6.1001C10.7962 6.1001 11.02 6.32396 11.02 6.6001C11.02 6.87624 10.7962 7.1001 10.52 7.1001L4.57959 7.1001Z" fill="black"/>
</svg>