<svg viewBox="0 0 24 24" fill="none" xmlns="http://www.w3.org/2000/svg" width="24" height="24">
<path opacity="0.2" d="M19.4252 10.65V5.925C19.4252 5.74598 19.3541 5.57429 19.2275 5.4477C19.1009 5.32112 18.9292 5.25 18.7502 5.25H5.2502C5.07117 5.25 4.89949 5.32112 4.7729 5.4477C4.64631 5.57429 4.5752 5.74598 4.5752 5.925V10.65C4.5752 18.75 12.0002 20.775 12.0002 20.775C12.0002 20.775 19.4252 18.75 19.4252 10.65Z" fill="black"/>
<path d="M18.9248 5.9248C18.9248 5.87846 18.9068 5.83355 18.874 5.80078C18.8412 5.76808 18.7963 5.75 18.75 5.75H5.25C5.20366 5.75005 5.15875 5.76801 5.12598 5.80078C5.0932 5.83355 5.07525 5.87846 5.0752 5.9248V10.6504C5.07531 14.522 6.84058 16.9201 8.60449 18.3633C9.49136 19.0889 10.38 19.5738 11.0469 19.877C11.3798 20.0283 11.656 20.1333 11.8467 20.2002C11.9064 20.2211 11.958 20.2374 12 20.251C12.042 20.2374 12.0936 20.2211 12.1533 20.2002C12.3439 20.1334 12.6203 20.0282 12.9531 19.877C13.6201 19.5738 14.5095 19.089 15.3965 18.3633C17.1604 16.9201 18.9247 14.5219 18.9248 10.6504V5.9248ZM19.9248 10.6504C19.9247 14.8783 17.9777 17.5425 16.0293 19.1367C15.06 19.9298 14.0924 20.4575 13.3672 20.7871C13.004 20.9522 12.6997 21.068 12.4844 21.1436C12.3769 21.1812 12.2914 21.209 12.2314 21.2275C12.2016 21.2368 12.1778 21.2442 12.1611 21.249C12.1528 21.2515 12.1455 21.2535 12.1406 21.2549C12.1384 21.2555 12.1362 21.2564 12.1348 21.2568H12.1318C12.0457 21.2803 11.9543 21.2813 11.8682 21.2578L11.8652 21.2568C11.8637 21.2564 11.8618 21.2556 11.8594 21.2549C11.8546 21.2535 11.8481 21.2514 11.8398 21.249C11.8232 21.2442 11.7994 21.2368 11.7695 21.2275C11.7095 21.209 11.6234 21.1813 11.5156 21.1436C11.3003 21.068 10.9959 20.9521 10.6328 20.7871C9.90761 20.4574 8.93986 19.9297 7.9707 19.1367C6.02235 17.5425 4.07532 14.8781 4.0752 10.6504V5.9248C4.07525 5.61325 4.19864 5.31406 4.41895 5.09375C4.63925 4.87344 4.93844 4.75005 5.25 4.75H18.75C19.0615 4.75 19.3607 4.87352 19.5811 5.09375C19.8014 5.31406 19.9248 5.61325 19.9248 5.9248V10.6504Z" fill="black"/>
<path d="M13.5249 14.0242C13.5249 13.5304 13.329 13.057 12.98 12.7077C12.6307 12.3585 12.1566 12.1618 11.6626 12.1618H11.6519C11.407 12.1568 11.1635 12.2008 10.936 12.2917C10.7084 12.3828 10.5016 12.5194 10.3276 12.6921C10.1736 12.8449 9.93835 12.8806 9.74561 12.781C9.55281 12.6813 9.44625 12.4687 9.48193 12.2546L10.1567 8.20482C10.1969 7.96379 10.4056 7.78694 10.6499 7.78685H14.0249C14.301 7.78685 14.5249 8.01071 14.5249 8.28685C14.5249 8.56299 14.301 8.78685 14.0249 8.78685H11.0737L10.6489 11.3337C10.9736 11.2156 11.3167 11.1559 11.6626 11.1618C12.4218 11.1618 13.1502 11.4639 13.687 12.0007C14.2235 12.5375 14.5249 13.2652 14.5249 14.0242C14.5249 14.7833 14.2238 15.5118 13.687 16.0486C13.1525 16.5831 12.428 16.8829 11.6724 16.8855L11.6733 16.8865C11.6709 16.8865 11.668 16.8854 11.6655 16.8855L11.6626 16.8865C11.287 16.8929 10.9138 16.8248 10.5649 16.6853C10.2128 16.5444 9.89174 16.3344 9.62256 16.0671C9.4266 15.8726 9.42604 15.5551 9.62061 15.3591C9.8152 15.1635 10.1318 15.1627 10.3276 15.3572C10.5016 15.5298 10.7085 15.6656 10.936 15.7566C11.1635 15.8476 11.4069 15.8925 11.6519 15.8874L11.6626 15.8865C12.1566 15.8865 12.6307 15.6908 12.98 15.3415C13.3292 14.9923 13.5249 14.5181 13.5249 14.0242Z" fill="black"/>
</svg>