<svg xmlns="http://www.w3.org/2000/svg" width="24" height="24" fill="currentColor" viewBox="0 0 24 24"><path d="M19.931 9.975a.506.506 0 0 1-1.012 0V5.798l-5.885 5.885a.506.506 0 0 1-.716-.716l5.884-5.886h-4.177a.507.507 0 0 1 0-1.013h5.4a.506.506 0 0 1 .506.506zm-3.206 2.194a.506.506 0 0 0-.506.506v6.075a.17.17 0 0 1-.169.169H5.25a.17.17 0 0 1-.169-.169V7.95a.17.17 0 0 1 .169-.169h6.075a.507.507 0 0 0 0-1.013H5.25a1.18 1.18 0 0 0-1.181 1.181v10.8A1.18 1.18 0 0 0 5.25 19.93h10.8a1.18 1.18 0 0 0 1.181-1.181v-6.075a.506.506 0 0 0-.506-.506z"/></svg>