<svg viewBox="0 0 24 24" fill="none" xmlns="http://www.w3.org/2000/svg" width="24" height="24">
<path opacity="0.2" d="M9.44009 10.8493L13.6293 15.0392L15.7969 12.2692C15.9235 12.1427 16.0951 12.0717 16.274 12.0717C16.453 12.0717 16.6246 12.1427 16.7512 12.2692L20.1 15.6205V5.92694C20.1 5.74792 20.0289 5.57624 19.9023 5.44965C19.7757 5.32307 19.604 5.25195 19.425 5.25195H4.57502C4.396 5.25195 4.22431 5.32307 4.09773 5.44965C3.97114 5.57624 3.90002 5.74792 3.90002 5.92694V15.4349L8.48496 10.8493C8.54765 10.7865 8.6221 10.7367 8.70404 10.7028C8.78598 10.6688 8.87382 10.6513 8.96252 10.6513C9.05123 10.6513 9.13907 10.6688 9.22101 10.7028C9.30295 10.7367 9.3774 10.7865 9.44009 10.8493Z" fill="black"/>
<path fill-rule="evenodd" clip-rule="evenodd" d="M18.0078 16.6572C18.203 16.462 18.5196 16.4622 18.7148 16.6572L20.4492 18.3916C20.4749 18.4165 20.4986 18.4437 20.5186 18.4736L20.5195 18.4756C20.5534 18.527 20.576 18.5834 20.5889 18.6416C20.5909 18.6509 20.5922 18.6604 20.5938 18.6699C20.5974 18.6923 20.599 18.7147 20.5996 18.7373C20.5998 18.7417 20.6016 18.7466 20.6016 18.751C20.6015 18.7561 20.5998 18.7615 20.5996 18.7666C20.5989 18.7872 20.597 18.8077 20.5938 18.8281C20.5916 18.8416 20.5891 18.8551 20.5859 18.8682C20.5818 18.885 20.5762 18.9016 20.5703 18.918C20.5664 18.929 20.5633 18.9405 20.5586 18.9512C20.5517 18.9669 20.5428 18.982 20.5342 18.9971C20.5267 19.0102 20.5194 19.0238 20.5107 19.0361C20.4942 19.0597 20.4761 19.0834 20.4551 19.1045L18.7148 20.8438C18.5196 21.0385 18.2029 21.0388 18.0078 20.8438C17.8132 20.6486 17.8131 20.3319 18.0078 20.1367L18.8936 19.251H16.1016C15.8259 19.2507 15.6019 19.0267 15.6016 18.751C15.6016 18.475 15.8256 18.2512 16.1016 18.251H18.8955L18.0078 17.3643C17.813 17.1692 17.8132 16.8525 18.0078 16.6572ZM19.4238 4.75C20.0723 4.75047 20.5985 5.27625 20.5986 5.9248V14.3818L20.6025 15.6719C20.603 15.874 20.4814 16.0569 20.2949 16.1348C20.108 16.2125 19.8922 16.1694 19.749 16.0264L16.3965 12.6738C16.3638 12.6412 16.3187 12.6222 16.2725 12.6221C16.2301 12.6221 16.19 12.6393 16.1582 12.667L14.0186 15.3496C13.9289 15.4619 13.7948 15.5302 13.6514 15.5371C13.5077 15.5438 13.3675 15.4882 13.2676 15.3848L13.248 15.3643L9.08496 11.2012C9.06891 11.1851 9.04925 11.1719 9.02832 11.1631C9.00722 11.1543 8.98377 11.1495 8.96094 11.1494C8.93809 11.1494 8.91469 11.1544 8.89355 11.1631C8.87257 11.1718 8.85302 11.1851 8.83691 11.2012L4.39844 15.6396V18.0752C4.39854 18.1717 4.47674 18.2499 4.57324 18.25H14.1025C14.3782 18.2505 14.6025 18.4742 14.6025 18.75C14.6025 19.0258 14.3782 19.2495 14.1025 19.25H4.57324C3.92446 19.2499 3.39756 18.724 3.39746 18.0752V5.9248C3.39757 5.27603 3.92446 4.75011 4.57324 4.75H19.4238ZM4.57324 5.75C4.47675 5.75011 4.39854 5.82831 4.39844 5.9248V14.2256L8.12988 10.4941L8.21484 10.417C8.30398 10.3438 8.4038 10.2836 8.51074 10.2393C8.65326 10.1802 8.80667 10.1494 8.96094 10.1494C9.11519 10.1495 9.26864 10.1802 9.41113 10.2393C9.55345 10.2984 9.68306 10.3851 9.79199 10.4941L13.585 14.2871L15.4043 12.0088L15.4414 11.9668C15.6617 11.7468 15.9611 11.6221 16.2725 11.6221C16.5837 11.6222 16.8823 11.7468 17.1025 11.9668H17.1035L19.5986 14.4619V5.9248C19.5985 5.82854 19.52 5.75047 19.4238 5.75H4.57324ZM14.3691 8.79395C14.8383 8.79416 15.2187 9.17431 15.2188 9.64355C15.2188 10.1129 14.8384 10.4939 14.3691 10.4941C13.8997 10.4941 13.5186 10.113 13.5186 9.64355C13.5186 9.17418 13.8997 8.79395 14.3691 8.79395Z" fill="black"/>
</svg>