<svg viewBox="0 0 24 24" fill="none" xmlns="http://www.w3.org/2000/svg" width="24" height="24">
<path d="M3 17.6875C3.27614 17.6875 3.5 17.9114 3.5 18.1875V20.25C3.5 20.3881 3.61193 20.5 3.75 20.5H5.8125C6.08864 20.5 6.3125 20.7239 6.3125 21C6.3125 21.2761 6.08864 21.5 5.8125 21.5H3.75C3.05964 21.5 2.5 20.9404 2.5 20.25V18.1875C2.5 17.9114 2.72386 17.6875 3 17.6875ZM14.0625 20.5C14.3386 20.5 14.5625 20.7239 14.5625 21C14.5625 21.2761 14.3386 21.5 14.0625 21.5H9.9375C9.66136 21.5 9.4375 21.2761 9.4375 21C9.4375 20.7239 9.66136 20.5 9.9375 20.5H14.0625ZM21 17.6875C21.2761 17.6875 21.5 17.9114 21.5 18.1875V20.25C21.5 20.9404 20.9404 21.5 20.25 21.5H18.1875C17.9114 21.5 17.6875 21.2761 17.6875 21C17.6875 20.7239 17.9114 20.5 18.1875 20.5H20.25C20.3881 20.5 20.5 20.3881 20.5 20.25V18.1875C20.5 17.9114 20.7239 17.6875 21 17.6875ZM17.9092 5C18.5116 5.00005 19 5.4884 19 6.09082V17.9092C19 18.5116 18.5116 19 17.9092 19H6.09082C5.4884 19 5.00005 18.5116 5 17.9092V6.09082C5.00005 5.4884 5.4884 5.00005 6.09082 5H17.9092ZM6.09082 6C6.04068 6.00005 6.00005 6.04068 6 6.09082V17.9092C6.00005 17.9593 6.04068 18 6.09082 18H6.52539L14.4775 10.0459V10.0469C14.5788 9.9455 14.6997 9.86447 14.832 9.80957C14.9643 9.75477 15.1068 9.72661 15.25 9.72656C15.393 9.72661 15.5349 9.75493 15.667 9.80957C15.7992 9.86436 15.9193 9.94572 16.0205 10.0469L16.0215 10.0459L18 12.0244V6.09082C18 6.04068 17.9593 6.00005 17.9092 6H6.09082ZM15.2148 10.7334C15.204 10.7379 15.1939 10.7447 15.1855 10.7529L7.93945 18H17.9092C17.9593 18 18 17.9593 18 17.9092V13.4385L15.3145 10.7529H15.3135C15.3052 10.7448 15.2949 10.7378 15.2842 10.7334C15.2734 10.729 15.2616 10.7266 15.25 10.7266C15.2382 10.7266 15.2258 10.7289 15.2148 10.7334ZM3 9.4375C3.27614 9.4375 3.5 9.66136 3.5 9.9375V14.0625C3.5 14.3386 3.27614 14.5625 3 14.5625C2.72386 14.5625 2.5 14.3386 2.5 14.0625V9.9375C2.5 9.66136 2.72386 9.4375 3 9.4375ZM21 9.4375C21.2761 9.4375 21.5 9.66136 21.5 9.9375V14.0625C21.5 14.3386 21.2761 14.5625 21 14.5625C20.7239 14.5625 20.5 14.3386 20.5 14.0625V9.9375C20.5 9.66136 20.7239 9.4375 21 9.4375ZM9.63574 7.95508C10.5645 7.95508 11.3173 8.70796 11.3174 9.63672C11.3171 10.5653 10.5644 11.3184 9.63574 11.3184C8.70734 11.318 7.95437 10.5651 7.9541 9.63672C7.9542 8.70816 8.70724 7.95541 9.63574 7.95508ZM9.63574 8.95508C9.25952 8.9554 8.9542 9.26044 8.9541 9.63672C8.95437 10.0129 9.25962 10.318 9.63574 10.3184C10.0121 10.3184 10.3171 10.0131 10.3174 9.63672C10.3173 9.26024 10.0122 8.95508 9.63574 8.95508ZM5.8125 2.5C6.08864 2.5 6.3125 2.72386 6.3125 3C6.3125 3.27614 6.08864 3.5 5.8125 3.5H3.75C3.61193 3.5 3.5 3.61193 3.5 3.75V5.8125C3.5 6.08864 3.27614 6.3125 3 6.3125C2.72386 6.3125 2.5 6.08864 2.5 5.8125V3.75C2.5 3.05964 3.05964 2.5 3.75 2.5H5.8125ZM20.25 2.5C20.9404 2.5 21.5 3.05964 21.5 3.75V5.8125C21.5 6.08864 21.2761 6.3125 21 6.3125C20.7239 6.3125 20.5 6.08864 20.5 5.8125V3.75C20.5 3.61193 20.3881 3.5 20.25 3.5H18.1875C17.9114 3.5 17.6875 3.27614 17.6875 3C17.6875 2.72386 17.9114 2.5 18.1875 2.5H20.25ZM14.0625 2.5C14.3386 2.5 14.5625 2.72386 14.5625 3C14.5625 3.27614 14.3386 3.5 14.0625 3.5H9.9375C9.66136 3.5 9.4375 3.27614 9.4375 3C9.4375 2.72386 9.66136 2.5 9.9375 2.5H14.0625Z" fill="black"/>
</svg>