<svg xmlns="http://www.w3.org/2000/svg" width="24" height="24" fill="currentColor" viewBox="0 0 24 24"><path d="M19.425 4.744H4.575a1.18 1.18 0 0 0-1.181 1.181v12.15a1.18 1.18 0 0 0 1.181 1.181h14.85a1.18 1.18 0 0 0 1.181-1.181V5.925a1.18 1.18 0 0 0-1.181-1.181M4.575 5.757h14.85a.17.17 0 0 1 .169.169v9.076l-2.487-2.487a1.18 1.18 0 0 0-1.671 0l-1.807 1.807-3.831-3.832a1.18 1.18 0 0 0-1.671 0l-3.721 3.721V5.925a.17.17 0 0 1 .169-.169zm-.169 12.319v-2.433l4.436-4.436a.17.17 0 0 1 .24 0l7.038 7.038H4.575a.17.17 0 0 1-.169-.169m15.019.169h-1.873l-3.206-3.206 1.806-1.807a.17.17 0 0 1 .239 0l3.206 3.206v1.639a.17.17 0 0 1-.172.169zm-5.906-8.606a.844.844 0 1 1 .844.844.844.844 0 0 1-.844-.844"/></svg>