<svg viewBox="0 0 24 24" fill="none" xmlns="http://www.w3.org/2000/svg" width="24" height="24">
<path d="M3 17.2275C3.27614 17.2275 3.5 17.4514 3.5 17.7275V20.1816C3.50006 20.2659 3.53324 20.3476 3.59277 20.4072C3.65243 20.4668 3.73403 20.5 3.81836 20.5H6.27246C6.54851 20.5 6.77232 20.724 6.77246 21C6.77233 21.276 6.54852 21.5 6.27246 21.5H3.81836C3.46881 21.5 3.13294 21.3614 2.88574 21.1143C2.63868 20.8671 2.50006 20.5311 2.5 20.1816V17.7275C2.5 17.4514 2.72386 17.2275 3 17.2275ZM21 17.2275C21.276 17.2277 21.5 17.4515 21.5 17.7275V20.1816C21.4999 20.5312 21.3614 20.8671 21.1143 21.1143C20.8671 21.3614 20.5312 21.4999 20.1816 21.5H17.7275C17.4515 21.5 17.2277 21.276 17.2275 21C17.2277 20.724 17.4515 20.5 17.7275 20.5H20.1816C20.2659 20.4999 20.3476 20.4668 20.4072 20.4072C20.4668 20.3476 20.4999 20.2659 20.5 20.1816V17.7275C20.5 17.4515 20.724 17.2277 21 17.2275ZM17.417 5.5C17.7042 5.50009 17.9795 5.6143 18.1826 5.81738C18.3857 6.02047 18.4999 6.29581 18.5 6.58301V17.417C18.4999 17.7042 18.3857 17.9795 18.1826 18.1826C17.9795 18.3857 17.7042 18.4999 17.417 18.5H6.58301C6.29581 18.4999 6.02047 18.3857 5.81738 18.1826C5.6143 17.9795 5.50009 17.7042 5.5 17.417V6.58301C5.50009 6.29581 5.6143 6.02047 5.81738 5.81738C6.02047 5.6143 6.29581 5.50009 6.58301 5.5H17.417ZM6.58301 17.417H6.94727L14.2139 10.1504C14.417 9.94747 14.6924 9.83301 14.9795 9.83301C15.2666 9.83309 15.542 9.94746 15.7451 10.1504L17.417 11.8223V6.58301H6.58301V17.417ZM10.0449 8.77051C10.255 8.81233 10.4481 8.91592 10.5996 9.06738C10.751 9.21887 10.8537 9.412 10.8955 9.62207C10.9373 9.83221 10.916 10.0501 10.834 10.248C10.752 10.4459 10.6136 10.6154 10.4355 10.7344C10.2574 10.8534 10.0473 10.917 9.83301 10.917C9.54588 10.9169 9.27045 10.8026 9.06738 10.5996C8.86422 10.3964 8.75 10.1203 8.75 9.83301C8.75006 9.61886 8.81364 9.40951 8.93262 9.23145C9.05165 9.05331 9.221 8.91402 9.41895 8.83203C9.61682 8.75014 9.83489 8.72873 10.0449 8.77051ZM6.27246 2.5C6.5486 2.5 6.77246 2.72386 6.77246 3C6.77246 3.27614 6.5486 3.5 6.27246 3.5H3.81836C3.73397 3.5 3.65244 3.5331 3.59277 3.59277C3.5331 3.65244 3.5 3.73397 3.5 3.81836V6.27246C3.5 6.5486 3.27614 6.77246 3 6.77246C2.72386 6.77246 2.5 6.5486 2.5 6.27246V3.81836C2.5 3.46876 2.63854 3.13295 2.88574 2.88574C3.13295 2.63854 3.46876 2.5 3.81836 2.5H6.27246ZM20.1816 2.5C20.5311 2.50006 20.8671 2.63868 21.1143 2.88574C21.3614 3.13294 21.5 3.46881 21.5 3.81836V6.27246C21.5 6.54852 21.276 6.77233 21 6.77246C20.724 6.77232 20.5 6.54851 20.5 6.27246V3.81836C20.5 3.73403 20.4668 3.65243 20.4072 3.59277C20.3476 3.53324 20.2659 3.50006 20.1816 3.5H17.7275C17.4514 3.5 17.2275 3.27614 17.2275 3C17.2275 2.72386 17.4514 2.5 17.7275 2.5H20.1816Z" fill="black"/>
</svg>