<svg viewBox="0 0 24 24" fill="none" xmlns="http://www.w3.org/2000/svg" width="24" height="24">
<path d="M20.5059 11.001C20.6664 11.0168 20.8185 11.0805 20.9434 11.1826L21.0039 11.2363L22.7793 13.0107C22.9325 13.164 23.0185 13.3722 23.0186 13.5889C23.0185 13.8056 22.9325 14.0137 22.7793 14.167L17.8799 19.0684H17.8789C17.7449 19.202 17.5695 19.285 17.3828 19.3037L17.3018 19.3076H15.5254C15.3089 19.3073 15.1004 19.2215 14.9473 19.0684C14.7942 18.9151 14.7081 18.7069 14.708 18.4902V16.7139L14.7119 16.6338C14.7305 16.4469 14.8135 16.2708 14.9473 16.1367L19.8477 11.2363L19.9072 11.1826C20.0526 11.0634 20.2361 10.9972 20.4258 10.9971L20.5059 11.001ZM19.4238 4.75C20.0723 4.75047 20.5985 5.27625 20.5986 5.9248V8.7041C20.5986 8.83723 20.5447 8.9648 20.4502 9.05859L13.9746 15.4766C13.8802 15.5702 13.7511 15.622 13.6182 15.6211C13.4853 15.62 13.3577 15.5656 13.2646 15.4707L9.08496 11.2012L9.02832 11.1631C9.00722 11.1543 8.98377 11.1495 8.96094 11.1494C8.93809 11.1494 8.91469 11.1544 8.89355 11.1631C8.87257 11.1718 8.85302 11.1851 8.83691 11.2012L4.39844 15.6396V18.0752C4.39854 18.1717 4.47674 18.2499 4.57324 18.25H13.1934C13.4692 18.2503 13.6933 18.4741 13.6934 18.75C13.6933 19.0259 13.4692 19.2497 13.1934 19.25H4.57324C3.92446 19.2499 3.39756 18.724 3.39746 18.0752V5.9248C3.39757 5.27603 3.92446 4.75011 4.57324 4.75H19.4238ZM15.708 16.79V18.3076H17.2266L20.3066 15.2246L18.7891 13.707L15.708 16.79ZM19.4961 13L21.0137 14.5176L21.9424 13.5889L20.4258 12.0713L19.4961 13ZM4.57324 5.75C4.47675 5.75011 4.39854 5.82831 4.39844 5.9248V14.2256L8.12988 10.4941L8.21484 10.417C8.30398 10.3438 8.4038 10.2836 8.51074 10.2393C8.65326 10.1802 8.80667 10.1494 8.96094 10.1494C9.11519 10.1495 9.26864 10.1802 9.41113 10.2393C9.55345 10.2984 9.68306 10.3851 9.79199 10.4941L9.7959 10.498L13.627 14.4121L19.5986 8.49414V5.9248C19.5985 5.82854 19.52 5.75047 19.4238 5.75H4.57324ZM14.3691 8.79395C14.8383 8.79416 15.2187 9.17431 15.2188 9.64355C15.2188 10.1129 14.8384 10.4939 14.3691 10.4941C13.8997 10.4941 13.5186 10.113 13.5186 9.64355C13.5186 9.17418 13.8997 8.79395 14.3691 8.79395Z" fill="black"/>
</svg>