<svg xmlns="http://www.w3.org/2000/svg" width="24" height="24" fill="currentColor" viewBox="0 0 24 24"><path d="M20.1 5.925v10.299l-3.351-3.351a.675.675 0 0 0-.954 0l-2.165 2.165-4.189-4.19a.675.675 0 0 0-.955 0l-4.585 4.586V5.926a.675.675 0 0 1 .675-.675h14.85a.675.675 0 0 1 .675.675z" opacity=".2"/><path d="M19.425 4.575H4.575a1.35 1.35 0 0 0-1.35 1.35v12.15a1.35 1.35 0 0 0 1.35 1.35h14.85a1.35 1.35 0 0 0 1.35-1.35V5.925a1.35 1.35 0 0 0-1.35-1.35m0 1.35v8.67l-2.2-2.199a1.35 1.35 0 0 0-1.909 0l-1.688 1.688-3.713-3.713a1.35 1.35 0 0 0-1.909 0l-3.432 3.432V5.925zm-14.85 9.788 4.388-4.388 6.75 6.75H4.576zm14.85 2.362h-1.803l-3.037-3.037 1.688-1.688 3.153 3.154zM13.35 9.637a1.013 1.013 0 1 1 1.013 1.012 1.013 1.013 0 0 1-1.013-1.012"/></svg>