<svg xmlns="http://www.w3.org/2000/svg" width="24" height="24" fill="currentColor" viewBox="0 0 24 24"><path d="M19.425 5.25v9.45h-3.096a.68.68 0 0 0-.478.197l-1.629 1.63a.68.68 0 0 1-.478.197h-3.491a.68.68 0 0 1-.478-.197l-1.629-1.63a.68.68 0 0 0-.478-.197H4.573V5.25a.675.675 0 0 1 .675-.675h13.5a.675.675 0 0 1 .675.675z" opacity=".2"/><path d="M18.75 3.9H5.25A1.35 1.35 0 0 0 3.9 5.25v13.5a1.35 1.35 0 0 0 1.35 1.35h13.5a1.35 1.35 0 0 0 1.35-1.35V5.25a1.35 1.35 0 0 0-1.35-1.35m0 1.35v8.775h-2.422a1.34 1.34 0 0 0-.953.396l-1.629 1.629h-3.491l-1.629-1.63a1.34 1.34 0 0 0-.954-.395H5.251V5.25zm0 13.5H5.25v-3.375h2.421l1.629 1.63a1.34 1.34 0 0 0 .954.395h3.491a1.34 1.34 0 0 0 .954-.396l1.629-1.629h2.421v3.375z"/></svg>