<svg viewBox="0 0 24 24" fill="none" xmlns="http://www.w3.org/2000/svg" width="24" height="24">
<path d="M12.6748 19.4248C12.6748 19.7976 12.3728 20.1006 12 20.1006C11.6272 20.1006 11.3252 19.7976 11.3252 19.4248L11.3252 4.5752C11.3252 4.2024 11.6272 3.90039 12 3.90039C12.3728 3.90039 12.6748 4.2024 12.6748 4.5752V19.4248Z" fill="black"/>
<path d="M5.25195 16.958C5.25174 17.3306 4.94981 17.6328 4.57715 17.6328C4.20449 17.6328 3.90256 17.3306 3.90234 16.958L3.90234 7.05762C3.90234 6.68482 4.20436 6.38281 4.57715 6.38281C4.94994 6.38281 5.25195 6.68482 5.25195 7.05762L5.25195 16.958Z" fill="black"/>
<path d="M20.1064 16.9502C20.1062 17.3228 19.8043 17.625 19.4316 17.625C19.059 17.625 18.757 17.3228 18.7568 16.9502V7.0498C18.7568 6.67701 19.0588 6.375 19.4316 6.375C19.8044 6.375 20.1064 6.67701 20.1064 7.0498V16.9502Z" fill="black"/>
<path d="M8.31093 10.0892C8.57453 9.82564 9.00164 9.82564 9.26525 10.0892C9.52885 10.3529 9.52885 10.78 9.26525 11.0436L8.30886 12L9.26525 12.9563C9.52883 13.2199 9.5288 13.6471 9.26525 13.9107C9.00164 14.1743 8.57453 14.1743 8.31093 13.9107L6.87738 12.4771C6.61378 12.2135 6.61378 11.7864 6.87738 11.5228L8.31093 10.0892Z" fill="black"/>
<path d="M15.6974 13.9108C15.4338 14.1744 15.0067 14.1744 14.7431 13.9108C14.4795 13.6471 14.4795 13.22 14.7431 12.9564L15.6994 12L14.7431 11.0437C14.4795 10.7801 14.4795 10.3529 14.7431 10.0893C15.0067 9.82573 15.4338 9.82573 15.6974 10.0893L17.1309 11.5229C17.3945 11.7865 17.3945 12.2136 17.1309 12.4772L15.6974 13.9108Z" fill="black"/>
</svg>