<svg xmlns="http://www.w3.org/2000/svg" width="24" height="24" fill="currentColor" viewBox="0 0 24 24"><path d="M19.931 12a.506.506 0 0 1-.506.506H10.65a.507.507 0 0 1 0-1.013h8.775a.506.506 0 0 1 .506.506zM10.65 7.106h8.775a.507.507 0 0 0 0-1.013H10.65a.507.507 0 0 0 0 1.013m8.775 9.788H4.575a.506.506 0 0 0 0 1.012h14.85a.506.506 0 0 0 0-1.012M4.217 13.033a.506.506 0 0 0 .716 0l3.375-3.375a.506.506 0 0 0 0-.716L4.933 5.567a.506.506 0 0 0-.716.716L7.233 9.3l-3.016 3.017a.506.506 0 0 0 0 .716"/></svg>