<svg xmlns="http://www.w3.org/2000/svg" width="24" height="24" fill="currentColor" viewBox="0 0 24 24"><path d="M20.1 12A8.1 8.1 0 1 1 12 3.9a8.1 8.1 0 0 1 8.1 8.1" opacity=".2"/><path d="M13.35 16.05a.675.675 0 0 1-.675.675 1.35 1.35 0 0 1-1.35-1.35V12a.675.675 0 0 1 0-1.35 1.35 1.35 0 0 1 1.35 1.35v3.375a.675.675 0 0 1 .675.675M20.775 12A8.775 8.775 0 1 1 12 3.225 8.784 8.784 0 0 1 20.775 12m-1.35 0A7.425 7.425 0 1 0 12 19.425 7.433 7.433 0 0 0 19.425 12m-7.763-2.7a1.013 1.013 0 1 0-1.013-1.013A1.013 1.013 0 0 0 11.662 9.3"/></svg>