<svg viewBox="0 0 24 24" fill="none" xmlns="http://www.w3.org/2000/svg" width="24" height="24">
<path fill-rule="evenodd" clip-rule="evenodd" d="M21.25 5C21.6642 5 22 5.33579 22 5.75V18.25C22 18.6642 21.6642 19 21.25 19H2.75C2.33579 19 2 18.6642 2 18.25V5.75C2 5.33579 2.33579 5 2.75 5H21.25ZM12.7471 15.0674C12.3743 15.0674 12.0723 15.3695 12.0723 15.7422C12.0723 16.115 12.3743 16.417 12.7471 16.417H16.8721C17.2446 16.4167 17.5469 16.1148 17.5469 15.7422C17.5468 15.3696 17.2446 15.0676 16.8721 15.0674H12.7471ZM12.7471 12.8174C12.3743 12.8174 12.0723 13.1195 12.0723 13.4922C12.0723 13.865 12.3743 14.167 12.7471 14.167H16.8721C17.2446 14.1667 17.5469 13.8648 17.5469 13.4922C17.5468 13.1196 17.2446 12.8176 16.8721 12.8174H12.7471ZM8.72461 7.77148C8.46107 7.50794 8.03315 7.50806 7.76953 7.77148C7.50593 8.03509 7.50593 8.46296 7.76953 8.72656L8.86328 9.82031H5.93848L4.87402 9.81738C4.50131 9.81636 4.19841 10.1175 4.19727 10.4902C4.19624 10.863 4.49733 11.166 4.87012 11.167L5.93457 11.1699H8.86328L7.76855 12.2646C7.50495 12.5283 7.50495 12.9561 7.76855 13.2197C8.03216 13.4833 8.46005 13.4833 8.72363 13.2197L10.9707 10.9727L11.0566 10.8662C11.2294 10.6043 11.2012 10.2482 10.9707 10.0176L8.72461 7.77148ZM12.7471 9.81738C12.3743 9.81738 12.0723 10.1195 12.0723 10.4922C12.0723 10.865 12.3743 11.167 12.7471 11.167H19.1006C19.4732 11.1667 19.7764 10.8648 19.7764 10.4922C19.7763 10.1196 19.4731 9.81765 19.1006 9.81738H12.7471Z" fill="black"/>
</svg>