<svg viewBox="0 0 24 24" fill="none" xmlns="http://www.w3.org/2000/svg" width="24" height="24">
<path d="M21.4717 9.49117C21.7478 9.49117 21.9717 9.71503 21.9717 9.99117C21.9717 10.2673 21.7478 10.4912 21.4717 10.4912H13C12.7239 10.4912 12.5 10.2673 12.5 9.99117C12.5 9.71503 12.7239 9.49117 13 9.49117H21.4717Z" fill="black"/>
<path d="M18.5 13.4912C18.7761 13.4912 19 13.715 19 13.9912C19 14.2673 18.7761 14.4912 18.5 14.4912H13C12.7239 14.4912 12.5 14.2673 12.5 13.9912C12.5 13.715 12.7239 13.4912 13 13.4912H18.5Z" fill="black"/>
<path d="M18.5 16.4912C18.7761 16.4912 19 16.715 19 16.9912C19 17.2673 18.7761 17.4912 18.5 17.4912H13C12.7239 17.4912 12.5 17.2673 12.5 16.9912C12.5 16.715 12.7239 16.4912 13 16.4912H18.5Z" fill="black"/>
<path d="M8.78809 10.4951L6.64551 12.6377C6.45025 12.8329 6.45025 13.1494 6.64551 13.3447C6.84077 13.54 7.15728 13.54 7.35254 13.3447L10.3486 10.3486L10.4131 10.2705C10.5413 10.0764 10.5195 9.81243 10.3486 9.64156L7.35352 6.64645C7.15825 6.45118 6.84175 6.45118 6.64649 6.64645C6.45122 6.84171 6.45122 7.15822 6.64649 7.35348L8.78809 9.49508H3.92188L2.50098 9.49117C2.22502 9.49063 2.00076 9.71419 2 9.9902C1.99946 10.2662 2.22302 10.4904 2.49902 10.4912L3.91895 10.4951H8.78809Z" fill="black"/>
</svg>