<svg viewBox="0 0 24 24" fill="none" xmlns="http://www.w3.org/2000/svg" width="24" height="24">
<path d="M18.5 16.5C18.7761 16.5 19 16.2761 19 16C19 15.7239 18.7761 15.5 18.5 15.5H13C12.7239 15.5 12.5 15.7239 12.5 16C12.5 16.2761 12.7239 16.5 13 16.5H18.5Z" fill="black"/>
<path d="M21.4717 12.5C21.7478 12.5 21.9717 12.2761 21.9717 12C21.9717 11.7239 21.7478 11.5 21.4717 11.5H13C12.7239 11.5 12.5 11.7239 12.5 12C12.5 12.2761 12.7239 12.5 13 12.5H21.4717Z" fill="black"/>
<path d="M18.5 8.5C18.7761 8.5 19 8.27614 19 8C19 7.72386 18.7761 7.5 18.5 7.5H13C12.7239 7.5 12.5 7.72386 12.5 8C12.5 8.27614 12.7239 8.5 13 8.5H18.5Z" fill="black"/>
<path d="M8.78809 11.4961L6.64551 9.35352C6.45025 9.15825 6.45025 8.84175 6.64551 8.64648C6.84077 8.45122 7.15728 8.45122 7.35254 8.64648L10.3486 11.6426L10.4131 11.7207C10.5413 11.9148 10.5195 12.1787 10.3486 12.3496L7.35352 15.3447C7.15825 15.54 6.84175 15.54 6.64649 15.3447C6.45122 15.1495 6.45122 14.833 6.64649 14.6377L8.78809 12.4961H3.92188L2.50098 12.5C2.22502 12.5005 2.00076 12.277 2 12.001C1.99946 11.725 2.22302 11.5008 2.49902 11.5L3.91895 11.4961H8.78809Z" fill="black"/>
<path d="M13 8H18.5L21.1625 11.55C21.3625 11.8167 21.3625 12.1833 21.1625 12.45L18.5 16H13V8Z" fill="black" fill-opacity="0.2"/>
</svg>