<svg viewBox="0 0 24 24" fill="none" xmlns="http://www.w3.org/2000/svg" width="24" height="24">
<path fill-rule="evenodd" clip-rule="evenodd" d="M21.25 5C21.6642 5 22 5.33579 22 5.75V18.25C22 18.6642 21.6642 19 21.25 19H2.75C2.33579 19 2 18.6642 2 18.25V5.75C2 5.33579 2.33579 5 2.75 5H21.25ZM12.7461 14.3252C12.3735 14.3254 12.0713 14.6273 12.0713 15C12.0713 15.3727 12.3735 15.6746 12.7461 15.6748H16.8711C17.2439 15.6748 17.5459 15.3728 17.5459 15C17.5459 14.6272 17.2439 14.3252 16.8711 14.3252H12.7461ZM8.72363 9.27246C8.46008 9.00891 8.03217 9.00902 7.76855 9.27246C7.50495 9.53606 7.50495 9.96394 7.76855 10.2275L8.86328 11.3223H5.93457L4.87012 11.3252C4.49733 11.3262 4.19624 11.6292 4.19727 12.002C4.19834 12.3747 4.50127 12.6758 4.87402 12.6748L5.93848 12.6719H8.86328L7.76953 13.7656C7.50593 14.0292 7.50593 14.4571 7.76953 14.7207C8.03315 14.9841 8.46106 14.9843 8.72461 14.7207L10.9707 12.4746C11.2011 12.244 11.2294 11.8879 11.0566 11.626L10.9707 11.5195L8.72363 9.27246ZM12.7461 11.3252C12.3735 11.3254 12.0713 11.6273 12.0713 12C12.0713 12.3727 12.3735 12.6746 12.7461 12.6748H19.0996C19.4724 12.6748 19.7754 12.3728 19.7754 12C19.7754 11.6272 19.4724 11.3252 19.0996 11.3252H12.7461ZM12.7461 8.3252C12.3735 8.32541 12.0713 8.62734 12.0713 9C12.0713 9.37266 12.3735 9.67459 12.7461 9.6748H16.8711C17.2439 9.6748 17.5459 9.37279 17.5459 9C17.5459 8.62721 17.2439 8.3252 16.8711 8.3252H12.7461Z" fill="black"/>
</svg>