<svg xmlns="http://www.w3.org/2000/svg" width="24" height="24" fill="currentColor" viewBox="0 0 24 24"><path d="M18.75 8.625h-4.725V3.9z" opacity=".2"/><path d="m19.228 8.147-4.725-4.725a.68.68 0 0 0-.478-.197h-8.1a1.35 1.35 0 0 0-1.35 1.35v6.075a.675.675 0 0 0 1.35 0V4.575h7.425v4.05a.675.675 0 0 0 .675.675h4.05v10.125H16.05a.675.675 0 0 0 0 1.35h2.025a1.35 1.35 0 0 0 1.35-1.35v-10.8a.68.68 0 0 0-.197-.478M14.7 5.529l2.421 2.421H14.7zm-1.029 12.234a1.76 1.76 0 0 1-.775 1.285c-.438.292-.98.376-1.476.376a5.2 5.2 0 0 1-1.277-.169.675.675 0 1 1 .363-1.3c.37.101 1.266.228 1.65-.03.074-.05.154-.128.181-.332.03-.225-.06-.346-1.078-.64-.789-.228-2.109-.61-1.941-1.95a1.74 1.74 0 0 1 .759-1.261c.999-.675 2.591-.279 2.77-.233a.675.675 0 0 1-.343 1.306c-.379-.099-1.285-.216-1.673.047a.38.38 0 0 0-.169.31c-.01.076-.012.092.094.16.195.126.544.226.882.324.826.239 2.223.646 2.034 2.107zM7.95 14.024v3.206a2.194 2.194 0 0 1-4.388 0 .675.675 0 0 1 1.35 0 .844.844 0 0 0 1.688 0v-3.206a.675.675 0 0 1 1.35 0"/></svg>