<svg xmlns="http://www.w3.org/2000/svg" width="24" height="24" fill="currentColor" viewBox="0 0 24 24"><path d="m19.228 8.147-4.725-4.725a.68.68 0 0 0-.478-.197h-8.1a1.35 1.35 0 0 0-1.35 1.35v6.413a.34.34 0 0 0 .337.338h10.125a.34.34 0 0 1 .338.338v8.775a.34.34 0 0 0 .338.337h2.362a1.35 1.35 0 0 0 1.35-1.35v-10.8a.68.68 0 0 0-.197-.478zm-5.203.478V4.912l3.713 3.713zm-.354 9.139a1.76 1.76 0 0 1-.775 1.285c-.438.292-.98.376-1.476.376a5.2 5.2 0 0 1-1.282-.169.675.675 0 0 1 .364-1.3c.37.101 1.266.228 1.65-.03.074-.05.154-.128.181-.332.029-.225-.061-.346-1.078-.64-.789-.228-2.109-.61-1.941-1.95a1.74 1.74 0 0 1 .759-1.261c1-.675 2.592-.279 2.771-.233a.675.675 0 0 1-.343 1.306c-.379-.099-1.285-.216-1.673.047a.39.39 0 0 0-.169.31c-.009.076-.011.092.095.16.195.126.544.226.882.324.829.239 2.222.646 2.037 2.107zM7.95 14.025v3.156c0 1.2-.943 2.216-2.144 2.243a2.194 2.194 0 0 1-2.244-2.162.69.69 0 0 1 .617-.706.675.675 0 0 1 .733.694.75.75 0 0 0 .338.675c.662.407 1.35-.063 1.35-.692v-3.185a.69.69 0 0 1 .63-.698.675.675 0 0 1 .72.675"/></svg>