<svg viewBox="0 0 24 24" fill="none" xmlns="http://www.w3.org/2000/svg" width="24" height="24">
<path fill-rule="evenodd" clip-rule="evenodd" d="M20.25 4C20.6642 4 21 4.33579 21 4.75V19.25C21 19.6642 20.6642 20 20.25 20H3.75C3.33579 20 3 19.6642 3 19.25V4.75C3 4.33579 3.33579 4 3.75 4H20.25ZM5.35254 6.0752C4.97986 6.07533 4.67773 6.37729 4.67773 6.75V17.25C4.67773 17.6227 4.97986 17.9247 5.35254 17.9248C5.72533 17.9248 6.02734 17.6228 6.02734 17.25V6.75C6.02734 6.37721 5.72533 6.0752 5.35254 6.0752ZM18.6475 6.0752C18.2747 6.0752 17.9727 6.37721 17.9727 6.75V17.25C17.9727 17.6228 18.2747 17.9248 18.6475 17.9248C19.0201 17.9247 19.3223 17.6227 19.3223 17.25V6.75C19.3223 6.37729 19.0201 6.07533 18.6475 6.0752ZM8.02539 7.10254C7.73544 7.10254 7.5 7.33798 7.5 7.62793V16.3779C7.50021 16.6677 7.73557 16.9023 8.02539 16.9023H10.4746C10.7644 16.9023 10.9998 16.6677 11 16.3779V7.62793C11 7.33798 10.7646 7.10254 10.4746 7.10254H8.02539ZM13.5254 7.10254C13.2354 7.10254 13 7.33798 13 7.62793V16.3779C13.0002 16.6677 13.2356 16.9023 13.5254 16.9023H15.9746C16.2644 16.9023 16.4998 16.6677 16.5 16.3779V7.62793C16.5 7.33798 16.2646 7.10254 15.9746 7.10254H13.5254Z" fill="black"/>
</svg>