<svg viewBox="0 0 24 24" fill="none" xmlns="http://www.w3.org/2000/svg" width="24" height="24">
<path d="M3.00391 19.5C3.00391 19.7761 2.78005 20 2.50391 20C2.22776 20 2.00391 19.7761 2.00391 19.5L2.00391 4.5C2.00391 4.22386 2.22776 4 2.50391 4C2.78005 4 3.00391 4.22386 3.00391 4.5L3.00391 19.5Z" fill="black"/>
<path d="M21.9961 19.5C21.9961 19.7761 21.7722 20 21.4961 20C21.22 20 20.9961 19.7761 20.9961 19.5V4.5C20.9961 4.22386 21.22 4 21.4961 4C21.7722 4 21.9961 4.22386 21.9961 4.5V19.5Z" fill="black"/>
<path d="M5.99658 5.75391C5.99658 5.33969 6.33237 5.00391 6.74658 5.00391H10.2466C10.6608 5.00391 10.9966 5.33969 10.9966 5.75391V18.2539C10.9966 18.6681 10.6608 19.0039 10.2466 19.0039H6.74658C6.33237 19.0039 5.99658 18.6681 5.99658 18.2539V5.75391Z" fill="black"/>
<path d="M12.9993 5.75391C12.9993 5.33969 13.3351 5.00391 13.7493 5.00391H17.2493C17.6635 5.00391 17.9993 5.33969 17.9993 5.75391V18.2539C17.9993 18.6681 17.6635 19.0039 17.2493 19.0039H13.7493C13.3351 19.0039 12.9993 18.6681 12.9993 18.2539V5.75391Z" fill="black"/>
</svg>