<svg viewBox="0 0 24 24" fill="none" xmlns="http://www.w3.org/2000/svg" width="24" height="24">
<path d="M3.00391 19.5C3.00391 19.7761 2.78005 20 2.50391 20C2.22776 20 2.00391 19.7761 2.00391 19.5L2.00391 4.5C2.00391 4.22386 2.22776 4 2.50391 4C2.78005 4 3.00391 4.22386 3.00391 4.5L3.00391 19.5Z" fill="black"/>
<path d="M21.9961 19.5C21.9961 19.7761 21.7722 20 21.4961 20C21.22 20 20.9961 19.7761 20.9961 19.5V4.5C20.9961 4.22386 21.22 4 21.4961 4C21.7722 4 21.9961 4.22386 21.9961 4.5V19.5Z" fill="black"/>
<path d="M5 5.75C5 5.33579 5.33579 5 5.75 5H9.25C9.66421 5 10 5.33579 10 5.75V18.25C10 18.6642 9.66421 19 9.25 19H5.75C5.33579 19 5 18.6642 5 18.25V5.75Z" fill="black"/>
<path d="M14 5.75391C14 5.33969 14.3358 5.00391 14.75 5.00391H18.25C18.6642 5.00391 19 5.33969 19 5.75391V18.2539C19 18.6681 18.6642 19.0039 18.25 19.0039H14.75C14.3358 19.0039 14 18.6681 14 18.2539V5.75391Z" fill="black"/>
</svg>