<svg viewBox="0 0 24 24" fill="none" xmlns="http://www.w3.org/2000/svg" width="24" height="24">
<path fill-rule="evenodd" clip-rule="evenodd" d="M3.8999 4.6499C3.90001 4.23578 4.23575 3.8999 4.6499 3.8999H19.3501C19.7642 3.90001 20.1 4.23584 20.1001 4.6499V19.3501C20.1001 19.7642 19.7642 20.1 19.3501 20.1001H4.6499C4.23569 20.1001 3.8999 19.7643 3.8999 19.3501V4.6499ZM6.00928 12.0005C6.00949 12.373 6.31151 12.6752 6.68408 12.6753H17.3149C17.6876 12.6753 17.9905 12.3731 17.9907 12.0005C17.9907 11.6277 17.6877 11.3257 17.3149 11.3257H6.68408C6.31138 11.3258 6.00928 11.6278 6.00928 12.0005ZM7.74756 17.0435C7.74756 17.3333 7.98213 17.5687 8.27197 17.5688H15.7271C16.017 17.5688 16.2524 17.3334 16.2524 17.0435V14.5503C16.2524 14.2603 16.017 14.0249 15.7271 14.0249H8.27197C7.98213 14.025 7.74756 14.2604 7.74756 14.5503V17.0435ZM7.74756 9.44971C7.74756 9.73958 7.98213 9.97497 8.27197 9.9751H15.7271C16.017 9.9751 16.2524 9.73966 16.2524 9.44971V6.95654C16.2524 6.66659 16.017 6.43115 15.7271 6.43115H8.27197C7.98213 6.43128 7.74756 6.66667 7.74756 6.95654V9.44971Z" fill="black"/>
</svg>