<svg viewBox="0 0 24 24" fill="none" xmlns="http://www.w3.org/2000/svg" width="24" height="24">
<path d="M19.5 20.9961C19.7761 20.9961 20 21.22 20 21.4961C20 21.7722 19.7761 21.9961 19.5 21.9961H4.5C4.22386 21.9961 4 21.7722 4 21.4961C4 21.22 4.22386 20.9961 4.5 20.9961H19.5Z" fill="black"/>
<path d="M19.5 2.00391C19.7761 2.00391 20 2.22776 20 2.50391C20 2.78005 19.7761 3.00391 19.5 3.00391L4.5 3.00391C4.22386 3.00391 4 2.78005 4 2.50391C4 2.22776 4.22386 2.00391 4.5 2.00391L19.5 2.00391Z" fill="black"/>
<path d="M5.75391 20.0034C5.33969 20.0034 5.00391 19.6676 5.00391 19.2534V15.7534C5.00391 15.3392 5.33969 15.0034 5.75391 15.0034H18.2539C18.6681 15.0034 19.0039 15.3392 19.0039 15.7534V19.2534C19.0039 19.6676 18.6681 20.0034 18.2539 20.0034H5.75391Z" fill="black"/>
<path d="M5.75391 9.00049C5.33969 9.00049 5.00391 8.6647 5.00391 8.25049V4.75049C5.00391 4.33627 5.33969 4.00049 5.75391 4.00049H18.2539C18.6681 4.00049 19.0039 4.33627 19.0039 4.75049V8.25049C19.0039 8.6647 18.6681 9.00049 18.2539 9.00049H5.75391Z" fill="black"/>
</svg>