<svg viewBox="0 0 24 24" fill="none" xmlns="http://www.w3.org/2000/svg" width="24" height="24">
<path fill-rule="evenodd" clip-rule="evenodd" d="M4 2.75C4 2.33579 4.33579 2 4.75 2H19.25C19.6642 2 20 2.33579 20 2.75V21.25C20 21.6642 19.6642 22 19.25 22H4.75C4.33579 22 4 21.6642 4 21.25V2.75ZM6.0752 19.502C6.0752 19.8747 6.37721 20.1768 6.75 20.1768H17.25C17.6228 20.1768 17.9248 19.8747 17.9248 19.502C17.9248 19.1292 17.6228 18.8271 17.25 18.8271H6.75C6.37721 18.8271 6.0752 19.1292 6.0752 19.502ZM6.0752 4.49805C6.0752 4.87084 6.37721 5.17285 6.75 5.17285H17.25C17.6228 5.17285 17.9248 4.87084 17.9248 4.49805C17.9248 4.12525 17.6228 3.82324 17.25 3.82324H6.75C6.37721 3.82324 6.0752 4.12525 6.0752 4.49805ZM7.10254 17.2295C7.10259 17.5194 7.33801 17.7539 7.62793 17.7539H16.3779C16.6678 17.7538 16.9023 17.5193 16.9023 17.2295V14.7793C16.9023 14.4894 16.6678 14.254 16.3779 14.2539H7.62793C7.33801 14.2539 7.10259 14.4894 7.10254 14.7793V17.2295ZM7.10254 9.52734C7.10259 9.81725 7.33801 10.0518 7.62793 10.0518H16.3779C16.6678 10.0517 16.9023 9.8172 16.9023 9.52734V7.07715C16.9023 6.78729 16.6678 6.55184 16.3779 6.55176H7.62793C7.33801 6.55176 7.10259 6.78724 7.10254 7.07715V9.52734Z" fill="black"/>
</svg>