<svg viewBox="0 0 24 24" fill="none" xmlns="http://www.w3.org/2000/svg" width="24" height="24">
<path d="M19.5 20.9961C19.7761 20.9961 20 21.22 20 21.4961C20 21.7722 19.7761 21.9961 19.5 21.9961H4.5C4.22386 21.9961 4 21.7722 4 21.4961C4 21.22 4.22386 20.9961 4.5 20.9961H19.5Z" fill="black"/>
<path d="M19.5 2.00391C19.7761 2.00391 20 2.22776 20 2.50391C20 2.78005 19.7761 3.00391 19.5 3.00391L4.5 3.00391C4.22386 3.00391 4 2.78005 4 2.50391C4 2.22776 4.22386 2.00391 4.5 2.00391L19.5 2.00391Z" fill="black"/>
<path d="M5.75391 18.0034C5.33969 18.0034 5.00391 17.6676 5.00391 17.2534V13.7534C5.00391 13.3392 5.33969 13.0034 5.75391 13.0034H18.2539C18.6681 13.0034 19.0039 13.3392 19.0039 13.7534V17.2534C19.0039 17.6676 18.6681 18.0034 18.2539 18.0034H5.75391Z" fill="black"/>
<path d="M5.75391 11.001C5.33969 11.001 5.00391 10.6652 5.00391 10.251V6.75098C5.00391 6.33676 5.33969 6.00098 5.75391 6.00098H18.2539C18.6681 6.00098 19.0039 6.33676 19.0039 6.75098V10.251C19.0039 10.6652 18.6681 11.001 18.2539 11.001H5.75391Z" fill="black"/>
</svg>