<svg viewBox="0 0 24 24" fill="none" xmlns="http://www.w3.org/2000/svg" width="24" height="24">
<path opacity="0.2" d="M12.7821 4.81689C12.4428 4.22705 11.557 4.22705 11.2177 4.81689L3.83781 17.6294C3.52238 18.1802 3.91837 18.8999 4.62101 18.8999H19.3798C20.0819 18.8999 20.477 18.1821 20.162 17.6313L12.7821 4.81689Z" fill="black"/>
<path d="M10.3506 4.34422C11.0743 3.08508 12.9255 3.08518 13.6494 4.34422L21.0293 17.1577V17.1587C21.7482 18.4135 20.807 19.9252 19.3799 19.9253H4.62107C3.19386 19.9253 2.25275 18.4135 2.97165 17.1587V17.1577L10.3506 4.34422ZM12.7822 4.84226C12.4427 4.25247 11.5571 4.25228 11.2177 4.84226V4.84324L3.83786 17.6548L3.83884 17.6557C3.5233 18.2065 3.91865 18.9253 4.62107 18.9253H19.3799C20.0819 18.9252 20.4769 18.2074 20.1621 17.6567L12.7832 4.84324L12.7822 4.84226Z" fill="black"/>
</svg>