<svg xmlns="http://www.w3.org/2000/svg" width="24" height="24" fill="currentColor" viewBox="0 0 24 24"><path d="m19.763 18.143-5.231-8.718V4.406h.844a.507.507 0 0 0 0-1.013h-6.75a.507.507 0 0 0 0 1.013h.844v5.019l-5.231 8.718a1.181 1.181 0 0 0 1.013 1.789h13.5a1.181 1.181 0 0 0 1.012-1.789zM10.41 9.826a.5.5 0 0 0 .072-.261V4.406h3.037v5.159a.5.5 0 0 0 .072.261l3.345 5.575c-1.047.267-2.604.253-4.707-.815-1.429-.724-2.784-1.08-4.036-1.066zm8.486 9.009a.17.17 0 0 1-.147.084H5.251a.17.17 0 0 1-.144-.253l2.447-4.085c1.256-.175 2.673.131 4.214.91 1.584.795 2.906 1.065 3.982 1.065a5.7 5.7 0 0 0 1.727-.253l1.418 2.362a.17.17 0 0 1 .003.169z"/></svg>