<svg xmlns="http://www.w3.org/2000/svg" width="24" height="24" fill="currentColor" viewBox="0 0 24 24"><path d="M18.75 19.425H5.25a.675.675 0 0 1-.579-1.023l2.572-4.286c1.116-.209 2.7-.119 4.756.921 2.721 1.378 4.62 1.089 5.695.645l1.632 2.719a.675.675 0 0 1-.576 1.023z" opacity=".2"/><path d="M19.905 18.056 14.7 9.378V4.575h.675a.675.675 0 0 0 0-1.35h-6.75a.675.675 0 0 0 0 1.35H9.3v4.803l-5.205 8.678A1.35 1.35 0 0 0 5.25 20.1h13.5a1.35 1.35 0 0 0 1.158-2.044zm-9.351-8.144a.67.67 0 0 0 .096-.347v-4.99h2.7v4.99a.67.67 0 0 0 .096.347l3.225 5.379c-1.013.2-2.453.116-4.366-.853-1.342-.679-2.62-1.04-3.815-1.081zM5.25 18.75l2.408-4.015c1.202-.146 2.557.156 4.035.905 1.603.811 2.953 1.087 4.05 1.087a6 6 0 0 0 1.65-.228l1.358 2.251z"/></svg>