<svg viewBox="0 0 24 24" fill="none" xmlns="http://www.w3.org/2000/svg" width="24" height="24">
<path fill-rule="evenodd" clip-rule="evenodd" d="M19.3501 3.8999C19.7642 3.90001 20.1001 4.23575 20.1001 4.6499V19.3501C20.1 19.7642 19.7642 20.1 19.3501 20.1001H4.6499C4.23575 20.1001 3.90001 19.7642 3.8999 19.3501V4.6499C3.8999 4.23569 4.23569 3.8999 4.6499 3.8999H19.3501ZM7.07861 12.689C6.55327 12.6892 6.12755 13.1148 6.12744 13.6401V16.9204C6.12744 17.4459 6.5532 17.8723 7.07861 17.8726H10.3589C10.8845 17.8726 11.312 17.446 11.312 16.9204V13.6401C11.3119 13.1146 10.8845 12.689 10.3589 12.689H7.07861ZM13.6401 12.689C13.1147 12.6891 12.6891 13.1147 12.689 13.6401V16.9204C12.689 17.446 13.1146 17.8725 13.6401 17.8726H16.9204C17.446 17.8726 17.8726 17.446 17.8726 16.9204V13.6401C17.8725 13.1146 17.446 12.689 16.9204 12.689H13.6401ZM7.07861 6.12744C6.55325 6.12771 6.12753 6.55419 6.12744 7.07959V10.3599C6.12762 10.8852 6.55331 11.3117 7.07861 11.312H10.3589C10.8844 11.312 11.3118 10.8853 11.312 10.3599V7.07959C11.3119 6.55403 10.8845 6.12744 10.3589 6.12744H7.07861ZM13.6401 6.12744C13.1146 6.12755 12.6891 6.55409 12.689 7.07959V10.3599C12.6891 10.8853 13.1147 11.3119 13.6401 11.312H16.9204C17.4459 11.312 17.8724 10.8853 17.8726 10.3599V7.07959C17.8725 6.55403 17.446 6.12744 16.9204 6.12744H13.6401Z" fill="black"/>
</svg>