<svg viewBox="0 0 24 24" fill="none" xmlns="http://www.w3.org/2000/svg" width="24" height="24">
<path fill-rule="evenodd" clip-rule="evenodd" d="M20.25 5C20.6642 5 21 5.33579 21 5.75V18.25C21 18.6642 20.6642 19 20.25 19H3.75C3.33579 19 3 18.6642 3 18.25V5.75C3 5.33579 3.33579 5 3.75 5H20.25ZM6.19336 15.1035C5.54442 15.1035 5.01855 15.6294 5.01855 16.2783C5.01882 16.927 5.54459 17.4531 6.19336 17.4531H10.3936C11.042 17.4528 11.5681 16.9268 11.5684 16.2783C11.5684 15.6296 11.0422 15.1039 10.3936 15.1035H6.19336ZM13.6211 15.1035C12.9723 15.1036 12.4463 15.6295 12.4463 16.2783C12.4466 16.9269 12.9724 17.453 13.6211 17.4531H17.8213C18.47 17.453 18.9958 16.927 18.9961 16.2783C18.9961 15.6295 18.4701 15.1036 17.8213 15.1035H13.6211ZM6.18164 11.7461C5.53271 11.7461 5.00684 12.272 5.00684 12.9209C5.00684 13.5698 5.53271 14.0957 6.18164 14.0957H10.3818C11.0305 14.0953 11.5566 13.5696 11.5566 12.9209C11.5566 12.2722 11.0305 11.7465 10.3818 11.7461H6.18164ZM13.6211 11.7461C12.9723 11.7462 12.4463 12.272 12.4463 12.9209C12.4463 13.5698 12.9723 14.0956 13.6211 14.0957H17.8213C18.4701 14.0956 18.9961 13.5698 18.9961 12.9209C18.9961 12.272 18.4701 11.7462 17.8213 11.7461H13.6211ZM5.52539 6.54297C5.23547 6.54297 5.00005 6.77748 5 7.06738V10.2178C5.00016 10.5076 5.23554 10.7422 5.52539 10.7422H18.4746C18.7645 10.7422 18.9998 10.5076 19 10.2178V7.06738C18.9999 6.77748 18.7645 6.54297 18.4746 6.54297H5.52539Z" fill="black"/>
</svg>