<svg viewBox="0 0 24 24" fill="none" xmlns="http://www.w3.org/2000/svg" width="24" height="24">
<path d="M20 4.98682C20.5523 4.98682 21 5.43453 21 5.98682C21 6.5391 20.5523 6.98682 20 6.98682H4C3.44772 6.98682 3 6.5391 3 5.98682C3 5.43453 3.44772 4.98682 4 4.98682H20Z" fill="black"/>
<path d="M20 12.9868C20.5523 12.9868 21 13.4345 21 13.9868C21 14.5391 20.5523 14.9868 20 14.9868H4C3.44772 14.9868 3 14.5391 3 13.9868C3 13.4345 3.44772 12.9868 4 12.9868H20Z" fill="black"/>
<path d="M20 8.98682C20.5523 8.98682 21 9.43453 21 9.98682C21 10.5391 20.5523 10.9868 20 10.9868H4C3.44772 10.9868 3 10.5391 3 9.98682C3 9.43453 3.44772 8.98682 4 8.98682H20Z" fill="black"/>
<path d="M20 16.9868C20.5523 16.9868 21 17.4345 21 17.9868C21 18.5391 20.5523 18.9868 20 18.9868H4C3.44772 18.9868 3 18.5391 3 17.9868C3 17.4345 3.44772 16.9868 4 16.9868H20Z" fill="black"/>
<path d="M3.5 5.99072H20.5V18.0132H3.5V5.99072Z" fill="black" fill-opacity="0.2"/>
</svg>