<svg viewBox="0 0 24 24" fill="none" xmlns="http://www.w3.org/2000/svg" width="24" height="24">
<path d="M3.75 19C3.33579 19 3 18.6642 3 18.25V5.75C3 5.33579 3.33579 5 3.75 5H10.25C10.6642 5 11 5.33579 11 5.75V18.25C11 18.6642 10.6642 19 10.25 19H3.75Z" fill="black"/>
<path d="M20 5C20.5523 5 21 5.44772 21 6C21 6.55228 20.5523 7 20 7H14C13.4477 7 13 6.55228 13 6C13 5.44772 13.4477 5 14 5H20Z" fill="black"/>
<path d="M20 13C20.5523 13 21 13.4477 21 14C21 14.5523 20.5523 15 20 15H14C13.4477 15 13 14.5523 13 14C13 13.4477 13.4477 13 14 13H20Z" fill="black"/>
<path d="M20 9C20.5523 9 21 9.44772 21 10C21 10.5523 20.5523 11 20 11H14C13.4477 11 13 10.5523 13 10C13 9.44772 13.4477 9 14 9H20Z" fill="black"/>
<path d="M20 17C20.5523 17 21 17.4477 21 18C21 18.5523 20.5523 19 20 19H14C13.4477 19 13 18.5523 13 18C13 17.4477 13.4477 17 14 17H20Z" fill="black"/>
</svg>