<svg viewBox="0 0 24 24" fill="none" xmlns="http://www.w3.org/2000/svg" width="24" height="24">
<path fill-rule="evenodd" clip-rule="evenodd" d="M20.25 5C20.6642 5 21 5.33579 21 5.75V18.25C21 18.6642 20.6642 19 20.25 19H3.75C3.33579 19 3 18.6642 3 18.25V5.75C3 5.33579 3.33579 5 3.75 5H20.25ZM5.95898 5.81152C5.66903 5.81152 5.43359 6.04696 5.43359 6.33691V17.6631C5.43359 17.953 5.66903 18.1885 5.95898 18.1885H10.5088C10.7987 18.1885 11.0342 17.953 11.0342 17.6631V6.33691C11.0342 6.04696 10.7987 5.81152 10.5088 5.81152H5.95898ZM13.3135 15.8271C12.6645 15.8271 12.1387 16.353 12.1387 17.002C12.1389 17.6507 12.6647 18.1768 13.3135 18.1768H17.5137C18.1621 18.1764 18.6882 17.6504 18.6885 17.002C18.6885 16.3532 18.1623 15.8275 17.5137 15.8271H13.3135ZM13.3135 12.4756C12.6645 12.4756 12.1387 13.0015 12.1387 13.6504C12.1387 14.2993 12.6645 14.8252 13.3135 14.8252H17.5137C18.1623 14.8248 18.6885 14.2991 18.6885 13.6504C18.6885 13.0017 18.1623 12.476 17.5137 12.4756H13.3135ZM13.3135 9.12012C12.6645 9.12012 12.1387 9.64599 12.1387 10.2949C12.1387 10.9439 12.6645 11.4697 13.3135 11.4697H17.5137C18.1623 11.4694 18.6885 10.9436 18.6885 10.2949C18.6885 9.64622 18.1623 9.12049 17.5137 9.12012H13.3135ZM13.3135 5.81445C12.6645 5.81445 12.1387 6.34032 12.1387 6.98926C12.1387 7.63819 12.6645 8.16406 13.3135 8.16406H17.5137C18.1623 8.16369 18.6885 7.63796 18.6885 6.98926C18.6885 6.34055 18.1623 5.81482 17.5137 5.81445H13.3135Z" fill="black"/>
</svg>