<svg viewBox="0 0 24 24" fill="none" xmlns="http://www.w3.org/2000/svg" width="24" height="24">
<path fill-rule="evenodd" clip-rule="evenodd" d="M20.25 5C20.6642 5 21 5.33579 21 5.75V18.25C21 18.6642 20.6642 19 20.25 19H3.75C3.33579 19 3 18.6642 3 18.25V5.75C3 5.33579 3.33579 5 3.75 5H20.25ZM6.22461 12.7002C5.93491 12.7004 5.70035 12.9349 5.7002 13.2246V16.375C5.70025 16.6648 5.93485 16.9002 6.22461 16.9004H9.375C9.66489 16.9004 9.90034 16.6649 9.90039 16.375V13.2246C9.90023 12.9348 9.66483 12.7002 9.375 12.7002H6.22461ZM11.8252 12.7002C11.5353 12.7002 11.3 12.9348 11.2998 13.2246V16.375C11.2999 16.6649 11.5353 16.9004 11.8252 16.9004H17.7754C18.0652 16.9002 18.2998 16.6648 18.2998 16.375V13.2246C18.2996 12.9349 18.0651 12.7004 17.7754 12.7002H11.8252ZM6.22461 7.10059C5.93485 7.10077 5.70025 7.33521 5.7002 7.625V10.7754C5.70035 11.0651 5.93491 11.2996 6.22461 11.2998H17.7754C18.065 11.2996 18.2996 11.0651 18.2998 10.7754V7.625C18.2998 7.33524 18.0651 7.10082 17.7754 7.10059H6.22461Z" fill="black"/>
</svg>