<svg viewBox="0 0 24 24" fill="none" xmlns="http://www.w3.org/2000/svg" width="24" height="24">
<path d="M3 5.99805C3 5.58383 3.33579 5.24805 3.75 5.24805H20.25C20.6642 5.24805 21 5.58383 21 5.99805V10.498C21 10.9123 20.6642 11.248 20.25 11.248H3.75C3.33579 11.248 3 10.9123 3 10.498V5.99805Z" fill="black"/>
<path d="M10 13.248C10.5523 13.248 11 13.6958 11 14.248C11 14.8003 10.5523 15.248 10 15.248H4C3.44772 15.248 3 14.8003 3 14.248C3 13.6958 3.44772 13.248 4 13.248H10Z" fill="black"/>
<path d="M20 13.248C20.5523 13.248 21 13.6958 21 14.248C21 14.8003 20.5523 15.248 20 15.248H14C13.4477 15.248 13 14.8003 13 14.248C13 13.6958 13.4477 13.248 14 13.248H20Z" fill="black"/>
<path d="M20 17.248C20.5523 17.248 21 17.6958 21 18.248C21 18.8003 20.5523 19.248 20 19.248H14C13.4477 19.248 13 18.8003 13 18.248C13 17.6958 13.4477 17.248 14 17.248H20Z" fill="black"/>
<path d="M10 17.248C10.5523 17.248 11 17.6958 11 18.248C11 18.8003 10.5523 19.248 10 19.248H4C3.44772 19.248 3 18.8003 3 18.248C3 17.6958 3.44772 17.248 4 17.248H10Z" fill="black"/>
<path d="M3.5 6.24805H20.5V18.752H3.5V6.24805Z" fill="black" fill-opacity="0.2"/>
</svg>