<svg viewBox="0 0 24 24" fill="none" xmlns="http://www.w3.org/2000/svg" width="24" height="24">
<path d="M12.9492 12.6533H11.0547L11.999 10.4141L12.9492 12.6533Z" fill="black"/>
<path fill-rule="evenodd" clip-rule="evenodd" d="M18.75 3.89941C19.1078 3.89944 19.451 4.04201 19.7041 4.29492C19.9573 4.5481 20.0996 4.89196 20.0996 5.25V18.75C20.0996 19.108 19.9573 19.451 19.7041 19.7041C19.451 19.9573 19.108 20.0996 18.75 20.0996H5.25C4.89196 20.0996 4.5481 19.9573 4.29492 19.7041C4.04201 19.451 3.89944 19.1078 3.89941 18.75V5.25C3.89941 4.89196 4.04175 4.5481 4.29492 4.29492C4.5481 4.04175 4.89196 3.89941 5.25 3.89941H18.75ZM6.60059 5.92578C6.22779 5.92578 5.92578 6.22779 5.92578 6.60059V17.4004C5.92604 17.773 6.22796 18.0752 6.60059 18.0752C6.97299 18.0749 7.27513 17.7728 7.27539 17.4004V6.60059C7.27539 6.22796 6.97315 5.92604 6.60059 5.92578ZM17.4004 5.92578C17.0278 5.92578 16.7258 6.22704 16.7256 6.59961V17.4004C16.7258 17.773 17.0278 18.0752 17.4004 18.0752C17.7728 18.0749 18.0749 17.7728 18.0752 17.4004V6.60059C18.0752 6.22796 17.773 5.92604 17.4004 5.92578ZM12.0078 8.3623C11.8403 8.36231 11.683 8.40742 11.541 8.49609L11.5342 8.5C11.3838 8.60026 11.2801 8.75574 11.2061 8.93164L8.65527 14.6514L8.65332 14.6572C8.59155 14.8041 8.55863 14.9588 8.5791 15.1123L8.60645 15.2295C8.64433 15.3414 8.71388 15.4378 8.8125 15.5117L8.91699 15.5752C9.02606 15.6277 9.14721 15.6484 9.26953 15.6484C9.43839 15.6484 9.60349 15.6056 9.7373 15.4941L9.74609 15.4854C9.86093 15.3801 9.94803 15.2314 10.0176 15.0645L10.0166 15.0635L10.4863 13.9639H13.5039L13.9805 15.0684L14.0381 15.1885C14.1 15.3039 14.1754 15.4054 14.2676 15.4834L14.3789 15.5596C14.496 15.6227 14.6288 15.6484 14.7646 15.6484C14.9204 15.6484 15.08 15.6179 15.21 15.5234L15.2217 15.5137C15.345 15.4126 15.4159 15.2758 15.4365 15.1211L15.4375 15.1191C15.4575 14.9586 15.4204 14.8005 15.3506 14.6514L12.7998 8.93066C12.725 8.75344 12.6184 8.59935 12.4629 8.5C12.3262 8.40884 12.1721 8.3623 12.0078 8.3623Z" fill="black"/>
</svg>