<svg viewBox="0 0 24 24" fill="none" xmlns="http://www.w3.org/2000/svg" width="24" height="24">
<path d="M11.3253 14.7L15.3753 18.75L19.4253 14.7" fill="black"/>
<path d="M15.7466 19.3135C15.4846 19.4865 15.1286 19.4581 14.898 19.2275L10.8481 15.1777C10.6551 14.9847 10.5972 14.6936 10.7017 14.4414C10.8062 14.1893 11.0528 14.0254 11.3257 14.0254L19.4253 14.0254C19.6983 14.0254 19.9448 14.1892 20.0493 14.4414C20.1538 14.6936 20.0959 14.9847 19.9028 15.1777L15.853 19.2275L15.7466 19.3135ZM17.7954 15.375H12.9546L15.3755 17.7959L17.7954 15.375Z" fill="black"/>
<path d="M16.0503 18.75C16.0503 19.1228 15.7483 19.4248 15.3755 19.4248C15.0027 19.4248 14.7007 19.1228 14.7007 18.75L14.7007 7.27539L3.2251 7.27539C2.85249 7.27518 2.55029 6.97227 2.55029 6.59961C2.5505 6.22713 2.85262 5.92502 3.2251 5.9248L15.3755 5.92481C15.7482 5.92481 16.0501 6.227 16.0503 6.59961L16.0503 18.75Z" fill="black"/>
</svg>