<svg viewBox="0 0 24 24" fill="none" xmlns="http://www.w3.org/2000/svg" width="24" height="24">
<path d="M12.6748 9.30008L8.6248 5.25008L4.5748 9.30008" fill="black"/>
<path d="M8.25351 4.6866C8.51548 4.51359 8.87147 4.54196 9.10214 4.77254L13.1519 8.82234C13.345 9.01539 13.4029 9.30644 13.2984 9.55867C13.1939 9.81077 12.9473 9.97469 12.6744 9.97469H4.5748C4.30182 9.97469 4.05527 9.81085 3.95077 9.55867C3.8463 9.30644 3.90421 9.01539 4.09726 8.82234L8.14706 4.77254L8.25351 4.6866ZM6.20468 8.62508H11.0455L8.6246 6.20418L6.20468 8.62508Z" fill="black"/>
<path d="M7.94999 5.25008C7.94999 4.87729 8.25201 4.57527 8.6248 4.57527C8.99759 4.57527 9.2996 4.87729 9.2996 5.25008V16.7247H20.7752C21.1478 16.7249 21.45 17.0278 21.45 17.4005C21.4498 17.773 21.1477 18.0751 20.7752 18.0753H8.6248C8.25214 18.0753 7.9502 17.7731 7.94999 17.4005V5.25008Z" fill="black"/>
<path d="M4.58036 5.25488C4.20757 5.25488 3.90458 4.95287 3.90458 4.58008C3.90458 4.20729 4.20757 3.90527 4.58036 3.90527L19.43 3.90528C19.8028 3.90528 20.1048 4.20729 20.1048 4.58008C20.1048 4.95287 19.8028 5.25489 19.43 5.25489L4.58036 5.25488Z" fill="black"/>
</svg>