<svg viewBox="0 0 24 24" fill="none" xmlns="http://www.w3.org/2000/svg" width="24" height="24">
<path d="M15.376 6.10059C15.5084 6.10069 15.6358 6.15339 15.7295 6.24707C15.8231 6.34082 15.876 6.46807 15.876 6.60059L15.875 17.543L19.0723 14.3467C19.2676 14.1518 19.5842 14.1515 19.7793 14.3467C19.9744 14.5418 19.9742 14.8584 19.7793 15.0537L15.7285 19.1045C15.5332 19.2994 15.2166 19.2996 15.0215 19.1045L10.9717 15.0537C10.7767 14.8584 10.7765 14.5418 10.9717 14.3467C11.1669 14.1516 11.4835 14.1517 11.6787 14.3467L14.875 17.543L14.876 7.10059H3.22559C2.94944 7.10059 2.72559 6.87673 2.72559 6.60059C2.72559 6.32444 2.94944 6.10059 3.22559 6.10059H15.376Z" fill="black"/>
</svg>