<svg xmlns="http://www.w3.org/2000/svg" fill="currentColor" viewBox="0 0 24 24" width="24" height="24"><path d="m9.3 21.45 1.35-6.75-5.4-2.025L14.7 2.55 13.35 9.3l5.4 2.025z" opacity=".2"/><path d="M19.407 11.171a.68.68 0 0 0-.422-.478L14.124 8.87l1.237-6.187a.675.675 0 0 0-1.155-.591l-9.45 10.125a.675.675 0 0 0 .253 1.097l4.863 1.823-1.234 6.18a.675.675 0 0 0 1.155.591l9.45-10.125a.68.68 0 0 0 .164-.613zm-8.979 8.086.883-4.42a.675.675 0 0 0-.422-.764l-4.458-1.675 7.14-7.649-.883 4.42a.675.675 0 0 0 .422.764l4.455 1.671z"/></svg>