<svg xmlns="http://www.w3.org/2000/svg" width="24" height="24" fill="currentColor" viewBox="0 0 24 24"><path d="M16.05 20.775a.675.675 0 0 1-.675.675h-6.75a.675.675 0 0 1 0-1.35h6.75a.675.675 0 0 1 .675.675m3.375-10.8a7.39 7.39 0 0 1-2.838 5.84 1.37 1.37 0 0 0-.537 1.079v.506a1.35 1.35 0 0 1-1.35 1.35H9.3a1.35 1.35 0 0 1-1.35-1.35v-.506a1.35 1.35 0 0 0-.526-1.068 7.39 7.39 0 0 1-2.849-5.809c-.022-4.021 3.228-7.37 7.246-7.466a7.425 7.425 0 0 1 7.604 7.425zm-2.709-.788a4.86 4.86 0 0 0-3.928-3.928.675.675 0 0 0-.224 1.331c1.398.235 2.584 1.422 2.822 2.822a.675.675 0 0 0 .666.562 1 1 0 0 0 .114-.009.675.675 0 0 0 .552-.779z"/></svg>