<svg viewBox="0 0 24 24" fill="none" xmlns="http://www.w3.org/2000/svg" width="24" height="24">
<path fill-rule="evenodd" clip-rule="evenodd" d="M20.25 4C20.6642 4 21 4.33579 21 4.75V19.25C21 19.6642 20.6642 20 20.25 20H3.75C3.33579 20 3 19.6642 3 19.25V4.75C3 4.33579 3.33579 4 3.75 4H20.25ZM17.4355 14.707C17.1042 14.707 16.836 14.9763 16.8359 15.3076V16.3311H15.8115C15.4802 16.3312 15.2109 16.6003 15.2109 16.9316C15.211 17.2629 15.4803 17.5311 15.8115 17.5312H16.8359V18.5469C16.8359 18.8782 17.1042 19.1475 17.4355 19.1475C17.7669 19.1475 18.0352 18.8782 18.0352 18.5469V17.5312H19.0508C19.3821 17.5312 19.6513 17.2629 19.6514 16.9316C19.6514 16.6003 19.3822 16.3311 19.0508 16.3311H18.0352V15.3076C18.0351 14.9763 17.7669 14.707 17.4355 14.707ZM10.4766 8.76758C9.98455 8.7676 9.49655 8.86444 9.04199 9.05273C8.58745 9.24108 8.17405 9.51729 7.82617 9.86523L5.48242 12.209C4.78059 12.9109 4.38572 13.8629 4.38477 14.8555L4.38965 15.041C4.43465 15.9662 4.82072 16.8446 5.47754 17.5039L5.61133 17.6318C5.92956 17.9211 6.29639 18.1539 6.69434 18.3193C7.14893 18.5082 7.63665 18.605 8.12891 18.6055C8.62145 18.6058 9.11031 18.5096 9.56543 18.3213C10.0204 18.1329 10.434 17.8561 10.7822 17.5078L11.5244 16.7656C11.7587 16.5314 11.7586 16.1513 11.5244 15.917C11.2901 15.6831 10.91 15.6828 10.6758 15.917L9.93359 16.6592C9.69684 16.8959 9.41485 17.0849 9.10547 17.2129C8.79627 17.3407 8.46447 17.4055 8.12988 17.4053C7.79513 17.405 7.46342 17.3394 7.1543 17.2109C6.88384 17.0985 6.63426 16.9407 6.41797 16.7441L6.32812 16.6572C5.85178 16.1792 5.58435 15.5313 5.58496 14.8564C5.58559 14.1817 5.85396 13.5348 6.33105 13.0576L8.6748 10.7139C8.91123 10.4774 9.19206 10.2892 9.50098 10.1611C9.80993 10.0332 10.1422 9.9678 10.4766 9.96777C10.8106 9.96786 11.1415 10.0334 11.4502 10.1611C11.6819 10.2571 11.8985 10.3863 12.0918 10.5449L12.2773 10.7139C12.5228 10.9582 12.7165 11.2515 12.8447 11.5732C12.9728 11.8947 13.0335 12.239 13.0234 12.585C13.0137 12.916 13.2745 13.1931 13.6055 13.2031C13.9367 13.2128 14.213 12.9513 14.2227 12.6201C14.2375 12.1103 14.1487 11.6027 13.96 11.1289C13.7947 10.7143 13.5559 10.3329 13.2568 10.0029L13.125 9.86426C12.7774 9.51684 12.3642 9.24089 11.9102 9.05273C11.4558 8.86457 10.9683 8.76766 10.4766 8.76758ZM15.875 5.52832C15.3832 5.52836 14.8958 5.62632 14.4414 5.81445C13.9868 6.00278 13.5735 6.27902 13.2256 6.62695L12.4824 7.37012C12.2487 7.60441 12.2485 7.98361 12.4824 8.21777C12.7167 8.45156 13.0969 8.45164 13.3311 8.21777L14.0742 7.47559C14.3107 7.23906 14.5914 7.05087 14.9004 6.92285C15.2092 6.79499 15.5408 6.72953 15.875 6.72949C16.2092 6.72959 16.5408 6.79495 16.8496 6.92285C17.1585 7.05088 17.4394 7.23913 17.6758 7.47559C17.9122 7.71201 18.1005 7.99288 18.2285 8.30176C18.3564 8.61054 18.4218 8.94216 18.4219 9.27637C18.4218 9.61069 18.3565 9.94308 18.2285 10.252C18.1165 10.522 17.9586 10.7711 17.7627 10.9873L17.6758 11.0771L15.332 13.4209C15.0953 13.6577 14.8143 13.8466 14.5049 13.9746C14.1957 14.1025 13.8639 14.1672 13.5293 14.167C13.1947 14.1667 12.8627 14.101 12.5537 13.9727C12.2447 13.8442 11.9629 13.6558 11.7266 13.4189L11.6367 13.3242C11.4346 13.1004 11.2738 12.8414 11.1621 12.5605C11.0345 12.2395 10.9734 11.8951 10.9834 11.5498C10.9931 11.2188 10.7323 10.9426 10.4014 10.9326C10.0702 10.923 9.79386 11.1835 9.78418 11.5146C9.76942 12.0234 9.85899 12.5299 10.0469 13.0029C10.2347 13.4755 10.5175 13.905 10.877 14.2646C11.2246 14.6133 11.6381 14.8921 12.0928 15.0811C12.5473 15.2698 13.0352 15.3667 13.5273 15.3672C14.0198 15.3675 14.5088 15.2713 14.9639 15.083C15.4189 14.8946 15.8324 14.6178 16.1807 14.2695L16.8789 13.5723L18.5234 11.9258L18.5244 11.9268C18.8724 11.5789 19.1486 11.1645 19.3369 10.71C19.525 10.2556 19.622 9.7681 19.6221 9.27637C19.622 8.78463 19.525 8.2971 19.3369 7.84277C19.1723 7.44539 18.9405 7.07887 18.6523 6.76074L18.5244 6.62695C18.1766 6.27909 17.763 6.00279 17.3086 5.81445C16.8543 5.62628 16.3668 5.52842 15.875 5.52832Z" fill="black"/>
</svg>