<svg xmlns="http://www.w3.org/2000/svg" width="24" height="24" fill="currentColor" viewBox="0 0 24 24"><path d="M20.1 4.575v14.85a.675.675 0 0 1-.675.675H4.575a.675.675 0 0 1-.675-.675V4.575a.675.675 0 0 1 .675-.675h14.85a.675.675 0 0 1 .675.675" opacity=".2"/><path d="M19.425 3.225H4.575a1.35 1.35 0 0 0-1.35 1.35v14.85a1.35 1.35 0 0 0 1.35 1.35h14.85a1.35 1.35 0 0 0 1.35-1.35V4.575a1.35 1.35 0 0 0-1.35-1.35m0 16.2H4.575V4.575h14.85zM9.3 10.65v5.4a.675.675 0 0 1-1.35 0v-5.4a.675.675 0 0 1 1.35 0m7.425 2.363v3.037a.675.675 0 0 1-1.35 0v-3.038a1.688 1.688 0 0 0-3.375 0v3.037a.675.675 0 0 1-1.35 0v-5.4a.675.675 0 0 1 1.332-.15 3.038 3.038 0 0 1 4.743 2.513zM9.637 8.288a1.013 1.013 0 1 1-1.012-1.013 1.013 1.013 0 0 1 1.012 1.013"/></svg>