<svg xmlns="http://www.w3.org/2000/svg" width="24" height="24" fill="currentColor" viewBox="0 0 24 24"><path d="M21.281 8.64a4.42 4.42 0 0 1-1.299 3.009l-2.932 2.932a4.4 4.4 0 0 1-3.141 1.3h-.004a4.44 4.44 0 0 1-4.436-4.565.506.506 0 0 1 .506-.493h.014a.506.506 0 0 1 .492.52 3.427 3.427 0 0 0 3.424 3.525 3.4 3.4 0 0 0 2.424-1.004l2.932-2.931a3.428 3.428 0 0 0-4.846-4.848l-.928.928a.506.506 0 0 1-.716-.716l.928-.928a4.44 4.44 0 0 1 6.28 0 4.46 4.46 0 0 1 1.302 3.271m-10.768 8.345-.928.928a3.4 3.4 0 0 1-2.428 1.006 3.428 3.428 0 0 1-2.422-5.852l2.93-2.931a3.428 3.428 0 0 1 5.854 2.52.506.506 0 0 0 .492.52h.014a.506.506 0 0 0 .506-.493A4.441 4.441 0 0 0 6.949 9.42l-2.933 2.931a4.441 4.441 0 0 0 3.137 7.58 4.4 4.4 0 0 0 3.14-1.301l.928-.928a.506.506 0 1 0-.716-.716z"/></svg>