<svg xmlns="http://www.w3.org/2000/svg" width="24" height="24" fill="currentColor" viewBox="0 0 24 24"><path d="m18.914 10.814-8.1 8.1a4.05 4.05 0 0 1-5.727-5.727l8.1-8.1a4.05 4.05 0 0 1 5.727 5.727" opacity=".2"/><path d="M15.178 8.822a.675.675 0 0 1 0 .955l-5.4 5.4a.675.675 0 0 1-.955-.955l5.4-5.4a.675.675 0 0 1 .955 0m4.214-4.214a4.725 4.725 0 0 0-6.683 0l-2.536 2.535a.675.675 0 0 0 .955.955l2.536-2.531a3.375 3.375 0 0 1 4.773 4.772L15.9 12.875a.675.675 0 0 0 .954.955l2.537-2.541a4.725 4.725 0 0 0 0-6.683zm-6.519 11.291-2.536 2.536a3.375 3.375 0 1 1-4.772-4.773L8.1 11.127a.675.675 0 0 0-.955-.955L4.61 12.708a4.726 4.726 0 0 0 6.683 6.683l2.536-2.537a.675.675 0 0 0-.955-.954z"/></svg>