<svg viewBox="0 0 24 24" fill="none" xmlns="http://www.w3.org/2000/svg" width="24" height="24">
<path d="M18.75 3.90039C19.1079 3.90042 19.451 4.04284 19.7041 4.2959C19.9572 4.54898 20.0995 4.8921 20.0996 5.25V18.75C20.0996 19.108 19.9573 19.4519 19.7041 19.7051C19.451 19.9581 19.1079 20.1006 18.75 20.1006H5.25C4.89196 20.1006 4.5481 19.9583 4.29492 19.7051C4.04184 19.4519 3.89941 19.108 3.89941 18.75V5.25C3.89952 4.89221 4.04199 4.54896 4.29492 4.2959C4.5481 4.04272 4.89196 3.90039 5.25 3.90039H18.75ZM6.59375 15.0332C6.51829 15.0409 6.44607 15.0595 6.37891 15.0879C6.10945 15.2015 5.92008 15.4685 5.91992 15.7793V16.3096C5.91992 16.7237 6.25589 17.0594 6.66992 17.0596H6.85645C6.88315 17.0617 6.91057 17.0625 6.9375 17.0625C6.96433 17.0625 6.99103 17.0617 7.01758 17.0596H7.2002C7.61441 17.0596 7.9502 16.7238 7.9502 16.3096V15.7793C7.95004 15.4687 7.76143 15.2016 7.49219 15.0879C7.40253 15.05 7.30365 15.0293 7.2002 15.0293H6.66992C6.64422 15.0293 6.61879 15.0307 6.59375 15.0332ZM9.97461 15.375C9.79576 15.3751 9.62455 15.4468 9.49805 15.5732C9.37146 15.6998 9.2998 15.8718 9.2998 16.0508C9.29991 16.2297 9.37155 16.4008 9.49805 16.5273C9.62456 16.6538 9.79572 16.7255 9.97461 16.7256H17.4004C17.5792 16.7255 17.7505 16.6538 17.877 16.5273C18.0034 16.4009 18.0751 16.2296 18.0752 16.0508C18.0752 15.8718 18.0035 15.6998 17.877 15.5732C17.7505 15.4468 17.5792 15.3751 17.4004 15.375H9.97461ZM6.66992 10.9854C6.2559 10.9856 5.91994 11.3213 5.91992 11.7354V12.2656C5.92005 12.6796 6.25597 13.0154 6.66992 13.0156H7.2002C7.61433 13.0156 7.95007 12.6797 7.9502 12.2656V11.7354C7.95017 11.3212 7.6144 10.9854 7.2002 10.9854H6.66992ZM9.97461 11.3252C9.79572 11.3253 9.62456 11.397 9.49805 11.5234C9.37155 11.6499 9.29991 11.8211 9.2998 12C9.2998 12.179 9.37146 12.351 9.49805 12.4775C9.62455 12.604 9.79576 12.6757 9.97461 12.6758H17.4004C17.5792 12.6757 17.7505 12.604 17.877 12.4775C18.0035 12.351 18.0752 12.179 18.0752 12C18.0751 11.8211 18.0034 11.6499 17.877 11.5234C17.7505 11.397 17.5792 11.3253 17.4004 11.3252H9.97461ZM6.6709 6.94141C6.25668 6.94141 5.9209 7.27719 5.9209 7.69141V8.22168C5.92105 8.63577 6.25678 8.97168 6.6709 8.97168L6.9375 8.96191L7.2002 8.97168C7.61432 8.97168 7.95005 8.63577 7.9502 8.22168V7.69141C7.9502 7.27719 7.61441 6.94141 7.2002 6.94141H6.6709ZM9.97461 7.27539C9.7959 7.27547 9.62452 7.34641 9.49805 7.47266C9.37151 7.5992 9.29986 7.77124 9.2998 7.9502C9.2998 8.12922 9.37146 8.30115 9.49805 8.42773C9.62454 8.5541 9.79581 8.62492 9.97461 8.625H17.4004C17.5792 8.62487 17.7505 8.55411 17.877 8.42773C18.0035 8.30115 18.0752 8.12922 18.0752 7.9502C18.0751 7.77124 18.0035 7.5992 17.877 7.47266C17.7505 7.3464 17.5791 7.27552 17.4004 7.27539H9.97461Z" fill="black"/>
</svg>