<svg xmlns="http://www.w3.org/2000/svg" fill="currentColor" viewBox="0 0 24 24" width="24" height="24"><path d="M18.75 3.9H5.25A1.35 1.35 0 0 0 3.9 5.25v13.5a1.35 1.35 0 0 0 1.35 1.35h13.5a1.35 1.35 0 0 0 1.35-1.35V5.25a1.35 1.35 0 0 0-1.35-1.35M6.937 17.063a1.013 1.013 0 1 1 1.013-1.012 1.013 1.013 0 0 1-1.013 1.012m0-4.05a1.013 1.013 0 1 1 1.013-1.012 1.013 1.013 0 0 1-1.013 1.012m0-4.05a1.013 1.013 0 1 1 1.012-1.012 1.013 1.013 0 0 1-1.012 1.013zM17.4 16.725H9.975a.675.675 0 0 1 0-1.35H17.4a.675.675 0 0 1 0 1.35m0-4.05H9.975a.675.675 0 0 1 0-1.35H17.4a.675.675 0 0 1 0 1.35m0-4.05H9.975a.675.675 0 0 1 0-1.35H17.4a.675.675 0 0 1 0 1.35"/></svg>