<svg viewBox="0 0 24 24" fill="none" xmlns="http://www.w3.org/2000/svg" width="24" height="24">
<path d="M7.10791 12.4272C7.23364 12.4272 7.32461 12.4507 7.38135 12.4976C7.44045 12.5443 7.47012 12.6155 7.47021 12.7114C7.47021 12.8076 7.44055 12.8808 7.38135 12.9302C7.3246 12.9769 7.23356 13.0005 7.10791 13.0005H6.55615V12.4272H7.10791Z" fill="black"/>
<path d="M7.0415 11.3911C7.16454 11.3911 7.25432 11.4133 7.31104 11.4575C7.37024 11.4995 7.3999 11.5664 7.3999 11.6577C7.39983 11.7488 7.37017 11.8165 7.31104 11.8608C7.25432 11.9051 7.16459 11.9272 7.0415 11.9272H6.55615V11.3911H7.0415Z" fill="black"/>
<path d="M7.32764 7.44873H6.60791L6.9624 6.60205H6.97021L7.32764 7.44873Z" fill="black"/>
<path fill-rule="evenodd" clip-rule="evenodd" d="M19.3501 3.8999C19.7642 3.90001 20.1001 4.23575 20.1001 4.6499V19.3501C20.1 19.7642 19.7642 20.1 19.3501 20.1001H4.6499C4.23575 20.1001 3.90001 19.7642 3.8999 19.3501V4.6499C3.8999 4.23569 4.23569 3.8999 4.6499 3.8999H19.3501ZM7.24756 15.8511C7.0333 15.8511 6.83993 15.8828 6.66748 15.9468C6.49728 16.0084 6.35085 16.0989 6.22998 16.2173C6.11173 16.3356 6.02062 16.4779 5.95654 16.6431C5.89499 16.8082 5.86377 16.9918 5.86377 17.1938C5.86377 17.4652 5.91832 17.7025 6.02686 17.9048C6.13785 18.1069 6.29732 18.2636 6.50439 18.3745C6.71146 18.4854 6.95923 18.5405 7.24756 18.5405C7.37336 18.5405 7.49969 18.5262 7.62549 18.4966C7.75348 18.467 7.86055 18.4262 7.94678 18.3745C8.01091 18.34 8.0559 18.2935 8.08057 18.2368C8.10753 18.1802 8.1158 18.1235 8.10596 18.0669C8.09607 18.0078 8.07259 17.956 8.03564 17.9116C8.00113 17.8673 7.95412 17.8375 7.89502 17.8228C7.83843 17.8081 7.77344 17.8172 7.69971 17.8491C7.62818 17.8837 7.55495 17.909 7.48096 17.9263C7.40701 17.9411 7.33802 17.9487 7.27393 17.9487C7.12109 17.9487 6.99273 17.9204 6.88916 17.8638C6.78803 17.8046 6.71147 17.7189 6.65967 17.6079C6.60796 17.4945 6.58154 17.3565 6.58154 17.1938C6.58155 17.0311 6.60787 16.8937 6.65967 16.7827C6.71146 16.6719 6.78816 16.5884 6.88916 16.5317C6.99275 16.4726 7.12102 16.4429 7.27393 16.4429C7.3528 16.4429 7.42803 16.4525 7.49951 16.4722C7.57345 16.4894 7.64725 16.5158 7.72119 16.5503C7.78529 16.5823 7.84468 16.5905 7.89893 16.5757C7.95319 16.5584 7.99818 16.5268 8.03271 16.48C8.06719 16.4332 8.08781 16.3799 8.09521 16.3208C8.10508 16.2616 8.09598 16.2037 8.06885 16.147C8.04175 16.0903 7.99419 16.0433 7.92529 16.0063C7.83156 15.9545 7.72245 15.9158 7.59912 15.8911C7.47838 15.864 7.36092 15.8511 7.24756 15.8511ZM9.51318 16.4321C9.14062 16.4324 8.83838 16.7343 8.83838 17.1069C8.83875 17.4792 9.14084 17.7815 9.51318 17.7817H17.7632C18.1357 17.7817 18.4376 17.4794 18.438 17.1069C18.438 16.7341 18.136 16.4321 17.7632 16.4321H9.51318ZM6.26025 10.8911C6.14466 10.8912 6.05622 10.9225 5.99463 10.9839C5.93549 11.043 5.90582 11.1294 5.90576 11.2427V13.1489C5.90584 13.2622 5.9355 13.35 5.99463 13.4116C6.05622 13.4705 6.14476 13.5004 6.26025 13.5005H7.20068C7.48396 13.5004 7.70692 13.4347 7.86963 13.3042C8.03483 13.171 8.11761 12.9895 8.11768 12.7603C8.11768 12.5876 8.06883 12.4455 7.97021 12.3345C7.8932 12.2456 7.78982 12.1823 7.66064 12.144C7.76366 12.1015 7.84875 12.0402 7.91455 11.9575C8.00334 11.849 8.04736 11.7179 8.04736 11.5649C8.04736 11.4293 8.01291 11.3106 7.94385 11.2095C7.87487 11.1086 7.77394 11.0313 7.64111 10.9771C7.51042 10.9203 7.35097 10.8911 7.16357 10.8911H6.26025ZM9.60693 11.5532C9.23437 11.5535 8.93213 11.8554 8.93213 12.228C8.9325 12.6003 9.23459 12.9026 9.60693 12.9028H17.8569C18.2295 12.9028 18.5314 12.6005 18.5317 12.228C18.5317 11.8552 18.2297 11.5532 17.8569 11.5532H9.60693ZM6.97021 5.85791C6.88654 5.85791 6.81112 5.88012 6.74463 5.92432C6.68058 5.96866 6.62591 6.03925 6.58154 6.13525L5.66064 8.11865C5.62613 8.19755 5.61416 8.26938 5.62646 8.3335C5.6388 8.39516 5.67134 8.44493 5.72314 8.48193C5.7749 8.51636 5.83918 8.53369 5.91553 8.53369C6.01171 8.53369 6.08351 8.5107 6.13037 8.46631C6.17708 8.42192 6.22283 8.35074 6.26709 8.25244L6.38623 7.97119H7.55029L7.66943 8.25244C7.7113 8.35087 7.75836 8.42195 7.81006 8.46631C7.86433 8.51071 7.94088 8.53369 8.03955 8.53369C8.11328 8.53365 8.1749 8.51628 8.22412 8.48193C8.27592 8.4474 8.30703 8.39763 8.31689 8.3335C8.32922 8.26937 8.31534 8.19758 8.27588 8.11865L7.35498 6.13525C7.30814 6.0392 7.25206 5.96867 7.18799 5.92432C7.12647 5.88016 7.05379 5.85795 6.97021 5.85791ZM9.56006 6.34424C9.18749 6.3445 8.88525 6.64641 8.88525 7.01904C8.88562 7.39136 9.18772 7.69358 9.56006 7.69385H17.8101C18.1826 7.69385 18.4845 7.39152 18.4849 7.01904C18.4849 6.64625 18.1829 6.34424 17.8101 6.34424H9.56006Z" fill="black"/>
</svg>