<svg xmlns="http://www.w3.org/2000/svg" width="24" height="24" fill="currentColor" viewBox="0 0 24 24"><path d="M8.119 6.6a.506.506 0 0 1 .506-.506h10.8a.507.507 0 0 1 0 1.013h-10.8a.506.506 0 0 1-.506-.506zm11.306 4.894h-10.8a.507.507 0 0 0 0 1.013h10.8a.506.506 0 0 0 0-1.012zm0 5.4h-10.8a.506.506 0 0 0 0 1.012h10.8a.506.506 0 0 0 0-1.012M4.912 5.756a.844.844 0 1 0 .844.844.844.844 0 0 0-.844-.844m0 10.8a.844.844 0 1 0 .844.844.844.844 0 0 0-.844-.844m0-5.4a.844.844 0 1 0 .844.844.844.844 0 0 0-.844-.844"/></svg>