<svg viewBox="0 0 24 24" fill="none" xmlns="http://www.w3.org/2000/svg" width="24" height="24">
<path d="M19.4249 6.09957C19.701 6.09957 19.9249 6.32343 19.9249 6.59957C19.9249 6.87571 19.701 7.09957 19.4249 7.09957H8.62506C8.34892 7.09957 8.12506 6.87571 8.12506 6.59957C8.12506 6.32343 8.34892 6.09957 8.62506 6.09957H19.4249Z" fill="black"/>
<path d="M19.4249 11.4996C19.701 11.4996 19.9249 11.7234 19.9249 11.9996C19.9249 12.2757 19.701 12.4996 19.4249 12.4996H8.62506C8.34892 12.4996 8.12506 12.2757 8.12506 11.9996C8.12506 11.7234 8.34892 11.4996 8.62506 11.4996H19.4249Z" fill="black"/>
<path d="M19.4249 16.8996C19.701 16.8996 19.9249 17.1234 19.9249 17.3996C19.9249 17.6757 19.701 17.8996 19.4249 17.8996H8.62506C8.34892 17.8996 8.12506 17.6757 8.12506 17.3996C8.12506 17.1234 8.34892 16.8996 8.62506 16.8996H19.4249Z" fill="black"/>
<path d="M4.91256 7.61207C5.47175 7.61207 5.92506 7.15876 5.92506 6.59957C5.92506 6.04038 5.47175 5.58707 4.91256 5.58707C4.35337 5.58707 3.90006 6.04038 3.90006 6.59957C3.90006 7.15876 4.35337 7.61207 4.91256 7.61207Z" fill="black"/>
<path d="M3.89746 6.33496C3.89746 5.92075 4.23325 5.58496 4.64746 5.58496H5.17746C5.59167 5.58496 5.92746 5.92075 5.92746 6.33496V6.86496C5.92746 7.27917 5.59167 7.61496 5.17746 7.61496H4.64746C4.23325 7.61496 3.89746 7.27917 3.89746 6.86496V6.33496Z" fill="black"/>
<path d="M3.89746 11.7344C3.89746 11.3202 4.23325 10.9844 4.64746 10.9844H5.17746C5.59167 10.9844 5.92746 11.3202 5.92746 11.7344V12.2644C5.92746 12.6786 5.59167 13.0144 5.17746 13.0144H4.64746C4.23325 13.0144 3.89746 12.6786 3.89746 12.2644V11.7344Z" fill="black"/>
<path d="M3.89746 17.1348C3.89746 16.7206 4.23325 16.3848 4.64746 16.3848H5.17746C5.59167 16.3848 5.92746 16.7206 5.92746 17.1348V17.6648C5.92746 18.079 5.59167 18.4148 5.17746 18.4148H4.64746C4.23325 18.4148 3.89746 18.079 3.89746 17.6648V17.1348Z" fill="black"/>
</svg>