<svg xmlns="http://www.w3.org/2000/svg" width="24" height="24" fill="currentColor" viewBox="0 0 24 24"><path d="M19.425 6.6v10.8h-10.8V6.6z" opacity=".2"/><path d="M7.95 6.6a.675.675 0 0 1 .675-.675h10.8a.675.675 0 0 1 0 1.35h-10.8A.675.675 0 0 1 7.95 6.6m11.475 4.725h-10.8a.675.675 0 1 0 0 1.35h10.8a.675.675 0 0 0 0-1.35m0 5.4h-10.8a.675.675 0 1 0 0 1.35h10.8a.675.675 0 0 0 0-1.35M4.912 5.588a1.013 1.013 0 1 0 1.013 1.013 1.013 1.013 0 0 0-1.013-1.013m0 5.4A1.013 1.013 0 1 0 5.925 12a1.013 1.013 0 0 0-1.013-1.012m0 5.4a1.013 1.013 0 1 0 1.013 1.013 1.013 1.013 0 0 0-1.013-1.013"/></svg>