<svg xmlns="http://www.w3.org/2000/svg" width="24" height="24" fill="currentColor" viewBox="0 0 24 24"><path d="M19.931 12a.506.506 0 0 1-.506.506h-9.45a.507.507 0 0 1 0-1.013h9.45a.506.506 0 0 1 .506.506zM9.975 7.106h9.45a.507.507 0 0 0 0-1.013h-9.45a.507.507 0 0 0 0 1.013m9.45 9.788h-9.45a.506.506 0 0 0 0 1.012h9.45a.506.506 0 0 0 0-1.012M4.801 5.703l.618-.309v4.581a.507.507 0 0 0 1.013 0v-5.4a.506.506 0 0 0-.732-.453l-1.35.675a.506.506 0 0 0 .452.906zm2.474 12.541H5.587l1.812-2.425a1.8 1.8 0 0 0 .364-1.372 1.84 1.84 0 0 0-.742-1.234 1.93 1.93 0 0 0-2.645.364 1.9 1.9 0 0 0-.277.499.507.507 0 0 0 .952.347.8.8 0 0 1 .125-.225.91.91 0 0 1 1.247-.169.83.83 0 0 1 .338.558.8.8 0 0 1-.169.614l-.005.008-2.417 3.238a.506.506 0 0 0 .405.809h2.7a.506.506 0 0 0 0-1.012"/></svg>