<svg viewBox="0 0 24 24" fill="none" xmlns="http://www.w3.org/2000/svg" width="24" height="24">
<path fill-rule="evenodd" clip-rule="evenodd" d="M19.3501 3.8999C19.7642 3.90001 20.1001 4.23575 20.1001 4.6499V19.3501C20.1 19.7642 19.7642 20.1 19.3501 20.1001H4.6499C4.23575 20.1001 3.90001 19.7642 3.8999 19.3501V4.6499C3.8999 4.23569 4.23569 3.8999 4.6499 3.8999H19.3501ZM5.41943 15.8579C5.31121 15.858 5.22759 15.8878 5.16846 15.9468C5.10933 16.0059 5.07967 16.0923 5.07959 16.2056V18.1851C5.07959 18.2961 5.10926 18.3832 5.16846 18.4448C5.22758 18.5038 5.31124 18.5336 5.41943 18.5337C5.53288 18.5337 5.61856 18.504 5.67529 18.4448C5.73203 18.3832 5.76025 18.2961 5.76025 18.1851V16.2056C5.76018 16.0923 5.73051 16.0059 5.67139 15.9468C5.61465 15.8876 5.53038 15.8579 5.41943 15.8579ZM6.57275 15.8579C6.4643 15.8579 6.37999 15.8877 6.3208 15.9468C6.26168 16.0059 6.23201 16.0923 6.23193 16.2056V18.1851C6.23193 18.2961 6.2616 18.3832 6.3208 18.4448C6.37999 18.5039 6.46433 18.5337 6.57275 18.5337C6.68591 18.5336 6.77097 18.5038 6.82764 18.4448C6.88437 18.3832 6.9126 18.2961 6.9126 18.1851V16.2056C6.91252 16.0923 6.88286 16.0059 6.82373 15.9468C6.76707 15.8878 6.68342 15.858 6.57275 15.8579ZM7.7251 15.8579C7.61656 15.8579 7.53234 15.8876 7.47314 15.9468C7.41403 16.0059 7.38435 16.0923 7.38428 16.2056V18.1851C7.38428 18.2961 7.41394 18.3832 7.47314 18.4448C7.53234 18.504 7.61658 18.5337 7.7251 18.5337C7.83831 18.5337 7.92326 18.5038 7.97998 18.4448C8.03671 18.3832 8.06494 18.2961 8.06494 18.1851V16.2056C8.06487 16.0924 8.0361 16.0059 7.97705 15.9468C7.92033 15.8876 7.83605 15.8579 7.7251 15.8579ZM8.80322 17.8042C8.69242 17.8043 8.60411 17.8383 8.5376 17.9048C8.47351 17.9689 8.44092 18.0536 8.44092 18.1597C8.44093 18.2682 8.47348 18.3558 8.5376 18.4224C8.60409 18.4887 8.69253 18.5219 8.80322 18.522C8.91907 18.522 9.00816 18.4889 9.06982 18.4224C9.13394 18.3558 9.16649 18.2682 9.1665 18.1597C9.1665 18.0537 9.13387 17.9689 9.06982 17.9048C9.00816 17.8382 8.91916 17.8042 8.80322 17.8042ZM10.0903 16.4321C9.71767 16.4323 9.41553 16.7342 9.41553 17.1069C9.4159 17.4793 9.7179 17.7816 10.0903 17.7817H18.3403C18.7129 17.7817 19.0148 17.4794 19.0151 17.1069C19.0151 16.7341 18.7131 16.4321 18.3403 16.4321H10.0903ZM5.41943 10.8579C5.31121 10.858 5.22759 10.8878 5.16846 10.9468C5.10933 11.0059 5.07967 11.0923 5.07959 11.2056V13.1851C5.07959 13.2961 5.10926 13.3832 5.16846 13.4448C5.22758 13.5038 5.31124 13.5336 5.41943 13.5337C5.53288 13.5337 5.61856 13.504 5.67529 13.4448C5.73203 13.3832 5.76025 13.2961 5.76025 13.1851V11.2056C5.76018 11.0923 5.73051 11.0059 5.67139 10.9468C5.61465 10.8876 5.53038 10.8579 5.41943 10.8579ZM6.57275 10.8579C6.4643 10.8579 6.37999 10.8877 6.3208 10.9468C6.26168 11.0059 6.23201 11.0923 6.23193 11.2056V13.1851C6.23193 13.2961 6.2616 13.3832 6.3208 13.4448C6.37999 13.5039 6.46433 13.5337 6.57275 13.5337C6.68591 13.5336 6.77097 13.5038 6.82764 13.4448C6.88437 13.3832 6.9126 13.2961 6.9126 13.1851V11.2056C6.91252 11.0923 6.88286 11.0059 6.82373 10.9468C6.76707 10.8878 6.68342 10.858 6.57275 10.8579ZM7.65088 12.8042C7.53994 12.8042 7.45085 12.8382 7.38428 12.9048C7.32041 12.9689 7.28857 13.0538 7.28857 13.1597C7.28859 13.2681 7.32024 13.3558 7.38428 13.4224C7.45085 13.4889 7.53994 13.5219 7.65088 13.522C7.76681 13.522 7.85581 13.489 7.91748 13.4224C7.9816 13.3558 8.01317 13.2682 8.01318 13.1597C8.01318 13.0538 7.98143 12.9689 7.91748 12.9048C7.85581 12.8382 7.76681 12.8042 7.65088 12.8042ZM10.0903 11.5532C9.71767 11.5534 9.41553 11.8553 9.41553 12.228C9.4159 12.6004 9.7179 12.9027 10.0903 12.9028H18.3403C18.7129 12.9028 19.0148 12.6005 19.0151 12.228C19.0151 11.8552 18.7131 11.5532 18.3403 11.5532H10.0903ZM5.41943 5.85791C5.31121 5.85796 5.22759 5.88781 5.16846 5.94678C5.10933 6.0059 5.07967 6.09231 5.07959 6.20557V8.18506C5.07959 8.29606 5.10926 8.38316 5.16846 8.44482C5.22758 8.50375 5.31124 8.53364 5.41943 8.53369C5.53288 8.53369 5.61856 8.504 5.67529 8.44482C5.73203 8.38316 5.76025 8.29606 5.76025 8.18506V6.20557C5.76018 6.09231 5.73051 6.0059 5.67139 5.94678C5.61465 5.88764 5.53038 5.85791 5.41943 5.85791ZM6.49854 7.8042C6.38754 7.8042 6.29853 7.83819 6.23193 7.90479C6.16797 7.96889 6.13623 8.05374 6.13623 8.15967C6.13624 8.26817 6.16781 8.35578 6.23193 8.42236C6.29853 8.48895 6.38754 8.52197 6.49854 8.52197C6.61439 8.52194 6.7035 8.48893 6.76514 8.42236C6.82916 8.3558 6.86083 8.26809 6.86084 8.15967C6.86084 8.05384 6.82898 7.96887 6.76514 7.90479C6.7035 7.83822 6.61439 7.80423 6.49854 7.8042ZM10.0903 6.34424C9.71767 6.3444 9.41553 6.64635 9.41553 7.01904C9.4159 7.39142 9.7179 7.69369 10.0903 7.69385H18.3403C18.7129 7.69385 19.0148 7.39152 19.0151 7.01904C19.0151 6.64625 18.7131 6.34424 18.3403 6.34424H10.0903Z" fill="black"/>
</svg>