<svg xmlns="http://www.w3.org/2000/svg" width="24" height="24" fill="currentColor" viewBox="0 0 24 24"><path d="M4.575 6.6h4.05v12.15h-4.05a.675.675 0 0 1-.675-.675v-10.8a.675.675 0 0 1 .675-.675m14.85 0h-4.05v12.15h4.05a.675.675 0 0 0 .675-.675v-10.8a.675.675 0 0 0-.675-.675" opacity=".2"/><path d="M19.425 5.925H16.05V5.25a2.025 2.025 0 0 0-2.025-2.025h-4.05A2.025 2.025 0 0 0 7.95 5.25v.675H4.575a1.35 1.35 0 0 0-1.35 1.35v10.8a1.35 1.35 0 0 0 1.35 1.35h14.85a1.35 1.35 0 0 0 1.35-1.35v-10.8a1.35 1.35 0 0 0-1.35-1.35M9.3 5.25a.675.675 0 0 1 .675-.675h4.05a.675.675 0 0 1 .675.675v.675H9.3zm5.4 2.025v10.8H9.3v-10.8zm-10.125 0H7.95v10.8H4.575zm14.85 10.8H16.05v-10.8h3.375z"/></svg>