<svg viewBox="0 0 24 24" fill="none" xmlns="http://www.w3.org/2000/svg" width="24" height="24">
<path d="M11.4999 12.5002H12.4999V11.5002H11.4999V12.5002ZM13.4999 12.7502C13.4999 13.1645 13.1641 13.5002 12.7499 13.5002H11.2499C10.8356 13.5002 10.4999 13.1645 10.4999 12.7502V11.2502C10.4999 10.836 10.8356 10.5002 11.2499 10.5002H12.7499C13.1641 10.5002 13.4999 10.836 13.4999 11.2502V12.7502Z" fill="black"/>
<path d="M16.6831 9.96699L18.2171 11.501H14.9975C14.7214 11.5011 14.4976 11.7249 14.4975 12.0009C14.4976 12.2769 14.7215 12.5008 14.9975 12.5009H18.2151L16.6831 14.0329C16.4878 14.2281 16.4878 14.5447 16.6831 14.74C16.8783 14.9352 17.1949 14.9352 17.3902 14.74L19.7767 12.3535C19.9719 12.1582 19.9719 11.8416 19.7767 11.6464L17.3902 9.25988C17.1949 9.06462 16.8783 9.06462 16.6831 9.25988C16.4878 9.45514 16.4878 9.77173 16.6831 9.96699Z" fill="black"/>
<path d="M7.32006 9.96689L5.78743 11.4995L9.00567 11.4989C9.28167 11.499 9.50552 11.7228 9.50562 11.9988C9.5056 12.2749 9.27579 12.4996 8.99975 12.4997L5.78606 12.4988L7.32006 14.0328C7.51532 14.228 7.51532 14.5446 7.32006 14.7399C7.1248 14.9351 6.80821 14.9351 6.61295 14.7399L4.23052 12.3574C4.03526 12.1622 4.0312 11.8415 4.22647 11.6463L6.61295 9.25978C6.80821 9.06452 7.1248 9.06452 7.32006 9.25978C7.51532 9.45505 7.51532 9.77163 7.32006 9.96689Z" fill="black"/>
<path d="M11.5009 5.78612L9.96685 7.32012C9.77159 7.51538 9.45501 7.51538 9.25975 7.32012C9.06448 7.12485 9.06448 6.80827 9.25975 6.61301L11.6462 4.22652C11.8415 4.03126 12.1581 4.03126 12.3533 4.22652L14.7398 6.61301C14.9351 6.80827 14.9351 7.12485 14.7398 7.32012C14.5446 7.51538 14.228 7.51538 14.0327 7.32012L12.5007 5.78815L12.5007 9.00573C12.5006 9.28173 12.2768 9.50558 12.0008 9.50567C11.7247 9.50565 11.501 9.28177 11.5009 9.00573L11.5009 5.78612Z" fill="black"/>
<path d="M12.4989 18.217V14.9974C12.4988 14.7214 12.2751 14.4975 11.999 14.4975C11.723 14.4976 11.4991 14.7214 11.499 14.9974V18.215L9.96708 16.683C9.77181 16.4877 9.45523 16.4877 9.25997 16.683C9.06471 16.8783 9.06471 17.1949 9.25997 17.3901L11.6465 19.7766C11.8417 19.9719 12.1583 19.9719 12.3536 19.7766L14.74 17.3901C14.9353 17.1949 14.9353 16.8783 14.74 16.683C14.5448 16.4877 14.2282 16.4877 14.0329 16.683L12.4989 18.217Z" fill="black"/>
</svg>