<svg viewBox="0 0 24 24" fill="none" xmlns="http://www.w3.org/2000/svg" width="24" height="24">
<path d="M17.5249 9.1318L19.9113 11.5183C20.1749 11.7819 20.1749 12.209 19.9113 12.4726L17.5249 14.8591C17.3319 15.0521 17.0416 15.1105 16.7894 15.0062C16.5372 14.9017 16.3724 14.6549 16.3724 14.3819V12.6718L15.0085 12.6718C14.6358 12.6717 14.3339 12.3685 14.3339 11.9958C14.3342 11.6233 14.636 11.3212 15.0085 11.3211H16.3724V9.60896C16.3724 9.33595 16.5372 9.0892 16.7894 8.98472C17.0416 8.88039 17.3319 8.93882 17.5249 9.1318Z" fill="black"/>
<path d="M4.10395 11.5188C3.84035 11.7824 3.84035 12.2095 4.10395 12.4731L6.49044 14.8596C6.68342 15.0525 6.97369 15.111 7.22586 15.0066C7.47809 14.9022 7.64294 14.6554 7.64294 14.3824V12.6702L9.00676 12.6702C9.37929 12.6701 9.68114 12.3681 9.68141 11.9956C9.68144 11.6228 9.37949 11.3197 9.00676 11.3196H7.64294L7.64294 9.60943C7.64294 9.33642 7.47809 9.08966 7.22586 8.98519C6.97369 8.88086 6.68342 8.93929 6.49044 9.13227L4.10395 11.5188Z" fill="black"/>
<path d="M12.754 10.4957C13.1682 10.4957 13.504 10.8315 13.504 11.2457V12.7457C13.504 13.1599 13.1682 13.4957 12.754 13.4957H11.254C10.8398 13.4957 10.504 13.1599 10.504 12.7457V11.2457C10.504 10.8315 10.8398 10.4957 11.254 10.4957H12.754Z" fill="black"/>
</svg>