<svg viewBox="0 0 24 24" fill="none" xmlns="http://www.w3.org/2000/svg" width="24" height="24">
<path d="M14.1958 14.0246C13.823 14.0246 13.521 13.7226 13.521 13.3498C13.521 12.977 13.823 12.675 14.1958 12.675H17.2358C17.6086 12.675 17.9106 12.977 17.9106 13.3498C17.9106 13.7226 17.6086 14.0246 17.2358 14.0246H14.1958Z" fill="black"/>
<path d="M14.1958 11.3244C13.823 11.3244 13.521 11.0224 13.521 10.6496C13.521 10.2768 13.823 9.97483 14.1958 9.9748L17.2358 9.9748C17.6086 9.9748 17.9106 10.2768 17.9106 10.6496C17.9106 11.0224 17.6086 11.3244 17.2358 11.3244L14.1958 11.3244Z" fill="black"/>
<path d="M6.76854 14.0246C6.39576 14.0246 6.09373 13.7226 6.09373 13.3498C6.09373 12.977 6.39576 12.675 6.76854 12.675H9.80858C10.1814 12.675 10.4834 12.977 10.4834 13.3498C10.4834 13.7226 10.1814 14.0246 9.80858 14.0246H6.76854Z" fill="black"/>
<path d="M6.76854 11.3244C6.39576 11.3244 6.09373 11.0224 6.09373 10.6496C6.09373 10.2768 6.39576 9.97483 6.76854 9.9748L9.80858 9.9748C10.1814 9.9748 10.4834 10.2768 10.4834 10.6496C10.4834 11.0224 10.1814 11.3244 9.80858 11.3244L6.76854 11.3244Z" fill="black"/>
<path d="M12.6748 19.3701C12.6748 19.7429 12.3728 20.0459 12 20.0459C11.6272 20.0459 11.3252 19.7429 11.3252 19.3701L11.3252 4.52051C11.3252 4.14772 11.6272 3.8457 12 3.8457C12.3728 3.8457 12.6748 4.14772 12.6748 4.52051V19.3701Z" fill="black"/>
<path d="M5.25195 16.9033C5.25174 17.2759 4.94981 17.5781 4.57715 17.5781C4.20449 17.5781 3.90256 17.2759 3.90234 16.9033L3.90234 7.00293C3.90234 6.63014 4.20436 6.32812 4.57715 6.32812C4.94994 6.32813 5.25195 6.63014 5.25195 7.00293L5.25195 16.9033Z" fill="black"/>
<path d="M20.1064 16.8955C20.1062 17.2681 19.8043 17.5703 19.4316 17.5703C19.059 17.5703 18.757 17.2681 18.7568 16.8955V6.99512C18.7568 6.62232 19.0588 6.32031 19.4316 6.32031C19.8044 6.32031 20.1064 6.62232 20.1064 6.99512V16.8955Z" fill="black"/>
</svg>