<svg viewBox="0 0 24 24" fill="none" xmlns="http://www.w3.org/2000/svg" width="24" height="24">
<path d="M13.5247 14.119C13.8975 14.119 14.1995 14.421 14.1995 14.7938C14.1995 15.1666 13.8975 15.4686 13.5247 15.4686H10.4846C10.1118 15.4686 9.80983 15.1666 9.80983 14.7938C9.80983 14.421 10.1118 14.119 10.4846 14.119H13.5247Z" fill="black"/>
<path d="M13.5247 16.8192C13.8975 16.8192 14.1995 17.1212 14.1995 17.494C14.1995 17.8668 13.8975 18.1688 13.5247 18.1688H10.4846C10.1118 18.1688 9.80983 17.8668 9.80983 17.494C9.80983 17.1212 10.1118 16.8192 10.4846 16.8192H13.5247Z" fill="black"/>
<path d="M13.4705 6.69176C13.8432 6.69179 14.1453 6.99379 14.1453 7.36657C14.1453 7.73935 13.8432 8.04135 13.4705 8.04137H10.4304C10.0576 8.04137 9.75562 7.73936 9.75562 7.36657C9.75562 6.99378 10.0576 6.69176 10.4304 6.69176H13.4705Z" fill="black"/>
<path d="M13.4705 9.39196C13.8432 9.39198 14.1453 9.69399 14.1453 10.0668C14.1453 10.4395 13.8432 10.7415 13.4705 10.7416H10.4304C10.0576 10.7416 9.75562 10.4396 9.75562 10.0668C9.75562 9.69397 10.0576 9.39196 10.4304 9.39196H13.4705Z" fill="black"/>
<path d="M4.58008 13.1025C4.20729 13.1025 3.9043 12.8005 3.9043 12.4277C3.9043 12.0549 4.20729 11.7529 4.58008 11.7529L19.4297 11.7529C19.8025 11.7529 20.1045 12.0549 20.1045 12.4277C20.1045 12.8005 19.8025 13.1025 19.4297 13.1025L4.58008 13.1025Z" fill="black"/>
<path d="M7.04688 5.67969C6.67426 5.67948 6.37207 5.37754 6.37207 5.00488C6.37207 4.63222 6.67426 4.33029 7.04688 4.33008L16.9473 4.33008C17.3201 4.33008 17.6221 4.63209 17.6221 5.00488C17.6221 5.37768 17.3201 5.67969 16.9473 5.67969L7.04688 5.67969Z" fill="black"/>
<path d="M7.05469 20.5342C6.68208 20.534 6.37988 20.232 6.37988 19.8594C6.37988 19.4867 6.68208 19.1848 7.05469 19.1846H16.9551C17.3279 19.1846 17.6299 19.4866 17.6299 19.8594C17.6299 20.2322 17.3279 20.5342 16.9551 20.5342H7.05469Z" fill="black"/>
</svg>