<svg viewBox="0 0 24 24" fill="none" xmlns="http://www.w3.org/2000/svg" width="24" height="24">
<path d="M6.60293 9.25577C6.79818 9.06089 7.11481 9.06074 7.30996 9.25577C7.50522 9.45103 7.50522 9.76851 7.30996 9.96378L5.77774 11.495H8.99551C9.27139 11.4952 9.49531 11.7192 9.49551 11.995C9.49549 12.2711 9.27149 12.4949 8.99551 12.495H5.77578L7.30996 14.0292C7.50507 14.2244 7.50507 14.541 7.30996 14.7362C7.11474 14.9315 6.7982 14.9314 6.60293 14.7362L4.21621 12.3495C4.02107 12.1542 4.02099 11.8377 4.21621 11.6425L6.60293 9.25577ZM16.683 9.25577C16.8783 9.06061 17.1948 9.06054 17.39 9.25577L19.7768 11.6425C19.9716 11.8377 19.9718 12.1544 19.7768 12.3495L17.39 14.7362C17.1949 14.9313 16.8783 14.9311 16.683 14.7362C16.4877 14.541 16.4877 14.2235 16.683 14.0282L18.2152 12.497H14.9975C14.7215 12.497 14.4977 12.2729 14.4975 11.997C14.4975 11.7208 14.7213 11.497 14.9975 11.497H18.2172L16.683 9.9628C16.4877 9.76754 16.4877 9.45103 16.683 9.25577ZM12.9926 11.246C12.9926 11.1079 12.8807 10.996 12.7426 10.996H11.2426C11.1045 10.996 10.9926 11.1079 10.9926 11.246V12.746L10.9975 12.7968C11.0209 12.9105 11.1219 12.996 11.2426 12.996H12.7426C12.8807 12.996 12.9926 12.8841 12.9926 12.746V11.246ZM13.9926 12.746C13.9926 13.4364 13.4329 13.996 12.7426 13.996H11.2426C10.5522 13.996 9.99258 13.4364 9.99258 12.746V11.246C9.99258 10.5557 10.5522 9.99601 11.2426 9.996H12.7426C13.4329 9.996 13.9926 10.5556 13.9926 11.246V12.746Z" fill="black"/>
</svg>