<svg xmlns="http://www.w3.org/2000/svg" fill="currentColor" viewBox="0 0 24 24" width="24" height="24"><path d="M10.819 7.95A1.181 1.181 0 1 1 12 9.131a1.18 1.18 0 0 1-1.181-1.181m-4.05 0a5.231 5.231 0 0 1 10.462 0c0 4.962-4.776 7.748-4.978 7.865a.5.5 0 0 1-.506 0c-.202-.116-4.978-2.902-4.978-7.865m1.013 0c0 3.756 3.275 6.201 4.219 6.827.943-.626 4.219-3.07 4.219-6.827a4.219 4.219 0 0 0-8.438 0m10.469 5.865a.506.506 0 1 0-.351.949c1.483.548 2.369 1.281 2.369 1.961 0 1.357-3.396 2.869-8.269 2.869s-8.269-1.512-8.269-2.869c0-.68.886-1.413 2.369-1.961a.506.506 0 1 0-.351-.949c-1.954.721-3.031 1.755-3.031 2.91 0 1.126 1.028 2.141 2.895 2.859 1.714.66 3.982 1.023 6.386 1.023s4.673-.363 6.386-1.023c1.867-.717 2.895-1.733 2.895-2.859 0-1.155-1.077-2.189-3.031-2.91z"/></svg>