<svg xmlns="http://www.w3.org/2000/svg" fill="currentColor" viewBox="0 0 24 24" width="24" height="24"><path d="M12 3.225a6.75 6.75 0 0 0-6.75 6.75c0 6.075 6.75 10.8 6.75 10.8s6.75-4.725 6.75-10.8A6.75 6.75 0 0 0 12 3.225m0 9.45a2.7 2.7 0 1 1 2.7-2.7 2.7 2.7 0 0 1-2.7 2.7" opacity=".2"/><path d="M12 6.6a3.375 3.375 0 1 0 3.375 3.375A3.375 3.375 0 0 0 12 6.6m0 5.4a2.025 2.025 0 1 1 2.025-2.025A2.025 2.025 0 0 1 12 12m0-9.45a7.433 7.433 0 0 0-7.425 7.425c0 2.649 1.224 5.457 3.544 8.121a21.5 21.5 0 0 0 3.497 3.232.675.675 0 0 0 .775 0 21.5 21.5 0 0 0 3.491-3.232c2.316-2.664 3.544-5.472 3.544-8.121a7.433 7.433 0 0 0-7.425-7.425zm0 17.381c-1.395-1.097-6.075-5.126-6.075-9.956a6.075 6.075 0 0 1 12.15 0c0 4.829-4.68 8.859-6.075 9.956"/></svg>