<svg xmlns="http://www.w3.org/2000/svg" fill="currentColor" viewBox="0 0 24 24" width="24" height="24"><path d="M16.725 7.95c0 4.725-4.725 7.425-4.725 7.425s-4.725-2.7-4.725-7.425a4.725 4.725 0 0 1 9.45 0" opacity=".2"/><path d="M10.65 7.95A1.35 1.35 0 1 1 12 9.3a1.35 1.35 0 0 1-1.35-1.35m-4.05 0a5.4 5.4 0 0 1 10.8 0c0 5.058-4.858 7.892-5.063 8.011a.68.68 0 0 1-.67 0c-.209-.119-5.068-2.949-5.068-8.011zm1.35 0c0 3.561 3.024 5.924 4.05 6.623 1.025-.699 4.05-3.063 4.05-6.623a4.05 4.05 0 0 0-8.1 0m10.359 5.706a.675.675 0 0 0-.467 1.266c1.393.516 2.259 1.206 2.259 1.803 0 1.127-3.081 2.7-8.1 2.7s-8.1-1.573-8.1-2.7c0-.597.866-1.288 2.259-1.802a.675.675 0 0 0-.467-1.266c-2.026.747-3.141 1.837-3.141 3.068 0 2.631 4.869 4.05 9.45 4.05s9.45-1.419 9.45-4.05c0-1.231-1.115-2.321-3.141-3.069z"/></svg>