<svg viewBox="0 0 24 24" fill="none" xmlns="http://www.w3.org/2000/svg" width="24" height="24">
<path d="M18.4932 11.7246C18.6212 11.9187 18.5995 12.1827 18.4287 12.3535L15.7285 15.0537C15.5333 15.2486 15.2167 15.2488 15.0215 15.0537C14.8263 14.8585 14.8265 14.542 15.0215 14.3467L17.3682 12L15.0215 9.65332C14.8264 9.45808 14.8264 9.14153 15.0215 8.94629C15.2167 8.75106 15.5332 8.75112 15.7285 8.94629L18.4287 11.6465L18.4932 11.7246Z" fill="black"/>
<path d="M5.9248 11.5L18.0752 11.5C18.3513 11.5 18.5752 11.7239 18.5752 12C18.5752 12.2761 18.3513 12.5 18.0752 12.5L5.9248 12.5C5.64873 12.4999 5.4248 12.2761 5.4248 12C5.4248 11.7239 5.64873 11.5001 5.9248 11.5Z" fill="black"/>
<path d="M20 18.5L20 5.50005C20 5.22391 20.2239 5.00005 20.5 5.00005C20.7761 5.00005 21 5.22391 21 5.50005L21 18.5C21 18.7762 20.7761 19 20.5 19C20.2239 19 20 18.7762 20 18.5Z" fill="black"/>
<path d="M2.98438 18.5L2.98438 5.5C2.98437 5.22386 3.20823 5 3.48437 5C3.76052 5 3.98437 5.22386 3.98438 5.5L3.98438 18.5C3.98438 18.7761 3.76052 19 3.48438 19C3.20823 19 2.98438 18.7761 2.98438 18.5Z" fill="black"/>
<path d="M8.97852 14.3467C9.17358 14.542 9.17371 14.8585 8.97852 15.0537C8.7833 15.2487 8.4667 15.2487 8.27148 15.0537L5.57129 12.3535C5.37609 12.1583 5.37622 11.8418 5.57129 11.6465L8.27148 8.94629C8.46675 8.75103 8.78325 8.75103 8.97852 8.94629C9.17378 9.14155 9.17378 9.45806 8.97852 9.65332L6.63184 12L8.97852 14.3467Z" fill="black"/>
<path d="M3.32812 10.0498C3.32812 9.63559 3.66391 9.2998 4.07812 9.2998L19.9219 9.2998C20.3361 9.2998 20.6719 9.63559 20.6719 10.0498V13.9497C20.6719 14.3639 20.3361 14.6997 19.9219 14.6997H4.07812C3.66391 14.6997 3.32812 14.3639 3.32812 13.9497L3.32812 10.0498Z" fill="black" fill-opacity="0.2"/>
</svg>