<svg viewBox="0 0 24 24" fill="none" xmlns="http://www.w3.org/2000/svg" width="24" height="24">
<path fill-rule="evenodd" clip-rule="evenodd" d="M19.3501 3.90039C19.7642 3.9005 20.1001 4.23624 20.1001 4.65039V19.3506C20.1 19.7646 19.7642 20.1005 19.3501 20.1006H4.6499C4.23575 20.1006 3.90001 19.7647 3.8999 19.3506V4.65039C3.8999 4.23618 4.23569 3.90039 4.6499 3.90039H19.3501ZM7.39307 17.5908C7.02027 17.5908 6.71826 17.8928 6.71826 18.2656C6.71847 18.6382 7.0204 18.9404 7.39307 18.9404H16.6069C16.9795 18.9403 17.2815 18.6382 17.2817 18.2656C17.2817 17.8929 16.9796 17.5909 16.6069 17.5908H7.39307ZM11.978 7.5C11.9512 7.5009 11.9245 7.50374 11.8979 7.50781C11.887 7.50949 11.8755 7.50956 11.8647 7.51172L11.8394 7.51758C11.8135 7.52392 11.7883 7.53353 11.7632 7.54297C11.7538 7.54652 11.7431 7.54786 11.7339 7.55176C11.6978 7.56726 11.6629 7.58728 11.6294 7.60938L11.6235 7.61328C11.5877 7.63749 11.5535 7.66483 11.5229 7.69531L9.60986 9.60938C9.34659 9.87288 9.34668 10.2999 9.60986 10.5635C9.87349 10.8268 10.3014 10.827 10.5649 10.5635L11.3257 9.80176V14.1973L10.5649 13.4365C10.3014 13.1731 9.87347 13.1733 9.60986 13.4365C9.34628 13.7001 9.34633 14.128 9.60986 14.3916L11.5181 16.2988C11.5508 16.3323 11.5874 16.3616 11.6265 16.3877C11.6374 16.395 11.6494 16.4006 11.6606 16.4072C11.6879 16.4232 11.7152 16.4391 11.7446 16.4512C11.7519 16.4541 11.7598 16.4553 11.7671 16.458C11.8003 16.4703 11.8342 16.4813 11.8696 16.4883C11.9557 16.5052 12.0442 16.5051 12.1304 16.4883C12.1658 16.4813 12.1997 16.4702 12.2329 16.458C12.2402 16.4554 12.2482 16.4541 12.2554 16.4512C12.2848 16.4391 12.3122 16.4231 12.3394 16.4072C12.3506 16.4007 12.3626 16.395 12.3735 16.3877C12.4106 16.363 12.4466 16.3361 12.478 16.3047L14.3921 14.3916C14.6552 14.1281 14.6551 13.7001 14.3921 13.4365C14.1286 13.1732 13.7006 13.1733 13.437 13.4365L12.6753 14.1982V9.80176L13.437 10.5635C13.7006 10.8268 14.1286 10.827 14.3921 10.5635C14.6548 10.2999 14.655 9.87276 14.3921 9.60938L12.478 7.69531C12.4472 7.66453 12.4132 7.63784 12.3784 7.61426C12.3729 7.61051 12.3665 7.60808 12.3608 7.60449C12.3326 7.58655 12.304 7.56997 12.2739 7.55664C12.2578 7.54947 12.2409 7.544 12.2241 7.53809C12.2013 7.53006 12.1782 7.52307 12.1548 7.51758C12.1391 7.5139 12.123 7.51135 12.1069 7.50879C12.08 7.50451 12.053 7.50102 12.0259 7.5C12.0175 7.49969 12.0089 7.49807 12.0005 7.49805C11.9931 7.49805 11.9854 7.49973 11.978 7.5ZM7.39307 5.06055C7.02034 5.06055 6.71837 5.36265 6.71826 5.73535C6.71826 6.10814 7.02027 6.41016 7.39307 6.41016H16.6069C16.9796 6.41005 17.2817 6.10808 17.2817 5.73535C17.2816 5.36272 16.9796 5.06066 16.6069 5.06055H7.39307Z" fill="black"/>
</svg>