<svg viewBox="0 0 24 24" fill="none" xmlns="http://www.w3.org/2000/svg" width="24" height="24">
<path fill-rule="evenodd" clip-rule="evenodd" d="M20.1001 19.3506C20.1 19.7647 19.7642 20.1006 19.3501 20.1006H4.6499C4.23584 20.1005 3.90001 19.7646 3.8999 19.3506V4.65039C3.8999 4.23624 4.23578 3.9005 4.6499 3.90039H19.3501C19.7643 3.90039 20.1001 4.23618 20.1001 4.65039V19.3506ZM6.40967 7.39355C6.40967 7.02076 6.10766 6.71875 5.73486 6.71875C5.36225 6.71896 5.06006 7.02089 5.06006 7.39355V16.6074C5.06017 16.98 5.36232 17.282 5.73486 17.2822C6.10759 17.2822 6.40956 16.9801 6.40967 16.6074V7.39355ZM16.5005 11.9775C16.4996 11.9511 16.4967 11.9246 16.4927 11.8984C16.4902 11.8824 16.4884 11.8662 16.4849 11.8506C16.479 11.8251 16.4702 11.8002 16.4614 11.7754C16.4564 11.7612 16.4537 11.7461 16.4478 11.7324C16.4323 11.6967 16.413 11.6621 16.3911 11.6289L16.3872 11.623C16.3631 11.5873 16.3356 11.5539 16.3052 11.5234L14.3911 9.60938C14.1277 9.34619 13.7006 9.34646 13.437 9.60938C13.1734 9.87298 13.1734 10.3009 13.437 10.5645L14.1987 11.3252H9.80322L10.564 10.5645C10.8272 10.3008 10.8274 9.87287 10.564 9.60938C10.3005 9.34606 9.87246 9.34617 9.60889 9.60938L7.6958 11.5234C7.66481 11.5545 7.63729 11.5894 7.61279 11.626C7.6066 11.6352 7.60184 11.6458 7.59619 11.6553C7.55682 11.721 7.52737 11.7933 7.51221 11.8711C7.49555 11.9566 7.49557 12.0444 7.51221 12.1299C7.51951 12.1674 7.5312 12.2033 7.54443 12.2383C7.54634 12.2433 7.5473 12.2489 7.54932 12.2539C7.56132 12.2834 7.57737 12.3106 7.59326 12.3379C7.60013 12.3497 7.60516 12.3626 7.61279 12.374C7.63747 12.411 7.6645 12.4462 7.6958 12.4775L9.60889 14.3916C9.87242 14.6551 10.3004 14.655 10.564 14.3916C10.8272 14.128 10.8274 13.7 10.564 13.4365L9.80225 12.6748H14.1987L13.437 13.4365C13.1734 13.7001 13.1734 14.128 13.437 14.3916C13.7006 14.6549 14.1276 14.6549 14.3911 14.3916L16.3052 12.4775C16.3357 12.4469 16.3628 12.4134 16.3862 12.3789C16.3904 12.3727 16.394 12.3657 16.3979 12.3594C16.4154 12.3317 16.4308 12.3028 16.4438 12.2734C16.4506 12.258 16.4558 12.2416 16.4614 12.2256C16.4696 12.2025 16.4773 12.179 16.4829 12.1553C16.4867 12.1393 16.4901 12.1228 16.4927 12.1064C16.4969 12.0796 16.4995 12.0524 16.5005 12.0254C16.5008 12.0172 16.5024 12.0083 16.5024 12C16.5024 11.9926 16.5007 11.9849 16.5005 11.9775ZM18.9399 7.39355C18.9399 7.02083 18.6378 6.71886 18.2651 6.71875C17.8923 6.71875 17.5903 7.02076 17.5903 7.39355V16.6074C17.5904 16.9801 17.8924 17.2822 18.2651 17.2822C18.6378 17.2821 18.9398 16.9801 18.9399 16.6074V7.39355Z" fill="black"/>
</svg>