<svg viewBox="0 0 24 24" fill="none" xmlns="http://www.w3.org/2000/svg" width="24" height="24">
<path d="M11.7248 5.50691C11.9188 5.37884 12.1828 5.40054 12.3537 5.57136L15.0539 8.27155C15.2488 8.46681 15.2489 8.78341 15.0539 8.97859C14.8587 9.17375 14.5421 9.17356 14.3468 8.97859L12.0001 6.63191L9.65347 8.97859C9.45823 9.17372 9.14167 9.17372 8.94644 8.97859C8.75121 8.78336 8.75127 8.46682 8.94644 8.27155L11.6466 5.57136L11.7248 5.50691Z" fill="black"/>
<path d="M11.4999 18.0753L11.4999 5.92488C11.4999 5.64873 11.7238 5.42488 11.9999 5.42488C12.276 5.42488 12.4999 5.64873 12.4999 5.92488L12.4999 18.0753C12.4998 18.3513 12.276 18.5753 11.9999 18.5753C11.7238 18.5753 11.5 18.3513 11.4999 18.0753Z" fill="black"/>
<path d="M18.5 4L5.5 4C5.22386 4 5 3.77614 5 3.5C5 3.22386 5.22386 3 5.5 3L18.5 3C18.7761 3 19 3.22386 19 3.5C19 3.77614 18.7761 4 18.5 4Z" fill="black"/>
<path d="M18.5 21.0156L5.5 21.0156C5.22386 21.0156 5 20.7918 5 20.5156C5 20.2395 5.22386 20.0156 5.5 20.0156L18.5 20.0156C18.7761 20.0156 19 20.2395 19 20.5156C19 20.7918 18.7761 21.0156 18.5 21.0156Z" fill="black"/>
<path d="M14.3468 15.0216C14.5421 14.8265 14.8587 14.8264 15.0539 15.0216C15.2489 15.2168 15.2489 15.5334 15.0539 15.7286L12.3537 18.4288C12.1585 18.624 11.8419 18.6238 11.6466 18.4288L8.94644 15.7286C8.75117 15.5333 8.75117 15.2168 8.94644 15.0216C9.1417 14.8263 9.45821 14.8263 9.65347 15.0216L12.0001 17.3682L14.3468 15.0216Z" fill="black"/>
<path d="M10.05 20.6719C9.63584 20.6719 9.30005 20.3361 9.30005 19.9219L9.30005 4.07812C9.30005 3.66391 9.63584 3.32812 10.05 3.32812H13.95C14.3642 3.32812 14.7 3.66391 14.7 4.07812V19.9219C14.7 20.3361 14.3642 20.6719 13.95 20.6719H10.05Z" fill="black" fill-opacity="0.2"/>
</svg>