<svg xmlns="http://www.w3.org/2000/svg" width="24" height="24" fill="currentColor" viewBox="0 0 24 24"><path d="M18.75 5.25H5.25A1.35 1.35 0 0 0 3.9 6.6v9.45a1.35 1.35 0 0 0 1.35 1.35h13.5a1.35 1.35 0 0 0 1.35-1.35V6.6a1.35 1.35 0 0 0-1.35-1.35m-8.1 8.775v-5.4l4.05 2.7z" opacity=".2"/><path d="M18.75 4.575H5.25A2.025 2.025 0 0 0 3.225 6.6v9.45a2.025 2.025 0 0 0 2.025 2.025h13.5a2.025 2.025 0 0 0 2.025-2.025V6.6a2.025 2.025 0 0 0-2.025-2.025m.675 11.475a.675.675 0 0 1-.675.675H5.25a.675.675 0 0 1-.675-.675V6.6a.675.675 0 0 1 .675-.675h13.5a.675.675 0 0 1 .675.675zm-4.05 4.05a.675.675 0 0 1-.675.675H9.3a.675.675 0 0 1 0-1.35h5.4a.675.675 0 0 1 .675.675m-.3-9.337-4.05-2.7a.675.675 0 0 0-1.05.562v5.4a.675.675 0 0 0 1.05.562l4.05-2.7a.675.675 0 0 0 0-1.124m-3.75 2.001V9.891l2.158 1.434z"/></svg>