<svg xmlns="http://www.w3.org/2000/svg" fill="currentColor" viewBox="0 0 24 24" width="24" height="24"><path d="M20.775 6.094H3.225a1.18 1.18 0 0 0-1.181 1.181v10.8a.507.507 0 0 0 1.013 0v-1.519h1.688v1.519a.507.507 0 0 0 1.013 0v-1.519h1.688v1.519a.507.507 0 0 0 1.013 0v-1.519h1.688v1.519a.506.506 0 0 0 1.012 0v-1.519h1.688v1.519a.506.506 0 0 0 1.012 0v-1.519h1.688v1.519a.506.506 0 0 0 1.012 0v-1.519h1.688v1.519a.506.506 0 0 0 1.012 0v-1.519h1.688v1.519a.506.506 0 0 0 1.012 0v-10.8a1.18 1.18 0 0 0-1.181-1.181zM3.056 7.275a.17.17 0 0 1 .169-.169h17.55a.17.17 0 0 1 .169.169v8.269H3.056zm7.594 6.581a.506.506 0 0 0 .506-.506V9.3a.506.506 0 0 0-.506-.506h-5.4a.506.506 0 0 0-.506.506v4.05a.506.506 0 0 0 .506.506zm-4.894-4.05h4.388v3.037H5.756zm7.594 4.05h5.4a.506.506 0 0 0 .506-.506V9.3a.506.506 0 0 0-.506-.506h-5.4a.506.506 0 0 0-.506.506v4.05a.506.506 0 0 0 .506.506m.506-4.05h4.388v3.037h-4.388z"/></svg>