<svg xmlns="http://www.w3.org/2000/svg" width="24" height="24" fill="currentColor" viewBox="0 0 24 24"><path d="M20.775 5.925v12.15a1.35 1.35 0 0 1-1.35 1.35H4.575a1.35 1.35 0 0 1-1.35-1.35V5.925a1.35 1.35 0 0 1 1.35-1.35h14.85a1.35 1.35 0 0 1 1.35 1.35" opacity=".2"/><path d="M18.075 12.675a.675.675 0 0 1-.675.675H6.6a.675.675 0 0 1 0-1.35h10.8a.675.675 0 0 1 .675.675m2.7-4.725H3.225a.675.675 0 0 0 0 1.35h17.55a.675.675 0 0 0 0-1.35m-6.75 8.1h-4.05a.675.675 0 0 0 0 1.35h4.05a.675.675 0 0 0 0-1.35"/></svg>