<svg xmlns="http://www.w3.org/2000/svg" width="24" height="24" fill="currentColor" viewBox="0 0 24 24"><path d="M19.931 12a.506.506 0 0 1-.506.506H4.575a.507.507 0 0 1 0-1.013h14.85a.506.506 0 0 1 .506.506zm-8.289-2.342a.506.506 0 0 0 .716 0l2.7-2.7a.506.506 0 0 0-.716-.716l-1.836 1.835V2.55a.507.507 0 0 0-1.013 0v5.527L9.657 6.242a.506.506 0 0 0-.716.716zm.716 4.684a.506.506 0 0 0-.716 0l-2.7 2.7a.506.506 0 0 0 .715.715l1.836-1.835v5.527a.507.507 0 0 0 1.013 0v-5.527l1.836 1.835a.506.506 0 0 0 .716-.716z"/></svg>