<svg xmlns="http://www.w3.org/2000/svg" width="24" height="24" fill="currentColor" viewBox="0 0 24 24"><path d="M19.425 3.9v16.2a1.35 1.35 0 0 1-1.35 1.35H5.925a1.35 1.35 0 0 1-1.35-1.35V3.9a1.35 1.35 0 0 1 1.35-1.35h12.15a1.35 1.35 0 0 1 1.35 1.35" opacity=".2"/><path d="M20.1 12a.675.675 0 0 1-.675.675H4.575a.675.675 0 0 1 0-1.35h14.85A.675.675 0 0 1 20.1 12m-8.578-2.222a.675.675 0 0 0 .955 0l2.7-2.7a.675.675 0 0 0-.955-.955l-1.547 1.548V2.55a.675.675 0 0 0-1.35 0v5.121L9.778 6.123a.675.675 0 0 0-.955.955zm.955 4.445a.675.675 0 0 0-.955 0l-2.7 2.7a.675.675 0 0 0 .955.955l1.547-1.548v5.121a.675.675 0 0 0 1.35 0V16.33l1.547 1.548a.675.675 0 0 0 .955-.955z"/></svg>