<svg viewBox="0 0 24 24" fill="none" xmlns="http://www.w3.org/2000/svg" width="24" height="24">
<path d="M11.3315 4.57617C11.3315 4.20338 11.6335 3.90039 12.0063 3.90039C12.3791 3.90039 12.6811 4.20338 12.6811 4.57617L12.6811 19.4258C12.6811 19.7986 12.3791 20.1006 12.0063 20.1006C11.6335 20.1006 11.3315 19.7986 11.3315 19.4258L11.3315 4.57617Z" fill="black"/>
<path d="M5.08398 6.50859C5.08398 6.09438 5.41977 5.75859 5.83398 5.75859H8.72705C9.14126 5.75859 9.47705 6.09438 9.47705 6.50859V17.4959C9.47705 17.9101 9.14126 18.2459 8.72705 18.2459H5.83398C5.41977 18.2459 5.08398 17.9101 5.08398 17.4959V6.50859Z" fill="black"/>
<path d="M8.80176 6.50859C8.80176 6.46733 8.76874 6.43366 8.72754 6.4334H5.83398C5.79256 6.4334 5.75879 6.46717 5.75879 6.50859V17.4959C5.75879 17.5373 5.79256 17.5711 5.83398 17.5711H8.72754C8.76874 17.5708 8.80176 17.5372 8.80176 17.4959V6.50859ZM10.1523 17.4959C10.1523 18.2827 9.51432 18.9204 8.72754 18.9207H5.83398C5.04698 18.9207 4.40918 18.2829 4.40918 17.4959V6.50859C4.40918 5.72159 5.04698 5.08379 5.83398 5.08379H8.72754C9.51432 5.08405 10.1523 5.72175 10.1523 6.50859V17.4959Z" fill="black"/>
<path d="M14.5386 6.50566C14.5386 6.09145 14.8744 5.75566 15.2886 5.75566H18.1816C18.5959 5.75566 18.9316 6.09145 18.9316 6.50566V17.493C18.9316 17.9072 18.5959 18.243 18.1816 18.243H15.2886C14.8744 18.243 14.5386 17.9072 14.5386 17.493V6.50566Z" fill="black"/>
<path d="M18.2563 6.50566C18.2563 6.4644 18.2233 6.43073 18.1821 6.43047H15.2886C15.2472 6.43047 15.2134 6.46424 15.2134 6.50566V17.493C15.2134 17.5344 15.2472 17.5682 15.2886 17.5682H18.1821C18.2233 17.5679 18.2563 17.5342 18.2563 17.493V6.50566ZM19.6069 17.493C19.6069 18.2798 18.9689 18.9175 18.1821 18.9178H15.2886C14.5016 18.9178 13.8638 18.28 13.8638 17.493V6.50566C13.8638 5.71866 14.5016 5.08086 15.2886 5.08086H18.1821C18.9689 5.08112 19.6069 5.71882 19.6069 6.50566V17.493Z" fill="black"/>
</svg>