<svg viewBox="0 0 24 24" fill="none" xmlns="http://www.w3.org/2000/svg" width="24" height="24">
<path opacity="0.2" d="M17.4001 5.9248H6.6001V18.0748H17.4001V5.9248Z" fill="black"/>
<path d="M16.8999 4.57422C16.8997 4.10502 16.5195 3.72471 16.0503 3.72461H7.94971C7.48057 3.72482 7.10031 4.10509 7.1001 4.57422V19.4248C7.1002 19.894 7.48051 20.2742 7.94971 20.2744H16.0503C16.5196 20.2743 16.8998 19.8941 16.8999 19.4248V4.57422ZM17.8999 19.4248C17.8998 20.4464 17.0719 21.2743 16.0503 21.2744H7.94971C6.92823 21.2742 6.1002 20.4463 6.1001 19.4248V4.57422C6.10031 3.5528 6.92829 2.72482 7.94971 2.72461H16.0503C17.0718 2.72472 17.8997 3.55274 17.8999 4.57422V19.4248Z" fill="black"/>
<path d="M17.3999 5.4248C17.676 5.4248 17.8999 5.64866 17.8999 5.9248C17.8999 6.20095 17.676 6.4248 17.3999 6.4248H6.6001C6.32396 6.4248 6.1001 6.20095 6.1001 5.9248C6.1001 5.64866 6.32396 5.4248 6.6001 5.4248H17.3999Z" fill="black"/>
<path d="M17.3999 17.5752C17.676 17.5752 17.8999 17.7991 17.8999 18.0752C17.8999 18.3513 17.676 18.5752 17.3999 18.5752H6.6001C6.32396 18.5752 6.1001 18.3513 6.1001 18.0752C6.1001 17.7991 6.32396 17.5752 6.6001 17.5752H17.3999Z" fill="black"/>
<path d="M3.38965 15.374V8.62402C3.38965 8.34788 3.61351 8.12402 3.88965 8.12402C4.16579 8.12402 4.38965 8.34788 4.38965 8.62402V15.374C4.38965 15.6502 4.16579 15.874 3.88965 15.874C3.61351 15.874 3.38965 15.6502 3.38965 15.374Z" fill="black"/>
<path d="M0.689453 14.0234V9.97363C0.689453 9.69749 0.913311 9.47363 1.18945 9.47363C1.4656 9.47363 1.68945 9.69749 1.68945 9.97363V14.0234C1.68945 14.2996 1.4656 14.5234 1.18945 14.5234C0.913311 14.5234 0.689453 14.2996 0.689453 14.0234Z" fill="black"/>
<path d="M20.6001 8.62598V15.376C20.6001 15.6521 20.3762 15.876 20.1001 15.876C19.824 15.876 19.6001 15.6521 19.6001 15.376V8.62598C19.6001 8.34983 19.824 8.12598 20.1001 8.12598C20.3762 8.12598 20.6001 8.34983 20.6001 8.62598Z" fill="black"/>
<path d="M23.3003 9.97656V14.0264C23.3003 14.3025 23.0764 14.5264 22.8003 14.5264C22.5242 14.5264 22.3003 14.3025 22.3003 14.0264V9.97656C22.3003 9.70042 22.5242 9.47656 22.8003 9.47656C23.0764 9.47656 23.3003 9.70042 23.3003 9.97656Z" fill="black"/>
</svg>