<svg xmlns="http://www.w3.org/2000/svg" width="24" height="24" fill="currentColor" viewBox="0 0 24 24"><path d="M17.4 5.925v12.15H6.6V5.925z" opacity=".2"/><path d="M16.05 2.55h-8.1a2.025 2.025 0 0 0-2.025 2.025v14.85A2.025 2.025 0 0 0 7.95 21.45h8.1a2.025 2.025 0 0 0 2.025-2.025V4.575A2.025 2.025 0 0 0 16.05 2.55M7.275 6.6h9.45v10.8h-9.45zm.675-2.7h8.1a.675.675 0 0 1 .675.675v.675h-9.45v-.675A.675.675 0 0 1 7.95 3.9m8.1 16.2h-8.1a.675.675 0 0 1-.675-.675v-.675h9.45v.675a.675.675 0 0 1-.675.675"/></svg>