<svg xmlns="http://www.w3.org/2000/svg" width="24" height="24" fill="currentColor" viewBox="0 0 24 24"><path d="M12 3.394A8.606 8.606 0 1 0 20.606 12 8.616 8.616 0 0 0 12 3.394m0 16.2A7.594 7.594 0 1 1 19.594 12 7.6 7.6 0 0 1 12 19.594m3.206-5.906a2.194 2.194 0 0 1-2.194 2.194h-.506v.844a.506.506 0 0 1-1.012 0v-.844H9.975a.507.507 0 0 1 0-1.013h3.037a1.182 1.182 0 0 0 0-2.363h-2.025a2.194 2.194 0 0 1 0-4.388h.506v-.844a.507.507 0 0 1 1.013 0v.844h1.519a.507.507 0 0 1 0 1.013h-3.038a1.182 1.182 0 0 0 0 2.363h2.025a2.194 2.194 0 0 1 2.194 2.194"/></svg>