<svg xmlns="http://www.w3.org/2000/svg" fill="currentColor" viewBox="0 0 24 24" width="24" height="24"><path d="M15.375 20.1a.675.675 0 0 1-.675.675H9.3a.675.675 0 0 1 0-1.35h5.4a.675.675 0 0 1 .675.675m5.4-13.5v9.45a2.025 2.025 0 0 1-2.025 2.025H5.25a2.025 2.025 0 0 1-2.025-2.025V6.6A2.025 2.025 0 0 1 5.25 4.575h13.5A2.025 2.025 0 0 1 20.775 6.6m-6.272 3.572-2.025-2.025a.675.675 0 0 0-.955 0l-2.025 2.025a.675.675 0 0 0 .955.955l.872-.873v3.771a.675.675 0 0 0 1.35 0v-3.771l.872.873a.675.675 0 0 0 .955-.955z"/></svg>