<svg xmlns="http://www.w3.org/2000/svg" fill="currentColor" viewBox="0 0 24 24" width="24" height="24"><path d="m14.981 10.903-4.05-2.7a.506.506 0 0 0-.787.422v5.4a.506.506 0 0 0 .787.422l4.05-2.7a.506.506 0 0 0 0-.844m-3.825 2.176V9.571l2.631 1.754zm7.594-8.335H5.25A1.856 1.856 0 0 0 3.394 6.6v9.45a1.856 1.856 0 0 0 1.856 1.856h13.5a1.856 1.856 0 0 0 1.856-1.856V6.6a1.856 1.856 0 0 0-1.856-1.856m.844 11.306a.844.844 0 0 1-.844.844H5.25a.844.844 0 0 1-.844-.844V6.6a.844.844 0 0 1 .844-.844h13.5a.844.844 0 0 1 .844.844zm-4.387 4.05a.506.506 0 0 1-.506.506h-5.4a.506.506 0 0 1 0-1.012h5.4a.506.506 0 0 1 .506.506"/></svg>