<svg xmlns="http://www.w3.org/2000/svg" fill="currentColor" viewBox="0 0 24 24" width="24" height="24"><path d="M13.35 2.55h-2.7a5.406 5.406 0 0 0-5.4 5.4v8.1a5.406 5.406 0 0 0 5.4 5.4h2.7a5.406 5.406 0 0 0 5.4-5.4v-8.1a5.406 5.406 0 0 0-5.4-5.4m.197 12.347a.675.675 0 0 1 .955.955l-2.025 2.025a.675.675 0 0 1-.955 0l-2.025-2.025a.675.675 0 0 1 .955-.955l.872.873V8.229l-.872.873a.675.675 0 0 1-.955-.955l2.025-2.025a.675.675 0 0 1 .955 0l2.025 2.025a.675.675 0 0 1-.955.955l-.872-.873v7.541z"/></svg>