<svg xmlns="http://www.w3.org/2000/svg" width="24" height="24" fill="currentColor" viewBox="0 0 24 24"><path d="M18.75 15.038a2.363 2.363 0 1 1-2.363-2.363 2.363 2.363 0 0 1 2.363 2.363m-13.163.338a2.363 2.363 0 1 0 2.362 2.363 2.363 2.363 0 0 0-2.362-2.363" opacity=".2"/><path d="M19.165 2.693a.68.68 0 0 0-.579-.122l-10.8 2.7a.675.675 0 0 0-.511.655v9.288a3.038 3.038 0 1 0 1.35 2.524v-7.235l9.45-2.363v4.373a3.038 3.038 0 1 0 1.35 2.525V3.225a.68.68 0 0 0-.26-.532M5.587 19.425a1.688 1.688 0 1 1 1.688-1.688 1.69 1.69 0 0 1-1.688 1.688M8.625 9.11V6.452l9.45-2.363v2.658zm7.763 7.615a1.688 1.688 0 1 1 1.687-1.688 1.69 1.69 0 0 1-1.687 1.688"/></svg>