<svg xmlns="http://www.w3.org/2000/svg" width="24" height="24" fill="currentColor" viewBox="0 0 24 24"><path d="M18.75 3.9H5.25A1.35 1.35 0 0 0 3.9 5.25v13.5a1.35 1.35 0 0 0 1.35 1.35h13.5a1.35 1.35 0 0 0 1.35-1.35V5.25a1.35 1.35 0 0 0-1.35-1.35m-2.025 9.45a.675.675 0 0 1 0 1.35h-6.191l-2.753 3.145a.675.675 0 0 1-1.013-.889l1.972-2.255H7.274a.675.675 0 0 1 0-1.35h2.647l2.363-2.7H7.275a.675.675 0 0 1 0-1.35h6.191l2.753-3.145a.675.675 0 1 1 1.012.889L15.259 9.3h1.466a.675.675 0 0 1 0 1.35h-2.647l-2.363 2.7z"/></svg>