<svg xmlns="http://www.w3.org/2000/svg" width="24" height="24" fill="currentColor" viewBox="0 0 24 24"><path d="M19.425 5.925v12.15a1.35 1.35 0 0 1-1.35 1.35H5.925a1.35 1.35 0 0 1-1.35-1.35V5.925a1.35 1.35 0 0 1 1.35-1.35h12.15a1.35 1.35 0 0 1 1.35 1.35" opacity=".2"/><path d="M20.1 14.7a.675.675 0 0 1-.675.675H9.844l-4.095 4.504a.675.675 0 0 1-.999-.908l3.269-3.596H4.575a.675.675 0 0 1 0-1.35h4.672l3.681-4.05H4.575a.675.675 0 0 1 0-1.35h9.581l4.095-4.504a.675.675 0 0 1 .999.908l-3.269 3.596h3.444a.675.675 0 0 1 0 1.35h-4.672l-3.681 4.05h8.353a.675.675 0 0 1 .675.675"/></svg>