<svg xmlns="http://www.w3.org/2000/svg" width="24" height="24" fill="currentColor" viewBox="0 0 24 24"><path d="M20.1 9.975v4.05a.675.675 0 0 1-.675.675H14.7v4.725a.675.675 0 0 1-.675.675h-4.05a.675.675 0 0 1-.675-.675V14.7H4.575a.675.675 0 0 1-.675-.675v-4.05a.675.675 0 0 1 .675-.675H9.3V4.575a.675.675 0 0 1 .675-.675h4.05a.675.675 0 0 1 .675.675V9.3h4.725a.675.675 0 0 1 .675.675" opacity=".2"/><path d="M19.425 8.625h-4.05v-4.05a1.35 1.35 0 0 0-1.35-1.35h-4.05a1.35 1.35 0 0 0-1.35 1.35v4.05h-4.05a1.35 1.35 0 0 0-1.35 1.35v4.05a1.35 1.35 0 0 0 1.35 1.35h4.05v4.05a1.35 1.35 0 0 0 1.35 1.35h4.05a1.35 1.35 0 0 0 1.35-1.35v-4.05h4.05a1.35 1.35 0 0 0 1.35-1.35v-4.05a1.35 1.35 0 0 0-1.35-1.35m0 5.4H14.7a.675.675 0 0 0-.675.675v4.725h-4.05V14.7a.675.675 0 0 0-.675-.675H4.575v-4.05H9.3a.675.675 0 0 0 .675-.675V4.575h4.05V9.3a.675.675 0 0 0 .675.675h4.725z"/></svg>