<svg xmlns="http://www.w3.org/2000/svg" fill="currentColor" viewBox="0 0 24 24" width="24" height="24"><path d="M12 8.119A3.881 3.881 0 1 0 15.881 12 3.886 3.886 0 0 0 12 8.119m0 6.75A2.869 2.869 0 1 1 14.869 12 2.87 2.87 0 0 1 12 14.869m7.992-7.939-7.425-4.065a1.17 1.17 0 0 0-1.134 0L4.008 6.93a1.18 1.18 0 0 0-.614 1.035v8.07a1.18 1.18 0 0 0 .614 1.035l7.425 4.065a1.18 1.18 0 0 0 1.134 0l7.425-4.065a1.18 1.18 0 0 0 .614-1.035v-8.07a1.18 1.18 0 0 0-.614-1.035m-.398 9.105a.17.17 0 0 1-.084.148l-7.425 4.065a.17.17 0 0 1-.162 0l-7.432-4.065a.17.17 0 0 1-.084-.148v-8.07a.17.17 0 0 1 .084-.148l7.425-4.065a.17.17 0 0 1 .162 0l7.425 4.065a.17.17 0 0 1 .084.148z"/></svg>