<svg xmlns="http://www.w3.org/2000/svg" width="24" height="24" fill="currentColor" viewBox="0 0 24 24"><path d="M20.775 11.494h-1.538a7.2 7.2 0 0 0-.716-2.674l1.332-.769a.507.507 0 0 0-.506-.878l-1.333.769a7.3 7.3 0 0 0-1.957-1.957l.77-1.333a.506.506 0 0 0-.877-.506l-.769 1.332a7.2 7.2 0 0 0-2.674-.716V3.224a.507.507 0 0 0-1.013 0v1.538a7.2 7.2 0 0 0-2.674.716l-.769-1.332a.507.507 0 0 0-.878.506l.769 1.333a7.3 7.3 0 0 0-1.957 1.957l-1.333-.77a.507.507 0 0 0-.506.878l1.332.769a7.2 7.2 0 0 0-.716 2.674H3.224a.507.507 0 0 0 0 1.013h1.538a7.2 7.2 0 0 0 .716 2.674l-1.332.769a.506.506 0 0 0 .506.877l1.333-.77a7.3 7.3 0 0 0 1.957 1.957l-.769 1.333a.507.507 0 0 0 .878.506l.769-1.332a7.2 7.2 0 0 0 2.674.716v1.538a.507.507 0 0 0 1.013 0v-1.538a7.2 7.2 0 0 0 2.674-.716l.769 1.332a.5.5 0 0 0 .44.253.5.5 0 0 0 .253-.068.506.506 0 0 0 .186-.691l-.77-1.333a7.3 7.3 0 0 0 1.957-1.957l1.333.77a.506.506 0 0 0 .506-.877l-1.332-.769a7.2 7.2 0 0 0 .716-2.674h1.538a.507.507 0 0 0 0-1.013zm-12.319 5.64a6.235 6.235 0 0 1 0-10.267L11.415 12zM12 18.244a6.2 6.2 0 0 1-2.672-.602l2.964-5.135h5.93A6.25 6.25 0 0 1 12 18.245zm.292-6.75L9.328 6.359a6.24 6.24 0 0 1 8.894 5.135z"/></svg>