<svg xmlns="http://www.w3.org/2000/svg" width="24" height="24" fill="currentColor" viewBox="0 0 24 24"><path d="M19.931 12a.506.506 0 0 1-.506.506H10.65a.507.507 0 0 1 0-1.013h8.775a.506.506 0 0 1 .506.506zM10.65 7.106h8.775a.507.507 0 0 0 0-1.013H10.65a.507.507 0 0 0 0 1.013m8.775 9.788H4.575a.506.506 0 0 0 0 1.012h14.85a.506.506 0 0 0 0-1.012m-12.15-3.713a.506.506 0 0 0 .358-.864L4.617 9.3l3.016-3.017a.506.506 0 0 0-.716-.716L3.542 8.942a.506.506 0 0 0 0 .716l3.375 3.375a.5.5 0 0 0 .358.149z"/></svg>