<svg xmlns="http://www.w3.org/2000/svg" width="24" height="24" fill="currentColor" viewBox="0 0 24 24"><path d="M19.425 6.6v10.8H4.575V8.625L6.6 6.6z" opacity=".2"/><path d="M20.1 12a.675.675 0 0 1-.675.675H10.65a.675.675 0 0 1 0-1.35h8.775A.675.675 0 0 1 20.1 12m-9.45-4.725h8.775a.675.675 0 0 0 0-1.35H10.65a.675.675 0 0 0 0 1.35m8.775 9.45H4.575a.675.675 0 0 0 0 1.35h14.85a.675.675 0 0 0 0-1.35M7.275 13.35a.675.675 0 0 0 .478-1.153L4.855 9.3l2.898-2.897a.675.675 0 0 0-.955-.955L3.423 8.823a.675.675 0 0 0 0 .955l3.375 3.375a.68.68 0 0 0 .478.197z"/></svg>