<svg viewBox="0 0 24 24" fill="none" xmlns="http://www.w3.org/2000/svg" width="24" height="24">
<path d="M18.7499 3.8999H5.2499C4.89186 3.8999 4.54848 4.04213 4.29531 4.29531C4.04213 4.54848 3.8999 4.89186 3.8999 5.2499V18.7499C3.8999 19.1079 4.04213 19.4513 4.29531 19.7045C4.54848 19.9577 4.89186 20.0999 5.2499 20.0999H18.7499C19.1079 20.0999 19.4513 19.9577 19.7045 19.7045C19.9577 19.4513 20.0999 19.1079 20.0999 18.7499V5.2499C20.0999 4.89186 19.9577 4.54848 19.7045 4.29531C19.4513 4.04213 19.1079 3.8999 18.7499 3.8999Z" fill="black"/>
<rect x="9.95996" y="9.95996" width="4.05859" height="4.05859" rx="0.75" fill="white"/>
<path d="M8.62549 14.624C8.62549 15.0382 8.96127 15.374 9.37549 15.374H14.6245C15.0387 15.374 15.3745 15.0382 15.3745 14.624V9.37598C15.3745 8.96176 15.0387 8.62598 14.6245 8.62598H9.37549C8.96127 8.62598 8.62549 8.96176 8.62549 9.37598V14.624ZM18.0747 17.3242L18.0708 17.4014C18.0348 17.7542 17.7537 18.0345 17.4009 18.0703L17.3247 18.0742H6.67529L6.59814 18.0703C6.22018 18.0317 5.92529 17.7124 5.92529 17.3242V6.67578C5.92529 6.28761 6.22018 5.96831 6.59814 5.92969L6.67529 5.92578H17.3247L17.4009 5.92969C17.7791 5.96809 18.0747 6.28745 18.0747 6.67578V17.3242Z" fill="white"/>
</svg>