<svg viewBox="0 0 24 24" fill="none" xmlns="http://www.w3.org/2000/svg" width="24" height="24">
<path d="M5.08008 18.9297H18.9297V5.08008H5.08008V18.9297ZM19.9297 19.1797C19.9297 19.5939 19.5939 19.9297 19.1797 19.9297H4.83008L4.75293 19.9258C4.37498 19.8871 4.08008 19.5678 4.08008 19.1797V4.83008C4.08008 4.41586 4.41586 4.08008 4.83008 4.08008H19.1797C19.5939 4.08008 19.9297 4.41586 19.9297 4.83008V19.1797Z" fill="black"/>
<path d="M9.075 14.9246H14.9246V9.075H9.075V14.9246ZM15.9246 15.0662C15.9245 15.5405 15.5405 15.9245 15.0662 15.9246H8.93437C8.46005 15.9246 8.07507 15.5405 8.075 15.0662V8.93437C8.075 8.46001 8.46001 8.075 8.93437 8.075H15.0662C15.5405 8.07507 15.9246 8.46005 15.9246 8.93437V15.0662Z" fill="black"/>
</svg>