<svg viewBox="0 0 24 24" fill="none" xmlns="http://www.w3.org/2000/svg" width="24" height="24">
<path d="M18.75 3.89941C19.1078 3.89944 19.451 4.04201 19.7041 4.29492C19.9573 4.5481 20.0996 4.89196 20.0996 5.25V18.75C20.0996 19.108 19.9573 19.451 19.7041 19.7041C19.451 19.9573 19.108 20.0996 18.75 20.0996H5.25C4.89196 20.0996 4.5481 19.9573 4.29492 19.7041C4.04201 19.451 3.89944 19.1078 3.89941 18.75V5.25C3.89941 4.89196 4.04175 4.5481 4.29492 4.29492C4.5481 4.04175 4.89196 3.89941 5.25 3.89941H18.75ZM6.59961 5.92578C6.22704 5.92604 5.9248 6.22796 5.9248 6.60059L5.92578 17.4004C5.92604 17.773 6.22796 18.0752 6.60059 18.0752H17.3994C17.772 18.0752 18.074 17.773 18.0742 17.4004V6.60059C18.0742 6.22796 17.773 5.92605 17.4004 5.92578H6.59961ZM16.7256 16.7256H7.27539V7.27539H16.7246L16.7256 16.7256ZM10.6533 9.98145C10.2754 10.0201 9.98047 10.3394 9.98047 10.7275V13.2725C9.98072 13.6604 10.2755 13.98 10.6533 14.0186L10.7305 14.0225H13.2705L13.3467 14.0186C13.7247 13.9802 14.0203 13.6606 14.0205 13.2725V10.7275C14.0205 10.3392 13.7249 10.0199 13.3467 9.98145L13.2705 9.97754H10.7305L10.6533 9.98145ZM12.6709 12.6719H11.3301V11.3271H12.6709V12.6719Z" fill="black"/>
</svg>