<svg viewBox="0 0 24 24" fill="none" xmlns="http://www.w3.org/2000/svg" width="24" height="24">
<path fill-rule="evenodd" clip-rule="evenodd" d="M9.2998 8.625H15.3755V14.6976C15.3755 15.0704 15.0733 15.3726 14.7005 15.3726H8.6248V9.3C8.6248 8.92721 8.92701 8.625 9.2998 8.625Z" fill="black" fill-opacity="0.2"/>
<path fill-rule="evenodd" clip-rule="evenodd" d="M15.8755 5.24756L15.8755 8.125L18.75 8.125C19.3988 8.12511 19.9247 8.65102 19.9248 9.2998L19.9248 18.75C19.9248 19.3989 19.3988 19.9247 18.75 19.9248L9.2998 19.9248C8.65087 19.9248 8.125 19.3989 8.125 18.75L8.125 15.8726L5.25049 15.8726C4.60162 15.8726 4.07579 15.3466 4.07568 14.6978L4.07568 5.24756C4.07568 4.59862 4.60155 4.07275 5.25049 4.07275L14.7007 4.07275C15.3495 4.07286 15.8755 4.59869 15.8755 5.24756ZM14.7007 5.07275C14.7972 5.07286 14.8755 5.15097 14.8755 5.24756L14.8755 8.12451L9.29932 8.12549C8.65061 8.12575 8.12451 8.65152 8.12451 9.30029L8.12451 14.8726L5.25049 14.8726C5.1539 14.8726 5.07579 14.7943 5.07568 14.6978L5.07568 5.24756C5.07568 5.15091 5.15384 5.07275 5.25049 5.07275L14.7007 5.07275ZM15.875 9.125L18.75 9.125C18.8465 9.12511 18.9247 9.20331 18.9248 9.2998L18.9248 18.75C18.9248 18.8466 18.8466 18.9247 18.75 18.9248L9.2998 18.9248C9.20315 18.9248 9.125 18.8466 9.125 18.75L9.125 15.873L14.7002 15.873C15.3491 15.873 15.875 15.3462 15.875 14.6973L15.875 9.125ZM14.875 9.12459L12.3363 9.125L9.29932 9.12549C9.20289 9.12575 9.12451 9.20381 9.12451 9.30029L9.12451 14.873L14.7002 14.873C14.7968 14.873 14.875 14.7939 14.875 14.6973L14.875 9.12459Z" fill="black"/>
</svg>