<svg viewBox="0 0 24 24" fill="none" xmlns="http://www.w3.org/2000/svg" width="24" height="24">
<path fill-rule="evenodd" clip-rule="evenodd" d="M15.8755 8.125V5.24756C15.8755 4.59869 15.3495 4.07286 14.7007 4.07275L5.25049 4.07275C4.60155 4.07275 4.07568 4.59862 4.07568 5.24756V14.6978C4.07579 15.3466 4.60162 15.8726 5.25049 15.8726H8.125V18.75C8.125 19.3989 8.65087 19.9248 9.2998 19.9248H18.75C19.3988 19.9247 19.9248 19.3989 19.9248 18.75V9.29981C19.9247 8.65103 19.3988 8.12511 18.75 8.125H15.8755ZM10.3285 14.8726L9.125 14.8726V13.6729L13.6729 9.125H14.8755L14.8755 10.3256L10.3285 14.8726ZM11.7428 14.8726L14.8755 11.7398L14.8755 14.6978C14.8754 14.7942 14.7972 14.8725 14.7007 14.8726L11.7428 14.8726ZM9.125 9.29981V12.2587L12.2587 9.125H9.2998C9.20322 9.125 9.12511 9.20325 9.125 9.29981ZM15.8755 9.125V14.6978C15.8754 15.3465 15.3495 15.8725 14.7007 15.8726H9.125V18.75C9.125 18.8466 9.20315 18.9248 9.2998 18.9248H18.75C18.8466 18.9247 18.9248 18.8466 18.9248 18.75V9.29981C18.9247 9.20331 18.8465 9.12511 18.75 9.125H15.8755ZM5.25049 14.8726H8.125V9.29981C8.12511 8.65096 8.65094 8.125 9.2998 8.125H14.8755V5.24756C14.8755 5.15097 14.7972 5.07286 14.7007 5.07275L5.25049 5.07275C5.15384 5.07275 5.07568 5.15091 5.07568 5.24756V14.6978C5.07579 14.7943 5.1539 14.8726 5.25049 14.8726Z" fill="black"/>
</svg>