<svg xmlns="http://www.w3.org/2000/svg" fill="currentColor" viewBox="0 0 24 24" width="24" height="24"><path d="m20.073 6.781-7.425-4.063a1.34 1.34 0 0 0-1.296 0L3.927 6.782a1.35 1.35 0 0 0-.702 1.181v8.07a1.35 1.35 0 0 0 .702 1.181l7.425 4.064a1.34 1.34 0 0 0 1.296 0l7.425-4.064a1.35 1.35 0 0 0 .702-1.181V7.964a1.35 1.35 0 0 0-.702-1.184zM12 3.9l6.78 3.713-2.513 1.374-6.78-3.713zm0 7.425L5.22 7.613l2.861-1.567 6.78 3.712zm7.425 4.712-6.75 3.695v-7.24l2.7-1.477v3.01a.675.675 0 0 0 1.35 0v-3.75l2.7-1.477v7.236z"/></svg>