<svg viewBox="0 0 24 24" fill="none" xmlns="http://www.w3.org/2000/svg" width="24" height="24">
<path d="M17.3984 18.9185C17.6746 18.9185 17.8984 19.1423 17.8984 19.4185C17.8984 19.6946 17.6746 19.9185 17.3984 19.9185L6.59863 19.9185C6.32249 19.9185 6.09863 19.6946 6.09863 19.4185C6.09863 19.1423 6.32249 18.9185 6.59863 18.9185L17.3984 18.9185Z" fill="black"/>
<path d="M19.9185 17.3984C19.9185 17.6746 19.6946 17.8984 19.4185 17.8984C19.1423 17.8984 18.9185 17.6746 18.9185 17.3984L18.9185 6.59863C18.9185 6.32249 19.1423 6.09863 19.4185 6.09863C19.6946 6.09863 19.9185 6.32249 19.9185 6.59863L19.9185 17.3984Z" fill="black"/>
<path d="M10.0688 10.0786L10.0688 13.9282L13.9185 13.9282L13.9185 10.0786L10.0688 10.0786ZM9.82275 14.9282C9.40627 14.9282 9.06885 14.5908 9.06885 14.1743L9.06885 9.83252C9.06896 9.41613 9.40634 9.07861 9.82275 9.07861L14.1646 9.07861C14.5809 9.07873 14.9183 9.4162 14.9185 9.83252L14.9185 14.1743C14.9185 14.5907 14.5809 14.9281 14.1646 14.9282L9.82275 14.9282Z" fill="black"/>
<path d="M10.0688 10.0786L10.0688 13.9282L13.9185 13.9282L13.9185 10.0786L10.0688 10.0786ZM9.82275 14.9282C9.40627 14.9282 9.06885 14.5908 9.06885 14.1743L9.06885 9.83252C9.06896 9.41613 9.40634 9.07861 9.82275 9.07861L14.1646 9.07861C14.5809 9.07873 14.9183 9.4162 14.9185 9.83252L14.9185 14.1743C14.9185 14.5907 14.5809 14.9281 14.1646 14.9282L9.82275 14.9282Z" fill="black"/>
<path d="M17.3984 4.07862C17.6746 4.07862 17.8984 4.30247 17.8984 4.57862C17.8984 4.85476 17.6746 5.07862 17.3984 5.07862L6.59863 5.07861C6.32249 5.07861 6.09863 4.85475 6.09863 4.57861C6.09863 4.30247 6.32249 4.07861 6.59863 4.07861L17.3984 4.07862Z" fill="black"/>
<path d="M5.33154 6.09814C5.74576 6.09814 6.08154 6.43393 6.08154 6.84814L6.08154 17.1489C6.08154 17.5631 5.74576 17.8989 5.33154 17.8989L4.83154 17.8989C4.41733 17.8989 4.08154 17.5631 4.08154 17.1489L4.08154 6.84814C4.08154 6.43393 4.41733 6.09814 4.83154 6.09814L5.33154 6.09814Z" fill="black"/>
</svg>