<svg viewBox="0 0 24 24" fill="none" xmlns="http://www.w3.org/2000/svg" width="24" height="24">
<path d="M18.9199 6.6001C18.9199 6.32396 19.1438 6.1001 19.4199 6.1001C19.6961 6.1001 19.9199 6.32396 19.9199 6.6001L19.9199 17.3999C19.9199 17.676 19.6961 17.8999 19.4199 17.8999C19.1438 17.8999 18.9199 17.676 18.9199 17.3999L18.9199 6.6001Z" fill="black"/>
<path d="M17.3999 4.08008C17.676 4.08008 17.8999 4.30394 17.8999 4.58008C17.8999 4.85622 17.676 5.08008 17.3999 5.08008L6.6001 5.08008C6.32395 5.08008 6.1001 4.85622 6.1001 4.58008C6.1001 4.30394 6.32396 4.08008 6.6001 4.08008L17.3999 4.08008Z" fill="black"/>
<path d="M17.3999 18.9199C17.676 18.9199 17.8999 19.1438 17.8999 19.4199C17.8999 19.6961 17.676 19.9199 17.3999 19.9199L6.6001 19.9199C6.32395 19.9199 6.1001 19.6961 6.1001 19.4199C6.1001 19.1438 6.32396 18.9199 6.6001 18.9199L17.3999 18.9199Z" fill="black"/>
<path d="M14.1711 9.5752H9.82931C9.68897 9.5752 9.5752 9.68897 9.5752 9.82931V14.1711C9.5752 14.3114 9.68897 14.4252 9.82931 14.4252H14.1711C14.3114 14.4252 14.4252 14.3114 14.4252 14.1711V9.82931C14.4252 9.68897 14.3114 9.5752 14.1711 9.5752Z" fill="black" fill-opacity="0.2"/>
<path d="M10.0752 13.9248H13.9248V10.0752H10.0752V13.9248ZM14.9248 14.1709C14.9248 14.5874 14.5874 14.9248 14.1709 14.9248H9.8291C9.41271 14.9247 9.0752 14.5873 9.0752 14.1709V9.8291C9.07531 9.41278 9.41278 9.07531 9.8291 9.0752H14.1709C14.5873 9.0752 14.9247 9.41271 14.9248 9.8291V14.1709Z" fill="black"/>
<path d="M4.08008 6.6001C4.08008 6.32396 4.30394 6.1001 4.58008 6.1001C4.85622 6.1001 5.08008 6.32396 5.08008 6.6001L5.08008 17.3999C5.08008 17.676 4.85622 17.8999 4.58008 17.8999C4.30394 17.8999 4.08008 17.676 4.08008 17.3999L4.08008 6.6001Z" fill="black"/>
</svg>