<svg viewBox="0 0 24 24" fill="none" xmlns="http://www.w3.org/2000/svg" width="24" height="24">
<path d="M18.7451 6.77002C18.7451 6.39723 19.0471 6.09521 19.4199 6.09522C19.7927 6.09522 20.0947 6.39723 20.0947 6.77002L20.0947 17.23C20.0947 17.6028 19.7927 17.9048 19.4199 17.9048C19.0471 17.9048 18.7451 17.6028 18.7451 17.23L18.7451 6.77002Z" fill="black"/>
<path d="M17.3999 3.90528C17.7727 3.90528 18.0747 4.20729 18.0747 4.58008C18.0747 4.95287 17.7727 5.25489 17.3999 5.25489L6.6001 5.25488C6.2273 5.25488 5.92529 4.95287 5.92529 4.58008C5.92529 4.20729 6.22731 3.90527 6.6001 3.90527L17.3999 3.90528Z" fill="black"/>
<path d="M3.90528 6.77002C3.90528 6.39723 4.20729 6.09521 4.58008 6.09522C4.95287 6.09522 5.25489 6.39723 5.25489 6.77002L5.25488 17.23C5.25488 17.6028 4.95287 17.9048 4.58008 17.9048C4.20729 17.9048 3.90527 17.6028 3.90527 17.23L3.90528 6.77002Z" fill="black"/>
<path d="M6.10742 18.1499C6.10742 17.7357 6.44321 17.3999 6.85742 17.3999H17.1582C17.5724 17.3999 17.9082 17.7357 17.9082 18.1499V19.3499C17.9082 19.7641 17.5724 20.0999 17.1582 20.0999H6.85742C6.44321 20.0999 6.10742 19.7641 6.10742 19.3499V18.1499Z" fill="black"/>
<path d="M10.25 13.75H13.75V10.25H10.25V13.75ZM15.1006 14.1709C15.1006 14.684 14.684 15.1006 14.1709 15.1006H9.8291C9.31606 15.1005 8.90039 14.684 8.90039 14.1709V9.8291C8.90051 9.31613 9.31613 8.90051 9.8291 8.90039H14.1709C14.684 8.90039 15.1005 9.31606 15.1006 9.8291V14.1709Z" fill="black"/>
</svg>