<svg viewBox="0 0 24 24" fill="none" xmlns="http://www.w3.org/2000/svg" width="24" height="24">
<path d="M18.7451 6.6001C18.7451 6.22731 19.0471 5.92529 19.4199 5.92529C19.7927 5.92529 20.0947 6.22731 20.0947 6.6001L20.0947 17.3999C20.0947 17.7727 19.7927 18.0747 19.4199 18.0747C19.0471 18.0747 18.7451 17.7727 18.7451 17.3999L18.7451 6.6001Z" fill="black"/>
<path d="M17.3999 3.90528C17.7727 3.90528 18.0747 4.20729 18.0747 4.58008C18.0747 4.95287 17.7727 5.25489 17.3999 5.25489L6.6001 5.25488C6.2273 5.25488 5.92529 4.95287 5.92529 4.58008C5.92529 4.20729 6.22731 3.90527 6.6001 3.90527L17.3999 3.90528Z" fill="black"/>
<path d="M17.3999 18.7451C17.7727 18.7451 18.0747 19.0471 18.0747 19.4199C18.0747 19.7927 17.7727 20.0947 17.3999 20.0947L6.6001 20.0947C6.2273 20.0947 5.92529 19.7927 5.92529 19.4199C5.92529 19.0471 6.22731 18.7451 6.6001 18.7451L17.3999 18.7451Z" fill="black"/>
<path d="M10.25 13.75H13.75V10.25H10.25V13.75ZM15.1006 14.1709C15.1006 14.684 14.684 15.1006 14.1709 15.1006H9.8291C9.31606 15.1005 8.90039 14.684 8.90039 14.1709V9.8291C8.90051 9.31613 9.31613 8.90051 9.8291 8.90039H14.1709C14.684 8.90039 15.1005 9.31606 15.1006 9.8291V14.1709Z" fill="black"/>
<path d="M3.90528 6.6001C3.90528 6.22731 4.20729 5.92529 4.58008 5.92529C4.95287 5.92529 5.25489 6.22731 5.25489 6.6001L5.25488 17.3999C5.25488 17.7727 4.95287 18.0747 4.58008 18.0747C4.20729 18.0747 3.90527 17.7727 3.90527 17.3999L3.90528 6.6001Z" fill="black"/>
</svg>