<svg viewBox="0 0 24 24" fill="none" xmlns="http://www.w3.org/2000/svg" width="24" height="24">
<path d="M6.60156 5.07861C6.32542 5.07861 6.10156 4.85475 6.10156 4.57861C6.10156 4.30247 6.32542 4.07861 6.60156 4.07861L17.4014 4.07861C17.6775 4.07861 17.9014 4.30247 17.9014 4.57861C17.9014 4.85476 17.6775 5.07861 17.4014 5.07861L6.60156 5.07861Z" fill="black"/>
<path d="M4.08155 6.59863C4.08155 6.32249 4.3054 6.09863 4.58155 6.09863C4.85769 6.09863 5.08155 6.32249 5.08155 6.59863L5.08154 17.3984C5.08154 17.6746 4.85769 17.8984 4.58154 17.8984C4.3054 17.8984 4.08154 17.6746 4.08154 17.3984L4.08155 6.59863Z" fill="black"/>
<path d="M13.9312 13.9185L13.9312 10.0688L10.0815 10.0688L10.0815 13.9185L13.9312 13.9185ZM14.1772 9.06885C14.5937 9.06885 14.9312 9.40627 14.9312 9.82275L14.9312 14.1646C14.931 14.5809 14.5937 14.9185 14.1772 14.9185L9.83545 14.9185C9.41913 14.9183 9.08166 14.5809 9.08154 14.1646L9.08154 9.82275C9.08154 9.40634 9.41906 9.06896 9.83545 9.06885L14.1772 9.06885Z" fill="black"/>
<path d="M13.9312 13.9185L13.9312 10.0688L10.0815 10.0688L10.0815 13.9185L13.9312 13.9185ZM14.1772 9.06885C14.5937 9.06885 14.9312 9.40627 14.9312 9.82275L14.9312 14.1646C14.931 14.5809 14.5937 14.9185 14.1772 14.9185L9.83545 14.9185C9.41913 14.9183 9.08166 14.5809 9.08154 14.1646L9.08154 9.82275C9.08154 9.40634 9.41906 9.06896 9.83545 9.06885L14.1772 9.06885Z" fill="black"/>
<path d="M6.60156 19.9185C6.32542 19.9185 6.10156 19.6946 6.10156 19.4185C6.10156 19.1423 6.32542 18.9185 6.60156 18.9185L17.4014 18.9185C17.6775 18.9185 17.9014 19.1423 17.9014 19.4185C17.9014 19.6946 17.6775 19.9185 17.4014 19.9185L6.60156 19.9185Z" fill="black"/>
<path d="M18.6685 17.8989C18.2542 17.8989 17.9185 17.5631 17.9185 17.1489L17.9185 6.84814C17.9185 6.43393 18.2542 6.09814 18.6685 6.09814L19.1685 6.09814C19.5827 6.09814 19.9185 6.43393 19.9185 6.84814L19.9185 17.1489C19.9185 17.5631 19.5827 17.8989 19.1685 17.8989L18.6685 17.8989Z" fill="black"/>
</svg>