<svg viewBox="0 0 24 24" fill="none" xmlns="http://www.w3.org/2000/svg" width="24" height="24">
<path d="M10.2962 14.417L14.638 14.417C14.7783 14.417 14.8921 14.3032 14.8921 14.1629L14.8921 9.82111C14.8921 9.68077 14.7783 9.56699 14.638 9.56699L10.2962 9.56699C10.1559 9.56699 10.0421 9.68076 10.0421 9.82111L10.0421 14.1629C10.0421 14.3032 10.1559 14.417 10.2962 14.417Z" fill="black" fill-opacity="0.2"/>
<path d="M5.55224 17.397C5.55224 17.6731 5.32838 17.897 5.05224 17.897C4.7761 17.897 4.55224 17.6731 4.55224 17.397L4.55225 6.59717C4.55225 6.32102 4.7761 6.09717 5.05225 6.09717C5.32839 6.09717 5.55225 6.32102 5.55225 6.59717L5.55224 17.397Z" fill="black"/>
<path d="M7.07227 19.917C6.79612 19.917 6.57227 19.6931 6.57227 19.417C6.57227 19.1408 6.79612 18.917 7.07227 18.917L17.8721 18.917C18.1482 18.917 18.3721 19.1408 18.3721 19.417C18.3721 19.6931 18.1482 19.917 17.8721 19.917L7.07227 19.917Z" fill="black"/>
<path d="M20.3921 17.397C20.3921 17.6731 20.1682 17.897 19.8921 17.897C19.6159 17.897 19.3921 17.6731 19.3921 17.397L19.3921 6.59717C19.3921 6.32103 19.6159 6.09717 19.8921 6.09717C20.1682 6.09717 20.3921 6.32103 20.3921 6.59717L20.3921 17.397Z" fill="black"/>
<path d="M18.3726 5.33008C18.3726 5.74429 18.0368 6.08008 17.6226 6.08008L7.32178 6.08008C6.90757 6.08008 6.57178 5.74429 6.57178 5.33008L6.57178 4.83008C6.57178 4.41586 6.90757 4.08008 7.32178 4.08008L17.6226 4.08008C18.0368 4.08008 18.3726 4.41586 18.3726 4.83008L18.3726 5.33008Z" fill="black"/>
<path d="M14.3921 10.0674L10.5425 10.0674L10.5425 13.917L14.3921 13.917L14.3921 10.0674ZM9.54248 9.82129C9.54248 9.4048 9.8799 9.06738 10.2964 9.06738L14.6382 9.06738C15.0546 9.0675 15.3921 9.40487 15.3921 9.82129L15.3921 14.1631C15.392 14.5794 15.0545 14.9169 14.6382 14.917L10.2964 14.917C9.87997 14.917 9.5426 14.5795 9.54248 14.1631L9.54248 9.82129Z" fill="black"/>
</svg>