<svg viewBox="0 0 24 24" fill="none" xmlns="http://www.w3.org/2000/svg" width="24" height="24">
<path d="M4.75 4.57422C4.75047 3.92575 5.27625 3.39952 5.9248 3.39941H18.0752C18.7237 3.39952 19.2495 3.92575 19.25 4.57422V19.4248C19.2499 20.0736 18.724 20.5995 18.0752 20.5996H5.9248C5.27602 20.5995 4.75011 20.0736 4.75 19.4248V4.57422ZM8.62402 12.3496C8.62402 12.7223 8.92622 13.0242 9.29883 13.0244H14.6992C15.0719 13.0243 15.374 12.7223 15.374 12.3496C15.3739 11.977 15.0719 11.6749 14.6992 11.6748H9.29883C8.92628 11.675 8.62413 11.977 8.62402 12.3496ZM8.62402 9.91504C8.62415 10.2876 8.92629 10.5896 9.29883 10.5898H14.6992C15.0718 10.5897 15.3739 10.2877 15.374 9.91504C15.374 9.54231 15.0719 9.24034 14.6992 9.24023H9.29883C8.92622 9.24045 8.62402 9.54238 8.62402 9.91504ZM8.79883 16.7344C8.79883 17.1485 9.1347 17.4843 9.54883 17.4844H14.4492C14.8633 17.4843 15.1992 17.1485 15.1992 16.7344V15.5352C15.1992 15.121 14.8633 14.7853 14.4492 14.7852H9.54883C9.1347 14.7853 8.79883 15.121 8.79883 15.5352V16.7344Z" fill="black"/>
</svg>