<svg viewBox="0 0 24 24" fill="none" xmlns="http://www.w3.org/2000/svg" width="24" height="24">
<path d="M5.9248 4.3999C5.82837 4.40001 5.75021 4.4783 5.75 4.57471V19.4253C5.75011 19.5218 5.82831 19.6 5.9248 19.6001H18.0752C18.1717 19.6 18.2499 19.5218 18.25 19.4253V4.57471C18.2498 4.4783 18.1716 4.40001 18.0752 4.3999H5.9248ZM18.0752 3.3999C18.7239 3.40001 19.2498 3.92602 19.25 4.57471V19.4253C19.2499 20.0741 18.724 20.6 18.0752 20.6001H5.9248C5.27602 20.6 4.75011 20.0741 4.75 19.4253V4.57471C4.75021 3.92602 5.27609 3.40001 5.9248 3.3999H18.0752Z" fill="black"/>
<path d="M9.29883 9.82959C9.02286 9.8298 8.79883 10.0536 8.79883 10.3296C8.79883 10.6056 9.02287 10.8294 9.29883 10.8296L14.6992 10.8296C14.9754 10.8296 15.1992 10.6057 15.1992 10.3296C15.1992 10.0534 14.9754 9.82959 14.6992 9.82959L9.29883 9.82959Z" fill="black"/>
<path d="M9.29883 12.6996C9.02287 12.6998 8.79883 12.9236 8.79883 13.1996C8.79883 13.4756 9.02287 13.6994 9.29883 13.6996L14.6992 13.6996C14.9754 13.6996 15.1992 13.4757 15.1992 13.1996C15.1992 12.9234 14.9754 12.6996 14.6992 12.6996L9.29883 12.6996Z" fill="black"/>
<path d="M15.199 16.3196C15.199 15.9054 14.8632 15.5696 14.449 15.5696L9.54902 15.5696C9.13481 15.5696 8.79902 15.9054 8.79902 16.3196L8.79902 16.8196C8.79902 17.2338 9.13481 17.5696 9.54902 17.5696L14.449 17.5696C14.8632 17.5696 15.199 17.2338 15.199 16.8196V16.3196Z" fill="black"/>
</svg>