<svg viewBox="0 0 24 24" fill="none" xmlns="http://www.w3.org/2000/svg" width="24" height="24">
<path d="M5.25 4.5751L5.25 19.4251C5.25 19.7979 5.55221 20.1001 5.925 20.1001H18.075C18.4478 20.1001 18.75 19.7979 18.75 19.4251V4.5751C18.75 4.2023 18.4478 3.9001 18.075 3.9001H5.925C5.55221 3.9001 5.25 4.2023 5.25 4.5751Z" fill="black" fill-opacity="0.2"/>
<path d="M5.9248 4.3999C5.82837 4.40001 5.75021 4.4783 5.75 4.57471V19.4253C5.75011 19.5218 5.82831 19.6 5.9248 19.6001H18.0752C18.1717 19.6 18.2499 19.5218 18.25 19.4253V4.57471C18.2498 4.4783 18.1716 4.40001 18.0752 4.3999H5.9248ZM18.0752 3.3999C18.7239 3.40001 19.2498 3.92602 19.25 4.57471V19.4253C19.2499 20.0741 18.724 20.6 18.0752 20.6001H5.9248C5.27602 20.6 4.75011 20.0741 4.75 19.4253V4.57471C4.75021 3.92602 5.27609 3.40001 5.9248 3.3999H18.0752Z" fill="black"/>
<path d="M9.29883 9.82992C9.02287 9.83013 8.79883 10.0539 8.79883 10.3299C8.79883 10.6059 9.02287 10.8297 9.29883 10.8299L14.6992 10.8299C14.9754 10.8299 15.1992 10.6061 15.1992 10.3299C15.1992 10.0538 14.9754 9.82992 14.6992 9.82992L9.29883 9.82992Z" fill="black"/>
<path d="M9.29883 12.6999C9.02287 12.7001 8.79883 12.9239 8.79883 13.1999C8.79883 13.4759 9.02287 13.6997 9.29883 13.6999H14.6992C14.9754 13.6999 15.1992 13.4761 15.1992 13.1999C15.1992 12.9238 14.9754 12.6999 14.6992 12.6999H9.29883Z" fill="black"/>
<path d="M15.199 16.3199C15.199 15.9057 14.8632 15.5699 14.449 15.5699H9.54903C9.13481 15.5699 8.79902 15.9057 8.79902 16.3199V16.8199C8.79902 17.2341 9.13481 17.5699 9.54902 17.5699H14.449C14.8632 17.5699 15.199 17.2341 15.199 16.8199V16.3199Z" fill="black"/>
</svg>