<svg viewBox="0 0 24 24" fill="none" xmlns="http://www.w3.org/2000/svg" width="24" height="24">
<path d="M4.75 4.57471C4.75047 3.92624 5.27625 3.40001 5.9248 3.3999H18.0752C18.7237 3.40001 19.2495 3.92624 19.25 4.57471V19.4253C19.2499 20.0741 18.724 20.6 18.0752 20.6001H5.9248C5.27602 20.6 4.75011 20.0741 4.75 19.4253V4.57471ZM8.62402 17.4849C8.62402 17.8575 8.92622 18.1595 9.29883 18.1597H14.6992C15.0719 18.1596 15.374 17.8576 15.374 17.4849C15.3738 17.1123 15.0718 16.8102 14.6992 16.8101H9.29883C8.92636 16.8103 8.62426 17.1124 8.62402 17.4849ZM8.62402 15.0503C8.62402 15.423 8.92622 15.7249 9.29883 15.7251H14.6992C15.0719 15.725 15.374 15.423 15.374 15.0503C15.374 14.6776 15.0719 14.3756 14.6992 14.3755H9.29883C8.92622 14.3757 8.62402 14.6776 8.62402 15.0503ZM8.79883 11.8657C8.79906 12.2797 9.13485 12.6156 9.54883 12.6157H14.4492C14.8632 12.6156 15.199 12.2797 15.1992 11.8657V10.6655C15.1992 10.2514 14.8633 9.91563 14.4492 9.91553H9.54883C9.1347 9.91563 8.79883 10.2514 8.79883 10.6655V11.8657Z" fill="black"/>
</svg>