<svg xmlns="http://www.w3.org/2000/svg" width="24" height="24" fill="currentColor" viewBox="0 0 24 24"><path d="M18.14 5.747A8.7 8.7 0 0 0 12 3.225h-.09A8.775 8.775 0 0 0 3.225 12c0 3.628 2.243 6.671 5.852 7.946a2.7 2.7 0 0 0 3.598-2.546 1.35 1.35 0 0 1 1.35-1.35h3.899a2.684 2.684 0 0 0 2.633-2.099 8.8 8.8 0 0 0 .219-2.025 8.7 8.7 0 0 0-2.635-6.179zm-9.852 9.628a1.013 1.013 0 1 1 1.013-1.012 1.013 1.013 0 0 1-1.013 1.012m0-4.725a1.013 1.013 0 1 1 1.013-1.012 1.013 1.013 0 0 1-1.013 1.013zm3.713-2.025a1.013 1.013 0 1 1 1.012-1.013 1.013 1.013 0 0 1-1.012 1.013m3.713 2.025a1.013 1.013 0 1 1 1.013-1.012 1.013 1.013 0 0 1-1.013 1.013z"/></svg>