<svg xmlns="http://www.w3.org/2000/svg" width="24" height="24" fill="currentColor" viewBox="0 0 24 24"><path d="m20.074 4.759-4.912 16.2a.675.675 0 0 1-1.259.105l-3.59-7.377-7.376-3.59a.675.675 0 0 1 .105-1.259l16.2-4.912a.675.675 0 0 1 .832.833" opacity=".2"/><path d="M20.38 3.62a1.35 1.35 0 0 0-1.321-.344h-.013L2.851 8.19a1.35 1.35 0 0 0-.21 2.514l7.165 3.49 3.485 7.161a1.34 1.34 0 0 0 1.218.77q.058 0 .116-.005a1.34 1.34 0 0 0 1.181-.971l4.911-16.195v-.013a1.35 1.35 0 0 0-.338-1.321zm-5.863 17.142-.004.012v-.006l-3.38-6.944 4.05-4.05a.675.675 0 0 0-.954-.954l-4.05 4.05-6.947-3.38h-.006.012l16.187-4.915z"/></svg>