<svg viewBox="0 0 24 24" fill="none" xmlns="http://www.w3.org/2000/svg" width="24" height="24">
<path fill-rule="evenodd" clip-rule="evenodd" d="M19.3405 3.90039C19.7599 3.90039 20.0999 4.24037 20.0999 4.65977V19.341C20.0999 19.7604 19.7599 20.1004 19.3405 20.1004H4.65928C4.23989 20.1004 3.8999 19.7604 3.8999 19.341V4.65977C3.8999 4.24037 4.23989 3.90039 4.65928 3.90039H19.3405ZM8.26928 7.01403C8.24208 7.01494 8.21515 7.01779 8.1882 7.02194C8.177 7.02365 8.16558 7.02365 8.15458 7.02589L8.12887 7.03182C8.1013 7.03859 8.07451 7.04829 8.04779 7.05852C8.03931 7.06177 8.03039 7.06385 8.02208 7.06742C7.98554 7.08312 7.95018 7.1024 7.91628 7.12477L7.91035 7.12872C7.87993 7.14924 7.85199 7.17292 7.82532 7.19794L7.8095 7.21178L5.89524 9.12604C5.62872 9.3929 5.62862 9.82526 5.89524 10.0921C6.16214 10.3589 6.59536 10.359 6.86226 10.0921L7.60878 9.34456V14.6562L6.86226 13.9097C6.59545 13.6429 6.16216 13.6431 5.89524 13.9097C5.62834 14.1766 5.62834 14.6098 5.89524 14.8767L7.80356 16.7841C7.8368 16.8182 7.87362 16.8484 7.91332 16.875C7.92442 16.8825 7.9365 16.8881 7.94792 16.8948C7.97546 16.911 8.00313 16.927 8.03296 16.9393C8.04029 16.9423 8.04829 16.9435 8.0557 16.9462C8.08935 16.9587 8.12361 16.9698 8.15952 16.9769C8.24669 16.9941 8.33633 16.9939 8.42352 16.9769C8.45946 16.9698 8.49366 16.9587 8.52734 16.9462C8.53477 16.9435 8.54274 16.9423 8.55009 16.9393C8.57995 16.9271 8.60754 16.911 8.63512 16.8948C8.64657 16.8881 8.6586 16.8824 8.66973 16.875C8.70754 16.8498 8.74354 16.8221 8.77553 16.79L10.6888 14.8767C10.9554 14.6098 10.9555 14.1765 10.6888 13.9097C10.422 13.6433 9.98958 13.6433 9.72277 13.9097L8.97526 14.6572V9.34456L9.72277 10.0921C9.98961 10.3589 10.4219 10.3588 10.6888 10.0921C10.9554 9.82515 10.9556 9.39283 10.6888 9.12604L8.77553 7.21178C8.74422 7.1805 8.70999 7.15365 8.67467 7.12971C8.67028 7.12674 8.66529 7.12468 8.66083 7.1218C8.62928 7.10149 8.59673 7.08399 8.56294 7.0694C8.55451 7.06575 8.54583 7.06283 8.53723 7.05951C8.50732 7.04801 8.47722 7.03797 8.44626 7.03084C8.43131 7.02738 8.41609 7.02538 8.40078 7.02292C8.37317 7.0185 8.34561 7.01505 8.31772 7.01403C8.30918 7.01371 8.30064 7.01205 8.29202 7.01205C8.2844 7.01205 8.27683 7.01378 8.26928 7.01403ZM13.3436 15.6203C12.9664 15.6205 12.6614 15.9262 12.6614 16.3035C12.6614 16.681 12.9672 16.9868 13.3446 16.9868H18.3063C18.6833 16.9863 18.9895 16.6807 18.9895 16.3035C18.9895 15.9262 18.6826 15.6205 18.3053 15.6203H13.3436ZM13.3436 12.8547C12.9664 12.855 12.6614 13.1606 12.6614 13.5379C12.6614 13.9154 12.9672 14.2212 13.3446 14.2212H18.3063C18.6833 14.2207 18.9895 13.9151 18.9895 13.5379C18.9895 13.1606 18.6826 12.8549 18.3053 12.8547H13.3436ZM13.3436 9.93782C12.9664 9.93808 12.6614 10.2438 12.6614 10.6211C12.6614 10.9985 12.9672 11.3043 13.3446 11.3043H18.3063C18.6833 11.3038 18.9895 10.9982 18.9895 10.6211C18.9895 10.2437 18.6826 9.93803 18.3053 9.93782H13.3436ZM13.3436 6.99524C12.9664 6.99551 12.6614 7.30119 12.6614 7.67848C12.6614 8.05593 12.9672 8.36172 13.3446 8.36172H18.3063C18.6833 8.36124 18.9895 8.05563 18.9895 7.67848C18.9895 7.30116 18.6826 6.99545 18.3053 6.99524H13.3436Z" fill="black"/>
</svg>