<svg viewBox="0 0 24 24" fill="none" xmlns="http://www.w3.org/2000/svg" width="24" height="24">
<path d="M8.99316 10.3701C9.26382 10.3701 9.46504 10.4982 9.5957 10.7549C9.72634 11.0115 9.79197 11.4315 9.79199 12.0146C9.79199 12.5979 9.72632 13.0252 9.5957 13.2959C9.46504 13.5619 9.26383 13.6953 8.99316 13.6953C8.72269 13.6952 8.52221 13.5618 8.3916 13.2959C8.26096 13.0252 8.19531 12.5979 8.19531 12.0146C8.19534 11.4315 8.26096 11.0115 8.3916 10.7549C8.52221 10.4984 8.72273 10.3702 8.99316 10.3701Z" fill="black"/>
<path fill-rule="evenodd" clip-rule="evenodd" d="M19.4258 4.75C20.0742 4.75047 20.6005 5.27625 20.6006 5.9248V18.0752C20.6005 18.7237 20.0742 19.2495 19.4258 19.25H4.5752C3.92642 19.2499 3.39952 18.724 3.39941 18.0752V5.9248C3.39952 5.27602 3.92642 4.75011 4.5752 4.75H19.4258ZM8.99316 9.48828C8.59667 9.48835 8.26059 9.58629 7.98535 9.78223C7.71484 9.97353 7.50693 10.2579 7.3623 10.6357C7.22233 11.009 7.15237 11.4688 7.15234 12.0146C7.15234 12.8312 7.30849 13.4641 7.62109 13.9121C7.93836 14.3553 8.39602 14.5771 8.99316 14.5771C9.3945 14.5771 9.73129 14.477 10.002 14.2764C10.2725 14.0758 10.4772 13.786 10.6172 13.4082C10.7619 13.0255 10.835 12.5606 10.835 12.0146C10.8349 11.1935 10.6779 10.5679 10.3652 10.1387C10.0526 9.70492 9.59499 9.48828 8.99316 9.48828ZM12.0078 13.3447C11.8212 13.3447 11.6716 13.4007 11.5596 13.5127C11.4523 13.6199 11.3985 13.7601 11.3984 13.9326C11.3984 14.1099 11.4523 14.2552 11.5596 14.3672C11.6716 14.4792 11.8211 14.5352 12.0078 14.5352C12.1943 14.5352 12.3388 14.479 12.4414 14.3672C12.5487 14.2552 12.6025 14.11 12.6025 13.9326C12.6025 13.7601 12.5487 13.6199 12.4414 13.5127C12.3388 13.4009 12.1943 13.3447 12.0078 13.3447ZM15.3447 9.50195C15.2469 9.50201 15.1465 9.52034 15.0439 9.55762C14.946 9.59495 14.848 9.64443 14.75 9.70508L13.7773 10.293C13.6747 10.3583 13.6047 10.4379 13.5674 10.5312C13.5301 10.6198 13.5205 10.7105 13.5391 10.8037C13.5624 10.8923 13.6066 10.9698 13.6719 11.0352C13.7372 11.1005 13.8147 11.1403 13.9033 11.1543C13.9966 11.1682 14.0969 11.1424 14.2041 11.0771L14.7148 10.7656V13.6113H14.0078C13.8587 13.6114 13.7443 13.6481 13.665 13.7227C13.5857 13.7973 13.5459 13.9072 13.5459 14.0518C13.5459 14.1917 13.5858 14.3015 13.665 14.3809C13.7443 14.4601 13.8587 14.4999 14.0078 14.5H16.4375C16.582 14.4999 16.6942 14.4623 16.7734 14.3877C16.8526 14.3084 16.8926 14.1963 16.8926 14.0518C16.8925 13.9072 16.8527 13.7973 16.7734 13.7227C16.6942 13.6481 16.582 13.6114 16.4375 13.6113H15.7998V9.94336C15.7998 9.79403 15.7578 9.68426 15.6738 9.61426C15.5945 9.53963 15.4847 9.50195 15.3447 9.50195Z" fill="black"/>
</svg>