<svg xmlns="http://www.w3.org/2000/svg" width="24" height="24" fill="currentColor" viewBox="0 0 24 24"><path d="M7.95 12.675a2.025 2.025 0 1 1-2.025-2.025 2.025 2.025 0 0 1 2.025 2.025M12 6.6a2.025 2.025 0 1 0 2.025 2.025A2.025 2.025 0 0 0 12 6.6m6.075 6.75a2.025 2.025 0 1 0 2.025 2.025 2.025 2.025 0 0 0-2.025-2.025" opacity=".2"/><path d="M6.6 10.059V4.575a.675.675 0 0 0-1.35 0v5.484a2.7 2.7 0 0 0 0 5.231v4.134a.675.675 0 0 0 1.35 0V15.29a2.7 2.7 0 0 0 0-5.231m-.675 3.966a1.35 1.35 0 1 1 1.35-1.35 1.35 1.35 0 0 1-1.35 1.35m6.75-8.016V4.575a.675.675 0 0 0-1.35 0v1.434a2.7 2.7 0 0 0 0 5.231v8.184a.675.675 0 0 0 1.35 0V11.24a2.7 2.7 0 0 0 0-5.231M12 9.975a1.35 1.35 0 1 1 1.35-1.35A1.35 1.35 0 0 1 12 9.975m8.775 5.4a2.705 2.705 0 0 0-2.025-2.616V4.575a.675.675 0 0 0-1.35 0v8.184a2.7 2.7 0 0 0 0 5.231v1.434a.675.675 0 0 0 1.35 0V17.99a2.705 2.705 0 0 0 2.025-2.616zm-2.7 1.35a1.35 1.35 0 1 1 1.35-1.35 1.35 1.35 0 0 1-1.35 1.35"/></svg>