<svg xmlns="http://www.w3.org/2000/svg" width="24" height="24" fill="currentColor" viewBox="0 0 24 24"><path d="M20.775 9.499c-.107 3.253-2.812 5.876-6.067 5.876a6 6 0 0 1-2.271-.436l-1.111 1.111H9.301v2.025H7.276V20.1h-2.7a.675.675 0 0 1-.675-.675v-2.421a.68.68 0 0 1 .197-.477l4.964-4.964a6 6 0 0 1-.436-2.271c0-3.255 2.622-5.96 5.876-6.064a6.075 6.075 0 0 1 6.274 6.271z" opacity=".2"/><path d="M19.473 4.527A6.75 6.75 0 0 0 8.28 11.391L3.621 16.05a1.34 1.34 0 0 0-.396.954v2.421a1.35 1.35 0 0 0 1.35 1.35h2.7a.675.675 0 0 0 .675-.675v-1.35H9.3a.675.675 0 0 0 .675-.675v-1.35h1.35a.68.68 0 0 0 .478-.197l.807-.807a6.7 6.7 0 0 0 2.091.33h.008a6.75 6.75 0 0 0 4.765-11.523zm.627 4.95c-.092 2.876-2.51 5.219-5.391 5.223H14.7a5.4 5.4 0 0 1-1.995-.381.675.675 0 0 0-.746.142l-.913.914H9.3a.675.675 0 0 0-.675.675v1.35h-1.35a.675.675 0 0 0-.675.675v1.35H4.575v-2.421l4.964-4.963a.675.675 0 0 0 .142-.746A5.4 5.4 0 0 1 9.3 9.293c0-2.881 2.346-5.299 5.223-5.391A5.4 5.4 0 0 1 20.1 9.477m-2.7-1.865a1.013 1.013 0 1 1-1.012-1.013A1.013 1.013 0 0 1 17.4 7.612"/></svg>