<svg xmlns="http://www.w3.org/2000/svg" width="24" height="24" fill="currentColor" viewBox="0 0 24 24"><path d="M19.353 4.647a6.581 6.581 0 0 0-10.88 6.789L3.74 16.169a1.18 1.18 0 0 0-.346.835v2.421a1.18 1.18 0 0 0 1.181 1.181h2.7a.506.506 0 0 0 .506-.506v-1.519H9.3a.506.506 0 0 0 .506-.506v-1.519h1.519a.5.5 0 0 0 .358-.149l.882-.881a6.6 6.6 0 0 0 2.136.354h.008a6.581 6.581 0 0 0 4.645-11.235zm.915 4.836c-.095 2.967-2.588 5.383-5.559 5.386a5.6 5.6 0 0 1-2.068-.394.51.51 0 0 0-.56.106l-.967.963H9.299a.506.506 0 0 0-.506.506v1.519H7.274a.506.506 0 0 0-.506.506v1.519H4.574a.17.17 0 0 1-.169-.169v-2.421a.17.17 0 0 1 .049-.119l4.964-4.964a.51.51 0 0 0 .106-.56 5.5 5.5 0 0 1-.394-2.068c0-2.971 2.42-5.464 5.386-5.562a5.57 5.57 0 0 1 5.752 5.751zm-3.038-1.87a.844.844 0 1 1-.844-.844.844.844 0 0 1 .844.844"/></svg>