<svg xmlns="http://www.w3.org/2000/svg" width="24" height="24" fill="currentColor" viewBox="0 0 24 24"><path d="M18.075 4.069H14.7a1.18 1.18 0 0 0-1.181 1.181v13.5a1.18 1.18 0 0 0 1.181 1.181h3.375a1.18 1.18 0 0 0 1.181-1.181V5.25a1.18 1.18 0 0 0-1.181-1.181m.169 14.681a.17.17 0 0 1-.169.169H14.7a.17.17 0 0 1-.169-.169V5.25a.17.17 0 0 1 .169-.169h3.375a.17.17 0 0 1 .169.169zM9.3 4.069H5.925A1.18 1.18 0 0 0 4.744 5.25v13.5a1.18 1.18 0 0 0 1.181 1.181H9.3a1.18 1.18 0 0 0 1.181-1.181V5.25A1.18 1.18 0 0 0 9.3 4.069m.169 14.681a.17.17 0 0 1-.169.169H5.925a.17.17 0 0 1-.169-.169V5.25a.17.17 0 0 1 .169-.169H9.3a.17.17 0 0 1 .169.169z"/></svg>