<svg xmlns="http://www.w3.org/2000/svg" width="24" height="24" fill="currentColor" viewBox="0 0 24 24"><path d="M18.75 5.25v13.5a.675.675 0 0 1-.675.675H14.7a.675.675 0 0 1-.675-.675V5.25a.675.675 0 0 1 .675-.675h3.375a.675.675 0 0 1 .675.675M9.3 4.575H5.925a.675.675 0 0 0-.675.675v13.5a.675.675 0 0 0 .675.675H9.3a.675.675 0 0 0 .675-.675V5.25a.675.675 0 0 0-.675-.675" opacity=".2"/><path d="M18.075 3.9H14.7a1.35 1.35 0 0 0-1.35 1.35v13.5a1.35 1.35 0 0 0 1.35 1.35h3.375a1.35 1.35 0 0 0 1.35-1.35V5.25a1.35 1.35 0 0 0-1.35-1.35m0 14.85H14.7V5.25h3.375zM9.3 3.9H5.925a1.35 1.35 0 0 0-1.35 1.35v13.5a1.35 1.35 0 0 0 1.35 1.35H9.3a1.35 1.35 0 0 0 1.35-1.35V5.25A1.35 1.35 0 0 0 9.3 3.9m0 14.85H5.925V5.25H9.3z"/></svg>