<svg xmlns="http://www.w3.org/2000/svg" width="24" height="24" fill="currentColor" viewBox="0 0 24 24"><path d="m20.26 7.51-3.771-3.771a1.18 1.18 0 0 0-1.671 0L4.414 14.144a1.18 1.18 0 0 0-.346.835v3.771a1.18 1.18 0 0 0 1.181 1.181H9.02a1.18 1.18 0 0 0 .835-.346L20.259 9.18a1.18 1.18 0 0 0 0-1.671zM9.139 18.869a.17.17 0 0 1-.119.05H5.249a.17.17 0 0 1-.169-.169v-3.771a.17.17 0 0 1 .05-.119l7.544-7.545 4.009 4.009zM19.543 8.465l-2.144 2.144L13.39 6.6l2.144-2.145a.17.17 0 0 1 .239 0l3.77 3.771a.17.17 0 0 1 0 .239"/></svg>