<svg xmlns="http://www.w3.org/2000/svg" width="24" height="24" fill="currentColor" viewBox="0 0 24 24"><path d="M16.05 15.713a1.013 1.013 0 1 1-1.012-1.013 1.013 1.013 0 0 1 1.012 1.013M8.962 9.301a1.013 1.013 0 1 0-1.013-1.013 1.013 1.013 0 0 0 1.013 1.013M20.1 5.251v13.5a1.35 1.35 0 0 1-1.35 1.35H5.25a1.35 1.35 0 0 1-1.35-1.35v-13.5a1.35 1.35 0 0 1 1.35-1.35h13.5a1.35 1.35 0 0 1 1.35 1.35M6.6 8.288a2.363 2.363 0 1 0 2.362-2.362A2.363 2.363 0 0 0 6.6 8.288m10.8 7.425a2.363 2.363 0 1 0-2.363 2.362 2.363 2.363 0 0 0 2.363-2.362m-.197-8.915a.675.675 0 0 0-.955 0l-9.45 9.45a.675.675 0 0 0 .955.955l9.45-9.45a.675.675 0 0 0 0-.955"/></svg>