<svg xmlns="http://www.w3.org/2000/svg" width="24" height="24" fill="currentColor" viewBox="0 0 24 24"><path d="M19.425 5.25v2.7a.675.675 0 0 1-.675.675h-2.7a.675.675 0 0 1-.675-.675v-2.7a.675.675 0 0 1 .675-.675h2.7a.675.675 0 0 1 .675.675M7.95 4.575h-2.7a.675.675 0 0 0-.675.675v2.7a.675.675 0 0 0 .675.675h2.7a.675.675 0 0 0 .675-.675v-2.7a.675.675 0 0 0-.675-.675m10.8 10.8h-2.7a.675.675 0 0 0-.675.675v2.7a.675.675 0 0 0 .675.675h2.7a.675.675 0 0 0 .675-.675v-2.7a.675.675 0 0 0-.675-.675m-10.8 0h-2.7a.675.675 0 0 0-.675.675v2.7a.675.675 0 0 0 .675.675h2.7a.675.675 0 0 0 .675-.675v-2.7a.675.675 0 0 0-.675-.675" opacity=".2"/><path d="M18.75 9.3a1.35 1.35 0 0 0 1.35-1.35v-2.7a1.35 1.35 0 0 0-1.35-1.35h-2.7a1.35 1.35 0 0 0-1.35 1.35v.675H9.3V5.25A1.35 1.35 0 0 0 7.95 3.9h-2.7A1.35 1.35 0 0 0 3.9 5.25v2.7A1.35 1.35 0 0 0 5.25 9.3h.675v5.4H5.25a1.35 1.35 0 0 0-1.35 1.35v2.7a1.35 1.35 0 0 0 1.35 1.35h2.7a1.35 1.35 0 0 0 1.35-1.35v-.675h5.4v.675a1.35 1.35 0 0 0 1.35 1.35h2.7a1.35 1.35 0 0 0 1.35-1.35v-2.7a1.35 1.35 0 0 0-1.35-1.35h-.675V9.3zm-2.7-4.05h2.7v2.7h-2.7zm-10.8 0h2.7v2.701h-2.7zm2.7 13.5h-2.7v-2.7h2.7v2.701zm10.8 0h-2.7v-2.7h2.7zm-2.025-4.05h-.675a1.35 1.35 0 0 0-1.35 1.35v.675H9.3v-.675a1.35 1.35 0 0 0-1.35-1.35h-.675V9.3h.675A1.35 1.35 0 0 0 9.3 7.95v-.675h5.4v.675a1.35 1.35 0 0 0 1.35 1.35h.675z"/></svg>