<svg xmlns="http://www.w3.org/2000/svg" width="24" height="24" fill="currentColor" viewBox="0 0 24 24"><path d="M19.425 4.744H7.275a1.18 1.18 0 0 0-1.181 1.181v1.519H4.575a1.18 1.18 0 0 0-1.181 1.181v9.45a1.18 1.18 0 0 0 1.181 1.181h12.15a1.18 1.18 0 0 0 1.181-1.181v-1.519h1.519a1.18 1.18 0 0 0 1.181-1.181v-9.45a1.18 1.18 0 0 0-1.181-1.181M7.106 5.925a.17.17 0 0 1 .169-.169h12.15a.17.17 0 0 1 .169.169v5.701l-1.137-1.137a1.18 1.18 0 0 0-1.671 0l-1.807 1.806-3.831-3.831a1.18 1.18 0 0 0-1.671 0l-2.371 2.371zm9.788 12.15a.17.17 0 0 1-.169.169H4.575a.17.17 0 0 1-.169-.169v-9.45a.17.17 0 0 1 .169-.169h1.519v6.919a1.18 1.18 0 0 0 1.181 1.181h9.619zm2.531-2.531H7.275a.17.17 0 0 1-.169-.169v-3.108l3.086-3.086a.17.17 0 0 1 .239 0l4.19 4.19a.506.506 0 0 0 .716 0l2.164-2.165a.17.17 0 0 1 .239 0l1.856 1.856v2.313a.17.17 0 0 1-.172.169zm-4.556-7.256a.844.844 0 1 1 .844.844.844.844 0 0 1-.844-.844"/></svg>