<svg xmlns="http://www.w3.org/2000/svg" fill="currentColor" viewBox="0 0 24 24" width="24" height="24"><path d="M17.231 10.988a.844.844 0 1 1-.844-.844.844.844 0 0 1 .844.844m-3.206-4.219H10.65a.507.507 0 0 0 0 1.013h3.375a.507.507 0 0 0 0-1.013m7.931 3.881v2.7a1.856 1.856 0 0 1-1.856 1.856h-.318l-1.407 3.941a1.18 1.18 0 0 1-1.113.784h-1.073a1.18 1.18 0 0 1-1.113-.784l-.202-.566H9.801l-.202.566a1.18 1.18 0 0 1-1.113.784H7.413a1.18 1.18 0 0 1-1.113-.784l-1.071-2.998a7.23 7.23 0 0 1-1.812-4.239 1.52 1.52 0 0 0-1.037 1.439.507.507 0 0 1-1.013 0 2.53 2.53 0 0 1 2.041-2.483 7.265 7.265 0 0 1 7.24-6.798h8.775a.507.507 0 0 1 0 1.013h-2.378a7.25 7.25 0 0 1 2.963 3.361q.076.174.142.353a1.856 1.856 0 0 1 1.804 1.855zm-1.012 0a.844.844 0 0 0-.844-.844h-.309a.51.51 0 0 1-.483-.354 6 6 0 0 0-.226-.607 6.24 6.24 0 0 0-5.732-3.764h-2.7a6.244 6.244 0 0 0-4.604 10.463.5.5 0 0 1 .103.169l1.104 3.092a.17.17 0 0 0 .159.115h1.073a.17.17 0 0 0 .159-.112l.321-.9a.51.51 0 0 1 .477-.337h5.786a.51.51 0 0 1 .477.337l.321.902a.17.17 0 0 0 .159.112h1.073a.17.17 0 0 0 .159-.112l1.527-4.277a.51.51 0 0 1 .477-.338h.675a.844.844 0 0 0 .844-.844z"/></svg>