<svg xmlns="http://www.w3.org/2000/svg" width="24" height="24" fill="currentColor" viewBox="0 0 24 24"><path d="m20.578 9.497-4.832 4.848c.967 1.935-.145 3.869-.853 4.809a.675.675 0 0 1-1.012.07l-9.107-9.102a.675.675 0 0 1 .056-1.005c2.502-2.018 4.843-.844 4.843-.844l4.832-4.848a.675.675 0 0 1 .954 0l5.12 5.114a.675.675 0 0 1 0 .957z" opacity=".2"/><path d="m21.055 8.066-5.121-5.12a1.35 1.35 0 0 0-1.909 0L9.5 7.485c-.899-.282-2.953-.622-5.096 1.109a1.35 1.35 0 0 0-.109 2.006l4.077 4.075-3.599 3.597a.675.675 0 0 0 .955.955l3.597-3.599 4.074 4.074a1.35 1.35 0 0 0 .955.397h.095a1.34 1.34 0 0 0 .982-.534c1.657-2.202 1.498-3.993 1.113-5.063l4.512-4.528a1.35 1.35 0 0 0-.001-1.909zm-.955.955-4.832 4.848a.675.675 0 0 0-.126.778c.798 1.597-.152 3.256-.788 4.102L5.25 9.644c1.019-.822 1.995-1.039 2.74-1.039a3.4 3.4 0 0 1 1.378.273.675.675 0 0 0 .78-.127L14.979 3.9z"/></svg>