<svg viewBox="0 0 24 24" fill="none" xmlns="http://www.w3.org/2000/svg" width="24" height="24">
<path d="M2.69757 15.2235C2.57108 15.3501 2.50002 15.5217 2.50002 15.7007C2.50002 15.8796 2.57108 16.0513 2.69757 16.1778L7.81576 21.2985C7.94233 21.425 8.11395 21.4961 8.2929 21.4961C8.47184 21.4961 8.64347 21.425 8.77004 21.2985L13.6047 16.4504C13.6047 16.4504 15.9461 17.6206 18.447 15.6024C18.5212 15.543 18.582 15.4687 18.6254 15.3842C18.6689 15.2997 18.694 15.2071 18.6992 15.1122C18.7044 15.0174 18.6895 14.9225 18.6555 14.8338C18.6215 14.7451 18.5691 14.6646 18.5019 14.5975L9.39779 5.49427C9.3296 5.42658 9.24776 5.37423 9.15772 5.34072C9.06768 5.3072 8.97152 5.29329 8.87568 5.29992C8.77983 5.30655 8.6865 5.33357 8.60194 5.37916C8.51737 5.42475 8.44351 5.48787 8.38529 5.5643C7.67738 6.50592 6.56532 8.44064 7.53226 10.3737L2.69757 15.2235Z" fill="black" fill-opacity="0.2"/>
<path d="M3 15.6987C3.00013 15.7448 3.0183 15.7891 3.05078 15.8218L8.16895 20.9449C8.20175 20.9777 8.24662 20.9957 8.29297 20.9957C8.3391 20.9957 8.38424 20.9784 8.41699 20.9459L8.41602 20.9449L13.251 16.0954C13.4029 15.943 13.6346 15.9048 13.8271 16.0006C13.829 16.0015 13.8332 16.0029 13.8389 16.0055C13.8508 16.0109 13.8708 16.0196 13.8984 16.0309C13.9544 16.0537 14.0413 16.0866 14.1543 16.1208C14.3808 16.1893 14.7102 16.264 15.1104 16.2819C15.902 16.3175 16.9887 16.1339 18.1328 15.2102L18.1348 15.2093C18.1539 15.1939 18.1694 15.1744 18.1807 15.1526C18.1919 15.1307 18.1989 15.1068 18.2002 15.0823C18.2015 15.0577 18.1973 15.033 18.1885 15.01C18.1841 14.9986 18.1784 14.9879 18.1719 14.9777L18.1484 14.9484L9.04395 5.84135C9.02652 5.82433 9.00621 5.81177 8.9834 5.80325C8.96005 5.79455 8.935 5.79078 8.91016 5.7925C8.88532 5.79422 8.86078 5.80119 8.83887 5.81301C8.8181 5.82427 8.80081 5.84044 8.78613 5.85893C8.0876 6.78845 7.15417 8.49519 7.97949 10.1458C8.07539 10.3379 8.0382 10.57 7.88672 10.7222L3.05176 15.5737L3.05078 15.5746C3.01818 15.6074 3 15.6524 3 15.6987ZM2 15.6987C2 15.426 2.09444 15.1624 2.26562 14.9533L2.34375 14.8673L6.9375 10.2581C6.10694 8.1605 7.30415 6.1636 7.98535 5.25713L7.9873 5.25518C8.08853 5.12224 8.21725 5.01216 8.36426 4.93279C8.51137 4.85345 8.67409 4.80564 8.84082 4.79406C9.00763 4.78252 9.17533 4.80705 9.33203 4.86538C9.48877 4.92374 9.63131 5.0152 9.75 5.13306L18.8555 14.2411C18.9723 14.3578 19.063 14.4982 19.1221 14.6524C19.1812 14.8068 19.2072 14.9719 19.1982 15.137C19.1892 15.3021 19.1459 15.4638 19.0703 15.6108C18.9947 15.7578 18.8888 15.8875 18.7598 15.9908C17.4037 17.0847 16.0692 17.3264 15.0654 17.2814C14.5678 17.259 14.1558 17.166 13.8652 17.0782C13.8162 17.0633 13.7707 17.0475 13.7285 17.0332L9.12402 21.6512L9.12305 21.6522C8.90276 21.8723 8.60431 21.9961 8.29297 21.9961C7.98147 21.9961 7.68225 21.8725 7.46191 21.6522L2.34375 16.5291C2.12373 16.3088 2.00013 16.0101 2 15.6987Z" fill="black"/>
<path d="M14.3083 10.3832C14.1131 10.5785 13.7966 10.5784 13.6013 10.3832C13.4061 10.1878 13.4061 9.87119 13.6013 9.67585L17.6755 5.60004C17.8708 5.4047 18.1873 5.4047 18.3826 5.60004C18.5777 5.79539 18.5778 6.11205 18.3826 6.30735L14.3083 10.3832Z" fill="black"/>
<path d="M12.5049 2.99648C12.2287 2.99648 12.0049 2.77254 12.0049 2.49629C12.0049 2.22004 12.2287 1.99609 12.5049 1.99609H21.501C21.7771 1.99609 22.001 2.22004 22.001 2.49629C22.001 2.77254 21.7771 2.99648 21.501 2.99648H12.5049Z" fill="black"/>
</svg>