<svg viewBox="0 0 24 24" fill="none" xmlns="http://www.w3.org/2000/svg" width="24" height="24">
<path d="M2.00391 15.7036C2.00391 15.4311 2.09835 15.1675 2.26953 14.9585L2.34766 14.8726L6.94141 10.2651C6.11085 8.16834 7.30805 6.17223 7.98926 5.26611C8.09049 5.13322 8.22116 5.02124 8.36816 4.9419C8.51528 4.86258 8.678 4.8148 8.84473 4.80322C9.01153 4.79169 9.17924 4.8162 9.33594 4.87451C9.49267 4.93285 9.63522 5.02427 9.75391 5.14209L18.8594 14.2466C18.9762 14.3632 19.0669 14.5036 19.126 14.6577C19.1851 14.812 19.2112 14.9771 19.2021 15.1421C19.1931 15.3071 19.1498 15.4687 19.0742 15.6157C18.9986 15.7627 18.8927 15.8923 18.7637 15.9956C17.4076 17.0891 16.0731 17.3307 15.0693 17.2856C14.5717 17.2633 14.1597 17.1704 13.8691 17.0825C13.827 17.0698 13.7874 17.0563 13.7503 17.0437L13.7324 17.0376L9.12793 21.6538C8.90764 21.8738 8.60822 21.9985 8.29688 21.9985C7.98538 21.9985 7.68615 21.875 7.46582 21.6548L2.34766 16.5337C2.12763 16.3135 2.00403 16.0149 2.00391 15.7036Z" fill="black"/>
<path d="M14.4431 10.5142C14.1795 10.7774 13.7525 10.7775 13.489 10.5142C13.2254 10.2506 13.2254 9.82269 13.489 9.55908L17.5632 5.48487C17.8268 5.22126 18.2547 5.22126 18.5183 5.48487C18.7817 5.74836 18.7815 6.17538 18.5183 6.43897L14.4431 10.5142Z" fill="black"/>
<path d="M21.3203 2.0022C21.693 2.00233 21.9951 2.30429 21.9951 2.677C21.9951 3.04971 21.693 3.35168 21.3203 3.35181L12.6758 3.35181C12.303 3.35181 12.001 3.04979 12.001 2.677C12.001 2.30421 12.303 2.0022 12.6758 2.0022L21.3203 2.0022Z" fill="black"/>
</svg>