<svg viewBox="0 0 24 24" fill="none" xmlns="http://www.w3.org/2000/svg" width="24" height="24">
<path d="M21.3034 8.77645C21.4299 8.64988 21.501 8.47826 21.501 8.29931C21.501 8.12037 21.4299 7.94875 21.3034 7.82217L16.1852 2.70145C16.0586 2.57496 15.887 2.50391 15.7081 2.50391C15.5291 2.50391 15.3575 2.57496 15.2309 2.70145L10.3962 7.54964C10.3962 7.54964 8.05484 6.37936 5.55397 8.39761C5.47981 8.45697 5.41901 8.53132 5.37556 8.61579C5.3321 8.70025 5.30696 8.79295 5.30178 8.8878C5.29661 8.98265 5.31151 9.07752 5.34552 9.16622C5.37952 9.25492 5.43186 9.33544 5.49912 9.40252L14.6032 18.5057C14.6714 18.5734 14.7532 18.6258 14.8433 18.6593C14.9333 18.6928 15.0295 18.7067 15.1253 18.7001C15.2211 18.6934 15.3145 18.6664 15.399 18.6208C15.4836 18.5753 15.5575 18.5121 15.6157 18.4357C16.3236 17.4941 17.4357 15.5594 16.4687 13.6263L21.3034 8.77645Z" fill="black" fill-opacity="0.2"/>
<path d="M21.001 8.30129C21.0008 8.2552 20.9827 8.21088 20.9502 8.17819L15.832 3.0551C15.7992 3.02235 15.7544 3.0043 15.708 3.0043C15.6619 3.00432 15.6167 3.02165 15.584 3.05412L15.585 3.0551L10.75 7.90465C10.5981 8.05701 10.3664 8.09516 10.1738 7.99941C10.172 7.99852 10.1678 7.99712 10.1621 7.99453C10.1502 7.98911 10.1302 7.98038 10.1025 7.96913C10.0466 7.94633 9.95969 7.91343 9.84668 7.87925C9.62013 7.81073 9.29075 7.73602 8.89062 7.71805C8.09898 7.68252 7.01224 7.86611 5.86816 8.78976L5.86621 8.79074C5.84707 8.80611 5.83154 8.82557 5.82031 8.8474C5.80908 8.86928 5.80212 8.89318 5.80078 8.91774C5.79944 8.94234 5.80368 8.96703 5.8125 8.99003C5.81686 9.00139 5.82253 9.01211 5.8291 9.02227L5.85254 9.05158L14.957 18.1587C14.9745 18.1757 14.9948 18.1882 15.0176 18.1968C15.0409 18.2054 15.066 18.2092 15.0908 18.2075C15.1157 18.2058 15.1402 18.1988 15.1621 18.187C15.1829 18.1757 15.2002 18.1596 15.2148 18.1411C15.9134 17.2116 16.8468 15.5048 16.0215 13.8542C15.9256 13.6621 15.9628 13.43 16.1143 13.2778L20.9492 8.42634L20.9502 8.42536C20.9828 8.39256 21.001 8.34755 21.001 8.30129ZM22.001 8.30129C22.001 8.57395 21.9065 8.83757 21.7354 9.0467L21.6572 9.13267L17.0635 13.7419C17.894 15.8395 16.6968 17.8364 16.0156 18.7429L16.0137 18.7448C15.9124 18.8778 15.7837 18.9878 15.6367 19.0672C15.4896 19.1466 15.3269 19.1944 15.1602 19.2059C14.9934 19.2175 14.8256 19.193 14.6689 19.1346C14.5122 19.0763 14.3697 18.9848 14.251 18.8669L5.14551 9.75889C5.02872 9.6422 4.938 9.50178 4.87891 9.3476C4.8198 9.19323 4.79373 9.02809 4.80273 8.86303C4.81177 8.69793 4.85505 8.53625 4.93066 8.38921C5.00631 8.24218 5.11216 8.11252 5.24121 8.00918C6.59727 6.91528 7.93181 6.67359 8.93555 6.71864C9.43315 6.74099 9.84519 6.83398 10.1357 6.92184C10.1848 6.93668 10.2303 6.95248 10.2725 6.96678L14.877 2.34877L14.8779 2.34779C15.0982 2.12771 15.3967 2.00392 15.708 2.00391C16.0195 2.00391 16.3187 2.12752 16.5391 2.34779L21.6572 7.47089C21.8773 7.69118 22.0008 7.98988 22.001 8.30129Z" fill="black"/>
<path d="M9.69263 13.6168C9.88785 13.4215 10.2044 13.4216 10.3997 13.6168C10.5949 13.8122 10.5949 14.1288 10.3997 14.3241L6.32544 18.4C6.13018 18.5953 5.81367 18.5953 5.61841 18.4C5.42327 18.2046 5.42319 17.8879 5.61841 17.6927L9.69263 13.6168Z" fill="black"/>
<path d="M11.4961 21.0035C11.7722 21.0035 11.9961 21.2275 11.9961 21.5037C11.9961 21.78 11.7722 22.0039 11.4961 22.0039H2.5C2.22386 22.0039 2 21.78 2 21.5037C2 21.2275 2.22386 21.0035 2.5 21.0035H11.4961Z" fill="black"/>
</svg>