<svg xmlns="http://www.w3.org/2000/svg" width="24" height="24" fill="currentColor" viewBox="0 0 24 24"><path d="M18.75 4.575v13.5a2.025 2.025 0 0 1-2.025 2.025h-9.45a2.025 2.025 0 0 1-2.025-2.025v-13.5z" opacity=".2"/><path d="M15.375 12a.675.675 0 0 1-.675.675H9.3a.675.675 0 0 1 0-1.35h5.4a.675.675 0 0 1 .675.675m-.675 2.025H9.3a.675.675 0 0 0 0 1.35h5.4a.675.675 0 0 0 0-1.35m4.725-9.45v13.5a2.7 2.7 0 0 1-2.7 2.7h-9.45a2.7 2.7 0 0 1-2.7-2.7v-13.5A.675.675 0 0 1 5.25 3.9h2.025v-.675a.675.675 0 0 1 1.35 0V3.9h2.7v-.675a.675.675 0 0 1 1.35 0V3.9h2.7v-.675a.675.675 0 0 1 1.35 0V3.9h2.025a.675.675 0 0 1 .675.675m-1.35.675h-1.35v.675a.675.675 0 0 1-1.35 0V5.25h-2.7v.675a.675.675 0 0 1-1.35 0V5.25h-2.7v.675a.675.675 0 0 1-1.35 0V5.25h-1.35v12.825a1.35 1.35 0 0 0 1.35 1.35h9.45a1.35 1.35 0 0 0 1.35-1.35z"/></svg>