<svg xmlns="http://www.w3.org/2000/svg" width="24" height="24" fill="currentColor" viewBox="0 0 24 24"><path d="M18.75 3.9h-2.025v-.675a.675.675 0 0 0-1.35 0V3.9h-2.7v-.675a.675.675 0 0 0-1.35 0V3.9h-2.7v-.675a.675.675 0 0 0-1.35 0V3.9H5.25a.675.675 0 0 0-.675.675v13.5a2.7 2.7 0 0 0 2.7 2.7h9.45a2.7 2.7 0 0 0 2.7-2.7v-13.5a.675.675 0 0 0-.675-.675m-7.425 2.025a.675.675 0 0 1 1.35 0V6.6a.675.675 0 0 1-1.35 0zM7.95 7.275a.675.675 0 0 1-.675-.675v-.675a.675.675 0 0 1 1.35 0V6.6a.675.675 0 0 1-.675.675m6.75 8.1H9.3a.675.675 0 0 1 0-1.35h5.4a.675.675 0 0 1 0 1.35m0-2.7H9.3a.675.675 0 0 1 0-1.35h5.4a.675.675 0 0 1 0 1.35M16.725 6.6a.675.675 0 0 1-1.35 0v-.675a.675.675 0 0 1 1.35 0z"/></svg>