<svg xmlns="http://www.w3.org/2000/svg" width="24" height="24" fill="currentColor" viewBox="0 0 24 24"><path d="M21.45 12.675v2.7a.675.675 0 0 1-.675.675.6.6 0 0 1-.132-.014l-6.28-1.252v2.002l1.49 1.489a.68.68 0 0 1 .197.474v2.025a.675.675 0 0 1-.928.627L12 20.151l-3.122 1.25a.675.675 0 0 1-.928-.627v-2.025a.68.68 0 0 1 .197-.478l1.49-1.489v-1.999l-6.28 1.252a.6.6 0 0 1-.132.014.675.675 0 0 1-.675-.675v-2.7a.68.68 0 0 1 .373-.604l6.715-3.356V4.912a2.363 2.363 0 0 1 4.725 0v3.802l6.715 3.356a.68.68 0 0 1 .373.604z"/></svg>