<svg xmlns="http://www.w3.org/2000/svg" width="24" height="24" fill="currentColor" viewBox="0 0 24 24"><path d="M14.025 14.025v2.7l1.35 1.35v2.7L12 19.425l-3.375 1.35v-2.7l1.35-1.35v-2.7l-6.75 1.35v-2.7L9.975 9.3V5.25a2.025 2.025 0 0 1 4.05 0V9.3l6.75 3.375v2.7z" opacity=".2"/><path d="M21.077 12.071 14.7 8.883V5.25a2.7 2.7 0 0 0-5.4 0v3.633l-6.377 3.188a.68.68 0 0 0-.373.604v2.7a.675.675 0 0 0 .807.662L9.3 14.849v1.597l-1.153 1.152a.68.68 0 0 0-.197.478v2.7a.675.675 0 0 0 .928.627L12 20.153l3.122 1.25a.675.675 0 0 0 .928-.627v-2.7a.68.68 0 0 0-.197-.478L14.7 16.446v-1.597l5.943 1.188a.675.675 0 0 0 .807-.662v-2.7a.68.68 0 0 0-.373-.604m-.977 2.481-5.943-1.188a.675.675 0 0 0-.807.662v2.7a.68.68 0 0 0 .197.478l1.153 1.152v1.423l-2.447-.98a.68.68 0 0 0-.501 0l-2.452.98v-1.423l1.153-1.152a.68.68 0 0 0 .197-.478v-2.7a.675.675 0 0 0-.807-.662L3.9 14.552v-1.46l6.377-3.188a.68.68 0 0 0 .373-.604V5.25a1.35 1.35 0 0 1 2.7 0V9.3a.68.68 0 0 0 .373.604l6.377 3.188z"/></svg>