<svg viewBox="0 0 24 24" fill="none" xmlns="http://www.w3.org/2000/svg" width="24" height="24">
<path fill-rule="evenodd" clip-rule="evenodd" d="M18.75 19.9248C19.3988 19.9247 19.9247 19.3988 19.9248 18.75V5.25C19.9248 4.60115 19.3988 4.07533 18.75 4.0752H5.25C4.60116 4.0753 4.0752 4.60113 4.0752 5.25V18.75C4.0753 19.3988 4.60122 19.9247 5.25 19.9248H18.75ZM6.75 18C6.33579 18 6 17.6642 6 17.25V14.75C6 14.3358 6.33579 14 6.75 14H17.25C17.6642 14 18 14.3358 18 14.75V17.25C18 17.6642 17.6642 18 17.25 18H6.75Z" fill="black"/>
</svg>