<svg viewBox="0 0 24 24" fill="none" xmlns="http://www.w3.org/2000/svg" width="24" height="24">
<path d="M5.07544 5.25C5.07555 5.15344 5.15366 5.0752 5.25024 5.0752H18.7502C18.8467 5.0753 18.9249 5.1535 18.925 5.25V18.75C18.925 18.8466 18.8468 18.9247 18.7502 18.9248H5.25024C5.15359 18.9248 5.07544 18.8467 5.07544 18.75V5.25ZM4.07544 18.75C4.07544 19.3989 4.60131 19.9248 5.25024 19.9248H18.7502C19.3991 19.9247 19.925 19.3989 19.925 18.75V5.25C19.9249 4.60122 19.399 4.0753 18.7502 4.0752H5.25024C4.60137 4.0752 4.07555 4.60116 4.07544 5.25V18.75Z" fill="black"/>
<path d="M9.25 18C9.66421 18 10 17.6642 10 17.25V6.75C10 6.33579 9.66421 6 9.25 6H6.75C6.33579 6 6 6.33579 6 6.75V17.25C6 17.6642 6.33579 18 6.75 18H9.25Z" fill="black"/>
</svg>