<svg xmlns="http://www.w3.org/2000/svg" width="24" height="24" fill="currentColor" viewBox="0 0 24 24"><path d="M19.696 14.72a.5.5 0 0 0-.488-.03 1.856 1.856 0 1 1-.932-3.529 1.9 1.9 0 0 1 .932.174.506.506 0 0 0 .723-.457V7.275a1.18 1.18 0 0 0-1.181-1.181H15.5a3 3 0 0 0 .044-.506 2.88 2.88 0 0 0-.905-2.091 2.84 2.84 0 0 0-2.147-.772 2.87 2.87 0 0 0-2.639 3.369H6.601A1.18 1.18 0 0 0 5.42 7.275v2.913a2.87 2.87 0 0 0-2.598.861 2.869 2.869 0 0 0 1.882 4.825 3 3 0 0 0 .716-.037v2.913a1.18 1.18 0 0 0 1.181 1.181h12.15a1.18 1.18 0 0 0 1.181-1.181v-3.602a.5.5 0 0 0-.235-.428zm-.777 4.03a.17.17 0 0 1-.169.169H6.6a.17.17 0 0 1-.169-.169v-3.602a.506.506 0 0 0-.506-.506.5.5 0 0 0-.217.049 1.856 1.856 0 0 1-2.648-1.558 1.856 1.856 0 0 1 2.648-1.798.506.506 0 0 0 .723-.457V7.275a.17.17 0 0 1 .169-.169h3.939a.506.506 0 0 0 .457-.723 1.9 1.9 0 0 1-.169-.928 1.856 1.856 0 1 1 3.529.928.506.506 0 0 0 .452.723h3.94a.17.17 0 0 1 .169.169v2.914a2.87 2.87 0 0 0-3.369 2.639 2.84 2.84 0 0 0 .771 2.147 2.88 2.88 0 0 0 2.598.861z"/></svg>