<svg xmlns="http://www.w3.org/2000/svg" width="24" height="24" fill="currentColor" viewBox="0 0 24 24"><path d="M15.188 20.1h3.562a1.35 1.35 0 0 0 1.35-1.35v-3.177a.675.675 0 0 0-.933-.62 2 2 0 0 1-.754.149c-1.116 0-2.025-.937-2.025-2.087s.909-2.087 2.025-2.087a2 2 0 0 1 .754.149.675.675 0 0 0 .933-.627V7.273a1.35 1.35 0 0 0-1.35-1.35h-3.056a3 3 0 0 0 .019-.338 3.038 3.038 0 0 0-6.075 0 3 3 0 0 0 .019.338H6.601a1.35 1.35 0 0 0-1.35 1.35v2.719a3 3 0 0 0-.337-.019 3.038 3.038 0 0 0 0 6.075 3 3 0 0 0 .337-.019v2.719a1.35 1.35 0 0 0 1.35 1.35h3.562"/></svg>