<svg viewBox="0 0 24 24" fill="none" xmlns="http://www.w3.org/2000/svg" width="24" height="24">
<path d="M19.6001 7.27344V4.39844H16.7251C16.449 4.39844 16.2251 4.17458 16.2251 3.89844C16.2251 3.6223 16.449 3.39844 16.7251 3.39844H20.1001C20.3762 3.39844 20.6001 3.6223 20.6001 3.89844V7.27344C20.6001 7.54958 20.3762 7.77344 20.1001 7.77344C19.824 7.77344 19.6001 7.54958 19.6001 7.27344Z" fill="black"/>
<path d="M3.3999 16.7256C3.3999 16.4494 3.62376 16.2256 3.8999 16.2256C4.17604 16.2256 4.3999 16.4494 4.3999 16.7256V19.6006H7.2749C7.55104 19.6006 7.7749 19.8244 7.7749 20.1006C7.7749 20.3767 7.55104 20.6006 7.2749 20.6006H3.8999C3.62376 20.6006 3.3999 20.3767 3.3999 20.1006V16.7256Z" fill="black"/>
<path d="M19.6001 16.7256C19.6001 16.4494 19.824 16.2256 20.1001 16.2256C20.3762 16.2256 20.6001 16.4494 20.6001 16.7256V20.1006C20.6001 20.3767 20.3762 20.6006 20.1001 20.6006H16.7251C16.449 20.6006 16.2251 20.3767 16.2251 20.1006C16.2251 19.8244 16.449 19.6006 16.7251 19.6006H19.6001V16.7256Z" fill="black"/>
<path d="M3.3999 7.27344V3.89844C3.3999 3.6223 3.62376 3.39844 3.8999 3.39844H7.2749C7.55104 3.39844 7.7749 3.6223 7.7749 3.89844C7.7749 4.17458 7.55104 4.39844 7.2749 4.39844H4.3999V7.27344C4.3999 7.54958 4.17604 7.77344 3.8999 7.77344C3.62376 7.77344 3.3999 7.54958 3.3999 7.27344Z" fill="black"/>
<path d="M10.2358 6.55273C10.2358 6.52076 10.2102 6.49431 10.1782 6.49414H6.54541C6.51332 6.49414 6.48682 6.52065 6.48682 6.55273V10.1855C6.48699 10.2175 6.51343 10.2432 6.54541 10.2432H10.1782C10.2101 10.243 10.2357 10.2174 10.2358 10.1855V6.55273ZM11.3306 10.1855C11.3304 10.8219 10.8146 11.3377 10.1782 11.3379H6.54541C5.90887 11.3379 5.39324 10.822 5.39307 10.1855V6.55273C5.39307 5.91609 5.90876 5.40039 6.54541 5.40039H10.1782C10.8147 5.40056 11.3306 5.9162 11.3306 6.55273V10.1855Z" fill="black"/>
<path d="M10.2358 13.8174C10.2358 13.7854 10.2102 13.759 10.1782 13.7588H6.54541C6.51332 13.7588 6.48682 13.7853 6.48682 13.8174V17.4502C6.48699 17.4821 6.51343 17.5078 6.54541 17.5078H10.1782C10.2101 17.5076 10.2357 17.482 10.2358 17.4502V13.8174ZM11.3306 17.4502C11.3304 18.0866 10.8146 18.6024 10.1782 18.6025H6.54541C5.90887 18.6025 5.39324 18.0867 5.39307 17.4502V13.8174C5.39307 13.1807 5.90876 12.665 6.54541 12.665H10.1782C10.8147 12.6652 11.3306 13.1808 11.3306 13.8174V17.4502Z" fill="black"/>
<path d="M17.501 6.55273C17.501 6.52076 17.4753 6.49431 17.4434 6.49414H13.8105C13.7785 6.49414 13.752 6.52065 13.752 6.55273V10.1855C13.7521 10.2175 13.7786 10.2432 13.8105 10.2432H17.4434C17.4752 10.243 17.5008 10.2174 17.501 10.1855V6.55273ZM18.5957 10.1855C18.5955 10.8219 18.0798 11.3377 17.4434 11.3379H13.8105C13.174 11.3379 12.6584 10.822 12.6582 10.1855V6.55273C12.6582 5.91609 13.1739 5.40039 13.8105 5.40039H17.4434C18.0799 5.40056 18.5957 5.9162 18.5957 6.55273V10.1855Z" fill="black"/>
<path d="M12.6582 15.6338V13.2119C12.6582 12.9096 12.9028 12.665 13.2051 12.665C13.5074 12.665 13.752 12.9096 13.752 13.2119V15.6338C13.7519 15.936 13.5073 16.1807 13.2051 16.1807C12.9029 16.1807 12.6583 15.936 12.6582 15.6338Z" fill="black"/>
<path d="M15.0791 13.2119C15.0791 12.9096 15.3247 12.665 15.627 12.665C15.9291 12.6651 16.1738 12.9097 16.1738 13.2119V18.0557C16.1736 18.3577 15.929 18.6024 15.627 18.6025H13.2051C12.9029 18.6025 12.6584 18.3578 12.6582 18.0557C12.6582 17.7534 12.9028 17.5078 13.2051 17.5078H15.0791V13.2119Z" fill="black"/>
<path d="M18.0483 13.877C18.3505 13.8771 18.5952 14.1216 18.5952 14.4238C18.5952 14.726 18.3505 14.9706 18.0483 14.9707H15.6265C15.3242 14.9707 15.0796 14.7261 15.0796 14.4238C15.0796 14.1215 15.3242 13.877 15.6265 13.877H18.0483Z" fill="black"/>
<path d="M17.5015 18.0537V16.8447C17.5015 16.5424 17.7461 16.2979 18.0483 16.2979C18.3506 16.2979 18.5952 16.5424 18.5952 16.8447V18.0537C18.595 18.3558 18.3505 18.6006 18.0483 18.6006C17.7462 18.6006 17.5017 18.3558 17.5015 18.0537Z" fill="black"/>
</svg>