<svg viewBox="0 0 24 24" fill="none" xmlns="http://www.w3.org/2000/svg" width="24" height="24">
<path d="M20.0991 3.22461C20.278 3.22461 20.4501 3.30857 20.5767 3.45801C20.7032 3.60761 20.7749 3.81089 20.7749 4.02246V19.9766C20.7749 20.1881 20.7032 20.3914 20.5767 20.541C20.4501 20.6905 20.2781 20.7744 20.0991 20.7744H3.8999C3.7209 20.7744 3.54895 20.6906 3.42236 20.541C3.29578 20.3914 3.22412 20.1881 3.22412 19.9766V4.02246C3.22412 3.81089 3.29578 3.60761 3.42236 3.45801C3.54894 3.30851 3.72095 3.22461 3.8999 3.22461H20.0991ZM5.25635 15.2617C4.88356 15.2617 4.58154 15.5637 4.58154 15.9365V18.7471C4.58154 19.1199 4.88356 19.4219 5.25635 19.4219H8.06689C8.43946 19.4216 8.7417 19.1197 8.7417 18.7471C8.7416 18.3745 8.4394 18.0725 8.06689 18.0723H5.93115V15.9365C5.93115 15.5639 5.62892 15.262 5.25635 15.2617ZM18.7476 15.2617C18.3749 15.2618 18.0728 15.5638 18.0728 15.9365V18.0723H15.937C15.5643 18.0723 15.2623 18.3744 15.2622 18.7471C15.2622 19.1199 15.5642 19.4219 15.937 19.4219H18.7476C19.1201 19.4216 19.4224 19.1197 19.4224 18.7471V15.9365C19.4224 15.5639 19.1201 15.262 18.7476 15.2617ZM8.29443 12.6729C7.73525 12.673 7.28298 13.1262 7.28271 13.6846V15.709C7.28284 16.2675 7.73517 16.7215 8.29443 16.7217H10.3179C10.8769 16.7213 11.3295 16.2673 11.3296 15.709V13.6846C11.3293 13.1264 10.8768 12.6732 10.3179 12.6729H8.29443ZM14.4302 12.6729C14.0574 12.6729 13.7554 12.9749 13.7554 13.3477V15.3721H12.812C12.4392 15.3721 12.1372 15.6741 12.1372 16.0469C12.1373 16.4196 12.4393 16.7217 12.812 16.7217H14.4302C14.8029 16.7217 15.1048 16.4196 15.105 16.0469V14.9766H16.0483C16.4208 14.9763 16.723 14.6743 16.7231 14.3018C16.7231 13.9291 16.4209 13.6272 16.0483 13.627H15.105V13.3477C15.105 12.9749 14.803 12.6729 14.4302 12.6729ZM9.97998 14.0225V15.3721H8.63232V14.0225H9.97998ZM8.29443 7.2793C7.7349 7.27943 7.28271 7.73353 7.28271 8.29199V10.3164C7.28287 10.8747 7.735 11.329 8.29443 11.3291H10.3179C10.8771 11.3287 11.3294 10.8746 11.3296 10.3164V8.29199C11.3296 7.73369 10.8772 7.27969 10.3179 7.2793H8.29443ZM13.6841 7.2793C13.1253 7.2793 12.6714 7.73219 12.6714 8.29199V10.3164C12.6715 10.8761 13.1254 11.3291 13.6841 11.3291H15.7114C16.2697 11.3286 16.724 10.8758 16.7241 10.3164V8.29199C16.7241 7.7325 16.2698 7.2798 15.7114 7.2793H13.6841ZM9.97998 8.62891V9.97949H8.63232V8.62891H9.97998ZM15.3735 8.62891V9.97949H14.021V8.62891H15.3735ZM5.25635 4.57812C4.88356 4.57812 4.58154 4.88014 4.58154 5.25293V8.06348C4.58154 8.43627 4.88356 8.73828 5.25635 8.73828C5.62892 8.73802 5.93115 8.43611 5.93115 8.06348V5.92773H8.06689C8.43946 5.92747 8.7417 5.62556 8.7417 5.25293C8.7417 4.8803 8.43946 4.57839 8.06689 4.57812H5.25635ZM15.937 4.57812C15.5642 4.57812 15.2622 4.88014 15.2622 5.25293C15.2622 5.62572 15.5642 5.92773 15.937 5.92773H18.0728V8.06348C18.0728 8.4362 18.3749 8.73818 18.7476 8.73828C19.1201 8.73802 19.4224 8.43611 19.4224 8.06348V5.25293C19.4224 4.8803 19.1201 4.57839 18.7476 4.57812H15.937Z" fill="black"/>
</svg>