<svg xmlns="http://www.w3.org/2000/svg" width="24" height="24" fill="currentColor" viewBox="0 0 24 24"><path d="M12.844 16.388a.844.844 0 1 1-.844-.844.844.844 0 0 1 .844.844M12 7.444c-1.772 0-3.206 1.287-3.206 2.869v.338a.506.506 0 0 0 1.012 0v-.338c0-1.023.984-1.856 2.194-1.856s2.194.833 2.194 1.856-.984 1.856-2.194 1.856a.506.506 0 0 0-.506.506v.675a.506.506 0 0 0 1.012 0v-.204c1.528-.218 2.7-1.406 2.7-2.833 0-1.582-1.434-2.869-3.206-2.869M20.606 12A8.606 8.606 0 1 1 12 3.394 8.616 8.616 0 0 1 20.606 12m-1.012 0A7.594 7.594 0 1 0 12 19.594 7.6 7.6 0 0 0 19.594 12"/></svg>