<svg xmlns="http://www.w3.org/2000/svg" width="24" height="24" fill="currentColor" viewBox="0 0 24 24"><path d="M12 3.225A8.775 8.775 0 1 0 20.775 12 8.784 8.784 0 0 0 12 3.225M12 17.4a1.013 1.013 0 1 1 1.012-1.012A1.013 1.013 0 0 1 12 17.4m.675-4.111v.061a.675.675 0 0 1-1.35 0v-.675A.675.675 0 0 1 12 12c1.116 0 2.025-.759 2.025-1.688S13.116 8.624 12 8.624s-2.025.759-2.025 1.688v.338a.675.675 0 0 1-1.35 0v-.338c0-1.675 1.514-3.037 3.375-3.037s3.375 1.363 3.375 3.037c0 1.466-1.161 2.694-2.7 2.977"/></svg>