<svg xmlns="http://www.w3.org/2000/svg" width="24" height="24" fill="currentColor" viewBox="0 0 24 24"><path d="M9.131 18.75a.506.506 0 0 1-.506.506h-4.05a1.856 1.856 0 0 1-1.603-2.784l3.097-5.353-1.583.422a.507.507 0 0 1-.262-.979l2.765-.74a.506.506 0 0 1 .623.359l.743 2.764a.506.506 0 0 1-.358.62.5.5 0 0 1-.132.018.506.506 0 0 1-.489-.375l-.422-1.586-3.108 5.356a.844.844 0 0 0 .727 1.266h4.05a.506.506 0 0 1 .506.506zm11.897-2.278-1.952-3.375a.506.506 0 0 0-.876.506l1.952 3.375a.844.844 0 0 1-.727 1.266h-6.203l1.161-1.161a.506.506 0 0 0-.716-.716l-2.025 2.025a.506.506 0 0 0 0 .715l2.025 2.025a.506.506 0 0 0 .716-.715l-1.161-1.161h6.203a1.856 1.856 0 0 0 1.603-2.784M12.73 4.153l3.098 5.353-1.583-.422a.506.506 0 0 0-.262.975l2.766.742a.506.506 0 0 0 .619-.359l.742-2.766a.506.506 0 1 0-.977-.262l-.426 1.588-3.103-5.355a1.856 1.856 0 0 0-3.206 0L8.44 7.022a.506.506 0 0 0 .877.506l1.954-3.375a.844.844 0 0 1 1.46 0z"/></svg>