<svg xmlns="http://www.w3.org/2000/svg" width="24" height="24" fill="currentColor" viewBox="0 0 24 24"><path d="M9.3 18.75a.675.675 0 0 1-.675.675h-4.05a2.025 2.025 0 0 1-1.752-3.037l2.363-4.075-1.166-.675a.675.675 0 0 1 .162-1.24l2.765-.74a.675.675 0 0 1 .827.478l.742 2.765a.675.675 0 0 1-.99.759l-1.171-.675-2.36 4.079a.675.675 0 0 0 .581 1.012h4.05a.675.675 0 0 1 .675.675zM12 3.9a.66.66 0 0 1 .584.337l2.363 4.075-1.166.675a.675.675 0 0 0 .16 1.234l2.766.742a.7.7 0 0 0 .175.023.675.675 0 0 0 .651-.5l.742-2.767a.675.675 0 0 0-.989-.759l-1.172.675-2.361-4.072a2.025 2.025 0 0 0-3.505 0L8.294 6.938a.675.675 0 0 0 1.169.675l1.954-3.375a.66.66 0 0 1 .584-.338zm9.174 12.488-1.952-3.375a.675.675 0 0 0-1.168.675l1.952 3.375a.675.675 0 0 1-.581 1.012H14.7v-1.35a.675.675 0 0 0-1.153-.478l-2.025 2.025a.675.675 0 0 0 0 .955l2.025 2.025a.675.675 0 0 0 1.153-.478v-1.35h4.725a2.025 2.025 0 0 0 1.752-3.037z"/></svg>