<svg xmlns="http://www.w3.org/2000/svg" width="24" height="24" fill="currentColor" viewBox="0 0 24 24"><path d="M19.425 18.75H4.575a1.35 1.35 0 0 1-1.168-2.025L10.832 3.9a1.35 1.35 0 0 1 2.337 0l7.425 12.825a1.35 1.35 0 0 1-1.169 2.025" opacity=".2"/><path d="M9.3 18.75a.675.675 0 0 1-.675.675h-4.05a2.025 2.025 0 0 1-1.752-3.037l2.893-4.999-1.185.316a.677.677 0 1 1-.349-1.308l2.765-.74a.675.675 0 0 1 .827.478l.742 2.765a.675.675 0 0 1-.48.83.7.7 0 0 1-.176.023.675.675 0 0 1-.651-.5l-.321-1.194-2.893 5.004a.675.675 0 0 0 .581 1.012h4.05a.675.675 0 0 1 .675.675zm11.874-2.363-1.952-3.375a.675.675 0 0 0-1.168.675l1.952 3.375a.675.675 0 0 1-.581 1.012h-5.796l.872-.872a.675.675 0 0 0-.954-.955l-2.025 2.025a.675.675 0 0 0 0 .955l2.025 2.025a.675.675 0 0 0 .954-.955l-.872-.872h5.796a2.025 2.025 0 0 0 1.752-3.037zM12 3.899a.66.66 0 0 1 .584.337l2.893 4.999-1.188-.319a.675.675 0 0 0-.348 1.304l2.766.742a.7.7 0 0 0 .175.023.675.675 0 0 0 .651-.5l.742-2.767a.675.675 0 1 0-1.304-.349l-.321 1.196-2.897-5.003a2.025 2.025 0 0 0-3.505 0L8.294 6.937a.675.675 0 0 0 1.169.675l1.954-3.375a.66.66 0 0 1 .584-.338z"/></svg>