<svg xmlns="http://www.w3.org/2000/svg" width="24" height="24" fill="currentColor" viewBox="0 0 24 24"><path d="M21.956 9.975a2.531 2.531 0 0 0-4.273-1.836c-1.465-.801-3.237-1.272-5.089-1.355l.497-2.983 1.785.275a1.856 1.856 0 1 0 .183-.996l-2.309-.355a.506.506 0 0 0-.576.416l-.606 3.636c-1.91.062-3.747.538-5.253 1.363a2.531 2.531 0 1 0-3.375 3.768 4.8 4.8 0 0 0-.223 1.443c0 1.794.991 3.467 2.789 4.711 1.741 1.206 4.046 1.87 6.493 1.87s4.752-.664 6.493-1.87c1.798-1.245 2.789-2.918 2.789-4.712a4.8 4.8 0 0 0-.222-1.443 2.55 2.55 0 0 0 .897-1.932m-5.231-6.919a.844.844 0 1 1-.844.844.844.844 0 0 1 .844-.844m3.472 8.227a.506.506 0 0 0-.208.634 3.9 3.9 0 0 1 .279 1.433c0 3.07-3.713 5.569-8.269 5.569S3.73 16.421 3.73 13.35a3.9 3.9 0 0 1 .278-1.429.506.506 0 0 0-.207-.637 1.519 1.519 0 1 1 2.001-2.202.506.506 0 0 0 .657.143l.029-.017c1.52-.921 3.476-1.427 5.511-1.427 2.033 0 3.989.506 5.509 1.426l.014.009a.506.506 0 0 0 .675-.135 1.519 1.519 0 1 1 2.001 2.202zm-5.05 4.529a.506.506 0 0 1-.21.684 6.26 6.26 0 0 1-5.874 0 .506.506 0 0 1 .474-.894 5.25 5.25 0 0 0 4.926 0 .506.506 0 0 1 .684.21M8.625 13.18a1.181 1.181 0 1 1 1.181-1.181 1.18 1.18 0 0 1-1.181 1.181m7.931-1.181a1.181 1.181 0 1 1-1.181-1.181 1.18 1.18 0 0 1 1.181 1.181"/></svg>