<svg xmlns="http://www.w3.org/2000/svg" width="24" height="24" fill="currentColor" viewBox="0 0 24 24"><path d="M18.075 12A6.075 6.075 0 1 1 12 5.925 6.075 6.075 0 0 1 18.075 12" opacity=".2"/><path d="M19.329 16.398a.675.675 0 0 1-.928.231l-5.726-3.437v6.233a.675.675 0 0 1-1.35 0v-6.233l-5.727 3.437a.675.675 0 1 1-.694-1.158L10.689 12 4.904 8.529a.675.675 0 1 1 .694-1.158l5.727 3.437V4.575a.675.675 0 0 1 1.35 0v6.233l5.727-3.437a.675.675 0 1 1 .694 1.158L13.311 12l5.785 3.471a.675.675 0 0 1 .232.926z"/></svg>