<svg viewBox="0 0 24 24" fill="none" xmlns="http://www.w3.org/2000/svg" width="24" height="24">
<path opacity="0.2" d="M4.5752 7.7998C4.5752 7.38559 4.91098 7.0498 5.3252 7.0498H18.6752C19.0894 7.0498 19.4252 7.38559 19.4252 7.7998V16.2002C19.4252 16.6144 19.0894 16.9502 18.6752 16.9502H5.3252C4.91098 16.9502 4.5752 16.6144 4.5752 16.2002V7.7998Z" fill="black"/>
<path d="M12.5 19.4248C12.5 19.7009 12.2761 19.9248 12 19.9248C11.7239 19.9248 11.5 19.7009 11.5 19.4248L11.5 4.5752C11.5 4.29905 11.7239 4.0752 12 4.0752C12.2761 4.0752 12.5 4.29905 12.5 4.5752V19.4248Z" fill="black"/>
<path d="M5.07715 16.958C5.07694 17.234 4.85316 17.458 4.57715 17.458C4.30114 17.458 4.07736 17.234 4.07715 16.958L4.07715 7.05762C4.07715 6.78147 4.30101 6.55762 4.57715 6.55762C4.85329 6.55762 5.07715 6.78147 5.07715 7.05762L5.07715 16.958Z" fill="black"/>
<path fill-rule="evenodd" clip-rule="evenodd" d="M10.07 10.9215L8.99106 12.0005L10.0696 13.0791C10.2649 13.2743 10.2649 13.5909 10.0696 13.7862C9.87437 13.9814 9.55779 13.9814 9.36252 13.7862L8.28395 12.7076L7.20635 13.7852C7.16781 13.8237 7.12453 13.8547 7.07839 13.878C6.89082 13.9728 6.65596 13.9419 6.49925 13.7852C6.30399 13.5899 6.30399 13.2733 6.49925 13.0781L7.57684 12.0005L6.49888 10.9225C6.30362 10.7273 6.30362 10.4107 6.49888 10.2154C6.6557 10.0586 6.89076 10.0277 7.07839 10.1228C7.12439 10.1461 7.16754 10.177 7.20599 10.2154L8.28395 11.2934L9.36289 10.2144C9.55815 10.0192 9.87474 10.0192 10.07 10.2144C10.2653 10.4097 10.2653 10.7263 10.07 10.9215Z" fill="black"/>
<path fill-rule="evenodd" clip-rule="evenodd" d="M16.9357 11.484L17.4982 10.9215C17.6935 10.7263 17.6935 10.4097 17.4982 10.2144C17.3461 10.0623 17.1204 10.0287 16.9357 10.1136C16.8833 10.1377 16.8343 10.1713 16.7911 10.2144L15.7122 11.2934L14.6342 10.2154C14.4389 10.0202 14.1224 10.0202 13.9271 10.2154C13.7318 10.4107 13.7318 10.7273 13.9271 10.9225L15.0051 12.0005L13.9275 13.0781C13.7322 13.2733 13.7322 13.5899 13.9275 13.7852C14.1227 13.9805 14.4393 13.9805 14.6346 13.7852L15.7122 12.7076L16.7907 13.7862C16.834 13.8294 16.8832 13.8631 16.9357 13.8872C17.1203 13.9718 17.3458 13.9382 17.4979 13.7862C17.6931 13.5909 17.6931 13.2743 17.4979 13.0791L16.9357 12.5169L16.4193 12.0005L16.9357 11.484Z" fill="black"/>
<path d="M19.9316 16.9502C19.9314 17.2262 19.7077 17.4502 19.4316 17.4502C19.1556 17.4502 18.9319 17.2262 18.9316 16.9502V7.0498C18.9316 6.77366 19.1555 6.5498 19.4316 6.5498C19.7078 6.5498 19.9316 6.77366 19.9316 7.0498V16.9502Z" fill="black"/>
</svg>