<svg viewBox="0 0 24 24" fill="none" xmlns="http://www.w3.org/2000/svg" width="24" height="24">
<path d="M12.6746 19.4248C12.6746 19.7976 12.3725 20.1006 11.9998 20.1006C11.627 20.1006 11.325 19.7976 11.325 19.4248L11.325 4.5752C11.325 4.2024 11.627 3.90039 11.9998 3.90039C12.3725 3.90039 12.6746 4.2024 12.6746 4.5752V19.4248Z" fill="black"/>
<path d="M5.25195 16.9582C5.25174 17.3308 4.94981 17.633 4.57715 17.633C4.20449 17.633 3.90256 17.3308 3.90234 16.9582L3.90234 7.05781C3.90234 6.68502 4.20436 6.38301 4.57715 6.38301C4.94994 6.38301 5.25195 6.68502 5.25195 7.05781L5.25195 16.9582Z" fill="black"/>
<path fill-rule="evenodd" clip-rule="evenodd" d="M16.0288 12.001L16.5453 12.5175V11.4846L16.0288 12.001Z" fill="white"/>
<path fill-rule="evenodd" clip-rule="evenodd" d="M10.0695 10.922L8.99059 12.0009L10.0692 13.0795C10.2644 13.2747 10.2644 13.5913 10.0692 13.7866C9.8739 13.9819 9.55731 13.9819 9.36205 13.7866L8.28348 12.708L7.20588 13.7856C7.16733 13.8242 7.12406 13.8551 7.07792 13.8784C6.89035 13.9733 6.65549 13.9423 6.49878 13.7856C6.30351 13.5904 6.30351 13.2738 6.49878 13.0785L7.57637 12.0009L6.49841 10.9229C6.30315 10.7277 6.30315 10.4111 6.49841 10.2158C6.65522 10.059 6.89029 10.0281 7.07792 10.1232C7.12392 10.1465 7.16707 10.1774 7.20551 10.2158L8.28348 11.2938L9.36242 10.2149C9.55768 10.0196 9.87427 10.0196 10.0695 10.2149C10.2648 10.4101 10.2648 10.7267 10.0695 10.922Z" fill="black"/>
<path fill-rule="evenodd" clip-rule="evenodd" d="M16.9356 11.4836L17.4981 10.9211C17.6934 10.7259 17.6934 10.4093 17.4981 10.214C17.346 10.0619 17.1203 10.0283 16.9356 10.1132C16.8832 10.1373 16.8342 10.1709 16.791 10.214L15.7121 11.293L14.6341 10.215C14.4388 10.0197 14.1223 10.0197 13.927 10.215C13.7317 10.4103 13.7317 10.7268 13.927 10.9221L15.005 12.0001L13.9274 13.0777C13.7321 13.2729 13.7321 13.5895 13.9274 13.7848C14.1226 13.98 14.4392 13.98 14.6345 13.7848L15.7121 12.7072L16.7906 13.7858C16.8339 13.829 16.8831 13.8627 16.9356 13.8868C17.1202 13.9714 17.3457 13.9378 17.4977 13.7858C17.693 13.5905 17.693 13.2739 17.4977 13.0786L16.9356 12.5165L16.4192 12.0001L16.9356 11.4836Z" fill="black"/>
<path d="M20.1061 16.9504C20.1059 17.323 19.804 17.6252 19.4313 17.6252C19.0586 17.6252 18.7567 17.323 18.7565 16.9504V7.05C18.7565 6.67721 19.0585 6.3752 19.4313 6.3752C19.8041 6.3752 20.1061 6.67721 20.1061 7.05V16.9504Z" fill="black"/>
</svg>