<svg xmlns="http://www.w3.org/2000/svg" fill="currentColor" viewBox="0 0 24 24" width="24" height="24"><path d="M20.1 6.6V12a5.4 5.4 0 0 1-5.4 5.4H3.9V12a5.4 5.4 0 0 1 5.4-5.4z" opacity=".2"/><path d="M3.225 12A6.08 6.08 0 0 1 9.3 5.925h9.171l-.873-.872a.675.675 0 0 1 .955-.955l2.025 2.025a.675.675 0 0 1 0 .955l-2.025 2.025a.675.675 0 0 1-.955-.955l.873-.872H9.3a4.73 4.73 0 0 0-4.725 4.725.675.675 0 0 1-1.35 0zm16.875-.675a.675.675 0 0 0-.675.675 4.73 4.73 0 0 1-4.725 4.725H5.529l.873-.872a.675.675 0 0 0-.955-.955l-2.025 2.025a.675.675 0 0 0 0 .955l2.025 2.025a.675.675 0 0 0 .955-.955l-.873-.872H14.7a6.08 6.08 0 0 0 6.075-6.075.675.675 0 0 0-.675-.675z"/></svg>