<svg xmlns="http://www.w3.org/2000/svg" fill="currentColor" viewBox="0 0 24 24" width="24" height="24"><path d="M3.394 12A5.913 5.913 0 0 1 9.3 6.094h9.577l-1.16-1.161a.506.506 0 0 1 .715-.716l2.025 2.025a.506.506 0 0 1 0 .716l-2.025 2.025a.506.506 0 0 1-.715-.716l1.16-1.161H9.3A4.9 4.9 0 0 0 4.406 12a.507.507 0 0 1-1.013 0zm16.706-.506a.506.506 0 0 0-.506.506 4.9 4.9 0 0 1-4.894 4.894H5.123l1.16-1.161a.506.506 0 0 0-.716-.716l-2.025 2.025a.506.506 0 0 0 0 .716l2.025 2.025a.506.506 0 0 0 .716-.715l-1.16-1.161H14.7a5.913 5.913 0 0 0 5.906-5.906.506.506 0 0 0-.506-.506z"/></svg>