<svg viewBox="0 0 24 24" fill="none" xmlns="http://www.w3.org/2000/svg" width="24" height="24">
<path d="M18.0751 13.3496H14.0251C13.6523 13.3496 13.3501 13.6518 13.3501 14.0246V18.0746C13.3501 18.4474 13.6523 18.7496 14.0251 18.7496H18.0751C18.4479 18.7496 18.7501 18.4474 18.7501 18.0746V14.0246C18.7501 13.6518 18.4479 13.3496 18.0751 13.3496Z" fill="black" fill-opacity="0.2"/>
<path d="M5.38916 15.3691V8.62012C5.38921 8.57378 5.40717 8.52887 5.43994 8.4961C5.47274 8.4634 5.51764 8.44532 5.56396 8.44532H11.3638C11.6399 8.44532 11.8638 8.22146 11.8638 7.94532C11.8638 7.66917 11.6399 7.44532 11.3638 7.44532H5.56396C5.25243 7.44532 4.95325 7.56883 4.73291 7.78907C4.5126 8.00938 4.38921 8.30856 4.38916 8.62012V15.3691C4.3892 15.6807 4.51259 15.9799 4.73291 16.2002C4.95325 16.4205 5.25242 16.5439 5.56396 16.5439H11.3638C11.6399 16.5439 11.8638 16.3201 11.8638 16.0439C11.8637 15.7678 11.6399 15.5439 11.3638 15.5439H5.56396C5.51763 15.5439 5.47274 15.5259 5.43994 15.4932C5.40716 15.4604 5.3892 15.4155 5.38916 15.3691Z" fill="black"/>
<path d="M9.69189 13.665C9.49662 13.47 9.18006 13.4698 8.98486 13.665C8.78986 13.8603 8.78986 14.1769 8.98486 14.3721L10.6567 16.043L8.98486 17.7148C8.7898 17.91 8.78993 18.2266 8.98486 18.4219C9.18009 18.6171 9.49662 18.617 9.69189 18.4219L11.7173 16.3975C11.9125 16.2023 11.9124 15.8857 11.7173 15.6904L9.69189 13.665Z" fill="black"/>
<path d="M18.2505 14.0244C18.2504 13.9279 18.1713 13.8496 18.0747 13.8496H14.0249C13.9284 13.8497 13.8502 13.9279 13.8501 14.0244V18.0742C13.8501 18.1708 13.9283 18.2499 14.0249 18.25H18.0747C18.1714 18.25 18.2505 18.1709 18.2505 18.0742V14.0244ZM19.2505 18.0742C19.2505 18.7232 18.7236 19.25 18.0747 19.25H14.0249C13.3761 19.2499 12.8501 18.7231 12.8501 18.0742V14.0244C12.8502 13.3756 13.3761 12.8497 14.0249 12.8496H18.0747C18.7236 12.8496 19.2504 13.3756 19.2505 14.0244V18.0742Z" fill="black"/>
<path d="M13.8491 10.6494C13.8491 10.9256 13.6253 11.1494 13.3491 11.1494C13.073 11.1494 12.8491 10.9256 12.8491 10.6494V5.24805C12.8491 4.9719 13.073 4.74805 13.3491 4.74805C13.6253 4.74805 13.8491 4.9719 13.8491 5.24805V10.6494Z" fill="black"/>
<path d="M15.6494 10.6494C15.6494 10.9256 15.4256 11.1494 15.1494 11.1494C14.8733 11.1494 14.6494 10.9256 14.6494 10.6494V5.24805C14.6494 4.9719 14.8733 4.74805 15.1494 4.74805C15.4256 4.74805 15.6494 4.9719 15.6494 5.24805V10.6494Z" fill="black"/>
<path d="M13.3491 5.74805C13.073 5.74805 12.8491 5.52419 12.8491 5.24805C12.8491 4.9719 13.073 4.74805 13.3491 4.74805L15.1323 4.74805C15.4085 4.74805 15.6323 4.9719 15.6323 5.24805C15.6323 5.52419 15.4085 5.74805 15.1323 5.74805H13.3491Z" fill="black"/>
<path d="M13.3491 11.1572C13.073 11.1572 12.8491 10.9334 12.8491 10.6572C12.8491 10.3811 13.073 10.1572 13.3491 10.1572H15.1323C15.4085 10.1572 15.6323 10.3811 15.6323 10.6572C15.6323 10.9334 15.4085 11.1572 15.1323 11.1572H13.3491Z" fill="black"/>
<path d="M17.4497 10.6494C17.4497 10.9256 17.2258 11.1494 16.9497 11.1494C16.6736 11.1494 16.4497 10.9256 16.4497 10.6494V5.24805C16.4497 4.9719 16.6736 4.74805 16.9497 4.74805C17.2258 4.74805 17.4497 4.9719 17.4497 5.24805V10.6494Z" fill="black"/>
<path d="M19.25 10.6494C19.25 10.9256 19.0261 11.1494 18.75 11.1494C18.4739 11.1494 18.25 10.9256 18.25 10.6494V5.24805C18.25 4.9719 18.4739 4.74805 18.75 4.74805C19.0261 4.74805 19.25 4.9719 19.25 5.24805V10.6494Z" fill="black"/>
</svg>