<svg viewBox="0 0 24 24" fill="none" xmlns="http://www.w3.org/2000/svg" width="24" height="24">
<path fill-rule="evenodd" clip-rule="evenodd" d="M19.25 4C19.6642 4 20 4.33579 20 4.75V19.25C20 19.6642 19.6642 20 19.25 20H4.75C4.33579 20 4 19.6642 4 19.25V4.75C4 4.33579 4.33579 4 4.75 4H19.25ZM7.29102 6.4209C6.91832 6.4209 6.61638 6.72305 6.61621 7.0957V9.28223C6.6164 9.65485 6.91834 9.95703 7.29102 9.95703C7.66361 9.95693 7.96563 9.65479 7.96582 9.28223V7.77051H11.5352V16.2568H10.0234C9.65086 16.2569 9.34888 16.5591 9.34863 16.9316C9.34863 17.3044 9.65071 17.6064 10.0234 17.6064H12.1904C12.1968 17.6066 12.2035 17.6084 12.21 17.6084C12.2165 17.6084 12.223 17.6066 12.2295 17.6064H14.3955C14.7683 17.6064 15.0703 17.3044 15.0703 16.9316C15.0701 16.5591 14.7681 16.2568 14.3955 16.2568H12.8848V7.77051H16.4541V9.28223C16.4543 9.65485 16.7562 9.95703 17.1289 9.95703C17.5014 9.95686 17.8035 9.65475 17.8037 9.28223V7.0957C17.8035 6.72316 17.5015 6.42107 17.1289 6.4209H7.29102ZM17.333 13.8936C17.0694 13.6301 16.6415 13.6301 16.3779 13.8936C16.1147 14.1572 16.1145 14.5852 16.3779 14.8486L17.1719 15.6426L16.3779 16.4375C16.1151 16.7011 16.1148 17.1282 16.3779 17.3916C16.6414 17.6549 17.0694 17.6548 17.333 17.3916L18.6045 16.1201C18.8679 15.8565 18.8679 15.4286 18.6045 15.165L17.333 13.8936Z" fill="black"/>
</svg>