<svg viewBox="0 0 24 24" fill="none" xmlns="http://www.w3.org/2000/svg" width="24" height="24">
<path fill-rule="evenodd" clip-rule="evenodd" d="M11.1184 16.5203L11.1059 16.5328C11.1088 16.53 11.1155 16.5232 11.1184 16.5203C11.117 16.5216 11.1197 16.519 11.1184 16.5203Z" fill="black"/>
<path d="M7.94043 15.3689H5.56348V8.61992H10.6406C11.0134 8.61992 11.3154 8.31791 11.3154 7.94512C11.3154 7.57232 11.0134 7.27031 10.6406 7.27031H5.48828C5.16857 7.27034 4.8747 7.39578 4.65137 7.60137L4.55957 7.69414L4.47949 7.79473C4.30377 8.03578 4.21391 8.32777 4.21387 8.61992V15.3689C4.2139 15.7028 4.33074 16.0371 4.55957 16.2947C4.79072 16.5549 5.12279 16.7185 5.48828 16.7186H7.94043V18.0682C7.94043 18.3412 8.10519 18.5877 8.35742 18.6922C8.60957 18.7966 8.89977 18.7386 9.09277 18.5457L11.1059 16.5328L11.1184 16.5203C11.2104 16.4282 11.2702 16.3161 11.2979 16.198C11.3495 15.9782 11.2896 15.7376 11.1184 15.5662L9.09277 13.5408C8.89978 13.348 8.60951 13.29 8.35742 13.3943C8.10519 13.4988 7.94043 13.7453 7.94043 14.0184V15.3689Z" fill="black"/>
<path d="M19.4257 10.6504C19.4256 11.0231 19.1237 11.3252 18.7509 11.3252C18.3783 11.3251 18.0762 11.023 18.0761 10.6504V5.25C18.0762 4.87736 18.3783 4.5753 18.7509 4.5752C19.1237 4.5752 19.4256 4.8773 19.4257 5.25V10.6504Z" fill="black"/>
<path d="M19.4255 18.0742C19.4255 18.8198 18.8205 19.4248 18.0749 19.4248H14.0251C13.2796 19.4247 12.6755 18.8197 12.6755 18.0742V14.0244C12.6756 13.279 13.2797 12.6749 14.0251 12.6748H18.0749C18.8204 12.6748 19.4254 13.2789 19.4255 14.0244V18.0742Z" fill="black"/>
<path d="M15.9099 11.3075C15.9554 11.3172 16.0025 11.3223 16.0508 11.3223C16.4236 11.3223 16.7255 11.0202 16.7256 10.6475V5.24707C16.7255 4.87437 16.4236 4.57227 16.0508 4.57227C16.0296 4.57227 16.0085 4.57326 15.9877 4.5752H13.3513C12.9785 4.5752 12.6756 4.8773 12.6755 5.25L12.6758 10.6475C12.688 11.0096 12.9862 11.3075 13.3513 11.3075H15.9099ZM15.376 5.9248L15.376 9.95789H14.0254L14.0254 5.9248H15.376Z" fill="black"/>
</svg>