<svg viewBox="0 0 24 24" fill="none" xmlns="http://www.w3.org/2000/svg" width="24" height="24">
<path d="M11.5 18.0752V5.9248C11.5 5.64866 11.7239 5.4248 12 5.4248C12.2762 5.4248 12.5 5.64866 12.5 5.9248V18.0752C12.4998 18.3512 12.2761 18.5752 12 18.5752C11.724 18.5752 11.5003 18.3512 11.5 18.0752Z" fill="black"/>
<path d="M17.5754 8.625V6.4248H6.42505V8.625C6.42494 8.90105 6.20113 9.125 5.92505 9.125C5.64897 9.125 5.42515 8.90105 5.42505 8.625V5.9248C5.42505 5.64866 5.64891 5.4248 5.92505 5.4248H18.0754C18.3514 5.42502 18.5754 5.64879 18.5754 5.9248V8.625C18.5753 8.90092 18.3513 9.12479 18.0754 9.125C17.7994 9.125 17.5755 8.90105 17.5754 8.625Z" fill="black"/>
<path d="M14.7004 17.5748C14.9764 17.575 15.2004 17.7988 15.2004 18.0748C15.2004 18.3508 14.9764 18.5746 14.7004 18.5748H9.30005C9.02391 18.5748 8.80005 18.3509 8.80005 18.0748C8.80005 17.7987 9.02391 17.5748 9.30005 17.5748H14.7004Z" fill="black"/>
<path d="M19.5572 14.5457C19.7524 14.3504 20.0689 14.3504 20.2642 14.5457L21.8541 16.1355C22.049 16.3308 22.0492 16.6474 21.8541 16.8426L20.2642 18.4314C20.0689 18.6267 19.7524 18.6267 19.5572 18.4314C19.3621 18.2362 19.362 17.9196 19.5572 17.7244L20.7925 16.4881L19.5572 15.2527C19.3619 15.0575 19.3619 14.741 19.5572 14.5457Z" fill="black"/>
<path d="M16.2317 12.4559C16.2317 12.1797 16.4556 11.9559 16.7317 11.9559C17.0078 11.9559 17.2317 12.1797 17.2317 12.4559V15.9891H21.5003C21.7764 15.9891 22.0003 16.2129 22.0003 16.4891C22.0002 16.7652 21.7764 16.9891 21.5003 16.9891H16.7317C16.4556 16.9891 16.2317 16.7652 16.2317 16.4891V12.4559Z" fill="black"/>
</svg>