<svg viewBox="0 0 24 24" fill="none" xmlns="http://www.w3.org/2000/svg" width="24" height="24">
<path d="M5.38916 15.3688V8.61973C5.38921 8.57339 5.40717 8.52848 5.43994 8.49571C5.47274 8.46301 5.51764 8.44493 5.56396 8.44493H11.3638C11.6399 8.44493 11.8638 8.22107 11.8638 7.94493C11.8638 7.66878 11.6399 7.44493 11.3638 7.44493H5.56396C5.25243 7.44493 4.95325 7.56844 4.73291 7.78868C4.5126 8.00899 4.38921 8.30817 4.38916 8.61973V15.3688C4.3892 15.6803 4.51259 15.9795 4.73291 16.1998C4.95325 16.4201 5.25242 16.5436 5.56396 16.5436H11.3638C11.6399 16.5436 11.8638 16.3197 11.8638 16.0436C11.8637 15.7674 11.6399 15.5436 11.3638 15.5436H5.56396C5.51763 15.5436 5.47274 15.5255 5.43994 15.4928C5.40716 15.46 5.3892 15.4151 5.38916 15.3688Z" fill="black"/>
<path d="M9.69189 13.6646C9.49662 13.4696 9.18006 13.4695 8.98486 13.6646C8.78986 13.8599 8.78986 14.1765 8.98486 14.3717L10.6567 16.0426L8.98486 17.7145C8.7898 17.9096 8.78993 18.2262 8.98486 18.4215C9.18009 18.6167 9.49662 18.6166 9.69189 18.4215L11.7173 16.3971C11.9125 16.2019 11.9124 15.8853 11.7173 15.69L9.69189 13.6646Z" fill="black"/>
<path d="M18.2505 5.9248C18.2504 5.82824 18.1713 5.75 18.0747 5.75H14.0249C13.9284 5.75011 13.8502 5.82831 13.8501 5.9248V9.97461C13.8501 10.0712 13.9283 10.1503 14.0249 10.1504H18.0747C18.1714 10.1504 18.2505 10.0713 18.2505 9.97461V5.9248ZM19.2505 9.97461C19.2505 10.6235 18.7236 11.1504 18.0747 11.1504H14.0249C13.3761 11.1503 12.8501 10.6235 12.8501 9.97461V5.9248C12.8502 5.27602 13.3761 4.75011 14.0249 4.75H18.0747C18.7236 4.75 19.2504 5.27596 19.2505 5.9248V9.97461Z" fill="black"/>
<path d="M19.2505 18.0742V14.0244C19.2504 13.3756 18.7236 12.8496 18.0747 12.8496H14.0249C13.3761 12.8497 12.8502 13.3756 12.8501 14.0244V18.0742C12.8501 18.7231 13.3761 19.2499 14.0249 19.25H18.0747C18.7236 19.25 19.2505 18.7232 19.2505 18.0742ZM18.2505 16.4991L18.2505 18.0742C18.2505 18.1709 18.1714 18.25 18.0747 18.25H16.4996L18.2505 16.4991ZM15.0854 18.25H14.0249C13.9283 18.2499 13.8501 18.1708 13.8501 18.0742V17.0813L17.0764 13.8496H18.0747C18.1713 13.8496 18.2504 13.9279 18.2505 14.0244V15.0849L15.0854 18.25ZM13.8501 15.6679V14.0244C13.8502 13.9279 13.9284 13.8497 14.0249 13.8496H15.6684L13.8501 15.6679Z" fill="black"/>
</svg>