<svg viewBox="0 0 24 24" fill="none" xmlns="http://www.w3.org/2000/svg" width="24" height="24">
<path d="M5.38916 15.3689V8.61993C5.38921 8.57358 5.40717 8.52867 5.43994 8.4959C5.47274 8.46321 5.51764 8.44512 5.56396 8.44512H11.3638C11.6399 8.44512 11.8638 8.22126 11.8638 7.94512C11.8638 7.66898 11.6399 7.44512 11.3638 7.44512H5.56396C5.25243 7.44512 4.95325 7.56864 4.73291 7.78887C4.5126 8.00918 4.38921 8.30837 4.38916 8.61993V15.3689C4.3892 15.6805 4.51259 15.9797 4.73291 16.2C4.95325 16.4203 5.25242 16.5438 5.56396 16.5438H11.3638C11.6399 16.5438 11.8638 16.3199 11.8638 16.0438C11.8637 15.7676 11.6399 15.5438 11.3638 15.5438H5.56396C5.51763 15.5438 5.47274 15.5257 5.43994 15.493C5.40716 15.4602 5.3892 15.4153 5.38916 15.3689Z" fill="black"/>
<path d="M9.69189 13.6648C9.49662 13.4698 9.18006 13.4696 8.98486 13.6648C8.78986 13.8601 8.78986 14.1767 8.98486 14.3719L10.6567 16.0428L8.98486 17.7146C8.7898 17.9098 8.78993 18.2264 8.98486 18.4217C9.18009 18.6169 9.49662 18.6168 9.69189 18.4217L11.7173 16.3973C11.9125 16.2021 11.9124 15.8855 11.7173 15.6902L9.69189 13.6648Z" fill="black"/>
<path d="M13.8491 10.6494C13.8491 10.9256 13.6253 11.1494 13.3491 11.1494C13.073 11.1494 12.8491 10.9256 12.8491 10.6494V5.24805C12.8491 4.97191 13.073 4.74805 13.3491 4.74805C13.6253 4.74805 13.8491 4.9719 13.8491 5.24805V10.6494Z" fill="black"/>
<path d="M15.6496 10.6494C15.6496 10.9256 15.4257 11.1494 15.1496 11.1494C14.8735 11.1494 14.6496 10.9256 14.6496 10.6494V5.24805C14.6496 4.97191 14.8735 4.74805 15.1496 4.74805C15.4257 4.74805 15.6496 4.9719 15.6496 5.24805V10.6494Z" fill="black"/>
<path d="M13.3491 5.74805C13.073 5.74805 12.8491 5.52419 12.8491 5.24805C12.8491 4.97191 13.073 4.74805 13.3491 4.74805L15.1323 4.74805C15.4085 4.74805 15.6323 4.9719 15.6323 5.24805C15.6323 5.52419 15.4085 5.74805 15.1323 5.74805H13.3491Z" fill="black"/>
<path d="M13.3491 11.157C13.073 11.157 12.8491 10.9331 12.8491 10.657C12.8491 10.3808 13.073 10.157 13.3491 10.157H15.1323C15.4085 10.157 15.6323 10.3808 15.6323 10.657C15.6323 10.9331 15.4085 11.157 15.1323 11.157H13.3491Z" fill="black"/>
<path d="M17.4495 10.6494C17.4495 10.9256 17.2257 11.1494 16.9495 11.1494C16.6734 11.1494 16.4495 10.9256 16.4495 10.6494V5.24805C16.4495 4.97191 16.6734 4.74805 16.9495 4.74805C17.2257 4.74805 17.4495 4.9719 17.4495 5.24805V10.6494Z" fill="black"/>
<path d="M19.25 10.6494C19.25 10.9256 19.0262 11.1494 18.75 11.1494C18.4739 11.1494 18.25 10.9256 18.25 10.6494V5.24805C18.25 4.97191 18.4739 4.74805 18.75 4.74805C19.0262 4.74805 19.25 4.9719 19.25 5.24805V10.6494Z" fill="black"/>
<path fill-rule="evenodd" clip-rule="evenodd" d="M19.2505 14.0244C19.2504 13.3756 18.7236 12.8496 18.0747 12.8496H14.0249C13.3761 12.8497 12.8502 13.3756 12.8501 14.0244V18.0742C12.8501 18.7231 13.3761 19.2499 14.0249 19.25H18.0747C18.7236 19.25 19.2505 18.7232 19.2505 18.0742V14.0244ZM14.0249 18.25C13.9283 18.2499 13.8501 18.1708 13.8501 18.0742V17.0813L17.0764 13.8496L18.0747 13.8496C18.1713 13.8496 18.2504 13.9279 18.2505 14.0244V15.0849L15.0854 18.25H14.0249ZM14.0249 13.8496L15.6684 13.8496L13.8501 15.6679L13.8501 14.0244C13.8502 13.9279 13.9284 13.8497 14.0249 13.8496ZM18.2505 16.4991L16.4996 18.25H18.0747C18.1714 18.25 18.2505 18.1709 18.2505 18.0742L18.2505 16.4991Z" fill="black"/>
</svg>