<svg xmlns="http://www.w3.org/2000/svg" fill="currentColor" viewBox="0 0 24 24" width="24" height="24"><path d="M18.075 5.419h-5.569V2.55a.507.507 0 0 0-1.013 0v2.869H5.924A2.53 2.53 0 0 0 3.393 7.95v9.45a2.53 2.53 0 0 0 2.531 2.531h12.15a2.53 2.53 0 0 0 2.531-2.531V7.95a2.53 2.53 0 0 0-2.531-2.531zM19.594 17.4a1.52 1.52 0 0 1-1.519 1.519H5.925A1.52 1.52 0 0 1 4.406 17.4V7.95a1.52 1.52 0 0 1 1.519-1.519h12.15a1.52 1.52 0 0 1 1.519 1.519zm-12.15-7.088a.844.844 0 1 1 .844.844.844.844 0 0 1-.844-.844m7.425 0a.844.844 0 1 1 .844.844.844.844 0 0 1-.844-.844m.169 2.531H8.963a2.194 2.194 0 0 0 0 4.387h6.075a2.194 2.194 0 0 0 0-4.387m-1.856 1.012v2.363H10.82v-2.363zm-5.4 1.181a1.18 1.18 0 0 1 1.181-1.181h.844v2.363h-.844a1.18 1.18 0 0 1-1.181-1.181zm7.256 1.181h-.844v-2.363h.844a1.182 1.182 0 0 1 0 2.363"/></svg>