<svg xmlns="http://www.w3.org/2000/svg" fill="currentColor" viewBox="0 0 24 24" width="24" height="24"><path d="M18.075 5.25h-5.4v-2.7a.675.675 0 0 0-1.35 0v2.7h-5.4a2.7 2.7 0 0 0-2.7 2.7v9.45a2.7 2.7 0 0 0 2.7 2.7h12.15a2.7 2.7 0 0 0 2.7-2.7V7.95a2.7 2.7 0 0 0-2.7-2.7M15.713 9.3a1.013 1.013 0 1 1-1.013 1.012A1.013 1.013 0 0 1 15.713 9.3m-6.412 7.425h-1.35a1.35 1.35 0 0 1 0-2.7h1.35zm-1.013-5.4a1.013 1.013 0 1 1 1.013-1.012 1.013 1.013 0 0 1-1.013 1.012m5.063 5.4h-2.7v-2.7h2.7zm2.7 0h-1.35v-2.7h1.35a1.35 1.35 0 0 1 0 2.7"/></svg>