<svg xmlns="http://www.w3.org/2000/svg" fill="currentColor" viewBox="0 0 24 24" width="24" height="24"><path d="M13.856 20.1a.506.506 0 0 1-.506.506h-2.7a.506.506 0 0 1 0-1.012h2.7a.506.506 0 0 1 .506.506M12 10.481a.844.844 0 1 0-.844-.844.844.844 0 0 0 .844.844m7.903 3.831-1.043 4.691a1.18 1.18 0 0 1-1.882.675l-2.345-1.772H9.369l-2.347 1.772a1.18 1.18 0 0 1-1.885-.675l-1.04-4.691a1.19 1.19 0 0 1 .246-1.012l2.447-2.933a10.2 10.2 0 0 1 .716-3.097c1.073-2.69 2.997-4.377 3.774-4.978a1.18 1.18 0 0 1 1.448 0c.777.601 2.7 2.288 3.774 4.978a10.2 10.2 0 0 1 .715 3.097l2.447 2.933a1.19 1.19 0 0 1 .24 1.012zM9.49 16.894h5.019c1.85-3.245 2.204-6.356 1.049-9.249-1.008-2.531-2.898-4.123-3.453-4.556a.17.17 0 0 0-.209 0c-.555.429-2.447 2.025-3.453 4.556-1.155 2.893-.802 6.004 1.049 9.249zm-.95.371c-1.013-1.813-1.595-3.594-1.74-5.332l-1.681 2.014a.17.17 0 0 0-.035.144l1.044 4.695a.17.17 0 0 0 .27.095l.011-.009zm10.342-3.318-1.678-2.014c-.145 1.737-.726 3.518-1.74 5.332l2.129 1.603.011.009a.17.17 0 0 0 .27-.095l1.045-4.69a.17.17 0 0 0-.039-.144z"/></svg>