<svg viewBox="0 0 24 24" fill="none" xmlns="http://www.w3.org/2000/svg" width="24" height="24">
<rect opacity="0.2" x="4.5752" y="4.5752" width="14.85" height="14.85" rx="6" fill="black"/>
<path d="M9.78359 7.048C10.0356 6.93506 10.3318 7.04796 10.4447 7.29995C10.5572 7.55172 10.4444 7.84713 10.1928 7.9601C9.16287 8.42167 8.34065 9.26636 7.90859 10.3117C7.80305 10.5668 7.51042 10.6876 7.25527 10.5822C7.00047 10.4765 6.87947 10.1848 6.98476 9.92983C7.51466 8.64782 8.52098 7.61386 9.78359 7.048Z" fill="black"/>
<path d="M8.2556 6.43262L10.2441 6.96542C10.5108 7.03689 10.6691 7.31106 10.5976 7.5778L10.0648 9.56624C9.99324 9.83285 9.71909 9.99125 9.45243 9.9198C9.18577 9.84835 9.02754 9.57409 9.09888 9.30743L9.50227 7.80194L7.99678 7.39855C7.73018 7.32699 7.57178 7.05284 7.64323 6.78617C7.71468 6.51951 7.98894 6.36129 8.2556 6.43262Z" fill="black"/>
<path d="M16.9529 9.78389C17.0658 10.0359 16.9529 10.3321 16.7009 10.445C16.4492 10.5575 16.1537 10.4447 16.0408 10.1931C15.5792 9.16318 14.7345 8.34096 13.6892 7.90889C13.4341 7.80335 13.3132 7.51072 13.4187 7.25557C13.5243 7.00078 13.8161 6.87977 14.071 6.98506C15.3531 7.51497 16.387 8.52129 16.9529 9.78389Z" fill="black"/>
<path d="M17.5683 8.25591L17.0355 10.2444C16.964 10.5111 16.6898 10.6694 16.4231 10.5979L14.4346 10.0651C14.168 9.99355 14.0096 9.7194 14.0811 9.45273C14.1525 9.18607 14.4268 9.02785 14.6935 9.09918L16.1989 9.50257L16.6023 7.99709C16.6739 7.73048 16.948 7.57208 17.2147 7.64353C17.4814 7.71499 17.6396 7.98924 17.5683 8.25591Z" fill="black"/>
<path d="M14.2164 16.9528C13.9644 17.0657 13.6682 16.9529 13.5553 16.7009C13.4428 16.4491 13.5556 16.1537 13.8072 16.0407C14.8371 15.5791 15.6593 14.7345 16.0914 13.6891C16.1969 13.434 16.4896 13.3132 16.7447 13.4186C16.9995 13.5243 17.1205 13.816 17.0152 14.071C16.4853 15.353 15.479 16.387 14.2164 16.9528Z" fill="black"/>
<path d="M15.7444 17.5682L13.7559 17.0354C13.4892 16.9639 13.3309 16.6897 13.4024 16.423L13.9352 14.4346C14.0067 14.168 14.2809 14.0096 14.5476 14.081C14.8142 14.1525 14.9724 14.4267 14.9011 14.6934L14.4977 16.1989L16.0032 16.6023C16.2698 16.6738 16.4282 16.948 16.3568 17.2146C16.2853 17.4813 16.0111 17.6395 15.7444 17.5682Z" fill="black"/>
<path d="M7.04683 14.2167C6.9339 13.9647 7.04679 13.6685 7.29878 13.5555C7.55055 13.443 7.84596 13.5559 7.95894 13.8075C8.42051 14.8374 9.26519 15.6596 10.3105 16.0917C10.5656 16.1972 10.6865 16.4898 10.581 16.745C10.4754 16.9998 10.1837 17.1208 9.92866 17.0155C8.64665 16.4856 7.61269 15.4793 7.04683 14.2167Z" fill="black"/>
<path d="M6.43145 15.7446L6.96426 13.7562C7.03573 13.4895 7.3099 13.3312 7.57663 13.4026L9.56508 13.9354C9.83168 14.007 9.99008 14.2811 9.91863 14.5478C9.84718 14.8145 9.57293 14.9727 9.30626 14.9014L7.80077 14.498L7.39738 16.0035C7.32582 16.2701 7.05167 16.4285 6.78501 16.357C6.51834 16.2856 6.36012 16.0113 6.43145 15.7446Z" fill="black"/>
<path d="M5.07471 10.1201C5.07471 8.78347 5.60618 7.50075 6.55127 6.55566C7.49633 5.61076 8.77824 5.08008 10.1147 5.08008C10.3909 5.08008 10.6147 4.85622 10.6147 4.58008C10.6147 4.30394 10.3909 4.08008 10.1147 4.08008C8.51312 4.08008 6.9769 4.71613 5.84424 5.84863C4.71155 6.98132 4.07471 8.51835 4.07471 10.1201C4.07492 10.396 4.29887 10.6199 4.57471 10.6201C4.85072 10.6201 5.0745 10.3961 5.07471 10.1201Z" fill="black"/>
<path d="M13.8848 5.08008C15.2214 5.08008 16.5041 5.61155 17.4492 6.55664C18.3941 7.5017 18.9248 8.78361 18.9248 10.1201C18.9248 10.3963 19.1487 10.6201 19.4248 10.6201C19.7009 10.6201 19.9248 10.3963 19.9248 10.1201C19.9248 8.51849 19.2888 6.98227 18.1563 5.84961C17.0236 4.71692 15.4865 4.08008 13.8848 4.08008C13.6089 4.08029 13.385 4.30424 13.3848 4.58008C13.3848 4.85609 13.6088 5.07987 13.8848 5.08008Z" fill="black"/>
<path d="M18.9253 13.8905C18.9253 15.2272 18.3938 16.5099 17.4487 17.455C16.5037 18.3999 15.2218 18.9306 13.8853 18.9306C13.6091 18.9306 13.3853 19.1544 13.3853 19.4306C13.3853 19.7067 13.6091 19.9306 13.8853 19.9306C15.4869 19.9306 17.0231 19.2945 18.1558 18.162C19.2884 17.0293 19.9253 15.4923 19.9253 13.8905C19.9251 13.6147 19.7011 13.3908 19.4253 13.3905C19.1493 13.3905 18.9255 13.6146 18.9253 13.8905Z" fill="black"/>
<path d="M5.07471 13.8905C5.07471 15.2272 5.60618 16.5099 6.55127 17.455C7.49633 18.3999 8.77824 18.9306 10.1147 18.9306C10.3909 18.9306 10.6147 19.1544 10.6147 19.4306C10.6147 19.7067 10.3909 19.9306 10.1147 19.9306C8.51312 19.9306 6.9769 19.2945 5.84424 18.162C4.71155 17.0293 4.07471 15.4923 4.07471 13.8905C4.07491 13.6147 4.29887 13.3908 4.57471 13.3905C4.85072 13.3905 5.0745 13.6146 5.07471 13.8905Z" fill="black"/>
</svg>