<svg viewBox="0 0 24 24" fill="none" xmlns="http://www.w3.org/2000/svg" width="24" height="24">
<path d="M8.80078 9.67871H4.89062V17.3311C4.89062 17.4691 5.00261 17.581 5.14062 17.5811H18.8594C18.9973 17.5809 19.1094 17.469 19.1094 17.3311V9.67871H15.2002V6.12891H19.3506C19.7645 6.12924 20.1006 6.4649 20.1006 6.87891V7.96387H20.1094V17.3311C20.1094 18.0213 19.5496 18.5809 18.8594 18.5811H5.14062C4.45033 18.581 3.89062 18.0214 3.89062 17.3311V7.96387H3.90039V6.87891C3.90039 6.4647 4.23618 6.12891 4.65039 6.12891H8.80078V9.67871ZM12 11.5068C12.2761 11.5068 12.5 11.7307 12.5 12.0068V13.7568H13.5C13.7022 13.7568 13.8845 13.8787 13.9619 14.0654C14.0393 14.2523 13.9965 14.4674 13.8535 14.6104L12.3535 16.1104C12.1826 16.281 11.9186 16.3029 11.7246 16.1748L11.6465 16.1104L10.1465 14.6104C10.0037 14.4674 9.9608 14.2522 10.0381 14.0654C10.1154 13.8787 10.2979 13.757 10.5 13.7568H11.5V12.0068C11.5 11.7307 11.7239 11.5069 12 11.5068ZM14.2002 9.67871H9.80078V6.12891H14.2002V9.67871Z" fill="black"/>
</svg>