<svg viewBox="0 0 24 24" fill="none" xmlns="http://www.w3.org/2000/svg" width="24" height="24">
<path d="M19.3506 5.43652C20.0407 5.43685 20.6006 5.99637 20.6006 6.68652V17.3369C20.6003 18.0269 20.0406 18.5868 19.3506 18.5869H4.64941C3.9593 18.5868 3.39971 18.027 3.39941 17.3369V9.97754H3.40039V6.68652C3.40039 5.99617 3.96003 5.43652 4.65039 5.43652H19.3506ZM4.39941 10.4365V17.3369C4.39971 17.4747 4.51158 17.5868 4.64941 17.5869H19.3506C19.4884 17.5868 19.6003 17.4747 19.6006 17.3369V10.4365H4.39941ZM12 11.5117C12.2761 11.5117 12.5 11.7356 12.5 12.0117V14.5557L13.1475 13.9082C13.3427 13.7131 13.6593 13.713 13.8545 13.9082C14.0494 14.1034 14.0495 14.42 13.8545 14.6152L12.3545 16.1152C12.1837 16.286 11.9196 16.3076 11.7256 16.1797L11.6475 16.1152L10.1475 14.6152C9.9522 14.42 9.9522 14.1035 10.1475 13.9082C10.3427 13.7131 10.6593 13.713 10.8545 13.9082L11.5 14.5537V12.0117C11.5 11.7357 11.724 11.5119 12 11.5117ZM4.65039 6.43652C4.51232 6.43652 4.40039 6.54845 4.40039 6.68652V9.43652H8.7998V6.43652H4.65039ZM9.7998 9.43652H14.2002V6.43652H9.7998V9.43652ZM15.2002 9.43652H19.6006V6.68652C19.6006 6.54866 19.4884 6.43685 19.3506 6.43652H15.2002V9.43652Z" fill="black"/>
</svg>