<svg viewBox="0 0 24 24" fill="none" xmlns="http://www.w3.org/2000/svg" width="24" height="24">
<path d="M12.77 5.42556H19.3501C19.628 5.4256 19.8837 5.51728 20.0913 5.67068C20.153 5.69508 20.2114 5.73116 20.2612 5.78103C20.3134 5.83325 20.3502 5.89481 20.3745 5.95974C20.5164 6.1625 20.6001 6.40933 20.6001 6.67556V17.3386C20.5997 18.0286 20.0401 18.5885 19.3501 18.5886H4.6499C3.95982 18.5886 3.4003 18.0286 3.3999 17.3386V6.67556C3.3999 5.98523 3.95957 5.4256 4.6499 5.42556H12.6216C12.6709 5.41818 12.7207 5.41817 12.77 5.42556ZM4.3999 14.532V17.3386C4.4003 17.4764 4.51211 17.5886 4.6499 17.5886H8.79932V14.532H4.3999ZM9.79932 14.532V17.5886H14.1997V14.532H9.79932ZM15.1997 14.532V17.5886H19.3501C19.4878 17.5886 19.5997 17.4763 19.6001 17.3386V14.532H15.1997ZM4.3999 13.532H8.79932V10.4812H6.1665C6.15213 10.4818 6.1379 10.4819 6.12354 10.4812H4.3999V13.532ZM9.79932 13.532H14.1997V10.4812H9.79932V13.532ZM15.1997 13.532H19.6001V10.4812H15.1997V13.532ZM4.86963 9.48123H5.93994L8.99561 6.42556H7.92627L4.86963 9.48123ZM7.354 9.48123H8.42627L11.4819 6.42556H10.4097L7.354 9.48123ZM9.83936 9.48123H10.9106L13.9663 6.42556H12.896L9.83936 9.48123ZM12.3247 9.48123H13.397L16.4517 6.42556H15.3804L12.3247 9.48123ZM14.8091 9.48123H15.854L18.9097 6.42556H17.8657L14.8091 9.48123ZM17.2681 9.48123H19.6001V7.1492L17.2681 9.48123ZM4.6499 6.42556C4.51186 6.4256 4.3999 6.53751 4.3999 6.67556V8.53591L6.51025 6.42556H4.6499Z" fill="black"/>
</svg>