<svg viewBox="0 0 24 24" fill="none" xmlns="http://www.w3.org/2000/svg" width="24" height="24">
<path d="M8.80042 9.67834H3.90002V6.87853C3.90003 6.46432 4.23581 6.12853 4.65002 6.12853H8.80042V9.67834Z" fill="black"/>
<path d="M14.1998 9.67834H9.80042V6.12853H14.1998V9.67834Z" fill="black"/>
<path d="M19.3502 6.12853C19.7643 6.12866 20.1002 6.4644 20.1002 6.87853V9.67834H15.1998V6.12853H19.3502Z" fill="black"/>
<path d="M11.7247 11.5888C11.9187 11.4607 12.1828 11.4826 12.3536 11.6532L13.8536 13.1532C13.9966 13.2962 14.0394 13.5113 13.962 13.6982C13.8846 13.8849 13.7023 14.0068 13.5001 14.0068H12.5001V15.7568C12.5001 16.0329 12.2763 16.2568 12.0001 16.2568C11.724 16.2567 11.5001 16.0329 11.5001 15.7568V14.0068H10.5001C10.2981 14.0066 10.1156 13.8849 10.0382 13.6982C9.96096 13.5114 10.0038 13.2962 10.1466 13.1532L11.6466 11.6532L11.7247 11.5888Z" fill="black"/>
<path d="M3.89075 17.332V16C3.89095 15.724 4.11473 15.5 4.39075 15.5C4.66677 15.5 4.89055 15.724 4.89075 16V17.332C4.89101 17.4699 5.00284 17.582 5.14075 17.582H6.85559C7.13172 17.582 7.35559 17.8059 7.35559 18.082C7.35533 18.3579 7.13156 18.582 6.85559 18.582H5.14075C4.45055 18.582 3.89101 18.0222 3.89075 17.332ZM13.715 17.582C13.991 17.5821 14.215 17.8059 14.215 18.082C14.2147 18.3579 13.9909 18.5819 13.715 18.582H10.2853C10.0093 18.582 9.78554 18.358 9.78528 18.082C9.78528 17.8059 10.0091 17.582 10.2853 17.582H13.715ZM19.1095 17.332V16C19.1097 15.724 19.3335 15.5 19.6095 15.5C19.8854 15.5001 20.1093 15.7241 20.1095 16V17.332C20.1092 18.0221 19.5496 18.5819 18.8595 18.582H17.1447C16.8687 18.582 16.6449 18.358 16.6447 18.082C16.6447 17.8059 16.8685 17.582 17.1447 17.582H18.8595C18.9973 17.5819 19.1092 17.4698 19.1095 17.332ZM3.89075 13.3379V12.0068C3.89075 11.7307 4.1146 11.5068 4.39075 11.5068C4.66689 11.5068 4.89075 11.7307 4.89075 12.0068V13.3379C4.89075 13.614 4.66689 13.8379 4.39075 13.8379C4.1146 13.8379 3.89075 13.614 3.89075 13.3379ZM19.1095 13.3379V12.0068C19.1095 11.7307 19.3334 11.5068 19.6095 11.5068C19.8855 11.507 20.1095 11.7308 20.1095 12.0068V13.3379C20.1095 13.614 19.8855 13.8378 19.6095 13.8379C19.3334 13.8379 19.1095 13.614 19.1095 13.3379Z" fill="black"/>
</svg>