<svg xmlns="http://www.w3.org/2000/svg" width="24" height="24" fill="currentColor" viewBox="0 0 24 24"><path d="M19.425 18.075h-13.5v-13.5a13.5 13.5 0 0 1 13.5 13.5" opacity=".2"/><path d="M10.221 13.779A6.04 6.04 0 0 1 12 18.075a.675.675 0 0 1-1.35 0 4.725 4.725 0 0 0-4.725-4.725.675.675 0 0 1 0-1.35 6.04 6.04 0 0 1 4.296 1.779M5.925 7.95a.675.675 0 0 0 0 1.35 8.775 8.775 0 0 1 8.775 8.775.675.675 0 0 0 1.35 0A10.125 10.125 0 0 0 5.925 7.95m10.023.102A14.08 14.08 0 0 0 5.925 3.9a.675.675 0 0 0 0 1.35 12.74 12.74 0 0 1 9.069 3.756 12.74 12.74 0 0 1 3.756 9.069.675.675 0 0 0 1.35 0 14.08 14.08 0 0 0-4.152-10.023m-9.685 8.673a1.013 1.013 0 1 0 1.013 1.013 1.013 1.013 0 0 0-1.013-1.013"/></svg>