<svg xmlns="http://www.w3.org/2000/svg" width="24" height="24" fill="currentColor" viewBox="0 0 24 24"><path d="M10.102 13.898a5.87 5.87 0 0 1 1.73 4.177.506.506 0 0 1-1.012 0 4.894 4.894 0 0 0-4.894-4.894.506.506 0 0 1 0-1.012 5.87 5.87 0 0 1 4.177 1.73zm-4.177-5.78a.507.507 0 0 0 0 1.013 8.944 8.944 0 0 1 8.944 8.944.507.507 0 0 0 1.013 0 9.956 9.956 0 0 0-9.956-9.956zm9.904.052a13.92 13.92 0 0 0-9.904-4.102.507.507 0 0 0 0 1.013 12.9 12.9 0 0 1 9.188 3.806 12.9 12.9 0 0 1 3.806 9.188.506.506 0 0 0 1.012 0 13.92 13.92 0 0 0-4.102-9.904zm-9.566 8.723a.844.844 0 1 0 .844.844.844.844 0 0 0-.844-.844"/></svg>