<svg xmlns="http://www.w3.org/2000/svg" width="24" height="24" fill="currentColor" viewBox="0 0 24 24"><path d="M20.936 7.51 16.49 3.064a1.18 1.18 0 0 0-1.671 0L3.063 14.818a1.18 1.18 0 0 0 0 1.671l4.446 4.446a1.18 1.18 0 0 0 1.671 0L20.936 9.181a1.18 1.18 0 0 0 0-1.671m-.716.954L8.465 20.218a.17.17 0 0 1-.239 0L3.78 15.773a.17.17 0 0 1 0-.239l2.82-2.82 2.342 2.342a.506.506 0 1 0 .716-.716l-2.342-2.342 1.985-1.985 2.342 2.342a.506.506 0 0 0 .716-.716l-2.342-2.342 1.985-1.984 2.342 2.341a.506.506 0 0 0 .716-.716l-2.341-2.342 2.819-2.819a.17.17 0 0 1 .239 0l4.446 4.445a.17.17 0 0 1 0 .239z"/></svg>