<svg viewBox="0 0 24 24" fill="none" xmlns="http://www.w3.org/2000/svg" width="24" height="24">
<path fill-rule="evenodd" clip-rule="evenodd" d="M3.50003 4.81066V8.5V12.5L3.5 16.5L3.50003 19.75C3.50003 20.1642 3.83581 20.5 4.25003 20.5L7.50318 20.5H11.5H15.5L19.1894 20.5C19.8575 20.5 20.1922 19.6921 19.7197 19.2197L4.78036 4.28033C4.30788 3.80786 3.50003 4.14248 3.50003 4.81066ZM7.50003 16.25V12.6036C7.50003 12.3808 7.76931 12.2693 7.9268 12.4268L11.5732 16.0732C11.7307 16.2307 11.6192 16.5 11.3965 16.5H7.75003C7.61196 16.5 7.50003 16.3881 7.50003 16.25Z" fill="black" fill-opacity="0.2"/>
<path d="M3 4.81111C3 3.69761 4.34629 3.1393 5.13379 3.92634L20.0732 18.8658C20.8361 19.6287 20.3365 20.916 19.292 20.9957L19.1895 20.9996H4.25C3.55966 20.9996 3 20.4399 3 19.7496V4.81111ZM7 12.6031C7.00036 11.9353 7.80787 11.6008 8.28027 12.0728L11.9268 15.7193C12.3992 16.1918 12.0647 16.9996 11.3965 16.9996H7.75C7.3358 16.9996 7 16.6638 7 16.2496V12.6031ZM8 15.9996H10.793L8 13.2066V15.9996ZM4 7.99959H5C5.276 7.99959 5.49978 8.22363 5.5 8.49959C5.5 8.77573 5.27614 8.99959 5 8.99959H4V11.9996H5C5.276 11.9996 5.49978 12.2236 5.5 12.4996C5.5 12.7757 5.27614 12.9996 5 12.9996H4V15.9996H5C5.276 15.9996 5.49978 16.2236 5.5 16.4996C5.5 16.7757 5.27614 16.9996 5 16.9996H4V19.7496C4 19.8876 4.11194 19.9996 4.25 19.9996H7.00293V18.9996C7.00315 18.7237 7.22704 18.4997 7.50293 18.4996C7.77893 18.4996 8.00271 18.7236 8.00293 18.9996V19.9996H11V18.9996C11.0002 18.7236 11.224 18.4996 11.5 18.4996C11.776 18.4996 11.9998 18.7236 12 18.9996V19.9996H15V18.9996C15.0002 18.7236 15.224 18.4996 15.5 18.4996C15.776 18.4996 15.9998 18.7236 16 18.9996V19.9996H19.1895L19.2676 19.9879C19.4358 19.934 19.5039 19.7106 19.3662 19.5728L4.42676 4.63435C4.26927 4.47686 4 4.58838 4 4.81111V7.99959Z" fill="black"/>
</svg>