<svg xmlns="http://www.w3.org/2000/svg" width="24" height="24" fill="currentColor" viewBox="0 0 24 24"><path d="m19.585 7.395-2.98-2.98a1.17 1.17 0 0 0-.834-.346H5.25A1.18 1.18 0 0 0 4.069 5.25v13.5a1.18 1.18 0 0 0 1.181 1.181h13.5a1.18 1.18 0 0 0 1.181-1.181V8.229a1.17 1.17 0 0 0-.346-.834m-4.042 11.524H8.455v-4.894a.17.17 0 0 1 .169-.169h6.75a.17.17 0 0 1 .169.169zm3.375-.169a.17.17 0 0 1-.169.169h-2.194v-4.894a1.18 1.18 0 0 0-1.181-1.181h-6.75a1.18 1.18 0 0 0-1.181 1.181v4.894H5.249a.17.17 0 0 1-.169-.169V5.25a.17.17 0 0 1 .169-.169H15.77a.17.17 0 0 1 .119.049l2.98 2.98a.17.17 0 0 1 .049.119zM14.531 7.275a.506.506 0 0 1-.506.506H9.3a.507.507 0 0 1 0-1.013h4.725a.506.506 0 0 1 .506.506z"/></svg>