<svg xmlns="http://www.w3.org/2000/svg" width="24" height="24" fill="currentColor" viewBox="0 0 24 24"><path d="M12.675 10.819H5.25a.506.506 0 0 0-.506.506v7.425a.506.506 0 0 0 .506.506h7.425a.506.506 0 0 0 .506-.506v-7.425a.506.506 0 0 0-.506-.506m-.506 7.425H5.756v-6.413h6.412zm7.088-1.519v1.35a1.18 1.18 0 0 1-1.181 1.181h-2.025a.506.506 0 0 1 0-1.012h2.025a.17.17 0 0 0 .169-.169v-1.35a.506.506 0 0 1 1.012 0m0-6.075v2.7a.506.506 0 0 1-1.012 0v-2.7a.506.506 0 0 1 1.012 0m0-4.725v1.35a.506.506 0 0 1-1.012 0v-1.35a.17.17 0 0 0-.169-.169h-1.35a.507.507 0 0 1 0-1.013h1.35a1.18 1.18 0 0 1 1.181 1.181zm-5.4-.675a.506.506 0 0 1-.506.506h-2.7a.507.507 0 0 1 0-1.013h2.7a.506.506 0 0 1 .506.506zm-9.113 2.7V5.925a1.18 1.18 0 0 1 1.181-1.181h1.35a.507.507 0 0 1 0 1.013h-1.35a.17.17 0 0 0-.169.169v2.025a.507.507 0 0 1-1.013 0z"/></svg>