<svg xmlns="http://www.w3.org/2000/svg" width="24" height="24" fill="currentColor" viewBox="0 0 24 24"><path d="M18.75 8.625H5.25a.675.675 0 0 0-.675.675v9.45a.675.675 0 0 0 .675.675h13.5a.675.675 0 0 0 .675-.675V9.3a.675.675 0 0 0-.675-.675M12 14.7a1.688 1.688 0 1 1 1.688-1.688A1.69 1.69 0 0 1 12 14.7" opacity=".2"/><path d="M18.75 7.95h-2.7V5.925a4.05 4.05 0 0 0-8.1 0V7.95h-2.7A1.35 1.35 0 0 0 3.9 9.3v9.45a1.35 1.35 0 0 0 1.35 1.35h13.5a1.35 1.35 0 0 0 1.35-1.35V9.3a1.35 1.35 0 0 0-1.35-1.35M9.3 5.925a2.7 2.7 0 0 1 5.4 0V7.95H9.3zm9.45 12.825H5.25V9.3h13.5zM12 10.65a2.363 2.363 0 0 0-.675 4.626v1.449a.675.675 0 0 0 1.35 0v-1.449A2.363 2.363 0 0 0 12 10.65m0 3.375a1.013 1.013 0 1 1 1.012-1.012A1.013 1.013 0 0 1 12 14.026z"/></svg>