<svg viewBox="0 0 24 24" fill="none" xmlns="http://www.w3.org/2000/svg" width="24" height="24">
<path d="M5.25004 5.25H18.75V18.75H5.25L5.25004 5.25Z" fill="black" fill-opacity="0.2"/>
<path d="M2 20.6367V18.0459C2 17.7698 2.22386 17.5459 2.5 17.5459C2.77614 17.5459 3 17.7698 3 18.0459V20.6367C3.0001 20.733 3.03834 20.8255 3.10645 20.8936C3.17455 20.9617 3.26697 20.9999 3.36328 21H5.9541C6.23024 21 6.4541 21.2239 6.4541 21.5C6.45408 21.7761 6.23023 22 5.9541 22H3.36328C3.00176 21.9999 2.65506 21.8562 2.39941 21.6006C2.14377 21.3449 2.0001 20.9982 2 20.6367ZM13.7275 21C14.0036 21.0002 14.2275 21.224 14.2275 21.5C14.2275 21.776 14.0036 21.9998 13.7275 22H10.2725C9.99643 21.9999 9.77246 21.7761 9.77246 21.5C9.77246 21.2239 9.99643 21.0001 10.2725 21H13.7275ZM21 20.6367V18.0459C21 17.7698 21.2239 17.5459 21.5 17.5459C21.7761 17.5459 22 17.7698 22 18.0459V20.6367C21.9999 20.9982 21.8562 21.3449 21.6006 21.6006C21.3449 21.8562 20.9982 21.9999 20.6367 22H18.0459C17.7698 22 17.5459 21.7761 17.5459 21.5C17.5459 21.2239 17.7698 21 18.0459 21H20.6367C20.733 20.9999 20.8255 20.9617 20.8936 20.8936C20.9617 20.8255 20.9999 20.733 21 20.6367ZM9.62109 13.6719C9.81635 13.4766 10.1329 13.4766 10.3281 13.6719C10.5234 13.8671 10.5234 14.1836 10.3281 14.3789L6.45703 18.25H9.2998C9.57594 18.25 9.7998 18.4739 9.7998 18.75C9.7998 19.0261 9.57595 19.25 9.2998 19.25H5.25C4.97386 19.25 4.75 19.0261 4.75 18.75V14.7002C4.75 14.4241 4.97386 14.2002 5.25 14.2002C5.52614 14.2002 5.75 14.4241 5.75 14.7002V17.543L9.62109 13.6719ZM13.6709 13.6719C13.8662 13.4766 14.1836 13.4766 14.3789 13.6719L18.25 17.543V14.7002C18.25 14.4241 18.4739 14.2002 18.75 14.2002C19.0261 14.2002 19.25 14.4241 19.25 14.7002V18.75C19.25 19.0261 19.0261 19.25 18.75 19.25H14.7002C14.4241 19.25 14.2002 19.0261 14.2002 18.75C14.2002 18.4739 14.4241 18.25 14.7002 18.25H17.543L13.6709 14.3789C13.4758 14.1838 13.4761 13.8672 13.6709 13.6719ZM2 13.7275V10.2725C2.00015 9.99645 2.22395 9.77246 2.5 9.77246C2.77605 9.77246 2.99985 9.99645 3 10.2725V13.7275C2.99987 14.0036 2.77606 14.2275 2.5 14.2275C2.22394 14.2275 2.00013 14.0036 2 13.7275ZM21 13.7275V10.2725C21.0002 9.99645 21.224 9.77246 21.5 9.77246C21.776 9.77246 21.9998 9.99645 22 10.2725V13.7275C21.9999 14.0036 21.7761 14.2275 21.5 14.2275C21.2239 14.2275 21.0001 14.0036 21 13.7275ZM4.75 9.2998V5.25C4.75 4.97386 4.97386 4.75 5.25 4.75H9.2998C9.57595 4.75 9.7998 4.97386 9.7998 5.25C9.7998 5.52614 9.57595 5.75 9.2998 5.75H6.45703L10.3281 9.62109C10.5234 9.81636 10.5234 10.1329 10.3281 10.3281C10.1329 10.5234 9.81636 10.5234 9.62109 10.3281L5.75 6.45703V9.2998C5.75 9.57595 5.52614 9.7998 5.25 9.7998C4.97386 9.7998 4.75 9.57595 4.75 9.2998ZM2 5.9541V3.36328C2.00009 3.00175 2.14377 2.65506 2.39941 2.39941C2.65506 2.14377 3.00175 2.00009 3.36328 2H5.9541C6.23024 2 6.4541 2.22386 6.4541 2.5C6.4541 2.77614 6.23024 3 5.9541 3H3.36328C3.26697 3.00009 3.17456 3.03833 3.10645 3.10645C3.03833 3.17456 3.00009 3.26697 3 3.36328V5.9541C3 6.23024 2.77614 6.4541 2.5 6.4541C2.22386 6.4541 2 6.23024 2 5.9541ZM21 5.9541V3.36328C20.9999 3.26697 20.9617 3.17456 20.8936 3.10645C20.8254 3.03834 20.733 3.00009 20.6367 3H18.0459C17.7698 3 17.5459 2.77614 17.5459 2.5C17.5459 2.22386 17.7698 2 18.0459 2H20.6367C20.9983 2.00009 21.3449 2.14377 21.6006 2.39941C21.8562 2.65506 21.9999 3.00175 22 3.36328V5.9541C22 6.23024 21.7761 6.4541 21.5 6.4541C21.2239 6.45409 21 6.23023 21 5.9541ZM13.7275 2C14.0035 2.0002 14.2275 2.22398 14.2275 2.5C14.2275 2.77602 14.0035 2.9998 13.7275 3H10.2725C9.99639 2.99992 9.77246 2.77609 9.77246 2.5C9.77246 2.22391 9.99639 2.00008 10.2725 2H13.7275ZM19.25 9.2998C19.25 9.57593 19.0261 9.79978 18.75 9.7998C18.4739 9.7998 18.25 9.57595 18.25 9.2998V6.45703L14.3789 10.3281C14.1836 10.5234 13.8662 10.5234 13.6709 10.3281C13.4761 10.1328 13.4758 9.81621 13.6709 9.62109L17.543 5.75H14.7002C14.4241 5.75 14.2002 5.52614 14.2002 5.25C14.2002 4.97386 14.4241 4.75 14.7002 4.75H18.75C19.0261 4.75003 19.25 4.97387 19.25 5.25V9.2998Z" fill="black"/>
</svg>