<svg xmlns="http://www.w3.org/2000/svg" width="24" height="24" fill="currentColor" viewBox="0 0 24 24"><path d="M7.08 6.44a.506.506 0 0 0-.96 0L2.745 16.565a.506.506 0 0 0 .48.667h6.75a.506.506 0 0 0 .48-.667zm-3.153 9.779L6.6 8.203l2.673 8.016zm14.654-8.606a4.219 4.219 0 1 0-4.219 4.219 4.224 4.224 0 0 0 4.219-4.219m-7.425 0a3.206 3.206 0 1 1 3.206 3.206 3.206 3.206 0 0 1-3.206-3.206m8.944 5.906h-7.425a.506.506 0 0 0-.506.506v4.725a.506.506 0 0 0 .506.506H20.1a.506.506 0 0 0 .506-.506v-4.725a.506.506 0 0 0-.506-.506m-.506 4.725h-6.412v-3.713h6.412z"/></svg>