<svg xmlns="http://www.w3.org/2000/svg" width="24" height="24" fill="currentColor" viewBox="0 0 24 24"><path d="m6.6 6.6 3.375 10.125h-6.75zm11.475 1.013a3.713 3.713 0 1 0-3.713 3.712 3.713 3.713 0 0 0 3.713-3.712m-5.4 6.413v4.725H20.1v-4.725z" opacity=".2"/><path d="M20.1 13.35h-7.425a.675.675 0 0 0-.675.675v4.725a.675.675 0 0 0 .675.675H20.1a.675.675 0 0 0 .675-.675v-4.725a.675.675 0 0 0-.675-.675m-.675 4.725H13.35V14.7h6.075zM7.24 6.387a.675.675 0 0 0-1.281 0L2.584 16.512a.675.675 0 0 0 .64.888h6.75a.675.675 0 0 0 .64-.888zM4.161 16.05l2.438-7.315 2.438 7.315zm14.588-8.438A4.388 4.388 0 1 0 14.362 12a4.393 4.393 0 0 0 4.387-4.388m-7.425 0a3.038 3.038 0 1 1 3.037 3.038 3.04 3.04 0 0 1-3.037-3.038"/></svg>