<svg xmlns="http://www.w3.org/2000/svg" fill="currentColor" viewBox="0 0 24 24" width="24" height="24"><path d="M20.489 6.276a.5.5 0 0 0-.389-.182H6.347L5.81 3.135a.506.506 0 0 0-.498-.416H3.225a.506.506 0 0 0 0 1.012h1.664l2.178 11.976a1.85 1.85 0 0 0 .527.993 2.194 2.194 0 1 0 3.216.531h4.406a2.194 2.194 0 1 0 1.847-1.012h-8.17a.844.844 0 0 1-.83-.693l-.304-1.67h9.987a1.856 1.856 0 0 0 1.827-1.524l1.025-5.642a.5.5 0 0 0-.109-.414M10.144 18.413a1.181 1.181 0 1 1-1.181-1.181 1.18 1.18 0 0 1 1.181 1.181m8.1 0a1.181 1.181 0 1 1-1.181-1.181 1.18 1.18 0 0 1 1.181 1.181m.332-6.261a.844.844 0 0 1-.83.693H7.575L6.532 7.107h12.962z"/></svg>