<svg xmlns="http://www.w3.org/2000/svg" fill="currentColor" viewBox="0 0 24 24" width="24" height="24"><path d="M20.1 5.925V7.95H3.9V5.925a.675.675 0 0 1 .675-.675h14.85a.675.675 0 0 1 .675.675" opacity=".2"/><path d="M19.425 4.575H4.575a1.35 1.35 0 0 0-1.35 1.35v12.15a1.35 1.35 0 0 0 1.35 1.35h14.85a1.35 1.35 0 0 0 1.35-1.35V5.925a1.35 1.35 0 0 0-1.35-1.35m0 1.35v1.35H4.575v-1.35zm0 12.15H4.575v-9.45h14.85zM16.05 10.65a4.05 4.05 0 0 1-8.1 0 .675.675 0 0 1 1.35 0 2.7 2.7 0 0 0 5.4 0 .675.675 0 0 1 1.35 0"/></svg>