<svg xmlns="http://www.w3.org/2000/svg" fill="currentColor" viewBox="0 0 24 24" width="24" height="24"><path d="M19.425 4.744H4.575a1.18 1.18 0 0 0-1.181 1.181v12.15a1.18 1.18 0 0 0 1.181 1.181h14.85a1.18 1.18 0 0 0 1.181-1.181V5.925a1.18 1.18 0 0 0-1.181-1.181M4.575 5.757h14.85a.17.17 0 0 1 .169.169v1.519H4.406V5.926a.17.17 0 0 1 .169-.169m14.85 12.488H4.575a.17.17 0 0 1-.169-.169V8.457h15.188v9.619a.17.17 0 0 1-.169.169m-3.544-7.594a3.882 3.882 0 0 1-7.763 0 .507.507 0 0 1 1.013 0 2.869 2.869 0 0 0 5.738 0 .506.506 0 0 1 1.012 0"/></svg>