<svg viewBox="0 0 24 24" fill="none" xmlns="http://www.w3.org/2000/svg" width="24" height="24">
<path d="M19.4248 6.08008C19.7009 6.08008 19.9248 6.30394 19.9248 6.58008C19.9248 6.85622 19.7009 7.08008 19.4248 7.08008H4.5752C4.29905 7.08008 4.0752 6.85622 4.0752 6.58008C4.0752 6.30394 4.29905 6.08008 4.5752 6.08008H19.4248Z" fill="black"/>
<path d="M19.4248 16.9199C19.7009 16.9199 19.9248 17.1438 19.9248 17.4199C19.9248 17.6961 19.7009 17.9199 19.4248 17.9199H4.5752C4.29905 17.9199 4.0752 17.6961 4.0752 17.4199C4.0752 17.1438 4.29905 16.9199 4.5752 16.9199H19.4248Z" fill="black"/>
<path d="M17.9199 19.4248C17.9199 19.7009 17.6961 19.9248 17.4199 19.9248C17.1438 19.9248 16.9199 19.7009 16.9199 19.4248L16.9199 4.5752C16.9199 4.29905 17.1438 4.0752 17.4199 4.0752C17.6961 4.0752 17.9199 4.29905 17.9199 4.5752L17.9199 19.4248Z" fill="black"/>
<path d="M7.08008 19.4248C7.08008 19.7009 6.85622 19.9248 6.58008 19.9248C6.30394 19.9248 6.08008 19.7009 6.08008 19.4248L6.08008 4.5752C6.08008 4.29905 6.30394 4.0752 6.58008 4.0752C6.85622 4.0752 7.08008 4.29905 7.08008 4.5752L7.08008 19.4248Z" fill="black"/>
<path d="M14.9458 10.6423V9.08374H13.3872C13.111 9.08374 12.8872 8.85988 12.8872 8.58374C12.8872 8.3076 13.111 8.08374 13.3872 8.08374H15.4458C15.7218 8.08386 15.9458 8.30767 15.9458 8.58374V10.6423C15.9456 10.9183 15.7217 11.1422 15.4458 11.1423C15.1697 11.1423 14.9459 10.9184 14.9458 10.6423Z" fill="black"/>
<path d="M15.0922 8.23022C15.2875 8.03497 15.604 8.035 15.7993 8.23022C15.9945 8.42549 15.9945 8.74199 15.7993 8.93725L13.3979 11.3386C13.2026 11.5339 12.8861 11.5339 12.6909 11.3386C12.4956 11.1434 12.4956 10.8268 12.6909 10.6316L15.0922 8.23022Z" fill="black"/>
<path d="M8.08447 13.3875C8.08447 13.1113 8.30833 12.8875 8.58447 12.8875C8.86062 12.8875 9.08447 13.1113 9.08447 13.3875V14.946H10.6431C10.9191 14.9462 11.1431 15.17 11.1431 15.446C11.1429 15.722 10.919 15.9459 10.6431 15.946H8.58447C8.3084 15.946 8.08459 15.7221 8.08447 15.446V13.3875Z" fill="black"/>
<path d="M10.6323 12.6902C10.8275 12.4949 11.144 12.495 11.3393 12.6902C11.5346 12.8854 11.5346 13.202 11.3393 13.3972L8.93794 15.7986C8.74268 15.9938 8.42617 15.9938 8.23091 15.7986C8.03569 15.6033 8.03566 15.2868 8.23091 15.0916L10.6323 12.6902Z" fill="black"/>
<path d="M14.9458 13.3875C14.9458 13.1113 15.1696 12.8875 15.4458 12.8875C15.7218 12.8876 15.9458 13.1114 15.9458 13.3875V15.446C15.9456 15.722 15.7217 15.9459 15.4458 15.946H13.3872C13.1111 15.946 12.8873 15.7221 12.8872 15.446C12.8872 15.1699 13.111 14.946 13.3872 14.946H14.9458V13.3875Z" fill="black"/>
<path d="M12.6909 12.6902C12.8861 12.4949 13.2026 12.4949 13.3979 12.6902L15.7993 15.0916C15.9945 15.2868 15.9945 15.6033 15.7993 15.7986C15.604 15.9938 15.2875 15.9938 15.0922 15.7986L12.6909 13.3972C12.4956 13.202 12.4956 12.8854 12.6909 12.6902Z" fill="black"/>
<path d="M8.08443 10.6423V8.58374C8.08443 8.3076 8.30828 8.08374 8.58443 8.08374H10.643C10.9191 8.08386 11.143 8.30767 11.143 8.58374C11.143 8.85981 10.9191 9.08362 10.643 9.08374H9.08443V10.6423C9.08431 10.9184 8.8605 11.1423 8.58443 11.1423C8.30836 11.1423 8.08454 10.9184 8.08443 10.6423Z" fill="black"/>
<path d="M8.23091 8.23022C8.42617 8.03496 8.74268 8.03496 8.93794 8.23022L11.3393 10.6316C11.5346 10.8269 11.5346 11.1434 11.3393 11.3386C11.144 11.5339 10.8275 11.5339 10.6323 11.3386L8.23091 8.93726C8.03565 8.74199 8.03565 8.42549 8.23091 8.23022Z" fill="black"/>
<path d="M10.27 11.0206C10.27 10.6064 10.6058 10.2706 11.02 10.2706H12.98C13.3942 10.2706 13.73 10.6064 13.73 11.0206V12.9794C13.73 13.3936 13.3942 13.7294 12.98 13.7294H11.02C10.6058 13.7294 10.27 13.3936 10.27 12.9794V11.0206Z" fill="#F5F5F5"/>
<path d="M13.23 11.0206C13.23 10.8825 13.1181 10.7706 12.98 10.7706H11.02C10.8819 10.7706 10.77 10.8825 10.77 11.0206V12.9796C10.7701 13.1176 10.882 13.2296 11.02 13.2296H12.98C13.118 13.2296 13.2299 13.1176 13.23 12.9796V11.0206ZM14.23 12.9796C14.2299 13.6699 13.6703 14.2296 12.98 14.2296H11.02C10.3297 14.2296 9.77013 13.6699 9.77002 12.9796V11.0206C9.77002 10.3303 10.3297 9.77061 11.02 9.77061H12.98C13.6703 9.77061 14.23 10.3303 14.23 11.0206V12.9796Z" fill="black"/>
</svg>