<svg xmlns="http://www.w3.org/2000/svg" fill="currentColor" viewBox="0 0 24 24" width="24" height="24"><path d="M6.431 10.194V4.575a.507.507 0 0 0-1.013 0v5.619a2.531 2.531 0 0 0 0 4.961v4.269a.507.507 0 0 0 1.013 0v-4.269a2.531 2.531 0 0 0 0-4.961m-.506 3.999a1.519 1.519 0 1 1 1.519-1.519 1.52 1.52 0 0 1-1.519 1.519m6.581-8.049V4.575a.506.506 0 0 0-1.012 0v1.569a2.531 2.531 0 0 0 0 4.961v8.319a.506.506 0 0 0 1.012 0v-8.319a2.531 2.531 0 0 0 0-4.961M12 10.143a1.519 1.519 0 1 1 1.519-1.519A1.52 1.52 0 0 1 12 10.143m8.606 5.231a2.535 2.535 0 0 0-2.025-2.481V4.574a.506.506 0 0 0-1.012 0v8.319a2.531 2.531 0 0 0 0 4.961v1.569a.506.506 0 0 0 1.012 0v-1.569a2.535 2.535 0 0 0 2.025-2.481zm-2.531 1.519a1.519 1.519 0 1 1 1.519-1.519 1.52 1.52 0 0 1-1.519 1.519"/></svg>