<svg xmlns="http://www.w3.org/2000/svg" fill="currentColor" viewBox="0 0 24 24" width="24" height="24"><path d="M4.575 8.456h2.919a2.531 2.531 0 0 0 4.961 0h6.969a.507.507 0 0 0 0-1.013h-6.969a2.531 2.531 0 0 0-4.961 0H4.575a.507.507 0 0 0 0 1.013m5.4-2.025A1.519 1.519 0 1 1 8.456 7.95a1.52 1.52 0 0 1 1.519-1.519m9.45 9.113h-1.569a2.531 2.531 0 0 0-4.961 0H4.576a.507.507 0 0 0 0 1.013h8.319a2.531 2.531 0 0 0 4.961 0h1.569a.506.506 0 0 0 0-1.012zm-4.05 2.025a1.519 1.519 0 1 1 1.519-1.519 1.52 1.52 0 0 1-1.519 1.519"/></svg>