<svg xmlns="http://www.w3.org/2000/svg" width="24" height="24" fill="currentColor" viewBox="0 0 24 24"><path d="M19.425 5.419H4.575A1.18 1.18 0 0 0 3.394 6.6v13.5a1.17 1.17 0 0 0 .683 1.071 1.2 1.2 0 0 0 .499.111 1.17 1.17 0 0 0 .759-.279l.005-.004 2.799-2.416h11.287a1.18 1.18 0 0 0 1.181-1.181v-10.8a1.18 1.18 0 0 0-1.181-1.181zm.169 11.981a.17.17 0 0 1-.169.169H7.95a.5.5 0 0 0-.331.123l-2.938 2.537a.169.169 0 0 1-.275-.129V6.6a.17.17 0 0 1 .169-.169h14.85a.17.17 0 0 1 .169.169zm-4.387-6.75a.506.506 0 0 1-.506.506h-5.4a.507.507 0 0 1 0-1.013h5.4a.506.506 0 0 1 .506.506zm0 2.7a.506.506 0 0 1-.506.506h-5.4a.507.507 0 0 1 0-1.013h5.4a.506.506 0 0 1 .506.506z"/></svg>