<svg viewBox="0 0 24 24" fill="none" xmlns="http://www.w3.org/2000/svg" width="24" height="24">
<rect opacity="0.2" x="4.5752" y="4.5752" width="14.85" height="14.85" rx="0.75" fill="black"/>
<path d="M19.4248 6.08008C19.7009 6.08008 19.9248 6.30394 19.9248 6.58008C19.9248 6.85622 19.7009 7.08008 19.4248 7.08008H4.5752C4.29905 7.08008 4.0752 6.85622 4.0752 6.58008C4.0752 6.30394 4.29905 6.08008 4.5752 6.08008H19.4248Z" fill="black"/>
<path d="M19.4248 16.9199C19.7009 16.9199 19.9248 17.1438 19.9248 17.4199C19.9248 17.6961 19.7009 17.9199 19.4248 17.9199H4.5752C4.29905 17.9199 4.0752 17.6961 4.0752 17.4199C4.0752 17.1438 4.29905 16.9199 4.5752 16.9199H19.4248Z" fill="black"/>
<path d="M7.08008 19.4248C7.08008 19.7009 6.85622 19.9248 6.58008 19.9248C6.30394 19.9248 6.08008 19.7009 6.08008 19.4248L6.08008 4.5752C6.08008 4.29905 6.30394 4.0752 6.58008 4.0752C6.85622 4.0752 7.08008 4.29905 7.08008 4.5752L7.08008 19.4248Z" fill="black"/>
<path d="M10.3196 19.4248C10.3196 19.7009 10.0957 19.9248 9.81957 19.9248C9.54343 19.9248 9.31957 19.7009 9.31957 19.4248L9.31957 4.5752C9.31957 4.29905 9.54343 4.0752 9.81957 4.0752C10.0957 4.0752 10.3196 4.29905 10.3196 4.5752L10.3196 19.4248Z" fill="black"/>
<path d="M4.5752 12.5C4.29905 12.5 4.0752 12.2761 4.0752 12C4.0752 11.7239 4.29905 11.5 4.5752 11.5H9.81934C10.0955 11.5 10.3193 11.7239 10.3193 12C10.3193 12.2761 10.0955 12.5 9.81934 12.5H4.5752Z" fill="black"/>
<path d="M14.2949 12.8428C14.2949 12.5666 14.5188 12.3428 14.7949 12.3428C15.0711 12.3428 15.2949 12.5666 15.2949 12.8428V14.8105C15.2949 15.0867 15.0711 15.3105 14.7949 15.3105C14.5188 15.3105 14.2949 15.0867 14.2949 14.8105V12.8428Z" fill="black"/>
<path d="M14.2949 9.18945C14.2949 8.91333 14.5188 8.68945 14.7949 8.68945C15.0711 8.68945 15.2949 8.91333 15.2949 9.18945V11.1572C15.2949 11.4334 15.0711 11.6572 14.7949 11.6572C14.5188 11.6572 14.2949 11.4334 14.2949 11.1572V9.18945Z" fill="black"/>
<path d="M16.5312 13.3428H13.5586V14.3105H16.5312C16.8491 14.3106 17.1634 14.2492 17.4561 14.1309C17.7487 14.0125 18.0135 13.8392 18.2354 13.6221C18.4571 13.405 18.632 13.1484 18.75 12.8672C18.868 12.586 18.9271 12.2852 18.9248 11.9824C18.9149 10.7288 17.8379 9.68848 16.4951 9.68848H13.5586V10.6562H16.5312C16.8895 10.6562 17.2355 10.7947 17.4932 11.0449C17.7512 11.2955 17.8993 11.6382 17.8994 11.999C17.8994 12.3601 17.7513 12.7034 17.4932 12.9541C17.2355 13.2043 16.8895 13.3428 16.5312 13.3428ZM16.4951 8.68848C18.3434 8.68848 19.9106 10.1286 19.9248 11.9746C19.9282 12.4134 19.842 12.8483 19.6719 13.2539C19.5017 13.6594 19.2516 14.0276 18.9355 14.3369C18.6194 14.6463 18.2435 14.8908 17.8311 15.0576C17.4187 15.2244 16.9771 15.3106 16.5312 15.3105H13.3477C13.143 15.3105 12.9439 15.2316 12.7949 15.0869L12.7422 15.0303C12.6252 14.8917 12.5586 14.7149 12.5586 14.5293V13.124C12.5586 12.9384 12.6252 12.7617 12.7422 12.623L12.7949 12.5664L12.8535 12.5156C12.9942 12.4036 13.1686 12.3428 13.3477 12.3428H16.5312C16.6335 12.3428 16.7289 12.3033 16.7969 12.2373C16.8644 12.1717 16.8994 12.0853 16.8994 11.999C16.8993 11.9129 16.8643 11.8272 16.7969 11.7617C16.7289 11.6957 16.6335 11.6562 16.5312 11.6562H13.3477C13.143 11.6562 12.9439 11.5773 12.7949 11.4326L12.7422 11.376C12.6251 11.2374 12.5586 11.0606 12.5586 10.875V9.46973C12.5586 9.28413 12.6252 9.10736 12.7422 8.96875L12.7949 8.91211L12.8535 8.86133C12.9942 8.74931 13.1686 8.68855 13.3477 8.68848H16.4951Z" fill="black"/>
</svg>