<svg viewBox="0 0 24 24" fill="none" xmlns="http://www.w3.org/2000/svg" width="24" height="24">
<path d="M19.4248 5.90527C19.7976 5.90527 20.1006 6.20729 20.1006 6.58008C20.1006 6.95287 19.7976 7.25488 19.4248 7.25488H4.5752C4.2024 7.25488 3.90039 6.95287 3.90039 6.58008C3.90039 6.20729 4.2024 5.90527 4.5752 5.90527H19.4248Z" fill="black"/>
<path d="M19.4248 16.7451C19.7976 16.7451 20.1006 17.0471 20.1006 17.4199C20.1006 17.7927 19.7976 18.0947 19.4248 18.0947H4.5752C4.2024 18.0947 3.90039 17.7927 3.90039 17.4199C3.90039 17.0471 4.2024 16.7451 4.5752 16.7451H19.4248Z" fill="black"/>
<path d="M7.25488 19.4248C7.25488 19.7976 6.95287 20.1006 6.58008 20.1006C6.20729 20.1006 5.90527 19.7976 5.90527 19.4248L5.90527 4.5752C5.90527 4.2024 6.20729 3.90039 6.58008 3.90039C6.95287 3.90039 7.25488 4.2024 7.25488 4.5752L7.25488 19.4248Z" fill="black"/>
<path d="M10.4939 19.4248C10.4939 19.7976 10.1919 20.1006 9.81914 20.1006C9.44635 20.1006 9.14433 19.7976 9.14433 19.4248L9.14433 4.5752C9.14433 4.2024 9.44635 3.90039 9.81914 3.90039C10.1919 3.90039 10.4939 4.2024 10.4939 4.5752L10.4939 19.4248Z" fill="black"/>
<path d="M4.5752 12.6748C4.2024 12.6748 3.89941 12.3728 3.89941 12C3.89941 11.6272 4.2024 11.3252 4.5752 11.3252H9.81934C10.1921 11.3252 10.4941 11.6272 10.4941 12C10.4941 12.3728 10.1921 12.6748 9.81934 12.6748H4.5752Z" fill="black"/>
<path d="M16.5312 13.5176H13.7334V14.1357H16.5312C16.8267 14.1358 17.1189 14.0787 17.3906 13.9688C17.6624 13.8588 17.9079 13.6981 18.1133 13.4971C18.3186 13.2961 18.48 13.0584 18.5889 12.7988C18.6977 12.5394 18.7522 12.2624 18.75 11.9834C18.7411 10.8332 17.7496 9.86328 16.4951 9.86328H13.7334V10.4814H16.5312C16.9342 10.4814 17.3244 10.6366 17.6152 10.9189C17.9066 11.202 18.0741 11.5901 18.0742 11.999C18.0742 12.4081 17.9067 12.7969 17.6152 13.0801C17.3244 13.3624 16.9342 13.5176 16.5312 13.5176ZM16.4951 8.51367C18.4318 8.51367 20.0855 10.0231 20.1006 11.9727C20.1042 12.4354 20.0133 12.8939 19.834 13.3213C19.6547 13.7487 19.3903 14.1363 19.0576 14.4619C18.7251 14.7874 18.3307 15.0454 17.8975 15.2207C17.4641 15.396 16.9995 15.4854 16.5312 15.4854H13.3477C13.0982 15.4853 12.855 15.3889 12.6729 15.2119L12.6084 15.1426C12.4654 14.973 12.3838 14.7568 12.3838 14.5293V13.124C12.3838 12.8965 12.4654 12.6803 12.6084 12.5107L12.6729 12.4414L12.7441 12.3779C12.9161 12.2411 13.1295 12.168 13.3477 12.168H16.5312C16.5887 12.168 16.64 12.1452 16.6748 12.1113C16.7089 12.0782 16.7246 12.0372 16.7246 11.999C16.7245 11.961 16.7087 11.9207 16.6748 11.8877C16.64 11.8539 16.5887 11.8311 16.5312 11.8311H13.3477C13.0982 11.831 12.855 11.7346 12.6729 11.5576L12.6084 11.4883C12.4654 11.3187 12.3838 11.1026 12.3838 10.875V9.46973C12.3838 9.24219 12.4654 9.02599 12.6084 8.85645L12.6729 8.78613L12.7441 8.72363C12.9161 8.5868 13.1295 8.51375 13.3477 8.51367H16.4951Z" fill="black"/>
<path d="M13.6162 9.64551H14.4556V10.7021H13.6162V9.64551Z" fill="black"/>
<path d="M13.6162 9.64551H14.4556V10.7021H13.6162V9.64551Z" fill="black"/>
<path d="M13.6162 9.64551H14.4556V10.7021H13.6162V9.64551Z" fill="black"/>
<path d="M13.6162 13.2988H14.4556V14.3555H13.6162V13.2988Z" fill="black"/>
<path d="M13.6162 13.2988H14.4556V14.3555H13.6162V13.2988Z" fill="black"/>
<path d="M13.6162 13.2988H14.4556V14.3555H13.6162V13.2988Z" fill="black"/>
<path d="M14.1201 12.8428C14.1201 12.47 14.4221 12.168 14.7949 12.168C15.1677 12.168 15.4697 12.47 15.4697 12.8428V14.8105C15.4697 15.1833 15.1677 15.4854 14.7949 15.4854C14.4221 15.4854 14.1201 15.1833 14.1201 14.8105V12.8428Z" fill="black"/>
<path d="M14.1201 9.18945C14.1201 8.81668 14.4221 8.51465 14.7949 8.51465C15.1677 8.51465 15.4697 8.81668 15.4697 9.18945V11.1572C15.4697 11.53 15.1677 11.832 14.7949 11.832C14.4221 11.832 14.1201 11.53 14.1201 11.1572V9.18945Z" fill="black"/>
</svg>