<svg viewBox="0 0 24 24" fill="none" xmlns="http://www.w3.org/2000/svg" width="24" height="24">
<path d="M19.4248 5.90527C19.7976 5.90527 20.1006 6.20729 20.1006 6.58008C20.1006 6.95287 19.7976 7.25488 19.4248 7.25488H4.5752C4.2024 7.25488 3.90039 6.95287 3.90039 6.58008C3.90039 6.20729 4.2024 5.90527 4.5752 5.90527H19.4248Z" fill="black"/>
<path d="M19.4248 16.7451C19.7976 16.7451 20.1006 17.0471 20.1006 17.4199C20.1006 17.7927 19.7976 18.0947 19.4248 18.0947H4.5752C4.2024 18.0947 3.90039 17.7927 3.90039 17.4199C3.90039 17.0471 4.2024 16.7451 4.5752 16.7451H19.4248Z" fill="black"/>
<path d="M18.0947 19.4248C18.0947 19.7976 17.7927 20.1006 17.4199 20.1006C17.0471 20.1006 16.7451 19.7976 16.7451 19.4248L16.7451 4.5752C16.7451 4.2024 17.0471 3.90039 17.4199 3.90039C17.7927 3.90039 18.0947 4.2024 18.0947 4.5752L18.0947 19.4248Z" fill="black"/>
<path d="M7.25488 19.4248C7.25488 19.7976 6.95287 20.1006 6.58008 20.1006C6.20729 20.1006 5.90527 19.7976 5.90527 19.4248L5.90527 4.5752C5.90527 4.2024 6.20729 3.90039 6.58008 3.90039C6.95287 3.90039 7.25488 4.2024 7.25488 4.5752L7.25488 19.4248Z" fill="black"/>
<path d="M12.6748 19.4248C12.6748 19.7976 12.3728 20.1006 12 20.1006C11.6272 20.1006 11.3252 19.7976 11.3252 19.4248L11.3252 4.5752C11.3252 4.2024 11.6272 3.90039 12 3.90039C12.3728 3.90039 12.6748 4.2024 12.6748 4.5752L12.6748 19.4248Z" fill="black"/>
<path d="M4.5752 12.6748C4.2024 12.6748 3.89941 12.3728 3.89941 12C3.89941 11.6272 4.2024 11.3252 4.5752 11.3252L19.4248 11.3252C19.7976 11.3252 20.0996 11.6272 20.0996 12C20.0996 12.3728 19.7976 12.6748 19.4248 12.6748L4.5752 12.6748Z" fill="black"/>
</svg>