<svg viewBox="0 0 24 24" fill="none" xmlns="http://www.w3.org/2000/svg" width="24" height="24">
<rect opacity="0.2" x="4.5752" y="4.5752" width="14.85" height="14.85" rx="0.75" fill="black"/>
<path d="M19.4248 6.08008C19.7009 6.08008 19.9248 6.30394 19.9248 6.58008C19.9248 6.85622 19.7009 7.08008 19.4248 7.08008H4.5752C4.29905 7.08008 4.0752 6.85622 4.0752 6.58008C4.0752 6.30394 4.29905 6.08008 4.5752 6.08008H19.4248Z" fill="black"/>
<path d="M19.4248 16.9199C19.7009 16.9199 19.9248 17.1438 19.9248 17.4199C19.9248 17.6961 19.7009 17.9199 19.4248 17.9199H4.5752C4.29905 17.9199 4.0752 17.6961 4.0752 17.4199C4.0752 17.1438 4.29905 16.9199 4.5752 16.9199H19.4248Z" fill="black"/>
<path d="M10.77 19.4248C10.77 19.7009 10.5462 19.9248 10.27 19.9248C9.99388 19.9248 9.77002 19.7009 9.77002 19.4248L9.77002 4.5752C9.77002 4.29905 9.99388 4.0752 10.27 4.0752C10.5462 4.0752 10.77 4.29905 10.77 4.5752L10.77 19.4248Z" fill="black"/>
<path d="M7.08008 19.4248C7.08008 19.7009 6.85622 19.9248 6.58008 19.9248C6.30394 19.9248 6.08008 19.7009 6.08008 19.4248L6.08008 4.5752C6.08008 4.29905 6.30394 4.0752 6.58008 4.0752C6.85622 4.0752 7.08008 4.29905 7.08008 4.5752L7.08008 19.4248Z" fill="black"/>
<path d="M14.2951 12.8428C14.2951 12.5667 14.5189 12.3428 14.7951 12.3428C15.0712 12.3428 15.295 12.5667 15.2951 12.8428V14.8106C15.2951 15.0868 15.0712 15.3106 14.7951 15.3106C14.5189 15.3106 14.2951 15.0868 14.2951 14.8106V12.8428Z" fill="black"/>
<path d="M14.2951 9.18986C14.2951 8.91373 14.5189 8.68986 14.7951 8.68986C15.0712 8.68986 15.295 8.91373 15.2951 9.18986V11.1576C15.2951 11.4338 15.0712 11.6576 14.7951 11.6576C14.5189 11.6576 14.2951 11.4338 14.2951 11.1576V9.18986Z" fill="black"/>
<path d="M16.5312 13.3428H13.5586V14.3106H16.5312C16.8491 14.3106 17.1634 14.2493 17.4561 14.1309C17.7487 14.0125 18.0135 13.8393 18.2354 13.6221C18.4571 13.4051 18.632 13.1485 18.75 12.8672C18.868 12.5861 18.9271 12.2852 18.9248 11.9825C18.9149 10.7288 17.8379 9.68854 16.4951 9.68854H13.5586V10.6563H16.5312C16.8895 10.6563 17.2355 10.7947 17.4932 11.045C17.7512 11.2956 17.8993 11.6382 17.8994 11.9991C17.8994 12.3601 17.7513 12.7034 17.4932 12.9542C17.2355 13.2044 16.8895 13.3428 16.5312 13.3428ZM16.4951 8.68854C18.3434 8.68854 19.9106 10.1286 19.9248 11.9747C19.9282 12.4135 19.842 12.8484 19.6719 13.254C19.5017 13.6595 19.2516 14.0276 18.9355 14.337C18.6194 14.6464 18.2435 14.8909 17.8311 15.0577C17.4187 15.2245 16.9771 15.3106 16.5312 15.3106H13.3477C13.143 15.3105 12.9439 15.2317 12.7949 15.087L12.7422 15.0303C12.6252 14.8917 12.5586 14.715 12.5586 14.5294V13.1241C12.5586 12.9385 12.6252 12.7617 12.7422 12.6231L12.7949 12.5665L12.8535 12.5157C12.9942 12.4037 13.1686 12.3429 13.3477 12.3428H16.5312C16.6335 12.3428 16.7289 12.3034 16.7969 12.2374C16.8644 12.1718 16.8994 12.0854 16.8994 11.9991C16.8993 11.913 16.8643 11.8272 16.7969 11.7618C16.7289 11.6957 16.6335 11.6563 16.5312 11.6563H13.3477C13.143 11.6562 12.9439 11.5774 12.7949 11.4327L12.7422 11.376C12.6251 11.2374 12.5586 11.0607 12.5586 10.8751V9.46979C12.5586 9.28419 12.6252 9.10742 12.7422 8.96881L12.7949 8.91217L12.8535 8.86139C12.9942 8.74937 13.1686 8.68861 13.3477 8.68854H16.4951Z" fill="black"/>
</svg>