<svg viewBox="0 0 24 24" fill="none" xmlns="http://www.w3.org/2000/svg" width="24" height="24">
<path fill-rule="evenodd" clip-rule="evenodd" d="M20.1 5.25039C20.1 5.06775 20.0549 4.89234 19.985 4.72735C19.9788 4.71267 19.9722 4.69811 19.9654 4.68366L19.9608 4.67397C19.9546 4.66094 19.9481 4.64799 19.9414 4.635C19.8781 4.51248 19.8039 4.39511 19.7046 4.2958C19.4514 4.04262 19.108 3.90039 18.75 3.90039H6.31849L9.38676 7.27539H15.375C15.554 7.27539 15.7257 7.34651 15.8523 7.47309C15.9789 7.59968 16.05 7.77137 16.05 7.95039C16.05 8.12941 15.9789 8.3011 15.8523 8.42769C15.7257 8.55428 15.554 8.62539 15.375 8.62539H10.6141L14.7 13.1198V11.3254C14.7 11.2896 14.7028 11.2541 14.7084 11.2192C14.7306 11.0795 14.7964 10.9494 14.8977 10.8481C15.0143 10.7315 15.1693 10.6619 15.3329 10.6517L15.3687 10.6192V10.6504C15.5477 10.6504 15.7257 10.7215 15.8523 10.8481C15.9789 10.9747 16.05 11.1464 16.05 11.3254V14.6048L16.2839 14.862L16.9224 14.2228C17.0491 14.0962 17.2209 14.025 17.4 14.025C17.5791 14.025 17.7509 14.0962 17.8776 14.2228C18.0042 14.3495 18.0754 14.5213 18.0754 14.7004C18.0754 14.8795 18.0042 15.0513 17.8776 15.178L17.1932 15.8623L19.731 18.6537L20.0713 19.0271C20.0902 18.9368 20.1 18.8441 20.1 18.7504L20.0937 6.32565L20.1 5.25039Z" fill="black"/>
<path fill-rule="evenodd" clip-rule="evenodd" d="M4.62708 4.05269L5.23291 4.7123L7.55861 7.27582L18.4868 19.2885L18.4972 19.3L18.5266 19.3336L18.5502 19.3609L18.5968 19.4164L18.7329 19.5619C18.7732 19.6063 18.9466 19.7725 19.2103 20.0193C19.1776 20.0313 19.1444 20.0421 19.1111 20.0515C19.0739 20.0618 19.0362 20.0706 18.9981 20.0778C18.9615 20.0846 18.9246 20.09 18.8874 20.0938C18.8766 20.0949 18.8657 20.0959 18.8548 20.0967C18.8357 20.0982 18.8165 20.0993 18.7973 20.1C18.7815 20.1005 18.7657 20.1008 18.7499 20.1008H5.2499C5.15446 20.1008 5.06006 20.0907 4.96813 20.0711C4.7152 20.0171 4.48099 19.8911 4.29531 19.7054C4.04213 19.4522 3.8999 19.1089 3.8999 18.7508L3.89991 5.24567C3.90127 4.88949 4.04334 4.54819 4.2953 4.29623C4.39371 4.19782 4.50584 4.11574 4.62708 4.05269ZM6.6 12.0004C6.6 11.9501 6.60562 11.9003 6.61652 11.852C6.64436 11.7285 6.70663 11.6145 6.79761 11.5235C6.92419 11.3969 7.09588 11.3258 7.2749 11.3258L9.42375 11.3254L10.651 12.6758H7.2749C7.09588 12.6758 6.92419 12.6047 6.79761 12.4781C6.67102 12.3515 6.6 12.1794 6.6 12.0004ZM6.60441 15.9729C6.60269 15.9876 6.60146 16.0025 6.60073 16.0174C6.60018 16.0285 6.5999 16.0396 6.5999 16.0508C6.5999 16.2298 6.67102 16.4015 6.79761 16.5281C6.92419 16.6547 7.09588 16.7258 7.2749 16.7258H10.6499C10.8289 16.7258 11.0006 16.6547 11.1272 16.5281C11.2187 16.4366 11.2813 16.3215 11.3089 16.1971C11.3195 16.1494 11.3249 16.1004 11.3249 16.0508C11.3249 15.8718 11.2538 15.7001 11.1272 15.5735C11.0006 15.4469 10.8289 15.3758 10.6499 15.3758H7.2749C7.09588 15.3758 6.92419 15.4469 6.79761 15.5735C6.70672 15.6644 6.64442 15.7786 6.61652 15.902C6.61211 15.9215 6.60856 15.9412 6.6059 15.9611L6.60441 15.9729Z" fill="black"/>
</svg>