<svg xmlns="http://www.w3.org/2000/svg" width="24" height="24" fill="currentColor" viewBox="0 0 24 24"><path d="m10.967 14.342 8.1-8.1a.506.506 0 0 1 .715.716l-8.1 8.1a.506.506 0 0 1-.716-.716zM12 8.456a5.6 5.6 0 0 1 1.779.29.506.506 0 0 0 .323-.96 6.58 6.58 0 0 0-8.643 6.969.506.506 0 0 0 .506.451h.057a.506.506 0 0 0 .447-.559 6 6 0 0 1-.038-.623A5.575 5.575 0 0 1 12 8.455zm8.269 1.342a.506.506 0 1 0-.901.462 8.3 8.3 0 0 1 .435 6.518.17.17 0 0 1-.161.116H4.361a.175.175 0 0 1-.161-.119A8.288 8.288 0 0 1 12 5.756h.076a8.2 8.2 0 0 1 3.688.905.508.508 0 1 0 .463-.905 9.2 9.2 0 0 0-4.143-1.013H12a9.286 9.286 0 0 0-8.756 12.368 1.19 1.19 0 0 0 1.116.795h15.278a1.19 1.19 0 0 0 1.115-.791 9.3 9.3 0 0 0-.485-7.318z"/></svg>