<svg xmlns="http://www.w3.org/2000/svg" width="24" height="24" fill="currentColor" viewBox="0 0 24 24"><path d="M19.92 8.866a.338.338 0 0 0-.521-.052l-6.364 6.364a.675.675 0 0 1-.952-.954l7.822-7.821a.675.675 0 0 0-.955-.955l-1.129 1.13A9.454 9.454 0 0 0 3.084 17.169a1.36 1.36 0 0 0 1.276.907h15.278a1.35 1.35 0 0 0 1.275-.904 9.47 9.47 0 0 0-.993-8.305zM6.046 15.241a.675.675 0 0 1-.527.796 1 1 0 0 1-.135.014.675.675 0 0 1-.661-.541 7.43 7.43 0 0 1 8.592-8.793.675.675 0 0 1-.238 1.329 6.08 6.08 0 0 0-7.031 7.196z"/></svg>