<svg viewBox="0 0 24 24" fill="none" xmlns="http://www.w3.org/2000/svg" width="24" height="24">
<path d="M7.87179 9.74847C7.87179 9.89589 7.837 10.0266 7.76896 10.14C7.70092 10.2477 7.61042 10.3328 7.49705 10.3951C7.38941 10.4574 7.26489 10.489 7.12329 10.4891C6.94766 10.4891 6.81131 10.4464 6.71493 10.3615C6.62422 10.2765 6.57849 10.1686 6.57848 10.0382C6.57848 9.93634 6.61257 9.8543 6.68032 9.79198C6.74836 9.72394 6.85399 9.67498 6.99574 9.64663C7.14309 9.61268 7.32755 9.5962 7.54846 9.5962H7.87179V9.74847Z" fill="black"/>
<path d="M12.4419 8.21786C12.6684 8.21793 12.8552 8.30316 13.0025 8.47296C13.1499 8.63739 13.224 8.9098 13.224 9.28969C13.224 9.53899 13.1901 9.74302 13.1222 9.90173C13.0541 10.0548 12.9604 10.1714 12.8413 10.2508C12.728 10.3244 12.5949 10.3615 12.4419 10.3615C12.2094 10.3615 12.0188 10.2765 11.8714 10.1064C11.724 9.9363 11.6509 9.66386 11.6509 9.28969C11.6509 9.03468 11.6847 8.8307 11.7527 8.67764C11.8208 8.51888 11.9145 8.40231 12.0335 8.3286C12.1526 8.25494 12.2888 8.21786 12.4419 8.21786Z" fill="black"/>
<path fill-rule="evenodd" clip-rule="evenodd" d="M19.3405 3.8999C19.7599 3.8999 20.0999 4.23989 20.0999 4.65928V19.3405C20.0999 19.7599 19.7599 20.0999 19.3405 20.0999H4.65928C4.23989 20.0999 3.8999 19.7599 3.8999 19.3405V4.65928C3.8999 4.23989 4.23989 3.8999 4.65928 3.8999H19.3405ZM16.0459 12.5704C15.7279 12.1917 15.1632 12.143 14.7843 12.4607L9.95612 16.5126L8.50757 14.7872C8.18945 14.4083 7.62395 14.3585 7.24491 14.6765C6.8661 14.9946 6.81636 15.5602 7.13417 15.9392L9.15917 18.3518C9.47734 18.7306 10.0429 18.7795 10.4218 18.4615L15.9352 13.8331C16.3142 13.5149 16.3641 12.9495 16.0459 12.5704ZM7.24194 7.10352C7.0492 7.10352 6.83661 7.12092 6.60419 7.15493C6.37743 7.18895 6.12779 7.25659 5.85569 7.35862C5.70847 7.41524 5.59816 7.49505 5.52445 7.59691C5.45644 7.69892 5.41941 7.8069 5.41371 7.92024C5.41371 8.03357 5.44211 8.13833 5.49874 8.23467C5.56111 8.33106 5.64612 8.39965 5.75385 8.43934C5.86144 8.47889 5.9916 8.47017 6.14441 8.41364C6.3542 8.33426 6.54483 8.28082 6.71493 8.25247C6.88487 8.21849 7.03774 8.20107 7.17372 8.20105C7.42879 8.20105 7.60756 8.2436 7.70963 8.3286C7.81736 8.41365 7.87179 8.55855 7.87179 8.76267V8.88132H7.54846C6.96445 8.88132 6.49595 8.92158 6.14441 9.00096C5.79313 9.07469 5.53779 9.19903 5.3791 9.37472C5.22045 9.55045 5.14084 9.79148 5.14081 10.0975C5.14081 10.364 5.2094 10.6026 5.34548 10.8124C5.48722 11.0164 5.68021 11.1779 5.92391 11.2969C6.17335 11.4159 6.46004 11.4759 6.78315 11.4759C6.99264 11.4758 7.17954 11.4387 7.34379 11.3651C7.50822 11.2914 7.64218 11.189 7.74424 11.0586C7.81016 10.9743 7.85841 10.8785 7.89354 10.7728C7.90518 10.9833 7.96058 11.1472 8.06658 11.2633C8.19126 11.3936 8.37018 11.458 8.60249 11.4581C8.82916 11.4581 9.00253 11.3935 9.12159 11.2633C9.24066 11.1329 9.30056 10.9422 9.30056 10.6927V8.97526C9.30056 8.54434 9.22327 8.1924 9.07018 7.92024C8.92275 7.64255 8.69598 7.43856 8.3899 7.30819C8.08942 7.17216 7.70681 7.10352 7.24194 7.10352ZM10.9103 5.3089C10.6723 5.30898 10.4879 5.37434 10.3576 5.50468C10.2272 5.63509 10.1618 5.82572 10.1618 6.0752V10.6927C10.1618 10.9422 10.2249 11.1329 10.3496 11.2633C10.48 11.3934 10.6669 11.458 10.9103 11.4581C11.1483 11.4581 11.3304 11.3936 11.4551 11.2633C11.5619 11.1565 11.6216 11.009 11.641 10.8223C11.7324 10.9889 11.8688 11.1299 12.0503 11.2455C12.3054 11.3985 12.5945 11.4758 12.9175 11.4759C13.2804 11.4759 13.5985 11.3876 13.8707 11.2119C14.1484 11.0361 14.3642 10.7833 14.5173 10.4545C14.6702 10.1257 14.7467 9.73737 14.7467 9.28969C14.7467 8.83051 14.6703 8.43917 14.5173 8.11602C14.3642 7.79288 14.1484 7.54328 13.8707 7.36752C13.5985 7.19175 13.2804 7.10352 12.9175 7.10352C12.6058 7.10358 12.3254 7.17769 12.076 7.325C11.9033 7.42707 11.7705 7.54998 11.6766 7.69282V6.0752C11.6766 5.82572 11.608 5.63509 11.4719 5.50468C11.3415 5.37441 11.154 5.3089 10.9103 5.3089ZM17.5706 7.10352C17.2195 7.10356 16.8994 7.15488 16.6105 7.25678C16.3271 7.35316 16.0797 7.49486 15.8699 7.68195C15.6658 7.86906 15.51 8.09896 15.4023 8.37112C15.2946 8.6375 15.2411 8.94075 15.2411 9.28079C15.2411 9.72856 15.3372 10.12 15.5298 10.4545C15.7226 10.7833 15.9919 11.0361 16.3376 11.2119C16.6891 11.3876 17.1002 11.4758 17.5706 11.4759C17.7351 11.4759 17.9061 11.4585 18.0818 11.4244C18.2631 11.3961 18.4476 11.3394 18.6345 11.2544C18.7704 11.2034 18.8666 11.1268 18.9233 11.025C18.98 10.9172 19.0061 10.8061 19.0004 10.6927C18.9947 10.5738 18.9599 10.4657 18.8976 10.3694C18.8353 10.2733 18.7532 10.2086 18.6514 10.1746C18.5493 10.1349 18.4327 10.1459 18.3023 10.2083C18.2061 10.2535 18.1098 10.2874 18.0136 10.3101C17.9172 10.3271 17.8235 10.3358 17.7328 10.3358C17.4323 10.3358 17.2001 10.242 17.0357 10.055C16.8713 9.86788 16.7885 9.60965 16.7885 9.28079C16.7885 9.11652 16.8082 8.96911 16.8478 8.83881C16.8932 8.7084 16.9563 8.60053 17.0357 8.51548C17.115 8.42496 17.2112 8.35709 17.3244 8.31179C17.4435 8.26643 17.5797 8.24357 17.7328 8.24357C17.8235 8.24357 17.9172 8.25451 18.0136 8.27719C18.1155 8.29419 18.2117 8.32583 18.3023 8.37112C18.4327 8.43349 18.5493 8.44766 18.6514 8.41364C18.759 8.37961 18.8409 8.31422 18.8976 8.21786C18.9599 8.12147 18.9947 8.0136 19.0004 7.89453C19.0116 7.77568 18.9887 7.66519 18.9322 7.56329C18.8811 7.45559 18.7874 7.37603 18.6514 7.325C18.4586 7.23995 18.2712 7.18328 18.0897 7.15493C17.9084 7.12093 17.735 7.10352 17.5706 7.10352Z" fill="black"/>
</svg>