<svg xmlns="http://www.w3.org/2000/svg" fill="currentColor" viewBox="0 0 24 24" width="24" height="24"><path d="m20.775 12-2.7 2.7V9.3zm-14.85 2.7V9.3l-2.7 2.7z" opacity=".2"/><path d="M9.975 4.575a.675.675 0 0 0-.675.675v6.075H6.6V9.3a.675.675 0 0 0-1.153-.478l-2.7 2.7a.675.675 0 0 0 0 .955l2.7 2.7a.675.675 0 0 0 1.153-.478v-2.025h2.7v6.075a.675.675 0 0 0 1.35 0v-13.5a.675.675 0 0 0-.675-.675zM5.25 13.071 4.179 12l1.071-1.071zm16.003-1.548-2.7-2.7a.675.675 0 0 0-1.153.478v2.025h-2.7V5.251a.675.675 0 0 0-1.35 0v13.5a.675.675 0 0 0 1.35 0v-6.075h2.7v2.025a.675.675 0 0 0 1.153.478l2.7-2.7a.675.675 0 0 0 0-.955zm-2.503 1.548V10.93l1.071 1.071z"/></svg>