<svg xmlns="http://www.w3.org/2000/svg" fill="currentColor" viewBox="0 0 24 24" width="24" height="24"><path d="M19.425 14.025a.675.675 0 0 1-.675.675h-6.075v2.7H14.7a.675.675 0 0 1 .478 1.153l-2.7 2.7a.675.675 0 0 1-.955 0l-2.7-2.7a.675.675 0 0 1 .478-1.153h2.025v-2.7H5.251a.675.675 0 0 1 0-1.35h13.5a.675.675 0 0 1 .675.675zM5.25 10.65h13.5a.675.675 0 0 0 0-1.35h-6.075V6.6H14.7a.675.675 0 0 0 .478-1.153l-2.7-2.7a.675.675 0 0 0-.955 0l-2.7 2.7A.675.675 0 0 0 9.301 6.6h2.025v2.7H5.251a.675.675 0 0 0 0 1.35z"/></svg>