<svg xmlns="http://www.w3.org/2000/svg" width="24" height="24" fill="currentColor" viewBox="0 0 24 24"><path d="m20.527 10.379-4.109 3.544 1.256 5.298a.709.709 0 0 1-1.056.774l-4.617-2.84-4.617 2.839a.709.709 0 0 1-1.056-.774l1.255-5.298-4.109-3.544a.714.714 0 0 1 .404-1.247l5.392-.439 2.077-5.029a.705.705 0 0 1 1.306 0l2.077 5.029 5.392.439a.714.714 0 0 1 .404 1.248z" opacity=".2"/><path d="M21.381 9.406a1.38 1.38 0 0 0-1.203-.95L15.2 8.054l-1.922-4.648a1.38 1.38 0 0 0-2.554 0l-1.92 4.647-4.981.402a1.389 1.389 0 0 0-.791 2.435l3.797 3.276-1.157 4.899a1.382 1.382 0 0 0 2.067 1.504L12 17.947l4.263 2.622a1.384 1.384 0 0 0 2.065-1.504l-1.161-4.9 3.797-3.276a1.39 1.39 0 0 0 .417-1.484zm-1.294.462-4.109 3.544a.68.68 0 0 0-.216.667l1.255 5.299a.03.03 0 0 1-.014.041c-.015.012-.019.009-.032 0l-4.617-2.839a.68.68 0 0 0-.707 0L7.03 19.421c-.013.008-.016.01-.032 0a.03.03 0 0 1-.014-.041l1.256-5.299a.68.68 0 0 0-.216-.667L3.915 9.87c-.01-.008-.019-.016-.011-.042s.015-.023.028-.024l5.393-.435a.68.68 0 0 0 .567-.417l2.077-5.03c.007-.014.009-.021.03-.021s.023.007.03.021l2.082 5.03a.68.68 0 0 0 .57.415l5.393.435c.013 0 .02 0 .028.024s0 .034-.014.042z"/></svg>