<svg xmlns="http://www.w3.org/2000/svg" width="24" height="24" fill="currentColor" viewBox="0 0 24 24"><path d="M8.794 9.3a.506.506 0 0 1 .506-.506h5.4a.507.507 0 0 1 0 1.013H9.3a.506.506 0 0 1-.506-.506zm.506 3.206h5.4a.506.506 0 0 0 0-1.012H9.3a.506.506 0 0 0 0 1.012m2.7 1.688H9.3a.506.506 0 0 0 0 1.012H12a.506.506 0 0 0 0-1.012m7.931-8.944v9.171a1.18 1.18 0 0 1-.346.835l-4.329 4.329a1.18 1.18 0 0 1-.835.346H5.25a1.18 1.18 0 0 1-1.181-1.181V5.25A1.18 1.18 0 0 1 5.25 4.069h13.5a1.18 1.18 0 0 1 1.181 1.181M5.25 18.919h8.944V14.7a.506.506 0 0 1 .506-.506h4.219V5.25a.17.17 0 0 0-.169-.169H5.25a.17.17 0 0 0-.169.169v13.5a.17.17 0 0 0 .169.169m12.953-3.713h-2.997v2.997z"/></svg>