<svg xmlns="http://www.w3.org/2000/svg" width="24" height="24" fill="currentColor" viewBox="0 0 24 24"><path d="M9.975 5.925V9.3H5.25V5.925a.675.675 0 0 1 .675-.675H9.3a.675.675 0 0 1 .675.675m8.1-.675H14.7a.675.675 0 0 0-.675.675V9.3h4.725V5.925a.675.675 0 0 0-.675-.675" opacity=".2"/><path d="M18.075 4.575H14.7a1.35 1.35 0 0 0-1.35 1.35v7.425a1.35 1.35 0 0 1-2.7 0V5.925a1.35 1.35 0 0 0-1.35-1.35H5.925a1.35 1.35 0 0 0-1.35 1.35v7.425A7.425 7.425 0 0 0 12 20.775h.057c4.063-.03 7.368-3.399 7.368-7.509V5.925a1.35 1.35 0 0 0-1.35-1.35m0 1.35v2.7H14.7v-2.7zm-8.775 0v2.7H5.925v-2.7zm2.746 13.5a6.075 6.075 0 0 1-6.121-6.075V9.975H9.3v3.375a2.7 2.7 0 0 0 5.4 0V9.975h3.375v3.291c0 3.375-2.7 6.135-6.029 6.159"/></svg>