<svg viewBox="0 0 24 24" fill="none" xmlns="http://www.w3.org/2000/svg" width="24" height="24">
<path fill-rule="evenodd" clip-rule="evenodd" d="M7.56272 4.54013L7.55254 4.54916L7.54262 4.55844L7.56272 4.54013Z" fill="black"/>
<path d="M4.16 21.6198C4.27032 21.6813 4.38518 21.7363 4.50457 21.7848C4.95514 21.9682 5.47028 22.0598 6.05 22.0598C6.43 22.0598 6.80333 22.0098 7.17 21.9098C7.29798 21.8732 7.41969 21.8316 7.53513 21.7848C7.75646 21.6952 7.95475 21.5869 8.13 21.4598C8.25 21.3731 8.33 21.2731 8.37 21.1598C8.41 21.0398 8.41667 20.9265 8.39 20.8198C8.36333 20.7065 8.31 20.6131 8.23 20.5398C8.15 20.4665 8.05 20.4265 7.93 20.4198C7.81667 20.4065 7.68667 20.4431 7.54 20.5298C7.32 20.6631 7.08667 20.7631 6.84 20.8298C6.59333 20.8898 6.34333 20.9198 6.09 20.9198C5.61667 20.9198 5.21667 20.8231 4.89 20.6298C4.56333 20.4365 4.31667 20.1531 4.15 19.7798C3.98333 19.4065 3.9 18.9565 3.9 18.4298C3.9 17.8965 3.98333 17.4465 4.15 17.0798C4.31667 16.7131 4.56333 16.4331 4.89 16.2398C5.21667 16.0465 5.61667 15.9498 6.09 15.9498C6.33667 15.9498 6.58 15.9798 6.82 16.0398C7.06 16.0998 7.28333 16.1965 7.49 16.3298C7.63667 16.4231 7.77 16.4665 7.89 16.4598C8.01667 16.4465 8.12 16.3998 8.2 16.3198C8.25138 16.2724 8.29222 16.2191 8.32252 16.1599C8.34332 16.1193 8.35914 16.076 8.37 16.0298C8.39667 15.9098 8.38667 15.7898 8.34 15.6698C8.29333 15.5431 8.2 15.4365 8.06 15.3498C7.82425 15.1966 7.55462 15.0746 7.25113 14.9839C7.21134 14.972 7.17096 14.9606 7.13 14.9498C6.77667 14.8565 6.41667 14.8098 6.05 14.8098C5.50333 14.8098 5.01 14.8965 4.57 15.0698C4.13667 15.2365 3.77 15.4798 3.47 15.7998C3.17 16.1131 2.94 16.4931 2.78 16.9398C2.62 17.3798 2.54 17.8765 2.54 18.4298C2.54 19.1698 2.68 19.8131 2.96 20.3598C3.24 20.8998 3.64 21.3198 4.16 21.6198Z" fill="black"/>
<path fill-rule="evenodd" clip-rule="evenodd" d="M14.6304 19.9398C14.6304 19.7671 14.6109 19.6062 14.5719 19.4574C14.498 19.1753 14.3542 18.9362 14.1404 18.7398C14.0976 18.6997 14.0517 18.661 14.0028 18.6237C13.6862 18.3824 13.2421 18.2011 12.6704 18.0798L11.5804 17.8498C11.3867 17.8097 11.2215 17.7621 11.0846 17.707C10.9483 17.6521 10.8402 17.5897 10.7604 17.5198C10.6383 17.4079 10.5627 17.2687 10.5338 17.1024C10.5249 17.0508 10.5204 16.9966 10.5204 16.9398C10.5204 16.7265 10.5771 16.5431 10.6904 16.3898C10.8104 16.2298 10.9804 16.1065 11.2004 16.0198C11.4204 15.9331 11.6837 15.8898 11.9904 15.8898C12.2837 15.8898 12.5571 15.9198 12.8104 15.9798C13.0637 16.0398 13.3137 16.1398 13.5604 16.2798C13.7004 16.3598 13.8237 16.3931 13.9304 16.3798C14.0437 16.3665 14.1371 16.3231 14.2104 16.2498C14.2837 16.1765 14.3304 16.0898 14.3504 15.9898C14.3704 15.8831 14.3604 15.7765 14.3204 15.6698C14.2871 15.5631 14.2171 15.4731 14.1104 15.3998C13.8237 15.2065 13.5004 15.0598 13.1404 14.9598C12.7804 14.8598 12.4004 14.8098 12.0004 14.8098C11.5937 14.8098 11.2204 14.8631 10.8804 14.9698C10.5471 15.0698 10.2571 15.2165 10.0104 15.4098C9.80627 15.5742 9.64073 15.7652 9.51377 15.9827C9.49145 16.0209 9.47032 16.0599 9.45039 16.0998C9.31706 16.3665 9.25039 16.6631 9.25039 16.9898C9.25039 17.0572 9.25297 17.1229 9.25812 17.1869C9.29271 17.617 9.44347 17.9713 9.71039 18.2498C9.95728 18.4967 10.3035 18.6877 10.7491 18.8228C10.869 18.8592 10.9961 18.8915 11.1304 18.9198L12.2304 19.1498C12.6437 19.2365 12.9337 19.3465 13.1004 19.4798C13.2172 19.5696 13.2946 19.6821 13.3327 19.8173C13.3512 19.8828 13.3604 19.9537 13.3604 20.0298C13.3604 20.3098 13.2404 20.5398 13.0004 20.7198C12.7604 20.8931 12.3771 20.9798 11.8504 20.9798C11.4904 20.9798 11.1471 20.9398 10.8204 20.8598C10.4937 20.7798 10.1837 20.6531 9.89039 20.4798C9.76372 20.3998 9.64706 20.3698 9.54039 20.3898C9.43372 20.4098 9.34372 20.4631 9.27039 20.5498C9.20372 20.6298 9.16039 20.7265 9.14039 20.8398C9.12706 20.9465 9.14372 21.0565 9.19039 21.1698C9.23706 21.2831 9.32039 21.3798 9.44039 21.4598C9.63613 21.5861 9.85579 21.6944 10.0994 21.7848L10.1404 21.7998C10.4004 21.8865 10.6771 21.9498 10.9704 21.9898C11.2637 22.0365 11.5571 22.0598 11.8504 22.0598C12.2771 22.0598 12.6604 22.0098 13.0004 21.9098C13.1229 21.8738 13.2389 21.8321 13.3484 21.7848C13.5429 21.7009 13.7169 21.5992 13.8704 21.4798C14.1171 21.2931 14.3037 21.0698 14.4304 20.8098C14.5637 20.5498 14.6304 20.2598 14.6304 19.9398Z" fill="black"/>
<path d="M17.6267 14.8651C17.4751 14.8909 17.3292 14.9258 17.189 14.9698C16.9742 15.0343 16.7773 15.1181 16.5985 15.2213C16.4998 15.2783 16.4067 15.3411 16.319 15.4098C16.079 15.6031 15.8923 15.8331 15.759 16.0998C15.6257 16.3665 15.559 16.6631 15.559 16.9898C15.559 17.1057 15.5666 17.2166 15.5818 17.3225C15.6349 17.692 15.7806 18.0011 16.019 18.2498L16.0333 18.2639C16.3466 18.5699 16.8152 18.7885 17.439 18.9198L18.539 19.1498C18.9523 19.2365 19.2423 19.3465 19.409 19.4798C19.5823 19.6131 19.669 19.7965 19.669 20.0298C19.669 20.3098 19.549 20.5398 19.309 20.7198C19.069 20.8931 18.6857 20.9798 18.159 20.9798C17.799 20.9798 17.4557 20.9398 17.129 20.8598C16.8023 20.7798 16.4923 20.6531 16.199 20.4798C16.0723 20.3998 15.9557 20.3698 15.849 20.3898C15.7423 20.4098 15.6523 20.4631 15.579 20.5498C15.5123 20.6298 15.469 20.7265 15.449 20.8398C15.4357 20.9465 15.4523 21.0565 15.499 21.1698C15.5457 21.2831 15.629 21.3798 15.749 21.4598C15.9447 21.5861 16.1644 21.6944 16.408 21.7848L16.449 21.7998C16.709 21.8865 16.9857 21.9498 17.279 21.9898C17.5723 22.0365 17.8657 22.0598 18.159 22.0598C18.5857 22.0598 18.969 22.0098 19.309 21.9098C19.4315 21.8738 19.5475 21.8321 19.657 21.7848C19.8515 21.7009 20.0255 21.5992 20.179 21.4798C20.4257 21.2931 20.6123 21.0698 20.739 20.8098C20.8723 20.5498 20.939 20.2598 20.939 19.9398C20.939 19.4398 20.7757 19.0398 20.449 18.7398C20.129 18.4398 19.639 18.2198 18.979 18.0798L17.889 17.8498C17.5023 17.7698 17.229 17.6598 17.069 17.5198C17.0318 17.4858 16.999 17.4492 16.9705 17.4101C16.8762 17.2809 16.829 17.1241 16.829 16.9398C16.829 16.7265 16.8857 16.5431 16.999 16.3898C17.0942 16.2629 17.2209 16.159 17.3791 16.0782C17.4203 16.0572 17.4636 16.0377 17.509 16.0198C17.729 15.9331 17.9923 15.8898 18.299 15.8898C18.3294 15.8898 18.3596 15.8901 18.3896 15.8908C18.4696 15.8925 18.5481 15.8965 18.6251 15.9028C18.7974 15.917 18.962 15.9426 19.119 15.9798C19.3723 16.0398 19.6223 16.1398 19.869 16.2798C20.009 16.3598 20.1323 16.3931 20.239 16.3798C20.3523 16.3665 20.4457 16.3231 20.519 16.2498C20.5923 16.1765 20.639 16.0898 20.659 15.9898C20.679 15.8831 20.669 15.7765 20.629 15.6698C20.5957 15.5631 20.5257 15.4731 20.419 15.3998C20.1751 15.2353 19.9046 15.1046 19.6077 15.0077C19.5556 14.9907 19.5027 14.9747 19.449 14.9598C19.0983 14.8624 18.7285 14.8124 18.3398 14.8099L18.309 14.8098C18.07 14.8098 17.8426 14.8282 17.6267 14.8651Z" fill="black"/>
<path fill-rule="evenodd" clip-rule="evenodd" d="M2.5 12.7048L5.17486 12.7048L4.34816 11.7895L2.5299 9.8014C2.34393 9.59727 2.35866 9.28103 2.56279 9.09506L7.54262 4.55844L7.56272 4.54013L9.04989 3.18532C9.41246 2.85516 9.89103 2.68195 10.3809 2.70465C10.871 2.72748 11.3324 2.94431 11.6628 3.30701L14.3901 6.30078C14.407 6.31931 14.4279 6.33455 14.451 6.3444C14.474 6.35418 14.4994 6.35879 14.5243 6.35819C14.5492 6.35752 14.5739 6.35101 14.5964 6.34011C14.6183 6.3294 14.6387 6.31516 14.6544 6.2965L17.1196 3.14708C17.1368 3.1252 17.1559 3.10485 17.1764 3.08612C17.6714 2.63514 18.3263 2.39932 18.9953 2.43047C19.664 2.46176 20.2931 2.75737 20.744 3.25228C21.1948 3.74724 21.4308 4.401 21.3997 5.06978C21.3685 5.73873 21.0722 6.36814 20.5772 6.81913C20.5566 6.83783 20.5346 6.85495 20.5112 6.86998L17.1476 9.03327C17.1275 9.04715 17.1102 9.06472 17.0974 9.08554C17.0845 9.10693 17.0764 9.13148 17.0734 9.15632C17.0705 9.18121 17.0727 9.20674 17.0803 9.23061C17.088 9.25433 17.1007 9.2761 17.1174 9.29455L19.8454 12.289C19.9602 12.415 20.0559 12.5551 20.1309 12.7048H21.5C21.7761 12.7048 22 12.9286 22 13.2048C22 13.4809 21.7761 13.7048 21.5 13.7048H2.5C2.22386 13.7048 2 13.4809 2 13.2048C2 12.9286 2.22386 12.7048 2.5 12.7048ZM7.85649 5.62526L3.60586 9.49757L4.74681 10.75L7.37482 8.35587C7.57895 8.16991 7.89519 8.18464 8.08116 8.38877C8.26713 8.59291 8.2524 8.90915 8.04826 9.09511L5.42025 11.4892L6.5276 12.7048L14.3059 12.7048L7.85649 5.62526ZM8.59573 4.95181L9.72334 3.92456C9.88995 3.77291 10.11 3.6937 10.335 3.70419C10.5601 3.71474 10.7718 3.81388 10.9236 3.98046L13.6509 6.97423C13.7642 7.09867 13.9036 7.19735 14.0584 7.2635C14.2131 7.32953 14.3801 7.3616 14.5483 7.35752C14.7164 7.35341 14.8816 7.31322 15.0328 7.23975C15.1839 7.16634 15.319 7.06115 15.426 6.93178L15.4334 6.92106L17.8757 3.80444C18.1716 3.54632 18.5557 3.41097 18.9488 3.42928C19.3526 3.44823 19.7325 3.62687 20.0047 3.92572C20.277 4.22462 20.4196 4.61941 20.4009 5.02326C20.3825 5.41764 20.2109 5.7886 19.9247 6.05944L16.5968 8.19812L16.5861 8.20523C16.447 8.29986 16.3296 8.4235 16.2423 8.56735C16.1551 8.71106 16.0997 8.87192 16.08 9.03885C16.0603 9.206 16.0773 9.37582 16.1287 9.53608C16.1801 9.69622 16.265 9.84362 16.3782 9.96799L18.8714 12.7048H15.6587L8.59573 4.95181Z" fill="black"/>
</svg>