<svg viewBox="0 0 24 24" fill="none" xmlns="http://www.w3.org/2000/svg" width="24" height="24">
<path fill-rule="evenodd" clip-rule="evenodd" d="M15.745 16.1307C15.8253 15.9128 15.8138 15.7265 15.7106 15.5717C15.6074 15.4169 15.444 15.3395 15.2204 15.3395C15.0427 15.3395 14.9022 15.3854 14.799 15.4771C14.6958 15.5631 14.6155 15.695 14.5582 15.8727L13.2731 19.6285L12.004 15.8899C11.9352 15.7007 11.8521 15.5631 11.7546 15.4771C11.6571 15.3854 11.5281 15.3395 11.3676 15.3395C11.2013 15.3395 11.0666 15.3854 10.9634 15.4771C10.8659 15.5631 10.7828 15.6978 10.714 15.8813L9.4076 19.5603L8.1684 15.8727C8.10533 15.6892 8.0222 15.5545 7.919 15.4685C7.82153 15.3825 7.68107 15.3395 7.4976 15.3395C7.32644 15.3395 7.18788 15.3721 7.08192 15.4373C7.02461 15.4726 6.97684 15.5174 6.9386 15.5717C6.8354 15.7265 6.82107 15.9128 6.8956 16.1307L8.6328 21.0155C8.7016 21.199 8.79333 21.3366 8.908 21.4283C9.02267 21.5143 9.17173 21.5573 9.3552 21.5573C9.53867 21.5573 9.682 21.5143 9.7852 21.4283C9.89413 21.3366 9.983 21.2018 10.0518 21.0241L11.3241 17.4618L12.5802 21.0155C12.649 21.199 12.7379 21.3366 12.8468 21.4283C12.9557 21.5143 13.1019 21.5573 13.2854 21.5573C13.4746 21.5573 13.6237 21.5143 13.7326 21.4283C13.8415 21.3366 13.9275 21.2018 13.9906 21.0241L15.745 16.1307Z" fill="black"/>
<path d="M21 13.9847C21.3728 13.9847 21.6748 13.6827 21.6748 13.3099C21.6748 12.9371 21.3728 12.6351 21 12.6351L20.0011 12.6351C19.9341 12.5252 19.8564 12.4212 19.7685 12.3246L17.0412 9.33056L20.4007 7.17101C20.4322 7.15051 20.462 7.12753 20.4899 7.1023C21.0193 6.62009 21.3354 5.94733 21.3688 5.23203C21.4021 4.51672 21.15 3.81746 20.6677 3.28807C20.1855 2.75869 19.5128 2.44254 18.7975 2.40918C18.0822 2.37583 17.3829 2.62799 16.8535 3.1102C16.8258 3.13561 16.8001 3.16317 16.7768 3.19263L14.314 6.33648L11.5867 3.3424C11.225 2.94536 10.7205 2.70825 10.184 2.68324C9.64752 2.65822 9.12307 2.84734 8.72603 3.209L2.23886 9.11808C2.10652 9.23863 2.02748 9.40682 2.01914 9.58565C2.0108 9.76448 2.07384 9.93929 2.19439 10.0716L4.52943 12.6351H2C1.62721 12.6351 1.3252 12.9371 1.3252 13.3099C1.3252 13.6827 1.62721 13.9847 2 13.9847L21 13.9847ZM8.13808 5.57066L14.573 12.6351H6.35554L5.46515 11.6576L7.96021 9.38489C8.09256 9.26434 8.17159 9.09615 8.17993 8.91732C8.18827 8.7385 8.12523 8.56368 8.00468 8.43133C7.88413 8.29899 7.71594 8.21995 7.53711 8.21161C7.35828 8.20327 7.18347 8.26631 7.05112 8.38687L4.55606 10.6596L3.64697 9.66156L8.13808 5.57066Z" fill="black"/>
</svg>