<svg xmlns="http://www.w3.org/2000/svg" width="24" height="24" fill="currentColor" viewBox="0 0 24 24"><path d="m16.05 7.275-4.667 4.307c-2.025-.565-3.846-1.203-3.846-2.953 0-1.864 1.856-3.375 4.463-3.375 1.957-.004 3.406.809 4.05 2.021m-4.667 4.307-4.108 3.793c0 1.864 2.115 3.375 4.725 3.375s4.725-1.511 4.725-3.375c0-2.495-2.825-3.088-5.342-3.793" opacity=".2"/><path d="M20.1 12a.675.675 0 0 1-.675.675h-3.381c.775.6 1.356 1.451 1.356 2.7 0 1.126-.591 2.168-1.666 2.935-1.006.719-2.332 1.115-3.734 1.115s-2.728-.396-3.734-1.115C7.19 17.543 6.6 16.5 6.6 15.375a.675.675 0 0 1 1.35 0c0 1.464 1.856 2.7 4.05 2.7s4.05-1.236 4.05-2.7c0-1.253-.889-1.99-3.271-2.7H4.575a.675.675 0 0 1 0-1.35h14.85A.675.675 0 0 1 20.1 12M7.64 9.975a.675.675 0 0 0 .642-.885 1.5 1.5 0 0 1-.07-.465c0-1.539 1.628-2.7 3.788-2.7 1.59 0 2.882.626 3.459 1.675a.675.675 0 0 0 1.181-.65c-.816-1.488-2.551-2.375-4.641-2.375-2.929 0-5.138 1.741-5.138 4.05a2.9 2.9 0 0 0 .137.885.675.675 0 0 0 .641.465z"/></svg>