<svg viewBox="0 0 24 24" fill="none" xmlns="http://www.w3.org/2000/svg" width="24" height="24">
<path fill-rule="evenodd" clip-rule="evenodd" d="M12.861 18.8297C12.8405 18.8225 12.821 18.8142 12.8026 18.805C12.9349 18.8095 13.0675 18.8076 13.1964 18.7867C13.0703 18.844 12.9585 18.8584 12.861 18.8297Z" fill="black"/>
<path fill-rule="evenodd" clip-rule="evenodd" d="M15.0121 21.414H15.0838C15.0811 21.3848 15.0798 21.3545 15.0798 21.323V21.2808C15.0606 21.3272 15.038 21.3716 15.0121 21.414Z" fill="#F5F5F5"/>
<path fill-rule="evenodd" clip-rule="evenodd" d="M12.8026 18.805C12.9349 18.8095 13.0675 18.8076 13.1964 18.7867C13.0703 18.844 12.9585 18.8584 12.861 18.8297C12.8405 18.8225 12.821 18.8142 12.8026 18.805Z" fill="black"/>
<path fill-rule="evenodd" clip-rule="evenodd" d="M16.0929 18.4119C16.0919 18.41 16.0938 18.4137 16.0929 18.4119C16.0887 18.4039 16.0817 18.3904 16.0774 18.3825L16.0929 18.4119Z" fill="black"/>
<path d="M12.8025 18.3652C12.9348 18.3697 13.0674 18.3678 13.1963 18.3469L13.2273 18.3348C13.4034 18.2667 13.5661 18.2157 13.7155 18.1819C13.7406 18.1762 13.7653 18.171 13.7897 18.1663C13.9731 18.1262 14.1423 18.1061 14.2971 18.1061C14.5723 18.1061 14.7672 18.1606 14.8819 18.2695C14.9965 18.3727 15.0539 18.5504 15.0539 18.8027V18.9489H14.7443C14.148 18.9489 13.6693 18.989 13.3081 19.0693C12.9469 19.1438 12.686 19.2728 12.5255 19.4563C12.4661 19.522 12.4177 19.5967 12.3803 19.6805C12.3166 19.8232 12.2847 19.9922 12.2847 20.1873C12.2847 20.4453 12.3535 20.6775 12.4911 20.8839C12.5118 20.915 12.5337 20.9451 12.5569 20.9742C12.6877 21.1385 12.8578 21.2718 13.0673 21.3741C13.3138 21.4945 13.5919 21.5547 13.9015 21.5547C14.1251 21.5547 14.3229 21.5174 14.4949 21.4429C14.6669 21.3626 14.8073 21.2537 14.9163 21.1161C14.9521 21.0713 14.984 21.024 15.012 20.9742C15.0379 20.9281 15.0605 20.8798 15.0797 20.8293V20.8753C15.0797 20.9095 15.081 20.9425 15.0837 20.9742C15.0977 21.1389 15.1479 21.2693 15.2345 21.3655C15.3434 21.4802 15.4953 21.5375 15.6903 21.5375C15.8852 21.5375 16.0343 21.4802 16.1375 21.3655C16.224 21.2693 16.2743 21.1389 16.2882 20.9742C16.2909 20.9425 16.2923 20.9095 16.2923 20.8753V18.9661C16.2923 18.5629 16.2229 18.226 16.0899 17.9665L16.0773 17.9427C15.9339 17.6732 15.7189 17.4754 15.4323 17.3493C15.2883 17.2817 15.1233 17.2315 14.9372 17.1985C14.7601 17.1672 14.5639 17.1515 14.3487 17.1515C14.148 17.1515 13.9273 17.1716 13.6865 17.2117C13.4514 17.2518 13.1991 17.3264 12.9297 17.4353C12.7978 17.4812 12.7032 17.5528 12.6459 17.6503C12.5885 17.742 12.5599 17.8395 12.5599 17.9427C12.5599 18.0402 12.5857 18.1319 12.6373 18.2179C12.678 18.2813 12.7331 18.3304 12.8025 18.3652ZM14.7529 19.6197H15.0539V19.7917C15.0539 19.9637 15.0166 20.1185 14.9421 20.2561C14.8675 20.388 14.7643 20.494 14.6325 20.5743C14.5063 20.6488 14.3601 20.6861 14.1939 20.6861C13.9817 20.6861 13.8183 20.6345 13.7037 20.5313C13.5947 20.4281 13.5403 20.2962 13.5403 20.1357C13.5403 20.0038 13.5775 19.9006 13.6521 19.8261C13.7323 19.7516 13.8613 19.7 14.0391 19.6713C14.2225 19.6369 14.4605 19.6197 14.7529 19.6197Z" fill="black"/>
<path fill-rule="evenodd" clip-rule="evenodd" d="M6.97084 20.9697C6.88484 21.1703 6.7931 21.3165 6.69564 21.4083C6.6039 21.4943 6.4663 21.5373 6.28284 21.5373C6.1223 21.5373 5.99044 21.5 5.88724 21.4255C5.78977 21.3509 5.7267 21.2506 5.69804 21.1245C5.68929 21.0764 5.68763 21.0262 5.69306 20.9739C5.70186 20.8891 5.72932 20.7989 5.77544 20.7031L7.97704 15.8785C8.06877 15.6835 8.1777 15.5431 8.30384 15.4571C8.42997 15.3653 8.57617 15.3195 8.74244 15.3195C8.9087 15.3195 9.0549 15.3653 9.18104 15.4571C9.30717 15.5431 9.41324 15.6835 9.49924 15.8785L11.718 20.7031C11.7636 20.7976 11.7909 20.8879 11.8001 20.9739C11.8059 21.0287 11.8044 21.0818 11.7954 21.1331C11.7782 21.2592 11.7209 21.3595 11.6234 21.4341C11.526 21.5029 11.3998 21.5373 11.245 21.5373C11.0501 21.5373 10.8982 21.4914 10.7892 21.3997C10.6868 21.3086 10.5956 21.1667 10.5158 20.9739L10.1577 20.1441H7.32127L6.97084 20.9697ZM8.7387 16.8159L8.74567 16.8235L9.70998 19.1035H7.76519L8.72524 16.8159H8.7387Z" fill="black"/>
<path d="M4.52993 12.6357H2C1.62721 12.6357 1.3252 12.9377 1.3252 13.3105C1.3252 13.6833 1.62721 13.9853 2 13.9853H21C21.3728 13.9853 21.6748 13.6833 21.6748 13.3105C21.6748 12.9377 21.3728 12.6357 21 12.6357H20.0014C19.9344 12.5255 19.8566 12.4213 19.7685 12.3246L17.0412 9.33056L20.4007 7.17101C20.4322 7.15051 20.462 7.12753 20.4899 7.1023C21.0193 6.62009 21.3354 5.94733 21.3688 5.23203C21.4021 4.51672 21.15 3.81746 20.6677 3.28807C20.1855 2.75869 19.5128 2.44254 18.7975 2.40918C18.0822 2.37583 17.3829 2.62799 16.8535 3.1102C16.8258 3.1356 16.8001 3.16317 16.7768 3.19263L14.314 6.33648L11.5867 3.3424C11.225 2.94536 10.7205 2.70825 10.184 2.68324C9.64752 2.65822 9.12307 2.84734 8.72604 3.209L2.23886 9.11808C2.10652 9.23863 2.02748 9.40682 2.01914 9.58565C2.0108 9.76448 2.07384 9.93929 2.1944 10.0716L4.52993 12.6357ZM8.13808 5.57066L14.5735 12.6357H6.35603L5.46514 11.6576L7.96021 9.38489C8.09256 9.26434 8.17159 9.09615 8.17993 8.91732C8.18827 8.7385 8.12523 8.56368 8.00468 8.43133C7.88413 8.29899 7.71594 8.21995 7.53711 8.21161C7.35828 8.20327 7.18347 8.26631 7.05112 8.38687L4.55606 10.6596L3.64697 9.66156L8.13808 5.57066Z" fill="black"/>
</svg>