<svg viewBox="0 0 24 24" fill="none" xmlns="http://www.w3.org/2000/svg" width="24" height="24">
<path fill-rule="evenodd" clip-rule="evenodd" d="M7.50333 15.9003L6.99762 15.3451C7.13249 15.3784 7.25835 15.4536 7.35415 15.5685C7.43628 15.6671 7.48562 15.7821 7.50333 15.9003Z" fill="black"/>
<path fill-rule="evenodd" clip-rule="evenodd" d="M6.4043 15.4815C6.57572 15.3386 6.79686 15.2953 6.99796 15.345C7.13283 15.3783 7.25869 15.4534 7.35449 15.5684C7.43662 15.6669 7.48596 15.782 7.50367 15.9002C7.53742 16.1253 7.45636 16.3621 7.26855 16.5186L4.94727 18.4522L7.26855 20.3867C7.55472 20.6254 7.59308 21.0506 7.35449 21.3369C7.1158 21.6231 6.6906 21.6615 6.4043 21.4229L3.46191 18.9707C3.30802 18.8425 3.21875 18.6525 3.21875 18.4522C3.21882 18.2519 3.30808 18.0618 3.46191 17.9336L6.4043 15.4815Z" fill="#F5F5F5"/>
<path d="M6.4043 15.4815C6.57572 15.3386 6.79686 15.2953 6.99796 15.345C7.13283 15.3783 7.25869 15.4534 7.35449 15.5684C7.43662 15.6669 7.48596 15.782 7.50367 15.9002C7.53742 16.1253 7.45636 16.3621 7.26855 16.5186L4.94727 18.4522L7.26855 20.3867C7.55472 20.6254 7.59308 21.0506 7.35449 21.3369C7.1158 21.6231 6.6906 21.6615 6.4043 21.4229L3.46191 18.9707C3.30802 18.8425 3.21875 18.6525 3.21875 18.4522C3.21882 18.2519 3.30808 18.0618 3.46191 17.9336L6.4043 15.4815Z" fill="black"/>
<path d="M14.0827 20.4651C14.1728 20.2803 14.2275 20.0797 14.2468 19.8631C14.2521 19.8041 14.2547 19.7439 14.2547 19.6825C14.2547 19.2467 14.1171 18.897 13.8419 18.6333C13.8253 18.617 13.8083 18.6011 13.7907 18.5854C13.5158 18.3406 13.1144 18.1616 12.5863 18.0485L11.6145 17.8421C11.3164 17.779 11.1071 17.6959 10.9867 17.5927C10.8663 17.4895 10.8061 17.3547 10.8061 17.1885C10.8061 17.0394 10.8491 16.9075 10.9351 16.7929C11.0268 16.6782 11.1558 16.5893 11.3221 16.5263C11.4941 16.4632 11.7005 16.4317 11.9413 16.4317C12.1649 16.4317 12.3828 16.4546 12.5949 16.5005C12.807 16.5463 13.0077 16.618 13.1969 16.7155C13.3517 16.79 13.4836 16.8158 13.5925 16.7929C13.7014 16.7699 13.7903 16.7183 13.8591 16.6381C13.9336 16.5578 13.9766 16.4661 13.9881 16.3629C14.0053 16.2539 13.991 16.1479 13.9451 16.0447C13.905 15.9357 13.8276 15.8469 13.7129 15.7781C13.4778 15.629 13.2055 15.5172 12.8959 15.4427C12.5863 15.3624 12.271 15.3223 11.9499 15.3223C11.5887 15.3223 11.2562 15.3681 10.9523 15.4599C10.6542 15.5516 10.3962 15.6835 10.1783 15.8555C9.9979 15.9979 9.85091 16.1619 9.73734 16.3476C9.71375 16.3862 9.69161 16.4256 9.67091 16.4661C9.55051 16.7011 9.4903 16.962 9.4903 17.2487C9.4903 17.7016 9.62217 18.0685 9.88591 18.3495C10.1554 18.6247 10.5653 18.8196 11.1157 18.9343L12.0875 19.1407C12.4028 19.2095 12.6236 19.2926 12.7497 19.3901C12.8758 19.4875 12.9389 19.6194 12.9389 19.7857C12.9389 19.925 12.8935 20.0483 12.8026 20.1554C12.7664 20.1981 12.723 20.2383 12.6723 20.2759C12.4946 20.402 12.1964 20.4651 11.7779 20.4651C11.5027 20.4651 11.2246 20.4335 10.9437 20.3705C10.6685 20.3074 10.4134 20.2099 10.1783 20.0781C10.0407 20.0093 9.91457 19.9892 9.79991 20.0179C9.69097 20.0408 9.59924 20.0981 9.52471 20.1899C9.4559 20.2759 9.41291 20.3762 9.39571 20.4909C9.38424 20.6055 9.40431 20.7202 9.4559 20.8349C9.50751 20.9438 9.59637 21.0327 9.72251 21.1015C9.90024 21.2047 10.1009 21.2907 10.3245 21.3595C10.5538 21.4283 10.7918 21.4799 11.0383 21.5143C11.2906 21.5544 11.5371 21.5745 11.7779 21.5745C12.1563 21.5745 12.4974 21.5315 12.8013 21.4455C13.1052 21.3537 13.366 21.2247 13.5839 21.0585C13.8018 20.8922 13.968 20.6944 14.0827 20.4651Z" fill="black"/>
<path d="M17.1638 17.4364L18.3838 18.4531L16.0625 20.3867C15.7761 20.6253 15.738 21.0505 15.9766 21.3369C16.2152 21.6233 16.6404 21.6625 16.9268 21.4238L19.8691 18.9717C20.023 18.8435 20.1122 18.6533 20.1123 18.4531C20.1123 18.2528 20.023 18.0628 19.8691 17.9346L18.1708 16.5192L17.1239 15.6467L16.9268 15.4824C16.6405 15.2438 16.2153 15.2822 15.9766 15.5683C15.738 15.8546 15.7763 16.2798 16.0625 16.5185L16.1169 16.5639L17.1638 17.4364Z" fill="black"/>
<path fill-rule="evenodd" clip-rule="evenodd" d="M20.0011 12.6351C19.9341 12.5252 19.8564 12.4212 19.7685 12.3246L17.0412 9.33056L20.4007 7.17101C20.4322 7.15051 20.462 7.12753 20.4899 7.1023C21.0193 6.62009 21.3354 5.94733 21.3688 5.23203C21.4021 4.51672 21.15 3.81746 20.6677 3.28807C20.1855 2.75869 19.5128 2.44254 18.7975 2.40918C18.0822 2.37583 17.3829 2.62799 16.8535 3.1102C16.8258 3.1356 16.8001 3.16317 16.7768 3.19263L14.314 6.33648L11.5867 3.3424C11.225 2.94536 10.7205 2.70825 10.184 2.68324C9.64752 2.65822 9.12307 2.84734 8.72603 3.209L2.23886 9.11808C2.10652 9.23863 2.02748 9.40682 2.01914 9.58565C2.0108 9.76448 2.07384 9.93929 2.1944 10.0716L4.52943 12.6351H2C1.62721 12.6351 1.3252 12.9371 1.3252 13.3099C1.3252 13.6827 1.62721 13.9847 2 13.9847L2.39502 13.9847L5.7587 13.9846L7.58476 13.9846L15.8021 13.9844L20.2747 13.9843L21 13.9847C21.3728 13.9847 21.6748 13.6827 21.6748 13.3099C21.6748 12.9371 21.3728 12.6351 21 12.6351H20.0011ZM14.573 12.6351L8.13808 5.57066L3.64697 9.66156L4.55606 10.6596L7.05112 8.38687C7.18347 8.26631 7.35828 8.20327 7.53711 8.21161C7.71594 8.21995 7.88412 8.29899 8.00468 8.43133C8.12523 8.56368 8.18827 8.7385 8.17993 8.91732C8.17159 9.09615 8.09256 9.26434 7.96021 9.38489L5.46515 11.6576L6.35554 12.6351L14.573 12.6351Z" fill="black"/>
</svg>