<svg viewBox="0 0 24 24" fill="none" xmlns="http://www.w3.org/2000/svg" width="24" height="24">
<path fill-rule="evenodd" clip-rule="evenodd" d="M7.49581 15.8915L7.04947 15.4015C7.09543 15.4218 7.13921 15.4471 7.1808 15.4773C7.30538 15.5623 7.41039 15.7003 7.49581 15.8915Z" fill="black"/>
<path fill-rule="evenodd" clip-rule="evenodd" d="M7.04947 15.4015L7.499 15.8987C7.413 15.7038 7.30693 15.5633 7.1808 15.4773C7.13921 15.4471 7.09543 15.4218 7.04947 15.4015Z" fill="black"/>
<path d="M7.499 15.8987L7.04947 15.4015C6.95606 15.3603 6.85364 15.3397 6.7422 15.3397C6.57593 15.3397 6.42973 15.3856 6.3036 15.4773C6.17747 15.5633 6.06853 15.7038 5.9768 15.8987L3.7752 20.7233C3.70067 20.8781 3.67487 21.0186 3.6978 21.1447C3.72647 21.2708 3.78953 21.3712 3.887 21.4457C3.9902 21.5202 4.12207 21.5575 4.2826 21.5575C4.46607 21.5575 4.60367 21.5145 4.6954 21.4285C4.79287 21.3368 4.8846 21.1906 4.9706 20.9899L5.32103 20.1643H8.15743L8.5138 20.9899C8.59407 21.1848 8.6858 21.3282 8.789 21.4199C8.89793 21.5116 9.04987 21.5575 9.2448 21.5575C9.3996 21.5575 9.52573 21.5231 9.6232 21.4543C9.72067 21.3798 9.778 21.2794 9.7952 21.1533C9.81813 21.0214 9.79233 20.8781 9.7178 20.7233L7.499 15.8987ZM7.70974 19.1237H5.76496L6.725 16.8361H6.7422L7.70974 19.1237Z" fill="black"/>
<path d="M11.9188 20.3535H14.2236C14.4071 20.3535 14.5475 20.4022 14.645 20.4997C14.7482 20.5972 14.7998 20.7348 14.7998 20.9125C14.7998 21.096 14.7482 21.2364 14.645 21.3339C14.5475 21.4314 14.4071 21.4801 14.2236 21.4801H11.2652C11.0473 21.4801 10.8782 21.4199 10.7578 21.2995C10.6431 21.1791 10.5858 21.0128 10.5858 20.8007V16.0793C10.5858 15.8557 10.6431 15.6866 10.7578 15.5719C10.8725 15.4572 11.0387 15.3999 11.2566 15.3999C11.4687 15.3999 11.6321 15.4572 11.7468 15.5719C11.8615 15.6866 11.9188 15.8557 11.9188 16.0793V20.3535Z" fill="black"/>
<path d="M16.1951 21.4801C15.9772 21.4801 15.8081 21.4199 15.6877 21.2995C15.573 21.1791 15.5157 21.0128 15.5157 20.8007V16.0793C15.5157 15.8557 15.573 15.6866 15.6877 15.5719C15.8023 15.4572 15.9686 15.3999 16.1865 15.3999C16.3986 15.3999 16.562 15.4572 16.6767 15.5719C16.7602 15.6554 16.8133 15.7678 16.836 15.909C16.8444 15.9618 16.8487 16.0185 16.8487 16.0793V20.3535H19.1535C19.3369 20.3535 19.4774 20.4022 19.5749 20.4997C19.6781 20.5972 19.7297 20.7348 19.7297 20.9125C19.7297 21.096 19.6781 21.2364 19.5749 21.3339C19.4774 21.4314 19.3369 21.4801 19.1535 21.4801H16.1951Z" fill="black"/>
<path d="M4.52976 12.6353H2C1.62721 12.6353 1.3252 12.9373 1.3252 13.3101C1.3252 13.6751 1.61471 13.9723 1.97671 13.9845L2 13.9849H21C21.008 13.9849 21.016 13.9848 21.0239 13.9845C21.3856 13.9719 21.6748 13.6749 21.6748 13.3101C21.6748 12.9373 21.3728 12.6353 21 12.6353H20.0013C19.9344 12.5253 19.8566 12.4212 19.7687 12.3246L17.0414 9.33056L20.4008 7.17101C20.4323 7.1505 20.4621 7.12753 20.49 7.1023C21.0194 6.62009 21.3356 5.94733 21.3689 5.23203C21.4023 4.51672 21.1501 3.81746 20.6679 3.28807C20.1857 2.75869 19.5129 2.44254 18.7976 2.40918C18.0823 2.37583 17.383 2.62799 16.8537 3.1102C16.826 3.1356 16.8003 3.16317 16.7769 3.19263L14.3141 6.33648L11.5869 3.3424C11.2252 2.94536 10.7206 2.70825 10.1842 2.68324C9.64767 2.65822 9.12322 2.84734 8.72618 3.209L2.23901 9.11808C2.10667 9.23863 2.02763 9.40682 2.01929 9.58565C2.01095 9.76448 2.07399 9.93929 2.19455 10.0716L4.52976 12.6353ZM8.13824 5.57066L14.5733 12.6353H6.35586L5.46529 11.6576L7.96036 9.38489C8.09271 9.26434 8.17174 9.09615 8.18008 8.91732C8.18842 8.73849 8.12538 8.56368 8.00483 8.43133C7.88428 8.29899 7.71609 8.21995 7.53726 8.21161C7.35843 8.20327 7.18362 8.26631 7.05127 8.38687L4.55621 10.6596L3.64712 9.66156L8.13824 5.57066Z" fill="black"/>
</svg>