<svg viewBox="0 0 24 24" fill="none" xmlns="http://www.w3.org/2000/svg" width="24" height="24">
<path fill-rule="evenodd" clip-rule="evenodd" d="M18.1423 15.4547C18.4365 15.5255 18.697 15.63 18.9239 15.7681C18.6979 15.6316 18.4334 15.5248 18.1423 15.4547Z" fill="black"/>
<path d="M8.10095 16.8479C8.18121 16.8319 8.25163 16.8004 8.31223 16.7534C8.33821 16.7333 8.36239 16.7103 8.38475 16.6845C8.46502 16.5985 8.51375 16.4953 8.53095 16.3749C8.55389 16.2545 8.53955 16.1341 8.48795 16.0137C8.43635 15.8933 8.33889 15.793 8.19555 15.7127C7.97768 15.5808 7.71969 15.4805 7.42155 15.4117C7.28631 15.3772 7.15169 15.3507 7.01767 15.3322C6.86194 15.3107 6.70703 15.2999 6.55295 15.2999C6.06562 15.2999 5.62702 15.3744 5.23715 15.5235C4.85302 15.6726 4.52622 15.8847 4.25675 16.1599C3.98729 16.4294 3.78089 16.7562 3.63755 17.1403C3.49995 17.5187 3.43115 17.9458 3.43115 18.4217C3.43115 19.0581 3.55442 19.6114 3.80095 20.0815C4.05322 20.5459 4.41155 20.9071 4.87595 21.1651C5.34035 21.4231 5.89935 21.5521 6.55295 21.5521C6.85682 21.5521 7.16355 21.512 7.47315 21.4317C7.78275 21.3515 8.04362 21.2397 8.25575 21.0963C8.38189 21.0161 8.46789 20.9186 8.51375 20.8039C8.55962 20.6893 8.57109 20.5746 8.54815 20.4599C8.53095 20.3453 8.48222 20.2478 8.40195 20.1675C8.32742 20.0815 8.22995 20.0299 8.10955 20.0127C7.99489 19.9898 7.86302 20.0156 7.71395 20.0901C7.53622 20.1876 7.34989 20.2592 7.15495 20.3051C6.96575 20.351 6.77942 20.3739 6.59595 20.3739C6.21182 20.3739 5.88789 20.2994 5.62415 20.1503C5.36615 19.9955 5.17122 19.7719 5.03935 19.4795C4.90749 19.1871 4.84155 18.8345 4.84155 18.4217C4.84155 18.0032 4.90749 17.6506 5.03935 17.3639C5.17122 17.0772 5.36615 16.8594 5.62415 16.7103C5.88789 16.5555 6.21182 16.4781 6.59595 16.4781C6.79089 16.4781 6.98295 16.501 7.17215 16.5469C7.36135 16.5928 7.54195 16.6673 7.71395 16.7705C7.85729 16.8451 7.98629 16.8708 8.10095 16.8479Z" fill="black"/>
<path d="M12.4091 20.2535C12.4698 20.2085 12.5201 20.1598 12.5601 20.1074C12.6372 20.0064 12.6757 19.8917 12.6757 19.7633C12.6757 19.5971 12.6127 19.4652 12.4865 19.3677C12.3604 19.2703 12.1397 19.1871 11.8243 19.1183L10.8525 18.9119C10.5199 18.8426 10.2386 18.744 10.0085 18.6161C9.85794 18.5323 9.72934 18.436 9.62272 18.3271C9.50141 18.1979 9.408 18.0505 9.34249 17.8849C9.26558 17.6904 9.22712 17.4709 9.22712 17.2263C9.22712 16.9396 9.28732 16.6788 9.40772 16.4437C9.46012 16.3414 9.52176 16.2451 9.59262 16.1547C9.68458 16.0375 9.79208 15.9303 9.91512 15.8331C10.133 15.6611 10.391 15.5292 10.6891 15.4375C10.993 15.3458 11.3255 15.2999 11.6867 15.2999C12.0078 15.2999 12.3231 15.34 12.6327 15.4203C12.9423 15.4948 13.2147 15.6066 13.4497 15.7557C13.5644 15.8245 13.6418 15.9134 13.6819 16.0223C13.7278 16.1255 13.7421 16.2316 13.7249 16.3405C13.7135 16.4437 13.6705 16.5354 13.5959 16.6157C13.5271 16.696 13.4383 16.7476 13.3293 16.7705C13.2204 16.7934 13.0885 16.7676 12.9337 16.6931C12.7445 16.5956 12.5439 16.524 12.3317 16.4781C12.1196 16.4322 11.9017 16.4093 11.6781 16.4093C11.4373 16.4093 11.2309 16.4409 11.0589 16.5039C10.8927 16.567 10.7637 16.6558 10.6719 16.7705C10.5859 16.8852 10.5429 17.0171 10.5429 17.1661C10.5429 17.1772 10.5432 17.1881 10.5437 17.1989C10.5512 17.3502 10.6111 17.474 10.7235 17.5703C10.7945 17.6312 10.8965 17.6851 11.0293 17.732C11.1217 17.7646 11.229 17.7939 11.3513 17.8197L12.3231 18.0261C12.885 18.1465 13.3035 18.3414 13.5787 18.6109C13.587 18.6188 13.5951 18.6268 13.6031 18.6348C13.862 18.8957 13.9915 19.2374 13.9915 19.6601C13.9915 19.7552 13.9852 19.8475 13.9726 19.937C13.9472 20.1171 13.8961 20.2857 13.8195 20.4427C13.7049 20.672 13.5386 20.8699 13.3207 21.0361C13.1029 21.2024 12.842 21.3314 12.5381 21.4231C12.2343 21.5091 11.8931 21.5521 11.5147 21.5521C11.2739 21.5521 11.0274 21.532 10.7751 21.4919C10.5286 21.4575 10.2907 21.4059 10.0613 21.3371C9.83772 21.2683 9.63706 21.1823 9.45932 21.0791C9.33319 21.0103 9.24432 20.9215 9.19272 20.8125C9.14112 20.6979 9.12106 20.5832 9.13252 20.4685C9.14972 20.3539 9.19272 20.2535 9.26152 20.1675C9.33606 20.0758 9.42779 20.0185 9.53672 19.9955C9.65139 19.9669 9.77752 19.9869 9.91512 20.0557C10.1502 20.1876 10.4053 20.285 10.6805 20.3481C10.9615 20.4112 11.2395 20.4427 11.5147 20.4427C11.9333 20.4427 12.2314 20.3797 12.4091 20.2535Z" fill="black"/>
<path d="M15.7217 18.7158C15.9084 18.7965 16.122 18.8619 16.3623 18.9119L17.3341 19.1183C17.6494 19.1871 17.8702 19.2703 17.9963 19.3677C18.1224 19.4652 18.1855 19.5971 18.1855 19.7633C18.1855 19.9583 18.0966 20.1217 17.9189 20.2535C17.7412 20.3797 17.443 20.4427 17.0245 20.4427C16.7493 20.4427 16.4712 20.4112 16.1903 20.3481C15.9151 20.285 15.66 20.1876 15.4249 20.0557C15.2873 19.9869 15.1612 19.9669 15.0465 19.9955C14.9376 20.0185 14.8458 20.0758 14.7713 20.1675C14.7025 20.2535 14.6595 20.3539 14.6423 20.4685C14.6308 20.5832 14.6509 20.6979 14.7025 20.8125C14.7541 20.9215 14.843 21.0103 14.9691 21.0791C15.1468 21.1823 15.3475 21.2683 15.5711 21.3371C15.8004 21.4059 16.0384 21.4575 16.2849 21.4919C16.5372 21.532 16.7837 21.5521 17.0245 21.5521C17.4029 21.5521 17.744 21.5091 18.0479 21.4231C18.3518 21.3314 18.6126 21.2024 18.8305 21.0361C19.0484 20.8699 19.2146 20.672 19.3293 20.4427C19.444 20.2076 19.5013 19.9468 19.5013 19.6601C19.5013 19.2244 19.3637 18.8746 19.0885 18.6109C18.8133 18.3414 18.3948 18.1465 17.8329 18.0261L16.8611 17.8197C16.8178 17.8106 16.7765 17.801 16.737 17.791C16.5041 17.7321 16.3362 17.6585 16.2333 17.5703C16.1129 17.4671 16.0527 17.3324 16.0527 17.1661C16.0527 17.0171 16.0957 16.8852 16.1817 16.7705C16.2734 16.6558 16.4024 16.567 16.5687 16.5039C16.7407 16.4409 16.9471 16.4093 17.1879 16.4093C17.4115 16.4093 17.6294 16.4322 17.8415 16.4781C17.9299 16.4972 18.0162 16.5208 18.1006 16.5489C18.2188 16.5882 18.3331 16.6363 18.4435 16.6931C18.5983 16.7676 18.7302 16.7934 18.8391 16.7705C18.948 16.7476 19.0369 16.696 19.1057 16.6157C19.1802 16.5354 19.2232 16.4437 19.2347 16.3405C19.2519 16.2316 19.2376 16.1255 19.1917 16.0223C19.1524 15.9157 19.0774 15.8282 18.9666 15.76C18.7315 15.611 18.4521 15.4948 18.1425 15.4203C17.8329 15.34 17.5176 15.2999 17.1965 15.2999C17.1419 15.2999 17.088 15.301 17.0347 15.3031C16.7354 15.3148 16.4568 15.3596 16.1989 15.4375C15.9008 15.5292 15.6428 15.6611 15.4249 15.8331C15.207 16.0051 15.0379 16.2087 14.9175 16.4437C14.7971 16.6788 14.7369 16.9396 14.7369 17.2263C14.7369 17.4077 14.758 17.5752 14.8003 17.729C14.8636 17.9593 14.9743 18.1587 15.1325 18.3271C15.2843 18.4822 15.4807 18.6117 15.7217 18.7158Z" fill="black"/>
<path d="M21 13.9853C21.3728 13.9853 21.6748 13.6833 21.6748 13.3105C21.6748 12.9377 21.3728 12.6357 21 12.6357L20.0014 12.6357C19.9344 12.5255 19.8566 12.4213 19.7685 12.3246L17.0412 9.33056L20.4007 7.17101C20.4322 7.15051 20.462 7.12753 20.4899 7.1023C21.0193 6.62009 21.3354 5.94733 21.3688 5.23203C21.4021 4.51672 21.15 3.81746 20.6677 3.28807C20.1855 2.75869 19.5128 2.44254 18.7975 2.40918C18.0822 2.37583 17.3829 2.62799 16.8535 3.1102C16.8258 3.13561 16.8001 3.16317 16.7768 3.19263L14.314 6.33648L11.5867 3.3424C11.225 2.94536 10.7205 2.70825 10.184 2.68324C9.64752 2.65822 9.12307 2.84734 8.72603 3.209L2.23886 9.11808C2.10652 9.23863 2.02748 9.40682 2.01914 9.58565C2.0108 9.76448 2.07384 9.93929 2.1944 10.0716L4.52993 12.6357H2C1.62721 12.6357 1.3252 12.9377 1.3252 13.3105C1.3252 13.6833 1.62721 13.9853 2 13.9853L21 13.9853ZM8.13809 5.57066L14.5735 12.6357H6.35603L5.46515 11.6576L7.96021 9.38489C8.09256 9.26434 8.17159 9.09615 8.17993 8.91732C8.18827 8.7385 8.12523 8.56368 8.00468 8.43133C7.88413 8.29899 7.71594 8.21995 7.53711 8.21161C7.35828 8.20327 7.18347 8.26631 7.05112 8.38687L4.55606 10.6596L3.64697 9.66156L8.13809 5.57066Z" fill="black"/>
</svg>