<svg viewBox="0 0 24 24" fill="none" xmlns="http://www.w3.org/2000/svg" width="24" height="24">
<path fill-rule="evenodd" clip-rule="evenodd" d="M7.56274 4.54012L7.54258 4.55848L7.55254 4.54916L7.56274 4.54012Z" fill="black"/>
<path fill-rule="evenodd" clip-rule="evenodd" d="M7.56274 4.54012L7.54258 4.55848L2.56279 9.09506C2.35866 9.28103 2.34393 9.59727 2.5299 9.8014L5.17486 12.7048H2.5C2.22386 12.7048 2 12.9286 2 13.2048C2 13.4809 2.22386 13.7048 2.5 13.7048L4.71777 13.7088H6.08953H7.44228H15.2206H16.5733H19.3095H20.3192H20.4604L21.5 13.7048C21.7761 13.7048 22 13.4809 22 13.2048C22 12.9286 21.7761 12.7048 21.5 12.7048H20.1309C20.0559 12.5551 19.9602 12.415 19.8454 12.289L17.1174 9.29455C17.1007 9.2761 17.088 9.25433 17.0803 9.23061C17.0727 9.20674 17.0705 9.18121 17.0734 9.15632C17.0764 9.13148 17.0845 9.10693 17.0974 9.08554C17.1102 9.06472 17.1275 9.04715 17.1476 9.03327L20.5112 6.86998C20.5346 6.85495 20.5566 6.83783 20.5772 6.81913C21.0722 6.36814 21.3685 5.73873 21.3997 5.06978C21.4308 4.401 21.1948 3.74724 20.744 3.25228C20.2931 2.75737 19.664 2.46176 18.9953 2.43047C18.3263 2.39932 17.6714 2.63514 17.1764 3.08612C17.1559 3.10485 17.1368 3.12521 17.1196 3.14708L14.6544 6.2965C14.6387 6.31516 14.6183 6.3294 14.5964 6.34011C14.5739 6.35101 14.5492 6.35752 14.5243 6.35819C14.4994 6.35879 14.474 6.35418 14.451 6.3444C14.4279 6.33455 14.407 6.31932 14.3901 6.30078L11.6628 3.30701C11.3324 2.94431 10.871 2.72748 10.3809 2.70465C9.89103 2.68195 9.41246 2.85516 9.04989 3.18532L7.56274 4.54012ZM14.3059 12.7048H6.5276L5.42025 11.4892L8.04826 9.09511C8.2524 8.90915 8.26713 8.59291 8.08116 8.38877C7.89519 8.18464 7.57895 8.16991 7.37482 8.35588L4.74681 10.75L3.60586 9.49758L7.85649 5.62526L14.3059 12.7048ZM9.72334 3.92456L8.59573 4.95181L15.6587 12.7048H18.8714L16.3782 9.968C16.265 9.84363 16.1801 9.69622 16.1287 9.53608C16.0773 9.37582 16.0603 9.206 16.08 9.03885C16.0997 8.87192 16.1551 8.71106 16.2423 8.56735C16.3296 8.4235 16.447 8.29986 16.5861 8.20523L16.5968 8.19812L19.9247 6.05944C20.2109 5.78859 20.3825 5.41764 20.4009 5.02326C20.4196 4.61941 20.277 4.22463 20.0047 3.92572C19.7325 3.62687 19.3526 3.44824 18.9488 3.42928C18.5557 3.41097 18.1716 3.54632 17.8757 3.80444L15.4334 6.92106L15.426 6.93178C15.319 7.06115 15.1839 7.16634 15.0328 7.23975C14.8816 7.31322 14.7164 7.35341 14.5483 7.35752C14.3801 7.3616 14.2131 7.32953 14.0584 7.2635C13.9036 7.19735 13.7642 7.09867 13.6509 6.97423L10.9236 3.98046C10.7718 3.81388 10.5601 3.71474 10.335 3.70419C10.11 3.6937 9.88995 3.77291 9.72334 3.92456Z" fill="black"/>
<path d="M11.5832 16.8812L12.207 18.6594L12.6095 19.8069L13.2087 21.5149C13.2493 21.6285 13.2972 21.7235 13.3526 21.8001C13.3882 21.8494 13.4269 21.891 13.4687 21.9249C13.5754 22.0116 13.7187 22.0549 13.8987 22.0549C14.0787 22.0549 14.2221 22.0116 14.3287 21.9249C14.3709 21.8906 14.41 21.849 14.446 21.8001C14.5009 21.7254 14.5484 21.6337 14.5887 21.5249L15.6031 18.6789L16.3171 16.6757L16.6987 15.6049C16.7252 15.5279 16.7404 15.4552 16.7443 15.3869C16.7511 15.2659 16.7226 15.1586 16.6587 15.0649C16.569 14.9333 16.4336 14.8608 16.2527 14.8472C16.2319 14.8457 16.2106 14.8449 16.1887 14.8449C16.0154 14.8449 15.8787 14.8883 15.7787 14.9749C15.6787 15.0616 15.5987 15.1916 15.5387 15.3649L14.5327 18.3006L14.0557 19.6923L13.8839 20.1938L13.7406 19.775L13.4133 18.8183L12.2387 15.3849C12.1721 15.1983 12.0921 15.0616 11.9987 14.9749C11.9054 14.8883 11.7787 14.8449 11.6187 14.8449C11.4587 14.8449 11.3287 14.8883 11.2287 14.9749C11.1287 15.0616 11.0454 15.1949 10.9787 15.3749L10.4139 16.9763L10.0363 18.0467L9.30325 20.125L7.76069 15.5488L7.69872 15.3649C7.63872 15.1849 7.55872 15.0549 7.45872 14.9749C7.37482 14.9022 7.26277 14.86 7.12256 14.8483C7.09565 14.846 7.0677 14.8449 7.03872 14.8449C6.79205 14.8449 6.61539 14.9183 6.50872 15.0649C6.40872 15.2116 6.39539 15.3916 6.46872 15.6049L8.55872 21.5149C8.59927 21.6285 8.64723 21.7235 8.70259 21.8001C8.73823 21.8494 8.77694 21.891 8.81872 21.9249C8.93205 22.0116 9.07872 22.0549 9.25872 22.0549C9.43872 22.0549 9.57872 22.0116 9.67872 21.9249C9.72094 21.8906 9.76003 21.849 9.79598 21.8001C9.85086 21.7254 9.89844 21.6337 9.93872 21.5249L10.8552 18.9369L11.2316 17.8739L11.5832 16.8812Z" fill="black"/>
</svg>