<svg xmlns="http://www.w3.org/2000/svg" width="24" height="24" fill="currentColor" viewBox="0 0 24 24"><path d="M12 3.225A8.775 8.775 0 1 0 20.775 12 8.785 8.785 0 0 0 12 3.225m7.393 8.1h-3.361c-.151-3.081-1.337-5.259-2.31-6.548a7.44 7.44 0 0 1 5.672 6.547zm-10.074 1.35h5.361c-.195 3.511-1.876 5.662-2.681 6.497-.806-.835-2.486-2.987-2.681-6.497zm0-1.35C9.514 7.814 11.195 5.663 12 4.828c.806.838 2.486 2.989 2.681 6.497zm4.403 7.897c.973-1.288 2.157-3.467 2.31-6.547h3.362a7.44 7.44 0 0 1-5.672 6.547"/></svg>