<svg xmlns="http://www.w3.org/2000/svg" width="24" height="24" fill="currentColor" viewBox="0 0 24 24"><path d="M12 3.394A8.606 8.606 0 1 0 20.606 12 8.616 8.616 0 0 0 12 3.394m7.577 8.1h-3.705c-.13-3.44-1.559-5.757-2.568-6.975a7.61 7.61 0 0 1 6.272 6.975zM12 19.411a9.3 9.3 0 0 1-1.282-1.641 10.83 10.83 0 0 1-1.576-5.263h5.716a10.83 10.83 0 0 1-1.576 5.263A9.3 9.3 0 0 1 12 19.411m-2.858-7.917a10.83 10.83 0 0 1 1.576-5.263A9.3 9.3 0 0 1 12 4.59a9.3 9.3 0 0 1 1.282 1.641 10.83 10.83 0 0 1 1.576 5.263zm1.553-6.975c-1.013 1.218-2.438 3.535-2.568 6.975H4.422a7.61 7.61 0 0 1 6.272-6.975zm-6.272 7.988h3.705c.13 3.44 1.559 5.757 2.568 6.975a7.61 7.61 0 0 1-6.272-6.975zm8.881 6.975c1.008-1.218 2.438-3.535 2.568-6.975h3.705a7.61 7.61 0 0 1-6.272 6.975z"/></svg>