<svg viewBox="0 0 24 24" fill="none" xmlns="http://www.w3.org/2000/svg" width="24" height="24">
<path d="M6.16405 6.71381C6.06089 6.8232 6.00293 6.97158 6.00293 7.12629V19.793C6.00293 20.2072 6.33872 20.543 6.75293 20.543H16.4546C16.6004 20.543 16.7404 20.4815 16.8435 20.3721C16.9467 20.2627 17.0046 20.1143 17.0046 19.9596V7.19111C17.0046 6.83314 16.731 6.54296 16.3934 6.54296L6.55302 6.54295C6.40712 6.54295 6.26721 6.60441 6.16405 6.71381Z" fill="black" fill-opacity="0.2"/>
<path fill-rule="evenodd" clip-rule="evenodd" d="M12.2687 9.41662C12.2047 9.39414 12.1335 9.40371 12.0781 9.4428C12.0227 9.48197 11.9899 9.5459 11.9898 9.61374V11.1776C11.9898 11.2522 12.0299 11.3209 12.0944 11.3583L13.4489 12.1402C13.5077 12.1742 13.5802 12.1777 13.6419 12.1492C13.7035 12.1207 13.7473 12.0638 13.7597 11.9971C13.8591 11.46 13.7639 10.9046 13.4906 10.4316C13.2172 9.95873 12.7836 9.59871 12.2687 9.41662Z" fill="black"/>
<path fill-rule="evenodd" clip-rule="evenodd" d="M11.5039 9.28494C11.1021 9.28504 10.7071 9.39101 10.3589 9.59165C10.0108 9.79228 9.72128 10.0808 9.51971 10.4284C9.31817 10.776 9.21092 11.1708 9.20973 11.5726C9.2086 11.9744 9.31369 12.3697 9.51317 12.7185C9.71269 13.0671 10.0006 13.3575 10.3474 13.5601C10.6944 13.7626 11.0891 13.871 11.4908 13.8733C11.8928 13.8757 12.2889 13.7726 12.6384 13.574C12.9877 13.3754 13.2788 13.0879 13.4824 12.7414C13.5104 12.6936 13.5184 12.6363 13.5045 12.5827C13.4903 12.529 13.4552 12.4823 13.4072 12.4543L11.7133 11.4671V9.49432C11.7132 9.4389 11.6912 9.38548 11.652 9.34628C11.6127 9.30719 11.5593 9.28493 11.5039 9.28494Z" fill="black"/>
<path d="M3.99902 20.543C3.99902 19.4589 4.4922 18.4348 5.3418 17.6914C6.18922 16.9501 7.32572 16.543 8.49902 16.543H10.292L9.14551 15.3965C8.95025 15.2012 8.95025 14.8847 9.14551 14.6894C9.34077 14.4942 9.65728 14.4942 9.85254 14.6894L11.8525 16.6894C12.0478 16.8847 12.0478 17.2012 11.8525 17.3965L9.85254 19.3965C9.65728 19.5917 9.34077 19.5917 9.14551 19.3965C8.95025 19.2012 8.95025 18.8847 9.14551 18.6894L10.292 17.543H8.49902C7.55086 17.543 6.65282 17.8732 6 18.4443C5.34931 19.0137 4.99902 19.7705 4.99902 20.543C4.99902 20.8191 4.77517 21.043 4.49902 21.043C4.22288 21.043 3.99902 20.8191 3.99902 20.543ZM5.50293 14.3447V7.12596C5.50301 6.8481 5.6067 6.57606 5.7998 6.37108C5.9941 6.16504 6.26456 6.04303 6.55273 6.04295H16.3936C17.0344 6.04302 17.5049 6.58538 17.5049 7.19139V19.9599C17.5048 20.238 17.4004 20.5098 17.207 20.7148C17.0127 20.9209 16.7424 21.043 16.4541 21.043H12.7412C12.4652 21.0428 12.2412 20.819 12.2412 20.543C12.2412 20.2669 12.4652 20.0431 12.7412 20.043H16.4541C16.4565 20.043 16.46 20.0427 16.4639 20.041C16.4678 20.0393 16.4734 20.0356 16.4795 20.0293C16.4923 20.0157 16.5048 19.9911 16.5049 19.9599V7.19139C16.5049 7.14114 16.4857 7.10145 16.4619 7.07616C16.4386 7.05143 16.4144 7.04298 16.3936 7.04295H6.55273C6.55046 7.04299 6.54756 7.04337 6.54395 7.04491C6.53994 7.04666 6.53349 7.05011 6.52734 7.05663C6.51453 7.07028 6.50301 7.09495 6.50293 7.12596V14.3447C6.50293 14.6209 6.27907 14.8447 6.00293 14.8447C5.72679 14.8447 5.50293 14.6209 5.50293 14.3447ZM8.00293 5.04198V4.64354C8.00293 4.36522 8.10309 4.08976 8.29395 3.87987C8.48639 3.66839 8.75829 3.53908 9.05273 3.53905H18.8906C19.5473 3.53929 20.001 4.1095 20.001 4.71092V17.9385C20.0009 18.2168 19.9009 18.4923 19.71 18.7021C19.5175 18.9135 19.2456 19.042 18.9512 19.042H18.501C18.2249 19.0418 18.001 18.818 18.001 18.542C18.0012 18.2661 18.2251 18.0421 18.501 18.042H18.9521L18.9551 18.041C18.958 18.0396 18.964 18.0366 18.9707 18.0293C18.9859 18.0126 19.0009 17.9803 19.001 17.9385V4.71092C19.001 4.64873 18.9781 4.60078 18.9521 4.57225C18.9272 4.54488 18.9051 4.53915 18.8906 4.53905H9.05273L9.0498 4.54002C9.047 4.5413 9.04126 4.54497 9.03418 4.55272C9.01896 4.56945 9.00293 4.60146 9.00293 4.64354V5.04198C9.00293 5.31812 8.77907 5.54198 8.50293 5.54198C8.22679 5.54198 8.00293 5.31812 8.00293 5.04198Z" fill="black"/>
</svg>