<svg xmlns="http://www.w3.org/2000/svg" width="24" height="24" fill="currentColor" viewBox="0 0 24 24"><path d="M21.956 18.75a.506.506 0 0 1-.506.506H17.4a.506.506 0 0 1-.405-.81l3.642-4.857a1.519 1.519 0 1 0-2.647-1.421.506.506 0 1 1-.954-.338 2.531 2.531 0 1 1 4.414 2.368l-3.037 4.045h3.038a.506.506 0 0 1 .506.506zM13.681 5.543a.506.506 0 0 0-.714.051l-4.005 4.621-4.005-4.621a.506.506 0 1 0-.764.663l4.1 4.731-4.1 4.731a.506.506 0 1 0 .764.663l4.005-4.621 4.005 4.621a.506.506 0 0 0 .764-.663l-4.1-4.731 4.1-4.731a.506.506 0 0 0-.051-.714z"/></svg>