<svg xmlns="http://www.w3.org/2000/svg" width="24" height="24" fill="currentColor" viewBox="0 0 24 24"><path d="M20.054 4.581a.675.675 0 0 0-.634-.635C12.997 3.569 7.851 5.503 5.658 9.131a7.35 7.35 0 0 0-1.077 4.134 8.6 8.6 0 0 0 .56 2.717.338.338 0 0 0 .558.121l7.172-7.282a.675.675 0 0 1 .955.955l-7.838 7.956-1.197 1.197a.69.69 0 0 0-.051.937.675.675 0 0 0 .988.036l1.417-1.417c1.193.577 2.397.892 3.591.934q.141.005.281.005a7.34 7.34 0 0 0 3.853-1.082c3.628-2.194 5.563-7.338 5.185-13.762z"/></svg>