<svg xmlns="http://www.w3.org/2000/svg" width="24" height="24" fill="currentColor" viewBox="0 0 24 24"><path d="M6.584 17.416C2.543 10.682 7.934 3.948 19.379 4.621c.673 11.448-6.061 16.835-12.795 12.795" opacity=".2"/><path d="M20.054 4.581a.675.675 0 0 0-.634-.635C12.997 3.569 7.851 5.503 5.658 9.131a7.35 7.35 0 0 0-1.077 4.134c.048 1.343.44 2.7 1.164 4.037l-1.646 1.645a.675.675 0 0 0 .955.955l1.645-1.646c1.337.723 2.694 1.115 4.037 1.163q.141.005.281.005a7.34 7.34 0 0 0 3.853-1.082c3.628-2.194 5.563-7.338 5.185-13.762zm-5.881 12.608c-1.92 1.163-4.192 1.181-6.472.065l7.478-7.477a.675.675 0 0 0-.955-.955l-7.477 7.482c-1.113-2.278-1.097-4.556.065-6.472 1.864-3.077 6.294-4.762 11.923-4.561.202 5.624-1.484 10.056-4.561 11.92z"/></svg>