<svg xmlns="http://www.w3.org/2000/svg" width="24" height="24" fill="currentColor" viewBox="0 0 24 24"><path d="M19.885 4.591a.506.506 0 0 0-.476-.476c-6.36-.375-11.447 1.532-13.608 5.1-1.472 2.429-1.414 5.299.151 8.117l-1.735 1.735a.506.506 0 1 0 .716.715l1.735-1.735c1.457.809 2.928 1.216 4.344 1.216a7.2 7.2 0 0 0 3.772-1.065c3.568-2.161 5.474-7.248 5.1-13.608zm-5.624 12.741c-2.032 1.23-4.442 1.212-6.845-.033l7.644-7.644a.506.506 0 0 0-.716-.716L6.7 16.584c-1.245-2.404-1.266-4.809-.033-6.845 1.914-3.158 6.466-4.877 12.234-4.636.236 5.764-1.482 10.317-4.641 12.23z"/></svg>