<svg xmlns="http://www.w3.org/2000/svg" width="24" height="24" fill="currentColor" viewBox="0 0 24 24"><path d="M20.1 12A8.1 8.1 0 1 1 12 3.9a8.1 8.1 0 0 1 8.1 8.1" opacity=".2"/><path d="M12 3.225a8.775 8.775 0 0 0 0 17.55c1.815 0 3.721-.547 5.099-1.462a.675.675 0 0 0-.748-1.125c-1.145.763-2.815 1.237-4.351 1.237A7.425 7.425 0 1 1 19.425 12c0 2.232-.918 2.7-1.688 2.7s-1.688-.468-1.688-2.7V8.625a.675.675 0 0 0-1.35 0v.359a4.05 4.05 0 1 0 .5 5.493c.506 1.012 1.38 1.573 2.537 1.573 1.902 0 3.038-1.514 3.038-4.05a8.784 8.784 0 0 0-8.775-8.775zM12 14.7a2.7 2.7 0 1 1 2.7-2.7 2.7 2.7 0 0 1-2.7 2.7"/></svg>