<svg xmlns="http://www.w3.org/2000/svg" width="24" height="24" fill="currentColor" viewBox="0 0 24 24"><path d="M20.775 12v.128c-.029 1.203-.475 2.572-2.363 2.572-1.952 0-2.363-1.468-2.363-2.7V8.625a.675.675 0 0 0-.72-.675.69.69 0 0 0-.63.698v.338a4.05 4.05 0 1 0 .568 5.404 3.4 3.4 0 0 0 .285.422c.453.564 1.316 1.239 2.859 1.239a4.6 4.6 0 0 0 .778-.063.338.338 0 0 1 .345.506 8.78 8.78 0 0 1-7.712 4.282c-4.622-.093-8.413-3.809-8.592-8.428a8.775 8.775 0 1 1 17.543-.347zM9.3 12A2.7 2.7 0 1 0 12 9.3 2.7 2.7 0 0 0 9.3 12"/></svg>