<svg viewBox="0 0 24 24" fill="none" xmlns="http://www.w3.org/2000/svg" width="24" height="24">
<path d="M12.0049 8.72687C12.2809 8.72687 12.5048 8.5029 12.5049 8.22687V6.69659H14.0244C14.3006 6.69659 14.5244 6.47274 14.5244 6.19659C14.5242 5.92059 14.3005 5.69659 14.0244 5.69659H12.5049V4.17706C12.5047 3.90106 12.2809 3.67706 12.0049 3.67706C11.729 3.67726 11.505 3.90118 11.5049 4.17706V5.69659H9.97461C9.69885 5.69692 9.47477 5.9208 9.47461 6.19659C9.47461 6.47253 9.69875 6.69626 9.97461 6.69659H11.5049V8.22687C11.505 8.50278 11.729 8.72667 12.0049 8.72687ZM8.7998 16.6653H3.40137L3.40039 15.6653H8.7998V11.5023H4.65039C3.96012 11.5023 3.39955 12.062 3.39941 12.7523V19.5775C3.39955 20.2677 3.96012 20.8275 4.65039 20.8275H8.7998V16.6653ZM14.2002 11.5023H9.7998V15.6653H14.2002V11.5023ZM20.6006 12.7523C20.6005 12.0623 20.0405 11.5027 19.3506 11.5023H15.2002V15.6653H20.6006V12.7523ZM14.2002 16.6653H9.7998V20.8275H14.2002V16.6653ZM19.3506 20.8275C20.0405 20.8271 20.6005 20.2675 20.6006 19.5775V16.6653H15.2002V20.8275H19.3506Z" fill="black"/>
</svg>