<svg viewBox="0 0 24 24" fill="none" xmlns="http://www.w3.org/2000/svg" width="24" height="24">
<rect width="16.2" height="12.15" rx="0.75" transform="matrix(-1 0 0 1 20.1 5.84192)" fill="black" fill-opacity="0.2"/>
<path d="M4.65039 5.16602C3.96005 5.16602 3.40042 5.72569 3.40039 6.41602V17.0664C3.4006 17.7566 3.96016 18.3164 4.65039 18.3164H19.3506C20.0405 18.3161 20.6004 17.7564 20.6006 17.0664V6.41602C20.6006 5.72589 20.0406 5.16635 19.3506 5.16602H4.65039ZM19.3506 6.16602C19.4884 6.16634 19.6006 6.27818 19.6006 6.41602V17.0664C19.6004 17.2041 19.4882 17.3161 19.3506 17.3164H4.65039C4.51245 17.3164 4.4006 17.2043 4.40039 17.0664V6.41602C4.40042 6.27797 4.51234 6.16602 4.65039 6.16602H19.3506ZM6.35547 11.6758C6.07933 11.6758 5.85547 11.8996 5.85547 12.1758C5.85573 12.4517 6.07949 12.6758 6.35547 12.6758H11.3555C11.6313 12.6756 11.8552 12.4516 11.8555 12.1758C11.8555 11.8997 11.6315 11.6759 11.3555 11.6758H6.35547ZM6.35547 9.65039C6.07933 9.65039 5.85547 9.87425 5.85547 10.1504C5.85553 10.4265 6.07937 10.6504 6.35547 10.6504H16.3555C16.6315 10.6503 16.8554 10.4264 16.8555 10.1504C16.8555 9.87433 16.6315 9.65052 16.3555 9.65039H6.35547ZM6.35547 7.625C6.07943 7.625 5.85563 7.849 5.85547 8.125C5.85547 8.40114 6.07933 8.625 6.35547 8.625H11.3555C11.6315 8.62487 11.8555 8.40106 11.8555 8.125C11.8553 7.84908 11.6314 7.62513 11.3555 7.625H6.35547Z" fill="black"/>
</svg>