<svg viewBox="0 0 24 24" fill="none" xmlns="http://www.w3.org/2000/svg" width="24" height="24">
<path d="M19.3506 18.5752C20.0406 18.5749 20.6005 18.0152 20.6006 17.3252V6.6748C20.6004 5.98483 20.0405 5.42513 19.3506 5.4248H4.65039C3.96016 5.4248 3.4006 5.98463 3.40039 6.6748V17.3252C3.40052 18.0154 3.96012 18.5752 4.65039 18.5752H19.3506ZM4.65039 17.5752C4.5124 17.5752 4.40052 17.4632 4.40039 17.3252V6.6748C4.4006 6.53691 4.51245 6.4248 4.65039 6.4248H19.3506C19.4882 6.42513 19.6004 6.53712 19.6006 6.6748V17.3252C19.6005 17.463 19.4883 17.5749 19.3506 17.5752H4.65039ZM11.3555 12.0654C11.6315 12.0653 11.8555 11.8415 11.8555 11.5654C11.8553 11.2895 11.6314 11.0656 11.3555 11.0654H6.35547C6.07941 11.0654 5.8556 11.2894 5.85547 11.5654C5.85547 11.8416 6.07933 12.0654 6.35547 12.0654H11.3555ZM16.3555 14.0908C16.6315 14.0907 16.8554 13.8668 16.8555 13.5908C16.8555 13.3148 16.6315 13.091 16.3555 13.0908H6.35547C6.07933 13.0908 5.85547 13.3147 5.85547 13.5908C5.85553 13.8669 6.07937 14.0908 6.35547 14.0908H16.3555ZM11.3555 16.1152C11.6315 16.1151 11.8555 15.8913 11.8555 15.6152C11.8552 15.3394 11.6313 15.1154 11.3555 15.1152H6.35547C6.07949 15.1152 5.85573 15.3393 5.85547 15.6152C5.85547 15.8914 6.07933 16.1152 6.35547 16.1152H11.3555Z" fill="black"/>
</svg>