<svg viewBox="0 0 24 24" fill="none" xmlns="http://www.w3.org/2000/svg" width="24" height="24">
<path d="M12.0049 15.2731C12.2809 15.2731 12.5048 15.4971 12.5049 15.7731V17.3034H14.0244C14.3006 17.3034 14.5244 17.5273 14.5244 17.8034C14.5242 18.0794 14.3005 18.3034 14.0244 18.3034H12.5049V19.8229C12.5047 20.0989 12.2809 20.3229 12.0049 20.3229C11.729 20.3227 11.505 20.0988 11.5049 19.8229V18.3034H9.97461C9.69885 18.3031 9.47477 18.0792 9.47461 17.8034C9.47461 17.5275 9.69875 17.3037 9.97461 17.3034H11.5049V15.7731C11.505 15.4972 11.729 15.2733 12.0049 15.2731ZM8.7998 7.33466H3.40137L3.40039 8.33466H8.7998V12.4977H4.65039C3.96012 12.4977 3.39955 11.938 3.39941 11.2477V4.42255C3.39955 3.7323 3.96012 3.17255 4.65039 3.17255H8.7998V7.33466ZM14.2002 12.4977H9.7998V8.33466H14.2002V12.4977ZM20.6006 11.2477C20.6005 11.9377 20.0405 12.4973 19.3506 12.4977H15.2002V8.33466H20.6006V11.2477ZM14.2002 7.33466H9.7998V3.17255H14.2002V7.33466ZM19.3506 3.17255C20.0405 3.17294 20.6005 3.73255 20.6006 4.42255V7.33466H15.2002V3.17255H19.3506Z" fill="black"/>
</svg>