<svg viewBox="0 0 24 24" fill="none" xmlns="http://www.w3.org/2000/svg" width="24" height="24">
<path d="M19.3496 5.16602C20.0399 5.16602 20.5995 5.72572 20.5996 6.41602V17.0664C20.5994 17.7566 20.0398 18.3164 19.3496 18.3164H4.64941C3.95947 18.3161 3.39963 17.7564 3.39941 17.0664V6.41602C3.39948 5.72592 3.95938 5.16635 4.64941 5.16602H19.3496ZM9.5 11.6758C9.22386 11.6758 9 11.8996 9 12.1758C9.00026 12.4517 9.22402 12.6758 9.5 12.6758H14.5C14.776 12.6758 14.9997 12.4517 15 12.1758C15 11.8996 14.7761 11.6758 14.5 11.6758H9.5ZM7 9.65039C6.72386 9.65039 6.5 9.87425 6.5 10.1504C6.50007 10.4265 6.7239 10.6504 7 10.6504H17C17.2761 10.6504 17.4999 10.4265 17.5 10.1504C17.5 9.87425 17.2761 9.65039 17 9.65039H7ZM9.5 7.625C9.22398 7.625 9.0002 7.84903 9 8.125C9 8.40114 9.22386 8.625 9.5 8.625H14.5C14.7761 8.625 15 8.40114 15 8.125C14.9998 7.84903 14.776 7.625 14.5 7.625H9.5Z" fill="black"/>
</svg>