<svg viewBox="0 0 24 24" fill="none" xmlns="http://www.w3.org/2000/svg" width="24" height="24">
<path d="M19.6002 6.68154C19.6002 6.54355 19.4882 6.43168 19.3502 6.43154H4.65002C4.51195 6.43154 4.40002 6.54347 4.40002 6.68154V17.3319C4.40024 17.4698 4.51208 17.5819 4.65002 17.5819H19.3502C19.488 17.5818 19.6 17.4697 19.6002 17.3319V6.68154ZM20.6002 17.3319C20.6 18.022 20.0403 18.5818 19.3502 18.5819H4.65002C3.9598 18.5819 3.40024 18.0221 3.40002 17.3319V6.68154C3.40002 5.99119 3.95967 5.43154 4.65002 5.43154H19.3502C20.0405 5.43168 20.6002 5.99127 20.6002 6.68154V17.3319Z" fill="black"/>
<path fill-rule="evenodd" clip-rule="evenodd" d="M9.7998 9.48145H14.2002V5.93164H15.2002V9.48145H20.1006V10.4814H15.2002V13.5312H20.1006V14.5312H15.2002V18.082H14.2002V14.5312H9.7998V18.082H8.7998V14.5312H3.90039V13.5312H8.7998V10.4814H3.90039V9.48145H8.7998V5.93164H9.7998V9.48145ZM9.7998 13.5312H14.2002V10.4814H9.7998V13.5312Z" fill="black"/>
</svg>