<svg viewBox="0 0 24 24" fill="none" xmlns="http://www.w3.org/2000/svg" width="24" height="24">
<path d="M2.88763 17.1655C2.88763 17.5797 3.22342 17.9155 3.63763 17.9155H12.9385C13.3527 17.9155 13.6885 17.5797 13.6885 17.1655V6.51562C13.6885 6.10141 13.3527 5.76562 12.9385 5.76562H3.63763C3.22342 5.76562 2.88763 6.10141 2.88763 6.51562V17.1655Z" fill="black" fill-opacity="0.2"/>
<path d="M12.9385 5.26562C13.6286 5.26586 14.1885 5.82541 14.1885 6.51562V17.166C14.1882 17.856 13.6285 18.4158 12.9385 18.416H3.6377C2.94751 18.416 2.38797 17.8561 2.3877 17.166V6.51562C2.3877 5.82527 2.94734 5.26562 3.6377 5.26562H12.9385ZM3.3877 17.166C3.38797 17.3039 3.4998 17.416 3.6377 17.416H7.78711V14.3652H3.3877V17.166ZM8.78711 17.416H12.9385C13.0762 17.4158 13.1882 17.3037 13.1885 17.166V14.3652H8.78711V17.416ZM19.0928 9.47559C19.3689 9.47559 19.5928 9.69944 19.5928 9.97559V11.4951H21.1123C21.3884 11.4951 21.6123 11.719 21.6123 11.9951C21.612 12.271 21.3883 12.4951 21.1123 12.4951H19.5928V14.0254C19.5924 14.3012 19.3687 14.5254 19.0928 14.5254C18.8171 14.5252 18.5932 14.3011 18.5928 14.0254V12.4951H17.0625C16.7868 12.4948 16.5628 12.2708 16.5625 11.9951C16.5625 11.7192 16.7867 11.4955 17.0625 11.4951H18.5928V9.97559C18.5928 9.69959 18.8168 9.47582 19.0928 9.47559ZM3.3877 13.3652H7.78711V10.3154H3.3877V13.3652ZM8.78711 13.3652H13.1885V10.3154H8.78711V13.3652ZM3.6377 6.26562C3.49962 6.26562 3.3877 6.37755 3.3877 6.51562V9.31543H7.78711V6.26562H3.6377ZM8.78711 9.31543H13.1885V6.51562C13.1885 6.3777 13.0764 6.26586 12.9385 6.26562H8.78711V9.31543Z" fill="black"/>
</svg>