<svg viewBox="0 0 24 24" fill="none" xmlns="http://www.w3.org/2000/svg" width="24" height="24">
<path d="M4.6499 18.5752C3.95991 18.5749 3.40003 18.0152 3.3999 17.3252V6.6748C3.40011 5.98483 3.95996 5.42513 4.6499 5.4248H19.3501C20.0403 5.4248 20.5999 5.98463 20.6001 6.6748V17.3252C20.6 18.0154 20.0404 18.5752 19.3501 18.5752H4.6499ZM14.5005 12.0654C14.7766 12.0654 15.0005 11.8416 15.0005 11.5654C15.0004 11.2894 14.7765 11.0654 14.5005 11.0654H9.50049C9.22443 11.0654 9.00062 11.2894 9.00049 11.5654C9.00049 11.8416 9.22435 12.0654 9.50049 12.0654H14.5005ZM17.0005 14.0908C17.2766 14.0908 17.5004 13.8669 17.5005 13.5908C17.5005 13.3147 17.2766 13.0908 17.0005 13.0908H7.00049C6.72435 13.0908 6.50049 13.3147 6.50049 13.5908C6.50055 13.8669 6.72439 14.0908 7.00049 14.0908H17.0005ZM14.5005 16.1162C14.7766 16.1162 15.0005 15.8914 15.0005 15.6152C15.0002 15.3393 14.7765 15.1152 14.5005 15.1152H9.50049C9.22451 15.1152 9.00075 15.3393 9.00049 15.6152C9.00049 15.8914 9.22435 16.1162 9.50049 16.1162H14.5005Z" fill="black"/>
</svg>