<svg viewBox="0 0 24 24" fill="none" xmlns="http://www.w3.org/2000/svg" width="24" height="24">
<path d="M20.1003 13.2741V6.67487C20.1003 6.26065 19.7645 5.92487 19.3503 5.92487H4.65027C4.23606 5.92487 3.90027 6.26065 3.90027 6.67487V17.3249C3.90027 17.7391 4.23605 18.0749 4.65027 18.0749H13.9513C14.3656 18.0749 14.7015 17.7389 14.7013 17.3246L14.7005 14.7743C14.7004 14.36 15.0362 14.0241 15.4505 14.0241H19.3503C19.7645 14.0241 20.1003 13.6883 20.1003 13.2741Z" fill="black" fill-opacity="0.2"/>
<path d="M18.6875 15.7012C18.9634 15.7014 19.1875 15.9252 19.1875 16.2012V17.6855H20.6709C20.947 17.6855 21.1709 17.9094 21.1709 18.1855C21.1707 18.4615 20.9469 18.6855 20.6709 18.6855H19.1875V20.1699C19.1873 20.4457 18.9633 20.6697 18.6875 20.6699C18.4115 20.6699 18.1877 20.4459 18.1875 20.1699V18.6855H16.7021C16.4263 18.6853 16.2023 18.4614 16.2021 18.1855C16.2021 17.9095 16.4262 17.6858 16.7021 17.6855H18.1875V16.2012C18.1875 15.925 18.4114 15.7012 18.6875 15.7012ZM19.3506 5.4248C20.0406 5.42524 20.6006 5.98475 20.6006 6.6748V14.0254C20.6003 14.301 20.3762 14.525 20.1006 14.5254H15.2002V18.0752C15.2 18.3504 14.9771 18.573 14.7021 18.5742V18.5752H4.65039C3.96016 18.5752 3.39963 18.0154 3.39941 17.3252V6.6748C3.39945 5.98448 3.96005 5.4248 4.65039 5.4248H19.3506ZM4.40039 17.3252C4.4006 17.4631 4.51245 17.5752 4.65039 17.5752H8.80078V14.5254H4.40039V17.3252ZM9.80078 17.5752H14.2002V14.5254H9.80078V17.5752ZM4.40039 13.5254H8.80078V10.4746H4.40039V13.5254ZM9.80078 13.5254H14.2002V10.4746H9.80078V13.5254ZM15.2002 13.5254H19.6006V10.4746H15.2002V13.5254ZM4.65039 6.4248C4.51234 6.4248 4.40042 6.53676 4.40039 6.6748V9.47461H8.80078V6.4248H4.65039ZM9.80078 9.47461H14.2002V6.4248H9.80078V9.47461ZM15.2002 9.47461H19.6006V6.6748C19.6006 6.53703 19.4883 6.42524 19.3506 6.4248H15.2002V9.47461Z" fill="black"/>
</svg>