<svg viewBox="0 0 24 24" fill="none" xmlns="http://www.w3.org/2000/svg" width="24" height="24">
<path d="M4.25 11.4912C3.83588 11.4911 3.50007 11.1553 3.5 10.7412V4.24805C3.5 3.83387 3.83584 3.49811 4.25 3.49805H10.75C11.1641 3.49815 11.5 3.83389 11.5 4.24805V10.7412C11.4999 11.1553 11.1641 11.4911 10.75 11.4912H4.25ZM4.24707 21C3.83294 20.9999 3.49707 20.6642 3.49707 20.25V14.75C3.49707 14.3358 3.83294 14.0001 4.24707 14H19.7529C20.1671 14.0001 20.5029 14.3358 20.5029 14.75V17.2383C20.5028 17.6519 20.1676 17.9877 19.7539 17.9883L12.2637 17.9971C11.8519 17.9976 11.5175 18.3304 11.5146 18.7422L11.5049 20.2549C11.5022 20.6672 11.1672 21 10.7549 21H4.24707Z" fill="black" fill-opacity="0.2"/>
<path d="M4.26367 12C3.57332 12 3.01367 11.4404 3.01367 10.75V4.26367C3.0138 3.57343 3.5734 3.01367 4.26367 3.01367H10.75C11.4403 3.01367 11.9999 3.57343 12 4.26367V10.75C12 11.4404 11.4404 12 10.75 12H4.26367ZM11 4.26367C10.9999 4.12571 10.888 4.01367 10.75 4.01367H8V6.99707H11V4.26367ZM7 4.01367H4.26367C4.12568 4.01367 4.0138 4.12571 4.01367 4.26367V6.99707H7V4.01367ZM10.75 11C10.8881 11 11 10.8881 11 10.75V7.99707H8V11H10.75ZM7 7.99707H4.01367V10.75C4.01367 10.8881 4.1256 11 4.26367 11H7V7.99707ZM3.50391 14.9922C3.22776 14.9922 3.00391 14.7683 3.00391 14.4922C3.00391 14.216 3.22776 13.9922 3.50391 13.9922H20.5039C20.78 13.9922 21.0039 14.216 21.0039 14.4922C21.0039 14.7683 20.78 14.9922 20.5039 14.9922H3.50391ZM3.50391 17.9922C3.22776 17.9922 3.00391 17.7683 3.00391 17.4922C3.00391 17.216 3.22776 16.9922 3.50391 16.9922H20.5039C20.78 16.9922 21.0039 17.216 21.0039 17.4922C21.0039 17.7683 20.78 17.9922 20.5039 17.9922H3.50391ZM3.50391 20.9922C3.22776 20.9922 3.00391 20.7683 3.00391 20.4922C3.00391 20.216 3.22776 19.9922 3.50391 19.9922H11.5039C11.78 19.9922 12.0039 20.216 12.0039 20.4922C12.0039 20.7683 11.78 20.9922 11.5039 20.9922H3.50391Z" fill="black"/>
</svg>