<svg viewBox="0 0 24 24" fill="none" xmlns="http://www.w3.org/2000/svg" width="24" height="24">
<path d="M19.3496 5.16602C20.0399 5.16602 20.5995 5.72572 20.5996 6.41602V17.0664C20.5994 17.7566 20.0398 18.3164 19.3496 18.3164H4.64941C3.95947 18.3161 3.39963 17.7564 3.39941 17.0664V6.41602C3.39948 5.72592 3.95938 5.16635 4.64941 5.16602H19.3496ZM4.64941 6.16602C4.51166 6.16634 4.39948 6.2782 4.39941 6.41602V17.0664C4.39962 17.2041 4.51175 17.3161 4.64941 17.3164H19.3496C19.4875 17.3164 19.5994 17.2043 19.5996 17.0664V6.41602C19.5995 6.278 19.4876 6.16602 19.3496 6.16602H4.64941ZM14.5 11.6758C14.7761 11.6758 15 11.8996 15 12.1758C14.9997 12.4517 14.776 12.6758 14.5 12.6758H9.5C9.22402 12.6758 9.00026 12.4517 9 12.1758C9 11.8996 9.22386 11.6758 9.5 11.6758H14.5ZM17 9.65039C17.2761 9.65039 17.5 9.87425 17.5 10.1504C17.4999 10.4265 17.2761 10.6504 17 10.6504H7C6.7239 10.6504 6.50007 10.4265 6.5 10.1504C6.5 9.87425 6.72386 9.65039 7 9.65039H17ZM14.5 7.625C14.776 7.625 14.9998 7.84903 15 8.125C15 8.40114 14.7761 8.625 14.5 8.625H9.5C9.22386 8.625 9 8.40114 9 8.125C9.0002 7.84903 9.22398 7.625 9.5 7.625H14.5Z" fill="black"/>
</svg>