<svg viewBox="0 0 24 24" fill="none" xmlns="http://www.w3.org/2000/svg" width="24" height="24">
<path d="M8.90039 18.082H4.65039C4.23634 18.082 3.90065 17.746 3.90039 17.332V15.041H8.90039V18.082ZM14.2998 18.082H9.90039V15.041H14.2998V18.082ZM20.0996 17.332C20.0993 17.746 19.7637 18.082 19.3496 18.082H15.2998V15.041H20.0996V17.332ZM12.6113 10.6914C12.8066 10.4965 13.1232 10.4963 13.3184 10.6914C13.5135 10.8866 13.5133 11.2031 13.3184 11.3984L12.7168 11.999L13.3184 12.6006C13.5135 12.7957 13.5133 13.1123 13.3184 13.3076C13.1231 13.5029 12.8066 13.5029 12.6113 13.3076L12.0098 12.7061L11.4092 13.3076C11.2139 13.5029 10.8974 13.5029 10.7021 13.3076C10.507 13.1123 10.5069 12.7958 10.7021 12.6006L11.3027 11.999L10.7021 11.3984C10.507 11.2032 10.5069 10.8866 10.7021 10.6914C10.8974 10.4965 11.214 10.4964 11.4092 10.6914L12.0098 11.292L12.6113 10.6914ZM7.79297 10.7344C8.16564 10.7344 8.46768 11.0365 8.46777 11.4092V12.5908C8.46766 12.9635 8.16563 13.2656 7.79297 13.2656H3.23633C2.86372 13.2655 2.56164 12.9634 2.56152 12.5908V11.4092C2.56162 11.0366 2.86371 10.7345 3.23633 10.7344H7.79297ZM20.7754 10.7344C21.1481 10.7344 21.4501 11.0365 21.4502 11.4092V12.5908C21.4501 12.9635 21.1481 13.2656 20.7754 13.2656H16.2197C15.847 13.2656 15.5441 12.9635 15.5439 12.5908V11.4092C15.544 11.0365 15.847 10.7344 16.2197 10.7344H20.7754ZM8.90039 9.04102H3.90039V6.66895C3.90059 6.2549 4.2363 5.91797 4.65039 5.91797H8.90039V9.04102ZM14.2998 9.04102H9.90039V5.91797H14.2998V9.04102ZM19.3496 5.91797C19.7637 5.91797 20.0994 6.2549 20.0996 6.66895V9.04102H15.2998V5.91797H19.3496Z" fill="black"/>
</svg>