<svg viewBox="0 0 24 24" fill="none" xmlns="http://www.w3.org/2000/svg" width="24" height="24">
<path d="M13.2637 12C12.5733 12 12.0137 11.4404 12.0137 10.75V4.26367C12.0138 3.57343 12.5734 3.01367 13.2637 3.01367H19.75C20.4403 3.01367 20.9999 3.57343 21 4.26367V10.75C21 11.4404 20.4404 12 19.75 12H13.2637ZM20 4.26367C19.9999 4.12571 19.888 4.01367 19.75 4.01367H17V6.99707H20V4.26367ZM16 4.01367H13.2637C13.1257 4.01367 13.0138 4.12571 13.0137 4.26367V6.99707H16V4.01367ZM19.75 11C19.8881 11 20 10.8881 20 10.75V7.99707H17V11H19.75ZM16 7.99707H13.0137V10.75C13.0137 10.8881 13.1256 11 13.2637 11H16V7.99707ZM3.50391 14.9922C3.22776 14.9922 3.00391 14.7683 3.00391 14.4922C3.00391 14.216 3.22776 13.9922 3.50391 13.9922H20.5039C20.78 13.9922 21.0039 14.216 21.0039 14.4922C21.0039 14.7683 20.78 14.9922 20.5039 14.9922H3.50391ZM3.50391 17.9922C3.22776 17.9922 3.00391 17.7683 3.00391 17.4922C3.00391 17.216 3.22776 16.9922 3.50391 16.9922H20.5039C20.78 16.9922 21.0039 17.216 21.0039 17.4922C21.0039 17.7683 20.78 17.9922 20.5039 17.9922H3.50391ZM3.50391 20.9922C3.22776 20.9922 3.00391 20.7683 3.00391 20.4922C3.00391 20.216 3.22776 19.9922 3.50391 19.9922H11.5039C11.78 19.9922 12.0039 20.216 12.0039 20.4922C12.0039 20.7683 11.78 20.9922 11.5039 20.9922H3.50391Z" fill="black"/>
</svg>