<svg viewBox="0 0 24 24" fill="none" xmlns="http://www.w3.org/2000/svg" width="24" height="24">
<path d="M14.77 5.4248H19.4253C20.074 5.42502 20.6 5.95089 20.6001 6.59961V17.4004C20.6 18.0491 20.074 18.576 19.4253 18.5762H14.7603C14.7451 18.5776 14.7299 18.581 14.7144 18.5811C14.6986 18.581 14.6828 18.5776 14.6675 18.5762H9.36084C9.34564 18.5776 9.3305 18.581 9.31494 18.5811C9.29922 18.5811 9.28342 18.5776 9.26807 18.5762H4.57471C3.92597 18.576 3.40003 18.0491 3.3999 17.4004V6.59961C3.40001 5.95085 3.92596 5.42494 4.57471 5.4248H9.25928C9.2775 5.42282 9.29619 5.41895 9.31494 5.41895C9.33386 5.41898 9.35223 5.42275 9.37061 5.4248H14.6587C14.6769 5.42281 14.6956 5.41895 14.7144 5.41895C14.7333 5.41896 14.7516 5.42277 14.77 5.4248ZM4.57471 6.4248C4.47824 6.42494 4.40001 6.50313 4.3999 6.59961V9.46875H7.71143C7.99067 9.46901 8.21709 9.69535 8.21729 9.97461C8.21729 10.254 7.99079 10.4802 7.71143 10.4805H4.3999V13.5195H7.71143C7.99079 13.5198 8.21729 13.746 8.21729 14.0254C8.21709 14.3047 7.99067 14.531 7.71143 14.5312H4.3999V17.4004C4.40003 17.4968 4.47826 17.576 4.57471 17.5762H8.80908V15.5439C8.80921 15.2645 9.03543 15.0381 9.31494 15.0381C9.59406 15.0385 9.82067 15.2647 9.8208 15.5439V17.5762H14.2085V15.5439C14.2086 15.2645 14.4349 15.0382 14.7144 15.0381C14.9936 15.0383 15.2201 15.2646 15.2202 15.5439V17.5762H19.4253C19.5217 17.576 19.6 17.4968 19.6001 17.4004V14.5312H16.2202C15.9407 14.5311 15.7144 14.3049 15.7144 14.0254C15.7146 13.746 15.9409 13.5197 16.2202 13.5195H19.6001V10.4805H16.2202C15.9407 10.4805 15.7146 10.254 15.7144 9.97461C15.7144 9.69502 15.9406 9.46875 16.2202 9.46875H19.6001V6.59961C19.6 6.50318 19.5217 6.42502 19.4253 6.4248H15.2202V8.45605C15.2202 8.73549 14.9937 8.96165 14.7144 8.96191C14.4348 8.96182 14.2085 8.73559 14.2085 8.45605V6.4248H9.8208V8.45605C9.8208 8.73536 9.59414 8.96145 9.31494 8.96191C9.03535 8.96191 8.80908 8.73565 8.80908 8.45605V6.4248H4.57471ZM13.1255 10.1279C13.3356 9.91809 13.6761 9.91807 13.8862 10.1279C14.096 10.338 14.096 10.6786 13.8862 10.8887L12.7749 11.999L13.8862 13.1104C14.0963 13.3204 14.0961 13.6619 13.8862 13.8721C13.6762 14.082 13.3356 14.0818 13.1255 13.8721L12.0132 12.7598L10.9028 13.8711C10.6927 14.0812 10.3522 14.0812 10.1421 13.8711C9.93232 13.6609 9.93207 13.3204 10.1421 13.1104L11.2524 11.999L10.1421 10.8887C9.93218 10.6785 9.93212 10.338 10.1421 10.1279C10.3522 9.91809 10.6927 9.91807 10.9028 10.1279L12.0142 11.2383L13.1255 10.1279Z" fill="black"/>
</svg>