<svg viewBox="0 0 24 24" fill="none" xmlns="http://www.w3.org/2000/svg" width="24" height="24">
<path d="M4.64941 18.5752C3.95942 18.5749 3.39955 18.0152 3.39941 17.3252V6.6748C3.39963 5.98483 3.95947 5.42513 4.64941 5.4248H19.3496C20.0398 5.4248 20.5994 5.98463 20.5996 6.6748V17.3252C20.5995 18.0154 20.0399 18.5752 19.3496 18.5752H4.64941ZM19.3496 17.5752C19.4876 17.5752 19.5995 17.4632 19.5996 17.3252V6.6748C19.5994 6.53691 19.4876 6.4248 19.3496 6.4248H4.64941C4.51175 6.42513 4.39962 6.53712 4.39941 6.6748V17.3252C4.39955 17.463 4.5117 17.5749 4.64941 17.5752H19.3496ZM12.6445 12.0654C12.3685 12.0653 12.1445 11.8415 12.1445 11.5654C12.1447 11.2895 12.3686 11.0656 12.6445 11.0654H17.6445C17.9206 11.0654 18.1444 11.2894 18.1445 11.5654C18.1445 11.8416 17.9207 12.0654 17.6445 12.0654H12.6445ZM7.64453 14.0908C7.36854 14.0907 7.1446 13.8668 7.14453 13.5908C7.14453 13.3148 7.3685 13.091 7.64453 13.0908H17.6445C17.9207 13.0908 18.1445 13.3147 18.1445 13.5908C18.1445 13.8669 17.9206 14.0908 17.6445 14.0908H7.64453ZM12.6445 16.1162C12.3685 16.1161 12.1445 15.8913 12.1445 15.6152C12.1448 15.3394 12.3687 15.1154 12.6445 15.1152H17.6445C17.9205 15.1152 18.1443 15.3393 18.1445 15.6152C18.1445 15.8914 17.9207 16.1162 17.6445 16.1162H12.6445Z" fill="black"/>
</svg>