<svg viewBox="0 0 24 24" fill="none" xmlns="http://www.w3.org/2000/svg" width="24" height="24">
<rect x="3.90784" y="5.85876" width="16.2" height="12.15" rx="0.75" fill="black" fill-opacity="0.2"/>
<path d="M12.5977 15.2031C12.9704 15.2032 13.2725 15.5052 13.2725 15.8779V18.7471C13.2722 19.1196 12.9702 19.4218 12.5977 19.4219H11.416C11.0436 19.4217 10.7415 19.1195 10.7412 18.7471V15.8779C10.7412 15.5053 11.0434 15.2033 11.416 15.2031H12.5977ZM9.30664 5.43359C9.37576 5.43359 9.44208 5.44828 9.50195 5.47363C9.56159 5.49896 9.61502 5.53591 9.66016 5.58105C9.75065 5.67154 9.80664 5.79649 9.80664 5.93457V9.97461C9.80674 9.97778 9.80762 9.98119 9.80762 9.98438C9.80757 9.9872 9.80669 9.99035 9.80664 9.99316V18.085C9.8064 18.2574 9.71903 18.4102 9.58594 18.5C9.50631 18.5536 9.40982 18.585 9.30664 18.585H4.56738C3.91877 18.5847 3.39271 18.0578 3.39258 17.4092V6.6084C3.39292 5.95993 3.9189 5.43388 4.56738 5.43359H9.30664ZM19.418 5.43359C20.0666 5.43373 20.5924 5.95984 20.5928 6.6084V9.87012C20.6012 9.90651 20.6064 9.94444 20.6064 9.9834C20.6064 10.0219 20.601 10.0597 20.5928 10.0957V13.9219C20.6012 13.9583 20.6074 13.9962 20.6074 14.0352C20.6074 14.0738 20.6011 14.1114 20.5928 14.1475V17.4092C20.5926 18.0579 20.0667 18.5848 19.418 18.585H14.707C14.5349 18.5848 14.3828 18.4979 14.293 18.3652C14.2388 18.2854 14.2072 18.1887 14.207 18.085V5.93457C14.207 5.68169 14.395 5.47385 14.6387 5.44043C14.662 5.43707 14.6857 5.43361 14.71 5.43359H19.418ZM4.39258 17.4092C4.39271 17.5055 4.47106 17.5847 4.56738 17.585H8.80664V14.5342H4.39258V17.4092ZM15.207 17.585H19.418C19.5144 17.5848 19.5926 17.5056 19.5928 17.4092V14.5352H15.207V17.585ZM15.207 13.5352H19.5928V10.4834H15.207V13.5352ZM4.39258 13.5342H8.80664V10.4844H4.39258V13.5342ZM12.6084 10.7002C12.8036 10.5056 13.1203 10.5054 13.3154 10.7002C13.5106 10.8954 13.5105 11.2129 13.3154 11.4082L12.7139 12.0088L13.3154 12.6104C13.5103 12.8056 13.5105 13.1222 13.3154 13.3174C13.1203 13.5125 12.8037 13.5123 12.6084 13.3174L12.0068 12.7158L11.4062 13.3174C11.2111 13.5125 10.8945 13.5123 10.6992 13.3174C10.5041 13.1221 10.504 12.8056 10.6992 12.6104L11.2998 12.0088L10.6992 11.4082C10.5041 11.2129 10.504 10.8964 10.6992 10.7012C10.8944 10.506 11.211 10.5061 11.4062 10.7012L12.0068 11.3018L12.6084 10.7002ZM4.56738 6.43359C4.47119 6.43388 4.39292 6.51222 4.39258 6.6084V9.48438H8.80664V6.43359H4.56738ZM15.207 9.4834H19.5928V6.6084C19.5924 6.51212 19.5143 6.43373 19.418 6.43359H15.207V9.4834ZM12.5977 4.57812C12.9703 4.57823 13.2723 4.8803 13.2725 5.25293V8.12207C13.2724 8.49472 12.9703 8.79677 12.5977 8.79688H11.416C11.0435 8.79667 10.7413 8.49466 10.7412 8.12207V5.25293C10.7413 4.88037 11.0435 4.57833 11.416 4.57812H12.5977Z" fill="black"/>
</svg>