<svg viewBox="0 0 24 24" fill="none" xmlns="http://www.w3.org/2000/svg" width="24" height="24">
<path d="M12.5898 15.1924C12.9624 15.1925 13.2644 15.4947 13.2646 15.8672V18.7363C13.2644 19.1088 12.9624 19.411 12.5898 19.4111H11.4082C11.0357 19.4109 10.7337 19.1088 10.7334 18.7363V15.8672C10.7336 15.4947 11.0357 15.1926 11.4082 15.1924H12.5898ZM9.29883 5.42285C9.3679 5.42285 9.43429 5.43756 9.49414 5.46289C9.55375 5.48819 9.60722 5.52521 9.65234 5.57031C9.74285 5.66074 9.79875 5.7858 9.79883 5.92383V9.96387C9.79889 9.96702 9.79975 9.97046 9.7998 9.97363C9.7998 9.97644 9.79893 9.97962 9.79883 9.98242V18.0742C9.79867 18.2467 9.71121 18.3994 9.57812 18.4893C9.49847 18.5429 9.40206 18.5742 9.29883 18.5742H4.55957C3.91088 18.5739 3.38477 18.0472 3.38477 17.3984V6.59766C3.38526 5.94932 3.91119 5.42314 4.55957 5.42285H9.29883ZM19.4102 5.42285C20.0587 5.42298 20.5845 5.94923 20.585 6.59766V9.85938C20.5934 9.89575 20.5986 9.93371 20.5986 9.97266C20.5986 10.0112 20.5932 10.0489 20.585 10.085V13.9111C20.5934 13.9475 20.5996 13.9854 20.5996 14.0244C20.5996 14.063 20.5933 14.1006 20.585 14.1367V17.3984C20.585 18.0473 20.059 18.5741 19.4102 18.5742H14.6992C14.4921 18.5741 14.314 18.4483 14.2383 18.2686C14.2131 18.2089 14.1993 18.143 14.1992 18.0742V5.92383C14.1994 5.67107 14.3872 5.46308 14.6309 5.42969C14.6542 5.42633 14.6779 5.42287 14.7021 5.42285H19.4102ZM4.38477 17.3984C4.38477 17.4949 4.46317 17.5739 4.55957 17.5742H8.79883V14.5234H4.38477V17.3984ZM15.1992 17.5742H19.4102C19.5067 17.5741 19.585 17.495 19.585 17.3984V14.5244H15.1992V17.5742ZM15.1992 13.5244H19.585V10.4727H15.1992V13.5244ZM4.38477 13.5234H8.79883V10.4736H4.38477V13.5234ZM12.6006 10.6914C12.7959 10.4963 13.1124 10.4962 13.3076 10.6914C13.5024 10.8867 13.5026 11.2033 13.3076 11.3984L12.7061 11.999L13.3076 12.6006C13.5025 12.7959 13.5027 13.1125 13.3076 13.3076C13.1125 13.5026 12.7958 13.5024 12.6006 13.3076L11.999 12.7061L11.3984 13.3076C11.2033 13.5026 10.8867 13.5024 10.6914 13.3076C10.4962 13.1124 10.4963 12.7959 10.6914 12.6006L11.292 11.999L10.6914 11.3984C10.4962 11.2032 10.4963 10.8867 10.6914 10.6914C10.8867 10.4961 11.2032 10.4961 11.3984 10.6914L11.999 11.292L12.6006 10.6914ZM4.55957 6.42285C4.46347 6.42314 4.38526 6.50161 4.38477 6.59766V9.47363H8.79883V6.42285H4.55957ZM15.1992 9.47266H19.585V6.59766C19.5845 6.50151 19.5064 6.42298 19.4102 6.42285H15.1992V9.47266ZM12.5898 4.56738C12.9623 4.56749 13.2643 4.86977 13.2646 5.24219V8.11133C13.2646 8.48398 12.9625 8.78603 12.5898 8.78613H11.4082C11.0356 8.78593 10.7335 8.48392 10.7334 8.11133V5.24219C10.7338 4.86983 11.0358 4.56759 11.4082 4.56738H12.5898Z" fill="black"/>
</svg>