<svg viewBox="0 0 24 24" fill="none" xmlns="http://www.w3.org/2000/svg" width="24" height="24">
<rect x="3.93469" y="5.92499" width="16.2" height="12.15" rx="0.75" fill="black" fill-opacity="0.2"/>
<path d="M14.8047 5.4248H19.46C20.1087 5.42502 20.6347 5.95089 20.6348 6.59961V17.4004C20.6346 18.0491 20.1086 18.576 19.46 18.5762H14.7949C14.7797 18.5776 14.7646 18.581 14.749 18.5811C14.7333 18.581 14.7175 18.5776 14.7021 18.5762H9.39551C9.38031 18.5776 9.36517 18.581 9.34961 18.5811C9.33388 18.5811 9.31809 18.5776 9.30273 18.5762H4.60938C3.96064 18.576 3.4347 18.0491 3.43457 17.4004V6.59961C3.43468 5.95085 3.96062 5.42494 4.60938 5.4248H9.29395C9.31217 5.42282 9.33086 5.41895 9.34961 5.41895C9.36853 5.41898 9.3869 5.42275 9.40527 5.4248H14.6934C14.7116 5.42281 14.7303 5.41895 14.749 5.41895C14.7679 5.41896 14.7863 5.42277 14.8047 5.4248ZM4.60938 6.4248C4.51291 6.42494 4.43468 6.50313 4.43457 6.59961V9.46875H7.74609C8.02534 9.46901 8.25176 9.69535 8.25195 9.97461C8.25195 10.254 8.02546 10.4802 7.74609 10.4805H4.43457V13.5195H7.74609C8.02546 13.5198 8.25195 13.746 8.25195 14.0254C8.25176 14.3047 8.02534 14.531 7.74609 14.5312H4.43457V17.4004C4.4347 17.4968 4.51292 17.576 4.60938 17.5762H8.84375V15.5439C8.84388 15.2645 9.0701 15.0381 9.34961 15.0381C9.62873 15.0385 9.85534 15.2647 9.85547 15.5439V17.5762H14.2432V15.5439C14.2433 15.2645 14.4696 15.0382 14.749 15.0381C15.0283 15.0383 15.2548 15.2646 15.2549 15.5439V17.5762H19.46C19.5563 17.576 19.6346 17.4968 19.6348 17.4004V14.5312H16.2549C15.9754 14.5311 15.749 14.3049 15.749 14.0254C15.7492 13.746 15.9755 13.5197 16.2549 13.5195H19.6348V10.4805H16.2549C15.9754 10.4805 15.7492 10.254 15.749 9.97461C15.749 9.69502 15.9753 9.46875 16.2549 9.46875H19.6348V6.59961C19.6347 6.50318 19.5564 6.42502 19.46 6.4248H15.2549V8.45605C15.2549 8.73549 15.0284 8.96165 14.749 8.96191C14.4695 8.96182 14.2432 8.73559 14.2432 8.45605V6.4248H9.85547V8.45605C9.85547 8.73536 9.62881 8.96145 9.34961 8.96191C9.07002 8.96191 8.84375 8.73565 8.84375 8.45605V6.4248H4.60938ZM13.1592 10.1279C13.3692 9.91795 13.7098 9.91818 13.9199 10.1279C14.1301 10.3381 14.1301 10.6795 13.9199 10.8896L12.8086 12L13.9199 13.1113C14.1301 13.3215 14.1301 13.6619 13.9199 13.8721C13.7097 14.0819 13.3692 14.0821 13.1592 13.8721L12.0479 12.7607L10.9375 13.8721C10.7273 14.0819 10.3858 14.0821 10.1758 13.8721C9.96621 13.6621 9.96636 13.3214 10.1758 13.1113L11.2861 12L10.1758 10.8896C9.96589 10.6796 9.96603 10.3381 10.1758 10.1279C10.3859 9.91783 10.7273 9.91792 10.9375 10.1279L12.0479 11.2383L13.1592 10.1279Z" fill="black"/>
</svg>