<svg viewBox="0 0 24 24" fill="none" xmlns="http://www.w3.org/2000/svg" width="24" height="24">
<path d="M4.64941 18.5752C3.95942 18.5749 3.39955 18.0152 3.39941 17.3252V6.6748C3.39963 5.98483 3.95947 5.42513 4.64941 5.4248H19.3496C20.0398 5.4248 20.5994 5.98463 20.5996 6.6748V17.3252C20.5995 18.0154 20.0399 18.5752 19.3496 18.5752H4.64941ZM15.9727 16.6797C16.1899 16.8966 16.5236 16.9139 16.7188 16.7188C16.9139 16.5236 16.8966 16.1899 16.6797 15.9727L15.207 14.5H16C16.2758 14.4997 16.4998 14.2758 16.5 14C16.4998 13.7242 16.2758 13.5003 16 13.5H14.207L13.207 12.5H16C16.2758 12.4997 16.4998 12.2758 16.5 12C16.4998 11.7242 16.2758 11.5003 16 11.5H12.207L11.207 10.5H16C16.2758 10.4997 16.4998 10.2758 16.5 10C16.4998 9.7242 16.2758 9.50026 16 9.5H10.207L9.20703 8.5H16C16.2758 8.49974 16.4998 8.27581 16.5 8C16.4998 7.7242 16.2758 7.50026 16 7.5H8.20703L8.02734 7.32031C7.81015 7.10348 7.47543 7.08517 7.28027 7.28027C7.08512 7.47542 7.10346 7.81013 7.32031 8.02734L15.9727 16.6797ZM9.95312 12.5L8.95312 11.5H8C7.72424 11.5003 7.50022 11.7242 7.5 12C7.5002 12.2758 7.72423 12.4997 8 12.5H9.95312ZM11.9531 14.5L10.9531 13.5H8C7.72424 13.5003 7.50022 13.7242 7.5 14C7.5002 14.2758 7.72423 14.4997 8 14.5H11.9531ZM13.9531 16.5L12.9531 15.5H8C7.72424 15.5003 7.50022 15.7242 7.5 16C7.5002 16.2758 7.72423 16.4997 8 16.5H13.9531Z" fill="black"/>
</svg>