<svg viewBox="0 0 24 24" fill="none" xmlns="http://www.w3.org/2000/svg" width="24" height="24">
<path d="M8.75 11.4941C8.33588 11.4941 8.00007 11.1583 8 10.7441V4.25098C8 3.8368 8.33584 3.50104 8.75 3.50098H15.25C15.6641 3.50108 16 3.83682 16 4.25098V10.7441C15.9999 11.1582 15.6641 11.494 15.25 11.4941H8.75ZM4.31055 21C3.89653 20.9998 3.56055 20.6641 3.56055 20.25V14.7432C3.56055 14.3291 3.89653 13.9934 4.31055 13.9932H19.6895C20.1035 13.9934 20.4395 14.3291 20.4395 14.7432V17.2178C20.4393 17.6317 20.1034 17.9676 19.6895 17.9678H12.4395C12.0252 17.9678 11.6895 18.3036 11.6895 18.7178V20.25C11.6895 20.6642 11.3536 20.9999 10.9395 21H4.31055Z" fill="black" fill-opacity="0.2"/>
<path d="M8.76074 12C8.07039 12 7.51074 11.4404 7.51074 10.75V4.26367C7.51087 3.57343 8.07047 3.01367 8.76074 3.01367H15.2471C15.9373 3.01367 16.4969 3.57343 16.4971 4.26367V10.75C16.4971 11.4404 15.9374 12 15.2471 12H8.76074ZM15.4971 4.26367C15.4969 4.12571 15.3851 4.01367 15.2471 4.01367H12.4971V6.99707H15.4971V4.26367ZM11.4971 4.01367H8.76074C8.62275 4.01367 8.51087 4.12571 8.51074 4.26367V6.99707H11.4971V4.01367ZM15.2471 11C15.3851 11 15.4971 10.8881 15.4971 10.75V7.99707H12.4971V11H15.2471ZM11.4971 7.99707H8.51074V10.75C8.51074 10.8881 8.62267 11 8.76074 11H11.4971V7.99707ZM3.50391 14.9922C3.22776 14.9922 3.00391 14.7683 3.00391 14.4922C3.00391 14.216 3.22776 13.9922 3.50391 13.9922H20.5039C20.78 13.9922 21.0039 14.216 21.0039 14.4922C21.0039 14.7683 20.78 14.9922 20.5039 14.9922H3.50391ZM3.50391 17.9922C3.22776 17.9922 3.00391 17.7683 3.00391 17.4922C3.00391 17.216 3.22776 16.9922 3.50391 16.9922H20.5039C20.78 16.9922 21.0039 17.216 21.0039 17.4922C21.0039 17.7683 20.78 17.9922 20.5039 17.9922H3.50391ZM3.50391 20.9922C3.22776 20.9922 3.00391 20.7683 3.00391 20.4922C3.00391 20.216 3.22776 19.9922 3.50391 19.9922H11.5039C11.78 19.9922 12.0039 20.216 12.0039 20.4922C12.0039 20.7683 11.78 20.9922 11.5039 20.9922H3.50391Z" fill="black"/>
</svg>