<svg viewBox="0 0 24 24" fill="none" xmlns="http://www.w3.org/2000/svg" width="24" height="24">
<rect x="3.90002" y="5.77747" width="16.2" height="12.15" rx="0.75" fill="black" fill-opacity="0.2"/>
<path fill-rule="evenodd" clip-rule="evenodd" d="M4.64941 5.4248C3.95942 5.42513 3.39955 5.98476 3.39941 6.6748V17.3252C3.39962 18.0152 3.95947 18.5749 4.64941 18.5752H19.3496C20.0398 18.5752 20.5994 18.0154 20.5996 17.3252V6.6748C20.5995 5.98456 20.0399 5.4248 19.3496 5.4248H4.64941ZM19.3496 6.4248C19.4876 6.4248 19.5995 6.53685 19.5996 6.6748V17.3252C19.5994 17.4631 19.4876 17.5752 19.3496 17.5752H4.64941C4.51175 17.5749 4.39962 17.4629 4.39941 17.3252V6.6748C4.39955 6.53705 4.5117 6.42513 4.64941 6.4248H19.3496ZM9.5 13.5254C9.22386 13.5254 9 13.7492 9 14.0254C9.0002 14.3014 9.22398 14.5254 9.5 14.5254H14.5C14.776 14.5254 14.9998 14.3014 15 14.0254C15 13.7492 14.7761 13.5254 14.5 13.5254H9.5ZM7 11.5C6.72386 11.5 6.5 11.7239 6.5 12C6.5 12.2761 6.72386 12.5 7 12.5H17C17.2761 12.5 17.5 12.2761 17.5 12C17.5 11.7239 17.2761 11.5 17 11.5H7ZM9.5 9.47461C9.22398 9.47461 9.0002 9.69864 9 9.97461C9 10.2508 9.22386 10.4746 9.5 10.4746H14.5C14.7761 10.4746 15 10.2508 15 9.97461C14.9998 9.69864 14.776 9.47461 14.5 9.47461H9.5Z" fill="black"/>
</svg>