<svg viewBox="0 0 24 24" fill="none" xmlns="http://www.w3.org/2000/svg" width="24" height="24">
<path d="M4.64941 5.4248C3.95942 5.42513 3.39955 5.98476 3.39941 6.6748V17.3252C3.39963 18.0152 3.95947 18.5749 4.64941 18.5752H19.3496C20.0398 18.5752 20.5994 18.0154 20.5996 17.3252V6.6748C20.5995 5.98456 20.0399 5.4248 19.3496 5.4248H4.64941ZM14.5 13.5254C14.7761 13.5254 15 13.7492 15 14.0254C14.9998 14.3014 14.776 14.5254 14.5 14.5254H9.5C9.22398 14.5254 9.0002 14.3014 9 14.0254C9 13.7492 9.22386 13.5254 9.5 13.5254H14.5ZM17 11.5C17.2761 11.5 17.5 11.7239 17.5 12C17.5 12.2761 17.2761 12.5 17 12.5H7C6.72386 12.5 6.5 12.2761 6.5 12C6.5 11.7239 6.72386 11.5 7 11.5H17ZM14.5 9.47461C14.776 9.47461 14.9998 9.69864 15 9.97461C15 10.2508 14.7761 10.4746 14.5 10.4746H9.5C9.22386 10.4746 9 10.2508 9 9.97461C9.0002 9.69864 9.22398 9.47461 9.5 9.47461H14.5Z" fill="black"/>
</svg>