<svg viewBox="0 0 24 24" fill="none" xmlns="http://www.w3.org/2000/svg" width="24" height="24">
<rect x="3.90002" y="6.23718" width="16.2" height="12.15" rx="0.75" fill="black" fill-opacity="0.2"/>
<path d="M4.64941 18.5752C3.95942 18.5749 3.39955 18.0152 3.39941 17.3252V6.6748C3.39963 5.98483 3.95947 5.42513 4.64941 5.4248H19.3496C20.0398 5.4248 20.5994 5.98463 20.5996 6.6748V17.3252C20.5995 18.0154 20.0399 18.5752 19.3496 18.5752H4.64941ZM19.3496 17.5752C19.4876 17.5752 19.5995 17.4632 19.5996 17.3252V6.6748C19.5994 6.53691 19.4876 6.4248 19.3496 6.4248H4.64941C4.51175 6.42513 4.39962 6.53712 4.39941 6.6748V17.3252C4.39955 17.463 4.5117 17.5749 4.64941 17.5752H19.3496ZM16.7197 16.7197C16.5245 16.915 16.1899 16.8968 15.9727 16.6797L7.32031 8.02734C7.1032 7.81014 7.08505 7.47551 7.28027 7.28027C7.47551 7.08508 7.81015 7.10321 8.02734 7.32031L8.20703 7.5H16C16.2759 7.50027 16.5 7.72402 16.5 8C16.5 8.27594 16.2759 8.49973 16 8.5H9.20703L10.207 9.5H16C16.2759 9.50027 16.5 9.72402 16.5 10C16.5 10.2759 16.2759 10.4997 16 10.5H11.207L12.207 11.5H16C16.2759 11.5003 16.5 11.724 16.5 12C16.5 12.2759 16.2759 12.4997 16 12.5H13.207L14.207 13.5H16C16.2759 13.5003 16.5 13.724 16.5 14C16.5 14.2759 16.2759 14.4997 16 14.5H15.207L16.6797 15.9727C16.8968 16.1898 16.9149 16.5245 16.7197 16.7197ZM8 12.5C7.72411 12.4997 7.50004 12.2759 7.5 12C7.5 11.724 7.72408 11.5003 8 11.5H8.95312L9.95312 12.5H8ZM8 14.5C7.72411 14.4997 7.50004 14.2759 7.5 14C7.5 13.724 7.72408 13.5003 8 13.5H10.9531L11.9531 14.5H8ZM8 16.5C7.72411 16.4997 7.50004 16.2759 7.5 16C7.5 15.724 7.72408 15.5003 8 15.5H12.9531L13.9531 16.5H8Z" fill="black"/>
</svg>