<svg viewBox="0 0 24 24" fill="none" xmlns="http://www.w3.org/2000/svg" width="24" height="24">
<path d="M8.55469 5.58789C9.2449 5.58806 9.80469 6.14764 9.80469 6.83789V13.4463C9.80521 13.5838 9.91708 13.6961 10.0547 13.6963H19.3496C20.0399 13.6964 20.5996 14.256 20.5996 14.9463V17.4883C20.5991 18.1782 20.0396 18.7381 19.3496 18.7383H4.64941C3.95949 18.7381 3.39989 18.1781 3.39941 17.4883V6.83789C3.39941 6.14764 3.9592 5.58806 4.64941 5.58789H8.55469ZM4.39941 17.4883C4.39989 17.6258 4.51178 17.7381 4.64941 17.7383H8.80078V14.6875H4.39941V17.4883ZM9.80078 17.7383H14.2002V14.6963H10.0547C9.96762 14.6963 9.88283 14.6859 9.80078 14.6689V17.7383ZM15.2002 17.7383H19.3496C19.4873 17.7381 19.5991 17.6259 19.5996 17.4883V14.9463C19.5996 14.8083 19.4876 14.6964 19.3496 14.6963H15.2002V17.7383ZM4.39941 13.6875H8.8291C8.81377 13.6094 8.80475 13.5288 8.80469 13.4463V10.6377H4.39941V13.6875ZM18.9814 1.87598C19.19 1.87608 19.3918 1.94917 19.5518 2.08008L19.6182 2.13965L21.8525 4.37305C22.021 4.54178 22.1162 4.77036 22.1162 5.00879C22.1162 5.24722 22.021 5.4758 21.8525 5.64453V5.64551L15.6865 11.8125C15.5179 11.9809 15.2891 12.076 15.0508 12.0762H12.8164C12.578 12.0761 12.3484 11.981 12.1797 11.8125C12.0111 11.6438 11.9161 11.4143 11.916 11.1758V8.94141L11.9209 8.85254C11.9414 8.64686 12.0323 8.45319 12.1797 8.30566L18.3447 2.13965L18.4111 2.08008C18.5711 1.94893 18.7728 1.87614 18.9814 1.87598ZM12.915 8.9834L12.916 11.0762H15.0088L18.9531 7.12988L16.8613 5.03809L12.915 8.9834ZM4.64941 6.58789C4.51148 6.58806 4.39941 6.69992 4.39941 6.83789V9.6377H8.80469V6.83789C8.80469 6.69992 8.69262 6.58806 8.55469 6.58789H4.64941ZM17.5684 4.33105L19.6611 6.42285L21.0752 5.00879L18.9814 2.91699L17.5684 4.33105Z" fill="black"/>
</svg>