<svg viewBox="0 0 24 24" fill="none" xmlns="http://www.w3.org/2000/svg" width="24" height="24">
<path d="M19.3496 5.16602C20.0399 5.16602 20.5996 5.72569 20.5996 6.41602V17.0664C20.5994 17.7566 20.0398 18.3164 19.3496 18.3164H4.64941C3.95947 18.3161 3.39963 17.7564 3.39941 17.0664V6.41602C3.39945 5.72589 3.95936 5.16635 4.64941 5.16602H19.3496ZM4.64941 6.16602C4.51164 6.16634 4.39945 6.27818 4.39941 6.41602V17.0664C4.39962 17.2041 4.51175 17.3161 4.64941 17.3164H19.3496C19.4875 17.3164 19.5994 17.2043 19.5996 17.0664V6.41602C19.5996 6.27797 19.4877 6.16602 19.3496 6.16602H4.64941ZM17.6445 11.6758C17.9207 11.6758 18.1445 11.8996 18.1445 12.1758C18.1443 12.4517 17.9205 12.6758 17.6445 12.6758H12.6445C12.3687 12.6756 12.1448 12.4516 12.1445 12.1758C12.1445 11.8997 12.3685 11.6759 12.6445 11.6758H17.6445ZM17.6445 9.65039C17.9207 9.65039 18.1445 9.87425 18.1445 10.1504C18.1445 10.4265 17.9206 10.6504 17.6445 10.6504H7.64453C7.36854 10.6503 7.1446 10.4264 7.14453 10.1504C7.14453 9.87433 7.3685 9.65052 7.64453 9.65039H17.6445ZM17.6445 7.625C17.9206 7.625 18.1444 7.849 18.1445 8.125C18.1445 8.40114 17.9207 8.625 17.6445 8.625H12.6445C12.3685 8.62487 12.1445 8.40106 12.1445 8.125C12.1447 7.84908 12.3686 7.62513 12.6445 7.625H17.6445Z" fill="black"/>
</svg>