<svg viewBox="0 0 24 24" fill="none" xmlns="http://www.w3.org/2000/svg" width="24" height="24">
<path d="M21.1124 17.1655C21.1124 17.5797 20.7766 17.9155 20.3624 17.9155H11.0615C10.6473 17.9155 10.3115 17.5797 10.3115 17.1655V6.51562C10.3115 6.10141 10.6473 5.76562 11.0615 5.76562H20.3624C20.7766 5.76562 21.1124 6.10141 21.1124 6.51562V17.1655Z" fill="black" fill-opacity="0.2"/>
<path d="M11.0615 5.26562C10.3714 5.26586 9.81152 5.82541 9.81152 6.51562V17.166C9.8118 17.856 10.3715 18.4158 11.0615 18.416H20.3623C21.0525 18.416 21.612 17.8561 21.6123 17.166V6.51562C21.6123 5.82527 21.0527 5.26562 20.3623 5.26562H11.0615ZM20.6123 17.166C20.612 17.3039 20.5002 17.416 20.3623 17.416H16.2129V14.3652H20.6123V17.166ZM15.2129 17.416H11.0615C10.9238 17.4158 10.8118 17.3037 10.8115 17.166V14.3652H15.2129V17.416ZM4.90723 9.47559C4.63108 9.47559 4.40723 9.69944 4.40723 9.97559V11.4951H2.8877C2.61155 11.4951 2.3877 11.719 2.3877 11.9951C2.38796 12.271 2.61172 12.4951 2.8877 12.4951H4.40723V14.0254C4.40762 14.3012 4.63133 14.5254 4.90723 14.5254C5.18293 14.5252 5.40683 14.3011 5.40723 14.0254V12.4951H6.9375C7.21317 12.4948 7.43724 12.2708 7.4375 11.9951C7.4375 11.7192 7.21333 11.4955 6.9375 11.4951H5.40723V9.97559C5.40723 9.69959 5.18317 9.47582 4.90723 9.47559ZM20.6123 13.3652H16.2129V10.3154H20.6123V13.3652ZM15.2129 13.3652H10.8115V10.3154H15.2129V13.3652ZM20.3623 6.26562C20.5004 6.26562 20.6123 6.37755 20.6123 6.51562V9.31543H16.2129V6.26562H20.3623ZM15.2129 9.31543H10.8115V6.51562C10.8115 6.3777 10.9236 6.26586 11.0615 6.26562H15.2129V9.31543Z" fill="black"/>
</svg>