<svg viewBox="0 0 24 24" fill="none" xmlns="http://www.w3.org/2000/svg" width="24" height="24">
<path d="M9.30078 18.0811H4.65332C4.23913 18.0811 3.90335 17.7452 3.90332 17.3311V6.66797C3.90349 6.2539 4.23921 5.91797 4.65332 5.91797H9.30078V18.0811ZM19.3535 5.91797C19.7674 5.9182 20.1034 6.25404 20.1035 6.66797V17.3311C20.1035 17.7451 19.7675 18.0808 19.3535 18.0811H14.7051V5.91797H19.3535Z" fill="black" fill-opacity="0.2"/>
<path d="M19.3528 5.41824C20.0431 5.41834 20.6028 5.97796 20.6028 6.66824V17.3313C20.6026 18.0215 20.043 18.5812 19.3528 18.5813H4.65265C3.96261 18.5811 3.40285 18.0214 3.40265 17.3313V6.66824C3.40267 5.97804 3.9625 5.41847 4.65265 5.41824H19.3528ZM4.40265 14.5315V17.3313C4.40285 17.4691 4.5149 17.5811 4.65265 17.5813H8.80011V14.5315H4.40265ZM9.80011 17.4046V17.5813H10.6956L14.1995 14.0764V13.0052L9.80011 17.4046ZM12.1097 17.5813H14.1995V15.4905L12.1097 17.5813ZM15.1995 17.5813H19.3528C19.4907 17.5812 19.6026 17.4692 19.6028 17.3313V14.5315H15.1995V17.5813ZM9.80011 14.9202V15.9905L14.1995 11.5911V10.5208L9.80011 14.9202ZM4.40265 13.5315H8.80011V10.4817H4.40265V13.5315ZM15.1995 11.7864C15.1997 11.7933 15.1997 11.8001 15.1995 11.8069V13.5315H19.6028V10.4817H15.1995V11.7864ZM9.80011 12.4339V13.5052L14.1995 9.10574V8.03445L9.80011 12.4339ZM9.80011 9.94949V11.0198L14.1995 6.62039V6.41824H13.3314L9.80011 9.94949ZM4.65265 6.41824C4.51478 6.41847 4.40267 6.53033 4.40265 6.66824V9.48172H8.80011V6.41824H4.65265ZM15.1995 9.30203C15.1997 9.30888 15.1997 9.31569 15.1995 9.32254V9.48172H19.6028V6.66824C19.6028 6.53025 19.4908 6.41834 19.3528 6.41824H15.1995V9.30203ZM9.80011 8.53543L11.9173 6.41824H9.80011V8.53543Z" fill="black"/>
</svg>