<svg viewBox="0 0 24 24" fill="none" xmlns="http://www.w3.org/2000/svg" width="24" height="24">
<path d="M12.5898 15.2031C12.9626 15.2032 13.2646 15.5052 13.2646 15.8779V18.7471C13.2644 19.1196 12.9624 19.4218 12.5898 19.4219H11.4082C11.0357 19.4217 10.7337 19.1195 10.7334 18.7471V15.8779C10.7334 15.5053 11.0356 15.2033 11.4082 15.2031H12.5898ZM9.5 18.0918H4.65039C4.23631 18.0918 3.9006 17.7558 3.90039 17.3418V14.541H9.5V18.0918ZM20.1006 17.3418C20.1004 17.7556 19.7644 18.0915 19.3506 18.0918H14.5V14.541H20.1006V17.3418ZM9.5 13.541H3.90039V10.4912H9.5V13.541ZM20.1006 13.541H14.5V10.4912H20.1006V13.541ZM12.6006 10.7002C12.7958 10.5056 13.1125 10.5054 13.3076 10.7002C13.5028 10.8954 13.5027 11.2129 13.3076 11.4082L12.7061 12.0088L13.3076 12.6104C13.5025 12.8056 13.5027 13.1222 13.3076 13.3174C13.1125 13.5125 12.7959 13.5123 12.6006 13.3174L11.999 12.7158L11.3984 13.3174C11.2033 13.5125 10.8867 13.5123 10.6914 13.3174C10.4963 13.1221 10.4962 12.8056 10.6914 12.6104L11.292 12.0088L10.6914 11.4082C10.4963 11.2129 10.4962 10.8964 10.6914 10.7012C10.8866 10.506 11.2032 10.5061 11.3984 10.7012L11.999 11.3018L12.6006 10.7002ZM9.5 9.49121H3.90039V6.69141C3.90059 6.27736 4.2363 5.94141 4.65039 5.94141H9.5V9.49121ZM19.3506 5.94141C19.7644 5.94174 20.1004 6.27757 20.1006 6.69141V9.49121H14.5V5.94141H19.3506ZM12.5898 4.57812C12.9625 4.57823 13.2645 4.8803 13.2646 5.25293V8.12207C13.2646 8.49472 12.9625 8.79677 12.5898 8.79688H11.4082C11.0356 8.79667 10.7335 8.49466 10.7334 8.12207V5.25293C10.7335 4.88037 11.0357 4.57833 11.4082 4.57812H12.5898Z" fill="black"/>
</svg>