<svg viewBox="0 0 24 24" fill="none" xmlns="http://www.w3.org/2000/svg" width="24" height="24">
<path d="M9.1524 14.3594C9.84252 14.3596 10.4023 14.9192 10.4024 15.6094V17.292C10.4024 17.9822 9.84256 18.5418 9.1524 18.542H5.25201C4.56177 18.5419 4.00201 17.9823 4.00201 17.292V15.6094C4.00208 14.9192 4.56181 14.3595 5.25201 14.3594H9.1524ZM19.1446 9.87793C19.3398 9.68284 19.6564 9.68299 19.8516 9.87793C20.0469 10.0732 20.0468 10.3897 19.8516 10.585L18.4366 11.999L19.8516 13.4141C20.0467 13.6093 20.0468 13.9259 19.8516 14.1211C19.6564 14.3161 19.3398 14.3161 19.1446 14.1211L17.7305 12.7061L16.3165 14.1211C16.1213 14.3161 15.8047 14.316 15.6094 14.1211C15.4143 13.9259 15.4143 13.6093 15.6094 13.4141L17.0235 11.999L15.6094 10.585C15.4143 10.3897 15.4142 10.0732 15.6094 9.87793C15.8047 9.68302 16.1213 9.68287 16.3165 9.87793L17.7305 11.292L19.1446 9.87793ZM12.9297 10.7344C13.3025 10.7344 13.6045 11.0364 13.6046 11.4092V12.5908C13.6044 12.9634 13.3024 13.2656 12.9297 13.2656H7.87701C7.50442 13.2655 7.20238 12.9634 7.20221 12.5908V11.4092C7.20225 11.0365 7.50434 10.7345 7.87701 10.7344H12.9297ZM9.1524 5.45801C9.84256 5.45824 10.4024 6.01779 10.4024 6.70801V8.39062C10.4023 9.08073 9.84248 9.64039 9.1524 9.64062H5.25201C4.56185 9.64049 4.00215 9.08079 4.00201 8.39062V6.70801C4.00201 6.01773 4.56177 5.45814 5.25201 5.45801H9.1524Z" fill="black"/>
</svg>