<svg xmlns="http://www.w3.org/2000/svg" fill="currentColor" viewBox="0 0 24 24" width="24" height="24"><path d="m21.45 12-3.849 5.775a.68.68 0 0 1-.562.3H3.9L7.95 12 3.9 5.925h13.139a.68.68 0 0 1 .562.3z" opacity=".2"/><path d="M22.012 11.625 18.159 5.85a1.35 1.35 0 0 0-1.12-.601H3.9a.675.675 0 0 0-.562 1.05l3.801 5.7-3.797 5.7a.675.675 0 0 0 .558 1.05h13.139a1.35 1.35 0 0 0 1.12-.601l3.85-5.775a.675.675 0 0 0 .003-.749zM17.039 17.4H5.166l3.351-5.025a.675.675 0 0 0 0-.749L5.166 6.601h11.873l3.6 5.4z"/></svg>