<svg xmlns="http://www.w3.org/2000/svg" width="24" height="24" fill="currentColor" viewBox="0 0 24 24"><path d="M21.956 11.325a3.885 3.885 0 0 0-3.881-3.881h-3.362c-.218-.013-4.565-.301-8.703-3.772a1.181 1.181 0 0 0-1.941.904v13.5a1.17 1.17 0 0 0 .681 1.07 1.2 1.2 0 0 0 .5.111 1.17 1.17 0 0 0 .759-.278c3.375-2.828 6.882-3.544 8.184-3.718v2.869a1.18 1.18 0 0 0 .526.983l.928.618a1.18 1.18 0 0 0 1.799-.689l1.023-3.857a3.887 3.887 0 0 0 3.486-3.858zM5.359 18.203a.169.169 0 0 1-.278-.128v-13.5a.16.16 0 0 1 .097-.152.2.2 0 0 1 .072-.017.16.16 0 0 1 .106.041c3.713 3.115 7.509 3.813 8.835 3.966v5.822c-1.323.156-5.119.855-8.832 3.969zm11.107.591a.17.17 0 0 1-.257.1l-.928-.618a.17.17 0 0 1-.075-.141v-2.928h2.211zm1.609-4.6h-2.869V8.457h2.869a2.869 2.869 0 1 1 0 5.738z"/></svg>