<svg xmlns="http://www.w3.org/2000/svg" width="24" height="24" fill="currentColor" viewBox="0 0 24 24"><path d="M21.45 11.325a3.375 3.375 0 0 1-3.375 3.375H14.7V7.95h3.375a3.375 3.375 0 0 1 3.375 3.375" opacity=".2"/><path d="M22.125 11.325a4.054 4.054 0 0 0-4.05-4.05h-3.358c-.246-.014-4.524-.316-8.599-3.733A1.35 1.35 0 0 0 3.9 4.575v13.5a1.35 1.35 0 0 0 2.218 1.034c3.187-2.673 6.497-3.439 7.907-3.653v2.676a1.35 1.35 0 0 0 .601 1.125l.928.618a1.35 1.35 0 0 0 2.057-.787l.993-3.743a4.056 4.056 0 0 0 3.521-4.02M5.25 18.069V4.575c3.612 3.03 7.309 3.797 8.775 3.986v5.525c-1.464.192-5.16.958-8.775 3.983m11.053.675v.009l-.928-.618v-2.76h1.822zm1.772-4.719h-2.7v-5.4h2.7a2.7 2.7 0 1 1 0 5.4"/></svg>