<svg viewBox="0 0 24 24" fill="none" xmlns="http://www.w3.org/2000/svg" width="24" height="24">
<path d="M15.167 12.334C15.6918 12.3342 16.001 12.6935 16.001 13.001C16.0006 13.3084 15.6915 13.6678 15.167 13.668C14.6425 13.6678 14.3344 13.3084 14.334 13.001C14.334 12.6934 14.6422 12.3342 15.167 12.334Z" fill="black"/>
<path d="M11.2617 12H9.07227L10.167 9.67285L11.2617 12Z" fill="black"/>
<path fill-rule="evenodd" clip-rule="evenodd" d="M14.123 3.41016C14.2191 3.42938 14.3086 3.47658 14.3789 3.54688L19.1035 8.27148C19.1971 8.36514 19.2499 8.49263 19.25 8.625V19.4258C19.2498 19.7369 19.1262 20.0357 18.9062 20.2559C18.686 20.476 18.3867 20.6005 18.0752 20.6006H5.9248C5.61334 20.6005 5.31404 20.476 5.09375 20.2559C4.87382 20.0357 4.75021 19.7369 4.75 19.4258V4.5752C4.75005 4.26373 4.87357 3.96443 5.09375 3.74414C5.31406 3.52383 5.61325 3.40044 5.9248 3.40039H14.0254L14.123 3.41016ZM7.75586 15.7461C7.34165 15.7461 7.00586 16.0819 7.00586 16.4961V17.8496C7.00586 18.2638 7.34165 18.5996 7.75586 18.5996H9.10938C9.52359 18.5996 9.85938 18.2638 9.85938 17.8496V16.4961C9.85938 16.0819 9.52359 15.7461 9.10938 15.7461H7.75586ZM11.3232 15.7461C10.909 15.7461 10.5732 16.0819 10.5732 16.4961V17.8496C10.5732 18.2638 10.909 18.5996 11.3232 18.5996H12.6768C13.091 18.5996 13.4268 18.2638 13.4268 17.8496V16.4961C13.4268 16.0819 13.091 15.7461 12.6768 15.7461H11.3232ZM14.8906 15.7461C14.4764 15.7461 14.1406 16.0819 14.1406 16.4961V17.8496C14.1406 18.2638 14.4764 18.5996 14.8906 18.5996H16.2441C16.6584 18.5996 16.9941 18.2638 16.9941 17.8496V16.4961C16.9941 16.0819 16.6584 15.7461 16.2441 15.7461H14.8906ZM15.167 10C14.7069 10 14.1925 10.1032 13.8145 10.4785C13.6186 10.6731 13.618 10.9896 13.8125 11.1855C14.0071 11.3814 14.3236 11.383 14.5195 11.1885C14.6299 11.079 14.8306 11 15.167 11C15.6003 11 15.8831 11.2464 15.9697 11.5049C15.7216 11.395 15.4473 11.3341 15.167 11.334C14.2194 11.3342 13.334 12.02 13.334 13.001C13.3343 13.9817 14.2196 14.6678 15.167 14.668C15.4906 14.6679 15.8056 14.5849 16.082 14.4404C16.1713 14.577 16.3257 14.667 16.501 14.667C16.7769 14.6667 17.001 14.443 17.001 14.167V11.667C17.0009 10.6861 16.1146 10 15.167 10ZM10.167 8C9.99759 8 9.84165 8.08589 9.75 8.22461L9.71484 8.28711L7.04785 13.9541C6.9303 14.2039 7.03736 14.5015 7.28711 14.6191C7.53693 14.7366 7.8346 14.6297 7.95215 14.3799L8.60156 13H11.7324L12.3818 14.3799C12.4995 14.6296 12.7971 14.7367 13.0469 14.6191C13.2963 14.5014 13.4036 14.2038 13.2861 13.9541L10.6191 8.28711C10.5367 8.112 10.3605 8.00013 10.167 8ZM14.5254 7.875C14.5256 8.01289 14.6375 8.125 14.7754 8.125H17.543L14.5254 5.10742V7.875Z" fill="black"/>
</svg>