<svg viewBox="0 0 24 24" fill="none" xmlns="http://www.w3.org/2000/svg" width="24" height="24">
<path d="M7.00586 17.8499C7.00586 18.2641 7.34165 18.5999 7.75586 18.5999H9.10966C9.52387 18.5999 9.85965 18.2641 9.85965 17.8499V16.4961C9.85965 16.0819 9.52387 15.7461 9.10965 15.7461H7.75586C7.34165 15.7461 7.00586 16.0819 7.00586 16.4961V17.8499Z" fill="black"/>
<path d="M14.1403 17.8499C14.1403 18.2641 14.4761 18.5999 14.8903 18.5999H16.2441C16.6583 18.5999 16.9941 18.2641 16.9941 17.8499V16.4961C16.9941 16.0819 16.6583 15.7461 16.2441 15.7461H14.8903C14.4761 15.7461 14.1403 16.0819 14.1403 16.4961V17.8499Z" fill="black"/>
<path d="M10.5732 17.8499C10.5732 18.2641 10.909 18.5999 11.3232 18.5999H12.677C13.0912 18.5999 13.427 18.2641 13.427 17.8499V16.4961C13.427 16.0819 13.0912 15.7461 12.677 15.7461H11.3232C10.909 15.7461 10.5732 16.0819 10.5732 16.4961V17.8499Z" fill="black"/>
<path d="M15.167 10.0006C16.1145 10.0006 16.9998 10.6858 17 11.6666V14.1676C16.9998 14.4435 16.776 14.6676 16.5 14.6676C16.3248 14.6674 16.1712 14.5765 16.082 14.44C15.8057 14.5844 15.4907 14.6676 15.167 14.6676C14.2193 14.6676 13.3341 13.9816 13.334 13.0006C13.334 12.0194 14.2192 11.3336 15.167 11.3336C15.4473 11.3336 15.7216 11.3947 15.9697 11.5045C15.8832 11.2461 15.6004 11.0006 15.167 11.0006C14.8306 11.0006 14.6299 11.0787 14.5195 11.1881C14.3237 11.3826 14.0071 11.3818 13.8125 11.1861C13.618 10.9903 13.6187 10.6737 13.8145 10.4791C14.1925 10.1036 14.7069 10.0006 15.167 10.0006ZM10.167 7.9996C10.3604 7.99973 10.5367 8.11173 10.6191 8.28671L13.2861 13.9547C13.4033 14.2044 13.2964 14.5021 13.0469 14.6197C12.7971 14.7373 12.4985 14.6302 12.3809 14.3805L11.7314 13.0006H8.60156L7.95215 14.3805C7.8345 14.63 7.5368 14.737 7.28711 14.6197C7.03743 14.5022 6.9297 14.2044 7.04688 13.9547L9.71387 8.28671C9.79637 8.11157 9.97338 7.9996 10.167 7.9996ZM9.07227 12.0006H11.2607L10.166 9.67441L9.07227 12.0006ZM14.334 13.0006C14.3341 13.3082 14.642 13.6676 15.167 13.6676C15.6262 13.6676 15.92 13.3925 15.9863 13.1178L16 13.0006L15.9863 12.8834C15.9201 12.6086 15.6265 12.3336 15.167 12.3336C14.6419 12.3336 14.334 12.693 14.334 13.0006ZM19.25 19.4254C19.2499 19.7367 19.1263 20.0352 18.9062 20.2555C18.6859 20.4758 18.3868 20.6001 18.0752 20.6002H5.9248C5.61325 20.6001 5.31406 20.4758 5.09375 20.2555C4.87373 20.0352 4.7501 19.7367 4.75 19.4254V4.5748C4.75005 4.26324 4.87344 3.96405 5.09375 3.74374C5.31406 3.52343 5.61325 3.40005 5.9248 3.39999H14.0254L14.123 3.40976C14.2191 3.42898 14.3086 3.47617 14.3789 3.54648L19.1035 8.27109C19.1972 8.36476 19.2499 8.49214 19.25 8.6246V19.4254ZM14.5254 7.8746C14.5254 8.01267 14.6373 8.1246 14.7754 8.1246H17.543L14.5254 5.10703V7.8746ZM5.75 19.4254C5.7501 19.4715 5.7683 19.5157 5.80078 19.5484C5.83355 19.5812 5.87846 19.6001 5.9248 19.6002H18.0752C18.1215 19.6001 18.1664 19.5812 18.1992 19.5484C18.2317 19.5157 18.2499 19.4715 18.25 19.4254V9.1246H14.7754C14.085 9.1246 13.5254 8.56496 13.5254 7.8746V4.39999H5.9248C5.87846 4.40005 5.83355 4.418 5.80078 4.45078C5.76801 4.48355 5.75005 4.52846 5.75 4.5748V19.4254Z" fill="black"/>
</svg>