<svg viewBox="0 0 24 24" fill="none" xmlns="http://www.w3.org/2000/svg" width="24" height="24">
<path d="M19.3501 3.8999C19.7642 3.90001 20.1001 4.23575 20.1001 4.6499V19.3501C20.1 19.7642 19.7642 20.1 19.3501 20.1001H4.6499C4.23575 20.1001 3.90001 19.7642 3.8999 19.3501V4.6499C3.8999 4.23569 4.23569 3.8999 4.6499 3.8999H19.3501ZM6.75244 10.4536C6.37992 10.4538 6.07784 10.7559 6.07764 11.1284C6.07764 11.5011 6.37979 11.8031 6.75244 11.8032H14.9937C15.4203 11.8032 15.8296 11.9733 16.1313 12.2749C16.433 12.5766 16.6029 12.986 16.603 13.4126C16.603 13.8393 16.433 14.2485 16.1313 14.5503C15.8296 14.852 15.4204 15.022 14.9937 15.022H8.35205L9.15771 14.2163C9.42104 13.9527 9.42119 13.5247 9.15771 13.2612C8.89419 12.9979 8.46621 12.9979 8.20264 13.2612L6.24463 15.2192C6.19031 15.2736 6.14961 15.3365 6.11768 15.4019C6.11181 15.4138 6.10331 15.4246 6.09814 15.437C5.99619 15.682 6.04551 15.9751 6.24463 16.1743L8.20264 18.1323C8.46624 18.3958 8.89415 18.3958 9.15771 18.1323C9.42105 17.8687 9.42112 17.4408 9.15771 17.1772L8.35205 16.3716H14.9937C15.7784 16.3716 16.5315 16.0603 17.0864 15.5054C17.6413 14.9504 17.9536 14.1973 17.9536 13.4126C17.9535 12.6279 17.6413 11.8747 17.0864 11.3198C16.5421 10.7757 15.807 10.4672 15.0386 10.4556C15.0312 10.4553 15.0235 10.4536 15.0161 10.4536H6.75244ZM6.75244 8.06201C6.37984 8.06218 6.07772 8.36419 6.07764 8.73682C6.07764 9.10951 6.37979 9.41145 6.75244 9.41162H17.2778C17.6504 9.41138 17.9526 9.10946 17.9526 8.73682C17.9526 8.36424 17.6504 8.06226 17.2778 8.06201H6.75244ZM6.75244 5.66943C6.37992 5.6696 6.07785 5.97173 6.07764 6.34424C6.07764 6.71693 6.37979 7.01888 6.75244 7.01904H17.2778C17.6504 7.0188 17.9526 6.71688 17.9526 6.34424C17.9524 5.97178 17.6503 5.66968 17.2778 5.66943H6.75244Z" fill="black"/>
</svg>