<svg viewBox="0 0 24 24" fill="none" xmlns="http://www.w3.org/2000/svg" width="24" height="24">
<path d="M6.74829 19.5C6.74829 19.7761 6.52443 20 6.24829 20C5.97215 20 5.74829 19.7761 5.74829 19.5L5.74829 4.5C5.74829 4.22386 5.97215 4 6.24829 4C6.52443 4 6.74829 4.22386 6.74829 4.5L6.74829 19.5Z" fill="black"/>
<path d="M13.7405 9.5C13.7405 9.77614 13.5166 10 13.2405 10C12.9643 10 12.7405 9.77614 12.7405 9.5V4.5C12.7405 4.22386 12.9643 4 13.2405 4C13.5166 4 13.7405 4.22386 13.7405 4.5V9.5Z" fill="black"/>
<path d="M13.7405 19.5C13.7405 19.7761 13.5166 20 13.2405 20C12.9643 20 12.7405 19.7761 12.7405 19.5V14.5C12.7405 14.2239 12.9643 14 13.2405 14C13.5166 14 13.7405 14.2239 13.7405 14.5V19.5Z" fill="black"/>
<path d="M17.6053 12.3542C17.8005 12.159 17.8005 11.8424 17.6053 11.6471L15.7831 9.82391C15.5879 9.62897 15.2713 9.62908 15.076 9.82391C14.8809 10.0192 14.8809 10.3367 15.076 10.5319L16.0448 11.5007H10.2469C9.97094 11.5009 9.74692 11.7246 9.74692 12.0007C9.74713 12.2765 9.97107 12.5005 10.2469 12.5007H16.0448L15.076 13.4694C14.8809 13.6647 14.8809 13.9812 15.076 14.1764C15.2712 14.3715 15.5878 14.3715 15.7831 14.1764L17.6053 12.3542Z" fill="black"/>
</svg>