<svg viewBox="0 0 24 24" fill="none" xmlns="http://www.w3.org/2000/svg" width="24" height="24">
<path d="M19.3501 3.8999C19.7642 3.90001 20.1001 4.23575 20.1001 4.6499V19.3501C20.1 19.7642 19.7642 20.1 19.3501 20.1001H4.6499C4.23575 20.1001 3.90001 19.7642 3.8999 19.3501V4.6499C3.8999 4.23569 4.23569 3.8999 4.6499 3.8999H19.3501ZM13.2749 13.5435C12.9025 13.5437 12.6004 13.8458 12.6001 14.2183C12.6001 14.5909 12.9023 14.8938 13.2749 14.894C13.6477 14.894 13.9507 14.5911 13.9507 14.2183C13.9504 13.8457 13.6475 13.5435 13.2749 13.5435ZM15.2915 13.5435C14.9189 13.5435 14.617 13.8457 14.6167 14.2183C14.6167 14.5911 14.9187 14.894 15.2915 14.894C15.6643 14.894 15.9663 14.591 15.9663 14.2183C15.966 13.8457 15.6641 13.5435 15.2915 13.5435ZM17.3071 13.5435C16.9347 13.5437 16.6326 13.8458 16.6323 14.2183C16.6323 14.5909 16.9345 14.8938 17.3071 14.894C17.6799 14.894 17.9829 14.5911 17.9829 14.2183C17.9826 13.8457 17.6798 13.5435 17.3071 13.5435ZM6.73779 13.5396C6.36513 13.5396 6.0632 13.8417 6.06299 14.2144C6.06299 14.5871 6.365 14.8892 6.73779 14.8892H11.0513C11.4238 14.8888 11.7261 14.587 11.7261 14.2144C11.7259 13.8419 11.4237 13.5399 11.0513 13.5396H6.73779ZM6.73779 11.1479C6.36505 11.1479 6.06307 11.45 6.06299 11.8228C6.06299 12.1955 6.365 12.4976 6.73779 12.4976H17.2632C17.6356 12.4971 17.938 12.1953 17.938 11.8228C17.9379 11.4503 17.6355 11.1484 17.2632 11.1479H6.73779ZM6.73779 8.75537C6.36514 8.75537 6.06321 9.05757 6.06299 9.43018C6.06299 9.80297 6.365 10.105 6.73779 10.105H17.2632C17.6356 10.1045 17.938 9.80269 17.938 9.43018C17.9378 9.05785 17.6355 8.75581 17.2632 8.75537H6.73779Z" fill="black"/>
</svg>