<svg viewBox="0 0 24 24" fill="none" xmlns="http://www.w3.org/2000/svg" width="24" height="24">
<path d="M19.4246 7.875C19.7007 7.875 19.9246 8.09886 19.9246 8.375C19.9246 8.65114 19.7007 8.875 19.4246 8.875H4.57495C4.29881 8.875 4.07495 8.65114 4.07495 8.375C4.07495 8.09886 4.29881 7.875 4.57495 7.875H19.4246Z" fill="black"/>
<path d="M19.4246 11.25C19.7007 11.25 19.9246 11.4739 19.9246 11.75C19.9246 12.0261 19.7007 12.25 19.4246 12.25H4.57495C4.29881 12.25 4.07495 12.0261 4.07495 11.75C4.07495 11.4739 4.29881 11.25 4.57495 11.25H19.4246Z" fill="black"/>
<path d="M11.241 14.625C11.517 14.6251 11.741 14.8489 11.741 15.125C11.741 15.4011 11.517 15.6249 11.241 15.625H4.57495C4.29881 15.625 4.07495 15.4011 4.07495 15.125C4.07495 14.8489 4.29881 14.625 4.57495 14.625H11.241Z" fill="black"/>
<path d="M12.7361 15.125C12.7361 14.8489 12.9599 14.625 13.2361 14.625C13.5122 14.625 13.7361 14.8489 13.7361 15.125C13.7361 15.4011 13.5122 15.625 13.2361 15.625C12.9599 15.625 12.7361 15.4011 12.7361 15.125Z" fill="black"/>
<path d="M15.5806 15.125C15.5806 14.8489 15.8044 14.625 16.0806 14.625C16.3567 14.625 16.5806 14.8489 16.5806 15.125C16.5806 15.4011 16.3567 15.625 16.0806 15.625C15.8044 15.625 15.5806 15.4011 15.5806 15.125Z" fill="black"/>
<path d="M18.425 15.125C18.425 14.8489 18.6489 14.625 18.925 14.625C19.2012 14.625 19.425 14.8489 19.425 15.125C19.425 15.4011 19.2012 15.625 18.925 15.625C18.6489 15.625 18.425 15.4011 18.425 15.125Z" fill="black"/>
</svg>