<svg viewBox="0 0 24 24" fill="none" xmlns="http://www.w3.org/2000/svg" width="24" height="24">
<path fill-rule="evenodd" clip-rule="evenodd" d="M10.6504 1.16992C10.8291 1.17002 11.0005 1.24094 11.127 1.36719C11.2535 1.49373 11.3251 1.66578 11.3252 1.84473L11.3232 1.85742V11.3242C11.3232 11.6976 11.6256 12 11.999 12C12.3724 11.9999 12.6748 11.6976 12.6748 11.3242V3.92969C12.6737 3.91426 12.6738 3.89851 12.6738 3.88281C12.6738 3.86709 12.6737 3.85139 12.6748 3.83594V3.53223C12.6749 3.44292 12.7104 3.35716 12.7734 3.29395C12.8367 3.23065 12.9232 3.19531 13.0127 3.19531H20.7754C21.1332 3.19542 21.4764 3.33695 21.7295 3.58984C21.9827 3.84302 22.125 4.18688 22.125 4.54492L22.124 4.55762V12.1836L22.125 12.6445C22.125 12.6468 22.1244 12.656 22.124 12.6582L22.123 12.6777V19.9375C22.123 20.3444 21.9532 20.728 21.6621 21.0049C21.3721 21.2806 20.9851 21.4297 20.5889 21.4297H3.40723C3.01102 21.4297 2.62399 21.2806 2.33398 21.0049C2.04289 20.728 1.87307 20.3444 1.87305 19.9375V12C1.87305 11.9826 1.87371 11.9653 1.875 11.9482V4.54492C1.875 4.18688 2.01733 3.84302 2.27051 3.58984C2.52356 3.33695 2.86685 3.19542 3.22461 3.19531H9.97461L9.97363 1.85742C9.97363 1.85529 9.97416 1.84684 9.97461 1.84473C9.97461 1.82844 9.97539 1.81204 9.97656 1.7959C9.97767 1.7823 9.97953 1.76243 9.98145 1.74902C10.002 1.60543 10.0691 1.47096 10.1729 1.36719C10.2994 1.24078 10.4715 1.16992 10.6504 1.16992ZM19.249 15.2129C19.2163 15.2194 19.1857 15.2352 19.1621 15.2588L15.9561 18.4658C15.9326 18.4894 15.9167 18.5192 15.9102 18.5518C15.9036 18.5845 15.9071 18.6186 15.9199 18.6494C15.9327 18.6802 15.9537 18.7071 15.9814 18.7256C16.0091 18.7441 16.0419 18.7539 16.0752 18.7539H19.2822C19.3268 18.7538 19.3698 18.7356 19.4014 18.7041C19.4329 18.6725 19.4502 18.6296 19.4502 18.585V15.3789C19.4502 15.3456 19.4403 15.3129 19.4219 15.2852C19.4034 15.2575 19.3774 15.2355 19.3467 15.2227C19.3159 15.2099 19.2817 15.2064 19.249 15.2129ZM5.24805 6.58301C4.87525 6.58301 4.57324 6.88502 4.57324 7.25781C4.57324 7.6306 4.87525 7.93262 5.24805 7.93262H5.92383V9.95801C5.92393 10.3307 6.22591 10.6328 6.59863 10.6328C6.97114 10.6325 7.27333 10.3305 7.27344 9.95801V7.93262H7.94824C8.32094 7.93251 8.62305 7.63054 8.62305 7.25781C8.62305 6.88509 8.32094 6.58311 7.94824 6.58301H5.24805Z" fill="black"/>
</svg>