<svg viewBox="0 0 24 24" fill="none" xmlns="http://www.w3.org/2000/svg" width="24" height="24">
<path d="M6.49829 5.25C6.49829 4.83579 6.83408 4.5 7.24829 4.5H16.9983C17.4125 4.5 17.7483 4.83579 17.7483 5.25V18.75C17.7483 19.1642 17.4125 19.5 16.9983 19.5H7.24829C6.83408 19.5 6.49829 19.1642 6.49829 18.75V5.25Z" fill="black" fill-opacity="0.2"/>
<path d="M6.49805 4C6.77419 4 6.99805 4.22386 6.99805 4.5V19.5C6.99805 19.7761 6.77419 20 6.49805 20C6.22202 19.9999 5.99805 19.7761 5.99805 19.5V4.5C5.99805 4.22394 6.22202 4.00013 6.49805 4ZM13.4902 14C13.7664 14 13.9902 14.2239 13.9902 14.5V19.5C13.9902 19.7761 13.7664 20 13.4902 20C13.2142 19.9999 12.9902 19.7761 12.9902 19.5V14.5C12.9902 14.2239 13.2142 14.0001 13.4902 14ZM15.3262 9.82422C15.5214 9.62939 15.838 9.62928 16.0332 9.82422L17.8555 11.6475C18.0504 11.8428 18.0506 12.1593 17.8555 12.3545L16.0332 14.1768C15.838 14.3717 15.5214 14.3716 15.3262 14.1768C15.1311 13.9816 15.1312 13.665 15.3262 13.4697L16.2949 12.501H10.4971C10.2213 12.5008 9.99745 12.2767 9.99707 12.001C9.99707 11.725 10.2211 11.5012 10.4971 11.501H16.2949L15.3262 10.5322C15.1311 10.337 15.1312 10.0195 15.3262 9.82422ZM13.4902 4C13.7664 4 13.9902 4.22386 13.9902 4.5V9.5C13.9902 9.77614 13.7664 10 13.4902 10C13.2142 9.99987 12.9902 9.77606 12.9902 9.5V4.5C12.9902 4.22394 13.2142 4.00013 13.4902 4Z" fill="black"/>
</svg>