<svg viewBox="0 0 24 24" fill="none" xmlns="http://www.w3.org/2000/svg" width="24" height="24">
<path d="M19.4243 7.875C19.7005 7.875 19.9243 8.09886 19.9243 8.375C19.9243 8.65114 19.7005 8.875 19.4243 8.875H4.57471C4.29856 8.875 4.07471 8.65114 4.07471 8.375C4.07471 8.09886 4.29856 7.875 4.57471 7.875H19.4243Z" fill="black"/>
<path d="M19.4243 11.25C19.7005 11.25 19.9243 11.4739 19.9243 11.75C19.9243 12.0261 19.7005 12.25 19.4243 12.25H4.57471C4.29856 12.25 4.07471 12.0261 4.07471 11.75C4.07471 11.4739 4.29856 11.25 4.57471 11.25H19.4243Z" fill="black"/>
<path d="M11.2407 14.625C11.5168 14.6251 11.7407 14.8489 11.7407 15.125C11.7407 15.4011 11.5168 15.6249 11.2407 15.625H4.57471C4.29856 15.625 4.07471 15.4011 4.07471 15.125C4.07471 14.8489 4.29856 14.625 4.57471 14.625H11.2407Z" fill="black"/>
<path d="M12.7358 15.125C12.7358 14.8489 12.9597 14.625 13.2358 14.625C13.512 14.625 13.7358 14.8489 13.7358 15.125C13.7358 15.4011 13.512 15.625 13.2358 15.625C12.9597 15.625 12.7358 15.4011 12.7358 15.125Z" fill="black"/>
<path d="M15.5803 15.125C15.5803 14.8489 15.8042 14.625 16.0803 14.625C16.3565 14.625 16.5803 14.8489 16.5803 15.125C16.5803 15.4011 16.3565 15.625 16.0803 15.625C15.8042 15.625 15.5803 15.4011 15.5803 15.125Z" fill="black"/>
<path d="M18.4248 15.125C18.4248 14.8489 18.6487 14.625 18.9248 14.625C19.2009 14.625 19.4248 14.8489 19.4248 15.125C19.4248 15.4011 19.2009 15.625 18.9248 15.625C18.6487 15.625 18.4248 15.4011 18.4248 15.125Z" fill="black"/>
<path d="M4.55322 9.125C4.55322 8.71079 4.88901 8.375 5.30322 8.375H18.697C19.1112 8.375 19.447 8.71079 19.447 9.125V14.375C19.447 14.7892 19.1112 15.125 18.697 15.125H5.30322C4.88901 15.125 4.55322 14.7892 4.55322 14.375V9.125Z" fill="black" fill-opacity="0.2"/>
</svg>