<svg viewBox="0 0 24 24" fill="none" xmlns="http://www.w3.org/2000/svg" width="24" height="24">
<g clip-path="url(#clip0_902_164)">
<path d="M19.4465 3.521C19.7227 3.521 19.9465 3.74485 19.9465 4.021C19.9465 4.29714 19.7227 4.521 19.4465 4.521H4.59692C4.32078 4.521 4.09692 4.29714 4.09692 4.021C4.09692 3.74485 4.32078 3.521 4.59692 3.521H19.4465Z" fill="black"/>
<path d="M19.4465 6.896C19.7227 6.896 19.9465 7.11985 19.9465 7.396C19.9465 7.67214 19.7227 7.896 19.4465 7.896H4.59692C4.32078 7.896 4.09692 7.67214 4.09692 7.396C4.09692 7.11985 4.32078 6.896 4.59692 6.896H19.4465Z" fill="black"/>
<path fill-rule="evenodd" clip-rule="evenodd" d="M16.2749 10.2713C16.2687 10.2711 16.2624 10.271 16.2561 10.271H16.2241C16.2411 10.271 16.258 10.2711 16.2749 10.2713Z" fill="black"/>
<path fill-rule="evenodd" clip-rule="evenodd" d="M4.07179 17.0818C4.05969 17.1249 4.05322 17.1703 4.05322 17.2173C4.05328 17.284 4.06647 17.3477 4.09031 17.4059C4.04821 17.3027 4.04204 17.1883 4.07179 17.0818ZM4.19971 17.5703C4.1985 17.5691 4.20092 17.5715 4.19971 17.5703C4.20223 17.5729 4.20837 17.5791 4.21099 17.5816L4.19971 17.5703Z" fill="black"/>
<path fill-rule="evenodd" clip-rule="evenodd" d="M16.2749 10.2713C16.258 10.2711 16.2411 10.271 16.2241 10.271H11.1597H4.59692C4.32078 10.271 4.09692 10.4949 4.09692 10.771C4.09692 11.0471 4.32078 11.271 4.59692 11.271H11.1597H16.2241H16.2561C16.9667 11.2793 17.6468 11.5658 18.1499 12.0688C18.6603 12.5794 18.9467 13.2718 18.9468 13.9937C18.9468 14.7157 18.6605 15.4088 18.1499 15.9194C17.6393 16.4301 16.9463 16.7173 16.2241 16.7173H5.75977L7.66943 14.8076C7.86457 14.6124 7.86457 14.2958 7.66943 14.1006C7.4742 13.9054 7.15767 13.9054 6.9624 14.1006L4.19971 16.8633L4.19248 16.8707C4.13521 16.9314 4.0929 17.0063 4.07179 17.0818C4.04204 17.1883 4.04821 17.3027 4.09031 17.4059C4.11471 17.4657 4.15117 17.5218 4.19971 17.5703C4.20223 17.5729 4.20837 17.5791 4.21099 17.5816L6.9624 20.333C7.15766 20.5279 7.47426 20.5281 7.66943 20.333C7.8646 20.1378 7.8644 19.8213 7.66943 19.626L5.76074 17.7173H16.2241C17.2115 17.7173 18.1588 17.3246 18.8569 16.6265C19.555 15.9283 19.9468 14.981 19.9468 13.9937C19.9467 13.0065 19.5548 12.0599 18.8569 11.3618C18.1707 10.6756 17.2439 10.2846 16.2749 10.2713Z" fill="black"/>
</g>
<defs>
<clipPath id="clip0_902_164">
<rect width="24" height="24" fill="white"/>
</clipPath>
</defs>
</svg>