<svg viewBox="0 0 24 24" fill="none" xmlns="http://www.w3.org/2000/svg" width="24" height="24">
<path fill-rule="evenodd" clip-rule="evenodd" d="M4.7959 4.07633C5.07169 3.82561 5.49824 3.84555 5.74902 4.12126L19.249 18.9709C19.4997 19.2467 19.4799 19.6742 19.2041 19.925C18.9283 20.1754 18.5007 20.1548 18.25 19.8791L15.9971 17.4006H3.22461C2.86684 17.4004 2.52356 17.258 2.27051 17.005C2.01741 16.7519 1.87509 16.4079 1.875 16.05V7.95036C1.875 7.59245 2.01751 7.24843 2.27051 6.99528C2.52354 6.74245 2.86691 6.60086 3.22461 6.60075H6.17871L4.75 5.02946C4.4995 4.75375 4.52051 4.32711 4.7959 4.07633ZM5.25 9.97575C4.87721 9.97575 4.5752 10.2778 4.5752 10.6506C4.57546 11.0231 4.87737 11.3254 5.25 11.3254H5.9248V13.3507C5.92518 13.7231 6.22722 14.0254 6.59961 14.0256C6.97217 14.0256 7.27404 13.7232 7.27441 13.3507V11.3254H7.9502C8.32273 11.3253 8.62473 11.023 8.625 10.6506C8.625 10.2778 8.3229 9.97585 7.9502 9.97575H5.25Z" fill="black"/>
<path d="M20.7744 6.60075C21.1325 6.60075 21.4763 6.74308 21.7295 6.99626C21.9824 7.24935 22.1249 7.59254 22.125 7.95036V16.0509C22.1248 16.4086 21.9824 16.7521 21.7295 17.005C21.4764 17.258 21.1323 17.4006 20.7744 17.4006H20.2969C20.0701 17.4005 19.8538 17.3035 19.7021 17.1349L10.8271 7.26774C10.5957 7.0103 10.7788 6.60075 11.125 6.60075H20.7744Z" fill="black"/>
</svg>