<svg viewBox="0 0 24 24" fill="none" xmlns="http://www.w3.org/2000/svg" width="24" height="24">
<path d="M19.4465 3.521C19.7227 3.521 19.9465 3.74485 19.9465 4.021C19.9465 4.29714 19.7227 4.521 19.4465 4.521H4.59692C4.32078 4.521 4.09692 4.29714 4.09692 4.021C4.09692 3.74485 4.32078 3.521 4.59692 3.521H19.4465Z" fill="black"/>
<path d="M19.4465 6.896C19.7227 6.896 19.9465 7.11985 19.9465 7.396C19.9465 7.67214 19.7227 7.896 19.4465 7.896H4.59692C4.32078 7.896 4.09692 7.67214 4.09692 7.396C4.09692 7.11985 4.32078 6.896 4.59692 6.896H19.4465Z" fill="black"/>
<path d="M16.2561 10.271C16.5322 10.271 16.7561 10.4949 16.7561 10.771C16.7561 11.0471 16.5322 11.271 16.2561 11.271H4.59692C4.32078 11.271 4.09692 11.0471 4.09692 10.771C4.09692 10.4949 4.32078 10.271 4.59692 10.271H16.2561Z" fill="black"/>
<path d="M6.9624 14.1006C7.15767 13.9054 7.4742 13.9054 7.66943 14.1006C7.86457 14.2958 7.86457 14.6124 7.66943 14.8076L5.26025 17.2168L7.66943 19.626C7.8644 19.8213 7.8646 20.1378 7.66943 20.333C7.47426 20.5281 7.15766 20.5279 6.9624 20.333L4.19971 17.5703C4.00448 17.3751 4.00454 17.0586 4.19971 16.8633L6.9624 14.1006Z" fill="black"/>
<path d="M18.9468 13.9937C18.9467 13.2718 18.6603 12.5794 18.1499 12.0688C17.6393 11.5582 16.9463 11.271 16.2241 11.271H11.1597C10.8835 11.271 10.6597 11.0471 10.6597 10.771C10.6597 10.4949 10.8835 10.271 11.1597 10.271H16.2241C17.2115 10.271 18.1588 10.6636 18.8569 11.3618C19.5548 12.0599 19.9467 13.0065 19.9468 13.9937C19.9468 14.981 19.555 15.9283 18.8569 16.6265C18.1588 17.3246 17.2115 17.7173 16.2241 17.7173H4.55322C4.27723 17.7173 4.05347 17.4932 4.05322 17.2173C4.05322 16.9411 4.27708 16.7173 4.55322 16.7173H16.2241C16.9463 16.7173 17.6393 16.4301 18.1499 15.9194C18.6605 15.4088 18.9468 14.7157 18.9468 13.9937Z" fill="black"/>
<path d="M4.55322 4.771C4.55322 4.35678 4.88901 4.021 5.30322 4.021H18.697C19.1112 4.021 19.447 4.35678 19.447 4.771V16.4668C19.447 16.881 19.1112 17.2168 18.697 17.2168H5.30322C4.88901 17.2168 4.55322 16.881 4.55322 16.4668V4.771Z" fill="black" fill-opacity="0.2"/>
</svg>