<svg viewBox="0 0 24 24" fill="none" xmlns="http://www.w3.org/2000/svg" width="24" height="24">
<path d="M7 5.25C7 4.83579 7.33579 4.5 7.75 4.5H16.25C16.6642 4.5 17 4.83579 17 5.25V18.75C17 19.1642 16.6642 19.5 16.25 19.5H7.75C7.33579 19.5 7 19.1642 7 18.75V5.25Z" fill="black" fill-opacity="0.2"/>
<path d="M6.50391 4C6.78005 4 7.00391 4.22386 7.00391 4.5V19.5C7.00391 19.7761 6.78005 20 6.50391 20C6.22776 20 6.00391 19.7761 6.00391 19.5V4.5C6.00391 4.22386 6.22776 4 6.50391 4ZM17.4961 4C17.7722 4 17.9961 4.22386 17.9961 4.5V19.5C17.9961 19.7761 17.7722 20 17.4961 20C17.22 20 16.9961 19.7761 16.9961 19.5V4.5C16.9961 4.22386 17.22 4 17.4961 4ZM13.332 9.82422C13.5273 9.62943 13.8439 9.62929 14.0391 9.82422L15.8613 11.6475C16.0561 11.8427 16.0564 12.1594 15.8613 12.3545L14.0391 14.1768C13.8439 14.3717 13.5273 14.3715 13.332 14.1768C13.1369 13.9815 13.1369 13.665 13.332 13.4697L14.3008 12.501H8.50293C8.22718 12.5008 8.00331 12.2767 8.00293 12.001C8.00293 11.725 8.22695 11.5012 8.50293 11.501H14.3008L13.332 10.5322C13.1369 10.337 13.1369 10.0195 13.332 9.82422Z" fill="black"/>
</svg>