<svg xmlns="http://www.w3.org/2000/svg" width="24" height="24" fill="currentColor" viewBox="0 0 24 24"><path d="M20.816 8.072a1.86 1.86 0 0 0-1.391-.628h-4.894V5.925a3.206 3.206 0 0 0-3.206-3.206.51.51 0 0 0-.453.28l-3.235 6.47H3.9a1.18 1.18 0 0 0-1.181 1.181v7.425A1.18 1.18 0 0 0 3.9 19.256h14.513a1.856 1.856 0 0 0 1.842-1.626l1.012-8.1a1.86 1.86 0 0 0-.451-1.459zM3.731 18.075V10.65a.17.17 0 0 1 .169-.169h3.544v7.763H3.9a.17.17 0 0 1-.169-.169m16.531-8.67-1.012 8.1a.844.844 0 0 1-.837.739H8.457v-8.149l3.171-6.342a2.194 2.194 0 0 1 1.892 2.173v2.025a.506.506 0 0 0 .506.506h5.4a.844.844 0 0 1 .837.948z"/></svg>