<svg viewBox="0 0 24 24" fill="none" xmlns="http://www.w3.org/2000/svg" width="24" height="24">
<path d="M6.25 21C5.83579 21 5.5 20.6642 5.5 20.25V3.75C5.5 3.33579 5.83579 3 6.25 3H12.75C13.1642 3 13.5 3.33579 13.5 3.75V20.25C13.5 20.6642 13.1642 21 12.75 21H6.25Z" fill="black"/>
<path d="M15.25 21C14.8358 21 14.5 20.6642 14.5 20.25V17.75C14.5 17.3358 14.8358 17 15.25 17H17.75C18.1642 17 18.5 17.3358 18.5 17.75V20.25C18.5 20.6642 18.1642 21 17.75 21H15.25Z" fill="black"/>
<path d="M15.25 7C14.8358 7 14.5 6.66421 14.5 6.25V3.75C14.5 3.33579 14.8358 3 15.25 3H17.75C18.1642 3 18.5 3.33579 18.5 3.75V6.25C18.5 6.66421 18.1642 7 17.75 7H15.25Z" fill="black"/>
<path d="M15.25 14C14.8358 14 14.5 13.6642 14.5 13.25V10.75C14.5 10.3358 14.8358 10 15.25 10H17.75C18.1642 10 18.5 10.3358 18.5 10.75V13.25C18.5 13.6642 18.1642 14 17.75 14H15.25Z" fill="black"/>
</svg>