<svg viewBox="0 0 24 24" fill="none" xmlns="http://www.w3.org/2000/svg" width="24" height="24">
<path fill-rule="evenodd" clip-rule="evenodd" d="M20.25 19C20.6642 19 21 18.6642 21 18.25V5.75C21 5.33579 20.6642 5 20.25 5H3.75C3.33579 5 3 5.33579 3 5.75V18.25C3 18.6642 3.33579 19 3.75 19H20.25ZM5.40039 12.7041C5.06915 12.7041 4.80002 12.4357 4.7998 12.1045V7.09961C4.80002 6.76842 5.06915 6.5 5.40039 6.5H18.5996C18.9309 6.5 19.2 6.76842 19.2002 7.09961V12.1045C19.2 12.4357 18.9309 12.7041 18.5996 12.7041H5.40039ZM5.40039 17.5C5.06915 17.5 4.80002 17.2316 4.7998 16.9004V14.9004C4.7998 14.569 5.06902 14.2998 5.40039 14.2998H7.40039C7.7316 14.3 8 14.5691 8 14.9004V16.9004C7.99979 17.2315 7.73147 17.4998 7.40039 17.5H5.40039ZM11 17.5C10.6688 17.5 10.4006 17.2316 10.4004 16.9004V14.9004C10.4004 14.569 10.6686 14.2998 11 14.2998H13C13.3313 14.2999 13.5996 14.5691 13.5996 14.9004V16.9004C13.5994 17.2315 13.3312 17.4999 13 17.5H11ZM16.5996 17.5C16.2685 17.4998 16.0002 17.2315 16 16.9004V14.9004C16 14.5691 16.2684 14.3 16.5996 14.2998H18.5996C18.931 14.2998 19.2002 14.569 19.2002 14.9004V16.9004C19.2 17.2316 18.9308 17.5 18.5996 17.5H16.5996Z" fill="black"/>
</svg>