<svg viewBox="0 0 24 24" fill="none" xmlns="http://www.w3.org/2000/svg" width="24" height="24">
<path d="M6.09766 4.5C6.29752 4.5 6.49032 4.5697 6.64355 4.69531L6.70605 4.75195L6.70703 4.75293L9.06934 7.12207C9.23418 7.07634 9.45209 7.03207 9.70898 7.02051C10.2952 6.99421 11.0662 7.13712 11.8408 7.76172L11.9082 7.82129C11.9513 7.86388 11.9893 7.91126 12.0225 7.96191L12.0684 8.04004L12.1055 8.12207C12.1382 8.20652 12.1571 8.29589 12.1621 8.38672C12.1687 8.50771 12.1498 8.62906 12.1064 8.74219C12.0631 8.85501 11.9957 8.95659 11.9102 9.04199L9.82812 11.125L11.6582 12.9551C11.8534 13.1503 11.8534 13.4669 11.6582 13.6621C11.463 13.8574 11.1464 13.8573 10.9512 13.6621L9.12109 11.832L7.04102 13.9121C6.95405 13.9984 6.84922 14.0656 6.73438 14.1084C6.61966 14.151 6.49709 14.1686 6.375 14.1602C6.25298 14.1517 6.13408 14.1175 6.02637 14.0596C5.91863 14.0015 5.82421 13.9206 5.75 13.8232L5.74805 13.8203C5.39396 13.3493 4.71998 12.2569 5.10547 11.0684L2.75293 8.70703C2.6118 8.56581 2.5235 8.38151 2.50391 8.18457L2.5 8.09961L2.50391 8.01465C2.52337 7.81746 2.61067 7.63161 2.75195 7.49023L5.48926 4.75195L5.55273 4.69531C5.70586 4.56989 5.898 4.50006 6.09766 4.5Z" fill="black"/>
<path d="M8.2941 17V21H3.74998C3.33576 21 2.99998 20.6648 2.99998 20.2506C2.99998 19.5491 2.99998 18.4994 2.99998 17.7491C2.99998 17.3349 3.33512 17 3.74934 17C5.08623 17 7.79015 17 8.2941 17Z" fill="black"/>
<path d="M14.647 17V21H9.35292V17H14.647Z" fill="black"/>
<path d="M20.25 17C20.6642 17 21 17.3358 21 17.75V20.25C21 20.6642 20.6642 21 20.25 21H15.7059V17H20.25Z" fill="black"/>
</svg>