<svg viewBox="0 0 24 24" fill="none" xmlns="http://www.w3.org/2000/svg" width="24" height="24">
<path d="M20.5 17.25C20.5 17.1119 20.3881 17 20.25 17H15.5V20H20.25C20.3881 20 20.5 19.8881 20.5 19.75V17.25ZM9.5 20H14.5V17H9.5V20ZM6.09766 4.5C6.29752 4.5 6.49032 4.56971 6.64355 4.69531L6.70703 4.75195V4.75293L9.07031 7.12207C9.23505 7.07643 9.45256 7.03205 9.70898 7.02051C10.2952 6.99421 11.0662 7.13713 11.8408 7.76172L11.9082 7.82129C11.9513 7.86388 11.9893 7.91126 12.0225 7.96191L12.0684 8.04004L12.1055 8.12207C12.1382 8.20652 12.1571 8.29589 12.1621 8.38672C12.1687 8.5077 12.1498 8.62905 12.1064 8.74219C12.0631 8.85501 11.9957 8.95659 11.9102 9.04199L9.82812 11.125L11.6582 12.9551C11.8534 13.1503 11.8535 13.4669 11.6582 13.6621C11.4629 13.8574 11.1464 13.8573 10.9512 13.6621L9.12109 11.832L7.04102 13.9121C6.95405 13.9984 6.84923 14.0656 6.73438 14.1084C6.61967 14.151 6.49708 14.1686 6.375 14.1602C6.25298 14.1517 6.13407 14.1175 6.02637 14.0596C5.91862 14.0015 5.82422 13.9206 5.75 13.8232L5.74805 13.8203C5.39396 13.3493 4.71999 12.2569 5.10547 11.0684L2.75293 8.70703C2.6118 8.56581 2.5235 8.38151 2.50391 8.18457L2.5 8.09961L2.50391 8.01465C2.52337 7.81746 2.61067 7.63161 2.75195 7.49023L5.48926 4.75195L5.55273 4.69531C5.70585 4.56989 5.898 4.50007 6.09766 4.5ZM3.55664 8.09863L6.04492 10.5947C6.19667 10.747 6.23482 10.9796 6.13867 11.1719C5.79546 11.858 6.11412 12.5891 6.45312 13.085L11.0898 8.44922C10.5745 8.07745 10.1004 8.00398 9.75391 8.01953C9.56281 8.02814 9.40601 8.0636 9.2998 8.0957C9.24692 8.11169 9.2075 8.12699 9.18359 8.13672C9.17365 8.14077 9.16635 8.14361 9.16211 8.14551C8.96955 8.24175 8.7371 8.20401 8.58496 8.05176L6.09668 5.55762L3.55664 8.09863ZM9.16211 8.14551L9.16113 8.14648H9.16016L9.15918 8.14746H9.1582L9.16211 8.14551ZM3.5 19.75C3.5 19.8881 3.61193 20 3.75 20H8.5V17H3.75C3.61193 17 3.5 17.1119 3.5 17.25V19.75ZM21.5 19.75C21.5 20.4404 20.9403 21 20.25 21H3.75C3.05964 21 2.5 20.4404 2.5 19.75V17.25C2.5 16.5596 3.05964 16 3.75 16H20.25C20.9403 16 21.5 16.5596 21.5 17.25V19.75Z" fill="black"/>
</svg>