<svg viewBox="0 0 24 24" fill="none" xmlns="http://www.w3.org/2000/svg" width="24" height="24">
<path fill-rule="evenodd" clip-rule="evenodd" d="M4.75 7.27471V14.1349C4.75 14.411 4.95774 14.6349 5.23389 14.6349C5.51003 14.6349 5.75 14.411 5.75 14.1349V7.27471C5.75005 7.22836 5.76801 7.18346 5.80078 7.15068C5.83355 7.11791 5.87846 7.09995 5.9248 7.0999H7.93589L7.95 7.1001L7.96411 7.0999H12.4678L15.5498 10.1819V10.7248C15.5498 11.0009 15.7737 11.2248 16.0498 11.2248C16.3259 11.2248 16.5498 11.0009 16.5498 10.7248V9.9749C16.5498 9.84229 16.4971 9.71515 16.4033 9.62139L13.0283 6.24639C12.9346 6.15268 12.8074 6.0999 12.6748 6.0999H8.45H5.9248C5.61325 6.09995 5.31406 6.22334 5.09375 6.44365C4.87344 6.66396 4.75005 6.96315 4.75 7.27471ZM15.375 19.5999C15.3824 19.5999 15.3898 19.5994 15.3971 19.5985H16.0302C16.3101 19.5985 16.5372 19.8254 16.5385 20.1053C16.5397 20.3785 16.3186 20.5999 16.0454 20.5999H11.2142C10.9379 20.5999 10.714 20.4212 10.7142 20.145C10.7144 19.8688 10.9383 19.5996 11.2145 19.5995L14.7065 19.5985L15.375 19.5999Z" fill="black"/>
<path fill-rule="evenodd" clip-rule="evenodd" d="M7.45 4.57471V6.6001C7.4501 6.87143 7.66634 7.09243 7.93589 7.0999L7.95 7.1001L7.96411 7.0999C8.23366 7.09243 8.4499 6.87143 8.45 6.6001V6.0999V4.57471C8.45005 4.52837 8.46801 4.48346 8.50078 4.45068C8.53355 4.41791 8.57846 4.39995 8.6248 4.3999H15.1678L18.2498 7.48193V8.62687C18.2498 8.90302 18.4742 9.12687 18.7503 9.12687C19.0265 9.12687 19.2498 8.90302 19.2498 8.62687V7.2749C19.2498 7.14229 19.1971 7.01515 19.1033 6.92139L15.7283 3.54639C15.6346 3.45268 15.5074 3.3999 15.3748 3.3999H8.6248C8.31324 3.39995 8.01406 3.52334 7.79375 3.74365C7.57344 3.96396 7.45005 4.26315 7.45 4.57471Z" fill="black"/>
<path fill-rule="evenodd" clip-rule="evenodd" d="M21.7612 13.2897L16.8618 18.1911C16.7733 18.2794 16.6662 18.3457 16.5498 18.3858C16.4901 18.4064 16.428 18.4201 16.3647 18.4264L16.2837 18.4303H14.5073C14.2907 18.4301 14.0824 18.3442 13.9292 18.1911C13.7761 18.0378 13.69 17.8296 13.6899 17.6129V15.8366L13.6938 15.7565C13.7124 15.5696 13.7954 15.3936 13.9292 15.2594L18.8296 10.359L18.8892 10.3053C18.9937 10.2196 19.1178 10.1613 19.2498 10.1353C19.3015 10.1251 19.3543 10.1198 19.4077 10.1198L19.4878 10.1237C19.6483 10.1395 19.8005 10.2032 19.9253 10.3053L19.9858 10.359L21.7612 12.1335C21.9144 12.2867 22.0004 12.4949 22.0005 12.7116C22.0005 12.9283 21.9144 13.1364 21.7612 13.2897ZM19.2886 14.3473L17.771 12.8297L14.6899 15.9128V17.4303H16.2085L19.2886 14.3473ZM19.9956 13.6403L18.478 12.1227L19.4077 11.194L20.9243 12.7116L19.9956 13.6403Z" fill="black"/>
<path fill-rule="evenodd" clip-rule="evenodd" d="M7.98193 18.0742L9.65332 16.4028C9.84858 16.2076 9.84858 15.8911 9.65332 15.6958C9.45805 15.5006 9.14152 15.5006 8.94629 15.6958L7.2749 17.3672L5.60352 15.6958C5.40825 15.5005 5.09175 15.5005 4.89648 15.6958C4.70122 15.8911 4.70122 16.2076 4.89648 16.4028L6.56787 18.0742L4.89648 19.7456C4.70125 19.9408 4.70132 20.2574 4.89648 20.4526C5.09175 20.6479 5.40825 20.6479 5.60352 20.4526L7.2749 18.7812L8.94629 20.4526C9.14155 20.6479 9.45806 20.6479 9.65332 20.4526C9.84858 20.2574 9.84858 19.9409 9.65332 19.7456L7.98193 18.0742Z" fill="black"/>
</svg>