<svg viewBox="0 0 24 24" fill="none" xmlns="http://www.w3.org/2000/svg" width="24" height="24">
<path fill-rule="evenodd" clip-rule="evenodd" d="M19.2278 6.79753L15.8528 3.42254C15.79 3.35987 15.7156 3.31018 15.6336 3.27631C15.5517 3.24243 15.4639 3.22503 15.3752 3.2251H8.6252C8.26715 3.2251 7.92378 3.36733 7.6706 3.6205C7.41743 3.87368 7.2752 4.21706 7.2752 4.5751V5.9251H5.9252C5.56715 5.9251 5.22378 6.06733 4.9706 6.3205C4.71743 6.57368 4.5752 6.91706 4.5752 7.2751V16.7372C4.83941 16.6149 5.12945 16.5498 5.42603 16.5498L5.62622 16.5596C6.05101 16.6018 6.45088 16.7797 6.77075 17.0645L8.71802 15.1182L8.86743 14.9834C9.22778 14.6883 9.68078 14.5254 10.1506 14.5254L10.3508 14.5352C10.7481 14.5746 11.125 14.7305 11.4338 14.9834L11.5833 15.1182L11.717 15.2666C12.0125 15.627 12.176 16.0807 12.176 16.5508C12.1759 17.0877 11.9628 17.6027 11.5833 17.9824L8.79058 20.7751H15.3752C15.7332 20.7751 16.0766 20.6329 16.3298 20.3797C16.516 20.1934 16.6422 19.9584 16.696 19.7046H15.1721C14.6266 19.704 14.0995 19.4874 13.7102 19.0981C13.3226 18.7101 13.105 18.1838 13.1047 17.6362V16.0405L13.1057 16.0073L13.1096 15.937L13.1106 15.9028L13.1145 15.8696C13.1616 15.395 13.3717 14.9501 13.7092 14.6118L16.7252 11.5958V9.9751C16.7253 9.88643 16.7079 9.79862 16.674 9.71667C16.6401 9.63473 16.5904 9.56027 16.5278 9.49753L13.1528 6.12254C13.09 6.05987 13.0156 6.01018 12.9336 5.97631C12.8517 5.94243 12.7639 5.92503 12.6752 5.9251H8.6252V4.5751H15.0959L18.0752 7.55438V10.2491L18.1233 10.2046L18.1467 10.1841L18.1721 10.1636C18.5253 9.87418 18.9659 9.70872 19.4252 9.69566V7.2751C19.4253 7.18643 19.4079 7.09862 19.374 7.01667C19.3401 6.93473 19.2904 6.86027 19.2278 6.79753ZM9.6731 16.0732C9.79975 15.9466 9.97151 15.875 10.1506 15.875C10.3298 15.875 10.5015 15.9466 10.6282 16.0732C10.7547 16.1999 10.8264 16.3718 10.8264 16.5508C10.8263 16.7298 10.7547 16.9018 10.6282 17.0283L7.25317 20.4033C7.1906 20.4658 7.11611 20.515 7.03442 20.5488C6.95249 20.5827 6.8643 20.6007 6.77563 20.6006C6.68697 20.6007 6.59879 20.5827 6.51685 20.5488C6.43516 20.515 6.36068 20.4658 6.2981 20.4033L4.94849 19.0527C4.82183 18.9261 4.75024 18.7543 4.75024 18.5752C4.75029 18.3961 4.82187 18.2243 4.94849 18.0977C5.07512 17.9712 5.24704 17.9004 5.42603 17.9004C5.605 17.9005 5.777 17.9711 5.90356 18.0977L6.77563 18.9707L9.6731 16.0732Z" fill="black"/>
<path d="M19.1252 14.6851L16.5725 17.2397H15.5696V16.2368L18.1233 13.6831L19.1252 14.6851ZM18.8088 11.0884L14.4993 15.3979C14.3207 15.5768 14.2202 15.82 14.22 16.0728V17.6353C14.22 17.8883 14.3204 18.1311 14.4993 18.3101C14.6782 18.489 14.921 18.5893 15.1741 18.5894H16.7366C16.9894 18.5892 17.2325 18.4887 17.4114 18.3101L21.7209 13.9985C21.8997 13.8196 22.0002 13.5767 22.0002 13.3237C22.0001 13.0709 21.8997 12.8278 21.7209 12.6489L20.1584 11.0884C20.0019 10.932 19.7967 10.8356 19.5784 10.814L19.4846 10.8091C19.4647 10.8091 19.4449 10.8097 19.4252 10.8109C19.1938 10.8254 18.9737 10.9237 18.8088 11.0884ZM18.8333 12.9731L19.4836 12.3228L20.4856 13.3237L19.8342 13.9741L18.8333 12.9731Z" fill="black"/>
</svg>