<svg viewBox="0 0 24 24" fill="none" xmlns="http://www.w3.org/2000/svg" width="24" height="24">
<path fill-rule="evenodd" clip-rule="evenodd" d="M15.8528 3.42254L19.2278 6.79753C19.2904 6.86027 19.3401 6.93473 19.374 7.01667C19.4079 7.09862 19.4253 7.18643 19.4252 7.2751V9.69566C18.9659 9.70872 18.5253 9.87418 18.1721 10.1636L18.1467 10.1841L18.1233 10.2046L18.0752 10.2491V7.55438L15.0959 4.5751H8.6252V5.9251H12.6752C12.7639 5.92503 12.8517 5.94243 12.9336 5.97631C13.0156 6.01018 13.09 6.05987 13.1528 6.12254L16.5278 9.49753C16.5904 9.56027 16.6401 9.63473 16.674 9.71667C16.7079 9.79862 16.7253 9.88643 16.7252 9.9751V11.5958L13.7092 14.6118C13.3717 14.9501 13.1616 15.395 13.1145 15.8696L13.1106 15.9028L13.1096 15.937L13.1057 16.0073L13.1047 16.0405V17.6362C13.105 18.1838 13.3226 18.7101 13.7102 19.0981C14.0995 19.4874 14.6266 19.704 15.1721 19.7046H16.696C16.6422 19.9584 16.516 20.1934 16.3298 20.3797C16.0766 20.6329 15.7332 20.7751 15.3752 20.7751H10.3207C10.6559 20.0302 10.5175 19.1242 9.90552 18.5122L9.81226 18.4189L9.90552 18.3257C10.6963 17.5349 10.6963 16.2532 9.90552 15.4624C9.1147 14.6717 7.83302 14.6716 7.04224 15.4624L6.94897 15.5557L6.85571 15.4624C6.23888 14.8456 5.32342 14.7099 4.5752 15.0553V7.2751C4.5752 6.91706 4.71743 6.57368 4.9706 6.3205C5.22378 6.06733 5.56715 5.9251 5.9252 5.9251H7.2752V4.5751C7.2752 4.21706 7.41743 3.87368 7.6706 3.6205C7.92378 3.36733 8.26715 3.2251 8.6252 3.2251H15.3752C15.4639 3.22503 15.5517 3.24243 15.6336 3.27631C15.7156 3.31018 15.79 3.35987 15.8528 3.42254Z" fill="black"/>
<path fill-rule="evenodd" clip-rule="evenodd" d="M4.94653 17.3716L5.9939 18.4189L4.94653 19.4663C4.76609 19.6467 4.70921 19.9042 4.77583 20.1332C4.8305 20.222 4.8957 20.3048 4.9706 20.3797C5.05672 20.4658 5.15327 20.5391 5.25728 20.5983C5.48049 20.6549 5.72706 20.5959 5.90161 20.4214L6.94897 19.374L7.99634 20.4214C8.25994 20.685 8.68781 20.685 8.95142 20.4214C9.21502 20.1578 9.21502 19.7299 8.95142 19.4663L7.90405 18.4189L8.95142 17.3716C9.21502 17.108 9.21502 16.6801 8.95142 16.4165C8.6878 16.153 8.25991 16.1529 7.99634 16.4165L6.94897 17.4639L5.90161 16.4165C5.63801 16.1529 5.21014 16.1529 4.94653 16.4165C4.68293 16.6801 4.68293 17.108 4.94653 17.3716Z" fill="black"/>
<path fill-rule="evenodd" clip-rule="evenodd" d="M21.7209 13.9985L17.4114 18.3101C17.2325 18.4887 16.9894 18.5892 16.7366 18.5894H15.1741C14.921 18.5893 14.6782 18.489 14.4993 18.3101C14.3204 18.1311 14.22 17.8883 14.22 17.6353V16.0728C14.2202 15.82 14.3207 15.5768 14.4993 15.3979L18.8088 11.0884C18.9737 10.9237 19.1938 10.8254 19.4252 10.8109C19.4449 10.8097 19.4647 10.8091 19.4846 10.8091L19.5784 10.814C19.7967 10.8356 20.0019 10.932 20.1584 11.0884L21.7209 12.6489C21.8997 12.8278 22.0001 13.0709 22.0002 13.3237C22.0002 13.5767 21.8997 13.8196 21.7209 13.9985ZM19.4836 12.3228L18.8333 12.9731L19.8342 13.9741L20.4856 13.3237L19.4836 12.3228ZM18.1233 13.6831L19.1252 14.6851L16.5725 17.2397H15.5696V16.2368L18.1233 13.6831Z" fill="black"/>
</svg>