<svg viewBox="0 0 24 24" fill="none" xmlns="http://www.w3.org/2000/svg" width="24" height="24">
<path fill-rule="evenodd" clip-rule="evenodd" d="M18.7499 9.82923C18.9102 9.7685 19.0781 9.7276 19.2499 9.70807V8.62451C19.2498 8.49204 19.1971 8.36467 19.1035 8.271L14.3789 3.54639C14.3085 3.47607 14.2191 3.42889 14.123 3.40967L14.0253 3.3999H5.92475C5.61319 3.39995 5.31401 3.52334 5.0937 3.74365C4.87339 3.96396 4.75 4.26315 4.74995 4.57471V14.9842C4.91224 14.9271 5.08035 14.8913 5.24995 14.8767C5.41656 14.8625 5.5846 14.8687 5.74995 14.8956C6.15466 14.9613 6.54328 15.1503 6.85542 15.4624L6.94868 15.5557L7.04194 15.4624C7.83272 14.6716 9.1144 14.6717 9.90522 15.4624C10.696 16.2532 10.696 17.5349 9.90522 18.3257L9.81196 18.4189L9.90522 18.5122C10.2128 18.8198 10.4008 19.2017 10.4691 19.6001H14.5249C14.2213 19.4998 13.9413 19.3295 13.7099 19.0981C13.3223 18.7101 13.1047 18.1838 13.1044 17.6362V16.0405L13.1054 16.0073L13.1093 15.937L13.1103 15.9028L13.1142 15.8696C13.1613 15.395 13.3714 14.9501 13.7089 14.6118L18.0449 10.2759L18.0712 10.2524L18.123 10.2046L18.1464 10.1841L18.1718 10.1636C18.1974 10.1426 18.2235 10.1223 18.2499 10.1026C18.4037 9.98848 18.5721 9.89664 18.7499 9.82923ZM17.5429 8.12451H14.5253V5.10693L17.5429 8.12451Z" fill="black"/>
<path fill-rule="evenodd" clip-rule="evenodd" d="M18.8085 11.0884C18.9312 10.9659 19.0843 10.8801 19.2499 10.8383C19.326 10.819 19.4047 10.8091 19.4843 10.8091L19.5781 10.814C19.7964 10.8356 20.0016 10.932 20.1582 11.0884L21.7207 12.6489C21.8994 12.8278 21.9998 13.0709 21.9999 13.3237C21.9999 13.5767 21.8994 13.8196 21.7207 13.9985L17.4111 18.3101C17.2322 18.4887 16.9891 18.5892 16.7363 18.5894H15.1738C14.9207 18.5893 14.6779 18.489 14.499 18.3101C14.3201 18.1311 14.2197 17.8883 14.2197 17.6353V16.0728C14.2199 15.82 14.3204 15.5768 14.499 15.3979L18.8085 11.0884ZM19.1249 14.6851L18.123 13.6831L15.5693 16.2368V17.2397H16.5722L19.1249 14.6851ZM19.4833 12.3228L20.4853 13.3237L19.8339 13.9741L18.833 12.9731L19.4833 12.3228Z" fill="black"/>
<path fill-rule="evenodd" clip-rule="evenodd" d="M18.1972 19.1001C17.9668 19.3299 17.6873 19.4999 17.3833 19.6001C17.2405 19.6471 17.0924 19.6787 16.9414 19.6938L16.9062 19.6978L16.872 19.6997L16.8007 19.7026L16.7685 19.7046H15.1718C14.9505 19.7043 14.7322 19.6686 14.5249 19.6001H10.4691C10.4974 19.7652 10.5052 19.9332 10.4923 20.0999C10.4793 20.2694 10.445 20.4376 10.3895 20.6001H18.0751C18.3867 20.6 18.6859 20.4757 18.9062 20.2554C19.1262 20.0351 19.2498 19.7366 19.2499 19.4253V18.0469L18.1972 19.1001Z" fill="black"/>
<path fill-rule="evenodd" clip-rule="evenodd" d="M7.90229 18.4185L8.85737 19.3735L8.95112 19.4663C9.21473 19.7299 9.21473 20.1578 8.95112 20.4214C8.68752 20.685 8.25965 20.685 7.99604 20.4214L7.90327 20.3276L6.94819 19.3726L5.90132 20.4214C5.83363 20.4891 5.75511 20.5394 5.67132 20.5723C5.42881 20.6676 5.14215 20.6173 4.94624 20.4214C4.75628 20.2314 4.70322 19.9559 4.78715 19.7183C4.81965 19.6262 4.87267 19.5399 4.94624 19.4663L5.99409 18.4185L5.03999 17.4644L4.94624 17.3716C4.68263 17.108 4.68263 16.6801 4.94624 16.4165C5.20984 16.1529 5.63771 16.1529 5.90132 16.4165L5.99409 16.5103L6.94819 17.4644L7.90327 16.5103L7.99604 16.4165C8.25961 16.1529 8.68751 16.153 8.95112 16.4165C9.21472 16.6801 9.21473 17.108 8.95112 17.3716L8.85737 17.4644L7.90229 18.4185Z" fill="black"/>
</svg>