<svg xmlns="http://www.w3.org/2000/svg" width="24" height="24" fill="currentColor" viewBox="0 0 24 24"><path d="M19.425 5.25H16.05v-.675a2.025 2.025 0 0 0-2.025-2.025h-4.05A2.025 2.025 0 0 0 7.95 4.575v.675H4.575a.675.675 0 0 0 0 1.35h.675v12.15A1.35 1.35 0 0 0 6.6 20.1h10.8a1.35 1.35 0 0 0 1.35-1.35V6.6h.675a.675.675 0 0 0 0-1.35M10.65 15.375a.675.675 0 0 1-1.35 0v-5.4a.675.675 0 0 1 1.35 0zm4.05 0a.675.675 0 0 1-1.35 0v-5.4a.675.675 0 0 1 1.35 0zm0-10.125H9.3v-.675a.675.675 0 0 1 .675-.675h4.05a.675.675 0 0 1 .675.675z"/></svg>