<svg xmlns="http://www.w3.org/2000/svg" fill="currentColor" viewBox="0 0 24 24" width="24" height="24"><path d="M18.75 4.069H5.25A1.18 1.18 0 0 0 4.069 5.25v13.5a1.18 1.18 0 0 0 1.181 1.181h13.5a1.18 1.18 0 0 0 1.181-1.181V5.25a1.18 1.18 0 0 0-1.181-1.181M5.25 5.081h13.5a.17.17 0 0 1 .169.169v8.944H16.33a1.17 1.17 0 0 0-.834.346l-1.63 1.629a.17.17 0 0 1-.119.05h-3.491a.17.17 0 0 1-.119-.05L8.508 14.54a1.18 1.18 0 0 0-.835-.346H5.084V5.25a.17.17 0 0 1 .169-.169zm13.5 13.838H5.25a.17.17 0 0 1-.169-.169v-3.544H7.67a.17.17 0 0 1 .119.05l1.629 1.629a1.18 1.18 0 0 0 .835.346h3.491a1.17 1.17 0 0 0 .834-.346l1.63-1.629a.17.17 0 0 1 .119-.05h2.589v3.544a.17.17 0 0 1-.169.169zm-9.808-8.586a.506.506 0 0 1 0-.716l2.7-2.7a.506.506 0 0 1 .716 0l2.7 2.7a.506.506 0 1 1-.716.716l-1.836-1.835v5.527a.507.507 0 0 1-1.013 0V8.498l-1.836 1.835a.506.506 0 0 1-.715 0"/></svg>