<svg xmlns="http://www.w3.org/2000/svg" fill="currentColor" viewBox="0 0 24 24" width="24" height="24"><path d="M18.75 3.9H5.25A1.35 1.35 0 0 0 3.9 5.25v13.5a1.35 1.35 0 0 0 1.35 1.35h13.5a1.35 1.35 0 0 0 1.35-1.35V5.25a1.35 1.35 0 0 0-1.35-1.35M8.822 9.497l2.7-2.7a.675.675 0 0 1 .955 0l2.7 2.7a.675.675 0 0 1-.955.955l-1.547-1.548v5.121a.675.675 0 0 1-1.35 0V8.904l-1.547 1.548a.675.675 0 0 1-.955-.955zm9.928 9.253H5.25v-3.375h2.421L9.3 17.004a1.34 1.34 0 0 0 .954.396h3.491a1.34 1.34 0 0 0 .954-.396l1.629-1.629h2.421z"/></svg>