<svg xmlns="http://www.w3.org/2000/svg" fill="currentColor" viewBox="0 0 24 24" width="24" height="24"><path d="M16.05 13.856h2.7a1.18 1.18 0 0 0 1.181-1.181v-2.7a1.18 1.18 0 0 0-1.181-1.181h-2.7a1.18 1.18 0 0 0-1.181 1.181v.844H8.456V7.782H9.3a1.18 1.18 0 0 0 1.181-1.181v-2.7A1.18 1.18 0 0 0 9.3 2.72H6.6a1.18 1.18 0 0 0-1.181 1.181v2.7A1.18 1.18 0 0 0 6.6 7.782h.844v9.619A1.856 1.856 0 0 0 9.3 19.257h5.569v.844a1.18 1.18 0 0 0 1.181 1.181h2.7a1.18 1.18 0 0 0 1.181-1.181v-2.7a1.18 1.18 0 0 0-1.181-1.181h-2.7a1.18 1.18 0 0 0-1.181 1.181v.844H9.3a.844.844 0 0 1-.844-.844v-5.569h6.413v.844a1.18 1.18 0 0 0 1.181 1.181zM6.431 6.6V3.9a.17.17 0 0 1 .169-.169h2.7a.17.17 0 0 1 .169.169v2.7a.17.17 0 0 1-.169.169H6.6a.17.17 0 0 1-.169-.169m9.45 10.8a.17.17 0 0 1 .169-.169h2.7a.17.17 0 0 1 .169.169v2.7a.17.17 0 0 1-.169.169h-2.7a.17.17 0 0 1-.169-.169zm0-7.425a.17.17 0 0 1 .169-.169h2.7a.17.17 0 0 1 .169.169v2.7a.17.17 0 0 1-.169.169h-2.7a.17.17 0 0 1-.169-.169z"/></svg>