<svg xmlns="http://www.w3.org/2000/svg" fill="currentColor" viewBox="0 0 24 24" width="24" height="24"><path d="M13.35 9.3V7.95H12a.675.675 0 0 0-.675.675v6.75a.675.675 0 0 0 .675.675h1.35V14.7a1.35 1.35 0 0 1 1.35-1.35h4.05a1.35 1.35 0 0 1 1.35 1.35v4.05a1.35 1.35 0 0 1-1.35 1.35H14.7a1.35 1.35 0 0 1-1.35-1.35V17.4H12a2.025 2.025 0 0 1-2.025-2.025v-2.7h-2.7v.675a1.35 1.35 0 0 1-1.35 1.35h-2.7a1.35 1.35 0 0 1-1.35-1.35v-2.7a1.35 1.35 0 0 1 1.35-1.35h2.7a1.35 1.35 0 0 1 1.35 1.35v.675h2.7v-2.7A2.025 2.025 0 0 1 12 6.6h1.35V5.25A1.35 1.35 0 0 1 14.7 3.9h4.05a1.35 1.35 0 0 1 1.35 1.35V9.3a1.35 1.35 0 0 1-1.35 1.35H14.7a1.35 1.35 0 0 1-1.35-1.35"/></svg>