<svg xmlns="http://www.w3.org/2000/svg" width="24" height="24" fill="currentColor" viewBox="0 0 24 24"><path d="M18.75 3.9H5.25A1.35 1.35 0 0 0 3.9 5.25v13.5a1.35 1.35 0 0 0 1.35 1.35h13.5a1.35 1.35 0 0 0 1.35-1.35V5.25a1.35 1.35 0 0 0-1.35-1.35m-4.725 2.025h2.7a1.35 1.35 0 0 1 1.35 1.35v2.7a.675.675 0 0 1-1.35 0v-2.7h-2.7a.675.675 0 0 1 0-1.35m-4.05 12.15h-2.7a1.35 1.35 0 0 1-1.35-1.35v-2.7a.675.675 0 0 1 1.35 0v2.7h2.7a.675.675 0 0 1 0 1.35m8.578.478a.675.675 0 0 1-.955 0l-.477-.478h-3.096a.675.675 0 0 1 0-1.35h1.746L7.275 8.229v1.746a.675.675 0 0 1-1.35 0V6.879l-.478-.477a.675.675 0 0 1 .955-.955l.675.675 11.475 11.475a.675.675 0 0 1 0 .955z"/></svg>