<svg xmlns="http://www.w3.org/2000/svg" width="24" height="24" fill="currentColor" viewBox="0 0 24 24"><path d="M10.144 4.575a.506.506 0 0 1 .506-.506h2.7a.507.507 0 0 1 0 1.013h-2.7a.506.506 0 0 1-.506-.506zm3.206 14.344h-2.7a.506.506 0 0 0 0 1.012h2.7a.506.506 0 0 0 0-1.012m5.4-14.85h-2.025a.507.507 0 0 0 0 1.013h2.025a.17.17 0 0 1 .169.169v2.025a.506.506 0 0 0 1.012 0V5.251A1.18 1.18 0 0 0 18.75 4.07zm.675 6.075a.506.506 0 0 0-.506.506v2.7a.506.506 0 0 0 1.012 0v-2.7a.506.506 0 0 0-.506-.506m-14.85 3.712a.506.506 0 0 0 .506-.506v-2.7a.507.507 0 0 0-1.013 0v2.7a.506.506 0 0 0 .506.506zm2.7 5.063H5.25a.17.17 0 0 1-.169-.169v-2.025a.507.507 0 0 0-1.013 0v2.025a1.18 1.18 0 0 0 1.181 1.181h2.025a.506.506 0 0 0 0-1.012zM5.625 4.238a.506.506 0 0 0-.749.675l13.5 14.85a.506.506 0 0 0 .749-.682z"/></svg>