<svg xmlns="http://www.w3.org/2000/svg" width="24" height="24" fill="currentColor" viewBox="0 0 24 24"><path d="m18.436 10.336-8.1 8.1a3.375 3.375 0 0 1-4.772-4.772l8.1-8.1a3.375 3.375 0 0 1 4.772 4.772" opacity=".2"/><path d="M17.959 6.041a2.7 2.7 0 0 0-3.813-.005l-.983 1.03a.675.675 0 0 1-.977-.928l.989-1.037.011-.011a4.05 4.05 0 0 1 5.727 5.727l-.011.011-1.037.989a.675.675 0 0 1-.928-.977l1.03-.983a2.7 2.7 0 0 0-.008-3.816m-7.123 10.894-.983 1.03a2.7 2.7 0 0 1-3.818-3.818l1.03-.983a.675.675 0 0 0-.928-.977l-1.04.989-.011.011a4.05 4.05 0 0 0 5.727 5.727l.011-.011.989-1.037a.675.675 0 1 0-.977-.928zm8.589-2.909H17.4a.675.675 0 0 0 0 1.35h2.025a.675.675 0 0 0 0-1.35m-14.85-4.05H6.6a.675.675 0 0 0 0-1.35H4.575a.675.675 0 0 0 0 1.35m10.125 6.75a.675.675 0 0 0-.675.675v2.025a.675.675 0 0 0 1.35 0v-2.025a.675.675 0 0 0-.675-.675m-5.4-9.45a.675.675 0 0 0 .675-.675V4.576a.675.675 0 0 0-1.35 0v2.025a.675.675 0 0 0 .675.675"/></svg>