<svg xmlns="http://www.w3.org/2000/svg" width="24" height="24" fill="currentColor" viewBox="0 0 24 24"><path d="M19.425 9.3v9.45a.675.675 0 0 1-.675.675H5.25a.675.675 0 0 1-.675-.675V9.3a.675.675 0 0 1 .675-.675h13.5a.675.675 0 0 1 .675.675" opacity=".2"/><path d="M18.75 7.95H9.3V5.925a2.7 2.7 0 0 1 2.7-2.7c1.297 0 2.464.928 2.713 2.159a.675.675 0 0 0 1.323-.268c-.381-1.878-2.079-3.241-4.037-3.241a4.054 4.054 0 0 0-4.05 4.05V7.95h-2.7a1.35 1.35 0 0 0-1.35 1.35v9.45a1.35 1.35 0 0 0 1.35 1.35h13.5a1.35 1.35 0 0 0 1.35-1.35V9.3a1.35 1.35 0 0 0-1.35-1.35zm0 10.8H5.25V9.3h13.5zm-5.738-4.725A1.013 1.013 0 1 1 12 13.013a1.013 1.013 0 0 1 1.012 1.013z"/></svg>