<svg xmlns="http://www.w3.org/2000/svg" width="24" height="24" fill="currentColor" viewBox="0 0 24 24"><path d="M5.625 4.238a.506.506 0 0 0-.749.675l2.338 2.574c-.801.126-1.744.463-2.704 1.238a1.18 1.18 0 0 0-.095 1.757l4.194 4.194-3.717 3.713a.506.506 0 1 0 .716.715l3.717-3.717 4.194 4.198a1.18 1.18 0 0 0 .835.347h.084a1.18 1.18 0 0 0 .86-.467 7.2 7.2 0 0 0 1.05-1.927l2.025 2.232a.506.506 0 1 0 .748-.682zm8.864 14.615a.17.17 0 0 1-.253.017L5.131 9.766a.17.17 0 0 1 .015-.253c1.112-.898 2.18-1.088 2.935-1.072l7.463 8.21c-.183.897-.666 1.684-1.056 2.202zm6.448-8.996-3.767 3.778a.506.506 0 1 1-.717-.715l3.767-3.779a.17.17 0 0 0 0-.24l-5.12-5.12a.17.17 0 0 0-.239 0L11.383 7.27a.506.506 0 0 1-.717-.715l3.479-3.49a1.18 1.18 0 0 1 1.671 0l5.121 5.121a1.18 1.18 0 0 1 0 1.67z"/></svg>