<svg viewBox="0 0 24 24" fill="none" xmlns="http://www.w3.org/2000/svg" width="24" height="24">
<path fill-rule="evenodd" clip-rule="evenodd" d="M21.1992 12.7499L19.0737 14.686L16.5656 11.9324L18.691 9.9964C18.7253 9.96523 18.7706 9.94827 18.8169 9.95043C18.8632 9.95266 18.9068 9.97368 18.938 10.0079L21.2107 12.503C21.2419 12.5373 21.2588 12.5826 21.2567 12.6289C21.2545 12.6752 21.2334 12.7187 21.1992 12.7499ZM18.3345 15.3594L16.692 16.8554L17.3647 17.5954L21.8726 13.4892C22.1029 13.2794 22.241 12.9867 22.2555 12.6754C22.27 12.3642 22.1597 12.0599 21.95 11.8296L19.6772 9.33452C19.4675 9.10421 19.1747 8.96621 18.8635 8.95162C18.5523 8.93711 18.248 9.04736 18.0176 9.25712L13.5139 13.3595L14.1866 14.0995L15.8263 12.6058L18.3345 15.3594Z" fill="black"/>
<path fill-rule="evenodd" clip-rule="evenodd" d="M15.2898 6.26247L13.1644 8.19849L10.6562 5.44497L12.7817 3.50895C12.816 3.47778 12.8613 3.46081 12.9076 3.46297C12.9539 3.46513 12.9974 3.48624 13.0286 3.52046L15.3013 6.01553C15.3325 6.04977 15.3494 6.09514 15.3473 6.14141C15.3452 6.18771 15.3241 6.23122 15.2898 6.26247ZM15.9632 7.00175C16.1935 6.79191 16.3316 6.49921 16.3461 6.18799C16.3606 5.87679 16.2504 5.57244 16.0406 5.34213L13.7679 2.84706C13.5581 2.61677 13.2654 2.47868 12.9541 2.46416C12.6429 2.44965 12.3386 2.5599 12.1083 2.76967L7.61081 6.86635L8.2835 7.60628L9.91697 6.11837L12.4251 8.87189L10.789 10.3622L11.4617 11.1022L15.9632 7.00175Z" fill="black"/>
<path fill-rule="evenodd" clip-rule="evenodd" d="M4.87411 5.34098C4.87995 5.34818 4.88603 5.35526 4.89234 5.36221L18.1892 19.9872L18.2138 20.0164C18.373 20.2206 18.3498 20.5162 18.155 20.6933C17.9507 20.8789 17.6347 20.8643 17.449 20.6601L15.8609 18.9131C12.917 21.0905 8.72421 20.8047 6.17914 18.0526C5.52949 17.3502 5.02434 16.5263 4.69464 15.6282C4.36495 14.73 4.21646 13.775 4.2574 12.8191C4.29838 11.8634 4.52777 10.9251 4.93295 10.0585C5.2451 9.39101 5.65718 8.77604 6.15327 8.23429L3.94898 5.80948C3.7635 5.60514 3.77893 5.28909 3.98316 5.10343C4.18749 4.91795 4.50355 4.93337 4.68921 5.13761L4.87411 5.34098ZM6.8293 8.97796C6.42927 9.42819 6.09554 9.93487 5.8395 10.4824C5.49016 11.2295 5.29235 12.0383 5.25706 12.8623C5.22177 13.6863 5.35006 14.5092 5.63427 15.2835C5.9185 16.0577 6.35316 16.768 6.91316 17.3734C9.07552 19.7119 12.6403 19.9889 15.1843 18.1688L12.6483 15.3791C12.2607 15.5765 11.825 15.6724 11.3831 15.6518C10.7143 15.6205 10.0853 15.3249 9.63446 14.8299C9.18359 14.3349 8.94777 13.6812 8.97885 13.0124C8.99954 12.5688 9.13653 12.1423 9.37083 11.7738L6.8293 8.97796ZM9.97766 13.0589C9.9857 12.8864 10.0229 12.7181 10.0862 12.5607L11.933 14.5922C11.7712 14.6399 11.6012 14.661 11.4297 14.653C11.0258 14.6341 10.646 14.4554 10.3737 14.1565C10.1015 13.8576 9.95894 13.4628 9.97766 13.0589Z" fill="black"/>
</svg>