<svg viewBox="0 0 24 24" fill="none" xmlns="http://www.w3.org/2000/svg" width="24" height="24">
<path d="M12.287 20.1C16.7605 20.1 20.387 16.4735 20.387 12C20.387 7.52649 16.7605 3.89999 12.287 3.89999C7.81351 3.89999 4.18701 7.52649 4.18701 12C4.18701 16.4735 7.81351 20.1 12.287 20.1Z" fill="black" fill-opacity="0.2"/>
<path d="M11.7249 8.20703C11.919 8.07897 12.183 8.10066 12.3538 8.27148L15.054 10.9717C15.2489 11.1669 15.2491 11.4835 15.054 11.6787C14.8588 11.8739 14.5423 11.8737 14.347 11.6787L12.0003 9.33203L9.65362 11.6787C9.45838 11.8738 9.14183 11.8738 8.94659 11.6787C8.75136 11.4835 8.75142 11.1669 8.94659 10.9717L11.6468 8.27148L11.7249 8.20703Z" fill="black"/>
<path d="M11.5001 15.375V8.625C11.5001 8.34886 11.724 8.125 12.0001 8.125C12.2762 8.125 12.5001 8.34886 12.5001 8.625V15.375C12.5001 15.6511 12.2762 15.875 12.0001 15.875C11.724 15.875 11.5001 15.6511 11.5001 15.375Z" fill="black"/>
<path d="M19.0685 5.28738L19.0677 6.97093C19.0676 7.10346 19.0155 7.23073 18.9218 7.32445C18.828 7.41822 18.7003 7.47088 18.5677 7.47088L16.9441 7.47119C16.6682 7.47116 16.4444 7.24715 16.4442 6.97124C16.4442 6.6952 16.6679 6.47052 16.9439 6.47036L17.3826 6.47008C16.5799 5.76187 15.6349 5.22586 14.6057 4.90195C13.2094 4.46249 11.7165 4.43116 10.3029 4.81136L9.94127 4.91835C8.15103 5.49446 6.63287 6.71567 5.68797 8.35201C4.68021 10.0975 4.40663 12.1723 4.92818 14.1192C5.44986 16.0661 6.72418 17.726 8.46977 18.7338C10.2154 19.7416 12.29 20.0153 14.237 19.4936L14.5008 19.4179C15.8099 19.0178 16.9904 18.275 17.9181 17.2637C18.9076 16.1849 19.5685 14.8455 19.8228 13.4039C19.8708 13.1321 20.1298 12.9503 20.4016 12.9981C20.6735 13.046 20.8556 13.3058 20.8076 13.5778C20.5202 15.207 19.7735 16.7205 18.6552 17.9397C17.5371 19.1587 16.0939 20.0328 14.4958 20.4595L14.0808 20.5596C12.0003 21.0079 9.82167 20.6689 7.96982 19.5998C5.99455 18.4593 4.55258 16.5811 3.96225 14.378C3.37206 12.175 3.68167 9.82723 4.82204 7.85206C5.89122 6.00045 7.60887 4.61821 9.6346 3.96626L10.044 3.84543C11.6414 3.41597 13.3283 3.45133 14.9062 3.94794C16.0794 4.31722 17.1557 4.93064 18.0679 5.7415L18.0677 5.28764C18.0676 5.01161 18.2916 4.78788 18.5676 4.78769C18.8437 4.78768 19.0685 5.01124 19.0685 5.28738Z" fill="black"/>
</svg>