<svg xmlns="http://www.w3.org/2000/svg" fill="currentColor" viewBox="0 0 24 24" width="24" height="24"><path d="M21.281 12.675v5.4a1.18 1.18 0 0 1-1.181 1.181H3.9a1.18 1.18 0 0 1-1.181-1.181v-5.4A1.18 1.18 0 0 1 3.9 11.494h4.05a.507.507 0 0 1 0 1.013H3.9a.17.17 0 0 0-.169.169v5.4a.17.17 0 0 0 .169.169h16.2a.17.17 0 0 0 .169-.169v-5.4a.17.17 0 0 0-.169-.169h-4.05a.506.506 0 0 1 0-1.012h4.05a1.18 1.18 0 0 1 1.181 1.181zM8.307 7.633l3.186-3.185V12a.507.507 0 0 0 1.013 0V4.448l3.186 3.185a.506.506 0 0 0 .716-.716l-4.05-4.05a.506.506 0 0 0-.716 0l-4.05 4.05a.506.506 0 0 0 .716.716zm9.599 7.742a.844.844 0 1 0-.844.844.844.844 0 0 0 .844-.844"/></svg>