<svg xmlns="http://www.w3.org/2000/svg" fill="currentColor" viewBox="0 0 24 24" width="24" height="24"><path d="M19.425 5.25v13.5H4.575V5.25a1.35 1.35 0 0 1 1.35-1.35h12.15a1.35 1.35 0 0 1 1.35 1.35" opacity=".2"/><path d="M20.1 13.35v5.4a.675.675 0 0 1-.675.675H4.575a.675.675 0 0 1-.675-.675v-5.4a.675.675 0 0 1 1.35 0v4.725h13.5V13.35a.675.675 0 0 1 1.35 0M9.103 7.753l2.222-2.223v7.821a.675.675 0 0 0 1.35 0V5.53l2.222 2.223a.675.675 0 0 0 .955-.955l-3.375-3.375a.675.675 0 0 0-.955 0L8.147 6.798a.675.675 0 0 0 .955.955z"/></svg>