<svg xmlns="http://www.w3.org/2000/svg" width="24" height="24" fill="currentColor" viewBox="0 0 24 24"><path d="M12.675 10.313a4.388 4.388 0 1 1-4.388-4.388 4.39 4.39 0 0 1 4.388 4.388" opacity=".2"/><path d="M11.093 14.525a5.063 5.063 0 1 0-5.611 0 8.1 8.1 0 0 0-3.984 3.182.675.675 0 1 0 1.131.737 6.75 6.75 0 0 1 11.318 0 .675.675 0 0 0 1.131-.737 8.1 8.1 0 0 0-3.984-3.182zm-6.518-4.212a3.713 3.713 0 1 1 3.713 3.713 3.717 3.717 0 0 1-3.713-3.713m17.731 8.328a.675.675 0 0 1-.934-.197 6.74 6.74 0 0 0-5.659-3.069.675.675 0 0 1 0-1.35 3.713 3.713 0 1 0-1.379-7.161.675.675 0 1 1-.501-1.253 5.063 5.063 0 0 1 4.685 8.913 8.1 8.1 0 0 1 3.984 3.182.675.675 0 0 1-.197.934z"/></svg>