<svg xmlns="http://www.w3.org/2000/svg" fill="currentColor" viewBox="0 0 24 24" width="24" height="24"><path d="M10.65 15.375a2.7 2.7 0 1 1-2.7-2.7 2.7 2.7 0 0 1 2.7 2.7M7.95 3.9a2.7 2.7 0 1 0 2.7 2.7 2.7 2.7 0 0 0-2.7-2.7m8.1 8.775a2.7 2.7 0 1 0 2.7 2.7 2.7 2.7 0 0 0-2.7-2.7m0-3.375a2.7 2.7 0 1 0-2.7-2.7 2.7 2.7 0 0 0 2.7 2.7" opacity=".2"/><path d="M3.495 11.865a.675.675 0 0 0 .945-.135 4.388 4.388 0 0 1 7.02 0 .675.675 0 0 0 .945.134.7.7 0 0 0 .134-.134 4.388 4.388 0 0 1 7.02 0 .675.675 0 0 0 1.08-.811 5.7 5.7 0 0 0-2.311-1.829 3.375 3.375 0 1 0-4.551 0 5.7 5.7 0 0 0-1.772 1.207 5.7 5.7 0 0 0-1.772-1.207 3.375 3.375 0 1 0-4.551 0 5.7 5.7 0 0 0-2.322 1.83.675.675 0 0 0 .135.945m12.555-7.29A2.025 2.025 0 1 1 14.025 6.6a2.025 2.025 0 0 1 2.025-2.025m-8.1 0A2.025 2.025 0 1 1 5.925 6.6 2.025 2.025 0 0 1 7.95 4.575m10.378 13.29a3.375 3.375 0 1 0-4.551 0 5.7 5.7 0 0 0-1.772 1.207 5.7 5.7 0 0 0-1.772-1.207 3.375 3.375 0 1 0-4.551 0 5.7 5.7 0 0 0-2.322 1.83.675.675 0 1 0 1.08.81 4.388 4.388 0 0 1 7.02 0 .675.675 0 0 0 .945.134.7.7 0 0 0 .134-.134 4.388 4.388 0 0 1 7.02 0 .675.675 0 0 0 1.08-.811 5.7 5.7 0 0 0-2.311-1.829M7.95 13.35a2.025 2.025 0 1 1-2.025 2.025A2.025 2.025 0 0 1 7.95 13.35m8.1 0a2.025 2.025 0 1 1-2.025 2.025 2.025 2.025 0 0 1 2.025-2.025"/></svg>