<svg xmlns="http://www.w3.org/2000/svg" fill="currentColor" viewBox="0 0 24 24" width="24" height="24"><path d="M20.64 19.694a.675.675 0 0 1-.54 1.081H3.9a.675.675 0 0 1-.54-1.08 5.7 5.7 0 0 1 2.312-1.83 3.375 3.375 0 1 1 4.55 0 5.7 5.7 0 0 1 1.772 1.206 5.7 5.7 0 0 1 1.772-1.206 3.375 3.375 0 1 1 4.55 0 5.7 5.7 0 0 1 2.324 1.829M3.495 11.865a.675.675 0 0 0 .945-.135 4.388 4.388 0 0 1 7.02 0 .675.675 0 0 0 1.08 0 4.388 4.388 0 0 1 7.02 0 .675.675 0 0 0 1.08-.811 5.7 5.7 0 0 0-2.312-1.829 3.375 3.375 0 1 0-4.55 0 5.7 5.7 0 0 0-1.772 1.206 5.7 5.7 0 0 0-1.772-1.206 3.375 3.375 0 1 0-4.55 0 5.7 5.7 0 0 0-2.324 1.83.675.675 0 0 0 .135.945"/></svg>