<svg xmlns="http://www.w3.org/2000/svg" fill="currentColor" viewBox="0 0 24 24" width="24" height="24"><path d="M3.596 11.73a.506.506 0 0 0 .709-.101 4.556 4.556 0 0 1 7.29 0 .506.506 0 0 0 .709.1.5.5 0 0 0 .1-.1 4.556 4.556 0 0 1 7.29 0 .506.506 0 0 0 .81-.608 5.55 5.55 0 0 0-2.505-1.878 3.206 3.206 0 1 0-3.9 0A5.5 5.5 0 0 0 12 10.541a5.5 5.5 0 0 0-2.1-1.398 3.206 3.206 0 1 0-3.9 0 5.54 5.54 0 0 0-2.505 1.879.506.506 0 0 0 .101.709zM16.05 4.406A2.194 2.194 0 1 1 13.856 6.6a2.194 2.194 0 0 1 2.194-2.194m-8.1 0A2.194 2.194 0 1 1 5.756 6.6 2.194 2.194 0 0 1 7.95 4.406M18 17.917a3.206 3.206 0 1 0-3.9 0 5.5 5.5 0 0 0-2.1 1.398 5.5 5.5 0 0 0-2.1-1.398 3.206 3.206 0 1 0-3.9 0 5.54 5.54 0 0 0-2.505 1.879.506.506 0 1 0 .81.608 4.556 4.556 0 0 1 7.29 0 .506.506 0 0 0 .709.1.5.5 0 0 0 .1-.1 4.556 4.556 0 0 1 7.29 0 .506.506 0 0 0 .81-.608A5.55 5.55 0 0 0 18 17.918zM7.95 13.181a2.194 2.194 0 1 1-2.194 2.194 2.194 2.194 0 0 1 2.194-2.194m8.1 0a2.194 2.194 0 1 1-2.194 2.194 2.194 2.194 0 0 1 2.194-2.194"/></svg>