<svg xmlns="http://www.w3.org/2000/svg" width="24" height="24" fill="currentColor" viewBox="0 0 24 24"><path d="M10.701 14.568a4.894 4.894 0 1 0-4.826 0 7.92 7.92 0 0 0-4.235 3.231.506.506 0 0 0 .848.553 6.92 6.92 0 0 1 11.6 0 .506.506 0 0 0 .844-.553 7.92 7.92 0 0 0-4.231-3.231m-6.294-4.255a3.881 3.881 0 1 1 3.881 3.881 3.886 3.886 0 0 1-3.881-3.881m17.803 8.184a.506.506 0 0 1-.7-.147 6.9 6.9 0 0 0-5.797-3.144.506.506 0 0 1 0-1.012 3.881 3.881 0 1 0-1.441-7.487.506.506 0 1 1-.376-.94 4.894 4.894 0 0 1 4.231 8.8 7.92 7.92 0 0 1 4.235 3.231.506.506 0 0 1-.151.699z"/></svg>