<svg xmlns="http://www.w3.org/2000/svg" fill="currentColor" viewBox="0 0 24 24" width="24" height="24"><path d="M21.754 13.755a.506.506 0 0 1-.709-.101 4.52 4.52 0 0 0-3.645-1.822.506.506 0 0 1 0-1.012 2.194 2.194 0 1 0-2.125-2.742.506.506 0 0 1-.98-.253 3.206 3.206 0 1 1 5.055 3.344 5.54 5.54 0 0 1 2.505 1.879.506.506 0 0 1-.101.709zm-4.591 5.417a.506.506 0 0 1-.185.692.5.5 0 0 1-.253.068.5.5 0 0 1-.439-.253 4.978 4.978 0 0 0-8.574 0 .506.506 0 1 1-.876-.506 5.9 5.9 0 0 1 3.054-2.57 3.881 3.881 0 1 1 4.227 0 5.9 5.9 0 0 1 3.045 2.569zM12 16.219a2.869 2.869 0 1 0-2.869-2.869A2.87 2.87 0 0 0 12 16.219m-4.894-4.894a.506.506 0 0 0-.506-.506 2.194 2.194 0 1 1 2.125-2.743.506.506 0 1 0 .98-.253 3.206 3.206 0 1 0-5.055 3.344 5.54 5.54 0 0 0-2.505 1.88.506.506 0 1 0 .81.607A4.52 4.52 0 0 1 6.6 11.832a.506.506 0 0 0 .506-.506z"/></svg>