<svg xmlns="http://www.w3.org/2000/svg" fill="currentColor" viewBox="0 0 24 24" width="24" height="24"><path d="M19.425 4.744H4.575a1.18 1.18 0 0 0-1.181 1.181V17.4a1.18 1.18 0 0 0 1.181 1.181h1.519V20.1a.507.507 0 0 0 1.013 0v-1.519h9.788V20.1a.506.506 0 0 0 1.012 0v-1.519h1.519a1.18 1.18 0 0 0 1.181-1.181V5.925a1.18 1.18 0 0 0-1.181-1.181zm0 12.825H4.575a.17.17 0 0 1-.169-.169V5.925a.17.17 0 0 1 .169-.169h14.85a.17.17 0 0 1 .169.169v5.569h-1.721a3.881 3.881 0 1 0 0 1.013h1.721v4.894a.17.17 0 0 1-.169.169zm-4.334-6.075a1.181 1.181 0 1 0 0 1.012h1.758a2.869 2.869 0 1 1 0-1.012z"/></svg>