<svg viewBox="0 0 24 24" fill="none" xmlns="http://www.w3.org/2000/svg" width="24" height="24">
<path d="M14.0114 15.9996C13.6994 15.9996 13.4594 15.9156 13.2914 15.7476C13.1234 15.5796 13.0394 15.3396 13.0394 15.0276V8.51164C13.0394 8.19964 13.1234 7.95964 13.2914 7.79164C13.4594 7.62364 13.6994 7.53964 14.0114 7.53964H16.9154C17.5154 7.53964 18.0274 7.62764 18.4514 7.80364C18.8754 7.97964 19.1954 8.23164 19.4114 8.55964C19.6354 8.88764 19.7474 9.27964 19.7474 9.73564C19.7474 10.2396 19.6034 10.6676 19.3154 11.0196C19.0274 11.3716 18.6314 11.6076 18.1274 11.7276V11.5356C18.7114 11.6396 19.1634 11.8716 19.4834 12.2316C19.8114 12.5836 19.9754 13.0436 19.9754 13.6116C19.9754 14.3636 19.7154 14.9516 19.1954 15.3756C18.6754 15.7916 17.9594 15.9996 17.0474 15.9996H14.0114ZM14.8154 14.6196H16.7954C17.2754 14.6196 17.6274 14.5276 17.8514 14.3436C18.0754 14.1516 18.1874 13.8716 18.1874 13.5036C18.1874 13.1356 18.0754 12.8596 17.8514 12.6756C17.6274 12.4916 17.2754 12.3996 16.7954 12.3996H14.8154V14.6196ZM14.8154 11.0196H16.5914C17.0554 11.0196 17.3994 10.9316 17.6234 10.7556C17.8474 10.5796 17.9594 10.3156 17.9594 9.96364C17.9594 9.61964 17.8474 9.35964 17.6234 9.18364C17.3994 9.00764 17.0554 8.91964 16.5914 8.91964H14.8154V11.0196Z" fill="black"/>
<path d="M7.83669 16.1076C7.58069 16.1076 7.36869 16.0516 7.20069 15.9396C7.04069 15.8196 6.90869 15.6396 6.80469 15.3996L3.78069 8.67964C3.66869 8.43964 3.63669 8.22764 3.68469 8.04364C3.73269 7.85164 3.83269 7.70364 3.98469 7.59964C4.13669 7.48764 4.32069 7.43164 4.53669 7.43164C4.80869 7.43164 5.01669 7.49564 5.16069 7.62364C5.30469 7.74364 5.42469 7.92364 5.52069 8.16364L8.17269 14.2956H7.57269L10.2247 8.15164C10.3287 7.91164 10.4527 7.73164 10.5967 7.61164C10.7407 7.49164 10.9407 7.43164 11.1967 7.43164C11.4127 7.43164 11.5887 7.48764 11.7247 7.59964C11.8687 7.70364 11.9567 7.85164 11.9887 8.04364C12.0287 8.22764 11.9967 8.43964 11.8927 8.67964L8.86869 15.3996C8.75669 15.6396 8.62069 15.8196 8.46069 15.9396C8.30869 16.0516 8.10069 16.1076 7.83669 16.1076Z" fill="black"/>
</svg>