<svg viewBox="0 0 24 24" fill="none" xmlns="http://www.w3.org/2000/svg" width="24" height="24">
<path d="M19.6001 5.9248C19.6 5.82837 19.5217 5.75021 19.4253 5.75H4.57471C4.47821 5.75011 4.40001 5.82831 4.3999 5.9248V18.0752C4.40001 18.1717 4.47821 18.2499 4.57471 18.25H19.4253C19.5217 18.2498 19.6 18.1716 19.6001 18.0752V5.9248ZM20.6001 18.0752C20.6 18.7239 20.074 19.2498 19.4253 19.25H4.57471C3.92593 19.2499 3.40001 18.724 3.3999 18.0752V5.9248C3.40001 5.27602 3.92593 4.75011 4.57471 4.75H19.4253C20.074 4.75021 20.6 5.27609 20.6001 5.9248V18.0752Z" fill="black"/>
<path d="M6.9375 9.13135C7.40349 9.13135 7.78125 8.75359 7.78125 8.2876C7.78125 7.82161 7.40349 7.44385 6.9375 7.44385C6.47151 7.44385 6.09375 7.82161 6.09375 8.2876C6.09375 8.75359 6.47151 9.13135 6.9375 9.13135Z" fill="black"/>
<path d="M10.3125 9.13135C10.7785 9.13135 11.1562 8.75359 11.1562 8.2876C11.1562 7.82161 10.7785 7.44385 10.3125 7.44385C9.84651 7.44385 9.46875 7.82161 9.46875 8.2876C9.46875 8.75359 9.84651 9.13135 10.3125 9.13135Z" fill="black"/>
<path d="M13.4071 16.4907C13.1731 16.4907 12.9931 16.4277 12.8671 16.3017C12.7411 16.1757 12.6781 15.9957 12.6781 15.7617V10.8747C12.6781 10.6407 12.7411 10.4607 12.8671 10.3347C12.9931 10.2087 13.1731 10.1457 13.4071 10.1457H15.5851C16.0351 10.1457 16.4191 10.2117 16.7371 10.3437C17.0551 10.4757 17.2951 10.6647 17.4571 10.9107C17.6251 11.1567 17.7091 11.4507 17.7091 11.7927C17.7091 12.1707 17.6011 12.4917 17.3851 12.7557C17.1691 13.0197 16.8721 13.1967 16.4941 13.2867V13.1427C16.9321 13.2207 17.2711 13.3947 17.5111 13.6647C17.7571 13.9287 17.8801 14.2737 17.8801 14.6997C17.8801 15.2637 17.6851 15.7047 17.2951 16.0227C16.9051 16.3347 16.3681 16.4907 15.6841 16.4907H13.4071ZM14.0101 15.4557H15.4951C15.8551 15.4557 16.1191 15.3867 16.2871 15.2487C16.4551 15.1047 16.5391 14.8947 16.5391 14.6187C16.5391 14.3427 16.4551 14.1357 16.2871 13.9977C16.1191 13.8597 15.8551 13.7907 15.4951 13.7907H14.0101V15.4557ZM14.0101 12.7557H15.3421C15.6901 12.7557 15.9481 12.6897 16.1161 12.5577C16.2841 12.4257 16.3681 12.2277 16.3681 11.9637C16.3681 11.7057 16.2841 11.5107 16.1161 11.3787C15.9481 11.2467 15.6901 11.1807 15.3421 11.1807H14.0101V12.7557Z" fill="black"/>
<path d="M8.776 16.5717C8.584 16.5717 8.425 16.5297 8.299 16.4457C8.179 16.3557 8.08 16.2207 8.002 16.0407L5.734 11.0007C5.65 10.8207 5.626 10.6617 5.662 10.5237C5.698 10.3797 5.773 10.2687 5.887 10.1907C6.001 10.1067 6.139 10.0647 6.301 10.0647C6.505 10.0647 6.661 10.1127 6.769 10.2087C6.877 10.2987 6.967 10.4337 7.039 10.6137L9.028 15.2127H8.578L10.567 10.6047C10.645 10.4247 10.738 10.2897 10.846 10.1997C10.954 10.1097 11.104 10.0647 11.296 10.0647C11.458 10.0647 11.59 10.1067 11.692 10.1907C11.8 10.2687 11.866 10.3797 11.89 10.5237C11.92 10.6617 11.896 10.8207 11.818 11.0007L9.55 16.0407C9.466 16.2207 9.364 16.3557 9.244 16.4457C9.13 16.5297 8.974 16.5717 8.776 16.5717Z" fill="black"/>
</svg>