<svg viewBox="0 0 24 24" fill="none" xmlns="http://www.w3.org/2000/svg" width="24" height="24">
<path d="M19.4258 4.75C20.0742 4.75047 20.6005 5.27625 20.6006 5.9248V18.0752C20.6005 18.7237 20.0742 19.2495 19.4258 19.25H4.5752C3.92642 19.2499 3.39952 18.724 3.39941 18.0752V5.9248C3.39952 5.27602 3.92642 4.75011 4.5752 4.75H19.4258ZM11.3145 10.0645C11.0866 10.0645 10.9092 10.1178 10.7832 10.2256C10.6572 10.3276 10.549 10.4843 10.459 10.6943L8.87402 14.3672L7.29102 10.7031C7.20102 10.4931 7.0928 10.3336 6.9668 10.2256C6.84679 10.1178 6.66375 10.0645 6.41797 10.0645C6.21998 10.0645 6.05484 10.112 5.92285 10.208C5.79097 10.298 5.70692 10.4269 5.6709 10.5947C5.6349 10.7627 5.66474 10.9521 5.76074 11.1621L7.93945 15.9678C8.03543 16.1777 8.15208 16.3308 8.29004 16.4268C8.43397 16.5227 8.61981 16.5712 8.84766 16.5713C9.07566 16.5713 9.25946 16.5228 9.39746 16.4268C9.53527 16.3307 9.64935 16.1776 9.73926 15.9678L11.9258 11.1621C12.0218 10.9521 12.0516 10.7627 12.0156 10.5947C11.9856 10.427 11.9081 10.2979 11.7822 10.208C11.6563 10.1121 11.5003 10.0645 11.3145 10.0645ZM13.6201 10.1445C13.3381 10.1445 13.1217 10.2201 12.9717 10.3701C12.8277 10.5141 12.7559 10.724 12.7559 11V15.6348C12.7559 15.9108 12.8277 16.1244 12.9717 16.2744C13.1217 16.4183 13.3382 16.4902 13.6201 16.4902H15.9053C16.5953 16.4902 17.1392 16.3307 17.5352 16.0127C17.9368 15.6888 18.1376 15.248 18.1377 14.6904C18.1377 14.2704 18.0173 13.9253 17.7773 13.6553C17.5905 13.4397 17.3404 13.2865 17.0273 13.1934C17.2775 13.0898 17.4828 12.9381 17.6426 12.7373C17.8585 12.4734 17.9668 12.1551 17.9668 11.7832C17.9668 11.4532 17.8828 11.1649 17.7148 10.9189C17.5468 10.6729 17.3006 10.4836 16.9766 10.3516C16.6586 10.2136 16.2713 10.1445 15.8154 10.1445H13.6201ZM15.6807 13.8799C15.9866 13.8799 16.2087 13.9368 16.3467 14.0508C16.4907 14.1648 16.5625 14.3392 16.5625 14.5732C16.5625 14.807 16.4905 14.9836 16.3467 15.1035C16.2087 15.2175 15.9867 15.2754 15.6807 15.2754H14.3398V13.8799H15.6807ZM15.5186 11.3604C15.8186 11.3604 16.0378 11.4145 16.1758 11.5225C16.3196 11.6244 16.3916 11.7861 16.3916 12.0078C16.3916 12.2298 16.3197 12.3949 16.1758 12.5029C16.0378 12.6109 15.8186 12.665 15.5186 12.665H14.3398V11.3604H15.5186ZM6.9375 7.44434C6.47151 7.44434 6.09375 7.8221 6.09375 8.28809C6.09401 8.75385 6.47167 9.13184 6.9375 9.13184C7.40333 9.13184 7.78099 8.75385 7.78125 8.28809C7.78125 7.8221 7.40349 7.44434 6.9375 7.44434ZM10.3125 7.44434C9.84651 7.44434 9.46875 7.8221 9.46875 8.28809C9.46901 8.75385 9.84667 9.13184 10.3125 9.13184C10.7783 9.13184 11.156 8.75385 11.1562 8.28809C11.1562 7.8221 10.7785 7.44434 10.3125 7.44434Z" fill="black"/>
</svg>