<svg xmlns="http://www.w3.org/2000/svg" width="24" height="24" fill="currentColor" viewBox="0 0 24 24"><path d="M20.497 8.081q-.114 2.464-3.469 6.738-3.47 4.47-5.873 4.469-1.487.001-2.515-2.724-.686-2.502-1.373-4.999-.763-2.728-1.64-2.728-.189 0-1.334.796l-.8-1.024q1.258-1.095 2.479-2.193 1.676-1.44 2.515-1.517 1.981-.189 2.441 2.687c.328 2.072.559 3.36.685 3.865q.572 2.574 1.259 2.573.531 0 1.6-1.664 1.067-1.668 1.144-2.539.151-1.438-1.144-1.436c-.407 0-.827.085-1.259.265q1.26-4.053 4.804-3.938c1.752.049 2.579 1.175 2.478 3.369"/></svg>