<svg xmlns="http://www.w3.org/2000/svg" width="24" height="24" fill="currentColor" viewBox="0 0 24 24"><path d="M21.928 13.547a.675.675 0 0 1-.955.955l-1.547-1.548-1.547 1.548a.675.675 0 0 1-.955-.955L18.472 12l-1.548-1.547a.675.675 0 0 1 .955-.955l1.547 1.548 1.547-1.548a.675.675 0 0 1 .955.955L20.38 12zM6.263 7.95H3.901a1.35 1.35 0 0 0-1.35 1.35v5.4a1.35 1.35 0 0 0 1.35 1.35h2.362a.34.34 0 0 0 .338-.338V8.287a.34.34 0 0 0-.338-.338zm8.197-4.569a.675.675 0 0 0-.844-.014L8.084 7.67a.34.34 0 0 0-.133.266v8.127a.34.34 0 0 0 .131.266l5.532 4.303a.675.675 0 0 0 .759.047.7.7 0 0 0 .33-.606V3.92a.7.7 0 0 0-.246-.54z"/></svg>