<svg xmlns="http://www.w3.org/2000/svg" width="24" height="24" fill="currentColor" viewBox="0 0 24 24"><path d="M7.95 8.625v6.75H3.9a.675.675 0 0 1-.675-.675V9.3a.675.675 0 0 1 .675-.675z" opacity=".2"/><path d="M14.321 3.293a.68.68 0 0 0-.71.074L7.718 7.949H3.9a1.35 1.35 0 0 0-1.35 1.35v5.4a1.35 1.35 0 0 0 1.35 1.35h3.818l5.893 4.582a.675.675 0 0 0 1.089-.532v-16.2a.68.68 0 0 0-.379-.607zM3.9 9.3h3.375v5.4H3.9zm9.45 9.42-4.725-3.676V8.958l4.725-3.677zm8.578-5.172a.675.675 0 0 1-.955.955l-1.547-1.548-1.547 1.548a.675.675 0 0 1-.955-.955l1.548-1.547-1.548-1.547a.675.675 0 0 1 .955-.955l1.547 1.548 1.547-1.548a.675.675 0 0 1 .955.955l-1.548 1.547z"/></svg>