<svg xmlns="http://www.w3.org/2000/svg" width="24" height="24" fill="currentColor" viewBox="0 0 24 24"><path d="M14.7 3.921v16.153a.7.7 0 0 1-.33.606.675.675 0 0 1-.759-.047L8.079 16.33a.34.34 0 0 1-.128-.266V7.937a.34.34 0 0 1 .131-.266l5.532-4.303a.675.675 0 0 1 .844.014.7.7 0 0 1 .243.54zM6.262 7.95H3.9A1.35 1.35 0 0 0 2.55 9.3v5.4a1.35 1.35 0 0 0 1.35 1.35h2.362a.34.34 0 0 0 .338-.338V8.287a.34.34 0 0 0-.338-.338zm10.696 1.758a.675.675 0 0 0-.061.953 2.025 2.025 0 0 1 0 2.676.675.675 0 1 0 1.013.893 3.375 3.375 0 0 0 0-4.462.675.675 0 0 0-.954-.061zm3.45-2.208a.675.675 0 1 0-1.006.899 5.4 5.4 0 0 1 0 7.201.675.675 0 1 0 1.006.899 6.75 6.75 0 0 0 0-8.999"/></svg>