<svg xmlns="http://www.w3.org/2000/svg" width="24" height="24" fill="currentColor" viewBox="0 0 24 24"><path d="M20.1 7.95v9.45a.675.675 0 0 1-.675.675h-13.5a1.35 1.35 0 0 1-1.35-1.35v-10.8a1.35 1.35 0 0 0 1.35 1.35h13.5a.675.675 0 0 1 .675.675" opacity=".2"/><path d="M19.425 6.6h-13.5a.675.675 0 0 1 0-1.35H17.4a.675.675 0 0 0 0-1.35H5.925A2.025 2.025 0 0 0 3.9 5.925v10.8a2.025 2.025 0 0 0 2.025 2.025h13.5a1.35 1.35 0 0 0 1.35-1.35V7.95a1.35 1.35 0 0 0-1.35-1.35m0 10.8h-13.5a.675.675 0 0 1-.675-.675V7.834a2 2 0 0 0 .675.116h13.5zm-4.05-5.063a1.013 1.013 0 1 1 1.012 1.012 1.013 1.013 0 0 1-1.012-1.013z"/></svg>