<svg xmlns="http://www.w3.org/2000/svg" width="24" height="24" fill="currentColor" viewBox="0 0 24 24"><path d="M19.379 19.425H4.62c-1.065 0-1.733-1.115-1.216-2.017l7.379-12.814c.532-.928 1.9-.928 2.432 0l7.379 12.814c.517.903-.151 2.017-1.216 2.017z" opacity=".2"/><path d="M21.18 17.07 13.801 4.256a2.09 2.09 0 0 0-3.603 0L2.819 17.07a1.98 1.98 0 0 0 0 2.001A2.06 2.06 0 0 0 4.62 20.1h14.757a2.06 2.06 0 0 0 1.8-1.029 1.98 1.98 0 0 0 .002-2.001zm-1.17 1.326a.72.72 0 0 1-.631.354H4.622a.72.72 0 0 1-.631-.354.64.64 0 0 1 0-.651L11.37 4.931a.738.738 0 0 1 1.266 0l7.379 12.814a.64.64 0 0 1-.003.651zm-8.685-5.046V9.975a.675.675 0 0 1 1.35 0v3.375a.675.675 0 0 1-1.35 0m1.688 3.037a1.013 1.013 0 1 1-1.012-1.012 1.013 1.013 0 0 1 1.012 1.013z"/></svg>