<svg xmlns="http://www.w3.org/2000/svg" width="24" height="24" fill="currentColor" viewBox="0 0 24 24"><path d="M21.034 17.154 13.655 4.34a1.92 1.92 0 0 0-3.309 0L2.967 17.154a1.82 1.82 0 0 0 0 1.833 1.89 1.89 0 0 0 1.655.944h14.757a1.89 1.89 0 0 0 1.654-.944 1.82 1.82 0 0 0 .002-1.833zm-.878 1.326a.88.88 0 0 1-.777.439H4.622a.88.88 0 0 1-.777-.439.8.8 0 0 1 0-.82l7.379-12.814a.907.907 0 0 1 1.554 0l7.379 12.814a.8.8 0 0 1-.001.82m-8.662-5.13V9.975a.507.507 0 0 1 1.013 0v3.375a.506.506 0 0 1-1.012 0zm1.35 3.037a.844.844 0 1 1-.844-.844.844.844 0 0 1 .844.844"/></svg>