<svg xmlns="http://www.w3.org/2000/svg" width="24" height="24" fill="currentColor" viewBox="0 0 24 24"><path d="m21.245 12.487-2.7-6.75a.506.506 0 0 0-.579-.306l-5.46 1.213V4.575a.507.507 0 0 0-1.013 0v2.294L5.815 8.135a.5.5 0 0 0-.36.306l-2.7 6.75a.5.5 0 0 0-.036.184c0 1.844 1.967 2.531 3.206 2.531s3.206-.687 3.206-2.531a.5.5 0 0 0-.036-.188L6.616 8.991l4.878-1.084V18.92H9.975a.506.506 0 0 0 0 1.012h4.05a.506.506 0 0 0 0-1.012h-1.519V7.682l4.743-1.054-2.344 5.86a.5.5 0 0 0-.036.188c0 1.844 1.967 2.531 3.206 2.531s3.206-.687 3.206-2.531a.5.5 0 0 0-.036-.188zm-15.32 4.407a3.1 3.1 0 0 1-1.475-.385c-.453-.264-.688-.606-.716-1.044l2.194-5.477 2.194 5.477c-.082 1.163-1.641 1.428-2.196 1.428zm12.15-2.7a3.1 3.1 0 0 1-1.475-.385c-.453-.264-.688-.606-.716-1.044l2.194-5.477 2.194 5.477c-.082 1.163-1.641 1.428-2.196 1.428z"/></svg>