<svg xmlns="http://www.w3.org/2000/svg" width="24" height="24" fill="currentColor" viewBox="0 0 24 24"><path d="m21.402 12.422-2.7-6.75a.675.675 0 0 0-.627-.422.7.7 0 0 0-.146.018l-5.254 1.164V4.576a.675.675 0 0 0-1.35 0v2.158L5.779 7.968a.68.68 0 0 0-.481.404l-2.7 6.75a.7.7 0 0 0-.048.253c0 1.967 2.071 2.7 3.375 2.7s3.375-.733 3.375-2.7a.7.7 0 0 0-.048-.253l-2.406-6.01 4.479-.993V18.75h-1.35a.675.675 0 0 0 0 1.35h4.05a.675.675 0 0 0 0-1.35h-1.35V7.817l4.303-.955-2.23 5.56a.7.7 0 0 0-.048.253c0 1.967 2.071 2.7 3.375 2.7s3.375-.733 3.375-2.7a.7.7 0 0 0-.048-.253m-13.5 2.953h-3.95l1.973-4.933zm8.205-2.7 1.968-4.933 1.973 4.933z"/></svg>