<svg xmlns="http://www.w3.org/2000/svg" width="24" height="24" fill="currentColor" viewBox="0 0 24 24"><path d="M12 3.9a8.1 8.1 0 0 0-7.012 12.156l-1.052 3.155a.675.675 0 0 0 .854.854l3.155-1.052a8.1 8.1 0 1 0 4.056-15.112zm2.025 12.825a6.75 6.75 0 0 1-6.75-6.75 2.7 2.7 0 0 1 2.7-2.7l1.35 2.7-1.04 1.558a4.07 4.07 0 0 0 2.181 2.181l1.558-1.04 2.7 1.35a2.7 2.7 0 0 1-2.7 2.7z" opacity=".2"/><path d="m17.027 13.421-2.7-1.35a.68.68 0 0 0-.675.042l-1.239.827a3.4 3.4 0 0 1-1.35-1.35l.827-1.239a.68.68 0 0 0 .042-.675l-1.35-2.7a.68.68 0 0 0-.607-.375A3.375 3.375 0 0 0 6.6 9.976a7.433 7.433 0 0 0 7.425 7.425 3.375 3.375 0 0 0 3.375-3.375.68.68 0 0 0-.373-.604zm-3.002 2.629A6.08 6.08 0 0 1 7.95 9.975a2.025 2.025 0 0 1 1.628-1.986l.969 1.941-.824 1.227a.68.68 0 0 0-.062.634 4.76 4.76 0 0 0 2.544 2.544.68.68 0 0 0 .64-.056l1.234-.822 1.941.969a2.025 2.025 0 0 1-1.993 1.625zM12 3.225a8.775 8.775 0 0 0-7.747 12.899l-.958 2.873a1.35 1.35 0 0 0 1.708 1.708l2.873-.958A8.775 8.775 0 1 0 12 3.225m0 16.2a7.4 7.4 0 0 1-3.718-.996.68.68 0 0 0-.552-.057l-3.156 1.053 1.052-3.156a.68.68 0 0 0-.056-.552 7.425 7.425 0 1 1 6.429 3.707z"/></svg>