<svg viewBox="0 0 24 24" fill="none" xmlns="http://www.w3.org/2000/svg" width="24" height="24">
<path d="M19.7009 16.1323C19.0609 16.1323 18.5009 16.0083 18.0209 15.7603C17.5489 15.5043 17.1849 15.1443 16.9289 14.6803C16.6729 14.2163 16.5449 13.6683 16.5449 13.0363C16.5449 12.5643 16.6169 12.1403 16.7609 11.7643C16.9049 11.3883 17.1129 11.0683 17.3849 10.8043C17.6649 10.5403 18.0009 10.3403 18.3929 10.2043C18.7849 10.0603 19.2209 9.98828 19.7009 9.98828C19.9489 9.98828 20.2129 10.0203 20.4929 10.0843C20.7729 10.1403 21.0489 10.2403 21.3209 10.3843C21.4809 10.4563 21.5889 10.5603 21.6449 10.6963C21.7089 10.8243 21.7329 10.9603 21.7169 11.1043C21.7009 11.2403 21.6489 11.3643 21.5609 11.4763C21.4809 11.5803 21.3769 11.6523 21.2489 11.6923C21.1209 11.7243 20.9769 11.7003 20.8169 11.6203C20.6649 11.5323 20.5049 11.4683 20.3369 11.4283C20.1769 11.3883 20.0249 11.3683 19.8809 11.3683C19.6409 11.3683 19.4289 11.4083 19.2449 11.4883C19.0609 11.5603 18.9049 11.6683 18.7769 11.8123C18.6569 11.9483 18.5609 12.1203 18.4889 12.3283C18.4249 12.5363 18.3929 12.7763 18.3929 13.0483C18.3929 13.5763 18.5209 13.9923 18.7769 14.2963C19.0409 14.5923 19.4089 14.7403 19.8809 14.7403C20.0249 14.7403 20.1769 14.7243 20.3369 14.6923C20.4969 14.6523 20.6569 14.5883 20.8169 14.5003C20.9769 14.4203 21.1209 14.4003 21.2489 14.4403C21.3769 14.4803 21.4769 14.5563 21.5489 14.6683C21.6289 14.7723 21.6729 14.8963 21.6809 15.0403C21.6969 15.1763 21.6729 15.3123 21.6089 15.4483C21.5529 15.5763 21.4489 15.6763 21.2969 15.7483C21.0249 15.8843 20.7529 15.9803 20.4809 16.0363C20.2089 16.1003 19.9489 16.1323 19.7009 16.1323Z" fill="black"/>
<path d="M13.1443 16.1326C12.6723 16.1326 12.2523 16.0166 11.8843 15.7846C11.5243 15.5446 11.2843 15.2286 11.1643 14.8366L11.2963 14.4406V15.1846C11.2963 15.4806 11.2203 15.7086 11.0683 15.8686C10.9163 16.0286 10.6963 16.1086 10.4083 16.1086C10.1203 16.1086 9.8963 16.0286 9.7363 15.8686C9.5843 15.7086 9.5083 15.4806 9.5083 15.1846V8.35662C9.5083 8.05262 9.5843 7.82462 9.7363 7.67262C9.8963 7.51262 10.1243 7.43262 10.4203 7.43262C10.7083 7.43262 10.9283 7.51262 11.0803 7.67262C11.2403 7.82462 11.3203 8.05262 11.3203 8.35662V11.2006H11.1763C11.3043 10.8406 11.5483 10.5486 11.9083 10.3246C12.2683 10.1006 12.6803 9.98862 13.1443 9.98862C13.6643 9.98862 14.1163 10.1126 14.5003 10.3606C14.8843 10.6086 15.1843 10.9606 15.4003 11.4166C15.6163 11.8726 15.7243 12.4166 15.7243 13.0486C15.7243 13.6806 15.6163 14.2286 15.4003 14.6926C15.1843 15.1566 14.8803 15.5126 14.4883 15.7606C14.1043 16.0086 13.6563 16.1326 13.1443 16.1326ZM12.6043 14.7766C12.8603 14.7766 13.0843 14.7126 13.2763 14.5846C13.4763 14.4566 13.6283 14.2686 13.7323 14.0206C13.8443 13.7646 13.9003 13.4406 13.9003 13.0486C13.9003 12.4646 13.7803 12.0366 13.5403 11.7646C13.3003 11.4846 12.9883 11.3446 12.6043 11.3446C12.3483 11.3446 12.1203 11.4046 11.9203 11.5246C11.7283 11.6446 11.5763 11.8326 11.4643 12.0886C11.3523 12.3366 11.2963 12.6566 11.2963 13.0486C11.2963 13.6326 11.4163 14.0686 11.6563 14.3566C11.8963 14.6366 12.2123 14.7766 12.6043 14.7766Z" fill="black"/>
<path d="M4.82094 16.1323C4.38894 16.1323 4.00094 16.0483 3.65694 15.8803C3.31294 15.7123 3.04494 15.4843 2.85294 15.1963C2.66094 14.9083 2.56494 14.5843 2.56494 14.2243C2.56494 13.7923 2.67694 13.4523 2.90094 13.2043C3.12494 12.9483 3.48894 12.7683 3.99294 12.6643C4.49694 12.5523 5.16494 12.4963 5.99694 12.4963H6.63294V13.4323H6.00894C5.60094 13.4323 5.26894 13.4563 5.01294 13.5043C4.76494 13.5443 4.58494 13.6163 4.47294 13.7203C4.36894 13.8243 4.31694 13.9683 4.31694 14.1523C4.31694 14.3763 4.39294 14.5603 4.54494 14.7043C4.70494 14.8483 4.93294 14.9203 5.22894 14.9203C5.46094 14.9203 5.66494 14.8683 5.84094 14.7643C6.02494 14.6523 6.16894 14.5043 6.27294 14.3203C6.37694 14.1283 6.42894 13.9123 6.42894 13.6723V12.2923C6.42894 11.9403 6.34894 11.6923 6.18894 11.5483C6.02894 11.3963 5.75694 11.3203 5.37294 11.3203C5.15694 11.3203 4.92094 11.3483 4.66494 11.4043C4.41694 11.4523 4.14094 11.5363 3.83694 11.6563C3.66094 11.7363 3.50494 11.7563 3.36894 11.7163C3.23294 11.6683 3.12894 11.5883 3.05694 11.4763C2.98494 11.3563 2.94894 11.2283 2.94894 11.0923C2.94894 10.9483 2.98894 10.8123 3.06894 10.6843C3.14894 10.5483 3.28094 10.4483 3.46494 10.3843C3.84094 10.2323 4.19294 10.1283 4.52094 10.0723C4.85694 10.0163 5.16494 9.98828 5.44494 9.98828C6.06094 9.98828 6.56494 10.0803 6.95694 10.2643C7.35694 10.4403 7.65694 10.7163 7.85694 11.0923C8.05694 11.4603 8.15694 11.9363 8.15694 12.5203V15.1843C8.15694 15.4803 8.08494 15.7083 7.94094 15.8683C7.79694 16.0283 7.58894 16.1083 7.31694 16.1083C7.04494 16.1083 6.83294 16.0283 6.68094 15.8683C6.53694 15.7083 6.46494 15.4803 6.46494 15.1843V14.7403L6.54894 14.8123C6.50094 15.0843 6.39694 15.3203 6.23694 15.5203C6.08494 15.7123 5.88894 15.8643 5.64894 15.9763C5.40894 16.0803 5.13294 16.1323 4.82094 16.1323Z" fill="black"/>
</svg>