<svg viewBox="0 0 24 24" fill="none" xmlns="http://www.w3.org/2000/svg" width="24" height="24">
<path d="M4.75 9H15.25C15.6642 9 16 9.33579 16 9.75V12H4V9.75C4 9.33579 4.33579 9 4.75 9Z" fill="black" fill-opacity="0.2"/>
<path d="M8.75 6H19.25C19.6642 6 20 6.33579 20 6.75V9H8V6.75C8 6.33579 8.33579 6 8.75 6Z" fill="black" fill-opacity="0.2"/>
<path d="M15.5 12.5H4.5V18.25C4.5 18.3881 4.61193 18.5 4.75 18.5H15.25C15.3881 18.5 15.5 18.3881 15.5 18.25V12.5ZM19.5 15.25V9.5H17.75C17.4739 9.5 17.25 9.27614 17.25 9C17.25 8.72386 17.4739 8.5 17.75 8.5H19.5V6.75C19.5 6.61193 19.3881 6.5 19.25 6.5H8.75C8.61193 6.5 8.5 6.61193 8.5 6.75V7.21875C8.5 7.49489 8.27614 7.71875 8 7.71875C7.72386 7.71875 7.5 7.49489 7.5 7.21875V6.75C7.5 6.05964 8.05964 5.5 8.75 5.5H19.25C19.9404 5.5 20.5 6.05964 20.5 6.75V15.25C20.5 15.9404 19.9404 16.5 19.25 16.5H17.75C17.4739 16.5 17.25 16.2761 17.25 16C17.25 15.7239 17.4739 15.5 17.75 15.5H19.25C19.3881 15.5 19.5 15.3881 19.5 15.25ZM15.5 9.75C15.5 9.61193 15.3881 9.5 15.25 9.5H4.75C4.61193 9.5 4.5 9.61193 4.5 9.75V11.5H15.5V9.75ZM16.5 18.25C16.5 18.9404 15.9404 19.5 15.25 19.5H4.75C4.05964 19.5 3.5 18.9404 3.5 18.25V9.75C3.5 9.05964 4.05964 8.5 4.75 8.5H15.25C15.9404 8.5 16.5 9.05964 16.5 9.75V18.25Z" fill="black"/>
</svg>