<svg viewBox="0 0 24 24" fill="none" xmlns="http://www.w3.org/2000/svg" width="24" height="24">
<path d="M16 18.25V12H4V18.25C4 18.6642 4.33579 19 4.75 19H15.25C15.6642 19 16 18.6642 16 18.25Z" fill="black"/>
<path d="M15.3252 12.6748H4.6748V18.25C4.6748 18.2914 4.70858 18.3252 4.75 18.3252H15.25C15.2914 18.3252 15.3252 18.2914 15.3252 18.25V12.6748ZM19.3252 15.25V9.6748H17.75C17.3772 9.6748 17.0752 9.37279 17.0752 9C17.0752 8.62721 17.3772 8.3252 17.75 8.3252H19.3252V6.75C19.3252 6.70858 19.2914 6.6748 19.25 6.6748H8.75C8.70858 6.6748 8.6748 6.70858 8.6748 6.75V7.21875C8.6748 7.59154 8.37279 7.89355 8 7.89355C7.62721 7.89355 7.3252 7.59154 7.3252 7.21875V6.75C7.3252 5.96299 7.96299 5.3252 8.75 5.3252H19.25C20.037 5.3252 20.6748 5.96299 20.6748 6.75V15.25C20.6748 16.037 20.037 16.6748 19.25 16.6748H17.75C17.3772 16.6748 17.0752 16.3728 17.0752 16C17.0752 15.6272 17.3772 15.3252 17.75 15.3252H19.25C19.2914 15.3252 19.3252 15.2914 19.3252 15.25ZM15.3252 9.75C15.3252 9.70858 15.2914 9.6748 15.25 9.6748H4.75C4.70858 9.6748 4.6748 9.70858 4.6748 9.75V11.3252H15.3252V9.75ZM16.6748 18.25C16.6748 19.037 16.037 19.6748 15.25 19.6748H4.75C3.96299 19.6748 3.3252 19.037 3.3252 18.25V9.75C3.3252 8.96299 3.96299 8.3252 4.75 8.3252H15.25C16.037 8.3252 16.6748 8.96299 16.6748 9.75V18.25Z" fill="black"/>
</svg>