<svg xmlns="http://www.w3.org/2000/svg" fill="currentColor" viewBox="0 0 24 24" width="24" height="24"><path d="M20.1 9.3a5.4 5.4 0 0 1-8.011 4.725l-4.73 5.484A2.029 2.029 0 0 1 4.49 16.64l5.484-4.73a5.4 5.4 0 0 1 6.75-7.618L13.349 7.95l.478 2.222 2.222.478 3.658-3.375a5.4 5.4 0 0 1 .392 2.025z" opacity=".2"/><path d="M20.333 7.022a.675.675 0 0 0-1.083-.243l-3.4 3.138-1.454-.312-.312-1.454 3.138-3.4a.675.675 0 0 0-.243-1.083 6.075 6.075 0 0 0-8.353 5.633 6.1 6.1 0 0 0 .506 2.442l-5.08 4.393q-.019.016-.036.033a2.7 2.7 0 0 0 3.819 3.819l.033-.035 4.392-5.082a6.075 6.075 0 0 0 8.517-5.569 6 6 0 0 0-.442-2.278zM14.7 14.025a4.74 4.74 0 0 1-2.284-.591.675.675 0 0 0-.837.149l-4.717 5.462a1.35 1.35 0 0 1-1.909-1.909l5.458-4.716a.675.675 0 0 0 .149-.838 4.725 4.725 0 0 1 4.924-6.945L12.851 7.49a.68.68 0 0 0-.164.599l.478 2.222a.68.68 0 0 0 .518.518l2.223.478a.68.68 0 0 0 .599-.164l2.853-2.633a4.73 4.73 0 0 1-4.66 5.513z"/></svg>