<svg xmlns="http://www.w3.org/2000/svg" fill="currentColor" viewBox="0 0 24 24" width="24" height="24"><path d="M20.177 7.085a.506.506 0 0 0-.813-.182l-3.465 3.198-1.646-.354-.354-1.646 3.198-3.465a.506.506 0 0 0-.182-.813 5.906 5.906 0 0 0-7.574 7.964l-5.18 4.472-.027.025a2.532 2.532 0 0 0 3.58 3.582l.025-.027 4.472-5.18a5.906 5.906 0 0 0 7.964-7.574zM14.7 14.194a4.9 4.9 0 0 1-2.363-.609.506.506 0 0 0-.629.112l-4.723 5.465a1.519 1.519 0 0 1-2.147-2.147l5.464-4.72a.506.506 0 0 0 .111-.632 4.894 4.894 0 0 1 5.4-7.132l-2.837 3.076a.5.5 0 0 0-.122.45l.477 2.223a.51.51 0 0 0 .389.389l2.223.477a.5.5 0 0 0 .45-.122l3.073-2.837a4.9 4.9 0 0 1-4.766 6.008z"/></svg>