<svg viewBox="0 0 24 24" fill="none" xmlns="http://www.w3.org/2000/svg" width="24" height="24">
<g clip-path="url(#clip0_1007_1559)">
<path d="M17.9999 6.09102C17.9999 6.04088 17.9593 6.00024 17.9091 6.0002H6.09076C6.04063 6.00024 5.99999 6.04088 5.99994 6.09102V17.9094C5.99999 17.9595 6.04063 18.0001 6.09076 18.0002H17.9091C17.9593 18.0001 17.9999 17.9595 17.9999 17.9094V6.09102ZM18.9999 17.9094C18.9999 18.5118 18.5115 19.0001 17.9091 19.0002H6.09076C5.48834 19.0001 4.99999 18.5118 4.99994 17.9094V6.09102C4.99999 5.48859 5.48834 5.00024 6.09076 5.0002H17.9091C18.5115 5.00024 18.9999 5.48859 18.9999 6.09102V17.9094Z" fill="black"/>
<path d="M10.3178 9.63644C10.3177 9.25996 10.0126 8.9548 9.63613 8.9548C9.25971 8.95489 8.95458 9.26002 8.95449 9.63644C8.95449 10.0129 9.25965 10.318 9.63613 10.3181C10.0127 10.3181 10.3178 10.013 10.3178 9.63644ZM11.3178 9.63644C11.3178 10.5653 10.565 11.3181 9.63613 11.3181C8.70737 11.318 7.95449 10.5652 7.95449 9.63644C7.95458 8.70774 8.70743 7.95489 9.63613 7.9548C10.5649 7.9548 11.3177 8.70768 11.3178 9.63644Z" fill="black"/>
<path d="M15.2503 9.72697C15.3934 9.72702 15.5351 9.75523 15.6673 9.80998C15.7996 9.86483 15.9196 9.94599 16.0208 10.0473L16.0218 10.0463L18.8538 12.8793C19.0489 13.0745 19.0488 13.3911 18.8538 13.5863C18.6586 13.7815 18.3421 13.7815 18.1468 13.5863L15.3148 10.7533C15.3064 10.7451 15.2954 10.7383 15.2845 10.7338C15.2737 10.7294 15.262 10.727 15.2503 10.727C15.2384 10.727 15.2262 10.7292 15.2152 10.7338C15.2042 10.7383 15.1943 10.745 15.1859 10.7533L7.08626 18.8539C6.89103 19.049 6.57446 19.049 6.37923 18.8539C6.18399 18.6587 6.18408 18.3422 6.37923 18.1469L14.4779 10.0463C14.5792 9.94488 14.6999 9.86488 14.8324 9.80998C14.9647 9.75513 15.107 9.72697 15.2503 9.72697Z" fill="black"/>
<path d="M15.019 3.8061C14.9981 3.85661 14.9627 3.89977 14.9172 3.93015C14.8718 3.96053 14.8184 3.97675 14.7637 3.97676H9.23639C9.1817 3.9768 9.12823 3.96062 9.08274 3.93025C9.03725 3.89989 9.0018 3.85671 8.98086 3.80618C8.95993 3.75566 8.95445 3.70005 8.96513 3.64642C8.97582 3.59278 9.00217 3.54352 9.04087 3.50486L11.8045 0.74121C11.8302 0.715515 11.8607 0.69513 11.8942 0.681222C11.9278 0.667314 11.9637 0.660156 12 0.660156C12.0364 0.660156 12.0723 0.667314 12.1059 0.681222C12.1394 0.69513 12.1699 0.715515 12.1956 0.74121L14.9592 3.50486C14.9979 3.54354 15.0242 3.5928 15.0348 3.64642C15.0454 3.70004 15.0399 3.75561 15.019 3.8061Z" fill="black"/>
<path d="M15.0191 20.1938C14.9982 20.1433 14.9628 20.1001 14.9173 20.0698C14.8719 20.0394 14.8185 20.0232 14.7638 20.0231H9.2365C9.1818 20.0231 9.12833 20.0393 9.08284 20.0697C9.03735 20.1 9.0019 20.1432 8.98096 20.1937C8.96003 20.2442 8.95455 20.2998 8.96523 20.3535C8.97592 20.4071 9.00227 20.4564 9.04097 20.495L11.8046 23.2587C11.8303 23.2844 11.8608 23.3048 11.8943 23.3187C11.9279 23.3326 11.9638 23.3397 12.0001 23.3397C12.0365 23.3397 12.0724 23.3326 12.106 23.3187C12.1395 23.3048 12.17 23.2844 12.1957 23.2587L14.9593 20.495C14.998 20.4564 15.0243 20.4071 15.0349 20.3535C15.0455 20.2999 15.04 20.2443 15.0191 20.1938Z" fill="black"/>
<path d="M3.81758 8.98115C3.86808 9.00206 3.91125 9.03747 3.94163 9.08292C3.972 9.12836 3.98822 9.18179 3.98823 9.23645V14.7638C3.98828 14.8184 3.97209 14.8719 3.94173 14.9174C3.91136 14.9629 3.86818 14.9984 3.81766 15.0193C3.76713 15.0402 3.71153 15.0457 3.65789 15.035C3.60425 15.0243 3.55499 14.998 3.51634 14.9593L0.752685 12.1956C0.726989 12.17 0.706605 12.1395 0.692697 12.1059C0.678789 12.0724 0.671631 12.0364 0.671631 12.0001C0.671631 11.9638 0.678789 11.9278 0.692697 11.8943C0.706605 11.8607 0.726989 11.8302 0.752685 11.8046L3.51634 9.04092C3.55501 9.00228 3.60427 8.97598 3.65789 8.96534C3.71151 8.9547 3.76708 8.9602 3.81758 8.98115Z" fill="black"/>
<path d="M20.1901 8.98105C20.1396 9.00196 20.0965 9.03737 20.0661 9.08281C20.0357 9.12826 20.0195 9.18168 20.0195 9.23634V14.7637C20.0194 14.8183 20.0356 14.8718 20.066 14.9173C20.0964 14.9628 20.1395 14.9982 20.1901 15.0192C20.2406 15.0401 20.2962 15.0456 20.3498 15.0349C20.4035 15.0242 20.4527 14.9979 20.4914 14.9592L23.255 12.1955C23.2807 12.1699 23.3011 12.1394 23.315 12.1058C23.3289 12.0723 23.3361 12.0363 23.3361 12C23.3361 11.9637 23.3289 11.9277 23.315 11.8942C23.3011 11.8606 23.2807 11.8301 23.255 11.8045L20.4914 9.04082C20.4527 9.00218 20.4034 8.97588 20.3498 8.96524C20.2962 8.9546 20.2406 8.9601 20.1901 8.98105Z" fill="black"/>
</g>
<defs>
<clipPath id="clip0_1007_1559">
<rect width="24" height="24" fill="white"/>
</clipPath>
</defs>
</svg>