<svg viewBox="0 0 24 24" fill="none" xmlns="http://www.w3.org/2000/svg" width="24" height="24">
<path d="M17.4166 5.5H6.58332C6.296 5.5 6.02045 5.61413 5.81728 5.8173C5.61412 6.02046 5.49998 6.29601 5.49998 6.58333V17.4167C5.49998 17.704 5.61412 17.9795 5.81728 18.1827C6.02045 18.3859 6.296 18.5 6.58332 18.5H17.4166C17.704 18.5 17.9795 18.3859 18.1827 18.1827C18.3858 17.9795 18.5 17.704 18.5 17.4167V6.58333C18.5 6.29601 18.3858 6.02046 18.1827 5.8173C17.9795 5.61413 17.704 5.5 17.4166 5.5ZM6.58332 6.58333H17.4166V11.8226L15.7449 10.1502C15.5418 9.9472 15.2663 9.83316 14.9791 9.83316C14.692 9.83316 14.4165 9.9472 14.2134 10.1502L6.94691 17.4167H6.58332V6.58333ZM8.74998 9.83333C8.74998 9.61907 8.81352 9.40962 8.93256 9.23146C9.05159 9.05331 9.22079 8.91446 9.41874 8.83246C9.6167 8.75047 9.83452 8.72901 10.0447 8.77081C10.2548 8.81262 10.4478 8.91579 10.5993 9.0673C10.7509 9.21881 10.854 9.41184 10.8958 9.62198C10.9376 9.83213 10.9162 10.05 10.8342 10.2479C10.7522 10.4459 10.6133 10.6151 10.4352 10.7341C10.257 10.8531 10.0476 10.9167 9.83332 10.9167C9.546 10.9167 9.27045 10.8025 9.06728 10.5994C8.86412 10.3962 8.74998 10.1206 8.74998 9.83333Z" fill="black"/>
<path d="M2.23935 6.50903C2.28985 6.52996 2.34541 6.53544 2.39902 6.52479C2.45264 6.51414 2.50189 6.48783 2.54054 6.44918L6.44894 2.54079C6.48764 2.50214 6.51401 2.45289 6.5247 2.39925C6.5354 2.34562 6.52994 2.29001 6.50901 2.23948C6.48809 2.18895 6.45264 2.14576 6.40716 2.11539C6.36168 2.08502 6.30821 2.06882 6.25352 2.06885L2.34512 2.06885C2.3088 2.06883 2.27284 2.07597 2.23928 2.08986C2.20572 2.10374 2.17523 2.12411 2.14955 2.14979C2.12387 2.17547 2.1035 2.20597 2.08961 2.23952C2.07572 2.27308 2.06858 2.30905 2.0686 2.34537L2.0686 6.25376C2.06863 6.30843 2.08486 6.36186 2.11526 6.4073C2.14565 6.45274 2.18884 6.48814 2.23935 6.50903Z" fill="black"/>
<path d="M2.23935 17.491C2.28985 17.47 2.34541 17.4646 2.39902 17.4752C2.45264 17.4859 2.50189 17.5122 2.54054 17.5508L6.44894 21.4592C6.48764 21.4979 6.51401 21.5471 6.5247 21.6007C6.5354 21.6544 6.52994 21.71 6.50901 21.7605C6.48809 21.811 6.45264 21.8542 6.40716 21.8846C6.36168 21.915 6.30821 21.9312 6.25352 21.9311H2.34512C2.3088 21.9312 2.27284 21.924 2.23928 21.9101C2.20572 21.8963 2.17523 21.8759 2.14955 21.8502C2.12387 21.8245 2.1035 21.794 2.08961 21.7605C2.07572 21.7269 2.06858 21.6909 2.0686 21.6546L2.0686 17.7462C2.06863 17.6916 2.08486 17.6381 2.11526 17.5927C2.14565 17.5473 2.18884 17.5119 2.23935 17.491Z" fill="black"/>
<path d="M21.7606 17.491C21.7101 17.47 21.6546 17.4646 21.6009 17.4752C21.5473 17.4859 21.4981 17.5122 21.4594 17.5508L17.551 21.4592C17.5123 21.4979 17.486 21.5471 17.4753 21.6007C17.4646 21.6544 17.47 21.71 17.4909 21.7605C17.5119 21.811 17.5473 21.8542 17.5928 21.8846C17.6383 21.915 17.6918 21.9312 17.7464 21.9311H21.6548C21.6912 21.9312 21.7271 21.924 21.7607 21.9101C21.7942 21.8963 21.8247 21.8759 21.8504 21.8502C21.8761 21.8245 21.8965 21.794 21.9104 21.7605C21.9242 21.7269 21.9314 21.6909 21.9314 21.6546V17.7462C21.9313 17.6916 21.9151 17.6381 21.8847 17.5927C21.8543 17.5473 21.8111 17.5119 21.7606 17.491Z" fill="black"/>
<path d="M21.7605 6.50903C21.7101 6.52996 21.6545 6.53544 21.6009 6.52479C21.5473 6.51414 21.498 6.48783 21.4594 6.44918L17.551 2.54079C17.5123 2.50214 17.4859 2.45289 17.4752 2.39925C17.4645 2.34562 17.47 2.29001 17.4909 2.23948C17.5118 2.18895 17.5473 2.14576 17.5927 2.11539C17.6382 2.08502 17.6917 2.06882 17.7464 2.06885L21.6548 2.06885C21.6911 2.06883 21.7271 2.07597 21.7606 2.08986C21.7942 2.10374 21.8247 2.12411 21.8503 2.14979C21.876 2.17547 21.8964 2.20597 21.9103 2.23952C21.9242 2.27308 21.9313 2.30905 21.9313 2.34537V6.25376C21.9313 6.30843 21.915 6.36186 21.8846 6.4073C21.8542 6.45274 21.8111 6.48814 21.7605 6.50903Z" fill="black"/>
</svg>