<svg viewBox="0 0 24 24" fill="none" xmlns="http://www.w3.org/2000/svg" width="24" height="24">
<path opacity="0.2" d="M17.9091 5.5H6.09091C5.93419 5.5 5.78389 5.56226 5.67307 5.67307C5.56226 5.78389 5.5 5.93419 5.5 6.09091V17.9091C5.5 18.0658 5.56226 18.2161 5.67307 18.3269C5.78389 18.4377 5.93419 18.5 6.09091 18.5H6.73278L14.8319 10.4001C14.8868 10.3452 14.952 10.3016 15.0237 10.2719C15.0955 10.2421 15.1723 10.2268 15.25 10.2268C15.3277 10.2268 15.4045 10.2421 15.4763 10.2719C15.548 10.3016 15.6132 10.3452 15.6681 10.4001L18.5 13.2328V6.09091C18.5 5.93419 18.4377 5.78389 18.3269 5.67307C18.2161 5.56226 18.0658 5.5 17.9091 5.5ZM9.63636 10.8182C9.40262 10.8182 9.17413 10.7489 8.97978 10.619C8.78543 10.4891 8.63396 10.3046 8.54451 10.0886C8.45506 9.87268 8.43165 9.63505 8.47725 9.4058C8.52285 9.17655 8.63541 8.96597 8.80069 8.80069C8.96597 8.63541 9.17655 8.52285 9.4058 8.47725C9.63505 8.43165 9.87268 8.45506 10.0886 8.54451C10.3046 8.63396 10.4891 8.78543 10.619 8.97978C10.7489 9.17413 10.8182 9.40262 10.8182 9.63636C10.8182 9.9498 10.6937 10.2504 10.472 10.472C10.2504 10.6937 9.9498 10.8182 9.63636 10.8182Z" fill="black"/>
<path d="M18 6.09082C17.9999 6.04068 17.9593 6.00005 17.9092 6H6.0908C6.04066 6.00005 6.00003 6.04068 5.99998 6.09082V17.9092C6.00003 17.9593 6.04067 18 6.0908 18H17.9092C17.9593 17.9999 17.9999 17.9593 18 17.9092V6.09082ZM19 17.9092C18.9999 18.5116 18.5116 18.9999 17.9092 19H6.0908C5.48838 19 5.00003 18.5116 4.99998 17.9092V6.09082C5.00003 5.4884 5.48838 5.00005 6.0908 5H17.9092C18.5116 5.00005 18.9999 5.4884 19 6.09082V17.9092Z" fill="black"/>
<path d="M10.227 9.63623C10.2269 9.30996 9.9625 9.04541 9.63621 9.04541C9.31 9.0455 9.04549 9.31002 9.04539 9.63623C9.04539 9.96252 9.30994 10.227 9.63621 10.227C9.96256 10.227 10.227 9.96258 10.227 9.63623ZM11.4087 9.63623C11.4087 10.6153 10.6153 11.4087 9.63621 11.4087C8.65724 11.4086 7.86375 10.6152 7.86375 9.63623C7.86385 8.65732 8.6573 7.86386 9.63621 7.86377C10.6152 7.86377 11.4086 8.65726 11.4087 9.63623Z" fill="black"/>
<path d="M15.2502 9.72656C15.3933 9.72661 15.535 9.75482 15.6672 9.80957C15.7995 9.86441 15.9195 9.94558 16.0207 10.0469L16.0217 10.0459L18.8537 12.8789C19.0488 13.0741 19.0487 13.3907 18.8537 13.5859C18.6585 13.7811 18.342 13.7811 18.1467 13.5859L15.3147 10.7529C15.3063 10.7447 15.2953 10.7379 15.2844 10.7334C15.2736 10.7289 15.262 10.7266 15.2502 10.7266C15.2383 10.7266 15.2261 10.7288 15.2151 10.7334C15.2041 10.7379 15.1942 10.7446 15.1858 10.7529L7.08616 18.8535C6.89093 19.0486 6.57437 19.0486 6.37913 18.8535C6.1839 18.6583 6.18399 18.3418 6.37913 18.1465L14.4778 10.0459C14.5791 9.94447 14.6998 9.86447 14.8323 9.80957C14.9646 9.75472 15.1069 9.72656 15.2502 9.72656Z" fill="black"/>
<path d="M2.23935 6.50903C2.28985 6.52996 2.34541 6.53544 2.39902 6.52479C2.45264 6.51414 2.50189 6.48783 2.54054 6.44918L6.44894 2.54079C6.48764 2.50214 6.51401 2.45289 6.5247 2.39925C6.5354 2.34562 6.52994 2.29001 6.50901 2.23948C6.48809 2.18895 6.45264 2.14576 6.40716 2.11539C6.36168 2.08502 6.30821 2.06882 6.25352 2.06885L2.34512 2.06885C2.3088 2.06883 2.27284 2.07597 2.23928 2.08986C2.20572 2.10374 2.17523 2.12411 2.14955 2.14979C2.12387 2.17547 2.1035 2.20597 2.08961 2.23952C2.07572 2.27308 2.06858 2.30905 2.0686 2.34537L2.0686 6.25376C2.06863 6.30843 2.08486 6.36186 2.11526 6.4073C2.14565 6.45274 2.18884 6.48814 2.23935 6.50903Z" fill="black"/>
<path d="M2.23935 17.491C2.28985 17.47 2.34541 17.4646 2.39902 17.4752C2.45264 17.4859 2.50189 17.5122 2.54054 17.5508L6.44894 21.4592C6.48764 21.4979 6.51401 21.5471 6.5247 21.6007C6.5354 21.6544 6.52994 21.71 6.50901 21.7605C6.48809 21.811 6.45264 21.8542 6.40716 21.8846C6.36168 21.915 6.30821 21.9312 6.25352 21.9311H2.34512C2.3088 21.9312 2.27284 21.924 2.23928 21.9101C2.20572 21.8963 2.17523 21.8759 2.14955 21.8502C2.12387 21.8245 2.1035 21.794 2.08961 21.7605C2.07572 21.7269 2.06858 21.6909 2.0686 21.6546L2.0686 17.7462C2.06863 17.6916 2.08486 17.6381 2.11526 17.5927C2.14565 17.5473 2.18884 17.5119 2.23935 17.491Z" fill="black"/>
<path d="M21.7606 17.491C21.7101 17.47 21.6546 17.4646 21.6009 17.4752C21.5473 17.4859 21.4981 17.5122 21.4594 17.5508L17.551 21.4592C17.5123 21.4979 17.486 21.5471 17.4753 21.6007C17.4646 21.6544 17.47 21.71 17.4909 21.7605C17.5119 21.811 17.5473 21.8542 17.5928 21.8846C17.6383 21.915 17.6918 21.9312 17.7464 21.9311H21.6548C21.6912 21.9312 21.7271 21.924 21.7607 21.9101C21.7942 21.8963 21.8247 21.8759 21.8504 21.8502C21.8761 21.8245 21.8965 21.794 21.9104 21.7605C21.9242 21.7269 21.9314 21.6909 21.9314 21.6546V17.7462C21.9313 17.6916 21.9151 17.6381 21.8847 17.5927C21.8543 17.5473 21.8111 17.5119 21.7606 17.491Z" fill="black"/>
<path d="M21.7605 6.50903C21.7101 6.52996 21.6545 6.53544 21.6009 6.52479C21.5473 6.51414 21.498 6.48783 21.4594 6.44918L17.551 2.54079C17.5123 2.50214 17.4859 2.45289 17.4752 2.39925C17.4645 2.34562 17.47 2.29001 17.4909 2.23948C17.5118 2.18895 17.5473 2.14576 17.5927 2.11539C17.6382 2.08502 17.6917 2.06882 17.7464 2.06885L21.6548 2.06885C21.6911 2.06883 21.7271 2.07597 21.7606 2.08986C21.7942 2.10374 21.8247 2.12411 21.8503 2.14979C21.876 2.17547 21.8964 2.20597 21.9103 2.23952C21.9242 2.27308 21.9313 2.30905 21.9313 2.34537V6.25376C21.9313 6.30843 21.915 6.36186 21.8846 6.4073C21.8542 6.45274 21.8111 6.48814 21.7605 6.50903Z" fill="black"/>
</svg>