<svg viewBox="0 0 24 24" fill="none" xmlns="http://www.w3.org/2000/svg" width="24" height="24">
<path d="M16.8999 10.6501C16.8999 7.19837 14.1017 4.40015 10.6499 4.40015C7.19812 4.40015 4.3999 7.19837 4.3999 10.6501C4.3999 14.1019 7.19812 16.9001 10.6499 16.9001C14.1017 16.9001 16.8999 14.1019 16.8999 10.6501ZM17.8999 10.6501C17.8999 14.6542 14.654 17.9001 10.6499 17.9001C6.64584 17.9001 3.3999 14.6542 3.3999 10.6501C3.3999 6.64608 6.64584 3.40015 10.6499 3.40015C14.654 3.40015 17.8999 6.64608 17.8999 10.6501Z" fill="black"/>
<path d="M15.0696 15.0696C15.2648 14.8743 15.5813 14.8743 15.7766 15.0696L20.4534 19.7463C20.6486 19.9416 20.6486 20.2581 20.4534 20.4534C20.2581 20.6486 19.9416 20.6486 19.7463 20.4534L15.0696 15.7766C14.8743 15.5813 14.8743 15.2648 15.0696 15.0696Z" fill="black"/>
<path d="M11.3794 7.91089C11.4969 7.91089 11.6126 7.93774 11.7173 7.98901L11.8179 8.04858L11.9087 8.1228C11.965 8.17644 12.0126 8.23838 12.0503 8.3064L12.0991 8.41284L12.7036 10.0544L14.3472 10.6609C14.4575 10.7017 14.5578 10.7669 14.6382 10.8513L14.7114 10.9421L14.771 11.0427C14.8224 11.1474 14.8491 11.263 14.8491 11.3806C14.8491 11.5374 14.8011 11.6904 14.7114 11.8191C14.6218 11.9477 14.4952 12.046 14.3481 12.1003L12.7046 12.7058L12.0991 14.3484C12.0448 14.4954 11.9465 14.623 11.8179 14.7126C11.6892 14.8023 11.5362 14.8503 11.3794 14.8503C11.2226 14.8503 11.0696 14.8023 10.9409 14.7126C10.8123 14.623 10.714 14.4964 10.6597 14.3494L10.0532 12.7048L8.41162 12.1003C8.26446 12.046 8.13705 11.9478 8.04736 11.8191C7.95781 11.6904 7.90967 11.5374 7.90967 11.3806C7.90971 11.2238 7.95773 11.0708 8.04736 10.9421L8.12158 10.8513C8.202 10.767 8.30133 10.7016 8.41162 10.6609L10.0532 10.0544L10.6597 8.41284L10.7085 8.3064C10.765 8.20432 10.8443 8.11589 10.9409 8.04858L11.0415 7.98901C11.1462 7.93767 11.2618 7.91092 11.3794 7.91089ZM10.9126 10.6179C10.862 10.7551 10.7539 10.8632 10.6167 10.9138L9.34912 11.3806L10.6167 11.8474L10.7134 11.8962C10.8042 11.9545 10.8746 12.0412 10.9126 12.1443L11.3794 13.4099L11.8462 12.1443L11.895 12.0466C11.9533 11.9559 12.0401 11.8853 12.1431 11.8474L13.4087 11.3806L12.1431 10.9138C12.0057 10.8632 11.8968 10.7553 11.8462 10.6179L11.3794 9.35034L10.9126 10.6179Z" fill="black"/>
<path d="M8.40967 6.90015C8.68559 6.90041 8.90967 7.12514 8.90967 7.40112V7.91089H9.41943C9.69546 7.91102 9.91943 8.13483 9.91943 8.41089C9.91943 8.68695 9.69546 8.91076 9.41943 8.91089H8.90967V9.42065C8.9094 9.69641 8.68542 9.92039 8.40967 9.92065C8.13369 9.92065 7.90993 9.69657 7.90967 9.42065V8.91089H7.3999C7.12376 8.91089 6.8999 8.68703 6.8999 8.41089C6.8999 8.13475 7.12376 7.91089 7.3999 7.91089H7.90967V7.40112C7.90967 7.12498 8.13353 6.90015 8.40967 6.90015Z" fill="black"/>
</svg>