<svg viewBox="0 0 24 24" fill="none" xmlns="http://www.w3.org/2000/svg" width="24" height="24">
<path d="M18 6.09082C17.9999 6.04068 17.9593 6.00005 17.9092 6H6.0908C6.04066 6.00005 6.00002 6.04068 5.99997 6.09082V17.9092C6.00002 17.9593 6.04066 18 6.0908 18H17.9092C17.9593 17.9999 17.9999 17.9593 18 17.9092V6.09082ZM19 17.9092C18.9999 18.5116 18.5116 18.9999 17.9092 19H6.0908C5.48837 19 5.00002 18.5116 4.99997 17.9092V6.09082C5.00002 5.4884 5.48837 5.00005 6.0908 5H17.9092C18.5116 5.00005 18.9999 5.4884 19 6.09082V17.9092Z" fill="black"/>
<path d="M10.3178 9.63624C10.3177 9.25977 10.0127 8.9546 9.63616 8.9546C9.25974 8.9547 8.95461 9.25982 8.95452 9.63624C8.95452 10.0127 9.25968 10.3178 9.63616 10.3179C10.0127 10.3179 10.3178 10.0128 10.3178 9.63624ZM11.3178 9.63624C11.3178 10.5651 10.565 11.3179 9.63616 11.3179C8.7074 11.3178 7.95452 10.565 7.95452 9.63624C7.95461 8.70754 8.70746 7.9547 9.63616 7.9546C10.5649 7.9546 11.3177 8.70748 11.3178 9.63624Z" fill="black"/>
<path d="M15.2504 9.72678C15.3935 9.72682 15.5351 9.75504 15.6673 9.80978C15.7996 9.86463 15.9196 9.9458 16.0209 10.0471L16.0218 10.0461L18.8539 12.8791C19.0489 13.0743 19.0488 13.3909 18.8539 13.5862C18.6586 13.7813 18.3421 13.7813 18.1468 13.5862L15.3148 10.7531C15.3064 10.7449 15.2954 10.7381 15.2845 10.7336C15.2737 10.7292 15.2621 10.7268 15.2504 10.7268C15.2384 10.7268 15.2262 10.729 15.2152 10.7336C15.2043 10.7381 15.1943 10.7448 15.1859 10.7531L7.08629 18.8537C6.89106 19.0488 6.57449 19.0488 6.37926 18.8537C6.18402 18.6585 6.18411 18.342 6.37926 18.1467L14.4779 10.0461C14.5792 9.94468 14.7 9.86468 14.8324 9.80978C14.9648 9.75493 15.1071 9.72678 15.2504 9.72678Z" fill="black"/>
<path d="M2.23935 6.50903C2.28985 6.52996 2.34541 6.53544 2.39902 6.52479C2.45264 6.51414 2.50189 6.48783 2.54054 6.44918L6.44894 2.54079C6.48764 2.50214 6.51401 2.45289 6.5247 2.39925C6.5354 2.34562 6.52994 2.29001 6.50901 2.23948C6.48809 2.18895 6.45264 2.14576 6.40716 2.11539C6.36168 2.08502 6.30821 2.06882 6.25352 2.06885L2.34512 2.06885C2.3088 2.06883 2.27284 2.07597 2.23928 2.08986C2.20572 2.10374 2.17523 2.12411 2.14955 2.14979C2.12387 2.17547 2.1035 2.20597 2.08961 2.23952C2.07572 2.27308 2.06858 2.30905 2.0686 2.34537L2.0686 6.25376C2.06863 6.30843 2.08486 6.36186 2.11526 6.4073C2.14565 6.45274 2.18884 6.48814 2.23935 6.50903Z" fill="black"/>
<path d="M2.23935 17.491C2.28985 17.47 2.34541 17.4646 2.39902 17.4752C2.45264 17.4859 2.50189 17.5122 2.54054 17.5508L6.44894 21.4592C6.48764 21.4979 6.51401 21.5471 6.5247 21.6007C6.5354 21.6544 6.52994 21.71 6.50901 21.7605C6.48809 21.811 6.45264 21.8542 6.40716 21.8846C6.36168 21.915 6.30821 21.9312 6.25352 21.9311H2.34512C2.3088 21.9312 2.27284 21.924 2.23928 21.9101C2.20572 21.8963 2.17523 21.8759 2.14955 21.8502C2.12387 21.8245 2.1035 21.794 2.08961 21.7605C2.07572 21.7269 2.06858 21.6909 2.0686 21.6546L2.0686 17.7462C2.06863 17.6916 2.08486 17.6381 2.11526 17.5927C2.14565 17.5473 2.18884 17.5119 2.23935 17.491Z" fill="black"/>
<path d="M21.7606 17.491C21.7101 17.47 21.6546 17.4646 21.6009 17.4752C21.5473 17.4859 21.4981 17.5122 21.4594 17.5508L17.551 21.4592C17.5123 21.4979 17.486 21.5471 17.4753 21.6007C17.4646 21.6544 17.47 21.71 17.4909 21.7605C17.5119 21.811 17.5473 21.8542 17.5928 21.8846C17.6383 21.915 17.6918 21.9312 17.7464 21.9311H21.6548C21.6912 21.9312 21.7271 21.924 21.7607 21.9101C21.7942 21.8963 21.8247 21.8759 21.8504 21.8502C21.8761 21.8245 21.8965 21.794 21.9104 21.7605C21.9242 21.7269 21.9314 21.6909 21.9314 21.6546V17.7462C21.9313 17.6916 21.9151 17.6381 21.8847 17.5927C21.8543 17.5473 21.8111 17.5119 21.7606 17.491Z" fill="black"/>
<path d="M21.7605 6.50903C21.7101 6.52996 21.6545 6.53544 21.6009 6.52479C21.5473 6.51414 21.498 6.48783 21.4594 6.44918L17.551 2.54079C17.5123 2.50214 17.4859 2.45289 17.4752 2.39925C17.4645 2.34562 17.47 2.29001 17.4909 2.23948C17.5118 2.18895 17.5473 2.14576 17.5927 2.11539C17.6382 2.08502 17.6917 2.06882 17.7464 2.06885L21.6548 2.06885C21.6911 2.06883 21.7271 2.07597 21.7606 2.08986C21.7942 2.10374 21.8247 2.12411 21.8503 2.14979C21.876 2.17547 21.8964 2.20597 21.9103 2.23952C21.9242 2.27308 21.9313 2.30905 21.9313 2.34537V6.25376C21.9313 6.30843 21.915 6.36186 21.8846 6.4073C21.8542 6.45274 21.8111 6.48814 21.7605 6.50903Z" fill="black"/>
</svg>