<svg xmlns="http://www.w3.org/2000/svg" fill="currentColor" viewBox="0 0 24 24">
  <path d="M20.1 13.35c0 3.216-2.335 3.853-4.21 4.364-2.053.56-3.215.978-3.215 3.061a.675.675 0 0 1-1.35 0c0-2.083-1.162-2.501-3.215-3.061-1.875-.511-4.21-1.148-4.21-4.364a.675.675 0 0 1 1.35 0c0 2.083 1.162 2.501 3.215 3.061.959.262 2.035.557 2.86 1.21V12h-2.7a.675.675 0 0 1 0-1.35h2.7V8.189a2.363 2.363 0 1 1 1.35 0v2.461h2.7a.675.675 0 0 1 0 1.35h-2.7v5.621c.825-.653 1.902-.948 2.86-1.21 2.053-.56 3.215-.978 3.215-3.061a.675.675 0 0 1 1.35 0"/>
</svg>
