<svg xmlns="http://www.w3.org/2000/svg" fill="currentColor" viewBox="0 0 24 24">
  <path d="M20.1 5.25V9.3a.675.675 0 0 1-.675.675h-4.05a.675.675 0 0 1-.478-1.153l1.545-1.547a6.7 6.7 0 0 0-4.617-1.864h-.038a6.7 6.7 0 0 0-4.715 1.924.675.675 0 0 1-.944-.965A8.1 8.1 0 0 1 17.4 6.322l1.549-1.55a.675.675 0 0 1 1.151.478m-3.172 11.415a6.75 6.75 0 0 1-9.37.06l1.545-1.545a.675.675 0 0 0-.478-1.155h-4.05a.675.675 0 0 0-.675.675v4.05a.675.675 0 0 0 1.153.478l1.547-1.55a8.05 8.05 0 0 0 5.569 2.258h.044a8.05 8.05 0 0 0 5.66-2.306.675.675 0 0 0-.944-.965z"/>
</svg>
