<svg xmlns="http://www.w3.org/2000/svg" fill="currentColor" viewBox="0 0 24 24">
  <path d="m5.795 15.097 2.352-3.224a4.05 4.05 0 1 1-1.091-.796l-2.351 3.226a.675.675 0 1 0 1.09.794M18.75 10.65a4 4 0 0 0-1.428.261l2.011 3.452a.675.675 0 1 1-1.166.674l-2.011-3.447a4.05 4.05 0 1 0 2.594-.94M15.2 7.275h2.2a.675.675 0 0 1 .675.675.675.675 0 0 0 1.35 0A2.025 2.025 0 0 0 17.4 5.925h-3.375a.675.675 0 0 0-.583 1.012l.983 1.688h-4.85L8.196 6.263a.68.68 0 0 0-.583-.338H5.25a.675.675 0 0 0 0 1.35h1.975l1.157 1.984-1.326 1.818a4 4 0 0 1 1.091.796l.978-1.341 2.629 4.505a.675.675 0 1 0 1.167-.674l-2.559-4.388h4.85l.944 1.617a4 4 0 0 1 1.166-.681z"/>
</svg>
