<svg xmlns="http://www.w3.org/2000/svg" fill="currentColor" viewBox="0 0 24 24">
  <path d="M15.375 20.775a.675.675 0 0 1-.675.675H9.975a.675.675 0 0 1 0-1.35H14.7a.675.675 0 0 1 .675.675M12 18.075a.675.675 0 0 0-.675-.675h-4.05a.675.675 0 0 0 0 1.35h4.05a.675.675 0 0 0 .675-.675m4.725-.675H14.7a.675.675 0 0 0 0 1.35h2.025a.675.675 0 0 0 0-1.35m4.039-8.138a6.413 6.413 0 0 0-12.806.062.69.69 0 0 1-.683.651h-.051a.687.687 0 0 1-.624-.726 8 8 0 0 1 .197-1.394.338.338 0 0 0-.422-.403 4.395 4.395 0 0 0-3.15 4.241c.017 2.422 2.035 4.357 4.458 4.357h6.68a6.42 6.42 0 0 0 6.401-6.788"/>
</svg>
