<svg xmlns="http://www.w3.org/2000/svg" fill="currentColor" viewBox="0 0 24 24">
  <path d="M18.75 3.9h-2.025v-.675a.675.675 0 0 0-1.35 0V3.9h-6.75v-.675a.675.675 0 0 0-1.35 0V3.9H5.25A1.35 1.35 0 0 0 3.9 5.25v13.5a1.35 1.35 0 0 0 1.35 1.35h13.5a1.35 1.35 0 0 0 1.35-1.35V5.25a1.35 1.35 0 0 0-1.35-1.35M8.287 16.725A1.013 1.013 0 1 1 9.3 15.712a1.013 1.013 0 0 1-1.013 1.013m3.713 0a1.013 1.013 0 1 1 1.012-1.013A1.013 1.013 0 0 1 12 16.725m0-3.375a1.013 1.013 0 1 1 1.012-1.013A1.013 1.013 0 0 1 12 13.35m3.712 3.375a1.013 1.013 0 1 1 1.013-1.013 1.013 1.013 0 0 1-1.012 1.013zm0-3.375a1.013 1.013 0 1 1 1.013-1.013 1.013 1.013 0 0 1-1.012 1.013zm3.038-5.4H5.25v-2.7h2.025v.675a.675.675 0 0 0 1.35 0V5.25h6.75v.675a.675.675 0 0 0 1.35 0V5.25h2.025z"/>
</svg>
