<svg xmlns="http://www.w3.org/2000/svg" fill="currentColor" viewBox="0 0 24 24">
  <path d="M18.75 13.35a1.33 1.33 0 0 1-.879 1.261l-4.352 1.608-1.603 4.355a1.343 1.343 0 0 1-2.521 0l-1.614-4.355-4.355-1.603a1.343 1.343 0 0 1 0-2.522l4.355-1.613 1.603-4.355a1.343 1.343 0 0 1 2.522 0l1.613 4.355 4.355 1.603a1.33 1.33 0 0 1 .876 1.266m-4.725-8.1h1.35V6.6a.675.675 0 0 0 1.35 0V5.25h1.35a.675.675 0 0 0 0-1.35h-1.35V2.55a.675.675 0 0 0-1.35 0V3.9h-1.35a.675.675 0 0 0 0 1.35m7.425 2.7h-.675v-.675a.675.675 0 0 0-1.35 0v.675h-.675a.675.675 0 0 0 0 1.35h.675v.675a.675.675 0 0 0 1.35 0V9.3h.675a.675.675 0 0 0 0-1.35"/>
</svg>
