<svg xmlns="http://www.w3.org/2000/svg" fill="currentColor" viewBox="0 0 24 24">
  <path d="M20.1 12a8.1 8.1 0 0 1-13.659 5.891.675.675 0 1 1 .928-.982 6.75 6.75 0 1 0-.142-9.682c-.298.301-.578.597-.851.892l1.377 1.378a.675.675 0 0 1-.478 1.153H3.9a.675.675 0 0 1-.675-.675V6.6a.675.675 0 0 1 1.153-.478l1.041 1.043c.272-.294.552-.591.849-.89A8.1 8.1 0 0 1 20.1 12M12 7.275a.675.675 0 0 0-.675.675V12a.68.68 0 0 0 .327.579l3.375 2.025a.675.675 0 1 0 .696-1.158l-3.048-1.828V7.95A.675.675 0 0 0 12 7.275"/>
</svg>
