<svg xmlns="http://www.w3.org/2000/svg" fill="currentColor" viewBox="0 0 24 24">
  <path d="M17.4 2.55H6.6A1.35 1.35 0 0 0 5.25 3.9v16.2a1.35 1.35 0 0 0 1.35 1.35h10.8a1.35 1.35 0 0 0 1.35-1.35V3.9a1.35 1.35 0 0 0-1.35-1.35M9.637 18.075a1.013 1.013 0 1 1 1.013-1.013 1.013 1.013 0 0 1-1.013 1.013m0-5.063A1.013 1.013 0 1 1 10.65 12a1.013 1.013 0 0 1-1.013 1.012m0-5.062a1.013 1.013 0 1 1 1.013-1.013A1.013 1.013 0 0 1 9.637 7.95m4.725 10.125a1.013 1.013 0 1 1 1.013-1.013 1.013 1.013 0 0 1-1.012 1.013zm0-5.063A1.013 1.013 0 1 1 15.375 12a1.013 1.013 0 0 1-1.012 1.012zm0-5.062a1.013 1.013 0 1 1 1.013-1.013 1.013 1.013 0 0 1-1.012 1.013z"/>
</svg>
