<svg xmlns="http://www.w3.org/2000/svg" fill="currentColor" viewBox="0 0 24 24">
  <path d="M11.325 5.925v4.05a1.35 1.35 0 0 1-1.35 1.35h-4.05a1.35 1.35 0 0 1-1.35-1.35v-4.05a1.35 1.35 0 0 1 1.35-1.35h4.05a1.35 1.35 0 0 1 1.35 1.35m6.75-1.35h-4.05a1.35 1.35 0 0 0-1.35 1.35v4.05a1.35 1.35 0 0 0 1.35 1.35h4.05a1.35 1.35 0 0 0 1.35-1.35v-4.05a1.35 1.35 0 0 0-1.35-1.35m-8.1 8.1h-4.05a1.35 1.35 0 0 0-1.35 1.35v4.05a1.35 1.35 0 0 0 1.35 1.35h4.05a1.35 1.35 0 0 0 1.35-1.35v-4.05a1.35 1.35 0 0 0-1.35-1.35m8.1 0h-4.05a1.35 1.35 0 0 0-1.35 1.35v4.05a1.35 1.35 0 0 0 1.35 1.35h4.05a1.35 1.35 0 0 0 1.35-1.35v-4.05a1.35 1.35 0 0 0-1.35-1.35"/>
</svg>
