<svg xmlns="http://www.w3.org/2000/svg" fill="currentColor" viewBox="0 0 24 24">
  <path d="m19.228 8.147-4.725-4.725a.68.68 0 0 0-.478-.197h-8.1a1.35 1.35 0 0 0-1.35 1.35v6.413a.34.34 0 0 0 .338.337h10.124a.34.34 0 0 1 .338.338v8.775a.34.34 0 0 0 .337.337h2.363a1.35 1.35 0 0 0 1.35-1.35v-10.8a.68.68 0 0 0-.197-.478m-5.203.478V4.913l3.713 3.712zm-.354 9.139a1.76 1.76 0 0 1-.775 1.285c-.438.292-.98.376-1.476.376a5.2 5.2 0 0 1-1.281-.169.675.675 0 0 1 .363-1.3c.37.101 1.266.228 1.65-.03.074-.05.154-.128.18-.332.029-.225-.061-.346-1.078-.64-.789-.228-2.109-.61-1.941-1.95a1.74 1.74 0 0 1 .76-1.262c1-.675 2.592-.279 2.771-.233a.675.675 0 0 1-.344 1.307c-.379-.099-1.285-.216-1.673.047a.39.39 0 0 0-.169.309c-.009.076-.011.092.095.161.195.126.544.226.882.324.828.239 2.221.646 2.036 2.107M7.95 14.025v3.156c0 1.2-.943 2.216-2.144 2.243a2.194 2.194 0 0 1-2.243-2.162.69.69 0 0 1 .616-.706.675.675 0 0 1 .734.694.75.75 0 0 0 .337.675c.662.407 1.35-.063 1.35-.692v-3.185a.69.69 0 0 1 .63-.698.675.675 0 0 1 .72.675"/>
</svg>
