<svg xmlns="http://www.w3.org/2000/svg" fill="currentColor" viewBox="0 0 24 24">
  <path d="M9.3 9.975a.675.675 0 1 1 .675-.675.675.675 0 0 1-.675.675m5.4 4.05a.675.675 0 1 0 .675.675.675.675 0 0 0-.675-.675M21.45 12c0 .881-.634 1.542-1.193 2.125-.318.332-.647.675-.771.976-.115.276-.121.733-.129 1.176-.013.824-.026 1.757-.675 2.406s-1.582.662-2.405.675c-.443.007-.9.014-1.176.128-.301.124-.644.453-.976.771-.583.559-1.244 1.193-2.125 1.193s-1.542-.634-2.125-1.193c-.332-.318-.675-.647-.976-.771-.276-.115-.733-.121-1.176-.129-.824-.013-1.757-.026-2.406-.675s-.662-1.582-.675-2.405c-.007-.443-.014-.9-.128-1.176-.124-.301-.453-.644-.771-.976C3.184 13.542 2.55 12.881 2.55 12s.634-1.542 1.193-2.125c.318-.332.647-.675.771-.976.115-.276.121-.733.129-1.176.013-.824.026-1.757.675-2.406s1.582-.662 2.405-.675c.443-.007.9-.014 1.176-.128.301-.124.644-.453.976-.771.583-.559 1.244-1.193 2.125-1.193s1.542.634 2.125 1.193c.332.318.675.647.976.771.276.115.733.121 1.176.129.824.013 1.757.026 2.406.675s.662 1.582.675 2.405c.007.443.014.9.128 1.176.124.301.453.644.771.976.559.583 1.193 1.244 1.193 2.125M9.3 11.325A2.025 2.025 0 1 0 7.275 9.3 2.025 2.025 0 0 0 9.3 11.325m6.553-2.222a.675.675 0 0 0-.956-.956l-6.75 6.75a.675.675 0 0 0 .956.956zm.872 5.597a2.025 2.025 0 1 0-2.025 2.025 2.025 2.025 0 0 0 2.025-2.025"/>
</svg>
