<svg xmlns="http://www.w3.org/2000/svg" fill="currentColor" viewBox="0 0 24 24">
  <path d="M7.472 8.428a.675.675 0 0 1 .956-.956l2.897 2.899V3.225a.675.675 0 0 1 1.35 0v7.146l2.897-2.899a.675.675 0 0 1 .956.956l-4.05 4.05a.675.675 0 0 1-.956 0zm13.978 4.247v5.4a1.35 1.35 0 0 1-1.35 1.35H3.9a1.35 1.35 0 0 1-1.35-1.35v-5.4a1.35 1.35 0 0 1 1.35-1.35h4.421a.34.34 0 0 1 .239.099l2.006 2.01a2.025 2.025 0 0 0 2.868 0l2.009-2.008a.34.34 0 0 1 .236-.101H20.1a1.35 1.35 0 0 1 1.35 1.35m-3.375 2.7a1.013 1.013 0 1 0-1.013 1.013 1.013 1.013 0 0 0 1.013-1.013"/>
</svg>
