<svg xmlns="http://www.w3.org/2000/svg" fill="currentColor" viewBox="0 0 24 24">
  <path d="M16.05 18.686a10 10 0 0 0 1.35-.652v3.416a.675.675 0 0 1-1.35 0zm.992-7.461-4.725-2.521a.675.675 0 0 0-.634 1.192L15.628 12l1.435-.764zm5.4-2.521-10.125-5.4a.68.68 0 0 0-.634 0l-10.125 5.4a.675.675 0 0 0 0 1.192L3.9 11.145v4.086a1.34 1.34 0 0 0 .343.898C5.348 17.36 7.824 19.425 12 19.425a11 11 0 0 0 4.05-.739v-6.461L15.628 12 12 13.935l-7.102-3.791L3.309 9.3 12 4.665 20.691 9.3l-1.585.844h-.005l-2.038 1.092a.68.68 0 0 1 .337.584v6.214a9.8 9.8 0 0 0 2.357-1.905 1.34 1.34 0 0 0 .343-.898v-4.086l2.342-1.249a.675.675 0 0 0 0-1.192"/>
</svg>
