<svg xmlns="http://www.w3.org/2000/svg" fill="currentColor" viewBox="0 0 24 24">
  <path d="M20.775 12a8.79 8.79 0 0 1-7.725 8.713.34.34 0 0 1-.375-.338v-6.35H14.7a.675.675 0 0 0 .675-.72.69.69 0 0 0-.696-.63h-2.004V10.65a1.35 1.35 0 0 1 1.35-1.35h1.35a.675.675 0 0 0 .675-.72.69.69 0 0 0-.698-.63h-1.327a2.7 2.7 0 0 0-2.7 2.7v2.025H9.3a.675.675 0 0 0-.675.72.69.69 0 0 0 .698.63h2.002v6.352a.34.34 0 0 1-.375.337 8.79 8.79 0 0 1-7.719-9.044C3.4 7.114 7.09 3.41 11.65 3.233A8.785 8.785 0 0 1 20.775 12"/>
</svg>
