<svg xmlns="http://www.w3.org/2000/svg" fill="currentColor" viewBox="0 0 24 24">
  <path d="M19.425 4.575H4.575a1.35 1.35 0 0 0-1.35 1.35v12.15a1.35 1.35 0 0 0 1.35 1.35h14.85a1.35 1.35 0 0 0 1.35-1.35V5.925a1.35 1.35 0 0 0-1.35-1.35M18.075 17.4H5.925a.675.675 0 0 1-.675-.675v-9.45a.675.675 0 0 1 1.35 0v6.471l2.897-2.899a.675.675 0 0 1 .956 0L12 12.396l3.771-3.771H13.35a.675.675 0 0 1 0-1.35h4.05a.675.675 0 0 1 .675.675V12a.675.675 0 0 1-1.35 0V9.579l-4.247 4.249a.675.675 0 0 1-.956 0l-1.547-1.549L6.6 15.654v.396h11.475a.675.675 0 0 1 0 1.35"/>
</svg>
