<svg xmlns="http://www.w3.org/2000/svg" fill="currentColor" viewBox="0 0 24 24">
  <path d="M18.75 3.9H5.25A1.35 1.35 0 0 0 3.9 5.25v13.5a1.35 1.35 0 0 0 1.35 1.35h13.5a1.35 1.35 0 0 0 1.35-1.35V5.25a1.35 1.35 0 0 0-1.35-1.35M7.275 7.275h3.375a.675.675 0 0 1 0 1.35H7.275a.675.675 0 0 1 0-1.35m0 4.05h4.05a.675.675 0 0 1 0 1.35h-4.05a.675.675 0 0 1 0-1.35m8.1 5.4h-8.1a.675.675 0 0 1 0-1.35h8.1a.675.675 0 0 1 0 1.35m2.503-6.947a.675.675 0 0 1-.956 0l-.872-.874v3.771a.675.675 0 0 1-1.35 0V8.904l-.872.874a.675.675 0 0 1-.956-.956l2.025-2.025a.675.675 0 0 1 .956 0l2.025 2.025a.675.675 0 0 1 0 .956"/>
</svg>
