<svg xmlns="http://www.w3.org/2000/svg" fill="currentColor" viewBox="0 0 24 24">
  <path d="M18.75 3.9H5.25A1.35 1.35 0 0 0 3.9 5.25v13.5a1.35 1.35 0 0 0 1.35 1.35h13.5a1.35 1.35 0 0 0 1.35-1.35V5.25a1.35 1.35 0 0 0-1.35-1.35m-2.7 3.375h-1.357a1.35 1.35 0 0 0-1.327 1.097l-.553 2.953h2.562a.675.675 0 0 1 0 1.35H12.56l-.6 3.198a2.7 2.7 0 0 1-2.653 2.202H7.95a.675.675 0 0 1 0-1.35h1.357a1.35 1.35 0 0 0 1.327-1.097l.553-2.953H8.625a.675.675 0 0 1 0-1.35h2.815l.6-3.198a2.7 2.7 0 0 1 2.653-2.202h1.357a.675.675 0 0 1 0 1.35"/>
</svg>
