<svg xmlns="http://www.w3.org/2000/svg" fill="currentColor" viewBox="0 0 24 24">
  <path d="M13.35 9.975V6.6a.675.675 0 0 1 1.153-.478l1.21 1.211 2.559-2.561a.675.675 0 0 1 .956.956l-2.561 2.559 1.211 1.21a.675.675 0 0 1-.478 1.153h-3.375a.675.675 0 0 1-.675-.675M9.975 13.35H6.6a.675.675 0 0 0-.478 1.153l1.211 1.21-2.561 2.559a.675.675 0 0 0 .956.956l2.559-2.561 1.21 1.211a.675.675 0 0 0 1.153-.478v-3.375a.675.675 0 0 0-.675-.675m.258-7.374a.675.675 0 0 0-.736.146l-1.21 1.211-2.559-2.561a.675.675 0 0 0-.956.956l2.561 2.559-1.211 1.21A.675.675 0 0 0 6.6 10.65h3.375a.675.675 0 0 0 .675-.675V6.6a.675.675 0 0 0-.417-.624m6.434 9.737 1.211-1.21a.675.675 0 0 0-.478-1.153h-3.375a.675.675 0 0 0-.675.675V17.4a.675.675 0 0 0 1.153.478l1.21-1.211 2.559 2.561a.675.675 0 0 0 .956-.956z"/>
</svg>
