<svg xmlns="http://www.w3.org/2000/svg" fill="currentColor" viewBox="0 0 24 24">
  <path d="M19.425 12.182q.005-.182 0-.364l1.259-1.573a.68.68 0 0 0 .125-.596 9 9 0 0 0-.918-2.215.68.68 0 0 0-.507-.331l-2.001-.223q-.125-.132-.253-.253l-.236-2.006a.68.68 0 0 0-.333-.507 9 9 0 0 0-2.215-.916.68.68 0 0 0-.595.125l-1.569 1.252h-.364l-1.573-1.256a.68.68 0 0 0-.596-.125 9 9 0 0 0-2.215.918.68.68 0 0 0-.331.506L6.88 6.623q-.132.126-.253.253l-2.006.23a.68.68 0 0 0-.507.333 9 9 0 0 0-.917 2.215.68.68 0 0 0 .126.595l1.252 1.569v.364l-1.256 1.573a.68.68 0 0 0-.125.596 9 9 0 0 0 .918 2.215.68.68 0 0 0 .506.331l2.001.223q.126.132.254.253l.233 2.006a.68.68 0 0 0 .333.507 9 9 0 0 0 2.215.917.68.68 0 0 0 .595-.126l1.569-1.252q.182.005.364 0l1.573 1.259a.68.68 0 0 0 .596.125 9 9 0 0 0 2.215-.918.68.68 0 0 0 .331-.507l.223-2.001q.132-.125.253-.253l2.006-.236a.68.68 0 0 0 .507-.333 9 9 0 0 0 .917-2.215.68.68 0 0 0-.126-.595zM12 15.375A3.375 3.375 0 1 1 15.375 12 3.375 3.375 0 0 1 12 15.375"/>
</svg>
