<svg xmlns="http://www.w3.org/2000/svg" fill="currentColor" viewBox="0 0 24 24">
  <path d="M18.75 3.9H5.25A1.35 1.35 0 0 0 3.9 5.25v13.5a1.35 1.35 0 0 0 1.35 1.35h13.5a1.35 1.35 0 0 0 1.35-1.35V5.25a1.35 1.35 0 0 0-1.35-1.35M12 14.7a.675.675 0 0 1-1.35 0V12H7.275v2.7a.675.675 0 0 1-1.35 0V7.95a.675.675 0 0 1 1.35 0v2.7h3.375v-2.7a.675.675 0 0 1 1.35 0zm5.4 2.025h-3.375a.675.675 0 0 1-.54-1.08l3.038-4.05a1.013 1.013 0 1 0-1.616-1.22 1.1 1.1 0 0 0-.218.406.675.675 0 1 1-1.323-.269 2.377 2.377 0 1 1 4.236 1.894l-2.227 2.969H17.4a.675.675 0 0 1 0 1.35"/>
</svg>
