<svg xmlns="http://www.w3.org/2000/svg" fill="currentColor" viewBox="0 0 24 24">
  <path d="M18.75 3.9H5.25A1.35 1.35 0 0 0 3.9 5.25v13.5a1.35 1.35 0 0 0 1.35 1.35h13.5a1.35 1.35 0 0 0 1.35-1.35V5.25a1.35 1.35 0 0 0-1.35-1.35M12 14.7a.675.675 0 0 1-1.35 0V12H7.275v2.7a.675.675 0 0 1-1.35 0V7.95a.675.675 0 0 1 1.35 0v2.7h3.375v-2.7a.675.675 0 0 1 1.35 0zm3.375-3.375a2.7 2.7 0 1 1-1.801 4.712.675.675 0 0 1 .901-1.005 1.35 1.35 0 1 0 0-2.025.675.675 0 0 1-1.112-.642l.675-3.207a.675.675 0 0 1 .662-.533h2.7a.675.675 0 0 1 0 1.35h-2.152l-.295 1.381a3 3 0 0 1 .422-.031"/>
</svg>
