<svg xmlns="http://www.w3.org/2000/svg" fill="currentColor" viewBox="0 0 24 24">
  <path d="M17.4 14.025a1.35 1.35 0 1 1-1.35-1.35 1.35 1.35 0 0 1 1.35 1.35m2.7-8.775v13.5a1.35 1.35 0 0 1-1.35 1.35H5.25a1.35 1.35 0 0 1-1.35-1.35V5.25A1.35 1.35 0 0 1 5.25 3.9h13.5a1.35 1.35 0 0 1 1.35 1.35M12 7.95a.675.675 0 0 0-1.35 0v2.7H7.275v-2.7a.675.675 0 0 0-1.35 0v6.75a.675.675 0 0 0 1.35 0V12h3.375v2.7a.675.675 0 0 0 1.35 0zm6.75 6.075a2.7 2.7 0 0 0-2.7-2.7l.975-1.688a.675.675 0 0 0-1.17-.675l-2.143 3.713-.012.023a2.7 2.7 0 1 0 5.05 1.327"/>
</svg>
