<svg xmlns="http://www.w3.org/2000/svg" fill="currentColor" viewBox="0 0 24 24">
  <path d="M20.1 5.25H3.9A1.35 1.35 0 0 0 2.55 6.6v10.8a1.35 1.35 0 0 0 1.35 1.35h16.2a1.35 1.35 0 0 0 1.35-1.35V6.6a1.35 1.35 0 0 0-1.35-1.35M6.938 15.375a1.013 1.013 0 1 1 1.012-1.013 1.013 1.013 0 0 1-1.012 1.013m0-4.725A1.013 1.013 0 1 1 7.95 9.637a1.013 1.013 0 0 1-1.012 1.013M12 15.375a1.013 1.013 0 1 1 1.013-1.013A1.013 1.013 0 0 1 12 15.375m0-4.725a1.013 1.013 0 1 1 1.013-1.013A1.013 1.013 0 0 1 12 10.65m5.063 4.725a1.013 1.013 0 1 1 1.012-1.013 1.013 1.013 0 0 1-1.012 1.013m0-4.725a1.013 1.013 0 1 1 1.012-1.013 1.013 1.013 0 0 1-1.012 1.013"/>
</svg>
