<svg xmlns="http://www.w3.org/2000/svg" fill="currentColor" viewBox="0 0 24 24">
  <path d="M22.603 10.172a.675.675 0 0 0-.956 0L17.4 14.421l-7.146-7.146 4.249-4.247a.675.675 0 1 0-.956-.956L9.3 6.321a1.35 1.35 0 0 0-.238 1.587L7.275 9.696a1.35 1.35 0 0 0 0 1.908l.396.396-4.924 4.922a.675.675 0 0 0 .265 1.118l6.075 2.025a.7.7 0 0 0 .213.035.68.68 0 0 0 .478-.197l2.897-2.899.396.396a1.35 1.35 0 0 0 1.908 0l1.787-1.787a1.35 1.35 0 0 0 1.588-.238l4.249-4.247a.675.675 0 0 0 0-.956m-8.578 6.274L8.229 10.65l1.746-1.746 5.796 5.796z"/>
</svg>
