<svg xmlns="http://www.w3.org/2000/svg" fill="currentColor" viewBox="0 0 24 24">
  <path d="M13.35 11.325v7.425a.675.675 0 0 1-.675.675H5.25a.675.675 0 0 1-.675-.675v-7.425a.675.675 0 0 1 .675-.675h7.425a.675.675 0 0 1 .675.675m5.4 4.725a.675.675 0 0 0-.675.675v1.35H16.05a.675.675 0 0 0 0 1.35h2.025a1.35 1.35 0 0 0 1.35-1.35v-1.35a.675.675 0 0 0-.675-.675m0-6.075a.675.675 0 0 0-.675.675v2.7a.675.675 0 0 0 1.35 0v-2.7a.675.675 0 0 0-.675-.675m-.675-5.4h-1.35a.675.675 0 0 0 0 1.35h1.35v1.35a.675.675 0 0 0 1.35 0v-1.35a1.35 1.35 0 0 0-1.35-1.35m-4.725 0h-2.7a.675.675 0 0 0 0 1.35h2.7a.675.675 0 0 0 0-1.35m-8.1 4.05a.675.675 0 0 0 .675-.675V5.925h1.35a.675.675 0 0 0 0-1.35h-1.35a1.35 1.35 0 0 0-1.35 1.35V7.95a.675.675 0 0 0 .675.675"/>
</svg>
