<svg xmlns="http://www.w3.org/2000/svg" fill="currentColor" viewBox="0 0 24 24">
  <path d="M18.75 3.9H5.25A1.35 1.35 0 0 0 3.9 5.25v13.5a1.35 1.35 0 0 0 1.35 1.35h13.5a1.35 1.35 0 0 0 1.35-1.35V5.25a1.35 1.35 0 0 0-1.35-1.35m-5.4 7.425a.675.675 0 0 1 0 1.35h-.675V14.7a1.35 1.35 0 0 0 1.35 1.35h.675a.675.675 0 0 1 0 1.35h-.675A2.7 2.7 0 0 1 12 16.483a2.7 2.7 0 0 1-2.025.917H9.3a.675.675 0 0 1 0-1.35h.675a1.35 1.35 0 0 0 1.35-1.35v-2.025h-.675a.675.675 0 0 1 0-1.35h.675V9.3a1.35 1.35 0 0 0-1.35-1.35H9.3a.675.675 0 0 1 0-1.35h.675A2.7 2.7 0 0 1 12 7.517a2.7 2.7 0 0 1 2.025-.917h.675a.675.675 0 0 1 0 1.35h-.675a1.35 1.35 0 0 0-1.35 1.35v2.025z"/>
</svg>
