<svg xmlns="http://www.w3.org/2000/svg" fill="currentColor" viewBox="0 0 24 24">
  <path d="M14.025 20.1a.675.675 0 0 1-.675.675h-2.7a.675.675 0 0 1 0-1.35h2.7a.675.675 0 0 1 .675.675m6.043-5.752-1.043 4.694a1.35 1.35 0 0 1-2.152.769l-2.299-1.736H9.427l-2.3 1.736a1.35 1.35 0 0 1-2.152-.769l-1.043-4.694a1.36 1.36 0 0 1 .28-1.157l2.41-2.89a10.4 10.4 0 0 1 .723-3.094c1.088-2.729 3.038-4.441 3.828-5.05a1.35 1.35 0 0 1 1.654 0c.788.609 2.74 2.321 3.828 5.05a10.4 10.4 0 0 1 .723 3.094l2.41 2.89a1.36 1.36 0 0 1 .28 1.157M8.32 17.217q-1.359-2.475-1.65-4.866l-1.42 1.704 1.043 4.695.015-.011zm4.692-7.58A1.013 1.013 0 1 0 12 10.65a1.013 1.013 0 0 0 1.012-1.013m5.738 4.418-1.42-1.704q-.289 2.386-1.65 4.868l2.012 1.518.015.011z"/>
</svg>
