<svg xmlns="http://www.w3.org/2000/svg" fill="currentColor" viewBox="0 0 24 24">
  <path d="M18.75 3.9h-2.025v-.675a.675.675 0 0 0-1.35 0V3.9h-6.75v-.675a.675.675 0 0 0-1.35 0V3.9H5.25A1.35 1.35 0 0 0 3.9 5.25v13.5a1.35 1.35 0 0 0 1.35 1.35h13.5a1.35 1.35 0 0 0 1.35-1.35V5.25a1.35 1.35 0 0 0-1.35-1.35m-4.247 11.672a.675.675 0 0 1-.956.956L12 14.979l-1.547 1.549a.675.675 0 0 1-.956-.956l1.549-1.547-1.549-1.547a.675.675 0 0 1 .956-.956L12 13.071l1.547-1.549a.675.675 0 0 1 .956.956l-1.549 1.547zM18.75 7.95H5.25v-2.7h2.025v.675a.675.675 0 0 0 1.35 0V5.25h6.75v.675a.675.675 0 0 0 1.35 0V5.25h2.025z"/>
</svg>
