<svg xmlns="http://www.w3.org/2000/svg" fill="currentColor" viewBox="0 0 24 24">
  <path d="M20.1 5.25H3.9A1.35 1.35 0 0 0 2.55 6.6v10.8a1.35 1.35 0 0 0 1.35 1.35h16.2a1.35 1.35 0 0 0 1.35-1.35V6.6a1.35 1.35 0 0 0-1.35-1.35m-1.639 7.991a.675.675 0 1 1-1.096.794l-.64-.887-.644.887a.675.675 0 1 1-1.097-.794l.645-.886-1.043-.337a.675.675 0 1 1 .422-1.284l1.042.338V9.975a.675.675 0 0 1 1.35 0v1.097l1.042-.338a.675.675 0 0 1 .422 1.284l-1.043.337zm-6.075 0a.675.675 0 1 1-1.096.794l-.64-.887-.644.887a.675.675 0 1 1-1.097-.794l.645-.886-1.043-.337a.675.675 0 1 1 .422-1.284l1.042.338V9.975a.675.675 0 0 1 1.35 0v1.097l1.042-.338a.675.675 0 1 1 .422 1.284l-1.043.337zM6.6 8.625v6.75a.675.675 0 0 1-1.35 0v-6.75a.675.675 0 0 1 1.35 0"/>
</svg>
