<svg xmlns="http://www.w3.org/2000/svg" fill="currentColor" viewBox="0 0 24 24">
  <path d="M21.45 12.059c-.032 4.766-3.92 8.668-8.686 8.715a8.8 8.8 0 0 1-2.188-.253.34.34 0 0 1-.246-.41l.729-2.915a5.1 5.1 0 0 0 2.291.542c3.122 0 5.628-2.822 5.384-6.19a6.075 6.075 0 1 0-11.692 2.73.675.675 0 0 0 .908.362.69.69 0 0 0 .338-.885 4.725 4.725 0 1 1 9.1-2.103c.181 2.576-1.698 4.736-4.038 4.736a3.8 3.8 0 0 1-1.952-.544l1.257-5.03a.675.675 0 0 0-1.31-.328l-2.266 9.066a.338.338 0 0 1-.482.219A8.78 8.78 0 0 1 3.9 11.905c.051-4.755 3.938-8.636 8.691-8.68a8.775 8.775 0 0 1 8.859 8.834"/>
</svg>
