<svg xmlns="http://www.w3.org/2000/svg" fill="currentColor" viewBox="0 0 24 24">
  <path d="M18.75 3.9h-2.025v-.675a.675.675 0 0 0-1.35 0V3.9h-6.75v-.675a.675.675 0 0 0-1.35 0V3.9H5.25A1.35 1.35 0 0 0 3.9 5.25v13.5a1.35 1.35 0 0 0 1.35 1.35h13.5a1.35 1.35 0 0 0 1.35-1.35V5.25a1.35 1.35 0 0 0-1.35-1.35m-8.1 12.825a.675.675 0 0 1-1.35 0v-4.308l-.373.187a.675.675 0 0 1-.604-1.208l1.35-.675a.675.675 0 0 1 .977.604zm4.725-.675a.675.675 0 0 1 0 1.35h-2.7a.675.675 0 0 1-.54-1.08l2.428-3.237a.675.675 0 1 0-1.123-.745.675.675 0 1 1-1.168-.675 2.025 2.025 0 0 1 3.778 1.012 2 2 0 0 1-.408 1.219l-1.617 2.156zM5.25 7.95v-2.7h2.025v.675a.675.675 0 0 0 1.35 0V5.25h6.75v.675a.675.675 0 0 0 1.35 0V5.25h2.025v2.7z"/>
</svg>
