<svg xmlns="http://www.w3.org/2000/svg" fill="currentColor" viewBox="0 0 24 24">
  <path d="M18.75 3.9H5.25A1.35 1.35 0 0 0 3.9 5.25v13.5a1.35 1.35 0 0 0 1.35 1.35h13.5a1.35 1.35 0 0 0 1.35-1.35V5.25a1.35 1.35 0 0 0-1.35-1.35M6.6 7.275h10.8a.675.675 0 0 1 0 1.35H6.6a.675.675 0 0 1 0-1.35m0 4.05h6.075a.675.675 0 0 1 0 1.35H6.6a.675.675 0 0 1 0-1.35m3.375 5.4H6.6a.675.675 0 0 1 0-1.35h3.375a.675.675 0 0 1 0 1.35m8.74-4.512a.675.675 0 0 1-.853.427l-1.137-.378v3.788a2.025 2.025 0 1 1-1.35-1.909v-2.816a.675.675 0 0 1 .888-.64l2.025.675a.675.675 0 0 1 .427.853"/>
</svg>
