<svg xmlns="http://www.w3.org/2000/svg" fill="currentColor" viewBox="0 0 24 24">
  <path d="M15.188 20.1h3.562a1.35 1.35 0 0 0 1.35-1.35v-3.177a.675.675 0 0 0-.933-.62 2 2 0 0 1-.755.149c-1.116 0-2.025-.937-2.025-2.086s.909-2.087 2.025-2.087a2 2 0 0 1 .755.15.675.675 0 0 0 .933-.627V7.275a1.35 1.35 0 0 0-1.35-1.35h-3.056a3 3 0 0 0 .018-.338 3.038 3.038 0 0 0-6.075.001 3 3 0 0 0 .019.337H6.6a1.35 1.35 0 0 0-1.35 1.35v2.719a3 3 0 0 0-.337-.019 3.038 3.038 0 0 0 0 6.075 3 3 0 0 0 .337-.019v2.719A1.35 1.35 0 0 0 6.6 20.1h3.562"/>
</svg>
