<svg xmlns="http://www.w3.org/2000/svg" fill="currentColor" viewBox="0 0 24 24">
  <path d="M11.325 5.925v4.05a1.35 1.35 0 0 1-1.35 1.35h-4.05a1.35 1.35 0 0 1-1.35-1.35v-4.05a1.35 1.35 0 0 1 1.35-1.35h4.05a1.35 1.35 0 0 1 1.35 1.35m-1.35 6.75h-4.05a1.35 1.35 0 0 0-1.35 1.35v4.05a1.35 1.35 0 0 0 1.35 1.35h4.05a1.35 1.35 0 0 0 1.35-1.35v-4.05a1.35 1.35 0 0 0-1.35-1.35m8.1-8.1h-4.05a1.35 1.35 0 0 0-1.35 1.35v4.05a1.35 1.35 0 0 0 1.35 1.35h4.05a1.35 1.35 0 0 0 1.35-1.35v-4.05a1.35 1.35 0 0 0-1.35-1.35m-4.725 12.15a.675.675 0 0 0 .675-.675v-2.7a.675.675 0 0 0-1.35 0v2.7a.675.675 0 0 0 .675.675m5.4-2.7h-2.025v-.675a.675.675 0 0 0-1.35 0v4.725H13.35a.675.675 0 0 0 0 1.35h2.7a.675.675 0 0 0 .675-.675v-3.375h2.025a.675.675 0 0 0 0-1.35m0 2.7a.675.675 0 0 0-.675.675v1.35a.675.675 0 0 0 1.35 0V17.4a.675.675 0 0 0-.675-.675"/>
</svg>
