<svg xmlns="http://www.w3.org/2000/svg" fill="currentColor" viewBox="0 0 24 24">
  <path d="M20.1 5.25v8.775a1.35 1.35 0 0 1-1.35 1.35h-8.1v1.35a.675.675 0 0 1-1.153.478l-2.025-2.025a.675.675 0 0 1 0-.956l2.025-2.025a.675.675 0 0 1 1.153.478v1.35h8.1V5.25H9.3v.675a.675.675 0 0 1-1.35 0V5.25A1.35 1.35 0 0 1 9.3 3.9h9.45a1.35 1.35 0 0 1 1.35 1.35M15.375 17.4a.675.675 0 0 0-.675.675v.675H5.25V9.975h8.1v1.35a.675.675 0 0 0 1.153.478l2.025-2.025a.675.675 0 0 0 0-.956l-2.025-2.025a.675.675 0 0 0-1.153.478v1.35h-8.1a1.35 1.35 0 0 0-1.35 1.35v8.775a1.35 1.35 0 0 0 1.35 1.35h9.45a1.35 1.35 0 0 0 1.35-1.35v-.675a.675.675 0 0 0-.675-.675"/>
</svg>
