<svg xmlns="http://www.w3.org/2000/svg" fill="currentColor" viewBox="0 0 24 24">
  <path d="M10.453 13.547a.675.675 0 0 1 0 .956l-2.224 2.222 1.549 1.547a.675.675 0 0 1-.478 1.153H5.25a.675.675 0 0 1-.675-.675V14.7a.675.675 0 0 1 1.153-.478l1.547 1.549 2.222-2.224a.675.675 0 0 1 .956 0M8.229 7.275l1.549-1.547A.675.675 0 0 0 9.3 4.575H5.25a.675.675 0 0 0-.675.675V9.3a.675.675 0 0 0 1.153.478l1.547-1.549 2.222 2.224a.675.675 0 0 0 .956-.956zm10.521-2.7H14.7a.675.675 0 0 0-.478 1.153l1.549 1.547-2.224 2.222a.675.675 0 0 0 .956.956l2.222-2.224 1.547 1.549a.675.675 0 0 0 1.153-.478V5.25a.675.675 0 0 0-.675-.675m.258 9.501a.675.675 0 0 0-.736.146l-1.547 1.549-2.222-2.224a.675.675 0 0 0-.956.956l2.224 2.222-1.549 1.547a.675.675 0 0 0 .478 1.153h4.05a.675.675 0 0 0 .675-.675V14.7a.675.675 0 0 0-.417-.624"/>
</svg>
