<svg xmlns="http://www.w3.org/2000/svg" fill="currentColor" viewBox="0 0 24 24">
  <path d="M19.351 11.632a.675.675 0 1 0-1.202-.614 6.7 6.7 0 0 1-2.791 2.826l-1.539-3.463a3.038 3.038 0 0 0-1.144-5.392V3.225a.675.675 0 0 0-1.35 0v1.764a3.038 3.038 0 0 0-1.144 5.392l-4.198 9.445a.675.675 0 1 0 1.234.548l2.121-4.772A8 8 0 0 0 12 16.05a8.4 8.4 0 0 0 2.666-.44l2.117 4.764a.675.675 0 0 0 1.234-.548l-2.11-4.746a8.1 8.1 0 0 0 3.444-3.448M12 14.7a6.7 6.7 0 0 1-2.109-.338l1.525-3.432a3 3 0 0 0 1.171 0l1.531 3.443A7 7 0 0 1 12 14.7"/>
</svg>
