<svg xmlns="http://www.w3.org/2000/svg" fill="currentColor" viewBox="0 0 24 24">
  <path d="M20.1 5.25H3.9A1.35 1.35 0 0 0 2.55 6.6v10.8a1.35 1.35 0 0 0 1.35 1.35h16.2a1.35 1.35 0 0 0 1.35-1.35V6.6a1.35 1.35 0 0 0-1.35-1.35M7.275 15.375a.68.68 0 0 1-.478-.197l-2.025-2.025a.675.675 0 0 1 .956-.956l1.547 1.549 4.922-4.924a.675.675 0 0 1 .956.956l-5.4 5.4a.68.68 0 0 1-.478.197m11.953-5.597-5.4 5.4a.675.675 0 0 1-.956 0l-1.35-1.35a.675.675 0 0 1 .956-.956l.872.874 4.922-4.924a.675.675 0 0 1 .956.956"/>
</svg>
