<svg xmlns="http://www.w3.org/2000/svg" fill="currentColor" viewBox="0 0 24 24">
  <path d="M7.975 11.347a4.9 4.9 0 0 1 .059-1.957c.196-.849.582-1.44.937-1.44.217 0 .248.057.263.084.074.136.338.922-1.065 3.926a2.4 2.4 0 0 1-.194-.613m12.8-5.422v12.15a1.35 1.35 0 0 1-1.35 1.35H4.575a1.35 1.35 0 0 1-1.35-1.35V5.925a1.35 1.35 0 0 1 1.35-1.35h14.85a1.35 1.35 0 0 1 1.35 1.35M8.287 14.7c.169-.303.332-.618.498-.94.872-.027 1.874-.639 2.993-1.829.422.818.96 1.287 1.592 1.396q1.014.172 2.02-.945c.506.467 1.363.968 2.683.968a.675.675 0 0 0 0-1.35c-1.511 0-2.05-.918-2.096-1.001a.66.66 0 0 0-.551-.38.68.68 0 0 0-.612.304c-.572.844-1.002 1.11-1.214 1.074-.338-.058-.772-.844-.948-1.519a.675.675 0 0 0-1.181-.253c-.749.923-1.375 1.501-1.867 1.827 1.333-3.008 1.12-4.1.81-4.666-.156-.293-.558-.786-1.443-.786-1.05 0-1.892.928-2.252 2.486a6.3 6.3 0 0 0-.07 2.515c.143.751.436 1.327.857 1.698-.253.49-.514.964-.759 1.401h-.822a.675.675 0 0 0 0 1.35h.037c-.359.601-.6.978-.606.986a.675.675 0 0 0 1.138.728c.03-.046.462-.723 1.037-1.714h10.544a.675.675 0 0 0 0-1.35z"/>
</svg>
