<svg xmlns="http://www.w3.org/2000/svg" fill="currentColor" viewBox="0 0 24 24">
  <path d="M8.287 5.588v3.375H3.563a.34.34 0 0 1-.338-.338V6.6a1.35 1.35 0 0 1 1.35-1.35H7.95a.34.34 0 0 1 .337.338m1.35 12.825a.34.34 0 0 0 .338.337h4.05a.34.34 0 0 0 .338-.337v-3.376H9.637zm-6.412-3.038V17.4a1.35 1.35 0 0 0 1.35 1.35H7.95a.34.34 0 0 0 .338-.337v-3.376H3.563a.34.34 0 0 0-.338.338m0-4.725v2.7a.34.34 0 0 0 .338.337h4.724v-3.374H3.563a.34.34 0 0 0-.338.337m10.8-5.4h-4.05a.34.34 0 0 0-.338.338v3.375h4.726V5.588a.34.34 0 0 0-.338-.338m6.413 5.063h-4.725v3.375h4.725a.34.34 0 0 0 .337-.338v-2.7a.34.34 0 0 0-.337-.337M9.637 13.688h4.725v-3.375H9.637zm9.788-8.438H16.05a.34.34 0 0 0-.338.338v3.375h4.726a.34.34 0 0 0 .337-.338V6.6a1.35 1.35 0 0 0-1.35-1.35m1.013 9.788h-4.725v3.375a.34.34 0 0 0 .337.337h3.375a1.35 1.35 0 0 0 1.35-1.35v-2.025a.34.34 0 0 0-.337-.338z"/>
</svg>
