<svg xmlns="http://www.w3.org/2000/svg" fill="currentColor" viewBox="0 0 24 24">
  <path d="M18.75 3.9H5.25A1.35 1.35 0 0 0 3.9 5.25v13.5a1.35 1.35 0 0 0 1.35 1.35h13.5a1.35 1.35 0 0 0 1.35-1.35V5.25a1.35 1.35 0 0 0-1.35-1.35m-6.872 12.438a.675.675 0 1 1-1.106.774l-1.809-2.581-1.81 2.581a.675.675 0 1 1-1.106-.774l2.091-2.988-2.091-2.988a.675.675 0 1 1 1.106-.774l1.81 2.585 1.809-2.585a.675.675 0 0 1 1.106.774L9.787 13.35zM17.4 14.7h-3.375a.675.675 0 0 1-.54-1.08l3.038-4.05a1.013 1.013 0 1 0-1.616-1.22 1.1 1.1 0 0 0-.218.406.675.675 0 1 1-1.323-.269 2.377 2.377 0 1 1 4.236 1.894l-2.227 2.969H17.4a.675.675 0 0 1 0 1.35"/>
</svg>
