<svg xmlns="http://www.w3.org/2000/svg" fill="currentColor" viewBox="0 0 24 24">
  <path d="M11.009 10.65h2.657l-.675 2.7h-2.657zm9.091-5.4v13.5a1.35 1.35 0 0 1-1.35 1.35H5.25a1.35 1.35 0 0 1-1.35-1.35V5.25A1.35 1.35 0 0 1 5.25 3.9h13.5a1.35 1.35 0 0 1 1.35 1.35m-1.35 4.725a.675.675 0 0 0-.675-.675h-2.679l.634-2.536a.675.675 0 0 0-1.31-.328L14.004 9.3h-2.658l.634-2.536a.675.675 0 0 0-1.31-.328L9.954 9.3H6.6a.675.675 0 0 0 0 1.35h3.016l-.675 2.7H5.925a.675.675 0 0 0 0 1.35h2.679l-.634 2.536a.675.675 0 0 0 .491.819.7.7 0 0 0 .169.02.675.675 0 0 0 .654-.511l.712-2.864h2.658l-.634 2.536a.675.675 0 0 0 .491.819.7.7 0 0 0 .164.02.675.675 0 0 0 .654-.511l.717-2.864H17.4a.675.675 0 0 0 0-1.35h-3.016l.675-2.7h3.016a.675.675 0 0 0 .675-.675"/>
</svg>
