<svg xmlns="http://www.w3.org/2000/svg" fill="currentColor" viewBox="0 0 24 24">
  <path d="M22.125 7.95v8.1a1.35 1.35 0 0 1-1.35 1.35h-7.763a.34.34 0 0 1-.337-.337V6.938a.34.34 0 0 1 .337-.338h7.763a1.35 1.35 0 0 1 1.35 1.35m-10.8-2.7v13.5a.675.675 0 0 1-1.35 0V17.4h-6.75a1.35 1.35 0 0 1-1.35-1.35v-8.1a1.35 1.35 0 0 1 1.35-1.35h6.75V5.25a.675.675 0 0 1 1.35 0m-2.7 5.4a.675.675 0 0 0-.675-.675h-2.7a.675.675 0 0 0 0 1.35h.675v2.025a.675.675 0 0 0 1.35 0v-2.025h.675a.675.675 0 0 0 .675-.675"/>
</svg>
