<svg xmlns="http://www.w3.org/2000/svg" fill="currentColor" viewBox="0 0 24 24">
  <path d="M21.156 16.986 9.091 8.728a3.038 3.038 0 1 0-1.214 1.457l1.805 1.83-1.804 1.802a3.03 3.03 0 1 0 1.214 1.458l2.27-1.554 4.182 4.239a2.72 2.72 0 0 0 1.915.791 3 3 0 0 0 .347-.023h.023l3.061-.515a.675.675 0 0 0 .269-1.224zm-13.7-8.185a1.688 1.688 0 1 1 .494-1.188 1.7 1.7 0 0 1-.494 1.192zm0 8.775a1.688 1.688 0 1 1 .494-1.188 1.7 1.7 0 0 1-.494 1.193zm5.146-8.564 2.937-2.969a2.72 2.72 0 0 1 2.264-.771h.024l3.037.512a.7.7 0 0 1 .514.373.675.675 0 0 1-.225.854l-5.9 4.037a.34.34 0 0 1-.381 0l-2.22-1.518a.338.338 0 0 1-.046-.513z"/>
</svg>
