<svg xmlns="http://www.w3.org/2000/svg" fill="currentColor" viewBox="0 0 24 24">
  <path d="M19.425 5.925v5.063a.34.34 0 0 1-.338.337h-6.412V4.913a.34.34 0 0 1 .338-.338h5.062a1.35 1.35 0 0 1 1.35 1.35m-8.437-1.35H5.925a1.35 1.35 0 0 0-1.35 1.35v5.063a.34.34 0 0 0 .338.337h6.412V4.913a.34.34 0 0 0-.337-.338m8.1 8.1h-6.413v6.413a.34.34 0 0 0 .338.337h5.062a1.35 1.35 0 0 0 1.35-1.35v-5.063a.34.34 0 0 0-.337-.337m-14.513.337v5.063a1.35 1.35 0 0 0 1.35 1.35h5.063a.34.34 0 0 0 .337-.338v-6.412H4.913a.34.34 0 0 0-.338.337"/>
</svg>
