<svg xmlns="http://www.w3.org/2000/svg" fill="currentColor" viewBox="0 0 24 24">
  <path d="M11.171 19.179q-.014.018-.03.033l-.013.016-.015.012-.035.031-.027.022-.026.018-.032.02-.025.014-.031.016-.029.013-.03.011-.032.01-.031.009c-.012 0-.022.006-.033.008l-.036.005-.029.005H6.6a.675.675 0 0 1 0-1.35h2.421l-3.18-3.175a2 2 0 0 1-.591-1.434V9.216a2.7 2.7 0 1 1 1.35 0v4.25a.68.68 0 0 0 .197.475l3.178 3.18V14.7a.675.675 0 0 1 1.35 0v4.145c0 .009 0 .025-.006.038l-.008.032q-.002.017-.008.032l-.01.03-.012.033-.013.026-.016.034-.013.023-.02.033-.018.024zm7.579-4.395v-4.25a2 2 0 0 0-.591-1.434l-3.18-3.175H17.4a.675.675 0 0 0 0-1.35h-4.116q-.018-.001-.034.005h-.032l-.036.009-.028.007-.034.012-.028.011-.03.013-.03.016-.026.015-.031.018-.026.02-.027.02-.035.031-.015.013-.013.015q-.016.016-.03.034l-.022.029-.018.024-.02.033-.014.023c-.005.007-.011.023-.016.034l-.013.026-.011.033c0 .01-.008.019-.01.03l-.009.033-.008.031q.001.02-.005.039c-.006.019 0 .018-.005.027V9.3a.675.675 0 0 0 1.35 0V6.879l3.175 3.18a.68.68 0 0 1 .197.478v4.247a2.7 2.7 0 1 0 1.35 0"/>
</svg>
