<svg xmlns="http://www.w3.org/2000/svg" fill="currentColor" viewBox="0 0 24 24">
  <path d="m19.228 8.147-4.725-4.725a.68.68 0 0 0-.478-.197h-8.1a1.35 1.35 0 0 0-1.35 1.35v14.85a1.35 1.35 0 0 0 1.35 1.35h12.15a1.35 1.35 0 0 0 1.35-1.35v-10.8a.68.68 0 0 0-.197-.478m-4.725 7.425a.675.675 0 0 1-.956.956L12 14.979l-1.547 1.549a.675.675 0 0 1-.956-.956l1.549-1.547-1.549-1.547a.675.675 0 0 1 .956-.956L12 13.071l1.547-1.549a.675.675 0 0 1 .956.956l-1.549 1.547zm-.478-6.947V4.913l3.713 3.712z"/>
</svg>
