<svg xmlns="http://www.w3.org/2000/svg" fill="currentColor" viewBox="0 0 24 24">
  <path d="m21.928 7.753-2.523 2.522c-.51 5.908-5.492 10.5-11.455 10.5-1.225 0-2.235-.194-3.002-.577-.618-.31-.872-.641-.935-.736a.675.675 0 0 1 .325-1.006c.022-.008 2.045-.786 3.33-2.265a9.4 9.4 0 0 1-1.846-2.042c-1.046-1.553-2.217-4.252-1.856-8.284a.675.675 0 0 1 1.152-.415c.03.03 2.808 2.793 6.204 3.689v-.514a4.04 4.04 0 0 1 1.212-2.894 3.96 3.96 0 0 1 2.849-1.156A4.1 4.1 0 0 1 18.882 6.6h2.568a.675.675 0 0 1 .478 1.153"/>
</svg>
