<svg xmlns="http://www.w3.org/2000/svg" fill="currentColor" viewBox="0 0 24 24">
  <path d="m21.056 9.975-4.018 4.031a.34.34 0 0 1-.488-.011l-6.237-6.866a.34.34 0 0 1 .01-.465l3.702-3.717a1.35 1.35 0 0 1 1.909 0l5.121 5.119a1.35 1.35 0 0 1 .001 1.909M5.75 4.121a.675.675 0 0 0-1.013.018.69.69 0 0 0 .031.907L6.88 7.372c-.764.164-1.613.525-2.474 1.222a1.35 1.35 0 0 0-.109 2.006l4.075 4.076-3.582 3.58a.69.69 0 0 0-.05.935.675.675 0 0 0 .988.037l3.596-3.6 4.075 4.075a1.35 1.35 0 0 0 .955.397h.095a1.34 1.34 0 0 0 .983-.534 7.5 7.5 0 0 0 .982-1.704l1.837 2.02a.675.675 0 1 0 .999-.908z"/>
</svg>
