<svg xmlns="http://www.w3.org/2000/svg" fill="currentColor" viewBox="0 0 24 24">
  <path d="M15.077 17.706a.675.675 0 0 1-.565 1.044H2.063a.675.675 0 0 1-.565-1.044 8.1 8.1 0 0 1 3.984-3.181 5.063 5.063 0 1 1 5.611 0 8.1 8.1 0 0 1 3.984 3.181m7.418-.012a8.1 8.1 0 0 0-3.977-3.169 5.063 5.063 0 0 0-5.109-8.719.338.338 0 0 0-.112.506 6.4 6.4 0 0 1 .306 7.589.34.34 0 0 0 .09.467 9.5 9.5 0 0 1 2.519 2.601 2.02 2.02 0 0 1 .308 1.39.338.338 0 0 0 .333.391h5.088a.675.675 0 0 0 .652-.5.7.7 0 0 0-.098-.556"/>
</svg>
