<svg xmlns="http://www.w3.org/2000/svg" fill="currentColor" viewBox="0 0 24 24">
  <path d="m22.637 10.21-3.842-4.477a1.35 1.35 0 0 0-1.036-.483H3.9A1.35 1.35 0 0 0 2.55 6.6v9.45A1.35 1.35 0 0 0 3.9 17.4h1.434a2.7 2.7 0 0 0 5.232 0h4.218a2.7 2.7 0 0 0 5.232 0h1.434a1.35 1.35 0 0 0 1.35-1.35v-5.4a.68.68 0 0 0-.163-.44M3.9 9.975V6.6h4.725v3.375zm4.05 8.1a1.35 1.35 0 1 1 1.35-1.35 1.35 1.35 0 0 1-1.35 1.35m6.75-8.1H9.975V6.6H14.7zm2.7 8.1a1.35 1.35 0 1 1 1.35-1.35 1.35 1.35 0 0 1-1.35 1.35m-1.35-8.1V6.6h1.709l2.897 3.375z"/>
</svg>
