<svg xmlns="http://www.w3.org/2000/svg" fill="currentColor" viewBox="0 0 24 24">
  <path d="m14.074 13.454 1.941.968a2.025 2.025 0 0 1-1.99 1.628A6.08 6.08 0 0 1 7.95 9.975a2.025 2.025 0 0 1 1.628-1.986l.968 1.94-.824 1.227a.68.68 0 0 0-.062.634 4.76 4.76 0 0 0 2.544 2.544.68.68 0 0 0 .64-.056zM20.775 12a8.775 8.775 0 0 1-12.899 7.747l-2.873.958a1.35 1.35 0 0 1-1.708-1.708l.958-2.873A8.775 8.775 0 1 1 20.775 12M17.4 14.025a.68.68 0 0 0-.373-.604l-2.7-1.35a.68.68 0 0 0-.675.042l-1.239.827a3.4 3.4 0 0 1-1.35-1.35l.826-1.24a.68.68 0 0 0 .043-.675l-1.35-2.7a.68.68 0 0 0-.607-.375A3.375 3.375 0 0 0 6.6 9.975a7.433 7.433 0 0 0 7.425 7.425 3.375 3.375 0 0 0 3.375-3.375"/>
</svg>
