<svg xmlns="http://www.w3.org/2000/svg" fill="currentColor" viewBox="0 0 24 24">
  <path d="M20.972 7.066a2.03 2.03 0 0 0-1.223-1.384C16.857 4.565 12.253 4.575 12 4.575s-4.857-.01-7.749 1.107a2.03 2.03 0 0 0-1.223 1.384C2.81 7.908 2.55 9.447 2.55 12s.26 4.092.478 4.934a2.03 2.03 0 0 0 1.223 1.385c2.771 1.069 7.108 1.106 7.693 1.106h.112c.586 0 4.925-.037 7.693-1.106a2.03 2.03 0 0 0 1.223-1.385c.219-.844.478-2.381.478-4.934s-.26-4.092-.478-4.934M14.75 12.55l-3.375 2.363a.675.675 0 0 1-1.062-.55V9.637a.675.675 0 0 1 1.062-.552l3.375 2.362a.675.675 0 0 1 0 1.106z"/>
</svg>
