<svg width="24" height="24" viewBox="0 0 24 24" fill="none" xmlns="http://www.w3.org/2000/svg">
<path d="M19.8743 7.5C21.0809 7.5 21.4409 9.14023 20.343 9.64648L14.9993 12L17.1438 20.1494C17.2649 20.4191 17.2752 20.7259 17.1721 21.0029C17.0691 21.2798 16.8608 21.505 16.593 21.6299C16.3252 21.7547 16.0189 21.7689 15.7405 21.6699C15.4621 21.5708 15.2335 21.3665 15.1048 21.1006L11.9993 15.75L8.89481 21.1006C8.76608 21.3666 8.53747 21.5708 8.25906 21.6699C7.9806 21.7691 7.67442 21.7548 7.40652 21.6299C7.13867 21.505 6.93052 21.2799 6.82742 21.0029C6.72432 20.7259 6.73469 20.4191 6.85574 20.1494L8.9993 12L3.65555 9.64648C2.5602 9.14006 2.92001 7.50028 4.1243 7.5H19.8743ZM12.0003 1.5C13.2428 1.50018 14.2503 2.50747 14.2503 3.75C14.2503 4.99253 13.2428 5.99982 12.0003 6C10.7576 6 9.75027 4.99264 9.75027 3.75C9.75027 2.50736 10.7576 1.5 12.0003 1.5Z" fill="black" fill-opacity="0.2"/>
<path d="M11.9996 6C13.2423 6 14.2496 4.99264 14.2496 3.75C14.2496 2.50736 13.2423 1.5 11.9996 1.5C10.757 1.5 9.74963 2.50736 9.74963 3.75C9.74963 4.99264 10.757 6 11.9996 6Z" stroke="black" stroke-width="1.5" stroke-linecap="round" stroke-linejoin="round"/>
<path d="M3.65592 9.64688C2.55998 9.14063 2.91998 7.5 4.12467 7.5H19.8747C21.0812 7.5 21.4412 9.14063 20.3434 9.64688L14.9997 12L17.1437 20.1497C17.2648 20.4193 17.2748 20.7258 17.1717 21.0028C17.0686 21.2798 16.8607 21.5052 16.5928 21.63C16.3249 21.7549 16.0186 21.7694 15.7401 21.6703C15.4616 21.5711 15.2334 21.3664 15.1047 21.1003L11.9997 15.75L8.89467 21.1003C8.76595 21.3664 8.53769 21.5711 8.25922 21.6703C7.98076 21.7694 7.67447 21.7549 7.40657 21.63C7.13868 21.5052 6.9307 21.2798 6.82759 21.0028C6.72449 20.7258 6.73455 20.4193 6.8556 20.1497L8.99967 12L3.65592 9.64688Z" stroke="black" stroke-width="1.5" stroke-linecap="round" stroke-linejoin="round"/>
</svg>
