<svg xmlns="http://www.w3.org/2000/svg" width="24" height="24" fill="currentColor" viewBox="0 0 24 24"><path d="M9.57 3.09A2.43 2.43 0 1 1 12 5.52a2.43 2.43 0 0 1-2.43-2.43m10.936 4.05H3.496c-1.303 0-1.692 1.772-0.507 2.318L8.76 12l-2.316 8.802a1.216 1.216 0 0 0 2.202 1.027L12 16.051l3.353 5.778a1.216 1.216 0 0 0 2.202-1.027L15.239 12l5.771-2.542c1.183-0.547 0.794-2.318-0.507-2.318z" opacity=".2"/><path d="M15.24 3.09a3.24 3.24 0 1 0-3.24 3.24 3.24 3.24 0 0 0 3.24-3.24M12 4.71a1.62 1.62 0 1 1 1.62-1.62A1.62 1.62 0 0 1 12 4.71m10.48 3.211a1.986 1.986 0 0 0-1.974-1.591H3.496a2.026 2.026 0 0 0-0.849 3.864l0.013 0.006 5.139 2.263-2.127 8.071a2.028 2.028 0 0 0 3.696 1.674l2.633-4.544 2.633 4.544a2.026 2.026 0 0 0 3.685-1.674l-2.126-8.071 5.138-2.263 0.013-0.006a1.987 1.987 0 0 0 1.137-2.273z m-1.803 0.801l-5.763 2.538a0.81 0.81 0 0 0-0.458 0.948l2.316 8.804a0.72 0.72 0 0 0 0.05 0.137 0.406 0.406 0 1 1-0.735 0.342q-0.017-0.034-0.035-0.064l-3.352-5.781a0.81 0.81 0 0 0-1.402 0l-3.349 5.776-0.035 0.064a0.406 0.406 0 1 1-0.734-0.342 0.72 0.72 0 0 0 0.049-0.137l2.312-8.804a0.81 0.81 0 0 0-0.457-0.948L3.32 8.72a0.406 0.406 0 0 1 0.172-0.77h17.01a0.406 0.406 0 0 1 0.175 0.77z"/></svg>