<svg xmlns="http://www.w3.org/2000/svg" fill="currentColor" viewBox="0 0 24 24" width="24" height="24"><path d="M3.9 3.09a0.81 0.81 0 0 0-0.81 0.81v16.2a0.81 0.81 0 0 0 0.81 0.81h13.77V3.09z m6.48 10.53a2.43 2.43 0 1 1 2.43-2.43 2.43 2.43 0 0 1-2.43 2.43" opacity=".2"/><path d="M20.1 2.28H3.9A1.62 1.62 0 0 0 2.28 3.9v16.2a1.62 1.62 0 0 0 1.62 1.62h16.2a1.62 1.62 0 0 0 1.62-1.62V3.9a1.62 1.62 0 0 0-1.62-1.62M18.48 9.57h1.62v4.86H18.48z m1.62-1.62H18.48V3.9h1.62zM3.9 3.9h12.96v16.2H3.9z m16.2 16.2H18.48v-4.05h1.62z m-5.695-4.253a4.032 4.032 0 0 0-1.74-2.363 3.24 3.24 0 1 0-4.569 0 4.032 4.032 0 0 0-1.74 2.363 0.81 0.81 0 0 0 1.57 0.406c0.268-1.038 1.322-1.823 2.455-1.823s2.189 0.782 2.455 1.823a0.81 0.81 0 1 0 1.57-0.406zM8.76 11.19a1.62 1.62 0 1 1 1.62 1.62 1.62 1.62 0 0 1-1.62-1.62"/></svg>