<svg width="24" height="24" viewBox="0 0 24 24" fill="none" xmlns="http://www.w3.org/2000/svg">
<path d="M4.5 3.75C4.30109 3.75 4.11032 3.82902 3.96967 3.96967C3.82902 4.11032 3.75 4.30109 3.75 4.5V19.5C3.75 19.6989 3.82902 19.8897 3.96967 20.0303C4.11032 20.171 4.30109 20.25 4.5 20.25H17.25V3.75H4.5ZM10.5 13.5C10.055 13.5 9.61998 13.368 9.24997 13.1208C8.87996 12.8736 8.59157 12.5222 8.42127 12.111C8.25097 11.6999 8.20642 11.2475 8.29323 10.811C8.38005 10.3746 8.59434 9.97368 8.90901 9.65901C9.22368 9.34434 9.62459 9.13005 10.061 9.04323C10.4975 8.95642 10.9499 9.00097 11.361 9.17127C11.7722 9.34157 12.1236 9.62996 12.3708 9.99997C12.618 10.37 12.75 10.805 12.75 11.25C12.75 11.8467 12.5129 12.419 12.091 12.841C11.669 13.2629 11.0967 13.5 10.5 13.5Z" fill="black" fill-opacity="0.2"/>
<path d="M17.25 15H20.25M17.25 9H20.25M10.5 13.5C11.7426 13.5 12.75 12.4926 12.75 11.25C12.75 10.0074 11.7426 9 10.5 9C9.25736 9 8.25 10.0074 8.25 11.25C8.25 12.4926 9.25736 13.5 10.5 13.5ZM10.5 13.5C9.10219 13.5 7.83281 14.4562 7.5 15.75M10.5 13.5C11.8978 13.5 13.1681 14.4553 13.5 15.75M17.25 3.75V20.25M4.5 3.75H19.5C19.9142 3.75 20.25 4.08579 20.25 4.5V19.5C20.25 19.9142 19.9142 20.25 19.5 20.25H4.5C4.08579 20.25 3.75 19.9142 3.75 19.5V4.5C3.75 4.08579 4.08579 3.75 4.5 3.75Z" stroke="black" stroke-width="1.5" stroke-linecap="round" stroke-linejoin="round"/>
</svg>
