<svg xmlns="http://www.w3.org/2000/svg" fill="currentColor" viewBox="0 0 24 24" width="24" height="24"><path d="M5.25 4.575a.675.675 0 0 0-.675.675v13.5a.675.675 0 0 0 .675.675h11.475V4.575zm5.4 8.775a2.025 2.025 0 1 1 2.025-2.025 2.025 2.025 0 0 1-2.025 2.025" opacity=".2"/><path d="M18.75 3.9H5.25A1.35 1.35 0 0 0 3.9 5.25v13.5a1.35 1.35 0 0 0 1.35 1.35h13.5a1.35 1.35 0 0 0 1.35-1.35V5.25a1.35 1.35 0 0 0-1.35-1.35M17.4 9.975h1.35v4.05H17.4zm1.35-1.35H17.4V5.25h1.35zM5.25 5.25h10.8v13.5H5.25zm13.5 13.5H17.4v-3.375h1.35zm-4.746-3.544a3.36 3.36 0 0 0-1.45-1.969 2.7 2.7 0 1 0-3.807 0 3.36 3.36 0 0 0-1.45 1.969.675.675 0 0 0 1.308.338c.223-.865 1.102-1.519 2.046-1.519s1.824.652 2.046 1.519a.675.675 0 1 0 1.308-.338zM9.3 11.325a1.35 1.35 0 1 1 1.35 1.35 1.35 1.35 0 0 1-1.35-1.35"/></svg>