<svg xmlns="http://www.w3.org/2000/svg" width="24" height="24" fill="currentColor" viewBox="0 0 24 24"><path d="M20.91 9.57v9.72a0.81 0.81 0 0 1-0.81 0.81H3.9a0.81 0.81 0 0 1-0.81-0.81v-9.72A0.81 0.81 0 0 1 3.9 8.76h16.2a0.81 0.81 0 0 1 0.81 0.81" opacity=".2"/><path d="M20.1 7.95H3.9a1.62 1.62 0 0 0-1.62 1.62v9.72a1.62 1.62 0 0 0 1.62 1.62h16.2a1.62 1.62 0 0 0 1.62-1.62v-9.72a1.62 1.62 0 0 0-1.62-1.62m0 11.34H3.9v-9.72h16.2zM3.9 5.52a0.81 0.81 0 0 1 0.81-0.81h14.58a0.81 0.81 0 0 1 0 1.62H4.71A0.81 0.81 0 0 1 3.9 5.52M5.52 2.28a0.81 0.81 0 0 1 0.81-0.81h11.34a0.81 0.81 0 0 1 0 1.62h-11.34A0.81 0.81 0 0 1 5.52 2.28"/></svg>