<svg viewBox="0 0 24 24" fill="none" xmlns="http://www.w3.org/2000/svg" width="24" height="24">
<path d="M20.1 13.62H3.9C3.453 13.62 3.09 13.983 3.09 14.43V18.48C3.09 18.927 3.453 19.29 3.9 19.29H20.1C20.548 19.29 20.91 18.927 20.91 18.48V14.43C20.91 13.983 20.548 13.62 20.1 13.62Z" fill="black" fill-opacity="0.2"/>
<path d="M11.4 4.71V2.28C11.4 1.949 11.669 1.68 12 1.68 12.332 1.68 12.6 1.949 12.6 2.28V4.71C12.6 5.042 12.331 5.31 12 5.31 11.669 5.31 11.4 5.042 11.4 4.71Z" fill="black"/>
<path d="M11.4 21.72V19.29C11.4 18.959 11.669 18.69 12 18.69 12.332 18.69 12.6 18.959 12.6 19.29V21.72C12.6 22.052 12.331 22.32 12 22.32 11.669 22.32 11.4 22.052 11.4 21.72Z" fill="black"/>
<path d="M11.4 13.62V10.38C11.4 10.049 11.669 9.78 12 9.78 12.332 9.78 12.6 10.049 12.6 10.38V13.62C12.6 13.951 12.332 14.22 12 14.22 11.669 14.22 11.4 13.951 11.4 13.62Z" fill="black"/>
<path d="M19.08 9.57C19.08 10.348 18.449 10.979 17.67 10.979H6.33C5.551 10.979 4.92 10.348 4.92 9.57V5.52C4.92 4.741 5.551 4.11 6.33 4.11H17.67C18.449 4.11 19.08 4.741 19.08 5.52V9.57Z" fill="black"/>
<path d="M20.31 14.43C20.31 14.314 20.216 14.22 20.1 14.22H3.9C3.784 14.22 3.69 14.314 3.69 14.43V18.48C3.69 18.596 3.784 18.689 3.9 18.689H20.1C20.216 18.689 20.31 18.596 20.31 18.48V14.43ZM21.51 18.48C21.51 19.258 20.879 19.889 20.1 19.889H3.9C3.121 19.889 2.49 19.258 2.49 18.48V14.43C2.49 13.651 3.121 13.02 3.9 13.02H20.1C20.879 13.02 21.51 13.651 21.51 14.43V18.48Z" fill="black"/>
</svg>