<svg width="24" height="24" viewBox="0 0 24 24" fill="none" xmlns="http://www.w3.org/2000/svg">
<path d="M19.5 13.5C19.9142 13.5 20.25 13.8358 20.25 14.25V18C20.2497 18.414 19.9141 18.75 19.5 18.75H12.75C12.3359 18.75 12.0003 18.414 12 18V14.25C12 13.8358 12.3358 13.5 12.75 13.5H19.5Z" fill="black" fill-opacity="0.2"/>
<path d="M17.2471 5.24414C17.661 5.24427 17.9968 5.58023 17.9971 5.99414V9.74414C17.9971 10.1583 17.6612 10.494 17.2471 10.4941H12.75C12.3358 10.4941 12 10.1584 12 9.74414V5.99414C12.0003 5.58015 12.3359 5.24414 12.75 5.24414H17.2471Z" fill="black" fill-opacity="0.2"/>
<path d="M11.9995 3L11.9995 21M3.75 14.25V18C3.75 18.4142 4.08579 18.75 4.5 18.75H19.5C19.9142 18.75 20.25 18.4142 20.25 18V14.25C20.25 13.8358 19.9142 13.5 19.5 13.5H4.5C4.08579 13.5 3.75 13.8358 3.75 14.25ZM6 6V9.75C6 10.1642 6.33579 10.5 6.75 10.5H17.25C17.6642 10.5 18 10.1642 18 9.75V6C18 5.58579 17.6642 5.25 17.25 5.25H6.75C6.33579 5.25 6 5.58579 6 6Z" stroke="black" stroke-width="1.5" stroke-linecap="round"/>
</svg>
