<svg viewBox="0 0 24 24" fill="none" xmlns="http://www.w3.org/2000/svg" width="24" height="24">
<path d="M14.105 20.405C13.608 20.405 13.205 20.002 13.205 19.505V4.505C13.205 4.008 13.608 3.605 14.105 3.605H18.305C18.802 3.605 19.205 4.008 19.205 4.505V19.505C19.205 20.002 18.802 20.405 18.305 20.405H14.105Z" fill="black" fill-opacity="0.2"/>
<path d="M21 22.8C21.331 22.8 21.6 23.069 21.6 23.4 21.6 23.731 21.331 24 21 24H3C2.669 24 2.4 23.731 2.4 23.4 2.4 23.069 2.669 22.8 3 22.8H21Z" fill="black"/>
<path d="M21 0.009C21.331 0.009 21.6 0.278 21.6 0.609 21.6 0.941 21.331 1.209 21 1.209H3C2.669 1.209 2.4 0.941 2.4 0.609 2.4 0.278 2.669 0.009 3 0.009H21Z" fill="black"/>
<path d="M9.905 3.605C10.371 3.605 10.754 3.959 10.8 4.412L10.805 4.505V19.505L10.8 19.597C10.757 20.02 10.42 20.357 9.997 20.4L9.905 20.405H5.705C5.208 20.405 4.805 20.002 4.805 19.505V4.505C4.805 4.008 5.208 3.605 5.705 3.605H9.905Z" fill="black"/>
<path d="M18.005 19.205V4.805H14.405V19.205H18.005ZM18.305 3.605C18.771 3.605 19.154 3.959 19.2 4.412L19.205 4.505V19.505L19.2 19.597C19.157 20.02 18.82 20.357 18.397 20.4L18.305 20.405H14.105C13.608 20.405 13.205 20.002 13.205 19.505V4.505C13.205 4.008 13.608 3.605 14.105 3.605H18.305Z" fill="black"/>
</svg>