<svg width="24" height="24" viewBox="0 0 24 24" fill="none" xmlns="http://www.w3.org/2000/svg">
<rect x="18.75" y="18.0005" width="5.25" height="10.5" rx="0.75" transform="rotate(180 18.75 18.0005)" fill="black" fill-opacity="0.2"/>
<path d="M20.25 21.0005L3.75 21.0005M9.75 3.75049L6 3.75049C5.58578 3.75049 5.25 4.08627 5.25 4.50049L5.25 17.2505C5.25 17.6647 5.58579 18.0005 6 18.0005H9.75C10.1642 18.0005 10.5 17.6647 10.5 17.2505L10.5 4.50049C10.5 4.08627 10.1642 3.75049 9.75 3.75049ZM18 7.50049L14.25 7.50049C13.8358 7.50049 13.5 7.83627 13.5 8.25049L13.5 17.2505C13.5 17.6647 13.8358 18.0005 14.25 18.0005H18C18.4142 18.0005 18.75 17.6647 18.75 17.2505L18.75 8.25049C18.75 7.83627 18.4142 7.50049 18 7.50049Z" stroke="black" stroke-width="1.5" stroke-linecap="round" stroke-linejoin="round"/>
</svg>
