<svg viewBox="0 0 24 24" fill="none" xmlns="http://www.w3.org/2000/svg" width="24" height="24">
<path d="M4.71 6.329L4.71 17.669C4.71 18.117 5.072 18.479 5.52 18.479H9.57C10.017 18.479 10.38 18.117 10.38 17.669V6.329C10.38 5.882 10.017 5.519 9.57 5.519H5.52C5.072 5.519 4.71 5.882 4.71 6.329Z" fill="black" fill-opacity="0.2"/>
<path d="M13.62 3.9V20.1C13.62 20.547 13.983 20.91 14.43 20.91H18.48C18.927 20.91 19.29 20.547 19.29 20.1V3.9C19.29 3.452 18.927 3.09 18.48 3.09H14.43C13.983 3.09 13.62 3.452 13.62 3.9Z" fill="black" fill-opacity="0.2"/>
<path fill-rule="evenodd" clip-rule="evenodd" d="M4.11 12.6H2.28C1.949 12.6 1.68 12.331 1.68 12 1.68 11.668 1.949 11.4 2.28 11.4H4.11V12.6Z" fill="black"/>
<path d="M21.72 12.6H19.889 19.29C19.111 12.6 18.951 12.522 18.841 12.398 18.747 12.292 18.69 12.153 18.69 12 18.69 11.847 18.747 11.707 18.841 11.601 18.951 11.478 19.111 11.4 19.29 11.4H19.889 21.72C22.052 11.4 22.32 11.669 22.32 12 22.32 12.331 22.052 12.6 21.72 12.6Z" fill="black"/>
<path fill-rule="evenodd" clip-rule="evenodd" d="M10.979 12.6H13.02V11.4H10.979 10.38C10.2 11.4 10.038 11.479 9.928 11.605 9.836 11.711 9.78 11.849 9.78 12 9.78 12.151 9.836 12.289 9.928 12.395 10.038 12.52 10.2 12.6 10.38 12.6H10.979Z" fill="black"/>
<path fill-rule="evenodd" clip-rule="evenodd" d="M9.928 11.605C10.038 11.479 10.2 11.4 10.38 11.4H10.979V12.6H10.38C10.2 12.6 10.038 12.52 9.928 12.395 9.836 12.289 9.78 12.151 9.78 12 9.78 11.849 9.836 11.711 9.928 11.605Z" fill="black"/>
<path fill-rule="evenodd" clip-rule="evenodd" d="M18.841 12.398C18.747 12.292 18.69 12.153 18.69 12 18.69 11.847 18.747 11.707 18.841 11.601 18.951 11.478 19.111 11.4 19.29 11.4H19.889V12.6H19.29C19.111 12.6 18.951 12.522 18.841 12.398Z" fill="black"/>
<path fill-rule="evenodd" clip-rule="evenodd" d="M9.78 12C9.78 12.151 9.836 12.289 9.928 12.395V11.605C9.836 11.711 9.78 11.849 9.78 12Z" fill="black"/>
<path fill-rule="evenodd" clip-rule="evenodd" d="M18.69 12C18.69 12.153 18.747 12.292 18.841 12.398V11.601C18.747 11.707 18.69 11.847 18.69 12Z" fill="black"/>
<path fill-rule="evenodd" clip-rule="evenodd" d="M10.979 12.6H10.38C10.2 12.6 10.038 12.52 9.928 12.395 9.836 12.289 9.78 12.151 9.78 12 9.78 11.849 9.836 11.711 9.928 11.605 10.038 11.479 10.2 11.4 10.38 11.4H10.979V6.33C10.979 5.551 10.348 4.92 9.57 4.92H5.52C4.741 4.92 4.11 5.551 4.11 6.33V11.4 12.6 17.67C4.11 18.449 4.741 19.08 5.52 19.08H9.57C10.348 19.08 10.979 18.449 10.979 17.67V12.6ZM5.31 17.67V12.6H9.779V17.67C9.779 17.786 9.686 17.88 9.57 17.88H5.52C5.404 17.88 5.31 17.786 5.31 17.67Z" fill="black"/>
<path fill-rule="evenodd" clip-rule="evenodd" d="M19.29 12.6H19.889V20.1C19.889 20.879 19.258 21.51 18.48 21.51H14.43C13.651 21.51 13.02 20.879 13.02 20.1V12.6 11.4 3.9C13.02 3.121 13.651 2.49 14.43 2.49H18.48C19.258 2.49 19.889 3.121 19.889 3.9V11.4H19.29C19.111 11.4 18.951 11.478 18.841 11.601 18.747 11.707 18.69 11.847 18.69 12 18.69 12.153 18.747 12.292 18.841 12.398 18.951 12.522 19.111 12.6 19.29 12.6ZM14.22 20.1V12.6H18.689V20.1C18.689 20.216 18.596 20.31 18.48 20.31H14.43C14.314 20.31 14.22 20.216 14.22 20.1Z" fill="black"/>
</svg>