<svg xmlns="http://www.w3.org/2000/svg" width="24" height="24" fill="currentColor" viewBox="0 0 24 24"><path d="M6.33 9.57V5.52a0.81 0.81 0 0 1 0.81-0.81h9.72a0.81 0.81 0 0 1 0.81 0.81v4.05a0.81 0.81 0 0 1-0.81 0.81h-9.72a0.81 0.81 0 0 1-0.81-0.81m14.58 4.05H7.14a0.81 0.81 0 0 0-0.81 0.81V18.48a0.81 0.81 0 0 0 0.81 0.81h13.77a0.81 0.81 0 0 0 0.81-0.81v-4.05a0.81 0.81 0 0 0-0.81-0.81" opacity=".2"/><path d="M20.91 12.81H7.14a1.62 1.62 0 0 0-1.62 1.62V18.48a1.62 1.62 0 0 0 1.62 1.62h13.77a1.62 1.62 0 0 0 1.62-1.62v-4.05a1.62 1.62 0 0 0-1.62-1.62m0 5.67H7.14v-4.05h13.77zM3.9 3.09v17.82a0.81 0.81 0 0 1-1.62 0V3.09a0.81 0.81 0 0 1 1.62 0m3.24 8.1h9.72a1.62 1.62 0 0 0 1.62-1.62V5.52a1.62 1.62 0 0 0-1.62-1.62h-9.72A1.62 1.62 0 0 0 5.52 5.52v4.05a1.62 1.62 0 0 0 1.62 1.62m0-5.67h9.72v4.05h-9.72z"/></svg>