<svg width="24" height="24" viewBox="0 0 24 24" fill="none" xmlns="http://www.w3.org/2000/svg">
<path d="M18.75 17.25V6.75C18.75 6.33579 18.4142 6 18 6H14.25C13.8358 6 13.5 6.33579 13.5 6.75V17.25C13.5 17.6642 13.8358 18 14.25 18H18C18.4142 18 18.75 17.6642 18.75 17.25Z" fill="black" fill-opacity="0.2"/>
<path d="M9.75 3.75H6C5.58579 3.75 5.25 4.08579 5.25 4.5V19.5C5.25 19.9142 5.58579 20.25 6 20.25H9.75C10.1642 20.25 10.5 19.9142 10.5 19.5V4.5C10.5 4.08579 10.1642 3.75 9.75 3.75Z" fill="black" fill-opacity="0.2"/>
<path d="M21 12H18.75M5.25 12H3M13.5 12H10.5M18.75 6.75V17.25C18.75 17.6642 18.4142 18 18 18H14.25C13.8358 18 13.5 17.6642 13.5 17.25V6.75C13.5 6.33579 13.8358 6 14.25 6H18C18.4142 6 18.75 6.33579 18.75 6.75ZM6 3.75H9.75C10.1642 3.75 10.5 4.08579 10.5 4.5V19.5C10.5 19.9142 10.1642 20.25 9.75 20.25H6C5.58579 20.25 5.25 19.9142 5.25 19.5V4.5C5.25 4.08579 5.58579 3.75 6 3.75Z" stroke="black" stroke-width="1.5" stroke-linecap="round" stroke-linejoin="round"/>
</svg>
