<svg width="24" height="24" viewBox="0 0 24 24" fill="none" xmlns="http://www.w3.org/2000/svg">
<path d="M17.2417 6.0293V9.7793C17.2417 10.1935 16.9944 10.5293 16.6892 10.5293H7.29752C6.99241 10.5293 6.74507 10.1935 6.74507 9.7793V6.0293C6.74507 5.61508 6.99241 5.2793 7.29752 5.2793L16.6892 5.2793C16.9944 5.2793 17.2417 5.61508 17.2417 6.0293Z" fill="black" fill-opacity="0.2"/>
<path d="M20.25 3.75V20.25M3 14.25V18C3 18.4142 3.33579 18.75 3.75 18.75H16.5C16.9142 18.75 17.25 18.4142 17.25 18V14.25C17.25 13.8358 16.9142 13.5 16.5 13.5H3.75C3.33579 13.5 3 13.8358 3 14.25ZM6.75 6.02409V9.77409C6.75 10.1883 7.08579 10.5241 7.5 10.5241H16.5C16.9142 10.5241 17.25 10.1883 17.25 9.77409V6.02409C17.25 5.60987 16.9142 5.27409 16.5 5.27409H7.5C7.08579 5.27409 6.75 5.60987 6.75 6.02409Z" stroke="black" stroke-width="1.5" stroke-linecap="round"/>
</svg>
