<svg viewBox="0 0 24 24" fill="none" xmlns="http://www.w3.org/2000/svg" width="24" height="24">
<path d="M13.62 3.9V20.1C13.62 20.547 13.983 20.91 14.43 20.91H18.48C18.927 20.91 19.29 20.547 19.29 20.1V3.9C19.29 3.452 18.927 3.09 18.48 3.09H14.43C13.983 3.09 13.62 3.452 13.62 3.9Z" fill="black" fill-opacity="0.2"/>
<path d="M4.71 12.6H2.28C1.949 12.6 1.68 12.331 1.68 12 1.68 11.668 1.949 11.4 2.28 11.4H4.71C5.042 11.4 5.31 11.669 5.31 12 5.31 12.331 5.042 12.6 4.71 12.6Z" fill="black"/>
<path d="M21.72 12.6H19.29C18.959 12.6 18.69 12.331 18.69 12 18.69 11.668 18.959 11.4 19.29 11.4H21.72C22.052 11.4 22.32 11.669 22.32 12 22.32 12.331 22.052 12.6 21.72 12.6Z" fill="black"/>
<path d="M13.62 12.6H10.38C10.049 12.6 9.78 12.331 9.78 12 9.78 11.668 10.049 11.4 10.38 11.4H13.62C13.951 11.4 14.22 11.668 14.22 12 14.22 12.331 13.951 12.6 13.62 12.6Z" fill="black"/>
<path d="M9.57 4.92C10.348 4.92 10.979 5.551 10.979 6.33V17.67C10.979 18.449 10.348 19.08 9.57 19.08H5.52C4.741 19.08 4.11 18.449 4.11 17.67V6.33C4.11 5.551 4.741 4.92 5.52 4.92H9.57Z" fill="black"/>
<path d="M14.43 3.69C14.314 3.69 14.22 3.784 14.22 3.9V20.1C14.22 20.216 14.314 20.31 14.43 20.31H18.48C18.596 20.31 18.689 20.216 18.689 20.1V3.9C18.689 3.784 18.596 3.69 18.48 3.69H14.43ZM18.48 2.49C19.258 2.49 19.889 3.121 19.889 3.9V20.1C19.889 20.879 19.258 21.51 18.48 21.51H14.43C13.651 21.51 13.02 20.879 13.02 20.1V3.9C13.02 3.121 13.651 2.49 14.43 2.49H18.48Z" fill="black"/>
</svg>