<svg width="24" height="24" viewBox="0 0 24 24" fill="none" xmlns="http://www.w3.org/2000/svg">
<rect x="18.75" y="5.25" width="5.25" height="13.5" rx="0.75" transform="rotate(90 18.75 5.25)" fill="black" fill-opacity="0.2"/>
<path d="M2.25 3L2.25 21M21.75 3V21M5.24951 14.2524V18.0024C5.24951 18.4167 5.5853 18.7524 5.99951 18.7524H18.0005C18.4147 18.7524 18.7505 18.4167 18.7505 18.0024V14.2524C18.7505 13.8382 18.4147 13.5024 18.0005 13.5024H5.99951C5.5853 13.5024 5.24951 13.8382 5.24951 14.2524ZM5.25 6V9.75C5.25 10.1642 5.58579 10.5 6 10.5H18C18.4142 10.5 18.75 10.1642 18.75 9.75V6C18.75 5.58579 18.4142 5.25 18 5.25H6C5.58579 5.25 5.25 5.58579 5.25 6Z" stroke="black" stroke-width="1.5" stroke-linecap="round"/>
</svg>
