<svg width="24" height="24" viewBox="0 0 24 24" fill="none" xmlns="http://www.w3.org/2000/svg">
<path d="M16.5 5.25H7.5C7.08579 5.25 6.75 5.58579 6.75 6V9.75C6.75 10.1642 7.08579 10.5 7.5 10.5H16.5C16.9142 10.5 17.25 10.1642 17.25 9.75V6C17.25 5.58579 16.9142 5.25 16.5 5.25Z" fill="black" fill-opacity="0.2"/>
<path d="M20.25 13.5H7.5C7.08579 13.5 6.75 13.8358 6.75 14.25V18C6.75 18.4142 7.08579 18.75 7.5 18.75H20.25C20.6642 18.75 21 18.4142 21 18V14.25C21 13.8358 20.6642 13.5 20.25 13.5Z" fill="black" fill-opacity="0.2"/>
<path d="M3.75 3.75V20.25M7.5 13.5H20.25C20.6642 13.5 21 13.8358 21 14.25V18C21 18.4142 20.6642 18.75 20.25 18.75H7.5C7.08579 18.75 6.75 18.4142 6.75 18V14.25C6.75 13.8358 7.08579 13.5 7.5 13.5ZM7.5 5.25H16.5C16.9142 5.25 17.25 5.58579 17.25 6V9.75C17.25 10.1642 16.9142 10.5 16.5 10.5H7.5C7.08579 10.5 6.75 10.1642 6.75 9.75V6C6.75 5.58579 7.08579 5.25 7.5 5.25Z" stroke="black" stroke-width="1.5" stroke-linecap="round" stroke-linejoin="round"/>
</svg>
