<svg xmlns="http://www.w3.org/2000/svg" width="24" height="24" fill="currentColor" viewBox="0 0 24 24"><path d="M19.29 6.33v11.34a0.81 0.81 0 0 1-0.81 0.81h-4.05a0.81 0.81 0 0 1-0.81-0.81v-11.34a0.81 0.81 0 0 1 0.81-0.81H18.48a0.81 0.81 0 0 1 0.81 0.81m-9.72-3.24H5.52a0.81 0.81 0 0 0-0.81 0.81v16.2a0.81 0.81 0 0 0 0.81 0.81h4.05a0.81 0.81 0 0 0 0.81-0.81V3.9a0.81 0.81 0 0 0-0.81-0.81" opacity=".2"/><path d="M21.72 11.19h-1.62v-4.86a1.62 1.62 0 0 0-1.62-1.62h-4.05a1.62 1.62 0 0 0-1.62 1.62v4.86h-1.62V3.9a1.62 1.62 0 0 0-1.62-1.62H5.52a1.62 1.62 0 0 0-1.62 1.62v7.29H2.28a0.81 0.81 0 0 0 0 1.62h1.62v7.29A1.62 1.62 0 0 0 5.52 21.72h4.05a1.62 1.62 0 0 0 1.62-1.62v-7.29h1.62v4.86a1.62 1.62 0 0 0 1.62 1.62H18.48a1.62 1.62 0 0 0 1.62-1.62v-4.86h1.62a0.81 0.81 0 0 0 0-1.62M9.57 20.1H5.52V3.9h4.05z m8.91-2.43h-4.05v-11.34H18.48z"/></svg>