<svg width="24" height="24" viewBox="0 0 24 24" fill="none" xmlns="http://www.w3.org/2000/svg">
<path d="M17.2417 6.0293V9.7793C17.2417 10.1935 16.9944 10.5293 16.6892 10.5293H7.29752C6.99241 10.5293 6.74507 10.1935 6.74507 9.7793V6.0293C6.74507 5.61508 6.99241 5.2793 7.29752 5.2793L16.6892 5.2793C16.9944 5.2793 17.2417 5.61508 17.2417 6.0293Z" fill="black" fill-opacity="0.2"/>
<path d="M19.5 3.75C19.5 3.33579 19.8358 3 20.25 3C20.6642 3 21 3.33579 21 3.75V20.25C21 20.6642 20.6642 21 20.25 21C19.8358 21 19.5 20.6642 19.5 20.25V3.75Z" fill="black"/>
<path fill-rule="evenodd" clip-rule="evenodd" d="M2.25 14.25C2.25 13.4216 2.92157 12.75 3.75 12.75H16.5C17.3284 12.75 18 13.4216 18 14.25V18C18 18.8284 17.3284 19.5 16.5 19.5H3.75C2.92157 19.5 2.25 18.8284 2.25 18V14.25ZM16.5 18V14.25H3.75V18H16.5Z" fill="black"/>
<path fill-rule="evenodd" clip-rule="evenodd" d="M6 6.02441C6 5.19599 6.67157 4.52441 7.5 4.52441H16.5C17.3284 4.52441 18 5.19599 18 6.02441V9.77441C17.9998 10.6027 17.3283 11.2744 16.5 11.2744H7.5C6.67168 11.2744 6.00018 10.6027 6 9.77441V6.02441ZM16.5 9.77441V6.02441H7.5V9.77441H16.5Z" fill="black"/>
</svg>
