<svg xmlns="http://www.w3.org/2000/svg" width="24" height="24" fill="currentColor" viewBox="0 0 24 24"><path d="M19.29 7.14v9.72a0.81 0.81 0 0 1-0.81 0.81h-4.05a0.81 0.81 0 0 1-0.81-0.81v-9.72a0.81 0.81 0 0 1 0.81-0.81H18.48a0.81 0.81 0 0 1 0.81 0.81m-9.72-4.86H5.52a0.81 0.81 0 0 0-0.81 0.81V16.86a0.81 0.81 0 0 0 0.81 0.81h4.05a0.81 0.81 0 0 0 0.81-0.81V3.09a0.81 0.81 0 0 0-0.81-0.81" opacity=".2"/><path d="M5.52 18.48h4.05a1.62 1.62 0 0 0 1.62-1.62V3.09a1.62 1.62 0 0 0-1.62-1.62H5.52a1.62 1.62 0 0 0-1.62 1.62V16.86A1.62 1.62 0 0 0 5.52 18.48m0-15.39h4.05V16.86H5.52z m16.2 17.82a0.81 0.81 0 0 1-0.81 0.81H3.09a0.81 0.81 0 0 1 0-1.62h17.82a0.81 0.81 0 0 1 0.81 0.81M14.43 18.48H18.48a1.62 1.62 0 0 0 1.62-1.62v-9.72A1.62 1.62 0 0 0 18.48 5.52h-4.05a1.62 1.62 0 0 0-1.62 1.62v9.72a1.62 1.62 0 0 0 1.62 1.62m0-11.34H18.48v9.72h-4.05z"/></svg>