<svg width="24" height="24" viewBox="0 0 24 24" fill="none" xmlns="http://www.w3.org/2000/svg">
<path d="M10.0012 18.002C10.0012 18.4162 9.66543 18.752 9.25122 18.752H6.99927C6.58505 18.752 6.24927 18.4162 6.24927 18.002L6.24927 6.00098C6.24927 5.58676 6.58505 5.25098 6.99927 5.25098L9.25122 5.25098C9.66543 5.25098 10.0012 5.58676 10.0012 6.00098L10.0012 18.002Z" fill="black" fill-opacity="0.2"/>
<path d="M17.7502 18.001C17.7502 18.4152 17.4145 18.751 17.0002 18.751H14.7483C14.3341 18.751 13.9983 18.4152 13.9983 18.001L13.9983 6C13.9983 5.58579 14.3341 5.25 14.7483 5.25L17.0002 5.25C17.4145 5.25 17.7502 5.58579 17.7502 6L17.7502 18.001Z" fill="black" fill-opacity="0.2"/>
<path d="M21 2.25L3 2.25M21 21.75L3 21.75M9.24146 5.25H7.00952C6.59531 5.25 6.25952 5.58579 6.25952 6L6.25952 18.001C6.25952 18.4152 6.59531 18.751 7.00952 18.751H9.24146C9.65567 18.751 9.99146 18.4152 9.99146 18.001L9.99146 6C9.99146 5.58579 9.65567 5.25 9.24146 5.25ZM17.0012 5.25H14.7693C14.3551 5.25 14.0193 5.58579 14.0193 6L14.0193 18.001C14.0193 18.4152 14.3551 18.751 14.7693 18.751H17.0012C17.4154 18.751 17.7512 18.4152 17.7512 18.001L17.7512 6C17.7512 5.58579 17.4154 5.25 17.0012 5.25Z" stroke="black" stroke-width="1.5" stroke-linecap="round"/>
</svg>
