<svg viewBox="0 0 24 24" fill="none" xmlns="http://www.w3.org/2000/svg" width="24" height="24">
<path opacity="0.2" d="M20.91 5.52H3.09V17.67H20.91V5.52Z" fill="black"/>
<path d="M5.452 4.709V6.329H3.09C2.643 6.329 2.28 5.967 2.28 5.519 2.28 5.072 2.643 4.709 3.09 4.709H5.452Z" fill="black"/>
<path d="M20.91 4.709C21.357 4.71 21.72 5.072 21.72 5.519 21.72 5.967 21.357 6.329 20.91 6.329L8.896 6.329C8.448 6.329 8.086 5.967 8.086 5.519 8.086 5.072 8.448 4.709 8.896 4.709L20.91 4.709Z" fill="black"/>
<path d="M9.084 8.759V10.379H3.09C2.643 10.379 2.28 10.017 2.28 9.569 2.28 9.122 2.643 8.759 3.09 8.759H9.084Z" fill="black"/>
<path d="M20.91 8.759C21.357 8.76 21.72 9.122 21.72 9.569 21.72 10.016 21.357 10.379 20.91 10.379L12.576 10.379C12.129 10.379 11.766 10.017 11.766 9.569 11.766 9.122 12.129 8.759 12.576 8.759L20.91 8.759Z" fill="black"/>
<path d="M12.765 12.81V14.429H3.09C2.643 14.429 2.28 14.067 2.28 13.619 2.28 13.172 2.643 12.81 3.09 12.81H12.765Z" fill="black"/>
<path d="M20.91 12.81C21.357 12.81 21.72 13.172 21.72 13.619 21.72 14.067 21.357 14.429 20.91 14.429H16.261C15.814 14.429 15.451 14.067 15.451 13.619 15.451 13.172 15.814 12.81 16.261 12.81H20.91Z" fill="black"/>
<path d="M16.441 16.86V18.479H3.09C2.643 18.479 2.28 18.117 2.28 17.669 2.28 17.222 2.643 16.86 3.09 16.86H16.441Z" fill="black"/>
<path d="M20.909 16.86C21.357 16.86 21.72 17.222 21.72 17.669 21.72 18.117 21.357 18.479 20.909 18.479H19.945C19.497 18.479 19.135 18.117 19.135 17.669 19.135 17.222 19.497 16.86 19.945 16.86H20.909Z" fill="black"/>
<path d="M2.972 2.883C3.217 2.66 3.596 2.678 3.819 2.924L20.019 20.743C20.242 20.988 20.223 21.367 19.978 21.59 19.733 21.813 19.354 21.796 19.131 21.55L2.931 3.73C2.708 3.485 2.727 3.105 2.972 2.883Z" fill="black"/>
</svg>