<svg viewBox="0 0 24 24" fill="none" xmlns="http://www.w3.org/2000/svg" width="24" height="24">
<path d="M9.57 2.685H5.52C5.073 2.685 4.71 3.047 4.71 3.495V17.265C4.71 17.712 5.073 18.075 5.52 18.075H9.57C10.018 18.075 10.38 17.712 10.38 17.265V3.495C10.38 3.047 10.018 2.685 9.57 2.685Z" fill="black" fill-opacity="0.2"/>
<path d="M20.91 20.715C21.241 20.715 21.51 20.983 21.51 21.315 21.51 21.646 21.241 21.915 20.91 21.915H3.09C2.759 21.915 2.49 21.646 2.49 21.315 2.49 20.983 2.759 20.715 3.09 20.715H20.91Z" fill="black"/>
<path d="M18.48 6.135C19.259 6.135 19.89 6.766 19.89 7.544V17.265C19.89 18.044 19.259 18.675 18.48 18.675H14.43C13.651 18.675 13.02 18.044 13.02 17.265V7.544C13.02 6.766 13.652 6.135 14.43 6.135H18.48Z" fill="black"/>
<path d="M9.78 3.495C9.78 3.379 9.686 3.285 9.57 3.285H5.52C5.404 3.285 5.31 3.379 5.31 3.495V17.265C5.31 17.381 5.404 17.475 5.52 17.475H9.57C9.686 17.475 9.78 17.381 9.78 17.265V3.495ZM10.98 17.265C10.98 18.044 10.349 18.675 9.57 18.675H5.52C4.742 18.675 4.11 18.044 4.11 17.265V3.495C4.11 2.716 4.741 2.085 5.52 2.085H9.57C10.349 2.085 10.98 2.716 10.98 3.495V17.265Z" fill="black"/>
</svg>