<svg xmlns="http://www.w3.org/2000/svg" width="24" height="24" fill="currentColor" viewBox="0 0 24 24"><path d="M17.67 5.52v4.05a0.81 0.81 0 0 1-0.81 0.81h-9.72a0.81 0.81 0 0 1-0.81-0.81V5.52a0.81 0.81 0 0 1 0.81-0.81h9.72a0.81 0.81 0 0 1 0.81 0.81m-0.81 8.1H3.09a0.81 0.81 0 0 0-0.81 0.81V18.48a0.81 0.81 0 0 0 0.81 0.81H16.86a0.81 0.81 0 0 0 0.81-0.81v-4.05a0.81 0.81 0 0 0-0.81-0.81" opacity=".2"/><path d="M21.72 3.09v17.82a0.81 0.81 0 0 1-1.62 0V3.09a0.81 0.81 0 0 1 1.62 0M18.48 5.52v4.05a1.62 1.62 0 0 1-1.62 1.62h-9.72a1.62 1.62 0 0 1-1.62-1.62V5.52a1.62 1.62 0 0 1 1.62-1.62h9.72A1.62 1.62 0 0 1 18.48 5.52m-1.62 0h-9.72v4.05h9.72z m1.62 8.91V18.48a1.62 1.62 0 0 1-1.62 1.62H3.09a1.62 1.62 0 0 1-1.62-1.62v-4.05a1.62 1.62 0 0 1 1.62-1.62H16.86a1.62 1.62 0 0 1 1.62 1.62m-1.62 0H3.09V18.48H16.86z"/></svg>