<svg viewBox="0 0 24 24" fill="none" xmlns="http://www.w3.org/2000/svg" width="24" height="24">
<path d="M21 22.795C21.331 22.795 21.6 23.064 21.6 23.395 21.6 23.727 21.331 23.995 21 23.995H3C2.669 23.995 2.4 23.727 2.4 23.395 2.4 23.064 2.669 22.795 3 22.795H21Z" fill="black"/>
<path d="M21 0.005C21.331 0.005 21.6 0.273 21.6 0.605 21.6 0.936 21.331 1.205 21 1.205H3C2.669 1.205 2.4 0.936 2.4 0.605 2.4 0.273 2.669 0.005 3 0.005H21Z" fill="black"/>
<path d="M10.805 19.5C10.805 19.997 10.402 20.4 9.905 20.4H5.705C5.208 20.4 4.805 19.997 4.805 19.5V4.5C4.805 4.003 5.208 3.6 5.705 3.6H9.905C10.402 3.6 10.805 4.003 10.805 4.5V19.5Z" fill="black"/>
<path d="M19.205 19.5C19.205 19.997 18.802 20.4 18.305 20.4H14.105C13.608 20.4 13.205 19.997 13.205 19.5V4.5C13.205 4.003 13.608 3.6 14.105 3.6H18.305C18.802 3.6 19.205 4.003 19.205 4.5V19.5Z" fill="black"/>
<path d="M9.305 19.799C8.808 19.799 8.405 19.396 8.405 18.899V5.1C8.405 4.603 8.808 4.2 9.305 4.2H14.705C15.202 4.2 15.605 4.603 15.605 5.1V18.899C15.605 19.396 15.202 19.799 14.705 19.799H9.305Z" fill="black" fill-opacity="0.2"/>
</svg>