<svg width="24" height="24" viewBox="0 0 24 24" fill="none" xmlns="http://www.w3.org/2000/svg">
<path d="M13.7539 19.0039C13.3397 19.0039 13.0039 18.6681 13.0039 18.2539V5.75391C13.0039 5.33969 13.3397 5.00391 13.7539 5.00391H17.2539C17.6681 5.00391 18.0039 5.33969 18.0039 5.75391V18.2539C18.0039 18.6681 17.6681 19.0039 17.2539 19.0039H13.7539Z" fill="black" fill-opacity="0.2"/>
<path d="M19.5 21C19.7761 21 20 21.2239 20 21.5C20 21.7761 19.7761 22 19.5 22H4.5C4.22386 22 4 21.7761 4 21.5C4 21.2239 4.22386 21 4.5 21H19.5Z" fill="black"/>
<path d="M19.5 2.00781C19.7761 2.00781 20 2.23167 20 2.50781C20 2.78395 19.7761 3.00781 19.5 3.00781H4.5C4.22386 3.00781 4 2.78395 4 2.50781C4 2.23167 4.22386 2.00781 4.5 2.00781H19.5Z" fill="black"/>
<path d="M10.2539 5.00391C10.6421 5.00391 10.9614 5.29879 11 5.67676L11.0039 5.75391V18.2539L11 18.3311C10.964 18.6837 10.6837 18.964 10.3311 19L10.2539 19.0039H6.75391C6.33969 19.0039 6.00391 18.6681 6.00391 18.2539V5.75391C6.00391 5.33969 6.33969 5.00391 6.75391 5.00391H10.2539Z" fill="black"/>
<path d="M17.0039 18.0039V6.00391H14.0039V18.0039H17.0039ZM17.2539 5.00391C17.6421 5.00391 17.9614 5.29879 18 5.67676L18.0039 5.75391V18.2539L18 18.3311C17.964 18.6837 17.6837 18.964 17.3311 19L17.2539 19.0039H13.7539C13.3397 19.0039 13.0039 18.6681 13.0039 18.2539V5.75391C13.0039 5.33969 13.3397 5.00391 13.7539 5.00391H17.2539Z" fill="black"/>
</svg>
