<svg viewBox="0 0 24 24" fill="none" xmlns="http://www.w3.org/2000/svg" width="24" height="24">
<rect x="6.58008" y="6.58008" width="3.45996" height="3.45878" fill="black" fill-opacity="0.2"/>
<path d="M20.91 4.896C21.241 4.896 21.51 5.165 21.51 5.496 21.51 5.827 21.241 6.096 20.91 6.096H3.09C2.759 6.096 2.49 5.827 2.49 5.496 2.49 5.165 2.759 4.896 3.09 4.896H20.91Z" fill="black"/>
<path d="M20.91 17.904C21.241 17.904 21.51 18.173 21.51 18.504 21.51 18.835 21.241 19.104 20.91 19.104H3.09C2.759 19.104 2.49 18.835 2.49 18.504 2.49 18.173 2.759 17.904 3.09 17.904H20.91Z" fill="black"/>
<path d="M19.104 20.91C19.104 21.241 18.835 21.51 18.504 21.51 18.173 21.51 17.904 21.241 17.904 20.91L17.904 3.09C17.904 2.759 18.173 2.49 18.504 2.49 18.835 2.49 19.104 2.759 19.104 3.09L19.104 20.91Z" fill="black"/>
<path d="M6.096 20.91C6.096 21.241 5.827 21.51 5.496 21.51 5.165 21.51 4.896 21.241 4.896 20.91L4.896 3.09C4.896 2.759 5.165 2.49 5.496 2.49 5.827 2.49 6.096 2.759 6.096 3.09L6.096 20.91Z" fill="black"/>
<path d="M10.248 4.896V10.247H4.896V4.896H10.248ZM6.096 9.047H9.048V6.096H6.096V9.047Z" fill="black"/>
<path d="M6.767 13.35L8.514 11.603C8.749 11.369 9.128 11.369 9.363 11.603L11.109 13.35C11.344 13.584 11.344 13.964 11.109 14.198 10.875 14.433 10.495 14.433 10.261 14.198L8.938 12.876 7.616 14.198C7.382 14.433 7.002 14.433 6.767 14.198 6.533 13.964 6.533 13.584 6.767 13.35Z" fill="black"/>
<path d="M8.938 11.427C9.27 11.427 9.538 11.696 9.538 12.027V16.103C9.538 16.434 9.27 16.703 8.938 16.703 8.607 16.703 8.339 16.434 8.339 16.103V12.027C8.339 11.696 8.607 11.427 8.938 11.427Z" fill="black"/>
<path d="M13.349 11.108L11.603 9.361C11.368 9.127 11.368 8.747 11.603 8.512L13.349 6.766C13.584 6.532 13.964 6.531 14.198 6.766 14.432 7 14.432 7.38 14.198 7.614L12.875 8.937 14.198 10.259C14.432 10.494 14.432 10.874 14.198 11.108 13.964 11.342 13.584 11.342 13.349 11.108Z" fill="black"/>
<path d="M11.427 8.937C11.427 8.605 11.695 8.337 12.027 8.337L16.102 8.337C16.433 8.337 16.702 8.605 16.702 8.937 16.702 9.268 16.433 9.537 16.102 9.537L12.027 9.537C11.695 9.537 11.427 9.268 11.427 8.937Z" fill="black"/>
</svg>