<svg width="24" height="24" viewBox="0 0 24 24" fill="none" xmlns="http://www.w3.org/2000/svg">
<g clip-path="url(#clip0_2171_44503)">
<path d="M8.86366 4.54217C9.13497 4.25122 9.51075 4.07996 9.90834 4.06608C10.3059 4.0522 10.6927 4.19682 10.9837 4.46814L14.2748 7.53712C14.3533 7.6104 14.4468 7.66594 14.5487 7.69999C14.6506 7.73403 14.7586 7.74577 14.8655 7.73443C14.9723 7.72309 15.0755 7.68893 15.1679 7.63425C15.2604 7.57957 15.3401 7.50566 15.4015 7.41752L17.8553 3.69752C18.2622 3.2611 18.8259 3.00422 19.4223 2.98339C20.0187 2.96256 20.5989 3.1795 21.0353 3.58647C21.4717 3.99345 21.7286 4.55712 21.7494 5.15349C21.7703 5.74987 21.5533 6.33009 21.1463 6.76651L17.6066 9.47374C17.5229 9.54118 17.4548 9.62581 17.4067 9.72189C17.3586 9.81797 17.3317 9.92326 17.3278 10.0306C17.324 10.138 17.3432 10.245 17.3843 10.3442C17.4254 10.4435 17.4873 10.5328 17.5659 10.6061L20.8569 13.6751C21.1479 13.9464 21.3192 14.3222 21.333 14.7198C21.3469 15.1174 21.2023 15.5042 20.931 15.7951L19.3965 17.4407L7.32916 6.18771L8.86366 4.54217Z" fill="black" fill-opacity="0.2"/>
<path d="M19.4647 17.4165L7.32627 6.24246M4.45985 13.7971L7.50406 10.483M20.8981 13.6389C21.1908 13.9083 21.3646 14.283 21.3812 14.6807C21.3978 15.0784 21.256 15.4664 20.9869 15.7593L16.4206 20.7304C15.8823 21.3163 15.1336 21.6642 14.3391 21.6976C13.5446 21.7309 12.7694 21.4469 12.1841 20.9081L2.25269 11.7657L8.84847 4.5853C9.1176 4.29232 9.49196 4.11837 9.8892 4.10171C10.2864 4.08504 10.674 4.22704 10.9667 4.49645L14.2772 7.54392C14.3562 7.61668 14.45 7.6716 14.552 7.70494C14.6541 7.73829 14.7622 7.74929 14.8689 7.7372C14.9756 7.72511 15.0784 7.6902 15.1705 7.63486C15.2625 7.57951 15.3416 7.50501 15.4024 7.41639L17.8288 3.67756C18.2324 3.2381 18.794 2.97716 19.3899 2.95217C19.9857 2.92718 20.5671 3.14017 21.0061 3.54429C21.4451 3.94841 21.7057 4.51055 21.7307 5.10706C21.7557 5.70356 21.5429 6.28556 21.1392 6.72503L17.6205 9.4582C17.5373 9.52625 17.4698 9.6114 17.4224 9.70786C17.375 9.80432 17.3489 9.90985 17.3458 10.0173C17.3426 10.1247 17.3626 10.2316 17.4044 10.3307C17.4461 10.4297 17.5086 10.5186 17.5877 10.5914L20.8981 13.6389Z" stroke="black" stroke-width="1.5" stroke-linecap="round" stroke-linejoin="round"/>
</g>
<defs>
<clipPath id="clip0_2171_44503">
<rect width="24" height="24" fill="white"/>
</clipPath>
</defs>
</svg>
