<svg viewBox="0 0 24 24" fill="none" xmlns="http://www.w3.org/2000/svg" width="24" height="24">
<g clip-path="url(#clip0_1013_674)">
<path opacity="0.2" d="M8.735 3.463C9.053 3.173 9.472 3.022 9.901 3.042 10.331 3.062 10.734 3.252 11.024 3.569L14.297 7.162C14.375 7.248 14.471 7.316 14.577 7.361 14.684 7.407 14.799 7.429 14.915 7.426 15.031 7.423 15.145 7.395 15.25 7.345 15.354 7.294 15.446 7.221 15.52 7.132L18.488 3.343C18.964 2.909 19.594 2.682 20.238 2.712 20.881 2.742 21.487 3.026 21.921 3.503 22.355 3.979 22.582 4.608 22.552 5.252 22.522 5.896 22.238 6.502 21.761 6.936L17.713 9.539C17.617 9.604 17.536 9.689 17.476 9.789 17.416 9.888 17.378 9.999 17.364 10.114 17.351 10.229 17.362 10.346 17.397 10.456 17.433 10.567 17.492 10.668 17.57 10.754L20.843 14.347C21.132 14.664 21.284 15.084 21.264 15.513 21.244 15.942 21.054 16.346 20.737 16.635L18.94 18.272 6.939 5.099 8.735 3.463Z" fill="black"/>
<path d="M6.901 5.946L1.8 10.593 3.173 12.101 6.323 9.231C6.568 9.008 6.947 9.026 7.17 9.271 7.394 9.516 7.376 9.895 7.131 10.119L3.981 12.988 11.214 20.927C11.686 21.445 12.344 21.754 13.043 21.786 13.743 21.819 14.427 21.573 14.944 21.101L18.093 18.232 6.901 5.946ZM7.788 5.138L18.98 17.424 20.333 16.191C20.533 16.009 20.652 15.755 20.665 15.485 20.678 15.215 20.582 14.951 20.4 14.751L17.127 11.158C16.991 11.008 16.889 10.832 16.827 10.639 16.766 10.447 16.745 10.243 16.769 10.043 16.793 9.842 16.859 9.649 16.964 9.477 17.069 9.304 17.209 9.156 17.376 9.042L17.389 9.034 21.383 6.467C21.726 6.142 21.932 5.697 21.954 5.224 21.977 4.739 21.805 4.266 21.479 3.907 21.152 3.548 20.696 3.334 20.212 3.311 19.74 3.289 19.279 3.452 18.924 3.761L15.993 7.501 15.984 7.514C15.856 7.67 15.694 7.796 15.513 7.884 15.331 7.972 15.133 8.02 14.931 8.025 14.729 8.03 14.529 7.992 14.343 7.912 14.157 7.833 13.99 7.715 13.854 7.565L10.581 3.973C10.399 3.773 10.145 3.654 9.875 3.641 9.605 3.629 9.341 3.724 9.141 3.906L7.788 5.138ZM21.141 17.079L19.345 18.715 15.752 21.988C14.999 22.674 14.005 23.032 12.987 22.985 11.97 22.938 11.013 22.488 10.327 21.735L0.509 10.958C0.286 10.713 0.303 10.333 0.548 10.11L6.524 4.666 6.548 4.644 8.333 3.019C8.768 2.622 9.342 2.414 9.93 2.442 10.518 2.469 11.072 2.729 11.468 3.165L14.741 6.757C14.761 6.779 14.787 6.798 14.814 6.809 14.842 6.821 14.872 6.827 14.902 6.826 14.932 6.825 14.962 6.817 14.989 6.804 15.015 6.791 15.039 6.774 15.058 6.752L18.017 2.973C18.037 2.946 18.06 2.922 18.085 2.899 18.679 2.358 19.465 2.075 20.267 2.113 21.07 2.15 21.825 2.505 22.366 3.099 22.907 3.693 23.19 4.477 23.153 5.28 23.115 6.083 22.76 6.838 22.166 7.379 22.141 7.402 22.115 7.422 22.086 7.44L18.05 10.036C18.026 10.053 18.005 10.074 17.99 10.099 17.974 10.124 17.965 10.154 17.961 10.184 17.958 10.214 17.96 10.244 17.969 10.273 17.979 10.301 17.994 10.327 18.014 10.35L21.288 13.943C21.684 14.378 21.891 14.953 21.864 15.541 21.836 16.129 21.577 16.682 21.141 17.079Z" fill="black"/>
</g>
<defs>
<clipPath id="clip0_1013_674">
<rect width="24" height="24" fill="white"/>
</clipPath>
</defs>
</svg>