<svg width="24" height="24" viewBox="0 0 24 24" fill="none" xmlns="http://www.w3.org/2000/svg">
<path d="M12 20.25C16.5563 20.25 20.25 16.5563 20.25 12C20.25 7.44365 16.5563 3.75 12 3.75C7.44365 3.75 3.75 7.44365 3.75 12C3.75 16.5563 7.44365 20.25 12 20.25Z" fill="black" fill-opacity="0.2"/>
<path d="M3.75 4.50024V9.00024H8.25M3.75 9.00024L6.40125 6.34888C7.93666 4.81353 10.0154 3.94539 12.1868 3.93276C14.3581 3.92012 16.4468 4.764 18 6.28138M20.25 19.5002V15.0002H15.75M20.25 15.0002L17.5988 17.6515C16.0633 19.1868 13.9846 20.055 11.8132 20.0676C9.64193 20.0802 7.55317 19.2364 6 17.719" stroke="black" stroke-width="1.5" stroke-linecap="round" stroke-linejoin="round"/>
</svg>
