<svg xmlns="http://www.w3.org/2000/svg" fill="currentColor" viewBox="0 0 24 24" width="24" height="24"><path d="M20.91 12A8.91 8.91 0 1 1 12 3.09 8.91 8.91 0 0 1 20.91 12" opacity=".2"/><path d="M21.72 3.9V8.76a0.81 0.81 0 0 1-0.81 0.81h-4.86a0.81 0.81 0 0 1 0-1.62h2.905l-1.481-1.481a8.04 8.04 0 0 0-5.683-2.372h-0.045a8.04 8.04 0 0 0-5.66 2.305 0.81 0.81 0 0 1-1.131-1.158 9.72 9.72 0 0 1 13.669 0.08l1.477 1.481V3.9a0.81 0.81 0 0 1 1.62 0z m-3.806 13.698a8.1 8.1 0 0 1-11.388-0.067l-1.481-1.481h2.905a0.81 0.81 0 0 0 0-1.62h-4.86a0.81 0.81 0 0 0-0.81 0.81v4.86a0.81 0.81 0 0 0 1.62 0v-2.905l1.481 1.481a9.66 9.66 0 0 0 6.821 2.847h0.054a9.66 9.66 0 0 0 6.79-2.767 0.81 0.81 0 0 0-1.131-1.158z"/></svg>