<svg xmlns="http://www.w3.org/2000/svg" fill="currentColor" viewBox="0 0 24 24" width="24" height="24"><path d="M21.72 3.9v16.2a1.62 1.62 0 0 1-1.62 1.62H3.9a1.62 1.62 0 0 1-1.62-1.62V3.9A1.62 1.62 0 0 1 3.9 2.28h16.2a1.62 1.62 0 0 1 1.62 1.62" opacity=".2"/><path d="M20.91 3.9V8.76a0.81 0.81 0 0 1-1.62 0V5.855l-5.096 5.097a0.81 0.81 0 0 1-1.146-1.146l5.097-5.096H15.24a0.81 0.81 0 0 1 0-1.62h4.86a0.81 0.81 0 0 1 0.81 0.81m-11.104 9.146L4.71 18.144v-2.905a0.81 0.81 0 0 0-1.62 0v4.86a0.81 0.81 0 0 0 0.81 0.81H8.76a0.81 0.81 0 0 0 0-1.62H5.855l5.097-5.097a0.81 0.81 0 0 0-1.146-1.146"/></svg>