<svg xmlns="http://www.w3.org/2000/svg" width="24" height="24" fill="currentColor" viewBox="0 0 24 24"><path d="M21.72 4.71V18.48H7.14V3.09h12.96a1.62 1.62 0 0 1 1.62 1.62" opacity=".2"/><path d="M22.294 19.054l-3.24 3.24a0.81 0.81 0 0 1-1.146-1.146l1.857-1.857H7.14a0.81 0.81 0 0 1-0.81-0.81V5.046L4.474 6.904a0.81 0.81 0 0 1-1.146-1.146l3.24-3.24a0.81 0.81 0 0 1 1.146 0l3.24 3.24a0.81 0.81 0 0 1-1.146 1.146L7.951 5.046v12.625h11.815l-1.857-1.856a0.81 0.81 0 0 1 1.146-1.146l3.24 3.24a0.81 0.81 0 0 1 0 1.146z"/></svg>