<svg width="24" height="24" viewBox="0 0 24 24" fill="none" xmlns="http://www.w3.org/2000/svg">
<path d="M12 20.25C16.5563 20.25 20.25 16.5563 20.25 12C20.25 7.44365 16.5563 3.75 12 3.75C7.44365 3.75 3.75 7.44365 3.75 12C3.75 16.5563 7.44365 20.25 12 20.25Z" fill="black" fill-opacity="0.2"/>
<path d="M6.74951 9.75006H2.24951V5.25006M2.24951 9.75006L6.16545 6.16609C7.31213 5.01962 8.77123 4.23647 10.3605 3.91451C11.9497 3.59255 13.5985 3.74605 15.101 4.35582C16.6035 4.9656 17.893 6.00461 18.8083 7.34304C19.7237 8.68148 20.2243 10.26 20.2477 11.8813C20.2711 13.5026 19.8161 15.0949 18.9398 16.4592C18.0634 17.8235 16.8044 18.8992 15.3201 19.5521C13.8358 20.2049 12.1921 20.4059 10.5942 20.1298C8.99641 19.8538 7.51533 19.1131 6.33607 18.0001" stroke="black" stroke-width="1.5" stroke-linecap="round" stroke-linejoin="round"/>
</svg>
