<svg xmlns="http://www.w3.org/2000/svg" fill="currentColor" viewBox="0 0 24 24" width="24" height="24"><path d="M18.48 12.81v8.1H5.52v-8.1l6.48-6.48z" opacity=".2"/><path d="M22.294 18.244l-3.24 3.24a0.81 0.81 0 0 1-1.146 0l-3.24-3.24a0.81 0.81 0 0 1 1.146-1.146l1.856 1.857v-5.809L12 7.476l-5.67 5.67v5.809l1.856-1.857a0.81 0.81 0 0 1 1.146 1.146l-3.24 3.24a0.81 0.81 0 0 1-1.146 0l-3.24-3.24a0.81 0.81 0 0 1 1.146-1.146l1.857 1.857v-6.145a0.816 0.816 0 0 1 0.236-0.574l6.244-6.242V1.469a0.81 0.81 0 0 1 1.62 0v4.525l6.243 6.242a0.816 0.816 0 0 1 0.237 0.574v6.145l1.856-1.857a0.81 0.81 0 0 1 1.146 1.146z"/></svg>