<svg width="24" height="24" viewBox="0 0 24 24" fill="none" xmlns="http://www.w3.org/2000/svg">
<path d="M12 20.25C16.5563 20.25 20.25 16.5563 20.25 12C20.25 7.44365 16.5563 3.75 12 3.75C7.44365 3.75 3.75 7.44365 3.75 12C3.75 16.5563 7.44365 20.25 12 20.25Z" fill="black" fill-opacity="0.2"/>
<path d="M20.25 4.50006V9.00006H15.75M20.25 9.00006L17.5988 6.34888C16.0633 4.81353 13.9846 3.94539 11.8132 3.93276C9.64193 3.92012 7.55317 4.764 6 6.28138M3.75 19.5001V15.0001H8.25M3.75 15.0001L6.40125 17.6513C7.93666 19.1867 10.0154 20.0548 12.1868 20.0674C14.3581 20.0801 16.4468 19.2362 18 17.7188" stroke="black" stroke-width="1.5" stroke-linecap="round" stroke-linejoin="round"/>
</svg>
