<svg xmlns="http://www.w3.org/2000/svg" fill="currentColor" viewBox="0 0 24 24" width="24" height="24"><path d="M20.91 2.28v19.44a1.62 1.62 0 0 1-1.62 1.62H4.71a1.62 1.62 0 0 1-1.62-1.62V2.28a1.62 1.62 0 0 1 1.62-1.62h14.58a1.62 1.62 0 0 1 1.62 1.62" opacity=".2"/><path d="M21.72 12a0.81 0.81 0 0 1-0.81 0.81H3.09a0.81 0.81 0 0 1 0-1.62h17.82A0.81 0.81 0 0 1 21.72 12M9.334 4.474l1.856-1.858v6.145a0.81 0.81 0 0 0 1.62 0V2.616l1.856 1.858a0.81 0.81 0 0 0 1.146-1.146l-3.24-3.24a0.81 0.81 0 0 0-1.146 0l-3.24 3.24a0.81 0.81 0 0 0 1.146 1.146z m5.334 15.054l-1.857 1.857V15.24a0.81 0.81 0 0 0-1.62 0v6.145l-1.856-1.857a0.81 0.81 0 0 0-1.146 1.146l3.24 3.24a0.81 0.81 0 0 0 1.146 0l3.24-3.24a0.81 0.81 0 0 0-1.146-1.146z"/></svg>