<svg xmlns="http://www.w3.org/2000/svg" fill="currentColor" viewBox="0 0 24 24" width="24" height="24"><path d="M22.53 8.76H1.47L12 2.28z" opacity=".2"/><path d="M1.47 9.57H3.9v6.48H2.28a0.81 0.81 0 0 0 0 1.62h19.44a0.81 0.81 0 0 0 0-1.62h-1.62v-6.48h2.43a0.81 0.81 0 0 0 0.425-1.5l-10.53-6.48a0.816 0.816 0 0 0-0.849 0l-10.53 6.48a0.81 0.81 0 0 0 0.425 1.5z m4.05 0h3.24v6.48H5.52z m8.1 0v6.48h-3.24v-6.48z m4.86 6.48h-3.24v-6.48h3.24zM12 3.23l7.669 4.72H4.332zM24.15 20.1a0.81 0.81 0 0 1-0.81 0.81H0.66a0.81 0.81 0 0 1 0-1.62h22.68a0.81 0.81 0 0 1 0.81 0.81"/></svg>