<svg width="24" height="24" viewBox="0 0 24 24" fill="none" xmlns="http://www.w3.org/2000/svg">
<path d="M1.5 14.25C2.43686 14.4088 3.30075 14.8554 3.97266 15.5273C4.64456 16.1993 5.09121 17.0631 5.25 18H1.5V14.25Z" fill="black" fill-opacity="0.2"/>
<path d="M22.5 18H18.75C18.9088 17.0631 19.3554 16.1993 20.0273 15.5273C20.6993 14.8554 21.5631 14.4088 22.5 14.25V18Z" fill="black" fill-opacity="0.2"/>
<path d="M12 9C13.6569 9 15 10.3431 15 12C15 13.6569 13.6569 15 12 15C10.3431 15 9 13.6569 9 12C9 10.3431 10.3431 9 12 9Z" fill="black" fill-opacity="0.2"/>
<path d="M5.25 6C5.09121 6.93686 4.64456 7.80075 3.97266 8.47266C3.30075 9.14456 2.43686 9.59121 1.5 9.75V6H5.25Z" fill="black" fill-opacity="0.2"/>
<path d="M22.5 9.75C21.5631 9.59121 20.6993 9.14456 20.0273 8.47266C19.3554 7.80075 18.9088 6.93686 18.75 6H22.5V9.75Z" fill="black" fill-opacity="0.2"/>
<path d="M22.5 9.75C21.5631 9.59121 20.6989 9.14494 20.027 8.47304C19.3551 7.80113 18.9088 6.93686 18.75 6M18.75 18C18.9088 17.0631 19.3551 16.1989 20.027 15.527C20.6989 14.8551 21.5631 14.4088 22.5 14.25M1.5 14.25C2.43686 14.4088 3.30113 14.8551 3.97304 15.527C4.64494 16.1989 5.09121 17.0631 5.25 18M5.25 6C5.09121 6.93686 4.64494 7.80113 3.97304 8.47304C3.30113 9.14494 2.43686 9.59121 1.5 9.75M15 12C15 13.6569 13.6569 15 12 15C10.3431 15 9 13.6569 9 12C9 10.3431 10.3431 9 12 9C13.6569 9 15 10.3431 15 12ZM1.5 6H22.5V18H1.5V6Z" stroke="black" stroke-width="1.5" stroke-linecap="round" stroke-linejoin="round"/>
</svg>
