<svg xmlns="http://www.w3.org/2000/svg" width="128" height="128" fill="currentColor" viewBox="0 0 24 24"><path d="M15.24 12A3.24 3.24 0 1 1 12 8.76a3.24 3.24 0 0 1 3.24 3.24m4.05-6.48a4.944 4.944 0 0 0 4.05 4.05V5.52z m0 12.96h4.05v-4.05a4.944 4.944 0 0 0-4.05 4.05M0.66 14.43V18.48h4.05a4.944 4.944 0 0 0-4.05-4.05m0-4.86A4.944 4.944 0 0 0 4.71 5.52H0.66z" opacity=".2"/><path d="M12 7.95A4.05 4.05 0 1 0 16.05 12 4.05 4.05 0 0 0 12 7.95m0 6.48A2.43 2.43 0 1 1 14.43 12 2.43 2.43 0 0 1 12 14.43m11.34-9.72H0.66a0.81 0.81 0 0 0-0.81 0.81v12.96a0.81 0.81 0 0 0 0.81 0.81h22.68a0.81 0.81 0 0 0 0.81-0.81V5.52a0.81 0.81 0 0 0-0.81-0.81M1.47 6.33h2.164a4.128 4.128 0 0 1-2.164 2.164z m0 11.34v-2.164a4.128 4.128 0 0 1 2.164 2.164z m21.06 0h-2.164a4.128 4.128 0 0 1 2.164-2.164z m0-3.883a5.748 5.748 0 0 0-3.883 3.883H5.353a5.748 5.748 0 0 0-3.883-3.883v-3.574a5.748 5.748 0 0 0 3.883-3.883h13.294a5.748 5.748 0 0 0 3.883 3.883z m0-5.293a4.128 4.128 0 0 1-2.164-2.164h2.164z"/></svg>