<svg width="24" height="24" viewBox="0 0 24 24" fill="none" xmlns="http://www.w3.org/2000/svg">
<path d="M15 14.25C15 13.2554 15.3951 12.3016 16.0983 11.5983C16.8016 10.8951 17.7554 10.5 18.75 10.5C19.7446 10.5 20.6984 10.8951 21.4016 11.5983C22.1049 12.3016 22.5 13.2554 22.5 14.25H15Z" fill="black" fill-opacity="0.2"/>
<path d="M8.8125 11.625H8.4375C9.18342 11.625 9.89879 11.3287 10.4262 10.8012C10.9537 10.2738 11.25 9.55842 11.25 8.8125C11.25 8.06658 10.9537 7.35121 10.4262 6.82376C9.89879 6.29632 9.18342 6 8.4375 6H3V18H8.8125C9.65788 18 10.4686 17.6642 11.0664 17.0664C11.6642 16.4686 12 15.6579 12 14.8125C12 13.9671 11.6642 13.1564 11.0664 12.5586C10.4686 11.9608 9.65788 11.625 8.8125 11.625Z" fill="black" fill-opacity="0.2"/>
<path d="M15.75 7.5H21.75M3 11.625H8.4375M3 11.625V18H8.8125C9.65788 18 10.4686 17.6642 11.0664 17.0664C11.6642 16.4686 12 15.6579 12 14.8125C12 13.9671 11.6642 13.1564 11.0664 12.5586C10.4686 11.9608 9.65788 11.625 8.8125 11.625H8.4375M3 11.625V6H8.4375C9.18342 6 9.89879 6.29632 10.4262 6.82376C10.9537 7.35121 11.25 8.06658 11.25 8.8125C11.25 9.55842 10.9537 10.2738 10.4262 10.8012C9.89879 11.3287 9.18342 11.625 8.4375 11.625M21.75 16.5C21.2157 17.2124 20.4454 17.7114 19.5769 17.9077C18.7084 18.1041 17.7983 17.9849 17.0096 17.5717C16.2209 17.1584 15.6049 16.478 15.272 15.6521C15.0909 15.203 15 14.7268 15 14.25M15 14.25C15 13.85 15.064 13.4495 15.1924 13.0642C15.474 12.2194 16.047 11.5024 16.8089 11.0415C17.5707 10.5806 18.4717 10.4058 19.3507 10.5484C20.2296 10.6911 21.0291 11.1418 21.6061 11.82C22.1831 12.4982 22.5 13.3596 22.5 14.25H15Z" stroke="black" stroke-width="1.5" stroke-linecap="round" stroke-linejoin="round"/>
</svg>
