<svg xmlns="http://www.w3.org/2000/svg" width="24" height="24" fill="currentColor" viewBox="0 0 24 24"><path d="M20.1 18.48H3.9a0.81 0.81 0 0 1-0.696-1.214c0.667-1.154 1.506-4.069 1.506-7.696a7.29 7.29 0 0 1 14.58 0c0 3.626 0.84 6.541 1.508 7.694a0.81 0.81 0 0 1-0.698 1.216" opacity=".2"/><path d="M21.497 16.854c-0.562-0.968-1.397-3.707-1.397-7.284a8.1 8.1 0 1 0-16.2 0c0 3.578-0.836 6.316-1.398 7.284a1.62 1.62 0 0 0 1.398 2.436h4.132a4.05 4.05 0 0 0 7.935 0h4.132a1.62 1.62 0 0 0 1.397-2.436zM12 20.91a2.43 2.43 0 0 1-2.291-1.62h4.581a2.43 2.43 0 0 1-2.291 1.62z m-8.1-3.24c0.78-1.34 1.62-4.447 1.62-8.1a6.48 6.48 0 1 1 12.96 0c0 3.65 0.839 6.756 1.62 8.1z"/></svg>