<svg xmlns="http://www.w3.org/2000/svg" width="24" height="24" fill="currentColor" viewBox="0 0 24 24"><path d="M24.15 15.24a4.05 4.05 0 1 1-4.05-4.05 4.05 4.05 0 0 1 4.05 4.05M3.9 11.19A4.05 4.05 0 1 0 7.95 15.24a4.05 4.05 0 0 0-4.05-4.05" opacity=".2"/><path d="M20.1 10.38a4.8 4.8 0 0 0-1.714 0.313l-2.545-4.363h2.64a0.81 0.81 0 0 1 0.81 0.81 0.81 0.81 0 0 0 1.62 0 2.43 2.43 0 0 0-2.43-2.43h-4.05a0.81 0.81 0 0 0-0.699 1.216l1.179 2.025h-5.82l-1.656-2.834a0.816 0.816 0 0 0-0.699-0.405H3.901a0.81 0.81 0 0 0 0 1.62h2.37l1.389 2.381-1.592 2.182a4.873 4.873 0 1 0 1.308 0.955l1.174-1.61 3.156 5.407a0.81 0.81 0 1 0 1.399-0.81l-3.069-5.265h5.82l1.132 1.941a4.86 4.86 0 1 0 3.113-1.131zM7.14 15.24a3.24 3.24 0 1 1-2.046-3.011L3.246 14.76a0.81 0.81 0 1 0 1.308 0.954l1.848-2.531A3.24 3.24 0 0 1 7.14 15.24m12.96 3.24a3.24 3.24 0 0 1-2.279-5.54l1.579 2.706a0.81 0.81 0 1 0 1.4-0.81l-1.581-2.712a3.24 3.24 0 1 1 0.881 6.357z"/></svg>