<svg width="24" height="24" viewBox="0 0 24 24" fill="none" xmlns="http://www.w3.org/2000/svg">
<path d="M4.5 11.25C6.57107 11.25 8.25 12.9289 8.25 15C8.25 17.0711 6.57107 18.75 4.5 18.75C2.42893 18.75 0.75 17.0711 0.75 15C0.75 12.9289 2.42893 11.25 4.5 11.25Z" fill="black" fill-opacity="0.2"/>
<path d="M19.5 11.25C21.5711 11.25 23.25 12.9289 23.25 15C23.25 17.0711 21.5711 18.75 19.5 18.75C17.4289 18.75 15.75 17.0711 15.75 15C15.75 12.9289 17.4289 11.25 19.5 11.25Z" fill="black" fill-opacity="0.2"/>
<path d="M19.5 7.5C19.5 7.10218 19.342 6.72064 19.0607 6.43934C18.7794 6.15804 18.3978 6 18 6H14.25L19.5 15M4.5 6H7.125L12.375 15M16.0003 9H8.87531L4.5 15M23.25 15C23.25 17.0711 21.5711 18.75 19.5 18.75C17.4289 18.75 15.75 17.0711 15.75 15C15.75 12.9289 17.4289 11.25 19.5 11.25C21.5711 11.25 23.25 12.9289 23.25 15ZM8.25 15C8.25 17.0711 6.57107 18.75 4.5 18.75C2.42893 18.75 0.75 17.0711 0.75 15C0.75 12.9289 2.42893 11.25 4.5 11.25C6.57107 11.25 8.25 12.9289 8.25 15Z" stroke="black" stroke-width="1.5" stroke-linecap="round" stroke-linejoin="round"/>
</svg>
