<svg xmlns="http://www.w3.org/2000/svg" width="24" height="24" fill="currentColor" viewBox="0 0 24 24"><path d="M20.1 13.62a8.1 8.1 0 0 1-16.2 0C3.9 6.33 12 0.66 12 0.66s8.1 5.67 8.1 12.96" opacity=".2"/><path d="M16.657 3.875a25.8 25.8 0 0 0-4.196-3.879 0.81 0.81 0 0 0-0.93 0 25.8 25.8 0 0 0-4.189 3.879c-2.783 3.197-4.253 6.566-4.253 9.745a8.91 8.91 0 0 0 17.82 0c0-3.179-1.469-6.548-4.253-9.745zM12 20.91a7.296 7.296 0 0 1-7.29-7.29c0-5.795 5.616-10.631 7.29-11.947 1.674 1.316 7.29 6.151 7.29 11.947A7.296 7.296 0 0 1 12 20.91m5.659-6.344a5.832 5.832 0 0 1-4.713 4.713 1.2 1.2 0 0 1-0.135 0.011 0.81 0.81 0 0 1-0.133-1.609c1.678-0.282 3.101-1.706 3.386-3.387a0.81 0.81 0 0 1 1.598 0.272z"/></svg>