<svg width="24" height="24" viewBox="0 0 24 24" fill="none" xmlns="http://www.w3.org/2000/svg">
<rect opacity="0.2" x="4.5752" y="4.5752" width="14.85" height="14.85" fill="black"/>
<path d="M18.9199 4.58057C18.9199 4.30442 19.1438 4.08057 19.4199 4.08057C19.6961 4.08057 19.9199 4.30442 19.9199 4.58057L19.9199 19.4302C19.9199 19.7063 19.6961 19.9302 19.4199 19.9302C19.1438 19.9302 18.9199 19.7063 18.9199 19.4302L18.9199 4.58057Z" fill="black"/>
<path d="M4.58496 11.5C4.86111 11.5 5.08496 11.7239 5.08496 12C5.08496 12.2761 4.86111 12.5 4.58496 12.5H4.58008C4.30394 12.5 4.08008 12.2761 4.08008 12C4.08008 11.7239 4.30394 11.5 4.58008 11.5H4.58496ZM7.05957 11.5C7.33572 11.5 7.55957 11.7239 7.55957 12C7.55957 12.2761 7.33572 12.5 7.05957 12.5H7.04981C6.77382 12.4998 6.54981 12.276 6.54981 12C6.54981 11.724 6.77382 11.5002 7.04981 11.5H7.05957ZM9.53516 11.5C9.81123 11.5001 10.0352 11.7239 10.0352 12C10.0352 12.2761 9.81123 12.4999 9.53516 12.5H9.52539C9.24925 12.5 9.02539 12.2761 9.02539 12C9.02539 11.7239 9.24925 11.5 9.52539 11.5H9.53516ZM12.0098 11.5C12.2859 11.5 12.5098 11.7239 12.5098 12C12.5098 12.2761 12.2859 12.5 12.0098 12.5H12C11.7239 12.4999 11.5 12.2761 11.5 12C11.5 11.7239 11.7239 11.5001 12 11.5H12.0098ZM14.4854 11.5C14.7613 11.5002 14.9854 11.724 14.9854 12C14.9854 12.276 14.7613 12.4998 14.4854 12.5H14.4756C14.1994 12.5 13.9756 12.2761 13.9756 12C13.9756 11.7239 14.1994 11.5 14.4756 11.5H14.4854ZM16.96 11.5C17.2361 11.5 17.46 11.7239 17.46 12C17.46 12.2761 17.2361 12.5 16.96 12.5H16.9502C16.6741 12.5 16.4502 12.2761 16.4502 12C16.4502 11.7239 16.6741 11.5 16.9502 11.5H16.96ZM19.4297 11.5C19.7058 11.5 19.9297 11.7239 19.9297 12C19.9297 12.2761 19.7058 12.5 19.4297 12.5H19.4248C19.1488 12.4998 18.9248 12.276 18.9248 12C18.9248 11.724 19.1488 11.5002 19.4248 11.5H19.4297Z" fill="black"/>
<path d="M4.58496 4.08008C4.86111 4.08008 5.08496 4.30394 5.08496 4.58008C5.08496 4.85622 4.86111 5.08008 4.58496 5.08008H4.58008C4.30394 5.08008 4.08008 4.85622 4.08008 4.58008C4.08008 4.30394 4.30394 4.08008 4.58008 4.08008L4.58496 4.08008ZM7.05957 4.08008C7.33572 4.08008 7.55957 4.30394 7.55957 4.58008C7.55957 4.85622 7.33572 5.08008 7.05957 5.08008H7.04981C6.77382 5.07989 6.54981 4.85611 6.54981 4.58008C6.54981 4.30405 6.77382 4.08026 7.04981 4.08008L7.05957 4.08008ZM9.53516 4.08008C9.81123 4.08016 10.0352 4.30399 10.0352 4.58008C10.0352 4.85617 9.81123 5.08 9.53516 5.08008H9.52539C9.24925 5.08008 9.02539 4.85622 9.02539 4.58008C9.02539 4.30394 9.24925 4.08008 9.52539 4.08008L9.53516 4.08008ZM12.0098 4.08008C12.2859 4.08008 12.5098 4.30394 12.5098 4.58008C12.5098 4.85622 12.2859 5.08008 12.0098 5.08008H12C11.7239 5.08 11.5 4.85617 11.5 4.58008C11.5 4.30399 11.7239 4.08016 12 4.08008L12.0098 4.08008ZM14.4854 4.08008C14.7613 4.08026 14.9854 4.30405 14.9854 4.58008C14.9854 4.85611 14.7613 5.0799 14.4854 5.08008H14.4756C14.1994 5.08008 13.9756 4.85622 13.9756 4.58008C13.9756 4.30394 14.1994 4.08008 14.4756 4.08008L14.4854 4.08008ZM16.96 4.08008C17.2361 4.08008 17.46 4.30394 17.46 4.58008C17.46 4.85622 17.2361 5.08008 16.96 5.08008H16.9502C16.6741 5.08008 16.4502 4.85622 16.4502 4.58008C16.4502 4.30394 16.6741 4.08008 16.9502 4.08008L16.96 4.08008ZM19.4297 4.08008C19.7058 4.08008 19.9297 4.30394 19.9297 4.58008C19.9297 4.85622 19.7058 5.08008 19.4297 5.08008H19.4248C19.1488 5.07989 18.9248 4.85611 18.9248 4.58008C18.9248 4.30405 19.1488 4.08027 19.4248 4.08008L19.4297 4.08008Z" fill="black"/>
<path d="M4.58496 18.9199C4.86111 18.9199 5.08496 19.1438 5.08496 19.4199C5.08496 19.6961 4.86111 19.9199 4.58496 19.9199H4.58008C4.30394 19.9199 4.08008 19.6961 4.08008 19.4199C4.08008 19.1438 4.30394 18.9199 4.58008 18.9199H4.58496ZM7.05957 18.9199C7.33572 18.9199 7.55957 19.1438 7.55957 19.4199C7.55957 19.6961 7.33572 19.9199 7.05957 19.9199H7.04981C6.77382 19.9197 6.54981 19.6959 6.54981 19.4199C6.54981 19.1439 6.77382 18.9201 7.04981 18.9199H7.05957ZM9.53516 18.9199C9.81123 18.92 10.0352 19.1438 10.0352 19.4199C10.0352 19.696 9.81123 19.9198 9.53516 19.9199H9.52539C9.24925 19.9199 9.02539 19.6961 9.02539 19.4199C9.02539 19.1438 9.24925 18.9199 9.52539 18.9199H9.53516ZM12.0098 18.9199C12.2859 18.9199 12.5098 19.1438 12.5098 19.4199C12.5098 19.6961 12.2859 19.9199 12.0098 19.9199H12C11.7239 19.9198 11.5 19.696 11.5 19.4199C11.5 19.1438 11.7239 18.92 12 18.9199H12.0098ZM14.4854 18.9199C14.7613 18.9201 14.9854 19.1439 14.9854 19.4199C14.9854 19.696 14.7613 19.9197 14.4854 19.9199H14.4756C14.1994 19.9199 13.9756 19.6961 13.9756 19.4199C13.9756 19.1438 14.1994 18.9199 14.4756 18.9199H14.4854ZM16.96 18.9199C17.2361 18.9199 17.46 19.1438 17.46 19.4199C17.46 19.6961 17.2361 19.9199 16.96 19.9199H16.9502C16.6741 19.9199 16.4502 19.6961 16.4502 19.4199C16.4502 19.1438 16.6741 18.9199 16.9502 18.9199H16.96ZM19.4297 18.9199C19.7058 18.9199 19.9297 19.1438 19.9297 19.4199C19.9297 19.6961 19.7058 19.9199 19.4297 19.9199H19.4248C19.1488 19.9197 18.9248 19.696 18.9248 19.4199C18.9248 19.1439 19.1488 18.9201 19.4248 18.9199H19.4297Z" fill="black"/>
<path d="M12.5 4.58496C12.5 4.8611 12.2761 5.08496 12 5.08496C11.7239 5.08496 11.5 4.8611 11.5 4.58496V4.58008C11.5 4.30399 11.7239 4.08016 12 4.08008C12.2761 4.08008 12.5 4.30394 12.5 4.58008V4.58496ZM12.5 7.05957C12.5 7.33571 12.2761 7.55957 12 7.55957C11.7239 7.55957 11.5 7.33571 11.5 7.05957V7.0498C11.5002 6.77382 11.724 6.5498 12 6.5498C12.276 6.5498 12.4998 6.77382 12.5 7.0498V7.05957ZM12.5 9.53516C12.4999 9.81123 12.2761 10.0352 12 10.0352C11.7239 10.0352 11.5001 9.81123 11.5 9.53516V9.52539C11.5 9.24925 11.7239 9.02539 12 9.02539C12.2761 9.02539 12.5 9.24925 12.5 9.52539V9.53516ZM12.5 12.0098C12.5 12.2859 12.2761 12.5098 12 12.5098C11.7239 12.5098 11.5 12.2859 11.5 12.0098L11.5 12C11.5 11.7239 11.7239 11.5001 12 11.5C12.2761 11.5 12.4999 11.7239 12.5 12V12.0098ZM12.5 14.4854C12.4998 14.7613 12.276 14.9854 12 14.9854C11.724 14.9854 11.5002 14.7613 11.5 14.4854V14.4756C11.5 14.1994 11.7239 13.9756 12 13.9756C12.2761 13.9756 12.5 14.1994 12.5 14.4756V14.4854ZM12.5 16.96C12.5 17.2361 12.2761 17.46 12 17.46C11.7239 17.46 11.5 17.2361 11.5 16.96V16.9502C11.5 16.6741 11.7239 16.4502 12 16.4502C12.2761 16.4502 12.5 16.6741 12.5 16.9502V16.96ZM12.5 19.4297C12.5 19.7058 12.2761 19.9297 12 19.9297C11.7239 19.9297 11.5 19.7058 11.5 19.4297V19.4248C11.5002 19.1488 11.724 18.9248 12 18.9248C12.276 18.9248 12.4998 19.1488 12.5 19.4248V19.4297Z" fill="black"/>
<path d="M5.08008 4.58496C5.08008 4.8611 4.85622 5.08496 4.58008 5.08496C4.30394 5.08496 4.08008 4.8611 4.08008 4.58496L4.08008 4.58008C4.08008 4.30394 4.30394 4.08008 4.58008 4.08008C4.85622 4.08008 5.08008 4.30394 5.08008 4.58008V4.58496ZM5.08008 7.05957C5.08008 7.33571 4.85622 7.55957 4.58008 7.55957C4.30394 7.55957 4.08008 7.33571 4.08008 7.05957L4.08008 7.0498C4.08027 6.77382 4.30405 6.5498 4.58008 6.5498C4.85611 6.5498 5.0799 6.77382 5.08008 7.0498V7.05957ZM5.08008 9.53516C5.08 9.81123 4.85617 10.0352 4.58008 10.0352C4.30399 10.0352 4.08016 9.81123 4.08008 9.53516L4.08008 9.52539C4.08008 9.24925 4.30394 9.02539 4.58008 9.02539C4.85622 9.02539 5.08008 9.24925 5.08008 9.52539V9.53516ZM5.08008 12.0098C5.08008 12.2859 4.85622 12.5098 4.58008 12.5098C4.30394 12.5098 4.08008 12.2859 4.08008 12.0098L4.08008 12C4.08008 11.7239 4.30394 11.5 4.58008 11.5C4.85617 11.5 5.08 11.7239 5.08008 12V12.0098ZM5.08008 14.4854C5.07989 14.7613 4.85611 14.9854 4.58008 14.9854C4.30405 14.9854 4.08026 14.7613 4.08008 14.4854L4.08008 14.4756C4.08008 14.1994 4.30394 13.9756 4.58008 13.9756C4.85622 13.9756 5.08008 14.1994 5.08008 14.4756V14.4854ZM5.08008 16.96C5.08008 17.2361 4.85622 17.46 4.58008 17.46C4.30394 17.46 4.08008 17.2361 4.08008 16.96L4.08008 16.9502C4.08008 16.6741 4.30394 16.4502 4.58008 16.4502C4.85622 16.4502 5.08008 16.6741 5.08008 16.9502V16.96ZM5.08008 19.4297C5.08008 19.7058 4.85622 19.9297 4.58008 19.9297C4.30394 19.9297 4.08008 19.7058 4.08008 19.4297L4.08008 19.4248C4.08026 19.1488 4.30405 18.9248 4.58008 18.9248C4.85611 18.9248 5.07989 19.1488 5.08008 19.4248V19.4297Z" fill="black"/>
</svg>
