<svg viewBox="0 0 24 24" fill="none" xmlns="http://www.w3.org/2000/svg" width="24" height="24">
<rect opacity="0.2" x="4.5752" y="4.5752" width="14.85" height="14.85" rx="0.75" fill="black"/>
<path d="M20.91 4.92C21.241 4.92 21.51 5.189 21.51 5.52 21.51 5.851 21.241 6.12 20.91 6.12H3.09C2.759 6.12 2.49 5.851 2.49 5.52 2.49 5.189 2.759 4.92 3.09 4.92H20.91Z" fill="black"/>
<path d="M10.219 11.4C10.55 11.4 10.819 11.669 10.819 12 10.819 12.331 10.55 12.6 10.219 12.6H3.091C2.759 12.6 2.491 12.331 2.491 12 2.491 11.669 2.759 11.4 3.091 11.4H10.219Z" fill="black"/>
<path d="M20.316 18.48C20.316 18.149 20.585 17.88 20.916 17.88 21.248 17.88 21.516 18.149 21.516 18.48 21.516 18.811 21.248 19.08 20.916 19.08 20.585 19.08 20.316 18.811 20.316 18.48Z" fill="black"/>
<path d="M16.752 18.48C16.752 18.149 17.021 17.88 17.352 17.88 17.684 17.88 17.952 18.149 17.952 18.48 17.952 18.811 17.684 19.08 17.352 19.08 17.021 19.08 16.752 18.811 16.752 18.48Z" fill="black"/>
<path d="M13.188 18.48C13.188 18.149 13.457 17.88 13.788 17.88 14.12 17.88 14.388 18.149 14.388 18.48 14.388 18.811 14.12 19.08 13.788 19.08 13.457 19.08 13.188 18.811 13.188 18.48Z" fill="black"/>
<path d="M9.624 18.48C9.624 18.149 9.893 17.88 10.224 17.88 10.556 17.88 10.824 18.149 10.824 18.48 10.824 18.811 10.556 19.08 10.224 19.08 9.893 19.08 9.624 18.811 9.624 18.48Z" fill="black"/>
<path d="M6.061 18.48C6.061 18.149 6.329 17.88 6.661 17.88 6.992 17.88 7.261 18.149 7.261 18.48 7.261 18.811 6.992 19.08 6.661 19.08 6.329 19.08 6.061 18.811 6.061 18.48Z" fill="black"/>
<path d="M2.497 18.48C2.497 18.149 2.765 17.88 3.097 17.88 3.428 17.88 3.697 18.149 3.697 18.48 3.697 18.811 3.428 19.08 3.097 19.08 2.765 19.08 2.497 18.811 2.497 18.48Z" fill="black"/>
<path d="M20.917 11.4C21.248 11.4 21.517 11.669 21.517 12 21.517 12.331 21.248 12.6 20.917 12.6H13.789C13.457 12.6 13.189 12.331 13.189 12 13.189 11.669 13.457 11.4 13.789 11.4H20.917Z" fill="black"/>
</svg>