<svg width="24" height="24" viewBox="0 0 24 24" fill="none" xmlns="http://www.w3.org/2000/svg">
<rect x="20.25" y="20.25" width="16.5" height="16.5" transform="rotate(-180 20.25 20.25)" fill="black" fill-opacity="0.2"/>
<path d="M11.9976 20.2462H12.0026M9.25061 20.2462H9.25561M6.49756 20.2462H6.50256M3.74756 20.2462H3.75256M14.7507 20.2462H14.7557M17.4976 20.2462H17.5026M20.2476 20.2462H20.2526M11.9976 3.75006H12.0026M11.9976 3.75006V3.74756M11.9976 3.75006V3.75256M9.25061 3.75006H9.25561M6.49756 3.75006H6.50256M3.74756 3.75006H3.75256M3.74756 3.75006V3.74756M3.74756 3.75006V3.75256M14.7507 3.75006H14.7557M17.4976 3.75006H17.5026M20.2476 3.75006H20.2526M20.2476 3.75006V3.74756M20.2476 3.75006V3.75256M11.9976 12.0001V11.9976M11.9976 12.0001V12.0026M11.9976 12.0001H20.2476M11.9976 12.0001H3.74756M3.74756 12.0001V11.9976M3.74756 12.0001V12.0026M20.2476 12.0001V11.9976M20.2476 12.0001V12.0026M20.2476 12.0001H20.2526M3.74756 9.25061V9.25561M3.74756 6.49756V6.50256M3.74756 14.7507V14.7557M3.74756 17.4976V17.5026M3.74756 20.2476V20.2526M11.9976 9.25061V9.25561M11.9976 6.49756V6.50256M11.9976 14.7507V14.7557M11.9976 17.4976V17.5026M11.9976 20.2476V20.2526M20.2476 9.25061V9.25561M20.2476 6.49756V6.50256M20.2476 14.7507V14.7557M20.2476 17.4976V17.5026M20.2476 20.2476V20.2526" stroke="black" stroke-width="1.5" stroke-linecap="round" stroke-linejoin="round"/>
</svg>
