<svg width="24" height="24" viewBox="0 0 24 24" fill="none" xmlns="http://www.w3.org/2000/svg">
<path d="M18 11.2501L12.75 6.00012L15.5306 3.2195C15.6713 3.07895 15.862 3 16.0608 3C16.2596 3 16.4503 3.07895 16.5909 3.2195L20.7806 7.40637C20.9212 7.54701 21.0001 7.7377 21.0001 7.93653C21.0001 8.13535 20.9212 8.32605 20.7806 8.46668L18 11.2501Z" fill="black" fill-opacity="0.2"/>
<path d="M8.99951 20.2501H4.49951C4.3006 20.2501 4.10983 20.1711 3.96918 20.0305C3.82853 19.8898 3.74951 19.699 3.74951 19.5001V15.3104C3.7496 15.1118 3.8285 14.9213 3.96889 14.7807L15.5301 3.2195C15.6708 3.07895 15.8615 3 16.0603 3C16.2591 3 16.4498 3.07895 16.5904 3.2195L20.7801 7.40637C20.9207 7.54701 20.9996 7.7377 20.9996 7.93653C20.9996 8.13535 20.9207 8.32605 20.7801 8.46668L8.99951 20.2501ZM8.99951 20.2501L20.2495 20.25M12.7495 6L17.9995 11.25" stroke="black" stroke-width="1.5" stroke-linecap="round" stroke-linejoin="round"/>
</svg>
