<svg viewBox="0 0 24 24" fill="none" xmlns="http://www.w3.org/2000/svg" width="24" height="24">
<rect opacity="0.2" x="4.5752" y="4.5752" width="14.85" height="14.85" rx="0.75" fill="black"/>
<path d="M2.49 16.05V7.95C2.49 7.619 2.759 7.35 3.09 7.35 3.422 7.35 3.69 7.619 3.69 7.95V16.05C3.69 16.381 3.422 16.65 3.09 16.65 2.759 16.65 2.49 16.381 2.49 16.05Z" fill="black"/>
<path d="M16.05 20.31C16.381 20.31 16.65 20.578 16.65 20.91 16.65 21.241 16.381 21.51 16.05 21.51H7.95C7.619 21.51 7.35 21.241 7.35 20.91 7.35 20.578 7.619 20.31 7.95 20.31H16.05Z" fill="black"/>
<path d="M20.31 16.05V7.95C20.31 7.619 20.578 7.35 20.91 7.35 21.241 7.35 21.51 7.619 21.51 7.95V16.05C21.51 16.381 21.241 16.65 20.91 16.65 20.578 16.65 20.31 16.381 20.31 16.05Z" fill="black"/>
<path d="M16.05 2.49C16.381 2.49 16.65 2.759 16.65 3.09 16.65 3.422 16.381 3.69 16.05 3.69H7.95C7.619 3.69 7.35 3.422 7.35 3.09 7.35 2.759 7.619 2.49 7.95 2.49H16.05Z" fill="black"/>
</svg>