<svg viewBox="0 0 24 24" fill="none" xmlns="http://www.w3.org/2000/svg" width="24" height="24">
<rect opacity="0.2" x="4.5752" y="4.5752" width="14.85" height="14.85" fill="black"/>
<path d="M3.696 20.316H20.316V3.696H3.696V20.316ZM21.516 20.616C21.516 21.113 21.113 21.516 20.616 21.516H3.396L3.304 21.511C2.85 21.465 2.496 21.081 2.496 20.616V3.396C2.496 2.899 2.899 2.496 3.396 2.496H20.616C21.113 2.496 21.516 2.899 21.516 3.396V20.616Z" fill="black"/>
<path d="M11.4 20.91C11.4 20.579 11.669 20.31 12 20.31 12.331 20.31 12.6 20.579 12.6 20.91V20.916C12.6 21.248 12.331 21.516 12 21.516 11.669 21.516 11.4 21.248 11.4 20.916V20.91ZM11.4 17.941C11.4 17.609 11.669 17.341 12 17.341 12.331 17.341 12.6 17.609 12.6 17.941V17.952C12.6 18.284 12.331 18.552 12 18.552 11.669 18.552 11.4 18.284 11.4 17.952V17.941ZM11.4 14.97C11.4 14.639 11.669 14.37 12 14.37 12.331 14.37 12.6 14.639 12.6 14.97V14.982C12.6 15.313 12.331 15.582 12 15.582 11.669 15.582 11.4 15.313 11.4 14.982L11.4 14.97ZM11.4 12.001C11.4 11.669 11.669 11.401 12 11.401 12.331 11.401 12.6 11.669 12.6 12.001V12.012C12.6 12.344 12.331 12.612 12 12.612 11.669 12.612 11.4 12.344 11.4 12.012V12.001ZM11.4 9.03C11.4 8.699 11.669 8.43 12 8.43 12.331 8.43 12.6 8.699 12.6 9.03V9.042C12.6 9.373 12.331 9.642 12 9.642 11.669 9.642 11.4 9.373 11.4 9.042V9.03ZM11.4 6.06C11.4 5.729 11.669 5.46 12 5.46 12.331 5.46 12.6 5.729 12.6 6.06V6.072C12.6 6.403 12.331 6.672 12 6.672 11.669 6.672 11.4 6.403 11.4 6.072V6.06ZM11.4 3.097C11.4 2.765 11.669 2.497 12 2.497 12.331 2.497 12.6 2.765 12.6 3.097V3.103C12.6 3.434 12.331 3.703 12 3.703 11.669 3.703 11.4 3.434 11.4 3.103V3.097Z" fill="black"/>
<path d="M20.91 12.6C20.579 12.6 20.31 12.331 20.31 12 20.31 11.669 20.579 11.4 20.91 11.4H20.916C21.248 11.4 21.516 11.669 21.516 12 21.516 12.331 21.248 12.6 20.916 12.6H20.91ZM17.941 12.6C17.609 12.6 17.341 12.331 17.341 12 17.341 11.669 17.609 11.4 17.941 11.4H17.952C18.284 11.4 18.552 11.669 18.552 12 18.552 12.331 18.284 12.6 17.952 12.6H17.941ZM14.97 12.6C14.639 12.6 14.37 12.331 14.37 12 14.37 11.669 14.639 11.4 14.97 11.4H14.982C15.313 11.4 15.582 11.669 15.582 12 15.582 12.331 15.313 12.6 14.982 12.6L14.97 12.6ZM12.001 12.6C11.669 12.6 11.4 12.332 11.4 12.001 11.4 11.669 11.669 11.401 12 11.401L12.012 11.4C12.344 11.4 12.612 11.669 12.612 12 12.612 12.331 12.344 12.6 12.012 12.6H12.001ZM9.03 12.6C8.699 12.6 8.43 12.331 8.43 12 8.43 11.669 8.699 11.4 9.03 11.4H9.042C9.373 11.4 9.642 11.669 9.642 12 9.642 12.331 9.373 12.6 9.042 12.6H9.03ZM6.06 12.6C5.729 12.6 5.46 12.331 5.46 12 5.46 11.669 5.729 11.4 6.06 11.4H6.072C6.403 11.4 6.672 11.669 6.672 12 6.672 12.331 6.403 12.6 6.072 12.6H6.06ZM3.097 12.6C2.765 12.6 2.497 12.331 2.497 12 2.497 11.669 2.765 11.4 3.097 11.4H3.103C3.434 11.4 3.703 11.669 3.703 12 3.703 12.331 3.434 12.6 3.103 12.6H3.097Z" fill="black"/>
</svg>