<svg width="24" height="24" viewBox="0 0 24 24" fill="none" xmlns="http://www.w3.org/2000/svg">
<rect opacity="0.2" x="4.5752" y="4.5752" width="14.85" height="14.85" fill="black"/>
<path d="M19.4297 18.9199C19.7058 18.9199 19.9297 19.1438 19.9297 19.4199C19.9297 19.6961 19.7058 19.9199 19.4297 19.9199L4.58008 19.9199C4.30394 19.9199 4.08008 19.6961 4.08008 19.4199C4.08008 19.1438 4.30394 18.9199 4.58008 18.9199L19.4297 18.9199Z" fill="black"/>
<path d="M12.5 4.58496C12.5 4.86111 12.2761 5.08496 12 5.08496C11.7239 5.08496 11.5 4.86111 11.5 4.58496V4.58008C11.5 4.30394 11.7239 4.08008 12 4.08008C12.2761 4.08008 12.5 4.30394 12.5 4.58008V4.58496ZM12.5 7.05957C12.5 7.33572 12.2761 7.55957 12 7.55957C11.7239 7.55957 11.5 7.33572 11.5 7.05957V7.04981C11.5002 6.77382 11.724 6.54981 12 6.54981C12.276 6.54981 12.4998 6.77382 12.5 7.04981V7.05957ZM12.5 9.53516C12.4999 9.81123 12.2761 10.0352 12 10.0352C11.7239 10.0352 11.5001 9.81123 11.5 9.53516V9.52539C11.5 9.24925 11.7239 9.02539 12 9.02539C12.2761 9.02539 12.5 9.24925 12.5 9.52539V9.53516ZM12.5 12.0098C12.5 12.2859 12.2761 12.5098 12 12.5098C11.7239 12.5098 11.5 12.2859 11.5 12.0098V12C11.5001 11.7239 11.7239 11.5 12 11.5C12.2761 11.5 12.4999 11.7239 12.5 12V12.0098ZM12.5 14.4854C12.4998 14.7613 12.276 14.9854 12 14.9854C11.724 14.9854 11.5002 14.7613 11.5 14.4854V14.4756C11.5 14.1994 11.7239 13.9756 12 13.9756C12.2761 13.9756 12.5 14.1994 12.5 14.4756V14.4854ZM12.5 16.96C12.5 17.2361 12.2761 17.46 12 17.46C11.7239 17.46 11.5 17.2361 11.5 16.96V16.9502C11.5 16.6741 11.7239 16.4502 12 16.4502C12.2761 16.4502 12.5 16.6741 12.5 16.9502V16.96ZM12.5 19.4297C12.5 19.7058 12.2761 19.9297 12 19.9297C11.7239 19.9297 11.5 19.7058 11.5 19.4297V19.4248C11.5002 19.1488 11.724 18.9248 12 18.9248C12.276 18.9248 12.4998 19.1488 12.5 19.4248V19.4297Z" fill="black"/>
<path d="M19.9199 4.58496C19.9199 4.86111 19.6961 5.08496 19.4199 5.08496C19.1438 5.08496 18.9199 4.86111 18.9199 4.58496V4.58008C18.9199 4.30394 19.1438 4.08008 19.4199 4.08008C19.6961 4.08008 19.9199 4.30394 19.9199 4.58008V4.58496ZM19.9199 7.05957C19.9199 7.33572 19.6961 7.55957 19.4199 7.55957C19.1438 7.55957 18.9199 7.33572 18.9199 7.05957V7.04981C18.9201 6.77382 19.1439 6.54981 19.4199 6.54981C19.696 6.54981 19.9197 6.77382 19.9199 7.04981V7.05957ZM19.9199 9.53516C19.9198 9.81123 19.696 10.0352 19.4199 10.0352C19.1438 10.0352 18.92 9.81123 18.9199 9.53516V9.52539C18.9199 9.24925 19.1438 9.02539 19.4199 9.02539C19.6961 9.02539 19.9199 9.24925 19.9199 9.52539V9.53516ZM19.9199 12.0098C19.9199 12.2859 19.6961 12.5098 19.4199 12.5098C19.1438 12.5098 18.9199 12.2859 18.9199 12.0098V12C18.92 11.7239 19.1438 11.5 19.4199 11.5C19.696 11.5 19.9198 11.7239 19.9199 12V12.0098ZM19.9199 14.4854C19.9197 14.7613 19.696 14.9854 19.4199 14.9854C19.1439 14.9854 18.9201 14.7613 18.9199 14.4854V14.4756C18.9199 14.1994 19.1438 13.9756 19.4199 13.9756C19.6961 13.9756 19.9199 14.1994 19.9199 14.4756V14.4854ZM19.9199 16.96C19.9199 17.2361 19.6961 17.46 19.4199 17.46C19.1438 17.46 18.9199 17.2361 18.9199 16.96V16.9502C18.9199 16.6741 19.1438 16.4502 19.4199 16.4502C19.6961 16.4502 19.9199 16.6741 19.9199 16.9502V16.96ZM19.9199 19.4297C19.9199 19.7058 19.6961 19.9297 19.4199 19.9297C19.1438 19.9297 18.9199 19.7058 18.9199 19.4297V19.4248C18.9201 19.1488 19.1439 18.9248 19.4199 18.9248C19.6959 18.9248 19.9197 19.1488 19.9199 19.4248V19.4297Z" fill="black"/>
<path d="M5.08008 4.58496C5.08008 4.86111 4.85622 5.08496 4.58008 5.08496C4.30394 5.08496 4.08008 4.86111 4.08008 4.58496L4.08008 4.58008C4.08008 4.30394 4.30394 4.08008 4.58008 4.08008C4.85622 4.08008 5.08008 4.30394 5.08008 4.58008V4.58496ZM5.08008 7.05957C5.08008 7.33572 4.85622 7.55957 4.58008 7.55957C4.30394 7.55957 4.08008 7.33572 4.08008 7.05957L4.08008 7.04981C4.08027 6.77382 4.30405 6.54981 4.58008 6.54981C4.85611 6.54981 5.0799 6.77382 5.08008 7.04981V7.05957ZM5.08008 9.53516C5.08 9.81123 4.85617 10.0352 4.58008 10.0352C4.30399 10.0352 4.08016 9.81123 4.08008 9.53516L4.08008 9.52539C4.08008 9.24925 4.30394 9.02539 4.58008 9.02539C4.85622 9.02539 5.08008 9.24925 5.08008 9.52539V9.53516ZM5.08008 12.0098C5.08008 12.2859 4.85622 12.5098 4.58008 12.5098C4.30394 12.5098 4.08008 12.2859 4.08008 12.0098L4.08008 12C4.08016 11.7239 4.30399 11.5 4.58008 11.5C4.85617 11.5 5.08 11.7239 5.08008 12V12.0098ZM5.08008 14.4854C5.07989 14.7613 4.85611 14.9854 4.58008 14.9854C4.30405 14.9854 4.08026 14.7613 4.08008 14.4854L4.08008 14.4756C4.08008 14.1994 4.30394 13.9756 4.58008 13.9756C4.85622 13.9756 5.08008 14.1994 5.08008 14.4756V14.4854ZM5.08008 16.96C5.08008 17.2361 4.85622 17.46 4.58008 17.46C4.30394 17.46 4.08008 17.2361 4.08008 16.96L4.08008 16.9502C4.08008 16.6741 4.30394 16.4502 4.58008 16.4502C4.85622 16.4502 5.08008 16.6741 5.08008 16.9502V16.96ZM5.08008 19.4297C5.08008 19.7058 4.85622 19.9297 4.58008 19.9297C4.30394 19.9297 4.08008 19.7058 4.08008 19.4297L4.08008 19.4248C4.08026 19.1488 4.30405 18.9248 4.58008 18.9248C4.85611 18.9248 5.07989 19.1488 5.08008 19.4248V19.4297Z" fill="black"/>
<path d="M19.4253 12.5C19.1492 12.5 18.9253 12.2761 18.9253 12C18.9253 11.7239 19.1492 11.5 19.4253 11.5H19.4302C19.7063 11.5 19.9302 11.7239 19.9302 12C19.9302 12.2761 19.7063 12.5 19.4302 12.5H19.4253ZM16.9507 12.5C16.6745 12.5 16.4507 12.2761 16.4507 12C16.4507 11.7239 16.6745 11.5 16.9507 11.5H16.9605C17.2364 11.5002 17.4605 11.724 17.4605 12C17.4605 12.276 17.2364 12.4998 16.9605 12.5H16.9507ZM14.4751 12.5C14.199 12.4999 13.9751 12.2761 13.9751 12C13.9751 11.7239 14.199 11.5001 14.4751 11.5H14.4849C14.761 11.5 14.9849 11.7239 14.9849 12C14.9849 12.2761 14.761 12.5 14.4849 12.5H14.4751ZM12.0005 12.5C11.7243 12.5 11.5 12.2761 11.5 12C11.5001 11.7239 11.7239 11.5 12 11.5L12.0103 11.5C12.2863 11.5001 12.5103 11.7239 12.5103 12C12.5103 12.2761 12.2863 12.4999 12.0103 12.5H12.0005ZM9.52491 12.5C9.24892 12.4998 9.02491 12.276 9.02491 12C9.02491 11.724 9.24892 11.5002 9.52491 11.5H9.53467C9.81081 11.5 10.0347 11.7239 10.0347 12C10.0347 12.2761 9.81081 12.5 9.53467 12.5H9.52491ZM7.0503 12.5C6.77415 12.5 6.5503 12.2761 6.5503 12C6.5503 11.7239 6.77415 11.5 7.0503 11.5H7.06006C7.3362 11.5 7.56006 11.7239 7.56006 12C7.56006 12.2761 7.3362 12.5 7.06006 12.5H7.0503ZM4.58057 12.5C4.30443 12.5 4.08008 12.2761 4.08008 12C4.08016 11.7239 4.30399 11.5 4.58008 11.5L4.58545 11.5C4.86144 11.5002 5.08545 11.724 5.08545 12C5.08545 12.276 4.86144 12.4998 4.58545 12.5H4.58057Z" fill="black"/>
<path d="M19.4253 5.08008C19.1492 5.08008 18.9253 4.85622 18.9253 4.58008C18.9253 4.30394 19.1492 4.08008 19.4253 4.08008L19.4302 4.08008C19.7063 4.08008 19.9302 4.30394 19.9302 4.58008C19.9302 4.85622 19.7063 5.08008 19.4302 5.08008H19.4253ZM16.9507 5.08008C16.6745 5.08008 16.4507 4.85622 16.4507 4.58008C16.4507 4.30394 16.6745 4.08008 16.9507 4.08008L16.9605 4.08008C17.2364 4.08027 17.4605 4.30405 17.4605 4.58008C17.4605 4.85611 17.2364 5.0799 16.9605 5.08008H16.9507ZM14.4751 5.08008C14.199 5.08 13.9751 4.85617 13.9751 4.58008C13.9751 4.30399 14.199 4.08016 14.4751 4.08008L14.4849 4.08008C14.761 4.08008 14.9849 4.30394 14.9849 4.58008C14.9849 4.85622 14.761 5.08008 14.4849 5.08008H14.4751ZM12.0005 5.08008C11.7243 5.08008 11.5 4.85622 11.5 4.58008C11.5 4.30394 11.7239 4.08008 12 4.08008L12.0103 4.08008C12.2863 4.08016 12.5103 4.30399 12.5103 4.58008C12.5103 4.85617 12.2863 5.08 12.0103 5.08008H12.0005ZM9.52491 5.08008C9.24892 5.07989 9.02491 4.85611 9.02491 4.58008C9.02491 4.30405 9.24892 4.08026 9.52491 4.08008L9.53467 4.08008C9.81081 4.08008 10.0347 4.30394 10.0347 4.58008C10.0347 4.85622 9.81081 5.08008 9.53467 5.08008H9.52491ZM7.0503 5.08008C6.77415 5.08008 6.5503 4.85622 6.5503 4.58008C6.5503 4.30394 6.77415 4.08008 7.0503 4.08008L7.06006 4.08008C7.3362 4.08008 7.56006 4.30394 7.56006 4.58008C7.56006 4.85622 7.3362 5.08008 7.06006 5.08008H7.0503ZM4.58057 5.08008C4.30443 5.08008 4.08008 4.85622 4.08008 4.58008C4.08008 4.30394 4.30394 4.08008 4.58008 4.08008L4.58545 4.08008C4.86144 4.08026 5.08545 4.30405 5.08545 4.58008C5.08545 4.85611 4.86144 5.07989 4.58545 5.08008H4.58057Z" fill="black"/>
</svg>
