<svg width="24" height="24" viewBox="0 0 24 24" fill="none" xmlns="http://www.w3.org/2000/svg">
<rect x="20" y="20.75" width="16.5" height="16.5" rx="1.5" transform="rotate(-180 20 20.75)" fill="black" fill-opacity="0.2"/>
<path d="M20.75 16.989C20.75 17.4036 20.4139 17.7397 19.9993 17.7397C19.5846 17.7397 19.2485 17.4036 19.2485 16.989L19.2485 7.99042C19.2485 7.5758 19.5847 7.23968 19.9993 7.23968C20.4139 7.23968 20.75 7.5758 20.75 7.99042L20.75 16.989Z" fill="black"/>
<path d="M17 20.75L6.5 20.75M17 4.25L6.5 4.25M3.5 17.75L3.5 7.25M19.9993 7.23968C20.4139 7.23968 20.75 7.5758 20.75 7.99042L20.75 16.989C20.75 17.4036 20.4139 17.7397 19.9993 17.7397C19.5846 17.7397 19.2485 17.4036 19.2485 16.989L19.2485 7.99042C19.2485 7.5758 19.5847 7.23968 19.9993 7.23968Z" stroke="black" stroke-width="1.5" stroke-linecap="round"/>
</svg>
