<svg width="24" height="24" viewBox="0 0 24 24" fill="none" xmlns="http://www.w3.org/2000/svg">
<rect x="20.25" y="20.25" width="16.5" height="16.5" transform="rotate(-180 20.25 20.25)" fill="black" fill-opacity="0.2"/>
<path d="M12.005 3.75384L12 3.75384M14.752 3.75384L14.747 3.75384M17.505 3.75384L17.5 3.75384M20.255 3.75385L20.25 3.75385M9.25183 3.75384L9.24683 3.75384M6.50501 3.75384L6.50001 3.75384M3.75501 3.75384L3.75001 3.75384M12.005 20.2499L12 20.2499M12.005 20.2499L12.005 20.2524M12.005 20.2499L12.005 20.2474M14.752 20.2499L14.747 20.2499M17.505 20.2499L17.5 20.2499M20.255 20.2499L20.25 20.2499M20.255 20.2499L20.255 20.2524M20.255 20.2499L20.255 20.2474M9.25183 20.2499L9.24683 20.2499M6.505 20.2499L6.5 20.2499M3.755 20.2499L3.75001 20.2499M3.755 20.2499L3.755 20.2524M3.755 20.2499L3.755 20.2474M12.005 11.9999L12 11.9999M12.005 11.9999L12.005 12.0024M12.005 11.9999L12.005 11.9974M14.752 11.9999L14.747 11.9999M17.505 11.9999L17.5 11.9999M20.255 11.9999L20.25 11.9999M20.255 11.9999L20.255 12.0024M20.255 11.9999L20.255 11.9974M9.25183 11.9999L9.24683 11.9999M6.50501 11.9999L6.50001 11.9999M3.75501 11.9999L3.75001 11.9999M3.75501 11.9999L3.75501 12.0024M3.75501 11.9999L3.75501 11.9974M20.255 14.7494L20.255 14.7444M20.255 17.5024L20.255 17.4974M20.255 9.24927L20.255 9.24427M20.255 6.50244L20.255 6.49744M20.255 3.75244L20.255 3.74744M12.005 14.7494L12.005 14.7444M12.005 17.5024L12.005 17.4974M12.005 9.24927L12.005 9.24427M12.005 6.50244L12.005 6.49744M12.005 3.75244L12.005 3.74744M3.75501 14.7494L3.75501 14.7444M3.75501 17.5024L3.75501 17.4974M3.75501 9.24927L3.75501 9.24427M3.75501 6.50244L3.75501 6.49744M3.75501 3.75244L3.75501 3.74744M20.2531 20.248L3.75688 20.248" stroke="black" stroke-width="1.5" stroke-linecap="round" stroke-linejoin="round"/>
</svg>
