<svg viewBox="0 0 24 24" fill="none" xmlns="http://www.w3.org/2000/svg" width="24" height="24">
<rect opacity="0.2" x="4.5752" y="4.5752" width="14.85" height="14.85" fill="black"/>
<path d="M20.304 3.097C20.304 2.765 20.573 2.497 20.904 2.497 21.235 2.497 21.504 2.765 21.504 3.097L21.504 20.916C21.504 21.248 21.235 21.516 20.904 21.516 20.573 21.516 20.304 21.248 20.304 20.916L20.304 3.097Z" fill="black"/>
<path d="M3.102 11.4C3.433 11.4 3.702 11.669 3.702 12 3.702 12.331 3.433 12.6 3.102 12.6H3.096C2.765 12.6 2.496 12.331 2.496 12 2.496 11.669 2.765 11.4 3.096 11.4H3.102ZM6.071 11.4C6.403 11.4 6.671 11.669 6.671 12 6.671 12.331 6.403 12.6 6.071 12.6H6.06C5.729 12.6 5.46 12.331 5.46 12 5.46 11.669 5.729 11.4 6.06 11.4H6.071ZM9.042 11.4C9.373 11.4 9.642 11.669 9.642 12 9.642 12.331 9.373 12.6 9.042 12.6H9.03C8.699 12.6 8.43 12.331 8.43 12 8.43 11.669 8.699 11.4 9.03 11.4H9.042ZM12.012 11.4C12.343 11.4 12.612 11.669 12.612 12 12.612 12.331 12.343 12.6 12.012 12.6H12C11.669 12.6 11.4 12.331 11.4 12 11.4 11.669 11.669 11.4 12 11.4H12.012ZM14.982 11.4C15.314 11.4 15.582 11.669 15.582 12 15.582 12.331 15.314 12.6 14.982 12.6H14.971C14.639 12.6 14.371 12.331 14.371 12 14.371 11.669 14.639 11.4 14.971 11.4H14.982ZM17.952 11.4C18.283 11.4 18.552 11.669 18.552 12 18.552 12.331 18.283 12.6 17.952 12.6H17.94C17.609 12.6 17.34 12.331 17.34 12 17.34 11.669 17.609 11.4 17.94 11.4H17.952ZM20.916 11.4C21.247 11.4 21.516 11.669 21.516 12 21.516 12.331 21.247 12.6 20.916 12.6H20.91C20.579 12.6 20.31 12.331 20.31 12 20.31 11.669 20.579 11.4 20.91 11.4H20.916Z" fill="black"/>
<path d="M3.102 2.496C3.433 2.496 3.702 2.765 3.702 3.096 3.702 3.427 3.433 3.696 3.102 3.696H3.096C2.765 3.696 2.496 3.427 2.496 3.096 2.496 2.765 2.765 2.496 3.096 2.496L3.102 2.496ZM6.071 2.496C6.403 2.496 6.671 2.765 6.671 3.096 6.671 3.427 6.403 3.696 6.071 3.696H6.06C5.729 3.696 5.46 3.427 5.46 3.096 5.46 2.765 5.729 2.496 6.06 2.496L6.071 2.496ZM9.042 2.496C9.373 2.496 9.642 2.765 9.642 3.096 9.642 3.427 9.373 3.696 9.042 3.696H9.03C8.699 3.696 8.43 3.427 8.43 3.096 8.43 2.765 8.699 2.496 9.03 2.496L9.042 2.496ZM12.012 2.496C12.343 2.496 12.612 2.765 12.612 3.096 12.612 3.427 12.343 3.696 12.012 3.696H12C11.669 3.696 11.4 3.427 11.4 3.096 11.4 2.765 11.669 2.496 12 2.496L12.012 2.496ZM14.982 2.496C15.314 2.496 15.582 2.765 15.582 3.096 15.582 3.427 15.314 3.696 14.982 3.696H14.971C14.639 3.696 14.371 3.427 14.371 3.096 14.371 2.765 14.639 2.496 14.971 2.496L14.982 2.496ZM17.952 2.496C18.283 2.496 18.552 2.765 18.552 3.096 18.552 3.427 18.283 3.696 17.952 3.696H17.94C17.609 3.696 17.34 3.427 17.34 3.096 17.34 2.765 17.609 2.496 17.94 2.496L17.952 2.496ZM20.916 2.496C21.247 2.496 21.516 2.765 21.516 3.096 21.516 3.427 21.247 3.696 20.916 3.696H20.91C20.579 3.696 20.31 3.427 20.31 3.096 20.31 2.765 20.579 2.496 20.91 2.496L20.916 2.496Z" fill="black"/>
<path d="M3.102 20.304C3.433 20.304 3.702 20.573 3.702 20.904 3.702 21.235 3.433 21.504 3.102 21.504H3.096C2.765 21.504 2.496 21.235 2.496 20.904 2.496 20.573 2.765 20.304 3.096 20.304H3.102ZM6.071 20.304C6.403 20.304 6.671 20.573 6.671 20.904 6.671 21.235 6.403 21.504 6.071 21.504H6.06C5.729 21.504 5.46 21.235 5.46 20.904 5.46 20.573 5.729 20.304 6.06 20.304H6.071ZM9.042 20.304C9.373 20.304 9.642 20.573 9.642 20.904 9.642 21.235 9.373 21.504 9.042 21.504H9.03C8.699 21.504 8.43 21.235 8.43 20.904 8.43 20.573 8.699 20.304 9.03 20.304H9.042ZM12.012 20.304C12.343 20.304 12.612 20.573 12.612 20.904 12.612 21.235 12.343 21.504 12.012 21.504H12C11.669 21.504 11.4 21.235 11.4 20.904 11.4 20.573 11.669 20.304 12 20.304H12.012ZM14.982 20.304C15.314 20.304 15.582 20.573 15.582 20.904 15.582 21.235 15.314 21.504 14.982 21.504H14.971C14.639 21.504 14.371 21.235 14.371 20.904 14.371 20.573 14.639 20.304 14.971 20.304H14.982ZM17.952 20.304C18.283 20.304 18.552 20.573 18.552 20.904 18.552 21.235 18.283 21.504 17.952 21.504H17.94C17.609 21.504 17.34 21.235 17.34 20.904 17.34 20.573 17.609 20.304 17.94 20.304H17.952ZM20.916 20.304C21.247 20.304 21.516 20.573 21.516 20.904 21.516 21.235 21.247 21.504 20.916 21.504H20.91C20.579 21.504 20.31 21.235 20.31 20.904 20.31 20.573 20.579 20.304 20.91 20.304H20.916Z" fill="black"/>
<path d="M12.6 3.102C12.6 3.433 12.331 3.702 12 3.702 11.669 3.702 11.4 3.433 11.4 3.102V3.096C11.4 2.765 11.669 2.496 12 2.496 12.331 2.496 12.6 2.765 12.6 3.096V3.102ZM12.6 6.071C12.6 6.403 12.331 6.671 12 6.671 11.669 6.671 11.4 6.403 11.4 6.071V6.06C11.4 5.729 11.669 5.46 12 5.46 12.331 5.46 12.6 5.729 12.6 6.06V6.071ZM12.6 9.042C12.6 9.373 12.331 9.642 12 9.642 11.669 9.642 11.4 9.373 11.4 9.042V9.03C11.4 8.699 11.669 8.43 12 8.43 12.331 8.43 12.6 8.699 12.6 9.03V9.042ZM12.6 12.012C12.6 12.343 12.331 12.612 12 12.612 11.669 12.612 11.4 12.343 11.4 12.012L11.4 12C11.4 11.669 11.669 11.4 12 11.4 12.331 11.4 12.6 11.669 12.6 12V12.012ZM12.6 14.982C12.6 15.314 12.331 15.582 12 15.582 11.669 15.582 11.4 15.314 11.4 14.982V14.971C11.4 14.639 11.669 14.371 12 14.371 12.331 14.371 12.6 14.639 12.6 14.971V14.982ZM12.6 17.952C12.6 18.283 12.331 18.552 12 18.552 11.669 18.552 11.4 18.283 11.4 17.952V17.94C11.4 17.609 11.669 17.34 12 17.34 12.331 17.34 12.6 17.609 12.6 17.94V17.952ZM12.6 20.916C12.6 21.247 12.331 21.516 12 21.516 11.669 21.516 11.4 21.247 11.4 20.916V20.91C11.4 20.579 11.669 20.31 12 20.31 12.331 20.31 12.6 20.579 12.6 20.91V20.916Z" fill="black"/>
<path d="M3.696 3.102C3.696 3.433 3.427 3.702 3.096 3.702 2.765 3.702 2.496 3.433 2.496 3.102L2.496 3.096C2.496 2.765 2.765 2.496 3.096 2.496 3.427 2.496 3.696 2.765 3.696 3.096V3.102ZM3.696 6.071C3.696 6.403 3.427 6.671 3.096 6.671 2.765 6.671 2.496 6.403 2.496 6.071L2.496 6.06C2.496 5.729 2.765 5.46 3.096 5.46 3.427 5.46 3.696 5.729 3.696 6.06V6.071ZM3.696 9.042C3.696 9.373 3.427 9.642 3.096 9.642 2.765 9.642 2.496 9.373 2.496 9.042L2.496 9.03C2.496 8.699 2.765 8.43 3.096 8.43 3.427 8.43 3.696 8.699 3.696 9.03V9.042ZM3.696 12.012C3.696 12.343 3.427 12.612 3.096 12.612 2.765 12.612 2.496 12.343 2.496 12.012L2.496 12C2.496 11.669 2.765 11.4 3.096 11.4 3.427 11.4 3.696 11.669 3.696 12V12.012ZM3.696 14.982C3.696 15.314 3.427 15.582 3.096 15.582 2.765 15.582 2.496 15.314 2.496 14.982L2.496 14.971C2.496 14.639 2.765 14.371 3.096 14.371 3.427 14.371 3.696 14.639 3.696 14.971V14.982ZM3.696 17.952C3.696 18.283 3.427 18.552 3.096 18.552 2.765 18.552 2.496 18.283 2.496 17.952L2.496 17.94C2.496 17.609 2.765 17.34 3.096 17.34 3.427 17.34 3.696 17.609 3.696 17.94V17.952ZM3.696 20.916C3.696 21.247 3.427 21.516 3.096 21.516 2.765 21.516 2.496 21.247 2.496 20.916L2.496 20.91C2.496 20.579 2.765 20.31 3.096 20.31 3.427 20.31 3.696 20.579 3.696 20.91V20.916Z" fill="black"/>
</svg>