<svg width="24" height="24" viewBox="0 0 24 24" fill="none" xmlns="http://www.w3.org/2000/svg">
<path opacity="0.2" d="M7.25 17H16.25C16.6642 17 17 16.6642 17 16.25V7.25C14.5 7.25 12 8.25 10.5 9.75C8.5 11.75 7.5 13.25 7.25 17Z" fill="black"/>
<path d="M7.75 17C7.75 14.5467 8.7243 12.1937 10.459 10.459C12.1937 8.7243 14.5467 7.75 17 7.75C17.2761 7.75 17.5 7.52614 17.5 7.25C17.5 6.97386 17.2761 6.75 17 6.75C14.2816 6.75 11.6742 7.82967 9.75195 9.75195C7.82967 11.6742 6.75 14.2816 6.75 17C6.75 17.2761 6.97386 17.5 7.25 17.5C7.52614 17.5 7.75 17.2761 7.75 17Z" fill="black"/>
</svg>
