<svg width="24" height="24" viewBox="0 0 24 24" fill="none" xmlns="http://www.w3.org/2000/svg">
<rect x="3.75" y="7.50391" width="16.5" height="10.4961" fill="black" fill-opacity="0.2"/>
<path d="M3.75001 7.5C3.75001 6.67157 4.42159 6 5.25001 6H18.75C19.5784 6 20.25 6.67157 20.25 7.5C20.25 8.32843 19.5784 9 18.75 9H5.25001C4.42158 9 3.75001 8.32843 3.75001 7.5Z" fill="black"/>
<path d="M3.75001 13.5036C3.75001 13.0894 4.0858 12.7536 4.50001 12.7536H19.5C19.9142 12.7536 20.25 13.0894 20.25 13.5036C20.25 13.9178 19.9142 14.2536 19.5 14.2536H4.50001C4.0858 14.2536 3.75001 13.9178 3.75001 13.5036Z" fill="black"/>
<path d="M3.75001 18L20.25 18M3.75001 7.5C3.75001 6.67157 4.42159 6 5.25001 6H18.75C19.5784 6 20.25 6.67157 20.25 7.5C20.25 8.32843 19.5784 9 18.75 9H5.25001C4.42158 9 3.75001 8.32843 3.75001 7.5ZM3.75001 13.5036C3.75001 13.0894 4.0858 12.7536 4.50001 12.7536H19.5C19.9142 12.7536 20.25 13.0894 20.25 13.5036C20.25 13.9178 19.9142 14.2536 19.5 14.2536H4.50001C4.0858 14.2536 3.75001 13.9178 3.75001 13.5036Z" stroke="black" stroke-width="1.5" stroke-linecap="round"/>
</svg>
