<svg viewBox="0 0 24 24" fill="none" xmlns="http://www.w3.org/2000/svg" width="24" height="24">
<rect opacity="0.2" x="4.5752" y="4.5752" width="14.85" height="14.85" fill="black"/>
<path d="M3.097 3.696C2.765 3.696 2.497 3.427 2.497 3.096 2.497 2.765 2.765 2.496 3.097 2.496L20.916 2.496C21.248 2.496 21.516 2.765 21.516 3.096 21.516 3.427 21.248 3.696 20.916 3.696L3.097 3.696Z" fill="black"/>
<path d="M11.4 20.91C11.4 20.579 11.669 20.31 12 20.31 12.331 20.31 12.6 20.579 12.6 20.91V20.916C12.6 21.248 12.331 21.516 12 21.516 11.669 21.516 11.4 21.248 11.4 20.916V20.91ZM11.4 17.941C11.4 17.609 11.669 17.341 12 17.341 12.331 17.341 12.6 17.609 12.6 17.941V17.953C12.6 18.284 12.331 18.553 12 18.553 11.669 18.553 11.4 18.284 11.4 17.953V17.941ZM11.4 14.97C11.4 14.639 11.669 14.37 12 14.37 12.331 14.37 12.6 14.639 12.6 14.97V14.982C12.6 15.313 12.331 15.582 12 15.582 11.669 15.582 11.4 15.313 11.4 14.982V14.97ZM11.4 12.001C11.4 11.669 11.669 11.401 12 11.401 12.331 11.401 12.6 11.669 12.6 12.001V12.012C12.6 12.344 12.331 12.612 12 12.612 11.669 12.612 11.4 12.344 11.4 12.012V12.001ZM11.4 9.03C11.4 8.699 11.669 8.43 12 8.43 12.331 8.43 12.6 8.699 12.6 9.03V9.042C12.6 9.373 12.331 9.642 12 9.642 11.669 9.642 11.4 9.373 11.4 9.042V9.03ZM11.4 6.06C11.4 5.729 11.669 5.46 12 5.46 12.331 5.46 12.6 5.729 12.6 6.06V6.072C12.6 6.403 12.331 6.672 12 6.672 11.669 6.672 11.4 6.403 11.4 6.072V6.06ZM11.4 3.097C11.4 2.765 11.669 2.497 12 2.497 12.331 2.497 12.6 2.765 12.6 3.097V3.103C12.6 3.434 12.331 3.703 12 3.703 11.669 3.703 11.4 3.434 11.4 3.103V3.097Z" fill="black"/>
<path d="M2.496 20.91C2.496 20.579 2.765 20.31 3.096 20.31 3.427 20.31 3.696 20.579 3.696 20.91V20.916C3.696 21.248 3.427 21.516 3.096 21.516 2.765 21.516 2.496 21.248 2.496 20.916L2.496 20.91ZM2.496 17.941C2.496 17.609 2.765 17.341 3.096 17.341 3.427 17.341 3.696 17.609 3.696 17.941V17.953C3.696 18.284 3.427 18.553 3.096 18.553 2.765 18.553 2.496 18.284 2.496 17.953L2.496 17.941ZM2.496 14.97C2.496 14.639 2.765 14.37 3.096 14.37 3.427 14.37 3.696 14.639 3.696 14.97V14.982C3.696 15.313 3.427 15.582 3.096 15.582 2.765 15.582 2.496 15.313 2.496 14.982L2.496 14.97ZM2.496 12.001C2.496 11.669 2.765 11.401 3.096 11.401 3.427 11.401 3.696 11.669 3.696 12.001V12.012C3.696 12.344 3.427 12.612 3.096 12.612 2.765 12.612 2.496 12.344 2.496 12.012L2.496 12.001ZM2.496 9.03C2.496 8.699 2.765 8.43 3.096 8.43 3.427 8.43 3.696 8.699 3.696 9.03V9.042C3.696 9.373 3.427 9.642 3.096 9.642 2.765 9.642 2.496 9.373 2.496 9.042L2.496 9.03ZM2.496 6.06C2.496 5.729 2.765 5.46 3.096 5.46 3.427 5.46 3.696 5.729 3.696 6.06V6.072C3.696 6.403 3.427 6.672 3.096 6.672 2.765 6.672 2.496 6.403 2.496 6.072L2.496 6.06ZM2.497 3.096C2.497 2.765 2.765 2.496 3.097 2.496 3.428 2.496 3.696 2.765 3.696 3.097V3.103C3.696 3.434 3.427 3.703 3.096 3.703 2.765 3.703 2.496 3.434 2.496 3.103L2.497 3.096Z" fill="black"/>
<path d="M20.304 20.91C20.304 20.579 20.573 20.31 20.904 20.31 21.235 20.31 21.504 20.579 21.504 20.91V20.916C21.504 21.248 21.235 21.516 20.904 21.516 20.573 21.516 20.304 21.248 20.304 20.916V20.91ZM20.304 17.941C20.304 17.609 20.573 17.341 20.904 17.341 21.235 17.341 21.504 17.609 21.504 17.941V17.953C21.504 18.284 21.235 18.553 20.904 18.553 20.573 18.553 20.304 18.284 20.304 17.953V17.941ZM20.304 14.97C20.304 14.639 20.573 14.37 20.904 14.37 21.235 14.37 21.504 14.639 21.504 14.97V14.982C21.504 15.313 21.235 15.582 20.904 15.582 20.573 15.582 20.304 15.313 20.304 14.982V14.97ZM20.304 12.001C20.304 11.669 20.573 11.401 20.904 11.401 21.235 11.401 21.504 11.669 21.504 12.001V12.012C21.504 12.344 21.235 12.612 20.904 12.612 20.573 12.612 20.304 12.344 20.304 12.012V12.001ZM20.304 9.03C20.304 8.699 20.573 8.43 20.904 8.43 21.235 8.43 21.504 8.699 21.504 9.03V9.042C21.504 9.373 21.235 9.642 20.904 9.642 20.573 9.642 20.304 9.373 20.304 9.042V9.03ZM20.304 6.06C20.304 5.729 20.573 5.46 20.904 5.46 21.235 5.46 21.504 5.729 21.504 6.06V6.072C21.504 6.403 21.235 6.672 20.904 6.672 20.573 6.672 20.304 6.403 20.304 6.072V6.06ZM20.304 3.097C20.304 2.765 20.573 2.497 20.904 2.497 21.235 2.497 21.504 2.765 21.504 3.097V3.103C21.504 3.434 21.235 3.703 20.904 3.703 20.573 3.703 20.304 3.434 20.304 3.103V3.097Z" fill="black"/>
<path d="M3.102 11.394C3.433 11.394 3.702 11.663 3.702 11.994 3.702 12.326 3.433 12.594 3.102 12.594H3.096C2.765 12.594 2.496 12.326 2.496 11.994 2.496 11.663 2.765 11.394 3.096 11.394H3.102ZM6.071 11.394C6.403 11.394 6.671 11.663 6.671 11.994 6.671 12.326 6.403 12.594 6.071 12.594H6.06C5.729 12.594 5.46 12.325 5.46 11.994 5.46 11.663 5.729 11.394 6.06 11.394H6.071ZM9.042 11.394C9.373 11.394 9.642 11.663 9.642 11.994 9.642 12.325 9.373 12.594 9.042 12.594H9.03C8.699 12.594 8.43 12.326 8.43 11.994 8.43 11.663 8.699 11.394 9.03 11.394H9.042ZM12.012 11.394C12.343 11.394 12.612 11.663 12.612 11.994 12.612 12.326 12.343 12.594 12.012 12.594H12C11.669 12.594 11.4 12.325 11.4 11.994 11.4 11.663 11.669 11.394 12 11.394H12.012ZM14.982 11.394C15.314 11.394 15.582 11.663 15.582 11.994 15.582 12.325 15.314 12.594 14.982 12.594H14.971C14.639 12.594 14.371 12.326 14.371 11.994 14.371 11.663 14.639 11.394 14.971 11.394H14.982ZM17.952 11.394C18.283 11.394 18.552 11.663 18.552 11.994 18.552 12.326 18.283 12.594 17.952 12.594H17.94C17.609 12.594 17.34 12.326 17.34 11.994 17.34 11.663 17.609 11.394 17.94 11.394H17.952ZM20.916 11.394C21.247 11.394 21.516 11.663 21.516 11.994 21.516 12.326 21.247 12.594 20.916 12.594H20.91C20.579 12.594 20.31 12.325 20.31 11.994 20.31 11.663 20.579 11.394 20.91 11.394H20.916Z" fill="black"/>
<path d="M3.102 20.304C3.433 20.304 3.702 20.573 3.702 20.904 3.702 21.235 3.433 21.504 3.102 21.504H3.096C2.765 21.504 2.496 21.235 2.496 20.904 2.496 20.573 2.765 20.304 3.096 20.304H3.102ZM6.071 20.304C6.403 20.304 6.671 20.573 6.671 20.904 6.671 21.235 6.403 21.504 6.071 21.504H6.06C5.729 21.504 5.46 21.235 5.46 20.904 5.46 20.573 5.729 20.304 6.06 20.304H6.071ZM9.042 20.304C9.373 20.304 9.642 20.573 9.642 20.904 9.642 21.235 9.373 21.504 9.042 21.504H9.03C8.699 21.504 8.43 21.235 8.43 20.904 8.43 20.573 8.699 20.304 9.03 20.304H9.042ZM12.012 20.304C12.343 20.304 12.612 20.573 12.612 20.904 12.612 21.235 12.343 21.504 12.012 21.504H12C11.669 21.504 11.4 21.235 11.4 20.904 11.4 20.573 11.669 20.304 12 20.304H12.012ZM14.982 20.304C15.314 20.304 15.582 20.573 15.582 20.904 15.582 21.235 15.314 21.504 14.982 21.504H14.971C14.639 21.504 14.371 21.235 14.371 20.904 14.371 20.573 14.639 20.304 14.971 20.304H14.982ZM17.952 20.304C18.283 20.304 18.552 20.573 18.552 20.904 18.552 21.235 18.283 21.504 17.952 21.504H17.94C17.609 21.504 17.34 21.235 17.34 20.904 17.34 20.573 17.609 20.304 17.94 20.304H17.952ZM20.916 20.304C21.247 20.304 21.516 20.573 21.516 20.904 21.516 21.235 21.247 21.504 20.916 21.504H20.91C20.579 21.504 20.31 21.235 20.31 20.904 20.31 20.573 20.579 20.304 20.91 20.304H20.916Z" fill="black"/>
</svg>