<svg width="24" height="24" viewBox="0 0 24 24" fill="none" xmlns="http://www.w3.org/2000/svg">
<rect x="20.25" y="20.25" width="16.5" height="16.5" transform="rotate(-180 20.25 20.25)" fill="black" fill-opacity="0.2"/>
<path d="M3.75384 11.9976L3.75384 12.0026M3.75384 9.25061L3.75384 9.25561M3.75385 6.49756L3.75385 6.50256M3.75385 3.74756L3.75385 3.75256M3.75384 14.7507L3.75384 14.7557M3.75384 17.4976L3.75384 17.5026M3.75384 20.2476L3.75384 20.2526M20.2499 11.9976L20.2499 12.0026M20.2499 11.9976L20.2524 11.9976M20.2499 11.9976L20.2474 11.9976M20.2499 9.25061L20.2499 9.25561M20.2499 6.49756L20.2499 6.50256M20.2499 3.74756L20.2499 3.75256M20.2499 3.74756L20.2524 3.74756M20.2499 3.74756L20.2474 3.74756M20.2499 14.7507L20.2499 14.7557M20.2499 17.4976L20.2499 17.5026M20.2499 20.2476L20.2499 20.2526M20.2499 20.2476L20.2524 20.2476M20.2499 20.2476L20.2474 20.2476M11.9999 11.9976L11.9999 12.0026M11.9999 11.9976L12.0024 11.9976M11.9999 11.9976L11.9974 11.9976M11.9999 9.25061L11.9999 9.25561M11.9999 6.49756L11.9999 6.50256M11.9999 3.74756L11.9999 3.75256M11.9999 3.74756L12.0024 3.74756M11.9999 3.74756L11.9974 3.74756M11.9999 3.74756L11.9999 20.2501M11.9999 14.7507L11.9999 14.7557M11.9999 17.4976L11.9999 17.5026M11.9999 20.2476L11.9999 20.2526M11.9999 20.2476L12.0024 20.2476M11.9999 20.2476L11.9974 20.2476M14.7494 3.74756L14.7444 3.74756M17.5024 3.74756L17.4974 3.74756M9.24927 3.74756L9.24427 3.74756M6.50244 3.74756L6.49744 3.74756M3.75244 3.74756L3.74744 3.74756M14.7494 11.9976L14.7444 11.9976M17.5024 11.9976L17.4974 11.9976M9.24927 11.9976L9.24427 11.9976M6.50244 11.9976L6.49744 11.9976M3.75244 11.9976L3.74744 11.9976M14.7494 20.2476L14.7444 20.2476M17.5024 20.2476L17.4974 20.2476M9.24927 20.2476L9.24427 20.2476M6.50244 20.2476L6.49744 20.2476M3.75244 20.2476L3.74744 20.2476" stroke="black" stroke-width="1.5" stroke-linecap="round" stroke-linejoin="round"/>
</svg>
