<svg width="24" height="24" viewBox="0 0 24 24" fill="none" xmlns="http://www.w3.org/2000/svg">
<rect x="3.75" y="20.25" width="16.5" height="16.5" transform="rotate(-90 3.75 20.25)" fill="black" fill-opacity="0.2"/>
<path d="M20.2486 12.0024L20.2486 11.9974M20.2486 14.7494L20.2486 14.7444M20.2486 17.5024L20.2486 17.4974M20.2486 20.2524L20.2486 20.2474M20.2486 9.24927L20.2486 9.24427M20.2486 6.50244L20.2486 6.49744M20.2486 3.75244L20.2486 3.74744M3.7525 12.0024L3.7525 11.9974M3.7525 12.0024L3.75 12.0024M3.7525 12.0024L3.755 12.0024M3.7525 14.7494L3.7525 14.7444M3.7525 17.5024L3.7525 17.4974M3.7525 20.2524L3.7525 20.2474M3.7525 20.2524L3.75 20.2524M3.7525 20.2524L3.755 20.2524M3.7525 9.24927L3.7525 9.24427M3.7525 6.50244L3.7525 6.49744M3.7525 3.75244L3.7525 3.74744M3.7525 3.75244L3.75 3.75244M3.7525 3.75244L3.755 3.75244M12.0025 12.0024L12.0025 11.9974M12.0025 12.0024L12 12.0024M12.0025 12.0024L12.005 12.0024M12.0025 14.7494L12.0025 14.7444M12.0025 17.5024L12.0025 17.4974M12.0025 20.2524L12.0025 20.2474M12.0025 20.2524L12 20.2524M12.0025 20.2524L12.005 20.2524M12.0025 9.24927L12.0025 9.24427M12.0025 6.50244L12.0025 6.49744M12.0025 3.75244L12.0025 3.74744M12.0025 3.75244L12 3.75244M12.0025 3.75244L12.005 3.75244M9.25305 20.2524L9.25805 20.2524M6.5 20.2524L6.505 20.2524M14.7532 20.2524L14.7582 20.2524M17.5 20.2524L17.505 20.2524M20.25 20.2524L20.255 20.2524M9.25305 12.0024L9.25805 12.0024M6.5 12.0024L6.505 12.0024M14.7532 12.0024L14.7582 12.0024M17.5 12.0024L17.505 12.0024M20.25 12.0024L20.255 12.0024M9.25305 3.75244L9.25805 3.75244M6.5 3.75244L6.505 3.75244M14.7532 3.75244L14.7582 3.75244M17.5 3.75244L17.505 3.75244M20.25 3.75244L20.255 3.75244M3.75446 20.2506L3.75446 3.75431" stroke="black" stroke-width="1.5" stroke-linecap="round" stroke-linejoin="round"/>
</svg>
