<svg viewBox="0 0 24 24" fill="none" xmlns="http://www.w3.org/2000/svg" width="24" height="24">
<rect opacity="0.2" x="4.5752" y="4.5752" width="14.85" height="14.85" fill="black"/>
<path d="M3.097 12.6C2.765 12.6 2.497 12.331 2.497 12 2.497 11.669 2.765 11.4 3.097 11.4L20.916 11.4C21.248 11.4 21.516 11.669 21.516 12 21.516 12.331 21.248 12.6 20.916 12.6L3.097 12.6Z" fill="black"/>
<path d="M11.4 3.097C11.4 2.765 11.669 2.497 12 2.497 12.331 2.497 12.6 2.765 12.6 3.097L12.6 20.916C12.6 21.248 12.331 21.516 12 21.516 11.669 21.516 11.4 21.248 11.4 20.916L11.4 3.097Z" fill="black"/>
<path d="M2.496 20.91C2.496 20.579 2.765 20.31 3.096 20.31 3.427 20.31 3.696 20.579 3.696 20.91V20.916C3.696 21.248 3.427 21.516 3.096 21.516 2.765 21.516 2.496 21.248 2.496 20.916L2.496 20.91ZM2.496 17.941C2.496 17.609 2.765 17.341 3.096 17.341 3.427 17.341 3.696 17.609 3.696 17.941V17.952C3.696 18.284 3.427 18.552 3.096 18.552 2.765 18.552 2.496 18.284 2.496 17.952L2.496 17.941ZM2.496 14.97C2.496 14.639 2.765 14.37 3.096 14.37 3.427 14.37 3.696 14.639 3.696 14.97V14.982C3.696 15.313 3.427 15.582 3.096 15.582 2.765 15.582 2.496 15.313 2.496 14.982L2.496 14.97ZM2.497 12C2.497 11.669 2.765 11.4 3.097 11.4 3.428 11.4 3.696 11.669 3.696 12.001V12.012C3.696 12.344 3.427 12.612 3.096 12.612 2.765 12.612 2.496 12.344 2.496 12.012L2.497 12ZM2.496 9.03C2.496 8.699 2.765 8.43 3.096 8.43 3.427 8.43 3.696 8.699 3.696 9.03V9.042C3.696 9.373 3.427 9.642 3.096 9.642 2.765 9.642 2.496 9.373 2.496 9.042L2.496 9.03ZM2.496 6.06C2.496 5.729 2.765 5.46 3.096 5.46 3.427 5.46 3.696 5.729 3.696 6.06V6.072C3.696 6.403 3.427 6.672 3.096 6.672 2.765 6.672 2.496 6.403 2.496 6.072L2.496 6.06ZM2.496 3.097C2.496 2.765 2.765 2.497 3.096 2.497 3.427 2.497 3.696 2.765 3.696 3.097V3.103C3.696 3.434 3.427 3.703 3.096 3.703 2.765 3.703 2.496 3.434 2.496 3.103L2.496 3.097Z" fill="black"/>
<path d="M20.304 20.91C20.304 20.579 20.573 20.31 20.904 20.31 21.235 20.31 21.504 20.579 21.504 20.91V20.916C21.504 21.248 21.235 21.516 20.904 21.516 20.573 21.516 20.304 21.248 20.304 20.916V20.91ZM20.304 17.941C20.304 17.609 20.573 17.341 20.904 17.341 21.235 17.341 21.504 17.609 21.504 17.941V17.952C21.504 18.284 21.235 18.552 20.904 18.552 20.573 18.552 20.304 18.284 20.304 17.952V17.941ZM20.304 14.97C20.304 14.639 20.573 14.37 20.904 14.37 21.235 14.37 21.504 14.639 21.504 14.97V14.982C21.504 15.313 21.235 15.582 20.904 15.582 20.573 15.582 20.304 15.313 20.304 14.982V14.97ZM20.304 12.001C20.304 11.669 20.573 11.401 20.904 11.401 21.235 11.401 21.504 11.669 21.504 12.001V12.012C21.504 12.344 21.235 12.612 20.904 12.612 20.573 12.612 20.304 12.344 20.304 12.012V12.001ZM20.304 9.03C20.304 8.699 20.573 8.43 20.904 8.43 21.235 8.43 21.504 8.699 21.504 9.03V9.042C21.504 9.373 21.235 9.642 20.904 9.642 20.573 9.642 20.304 9.373 20.304 9.042V9.03ZM20.304 6.06C20.304 5.729 20.573 5.46 20.904 5.46 21.235 5.46 21.504 5.729 21.504 6.06V6.072C21.504 6.403 21.235 6.672 20.904 6.672 20.573 6.672 20.304 6.403 20.304 6.072V6.06ZM20.304 3.097C20.304 2.765 20.573 2.497 20.904 2.497 21.235 2.497 21.504 2.765 21.504 3.097V3.103C21.504 3.434 21.235 3.703 20.904 3.703 20.573 3.703 20.304 3.434 20.304 3.103V3.097Z" fill="black"/>
<path d="M3.102 2.496C3.433 2.496 3.702 2.765 3.702 3.096 3.702 3.427 3.433 3.696 3.102 3.696H3.096C2.765 3.696 2.496 3.428 2.496 3.097 2.496 2.765 2.765 2.497 3.096 2.497L3.102 2.496ZM6.071 2.496C6.403 2.496 6.671 2.765 6.671 3.096 6.671 3.427 6.403 3.696 6.071 3.696H6.06C5.729 3.696 5.46 3.427 5.46 3.096 5.46 2.765 5.729 2.496 6.06 2.496L6.071 2.496ZM9.042 2.496C9.373 2.496 9.642 2.765 9.642 3.096 9.642 3.427 9.373 3.696 9.042 3.696L9.03 3.696C8.699 3.696 8.43 3.427 8.43 3.096 8.43 2.765 8.699 2.496 9.03 2.496L9.042 2.496ZM12.012 2.496C12.343 2.496 12.612 2.765 12.612 3.096 12.612 3.427 12.343 3.696 12.012 3.696H12C11.669 3.696 11.4 3.428 11.4 3.097 11.4 2.765 11.669 2.497 12 2.497L12.012 2.496ZM14.982 2.496C15.314 2.496 15.582 2.765 15.582 3.096 15.582 3.427 15.314 3.696 14.982 3.696H14.971C14.639 3.696 14.371 3.427 14.371 3.096 14.371 2.765 14.639 2.496 14.971 2.496L14.982 2.496ZM17.952 2.496C18.283 2.496 18.552 2.765 18.552 3.096 18.552 3.427 18.283 3.696 17.952 3.696H17.94C17.609 3.696 17.34 3.427 17.34 3.096 17.34 2.765 17.609 2.496 17.94 2.496L17.952 2.496ZM20.916 2.496C21.247 2.496 21.516 2.765 21.516 3.096 21.516 3.427 21.247 3.696 20.916 3.696H20.91C20.579 3.696 20.31 3.427 20.31 3.096 20.31 2.765 20.579 2.496 20.91 2.496L20.916 2.496Z" fill="black"/>
<path d="M3.096 20.904L20.916 20.904" stroke="black" stroke-linecap="round" stroke-linejoin="round" stroke-dasharray="0.01 2.5"/>
</svg>