<svg width="24" height="24" viewBox="0 0 24 24" fill="none" xmlns="http://www.w3.org/2000/svg">
<rect x="20.25" y="20.25" width="16.5" height="16.5" transform="rotate(-180 20.25 20.25)" fill="black" fill-opacity="0.2"/>
<path d="M12 20.2462H12.005M9.25305 20.2462H9.25805M6.5 20.2462H6.505M3.75 20.2462H3.755M14.7532 20.2462H14.7582M17.5 20.2462H17.505M20.25 20.2462H20.255M12 3.75006H12.005M12 3.75006V3.74756M12 3.75006V3.75201M9.25305 3.75006H9.25805M6.5 3.75006H6.505M3.75 3.75006H3.755M3.75 3.75006V3.74756M3.75 3.75006V3.75256M14.7532 3.75006H14.7582M17.5 3.75006H17.505M20.25 3.75006H20.255M20.25 3.75006V3.74756M20.25 3.75006V3.75256M12 12.0001H12.005M12 12.0001V11.9976M12 12.0001V12.0026M9.25305 12.0001H9.25805M6.5 12.0001H6.505M3.75 12.0001H3.755M3.75 12.0001V11.9976M3.75 12.0001V12.0026M14.7532 12.0001H14.7582M17.5 12.0001H17.505M20.25 12.0001H20.255M20.25 12.0001V11.9976M20.25 12.0001V12.0026M3.75 9.25061V9.25561M3.75 6.49756V6.50256M3.75 14.7507V14.7557M3.75 17.4976V17.5026M3.75 20.2476V20.2526M12 9.25061V9.25561M12 6.49756V6.50256M12 3.75201H3.75187M12 3.75201H20.2481M12 14.7507V14.7557M12 17.4976V17.5026M12 20.2476V20.2526M20.25 9.25061V9.25561M20.25 6.49756V6.50256M20.25 14.7507V14.7557M20.25 17.4976V17.5026M20.25 20.2476V20.2526" stroke="black" stroke-width="1.5" stroke-linecap="round" stroke-linejoin="round"/>
</svg>
