<svg viewBox="0 0 24 24" fill="none" xmlns="http://www.w3.org/2000/svg" width="24" height="24">
<rect opacity="0.2" x="19.4253" y="19.4302" width="14.85" height="14.85" rx="0.75" transform="rotate(-180 19.4253 19.4302)" fill="black"/>
<path d="M21.51 7.956L21.51 16.056C21.51 16.388 21.242 16.656 20.91 16.656 20.579 16.656 20.31 16.388 20.31 16.056L20.31 7.956C20.31 7.625 20.579 7.356 20.91 7.356 21.242 7.356 21.51 7.625 21.51 7.956Z" fill="black"/>
<path d="M3.69 7.956L3.69 16.056C3.69 16.388 3.422 16.656 3.09 16.656 2.759 16.656 2.49 16.388 2.49 16.056L2.49 7.956C2.49 7.625 2.759 7.356 3.09 7.356 3.422 7.356 3.69 7.625 3.69 7.956Z" fill="black"/>
<path d="M7.95 21.516C7.619 21.516 7.35 21.248 7.35 20.916 7.35 20.585 7.619 20.316 7.95 20.316L16.05 20.316C16.382 20.316 16.65 20.585 16.65 20.916 16.65 21.248 16.382 21.516 16.05 21.516L7.95 21.516Z" fill="black"/>
<path d="M7.95 2.49C7.288 2.49 6.75 3.027 6.75 3.69 6.75 4.353 7.288 4.89 7.95 4.89L16.05 4.89C16.713 4.89 17.25 4.353 17.25 3.69 17.25 3.027 16.713 2.49 16.05 2.49L7.95 2.49Z" fill="black"/>
</svg>