<svg width="24" height="24" viewBox="0 0 24 24" fill="none" xmlns="http://www.w3.org/2000/svg">
<path opacity="0.2" d="M17 7.25H8C7.58579 7.25 7.25 7.58579 7.25 8V17C9.75 17 12.25 16 13.75 14.5C15.75 12.5 16.75 11 17 7.25Z" fill="black"/>
<path d="M16.5 7.25C16.5 9.7033 15.5257 12.0563 13.791 13.791C12.0563 15.5257 9.7033 16.5 7.25 16.5C6.97386 16.5 6.75 16.7239 6.75 17C6.75 17.2761 6.97386 17.5 7.25 17.5C9.96842 17.5 12.5758 16.4203 14.498 14.498C16.4203 12.5758 17.5 9.96842 17.5 7.25C17.5 6.97386 17.2761 6.75 17 6.75C16.7239 6.75 16.5 6.97386 16.5 7.25Z" fill="black"/>
</svg>
