<svg width="24" height="24" viewBox="0 0 24 24" fill="none" xmlns="http://www.w3.org/2000/svg">
<rect x="3.75" y="3.75" width="16.5" height="16.5" fill="black" fill-opacity="0.2"/>
<path d="M9.25305 12H9.25805M6.5 12H6.505M14.7532 12H14.7582M17.5 12H17.505M12 11.9975V12.0025M12.005 9.25305V9.25805M12.005 6.5V6.505M12.005 14.7532V14.7582M12.005 17.5V17.505M12.0075 12H12.0025M4.5 3.75H19.5C19.9142 3.75 20.25 4.08579 20.25 4.5V19.5C20.25 19.9142 19.9142 20.25 19.5 20.25H4.5C4.08579 20.25 3.75 19.9142 3.75 19.5V4.5C3.75 4.08579 4.08579 3.75 4.5 3.75Z" stroke="black" stroke-width="1.5" stroke-linecap="round" stroke-linejoin="round"/>
</svg>
