<svg xmlns="http://www.w3.org/2000/svg" fill="currentColor" viewBox="0 0 24 24" width="24" height="24"><path d="M20.91 6.33V20.1a0.81 0.81 0 0 1-0.81 0.81H3.9a0.81 0.81 0 0 1-0.81-0.81V6.33z" opacity=".2"/><path d="M21.635 5.968l-1.62-3.24a0.816 0.816 0 0 0-0.725-0.448H4.71a0.816 0.816 0 0 0-0.725 0.448l-1.62 3.24a0.84 0.84 0 0 0-0.085 0.362V20.1a1.62 1.62 0 0 0 1.62 1.62h16.2a1.62 1.62 0 0 0 1.62-1.62V6.33a0.84 0.84 0 0 0-0.085-0.362M5.21 3.9h13.58l0.81 1.62H4.4z m14.89 16.2H3.9V7.14h16.2z m-4.286-6.244a0.81 0.81 0 0 1 0 1.146l-3.24 3.24a0.81 0.81 0 0 1-1.146 0l-3.24-3.24a0.81 0.81 0 0 1 1.146-1.146l1.856 1.858V9.569a0.81 0.81 0 0 1 1.62 0v6.145l1.856-1.858a0.81 0.81 0 0 1 1.146 0z"/></svg>