<svg width="24" height="24" viewBox="0 0 24 24" fill="none" xmlns="http://www.w3.org/2000/svg">
<path d="M19.5001 7.38094V6.75C19.5001 5.75544 19.105 4.80161 18.4018 4.09835C17.6985 3.39509 16.7447 3 15.7501 3C14.7556 3 13.8017 3.39509 13.0985 4.09835C12.3952 4.80161 12.0001 5.75544 12.0001 6.75C12.0001 5.75544 11.605 4.80161 10.9018 4.09835C10.1985 3.39509 9.24468 3 8.25012 3C7.25556 3 6.30173 3.39509 5.59847 4.09835C4.89521 4.80161 4.50012 5.75544 4.50012 6.75V7.38094C3.62178 7.69054 2.86114 8.26503 2.32309 9.02518C1.78504 9.78533 1.49609 10.6937 1.49609 11.625C1.49609 12.5563 1.78504 13.4647 2.32309 14.2248C2.86114 14.985 3.62178 15.5595 4.50012 15.8691V16.5C4.50012 17.4946 4.89521 18.4484 5.59847 19.1516C6.30173 19.8549 7.25556 20.25 8.25012 20.25C9.24468 20.25 10.1985 19.8549 10.9018 19.1516C11.605 18.4484 12.0001 17.4946 12.0001 16.5C12.0001 17.4946 12.3952 18.4484 13.0985 19.1516C13.8017 19.8549 14.7556 20.25 15.7501 20.25C16.7447 20.25 17.6985 19.8549 18.4018 19.1516C19.105 18.4484 19.5001 17.4946 19.5001 16.5V15.8691C20.3785 15.5595 21.1391 14.985 21.6771 14.2248C22.2152 13.4647 22.5041 12.5563 22.5041 11.625C22.5041 10.6937 22.2152 9.78533 21.6771 9.02518C21.1391 8.26503 20.3785 7.69054 19.5001 7.38094Z" fill="black" fill-opacity="0.2"/>
<path d="M8.25012 12.75C8.9918 12.75 9.71683 12.9699 10.3335 13.382C10.9502 13.794 11.4308 14.3797 11.7147 15.0649C11.9985 15.7502 12.0728 16.5042 11.9281 17.2316C11.7834 17.959 11.4262 18.6272 10.9018 19.1516C10.3773 19.6761 9.70914 20.0332 8.98171 20.1779C8.25428 20.3226 7.50028 20.2484 6.81506 19.9645C6.12984 19.6807 5.54417 19.2001 5.13211 18.5834C4.72006 17.9667 4.50012 17.2417 4.50012 16.5V15.8691M15.7501 12.75C15.0084 12.75 14.2834 12.9699 13.6667 13.382C13.0501 13.794 12.5694 14.3797 12.2856 15.0649C12.0017 15.7502 11.9275 16.5042 12.0722 17.2316C12.2169 17.959 12.574 18.6272 13.0985 19.1516C13.6229 19.6761 14.2911 20.0332 15.0185 20.1779C15.746 20.3226 16.5 20.2484 17.1852 19.9645C17.8704 19.6807 18.4561 19.2001 18.8681 18.5834C19.2802 17.9667 19.5001 17.2417 19.5001 16.5V15.8691M6.75014 16.125H6.00014C4.93789 16.126 3.90955 15.7511 3.09711 15.0668C2.28466 14.3825 1.74049 13.4328 1.56089 12.3858C1.38129 11.3389 1.57784 10.2622 2.11577 9.34618C2.65369 8.43021 3.49831 7.73407 4.50014 7.38094V6.75C4.50014 5.75544 4.89522 4.80161 5.59849 4.09835C6.30175 3.39509 7.25557 3 8.25014 3C9.2447 3 10.1985 3.39509 10.9018 4.09835C11.605 4.80161 12.0001 5.75544 12.0001 6.75M12.0001 6.75V16.5M12.0001 6.75C12.0001 5.75544 12.3952 4.80161 13.0985 4.09835C13.8017 3.39509 14.7556 3 15.7501 3C16.7447 3 17.6985 3.39509 18.4018 4.09835C19.105 4.80161 19.5001 5.75544 19.5001 6.75V7.38094C20.502 7.73407 21.3466 8.43021 21.8845 9.34618C22.4224 10.2622 22.619 11.3389 22.4394 12.3858C22.2598 13.4328 21.7156 14.3825 20.9032 15.0668C20.0907 15.7511 19.0624 16.126 18.0001 16.125H17.2501M18.7501 10.5H18.3751C17.6789 10.5 17.0112 10.2234 16.519 9.73116C16.0267 9.23887 15.7501 8.57119 15.7501 7.875V7.5M5.25012 10.5H5.62512C6.32132 10.5 6.98899 10.2234 7.48128 9.73116C7.97356 9.23887 8.25012 8.57119 8.25012 7.875V7.5" stroke="black" stroke-width="1.5" stroke-linecap="round" stroke-linejoin="round"/>
</svg>
