<svg xmlns="http://www.w3.org/2000/svg" fill="currentColor" viewBox="0 0 24 24" width="24" height="24"><path d="M23.34 11.596a4.86 4.86 0 0 1-3.24 4.584v0.681a4.05 4.05 0 0 1-8.1 0 4.05 4.05 0 0 1-8.1 0v-0.681a4.86 4.86 0 0 1 0-9.167v-0.682a4.05 4.05 0 0 1 8.1 0 4.05 4.05 0 0 1 8.1 0v0.682a4.86 4.86 0 0 1 3.24 4.584z" opacity=".2"/><path d="M24.15 11.596a5.676 5.676 0 0 0-3.24-5.124v-0.141A4.86 4.86 0 0 0 12 3.649a4.86 4.86 0 0 0-8.91 2.682v0.141a5.67 5.67 0 0 0 0 10.246v0.143A4.86 4.86 0 0 0 12 19.543a4.86 4.86 0 0 0 8.91-2.682v-0.143a5.676 5.676 0 0 0 3.24-5.122m-16.2 8.505a3.24 3.24 0 0 1-3.221-2.892 6 6 0 0 0 0.791 0.057h0.81a0.81 0.81 0 0 0 0-1.62H5.52A4.05 4.05 0 0 1 4.17 7.776a0.81 0.81 0 0 0 0.54-0.763v-0.682a3.24 3.24 0 0 1 6.48 0v6.911a4.836 4.836 0 0 0-3.24-1.241 0.81 0.81 0 0 0 0 1.62 3.24 3.24 0 0 1 0 6.48m10.53-4.455h-0.81a0.81 0.81 0 0 0 0 1.62h0.81a6 6 0 0 0 0.791-0.057 3.24 3.24 0 1 1-3.221-3.588 0.81 0.81 0 0 0 0-1.62 4.836 4.836 0 0 0-3.24 1.241V6.331a3.24 3.24 0 0 1 6.48 0v0.682a0.81 0.81 0 0 0 0.54 0.763 4.05 4.05 0 0 1-1.35 7.87m1.62-5.266a0.81 0.81 0 0 1-0.81 0.81h-0.404a3.648 3.648 0 0 1-3.645-3.644V7.14a0.81 0.81 0 0 1 1.62 0v0.406a2.028 2.028 0 0 0 2.026 2.025h0.404a0.81 0.81 0 0 1 0.81 0.81z m-14.986 0.81h-0.404a0.81 0.81 0 0 1 0-1.62h0.406A2.028 2.028 0 0 0 7.14 7.544v-0.405a0.81 0.81 0 0 1 1.62 0v0.405a3.648 3.648 0 0 1-3.644 3.645z"/></svg>