<svg xmlns="http://www.w3.org/2000/svg" width="24" height="24" fill="currentColor" viewBox="0 0 24 24"><path d="M17.67 12A5.67 5.67 0 1 1 12 6.33 5.67 5.67 0 0 1 17.67 12" opacity=".2"/><path d="M11.19 3.09V0.66a0.81 0.81 0 0 1 1.62 0v2.43a0.81 0.81 0 0 1-1.62 0M18.48 12A6.48 6.48 0 1 1 12 5.52a6.487 6.487 0 0 1 6.48 6.48m-1.62 0A4.86 4.86 0 1 0 12 16.86 4.865 4.865 0 0 0 16.86 12M4.946 6.094a0.81 0.81 0 0 0 1.146-1.146l-1.62-1.62a0.81 0.81 0 0 0-1.146 1.146z m0 11.814l-1.62 1.62a0.81 0.81 0 0 0 1.146 1.146l1.62-1.62a0.81 0.81 0 0 0-1.146-1.146M18.48 6.331a0.816 0.816 0 0 0 0.574-0.236l1.62-1.62a0.81 0.81 0 0 0-1.146-1.146l-1.62 1.62a0.81 0.81 0 0 0 0.573 1.383z m0.574 11.577a0.81 0.81 0 0 0-1.146 1.146l1.62 1.62a0.81 0.81 0 0 0 1.146-1.146zM3.9 12.001a0.81 0.81 0 0 0-0.81-0.81H0.66a0.81 0.81 0 0 0 0 1.62h2.43a0.81 0.81 0 0 0 0.81-0.81m8.1 8.1a0.81 0.81 0 0 0-0.81 0.81v2.43a0.81 0.81 0 0 0 1.62 0v-2.43a0.81 0.81 0 0 0-0.81-0.81m11.34-8.91h-2.43a0.81 0.81 0 0 0 0 1.62h2.43a0.81 0.81 0 0 0 0-1.62"/></svg>