<svg viewBox="0 0 24 24" fill="none" xmlns="http://www.w3.org/2000/svg" width="24" height="24">
<path d="M7.254 10.818L7.254 16.679C7.255 16.716 7.285 16.747 7.322 16.747L13.182 16.747 14.382 16.747 16.679 16.747C16.716 16.746 16.746 16.716 16.747 16.679L16.747 14.382 16.747 13.182 16.747 7.322C16.747 7.285 16.716 7.255 16.679 7.254L10.818 7.254 9.618 7.254 7.322 7.254C7.285 7.255 7.255 7.285 7.254 7.322L7.254 9.618 7.254 10.818Z" fill="black" fill-opacity="0.2"/>
<path fill-rule="evenodd" clip-rule="evenodd" d="M3.69 3.69L3.69 9.618H4.254C4.586 9.618 4.854 9.887 4.854 10.218 4.854 10.55 4.586 10.818 4.254 10.818H3.535C2.958 10.818 2.49 10.35 2.49 9.773L2.49 3.535C2.49 2.958 2.958 2.49 3.535 2.49L9.773 2.49C10.35 2.49 10.818 2.958 10.818 3.535V4.254C10.818 4.586 10.55 4.854 10.218 4.854 9.887 4.854 9.618 4.586 9.618 4.254V3.69L3.69 3.69Z" fill="black"/>
<path fill-rule="evenodd" clip-rule="evenodd" d="M19.147 13.782C19.147 14.114 19.415 14.382 19.747 14.382L20.311 14.382V20.311H14.382L14.382 19.747C14.382 19.415 14.114 19.147 13.782 19.147 13.451 19.147 13.182 19.415 13.182 19.747L13.182 20.466C13.183 21.043 13.651 21.511 14.228 21.511H20.466C21.043 21.511 21.511 21.043 21.511 20.466V14.228C21.511 13.651 21.043 13.183 20.466 13.182L19.747 13.182C19.415 13.182 19.147 13.451 19.147 13.782Z" fill="black"/>
<path d="M7.254 16.679L7.254 7.322C7.255 7.285 7.285 7.255 7.322 7.254L16.679 7.254C16.716 7.255 16.747 7.285 16.747 7.322V16.679C16.746 16.716 16.716 16.746 16.679 16.747H7.322C7.285 16.747 7.255 16.716 7.254 16.679ZM7.322 17.947H16.679C17.379 17.946 17.946 17.379 17.947 16.679V7.322C17.947 6.622 17.379 6.055 16.679 6.054L7.322 6.054C6.622 6.055 6.055 6.622 6.054 7.322L6.054 16.679C6.055 17.379 6.622 17.947 7.322 17.947ZM6.667 16.803C6.664 16.791 6.662 16.78 6.66 16.768 6.663 16.785 6.666 16.799 6.669 16.816L6.667 16.803ZM6.692 16.894C6.683 16.869 6.675 16.84 6.669 16.816L6.673 16.831C6.678 16.852 6.684 16.873 6.692 16.894ZM6.837 17.132C6.823 17.117 6.81 17.101 6.797 17.085L6.787 17.073 6.776 17.058 6.768 17.046 6.761 17.034 6.75 17.017C6.744 17.008 6.739 16.998 6.734 16.989L6.726 16.973 6.712 16.944C6.705 16.928 6.698 16.911 6.692 16.894 6.695 16.902 6.698 16.91 6.701 16.918 6.694 16.902 6.688 16.885 6.683 16.869 6.72 16.991 6.79 17.1 6.884 17.183 6.896 17.193 6.91 17.206 6.923 17.215 6.929 17.219 6.944 17.23 6.95 17.234L6.923 17.215C6.926 17.218 6.92 17.213 6.923 17.215 6.933 17.223 6.939 17.227 6.95 17.234 6.978 17.254 7.007 17.267 7.039 17.282L7.054 17.29C6.989 17.261 6.936 17.229 6.884 17.183L6.874 17.169 6.865 17.16 6.855 17.151C6.846 17.141 6.836 17.131 6.826 17.119 6.83 17.124 6.834 17.128 6.837 17.132ZM7.002 17.265C6.999 17.263 6.993 17.26 6.989 17.258 6.992 17.26 6.986 17.256 6.989 17.258 6.996 17.262 6.995 17.261 7.002 17.265ZM7.101 17.308L7.118 17.314 7.132 17.318 7.101 17.308ZM7.18 17.331L7.199 17.335C7.215 17.338 7.241 17.342 7.258 17.344 7.258 17.344 7.251 17.342 7.247 17.341L7.232 17.337 7.18 17.331ZM6.657 7.265L6.655 7.305C6.655 7.29 6.656 7.28 6.657 7.265ZM6.664 7.208C6.667 7.196 6.671 7.178 6.674 7.166L6.671 7.179 6.664 7.208ZM6.698 7.09C6.696 7.095 6.694 7.1 6.692 7.107 6.69 7.113 6.685 7.128 6.683 7.134L6.678 7.152 6.674 7.166C6.679 7.149 6.687 7.122 6.692 7.107L6.698 7.09 6.704 7.074C6.783 6.886 6.958 6.734 7.155 6.676L7.171 6.672C7.166 6.673 7.163 6.674 7.155 6.676 7.146 6.679 7.135 6.682 7.126 6.685L7.104 6.691 7.087 6.698 7.068 6.705 7.049 6.713 7.038 6.719C7.029 6.723 7.02 6.727 7.012 6.731 7.001 6.737 6.991 6.743 6.981 6.748 6.887 6.804 6.815 6.872 6.758 6.966 6.754 6.973 6.743 6.991 6.74 6.998L6.734 7.009 6.727 7.022C6.724 7.027 6.721 7.034 6.718 7.041 6.714 7.049 6.708 7.066 6.704 7.074 6.701 7.082 6.701 7.082 6.698 7.09ZM7.188 6.669L7.211 6.664C7.231 6.661 7.252 6.658 7.272 6.656L7.286 6.655 7.301 6.655 7.322 6.654 7.188 6.669ZM17.333 7.188C17.331 7.18 17.329 7.172 17.327 7.164 17.316 7.117 17.299 7.071 17.278 7.029 17.275 7.022 17.271 7.015 17.268 7.008 17.254 6.982 17.238 6.957 17.222 6.934 17.217 6.928 17.208 6.916 17.204 6.91 17.19 6.894 17.171 6.871 17.156 6.856 17.149 6.848 17.141 6.84 17.133 6.833 17.112 6.814 17.09 6.796 17.067 6.78 16.963 6.705 16.837 6.659 16.699 6.655 16.721 6.655 16.743 6.657 16.764 6.66 16.776 6.661 16.788 6.663 16.8 6.665 16.81 6.667 16.82 6.669 16.83 6.672 16.86 6.679 16.889 6.688 16.917 6.698 16.933 6.704 16.953 6.713 16.968 6.72 17.192 6.828 17.347 7.057 17.347 7.322L17.333 7.188ZM7.163 17.328C7.147 17.324 7.133 17.319 7.118 17.314 7.129 17.317 7.149 17.324 7.163 17.328Z" fill="black"/>
</svg>