<svg viewBox="0 0 24 24" fill="none" xmlns="http://www.w3.org/2000/svg" width="24" height="24">
<path fill-rule="evenodd" clip-rule="evenodd" d="M15.451 3.906C15.451 3.79 15.357 3.696 15.241 3.696L3.901 3.696C3.785 3.696 3.691 3.79 3.691 3.906L3.691 15.246C3.691 15.362 3.785 15.456 3.901 15.456H5.55C5.882 15.456 6.15 15.724 6.15 16.056 6.15 16.387 5.882 16.656 5.55 16.656H3.901C3.122 16.656 2.491 16.025 2.491 15.246L2.491 3.906C2.491 3.127 3.122 2.496 3.901 2.496L15.241 2.496C16.019 2.496 16.651 3.127 16.651 3.906L16.651 5.559C16.651 5.89 16.382 6.159 16.051 6.159 15.719 6.159 15.451 5.89 15.451 5.559V3.906Z" fill="black"/>
<path fill-rule="evenodd" clip-rule="evenodd" d="M7.35 8.769C7.35 7.99 7.981 7.359 8.76 7.359H20.1C20.879 7.359 21.51 7.99 21.51 8.769V20.109C21.51 20.887 20.879 21.518 20.1 21.519H8.76C7.981 21.519 7.35 20.888 7.35 20.109V8.769ZM20.1 8.559C20.216 8.559 20.31 8.653 20.31 8.769V20.109C20.31 20.225 20.216 20.318 20.1 20.319H8.76C8.644 20.319 8.55 20.225 8.55 20.109V8.769C8.55 8.653 8.644 8.559 8.76 8.559H20.1Z" fill="black"/>
<path fill-rule="evenodd" clip-rule="evenodd" d="M20.1 8.559C20.216 8.559 20.31 8.653 20.31 8.769V20.109C20.31 20.225 20.216 20.318 20.1 20.319H8.76C8.644 20.319 8.55 20.225 8.55 20.109V8.769C8.55 8.653 8.644 8.559 8.76 8.559H20.1Z" fill="#D9D9D9"/>
</svg>