<svg width="24" height="24" viewBox="0 0 24 24" fill="none" xmlns="http://www.w3.org/2000/svg">
<path d="M15.9375 16.5H8.0625C7.75184 16.5 7.5 16.2482 7.5 15.9375L7.5 8.0625C7.5 7.75184 7.75184 7.5 8.0625 7.5H15.9375C16.2482 7.5 16.5 7.75184 16.5 8.0625V15.9375C16.5 16.2482 16.2482 16.5 15.9375 16.5Z" fill="black" fill-opacity="0.2"/>
<path d="M4.5 9H3.375C3.16789 9 3 8.83211 3 8.625V3.375C3 3.16789 3.16789 3 3.375 3L8.625 3C8.83211 3 9 3.16789 9 3.375V4.5M19.5 15H20.625C20.8321 15 21 15.1679 21 15.375V20.625C21 20.8321 20.8321 21 20.625 21H15.375C15.1679 21 15 20.8321 15 20.625V19.5M16.5 15.9375V8.0625C16.5 7.75184 16.2482 7.5 15.9375 7.5H8.0625C7.75184 7.5 7.5 7.75184 7.5 8.0625L7.5 15.9375C7.5 16.2482 7.75184 16.5 8.0625 16.5H15.9375C16.2482 16.5 16.5 16.2482 16.5 15.9375Z" stroke="black" stroke-width="1.5" stroke-linecap="round" stroke-linejoin="round"/>
</svg>
