<svg width="24" height="24" viewBox="0 0 24 24" fill="none" xmlns="http://www.w3.org/2000/svg">
<path d="M15.9375 6.74902C16.6622 6.74903 17.2498 7.33783 17.25 8.0625V11.9971C17.2497 12.4104 16.9151 12.745 16.502 12.7461L12.7529 12.75V16.5L12.7441 16.5771C12.7055 16.9551 12.3861 17.2499 11.998 17.25H8.0625C7.33771 17.2499 6.75 16.6623 6.75 15.9375V12C6.75 11.5858 7.08587 11.2501 7.5 11.25H11.25V7.5C11.2505 7.08633 11.5892 6.74922 12.0029 6.74902H15.9375Z" fill="black" fill-opacity="0.2"/>
<path d="M9 3.375V8.625C9 8.83211 8.83211 9 8.625 9H3.375C3.16789 9 3 8.83211 3 8.625V3.375C3 3.16789 3.16789 3 3.375 3L8.625 3C8.83211 3 9 3.16789 9 3.375Z" stroke="black" stroke-width="1.5" stroke-linecap="round"/>
<path d="M21 15.375V20.625C21 20.8321 20.8321 21 20.625 21H15.375C15.1679 21 15 20.8321 15 20.625V15.375C15 15.1679 15.1679 15 15.375 15H20.625C20.8321 15 21 15.1679 21 15.375Z" stroke="black" stroke-width="1.5" stroke-linecap="round"/>
<path d="M15.9375 6.74902C16.6622 6.74903 17.2498 7.33783 17.25 8.0625V11.9971C17.2497 12.4104 16.9151 12.745 16.502 12.7461L12.7529 12.75V16.5L12.7441 16.5771C12.7055 16.9551 12.3861 17.2499 11.998 17.25H8.0625C7.33771 17.2499 6.75 16.6623 6.75 15.9375V12C6.75 11.5858 7.08587 11.2501 7.5 11.25H11.25V7.5C11.2505 7.08633 11.5892 6.74922 12.0029 6.74902H15.9375Z" stroke="black" stroke-width="1.5" stroke-linecap="round"/>
</svg>
