<svg viewBox="0 0 24 24" fill="none" xmlns="http://www.w3.org/2000/svg" width="24" height="24">
<path opacity="0.2" fill-rule="evenodd" clip-rule="evenodd" d="M9.456 17.856C8.959 17.856 8.556 18.259 8.556 18.756L8.556 20.106C8.557 20.222 8.65 20.316 8.766 20.316L20.106 20.316C20.222 20.316 20.316 20.222 20.316 20.106L20.316 8.766C20.316 8.65 20.222 8.556 20.106 8.556L18.756 8.556C18.259 8.556 17.856 8.959 17.856 9.456L17.856 9.756 17.856 15.246C17.856 16.688 16.687 17.856 15.246 17.856L9.756 17.856 9.456 17.856Z" fill="black"/>
<path fill-rule="evenodd" clip-rule="evenodd" d="M15.246 16.656C15.976 16.656 16.576 16.101 16.648 15.39 16.653 15.343 16.656 15.295 16.656 15.246L16.656 3.906C16.656 3.471 16.459 3.082 16.149 2.823 15.905 2.622 15.587 2.496 15.246 2.496L3.906 2.496C3.127 2.496 2.496 3.127 2.496 3.906L2.496 15.246C2.496 15.583 2.614 15.892 2.811 16.135 3.07 16.453 3.464 16.656 3.906 16.656L15.246 16.656ZM3.815 15.435L3.828 15.441C3.846 15.448 3.865 15.453 3.884 15.455 3.891 15.455 3.899 15.456 3.906 15.456H15.246C15.362 15.456 15.456 15.362 15.456 15.246V3.906C15.456 3.899 15.455 3.891 15.455 3.884 15.453 3.865 15.448 3.846 15.441 3.829 15.433 3.808 15.422 3.789 15.408 3.772 15.404 3.768 15.399 3.762 15.394 3.758 15.356 3.72 15.304 3.696 15.246 3.696L3.906 3.696C3.79 3.696 3.696 3.79 3.696 3.906L3.696 15.246C3.696 15.268 3.699 15.289 3.706 15.309 3.716 15.341 3.734 15.371 3.758 15.394 3.767 15.404 3.777 15.412 3.789 15.42 3.797 15.426 3.806 15.431 3.815 15.435Z" fill="black"/>
<path fill-rule="evenodd" clip-rule="evenodd" d="M18.456 7.356C18.125 7.356 17.856 7.624 17.856 7.956 17.856 8.287 18.125 8.556 18.456 8.556H20.107C20.223 8.556 20.317 8.65 20.317 8.766V20.106C20.316 20.222 20.223 20.316 20.107 20.316L8.767 20.316C8.651 20.316 8.557 20.222 8.557 20.106V18.456C8.557 18.125 8.288 17.856 7.957 17.856 7.625 17.856 7.357 18.125 7.357 18.456V20.106C7.357 20.884 7.988 21.516 8.767 21.516H20.107C20.885 21.516 21.516 20.884 21.517 20.106V8.766C21.517 7.987 20.885 7.356 20.107 7.356H18.456Z" fill="black"/>
</svg>