<svg xmlns="http://www.w3.org/2000/svg" width="24" height="24" fill="currentColor" viewBox="0 0 24 24"><path d="M21.72 2.28c0 3.322-3.204 6.827-5.938 9.218a8.52 8.52 0 0 0-3.276-3.282c2.387-2.734 5.892-5.938 9.214-5.937z" opacity=".2"/><path d="M22.53 2.28a0.81 0.81 0 0 0-0.81-0.81c-4.463 0-9.043 5.033-11.586 8.366A6.076 6.076 0 0 0 2.28 15.646c0 3.127-1.979 4.529-2.072 4.593A0.81 0.81 0 0 0 0.66 21.72h7.694a6.076 6.076 0 0 0 5.81-7.854c3.334-2.544 8.366-7.123 8.366-11.586M8.354 20.1H2.545c0.684-0.971 1.354-2.438 1.354-4.456a4.456 4.456 0 1 1 4.455 4.456m3.282-9.563q0.521-0.674 1.022-1.271a7.68 7.68 0 0 1 2.074 2.075q-0.598 0.5-1.27 1.021a6.12 6.12 0 0 0-1.826-1.825m4.324-0.271a9.36 9.36 0 0 0-2.227-2.227c3.217-3.496 5.645-4.556 7.077-4.851-0.288 1.434-1.354 3.86-4.85 7.079z"/></svg>