<svg width="24" height="24" viewBox="0 0 24 24" fill="none" xmlns="http://www.w3.org/2000/svg">
<path d="M19.5 12V13.5C19.5 15.4891 18.7098 17.3968 17.3033 18.8033C15.8968 20.2098 13.9891 21 12 21C10.0109 21 8.10322 20.2098 6.6967 18.8033C5.29018 17.3968 4.5 15.4891 4.5 13.5V12H19.5Z" fill="black" fill-opacity="0.2"/>
<path d="M14.625 9C14.8321 9 15 8.83211 15 8.625C15 8.41789 14.8321 8.25 14.625 8.25C14.4179 8.25 14.25 8.41789 14.25 8.625C14.25 8.83211 14.4179 9 14.625 9Z" fill="black"/>
<path d="M9.375 9C9.58211 9 9.75 8.83211 9.75 8.625C9.75 8.41789 9.58211 8.25 9.375 8.25C9.16789 8.25 9 8.41789 9 8.625C9 8.83211 9.16789 9 9.375 9Z" fill="black"/>
<path d="M12 12V21M12 21C13.9891 21 15.8968 20.2098 17.3033 18.8033C18.7098 17.3968 19.5 15.4891 19.5 13.5V10.5C19.5 8.51088 18.7098 6.60322 17.3033 5.1967C15.8968 3.79018 13.9891 3 12 3C10.0109 3 8.10322 3.79018 6.6967 5.1967C5.29018 6.60322 4.5 8.51088 4.5 10.5V13.5C4.5 15.4891 5.29018 17.3968 6.6967 18.8033C8.10322 20.2098 10.0109 21 12 21ZM21.75 17.25L19.0481 16.0697M21.75 6.75L19.0481 7.93031M2.25 6.75L4.95187 7.93031M2.25 17.25L4.95187 16.0697M1.5 12H22.5M9.375 9C9.58211 9 9.75 8.83211 9.75 8.625C9.75 8.41789 9.58211 8.25 9.375 8.25C9.16789 8.25 9 8.41789 9 8.625C9 8.83211 9.16789 9 9.375 9ZM14.625 9C14.8321 9 15 8.83211 15 8.625C15 8.41789 14.8321 8.25 14.625 8.25C14.4179 8.25 14.25 8.41789 14.25 8.625C14.25 8.83211 14.4179 9 14.625 9Z" stroke="black" stroke-width="1.5" stroke-linecap="round" stroke-linejoin="round"/>
</svg>
