<svg xmlns="http://www.w3.org/2000/svg" width="24" height="24" fill="currentColor" viewBox="0 0 24 24"><path d="M20.1 12v1.62a8.1 8.1 0 0 1-16.2 0V12z" opacity=".2"/><path d="M13.62 8.356a1.216 1.216 0 1 1 1.216 1.215 1.216 1.216 0 0 1-1.216-1.215M9.164 7.14a1.216 1.216 0 1 0 1.215 1.216A1.216 1.216 0 0 0 9.164 7.14m11.746 6.48a8.88 8.88 0 0 1-0.304 2.329l2.253 0.984a0.81 0.81 0 0 1-0.328 1.547 0.84 0.84 0 0 1-0.324-0.068l-2.168-0.945a8.91 8.91 0 0 1-16.074 0l-2.169 0.945a0.84 0.84 0 0 1-0.324 0.068 0.81 0.81 0 0 1-0.324-1.552l2.248-0.979a8.88 8.88 0 0 1-0.304-2.329v-0.81H0.662a0.81 0.81 0 0 1 0-1.62h2.43v-0.81a8.88 8.88 0 0 1 0.304-2.329l-2.248-0.979a0.81 0.81 0 1 1 0.648-1.485l2.169 0.945a8.91 8.91 0 0 1 16.074 0l2.168-0.948a0.81 0.81 0 0 1 0.648 1.484l-2.247 0.988a8.88 8.88 0 0 1 0.303 2.329v0.81h2.43a0.81 0.81 0 0 1 0 1.62h-2.43z m-16.2-2.43h14.58v-0.81a7.29 7.29 0 0 0-14.58 0z m6.48 9.673v-8.053h-6.48v0.81a7.296 7.296 0 0 0 6.48 7.243m8.1-7.243v-0.81h-6.48v8.053a7.296 7.296 0 0 0 6.48-7.243"/></svg>