<svg width="24" height="24" viewBox="0 0 24 24" fill="none" xmlns="http://www.w3.org/2000/svg">
<path d="M12.75 20.25V3.00004C12.7499 2.8643 12.713 2.73114 12.6432 2.61473C12.5734 2.49833 12.4733 2.40305 12.3536 2.33906C12.2339 2.27507 12.099 2.24477 11.9635 2.25138C11.8279 2.25799 11.6967 2.30127 11.5838 2.3766L4.08375 7.37629C3.98088 7.44492 3.89658 7.53793 3.83835 7.64703C3.78012 7.75613 3.74977 7.87793 3.75 8.0016V20.25H12.75Z" fill="black" fill-opacity="0.2"/>
<path d="M3.75 20.25V8.0016C3.74977 7.87793 3.78012 7.75613 3.83835 7.64703C3.89657 7.53793 3.98088 7.44492 4.08375 7.37629L11.5838 2.3766C11.6967 2.30127 11.8279 2.25799 11.9635 2.25138C12.099 2.24477 12.2339 2.27507 12.3536 2.33906C12.4733 2.40305 12.5734 2.49833 12.6432 2.61473C12.713 2.73114 12.7499 2.8643 12.75 3.00004L12.75 8.25003L12.75 20.25M20.25 20.25L12.75 20.25H3.75L1.5 20.25M12.75 8.25003H19.5C19.6989 8.25003 19.8897 8.32905 20.0303 8.4697C20.171 8.61035 20.25 8.80112 20.25 9.00003V20.25M20.25 20.25H22.5M9.75 10.5V12M6.75 10.5V12M6.75 15.75V17.25M9.75 15.75V17.25" stroke="black" stroke-width="1.5" stroke-linecap="round" stroke-linejoin="round"/>
</svg>
