<svg xmlns="http://www.w3.org/2000/svg" width="24" height="24" fill="currentColor" viewBox="0 0 24 24"><path d="M12 12.11v10.42a0.84 0.84 0 0 1-0.389-0.101l-8.91-4.877a0.816 0.816 0 0 1-0.421-0.709v-9.684a0.84 0.84 0 0 1 0.071-0.331z" opacity=".2"/><path d="M21.688 5.737l-8.91-4.875a1.608 1.608 0 0 0-1.556 0L2.312 5.738a1.62 1.62 0 0 0-0.842 1.418v9.684a1.62 1.62 0 0 0 0.842 1.417l8.91 4.877a1.608 1.608 0 0 0 1.556 0l8.91-4.877a1.62 1.62 0 0 0 0.842-1.417V7.157a1.62 1.62 0 0 0-0.842-1.421zM12 2.28l8.135 4.456L12 11.19 3.865 6.736zM3.09 8.153l8.1 4.433v8.686l-8.1-4.429z m9.72 13.118v-8.682l8.1-4.436v8.685z"/></svg>