<svg xmlns="http://www.w3.org/2000/svg" width="24" height="24" fill="currentColor" viewBox="0 0 24 24"><path d="M3.9 17.67h4.05v2.43a0.81 0.81 0 0 1-0.81 0.81H4.71a0.81 0.81 0 0 1-0.81-0.81z m12.15 2.43a0.81 0.81 0 0 0 0.81 0.81h2.43a0.81 0.81 0 0 0 0.81-0.81v-2.43h-4.05zM3.9 6.33v4.05h16.2V6.33z" opacity=".2"/><path d="M17.67 2.28h-11.34a3.24 3.24 0 0 0-3.24 3.24v14.58a1.62 1.62 0 0 0 1.62 1.62H7.14a1.62 1.62 0 0 0 1.62-1.62V18.48h6.48v1.62a1.62 1.62 0 0 0 1.62 1.62h2.43a1.62 1.62 0 0 0 1.62-1.62V5.52a3.24 3.24 0 0 0-3.24-3.24m-12.96 14.58v-5.67h14.58v5.67z m0-9.72h14.58v2.43H4.71z m1.62-3.24h11.34a1.62 1.62 0 0 1 1.62 1.62H4.71a1.62 1.62 0 0 1 1.62-1.62m0.81 16.2H4.71V18.48H7.14z m9.72 0V18.48h2.43v1.62z m-7.29-6.076a1.216 1.216 0 1 1-1.216-1.214 1.216 1.216 0 0 1 1.215 1.214z m7.29 0a1.216 1.216 0 1 1-1.214-1.214 1.216 1.216 0 0 1 1.214 1.214m7.29-6.885v2.43a0.81 0.81 0 0 1-1.62 0V7.139a0.81 0.81 0 0 1 1.62 0m-22.68 0v2.43a0.81 0.81 0 0 1-1.62 0V7.139a0.81 0.81 0 0 1 1.62 0"/></svg>