<svg width="24" height="24" viewBox="0 0 24 24" fill="none" xmlns="http://www.w3.org/2000/svg">
<path d="M16.5 6H7.5V10.5H16.5V6Z" fill="black" fill-opacity="0.2"/>
<path d="M8.62524 13.8757C8.62524 13.6686 8.45734 13.5007 8.25024 13.5007C8.04313 13.5007 7.87524 13.6686 7.87524 13.8757C7.87524 14.0828 8.04313 14.2507 8.25024 14.2507C8.45734 14.2507 8.62524 14.0828 8.62524 13.8757Z" stroke="black" stroke-width="1.5" stroke-linecap="round" stroke-linejoin="round"/>
<path d="M8.62524 17.6252C8.62524 17.4181 8.45734 17.2502 8.25024 17.2502C8.04313 17.2502 7.87524 17.4181 7.87524 17.6252C7.87524 17.8323 8.04313 18.0002 8.25024 18.0002C8.45734 18.0002 8.62524 17.8323 8.62524 17.6252Z" stroke="black" stroke-width="1.5" stroke-linecap="round" stroke-linejoin="round"/>
<path d="M12.375 13.8757C12.375 13.6686 12.2071 13.5007 12 13.5007C11.7929 13.5007 11.625 13.6686 11.625 13.8757C11.625 14.0828 11.7929 14.2507 12 14.2507C12.2071 14.2507 12.375 14.0828 12.375 13.8757Z" stroke="black" stroke-width="1.5" stroke-linecap="round" stroke-linejoin="round"/>
<path d="M12.375 17.6252C12.375 17.4181 12.2071 17.2502 12 17.2502C11.7929 17.2502 11.625 17.4181 11.625 17.6252C11.625 17.8323 11.7929 18.0002 12 18.0002C12.2071 18.0002 12.375 17.8323 12.375 17.6252Z" stroke="black" stroke-width="1.5" stroke-linecap="round" stroke-linejoin="round"/>
<path d="M16.125 13.8757C16.125 13.6686 15.9571 13.5007 15.75 13.5007C15.5429 13.5007 15.375 13.6686 15.375 13.8757C15.375 14.0828 15.5429 14.2507 15.75 14.2507C15.9571 14.2507 16.125 14.0828 16.125 13.8757Z" stroke="black" stroke-width="1.5" stroke-linecap="round" stroke-linejoin="round"/>
<path d="M16.125 17.6252C16.125 17.4181 15.9571 17.2502 15.75 17.2502C15.5429 17.2502 15.375 17.4181 15.375 17.6252C15.375 17.8323 15.5429 18.0002 15.75 18.0002C15.9571 18.0002 16.125 17.8323 16.125 17.6252Z" stroke="black" stroke-width="1.5" stroke-linecap="round" stroke-linejoin="round"/>
<path d="M19.5 20.25V3.75C19.5 3.33579 19.1642 3 18.75 3H5.25C4.83579 3 4.5 3.33579 4.5 3.75V20.25C4.5 20.6642 4.83579 21 5.25 21H18.75C19.1642 21 19.5 20.6642 19.5 20.25Z" stroke="black" stroke-width="1.5" stroke-linecap="round" stroke-linejoin="round"/>
</svg>
