<svg xmlns="http://www.w3.org/2000/svg" width="24" height="24" fill="currentColor" viewBox="0 0 24 24"><path d="M16.86 5.52v4.86h-9.72V5.52z" opacity=".2"/><path d="M7.14 11.19h9.72a0.81 0.81 0 0 0 0.81-0.81V5.52a0.81 0.81 0 0 0-0.81-0.81h-9.72a0.81 0.81 0 0 0-0.81 0.81v4.86a0.81 0.81 0 0 0 0.81 0.81m0.81-4.86h8.1v3.24h-8.1z m11.34-4.86H4.71a1.62 1.62 0 0 0-1.62 1.62v17.82a1.62 1.62 0 0 0 1.62 1.62h14.58a1.62 1.62 0 0 0 1.62-1.62V3.09a1.62 1.62 0 0 0-1.62-1.62m0 19.44H4.71V3.09h14.58z m-10.126-6.886a1.216 1.216 0 1 1-1.215-1.214 1.216 1.216 0 0 1 1.215 1.214m4.05 0A1.216 1.216 0 1 1 12 12.81a1.216 1.216 0 0 1 1.214 1.214m4.05 0a1.216 1.216 0 1 1-1.214-1.214 1.216 1.216 0 0 1 1.216 1.214z m-8.1 4.05a1.216 1.216 0 1 1-1.215-1.214 1.216 1.216 0 0 1 1.215 1.214m4.05 0A1.216 1.216 0 1 1 12 16.86a1.216 1.216 0 0 1 1.214 1.214m4.05 0a1.216 1.216 0 1 1-1.214-1.214 1.216 1.216 0 0 1 1.216 1.214z"/></svg>