<svg xmlns="http://www.w3.org/2000/svg" width="24" height="24" fill="currentColor" viewBox="0 0 24 24"><path d="M19.425 5.25v3.375H4.575V5.25a.675.675 0 0 1 .675-.675h13.5a.675.675 0 0 1 .675.675" opacity=".2"/><path d="M18.75 3.9h-2.025v-.675a.675.675 0 0 0-1.35 0V3.9h-6.75v-.675a.675.675 0 0 0-1.35 0V3.9H5.25A1.35 1.35 0 0 0 3.9 5.25v13.5a1.35 1.35 0 0 0 1.35 1.35h13.5a1.35 1.35 0 0 0 1.35-1.35V5.25a1.35 1.35 0 0 0-1.35-1.35M7.275 5.25v.675a.675.675 0 0 0 1.35 0V5.25h6.75v.675a.675.675 0 0 0 1.35 0V5.25h2.025v2.7H5.25v-2.7zm11.475 13.5H5.25V9.3h13.5zm-5.4-4.725a1.35 1.35 0 1 1-1.35-1.35 1.35 1.35 0 0 1 1.35 1.35"/></svg>