<svg xmlns="http://www.w3.org/2000/svg" width="24" height="24" fill="currentColor" viewBox="0 0 24 24"><path d="M20.91 3.9v4.05H3.09V3.9a0.81 0.81 0 0 1 0.81-0.81h16.2a0.81 0.81 0 0 1 0.81 0.81" opacity=".2"/><path d="M20.1 2.28h-2.43v-0.81a0.81 0.81 0 0 0-1.62 0V2.28h-8.1v-0.81a0.81 0.81 0 0 0-1.62 0V2.28H3.9A1.62 1.62 0 0 0 2.28 3.9v16.2a1.62 1.62 0 0 0 1.62 1.62h16.2a1.62 1.62 0 0 0 1.62-1.62V3.9a1.62 1.62 0 0 0-1.62-1.62M6.33 3.9v0.81a0.81 0.81 0 0 0 1.62 0V3.9h8.1v0.81a0.81 0.81 0 0 0 1.62 0V3.9h2.43v3.24H3.9v-3.24z m13.77 16.2H3.9V8.76h16.2z m-6.48-5.67a1.62 1.62 0 1 1-1.62-1.62 1.62 1.62 0 0 1 1.62 1.62"/></svg>