<svg width="24" height="24" viewBox="0 0 24 24" fill="none" xmlns="http://www.w3.org/2000/svg">
<path d="M19.5 6H16.5L15 3.75H9L7.5 6H4.5C4.10218 6 3.72064 6.15804 3.43934 6.43934C3.15804 6.72064 3 7.10218 3 7.5V18C3 18.3978 3.15804 18.7794 3.43934 19.0607C3.72064 19.342 4.10218 19.5 4.5 19.5H19.5C19.8978 19.5 20.2794 19.342 20.5607 19.0607C20.842 18.7794 21 18.3978 21 18V7.5C21 7.10218 20.842 6.72064 20.5607 6.43934C20.2794 6.15804 19.8978 6 19.5 6ZM12 15.75C11.3325 15.75 10.68 15.5521 10.125 15.1812C9.56993 14.8104 9.13735 14.2833 8.88191 13.6666C8.62646 13.0499 8.55962 12.3713 8.68985 11.7166C8.82007 11.0619 9.14151 10.4605 9.61351 9.98851C10.0855 9.51651 10.6869 9.19507 11.3416 9.06485C11.9963 8.93462 12.6749 9.00146 13.2916 9.25691C13.9083 9.51235 14.4354 9.94493 14.8062 10.5C15.1771 11.055 15.375 11.7075 15.375 12.375C15.375 13.2701 15.0194 14.1285 14.3865 14.7615C13.7535 15.3944 12.8951 15.75 12 15.75Z" fill="black" fill-opacity="0.2"/>
<path d="M19.5 19.5H4.5C4.10218 19.5 3.72064 19.342 3.43934 19.0607C3.15804 18.7794 3 18.3978 3 18V7.5C3 7.10218 3.15804 6.72064 3.43934 6.43934C3.72064 6.15804 4.10218 6 4.5 6H7.5L9 3.75H15L16.5 6H19.5C19.8978 6 20.2794 6.15804 20.5607 6.43934C20.842 6.72064 21 7.10218 21 7.5V18C21 18.3978 20.842 18.7794 20.5607 19.0607C20.2794 19.342 19.8978 19.5 19.5 19.5Z" stroke="black" stroke-width="1.5" stroke-linecap="round" stroke-linejoin="round"/>
<path d="M12 15.75C13.864 15.75 15.375 14.239 15.375 12.375C15.375 10.511 13.864 9 12 9C10.136 9 8.625 10.511 8.625 12.375C8.625 14.239 10.136 15.75 12 15.75Z" stroke="black" stroke-width="1.5" stroke-linecap="round" stroke-linejoin="round"/>
</svg>
