<svg xmlns="http://www.w3.org/2000/svg" width="24" height="24" fill="currentColor" viewBox="0 0 24 24"><path d="M18.75 6.6h-2.7L14.7 4.575H9.3L7.95 6.6h-2.7A1.35 1.35 0 0 0 3.9 7.95v9.45a1.35 1.35 0 0 0 1.35 1.35h13.5a1.35 1.35 0 0 0 1.35-1.35V7.95a1.35 1.35 0 0 0-1.35-1.35M12 15.375a3.038 3.038 0 1 1 3.037-3.037A3.04 3.04 0 0 1 12 15.375" opacity=".2"/><path d="M18.75 5.925h-2.339L15.261 4.2a.68.68 0 0 0-.561-.3H9.3a.68.68 0 0 0-.561.3L7.588 5.925H5.25A2.025 2.025 0 0 0 3.225 7.95v9.45a2.025 2.025 0 0 0 2.025 2.025h13.5a2.025 2.025 0 0 0 2.025-2.025V7.95a2.025 2.025 0 0 0-2.025-2.025m.675 11.475a.675.675 0 0 1-.675.675H5.25a.675.675 0 0 1-.675-.675V7.95a.675.675 0 0 1 .675-.675h2.7a.68.68 0 0 0 .562-.3L9.661 5.25h4.677l1.15 1.725a.68.68 0 0 0 .562.3h2.7a.675.675 0 0 1 .675.675zM12 8.625a3.713 3.713 0 1 0 3.713 3.713A3.717 3.717 0 0 0 12 8.625m0 6.075a2.363 2.363 0 1 1 2.363-2.363A2.363 2.363 0 0 1 12 14.7"/></svg>