<svg xmlns="http://www.w3.org/2000/svg" width="24" height="24" fill="currentColor" viewBox="0 0 24 24"><path d="M17.67 16.86H21.72v2.43a0.81 0.81 0 0 1-0.81 0.81H18.48a0.81 0.81 0 0 1-0.81-0.81zM2.28 19.29a0.81 0.81 0 0 0 0.81 0.81H5.52a0.81 0.81 0 0 0 0.81-0.81V16.86H2.28zM18.694 3.571a0.816 0.816 0 0 0-0.741-0.481H6.046a0.816 0.816 0 0 0-0.741 0.481L2.279 10.38h19.44z" opacity=".2"/><path d="M23.34 9.57h-1.093l-2.813-6.328a1.62 1.62 0 0 0-1.481-0.962H6.046a1.62 1.62 0 0 0-1.481 0.962L1.752 9.57h-1.093a0.81 0.81 0 0 0 0 1.62h0.81v8.1a1.62 1.62 0 0 0 1.62 1.62h2.43a1.62 1.62 0 0 0 1.62-1.62v-1.62h9.72v1.62a1.62 1.62 0 0 0 1.62 1.62h2.43a1.62 1.62 0 0 0 1.62-1.62v-8.1h0.81a0.81 0.81 0 0 0 0-1.62zM6.047 3.9h11.907l2.52 5.67H3.527zM5.52 19.29H3.09v-1.62H5.52z m12.96 0v-1.62h2.43v1.62z m2.43-3.24H3.09v-4.86h17.82z m-16.2-2.43a0.81 0.81 0 0 1 0.81-0.81h1.62a0.81 0.81 0 0 1 0 1.62H5.52a0.81 0.81 0 0 1-0.81-0.81m11.34 0a0.81 0.81 0 0 1 0.81-0.81h1.62a0.81 0.81 0 0 1 0 1.62h-1.62a0.81 0.81 0 0 1-0.81-0.81"/></svg>