<svg width="24" height="24" viewBox="0 0 24 24" fill="none" xmlns="http://www.w3.org/2000/svg">
<rect x="3" y="5.25635" width="17.9999" height="13.5" rx="0.833333" fill="black" fill-opacity="0.2"/>
<path d="M6.77783 5.25635L6.77783 18.7564M6.77783 12.0063H17.2222M17.2222 5.25635L17.2222 18.7564M3 9.75644H6.77774M17.2222 9.75644H20.9999M3 14.2563H6.77774M17.2222 14.2563H20.9999M10.3332 14.2564L11.9999 15.9231L13.6665 14.2564M12 8.11782V15.8956M10.3336 9.75648L12.0002 8.08981L13.6669 9.75648M3.83333 18.7563H20.1666C20.6268 18.7563 20.9999 18.3832 20.9999 17.923V6.08968C20.9999 5.62944 20.6268 5.25635 20.1666 5.25635H3.83333C3.3731 5.25635 3 5.62944 3 6.08968V17.923C3 18.3832 3.3731 18.7563 3.83333 18.7563Z" stroke="black" stroke-width="1.5" stroke-linecap="round" stroke-linejoin="round"/>
</svg>
