<svg width="24" height="24" viewBox="0 0 24 24" fill="none" xmlns="http://www.w3.org/2000/svg">
<rect x="3" y="5.25635" width="17.9999" height="13.5" rx="0.833333" fill="black" fill-opacity="0.2"/>
<path d="M7.52783 5.25638C7.52783 4.84216 7.19205 4.50638 6.77783 4.50638C6.36362 4.50638 6.02783 4.84216 6.02783 5.25638L6.77783 5.25638L7.52783 5.25638ZM6.77733 11.2564C6.36312 11.2567 6.02755 11.5927 6.02783 12.0069C6.02811 12.4211 6.36412 12.7567 6.77834 12.7564L6.77783 12.0064L6.77733 11.2564ZM17.9722 5.25638C17.9722 4.84216 17.6364 4.50638 17.2222 4.50638C16.808 4.50638 16.4722 4.84216 16.4722 5.25638L17.2222 5.25638L17.9722 5.25638ZM6.77774 10.5065C7.19195 10.5065 7.52774 10.1707 7.52774 9.75647C7.52774 9.34226 7.19195 9.00647 6.77774 9.00647V9.75647V10.5065ZM20.9999 10.5065C21.4141 10.5065 21.7499 10.1707 21.7499 9.75647C21.7499 9.34226 21.4141 9.00647 20.9999 9.00647V9.75647V10.5065ZM6.77774 15.0064C7.19195 15.0064 7.52774 14.6706 7.52774 14.2564C7.52774 13.8422 7.19195 13.5064 6.77774 13.5064V14.2564V15.0064ZM20.9999 15.0064C21.4141 15.0064 21.7499 14.6706 21.7499 14.2564C21.7499 13.8422 21.4141 13.5064 20.9999 13.5064V14.2564V15.0064ZM10.8635 13.7261C10.5706 13.4332 10.0958 13.4332 9.80286 13.7261C9.50997 14.019 9.50997 14.4939 9.80286 14.7868L10.3332 14.2564L10.8635 13.7261ZM11.9999 15.9231L11.4695 16.4534C11.7624 16.7463 12.2373 16.7463 12.5302 16.4534L11.9999 15.9231ZM14.1969 14.7868C14.4897 14.4939 14.4897 14.019 14.1969 13.7261C13.904 13.4332 13.4291 13.4332 13.1362 13.7261L13.6665 14.2564L14.1969 14.7868ZM12.75 8.11785C12.75 7.70364 12.4142 7.36785 12 7.36785C11.5858 7.36785 11.25 7.70364 11.25 8.11785H12H12.75ZM11.25 15.8956C11.25 16.3098 11.5858 16.6456 12 16.6456C12.4142 16.6456 12.75 16.3098 12.75 15.8956H12H11.25ZM9.80323 9.22618C9.51033 9.51907 9.51033 9.99395 9.80323 10.2868C10.0961 10.5797 10.571 10.5797 10.8639 10.2868L10.3336 9.75651L9.80323 9.22618ZM12.0002 8.08984L12.5306 7.55951C12.3899 7.41886 12.1991 7.33984 12.0002 7.33984C11.8013 7.33984 11.6105 7.41886 11.4699 7.55951L12.0002 8.08984ZM13.1366 10.2868C13.4295 10.5797 13.9043 10.5797 14.1972 10.2868C14.4901 9.99395 14.4901 9.51907 14.1972 9.22618L13.6669 9.75651L13.1366 10.2868ZM3.83333 5.25635V6.00635H20.1666V5.25635V4.50635H3.83333V5.25635ZM20.9999 6.08968H20.2499V17.923H20.9999H21.7499V6.08968H20.9999ZM20.1666 18.7563V18.0063H3.83333V18.7563V19.5063H20.1666V18.7563ZM3 17.923H3.75V6.08968H3H2.25V17.923H3ZM3.83333 18.7563V18.0063C3.78731 18.0063 3.75 17.969 3.75 17.923H3H2.25C2.25 18.7975 2.95888 19.5063 3.83333 19.5063V18.7563ZM20.9999 17.923H20.2499C20.2499 17.969 20.2126 18.0063 20.1666 18.0063V18.7563V19.5063C21.0411 19.5063 21.7499 18.7975 21.7499 17.923H20.9999ZM20.1666 5.25635V6.00635C20.2126 6.00635 20.2499 6.04366 20.2499 6.08968H20.9999H21.7499C21.7499 5.21523 21.0411 4.50635 20.1666 4.50635V5.25635ZM3.83333 5.25635V4.50635C2.95888 4.50635 2.25 5.21523 2.25 6.08968H3H3.75C3.75 6.04366 3.78731 6.00635 3.83333 6.00635V5.25635ZM6.77783 5.25638L6.02783 5.25638L6.02783 18.7564H6.77783H7.52783L7.52783 5.25638L6.77783 5.25638ZM6.77783 12.0064L6.77834 12.7564L17.556 12.7491L17.5555 11.9991L17.555 11.2491L6.77733 11.2564L6.77783 12.0064ZM17.2222 5.25638L16.4722 5.25638L16.4722 18.7564H17.2222H17.9722L17.9722 5.25638L17.2222 5.25638ZM3 9.75647V10.5065H6.77774V9.75647V9.00647H3V9.75647ZM17.2222 9.75647V10.5065H20.9999V9.75647V9.00647H17.2222V9.75647ZM3 14.2564V15.0064H6.77774V14.2564V13.5064H3V14.2564ZM17.2222 14.2564V15.0064H20.9999V14.2564V13.5064H17.2222V14.2564ZM10.3332 14.2564L9.80286 14.7868L11.4695 16.4534L11.9999 15.9231L12.5302 15.3928L10.8635 13.7261L10.3332 14.2564ZM11.9999 15.9231L12.5302 16.4534L14.1969 14.7868L13.6665 14.2564L13.1362 13.7261L11.4695 15.3928L11.9999 15.9231ZM12 8.11785H11.25V15.8956H12H12.75V8.11785H12ZM10.3336 9.75651L10.8639 10.2868L12.5306 8.62017L12.0002 8.08984L11.4699 7.55951L9.80323 9.22618L10.3336 9.75651ZM12.0002 8.08984L11.4699 8.62017L13.1366 10.2868L13.6669 9.75651L14.1972 9.22618L12.5306 7.55951L12.0002 8.08984Z" fill="black"/>
</svg>
