<svg width="24" height="24" viewBox="0 0 24 24" fill="none" xmlns="http://www.w3.org/2000/svg">
<rect x="3" y="5.25635" width="17.9999" height="13.5" rx="0.833333" fill="black" fill-opacity="0.2"/>
<path d="M7.52783 5.25635C7.52783 4.84213 7.19205 4.50635 6.77783 4.50635C6.36362 4.50635 6.02783 4.84213 6.02783 5.25635L6.77783 5.25635L7.52783 5.25635ZM12.75 5.25629C12.75 4.84207 12.4142 4.50631 11.9999 4.50635C11.5857 4.50638 11.25 4.84219 11.25 5.25641L12 5.25635L12.75 5.25629ZM17.9722 5.25635C17.9722 4.84213 17.6364 4.50635 17.2222 4.50635C16.808 4.50635 16.4722 4.84213 16.4722 5.25635L17.2222 5.25635L17.9722 5.25635ZM6.75943 10.5065C7.17364 10.5065 7.50943 10.1707 7.50943 9.75647C7.50943 9.34226 7.17364 9.00647 6.75943 9.00647V9.75647V10.5065ZM21.0001 10.5065C21.4144 10.5065 21.7501 10.1707 21.7501 9.75647C21.7501 9.34226 21.4144 9.00647 21.0001 9.00647V9.75647V10.5065ZM6.75943 15.0063C7.17364 15.0063 7.50943 14.6706 7.50943 14.2563C7.50943 13.8421 7.17364 13.5063 6.75943 13.5063V14.2563V15.0063ZM21.0001 15.0063C21.4144 15.0063 21.7501 14.6706 21.7501 14.2563C21.7501 13.8421 21.4144 13.5063 21.0001 13.5063V14.2563V15.0063ZM13.4143 13.1354C13.1214 13.4283 13.1214 13.9032 13.4143 14.1961C13.7072 14.489 14.1821 14.489 14.475 14.1961L13.9447 13.6658L13.4143 13.1354ZM15.6113 11.9991L16.1417 12.5294C16.4346 12.2365 16.4346 11.7617 16.1417 11.4688L15.6113 11.9991ZM14.475 9.80211C14.1821 9.50921 13.7072 9.50921 13.4143 9.80211C13.1214 10.095 13.1214 10.5699 13.4143 10.8628L13.9447 10.3324L14.475 9.80211ZM14.7775 12.7491C15.1917 12.7491 15.5275 12.4134 15.5275 11.9991C15.5275 11.5849 15.1917 11.2491 14.7775 11.2491V11.9991V12.7491ZM9.22192 11.2491C8.80771 11.2491 8.47192 11.5849 8.47192 11.9991C8.47192 12.4134 8.80771 12.7491 9.22192 12.7491V11.9991V11.2491ZM9.52501 14.1961C9.8179 14.489 10.2928 14.489 10.5857 14.1961C10.8786 13.9032 10.8786 13.4283 10.5857 13.1354L10.0553 13.6658L9.52501 14.1961ZM8.38867 11.9991L7.85834 11.4688C7.56545 11.7617 7.56545 12.2365 7.85834 12.5294L8.38867 11.9991ZM10.5857 10.8628C10.8786 10.5699 10.8786 10.095 10.5857 9.80211C10.2928 9.50921 9.8179 9.50921 9.52501 9.80211L10.0553 10.3324L10.5857 10.8628ZM3.83333 5.25635V6.00635H20.1666V5.25635V4.50635H3.83333V5.25635ZM20.9999 6.08968H20.2499V17.923H20.9999H21.7499V6.08968H20.9999ZM20.1666 18.7563V18.0063H3.83333V18.7563V19.5063H20.1666V18.7563ZM3 17.923H3.75V6.08968H3H2.25V17.923H3ZM3.83333 18.7563V18.0063C3.78731 18.0063 3.75 17.969 3.75 17.923H3H2.25C2.25 18.7975 2.95888 19.5063 3.83333 19.5063V18.7563ZM20.9999 17.923H20.2499C20.2499 17.969 20.2126 18.0063 20.1666 18.0063V18.7563V19.5063C21.0411 19.5063 21.7499 18.7975 21.7499 17.923H20.9999ZM20.1666 5.25635V6.00635C20.2126 6.00635 20.2499 6.04366 20.2499 6.08968H20.9999H21.7499C21.7499 5.21523 21.0411 4.50635 20.1666 4.50635V5.25635ZM3.83333 5.25635V4.50635C2.95888 4.50635 2.25 5.21523 2.25 6.08968H3H3.75C3.75 6.04366 3.78731 6.00635 3.83333 6.00635V5.25635ZM6.77783 5.25635L6.02783 5.25635L6.02783 18.7564H6.77783H7.52783L7.52783 5.25635L6.77783 5.25635ZM12 5.25635L11.25 5.25641L11.2511 18.757L12.0011 18.7569L12.7511 18.7569L12.75 5.25629L12 5.25635ZM17.2222 5.25635L16.4722 5.25635L16.4722 18.7564H17.2222H17.9722L17.9722 5.25635L17.2222 5.25635ZM3 9.75647V10.5065H6.75943V9.75647V9.00647H3V9.75647ZM17.2407 9.75647V10.5065H21.0001V9.75647V9.00647H17.2407V9.75647ZM3 14.2563V15.0063H6.75943V14.2563V13.5063H3V14.2563ZM17.2407 14.2563V15.0063H21.0001V14.2563V13.5063H17.2407V14.2563ZM13.9447 13.6658L14.475 14.1961L16.1417 12.5294L15.6113 11.9991L15.081 11.4688L13.4143 13.1354L13.9447 13.6658ZM15.6113 11.9991L16.1417 11.4688L14.475 9.80211L13.9447 10.3324L13.4143 10.8628L15.081 12.5294L15.6113 11.9991ZM14.7775 11.9991V11.2491L9.22192 11.2491V11.9991V12.7491L14.7775 12.7491V11.9991ZM10.0553 13.6658L10.5857 13.1354L8.919 11.4688L8.38867 11.9991L7.85834 12.5294L9.52501 14.1961L10.0553 13.6658ZM8.38867 11.9991L8.919 12.5294L10.5857 10.8628L10.0553 10.3324L9.52501 9.80211L7.85834 11.4688L8.38867 11.9991Z" fill="black"/>
</svg>
