<svg width="24" height="24" viewBox="0 0 24 24" fill="none" xmlns="http://www.w3.org/2000/svg">
<rect x="3.90002" y="5.88269" width="16.2" height="12.15" rx="0.75" fill="black" fill-opacity="0.2"/>
<path d="M19.3506 5.43164C20.0407 5.43197 20.6006 5.99149 20.6006 6.68164V17.332C20.6003 18.0219 20.0405 18.5817 19.3506 18.582H4.65039C3.96021 18.582 3.40067 18.0222 3.40039 17.332V6.68164C3.40039 5.99129 3.96003 5.43164 4.65039 5.43164H19.3506ZM4.40039 17.332C4.40067 17.4699 4.51249 17.582 4.65039 17.582H6.7998V14.5312H4.40039V17.332ZM7.7998 17.582H16.2002V12.5H12.5V14.3242L13.1465 13.6777C13.3417 13.4826 13.6583 13.4826 13.8535 13.6777C14.0487 13.873 14.0487 14.1895 13.8535 14.3848L12.3535 15.8848C12.1827 16.0556 11.9187 16.0774 11.7246 15.9492L11.6465 15.8848L10.1465 14.3848C9.95134 14.1895 9.95126 13.873 10.1465 13.6777C10.3417 13.4826 10.6583 13.4826 10.8535 13.6777L11.5 14.3242V12.5H7.7998V17.582ZM17.2002 17.582H19.3506C19.4882 17.5817 19.6003 17.4697 19.6006 17.332V14.5312H17.2002V17.582ZM4.40039 13.5312H6.7998V10.4814H4.40039V13.5312ZM17.2002 13.5312H19.6006V10.4814H17.2002V13.5312ZM7.7998 11.5H11.5V9.68848L10.8535 10.335C10.6582 10.5302 10.3417 10.5302 10.1465 10.335C9.95143 10.1397 9.95134 9.82314 10.1465 9.62793L11.6465 8.12793L11.7246 8.06348C11.9186 7.93536 12.1826 7.95723 12.3535 8.12793L13.8535 9.62793C14.0488 9.82319 14.0488 10.1397 13.8535 10.335C13.6582 10.5302 13.3417 10.5302 13.1465 10.335L12.5 9.68848V11.5H16.2002V6.43164H7.7998V11.5ZM4.65039 6.43164C4.51232 6.43164 4.40039 6.54357 4.40039 6.68164V9.48145H6.7998V6.43164H4.65039ZM17.2002 9.48145H19.6006V6.68164C19.6006 6.54377 19.4884 6.43197 19.3506 6.43164H17.2002V9.48145Z" fill="black"/>
</svg>
