<svg viewBox="0 0 24 24" fill="none" xmlns="http://www.w3.org/2000/svg" width="24" height="24">
<rect x="3.90002" y="5.88269" width="16.2" height="12.15" rx="0.75" fill="black" fill-opacity="0.2"/>
<path d="M20.821 4.118C21.649 4.118 22.321 4.79 22.321 5.618V18.398C22.32 19.226 21.649 19.898 20.821 19.898H3.18C2.352 19.898 1.681 19.227 1.68 18.398V5.618C1.68 4.79 2.352 4.118 3.18 4.118H20.821ZM2.88 18.398C2.881 18.564 3.015 18.698 3.18 18.698H5.76V15.037H2.88V18.398ZM6.96 18.698H17.04V12.6H12.6V14.789L13.376 14.013C13.61 13.779 13.99 13.779 14.224 14.013 14.458 14.248 14.458 14.627 14.224 14.862L12.424 16.662C12.219 16.867 11.902 16.893 11.67 16.739L11.576 16.662 9.776 14.862C9.542 14.627 9.542 14.248 9.776 14.013 10.01 13.779 10.39 13.779 10.624 14.013L11.4 14.789V12.6H6.96V18.698ZM18.24 18.698H20.821C20.986 18.698 21.12 18.564 21.121 18.398V15.037H18.24V18.698ZM2.88 13.837H5.76V10.178H2.88V13.837ZM18.24 13.837H21.121V10.178H18.24V13.837ZM6.96 11.4H11.4V9.226L10.624 10.002C10.39 10.236 10.01 10.236 9.776 10.002 9.542 9.768 9.542 9.388 9.776 9.154L11.576 7.354 11.67 7.276C11.902 7.122 12.219 7.149 12.424 7.354L14.224 9.154C14.459 9.388 14.459 9.768 14.224 10.002 13.99 10.236 13.61 10.236 13.376 10.002L12.6 9.226V11.4H17.04V5.318H6.96V11.4ZM3.18 5.318C3.015 5.318 2.88 5.452 2.88 5.618V8.978H5.76V5.318H3.18ZM18.24 8.978H21.121V5.618C21.121 5.453 20.986 5.318 20.821 5.318H18.24V8.978Z" fill="black"/>
</svg>