<svg viewBox="0 0 24 24" fill="none" xmlns="http://www.w3.org/2000/svg" width="24" height="24">
<path d="M19.29 21.72H4.71C4.495 21.72 4.289 21.635 4.137 21.483 3.985 21.331 3.9 21.125 3.9 20.91V3.09C3.9 2.875 3.985 2.669 4.137 2.517 4.289 2.365 4.495 2.28 4.71 2.28H14.057C14.296 2.28 14.525 2.375 14.694 2.543L19.836 7.686C20.005 7.855 20.1 8.084 20.1 8.323V10.915L14.564 16.364V18.986H17.425L20.1 16.741V20.91C20.1 21.125 20.015 21.331 19.863 21.483 19.711 21.635 19.505 21.72 19.29 21.72Z" fill="black" fill-opacity="0.2"/>
<path d="M7.545 11.043C7.751 11.043 7.943 11.15 8.053 11.326L9.57 13.75 11.086 11.326C11.196 11.15 11.388 11.043 11.595 11.043H12.404C12.736 11.043 13.004 11.312 13.004 11.643 13.004 11.975 12.736 12.243 12.404 12.243H12.195V15.093H12.404C12.736 15.093 13.004 15.362 13.004 15.693 13.004 16.025 12.736 16.293 12.404 16.293H11.19C10.859 16.293 10.59 16.025 10.59 15.693 10.59 15.43 10.759 15.208 10.995 15.127V13.734L10.078 15.201C9.969 15.376 9.776 15.483 9.57 15.483 9.363 15.483 9.171 15.376 9.061 15.201L8.145 13.734V15.127C8.38 15.208 8.55 15.43 8.55 15.693 8.55 16.024 8.281 16.293 7.95 16.293H6.735C6.403 16.293 6.135 16.025 6.135 15.693 6.135 15.362 6.403 15.093 6.735 15.093H6.945V12.243H6.735C6.403 12.243 6.135 11.975 6.135 11.643 6.135 11.312 6.403 11.043 6.735 11.043H7.545Z" fill="black"/>
<path d="M13.83 2.28C13.83 1.949 14.099 1.68 14.43 1.68 14.761 1.68 15.03 1.949 15.03 2.28V7.349H20.099C20.431 7.349 20.699 7.618 20.699 7.949 20.699 8.281 20.431 8.549 20.099 8.549H14.43C14.099 8.549 13.83 8.281 13.83 7.949V2.28Z" fill="black"/>
<path d="M3.3 20.91V3.09C3.3 2.716 3.448 2.357 3.713 2.092 3.977 1.828 4.336 1.68 4.71 1.68H14.43L14.548 1.692C14.663 1.715 14.77 1.771 14.855 1.856L20.524 7.525C20.637 7.638 20.699 7.79 20.699 7.949L20.7 8.549H19.5V8.198L14.182 2.88H4.71C4.654 2.88 4.6 2.901 4.561 2.941 4.522 2.98 4.5 3.034 4.5 3.09V20.91C4.5 20.966 4.522 21.019 4.561 21.058 4.6 21.097 4.654 21.12 4.71 21.12H19.29C19.346 21.12 19.4 21.097 19.439 21.058 19.478 21.019 19.5 20.966 19.5 20.91V20.063C19.5 19.732 19.769 19.463 20.1 19.463 20.431 19.463 20.7 19.732 20.7 20.063V20.91C20.7 21.284 20.552 21.642 20.287 21.906 20.023 22.171 19.664 22.32 19.29 22.32H4.71C4.336 22.32 3.977 22.171 3.713 21.906 3.448 21.642 3.3 21.284 3.3 20.91Z" fill="black"/>
<path d="M19.331 11.705L22.001 14.375 21.152 15.224 18.482 12.554 19.331 11.705Z" fill="black"/>
<path d="M20.985 9.749C21.178 9.768 21.36 9.844 21.51 9.967L21.583 10.031 23.713 12.16C23.897 12.344 24 12.594 24.001 12.854 24.001 13.114 23.897 13.364 23.713 13.548L17.834 19.43C17.673 19.59 17.462 19.689 17.238 19.712L17.14 19.717H15.009C14.749 19.716 14.499 19.614 14.315 19.43 14.131 19.246 14.028 18.996 14.028 18.736V16.604L14.033 16.508C14.055 16.284 14.154 16.073 14.315 15.912L20.196 10.031 20.267 9.967C20.442 9.823 20.661 9.744 20.889 9.744L20.985 9.749ZM15.228 16.696V18.517H17.05L22.709 12.854 20.889 11.033 15.228 16.696Z" fill="black"/>
</svg>