<svg viewBox="0 0 24 24" fill="none" xmlns="http://www.w3.org/2000/svg" width="24" height="24">
<path opacity="0.2" fill-rule="evenodd" clip-rule="evenodd" d="M16.26 5.31V8.97H4.5V5.31H16.26Z" fill="black"/>
<path fill-rule="evenodd" clip-rule="evenodd" d="M13.62 19.89H4.5V20.91C4.5 21.241 4.231 21.51 3.9 21.51 3.569 21.51 3.3 21.241 3.3 20.91V19.29 14.43 9.57 4.71 3.09C3.3 2.759 3.569 2.49 3.9 2.49 4.231 2.49 4.5 2.759 4.5 3.09V4.11H16.86C17.191 4.11 17.46 4.379 17.46 4.71V8.97H21.72C22.051 8.97 22.32 9.239 22.32 9.57V14.43C22.32 14.761 22.051 15.03 21.72 15.03H14.22V19.29C14.22 19.621 13.951 19.89 13.62 19.89ZM4.5 15.03V18.69H13.02V15.03H4.5ZM16.26 5.31V8.97H4.5V5.31H16.26ZM16.86 10.17L4.5 10.17V13.83L13.62 13.83 21.12 13.83V10.17L16.86 10.17Z" fill="black"/>
</svg>