<svg width="24" height="24" viewBox="0 0 24 24" fill="none" xmlns="http://www.w3.org/2000/svg">
<path fill-rule="evenodd" clip-rule="evenodd" d="M10.6219 4.3333C10.7343 3.91395 10.4477 3.48997 10.0135 3.48997C8.42149 3.48997 6.9545 4.02527 5.7827 4.9257C5.05788 5.48267 5.26204 6.55012 6.05368 7.00717L8.53969 8.44247C8.9684 8.68998 9.51526 8.4633 9.64339 7.98513L10.6219 4.3333Z" fill="black" fill-opacity="0.2"/>
<path fill-rule="evenodd" clip-rule="evenodd" d="M9.19632 13.3615L4.24419 18.3136C4.04409 18.5137 4.06088 18.8439 4.2899 19.0101C5.75839 20.0759 7.52802 20.7521 9.44702 20.8869C9.72928 20.9067 9.95453 20.6646 9.92987 20.3827L9.31952 13.4063C9.31416 13.3451 9.23976 13.318 9.19632 13.3615Z" fill="black" fill-opacity="0.2"/>
<path d="M3.50098 10.8775C3.50098 11.4009 3.57337 11.9075 3.70868 12.3876C3.94926 13.2413 5.00799 13.3549 5.63515 12.7277L6.47014 11.8927C6.86196 11.5009 6.77583 10.8437 6.29595 10.5667L5.27269 9.97589C4.50453 9.53239 3.51298 9.91692 3.50145 10.8038C3.50114 10.8284 3.50098 10.8529 3.50098 10.8775Z" fill="black" fill-opacity="0.2"/>
<path d="M13.0722 12.6227C12.6295 12.5041 12.2001 12.8606 12.24 13.3172L12.6892 18.4509C12.7151 18.7468 12.9962 18.9531 13.281 18.8688C15.5036 18.2107 17.3387 16.6508 18.3624 14.6129C18.4956 14.3476 18.3418 14.0347 18.055 13.9579L13.0722 12.6227Z" fill="black" fill-opacity="0.2"/>
<path fill-rule="evenodd" clip-rule="evenodd" d="M20.0291 11.4892C20.2497 11.549 20.4253 11.4767 20.4529 11.2498C20.478 11.0423 20.4987 10.7046 20.4987 10.1549C20.4987 6.88798 18.7711 4.02455 16.1796 2.42841C15.421 1.96113 14.4864 2.43934 14.2558 3.3L12.9189 8.28933C12.7419 8.95012 13.1321 9.63645 13.7929 9.81351L18.5301 11.0829L20.0291 11.4892Z" fill="black" fill-opacity="0.2"/>
<path fill-rule="evenodd" clip-rule="evenodd" d="M10.622 4.3022C10.7343 3.88285 10.4477 3.45887 10.0136 3.45887C8.42155 3.45887 6.95456 3.99417 5.78276 4.8946C5.05794 5.45157 5.2621 6.51902 6.05374 6.97607L8.53975 8.41137C8.96846 8.65888 9.51532 8.4322 9.64345 7.95403L10.622 4.3022Z" stroke="black" stroke-width="1.5"/>
<path fill-rule="evenodd" clip-rule="evenodd" d="M9.19639 13.3835L4.24426 18.3356C4.04415 18.5357 4.06094 18.8659 4.28997 19.0321C5.75846 20.0979 7.52809 20.7741 9.44708 20.9089C9.72935 20.9287 9.9546 20.6866 9.92993 20.4047L9.31958 13.4283C9.31423 13.3671 9.23983 13.34 9.19639 13.3835Z" stroke="black" stroke-width="1.5"/>
<path d="M3.50098 10.8851C3.50098 11.4085 3.57337 11.915 3.70868 12.3952C3.94926 13.2489 5.00799 13.3625 5.63515 12.7353L6.47014 11.9003C6.86196 11.5085 6.77583 10.8513 6.29595 10.5742L5.27269 9.98346C4.50453 9.53996 3.51298 9.92449 3.50145 10.8114C3.50114 10.8359 3.50098 10.8605 3.50098 10.8851Z" stroke="black" stroke-width="1.5"/>
<path d="M13.0508 12.6306C12.6081 12.512 12.1787 12.8685 12.2187 13.3251L12.6678 18.4588C12.6937 18.7547 12.9749 18.961 13.2597 18.8767C15.4822 18.2186 17.3173 16.6587 18.341 14.6208C18.4742 14.3555 18.3204 14.0426 18.0337 13.9658L13.0508 12.6306Z" stroke="black" stroke-width="1.5"/>
<path fill-rule="evenodd" clip-rule="evenodd" d="M20.0291 11.4936C20.2497 11.5534 20.4253 11.4811 20.4529 11.2542C20.478 11.0467 20.4987 10.7089 20.4987 10.1593C20.4987 6.89238 18.7711 4.02895 16.1796 2.4328C15.421 1.96553 14.4864 2.44374 14.2558 3.30439L12.9189 8.29372C12.7419 8.95452 13.1321 9.64085 13.7929 9.81791L18.5301 11.0872L20.0291 11.4936Z" stroke="black" stroke-width="1.5"/>
</svg>
