<svg width="24" height="24" viewBox="0 0 24 24" fill="none" xmlns="http://www.w3.org/2000/svg">
<path d="M10.4775 8.12402L10.4775 5.07617L13.522 5.07617L13.522 8.12402L10.4775 8.12402Z" fill="black" fill-opacity="0.2"/>
<path d="M14.5273 14.8672V11.8193H17.5718V14.8672H14.5273Z" fill="black" fill-opacity="0.2"/>
<path d="M6.43262 15.1255L6.43262 9.12793H9.47705L9.47705 15.1255H6.43262Z" fill="black" fill-opacity="0.2"/>
<path d="M13.5249 11.3242C13.5252 11.0483 13.7489 10.8242 14.0249 10.8242L18.0747 10.8242C18.3507 10.8242 18.5744 11.0483 18.5747 11.3242L18.5747 19.4248C18.5747 19.7009 18.3508 19.9248 18.0747 19.9248C17.7987 19.9247 17.5747 19.7009 17.5747 19.4248L17.5747 11.8242L14.5249 11.8242L14.5249 19.4248C14.5249 19.7009 14.301 19.9248 14.0249 19.9248C13.7488 19.9248 13.5249 19.7009 13.5249 19.4248L13.5249 11.3242Z" fill="black"/>
<path d="M19.4248 19.9248L4.5752 19.9248C4.29905 19.9248 4.0752 19.7009 4.0752 19.4248C4.0752 19.1487 4.29905 18.9248 4.5752 18.9248L19.4248 18.9248C19.7009 18.9248 19.9248 19.1487 19.9248 19.4248C19.9248 19.7009 19.7009 19.9248 19.4248 19.9248Z" fill="black"/>
<path d="M14.0249 14.875L18.0747 14.875L18.0747 15.875L14.0249 15.875L14.0249 14.875Z" fill="black"/>
<path d="M9.4751 4.5752C9.4751 4.29905 9.69895 4.0752 9.9751 4.0752L14.0249 4.07519C14.301 4.07519 14.5249 4.29905 14.5249 4.57519L14.5249 19.4248C14.5249 19.7009 14.301 19.9248 14.0249 19.9248C13.7488 19.9248 13.5249 19.7009 13.5249 19.4248L13.5249 5.07519L10.4751 5.0752L10.4751 19.4248C10.4751 19.7009 10.2512 19.9248 9.9751 19.9248C9.69896 19.9248 9.4751 19.7009 9.4751 19.4248L9.4751 4.5752Z" fill="black"/>
<path d="M5.4248 8.625C5.4248 8.34886 5.64866 8.125 5.9248 8.125L9.97461 8.125C10.2508 8.125 10.4746 8.34886 10.4746 8.625L10.4751 19.4248C10.4751 19.7009 10.2512 19.9248 9.9751 19.9248C9.69896 19.9248 9.4751 19.7009 9.4751 19.4248L9.47461 9.125L6.4248 9.125L6.4248 19.4248C6.4248 19.7009 6.20095 19.9248 5.9248 19.9248C5.64866 19.9248 5.4248 19.7009 5.4248 19.4248L5.4248 8.625Z" fill="black"/>
<path d="M9.97461 8.125L14.0254 8.125L14.0254 9.125L9.97461 9.125L9.97461 8.125Z" fill="black"/>
<path d="M5.9248 15.1279L9.98047 15.1279L9.98047 16.1279L5.9248 16.1279L5.9248 15.1279Z" fill="black"/>
</svg>
