<svg width="24" height="24" viewBox="0 0 24 24" fill="none" xmlns="http://www.w3.org/2000/svg">
<path opacity="0.2" d="M3.8999 18.75V5.25H18.7499C19.1079 5.25 19.4513 5.39223 19.7045 5.64541C19.9577 5.89858 20.0999 6.24196 20.0999 6.6V18.75H3.8999Z" fill="black"/>
<path d="M2.9624 5.25C2.9624 4.97386 3.18626 4.75 3.4624 4.75C3.73854 4.75 3.9624 4.97386 3.9624 5.25V18.25H19.6626C19.9387 18.2501 20.1626 18.4739 20.1626 18.75C20.1626 19.0261 19.9387 19.2499 19.6626 19.25H3.4624C3.18626 19.25 2.9624 19.0261 2.9624 18.75V5.25Z" fill="black"/>
<path fill-rule="evenodd" clip-rule="evenodd" d="M15.4582 11.5939L18.3654 9.05195C18.5291 9.12964 18.7121 9.17311 18.9053 9.17311C19.6005 9.1729 20.1639 8.60955 20.1641 7.91433C20.1641 7.21892 19.6006 6.65477 18.9053 6.65456C18.2097 6.65456 17.6455 7.21879 17.6455 7.91433C17.6455 8.04904 17.6668 8.1788 17.706 8.30047L14.8014 10.8389C14.637 10.7601 14.4528 10.7159 14.2583 10.7158C14.032 10.7158 13.8196 10.7755 13.636 10.8801L10.0914 8.22143C10.0107 8.56386 9.79017 8.85228 9.49341 9.02318L13.0337 11.6788C13.0107 11.774 12.9985 11.8734 12.9985 11.9756C12.9987 12.6709 13.5629 13.2344 14.2583 13.2344C14.9535 13.2342 15.5169 12.6708 15.5171 11.9756C15.5171 11.8425 15.4965 11.7143 15.4582 11.5939ZM18.9053 7.65456C19.0483 7.65477 19.1641 7.77121 19.1641 7.91433C19.1639 8.05726 19.0482 8.1729 18.9053 8.17311C18.7622 8.17311 18.6457 8.05739 18.6455 7.91433C18.6455 7.77108 18.762 7.65456 18.9053 7.65456ZM14.5171 11.9756C14.5171 11.8325 14.4014 11.716 14.2583 11.7158C14.1151 11.7158 13.9985 11.8323 13.9985 11.9756C13.9987 12.1187 14.1152 12.2344 14.2583 12.2344C14.4012 12.2342 14.5169 12.1185 14.5171 11.9756Z" fill="black"/>
<path fill-rule="evenodd" clip-rule="evenodd" d="M17.7297 12.1451C17.6754 12.0045 17.6456 11.8517 17.6455 11.6919C17.6455 10.9964 18.2097 10.4322 18.9053 10.4322C19.6006 10.4324 20.1641 10.9965 20.1641 11.6919C20.1639 12.3872 19.6005 12.9505 18.9053 12.9507C18.7377 12.9507 18.5778 12.918 18.4315 12.8586L15.4158 15.9276C15.481 16.0798 15.5171 16.2474 15.5171 16.4234C15.5169 17.1186 14.9535 17.682 14.2583 17.6822C13.5629 17.6822 12.9987 17.1187 12.9985 16.4234C12.9985 16.3733 13.0015 16.3238 13.0072 16.2753L9.66225 14.458C9.44536 14.6353 9.16823 14.7416 8.86621 14.7417C8.59325 14.7417 8.34051 14.6549 8.13416 14.5074L5.46151 16.2017C5.47429 16.2737 5.48096 16.3477 5.48096 16.4234C5.48075 17.1186 4.91739 17.682 4.22217 17.6822C3.9053 17.6822 3.6157 17.5652 3.39427 17.372C3.19696 17.1999 3.05378 16.9674 2.99371 16.7032C2.97325 16.6132 2.96243 16.5196 2.9624 16.4234C2.9624 15.7278 3.52663 15.1636 4.22217 15.1636C4.47588 15.1637 4.71203 15.2388 4.90965 15.3681L7.61777 13.6521C7.61032 13.5968 7.60646 13.5403 7.60645 13.4829C7.60645 12.7874 8.17068 12.2232 8.86621 12.2232C9.56157 12.2234 10.125 12.7875 10.125 13.4829C10.125 13.5121 10.124 13.541 10.122 13.5697L13.51 15.4099C13.7193 15.2552 13.9781 15.1636 14.2583 15.1636C14.4096 15.1637 14.5546 15.1904 14.689 15.2394L17.7297 12.1451ZM18.9053 11.4322C19.0483 11.4324 19.1641 11.5488 19.1641 11.6919C19.1639 11.8349 19.0482 11.9505 18.9053 11.9507C18.7622 11.9507 18.6457 11.835 18.6455 11.6919C18.6455 11.5487 18.762 11.4322 18.9053 11.4322ZM9.125 13.4829C9.125 13.3398 9.00928 13.2234 8.86621 13.2232C8.72296 13.2232 8.60645 13.3397 8.60645 13.4829C8.60666 13.626 8.72309 13.7417 8.86621 13.7417C9.00915 13.7415 9.12479 13.6259 9.125 13.4829ZM14.2583 16.1636C14.4014 16.1638 14.5171 16.2803 14.5171 16.4234C14.5169 16.5663 14.4012 16.682 14.2583 16.6822C14.1152 16.6822 13.9987 16.5664 13.9985 16.4234C13.9985 16.2801 14.1151 16.1636 14.2583 16.1636ZM4.22217 16.1636C4.36524 16.1638 4.48096 16.2803 4.48096 16.4234C4.48075 16.5663 4.36511 16.682 4.22217 16.6822C4.07905 16.6822 3.96261 16.5664 3.9624 16.4234C3.9624 16.2801 4.07892 16.1636 4.22217 16.1636Z" fill="black"/>
<path fill-rule="evenodd" clip-rule="evenodd" d="M3.75111 13.0589C3.43459 12.9312 3.18181 12.6787 3.05391 12.3623C2.92398 12.5464 2.93165 12.8019 3.08664 12.9791C3.25692 13.1737 3.54457 13.205 3.75111 13.0589Z" fill="black"/>
<path fill-rule="evenodd" clip-rule="evenodd" d="M7.60645 7.93164C7.60649 8.06318 7.62671 8.19 7.66418 8.30918L4.831 10.7883C4.65059 10.6883 4.44303 10.6313 4.22217 10.6313C3.52663 10.6313 2.9624 11.1955 2.9624 11.891C2.96245 12.0576 2.99486 12.2166 3.05369 12.3621C3.18159 12.6785 3.43437 12.931 3.75089 13.0587C3.89648 13.1175 4.05556 13.1498 4.22217 13.1498C4.91739 13.1496 5.48075 12.5862 5.48096 11.891C5.48096 11.7843 5.46768 11.6806 5.44268 11.5816L8.31787 9.06518C8.48366 9.14543 8.66969 9.19043 8.86621 9.19043C9.0946 9.19036 9.30877 9.12951 9.49341 9.02318C9.79017 8.85228 10.0107 8.56386 10.0914 8.22143C10.1133 8.1284 10.125 8.03138 10.125 7.93164C10.125 7.23624 9.56157 6.67209 8.86621 6.67188C8.17068 6.67188 7.60645 7.23611 7.60645 7.93164ZM8.83966 8.1891C8.70896 8.17583 8.60664 8.06575 8.60645 7.93164C8.60645 7.78841 8.72293 7.6719 8.86616 7.67188C9.00923 7.67209 9.125 7.78852 9.125 7.93164C9.12479 8.07458 9.00915 8.19022 8.86621 8.19043C8.85725 8.19043 8.84839 8.18998 8.83966 8.1891ZM4.48096 11.891C4.48096 11.7479 4.36524 11.6315 4.22217 11.6313C4.07892 11.6313 3.9624 11.7478 3.9624 11.891C3.96261 12.0341 4.07905 12.1498 4.22217 12.1498C4.36511 12.1496 4.48075 12.034 4.48096 11.891Z" fill="black"/>
</svg>
