<svg width="24" height="24" viewBox="0 0 24 24" fill="none" xmlns="http://www.w3.org/2000/svg">
<path opacity="0.2" d="M3.8999 18.75V5.25H18.7499C19.1079 5.25 19.4513 5.39223 19.7045 5.64541C19.9577 5.89858 20.0999 6.24196 20.0999 6.6V18.75H3.8999Z" fill="black"/>
<path d="M2.9624 5.25C2.9624 4.97386 3.18626 4.75 3.4624 4.75C3.73854 4.75 3.9624 4.97386 3.9624 5.25V18.25H19.6626C19.9387 18.2501 20.1626 18.4739 20.1626 18.75C20.1626 19.0261 19.9387 19.2499 19.6626 19.25H3.4624C3.18626 19.25 2.9624 19.0261 2.9624 18.75V5.25Z" fill="black"/>
<path d="M19.3335 6.87402C19.5413 6.69222 19.8567 6.71309 20.0386 6.9209C20.2203 7.12866 20.1993 7.44412 19.9917 7.62598L14.5913 12.3516C14.4135 12.5069 14.1513 12.5167 13.9624 12.375L8.88623 8.56836L3.7915 13.0264C3.58378 13.208 3.26827 13.187 3.08643 12.9795C2.90458 12.7717 2.92548 12.4553 3.1333 12.2734L8.53271 7.54883L8.60303 7.49707C8.775 7.39272 8.99713 7.40129 9.1626 7.52539L14.2378 11.332L19.3335 6.87402Z" fill="black"/>
<path d="M19.3081 10.8594C19.5018 10.6627 19.8184 10.6599 20.0151 10.8536C20.2118 11.0473 20.2137 11.3638 20.02 11.5606L14.6187 17.0489C14.4623 17.2077 14.2198 17.244 14.0239 17.1377L8.88135 14.3438L3.72998 17.6094C3.49688 17.7571 3.18845 17.688 3.04053 17.4551C2.89271 17.2219 2.96158 16.9125 3.19482 16.7647L8.59521 13.3428L8.65381 13.3106C8.7957 13.2454 8.96159 13.2495 9.10107 13.3252L14.1694 16.0782L19.3081 10.8594Z" fill="black"/>
</svg>
