<svg width="24" height="24" viewBox="0 0 24 24" fill="none" xmlns="http://www.w3.org/2000/svg">
<path d="M12 16.375C14.4162 16.375 16.375 14.4162 16.375 12C16.375 9.58375 14.4162 7.625 12 7.625C9.58375 7.625 7.625 9.58375 7.625 12C7.625 14.4162 9.58375 16.375 12 16.375Z" fill="black" fill-opacity="0.2"/>
<path d="M20.9098 11.9998C20.9098 12.284 20.8954 12.5652 20.8675 12.8426M20.9098 11.9998C20.9098 11.7157 20.8954 11.4347 20.8676 11.1574M20.9098 11.9998L20.0618 11.9998M20.8675 12.8426C20.4472 17.0201 16.9447 20.3593 12.8414 20.8483M20.8675 12.8426C20.88 12.8431 20.8925 12.8434 20.9052 12.8434C21.371 12.8434 21.7486 12.4658 21.7486 12C21.7486 11.5342 21.371 11.1566 20.9052 11.1566C20.8926 11.1566 20.88 11.1569 20.8676 11.1574M20.8675 12.8426C20.4192 12.8229 20.0618 12.453 20.0618 11.9998M12.8414 20.8483C12.5633 20.8814 12.2825 20.9015 11.9998 20.9078M12.8414 20.8483C12.812 20.4091 12.4464 20.062 11.9998 20.062M12.8414 20.8483C12.8426 20.8672 12.8433 20.8862 12.8433 20.9054C12.8433 21.3712 12.4657 21.7488 11.9999 21.7488C11.5341 21.7488 11.1565 21.3712 11.1565 20.9054C11.1565 20.8988 11.1565 20.8923 11.1567 20.8857M11.9998 20.9078C11.9348 20.9093 11.8697 20.91 11.8046 20.91C11.5866 20.91 11.3706 20.9018 11.1567 20.8857M11.9998 20.9078V20.915M11.9998 20.9078V20.062M11.1567 20.8857C6.91905 20.5674 3.52353 17.1508 3.1282 12.8427M11.1567 20.8857C11.1671 20.4291 11.5406 20.0621 11.9998 20.062M3.1282 12.8427C3.10274 12.5653 3.08973 12.2842 3.08973 12M3.1282 12.8427C3.57829 12.825 3.93775 12.4545 3.93775 12M3.1282 12.8427C3.11697 12.8432 3.10569 12.8434 3.09436 12.8434C2.62857 12.8434 2.25098 12.4658 2.25098 12C2.25098 11.5342 2.62857 11.1566 3.09436 11.1566C3.10569 11.1566 3.11697 11.1568 3.1282 11.1573M3.08973 12C3.08973 11.7158 3.10274 11.4347 3.1282 11.1573M3.08973 12H3.93775M20.8676 11.1574C20.4474 6.97969 16.9448 3.64053 12.8413 3.15165M20.8676 11.1574C20.4193 11.1771 20.0619 11.5467 20.0618 11.9998M12.8413 3.15165C12.4994 3.11092 12.1533 3.08997 11.8046 3.08997C11.5866 3.08997 11.3705 3.09815 11.1566 3.11423M12.8413 3.15165C12.8425 3.13279 12.8432 3.11377 12.8432 3.0946C12.8432 2.62881 12.4656 2.25122 11.9998 2.25122C11.534 2.25122 11.1564 2.62881 11.1564 3.0946C11.1564 3.10116 11.1564 3.1077 11.1566 3.11423M12.8413 3.15165C12.8119 3.59083 12.4464 3.93799 11.9998 3.93799M11.1566 3.11423C6.91899 3.43266 3.52352 6.84913 3.1282 11.1573M11.1566 3.11423C11.167 3.57094 11.5405 3.93799 11.9998 3.93799M3.1282 11.1573C3.57829 11.175 3.93775 11.5455 3.93775 12M20.0618 11.9998L16.3997 11.9999M20.0618 11.9998C20.0618 11.9997 20.0618 11.9999 20.0618 11.9998ZM16.3997 11.9999L11.9998 11.9999M16.3997 11.9999C16.3997 14.4299 14.4298 16.3999 11.9998 16.4M16.3997 11.9999C16.3996 9.56993 14.4298 7.60008 11.9998 7.60003M16.3997 11.9999C16.3997 11.9999 16.3997 11.9998 16.3997 11.9999ZM11.9998 11.9999L7.59967 12M11.9998 11.9999V16.4M11.9998 11.9999V7.60003M7.59967 12L3.93775 12M7.59967 12C7.59967 14.4301 9.56972 16.4 11.9998 16.4M7.59967 12C7.59967 11.9999 7.59967 12 7.59967 12ZM7.59967 12C7.59969 9.56995 9.56973 7.60003 11.9998 7.60003M11.9998 20.062V16.4M11.9998 20.062C11.9998 20.062 11.9997 20.062 11.9998 20.062ZM11.9998 16.4C11.9997 16.4 11.9998 16.4 11.9998 16.4ZM11.9998 7.60003V3.93799M11.9998 7.60003C11.9998 7.60003 11.9997 7.60003 11.9998 7.60003ZM11.9998 3.93799V3.095" stroke="black" stroke-width="1.5" stroke-linejoin="round"/>
</svg>
