<svg width="24" height="24" viewBox="0 0 24 24" fill="none" xmlns="http://www.w3.org/2000/svg">
<path d="M12 16.375C14.4162 16.375 16.375 14.4162 16.375 12C16.375 9.58375 14.4162 7.625 12 7.625C9.58375 7.625 7.625 9.58375 7.625 12C7.625 14.4162 9.58375 16.375 12 16.375Z" fill="black" fill-opacity="0.2"/>
<path d="M20.875 11.9998C20.875 16.9013 16.9015 20.8748 12 20.8748M20.875 11.9998C20.875 7.09823 16.9015 3.12476 12 3.12476M20.875 11.9998H3.125M12 20.8748C7.09847 20.8748 3.125 16.9013 3.125 11.9998M12 20.8748V3.12476M3.125 11.9998C3.125 7.09823 7.09847 3.12476 12 3.12476M16.375 11.9996C16.375 14.4158 14.4162 16.3746 12 16.3746C9.58375 16.3746 7.625 14.4158 7.625 11.9996C7.625 9.58332 9.58375 7.62457 12 7.62457C14.4162 7.62457 16.375 9.58332 16.375 11.9996Z" stroke="black" stroke-width="1.5" stroke-miterlimit="10" stroke-linejoin="round"/>
</svg>
