<svg viewBox="0 0 24 24" fill="none" xmlns="http://www.w3.org/2000/svg" width="24" height="24">
<path opacity="0.2" d="M12 17.67C15.131 17.67 17.67 15.132 17.67 12 17.67 8.869 15.131 6.33 12 6.33 8.868 6.33 6.33 8.869 6.33 12 6.33 15.132 8.868 17.67 12 17.67Z" fill="black"/>
<path fill-rule="evenodd" clip-rule="evenodd" d="M18.242 12.6H17.035C16.761 14.92 14.92 16.762 12.6 17.035V18.242C15.584 17.959 17.958 15.584 18.242 12.6ZM6.965 12.6C7.239 14.921 9.079 16.762 11.4 17.036V18.242C8.416 17.959 6.041 15.584 5.758 12.6H6.965ZM5.758 11.4H6.965C7.239 9.08 9.08 7.239 11.4 6.966V5.759C8.416 6.042 6.042 8.416 5.758 11.4ZM17.035 11.4H18.242C17.958 8.417 15.584 6.042 12.6 5.759V6.966C14.92 7.239 16.761 9.08 17.035 11.4Z" fill="black"/>
<path fill-rule="evenodd" clip-rule="evenodd" d="M12 22.321C6.301 22.32 1.68 17.699 1.68 12 1.68 6.301 6.3 1.681 11.999 1.68 17.699 1.68 22.32 6.301 22.32 12 22.32 17.7 17.7 22.321 12 22.321ZM2.899 12.6C3.195 17.159 6.841 20.805 11.4 21.101V18.242 17.036 12.6H6.965 5.758 2.899ZM12.6 17.035V18.242 21.101C17.159 20.805 20.805 17.159 21.101 12.6H18.242 17.035 12.6V17.035ZM11.4 2.9C6.841 3.196 3.196 6.841 2.899 11.4H5.758 6.965 11.4V6.966 5.759 2.9ZM12.6 6.966V11.4H17.035 18.242 21.101C20.804 6.842 17.158 3.196 12.6 2.9V5.759 6.966ZM12.001 20.498C12.172 20.499 12.311 20.638 12.311 20.81 12.311 20.982 12.172 21.12 12.001 21.121 11.829 21.121 11.689 20.982 11.689 20.81 11.689 20.638 11.829 20.498 12.001 20.498ZM21.12 12C21.12 11.828 20.981 11.688 20.809 11.688 20.637 11.688 20.497 11.828 20.497 12 20.498 12.172 20.637 12.311 20.809 12.311 20.981 12.31 21.119 12.171 21.12 12ZM12.001 2.88C12.172 2.881 12.311 3.02 12.311 3.192 12.311 3.364 12.172 3.502 12.001 3.503 11.829 3.503 11.689 3.364 11.689 3.192 11.689 3.02 11.829 2.88 12.001 2.88ZM3.502 12C3.502 11.828 3.363 11.688 3.192 11.688 3.02 11.688 2.88 11.828 2.88 12 2.88 12.172 3.02 12.311 3.192 12.311 3.363 12.31 3.502 12.171 3.502 12Z" fill="black"/>
<path fill-rule="evenodd" clip-rule="evenodd" d="M12.001 4.703C12.835 4.702 13.511 4.026 13.511 3.192 13.511 2.358 12.834 1.681 11.999 1.68 11.165 1.68 10.489 2.358 10.489 3.192 10.489 4.027 11.166 4.703 12.001 4.703ZM12.311 3.192C12.311 3.02 12.172 2.881 12.001 2.88 11.829 2.88 11.689 3.02 11.689 3.192 11.689 3.364 11.829 3.503 12.001 3.503 12.172 3.502 12.311 3.364 12.311 3.192Z" fill="black"/>
<path fill-rule="evenodd" clip-rule="evenodd" d="M3.192 13.511C4.026 13.51 4.702 12.834 4.702 12 4.702 11.166 4.026 10.488 3.192 10.488 2.357 10.488 1.68 11.165 1.68 12 1.68 12.834 2.357 13.511 3.192 13.511ZM3.502 12C3.502 11.828 3.363 11.688 3.192 11.688 3.02 11.688 2.88 11.828 2.88 12 2.88 12.172 3.02 12.311 3.192 12.311 3.363 12.31 3.502 12.171 3.502 12Z" fill="black"/>
<path fill-rule="evenodd" clip-rule="evenodd" d="M20.809 13.511C21.643 13.51 22.32 12.834 22.32 12 22.32 11.166 21.643 10.488 20.809 10.488 19.974 10.488 19.297 11.165 19.297 12 19.298 12.834 19.974 13.511 20.809 13.511ZM21.12 12C21.12 11.828 20.981 11.688 20.809 11.688 20.637 11.688 20.497 11.828 20.497 12 20.498 12.172 20.637 12.311 20.809 12.311 20.981 12.31 21.119 12.171 21.12 12Z" fill="black"/>
<path fill-rule="evenodd" clip-rule="evenodd" d="M12 22.321C12.834 22.32 13.511 21.644 13.511 20.81 13.511 19.976 12.835 19.299 12.001 19.298 11.166 19.298 10.489 19.976 10.489 20.81 10.489 21.645 11.166 22.321 12 22.321ZM12.311 20.81C12.311 20.638 12.172 20.499 12.001 20.498 11.829 20.498 11.689 20.638 11.689 20.81 11.689 20.982 11.829 21.121 12.001 21.121 12.172 21.12 12.311 20.982 12.311 20.81Z" fill="black"/>
</svg>