<svg width="24" height="24" viewBox="0 0 24 24" fill="none" xmlns="http://www.w3.org/2000/svg">
<path d="M3 19.5V4.5H19.5C19.8978 4.5 20.2794 4.65804 20.5607 4.93934C20.842 5.22064 21 5.60218 21 6V19.5H3Z" fill="black" fill-opacity="0.2"/>
<path d="M21 20.25C21.4142 20.25 21.75 19.9142 21.75 19.5C21.75 19.0858 21.4142 18.75 21 18.75V19.5V20.25ZM3 19.5H2.25C2.25 19.9142 2.58579 20.25 3 20.25V19.5ZM3.75 4.5C3.75 4.08579 3.41421 3.75 3 3.75C2.58579 3.75 2.25 4.08579 2.25 4.5H3H3.75ZM18.5101 8.53H17.7601C17.7601 9.51307 16.9631 10.31 15.9801 10.31V11.06V11.81C17.7916 11.81 19.2601 10.3415 19.2601 8.53H18.5101ZM15.9801 11.06V10.31C14.997 10.31 14.2001 9.51307 14.2001 8.53H13.4501H12.7001C12.7001 10.3415 14.1686 11.81 15.9801 11.81V11.06ZM13.4501 8.53H14.2001C14.2001 7.54693 14.997 6.75 15.9801 6.75V6V5.25C14.1686 5.25 12.7001 6.71851 12.7001 8.53H13.4501ZM15.9801 6V6.75C16.9631 6.75 17.7601 7.54693 17.7601 8.53H18.5101H19.2601C19.2601 6.71851 17.7916 5.25 15.9801 5.25V6ZM10.5501 14.475H9.80006C9.80006 15.1791 9.22922 15.75 8.52506 15.75V16.5V17.25C10.0577 17.25 11.3001 16.0075 11.3001 14.475H10.5501ZM8.52506 16.5V15.75C7.8209 15.75 7.25006 15.1791 7.25006 14.475H6.50006H5.75006C5.75006 16.0075 6.99247 17.25 8.52506 17.25V16.5ZM6.50006 14.475H7.25006C7.25006 13.7708 7.8209 13.2 8.52506 13.2V12.45V11.7C6.99247 11.7 5.75006 12.9424 5.75006 14.475H6.50006ZM8.52506 12.45V13.2C9.22922 13.2 9.80006 13.7708 9.80006 14.475H10.5501H11.3001C11.3001 12.9424 10.0577 11.7 8.52506 11.7V12.45ZM16.9926 15.4925H16.2426C16.2426 15.6375 16.1251 15.755 15.9801 15.755V16.505V17.255C16.9535 17.255 17.7426 16.4659 17.7426 15.4925H16.9926ZM15.9801 16.505V15.755C15.8351 15.755 15.7176 15.6375 15.7176 15.4925H14.9676H14.2176C14.2176 16.4659 15.0067 17.255 15.9801 17.255V16.505ZM14.9676 15.4925H15.7176C15.7176 15.3475 15.8351 15.23 15.9801 15.23V14.48V13.73C15.0067 13.73 14.2176 14.5191 14.2176 15.4925H14.9676ZM15.9801 14.48V15.23C16.1251 15.23 16.2426 15.3475 16.2426 15.4925H16.9926H17.7426C17.7426 14.5191 16.9535 13.73 15.9801 13.73V14.48ZM10.0451 7.52171H9.29507C9.29507 7.94697 8.95033 8.29171 8.52507 8.29171V9.04171V9.79171C9.77875 9.79171 10.7951 8.7754 10.7951 7.52171H10.0451ZM8.52507 9.04171V8.29171C8.09981 8.29171 7.75507 7.94697 7.75507 7.52171H7.00507H6.25507C6.25507 8.7754 7.27138 9.79171 8.52507 9.79171V9.04171ZM7.00507 7.52171H7.75507C7.75507 7.09645 8.09981 6.75171 8.52507 6.75171V6.00171V5.25171C7.27138 5.25171 6.25507 6.26802 6.25507 7.52171H7.00507ZM8.52507 6.00171V6.75171C8.95033 6.75171 9.29507 7.09645 9.29507 7.52171H10.0451H10.7951C10.7951 6.26802 9.77875 5.25171 8.52507 5.25171V6.00171ZM21 19.5V18.75H3V19.5V20.25H21V19.5ZM3 19.5H3.75V4.5H3H2.25V19.5H3Z" fill="black"/>
</svg>
