<svg viewBox="0 0 24 24" fill="none" xmlns="http://www.w3.org/2000/svg" width="24" height="24">
<path d="M17.461 10.173H21.118V13.826H17.461V10.173Z" fill="black" fill-opacity="0.2"/>
<path d="M9.369 15.033H13.027V18.687H9.369V15.033Z" fill="black" fill-opacity="0.2"/>
<path d="M9.059 5.319H16.256V8.972H9.059V5.319Z" fill="black" fill-opacity="0.2"/>
<path d="M13.621 13.83C13.952 13.83 14.221 14.099 14.221 14.43V19.29C14.221 19.621 13.952 19.889 13.621 19.89H3.9C3.569 19.89 3.3 19.621 3.3 19.29 3.3 18.958 3.569 18.69 3.9 18.69H13.021V15.03H3.9C3.569 15.03 3.3 14.761 3.3 14.43 3.3 14.099 3.569 13.83 3.9 13.83H13.621Z" fill="black"/>
<path d="M3.3 20.91V3.09C3.3 2.759 3.569 2.49 3.9 2.49 4.231 2.49 4.5 2.759 4.5 3.09V20.91C4.5 21.241 4.231 21.51 3.9 21.51 3.569 21.51 3.3 21.241 3.3 20.91Z" fill="black"/>
<path d="M9.36 14.43V19.29H8.16V14.43H9.36Z" fill="black"/>
<path d="M21.72 8.97C22.051 8.97 22.32 9.239 22.32 9.57V14.43C22.32 14.761 22.051 15.03 21.72 15.03H3.9C3.569 15.03 3.3 14.761 3.3 14.43 3.3 14.099 3.569 13.83 3.9 13.83H21.12V10.17H3.9C3.569 10.17 3.3 9.901 3.3 9.57 3.3 9.239 3.569 8.97 3.9 8.97H21.72Z" fill="black"/>
<path d="M16.86 4.11C17.191 4.11 17.46 4.378 17.46 4.71V9.57C17.46 9.901 17.191 10.17 16.86 10.17L3.9 10.17C3.569 10.17 3.3 9.901 3.3 9.57 3.3 9.239 3.569 8.97 3.9 8.97L16.26 8.97V5.31H3.9C3.569 5.31 3.3 5.041 3.3 4.71 3.3 4.378 3.569 4.11 3.9 4.11H16.86Z" fill="black"/>
<path d="M17.46 9.57V14.43H16.26V9.57H17.46Z" fill="black"/>
<path d="M9.056 4.71V9.577H7.856L7.856 4.71H9.056Z" fill="black"/>
</svg>