<svg width="24" height="24" viewBox="0 0 24 24" fill="none" xmlns="http://www.w3.org/2000/svg">
<path d="M8.75 3.75C9.30228 3.75 9.75 4.19771 9.75 4.75L9.75488 4.64746C9.80621 4.14333 10.2323 3.75 10.75 3.75H13.25C13.8023 3.75 14.25 4.19772 14.25 4.75C14.25 4.19772 14.6977 3.75 15.25 3.75H17.75C18.3023 3.75 18.75 4.19771 18.75 4.75V14.75C18.75 15.3023 18.3023 15.75 17.75 15.75H15.25C14.6977 15.75 14.25 15.3023 14.25 14.75V10.75C14.25 11.3023 13.8023 11.75 13.25 11.75H10.75C10.1977 11.75 9.75 11.3023 9.75 10.75V14.75C9.75 15.3023 9.30228 15.75 8.75 15.75H6.25C5.69772 15.75 5.25 15.3023 5.25 14.75V4.75C5.25 4.19772 5.69772 3.75 6.25 3.75H8.75Z" fill="black" fill-opacity="0.2"/>
<path d="M20.25 20.25H3.75M9.75 15.75H5.25M18.75 15.75H14.25M14.25 11.75H9.75M14.25 3.75H9.75L5.25 3.75L5.25 20.25M9.75 3.75L9.75 20.25M14.25 3.75L14.25 20.25M14.25 3.75H18.75L18.75 20.25" stroke="black" stroke-width="1.5" stroke-linecap="round" stroke-linejoin="round"/>
</svg>
