<svg width="24" height="24" viewBox="0 0 24 24" fill="none" xmlns="http://www.w3.org/2000/svg">
<path d="M14.9268 13.5254L20.251 16.7207V17.998C20.2507 18.412 19.915 18.748 19.501 18.748L13.8564 18.7529C13.8569 18.729 13.8574 18.6983 13.8574 18.665C13.8575 18.5991 13.8557 18.5117 13.8525 18.4307L13.8516 18.4189C13.8501 18.3821 13.8491 18.3418 13.8457 18.3037C13.8434 18.2774 13.836 18.1968 13.8125 18.1152C13.7538 17.9116 13.6482 17.7245 13.5039 17.5693L13.4941 17.5586L11.8389 15.8545L12.8662 13.5498C12.8705 13.5408 12.875 13.5317 12.8789 13.5225L12.9951 13.2617L14.9268 13.5254Z" fill="black" fill-opacity="0.2"/>
<path d="M14.5762 5.25293C14.574 5.32293 14.5705 5.39829 14.5674 5.47363C14.5628 5.58391 14.5572 5.69056 14.5518 5.77637L14.541 5.91504L12.2725 7.96582L11.2344 8.53711H9.8252C9.58853 8.53709 9.35546 8.59958 9.15039 8.71777C8.9451 8.83624 8.77284 9.00861 8.6543 9.21387L7.91797 10.5L7.06055 8.2168L8.22168 5.48438C8.25384 5.40856 8.27176 5.32967 8.27539 5.25195L14.5762 5.25293Z" fill="black" fill-opacity="0.2"/>
<path d="M15.2079 6.02246L15.9483 6.1421V6.1421L15.2079 6.02246ZM16.0077 4.93628C16.0077 4.52207 15.672 4.18628 15.2577 4.18628C14.8435 4.18628 14.5077 4.52207 14.5077 4.93628H15.2577H16.0077ZM14.9957 6.41414L15.4986 6.97056L15.5004 6.96898L14.9957 6.41414ZM12.7243 8.46698L12.2214 7.91048L12.212 7.91922L12.7243 8.46698ZM12.5986 8.55727L12.2433 7.89676L12.2372 7.90012L12.5986 8.55727ZM11.5617 9.12764L11.2002 8.47048L11.1964 8.47258L11.5617 9.12764ZM11.236 9.21202L11.2372 8.46202H11.236V9.21202ZM9.82607 9.21202L9.82496 9.96202H9.82607V9.21202ZM9.2405 9.54951L8.59098 9.17451L8.58966 9.17681L9.2405 9.54951ZM7.46579 11.1394C7.25995 11.4988 7.38447 11.9571 7.74392 12.1629C8.10337 12.3688 8.56163 12.2442 8.76747 11.8848L8.11663 11.5121L7.46579 11.1394ZM8.29088 5.51408C8.45289 5.13287 8.27519 4.69249 7.89398 4.53048C7.51276 4.36847 7.07239 4.54617 6.91038 4.92739L7.60063 5.22073L8.29088 5.51408ZM6.43927 7.95342L5.74902 7.66007L5.74829 7.6618L6.43927 7.95342ZM6.42915 8.45292L7.13141 8.1896L7.13138 8.18954L6.42915 8.45292ZM7.39946 11.0407L6.6972 11.304L6.69769 11.3053L7.39946 11.0407ZM7.88968 11.4626L8.04741 10.7293L8.04676 10.7292L7.88968 11.4626ZM9.69784 11.8515L9.54011 12.5848L9.54056 12.5849L9.69784 11.8515ZM10.1636 12.2169L10.839 11.8908L10.8384 11.8895L10.1636 12.2169ZM10.4842 12.8809L9.80882 13.207L9.80934 13.2081L10.4842 12.8809ZM11.0917 13.2614V12.5114H11.0916L11.0917 13.2614ZM12.2561 14.0114C12.6703 14.0114 13.0061 13.6757 13.0061 13.2614C13.0061 12.8472 12.6703 12.5114 12.2561 12.5114V13.2614V14.0114ZM13.9281 18.6157C13.9281 18.2015 13.5923 17.8657 13.1781 17.8657C12.7639 17.8657 12.4281 18.2015 12.4281 18.6157H13.1781H13.9281ZM13.0094 18.0293L13.5586 17.5185C13.5549 17.5146 13.5512 17.5107 13.5475 17.5068L13.0094 18.0293ZM11.3438 16.314L10.7936 16.8237C10.7976 16.828 10.8017 16.8322 10.8057 16.8364L11.3438 16.314ZM11.1731 15.9656L10.4332 16.0882L11.1731 15.9656ZM11.2223 15.5807L10.5373 15.2754L10.5371 15.2757L11.2223 15.5807ZM12.3783 12.987L11.6933 12.6816L11.6932 12.6817L12.3783 12.987ZM13.0853 12.593L12.9847 13.3362L12.985 13.3363L13.0853 12.593ZM15.0108 12.8529L15.1126 12.1098L15.1111 12.1096L15.0108 12.8529ZM15.274 12.9465L14.8836 13.587L14.888 13.5896L15.274 12.9465ZM2.99878 6.00244H2.24878H2.99878ZM4.49878 4.50244V3.75244V4.50244ZM4.49878 19.4975V18.7475V18.7475V19.4975ZM2.99878 17.9975H3.74878H2.99878ZM21.0011 17.9975H21.7511V17.9975H21.0011ZM19.5011 19.4975V20.2475V20.2475V19.4975ZM21.0011 6.00244H20.2511V6.00244H21.0011ZM19.5012 4.50244V5.25244V4.50244ZM15.2079 6.02246L15.9483 6.1421C15.9693 6.01184 15.9828 5.73878 15.9913 5.53308C16.0008 5.30443 16.0077 5.0579 16.0077 4.93628H15.2577H14.5077C14.5077 5.02559 14.5019 5.24676 14.4926 5.47075C14.488 5.58094 14.4828 5.68649 14.4775 5.7717C14.4713 5.87021 14.4668 5.90721 14.4675 5.90283L15.2079 6.02246ZM14.9957 6.41414L15.5004 6.96898C15.7389 6.75198 15.8969 6.46047 15.9483 6.1421L15.2079 6.02246L14.4675 5.90283C14.4702 5.88607 14.4785 5.87073 14.4911 5.85931L14.9957 6.41414ZM12.7243 8.46698L13.2272 9.02341L15.4986 6.97056L14.9957 6.41414L14.4928 5.85772L12.2215 7.91056L12.7243 8.46698ZM12.5986 8.55727L12.954 9.21774C13.0566 9.16255 13.1516 9.09432 13.2367 9.01475L12.7243 8.46698L12.212 7.91922C12.2214 7.91043 12.2319 7.90289 12.2433 7.89679L12.5986 8.55727ZM11.5617 9.12764L11.9231 9.78479L12.9601 9.21442L12.5986 8.55727L12.2372 7.90012L11.2002 8.47049L11.5617 9.12764ZM11.236 9.21202L11.2347 9.96201C11.477 9.96241 11.7153 9.90068 11.9269 9.7827L11.5617 9.12764L11.1964 8.47258C11.2089 8.46563 11.2229 8.46199 11.2372 8.46202L11.236 9.21202ZM9.82607 9.21202V9.96202H11.236V9.21202V8.46202H9.82607V9.21202ZM9.488 9.3022L9.86252 9.95199C9.8511 9.95858 9.83814 9.96203 9.82496 9.96201L9.82607 9.21202L9.82717 8.46202C9.57668 8.46165 9.33051 8.52731 9.11348 8.6524L9.488 9.3022ZM9.2405 9.54951L9.89002 9.92451C9.88343 9.93593 9.87394 9.94541 9.86252 9.95199L9.488 9.3022L9.11348 8.6524C8.89645 8.77749 8.71623 8.95758 8.59098 9.17451L9.2405 9.54951ZM8.11663 11.5121L8.76747 11.8848L9.89134 9.92222L9.2405 9.54951L8.58966 9.17681L7.46579 11.1394L8.11663 11.5121ZM7.60063 5.22073L6.91038 4.92739L5.74902 7.66007L6.43927 7.95342L7.12953 8.24677L8.29088 5.51408L7.60063 5.22073ZM6.43927 7.95342L5.74829 7.6618C5.60656 7.99763 5.59891 8.375 5.72692 8.7163L6.42915 8.45292L7.13138 8.18954C7.13812 8.2075 7.13772 8.22736 7.13026 8.24504L6.43927 7.95342ZM6.42915 8.45292L5.72689 8.71624L6.6972 11.304L7.39946 11.0407L8.10172 10.7774L7.13141 8.1896L6.42915 8.45292ZM7.39946 11.0407L6.69769 11.3053C6.78186 11.5285 6.92072 11.727 7.10153 11.8826L7.59075 11.3142L8.07997 10.7457C8.08949 10.7539 8.0968 10.7643 8.10123 10.7761L7.39946 11.0407ZM7.59075 11.3142L7.10153 11.8826C7.28235 12.0383 7.49934 12.146 7.7326 12.1959L7.88968 11.4626L8.04676 10.7292C8.05904 10.7318 8.07046 10.7375 8.07997 10.7457L7.59075 11.3142ZM7.88968 11.4626L7.73195 12.1958L9.54011 12.5848L9.69784 11.8515L9.85557 11.1183L8.04741 10.7293L7.88968 11.4626ZM9.69784 11.8515L9.54056 12.5849C9.52942 12.5825 9.51897 12.5776 9.51 12.5705L9.9729 11.9804L10.4358 11.3903C10.2654 11.2567 10.0668 11.1636 9.85511 11.1182L9.69784 11.8515ZM9.9729 11.9804L9.51 12.5705C9.50103 12.5635 9.49379 12.5545 9.48881 12.5443L10.1636 12.2169L10.8384 11.8895C10.7438 11.6947 10.6062 11.524 10.4358 11.3903L9.9729 11.9804ZM10.1636 12.2169L9.4882 12.543L9.80882 13.207L10.4842 12.8809L11.1596 12.5548L10.839 11.8908L10.1636 12.2169ZM10.4842 12.8809L9.80934 13.2081C9.9261 13.4489 10.1083 13.652 10.3351 13.7941L10.7333 13.1585L11.1314 12.5229C11.1433 12.5304 11.1529 12.5411 11.1591 12.5537L10.4842 12.8809ZM10.7333 13.1585L10.3351 13.7941C10.562 13.9362 10.8242 14.0115 11.0918 14.0114L11.0917 13.2614L11.0916 12.5114C11.1056 12.5114 11.1195 12.5154 11.1314 12.5229L10.7333 13.1585ZM11.0917 13.2614V14.0114H12.2561V13.2614V12.5114H11.0917V13.2614ZM13.1638 18.3023L12.4431 18.5098C12.4247 18.446 12.4233 18.4025 12.4258 18.43C12.4267 18.4396 12.4279 18.4583 12.429 18.4866C12.4312 18.5421 12.432 18.6092 12.432 18.6641C12.4319 18.6912 12.4317 18.7124 12.4315 18.7249C12.4313 18.732 12.4313 18.7324 12.4314 18.7285C12.4315 18.7281 12.4319 18.7175 12.4331 18.7029C12.4336 18.698 12.4354 18.676 12.44 18.6477C12.4418 18.6367 12.4479 18.5998 12.4617 18.5539C12.468 18.5327 12.4836 18.4833 12.5138 18.4249C12.5285 18.3965 12.6178 18.2164 12.8341 18.1039C12.9432 18.0578 13.1902 18.0195 13.3218 18.0329C13.4346 18.0639 13.6158 18.159 13.6843 18.2143C13.8074 18.3261 13.8587 18.449 13.8702 18.476C13.9035 18.5544 13.9152 18.6211 13.9168 18.6299C13.9241 18.6682 13.9265 18.6986 13.9268 18.7025C13.9277 18.7127 13.9282 18.7204 13.9284 18.7238C13.9286 18.7278 13.9287 18.7307 13.9288 18.7321C13.9289 18.7358 13.9288 18.7344 13.9286 18.7238C13.9284 18.7046 13.9281 18.6702 13.9281 18.6157H13.1781H12.4281C12.4281 18.6729 12.4284 18.7155 12.4288 18.7454C12.429 18.7593 12.4293 18.7754 12.4299 18.7905C12.4301 18.7959 12.4308 18.8127 12.4325 18.8326C12.4329 18.8378 12.4355 18.8692 12.4428 18.9081C12.4446 18.9172 12.4563 18.9841 12.4897 19.0627C12.5012 19.0897 12.5525 19.2127 12.6756 19.3245C12.7442 19.3798 12.9254 19.4749 13.0382 19.5059C13.1698 19.5193 13.4168 19.481 13.5259 19.4349C13.7423 19.3224 13.8316 19.1422 13.8463 19.1138C13.8765 19.0554 13.8921 19.0059 13.8985 18.9846C13.9123 18.9385 13.9185 18.9013 13.9204 18.8899C13.9251 18.8609 13.9271 18.8378 13.9276 18.8316C13.9291 18.8143 13.9298 18.7997 13.93 18.7942C13.9306 18.7801 13.931 18.7657 13.9312 18.7543C13.9317 18.7297 13.9319 18.6987 13.932 18.6651C13.932 18.5986 13.9311 18.5101 13.9278 18.4276C13.9262 18.3868 13.9238 18.3409 13.9199 18.2968C13.9175 18.2705 13.9102 18.1842 13.8846 18.0949L13.1638 18.3023ZM13.0094 18.0293L12.4602 18.5401C12.4522 18.5315 12.4463 18.5211 12.4431 18.5098L13.1638 18.3023L13.8846 18.0949C13.8227 17.8799 13.711 17.6824 13.5586 17.5185L13.0094 18.0293ZM11.3438 16.314L10.8057 16.8364L12.4713 18.5518L13.0094 18.0293L13.5475 17.5068L11.8819 15.7915L11.3438 16.314ZM11.1731 15.9656L10.4332 16.0882C10.4788 16.3633 10.6041 16.6191 10.7936 16.8237L11.3438 16.314L11.894 15.8043C11.904 15.815 11.9106 15.8285 11.913 15.843L11.1731 15.9656ZM11.2223 15.5807L10.5371 15.2757C10.4237 15.5305 10.3876 15.813 10.4332 16.0882L11.1731 15.9656L11.913 15.843C11.9154 15.8574 11.9135 15.8723 11.9075 15.8857L11.2223 15.5807ZM12.3783 12.987L11.6932 12.6817L10.5373 15.2754L11.2223 15.5807L11.9074 15.886L13.0633 13.2924L12.3783 12.987ZM12.6662 12.6723L12.3011 12.0172C12.032 12.1671 11.8187 12.4003 11.6933 12.6816L12.3783 12.987L13.0633 13.2925C13.0567 13.3073 13.0454 13.3195 13.0313 13.3274L12.6662 12.6723ZM13.0853 12.593L13.1859 11.8498C12.8807 11.8085 12.5702 11.8672 12.3011 12.0172L12.6662 12.6723L13.0313 13.3274C13.0171 13.3353 13.0008 13.3384 12.9847 13.3362L13.0853 12.593ZM15.0108 12.8529L15.1111 12.1096L13.1856 11.8498L13.0853 12.593L12.985 13.3363L14.9104 13.5962L15.0108 12.8529ZM15.274 12.9465L15.6644 12.3061C15.4959 12.2035 15.3081 12.1366 15.1126 12.1098L15.0108 12.8529L14.9089 13.5959C14.9 13.5947 14.8914 13.5917 14.8836 13.587L15.274 12.9465ZM20.5981 16.1423L20.9841 15.4993L15.66 12.3035L15.274 12.9465L14.888 13.5896L20.2121 16.7854L20.5981 16.1423ZM21.0011 6.00244H20.2511V17.9975H21.0011H21.7511V6.00244H21.0011ZM19.5011 19.4975V18.7475L4.49878 18.7475V19.4975V20.2475L19.5011 20.2475V19.4975ZM2.99878 17.9975H3.74878L3.74878 6.00244H2.99878H2.24878L2.24878 17.9975H2.99878ZM4.49878 4.50244V5.25244L19.5012 5.25244V4.50244V3.75244L4.49878 3.75244V4.50244ZM2.99878 6.00244H3.74878C3.74878 5.58823 4.08457 5.25244 4.49878 5.25244V4.50244V3.75244C3.25614 3.75244 2.24878 4.7598 2.24878 6.00244H2.99878ZM4.49878 19.4975V18.7475C4.08457 18.7475 3.74878 18.4118 3.74878 17.9975H2.99878H2.24878C2.24878 19.2402 3.25614 20.2475 4.49878 20.2475V19.4975ZM21.0011 17.9975H20.2511C20.2511 18.4118 19.9154 18.7475 19.5011 18.7475V19.4975V20.2475C20.7438 20.2475 21.7511 19.2402 21.7511 17.9975H21.0011ZM21.0011 6.00244H21.7511C21.7511 4.7598 20.7438 3.75244 19.5012 3.75244V4.50244V5.25244C19.9154 5.25244 20.2511 5.58823 20.2511 6.00244H21.0011Z" fill="black"/>
</svg>
