<svg width="24" height="24" viewBox="0 0 24 24" fill="none" xmlns="http://www.w3.org/2000/svg">
<path d="M3 19.5V4.5H19.5C19.8978 4.5 20.2794 4.65804 20.5607 4.93934C20.842 5.22064 21 5.60218 21 6V19.5H3Z" fill="black" fill-opacity="0.2"/>
<path d="M21 20.25C21.4142 20.25 21.75 19.9142 21.75 19.5C21.75 19.0858 21.4142 18.75 21 18.75V19.5V20.25ZM3 19.5H2.25C2.25 19.9142 2.58579 20.25 3 20.25V19.5ZM3.75 4.5C3.75 4.08579 3.41421 3.75 3 3.75C2.58579 3.75 2.25 4.08579 2.25 4.5H3H3.75ZM7.85081 16.8893C7.85081 17.3036 8.1866 17.6393 8.60081 17.6393C9.01503 17.6393 9.35081 17.3036 9.35081 16.8893H8.60081H7.85081ZM9.35081 6.00022C9.35081 5.58601 9.01503 5.25022 8.60081 5.25022C8.1866 5.25022 7.85081 5.58601 7.85081 6.00022H8.60081H9.35081ZM5.95711 6.25011C5.5429 6.25011 5.20711 6.58589 5.20711 7.00011C5.20711 7.41432 5.5429 7.75011 5.95711 7.75011V7.00011V6.25011ZM7.95711 7.75011C8.37133 7.75011 8.70711 7.41432 8.70711 7.00011C8.70711 6.58589 8.37133 6.25011 7.95711 6.25011V7.00011V7.75011ZM8.60091 14.2501C8.1867 14.2501 7.85091 14.5859 7.85091 15.0001C7.85091 15.4143 8.1867 15.7501 8.60091 15.7501V15.0001V14.2501ZM10.6009 15.7501C11.0151 15.7501 11.3509 15.4143 11.3509 15.0001C11.3509 14.5859 11.0151 14.2501 10.6009 14.2501V15.0001V15.7501ZM18.2428 6.00021C18.2428 5.58599 17.907 5.25021 17.4928 5.25021C17.0786 5.25021 16.7428 5.58599 16.7428 6.00021H17.4928H18.2428ZM16.7428 15.1456C16.7428 15.5598 17.0786 15.8956 17.4928 15.8956C17.907 15.8956 18.2428 15.5598 18.2428 15.1456H17.4928H16.7428ZM15.493 11.75C15.0788 11.75 14.743 12.0858 14.743 12.5C14.743 12.9142 15.0788 13.25 15.493 13.25V12.5V11.75ZM17.493 7.74999C17.0788 7.74999 16.743 8.08578 16.743 8.49999C16.743 8.91421 17.0788 9.24999 17.493 9.24999V8.49999V7.74999ZM19.493 9.24999C19.9072 9.24999 20.243 8.91421 20.243 8.49999C20.243 8.08578 19.9072 7.74999 19.493 7.74999V8.49999V9.24999ZM21 19.5V18.75H3V19.5V20.25H21V19.5ZM3 19.5H3.75V4.5H3H2.25V19.5H3ZM8.60081 16.8893H9.35081L9.35081 6.00022H8.60081H7.85081L7.85081 16.8893H8.60081ZM5.95711 7.00011V7.75011H7.95711V7.00011V6.25011H5.95711V7.00011ZM8.60091 15.0001V15.7501H10.6009V15.0001V14.2501H8.60091V15.0001ZM17.4928 6.00021H16.7428V15.1456H17.4928H18.2428V6.00021H17.4928ZM15.493 12.5V13.25H17.493V12.5V11.75H15.493V12.5ZM17.493 8.49999V9.24999L19.493 9.24999V8.49999V7.74999L17.493 7.74999V8.49999Z" fill="black"/>
</svg>
