<svg width="24" height="24" viewBox="0 0 24 24" fill="none" xmlns="http://www.w3.org/2000/svg">
<path d="M4.75 19.4248V4.5752C4.75 4.29905 4.97386 4.0752 5.25 4.0752C5.52614 4.0752 5.75 4.29905 5.75 4.5752V19.4248C5.75 19.7009 5.52614 19.9248 5.25 19.9248C4.97386 19.9248 4.75 19.7009 4.75 19.4248Z" fill="black"/>
<path fill-rule="evenodd" clip-rule="evenodd" d="M12.5433 6.4248L12.5433 7.88477H16.404V6.4248H12.5433ZM17.4036 8.38477L17.404 5.9248C17.404 5.64878 17.18 5.42499 16.904 5.4248L12.0433 5.4248C11.7673 5.42499 11.5433 5.64878 11.5433 5.9248L11.5433 8.38477C11.5433 8.66079 11.7673 8.88458 12.0433 8.88477H16.9036C17.1796 8.88458 17.4036 8.66079 17.4036 8.38477Z" fill="black"/>
<path d="M7.30225 10.77L7.30225 13.23C7.30225 13.5061 7.5261 13.73 7.80225 13.73L14.6646 13.7302C14.9407 13.7302 15.1645 13.5063 15.1646 13.2302V10.77C15.1645 10.4939 14.9407 10.27 14.6646 10.27H7.80225C7.52613 10.27 7.30229 10.4939 7.30225 10.77ZM14.1646 11.27V12.7302H8.30225V11.27H14.1646Z" fill="black"/>
<path d="M20.5957 15.6022C20.5957 15.3261 20.3718 15.1022 20.0957 15.1022L9.2334 15.1022C8.95726 15.1022 8.7334 15.3261 8.7334 15.6022L8.7334 18.0622C8.73344 18.3383 8.95728 18.5622 9.2334 18.5622H20.0957C20.3718 18.5622 20.5957 18.3383 20.5957 18.0622V15.6022ZM19.5957 17.562L9.7334 17.562L9.7334 16.102L19.5957 16.1022V17.562Z" fill="black"/>
<path fill-rule="evenodd" clip-rule="evenodd" d="M12.5435 7.88477L12.5435 6.4248H16.4042V7.88477H12.5435Z" fill="black" fill-opacity="0.2"/>
</svg>
