<svg viewBox="0 0 24 24" fill="none" xmlns="http://www.w3.org/2000/svg" width="24" height="24">
<path d="M15.033 12.212L15.033 3.693 18.687 3.693 18.687 12.212 15.033 12.212Z" fill="black" fill-opacity="0.2"/>
<path d="M5.325 15.751L5.325 3.693 8.978 3.693 8.978 15.751 5.325 15.751Z" fill="black" fill-opacity="0.2"/>
<path d="M10.179 7.349L10.179 3.693 13.833 3.693 13.833 7.349 10.179 7.349Z" fill="black" fill-opacity="0.2"/>
<path fill-rule="evenodd" clip-rule="evenodd" d="M13.833 3.694L13.833 7.35 10.179 7.35 10.179 3.694 13.833 3.694ZM9.576 2.491L4.716 2.49C4.384 2.49 4.116 2.759 4.116 3.09L4.116 20.311 3.096 20.311C2.765 20.311 2.496 20.58 2.496 20.911 2.496 21.242 2.765 21.511 3.096 21.511L4.716 21.511 9.576 21.511 14.436 21.511 19.296 21.511 20.916 21.511C21.247 21.511 21.516 21.242 21.516 20.911 21.516 20.58 21.247 20.311 20.916 20.311L19.896 20.311 19.896 3.09C19.895 2.759 19.627 2.49 19.296 2.49L14.436 2.491 9.576 2.491ZM5.325 3.694L5.325 15.752 8.978 15.752 8.978 3.694 5.325 3.694ZM15.033 3.694L15.033 12.212 18.687 12.212 18.687 3.694 15.033 3.694ZM13.836 8.551L10.176 8.551 10.176 20.311 13.836 20.311 13.836 8.551ZM15.036 20.311L18.696 20.311 18.696 13.41 15.036 13.41 15.036 20.311ZM5.318 16.955L8.976 16.955 8.976 20.311 5.316 20.311 5.318 16.955Z" fill="black"/>
</svg>