<svg width="24" height="24" viewBox="0 0 24 24" fill="none" xmlns="http://www.w3.org/2000/svg">
<path d="M19.5 5.25H10.5C9.67157 5.25 9 5.92157 9 6.75V8.25C9 9.07843 9.67157 9.75 10.5 9.75H19.5C20.3284 9.75 21 9.07843 21 8.25V6.75C21 5.92157 20.3284 5.25 19.5 5.25Z" fill="black" fill-opacity="0.2"/>
<path d="M19.5 9.75L14.5 9.74976C13.6716 9.74976 13 10.4213 13 11.2498V12.7498C13 13.5782 13.6716 14.2498 14.5 14.2498H19.5C20.3284 14.2498 21 13.5782 21 12.7498V11.2498C21 10.4213 20.3284 9.75 19.5 9.75Z" fill="black" fill-opacity="0.2"/>
<path d="M19.5 14.2498L10.5 14.25C9.67157 14.25 9 14.9216 9 15.75V17.25C9 18.0784 9.67157 18.75 10.5 18.75H19.5C20.3284 18.75 21 18.0784 21 17.25V15.75C21 14.9216 20.3284 14.2498 19.5 14.2498Z" fill="black" fill-opacity="0.2"/>
<path d="M4.5 20.25V3.75M9 9.75V5.25M9 18.75V14.25M13 14.25V9.75M4.5 5.25H21V9.75M21 9.75H4.5M21 9.75V14.25M21 14.25H4.5M21 14.25V18.75H4.5" stroke="black" stroke-width="1.5" stroke-linecap="round" stroke-linejoin="round"/>
</svg>
