<svg width="24" height="24" viewBox="0 0 24 24" fill="none" xmlns="http://www.w3.org/2000/svg">
<path d="M3 19.5V4.5H19.5C19.8978 4.5 20.2794 4.65804 20.5607 4.93934C20.842 5.22064 21 5.60218 21 6V19.5H3Z" fill="black" fill-opacity="0.2"/>
<path d="M21 19.5H3V15.0001M3 15.0001V6M3 15.0001L6.78951 11.6843M3 6V4.5M3 6L6.78951 11.6843M6.78951 11.6843L8.36546 10.3053M6.78951 11.6843L8.52783 14.2917M11.6923 11.7693L14.3177 13.7384M11.6923 11.7693L9.67038 10.2529M11.6923 11.7693L13.4615 9.64617M11.6923 11.7693L9.54188 14.3498M14.3177 13.7384L15 14.2501L15.6342 13.6951M14.3177 13.7384C14.2123 13.8792 14.1499 14.054 14.1499 14.2434C14.1499 14.7092 14.5275 15.0868 14.9933 15.0868C15.4591 15.0868 15.8367 14.7092 15.8367 14.2434C15.8367 14.0341 15.7605 13.8426 15.6342 13.6951M14.3177 13.7384C14.4716 13.533 14.7169 13.4 14.9933 13.4C15.2498 13.4 15.4795 13.5145 15.6342 13.6951M15.6342 13.6951L17.3301 12.2112M17.3301 12.2112L14.6023 9.58081M17.3301 12.2112L19.5181 10.2968M17.3301 12.2112L19.5458 14.3477M9.67038 10.2529L9 9.75008L8.36546 10.3053M9.67038 10.2529C9.77677 10.1117 9.83984 9.93609 9.83984 9.74573C9.83984 9.27993 9.46223 8.90234 8.99646 8.90234C8.53066 8.90234 8.15308 9.27993 8.15308 9.74573C8.15308 9.96045 8.23332 10.1564 8.36546 10.3053M9.67038 10.2529C9.51646 10.4571 9.27187 10.5891 8.99646 10.5891C8.74539 10.5891 8.51995 10.4794 8.36546 10.3053M13.4615 9.64617L14 9L14.6023 9.58081M13.4615 9.64617C13.6071 9.76574 13.7934 9.83752 13.9965 9.83752C14.2342 9.83752 14.449 9.73911 14.6023 9.58081M13.4615 9.64617C13.2732 9.4915 13.1531 9.25684 13.1531 8.99414C13.1531 8.52835 13.5307 8.15076 13.9965 8.15076C14.4622 8.15076 14.8398 8.52835 14.8398 8.99414C14.8398 9.22214 14.7493 9.42901 14.6023 9.58081M9.54188 14.3498L9 15L8.52783 14.2917M9.54188 14.3498C9.39483 14.225 9.20443 14.1497 8.99646 14.1497C8.82304 14.1497 8.66186 14.202 8.52783 14.2917M9.54188 14.3498C9.72416 14.5044 9.83984 14.7352 9.83984 14.993C9.83984 15.4588 9.46223 15.8364 8.99646 15.8364C8.53066 15.8364 8.15308 15.4588 8.15308 14.993C8.15308 14.7006 8.30185 14.443 8.52783 14.2917M20.1466 9.74683L19.5181 10.2968M19.5181 10.2968C19.6728 10.4758 19.9014 10.5891 20.1566 10.5891C20.6224 10.5891 21 10.2115 21 9.74573C21 9.27993 20.6224 8.90234 20.1566 8.90234C19.6908 8.90234 19.3132 9.27993 19.3132 9.74573C19.3132 9.95636 19.3904 10.149 19.5181 10.2968ZM19.5458 14.3477L20.1517 14.932M19.5458 14.3477C19.3939 14.5003 19.3 14.7106 19.3 14.9429C19.3 15.4086 19.6776 15.7863 20.1434 15.7863C20.6092 15.7863 20.9868 15.4086 20.9868 14.9429C20.9868 14.4771 20.6092 14.0995 20.1434 14.0995C19.9099 14.0995 19.6985 14.1944 19.5458 14.3477Z" stroke="black" stroke-width="1.5" stroke-miterlimit="10" stroke-linecap="round" stroke-linejoin="round"/>
</svg>
