<svg viewBox="0 0 24 24" fill="none" xmlns="http://www.w3.org/2000/svg" width="24" height="24">
<path opacity="0.2" d="M2.28 20.1V3.9H20.1C20.529 3.9 20.942 4.071 21.245 4.374 21.549 4.678 21.72 5.09 21.72 5.52V20.1H2.28Z" fill="black"/>
<path fill-rule="evenodd" clip-rule="evenodd" d="M8.767 9.411L14.382 15.026C14.346 15.116 14.319 15.211 14.3 15.309 12.211 15.798 10.324 16.201 8.883 16.492 8.327 16.604 7.837 16.701 7.429 16.779 7.157 16.378 6.698 16.113 6.176 16.113 5.342 16.113 4.665 16.79 4.665 17.625 4.665 18.459 5.342 19.136 6.176 19.136 6.896 19.135 7.498 18.632 7.65 17.958 8.063 17.878 8.558 17.781 9.12 17.668 10.569 17.375 12.468 16.974 14.57 16.481 14.845 16.854 15.288 17.095 15.787 17.095 16.621 17.095 17.297 16.419 17.298 15.585 17.298 14.75 16.621 14.073 15.787 14.073 15.591 14.073 15.403 14.11 15.232 14.178L9.62 8.567C9.658 8.472 9.687 8.373 9.705 8.27 11.667 7.812 13.528 7.415 14.983 7.12 15.591 6.997 16.128 6.891 16.571 6.805 16.842 7.21 17.304 7.477 17.828 7.477 18.663 7.476 19.339 6.8 19.339 5.966 19.339 5.132 18.663 4.455 17.828 4.454 17.111 4.454 16.51 4.954 16.355 5.625 15.906 5.712 15.362 5.82 14.744 5.945 13.281 6.242 11.407 6.639 9.429 7.1 9.154 6.731 8.714 6.492 8.218 6.492 7.383 6.492 6.706 7.169 6.706 8.004 6.706 8.838 7.383 9.514 8.218 9.514 8.412 9.514 8.597 9.478 8.767 9.411ZM17.777 5.658C17.794 5.656 17.811 5.654 17.828 5.654 18 5.655 18.139 5.794 18.139 5.966 18.139 6.138 18 6.276 17.828 6.277 17.657 6.277 17.517 6.138 17.517 5.966 17.517 5.811 17.63 5.683 17.777 5.658ZM8.218 7.692C8.389 7.692 8.528 7.832 8.528 8.004 8.528 8.175 8.389 8.314 8.218 8.314 8.046 8.314 7.906 8.175 7.906 8.004 7.906 7.832 8.046 7.692 8.218 7.692ZM16.098 15.585C16.098 15.413 15.959 15.273 15.787 15.273 15.615 15.273 15.475 15.413 15.475 15.585 15.475 15.756 15.615 15.895 15.787 15.895 15.958 15.895 16.097 15.756 16.098 15.585ZM6.487 17.625C6.487 17.453 6.348 17.313 6.176 17.313 6.004 17.313 5.865 17.453 5.865 17.625 5.865 17.797 6.005 17.936 6.176 17.936 6.348 17.935 6.487 17.796 6.487 17.625Z" fill="black"/>
<path d="M1.155 3.9C1.155 3.569 1.424 3.3 1.755 3.3 2.086 3.3 2.355 3.569 2.355 3.9V19.5H21.195C21.526 19.5 21.795 19.769 21.795 20.1 21.795 20.431 21.526 20.7 21.195 20.7H1.755C1.424 20.7 1.155 20.431 1.155 20.1V3.9Z" fill="black"/>
</svg>