<svg width="24" height="24" viewBox="0 0 24 24" fill="none" xmlns="http://www.w3.org/2000/svg">
<path d="M3 19.5V4.5H19.5C19.8978 4.5 20.2794 4.65804 20.5607 4.93934C20.842 5.22064 21 5.60218 21 6V19.5H3Z" fill="black" fill-opacity="0.2"/>
<path d="M15 11.9722L14.55 12.5722C14.8335 12.7848 15.2272 12.77 15.4939 12.5366L15 11.9722ZM8.99999 7.47217L9.44999 6.87217C9.16648 6.65953 8.77282 6.67437 8.50612 6.90773L8.99999 7.47217ZM2.50612 12.1577C2.19439 12.4305 2.16281 12.9043 2.43557 13.216C2.70833 13.5278 3.18215 13.5594 3.49388 13.2866L3 12.7222L2.50612 12.1577ZM20.6367 8.0366C20.9484 7.76384 20.98 7.29002 20.7073 6.97829C20.4345 6.66656 19.9607 6.63497 19.649 6.90773L20.1428 7.47217L20.6367 8.0366ZM15 17.248L14.642 17.907C14.9363 18.0669 15.3009 18.0122 15.5354 17.7731L15 17.248ZM8.99999 13.9887L9.35799 13.3297C9.11894 13.1998 8.82831 13.2096 8.59852 13.3552L8.99999 13.9887ZM2.59852 17.1577C2.24865 17.3794 2.14478 17.8428 2.3665 18.1927C2.58823 18.5425 3.05161 18.6464 3.40148 18.4247L3 17.7912L2.59852 17.1577ZM20.6754 12.5327C20.9655 12.2369 20.9609 11.7621 20.6652 11.472C20.3695 11.182 19.8946 11.1866 19.6046 11.4823L20.14 12.0075L20.6754 12.5327ZM21 20.25C21.4142 20.25 21.75 19.9142 21.75 19.5C21.75 19.0858 21.4142 18.75 21 18.75V19.5V20.25ZM3 19.5H2.25C2.25 19.9142 2.58579 20.25 3 20.25V19.5ZM3.75 4.5C3.75 4.08579 3.41421 3.75 3 3.75C2.58579 3.75 2.25 4.08579 2.25 4.5H3H3.75ZM15 11.9722L15.45 11.3722L9.44999 6.87217L8.99999 7.47217L8.54999 8.07217L14.55 12.5722L15 11.9722ZM8.99999 7.47217L8.50612 6.90773L2.50612 12.1577L3 12.7222L3.49388 13.2866L9.49387 8.0366L8.99999 7.47217ZM20.1428 7.47217L19.649 6.90773L14.5061 11.4077L15 11.9722L15.4939 12.5366L20.6367 8.0366L20.1428 7.47217ZM15 17.248L15.358 16.5889L9.35799 13.3297L8.99999 13.9887L8.64199 14.6477L14.642 17.907L15 17.248ZM8.99999 13.9887L8.59852 13.3552L2.59852 17.1577L3 17.7912L3.40148 18.4247L9.40147 14.6222L8.99999 13.9887ZM20.14 12.0075L19.6046 11.4823L14.4645 16.7228L15 17.248L15.5354 17.7731L20.6754 12.5327L20.14 12.0075ZM21 19.5V18.75H3V19.5V20.25H21V19.5ZM3 19.5H3.75V4.5H3H2.25V19.5H3ZM9.84244 7.49375H9.09244C9.09244 7.54553 9.05047 7.5875 8.99869 7.5875V8.3375V9.0875C9.8789 9.0875 10.5924 8.37395 10.5924 7.49375H9.84244ZM8.99869 8.3375V7.5875C8.94692 7.5875 8.90494 7.54553 8.90494 7.49375H8.15494H7.40494C7.40494 8.37395 8.11849 9.0875 8.99869 9.0875V8.3375ZM8.15494 7.49375H8.90494C8.90494 7.44197 8.94692 7.4 8.99869 7.4V6.65V5.9C8.11849 5.9 7.40494 6.61355 7.40494 7.49375H8.15494ZM8.99869 6.65V7.4C9.05047 7.4 9.09244 7.44197 9.09244 7.49375H9.84244H10.5924C10.5924 6.61355 9.8789 5.9 8.99869 5.9V6.65ZM15.8375 11.9637H15.0875C15.0875 12.0155 15.0455 12.0575 14.9937 12.0575V12.8075V13.5575C15.874 13.5575 16.5875 12.844 16.5875 11.9637H15.8375ZM14.9937 12.8075V12.0575C14.942 12.0575 14.9 12.0155 14.9 11.9637H14.15H13.4C13.4 12.844 14.1135 13.5575 14.9937 13.5575V12.8075ZM14.15 11.9637H14.9C14.9 11.912 14.942 11.87 14.9937 11.87V11.12V10.37C14.1135 10.37 13.4 11.0835 13.4 11.9637H14.15ZM14.9937 11.12V11.87C15.0455 11.87 15.0875 11.912 15.0875 11.9637H15.8375H16.5875C16.5875 11.0835 15.874 10.37 14.9937 10.37V11.12ZM15.8453 17.1637H15.0953C15.0953 17.2155 15.0533 17.2575 15.0016 17.2575V18.0075V18.7575C15.8818 18.7575 16.5953 18.044 16.5953 17.1637H15.8453ZM15.0016 18.0075V17.2575C14.9498 17.2575 14.9078 17.2155 14.9078 17.1637H14.1578H13.4078C13.4078 18.044 14.1214 18.7575 15.0016 18.7575V18.0075ZM14.1578 17.1637H14.9078C14.9078 17.112 14.9498 17.07 15.0016 17.07V16.32V15.57C14.1214 15.57 13.4078 16.2835 13.4078 17.1637H14.1578ZM15.0016 16.32V17.07C15.0533 17.07 15.0953 17.112 15.0953 17.1637H15.8453H16.5953C16.5953 16.2835 15.8818 15.57 15.0016 15.57V16.32ZM9.8375 13.9937H9.0875C9.0875 14.0455 9.04553 14.0875 8.99375 14.0875V14.8375V15.5875C9.87395 15.5875 10.5875 14.874 10.5875 13.9937H9.8375ZM8.99375 14.8375V14.0875C8.94197 14.0875 8.9 14.0455 8.9 13.9937H8.15H7.4C7.4 14.874 8.11355 15.5875 8.99375 15.5875V14.8375ZM8.15 13.9937H8.9C8.9 13.942 8.94197 13.9 8.99375 13.9V13.15V12.4C8.11355 12.4 7.4 13.1135 7.4 13.9937H8.15ZM8.99375 13.15V13.9C9.04553 13.9 9.0875 13.942 9.0875 13.9937H9.8375H10.5875C10.5875 13.1135 9.87395 12.4 8.99375 12.4V13.15ZM21 7.49365H20.25C20.25 7.54543 20.208 7.5874 20.1562 7.5874V8.3374V9.0874C21.0365 9.0874 21.75 8.37385 21.75 7.49365H21ZM20.1562 8.3374V7.5874C20.1045 7.5874 20.0625 7.54543 20.0625 7.49365H19.3125H18.5625C18.5625 8.37386 19.276 9.0874 20.1562 9.0874V8.3374ZM19.3125 7.49365H20.0625C20.0625 7.44188 20.1045 7.3999 20.1562 7.3999V6.6499V5.8999C19.276 5.8999 18.5625 6.61345 18.5625 7.49365H19.3125ZM20.1562 6.6499V7.3999C20.208 7.3999 20.25 7.44187 20.25 7.49365H21H21.75C21.75 6.61345 21.0365 5.8999 20.1562 5.8999V6.6499ZM21 12H20.25C20.25 12.0518 20.208 12.0937 20.1562 12.0937V12.8437V13.5937C21.0365 13.5937 21.75 12.8802 21.75 12H21ZM20.1562 12.8437V12.0937C20.1045 12.0937 20.0625 12.0518 20.0625 12H19.3125H18.5625C18.5625 12.8802 19.276 13.5937 20.1562 13.5937V12.8437ZM19.3125 12H20.0625C20.0625 11.9482 20.1045 11.9063 20.1562 11.9063V11.1563V10.4063C19.276 10.4063 18.5625 11.1198 18.5625 12H19.3125ZM20.1562 11.1563V11.9063C20.208 11.9063 20.25 11.9482 20.25 12H21H21.75C21.75 11.1198 21.0365 10.4063 20.1562 10.4063V11.1563Z" fill="black"/>
</svg>
