<svg width="24" height="24" viewBox="0 0 24 24" fill="none" xmlns="http://www.w3.org/2000/svg">
<path d="M12 21C14.3869 21 16.6761 20.0518 18.364 18.364C20.0518 16.6761 21 14.3869 21 12C21 9.61305 20.0518 7.32387 18.364 5.63604C16.6761 3.94821 14.3869 3 12 3V8.25C12.9946 8.25 13.9484 8.64509 14.6517 9.34835C15.3549 10.0516 15.75 11.0054 15.75 12C15.75 12.9946 15.3549 13.9484 14.6517 14.6517C13.9484 15.3549 12.9946 15.75 12 15.75V21Z" fill="black" fill-opacity="0.2"/>
<path d="M12.0001 15.751V21.001M8.37668 12.9722L3.30481 14.3307M4.20481 7.50098C3.21423 9.21671 2.81745 11.2114 3.07601 13.1756C3.33458 15.1398 4.23403 16.9638 5.63488 18.3647C7.03573 19.7657 8.8597 20.6652 10.8239 20.9239C12.7881 21.1826 14.7828 20.786 16.4986 19.7955C18.2144 18.805 19.5554 17.2761 20.3137 15.4458C21.072 13.6155 21.2052 11.5861 20.6926 9.67239C20.18 7.75869 19.0503 6.06759 17.4786 4.86137C15.907 3.65515 13.9813 3.00122 12.0001 3.00098V8.25098C12.8256 8.25116 13.6279 8.52371 14.2827 9.02635C14.9375 9.52899 15.4082 10.2336 15.6217 11.031C15.8352 11.8284 15.7796 12.6739 15.4636 13.4365C15.1476 14.1991 14.5888 14.8361 13.8739 15.2488C13.159 15.6614 12.3279 15.8267 11.5095 15.7189C10.6911 15.611 9.93114 15.2362 9.34748 14.6525C8.76382 14.0688 8.38907 13.3088 8.28135 12.4903C8.17362 11.6719 8.33895 10.8409 8.75168 10.126L4.20481 7.50098Z" stroke="black" stroke-width="1.5" stroke-linecap="round" stroke-linejoin="round"/>
</svg>
