<svg viewBox="0 0 24 24" fill="none" xmlns="http://www.w3.org/2000/svg" width="24" height="24">
<path opacity="0.2" d="M1.755 20.1V3.9H19.575C20.004 3.9 20.417 4.071 20.72 4.374 21.024 4.678 21.195 5.09 21.195 5.52V20.1H1.755Z" fill="black"/>
<path d="M1.155 3.9C1.155 3.569 1.424 3.3 1.755 3.3 2.086 3.3 2.355 3.569 2.355 3.9V19.5H21.195C21.526 19.5 21.795 19.769 21.795 20.1 21.795 20.431 21.526 20.7 21.195 20.7H1.755C1.424 20.7 1.155 20.431 1.155 20.1V3.9Z" fill="black"/>
<path d="M20.8 9.909C21.05 9.691 21.428 9.716 21.646 9.965 21.864 10.215 21.839 10.593 21.59 10.811L15.11 16.482C14.896 16.668 14.582 16.68 14.355 16.51L8.263 11.942 2.15 17.292C1.901 17.51 1.522 17.485 1.304 17.235 1.085 16.986 1.111 16.606 1.36 16.388L7.839 10.719 7.924 10.657C8.13 10.531 8.397 10.542 8.595 10.691L14.685 15.259 20.8 9.909Z" fill="black"/>
<path d="M14.726 5.77C14.523 5.766 14.33 5.867 14.217 6.036L8.192 15.017 2.222 7.584C2.015 7.326 1.638 7.285 1.38 7.493 1.122 7.7 1.08 8.077 1.287 8.335L7.768 16.406C7.887 16.555 8.071 16.638 8.261 16.63 8.452 16.622 8.627 16.522 8.733 16.364L14.696 7.476 20.685 17.156C20.86 17.437 21.229 17.525 21.51 17.351 21.792 17.176 21.879 16.806 21.705 16.524L15.226 6.055C15.118 5.882 14.93 5.774 14.726 5.77Z" fill="black"/>
</svg>