<svg xmlns="http://www.w3.org/2000/svg" width="24" height="24" fill="currentColor" viewBox="0 0 24 24"><path d="M21.72 5.52v14.58H2.28V3.9h17.82A1.62 1.62 0 0 1 21.72 5.52" opacity=".2"/><path d="M22.53 20.1a0.81 0.81 0 0 1-0.81 0.81H2.28a0.81 0.81 0 0 1-0.81-0.81V3.9a0.81 0.81 0 0 1 1.62 0v15.39H21.72a0.81 0.81 0 0 1 0.81 0.81m-10.126-4.86a1.216 1.216 0 1 0-1.215-1.214 1.216 1.216 0 0 0 1.215 1.214m-2.43-5.67A1.216 1.216 0 1 0 8.76 8.356a1.216 1.216 0 0 0 1.214 1.215z m-3.24 7.29a1.216 1.216 0 1 0-1.215-1.214 1.216 1.216 0 0 0 1.215 1.214m9.72-4.86a1.216 1.216 0 1 0-1.214-1.214A1.216 1.216 0 0 0 16.454 12m2.43-4.05a1.216 1.216 0 1 0-1.214-1.216 1.216 1.216 0 0 0 1.214 1.216m-2.025 7.696a1.216 1.216 0 1 0 1.214-1.215 1.216 1.216 0 0 0-1.214 1.215"/></svg>