<svg width="24" height="24" viewBox="0 0 24 24" fill="none" xmlns="http://www.w3.org/2000/svg">
<path d="M21 8.10693V15.233V17.0884V19.4998H3.00009V17.9309L8.42875 10.8041L15.1203 15.5951C15.9222 15.9457 20.3544 9.00333 21 8.10693Z" fill="black" fill-opacity="0.2"/>
<path d="M21 19.5V20.25C21.4142 20.25 21.75 19.9142 21.75 19.5H21ZM3 19.5H2.25C2.25 19.9142 2.58579 20.25 3 20.25V19.5ZM3.75 4.5C3.75 4.08579 3.41421 3.75 3 3.75C2.58579 3.75 2.25 4.08579 2.25 4.5H3H3.75ZM21 4.5H21.75C21.75 4.21696 21.5907 3.95803 21.338 3.83048C21.0853 3.70292 20.7824 3.72848 20.5546 3.89655L21 4.5ZM15.0632 8.88143L14.6778 9.52487C14.9374 9.68035 15.2651 9.66458 15.5085 9.48489L15.0632 8.88143ZM9.00006 5.25024L9.38541 4.6068C9.10623 4.4396 8.75109 4.47151 8.50618 4.6858L9.00006 5.25024ZM2.50624 9.93575C2.19452 10.2085 2.16293 10.6823 2.43569 10.9941C2.70845 11.3058 3.18227 11.3374 3.494 11.0646L3.00012 10.5002L2.50624 9.93575ZM21.5732 8.01573C21.8199 7.68297 21.7501 7.21325 21.4174 6.96658C21.0846 6.71991 20.6149 6.7897 20.3682 7.12246L20.9707 7.56909L21.5732 8.01573ZM15.1529 15.4173L14.6855 16.0039C14.8447 16.1306 15.0484 16.1873 15.2502 16.1609C15.4519 16.1346 15.6343 16.0274 15.7554 15.8639L15.1529 15.4173ZM8.54839 10.155L9.01576 9.5684C8.85927 9.44371 8.65944 9.38672 8.46072 9.41011C8.262 9.4335 8.08087 9.53533 7.9576 9.69294L8.54839 10.155ZM2.40921 16.7875C2.15404 17.1138 2.21169 17.5852 2.53797 17.8403C2.86425 18.0955 3.33561 18.0379 3.59079 17.7116L3 17.2496L2.40921 16.7875ZM21 19.5V18.75H3V19.5V20.25H21V19.5ZM3 19.5H3.75V4.5H3H2.25V19.5H3ZM21 19.5H21.75V4.5H21H20.25V19.5H21ZM21 6.72656H20.25V11.1484H21H21.75V6.72656H21ZM21 4.5L20.5546 3.89655L14.6178 8.27798L15.0632 8.88143L15.5085 9.48489L21.4454 5.10345L21 4.5ZM15.0632 8.88143L15.4485 8.238L9.38541 4.6068L9.00006 5.25024L8.61471 5.89367L14.6778 9.52487L15.0632 8.88143ZM9.00006 5.25024L8.50618 4.6858L2.50624 9.93575L3.00012 10.5002L3.494 11.0646L9.49394 5.81467L9.00006 5.25024ZM20.9707 7.56909L20.3682 7.12246L14.5504 14.9706L15.1529 15.4173L15.7554 15.8639L21.5732 8.01573L20.9707 7.56909ZM15.1529 15.4173L15.6203 14.8307L9.01576 9.5684L8.54839 10.155L8.08102 10.7415L14.6855 16.0039L15.1529 15.4173ZM8.54839 10.155L7.9576 9.69294L2.40921 16.7875L3 17.2496L3.59079 17.7116L9.13918 10.617L8.54839 10.155Z" fill="black"/>
</svg>
