<svg viewBox="0 0 24 24" fill="none" xmlns="http://www.w3.org/2000/svg" width="24" height="24">
<path fill-rule="evenodd" clip-rule="evenodd" d="M22.251 20.281C22.254 20.277 22.256 20.272 22.259 20.268 22.262 20.262 22.262 20.264 22.265 20.256 22.273 20.241 22.285 20.215 22.291 20.2 22.29 20.203 22.292 20.198 22.291 20.2 22.246 20.461 22.045 20.669 21.78 20.697 21.76 20.699 21.74 20.7 21.72 20.7H2.28C1.949 20.7 1.68 20.431 1.68 20.1V3.9C1.68 3.569 1.949 3.3 2.28 3.3 2.611 3.3 2.88 3.569 2.88 3.9L2.877 7.448 6.603 12.262 7.886 10.914 7.966 10.844C8.163 10.699 8.434 10.687 8.646 10.824L11.123 12.424 14.249 8.854C14.361 8.726 14.522 8.652 14.692 8.65 14.862 8.648 15.026 8.717 15.141 8.842L17.33 11.21 21.147 4.452 21.203 4.353C21.366 4.064 21.733 3.963 22.021 4.125 22.077 4.157 22.127 4.197 22.168 4.242 22.221 4.3 22.262 4.367 22.289 4.439 22.299 4.47 22.307 4.501 22.312 4.533 22.317 4.565 22.32 4.598 22.32 4.631V4.735 16.834 16.849 19.986C22.32 20.005 22.319 20.024 22.317 20.042L22.314 20.069C22.313 20.073 22.315 20.08 22.317 20.086 22.319 20.091 22.32 20.096 22.32 20.1L22.307 20.109C22.272 20.265 22.173 20.402 22.041 20.489 21.996 20.517 21.942 20.544 21.891 20.561 21.897 20.559 21.905 20.556 21.913 20.553L21.93 20.547 21.948 20.54C21.965 20.532 21.986 20.521 22.003 20.511 21.991 20.518 21.973 20.528 21.961 20.534 21.972 20.528 21.992 20.517 22.003 20.511L21.984 20.522C21.976 20.527 21.969 20.53 21.961 20.534 21.974 20.528 21.993 20.517 22.003 20.511 22.019 20.502 22.027 20.498 22.041 20.489 22.056 20.479 22.071 20.469 22.086 20.458 22.107 20.443 22.135 20.421 22.153 20.402 22.165 20.391 22.176 20.378 22.188 20.365 22.211 20.338 22.234 20.308 22.251 20.281ZM22.291 20.2L22.3 20.178C22.298 20.184 22.293 20.195 22.291 20.2ZM21.191 20.262L21.197 20.274C21.205 20.287 21.217 20.306 21.226 20.318 21.241 20.34 21.262 20.363 21.279 20.379 21.281 20.382 21.276 20.377 21.279 20.379L21.29 20.39C21.285 20.386 21.274 20.374 21.27 20.369 21.239 20.335 21.213 20.3 21.191 20.262ZM21.469 20.526C21.414 20.496 21.352 20.451 21.306 20.406 21.307 20.408 21.304 20.404 21.306 20.406 21.307 20.409 21.312 20.419 21.314 20.421L21.327 20.433C21.325 20.431 21.316 20.422 21.314 20.421 21.322 20.428 21.333 20.438 21.342 20.445 21.345 20.448 21.352 20.454 21.356 20.457 21.368 20.466 21.38 20.475 21.393 20.483 21.398 20.487 21.406 20.492 21.412 20.496 21.417 20.499 21.428 20.505 21.433 20.508 21.444 20.514 21.458 20.521 21.469 20.526 21.477 20.53 21.494 20.539 21.498 20.541 21.502 20.543 21.505 20.544 21.509 20.545 21.512 20.546 21.507 20.544 21.509 20.545 21.498 20.541 21.495 20.539 21.485 20.534L21.469 20.526ZM21.778 20.584L21.734 20.585 21.748 20.585C21.745 20.585 21.739 20.584 21.734 20.585 21.731 20.585 21.736 20.585 21.734 20.585 21.741 20.584 21.744 20.585 21.748 20.585L21.778 20.584ZM21.72 20.586C21.72 20.586 21.73 20.585 21.734 20.585ZM21.12 15.309V15.176 6.941L20.959 7.226 18.186 12.136 17.567 13.233 15.901 16.183C15.819 16.327 15.682 16.43 15.522 16.47 15.362 16.509 15.191 16.481 15.052 16.391L11.342 13.994 10.323 13.336 8.412 12.101 7.345 13.22 6.943 13.642 6.507 14.1 6.115 14.513 2.88 17.911V19.5L21.12 19.5V17.077 17.056 15.309ZM14.877 14.849L15.168 15.037 15.216 14.952 16.711 12.306 14.713 10.146 12.141 13.082 14.877 14.849ZM5.765 13.141L2.88 16.171V9.412L5.765 13.141Z" fill="black"/>
<path fill-rule="evenodd" clip-rule="evenodd" d="M21.12 15.176V15.308 17.056 17.077 19.5L2.88 19.5V17.911L6.115 14.512 6.507 14.1 6.943 13.642 7.345 13.22 8.412 12.101 10.323 13.336 11.342 13.994 15.052 16.391C15.191 16.481 15.362 16.509 15.522 16.47 15.682 16.43 15.819 16.326 15.901 16.182L17.567 13.232 18.186 12.135 20.959 7.225 21.12 6.941V15.176Z" fill="black" fill-opacity="0.2"/>
</svg>