<svg xmlns="http://www.w3.org/2000/svg" width="24" height="24" fill="currentColor" viewBox="0 0 24 24"><path d="M21.72 12a9.72 9.72 0 0 1-9.72 9.72v-5.67a4.05 4.05 0 0 0 0-8.1V2.28a9.72 9.72 0 0 1 9.72 9.72" opacity=".2"/><path d="M12 1.47a0.81 0.81 0 0 0-0.81 0.81v5.67A0.81 0.81 0 0 0 12 8.76a3.24 3.24 0 1 1-2.807 1.62 0.81 0.81 0 0 0-0.296-1.106L3.986 6.438a0.81 0.81 0 0 0-1.106 0.296 10.53 10.53 0 1 0 9.121-5.265zM3.91 8.264l3.535 2.042A4.8 4.8 0 0 0 7.141 12c0 0.155 0.008 0.304 0.023 0.457l-3.943 1.061a8.928 8.928 0 0 1 0.69-5.255z m-0.27 6.815l3.949-1.057a4.872 4.872 0 0 0 3.602 2.77v4.081a8.928 8.928 0 0 1-7.551-5.794m9.171 5.794v-4.081a4.86 4.86 0 0 0 0-9.584V3.127a8.91 8.91 0 0 1 0 17.746"/></svg>