<svg viewBox="0 0 24 24" fill="none" xmlns="http://www.w3.org/2000/svg" width="24" height="24">
<path opacity="0.2" fill-rule="evenodd" clip-rule="evenodd" d="M15.841 8.55L15.841 20.31 19.501 20.31 19.501 8.55 15.841 8.55Z" fill="black"/>
<path fill-rule="evenodd" clip-rule="evenodd" d="M5.52 21.51L10.381 21.51 15.241 21.51 20.101 21.51 21.72 21.51C22.051 21.51 22.32 21.241 22.32 20.91 22.32 20.578 22.051 20.31 21.72 20.31L20.701 20.31 20.701 7.95C20.701 7.619 20.432 7.35 20.101 7.35L15.841 7.35 15.841 3.09C15.841 2.759 15.572 2.49 15.241 2.49L10.381 2.49C10.05 2.49 9.781 2.759 9.781 3.09L9.781 10.59 5.52 10.59C5.189 10.59 4.92 10.859 4.92 11.19L4.92 20.31 3.901 20.31C3.569 20.31 3.301 20.578 3.301 20.91 3.301 21.241 3.569 21.51 3.901 21.51L5.52 21.51ZM14.641 3.69L14.641 7.95 14.641 20.31 10.981 20.31 10.98 11.19 10.981 3.69 14.641 3.69ZM15.841 8.55L19.501 8.55 19.501 20.31 15.841 20.31 15.841 8.55ZM9.781 20.31L9.781 11.79 6.12 11.79 6.12 20.31 9.781 20.31Z" fill="black"/>
</svg>