<svg width="24" height="24" viewBox="0 0 24 24" fill="none" xmlns="http://www.w3.org/2000/svg">
<path d="M3 19.5V4.5H19.5C19.8978 4.5 20.2794 4.65804 20.5607 4.93934C20.842 5.22064 21 5.60218 21 6V19.5H3Z" fill="black" fill-opacity="0.2"/>
<path d="M16.6003 7.70634C17.0078 7.63233 17.2782 7.24195 17.2042 6.8344C17.1302 6.42685 16.7398 6.15647 16.3323 6.23048L16.4663 6.96841L16.6003 7.70634ZM8.81042 8.60053L8.63302 7.87181L7.33664 8.18741L8.28009 9.13086L8.81042 8.60053ZM14.8342 14.6243L15.0115 15.353L16.308 15.0374L15.3645 14.0939L14.8342 14.6243ZM7.04769 15.5178C6.63981 15.59 6.36763 15.9791 6.43976 16.387C6.5119 16.7949 6.90103 17.0671 7.30892 16.9949L7.1783 16.2564L7.04769 15.5178ZM21.001 20.25C21.4152 20.25 21.751 19.9142 21.751 19.5C21.751 19.0858 21.4152 18.75 21.001 18.75V19.5V20.25ZM3.00098 19.5H2.25098C2.25098 19.9142 2.58676 20.25 3.00098 20.25V19.5ZM3.75098 4.5C3.75098 4.08579 3.41519 3.75 3.00098 3.75C2.58676 3.75 2.25098 4.08579 2.25098 4.5H3.00098H3.75098ZM16.4663 6.96841C16.3323 6.23048 16.3322 6.23049 16.3322 6.2305C16.3321 6.2305 16.3321 6.23051 16.332 6.23053C16.3319 6.23055 16.3317 6.23059 16.3314 6.23064C16.3309 6.23073 16.3301 6.23087 16.3292 6.23104C16.3272 6.2314 16.3244 6.23191 16.3207 6.23259C16.3132 6.23395 16.3022 6.23597 16.2878 6.23862C16.2589 6.24393 16.2162 6.2518 16.1606 6.26213C16.0495 6.28279 15.8867 6.3133 15.6794 6.35286C15.2647 6.43197 14.6714 6.5473 13.9555 6.69248C12.5246 6.98269 10.6005 7.39283 8.63302 7.87181L8.81042 8.60053L8.98783 9.32925C10.9303 8.85636 12.8342 8.45044 14.2537 8.16255C14.9631 8.01869 15.5506 7.90447 15.9604 7.82629C16.1653 7.7872 16.3258 7.75713 16.4348 7.73687C16.4892 7.72674 16.5309 7.71906 16.5587 7.71394C16.5727 7.71138 16.5832 7.70946 16.5902 7.70819C16.5936 7.70755 16.5962 7.70708 16.5979 7.70677C16.5988 7.70662 16.5994 7.7065 16.5998 7.70643C16.6 7.7064 16.6001 7.70637 16.6002 7.70636C16.6002 7.70635 16.6003 7.70634 16.6003 7.70634C16.6003 7.70634 16.6003 7.70634 16.4663 6.96841ZM8.81042 8.60053L8.28009 9.13086C9.27842 10.1292 9.91393 10.7647 10.7351 11.5858C11.5562 12.407 12.563 13.4138 14.3038 15.1546L14.8342 14.6243L15.3645 14.0939C13.6237 12.3531 12.6169 11.3463 11.7957 10.5252C10.9746 9.70404 10.3391 9.06852 9.34075 8.0702L8.81042 8.60053ZM14.8342 14.6243L14.6568 13.8955C12.5795 14.4012 10.6756 14.8071 9.29082 15.0866C8.59865 15.2263 8.03673 15.3343 7.64835 15.4073C7.45418 15.4438 7.30342 15.4715 7.2015 15.4901C7.15054 15.4994 7.11179 15.5064 7.08593 15.511C7.073 15.5133 7.06329 15.5151 7.05689 15.5162C7.05369 15.5168 7.05131 15.5172 7.04978 15.5175C7.04901 15.5176 7.04845 15.5177 7.0481 15.5178C7.04793 15.5178 7.04781 15.5178 7.04774 15.5178C7.0477 15.5178 7.04769 15.5178 7.04768 15.5178C7.04768 15.5178 7.04769 15.5178 7.1783 16.2564C7.30892 16.9949 7.30896 16.9949 7.30901 16.9949C7.30905 16.9949 7.30911 16.9949 7.30919 16.9949C7.30933 16.9949 7.30953 16.9948 7.30978 16.9948C7.31027 16.9947 7.31098 16.9946 7.3119 16.9944C7.31374 16.9941 7.31642 16.9936 7.31992 16.993C7.32694 16.9917 7.33726 16.9899 7.35082 16.9874C7.37793 16.9826 7.41797 16.9754 7.47025 16.9658C7.5748 16.9468 7.72834 16.9185 7.92544 16.8815C8.31961 16.8074 8.88814 16.6981 9.58759 16.5569C10.9861 16.2747 12.9101 15.8645 15.0115 15.353L14.8342 14.6243ZM8.03904 16.239H7.28904C7.28904 16.2908 7.24707 16.3328 7.19529 16.3328V17.0828V17.8328C8.07549 17.8328 8.78904 17.1192 8.78904 16.239H8.03904ZM7.19529 17.0828V16.3328C7.14352 16.3328 7.10154 16.2908 7.10154 16.239H6.35154H5.60154C5.60154 17.1192 6.31509 17.8328 7.19529 17.8328V17.0828ZM6.35154 16.239H7.10154C7.10154 16.1873 7.14352 16.1453 7.19529 16.1453V15.3953V14.6453C6.31509 14.6453 5.60154 15.3588 5.60154 16.239H6.35154ZM7.19529 15.3953V16.1453C7.24707 16.1453 7.28904 16.1873 7.28904 16.239H8.03904H8.78904C8.78904 15.3588 8.07549 14.6453 7.19529 14.6453V15.3953ZM17.3015 6.96932H16.5515C16.5515 7.02109 16.5095 7.06306 16.4577 7.06306V7.81306V8.56306C17.3379 8.56306 18.0515 7.84952 18.0515 6.96932H17.3015ZM16.4577 7.81306V7.06306C16.4059 7.06306 16.364 7.02109 16.364 6.96932H15.614H14.864C14.864 7.84952 15.5775 8.56306 16.4577 8.56306V7.81306ZM15.614 6.96932H16.364C16.364 6.91754 16.4059 6.87557 16.4577 6.87557V6.12557V5.37557C15.5775 5.37557 14.864 6.08911 14.864 6.96932H15.614ZM16.4577 6.12557V6.87557C16.5095 6.87557 16.5515 6.91754 16.5515 6.96932H17.3015H18.0515C18.0515 6.08911 17.3379 5.37557 16.4577 5.37557V6.12557ZM9.66113 8.604H8.91113C8.91113 8.65578 8.86916 8.69775 8.81738 8.69775V9.44775V10.1978C9.69758 10.1978 10.4111 9.48421 10.4111 8.604H9.66113ZM8.81738 9.44775V8.69775C8.7656 8.69775 8.72363 8.65578 8.72363 8.604H7.97363H7.22363C7.22363 9.48421 7.93718 10.1978 8.81738 10.1978V9.44775ZM7.97363 8.604H8.72363C8.72363 8.55223 8.7656 8.51025 8.81738 8.51025V7.76025V7.01025C7.93718 7.01025 7.22363 7.7238 7.22363 8.604H7.97363ZM8.81738 7.76025V8.51025C8.86916 8.51025 8.91113 8.55223 8.91113 8.604H9.66113H10.4111C10.4111 7.7238 9.69758 7.01025 8.81738 7.01025V7.76025ZM15.662 14.6169H14.912C14.912 14.6687 14.87 14.7107 14.8183 14.7107V15.4607V16.2107C15.6985 16.2107 16.412 15.4971 16.412 14.6169H15.662ZM14.8183 15.4607V14.7107C14.7665 14.7107 14.7245 14.6687 14.7245 14.6169H13.9745H13.2245C13.2245 15.4971 13.9381 16.2107 14.8183 16.2107V15.4607ZM13.9745 14.6169H14.7245C14.7245 14.5652 14.7665 14.5232 14.8183 14.5232V13.7732V13.0232C13.9381 13.0232 13.2245 13.7367 13.2245 14.6169H13.9745ZM14.8183 13.7732V14.5232C14.87 14.5232 14.912 14.5652 14.912 14.6169H15.662H16.412C16.412 13.7367 15.6985 13.0232 14.8183 13.0232V13.7732ZM21.001 19.5V18.75H3.00098V19.5V20.25H21.001V19.5ZM3.00098 19.5H3.75098V4.5H3.00098H2.25098V19.5H3.00098Z" fill="black"/>
</svg>
