<svg viewBox="0 0 24 24" fill="none" xmlns="http://www.w3.org/2000/svg" width="24" height="24">
<path d="M10.173 7.349L10.173 3.691 13.826 3.691 13.826 7.349 10.173 7.349Z" fill="black" fill-opacity="0.2"/>
<path d="M15.033 15.441V11.783H18.686V15.441H15.033Z" fill="black" fill-opacity="0.2"/>
<path d="M5.319 15.751L5.319 8.554H8.972L8.972 15.751H5.319Z" fill="black" fill-opacity="0.2"/>
<path d="M13.83 11.189C13.83 10.858 14.099 10.589 14.43 10.589L19.29 10.589C19.621 10.589 19.889 10.858 19.89 11.189L19.89 20.91C19.89 21.241 19.621 21.51 19.29 21.51 18.958 21.51 18.69 21.241 18.69 20.91L18.69 11.789 15.03 11.789 15.03 20.91C15.03 21.241 14.761 21.51 14.43 21.51 14.099 21.51 13.83 21.241 13.83 20.91L13.83 11.189Z" fill="black"/>
<path d="M20.91 21.51L3.09 21.51C2.759 21.51 2.49 21.241 2.49 20.91 2.49 20.578 2.759 20.31 3.09 20.31L20.91 20.31C21.241 20.31 21.51 20.578 21.51 20.91 21.51 21.241 21.241 21.51 20.91 21.51Z" fill="black"/>
<path d="M14.43 15.45L19.29 15.45 19.29 16.65 14.43 16.65 14.43 15.45Z" fill="black"/>
<path d="M8.97 3.09C8.97 2.759 9.239 2.49 9.57 2.49L14.43 2.49C14.761 2.49 15.03 2.759 15.03 3.09L15.03 20.91C15.03 21.241 14.761 21.51 14.43 21.51 14.099 21.51 13.83 21.241 13.83 20.91L13.83 3.69 10.17 3.69 10.17 20.91C10.17 21.241 9.901 21.51 9.57 21.51 9.239 21.51 8.97 21.241 8.97 20.91L8.97 3.09Z" fill="black"/>
<path d="M4.11 7.95C4.11 7.619 4.378 7.35 4.71 7.35L9.57 7.35C9.901 7.35 10.17 7.619 10.17 7.95L10.17 20.91C10.17 21.241 9.901 21.51 9.57 21.51 9.239 21.51 8.97 21.241 8.97 20.91L8.97 8.55 5.31 8.55 5.31 20.91C5.31 21.241 5.041 21.51 4.71 21.51 4.378 21.51 4.11 21.241 4.11 20.91L4.11 7.95Z" fill="black"/>
<path d="M9.57 7.35L14.43 7.35 14.43 8.55 9.57 8.55 9.57 7.35Z" fill="black"/>
<path d="M4.71 15.753L9.577 15.753 9.577 16.953 4.71 16.953 4.71 15.753Z" fill="black"/>
</svg>