<svg width="24" height="24" viewBox="0 0 24 24" fill="none" xmlns="http://www.w3.org/2000/svg">
<path d="M15.306 13.0626L21.1936 16.596V18.0085C21.1933 18.4663 20.8221 18.8379 20.3642 18.8379L14.1224 18.8433C14.123 18.8168 14.1235 18.7829 14.1235 18.7461C14.1236 18.6732 14.1216 18.5766 14.1181 18.4869L14.117 18.4739C14.1155 18.4332 14.1143 18.3887 14.1106 18.3465C14.108 18.3175 14.0998 18.2283 14.0738 18.1381C14.009 17.913 13.8921 17.706 13.7326 17.5344L13.7218 17.5225L11.8914 15.6381L13.0274 13.0896C13.0321 13.0796 13.0372 13.0695 13.0415 13.0593L13.17 12.771L15.306 13.0626Z" fill="black" fill-opacity="0.2"/>
<path d="M15.1712 4.42041C15.1688 4.49781 15.1649 4.58115 15.1615 4.66447C15.1564 4.78641 15.1502 4.90434 15.1442 4.99924L15.1323 5.15258L12.6237 7.42037L11.4758 8.05211H9.91749C9.65579 8.05208 9.39805 8.12119 9.17128 8.25189C8.94426 8.38289 8.75378 8.5735 8.62269 8.80048L7.80845 10.2227L6.8603 7.6979L8.1443 4.67635C8.17986 4.59251 8.19968 4.50527 8.20369 4.41933L15.1712 4.42041Z" fill="black" fill-opacity="0.2"/>
<path d="M16.072 4.49951C16.072 4.73386 16.0437 4.8386 16.0166 5.00615C15.9896 5.1737 15.9065 5.32711 15.7809 5.4413L13.2574 7.72201C13.2154 7.76133 13.1684 7.79504 13.1177 7.82232M13.1177 7.82232L11.9657 8.456C11.8551 8.51768 11.7305 8.54995 11.6038 8.54974H10.0374C9.90559 8.54955 9.77604 8.58411 9.66183 8.64994C9.54762 8.71577 9.45277 8.81054 9.38686 8.92471L8.13823 11.1051M13.1177 7.82232L9.66183 4.50244M7.3789 4.54028L6.27464 7.15096C6.20005 7.32769 6.19602 7.52629 6.26339 7.7059L7.34141 10.5809C7.3857 10.6984 7.45878 10.8029 7.55393 10.8848C7.64909 10.9666 7.76328 11.0233 7.88604 11.0496L9.8949 11.4818C10.0063 11.5057 10.1108 11.5546 10.2005 11.625C10.2902 11.6953 10.3626 11.7851 10.4123 11.8877L10.7686 12.6254C10.83 12.7522 10.9259 12.859 11.0453 12.9338C11.1646 13.0086 11.3026 13.0482 11.4435 13.0482H12.7371L19.3286 19.4975M21.0014 15.6744L16.0901 12.6984C16.0008 12.644 15.9012 12.6085 15.7976 12.5943L13.6585 12.3056C13.4978 12.2839 13.3344 12.3148 13.1928 12.3937C13.0512 12.4726 12.9389 12.5953 12.8729 12.7434L11.5887 15.625C11.529 15.7591 11.5099 15.9077 11.5339 16.0525C11.5579 16.1973 11.6239 16.3319 11.7236 16.4396L13.5741 18.3453C13.6543 18.4316 13.7131 18.5355 13.7456 18.6487C13.7782 18.7619 13.6517 19.3819 13.6296 19.4975M14.2856 4.5354L15.4817 5.71174M6.83611 6.10522L9.49032 8.78559M2.99902 6.00244L2.99902 17.9975C2.99902 18.826 3.67059 19.4975 4.49902 19.4975L19.5014 19.4975C20.3298 19.4975 21.0014 18.826 21.0014 17.9975V6.00244C21.0014 5.17401 20.3298 4.50244 19.5014 4.50244L4.49902 4.50244C3.6706 4.50244 2.99902 5.17401 2.99902 6.00244Z" stroke="black" stroke-width="1.5" stroke-linecap="round" stroke-linejoin="round"/>
</svg>
