<svg width="24" height="24" viewBox="0 0 24 24" fill="none" xmlns="http://www.w3.org/2000/svg">
<path d="M12 16.375C14.4162 16.375 16.375 14.4162 16.375 12C16.375 9.58375 14.4162 7.625 12 7.625C9.58375 7.625 7.625 9.58375 7.625 12C7.625 14.4162 9.58375 16.375 12 16.375Z" fill="black" fill-opacity="0.2"/>
<path d="M12.75 2.99961C12.75 2.5854 12.4142 2.24961 12 2.24961C11.5858 2.24961 11.25 2.5854 11.25 2.99961H12H12.75ZM11.25 20.9996C11.25 21.4138 11.5858 21.7496 12 21.7496C12.4142 21.7496 12.75 21.4138 12.75 20.9996H12H11.25ZM2.9999 11.2497C2.58569 11.2497 2.2499 11.5855 2.2499 11.9997C2.2499 12.4139 2.58569 12.7497 2.9999 12.7497V11.9997V11.2497ZM20.9999 12.7497C21.4141 12.7497 21.7499 12.4139 21.7499 11.9997C21.7499 11.5855 21.4141 11.2497 20.9999 11.2497V11.9997V12.7497ZM20.875 11.9999H20.125C20.125 16.4872 16.4873 20.1249 12 20.1249V20.8749V21.6249C17.3158 21.6249 21.625 17.3156 21.625 11.9999H20.875ZM12 20.8749V20.1249C7.51271 20.1249 3.87503 16.4872 3.87503 11.9999H3.12503H2.37503C2.37503 17.3156 6.68428 21.6249 12 21.6249V20.8749ZM3.12503 11.9999H3.87503C3.87503 7.51254 7.51271 3.87485 12 3.87485V3.12485V2.37485C6.68428 2.37485 2.37503 6.68411 2.37503 11.9999H3.12503ZM12 3.12485V3.87485C16.4873 3.87485 20.125 7.51254 20.125 11.9999H20.875H21.625C21.625 6.68411 17.3158 2.37485 12 2.37485V3.12485ZM16.375 11.9997H15.625C15.625 14.0017 14.0021 15.6247 12 15.6247V16.3747V17.1247C14.8305 17.1247 17.125 14.8301 17.125 11.9997H16.375ZM12 16.3747V15.6247C9.99799 15.6247 8.37502 14.0017 8.37502 11.9997H7.62502H6.87502C6.87502 14.8301 9.16957 17.1247 12 17.1247V16.3747ZM7.62502 11.9997H8.37502C8.37502 9.99763 9.99799 8.37466 12 8.37466V7.62466V6.87466C9.16957 6.87466 6.87502 9.1692 6.87502 11.9997H7.62502ZM12 7.62466V8.37466C14.0021 8.37466 15.625 9.99763 15.625 11.9997H16.375H17.125C17.125 9.1692 14.8305 6.87466 12 6.87466V7.62466ZM12 2.99961H11.25V20.9996H12H12.75V2.99961H12ZM2.9999 11.9997V12.7497H20.9999V11.9997V11.2497H2.9999V11.9997ZM12.845 3.09473H12.095C12.095 3.1465 12.053 3.18848 12.0012 3.18848V3.93848V4.68848C12.8814 4.68848 13.595 3.97493 13.595 3.09473H12.845ZM12.0012 3.93848V3.18848C11.9494 3.18848 11.9075 3.1465 11.9075 3.09473H11.1575H10.4075C10.4075 3.97493 11.121 4.68848 12.0012 4.68848V3.93848ZM11.1575 3.09473H11.9075C11.9075 3.04295 11.9494 3.00098 12.0012 3.00098V2.25098V1.50098C11.121 1.50098 10.4075 2.21452 10.4075 3.09473H11.1575ZM12.0012 2.25098V3.00098C12.053 3.00098 12.095 3.04295 12.095 3.09473H12.845H13.595C13.595 2.21452 12.8814 1.50098 12.0012 1.50098V2.25098ZM12.845 20.9048H12.095C12.095 20.9566 12.053 20.9985 12.0012 20.9985V21.7485V22.4985C12.8814 22.4985 13.595 21.785 13.595 20.9048H12.845ZM12.0012 21.7485V20.9985C11.9494 20.9985 11.9075 20.9566 11.9075 20.9048H11.1575H10.4075C10.4075 21.785 11.121 22.4985 12.0012 22.4985V21.7485ZM11.1575 20.9048H11.9075C11.9075 20.853 11.9494 20.811 12.0012 20.811V20.061V19.311C11.121 19.311 10.4075 20.0246 10.4075 20.9048H11.1575ZM12.0012 20.061V20.811C12.053 20.811 12.095 20.853 12.095 20.9048H12.845H13.595C13.595 20.0246 12.8814 19.311 12.0012 19.311V20.061ZM3.93872 12.001H3.18872C3.18872 12.0528 3.14675 12.0947 3.09497 12.0947V12.8447V13.5947C3.97517 13.5947 4.68872 12.8812 4.68872 12.001H3.93872ZM3.09497 12.8447V12.0947C3.04319 12.0947 3.00122 12.0528 3.00122 12.001H2.25122H1.50122C1.50122 12.8812 2.21477 13.5947 3.09497 13.5947V12.8447ZM2.25122 12.001H3.00122C3.00122 11.9492 3.04319 11.9072 3.09497 11.9072V11.1572V10.4072C2.21477 10.4072 1.50122 11.1208 1.50122 12.001H2.25122ZM3.09497 11.1572V11.9072C3.14675 11.9072 3.18872 11.9492 3.18872 12.001H3.93872H4.68872C4.68872 11.1208 3.97517 10.4072 3.09497 10.4072V11.1572ZM21.7488 12.001H20.9988C20.9988 12.0528 20.9568 12.0947 20.905 12.0947V12.8447V13.5947C21.7852 13.5947 22.4988 12.8812 22.4988 12.001H21.7488ZM20.905 12.8447V12.0947C20.8533 12.0947 20.8113 12.0528 20.8113 12.001H20.0613H19.3113C19.3113 12.8812 20.0248 13.5947 20.905 13.5947V12.8447ZM20.0613 12.001H20.8113C20.8113 11.9492 20.8533 11.9072 20.905 11.9072V11.1572V10.4072C20.0248 10.4072 19.3113 11.1208 19.3113 12.001H20.0613ZM20.905 11.1572V11.9072C20.9568 11.9072 20.9988 11.9492 20.9988 12.001H21.7488H22.4988C22.4988 11.1208 21.7852 10.4072 20.905 10.4072V11.1572Z" fill="black"/>
</svg>
