<svg viewBox="0 0 24 24" fill="none" xmlns="http://www.w3.org/2000/svg" width="24" height="24">
<path d="M1.68 3.9C1.68 3.569 1.949 3.3 2.28 3.3 2.611 3.3 2.88 3.569 2.88 3.9V19.5H21.72C22.051 19.5 22.32 19.769 22.32 20.1 22.32 20.431 22.051 20.7 21.72 20.7H2.28C1.949 20.7 1.68 20.431 1.68 20.1V3.9Z" fill="black"/>
<path d="M21.364 3.417C21.63 3.221 22.006 3.277 22.203 3.544 22.4 3.811 22.343 4.186 22.076 4.383L15.664 9.115C15.469 9.258 15.207 9.271 14.999 9.147L8.827 5.448 2.675 10.832C2.426 11.05 2.047 11.025 1.829 10.776 1.61 10.526 1.636 10.147 1.885 9.928L8.364 4.259 8.442 4.201C8.63 4.083 8.873 4.078 9.069 4.196L15.274 7.91 21.364 3.417Z" fill="black"/>
<path d="M21.12 20.1V3.9C21.12 3.569 21.388 3.3 21.72 3.3 22.051 3.3 22.32 3.569 22.32 3.9L22.32 20.1C22.32 20.431 22.051 20.7 21.72 20.7 21.389 20.7 21.12 20.431 21.12 20.1Z" fill="black"/>
<path d="M18.338 11.818L21.12 7.955V19.5L2.88 19.5 2.88 17.91 5.854 13.539 8.381 10.688 11.001 12.542 15.162 15.543C15.398 15.647 15.707 14.943 15.88 14.752L17.526 12.717 18.338 11.818Z" fill="white"/>
<path d="M21.207 6.857C21.404 6.591 21.78 6.536 22.046 6.733 22.312 6.93 22.367 7.306 22.17 7.572L15.888 16.048C15.791 16.179 15.645 16.265 15.483 16.286 15.322 16.307 15.158 16.261 15.031 16.16L8.371 10.854 2.752 18.039C2.548 18.3 2.172 18.346 1.911 18.142 1.65 17.938 1.603 17.561 1.808 17.3L7.799 9.638 7.881 9.551C7.971 9.474 8.083 9.426 8.202 9.412 8.361 9.393 8.521 9.439 8.647 9.538L15.292 14.834 21.207 6.857Z" fill="black"/>
<path d="M18.339 11.817L21.12 7.955V15.176 17.056 19.5H2.88V17.91L5.854 13.538 8.381 10.688 11.001 12.542 12.253 13.444 15.162 15.543C15.398 15.646 15.707 14.943 15.88 14.751L17.526 12.716 18.339 11.817Z" fill="#C4C4C4"/>
</svg>