<svg width="24" height="24" viewBox="0 0 24 24" fill="none" xmlns="http://www.w3.org/2000/svg">
<path d="M3 19.5V4.5H19.5C19.8978 4.5 20.2794 4.65804 20.5607 4.93934C20.842 5.22064 21 5.60218 21 6V19.5H3Z" fill="black" fill-opacity="0.2"/>
<path d="M16.4663 6.96597C16.4663 6.96597 16.1583 7.0219 15.6268 7.12412M15.6268 7.12412C14.4358 7.35318 12.1223 7.81471 9.63642 8.40031M15.6268 7.12412C15.7013 7.51378 16.0438 7.80829 16.4551 7.80829C16.9209 7.80829 17.2985 7.43068 17.2985 6.9649C17.2985 6.49911 16.9209 6.12152 16.4551 6.12152C15.9894 6.12152 15.6118 6.49911 15.6118 6.9649C15.6118 7.01933 15.617 7.07256 15.6268 7.12412ZM9.63642 8.40031C9.36275 8.46478 9.08699 8.53076 8.81042 8.59809L9.41144 9.19911M9.63642 8.40031C9.54643 8.03132 9.2137 7.75745 8.81702 7.75745C8.35122 7.75745 7.97363 8.13503 7.97363 8.60083C7.97363 9.0666 8.35122 9.44421 8.81702 9.44421C9.04892 9.44421 9.25897 9.3506 9.41144 9.19911M9.63642 8.40031C9.65209 8.46458 9.6604 8.53173 9.6604 8.60083C9.6604 8.83469 9.5652 9.04633 9.41144 9.19911M9.41144 9.19911L14.231 14.0186M14.231 14.0186L14.8342 14.6218C14.5562 14.6895 14.2814 14.7553 14.0104 14.8194M14.231 14.0186C14.0791 14.1712 13.9852 14.3815 13.9852 14.6138C13.9852 14.6847 13.9939 14.7536 14.0104 14.8194M14.231 14.0186C14.3837 13.8653 14.5951 13.7704 14.8286 13.7704C15.2943 13.7704 15.6719 14.148 15.6719 14.6138C15.6719 15.0796 15.2943 15.4572 14.8286 15.4572C14.4337 15.4572 14.1022 15.1858 14.0104 14.8194M14.0104 14.8194C11.4223 15.4311 9.19208 15.8747 8.03164 16.0956M8.03164 16.0956C7.48725 16.1993 7.1783 16.2539 7.1783 16.2539M8.03164 16.0956C7.96315 15.6986 7.61711 15.3966 7.20056 15.3966C6.73477 15.3966 6.35718 15.7742 6.35718 16.24C6.35718 16.7058 6.73477 17.0834 7.20056 17.0834C7.66633 17.0834 8.04395 16.7058 8.04395 16.24C8.04395 16.1908 8.03973 16.1425 8.03164 16.0956ZM21.001 19.4975H3.00098V4.49756" stroke="black" stroke-width="1.5" stroke-linecap="round" stroke-linejoin="round"/>
</svg>
