<svg width="24" height="24" viewBox="0 0 24 24" fill="none" xmlns="http://www.w3.org/2000/svg">
<path d="M3 19.5V4.5H19.5C19.8978 4.5 20.2794 4.65804 20.5607 4.93934C20.842 5.22064 21 5.60218 21 6V19.5H3Z" fill="black" fill-opacity="0.2"/>
<path d="M21 19.5H3V4.5M18.5101 8.53C18.5101 9.92728 17.3774 11.06 15.9801 11.06C14.5828 11.06 13.4501 9.92728 13.4501 8.53C13.4501 7.13272 14.5828 6 15.9801 6C17.3774 6 18.5101 7.13272 18.5101 8.53ZM10.5501 14.475C10.5501 15.5933 9.6435 16.5 8.52512 16.5C7.40675 16.5 6.50012 15.5933 6.50012 14.475C6.50012 13.3566 7.40675 12.45 8.52512 12.45C9.6435 12.45 10.5501 13.3566 10.5501 14.475ZM16.9927 15.4925C16.9927 16.0517 16.5393 16.505 15.9802 16.505C15.421 16.505 14.9677 16.0517 14.9677 15.4925C14.9677 14.9333 15.421 14.48 15.9802 14.48C16.5393 14.48 16.9927 14.9333 16.9927 15.4925ZM10.0451 7.52171C10.0451 8.36118 9.3646 9.04171 8.52513 9.04171C7.68565 9.04171 7.00513 8.36118 7.00513 7.52171C7.00513 6.68224 7.68565 6.00171 8.52513 6.00171C9.3646 6.00171 10.0451 6.68224 10.0451 7.52171Z" stroke="black" stroke-width="1.5" stroke-linecap="round" stroke-linejoin="round"/>
</svg>
