<svg xmlns="http://www.w3.org/2000/svg" fill="currentColor" viewBox="0 0 24 24" width="24" height="24"><path d="M20.1 3.09H3.9a0.81 0.81 0 0 0-0.81 0.81v16.2a0.81 0.81 0 0 0 0.81 0.81h16.2a0.81 0.81 0 0 0 0.81-0.81V3.9a0.81 0.81 0 0 0-0.81-0.81M7.95 17.67a1.62 1.62 0 1 1 1.62-1.62 1.62 1.62 0 0 1-1.62 1.62m8.1-6.48a1.62 1.62 0 1 1 1.62-1.62 1.62 1.62 0 0 1-1.62 1.62" opacity=".2"/><path d="M20.1 2.28H3.9A1.62 1.62 0 0 0 2.28 3.9v16.2a1.62 1.62 0 0 0 1.62 1.62h16.2a1.62 1.62 0 0 0 1.62-1.62V3.9a1.62 1.62 0 0 0-1.62-1.62M7.95 15.24a0.81 0.81 0 1 1-0.81 0.81 0.81 0.81 0 0 1 0.81-0.81M3.9 3.9h3.24v9.859a2.43 2.43 0 1 0 1.62 0v-3.044l4.86 4.86v4.525h-9.72z m16.2 16.2H15.24V15.24a0.816 0.816 0 0 0-0.236-0.574L8.76 8.424V3.899H12v2.43a0.816 0.816 0 0 0 0.236 0.573l1.62 1.62a2.4 2.4 0 0 0-0.236 1.047 2.43 2.43 0 1 0 2.43-2.43 2.4 2.4 0 0 0-1.046 0.237L13.62 5.993V3.898h6.48v16.2zM16.05 8.76a0.81 0.81 0 1 1-0.81 0.81 0.81 0.81 0 0 1 0.81-0.81"/></svg>