<svg width="24" height="24" viewBox="0 0 24 24" fill="none" xmlns="http://www.w3.org/2000/svg">
<path d="M19.5 3.75H4.5C4.30109 3.75 4.11032 3.82902 3.96967 3.96967C3.82902 4.11032 3.75 4.30109 3.75 4.5V19.5C3.75 19.6989 3.82902 19.8897 3.96967 20.0303C4.11032 20.171 4.30109 20.25 4.5 20.25H19.5C19.6989 20.25 19.8897 20.171 20.0303 20.0303C20.171 19.8897 20.25 19.6989 20.25 19.5V4.5C20.25 4.30109 20.171 4.11032 20.0303 3.96967C19.8897 3.82902 19.6989 3.75 19.5 3.75ZM8.25 17.25C7.95333 17.25 7.66332 17.162 7.41664 16.9972C7.16997 16.8324 6.97771 16.5981 6.86418 16.324C6.75065 16.0499 6.72094 15.7483 6.77882 15.4574C6.8367 15.1664 6.97956 14.8991 7.18934 14.6893C7.39912 14.4796 7.66639 14.3367 7.95736 14.2788C8.24834 14.2209 8.54994 14.2506 8.82403 14.3642C9.09811 14.4777 9.33238 14.67 9.4972 14.9166C9.66203 15.1633 9.75 15.4533 9.75 15.75C9.75 16.1478 9.59196 16.5294 9.31066 16.8107C9.02936 17.092 8.64782 17.25 8.25 17.25ZM15.75 11.25C15.4533 11.25 15.1633 11.162 14.9166 10.9972C14.67 10.8324 14.4777 10.5981 14.3642 10.324C14.2506 10.0499 14.2209 9.74834 14.2788 9.45736C14.3367 9.16639 14.4796 8.89912 14.6893 8.68934C14.8991 8.47956 15.1664 8.3367 15.4574 8.27882C15.7483 8.22094 16.0499 8.25065 16.324 8.36418C16.5981 8.47771 16.8324 8.66997 16.9972 8.91665C17.162 9.16332 17.25 9.45333 17.25 9.75C17.25 10.1478 17.092 10.5294 16.8107 10.8107C16.5294 11.092 16.1478 11.25 15.75 11.25Z" fill="black" fill-opacity="0.2"/>
<path d="M8.25 14.25C7.42157 14.25 6.75 14.9216 6.75 15.75C6.75 16.5784 7.42157 17.25 8.25 17.25C9.07843 17.25 9.75 16.5784 9.75 15.75C9.75 14.9216 9.07843 14.25 8.25 14.25ZM8.25 14.25V9M14.25 20.25V15L8.25 9M8.25 9V3.75M12.75 3.75V6.75L14.6897 8.68969M17.25 9.75C17.25 10.5784 16.5784 11.25 15.75 11.25C14.9216 11.25 14.25 10.5784 14.25 9.75C14.25 8.92157 14.9216 8.25 15.75 8.25C16.5784 8.25 17.25 8.92157 17.25 9.75ZM4.5 3.75H19.5C19.9142 3.75 20.25 4.08579 20.25 4.5V19.5C20.25 19.9142 19.9142 20.25 19.5 20.25H4.5C4.08579 20.25 3.75 19.9142 3.75 19.5V4.5C3.75 4.08579 4.08579 3.75 4.5 3.75Z" stroke="black" stroke-width="1.5" stroke-linecap="round" stroke-linejoin="round"/>
</svg>
