<svg width="24" height="24" viewBox="0 0 24 24" fill="none" xmlns="http://www.w3.org/2000/svg">
<g clip-path="url(#clip0_2559_4870)">
<path fill-rule="evenodd" clip-rule="evenodd" d="M20.9085 13.6635L17.5907 10.6233C17.5115 10.5508 17.4488 10.462 17.4069 10.3631C17.365 10.2642 17.3448 10.1574 17.3477 10.05C17.3506 9.94256 17.3766 9.83704 17.4238 9.74054C17.4711 9.64405 17.5385 9.55883 17.6216 9.49066L21.1376 6.75264C21.5407 6.31268 21.7526 5.73059 21.7266 5.13442C21.7005 4.53825 21.4387 3.97684 20.9988 3.57369C20.5588 3.17054 19.9767 2.95868 19.3806 2.98471C18.7844 3.01074 18.223 3.27253 17.8198 3.71249L15.3987 7.45376C15.338 7.54243 15.259 7.61704 15.167 7.67252C15.075 7.728 14.9721 7.76307 14.8654 7.77534C14.7586 7.78761 14.6505 7.77681 14.5483 7.74366C14.4461 7.71051 14.3522 7.65578 14.273 7.58319L10.9552 4.54304C10.6619 4.27427 10.2739 4.13303 9.87643 4.15038C9.77583 4.15477 9.67672 4.16924 9.58043 4.19314C9.29628 4.26369 9.03668 4.4165 8.83594 4.63557L8.63142 4.85876L20.7998 16.0032L21.0019 15.7826C21.2707 15.4893 21.4119 15.1012 21.3946 14.7038C21.3772 14.3063 21.2018 13.9323 20.9085 13.6635Z" fill="black" fill-opacity="0.2"/>
<path d="M20.8 16.0034L21.0021 15.7828C21.2709 15.4895 21.4121 15.1015 21.3948 14.704C21.3774 14.3066 21.2029 13.9323 20.9096 13.6635L17.5918 10.6234C17.5126 10.5508 17.4499 10.462 17.408 10.3631C17.366 10.2642 17.3459 10.1574 17.3488 10.05C17.3517 9.9426 17.3777 9.83708 17.4249 9.74058C17.4722 9.64409 17.5396 9.55887 17.6227 9.4907L21.1387 6.75268C21.5418 6.31272 21.7537 5.73063 21.7277 5.13446C21.7016 4.53829 21.4398 3.97688 20.9999 3.57373C20.5599 3.17058 19.9778 2.95872 19.3816 2.98475C18.7855 3.01078 18.2241 3.27257 17.8209 3.71253L15.3998 7.45379C15.3391 7.54247 15.2601 7.61707 15.1681 7.67256C15.0761 7.72804 14.9732 7.7631 14.8665 7.77538C14.7597 7.78765 14.6516 7.77685 14.5494 7.7437C14.4472 7.71055 14.3533 7.65582 14.2741 7.58323L10.9563 4.54308C10.663 4.27431 10.275 4.13307 9.87751 4.15042C9.82618 4.15266 9.77523 4.15753 9.72485 4.16493C9.51278 4.19609 9.31071 4.27223 9.13185 4.38719M9.72485 4.16493C9.38497 4.21484 9.07025 4.38022 8.83619 4.63565L8.63167 4.85884M18.2942 18.7379L16.4418 20.7594C15.9043 21.346 15.1558 21.695 14.3609 21.7298C13.566 21.7645 12.7899 21.482 12.2032 20.9444L2.25 11.824L6.54317 7.1388M4.46183 13.8506L7.50198 10.5329M3.77665 4.47072L20.2235 19.529" stroke="black" stroke-width="1.5" stroke-linecap="round" stroke-linejoin="round"/>
</g>
<defs>
<clipPath id="clip0_2559_4870">
<rect width="24" height="24" fill="white"/>
</clipPath>
</defs>
</svg>
