<svg width="24" height="24" viewBox="0 0 24 24" fill="none" xmlns="http://www.w3.org/2000/svg">
<path d="M4.11841 9.89713C4.56873 9.10341 5.1216 8.37243 5.76278 7.72307C5.8665 7.61788 5.99896 7.54567 6.14356 7.51548C6.28817 7.48529 6.43846 7.49848 6.5756 7.55338L8.95497 8.51713C9.13848 8.59038 9.33466 8.62666 9.53223 8.62387C9.7298 8.62108 9.92488 8.57929 10.1063 8.50088C10.2876 8.42248 10.4517 8.30902 10.5891 8.16701C10.7265 8.025 10.8345 7.85724 10.9068 7.67338L12.8756 2.69526C13.2647 1.75776 14.3259 1.25807 15.2784 1.61432C15.5145 1.70214 15.7306 1.83664 15.9135 2.00979C16.0965 2.18295 16.2428 2.39121 16.3435 2.62213C16.4442 2.85306 16.4973 3.10191 16.4998 3.35383C16.5022 3.60575 16.4538 3.85558 16.3575 4.08838L14.3559 9.06651C14.2096 9.43554 14.2156 9.84751 14.3726 10.2121C14.5295 10.5768 14.8245 10.8643 15.1931 11.0118L17.5312 11.9343C17.6699 11.9904 17.7887 12.0867 17.8722 12.2109C17.9557 12.335 18.0002 12.4813 18 12.6309V14.2499C17.9992 14.6611 18.0242 15.0719 18.075 15.4799L4.11841 9.89713Z" fill="black" fill-opacity="0.2"/>
<path d="M10.5 20.9999C9.16248 19.807 8.21511 18.2389 7.78125 16.4999M4.11841 9.89714L18.075 15.48M18 14.2499C18 17.219 19.2478 19.7812 21.75 20.9999H5.71875C3.97243 19.187 2.99776 16.7672 3 14.2499C3 11.6053 4.05282 9.479 5.76282 7.72119C5.86653 7.616 5.999 7.54379 6.1436 7.5136C6.2882 7.48341 6.43849 7.4966 6.57563 7.5515L8.955 8.51525C9.13852 8.5885 9.33469 8.62478 9.53226 8.62199C9.72984 8.6192 9.92491 8.57741 10.1063 8.499C10.2877 8.4206 10.4518 8.30714 10.5891 8.16513C10.7265 8.02312 10.8345 7.85536 10.9069 7.6715L12.8756 2.69244C13.2647 1.75494 14.3259 1.25619 15.2784 1.6115C15.5147 1.69931 15.7308 1.83384 15.9139 2.00707C16.097 2.18029 16.2432 2.38865 16.344 2.61968C16.4447 2.85071 16.4978 3.09968 16.5001 3.35171C16.5025 3.60374 16.4539 3.85365 16.3575 4.0865L14.3559 9.06463C14.2094 9.43378 14.2152 9.84598 14.3722 10.2108C14.5291 10.5757 14.8243 10.8634 15.1931 11.0109L17.5313 11.9334C17.67 11.9895 17.7887 12.0858 17.8722 12.2099C17.9558 12.334 18.0003 12.4803 18 12.6299V14.2499Z" stroke="black" stroke-width="1.5" stroke-linecap="round" stroke-linejoin="round"/>
</svg>
