<svg viewBox="0 0 24 24" fill="none" xmlns="http://www.w3.org/2000/svg" width="24" height="24">
<g clip-path="url(#clip0_1013_695)">
<path opacity="0.2" d="M8.735 3.463C9.053 3.173 9.472 3.022 9.901 3.042 10.331 3.062 10.734 3.252 11.024 3.569L14.297 7.162C14.375 7.248 14.471 7.316 14.577 7.361 14.684 7.407 14.799 7.429 14.915 7.426 15.031 7.423 15.145 7.395 15.25 7.345 15.354 7.294 15.446 7.221 15.52 7.132L18.488 3.343C18.964 2.909 19.594 2.682 20.238 2.712 20.881 2.742 21.487 3.026 21.921 3.503 22.355 3.979 22.582 4.608 22.552 5.252 22.522 5.896 22.238 6.502 21.761 6.936L17.713 9.539C17.617 9.604 17.536 9.689 17.476 9.789 17.416 9.888 17.378 9.999 17.364 10.114 17.351 10.229 17.362 10.346 17.397 10.456 17.433 10.567 17.492 10.668 17.57 10.754L20.843 14.347C21.132 14.664 21.284 15.084 21.264 15.513 21.244 15.942 21.054 16.346 20.737 16.635L18.94 18.272 6.939 5.099 8.735 3.463Z" fill="black"/>
<path fill-rule="evenodd" clip-rule="evenodd" d="M20.537 17.635L21.173 17.055C21.608 16.659 21.867 16.106 21.895 15.518 21.922 14.93 21.715 14.355 21.319 13.92L18.045 10.326C18.025 10.304 18.01 10.278 18.001 10.249 17.992 10.221 17.989 10.19 17.992 10.16 17.996 10.131 18.006 10.101 18.021 10.075 18.037 10.05 18.057 10.029 18.081 10.013L22.118 7.417C22.146 7.399 22.172 7.378 22.197 7.356 22.791 6.815 23.147 6.059 23.184 5.256 23.221 4.454 22.938 3.669 22.397 3.075 21.856 2.482 21.101 2.127 20.299 2.089 19.496 2.052 18.71 2.335 18.116 2.876 18.091 2.899 18.069 2.923 18.048 2.949L15.09 6.729C15.071 6.751 15.046 6.768 15.02 6.781 14.993 6.794 14.963 6.802 14.934 6.803 14.904 6.803 14.873 6.798 14.846 6.786 14.818 6.774 14.793 6.756 14.772 6.734L11.5 3.141C11.103 2.706 10.55 2.446 9.961 2.418 9.374 2.391 8.799 2.599 8.364 2.995L7.743 3.561 8.55 4.449 9.172 3.882C9.372 3.7 9.636 3.605 9.906 3.618 10.176 3.63 10.431 3.749 10.613 3.949L13.885 7.542C14.022 7.691 14.189 7.81 14.374 7.889 14.56 7.968 14.761 8.007 14.962 8.002 15.164 7.997 15.362 7.949 15.544 7.86 15.725 7.772 15.887 7.646 16.016 7.491L16.024 7.478 18.955 3.738C19.31 3.428 19.771 3.266 20.243 3.288 20.727 3.311 21.183 3.525 21.51 3.884 21.837 4.242 22.008 4.716 21.985 5.201 21.963 5.674 21.757 6.119 21.414 6.444L17.421 9.01 17.408 9.019C17.241 9.133 17.1 9.281 16.995 9.454 16.89 9.626 16.824 9.819 16.8 10.019 16.777 10.22 16.797 10.424 16.859 10.616 16.921 10.808 17.022 10.985 17.158 11.134L20.432 14.728C20.614 14.928 20.709 15.192 20.696 15.462 20.684 15.732 20.565 15.986 20.365 16.168L19.729 16.747 20.537 17.635Z" fill="black"/>
<path fill-rule="evenodd" clip-rule="evenodd" d="M5.171 2.516C5.162 2.506 5.154 2.496 5.145 2.486L4.58 1.864C4.357 1.619 3.978 1.601 3.733 1.823 3.488 2.046 3.469 2.425 3.692 2.67L5.97 5.176 0.58 10.087C0.335 10.31 0.317 10.689 0.54 10.934L10.359 21.712C11.044 22.465 12.001 22.914 13.019 22.962 14.036 23.009 15.031 22.65 15.784 21.965L18.764 19.25 19.892 20.491C20.115 20.736 20.494 20.754 20.739 20.531 20.974 20.318 21.001 19.961 20.807 19.716L20.78 19.684 5.171 2.516ZM6.354 9.208L3.205 12.077 1.831 10.57 6.777 6.064 17.956 18.362 14.976 21.078C14.458 21.549 13.774 21.796 13.075 21.763 12.375 21.73 11.717 21.421 11.246 20.904L4.013 12.964 7.162 10.095C7.407 9.872 7.425 9.492 7.202 9.247 6.979 9.003 6.599 8.985 6.354 9.208Z" fill="black"/>
</g>
<defs>
<clipPath id="clip0_1013_695">
<rect width="24" height="24" fill="white"/>
</clipPath>
</defs>
</svg>