<svg width="24" height="24" viewBox="0 0 24 24" fill="none" xmlns="http://www.w3.org/2000/svg">
<g clip-path="url(#clip0_2171_44553)">
<path fill-rule="evenodd" clip-rule="evenodd" d="M20.9087 13.6635L17.591 10.6233C17.5118 10.5508 17.4491 10.462 17.4071 10.3631C17.3652 10.2642 17.345 10.1574 17.3479 10.05C17.3509 9.94256 17.3768 9.83704 17.4241 9.74054C17.4713 9.64405 17.5388 9.55883 17.6218 9.49066L21.1378 6.75264C21.541 6.31268 21.7528 5.73059 21.7268 5.13442C21.7008 4.53825 21.439 3.97684 20.999 3.57369C20.5591 3.17054 19.977 2.95868 19.3808 2.98471C18.7846 3.01074 18.2232 3.27253 17.8201 3.71249L15.3989 7.45376C15.3383 7.54243 15.2592 7.61704 15.1672 7.67252C15.0752 7.728 14.9724 7.76307 14.8656 7.77534C14.7589 7.78761 14.6507 7.77681 14.5485 7.74366C14.4463 7.71051 14.3524 7.65578 14.2732 7.58319L10.9555 4.54304C10.6622 4.27427 10.2741 4.13303 9.87667 4.15038C9.77607 4.15477 9.67696 4.16924 9.58067 4.19314C9.29652 4.26369 9.03692 4.4165 8.83618 4.63557L8.63166 4.85876L20.8 16.0032L21.0021 15.7826C21.2709 15.4893 21.4122 15.1012 21.3948 14.7038C21.3774 14.3063 21.202 13.9323 20.9087 13.6635Z" fill="black" fill-opacity="0.2"/>
<path d="M8.72633 3.7561C8.37788 3.98006 8.27698 4.44409 8.50094 4.79253C8.72491 5.14098 9.18894 5.24188 9.53738 5.01792L9.13185 4.38701L8.72633 3.7561ZM10.9563 4.54289L10.4496 5.09585V5.09585L10.9563 4.54289ZM14.2741 7.58305L14.7808 7.0301L14.7808 7.03009L14.2741 7.58305ZM14.8665 7.7752L14.7808 7.0301H14.7808L14.8665 7.7752ZM15.3998 7.45361L16.0187 7.87712C16.0224 7.87182 16.0259 7.86648 16.0294 7.86109L15.3998 7.45361ZM17.8209 3.71235L17.268 3.20565C17.2397 3.23652 17.214 3.26971 17.1913 3.30487L17.8209 3.71235ZM21.1387 6.7525L21.5995 7.34424C21.6325 7.31852 21.6633 7.29007 21.6916 7.25919L21.1387 6.7525ZM17.6227 9.49052L17.1618 8.89877C17.1568 8.90272 17.1518 8.90673 17.1468 8.9108L17.6227 9.49052ZM17.3488 10.0498L18.0985 10.0702V10.0702L17.3488 10.0498ZM17.5918 10.6232L18.0985 10.0702L18.0985 10.0702L17.5918 10.6232ZM20.9096 13.6634L21.4163 13.1104V13.1104L20.9096 13.6634ZM21.3948 14.7038L22.144 14.6711V14.6711L21.3948 14.7038ZM21.0021 15.7827L21.5551 16.2894V16.2894L21.0021 15.7827ZM20.247 15.4966C19.9672 15.802 19.9879 16.2764 20.2933 16.5562C20.5987 16.8361 21.0731 16.8153 21.3529 16.5099L20.8 16.0033L20.247 15.4966ZM8.07871 4.35197C7.79888 4.65736 7.81959 5.13178 8.12498 5.41162C8.43037 5.69146 8.90479 5.67074 9.18463 5.36535L8.63167 4.85866L8.07871 4.35197ZM8.83619 4.63547L8.28323 4.12877V4.12877L8.83619 4.63547ZM16.4418 20.7592L16.9948 21.2659V21.2659L16.4418 20.7592ZM14.3609 21.7296L14.3936 22.4789V22.4789L14.3609 21.7296ZM12.2032 20.9443L12.7099 20.3913L12.2032 20.9443ZM2.25 11.8238L1.69704 11.3171C1.56266 11.4638 1.49204 11.6578 1.50071 11.8565C1.50939 12.0552 1.59665 12.2424 1.74331 12.3767L2.25 11.8238ZM7.09613 7.64531C7.37597 7.33992 7.35525 6.8655 7.04986 6.58566C6.74447 6.30582 6.27005 6.32653 5.99021 6.63192L6.54317 7.13862L7.09613 7.64531ZM3.90887 13.3437C3.62903 13.6491 3.64974 14.1235 3.95514 14.4034C4.26053 14.6832 4.73495 14.6625 5.01479 14.3571L4.46183 13.8504L3.90887 13.3437ZM8.05494 11.0394C8.33478 10.734 8.31407 10.2596 8.00868 9.97972C7.70329 9.69988 7.22886 9.72059 6.94903 10.026L7.50198 10.5327L8.05494 11.0394ZM4.28311 3.91737C3.97761 3.63766 3.50319 3.65857 3.22348 3.96408C2.94377 4.26958 2.96468 4.744 3.27018 5.02371L3.77665 4.47054L4.28311 3.91737ZM19.717 20.082C20.0225 20.3617 20.497 20.3408 20.7767 20.0353C21.0564 19.7298 21.0355 19.2553 20.73 18.9756L20.2235 19.5288L19.717 20.082ZM9.13185 4.38701L9.53738 5.01792C9.64811 4.94675 9.77655 4.90536 9.91023 4.89952L9.87751 4.15024L9.8448 3.40095C9.44367 3.41847 9.05829 3.54272 8.72633 3.7561L9.13185 4.38701ZM9.87751 4.15024L9.91023 4.89952C10.1089 4.89085 10.303 4.96147 10.4496 5.09585L10.9563 4.54289L11.463 3.98994C11.0231 3.58678 10.441 3.37492 9.8448 3.40095L9.87751 4.15024ZM10.9563 4.54289L10.4496 5.09585L13.7674 8.13601L14.2741 7.58305L14.7808 7.03009L11.463 3.98994L10.9563 4.54289ZM14.2741 7.58305L13.7674 8.13599C13.9258 8.28117 14.1136 8.39062 14.318 8.45692L14.5494 7.74351L14.7808 7.0301V7.0301L14.2741 7.58305ZM14.5494 7.74351L14.318 8.45692C14.5224 8.52322 14.7386 8.54483 14.9521 8.52029L14.8665 7.7752L14.7808 7.0301H14.7808L14.5494 7.74351ZM14.8665 7.7752L14.9521 8.52029C15.1656 8.49574 15.3713 8.42561 15.5554 8.31464L15.1681 7.67237L14.7808 7.0301H14.7808L14.8665 7.7752ZM15.1681 7.67237L15.5554 8.31464C15.7394 8.20368 15.8974 8.05447 16.0187 7.87712L15.3998 7.45361L14.7808 7.03011L14.7808 7.0301L15.1681 7.67237ZM15.3998 7.45361L16.0294 7.86109L18.4506 4.11982L17.8209 3.71235L17.1913 3.30487L14.7701 7.04613L15.3998 7.45361ZM17.8209 3.71235L18.3739 4.21904C18.6426 3.92573 19.0169 3.7512 19.4144 3.73385L19.3816 2.98457L19.3489 2.23528C18.554 2.26999 17.8055 2.61904 17.268 3.20565L17.8209 3.71235ZM19.3816 2.98457L19.4144 3.73385C19.8118 3.7165 20.1999 3.85774 20.4932 4.12651L20.9999 3.57355L21.5066 3.02059C20.9199 2.48306 20.1438 2.20057 19.3489 2.23528L19.3816 2.98457ZM21.7277 5.13428L20.9784 5.167C20.9957 5.56444 20.8545 5.9525 20.5857 6.24581L21.1387 6.7525L21.6916 7.25919C22.2292 6.67258 22.5116 5.89646 22.4769 5.10157L21.7277 5.13428ZM21.1387 6.7525L20.6779 6.16076L17.1618 8.89877L17.6227 9.49052L18.0835 10.0823L21.5995 7.34424L21.1387 6.7525ZM17.6227 9.49052L17.1468 8.9108C16.9807 9.04714 16.8458 9.21757 16.7513 9.41057L17.4249 9.7404L18.0985 10.0702V10.0702L17.6227 9.49052ZM17.4249 9.7404L16.7513 9.41057C16.6568 9.60356 16.6049 9.8146 16.5991 10.0294L17.3488 10.0498L18.0985 10.0702V10.0702L17.4249 9.7404ZM17.3488 10.0498L16.5991 10.0294C16.5932 10.2442 16.6336 10.4578 16.7174 10.6556L17.408 10.3629L18.0985 10.0702V10.0702L17.3488 10.0498ZM17.408 10.3629L16.7174 10.6556C16.8013 10.8535 16.9267 11.031 17.0851 11.1762L17.5918 10.6232L18.0985 10.0702V10.0702L17.408 10.3629ZM17.5918 10.6232L17.0851 11.1762L20.4029 14.2163L20.9096 13.6634L21.4163 13.1104L18.0985 10.0702L17.5918 10.6232ZM20.9096 13.6634L20.4029 14.2163C20.5495 14.3507 20.6368 14.5378 20.6455 14.7366L21.3948 14.7038L22.144 14.6711C22.118 14.075 21.8562 13.5136 21.4163 13.1104L20.9096 13.6634ZM21.0021 15.7827L20.4491 15.276L20.247 15.4966L20.8 16.0033L21.3529 16.5099L21.5551 16.2894L21.0021 15.7827ZM20.9999 3.57355L20.4932 4.12651C20.7865 4.39527 20.961 4.76955 20.9784 5.167L21.7277 5.13428L22.4769 5.10157C22.4422 4.30667 22.0932 3.55812 21.5066 3.02059L20.9999 3.57355ZM21.3948 14.7038L20.6455 14.7366C20.6541 14.9353 20.5835 15.1293 20.4491 15.276L21.0021 15.7827L21.5551 16.2894C21.9582 15.8494 22.1701 15.2673 22.144 14.6711L21.3948 14.7038ZM8.63167 4.85866L9.18463 5.36535L9.38915 5.14216L8.83619 4.63547L8.28323 4.12877L8.07871 4.35197L8.63167 4.85866ZM8.83619 4.63547L9.38915 5.14216C9.52324 4.99583 9.71107 4.90822 9.91023 4.89952L9.87751 4.15024L9.8448 3.40095C9.24906 3.42696 8.68668 3.68849 8.28323 4.12877L8.83619 4.63547ZM18.2942 18.7377L17.7413 18.231L15.8889 20.2525L16.4418 20.7592L16.9948 21.2659L18.8472 19.2444L18.2942 18.7377ZM16.4418 20.7592L15.8889 20.2525C15.4857 20.6925 14.9243 20.9543 14.3282 20.9803L14.3609 21.7296L14.3936 22.4789C15.3872 22.4355 16.3229 21.9992 16.9948 21.2659L16.4418 20.7592ZM14.3609 21.7296L14.3282 20.9803C13.732 21.0063 13.1499 20.7944 12.7099 20.3913L12.2032 20.9443L11.6966 21.4972C12.4298 22.1691 13.4 22.5222 14.3936 22.4789L14.3609 21.7296ZM2.25 11.8238L2.80296 12.3305L7.09613 7.64531L6.54317 7.13862L5.99021 6.63192L1.69704 11.3171L2.25 11.8238ZM12.2032 20.9443L12.7099 20.3913L2.75669 11.2708L2.25 11.8238L1.74331 12.3767L11.6966 21.4972L12.2032 20.9443ZM4.46183 13.8504L5.01479 14.3571L8.05494 11.0394L7.50198 10.5327L6.94903 10.026L3.90887 13.3437L4.46183 13.8504ZM3.77665 4.47054L3.27018 5.02371L19.717 20.082L20.2235 19.5288L20.73 18.9756L4.28311 3.91737L3.77665 4.47054Z" fill="black"/>
</g>
<defs>
<clipPath id="clip0_2171_44553">
<rect width="24" height="24" fill="white"/>
</clipPath>
</defs>
</svg>
