<svg xmlns="http://www.w3.org/2000/svg" width="24" height="24" fill="currentColor" viewBox="0 0 24 24"><path d="M20.1 3.9v17.01a0.81 0.81 0 0 1-0.81 0.81H4.71a0.81 0.81 0 0 1-0.81-0.81V3.9a0.81 0.81 0 0 1 0.81-0.81H8.76A4.032 4.032 0 0 0 7.95 5.52v0.81h8.1V5.52a4.032 4.032 0 0 0-0.81-2.43h4.05a0.81 0.81 0 0 1 0.81 0.81" opacity=".2"/><path d="M16.05 14.43a0.81 0.81 0 0 1-0.81 0.81H8.76a0.81 0.81 0 0 1 0-1.62h6.48a0.81 0.81 0 0 1 0.81 0.81M15.24 10.38H8.76a0.81 0.81 0 0 0 0 1.62h6.48a0.81 0.81 0 0 0 0-1.62m5.67-6.48v17.01a1.62 1.62 0 0 1-1.62 1.62H4.71a1.62 1.62 0 0 1-1.62-1.62V3.9a1.62 1.62 0 0 1 1.62-1.62h3.671a4.852 4.852 0 0 1 7.237 0h3.671a1.62 1.62 0 0 1 1.62 1.62zM8.76 5.52h6.48a3.24 3.24 0 0 0-6.48 0m10.53-1.62h-2.708a4.8 4.8 0 0 1 0.278 1.62v0.81a0.81 0.81 0 0 1-0.81 0.81h-8.1a0.81 0.81 0 0 1-0.81-0.81V5.52a4.8 4.8 0 0 1 0.278-1.62H4.71v17.01h14.58z"/></svg>