<svg xmlns="http://www.w3.org/2000/svg" width="24" height="24" fill="currentColor" viewBox="0 0 24 24"><path d="M20.1 3.9v17.01a0.81 0.81 0 0 1-0.81 0.81H4.71a0.81 0.81 0 0 1-0.81-0.81V3.9a0.81 0.81 0 0 1 0.81-0.81H8.76A4.032 4.032 0 0 0 7.95 5.52v0.81h8.1V5.52a4.032 4.032 0 0 0-0.81-2.43h4.05a0.81 0.81 0 0 1 0.81 0.81" opacity=".2"/><path d="M19.29 2.28h-3.671a4.852 4.852 0 0 0-7.237 0H4.711a1.62 1.62 0 0 0-1.62 1.62v17.01a1.62 1.62 0 0 0 1.62 1.62h14.58a1.62 1.62 0 0 0 1.62-1.62V3.9a1.62 1.62 0 0 0-1.62-1.62zM12 2.28a3.24 3.24 0 0 1 3.24 3.24H8.76A3.24 3.24 0 0 1 12 2.28m7.29 18.63H4.71V3.9h2.708A4.8 4.8 0 0 0 7.14 5.52v0.81a0.81 0.81 0 0 0 0.81 0.81h8.1a0.81 0.81 0 0 0 0.81-0.81V5.52a4.8 4.8 0 0 0-0.278-1.62h2.708z"/></svg>