<svg width="24" height="24" viewBox="0 0 24 24" fill="none" xmlns="http://www.w3.org/2000/svg">
<path fill-rule="evenodd" clip-rule="evenodd" d="M12 3.06201C13.0277 3.06201 14.0135 3.47007 14.7402 4.19678C14.8096 4.26613 14.875 4.33872 14.9385 4.4126H18.0752C18.3868 4.41265 18.6859 4.53604 18.9062 4.75635C19.1264 4.97663 19.2499 5.27596 19.25 5.5874V19.7622C19.2499 20.0735 19.1263 20.373 18.9062 20.5933C18.686 20.8134 18.3866 20.9379 18.0752 20.938H5.9248C5.61336 20.9379 5.31404 20.8134 5.09375 20.5933C4.87369 20.373 4.75013 20.0735 4.75 19.7622V5.5874C4.75005 5.27596 4.87359 4.97663 5.09375 4.75635C5.31406 4.53604 5.61325 4.41265 5.9248 4.4126H9.06152C9.12499 4.33872 9.19042 4.26613 9.25977 4.19678C9.98647 3.47007 10.9723 3.06201 12 3.06201ZM5.9248 5.4126C5.87846 5.41265 5.83355 5.43061 5.80078 5.46338C5.76816 5.49613 5.75005 5.54118 5.75 5.5874V19.7622C5.75013 19.8083 5.76826 19.8536 5.80078 19.8862C5.83353 19.9189 5.87858 19.9379 5.9248 19.938H18.0752C18.1214 19.9379 18.1665 19.9189 18.1992 19.8862C18.2317 19.8536 18.2499 19.8083 18.25 19.7622V5.5874C18.2499 5.54117 18.2318 5.49613 18.1992 5.46338C18.1664 5.43061 18.1215 5.41265 18.0752 5.4126H15.5615C15.7658 5.88998 15.875 6.40773 15.875 6.93701V7.61182C15.875 7.88796 15.6511 8.11182 15.375 8.11182H8.625C8.34886 8.11182 8.125 7.88796 8.125 7.61182V6.93701C8.125 6.40773 8.23423 5.88998 8.43848 5.4126H5.9248ZM12 4.06201C11.2375 4.06201 10.506 4.36464 9.9668 4.90381C9.42763 5.44298 9.125 6.17451 9.125 6.93701V7.11182H14.875V6.93701C14.875 6.17451 14.5724 5.44298 14.0332 4.90381C13.494 4.36464 12.7625 4.06201 12 4.06201Z" fill="black"/>
<path d="M13.5303 10.4155C13.6478 10.4155 13.7635 10.4424 13.8682 10.4937L13.9688 10.5532L14.0596 10.6274C14.1159 10.6811 14.1635 10.743 14.2012 10.811L14.25 10.9175L14.8545 12.5591L16.498 13.1655C16.6084 13.2063 16.7086 13.2715 16.7891 13.356L16.8623 13.4468L16.9219 13.5474C16.9733 13.6521 17 13.7676 17 13.8853C17 14.0421 16.9519 14.1951 16.8623 14.3237C16.7727 14.4523 16.6461 14.5506 16.499 14.605L14.8555 15.2104L14.25 16.853C14.1957 17.0001 14.0974 17.1277 13.9688 17.2173C13.8401 17.3069 13.6871 17.355 13.5303 17.355C13.3735 17.3549 13.2205 17.3069 13.0918 17.2173C12.9632 17.1276 12.8649 17.001 12.8105 16.854L12.2041 15.2095L10.5625 14.605C10.4153 14.5507 10.2879 14.4524 10.1982 14.3237C10.1087 14.1951 10.0605 14.042 10.0605 13.8853C10.0606 13.7285 10.1086 13.5754 10.1982 13.4468L10.2725 13.356C10.3529 13.2716 10.4522 13.2062 10.5625 13.1655L12.2041 12.5591L12.8105 10.9175L12.8594 10.811C12.9159 10.709 12.9952 10.6205 13.0918 10.5532L13.1924 10.4937C13.297 10.4423 13.4127 10.4156 13.5303 10.4155ZM13.0635 13.1226C13.0128 13.2598 12.9048 13.3678 12.7676 13.4185L11.5 13.8853L12.7676 14.3521L12.8643 14.4009C12.9551 14.4591 13.0255 14.5459 13.0635 14.6489L13.5303 15.9146L13.9971 14.6489L14.0459 14.5513C14.1041 14.4606 14.191 14.39 14.2939 14.3521L15.5596 13.8853L14.2939 13.4185C14.1566 13.3678 14.0477 13.2599 13.9971 13.1226L13.5303 11.855L13.0635 13.1226Z" fill="black"/>
<path d="M10.5566 9.40479C10.8326 9.40505 11.0566 9.62978 11.0566 9.90576V10.4155H11.5664C11.8424 10.4157 12.0664 10.6395 12.0664 10.9155C12.0664 11.1916 11.8424 11.4154 11.5664 11.4155H11.0566V11.9253C11.0564 12.201 10.8324 12.425 10.5566 12.4253C10.2807 12.4253 10.0569 12.2012 10.0566 11.9253V11.4155H9.54688C9.27073 11.4155 9.04688 11.1917 9.04688 10.9155C9.04688 10.6394 9.27073 10.4155 9.54688 10.4155H10.0566V9.90576C10.0566 9.62962 10.2805 9.40479 10.5566 9.40479Z" fill="black"/>
<path fill-rule="evenodd" clip-rule="evenodd" d="M5.80078 5.46338C5.83355 5.43061 5.87846 5.41265 5.9248 5.4126H8.43848C8.23423 5.88998 8.125 6.40773 8.125 6.93701V7.61182C8.125 7.88796 8.34886 8.11182 8.625 8.11182H15.375C15.6511 8.11182 15.875 7.88796 15.875 7.61182V6.93701C15.875 6.40773 15.7658 5.88998 15.5615 5.4126H18.0752C18.1215 5.41265 18.1664 5.43061 18.1992 5.46338C18.2318 5.49613 18.2499 5.54117 18.25 5.5874V19.7622C18.2499 19.8083 18.2317 19.8536 18.1992 19.8862C18.1665 19.9189 18.1214 19.9379 18.0752 19.938H5.9248C5.87858 19.9379 5.83353 19.9189 5.80078 19.8862C5.76826 19.8536 5.75013 19.8083 5.75 19.7622V5.5874C5.75005 5.54118 5.76816 5.49613 5.80078 5.46338ZM13.5303 10.4155C13.6478 10.4155 13.7635 10.4424 13.8682 10.4937L13.9688 10.5532L14.0596 10.6274C14.1159 10.6811 14.1635 10.743 14.2012 10.811L14.25 10.9175L14.8545 12.5591L16.498 13.1655C16.6084 13.2063 16.7086 13.2715 16.7891 13.356L16.8623 13.4468L16.9219 13.5474C16.9733 13.6521 17 13.7676 17 13.8853C17 14.0421 16.9519 14.1951 16.8623 14.3237C16.7727 14.4523 16.6461 14.5506 16.499 14.605L14.8555 15.2104L14.25 16.853C14.1957 17.0001 14.0974 17.1277 13.9688 17.2173C13.8401 17.3069 13.6871 17.355 13.5303 17.355C13.3735 17.3549 13.2205 17.3069 13.0918 17.2173C12.9632 17.1276 12.8649 17.001 12.8105 16.854L12.2041 15.2095L10.5625 14.605C10.4153 14.5507 10.2879 14.4524 10.1982 14.3237C10.1087 14.1951 10.0605 14.042 10.0605 13.8853C10.0606 13.7285 10.1086 13.5754 10.1982 13.4468L10.2725 13.356C10.3529 13.2716 10.4522 13.2062 10.5625 13.1655L12.2041 12.5591L12.8105 10.9175L12.8594 10.811C12.9159 10.709 12.9952 10.6205 13.0918 10.5532L13.1924 10.4937C13.297 10.4423 13.4127 10.4156 13.5303 10.4155ZM10.5566 9.40479C10.8326 9.40505 11.0566 9.62978 11.0566 9.90576V10.4155H11.5664C11.8424 10.4157 12.0664 10.6395 12.0664 10.9155C12.0664 11.1916 11.8424 11.4154 11.5664 11.4155H11.0566V11.9253C11.0564 12.201 10.8324 12.425 10.5566 12.4253C10.2807 12.4253 10.0569 12.2012 10.0566 11.9253V11.4155H9.54688C9.27073 11.4155 9.04688 11.1917 9.04688 10.9155C9.04688 10.6394 9.27073 10.4155 9.54688 10.4155H10.0566V9.90576C10.0566 9.62962 10.2805 9.40479 10.5566 9.40479Z" fill="black" fill-opacity="0.2"/>
<path fill-rule="evenodd" clip-rule="evenodd" d="M12.7676 13.4185C12.9048 13.3678 13.0128 13.2598 13.0635 13.1226L13.5303 11.855L13.9971 13.1226C14.0477 13.2599 14.1566 13.3678 14.2939 13.4185L15.5596 13.8853L14.2939 14.3521C14.191 14.39 14.1041 14.4606 14.0459 14.5513L13.9971 14.6489L13.5303 15.9146L13.0635 14.6489C13.0255 14.5459 12.9551 14.4591 12.8643 14.4009L12.7676 14.3521L11.5 13.8853L12.7676 13.4185Z" fill="black" fill-opacity="0.2"/>
</svg>
