<svg viewBox="0 0 24 24" fill="none" xmlns="http://www.w3.org/2000/svg" width="24" height="24">
<path fill-rule="evenodd" clip-rule="evenodd" d="M9.25 3.841C9.244 3.85 9.237 3.859 9.23 3.868 8.791 4.459 8.55 5.18 8.55 5.925V6.135H15.45V5.925C15.45 5.18 15.209 4.459 14.77 3.868 14.763 3.859 14.757 3.85 14.75 3.841 14.658 3.72 14.558 3.604 14.45 3.495H15.24 19.29C19.505 3.495 19.711 3.58 19.863 3.732 20.015 3.884 20.1 4.09 20.1 4.305V21.315C20.1 21.53 20.015 21.736 19.863 21.888 19.711 22.04 19.505 22.125 19.29 22.125H4.71C4.495 22.125 4.289 22.04 4.137 21.888 3.985 21.736 3.9 21.53 3.9 21.315V4.305C3.9 4.09 3.985 3.884 4.137 3.732 4.289 3.58 4.495 3.495 4.71 3.495H8.76 9.55C9.442 3.604 9.342 3.72 9.25 3.841Z" fill="black" fill-opacity="0.2"/>
<path d="M3.3 21.315V4.305C3.3 3.931 3.448 3.572 3.713 3.308 3.977 3.043 4.336 2.895 4.71 2.895H8.76C9.091 2.895 9.36 3.164 9.36 3.495 9.36 3.624 9.319 3.743 9.25 3.841 9.244 3.85 9.237 3.859 9.23 3.868 9.12 4.006 8.95 4.095 8.76 4.095H4.71C4.654 4.095 4.6 4.117 4.561 4.156 4.522 4.195 4.5 4.249 4.5 4.305V21.315C4.5 21.37 4.522 21.424 4.561 21.463 4.6 21.503 4.654 21.525 4.71 21.525H19.29C19.346 21.525 19.4 21.503 19.439 21.463 19.478 21.424 19.5 21.37 19.5 21.315V4.305C19.5 4.249 19.478 4.195 19.439 4.156 19.4 4.117 19.346 4.095 19.29 4.095H15.24C15.05 4.095 14.88 4.006 14.77 3.868 14.763 3.859 14.757 3.85 14.75 3.841 14.681 3.743 14.64 3.624 14.64 3.495 14.64 3.164 14.909 2.895 15.24 2.895H19.29C19.664 2.895 20.023 3.043 20.287 3.308 20.552 3.572 20.7 3.931 20.7 4.305V21.315C20.7 21.688 20.552 22.047 20.287 22.312 20.023 22.576 19.664 22.725 19.29 22.725H4.71C4.336 22.725 3.977 22.576 3.713 22.312 3.448 22.047 3.3 21.688 3.3 21.315Z" fill="black"/>
<path d="M15.45 5.925C15.45 5.18 15.209 4.459 14.77 3.868 14.763 3.859 14.757 3.85 14.75 3.841 14.655 3.716 14.552 3.597 14.44 3.485 13.793 2.838 12.915 2.475 12 2.475 11.085 2.475 10.207 2.838 9.56 3.485 9.448 3.597 9.345 3.716 9.25 3.841 9.244 3.85 9.237 3.859 9.23 3.868 8.791 4.459 8.55 5.18 8.55 5.925V6.135H15.45V5.925ZM16.65 6.735C16.65 7.066 16.381 7.335 16.05 7.335H7.95C7.619 7.335 7.35 7.066 7.35 6.735V5.925C7.35 4.692 7.84 3.509 8.712 2.637 9.584 1.765 10.767 1.275 12 1.275 13.233 1.275 14.416 1.765 15.288 2.637 16.16 3.509 16.65 4.692 16.65 5.925V6.735Z" fill="black"/>
<path d="M9.811 16.136C9.606 16.136 9.44 16.088 9.312 15.992 9.184 15.89 9.081 15.736 9.004 15.531L7.065 10.078C6.982 9.835 6.998 9.627 7.113 9.454 7.235 9.282 7.443 9.195 7.737 9.195 7.942 9.195 8.099 9.243 8.208 9.339 8.323 9.435 8.416 9.586 8.486 9.79L10.07 14.504H9.657L11.328 9.8C11.404 9.595 11.497 9.445 11.606 9.349 11.721 9.246 11.871 9.195 12.057 9.195 12.236 9.195 12.38 9.246 12.489 9.349 12.598 9.445 12.691 9.598 12.768 9.81L14.361 14.504H14.006L15.619 9.79C15.683 9.592 15.772 9.445 15.888 9.349 16.003 9.246 16.16 9.195 16.358 9.195 16.608 9.195 16.79 9.282 16.905 9.454 17.02 9.627 17.033 9.835 16.944 10.078L14.985 15.541C14.915 15.739 14.819 15.89 14.697 15.992 14.576 16.088 14.409 16.136 14.198 16.136 13.993 16.136 13.83 16.088 13.708 15.992 13.587 15.89 13.488 15.736 13.411 15.531L11.894 11.24H12.124L10.588 15.541C10.512 15.739 10.412 15.89 10.291 15.992 10.176 16.088 10.016 16.136 9.811 16.136Z" fill="black"/>
</svg>