<svg width="24" height="24" viewBox="0 0 24 24" fill="none" xmlns="http://www.w3.org/2000/svg">
<path fill-rule="evenodd" clip-rule="evenodd" d="M15.75 7.5C16.1642 7.5 16.5 7.16421 16.5 6.74572V5.99572C16.5 5.47976 16.4113 4.97299 16.2425 4.49573H18.75V20.2457H5.25V4.49573H7.75754C7.58867 4.97299 7.5 5.47976 7.5 5.99572V6.74572C7.5 7.16421 7.83579 7.5 8.25 7.5H15.75Z" fill="black" fill-opacity="0.2"/>
<path d="M15 3.74573H18.75C18.9489 3.74573 19.1397 3.82475 19.2803 3.9654C19.421 4.10605 19.5 4.29681 19.5 4.49573V20.2457C19.5 20.4446 19.421 20.6354 19.2803 20.776C19.1397 20.9167 18.9489 20.9957 18.75 20.9957H5.25C5.05109 20.9957 4.86032 20.9167 4.71967 20.776C4.57902 20.6354 4.5 20.4446 4.5 20.2457V4.49573C4.5 4.29681 4.57902 4.10605 4.71967 3.9654C4.86032 3.82475 5.05109 3.74573 5.25 3.74573H9M9.044 11.9376L6.82666 13.7854L9.044 15.6332M14.9565 11.9376L17.1739 13.7854L14.9565 15.6332M13.4784 9.72083L10.522 17.8511M8.25 6.74572V5.99572C8.25 5.00116 8.64509 4.04734 9.34835 3.34408C10.0516 2.64082 11.0054 2.24573 12 2.24573C12.9946 2.24573 13.9484 2.64082 14.6516 3.34408C15.3549 4.04734 15.75 5.00116 15.75 5.99572V6.74572H8.25Z" stroke="black" stroke-width="1.5" stroke-linecap="round" stroke-linejoin="round"/>
</svg>
