<svg xmlns="http://www.w3.org/2000/svg" width="24" height="24" fill="currentColor" viewBox="0 0 24 24"><path d="M23.34 5.52v12.96a0.81 0.81 0 0 1-0.81 0.81H1.47a0.81 0.81 0 0 1-0.81-0.81V5.52a0.81 0.81 0 0 1 0.81-0.81h21.06a0.81 0.81 0 0 1 0.81 0.81" opacity=".2"/><path d="M22.53 3.9H1.47a1.62 1.62 0 0 0-1.62 1.62v12.96a1.62 1.62 0 0 0 1.62 1.62h21.06a1.62 1.62 0 0 0 1.62-1.62V5.52a1.62 1.62 0 0 0-1.62-1.62m0 14.58H1.47V5.52h21.06zM12 9.57v4.86a0.81 0.81 0 0 1-1.62 0v-2.905l-1.856 1.857a0.81 0.81 0 0 1-1.146 0l-1.857-1.857v2.905a0.81 0.81 0 0 1-1.62 0v-4.86a0.81 0.81 0 0 1 1.384-0.574l2.666 2.668 2.667-2.668a0.81 0.81 0 0 1 1.383 0.574z m7.864 1.856a0.81 0.81 0 0 1 0 1.146l-2.43 2.43a0.81 0.81 0 0 1-1.146 0l-2.43-2.43a0.81 0.81 0 0 1 1.146-1.146l1.046 1.048V9.569a0.81 0.81 0 0 1 1.62 0v2.905l1.046-1.048a0.81 0.81 0 0 1 1.146 0z"/></svg>