<svg width="24" height="24" viewBox="0 0 24 24" fill="none" xmlns="http://www.w3.org/2000/svg">
<path fill-rule="evenodd" clip-rule="evenodd" d="M9.45363 3.87198C9.4476 3.88051 9.44134 3.88887 9.43485 3.89703C9.02847 4.4445 8.80545 5.11167 8.80545 5.80165V5.99588H15.1943V5.80165C15.1943 5.11167 14.9713 4.4445 14.5649 3.89703C14.5584 3.88887 14.5522 3.88051 14.5462 3.87198C14.4611 3.75976 14.3683 3.6527 14.2681 3.55165H18.7499C18.9488 3.55165 19.1396 3.63067 19.2802 3.77132C19.4209 3.91197 19.4999 4.10274 19.4999 4.30165V20.0516C19.4999 20.2506 19.4209 20.4413 19.2802 20.582C19.1396 20.7226 18.9488 20.8017 18.7499 20.8017H5.24989C5.05098 20.8017 4.86021 20.7226 4.71956 20.582C4.57891 20.4413 4.49989 20.2506 4.49989 20.0516V4.30165C4.49989 4.10274 4.57891 3.91197 4.71956 3.77132C4.86021 3.63067 5.05098 3.55165 5.24989 3.55165H9.7317C9.63146 3.6527 9.53865 3.75976 9.45363 3.87198Z" fill="black" fill-opacity="0.2"/>
<path d="M3.94434 20.0512V4.30143C3.94439 3.95526 4.08149 3.62283 4.32628 3.37804C4.57107 3.13325 4.9035 2.99615 5.24967 2.99609H8.99967C9.3065 2.99609 9.55523 3.24482 9.55523 3.55165C9.55523 3.67095 9.51763 3.78146 9.45363 3.87198C9.4476 3.88051 9.44134 3.88887 9.43485 3.89703C9.33308 4.02509 9.17596 4.1072 8.99967 4.1072H5.24967C5.19818 4.10726 5.14829 4.12721 5.11187 4.16363C5.07546 4.20004 5.0555 4.24994 5.05545 4.30143V20.0512C5.05545 20.1026 5.07561 20.1526 5.11187 20.189C5.14828 20.2254 5.19818 20.2465 5.24967 20.2465H18.7501C18.8016 20.2465 18.8515 20.2254 18.8879 20.189C18.9242 20.1526 18.9443 20.1026 18.9443 20.0512V4.30143C18.9443 4.24994 18.9243 4.20004 18.8879 4.16363C18.8515 4.12721 18.8016 4.10726 18.7501 4.1072H15.0001C14.8238 4.1072 14.6667 4.02509 14.5649 3.89703C14.5584 3.88887 14.5522 3.88051 14.5462 3.87198C14.4822 3.78146 14.4446 3.67095 14.4446 3.55165C14.4446 3.24482 14.6933 2.99609 15.0001 2.99609H18.7501C19.0963 2.99615 19.4287 3.13325 19.6735 3.37804C19.9183 3.62283 20.0554 3.95526 20.0554 4.30143V20.0512C20.0554 20.3973 19.9181 20.7298 19.6735 20.9746C19.4287 21.2194 19.0963 21.3576 18.7501 21.3576H5.24967C4.9035 21.3576 4.57107 21.2194 4.32628 20.9746C4.08164 20.7298 3.94434 20.3973 3.94434 20.0512Z" fill="black"/>
<path d="M15.1943 5.80165C15.1943 5.11167 14.9713 4.4445 14.5649 3.89703C14.5584 3.88887 14.5522 3.88051 14.5462 3.87198C14.4586 3.75638 14.3627 3.64625 14.259 3.54253C13.6599 2.94346 12.8471 2.6072 11.9999 2.6072C11.1527 2.6072 10.3399 2.94346 9.74078 3.54253C9.63706 3.64625 9.54121 3.75638 9.45363 3.87198C9.4476 3.88051 9.44134 3.88887 9.43485 3.89703C9.02847 4.4445 8.80545 5.11167 8.80545 5.80165V5.99588H15.1943V5.80165ZM16.3054 6.55143C16.3054 6.85826 16.0567 7.10699 15.7499 7.10699H8.24989C7.94307 7.10699 7.69434 6.85826 7.69434 6.55143V5.80165C7.69434 4.65975 8.14774 3.56439 8.95519 2.75694C9.76263 1.9495 10.858 1.49609 11.9999 1.49609C13.1418 1.49609 14.2371 1.9495 15.0446 2.75694C15.852 3.56439 16.3054 4.65975 16.3054 5.80165V6.55143Z" fill="black"/>
<path d="M15 3.74573H18.75C18.9489 3.74573 19.1397 3.82475 19.2803 3.9654C19.421 4.10605 19.5 4.29681 19.5 4.49573V20.2457C19.5 20.4446 19.421 20.6354 19.2803 20.776C19.1397 20.9167 18.9489 20.9957 18.75 20.9957H5.25C5.05109 20.9957 4.86032 20.9167 4.71967 20.776C4.57902 20.6354 4.5 20.4446 4.5 20.2457V4.49573C4.5 4.29681 4.57902 4.10605 4.71967 3.9654C4.86032 3.82475 5.05109 3.74573 5.25 3.74573H9M9.044 11.9376L6.82666 13.7854L9.044 15.6332M14.9565 11.9376L17.1739 13.7854L14.9565 15.6332M13.4784 9.72083L10.522 17.8511M8.25 6.74572V5.99572C8.25 5.00116 8.64509 4.04734 9.34835 3.34408C10.0516 2.64082 11.0054 2.24573 12 2.24573C12.9946 2.24573 13.9484 2.64082 14.6516 3.34408C15.3549 4.04734 15.75 5.00116 15.75 5.99572V6.74572H8.25Z" stroke="black" stroke-width="1.5" stroke-linecap="round" stroke-linejoin="round"/>
</svg>
