<svg width="24" height="24" viewBox="0 0 24 24" fill="none" xmlns="http://www.w3.org/2000/svg">
<path d="M12 20.25C16.5563 20.25 20.25 16.5563 20.25 12C20.25 7.44365 16.5563 3.75 12 3.75C7.44365 3.75 3.75 7.44365 3.75 12C3.75 16.5563 7.44365 20.25 12 20.25Z" fill="black" fill-opacity="0.2"/>
<path d="M11.9995 7.49988V11.9999L15.7495 14.2499M2.99951 5.99988V9.74988H6.74951M2.99951 9.74988C4.15076 8.33707 5.06201 7.28331 6.16545 6.16581C7.31204 5.01925 8.77108 4.23599 10.3603 3.91391C11.9495 3.59182 13.5983 3.74519 15.1009 4.35485C16.6034 4.9645 17.8929 6.00341 18.8084 7.34177C19.7239 8.68013 20.2246 10.2586 20.2481 11.8799C20.2716 13.5013 19.8168 15.0936 18.9406 16.4579C18.0643 17.8222 16.8054 18.8981 15.3212 19.5511C13.8369 20.204 12.1932 20.4051 10.5954 20.1292C8.99749 19.8533 7.51636 19.1127 6.33701 17.9999" stroke="black" stroke-width="1.5" stroke-linecap="round" stroke-linejoin="round"/>
</svg>
