<svg xmlns="http://www.w3.org/2000/svg" width="24" height="24" fill="currentColor" viewBox="0 0 24 24"><path d="M22.53 5.52v12.96a0.81 0.81 0 0 1-0.81 0.81H2.28a0.81 0.81 0 0 1-0.81-0.81V5.52a0.81 0.81 0 0 1 0.81-0.81h19.44a0.81 0.81 0 0 1 0.81 0.81" opacity=".2"/><path d="M21.72 3.9H2.28A1.62 1.62 0 0 0 0.66 5.52v12.96a1.62 1.62 0 0 0 1.62 1.62h19.44a1.62 1.62 0 0 0 1.62-1.62V5.52a1.62 1.62 0 0 0-1.62-1.62m0 14.58H2.28V5.52h19.44z m-10.638-4.079a0.81 0.81 0 0 1-0.296 1.107 4.05 4.05 0 1 1 0-7.016 0.81 0.81 0 1 1-0.81 1.403 2.43 2.43 0 1 0 0 4.21 0.81 0.81 0 0 1 1.106 0.295z m8.1 0a0.81 0.81 0 0 1-0.296 1.107 4.05 4.05 0 1 1 0-7.016 0.81 0.81 0 1 1-0.81 1.403 2.43 2.43 0 1 0 0 4.21 0.81 0.81 0 0 1 1.106 0.295z"/></svg>