<svg width="24" height="24" viewBox="0 0 24 24" fill="none" xmlns="http://www.w3.org/2000/svg">
<path d="M21 5.25H3C2.58579 5.25 2.25 5.58579 2.25 6V18C2.25 18.4142 2.58579 18.75 3 18.75H21C21.4142 18.75 21.75 18.4142 21.75 18V6C21.75 5.58579 21.4142 5.25 21 5.25Z" fill="black" fill-opacity="0.2"/>
<path d="M10.4999 14.5988C10.0439 14.8618 9.52658 15.0002 9.00009 15C8.47359 14.9998 7.95641 14.8611 7.50051 14.5977C7.04462 14.3344 6.66605 13.9557 6.40285 13.4997C6.13966 13.0437 6.0011 12.5265 6.0011 12C6.0011 11.4735 6.13966 10.9563 6.40285 10.5003C6.66605 10.0443 7.04462 9.66561 7.50051 9.40226C7.95641 9.13891 8.47359 9.00018 9.00009 9C9.52658 8.99982 10.0439 9.13821 10.4999 9.40125M17.9999 14.5988C17.5439 14.8618 17.0266 15.0002 16.5001 15C15.9736 14.9998 15.4564 14.8611 15.0005 14.5977C14.5446 14.3344 14.1661 13.9557 13.9029 13.4997C13.6397 13.0437 13.5011 12.5265 13.5011 12C13.5011 11.4735 13.6397 10.9563 13.9029 10.5003C14.1661 10.0443 14.5446 9.66561 15.0005 9.40226C15.4564 9.13891 15.9736 9.00018 16.5001 9C17.0266 8.99982 17.5439 9.13821 17.9999 9.40125M3 5.25H21C21.4142 5.25 21.75 5.58579 21.75 6V18C21.75 18.4142 21.4142 18.75 21 18.75H3C2.58579 18.75 2.25 18.4142 2.25 18V6C2.25 5.58579 2.58579 5.25 3 5.25Z" stroke="black" stroke-width="1.5" stroke-linecap="round" stroke-linejoin="round"/>
</svg>
