<svg width="24" height="24" viewBox="0 0 24 24" fill="none" xmlns="http://www.w3.org/2000/svg">
<path d="M14.6249 2.25C13.2195 2.25019 11.8534 2.71367 10.7381 3.56869C9.62274 4.42372 8.82038 5.62259 8.45522 6.97969V6.96937C7.88857 6.7768 7.28679 6.70984 6.69166 6.77314C6.09653 6.83643 5.5223 7.02847 5.00883 7.33593C4.49535 7.64339 4.05493 8.05889 3.71812 8.55361C3.38132 9.04834 3.1562 9.61042 3.05839 10.2009C2.96058 10.7913 2.99242 11.396 3.15171 11.9729C3.31099 12.5498 3.59391 13.0851 3.98081 13.5417C4.36771 13.9983 4.84934 14.3653 5.39227 14.6171C5.9352 14.8689 6.52643 14.9996 7.12491 15H14.6249C16.3157 15 17.9372 14.3284 19.1327 13.1328C20.3283 11.9373 20.9999 10.3158 20.9999 8.625C20.9999 6.93425 20.3283 5.31274 19.1327 4.11719C17.9372 2.92165 16.3157 2.25 14.6249 2.25Z" fill="black" fill-opacity="0.2"/>
<path d="M8.24995 8.25051C8.32208 7.00658 8.75685 5.81099 9.5006 4.81129C10.2443 3.81159 11.2645 3.05153 12.4352 2.62491C13.6059 2.19829 14.8759 2.12378 16.0885 2.41058C17.3011 2.69737 18.4031 3.33292 19.2587 4.2388C20.1142 5.14467 20.6858 6.28122 20.9029 7.50818C21.12 8.73514 20.9731 9.99881 20.4803 11.1433C19.9876 12.2877 19.1705 13.2628 18.13 13.9483C17.0894 14.6337 15.871 14.9995 14.6249 15.0005H7.12495C6.5265 14.9999 5.93535 14.8692 5.3925 14.6172C4.84966 14.3653 4.36813 13.9983 3.98133 13.5417C3.59453 13.085 3.31172 12.5497 3.15253 11.9728C2.99334 11.3959 2.96157 10.7913 3.05944 10.2009C3.15731 9.61052 3.38247 9.04849 3.7193 8.55383C4.05612 8.05917 4.49654 7.64373 5.01 7.33632C5.52346 7.02891 6.09766 6.83691 6.69275 6.77363C7.28784 6.71036 7.88958 6.77732 8.4562 6.96988M11.2499 22.5002L13.4999 18.7502H9.74988L11.9999 15.0002" stroke="black" stroke-width="1.5" stroke-linecap="round" stroke-linejoin="round"/>
</svg>
