<svg xmlns="http://www.w3.org/2000/svg" fill="currentColor" viewBox="0 0 24 24" width="24" height="24"><path d="M21.72 8.356a6.888 6.888 0 0 1-6.886 6.884h-8.1A4.456 4.456 0 1 1 8.172 6.566v0.011a6.892 6.892 0 0 1 13.547 1.777z" opacity=".2"/><path d="M14.836 0.66a7.716 7.716 0 0 0-7.197 4.937 5.4 5.4 0 0 0-0.903-0.077 5.266 5.266 0 0 0 0 10.53h3.834l-1.695 2.822a0.81 0.81 0 0 0 0.695 1.228h2.62l-1.695 2.822a0.81 0.81 0 0 0 1.39 0.834l2.43-4.05a0.81 0.81 0 0 0-0.695-1.227h-2.62l1.458-2.43h2.376a7.696 7.696 0 0 0 0-15.39z m0 13.77h-8.1a3.646 3.646 0 0 1 0-7.29 3.6 3.6 0 0 1 0.483 0.031q-0.056 0.361-0.078 0.732a0.811 0.811 0 0 0 1.62 0.094 6.082 6.082 0 1 1 6.075 6.433"/></svg>