<svg width="24" height="24" viewBox="0 0 24 24" fill="none" xmlns="http://www.w3.org/2000/svg">
<rect x="3.00317" y="5.24268" width="18" height="13.5141" rx="0.833332" fill="black" fill-opacity="0.2"/>
<path d="M6.00787 5.25012L3.00055 8.31144M9 6.75012L3 12.7501M9 11.2501L3 17.2501M9 15.7501L6 18.7501M8.99927 5.24268L8.99927 18.7574M14.9996 5.24268V18.7574M8.99927 9.75741H20.9993M8.99927 14.2574H20.9993M3.83644 18.7568H20.1698C20.63 18.7568 21.0031 18.3837 21.0031 17.9235V6.07601C21.0031 5.61577 20.63 5.24268 20.1698 5.24268H3.83645C3.37621 5.24268 3.00311 5.61577 3.00311 6.07601V17.9235C3.00311 18.3837 3.37621 18.7568 3.83644 18.7568Z" stroke="black" stroke-width="1.5" stroke-linecap="round" stroke-linejoin="round"/>
</svg>
