<svg width="24" height="24" viewBox="0 0 24 24" fill="none" xmlns="http://www.w3.org/2000/svg">
<path fill-rule="evenodd" clip-rule="evenodd" d="M3 21L6.71276 17.9983H16.5078V8.99311C16.5078 8.79408 16.4287 8.60321 16.288 8.46247C16.1472 8.32174 15.9564 8.24268 15.7573 8.24268H11.1237H3.75043C3.5514 8.24268 3.36053 8.32174 3.2198 8.46247C3.07906 8.60321 3 8.79408 3 8.99311V21Z" fill="black" fill-opacity="0.2"/>
<path d="M16.5536 13.5H17.2894L21 16.5V4.5C21 4.30109 20.921 4.11032 20.7803 3.96967C20.6397 3.82902 20.4489 3.75 20.25 3.75H8.25C8.05109 3.75 7.86032 3.82902 7.71967 3.96967C7.57902 4.11032 7.5 4.30109 7.5 4.5V4.81661M16.5 14.7266V9C16.5 8.80109 16.421 8.61032 16.2803 8.46967C16.1397 8.32902 15.9489 8.25 15.75 8.25H10.6499M6.50596 8.25H3.75C3.55109 8.25 3.36032 8.32902 3.21967 8.46967C3.07902 8.61032 3 8.80109 3 9V21L6.71063 18H15.3111M3.25378 4.604L18.2538 21.104" stroke="black" stroke-width="1.5" stroke-linecap="round" stroke-linejoin="round"/>
</svg>
