<svg xmlns="http://www.w3.org/2000/svg" width="24" height="24" fill="currentColor" viewBox="0 0 24 24"><path d="M21.72 5.52v12.96a0.81 0.81 0 0 1-0.81 0.81H7.14l-3.528 3.049A0.81 0.81 0 0 1 2.28 21.72V5.52a0.81 0.81 0 0 1 0.81-0.81h17.82a0.81 0.81 0 0 1 0.81 0.81" opacity=".2"/><path d="M4.5 2.545a0.81 0.81 0 1 0-1.199 1.09l0.241 0.265h-0.451a1.62 1.62 0 0 0-1.62 1.62v16.2a1.608 1.608 0 0 0 0.936 1.468 1.68 1.68 0 0 0 0.684 0.152 1.62 1.62 0 0 0 1.039-0.383l0.009-0.007 3.307-2.85h10.825l1.231 1.355a0.81 0.81 0 1 0 1.199-1.09zM7.14 18.48a0.816 0.816 0 0 0-0.529 0.198L3.09 21.72V5.52h1.924l11.782 12.96zM22.53 5.52v12.353a0.81 0.81 0 0 1-1.62 0V5.52h-11.159a0.81 0.81 0 0 1 0-1.62h11.159a1.62 1.62 0 0 1 1.62 1.62"/></svg>