<svg width="24" height="24" viewBox="0 0 24 24" fill="none" xmlns="http://www.w3.org/2000/svg">
<g clip-path="url(#clip0_2141_3991)">
<path d="M10.4998 17.0029C10.4998 17.0892 10.5149 17.1727 10.5418 17.2499H10.4998C10.4998 15.5931 9.15664 14.2499 7.49979 14.2499C6.60386 14.25 5.79946 14.6428 5.24979 15.2656C4.70008 14.6428 3.89577 14.2499 2.99979 14.2499C2.45344 14.25 1.94099 14.3961 1.49979 14.6513V12.749H10.4998V17.0029Z" fill="black" fill-opacity="0.2"/>
<path d="M15.7498 4.49995C16.9433 4.49995 18.0885 4.97439 18.9324 5.81831C19.7761 6.66219 20.2498 7.80665 20.2498 8.99995V9.74995C21.0454 9.74995 21.8093 10.0662 22.3719 10.6289C22.9342 11.1914 23.2498 11.9545 23.2498 12.7499V17.2499C23.2498 16.6532 23.0126 16.0811 22.5906 15.6591C22.1687 15.2372 21.5965 14.9999 20.9998 14.9999C20.4032 15 19.8309 15.2372 19.409 15.6591C18.9871 16.0811 18.7498 16.6533 18.7498 17.2499H14.2498V5.24995C14.2498 5.05111 14.329 4.86031 14.4695 4.71967C14.6101 4.57909 14.801 4.50002 14.9998 4.49995H15.7498Z" fill="black" fill-opacity="0.2"/>
<path fill-rule="evenodd" clip-rule="evenodd" d="M3.72147 1.04292C4.43335 0.942503 5.15653 1.02308 5.82401 1.27729L6.10624 1.39741L7.82108 2.19721C7.8299 2.20092 7.8387 2.20486 7.84745 2.20893L7.92557 2.25092L9.58963 3.02143L9.86307 3.1601C10.4869 3.50803 11.0136 4.01016 11.3943 4.62006C11.8293 5.31711 12.055 6.12676 12.0457 6.95112C12.0444 7.05759 12.0204 7.16321 11.9754 7.25971L10.7156 9.96089C10.6706 10.0574 10.605 10.1434 10.5242 10.2128C9.89884 10.7498 9.13445 11.0969 8.32108 11.2119C7.60908 11.3124 6.88516 11.2317 6.21756 10.9775L5.93534 10.8574L4.22147 10.0576L4.19413 10.0458L2.45194 9.23335L2.1785 9.09467C1.55465 8.74672 1.02793 8.24468 0.647251 7.63471C0.212292 6.93767 -0.0134616 6.12802 -0.00411568 5.30366C-0.00283347 5.19722 0.021222 5.09154 0.0661968 4.99506L1.32596 2.29389C1.37102 2.19736 1.43655 2.11135 1.51737 2.04194C2.14286 1.50489 2.90792 1.15777 3.72147 1.04292ZM8.25565 3.081L8.25858 3.07124C8.25952 3.06743 8.25965 3.06336 8.26053 3.05952C8.2589 3.06647 8.25764 3.07361 8.25565 3.081ZM8.26053 3.05952C8.26169 3.05458 8.2634 3.04983 8.26444 3.04487C8.26821 3.02719 8.27274 3.0031 8.27518 2.9853C8.27192 3.01024 8.26618 3.03508 8.26053 3.05952Z" fill="black" fill-opacity="0.2"/>
<path d="M23.2499 17.2499C23.2499 18.4925 22.2426 19.4999 20.9999 19.4999C19.7573 19.4999 18.7499 18.4925 18.7499 17.2499M23.2499 17.2499C23.2499 16.0072 22.2426 14.9999 20.9999 14.9999C19.7573 14.9999 18.7499 16.0072 18.7499 17.2499M23.2499 17.2499V12.7499C23.2499 11.9542 22.9339 11.1912 22.3712 10.6285C21.8086 10.0659 21.0456 9.74986 20.2499 9.74986V8.99986C20.2499 7.80639 19.7758 6.66179 18.9319 5.81788C18.088 4.97397 16.9434 4.49986 15.7499 4.49986H14.9999C14.801 4.49986 14.6102 4.57888 14.4696 4.71953C14.3289 4.86018 14.2499 5.05095 14.2499 5.24986V17.2499M18.7499 17.2499H9.74993M5.24993 17.2499C5.24993 18.4925 4.24257 19.4999 2.99993 19.4999C1.75729 19.4999 0.749926 18.4925 0.749926 17.2499C0.749926 16.0072 1.75729 14.9999 2.99993 14.9999C4.24257 14.9999 5.24993 16.0072 5.24993 17.2499ZM5.24993 17.2499C5.24993 18.4925 6.25729 19.4999 7.49993 19.4999C8.74257 19.4999 9.74993 18.4925 9.74993 17.2499M5.24993 17.2499C5.24993 16.0072 6.25729 14.9999 7.49993 14.9999C8.74257 14.9999 9.74993 16.0072 9.74993 17.2499M11.2499 17.0028V11.9994H1.49993C1.30101 11.9994 1.11025 12.037 0.969596 12.104C0.828944 12.1711 0.749926 12.262 0.749926 12.3568V17.0028M10.0359 9.64387C9.51823 10.0884 8.88654 10.3751 8.21588 10.4698C7.54522 10.5645 6.86378 10.4632 6.25252 10.178L2.76886 8.55409C2.15747 8.26915 1.64187 7.81223 1.28331 7.23762C0.924748 6.66301 0.73829 5.99484 0.746084 5.3125L2.00565 2.61136C2.52334 2.16679 3.15504 1.88014 3.8257 1.78546C4.49636 1.69078 5.17779 1.79205 5.78906 2.07724L9.27272 3.70115C9.8841 3.98609 10.3997 4.443 10.7583 5.01761C11.1168 5.59223 11.3033 6.26039 11.2955 6.94273L10.0359 9.64387Z" stroke="black" stroke-width="1.5" stroke-linecap="round" stroke-linejoin="round"/>
</g>
<defs>
<clipPath id="clip0_2141_3991">
<rect width="24" height="24" fill="white"/>
</clipPath>
</defs>
</svg>
