<svg width="24" height="24" viewBox="0 0 24 24" fill="none" xmlns="http://www.w3.org/2000/svg">
<path d="M4.5 19.5C6.15685 19.5 7.5 18.1569 7.5 16.5C7.5 14.8431 6.15685 13.5 4.5 13.5C2.84315 13.5 1.5 14.8431 1.5 16.5C1.5 18.1569 2.84315 19.5 4.5 19.5Z" fill="black" fill-opacity="0.2"/>
<path d="M7.49951 16.5C7.49951 18.1569 6.15637 19.5 4.49951 19.5C2.84266 19.5 1.49951 18.1569 1.49951 16.5C1.49951 14.8431 2.84266 13.5 4.49951 13.5C6.15637 13.5 7.49951 14.8431 7.49951 16.5ZM7.49951 16.5C15.7495 16.5 11.2495 7.5 19.4995 7.5H22.4995M19.4995 10.5L22.4995 7.5L19.4995 4.5" stroke="black" stroke-width="1.5" stroke-linecap="round" stroke-linejoin="round"/>
</svg>
