<svg viewBox="0 0 24 24" fill="none" xmlns="http://www.w3.org/2000/svg" width="24" height="24">
<g opacity="0.2">
<path d="M20.582 14.431H11.433L16.007 4.711 20.582 14.431Z" fill="black"/>
<path d="M3.9 18.48C5.689 18.48 7.14 17.211 7.14 15.645 7.14 14.079 5.689 12.81 3.9 12.81 2.11 12.81 0.66 14.079 0.66 15.645 0.66 17.211 2.11 18.48 3.9 18.48Z" fill="black"/>
</g>
<path d="M16.052 4.11C16.285 4.11 16.496 4.244 16.595 4.454L23.074 18.224C23.215 18.524 23.087 18.882 22.787 19.023 22.487 19.164 22.13 19.035 21.989 18.735L16.051 6.118 10.114 18.735C9.973 19.035 9.616 19.164 9.316 19.023 9.017 18.882 8.888 18.524 9.029 18.224L15.509 4.454C15.608 4.244 15.82 4.11 16.052 4.11Z" fill="black"/>
<path d="M6.54 15.645C6.54 14.483 5.436 13.41 3.9 13.41 2.364 13.41 1.26 14.483 1.26 15.645 1.26 16.806 2.364 17.879 3.9 17.879 5.436 17.879 6.54 16.806 6.54 15.645ZM7.74 15.645C7.74 17.614 5.943 19.079 3.9 19.079 1.857 19.079 0.06 17.614 0.06 15.645 0.06 13.675 1.857 12.21 3.9 12.21 5.943 12.21 7.74 13.675 7.74 15.645Z" fill="black"/>
<path d="M6.539 18.479V12.404C6.539 11.243 5.435 10.17 3.9 10.17 3.006 10.17 2.325 10.375 1.893 10.805 1.658 11.038 1.278 11.037 1.044 10.802 0.811 10.567 0.812 10.187 1.046 9.954 1.8 9.205 2.858 8.97 3.9 8.97 5.942 8.97 7.739 10.435 7.739 12.404V18.479C7.739 18.811 7.47 19.079 7.139 19.079 6.808 19.079 6.539 18.81 6.539 18.479Z" fill="black"/>
<path d="M20.582 13.83C20.913 13.83 21.182 14.099 21.182 14.43 21.182 14.762 20.913 15.03 20.582 15.03H11.433C11.101 15.03 10.833 14.762 10.833 14.43 10.833 14.099 11.101 13.83 11.433 13.83H20.582Z" fill="black"/>
</svg>