<svg width="24" height="24" viewBox="0 0 24 24" fill="none" xmlns="http://www.w3.org/2000/svg">
<path d="M16.1342 12.5992L19.464 12.5992L17.0881 10.4221L16.976 10.3074C16.8698 10.1869 16.7834 10.0496 16.7204 9.9011C16.6368 9.70353 16.5962 9.49039 16.6019 9.2759C16.6078 9.06115 16.6601 8.84979 16.7546 8.65684C16.8491 8.46385 16.9834 8.29279 17.1495 8.15646L17.1642 8.14475L20.6189 5.45586C20.8674 5.16706 20.9978 4.79473 20.9812 4.41293C20.9638 4.01549 20.7895 3.64121 20.4962 3.37244C20.2028 3.10367 19.8148 2.96259 19.4173 2.97995C19.0356 2.99661 18.6767 3.15969 18.4107 3.43239L16.0324 7.10762L16.022 7.12328C15.9007 7.30062 15.742 7.44936 15.558 7.56033C15.374 7.67124 15.168 7.74184 14.9546 7.76638C14.7414 7.79081 14.5255 7.76893 14.3214 7.70279C14.117 7.63649 13.9288 7.52712 13.7704 7.38194L10.4526 4.34179C10.306 4.2074 10.1119 4.13686 9.9132 4.14554C9.71447 4.15422 9.52733 4.2414 9.39295 4.38805L8.37988 5.49362L16.1342 12.5992Z" fill="black" fill-opacity="0.2"/>
<path d="M7.31689 5.55799L15.8395 13.3632M20.9095 12.9236L17.5918 9.88508C17.5126 9.81254 17.4499 9.72382 17.408 9.62495C17.366 9.52608 17.3458 9.41936 17.3488 9.31202C17.3517 9.20467 17.3776 9.09921 17.4249 9.00277C17.4722 8.90632 17.5396 8.82115 17.6226 8.75302L21.1386 6.01652C21.5418 5.57681 21.7537 4.99504 21.7276 4.3992C21.7016 3.80336 21.4398 3.24226 20.9999 2.83933C20.5599 2.43641 19.9778 2.22466 19.3816 2.25068C18.7855 2.27669 18.2241 2.53834 17.8209 2.97805L15.3997 6.71725C15.3391 6.80587 15.2601 6.88044 15.168 6.93589C15.076 6.99134 14.9732 7.02638 14.8664 7.03865C14.7597 7.05092 14.6516 7.04012 14.5494 7.00699C14.4472 6.97386 14.3533 6.91916 14.2741 6.84661L10.9563 3.80814C10.663 3.53953 10.2749 3.39836 9.87749 3.41571C9.48005 3.43305 9.10577 3.60748 8.837 3.90062L7.31689 5.55799L2.25 11.0851L4.73487 13.3608M15.8395 13.3632H4.74996M15.8395 13.3632H21.3899M4.46175 13.1103L7.5019 9.79438M12.75 21.7515H6.73578M6.73578 21.7515H6.72525C5.90264 21.7515 5.23578 21.0785 5.23578 20.2483M6.73578 21.7515C5.90735 21.7515 5.23578 21.0767 5.23578 20.2483M5.23578 20.2483V18.7433M2.25001 17.2447C2.25001 18.0507 2.87858 18.7086 3.66799 18.7462M2.25001 17.2447V17.2585C2.25001 18.0571 2.87858 18.7089 3.66799 18.7462M2.25001 17.2447V14.7515M3.66799 18.7462C3.68533 18.747 3.70274 18.7476 3.72022 18.7478L3.73947 18.7479V18.7433H5.23578M5.23578 18.7433V16.3441M21.75 13.3632H21.3899M21.3899 13.3632L18.0734 10.3258M21.3899 13.3632L21.3911 13.3643" stroke="black" stroke-width="1.5" stroke-linecap="round" stroke-linejoin="round"/>
</svg>
