<svg xmlns="http://www.w3.org/2000/svg" width="24" height="24" fill="currentColor" viewBox="0 0 24 24"><path d="M18.75 6.6V12a.675.675 0 0 1-.675.675H5.25A.675.675 0 0 1 4.575 12V6.6a.675.675 0 0 1 .675-.675h12.825a.675.675 0 0 1 .675.675" opacity=".2"/><path d="M20.775 8.625h-1.35V6.6a1.35 1.35 0 0 0-1.35-1.35H5.25A1.35 1.35 0 0 0 3.9 6.6v2.025H2.55a.675.675 0 0 0 0 1.35H3.9V12a1.35 1.35 0 0 0 1.35 1.35h12.825a1.35 1.35 0 0 0 1.35-1.35V9.975h1.35v4.219l-8.471 2.417a1.36 1.36 0 0 0-.979 1.295v2.869a.675.675 0 0 0 1.35 0v-2.869l8.471-2.42a1.36 1.36 0 0 0 .979-1.293V9.974a1.35 1.35 0 0 0-1.35-1.35zM18.075 12H5.25V6.6h12.825z"/></svg>