<svg xmlns="http://www.w3.org/2000/svg" fill="currentColor" viewBox="0 0 24 24" width="24" height="24"><path d="M20.1 3.9v16.2H3.9V3.9z" opacity=".2"/><path d="M20.91 3.9v4.05a0.81 0.81 0 0 1-1.62 0v-3.24h-3.24a0.81 0.81 0 0 1 0-1.62h4.05a0.81 0.81 0 0 1 0.81 0.81m-12.96 15.39h-3.24v-3.24a0.81 0.81 0 0 0-1.62 0v4.05a0.81 0.81 0 0 0 0.81 0.81h4.05a0.81 0.81 0 0 0 0-1.62M20.1 15.24a0.81 0.81 0 0 0-0.81 0.81v3.24h-3.24a0.81 0.81 0 0 0 0 1.62h4.05a0.81 0.81 0 0 0 0.81-0.81v-4.05a0.81 0.81 0 0 0-0.81-0.81M7.95 3.09H3.9a0.81 0.81 0 0 0-0.81 0.81v4.05a0.81 0.81 0 0 0 1.62 0v-3.24h3.24a0.81 0.81 0 0 0 0-1.62"/></svg>