<svg xmlns="http://www.w3.org/2000/svg" fill="currentColor" viewBox="0 0 24 24" width="24" height="24"><path d="M21.72 12A9.72 9.72 0 1 1 12 2.28a9.72 9.72 0 0 1 9.72 9.72" opacity=".2"/><path d="M12 1.47A10.53 10.53 0 1 0 22.53 12 10.541 10.541 0 0 0 12 1.47m0.81 19.403v-3.203a0.81 0.81 0 0 0-1.62 0v3.203a8.923 8.923 0 0 1-8.063-8.063h3.203a0.81 0.81 0 0 0 0-1.62H3.127a8.923 8.923 0 0 1 8.063-8.063v3.203a0.81 0.81 0 0 0 1.62 0V3.127a8.923 8.923 0 0 1 8.063 8.063h-3.203a0.81 0.81 0 0 0 0 1.62h3.203a8.923 8.923 0 0 1-8.063 8.063"/></svg>