<svg width="24" height="24" viewBox="0 0 24 24" fill="none" xmlns="http://www.w3.org/2000/svg">
<path d="M3.07422 6.08334C3.07422 5.6231 3.47316 5.25 3.96527 5.25H20.0347C20.5268 5.25 20.9258 5.6231 20.9258 6.08334V17.9167C20.9258 18.3769 20.5268 18.75 20.0347 18.75H3.96527C3.47316 18.75 3.07422 18.3769 3.07422 17.9167V6.08334Z" fill="black" fill-opacity="0.2"/>
<path d="M8.70029 15.4979C8.41324 15.8094 8.06557 16.0591 7.67862 16.2315C7.29166 16.4039 6.87357 16.4955 6.44996 16.5007C4.585 16.5007 3.07446 14.737 3.07446 12.5626C3.07446 10.3882 4.585 8.62451 6.44996 8.62451C6.87357 8.62964 7.29166 8.72123 7.67862 8.89367C8.06557 9.06611 8.41324 9.31576 8.70029 9.62732M11.9243 9.74951H20.9256M11.9243 14.2495H20.9256M14.1746 7.49951V16.5008M18.6753 7.49951V16.5008" stroke="black" stroke-width="1.5" stroke-linecap="round" stroke-linejoin="round"/>
</svg>
