<svg width="24" height="24" viewBox="0 0 24 24" fill="none" xmlns="http://www.w3.org/2000/svg">
<rect x="2.25" y="3.79126" width="19.5" height="16.4175" rx="0.75" fill="black" fill-opacity="0.2"/>
<path d="M9.24825 15.6331C9.05691 15.8408 8.82517 16.0072 8.56723 16.1221C8.3093 16.237 8.03061 16.2981 7.74825 16.3015C6.50512 16.3015 5.49825 15.1259 5.49825 13.6765C5.49825 12.2271 6.50512 11.0515 7.74825 11.0515C8.03061 11.0549 8.3093 11.116 8.56723 11.2309C8.82517 11.3459 9.05691 11.5123 9.24825 11.72M12.2482 11.8015H18.2482M12.2482 14.8015H18.2482M13.7482 10.3015V16.3015M16.7482 10.3015V16.3015M3 3.80005H21C21.4142 3.80005 21.75 4.20797 21.75 4.71116V19.2889C21.75 19.7921 21.4142 20.2 21 20.2H3C2.58579 20.2 2.25 19.7921 2.25 19.2889V4.71116C2.25 4.20797 2.58579 3.80005 3 3.80005ZM5.99756 7.19653C5.99756 7.40364 5.82967 7.57153 5.62256 7.57153C5.41545 7.57153 5.24756 7.40364 5.24756 7.19653C5.24756 6.98943 5.41545 6.82153 5.62256 6.82153C5.82967 6.82153 5.99756 6.98943 5.99756 7.19653ZM11.7498 7.19653C11.7498 7.40364 11.5819 7.57153 11.3748 7.57153C11.1676 7.57153 10.9998 7.40364 10.9998 7.19653C10.9998 6.98943 11.1676 6.82153 11.3748 6.82153C11.5819 6.82153 11.7498 6.98943 11.7498 7.19653Z" stroke="black" stroke-width="1.5" stroke-linecap="round" stroke-linejoin="round"/>
</svg>
