<svg viewBox="0 0 24 24" fill="none" xmlns="http://www.w3.org/2000/svg" width="24" height="24">
<path opacity="0.2" d="M20.91 10.38V4.71C20.91 4.495 20.825 4.289 20.673 4.137 20.521 3.985 20.315 3.9 20.1 3.9H3.9C3.685 3.9 3.479 3.985 3.327 4.137 3.176 4.289 3.09 4.495 3.09 4.71V10.38C3.09 20.1 12 22.53 12 22.53 12 22.53 20.91 20.1 20.91 10.38Z" fill="black"/>
<path d="M20.31 4.71C20.31 4.654 20.288 4.6 20.249 4.561 20.209 4.522 20.156 4.5 20.1 4.5H3.9C3.844 4.5 3.791 4.522 3.751 4.561 3.712 4.6 3.69 4.654 3.69 4.71V10.38C3.69 15.026 5.809 17.904 7.925 19.636 8.99 20.507 10.056 21.089 10.856 21.452 11.256 21.634 11.587 21.76 11.816 21.84 11.888 21.865 11.95 21.885 12 21.901 12.05 21.885 12.112 21.865 12.184 21.84 12.413 21.76 12.744 21.634 13.144 21.452 13.944 21.089 15.011 20.507 16.076 19.636 18.192 17.904 20.31 15.026 20.31 10.38V4.71ZM21.51 10.38C21.51 15.454 19.173 18.651 16.835 20.564 15.672 21.516 14.511 22.149 13.641 22.545 13.205 22.743 12.84 22.882 12.581 22.972 12.452 23.017 12.35 23.051 12.278 23.073 12.242 23.084 12.213 23.093 12.193 23.099 12.183 23.102 12.175 23.104 12.169 23.106 12.166 23.107 12.163 23.108 12.162 23.108H12.158C12.055 23.136 11.945 23.138 11.842 23.109L11.838 23.108C11.836 23.108 11.834 23.107 11.831 23.106 11.826 23.104 11.818 23.102 11.808 23.099 11.788 23.093 11.759 23.084 11.723 23.073 11.651 23.051 11.548 23.018 11.419 22.972 11.16 22.882 10.795 22.743 10.359 22.545 9.489 22.149 8.328 21.516 7.165 20.564 4.827 18.651 2.49 15.454 2.49 10.38V4.71C2.49 4.336 2.638 3.977 2.903 3.713 3.167 3.448 3.526 3.3 3.9 3.3H20.1C20.474 3.3 20.833 3.448 21.097 3.713 21.362 3.977 21.51 4.336 21.51 4.71V10.38Z" fill="black"/>
<path d="M14.43 6.945C14.654 6.945 14.859 7.07 14.962 7.268 15.065 7.466 15.05 7.706 14.922 7.889L12.633 11.155C12.835 11.219 13.031 11.302 13.218 11.402 13.717 11.67 14.142 12.057 14.456 12.528 14.769 13 14.961 13.542 15.015 14.106 15.068 14.67 14.981 15.238 14.762 15.761 14.542 16.283 14.197 16.742 13.757 17.099 13.317 17.455 12.796 17.697 12.24 17.803 11.683 17.909 11.109 17.877 10.569 17.708 10.028 17.539 9.538 17.238 9.141 16.834 8.909 16.597 8.914 16.217 9.151 15.986 9.387 15.754 9.767 15.757 9.999 15.994 10.257 16.257 10.576 16.452 10.927 16.562 11.279 16.672 11.653 16.695 12.015 16.625 12.376 16.556 12.715 16.398 13.001 16.166 13.288 15.934 13.512 15.635 13.655 15.295 13.798 14.956 13.854 14.586 13.819 14.22 13.785 13.853 13.66 13.5 13.456 13.193 13.252 12.886 12.976 12.633 12.651 12.459 12.326 12.285 11.964 12.195 11.595 12.195 11.371 12.195 11.166 12.069 11.063 11.871 10.96 11.673 10.976 11.433 11.104 11.25L13.278 8.145H9.57C9.239 8.145 8.97 7.876 8.97 7.545 8.97 7.213 9.239 6.945 9.57 6.945H14.43Z" fill="black"/>
</svg>