<svg width="24" height="24" viewBox="0 0 24 24" fill="none" xmlns="http://www.w3.org/2000/svg">
<path d="M20.9375 3.75H3.0625C2.61377 3.75 2.25 4.11937 2.25 4.575V19.425C2.25 19.8806 2.61377 20.25 3.0625 20.25H20.9375C21.3862 20.25 21.75 19.8806 21.75 19.425V4.575C21.75 4.11937 21.3862 3.75 20.9375 3.75Z" fill="black" fill-opacity="0.2"/>
<path d="M6.5 15V9L5 10M16 9H19L17.25 11.5C17.5385 11.5 17.8226 11.5714 18.0768 11.7078C18.3311 11.8441 18.5477 12.0412 18.7074 12.2815C18.867 12.5219 18.9648 12.7979 18.992 13.0852C19.0191 13.3724 18.9749 13.6619 18.8631 13.9279C18.7514 14.1939 18.5756 14.4281 18.3514 14.6097C18.1272 14.7914 17.8616 14.9147 17.5782 14.9689C17.2948 15.0231 17.0024 15.0063 16.7271 14.9201C16.4517 14.834 16.202 14.681 16 14.475M12.9808 15H9.98078L12.6789 11.4025C12.809 11.2297 12.9001 11.0309 12.9461 10.8196C12.9921 10.6083 12.9919 10.3895 12.9455 10.1783C12.899 9.96708 12.8075 9.76841 12.6771 9.5959C12.5467 9.42338 12.3805 9.2811 12.19 9.17882C11.9994 9.07653 11.789 9.01665 11.5732 9.00328C11.3573 8.98992 11.1412 9.02338 10.9395 9.10138C10.7378 9.17938 10.5553 9.30006 10.4046 9.45517C10.2539 9.61028 10.1385 9.79613 10.0664 10" stroke="black" stroke-width="1.49739" stroke-linecap="round" stroke-linejoin="round"/>
</svg>
