<svg xmlns="http://www.w3.org/2000/svg" width="24" height="24" fill="currentColor" viewBox="0 0 24 24"><path d="M3.11 8.74a2.836 2.836 0 1 1 4.01 0 2.836 2.836 0 0 1-4.01 0m0 6.52a2.836 2.836 0 1 0 4.01 0 2.836 2.836 0 0 0-4.01 0" opacity=".2"/><path d="M15.01 10.494a0.81 0.81 0 0 1 0.211-1.127l6.851-4.688a0.81 0.81 0 0 1 0.91 1.338l-6.852 4.688a0.804 0.804 0 0 1-0.457 0.142 0.816 0.816 0 0 1-0.665-0.353z m8.187 8.615a0.81 0.81 0 0 1-1.125 0.21l-9.263-6.339-4.305 2.945a3.646 3.646 0 1 1-0.91-1.335l3.781-2.591L7.589 9.408a3.631 3.631 0 1 1 0.911-1.336l14.479 9.91a0.81 0.81 0 0 1 0.218 1.127M7.139 17.264a2.026 2.026 0 1 0-0.593 1.432 2.016 2.016 0 0 0 0.593-1.432m-0.593-9.099a2.026 2.026 0 1 0-2.863 0 2.01 2.01 0 0 0 2.863 0"/></svg>