<svg width="24" height="24" viewBox="0 0 24 24" fill="none" xmlns="http://www.w3.org/2000/svg">
<path d="M9.56934 15.3066C10.0653 15.3068 10.4678 15.6101 10.4678 15.9844V20.0508C10.4678 20.425 10.0653 20.7283 9.56934 20.7285H4.17773C3.68168 20.7284 3.2793 20.4251 3.2793 20.0508V15.9844C3.2793 15.6101 3.68168 15.3068 4.17773 15.3066H9.56934Z" fill="black" fill-opacity="0.2"/>
<path d="M19.8301 11.7539C20.3259 11.7539 20.7285 12.2558 20.7285 12.875V19.6025C20.7284 20.2216 20.3259 20.7236 19.8301 20.7236H14.4434C13.9476 20.7236 13.5451 20.2216 13.5449 19.6025V12.875C13.545 12.2558 13.9475 11.7539 14.4434 11.7539H19.8301Z" fill="black" fill-opacity="0.2"/>
<path d="M9.56445 3.28027C10.0603 3.28027 10.4629 3.78249 10.4629 4.40137V11.125C10.4628 11.7438 10.0603 12.2451 9.56445 12.2451H4.17773C3.68191 12.2451 3.27939 11.7438 3.2793 11.125V4.40137C3.2793 3.78249 3.68185 3.28027 4.17773 3.28027H9.56445Z" fill="black" fill-opacity="0.2"/>
<path d="M19.8301 3.28027C20.3258 3.28027 20.7282 3.58394 20.7285 3.95801V8.02441C20.7285 8.39864 20.3259 8.70215 19.8301 8.70215H14.4434C13.9475 8.70215 13.545 8.39864 13.5449 8.02441V3.95801C13.5452 3.58394 13.9477 3.28027 14.4434 3.28027H19.8301Z" fill="black" fill-opacity="0.2"/>
<path d="M9.56414 3.28076H4.17692C3.68104 3.28076 3.27905 3.78246 3.27905 4.40134V11.1248C3.27905 11.7437 3.68104 12.2454 4.17692 12.2454H9.56414C10.06 12.2454 10.462 11.7437 10.462 11.1248V4.40134C10.462 3.78246 10.06 3.28076 9.56414 3.28076Z" stroke="black" stroke-width="1.55" stroke-linecap="round" stroke-linejoin="round"/>
<path d="M19.8298 3.28076H14.4425C13.9467 3.28076 13.5447 3.58416 13.5447 3.95842V8.02435C13.5447 8.39861 13.9467 8.70201 14.4425 8.70201H19.8298C20.3256 8.70201 20.7276 8.39861 20.7276 8.02435V3.95842C20.7276 3.58416 20.3256 3.28076 19.8298 3.28076Z" stroke="black" stroke-width="1.55" stroke-linecap="round" stroke-linejoin="round"/>
<path d="M9.56835 15.3065H4.17752C3.68131 15.3065 3.27905 15.61 3.27905 15.9843V20.0514C3.27905 20.4258 3.68131 20.7293 4.17752 20.7293H9.56835C10.0646 20.7293 10.4668 20.4258 10.4668 20.0514V15.9843C10.4668 15.61 10.0646 15.3065 9.56835 15.3065Z" stroke="black" stroke-width="1.55" stroke-linecap="round" stroke-linejoin="round"/>
<path d="M19.8298 11.7539H14.4425C13.9467 11.7539 13.5447 12.2558 13.5447 12.875V19.6021C13.5447 20.2213 13.9467 20.7233 14.4425 20.7233H19.8298C20.3256 20.7233 20.7276 20.2213 20.7276 19.6021V12.875C20.7276 12.2558 20.3256 11.7539 19.8298 11.7539Z" stroke="black" stroke-width="1.55" stroke-linecap="round" stroke-linejoin="round"/>
</svg>
