<svg xmlns="http://www.w3.org/2000/svg" width="24" height="24" fill="currentColor" viewBox="0 0 24 24"><path d="M20.91 7.14c0 2.684-3.989 4.86-8.91 4.86s-8.91-2.176-8.91-4.86S7.079 2.28 12 2.28s8.91 2.176 8.91 4.86" opacity=".2"/><path d="M12 1.47c-5.45 0-9.72 2.491-9.72 5.67v9.72c0 3.179 4.27 5.67 9.72 5.67s9.72-2.491 9.72-5.67v-9.72c0-3.179-4.27-5.67-9.72-5.67M20.1 12c0 0.974-0.798 1.967-2.188 2.725-1.565 0.853-3.665 1.325-5.912 1.325s-4.346-0.47-5.912-1.325C4.698 13.967 3.9 12.973 3.9 12v-1.685c1.727 1.519 4.681 2.495 8.1 2.495s6.373-0.98 8.1-2.495zM6.088 4.415C7.652 3.562 9.752 3.09 12 3.09s4.346 0.47 5.912 1.325c1.39 0.758 2.188 1.752 2.188 2.725s-0.798 1.967-2.188 2.725c-1.565 0.853-3.665 1.325-5.912 1.325s-4.346-0.47-5.912-1.325C4.698 9.107 3.9 8.113 3.9 7.14s0.798-1.967 2.188-2.725m11.823 15.171c-1.565 0.853-3.665 1.325-5.912 1.325s-4.346-0.47-5.913-1.325c-1.39-0.758-2.188-1.752-2.187-2.725v-1.685c1.727 1.519 4.681 2.495 8.1 2.495s6.373-0.98 8.1-2.495v1.685c0 0.974-0.798 1.967-2.188 2.725"/></svg>