<svg viewBox="0 0 24 24" fill="none" xmlns="http://www.w3.org/2000/svg" width="24" height="24">
<path d="M12 12C16.921 12 20.91 9.824 20.91 7.14 20.91 4.456 16.921 2.28 12 2.28 7.079 2.28 3.09 4.456 3.09 7.14 3.09 9.824 7.079 12 12 12Z" fill="black" fill-opacity="0.2"/>
<path d="M21.51 21.719C21.51 21.88 21.446 22.035 21.332 22.147L19.771 23.689C19.535 23.922 19.154 23.92 18.921 23.685 18.688 23.449 18.691 23.069 18.927 22.836L19.448 22.322H14.666C14.335 22.322 14.066 22.053 14.066 21.722 14.066 21.39 14.335 21.122 14.666 21.122H19.452L18.927 20.604C18.691 20.371 18.688 19.991 18.921 19.755 19.154 19.52 19.535 19.518 19.771 19.751L21.332 21.293 21.408 21.385C21.474 21.483 21.51 21.6 21.51 21.719Z" fill="black"/>
<path d="M20.31 7.14C20.309 6.12 19.544 5.065 18.013 4.23 16.504 3.407 14.379 2.88 12 2.88 9.62 2.88 7.495 3.407 5.987 4.23 4.456 5.065 3.69 6.12 3.69 7.14 3.69 8.159 4.456 9.214 5.987 10.049 7.495 10.872 9.62 11.399 12 11.399 14.379 11.399 16.504 10.872 18.013 10.049 19.544 9.214 20.31 8.159 20.31 7.14ZM21.51 7.14C21.51 8.804 20.281 10.179 18.588 11.103 16.872 12.039 14.541 12.599 12 12.599 9.459 12.599 7.129 12.039 5.413 11.103 3.719 10.179 2.49 8.804 2.49 7.14 2.49 5.475 3.719 4.1 5.413 3.176 7.129 2.24 9.459 1.68 12 1.68 14.541 1.68 16.872 2.24 18.588 3.176 20.282 4.1 21.509 5.475 21.51 7.14Z" fill="black"/>
<path d="M2.49 12V7.14C2.49 6.808 2.759 6.54 3.09 6.54 3.421 6.54 3.69 6.808 3.69 7.14V12C3.69 13.02 4.456 14.075 5.987 14.91 7.495 15.732 9.62 16.26 12 16.26 14.379 16.26 16.504 15.732 18.013 14.91 19.544 14.075 20.31 13.02 20.31 12V7.14C20.31 6.808 20.578 6.54 20.91 6.54 21.241 6.54 21.51 6.808 21.51 7.14V12C21.51 13.664 20.281 15.039 18.588 15.963 16.872 16.899 14.541 17.46 12 17.46 9.459 17.46 7.129 16.899 5.413 15.963 3.719 15.039 2.49 13.665 2.49 12Z" fill="black"/>
<path d="M2.49 16.86V12C2.49 11.669 2.759 11.4 3.09 11.4 3.421 11.4 3.69 11.669 3.69 12V16.86C3.69 17.879 4.456 18.934 5.987 19.77 7.495 20.592 9.62 21.12 12 21.12 12.331 21.12 12.599 21.388 12.6 21.72 12.6 22.051 12.331 22.32 12 22.32 9.459 22.32 7.129 21.759 5.413 20.823 3.719 19.899 2.49 18.524 2.49 16.86Z" fill="black"/>
</svg>