<svg width="24" height="24" viewBox="0 0 24 24" fill="none" xmlns="http://www.w3.org/2000/svg">
<path d="M12 9C15.3137 9 18 7.48896 18 5.625C18 3.76104 15.3137 2.25 12 2.25C8.68629 2.25 6 3.76104 6 5.625C6 7.48896 8.68629 9 12 9Z" fill="black" fill-opacity="0.2"/>
<path d="M18 5.625C18 7.48896 15.3137 9 12 9C8.68629 9 6 7.48896 6 5.625M18 5.625C18 3.76104 15.3137 2.25 12 2.25C8.68629 2.25 6 3.76104 6 5.625M18 5.625V18.375C18 20.2387 15.3141 21.75 12 21.75C8.68594 21.75 6 20.2387 6 18.375V5.625" stroke="black" stroke-width="1.5" stroke-linecap="round" stroke-linejoin="round"/>
</svg>
