<svg width="24" height="24" viewBox="0 0 24 24" fill="none" xmlns="http://www.w3.org/2000/svg">
<path d="M12 12C16.5563 12 20.25 9.98528 20.25 7.5C20.25 5.01472 16.5563 3 12 3C7.44365 3 3.75 5.01472 3.75 7.5C3.75 9.98528 7.44365 12 12 12Z" fill="black" fill-opacity="0.2"/>
<path d="M20.25 7.49521C20.25 9.97784 16.5563 11.9904 12 11.9904C7.44365 11.9904 3.75 9.97784 3.75 7.49521M20.25 7.49521C20.25 5.01257 16.5563 3 12 3C7.44365 3 3.75 5.01257 3.75 7.49521M20.25 7.49521V10.5048C20.25 12.9875 16.5562 15 12 15C7.44375 15 3.75 12.9875 3.75 10.5048V7.49521M3.84384 20.6685H4.90868C5.2617 20.6685 5.60026 20.5282 5.84988 20.2786C6.0995 20.029 6.23974 19.6904 6.23974 19.3374C6.23974 18.9844 6.0995 18.6458 5.84988 18.3962C5.60026 18.1466 5.2617 18.0064 4.90868 18.0064H3.84384V20.6685ZM3.84384 20.6685V21.7333M6.23959 21.7326L5.52881 20.5147M15.041 18.1133C15.041 18.1133 13.0823 17.5955 12.9246 18.8454C12.7668 20.0952 15.4822 19.5189 15.3058 20.8899C15.1414 22.165 13.1908 21.6219 13.1908 21.6219M20.2501 18.0229H17.588M18.9189 18.0229V21.7498M10.1114 19.8532H8.51415M10.6438 21.7168H8.51415V17.9898H10.6438M3.99639 15.0084C3.83545 14.6576 3.75 14.2905 3.75 13.9125V7.06982" stroke="black" stroke-width="1.5" stroke-linecap="round" stroke-linejoin="round"/>
</svg>
