<svg width="24" height="24" viewBox="0 0 24 24" fill="none" xmlns="http://www.w3.org/2000/svg">
<path d="M12 12.0741C16.1007 12.0741 19.425 10.2609 19.425 8.02412C19.425 5.78737 16.1007 3.97412 12 3.97412C7.89924 3.97412 4.57495 5.78737 4.57495 8.02412C4.57495 10.2609 7.89924 12.0741 12 12.0741Z" fill="black" fill-opacity="0.2"/>
<path d="M18.9246 8.02393C18.9245 7.17436 18.2863 6.29501 17.0105 5.59912C15.7535 4.91358 13.9828 4.47412 11.9998 4.47412C10.0167 4.47415 8.24596 4.91351 6.98901 5.59912C5.71322 6.29501 5.07505 7.17436 5.07495 8.02393C5.07495 8.87352 5.71323 9.7528 6.98901 10.4487C8.24596 11.1343 10.0167 11.5737 11.9998 11.5737C13.9829 11.5737 15.7535 11.1343 17.0105 10.4487C18.2864 9.75279 18.9246 8.87356 18.9246 8.02393ZM19.9246 8.02393C19.9246 9.41094 18.9012 10.5568 17.49 11.3267C16.0597 12.1068 14.1173 12.5737 11.9998 12.5737C9.88235 12.5737 7.94078 12.1068 6.5105 11.3267C5.09907 10.5568 4.07495 9.41105 4.07495 8.02393C4.07505 6.63689 5.09914 5.49102 6.5105 4.72119C7.94076 3.94112 9.88243 3.47415 11.9998 3.47412C14.1173 3.47412 16.0597 3.94101 17.49 4.72119C18.9013 5.49102 19.9245 6.63695 19.9246 8.02393Z" fill="black"/>
<path d="M4.07495 12.0742V8.02393C4.07495 7.74778 4.29881 7.52441 4.57495 7.52441C4.85109 7.52441 5.07495 7.74778 5.07495 8.02393V12.0742C5.07495 12.9238 5.71323 13.8031 6.98901 14.499C8.24597 15.1846 10.0167 15.624 11.9998 15.624C13.9828 15.624 15.7535 15.1846 17.0105 14.499C18.2864 13.8031 18.9246 12.9239 18.9246 12.0742V8.02393C18.9246 7.74791 19.1486 7.52463 19.4246 7.52441C19.7007 7.52441 19.9246 7.74778 19.9246 8.02393V12.0742C19.9246 13.4612 18.9012 14.6071 17.49 15.377C16.0596 16.1571 14.1172 16.624 11.9998 16.624C9.88238 16.624 7.94079 16.1571 6.5105 15.377C5.09907 14.6071 4.07495 13.4614 4.07495 12.0742Z" fill="black"/>
<path d="M4.07495 16.124V12.0742C4.07495 11.7981 4.29881 11.5742 4.57495 11.5742C4.85109 11.5742 5.07495 11.7981 5.07495 12.0742V16.124C5.07495 16.7179 5.38078 17.3199 6.00952 17.875C6.63911 18.4308 7.56249 18.9094 8.69604 19.2334C8.96133 19.3094 9.11468 19.5862 9.03882 19.8516C8.96277 20.1168 8.68603 20.2702 8.42065 20.1943C7.18649 19.8415 6.11749 19.3049 5.34741 18.625C4.57655 17.9444 4.07495 17.0894 4.07495 16.124Z" fill="black"/>
<path d="M17.8565 21.7141C17.7098 21.7141 17.5948 21.6741 17.5115 21.5941C17.4315 21.5107 17.3915 21.3957 17.3915 21.2491V18.6491C17.3915 18.4991 17.4315 18.3841 17.5115 18.3041C17.5915 18.2241 17.7048 18.1841 17.8515 18.1841C18.0015 18.1841 18.1148 18.2241 18.1915 18.3041C18.2715 18.3841 18.3115 18.4991 18.3115 18.6491V20.9491H19.5315C19.6582 20.9491 19.7548 20.9824 19.8215 21.0491C19.8915 21.1124 19.9265 21.2057 19.9265 21.3291C19.9265 21.4524 19.8915 21.5474 19.8215 21.6141C19.7548 21.6807 19.6582 21.7141 19.5315 21.7141H17.8565Z" fill="black"/>
<path d="M16.5683 22.1591C16.6283 22.2591 16.6499 22.3491 16.6333 22.4291C16.6166 22.5124 16.5749 22.5824 16.5083 22.6391C16.4449 22.6958 16.3683 22.7324 16.2783 22.7491C16.1916 22.7657 16.1049 22.7574 16.0183 22.7241C15.9316 22.6907 15.8599 22.6274 15.8033 22.5341L15.4333 21.9391C15.3966 21.8791 15.3483 21.8358 15.2883 21.8091C15.2283 21.7824 15.1499 21.7691 15.0533 21.7691L15.7383 21.5141C15.8883 21.5141 16.0149 21.5424 16.1183 21.5991C16.2216 21.6524 16.3099 21.7408 16.3833 21.8641L16.5683 22.1591ZM15.0583 21.7691C14.7016 21.7691 14.3883 21.6941 14.1183 21.5441C13.8483 21.3907 13.6383 21.1774 13.4883 20.9041C13.3416 20.6307 13.2683 20.3124 13.2683 19.9491C13.2683 19.6757 13.3099 19.4274 13.3933 19.2041C13.4799 18.9808 13.6016 18.7891 13.7583 18.6291C13.9183 18.4691 14.1083 18.3474 14.3283 18.2641C14.5483 18.1774 14.7916 18.1341 15.0583 18.1341C15.4149 18.1341 15.7266 18.2091 15.9933 18.3591C16.2633 18.5091 16.4733 18.7208 16.6233 18.9941C16.7733 19.2641 16.8483 19.5824 16.8483 19.9491C16.8483 20.2224 16.8049 20.4708 16.7183 20.6941C16.6349 20.9174 16.5133 21.1108 16.3533 21.2741C16.1966 21.4341 16.0083 21.5574 15.7883 21.6441C15.5683 21.7274 15.3249 21.7691 15.0583 21.7691ZM15.0583 20.9991C15.2349 20.9991 15.3849 20.9574 15.5083 20.8741C15.6316 20.7907 15.7266 20.6708 15.7933 20.5141C15.8599 20.3574 15.8933 20.1691 15.8933 19.9491C15.8933 19.6191 15.8199 19.3624 15.6733 19.1791C15.5266 18.9957 15.3216 18.9041 15.0583 18.9041C14.8849 18.9041 14.7349 18.9457 14.6083 19.0291C14.4849 19.1091 14.3899 19.2274 14.3233 19.3841C14.2566 19.5374 14.2233 19.7257 14.2233 19.9491C14.2233 20.2791 14.2966 20.5374 14.4433 20.7241C14.5899 20.9074 14.7949 20.9991 15.0583 20.9991Z" fill="black"/>
<path d="M11.4114 21.7691C11.2781 21.7691 11.1381 21.7591 10.9914 21.7391C10.8481 21.7224 10.7114 21.6958 10.5814 21.6591C10.4514 21.6224 10.3348 21.5791 10.2314 21.5291C10.1414 21.4857 10.0781 21.4291 10.0414 21.3591C10.0048 21.2857 9.99145 21.2091 10.0014 21.1291C10.0114 21.0491 10.0398 20.9791 10.0864 20.9191C10.1331 20.8557 10.1948 20.8141 10.2714 20.7941C10.3481 20.7707 10.4348 20.7807 10.5314 20.8241C10.6581 20.8841 10.8014 20.9307 10.9614 20.9641C11.1214 20.9974 11.2714 21.0141 11.4114 21.0141C11.6314 21.0141 11.7848 20.9857 11.8714 20.9291C11.9614 20.8691 12.0064 20.7958 12.0064 20.7091C12.0064 20.6324 11.9748 20.5708 11.9114 20.5241C11.8514 20.4774 11.7431 20.4374 11.5864 20.4041L11.0014 20.2791C10.6814 20.2124 10.4431 20.0957 10.2864 19.9291C10.1298 19.7624 10.0514 19.5474 10.0514 19.2841C10.0514 19.1107 10.0864 18.9541 10.1564 18.8141C10.2298 18.6707 10.3314 18.5491 10.4614 18.4491C10.5948 18.3491 10.7514 18.2724 10.9314 18.2191C11.1148 18.1624 11.3181 18.1341 11.5414 18.1341C11.7148 18.1341 11.8898 18.1541 12.0664 18.1941C12.2464 18.2308 12.4014 18.2874 12.5314 18.3641C12.6081 18.4041 12.6631 18.4591 12.6964 18.5291C12.7298 18.5991 12.7431 18.6724 12.7364 18.7491C12.7298 18.8224 12.7031 18.8874 12.6564 18.9441C12.6131 19.0007 12.5531 19.0391 12.4764 19.0591C12.4031 19.0757 12.3148 19.0624 12.2114 19.0191C12.1148 18.9757 12.0048 18.9441 11.8814 18.9241C11.7614 18.9007 11.6448 18.8891 11.5314 18.8891C11.4081 18.8891 11.3031 18.9041 11.2164 18.9341C11.1298 18.9607 11.0631 19.0007 11.0164 19.0541C10.9731 19.1074 10.9514 19.1691 10.9514 19.2391C10.9514 19.3091 10.9798 19.3691 11.0364 19.4191C11.0964 19.4658 11.2048 19.5058 11.3614 19.5391L11.9414 19.6641C12.2648 19.7341 12.5064 19.8491 12.6664 20.0091C12.8264 20.1691 12.9064 20.3774 12.9064 20.6341C12.9064 20.8074 12.8714 20.9641 12.8014 21.1041C12.7314 21.2441 12.6314 21.3641 12.5014 21.4641C12.3714 21.5607 12.2148 21.6357 12.0314 21.6891C11.8481 21.7424 11.6414 21.7691 11.4114 21.7691Z" fill="black"/>
</svg>
