<svg width="24" height="24" viewBox="0 0 24 24" fill="none" xmlns="http://www.w3.org/2000/svg">
<path d="M11.4645 6.06439L2.16257 10.8886C1.27914 11.346 1.27914 12.654 2.16257 13.1114L11.4645 17.9356C11.8019 18.1104 12.1995 18.1104 12.5355 17.9356L21.8374 13.1114C22.7209 12.654 22.7209 11.346 21.8374 10.8886L12.5369 6.06439C12.1995 5.88967 11.8019 5.88967 11.4659 6.06439H11.4645Z" stroke="black" stroke-width="1.5" stroke-miterlimit="10"/>
<path d="M11.4645 6.06439L2.16257 10.8886C1.27914 11.346 1.27914 12.654 2.16257 13.1114L11.4645 17.9356C11.8019 18.1104 12.1995 18.1104 12.5355 17.9356L21.8374 13.1114C22.7209 12.654 22.7209 11.346 21.8374 10.8886L12.5369 6.06439C12.1995 5.88967 11.8019 5.88967 11.4659 6.06439H11.4645Z" fill="black" fill-opacity="0.2"/>
</svg>
