<svg viewBox="0 0 24 24" fill="none" xmlns="http://www.w3.org/2000/svg" width="24" height="24">
<path d="M17.545 11.146C16.521 11.146 15.737 10.766 15.193 10.006 14.657 9.238 14.389 8.154 14.389 6.754 14.389 5.818 14.509 5.03 14.749 4.39 14.997 3.742 15.353 3.254 15.817 2.926 16.289 2.59 16.865 2.422 17.545 2.422 18.577 2.422 19.361 2.794 19.897 3.538 20.433 4.274 20.701 5.346 20.701 6.754 20.701 7.69 20.577 8.486 20.329 9.142 20.089 9.79 19.737 10.286 19.273 10.63 18.809 10.974 18.233 11.146 17.545 11.146ZM17.545 9.634C18.009 9.634 18.353 9.406 18.577 8.95 18.801 8.486 18.913 7.754 18.913 6.754 18.913 5.754 18.801 5.034 18.577 4.594 18.353 4.154 18.009 3.934 17.545 3.934 17.081 3.934 16.737 4.154 16.513 4.594 16.289 5.034 16.177 5.754 16.177 6.754 16.177 7.754 16.289 8.486 16.513 8.95 16.737 9.406 17.081 9.634 17.545 9.634Z" fill="black"/>
<path d="M17.545 21.732C16.521 21.732 15.737 21.352 15.193 20.592 14.657 19.824 14.389 18.74 14.389 17.34 14.389 16.404 14.509 15.616 14.749 14.976 14.997 14.328 15.353 13.84 15.817 13.512 16.289 13.176 16.865 13.008 17.545 13.008 18.577 13.008 19.361 13.38 19.897 14.124 20.433 14.86 20.701 15.932 20.701 17.34 20.701 18.276 20.577 19.072 20.329 19.728 20.089 20.376 19.737 20.872 19.273 21.216 18.809 21.56 18.233 21.732 17.545 21.732ZM17.545 20.22C18.009 20.22 18.353 19.992 18.577 19.536 18.801 19.072 18.913 18.34 18.913 17.34 18.913 16.34 18.801 15.62 18.577 15.18 18.353 14.74 18.009 14.52 17.545 14.52 17.081 14.52 16.737 14.74 16.513 15.18 16.289 15.62 16.177 16.34 16.177 17.34 16.177 18.34 16.289 19.072 16.513 19.536 16.737 19.992 17.081 20.22 17.545 20.22Z" fill="black"/>
<path d="M9.274 21.732C8.25 21.732 7.466 21.352 6.922 20.592 6.386 19.824 6.118 18.74 6.118 17.34 6.118 16.404 6.238 15.616 6.478 14.976 6.726 14.328 7.082 13.84 7.546 13.512 8.018 13.176 8.594 13.008 9.274 13.008 10.306 13.008 11.09 13.38 11.626 14.124 12.162 14.86 12.43 15.932 12.43 17.34 12.43 18.276 12.306 19.072 12.058 19.728 11.818 20.376 11.466 20.872 11.002 21.216 10.538 21.56 9.962 21.732 9.274 21.732ZM9.274 20.22C9.738 20.22 10.082 19.992 10.306 19.536 10.53 19.072 10.642 18.34 10.642 17.34 10.642 16.34 10.53 15.62 10.306 15.18 10.082 14.74 9.738 14.52 9.274 14.52 8.81 14.52 8.466 14.74 8.242 15.18 8.018 15.62 7.906 16.34 7.906 17.34 7.906 18.34 8.018 19.072 8.242 19.536 8.466 19.992 8.81 20.22 9.274 20.22Z" fill="black"/>
<path d="M11.201 11.137C11.872 11.137 12.416 10.593 12.416 9.922 12.416 9.251 11.872 8.707 11.201 8.707 10.53 8.707 9.986 9.251 9.986 9.922 9.986 10.593 10.53 11.137 11.201 11.137Z" fill="black"/>
<path d="M7.378 2.43C7.306 2.4 7.226 2.392 7.149 2.408 7.072 2.423 7.001 2.461 6.945 2.516L2.974 6.487C2.937 6.524 2.908 6.568 2.888 6.616 2.868 6.664 2.858 6.716 2.858 6.768 2.858 6.821 2.868 6.872 2.888 6.92 2.908 6.969 2.937 7.012 2.974 7.049L6.945 11.02C7.001 11.076 7.072 11.114 7.149 11.129 7.226 11.145 7.306 11.137 7.378 11.107 7.451 11.077 7.513 11.026 7.557 10.96 7.6 10.895 7.623 10.818 7.623 10.74V2.797C7.623 2.719 7.6 2.642 7.556 2.577 7.513 2.511 7.451 2.46 7.378 2.43Z" fill="black"/>
<path d="M6.863 4.388C6.863 3.89 7.265 3.488 7.763 3.488H18.919C19.416 3.488 19.819 3.89 19.819 4.388V20.1C19.819 20.597 19.416 21 18.919 21H7.763C7.265 21 6.863 20.597 6.863 20.1V4.388Z" fill="black" fill-opacity="0.2"/>
</svg>