<svg width="24" height="24" viewBox="0 0 24 24" fill="none" xmlns="http://www.w3.org/2000/svg">
<path d="M5.5 4.25668C5.5 3.75572 5.90429 3.34961 6.403 3.34961H17.597C18.0957 3.34961 18.5 3.75572 18.5 4.25668V20.0925C18.5 20.5935 18.0957 20.9996 17.597 20.9996H6.403C5.90429 20.9996 5.5 20.5935 5.5 20.0925V4.25668Z" fill="black" fill-opacity="0.2"/>
<path d="M8.13257 3.3501L4.71989 6.76277L8.13257 10.1754" fill="black"/>
<path d="M3.25024 20.625C3.25024 20.8321 3.08235 21 2.87524 21C2.66814 21 2.50024 20.8321 2.50024 20.625C2.50024 20.4179 2.66814 20.25 2.87524 20.25C3.08235 20.25 3.25024 20.4179 3.25024 20.625Z" fill="black"/>
<path d="M11.6877 10.125C11.6877 10.3321 11.5199 10.5 11.3127 10.5C11.1056 10.5 10.9377 10.3321 10.9377 10.125C10.9377 9.91789 11.1056 9.75 11.3127 9.75C11.5199 9.75 11.6877 9.91789 11.6877 10.125Z" fill="black"/>
<path d="M19.1494 17.25C19.1494 19.3211 17.8902 21 16.3369 21C14.7836 21 13.5244 19.3211 13.5244 17.25C13.5244 15.1789 14.7836 13.5 16.3369 13.5C17.8902 13.5 19.1494 15.1789 19.1494 17.25ZM19.1494 6.75C19.1494 8.82107 17.8902 10.5 16.3369 10.5C14.7836 10.5 13.5244 8.82107 13.5244 6.75C13.5244 4.67893 14.7836 3 16.3369 3C17.8902 3 19.1494 4.67893 19.1494 6.75ZM10.6494 17.25C10.6494 19.3211 9.39021 21 7.83691 21C6.28361 21 5.02441 19.3211 5.02441 17.25C5.02441 15.1789 6.28361 13.5 7.83691 13.5C9.39021 13.5 10.6494 15.1789 10.6494 17.25ZM8.13257 3.3501L4.71989 6.76277L8.13257 10.1754V3.3501ZM3.25024 20.625C3.25024 20.8321 3.08235 21 2.87524 21C2.66814 21 2.50024 20.8321 2.50024 20.625C2.50024 20.4179 2.66814 20.25 2.87524 20.25C3.08235 20.25 3.25024 20.4179 3.25024 20.625ZM11.6877 10.125C11.6877 10.3321 11.5199 10.5 11.3127 10.5C11.1056 10.5 10.9377 10.3321 10.9377 10.125C10.9377 9.91789 11.1056 9.75 11.3127 9.75C11.5199 9.75 11.6877 9.91789 11.6877 10.125Z" stroke="black" stroke-width="1.5" stroke-linecap="round" stroke-linejoin="round"/>
</svg>
