<svg viewBox="0 0 24 24" fill="none" xmlns="http://www.w3.org/2000/svg" width="24" height="24">
<path d="M17.532 12.857C16.508 12.857 15.724 13.237 15.18 13.997 14.644 14.765 14.376 15.849 14.376 17.249 14.376 18.185 14.496 18.973 14.736 19.613 14.984 20.261 15.34 20.749 15.804 21.077 16.276 21.413 16.852 21.581 17.532 21.581 18.564 21.581 19.348 21.209 19.884 20.465 20.42 19.729 20.688 18.657 20.688 17.249 20.688 16.313 20.564 15.517 20.316 14.861 20.076 14.213 19.724 13.717 19.26 13.373 18.796 13.029 18.22 12.857 17.532 12.857ZM17.532 14.369C17.996 14.369 18.34 14.597 18.564 15.053 18.788 15.517 18.9 16.249 18.9 17.249 18.9 18.249 18.788 18.969 18.564 19.409 18.34 19.849 17.996 20.069 17.532 20.069 17.068 20.069 16.724 19.849 16.5 19.409 16.276 18.969 16.164 18.249 16.164 17.249 16.164 16.249 16.276 15.517 16.5 15.053 16.724 14.597 17.068 14.369 17.532 14.369Z" fill="black"/>
<path d="M17.532 2.273C16.508 2.273 15.724 2.653 15.18 3.413 14.644 4.181 14.376 5.265 14.376 6.665 14.376 7.601 14.496 8.389 14.736 9.029 14.984 9.677 15.34 10.165 15.804 10.493 16.276 10.829 16.852 10.997 17.532 10.997 18.564 10.997 19.348 10.625 19.884 9.881 20.42 9.145 20.688 8.073 20.688 6.665 20.688 5.729 20.564 4.933 20.316 4.277 20.076 3.629 19.724 3.133 19.26 2.789 18.796 2.445 18.22 2.273 17.532 2.273ZM17.532 3.785C17.996 3.785 18.34 4.013 18.564 4.469 18.788 4.933 18.9 5.665 18.9 6.665 18.9 7.665 18.788 8.385 18.564 8.825 18.34 9.265 17.996 9.485 17.532 9.485 17.068 9.485 16.724 9.265 16.5 8.825 16.276 8.385 16.164 7.665 16.164 6.665 16.164 5.665 16.276 4.933 16.5 4.469 16.724 4.013 17.068 3.785 17.532 3.785Z" fill="black"/>
<path d="M9.261 2.273C8.237 2.273 7.453 2.653 6.909 3.413 6.373 4.181 6.105 5.265 6.105 6.665 6.105 7.601 6.225 8.389 6.465 9.029 6.713 9.677 7.069 10.165 7.533 10.493 8.005 10.829 8.581 10.997 9.261 10.997 10.293 10.997 11.077 10.625 11.613 9.881 12.149 9.145 12.417 8.073 12.417 6.665 12.417 5.729 12.293 4.933 12.045 4.277 11.805 3.629 11.453 3.133 10.989 2.789 10.525 2.445 9.949 2.273 9.261 2.273ZM9.261 3.785C9.725 3.785 10.069 4.013 10.293 4.469 10.517 4.933 10.629 5.665 10.629 6.665 10.629 7.665 10.517 8.385 10.293 8.825 10.069 9.265 9.725 9.485 9.261 9.485 8.797 9.485 8.453 9.265 8.229 8.825 8.005 8.385 7.893 7.665 7.893 6.665 7.893 5.665 8.005 4.933 8.229 4.469 8.453 4.013 8.797 3.785 9.261 3.785Z" fill="black"/>
<path d="M11.187 12.858C11.858 12.858 12.402 13.402 12.402 14.073 12.402 14.744 11.858 15.288 11.187 15.288 10.516 15.288 9.972 14.744 9.972 14.073 9.972 13.402 10.516 12.858 11.187 12.858Z" fill="black"/>
<path d="M3.116 21.565C3.189 21.595 3.269 21.603 3.346 21.587 3.423 21.572 3.494 21.534 3.549 21.479L7.52 17.508C7.557 17.471 7.587 17.427 7.607 17.379 7.627 17.33 7.637 17.279 7.637 17.227 7.637 17.174 7.627 17.123 7.607 17.074 7.587 17.026 7.557 16.983 7.52 16.946L3.549 12.974C3.494 12.919 3.423 12.881 3.346 12.866 3.269 12.85 3.189 12.858 3.116 12.888 3.044 12.918 2.982 12.969 2.938 13.035 2.894 13.1 2.871 13.177 2.871 13.255V21.198C2.871 21.276 2.894 21.353 2.938 21.418 2.982 21.484 3.044 21.534 3.116 21.565Z" fill="black"/>
<path d="M6.849 4.177C6.849 3.68 7.252 3.277 7.749 3.277H18.906C19.403 3.277 19.806 3.68 19.806 4.177V19.889C19.806 20.386 19.403 20.789 18.906 20.789H7.749C7.252 20.789 6.849 20.386 6.849 19.889V4.177Z" fill="black" fill-opacity="0.2"/>
</svg>