<svg xmlns="http://www.w3.org/2000/svg" fill="currentColor" viewBox="0 0 24 24" width="24" height="24"><path d="M21.72 5.52v8.91H2.28V5.52a1.62 1.62 0 0 1 1.62-1.62h16.2A1.62 1.62 0 0 1 21.72 5.52" opacity=".2"/><path d="M20.1 3.09H3.9A2.43 2.43 0 0 0 1.47 5.52v11.34a2.43 2.43 0 0 0 2.43 2.43h7.29v1.62H8.76a0.81 0.81 0 0 0 0 1.62h6.48a0.81 0.81 0 0 0 0-1.62h-2.43v-1.62h7.29a2.43 2.43 0 0 0 2.43-2.43V5.52a2.43 2.43 0 0 0-2.43-2.43m-16.2 1.62h16.2a0.81 0.81 0 0 1 0.81 0.81v8.1H3.09V5.52a0.81 0.81 0 0 1 0.81-0.81m16.2 12.96H3.9a0.81 0.81 0 0 1-0.81-0.81V15.24h17.82v1.62a0.81 0.81 0 0 1-0.81 0.81"/></svg>