<svg xmlns="http://www.w3.org/2000/svg" fill="currentColor" viewBox="0 0 24 24" width="24" height="24"><path d="M23.34 3.9v16.2a0.81 0.81 0 0 1-0.81 0.81h-8.1a0.81 0.81 0 0 1-0.81-0.81V3.9a0.81 0.81 0 0 1 0.81-0.81h8.1a0.81 0.81 0 0 1 0.81 0.81" opacity=".2"/><path d="M20.91 6.33a0.81 0.81 0 0 1-0.81 0.81h-3.24a0.81 0.81 0 0 1 0-1.62h3.24a0.81 0.81 0 0 1 0.81 0.81M20.1 8.76h-3.24a0.81 0.81 0 0 0 0 1.62h3.24a0.81 0.81 0 0 0 0-1.62m4.05-4.86v16.2a1.62 1.62 0 0 1-1.62 1.62h-8.1a1.62 1.62 0 0 1-1.62-1.62V18.48H8.76v1.62h1.62a0.81 0.81 0 0 1 0 1.62H5.52a0.81 0.81 0 0 1 0-1.62h1.62V18.48H2.28a2.43 2.43 0 0 1-2.43-2.43V8.76A2.43 2.43 0 0 1 2.28 6.33h10.53V3.9a1.62 1.62 0 0 1 1.62-1.62h8.1a1.62 1.62 0 0 1 1.62 1.62m-11.34 12.96V7.95H2.28a0.81 0.81 0 0 0-0.81 0.81v7.29a0.81 0.81 0 0 0 0.81 0.81z m9.72 3.24V3.9h-8.1v16.2zM18.48 16.05a1.216 1.216 0 1 0 1.214 1.214 1.216 1.216 0 0 0-1.214-1.214"/></svg>