<svg width="24" height="24" viewBox="0 0 24 24" fill="none" xmlns="http://www.w3.org/2000/svg">
<path d="M3 14.25V6C3 5.60218 3.15804 5.22064 3.43934 4.93934C3.72064 4.65804 4.10218 4.5 4.5 4.5H19.5C19.8978 4.5 20.2794 4.65804 20.5607 4.93934C20.842 5.22064 21 5.60218 21 6V14.25H3Z" fill="black" fill-opacity="0.2"/>
<path d="M15 21H9M3 14.25H21M12 18V21M19.5 18H4.5C3.67157 18 3 17.3284 3 16.5V6C3 5.17157 3.67157 4.5 4.5 4.5H19.5C20.3284 4.5 21 5.17157 21 6V16.5C21 17.3284 20.3284 18 19.5 18Z" stroke="black" stroke-width="1.5" stroke-linecap="round" stroke-linejoin="round"/>
</svg>
