<svg width="24" height="24" viewBox="0 0 24 24" fill="none" xmlns="http://www.w3.org/2000/svg">
<path d="M15 9C15 8.60218 15.158 8.22064 15.4393 7.93934C15.7206 7.65804 16.1022 7.5 16.5 7.5H18.75V6C18.75 5.60218 18.592 5.22064 18.3107 4.93934C18.0294 4.65804 17.6478 4.5 17.25 4.5H3.75C3.35218 4.5 2.97064 4.65804 2.68934 4.93934C2.40804 5.22064 2.25 5.60218 2.25 6V15C2.25 15.3978 2.40804 15.7794 2.68934 16.0607C2.97064 16.342 3.35218 16.5 3.75 16.5H15V9Z" fill="black" fill-opacity="0.2"/>
<path d="M12 19.5H8.25M15 16.5H3.75C3.35218 16.5 2.97064 16.342 2.68934 16.0607C2.40804 15.7794 2.25 15.3978 2.25 15V6C2.25 5.60218 2.40804 5.22064 2.68934 4.93934C2.97064 4.65804 3.35218 4.5 3.75 4.5H17.25C17.6478 4.5 18.0294 4.65804 18.3107 4.93934C18.592 5.22064 18.75 5.60218 18.75 6V7.5M18 10.5H19.5M22.5 9V18C22.5 18.8284 21.8284 19.5 21 19.5H16.5C15.6716 19.5 15 18.8284 15 18V9C15 8.17157 15.6716 7.5 16.5 7.5H21C21.8284 7.5 22.5 8.17157 22.5 9Z" stroke="black" stroke-width="1.5" stroke-linecap="round" stroke-linejoin="round"/>
</svg>
