<svg width="24" height="24" viewBox="0 0 24 24" fill="none" xmlns="http://www.w3.org/2000/svg">
<path d="M12.3745 9.7251H14.9995V15.3501H12.3745C11.9602 15.3501 11.6245 15.0143 11.6245 14.6001V10.4751C11.6245 10.0609 11.9602 9.7251 12.3745 9.7251Z" fill="black" fill-opacity="0.2"/>
<path d="M18.3745 9.7251H20.9995V15.3501H18.3745C17.9602 15.3501 17.6245 15.0143 17.6245 14.6001V10.4751C17.6245 10.0609 17.9602 9.7251 18.3745 9.7251Z" fill="black" fill-opacity="0.2"/>
<path d="M2.99982 14.6001V10.4751C2.99982 10.0609 3.3356 9.7251 3.74982 9.7251H6.37482V15.3501H3.74982C3.3356 15.3501 2.99982 15.0143 2.99982 14.6001Z" fill="black" fill-opacity="0.2"/>
<path d="M6.37482 6.3501V9.7251M6.37482 9.7251V15.3501H3.74982C3.3356 15.3501 2.99982 15.0143 2.99982 14.6001V10.4751C2.99982 10.0609 3.3356 9.7251 3.74982 9.7251H6.37482ZM8.99982 8.9751V16.1001M8.99982 7.8501V6.3501M14.9995 15.3501V9.7251H12.3745C11.9602 9.7251 11.6245 10.0609 11.6245 10.4751V14.6001C11.6245 15.0143 11.9602 15.3501 12.3745 15.3501H14.9995ZM14.9995 15.3501V17.2251C14.9995 17.6393 14.6637 17.9751 14.2495 17.9751H10.8745M20.9995 15.3501V9.7251H18.3745C17.9602 9.7251 17.6245 10.0609 17.6245 10.4751V14.6001C17.6245 15.0143 17.9602 15.3501 18.3745 15.3501H20.9995ZM20.9995 15.3501V17.2251C20.9995 17.6393 20.6637 17.9751 20.2495 17.9751H16.8745" stroke="black" stroke-width="1.5"/>
</svg>
