<svg width="24" height="24" viewBox="0 0 24 24" fill="none" xmlns="http://www.w3.org/2000/svg">
<path d="M15.5307 2.47049L2.47003 15.5312C2.17713 15.8241 2.17713 16.299 2.47003 16.5919L7.40939 21.5312C7.70228 21.8241 8.17716 21.8241 8.47005 21.5312L21.5308 8.47051C21.8236 8.17762 21.8236 7.70274 21.5308 7.40985L16.5914 2.47049C16.2985 2.1776 15.8236 2.1776 15.5307 2.47049Z" fill="black" fill-opacity="0.2"/>
<path d="M11.9999 6.00019L14.9999 9.00019M8.99995 9.00019L11.9999 12.0002M5.99995 12.0002L8.99995 15.0002M2.46991 15.5309L15.5306 2.47016C15.8235 2.17727 16.2984 2.17726 16.5913 2.47016L21.5306 7.40952C21.8235 7.70241 21.8235 8.17729 21.5306 8.47018L8.46994 21.5309C8.17704 21.8238 7.70217 21.8238 7.40928 21.5309L2.46991 16.5915C2.17702 16.2986 2.17702 15.8238 2.46991 15.5309Z" stroke="black" stroke-width="1.5" stroke-linecap="round" stroke-linejoin="round"/>
</svg>
