<svg xmlns="http://www.w3.org/2000/svg" width="24" height="24" fill="currentColor" viewBox="0 0 24 24"><path d="M23.34 10.38l-3.404 3.781a0.816 0.816 0 0 1-0.602 0.269H3.09a0.81 0.81 0 0 1-0.81-0.81v-6.48a0.81 0.81 0 0 1 0.81-0.81h16.244a0.816 0.816 0 0 1 0.602 0.269z" opacity=".2"/><path d="M23.947 9.839l-3.409-3.781a1.62 1.62 0 0 0-1.204-0.537h-6.524v-3.24a0.81 0.81 0 0 0-1.62 0v3.24h-8.1a1.62 1.62 0 0 0-1.62 1.62v6.48a1.62 1.62 0 0 0 1.62 1.62h8.1v6.48a0.81 0.81 0 0 0 1.62 0v-6.48h6.524a1.62 1.62 0 0 0 1.204-0.536l3.409-3.781a0.81 0.81 0 0 0 0-1.084z m-4.613 3.781H3.09v-6.48h16.244l2.916 3.24z"/></svg>