<svg width="24" height="24" viewBox="0 0 24 24" fill="none" xmlns="http://www.w3.org/2000/svg">
<path d="M15 12C15 8.68629 16.511 6 18.375 6C20.239 6 21.75 8.68629 21.75 12C21.75 15.3137 20.239 18 18.375 18C16.511 18 15 15.3137 15 12Z" fill="black" fill-opacity="0.2"/>
<path d="M18.375 6C16.511 6 15 8.68629 15 12C15 15.3137 16.511 18 18.375 18M18.375 6C20.239 6 21.75 8.68629 21.75 12C21.75 15.3137 20.239 18 18.375 18M18.375 6H5.625C3.76125 6 2.25 8.68594 2.25 12C2.25 15.3141 3.76125 18 5.625 18H18.375" stroke="black" stroke-width="1.5" stroke-linecap="round" stroke-linejoin="round"/>
</svg>
