<svg width="24" height="24" viewBox="0 0 24 24" fill="none" xmlns="http://www.w3.org/2000/svg">
<path d="M15 12.0006C14.9999 12.6946 14.7591 13.3672 14.3187 13.9036C13.8783 14.4401 13.2656 14.8072 12.5848 14.9425C11.9041 15.0778 11.1975 14.9729 10.5854 14.6456C9.97337 14.3184 9.49372 13.789 9.22821 13.1478C8.96269 12.5065 8.92773 11.793 9.1293 11.1289C9.33086 10.4647 9.75647 9.89099 10.3336 9.50547C10.9107 9.11994 11.6037 8.94645 12.2944 9.01457C12.9851 9.08268 13.6308 9.38818 14.1216 9.87901L18.3638 5.63682C16.8914 4.16453 14.954 3.24832 12.8818 3.0443C10.8097 2.84028 8.73084 3.36107 6.9996 4.51795C5.26835 5.67482 3.99179 7.39619 3.38744 9.38876C2.78308 11.3813 2.88832 13.5218 3.68522 15.4455C4.48213 17.3691 5.92138 18.957 7.75776 19.9385C9.59414 20.9199 11.714 21.2343 13.7562 20.828C15.7984 20.4217 17.6365 19.3198 18.9574 17.7102C20.2782 16.1006 21.0001 14.0828 21 12.0006H15Z" fill="black" fill-opacity="0.2"/>
<path d="M21 12C21 16.9706 16.9706 21 12 21C7.02944 21 3 16.9706 3 12C3 7.02944 7.02944 3 12 3C16.9706 3 21 7.02944 21 12ZM21 12H15M15 12C15 13.6569 13.6569 15 12 15C10.3431 15 9 13.6569 9 12C9 10.3431 10.3431 9 12 9C13.6569 9 15 10.3431 15 12ZM18.3636 5.63599L14.1215 9.87817" stroke="black" stroke-width="1.5" stroke-linecap="round" stroke-linejoin="round"/>
</svg>
