<svg width="24" height="24" viewBox="0 0 24 24" fill="none" xmlns="http://www.w3.org/2000/svg">
<rect x="4.5" y="4.5" width="15" height="15" rx="0.833333" fill="black" fill-opacity="0.2"/>
<path d="M4.5 5.33333C4.5 4.8731 4.8731 4.5 5.33333 4.5H18.6667C19.1269 4.5 19.5 4.8731 19.5 5.33333V18.6667C19.5 19.1269 19.1269 19.5 18.6667 19.5H5.33333C4.8731 19.5 4.5 19.1269 4.5 18.6667V5.33333Z" stroke="black" stroke-width="1.5"/>
<path d="M8.25 9.00195C8.25 8.58774 8.58579 8.25195 9 8.25195H9.7522C10.1664 8.25195 10.5022 8.58774 10.5022 9.00195V15.0044C10.5022 15.4186 10.1664 15.7544 9.7522 15.7544H9C8.58579 15.7544 8.25 15.4186 8.25 15.0044V9.00195Z" stroke="black" stroke-width="1.5"/>
<path d="M13.5 9.00195C13.5 8.58774 13.8358 8.25195 14.25 8.25195H15.0022C15.4164 8.25195 15.7522 8.58774 15.7522 9.00195V15.0044C15.7522 15.4186 15.4164 15.7544 15.0022 15.7544H14.25C13.8358 15.7544 13.5 15.4186 13.5 15.0044V9.00195Z" stroke="black" stroke-width="1.5"/>
</svg>
