<svg width="24" height="24" viewBox="0 0 24 24" fill="none" xmlns="http://www.w3.org/2000/svg">
<path d="M17.25 6.75L6.75 6.75L6.75 17.25L17.25 17.25V6.75Z" fill="black" fill-opacity="0.2" stroke="black" stroke-width="1.5" stroke-linecap="round"/>
<path fill-rule="evenodd" clip-rule="evenodd" d="M18.7488 6.75C18.7488 5.92157 18.0772 5.25 17.2488 5.25H6.74878C5.92035 5.25 5.24878 5.92157 5.24878 6.75V17.25C5.24878 18.0784 5.92035 18.75 6.74878 18.75H17.2488C18.0772 18.75 18.7488 18.0784 18.7488 17.25V6.75ZM6.75 6.75H17.25V17.25H6.75V6.75Z" fill="black"/>
<path d="M2.25 3.75L2.25 20.25M21.75 3.75V20.25M6.75 6.75H17.25V17.25H6.75V6.75ZM17.2488 18.75H6.74878C5.92035 18.75 5.24878 18.0784 5.24878 17.25V6.75C5.24878 5.92157 5.92035 5.25 6.74878 5.25H17.2488C18.0772 5.25 18.7488 5.92157 18.7488 6.75V17.25C18.7488 18.0784 18.0772 18.75 17.2488 18.75Z" stroke="black" stroke-width="1.5" stroke-linecap="round"/>
</svg>
