<svg width="24" height="24" viewBox="0 0 24 24" fill="none" xmlns="http://www.w3.org/2000/svg">
<path d="M5 5.75391C5 5.33969 5.33579 5.00391 5.75 5.00391H18.25C18.6642 5.00391 19 5.33969 19 5.75391V18.2539C19 18.6681 18.6642 19.0039 18.25 19.0039H5.75C5.33579 19.0039 5 18.6681 5 18.2539V5.75391Z" fill="black" fill-opacity="0.2"/>
<path d="M3.00391 19.5C3.00391 19.7761 2.78005 20 2.50391 20C2.22776 20 2.00391 19.7761 2.00391 19.5L2.00391 4.5C2.00391 4.22386 2.22776 4 2.50391 4C2.78005 4 3.00391 4.22386 3.00391 4.5L3.00391 19.5Z" fill="black"/>
<path d="M21.9961 19.5C21.9961 19.7761 21.7722 20 21.4961 20C21.22 20 20.9961 19.7761 20.9961 19.5V4.5C20.9961 4.22386 21.22 4 21.4961 4C21.7722 4 21.9961 4.22386 21.9961 4.5V19.5Z" fill="black"/>
<path d="M8 16.0039H16V8.00391H8V16.0039ZM19 18.2539C19 18.6421 18.7051 18.9614 18.3271 19L18.25 19.0039H5.75L5.67285 19C5.32025 18.964 5.03994 18.6837 5.00391 18.3311L5 18.2539V5.75391C5 5.33969 5.33579 5.00391 5.75 5.00391H18.25C18.6642 5.00391 19 5.33969 19 5.75391V18.2539Z" fill="black"/>
</svg>
