<svg width="24" height="24" viewBox="0 0 24 24" fill="none" xmlns="http://www.w3.org/2000/svg">
<path d="M3 4.75C3 4.33579 3.33579 4 3.75 4H20.25C20.6642 4 21 4.33579 21 4.75V19.25C21 19.6642 20.6642 20 20.25 20H3.75C3.33579 20 3 19.6642 3 19.25V4.75Z" fill="black" fill-opacity="0.2"/>
<path d="M4 19H20V5H4V19ZM21 19.25C21 19.6382 20.7051 19.9575 20.3271 19.9961L20.25 20H3.75C3.33579 20 3 19.6642 3 19.25V4.75C3 4.33579 3.33579 4 3.75 4H20.25L20.3271 4.00391C20.7051 4.04253 21 4.36183 21 4.75V19.25Z" fill="black"/>
<path d="M7 7.75C7 7.33579 7.33579 7 7.75 7H10.25C10.6642 7 11 7.33579 11 7.75V16.25C11 16.6642 10.6642 17 10.25 17H7.75C7.33579 17 7 16.6642 7 16.25V7.75Z" fill="black"/>
<path d="M13 7.75C13 7.33579 13.3358 7 13.75 7H16.25C16.6642 7 17 7.33579 17 7.75V16.25C17 16.6642 16.6642 17 16.25 17H13.75C13.3358 17 13 16.6642 13 16.25V7.75Z" fill="black"/>
</svg>
