<svg viewBox="0 0 24 24" fill="none" xmlns="http://www.w3.org/2000/svg" width="24" height="24">
<path d="M3.6 4.505C3.6 4.008 4.003 3.605 4.5 3.605H19.5C19.997 3.605 20.4 4.008 20.4 4.505V19.505C20.4 20.002 19.997 20.405 19.5 20.405H4.5C4.003 20.405 3.6 20.002 3.6 19.505V4.505Z" fill="black" fill-opacity="0.2"/>
<path d="M1.205 21C1.205 21.331 0.936 21.6 0.605 21.6 0.273 21.6 0.005 21.331 0.005 21L0.005 3C0.005 2.669 0.273 2.4 0.605 2.4 0.936 2.4 1.205 2.669 1.205 3L1.205 21Z" fill="black"/>
<path d="M23.995 21C23.995 21.331 23.727 21.6 23.395 21.6 23.064 21.6 22.795 21.331 22.795 21V3C22.795 2.669 23.064 2.4 23.395 2.4 23.727 2.4 23.995 2.669 23.995 3V21Z" fill="black"/>
<path d="M7.2 16.805H16.8V7.205H7.2V16.805ZM20.4 19.505C20.4 19.971 20.046 20.354 19.593 20.4L19.5 20.405H4.5L4.407 20.4C3.984 20.357 3.648 20.02 3.605 19.597L3.6 19.505V4.505C3.6 4.008 4.003 3.605 4.5 3.605H19.5C19.997 3.605 20.4 4.008 20.4 4.505V19.505Z" fill="black"/>
</svg>