<svg xmlns="http://www.w3.org/2000/svg" width="24" height="24" fill="currentColor" viewBox="0 0 24 24"><path d="M7.241 16.759a2.43 2.43 0 1 1-3.443 0 2.43 2.43 0 0 1 3.443 0m12.96-12.96a2.43 2.43 0 1 0 0 3.443 2.43 2.43 0 0 0 0-3.443" opacity=".2"/><path d="M20.772 3.228a3.24 3.24 0 0 0-5.083 3.937L7.164 15.69a3.246 3.246 0 0 0-3.937 0.5 3.24 3.24 0 1 0 5.083 0.645l8.525-8.525a3.24 3.24 0 0 0 3.937-5.083zM6.665 19.631a1.62 1.62 0 0 1-2.292-2.292 1.62 1.62 0 0 1 2.291 0 1.62 1.62 0 0 1 0.001 2.289z m12.96-12.96a1.62 1.62 0 1 1 0-2.291 1.62 1.62 0 0 1 0.002 2.285z"/></svg>