<svg width="24" height="24" viewBox="0 0 24 24" fill="none" xmlns="http://www.w3.org/2000/svg">
<path d="M18.75 3.75H5.25C4.42157 3.75 3.75 4.42157 3.75 5.25V18.75C3.75 19.5784 4.42157 20.25 5.25 20.25H18.75C19.5784 20.25 20.25 19.5784 20.25 18.75V5.25C20.25 4.42157 19.5784 3.75 18.75 3.75Z" fill="black" fill-opacity="0.2"/>
<path d="M12 6.75146C12.4142 6.75146 12.75 6.41568 12.75 6.00146C12.75 5.58725 12.4142 5.25146 12 5.25146C11.5858 5.25146 11.25 5.58725 11.25 6.00146C11.25 6.41568 11.5858 6.75146 12 6.75146Z" fill="black"/>
<path d="M12 18.7479C12.4142 18.7479 12.75 18.4122 12.75 17.9979C12.75 17.5837 12.4142 17.2479 12 17.2479C11.5858 17.2479 11.25 17.5837 11.25 17.9979C11.25 18.4122 11.5858 18.7479 12 18.7479Z" fill="black"/>
<path d="M3.75 11.9999H20.25M12.75 6.00146C12.75 6.41568 12.4142 6.75146 12 6.75146C11.5858 6.75146 11.25 6.41568 11.25 6.00146C11.25 5.58725 11.5858 5.25146 12 5.25146C12.4142 5.25146 12.75 5.58725 12.75 6.00146ZM12.75 17.9979C12.75 18.4122 12.4142 18.7479 12 18.7479C11.5858 18.7479 11.25 18.4122 11.25 17.9979C11.25 17.5837 11.5858 17.2479 12 17.2479C12.4142 17.2479 12.75 17.5837 12.75 17.9979Z" stroke="black" stroke-width="1.5" stroke-linecap="round" stroke-linejoin="round"/>
</svg>
