<svg width="24" height="24" viewBox="0 0 24 24" fill="none" xmlns="http://www.w3.org/2000/svg">
<path d="M19.5 18C21.1569 18 22.5 16.6569 22.5 15C22.5 13.3431 21.1569 12 19.5 12C17.8431 12 16.5 13.3431 16.5 15C16.5 16.6569 17.8431 18 19.5 18Z" fill="black" fill-opacity="0.2"/>
<path d="M10.5 13.5C10.5 13.0858 10.1642 12.75 9.75 12.75C9.33579 12.75 9 13.0858 9 13.5H9.75H10.5ZM10.8483 20.6516L11.3787 20.1213V20.1213L10.8483 20.6516ZM12.75 3C12.3358 3 12 3.33579 12 3.75C12 4.16421 12.3358 4.5 12.75 4.5V3.75V3ZM15 3.75H15.75C15.75 3.33579 15.4142 3 15 3V3.75ZM9.81938 13.5L9.80963 12.7501L9.80946 12.7501L9.81938 13.5ZM6.06214 11.9871L6.58897 11.4533L6.58897 11.4533L6.06214 11.9871ZM4.90616 10.2752L4.21419 10.5645V10.5645L4.90616 10.2752ZM4.5 8.25L5.25 8.25007V8.25H4.5ZM4.5 3.75V3C4.08579 3 3.75 3.33579 3.75 3.75H4.5ZM6.75 4.5C7.16421 4.5 7.5 4.16421 7.5 3.75C7.5 3.33579 7.16421 3 6.75 3V3.75V4.5ZM19.5 16.125V16.875C20.5355 16.875 21.375 16.0355 21.375 15H20.625H19.875C19.875 15.2071 19.7071 15.375 19.5 15.375V16.125ZM20.625 15H21.375C21.375 13.9645 20.5355 13.125 19.5 13.125V13.875V14.625C19.7071 14.625 19.875 14.7929 19.875 15H20.625ZM19.5 13.875V13.125C18.4645 13.125 17.625 13.9645 17.625 15H18.375H19.125C19.125 14.7929 19.2929 14.625 19.5 14.625V13.875ZM18.375 15H17.625C17.625 16.0355 18.4645 16.875 19.5 16.875V16.125V15.375C19.2929 15.375 19.125 15.2071 19.125 15H18.375ZM22.5 15H21.75C21.75 16.2426 20.7426 17.25 19.5 17.25V18V18.75C21.5711 18.75 23.25 17.0711 23.25 15H22.5ZM19.5 18V17.25C18.2574 17.25 17.25 16.2426 17.25 15H16.5H15.75C15.75 17.0711 17.4289 18.75 19.5 18.75V18ZM16.5 15H17.25C17.25 13.7574 18.2574 12.75 19.5 12.75V12V11.25C17.4289 11.25 15.75 12.9289 15.75 15H16.5ZM19.5 12V12.75C20.7426 12.75 21.75 13.7574 21.75 15H22.5H23.25C23.25 12.9289 21.5711 11.25 19.5 11.25V12ZM9.75 13.5H9V18H9.75H10.5V13.5H9.75ZM9.75 18H9C9 19.1935 9.47411 20.3381 10.318 21.182L10.8483 20.6516L11.3787 20.1213C10.8161 19.5587 10.5 18.7956 10.5 18H9.75ZM10.8483 20.6516L10.318 21.182C11.1619 22.0259 12.3065 22.5 13.5 22.5V21.75V21C12.7044 21 11.9413 20.6839 11.3787 20.1213L10.8483 20.6516ZM13.5 21.75V22.5H15.75V21.75V21H13.5V21.75ZM15.75 21.75V22.5C16.9435 22.5 18.0881 22.0259 18.932 21.182L18.4017 20.6516L17.8713 20.1213C17.3087 20.6839 16.5456 21 15.75 21V21.75ZM18.4017 20.6516L18.932 21.182C19.7759 20.3381 20.25 19.1935 20.25 18H19.5H18.75C18.75 18.7956 18.4339 19.5587 17.8713 20.1213L18.4017 20.6516ZM12.75 3.75V4.5H15V3.75V3H12.75V3.75ZM15 3.75H14.25V8.17219H15H15.75V3.75H15ZM15 8.17219H14.25C14.25 10.6612 12.2703 12.7181 9.80963 12.7501L9.81938 13.5L9.82912 14.2499C13.1397 14.2069 15.75 11.4525 15.75 8.17219H15ZM9.81938 13.5L9.80946 12.7501C9.21353 12.7579 8.62197 12.6474 8.06912 12.4247L7.78898 13.1205L7.50883 13.8162C8.24596 14.113 9.03471 14.2604 9.82929 14.2499L9.81938 13.5ZM7.78898 13.1205L8.06912 12.4247C7.51627 12.2021 7.01316 11.8719 6.58897 11.4533L6.06214 11.9871L5.5353 12.5209C6.10087 13.0791 6.7717 13.5193 7.50883 13.8162L7.78898 13.1205ZM6.06214 11.9871L6.58897 11.4533C6.16479 11.0346 5.828 10.5359 5.59814 9.98599L4.90616 10.2752L4.21419 10.5645C4.52066 11.2977 4.96972 11.9627 5.5353 12.5209L6.06214 11.9871ZM4.90616 10.2752L5.59814 9.98599C5.36828 9.43611 5.24995 8.84605 5.25 8.25007L4.5 8.25L3.75 8.24993C3.74993 9.04458 3.90771 9.83133 4.21419 10.5645L4.90616 10.2752ZM4.5 8.25H5.25V3.75H4.5H3.75V8.25H4.5ZM4.5 3.75V4.5H6.75V3.75V3H4.5V3.75Z" fill="black"/>
</svg>
