<svg viewBox="0 0 24 24" fill="none" xmlns="http://www.w3.org/2000/svg" width="24" height="24">
<path fill-rule="evenodd" clip-rule="evenodd" d="M6.292 12L3.69 14.602V9.398L6.292 12Z" fill="black" fill-opacity="0.2"/>
<path d="M20.911 11.4C21.242 11.4 21.511 11.669 21.511 12 21.511 12.331 21.242 12.6 20.911 12.6H10.38C10.049 12.6 9.78 12.331 9.78 12 9.78 11.669 10.049 11.4 10.38 11.4H20.911Z" fill="black"/>
<path d="M2.861 7.396C3.085 7.303 3.343 7.354 3.514 7.526L7.564 11.576C7.799 11.81 7.799 12.19 7.564 12.424L3.514 16.474C3.343 16.646 3.085 16.697 2.861 16.604 2.636 16.511 2.49 16.293 2.49 16.05V7.95C2.49 7.707 2.636 7.489 2.861 7.396ZM3.69 14.602L6.292 12 3.69 9.398V14.602Z" fill="black"/>
</svg>