<svg width="24" height="24" viewBox="0 0 24 24" fill="none" xmlns="http://www.w3.org/2000/svg">
<path d="M18.7499 3.75H5.24999C4.85217 3.75 4.47064 3.90803 4.18934 4.18934C3.90803 4.47064 3.75 4.85217 3.75 5.24999V18.7499C3.75 19.1477 3.90803 19.5292 4.18934 19.8105C4.47064 20.0918 4.85217 20.2499 5.24999 20.2499H18.7499C19.1477 20.2499 19.5292 20.0918 19.8105 19.8105C20.0918 19.5292 20.2499 19.1477 20.2499 18.7499V5.24999C20.2499 4.85217 20.0918 4.47064 19.8105 4.18934C19.5292 3.90803 19.1477 3.75 18.7499 3.75Z" fill="black" fill-opacity="0.2"/>
<path d="M8.25001 3.75005L4.3716 7.62845C4.17454 7.82539 4.01821 8.05922 3.91156 8.3166C3.8049 8.57397 3.75 8.84984 3.75 9.12844C3.75 9.40704 3.8049 9.68291 3.91156 9.94029C4.01821 10.1977 4.17454 10.4315 4.3716 10.6284C4.56854 10.8255 4.80237 10.9818 5.05975 11.0885C5.31712 11.1951 5.59299 11.25 5.87159 11.25C6.15019 11.25 6.42606 11.1951 6.68344 11.0885C6.94081 10.9818 7.17465 10.8255 7.37158 10.6284L13.6284 4.3716C13.8253 4.17454 14.0592 4.01821 14.3166 3.91156C14.5739 3.8049 14.8498 3.75 15.1284 3.75C15.407 3.75 15.6829 3.8049 15.9402 3.91156C16.1976 4.01821 16.4314 4.17454 16.6284 4.3716C16.8254 4.56854 16.9818 4.80237 17.0884 5.05975C17.1951 5.31712 17.25 5.59299 17.25 5.87159C17.25 6.15019 17.1951 6.42606 17.0884 6.68344C16.9818 6.94081 16.8254 7.17465 16.6284 7.37158L7.37158 16.6284C7.17452 16.8253 7.01819 17.0592 6.91153 17.3165C6.80487 17.5739 6.74998 17.8498 6.74998 18.1284C6.74998 18.407 6.80487 18.6828 6.91153 18.9402C7.01819 19.1976 7.17452 19.4314 7.37158 19.6284C7.56852 19.8254 7.80235 19.9818 8.05973 20.0884C8.3171 20.1951 8.59297 20.25 8.87157 20.25C9.15017 20.25 9.42604 20.1951 9.68341 20.0884C9.94079 19.9818 10.1746 19.8254 10.3716 19.6284L16.6284 13.3715C16.8253 13.1745 17.0592 13.0181 17.3165 12.9115C17.5739 12.8048 17.8498 12.7499 18.1284 12.7499C18.407 12.7499 18.6828 12.8048 18.9402 12.9115C19.1976 13.0181 19.4314 13.1745 19.6284 13.3715C19.8254 13.5685 19.9818 13.8023 20.0884 14.0597C20.1951 14.3171 20.25 14.5929 20.25 14.8715C20.25 15.1501 20.1951 15.426 20.0884 15.6834C19.9818 15.9407 19.8254 16.1746 19.6284 16.3715L18.7499 17.2499C18.5529 17.4469 18.3965 17.6807 18.2899 17.9381C18.1832 18.1955 18.1283 18.4713 18.1283 18.7499C18.1283 19.0285 18.1832 19.3044 18.2899 19.5618C18.3965 19.8191 18.5529 20.053 18.7499 20.2499" stroke="black" stroke-width="1.49999" stroke-linecap="round" stroke-linejoin="round"/>
</svg>
