<svg xmlns="http://www.w3.org/2000/svg" width="24" height="24" fill="currentColor" viewBox="0 0 24 24"><path d="M21.72 12A9.72 9.72 0 1 1 12 2.28a9.72 9.72 0 0 1 9.72 9.72" opacity=".2"/><path d="M12 1.47A10.53 10.53 0 1 0 22.53 12 10.541 10.541 0 0 0 12 1.47m8.874 9.738q-0.386-0.018-0.774-0.018a17.04 17.04 0 0 0-4.448 0.592A16.8 16.8 0 0 0 14.29 8.76a17.04 17.04 0 0 0 3.867-3.194 8.88 8.88 0 0 1 2.718 5.642z m-3.986-6.654a15.36 15.36 0 0 1-3.471 2.842 17.16 17.16 0 0 0-3.911-3.95 8.916 8.916 0 0 1 7.391 1.108z m-9.177-0.362a15.48 15.48 0 0 1 4.253 3.967A15.36 15.36 0 0 1 5.52 9.57a15.6 15.6 0 0 1-2.053-0.137 8.952 8.952 0 0 1 4.245-5.241zM3.089 12a8.4 8.4 0 0 1 0.054-0.976 16.8 16.8 0 0 0 2.376 0.166 17.04 17.04 0 0 0 7.343-1.661 15.24 15.24 0 0 1 1.246 2.747 16.8 16.8 0 0 0-2.49 1.175 17.16 17.16 0 0 0-5.576 5.169A8.88 8.88 0 0 1 3.089 12m4.253 7.594a15.48 15.48 0 0 1 5.086-4.738 15.12 15.12 0 0 1 2.122-1.013 15.6 15.6 0 0 1 0.378 3.389 15.6 15.6 0 0 1-0.353 3.296 8.904 8.904 0 0 1-7.232-0.936z m9.016 0.175a16.8 16.8 0 0 0 0.189-2.531 17.04 17.04 0 0 0-0.45-3.895 15.6 15.6 0 0 1 4.002-0.533q0.385 0 0.77 0.019a8.928 8.928 0 0 1-4.511 6.939z"/></svg>