<svg width="24" height="24" viewBox="0 0 24 24" fill="none" xmlns="http://www.w3.org/2000/svg">
<path d="M12 21C16.9706 21 21 16.9706 21 12C21 7.02944 16.9706 3 12 3C7.02944 3 3 7.02944 3 12C3 16.9706 7.02944 21 12 21Z" fill="black" fill-opacity="0.2"/>
<path d="M6.65625 19.2441C7.99157 17.0323 9.87573 15.2032 12.126 13.934C14.3764 12.6648 16.9164 11.9986 19.5 12C20.0053 12 20.5059 12.0253 21 12.0741M17.625 4.97717C16.2199 6.70423 14.4473 8.09614 12.4362 9.05154C10.4252 10.0069 8.22642 10.5018 5.99999 10.5C5.05122 10.5002 4.10453 10.4111 3.17249 10.2337M8.05591 3.90843C10.3116 5.23161 12.1819 7.12181 13.4811 9.39135C14.7803 11.6609 15.4633 14.2308 15.4622 16.8459C15.463 18.0713 15.3141 19.2923 15.0187 20.4816M21 12C21 16.9706 16.9706 21 12 21C7.02944 21 3 16.9706 3 12C3 7.02944 7.02944 3 12 3C16.9706 3 21 7.02944 21 12Z" stroke="black" stroke-width="1.5" stroke-linecap="round" stroke-linejoin="round"/>
</svg>
