<svg width="24" height="24" viewBox="0 0 24 24" fill="none" xmlns="http://www.w3.org/2000/svg">
<path d="M4.57324 12.9463H2.25C1.83579 12.9463 1.5 12.6105 1.5 12.1963V3.19629C1.5 2.78208 1.83579 2.44629 2.25 2.44629H21.75C22.1642 2.44629 22.5 2.78208 22.5 3.19629V12.1963C22.5 12.6105 22.1642 12.9463 21.75 12.9463H19.4229C19.7383 12.9463 19.9941 13.1385 19.9941 13.375V18.5137C19.9941 18.7502 19.7383 18.9424 19.4229 18.9424H4.57324C4.25782 18.9424 4.00198 18.7502 4.00195 18.5137V13.375C4.00195 13.1385 4.2578 12.9463 4.57324 12.9463Z" fill="black" fill-opacity="0.2"/>
<path d="M20 13.2505L20 18.6861C20 18.8345 19.9234 18.9768 19.787 19.0817C19.6506 19.1867 19.4656 19.2456 19.2727 19.2456H4.72727C4.53439 19.2456 4.3494 19.1867 4.21301 19.0817C4.07662 18.9768 4 18.8345 4 18.6861V13.25M9.74902 16.3779H14.2475M6 6.5V9.5M4.5 6.5H7.5M2.25 13.25H21.75C22.1642 13.25 22.5 12.9142 22.5 12.5V3.5C22.5 3.08579 22.1642 2.75 21.75 2.75H2.25C1.83579 2.75 1.5 3.08579 1.5 3.5V12.5C1.5 12.9142 1.83579 13.25 2.25 13.25ZM19.505 6.6499L16.805 9.3499L14.105 6.6499H19.505Z" stroke="black" stroke-width="1.5" stroke-linecap="round" stroke-linejoin="round"/>
</svg>
