<svg xmlns="http://www.w3.org/2000/svg" width="24" height="24" fill="currentColor" viewBox="0 0 24 24"><path d="M19.29 7.95L12 15.24H8.76V12l7.29-7.29z" opacity=".2"/><path d="M22.294 4.946l-3.24-3.24a0.81 0.81 0 0 0-1.146 0l-9.72 9.72a0.816 0.816 0 0 0-0.237 0.574v3.24a0.81 0.81 0 0 0 0.81 0.81h3.24a0.816 0.816 0 0 0 0.574-0.236l9.72-9.72a0.81 0.81 0 0 0 0-1.146z m-10.629 9.484H9.57v-2.095l6.48-6.48 2.095 2.095z m7.625-7.625l-2.095-2.095L18.48 3.425 20.575 5.52zM21.72 12v8.1a1.62 1.62 0 0 1-1.62 1.62H3.9a1.62 1.62 0 0 1-1.62-1.62V3.9A1.62 1.62 0 0 1 3.9 2.28H12a0.81 0.81 0 0 1 0 1.62H3.9v16.2h16.2V12a0.81 0.81 0 0 1 1.62 0"/></svg>