<svg width="24" height="24" viewBox="0 0 24 24" fill="none" xmlns="http://www.w3.org/2000/svg">
<path d="M12 15.0003L3.75 10.6006V15.59C3.74958 15.7732 3.81628 15.9503 3.9375 16.0878C4.99688 17.2681 7.58438 19.5003 12 19.5003C16.4156 19.5003 19.0013 17.2681 20.0625 16.0878C20.1837 15.9503 20.2504 15.7732 20.25 15.59V10.6006L12 15.0003Z" fill="black" fill-opacity="0.2"/>
<path d="M12 9L17.25 11.8003V22.5M20.25 10.6003V15.5897C20.2504 15.773 20.1837 15.9501 20.0625 16.0875C19.0031 17.2678 16.4156 19.5 12 19.5C7.58438 19.5 4.99875 17.2678 3.9375 16.0875C3.81628 15.9501 3.74958 15.773 3.75 15.5897V10.6003M0.75 9L12 3L23.25 9L12 15L0.75 9Z" stroke="black" stroke-width="1.5" stroke-linecap="round" stroke-linejoin="round"/>
</svg>
