<svg xmlns="http://www.w3.org/2000/svg" width="24" height="24" fill="currentColor" viewBox="0 0 24 24"><path d="M20.91 10.488v5.388a0.816 0.816 0 0 1-0.203 0.538c-1.144 1.274-3.938 3.685-8.707 3.685s-7.561-2.411-8.707-3.685a0.816 0.816 0 0 1-0.203-0.538v-5.388L12 15.24z" opacity=".2"/><path d="M24.53 8.045l-12.15-6.48a0.816 0.816 0 0 0-0.76 0l-12.15 6.48a0.81 0.81 0 0 0 0 1.429l2.81 1.5v4.902a1.608 1.608 0 0 0 0.412 1.079C4.018 18.432 6.99 20.91 12 20.91a13.2 13.2 0 0 0 4.86-0.887v3.317a0.81 0.81 0 0 0 1.62 0v-4.099a11.76 11.76 0 0 0 2.828-2.285 1.608 1.608 0 0 0 0.412-1.079v-4.902l2.81-1.5a0.81 0.81 0 0 0 0-1.429zM12 19.29c-4.381 0-6.958-2.141-8.1-3.413v-4.039l7.72 4.117a0.816 0.816 0 0 0 0.76 0l4.48-2.388v4.692c-1.276 0.595-2.884 1.032-4.86 1.032z m8.1-3.418a9.96 9.96 0 0 1-1.62 1.443v-4.614l1.62-0.864z m-2.026-4.79l-0.022-0.013-5.67-3.024a0.81 0.81 0 0 0-0.761 1.429l4.733 2.525L12 14.321 1.571 8.759 12 3.197l10.429 5.562z"/></svg>