<svg xmlns="http://www.w3.org/2000/svg" width="24" height="24" fill="currentColor" viewBox="0 0 24 24"><path d="M15.24 16.05l-4.86 4.86H5.798l-3.043-3.043a1.62 1.62 0 0 1 0-2.291L8.76 9.571z" opacity=".2"/><path d="M21.821 7.181l-4.192-4.192a2.43 2.43 0 0 0-3.437 0L2.178 15.004a2.43 2.43 0 0 0 0 3.436l3.043 3.044a0.816 0.816 0 0 0 0.575 0.236h15.113a0.81 0.81 0 0 0 0-1.62h-8.577l9.488-9.484a2.43 2.43 0 0 0 0-3.436zM10.044 20.1H6.133l-2.807-2.807a0.81 0.81 0 0 1 0-1.145L8.76 10.715l5.335 5.335z m10.631-10.631l-5.435 5.436-5.335-5.335 5.436-5.434a0.81 0.81 0 0 1 1.146 0l4.189 4.19a0.81 0.81 0 0 1 0 1.144z"/></svg>