<svg xmlns="http://www.w3.org/2000/svg" width="24" height="24" fill="currentColor" viewBox="0 0 24 24"><path d="M12 4.71C3.9 4.71 0.66 12 0.66 12s3.24 7.29 11.34 7.29S23.34 12 23.34 12 20.1 4.71 12 4.71m0 11.34A4.05 4.05 0 1 1 16.05 12 4.05 4.05 0 0 1 12 16.05" opacity=".2"/><path d="M24.08 11.672c-0.036-0.08-0.893-1.982-2.799-3.889C18.74 5.243 15.532 3.9 12 3.9S5.26 5.243 2.719 7.783c-1.907 1.907-2.768 3.812-2.799 3.889a0.816 0.816 0 0 0 0 0.658c0.036 0.08 0.893 1.981 2.799 3.888C5.26 18.757 8.468 20.1 12 20.1s6.74-1.343 9.281-3.882c1.907-1.907 2.764-3.808 2.799-3.888a0.816 0.816 0 0 0 0-0.658M12 18.48c-3.116 0-5.839-1.133-8.093-3.366A13.56 13.56 0 0 1 1.571 12a13.56 13.56 0 0 1 2.336-3.114C6.161 6.653 8.884 5.52 12 5.52s5.839 1.133 8.093 3.366A13.56 13.56 0 0 1 22.434 12c-0.73 1.363-3.911 6.48-10.434 6.48m0-11.34A4.86 4.86 0 1 0 16.86 12 4.865 4.865 0 0 0 12 7.14m0 8.1a3.24 3.24 0 1 1 3.24-3.24 3.24 3.24 0 0 1-3.24 3.24"/></svg>