<svg xmlns="http://www.w3.org/2000/svg" width="24" height="24" fill="currentColor" viewBox="0 0 24 24"><path d="M12 5.925C5.25 5.925 2.55 12 2.55 12s2.7 6.075 9.45 6.075S21.45 12 21.45 12 18.75 5.925 12 5.925m0 9.45A3.375 3.375 0 1 1 15.375 12 3.375 3.375 0 0 1 12 15.375" opacity=".2"/><path d="M22.067 11.727c-.03-.067-.744-1.652-2.333-3.241C17.617 6.369 14.943 5.25 12 5.25S6.383 6.369 4.266 8.486c-1.589 1.589-2.307 3.177-2.333 3.241a.68.68 0 0 0 0 .548c.03.067.744 1.651 2.333 3.24C6.383 17.631 9.057 18.75 12 18.75s5.617-1.119 7.734-3.235c1.589-1.589 2.303-3.173 2.333-3.24a.68.68 0 0 0 0-.548M12 17.4c-2.597 0-4.866-.944-6.744-2.805A11.3 11.3 0 0 1 3.309 12a11.3 11.3 0 0 1 1.947-2.595C7.134 7.544 9.403 6.6 12 6.6s4.866.944 6.744 2.805A11.3 11.3 0 0 1 20.695 12c-.608 1.136-3.259 5.4-8.695 5.4m0-9.45A4.05 4.05 0 1 0 16.05 12 4.054 4.054 0 0 0 12 7.95m0 6.75a2.7 2.7 0 1 1 2.7-2.7 2.7 2.7 0 0 1-2.7 2.7"/></svg>