<svg xmlns="http://www.w3.org/2000/svg" width="24" height="24" fill="currentColor" viewBox="0 0 24 24"><path d="M20.08 7.909l-2.57 2.585 0.496 0.494a1.62 1.62 0 0 1 0 2.292l-0.911 0.911a0.81 0.81 0 0 1-1.146 0l-6.144-6.146a0.81 0.81 0 0 1 0-1.146l0.911-0.911a1.62 1.62 0 0 1 2.291 0l0.494 0.496 2.531-2.543c1.092-1.092 2.873-1.159 3.995-0.101a2.836 2.836 0 0 1 0.053 4.069" opacity=".2"/><path d="M21.72 5.854a3.624 3.624 0 0 0-1.14-2.598c-1.417-1.344-3.718-1.294-5.125 0.114l-1.956 1.966a2.43 2.43 0 0 0-3.355 0.078l-0.911 0.911a1.62 1.62 0 0 0 0 2.292l0.203 0.209-5.164 5.164a4.02 4.02 0 0 0-1.066 3.847l-0.81 1.863a1.38 1.38 0 0 0 0.291 1.541 1.608 1.608 0 0 0 1.793 0.34l1.773-0.774a4.044 4.044 0 0 0 3.753-1.089l5.163-5.163 0.209 0.209a1.62 1.62 0 0 0 2.291 0l0.911-0.911a2.43 2.43 0 0 0 0.074-3.36l1.999-2.013a3.624 3.624 0 0 0 1.067-2.628zM8.861 18.581a2.436 2.436 0 0 1-2.43 0.607 0.816 0.816 0 0 0-0.562 0.031l-1.832 0.801 0.774-1.804a0.816 0.816 0 0 0 0.025-0.582 2.424 2.424 0 0 1 0.582-2.497l5.164-5.164 3.436 3.443z m10.644-11.239l-2.569 2.583a0.81 0.81 0 0 0 0 1.144l0.495 0.495a0.81 0.81 0 0 1 0 1.146l-0.911 0.911-6.14-6.152 0.911-0.911a0.81 0.81 0 0 1 1.145 0l0.495 0.496a0.816 0.816 0 0 0 0.573 0.236 0.816 0.816 0 0 0 0.573-0.239l2.525-2.54c0.791-0.792 2.076-0.828 2.864-0.082a2.028 2.028 0 0 1 0.04 2.907z"/></svg>