<svg width="24" height="24" viewBox="0 0 24 24" fill="none" xmlns="http://www.w3.org/2000/svg">
<path d="M17.1027 10.6099L17.5602 11.0683C17.6995 11.2076 17.81 11.373 17.8854 11.555C17.9608 11.737 17.9997 11.9321 17.9997 12.1291C17.9997 12.3261 17.9608 12.5212 17.8854 12.7032C17.81 12.8852 17.6995 13.0506 17.5602 13.1899L16.7164 14.0336C16.5758 14.1742 16.3851 14.2531 16.1863 14.2531C15.9875 14.2531 15.7968 14.1742 15.6561 14.0336L9.96925 8.34393C9.82871 8.20329 9.74976 8.0126 9.74976 7.81378C9.74976 7.61495 9.82871 7.42426 9.96925 7.28362L10.813 6.43987C10.9523 6.30055 11.1177 6.19003 11.2997 6.11462C11.4817 6.03922 11.6768 6.00041 11.8738 6.00041C12.0708 6.00041 12.2659 6.03922 12.4479 6.11462C12.6299 6.19003 12.7953 6.30055 12.9346 6.43987L13.393 6.89737L15.7368 4.54425C16.7483 3.53268 18.3964 3.47081 19.4343 4.4505C19.6894 4.69154 19.8935 4.98129 20.0347 5.30261C20.1759 5.62393 20.2512 5.9703 20.2562 6.32124C20.2612 6.67217 20.1957 7.02054 20.0637 7.34574C19.9317 7.67094 19.7358 7.96637 19.4877 8.21456L17.1027 10.6099Z" fill="black" fill-opacity="0.2"/>
<path d="M14.9353 13.3071L9.62157 18.6218C9.23622 19.0084 8.75268 19.2826 8.22305 19.4147C7.69341 19.5469 7.13776 19.532 6.61594 19.3718L4.74094 20.1911C4.6028 20.2516 4.44965 20.2689 4.30147 20.241C4.1533 20.2131 4.01699 20.1411 3.91032 20.0346C3.83377 19.958 3.78209 19.8602 3.76202 19.7538C3.74195 19.6474 3.75442 19.5375 3.79782 19.4383L4.65938 17.4639C4.48052 16.9341 4.45333 16.3647 4.58088 15.8202C4.70844 15.2757 4.98566 14.7777 5.38125 14.3824L10.6959 9.06863M17.1027 10.6099L17.5602 11.0683C17.6995 11.2076 17.81 11.373 17.8854 11.555C17.9608 11.737 17.9997 11.9321 17.9997 12.1291C17.9997 12.3261 17.9608 12.5212 17.8854 12.7032C17.81 12.8852 17.6995 13.0506 17.5602 13.1899L16.7164 14.0336C16.5758 14.1742 16.3851 14.2531 16.1863 14.2531C15.9875 14.2531 15.7968 14.1742 15.6561 14.0336L9.96925 8.34393C9.82871 8.20329 9.74976 8.0126 9.74976 7.81378C9.74976 7.61495 9.82871 7.42426 9.96925 7.28362L10.813 6.43987C10.9523 6.30055 11.1177 6.19003 11.2997 6.11462C11.4817 6.03922 11.6768 6.00041 11.8738 6.00041C12.0708 6.00041 12.2659 6.03922 12.4479 6.11462C12.6299 6.19003 12.7953 6.30055 12.9346 6.43987L13.393 6.89737L15.7368 4.54425C16.7483 3.53268 18.3964 3.47081 19.4343 4.4505C19.6894 4.69154 19.8935 4.98129 20.0347 5.30261C20.1759 5.62393 20.2512 5.9703 20.2562 6.32124C20.2612 6.67217 20.1957 7.02054 20.0637 7.34574C19.9317 7.67094 19.7358 7.96637 19.4877 8.21456L17.1027 10.6099Z" stroke="black" stroke-width="1.5" stroke-linecap="round" stroke-linejoin="round"/>
</svg>
