<svg xmlns="http://www.w3.org/2000/svg" fill="currentColor" viewBox="0 0 24 24" width="24" height="24"><path d="M19.29 3.09v17.82H4.71V3.09z" opacity=".2"/><path d="M12.81 11.19v9.72a0.81 0.81 0 0 1-1.62 0v-9.72a0.81 0.81 0 0 1 1.62 0m6.48 7.29a0.81 0.81 0 0 0-0.81 0.81v1.62a0.81 0.81 0 0 0 1.62 0v-1.62a0.81 0.81 0 0 0-0.81-0.81m2.43-3.24h-1.62V3.09a0.81 0.81 0 0 0-1.62 0V15.24h-1.62a0.81 0.81 0 0 0 0 1.62h4.86a0.81 0.81 0 0 0 0-1.62m-17.01 0a0.81 0.81 0 0 0-0.81 0.81v4.86a0.81 0.81 0 0 0 1.62 0v-4.86a0.81 0.81 0 0 0-0.81-0.81M7.14 12H5.52V3.09a0.81 0.81 0 0 0-1.62 0V12H2.28a0.81 0.81 0 0 0 0 1.62h4.86a0.81 0.81 0 0 0 0-1.62m7.29-4.86h-1.62V3.09a0.81 0.81 0 0 0-1.62 0V7.14h-1.62a0.81 0.81 0 0 0 0 1.62h4.86a0.81 0.81 0 0 0 0-1.62"/></svg>