<svg xmlns="http://www.w3.org/2000/svg" width="24" height="24" fill="currentColor" viewBox="0 0 24 24"><path d="M20.1 7.95h-5.67V2.28zM11.19 15.24a0.81 0.81 0 0 0-0.81-0.81h-6.48a0.81 0.81 0 0 0-0.81 0.81v4.86a0.81 0.81 0 0 0 0.81 0.81h6.48a0.81 0.81 0 0 0 0.81-0.81v-1.214l3.24 2.025v-6.48l-3.24 2.026z" opacity=".2"/><path d="M20.674 7.376l-5.67-5.67a0.816 0.816 0 0 0-0.574-0.236h-9.72a1.62 1.62 0 0 0-1.62 1.62v7.29a0.81 0.81 0 0 0 1.62 0V3.09h8.91v4.86a0.81 0.81 0 0 0 0.81 0.81h4.86v12.15H18.48a0.81 0.81 0 0 0 0 1.62h0.81a1.62 1.62 0 0 0 1.62-1.62v-12.96a0.816 0.816 0 0 0-0.236-0.574M15.24 4.235l2.905 2.905H15.24z m-0.418 9.486a0.816 0.816 0 0 0-0.822 0.023l-2.019 1.261a1.62 1.62 0 0 0-1.601-1.385h-6.48A1.62 1.62 0 0 0 2.28 15.24v4.86a1.62 1.62 0 0 0 1.62 1.62h6.48a1.62 1.62 0 0 0 1.601-1.385l2.019 1.261a0.81 0.81 0 0 0 1.24-0.686v-6.48a0.816 0.816 0 0 0-0.418-0.709M10.38 20.1h-6.48V15.24h6.48z m3.24-0.652L12 18.436v-1.533l1.62-1.013z"/></svg>