<svg width="24" height="24" viewBox="0 0 24 24" fill="none" xmlns="http://www.w3.org/2000/svg">
<path d="M9 21L6.75 18.75H4.5V15H6.75L9 12.75V21Z" fill="black" fill-opacity="0.2"/>
<path d="M19.5 8.25H14.25V3L19.5 8.25Z" fill="black" fill-opacity="0.2"/>
<path d="M12 14.25C12.4568 14.5192 12.8355 14.903 13.0986 15.3633C13.3616 15.8237 13.5 16.3448 13.5 16.875C13.5 17.4052 13.3616 17.9263 13.0986 18.3867C12.8355 18.847 12.4568 19.2308 12 19.5M14.25 3V8.25H19.5M4.5 11.25V3.75C4.5 3.55109 4.57902 3.36032 4.71967 3.21967C4.86032 3.07902 5.05109 3 5.25 3H14.25L19.5 8.25V20.25C19.5 20.4489 19.421 20.6397 19.2803 20.7803C19.1397 20.921 18.9489 21 18.75 21H15.75M4.5 18.75V15H6.75L9 12.75V21L6.75 18.75H4.5Z" stroke="black" stroke-width="1.5" stroke-linecap="round" stroke-linejoin="round"/>
</svg>
