<svg width="24" height="24" viewBox="0 0 24 24" fill="none" xmlns="http://www.w3.org/2000/svg">
<path d="M14.25 3V8.25H19.5L14.25 3Z" fill="black" fill-opacity="0.2"/>
<path d="M19.5 7.98633L14.25 2.73633H5.25C5.05109 2.73633 4.86032 2.81535 4.71967 2.956C4.57902 3.09665 4.5 3.28742 4.5 3.48633V19.9863C4.5 20.1852 4.57902 20.376 4.71967 20.5167C4.86032 20.6573 5.05109 20.7363 5.25 20.7363H18.75C18.9489 20.7363 19.1397 20.6573 19.2803 20.5167C19.421 20.376 19.5 20.1852 19.5 19.9863V7.98633ZM14.25 2.73633V7.98633H19.5M9 12.4863H15M9 15.4863H15" stroke="black" stroke-width="1.5" stroke-linecap="round" stroke-linejoin="round"/>
</svg>
