<svg width="24" height="24" viewBox="0 0 24 24" fill="none" xmlns="http://www.w3.org/2000/svg">
<path d="M18.075 20.0999H5.925C5.74598 20.0999 5.57429 20.0288 5.4477 19.9022C5.32112 19.7756 5.25 19.6039 5.25 19.4249V4.5749C5.25 4.39588 5.32112 4.22419 5.4477 4.09761C5.57429 3.97102 5.74598 3.8999 5.925 3.8999H13.7143C13.9133 3.8999 14.104 3.97892 14.2447 4.11957L18.5303 8.40523C18.671 8.54588 18.75 8.73665 18.75 8.93556V19.4249C18.75 19.6039 18.6789 19.7756 18.5523 19.9022C18.4257 20.0288 18.254 20.0999 18.075 20.0999Z" fill="black" fill-opacity="0.2"/>
<path d="M12.0083 10.5762C12.5847 10.4407 13.1898 10.4871 13.7388 10.709C13.8906 10.7705 14.0025 10.9027 14.0386 11.0625C14.0745 11.2227 14.0298 11.391 13.9185 11.5117L12.6147 12.9238L12.7017 13.3271L13.1069 13.4141L14.519 12.1113L14.6167 12.041C14.7224 11.9829 14.847 11.9642 14.9673 11.9912C15.1275 12.0272 15.2602 12.1398 15.3218 12.292C15.5436 12.8409 15.59 13.4452 15.4546 14.0215C15.3191 14.5978 15.008 15.1181 14.5649 15.5107C14.1217 15.9034 13.5676 16.1498 12.979 16.2148C12.5283 16.2646 12.0745 16.2054 11.6538 16.0469L9.82568 18.166C9.8177 18.1753 9.80991 18.1847 9.80127 18.1934C9.54082 18.4538 9.18718 18.5996 8.81885 18.5996C8.4507 18.5996 8.0978 18.4536 7.8374 18.1934C7.57695 17.9329 7.43018 17.5793 7.43018 17.2109C7.43025 16.8427 7.57702 16.4899 7.8374 16.2295L7.86377 16.2041L9.98291 14.376C9.82447 13.9553 9.7661 13.5014 9.81592 13.0508C9.88102 12.4625 10.1266 11.9089 10.519 11.4658C10.9116 11.0227 11.432 10.7117 12.0083 10.5762ZM8.43018 17.2109C8.43018 17.314 8.47152 17.4134 8.54443 17.4863C8.61729 17.559 8.71591 17.5996 8.81885 17.5996C8.91806 17.5996 9.01246 17.561 9.08447 17.4932L11.1411 15.1104L11.2036 15.0488C11.3594 14.9217 11.5802 14.8992 11.7612 14.999C12.0987 15.1855 12.4864 15.2631 12.8696 15.2207C13.2527 15.1783 13.6134 15.0183 13.9019 14.7627C14.1904 14.5071 14.3927 14.1682 14.481 13.793C14.5064 13.6848 14.52 13.5748 14.5259 13.4648L13.5942 14.3252C13.4747 14.4355 13.3089 14.4814 13.1499 14.4473L12.1763 14.2373C11.9841 14.1959 11.8338 14.0457 11.7925 13.8535L11.5835 12.8799C11.5494 12.721 11.5944 12.555 11.7046 12.4355L12.563 11.5039C12.4539 11.5098 12.3451 11.5246 12.2378 11.5498C11.8625 11.638 11.5237 11.8404 11.2681 12.1289C11.0124 12.4175 10.8524 12.7779 10.8101 13.1611C10.7677 13.5443 10.8444 13.9312 11.0308 14.2686C11.1451 14.4755 11.0993 14.7341 10.9204 14.8887L8.5415 16.9395C8.47043 17.012 8.43025 17.1093 8.43018 17.2109Z" fill="black"/>
<path d="M4.75 19.4253V4.57471C4.75005 4.26315 4.87344 3.96396 5.09375 3.74365C5.31406 3.52334 5.61325 3.39995 5.9248 3.3999H14.0254L14.123 3.40967C14.2191 3.42889 14.3086 3.47607 14.3789 3.54639L19.1035 8.271C19.1972 8.36467 19.2499 8.49204 19.25 8.62451V19.4253C19.2499 19.7366 19.1263 20.0351 18.9062 20.2554C18.6859 20.4757 18.3868 20.6 18.0752 20.6001H5.9248C5.61325 20.6 5.31406 20.4757 5.09375 20.2554C4.87373 20.0351 4.7501 19.7366 4.75 19.4253ZM5.75 19.4253C5.7501 19.4714 5.7683 19.5157 5.80078 19.5483C5.83355 19.5811 5.87846 19.6 5.9248 19.6001H18.0752C18.1215 19.6 18.1664 19.5811 18.1992 19.5483C18.2317 19.5157 18.2499 19.4714 18.25 19.4253V8.83154L13.8184 4.3999H5.9248C5.87846 4.39995 5.83355 4.41791 5.80078 4.45068C5.76801 4.48346 5.75005 4.52837 5.75 4.57471V19.4253Z" fill="black"/>
<path d="M13.525 3.8999C13.525 3.62376 13.7492 3.3999 14.0254 3.3999C14.3015 3.3999 14.525 3.62376 14.525 3.8999V8.12451H18.7496C19.0256 8.12451 19.2498 8.34855 19.25 8.62451C19.25 8.90065 19.0258 9.12451 18.7496 9.12451H14.025C13.7489 9.12451 13.525 8.90065 13.525 8.62451V3.8999Z" fill="black"/>
</svg>
