<svg viewBox="0 0 24 24" fill="none" xmlns="http://www.w3.org/2000/svg" width="24" height="24">
<path d="M19.29 21.72H4.71C4.495 21.72 4.289 21.635 4.137 21.483 3.985 21.331 3.9 21.125 3.9 20.91V3.09C3.9 2.875 3.985 2.669 4.137 2.517 4.289 2.365 4.495 2.28 4.71 2.28H14.057C14.296 2.28 14.525 2.375 14.694 2.543L19.836 7.686C20.005 7.855 20.1 8.084 20.1 8.323V20.91C20.1 21.125 20.015 21.331 19.863 21.483 19.711 21.635 19.505 21.72 19.29 21.72Z" fill="black" fill-opacity="0.2"/>
<path fill-rule="evenodd" clip-rule="evenodd" d="M10 11.576C9.766 11.341 9.386 11.341 9.152 11.576 8.917 11.81 8.917 12.19 9.152 12.424L11.157 14.43 9.152 16.436C8.918 16.67 8.918 17.05 9.152 17.284 9.386 17.518 9.766 17.518 10 17.284L12.006 15.278 14.012 17.284C14.246 17.518 14.626 17.518 14.86 17.284 15.094 17.05 15.094 16.67 14.86 16.436L12.854 14.43 14.86 12.424C15.094 12.19 15.094 11.81 14.86 11.576 14.626 11.342 14.246 11.342 14.012 11.576L12.006 13.581 10 11.576Z" fill="black"/>
<path fill-rule="evenodd" clip-rule="evenodd" d="M14.803 1.81C14.73 1.751 14.643 1.71 14.548 1.692 14.51 1.684 14.471 1.68 14.43 1.68L14.548 1.692C14.64 1.71 14.728 1.75 14.803 1.81Z" fill="black"/>
<path fill-rule="evenodd" clip-rule="evenodd" d="M15.03 7.349V3.728L18.652 7.349H15.03ZM14.803 1.81C14.73 1.751 14.643 1.71 14.548 1.692L14.43 1.68H4.71C4.336 1.68 3.977 1.828 3.713 2.092 3.448 2.357 3.3 2.716 3.3 3.09V20.91C3.3 21.284 3.448 21.642 3.713 21.906 3.977 22.171 4.336 22.32 4.71 22.32H19.29C19.664 22.32 20.023 22.171 20.287 21.906 20.552 21.642 20.7 21.284 20.7 20.91V7.949C20.7 7.857 20.678 7.766 20.638 7.685 20.61 7.626 20.571 7.572 20.524 7.525L14.855 1.856C14.838 1.839 14.821 1.824 14.803 1.81ZM19.5 8.549H14.43C14.099 8.549 13.83 8.281 13.83 7.949V2.88H4.71C4.654 2.88 4.6 2.901 4.561 2.941 4.522 2.98 4.5 3.034 4.5 3.09V20.91C4.5 20.966 4.522 21.019 4.561 21.058 4.6 21.097 4.654 21.12 4.71 21.12H19.29C19.346 21.12 19.4 21.097 19.439 21.058 19.478 21.019 19.5 20.966 19.5 20.91V8.549Z" fill="black"/>
</svg>