<svg xmlns="http://www.w3.org/2000/svg" fill="currentColor" viewBox="0 0 24 24" width="24" height="24"><path d="M20.1 6.33v11.34a0.81 0.81 0 0 1-0.81 0.81H16.86V9.57L12.81 5.52H7.14V3.09a0.81 0.81 0 0 1 0.81-0.81h8.1z" opacity=".2"/><path d="M20.674 5.756l-4.05-4.05a0.816 0.816 0 0 0-0.574-0.236h-8.1a1.62 1.62 0 0 0-1.62 1.62v1.62h-1.62a1.62 1.62 0 0 0-1.62 1.62v14.58a1.62 1.62 0 0 0 1.62 1.62h11.34a1.62 1.62 0 0 0 1.62-1.62v-1.62h1.62a1.62 1.62 0 0 0 1.62-1.62v-11.34a0.816 0.816 0 0 0-0.236-0.574m-4.624 15.154h-11.34V6.33h7.765l3.575 3.575z m3.24-3.24h-1.62v-8.1a0.816 0.816 0 0 0-0.236-0.574l-4.05-4.05a0.816 0.816 0 0 0-0.574-0.236h-4.86v-1.62h7.765l3.575 3.575z m-5.67-3.24a0.81 0.81 0 0 1-0.81 0.81h-4.86a0.81 0.81 0 0 1 0-1.62h4.86a0.81 0.81 0 0 1 0.81 0.81m0 3.24a0.81 0.81 0 0 1-0.81 0.81h-4.86a0.81 0.81 0 0 1 0-1.62h4.86a0.81 0.81 0 0 1 0.81 0.81"/></svg>