<svg xmlns="http://www.w3.org/2000/svg" width="24" height="24" fill="currentColor" viewBox="0 0 24 24"><path d="M20.1 7.95h-5.67V2.28z" opacity=".2"/><path d="M14.836 20.1a0.81 0.81 0 0 1-0.81 0.81h-2.836a0.81 0.81 0 0 1-0.81-0.81v-5.67a0.81 0.81 0 0 1 1.62 0v4.86h2.026a0.81 0.81 0 0 1 0.81 0.81m-6.414-6.329a0.81 0.81 0 0 0-1.131 0.189l-1.365 1.912L4.56 13.96a0.81 0.81 0 1 0-1.316 0.942l1.687 2.364-1.689 2.364a0.81 0.81 0 0 0 1.317 0.942l1.368-1.913 1.365 1.913a0.81 0.81 0 0 0 1.317-0.942l-1.687-2.364 1.688-2.364a0.81 0.81 0 0 0-0.188-1.131m10.017 2.615c-0.406-0.118-0.824-0.238-1.058-0.389-0.126-0.083-0.125-0.101-0.114-0.192a0.456 0.456 0 0 1 0.203-0.372c0.466-0.316 1.553-0.175 2.006-0.056a0.81 0.81 0 0 0 0.412-1.567c-0.214-0.055-2.126-0.528-3.324 0.279a2.088 2.088 0 0 0-0.906 1.513c-0.203 1.609 1.382 2.068 2.329 2.342 1.222 0.353 1.328 0.498 1.293 0.768-0.031 0.244-0.127 0.337-0.217 0.398-0.466 0.31-1.535 0.158-1.979 0.036a0.812 0.812 0 0 0-0.434 1.565 6 6 0 0 0 1.538 0.203c0.589 0 1.246-0.101 1.772-0.452a2.112 2.112 0 0 0 0.93-1.542c0.223-1.753-1.448-2.242-2.451-2.53z m-15.348-6.005V3.091a1.62 1.62 0 0 1 1.62-1.62h9.72a0.816 0.816 0 0 1 0.574 0.237l5.67 5.67a0.816 0.816 0 0 1 0.236 0.573v2.43a0.81 0.81 0 1 1-1.62 0v-1.62h-4.86a0.81 0.81 0 0 1-0.81-0.81v-4.86H4.711v7.29a0.81 0.81 0 0 1-1.62 0m12.15-3.24h2.904l-2.904-2.905z"/></svg>