<svg xmlns="http://www.w3.org/2000/svg" width="24" height="24" fill="currentColor" viewBox="0 0 24 24"><path d="M20.1 7.95h-5.67V2.28z" opacity=".2"/><path d="M20.674 7.376l-5.67-5.67a0.816 0.816 0 0 0-0.574-0.236h-9.72a1.62 1.62 0 0 0-1.62 1.62v7.29a0.81 0.81 0 0 0 1.62 0V3.09h8.91v4.86a0.81 0.81 0 0 0 0.81 0.81h4.86v12.15H16.86a0.81 0.81 0 0 0 0 1.62h2.43a1.62 1.62 0 0 0 1.62-1.62v-12.96a0.816 0.816 0 0 0-0.236-0.574M15.24 4.235l2.905 2.905H15.24z m-1.235 14.681a2.112 2.112 0 0 1-0.93 1.542c-0.526 0.35-1.176 0.451-1.771 0.451a6.24 6.24 0 0 1-1.532-0.203 0.81 0.81 0 1 1 0.435-1.56c0.444 0.121 1.519 0.274 1.98-0.036 0.089-0.06 0.185-0.154 0.217-0.398 0.036-0.27-0.072-0.415-1.293-0.768-0.947-0.274-2.531-0.732-2.329-2.34a2.088 2.088 0 0 1 0.91-1.514c1.199-0.81 3.109-0.335 3.324-0.279a0.81 0.81 0 0 1-0.411 1.567c-0.455-0.119-1.542-0.259-2.008 0.056a0.456 0.456 0 0 0-0.203 0.372c-0.012 0.091-0.014 0.11 0.113 0.192 0.234 0.151 0.653 0.271 1.059 0.389 0.991 0.287 2.668 0.775 2.44 2.529z m-6.055-4.487a0.81 0.81 0 0 1-0.81 0.81H5.924v4.86a0.81 0.81 0 0 1-1.62 0v-4.86H3.089a0.81 0.81 0 0 1 0-1.62h4.05a0.81 0.81 0 0 1 0.81 0.81z"/></svg>