<svg width="24" height="24" viewBox="0 0 24 24" fill="none" xmlns="http://www.w3.org/2000/svg">
<path d="M9.4707 21C11.956 21 13.9707 18.9853 13.9707 16.5C13.9707 14.0147 11.956 12 9.4707 12C6.98542 12 4.9707 14.0147 4.9707 16.5C4.9707 18.9853 6.98542 21 9.4707 21Z" fill="black" fill-opacity="0.2"/>
<path d="M9.4707 15V16.4999H10.9663M4.5 10.5V3.75C4.5 3.55109 4.57902 3.36032 4.71967 3.21967C4.86032 3.07902 5.05109 3 5.25 3H14.25L19.5 8.25V20.25C19.5 20.4489 19.421 20.6397 19.2803 20.7803C19.1397 20.921 18.9489 21 18.75 21H15.4707M19.5 8.25H14.25V3M13.9707 16.5C13.9707 18.9853 11.956 21 9.4707 21C6.98542 21 4.9707 18.9853 4.9707 16.5C4.9707 14.0147 6.98542 12 9.4707 12C11.956 12 13.9707 14.0147 13.9707 16.5Z" stroke="black" stroke-width="1.5" stroke-linecap="round" stroke-linejoin="round"/>
</svg>
