<svg width="24" height="24" viewBox="0 0 24 24" fill="none" xmlns="http://www.w3.org/2000/svg">
<path d="M14.25 3V8.25H19.5L14.25 3Z" fill="black" fill-opacity="0.2"/>
<path d="M15.75 18H17.25C17.7473 18 18.2242 17.8025 18.5758 17.4508C18.9275 17.0992 19.125 16.6223 19.125 16.125C19.125 15.6277 18.9275 15.1508 18.5758 14.7992C18.2242 14.4475 17.7473 14.25 17.25 14.25H15.75V18ZM15.75 18V19.5M12 14.25V19.5M5.25 14.25H8.25L5.25 19.5H8.25M19.5 10.5V8.25L14.25 3H5.25C5.05109 3 4.86032 3.07902 4.71967 3.21967C4.57902 3.36032 4.5 3.55109 4.5 3.75V10.5M14.25 3V8.25H19.5" stroke="black" stroke-width="1.5" stroke-linecap="round" stroke-linejoin="round"/>
</svg>
