<svg xmlns="http://www.w3.org/2000/svg" width="24" height="24" fill="currentColor" viewBox="0 0 24 24"><path d="M6.33 15.24L8.76 12.81V21.72l-2.43-2.43H3.9V15.24z m8.1-12.96v5.67h5.67z" opacity=".2"/><path d="M9.07 12.061a0.81 0.81 0 0 0-0.884 0.175l-2.192 2.194H3.899a0.81 0.81 0 0 0-0.81 0.81v4.05a0.81 0.81 0 0 0 0.81 0.81h2.095l2.192 2.194a0.81 0.81 0 0 0 1.384-0.574v-8.91a0.81 0.81 0 0 0-0.5-0.749m-1.12 7.703l-1.046-1.048a0.816 0.816 0 0 0-0.574-0.236h-1.62v-2.43h1.62a0.816 0.816 0 0 0 0.574-0.236l1.046-1.048z m6.48-2.5a4.104 4.104 0 0 1-2.026 3.536 0.81 0.81 0 0 1-0.81-1.4 2.479 2.479 0 0 0 0-4.27 0.81 0.81 0 0 1 0.81-1.4 4.104 4.104 0 0 1 2.026 3.536z m6.244-9.888l-5.67-5.67a0.816 0.816 0 0 0-0.574-0.236h-9.72a1.62 1.62 0 0 0-1.62 1.62v8.1a0.81 0.81 0 0 0 1.62 0v-8.1h8.91v4.86a0.81 0.81 0 0 0 0.81 0.81h4.86v12.15h-3.24a0.81 0.81 0 0 0 0 1.62h3.24a1.62 1.62 0 0 0 1.62-1.62v-12.96a0.816 0.816 0 0 0-0.236-0.574M15.24 4.235l2.905 2.905H15.24z"/></svg>