<svg width="24" height="24" viewBox="0 0 24 24" fill="none" xmlns="http://www.w3.org/2000/svg">
<path d="M13.768 4.82413V9.54913H18.493" fill="black" fill-opacity="0.2"/>
<path d="M13.7679 10.0488H17.993V11.5742C17.993 11.8504 18.2169 12.0742 18.493 12.0742C18.7692 12.0742 18.993 11.8504 18.993 11.5742L18.9925 9.54883C18.9925 9.47296 18.9758 9.40086 18.9455 9.33642C18.8755 9.18777 18.7344 9.07907 18.5662 9.05422L18.5444 9.05147C18.6582 9.06507 18.7688 9.1177 18.8459 9.19464L14.1219 4.4707C14.0884 4.43717 14.0505 4.4089 14.0096 4.38642C13.9648 4.36175 13.9163 4.34404 13.8661 4.33398L13.7679 4.32422H5.66782C5.35626 4.32427 5.05707 4.44766 4.83677 4.66797C4.61646 4.88828 4.49307 5.18746 4.49302 5.49902V11.5742C4.49302 11.8504 4.71687 12.0742 4.99302 12.0742C5.26916 12.0742 5.49302 11.8504 5.49302 11.5742V5.49902C5.49307 5.45268 5.51102 5.40777 5.5438 5.375C5.57657 5.34223 5.62148 5.32427 5.66782 5.32422H13.2679V9.54883C13.2679 9.82497 13.4918 10.0488 13.7679 10.0488ZM17.286 9.04883H14.2679V6.03076L17.286 9.04883Z" fill="black"/>
<path d="M16.9303 20.1799C16.7543 20.1799 16.6183 20.1346 16.5223 20.0439C16.4317 19.9479 16.3863 19.8119 16.3863 19.6359V15.0839C16.3863 14.9079 16.4317 14.7746 16.5223 14.6839C16.6183 14.5879 16.7543 14.5399 16.9303 14.5399H18.8503C19.245 14.5399 19.581 14.5986 19.8583 14.7159C20.1357 14.8332 20.3463 15.0012 20.4903 15.2199C20.6397 15.4386 20.7143 15.6999 20.7143 16.0039C20.7143 16.3452 20.6157 16.6332 20.4183 16.8679C20.221 17.1026 19.9517 17.2599 19.6103 17.3399V17.2199C20.005 17.2786 20.3117 17.4279 20.5303 17.6679C20.749 17.9079 20.8583 18.2199 20.8583 18.6039C20.8583 19.1052 20.6877 19.4946 20.3463 19.7719C20.0103 20.0439 19.541 20.1799 18.9383 20.1799H16.9303ZM17.3703 19.4039H18.8103C19.173 19.4039 19.4397 19.3346 19.6103 19.1959C19.781 19.0519 19.8663 18.8386 19.8663 18.5559C19.8663 18.2679 19.781 18.0546 19.6103 17.9159C19.4397 17.7772 19.173 17.7079 18.8103 17.7079H17.3703V19.4039ZM17.3703 16.9319H18.6743C19.0263 16.9319 19.2877 16.8652 19.4583 16.7319C19.6343 16.5932 19.7223 16.3906 19.7223 16.1239C19.7223 15.8572 19.6343 15.6572 19.4583 15.5239C19.2877 15.3852 19.0263 15.3159 18.6743 15.3159H17.3703V16.9319Z" fill="black"/>
<path d="M10.8366 20.1799C10.6606 20.1799 10.5246 20.1346 10.4286 20.0439C10.3379 19.9479 10.2926 19.8119 10.2926 19.6359V15.0839C10.2926 14.9079 10.3379 14.7746 10.4286 14.6839C10.5246 14.5879 10.6606 14.5399 10.8366 14.5399H12.3886C13.3326 14.5399 14.0606 14.7826 14.5726 15.2679C15.0899 15.7532 15.3486 16.4492 15.3486 17.3559C15.3486 17.8092 15.2819 18.2119 15.1486 18.5639C15.0206 18.9106 14.8286 19.2039 14.5726 19.4439C14.3219 19.6839 14.0126 19.8679 13.6446 19.9959C13.2819 20.1186 12.8633 20.1799 12.3886 20.1799H10.8366ZM11.3166 19.3319H12.3246C12.6553 19.3319 12.9406 19.2919 13.1806 19.2119C13.4259 19.1266 13.6286 19.0039 13.7886 18.8439C13.9539 18.6786 14.0766 18.4732 14.1566 18.2279C14.2366 17.9772 14.2766 17.6866 14.2766 17.3559C14.2766 16.6946 14.1139 16.2012 13.7886 15.8759C13.4633 15.5506 12.9753 15.3879 12.3246 15.3879H11.3166V19.3319Z" fill="black"/>
<path d="M3.82728 20.2439C3.67795 20.2439 3.56328 20.2012 3.48328 20.1159C3.40328 20.0306 3.36328 19.9132 3.36328 19.7639V14.9559C3.36328 14.8012 3.40595 14.6839 3.49128 14.6039C3.57661 14.5186 3.69395 14.4759 3.84328 14.4759C3.97661 14.4759 4.08061 14.5026 4.15528 14.5559C4.23528 14.6039 4.30728 14.6892 4.37128 14.8119L6.34728 18.4679H6.09128L8.06728 14.8119C8.13128 14.6892 8.20061 14.6039 8.27528 14.5559C8.34995 14.5026 8.45395 14.4759 8.58728 14.4759C8.73662 14.4759 8.85128 14.5186 8.93128 14.6039C9.01128 14.6839 9.05128 14.8012 9.05128 14.9559V19.7639C9.05128 19.9132 9.01128 20.0306 8.93128 20.1159C8.85661 20.2012 8.74195 20.2439 8.58728 20.2439C8.43795 20.2439 8.32328 20.2012 8.24328 20.1159C8.16328 20.0306 8.12328 19.9132 8.12328 19.7639V16.0599H8.29928L6.61928 19.1239C6.56595 19.2146 6.50995 19.2812 6.45128 19.3239C6.39261 19.3666 6.31261 19.3879 6.21128 19.3879C6.10995 19.3879 6.02728 19.3666 5.96328 19.3239C5.89928 19.2759 5.84328 19.2092 5.79528 19.1239L4.09928 16.0519H4.29128V19.7639C4.29128 19.9132 4.25128 20.0306 4.17128 20.1159C4.09661 20.2012 3.98195 20.2439 3.82728 20.2439Z" fill="black"/>
</svg>
