<svg xmlns="http://www.w3.org/2000/svg" width="24" height="24" fill="currentColor" viewBox="0 0 24 24"><path d="M20.1 7.95h-5.67V2.28z" opacity=".2"/><path d="M21.72 14.43a0.81 0.81 0 0 1-0.81 0.81h-1.214v4.86a0.81 0.81 0 0 1-1.62 0V15.24H16.86a0.81 0.81 0 0 1 0-1.62h4.05a0.81 0.81 0 0 1 0.81 0.81M8.354 16.456A2.836 2.836 0 0 1 5.52 19.29h-0.81v0.81a0.81 0.81 0 0 1-1.62 0v-5.67a0.81 0.81 0 0 1 0.81-0.81H5.52a2.836 2.836 0 0 1 2.834 2.836m-1.62 0A1.216 1.216 0 0 0 5.519 15.24h-0.81v2.43h0.81a1.216 1.216 0 0 0 1.215-1.214m8.506 0a2.836 2.836 0 0 1-2.836 2.834h-0.81v0.81a0.81 0.81 0 0 1-1.62 0v-5.67a0.81 0.81 0 0 1 0.81-0.81h1.62a2.836 2.836 0 0 1 2.836 2.836m-1.62 0a1.216 1.216 0 0 0-1.216-1.216h-0.81v2.43h0.81a1.216 1.216 0 0 0 1.216-1.214M3.09 10.38V3.09a1.62 1.62 0 0 1 1.62-1.62h9.72a0.816 0.816 0 0 1 0.574 0.236l5.67 5.67a0.816 0.816 0 0 1 0.236 0.574v2.43a0.81 0.81 0 0 1-1.62 0V8.76h-4.86a0.81 0.81 0 0 1-0.81-0.81v-4.86H4.71v7.29a0.81 0.81 0 0 1-1.62 0M15.24 7.14h2.905L15.24 4.235z"/></svg>