<?xml version="1.0" encoding="utf-8"?>
<svg xmlns="http://www.w3.org/2000/svg" width="512" height="512" viewBox="0 0 512 512">
  <!-- Background layer (40% opacity) -->
    <path d="M64 64h224l-32-32H64c-17.7 0-32 14.3-32 32v320c0 17.7 14.3 32 32 32h64v-32H64V64z" fill="currentColor" opacity="0.4"/>
    <path d="m208 320c-8.8 0-16 7.2-16 16s7.2 16 16 16 16-7.2 16-16-7.2-16-16-16z" fill="currentColor" opacity="0.4"/>
    <path d="M384 96H192c-17.7 0-32 14.3-32 32v320c0 17.7 14.3 32 32 32h256c17.7 0 32-14.3 32-32V192l-96-96z" fill="currentColor" opacity="0.4"/>
  <!-- Foreground layer (100% opacity) -->
    <path d="m64 352H192V128h160v96h96v224z" fill="currentColor"/>
    <path d="m-192-96h32V192h-32v160z" fill="currentColor"/>
</svg>