<svg width="24" height="24" viewBox="0 0 24 24" fill="none" xmlns="http://www.w3.org/2000/svg">
<path d="M14.2502 3.75V9H19.5002" fill="black" fill-opacity="0.2"/>
<path d="M19.5074 11.25V9L14.2574 3.75H5.25744C5.05853 3.75 4.86776 3.82902 4.72711 3.96967C4.58646 4.11032 4.50744 4.30109 4.50744 4.5V11.25M14.2574 3.75V9H19.5074M9.89343 18.9362C9.89343 19.66 10.6763 20.2473 11.6415 20.2473C12.6068 20.2473 13.3896 19.66 13.3896 18.9362C13.3896 17.1881 9.99067 17.8436 9.99067 16.314C9.99067 15.5902 10.6763 15.0029 11.6415 15.0029C12.3654 15.0029 12.9324 15.3307 13.1711 15.8038M4.1272 18.75H5.6272C6.12448 18.75 6.60139 18.5525 6.95302 18.2008C7.30465 17.8492 7.5022 17.3723 7.5022 16.875C7.5022 16.3777 7.30465 15.9008 6.95302 15.5492C6.60139 15.1975 6.12448 15 5.6272 15H4.1272V18.75ZM4.1272 18.75V20.25M15.9728 20.2348H17.2728C17.9623 20.2348 18.6237 19.9608 19.1113 19.4732C19.5988 18.9856 19.8728 18.3243 19.8728 17.6348C19.8728 16.9452 19.5988 16.2839 19.1113 15.7963C18.6237 15.3087 17.9623 15.0348 17.2728 15.0348H15.9728V20.2348Z" stroke="black" stroke-width="1.5" stroke-linecap="round" stroke-linejoin="round"/>
</svg>
