<svg xmlns="http://www.w3.org/2000/svg" width="24" height="24" fill="currentColor" viewBox="0 0 24 24"><path d="M20.1 7.95h-5.67V2.28z" opacity=".2"/><path d="M17.67 13.62h-1.62a0.81 0.81 0 0 0-0.81 0.81v5.67a0.81 0.81 0 0 0 1.62 0v-0.81h0.81a2.836 2.836 0 0 0 0-5.67m0 4.05h-0.81V15.24h0.81a1.216 1.216 0 0 1 0 2.43m-4.86-3.24v5.67a0.81 0.81 0 0 1-1.62 0v-5.67a0.81 0.81 0 0 1 1.62 0M8.76 20.1a0.81 0.81 0 0 1-0.81 0.81h-3.24a0.81 0.81 0 0 1-0.709-1.214L6.548 15.24H4.71a0.81 0.81 0 0 1 0-1.62h3.24a0.81 0.81 0 0 1 0.709 1.214l-2.552 4.455h1.843a0.81 0.81 0 0 1 0.81 0.81z m11.914-12.724l-5.67-5.67a0.816 0.816 0 0 0-0.574-0.236h-9.72a1.62 1.62 0 0 0-1.62 1.62v7.29a0.81 0.81 0 0 0 1.62 0V3.09h8.91v4.86a0.81 0.81 0 0 0 0.81 0.81h4.86v1.62a0.81 0.81 0 0 0 1.62 0V7.95a0.816 0.816 0 0 0-0.236-0.574M15.24 7.14V4.235l2.905 2.905z"/></svg>