<svg width="24" height="24" viewBox="0 0 24 24" fill="none" xmlns="http://www.w3.org/2000/svg">
<path d="M10.5 14.25C10.6989 14.25 10.8896 14.3291 11.0303 14.4697C11.1709 14.6104 11.25 14.8011 11.25 15V16.125L14.25 14.25V20.25L11.25 18.375V19.5C11.25 19.6989 11.1709 19.8896 11.0303 20.0303C10.8896 20.1709 10.6989 20.25 10.5 20.25H4.5C4.30109 20.25 4.11038 20.1709 3.96973 20.0303C3.82907 19.8896 3.75 19.6989 3.75 19.5V15C3.75 14.8011 3.82907 14.6104 3.96973 14.4697C4.11038 14.3291 4.30109 14.25 4.5 14.25H10.5Z" fill="black" fill-opacity="0.2"/>
<path d="M19.5 8.25H14.25V3L19.5 8.25Z" fill="black" fill-opacity="0.2"/>
<path d="M14.25 3V8.25H19.5M4.5 10.5V3.75C4.5 3.55109 4.57902 3.36032 4.71967 3.21967C4.86032 3.07902 5.05109 3 5.25 3H14.25L19.5 8.25V20.25C19.5 20.4489 19.421 20.6397 19.2803 20.7803C19.1397 20.921 18.9489 21 18.75 21H18M11.25 16.125L14.25 14.25V20.25L11.25 18.375M4.5 14.25H10.5C10.9142 14.25 11.25 14.5858 11.25 15V19.5C11.25 19.9142 10.9142 20.25 10.5 20.25H4.5C4.08579 20.25 3.75 19.9142 3.75 19.5V15C3.75 14.5858 4.08579 14.25 4.5 14.25Z" stroke="black" stroke-width="1.5" stroke-linecap="round" stroke-linejoin="round"/>
</svg>
