<svg width="24" height="24" viewBox="0 0 24 24" fill="none" xmlns="http://www.w3.org/2000/svg">
<path d="M14.25 3V8.25H19.5L14.25 3Z" fill="black" fill-opacity="0.2"/>
<path d="M19.5 10.5V8.25L14.25 3H5.25C5.05109 3 4.86032 3.07902 4.71967 3.21967C4.57902 3.36032 4.5 3.55109 4.5 3.75V10.5M14.25 3V8.25H19.5M20.25 18.8316C20.0587 19.0392 19.8269 19.2056 19.569 19.3206C19.3111 19.4355 19.0324 19.4966 18.75 19.5C17.5069 19.5 16.5 18.3244 16.5 16.875C16.5 15.4256 17.5069 14.25 18.75 14.25C19.0324 14.2534 19.3111 14.3145 19.569 14.4294C19.8269 14.5444 20.0587 14.7108 20.25 14.9184M3.375 14.25V19.5H4.875C5.57119 19.5 6.23887 19.2234 6.73116 18.7312C7.22344 18.2389 7.5 17.5712 7.5 16.875C7.5 16.1788 7.22344 15.5111 6.73116 15.0188C6.23887 14.5266 5.57119 14.25 4.875 14.25H3.375ZM14.25 16.875C14.25 18.3247 13.2426 19.5 12 19.5C10.7574 19.5 9.75 18.3247 9.75 16.875C9.75 15.4253 10.7574 14.25 12 14.25C13.2426 14.25 14.25 15.4253 14.25 16.875Z" stroke="black" stroke-width="1.5" stroke-linecap="round" stroke-linejoin="round"/>
</svg>
