<svg width="24" height="24" viewBox="0 0 24 24" fill="none" xmlns="http://www.w3.org/2000/svg">
<path d="M8.61523 12.7598C10.8932 12.7599 12.7401 14.6068 12.7402 16.8848C12.7402 19.1629 10.8933 21.0097 8.61523 21.0098C6.33706 21.0098 4.49023 19.1629 4.49023 16.8848C4.49037 14.6067 6.33714 12.7598 8.61523 12.7598Z" fill="black" fill-opacity="0.2"/>
<path d="M19.5 8.25H14.25V3L19.5 8.25Z" fill="black" fill-opacity="0.2"/>
<path d="M14.25 3V8.25H19.5M4.5 11.25V3.75C4.5 3.55109 4.57902 3.36032 4.71967 3.21967C4.86032 3.07902 5.05109 3 5.25 3H14.25L19.5 8.25V20.25C19.5 20.4489 19.421 20.6397 19.2803 20.7803C19.1397 20.921 18.9489 21 18.75 21H15.75M12.75 16.875C12.75 19.1532 10.9032 21 8.625 21C6.34683 21 4.5 19.1532 4.5 16.875C4.5 14.5968 6.34683 12.75 8.625 12.75C10.9032 12.75 12.75 14.5968 12.75 16.875ZM12.75 16.875H10M10 16.875C10 17.6344 9.38439 18.25 8.625 18.25C7.86561 18.25 7.25 17.6344 7.25 16.875C7.25 16.1156 7.86561 15.5 8.625 15.5C9.38439 15.5 10 16.1156 10 16.875ZM11.5417 13.9581L9.59741 15.9025" stroke="black" stroke-width="1.50363" stroke-linecap="round" stroke-linejoin="round"/>
</svg>
