<svg viewBox="0 0 24 24" fill="none" xmlns="http://www.w3.org/2000/svg" width="24" height="24">
<path d="M19.29 21.72H4.71C4.495 21.72 4.289 21.635 4.137 21.483 3.985 21.331 3.9 21.125 3.9 20.91V3.09C3.9 2.875 3.985 2.669 4.137 2.517 4.289 2.365 4.495 2.28 4.71 2.28H14.057C14.296 2.28 14.525 2.375 14.694 2.543L19.836 7.686C20.005 7.855 20.1 8.084 20.1 8.323V20.91C20.1 21.125 20.015 21.331 19.863 21.483 19.711 21.635 19.505 21.72 19.29 21.72Z" fill="black" fill-opacity="0.2"/>
<path d="M3.3 20.91V3.09C3.3 2.716 3.448 2.357 3.713 2.092 3.977 1.828 4.336 1.68 4.71 1.68H14.43L14.548 1.692C14.663 1.715 14.77 1.771 14.855 1.856L20.524 7.525C20.637 7.638 20.7 7.79 20.7 7.949V20.91C20.7 21.284 20.552 21.642 20.287 21.906 20.023 22.171 19.664 22.32 19.29 22.32H4.71C4.336 22.32 3.977 22.171 3.713 21.906 3.448 21.642 3.3 21.284 3.3 20.91ZM4.5 20.91C4.5 20.966 4.522 21.019 4.561 21.058 4.6 21.097 4.654 21.12 4.71 21.12H19.29C19.346 21.12 19.4 21.097 19.439 21.058 19.478 21.019 19.5 20.966 19.5 20.91V8.198L14.182 2.88H4.71C4.654 2.88 4.6 2.901 4.561 2.941 4.522 2.98 4.5 3.034 4.5 3.09V20.91Z" fill="black"/>
<path d="M13.83 7.049V2.28C13.83 1.949 14.099 1.68 14.43 1.68 14.762 1.68 15.03 1.949 15.03 2.28V7.049C15.03 7.215 15.164 7.349 15.33 7.349H20.099C20.431 7.349 20.7 7.618 20.7 7.949 20.7 8.281 20.431 8.549 20.099 8.549H15.33C14.501 8.549 13.83 7.878 13.83 7.049Z" fill="black"/>
<path d="M15.24 9.996C15.571 9.996 15.84 10.265 15.84 10.596 15.84 10.927 15.571 11.196 15.24 11.196H8.76C8.428 11.196 8.16 10.927 8.16 10.596 8.16 10.265 8.428 9.996 8.76 9.996H15.24Z" fill="black"/>
<path d="M15.24 13.44C15.571 13.44 15.84 13.709 15.84 14.04 15.84 14.371 15.571 14.64 15.24 14.64H8.76C8.428 14.64 8.16 14.371 8.16 14.04 8.16 13.709 8.428 13.44 8.76 13.44H15.24Z" fill="black"/>
<path d="M8.16 17.784C8.16 17.287 8.563 16.884 9.06 16.884H14.94C15.437 16.884 15.84 17.287 15.84 17.784V18.384C15.84 18.881 15.437 19.284 14.94 19.284H9.06C8.563 19.284 8.16 18.881 8.16 18.384V17.784Z" fill="black"/>
</svg>