<svg viewBox="0 0 24 24" fill="none" xmlns="http://www.w3.org/2000/svg" width="24" height="24">
<path d="M14.122 3.389V9.059H19.792" fill="black" fill-opacity="0.2"/>
<path d="M14.121 9.659H19.192V11.489C19.192 11.82 19.46 12.089 19.792 12.089 20.123 12.089 20.392 11.82 20.392 11.489L20.391 9.059C20.391 8.968 20.371 8.881 20.335 8.804 20.251 8.625 20.081 8.495 19.879 8.465L19.853 8.462C19.99 8.478 20.123 8.541 20.215 8.634L14.546 2.965C14.506 2.925 14.461 2.891 14.412 2.864 14.358 2.834 14.3 2.813 14.239 2.801L14.121 2.789H4.401C4.028 2.789 3.668 2.937 3.404 3.202 3.14 3.466 2.992 3.825 2.992 4.199V11.489C2.992 11.82 3.26 12.089 3.592 12.089 3.923 12.089 4.192 11.82 4.192 11.489V4.199C4.192 4.143 4.213 4.089 4.253 4.05 4.292 4.011 4.346 3.989 4.401 3.989H13.521V9.059C13.521 9.39 13.79 9.659 14.121 9.659ZM18.343 8.459H14.721V4.837L18.343 8.459Z" fill="black"/>
<path d="M17.916 21.816C17.705 21.816 17.542 21.762 17.427 21.653 17.318 21.537 17.264 21.374 17.264 21.163V15.701C17.264 15.489 17.318 15.33 17.427 15.221 17.542 15.105 17.705 15.048 17.916 15.048H20.22C20.694 15.048 21.097 15.118 21.43 15.259 21.763 15.4 22.016 15.601 22.188 15.864 22.368 16.126 22.457 16.44 22.457 16.805 22.457 17.214 22.339 17.56 22.102 17.841 21.865 18.123 21.542 18.312 21.132 18.408V18.264C21.606 18.334 21.974 18.513 22.236 18.801 22.499 19.089 22.63 19.464 22.63 19.925 22.63 20.526 22.425 20.994 22.016 21.326 21.612 21.653 21.049 21.816 20.326 21.816H17.916ZM18.444 20.885H20.172C20.608 20.885 20.928 20.802 21.132 20.635 21.337 20.462 21.44 20.206 21.44 19.867 21.44 19.521 21.337 19.266 21.132 19.099 20.928 18.933 20.608 18.849 20.172 18.849H18.444V20.885ZM18.444 17.918H20.009C20.432 17.918 20.745 17.838 20.95 17.678 21.161 17.512 21.267 17.269 21.267 16.949 21.267 16.629 21.161 16.389 20.95 16.229 20.745 16.062 20.432 15.979 20.009 15.979H18.444V17.918Z" fill="black"/>
<path d="M10.604 21.816C10.393 21.816 10.23 21.762 10.114 21.653 10.005 21.537 9.951 21.374 9.951 21.163V15.701C9.951 15.489 10.005 15.33 10.114 15.221 10.23 15.105 10.393 15.048 10.604 15.048H12.466C13.599 15.048 14.473 15.339 15.087 15.921 15.708 16.504 16.018 17.339 16.018 18.427 16.018 18.971 15.938 19.454 15.778 19.877 15.625 20.293 15.394 20.645 15.087 20.933 14.786 21.221 14.415 21.441 13.974 21.595 13.538 21.742 13.036 21.816 12.466 21.816H10.604ZM11.18 20.798H12.39C12.786 20.798 13.129 20.75 13.417 20.654 13.711 20.552 13.954 20.405 14.146 20.213 14.345 20.014 14.492 19.768 14.588 19.473 14.684 19.173 14.732 18.824 14.732 18.427 14.732 17.634 14.537 17.041 14.146 16.651 13.756 16.261 13.17 16.065 12.39 16.065H11.18V20.798Z" fill="black"/>
<path d="M2.193 21.893C2.014 21.893 1.876 21.841 1.78 21.739 1.684 21.637 1.636 21.496 1.636 21.317V15.547C1.636 15.361 1.687 15.221 1.79 15.125 1.892 15.022 2.033 14.971 2.212 14.971 2.372 14.971 2.497 15.003 2.586 15.067 2.682 15.125 2.769 15.227 2.846 15.374L5.217 19.761H4.91L7.281 15.374C7.358 15.227 7.441 15.125 7.53 15.067 7.62 15.003 7.745 14.971 7.905 14.971 8.084 14.971 8.222 15.022 8.318 15.125 8.414 15.221 8.462 15.361 8.462 15.547V21.317C8.462 21.496 8.414 21.637 8.318 21.739 8.228 21.841 8.09 21.893 7.905 21.893 7.726 21.893 7.588 21.841 7.492 21.739 7.396 21.637 7.348 21.496 7.348 21.317V16.872H7.559L5.543 20.549C5.479 20.658 5.412 20.737 5.342 20.789 5.271 20.84 5.175 20.865 5.054 20.865 4.932 20.865 4.833 20.84 4.756 20.789 4.679 20.731 4.612 20.651 4.554 20.549L2.519 16.862H2.75V21.317C2.75 21.496 2.702 21.637 2.606 21.739 2.516 21.841 2.378 21.893 2.193 21.893Z" fill="black"/>
</svg>