<?xml version="1.0" encoding="utf-8"?>
<svg xmlns="http://www.w3.org/2000/svg" width="512" height="512" viewBox="0 0 512 512">
  <!-- Background layer (40% opacity) -->
    <path d="M352 32H96c-17.7 0-32 14.3-32 32v384c0 17.7 14.3 32 32 32h320c17.7 0 32-14.3 32-32V128l-96-96z" fill="currentColor" opacity="0.4"/>
    <path d="m64 416H96V64h224v96h96v288z" fill="currentColor" opacity="0.4"/>
    <path d="M304 304.8v-.8c0-8.8-7.2-16-16-16h-10.1c24.2-3.1 42.8-24.3 41.8-49.6-1-24.8-21.2-45-46-46-27.4-1.1-49.9 20.8-49.9 48 0 24.4 18.2 44.6 41.8 47.6h-70.4c17.2-1.7 30.3-16.9 28.7-34.8-1.4-15.5-14.1-27.9-29.6-28.9-18.7-1.3-34.2 13.5-34.2 31.9 0 16.6 12.7 30.2 28.8 31.8H176c-8.8 0-16 7.2-16 16v64c0 8.8 7.2 16 16 16h111.7c8.4 0 15.6-6.3 16.3-14.6.2-3.1-.3-6.1-1.7-8.7l1.8 1.1 44.9 27.1c1.3.8 2.7 1.2 4.1 1.2 1.3 0 2.7-.3 3.9-1 2.5-1.4 4.1-4.1 4.1-7v-95.8c0-2.9-1.5-5.5-4-6.9s-5.5-1.5-8 0L304 304.8z" fill="currentColor" opacity="0.4"/>
  <!-- Foreground layer (100% opacity) -->
    <path d="M193.5 272c-.5.1-1 .1-1.5.1s-1 0-1.5-.1h-.2c-8.6-.8-15.1-8.5-14.3-17.2.6-7.9 7.2-14.2 15.1-14.6 9.2-.5 16.8 6.9 16.8 16 .1 8.1-6.1 15-14.4 15.8z" fill="currentColor"/>
    <path d="m82.3-.3c-.3 0-.6.1-.9.1-1 .1-2.1.2-3.1.2s-2.1 0-3.1-.2c-.3 0-.6-.1-.9-.1-15.9-2-27.9-15.7-27.9-31.7 0-17.6 14.4-32 32-32s32 14.4 32 32c-.1 16.1-12.1 29.7-28.1 31.7z" fill="currentColor"/>
</svg>