<svg xmlns="http://www.w3.org/2000/svg" width="24" height="24" fill="currentColor" viewBox="0 0 24 24"><path d="M20.1 7.95h-5.67V2.28z" opacity=".2"/><path d="M20.674 7.376l-5.67-5.67a0.816 0.816 0 0 0-0.574-0.236h-9.72a1.62 1.62 0 0 0-1.62 1.62v17.82a1.62 1.62 0 0 0 1.62 1.62h14.58a1.62 1.62 0 0 0 1.62-1.62v-12.96a0.816 0.816 0 0 0-0.236-0.574M15.24 4.235l2.905 2.905H15.24z m4.05 16.675H4.71V3.09h8.91v4.86a0.81 0.81 0 0 0 0.81 0.81h4.86z m-4.05-6.48a0.81 0.81 0 0 1-0.81 0.81h-1.62v1.62a0.81 0.81 0 0 1-1.62 0V15.24h-1.62a0.81 0.81 0 0 1 0-1.62h1.62V12a0.81 0.81 0 0 1 1.62 0v1.62h1.62a0.81 0.81 0 0 1 0.81 0.81"/></svg>