<svg width="24" height="24" viewBox="0 0 24 24" fill="none" xmlns="http://www.w3.org/2000/svg">
<path d="M14.25 3V8.25H19.5L14.25 3Z" fill="black" fill-opacity="0.2"/>
<path d="M4.5 10.5V3.75C4.5 3.55109 4.57902 3.36032 4.71967 3.21967C4.86032 3.07902 5.05109 3 5.25 3H14.25L19.5 8.25V20.25C19.5 20.4489 19.421 20.6397 19.2803 20.7803C19.1397 20.921 18.9489 21 18.75 21H16.5M19.5 8.25H14.25V3M12.7406 14.3998C12.7406 14.3998 9.98151 13.6704 9.75932 15.431C9.53714 17.1916 13.3621 16.3798 13.1137 18.311C12.8821 20.1073 10.1343 19.3423 10.1343 19.3423M7.5 14.25H3.75M5.625 14.25V19.5" stroke="black" stroke-width="1.5" stroke-linecap="round" stroke-linejoin="round"/>
</svg>
