<svg width="24" height="24" viewBox="0 0 24 24" fill="none" xmlns="http://www.w3.org/2000/svg">
<path d="M18.075 20.0999H5.925C5.74598 20.0999 5.57429 20.0288 5.4477 19.9022C5.32112 19.7756 5.25 19.6039 5.25 19.4249V4.5749C5.25 4.39588 5.32112 4.22419 5.4477 4.09761C5.57429 3.97102 5.74598 3.8999 5.925 3.8999H13.7143C13.9133 3.8999 14.104 3.97892 14.2447 4.11957L18.5303 8.40523C18.671 8.54588 18.75 8.73665 18.75 8.93556V19.4249C18.75 19.6039 18.6789 19.7756 18.5523 19.9022C18.4257 20.0288 18.254 20.0999 18.075 20.0999Z" fill="black" fill-opacity="0.2"/>
<path fill-rule="evenodd" clip-rule="evenodd" d="M14.0254 3.3999L14.123 3.40967C14.1793 3.42092 14.2333 3.44175 14.2825 3.47119C14.2341 3.44207 14.1803 3.42105 14.123 3.40967C14.0915 3.40338 14.0588 3.39993 14.0254 3.3999Z" fill="black"/>
<path d="M12.9428 13.8443C12.9426 13.3254 12.5214 12.9049 12.0024 12.9049C11.4834 12.9049 11.0632 13.3254 11.0629 13.8443C11.0629 14.3634 11.4833 14.7847 12.0024 14.7847C12.5216 14.7847 12.9428 14.3635 12.9428 13.8443ZM13.9428 13.8443C13.9428 14.0184 13.9165 14.1867 13.8735 14.3472L14.435 14.6724C14.674 14.8105 14.7566 15.116 14.6186 15.355C14.4805 15.5942 14.1741 15.6758 13.935 15.5377L13.3754 15.2144C13.1375 15.4529 12.8378 15.6281 12.5024 15.7174V16.3648C12.5024 16.6409 12.2785 16.8648 12.0024 16.8648C11.7264 16.8647 11.5024 16.6409 11.5024 16.3648V15.7174C11.1668 15.628 10.8663 15.4532 10.6284 15.2144L10.0698 15.5377C9.8307 15.6757 9.5253 15.594 9.38715 15.355C9.24909 15.116 9.33077 14.8106 9.56977 14.6724L10.1303 14.3482C10.0872 14.1875 10.0629 14.0186 10.0629 13.8443C10.063 13.6702 10.0873 13.5019 10.1303 13.3414L9.56977 13.0181C9.33064 12.88 9.24906 12.5737 9.38715 12.3345C9.52531 12.0956 9.83072 12.0139 10.0698 12.1519L10.6284 12.4742C10.8663 12.2356 11.1669 12.0606 11.5024 11.9713V11.3248C11.5024 11.0487 11.7264 10.8249 12.0024 10.8248C12.2785 10.8248 12.5024 11.0487 12.5024 11.3248V11.9713C12.8376 12.0605 13.1375 12.2359 13.3754 12.4742L13.935 12.1519C14.1741 12.0138 14.4805 12.0954 14.6186 12.3345C14.7566 12.5737 14.6741 12.8801 14.435 13.0181L13.8735 13.3414C13.9166 13.502 13.9428 13.6701 13.9428 13.8443Z" fill="black"/>
<path fill-rule="evenodd" clip-rule="evenodd" d="M19.2499 8.61517C19.2498 8.61002 19.2496 8.60488 19.2494 8.59974L19.2499 8.61517Z" fill="black"/>
<path fill-rule="evenodd" clip-rule="evenodd" d="M14.0254 3.3999L14.123 3.40967C14.1793 3.42092 14.2333 3.44175 14.2825 3.47119C14.3173 3.49205 14.3498 3.51723 14.3789 3.54639L19.1035 8.271C19.1426 8.31011 19.1746 8.3551 19.1986 8.40388C19.2284 8.46463 19.2459 8.53125 19.2494 8.59974C19.2498 8.60797 19.2499 8.6069 19.2499 8.61517L19.25 19.4253C19.2499 19.7366 19.1263 20.0351 18.9062 20.2554C18.6859 20.4757 18.3868 20.6 18.0752 20.6001H5.9248C5.61325 20.6 5.31406 20.4757 5.09375 20.2554C4.87373 20.0351 4.7501 19.7366 4.75 19.4253V4.57471C4.75005 4.26315 4.87344 3.96396 5.09375 3.74365C5.31406 3.52334 5.61325 3.39995 5.9248 3.3999H14.0254ZM14.525 8.12451V5.10654L17.543 8.12451H14.525ZM18.25 19.4253V9.12451H14.025C13.7489 9.12451 13.525 8.90065 13.525 8.62451V4.3999H5.9248C5.87846 4.39995 5.83355 4.41791 5.80078 4.45068C5.76801 4.48346 5.75005 4.52837 5.75 4.57471V19.4253C5.7501 19.4714 5.7683 19.5157 5.80078 19.5483C5.83355 19.5811 5.87846 19.6 5.9248 19.6001H18.0752C18.1215 19.6 18.1664 19.5811 18.1992 19.5483C18.2317 19.5157 18.2499 19.4714 18.25 19.4253Z" fill="black"/>
</svg>
