<svg width="24" height="24" viewBox="0 0 24 24" fill="none" xmlns="http://www.w3.org/2000/svg">
<path d="M9.49219 12.6338C10.0585 12.5008 10.653 12.5469 11.1924 12.7646L9.43262 14.6689L9.68164 15.8271L10.8398 16.0762L12.7471 14.3174C12.9651 14.8562 13.011 15.4499 12.8779 16.0156C12.7448 16.5812 12.4393 17.0922 12.0039 17.4775C11.5685 17.8627 11.0244 18.1041 10.4463 18.168C9.86803 18.2318 9.28362 18.1151 8.77441 17.834L6.30859 20.6904C6.11027 20.8885 5.84101 20.9999 5.56055 21C5.28003 21 5.01087 20.8886 4.8125 20.6904C4.61414 20.4923 4.50294 20.2236 4.50293 19.9434C4.50293 19.6631 4.61413 19.3944 4.8125 19.1963L7.67188 16.7324C7.39054 16.2238 7.27396 15.6401 7.33789 15.0625C7.40188 14.4851 7.64361 13.9417 8.0293 13.5068C8.41502 13.072 8.92601 12.7668 9.49219 12.6338Z" fill="black" fill-opacity="0.2"/>
<path d="M19.5 8.25H14.25V3L19.5 8.25Z" fill="black" fill-opacity="0.2"/>
<path d="M14.2526 3V8.25H19.5026M4.50256 11.25V3.75C4.50256 3.55109 4.58158 3.36032 4.72223 3.21967C4.86289 3.07902 5.05365 3 5.25256 3H14.2526L19.5026 8.25V20.25C19.5026 20.4489 19.4235 20.6397 19.2829 20.7803C19.1422 20.921 18.9515 21 18.7526 21H15.7526M7.67223 16.7324C7.39085 16.2237 7.27411 15.6405 7.33804 15.0629C7.40197 14.4853 7.64344 13.9416 8.02926 13.5066C8.41508 13.0717 8.9263 12.7668 9.49265 12.6338C10.059 12.5009 10.6527 12.5464 11.1921 12.7642L9.43214 14.6694L9.68117 15.827L10.8401 16.0758L12.7474 14.3178C12.9654 14.8566 13.011 15.4496 12.8779 16.0153C12.7448 16.5811 12.4395 17.0917 12.0041 17.4771C11.5687 17.8625 11.0244 18.1037 10.4461 18.1676C9.86789 18.2314 9.28402 18.1148 8.77482 17.8338L6.3083 20.6905C6.10993 20.8886 5.84088 20.9999 5.56034 20.9999C5.2798 20.9999 5.01075 20.8886 4.81238 20.6905C4.61401 20.4923 4.50256 20.2236 4.50256 19.9433C4.50256 19.6631 4.61401 19.3943 4.81238 19.1962L7.67223 16.7324Z" stroke="black" stroke-width="1.5" stroke-linecap="round" stroke-linejoin="round"/>
</svg>
