<svg xmlns="http://www.w3.org/2000/svg" width="24" height="24" fill="currentColor" viewBox="0 0 24 24"><path d="M9.57 14.43l4.86 7.29h-12.96l3.644-5.67 1.656 2.576zM14.43 2.28v5.67h5.67z" opacity=".2"/><path d="M10.244 13.98a0.81 0.81 0 0 0-1.348 0l-2.111 3.168-0.989-1.537a0.81 0.81 0 0 0-1.363 0l-3.646 5.67a0.81 0.81 0 0 0 0.682 1.248h12.96a0.81 0.81 0 0 0 0.674-1.26z m-7.291 6.93l2.161-3.362 0.976 1.519a0.81 0.81 0 0 0 1.356 0.011l2.126-3.186 3.345 5.018zM20.672 7.376l-5.67-5.67a0.816 0.816 0 0 0-0.572-0.236h-9.72a1.62 1.62 0 0 0-1.62 1.62V12a0.81 0.81 0 0 0 1.62 0V3.09h8.91v4.86a0.81 0.81 0 0 0 0.81 0.81h4.86v12.15H18.48a0.81 0.81 0 0 0 0 1.62h0.81a1.62 1.62 0 0 0 1.62-1.62v-12.96a0.816 0.816 0 0 0-0.236-0.574zM15.24 4.235l2.905 2.905H15.24z"/></svg>