<svg viewBox="0 0 24 24" fill="none" xmlns="http://www.w3.org/2000/svg" width="24" height="24">
<path d="M19.29 21.72H4.71C4.495 21.72 4.289 21.635 4.137 21.483 3.985 21.331 3.9 21.125 3.9 20.91V3.09C3.9 2.875 3.985 2.669 4.137 2.517 4.289 2.365 4.495 2.28 4.71 2.28H14.057C14.296 2.28 14.525 2.375 14.694 2.543L19.836 7.686C20.005 7.855 20.1 8.084 20.1 8.323V20.91C20.1 21.125 20.015 21.331 19.863 21.483 19.711 21.635 19.505 21.72 19.29 21.72Z" fill="black" fill-opacity="0.2"/>
<path fill-rule="evenodd" clip-rule="evenodd" d="M14.285 1.697C14.523 1.734 14.749 1.828 14.944 1.97 14.839 1.796 14.648 1.68 14.43 1.68 14.38 1.68 14.332 1.686 14.285 1.697ZM20.682 8.093C20.694 8.047 20.7 7.999 20.7 7.949 20.699 7.732 20.583 7.541 20.41 7.436 20.552 7.63 20.645 7.856 20.682 8.093Z" fill="black"/>
<path fill-rule="evenodd" clip-rule="evenodd" d="M14.944 1.97C14.749 1.828 14.523 1.734 14.285 1.697 14.21 1.686 14.134 1.68 14.057 1.68H4.71C4.336 1.68 3.977 1.828 3.713 2.092 3.448 2.357 3.3 2.716 3.3 3.09V20.91C3.3 21.284 3.448 21.642 3.713 21.906 3.977 22.171 4.336 22.32 4.71 22.32H19.29C19.664 22.32 20.023 22.171 20.287 21.906 20.552 21.642 20.7 21.284 20.7 20.91V8.323C20.7 8.246 20.694 8.169 20.682 8.093 20.645 7.856 20.552 7.63 20.41 7.436 20.365 7.375 20.315 7.316 20.261 7.262L15.118 2.119C15.064 2.065 15.005 2.015 14.944 1.97ZM15.03 3.728L18.652 7.349H15.33C15.164 7.349 15.03 7.215 15.03 7.049V3.728ZM4.71 2.88H13.83V7.049C13.83 7.878 14.502 8.549 15.33 8.549H19.5V20.91C19.5 20.966 19.478 21.019 19.439 21.058 19.4 21.097 19.346 21.12 19.29 21.12H4.71C4.654 21.12 4.6 21.097 4.561 21.058 4.522 21.019 4.5 20.966 4.5 20.91V3.09C4.5 3.034 4.522 2.98 4.561 2.941 4.6 2.901 4.654 2.88 4.71 2.88Z" fill="black"/>
<path d="M15.24 15.6C15.572 15.6 15.84 15.869 15.84 16.2 15.84 16.531 15.572 16.8 15.24 16.8H8.76C8.429 16.8 8.16 16.531 8.16 16.2 8.16 15.869 8.429 15.6 8.76 15.6H15.24Z" fill="black"/>
<path d="M15.24 18.001C15.572 18.001 15.84 18.27 15.84 18.601 15.84 18.932 15.572 19.201 15.24 19.201H8.76C8.429 19.201 8.16 18.933 8.16 18.601 8.16 18.27 8.429 18.001 8.76 18.001H15.24Z" fill="black"/>
<path fill-rule="evenodd" clip-rule="evenodd" d="M12.986 8.654C12.904 8.625 12.812 8.637 12.74 8.687 12.669 8.738 12.627 8.82 12.627 8.908V10.924C12.627 11.021 12.678 11.109 12.762 11.157L14.508 12.166C14.584 12.21 14.677 12.214 14.757 12.177 14.836 12.141 14.893 12.067 14.909 11.981 15.037 11.289 14.914 10.572 14.562 9.963 14.209 9.353 13.65 8.888 12.986 8.654Z" fill="black"/>
<path fill-rule="evenodd" clip-rule="evenodd" d="M12 8.484C11.482 8.484 10.972 8.621 10.523 8.879 10.075 9.138 9.701 9.51 9.441 9.958 9.181 10.407 9.043 10.916 9.042 11.434 9.04 11.952 9.176 12.462 9.433 12.911 9.69 13.361 10.061 13.735 10.509 13.997 10.956 14.258 11.465 14.397 11.983 14.401 12.501 14.404 13.012 14.271 13.463 14.015 13.913 13.758 14.289 13.388 14.551 12.941 14.587 12.879 14.598 12.805 14.58 12.736 14.562 12.667 14.516 12.607 14.454 12.571L12.27 11.298V8.754C12.27 8.682 12.241 8.613 12.191 8.563 12.14 8.512 12.072 8.484 12 8.484Z" fill="black"/>
</svg>