<svg width="24" height="24" viewBox="0 0 24 24" fill="none" xmlns="http://www.w3.org/2000/svg">
<path d="M21 18.75C21 18.9489 20.9209 19.1396 20.7803 19.2803C20.6396 19.4209 20.4489 19.5 20.25 19.5H3.75C3.55109 19.5 3.36038 19.4209 3.21973 19.2803C3.07907 19.1396 3 18.9489 3 18.75V16.5H21V18.75Z" fill="black" fill-opacity="0.2"/>
<path d="M20.25 4.5C20.4489 4.5 20.6396 4.57907 20.7803 4.71973C20.9209 4.86038 21 5.05109 21 5.25V7.5H3V5.25C3 5.05109 3.07907 4.86038 3.21973 4.71973C3.36038 4.57907 3.55109 4.5 3.75 4.5H20.25Z" fill="black" fill-opacity="0.2"/>
<path d="M12 4.5V19.5M3 7.5H21M3 16.5H21M7.5 4.5V7.5M16.5 4.5V7.5M7.5 16.5V19.5M16.5 16.5V19.5M3.75 4.5H20.25C20.6642 4.5 21 4.83579 21 5.25V18.75C21 19.1642 20.6642 19.5 20.25 19.5H3.75C3.33579 19.5 3 19.1642 3 18.75V5.25C3 4.83579 3.33579 4.5 3.75 4.5Z" stroke="black" stroke-width="1.5" stroke-linecap="round" stroke-linejoin="round"/>
</svg>
