<svg xmlns="http://www.w3.org/2000/svg" width="24" height="24" fill="currentColor" viewBox="0 0 24 24"><path d="M2.28 16.86h19.44v2.43a0.81 0.81 0 0 1-0.81 0.81H3.09a0.81 0.81 0 0 1-0.81-0.81z m18.63-12.96H3.09a0.81 0.81 0 0 0-0.81 0.81V7.14h19.44V4.71a0.81 0.81 0 0 0-0.81-0.81" opacity=".2"/><path d="M20.91 3.09H3.09a1.62 1.62 0 0 0-1.62 1.62v14.58a1.62 1.62 0 0 0 1.62 1.62h17.82a1.62 1.62 0 0 0 1.62-1.62V4.71a1.62 1.62 0 0 0-1.62-1.62m-17.82 4.86h8.1v8.1h-8.1z m9.72-1.62v-1.62h3.24v1.62z m-1.62 0h-3.24v-1.62h3.24z m0 11.34v1.62h-3.24v-1.62z m1.62 0h3.24v1.62h-3.24z m0-1.62v-8.1h8.1v8.1z m8.1-9.72h-3.24v-1.62h3.24z m-14.58-1.62v1.62h-3.24v-1.62z m-3.24 12.96h3.24v1.62h-3.24z m17.82 1.62h-3.24v-1.62h3.24z"/></svg>