<svg viewBox="0 0 24 24" fill="none" xmlns="http://www.w3.org/2000/svg" width="24" height="24">
<path d="M0.73 4.575C0.635 4.471 0.573 4.341 0.55 4.202 0.527 4.062 0.546 3.92 0.602 3.791 0.659 3.661 0.753 3.552 0.871 3.474 0.989 3.397 1.127 3.356 1.268 3.356H17.306C17.447 3.356 17.585 3.397 17.703 3.474 17.822 3.551 17.915 3.661 17.972 3.79 18.029 3.919 18.048 4.062 18.025 4.201 18.003 4.341 17.94 4.47 17.845 4.575L11.474 11.375V16.719C11.474 16.839 11.444 16.957 11.388 17.063 11.331 17.169 11.249 17.259 11.149 17.326L8.233 19.27C8.124 19.343 7.996 19.385 7.864 19.391 7.733 19.398 7.602 19.368 7.485 19.306 7.369 19.244 7.272 19.152 7.204 19.039 7.136 18.926 7.1 18.797 7.1 18.665V11.375L0.73 4.575Z" fill="black" fill-opacity="0.2"/>
<path d="M17.305 2.815C17.551 2.815 17.792 2.888 17.998 3.022 18.204 3.156 18.366 3.347 18.465 3.571 18.565 3.796 18.597 4.045 18.558 4.287 18.519 4.53 18.41 4.756 18.245 4.938L18.239 4.945 12.013 11.588V16.719C12.013 16.927 11.962 17.133 11.864 17.317 11.766 17.502 11.623 17.66 11.449 17.776L8.532 19.719C8.342 19.846 8.12 19.919 7.89 19.931 7.661 19.942 7.433 19.891 7.231 19.783 7.028 19.675 6.859 19.513 6.741 19.317 6.623 19.12 6.56 18.895 6.559 18.666V11.587L0.335 4.944 0.331 4.938C0.165 4.756 0.056 4.531 0.016 4.288-0.023 4.046 0.009 3.797 0.108 3.572 0.207 3.348 0.37 3.157 0.575 3.023 0.781 2.889 1.02 2.816 1.266 2.815H17.305ZM1.215 3.904C1.198 3.909 1.181 3.916 1.166 3.926 1.136 3.946 1.112 3.975 1.097 4.008 1.082 4.042 1.077 4.079 1.083 4.115 1.089 4.15 1.104 4.182 1.127 4.209L7.493 11.006C7.587 11.106 7.639 11.238 7.639 11.375V18.664L7.647 18.714C7.651 18.73 7.658 18.747 7.666 18.761 7.684 18.79 7.709 18.814 7.739 18.83 7.769 18.846 7.803 18.854 7.838 18.852 7.872 18.851 7.905 18.84 7.934 18.821L10.849 16.877 10.884 16.846C10.895 16.835 10.904 16.822 10.911 16.809 10.926 16.781 10.934 16.751 10.934 16.72V11.375C10.934 11.238 10.985 11.106 11.079 11.006L17.45 4.205C17.472 4.179 17.486 4.148 17.491 4.115 17.497 4.079 17.493 4.042 17.479 4.008 17.464 3.975 17.439 3.946 17.408 3.926 17.378 3.906 17.342 3.896 17.305 3.896H1.269L1.215 3.904Z" fill="black"/>
<path d="M18.929 15.125C19.26 15.125 19.529 15.393 19.529 15.725V17.561H21.352C21.684 17.561 21.952 17.829 21.952 18.161 21.952 18.492 21.684 18.761 21.352 18.761H19.529V20.584C19.529 20.916 19.26 21.184 18.929 21.184 18.597 21.184 18.329 20.916 18.329 20.584V18.761H16.493C16.161 18.761 15.893 18.492 15.893 18.161 15.893 17.83 16.161 17.561 16.493 17.561H18.329V15.725C18.329 15.393 18.598 15.125 18.929 15.125Z" fill="black"/>
<path d="M22.176 15.125C21.845 15.125 21.576 15.393 21.576 15.725 21.576 16.056 21.845 16.325 22.176 16.325H22.776V19.985H22.176C21.845 19.985 21.576 20.253 21.576 20.585 21.576 20.916 21.845 21.185 22.176 21.185H23.376C23.708 21.185 23.976 20.916 23.976 20.585V15.725C23.976 15.393 23.708 15.125 23.376 15.125H22.176Z" fill="black"/>
<path d="M15.67 15.125C16.001 15.125 16.27 15.393 16.27 15.725 16.27 16.056 16.001 16.325 15.67 16.325H15.07V19.985H15.67C16.001 19.985 16.269 20.253 16.27 20.585 16.27 20.916 16.001 21.185 15.67 21.185H14.47C14.138 21.185 13.87 20.916 13.87 20.585V15.725C13.87 15.393 14.138 15.125 14.47 15.125H15.67Z" fill="black"/>
</svg>