<svg viewBox="0 0 24 24" fill="none" xmlns="http://www.w3.org/2000/svg" width="24" height="24">
<path d="M2.121 4.291C2.015 4.175 1.946 4.031 1.921 3.876 1.896 3.721 1.916 3.563 1.979 3.419 2.042 3.276 2.146 3.154 2.277 3.068 2.408 2.982 2.561 2.937 2.718 2.936H20.538C20.695 2.936 20.848 2.982 20.98 3.067 21.111 3.153 21.215 3.275 21.279 3.418 21.342 3.562 21.363 3.721 21.338 3.876 21.312 4.03 21.243 4.175 21.137 4.291L14.058 11.846V17.784C14.058 17.918 14.025 18.049 13.962 18.167 13.899 18.284 13.809 18.385 13.698 18.459L10.458 20.618C10.336 20.7 10.194 20.746 10.048 20.754 9.901 20.761 9.756 20.728 9.627 20.659 9.497 20.59 9.389 20.487 9.314 20.362 9.238 20.236 9.198 20.093 9.198 19.946V11.846L2.121 4.291Z" fill="black" fill-opacity="0.2"/>
<path d="M20.538 2.336C20.811 2.336 21.078 2.416 21.307 2.565 21.536 2.714 21.717 2.926 21.827 3.175 21.938 3.425 21.973 3.701 21.929 3.971 21.886 4.24 21.765 4.492 21.581 4.694L21.575 4.701 14.658 12.083V17.784C14.658 18.016 14.601 18.245 14.491 18.449 14.409 18.603 14.3 18.74 14.169 18.852L14.031 18.958 10.791 21.118C10.578 21.259 10.332 21.341 10.077 21.353 9.822 21.366 9.569 21.308 9.344 21.188 9.12 21.068 8.931 20.89 8.8 20.671 8.668 20.453 8.598 20.202 8.598 19.947V12.083L1.683 4.701 1.677 4.694C1.493 4.492 1.373 4.241 1.329 3.972 1.285 3.703 1.32 3.427 1.43 3.178 1.54 2.928 1.72 2.715 1.949 2.566 2.177 2.417 2.444 2.337 2.716 2.336H20.538ZM2.66 3.546C2.641 3.551 2.622 3.559 2.605 3.57 2.571 3.592 2.544 3.624 2.528 3.662 2.511 3.699 2.506 3.74 2.512 3.78 2.519 3.82 2.538 3.858 2.565 3.888L9.636 11.436C9.74 11.547 9.798 11.694 9.798 11.846V19.945C9.798 19.983 9.809 20.02 9.828 20.052 9.848 20.085 9.876 20.112 9.909 20.13 9.943 20.148 9.98 20.156 10.018 20.154 10.056 20.153 10.093 20.14 10.125 20.119L13.364 17.96C13.393 17.94 13.417 17.914 13.433 17.883 13.449 17.853 13.458 17.819 13.458 17.785V11.846C13.458 11.694 13.516 11.547 13.621 11.436L20.693 3.888C20.72 3.858 20.739 3.82 20.746 3.78 20.752 3.74 20.747 3.699 20.73 3.662 20.714 3.624 20.687 3.592 20.653 3.57 20.619 3.548 20.579 3.536 20.538 3.536H2.72L2.66 3.546Z" fill="black"/>
<path d="M19.658 15.589C19.994 15.589 20.265 15.861 20.265 16.196V18.025H22.082C22.417 18.025 22.69 18.297 22.69 18.632 22.69 18.968 22.417 19.239 22.082 19.239H20.265V21.056C20.265 21.391 19.994 21.664 19.658 21.664 19.323 21.664 19.051 21.391 19.051 21.056V19.239H17.222C16.886 19.239 16.615 18.968 16.615 18.632 16.615 18.297 16.886 18.025 17.222 18.025H19.051V16.196C19.051 15.861 19.323 15.589 19.658 15.589Z" fill="black"/>
</svg>