<svg xmlns="http://www.w3.org/2000/svg" width="24" height="24" fill="currentColor" viewBox="0 0 24 24"><path d="M21.508 5.255l-7.078 7.555v5.939a0.816 0.816 0 0 1-0.36 0.674l-3.24 2.16a0.81 0.81 0 0 1-1.26-0.672v-8.1L2.492 5.256a0.81 0.81 0 0 1 0.598-1.355h17.82a0.81 0.81 0 0 1 0.598 1.355z" opacity=".2"/><path d="M22.106 5.8a1.62 1.62 0 0 0-1.196-2.71H3.09a1.62 1.62 0 0 0-1.195 2.71l0.008 0.009 6.858 7.323v7.779a1.62 1.62 0 0 0 2.518 1.349l3.24-2.161a1.62 1.62 0 0 0 0.722-1.349v-5.618l6.858-7.323z m-8.264 6.463a0.816 0.816 0 0 0-0.222 0.547v5.939l-3.24 2.161v-8.1a0.816 0.816 0 0 0-0.218-0.553L3.09 4.71h17.82z m10.073 8.081a0.81 0.81 0 0 1-1.146 1.146l-1.859-1.864-1.856 1.858a0.81 0.81 0 0 1-1.145-1.146l1.856-1.858-1.856-1.858a0.81 0.81 0 0 1 1.145-1.144l1.856 1.857 1.856-1.856a0.81 0.81 0 0 1 1.146 1.145L22.055 18.48z"/></svg>