<svg width="24" height="24" viewBox="0 0 24 24" fill="none" xmlns="http://www.w3.org/2000/svg">
<path d="M3.19493 5.75437C3.09734 5.64697 3.033 5.51357 3.00972 5.37033C2.98643 5.22709 3.00521 5.08018 3.06376 4.94739C3.12231 4.81461 3.21812 4.70167 3.33958 4.62226C3.46105 4.54284 3.60294 4.50038 3.74805 4.5H20.2481C20.3933 4.50001 20.5355 4.54222 20.6572 4.62149C20.779 4.70076 20.8751 4.81368 20.9338 4.94654C20.9926 5.07939 21.0116 5.22646 20.9883 5.36987C20.9651 5.51328 20.9007 5.64686 20.8031 5.75437L14.2481 12.75V18.2484C14.2481 18.3719 14.2177 18.4936 14.1595 18.6025C14.1013 18.7114 14.017 18.8043 13.9143 18.8728L10.9143 20.8725C10.8015 20.9478 10.6703 20.9911 10.5348 20.9977C10.3993 21.0044 10.2646 20.9741 10.1449 20.9103C10.0252 20.8464 9.92511 20.7512 9.85523 20.635C9.78534 20.5187 9.7483 20.3857 9.74805 20.25V12.75L3.19493 5.75437Z" fill="black" fill-opacity="0.2"/>
<path d="M19.25 14.75V19.25M17 17H21.5M3.19493 5.75437C3.09734 5.64697 3.033 5.51357 3.00972 5.37033C2.98643 5.22709 3.00521 5.08018 3.06376 4.94739C3.12231 4.81461 3.21812 4.70167 3.33958 4.62226C3.46105 4.54284 3.60294 4.50038 3.74805 4.5H20.2481C20.3933 4.50001 20.5355 4.54222 20.6572 4.62149C20.779 4.70076 20.8751 4.81368 20.9338 4.94654C20.9926 5.07939 21.0116 5.22646 20.9883 5.36987C20.9651 5.51328 20.9007 5.64686 20.8031 5.75437L14.2481 12.75V18.2484C14.2481 18.3719 14.2177 18.4936 14.1595 18.6025C14.1013 18.7114 14.017 18.8043 13.9143 18.8728L10.9143 20.8725C10.8015 20.9478 10.6703 20.9911 10.5348 20.9977C10.3993 21.0044 10.2646 20.9741 10.1449 20.9103C10.0252 20.8464 9.92511 20.7512 9.85523 20.635C9.78534 20.5187 9.7483 20.3857 9.74805 20.25V12.75L3.19493 5.75437Z" stroke="black" stroke-width="1.5" stroke-linecap="round" stroke-linejoin="round"/>
</svg>
