<svg xmlns="http://www.w3.org/2000/svg" width="24" height="24" fill="currentColor" viewBox="0 0 24 24"><path d="M21.72 7.14v8.91L19.29 18.48H3.9V5.52h16.2a1.62 1.62 0 0 1 1.62 1.62" opacity=".2"/><path d="M12 12a0.81 0.81 0 0 1-0.81 0.81H3.9a0.81 0.81 0 0 1 0-1.62h7.29A0.81 0.81 0 0 1 12 12M3.9 6.33h13.77a0.81 0.81 0 0 0 0-1.62H3.9a0.81 0.81 0 0 0 0 1.62m5.67 11.34H3.9a0.81 0.81 0 0 0 0 1.62h5.67a0.81 0.81 0 0 0 0-1.62m12.724-2.194a0.81 0.81 0 0 0-1.146 0l-2.667 2.668v-7.765a0.81 0.81 0 0 0-1.62 0v7.765l-2.666-2.668a0.81 0.81 0 0 0-1.146 1.146l4.05 4.05a0.81 0.81 0 0 0 1.146 0l4.05-4.05a0.81 0.81 0 0 0 0-1.146z"/></svg>