<svg width="24" height="24" viewBox="0 0 24 24" fill="none" xmlns="http://www.w3.org/2000/svg">
<path d="M3.19688 5.75437C3.09929 5.64697 3.03495 5.51357 3.01167 5.37033C2.98839 5.22709 3.00716 5.08018 3.06571 4.94739C3.12426 4.81461 3.22008 4.70167 3.34154 4.62226C3.463 4.54284 3.60489 4.50038 3.75001 4.5H20.25C20.3953 4.50001 20.5374 4.54222 20.6592 4.62149C20.7809 4.70076 20.877 4.81368 20.9358 4.94654C20.9946 5.07939 21.0135 5.22646 20.9903 5.36987C20.9671 5.51328 20.9027 5.64686 20.805 5.75437L14.25 12.75V18.2484C14.2501 18.3719 14.2197 18.4936 14.1614 18.6025C14.1032 18.7114 14.019 18.8043 13.9163 18.8728L10.9163 20.8725C10.8034 20.9478 10.6723 20.9911 10.5368 20.9977C10.4013 21.0044 10.2665 20.9741 10.1468 20.9103C10.0272 20.8464 9.92706 20.7512 9.85718 20.635C9.7873 20.5187 9.75026 20.3857 9.75001 20.25V12.75L3.19688 5.75437Z" fill="black" fill-opacity="0.2"/>
<path d="M17.9995 15.75L22.4995 20.25M22.4995 15.75L17.9995 20.25M3.19639 5.75437C3.0988 5.64697 3.03446 5.51357 3.01118 5.37033C2.9879 5.22709 3.00667 5.08018 3.06522 4.94739C3.12377 4.81461 3.21959 4.70167 3.34105 4.62226C3.46251 4.54284 3.6044 4.50038 3.74952 4.5H20.2495C20.3948 4.50001 20.5369 4.54222 20.6587 4.62149C20.7804 4.70076 20.8765 4.81368 20.9353 4.94654C20.9941 5.07939 21.013 5.22646 20.9898 5.36987C20.9666 5.51328 20.9022 5.64686 20.8045 5.75437L14.2495 12.75V18.2484C14.2496 18.3719 14.2192 18.4936 14.161 18.6025C14.1027 18.7114 14.0185 18.8043 13.9158 18.8728L10.9158 20.8725C10.8029 20.9478 10.6718 20.9911 10.5363 20.9977C10.4008 21.0044 10.266 20.9741 10.1464 20.9103C10.0267 20.8464 9.92657 20.7512 9.85669 20.635C9.78681 20.5187 9.74977 20.3857 9.74952 20.25V12.75L3.19639 5.75437Z" stroke="black" stroke-width="1.5" stroke-linecap="round" stroke-linejoin="round"/>
</svg>
