<svg xmlns="http://www.w3.org/2000/svg" width="24" height="24" fill="currentColor" viewBox="0 0 24 24"><path d="M10.38 3.09v16.2a0.81 0.81 0 0 1-0.81 0.81h-6.48a0.81 0.81 0 0 1-0.746-1.126l6.48-16.2c0.341-0.812 1.556-0.566 1.556 0.316" opacity=".2"/><path d="M9.892 1.504a1.608 1.608 0 0 0-1.815 0.956l-0.006 0.014-6.48 16.193a1.62 1.62 0 0 0 1.499 2.243h6.48a1.62 1.62 0 0 0 1.62-1.62v-16.2a1.608 1.608 0 0 0-1.298-1.586m-0.322 17.786h-6.48l0.006-0.016L9.57 3.09z m12.835-0.623l-6.48-16.193-0.006-0.014a1.62 1.62 0 0 0-3.109 0.63v16.2a1.62 1.62 0 0 0 1.62 1.62h6.48a1.62 1.62 0 0 0 1.496-2.243z m-7.975 0.623v-16.2l6.473 16.183 0.006 0.016z"/></svg>