<svg xmlns="http://www.w3.org/2000/svg" width="24" height="24" fill="currentColor" viewBox="0 0 24 24"><path d="M20.1 7.95v2.43H6.104a0.81 0.81 0 0 0-0.768 0.554L2.281 20.1V5.52a0.81 0.81 0 0 1 0.81-0.81h5.4a0.816 0.816 0 0 1 0.486 0.162l3.024 2.268h7.29a0.81 0.81 0 0 1 0.81 0.81z" opacity=".2"/><path d="M23.846 10.242a1.62 1.62 0 0 0-1.316-0.672h-1.62v-1.62a1.62 1.62 0 0 0-1.62-1.62h-7.02L9.462 4.224a1.632 1.632 0 0 0-0.972-0.324H3.089a1.62 1.62 0 0 0-1.62 1.62v14.58a0.81 0.81 0 0 0 0.81 0.81h18.134a0.81 0.81 0 0 0 0.768-0.554l2.885-8.655a1.62 1.62 0 0 0-0.221-1.46zM8.491 5.52l3.023 2.268a0.816 0.816 0 0 0 0.486 0.162h7.29v1.62H6.104a1.62 1.62 0 0 0-1.537 1.108L3.09 15.108V5.52z m11.34 13.77H3.404l2.7-8.1h16.426z"/></svg>