<svg viewBox="0 0 24 24" fill="none" xmlns="http://www.w3.org/2000/svg" width="24" height="24">
<path d="M21 20.099H3.027C2.829 20.099 2.639 20.02 2.499 19.88 2.359 19.74 2.28 19.55 2.28 19.352V7.139H20.91C21.125 7.139 21.331 7.225 21.483 7.377 21.635 7.529 21.72 7.735 21.72 7.949V19.38C21.72 19.57 21.644 19.754 21.509 19.889 21.374 20.024 21.191 20.099 21 20.099Z" fill="black" fill-opacity="0.2"/>
<path fill-rule="evenodd" clip-rule="evenodd" d="M9.427 3.706C9.194 3.474 8.889 3.332 8.565 3.299L8.426 3.292H3.09C2.715 3.292 2.354 3.442 2.088 3.707 1.823 3.973 1.672 4.333 1.672 4.709V19.354C1.673 19.713 1.817 20.057 2.071 20.31 2.324 20.563 2.668 20.707 3.026 20.708H21C21.352 20.707 21.69 20.567 21.939 20.319 22.187 20.07 22.328 19.732 22.328 19.38V7.949C22.328 7.574 22.178 7.213 21.913 6.947 21.647 6.682 21.287 6.533 20.911 6.533H12.253L9.427 3.706ZM2.888 19.351C2.888 19.388 2.903 19.424 2.93 19.45 2.956 19.476 2.992 19.492 3.029 19.492H21C21.029 19.492 21.059 19.48 21.08 19.46 21.101 19.439 21.112 19.41 21.113 19.38V7.949C21.112 7.896 21.092 7.844 21.054 7.806 21.016 7.769 20.964 7.747 20.911 7.747H2.888V19.351ZM3.09 4.506C3.037 4.507 2.985 4.528 2.947 4.566 2.909 4.604 2.888 4.656 2.888 4.709V6.533H10.535L8.568 4.566C8.53 4.529 8.478 4.507 8.425 4.506H3.09Z" fill="black"/>
<path d="M12.02 10.165C12.041 10.166 12.061 10.168 12.082 10.171 12.097 10.173 12.111 10.176 12.125 10.179 12.144 10.183 12.162 10.189 12.179 10.195 12.193 10.2 12.206 10.205 12.219 10.211 12.278 10.237 12.334 10.274 12.382 10.322L14.569 12.509C14.78 12.719 14.78 13.062 14.569 13.273 14.358 13.483 14.017 13.483 13.806 13.273L12.54 12.007V16.536C12.54 16.834 12.298 17.075 12 17.075 11.702 17.075 11.46 16.834 11.46 16.536V12.007L10.195 13.273C9.984 13.484 9.642 13.483 9.431 13.273 9.221 13.062 9.22 12.719 9.431 12.509L11.618 10.322C11.643 10.296 11.671 10.273 11.701 10.253H11.703C11.73 10.235 11.757 10.219 11.786 10.207 11.797 10.202 11.81 10.2 11.822 10.195 11.841 10.189 11.86 10.181 11.879 10.177 11.892 10.174 11.906 10.173 11.919 10.171 11.941 10.167 11.962 10.166 11.984 10.165 11.989 10.165 11.994 10.164 12 10.164 12.007 10.164 12.013 10.165 12.02 10.165Z" fill="black"/>
</svg>