<svg width="24" height="24" viewBox="0 0 24 24" fill="none" xmlns="http://www.w3.org/2000/svg">
<path fill-rule="evenodd" clip-rule="evenodd" d="M15.412 13.3769L16.6849 16.3668C16.757 16.5229 16.8411 16.649 16.9372 16.745C17.0454 16.8291 17.1836 16.8711 17.3518 16.8711C17.508 16.8711 17.6222 16.8351 17.6943 16.763C17.7784 16.703 17.8204 16.6129 17.8204 16.4929C17.8324 16.3728 17.8024 16.2407 17.7303 16.0966L12.6655 4.46135C12.5934 4.28123 12.4973 4.15515 12.3771 4.08311C12.269 3.99906 12.1428 3.95703 11.9986 3.95703C11.8784 3.95703 11.7583 3.99906 11.6381 4.08311C11.5179 4.15515 11.4158 4.28123 11.3317 4.46135L6.26688 16.0966C6.2068 16.2407 6.17676 16.3728 6.17676 16.4929C6.18877 16.6129 6.23684 16.703 6.32095 16.763C6.41708 16.8351 6.54325 16.8711 6.69946 16.8711C6.83164 16.8711 6.94579 16.8351 7.04192 16.763C7.15007 16.679 7.24019 16.5469 7.31229 16.3668L8.58514 13.3769H15.412ZM9.00837 12.4223H15.0063L12.0166 5.43395H11.9806L9.00837 12.4223Z" fill="black"/>
<path fill-rule="evenodd" clip-rule="evenodd" d="M15.0063 12.4223H9.00837L11.9806 5.43395H12.0166L15.0063 12.4223Z" fill="black" fill-opacity="0.2"/>
<path d="M19.4246 19.543C19.7007 19.543 19.9246 19.7668 19.9246 20.043C19.9246 20.3191 19.7007 20.543 19.4246 20.543H4.57495C4.29881 20.543 4.07495 20.3191 4.07495 20.043C4.07495 19.7668 4.29881 19.543 4.57495 19.543H19.4246Z" fill="black"/>
</svg>
