<svg width="24" height="24" viewBox="0 0 24 24" fill="none" xmlns="http://www.w3.org/2000/svg">
<path d="M16.1206 12.6128L19.4503 12.6128L17.0744 10.4358L16.9623 10.3211C16.8562 10.2006 16.7697 10.0632 16.7068 9.91477C16.6231 9.7172 16.5825 9.50406 16.5882 9.28958C16.5941 9.07482 16.6465 8.86346 16.7409 8.67051C16.8354 8.47753 16.9698 8.30647 17.1359 8.17013L17.1506 8.15843L20.6052 5.46953C20.8537 5.18074 20.9842 4.8084 20.9675 4.42661C20.9502 4.02916 20.7758 3.65488 20.4825 3.38611C20.1892 3.11735 19.8011 2.97626 19.4037 2.99362C19.0219 3.01029 18.663 3.17336 18.397 3.44606L16.0187 7.12129L16.0083 7.13695C15.887 7.3143 15.7283 7.46304 15.5443 7.574C15.3603 7.68491 15.1543 7.75551 14.9409 7.78005C14.7277 7.80448 14.5119 7.7826 14.3077 7.71646C14.1033 7.65016 13.9151 7.54079 13.7567 7.39561L10.4389 4.35546C10.2923 4.22108 10.0983 4.15053 9.89953 4.15921C9.7008 4.16789 9.51366 4.25507 9.37928 4.40172L8.36621 5.50729L16.1206 12.6128Z" fill="black" fill-opacity="0.2"/>
<path d="M15.8346 13.3555L7.31693 5.55659M4.73491 13.3594L2.25004 11.0837L8.83705 3.89922C9.10582 3.60607 9.48009 3.43164 9.87754 3.4143C10.275 3.39696 10.663 3.53812 10.9564 3.80674L14.2741 6.84521C14.3533 6.91776 14.4472 6.97245 14.5494 7.00558C14.6516 7.03872 14.7597 7.04951 14.8665 7.03725C14.9732 7.02498 15.0761 6.98993 15.1681 6.93448C15.2601 6.87903 15.3391 6.80447 15.3998 6.71584L17.8209 2.97665C18.2241 2.53693 18.7855 2.27529 19.3817 2.24927C19.9778 2.22326 20.5599 2.43501 20.9999 2.83793C21.4399 3.24086 21.7017 3.80196 21.7277 4.3978C21.7537 4.99363 21.5418 5.5754 21.1387 6.01512L17.6227 8.75162C17.5396 8.81975 17.4722 8.90492 17.4249 9.00136C17.3777 9.09781 17.3517 9.20327 17.3488 9.31062C17.3459 9.41796 17.3661 9.52468 17.408 9.62355C17.4499 9.72242 17.5126 9.81113 17.5918 9.88368L20.9096 12.9221M4.46179 13.1094L7.50195 9.79347M2.25 13.3618L21.75 13.3618M7.46734 15.7056L5.25 17.5534L7.46734 19.4011M16.53 15.7056L18.7474 17.5534L16.53 19.4011M12.9327 15.3628L11.0673 20.4928M18.0665 10.317L21.3843 13.3555M2.24951 13.3555H21.7495V21.7515H2.24951V13.3555Z" stroke="black" stroke-width="1.5" stroke-linecap="round" stroke-linejoin="round"/>
</svg>
