<svg xmlns="http://www.w3.org/2000/svg" width="24" height="24" fill="currentColor" viewBox="0 0 24 24"><path d="M19.29 3.09v16.2a1.62 1.62 0 0 1-1.62 1.62h-12.96v-16.2a1.62 1.62 0 0 1 1.62-1.62z" opacity=".2"/><path d="M20.1 3.09a0.81 0.81 0 0 1-0.81 0.81h-2.965a2.43 2.43 0 0 0-2.392 1.996l-0.962 5.294h4.699a0.81 0.81 0 0 1 0 1.62h-4.993l-1.013 5.585A4.05 4.05 0 0 1 7.675 21.72H4.71a0.81 0.81 0 0 1 0-1.62h2.965a2.43 2.43 0 0 0 2.392-1.996l0.962-5.294H6.33a0.81 0.81 0 0 1 0-1.62h4.993l1.013-5.585A4.05 4.05 0 0 1 16.325 2.28h2.965a0.81 0.81 0 0 1 0.81 0.81"/></svg>