<svg width="24" height="24" viewBox="0 0 24 24" fill="none" xmlns="http://www.w3.org/2000/svg">
<path d="M4.51953 6.00051C4.65182 6.00551 4.78015 6.04624 4.8916 6.1177L13.1602 11.3814C13.2642 11.4473 13.3498 11.5391 13.4092 11.647C13.4685 11.7549 13.5 11.8763 13.5 11.9995C13.5 12.1227 13.4686 12.2441 13.4092 12.3521C13.3498 12.4599 13.2641 12.5508 13.1602 12.6167L4.8916 17.8814C4.78021 17.9527 4.65173 17.9926 4.51953 17.9976C4.38706 18.0025 4.25526 17.9718 4.13867 17.9087C4.02217 17.8456 3.92476 17.7527 3.85645 17.6392C3.78809 17.5256 3.75114 17.3958 3.75 17.2632V6.73489C3.7512 6.60244 3.78815 6.4724 3.85645 6.35891C3.92479 6.2455 4.02221 6.15239 4.13867 6.08938C4.25526 6.02631 4.38707 5.99559 4.51953 6.00051Z" fill="black" fill-opacity="0.2"/>
<path d="M14.2695 6.00051C14.4018 6.00551 14.5302 6.04624 14.6416 6.1177L22.9102 11.3814C23.0142 11.4473 23.0998 11.5391 23.1592 11.647C23.2185 11.7549 23.25 11.8763 23.25 11.9995C23.25 12.1227 23.2186 12.2441 23.1592 12.3521C23.0998 12.4599 23.0141 12.5508 22.9102 12.6167L14.6416 17.8814C14.5302 17.9527 14.4017 17.9926 14.2695 17.9976C14.1371 18.0025 14.0053 17.9718 13.8887 17.9087C13.7722 17.8456 13.6748 17.7527 13.6064 17.6392C13.5381 17.5256 13.5011 17.3958 13.5 17.2632V6.73489C13.5012 6.60244 13.5381 6.4724 13.6064 6.35891C13.6748 6.2455 13.7722 6.15239 13.8887 6.08938C14.0053 6.02631 14.1371 5.99559 14.2695 6.00051Z" fill="black" fill-opacity="0.2"/>
<path d="M3.75 6.73589V17.264C3.75114 17.3966 3.7878 17.5264 3.85616 17.64C3.92451 17.7536 4.02206 17.8468 4.13865 17.9098C4.25524 17.9729 4.38661 18.0036 4.51909 17.9987C4.65156 17.9937 4.78029 17.9534 4.89187 17.8818L13.1597 12.6178C13.2639 12.5518 13.3497 12.4606 13.4091 12.3526C13.4686 12.2445 13.4997 12.1233 13.4997 12C13.4997 11.8767 13.4686 11.7554 13.4091 11.6473C13.3497 11.5393 13.2639 11.4481 13.1597 11.3821L4.89187 6.11808C4.78029 6.04652 4.65156 6.00617 4.51909 6.00124C4.38661 5.99632 4.25524 6.02699 4.13865 6.09008C4.02206 6.15316 3.92451 6.24634 3.85616 6.35992C3.7878 6.47351 3.75114 6.60333 3.75 6.73589Z" stroke="black" stroke-width="1.5" stroke-linecap="round" stroke-linejoin="round"/>
<path d="M13.5 6.73589V17.264C13.5011 17.3966 13.5378 17.5264 13.6062 17.64C13.6745 17.7536 13.7721 17.8468 13.8887 17.9098C14.0052 17.9729 14.1366 18.0036 14.2691 17.9987C14.4016 17.9937 14.5303 17.9534 14.6419 17.8818L22.9097 12.6178C23.0139 12.5518 23.0997 12.4606 23.1591 12.3526C23.2186 12.2445 23.2497 12.1233 23.2497 12C23.2497 11.8767 23.2186 11.7554 23.1591 11.6473C23.0997 11.5393 23.0139 11.4481 22.9097 11.3821L14.6419 6.11808C14.5303 6.04652 14.4016 6.00617 14.2691 6.00124C14.1366 5.99632 14.0052 6.02699 13.8887 6.09008C13.7721 6.15316 13.6745 6.24634 13.6062 6.35992C13.5378 6.47351 13.5011 6.60333 13.5 6.73589Z" stroke="black" stroke-width="1.5" stroke-linecap="round" stroke-linejoin="round"/>
</svg>
