<svg viewBox="0 0 24 24" fill="none" xmlns="http://www.w3.org/2000/svg" width="24" height="24">
<path d="M4.71 5.61C4.71 5.113 5.113 4.71 5.61 4.71H18.39C18.887 4.71 19.29 5.113 19.29 5.61V18.39C19.29 18.887 18.887 19.29 18.39 19.29H5.61C5.113 19.29 4.71 18.887 4.71 18.39V5.61Z" fill="black" fill-opacity="0.2"/>
<path d="M11.4 19.29V4.71C11.4 4.379 11.669 4.11 12 4.11 12.331 4.11 12.6 4.379 12.6 4.71V19.29C12.6 19.622 12.331 19.89 12 19.89 11.669 19.89 11.4 19.622 11.4 19.29Z" fill="black"/>
<path d="M18.69 7.95V5.31H5.31V7.95C5.31 8.282 5.041 8.55 4.71 8.55 4.379 8.55 4.11 8.282 4.11 7.95V4.71C4.11 4.379 4.379 4.11 4.71 4.11H19.29C19.622 4.11 19.89 4.379 19.89 4.71V7.95C19.89 8.281 19.622 8.55 19.29 8.55 18.959 8.55 18.691 8.282 18.69 7.95Z" fill="black"/>
<path d="M15.24 18.69C15.572 18.69 15.84 18.959 15.84 19.29 15.84 19.621 15.572 19.89 15.24 19.89H8.76C8.429 19.89 8.16 19.621 8.16 19.29 8.16 18.959 8.429 18.69 8.76 18.69H15.24Z" fill="black"/>
</svg>