<svg width="24" height="24" viewBox="0 0 24 24" fill="none" xmlns="http://www.w3.org/2000/svg">
<path d="M19.5 3H4.5C3.67157 3 3 3.67157 3 4.5V19.5C3 20.3284 3.67157 21 4.5 21H19.5C20.3284 21 21 20.3284 21 19.5V4.5C21 3.67157 20.3284 3 19.5 3Z" fill="black" fill-opacity="0.2"/>
<path d="M14.25 6V9.75H18M14.25 9.75L19.5 4.5M9.75 18V14.25H6M9.75 14.25L4.5 19.5M18 14.25H14.25V18M14.25 14.25L19.5 19.5M6 9.75H9.75V6M9.75 9.75L4.5 4.5" stroke="black" stroke-width="1.5" stroke-linecap="round" stroke-linejoin="round"/>
</svg>
