<svg xmlns="http://www.w3.org/2000/svg" width="24" height="24" fill="currentColor" viewBox="0 0 24 24"><path d="M22.53 14.43v2.43a0.81 0.81 0 0 1-0.81 0.81H2.28a0.81 0.81 0 0 1-0.81-0.81v-2.316c0-5.82 4.673-10.624 10.493-10.644a10.53 10.53 0 0 1 10.567 10.53" opacity=".2"/><path d="M20.005 6.398A11.28 11.28 0 0 0 12 3.09h-0.041C5.729 3.112 0.66 8.254 0.66 14.544v2.316A1.62 1.62 0 0 0 2.28 18.48h19.44a1.62 1.62 0 0 0 1.62-1.62v-2.43a11.28 11.28 0 0 0-3.335-8.032M21.72 16.86h-10.559l5.544-7.624a0.81 0.81 0 0 0-1.31-0.954L9.157 16.86H2.28v-2.316q0-0.468 0.043-0.924h2.387a0.81 0.81 0 0 0 0-1.62H2.611c1.045-3.935 4.456-6.91 8.579-7.255V7.14a0.81 0.81 0 0 0 1.62 0V4.744A9.732 9.732 0 0 1 21.416 12h-2.126a0.81 0.81 0 0 0 0 1.62h2.396q0.032 0.402 0.034 0.81z"/></svg>