<svg viewBox="0 0 24 24" fill="none" xmlns="http://www.w3.org/2000/svg" width="24" height="24">
<path d="M2.88 21.72C2.88 22.051 2.611 22.32 2.28 22.32 1.949 22.32 1.68 22.051 1.68 21.72L1.68 18.48C1.68 18.148 1.949 17.88 2.28 17.88 2.611 17.88 2.88 18.148 2.88 18.48L2.88 21.72Z" fill="black"/>
<path d="M7.74 20.099C7.74 20.431 7.471 20.699 7.14 20.699 6.809 20.699 6.54 20.431 6.54 20.099V18.48C6.54 18.148 6.809 17.88 7.14 17.88 7.471 17.88 7.74 18.148 7.74 18.48V20.099Z" fill="black"/>
<path d="M12.6 21.72C12.6 22.051 12.331 22.32 12 22.32 11.669 22.32 11.4 22.051 11.4 21.72V18.48C11.4 18.148 11.669 17.88 12 17.88 12.331 17.88 12.6 18.148 12.6 18.48V21.72Z" fill="black"/>
<path d="M17.46 20.099C17.46 20.431 17.191 20.699 16.86 20.699 16.529 20.699 16.26 20.431 16.26 20.099V18.48C16.26 18.148 16.529 17.88 16.86 17.88 17.191 17.88 17.46 18.148 17.46 18.48V20.099Z" fill="black"/>
<path d="M22.32 21.72C22.32 22.051 22.051 22.32 21.72 22.32 21.389 22.32 21.12 22.051 21.12 21.72V18.48C21.12 18.148 21.389 17.88 21.72 17.88 22.051 17.88 22.32 18.148 22.32 18.48V21.72Z" fill="black"/>
<path d="M21.12 8.826C21.12 8.661 20.986 8.527 20.82 8.526H3.18C3.014 8.526 2.88 8.661 2.88 8.826V15.186C2.88 15.352 3.014 15.486 3.18 15.486H20.82C20.986 15.486 21.12 15.352 21.12 15.186V8.826ZM22.32 15.186C22.32 16.015 21.648 16.686 20.82 16.686H3.18C2.351 16.686 1.68 16.015 1.68 15.186V8.826C1.68 7.998 2.351 7.326 3.18 7.326H20.82C21.648 7.327 22.32 7.998 22.32 8.826V15.186Z" fill="black"/>
<path d="M10.38 1.68C10.626 1.68 10.848 1.828 10.942 2.055 11.035 2.282 10.983 2.543 10.809 2.717L7.569 5.956C7.332 6.193 6.947 6.193 6.71 5.956L3.47 2.717C3.296 2.543 3.245 2.282 3.339 2.055 3.433 1.828 3.654 1.68 3.9 1.68H10.38ZM7.139 4.667L8.913 2.894H5.367L7.139 4.667Z" fill="black"/>
<path fill-rule="evenodd" clip-rule="evenodd" d="M20.82 8.526C20.986 8.527 21.12 8.661 21.12 8.826V15.186C21.12 15.352 20.986 15.486 20.82 15.486H3.18C3.014 15.486 2.88 15.352 2.88 15.186V8.826C2.88 8.661 3.014 8.526 3.18 8.526H20.82Z" fill="black" fill-opacity="0.2"/>
<path fill-rule="evenodd" clip-rule="evenodd" d="M8.913 2.894L7.139 4.667 5.367 2.894H8.913Z" fill="black" fill-opacity="0.2"/>
</svg>