<svg xmlns="http://www.w3.org/2000/svg" fill="currentColor" viewBox="0 0 24 24" width="24" height="24"><path d="M20.1 12A8.1 8.1 0 1 1 12 3.9 8.1 8.1 0 0 1 20.1 12" opacity=".2"/><path d="M22.53 11.19h-1.657a8.88 8.88 0 0 0-0.784-2.924l1.435-0.83a0.81 0.81 0 0 0-0.81-1.402l-1.437 0.83a9 9 0 0 0-2.141-2.141l0.83-1.437a0.81 0.81 0 0 0-1.402-0.81l-0.83 1.435a8.88 8.88 0 0 0-2.924-0.784V1.47a0.81 0.81 0 0 0-1.62 0v1.657a8.88 8.88 0 0 0-2.924 0.784l-0.83-1.435a0.81 0.81 0 0 0-1.402 0.81l0.83 1.437A9 9 0 0 0 4.723 6.864l-1.437-0.83a0.81 0.81 0 0 0-0.81 1.402l1.435 0.83a8.88 8.88 0 0 0-0.784 2.924H1.47a0.81 0.81 0 0 0 0 1.62h1.657a8.88 8.88 0 0 0 0.784 2.924l-1.435 0.83a0.81 0.81 0 0 0 0.404 1.512 0.804 0.804 0 0 0 0.404-0.108l1.438-0.831a9 9 0 0 0 2.141 2.141l-0.831 1.438a0.81 0.81 0 0 0 1.403 0.81l0.829-1.436a8.88 8.88 0 0 0 2.925 0.784v1.657a0.81 0.81 0 0 0 1.62 0v-1.657a8.88 8.88 0 0 0 2.924-0.784l0.829 1.436a0.81 0.81 0 0 0 1.403-0.81l-0.83-1.438a9 9 0 0 0 2.141-2.141l1.437 0.831a0.81 0.81 0 0 0 1.107-0.297 0.81 0.81 0 0 0-0.296-1.106l-1.435-0.829a8.88 8.88 0 0 0 0.783-2.925h1.657a0.81 0.81 0 0 0 0-1.62zM7.678 17.867a7.282 7.282 0 0 1 0-11.733l3.386 5.867zM12 19.29a7.2 7.2 0 0 1-2.92-0.607l3.388-5.873h6.775a7.296 7.296 0 0 1-7.243 6.48m0.468-8.1l-3.388-5.868a7.284 7.284 0 0 1 10.164 5.873z"/></svg>