<svg width="24" height="24" viewBox="0 0 24 24" fill="none" xmlns="http://www.w3.org/2000/svg">
<path fill-rule="evenodd" clip-rule="evenodd" d="M8.36377 12.1982C8.45899 12.2946 8.5793 12.3636 8.71045 12.3975C8.77321 12.4137 8.8361 12.4319 8.89893 12.4502C9.0293 12.4882 9.16795 12.4895 9.29932 12.4551L10.8892 12.0361C11.2159 12.2963 11.5089 12.5966 11.7622 12.9287L11.3462 14.5693C11.3148 14.6935 11.316 14.8245 11.3491 14.9482L11.4067 15.1631C11.4399 15.2865 11.5042 15.3996 11.5933 15.4912L12.7749 16.7031C12.7224 17.1177 12.6185 17.5239 12.4663 17.9131L10.8823 18.3428C10.7462 18.3798 10.6234 18.4548 10.5278 18.5586C10.4878 18.6021 10.449 18.6408 10.4116 18.6758C10.3085 18.7724 10.2345 18.8965 10.1987 19.0332L9.77393 20.6582C9.40414 20.8091 9.01724 20.9125 8.62158 20.9668L7.44287 19.7725C7.34761 19.676 7.22747 19.6071 7.09619 19.5732C7.03332 19.557 6.96968 19.5398 6.90674 19.5215C6.80897 19.493 6.70635 19.4839 6.60596 19.4961L6.50537 19.5166L4.91846 19.9336C4.59178 19.6737 4.2978 19.3747 4.04443 19.043L4.46045 17.4062C4.48414 17.3129 4.48888 17.2159 4.47607 17.1211L4.45654 17.0273L4.39893 16.8115C4.37401 16.719 4.33208 16.6318 4.2749 16.5557L4.21338 16.4834L3.03174 15.2666C3.08432 14.8527 3.18839 14.4471 3.34033 14.0586L4.92334 13.6299C5.02541 13.6021 5.1204 13.5528 5.20166 13.4863L5.27783 13.4131L5.39307 13.2959C5.47041 13.2234 5.53206 13.1361 5.57275 13.0391L5.60693 12.9385L6.03174 11.3115C6.40157 11.1607 6.78936 11.0572 7.18506 11.0029L8.36377 12.1982ZM10.2231 15.3643C9.87962 14.0828 8.56231 13.3218 7.28076 13.665C5.99944 14.0086 5.23846 15.326 5.58154 16.6074C5.92498 17.8891 7.24319 18.6501 8.5249 18.3066C9.80635 17.9631 10.5664 16.6458 10.2231 15.3643Z" fill="black" fill-opacity="0.2"/>
<path fill-rule="evenodd" clip-rule="evenodd" d="M17.5181 3.92676C17.6133 4.02327 17.7334 4.09207 17.8647 4.12598C17.913 4.13843 17.9617 4.15186 18.0103 4.16602C18.1409 4.20411 18.28 4.2065 18.4116 4.17188L19.5972 3.8584C19.804 4.02994 19.9927 4.22398 20.1597 4.43457L19.8481 5.66406C19.8168 5.78809 19.817 5.91841 19.8501 6.04199L19.896 6.21191L19.9263 6.30371C19.9625 6.39183 20.0157 6.47227 20.0825 6.54102L20.9673 7.45117C20.9285 7.71638 20.8636 7.977 20.771 8.22852L19.5884 8.54883C19.452 8.58588 19.3286 8.66167 19.2329 8.76562C19.2033 8.7978 19.1761 8.82602 19.1499 8.85059C19.0467 8.94729 18.9728 9.07119 18.937 9.20801L18.6196 10.4229C18.3835 10.5135 18.1389 10.5794 17.8892 10.6191L17.0063 9.72656C16.9349 9.65413 16.8499 9.59681 16.7563 9.55859L16.6606 9.52637C16.6123 9.51389 16.5628 9.50051 16.5142 9.48633C16.4161 9.45775 16.3131 9.44952 16.2124 9.46191L16.1138 9.48145L14.9282 9.79297C14.7213 9.62157 14.5328 9.42919 14.3657 9.21875L14.6772 7.99219C14.7008 7.89914 14.7075 7.80256 14.6948 7.70801L14.6753 7.61426L14.6294 7.44336C14.6046 7.35087 14.5624 7.26369 14.5054 7.1875L14.4419 7.11426L13.5581 6.20215C13.597 5.93673 13.6627 5.67552 13.7554 5.42383L14.936 5.10352C15.0723 5.06645 15.1958 4.99163 15.2915 4.8877C15.3212 4.85549 15.3483 4.82731 15.3745 4.80273C15.4519 4.73028 15.5135 4.64291 15.5542 4.5459L15.5874 4.44629L15.9067 3.22949C16.1429 3.13898 16.3875 3.07284 16.6372 3.0332L17.5181 3.92676ZM18.9526 6.37402C18.7025 5.44049 17.7426 4.88658 16.8091 5.13672C15.8756 5.38693 15.3216 6.34675 15.5718 7.28027C15.822 8.21367 16.7819 8.7677 17.7153 8.51758C18.6488 8.26735 19.2028 7.30753 18.9526 6.37402Z" fill="black" fill-opacity="0.2"/>
<path d="M16.2947 7.08626C16.4377 7.61972 16.986 7.9363 17.5195 7.79336C18.0529 7.65042 18.3695 7.10208 18.2266 6.56862C18.0836 6.03515 17.5353 5.71857 17.0018 5.86151C16.4684 6.00445 16.1518 6.55279 16.2947 7.08626Z" stroke="black" stroke-width="1.5" stroke-linecap="round" stroke-linejoin="round"/>
<path d="M13.949 7.80865C13.9337 7.75144 13.9183 7.69379 13.9033 7.63786L12.7727 6.47405C12.8092 5.8933 12.9549 5.32464 13.2023 4.79794L14.7381 4.38094C14.7778 4.33781 14.8183 4.29627 14.8608 4.25653L15.2711 2.68807C15.7846 2.43562 16.3424 2.28613 16.9133 2.24805L18.0504 3.40049C18.107 3.41508 18.1633 3.43065 18.2189 3.44687L19.7579 3.04182C20.2364 3.37361 20.6479 3.79281 20.9708 4.27737L20.5731 5.84841C20.5884 5.90562 20.6038 5.96327 20.6188 6.0192L21.7488 7.18087C21.7124 7.76163 21.5666 8.33029 21.3193 8.85699L19.7835 9.27399C19.7438 9.31712 19.7032 9.35866 19.6608 9.3984L19.2506 10.9659C18.7372 11.2183 18.1793 11.3678 17.6084 11.4059L16.4713 10.2535C16.4148 10.2389 16.3584 10.2233 16.3028 10.2071L14.7638 10.6121C14.2853 10.2807 13.8738 9.86179 13.5507 9.37755L13.949 7.80865Z" stroke="black" stroke-width="1.5" stroke-linecap="round" stroke-linejoin="round"/>
<path d="M6.305 16.4143C6.54123 17.2959 7.44742 17.8191 8.32904 17.5829C9.21065 17.3467 9.73384 16.4405 9.49761 15.5589C9.26138 14.6772 8.35519 14.1541 7.47358 14.3903C6.59196 14.6265 6.06877 15.5327 6.305 16.4143Z" stroke="black" stroke-width="1.5" stroke-linecap="round" stroke-linejoin="round"/>
<path d="M3.7314 17.2222C3.7121 17.1502 3.69265 17.0776 3.67378 17.0071L2.25024 15.5418C2.29614 14.8105 2.47965 14.0945 2.79112 13.4313L4.72486 12.9062C4.77485 12.8519 4.82595 12.7996 4.87939 12.7496L5.39608 10.7747C6.04255 10.4568 6.74501 10.2686 7.46381 10.2206L8.89561 11.6717C8.9668 11.6901 9.03774 11.7097 9.10775 11.7301L11.0455 11.2201C11.6481 11.6379 12.1662 12.1657 12.5728 12.7758L12.072 14.754C12.0913 14.826 12.1107 14.8986 12.1296 14.969L13.5524 16.4317C13.5065 17.163 13.323 17.879 13.0115 18.5422L11.0778 19.0673C11.0278 19.1216 10.9767 19.1739 10.9232 19.2239L10.4068 21.1976C9.76033 21.5155 9.05787 21.7037 8.33907 21.7516L6.90727 20.3006C6.83608 20.2822 6.76514 20.2626 6.69513 20.2422L4.75735 20.7522C4.15485 20.3348 3.6366 19.8074 3.22984 19.1977L3.7314 17.2222Z" stroke="black" stroke-width="1.5" stroke-linecap="round" stroke-linejoin="round"/>
</svg>
