<svg xmlns="http://www.w3.org/2000/svg" width="24" height="24" fill="currentColor" viewBox="0 0 24 24"><path d="M22.338 10.052l-3.224-1.837a9.6 9.6 0 0 0-0.203-0.345l-0.012-3.645a10.56 10.56 0 0 0-3.456-1.945l-3.24 1.811h-0.406L8.557 2.28a10.56 10.56 0 0 0-3.453 1.949L5.088 7.873a7.2 7.2 0 0 0-0.203 0.346l-3.224 1.832a10.08 10.08 0 0 0 0 3.894l3.224 1.837q0.098 0.175 0.203 0.346l0.012 3.644A10.56 10.56 0 0 0 8.557 21.72l3.24-1.81h0.406l3.24 1.81a10.56 10.56 0 0 0 3.451-1.949l0.017-3.644q0.107-0.172 0.203-0.346l3.223-1.832a10.08 10.08 0 0 0 0.002-3.897zM12 16.05A4.05 4.05 0 1 1 16.05 12 4.05 4.05 0 0 1 12 16.05" opacity=".2"/><path d="M12 7.14A4.86 4.86 0 1 0 16.86 12 4.865 4.865 0 0 0 12 7.14m0 8.1a3.24 3.24 0 1 1 3.24-3.24 3.24 3.24 0 0 1-3.24 3.24m11.131-5.345a0.816 0.816 0 0 0-0.393-0.547l-3.021-1.721-0.012-3.404a0.816 0.816 0 0 0-0.287-0.616 11.28 11.28 0 0 0-3.717-2.093 0.816 0.816 0 0 0-0.654 0.06L12 3.277 8.951 1.571a0.816 0.816 0 0 0-0.655-0.061 11.28 11.28 0 0 0-3.714 2.101 0.816 0.816 0 0 0-0.287 0.614L4.279 7.632 1.259 9.353a0.816 0.816 0 0 0-0.394 0.547 10.8 10.8 0 0 0 0 4.208 0.816 0.816 0 0 0 0.394 0.548l3.02 1.72 0.012 3.406a0.816 0.816 0 0 0 0.287 0.616 11.28 11.28 0 0 0 3.718 2.092 0.816 0.816 0 0 0 0.654-0.06l3.049-1.707 3.049 1.706a0.84 0.84 0 0 0 0.395 0.101 0.84 0.84 0 0 0 0.26-0.042 11.4 11.4 0 0 0 3.714-2.099 0.816 0.816 0 0 0 0.287-0.614l0.016-3.407 3.02-1.721a0.816 0.816 0 0 0 0.394-0.547 10.8 10.8 0 0 0-0.004-4.204z m-1.519 3.535l-2.893 1.646a0.84 0.84 0 0 0-0.304 0.303c-0.059 0.101-0.12 0.209-0.183 0.31a0.804 0.804 0 0 0-0.124 0.426l-0.016 3.265a9.72 9.72 0 0 1-2.569 1.448l-2.918-1.626a0.84 0.84 0 0 0-0.396-0.1h-0.388a0.84 0.84 0 0 0-0.415 0.1L8.486 20.832a9.72 9.72 0 0 1-2.576-1.441l-0.011-3.261a0.84 0.84 0 0 0-0.123-0.427 6 6 0 0 1-0.183-0.309 0.84 0.84 0 0 0-0.303-0.31l-2.896-1.649a9.12 9.12 0 0 1 0-2.861l2.887-1.648a0.84 0.84 0 0 0 0.304-0.304c0.059-0.101 0.12-0.209 0.183-0.31a0.804 0.804 0 0 0 0.124-0.426l0.016-3.265a9.72 9.72 0 0 1 2.569-1.448l2.913 1.626a0.84 0.84 0 0 0 0.416 0.101h0.368a0.84 0.84 0 0 0 0.415-0.101l2.92-1.63a9.72 9.72 0 0 1 2.576 1.441l0.011 3.261a0.84 0.84 0 0 0 0.124 0.427q0.095 0.15 0.182 0.31a0.84 0.84 0 0 0 0.304 0.309l2.895 1.649a9.12 9.12 0 0 1 0.005 2.864z"/></svg>