<svg width="24" height="24" viewBox="0 0 24 24" fill="none" xmlns="http://www.w3.org/2000/svg">
<path d="M12 19.5C16.1421 19.5 19.5 16.1421 19.5 12C19.5 7.85786 16.1421 4.5 12 4.5C7.85786 4.5 4.5 7.85786 4.5 12C4.5 16.1421 7.85786 19.5 12 19.5Z" fill="black" fill-opacity="0.2"/>
<path d="M12 19.5C16.1421 19.5 19.5 16.1421 19.5 12C19.5 7.85786 16.1421 4.5 12 4.5M12 19.5C7.85786 19.5 4.5 16.1421 4.5 12M12 19.5V21.75M4.5 12C4.5 7.85786 7.85786 4.5 12 4.5M4.5 12H2.25M12 4.5V2.25M12 12H21.75M12 12L7.125 3.55591M12 12L7.125 20.4441M5.50497 8.25L3.55591 7.125M5.50497 15.75L3.55591 16.875M15.75 18.4951L16.875 20.4442M18.4951 15.75L20.4442 16.875M18.4951 8.25L20.4442 7.125M15.75 5.50497L16.875 3.55591" stroke="black" stroke-width="1.5" stroke-linecap="round" stroke-linejoin="round"/>
</svg>
