<svg xmlns="http://www.w3.org/2000/svg" fill="currentColor" viewBox="0 0 24 24" width="24" height="24"><path d="M7.14 5.52a2.43 2.43 0 1 1-2.43-2.43A2.43 2.43 0 0 1 7.14 5.52m12.15 10.53A2.43 2.43 0 1 0 21.72 18.48a2.43 2.43 0 0 0-2.43-2.43" opacity=".2"/><path d="M10.38 14.43a0.81 0.81 0 0 0-0.81 0.81v2.905l-3.814-3.816a0.816 0.816 0 0 1-0.236-0.57v-5.1a3.24 3.24 0 1 0-1.62 0v5.101a2.4 2.4 0 0 0 0.709 1.721l3.816 3.809H5.52a0.81 0.81 0 0 0 0 1.62h4.86a0.81 0.81 0 0 0 0.81-0.81V15.24a0.81 0.81 0 0 0-0.81-0.81M3.09 5.52a1.62 1.62 0 1 1 1.62 1.62 1.62 1.62 0 0 1-1.62-1.62m17.01 9.821v-5.1a2.4 2.4 0 0 0-0.709-1.721l-3.816-3.81H18.48a0.81 0.81 0 0 0 0-1.62h-4.86a0.81 0.81 0 0 0-0.81 0.81V8.76a0.81 0.81 0 0 0 1.62 0V5.855l3.814 3.816a0.816 0.816 0 0 1 0.236 0.573v5.097a3.24 3.24 0 1 0 1.62 0m-0.81 4.759a1.62 1.62 0 1 1 1.62-1.62 1.62 1.62 0 0 1-1.62 1.62"/></svg>