<svg width="24" height="24" viewBox="0 0 24 24" fill="none" xmlns="http://www.w3.org/2000/svg">
<path d="M7.5 7.5C8.74264 7.5 9.75 6.49264 9.75 5.25C9.75 4.00736 8.74264 3 7.5 3C6.25736 3 5.25 4.00736 5.25 5.25C5.25 6.49264 6.25736 7.5 7.5 7.5Z" fill="black" fill-opacity="0.2"/>
<path d="M7.5 16.5C6.25736 16.5 5.25 17.5074 5.25 18.75C5.25 19.9926 6.25736 21 7.5 21C8.74264 21 9.75 19.9926 9.75 18.75C9.75 17.5074 8.74264 16.5 7.5 16.5ZM7.5 16.5V7.5M7.5 7.5C8.74264 7.5 9.75 6.49264 9.75 5.25C9.75 4.00736 8.74264 3 7.5 3C6.25736 3 5.25 4.00736 5.25 5.25C5.25 6.49264 6.25736 7.5 7.5 7.5ZM7.5 7.5L11.6363 12.3216C11.8732 12.5977 12.2023 12.7782 12.5625 12.8297L17.25 13.5M17.25 13.5C17.25 14.7426 18.2574 15.75 19.5 15.75C20.7426 15.75 21.75 14.7426 21.75 13.5C21.75 12.2574 20.7426 11.25 19.5 11.25C18.2574 11.25 17.25 12.2574 17.25 13.5Z" stroke="black" stroke-width="1.5" stroke-linecap="round" stroke-linejoin="round"/>
</svg>
