<svg viewBox="0 0 24 24" fill="none" xmlns="http://www.w3.org/2000/svg" width="128" height="128">
<path d="M21.12 12C21.12 10.196 20.585 8.433 19.583 6.934 18.58 5.434 17.157 4.264 15.49 3.574 13.824 2.884 11.99 2.704 10.22 3.056 8.451 3.408 6.826 4.275 5.551 5.551 4.275 6.826 3.408 8.452 3.056 10.221 2.704 11.99 2.883 13.824 3.574 15.491 4.264 17.157 5.434 18.581 6.933 19.583 8.433 20.585 10.196 21.12 11.999 21.12 12.331 21.12 12.599 21.389 12.599 21.72 12.599 22.052 12.331 22.32 11.999 22.32 9.959 22.32 7.963 21.715 6.267 20.581 4.569 19.447 3.246 17.835 2.465 15.949 1.684 14.063 1.48 11.988 1.878 9.986 2.276 7.985 3.259 6.146 4.702 4.702 6.145 3.259 7.984 2.276 9.986 1.878 11.988 1.48 14.063 1.684 15.949 2.465 17.834 3.246 19.447 4.57 20.581 6.267 21.715 7.964 22.32 9.959 22.32 12 22.32 12.331 22.051 12.6 21.72 12.6 21.389 12.6 21.12 12.331 21.12 12Z" fill="black"/>
<path d="M15.45 12C15.45 8.891 14.48 6.57 13.516 5.028 13.034 4.256 12.552 3.68 12.195 3.299 12.124 3.224 12.059 3.157 12 3.097 11.94 3.157 11.875 3.224 11.805 3.299 11.448 3.68 10.966 4.256 10.484 5.028 9.52 6.57 8.55 8.891 8.55 12 8.55 15.108 9.52 17.43 10.484 18.972 10.966 19.745 11.448 20.321 11.805 20.702 11.984 20.892 12.131 21.033 12.231 21.125 12.281 21.171 12.32 21.205 12.345 21.226 12.357 21.236 12.365 21.244 12.37 21.248 12.372 21.25 12.374 21.251 12.375 21.252 12.634 21.459 12.676 21.837 12.469 22.095 12.262 22.354 11.884 22.396 11.625 22.189L12 21.72C11.659 22.147 11.628 22.186 11.625 22.189L11.619 22.183C11.616 22.181 11.611 22.177 11.606 22.173 11.596 22.164 11.582 22.153 11.565 22.139 11.531 22.109 11.482 22.067 11.421 22.011 11.3 21.9 11.13 21.738 10.929 21.524 10.527 21.095 9.996 20.456 9.466 19.609 8.405 17.911 7.35 15.371 7.35 12 7.35 8.629 8.405 6.09 9.466 4.392 9.996 3.544 10.527 2.906 10.929 2.477 11.13 2.263 11.3 2.1 11.421 1.99 11.482 1.934 11.531 1.891 11.565 1.862 11.583 1.847 11.596 1.835 11.606 1.827 11.611 1.823 11.616 1.82 11.619 1.817L11.624 1.813C11.624 1.812 11.625 1.812 12 2.28L11.625 1.811C11.844 1.636 12.156 1.636 12.375 1.811L12 2.28C12.337 1.859 12.371 1.816 12.375 1.811L12.381 1.817C12.384 1.82 12.389 1.823 12.394 1.827 12.404 1.835 12.417 1.847 12.435 1.862 12.469 1.891 12.518 1.934 12.579 1.99 12.7 2.1 12.87 2.263 13.071 2.477 13.473 2.906 14.004 3.544 14.534 4.392 15.595 6.09 16.65 8.629 16.65 12 16.65 12.331 16.381 12.6 16.05 12.6 15.719 12.6 15.45 12.331 15.45 12Z" fill="black"/>
<path d="M21.167 8.16C21.498 8.16 21.767 8.429 21.767 8.76 21.767 9.092 21.498 9.36 21.167 9.36H2.833C2.501 9.36 2.233 9.092 2.233 8.76 2.233 8.429 2.501 8.16 2.833 8.16H21.167Z" fill="black"/>
<path d="M12 14.64C12.332 14.64 12.6 14.909 12.6 15.24 12.6 15.571 12.332 15.84 12 15.84H2.833C2.501 15.84 2.233 15.572 2.233 15.24 2.233 14.909 2.501 14.64 2.833 14.64H12Z" fill="black"/>
<path d="M17.494 15.798C17.839 15.798 18.182 15.866 18.501 15.999 18.82 16.131 19.11 16.324 19.355 16.568L19.534 16.767C19.703 16.975 19.841 17.207 19.941 17.457 20.073 17.789 20.136 18.147 20.126 18.505 20.116 18.836 19.84 19.097 19.509 19.088 19.178 19.078 18.917 18.801 18.927 18.47 18.933 18.276 18.898 18.081 18.826 17.901 18.754 17.72 18.645 17.556 18.507 17.419L18.506 17.418C18.373 17.285 18.216 17.179 18.042 17.107 17.868 17.035 17.682 16.998 17.494 16.998 17.306 16.998 17.12 17.035 16.946 17.107 16.816 17.161 16.694 17.234 16.585 17.323L16.481 17.418 14.968 18.931C14.7 19.199 14.549 19.563 14.549 19.942 14.548 20.321 14.699 20.686 14.966 20.955 15.099 21.088 15.257 21.194 15.431 21.266 15.605 21.338 15.791 21.376 15.98 21.376 16.168 21.377 16.354 21.339 16.528 21.267 16.702 21.195 16.86 21.089 16.993 20.956L17.473 20.476C17.707 20.242 18.087 20.243 18.321 20.476 18.555 20.711 18.555 21.09 18.321 21.325L17.842 21.805 17.841 21.804C17.596 22.049 17.307 22.244 16.987 22.376 16.668 22.508 16.324 22.577 15.978 22.576 15.633 22.576 15.29 22.508 14.971 22.375 14.651 22.242 14.361 22.047 14.116 21.802 13.624 21.308 13.348 20.638 13.349 19.941 13.35 19.244 13.627 18.575 14.12 18.082L15.633 16.569C15.877 16.325 16.168 16.131 16.487 15.999 16.806 15.867 17.148 15.798 17.494 15.798ZM20.979 13.709C21.324 13.709 21.667 13.777 21.987 13.909 22.306 14.041 22.596 14.236 22.84 14.48 23.084 14.724 23.278 15.015 23.41 15.334 23.543 15.653 23.611 15.995 23.611 16.341 23.611 16.686 23.543 17.029 23.41 17.349 23.278 17.668 23.084 17.958 22.84 18.202L21.327 19.716 21.326 19.715C21.081 19.959 20.792 20.154 20.473 20.287 20.153 20.419 19.81 20.487 19.464 20.487 19.118 20.487 18.775 20.418 18.456 20.285 18.136 20.153 17.846 19.957 17.601 19.712 17.349 19.46 17.15 19.157 17.018 18.825 16.886 18.493 16.824 18.137 16.834 17.78 16.844 17.449 17.12 17.188 17.451 17.197 17.783 17.207 18.044 17.484 18.034 17.815 18.028 18.009 18.062 18.202 18.134 18.382 18.205 18.563 18.313 18.728 18.45 18.865 18.583 18.998 18.743 19.104 18.916 19.177 19.09 19.249 19.277 19.287 19.465 19.287 19.653 19.287 19.839 19.25 20.013 19.178 20.187 19.106 20.345 18.999 20.478 18.866L20.93 18.416 21.991 17.353C22.124 17.22 22.23 17.063 22.302 16.889 22.374 16.716 22.411 16.529 22.411 16.341 22.411 16.153 22.374 15.966 22.302 15.792 22.248 15.662 22.175 15.541 22.086 15.433L21.991 15.328C21.858 15.195 21.701 15.09 21.527 15.018 21.354 14.946 21.167 14.909 20.979 14.909 20.791 14.909 20.604 14.946 20.43 15.018 20.3 15.072 20.179 15.144 20.071 15.233L19.966 15.328 19.487 15.808C19.253 16.042 18.873 16.042 18.639 15.808 18.404 15.573 18.404 15.194 18.639 14.959L19.118 14.48C19.362 14.235 19.653 14.041 19.972 13.909 20.291 13.777 20.633 13.709 20.979 13.709Z" fill="black"/>
<path d="M21.72 12C21.72 17.368 17.368 21.72 12 21.72 6.632 21.72 2.28 17.368 2.28 12 2.28 6.632 6.632 2.28 12 2.28 17.368 2.28 21.72 6.632 21.72 12Z" fill="black" fill-opacity="0.2"/>
</svg>