<svg width="24" height="24" viewBox="0 0 24 24" fill="none" xmlns="http://www.w3.org/2000/svg">
<circle cx="12" cy="12" r="9" fill="black" fill-opacity="0.2"/>
<path fill-rule="evenodd" clip-rule="evenodd" d="M12.0001 21.7501C10.0717 21.7501 8.18649 21.1779 6.58311 20.1066C4.97995 19.0353 3.73021 17.513 2.99229 15.7316C2.93442 15.5919 2.88134 15.4505 2.83018 15.3087C2.81766 15.2811 2.80905 15.2521 2.79991 15.2228C2.22472 13.5805 2.09685 11.8109 2.4376 10.0978C2.52765 9.64518 2.65018 9.20167 2.80186 8.76968C2.80956 8.74588 2.81633 8.72206 2.82627 8.69937C3.31029 7.35379 4.08608 6.12511 5.10557 5.10562C6.46908 3.74211 8.20654 2.81388 10.0978 2.43765C10.7195 2.31398 11.3487 2.25362 11.9767 2.2521C11.993 2.25159 12.0092 2.25252 12.0255 2.25308C13.2913 2.25635 14.5508 2.50326 15.7315 2.99233C17.5129 3.73025 19.0353 4.98 20.1065 6.58315C20.5468 7.24208 20.9015 7.9491 21.1681 8.68667C21.1829 8.71869 21.194 8.75202 21.2042 8.78628C21.5631 9.81406 21.7501 10.9 21.7501 12.0001C21.7501 12.4144 21.4143 12.7501 21.0001 12.7501C20.5859 12.7501 20.2501 12.4144 20.2501 12.0001C20.2501 11.2347 20.1424 10.4776 19.9356 9.74917H16.3253C16.4361 10.4496 16.5001 11.2 16.5001 12.0001C16.5001 12.4144 16.1643 12.7501 15.7501 12.7501C15.3359 12.7501 15.0001 12.4144 15.0001 12.0001C15.0001 11.191 14.9261 10.441 14.8028 9.74917H9.19737C9.07412 10.441 9.0001 11.191 9.0001 12.0001C9.0001 12.8088 9.07327 13.5586 9.19639 14.2501H12.0001C12.4142 14.2502 12.7501 14.586 12.7501 15.0001C12.7501 15.4143 12.4142 15.7501 12.0001 15.7501H9.56358C9.89288 16.7923 10.3276 17.6595 10.7608 18.3527C11.2 19.0554 11.6375 19.5799 11.961 19.925C12.1225 20.0972 12.2554 20.224 12.3448 20.3058C12.3895 20.3466 12.4232 20.3766 12.4444 20.3947C12.455 20.4037 12.4629 20.4099 12.4669 20.4132L12.4679 20.4142C12.5176 20.454 12.559 20.5004 12.5958 20.549C12.6124 20.5709 12.6275 20.5936 12.6417 20.6173C12.6525 20.6354 12.6628 20.6533 12.672 20.672C12.684 20.6965 12.6949 20.7213 12.7042 20.7472C12.712 20.769 12.718 20.7913 12.7237 20.8136C12.7391 20.8735 12.7501 20.9355 12.7501 21.0001C12.7501 21.0616 12.7406 21.1207 12.7267 21.1779C12.7212 21.2003 12.7147 21.2223 12.7071 21.2443C12.6981 21.2703 12.6885 21.2958 12.6769 21.3205C12.6524 21.3721 12.6232 21.4224 12.586 21.4689C12.5446 21.5207 12.4964 21.564 12.4454 21.6017C12.4281 21.6146 12.4102 21.6265 12.3917 21.6378C12.3694 21.6515 12.3467 21.6638 12.3233 21.675C12.3014 21.6855 12.279 21.6949 12.256 21.7033C12.2325 21.7118 12.2088 21.7186 12.1847 21.7248C12.1568 21.7318 12.1288 21.7395 12.0997 21.7433C12.0915 21.7444 12.0835 21.7464 12.0753 21.7472C12.0506 21.7497 12.0255 21.7501 12.0001 21.7501ZM8.0001 8.24917C8.38155 6.87427 8.93391 5.7414 9.48936 4.85269C9.693 4.52688 9.897 4.23397 10.0929 3.97378C8.60824 4.32656 7.24792 5.08436 6.16612 6.16616C5.55227 6.78001 5.04394 7.48417 4.65342 8.24917H8.0001ZM19.3468 8.24917C19.201 7.96366 19.0388 7.68557 18.8595 7.41714C17.953 6.06045 16.6648 5.0025 15.1573 4.37808C14.7507 4.20965 14.3328 4.07571 13.9083 3.97476C14.1039 4.23467 14.3075 4.52733 14.5108 4.85269C15.0663 5.7414 15.6187 6.87427 16.0001 8.24917H19.3468ZM14.4356 8.24917C14.1064 7.20754 13.6724 6.34054 13.2394 5.64761C12.8002 4.94489 12.3627 4.4204 12.0392 4.07534C12.026 4.06131 12.0129 4.04776 12.0001 4.03433C11.9873 4.04776 11.9742 4.06131 11.961 4.07534C11.6375 4.4204 11.2 4.94489 10.7608 5.64761C10.3278 6.34054 9.89381 7.20754 9.56455 8.24917H14.4356ZM7.67491 14.2501C7.56417 13.5499 7.5001 12.8 7.5001 12.0001C7.5001 11.2 7.56407 10.4496 7.67491 9.74917H4.06358C4.00367 9.96042 3.95136 10.1743 3.9083 10.3908C3.65273 11.6758 3.70865 12.9983 4.06358 14.2501H7.67491ZM10.0929 20.0255C9.89714 19.7655 9.69283 19.4732 9.48936 19.1476C8.93376 18.2586 8.38058 17.1256 7.99913 15.7501H4.65245C5.29172 17.0025 6.24199 18.0743 7.41709 18.8595C8.23683 19.4072 9.14369 19.7998 10.0929 20.0255Z" fill="black"/>
<path d="M15.5851 16.5822C15.8777 16.2895 16.3526 16.2888 16.6456 16.5812C16.9383 16.8739 16.939 17.3497 16.6466 17.6427L15.5948 18.6945C15.4214 18.8708 15.3253 19.1093 15.3263 19.3566C15.3274 19.6037 15.426 19.841 15.6007 20.0158C15.7755 20.1904 16.0128 20.2892 16.2599 20.2902C16.507 20.2911 16.7448 20.194 16.921 20.0207L17.9718 18.9689C18.2645 18.6759 18.7393 18.6754 19.0323 18.9679C19.3249 19.2605 19.3256 19.7355 19.0333 20.0285L17.9777 21.0851L17.9738 21.09C17.5155 21.5408 16.8968 21.7927 16.254 21.7902C15.6112 21.7876 14.9948 21.5307 14.5402 21.0763C14.0856 20.6218 13.829 20.0053 13.8263 19.3625C13.8237 18.7196 14.0756 18.102 14.5265 17.6437L14.5304 17.6398L15.5851 16.5822Z" fill="black"/>
<path d="M18.5343 16.0197C18.8272 15.7268 19.302 15.7268 19.5948 16.0197C19.8874 16.3126 19.8876 16.7875 19.5948 17.0802L17.3448 19.3302C17.0521 19.6229 16.5772 19.6227 16.2843 19.3302C15.9914 19.0374 15.9915 18.5626 16.2843 18.2697L18.5343 16.0197Z" fill="black"/>
<path d="M19.6271 13.5617C20.27 13.5644 20.8863 13.8209 21.3409 14.2756C21.7954 14.7302 22.0522 15.3466 22.0548 15.9894C22.0573 16.6322 21.8054 17.2509 21.3546 17.7092L21.3497 17.7131L20.2931 18.7687C20 19.0609 19.5251 19.0604 19.2325 18.7677C18.94 18.4747 18.9407 17.9999 19.2335 17.7072L20.2853 16.6554C20.4583 16.4793 20.5557 16.2422 20.5548 15.9953C20.5538 15.7482 20.455 15.5109 20.2804 15.3361C20.1056 15.1613 19.8684 15.0628 19.6212 15.0617C19.3739 15.0607 19.1364 15.1578 18.9601 15.3312L17.9073 16.382C17.6143 16.6744 17.1384 16.6738 16.8458 16.381C16.5535 16.088 16.5542 15.6131 16.8468 15.3205L17.9044 14.2658L17.9083 14.2619C18.3666 13.811 18.9842 13.5591 19.6271 13.5617Z" fill="black"/>
</svg>
