<svg width="24" height="24" viewBox="0 0 24 24" fill="none" xmlns="http://www.w3.org/2000/svg">
<path d="M12 20.25C16.5563 20.25 20.25 16.5563 20.25 12C20.25 7.44365 16.5563 3.75 12 3.75C7.44365 3.75 3.75 7.44365 3.75 12C3.75 16.5563 7.44365 20.25 12 20.25Z" fill="black" fill-opacity="0.2"/>
<path d="M12 11.9999H20.25C20.2498 13.9425 19.5641 15.8227 18.3137 17.3093C17.0634 18.796 15.3285 19.7937 13.4147 20.1268C11.5009 20.4599 9.53093 20.107 7.85178 19.1303C6.17264 18.1535 4.89201 16.6156 4.23547 14.7873C3.57893 12.9591 3.58859 10.9578 4.26274 9.13594C4.93689 7.3141 6.2323 5.78859 7.9208 4.82808C9.60929 3.86758 11.5826 3.53371 13.4931 3.88527C15.4036 4.23683 17.1287 5.25127 18.3647 6.74992" stroke="black" stroke-width="1.5" stroke-linecap="round" stroke-linejoin="round"/>
</svg>
