<svg xmlns="http://www.w3.org/2000/svg" fill="currentColor" viewBox="0 0 24 24" width="24" height="24"><path d="M14.43 12A2.43 2.43 0 1 1 12 9.57 2.43 2.43 0 0 1 14.43 12" opacity=".2"/><path d="M19.29 14.43a3.24 3.24 0 0 0-1.978 0.677l-2.34-1.823A3.24 3.24 0 0 0 15.24 12q0.002-0.113-0.008-0.223l1.339-0.447a3.24 3.24 0 1 0-0.522-1.759q-0.002 0.113 0.008 0.223l-1.339 0.447A3.24 3.24 0 0 0 12 8.76a3.6 3.6 0 0 0-0.534 0.044l-0.692-1.563a3.24 3.24 0 1 0-2.014 0.709 3.6 3.6 0 0 0 0.534-0.044l0.692 1.558a3.228 3.228 0 0 0-0.867 4.014L6.516 15.791a3.246 3.246 0 1 0 1.076 1.215l2.603-2.312a3.228 3.228 0 0 0 3.783-0.126l2.34 1.823a3.24 3.24 0 0 0-0.268 1.279 3.24 3.24 0 1 0 3.24-3.24m0-6.48a1.62 1.62 0 1 1-1.62 1.62 1.62 1.62 0 0 1 1.62-1.62M7.14 4.71a1.62 1.62 0 1 1 1.62 1.62 1.62 1.62 0 0 1-1.62-1.62M4.71 20.1a1.62 1.62 0 1 1 1.62-1.62 1.62 1.62 0 0 1-1.62 1.62M10.38 12A1.62 1.62 0 1 1 12 13.62 1.62 1.62 0 0 1 10.38 12m8.91 7.29a1.62 1.62 0 1 1 1.62-1.62 1.62 1.62 0 0 1-1.62 1.62"/></svg>