<svg xmlns="http://www.w3.org/2000/svg" width="24" height="24" fill="currentColor" viewBox="0 0 24 24"><path d="M20.1 4.71v14.58a0.81 0.81 0 0 1-0.81 0.81H4.71a0.81 0.81 0 0 1-0.81-0.81V4.71a0.81 0.81 0 0 1 0.81-0.81h14.58a0.81 0.81 0 0 1 0.81 0.81" opacity=".2"/><path d="M19.29 3.09H4.71a1.62 1.62 0 0 0-1.62 1.62v14.58a1.62 1.62 0 0 0 1.62 1.62h14.58a1.62 1.62 0 0 0 1.62-1.62V4.71a1.62 1.62 0 0 0-1.62-1.62m0 8.1h-6.48v-6.48h6.48z m-8.1-6.48v6.48h-6.48v-6.48z m-6.48 8.1h6.48v6.48h-6.48z m14.58 6.48h-6.48v-6.48h6.48z"/></svg>