<svg viewBox="0 0 24 24" fill="none" xmlns="http://www.w3.org/2000/svg" width="24" height="24">
<path d="M20.998 7.198C21.329 7.198 21.598 7.466 21.598 7.798 21.598 8.129 21.329 8.398 20.998 8.398H6.598C6.266 8.398 5.998 8.129 5.998 7.798 5.998 7.466 6.266 7.198 6.598 7.198H20.998Z" fill="black"/>
<path d="M20.998 4.798C21.329 4.798 21.598 5.066 21.598 5.398 21.598 5.729 21.329 5.998 20.998 5.998H6.598C6.266 5.998 5.998 5.729 5.998 5.398 5.998 5.066 6.266 4.798 6.598 4.798H20.998Z" fill="black"/>
<path d="M20.998 18.002C21.329 18.002 21.598 18.271 21.598 18.602 21.598 18.934 21.329 19.202 20.998 19.202H6.598C6.266 19.202 5.998 18.934 5.998 18.602 5.998 18.271 6.266 18.002 6.598 18.002H20.998Z" fill="black"/>
<path d="M20.993 15.602C21.324 15.602 21.593 15.871 21.593 16.202 21.593 16.534 21.324 16.802 20.993 16.802H6.593C6.262 16.802 5.993 16.534 5.993 16.202 5.993 15.871 6.262 15.602 6.593 15.602H20.993Z" fill="black"/>
<path d="M2.398 13.798C2.398 13.466 2.667 13.198 2.998 13.198 3.33 13.198 3.598 13.466 3.598 13.798L3.598 21.002C3.598 21.334 3.33 21.602 2.998 21.602 2.667 21.602 2.398 21.334 2.398 21.002L2.398 13.798Z" fill="black"/>
<path d="M2.398 2.998C2.398 2.666 2.667 2.398 2.998 2.398 3.33 2.398 3.598 2.666 3.598 2.998L3.598 10.202C3.598 10.534 3.33 10.802 2.998 10.802 2.667 10.802 2.398 10.534 2.398 10.202L2.398 2.998Z" fill="black"/>
<path d="M6.599 5.7C6.599 5.203 7.002 4.8 7.499 4.8H20.102C20.599 4.8 21.002 5.203 21.002 5.7V18.3C21.002 18.797 20.599 19.2 20.102 19.2H7.499C7.002 19.2 6.599 18.797 6.599 18.3V5.7Z" fill="black" fill-opacity="0.2"/>
</svg>