<svg xmlns="http://www.w3.org/2000/svg" width="24" height="24" fill="currentColor" viewBox="0 0 24 24"><path d="M16.86 7.14v9.72h-9.72v-9.72z" opacity=".2"/><path d="M9.57 3.09a0.81 0.81 0 0 1 0.81-0.81h3.24a0.81 0.81 0 0 1 0 1.62h-3.24a0.81 0.81 0 0 1-0.81-0.81M13.62 20.1h-3.24a0.81 0.81 0 0 0 0 1.62h3.24a0.81 0.81 0 0 0 0-1.62m6.48-17.82h-2.43a0.81 0.81 0 0 0 0 1.62h2.43v2.43a0.81 0.81 0 0 0 1.62 0V3.9a1.62 1.62 0 0 0-1.62-1.62m0.81 7.29a0.81 0.81 0 0 0-0.81 0.81v3.24a0.81 0.81 0 0 0 1.62 0v-3.24a0.81 0.81 0 0 0-0.81-0.81m0 7.29a0.81 0.81 0 0 0-0.81 0.81v2.43h-2.43a0.81 0.81 0 0 0 0 1.62h2.43a1.62 1.62 0 0 0 1.62-1.62v-2.43a0.81 0.81 0 0 0-0.81-0.81m-17.82-2.43a0.81 0.81 0 0 0 0.81-0.81v-3.24a0.81 0.81 0 0 0-1.62 0v3.24a0.81 0.81 0 0 0 0.81 0.81m3.24 5.67H3.9v-2.43a0.81 0.81 0 0 0-1.62 0v2.43a1.62 1.62 0 0 0 1.62 1.62h2.43a0.81 0.81 0 0 0 0-1.62m-3.24-12.96a0.81 0.81 0 0 0 0.81-0.81V3.9h2.43a0.81 0.81 0 0 0 0-1.62H3.9A1.62 1.62 0 0 0 2.28 3.9v2.43a0.81 0.81 0 0 0 0.81 0.81m13.77 10.53h-9.72a0.81 0.81 0 0 1-0.81-0.81v-9.72a0.81 0.81 0 0 1 0.81-0.81h9.72a0.81 0.81 0 0 1 0.81 0.81v9.72a0.81 0.81 0 0 1-0.81 0.81m-0.81-9.72h-8.1v8.1h8.1z"/></svg>