<svg width="24" height="24" viewBox="0 0 24 24" fill="none" xmlns="http://www.w3.org/2000/svg">
<path d="M7.49976 6.74609C7.49976 6.33188 7.83554 5.99609 8.24976 5.99609H18.7498C19.164 5.99609 19.4998 6.33188 19.4998 6.74609V17.2461C19.4998 17.6603 19.164 17.9961 18.7498 17.9961H8.24976C7.83554 17.9961 7.49976 17.6603 7.49976 17.2461V6.74609Z" fill="black" fill-opacity="0.2"/>
<path d="M19.4971 10.9922C19.7732 10.9922 19.9971 11.216 19.9971 11.4922C19.9971 11.7683 19.7732 11.9922 19.4971 11.9922H7.49707C7.22093 11.9922 6.99707 11.7683 6.99707 11.4922C6.99707 11.216 7.22093 10.9922 7.49707 10.9922H19.4971Z" fill="black"/>
<path d="M19.4998 5.99609C19.7759 5.99609 19.9998 6.21995 19.9998 6.49609C19.9998 6.77224 19.7759 6.99609 19.4998 6.99609H7.49976C7.22361 6.99609 6.99976 6.77224 6.99976 6.49609C6.99976 6.21995 7.22361 5.99609 7.49976 5.99609H19.4998Z" fill="black"/>
<path d="M18.9963 15.9961C19.5486 15.9961 19.9963 16.4438 19.9963 16.9961C19.9963 17.5484 19.5486 17.9961 18.9963 17.9961H7.99634C7.44405 17.9961 6.99634 17.5484 6.99634 16.9961C6.99634 16.4438 7.44405 15.9961 7.99634 15.9961H18.9963Z" fill="black"/>
<path d="M4.00024 4.5C4.00024 4.22386 4.2241 4 4.50024 4C4.77639 4 5.00024 4.22386 5.00024 4.5L5.00024 19.5C5.00024 19.7761 4.77639 20 4.50024 20C4.2241 20 4.00024 19.7761 4.00024 19.5L4.00024 4.5Z" fill="black"/>
</svg>
