<svg width="24" height="24" viewBox="0 0 24 24" fill="none" xmlns="http://www.w3.org/2000/svg">
<path d="M19.4688 6.81201H7.46875V18.812H19.4688V6.81201Z" fill="black" fill-opacity="0.2"/>
<path d="M7.50001 17.7461C7.50001 17.3318 7.8358 16.9961 8.25001 16.9961H18.75C19.1642 16.9961 19.5 17.3318 19.5 17.7461C19.5 18.1603 19.1642 18.4961 18.75 18.4961H8.25001C7.8358 18.4961 7.50001 18.1603 7.50001 17.7461Z" fill="black"/>
<path d="M4.50006 20L4.50001 4.00001M7.50001 7.00001L19.5 6.99996M7.50001 12L19.5 12M7.50001 17.7461C7.50001 17.3318 7.8358 16.9961 8.25001 16.9961H18.75C19.1642 16.9961 19.5 17.3318 19.5 17.7461C19.5 18.1603 19.1642 18.4961 18.75 18.4961H8.25001C7.8358 18.4961 7.50001 18.1603 7.50001 17.7461Z" stroke="black" stroke-width="1.5" stroke-linecap="round"/>
</svg>
