<svg viewBox="0 0 24 24" fill="none" xmlns="http://www.w3.org/2000/svg" width="24" height="24">
<path d="M6.6 5.695C6.6 5.198 7.003 4.795 7.5 4.795H20.1C20.597 4.795 21 5.198 21 5.695V18.295C21 18.792 20.597 19.195 20.1 19.195H7.5C7.003 19.195 6.6 18.792 6.6 18.295V5.695Z" fill="black" fill-opacity="0.2"/>
<path d="M20.997 10.791C21.328 10.791 21.597 11.059 21.597 11.391 21.597 11.722 21.328 11.991 20.997 11.991H6.596C6.265 11.991 5.996 11.722 5.996 11.391 5.996 11.059 6.265 10.791 6.596 10.791H20.997Z" fill="black"/>
<path d="M21 4.795C21.331 4.795 21.6 5.064 21.6 5.395 21.6 5.727 21.331 5.995 21 5.995H6.6C6.268 5.995 6 5.727 6 5.395 6 5.064 6.268 4.795 6.6 4.795H21Z" fill="black"/>
<path d="M20.396 16.795C21.058 16.795 21.596 17.333 21.596 17.995 21.596 18.658 21.058 19.195 20.396 19.195H7.196C6.533 19.195 5.996 18.658 5.996 17.995 5.996 17.333 6.533 16.795 7.196 16.795H20.396Z" fill="black"/>
<path d="M2.4 3C2.4 2.669 2.669 2.4 3 2.4 3.332 2.4 3.6 2.669 3.6 3L3.6 21C3.6 21.331 3.332 21.6 3 21.6 2.669 21.6 2.4 21.331 2.4 21L2.4 3Z" fill="black"/>
</svg>