<svg width="24" height="24" viewBox="0 0 24 24" fill="none" xmlns="http://www.w3.org/2000/svg">
<path d="M3.75 5.25H21C21.3978 5.25 21.7794 5.40804 22.0607 5.68934C22.342 5.97064 22.5 6.35218 22.5 6.75V19.5H5.25C4.85218 19.5 4.47064 19.342 4.18934 19.0607C3.90804 18.7794 3.75 18.3978 3.75 18V5.25Z" fill="black" fill-opacity="0.2"/>
<path d="M22.5 19.4999H18L22.0472 14.1037C22.2423 13.8445 22.379 13.5462 22.448 13.2293C22.517 12.9123 22.5167 12.5842 22.447 12.2674C22.3774 11.9505 22.24 11.6525 22.0444 11.3938C21.8488 11.135 21.5996 10.9216 21.3138 10.7682C21.028 10.6147 20.7124 10.5249 20.3886 10.5049C20.0648 10.4848 19.7406 10.535 19.438 10.652C19.1355 10.769 18.8618 10.95 18.6358 11.1827C18.4097 11.4153 18.2367 11.6941 18.1284 11.9999M3.75 5.25V16.5M13.5 10.875H3.75M13.5 5.25V16.5" stroke="black" stroke-width="1.5" stroke-linecap="round" stroke-linejoin="round"/>
</svg>
