<svg xmlns="http://www.w3.org/2000/svg" width="24" height="24" fill="currentColor" viewBox="0 0 24 24"><path d="M23.34 6.33V18.48a1.62 1.62 0 0 1-1.62 1.62H4.71a1.62 1.62 0 0 1-1.62-1.62V4.71H21.72a1.62 1.62 0 0 1 1.62 1.62" opacity=".2"/><path d="M14.43 4.71V16.86a0.81 0.81 0 0 1-1.62 0v-5.266H3.9v5.266a0.81 0.81 0 0 1-1.62 0V4.71a0.81 0.81 0 0 1 1.62 0v5.266h8.91V4.71a0.81 0.81 0 0 1 1.62 0m7.444 9.176L24 10.849a0.81 0.81 0 0 0-0.66-1.279H18.48a0.81 0.81 0 0 0 0 1.62h3.304l-1.942 2.776a0.81 0.81 0 0 0 0.664 1.274 2.026 2.026 0 1 1-1.448 3.443 0.81 0.81 0 1 0-1.156 1.133 3.646 3.646 0 0 0 6.248-2.55 3.648 3.648 0 0 0-2.276-3.38"/></svg>