<svg xmlns="http://www.w3.org/2000/svg" width="24" height="24" fill="currentColor" viewBox="0 0 24 24"><path d="M24.15 6.33V18.48a1.62 1.62 0 0 1-1.62 1.62H4.71a1.62 1.62 0 0 1-1.62-1.62V4.71h19.44a1.62 1.62 0 0 1 1.62 1.62" opacity=".2"/><path d="M14.43 4.71V16.86a0.81 0.81 0 0 1-1.62 0v-5.266H3.9v5.266a0.81 0.81 0 0 1-1.62 0V4.71a0.81 0.81 0 0 1 1.62 0v5.266h8.91V4.71a0.81 0.81 0 0 1 1.62 0m10.53 12.96a0.81 0.81 0 0 1-0.81 0.81h-0.81v1.62a0.81 0.81 0 0 1-1.62 0V18.48h-4.86a0.81 0.81 0 0 1-0.638-1.307l5.67-7.29a0.81 0.81 0 0 1 1.448 0.497v6.48h0.81a0.81 0.81 0 0 1 0.81 0.81m-3.24-4.928l-3.204 4.118h3.204z"/></svg>