<svg xmlns="http://www.w3.org/2000/svg" width="24" height="24" fill="currentColor" viewBox="0 0 24 24"><path d="M23.34 6.33V18.48a1.62 1.62 0 0 1-1.62 1.62H4.71a1.62 1.62 0 0 1-1.62-1.62V4.71H21.72a1.62 1.62 0 0 1 1.62 1.62" opacity=".2"/><path d="M14.43 4.71V16.86a0.81 0.81 0 0 1-1.62 0v-5.266H3.9v5.266a0.81 0.81 0 0 1-1.62 0V4.71a0.81 0.81 0 0 1 1.62 0v5.266h8.91V4.71a0.81 0.81 0 0 1 1.62 0m6.076 8.91a3.96 3.96 0 0 0-0.953 0.115l0.425-2.545h3.363a0.81 0.81 0 0 0 0-1.62h-4.05a0.81 0.81 0 0 0-0.799 0.677l-0.81 4.86a0.81 0.81 0 0 0 1.378 0.701 2.004 2.004 0 0 1 1.447-0.568 2.026 2.026 0 0 1 0 4.05 2.004 2.004 0 0 1-1.447-0.568 0.81 0.81 0 1 0-1.157 1.134 3.6 3.6 0 0 0 2.603 1.054 3.646 3.646 0 0 0 0-7.29"/></svg>