<svg xmlns="http://www.w3.org/2000/svg" width="24" height="24" fill="currentColor" viewBox="0 0 24 24"><path d="M23.34 6.33V18.48a1.62 1.62 0 0 1-1.62 1.62H4.71a1.62 1.62 0 0 1-1.62-1.62V4.71H21.72a1.62 1.62 0 0 1 1.62 1.62" opacity=".2"/><path d="M14.43 4.71V16.86a0.81 0.81 0 0 1-1.62 0v-5.266H3.9v5.266a0.81 0.81 0 0 1-1.62 0V4.71a0.81 0.81 0 0 1 1.62 0v5.266h8.91V4.71a0.81 0.81 0 0 1 1.62 0m9.72 12.554a3.646 3.646 0 1 1-6.818-1.79l0.022-0.042 3.266-5.467a0.81 0.81 0 0 1 1.39 0.83l-1.689 2.836 0.185-0.005a3.648 3.648 0 0 1 3.644 3.64z m-1.62 0a2.026 2.026 0 1 0-2.026 2.026 2.028 2.028 0 0 0 2.026-2.024z"/></svg>