<svg width="24" height="24" viewBox="0 0 24 24" fill="none" xmlns="http://www.w3.org/2000/svg">
<path d="M18 1.5H6C5.17157 1.5 4.5 2.17157 4.5 3V21C4.5 21.8284 5.17157 22.5 6 22.5H18C18.8284 22.5 19.5 21.8284 19.5 21V3C19.5 2.17157 18.8284 1.5 18 1.5Z" fill="black" fill-opacity="0.2"/>
<path d="M7.25 19C7.25 18.3096 7.80964 17.75 8.5 17.75C9.19036 17.75 9.75 18.3096 9.75 19C9.75 19.6904 9.19036 20.25 8.5 20.25C7.80964 20.25 7.25 19.6904 7.25 19Z" stroke="black" stroke-width="1.5" stroke-linecap="round" stroke-linejoin="round"/>
<path d="M7.25 12C7.25 11.3096 7.80964 10.75 8.5 10.75C9.19036 10.75 9.75 11.3096 9.75 12C9.75 12.6904 9.19036 13.25 8.5 13.25C7.80964 13.25 7.25 12.6904 7.25 12Z" stroke="black" stroke-width="1.5" stroke-linecap="round" stroke-linejoin="round"/>
<path d="M7.25 5C7.25 4.30964 7.80965 3.75 8.5 3.75C9.19036 3.75 9.75 4.30964 9.75 5C9.75 5.69036 9.19036 6.25 8.5 6.25C7.80965 6.25 7.25 5.69036 7.25 5Z" stroke="black" stroke-width="1.5" stroke-linecap="round" stroke-linejoin="round"/>
<path d="M14.25 19C14.25 18.3096 14.8096 17.75 15.5 17.75C16.1904 17.75 16.75 18.3096 16.75 19C16.75 19.6904 16.1904 20.25 15.5 20.25C14.8096 20.25 14.25 19.6904 14.25 19Z" stroke="black" stroke-width="1.5" stroke-linecap="round" stroke-linejoin="round"/>
<path d="M14.25 12C14.25 11.3096 14.8096 10.75 15.5 10.75C16.1904 10.75 16.75 11.3096 16.75 12C16.75 12.6904 16.1904 13.25 15.5 13.25C14.8096 13.25 14.25 12.6904 14.25 12Z" stroke="black" stroke-width="1.5" stroke-linecap="round" stroke-linejoin="round"/>
<path d="M14.25 5C14.25 4.30964 14.8096 3.75 15.5 3.75C16.1904 3.75 16.75 4.30964 16.75 5C16.75 5.69036 16.1904 6.25 15.5 6.25C14.8096 6.25 14.25 5.69036 14.25 5Z" stroke="black" stroke-width="1.5" stroke-linecap="round" stroke-linejoin="round"/>
</svg>
