<svg xmlns="http://www.w3.org/2000/svg" width="24" height="24" fill="currentColor" viewBox="0 0 24 24"><path d="M20.1 2.28v19.44a1.62 1.62 0 0 1-1.62 1.62H5.52a1.62 1.62 0 0 1-1.62-1.62V2.28A1.62 1.62 0 0 1 5.52 0.66h12.96a1.62 1.62 0 0 1 1.62 1.62" opacity=".2"/><path d="M9.57 5.116a1.216 1.216 0 1 1-1.216-1.215 1.216 1.216 0 0 1 1.216 1.215m6.076 1.215a1.216 1.216 0 1 0-1.216-1.215 1.216 1.216 0 0 0 1.216 1.215m-7.29 4.456a1.216 1.216 0 1 0 1.215 1.214 1.216 1.216 0 0 0-1.215-1.214m7.29 0a1.216 1.216 0 1 0 1.215 1.214 1.216 1.216 0 0 0-1.215-1.214m-7.29 6.884a1.216 1.216 0 1 0 1.215 1.216 1.216 1.216 0 0 0-1.215-1.216m7.29 0a1.216 1.216 0 1 0 1.215 1.216 1.216 1.216 0 0 0-1.215-1.216"/></svg>