<svg width="24" height="24" viewBox="0 0 24 24" fill="none" xmlns="http://www.w3.org/2000/svg">
<path d="M17.6251 5.25C17.1279 5.25 16.6509 5.44754 16.2993 5.79917C15.9477 6.15081 15.7501 6.62772 15.7501 7.125V4.125C15.7501 3.62772 15.5526 3.15081 15.201 2.79917C14.8493 2.44754 14.3724 2.25 13.8751 2.25C13.3779 2.25 12.9009 2.44754 12.5493 2.79917C12.1977 3.15081 12.0001 3.62772 12.0001 4.125V5.625C12.0001 5.12772 11.8026 4.65081 11.451 4.29917C11.0993 3.94754 10.6224 3.75 10.1251 3.75C9.62785 3.75 9.15094 3.94754 8.79931 4.29917C8.44768 4.65081 8.25013 5.12772 8.25013 5.625V14.25L6.49888 11.4375C6.24848 11.0104 5.83928 10.6996 5.36061 10.5731C4.88193 10.4465 4.37262 10.5144 3.94383 10.762C3.51504 11.0096 3.20158 11.4167 3.07185 11.8945C2.94213 12.3723 3.00666 12.8821 3.25138 13.3125C6.30482 19.755 7.85826 21.75 12.0001 21.75C12.985 21.75 13.9603 21.556 14.8703 21.1791C15.7802 20.8022 16.607 20.2497 17.3034 19.5533C17.9999 18.8569 18.5523 18.0301 18.9292 17.1201C19.3061 16.2102 19.5001 15.2349 19.5001 14.25V7.125C19.5001 6.62772 19.3026 6.15081 18.951 5.79917C18.5993 5.44754 18.1224 5.25 17.6251 5.25Z" fill="black" fill-opacity="0.2"/>
<path d="M15.7496 7.125C15.7496 6.62772 15.9472 6.15081 16.2988 5.79917C16.6505 5.44754 17.1274 5.25 17.6246 5.25C18.1219 5.25 18.5988 5.44754 18.9505 5.79917C19.3021 6.15081 19.4996 6.62772 19.4996 7.125V14.25C19.4996 15.2349 19.3057 16.2102 18.9287 17.1201C18.5518 18.0301 17.9994 18.8569 17.3029 19.5533C16.6065 20.2497 15.7797 20.8022 14.8698 21.1791C13.9598 21.556 12.9846 21.75 11.9996 21.75C7.85777 21.75 6.30433 19.755 3.25089 13.3125C3.00618 12.8821 2.94164 12.3723 3.07137 11.8945C3.20109 11.4167 3.51455 11.0096 3.94334 10.762C4.37213 10.5144 4.88144 10.4465 5.36012 10.5731C5.8388 10.6996 6.24799 11.0104 6.49839 11.4375L8.24964 14.25V5.625C8.24964 5.12772 8.44719 4.65081 8.79882 4.29917C9.15045 3.94754 9.62736 3.75 10.1246 3.75C10.6219 3.75 11.0988 3.94754 11.4505 4.29917C11.8006 4.64926 11.9979 5.12353 11.9996 5.61844M11.9996 5.61844C11.9996 5.62063 11.9996 5.62281 11.9996 5.625M11.9996 5.61844V11.25M11.9996 5.61844V4.125C11.9996 3.62772 12.1972 3.15081 12.5488 2.79917C12.9004 2.44754 13.3774 2.25 13.8746 2.25C14.3719 2.25 14.8488 2.44754 15.2005 2.79917C15.5521 3.15081 15.7496 3.62772 15.7496 4.125V11.25" stroke="black" stroke-width="1.5" stroke-linecap="round" stroke-linejoin="round"/>
</svg>
