<svg xmlns="http://www.w3.org/2000/svg" width="24" height="24" fill="currentColor" viewBox="0 0 24 24"><path d="M20.1 6.736v7.695a8.1 8.1 0 0 1-8.1 8.1c-4.474 0-6.151-2.155-9.449-9.113a2.026 2.026 0 0 1 3.508-2.025l1.891 3.037V5.114a2.026 2.026 0 0 1 4.05 0v-1.62a2.026 2.026 0 0 1 4.05 0v3.24a2.026 2.026 0 0 1 4.05 0z" opacity=".2"/><path d="M18.076 3.9a2.808 2.808 0 0 0-1.215 0.275v-0.679a2.836 2.836 0 0 0-5.533-0.872 2.836 2.836 0 0 0-4.187 2.492v6.48l-0.386-0.621a2.836 2.836 0 0 0-4.921 2.817c1.62 3.419 2.929 5.844 4.426 7.359 1.513 1.535 3.23 2.189 5.741 2.189a8.92 8.92 0 0 0 8.91-8.91V6.736a2.836 2.836 0 0 0-2.835-2.835z m1.214 10.53A7.296 7.296 0 0 1 12 21.72c-2.064 0-3.392-0.494-4.59-1.706-1.339-1.357-2.573-3.66-4.128-6.944l-0.03-0.058a1.216 1.216 0 0 1 2.105-1.216l0.014 0.023 1.89 3.037a0.81 0.81 0 0 0 1.499-0.428V5.112a1.216 1.216 0 0 1 2.43 0v6.076a0.81 0.81 0 0 0 1.62 0V3.493a1.216 1.216 0 0 1 2.43 0v7.695a0.81 0.81 0 0 0 1.62 0V6.733a1.216 1.216 0 0 1 2.43 0z"/></svg>