<svg width="24" height="24" viewBox="0 0 24 24" fill="none" xmlns="http://www.w3.org/2000/svg">
<path d="M18 1.5H6C5.17157 1.5 4.5 2.17157 4.5 3V21C4.5 21.8284 5.17157 22.5 6 22.5H18C18.8284 22.5 19.5 21.8284 19.5 21V3C19.5 2.17157 18.8284 1.5 18 1.5Z" fill="black" fill-opacity="0.2"/>
<path d="M8.625 6C8.83211 6 9 5.83211 9 5.625C9 5.41789 8.83211 5.25 8.625 5.25C8.41789 5.25 8.25 5.41789 8.25 5.625C8.25 5.83211 8.41789 6 8.625 6Z" fill="black"/>
<path d="M15.375 6C15.5821 6 15.75 5.83211 15.75 5.625C15.75 5.41789 15.5821 5.25 15.375 5.25C15.1679 5.25 15 5.41789 15 5.625C15 5.83211 15.1679 6 15.375 6Z" fill="black"/>
<path d="M8.625 12.375C8.83211 12.375 9 12.2071 9 12C9 11.7929 8.83211 11.625 8.625 11.625C8.41789 11.625 8.25 11.7929 8.25 12C8.25 12.2071 8.41789 12.375 8.625 12.375Z" fill="black"/>
<path d="M15.375 12.375C15.5821 12.375 15.75 12.2071 15.75 12C15.75 11.7929 15.5821 11.625 15.375 11.625C15.1679 11.625 15 11.7929 15 12C15 12.2071 15.1679 12.375 15.375 12.375Z" fill="black"/>
<path d="M8.625 18.75C8.83211 18.75 9 18.5821 9 18.375C9 18.1679 8.83211 18 8.625 18C8.41789 18 8.25 18.1679 8.25 18.375C8.25 18.5821 8.41789 18.75 8.625 18.75Z" fill="black"/>
<path d="M15.375 18.75C15.5821 18.75 15.75 18.5821 15.75 18.375C15.75 18.1679 15.5821 18 15.375 18C15.1679 18 15 18.1679 15 18.375C15 18.5821 15.1679 18.75 15.375 18.75Z" fill="black"/>
<path d="M8.625 6C8.83211 6 9 5.83211 9 5.625C9 5.41789 8.83211 5.25 8.625 5.25C8.41789 5.25 8.25 5.41789 8.25 5.625C8.25 5.83211 8.41789 6 8.625 6Z" stroke="black" stroke-width="1.5" stroke-linecap="round" stroke-linejoin="round"/>
<path d="M15.375 6C15.5821 6 15.75 5.83211 15.75 5.625C15.75 5.41789 15.5821 5.25 15.375 5.25C15.1679 5.25 15 5.41789 15 5.625C15 5.83211 15.1679 6 15.375 6Z" stroke="black" stroke-width="1.5" stroke-linecap="round" stroke-linejoin="round"/>
<path d="M8.625 12.375C8.83211 12.375 9 12.2071 9 12C9 11.7929 8.83211 11.625 8.625 11.625C8.41789 11.625 8.25 11.7929 8.25 12C8.25 12.2071 8.41789 12.375 8.625 12.375Z" stroke="black" stroke-width="1.5" stroke-linecap="round" stroke-linejoin="round"/>
<path d="M15.375 12.375C15.5821 12.375 15.75 12.2071 15.75 12C15.75 11.7929 15.5821 11.625 15.375 11.625C15.1679 11.625 15 11.7929 15 12C15 12.2071 15.1679 12.375 15.375 12.375Z" stroke="black" stroke-width="1.5" stroke-linecap="round" stroke-linejoin="round"/>
<path d="M8.625 18.75C8.83211 18.75 9 18.5821 9 18.375C9 18.1679 8.83211 18 8.625 18C8.41789 18 8.25 18.1679 8.25 18.375C8.25 18.5821 8.41789 18.75 8.625 18.75Z" stroke="black" stroke-width="1.5" stroke-linecap="round" stroke-linejoin="round"/>
<path d="M15.375 18.75C15.5821 18.75 15.75 18.5821 15.75 18.375C15.75 18.1679 15.5821 18 15.375 18C15.1679 18 15 18.1679 15 18.375C15 18.5821 15.1679 18.75 15.375 18.75Z" stroke="black" stroke-width="1.5" stroke-linecap="round" stroke-linejoin="round"/>
</svg>
