<svg xmlns="http://www.w3.org/2000/svg" width="24" height="24" fill="currentColor" viewBox="0 0 24 24"><path d="M23.34 2.28H0.66c-0.892 0-1.62 0.73-1.62 1.62v16.2c0 0.89 0.73 1.62 1.62 1.62h22.68c0.89 0 1.62-0.73 1.62-1.62V3.9c0-0.892-0.73-1.62-1.62-1.62M12 18.48H8.76v-4.86H5.52v4.86H2.28V5.52h3.24v4.86h3.24V5.52H12z m10.646-3.488c-0.258 0.82-0.598 1.488-1.002 1.98a4.08 4.08 0 0 1-1.508 1.134c-0.582 0.248-1.332 0.374-2.222 0.374H13.62V5.52h4.182c1.027 0 1.792 0.112 2.334 0.344s1.043 0.618 1.494 1.155c0.44 0.532 0.794 1.22 1.043 2.055 0.244 0.82 0.37 1.848 0.369 3.053-0.005 1.088-0.137 2.056-0.394 2.866m-2.745-4.769c0.132 0.431 0.198 1.038 0.198 1.802 0 0.734-0.066 1.332-0.198 1.778q-0.191 0.637-0.45 0.91a1.476 1.476 0 0 1-0.648 0.39c-0.192 0.061-0.598 0.137-1.433 0.137h-1.321v-6.48h0.653c1.084 0 1.549 0.046 1.746 0.087 0.349 0.071 0.638 0.208 0.886 0.424q0.374 0.343 0.567 0.952"/></svg>