<svg width="24" height="24" viewBox="0 0 24 24" fill="none" xmlns="http://www.w3.org/2000/svg">
<path d="M20.2433 9.44224C20.1613 7.48253 19.3148 5.63292 17.8854 4.28987C16.4559 2.94683 14.5571 2.21722 12.5961 2.25744C10.6351 2.29766 8.76786 3.1045 7.39464 4.50503C6.02142 5.90556 5.2515 7.78831 5.2499 9.74974L3.06084 13.9563C2.98536 14.1321 2.97991 14.3301 3.04561 14.5098C3.11132 14.6895 3.2432 14.8372 3.41428 14.9229L5.9999 16.1069V19.4997C5.9999 19.6987 6.07892 19.8894 6.21957 20.0301C6.36022 20.1707 6.55099 20.2497 6.7499 20.2497H11.2499C11.2499 20.6476 11.4079 21.0291 11.6892 21.3104C11.9705 21.5917 12.3521 21.7497 12.7499 21.7497H17.9999L17.2499 15.7497C18.2238 15.0207 19.0053 14.0653 19.5269 12.9663C20.0484 11.8673 20.2944 10.6577 20.2433 9.44224ZM10.5121 6.94474C10.4715 6.63408 10.5291 6.3185 10.677 6.04228C10.8249 5.76606 11.0555 5.54308 11.3366 5.40463C11.6176 5.26618 11.935 5.21921 12.2441 5.27031C12.5532 5.32141 12.8385 5.46802 13.0601 5.68956C13.2816 5.9111 13.4282 6.19645 13.4793 6.50556C13.5304 6.81467 13.4835 7.13203 13.345 7.41308C13.2066 7.69414 12.9836 7.92478 12.7074 8.07265C12.4311 8.22052 12.1156 8.27818 11.8049 8.23756C11.4771 8.19468 11.1726 8.04468 10.9388 7.81088C10.705 7.57708 10.555 7.27259 10.5121 6.94474ZM13.6996 14.2376C13.3889 14.2782 13.0733 14.2205 12.7971 14.0726C12.5209 13.9248 12.2979 13.6941 12.1595 13.4131C12.021 13.132 11.9741 12.8147 12.0252 12.5056C12.0763 12.1965 12.2229 11.9111 12.4444 11.6896C12.6659 11.468 12.9513 11.3214 13.2604 11.2703C13.5695 11.2192 13.8869 11.2662 14.1679 11.4046C14.449 11.5431 14.6796 11.7661 14.8275 12.0423C14.9754 12.3185 15.033 12.6341 14.9924 12.9447C14.9493 13.2733 14.7986 13.5783 14.5639 13.8122C14.3292 14.0461 14.0236 14.1956 13.6949 14.2376H13.6996Z" fill="black" fill-opacity="0.2"/>
<path d="M12.0001 5.25C11.1717 5.25 10.5001 5.92157 10.5001 6.75C10.5001 7.57843 11.1717 8.25 12.0001 8.25C12.8285 8.25 13.5001 7.57843 13.5001 6.75C13.5001 5.92157 12.8285 5.25 12.0001 5.25ZM12.0001 5.25V2.28662M11.2501 20.25H6.75006C6.55115 20.25 6.36038 20.171 6.21973 20.0303C6.07908 19.8897 6.00006 19.6989 6.00006 19.5V16.1072L3.41443 14.9231C3.24359 14.8375 3.11187 14.6899 3.04618 14.5104C2.9805 14.331 2.9858 14.1332 3.061 13.9575L5.25006 9.75C5.25006 8.47158 5.57685 7.21437 6.1994 6.09777C6.82194 4.98116 7.71958 4.04223 8.80708 3.37012C9.89457 2.69801 11.1358 2.31504 12.4129 2.25758C13.6901 2.20012 14.9607 2.47007 16.1042 3.0418C17.2476 3.61353 18.226 4.46805 18.9463 5.52424C19.6666 6.58042 20.1049 7.8032 20.2198 9.07646C20.3346 10.3497 20.122 11.6312 19.6022 12.7992C19.0825 13.9672 18.2728 14.9829 17.2501 15.75L18.0001 21.75M20.0983 8.25H17.2501L14.4601 11.5978M15.0001 12.75C15.0001 13.5784 14.3285 14.25 13.5001 14.25C12.6717 14.25 12.0001 13.5784 12.0001 12.75C12.0001 11.9216 12.6717 11.25 13.5001 11.25C14.3285 11.25 15.0001 11.9216 15.0001 12.75Z" stroke="black" stroke-width="1.5" stroke-linecap="round" stroke-linejoin="round"/>
</svg>
