<svg xmlns="http://www.w3.org/2000/svg" width="24" height="24" fill="currentColor" viewBox="0 0 24 24"><path d="M7.14 13.62v4.05a1.62 1.62 0 0 1-1.62 1.62H3.9a1.62 1.62 0 0 1-1.62-1.62V12h3.24a1.62 1.62 0 0 1 1.62 1.62M18.48 12a1.62 1.62 0 0 0-1.62 1.62v4.05a1.62 1.62 0 0 0 1.62 1.62h3.24V12z" opacity=".2"/><path d="M19.481 4.574A10.538 10.538 0 0 0 1.47 12v5.67A2.43 2.43 0 0 0 3.9 20.1H5.52a2.43 2.43 0 0 0 2.43-2.43V13.62A2.43 2.43 0 0 0 5.52 11.19H3.126a8.922 8.922 0 0 1 15.205-5.474 8.844 8.844 0 0 1 2.543 5.474H18.48a2.43 2.43 0 0 0-2.43 2.43v4.05A2.43 2.43 0 0 0 18.48 20.1h2.43a2.43 2.43 0 0 1-2.43 2.43h-5.67a0.81 0.81 0 0 0 0 1.62H18.48a4.05 4.05 0 0 0 4.05-4.05V12a10.476 10.476 0 0 0-3.049-7.426M5.52 12.81a0.81 0.81 0 0 1 0.81 0.81v4.05a0.81 0.81 0 0 1-0.81 0.81H3.9a0.81 0.81 0 0 1-0.81-0.81v-4.86zM18.48 18.48a0.81 0.81 0 0 1-0.81-0.81V13.62a0.81 0.81 0 0 1 0.81-0.81h2.43V18.48z"/></svg>