<svg xmlns="http://www.w3.org/2000/svg" fill="currentColor" viewBox="0 0 24 24" width="24" height="24"><path d="M20.903 9.238a8.1 8.1 0 0 0-16.193 0.332l-2.364 4.543a0.81 0.81 0 0 0 0.382 1.044L5.52 16.436v3.665a0.81 0.81 0 0 0 0.81 0.81h4.86a1.62 1.62 0 0 0 1.62 1.62H18.48l-0.81-6.48a8.088 8.088 0 0 0 3.233-6.812zM10.393 6.54a1.62 1.62 0 1 1 1.397 1.397 1.62 1.62 0 0 1-1.397-1.397m3.443 7.877a1.62 1.62 0 1 1 1.397-1.397 1.62 1.62 0 0 1-1.402 1.397z" opacity=".2"/><path d="M18.53 16.402A8.94 8.94 0 0 0 21.72 9.361c-0.101-4.628-3.808-8.444-8.428-8.687A8.91 8.91 0 0 0 3.9 9.368L1.627 13.74l-0.026 0.055a1.62 1.62 0 0 0 0.764 2.088l0.025 0.011 2.32 1.062v3.145a1.62 1.62 0 0 0 1.62 1.62h4.86a0.81 0.81 0 0 0 0-1.62h-4.86v-3.665a0.816 0.816 0 0 0-0.473-0.736l-2.767-1.269 2.336-4.489a0.84 0.84 0 0 0 0.094-0.371 7.29 7.29 0 0 1 5.67-7.109v1.578a2.43 2.43 0 1 0 1.62 0V2.281c0.132 0 0.263 0 0.395 0.01a7.32 7.32 0 0 1 6.474 4.85h-2.009a0.816 0.816 0 0 0-0.623 0.292l-2.582 3.101a2.436 2.436 0 1 0 1.243 1.038l2.342-2.81h2.004q0.036 0.316 0.045 0.639a7.32 7.32 0 0 1-2.914 6.003 0.816 0.816 0 0 0-0.318 0.749l0.81 6.48a0.81 0.81 0 0 0 0.803 0.709l0.101-0.006a0.81 0.81 0 0 0 0.703-0.903zM12 7.14a0.81 0.81 0 1 1 0.81-0.81 0.81 0.81 0 0 1-0.81 0.81m1.62 6.48a0.81 0.81 0 1 1 0.81-0.81 0.81 0.81 0 0 1-0.81 0.81"/></svg>