<svg width="24" height="24" viewBox="0 0 24 24" fill="none" xmlns="http://www.w3.org/2000/svg">
<path d="M12 21C12 21 2.25 15.75 2.25 9.5625C2.25 8.21984 2.78337 6.93217 3.73277 5.98277C4.68217 5.03337 5.96984 4.5 7.3125 4.5C9.43031 4.5 11.2444 5.65406 12 7.5C12.7556 5.65406 14.5697 4.5 16.6875 4.5C18.0302 4.5 19.3178 5.03337 20.2672 5.98277C21.2166 6.93217 21.75 8.21984 21.75 9.5625C21.75 15.75 12 21 12 21Z" fill="black" fill-opacity="0.2"/>
<path d="M12 21C12 21 2.25 15.75 2.25 9.5625C2.25 8.21984 2.78337 6.93217 3.73277 5.98277C4.68217 5.03337 5.96984 4.5 7.3125 4.5C9.43031 4.5 11.2444 5.65406 12 7.5C12.7556 5.65406 14.5697 4.5 16.6875 4.5C18.0302 4.5 19.3178 5.03337 20.2672 5.98277C21.2166 6.93217 21.75 8.21984 21.75 9.5625C21.75 15.75 12 21 12 21Z" stroke="black" stroke-width="1.5" stroke-linecap="round" stroke-linejoin="round"/>
</svg>
