<svg xmlns="http://www.w3.org/2000/svg" width="24" height="24" fill="currentColor" viewBox="0 0 24 24"><path d="M22.53 9.367C22.53 16.05 12 21.72 12 21.72S1.47 16.05 1.47 9.367A5.467 5.467 0 0 1 6.937 3.9c2.287 0 4.247 1.247 5.063 3.24 0.816-1.993 2.776-3.24 5.063-3.24a5.467 5.467 0 0 1 5.467 5.467" opacity=".2"/><path d="M17.063 3.09c-2.09 0-3.922 0.899-5.063 2.419-1.141-1.519-2.971-2.419-5.063-2.419A6.284 6.284 0 0 0 0.66 9.367c0 7.087 10.508 12.824 10.956 13.061a0.816 0.816 0 0 0 0.768 0c0.448-0.236 10.956-5.974 10.956-13.061a6.284 6.284 0 0 0-6.277-6.277M12 20.789c-1.849-1.078-9.72-5.984-9.72-11.422a4.663 4.663 0 0 1 4.657-4.657c1.969 0 3.623 1.049 4.313 2.734a0.81 0.81 0 0 0 1.499 0c0.69-1.688 2.344-2.734 4.313-2.734a4.663 4.663 0 0 1 4.657 4.657c0 5.428-7.873 10.343-9.72 11.422z"/></svg>