<svg width="24" height="24" viewBox="0 0 24 24" fill="none" xmlns="http://www.w3.org/2000/svg">
<path d="M8.25 12L2.25 18L9 20.25L12.75 16.5L8.25 12Z" fill="black" fill-opacity="0.2"/>
<path d="M8.25 12L2.25 18L9 20.25L12.75 16.5M17.2501 15L14.7807 17.4694C14.711 17.5391 14.6283 17.5944 14.5373 17.6322C14.4462 17.6699 14.3486 17.6893 14.2501 17.6893C14.1515 17.6893 14.0539 17.6699 13.9629 17.6322C13.8718 17.5944 13.7891 17.5391 13.7194 17.4694L7.2807 11.0306C7.21096 10.961 7.15564 10.8783 7.1179 10.7872C7.08016 10.6962 7.06073 10.5986 7.06073 10.5C7.06073 10.4014 7.08016 10.3038 7.1179 10.2128C7.15564 10.1217 7.21096 10.039 7.2807 9.96937L9.75007 7.5M23.2501 10.5L18.5307 15.2194C18.461 15.2891 18.3783 15.3444 18.2873 15.3822C18.1962 15.4199 18.0986 15.4393 18.0001 15.4393C17.9015 15.4393 17.8039 15.4199 17.7129 15.3822C17.6218 15.3444 17.5391 15.2891 17.4694 15.2194L9.5307 7.28063C9.46096 7.21097 9.40564 7.12825 9.3679 7.03721C9.33016 6.94616 9.31073 6.84856 9.31073 6.75C9.31073 6.65144 9.33016 6.55384 9.3679 6.46279C9.40564 6.37175 9.46096 6.28903 9.5307 6.21937L14.2501 1.5" stroke="black" stroke-width="1.5" stroke-linecap="round" stroke-linejoin="round"/>
</svg>
