<svg width="24" height="24" viewBox="0 0 24 24" fill="none" xmlns="http://www.w3.org/2000/svg">
<path d="M18.3637 5.63602C17.4324 4.70562 16.3084 3.99083 15.0709 3.54206C13.8333 3.09329 12.5124 2.92146 11.2012 3.03869C9.89005 3.15591 8.62056 3.55934 7.48226 4.22053C6.34395 4.88172 5.36455 5.78457 4.6131 6.86542C3.86166 7.94626 3.35646 9.1788 3.13314 10.4761C2.90982 11.7734 2.97381 13.104 3.32059 14.3739C3.66738 15.6438 4.28852 16.8221 5.14022 17.8259C5.99192 18.8296 7.05345 19.6343 8.24995 20.1832V14.2498C8.24995 14.0509 8.32897 13.8601 8.46962 13.7194C8.61027 13.5788 8.80103 13.4998 8.99995 13.4998H9.74995V8.99977L14.2499 6.74977V13.4998H14.9999C15.1989 13.4998 15.3896 13.5788 15.5303 13.7194C15.6709 13.8601 15.7499 14.0509 15.7499 14.2498V20.1832C17.07 19.5783 18.2242 18.663 19.1139 17.5154C20.0035 16.3678 20.6023 15.022 20.8591 13.5928C21.1159 12.1636 21.0231 10.6935 20.5885 9.30796C20.154 7.92242 19.3907 6.6626 18.3637 5.63602Z" fill="black" fill-opacity="0.2"/>
<path d="M9.75 13.5V9L14.25 6.75V13.5M15.75 20.1844V14.25C15.75 14.0511 15.671 13.8603 15.5303 13.7197C15.3897 13.579 15.1989 13.5 15 13.5H9C8.80109 13.5 8.61032 13.579 8.46967 13.7197C8.32902 13.8603 8.25 14.0511 8.25 14.25V20.1844M21 12C21 16.9706 16.9706 21 12 21C7.02944 21 3 16.9706 3 12C3 7.02944 7.02944 3 12 3C16.9706 3 21 7.02944 21 12Z" stroke="black" stroke-width="1.5" stroke-linecap="round" stroke-linejoin="round"/>
</svg>
