<svg xmlns="http://www.w3.org/2000/svg" width="24" height="24" fill="currentColor" viewBox="0 0 24 24"><path d="M12.81 16.86L8.76 20.91 1.47 18.48l6.48-6.48z" opacity=".2"/><path d="M24.724 9.806a0.81 0.81 0 0 0-1.146 0l-5.097 5.098-8.336-8.338-0.238-0.236 5.098-5.096a0.81 0.81 0 1 0-1.146-1.146L8.762 5.185a1.62 1.62 0 0 0-0.285 1.905L6.332 9.235a1.62 1.62 0 0 0 0 2.291l0.476 0.475-5.908 5.907a0.81 0.81 0 0 0 0.317 1.341l7.29 2.43a0.84 0.84 0 0 0 0.255 0.042 0.816 0.816 0 0 0 0.574-0.236l3.476-3.478 0.476 0.475a1.62 1.62 0 0 0 2.29 0l2.145-2.144a1.62 1.62 0 0 0 1.905-0.286l5.098-5.096a0.81 0.81 0 0 0 0-1.146zM8.542 19.984l-5.57-1.858 4.978-4.98 3.715 3.715z m5.888-2.649l-1.046-1.047-4.86-4.86-1.048-1.047 2.095-2.095 6.955 6.955z"/></svg>