<svg width="24" height="24" viewBox="0 0 24 24" fill="none" xmlns="http://www.w3.org/2000/svg">
<path d="M16.5 6.75H4.5C4.08579 6.75 3.75 7.08579 3.75 7.5V19.5C3.75 19.9142 4.08579 20.25 4.5 20.25H16.5C16.9142 20.25 17.25 19.9142 17.25 19.5V7.5C17.25 7.08579 16.9142 6.75 16.5 6.75Z" fill="black" fill-opacity="0.2"/>
<path d="M12.7495 11.25L20.2495 3.75M20.2495 9.75L20.2486 3.75094L14.2495 3.75M17.2495 12.75V19.5C17.2495 19.6989 17.1705 19.8897 17.0298 20.0303C16.8892 20.171 16.6984 20.25 16.4995 20.25H4.49951C4.3006 20.25 4.10983 20.171 3.96918 20.0303C3.82853 19.8897 3.74951 19.6989 3.74951 19.5V7.5C3.74951 7.30109 3.82853 7.11032 3.96918 6.96967C4.10983 6.82902 4.3006 6.75 4.49951 6.75H11.2495" stroke="black" stroke-width="1.5" stroke-linecap="round" stroke-linejoin="round"/>
</svg>
