<svg width="24" height="24" viewBox="0 0 24 24" fill="none" xmlns="http://www.w3.org/2000/svg">
<path d="M9.15563 10.7194L13.8103 15.375L16.2188 12.9694C16.3594 12.8288 16.5501 12.7499 16.7489 12.7499C16.9477 12.7499 17.1384 12.8288 17.2791 12.9694L21 16.6931V5.25C21 5.05109 20.921 4.86032 20.7803 4.71967C20.6397 4.57902 20.4489 4.5 20.25 4.5H3.75C3.55109 4.5 3.36032 4.57902 3.21967 4.71967C3.07902 4.86032 3 5.05109 3 5.25V15.8147L8.09437 10.7194C8.16403 10.6496 8.24675 10.5943 8.33779 10.5566C8.42884 10.5188 8.52644 10.4994 8.625 10.4994C8.72356 10.4994 8.82116 10.5188 8.91221 10.5566C9.00325 10.5943 9.08597 10.6496 9.15563 10.7194Z" fill="black" fill-opacity="0.2"/>
<path d="M21 16.693V5.25C21 4.83579 20.6642 4.5 20.25 4.5H3.75C3.33579 4.5 3 4.83579 3 5.25V15.8143M21 16.693V18.75C21 19.1642 20.6642 19.5 20.25 19.5H3.75C3.33579 19.5 3 19.1642 3 18.75V15.8143M21 16.693L17.2793 12.9695C17.1387 12.8289 16.948 12.75 16.7491 12.75C16.5503 12.75 16.3596 12.8289 16.219 12.9695L13.8105 15.3751M17.9353 19.4996L13.8105 15.3751L9.15563 10.719C9.08597 10.6493 9.00325 10.5939 8.91221 10.5562C8.82116 10.5185 8.72356 10.499 8.625 10.499C8.52644 10.499 8.42884 10.5185 8.33779 10.5562C8.24675 10.5939 8.16403 10.6493 8.09437 10.719L3 15.8143M14.6223 9.00073C14.8294 9.00073 14.9973 9.16862 14.9973 9.37573C14.9973 9.58283 14.8294 9.75073 14.6223 9.75073C14.4152 9.75073 14.2473 9.58283 14.2473 9.37573C14.2473 9.16862 14.4152 9.00073 14.6223 9.00073Z" stroke="black" stroke-width="1.5" stroke-linecap="round" stroke-linejoin="round"/>
</svg>
