<svg width="24" height="24" viewBox="0 0 24 24" fill="none" xmlns="http://www.w3.org/2000/svg">
<path fill-rule="evenodd" clip-rule="evenodd" d="M5.86364 5.25H18.1364C18.4753 5.25 18.75 5.52473 18.75 5.86364V13.4976L15.862 10.6728C15.8061 10.618 15.7396 10.5746 15.6665 10.5449C15.5933 10.5153 15.5149 10.5 15.4357 10.5C15.3565 10.5 15.2781 10.5153 15.2049 10.5449C15.1318 10.5746 15.0653 10.618 15.0094 10.6728L6.75 18.75H5.86364C5.52473 18.75 5.25 18.4753 5.25 18.1364V5.86364C5.25 5.52473 5.52473 5.25 5.86364 5.25ZM9.58813 11.0884C10.4166 11.0884 11.0881 10.4168 11.0881 9.5884C11.0881 8.75996 10.4166 8.08838 9.58813 8.08838C8.75971 8.08838 8.08813 8.75996 8.08813 9.5884C8.08813 10.4168 8.75971 11.0884 9.58813 11.0884Z" fill="black" fill-opacity="0.2"/>
<path d="M6.75 18.75L15.0094 10.6728C15.0653 10.618 15.1318 10.5746 15.2049 10.5449C15.2781 10.5153 15.3565 10.5 15.4357 10.5C15.5149 10.5 15.5933 10.5153 15.6665 10.5449C15.7396 10.5746 15.8061 10.618 15.862 10.6728L18.75 13.4976M18 2.25H20.8409C21.082 2.25 21.3132 2.34578 21.4837 2.51627C21.6542 2.68675 21.75 2.91799 21.75 3.15909V6M18 21.7501H20.8408C21.0819 21.7501 21.3131 21.6543 21.4836 21.4838C21.6541 21.3133 21.7499 21.0821 21.7499 20.841L21.75 18.0001M6 21.75H3.15914C2.91804 21.75 2.68681 21.6542 2.51632 21.4837C2.34583 21.3132 2.25005 21.082 2.25005 20.8409L2.25 18M6 2.25H3.15909C2.91798 2.25 2.68675 2.34578 2.51627 2.51627C2.34578 2.68675 2.25 2.91798 2.25 3.15909V6M5.86364 5.25H18.1364C18.4753 5.25 18.75 5.52473 18.75 5.86364V18.1364C18.75 18.4753 18.4753 18.75 18.1364 18.75H5.86364C5.52473 18.75 5.25 18.4753 5.25 18.1364V5.86364C5.25 5.52473 5.52473 5.25 5.86364 5.25ZM11.0883 9.58843C11.0883 10.4169 10.4167 11.0885 9.58832 11.0885C8.75989 11.0885 8.08832 10.4169 8.08832 9.58843C8.08832 8.75999 8.75989 8.08841 9.58832 8.08841C10.4167 8.08841 11.0883 8.75999 11.0883 9.58843Z" stroke="black" stroke-width="1.5" stroke-linecap="round" stroke-linejoin="round"/>
</svg>
