<svg viewBox="0 0 24 24" fill="none" xmlns="http://www.w3.org/2000/svg" width="24" height="24">
<path opacity="0.2" d="M8.928 10.619L13.955 15.647 16.556 12.323C16.708 12.171 16.914 12.086 17.129 12.086 17.344 12.086 17.55 12.171 17.701 12.323L21.72 16.345V4.712C21.72 4.498 21.635 4.291 21.483 4.14 21.331 3.988 21.125 3.902 20.91 3.902H3.09C2.875 3.902 2.669 3.988 2.517 4.14 2.365 4.291 2.28 4.498 2.28 4.712V16.122L7.782 10.619C7.857 10.544 7.947 10.484 8.045 10.443 8.143 10.403 8.249 10.382 8.355 10.382 8.461 10.382 8.567 10.403 8.665 10.443 8.764 10.484 8.853 10.544 8.928 10.619Z" fill="black"/>
<path fill-rule="evenodd" clip-rule="evenodd" d="M19.209 17.589C19.444 17.354 19.824 17.355 20.058 17.589L22.139 19.67C22.17 19.7 22.198 19.732 22.222 19.768L22.223 19.771C22.264 19.832 22.291 19.9 22.307 19.97 22.309 19.981 22.311 19.992 22.313 20.004 22.317 20.031 22.319 20.058 22.32 20.085 22.32 20.09 22.322 20.096 22.322 20.101 22.322 20.107 22.32 20.114 22.32 20.12 22.319 20.145 22.316 20.169 22.313 20.194 22.31 20.21 22.307 20.226 22.303 20.242 22.298 20.262 22.291 20.282 22.284 20.302 22.28 20.315 22.276 20.329 22.27 20.341 22.262 20.36 22.251 20.378 22.241 20.397 22.232 20.412 22.223 20.429 22.213 20.443 22.193 20.472 22.171 20.5 22.146 20.525L20.058 22.613C19.824 22.846 19.443 22.847 19.209 22.613 18.976 22.378 18.976 21.998 19.209 21.764L20.272 20.701H16.922C16.591 20.701 16.322 20.432 16.322 20.101 16.322 19.77 16.591 19.501 16.922 19.501H20.275L19.209 18.437C18.976 18.203 18.976 17.823 19.209 17.589ZM20.909 3.3C21.687 3.301 22.318 3.932 22.318 4.71V14.858L22.323 16.406C22.324 16.649 22.178 16.868 21.954 16.962 21.73 17.055 21.471 17.003 21.299 16.832L17.276 12.809C17.237 12.769 17.182 12.747 17.127 12.747 17.076 12.747 17.028 12.767 16.99 12.8L14.422 16.02C14.315 16.154 14.154 16.236 13.982 16.245 13.809 16.253 13.641 16.186 13.521 16.062L13.498 16.037 8.502 11.041C8.483 11.022 8.459 11.006 8.434 10.996 8.409 10.985 8.381 10.979 8.353 10.979 8.326 10.979 8.298 10.985 8.272 10.996 8.247 11.006 8.224 11.022 8.204 11.041L2.878 16.368V19.29C2.878 19.406 2.972 19.5 3.088 19.5H14.523C14.854 19.501 15.123 19.769 15.123 20.1 15.123 20.431 14.854 20.699 14.523 20.7H3.088C2.309 20.7 1.677 20.069 1.677 19.29V4.71C1.677 3.931 2.309 3.3 3.088 3.3H20.909ZM3.088 4.5C2.972 4.5 2.878 4.594 2.878 4.71V14.671L7.356 10.193 7.458 10.1C7.565 10.013 7.685 9.94 7.813 9.887 7.984 9.816 8.168 9.779 8.353 9.779 8.538 9.779 8.722 9.816 8.893 9.887 9.064 9.958 9.22 10.062 9.35 10.193L13.902 14.745 16.085 12.011 16.13 11.96C16.394 11.696 16.753 11.547 17.127 11.547 17.5 11.547 17.859 11.696 18.123 11.96H18.124L21.118 14.954V4.71C21.118 4.594 21.024 4.501 20.909 4.5H3.088ZM14.843 8.153C15.406 8.153 15.862 8.609 15.863 9.172 15.863 9.735 15.406 10.193 14.843 10.193 14.28 10.193 13.822 9.736 13.822 9.172 13.822 8.609 14.28 8.153 14.843 8.153Z" fill="black"/>
</svg>