<svg xmlns="http://www.w3.org/2000/svg" width="24" height="24" fill="currentColor" viewBox="0 0 24 24"><path d="M21.72 4.71v12.359l-4.021-4.021a0.81 0.81 0 0 0-1.145 0l-2.598 2.598-5.027-5.028a0.81 0.81 0 0 0-1.146 0l-5.502 5.503V4.711a0.81 0.81 0 0 1 0.81-0.81h17.82a0.81 0.81 0 0 1 0.81 0.81z" opacity=".2"/><path d="M20.91 3.09H3.09a1.62 1.62 0 0 0-1.62 1.62v14.58a1.62 1.62 0 0 0 1.62 1.62h17.82a1.62 1.62 0 0 0 1.62-1.62V4.71a1.62 1.62 0 0 0-1.62-1.62m0 1.62v10.404l-2.64-2.639a1.62 1.62 0 0 0-2.291 0l-2.025 2.026-4.456-4.456a1.62 1.62 0 0 0-2.291 0l-4.118 4.119V4.71z m-17.82 11.746l5.266-5.266 8.1 8.1H3.091z m17.82 2.834h-2.164l-3.644-3.644 2.026-2.026 3.783 3.785zM13.62 9.164a1.216 1.216 0 1 1 1.216 1.215 1.216 1.216 0 0 1-1.216-1.215"/></svg>