<svg width="24" height="24" viewBox="0 0 24 24" fill="none" xmlns="http://www.w3.org/2000/svg">
<path d="M20.6001 14.7305C20.6 15.0064 20.3761 15.2304 20.1001 15.2305H18.6089C18.4764 15.2305 18.3491 15.1776 18.2554 15.084L16.398 13.2266C16.3652 13.1938 16.3203 13.1748 16.2739 13.1748C16.2276 13.1748 16.1827 13.1938 16.1499 13.2266L13.9829 15.3916C13.888 15.4864 13.7586 15.5393 13.6245 15.5381C13.4904 15.5368 13.3622 15.4814 13.2691 15.3848L13.2495 15.3643L9.08645 11.2012C9.0703 11.185 9.0509 11.1719 9.02981 11.1631C9.00856 11.1543 8.98542 11.1494 8.96242 11.1494C8.93943 11.1494 8.91629 11.1543 8.89504 11.1631C8.87395 11.1719 8.85455 11.185 8.8384 11.2012L4.25344 15.7871C4.05822 15.9822 3.74164 15.9822 3.54641 15.7871C3.44883 15.6896 3.4 15.5615 3.39992 15.4336V5.92481C3.40003 5.27603 3.92595 4.75011 4.57473 4.75001H19.4253C20.074 4.75022 20.6 5.2761 20.6001 5.92481V14.7305Z" fill="black" fill-opacity="0.2"/>
<path fill-rule="evenodd" clip-rule="evenodd" d="M20.1016 16.25C20.3777 16.25 20.6016 16.4739 20.6016 16.75V18.25H22.1016C22.3777 18.25 22.6016 18.4739 22.6016 18.75C22.6016 19.0261 22.3777 19.25 22.1016 19.25H20.6016V20.75C20.6016 21.0261 20.3777 21.25 20.1016 21.25C19.8256 21.2498 19.6016 21.026 19.6016 20.75V19.25H18.1016C17.8256 19.2498 17.6016 19.026 17.6016 18.75C17.6016 18.474 17.8256 18.2502 18.1016 18.25H19.6016V16.75C19.6016 16.474 19.8256 16.2502 20.1016 16.25ZM19.4238 4.75C20.0723 4.75047 20.5985 5.27625 20.5986 5.9248V14.7305C20.5985 15.0063 20.3744 15.2301 20.0986 15.2305H18.6074C18.475 15.2305 18.3476 15.1775 18.2539 15.084L16.3965 13.2266C16.3638 13.1939 16.3187 13.1749 16.2725 13.1748C16.2262 13.1748 16.1812 13.1939 16.1484 13.2266L13.9814 15.3916C13.8867 15.4863 13.757 15.5392 13.623 15.5381C13.489 15.5368 13.3607 15.4812 13.2676 15.3848L13.248 15.3643L9.08496 11.2012C9.06891 11.1851 9.04925 11.1719 9.02832 11.1631C9.00722 11.1543 8.98377 11.1495 8.96094 11.1494C8.93809 11.1494 8.91469 11.1544 8.89355 11.1631C8.87257 11.1718 8.85302 11.1851 8.83691 11.2012L4.39844 15.6396V18.0752C4.39854 18.1717 4.47674 18.2499 4.57324 18.25H16.0869C16.3626 18.2505 16.5868 18.4742 16.5869 18.75C16.5868 19.0258 16.3626 19.2495 16.0869 19.25H4.57324C3.92446 19.2499 3.39756 18.724 3.39746 18.0752V5.9248C3.39757 5.27603 3.92446 4.75011 4.57324 4.75H19.4238ZM4.57324 5.75C4.47675 5.75011 4.39854 5.82831 4.39844 5.9248V14.2256L8.12988 10.4941L8.21484 10.417C8.30398 10.3438 8.4038 10.2836 8.51074 10.2393C8.65326 10.1802 8.80667 10.1494 8.96094 10.1494C9.11519 10.1495 9.26864 10.1802 9.41113 10.2393C9.55345 10.2984 9.68306 10.3851 9.79199 10.4941L13.6279 14.3301L15.4414 12.5186C15.6617 12.2985 15.9611 12.1748 16.2725 12.1748C16.5836 12.1749 16.8824 12.2988 17.1025 12.5186H17.1035L18.8145 14.2305H19.5986V5.9248C19.5985 5.82854 19.52 5.75047 19.4238 5.75H4.57324ZM14.3691 8.79395C14.8383 8.79416 15.2187 9.17431 15.2188 9.64355C15.2188 10.1129 14.8384 10.4939 14.3691 10.4941C13.8997 10.4941 13.5186 10.113 13.5186 9.64355C13.5186 9.17418 13.8997 8.79395 14.3691 8.79395Z" fill="black"/>
</svg>
