<svg width="24" height="24" viewBox="0 0 24 24" fill="none" xmlns="http://www.w3.org/2000/svg">
<path d="M3 15.8146L8.09432 10.7194C8.16398 10.6497 8.24669 10.5943 8.33774 10.5566C8.42879 10.5189 8.52638 10.4994 8.62494 10.4994C8.7235 10.4994 8.8211 10.5189 8.91215 10.5566C9.00319 10.5943 9.08591 10.6497 9.15556 10.7194L13.8042 15.468L20.9998 8.33752V5.24999C20.9998 4.83578 20.664 4.5 20.2498 4.5H3.74999C3.33578 4.5 3 4.83578 3 5.24999V15.8146Z" fill="black" fill-opacity="0.2"/>
<path d="M3 15.75V18.75C3 19.1642 3.33578 19.5 3.74999 19.5H13.125M3 15.8094V5.24999C3 4.83578 3.33578 4.5 3.74999 4.5H20.2498C20.664 4.5 20.9998 4.83578 20.9998 5.24999V8.33752L13.8042 15.468L9.15556 10.7194C9.08591 10.6497 9.00319 10.5943 8.91215 10.5566C8.8211 10.5189 8.7235 10.4994 8.62494 10.4994C8.52638 10.4994 8.42879 10.5189 8.33774 10.5566C8.24669 10.5943 8.16398 10.6497 8.09432 10.7194L3 15.8146M19.3699 14.1722L21.2269 16.0292M15 8.99998C15 9.41419 14.6642 9.74998 14.25 9.74998C13.8358 9.74998 13.5 9.41419 13.5 8.99998C13.5 8.58576 13.8358 8.24998 14.25 8.24998C14.6642 8.24998 15 8.58576 15 8.99998ZM18.2801 19.488H16.5887C16.5084 19.488 16.4314 19.4561 16.3746 19.3993C16.3178 19.3425 16.2859 19.2655 16.2859 19.1852V17.4938C16.286 17.4136 16.3178 17.3367 16.3745 17.28L21.0418 12.6127C21.0986 12.5559 21.1756 12.524 21.2559 12.524C21.3361 12.524 21.4131 12.5559 21.4699 12.6127L23.1613 14.3029C23.218 14.3597 23.2499 14.4367 23.2499 14.5169C23.2499 14.5972 23.218 14.6742 23.1613 14.731L18.494 19.3994C18.4372 19.4561 18.3603 19.488 18.2801 19.488Z" stroke="black" stroke-width="1.5" stroke-linecap="round" stroke-linejoin="round"/>
</svg>
