<svg width="24" height="24" viewBox="0 0 24 24" fill="none" xmlns="http://www.w3.org/2000/svg">
<path d="M6 12.0647L9.59437 8.46937C9.66403 8.39964 9.74675 8.34432 9.83779 8.30658C9.92884 8.26884 10.0264 8.24941 10.125 8.24941C10.2236 8.24941 10.3212 8.26884 10.4122 8.30658C10.5033 8.34432 10.586 8.39964 10.6556 8.46937L15.3103 13.125L17.7188 10.7194C17.8594 10.5788 18.0501 10.4999 18.2489 10.4999C18.4477 10.4999 18.6384 10.5788 18.7791 10.7194L21 12.9431V5.25C21 5.05109 20.921 4.86032 20.7803 4.71967C20.6397 4.57902 20.4489 4.5 20.25 4.5H6.75C6.55109 4.5 6.36032 4.57902 6.21967 4.71967C6.07902 4.86032 6 5.05109 6 5.25V12.0647Z" fill="black" fill-opacity="0.2"/>
<path d="M21 12.9427V5.25C21 4.83579 20.6642 4.5 20.25 4.5H6.75C6.33579 4.5 6 4.83579 6 5.25V7.5M21 12.9427V15.75C21 16.1642 20.6642 16.5 20.25 16.5H18M21 12.9427L18.7791 10.719C18.6384 10.5784 18.4477 10.4995 18.2489 10.4995C18.0501 10.4995 17.8594 10.5784 17.7188 10.719L15.3103 13.1246L10.6556 8.46899C10.586 8.39926 10.5033 8.34394 10.4122 8.30619C10.3212 8.26845 10.2236 8.24902 10.125 8.24902C10.0264 8.24902 9.92884 8.26845 9.83779 8.30619C9.74675 8.34394 9.66403 8.39926 9.59437 8.46899L6 12.0643M18 16.5H6.75C6.33579 16.5 6 16.1642 6 15.75V12.0643M18 16.5V18.75C18 18.9489 17.921 19.1397 17.7803 19.2803C17.6397 19.421 17.4489 19.5 17.25 19.5H3.75C3.55109 19.5 3.36032 19.421 3.21967 19.2803C3.07902 19.1397 3 18.9489 3 18.75V8.25C3 8.05109 3.07902 7.86032 3.21967 7.71967C3.36032 7.57902 3.55109 7.5 3.75 7.5H6M6 12.0643V7.5M16.1241 7.49851C16.3312 7.49851 16.4991 7.6664 16.4991 7.87351C16.4991 8.08061 16.3312 8.24851 16.1241 8.24851C15.9169 8.24851 15.7491 8.08061 15.7491 7.87351C15.7491 7.6664 15.9169 7.49851 16.1241 7.49851Z" stroke="black" stroke-width="1.5" stroke-linecap="round" stroke-linejoin="round"/>
</svg>
