<svg width="24" height="24" viewBox="0 0 24 24" fill="none" xmlns="http://www.w3.org/2000/svg">
<path d="M3 15.8148L8.09437 10.7194C8.16402 10.6497 8.24674 10.5944 8.33779 10.5566C8.42884 10.5189 8.52643 10.4995 8.62499 10.4995C8.72356 10.4995 8.82115 10.5189 8.9122 10.5566C9.00325 10.5944 9.08596 10.6497 9.15562 10.7194L13.7816 15.3454L13.8103 15.3752L16.2187 12.9695C16.3593 12.829 16.55 12.75 16.7489 12.75C16.9477 12.75 17.1384 12.829 17.279 12.9695L19.3431 15.0336H21V12.4246V5.25C21 4.83579 20.6642 4.5 20.25 4.5H3.75C3.33579 4.5 3 4.83579 3 5.25V15.8148Z" fill="black" fill-opacity="0.2"/>
<path d="M16.5422 19.5H3.75C3.33579 19.5 3 19.1642 3 18.75V5.25C3 4.83579 3.33579 4.5 3.75 4.5H20.25C20.6642 4.5 21 4.83579 21 5.25V15.0336H19.3431L17.279 12.9695C17.1384 12.829 16.9477 12.75 16.7489 12.75C16.55 12.75 16.3593 12.829 16.2187 12.9695L13.8103 15.3752L13.7816 15.3454L9.15562 10.7194C9.08596 10.6497 9.00325 10.5944 8.9122 10.5566C8.82115 10.5189 8.72356 10.4995 8.62499 10.4995C8.52643 10.4995 8.42884 10.5189 8.33779 10.5566C8.24674 10.5944 8.16402 10.6497 8.09437 10.7194L3 15.8148M18.7822 19.5H23.2267M21.0044 17.2776V21.7221M15 9C15 9.41421 14.6642 9.75 14.25 9.75C13.8358 9.75 13.5 9.41421 13.5 9C13.5 8.58579 13.8358 8.25 14.25 8.25C14.6642 8.25 15 8.58579 15 9Z" stroke="black" stroke-width="1.5" stroke-linecap="round" stroke-linejoin="round"/>
</svg>
