<svg width="24" height="24" viewBox="0 0 24 24" fill="none" xmlns="http://www.w3.org/2000/svg">
<path fill-rule="evenodd" clip-rule="evenodd" d="M5.86388 5.25H18.1366C18.4755 5.25 18.7502 5.52473 18.7502 5.86364V13.4976L15.8623 10.6728C15.8063 10.618 15.7399 10.5746 15.6667 10.5449C15.5936 10.5153 15.5151 10.5 15.436 10.5C15.3568 10.5 15.2783 10.5153 15.2052 10.5449C15.132 10.5746 15.0656 10.618 15.0096 10.6728L6.75024 18.75H5.86388C5.52498 18.75 5.25024 18.4753 5.25024 18.1364V5.86364C5.25024 5.52473 5.52498 5.25 5.86388 5.25ZM9.58838 11.0884C10.4168 11.0884 11.0884 10.4168 11.0884 9.5884C11.0884 8.75996 10.4168 8.08838 9.58838 8.08838C8.75995 8.08838 8.08838 8.75996 8.08838 9.5884C8.08838 10.4168 8.75995 11.0884 9.58838 11.0884Z" fill="black" fill-opacity="0.2"/>
<path d="M6.75 18.75L15.0094 10.6728C15.0653 10.618 15.1318 10.5746 15.2049 10.5449C15.2781 10.5153 15.3565 10.5 15.4357 10.5C15.5149 10.5 15.5933 10.5153 15.6665 10.5449C15.7396 10.5746 15.8061 10.618 15.862 10.6728L18.75 13.4976M9.75 2.25H14.25M21.75 9.75V14.25M9.75 21.75H14.25M2.25 9.75V14.25M2.25 5.25V3C2.25 2.58579 2.58579 2.25 3 2.25H5.25M18.75 2.25L21 2.25C21.4142 2.25 21.75 2.58579 21.75 3V5.25M21.75 18.75V21C21.75 21.4142 21.4142 21.75 21 21.75H18.75M5.25 21.75H3C2.58579 21.75 2.25 21.4142 2.25 21L2.25 18.75M5.86388 5.25H18.1366C18.4755 5.25 18.7502 5.52473 18.7502 5.86364V18.1364C18.7502 18.4753 18.4755 18.75 18.1366 18.75H5.86388C5.52498 18.75 5.25024 18.4753 5.25024 18.1364V5.86364C5.25024 5.52473 5.52498 5.25 5.86388 5.25ZM11.0884 9.5884C11.0884 10.4168 10.4168 11.0884 9.58838 11.0884C8.75995 11.0884 8.08838 10.4168 8.08838 9.5884C8.08838 8.75996 8.75995 8.08838 9.58838 8.08838C10.4168 8.08838 11.0884 8.75996 11.0884 9.5884Z" stroke="black" stroke-width="1.5" stroke-linecap="round" stroke-linejoin="round"/>
</svg>
