<svg viewBox="0 0 24 24" fill="none" xmlns="http://www.w3.org/2000/svg" width="24" height="24">
<path d="M8.174 10.227L2.702 15.698C2.551 15.85 2.292 15.743 2.292 15.529V4.14C2.292 4.007 2.4 3.9 2.532 3.9L21.48 3.9C21.613 3.9 21.72 4.007 21.72 4.14V7.922C21.72 7.986 21.694 8.047 21.649 8.092L14.103 15.559C14.009 15.652 13.856 15.651 13.763 15.557L8.515 10.228C8.421 10.133 8.268 10.133 8.174 10.227Z" fill="black" fill-opacity="0.2"/>
<path d="M22.207 10.801C22.4 10.82 22.582 10.897 22.732 11.019L22.805 11.084 24.935 13.213C25.119 13.397 25.222 13.647 25.222 13.907 25.222 14.167 25.119 14.416 24.935 14.6L19.056 20.482H19.055C18.894 20.642 18.683 20.742 18.459 20.764L18.362 20.769H16.23C15.971 20.769 15.72 20.666 15.537 20.482 15.353 20.298 15.25 20.048 15.25 19.788V17.657L15.254 17.561C15.277 17.336 15.376 17.125 15.537 16.964L21.417 11.084 21.489 11.019C21.663 10.876 21.883 10.797 22.111 10.797L22.207 10.801ZM20.909 3.3C21.687 3.301 22.318 3.932 22.318 4.71V8.045C22.318 8.205 22.254 8.358 22.14 8.47L14.37 16.172C14.256 16.284 14.101 16.346 13.942 16.345 13.782 16.344 13.629 16.279 13.518 16.165L8.502 11.041 8.434 10.996C8.409 10.985 8.381 10.979 8.353 10.979 8.326 10.979 8.298 10.985 8.272 10.996 8.247 11.006 8.224 11.022 8.204 11.041L2.878 16.368V19.29C2.878 19.406 2.972 19.5 3.088 19.5H13.432C13.763 19.5 14.032 19.769 14.032 20.1 14.032 20.431 13.763 20.7 13.432 20.7H3.088C2.309 20.7 1.677 20.069 1.677 19.29V4.71C1.677 3.931 2.309 3.3 3.088 3.3H20.909ZM16.45 17.748V19.569H18.272L21.968 15.87 20.147 14.048 16.45 17.748ZM3.088 4.5C2.972 4.5 2.878 4.594 2.878 4.71V14.671L7.356 10.193 7.458 10.1C7.565 10.013 7.685 9.94 7.813 9.887 7.984 9.816 8.168 9.779 8.353 9.779 8.538 9.779 8.722 9.816 8.893 9.887 9.064 9.958 9.22 10.062 9.35 10.193L9.355 10.198 13.952 14.895 21.118 7.793V4.71C21.118 4.594 21.024 4.501 20.909 4.5H3.088ZM14.843 8.153C15.406 8.153 15.862 8.609 15.863 9.172 15.863 9.735 15.406 10.193 14.843 10.193 14.28 10.193 13.822 9.736 13.822 9.172 13.822 8.609 14.28 8.153 14.843 8.153Z" fill="black"/>
</svg>