<svg xmlns="http://www.w3.org/2000/svg" width="24" height="24" fill="currentColor" viewBox="0 0 24 24"><path d="M20.91 3.9v16.2H3.09V3.9a1.62 1.62 0 0 1 1.62-1.62h14.58a1.62 1.62 0 0 1 1.62 1.62" opacity=".2"/><path d="M21.72 13.62v6.48a0.81 0.81 0 0 1-0.81 0.81H3.09a0.81 0.81 0 0 1-0.81-0.81v-6.48a0.81 0.81 0 0 1 1.62 0v5.67h16.2V13.62a0.81 0.81 0 0 1 1.62 0m-10.294 0.574a0.81 0.81 0 0 0 1.146 0l4.05-4.05a0.81 0.81 0 0 0-1.146-1.146l-2.666 2.667V2.28a0.81 0.81 0 0 0-1.62 0v9.385L8.524 8.998a0.81 0.81 0 0 0-1.146 1.146z"/></svg>