<svg width="24" height="24" viewBox="0 0 24 24" fill="none" xmlns="http://www.w3.org/2000/svg">
<path d="M7.18875 15C7.28727 14.9999 7.38484 15.0193 7.47589 15.0569C7.56693 15.0945 7.64967 15.1497 7.71937 15.2194L9.52969 17.0306C9.59939 17.1003 9.68213 17.1555 9.77318 17.1931C9.86422 17.2307 9.96179 17.2501 10.0603 17.25H13.9387C14.0373 17.2501 14.1348 17.2307 14.2259 17.1931C14.3169 17.1555 14.3997 17.1003 14.4694 17.0306L16.2797 15.2194C16.3494 15.1497 16.4321 15.0945 16.5232 15.0569C16.6142 15.0193 16.7118 14.9999 16.8103 15H20.25V4.5C20.25 4.30109 20.171 4.11032 20.0303 3.96967C19.8897 3.82902 19.6989 3.75 19.5 3.75H4.5C4.30109 3.75 4.11032 3.82902 3.96967 3.96967C3.82902 4.11032 3.75 4.30109 3.75 4.5V15H7.18875Z" fill="black" fill-opacity="0.2"/>
<path d="M3.75 15H7.18969C7.38834 15.0001 7.57883 15.079 7.71937 15.2194L9.53063 17.0306C9.67117 17.171 9.86166 17.2499 10.0603 17.25H13.9397C14.1383 17.2499 14.3288 17.171 14.4694 17.0306L16.2806 15.2194C16.4212 15.079 16.6117 15.0001 16.8103 15H20.25M4.5 3.75H19.5C19.9142 3.75 20.25 4.08579 20.25 4.5V19.5C20.25 19.9142 19.9142 20.25 19.5 20.25H4.5C4.08579 20.25 3.75 19.9142 3.75 19.5V4.5C3.75 4.08579 4.08579 3.75 4.5 3.75Z" stroke="black" stroke-width="1.5" stroke-linecap="round" stroke-linejoin="round"/>
</svg>
