<svg viewBox="0 0 24 24" fill="none" xmlns="http://www.w3.org/2000/svg" width="24" height="24">
<path opacity="0.2" d="M3.09 6.96C3.09 6.463 3.493 6.06 3.99 6.06H20.01C20.507 6.06 20.91 6.463 20.91 6.96V17.04C20.91 17.537 20.507 17.94 20.01 17.94H3.99C3.493 17.94 3.09 17.537 3.09 17.04V6.96Z" fill="black"/>
<path d="M12.6 20.91C12.6 21.241 12.331 21.51 12 21.51 11.669 21.51 11.4 21.241 11.4 20.91L11.4 3.09C11.4 2.759 11.669 2.49 12 2.49 12.331 2.49 12.6 2.759 12.6 3.09V20.91Z" fill="black"/>
<path d="M3.693 17.95C3.692 18.281 3.424 18.55 3.093 18.55 2.761 18.55 2.493 18.281 2.493 17.95L2.493 6.069C2.493 5.738 2.761 5.469 3.093 5.469 3.424 5.469 3.693 5.738 3.693 6.069L3.693 17.95Z" fill="black"/>
<path d="M21.518 17.94C21.518 18.271 21.249 18.54 20.918 18.54 20.587 18.54 20.318 18.271 20.318 17.94V6.06C20.318 5.728 20.587 5.46 20.918 5.46 21.249 5.46 21.518 5.728 21.518 6.06V17.94Z" fill="black"/>
<path d="M7.721 9.855C7.956 9.621 8.336 9.621 8.57 9.855 8.804 10.09 8.804 10.47 8.57 10.704L7.274 12 8.57 13.296C8.804 13.53 8.804 13.91 8.57 14.145 8.336 14.379 7.956 14.379 7.721 14.145L6.001 12.424C5.767 12.19 5.767 11.81 6.001 11.576L7.721 9.855Z" fill="black"/>
<path d="M16.289 14.145C16.054 14.379 15.674 14.379 15.44 14.145 15.206 13.91 15.206 13.53 15.44 13.296L16.736 12 15.44 10.704C15.206 10.47 15.206 10.09 15.44 9.855 15.674 9.621 16.054 9.621 16.289 9.855L18.009 11.576C18.243 11.81 18.243 12.19 18.009 12.424L16.289 14.145Z" fill="black"/>
</svg>