<svg xmlns="http://www.w3.org/2000/svg" width="24" height="24" fill="currentColor" viewBox="0 0 24 24"><path d="M24.15 11.19v6.48a0.81 0.81 0 0 1-0.81 0.81h-2.43a2.43 2.43 0 0 0-4.86 0h-6.48a2.43 2.43 0 0 0-4.86 0H2.28a0.81 0.81 0 0 1-0.81-0.81V13.62h16.2v-2.43z" opacity=".2"/><path d="M24.901 10.886L23.484 7.343a1.608 1.608 0 0 0-1.502-1.013H18.48V5.52a0.81 0.81 0 0 0-0.81-0.81H2.28a1.62 1.62 0 0 0-1.62 1.62v11.34a1.62 1.62 0 0 0 1.62 1.62h1.721a3.24 3.24 0 0 0 6.277 0h5.063a3.24 3.24 0 0 0 6.277 0h1.721a1.62 1.62 0 0 0 1.62-1.62v-6.48a0.84 0.84 0 0 0-0.059-0.304zM18.48 7.95h3.502l0.972 2.43H18.48zM2.28 6.33h14.58v6.48H2.28zM7.14 20.1A1.62 1.62 0 1 1 8.76 18.48a1.62 1.62 0 0 1-1.62 1.62m8.201-2.43h-5.063a3.24 3.24 0 0 0-6.277 0H2.28v-3.24h14.58v1.247a3.24 3.24 0 0 0-1.519 1.993M18.48 20.1a1.62 1.62 0 1 1 1.62-1.62 1.62 1.62 0 0 1-1.62 1.62m4.86-2.43h-1.721A3.246 3.246 0 0 0 18.48 15.24V12h4.86z"/></svg>