<svg xmlns="http://www.w3.org/2000/svg" width="24" height="24" fill="currentColor" viewBox="0 0 24 24"><path d="M21.72 12A9.72 9.72 0 1 1 12 2.28a9.72 9.72 0 0 1 9.72 9.72" opacity=".2"/><path d="M13.62 16.86a0.81 0.81 0 0 1-0.81 0.81 1.62 1.62 0 0 1-1.62-1.62V12a0.81 0.81 0 0 1 0-1.62 1.62 1.62 0 0 1 1.62 1.62v4.05a0.81 0.81 0 0 1 0.81 0.81M22.53 12A10.53 10.53 0 1 1 12 1.47 10.541 10.541 0 0 1 22.53 12m-1.62 0A8.91 8.91 0 1 0 12 20.91 8.92 8.92 0 0 0 20.91 12m-9.316-3.24a1.216 1.216 0 1 0-1.215-1.216A1.216 1.216 0 0 0 11.594 8.76"/></svg>