<svg width="24" height="24" viewBox="0 0 24 24" fill="none" xmlns="http://www.w3.org/2000/svg">
<path d="M12 21C16.9706 21 21 16.9706 21 12C21 7.02944 16.9706 3 12 3C7.02944 3 3 7.02944 3 12C3 16.9706 7.02944 21 12 21Z" fill="black" fill-opacity="0.2"/>
<path d="M11.625 8.25C11.8321 8.25 12 8.08211 12 7.875C12 7.66789 11.8321 7.5 11.625 7.5C11.4179 7.5 11.25 7.66789 11.25 7.875C11.25 8.08211 11.4179 8.25 11.625 8.25Z" fill="black"/>
<path d="M11.25 11.25C11.4489 11.25 11.6397 11.329 11.7803 11.4697C11.921 11.6103 12 11.8011 12 12V15.75C12 15.9489 12.079 16.1397 12.2197 16.2803C12.3603 16.421 12.5511 16.5 12.75 16.5M21 12C21 16.9706 16.9706 21 12 21C7.02944 21 3 16.9706 3 12C3 7.02944 7.02944 3 12 3C16.9706 3 21 7.02944 21 12ZM12 7.875C12 8.08211 11.8321 8.25 11.625 8.25C11.4179 8.25 11.25 8.08211 11.25 7.875C11.25 7.66789 11.4179 7.5 11.625 7.5C11.8321 7.5 12 7.66789 12 7.875Z" stroke="black" stroke-width="1.5" stroke-linecap="round" stroke-linejoin="round"/>
</svg>
