<svg xmlns="http://www.w3.org/2000/svg" width="24" height="24" fill="currentColor" viewBox="0 0 24 24"><path d="M5.52 10.38v3.24a0.81 0.81 0 0 1-0.81 0.81h-3.24a0.81 0.81 0 0 1-0.81-0.81v-3.24a0.81 0.81 0 0 1 0.81-0.81h3.24a0.81 0.81 0 0 1 0.81 0.81m14.58-7.29H15.24a0.81 0.81 0 0 0-0.81 0.81V8.76a0.81 0.81 0 0 0 0.81 0.81h4.86a0.81 0.81 0 0 0 0.81-0.81V3.9a0.81 0.81 0 0 0-0.81-0.81m0 11.34H15.24a0.81 0.81 0 0 0-0.81 0.81v4.86a0.81 0.81 0 0 0 0.81 0.81h4.86a0.81 0.81 0 0 0 0.81-0.81V15.24a0.81 0.81 0 0 0-0.81-0.81" opacity=".2"/><path d="M15.24 10.38h4.86A1.62 1.62 0 0 0 21.72 8.76V3.9a1.62 1.62 0 0 0-1.62-1.62H15.24a1.62 1.62 0 0 0-1.62 1.62V5.52H12a2.43 2.43 0 0 0-2.43 2.43v3.24h-3.24v-0.81a1.62 1.62 0 0 0-1.62-1.62h-3.24a1.62 1.62 0 0 0-1.62 1.62v3.24a1.62 1.62 0 0 0 1.62 1.62h3.24a1.62 1.62 0 0 0 1.62-1.62v-0.81h3.24v3.24A2.43 2.43 0 0 0 12 18.48h1.62v1.62a1.62 1.62 0 0 0 1.62 1.62h4.86a1.62 1.62 0 0 0 1.62-1.62V15.24a1.62 1.62 0 0 0-1.62-1.62H15.24a1.62 1.62 0 0 0-1.62 1.62v1.62H12a0.81 0.81 0 0 1-0.81-0.81v-8.1A0.81 0.81 0 0 1 12 7.14h1.62V8.76a1.62 1.62 0 0 0 1.62 1.62m-10.53 3.24h-3.24v-3.24h3.24zM15.24 15.24h4.86v4.86H15.24z m0-11.34h4.86V8.76H15.24z"/></svg>