<svg viewBox="0 0 24 24" fill="none" xmlns="http://www.w3.org/2000/svg" width="24" height="24">
<path d="M19.8 17.4C20.131 17.4 20.4 17.131 20.4 16.8 20.4 16.469 20.131 16.2 19.8 16.2H13.2C12.869 16.2 12.6 16.469 12.6 16.8 12.6 17.131 12.869 17.4 13.2 17.4H19.8Z" fill="black"/>
<path d="M23.366 12.6C23.697 12.6 23.966 12.331 23.966 12 23.966 11.669 23.697 11.4 23.366 11.4H13.2C12.869 11.4 12.6 11.669 12.6 12 12.6 12.331 12.869 12.6 13.2 12.6H23.366Z" fill="black"/>
<path d="M19.8 7.8C20.131 7.8 20.4 7.531 20.4 7.2 20.4 6.869 20.131 6.6 19.8 6.6H13.2C12.869 6.6 12.6 6.869 12.6 7.2 12.6 7.531 12.869 7.8 13.2 7.8H19.8Z" fill="black"/>
<path d="M8.146 11.395L5.575 8.824C5.34 8.59 5.34 8.21 5.575 7.976 5.809 7.741 6.189 7.741 6.423 7.976L10.018 11.571 10.096 11.665C10.25 11.898 10.223 12.214 10.018 12.42L6.424 16.014C6.19 16.248 5.81 16.248 5.576 16.014 5.341 15.779 5.341 15.4 5.576 15.165L8.146 12.595H2.306L0.601 12.6C0.27 12.601 0.001 12.332 0 12.001-0.001 11.67 0.268 11.401 0.599 11.4L2.303 11.395H8.146Z" fill="black"/>
<path d="M13.2 7.2H19.8L22.995 11.46C23.235 11.78 23.235 12.22 22.995 12.54L19.8 16.8H13.2V7.2Z" fill="black" fill-opacity="0.2"/>
</svg>