<svg viewBox="0 0 24 24" fill="none" xmlns="http://www.w3.org/2000/svg" width="24" height="24">
<path d="M13.2 9.6H23.4L19.98 14.16C19.863 14.316 19.8 14.505 19.8 14.7V18H13.2V9.6Z" fill="black" fill-opacity="0.2"/>
<path d="M23.366 8.989C23.697 8.989 23.966 9.258 23.966 9.589 23.966 9.921 23.697 10.189 23.366 10.189H13.2C12.869 10.189 12.6 9.921 12.6 9.589 12.6 9.258 12.869 8.989 13.2 8.989H23.366Z" fill="black"/>
<path d="M19.8 13.789C20.131 13.789 20.4 14.058 20.4 14.389 20.4 14.721 20.131 14.989 19.8 14.989H13.2C12.869 14.989 12.6 14.721 12.6 14.389 12.6 14.058 12.869 13.789 13.2 13.789H19.8Z" fill="black"/>
<path d="M19.8 17.389C20.131 17.389 20.4 17.658 20.4 17.989 20.4 18.321 20.131 18.589 19.8 18.589H13.2C12.869 18.589 12.6 18.321 12.6 17.989 12.6 17.658 12.869 17.389 13.2 17.389H19.8Z" fill="black"/>
<path d="M8.146 10.194L5.575 12.765C5.34 12.999 5.34 13.379 5.575 13.614 5.809 13.848 6.189 13.848 6.423 13.614L10.018 10.018 10.096 9.925C10.25 9.692 10.223 9.375 10.018 9.17L6.424 5.576C6.19 5.341 5.81 5.341 5.576 5.576 5.341 5.81 5.341 6.19 5.576 6.424L8.146 8.994H2.306L0.601 8.989C0.27 8.989 0.001 9.257 0 9.588-0.001 9.919 0.268 10.188 0.599 10.189L2.303 10.194H8.146Z" fill="black"/>
</svg>