<svg width="24" height="24" viewBox="0 0 24 24" fill="none" xmlns="http://www.w3.org/2000/svg">
<path d="M14.25 3V8.25H19.5L14.25 3Z" fill="black" fill-opacity="0.2"/>
<path d="M4.5 10.5V3.75C4.5 3.55109 4.57902 3.36032 4.71967 3.21967C4.86032 3.07902 5.05109 3 5.25 3H14.25L19.5 8.25V20.25C19.5 20.4489 19.421 20.6397 19.2803 20.7803C19.1397 20.921 18.9489 21 18.75 21H16.5M19.5 8.25H14.25V3M12.7406 14.4001C12.7406 14.4001 9.98151 13.6707 9.75932 15.4314C9.53714 17.192 13.3621 16.3801 13.1137 18.3114C12.8821 20.1076 10.1343 19.3426 10.1343 19.3426M3.375 17.8125C3.375 18.2601 3.55279 18.6893 3.86926 19.0057C4.18573 19.3222 4.61495 19.5 5.0625 19.5C5.51005 19.5 5.93928 19.3222 6.25574 19.0057C6.57221 18.6893 6.75 18.2601 6.75 17.8125V14.25" stroke="black" stroke-width="1.5" stroke-linecap="round" stroke-linejoin="round"/>
</svg>
