<svg width="24" height="24" viewBox="0 0 24 24" fill="none" xmlns="http://www.w3.org/2000/svg">
<path d="M9 6.50195H15.0032V17.502H9V6.50195Z" fill="black" fill-opacity="0.2"/>
<path d="M12.5 19.5C12.5 19.7761 12.2761 20 12 20C11.7239 20 11.5 19.7761 11.5 19.5L11.5 4.5C11.5 4.22386 11.7239 4 12 4C12.2761 4 12.5 4.22386 12.5 4.5L12.5 19.5Z" fill="black"/>
<path d="M4.50391 6.75C4.50391 6.33579 4.83969 6 5.25391 6H8.75391C9.16812 6 9.50391 6.33579 9.50391 6.75V17.25C9.50391 17.6642 9.16812 18 8.75391 18H5.25391C4.83969 18 4.50391 17.6642 4.50391 17.25V6.75Z" fill="black"/>
<path d="M14.4961 6.75C14.4961 6.33579 14.8319 6 15.2461 6H18.7461C19.1603 6 19.4961 6.33579 19.4961 6.75V17.25C19.4961 17.6642 19.1603 18 18.7461 18H15.2461C14.8319 18 14.4961 17.6642 14.4961 17.25V6.75Z" fill="black"/>
</svg>
