<svg width="24" height="24" viewBox="0 0 24 24" fill="none" xmlns="http://www.w3.org/2000/svg">
<path d="M18.0005 15.0156C18.4147 15.0156 18.7505 15.3514 18.7505 15.7656V17.9995C18.7505 18.4137 18.4147 18.7495 18.0005 18.7495H5.99951C5.5853 18.7495 5.24951 18.4137 5.24951 17.9995V15.7656C5.24951 15.3514 5.5853 15.0156 5.99951 15.0156H18.0005Z" fill="black" fill-opacity="0.2"/>
<path d="M18.0005 5.25098C18.4147 5.25098 18.7505 5.58676 18.7505 6.00098V8.23486C18.7505 8.64907 18.4147 8.98485 18.0005 8.98485H5.99951C5.5853 8.98485 5.24951 8.64907 5.24951 8.23485V6.00098C5.24951 5.58676 5.5853 5.25098 5.99951 5.25098H18.0005Z" fill="black" fill-opacity="0.2"/>
<path d="M21 12.0045L3 12.0045M5.24951 15.7658V17.9997C5.24951 18.4139 5.5853 18.7497 5.99951 18.7497H18.0005C18.4147 18.7497 18.7505 18.4139 18.7505 17.9997V15.7658C18.7505 15.3516 18.4147 15.0158 18.0005 15.0158H5.99951C5.5853 15.0158 5.24951 15.3516 5.24951 15.7658ZM5.24951 6.00098V8.23485C5.24951 8.64907 5.5853 8.98485 5.99951 8.98485H18.0005C18.4147 8.98485 18.7505 8.64907 18.7505 8.23486V6.00098C18.7505 5.58676 18.4147 5.25098 18.0005 5.25098H5.99951C5.5853 5.25098 5.24951 5.58676 5.24951 6.00098Z" stroke="black" stroke-width="1.5" stroke-linecap="round"/>
</svg>
