<svg width="24" height="24" viewBox="0 0 24 24" fill="none" xmlns="http://www.w3.org/2000/svg">
<path d="M5.24951 6.00098C5.24951 5.58676 5.5853 5.25098 5.99951 5.25098L8.25146 5.25098C8.66568 5.25098 9.00146 5.58676 9.00146 6.00098L9.00147 18.002C9.00147 18.4162 8.66568 18.752 8.25147 18.752L5.99951 18.752C5.5853 18.752 5.24951 18.4162 5.24951 18.002L5.24951 6.00098Z" fill="black" fill-opacity="0.2"/>
<path d="M14.9986 6.00049C14.9986 5.58627 15.3343 5.25049 15.7486 5.25049L18.0005 5.25049C18.4147 5.25049 18.7505 5.58627 18.7505 6.00049L18.7505 18.0015C18.7505 18.4157 18.4147 18.7515 18.0005 18.7515H15.7486C15.3343 18.7515 14.9986 18.4157 14.9986 18.0015L14.9986 6.00049Z" fill="black" fill-opacity="0.2"/>
<path d="M2.25 3L2.25 21M21.75 3L21.75 21M15.76 18.7505H17.9919C18.4061 18.7505 18.7419 18.4147 18.7419 18.0005V5.99951C18.7419 5.5853 18.4061 5.24951 17.9919 5.24951L15.76 5.24951C15.3458 5.24951 15.01 5.5853 15.01 5.99951L15.01 18.0005C15.01 18.4147 15.3458 18.7505 15.76 18.7505ZM6 18.7505H8.23193C8.64615 18.7505 8.98193 18.4147 8.98193 18.0005L8.98193 5.99951C8.98193 5.5853 8.64615 5.24951 8.23193 5.24951L6 5.24951C5.58579 5.24951 5.25 5.5853 5.25 5.99951L5.25 18.0005C5.25 18.4147 5.58579 18.7505 6 18.7505Z" stroke="black" stroke-width="1.5" stroke-linecap="round"/>
</svg>
