<svg width="24" height="24" viewBox="0 0 24 24" fill="none" xmlns="http://www.w3.org/2000/svg">
<path d="M7 5.50781H17.0083V18.5596H7V5.50781Z" fill="black" fill-opacity="0.2"/>
<path d="M3.00391 19.5C3.00391 19.7761 2.78005 20 2.50391 20C2.22776 20 2.00391 19.7761 2.00391 19.5L2.00391 4.5C2.00391 4.22386 2.22776 4 2.50391 4C2.78005 4 3.00391 4.22386 3.00391 4.5L3.00391 19.5Z" fill="black"/>
<path d="M21.9961 19.5C21.9961 19.7761 21.7722 20 21.4961 20C21.22 20 20.9961 19.7761 20.9961 19.5V4.5C20.9961 4.22386 21.22 4 21.4961 4C21.7722 4 21.9961 4.22386 21.9961 4.5V19.5Z" fill="black"/>
<path d="M3.99658 5.75391C3.99658 5.33969 4.33237 5.00391 4.74658 5.00391H8.24658C8.6608 5.00391 8.99658 5.33969 8.99658 5.75391V18.2539C8.99658 18.6681 8.6608 19.0039 8.24658 19.0039H4.74658C4.33237 19.0039 3.99658 18.6681 3.99658 18.2539V5.75391Z" fill="black"/>
<path d="M14.9993 5.75391C14.9993 5.33969 15.3351 5.00391 15.7493 5.00391H19.2493C19.6635 5.00391 19.9993 5.33969 19.9993 5.75391V18.2539C19.9993 18.6681 19.6635 19.0039 19.2493 19.0039H15.7493C15.3351 19.0039 14.9993 18.6681 14.9993 18.2539V5.75391Z" fill="black"/>
</svg>
