<svg width="24" height="24" viewBox="0 0 24 24" fill="none" xmlns="http://www.w3.org/2000/svg">
<path d="M18.0005 6.74707C18.4147 6.74707 18.7505 7.08286 18.7505 7.49707V9.74902C18.7505 10.1632 18.4147 10.499 18.0005 10.499H5.99951C5.5853 10.499 5.24951 10.1632 5.24951 9.74902V7.49707C5.24951 7.08286 5.5853 6.74707 5.99951 6.74707H18.0005Z" fill="black" fill-opacity="0.2"/>
<path d="M18.0005 13.4918C18.4147 13.4918 18.7505 13.8276 18.7505 14.2418V16.4937C18.7505 16.9079 18.4147 17.2437 18.0005 17.2437H5.99951C5.5853 17.2437 5.24951 16.9079 5.24951 16.4937V14.2418C5.24951 13.8276 5.5853 13.4918 5.99951 13.4918H18.0005Z" fill="black" fill-opacity="0.2"/>
<path d="M21 2.25L3 2.25M21 21.75L3 21.75M5.24951 14.2598V16.4917C5.24951 16.9059 5.5853 17.2417 5.99951 17.2417H18.0005C18.4147 17.2417 18.7505 16.9059 18.7505 16.4917V14.2598C18.7505 13.8456 18.4147 13.5098 18.0005 13.5098H5.99951C5.5853 13.5098 5.24951 13.8456 5.24951 14.2598ZM5.24951 7.49561V9.72754C5.24951 10.1418 5.5853 10.4775 5.99951 10.4775H18.0005C18.4147 10.4775 18.7505 10.1418 18.7505 9.72754V7.49561C18.7505 7.08139 18.4147 6.74561 18.0005 6.74561H5.99951C5.5853 6.74561 5.24951 7.08139 5.24951 7.49561Z" stroke="black" stroke-width="1.5" stroke-linecap="round"/>
</svg>
