<svg viewBox="0 0 24 24" fill="none" xmlns="http://www.w3.org/2000/svg" width="24" height="24">
<path d="M5.4 15.898L5.4 5.098H18.6V15.898H5.4Z" fill="black" fill-opacity="0.2"/>
<path d="M21 20.098C21.331 20.098 21.6 20.366 21.6 20.698 21.6 21.029 21.331 21.298 21 21.298H3C2.669 21.298 2.4 21.029 2.4 20.698 2.4 20.366 2.669 20.098 3 20.098H21Z" fill="black"/>
<path d="M5.705 17.702C5.208 17.702 4.805 17.299 4.805 16.802V12.602C4.805 12.105 5.208 11.702 5.705 11.702H18.305C18.802 11.702 19.205 12.105 19.205 12.602V16.802C19.205 17.299 18.802 17.702 18.305 17.702H5.705Z" fill="black"/>
<path d="M5.705 9.302C5.208 9.302 4.805 8.899 4.805 8.402V4.202C4.805 3.705 5.208 3.302 5.705 3.302H18.305C18.802 3.302 19.205 3.705 19.205 4.202V8.402C19.205 8.899 18.802 9.302 18.305 9.302H5.705Z" fill="black"/>
</svg>