<svg width="24" height="24" viewBox="0 0 24 24" fill="none" xmlns="http://www.w3.org/2000/svg">
<path d="M18.0005 12.0044C18.4147 12.0044 18.7505 12.3402 18.7505 12.7544V14.9883C18.7505 15.4025 18.4147 15.7383 18.0005 15.7383H5.99951C5.5853 15.7383 5.24951 15.4025 5.24951 14.9883V12.7544C5.24951 12.3402 5.5853 12.0044 5.99951 12.0044H18.0005Z" fill="black" fill-opacity="0.2"/>
<path d="M18.0005 5.25098C18.4147 5.25098 18.7505 5.58676 18.7505 6.00098V8.23486C18.7505 8.64907 18.4147 8.98485 18.0005 8.98485H5.99951C5.5853 8.98485 5.24951 8.64907 5.24951 8.23485V6.00098C5.24951 5.58676 5.5853 5.25098 5.99951 5.25098H18.0005Z" fill="black" fill-opacity="0.2"/>
<path d="M21 18.749L3 18.749M5.24951 12.7539V14.9878C5.24951 15.402 5.5853 15.7378 5.99951 15.7378H18.0005C18.4147 15.7378 18.7505 15.402 18.7505 14.9878V12.7539C18.7505 12.3397 18.4147 12.0039 18.0005 12.0039H5.99951C5.5853 12.0039 5.24951 12.3397 5.24951 12.7539ZM5.24951 6.00049V8.23437C5.24951 8.64858 5.5853 8.98437 5.99951 8.98437H18.0005C18.4147 8.98437 18.7505 8.64858 18.7505 8.23437V6.00049C18.7505 5.58627 18.4147 5.25049 18.0005 5.25049H5.99951C5.5853 5.25049 5.24951 5.58627 5.24951 6.00049Z" stroke="black" stroke-width="1.5" stroke-linecap="round"/>
</svg>
