<svg width="24" height="24" viewBox="0 0 24 24" fill="none" xmlns="http://www.w3.org/2000/svg">
<path d="M20.0967 11.6145L12.3816 3.89942C12.1686 3.68638 11.8231 3.68638 11.6101 3.89942L3.89504 11.6145C3.682 11.8275 3.682 12.1729 3.89505 12.386L11.6101 20.101C11.8231 20.3141 12.1686 20.3141 12.3816 20.101L20.0967 12.386C20.3097 12.1729 20.3097 11.8275 20.0967 11.6145Z" fill="black" fill-opacity="0.2"/>
<path d="M20.0967 11.6141L12.3817 3.89904C12.1686 3.686 11.8232 3.686 11.6102 3.89904L3.89514 11.6141C3.68209 11.8271 3.68209 12.1726 3.89514 12.3856L11.6102 20.1007C11.8232 20.3137 12.1686 20.3137 12.3817 20.1007L20.0967 12.3856C20.3098 12.1726 20.3098 11.8271 20.0967 11.6141Z" stroke="black" stroke-width="1.5" stroke-linecap="round" stroke-linejoin="round"/>
</svg>
