<svg viewBox="0 0 24 24" fill="none" xmlns="http://www.w3.org/2000/svg" width="24" height="24">
<path opacity="0.2" d="M12.939 3.38C12.531 2.672 11.468 2.672 11.061 3.38L2.205 18.755C1.827 19.416 2.302 20.28 3.145 20.28H20.856C21.698 20.28 22.172 19.419 21.794 18.758L12.939 3.38Z" fill="black"/>
<path d="M10.021 2.813C10.889 1.302 13.111 1.302 13.979 2.813L22.835 18.189V18.19C23.698 19.696 22.568 21.51 20.856 21.51H3.145C1.433 21.51 0.303 19.696 1.166 18.19V18.189L10.021 2.813ZM12.939 3.411C12.531 2.703 11.469 2.703 11.061 3.411V3.412L2.205 18.786 2.207 18.787C1.828 19.448 2.302 20.31 3.145 20.31H20.856C21.698 20.31 22.172 19.449 21.795 18.788L12.94 3.412 12.939 3.411Z" fill="black"/>
</svg>