<svg xmlns="http://www.w3.org/2000/svg" width="24" height="24" fill="currentColor" viewBox="0 0 24 24"><path d="M20.1 20.91H3.9a0.81 0.81 0 0 1-0.695-1.228l3.087-5.143c1.339-0.251 3.24-0.143 5.707 1.105 3.265 1.654 5.544 1.307 6.834 0.774l1.958 3.263a0.81 0.81 0 0 1-0.691 1.228z" opacity=".2"/><path d="M21.486 19.267L15.24 8.854V3.09h0.81a0.81 0.81 0 0 0 0-1.62h-8.1a0.81 0.81 0 0 0 0 1.62H8.76v5.764l-6.246 10.413A1.62 1.62 0 0 0 3.9 21.72h16.2a1.62 1.62 0 0 0 1.39-2.453z m-11.221-9.773a0.804 0.804 0 0 0 0.115-0.416v-5.988h3.24v5.988a0.804 0.804 0 0 0 0.115 0.416l3.87 6.455c-1.216 0.24-2.944 0.139-5.239-1.023-1.61-0.815-3.144-1.248-4.578-1.298zM3.9 20.1l2.89-4.818c1.442-0.175 3.068 0.187 4.842 1.086 1.924 0.973 3.544 1.304 4.86 1.304a7.2 7.2 0 0 0 1.98-0.273l1.629 2.701z"/></svg>