<svg width="24" height="24" viewBox="0 0 24 24" fill="none" xmlns="http://www.w3.org/2000/svg">
<path d="M9.75293 18.752C10.167 18.7521 10.5029 19.0878 10.5029 19.502V20.252C10.5029 20.6661 10.167 21.0018 9.75293 21.002H3.75293C3.33872 21.002 3.00293 20.6662 3.00293 20.252V19.502C3.00293 19.0877 3.33872 18.752 3.75293 18.752H9.75293ZM20.251 18.7471C20.6652 18.7471 21.001 19.0829 21.001 19.4971V20.2471C21.001 20.6613 20.6652 20.9971 20.251 20.9971H14.251C13.8368 20.9971 13.501 20.6613 13.501 20.2471V19.4971C13.501 19.0829 13.8368 18.7471 14.251 18.7471H20.251ZM20.251 13.5C20.6652 13.5 21.001 13.8358 21.001 14.25V15C21.001 15.4142 20.6652 15.75 20.251 15.75H14.251C13.8368 15.75 13.501 15.4142 13.501 15V14.25C13.501 13.8358 13.8368 13.5 14.251 13.5H20.251ZM9.75293 13.4951C10.167 13.4952 10.5029 13.831 10.5029 14.2451V14.9951C10.5029 15.4092 10.167 15.745 9.75293 15.7451H3.75293C3.33872 15.7451 3.00293 15.4093 3.00293 14.9951V14.2451C3.00293 13.8309 3.33872 13.4951 3.75293 13.4951H9.75293ZM19.5 2.99805C20.3282 2.99831 20.999 3.67076 20.999 4.49902V8.99902C20.9988 9.82723 20.3273 10.498 19.499 10.498H4.49902C3.67082 10.4978 2.99902 9.82631 2.99902 8.99805V4.49805C2.99929 3.66984 3.67174 2.99805 4.5 2.99805H19.5Z" fill="black" fill-opacity="0.2"/>
<path d="M19.4992 2.99829C20.3277 2.99829 20.9992 3.66986 20.9992 4.49829V8.99829C20.9992 9.82672 20.3277 10.4983 19.4992 10.4983L4.49924 10.4983C3.67081 10.4983 2.99924 9.82672 2.99924 8.99829L2.99924 4.49829C2.99924 3.66986 3.67081 2.99829 4.49924 2.99829L19.4992 2.99829Z" stroke="black" stroke-width="1.5"/>
<path d="M21.0008 20.2468C21.0008 20.661 20.665 20.9968 20.2508 20.9968H14.2508C13.8366 20.9968 13.5008 20.661 13.5008 20.2468V19.4968C13.5008 19.0826 13.8366 18.7468 14.2508 18.7468L20.2508 18.7468C20.665 18.7468 21.0008 19.0826 21.0008 19.4968V20.2468Z" stroke="black" stroke-width="1.5"/>
<path d="M21.0008 14.9998C21.0008 15.414 20.665 15.7498 20.2508 15.7498L14.2508 15.7498C13.8366 15.7498 13.5008 15.414 13.5008 14.9998V14.2498C13.5008 13.8355 13.8366 13.4998 14.2508 13.4998L20.2508 13.4998C20.665 13.4998 21.0008 13.8355 21.0008 14.2498V14.9998Z" stroke="black" stroke-width="1.5"/>
<path d="M10.5024 14.9951C10.5024 15.4093 10.1666 15.7451 9.75241 15.7451L3.75241 15.7451C3.3382 15.7451 3.00241 15.4093 3.00241 14.9951L3.00241 14.2451C3.00241 13.8309 3.3382 13.4951 3.75241 13.4951L9.75241 13.4951C10.1666 13.4951 10.5024 13.8309 10.5024 14.2451V14.9951Z" stroke="black" stroke-width="1.5"/>
<path d="M10.5024 20.2515C10.5024 20.6657 10.1666 21.0015 9.75241 21.0015H3.75241C3.3382 21.0015 3.00241 20.6657 3.00241 20.2515L3.00241 19.5015C3.00241 19.0873 3.3382 18.7515 3.75241 18.7515L9.75241 18.7515C10.1666 18.7515 10.5024 19.0873 10.5024 19.5015V20.2515Z" stroke="black" stroke-width="1.5"/>
</svg>
