<svg viewBox="0 0 24 24" fill="none" xmlns="http://www.w3.org/2000/svg" width="24" height="24">
<path d="M4.199 4.199H19.799V19.799H4.199V4.199Z" fill="black" fill-opacity="0.2"/>
<path d="M9.569 13.02C10.348 13.02 10.98 13.651 10.98 14.43V19.29C10.98 20.068 10.347 20.701 9.569 20.701H4.709C3.931 20.7 3.3 20.068 3.299 19.29V14.43C3.3 13.651 3.931 13.02 4.709 13.02H9.569ZM19.29 13.02C20.068 13.02 20.7 13.651 20.701 14.43V19.29C20.7 20.068 20.068 20.7 19.29 20.701H14.43C13.651 20.7 13.02 20.068 13.02 19.29V14.43C13.02 13.651 13.651 13.02 14.43 13.02H19.29ZM9.569 3.299C10.348 3.299 10.98 3.931 10.98 4.709V9.569C10.98 10.348 10.348 10.98 9.569 10.98H4.709C3.931 10.98 3.299 10.348 3.299 9.569V4.709C3.3 3.931 3.931 3.3 4.709 3.299H9.569ZM19.29 3.299C20.068 3.3 20.7 3.931 20.701 4.709V9.569C20.701 10.347 20.068 10.98 19.29 10.98H14.43C13.651 10.98 13.02 10.348 13.02 9.569V4.709C13.02 3.931 13.651 3.3 14.43 3.299H19.29Z" fill="black"/>
</svg>