<svg viewBox="0 0 24 24" fill="none" xmlns="http://www.w3.org/2000/svg" width="24" height="24">
<path d="M1.2 4.798C1.2 4.301 1.603 3.898 2.1 3.898H21.9C22.397 3.898 22.8 4.301 22.8 4.798V10.198C22.8 10.695 22.397 11.098 21.9 11.098H2.1C1.603 11.098 1.2 10.695 1.2 10.198V4.798Z" fill="black"/>
<path d="M9.6 13.498C10.263 13.498 10.8 14.035 10.8 14.698 10.8 15.36 10.263 15.898 9.6 15.898H2.4C1.737 15.898 1.2 15.36 1.2 14.698 1.2 14.035 1.737 13.498 2.4 13.498H9.6Z" fill="black"/>
<path d="M21.6 13.498C22.263 13.498 22.8 14.035 22.8 14.698 22.8 15.36 22.263 15.898 21.6 15.898H14.4C13.737 15.898 13.2 15.36 13.2 14.698 13.2 14.035 13.737 13.498 14.4 13.498H21.6Z" fill="black"/>
<path d="M21.6 18.298C22.263 18.298 22.8 18.835 22.8 19.498 22.8 20.16 22.263 20.698 21.6 20.698H14.4C13.737 20.698 13.2 20.16 13.2 19.498 13.2 18.835 13.737 18.298 14.4 18.298H21.6Z" fill="black"/>
<path d="M9.6 18.298C10.263 18.298 10.8 18.835 10.8 19.498 10.8 20.16 10.263 20.698 9.6 20.698H2.4C1.737 20.698 1.2 20.16 1.2 19.498 1.2 18.835 1.737 18.298 2.4 18.298H9.6Z" fill="black"/>
<path d="M1.8 5.098H22.2V20.102H1.8V5.098Z" fill="black" fill-opacity="0.2"/>
</svg>