<svg viewBox="0 0 24 24" fill="none" xmlns="http://www.w3.org/2000/svg" width="24" height="24">
<path fill-rule="evenodd" clip-rule="evenodd" d="M8.386 3.488C8.442 3.547 8.486 3.618 8.515 3.696H8.594L8.386 3.488ZM7.306 3.696H7.386C7.444 3.535 7.57 3.406 7.729 3.342 7.655 3.372 7.585 3.416 7.526 3.476L7.306 3.696Z" fill="black"/>
<path fill-rule="evenodd" clip-rule="evenodd" d="M8.255 3.384C8.095 3.288 7.899 3.275 7.729 3.342 7.797 3.315 7.872 3.3 7.95 3.3 8.062 3.3 8.166 3.331 8.255 3.384ZM7.35 9.36V18.481C7.35 18.812 7.619 19.081 7.95 19.081H22.531C22.862 19.08 23.13 18.812 23.131 18.481 23.131 18.149 22.862 17.881 22.531 17.881H8.55V9.36H7.35Z" fill="black"/>
<path fill-rule="evenodd" clip-rule="evenodd" d="M2.497 3.096C2.497 3.427 2.765 3.696 3.097 3.696L7.306 3.696H7.386C7.444 3.535 7.57 3.406 7.729 3.342 7.944 3.257 8.2 3.301 8.374 3.476L8.386 3.488C8.442 3.547 8.486 3.618 8.515 3.696H8.594L20.916 3.696C21.248 3.696 21.516 3.427 21.516 3.096 21.516 2.765 21.248 2.496 20.916 2.496L3.097 2.496C2.765 2.496 2.497 2.765 2.497 3.096Z" fill="black"/>
<path d="M8.374 3.476C8.2 3.301 7.944 3.257 7.729 3.342 7.57 3.406 7.444 3.535 7.386 3.696H7.306L2.666 8.336C2.494 8.507 2.443 8.765 2.536 8.99 2.629 9.214 2.848 9.36 3.09 9.36H7.35 8.55 12.81C13.052 9.36 13.271 9.214 13.364 8.99 13.457 8.765 13.406 8.507 13.234 8.336L8.594 3.696H8.515C8.486 3.618 8.442 3.547 8.386 3.488L8.374 3.476ZM7.95 4.749L11.361 8.16H4.539L7.95 4.749Z" fill="black"/>
<path fill-rule="evenodd" clip-rule="evenodd" d="M7.95 4.748L8.55 5.349 11.361 8.16H8.55 7.35 4.539L7.35 5.348 7.95 4.748Z" fill="black" fill-opacity="0.2"/>
</svg>