<svg viewBox="0 0 24 24" fill="none" xmlns="http://www.w3.org/2000/svg" width="24" height="24">
<path fill-rule="evenodd" clip-rule="evenodd" d="M16.476 20.523C16.477 20.522 16.476 20.523 16.476 20.523 16.242 20.757 15.854 20.752 15.62 20.518 15.853 20.751 16.242 20.752 16.476 20.523Z" fill="black"/>
<path fill-rule="evenodd" clip-rule="evenodd" d="M16.481 20.518C16.247 20.752 15.854 20.752 15.62 20.518 15.729 20.63 15.882 20.7 16.051 20.7 16.219 20.7 16.372 20.63 16.481 20.518Z" fill="black"/>
<path d="M16.481 20.518L21.335 15.664C21.506 15.493 21.557 15.235 21.465 15.011 21.372 14.786 21.153 14.64 20.91 14.64L16.651 14.64 16.651 5.52C16.65 5.188 16.382 4.92 16.051 4.92L1.47 4.92C1.139 4.92 0.87 5.189 0.87 5.52 0.87 5.851 1.139 6.119 1.47 6.12L15.451 6.12 15.451 14.64H11.191C10.948 14.64 10.729 14.786 10.637 15.011 10.544 15.235 10.595 15.493 10.767 15.664L15.62 20.518C15.854 20.752 16.247 20.752 16.481 20.518ZM12.639 15.84L19.462 15.84 16.051 19.252 12.639 15.84Z" fill="black"/>
<path d="M15.451 15.84L12.639 15.84 15.451 18.652 16.051 19.252 16.651 18.652 19.462 15.84 16.651 15.84 15.451 15.84Z" fill="black" fill-opacity="0.2"/>
</svg>