<svg viewBox="0 0 24 24" fill="none" xmlns="http://www.w3.org/2000/svg" width="24" height="24">
<path fill-rule="evenodd" clip-rule="evenodd" d="M15.7303 19.1022C15.7307 19.1017 15.7299 19.1026 15.7303 19.1022C15.5351 19.2974 15.212 19.2935 15.0168 19.0983C15.2108 19.2922 15.5346 19.2936 15.7303 19.1022Z" fill="black"/>
<path fill-rule="evenodd" clip-rule="evenodd" d="M15.7341 19.0984C15.5389 19.2936 15.212 19.2935 15.0168 19.0983C15.1076 19.1919 15.2348 19.25 15.3755 19.25C15.5162 19.25 15.6433 19.1919 15.7341 19.0984Z" fill="black"/>
<path d="M15.7341 19.0984L19.7788 15.0537C19.9218 14.9107 19.9645 14.6956 19.8872 14.5088C19.8098 14.322 19.6275 14.2002 19.4253 14.2002L15.8755 14.2002L15.8755 6.59961C15.8753 6.32365 15.6515 6.09961 15.3755 6.09961L3.2251 6.09961C2.94927 6.09982 2.72531 6.32378 2.7251 6.59961C2.7251 6.87562 2.94914 7.0994 3.2251 7.09961L14.8755 7.09961L14.8755 14.2002H11.3257C11.1235 14.2002 10.9412 14.322 10.8638 14.5088C10.7864 14.6956 10.8292 14.9107 10.9722 15.0537L15.0168 19.0983C15.212 19.2935 15.5389 19.2936 15.7341 19.0984ZM12.5327 15.2002L18.2183 15.2002L15.3755 18.043L12.5327 15.2002Z" fill="black"/>
<path d="M14.8755 15.2002L12.5327 15.2002L14.8755 17.543L15.3755 18.043L15.8755 17.543L18.2183 15.2002L15.8755 15.2002L14.8755 15.2002Z" fill="black" fill-opacity="0.2"/>
</svg>