<svg xmlns="http://www.w3.org/2000/svg" width="24" height="24" fill="currentColor" viewBox="0 0 24 24"><path d="M20.1 9.57a8.088 8.088 0 0 1-3.097 6.371 2.46 2.46 0 0 0-0.953 1.932v0.607a0.81 0.81 0 0 1-0.81 0.81H8.76a0.81 0.81 0 0 1-0.81-0.81v-0.607a2.436 2.436 0 0 0-0.942-1.924 8.088 8.088 0 0 1-3.108-6.333c-0.024-4.391 3.515-8.045 7.904-8.146a8.1 8.1 0 0 1 8.296 8.1" opacity=".2"/><path d="M16.86 22.53a0.81 0.81 0 0 1-0.81 0.81h-8.1a0.81 0.81 0 0 1 0-1.62h8.1a0.81 0.81 0 0 1 0.81 0.81m4.05-12.96a8.868 8.868 0 0 1-3.406 7.008 1.644 1.644 0 0 0-0.644 1.295v0.607a1.62 1.62 0 0 1-1.62 1.62H8.76a1.62 1.62 0 0 1-1.62-1.62v-0.607a1.62 1.62 0 0 0-0.631-1.282 8.868 8.868 0 0 1-3.419-6.971c-0.026-4.825 3.874-8.844 8.695-8.959a8.91 8.91 0 0 1 9.125 8.91z m-1.62 0A7.29 7.29 0 0 0 11.824 2.28c-3.949 0.094-7.135 3.38-7.114 7.33a7.26 7.26 0 0 0 2.798 5.7A3.24 3.24 0 0 1 8.76 17.873v0.607h6.48v-0.607a3.252 3.252 0 0 1 1.262-2.567 7.26 7.26 0 0 0 2.788-5.736m-1.631-0.946a5.832 5.832 0 0 0-4.715-4.713 0.81 0.81 0 0 0-0.268 1.597c1.678 0.282 3.101 1.706 3.386 3.386a0.81 0.81 0 0 0 0.799 0.675 1.2 1.2 0 0 0 0.137-0.011 0.81 0.81 0 0 0 0.662-0.935z"/></svg>