<svg width="24" height="24" viewBox="0 0 24 24" fill="none" xmlns="http://www.w3.org/2000/svg">
<path d="M7.378 15.6565C6.48641 14.96 5.76425 14.0705 5.26576 13.0549C4.76727 12.0392 4.50542 10.9238 4.49987 9.79243C4.47737 5.72743 7.75487 2.344 11.8189 2.25025C13.3939 2.2121 14.941 2.6709 16.2405 3.56156C17.5401 4.45223 18.5261 5.72951 19.0588 7.2122C19.5915 8.69489 19.6438 10.3077 19.2082 11.8217C18.7726 13.3358 17.8712 14.6742 16.6321 15.6471C16.3587 15.859 16.1373 16.1304 15.9844 16.4407C15.8316 16.7509 15.7513 17.0919 15.7499 17.4377V18.0002C15.7499 18.1992 15.6709 18.3899 15.5302 18.5306C15.3895 18.6712 15.1988 18.7502 14.9999 18.7502H8.99987C8.80096 18.7502 8.61019 18.6712 8.46954 18.5306C8.32889 18.3899 8.24987 18.1992 8.24987 18.0002V17.4377C8.24951 17.0941 8.1708 16.7551 8.01972 16.4464C7.86864 16.1377 7.64917 15.8676 7.378 15.6565Z" fill="black" fill-opacity="0.2"/>
<path d="M8.24994 21.7502H15.7499M12.7499 5.25024C14.6249 5.56618 16.1821 7.12524 16.4999 9.00024M7.378 15.6565C6.48641 14.96 5.76425 14.0705 5.26576 13.0549C4.76727 12.0392 4.50542 10.9238 4.49987 9.79243C4.47737 5.72743 7.75487 2.344 11.8189 2.25025C13.3939 2.2121 14.941 2.6709 16.2405 3.56156C17.5401 4.45223 18.5261 5.72951 19.0588 7.2122C19.5915 8.69489 19.6438 10.3077 19.2082 11.8217C18.7726 13.3358 17.8712 14.6742 16.6321 15.6471C16.3587 15.859 16.1373 16.1304 15.9844 16.4407C15.8316 16.7509 15.7513 17.0919 15.7499 17.4377V18.0002C15.7499 18.1992 15.6709 18.3899 15.5302 18.5306C15.3895 18.6712 15.1988 18.7502 14.9999 18.7502H8.99987C8.80096 18.7502 8.61019 18.6712 8.46954 18.5306C8.32889 18.3899 8.24987 18.1992 8.24987 18.0002V17.4377C8.24951 17.0941 8.1708 16.7551 8.01972 16.4464C7.86864 16.1377 7.64917 15.8676 7.378 15.6565Z" stroke="black" stroke-width="1.5" stroke-linecap="round" stroke-linejoin="round"/>
</svg>
