<svg width="24" height="24" viewBox="0 0 24 24" fill="none" xmlns="http://www.w3.org/2000/svg">
<path d="M18.3345 4.39844H5.66546C5.32946 4.39844 5.00722 4.53191 4.76963 4.7695C4.53204 5.00709 4.39856 5.32932 4.39856 5.66532V18.3342C4.39856 18.6702 4.53204 18.9924 4.76963 19.23C5.00722 19.4676 5.32946 19.6011 5.66546 19.6011H18.3345C18.6705 19.6011 18.9927 19.4676 19.2303 19.23C19.4679 18.9924 19.6014 18.6702 19.6014 18.3342V5.66532C19.6014 5.32932 19.4679 5.00709 19.2303 4.7695C18.9927 4.53191 18.6705 4.39844 18.3345 4.39844Z" fill="black" fill-opacity="0.2"/>
<path d="M19.6013 4.39844L4.39852 19.6012" stroke="black" stroke-width="1.5" stroke-linecap="round" stroke-linejoin="round"/>
</svg>
