<svg viewBox="0 0 24 24" fill="none" xmlns="http://www.w3.org/2000/svg" width="24" height="24">
<path opacity="0.2" fill-rule="evenodd" clip-rule="evenodd" d="M14.913 13.956H9.109L12.002 7.149 14.913 13.956Z" fill="black"/>
<path d="M3.097 3.696C2.765 3.696 2.497 3.427 2.497 3.096 2.497 2.765 2.765 2.496 3.097 2.496L20.916 2.496C21.248 2.496 21.516 2.765 21.516 3.096 21.516 3.427 21.248 3.696 20.916 3.696L3.097 3.696Z" fill="black"/>
<path d="M20.916 20.304C21.247 20.304 21.516 20.573 21.516 20.904 21.516 21.235 21.247 21.504 20.916 21.504L3.096 21.504C2.765 21.504 2.496 21.235 2.496 20.904 2.496 20.573 2.765 20.304 3.096 20.304L20.916 20.304Z" fill="black"/>
<path d="M6.683 18.498C6.526 18.498 6.399 18.462 6.303 18.39 6.218 18.329 6.17 18.239 6.158 18.118 6.158 17.998 6.188 17.865 6.248 17.72L11.333 6.03C11.418 5.849 11.52 5.722 11.641 5.65 11.762 5.566 11.882 5.523 12.003 5.523 12.148 5.523 12.274 5.566 12.383 5.65 12.504 5.722 12.6 5.849 12.672 6.03L17.757 17.72C17.83 17.865 17.86 17.998 17.848 18.118 17.848 18.239 17.806 18.329 17.721 18.39 17.649 18.462 17.534 18.498 17.377 18.498 17.208 18.498 17.07 18.456 16.961 18.372 16.865 18.275 16.78 18.148 16.708 17.991L15.315 14.716 15.912 14.988H8.076L8.691 14.716 7.298 17.991C7.226 18.172 7.135 18.305 7.027 18.39 6.93 18.462 6.815 18.498 6.683 18.498ZM11.985 7.007L8.908 14.246 8.492 14.028H15.495L15.115 14.246 12.021 7.007H11.985Z" fill="black"/>
<path d="M12.002 5.451C12.162 5.451 12.305 5.498 12.427 5.593 12.562 5.676 12.665 5.816 12.739 6.003L17.822 17.688C17.897 17.838 17.931 17.982 17.919 18.118L17.911 18.217C17.892 18.312 17.842 18.39 17.762 18.447 17.671 18.533 17.538 18.57 17.378 18.57 17.242 18.57 17.12 18.545 17.016 18.492L16.917 18.428 16.91 18.423C16.832 18.345 16.763 18.25 16.702 18.139L16.642 18.019 15.382 15.059H8.624L7.364 18.017 7.365 18.018C7.29 18.206 7.193 18.351 7.071 18.446L7.07 18.447C6.96 18.53 6.83 18.57 6.683 18.57 6.515 18.57 6.371 18.531 6.259 18.447 6.182 18.391 6.131 18.315 6.104 18.223L6.087 18.125 6.086 18.118C6.086 17.985 6.119 17.843 6.182 17.692L6.183 17.691 11.268 6.002V5.999C11.356 5.811 11.467 5.67 11.604 5.588 11.732 5.499 11.866 5.451 12.002 5.451ZM12.003 5.523C11.882 5.523 11.762 5.566 11.641 5.65 11.52 5.722 11.418 5.849 11.333 6.03L6.248 17.72C6.188 17.865 6.158 17.998 6.158 18.118 6.17 18.239 6.218 18.329 6.303 18.39 6.375 18.444 6.464 18.478 6.571 18.492L6.683 18.498C6.782 18.498 6.871 18.478 6.95 18.438L7.027 18.39C7.108 18.326 7.179 18.235 7.24 18.118L7.298 17.991 8.576 14.988H15.43L16.708 17.991C16.78 18.148 16.865 18.275 16.961 18.372 17.042 18.435 17.141 18.475 17.256 18.49L17.377 18.498C17.534 18.498 17.649 18.462 17.721 18.39 17.806 18.329 17.848 18.239 17.848 18.118 17.86 17.998 17.83 17.865 17.757 17.72L12.672 6.03C12.6 5.849 12.504 5.722 12.383 5.65 12.301 5.587 12.21 5.548 12.108 5.532L12.003 5.523ZM12.021 7.007L15.022 14.028H9.001L11.985 7.007H12.021ZM9.109 13.956H14.913L12.002 7.149 9.109 13.956Z" fill="black"/>
</svg>