<svg width="24" height="24" viewBox="0 0 24 24" fill="none" xmlns="http://www.w3.org/2000/svg">
<path fill-rule="evenodd" clip-rule="evenodd" d="M10.2328 10.5742L11.2899 9.00814C10.9003 8.85985 10.4868 8.78339 10.0693 8.78335C9.61835 8.78335 9.17153 8.87245 8.75488 9.04507C8.33826 9.21768 7.95946 9.47028 7.64062 9.78921L4.71094 12.7189C4.06757 13.3622 3.70591 14.2349 3.70508 15.1447C3.7043 16.0544 4.06488 16.927 4.70703 17.5714C5.02578 17.8912 5.40436 18.1452 5.82129 18.3185C6.23817 18.4917 6.68527 18.5809 7.13672 18.5812C7.58811 18.5815 8.03505 18.4931 8.45215 18.3205C8.86929 18.1478 9.24817 17.8946 9.56738 17.5753L10.4961 16.6476C10.6683 16.4754 10.9347 16.4551 11.1292 16.5865L12.0951 15.1555C11.5923 14.9334 11.1349 14.6189 10.7465 14.2292C10.3211 13.8036 9.98631 13.2953 9.76406 12.7361C9.54158 12.1761 9.43592 11.5757 9.45352 10.9734C9.46181 10.6976 9.69229 10.481 9.96816 10.489C10.0664 10.4919 10.1571 10.523 10.2328 10.5742Z" fill="black" fill-opacity="0.2"/>
<path d="M20.2514 8.16968C20.2514 7.71869 20.1623 7.27187 19.9896 6.85522C19.817 6.43865 19.5644 6.05977 19.2455 5.74097C18.9267 5.42204 18.5479 5.16944 18.1312 4.99683C17.7146 4.82421 17.2678 4.73511 16.8168 4.73511C16.366 4.73515 15.9198 4.82432 15.5033 4.99683C15.0867 5.16941 14.7079 5.4221 14.3891 5.74097L13.4604 6.66968C13.2881 6.84153 13.0215 6.862 12.8271 6.73063C12.8011 6.71303 12.7764 6.69272 12.7533 6.66968C12.5582 6.47454 12.5584 6.15794 12.7533 5.96265L13.682 5.03394C14.0937 4.62223 14.5826 4.29584 15.1205 4.073C15.6583 3.8502 16.2346 3.73515 16.8168 3.73511C17.3991 3.73511 17.9761 3.85011 18.5141 4.073C19.052 4.29586 19.5409 4.62218 19.9525 5.03394L20.1029 5.19214C20.4443 5.56878 20.7185 6.00181 20.9135 6.47241C21.1364 7.0104 21.2514 7.58735 21.2514 8.16968C21.2513 8.75185 21.1363 9.32811 20.9135 9.86597C20.7184 10.3368 20.4445 10.7705 20.1029 11.1472L19.9525 11.3044L17.0229 14.2341C16.6107 14.6464 16.1211 14.9731 15.5824 15.196C15.0439 15.4189 14.467 15.5334 13.8842 15.533C13.3012 15.5325 12.7233 15.4178 12.185 15.1941C11.6468 14.9704 11.158 14.642 10.7465 14.2292C10.3211 13.8036 9.98631 13.2953 9.76406 12.7361C9.54158 12.1761 9.43592 11.5757 9.45352 10.9734C9.46181 10.6976 9.69229 10.481 9.96816 10.489C10.0664 10.4919 10.1571 10.523 10.2328 10.5742C10.3697 10.6667 10.4576 10.8252 10.4525 11.0027C10.4389 11.4687 10.5216 11.9327 10.6937 12.366C10.8444 12.7452 11.0615 13.0941 11.3344 13.3962L11.4545 13.5232C11.7731 13.8428 12.152 14.097 12.5687 14.2703C12.5813 14.2755 12.5939 14.2806 12.6065 14.2857C12.6264 14.2937 12.6464 14.3015 12.6664 14.3091C13.055 14.4568 13.4679 14.5326 13.8842 14.533C14.3357 14.5333 14.7834 14.4449 15.2006 14.2722C15.6177 14.0996 15.9966 13.8463 16.3158 13.5271L19.2455 10.5974C19.5642 10.2787 19.8171 9.90049 19.9896 9.48413C20.1622 9.06756 20.2513 8.62059 20.2514 8.16968ZM10.0693 7.78335C10.6515 7.78339 11.2278 7.89844 11.7656 8.12124C11.7976 8.13448 11.8294 8.14808 11.861 8.16205C12.3609 8.38298 12.8161 8.69441 13.2031 9.0812C13.631 9.50715 13.9679 10.0164 14.1914 10.5773C14.4149 11.1382 14.5206 11.7394 14.5029 12.3429C14.4948 12.6188 14.265 12.8361 13.9893 12.8283C13.8907 12.8254 13.7997 12.7942 13.7237 12.7426C13.7198 12.74 13.716 12.7374 13.7123 12.7347C13.5819 12.6409 13.4989 12.4861 13.5039 12.3136C13.5176 11.8466 13.4347 11.3814 13.2617 10.9474C13.0888 10.5136 12.829 10.1197 12.498 9.79019C12.1792 9.47132 11.7994 9.21765 11.3828 9.04507C11.373 9.041 11.3632 9.03698 11.3533 9.033C11.3322 9.0245 11.3111 9.01622 11.2899 9.00814C10.9003 8.85985 10.4868 8.78339 10.0693 8.78335C9.61835 8.78335 9.17153 8.87245 8.75488 9.04507C8.33826 9.21768 7.95946 9.47028 7.64062 9.78921L4.71094 12.7189C4.06757 13.3622 3.70591 14.2349 3.70508 15.1447C3.7043 16.0544 4.06488 16.927 4.70703 17.5714C5.02578 17.8912 5.40436 18.1452 5.82129 18.3185C6.23817 18.4917 6.68527 18.5809 7.13672 18.5812C7.58811 18.5815 8.03505 18.4931 8.45215 18.3205C8.86929 18.1478 9.24817 17.8946 9.56738 17.5753L10.4961 16.6476C10.6914 16.4523 11.0079 16.4523 11.2031 16.6476C11.3982 16.8429 11.3983 17.1594 11.2031 17.3546L10.2754 18.2824C9.86331 18.6945 9.37347 19.0214 8.83496 19.2443C8.29631 19.4672 7.7187 19.5816 7.13574 19.5812C6.55288 19.5808 5.97575 19.466 5.4375 19.2423C4.89918 19.0186 4.4096 18.6904 3.99805 18.2775C3.22085 17.4974 2.76325 16.4581 2.70996 15.3634L2.70508 15.1437C2.70615 13.969 3.17323 12.8425 4.00391 12.0119L6.93359 9.08218L7.0918 8.93179C7.46845 8.59044 7.90147 8.31622 8.37207 8.12124C8.91006 7.89835 9.48701 7.78335 10.0693 7.78335Z" fill="black"/>
<path fill-rule="evenodd" clip-rule="evenodd" d="M20.2514 8.16968C20.2514 7.71869 20.1623 7.27187 19.9896 6.85522C19.817 6.43865 19.5644 6.05977 19.2455 5.74097C18.9267 5.42204 18.5479 5.16944 18.1312 4.99683C17.7146 4.82421 17.2678 4.73511 16.8168 4.73511C16.366 4.73515 15.9198 4.82432 15.5033 4.99683C15.0867 5.16941 14.7079 5.4221 14.3891 5.74097L13.4604 6.66968C13.2881 6.84153 13.0215 6.862 12.8271 6.73063L11.861 8.16205C12.3609 8.38298 12.8161 8.69441 13.2031 9.0812C13.631 9.50715 13.9679 10.0164 14.1914 10.5773C14.4149 11.1382 14.5206 11.7394 14.5029 12.3429C14.4948 12.6188 14.265 12.8361 13.9893 12.8283C13.8907 12.8254 13.7997 12.7942 13.7237 12.7426L13.7123 12.7347C13.5819 12.6409 13.4989 12.4861 13.5039 12.3136C13.5176 11.8466 13.4347 11.3814 13.2617 10.9474C13.0888 10.5136 12.829 10.1197 12.498 9.79019C12.1792 9.47132 11.7994 9.21765 11.3828 9.04507L11.3533 9.033C11.3322 9.0245 11.3111 9.01622 11.2899 9.00814L10.2328 10.5742C10.3697 10.6667 10.4576 10.8252 10.4525 11.0027C10.4389 11.4687 10.5216 11.9327 10.6937 12.366C10.8444 12.7452 11.0615 13.0941 11.3344 13.3962L11.4545 13.5232C11.7731 13.8428 12.152 14.097 12.5687 14.2703L12.6065 14.2857C12.6264 14.2937 12.6464 14.3015 12.6664 14.3091C13.055 14.4568 13.4679 14.5326 13.8842 14.533C14.3357 14.5333 14.7834 14.4449 15.2006 14.2722C15.6177 14.0996 15.9966 13.8463 16.3158 13.5271L19.2455 10.5974C19.5642 10.2787 19.8171 9.90049 19.9896 9.48413C20.1622 9.06756 20.2513 8.62059 20.2514 8.16968Z" fill="black" fill-opacity="0.2"/>
<path d="M18.7684 15.2023C19.0479 15.2023 19.2741 15.4287 19.2742 15.7082V17.2326H20.7879C21.0675 17.2326 21.2947 17.4588 21.2947 17.7384C21.2947 18.018 21.0675 18.2443 20.7879 18.2443H19.2742V19.758C19.2742 20.0376 19.048 20.2648 18.7684 20.2648C18.4888 20.2648 18.2625 20.0376 18.2625 19.758V18.2443H16.7381C16.4586 18.2442 16.2322 18.0179 16.2322 17.7384C16.2322 17.4589 16.4586 17.2327 16.7381 17.2326H18.2625V15.7082C18.2626 15.4287 18.4889 15.2023 18.7684 15.2023Z" fill="black"/>
</svg>
