<svg xmlns="http://www.w3.org/2000/svg" width="24" height="24" fill="currentColor" viewBox="0 0 24 24"><path d="M20.297 10.577l-9.72 9.72a4.86 4.86 0 0 1-6.873-6.873l9.72-9.72a4.86 4.86 0 0 1 6.873 6.873" opacity=".2"/><path d="M15.814 8.186a0.81 0.81 0 0 1 0 1.146l-6.48 6.48a0.81 0.81 0 0 1-1.146-1.146l6.48-6.48a0.81 0.81 0 0 1 1.146 0m5.056-5.056a5.67 5.67 0 0 0-8.019 0l-3.043 3.042a0.81 0.81 0 0 0 1.146 1.146l3.043-3.038a4.05 4.05 0 0 1 5.727 5.727L16.68 13.05a0.81 0.81 0 0 0 1.145 1.146l3.044-3.049a5.67 5.67 0 0 0 0-8.02z m-7.822 13.549l-3.044 3.043a4.05 4.05 0 1 1-5.726-5.728L7.32 10.952a0.81 0.81 0 0 0-1.146-1.146L3.132 12.85a5.671 5.671 0 0 0 8.02 8.019l3.043-3.044a0.81 0.81 0 0 0-1.146-1.145z"/></svg>