<svg width="24" height="24" viewBox="0 0 24 24" fill="none" xmlns="http://www.w3.org/2000/svg">
<path fill-rule="evenodd" clip-rule="evenodd" d="M9.87659 7.59229C10.4505 7.59233 11.0192 7.70562 11.5494 7.92529C11.6315 7.95931 11.712 7.99679 11.7916 8.03564L9.44788 11.2534C9.43057 11.8469 9.53432 12.438 9.75354 12.9897C9.9728 13.5415 10.3034 14.0426 10.7233 14.4624C11.067 14.8072 11.4656 15.0912 11.902 15.3042L9.71253 18.3101C9.30624 18.7164 8.82355 19.0386 8.2926 19.2583C7.76169 19.478 7.19238 19.5907 6.6178 19.5903C6.0431 19.5899 5.47369 19.4759 4.94299 19.2554C4.41248 19.0349 3.93066 18.712 3.52503 18.3052C2.70753 17.4848 2.24859 16.3735 2.24964 15.2153C2.25069 14.0572 2.7109 12.9463 3.52991 12.1274L6.78577 8.87256C7.19155 8.46676 7.67356 8.14495 8.20374 7.92529C8.73402 7.70564 9.30261 7.59229 9.87659 7.59229ZM17.0748 3.74951C17.6487 3.74958 18.2175 3.86286 18.7477 4.08252C19.2778 4.30224 19.7599 4.62393 20.1657 5.02979C20.5715 5.43554 20.8932 5.91757 21.1129 6.44775C21.3326 6.97798 21.4459 7.54668 21.4459 8.12061C21.4459 8.69456 21.3326 9.2632 21.1129 9.79346C20.8932 10.3238 20.5716 10.8065 20.1657 11.2124L16.9108 14.4673C16.5045 14.8736 16.0218 15.1958 15.4908 15.4155C14.96 15.6352 14.3906 15.7479 13.816 15.7476C13.2413 15.7471 12.6719 15.6332 12.1412 15.4126C12.0603 15.3789 11.9806 15.3426 11.902 15.3042L14.2477 12.0864C14.2651 11.4917 14.1603 10.8999 13.9401 10.3472C13.7198 9.79444 13.3891 9.29233 12.9674 8.87256C12.6245 8.52953 12.2265 8.24773 11.7916 8.03564L13.983 5.02979C14.3889 4.6238 14.8716 4.30224 15.402 4.08252C15.9322 3.86289 16.5009 3.74951 17.0748 3.74951Z" fill="black" fill-opacity="0.2"/>
<path d="M11.7916 8.03564C12.2265 8.24773 12.6245 8.52953 12.9674 8.87256C13.3891 9.29233 13.7198 9.79444 13.9401 10.3472C14.1603 10.8999 14.2651 11.4917 14.2477 12.0864L11.902 15.3042C11.4654 15.0912 11.0661 14.8073 10.7223 14.4624C10.3024 14.0427 9.97277 13.5414 9.75354 12.9897C9.53432 12.438 9.43057 11.8469 9.44788 11.2534L11.7916 8.03564Z" fill="black" fill-opacity="0.2"/>
<path d="M12.9525 6.06182L13.9838 5.03057C14.3896 4.62458 14.8715 4.30253 15.4019 4.08281C15.9322 3.86309 16.5006 3.75 17.0747 3.75C17.6488 3.75 18.2172 3.86309 18.7476 4.08281C19.2779 4.30253 19.7598 4.62458 20.1656 5.03057C20.5716 5.43643 20.8937 5.9183 21.1134 6.44865C21.3331 6.979 21.4462 7.54744 21.4462 8.1215C21.4462 8.69557 21.3331 9.26401 21.1134 9.79436C20.8937 10.3247 20.5716 10.8066 20.1656 11.2124L16.9106 14.4674C16.5043 14.8738 16.0218 15.1961 15.4908 15.4159C14.9598 15.6356 14.3906 15.7485 13.8159 15.7481C13.2412 15.7477 12.6723 15.6339 12.1416 15.4134C11.6109 15.1928 11.1289 14.8698 10.7231 14.4628C10.3032 14.043 9.97346 13.5417 9.75421 12.9899C9.53495 12.4381 9.4308 11.8472 9.44814 11.2537M10.7438 17.279L9.71253 18.3102C9.30619 18.7166 8.8237 19.0389 8.29267 19.2587C7.76165 19.4784 7.1925 19.5913 6.6178 19.5909C6.04311 19.5904 5.47413 19.4767 4.94344 19.2561C4.41275 19.0356 3.93075 18.7125 3.52503 18.3055C2.70751 17.4852 2.24895 16.3739 2.25 15.2158C2.25106 14.0576 2.71165 12.9472 3.53065 12.1283L6.78565 8.87334C7.19152 8.46736 7.67339 8.14531 8.20374 7.92559C8.73408 7.70586 9.30252 7.59277 9.87659 7.59277C10.4507 7.59277 11.0191 7.70586 11.5494 7.92559C12.0798 8.14531 12.5617 8.46736 12.9675 8.87334C13.3892 9.29311 13.7204 9.79485 13.9407 10.3476C14.1609 10.9003 14.2656 11.4923 14.2481 12.0871M17.1746 18.2859H19.4302M19.4302 18.2859H21.6746M19.4302 18.2859V16.0303M19.4302 18.2859V20.5303" stroke="black" stroke-width="1.5" stroke-linecap="round" stroke-linejoin="round"/>
</svg>
