<svg xmlns="http://www.w3.org/2000/svg" width="24" height="24" fill="currentColor" viewBox="0 0 24 24"><path d="M21.72 3.09v17.82a0.81 0.81 0 0 1-0.81 0.81H3.09a0.81 0.81 0 0 1-0.81-0.81V3.09a0.81 0.81 0 0 1 0.81-0.81h17.82a0.81 0.81 0 0 1 0.81 0.81" opacity=".2"/><path d="M20.91 1.47H3.09a1.62 1.62 0 0 0-1.62 1.62v17.82a1.62 1.62 0 0 0 1.62 1.62h17.82a1.62 1.62 0 0 0 1.62-1.62V3.09a1.62 1.62 0 0 0-1.62-1.62m0 19.44H3.09V3.09h17.82zM8.76 10.38v6.48a0.81 0.81 0 0 1-1.62 0v-6.48a0.81 0.81 0 0 1 1.62 0m8.91 2.836v3.644a0.81 0.81 0 0 1-1.62 0v-3.646a2.026 2.026 0 0 0-4.05 0v3.645a0.81 0.81 0 0 1-1.62 0v-6.48a0.81 0.81 0 0 1 1.598-0.18 3.646 3.646 0 0 1 5.692 3.015zM9.164 7.546a1.216 1.216 0 1 1-1.214-1.216 1.216 1.216 0 0 1 1.214 1.216"/></svg>