<svg width="24" height="24" viewBox="0 0 24 24" fill="none" xmlns="http://www.w3.org/2000/svg">
<path d="M20.25 3H3.75C3.33579 3 3 3.33579 3 3.75V20.25C3 20.6642 3.33579 21 3.75 21H20.25C20.6642 21 21 20.6642 21 20.25V3.75C21 3.33579 20.6642 3 20.25 3Z" fill="black" fill-opacity="0.2"/>
<path d="M8.25 8.25C8.45711 8.25 8.625 8.08211 8.625 7.875C8.625 7.66789 8.45711 7.5 8.25 7.5C8.04289 7.5 7.875 7.66789 7.875 7.875C7.875 8.08211 8.04289 8.25 8.25 8.25Z" fill="black"/>
<path d="M11.25 10.5V16.5M8.25 10.5V16.5M11.25 13.125C11.25 12.4288 11.5266 11.7611 12.0188 11.2688C12.5111 10.7766 13.1788 10.5 13.875 10.5C14.5712 10.5 15.2389 10.7766 15.7312 11.2688C16.2234 11.7611 16.5 12.4288 16.5 13.125V16.5M3.75 3H20.25C20.6642 3 21 3.33579 21 3.75V20.25C21 20.6642 20.6642 21 20.25 21H3.75C3.33579 21 3 20.6642 3 20.25V3.75C3 3.33579 3.33579 3 3.75 3ZM8.625 7.875C8.625 8.08211 8.45711 8.25 8.25 8.25C8.04289 8.25 7.875 8.08211 7.875 7.875C7.875 7.66789 8.04289 7.5 8.25 7.5C8.45711 7.5 8.625 7.66789 8.625 7.875Z" stroke="black" stroke-width="1.5" stroke-linecap="round" stroke-linejoin="round"/>
</svg>
