<svg viewBox="0 0 24 24" fill="none" xmlns="http://www.w3.org/2000/svg" width="24" height="24">
<path d="M10.359 4.8H22.003V21.6H10.359V4.8Z" fill="black" fill-opacity="0.2"/>
<path d="M7.079 21.63C6.919 21.63 6.791 21.582 6.695 21.486 6.603 21.39 6.557 21.266 6.557 21.114 6.557 20.966 6.603 20.846 6.695 20.754 6.791 20.658 6.919 20.61 7.079 20.61 7.239 20.61 7.363 20.658 7.451 20.754 7.543 20.846 7.589 20.966 7.589 21.114 7.589 21.266 7.543 21.39 7.451 21.486 7.363 21.582 7.239 21.63 7.079 21.63Z" fill="black"/>
<path d="M5.491 21.648C5.343 21.648 5.229 21.606 5.149 21.522 5.073 21.434 5.035 21.312 5.035 21.156V19.104C5.035 18.944 5.073 18.822 5.149 18.738 5.229 18.65 5.343 18.606 5.491 18.606 5.635 18.606 5.745 18.65 5.821 18.738 5.901 18.822 5.941 18.944 5.941 19.104V21.156C5.941 21.312 5.903 21.434 5.827 21.522 5.751 21.606 5.639 21.648 5.491 21.648ZM5.491 18.114C5.323 18.114 5.193 18.076 5.101 18 5.013 17.92 4.969 17.808 4.969 17.664 4.969 17.516 5.013 17.404 5.101 17.328 5.193 17.248 5.323 17.208 5.491 17.208 5.659 17.208 5.787 17.248 5.875 17.328 5.963 17.404 6.007 17.516 6.007 17.664 6.007 17.808 5.963 17.92 5.875 18 5.787 18.076 5.659 18.114 5.491 18.114Z" fill="black"/>
<path d="M3.886 21.648C3.738 21.648 3.624 21.606 3.544 21.522 3.468 21.434 3.43 21.312 3.43 21.156V19.104C3.43 18.944 3.468 18.822 3.544 18.738 3.624 18.65 3.738 18.606 3.886 18.606 4.03 18.606 4.14 18.65 4.216 18.738 4.296 18.822 4.336 18.944 4.336 19.104V21.156C4.336 21.312 4.298 21.434 4.222 21.522 4.146 21.606 4.034 21.648 3.886 21.648ZM3.886 18.114C3.718 18.114 3.588 18.076 3.496 18 3.408 17.92 3.364 17.808 3.364 17.664 3.364 17.516 3.408 17.404 3.496 17.328 3.588 17.248 3.718 17.208 3.886 17.208 4.054 17.208 4.182 17.248 4.27 17.328 4.358 17.404 4.402 17.516 4.402 17.664 4.402 17.808 4.358 17.92 4.27 18 4.182 18.076 4.054 18.114 3.886 18.114Z" fill="black"/>
<path d="M2.28 21.648C2.132 21.648 2.018 21.606 1.938 21.522 1.862 21.434 1.824 21.312 1.824 21.156V19.104C1.824 18.944 1.862 18.822 1.938 18.738 2.018 18.65 2.132 18.606 2.28 18.606 2.424 18.606 2.534 18.65 2.61 18.738 2.69 18.822 2.73 18.944 2.73 19.104V21.156C2.73 21.312 2.692 21.434 2.616 21.522 2.54 21.606 2.428 21.648 2.28 21.648ZM2.28 18.114C2.112 18.114 1.982 18.076 1.89 18 1.802 17.92 1.758 17.808 1.758 17.664 1.758 17.516 1.802 17.404 1.89 17.328 1.982 17.248 2.112 17.208 2.28 17.208 2.448 17.208 2.576 17.248 2.664 17.328 2.752 17.404 2.796 17.516 2.796 17.664 2.796 17.808 2.752 17.92 2.664 18 2.576 18.076 2.448 18.114 2.28 18.114Z" fill="black"/>
<path d="M5.473 14.43C5.313 14.43 5.185 14.382 5.089 14.286 4.997 14.19 4.951 14.066 4.951 13.914 4.951 13.766 4.997 13.646 5.089 13.554 5.185 13.458 5.313 13.41 5.473 13.41 5.633 13.41 5.757 13.458 5.845 13.554 5.937 13.646 5.983 13.766 5.983 13.914 5.983 14.066 5.937 14.19 5.845 14.286 5.757 14.382 5.633 14.43 5.473 14.43Z" fill="black"/>
<path d="M3.886 14.448C3.738 14.448 3.624 14.406 3.544 14.322 3.468 14.234 3.43 14.112 3.43 13.956V11.904C3.43 11.744 3.468 11.622 3.544 11.538 3.624 11.45 3.738 11.406 3.886 11.406 4.03 11.406 4.14 11.45 4.216 11.538 4.296 11.622 4.336 11.744 4.336 11.904V13.956C4.336 14.112 4.298 14.234 4.222 14.322 4.146 14.406 4.034 14.448 3.886 14.448ZM3.886 10.914C3.718 10.914 3.588 10.876 3.496 10.8 3.408 10.72 3.364 10.608 3.364 10.464 3.364 10.316 3.408 10.204 3.496 10.128 3.588 10.048 3.718 10.008 3.886 10.008 4.054 10.008 4.182 10.048 4.27 10.128 4.358 10.204 4.402 10.316 4.402 10.464 4.402 10.608 4.358 10.72 4.27 10.8 4.182 10.876 4.054 10.914 3.886 10.914Z" fill="black"/>
<path d="M2.28 14.448C2.132 14.448 2.018 14.406 1.938 14.322 1.862 14.234 1.824 14.112 1.824 13.956V11.904C1.824 11.744 1.862 11.622 1.938 11.538 2.018 11.45 2.132 11.406 2.28 11.406 2.424 11.406 2.534 11.45 2.61 11.538 2.69 11.622 2.73 11.744 2.73 11.904V13.956C2.73 14.112 2.692 14.234 2.616 14.322 2.54 14.406 2.428 14.448 2.28 14.448ZM2.28 10.914C2.112 10.914 1.982 10.876 1.89 10.8 1.802 10.72 1.758 10.608 1.758 10.464 1.758 10.316 1.802 10.204 1.89 10.128 1.982 10.048 2.112 10.008 2.28 10.008 2.448 10.008 2.576 10.048 2.664 10.128 2.752 10.204 2.796 10.316 2.796 10.464 2.796 10.608 2.752 10.72 2.664 10.8 2.576 10.876 2.448 10.914 2.28 10.914Z" fill="black"/>
<path d="M3.868 7.23C3.708 7.23 3.58 7.182 3.484 7.086 3.392 6.99 3.346 6.866 3.346 6.714 3.346 6.566 3.392 6.446 3.484 6.354 3.58 6.258 3.708 6.21 3.868 6.21 4.028 6.21 4.152 6.258 4.24 6.354 4.332 6.446 4.378 6.566 4.378 6.714 4.378 6.866 4.332 6.99 4.24 7.086 4.152 7.182 4.028 7.23 3.868 7.23Z" fill="black"/>
<path d="M2.28 7.248C2.132 7.248 2.018 7.206 1.938 7.122 1.862 7.034 1.824 6.912 1.824 6.756V4.704C1.824 4.544 1.862 4.422 1.938 4.338 2.018 4.25 2.132 4.206 2.28 4.206 2.424 4.206 2.534 4.25 2.61 4.338 2.69 4.422 2.73 4.544 2.73 4.704V6.756C2.73 6.912 2.692 7.034 2.616 7.122 2.54 7.206 2.428 7.248 2.28 7.248ZM2.28 3.714C2.112 3.714 1.982 3.676 1.89 3.6 1.802 3.52 1.758 3.408 1.758 3.264 1.758 3.116 1.802 3.004 1.89 2.928 1.982 2.848 2.112 2.808 2.28 2.808 2.448 2.808 2.576 2.848 2.664 2.928 2.752 3.004 2.796 3.116 2.796 3.264 2.796 3.408 2.752 3.52 2.664 3.6 2.576 3.676 2.448 3.714 2.28 3.714Z" fill="black"/>
<path d="M21.924 4.8C22.256 4.8 22.524 5.068 22.524 5.4 22.524 5.731 22.256 6 21.924 6H10.476C10.145 6 9.876 5.731 9.876 5.4 9.876 5.068 10.145 4.8 10.476 4.8H21.924Z" fill="black"/>
<path d="M21.924 20.4C22.256 20.4 22.524 20.668 22.524 21 22.524 21.331 22.256 21.6 21.924 21.6H10.476C10.145 21.6 9.876 21.331 9.876 21 9.876 20.668 10.145 20.4 10.476 20.4H21.924Z" fill="black"/>
<path d="M21.924 13.2C22.256 13.2 22.524 13.468 22.524 13.8 22.524 14.131 22.256 14.4 21.924 14.4H10.476C10.145 14.4 9.876 14.131 9.876 13.8 9.876 13.468 10.145 13.2 10.476 13.2H21.924Z" fill="black"/>
</svg>