<svg xmlns="http://www.w3.org/2000/svg" fill="currentColor" viewBox="0 0 24 24" width="24" height="24"><path d="M20.91 5.52v12.96h-11.34V5.52z" opacity=".2"/><path d="M21.72 12a0.81 0.81 0 0 1-0.81 0.81h-11.34a0.81 0.81 0 0 1 0-1.62h11.34A0.81 0.81 0 0 1 21.72 12M9.57 6.33h11.34a0.81 0.81 0 0 0 0-1.62h-11.34a0.81 0.81 0 0 0 0 1.62m11.34 11.34h-11.34a0.81 0.81 0 0 0 0 1.62h11.34a0.81 0.81 0 0 0 0-1.62M3.452 4.625l0.448-0.225v5.17a0.81 0.81 0 0 0 1.62 0v-6.48a0.81 0.81 0 0 0-1.172-0.725l-1.62 0.81a0.81 0.81 0 0 0 0.724 1.45m3.665 10.283a2.4 2.4 0 0 0-0.972-1.616 2.52 2.52 0 0 0-3.453 0.477 2.4 2.4 0 0 0-0.362 0.654 0.81 0.81 0 1 0 1.52 0.554 0.84 0.84 0 0 1 0.12-0.216 0.888 0.888 0 0 1 1.215-0.161 0.804 0.804 0 0 1 0.33 0.539 0.78 0.78 0 0 1-0.158 0.586l-0.009 0.011-2.905 3.879a0.81 0.81 0 0 0 0.649 1.295h3.24a0.81 0.81 0 0 0 0-1.62h-1.62l1.932-2.585a2.376 2.376 0 0 0 0.476-1.797z"/></svg>