<svg viewBox="0 0 24 24" fill="none" xmlns="http://www.w3.org/2000/svg" width="24" height="24">
<path d="M10.359 4.8H22.003V21.6H10.359V4.8Z" fill="black" fill-opacity="0.2"/>
<path d="M7.693 21.63C7.533 21.63 7.405 21.582 7.309 21.486 7.217 21.39 7.171 21.266 7.171 21.114 7.171 20.966 7.217 20.846 7.309 20.754 7.405 20.658 7.533 20.61 7.693 20.61 7.853 20.61 7.977 20.658 8.065 20.754 8.157 20.846 8.203 20.966 8.203 21.114 8.203 21.266 8.157 21.39 8.065 21.486 7.977 21.582 7.853 21.63 7.693 21.63Z" fill="black"/>
<path d="M6.003 22.734C5.859 22.734 5.747 22.694 5.667 22.614 5.591 22.538 5.553 22.426 5.553 22.278V17.778C5.553 17.626 5.591 17.512 5.667 17.436 5.747 17.356 5.859 17.316 6.003 17.316 6.147 17.316 6.259 17.356 6.339 17.436 6.419 17.512 6.459 17.626 6.459 17.778V22.278C6.459 22.582 6.307 22.734 6.003 22.734Z" fill="black"/>
<path d="M4.192 22.734C4.048 22.734 3.936 22.694 3.856 22.614 3.78 22.538 3.742 22.426 3.742 22.278V17.778C3.742 17.626 3.78 17.512 3.856 17.436 3.936 17.356 4.048 17.316 4.192 17.316 4.336 17.316 4.448 17.356 4.528 17.436 4.608 17.512 4.648 17.626 4.648 17.778V22.278C4.648 22.582 4.496 22.734 4.192 22.734Z" fill="black"/>
<path d="M2.382 22.734C2.238 22.734 2.126 22.694 2.046 22.614 1.97 22.538 1.932 22.426 1.932 22.278V17.778C1.932 17.626 1.97 17.512 2.046 17.436 2.126 17.356 2.238 17.316 2.382 17.316 2.526 17.316 2.638 17.356 2.718 17.436 2.798 17.512 2.838 17.626 2.838 17.778V22.278C2.838 22.582 2.686 22.734 2.382 22.734Z" fill="black"/>
<path d="M5.883 14.43C5.723 14.43 5.595 14.382 5.499 14.286 5.407 14.19 5.361 14.066 5.361 13.914 5.361 13.766 5.407 13.646 5.499 13.554 5.595 13.458 5.723 13.41 5.883 13.41 6.043 13.41 6.167 13.458 6.255 13.554 6.347 13.646 6.393 13.766 6.393 13.914 6.393 14.066 6.347 14.19 6.255 14.286 6.167 14.382 6.043 14.43 5.883 14.43Z" fill="black"/>
<path d="M4.192 15.534C4.048 15.534 3.936 15.494 3.856 15.414 3.78 15.338 3.742 15.226 3.742 15.078V10.578C3.742 10.426 3.78 10.312 3.856 10.236 3.936 10.156 4.048 10.116 4.192 10.116 4.336 10.116 4.448 10.156 4.528 10.236 4.608 10.312 4.648 10.426 4.648 10.578V15.078C4.648 15.382 4.496 15.534 4.192 15.534Z" fill="black"/>
<path d="M2.382 15.534C2.238 15.534 2.126 15.494 2.046 15.414 1.97 15.338 1.932 15.226 1.932 15.078V10.578C1.932 10.426 1.97 10.312 2.046 10.236 2.126 10.156 2.238 10.116 2.382 10.116 2.526 10.116 2.638 10.156 2.718 10.236 2.798 10.312 2.838 10.426 2.838 10.578V15.078C2.838 15.382 2.686 15.534 2.382 15.534Z" fill="black"/>
<path d="M4.072 7.23C3.912 7.23 3.784 7.182 3.688 7.086 3.596 6.99 3.55 6.866 3.55 6.714 3.55 6.566 3.596 6.446 3.688 6.354 3.784 6.258 3.912 6.21 4.072 6.21 4.232 6.21 4.356 6.258 4.444 6.354 4.536 6.446 4.582 6.566 4.582 6.714 4.582 6.866 4.536 6.99 4.444 7.086 4.356 7.182 4.232 7.23 4.072 7.23Z" fill="black"/>
<path d="M2.382 8.334C2.238 8.334 2.126 8.294 2.046 8.214 1.97 8.138 1.932 8.026 1.932 7.878V3.378C1.932 3.226 1.97 3.112 2.046 3.036 2.126 2.956 2.238 2.916 2.382 2.916 2.526 2.916 2.638 2.956 2.718 3.036 2.798 3.112 2.838 3.226 2.838 3.378V7.878C2.838 8.182 2.686 8.334 2.382 8.334Z" fill="black"/>
<path d="M21.924 4.8C22.255 4.8 22.524 5.069 22.524 5.4 22.524 5.732 22.255 6 21.924 6H10.476C10.144 6 9.876 5.732 9.876 5.4 9.876 5.069 10.144 4.8 10.476 4.8H21.924Z" fill="black"/>
<path d="M21.924 20.4C22.255 20.4 22.524 20.669 22.524 21 22.524 21.332 22.255 21.6 21.924 21.6H10.476C10.144 21.6 9.876 21.332 9.876 21 9.876 20.669 10.144 20.4 10.476 20.4H21.924Z" fill="black"/>
<path d="M21.924 13.2C22.255 13.2 22.524 13.469 22.524 13.8 22.524 14.132 22.255 14.4 21.924 14.4H10.476C10.144 14.4 9.876 14.132 9.876 13.8 9.876 13.469 10.144 13.2 10.476 13.2H21.924Z" fill="black"/>
</svg>