<svg width="24" height="24" viewBox="0 0 24 24" fill="none" xmlns="http://www.w3.org/2000/svg">
<path d="M9.43896 7H19.9797V19H9.43896V7Z" fill="black" fill-opacity="0.2"/>
<path d="M6.32434 20.0549C6.04767 20.0549 5.806 20.0032 5.59934 19.8999C5.396 19.7965 5.23767 19.6482 5.12434 19.4549C5.011 19.2582 4.95434 19.0282 4.95434 18.7649C4.95434 18.5649 4.986 18.3865 5.04934 18.2299C5.11267 18.0699 5.20434 17.9349 5.32434 17.8249C5.44767 17.7149 5.59267 17.6315 5.75934 17.5749C5.92934 17.5149 6.11767 17.4849 6.32434 17.4849C6.421 17.4849 6.52267 17.4949 6.62934 17.5149C6.736 17.5315 6.846 17.5649 6.95934 17.6149C7.03934 17.6449 7.09434 17.6915 7.12434 17.7549C7.15767 17.8149 7.171 17.8799 7.16434 17.9499C7.161 18.0199 7.141 18.0832 7.10434 18.1399C7.071 18.1965 7.02267 18.2349 6.95934 18.2549C6.89934 18.2749 6.831 18.2665 6.75434 18.2299C6.701 18.2032 6.64434 18.1849 6.58434 18.1749C6.52767 18.1615 6.47267 18.1549 6.41934 18.1549C6.32934 18.1549 6.24934 18.1682 6.17934 18.1949C6.11267 18.2215 6.056 18.2615 6.00934 18.3149C5.96267 18.3649 5.926 18.4282 5.89934 18.5049C5.876 18.5815 5.86434 18.6682 5.86434 18.7649C5.86434 18.9582 5.91267 19.1099 6.00934 19.2199C6.106 19.3299 6.24267 19.3849 6.41934 19.3849C6.47267 19.3849 6.52767 19.3799 6.58434 19.3699C6.641 19.3565 6.69767 19.3365 6.75434 19.3099C6.831 19.2732 6.89934 19.2665 6.95934 19.2899C7.01934 19.3099 7.06767 19.3482 7.10434 19.4049C7.141 19.4615 7.161 19.5249 7.16434 19.5949C7.16767 19.6615 7.15267 19.7265 7.11934 19.7899C7.086 19.8499 7.02934 19.8949 6.94934 19.9249C6.83934 19.9749 6.731 20.0082 6.62434 20.0249C6.521 20.0449 6.421 20.0549 6.32434 20.0549Z" fill="black"/>
<path d="M6.34998 14.0549C6.15998 14.0549 5.98998 14.0099 5.83998 13.9199C5.69331 13.8265 5.59665 13.7049 5.54998 13.5549L5.60498 13.3499V13.5949C5.60498 13.7415 5.56665 13.8532 5.48998 13.9299C5.41665 14.0065 5.30998 14.0449 5.16998 14.0449C5.02665 14.0449 4.91665 14.0065 4.83998 13.9299C4.76665 13.8532 4.72998 13.7415 4.72998 13.5949V10.8799C4.72998 10.7332 4.76831 10.6215 4.84498 10.5449C4.92165 10.4682 5.02998 10.4299 5.16998 10.4299C5.31331 10.4299 5.42331 10.4682 5.49998 10.5449C5.57998 10.6215 5.61998 10.7332 5.61998 10.8799V11.9499H5.55998C5.60998 11.8132 5.70831 11.7015 5.85498 11.6149C6.00165 11.5282 6.16665 11.4849 6.34998 11.4849C6.56331 11.4849 6.74998 11.5365 6.90998 11.6399C7.07331 11.7432 7.19998 11.8899 7.28998 12.0799C7.37998 12.2699 7.42498 12.4999 7.42498 12.7699C7.42498 13.0332 7.37998 13.2615 7.28998 13.4549C7.19998 13.6482 7.07331 13.7965 6.90998 13.8999C6.74998 14.0032 6.56331 14.0549 6.34998 14.0549ZM6.06998 13.3999C6.15998 13.3999 6.23831 13.3782 6.30498 13.3349C6.37498 13.2882 6.42998 13.2199 6.46998 13.1299C6.50998 13.0365 6.52998 12.9165 6.52998 12.7699C6.52998 12.5465 6.48665 12.3865 6.39998 12.2899C6.31331 12.1899 6.20331 12.1399 6.06998 12.1399C5.97998 12.1399 5.89998 12.1615 5.82998 12.2049C5.75998 12.2482 5.70498 12.3165 5.66498 12.4099C5.62498 12.4999 5.60498 12.6199 5.60498 12.7699C5.60498 12.9899 5.64831 13.1499 5.73498 13.2499C5.82165 13.3499 5.93331 13.3999 6.06998 13.3999Z" fill="black"/>
<path d="M5.71437 8.05486C5.52437 8.05486 5.35604 8.01986 5.20937 7.94986C5.06604 7.87986 4.95271 7.78486 4.86937 7.66486C4.78937 7.54153 4.74937 7.40153 4.74937 7.24486C4.74937 7.06486 4.79604 6.9232 4.88937 6.81986C4.98271 6.71653 5.13271 6.6432 5.33937 6.59986C5.54604 6.5532 5.82104 6.52986 6.16437 6.52986H6.43938V6.94986H6.16437C6.03437 6.94986 5.92604 6.95986 5.83937 6.97986C5.75604 6.99653 5.69437 7.02486 5.65437 7.06486C5.61437 7.10153 5.59438 7.14986 5.59438 7.20986C5.59438 7.28653 5.62104 7.34986 5.67437 7.39986C5.73104 7.44986 5.81104 7.47486 5.91437 7.47486C5.99771 7.47486 6.07104 7.45653 6.13437 7.41986C6.20104 7.3832 6.25438 7.3332 6.29438 7.26986C6.33438 7.2032 6.35438 7.12653 6.35438 7.03986V6.45986C6.35438 6.33986 6.32271 6.25486 6.25937 6.20486C6.19937 6.15486 6.09437 6.12986 5.94438 6.12986C5.86437 6.12986 5.77437 6.13986 5.67437 6.15986C5.57437 6.17653 5.46271 6.2082 5.33937 6.25486C5.24937 6.2882 5.17271 6.2932 5.10937 6.26986C5.04604 6.24653 4.99604 6.20653 4.95937 6.14986C4.92604 6.0932 4.90937 6.03153 4.90937 5.96486C4.91271 5.8982 4.93437 5.83486 4.97437 5.77486C5.01771 5.71486 5.08271 5.6682 5.16937 5.63486C5.32937 5.57486 5.47604 5.53486 5.60937 5.51486C5.74604 5.49486 5.87104 5.48486 5.98437 5.48486C6.25771 5.48486 6.48271 5.52486 6.65938 5.60486C6.83938 5.68153 6.97271 5.80153 7.05937 5.96486C7.14937 6.12486 7.19438 6.33153 7.19438 6.58486V7.59486C7.19438 7.74153 7.15938 7.8532 7.08938 7.92986C7.01938 8.00653 6.91771 8.04486 6.78437 8.04486C6.64771 8.04486 6.54271 8.00653 6.46938 7.92986C6.39938 7.8532 6.36437 7.74153 6.36437 7.59486V7.46486L6.39437 7.53486C6.37771 7.64153 6.33937 7.7332 6.27937 7.80986C6.21937 7.88653 6.14104 7.94653 6.04437 7.98986C5.94771 8.0332 5.83771 8.05486 5.71437 8.05486Z" fill="black"/>
<path d="M19.9797 6.45689C20.2558 6.45703 20.4797 6.68083 20.4797 6.95689C20.4797 7.23296 20.2558 7.45676 19.9797 7.45689H9.43873C9.16259 7.45689 8.93873 7.23304 8.93873 6.95689C8.93873 6.68075 9.16259 6.45689 9.43873 6.45689H19.9797Z" fill="black"/>
<path d="M19.9797 18.389C20.2558 18.3892 20.4797 18.613 20.4797 18.889C20.4797 19.1651 20.2558 19.3889 19.9797 19.389H9.43873C9.16259 19.389 8.93873 19.1652 8.93873 18.889C8.93873 18.6129 9.16259 18.389 9.43873 18.389H19.9797Z" fill="black"/>
<path d="M19.9797 12.3163C20.2558 12.3164 20.4797 12.5402 20.4797 12.8163C20.4797 13.0923 20.2558 13.3161 19.9797 13.3163H9.43873C9.16259 13.3163 8.93873 13.0924 8.93873 12.8163C8.93873 12.5401 9.16259 12.3163 9.43873 12.3163H19.9797Z" fill="black"/>
</svg>
