<svg width="24" height="24" viewBox="0 0 24 24" fill="none" xmlns="http://www.w3.org/2000/svg">
<path d="M20.25 6H8.25V18H20.25V6Z" fill="black" fill-opacity="0.2"/>
<path d="M4.125 6.375C4.33211 6.375 4.5 6.20711 4.5 6C4.5 5.79289 4.33211 5.625 4.125 5.625C3.91789 5.625 3.75 5.79289 3.75 6C3.75 6.20711 3.91789 6.375 4.125 6.375Z" fill="black"/>
<path d="M4.125 12.375C4.33211 12.375 4.5 12.2071 4.5 12C4.5 11.7929 4.33211 11.625 4.125 11.625C3.91789 11.625 3.75 11.7929 3.75 12C3.75 12.2071 3.91789 12.375 4.125 12.375Z" fill="black"/>
<path d="M4.125 18.375C4.33211 18.375 4.5 18.2071 4.5 18C4.5 17.7929 4.33211 17.625 4.125 17.625C3.91789 17.625 3.75 17.7929 3.75 18C3.75 18.2071 3.91789 18.375 4.125 18.375Z" fill="black"/>
<path d="M8.25 6H20.25M8.25092 12H20.25M8.25092 18H20.25M4.125 6.375C4.33211 6.375 4.5 6.20711 4.5 6C4.5 5.79289 4.33211 5.625 4.125 5.625C3.91789 5.625 3.75 5.79289 3.75 6C3.75 6.20711 3.91789 6.375 4.125 6.375ZM4.125 12.375C4.33211 12.375 4.5 12.2071 4.5 12C4.5 11.7929 4.33211 11.625 4.125 11.625C3.91789 11.625 3.75 11.7929 3.75 12C3.75 12.2071 3.91789 12.375 4.125 12.375ZM4.125 18.375C4.33211 18.375 4.5 18.2071 4.5 18C4.5 17.7929 4.33211 17.625 4.125 17.625C3.91789 17.625 3.75 17.7929 3.75 18C3.75 18.2071 3.91789 18.375 4.125 18.375Z" stroke="black" stroke-width="1.5" stroke-linecap="round" stroke-linejoin="round"/>
</svg>
