<svg width="24" height="24" viewBox="0 0 24 24" fill="none" xmlns="http://www.w3.org/2000/svg">
<path fill-rule="evenodd" clip-rule="evenodd" d="M12 21.7568C12 21.7568 17.625 17.8193 17.625 12.7568C17.625 11.265 17.0324 9.83425 15.9775 8.77936C14.9226 7.72447 13.4918 7.13184 12 7.13184C10.5082 7.13184 9.07742 7.72447 8.02252 8.77936C6.96763 9.83425 6.375 11.265 6.375 12.7568C6.375 17.8193 12 21.7568 12 21.7568ZM14.25 12.7568C14.25 13.9995 13.2426 15.0068 12 15.0068C10.7574 15.0068 9.75 13.9995 9.75 12.7568C9.75 11.5142 10.7574 10.5068 12 10.5068C13.2426 10.5068 14.25 11.5142 14.25 12.7568Z" fill="black" fill-opacity="0.2"/>
<path d="M9.99573 4.15393C9.83889 3.91495 9.65703 3.69082 9.45186 3.48564C8.66069 2.69447 7.58763 2.25 6.46875 2.25C5.34987 2.25 4.27681 2.69447 3.48564 3.48564C2.69447 4.27681 2.25 5.34987 2.25 6.46875C2.25 7.76596 2.74244 8.96469 3.39083 9.9808M14.0019 4.15393C14.1587 3.91495 14.3406 3.69082 14.5458 3.48564C15.3369 2.69447 16.41 2.25 17.5289 2.25C18.6478 2.25 19.7208 2.69447 20.512 3.48564C21.3032 4.27681 21.7476 5.34987 21.7476 6.46875C21.7476 7.76596 21.2552 8.96469 20.6068 9.9808M12 21.7567C12 21.7567 17.625 17.8192 17.625 12.7567C17.625 11.2649 17.0324 9.83413 15.9775 8.77924C14.9226 7.72435 13.4918 7.13171 12 7.13171C10.5082 7.13171 9.07742 7.72435 8.02252 8.77924C6.96763 9.83413 6.375 11.2649 6.375 12.7567C6.375 17.8192 12 21.7567 12 21.7567ZM14.25 12.7567C14.25 13.9994 13.2426 15.0067 12 15.0067C10.7574 15.0067 9.75 13.9994 9.75 12.7567C9.75 11.5141 10.7574 10.5067 12 10.5067C13.2426 10.5067 14.25 11.5141 14.25 12.7567Z" stroke="black" stroke-width="1.5" stroke-linecap="round" stroke-linejoin="round"/>
</svg>
