<svg width="24" height="24" viewBox="0 0 24 24" fill="none" xmlns="http://www.w3.org/2000/svg">
<path d="M19.5 8.25H4.5C4.08579 8.25 3.75 8.58579 3.75 9V19.5C3.75 19.9142 4.08579 20.25 4.5 20.25H19.5C19.9142 20.25 20.25 19.9142 20.25 19.5V9C20.25 8.58579 19.9142 8.25 19.5 8.25Z" fill="black" fill-opacity="0.2"/>
<path d="M8.24951 8.25V5.25C8.24951 4.25544 8.6446 3.30161 9.34786 2.59835C10.0511 1.89509 11.0049 1.5 11.9995 1.5C12.9941 1.5 13.9479 1.89509 14.6512 2.59835C15.3544 3.30161 15.7495 4.25544 15.7495 5.25V8.25M12.7495 14.25C12.7495 14.6642 12.4137 15 11.9995 15C11.5853 15 11.2495 14.6642 11.2495 14.25C11.2495 13.8358 11.5853 13.5 11.9995 13.5C12.4137 13.5 12.7495 13.8358 12.7495 14.25ZM4.49951 8.25H19.4995C19.9137 8.25 20.2495 8.58579 20.2495 9V19.5C20.2495 19.9142 19.9137 20.25 19.4995 20.25H4.49951C4.0853 20.25 3.74951 19.9142 3.74951 19.5V9C3.74951 8.58579 4.0853 8.25 4.49951 8.25Z" stroke="black" stroke-width="1.5" stroke-linecap="round" stroke-linejoin="round"/>
</svg>
