<svg width="24" height="24" viewBox="0 0 24 24" fill="none" xmlns="http://www.w3.org/2000/svg">
<path d="M12 12V3M12 12H21M12 12H3M12 12V21M12 3C16.9704 3 21 7.0296 21 12M12 3C7.0296 3 3 7.0296 3 12M21 12C21 16.9704 16.9704 21 12 21M3 12C3 16.9704 7.0296 21 12 21" stroke="black" stroke-width="1.5" stroke-miterlimit="10"/>
<path d="M12 12V3C16.9704 3 21 7.0296 21 12H12ZM12 3C7.0296 3 3 7.0296 3 12H12V3ZM12 12V21C16.9704 21 21 16.9704 21 12H12ZM3 12C3 16.9704 7.0296 21 12 21V12H3Z" fill="black" fill-opacity="0.2"/>
</svg>
