<svg xmlns="http://www.w3.org/2000/svg" width="24" height="24" fill="currentColor" viewBox="0 0 24 24"><path d="M21.72 4.71v14.58a1.62 1.62 0 0 1-1.62 1.62H3.9V3.09h16.2a1.62 1.62 0 0 1 1.62 1.62" opacity=".2"/><path d="M11.19 20.91a0.81 0.81 0 0 1-0.81 0.81h-6.48a0.81 0.81 0 0 1-0.81-0.81V3.09A0.81 0.81 0 0 1 3.9 2.28h6.48a0.81 0.81 0 0 1 0 1.62H4.71v16.2h5.67a0.81 0.81 0 0 1 0.81 0.81m11.104-9.484l-4.05-4.05a0.81 0.81 0 0 0-1.146 1.146l2.667 2.667H10.38a0.81 0.81 0 0 0 0 1.62h9.385l-2.667 2.666a0.81 0.81 0 0 0 1.146 1.146l4.05-4.05a0.81 0.81 0 0 0 0-1.146z"/></svg>