<svg xmlns="http://www.w3.org/2000/svg" width="24" height="24" fill="currentColor" viewBox="0 0 24 24"><path d="M3.09 5.52h4.86v14.58h-4.86a0.81 0.81 0 0 1-0.81-0.81v-12.96a0.81 0.81 0 0 1 0.81-0.81m17.82 0h-4.86v14.58h4.86a0.81 0.81 0 0 0 0.81-0.81v-12.96a0.81 0.81 0 0 0-0.81-0.81" opacity=".2"/><path d="M20.91 4.71H16.86V3.9a2.43 2.43 0 0 0-2.43-2.43h-4.86A2.43 2.43 0 0 0 7.14 3.9v0.81H3.09a1.62 1.62 0 0 0-1.62 1.62v12.96a1.62 1.62 0 0 0 1.62 1.62h17.82a1.62 1.62 0 0 0 1.62-1.62v-12.96a1.62 1.62 0 0 0-1.62-1.62M8.76 3.9a0.81 0.81 0 0 1 0.81-0.81h4.86a0.81 0.81 0 0 1 0.81 0.81v0.81H8.76z m6.48 2.43v12.96H8.76v-12.96z m-12.15 0H7.14v12.96H3.09z m17.82 12.96H16.86v-12.96h4.05z"/></svg>