<svg width="24" height="24" viewBox="0 0 24 24" fill="none" xmlns="http://www.w3.org/2000/svg">
<path d="M8.25 19.5H3.75C3.55109 19.5 3.36038 19.4209 3.21973 19.2803C3.07907 19.1396 3 18.9489 3 18.75V6.75C3 6.55109 3.07907 6.36038 3.21973 6.21973C3.36038 6.07907 3.55109 6 3.75 6H8.25V19.5Z" fill="black" fill-opacity="0.2"/>
<path d="M20.25 6C20.4489 6 20.6396 6.07907 20.7803 6.21973C20.9209 6.36038 21 6.55109 21 6.75V18.75C21 18.9489 20.9209 19.1396 20.7803 19.2803C20.6396 19.4209 20.4489 19.5 20.25 19.5H15.75V6H20.25Z" fill="black" fill-opacity="0.2"/>
<path d="M15.75 19.5V4.5C15.75 4.10218 15.592 3.72064 15.3107 3.43934C15.0294 3.15804 14.6478 3 14.25 3H9.75C9.35218 3 8.97064 3.15804 8.68934 3.43934C8.40804 3.72064 8.25 4.10218 8.25 4.5V19.5M3.75 6H20.25C20.6642 6 21 6.33579 21 6.75V18.75C21 19.1642 20.6642 19.5 20.25 19.5H3.75C3.33579 19.5 3 19.1642 3 18.75V6.75C3 6.33579 3.33579 6 3.75 6Z" stroke="black" stroke-width="1.5" stroke-linecap="round" stroke-linejoin="round"/>
</svg>
