<svg width="24" height="24" viewBox="0 0 24 24" fill="none" xmlns="http://www.w3.org/2000/svg">
<path d="M5.43003 8.81982L2.24805 12.0018L5.43003 15.1838" fill="black" fill-opacity="0.2"/>
<path d="M18.5703 15.1838L21.7523 12.0019L18.5703 8.81988" fill="black" fill-opacity="0.2"/>
<path d="M11.25 14.2518C10.4215 14.2518 9.74997 13.5803 9.74997 12.7518V11.2518C9.74997 10.4234 10.4215 9.75183 11.25 9.75183L12.75 9.75183C13.5784 9.75183 14.25 10.4234 14.25 11.2518V12.7518C14.25 13.5803 13.5784 14.2518 12.75 14.2518H11.25Z" fill="black" fill-opacity="0.2"/>
<path d="M5.42954 8.81801L2.24756 12L5.42954 15.182M2.24756 12H7.49447M18.5702 15.182L21.7522 12L18.5702 8.81799M21.7522 12H16.5129M11.3315 13.5H12.6648C13.1251 13.5 13.4982 13.1269 13.4982 12.6667V11.3333C13.4982 10.8731 13.1251 10.5 12.6648 10.5H11.3315C10.8713 10.5 10.4982 10.8731 10.4982 11.3333V12.6667C10.4982 13.1269 10.8713 13.5 11.3315 13.5Z" stroke="black" stroke-width="1.5" stroke-linecap="round" stroke-linejoin="round"/>
</svg>
