<svg width="24" height="24" viewBox="0 0 24 24" fill="none" xmlns="http://www.w3.org/2000/svg">
<path d="M15.1818 5.43198L11.9999 2.25L8.81787 5.43198" fill="black" fill-opacity="0.2"/>
<path d="M8.81787 18.5722L11.9999 21.7542L15.1818 18.5722" fill="black" fill-opacity="0.2"/>
<path d="M9.74983 11.2519C9.74983 10.4235 10.4214 9.7519 11.2498 9.7519H12.7498C13.5783 9.7519 14.2498 10.4235 14.2498 11.2519V12.7519C14.2498 13.5803 13.5783 14.2519 12.7498 14.2519H11.2498C10.4214 14.2519 9.74983 13.5803 9.74983 12.7519V11.2519Z" fill="black" fill-opacity="0.2"/>
<path d="M15.1823 5.43137L12.0003 2.24939L8.81836 5.43137M12.0003 2.24939V7.4963M8.81837 18.572L12.0003 21.754L15.1823 18.572M12.0003 21.754V16.5147M10.5003 11.3333V12.6667C10.5003 13.1269 10.8734 13.5 11.3336 13.5H12.667C13.1272 13.5 13.5003 13.1269 13.5003 12.6667V11.3333C13.5003 10.8731 13.1272 10.5 12.667 10.5H11.3336C10.8734 10.5 10.5003 10.8731 10.5003 11.3333Z" stroke="black" stroke-width="1.5" stroke-linecap="round" stroke-linejoin="round"/>
</svg>
