<svg width="24" height="24" viewBox="0 0 24 24" fill="none" xmlns="http://www.w3.org/2000/svg">
<path d="M6.60293 9.25581C6.74593 9.11309 6.96117 9.07008 7.14785 9.14741C7.33449 9.22477 7.45626 9.40732 7.45645 9.60932V11.4951H8.99551C9.27138 11.4952 9.49531 11.7192 9.49551 11.9951C9.49551 12.2711 9.27151 12.4949 8.99551 12.4951H7.45645V14.3828C7.45645 14.5849 7.33454 14.7672 7.14785 14.8447C6.96107 14.922 6.74593 14.8792 6.60293 14.7363L4.21621 12.3496C4.02107 12.1543 4.02099 11.8378 4.21621 11.6425L6.60293 9.25581ZM16.8451 9.14741C17.0319 9.07009 17.2471 9.11284 17.39 9.25581L19.7768 11.6425C19.9716 11.8378 19.9718 12.1544 19.7768 12.3496L17.39 14.7363C17.2471 14.8791 17.0318 14.9219 16.8451 14.8447C16.6584 14.7673 16.5367 14.5848 16.5365 14.3828V12.497H14.9975C14.7214 12.497 14.4977 12.273 14.4975 11.997C14.4975 11.7209 14.7213 11.497 14.9975 11.497H16.5365V9.60932C16.5365 9.40709 16.6583 9.2248 16.8451 9.14741ZM12.9926 11.246C12.9926 11.108 12.8807 10.996 12.7426 10.996H11.2426C11.1045 10.9961 10.9926 11.108 10.9926 11.246V12.746L10.9975 12.7968C11.0209 12.9106 11.1219 12.996 11.2426 12.996H12.7426C12.8807 12.996 12.9926 12.8841 12.9926 12.746V11.246ZM5.27676 11.996L6.45645 13.1757V10.8164L5.27676 11.996ZM17.5365 13.1748L18.7152 11.9951L17.5365 10.8164V13.1748ZM13.9926 12.746C13.9926 13.4364 13.4329 13.996 12.7426 13.996H11.2426C10.5522 13.996 9.99258 13.4364 9.99258 12.746V11.246C9.99258 10.5557 10.5522 9.99606 11.2426 9.99604H12.7426C13.4329 9.99604 13.9926 10.5557 13.9926 11.246V12.746Z" fill="black"/>
<path fill-rule="evenodd" clip-rule="evenodd" d="M12.7426 10.996C12.8807 10.996 12.9926 11.108 12.9926 11.246V12.746C12.9926 12.8841 12.8807 12.996 12.7426 12.996H11.2426C11.1219 12.996 11.0209 12.9106 10.9975 12.7968L10.9926 12.746V11.246C10.9926 11.108 11.1045 10.9961 11.2426 10.996H12.7426Z" fill="black" fill-opacity="0.2"/>
<path fill-rule="evenodd" clip-rule="evenodd" d="M6.45645 13.1757L5.27676 11.996L6.45645 10.8164V13.1757Z" fill="black" fill-opacity="0.2"/>
<path fill-rule="evenodd" clip-rule="evenodd" d="M18.7152 11.9951L17.5365 13.1748V10.8164L18.7152 11.9951Z" fill="black" fill-opacity="0.2"/>
</svg>
