<svg width="24" height="24" viewBox="0 0 24 24" fill="none" xmlns="http://www.w3.org/2000/svg">
<path d="M15.182 5.43198L12 2.25L8.81799 5.43198" fill="black" fill-opacity="0.2"/>
<path d="M8.81799 18.5722L12 21.7542L15.182 18.5722" fill="black" fill-opacity="0.2"/>
<path d="M9.74995 11.2519C9.74995 10.4235 10.4215 9.7519 11.25 9.7519H12.75C13.5784 9.7519 14.25 10.4235 14.25 11.2519V12.7519C14.25 13.5803 13.5784 14.2519 12.75 14.2519H11.25C10.4215 14.2519 9.74995 13.5803 9.74995 12.7519V11.2519Z" fill="black" fill-opacity="0.2"/>
<path d="M10.5 11.3334H9.74998V11.3334H10.5ZM11.3333 10.5001V11.2501V11.2501V10.5001ZM11.3333 13.5001V14.2501V14.2501V13.5001ZM10.5 12.6668H11.25V12.6668H10.5ZM13.5 12.6668H14.25V12.6668H13.5ZM12.6667 13.5001V12.7501V12.7501V13.5001ZM13.5 11.3334H12.75V11.3334H13.5ZM12.6667 10.5001V9.75012V9.75012V10.5001ZM11.25 7.49642C11.25 7.91064 11.5858 8.24642 12 8.24642C12.4142 8.24642 12.75 7.91063 12.75 7.49642L12 7.49642L11.25 7.49642ZM8.81799 5.43149L8.28766 4.90116C8.07316 5.11566 8.009 5.43825 8.12508 5.7185C8.24117 5.99876 8.51465 6.18149 8.81799 6.18149V5.43149ZM15.182 5.43149V6.18149C15.4853 6.18149 15.7588 5.99876 15.8749 5.7185C15.9909 5.43825 15.9268 5.11566 15.7123 4.90116L15.182 5.43149ZM12 2.24951L12.5303 1.71918C12.2374 1.42629 11.7625 1.42629 11.4696 1.71918L12 2.24951ZM12.75 16.5149C12.75 16.1006 12.4142 15.7649 12 15.7649C11.5858 15.7649 11.25 16.1007 11.25 16.5149L12 16.5149L12.75 16.5149ZM12 21.7541L11.4697 22.2844C11.6103 22.4251 11.8011 22.5041 12 22.5041C12.1989 22.5041 12.3897 22.4251 12.5303 22.2844L12 21.7541ZM8.81801 18.5721L8.81801 17.8221C8.51466 17.8221 8.24118 18.0049 8.1251 18.2851C8.00901 18.5654 8.07318 18.888 8.28768 19.1025L8.81801 18.5721ZM15.182 18.5721L15.7123 19.1025C15.9268 18.888 15.991 18.5654 15.8749 18.2851C15.7588 18.0049 15.4853 17.8221 15.182 17.8221V18.5721ZM13.5 11.3334H12.75V12.6668H13.5H14.25V11.3334H13.5ZM12.6667 13.5001V12.7501H11.3333V13.5001V14.2501H12.6667V13.5001ZM10.5 12.6668H11.25V11.3334H10.5H9.74998V12.6668H10.5ZM11.3333 10.5001V11.2501H12.6667V10.5001V9.75012H11.3333V10.5001ZM10.5 11.3334H11.25C11.25 11.2874 11.2873 11.2501 11.3333 11.2501V10.5001V9.75012C10.4589 9.75012 9.74998 10.459 9.74998 11.3334H10.5ZM11.3333 13.5001V12.7501C11.2873 12.7501 11.25 12.7128 11.25 12.6668H10.5H9.74998C9.74998 13.5412 10.4589 14.2501 11.3333 14.2501V13.5001ZM13.5 12.6668H12.75C12.75 12.7128 12.7127 12.7501 12.6667 12.7501V13.5001V14.2501C13.5411 14.2501 14.25 13.5412 14.25 12.6668H13.5ZM13.5 11.3334H14.25C14.25 10.459 13.5411 9.75012 12.6667 9.75012V10.5001V11.2501C12.7127 11.2501 12.75 11.2874 12.75 11.3334H13.5ZM12 7.49642L12.75 7.49642L12.75 5.24418L12 5.24418L11.25 5.24418L11.25 7.49642L12 7.49642ZM8.81799 5.43149V6.18149H15.182V5.43149V4.68149H8.81799V5.43149ZM12 2.99203L12.75 2.99203L12.75 2.24951L12 2.24951L11.25 2.24951L11.25 2.99203L12 2.99203ZM15.182 5.43149L15.7123 4.90116L12.5303 1.71918L12 2.24951L11.4696 2.77984L14.6516 5.96182L15.182 5.43149ZM12 2.24951L11.4696 1.71918L8.28766 4.90116L8.81799 5.43149L9.34832 5.96182L12.5303 2.77984L12 2.24951ZM12 16.5149L11.25 16.5149L11.25 19.1536L12 19.1536L12.75 19.1536L12.75 16.5149L12 16.5149ZM12 20.6171L11.25 20.6171L11.25 21.7541L12 21.7541L12.75 21.7541L12.75 20.6171L12 20.6171ZM8.81801 18.5721L8.81801 19.3221L15.182 19.3221V18.5721V17.8221L8.81801 17.8221L8.81801 18.5721ZM12 21.7541L12.5303 22.2844L15.7123 19.1025L15.182 18.5721L14.6516 18.0418L11.4697 21.2238L12 21.7541ZM8.81801 18.5721L8.28768 19.1025L11.4697 22.2844L12 21.7541L12.5303 21.2238L9.34834 18.0418L8.81801 18.5721Z" fill="black"/>
</svg>
