<svg width="24" height="24" viewBox="0 0 24 24" fill="none" xmlns="http://www.w3.org/2000/svg">
<path d="M5.43003 8.81982L2.24805 12.0018L5.43003 15.1838" fill="black" fill-opacity="0.2"/>
<path d="M18.5703 15.1838L21.7523 12.0019L18.5703 8.81988" fill="black" fill-opacity="0.2"/>
<path d="M11.25 14.2518C10.4215 14.2518 9.74997 13.5803 9.74997 12.7518V11.2518C9.74997 10.4234 10.4215 9.75183 11.25 9.75183L12.75 9.75183C13.5784 9.75183 14.25 10.4234 14.25 11.2518V12.7518C14.25 13.5803 13.5784 14.2518 12.75 14.2518H11.25Z" fill="black" fill-opacity="0.2"/>
<path d="M11.3316 13.5016L11.3316 14.2516V14.2516L11.3316 13.5016ZM10.4983 12.6683L11.2483 12.6683V12.6683L10.4983 12.6683ZM13.4983 12.6683L14.2483 12.6683V12.6683L13.4983 12.6683ZM12.665 13.5016L12.665 12.7516V12.7516L12.665 13.5016ZM12.665 10.5016L12.665 9.75161V9.75161L12.665 10.5016ZM13.4983 11.3349L12.7483 11.3349V11.3349L13.4983 11.3349ZM11.3316 10.5016L11.3316 11.2516V11.2516L11.3316 10.5016ZM10.4983 11.3349L9.74829 11.3349V11.3349L10.4983 11.3349ZM7.49459 12.7516C7.90881 12.7516 8.24459 12.4158 8.24459 12.0016C8.24459 11.5874 7.9088 11.2516 7.49459 11.2516L7.49459 12.0016L7.49459 12.7516ZM5.42966 15.1836L4.89933 15.7139C5.11383 15.9284 5.43642 15.9926 5.71667 15.8765C5.99693 15.7604 6.17966 15.4869 6.17966 15.1836L5.42966 15.1836ZM5.42966 8.81963L6.17966 8.81963C6.17966 8.51629 5.99693 8.24281 5.71667 8.12672C5.43642 8.01064 5.11383 8.0748 4.89933 8.2893L5.42966 8.81963ZM2.24768 12.0016L1.71735 11.4713C1.42446 11.7642 1.42446 12.2391 1.71735 12.5319L2.24768 12.0016ZM16.513 11.2516C16.0988 11.2516 15.763 11.5874 15.763 12.0016C15.763 12.4158 16.0988 12.7516 16.513 12.7516L16.513 12.0016L16.513 11.2516ZM21.7523 12.0016L22.2826 12.5319C22.4233 12.3913 22.5023 12.2005 22.5023 12.0016C22.5023 11.8027 22.4233 11.6119 22.2826 11.4713L21.7523 12.0016ZM18.5703 15.1836L17.8203 15.1836C17.8203 15.4869 18.003 15.7604 18.2833 15.8765C18.5635 15.9926 18.8861 15.9284 19.1006 15.7139L18.5703 15.1836ZM18.5703 8.81962L19.1006 8.28929C18.8861 8.07479 18.5635 8.01062 18.2833 8.12671C18.003 8.2428 17.8203 8.51627 17.8203 8.81962L18.5703 8.81962ZM11.3316 10.5016L11.3316 11.2516L12.665 11.2516L12.665 10.5016L12.665 9.75161L11.3316 9.75161L11.3316 10.5016ZM13.4983 11.3349L12.7483 11.3349L12.7483 12.6683L13.4983 12.6683L14.2483 12.6683L14.2483 11.3349L13.4983 11.3349ZM12.665 13.5016L12.665 12.7516L11.3316 12.7516L11.3316 13.5016L11.3316 14.2516L12.665 14.2516L12.665 13.5016ZM10.4983 12.6683L11.2483 12.6683L11.2483 11.3349L10.4983 11.3349L9.74829 11.3349L9.74829 12.6683L10.4983 12.6683ZM11.3316 13.5016L11.3316 12.7516C11.2856 12.7516 11.2483 12.7143 11.2483 12.6683L10.4983 12.6683L9.74829 12.6683C9.74829 13.5427 10.4572 14.2516 11.3316 14.2516L11.3316 13.5016ZM13.4983 12.6683L12.7483 12.6683C12.7483 12.7143 12.711 12.7516 12.665 12.7516L12.665 13.5016L12.665 14.2516C13.5394 14.2516 14.2483 13.5427 14.2483 12.6683L13.4983 12.6683ZM12.665 10.5016L12.665 11.2516C12.711 11.2516 12.7483 11.2889 12.7483 11.3349L13.4983 11.3349L14.2483 11.3349C14.2483 10.4605 13.5394 9.75161 12.665 9.75161L12.665 10.5016ZM11.3316 10.5016L11.3316 9.75161C10.4572 9.75161 9.74829 10.4605 9.74829 11.3349L10.4983 11.3349L11.2483 11.3349C11.2483 11.2889 11.2856 11.2516 11.3316 11.2516L11.3316 10.5016ZM7.49459 12.0016L7.49459 11.2516L5.24235 11.2516L5.24235 12.0016L5.24235 12.7516L7.49459 12.7516L7.49459 12.0016ZM5.42966 15.1836L6.17966 15.1836L6.17966 8.81963L5.42966 8.81963L4.67966 8.81963L4.67966 15.1836L5.42966 15.1836ZM2.9902 12.0016L2.9902 11.2516L2.24768 11.2516L2.24768 12.0016L2.24768 12.7516L2.9902 12.7516L2.9902 12.0016ZM5.42966 8.81963L4.89933 8.2893L1.71735 11.4713L2.24768 12.0016L2.77801 12.5319L5.95999 9.34996L5.42966 8.81963ZM2.24768 12.0016L1.71735 12.5319L4.89933 15.7139L5.42966 15.1836L5.95999 14.6533L2.77801 11.4713L2.24768 12.0016ZM16.513 12.0016L16.513 12.7516L19.1518 12.7516L19.1517 12.0016L19.1517 11.2516L16.513 11.2516L16.513 12.0016ZM20.6152 12.0016L20.6152 12.7516L21.7523 12.7516L21.7523 12.0016L21.7523 11.2516L20.6152 11.2516L20.6152 12.0016ZM18.5703 15.1836L19.3203 15.1836L19.3203 8.81962L18.5703 8.81962L17.8203 8.81962L17.8203 15.1836L18.5703 15.1836ZM21.7523 12.0016L22.2826 11.4713L19.1006 8.28929L18.5703 8.81962L18.04 9.34995L21.222 12.5319L21.7523 12.0016ZM18.5703 15.1836L19.1006 15.7139L22.2826 12.5319L21.7523 12.0016L21.222 11.4713L18.04 14.6533L18.5703 15.1836Z" fill="black"/>
</svg>
