<svg viewBox="0 0 24 24" fill="none" xmlns="http://www.w3.org/2000/svg" width="24" height="24">
<path d="M8.712 18.472C8.54 18.3 8.489 18.042 8.582 17.818 8.674 17.594 8.893 17.448 9.136 17.448H11.399V15.601C11.399 15.27 11.668 15.001 11.999 15.001 12.33 15.001 12.599 15.27 12.599 15.601V17.448H14.864C15.107 17.448 15.325 17.594 15.418 17.818 15.511 18.042 15.46 18.3 15.288 18.472L12.424 21.336C12.19 21.57 11.81 21.57 11.576 21.336L8.712 18.472ZM8.582 6.181C8.489 5.957 8.54 5.699 8.712 5.527L11.576 2.663C11.81 2.429 12.19 2.429 12.424 2.663L15.288 5.527C15.46 5.699 15.511 5.957 15.418 6.181 15.326 6.405 15.106 6.551 14.864 6.551H12.601V8.398C12.601 8.73 12.332 8.998 12.001 8.998 11.67 8.998 11.401 8.73 11.401 8.398V6.551H9.136C8.893 6.551 8.674 6.405 8.582 6.181ZM11.1 10.804C10.934 10.804 10.8 10.938 10.8 11.104V12.904C10.8 13.07 10.934 13.204 11.1 13.204H12.9L12.961 13.198C13.097 13.17 13.2 13.049 13.2 12.904V11.104C13.2 10.938 13.066 10.804 12.9 10.804H11.1ZM12 20.063L13.416 18.648H10.584L12 20.063ZM13.414 5.351L11.999 3.937 10.584 5.351H13.414ZM12.9 9.604C13.728 9.604 14.4 10.276 14.4 11.104V12.904C14.4 13.733 13.728 14.404 12.9 14.404H11.1C10.272 14.404 9.6 13.733 9.6 12.904V11.104C9.6 10.276 10.272 9.604 11.1 9.604H12.9Z" fill="black"/>
<path fill-rule="evenodd" clip-rule="evenodd" d="M10.8 11.104C10.8 10.938 10.934 10.804 11.1 10.804H12.9C13.066 10.804 13.2 10.938 13.2 11.104V12.904C13.2 13.049 13.097 13.17 12.961 13.198L12.9 13.204H11.1C10.934 13.204 10.8 13.07 10.8 12.904V11.104Z" fill="black" fill-opacity="0.2"/>
<path fill-rule="evenodd" clip-rule="evenodd" d="M13.416 18.648L12 20.063 10.584 18.648H13.416Z" fill="black" fill-opacity="0.2"/>
<path fill-rule="evenodd" clip-rule="evenodd" d="M11.999 3.937L13.414 5.351H10.584L11.999 3.937Z" fill="black" fill-opacity="0.2"/>
</svg>