<svg width="24" height="24" viewBox="0 0 24 24" fill="none" xmlns="http://www.w3.org/2000/svg">
<path d="M12.6665 10.5001C13.1268 10.5001 13.4999 10.8732 13.4999 11.3334V12.6668C13.4999 13.127 13.1268 13.5001 12.6665 13.5001H11.3332C10.8729 13.5001 10.4999 13.127 10.4999 12.6668V11.3334C10.4999 10.8732 10.8729 10.5001 11.3332 10.5001H12.6665Z" fill="black" fill-opacity="0.2"/>
<path d="M18.5702 15.1838L21.7521 12.0018L18.5702 8.81985" fill="black" fill-opacity="0.2"/>
<path d="M15.1819 5.43149L11.9999 2.24951L8.8179 5.43149" fill="black" fill-opacity="0.2"/>
<path d="M5.42954 8.8198L2.24756 12.0018L5.42954 15.1838" fill="black" fill-opacity="0.2"/>
<path d="M8.81784 18.5721L11.9998 21.7541L15.1818 18.5721" fill="black" fill-opacity="0.2"/>
<path d="M7.48683 12.0017H2.25383M11.9998 16.5071V21.7538M15.1818 18.572L11.9998 21.7538L8.81785 18.572M11.9998 7.48866V2.25384M5.42954 15.1836L2.24756 12.0017L5.42954 8.81967M8.8179 5.43137L11.9999 2.24939L15.1819 5.43137M11.9999 2.24939V7.49635M16.5129 12.0017H21.7459M11.9999 16.5148V21.7496M18.5702 8.81997L21.7521 12.002L18.5702 15.1839M10.4999 11.3368V11.3333C10.4999 10.8731 10.8729 10.5 11.3332 10.5H12.6665C13.1268 10.5 13.4999 10.8731 13.4999 11.3333V11.3368M10.4999 11.3368V12.6666M10.4999 11.3368C10.4999 10.8766 10.873 10.5035 11.3332 10.5035H12.6666C13.1268 10.5035 13.4999 10.8766 13.4999 11.3368M10.4999 12.6666C10.4999 13.1269 10.8729 13.5 11.3332 13.5H12.6665C13.1268 13.5 13.4999 13.1269 13.4999 12.6666M10.4999 12.6666V12.6702C10.4999 13.1304 10.873 13.5035 11.3332 13.5035H12.6666C13.1268 13.5035 13.4999 13.1304 13.4999 12.6702V12.6666M13.4999 12.6666V11.3368" stroke="black" stroke-width="1.5" stroke-linecap="round" stroke-linejoin="round"/>
</svg>
