<svg width="24" height="24" viewBox="0 0 24 24" fill="none" xmlns="http://www.w3.org/2000/svg">
<path d="M6.01105 17.2113L1.61913 7.68904C1.24812 6.88218 1.78854 5.93335 2.62016 5.93335H21.3793C22.2109 5.93335 22.7527 6.88218 22.3803 7.68904L17.9044 17.3957C17.7154 17.807 17.3276 18.0667 16.9034 18.0667H7.28789C6.80208 18.0667 6.22806 17.6821 6.01105 17.2113Z" stroke="black" stroke-width="1.5" stroke-miterlimit="10"/>
<path d="M6.01105 17.2113L1.61913 7.68904C1.24812 6.88218 1.78854 5.93335 2.62016 5.93335H21.3793C22.2109 5.93335 22.7527 6.88218 22.3803 7.68904L17.9044 17.3957C17.7154 17.807 17.3276 18.0667 16.9034 18.0667H7.28789C6.80208 18.0667 6.22806 17.6821 6.01105 17.2113Z" fill="black" fill-opacity="0.2"/>
</svg>
