<svg width="24" height="24" viewBox="0 0 24 24" fill="none" xmlns="http://www.w3.org/2000/svg">
<path d="M1.5 9.92996V16.8376C1.5 17.517 1.9704 18.0667 2.55 18.0667H21.45C22.0296 18.0667 22.5 17.5158 22.5 16.8376V7.16352C22.5 6.42338 21.9466 5.85189 21.3198 5.94289L2.4198 8.70933C1.8948 8.78577 1.5 9.30994 1.5 9.92996Z" stroke="black" stroke-width="1.5" stroke-miterlimit="10"/>
<path d="M1.5 9.92996V16.8376C1.5 17.517 1.9704 18.0667 2.55 18.0667H21.45C22.0296 18.0667 22.5 17.5158 22.5 16.8376V7.16352C22.5 6.42338 21.9466 5.85189 21.3198 5.94289L2.4198 8.70933C1.8948 8.78577 1.5 9.30994 1.5 9.92996Z" fill="black" fill-opacity="0.2"/>
</svg>
