<svg xmlns="http://www.w3.org/2000/svg" fill="currentColor" viewBox="0 0 24 24" width="24" height="24"><path d="M17.67 7.14c0 5.67-5.67 8.91-5.67 8.91s-5.67-3.24-5.67-8.91a5.67 5.67 0 0 1 11.34 0" opacity=".2"/><path d="M10.38 7.14A1.62 1.62 0 1 1 12 8.76a1.62 1.62 0 0 1-1.62-1.62m-4.86 0a6.48 6.48 0 0 1 12.96 0c0 6.07-5.83 9.47-6.076 9.613a0.816 0.816 0 0 1-0.804 0c-0.251-0.143-6.082-3.539-6.081-9.613z m1.62 0c0 4.273 3.629 7.109 4.86 7.948 1.23-0.839 4.86-3.676 4.86-7.948a4.86 4.86 0 0 0-9.72 0m12.431 6.847a0.81 0.81 0 0 0-0.561 1.519c1.672 0.619 2.711 1.447 2.711 2.164 0 1.352-3.697 3.24-9.72 3.24s-9.72-1.888-9.72-3.24c0-0.716 1.039-1.546 2.711-2.162a0.81 0.81 0 0 0-0.56-1.52c-2.431 0.896-3.769 2.204-3.77 3.682 0 3.157 5.843 4.86 11.34 4.86s11.34-1.703 11.34-4.86c0-1.477-1.338-2.785-3.769-3.683z"/></svg>