<svg width="24" height="24" viewBox="0 0 24 24" fill="none" xmlns="http://www.w3.org/2000/svg">
<path d="M12 12C14.4853 12 16.5 9.98528 16.5 7.5C16.5 5.01472 14.4853 3 12 3C9.51472 3 7.5 5.01472 7.5 7.5C7.5 9.98528 9.51472 12 12 12Z" fill="black" fill-opacity="0.2"/>
<path d="M11.9995 12C14.4848 12 16.4995 9.98528 16.4995 7.5C16.4995 5.01472 14.4848 3 11.9995 3C9.51423 3 7.49951 5.01472 7.49951 7.5C7.49951 9.98528 9.51423 12 11.9995 12ZM11.9995 12V20.25M3.74951 20.25H20.2495" stroke="black" stroke-width="1.5" stroke-linecap="round" stroke-linejoin="round"/>
</svg>
