<svg xmlns="http://www.w3.org/2000/svg" fill="currentColor" viewBox="0 0 24 24" width="24" height="24"><path d="M12 1.47a8.1 8.1 0 0 0-8.1 8.1c0 7.29 8.1 12.96 8.1 12.96s8.1-5.67 8.1-12.96A8.1 8.1 0 0 0 12 1.47m0 11.34a3.24 3.24 0 1 1 3.24-3.24 3.24 3.24 0 0 1-3.24 3.24" opacity=".2"/><path d="M12 5.52a4.05 4.05 0 1 0 4.05 4.05A4.05 4.05 0 0 0 12 5.52m0 6.48a2.43 2.43 0 1 1 2.43-2.43A2.43 2.43 0 0 1 12 12m0-11.34a8.92 8.92 0 0 0-8.91 8.91c0 3.179 1.469 6.548 4.253 9.745a25.8 25.8 0 0 0 4.196 3.879 0.81 0.81 0 0 0 0.93 0 25.8 25.8 0 0 0 4.189-3.879c2.779-3.197 4.253-6.566 4.253-9.745a8.92 8.92 0 0 0-8.91-8.91z m0 20.857c-1.674-1.316-7.29-6.151-7.29-11.947a7.29 7.29 0 0 1 14.58 0c0 5.795-5.616 10.631-7.29 11.947"/></svg>