<svg width="24" height="24" viewBox="0 0 24 24" fill="none" xmlns="http://www.w3.org/2000/svg">
<path d="M5.25171 12.7507C4.83709 12.7507 4.50098 12.4146 4.50098 12C4.50098 11.5854 4.83709 11.2493 5.25171 11.2493H7.49927C7.91389 11.2493 8.25 11.5854 8.25 12C8.25 12.4146 7.91389 12.7507 7.49927 12.7507H5.25171Z" fill="black"/>
<path d="M5.25146 14.9993C5.25146 15.4139 4.91535 15.75 4.50073 15.75C4.08611 15.75 3.75 15.4139 3.75 14.9993V9.00073C3.75 8.58611 4.08611 8.25 4.50073 8.25C4.91535 8.25 5.25146 8.58611 5.25146 9.00073V14.9993Z" fill="black"/>
<path d="M20.25 15.75V8.25M20.25 12H15.75M12 3.75V8.25M12 15.75V20.25M15.75 20.25H8.24997M15.75 3.75H8.24997M8.25 12C8.25 12.4146 7.91389 12.7507 7.49927 12.7507H5.25171C4.83709 12.7507 4.50098 12.4146 4.50098 12C4.50098 11.5854 4.83709 11.2493 5.25171 11.2493H7.49927C7.91389 11.2493 8.25 11.5854 8.25 12ZM4.50073 8.25C4.91535 8.25 5.25146 8.58611 5.25146 9.00073V14.9993C5.25146 15.4139 4.91535 15.75 4.50073 15.75C4.08611 15.75 3.75 15.4139 3.75 14.9993V9.00073C3.75 8.58611 4.08611 8.25 4.50073 8.25Z" stroke="black" stroke-width="1.5" stroke-linecap="round"/>
<path d="M18.2665 5L5.73354 5C5.32842 5 5 5.32842 5 5.73354L5 18.2665C5 18.6716 5.32842 19 5.73354 19H18.2665C18.6716 19 19 18.6716 19 18.2665V5.73354C19 5.32842 18.6716 5 18.2665 5Z" fill="black" fill-opacity="0.2"/>
</svg>
