<svg viewBox="0 0 24 24" fill="none" xmlns="http://www.w3.org/2000/svg" width="24" height="24">
<path d="M11.67 4.208C11.903 4.055 12.219 4.081 12.424 4.286L15.665 7.526C15.899 7.76 15.899 8.14 15.665 8.374 15.43 8.609 15.051 8.608 14.816 8.374L12 5.558 9.184 8.374C8.95 8.608 8.57 8.608 8.336 8.374 8.101 8.14 8.102 7.76 8.336 7.526L11.576 4.286 11.67 4.208Z" fill="black"/>
<path d="M11.4 19.29L11.4 4.71C11.4 4.378 11.669 4.11 12 4.11 12.331 4.11 12.6 4.378 12.6 4.71L12.6 19.29C12.6 19.622 12.331 19.89 12 19.89 11.669 19.89 11.4 19.622 11.4 19.29Z" fill="black"/>
<path d="M19.8 2.4L4.2 2.4C3.869 2.4 3.6 2.131 3.6 1.8 3.6 1.469 3.869 1.2 4.2 1.2L19.8 1.2C20.131 1.2 20.4 1.469 20.4 1.8 20.4 2.131 20.131 2.4 19.8 2.4Z" fill="black"/>
<path d="M19.8 22.819L4.2 22.819C3.869 22.819 3.6 22.55 3.6 22.219 3.6 21.887 3.869 21.619 4.2 21.619L19.8 21.619C20.131 21.619 20.4 21.887 20.4 22.219 20.4 22.55 20.131 22.819 19.8 22.819Z" fill="black"/>
<path d="M14.816 15.626C15.051 15.392 15.43 15.392 15.665 15.626 15.899 15.86 15.899 16.24 15.665 16.474L12.424 19.715C12.19 19.949 11.81 19.949 11.576 19.715L8.336 16.474C8.101 16.24 8.101 15.86 8.336 15.626 8.57 15.392 8.95 15.392 9.184 15.626L12 18.442 14.816 15.626Z" fill="black"/>
<path d="M9.66 22.406C9.163 22.406 8.76 22.003 8.76 21.506L8.76 2.494C8.76 1.997 9.163 1.594 9.66 1.594H14.34C14.837 1.594 15.24 1.997 15.24 2.494V21.506C15.24 22.003 14.837 22.406 14.34 22.406H9.66Z" fill="black" fill-opacity="0.2"/>
</svg>