<svg xmlns="http://www.w3.org/2000/svg" width="24" height="24" fill="currentColor" viewBox="0 0 24 24"><path d="M22.53 4.71v14.58a1.62 1.62 0 0 1-1.62 1.62H3.09a1.62 1.62 0 0 1-1.62-1.62V4.71a1.62 1.62 0 0 1 1.62-1.62h17.82a1.62 1.62 0 0 1 1.62 1.62" opacity=".2"/><path d="M19.29 12.81a0.81 0.81 0 0 1-0.81 0.81H5.52a0.81 0.81 0 0 1 0-1.62h12.96a0.81 0.81 0 0 1 0.81 0.81m3.24-5.67H1.47a0.81 0.81 0 0 0 0 1.62h21.06a0.81 0.81 0 0 0 0-1.62m-8.1 9.72h-4.86a0.81 0.81 0 0 0 0 1.62h4.86a0.81 0.81 0 0 0 0-1.62"/></svg>