<svg xmlns="http://www.w3.org/2000/svg" width="24" height="24" fill="currentColor" viewBox="0 0 24 24"><path d="M21.72 7.95v8.91a1.62 1.62 0 0 1-1.62 1.62H3.9V5.52h15.39z" opacity=".2"/><path d="M3.09 12a0.81 0.81 0 0 1 0.81-0.81h7.29a0.81 0.81 0 0 1 0 1.62H3.9A0.81 0.81 0 0 1 3.09 12m0.81-5.67h5.67a0.81 0.81 0 0 0 0-1.62H3.9a0.81 0.81 0 0 0 0 1.62m13.77 11.34H3.9a0.81 0.81 0 0 0 0 1.62h13.77a0.81 0.81 0 0 0 0-1.62m4.624-10.294l-4.05-4.05a0.81 0.81 0 0 0-1.146 0l-4.05 4.05a0.81 0.81 0 0 0 1.146 1.146l2.666-2.667v7.765a0.81 0.81 0 0 0 1.62 0V5.855l2.666 2.667a0.81 0.81 0 0 0 1.146-1.146z"/></svg>