<svg xmlns="http://www.w3.org/2000/svg" width="24" height="24" fill="currentColor" viewBox="0 0 24 24"><path d="M23.34 4.71v14.58a1.62 1.62 0 0 1-1.62 1.62H2.28a1.62 1.62 0 0 1-1.62-1.62V4.71a1.62 1.62 0 0 1 1.62-1.62h19.44a1.62 1.62 0 0 1 1.62 1.62" opacity=".2"/><path d="M12.81 3.09v17.82a0.81 0.81 0 0 1-1.62 0V3.09a0.81 0.81 0 0 1 1.62 0M6.094 8.186a0.81 0.81 0 0 0-1.146 1.146l1.857 1.857H0.66a0.81 0.81 0 0 0 0 1.62h6.145l-1.857 1.856a0.81 0.81 0 0 0 1.146 1.146l3.24-3.24a0.81 0.81 0 0 0 0-1.146z m17.246 3.004h-6.145l1.857-1.856a0.81 0.81 0 0 0-1.146-1.146l-3.24 3.24a0.81 0.81 0 0 0 0 1.146l3.24 3.24a0.81 0.81 0 0 0 1.146-1.146l-1.857-1.857h6.145a0.81 0.81 0 0 0 0-1.62z"/></svg>