<svg width="24" height="24" viewBox="0 0 24 24" fill="none" xmlns="http://www.w3.org/2000/svg">
<path d="M18.2646 5.25H6.26465V18.75H18.2646V5.25Z" fill="black" fill-opacity="0.2"/>
<path d="M6.13226 5.25H18.1323M6.13226 18.75H18.1323M3.25225 15.75C2.59518 14.6232 2.24896 13.3421 2.24896 12.0377C2.24896 10.7333 2.59518 9.45222 3.25225 8.32538M20.7422 8.3252C21.3993 9.45204 21.7455 10.7331 21.7455 12.0375C21.7455 13.3419 21.3993 14.623 20.7422 15.7498M7.63226 2.25H16.6323C17.4607 2.25 18.1323 2.92157 18.1323 3.75V20.25C18.1323 21.0784 17.4607 21.75 16.6323 21.75H7.63226C6.80383 21.75 6.13226 21.0784 6.13226 20.25V3.75C6.13226 2.92157 6.80383 2.25 7.63226 2.25Z" stroke="black" stroke-width="1.5" stroke-linecap="round" stroke-linejoin="round"/>
</svg>
