<svg viewBox="0 0 24 24" fill="none" xmlns="http://www.w3.org/2000/svg" width="24" height="24">
<path opacity="0.2" d="M18.48 4.71H5.52V19.29H18.48V4.71Z" fill="black"/>
<path d="M17.88 3.089C17.88 2.526 17.423 2.07 16.86 2.07H7.14C6.577 2.07 6.12 2.526 6.12 3.089V20.91C6.12 21.473 6.577 21.929 7.14 21.929H16.86C17.424 21.929 17.88 21.473 17.88 20.91V3.089ZM19.08 20.91C19.08 22.136 18.086 23.129 16.86 23.129H7.14C5.914 23.129 4.92 22.136 4.92 20.91V3.089C4.92 1.863 5.914 0.87 7.14 0.87H16.86C18.086 0.87 19.08 1.863 19.08 3.089V20.91Z" fill="black"/>
<path d="M18.48 4.11C18.811 4.11 19.08 4.378 19.08 4.71 19.08 5.041 18.811 5.31 18.48 5.31H5.52C5.189 5.31 4.92 5.041 4.92 4.71 4.92 4.378 5.189 4.11 5.52 4.11H18.48Z" fill="black"/>
<path d="M18.48 18.69C18.811 18.69 19.08 18.959 19.08 19.29 19.08 19.622 18.811 19.89 18.48 19.89H5.52C5.189 19.89 4.92 19.622 4.92 19.29 4.92 18.959 5.189 18.69 5.52 18.69H18.48Z" fill="black"/>
<path d="M1.668 16.049V7.949C1.668 7.617 1.936 7.349 2.268 7.349 2.599 7.349 2.868 7.617 2.868 7.949V16.049C2.868 16.38 2.599 16.649 2.268 16.649 1.936 16.649 1.668 16.38 1.668 16.049Z" fill="black"/>
<path d="M-1.573 14.428V9.568C-1.573 9.237-1.304 8.968-0.973 8.968-0.641 8.968-0.373 9.237-0.373 9.568V14.428C-0.373 14.76-0.641 15.028-0.973 15.028-1.304 15.028-1.573 14.76-1.573 14.428Z" fill="black"/>
<path d="M22.32 7.951V16.051C22.32 16.383 22.051 16.651 21.72 16.651 21.389 16.651 21.12 16.383 21.12 16.051V7.951C21.12 7.62 21.389 7.351 21.72 7.351 22.051 7.351 22.32 7.62 22.32 7.951Z" fill="black"/>
<path d="M25.56 9.572V14.432C25.56 14.763 25.292 15.032 24.96 15.032 24.629 15.032 24.36 14.763 24.36 14.432V9.572C24.36 9.241 24.629 8.972 24.96 8.972 25.292 8.972 25.56 9.241 25.56 9.572Z" fill="black"/>
</svg>