<svg xmlns="http://www.w3.org/2000/svg" width="24" height="24" fill="currentColor" viewBox="0 0 24 24"><path d="M21.72 12A9.72 9.72 0 1 1 12 2.28a9.72 9.72 0 0 1 9.72 9.72" opacity=".2"/><path d="M12 1.47A10.53 10.53 0 1 0 22.53 12 10.541 10.541 0 0 0 12 1.47m0 19.44A8.91 8.91 0 1 1 20.91 12 8.92 8.92 0 0 1 12 20.91m4.05-6.886a2.836 2.836 0 0 1-2.836 2.836h-0.405v0.81a0.81 0.81 0 0 1-1.62 0v-0.81h-1.62a0.81 0.81 0 0 1 0-1.62h3.644a1.216 1.216 0 0 0 0-2.43h-2.43a2.836 2.836 0 0 1 0-5.67h0.406v-0.81a0.81 0.81 0 0 1 1.62 0v0.81h1.62a0.81 0.81 0 0 1 0 1.62h-3.645a1.216 1.216 0 0 0 0 2.43h2.43a2.836 2.836 0 0 1 2.835 2.836z"/></svg>