<svg width="24" height="24" viewBox="0 0 24 24" fill="none" xmlns="http://www.w3.org/2000/svg">
<path d="M21 7.5H3C2.17157 7.5 1.5 8.17157 1.5 9V15C1.5 15.8284 2.17157 16.5 3 16.5H21C21.8284 16.5 22.5 15.8284 22.5 15V9C22.5 8.17157 21.8284 7.5 21 7.5Z" fill="black" fill-opacity="0.2"/>
<path d="M11.9995 12.375C12.2066 12.375 12.3745 12.2071 12.3745 12C12.3745 11.7929 12.2066 11.625 11.9995 11.625C11.7924 11.625 11.6245 11.7929 11.6245 12C11.6245 12.2071 11.7924 12.375 11.9995 12.375Z" fill="black"/>
<path d="M18.3745 12.375C18.5816 12.375 18.7495 12.2071 18.7495 12C18.7495 11.7929 18.5816 11.625 18.3745 11.625C18.1674 11.625 17.9995 11.7929 17.9995 12C17.9995 12.2071 18.1674 12.375 18.3745 12.375Z" fill="black"/>
<path d="M5.62451 12.375C5.83162 12.375 5.99951 12.2071 5.99951 12C5.99951 11.7929 5.83162 11.625 5.62451 11.625C5.4174 11.625 5.24951 11.7929 5.24951 12C5.24951 12.2071 5.4174 12.375 5.62451 12.375Z" fill="black"/>
<path d="M11.9995 12.375C12.2066 12.375 12.3745 12.2071 12.3745 12C12.3745 11.7929 12.2066 11.625 11.9995 11.625C11.7924 11.625 11.6245 11.7929 11.6245 12C11.6245 12.2071 11.7924 12.375 11.9995 12.375Z" stroke="black" stroke-width="1.5" stroke-linecap="round" stroke-linejoin="round"/>
<path d="M18.3745 12.375C18.5816 12.375 18.7495 12.2071 18.7495 12C18.7495 11.7929 18.5816 11.625 18.3745 11.625C18.1674 11.625 17.9995 11.7929 17.9995 12C17.9995 12.2071 18.1674 12.375 18.3745 12.375Z" stroke="black" stroke-width="1.5" stroke-linecap="round" stroke-linejoin="round"/>
<path d="M5.62451 12.375C5.83162 12.375 5.99951 12.2071 5.99951 12C5.99951 11.7929 5.83162 11.625 5.62451 11.625C5.4174 11.625 5.24951 11.7929 5.24951 12C5.24951 12.2071 5.4174 12.375 5.62451 12.375Z" stroke="black" stroke-width="1.5" stroke-linecap="round" stroke-linejoin="round"/>
</svg>
