<svg width="24" height="24" viewBox="0 0 24 24" fill="none" xmlns="http://www.w3.org/2000/svg">
<path d="M15 1.5H9C8.17157 1.5 7.5 2.17157 7.5 3V21C7.5 21.8284 8.17157 22.5 9 22.5H15C15.8284 22.5 16.5 21.8284 16.5 21V3C16.5 2.17157 15.8284 1.5 15 1.5Z" fill="black" fill-opacity="0.2"/>
<path d="M11.9995 12.375C12.2066 12.375 12.3745 12.2071 12.3745 12C12.3745 11.7929 12.2066 11.625 11.9995 11.625C11.7924 11.625 11.6245 11.7929 11.6245 12C11.6245 12.2071 11.7924 12.375 11.9995 12.375Z" fill="black"/>
<path d="M11.9995 6C12.2066 6 12.3745 5.83211 12.3745 5.625C12.3745 5.41789 12.2066 5.25 11.9995 5.25C11.7924 5.25 11.6245 5.41789 11.6245 5.625C11.6245 5.83211 11.7924 6 11.9995 6Z" fill="black"/>
<path d="M11.9995 18.75C12.2066 18.75 12.3745 18.5821 12.3745 18.375C12.3745 18.1679 12.2066 18 11.9995 18C11.7924 18 11.6245 18.1679 11.6245 18.375C11.6245 18.5821 11.7924 18.75 11.9995 18.75Z" fill="black"/>
<path d="M11.9995 12.375C12.2066 12.375 12.3745 12.2071 12.3745 12C12.3745 11.7929 12.2066 11.625 11.9995 11.625C11.7924 11.625 11.6245 11.7929 11.6245 12C11.6245 12.2071 11.7924 12.375 11.9995 12.375Z" stroke="black" stroke-width="1.5" stroke-linecap="round" stroke-linejoin="round"/>
<path d="M11.9995 6C12.2066 6 12.3745 5.83211 12.3745 5.625C12.3745 5.41789 12.2066 5.25 11.9995 5.25C11.7924 5.25 11.6245 5.41789 11.6245 5.625C11.6245 5.83211 11.7924 6 11.9995 6Z" stroke="black" stroke-width="1.5" stroke-linecap="round" stroke-linejoin="round"/>
<path d="M11.9995 18.75C12.2066 18.75 12.3745 18.5821 12.3745 18.375C12.3745 18.1679 12.2066 18 11.9995 18C11.7924 18 11.6245 18.1679 11.6245 18.375C11.6245 18.5821 11.7924 18.75 11.9995 18.75Z" stroke="black" stroke-width="1.5" stroke-linecap="round" stroke-linejoin="round"/>
</svg>
