<svg width="24" height="24" viewBox="0 0 24 24" fill="none" xmlns="http://www.w3.org/2000/svg">
<path d="M20.1664 9.0867V17.0799C17.8327 14.8595 13.542 15.6737 10.8332 17.0799C10.8332 17.0799 6.16729 19.3002 1.5 17.0799V9.0867C1.5 8.59653 1.91717 8.19857 2.43374 8.19857H19.2326M20.1664 9.0867C20.1664 8.59653 19.7478 8.19857 19.2326 8.19857M20.1664 9.0867V13.6123C21.0455 13.8125 21.849 14.1959 22.5 14.8159V6.82148C22.5 6.33131 22.0828 5.93335 21.5663 5.93335H4.76738C4.25222 5.93335 3.83364 6.33131 3.83364 6.82148V8.19857H19.2326" stroke="black" stroke-width="1.5" stroke-miterlimit="10"/>
<path d="M20.1664 9.0867V17.0799C17.8327 14.8595 13.542 15.6737 10.8332 17.0799C10.8332 17.0799 6.16729 19.3002 1.5 17.0799V9.0867C1.5 8.59653 1.91717 8.19857 2.43374 8.19857H19.2326C19.7478 8.19857 20.1664 8.59653 20.1664 9.0867ZM21.5663 5.93335H4.76738C4.25222 5.93335 3.83364 6.33131 3.83364 6.82148V8.19857H19.2326C19.7478 8.19857 20.1664 8.59653 20.1664 9.0867V13.6123C21.0455 13.8125 21.849 14.1959 22.5 14.8159V6.82148C22.5 6.33131 22.0828 5.93335 21.5663 5.93335Z" fill="black" fill-opacity="0.2"/>
</svg>
