<svg xmlns="http://www.w3.org/2000/svg" width="24" height="24" fill="currentColor" viewBox="0 0 24 24"><path d="M20.1 15.646a2.836 2.836 0 1 1-2.836-2.836 2.836 2.836 0 0 1 2.836 2.836m-15.796 0.405a2.836 2.836 0 1 0 2.835 2.836 2.836 2.836 0 0 0-2.835-2.836" opacity=".2"/><path d="M20.598 0.832a0.816 0.816 0 0 0-0.695-0.147l-12.96 3.24a0.81 0.81 0 0 0-0.613 0.786v11.146a3.646 3.646 0 1 0 1.62 3.029v-8.682l11.34-2.836v5.248a3.646 3.646 0 1 0 1.62 3.03V1.47a0.816 0.816 0 0 0-0.312-0.638M4.304 20.91a2.026 2.026 0 1 1 2.026-2.026 2.028 2.028 0 0 1-2.026 2.026M7.95 8.532V5.342l11.34-2.835v3.189z m9.316 9.138a2.026 2.026 0 1 1 2.024-2.026 2.028 2.028 0 0 1-2.024 2.026"/></svg>