<svg width="24" height="24" viewBox="0 0 24 24" fill="none" xmlns="http://www.w3.org/2000/svg">
<path d="M5.66406 9.26855C6.83044 9.2686 7.77637 10.2145 7.77637 11.3809V12.082C7.77637 10.6532 8.93442 9.49512 10.3633 9.49512C11.7921 9.49517 12.9502 10.6532 12.9502 12.082V13.749C12.9502 11.6786 14.6288 10 16.6992 10C18.7695 10.0001 20.4482 11.6787 20.4482 13.749V21.5H12.9502V16.8447H7.77637V15.0186H3.55176V11.3809C3.55176 10.2144 4.49765 9.26855 5.66406 9.26855Z" fill="black" fill-opacity="0.2"/>
<path d="M16.6475 2.75C18.1083 2.75013 19.293 3.93465 19.293 5.39551C19.2928 6.85626 18.1082 8.04088 16.6475 8.04102C15.1866 8.04102 14.0021 6.85634 14.002 5.39551C14.002 3.93457 15.1865 2.75 16.6475 2.75Z" fill="black" fill-opacity="0.2"/>
<path d="M10.3633 4.09863C11.2994 4.09864 12.0586 4.85787 12.0586 5.79395C12.0584 6.72984 11.2992 7.48827 10.3633 7.48828C9.42733 7.48828 8.66818 6.72985 8.66797 5.79395C8.66797 4.85786 9.4272 4.09863 10.3633 4.09863Z" fill="black" fill-opacity="0.2"/>
<path d="M5.6709 4.64453C6.40166 4.64474 6.99414 5.23697 6.99414 5.96777C6.994 6.69846 6.40157 7.29081 5.6709 7.29102C4.94005 7.29102 4.34682 6.69859 4.34668 5.96777C4.34668 5.23684 4.93996 4.64453 5.6709 4.64453Z" fill="black" fill-opacity="0.2"/>
<path d="M19.2905 5.39527C19.2905 6.85621 18.1061 8.04053 16.6452 8.04053C15.1843 8.04053 13.9999 6.85621 13.9999 5.39527C13.9999 3.93433 15.1843 2.75 16.6452 2.75C18.1061 2.75 19.2905 3.93433 19.2905 5.39527Z" stroke="black" stroke-width="1.5" stroke-linecap="round" stroke-linejoin="round"/>
<path d="M12.0562 5.79356C12.0562 6.72964 11.2973 7.48848 10.3612 7.48848C9.42516 7.48848 8.66632 6.72964 8.66632 5.79356C8.66632 4.85748 9.42516 4.09863 10.3612 4.09863C11.2973 4.09863 12.0562 4.85748 12.0562 5.79356Z" stroke="black" stroke-width="1.5" stroke-linecap="round" stroke-linejoin="round"/>
<path d="M6.99198 5.96752C6.99198 6.69845 6.39944 7.29099 5.6685 7.29099C4.93757 7.29099 4.34503 6.69845 4.34503 5.96752C4.34503 5.23658 4.93757 4.64404 5.6685 4.64404C6.39944 4.64404 6.99198 5.23658 6.99198 5.96752Z" stroke="black" stroke-width="1.5" stroke-linecap="round" stroke-linejoin="round"/>
<path d="M12.9483 13.7488C12.9483 11.6784 14.6267 10 16.6971 10C18.7675 10 20.4458 11.6784 20.4458 13.7488V21.5H12.9483V13.7488Z" stroke="black" stroke-width="1.5" stroke-linecap="round" stroke-linejoin="round"/>
<path d="M7.77399 12.0818C7.77399 10.6529 8.93231 9.49463 10.3612 9.49463C11.79 9.49463 12.9483 10.6529 12.9483 12.0818V16.8446H7.77399V12.0818Z" stroke="black" stroke-width="1.5" stroke-linecap="round" stroke-linejoin="round"/>
<path d="M3.54999 11.3805C3.54999 10.2141 4.49555 9.26855 5.66197 9.26855C6.82838 9.26855 7.77395 10.2141 7.77395 11.3805V15.0186H3.54999V11.3805Z" stroke="black" stroke-width="1.5" stroke-linecap="round" stroke-linejoin="round"/>
</svg>
