<svg width="24" height="24" viewBox="0 0 24 24" fill="none" xmlns="http://www.w3.org/2000/svg">
<path d="M3 12C3 10.4087 3.63214 8.88258 4.75736 7.75736C5.88258 6.63214 7.4087 6 9 6H21V12C21 13.5913 20.3679 15.1174 19.2426 16.2426C18.1174 17.3679 16.5913 18 15 18H3V12Z" fill="black" fill-opacity="0.2"/>
<path d="M18.75 3.75L21 6L18.75 8.25M21 6H10.1014M6.91477 6.37402C6.11198 6.67158 5.37439 7.14034 4.75736 7.75738C3.63214 8.8826 3 10.4087 3 12M5.25 20.25L3 18L5.25 15.75M3 18L15 17.9999C15.7177 17.9999 16.4221 17.8714 17.0825 17.627M21 12C21 13.4213 20.4957 14.7906 19.5862 15.8687L19.5675 15.8907M4.5 3.75L19.5 20.25" stroke="black" stroke-width="1.5" stroke-linecap="round" stroke-linejoin="round"/>
</svg>
