<svg width="24" height="24" viewBox="0 0 24 24" fill="none" xmlns="http://www.w3.org/2000/svg">
<path d="M9.18209 15.1819C8.55276 15.8112 7.75094 16.2399 6.87802 16.4135C6.00509 16.5872 5.10028 16.4981 4.27799 16.1575C3.45571 15.8169 2.75289 15.2401 2.25841 14.5001C1.76393 13.7601 1.5 12.89 1.5 12C1.5 11.11 1.76393 10.2399 2.25841 9.4999C2.75289 8.75988 3.45571 8.1831 4.27799 7.84252C5.10028 7.50193 6.00509 7.41283 6.87802 7.58649C7.75094 7.76015 8.55276 8.18876 9.18209 8.81813L14.8183 15.1819C15.4477 15.8112 16.2495 16.2399 17.1224 16.4135C17.9953 16.5872 18.9001 16.4981 19.7224 16.1575C20.5447 15.8169 21.2475 15.2401 21.742 14.5001C22.2365 13.7601 22.5004 12.89 22.5004 12C22.5004 11.11 22.2365 10.2399 21.742 9.4999C21.2475 8.75988 20.5447 8.1831 19.7224 7.84252C18.9001 7.50193 17.9953 7.41283 17.1224 7.58649C16.2495 7.76015 15.4477 8.18876 14.8183 8.81813L9.18209 15.1819Z" fill="black" fill-opacity="0.2"/>
<path d="M9.99677 14.2622L9.18209 15.1819C8.55276 15.8112 7.75094 16.2399 6.87802 16.4135C6.00509 16.5872 5.10028 16.4981 4.27799 16.1575C3.45571 15.8169 2.75289 15.2401 2.25841 14.5001C1.76393 13.7601 1.5 12.89 1.5 12C1.5 11.11 1.76393 10.2399 2.25841 9.4999C2.75289 8.75988 3.45571 8.1831 4.27799 7.84252C5.10028 7.50193 6.00509 7.41283 6.87802 7.58649C7.75094 7.76015 8.55276 8.18876 9.18209 8.81813L14.8183 15.1819C15.4477 15.8112 16.2495 16.2399 17.1224 16.4135C17.9953 16.5872 18.9001 16.4981 19.7224 16.1575C20.5447 15.8169 21.2475 15.2401 21.742 14.5001C22.2365 13.7601 22.5004 12.89 22.5004 12C22.5004 11.11 22.2365 10.2399 21.742 9.4999C21.2475 8.75988 20.5447 8.1831 19.7224 7.84252C18.9001 7.50193 17.9953 7.41283 17.1224 7.58649C16.2495 7.76015 15.4477 8.18876 14.8183 8.81813L14.0036 9.73781" stroke="black" stroke-width="1.5" stroke-linecap="round" stroke-linejoin="round"/>
</svg>
