<svg xmlns="http://www.w3.org/2000/svg" width="24" height="24" fill="currentColor" viewBox="0 0 24 24"><path d="M20.91 4.71v14.58a1.62 1.62 0 0 1-1.62 1.62H4.71a1.62 1.62 0 0 1-1.62-1.62V4.71a1.62 1.62 0 0 1 1.62-1.62h14.58a1.62 1.62 0 0 1 1.62 1.62" opacity=".2"/><path d="M21.72 15.24a0.81 0.81 0 0 1-0.81 0.81H9.413l-4.914 5.405a0.81 0.81 0 0 1-1.199-1.09l3.923-4.315H3.09a0.81 0.81 0 0 1 0-1.62h5.606l4.418-4.86H3.09a0.81 0.81 0 0 1 0-1.62h11.497l4.914-5.405a0.81 0.81 0 0 1 1.199 1.09l-3.923 4.315h4.133a0.81 0.81 0 0 1 0 1.62h-5.606l-4.418 4.86h10.024a0.81 0.81 0 0 1 0.81 0.81"/></svg>