<svg width="24" height="24" viewBox="0 0 24 24" fill="none" xmlns="http://www.w3.org/2000/svg">
<path d="M5.25013 9.75C5.25013 7.95979 5.96129 6.2429 7.22716 4.97703C8.49303 3.71116 10.2099 3 12.0001 3C13.7903 3 15.5072 3.71116 16.7731 4.97703C18.039 6.2429 18.7501 7.95979 18.7501 9.75C18.7501 13.1081 19.5283 15.8062 20.147 16.875C20.2127 16.9888 20.2474 17.1179 20.2475 17.2493C20.2476 17.3808 20.2132 17.5099 20.1477 17.6239C20.0822 17.7378 19.9878 17.8325 19.8742 17.8985C19.7606 17.9645 19.6316 17.9995 19.5001 18H4.50013C4.36886 17.9992 4.2401 17.964 4.12671 17.8978C4.01332 17.8317 3.91928 17.7369 3.85399 17.6231C3.7887 17.5092 3.75444 17.3801 3.75464 17.2489C3.75484 17.1176 3.78949 16.9887 3.85513 16.875C4.47294 15.8062 5.25013 13.1072 5.25013 9.75Z" fill="black" fill-opacity="0.2"/>
<path d="M9.00006 18C9.00006 18.7956 9.31613 19.5587 9.87874 20.1213C10.4413 20.6839 11.2044 21 12.0001 21C12.7957 21 13.5588 20.6839 14.1214 20.1213C14.684 19.5587 15.0001 18.7956 15.0001 18M5.25013 9.75C5.25013 7.95979 5.96129 6.2429 7.22716 4.97703C8.49303 3.71116 10.2099 3 12.0001 3C13.7903 3 15.5072 3.71116 16.7731 4.97703C18.039 6.2429 18.7501 7.95979 18.7501 9.75C18.7501 13.1081 19.5283 15.8063 20.147 16.875C20.2127 16.9888 20.2474 17.1179 20.2475 17.2493C20.2476 17.3808 20.2132 17.5099 20.1477 17.6239C20.0822 17.7378 19.9878 17.8325 19.8742 17.8985C19.7606 17.9645 19.6316 17.9995 19.5001 18H4.50013C4.36886 17.9992 4.2401 17.964 4.12671 17.8978C4.01332 17.8317 3.91928 17.7369 3.85399 17.6231C3.7887 17.5092 3.75444 17.3801 3.75464 17.2489C3.75484 17.1176 3.78949 16.9887 3.85513 16.875C4.47294 15.8063 5.25013 13.1072 5.25013 9.75Z" stroke="black" stroke-width="1.5" stroke-linecap="round" stroke-linejoin="round"/>
</svg>
