<svg xmlns="http://www.w3.org/2000/svg" width="24" height="24" fill="currentColor" viewBox="0 0 24 24"><path d="M21.72 9.57v4.86a0.81 0.81 0 0 1-0.81 0.81H15.24v5.67a0.81 0.81 0 0 1-0.81 0.81h-4.86a0.81 0.81 0 0 1-0.81-0.81V15.24H3.09a0.81 0.81 0 0 1-0.81-0.81v-4.86a0.81 0.81 0 0 1 0.81-0.81H8.76V3.09a0.81 0.81 0 0 1 0.81-0.81h4.86a0.81 0.81 0 0 1 0.81 0.81V8.76h5.67a0.81 0.81 0 0 1 0.81 0.81" opacity=".2"/><path d="M20.91 7.95h-4.86v-4.86a1.62 1.62 0 0 0-1.62-1.62h-4.86a1.62 1.62 0 0 0-1.62 1.62v4.86h-4.86a1.62 1.62 0 0 0-1.62 1.62v4.86a1.62 1.62 0 0 0 1.62 1.62h4.86v4.86a1.62 1.62 0 0 0 1.62 1.62h4.86a1.62 1.62 0 0 0 1.62-1.62v-4.86h4.86a1.62 1.62 0 0 0 1.62-1.62v-4.86a1.62 1.62 0 0 0-1.62-1.62m0 6.48H15.24a0.81 0.81 0 0 0-0.81 0.81v5.67h-4.86V15.24a0.81 0.81 0 0 0-0.81-0.81H3.09v-4.86H8.76a0.81 0.81 0 0 0 0.81-0.81V3.09h4.86V8.76a0.81 0.81 0 0 0 0.81 0.81h5.67z"/></svg>