<svg width="24" height="24" viewBox="0 0 24 24" fill="none" xmlns="http://www.w3.org/2000/svg">
<path d="M23.25 12L21 14.25L18.75 12M21 14.25V11.9999C21.0007 10.0945 20.3966 8.23793 19.2748 6.69772C18.1529 5.15751 16.5711 4.01312 14.7573 3.42935C12.9434 2.84558 10.9911 2.85257 9.18147 3.44931C7.37185 4.04604 5.79832 5.20173 4.6875 6.74993M5.25 12L3 9.74997L0.75 12M3 9.74997V12C2.99929 13.9054 3.60337 15.762 4.72524 17.3022C5.84712 18.8424 7.42888 19.9868 9.24273 20.5706C11.0566 21.1543 13.0089 21.1473 14.8185 20.5506C16.6282 19.9539 18.2017 18.7982 19.3125 17.25M13.8753 12C13.8753 13.0355 13.0358 13.875 12.0003 13.875C10.9648 13.875 10.1253 13.0355 10.1253 12C10.1253 10.9644 10.9648 10.125 12.0003 10.125C13.0358 10.125 13.8753 10.9644 13.8753 12ZM12.0966 15.6614C12.0337 15.6614 11.9705 15.6614 11.9091 15.6614L10.4067 16.5C9.82187 16.3032 9.27941 15.9979 8.80781 15.6L8.80219 13.9125C8.76891 13.86 8.7375 13.807 8.70844 13.7526L7.21453 12.9018C7.09686 12.3067 7.09686 11.6942 7.21453 11.099L8.70703 10.2506C8.7375 10.1967 8.76891 10.1433 8.80078 10.0908L8.80828 8.40325C9.27945 8.00418 9.82177 7.69771 10.4067 7.49997L11.9067 8.33856C11.9695 8.33856 12.0328 8.33856 12.0942 8.33856L13.5942 7.49997C14.1791 7.6967 14.7215 8.00204 15.1931 8.39997L15.1987 10.0875C15.232 10.14 15.2634 10.1929 15.2925 10.2473L16.7855 11.0976C16.9031 11.6928 16.9031 12.3053 16.7855 12.9004L15.293 13.7489C15.2625 13.8028 15.2311 13.8562 15.1992 13.9087L15.1917 15.5962C14.7209 15.9954 14.1789 16.302 13.5942 16.5L12.0966 15.6614Z" stroke="black" stroke-width="1.5" stroke-linecap="round" stroke-linejoin="round"/>
<path d="M13.5944 7.5C14.1791 7.69673 14.7215 8.00251 15.193 8.40039L15.1988 10.0879C15.232 10.1402 15.2636 10.1929 15.2926 10.2471L16.7858 11.0977C16.9034 11.6928 16.9034 12.3053 16.7858 12.9004L15.2926 13.749C15.2622 13.8029 15.2307 13.8567 15.1988 13.9092L15.192 15.5967C14.7212 15.9958 14.1789 16.302 13.5944 16.5L12.0963 15.6611H11.9088L10.4069 16.5C9.82201 16.3033 9.27884 15.9975 8.80725 15.5996L8.80236 13.9121C8.76918 13.8598 8.7376 13.8071 8.70861 13.7529L7.21447 12.9023C7.0968 12.3072 7.0968 11.6938 7.21447 11.0986L8.70666 10.251C8.7371 10.1971 8.76856 10.1433 8.80041 10.0908L8.80822 8.40332C9.27939 8.00425 9.82191 7.69774 10.4069 7.5L11.9069 8.33887H12.0944L13.5944 7.5ZM11.9996 10.29C11.0553 10.2902 10.2897 11.0557 10.2897 12C10.2897 12.9443 11.0553 13.7098 11.9996 13.71C12.944 13.71 13.7096 12.9444 13.7096 12C13.7096 11.0556 12.944 10.29 11.9996 10.29Z" fill="black" fill-opacity="0.2"/>
</svg>
