<svg xmlns="http://www.w3.org/2000/svg" width="24" height="24" fill="currentColor" viewBox="0 0 24 24"><path d="M20.91 5.52v12.96H3.09V7.95L5.52 5.52z" opacity=".2"/><path d="M21.72 12a0.81 0.81 0 0 1-0.81 0.81H10.38a0.81 0.81 0 0 1 0-1.62h10.53A0.81 0.81 0 0 1 21.72 12m-11.34-5.67h10.53a0.81 0.81 0 0 0 0-1.62H10.38a0.81 0.81 0 0 0 0 1.62m10.53 11.34H3.09a0.81 0.81 0 0 0 0 1.62h17.82a0.81 0.81 0 0 0 0-1.62M6.33 13.62a0.81 0.81 0 0 0 0.574-1.384L3.426 8.76l3.478-3.476a0.81 0.81 0 0 0-1.146-1.146L1.708 8.188a0.81 0.81 0 0 0 0 1.146l4.05 4.05a0.816 0.816 0 0 0 0.573 0.236z"/></svg>