<svg width="24" height="24" viewBox="0 0 24 24" fill="none" xmlns="http://www.w3.org/2000/svg">
<path opacity="0.2" d="M8.5752 15.4248H15.4248V8.5752H8.5752V15.4248ZM19.4248 18.6748C19.4248 19.089 19.089 19.4248 18.6748 19.4248H5.3252L5.24805 19.4209C4.8701 19.3823 4.5752 19.063 4.5752 18.6748V5.3252C4.5752 4.91098 4.91098 4.5752 5.3252 4.5752H18.6748C19.089 4.5752 19.4248 4.91098 19.4248 5.3252V18.6748Z" fill="black"/>
<path d="M5.08008 18.9297H18.9297V5.08008H5.08008V18.9297ZM19.9297 19.1797C19.9297 19.5939 19.5939 19.9297 19.1797 19.9297H4.83008L4.75293 19.9258C4.37498 19.8871 4.08008 19.5678 4.08008 19.1797V4.83008C4.08008 4.41586 4.41586 4.08008 4.83008 4.08008H19.1797C19.5939 4.08008 19.9297 4.41586 19.9297 4.83008V19.1797Z" fill="black"/>
<path d="M9.0752 14.9248H14.9248V9.0752H9.0752V14.9248ZM15.9248 15.0664C15.9247 15.5407 15.5407 15.9247 15.0664 15.9248H8.93457C8.46025 15.9248 8.07526 15.5407 8.0752 15.0664V8.93457C8.0752 8.46021 8.46021 8.0752 8.93457 8.0752H15.0664C15.5407 8.07526 15.9248 8.46025 15.9248 8.93457V15.0664Z" fill="black"/>
</svg>
