<svg viewBox="0 0 24 24" fill="none" xmlns="http://www.w3.org/2000/svg" width="24" height="24">
<path opacity="0.2" d="M7.89 16.11H16.11V7.89H7.89V16.11ZM20.91 20.01C20.91 20.507 20.507 20.91 20.01 20.91H3.99L3.898 20.905C3.444 20.859 3.09 20.476 3.09 20.01V3.99C3.09 3.493 3.493 3.09 3.99 3.09H20.01C20.507 3.09 20.91 3.493 20.91 3.99V20.01Z" fill="black"/>
<path d="M3.696 20.316H20.316V3.696H3.696V20.316ZM21.516 20.616C21.516 21.113 21.113 21.516 20.616 21.516H3.396L3.304 21.511C2.85 21.465 2.496 21.081 2.496 20.616V3.396C2.496 2.899 2.899 2.496 3.396 2.496H20.616C21.113 2.496 21.516 2.899 21.516 3.396V20.616Z" fill="black"/>
<path d="M8.49 15.51H15.51V8.49H8.49V15.51ZM16.71 15.68C16.71 16.249 16.249 16.71 15.68 16.71H8.321C7.752 16.71 7.29 16.249 7.29 15.68V8.321C7.29 7.752 7.752 7.29 8.321 7.29H15.68C16.249 7.29 16.71 7.752 16.71 8.321V15.68Z" fill="black"/>
</svg>