<svg viewBox="0 0 24 24" fill="none" xmlns="http://www.w3.org/2000/svg" width="24" height="24">
<path d="M20.309 3.69V20.31H3.69V3.69H20.309ZM6.09 16.71C6.09 17.373 6.627 17.91 7.29 17.91H16.709C17.372 17.91 17.909 17.373 17.909 16.71V7.29C17.909 6.627 17.372 6.09 16.709 6.09H7.29C6.627 6.09 6.09 6.627 6.09 7.29V16.71Z" fill="black" fill-opacity="0.2"/>
<path d="M3.696 20.316H20.316V3.696H3.696V20.316ZM21.516 20.616C21.516 21.113 21.113 21.516 20.616 21.516H3.396L3.304 21.511C2.85 21.465 2.496 21.081 2.496 20.616V3.396C2.496 2.899 2.899 2.496 3.396 2.496H20.616C21.113 2.496 21.516 2.899 21.516 3.396V20.616Z" fill="black"/>
<path d="M7.29 16.71H16.71V7.29H7.29V16.71ZM17.91 16.754C17.909 17.392 17.392 17.909 16.754 17.91H7.247C6.608 17.91 6.09 17.393 6.09 16.754V7.247C6.09 6.608 6.608 6.09 7.247 6.09H16.754C17.393 6.09 17.91 6.608 17.91 7.247V16.754Z" fill="black"/>
<path d="M9.69 14.31H14.31V9.69H9.69V14.31ZM15.51 14.605C15.51 15.105 15.105 15.51 14.605 15.51H9.395C8.895 15.509 8.49 15.105 8.49 14.605V9.395C8.49 8.895 8.895 8.49 9.395 8.49H14.605C15.105 8.49 15.509 8.895 15.51 9.395V14.605Z" fill="black"/>
</svg>