<svg width="24" height="24" viewBox="0 0 24 24" fill="none" xmlns="http://www.w3.org/2000/svg">
<rect x="3.75" y="3.75" width="16.4999" height="16.4999" rx="0.75" fill="black" fill-opacity="0.2"/>
<path d="M19.5 3.75H4.5C4.08579 3.75 3.75 4.08579 3.75 4.5V19.5C3.75 19.9142 4.08579 20.25 4.5 20.25H19.5C19.9142 20.25 20.25 19.9142 20.25 19.5V4.5C20.25 4.08579 19.9142 3.75 19.5 3.75Z" stroke="black" stroke-width="1.5" stroke-linecap="round" stroke-linejoin="round"/>
<path d="M15.6927 7.875H8.30726C8.06853 7.875 7.875 8.06853 7.875 8.30726V15.6927C7.875 15.9315 8.06853 16.125 8.30726 16.125H15.6927C15.9315 16.125 16.125 15.9315 16.125 15.6927V8.30726C16.125 8.06853 15.9315 7.875 15.6927 7.875Z" stroke="black" stroke-width="1.5" stroke-linecap="round" stroke-linejoin="round"/>
</svg>
