<svg viewBox="0 0 24 24" fill="none" xmlns="http://www.w3.org/2000/svg" width="24" height="24">
<path fill-rule="evenodd" clip-rule="evenodd" d="M8.76 7.95H16.051V15.237C16.051 15.684 15.688 16.047 15.241 16.047H7.95V8.76C7.95 8.313 8.312 7.95 8.76 7.95Z" fill="black" fill-opacity="0.2"/>
<path fill-rule="evenodd" clip-rule="evenodd" d="M16.651 3.897L16.651 7.35 20.1 7.35C20.879 7.35 21.51 7.981 21.51 8.76L21.51 20.1C21.51 20.879 20.879 21.51 20.1 21.51L8.76 21.51C7.981 21.51 7.35 20.879 7.35 20.1L7.35 16.647 3.901 16.647C3.122 16.647 2.491 16.016 2.491 15.237L2.491 3.897C2.491 3.118 3.122 2.487 3.901 2.487L15.241 2.487C16.019 2.487 16.651 3.118 16.651 3.897ZM15.241 3.687C15.357 3.687 15.451 3.781 15.451 3.897L15.451 7.349 8.759 7.351C7.981 7.351 7.349 7.982 7.349 8.76L7.349 15.447 3.901 15.447C3.785 15.447 3.691 15.353 3.691 15.237L3.691 3.897C3.691 3.781 3.785 3.687 3.901 3.687L15.241 3.687ZM16.65 8.55L20.1 8.55C20.216 8.55 20.31 8.644 20.31 8.76L20.31 20.1C20.31 20.216 20.216 20.31 20.1 20.31L8.76 20.31C8.644 20.31 8.55 20.216 8.55 20.1L8.55 16.648 15.24 16.648C16.019 16.648 16.65 16.015 16.65 15.237L16.65 8.55ZM15.45 8.55L12.404 8.55 8.759 8.551C8.643 8.551 8.549 8.645 8.549 8.76L8.549 15.448 15.24 15.448C15.356 15.448 15.45 15.353 15.45 15.237L15.45 8.55Z" fill="black"/>
</svg>