<svg xmlns="http://www.w3.org/2000/svg" fill="currentColor" viewBox="0 0 24 24" width="24" height="24"><path d="M12 12.11v10.42a0.84 0.84 0 0 1-0.389-0.101l-8.91-4.878a0.816 0.816 0 0 1-0.421-0.709v-9.684a0.84 0.84 0 0 1 0.071-0.329z" opacity=".2"/><path d="M21.688 5.737l-8.91-4.875a1.608 1.608 0 0 0-1.556 0L2.312 5.738a1.62 1.62 0 0 0-0.842 1.418v9.684a1.62 1.62 0 0 0 0.842 1.417l8.91 4.877a1.608 1.608 0 0 0 1.556 0l8.91-4.877a1.62 1.62 0 0 0 0.842-1.417V7.157a1.62 1.62 0 0 0-0.842-1.421zM12 2.28l8.135 4.456-3.015 1.65-8.136-4.456z m0 8.91L3.865 6.736l3.432-1.88L15.432 9.312zM3.09 8.153l8.1 4.433v8.686l-8.1-4.429z m17.82 8.685l-8.1 4.434v-8.682l3.24-1.772v3.613a0.81 0.81 0 0 0 1.62 0v-4.5l3.24-1.777z"/></svg>