<svg width="24" height="24" viewBox="0 0 24 24" fill="none" xmlns="http://www.w3.org/2000/svg">
<path d="M8.23769 7.60352H14.9518C15.1688 7.60352 15.3447 7.77945 15.3447 7.99648V14.7105C15.3447 14.9276 15.1688 15.1035 14.9518 15.1035H8.23769C8.02066 15.1035 7.84473 14.9276 7.84473 14.7105V7.99648C7.84473 7.77945 8.02066 7.60352 8.23769 7.60352Z" fill="black" fill-opacity="0.2"/>
<path d="M19.8447 16.6255L19.8447 6.12549M3.34473 16.6255L3.34472 6.12549M16.8447 3.12549L6.34472 3.12549M6.34472 19.627C6.34472 20.0416 6.68084 20.3777 7.09546 20.3777H16.094C16.5086 20.3777 16.8447 20.0416 16.8447 19.627C16.8447 19.2123 16.5086 18.8762 16.094 18.8762H7.09546C6.68084 18.8762 6.34472 19.2123 6.34472 19.627ZM14.9518 7.62549H8.23769C8.02066 7.62549 7.84472 7.80143 7.84472 8.01846V14.7325C7.84472 14.9496 8.02066 15.1255 8.23769 15.1255H14.9518C15.1688 15.1255 15.3447 14.9496 15.3447 14.7325V8.01846C15.3447 7.80143 15.1688 7.62549 14.9518 7.62549Z" stroke="black" stroke-width="1.5" stroke-linecap="round" stroke-linejoin="round"/>
</svg>
