<svg viewBox="0 0 24 24" fill="none" xmlns="http://www.w3.org/2000/svg" width="24" height="24">
<path d="M15.469 14.609L15.469 9.399C15.469 9.231 15.332 9.094 15.164 9.094L9.954 9.094C9.785 9.094 9.649 9.231 9.649 9.399L9.649 14.609C9.649 14.778 9.785 14.914 9.954 14.914L15.164 14.914C15.332 14.914 15.469 14.778 15.469 14.609Z" fill="black" fill-opacity="0.2"/>
<path d="M19.045 20.302C19.376 20.302 19.645 20.571 19.645 20.902 19.645 21.234 19.376 21.502 19.045 21.502L6.085 21.502C5.754 21.502 5.485 21.234 5.485 20.902 5.485 20.571 5.754 20.302 6.085 20.302L19.045 20.302Z" fill="black"/>
<path d="M22.069 18.478C22.069 18.81 21.8 19.078 21.469 19.078 21.137 19.078 20.869 18.81 20.869 18.478L20.869 5.518C20.869 5.187 21.137 4.918 21.469 4.918 21.8 4.918 22.069 5.187 22.069 5.518L22.069 18.478Z" fill="black"/>
<path d="M19.045 2.494C19.376 2.494 19.645 2.763 19.645 3.094 19.645 3.426 19.376 3.694 19.045 3.694L6.085 3.694C5.754 3.694 5.485 3.426 5.485 3.094 5.485 2.763 5.754 2.494 6.085 2.494L19.045 2.494Z" fill="black"/>
<path d="M4.564 4.918C5.062 4.918 5.464 5.321 5.464 5.818L5.464 18.179C5.464 18.676 5.062 19.079 4.564 19.079L3.964 19.079C3.467 19.079 3.064 18.676 3.064 18.179L3.064 5.818C3.064 5.321 3.467 4.918 3.964 4.918L4.564 4.918Z" fill="black"/>
<path d="M10.249 9.694L10.249 14.314 14.869 14.314 14.869 9.694 10.249 9.694ZM9.954 15.514C9.454 15.514 9.049 15.109 9.049 14.609L9.049 9.399C9.049 8.899 9.454 8.494 9.954 8.494L15.164 8.494C15.664 8.494 16.069 8.899 16.069 9.399L16.069 14.609C16.069 15.109 15.664 15.514 15.164 15.514L9.954 15.514Z" fill="black"/>
</svg>