<svg width="24" height="24" viewBox="0 0 24 24" fill="none" xmlns="http://www.w3.org/2000/svg">
<path d="M15.5348 8.82568H8.82076C8.60373 8.82568 8.4278 9.00162 8.4278 9.21865V15.9327C8.4278 16.1497 8.60373 16.3257 8.82076 16.3257H15.5348C15.7519 16.3257 15.9278 16.1497 15.9278 15.9327V9.21865C15.9278 9.00162 15.7519 8.82568 15.5348 8.82568Z" fill="black" fill-opacity="0.2"/>
<path d="M17.4053 20.8257L6.90527 20.8257M17.4053 4.32568L6.90527 4.32568M3.90527 17.8257L3.90527 7.32568M20.4052 17.8257C19.9905 17.8257 19.6544 17.4896 19.6544 17.075V8.07642C19.6544 7.6618 19.9905 7.32568 20.4052 7.32568C20.8198 7.32568 21.1559 7.6618 21.1559 8.07642V17.075C21.1559 17.4896 20.8198 17.8257 20.4052 17.8257ZM8.79824 8.82568H15.5123C15.7293 8.82568 15.9053 9.00162 15.9053 9.21865V15.9327C15.9053 16.1497 15.7293 16.3257 15.5123 16.3257H8.79824C8.58121 16.3257 8.40527 16.1497 8.40527 15.9327V9.21865C8.40527 9.00162 8.58121 8.82568 8.79824 8.82568Z" stroke="black" stroke-width="1.5" stroke-linecap="round" stroke-linejoin="round"/>
</svg>
