<svg viewBox="0 0 24 24" fill="none" xmlns="http://www.w3.org/2000/svg" width="24" height="24">
<path d="M9.955 14.9L15.166 14.9C15.334 14.9 15.471 14.764 15.471 14.595L15.471 9.385C15.471 9.217 15.334 9.08 15.166 9.08L9.955 9.08C9.787 9.08 9.651 9.217 9.651 9.385L9.651 14.595C9.651 14.764 9.787 14.9 9.955 14.9Z" fill="black" fill-opacity="0.2"/>
<path d="M4.263 18.476C4.263 18.808 3.994 19.076 3.663 19.076 3.331 19.076 3.063 18.808 3.063 18.476L3.063 5.517C3.063 5.185 3.331 4.917 3.663 4.917 3.994 4.917 4.263 5.185 4.263 5.517L4.263 18.476Z" fill="black"/>
<path d="M6.087 21.5C5.755 21.5 5.487 21.232 5.487 20.9 5.487 20.569 5.755 20.3 6.087 20.3L19.047 20.3C19.378 20.3 19.647 20.569 19.647 20.9 19.647 21.232 19.378 21.5 19.047 21.5L6.087 21.5Z" fill="black"/>
<path d="M22.071 18.476C22.071 18.808 21.802 19.076 21.471 19.076 21.139 19.076 20.871 18.808 20.871 18.476L20.871 5.517C20.871 5.185 21.139 4.917 21.471 4.917 21.802 4.917 22.071 5.185 22.071 5.517L22.071 18.476Z" fill="black"/>
<path d="M19.647 3.996C19.647 4.493 19.244 4.896 18.747 4.896L6.386 4.896C5.889 4.896 5.486 4.493 5.486 3.996L5.486 3.396C5.486 2.899 5.889 2.496 6.386 2.496L18.747 2.496C19.244 2.496 19.647 2.899 19.647 3.396L19.647 3.996Z" fill="black"/>
<path d="M14.871 9.681L10.251 9.681 10.251 14.3 14.871 14.3 14.871 9.681ZM9.051 9.386C9.051 8.886 9.456 8.481 9.956 8.481L15.166 8.481C15.666 8.481 16.071 8.886 16.071 9.386L16.071 14.596C16.07 15.095 15.665 15.5 15.166 15.5L9.956 15.5C9.456 15.5 9.051 15.095 9.051 14.596L9.051 9.386Z" fill="black"/>
</svg>