<svg width="24" height="24" viewBox="0 0 24 24" fill="none" xmlns="http://www.w3.org/2000/svg">
<path d="M16.5525 8.35059H9.83846C9.62143 8.35059 9.4455 8.52652 9.4455 8.74355V15.4576C9.4455 15.6746 9.62143 15.8506 9.83846 15.8506H16.5525C16.7696 15.8506 16.9455 15.6746 16.9455 15.4576V8.74355C16.9455 8.52652 16.7696 8.35059 16.5525 8.35059Z" fill="black" fill-opacity="0.2"/>
<path d="M7.90527 3.85059L18.4053 3.85059M7.90527 20.3506L18.4053 20.3506M21.4053 6.85059L21.4053 17.3506M4.91113 17.3506C4.49651 17.3506 4.1604 17.0145 4.1604 16.5999V7.60132C4.1604 7.1867 4.49651 6.85059 4.91113 6.85059C5.32575 6.85059 5.66187 7.1867 5.66187 7.60132V16.5999C5.66187 17.0145 5.32575 17.3506 4.91113 17.3506ZM9.79824 8.35059H16.5123C16.7293 8.35059 16.9053 8.52653 16.9053 8.74356V15.4576C16.9053 15.6747 16.7293 15.8506 16.5123 15.8506H9.79824C9.58121 15.8506 9.40527 15.6747 9.40527 15.4576V8.74356C9.40527 8.52653 9.58121 8.35059 9.79824 8.35059Z" stroke="black" stroke-width="1.5" stroke-linecap="round" stroke-linejoin="round"/>
</svg>
