<svg width="24" height="24" viewBox="0 0 24 24" fill="none" xmlns="http://www.w3.org/2000/svg">
<path d="M14.8906 14.1745L14.8906 9.83273C14.8906 9.69239 14.7769 9.57861 14.6365 9.57861L10.2947 9.57861C10.1544 9.57861 10.0406 9.69239 10.0406 9.83273L10.0406 14.1745C10.0406 14.3148 10.1544 14.4286 10.2947 14.4286L14.6365 14.4286C14.7769 14.4286 14.8906 14.3148 14.8906 14.1745Z" fill="black" fill-opacity="0.2"/>
<path d="M17.8706 18.9185C18.1467 18.9185 18.3706 19.1423 18.3706 19.4185C18.3706 19.6946 18.1467 19.9185 17.8706 19.9185L7.0708 19.9185C6.79466 19.9185 6.5708 19.6946 6.5708 19.4185C6.5708 19.1423 6.79466 18.9185 7.0708 18.9185L17.8706 18.9185Z" fill="black"/>
<path d="M20.3906 17.3984C20.3906 17.6746 20.1668 17.8984 19.8906 17.8984C19.6145 17.8984 19.3906 17.6746 19.3906 17.3984L19.3906 6.59863C19.3906 6.32249 19.6145 6.09863 19.8906 6.09863C20.1668 6.09863 20.3906 6.32249 20.3906 6.59863L20.3906 17.3984Z" fill="black"/>
<path d="M17.8706 4.07862C18.1467 4.07862 18.3706 4.30247 18.3706 4.57862C18.3706 4.85476 18.1467 5.07862 17.8706 5.07862L7.0708 5.07861C6.79466 5.07861 6.5708 4.85475 6.5708 4.57861C6.5708 4.30247 6.79466 4.07861 7.0708 4.07861L17.8706 4.07862Z" fill="black"/>
<path d="M5.80371 6.09814C6.21792 6.09814 6.55371 6.43393 6.55371 6.84814L6.55371 17.1489C6.55371 17.5631 6.21792 17.8989 5.80371 17.8989L5.30371 17.8989C4.8895 17.8989 4.55371 17.5631 4.55371 17.1489L4.55371 6.84814C4.55371 6.43393 4.8895 6.09814 5.30371 6.09814L5.80371 6.09814Z" fill="black"/>
<path d="M10.541 10.0786L10.541 13.9282L14.3906 13.9282L14.3906 10.0786L10.541 10.0786ZM10.2949 14.9282C9.87843 14.9282 9.54102 14.5908 9.54102 14.1743L9.54102 9.83252C9.54113 9.41613 9.8785 9.07861 10.2949 9.07861L14.6367 9.07861C15.053 9.07873 15.3905 9.4162 15.3906 9.83252L15.3906 14.1743C15.3906 14.5907 15.0531 14.9281 14.6367 14.9282L10.2949 14.9282Z" fill="black"/>
</svg>
