<svg viewBox="0 0 24 24" fill="none" xmlns="http://www.w3.org/2000/svg" width="24" height="24">
<path d="M9.664 9.387L9.664 14.597C9.664 14.766 9.801 14.902 9.969 14.902L15.18 14.902C15.348 14.902 15.484 14.766 15.484 14.597L15.484 9.387C15.484 9.219 15.348 9.082 15.18 9.082L9.969 9.082C9.801 9.082 9.664 9.219 9.664 9.387Z" fill="black" fill-opacity="0.2"/>
<path d="M6.088 3.694C5.757 3.694 5.488 3.426 5.488 3.094 5.488 2.763 5.757 2.494 6.088 2.494L19.048 2.494C19.38 2.494 19.648 2.763 19.648 3.094 19.648 3.426 19.38 3.694 19.048 3.694L6.088 3.694Z" fill="black"/>
<path d="M3.064 5.518C3.064 5.187 3.333 4.918 3.664 4.918 3.996 4.918 4.264 5.187 4.264 5.518L4.264 18.478C4.264 18.81 3.996 19.078 3.664 19.078 3.333 19.078 3.064 18.81 3.064 18.478L3.064 5.518Z" fill="black"/>
<path d="M6.088 21.502C5.757 21.502 5.488 21.234 5.488 20.902 5.488 20.571 5.757 20.302 6.088 20.302L19.048 20.302C19.38 20.302 19.648 20.571 19.648 20.902 19.648 21.234 19.38 21.502 19.048 21.502L6.088 21.502Z" fill="black"/>
<path d="M20.569 19.079C20.072 19.079 19.669 18.676 19.669 18.179L19.669 5.818C19.669 5.321 20.072 4.918 20.569 4.918L21.169 4.918C21.666 4.918 22.069 5.321 22.069 5.818L22.069 18.179C22.069 18.676 21.666 19.079 21.169 19.079L20.569 19.079Z" fill="black"/>
<path d="M14.884 14.302L14.884 9.683 10.264 9.683 10.264 14.302 14.884 14.302ZM15.179 8.483C15.679 8.483 16.084 8.888 16.084 9.387L16.084 14.598C16.084 15.097 15.679 15.502 15.179 15.502L9.969 15.502C9.47 15.502 9.065 15.097 9.064 14.598L9.064 9.387C9.064 8.888 9.469 8.483 9.969 8.483L15.179 8.483Z" fill="black"/>
</svg>