<svg width="24" height="24" viewBox="0 0 24 24" fill="none" xmlns="http://www.w3.org/2000/svg">
<path d="M15.776 8.25H9.06191C8.84488 8.25 8.66895 8.42594 8.66895 8.64297V15.357C8.66895 15.5741 8.84488 15.75 9.06191 15.75H15.776C15.993 15.75 16.1689 15.5741 16.1689 15.357V8.64297C16.1689 8.42594 15.993 8.25 15.776 8.25Z" fill="black" fill-opacity="0.2"/>
<path d="M6.74501 3.75L17.2481 3.75M6.74501 20.25L17.2481 20.25M20.249 6.75L20.249 17.25M3.74998 17.25C3.33524 17.25 2.99902 16.9139 2.99902 16.4993V7.50073C2.99902 7.08612 3.33524 6.75 3.74998 6.75C4.16472 6.75 4.50093 7.08612 4.50093 7.50073V16.4993C4.50093 16.9139 4.16472 17.25 3.74998 17.25ZM8.63854 8.25H15.3546C15.5717 8.25 15.7477 8.42594 15.7477 8.64297V15.357C15.7477 15.5741 15.5717 15.75 15.3546 15.75H8.63854C8.42145 15.75 8.24546 15.5741 8.24546 15.357V8.64297C8.24546 8.42594 8.42145 8.25 8.63854 8.25Z" stroke="black" stroke-width="1.5" stroke-linecap="round" stroke-linejoin="round"/>
</svg>
