<svg width="24" height="24" viewBox="0 0 24 24" fill="none" xmlns="http://www.w3.org/2000/svg">
<path d="M8.64297 8.25H15.357C15.5741 8.25 15.75 8.42594 15.75 8.64297V15.357C15.75 15.5741 15.5741 15.75 15.357 15.75H8.64297C8.42594 15.75 8.25 15.5741 8.25 15.357V8.64297C8.25 8.42594 8.42594 8.25 8.64297 8.25Z" fill="black" fill-opacity="0.2"/>
<path d="M17.25 20.1504H6.75M20.25 17.1504V6.65039M3.75 17.1504V6.65039M17.25 3.65039H6.75M15.357 8.15039H8.64297C8.42594 8.15039 8.25 8.32633 8.25 8.54336V15.2574C8.25 15.4745 8.42594 15.6504 8.64297 15.6504H15.357C15.5741 15.6504 15.75 15.4745 15.75 15.2574V8.54336C15.75 8.32633 15.5741 8.15039 15.357 8.15039Z" stroke="black" stroke-width="1.5" stroke-linecap="round" stroke-linejoin="round"/>
</svg>
