<svg width="24" height="24" viewBox="0 0 24 24" fill="none" xmlns="http://www.w3.org/2000/svg">
<path d="M8.48769 9.29199H15.2018C15.4188 9.29199 15.5947 9.46793 15.5947 9.68496V16.399C15.5947 16.6161 15.4188 16.792 15.2018 16.792H8.48769C8.27066 16.792 8.09473 16.6161 8.09473 16.399V9.68496C8.09473 9.46793 8.27066 9.29199 8.48769 9.29199Z" fill="black" fill-opacity="0.2"/>
<path d="M3.59472 7.67603L3.59473 18.176M20.0947 7.67603L20.0947 18.176M6.59473 21.176L17.0947 21.176M6.59473 4.67456C6.59473 5.08918 6.93084 5.42529 7.34546 5.42529H16.344C16.7586 5.42529 17.0947 5.08918 17.0947 4.67456C17.0947 4.25994 16.7586 3.92383 16.344 3.92383H7.34546C6.93084 3.92383 6.59473 4.25994 6.59473 4.67456ZM15.2018 9.30103H8.48769C8.27066 9.30103 8.09473 9.47696 8.09473 9.69399V16.4081C8.09473 16.6251 8.27066 16.801 8.48769 16.801H15.2018C15.4188 16.801 15.5947 16.6251 15.5947 16.4081V9.69399C15.5947 9.47696 15.4188 9.30103 15.2018 9.30103Z" stroke="black" stroke-width="1.5" stroke-linecap="round" stroke-linejoin="round"/>
</svg>
