<svg viewBox="0 0 24 24" fill="none" xmlns="http://www.w3.org/2000/svg" width="24" height="24">
<path d="M3.9 3.09L3.9 20.91C3.9 21.357 4.263 21.72 4.71 21.72H19.29C19.737 21.72 20.1 21.357 20.1 20.91V3.09C20.1 2.643 19.737 2.28 19.29 2.28H4.71C4.263 2.28 3.9 2.643 3.9 3.09Z" fill="black" fill-opacity="0.2"/>
<path d="M4.71 2.88C4.594 2.88 4.5 2.974 4.5 3.09V20.91C4.5 21.026 4.594 21.12 4.71 21.12H19.29C19.406 21.12 19.5 21.026 19.5 20.91V3.09C19.5 2.974 19.406 2.88 19.29 2.88H4.71ZM19.29 1.68C20.069 1.68 20.7 2.311 20.7 3.09V20.91C20.7 21.689 20.069 22.32 19.29 22.32H4.71C3.931 22.32 3.3 21.689 3.3 20.91V3.09C3.3 2.311 3.931 1.68 4.71 1.68H19.29Z" fill="black"/>
<path d="M8.759 9.396C8.427 9.396 8.159 9.665 8.159 9.996 8.159 10.327 8.427 10.596 8.759 10.596L15.239 10.596C15.57 10.596 15.839 10.327 15.839 9.996 15.839 9.665 15.57 9.396 15.239 9.396L8.759 9.396Z" fill="black"/>
<path d="M8.759 12.84C8.427 12.84 8.159 13.109 8.159 13.44 8.159 13.771 8.427 14.04 8.759 14.04H15.239C15.57 14.04 15.839 13.771 15.839 13.44 15.839 13.109 15.57 12.84 15.239 12.84H8.759Z" fill="black"/>
<path d="M15.839 17.184C15.839 16.687 15.436 16.284 14.939 16.284H9.059C8.562 16.284 8.159 16.687 8.159 17.184V17.784C8.159 18.281 8.562 18.684 9.059 18.684H14.939C15.436 18.684 15.839 18.281 15.839 17.784V17.184Z" fill="black"/>
</svg>