<svg viewBox="0 0 24 24" fill="none" xmlns="http://www.w3.org/2000/svg" width="24" height="24">
<path d="M8.76 9.573H21.72V18.405C21.72 18.903 21.317 19.305 20.82 19.305H8.76V9.573Z" fill="black" fill-opacity="0.2"/>
<path d="M12.916 4.11H20.82C21.152 4.11 21.458 4.22 21.707 4.403 21.782 4.432 21.853 4.477 21.913 4.538 21.976 4.601 22.021 4.674 22.05 4.752 22.22 4.995 22.32 5.291 22.32 5.61V18.406C22.32 19.234 21.648 19.906 20.82 19.906H3.18C2.352 19.906 1.68 19.234 1.68 18.406V5.61C1.68 4.782 2.351 4.11 3.18 4.11H12.755C12.809 4.103 12.862 4.103 12.916 4.11ZM15.839 15.038V18.706H20.82C20.985 18.706 21.12 18.571 21.12 18.406V15.038H15.839ZM9.36 18.706H14.639V15.038H9.36V18.706ZM5.645 18.706H8.16V16.19L5.645 18.706ZM2.889 18.477C2.921 18.608 3.039 18.706 3.18 18.706H3.948L8.16 14.493V13.207L2.889 18.477ZM2.88 15.505V16.791L8.16 11.511V10.225L2.88 15.505ZM15.839 10.178V13.838H21.12V10.178H15.839ZM9.36 11.731C9.361 11.748 9.361 11.764 9.36 11.781V13.838H14.639V10.178H9.36V11.731ZM2.88 12.523V13.809L11.378 5.31H10.094L2.88 12.523ZM2.88 9.542V10.826L8.397 5.31H7.111L2.88 9.542ZM18.321 8.978H21.12V6.18L18.321 8.978ZM9.406 8.978H10.693L14.362 5.31H13.075L9.406 8.978ZM12.391 8.978H13.675L17.343 5.31H16.059L12.391 8.978ZM15.371 8.978H16.625L20.293 5.31H19.04L15.371 8.978ZM3.18 5.31C3.014 5.31 2.88 5.445 2.88 5.61V7.845L5.414 5.31H3.18Z" fill="black"/>
</svg>