<svg width="24" height="24" viewBox="0 0 24 24" fill="none" xmlns="http://www.w3.org/2000/svg">
<path d="M20.9709 3.9544C21.007 3.82611 21.0083 3.6905 20.9747 3.56153C20.941 3.43256 20.8736 3.3149 20.7793 3.22065C20.6851 3.1264 20.5674 3.05897 20.4384 3.0253C20.3095 2.99163 20.1739 2.99294 20.0456 3.02909L2.04556 8.48722C1.8986 8.52869 1.76781 8.61403 1.67066 8.73183C1.5735 8.84964 1.51462 8.99429 1.50188 9.14645C1.48914 9.29861 1.52315 9.45104 1.59936 9.58335C1.67558 9.71567 1.79036 9.82157 1.92837 9.8869L10.1249 13.875L14.1131 22.0707C14.1784 22.2087 14.2843 22.3235 14.4166 22.3997C14.5489 22.4759 14.7014 22.5099 14.8535 22.4971C15.0057 22.4844 15.1503 22.4255 15.2681 22.3284C15.3859 22.2312 15.4713 22.1004 15.5127 21.9535L20.9709 3.9544Z" fill="black" fill-opacity="0.2"/>
<path d="M10.1245 13.8749L14.9995 8.99988M10.1245 13.8749L1.92788 9.8869C1.78987 9.82157 1.67509 9.71567 1.59888 9.58335C1.52266 9.45104 1.48866 9.29861 1.50139 9.14645C1.51413 8.99429 1.57302 8.84964 1.67017 8.73183C1.76732 8.61403 1.89812 8.52869 2.04507 8.48722L20.0451 3.02909C20.1734 2.99294 20.309 2.99163 20.4379 3.0253C20.5669 3.05897 20.6846 3.1264 20.7788 3.22065C20.8731 3.3149 20.9405 3.43256 20.9742 3.56153C21.0078 3.6905 21.0065 3.82611 20.9704 3.9544L15.5123 21.9535C15.4708 22.1004 15.3854 22.2312 15.2676 22.3284C15.1498 22.4255 15.0052 22.4844 14.853 22.4971C14.7009 22.5099 14.5484 22.4759 14.4161 22.3997C14.2838 22.3235 14.1779 22.2087 14.1126 22.0707L10.1245 13.8749Z" stroke="black" stroke-width="1.5" stroke-linecap="round" stroke-linejoin="round"/>
</svg>
