<svg viewBox="0 0 24 24" fill="none" xmlns="http://www.w3.org/2000/svg" width="24" height="24">
<path d="M21 5.4L12.6 5.4C12.269 5.4 12 5.131 12 4.8 12 4.469 12.269 4.2 12.6 4.2L21 4.2C21.331 4.2 21.6 4.469 21.6 4.8 21.6 5.131 21.331 5.4 21 5.4Z" fill="black"/>
<path d="M21 9L12.6 9C12.269 9 12 8.731 12 8.4 12 8.069 12.269 7.8 12.6 7.8L21 7.8C21.331 7.8 21.6 8.069 21.6 8.4 21.6 8.731 21.331 9 21 9Z" fill="black"/>
<path d="M21 12.6L12.6 12.6C12.269 12.6 12 12.331 12 12 12 11.669 12.269 11.4 12.6 11.4L21 11.4C21.331 11.4 21.6 11.669 21.6 12 21.6 12.331 21.331 12.6 21 12.6Z" fill="black"/>
<path d="M21 16.2L12.6 16.2C12.269 16.2 12 15.931 12 15.6 12 15.269 12.269 15 12.6 15L21 15C21.331 15 21.6 15.269 21.6 15.6 21.6 15.931 21.331 16.2 21 16.2Z" fill="black"/>
<path d="M21 19.8L12.6 19.8C12.269 19.8 12 19.531 12 19.2 12 18.869 12.269 18.6 12.6 18.6L21 18.6C21.331 18.6 21.6 18.869 21.6 19.2 21.6 19.531 21.331 19.8 21 19.8Z" fill="black"/>
<path d="M6.23 4.111C6.255 4.112 6.279 4.114 6.304 4.118 6.32 4.121 6.336 4.124 6.352 4.127 6.374 4.133 6.395 4.14 6.416 4.147 6.427 4.151 6.439 4.154 6.45 4.159 6.455 4.161 6.46 4.163 6.464 4.165L6.546 4.212C6.549 4.213 6.551 4.216 6.553 4.218 6.582 4.238 6.61 4.26 6.635 4.286L9.876 7.526C10.109 7.76 10.11 8.14 9.876 8.374 9.641 8.608 9.261 8.608 9.027 8.374L6.811 6.158V17.842L9.027 15.626C9.261 15.392 9.641 15.392 9.876 15.626 10.11 15.86 10.11 16.24 9.876 16.474L6.635 19.714C6.594 19.755 6.548 19.786 6.499 19.813 6.446 19.842 6.39 19.866 6.328 19.878 6.29 19.886 6.25 19.89 6.211 19.89L6.09 19.878C6.03 19.866 5.974 19.842 5.922 19.813 5.874 19.786 5.827 19.755 5.787 19.714L2.547 16.474C2.312 16.24 2.312 15.86 2.547 15.626 2.781 15.391 3.161 15.392 3.395 15.626L5.611 17.842V6.158L3.395 8.374C3.161 8.608 2.781 8.608 2.547 8.374 2.312 8.14 2.313 7.76 2.547 7.526L5.787 4.286 5.881 4.208C5.911 4.188 5.943 4.171 5.976 4.157 5.98 4.155 5.985 4.154 5.99 4.152 6.02 4.14 6.051 4.131 6.082 4.124 6.092 4.122 6.102 4.121 6.113 4.119 6.14 4.115 6.167 4.112 6.195 4.111 6.2 4.111 6.206 4.11 6.211 4.11 6.217 4.11 6.224 4.111 6.23 4.111Z" fill="black"/>
<path d="M2.985 5.7C2.985 5.203 3.388 4.8 3.885 4.8H20.1C20.597 4.8 21 5.203 21 5.7V18.3C21 18.797 20.597 19.2 20.1 19.2H3.885C3.388 19.2 2.985 18.797 2.985 18.3V5.7Z" fill="black" fill-opacity="0.2"/>
</svg>