<svg width="24" height="24" viewBox="0 0 24 24" fill="none" xmlns="http://www.w3.org/2000/svg">
<path d="M9 14.25H12.75V5.25H9C7.80653 5.25 6.66227 5.72445 5.81836 6.56836C4.97445 7.41227 4.5 8.55653 4.5 9.75C4.5 10.9435 4.97445 12.0877 5.81836 12.9316C6.66227 13.7756 7.80653 14.25 9 14.25Z" fill="black" fill-opacity="0.2"/>
<path d="M17.25 4.5V11.9967M13.5 4.5V19.5M13.5 15H9C7.60761 15 6.27226 14.4469 5.28769 13.4623C4.30312 12.4777 3.75 11.1424 3.75 9.75C3.75 8.35761 4.30312 7.02226 5.28769 6.03769C6.27226 5.05312 7.60761 4.5 9 4.5H19.5M17.25 17.25H21.75M19.5 15V19.5" stroke="black" stroke-width="1.5" stroke-linecap="round" stroke-linejoin="round"/>
</svg>
