<svg width="24" height="24" viewBox="0 0 24 24" fill="none" xmlns="http://www.w3.org/2000/svg">
<path d="M20.25 4.5H3.75C3.33579 4.5 3 4.83579 3 5.25V18.75C3 19.1642 3.33579 19.5 3.75 19.5H20.25C20.6642 19.5 21 19.1642 21 18.75V5.25C21 4.83579 20.6642 4.5 20.25 4.5Z" fill="black" fill-opacity="0.2"/>
<path d="M7.875 14.25V9.75L6.75 10.5M15 9.75H17.25L15.9375 11.625C16.1539 11.625 16.3669 11.6786 16.5576 11.7808C16.7483 11.8831 16.9108 12.0309 17.0305 12.2112C17.1503 12.3914 17.2236 12.5984 17.244 12.8139C17.2644 13.0293 17.2312 13.2464 17.1473 13.4459C17.0635 13.6454 16.9317 13.8211 16.7635 13.9573C16.5954 14.0935 16.3962 14.1861 16.1837 14.2267C15.9711 14.2673 15.7518 14.2547 15.5453 14.1901C15.3388 14.1255 15.1515 14.0108 15 13.8562M12.7356 14.25H10.4856L12.5092 11.5519C12.6067 11.4223 12.6751 11.2731 12.7096 11.1147C12.7441 10.9562 12.7439 10.7921 12.7091 10.6337C12.6743 10.4753 12.6056 10.3263 12.5078 10.1969C12.41 10.0675 12.2854 9.96083 12.1425 9.88411C11.9996 9.8074 11.8418 9.76249 11.6799 9.75246C11.518 9.74244 11.3559 9.76754 11.2046 9.82603C11.0533 9.88453 10.9165 9.97505 10.8035 10.0914C10.6904 10.2077 10.6039 10.3471 10.5498 10.5M3.75 4.5H20.25C20.6642 4.5 21 4.83579 21 5.25V18.75C21 19.1642 20.6642 19.5 20.25 19.5H3.75C3.33579 19.5 3 19.1642 3 18.75V5.25C3 4.83579 3.33579 4.5 3.75 4.5Z" stroke="black" stroke-width="1.5" stroke-linecap="round" stroke-linejoin="round"/>
</svg>
