<svg width="24" height="24" viewBox="0 0 24 24" fill="none" xmlns="http://www.w3.org/2000/svg">
<path d="M20.25 4.5H3.75C3.33579 4.5 3 4.83579 3 5.25V18.75C3 19.1642 3.33579 19.5 3.75 19.5H20.25C20.6642 19.5 21 19.1642 21 18.75V5.25C21 4.83579 20.6642 4.5 20.25 4.5Z" fill="black" fill-opacity="0.2"/>
<path d="M18.25 13.168C18.0305 13.4607 17.7245 13.6769 17.3753 13.786C17.026 13.8951 16.6513 13.8915 16.3043 13.7758C15.9572 13.6601 15.6553 13.4382 15.4414 13.1414C15.2274 12.8445 15.1123 12.488 15.1123 12.1221C15.1123 11.7562 15.2274 11.3997 15.4414 11.1029C15.6553 10.806 15.9572 10.5841 16.3043 10.4684C16.6513 10.3527 17.026 10.3491 17.3753 10.4582C17.7245 10.5673 18.0305 10.7835 18.25 11.0762M9.03139 13.8834L7.39075 10.397L5.75012 13.8834M8.54876 12.8567H6.23239M10.7641 12.0132H12.3438M10.7641 12.0132V13.8653H12.4528C12.6984 13.8653 12.9339 13.7677 13.1076 13.594C13.2813 13.4204 13.3789 13.1848 13.3789 12.9392C13.3789 12.6936 13.2813 12.4581 13.1076 12.2844C12.9339 12.1107 12.6984 12.0132 12.4528 12.0132H12.3438M10.7641 12.0132V10.3789H12.3438C12.5606 10.3789 12.7684 10.465 12.9216 10.6183C13.0749 10.7715 13.161 10.9793 13.161 11.196C13.161 11.4128 13.0749 11.6206 12.9216 11.7738C12.7684 11.9271 12.5606 12.0132 12.3438 12.0132M3.75 4.5H20.25C20.6642 4.5 21 4.83579 21 5.25V18.75C21 19.1642 20.6642 19.5 20.25 19.5H3.75C3.33579 19.5 3 19.1642 3 18.75V5.25C3 4.83579 3.33579 4.5 3.75 4.5Z" stroke="black" stroke-width="1.5" stroke-linecap="round" stroke-linejoin="round"/>
</svg>
