<svg xmlns="http://www.w3.org/2000/svg" width="24" height="24" fill="currentColor" viewBox="0 0 24 24"><path d="M7.14 12.81a2.43 2.43 0 1 1-2.43-2.43 2.43 2.43 0 0 1 2.43 2.43M12 5.52a2.43 2.43 0 1 0 2.43 2.43A2.43 2.43 0 0 0 12 5.52m7.29 8.1a2.43 2.43 0 1 0 2.43 2.43 2.43 2.43 0 0 0-2.43-2.43" opacity=".2"/><path d="M5.52 9.671V3.09a0.81 0.81 0 0 0-1.62 0v6.581a3.24 3.24 0 0 0 0 6.277v4.961a0.81 0.81 0 0 0 1.62 0V15.948a3.24 3.24 0 0 0 0-6.277m-0.81 4.759a1.62 1.62 0 1 1 1.62-1.62 1.62 1.62 0 0 1-1.62 1.62m8.1-9.619V3.09a0.81 0.81 0 0 0-1.62 0v1.721a3.24 3.24 0 0 0 0 6.277v9.821a0.81 0.81 0 0 0 1.62 0V11.088a3.24 3.24 0 0 0 0-6.277M12 9.57a1.62 1.62 0 1 1 1.62-1.62A1.62 1.62 0 0 1 12 9.57m10.53 6.48a3.246 3.246 0 0 0-2.43-3.139V3.09a0.81 0.81 0 0 0-1.62 0v9.821a3.24 3.24 0 0 0 0 6.277v1.721a0.81 0.81 0 0 0 1.62 0V19.188a3.246 3.246 0 0 0 2.43-3.139z m-3.24 1.62a1.62 1.62 0 1 1 1.62-1.62 1.62 1.62 0 0 1-1.62 1.62"/></svg>