<svg width="24" height="24" viewBox="0 0 24 24" fill="none" xmlns="http://www.w3.org/2000/svg">
<path d="M19.4249 5.25H4.5749C4.20211 5.25 3.8999 5.55221 3.8999 5.925V18.075C3.8999 18.4478 4.20211 18.75 4.5749 18.75H19.4249C19.7977 18.75 20.0999 18.4478 20.0999 18.075V5.925C20.0999 5.55221 19.7977 5.25 19.4249 5.25Z" fill="black" fill-opacity="0.2"/>
<path d="M19.6001 5.9248C19.6 5.82837 19.5217 5.75021 19.4253 5.75H4.57471C4.47821 5.75011 4.40001 5.82831 4.3999 5.9248V18.0752C4.40001 18.1717 4.47821 18.2499 4.57471 18.25H19.4253C19.5217 18.2498 19.6 18.1716 19.6001 18.0752V5.9248ZM20.6001 18.0752C20.6 18.7239 20.074 19.2498 19.4253 19.25H4.57471C3.92593 19.2499 3.40001 18.724 3.3999 18.0752V5.9248C3.40001 5.27602 3.92593 4.75011 4.57471 4.75H19.4253C20.074 4.75021 20.6 5.27609 20.6001 5.9248V18.0752Z" fill="black"/>
<path d="M7.81195 14.577C7.55995 14.577 7.33361 14.528 7.13295 14.43C6.93228 14.332 6.77595 14.199 6.66395 14.031C6.55195 13.863 6.49595 13.674 6.49595 13.464C6.49595 13.212 6.56128 13.0137 6.69195 12.869C6.82261 12.7197 7.03495 12.6147 7.32895 12.554C7.62295 12.4887 8.01261 12.456 8.49795 12.456H8.86895V13.002H8.50495C8.26695 13.002 8.07328 13.016 7.92395 13.044C7.77928 13.0673 7.67428 13.1093 7.60895 13.17C7.54828 13.2307 7.51795 13.3147 7.51795 13.422C7.51795 13.5527 7.56228 13.66 7.65095 13.744C7.74428 13.828 7.87728 13.87 8.04995 13.87C8.18528 13.87 8.30428 13.8397 8.40695 13.779C8.51428 13.7137 8.59828 13.6273 8.65895 13.52C8.71961 13.408 8.74995 13.282 8.74995 13.142V12.337C8.74995 12.1317 8.70328 11.987 8.60995 11.903C8.51661 11.8143 8.35795 11.77 8.13395 11.77C8.00795 11.77 7.87028 11.7863 7.72095 11.819C7.57628 11.847 7.41528 11.896 7.23795 11.966C7.13528 12.0127 7.04428 12.0243 6.96495 12.001C6.88561 11.973 6.82495 11.9263 6.78295 11.861C6.74095 11.791 6.71995 11.7163 6.71995 11.637C6.71995 11.553 6.74328 11.4737 6.78995 11.399C6.83661 11.3197 6.91361 11.2613 7.02095 11.224C7.24028 11.1353 7.44561 11.0747 7.63695 11.042C7.83295 11.0093 8.01261 10.993 8.17595 10.993C8.53528 10.993 8.82928 11.0467 9.05795 11.154C9.29128 11.2567 9.46628 11.4177 9.58295 11.637C9.69961 11.8517 9.75795 12.1293 9.75795 12.47V14.024C9.75795 14.1967 9.71595 14.3297 9.63195 14.423C9.54795 14.5163 9.42661 14.563 9.26795 14.563C9.10928 14.563 8.98561 14.5163 8.89695 14.423C8.81295 14.3297 8.77095 14.1967 8.77095 14.024V13.765L8.81995 13.807C8.79195 13.9657 8.73128 14.1033 8.63795 14.22C8.54928 14.332 8.43495 14.4207 8.29495 14.486C8.15495 14.5467 7.99395 14.577 7.81195 14.577Z" fill="black"/>
<path d="M12.6674 14.577C12.3921 14.577 12.1471 14.5093 11.9324 14.374C11.7224 14.234 11.5824 14.0497 11.5124 13.821L11.5894 13.59V14.024C11.5894 14.1967 11.5451 14.3297 11.4564 14.423C11.3678 14.5163 11.2394 14.563 11.0714 14.563C10.9034 14.563 10.7728 14.5163 10.6794 14.423C10.5908 14.3297 10.5464 14.1967 10.5464 14.024V10.041C10.5464 9.86367 10.5908 9.73067 10.6794 9.642C10.7728 9.54867 10.9058 9.502 11.0784 9.502C11.2464 9.502 11.3748 9.54867 11.4634 9.642C11.5568 9.73067 11.6034 9.86367 11.6034 10.041V11.7H11.5194C11.5941 11.49 11.7364 11.3197 11.9464 11.189C12.1564 11.0583 12.3968 10.993 12.6674 10.993C12.9708 10.993 13.2344 11.0653 13.4584 11.21C13.6824 11.3547 13.8574 11.56 13.9834 11.826C14.1094 12.092 14.1724 12.4093 14.1724 12.778C14.1724 13.1467 14.1094 13.4663 13.9834 13.737C13.8574 14.0077 13.6801 14.2153 13.4514 14.36C13.2274 14.5047 12.9661 14.577 12.6674 14.577ZM12.3524 13.786C12.5018 13.786 12.6324 13.7487 12.7444 13.674C12.8611 13.5993 12.9498 13.4897 13.0104 13.345C13.0758 13.1957 13.1084 13.0067 13.1084 12.778C13.1084 12.4373 13.0384 12.1877 12.8984 12.029C12.7584 11.8657 12.5764 11.784 12.3524 11.784C12.2031 11.784 12.0701 11.819 11.9534 11.889C11.8414 11.959 11.7528 12.0687 11.6874 12.218C11.6221 12.3627 11.5894 12.5493 11.5894 12.778C11.5894 13.1187 11.6594 13.373 11.7994 13.541C11.9394 13.7043 12.1238 13.786 12.3524 13.786Z" fill="black"/>
<path d="M16.4919 14.577C16.1186 14.577 15.7919 14.5047 15.5119 14.36C15.2366 14.2107 15.0242 14.0007 14.8749 13.73C14.7256 13.4593 14.6509 13.1397 14.6509 12.771C14.6509 12.4957 14.6929 12.2483 14.7769 12.029C14.8609 11.8097 14.9822 11.623 15.1409 11.469C15.3042 11.315 15.5002 11.1983 15.7289 11.119C15.9576 11.035 16.2119 10.993 16.4919 10.993C16.6366 10.993 16.7906 11.0117 16.9539 11.049C17.1172 11.0817 17.2782 11.14 17.4369 11.224C17.5302 11.266 17.5932 11.3267 17.6259 11.406C17.6632 11.4807 17.6772 11.56 17.6679 11.644C17.6586 11.7233 17.6282 11.7957 17.5769 11.861C17.5302 11.9217 17.4696 11.9637 17.3949 11.987C17.3202 12.0057 17.2362 11.9917 17.1429 11.945C17.0542 11.8937 16.9609 11.8563 16.8629 11.833C16.7696 11.8097 16.6809 11.798 16.5969 11.798C16.4569 11.798 16.3332 11.8213 16.2259 11.868C16.1186 11.91 16.0276 11.973 15.9529 12.057C15.8829 12.1363 15.8269 12.2367 15.7849 12.358C15.7476 12.4793 15.7289 12.6193 15.7289 12.778C15.7289 13.086 15.8036 13.3287 15.9529 13.506C16.1069 13.6787 16.3216 13.765 16.5969 13.765C16.6809 13.765 16.7696 13.7557 16.8629 13.737C16.9562 13.7137 17.0496 13.6763 17.1429 13.625C17.2362 13.5783 17.3202 13.5667 17.3949 13.59C17.4696 13.6133 17.5279 13.6577 17.5699 13.723C17.6166 13.7837 17.6422 13.856 17.6469 13.94C17.6562 14.0193 17.6422 14.0987 17.6049 14.178C17.5722 14.2527 17.5116 14.311 17.4229 14.353C17.2642 14.4323 17.1056 14.4883 16.9469 14.521C16.7882 14.5583 16.6366 14.577 16.4919 14.577Z" fill="black"/>
</svg>
