<svg width="24" height="24" viewBox="0 0 24 24" fill="none" xmlns="http://www.w3.org/2000/svg">
<path d="M9 14.25H12.75V5.25H9C7.80653 5.25 6.66227 5.72445 5.81836 6.56836C4.97445 7.41227 4.5 8.55653 4.5 9.75C4.5 10.9435 4.97445 12.0877 5.81836 12.9316C6.66227 13.7756 7.80653 14.25 9 14.25Z" fill="black" fill-opacity="0.2"/>
<path fill-rule="evenodd" clip-rule="evenodd" d="M19.5 3.75C19.9142 3.75 20.25 4.08579 20.25 4.5C20.25 4.91421 19.9142 5.25 19.5 5.25H18V11.9971C17.9998 12.4111 17.6641 12.7471 17.25 12.7471C16.8359 12.7471 16.5002 12.4111 16.5 11.9971V5.25H14.25V19.5C14.25 19.9142 13.9142 20.25 13.5 20.25C13.0858 20.25 12.75 19.9142 12.75 19.5V15.75H9C7.4087 15.75 5.88303 15.1174 4.75781 13.9922C3.63259 12.867 3 11.3413 3 9.75C3 8.1587 3.63259 6.63303 4.75781 5.50781C5.88303 4.38259 7.4087 3.75 9 3.75H19.5ZM9 5.25C7.80653 5.25 6.66227 5.72445 5.81836 6.56836C4.97445 7.41227 4.5 8.55653 4.5 9.75C4.5 10.9435 4.97445 12.0877 5.81836 12.9316C6.66227 13.7756 7.80653 14.25 9 14.25H12.75V5.25H9Z" fill="black"/>
<path d="M19.5 14.25C19.9142 14.25 20.25 14.5858 20.25 15V16.5H21.75C22.1642 16.5 22.5 16.8358 22.5 17.25C22.5 17.6642 22.1642 18 21.75 18H20.25V19.5C20.25 19.9142 19.9142 20.25 19.5 20.25C19.0858 20.25 18.75 19.9142 18.75 19.5V18H17.25C16.8358 18 16.5 17.6642 16.5 17.25C16.5 16.8358 16.8358 16.5 17.25 16.5H18.75V15C18.75 14.5858 19.0858 14.25 19.5 14.25Z" fill="black"/>
</svg>
