<svg xmlns="http://www.w3.org/2000/svg" width="24" height="24" fill="currentColor" viewBox="0 0 24 24"><path d="M22.53 8.999c-0.128 3.904-3.374 7.051-7.28 7.051a7.2 7.2 0 0 1-2.726-0.523l-1.333 1.333H8.761v2.43H6.331V21.72h-3.24a0.81 0.81 0 0 1-0.81-0.81v-2.905a0.816 0.816 0 0 1 0.237-0.573l5.956-5.956a7.2 7.2 0 0 1-0.523-2.726c0-3.906 3.146-7.152 7.051-7.276a7.29 7.29 0 0 1 7.529 7.525z" opacity=".2"/><path d="M20.968 3.032A8.1 8.1 0 0 0 7.536 11.269L1.945 16.86a1.608 1.608 0 0 0-0.475 1.145v2.905a1.62 1.62 0 0 0 1.62 1.62h3.24a0.81 0.81 0 0 0 0.81-0.81v-1.62H8.76a0.81 0.81 0 0 0 0.81-0.81v-1.62h1.62a0.816 0.816 0 0 0 0.574-0.236l0.968-0.969a8.04 8.04 0 0 0 2.509 0.396h0.01a8.1 8.1 0 0 0 5.718-13.827z m0.752 5.94c-0.11 3.451-3.012 6.263-6.469 6.268H15.24a6.48 6.48 0 0 1-2.394-0.457 0.81 0.81 0 0 0-0.895 0.17l-1.096 1.097H8.76a0.81 0.81 0 0 0-0.81 0.81v1.62h-1.62a0.81 0.81 0 0 0-0.81 0.81v1.62H3.09v-2.905l5.957-5.956a0.81 0.81 0 0 0 0.17-0.895A6.48 6.48 0 0 1 8.76 8.752c0-3.457 2.815-6.359 6.268-6.47A6.48 6.48 0 0 1 21.72 8.972m-3.24-2.238a1.216 1.216 0 1 1-1.214-1.215A1.216 1.216 0 0 1 18.48 6.734"/></svg>