<svg width="24" height="24" viewBox="0 0 24 24" fill="none" xmlns="http://www.w3.org/2000/svg">
<path d="M22.5 5.25H1.5C1.10218 5.25 0.720644 5.40804 0.43934 5.68934C0.158035 5.97064 0 6.35218 0 6.75L0 17.25C0 17.6478 0.158035 18.0294 0.43934 18.3107C0.720644 18.592 1.10218 18.75 1.5 18.75H22.5C22.8978 18.75 23.2794 18.592 23.5607 18.3107C23.842 18.0294 24 17.6478 24 17.25V6.75C24 6.35218 23.842 5.97064 23.5607 5.68934C23.2794 5.40804 22.8978 5.25 22.5 5.25Z" fill="black" fill-opacity="0.2"/>
<path d="M3.75 5.25V18.75M10.5 9V12M10.5 12L7.64722 11.0728M10.5 12L8.73651 14.4272M10.5 12L12.2634 14.4272M10.5 12L13.3528 11.0728M19.5 9V12M19.5 12L16.6472 11.0728M19.5 12L17.7365 14.4272M19.5 12L21.2634 14.4272M19.5 12L22.3528 11.0728" stroke="black" stroke-width="1.5" stroke-linecap="round" stroke-linejoin="round"/>
</svg>
