<svg viewBox="0 0 24 24" fill="none" xmlns="http://www.w3.org/2000/svg" width="24" height="24">
<path fill-rule="evenodd" clip-rule="evenodd" d="M12 1.274C13.233 1.274 14.416 1.764 15.288 2.636 15.372 2.719 15.45 2.806 15.526 2.895H19.29C19.664 2.895 20.023 3.043 20.287 3.308 20.552 3.572 20.7 3.931 20.7 4.305V21.315C20.7 21.688 20.552 22.048 20.287 22.312 20.023 22.576 19.664 22.725 19.29 22.726H4.71C4.336 22.725 3.977 22.576 3.713 22.312 3.448 22.048 3.3 21.688 3.3 21.315V4.305C3.3 3.931 3.448 3.572 3.713 3.308 3.977 3.043 4.336 2.895 4.71 2.895H8.474C8.55 2.806 8.629 2.719 8.712 2.636 9.584 1.764 10.767 1.274 12 1.274ZM4.71 4.095C4.654 4.095 4.6 4.117 4.561 4.156 4.522 4.195 4.5 4.249 4.5 4.305V21.315C4.5 21.37 4.522 21.424 4.561 21.463 4.6 21.503 4.654 21.525 4.71 21.526H19.29C19.346 21.525 19.4 21.503 19.439 21.463 19.478 21.424 19.5 21.37 19.5 21.315V4.305C19.5 4.249 19.478 4.195 19.439 4.156 19.4 4.117 19.346 4.095 19.29 4.095H16.274C16.519 4.668 16.65 5.289 16.65 5.924V6.734C16.65 7.066 16.381 7.334 16.05 7.334H7.95C7.619 7.334 7.35 7.066 7.35 6.734V5.924C7.35 5.289 7.481 4.668 7.726 4.095H4.71ZM12 2.474C11.085 2.474 10.207 2.838 9.56 3.485 8.913 4.132 8.55 5.009 8.55 5.924V6.134H15.45V5.924C15.45 5.009 15.087 4.132 14.44 3.485 13.793 2.838 12.915 2.474 12 2.474Z" fill="black"/>
<path d="M13.836 10.099C13.977 10.099 14.116 10.131 14.242 10.192L14.363 10.264 14.472 10.353C14.539 10.417 14.596 10.492 14.641 10.573L14.7 10.701 15.425 12.671 17.398 13.399C17.53 13.448 17.65 13.526 17.747 13.627L17.835 13.736 17.906 13.857C17.968 13.983 18 14.121 18 14.262 18 14.451 17.942 14.634 17.835 14.788 17.727 14.943 17.575 15.061 17.399 15.126L15.427 15.852 14.7 17.824C14.635 18 14.517 18.153 14.363 18.261 14.208 18.368 14.025 18.426 13.836 18.426 13.648 18.426 13.465 18.368 13.31 18.261 13.156 18.153 13.038 18.001 12.973 17.825L12.245 15.851 10.275 15.126C10.098 15.061 9.945 14.943 9.838 14.788 9.73 14.634 9.673 14.45 9.673 14.262 9.673 14.074 9.73 13.89 9.838 13.736L9.927 13.627C10.023 13.526 10.143 13.447 10.275 13.399L12.245 12.671 12.973 10.701 13.031 10.573C13.099 10.451 13.194 10.345 13.31 10.264L13.431 10.192C13.556 10.131 13.695 10.099 13.836 10.099ZM13.276 13.347C13.215 13.512 13.086 13.641 12.921 13.702L11.4 14.262 12.921 14.823 13.037 14.881C13.146 14.951 13.231 15.055 13.276 15.179L13.836 16.698 14.397 15.179 14.455 15.062C14.525 14.953 14.629 14.868 14.753 14.823L16.272 14.262 14.753 13.702C14.588 13.641 14.457 13.512 14.397 13.347L13.836 11.826 13.276 13.347Z" fill="black"/>
<path d="M10.268 8.886C10.599 8.886 10.868 9.156 10.868 9.487V10.099H11.48C11.811 10.099 12.08 10.367 12.08 10.699 12.08 11.03 11.811 11.298 11.48 11.299H10.868V11.91C10.868 12.241 10.599 12.51 10.268 12.51 9.937 12.51 9.668 12.241 9.668 11.91V11.299H9.056C8.725 11.299 8.456 11.03 8.456 10.699 8.456 10.367 8.725 10.099 9.056 10.099H9.668V9.487C9.668 9.156 9.937 8.886 10.268 8.886Z" fill="black"/>
<path fill-rule="evenodd" clip-rule="evenodd" d="M4.561 4.156C4.6 4.117 4.654 4.095 4.71 4.095H7.726C7.481 4.668 7.35 5.289 7.35 5.924V6.734C7.35 7.066 7.619 7.334 7.95 7.334H16.05C16.381 7.334 16.65 7.066 16.65 6.734V5.924C16.65 5.289 16.519 4.668 16.274 4.095H19.29C19.346 4.095 19.4 4.117 19.439 4.156 19.478 4.195 19.5 4.249 19.5 4.305V21.315C19.5 21.37 19.478 21.424 19.439 21.463 19.4 21.503 19.346 21.525 19.29 21.526H4.71C4.654 21.525 4.6 21.503 4.561 21.463 4.522 21.424 4.5 21.37 4.5 21.315V4.305C4.5 4.249 4.522 4.195 4.561 4.156ZM13.836 10.099C13.977 10.099 14.116 10.131 14.242 10.192L14.363 10.264 14.472 10.353C14.539 10.417 14.596 10.492 14.641 10.573L14.7 10.701 15.425 12.671 17.398 13.399C17.53 13.448 17.65 13.526 17.747 13.627L17.835 13.736 17.906 13.857C17.968 13.983 18 14.121 18 14.262 18 14.451 17.942 14.634 17.835 14.788 17.727 14.943 17.575 15.061 17.399 15.126L15.427 15.852 14.7 17.824C14.635 18 14.517 18.153 14.363 18.261 14.208 18.368 14.025 18.426 13.836 18.426 13.648 18.426 13.465 18.368 13.31 18.261 13.156 18.153 13.038 18.001 12.973 17.825L12.245 15.851 10.275 15.126C10.098 15.061 9.945 14.943 9.838 14.788 9.73 14.634 9.673 14.45 9.673 14.262 9.673 14.074 9.73 13.89 9.838 13.736L9.927 13.627C10.023 13.526 10.143 13.447 10.275 13.399L12.245 12.671 12.973 10.701 13.031 10.573C13.099 10.451 13.194 10.345 13.31 10.264L13.431 10.192C13.556 10.131 13.695 10.099 13.836 10.099ZM10.268 8.886C10.599 8.886 10.868 9.156 10.868 9.487V10.099H11.48C11.811 10.099 12.08 10.367 12.08 10.699 12.08 11.03 11.811 11.298 11.48 11.299H10.868V11.91C10.868 12.241 10.599 12.51 10.268 12.51 9.937 12.51 9.668 12.241 9.668 11.91V11.299H9.056C8.725 11.299 8.456 11.03 8.456 10.699 8.456 10.367 8.725 10.099 9.056 10.099H9.668V9.487C9.668 9.156 9.937 8.886 10.268 8.886Z" fill="black" fill-opacity="0.2"/>
<path fill-rule="evenodd" clip-rule="evenodd" d="M12.921 13.702C13.086 13.641 13.215 13.512 13.276 13.347L13.836 11.826 14.397 13.347C14.457 13.512 14.588 13.641 14.753 13.702L16.272 14.262 14.753 14.823C14.629 14.868 14.525 14.953 14.455 15.062L14.397 15.179 13.836 16.698 13.276 15.179C13.231 15.055 13.146 14.951 13.037 14.881L12.921 14.823 11.4 14.262 12.921 13.702Z" fill="black" fill-opacity="0.2"/>
</svg>