<svg width="24" height="24" viewBox="0 0 24 24" fill="none" xmlns="http://www.w3.org/2000/svg">
<path d="M12 15.1509C15.3137 15.1509 18 12.4646 18 9.15088C18 5.83717 15.3137 3.15088 12 3.15088C8.68629 3.15088 6 5.83717 6 9.15088C6 12.4646 8.68629 15.1509 12 15.1509Z" fill="black" fill-opacity="0.2"/>
<path d="M12 15.1499C8.68629 15.1499 6 12.4636 6 9.1499C6 8.45049 6.11967 7.77903 6.33965 7.15488C6.81806 5.79753 7.77088 4.66392 8.999 3.95317C9.88175 3.44231 10.9067 3.1499 12 3.1499C13.0933 3.1499 14.1183 3.44231 15.001 3.95317M12 15.1499C15.3137 15.1499 18 12.4636 18 9.1499C18 8.45049 17.8803 7.77903 17.6603 7.15488C17.3653 6.31786 16.8899 5.56592 16.2808 4.94576C15.9021 4.56023 15.4718 4.22563 15.001 3.95317M15.001 3.95317L8.999 7.15488M17.6603 7.15488H8.999M8.999 7.15488H6.33965M12 15.1499C13.1099 15.1499 14.1718 15.3221 15.1649 15.6414M12 15.1499C9.74339 15.1499 7.68501 15.8621 6 17.0739C4.78338 17.9488 3.7614 19.0842 3 20.3998M18.75 15.8999V20.3999M21 18.1499H16.5" stroke="black" stroke-width="1.5" stroke-linecap="round" stroke-linejoin="round"/>
</svg>
