<svg xmlns="http://www.w3.org/2000/svg" width="24" height="24" fill="currentColor" viewBox="0 0 24 24"><path d="M21.484 8.186L18.48 11.19 12.81 5.52l3.004-3.004a0.81 0.81 0 0 1 1.144 0l4.526 4.522a0.81 0.81 0 0 1 0 1.148" opacity=".2"/><path d="M22.055 6.469l-4.524-4.525a1.62 1.62 0 0 0-2.291 0L2.755 14.43a1.608 1.608 0 0 0-0.475 1.145v4.525a1.62 1.62 0 0 0 1.62 1.62h4.525a1.608 1.608 0 0 0 1.145-0.475L22.055 8.76a1.62 1.62 0 0 0 0-2.291M8.424 20.1H3.899v-4.525l8.91-8.91 4.525 4.525z m10.055-10.056L13.954 5.52l2.43-2.43 4.525 4.524z"/></svg>