<svg width="24" height="24" viewBox="0 0 24 24" fill="none" xmlns="http://www.w3.org/2000/svg">
<path d="M7.125 9.75C8.57475 9.75 9.75 8.57475 9.75 7.125C9.75 5.67525 8.57475 4.5 7.125 4.5C5.67525 4.5 4.5 5.67525 4.5 7.125C4.5 8.57475 5.67525 9.75 7.125 9.75Z" fill="black" fill-opacity="0.2"/>
<path d="M16.875 19.5C18.3247 19.5 19.5 18.3247 19.5 16.875C19.5 15.4253 18.3247 14.25 16.875 14.25C15.4253 14.25 14.25 15.4253 14.25 16.875C14.25 18.3247 15.4253 19.5 16.875 19.5Z" fill="black" fill-opacity="0.2"/>
<path d="M18.75 5.25L5.25 18.75M9.75 7.125C9.75 8.57475 8.57475 9.75 7.125 9.75C5.67525 9.75 4.5 8.57475 4.5 7.125C4.5 5.67525 5.67525 4.5 7.125 4.5C8.57475 4.5 9.75 5.67525 9.75 7.125ZM19.5 16.875C19.5 18.3247 18.3247 19.5 16.875 19.5C15.4253 19.5 14.25 18.3247 14.25 16.875C14.25 15.4253 15.4253 14.25 16.875 14.25C18.3247 14.25 19.5 15.4253 19.5 16.875Z" stroke="black" stroke-width="1.5" stroke-linecap="round" stroke-linejoin="round"/>
</svg>
