<svg xmlns="http://www.w3.org/2000/svg" width="24" height="24" fill="currentColor" viewBox="0 0 24 24"><path d="M8.74 4.73a2.836 2.836 0 1 1-4.01 0 2.836 2.836 0 0 1 4.01 0m10.53 10.53a2.836 2.836 0 1 0 0 4.01 2.836 2.836 0 0 0 0-4.01" opacity=".2"/><path d="M19.864 5.281l-14.58 14.58a0.81 0.81 0 0 1-1.146-1.146l14.58-14.58a0.81 0.81 0 0 1 1.146 1.145zM4.158 9.311a3.646 3.646 0 0 1 5.155-5.155 3.646 3.646 0 0 1-5.155 5.155m0.553-2.577a2.026 2.026 0 1 0 3.457-1.434 2.026 2.026 0 0 0-3.457 1.434m16.2 10.53a3.646 3.646 0 1 1-1.067-2.577 3.624 3.624 0 0 1 1.067 2.577m-1.62 0a2.026 2.026 0 1 0-0.593 1.432 2.016 2.016 0 0 0 0.593-1.432"/></svg>