<svg width="24" height="24" viewBox="0 0 24 24" fill="none" xmlns="http://www.w3.org/2000/svg">
<path d="M15 6.75H9V7.5C9 8.32843 8.32843 9 7.5 9H6.75V15H7.5C8.32843 15 9 15.6716 9 16.5V17.25H15V16.5C15 15.6716 15.6716 15 16.5 15H17.25V9H16.5C15.6716 9 15 8.32843 15 7.5V6.75Z" fill="black" fill-opacity="0.2"/>
<path fill-rule="evenodd" clip-rule="evenodd" d="M9 6.75H15V7.5C15 8.32843 15.6716 9 16.5 9H17.25V15H16.5C15.6716 15 15 15.6716 15 16.5V17.25H9V16.5C9 15.6716 8.32843 15 7.5 15H6.75V9H7.5C8.32843 9 9 8.32843 9 7.5V6.75Z" fill="black" fill-opacity="0.2"/>
<path d="M6 15.75V8.25M15.75 18H8.25M18 8.25V15.75M8.25 6H15.75M16.5 3.75H19.5C19.9142 3.75 20.25 4.08579 20.25 4.5V7.5C20.25 7.91421 19.9142 8.25 19.5 8.25H16.5C16.0858 8.25 15.75 7.91421 15.75 7.5V4.5C15.75 4.08579 16.0858 3.75 16.5 3.75ZM4.5 3.75H7.5C7.91421 3.75 8.25 4.08579 8.25 4.5V7.5C8.25 7.91421 7.91421 8.25 7.5 8.25H4.5C4.08579 8.25 3.75 7.91421 3.75 7.5V4.5C3.75 4.08579 4.08579 3.75 4.5 3.75ZM16.5 15.75H19.5C19.9142 15.75 20.25 16.0858 20.25 16.5V19.5C20.25 19.9142 19.9142 20.25 19.5 20.25H16.5C16.0858 20.25 15.75 19.9142 15.75 19.5V16.5C15.75 16.0858 16.0858 15.75 16.5 15.75ZM4.5 15.75H7.5C7.91421 15.75 8.25 16.0858 8.25 16.5V19.5C8.25 19.9142 7.91421 20.25 7.5 20.25H4.5C4.08579 20.25 3.75 19.9142 3.75 19.5V16.5C3.75 16.0858 4.08579 15.75 4.5 15.75Z" stroke="black" stroke-width="1.5" stroke-linecap="round" stroke-linejoin="round"/>
</svg>
