<svg xmlns="http://www.w3.org/2000/svg" width="24" height="24" fill="currentColor" viewBox="0 0 24 24"><path d="M21.72 4.71v8.309l-2.401-2.401a0.81 0.81 0 0 0-1.145 0l-2.598 2.598-5.027-5.028a0.81 0.81 0 0 0-1.146 0l-3.882 3.883V4.711a0.81 0.81 0 0 1 0.81-0.81h14.58a0.81 0.81 0 0 1 0.81 0.81z" opacity=".2"/><path d="M20.91 3.09H6.33a1.62 1.62 0 0 0-1.62 1.62v1.62h-1.62a1.62 1.62 0 0 0-1.62 1.62v11.34a1.62 1.62 0 0 0 1.62 1.62h14.58a1.62 1.62 0 0 0 1.62-1.62v-1.62h1.62a1.62 1.62 0 0 0 1.62-1.62v-11.34a1.62 1.62 0 0 0-1.62-1.62m-14.58 1.62h14.58v6.354l-1.02-1.019a1.62 1.62 0 0 0-2.291 0l-2.025 2.026-4.456-4.456a1.62 1.62 0 0 0-2.291 0l-2.498 2.499z m11.34 14.58H3.09v-11.34h1.62v8.1a1.62 1.62 0 0 0 1.62 1.62h11.34z m3.24-3.24H6.33v-3.644l3.646-3.645 5.028 5.028a0.81 0.81 0 0 0 1.144 0l2.598-2.598 2.164 2.165v2.695zM15.24 7.544A1.216 1.216 0 1 1 16.454 8.76 1.216 1.216 0 0 1 15.24 7.544"/></svg>