<svg xmlns="http://www.w3.org/2000/svg" fill="currentColor" viewBox="0 0 24 24" width="24" height="24"><path d="M23.34 10.38v3.24a1.62 1.62 0 0 1-1.62 1.62h-0.81l-1.832 5.132a0.81 0.81 0 0 1-0.764 0.538h-1.287a0.81 0.81 0 0 1-0.763-0.538l-0.386-1.082H8.935l-0.385 1.082a0.81 0.81 0 0 1-0.763 0.538H6.499a0.81 0.81 0 0 1-0.763-0.538l-1.326-3.715a8.076 8.076 0 0 1-2.126-5.467 8.1 8.1 0 0 1 8.1-8.1h3.24a8.1 8.1 0 0 1 7.436 4.883 8.4 8.4 0 0 1 0.294 0.787h0.371a1.62 1.62 0 0 1 1.62 1.62z" opacity=".2"/><path d="M18.48 10.786a1.216 1.216 0 1 1-1.214-1.215 1.216 1.216 0 0 1 1.214 1.215M14.43 5.52H10.38a0.81 0.81 0 0 0 0 1.62h4.05a0.81 0.81 0 0 0 0-1.62m9.72 4.86v3.24a2.43 2.43 0 0 1-2.43 2.43h-0.239l-1.641 4.595a1.62 1.62 0 0 1-1.527 1.075h-1.287a1.62 1.62 0 0 1-1.527-1.075l-0.194-0.545H9.503l-0.195 0.545a1.62 1.62 0 0 1-1.526 1.075H6.494a1.62 1.62 0 0 1-1.526-1.075l-1.273-3.561a8.88 8.88 0 0 1-2.171-4.898 1.62 1.62 0 0 0-0.866 1.434 0.81 0.81 0 0 1-1.62 0 3.24 3.24 0 0 1 2.458-3.139A8.922 8.922 0 0 1 10.378 2.28h10.53a0.81 0.81 0 0 1 0 1.62h-2.166a8.88 8.88 0 0 1 3.055 3.746q0.066 0.152 0.126 0.304a2.43 2.43 0 0 1 2.225 2.43z m-1.62 0a0.81 0.81 0 0 0-0.81-0.81h-0.371a0.81 0.81 0 0 1-0.774-0.568 7.284 7.284 0 0 0-6.956-5.102h-3.24A7.29 7.29 0 0 0 5.004 16.115a0.84 0.84 0 0 1 0.166 0.275l1.324 3.71h1.288l0.386-1.082a0.81 0.81 0 0 1 0.762-0.538h6.944a0.81 0.81 0 0 1 0.762 0.538l0.386 1.082h1.288l1.833-5.132a0.81 0.81 0 0 1 0.762-0.538h0.81a0.81 0.81 0 0 0 0.81-0.81z"/></svg>