<svg width="24" height="24" viewBox="0 0 24 24" fill="none" xmlns="http://www.w3.org/2000/svg">
<path d="M10.2424 19.7578C9.44673 20.5533 8.36762 21.0003 7.24244 21.0003C6.11726 21.0003 5.03815 20.5533 4.24244 19.7578C3.44691 18.9621 3 17.883 3 16.7578C3 15.6326 3.44691 14.5535 4.24244 13.7578L9.00025 9L15.0003 15L10.2424 19.7578Z" fill="black" fill-opacity="0.2"/>
<path d="M9.00007 8.99982L15.0001 14.9998M15.0001 10.4998L17.2501 8.24982M4.24266 13.758L13.7581 4.24251C15.4148 2.58583 18.1008 2.58583 19.7575 4.24251C21.4141 5.89918 21.4148 8.58585 19.7581 10.2425L10.2427 19.758C8.58601 21.4147 5.9 21.4147 4.24333 19.758C2.58665 18.1013 2.58599 15.4146 4.24266 13.758Z" stroke="black" stroke-width="1.5" stroke-linecap="round" stroke-linejoin="round"/>
</svg>
