<svg width="24" height="24" viewBox="0 0 24 24" fill="none" xmlns="http://www.w3.org/2000/svg">
<path d="M21.5483 9.22243C21.6888 9.08179 21.7678 8.8911 21.7678 8.69227C21.7678 8.49344 21.6888 8.30275 21.5483 8.16211L15.8614 2.47243C15.7208 2.33188 15.5301 2.25293 15.3312 2.25293C15.1324 2.25293 14.9417 2.33188 14.8011 2.47243L9.42921 7.8593C9.42921 7.8593 6.82765 6.55899 4.0489 8.80149C3.9665 8.86745 3.89895 8.95005 3.85066 9.04391C3.80238 9.13776 3.77444 9.24075 3.76869 9.34614C3.76294 9.45153 3.7795 9.55695 3.81728 9.6555C3.85507 9.75405 3.91323 9.84352 3.98796 9.91805L14.1036 20.0327C14.1793 20.1079 14.2703 20.1661 14.3703 20.2034C14.4704 20.2406 14.5772 20.256 14.6837 20.2487C14.7902 20.2413 14.8939 20.2113 14.9879 20.1606C15.0818 20.11 15.1639 20.0398 15.2286 19.9549C16.0151 18.9087 17.2508 16.759 16.1764 14.6112L21.5483 9.22243Z" fill="black" fill-opacity="0.2"/>
<path d="M9.04037 14.9885L4.51318 19.5157M2.25244 21.7515H12.2481M21.5483 9.22243C21.6888 9.08179 21.7678 8.8911 21.7678 8.69227C21.7678 8.49344 21.6888 8.30275 21.5483 8.16211L15.8614 2.47243C15.7208 2.33188 15.5301 2.25293 15.3312 2.25293C15.1324 2.25293 14.9417 2.33188 14.8011 2.47243L9.42921 7.8593C9.42921 7.8593 6.82765 6.55899 4.0489 8.80149C3.9665 8.86745 3.89895 8.95005 3.85066 9.04391C3.80238 9.13776 3.77444 9.24075 3.76869 9.34614C3.76294 9.45153 3.7795 9.55695 3.81728 9.6555C3.85507 9.75405 3.91323 9.84352 3.98796 9.91805L14.1036 20.0327C14.1793 20.1079 14.2703 20.1661 14.3703 20.2034C14.4704 20.2406 14.5772 20.256 14.6837 20.2487C14.7902 20.2413 14.8939 20.2113 14.9879 20.1606C15.0818 20.11 15.1639 20.0398 15.2286 19.9549C16.0151 18.9087 17.2508 16.759 16.1764 14.6112L21.5483 9.22243Z" stroke="black" stroke-width="1.5" stroke-linecap="round" stroke-linejoin="round"/>
</svg>
