<svg viewBox="0 0 24 24" fill="none" xmlns="http://www.w3.org/2000/svg" width="24" height="24">
<path d="M0.837 15.868C0.685 16.02 0.6 16.226 0.6 16.441 0.6 16.656 0.685 16.862 0.837 17.013L6.979 23.158C7.131 23.31 7.337 23.395 7.551 23.395 7.766 23.395 7.972 23.31 8.124 23.158L13.926 17.34C13.926 17.34 16.735 18.745 19.736 16.323 19.825 16.252 19.898 16.162 19.95 16.061 20.003 15.96 20.033 15.849 20.039 15.735 20.045 15.621 20.027 15.507 19.987 15.401 19.946 15.294 19.883 15.198 19.802 15.117L8.877 4.193C8.796 4.112 8.697 4.049 8.589 4.009 8.481 3.969 8.366 3.952 8.251 3.96 8.136 3.968 8.024 4 7.922 4.055 7.821 4.11 7.732 4.185 7.662 4.277 6.813 5.407 5.478 7.729 6.639 10.048L0.837 15.868Z" fill="black" fill-opacity="0.2"/>
<path d="M1.2 16.438C1.2 16.494 1.222 16.547 1.261 16.586L7.403 22.734C7.442 22.773 7.496 22.795 7.552 22.795 7.607 22.795 7.661 22.774 7.7 22.735L7.699 22.734 13.501 16.914C13.683 16.732 13.962 16.686 14.193 16.801 14.195 16.802 14.2 16.803 14.207 16.807 14.221 16.813 14.245 16.824 14.278 16.837 14.345 16.864 14.45 16.904 14.585 16.945 14.857 17.027 15.252 17.117 15.732 17.138 16.682 17.181 17.986 16.961 19.359 15.852L19.362 15.851C19.385 15.833 19.403 15.809 19.417 15.783 19.43 15.757 19.439 15.728 19.44 15.699 19.442 15.669 19.437 15.64 19.426 15.612 19.421 15.598 19.414 15.585 19.406 15.573L19.378 15.538 8.453 4.61C8.432 4.589 8.407 4.574 8.38 4.564 8.352 4.553 8.322 4.549 8.292 4.551 8.262 4.553 8.233 4.561 8.207 4.576 8.182 4.589 8.161 4.609 8.143 4.631 7.305 5.746 6.185 7.794 7.175 9.775 7.29 10.005 7.246 10.284 7.064 10.467L1.262 16.288 1.261 16.29C1.222 16.329 1.2 16.383 1.2 16.438ZM0 16.438C0 16.111 0.113 15.795 0.319 15.544L0.413 15.441 5.925 9.91C4.928 7.393 6.365 4.996 7.182 3.909L7.185 3.906C7.306 3.747 7.461 3.615 7.637 3.519 7.814 3.424 8.009 3.367 8.209 3.353 8.409 3.339 8.61 3.368 8.798 3.438 8.987 3.508 9.158 3.618 9.3 3.76L20.227 14.689C20.367 14.829 20.476 14.998 20.547 15.183 20.617 15.368 20.649 15.566 20.638 15.764 20.627 15.963 20.575 16.157 20.484 16.333 20.394 16.509 20.267 16.665 20.112 16.789 18.484 18.102 16.883 18.392 15.678 18.338 15.081 18.311 14.587 18.199 14.238 18.094 14.179 18.076 14.125 18.057 14.074 18.04L8.549 23.581 8.548 23.583C8.283 23.847 7.925 23.995 7.552 23.995 7.178 23.995 6.819 23.847 6.554 23.583L0.413 17.435C0.148 17.171 0 16.812 0 16.438Z" fill="black"/>
<path d="M14.77 10.06C14.536 10.294 14.156 10.294 13.922 10.06 13.687 9.825 13.687 9.445 13.922 9.211L18.811 4.32C19.045 4.086 19.425 4.086 19.659 4.32 19.893 4.554 19.893 4.934 19.659 5.169L14.77 10.06Z" fill="black"/>
<path d="M12.606 1.196C12.274 1.196 12.006 0.927 12.006 0.596 12.006 0.264 12.274-0.005 12.606-0.005H23.401C23.733-0.005 24.001 0.264 24.001 0.596 24.001 0.927 23.733 1.196 23.401 1.196H12.606Z" fill="black"/>
</svg>