<svg width="24" height="24" viewBox="0 0 24 24" fill="none" xmlns="http://www.w3.org/2000/svg">
<path d="M2.45173 14.7776C2.31118 14.9182 2.23223 15.1089 2.23223 15.3077C2.23223 15.5066 2.31118 15.6972 2.45173 15.8379L8.1386 21.5276C8.27924 21.6681 8.46993 21.7471 8.66876 21.7471C8.86759 21.7471 9.05828 21.6681 9.19892 21.5276L14.5708 16.1407C14.5708 16.1407 17.1724 17.441 19.9511 15.1985C20.0335 15.1326 20.1011 15.0499 20.1493 14.9561C20.1976 14.8622 20.2256 14.7592 20.2313 14.6539C20.2371 14.5485 20.2205 14.4431 20.1827 14.3445C20.1449 14.2459 20.0868 14.1565 20.012 14.0819L9.89642 3.96726C9.82066 3.89206 9.72971 3.83389 9.62967 3.79665C9.52963 3.75941 9.42278 3.74396 9.31629 3.75133C9.20979 3.75869 9.1061 3.78871 9.01213 3.83936C8.91817 3.89002 8.8361 3.96015 8.77142 4.04507C7.98485 5.09132 6.74923 7.24101 7.8236 9.38882L2.45173 14.7776Z" fill="black" fill-opacity="0.2"/>
<path d="M14.9596 9.01196L19.4868 4.48478M21.7475 2.24902H11.7518M2.45167 14.7781C2.31113 14.9187 2.23218 15.1094 2.23218 15.3082C2.23218 15.507 2.31113 15.6977 2.45167 15.8384L8.13855 21.5281C8.27919 21.6686 8.46988 21.7476 8.66871 21.7476C8.86753 21.7476 9.05822 21.6686 9.19886 21.5281L14.5707 16.1412C14.5707 16.1412 17.1723 17.4415 19.951 15.199C20.0334 15.133 20.101 15.0504 20.1493 14.9566C20.1976 14.8627 20.2255 14.7597 20.2313 14.6543C20.237 14.549 20.2204 14.4435 20.1827 14.345C20.1449 14.2464 20.0867 14.157 20.012 14.0824L9.89636 3.96775C9.8206 3.89254 9.72966 3.83438 9.62962 3.79714C9.52957 3.7599 9.42273 3.74445 9.31624 3.75181C9.20974 3.75918 9.10604 3.78919 9.01208 3.83985C8.91812 3.89051 8.83605 3.96064 8.77136 4.04556C7.9848 5.09181 6.74917 7.2415 7.82355 9.38931L2.45167 14.7781Z" stroke="black" stroke-width="1.5" stroke-linecap="round" stroke-linejoin="round"/>
</svg>
