<svg xmlns="http://www.w3.org/2000/svg" width="24" height="24" fill="currentColor" viewBox="0 0 24 24"><path d="M22.294 8.996l-5.799 5.818c1.16 2.322-0.174 4.643-1.023 5.771a0.81 0.81 0 0 1-1.215 0.084l-10.928-10.923a0.81 0.81 0 0 1 0.067-1.206c3.002-2.422 5.812-1.013 5.812-1.012l5.798-5.818a0.81 0.81 0 0 1 1.145 0l6.144 6.137a0.81 0.81 0 0 1 0 1.148z" opacity=".2"/><path d="M22.866 7.279l-6.145-6.144a1.62 1.62 0 0 0-2.291 0L9 6.582c-1.079-0.338-3.544-0.746-6.115 1.331a1.62 1.62 0 0 0-0.131 2.407l4.892 4.89-4.318 4.316a0.81 0.81 0 0 0 1.146 1.146l4.316-4.318 4.889 4.888a1.62 1.62 0 0 0 1.146 0.477h0.114a1.608 1.608 0 0 0 1.178-0.641c1.988-2.642 1.798-4.792 1.336-6.076l5.414-5.433a1.62 1.62 0 0 0-0.001-2.291z m-1.146 1.146l-5.798 5.818a0.81 0.81 0 0 0-0.152 0.933c0.958 1.916-0.182 3.907-0.945 4.923L3.9 9.173c1.223-0.986 2.394-1.247 3.288-1.247a4.08 4.08 0 0 1 1.654 0.328 0.81 0.81 0 0 0 0.936-0.153L15.575 2.28z"/></svg>