<svg xmlns="http://www.w3.org/2000/svg" width="24" height="24" fill="currentColor" viewBox="0 0 24 24"><path d="M20.1 3.09v16.2a2.43 2.43 0 0 1-2.43 2.43h-11.34a2.43 2.43 0 0 1-2.43-2.43v-16.2z" opacity=".2"/><path d="M16.05 12a0.81 0.81 0 0 1-0.81 0.81H8.76a0.81 0.81 0 0 1 0-1.62h6.48a0.81 0.81 0 0 1 0.81 0.81m-0.81 2.43H8.76a0.81 0.81 0 0 0 0 1.62h6.48a0.81 0.81 0 0 0 0-1.62m5.67-11.34v16.2a3.24 3.24 0 0 1-3.24 3.24h-11.34a3.24 3.24 0 0 1-3.24-3.24v-16.2A0.81 0.81 0 0 1 3.9 2.28h2.43v-0.81a0.81 0.81 0 0 1 1.62 0V2.28h3.24v-0.81a0.81 0.81 0 0 1 1.62 0V2.28h3.24v-0.81a0.81 0.81 0 0 1 1.62 0V2.28h2.43a0.81 0.81 0 0 1 0.81 0.81m-1.62 0.81h-1.62v0.81a0.81 0.81 0 0 1-1.62 0V3.9h-3.24v0.81a0.81 0.81 0 0 1-1.62 0V3.9h-3.24v0.81a0.81 0.81 0 0 1-1.62 0V3.9h-1.62v15.39a1.62 1.62 0 0 0 1.62 1.62h11.34a1.62 1.62 0 0 0 1.62-1.62z"/></svg>