<svg width="24" height="24" viewBox="0 0 24 24" fill="none" xmlns="http://www.w3.org/2000/svg">
<path d="M14.25 9L21.75 12.75V15.75L14.25 14.25V17.25L15.75 18.75V21.75L12 20.25L8.25 21.75V18.75L9.75 17.25V14.25L2.25 15.75V12.75L9.75 9V4.5C9.75 3.90326 9.98705 3.33097 10.409 2.90901C10.831 2.48705 11.4033 2.25 12 2.25C12.5967 2.25 13.169 2.48705 13.591 2.90901C14.0129 3.33097 14.25 3.90326 14.25 4.5V9Z" fill="black" fill-opacity="0.2"/>
<path d="M14.25 9L21.75 12.75V15.75L14.25 14.25V17.25L15.75 18.75V21.75L12 20.25L8.25 21.75V18.75L9.75 17.25V14.25L2.25 15.75V12.75L9.75 9V4.5C9.75 3.90326 9.98705 3.33097 10.409 2.90901C10.831 2.48705 11.4033 2.25 12 2.25C12.5967 2.25 13.169 2.48705 13.591 2.90901C14.0129 3.33097 14.25 3.90326 14.25 4.5V9Z" stroke="black" stroke-width="1.5" stroke-linecap="round" stroke-linejoin="round"/>
</svg>
