<svg xmlns="http://www.w3.org/2000/svg" width="24" height="24" fill="currentColor" viewBox="0 0 24 24"><path d="M19.29 18.48a2.43 2.43 0 1 1-2.43-2.43 2.43 2.43 0 0 1 2.43 2.43" opacity=".2"/><path d="M2.28 5.52a0.81 0.81 0 0 1 0.81-0.81h17.82a0.81 0.81 0 0 1 0 1.62H3.09A0.81 0.81 0 0 1 2.28 5.52m0.81 7.29H15.24a0.81 0.81 0 0 0 0-1.62H3.09a0.81 0.81 0 0 0 0 1.62m7.29 4.86H3.09a0.81 0.81 0 0 0 0 1.62h7.29a0.81 0.81 0 0 0 0-1.62m13.735-5.842a0.81 0.81 0 0 1-1.013 0.543l-3.003-0.903V18.48a3.245 3.245 0 1 1-1.62-2.803V10.38a0.81 0.81 0 0 1 1.043-0.775l4.05 1.215a0.81 0.81 0 0 1 0.542 1.008zM18.48 18.48a1.62 1.62 0 1 0-1.62 1.62 1.62 1.62 0 0 0 1.62-1.62"/></svg>