<svg width="24" height="24" viewBox="0 0 24 24" fill="none" xmlns="http://www.w3.org/2000/svg">
<path d="M15.2203 12.97C15.1337 12.8836 15.0696 12.7773 15.0335 12.6605C14.9974 12.5436 14.9904 12.4197 15.0131 12.2996C15.0358 12.1794 15.0876 12.0666 15.1639 11.971C15.2403 11.8755 15.3388 11.8 15.451 11.7512L19.8019 10.0806C19.9386 10.0185 20.0535 9.91681 20.1318 9.78868C20.21 9.66055 20.248 9.51189 20.2409 9.36192C20.2337 9.21195 20.1817 9.06759 20.0915 8.94751C20.0014 8.82744 19.8773 8.73717 19.7353 8.68841L4.72877 3.78809C4.59846 3.74797 4.45967 3.74413 4.32734 3.77698C4.19501 3.80983 4.07414 3.87814 3.97773 3.97455C3.88131 4.07097 3.81301 4.19184 3.78015 4.32417C3.7473 4.4565 3.75114 4.59528 3.79127 4.72559L8.68877 19.735C8.73753 19.877 8.8278 20.0011 8.94787 20.0912C9.06795 20.1813 9.21232 20.2333 9.36228 20.2405C9.51225 20.2477 9.66092 20.2097 9.78904 20.1314C9.91717 20.0531 10.0189 19.9382 10.081 19.8015L11.7516 15.4506C11.8004 15.3384 11.8758 15.2399 11.9714 15.1636C12.067 15.0873 12.1797 15.0355 12.2999 15.0127C12.4201 14.99 12.544 14.997 12.6609 15.0331C12.7777 15.0692 12.884 15.1334 12.9703 15.22L17.7806 20.0303C17.9213 20.1708 18.112 20.2498 18.3108 20.2498C18.5096 20.2498 18.7003 20.1708 18.841 20.0303L20.0306 18.8434C20.1712 18.7028 20.2501 18.5121 20.2501 18.3132C20.2501 18.1144 20.1712 17.9237 20.0306 17.7831L15.2203 12.97Z" fill="black" fill-opacity="0.2"/>
<path d="M15.2198 12.97C15.1333 12.8836 15.0691 12.7773 15.033 12.6605C14.9969 12.5436 14.9899 12.4197 15.0126 12.2996C15.0354 12.1794 15.0871 12.0666 15.1635 11.971C15.2398 11.8755 15.3383 11.8 15.4505 11.7512L19.8014 10.0806C19.9381 10.0185 20.053 9.91681 20.1313 9.78868C20.2095 9.66056 20.2475 9.51189 20.2404 9.36192C20.2332 9.21195 20.1812 9.06759 20.0911 8.94751C20.0009 8.82744 19.8768 8.73717 19.7348 8.68841L4.72828 3.78809C4.59797 3.74797 4.45919 3.74413 4.32685 3.77698C4.19452 3.80983 4.07365 3.87814 3.97724 3.97455C3.88083 4.07097 3.81252 4.19184 3.77967 4.32417C3.74681 4.4565 3.75065 4.59528 3.79078 4.72559L8.68828 19.735C8.73705 19.877 8.82731 20.0011 8.94739 20.0912C9.06746 20.1813 9.21183 20.2333 9.36179 20.2405C9.51176 20.2477 9.66043 20.2097 9.78856 20.1314C9.91668 20.0531 10.0184 19.9382 10.0805 19.8015L11.7511 15.4506C11.7999 15.3384 11.8753 15.2399 11.9709 15.1636C12.0665 15.0873 12.1793 15.0355 12.2994 15.0127C12.4196 14.99 12.5435 14.997 12.6604 15.0331C12.7772 15.0692 12.8835 15.1334 12.9698 15.22L17.7802 20.0303C17.9208 20.1708 18.1115 20.2498 18.3103 20.2498C18.5091 20.2498 18.6998 20.1708 18.8405 20.0303L20.0302 18.8434C20.1707 18.7028 20.2497 18.5121 20.2497 18.3132C20.2497 18.1144 20.1707 17.9237 20.0302 17.7831L15.2198 12.97Z" stroke="black" stroke-width="1.5" stroke-linecap="round" stroke-linejoin="round"/>
</svg>
