<svg width="24" height="24" viewBox="0 0 24 24" fill="none" xmlns="http://www.w3.org/2000/svg">
<path d="M19.5 3.75H4.5C4.08579 3.75 3.75 4.08579 3.75 4.5V19.5C3.75 19.9142 4.08579 20.25 4.5 20.25H19.5C19.9142 20.25 20.25 19.9142 20.25 19.5V4.5C20.25 4.08579 19.9142 3.75 19.5 3.75Z" fill="black" fill-opacity="0.2"/>
<path d="M17.25 16.4966C17.25 16.9108 16.9142 17.2466 16.5 17.2466L7.5 17.2466C7.08579 17.2466 6.75 16.9108 6.75 16.4966L6.75 14.9966C6.75 14.5824 7.08579 14.2466 7.5 14.2466L16.5 14.2466C16.9142 14.2466 17.25 14.5824 17.25 14.9966L17.25 16.4966Z" fill="black"/>
<path d="M4.5 20.25L19.5 20.25C19.9142 20.25 20.25 19.9142 20.25 19.5L20.25 4.5C20.25 4.08579 19.9142 3.75 19.5 3.75L4.5 3.75C4.08579 3.75 3.75 4.08579 3.75 4.5L3.75 19.5C3.75 19.9142 4.08579 20.25 4.5 20.25Z" stroke="black" stroke-width="1.5" stroke-linecap="round" stroke-linejoin="round"/>
<path d="M17.25 16.4966C17.25 16.9108 16.9142 17.2466 16.5 17.2466L7.5 17.2466C7.08579 17.2466 6.75 16.9108 6.75 16.4966L6.75 14.9966C6.75 14.5824 7.08579 14.2466 7.5 14.2466L16.5 14.2466C16.9142 14.2466 17.25 14.5824 17.25 14.9966L17.25 16.4966Z" stroke="black" stroke-width="1.5" stroke-linecap="round" stroke-linejoin="round"/>
</svg>
