<svg width="24" height="24" viewBox="0 0 24 24" fill="none" xmlns="http://www.w3.org/2000/svg">
<path d="M20.25 19.5L20.25 4.5C20.25 4.08579 19.9142 3.75 19.5 3.75L4.5 3.75C4.08579 3.75 3.75 4.08579 3.75 4.5L3.75 19.5C3.75 19.9142 4.08579 20.25 4.5 20.25L19.5 20.25C19.9142 20.25 20.25 19.9142 20.25 19.5Z" fill="black" fill-opacity="0.2"/>
<path d="M16.5 17.2485C16.9142 17.2485 17.25 16.9128 17.25 16.4985L17.25 7.50147C17.25 7.08725 16.9142 6.75147 16.5 6.75147L15.5193 6.75147C15.1051 6.75147 14.7693 7.08725 14.7693 7.50147L14.7693 16.4985C14.7693 16.9127 15.1051 17.2485 15.5193 17.2485L16.5 17.2485Z" fill="black"/>
<path d="M20.25 4.5L20.25 19.5C20.25 19.9142 19.9142 20.25 19.5 20.25L4.5 20.25C4.08579 20.25 3.75 19.9142 3.75 19.5L3.75 4.5C3.75 4.08579 4.08579 3.75 4.5 3.75L19.5 3.75C19.9142 3.75 20.25 4.08579 20.25 4.5Z" stroke="black" stroke-width="1.5" stroke-linecap="round" stroke-linejoin="round"/>
<path d="M16.5 17.2485C16.9142 17.2485 17.25 16.9128 17.25 16.4985L17.25 7.50147C17.25 7.08725 16.9142 6.75147 16.5 6.75147L15.5193 6.75147C15.1051 6.75147 14.7693 7.08725 14.7693 7.50147L14.7693 16.4985C14.7693 16.9127 15.1051 17.2485 15.5193 17.2485L16.5 17.2485Z" stroke="black" stroke-width="1.5" stroke-linecap="round" stroke-linejoin="round"/>
</svg>
