<svg width="24" height="24" viewBox="0 0 24 24" fill="none" xmlns="http://www.w3.org/2000/svg">
<path d="M18.7502 19.4248H5.2502C4.8774 19.4248 4.5752 19.1226 4.5752 18.7498V5.2498C4.5752 4.87701 4.8774 4.5748 5.2502 4.5748H18.7502C19.123 4.5748 19.4252 4.87701 19.4252 5.2498V18.7498C19.4252 19.1226 19.123 19.4248 18.7502 19.4248Z" fill="black" fill-opacity="0.2"/>
<path d="M18.9248 18.75C18.9247 18.8466 18.8466 18.9248 18.75 18.9248H5.25C5.1535 18.9247 5.0753 18.8465 5.0752 18.75V5.25C5.0752 5.15342 5.15344 5.0753 5.25 5.0752H18.75C18.8467 5.0752 18.9248 5.15335 18.9248 5.25V18.75ZM19.9248 5.25C19.9248 4.60107 19.3989 4.0752 18.75 4.0752H5.25C4.60115 4.0753 4.0752 4.60113 4.0752 5.25V18.75C4.0753 19.3988 4.60122 19.9247 5.25 19.9248H18.75C19.3989 19.9248 19.9247 19.3988 19.9248 18.75V5.25Z" fill="black"/>
<path d="M6.0002 17.2498C6.0002 17.664 6.33598 17.9998 6.7502 17.9998H17.2502C17.6644 17.9998 18.0002 17.664 18.0002 17.2498V14.7498C18.0002 14.3356 17.6644 13.9998 17.2502 13.9998H6.7502C6.33598 13.9998 6.0002 14.3356 6.0002 14.7498V17.2498Z" fill="black"/>
</svg>
