<svg width="24" height="24" viewBox="0 0 24 24" fill="none" xmlns="http://www.w3.org/2000/svg">
<path d="M5.2498 4.5752H18.7498C19.1226 4.5752 19.4248 4.8774 19.4248 5.2502V18.7502C19.4248 19.123 19.1226 19.4252 18.7498 19.4252H5.2498C4.87701 19.4252 4.5748 19.123 4.5748 18.7502V5.2502C4.5748 4.8774 4.87701 4.5752 5.2498 4.5752Z" fill="black" fill-opacity="0.2"/>
<path d="M5.0752 5.25C5.0753 5.15344 5.15342 5.0752 5.25 5.0752H18.75C18.8465 5.0753 18.9247 5.1535 18.9248 5.25V18.75C18.9248 18.8466 18.8466 18.9247 18.75 18.9248H5.25C5.15335 18.9248 5.0752 18.8467 5.0752 18.75V5.25ZM4.0752 18.75C4.0752 19.3989 4.60107 19.9248 5.25 19.9248H18.75C19.3988 19.9247 19.9248 19.3989 19.9248 18.75V5.25C19.9247 4.60122 19.3988 4.0753 18.75 4.0752H5.25C4.60113 4.0752 4.0753 4.60115 4.0752 5.25V18.75Z" fill="black"/>
<path d="M9.2498 18.0002C9.66402 18.0002 9.9998 17.6644 9.9998 17.2502V6.7502C9.9998 6.33598 9.66402 6.0002 9.2498 6.0002H6.7498C6.33559 6.0002 5.9998 6.33598 5.9998 6.7502V17.2502C5.9998 17.6644 6.33559 18.0002 6.7498 18.0002H9.2498Z" fill="black"/>
</svg>
