<svg width="24" height="24" viewBox="0 0 24 24" fill="none" xmlns="http://www.w3.org/2000/svg">
<path d="M19.5 3.75H4.5C4.08579 3.75 3.75 4.08579 3.75 4.5V19.5C3.75 19.9142 4.08579 20.25 4.5 20.25H19.5C19.9142 20.25 20.25 19.9142 20.25 19.5V4.5C20.25 4.08579 19.9142 3.75 19.5 3.75Z" fill="black" fill-opacity="0.2"/>
<path d="M17.2485 7.5C17.2485 7.08579 16.9127 6.75 16.4985 6.75L7.50146 6.75C7.08725 6.75 6.75146 7.08579 6.75146 7.5L6.75146 8.48071C6.75146 8.89493 7.08725 9.23071 7.50147 9.23071L16.4985 9.23071C16.9127 9.23071 17.2485 8.89493 17.2485 8.48071L17.2485 7.5Z" fill="black"/>
<path d="M4.5 3.75L19.5 3.75C19.9142 3.75 20.25 4.08579 20.25 4.5L20.25 19.5C20.25 19.9142 19.9142 20.25 19.5 20.25L4.5 20.25C4.08579 20.25 3.75 19.9142 3.75 19.5L3.75 4.5C3.75 4.08579 4.08578 3.75 4.5 3.75Z" stroke="black" stroke-width="1.5" stroke-linecap="round" stroke-linejoin="round"/>
<path d="M17.2485 7.5C17.2485 7.08579 16.9127 6.75 16.4985 6.75L7.50146 6.75C7.08725 6.75 6.75146 7.08579 6.75146 7.5L6.75146 8.48071C6.75146 8.89493 7.08725 9.23071 7.50147 9.23071L16.4985 9.23071C16.9127 9.23071 17.2485 8.89493 17.2485 8.48071L17.2485 7.5Z" stroke="black" stroke-width="1.5" stroke-linecap="round" stroke-linejoin="round"/>
</svg>
