<svg width="24" height="24" viewBox="0 0 24 24" fill="none" xmlns="http://www.w3.org/2000/svg">
<path d="M19.5 3.75H4.5C4.08579 3.75 3.75 4.08579 3.75 4.5V19.5C3.75 19.9142 4.08579 20.25 4.5 20.25H19.5C19.9142 20.25 20.25 19.9142 20.25 19.5V4.5C20.25 4.08579 19.9142 3.75 19.5 3.75Z" fill="black" fill-opacity="0.2"/>
<path d="M6.75146 16.5C6.75146 16.9142 7.08725 17.25 7.50146 17.25L16.4985 17.25C16.9127 17.25 17.2485 16.9142 17.2485 16.5L17.2485 15.5193C17.2485 15.1051 16.9127 14.7693 16.4985 14.7693L7.50146 14.7693C7.08725 14.7693 6.75146 15.1051 6.75146 15.5193L6.75146 16.5Z" fill="black"/>
<path d="M19.5 20.25L4.5 20.25C4.08579 20.25 3.75 19.9142 3.75 19.5L3.75 4.5C3.75 4.08579 4.08579 3.75 4.5 3.75L19.5 3.75C19.9142 3.75 20.25 4.08579 20.25 4.5L20.25 19.5C20.25 19.9142 19.9142 20.25 19.5 20.25Z" stroke="black" stroke-width="1.5" stroke-linecap="round" stroke-linejoin="round"/>
<path d="M6.75146 16.5C6.75146 16.9142 7.08725 17.25 7.50146 17.25L16.4985 17.25C16.9127 17.25 17.2485 16.9142 17.2485 16.5L17.2485 15.5193C17.2485 15.1051 16.9127 14.7693 16.4985 14.7693L7.50146 14.7693C7.08725 14.7693 6.75146 15.1051 6.75146 15.5193L6.75146 16.5Z" stroke="black" stroke-width="1.5" stroke-linecap="round" stroke-linejoin="round"/>
</svg>
