<svg width="24" height="24" viewBox="0 0 24 24" fill="none" xmlns="http://www.w3.org/2000/svg">
<path d="M18.7502 4.5752H5.2502C4.8774 4.5752 4.5752 4.8774 4.5752 5.2502V18.7502C4.5752 19.123 4.8774 19.4252 5.2502 19.4252H18.7502C19.123 19.4252 19.4252 19.123 19.4252 18.7502V5.2502C19.4252 4.8774 19.123 4.5752 18.7502 4.5752Z" fill="black" fill-opacity="0.2"/>
<path d="M18.9248 5.25C18.9247 5.15344 18.8466 5.0752 18.75 5.0752H5.25C5.1535 5.0753 5.0753 5.1535 5.0752 5.25V18.75C5.0752 18.8466 5.15344 18.9247 5.25 18.9248H18.75C18.8467 18.9248 18.9248 18.8467 18.9248 18.75V5.25ZM19.9248 18.75C19.9248 19.3989 19.3989 19.9248 18.75 19.9248H5.25C4.60115 19.9247 4.0752 19.3989 4.0752 18.75V5.25C4.0753 4.60122 4.60122 4.0753 5.25 4.0752H18.75C19.3989 4.0752 19.9247 4.60115 19.9248 5.25V18.75Z" fill="black"/>
<path d="M14.7502 18.0002C14.336 18.0002 14.0002 17.6644 14.0002 17.2502V6.7502C14.0002 6.33598 14.336 6.0002 14.7502 6.0002H17.2502C17.6644 6.0002 18.0002 6.33598 18.0002 6.7502V17.2502C18.0002 17.6644 17.6644 18.0002 17.2502 18.0002H14.7502Z" fill="black"/>
</svg>
