<svg xmlns="http://www.w3.org/2000/svg" width="24" height="24" fill="currentColor" viewBox="0 0 24 24"><path d="M22.53 8.76v8.1H18.48v-2.43H5.52v2.43H1.47V8.76c0-0.895 0.786-1.62 1.754-1.62h17.552c0.968 0 1.754 0.725 1.754 1.62" opacity=".2"/><path d="M20.776 6.33h-1.486v-3.24A0.81 0.81 0 0 0 18.48 2.28H5.52a0.81 0.81 0 0 0-0.81 0.81v3.24H3.224c-1.415 0-2.564 1.091-2.564 2.43v8.1a0.81 0.81 0 0 0 0.81 0.81h3.24v3.24a0.81 0.81 0 0 0 0.81 0.81h12.96a0.81 0.81 0 0 0 0.81-0.81v-3.24h3.24a0.81 0.81 0 0 0 0.81-0.81V8.76c0-1.339-1.151-2.43-2.564-2.43M6.33 3.9h11.34v2.43h-11.34z m11.34 16.2h-11.34V15.24h11.34z m4.05-4.05h-2.43v-1.62a0.81 0.81 0 0 0-0.81-0.81H5.52a0.81 0.81 0 0 0-0.81 0.81v1.62H2.28V8.76c0-0.446 0.425-0.81 0.944-0.81h17.552c0.521 0 0.944 0.364 0.944 0.81z m-2.43-5.264a1.216 1.216 0 1 1-1.214-1.215 1.216 1.216 0 0 1 1.214 1.215"/></svg>