<svg width="24" height="24" viewBox="0 0 24 24" fill="none" xmlns="http://www.w3.org/2000/svg">
<path d="M6 16.5H2.25V9C2.25 8.17125 2.9775 7.5 3.87469 7.5H20.1253C21.0225 7.5 21.75 8.17125 21.75 9V16.5H18V14.25H6V16.5Z" fill="black" fill-opacity="0.2"/>
<path d="M17.625 11.25C17.8321 11.25 18 11.0821 18 10.875C18 10.6679 17.8321 10.5 17.625 10.5C17.4179 10.5 17.25 10.6679 17.25 10.875C17.25 11.0821 17.4179 11.25 17.625 11.25Z" fill="black"/>
<path d="M6 7.5V3.75H18V7.5M6 16.5H2.25V9C2.25 8.17125 2.9775 7.5 3.87469 7.5H20.1253C21.0225 7.5 21.75 8.17125 21.75 9V16.5H18M6 14.25H18V20.25H6V14.25ZM17.625 11.25C17.8321 11.25 18 11.0821 18 10.875C18 10.6679 17.8321 10.5 17.625 10.5C17.4179 10.5 17.25 10.6679 17.25 10.875C17.25 11.0821 17.4179 11.25 17.625 11.25Z" stroke="black" stroke-width="1.5" stroke-linecap="round" stroke-linejoin="round"/>
</svg>
