<svg width="24" height="24" viewBox="0 0 24 24" fill="none" xmlns="http://www.w3.org/2000/svg">
<path d="M9.75 13.5C10.1642 13.5 10.5 13.8358 10.5 14.25V18.75C10.5 19.1642 10.1642 19.5 9.75 19.5H5.25C4.83579 19.5 4.5 19.1642 4.5 18.75V14.25C4.5 13.8358 4.83579 13.5 5.25 13.5H9.75Z" fill="black" fill-opacity="0.2"/>
<path d="M9.75 4.5C10.1642 4.5 10.5 4.83579 10.5 5.25V9.75C10.5 10.1642 10.1642 10.5 9.75 10.5H5.25C4.83579 10.5 4.5 10.1642 4.5 9.75V5.25C4.5 4.83579 4.83579 4.5 5.25 4.5H9.75Z" fill="black" fill-opacity="0.2"/>
<path d="M18.75 4.5C19.1642 4.5 19.5 4.83579 19.5 5.25V9.75C19.5 10.1642 19.1642 10.5 18.75 10.5H14.25C13.8358 10.5 13.5 10.1642 13.5 9.75V5.25C13.5 4.83579 13.8358 4.5 14.25 4.5H18.75Z" fill="black" fill-opacity="0.2"/>
<path d="M13.5 13.5V16.5M13.5 19.5H16.5V13.5M16.5 15H19.5M19.5 18V19.5M5.25 4.5H9.75C10.1642 4.5 10.5 4.83579 10.5 5.25V9.75C10.5 10.1642 10.1642 10.5 9.75 10.5H5.25C4.83579 10.5 4.5 10.1642 4.5 9.75V5.25C4.5 4.83579 4.83579 4.5 5.25 4.5ZM5.25 13.5H9.75C10.1642 13.5 10.5 13.8358 10.5 14.25V18.75C10.5 19.1642 10.1642 19.5 9.75 19.5H5.25C4.83579 19.5 4.5 19.1642 4.5 18.75V14.25C4.5 13.8358 4.83579 13.5 5.25 13.5ZM14.25 4.5H18.75C19.1642 4.5 19.5 4.83579 19.5 5.25V9.75C19.5 10.1642 19.1642 10.5 18.75 10.5H14.25C13.8358 10.5 13.5 10.1642 13.5 9.75V5.25C13.5 4.83579 13.8358 4.5 14.25 4.5Z" stroke="black" stroke-width="1.5" stroke-linecap="round" stroke-linejoin="round"/>
</svg>
