<svg xmlns="http://www.w3.org/2000/svg" width="24" height="24" fill="currentColor" viewBox="0 0 24 24"><path d="M10.38 4.71v4.86a0.81 0.81 0 0 1-0.81 0.81h-4.86a0.81 0.81 0 0 1-0.81-0.81v-4.86a0.81 0.81 0 0 1 0.81-0.81h4.86a0.81 0.81 0 0 1 0.81 0.81m-0.81 8.91h-4.86a0.81 0.81 0 0 0-0.81 0.81v4.86a0.81 0.81 0 0 0 0.81 0.81h4.86a0.81 0.81 0 0 0 0.81-0.81v-4.86a0.81 0.81 0 0 0-0.81-0.81m9.72-9.72h-4.86a0.81 0.81 0 0 0-0.81 0.81v4.86a0.81 0.81 0 0 0 0.81 0.81h4.86a0.81 0.81 0 0 0 0.81-0.81v-4.86a0.81 0.81 0 0 0-0.81-0.81" opacity=".2"/><path d="M9.57 3.09h-4.86a1.62 1.62 0 0 0-1.62 1.62v4.86a1.62 1.62 0 0 0 1.62 1.62h4.86a1.62 1.62 0 0 0 1.62-1.62v-4.86a1.62 1.62 0 0 0-1.62-1.62m0 6.48h-4.86v-4.86h4.86z m0 3.24h-4.86a1.62 1.62 0 0 0-1.62 1.62v4.86a1.62 1.62 0 0 0 1.62 1.62h4.86a1.62 1.62 0 0 0 1.62-1.62v-4.86a1.62 1.62 0 0 0-1.62-1.62m0 6.48h-4.86v-4.86h4.86z m9.72-16.2h-4.86a1.62 1.62 0 0 0-1.62 1.62v4.86a1.62 1.62 0 0 0 1.62 1.62h4.86a1.62 1.62 0 0 0 1.62-1.62v-4.86a1.62 1.62 0 0 0-1.62-1.62m0 6.48h-4.86v-4.86h4.86z m-6.48 7.29v-3.24a0.81 0.81 0 0 1 1.62 0v3.24a0.81 0.81 0 0 1-1.62 0m8.1-1.62a0.81 0.81 0 0 1-0.81 0.81h-2.43v4.05a0.81 0.81 0 0 1-0.81 0.81h-3.24a0.81 0.81 0 0 1 0-1.62h2.43V13.62a0.81 0.81 0 0 1 1.62 0v0.81h2.43a0.81 0.81 0 0 1 0.81 0.81m0 3.24v1.62a0.81 0.81 0 0 1-1.62 0V18.48a0.81 0.81 0 0 1 1.62 0"/></svg>