<svg xmlns="http://www.w3.org/2000/svg" width="24" height="24" fill="currentColor" viewBox="0 0 24 24"><path d="M21.72 12A9.72 9.72 0 1 1 12 2.28a9.72 9.72 0 0 1 9.72 9.72" opacity=".2"/><path d="M13.216 17.266a1.216 1.216 0 1 1-1.215-1.216 1.216 1.216 0 0 1 1.215 1.216m-1.215-10.936c-2.233 0-4.05 1.636-4.05 3.646v0.405a0.81 0.81 0 0 0 1.62 0v-0.405c0-1.114 1.091-2.026 2.43-2.026s2.43 0.911 2.43 2.026-1.091 2.026-2.43 2.025a0.81 0.81 0 0 0-0.81 0.81v0.81a0.81 0.81 0 0 0 1.62 0v-0.073c1.847-0.34 3.24-1.812 3.24-3.572 0-2.01-1.817-3.646-4.05-3.646M22.531 12a10.53 10.53 0 1 1-10.53-10.53A10.541 10.541 0 0 1 22.531 12m-1.62 0a8.91 8.91 0 1 0-8.91 8.91A8.92 8.92 0 0 0 20.911 12"/></svg>