<svg width="24" height="24" viewBox="0 0 24 24" fill="none" xmlns="http://www.w3.org/2000/svg">
<path d="M2.45438 17.2499C2.32287 17.4777 2.25357 17.7361 2.25342 17.9991C2.25327 18.2621 2.32228 18.5205 2.45353 18.7485C2.58478 18.9764 2.77365 19.1658 3.0012 19.2977C3.22876 19.4296 3.48699 19.4993 3.75001 19.4999H20.25C20.5132 19.4997 20.7717 19.4302 20.9995 19.2984C21.2273 19.1666 21.4164 18.9773 21.5479 18.7493C21.6794 18.5213 21.7485 18.2627 21.7485 17.9996C21.7484 17.7364 21.6791 17.4779 21.5475 17.2499L13.2975 2.99994C13.1658 2.77219 12.9765 2.5831 12.7485 2.45164C12.5206 2.32018 12.2622 2.25098 11.9991 2.25098C11.736 2.25098 11.4775 2.32018 11.2496 2.45164C11.0217 2.5831 10.8324 2.77219 10.7006 2.99994L2.45438 17.2499Z" fill="black" fill-opacity="0.2"/>
<path d="M14.25 17.2499L12 19.4999L14.25 21.7499M12 19.4999H20.25C20.5132 19.4996 20.7716 19.4301 20.9995 19.2983C21.2273 19.1666 21.4164 18.9772 21.5479 18.7492C21.6794 18.5212 21.7485 18.2627 21.7485 17.9995C21.7484 17.7363 21.6791 17.4778 21.5475 17.2499L19.3781 13.4999M18.2466 7.04907L17.4226 10.1231L14.3494 9.29907M3.50537 10.9471L6.57756 10.1249L7.40256 13.1971M6.57756 10.1249L2.45243 17.2499C2.32084 17.4778 2.25153 17.7363 2.25146 17.9995C2.2514 18.2627 2.32057 18.5212 2.45204 18.7492C2.58351 18.9772 2.77265 19.1666 3.00047 19.2983C3.22828 19.4301 3.48675 19.4996 3.74993 19.4999H8.24993M17.4225 10.1249L13.2975 2.99994C13.1658 2.77219 12.9764 2.5831 12.7485 2.45164C12.5206 2.32018 12.2622 2.25098 11.9991 2.25098C11.736 2.25098 11.4775 2.32018 11.2496 2.45164C11.0217 2.5831 10.8324 2.77219 10.7006 2.99994L8.53125 6.74994" stroke="black" stroke-width="1.5" stroke-linecap="round" stroke-linejoin="round"/>
</svg>
