<svg width="24" height="24" viewBox="0 0 24 24" fill="none" xmlns="http://www.w3.org/2000/svg">
<path d="M5.56967 8.42625C7.28623 7.38281 9.53623 6.75 12 6.75C14.4637 6.75 16.7137 7.38281 18.4303 8.42625C18.627 8.15635 18.8814 7.93364 19.1749 7.77428C19.4684 7.61491 19.7938 7.5229 20.1273 7.5049C20.4608 7.48691 20.7941 7.54339 21.1031 7.67024C21.412 7.7971 21.6889 7.99115 21.9135 8.23831C22.1382 8.48547 22.305 8.77955 22.4018 9.09919C22.4987 9.41883 22.5231 9.75603 22.4735 10.0863C22.4238 10.4166 22.3012 10.7317 22.1146 11.0087C21.928 11.2857 21.6821 11.5177 21.3947 11.6878C21.6284 12.2635 21.749 12.8787 21.75 13.5C21.75 17.2275 17.385 20.25 12 20.25C6.61498 20.25 2.24998 17.2275 2.24998 13.5C2.25095 12.8787 2.37158 12.2635 2.60529 11.6878C2.31788 11.5177 2.07195 11.2857 1.88536 11.0087C1.69876 10.7317 1.57617 10.4166 1.52649 10.0863C1.47681 9.75603 1.50129 9.41883 1.59814 9.09919C1.69499 8.77955 1.86179 8.48547 2.08643 8.23831C2.31107 7.99115 2.58792 7.7971 2.89688 7.67024C3.20585 7.54339 3.53918 7.48691 3.87269 7.5049C4.2062 7.5229 4.53152 7.61491 4.82504 7.77428C5.11856 7.93364 5.37292 8.15635 5.56967 8.42625Z" fill="black" fill-opacity="0.2"/>
<path d="M8.62451 12.7498C8.83162 12.7498 8.99951 12.5819 8.99951 12.3748C8.99951 12.1676 8.83162 11.9998 8.62451 11.9998C8.41741 11.9998 8.24951 12.1676 8.24951 12.3748C8.24951 12.5819 8.41741 12.7498 8.62451 12.7498Z" fill="black"/>
<path d="M15.3748 12.75C15.5819 12.75 15.7498 12.5821 15.7498 12.375C15.7498 12.1679 15.5819 12 15.3748 12C15.1676 12 14.9998 12.1679 14.9998 12.375C14.9998 12.5821 15.1676 12.75 15.3748 12.75Z" fill="black"/>
<path d="M12 6.75C9.53625 6.75 7.28623 7.38281 5.56967 8.42625C5.37292 8.15635 5.11856 7.93364 4.82504 7.77428C4.53152 7.61491 4.2062 7.5229 3.87269 7.5049C3.53918 7.48691 3.20585 7.54339 2.89688 7.67024C2.58792 7.7971 2.31107 7.99115 2.08643 8.23831C1.86179 8.48547 1.69499 8.77955 1.59814 9.09919C1.50129 9.41883 1.47681 9.75603 1.52649 10.0863C1.57617 10.4166 1.69876 10.7317 1.88536 11.0087C2.07195 11.2857 2.31788 11.5177 2.60529 11.6878C2.37158 12.2635 2.25095 12.8787 2.24998 13.5C2.24998 17.2275 6.61498 20.25 12 20.25C17.385 20.25 21.75 17.2275 21.75 13.5C21.749 12.8787 21.6284 12.2635 21.3947 11.6878C21.6821 11.5177 21.928 11.2857 22.1146 11.0087C22.3012 10.7317 22.4238 10.4166 22.4735 10.0863C22.5231 9.75603 22.4987 9.41883 22.4018 9.09919C22.305 8.77955 22.1382 8.48547 21.9135 8.23831C21.6889 7.99115 21.412 7.7971 21.1031 7.67024C20.7941 7.54339 20.4608 7.48691 20.1273 7.5049C19.7938 7.5229 19.4684 7.61491 19.1749 7.77428C18.8814 7.93364 18.627 8.15635 18.4303 8.42625C16.7137 7.38281 14.4637 6.75 12 6.75ZM12 6.75L12.75 2.25L15.7772 2.71594M15 16.5C14.0767 16.9924 13.0464 17.25 12 17.25C10.9536 17.25 9.92329 16.9924 9 16.5M8.62451 12.7498C8.83162 12.7498 8.99951 12.5819 8.99951 12.3748C8.99951 12.1676 8.83162 11.9998 8.62451 11.9998C8.41741 11.9998 8.24951 12.1676 8.24951 12.3748C8.24951 12.5819 8.41741 12.7498 8.62451 12.7498ZM18.75 3C18.75 3.82843 18.0784 4.5 17.25 4.5C16.4216 4.5 15.75 3.82843 15.75 3C15.75 2.17157 16.4216 1.5 17.25 1.5C18.0784 1.5 18.75 2.17157 18.75 3ZM15.3748 12.75C15.5819 12.75 15.7498 12.5821 15.7498 12.375C15.7498 12.1679 15.5819 12 15.3748 12C15.1676 12 14.9998 12.1679 14.9998 12.375C14.9998 12.5821 15.1676 12.75 15.3748 12.75Z" stroke="black" stroke-width="1.5" stroke-linecap="round" stroke-linejoin="round"/>
</svg>
