<svg xmlns="http://www.w3.org/2000/svg" width="24" height="24" fill="currentColor" viewBox="0 0 24 24"><path d="M22.146 11.663a5.28 5.28 0 0 1 0.384 1.957c0 4.026-4.714 7.29-10.53 7.29s-10.53-3.264-10.53-7.29a5.28 5.28 0 0 1 0.384-1.957 2.43 2.43 0 1 1 3.202-3.522C6.91 7.014 9.34 6.33 12 6.33s5.09 0.684 6.944 1.811a2.43 2.43 0 1 1 3.202 3.522" opacity=".2"/><path d="M24.15 9.57a3.24 3.24 0 0 0-5.36-2.449c-1.696-0.901-3.722-1.446-5.838-1.572l0.525-3.156 1.794 0.276a2.43 2.43 0 1 0 0.291-1.594l-2.633-0.404a0.81 0.81 0 0 0-0.923 0.667l-0.696 4.2c-2.212 0.095-4.336 0.646-6.101 1.584a3.24 3.24 0 0 0-4.313 4.834 6 6 0 0 0-0.237 1.665c0 2.22 1.216 4.288 3.433 5.821 2.123 1.469 4.931 2.279 7.907 2.279s5.783-0.81 7.907-2.279c2.219-1.532 3.433-3.6 3.433-5.821a6 6 0 0 0-0.238-1.665 3.24 3.24 0 0 0 1.048-2.385z m-6.48-8.1a0.81 0.81 0 1 1-0.81 0.81 0.81 0.81 0 0 1 0.81-0.81m4.063 9.496a0.81 0.81 0 0 0-0.333 1.012 4.44 4.44 0 0 1 0.32 1.643c0 1.674-0.971 3.268-2.734 4.488-1.856 1.283-4.337 1.992-6.986 1.992s-5.13-0.709-6.986-1.992C3.251 16.888 2.28 15.294 2.28 13.621a4.44 4.44 0 0 1 0.318-1.637 0.81 0.81 0 0 0-0.331-1.012 1.62 1.62 0 1 1 2.133-2.354 0.81 0.81 0 0 0 1.077 0.215l0.018-0.011C7.286 7.739 9.595 7.141 12 7.141c2.402 0 4.711 0.598 6.503 1.681l0.018 0.011a0.81 0.81 0 0 0 1.076-0.215 1.62 1.62 0 1 1 2.134 2.349zM7.95 13.62A1.62 1.62 0 1 1 9.57 12a1.62 1.62 0 0 1-1.62 1.62m9.72-1.62a1.62 1.62 0 1 1-1.62-1.62 1.62 1.62 0 0 1 1.62 1.62m-1.714 4.481a0.81 0.81 0 0 1-0.336 1.095 7.716 7.716 0 0 1-7.239 0 0.81 0.81 0 1 1 0.759-1.431 6.096 6.096 0 0 0 5.721 0 0.81 0.81 0 0 1 1.095 0.336"/></svg>