<svg width="24" height="24" viewBox="0 0 24 24" fill="none" xmlns="http://www.w3.org/2000/svg">
<path d="M18.875 9H5.125C4.76033 9 4.41059 9.05268 4.15273 9.14645C3.89487 9.24021 3.75 9.36739 3.75 9.5V14.5C3.75 14.6326 3.89487 14.7598 4.15273 14.8536C4.41059 14.9473 4.76033 15 5.125 15H18.875C19.2397 15 19.5894 14.9473 19.8473 14.8536C20.1051 14.7598 20.25 14.6326 20.25 14.5V9.5C20.25 9.36739 20.1051 9.24021 19.8473 9.14645C19.5894 9.05268 19.2397 9 18.875 9Z" fill="black" fill-opacity="0.2"/>
<path d="M3.75 12H20.25M3.75 9H20.25M3.75 15H20.25" stroke="black" stroke-width="1.5" stroke-linecap="round" stroke-linejoin="round"/>
</svg>
