<svg xmlns="http://www.w3.org/2000/svg" width="24" height="24" fill="currentColor" viewBox="0 0 24 24"><path d="M23.34 5.52v12.96a1.62 1.62 0 0 1-1.62 1.62H2.28a1.62 1.62 0 0 1-1.62-1.62V5.52A1.62 1.62 0 0 1 2.28 3.9h19.44a1.62 1.62 0 0 1 1.62 1.62" opacity=".2"/><path d="M6.33 8.356A1.216 1.216 0 1 1 5.114 7.14a1.216 1.216 0 0 1 1.216 1.216M12 7.14a1.216 1.216 0 1 0 1.214 1.216A1.216 1.216 0 0 0 12 7.14m6.886 2.43a1.216 1.216 0 1 0-1.215-1.216 1.216 1.216 0 0 0 1.215 1.216m-13.77 4.86a1.216 1.216 0 1 0 1.215 1.216 1.216 1.216 0 0 0-1.215-1.216m6.885 0a1.216 1.216 0 1 0 1.215 1.216 1.216 1.216 0 0 0-1.215-1.216m6.886 0a1.216 1.216 0 1 0 1.214 1.216 1.216 1.216 0 0 0-1.214-1.216"/></svg>