<svg width="24" height="24" viewBox="0 0 24 24" fill="none" xmlns="http://www.w3.org/2000/svg">
<path d="M19.8438 13.5H14.4062C13.9057 13.5 13.5 13.9057 13.5 14.4062V19.8438C13.5 20.3443 13.9057 20.75 14.4062 20.75H19.8438C20.3443 20.75 20.75 20.3443 20.75 19.8438V14.4062C20.75 13.9057 20.3443 13.5 19.8438 13.5Z" fill="black" fill-opacity="0.2"/>
<path d="M10.4444 16.4932H4C3.80109 16.4932 3.61032 16.4142 3.46967 16.2735C3.32902 16.1328 3.25 15.9421 3.25 15.7432V8.24463C3.25 8.04572 3.32902 7.85495 3.46967 7.7143C3.61032 7.57365 3.80109 7.49463 4 7.49463H10.4444M8.24877 14.2427L10.4988 16.4927L8.24877 18.7427M20.75 3.25V10.5M13.5 3.25V10.5M15.9167 3.25V10.5M18.3334 3.25V10.5M14.4062 13.5H19.8437C20.3442 13.5 20.75 13.9057 20.75 14.4062V19.8438C20.75 20.3443 20.3442 20.75 19.8437 20.75H14.4062C13.9057 20.75 13.5 20.3443 13.5 19.8438V14.4062C13.5 13.9057 13.9057 13.5 14.4062 13.5Z" stroke="black" stroke-width="1.5" stroke-linecap="round" stroke-linejoin="round"/>
</svg>
