<svg viewBox="0 0 24 24" fill="none" xmlns="http://www.w3.org/2000/svg" width="24" height="24">
<path d="M11.4 19.29V4.71C11.4 4.378 11.669 4.11 12 4.11 12.331 4.11 12.6 4.378 12.6 4.71V19.29C12.6 19.621 12.331 19.89 12 19.89 11.669 19.89 11.4 19.621 11.4 19.29Z" fill="black"/>
<path d="M18.69 7.95V5.31H5.31V7.95C5.31 8.281 5.041 8.55 4.71 8.55 4.379 8.55 4.11 8.281 4.11 7.95V4.71C4.11 4.378 4.379 4.11 4.71 4.11H19.29C19.622 4.11 19.89 4.379 19.89 4.71V7.95C19.89 8.281 19.622 8.55 19.29 8.55 18.959 8.55 18.691 8.281 18.69 7.95Z" fill="black"/>
<path d="M15.24 18.69C15.572 18.69 15.84 18.959 15.84 19.29 15.84 19.621 15.572 19.89 15.24 19.89H8.76C8.429 19.89 8.16 19.621 8.16 19.29 8.16 18.958 8.429 18.69 8.76 18.69H15.24Z" fill="black"/>
<path d="M21.069 15.055C21.303 14.82 21.683 14.82 21.917 15.055L23.825 16.963C24.059 17.197 24.059 17.577 23.825 17.811L21.917 19.718C21.683 19.952 21.303 19.952 21.069 19.718 20.835 19.483 20.834 19.104 21.069 18.869L22.551 17.386 21.069 15.903C20.834 15.669 20.834 15.289 21.069 15.055Z" fill="black"/>
<path d="M17.078 12.547C17.078 12.216 17.347 11.947 17.678 11.947 18.009 11.947 18.278 12.216 18.278 12.547V16.787H23.4C23.732 16.787 24 17.055 24 17.387 24 17.718 23.732 17.987 23.4 17.987H17.678C17.347 17.987 17.078 17.718 17.078 17.387V12.547Z" fill="black"/>
<path d="M4.716 5.604C4.716 5.107 5.119 4.704 5.616 4.704H18.396C18.893 4.704 19.296 5.107 19.296 5.604V18.384C19.296 18.881 18.893 19.284 18.396 19.284H5.616C5.119 19.284 4.716 18.881 4.716 18.384V5.604Z" fill="black" fill-opacity="0.2"/>
</svg>