<svg xmlns="http://www.w3.org/2000/svg" width="24" height="24" fill="currentColor" viewBox="0 0 24 24"><path d="M21.72 6.314v11.37a0.8 0.8 0 0 1-1.234 0.668l-8.929-5.686a0.79 0.79 0 0 1 0-1.334l8.929-5.686a0.8 0.8 0 0 1 1.234 0.667z m-11.764-0.667l-8.929 5.686a0.79 0.79 0 0 0 0 1.334l8.929 5.686a0.8 0.8 0 0 0 1.234-0.667V6.316a0.8 0.8 0 0 0-1.234-0.668z" opacity=".2"/><path d="M21.697 4.913a1.62 1.62 0 0 0-1.645 0.054L12 10.091V6.314a1.61 1.61 0 0 0-2.479-1.351l-8.929 5.686a1.6 1.6 0 0 0 0 2.701l8.929 5.687A1.61 1.61 0 0 0 12 17.686v-3.777l8.052 5.128a1.61 1.61 0 0 0 2.479-1.351V6.313a1.608 1.608 0 0 0-0.833-1.401zM10.38 17.663L1.488 12l8.892-5.664z m10.53 0L12.018 12l8.892-5.664z"/></svg>