<svg width="24" height="24" viewBox="0 0 24 24" fill="none" xmlns="http://www.w3.org/2000/svg">
<path d="M20.9997 6.73614V17.2643C20.9986 17.3968 20.9619 17.5267 20.8936 17.6402C20.8252 17.7538 20.7277 17.847 20.6111 17.9101C20.4945 17.9732 20.3631 18.0038 20.2307 17.9989C20.0982 17.994 19.9695 17.9536 19.8579 17.8821L11.5901 12.618C11.4859 12.5521 11.4001 12.4608 11.3406 12.3528C11.2812 12.2448 11.25 12.1235 11.25 12.0002C11.25 11.8769 11.2812 11.7556 11.3406 11.6476C11.4001 11.5396 11.4859 11.4483 11.5901 11.3824L19.8579 6.11833C19.9695 6.04676 20.0982 6.00641 20.2307 6.00149C20.3631 5.99656 20.4945 6.02724 20.6111 6.09032C20.7277 6.1534 20.8252 6.24659 20.8936 6.36017C20.9619 6.47375 20.9986 6.60358 20.9997 6.73614Z" fill="black" fill-opacity="0.2"/>
<path d="M11.2497 6.73614V17.2643C11.2486 17.3968 11.2119 17.5267 11.1436 17.6402C11.0752 17.7538 10.9777 17.847 10.8611 17.9101C10.7445 17.9732 10.6131 18.0038 10.4807 17.9989C10.3482 17.994 10.2195 17.9536 10.1079 17.8821L1.84005 12.618C1.73588 12.5521 1.65008 12.4608 1.59063 12.3528C1.53118 12.2448 1.5 12.1235 1.5 12.0002C1.5 11.8769 1.53118 11.7556 1.59063 11.6476C1.65008 11.5396 1.73588 11.4483 1.84005 11.3824L10.1079 6.11833C10.2195 6.04676 10.3482 6.00641 10.4807 6.00149C10.6131 5.99656 10.7445 6.02724 10.8611 6.09032C10.9777 6.1534 11.0752 6.24659 11.1436 6.36017C11.2119 6.47375 11.2486 6.60358 11.2497 6.73614Z" fill="black" fill-opacity="0.2"/>
<path d="M20.9997 6.73614V17.2643C20.9986 17.3968 20.9619 17.5266 20.8936 17.6402C20.8252 17.7538 20.7277 17.847 20.6111 17.9101C20.4945 17.9732 20.3631 18.0038 20.2307 17.9989C20.0982 17.994 19.9695 17.9536 19.8579 17.8821L11.5901 12.618C11.4859 12.5521 11.4001 12.4608 11.3406 12.3528C11.2812 12.2448 11.25 12.1235 11.25 12.0002C11.25 11.8769 11.2812 11.7556 11.3406 11.6476C11.4001 11.5396 11.4859 11.4483 11.5901 11.3824L19.8579 6.11833C19.9695 6.04676 20.0982 6.00641 20.2307 6.00149C20.3631 5.99656 20.4945 6.02724 20.6111 6.09032C20.7277 6.1534 20.8252 6.24659 20.8936 6.36017C20.9619 6.47375 20.9986 6.60358 20.9997 6.73614Z" stroke="black" stroke-width="1.5" stroke-linecap="round" stroke-linejoin="round"/>
<path d="M11.2497 6.73614V17.2643C11.2486 17.3968 11.2119 17.5266 11.1436 17.6402C11.0752 17.7538 10.9777 17.847 10.8611 17.9101C10.7445 17.9732 10.6131 18.0038 10.4807 17.9989C10.3482 17.994 10.2195 17.9536 10.1079 17.8821L1.84005 12.618C1.73588 12.5521 1.65008 12.4608 1.59063 12.3528C1.53118 12.2448 1.5 12.1235 1.5 12.0002C1.5 11.8769 1.53118 11.7556 1.59063 11.6476C1.65008 11.5396 1.73588 11.4483 1.84005 11.3824L10.1079 6.11833C10.2195 6.04676 10.3482 6.00641 10.4807 6.00149C10.6131 5.99656 10.7445 6.02724 10.8611 6.09032C10.9777 6.1534 11.0752 6.24659 11.1436 6.36017C11.2119 6.47375 11.2486 6.60358 11.2497 6.73614Z" stroke="black" stroke-width="1.5" stroke-linecap="round" stroke-linejoin="round"/>
</svg>
