<svg xmlns="http://www.w3.org/2000/svg" width="24" height="24" fill="currentColor" viewBox="0 0 24 24"><path d="M9.976 6.33v7.29H3.09a0.81 0.81 0 0 1-0.81-0.81v-6.48a0.81 0.81 0 0 1 0.81-0.81h6.076a0.81 0.81 0 0 1 0.81 0.81m10.935-0.81h-6.075a0.81 0.81 0 0 0-0.81 0.81v6.48a0.81 0.81 0 0 0 0.81 0.81h6.885V6.33a0.81 0.81 0 0 0-0.81-0.81" opacity=".2"/><path d="M9.166 4.71H3.09a1.62 1.62 0 0 0-1.62 1.62v6.48a1.62 1.62 0 0 0 1.62 1.62h6.076v0.81a3.24 3.24 0 0 1-3.24 3.24 0.81 0.81 0 0 0 0 1.62 4.865 4.865 0 0 0 4.86-4.86V6.33a1.62 1.62 0 0 0-1.62-1.62m0 8.1H3.09v-6.48h6.076z m11.745-8.1h-6.075a1.62 1.62 0 0 0-1.62 1.62v6.48a1.62 1.62 0 0 0 1.62 1.62h6.075v0.81a3.24 3.24 0 0 1-3.24 3.24 0.81 0.81 0 0 0 0 1.62 4.865 4.865 0 0 0 4.86-4.86V6.33a1.62 1.62 0 0 0-1.62-1.62m0 8.1h-6.075v-6.48h6.075z"/></svg>