<svg xmlns="http://www.w3.org/2000/svg" fill="currentColor" viewBox="0 0 24 24" width="24" height="24"><path d="M18.075 5.925H5.925A2.025 2.025 0 0 0 3.9 7.95v9.45a2.025 2.025 0 0 0 2.025 2.025h12.15A2.025 2.025 0 0 0 20.1 17.4V7.95a2.025 2.025 0 0 0-2.025-2.025m-3.037 10.8H8.963a1.688 1.688 0 0 1 0-3.375h6.075a1.688 1.688 0 0 1 0 3.375" opacity=".2"/><path d="M18.075 5.25h-5.4v-2.7a.675.675 0 0 0-1.35 0v2.7h-5.4a2.7 2.7 0 0 0-2.7 2.7v9.45a2.7 2.7 0 0 0 2.7 2.7h12.15a2.7 2.7 0 0 0 2.7-2.7V7.95a2.7 2.7 0 0 0-2.7-2.7m1.35 12.15a1.35 1.35 0 0 1-1.35 1.35H5.925a1.35 1.35 0 0 1-1.35-1.35V7.95a1.35 1.35 0 0 1 1.35-1.35h12.15a1.35 1.35 0 0 1 1.35 1.35zm-12.15-7.088a1.013 1.013 0 1 1 1.013 1.012 1.013 1.013 0 0 1-1.013-1.012m7.425 0a1.013 1.013 0 1 1 1.012 1.012 1.013 1.013 0 0 1-1.012-1.012m.338 2.363H8.963a2.363 2.363 0 0 0 0 4.725h6.075a2.363 2.363 0 0 0 0-4.725m-2.025 1.35v2.025h-2.025v-2.025zM7.95 15.037a1.013 1.013 0 0 1 1.013-1.013h.675v2.025h-.675a1.013 1.013 0 0 1-1.013-1.012m7.088 1.013h-.675v-2.025h.675a1.013 1.013 0 0 1 0 2.025"/></svg>