<svg xmlns="http://www.w3.org/2000/svg" fill="currentColor" viewBox="0 0 24 24" width="24" height="24"><path d="M19.29 4.71H4.71A2.43 2.43 0 0 0 2.28 7.14v11.34a2.43 2.43 0 0 0 2.43 2.43h14.58A2.43 2.43 0 0 0 21.72 18.48V7.14a2.43 2.43 0 0 0-2.43-2.43m-3.644 12.96H8.356a2.026 2.026 0 0 1 0-4.05h7.29a2.026 2.026 0 0 1 0 4.05" opacity=".2"/><path d="M19.29 3.9h-6.48v-3.24a0.81 0.81 0 0 0-1.62 0v3.24h-6.48a3.24 3.24 0 0 0-3.24 3.24v11.34a3.24 3.24 0 0 0 3.24 3.24h14.58a3.24 3.24 0 0 0 3.24-3.24V7.14a3.24 3.24 0 0 0-3.24-3.24m1.62 14.58a1.62 1.62 0 0 1-1.62 1.62H4.71a1.62 1.62 0 0 1-1.62-1.62V7.14a1.62 1.62 0 0 1 1.62-1.62h14.58a1.62 1.62 0 0 1 1.62 1.62z m-14.58-8.506a1.216 1.216 0 1 1 1.216 1.215 1.216 1.216 0 0 1-1.216-1.215m8.91 0a1.216 1.216 0 1 1 1.214 1.215 1.216 1.216 0 0 1-1.214-1.215m0.406 2.836H8.356a2.836 2.836 0 0 0 0 5.67h7.29a2.836 2.836 0 0 0 0-5.67m-2.43 1.62v2.43h-2.43v-2.43zM7.14 15.644a1.216 1.216 0 0 1 1.216-1.215h0.81v2.43h-0.81a1.216 1.216 0 0 1-1.216-1.215m8.506 1.216h-0.81v-2.43h0.81a1.216 1.216 0 0 1 0 2.43"/></svg>