<svg width="24" height="24" viewBox="0 0 24 24" fill="none" xmlns="http://www.w3.org/2000/svg">
<path d="M18.75 5.25H5.25C4.65326 5.25 4.08097 5.48705 3.65901 5.90901C3.23705 6.33097 3 6.90326 3 7.5V18C3 18.5967 3.23705 19.169 3.65901 19.591C4.08097 20.0129 4.65326 20.25 5.25 20.25H18.75C19.3467 20.25 19.919 20.0129 20.341 19.591C20.7629 19.169 21 18.5967 21 18V7.5C21 6.90326 20.7629 6.33097 20.341 5.90901C19.919 5.48705 19.3467 5.25 18.75 5.25ZM15.375 17.25H8.625C8.12772 17.25 7.65081 17.0525 7.29917 16.7008C6.94754 16.3492 6.75 15.8723 6.75 15.375C6.75 14.8777 6.94754 14.4008 7.29917 14.0492C7.65081 13.6975 8.12772 13.5 8.625 13.5H15.375C15.8723 13.5 16.3492 13.6975 16.7008 14.0492C17.0525 14.4008 17.25 14.8777 17.25 15.375C17.25 15.8723 17.0525 16.3492 16.7008 16.7008C16.3492 17.0525 15.8723 17.25 15.375 17.25Z" fill="black" fill-opacity="0.2"/>
<path d="M7.875 10.5C8.08211 10.5 8.25 10.3321 8.25 10.125C8.25 9.91789 8.08211 9.75 7.875 9.75C7.66789 9.75 7.5 9.91789 7.5 10.125C7.5 10.3321 7.66789 10.5 7.875 10.5Z" fill="black"/>
<path d="M16.125 10.5C16.3321 10.5 16.5 10.3321 16.5 10.125C16.5 9.91789 16.3321 9.75 16.125 9.75C15.9179 9.75 15.75 9.91789 15.75 10.125C15.75 10.3321 15.9179 10.5 16.125 10.5Z" fill="black"/>
<path d="M13.875 13.5V17.25M10.125 13.5V17.25M12 5.25V1.5M5.25 5.25H18.75C19.9926 5.25 21 6.25736 21 7.5V18C21 19.2426 19.9926 20.25 18.75 20.25H5.25C4.00736 20.25 3 19.2426 3 18V7.5C3 6.25736 4.00736 5.25 5.25 5.25ZM8.625 13.5H15.375C16.4105 13.5 17.25 14.3395 17.25 15.375C17.25 16.4105 16.4105 17.25 15.375 17.25H8.625C7.58947 17.25 6.75 16.4105 6.75 15.375C6.75 14.3395 7.58947 13.5 8.625 13.5ZM8.25 10.125C8.25 10.3321 8.08211 10.5 7.875 10.5C7.66789 10.5 7.5 10.3321 7.5 10.125C7.5 9.91789 7.66789 9.75 7.875 9.75C8.08211 9.75 8.25 9.91789 8.25 10.125ZM16.5 10.125C16.5 10.3321 16.3321 10.5 16.125 10.5C15.9179 10.5 15.75 10.3321 15.75 10.125C15.75 9.91789 15.9179 9.75 16.125 9.75C16.3321 9.75 16.5 9.91789 16.5 10.125Z" stroke="black" stroke-width="1.5" stroke-linecap="round" stroke-linejoin="round"/>
</svg>
