<svg width="24" height="24" viewBox="0 0 24 24" fill="none" xmlns="http://www.w3.org/2000/svg">
<path d="M6.7656 10.3975C6.65685 12.5856 7.19083 15.1341 8.88865 18L6.1279 20.085C6.02846 20.1646 5.90975 20.2169 5.78415 20.2383C5.6588 20.2595 5.53008 20.2492 5.41013 20.207C5.29002 20.1647 5.18213 20.0923 5.09763 19.9971C5.01317 19.9018 4.95438 19.7864 4.92673 19.6621L3.76755 14.4463C3.74265 14.3344 3.7445 14.2178 3.77146 14.1064C3.79847 13.9952 3.85055 13.8917 3.9238 13.8037L6.7656 10.3975Z" fill="black" fill-opacity="0.2"/>
<path d="M20.0761 13.8037C20.1494 13.8917 20.2015 13.9952 20.2285 14.1064C20.2555 14.2179 20.2564 14.3344 20.2314 14.4463L19.0732 19.6621C19.0456 19.7864 18.9868 19.9018 18.9023 19.9971C18.8178 20.0924 18.71 20.1647 18.5898 20.207C18.4699 20.2492 18.3411 20.2595 18.2158 20.2383C18.0902 20.2169 17.9715 20.1646 17.872 20.085L15.1113 18C16.8091 15.1341 17.3478 12.5856 17.2343 10.3975L20.0761 13.8037Z" fill="black" fill-opacity="0.2"/>
<path d="M11.9996 9.74902C12.2067 9.74902 12.3746 9.58113 12.3746 9.37402C12.3746 9.16692 12.2067 8.99902 11.9996 8.99902C11.7925 8.99902 11.6246 9.16692 11.6246 9.37402C11.6246 9.58113 11.7925 9.74902 11.9996 9.74902Z" fill="black"/>
<path d="M13.5 21H10.5M8.88822 18.0004C3.51728 8.93662 9.73759 3.05006 11.5395 1.65787C11.6711 1.55555 11.8331 1.5 11.9998 1.5C12.1665 1.5 12.3285 1.55555 12.4601 1.65787C14.262 3.05006 20.4823 8.93662 15.1113 18.0004M8.88822 18.0004H15.1113M8.88822 18.0004L6.12767 20.0845C6.02823 20.1642 5.91014 20.2171 5.78455 20.2385C5.65895 20.2598 5.52999 20.2488 5.40982 20.2065C5.28966 20.1642 5.18225 20.092 5.09773 19.9967C5.01321 19.9014 4.95436 19.7861 4.92673 19.6617L3.76798 14.4464C3.74301 14.3344 3.74406 14.2182 3.77104 14.1068C3.79802 13.9953 3.85021 13.8914 3.92361 13.8033L6.76517 10.3945M15.1113 18.0004L17.8723 20.0845C17.9717 20.1642 18.0898 20.2171 18.2154 20.2385C18.341 20.2598 18.4699 20.2488 18.5901 20.2065C18.7103 20.1642 18.8177 20.092 18.9022 19.9967C18.9867 19.9014 19.0456 19.7861 19.0732 19.6617L20.232 14.4464C20.2569 14.3344 20.2559 14.2182 20.2289 14.1068C20.2019 13.9953 20.1497 13.8914 20.0763 13.8033L17.2348 10.3945M12.3746 9.37402C12.3746 9.58113 12.2067 9.74902 11.9996 9.74902C11.7925 9.74902 11.6246 9.58113 11.6246 9.37402C11.6246 9.16692 11.7925 8.99902 11.9996 8.99902C12.2067 8.99902 12.3746 9.16692 12.3746 9.37402Z" stroke="black" stroke-width="1.5" stroke-linecap="round" stroke-linejoin="round"/>
</svg>
