<svg xmlns="http://www.w3.org/2000/svg" fill="currentColor" viewBox="0 0 24 24" width="24" height="24"><path d="M17.67 11.19v6.242a0.816 0.816 0 0 1-0.236 0.573l-3.478 3.477a0.81 0.81 0 0 1-1.374-0.458l-0.581-4.164z m-4.86-4.86H6.568a0.816 0.816 0 0 0-0.573 0.236L2.518 10.044a0.81 0.81 0 0 0 0.458 1.374l4.164 0.581z m-9.72 14.58c3.812 0 5.132-1.993 5.525-2.854l-2.671-2.671c-0.859 0.392-2.854 1.712-2.854 5.525" opacity=".2"/><path d="M21.704 3.811a1.62 1.62 0 0 0-1.519-1.519c-1.273-0.076-4.529 0.041-7.23 2.741l-0.481 0.487H6.568a1.608 1.608 0 0 0-1.15 0.474L1.945 9.469a1.62 1.62 0 0 0 0.918 2.751l3.895 0.543 4.476 4.476 0.544 3.898a1.62 1.62 0 0 0 1.092 1.308 1.68 1.68 0 0 0 0.516 0.084 1.608 1.608 0 0 0 1.144-0.474l3.475-3.473a1.608 1.608 0 0 0 0.474-1.151v-5.906l0.482-0.483c2.701-2.701 2.818-5.957 2.742-7.231zM6.569 7.14h4.286l-4.002 4.002-3.762-0.524z m7.533-0.956a7.764 7.764 0 0 1 5.985-2.276 7.74 7.74 0 0 1-2.271 5.991l-5.817 5.816-3.714-3.714z m2.758 11.247l-3.476 3.479-0.526-3.763 4.002-4.001z m-7.508 0.963c-0.456 0.998-1.98 3.328-6.262 3.327a0.81 0.81 0 0 1-0.81-0.81c0-4.282 2.329-5.806 3.328-6.263a0.81 0.81 0 0 1 0.672 1.475c-0.652 0.296-2.088 1.252-2.342 3.94 2.688-0.253 3.646-1.69 3.94-2.341a0.81 0.81 0 1 1 1.475 0.672z"/></svg>