<svg xmlns="http://www.w3.org/2000/svg" fill="currentColor" viewBox="0 0 24 24" width="24" height="24"><path d="M8.64 18.48l-2.982 2.252a0.81 0.81 0 0 1-1.297-0.457l-1.252-5.633a0.816 0.816 0 0 1 0.168-0.694l3.069-3.678c-0.118 2.363 0.46 5.116 2.293 8.21z m12.083-4.532l-3.069-3.678c0.122 2.363-0.46 5.116-2.293 8.21l2.982 2.252a0.81 0.81 0 0 0 1.297-0.457l1.252-5.633a0.816 0.816 0 0 0-0.168-0.694z" opacity=".2"/><path d="M14.43 21.72a0.81 0.81 0 0 1-0.81 0.81h-3.24a0.81 0.81 0 0 1 0-1.62h3.24a0.81 0.81 0 0 1 0.81 0.81M12 10.38a1.216 1.216 0 1 0-1.214-1.216A1.216 1.216 0 0 0 12 10.38m9.682 4.438l-1.252 5.632a1.62 1.62 0 0 1-2.582 0.923l-2.758-2.083H8.914l-2.76 2.083a1.62 1.62 0 0 1-2.583-0.923l-1.251-5.632a1.632 1.632 0 0 1 0.336-1.389l2.892-3.469a12.48 12.48 0 0 1 0.867-3.713c1.306-3.275 3.644-5.329 4.594-6.06a1.62 1.62 0 0 1 1.985 0c0.946 0.731 3.288 2.785 4.593 6.06a12.48 12.48 0 0 1 0.868 3.713l2.892 3.469a1.632 1.632 0 0 1 0.336 1.389zM9.107 17.67h5.785c2.138-3.8 2.538-7.44 1.189-10.822-1.19-2.984-3.425-4.872-4.081-5.378-0.659 0.506-2.893 2.394-4.084 5.378-1.348 3.382-0.948 7.021 1.191 10.822m-1.519 0.593q-1.636-2.971-1.985-5.842l-1.704 2.045 1.251 5.634 0.018-0.013z m12.511-3.796l-1.704-2.045q-0.347 2.863-1.98 5.842l2.414 1.823 0.018 0.013z"/></svg>