<svg width="24" height="24" viewBox="0 0 24 24" fill="none" xmlns="http://www.w3.org/2000/svg">
<path d="M17.25 17.0293C17.2499 17.2279 17.1707 17.419 17.0303 17.5596L13.8106 20.7793C13.712 20.8776 13.5877 20.9466 13.4522 20.9785C13.3167 21.0104 13.175 21.004 13.043 20.96C12.9112 20.9159 12.7942 20.8362 12.7051 20.7295C12.616 20.6227 12.5579 20.4931 12.5381 20.3555L12 16.5L17.25 11.25V17.0293ZM8.86527 17.6074C8.50246 18.4034 7.27973 20.25 3.75004 20.25C3.75004 16.7207 5.59556 15.4977 6.39164 15.1348L8.86527 17.6074ZM7.50101 12L3.64555 11.4619C3.50784 11.4422 3.37834 11.384 3.27152 11.2949C3.1648 11.2058 3.08512 11.0889 3.04105 10.957C2.997 10.8251 2.98971 10.6833 3.02152 10.5479C3.05339 10.4124 3.12246 10.288 3.22074 10.1895L6.44144 6.96973C6.5819 6.82943 6.77223 6.75019 6.97074 6.75H12.751L7.50101 12Z" fill="black" fill-opacity="0.2"/>
<path d="M7.49988 12L13.4164 6.0834C15.6683 3.83152 18.343 3.69277 19.5364 3.76308C19.7183 3.77478 19.8897 3.85232 20.0186 3.98121C20.1475 4.11009 20.2251 4.2815 20.2368 4.4634C20.3071 5.65683 20.1664 8.3334 17.9164 10.5834L11.9999 16.5M7.49988 12L11.9999 16.5M7.49988 12L3.64475 11.4619C3.50696 11.4422 3.37736 11.3845 3.27048 11.2953C3.1636 11.2061 3.08365 11.089 3.03957 10.9569C2.99549 10.8249 2.98903 10.6832 3.02091 10.5477C3.05278 10.4122 3.12174 10.2882 3.22007 10.1897L6.44038 6.96937C6.58092 6.82899 6.77142 6.75009 6.97007 6.75H12.7498M11.9999 16.5L12.538 20.355C12.5577 20.4928 12.6154 20.6224 12.7046 20.7293C12.7938 20.8362 12.9109 20.9161 13.043 20.9602C13.175 21.0043 13.3167 21.0107 13.4522 20.9788C13.5877 20.947 13.7117 20.878 13.8102 20.7797L17.0305 17.5594C17.1709 17.4188 17.2498 17.2283 17.2499 17.0297V11.25M8.86488 17.6079C8.50207 18.4038 7.27957 20.2498 3.74988 20.2498C3.74988 16.7201 5.59582 15.4976 6.39175 15.1348" stroke="black" stroke-width="1.5" stroke-linecap="round" stroke-linejoin="round"/>
</svg>
