<svg width="24" height="24" viewBox="0 0 24 24" fill="none" xmlns="http://www.w3.org/2000/svg">
<path d="M12 20.25C16.5563 20.25 20.25 16.5563 20.25 12C20.25 7.44365 16.5563 3.75 12 3.75C7.44365 3.75 3.75 7.44365 3.75 12C3.75 16.5563 7.44365 20.25 12 20.25Z" fill="black" fill-opacity="0.2"/>
<path d="M21.7499 5.24988V9.74988H17.2499M21.7499 9.74988L17.834 6.16581C16.6875 5.01925 15.2284 4.23599 13.6392 3.91391C12.05 3.59182 10.4012 3.74519 8.89863 4.35485C7.3961 4.9645 6.10655 6.00341 5.19109 7.34177C4.27563 8.68013 3.77486 10.2586 3.75136 11.8799C3.72785 13.5013 4.18265 15.0936 5.05893 16.4579C5.9352 17.8222 7.1941 18.8981 8.67833 19.5511C10.1625 20.204 11.8063 20.4051 13.4041 20.1292C15.002 19.8533 16.4831 19.1127 17.6625 17.9999" stroke="black" stroke-width="1.5" stroke-linecap="round" stroke-linejoin="round"/>
</svg>
