<svg width="24" height="24" viewBox="0 0 24 24" fill="none" xmlns="http://www.w3.org/2000/svg">
<rect x="3.75" y="3.75" width="16.5" height="16.5" rx="6" fill="black" fill-opacity="0.2"/>
<path d="M3.75 9.75C3.75 8.1587 4.38199 6.63243 5.50721 5.50721C6.63243 4.38199 8.1587 3.75 9.75 3.75M20.25 9.75C20.25 8.1587 19.618 6.63243 18.4928 5.50721C17.3676 4.38199 15.8413 3.75 14.25 3.75M20.25 14.25C20.25 15.8413 19.618 17.3676 18.4928 18.4928C17.3676 19.618 15.8413 20.25 14.25 20.25M3.75 14.25C3.75 15.8413 4.38199 17.3676 5.50721 18.4928C6.63243 19.618 8.1587 20.25 9.75 20.25M17.25 12C17.25 14.8995 14.8995 17.25 12 17.25C9.10051 17.25 6.75 14.8995 6.75 12C6.75 9.10051 9.10051 6.75 12 6.75C14.8995 6.75 17.25 9.10051 17.25 12Z" stroke="black" stroke-width="1.5" stroke-linecap="round" stroke-linejoin="round"/>
</svg>
