<svg width="24" height="24" viewBox="0 0 24 24" fill="none" xmlns="http://www.w3.org/2000/svg">
<path d="M3 6.08333C3 5.6231 3.3731 5.25 3.83333 5.25H20.1667C20.6269 5.25 21 5.6231 21 6.08333V9.75H3V6.08333Z" fill="black" fill-opacity="0.2"/>
<path d="M3 9.74662H9M3 9.74662V6.08333C3 5.6231 3.3731 5.25 3.83333 5.25H9M3 9.74662V17.9167C3 18.3769 3.3731 18.75 3.83333 18.75H20.1667C20.6269 18.75 21 18.3769 21 17.9167L20.999 9.74662M9 9.74662H15M9 9.74662V5.25M9 9.74662V9.75M15 9.74662H20.999M15 9.74662V5.25M15 9.74662V9.75M20.999 9.74662V6.08333C20.999 5.6231 20.6259 5.25 20.1656 5.25H15M15 5.25H9M12 16.1649V12M10.3341 14.499L12 16.1649L13.6661 14.499" stroke="black" stroke-width="1.5" stroke-linecap="round" stroke-linejoin="round"/>
</svg>
