<svg viewBox="0 0 24 24" fill="none" xmlns="http://www.w3.org/2000/svg" width="24" height="24">
<path d="M2.28 5.86C2.28 5.363 2.683 4.96 3.18 4.96H20.82C21.317 4.96 21.72 5.363 21.72 5.86V9.524H2.28V5.86Z" fill="black" fill-opacity="0.2"/>
<path d="M20.821 4.124C21.649 4.124 22.321 4.796 22.321 5.624V18.404C22.32 19.232 21.649 19.904 20.821 19.904H3.179C2.351 19.904 1.68 19.232 1.679 18.404V9.573H1.68V5.624C1.68 4.795 2.352 4.124 3.18 4.124H20.821ZM2.879 10.124V18.404C2.88 18.57 3.014 18.704 3.179 18.704H20.821C20.986 18.704 21.12 18.57 21.121 18.404V10.124H2.879ZM12 11.414C12.331 11.414 12.6 11.683 12.6 12.014V15.067L13.377 14.29C13.611 14.056 13.991 14.056 14.225 14.29 14.459 14.524 14.459 14.904 14.225 15.138L12.425 16.938C12.22 17.143 11.904 17.169 11.671 17.016L11.577 16.938 9.777 15.138C9.543 14.904 9.543 14.524 9.777 14.29 10.011 14.056 10.391 14.056 10.625 14.29L11.4 15.064V12.014C11.4 11.683 11.669 11.414 12 11.414ZM3.18 5.324C3.015 5.324 2.88 5.458 2.88 5.624V8.924H8.16V5.324H3.18ZM9.36 8.924H14.64V5.324H9.36V8.924ZM15.84 8.924H21.121V5.624C21.121 5.458 20.986 5.324 20.821 5.324H15.84V8.924Z" fill="black"/>
</svg>