<svg width="24" height="24" viewBox="0 0 24 24" fill="none" xmlns="http://www.w3.org/2000/svg">
<path d="M3 6.08333C3 5.6231 3.3731 5.25 3.83333 5.25H20.1667C20.6269 5.25 21 5.6231 21 6.08333V9.75H3V6.08333Z" fill="black" fill-opacity="0.2"/>
<path d="M12 12.0001V16.165M10.3341 13.666L12 12.0001L13.6661 13.666M13.875 18.75H10.125M6.5625 18.75H3.83333C3.3731 18.75 3 18.3769 3 17.9167V17.25M17.4375 18.75H20.1667C20.6269 18.75 21 18.3769 21 17.9167V17.25M3 14.25V12.75M21 12.75V14.25M9.00006 5.25012H3.83357C3.37923 5.25012 3.00982 5.61372 3.00043 6.0658L3.00024 6.08345M3.00043 6.0658V9.75009H9.00006M9.00006 5.25012H15.0001M9.00006 5.25012V9.75009M15.0001 5.25012H20.1667C20.627 5.25012 21.0001 5.62321 21.0001 6.08345V9.75009H15.0001M15.0001 5.25012V9.75009M9.00006 9.75009H15.0001" stroke="black" stroke-width="1.5" stroke-linecap="round" stroke-linejoin="round"/>
</svg>
