<svg xmlns="http://www.w3.org/2000/svg" width="24" height="24" fill="currentColor" viewBox="0 0 24 24"><path d="M20.91 14.43V18.48a0.81 0.81 0 0 1-0.81 0.81H3.9a0.81 0.81 0 0 1-0.81-0.81v-4.05a0.81 0.81 0 0 1 0.81-0.81h16.2a0.81 0.81 0 0 1 0.81 0.81m-0.81-9.72H3.9a0.81 0.81 0 0 0-0.81 0.81v4.05a0.81 0.81 0 0 0 0.81 0.81h16.2a0.81 0.81 0 0 0 0.81-0.81V5.52a0.81 0.81 0 0 0-0.81-0.81" opacity=".2"/><path d="M20.1 12.81H3.9a1.62 1.62 0 0 0-1.62 1.62V18.48a1.62 1.62 0 0 0 1.62 1.62h16.2a1.62 1.62 0 0 0 1.62-1.62v-4.05a1.62 1.62 0 0 0-1.62-1.62m0 5.67H3.9v-4.05h16.2z m0-14.58H3.9A1.62 1.62 0 0 0 2.28 5.52v4.05a1.62 1.62 0 0 0 1.62 1.62h16.2a1.62 1.62 0 0 0 1.62-1.62V5.52a1.62 1.62 0 0 0-1.62-1.62m0 5.67H3.9V5.52h16.2z"/></svg>