<svg width="24" height="24" viewBox="0 0 24 24" fill="none" xmlns="http://www.w3.org/2000/svg">
<path d="M5.25 18.75V3.75C7.21983 3.75 9.17037 4.13799 10.9903 4.89181C12.8101 5.64563 14.4637 6.75052 15.8566 8.1434C17.2495 9.53628 18.3544 11.1899 19.1082 13.0097C19.862 14.8296 20.25 16.7802 20.25 18.75H5.25Z" fill="black" fill-opacity="0.2"/>
<path d="M5.25 12.75C6.8413 12.75 8.36742 13.3821 9.49264 14.5074C10.6179 15.6326 11.25 17.1587 11.25 18.75M5.25 8.25C8.03477 8.25 10.7055 9.35625 12.6746 11.3254C14.6438 13.2945 15.75 15.9652 15.75 18.75M5.25 3.75C7.21983 3.75 9.17037 4.13799 10.9903 4.89181C12.8101 5.64563 14.4637 6.75052 15.8566 8.1434C17.2495 9.53628 18.3544 11.1899 19.1082 13.0097C19.862 14.8296 20.25 16.7802 20.25 18.75M5.625 18C5.8321 18 6 18.1679 6 18.375C6 18.5821 5.8321 18.75 5.625 18.75C5.41789 18.75 5.25 18.5821 5.25 18.375C5.25 18.1679 5.41789 18 5.625 18Z" stroke="black" stroke-width="1.5" stroke-linecap="round" stroke-linejoin="round"/>
</svg>
