<svg viewBox="0 0 24 24" fill="none" xmlns="http://www.w3.org/2000/svg" width="24" height="24">
<path fill-rule="evenodd" clip-rule="evenodd" d="M1.8 3.373V7.8 12.6L1.8 17.4 1.8 21.3C1.8 21.797 2.203 22.2 2.7 22.2L6.604 22.2H11.4 16.2L20.627 22.2C21.429 22.2 21.831 21.231 21.264 20.664L3.336 2.736C2.769 2.169 1.8 2.571 1.8 3.373ZM6.6 17.1V12.724C6.6 12.457 6.923 12.323 7.112 12.512L11.488 16.888C11.677 17.077 11.543 17.4 11.276 17.4H6.9C6.734 17.4 6.6 17.266 6.6 17.1Z" fill="black" fill-opacity="0.2"/>
<path d="M1.2 3.373C1.2 2.037 2.816 1.367 3.761 2.312L21.688 20.239C22.603 21.154 22.004 22.699 20.75 22.795L20.627 22.8H2.7C1.872 22.8 1.2 22.128 1.2 21.3V3.373ZM6 12.724C6 11.922 6.969 11.521 7.536 12.087L11.912 16.463C12.479 17.03 12.078 18 11.276 18H6.9C6.403 18 6 17.597 6 17.1V12.724ZM7.2 16.8H10.552L7.2 13.448V16.8ZM2.4 7.2H3.6C3.931 7.2 4.2 7.468 4.2 7.8 4.2 8.131 3.931 8.4 3.6 8.4H2.4V12H3.6C3.931 12 4.2 12.268 4.2 12.6 4.2 12.931 3.931 13.2 3.6 13.2H2.4V16.8H3.6C3.931 16.8 4.2 17.068 4.2 17.4 4.2 17.731 3.931 18 3.6 18H2.4V21.3C2.4 21.465 2.534 21.6 2.7 21.6H6.004V20.4C6.004 20.068 6.272 19.8 6.604 19.8 6.935 19.8 7.203 20.068 7.204 20.4V21.6H10.8V20.4C10.8 20.068 11.069 19.8 11.4 19.8 11.731 19.8 12 20.068 12 20.4V21.6H15.6V20.4C15.6 20.068 15.869 19.8 16.2 19.8 16.531 19.8 16.8 20.068 16.8 20.4V21.6H20.627L20.721 21.585C20.923 21.521 21.005 21.253 20.839 21.087L2.912 3.161C2.723 2.972 2.4 3.106 2.4 3.373V7.2Z" fill="black"/>
</svg>