<svg width="24" height="24" viewBox="0 0 24 24" fill="none" xmlns="http://www.w3.org/2000/svg">
<path fill-rule="evenodd" clip-rule="evenodd" d="M2.5867 3.981V8.08027V12.5247L2.58667 16.9692L2.5867 20.5803C2.5867 21.0405 2.9598 21.4136 3.42003 21.4136L7.03464 21.4136H11.4756H15.9201L20.0193 21.4136C20.7617 21.4136 21.1335 20.516 20.6086 19.991L4.00929 3.39174C3.48432 2.86677 2.5867 3.23858 2.5867 3.981ZM7.03114 16.6914V12.6398C7.03114 12.3923 7.33035 12.2684 7.50534 12.4434L11.5569 16.495C11.7319 16.67 11.608 16.9692 11.3605 16.9692H7.30892C7.15551 16.9692 7.03114 16.8448 7.03114 16.6914Z" fill="black" fill-opacity="0.2"/>
<path d="M20.0193 21.4136H3.42003M20.0193 21.4136C20.7617 21.4136 21.1335 20.516 20.6086 19.991L4.00929 3.39174C3.48432 2.86677 2.5867 3.23858 2.5867 3.981M11.4756 21.4136H15.9201L20.0193 21.4136M2.5867 20.5803V3.981M2.5867 20.5803C2.5867 21.0405 2.9598 21.4136 3.42003 21.4136M2.5867 12.5247L2.58667 16.9692L2.5867 20.5803M11.4756 21.4136H7.03464L3.42003 21.4136M2.5867 3.981V8.08027M15.9201 19.7469V21.4136M2.58667 16.9692H4.25334M11.4756 19.7469V21.4136M2.5867 12.5247H4.25337M2.5867 12.5247V8.08027M7.03464 19.7469V21.4136M2.5867 8.08027H4.25337M11.3605 16.9692H7.30892C7.15551 16.9692 7.03114 16.8448 7.03114 16.6914V12.6398C7.03114 12.3923 7.33035 12.2684 7.50534 12.4434L11.5569 16.495C11.7319 16.67 11.608 16.9692 11.3605 16.9692Z" stroke="black" stroke-width="1.5" stroke-linecap="round" stroke-linejoin="round"/>
</svg>
