<svg xmlns="http://www.w3.org/2000/svg" width="24" height="24" fill="currentColor" viewBox="0 0 24 24"><path d="M20.91 7.475V20.1a0.81 0.81 0 0 1-0.81 0.81h-3.24v-6.48a0.81 0.81 0 0 0-0.81-0.81h-8.1a0.81 0.81 0 0 0-0.81 0.81v6.48h-3.24a0.81 0.81 0 0 1-0.81-0.81V3.9a0.81 0.81 0 0 1 0.81-0.81h12.625a0.816 0.816 0 0 1 0.573 0.236l3.576 3.576a0.816 0.816 0 0 1 0.236 0.573" opacity=".2"/><path d="M21.245 6.33l-3.575-3.575a1.608 1.608 0 0 0-1.145-0.475H3.9A1.62 1.62 0 0 0 2.28 3.9v16.2a1.62 1.62 0 0 0 1.62 1.62h16.2a1.62 1.62 0 0 0 1.62-1.62V7.475a1.608 1.608 0 0 0-0.475-1.145M16.05 20.1h-8.1v-5.67h8.1z m4.05 0h-2.43v-5.67a1.62 1.62 0 0 0-1.62-1.62h-8.1a1.62 1.62 0 0 0-1.62 1.62v5.67H3.9V3.9h12.625l3.575 3.575zM15.24 6.33a0.81 0.81 0 0 1-0.81 0.81H8.76a0.81 0.81 0 0 1 0-1.62h5.67a0.81 0.81 0 0 1 0.81 0.81"/></svg>