<svg xmlns="http://www.w3.org/2000/svg" width="24" height="24" fill="currentColor" viewBox="0 0 24 24"><path d="M20.1 7.95H3.9a0.81 0.81 0 0 0-0.81 0.81v11.34a0.81 0.81 0 0 0 0.81 0.81h16.2a0.81 0.81 0 0 0 0.81-0.81V8.76a0.81 0.81 0 0 0-0.81-0.81M12 15.24a2.026 2.026 0 1 1 2.026-2.026A2.028 2.028 0 0 1 12 15.24" opacity=".2"/><path d="M20.1 7.14h-3.24V4.71a4.86 4.86 0 0 0-9.72 0V7.14h-3.24A1.62 1.62 0 0 0 2.28 8.76v11.34a1.62 1.62 0 0 0 1.62 1.62h16.2a1.62 1.62 0 0 0 1.62-1.62V8.76a1.62 1.62 0 0 0-1.62-1.62M8.76 4.71a3.24 3.24 0 0 1 6.48 0V7.14H8.76z m11.34 15.39H3.9V8.76h16.2zM12 10.38a2.836 2.836 0 0 0-0.81 5.551v1.739a0.81 0.81 0 0 0 1.62 0v-1.739A2.836 2.836 0 0 0 12 10.38m0 4.05a1.216 1.216 0 1 1 1.214-1.214A1.216 1.216 0 0 1 12 14.431z"/></svg>