<svg width="24" height="24" viewBox="0 0 24 24" fill="none" xmlns="http://www.w3.org/2000/svg">
<path d="M6 6L2.25 17.25H9.75L6 6Z" fill="black" fill-opacity="0.2"/>
<path d="M14.625 11.25C16.9032 11.25 18.75 9.40317 18.75 7.125C18.75 4.84683 16.9032 3 14.625 3C12.3468 3 10.5 4.84683 10.5 7.125C10.5 9.40317 12.3468 11.25 14.625 11.25Z" fill="black" fill-opacity="0.2"/>
<path d="M21 14.25H12.75V19.5H21V14.25Z" fill="black" fill-opacity="0.2"/>
<path d="M6 6L2.25 17.25H9.75L6 6Z" stroke="black" stroke-width="1.5" stroke-linecap="round" stroke-linejoin="round"/>
<path d="M14.625 11.25C16.9032 11.25 18.75 9.40317 18.75 7.125C18.75 4.84683 16.9032 3 14.625 3C12.3468 3 10.5 4.84683 10.5 7.125C10.5 9.40317 12.3468 11.25 14.625 11.25Z" stroke="black" stroke-width="1.5" stroke-linecap="round" stroke-linejoin="round"/>
<path d="M21 14.25H12.75V19.5H21V14.25Z" stroke="black" stroke-width="1.5" stroke-linecap="round" stroke-linejoin="round"/>
</svg>
