<svg xmlns="http://www.w3.org/2000/svg" width="24" height="24" fill="currentColor" viewBox="0 0 24 24"><path d="M5.52 5.52l4.05 12.15h-8.1z m13.77 1.216a4.456 4.456 0 1 0-4.456 4.454 4.456 4.456 0 0 0 4.456-4.454m-6.48 7.695v5.67H21.72v-5.67z" opacity=".2"/><path d="M21.72 13.62h-8.91a0.81 0.81 0 0 0-0.81 0.81v5.67a0.81 0.81 0 0 0 0.81 0.81H21.72a0.81 0.81 0 0 0 0.81-0.81v-5.67a0.81 0.81 0 0 0-0.81-0.81m-0.81 5.67H13.62V15.24h7.29zM6.288 5.264a0.81 0.81 0 0 0-1.537 0L0.701 17.414a0.81 0.81 0 0 0 0.768 1.066h8.1a0.81 0.81 0 0 0 0.768-1.066zM2.593 16.86l2.926-8.778 2.925 8.778z m17.506-10.126A5.266 5.266 0 1 0 14.834 12a5.272 5.272 0 0 0 5.265-5.266m-8.91 0a3.646 3.646 0 1 1 3.644 3.646 3.648 3.648 0 0 1-3.644-3.646"/></svg>