<svg xmlns="http://www.w3.org/2000/svg" width="24" height="24" fill="currentColor" viewBox="0 0 24 24"><path d="M20.1 19.29a3.24 3.24 0 1 1-3.24-3.24 3.24 3.24 0 0 1 3.24 3.24m-3.24-11.34a3.24 3.24 0 1 0-3.24-3.24 3.24 3.24 0 0 0 3.24 3.24" opacity=".2"/><path d="M16.86 15.24a4.044 4.044 0 0 0-2.898 1.224l-4.668-3a4.032 4.032 0 0 0 0-2.928l4.668-3a4.05 4.05 0 1 0-0.877-1.362l-4.668 3a4.05 4.05 0 1 0 0 5.652l4.668 3A4.05 4.05 0 1 0 16.86 15.24m0-12.96a2.43 2.43 0 1 1-2.43 2.43A2.43 2.43 0 0 1 16.86 2.28M5.52 14.43A2.43 2.43 0 1 1 7.95 12 2.43 2.43 0 0 1 5.52 14.43m11.34 7.29a2.43 2.43 0 1 1 2.43-2.43A2.43 2.43 0 0 1 16.86 21.72"/></svg>