<svg xmlns="http://www.w3.org/2000/svg" width="24" height="24" fill="currentColor" viewBox="0 0 24 24"><path d="M20.855 20.91H3.144c-1.278 0-2.08-1.338-1.459-2.42l8.855-15.377c0.638-1.114 2.28-1.114 2.918 0l8.855 15.377c0.62 1.084-0.181 2.42-1.459 2.42z" opacity=".2"/><path d="M23.016 18.084L14.161 2.707a2.508 2.508 0 0 0-4.323 0L0.983 18.084a2.376 2.376 0 0 0 0 2.401A2.46 2.46 0 0 0 3.144 21.72h17.708a2.46 2.46 0 0 0 2.16-1.235 2.376 2.376 0 0 0 0.003-2.401z m-1.404 1.591a0.864 0.864 0 0 1-0.757 0.425H3.146a0.864 0.864 0 0 1-0.757-0.425 0.768 0.768 0 0 1 0-0.781L11.244 3.517a0.886 0.886 0 0 1 1.519 0l8.855 15.377a0.768 0.768 0 0 1-0.004 0.781z"/></svg>