<svg xmlns="http://www.w3.org/2000/svg" fill="currentColor" viewBox="0 0 24 24" width="24" height="24"><path d="M21.72 4.71V7.14H2.28V4.71a0.81 0.81 0 0 1 0.81-0.81h17.82a0.81 0.81 0 0 1 0.81 0.81" opacity=".2"/><path d="M20.91 3.09H3.09a1.62 1.62 0 0 0-1.62 1.62v14.58a1.62 1.62 0 0 0 1.62 1.62h17.82a1.62 1.62 0 0 0 1.62-1.62V4.71a1.62 1.62 0 0 0-1.62-1.62m0 1.62v1.62H3.09v-1.62z m0 14.58H3.09v-11.34h17.82zM16.86 10.38a4.86 4.86 0 0 1-9.72 0 0.81 0.81 0 0 1 1.62 0 3.24 3.24 0 0 0 6.48 0 0.81 0.81 0 0 1 1.62 0"/></svg>