<svg width="24" height="24" viewBox="0 0 24 24" fill="none" xmlns="http://www.w3.org/2000/svg">
<path d="M7.31261 3C4.26198 3.00656 3.35261 12.1425 6.32448 13.365C8.62511 8.46187 10.4832 3.00469 7.31261 3Z" fill="black" fill-opacity="0.2"/>
<path d="M2.25 16.5H21.75M2.25 21C2.25 21 4.4356 17.3674 6.31948 13.366M6.31948 13.366C8.62914 8.4602 10.4853 3 7.30406 3C4.24962 3 3.34291 12.1455 6.31948 13.366ZM6.31948 13.366C7.53084 13.8627 9.38535 13.0468 12 9.76781C12 9.76781 12.7603 13.4653 14.5528 13.5C15.2766 13.5141 16.17 12.9084 17.25 11.25C17.25 11.25 17.25 13.5 21.75 13.5" stroke="black" stroke-width="1.5" stroke-linecap="round" stroke-linejoin="round"/>
</svg>
