<svg viewBox="0 0 24 24" fill="none" xmlns="http://www.w3.org/2000/svg" width="24" height="24">
<path d="M20.91 4.896C21.241 4.896 21.51 5.165 21.51 5.496 21.51 5.827 21.241 6.096 20.91 6.096H3.09C2.759 6.096 2.49 5.827 2.49 5.496 2.49 5.165 2.759 4.896 3.09 4.896H20.91Z" fill="black"/>
<path d="M20.91 17.904C21.241 17.904 21.51 18.173 21.51 18.504 21.51 18.835 21.241 19.104 20.91 19.104H3.09C2.759 19.104 2.49 18.835 2.49 18.504 2.49 18.173 2.759 17.904 3.09 17.904H20.91Z" fill="black"/>
<path d="M19.104 20.91C19.104 21.241 18.835 21.51 18.504 21.51 18.173 21.51 17.904 21.241 17.904 20.91L17.904 3.09C17.904 2.759 18.173 2.49 18.504 2.49 18.835 2.49 19.104 2.759 19.104 3.09L19.104 20.91Z" fill="black"/>
<path d="M6.096 20.91C6.096 21.241 5.827 21.51 5.496 21.51 5.165 21.51 4.896 21.241 4.896 20.91L4.896 3.09C4.896 2.759 5.165 2.49 5.496 2.49 5.827 2.49 6.096 2.759 6.096 3.09L6.096 20.91Z" fill="black"/>
<path d="M15.535 10.371V8.5H13.665C13.333 8.5 13.065 8.232 13.065 7.9 13.065 7.569 13.333 7.3 13.665 7.3H16.135C16.466 7.301 16.735 7.569 16.735 7.9V10.371C16.735 10.702 16.466 10.971 16.135 10.971 15.804 10.971 15.535 10.702 15.535 10.371Z" fill="black"/>
<path fill-rule="evenodd" clip-rule="evenodd" d="M16.559 7.476C16.325 7.242 15.945 7.242 15.711 7.476L12.829 10.358C12.779 10.408 12.74 10.464 12.711 10.525H13.176C13.342 10.525 13.476 10.659 13.476 10.825V11.339C13.549 11.31 13.618 11.266 13.677 11.206L16.559 8.325C16.793 8.09 16.793 7.711 16.559 7.476Z" fill="black"/>
<path d="M7.301 13.665C7.301 13.334 7.57 13.065 7.901 13.065 8.233 13.065 8.501 13.334 8.501 13.665V15.535H10.372C10.703 15.535 10.972 15.804 10.972 16.135 10.971 16.466 10.703 16.735 10.372 16.735H7.901C7.57 16.735 7.302 16.467 7.301 16.135V13.665Z" fill="black"/>
<path fill-rule="evenodd" clip-rule="evenodd" d="M10.524 12.711C10.464 12.74 10.408 12.779 10.359 12.828L7.477 15.71C7.243 15.944 7.243 16.324 7.477 16.558 7.711 16.793 8.091 16.793 8.326 16.558L11.207 13.677C11.266 13.617 11.311 13.549 11.34 13.476H10.824C10.658 13.476 10.524 13.341 10.524 13.176V12.711Z" fill="black"/>
<path d="M15.535 13.665C15.535 13.334 15.804 13.065 16.135 13.065 16.466 13.065 16.735 13.334 16.735 13.665V16.135C16.735 16.466 16.466 16.735 16.135 16.735H13.665C13.333 16.735 13.065 16.467 13.065 16.135 13.065 15.804 13.333 15.535 13.665 15.535H15.535V13.665Z" fill="black"/>
<path fill-rule="evenodd" clip-rule="evenodd" d="M12.696 13.476C12.725 13.549 12.77 13.617 12.829 13.677L15.711 16.558C15.945 16.793 16.325 16.793 16.559 16.558 16.793 16.324 16.793 15.944 16.559 15.71L13.677 12.828C13.618 12.769 13.549 12.724 13.476 12.695V13.176C13.476 13.341 13.342 13.476 13.176 13.476H12.696Z" fill="black"/>
<path d="M7.301 10.371V7.9C7.301 7.569 7.57 7.3 7.901 7.3H10.372C10.703 7.301 10.972 7.569 10.972 7.9 10.972 8.232 10.703 8.5 10.372 8.5H8.501V10.371C8.501 10.702 8.233 10.971 7.901 10.971 7.57 10.971 7.301 10.702 7.301 10.371Z" fill="black"/>
<path fill-rule="evenodd" clip-rule="evenodd" d="M8.326 7.476C8.091 7.242 7.711 7.242 7.477 7.476 7.243 7.711 7.243 8.09 7.477 8.325L10.359 11.206C10.408 11.256 10.464 11.295 10.524 11.324V10.825C10.524 10.659 10.658 10.525 10.824 10.525H11.325C11.296 10.464 11.257 10.408 11.207 10.358L8.326 7.476Z" fill="black"/>
<path fill-rule="evenodd" clip-rule="evenodd" d="M9.924 10.825C9.924 10.328 10.327 9.925 10.824 9.925H13.176C13.673 9.925 14.076 10.328 14.076 10.825V13.175C14.076 13.672 13.673 14.075 13.176 14.075H10.824C10.327 14.075 9.924 13.672 9.924 13.175V10.825ZM11.325 10.525H10.824C10.658 10.525 10.524 10.659 10.524 10.825V11.324 12.711 13.176C10.524 13.341 10.658 13.476 10.824 13.476H11.34 12.696 13.176C13.342 13.476 13.476 13.341 13.476 13.176V12.695 11.339 10.825C13.476 10.659 13.342 10.525 13.176 10.525H12.711 11.325Z" fill="#F5F5F5"/>
<path d="M13.476 10.825C13.476 10.659 13.342 10.525 13.176 10.525H12.711 11.325 10.824C10.658 10.525 10.524 10.659 10.524 10.825V11.324 12.711 13.176C10.524 13.341 10.658 13.476 10.824 13.476H11.34 12.696 13.176C13.342 13.476 13.476 13.341 13.476 13.176V12.695 11.339 10.825ZM14.676 13.176C14.676 14.004 14.004 14.676 13.176 14.676H10.824C9.996 14.676 9.324 14.004 9.324 13.176V10.825C9.324 9.996 9.996 9.325 10.824 9.325H13.176C14.004 9.325 14.676 9.996 14.676 10.825V13.176Z" fill="black"/>
<path fill-rule="evenodd" clip-rule="evenodd" d="M13.476 10.825V11.339 12.695 13.175C13.476 13.341 13.342 13.475 13.176 13.475H12.696 11.34 10.824C10.658 13.475 10.524 13.341 10.524 13.175V12.711 11.323 10.825C10.524 10.659 10.658 10.525 10.824 10.525H11.325 12.711 13.176C13.342 10.525 13.476 10.659 13.476 10.825Z" fill="black" fill-opacity="0.2"/>
</svg>