<svg xmlns="http://www.w3.org/2000/svg" fill="currentColor" viewBox="0 0 24 24" width="24" height="24"><path d="M12 7.14a2.43 2.43 0 1 1-2.43-2.43A2.43 2.43 0 0 1 12 7.14m4.05 7.29A2.43 2.43 0 1 0 18.48 16.86a2.43 2.43 0 0 0-2.43-2.43" opacity=".2"/><path d="M3.09 7.95h3.341a3.24 3.24 0 0 0 6.277 0h8.201a0.81 0.81 0 0 0 0-1.62H12.708a3.24 3.24 0 0 0-6.277 0H3.09a0.81 0.81 0 0 0 0 1.62m6.48-2.43a1.62 1.62 0 1 1-1.62 1.62 1.62 1.62 0 0 1 1.62-1.62m11.34 10.53h-1.721a3.24 3.24 0 0 0-6.277 0H3.091a0.81 0.81 0 0 0 0 1.62h9.821a3.24 3.24 0 0 0 6.277 0h1.721a0.81 0.81 0 0 0 0-1.62m-4.86 2.43a1.62 1.62 0 1 1 1.62-1.62 1.62 1.62 0 0 1-1.62 1.62"/></svg>