<svg width="24" height="24" viewBox="0 0 24 24" fill="none" xmlns="http://www.w3.org/2000/svg">
<path d="M5.25 15C6.49264 15 7.5 13.9926 7.5 12.75C7.5 11.5074 6.49264 10.5 5.25 10.5C4.00736 10.5 3 11.5074 3 12.75C3 13.9926 4.00736 15 5.25 15Z" fill="black" fill-opacity="0.2"/>
<path d="M12 10.5C13.2426 10.5 14.25 9.49264 14.25 8.25C14.25 7.00736 13.2426 6 12 6C10.7574 6 9.75 7.00736 9.75 8.25C9.75 9.49264 10.7574 10.5 12 10.5Z" fill="black" fill-opacity="0.2"/>
<path d="M18.75 18C19.9926 18 21 16.9926 21 15.75C21 14.5074 19.9926 13.5 18.75 13.5C17.5074 13.5 16.5 14.5074 16.5 15.75C16.5 16.9926 17.5074 18 18.75 18Z" fill="black" fill-opacity="0.2"/>
<path d="M5.25 15C6.49264 15 7.5 13.9926 7.5 12.75C7.5 11.5074 6.49264 10.5 5.25 10.5M5.25 15C4.00736 15 3 13.9926 3 12.75C3 11.5074 4.00736 10.5 5.25 10.5M5.25 15V20.25M5.25 10.5V3.75M12 10.5C13.2426 10.5 14.25 9.49264 14.25 8.25C14.25 7.00736 13.2426 6 12 6M12 10.5C10.7574 10.5 9.75 9.49264 9.75 8.25C9.75 7.00736 10.7574 6 12 6M12 10.5V20.25M12 6V3.75M18.75 18C19.9926 18 21 16.9926 21 15.75C21 14.5074 19.9926 13.5 18.75 13.5M18.75 18C17.5074 18 16.5 16.9926 16.5 15.75C16.5 14.5074 17.5074 13.5 18.75 13.5M18.75 18V20.25M18.75 13.5V3.75" stroke="black" stroke-width="1.5" stroke-linecap="round" stroke-linejoin="round"/>
</svg>
