<svg width="24" height="24" viewBox="0 0 24 24" fill="none" xmlns="http://www.w3.org/2000/svg">
<path d="M16.036 5.2277L16.3153 5.29898L18.4247 5.84195C18.6136 5.8907 18.7459 6.06094 18.746 6.25602V18.5841C18.7459 18.767 18.629 18.9279 18.4589 18.9875L15.9784 19.6164C15.7428 19.6251 15.5351 19.4354 15.5351 19.1877V5.64859C15.5353 5.38075 15.7776 5.18223 16.036 5.2277Z" fill="black" fill-opacity="0.2"/>
<path d="M4.16593 8.78141C4.21508 8.73216 4.29329 8.72745 4.34854 8.76969L14.0351 16.2316V18.8566L4.16593 8.9777C4.11199 8.92359 4.11203 8.83556 4.16593 8.78141Z" fill="black" fill-opacity="0.2"/>
<path d="M7.09268 14.0295L4.42374 16.1115C4.34979 16.1692 4.24371 16.1624 4.17862 16.0949C4.10985 16.0232 4.1116 15.9096 4.18155 15.839L6.53702 13.4728L7.09268 14.0295Z" fill="black" fill-opacity="0.2"/>
<path d="M14.0351 8.61148L10.3427 11.4933L9.3046 10.6945L14.0351 5.94352V8.61148Z" fill="black" fill-opacity="0.2"/>
<path d="M16.1993 4.48446C16.2183 4.48838 16.2372 4.49278 16.2562 4.49767L18.6112 5.10476C19.1315 5.23887 19.495 5.70805 19.495 6.24532V18.5732C19.495 18.9444 19.3216 19.283 19.0428 19.5011C18.9176 19.5991 18.7712 19.6728 18.6097 19.7142L16.2546 20.3179C15.5095 20.5089 14.7843 19.9461 14.7843 19.1769V5.63823C14.7843 4.88797 15.4742 4.33426 16.1993 4.48446ZM16.1993 4.48446L15.435 4.28734C15.0305 4.18303 14.601 4.30077 14.3062 4.59677L8.60912 10.318M16.1993 4.48446L16.5018 4.56246M8.1345 14.1565L4.88451 16.6929C4.50784 16.9869 3.96996 16.9488 3.63841 16.6048C3.28597 16.2391 3.29073 15.6587 3.64911 15.2988L6.46501 12.4709M3.95563 8.03184L3.90539 8.0436C3.37274 8.16833 2.99609 8.64339 2.99609 9.19044L2.99617 15.7193C2.99618 16.3681 3.52217 16.8941 4.17101 16.8941M18.8346 19.6545L15.4518 20.5119C15.0492 20.6139 14.6227 20.4964 14.3291 20.2025L3.63477 9.49687C3.28854 9.15028 3.28808 8.58887 3.63373 8.24171C3.9494 7.92467 4.45153 7.89171 4.80594 8.16476L14.7843 15.8527M14.7843 8.96712L10.7334 12.1286" stroke="black" stroke-width="1.5" stroke-linecap="round" stroke-linejoin="round"/>
</svg>
