<svg width="24" height="24" viewBox="0 0 24 24" fill="none" xmlns="http://www.w3.org/2000/svg">
<path d="M11.7335 20.8353L7.68266 14.0255C7.25478 13.3074 7.72892 12.359 8.51531 12.359H15.5069C16.2933 12.359 16.7658 13.3074 16.3395 14.0255L12.2886 20.8353C12.1581 21.0549 11.8641 21.0549 11.7335 20.8353ZM11.7121 3.16467L7.66119 9.9763C7.2333 10.6944 7.70745 11.6428 8.49383 11.6428H15.4854C16.2718 11.6428 16.7443 10.6944 16.318 9.9763L12.2672 3.16467C12.1366 2.94511 11.8426 2.94511 11.7121 3.16467Z" stroke="black" stroke-width="1.5" stroke-miterlimit="10"/>
<path d="M11.7335 20.8353L7.68266 14.0255C7.25478 13.3074 7.72892 12.359 8.51531 12.359H15.5069C16.2933 12.359 16.7658 13.3074 16.3395 14.0255L12.2886 20.8353C12.1581 21.0549 11.8641 21.0549 11.7335 20.8353ZM11.7121 3.16467L7.66119 9.9763C7.2333 10.6944 7.70745 11.6428 8.49383 11.6428H15.4854C16.2718 11.6428 16.7443 10.6944 16.318 9.9763L12.2672 3.16467C12.1366 2.94511 11.8426 2.94511 11.7121 3.16467Z" fill="black" fill-opacity="0.2"/>
</svg>
