<svg width="24" height="24" viewBox="0 0 24 24" fill="none" xmlns="http://www.w3.org/2000/svg">
<path d="M7.90032 16.0999L2.73563 14.1968C2.59322 14.1442 2.47035 14.0493 2.38356 13.9248C2.29677 13.8002 2.25024 13.6521 2.25024 13.5003C2.25024 13.3484 2.29677 13.2003 2.38356 13.0758C2.47035 12.9512 2.59322 12.8563 2.73563 12.8037L7.90032 10.9006L9.80344 5.73588C9.85601 5.59347 9.95096 5.47059 10.0755 5.3838C10.2001 5.29702 10.3482 5.25049 10.5 5.25049C10.6518 5.25049 10.8 5.29702 10.9245 5.3838C11.0491 5.47059 11.144 5.59347 11.1966 5.73588L13.0997 10.9006L18.2644 12.8037C18.4068 12.8563 18.5297 12.9512 18.6165 13.0758C18.7032 13.2003 18.7498 13.3484 18.7498 13.5003C18.7498 13.6521 18.7032 13.8002 18.6165 13.9248C18.5297 14.0493 18.4068 14.1442 18.2644 14.1968L13.0997 16.0999L11.1966 21.2646C11.144 21.407 11.0491 21.5299 10.9245 21.6167C10.8 21.7035 10.6518 21.75 10.5 21.75C10.3482 21.75 10.2001 21.7035 10.0755 21.6167C9.95096 21.5299 9.85601 21.407 9.80344 21.2646L7.90032 16.0999Z" fill="black" fill-opacity="0.2"/>
<path d="M16.4996 1.5V6M20.9996 6.75V9.75M14.2496 3.75H18.7496M19.4996 8.25H22.4996M7.89983 16.0998L2.73514 14.1967C2.59273 14.1441 2.46986 14.0492 2.38307 13.9246C2.29628 13.8001 2.24976 13.6519 2.24976 13.5001C2.24976 13.3483 2.29628 13.2002 2.38307 13.0756C2.46986 12.9511 2.59273 12.8561 2.73514 12.8036L7.89983 10.9004L9.80296 5.73575C9.85552 5.59334 9.95047 5.47047 10.075 5.38368C10.1996 5.29689 10.3477 5.25037 10.4995 5.25037C10.6513 5.25037 10.7995 5.29689 10.924 5.38368C11.0486 5.47047 11.1435 5.59334 11.1961 5.73575L13.0992 10.9004L18.2639 12.8036C18.4063 12.8561 18.5292 12.9511 18.616 13.0756C18.7028 13.2002 18.7493 13.3483 18.7493 13.5001C18.7493 13.6519 18.7028 13.8001 18.616 13.9246C18.5292 14.0492 18.4063 14.1441 18.2639 14.1967L13.0992 16.0998L11.1961 21.2645C11.1435 21.4069 11.0486 21.5298 10.924 21.6166C10.7995 21.7034 10.6513 21.7499 10.4995 21.7499C10.3477 21.7499 10.1996 21.7034 10.075 21.6166C9.95047 21.5298 9.85552 21.4069 9.80296 21.2645L7.89983 16.0998Z" stroke="black" stroke-width="1.5" stroke-linecap="round" stroke-linejoin="round"/>
</svg>
