<svg xmlns="http://www.w3.org/2000/svg" width="24" height="24" fill="currentColor" viewBox="0 0 24 24"><path d="M18.766 14.372L13.188 16.428l-2.056 5.578a0.802 0.802 0 0 1-1.504 0L7.572 16.428l-5.578-2.056a0.802 0.802 0 0 1 0-1.504L7.572 10.812l2.056-5.578a0.802 0.802 0 0 1 1.504 0l2.056 5.578 5.578 2.056a0.802 0.802 0 0 1 0 1.504" opacity=".2"/><path d="M19.045 12.107l-5.222-1.93-1.924-5.226a1.612 1.612 0 0 0-3.025 0l-1.936 5.226-5.226 1.924a1.612 1.612 0 0 0 0 3.025l5.226 1.936 1.924 5.226a1.612 1.612 0 0 0 3.025 0l1.936-5.226 5.226-1.924a1.612 1.612 0 0 0 0-3.025z m-6.133 3.56a0.816 0.816 0 0 0-0.48 0.48l-2.051 5.557-2.047-5.553a0.816 0.816 0 0 0-0.484-0.484L2.297 13.62l5.553-2.047a0.816 0.816 0 0 0 0.484-0.484l2.047-5.553 2.047 5.553a0.816 0.816 0 0 0 0.48 0.48l5.558 2.051z m0.709-12.577a0.81 0.81 0 0 1 0.81-0.81h1.62V0.66a0.81 0.81 0 0 1 1.62 0V2.28h1.62a0.81 0.81 0 0 1 0 1.62h-1.62V5.52a0.81 0.81 0 0 1-1.62 0V3.9h-1.62a0.81 0.81 0 0 1-0.81-0.81m10.53 4.86a0.81 0.81 0 0 1-0.81 0.81h-0.81v0.81a0.81 0.81 0 0 1-1.62 0V8.76h-0.81a0.81 0.81 0 0 1 0-1.62h0.81v-0.81a0.81 0.81 0 0 1 1.62 0v0.81h0.81a0.81 0.81 0 0 1 0.81 0.81"/></svg>