<svg width="24" height="24" viewBox="0 0 24 24" fill="none" xmlns="http://www.w3.org/2000/svg">
<path d="M2.80205 17.4922C2.42718 16.4263 2.24034 15.3034 2.24986 14.1735C2.29111 8.81191 6.72455 4.4516 12.0936 4.49941C13.6448 4.51566 15.1697 4.90147 16.542 5.62486C17.9142 6.34824 19.0943 7.38835 19.9842 8.65894C20.8742 9.92952 21.4484 11.394 21.6593 12.9308C21.8701 14.4677 21.7116 16.0326 21.1967 17.496C21.1455 17.6433 21.0496 17.7709 20.9224 17.8611C20.7952 17.9514 20.643 17.9997 20.487 17.9994H3.51173C3.35549 17.9987 3.20331 17.9496 3.07619 17.8587C2.94907 17.7679 2.85328 17.6398 2.80205 17.4922Z" fill="black" fill-opacity="0.2"/>
<path d="M11.2494 14.9998L20.2494 5.99976M5.29064 14.9997C5.26317 14.7506 5.2494 14.5002 5.24939 14.2497C5.2503 13.1784 5.50594 12.1228 5.99522 11.1698C6.4845 10.2168 7.19338 9.39388 8.06338 8.76886C8.93337 8.14383 9.93953 7.73466 10.9988 7.57511C12.0581 7.41556 13.1401 7.5102 14.1556 7.85122M20.6825 9.80941C21.2839 10.9893 21.6395 12.2791 21.7278 13.6005C21.8161 14.9219 21.6353 16.2474 21.1963 17.4969C21.145 17.6442 21.0491 17.7718 20.9219 17.8621C20.7947 17.9523 20.6425 18.0006 20.4866 18.0003H3.51125C3.35501 17.9997 3.20283 17.9505 3.07571 17.8597C2.94859 17.7688 2.8528 17.6408 2.80156 17.4932C2.42659 16.4269 2.23975 15.3037 2.24938 14.1735C2.29063 8.81191 6.72406 4.4516 12.0931 4.49941C13.6064 4.51156 15.0959 4.87688 16.4431 5.56629" stroke="black" stroke-width="1.5" stroke-linecap="round" stroke-linejoin="round"/>
</svg>
