<svg width="24" height="24" viewBox="0 0 24 24" fill="none" xmlns="http://www.w3.org/2000/svg">
<rect x="3.80005" y="5" width="15.9548" height="13.9038" rx="0.75" fill="black" fill-opacity="0.2"/>
<path d="M19.755 8.56C19.4748 8.93359 19.0842 9.20955 18.6384 9.34879C18.1927 9.48803 17.7144 9.48349 17.2714 9.33582C16.8284 9.18815 16.443 8.90482 16.17 8.52598C15.8969 8.14714 15.75 7.69199 15.75 7.225C15.75 6.75801 15.8969 6.30286 16.17 5.92402C16.443 5.54518 16.8284 5.26185 17.2714 5.11418C17.7144 4.9665 18.1927 4.96197 18.6384 5.10121C19.0842 5.24045 19.4748 5.51641 19.755 5.89M6.81827 15.5425L9.67523 18.946L17.4546 12.4158M7.98828 9.47249L5.89417 5.02249L3.80005 9.47249M7.37218 8.16266H4.41555M10.2 7.08594H12.2164M10.2 7.08594V9.45H12.3554C12.6689 9.45 12.9696 9.32546 13.1912 9.10379C13.4129 8.88212 13.5375 8.58146 13.5375 8.26797C13.5375 7.95447 13.4129 7.65382 13.1912 7.43215C12.9696 7.21047 12.6689 7.08594 12.3554 7.08594H12.2164M10.2 7.08594V5H12.2164C12.493 5 12.7583 5.10988 12.9538 5.30548C13.1494 5.50107 13.2593 5.76636 13.2593 6.04297C13.2593 6.31958 13.1494 6.58486 12.9538 6.78046C12.7583 6.97605 12.493 7.08594 12.2164 7.08594" stroke="black" stroke-width="1.5" stroke-linecap="round" stroke-linejoin="round"/>
</svg>
