<svg viewBox="0 0 24 24" fill="none" xmlns="http://www.w3.org/2000/svg" width="24" height="24">
<path d="M2.4 4.5C2.4 4.003 2.803 3.6 3.3 3.6H20.7C21.197 3.6 21.6 4.003 21.6 4.5V21.9C21.6 22.397 21.197 22.8 20.7 22.8H3.3C2.803 22.8 2.4 22.397 2.4 21.9V4.5Z" fill="black" fill-opacity="0.2"/>
<path d="M21.241 11.986C20.473 11.986 19.801 11.837 19.225 11.539 18.658 11.232 18.222 10.8 17.914 10.243 17.607 9.687 17.454 9.029 17.454 8.271 17.454 7.704 17.54 7.195 17.713 6.744 17.886 6.293 18.135 5.909 18.462 5.592 18.798 5.275 19.201 5.035 19.671 4.872 20.142 4.699 20.665 4.613 21.241 4.613 21.538 4.613 21.855 4.651 22.191 4.728 22.527 4.795 22.858 4.915 23.185 5.088 23.377 5.175 23.506 5.299 23.574 5.463 23.65 5.616 23.679 5.779 23.66 5.952 23.641 6.115 23.578 6.264 23.473 6.399 23.377 6.523 23.252 6.61 23.098 6.658 22.945 6.696 22.772 6.667 22.58 6.571 22.398 6.466 22.206 6.389 22.004 6.341 21.812 6.293 21.63 6.269 21.457 6.269 21.169 6.269 20.914 6.317 20.694 6.413 20.473 6.499 20.286 6.629 20.132 6.802 19.988 6.965 19.873 7.171 19.786 7.421 19.71 7.671 19.671 7.959 19.671 8.285 19.671 8.919 19.825 9.418 20.132 9.783 20.449 10.138 20.89 10.315 21.457 10.315 21.63 10.315 21.812 10.296 22.004 10.258 22.196 10.21 22.388 10.133 22.58 10.027 22.772 9.931 22.945 9.907 23.098 9.955 23.252 10.003 23.372 10.095 23.458 10.229 23.554 10.354 23.607 10.503 23.617 10.675 23.636 10.839 23.607 11.002 23.53 11.165 23.463 11.319 23.338 11.439 23.156 11.525 22.83 11.688 22.503 11.803 22.177 11.871 21.85 11.947 21.538 11.986 21.241 11.986Z" fill="black"/>
<path d="M13.373 11.986C12.807 11.986 12.303 11.847 11.861 11.568 11.429 11.28 11.141 10.901 10.997 10.431L11.156 9.955V10.848C11.156 11.203 11.064 11.477 10.882 11.669 10.7 11.861 10.436 11.957 10.09 11.957 9.744 11.957 9.476 11.861 9.284 11.669 9.101 11.477 9.01 11.203 9.01 10.848V2.655C9.01 2.29 9.101 2.016 9.284 1.834 9.476 1.642 9.749 1.546 10.104 1.546 10.45 1.546 10.714 1.642 10.896 1.834 11.088 2.016 11.184 2.29 11.184 2.655V6.067H11.012C11.165 5.635 11.458 5.285 11.89 5.016 12.322 4.747 12.816 4.613 13.373 4.613 13.997 4.613 14.54 4.762 15 5.059 15.461 5.357 15.821 5.779 16.08 6.327 16.34 6.874 16.469 7.527 16.469 8.285 16.469 9.043 16.34 9.701 16.08 10.258 15.821 10.815 15.456 11.242 14.986 11.539 14.525 11.837 13.988 11.986 13.373 11.986ZM12.725 10.359C13.032 10.359 13.301 10.282 13.532 10.128 13.772 9.975 13.954 9.749 14.079 9.451 14.213 9.144 14.28 8.755 14.28 8.285 14.28 7.584 14.136 7.071 13.848 6.744 13.56 6.408 13.186 6.24 12.725 6.24 12.418 6.24 12.144 6.312 11.904 6.456 11.674 6.6 11.492 6.826 11.357 7.133 11.223 7.431 11.156 7.815 11.156 8.285 11.156 8.986 11.3 9.509 11.588 9.855 11.876 10.191 12.255 10.359 12.725 10.359Z" fill="black"/>
<path d="M3.385 11.986C2.866 11.986 2.401 11.885 1.988 11.683 1.575 11.482 1.254 11.208 1.023 10.863 0.793 10.517 0.678 10.128 0.678 9.696 0.678 9.178 0.812 8.77 1.081 8.472 1.35 8.165 1.786 7.949 2.391 7.824 2.996 7.69 3.798 7.623 4.796 7.623H5.559V8.746H4.81C4.321 8.746 3.922 8.775 3.615 8.832 3.318 8.88 3.102 8.967 2.967 9.091 2.842 9.216 2.78 9.389 2.78 9.61 2.78 9.879 2.871 10.099 3.054 10.272 3.246 10.445 3.519 10.531 3.874 10.531 4.153 10.531 4.398 10.469 4.609 10.344 4.83 10.21 5.002 10.032 5.127 9.811 5.252 9.581 5.314 9.322 5.314 9.034V7.378C5.314 6.955 5.218 6.658 5.026 6.485 4.834 6.303 4.508 6.211 4.047 6.211 3.788 6.211 3.505 6.245 3.198 6.312 2.9 6.37 2.569 6.471 2.204 6.615 1.993 6.711 1.806 6.735 1.642 6.687 1.479 6.629 1.354 6.533 1.268 6.399 1.182 6.255 1.138 6.101 1.138 5.938 1.138 5.765 1.186 5.602 1.282 5.448 1.378 5.285 1.537 5.165 1.758 5.088 2.209 4.906 2.631 4.781 3.025 4.714 3.428 4.647 3.798 4.613 4.134 4.613 4.873 4.613 5.478 4.723 5.948 4.944 6.428 5.155 6.788 5.487 7.028 5.938 7.268 6.379 7.388 6.951 7.388 7.651V10.848C7.388 11.203 7.302 11.477 7.129 11.669 6.956 11.861 6.706 11.957 6.38 11.957 6.054 11.957 5.799 11.861 5.617 11.669 5.444 11.477 5.358 11.203 5.358 10.848V10.315L5.458 10.402C5.401 10.728 5.276 11.011 5.084 11.251 4.902 11.482 4.666 11.664 4.378 11.799 4.09 11.923 3.759 11.986 3.385 11.986Z" fill="black"/>
<path d="M17.996 13.132C18.357 12.829 18.897 12.876 19.201 13.237 19.504 13.599 19.457 14.139 19.095 14.442L9.759 22.278C9.586 22.424 9.362 22.495 9.136 22.475 8.911 22.455 8.702 22.346 8.556 22.173L5.127 18.089C4.823 17.728 4.87 17.188 5.232 16.884 5.594 16.581 6.133 16.628 6.437 16.99L9.315 20.418 17.996 13.132Z" fill="black"/>
</svg>