<svg width="24" height="24" viewBox="0 0 24 24" fill="none" xmlns="http://www.w3.org/2000/svg">
<path d="M18.75 4.5H5.25C4.83579 4.5 4.5 4.83579 4.5 5.25V18.75C4.5 19.1642 4.83579 19.5 5.25 19.5H18.75C19.1642 19.5 19.5 19.1642 19.5 18.75V5.25C19.5 4.83579 19.1642 4.5 18.75 4.5Z" fill="black" fill-opacity="0.2"/>
<path d="M4.5 12H19.5M5.25 4.5H18.75C19.1642 4.5 19.5 4.83579 19.5 5.25V18.75C19.5 19.1642 19.1642 19.5 18.75 19.5H5.25C4.83579 19.5 4.5 19.1642 4.5 18.75V5.25C4.5 4.83579 4.83579 4.5 5.25 4.5Z" stroke="black" stroke-width="1.5" stroke-linecap="round" stroke-linejoin="round"/>
</svg>
