<svg width="24" height="24" viewBox="0 0 24 24" fill="none" xmlns="http://www.w3.org/2000/svg">
<path d="M10.7175 12.75L9.05059 4.96875C8.98077 4.64095 8.98506 4.30169 9.06315 3.97576C9.14123 3.64983 9.29115 3.34546 9.50194 3.08489C9.71273 2.82433 9.97907 2.61414 10.2815 2.46969C10.5839 2.32525 10.9148 2.25019 11.25 2.25H12.75C13.0852 2.25005 13.4162 2.325 13.7187 2.46939C14.0213 2.61378 14.2877 2.82394 14.4986 3.08453C14.7095 3.34512 14.8595 3.64953 14.9377 3.97553C15.0158 4.30153 15.0201 4.64087 14.9503 4.96875L13.2834 12.75H10.7175Z" fill="black" fill-opacity="0.2"/>
<path d="M3.75 21H20.25M10.7175 12.75L9.05065 4.96875C8.98083 4.64095 8.98512 4.30169 9.06321 3.97576C9.1413 3.64983 9.29121 3.34546 9.502 3.08489C9.71279 2.82433 9.97913 2.61414 10.2816 2.46969C10.584 2.32525 10.9149 2.25019 11.25 2.25H12.75C13.0853 2.25005 13.4162 2.325 13.7188 2.46939C14.0213 2.61378 14.2878 2.82394 14.4987 3.08453C14.7096 3.34512 14.8596 3.64953 14.9377 3.97553C15.0159 4.30153 15.0202 4.64087 14.9503 4.96875L13.2835 12.75M4.5 12.75H19.5C19.9142 12.75 20.25 13.0858 20.25 13.5V17.25C20.25 17.6642 19.9142 18 19.5 18H4.5C4.08579 18 3.75 17.6642 3.75 17.25V13.5C3.75 13.0858 4.08579 12.75 4.5 12.75Z" stroke="black" stroke-width="1.5" stroke-linecap="round" stroke-linejoin="round"/>
</svg>
