<svg width="24" height="24" viewBox="0 0 24 24" fill="none" xmlns="http://www.w3.org/2000/svg">
<path d="M12 17.7272L17.13 20.8819C17.2631 20.9627 17.4172 21.0023 17.5728 20.9955C17.7283 20.9888 17.8784 20.9361 18.004 20.8441C18.1296 20.7521 18.2252 20.6249 18.2785 20.4786C18.3319 20.3323 18.3407 20.1735 18.3038 20.0222L16.9088 14.1357L21.4744 10.1982C21.5908 10.096 21.6748 9.9619 21.7158 9.81254C21.7569 9.66317 21.7534 9.50504 21.7056 9.35768C21.6578 9.21031 21.568 9.08015 21.4471 8.98328C21.3262 8.88641 21.1796 8.82706 21.0254 8.81255L15.0338 8.32505L12.7257 2.73755C12.6668 2.5934 12.5664 2.47004 12.4371 2.38321C12.3079 2.29637 12.1557 2.25 12 2.25C11.8443 2.25 11.6922 2.29637 11.5629 2.38321C11.4337 2.47004 11.3333 2.5934 11.2744 2.73755L8.96629 8.32505L2.97473 8.81255C2.81945 8.82619 2.67163 8.88528 2.54973 8.98244C2.42784 9.0796 2.33728 9.21053 2.28937 9.35887C2.24146 9.5072 2.23832 9.66636 2.28035 9.81647C2.32237 9.96658 2.4077 10.101 2.52567 10.2029L7.09129 14.1404L5.69629 20.0222C5.65941 20.1735 5.66821 20.3323 5.72156 20.4786C5.77492 20.6249 5.87044 20.7521 5.99606 20.8441C6.12168 20.9361 6.27175 20.9888 6.42731 20.9955C6.58287 21.0023 6.73694 20.9627 6.87004 20.8819L12 17.7272Z" fill="black" fill-opacity="0.2"/>
<path d="M12 17.7272L17.13 20.8819C17.2631 20.9627 17.4172 21.0023 17.5728 20.9955C17.7283 20.9888 17.8784 20.9361 18.004 20.8441C18.1296 20.7521 18.2252 20.6249 18.2785 20.4786C18.3319 20.3323 18.3407 20.1735 18.3038 20.0222L16.9088 14.1357L21.4744 10.1982C21.5908 10.096 21.6748 9.9619 21.7158 9.81254C21.7569 9.66317 21.7534 9.50504 21.7056 9.35768C21.6578 9.21031 21.568 9.08015 21.4471 8.98328C21.3262 8.88641 21.1796 8.82706 21.0254 8.81255L15.0338 8.32505L12.7257 2.73755C12.6668 2.5934 12.5664 2.47004 12.4371 2.38321C12.3079 2.29637 12.1557 2.25 12 2.25C11.8443 2.25 11.6922 2.29637 11.5629 2.38321C11.4337 2.47004 11.3333 2.5934 11.2744 2.73755L8.96629 8.32505L2.97473 8.81255C2.81945 8.82619 2.67163 8.88528 2.54973 8.98244C2.42784 9.0796 2.33728 9.21053 2.28937 9.35887C2.24146 9.5072 2.23832 9.66636 2.28035 9.81647C2.32237 9.96658 2.4077 10.101 2.52567 10.2029L7.09129 14.1404L5.69629 20.0222C5.65941 20.1735 5.66821 20.3323 5.72156 20.4786C5.77492 20.6249 5.87044 20.7521 5.99606 20.8441C6.12168 20.9361 6.27175 20.9888 6.42731 20.9955C6.58287 21.0023 6.73694 20.9627 6.87004 20.8819L12 17.7272Z" stroke="black" stroke-width="1.5" stroke-linecap="round" stroke-linejoin="round"/>
</svg>
