<svg xmlns="http://www.w3.org/2000/svg" width="24" height="24" fill="currentColor" viewBox="0 0 24 24"><path d="M20.91 15.24L15.24 20.91V15.24z" opacity=".2"/><path d="M7.95 8.76a0.81 0.81 0 0 1 0.81-0.81h6.48a0.81 0.81 0 0 1 0 1.62H8.76a0.81 0.81 0 0 1-0.81-0.81m0.81 4.05h6.48a0.81 0.81 0 0 0 0-1.62H8.76a0.81 0.81 0 0 0 0 1.62m3.24 1.62H8.76a0.81 0.81 0 0 0 0 1.62H12a0.81 0.81 0 0 0 0-1.62m9.72-10.53v11.005a1.608 1.608 0 0 1-0.475 1.145l-5.195 5.195a1.608 1.608 0 0 1-1.145 0.475H3.9a1.62 1.62 0 0 1-1.62-1.62V3.9A1.62 1.62 0 0 1 3.9 2.28h16.2a1.62 1.62 0 0 1 1.62 1.62M3.9 20.1h10.53V15.24a0.81 0.81 0 0 1 0.81-0.81h4.86V3.9H3.9z m12.15-4.05v2.906l2.905-2.906z"/></svg>