<svg xmlns="http://www.w3.org/2000/svg" width="24" height="24" fill="currentColor" viewBox="0 0 24 24"><path d="M9.57 4.71V8.76H3.9V4.71a0.81 0.81 0 0 1 0.81-0.81H8.76a0.81 0.81 0 0 1 0.81 0.81m9.72-0.81H15.24a0.81 0.81 0 0 0-0.81 0.81V8.76h5.67V4.71a0.81 0.81 0 0 0-0.81-0.81" opacity=".2"/><path d="M19.29 3.09H15.24a1.62 1.62 0 0 0-1.62 1.62v8.91a1.62 1.62 0 0 1-3.24 0V4.71a1.62 1.62 0 0 0-1.62-1.62H4.71a1.62 1.62 0 0 0-1.62 1.62v8.91A8.91 8.91 0 0 0 12 22.53h0.068c4.876-0.036 8.842-4.079 8.842-9.011V4.71a1.62 1.62 0 0 0-1.62-1.62m0 1.62v3.24H15.24v-3.24z m-10.53 0v3.24H4.71v-3.24z m3.295 16.2a7.29 7.29 0 0 1-7.345-7.29V9.57H8.76v4.05a3.24 3.24 0 0 0 6.48 0V9.57h4.05v3.949c0 4.05-3.24 7.362-7.235 7.391"/></svg>