<svg xmlns="http://www.w3.org/2000/svg" width="24" height="24" fill="currentColor" viewBox="0 0 24 24"><path d="M19.425 14.7 14.7 19.425V14.7z" opacity=".2"/><path d="M8.625 9.3a.675.675 0 0 1 .675-.675h5.4a.675.675 0 0 1 0 1.35H9.3a.675.675 0 0 1-.675-.675m.675 3.375h5.4a.675.675 0 0 0 0-1.35H9.3a.675.675 0 0 0 0 1.35m2.7 1.35H9.3a.675.675 0 0 0 0 1.35H12a.675.675 0 0 0 0-1.35m8.1-8.775v9.171a1.34 1.34 0 0 1-.396.954l-4.329 4.329a1.34 1.34 0 0 1-.954.396H5.25a1.35 1.35 0 0 1-1.35-1.35V5.25A1.35 1.35 0 0 1 5.25 3.9h13.5a1.35 1.35 0 0 1 1.35 1.35M5.25 18.75h8.775V14.7a.675.675 0 0 1 .675-.675h4.05V5.25H5.25zm10.125-3.375v2.422l2.421-2.422z"/></svg>