<svg width="24" height="24" viewBox="0 0 24 24" fill="none" xmlns="http://www.w3.org/2000/svg">
<path d="M16.1311 12.6006L19.4608 12.6006L17.0849 10.4236L16.9728 10.3089C16.8667 10.1884 16.7802 10.051 16.7173 9.90256C16.6336 9.70499 16.593 9.49185 16.5987 9.27737C16.6046 9.06262 16.657 8.85125 16.7514 8.65831C16.8459 8.46532 16.9803 8.29426 17.1464 8.15792L17.1611 8.14622L20.6157 5.45733C20.8642 5.16853 20.9947 4.7962 20.978 4.4144C20.9607 4.01695 20.7863 3.64267 20.493 3.37391C20.1997 3.10514 19.8116 2.96406 19.4142 2.98141C19.0324 2.99808 18.6735 3.16115 18.4075 3.43386L16.0292 7.10908L16.0188 7.12474C15.8975 7.30209 15.7388 7.45083 15.5548 7.56179C15.3708 7.6727 15.1648 7.7433 14.9514 7.76785C14.7382 7.79228 14.5224 7.77039 14.3182 7.70425C14.1138 7.63795 13.9256 7.52858 13.7672 7.38341L10.4494 4.34325C10.3028 4.20887 10.1087 4.13833 9.91002 4.147C9.7113 4.15568 9.52416 4.24286 9.38978 4.38952L8.37671 5.49509L16.1311 12.6006Z" fill="black" fill-opacity="0.2"/>
<path d="M7.82347 5.00484C7.51801 4.72509 7.04359 4.74594 6.76384 5.0514C6.48408 5.35687 6.50493 5.83129 6.8104 6.11104L7.31694 5.55794L7.82347 5.00484ZM2.25005 11.0851L1.69723 10.5782C1.56275 10.7249 1.49208 10.919 1.50076 11.1178C1.50944 11.3166 1.59676 11.5038 1.74351 11.6382L2.25005 11.0851ZM8.83705 3.90062L8.28423 3.39378L8.83705 3.90062ZM9.87754 3.41571L9.91023 4.16499L9.91023 4.16499L9.87754 3.41571ZM10.9564 3.80814L10.4498 4.36124V4.36124L10.9564 3.80814ZM14.2741 6.84661L14.7807 6.29353L14.7806 6.29351L14.2741 6.84661ZM14.5494 7.00699L14.3181 7.72043L14.3181 7.72044L14.5494 7.00699ZM14.8665 7.03865L14.9521 7.78375L14.9521 7.78375L14.8665 7.03865ZM15.3998 6.71725L16.0187 7.14091C16.0223 7.13562 16.0259 7.13027 16.0293 7.12488L15.3998 6.71725ZM17.8209 2.97805L17.2681 2.47121C17.2398 2.50208 17.2142 2.53526 17.1914 2.57042L17.8209 2.97805ZM20.9999 2.83933L21.5064 2.28624L20.9999 2.83933ZM21.7277 4.3992L22.477 4.36647V4.36647L21.7277 4.3992ZM21.1387 6.01652L21.5993 6.60839C21.6324 6.58267 21.6632 6.55423 21.6915 6.52337L21.1387 6.01652ZM17.6227 8.75302L17.162 8.16115C17.157 8.1651 17.152 8.1691 17.147 8.17317L17.6227 8.75302ZM17.3488 9.31202L16.5991 9.2916L16.5991 9.2916L17.3488 9.31202ZM17.408 9.62495L16.7175 9.91779L16.7175 9.9178L17.408 9.62495ZM17.5918 9.88508L18.0984 9.33198L18.0984 9.33197L17.5918 9.88508ZM20.4031 13.4766C20.7085 13.7564 21.1829 13.7356 21.4627 13.4301C21.7424 13.1246 21.7216 12.6502 21.4161 12.3705L20.9096 12.9236L20.4031 13.4766ZM3.90897 12.6035C3.62905 12.9089 3.64963 13.3833 3.95495 13.6632C4.26026 13.9431 4.73469 13.9226 5.01461 13.6172L4.46179 13.1104L3.90897 12.6035ZM8.05477 10.3013C8.33469 9.99602 8.31411 9.52159 8.00879 9.24167C7.70348 8.96175 7.22905 8.98233 6.94913 9.28764L7.50195 9.79449L8.05477 10.3013ZM2.25 12.6132C1.83579 12.6132 1.5 12.949 1.5 13.3632C1.5 13.7774 1.83579 14.1132 2.25 14.1132L2.25 13.3632L2.25 12.6132ZM21.75 14.1132C22.1642 14.1132 22.5 13.7774 22.5 13.3632C22.5 12.949 22.1642 12.6132 21.75 12.6132V13.3632V14.1132ZM8.40371 22.0705C8.58008 22.4453 9.02688 22.6062 9.40167 22.4298C9.77646 22.2534 9.93731 21.8066 9.76094 21.4318L9.08232 21.7512L8.40371 22.0705ZM6.54115 16.3512L7.21976 16.0318C7.09606 15.769 6.83167 15.6012 6.54115 15.6012C6.25063 15.6012 5.98624 15.769 5.86253 16.0318L6.54115 16.3512ZM3.32136 21.4318C3.14499 21.8066 3.30584 22.2534 3.68062 22.4298C4.05541 22.6062 4.50221 22.4453 4.67859 22.0705L3.99997 21.7512L3.32136 21.4318ZM8.33507 20.9129C8.74929 20.9129 9.08507 20.5772 9.08507 20.1629C9.08507 19.7487 8.74929 19.4129 8.33507 19.4129V20.1629V20.9129ZM4.74725 19.4129C4.33303 19.4129 3.99725 19.7487 3.99725 20.1629C3.99725 20.5772 4.33303 20.9129 4.74725 20.9129V20.1629V19.4129ZM14.25 22.5013C14.6642 22.5013 15 22.1655 15 21.7513C15 21.3371 14.6642 21.0013 14.25 21.0013V21.7513V22.5013ZM11.55 21.7513H10.8C10.8 22.1655 11.1358 22.5013 11.55 22.5013V21.7513ZM12.3 16.3513C12.3 15.9371 11.9642 15.6013 11.55 15.6013C11.1358 15.6013 10.8 15.9371 10.8 16.3513H11.55H12.3ZM19.7 22.5013C20.1142 22.5013 20.45 22.1655 20.45 21.7513C20.45 21.3371 20.1142 21.0013 19.7 21.0013V21.7513V22.5013ZM17 21.7513H16.25C16.25 22.1655 16.5858 22.5013 17 22.5013V21.7513ZM17.75 16.3513C17.75 15.9371 17.4142 15.6013 17 15.6013C16.5858 15.6013 16.25 15.9371 16.25 16.3513H17H17.75ZM15.8689 13.39L16.3754 12.8369L7.82347 5.00484L7.31694 5.55794L6.8104 6.11104L15.3624 13.9431L15.8689 13.39ZM4.73491 13.3608L5.24145 12.8077L2.75658 10.532L2.25005 11.0851L1.74351 11.6382L4.22837 13.9139L4.73491 13.3608ZM2.25005 11.0851L2.80286 11.5919L9.38987 4.40747L8.83705 3.90062L8.28423 3.39378L1.69723 10.5782L2.25005 11.0851ZM8.83705 3.90062L9.38987 4.40747C9.52421 4.26094 9.71138 4.17367 9.91023 4.16499L9.87754 3.41571L9.84484 2.66642C9.2488 2.69243 8.68742 2.95401 8.28423 3.39378L8.83705 3.90062ZM9.87754 3.41571L9.91023 4.16499C10.1091 4.15631 10.3032 4.22695 10.4498 4.36124L10.9564 3.80814L11.4629 3.25504C11.0229 2.8521 10.4409 2.64041 9.84484 2.66642L9.87754 3.41571ZM10.9564 3.80814L10.4498 4.36124L13.7676 7.39971L14.2741 6.84661L14.7806 6.29351L11.4629 3.25504L10.9564 3.80814ZM14.2741 6.84661L13.7675 7.3997C13.926 7.54481 14.1138 7.65418 14.3181 7.72043L14.5494 7.00699L14.7807 6.29354L14.7807 6.29353L14.2741 6.84661ZM14.5494 7.00699L14.3181 7.72044C14.5225 7.78669 14.7387 7.80827 14.9521 7.78375L14.8665 7.03865L14.7809 6.29355L14.7807 6.29354L14.5494 7.00699ZM14.8665 7.03865L14.9521 7.78375C15.1655 7.75922 15.3712 7.68915 15.5552 7.57825L15.1681 6.93589L14.781 6.29352L14.7808 6.29356L14.8665 7.03865ZM15.1681 6.93589L15.5552 7.57825C15.7392 7.46736 15.8973 7.31822 16.0187 7.14091L15.3998 6.71725L14.7809 6.29358L14.781 6.29352L15.1681 6.93589ZM15.3998 6.71725L16.0293 7.12488L18.4505 3.38569L17.8209 2.97805L17.1914 2.57042L14.7702 6.30961L15.3998 6.71725ZM17.8209 2.97805L18.3738 3.4849C18.6425 3.1918 19.0168 3.01731 19.4144 2.99996L19.3817 2.25068L19.349 1.50139C18.5542 1.53607 17.8057 1.88487 17.2681 2.47121L17.8209 2.97805ZM19.3817 2.25068L19.4144 2.99996C19.812 2.98262 20.2001 3.12384 20.4934 3.39243L20.9999 2.83933L21.5064 2.28624C20.9198 1.74898 20.1437 1.46671 19.349 1.50139L19.3817 2.25068ZM21.7277 4.3992L20.9784 4.43193C20.9957 4.82891 20.8546 5.21659 20.5859 5.50968L21.1387 6.01652L21.6915 6.52337C22.2291 5.93702 22.5117 5.16116 22.477 4.36647L21.7277 4.3992ZM21.1387 6.01652L20.678 5.42466L17.162 8.16115L17.6227 8.75302L18.0833 9.34489L21.5993 6.60839L21.1387 6.01652ZM17.6227 8.75302L17.147 8.17317C16.9809 8.30944 16.846 8.47982 16.7514 8.67278L17.4249 9.00277L18.0985 9.33275L18.0984 9.33287L17.6227 8.75302ZM17.4249 9.00277L16.7514 8.67278C16.6569 8.86575 16.6049 9.07678 16.5991 9.2916L17.3488 9.31202L18.0985 9.33244L18.0985 9.33275L17.4249 9.00277ZM17.3488 9.31202L16.5991 9.2916C16.5932 9.50641 16.6336 9.71996 16.7175 9.91779L17.408 9.62495L18.0985 9.33212L18.0985 9.33244L17.3488 9.31202ZM17.408 9.62495L16.7175 9.9178C16.8014 10.1156 16.9269 10.2931 17.0853 10.4382L17.5918 9.88508L18.0984 9.33197L18.0985 9.33211L17.408 9.62495ZM20.9999 2.83933L20.4934 3.39243C20.7866 3.66102 20.9611 4.03495 20.9784 4.43193L21.7277 4.3992L22.477 4.36647C22.4422 3.57177 22.0931 2.8235 21.5064 2.28624L20.9999 2.83933ZM17.5918 9.88508L17.0853 10.4382L20.4031 13.4766L20.9096 12.9236L21.4161 12.3705L18.0984 9.33198L17.5918 9.88508ZM4.46179 13.1104L5.01461 13.6172L8.05477 10.3013L7.50195 9.79449L6.94913 9.28764L3.90897 12.6035L4.46179 13.1104ZM2.25 13.3632L2.25 14.1132L21.75 14.1132V13.3632V12.6132L2.25 12.6132L2.25 13.3632ZM9.08232 21.7512L9.76094 21.4318L7.21976 16.0318L6.54115 16.3512L5.86253 16.6705L8.40371 22.0705L9.08232 21.7512ZM6.54115 16.3512L5.86253 16.0318L3.32136 21.4318L3.99997 21.7512L4.67859 22.0705L7.21976 16.6705L6.54115 16.3512ZM8.33507 20.1629V19.4129H4.74725V20.1629V20.9129H8.33507V20.1629ZM14.25 21.7513V21.0013H11.55V21.7513V22.5013H14.25V21.7513ZM11.55 21.7513H12.3V16.3513H11.55H10.8V21.7513H11.55ZM19.7 21.7513V21.0013H17V21.7513V22.5013H19.7V21.7513ZM17 21.7513H17.75V16.3513H17H16.25V21.7513H17Z" fill="black"/>
</svg>
