<svg width="24" height="24" viewBox="0 0 24 24" fill="none" xmlns="http://www.w3.org/2000/svg">
<path d="M16.1344 12.6006L19.4641 12.6006L17.0882 10.4236L16.9761 10.3089C16.87 10.1884 16.7835 10.051 16.7206 9.90256C16.6369 9.70499 16.5963 9.49185 16.602 9.27737C16.6079 9.06262 16.6603 8.85125 16.7547 8.65831C16.8492 8.46532 16.9836 8.29426 17.1497 8.15792L17.1644 8.14622L20.619 5.45733C20.8675 5.16853 20.998 4.7962 20.9813 4.4144C20.9639 4.01695 20.7896 3.64267 20.4963 3.37391C20.203 3.10514 19.8149 2.96406 19.4175 2.98141C19.0357 2.99808 18.6768 3.16115 18.4108 3.43386L16.0325 7.10908L16.0221 7.12474C15.9008 7.30209 15.7421 7.45083 15.5581 7.56179C15.3741 7.6727 15.1681 7.7433 14.9547 7.76785C14.7415 7.79228 14.5256 7.77039 14.3215 7.70425C14.1171 7.63795 13.9289 7.52858 13.7705 7.38341L10.4527 4.34325C10.3061 4.20887 10.112 4.13833 9.91332 4.147C9.7146 4.15568 9.52746 4.24286 9.39307 4.38952L8.38001 5.49509L16.1344 12.6006Z" fill="black" fill-opacity="0.2"/>
<path d="M7.82347 5.00533C7.51801 4.72558 7.04359 4.74642 6.76384 5.05189C6.48408 5.35736 6.50493 5.83177 6.81039 6.11153L7.31693 5.55843L7.82347 5.00533ZM2.25004 11.0856L1.69723 10.5787C1.56275 10.7254 1.49208 10.9195 1.50076 11.1183C1.50944 11.3171 1.59676 11.5043 1.74351 11.6387L2.25004 11.0856ZM8.83705 3.90111L8.28423 3.39427V3.39427L8.83705 3.90111ZM9.87754 3.41619L9.91023 4.16548L9.91023 4.16548L9.87754 3.41619ZM10.9564 3.80863L11.4629 3.25553V3.25553L10.9564 3.80863ZM14.2741 6.8471L14.7807 6.29402L14.7806 6.294L14.2741 6.8471ZM14.5494 7.00748L14.3181 7.72092L14.3181 7.72092L14.5494 7.00748ZM14.8665 7.03914L14.9521 7.78424L14.9521 7.78424L14.8665 7.03914ZM15.3998 6.71773L16.0187 7.1414C16.0223 7.1361 16.0259 7.13076 16.0293 7.12537L15.3998 6.71773ZM17.8209 2.97854L17.2681 2.4717C17.2398 2.50257 17.2142 2.53575 17.1914 2.57091L17.8209 2.97854ZM20.9999 2.83982L21.5064 2.28673L20.9999 2.83982ZM21.7277 4.39969L22.477 4.36696V4.36695L21.7277 4.39969ZM21.1387 6.01701L21.5993 6.60888C21.6324 6.58316 21.6632 6.55472 21.6915 6.52386L21.1387 6.01701ZM17.6227 8.75351L17.162 8.16164C17.157 8.16559 17.152 8.16959 17.147 8.17366L17.6227 8.75351ZM17.3488 9.31251L16.5991 9.29208L16.5991 9.29209L17.3488 9.31251ZM17.408 9.62544L16.7175 9.91828L16.7175 9.91828L17.408 9.62544ZM17.5918 9.88557L18.0984 9.33247L18.0984 9.33246L17.5918 9.88557ZM20.4031 13.4771C20.7085 13.7569 21.1829 13.736 21.4627 13.4306C21.7424 13.1251 21.7216 12.6507 21.4161 12.3709L20.9096 12.924L20.4031 13.4771ZM3.90897 12.604C3.62905 12.9094 3.64963 13.3838 3.95495 13.6637C4.26026 13.9436 4.73469 13.923 5.01461 13.6177L4.46179 13.1109L3.90897 12.604ZM8.05477 10.3018C8.33469 9.99651 8.31411 9.52208 8.00879 9.24216C7.70348 8.96223 7.22905 8.98282 6.94913 9.28813L7.50195 9.79498L8.05477 10.3018ZM2.25 12.6137C1.83579 12.6137 1.5 12.9495 1.5 13.3637C1.5 13.7779 1.83579 14.1137 2.25 14.1137L2.25 13.3637L2.25 12.6137ZM21.75 14.1137C22.1642 14.1137 22.5 13.7779 22.5 13.3637C22.5 12.9495 22.1642 12.6137 21.75 12.6137V13.3637V14.1137ZM9.57756 16.1699C9.4771 15.768 9.0699 15.5237 8.66806 15.6242C8.26621 15.7246 8.02189 16.1318 8.12235 16.5337L8.84996 16.3518L9.57756 16.1699ZM10.2 21.7518L9.47235 21.9337C9.54847 22.2382 9.80614 22.463 10.1181 22.4973C10.4301 22.5315 10.7304 22.3679 10.8708 22.0872L10.2 21.7518ZM12 18.1518L12.6708 17.8164C12.5437 17.5623 12.284 17.4018 12 17.4018C11.7159 17.4018 11.4562 17.5623 11.3291 17.8164L12 18.1518ZM13.8 21.7518L13.1291 22.0872C13.2695 22.3679 13.5698 22.5315 13.8818 22.4973C14.1938 22.463 14.4514 22.2382 14.5276 21.9337L13.8 21.7518ZM15.8776 16.5337C15.978 16.1318 15.7337 15.7246 15.3319 15.6242C14.93 15.5237 14.5228 15.768 14.4224 16.1699L15.15 16.3518L15.8776 16.5337ZM15.8689 13.3905L16.3754 12.8374L7.82347 5.00533L7.31693 5.55843L6.81039 6.11153L15.3624 13.9436L15.8689 13.3905ZM4.73491 13.3613L5.24145 12.8082L2.75658 10.5325L2.25004 11.0856L1.74351 11.6387L4.22837 13.9144L4.73491 13.3613ZM2.25004 11.0856L2.80286 11.5924L9.38987 4.40796L8.83705 3.90111L8.28423 3.39427L1.69723 10.5787L2.25004 11.0856ZM8.83705 3.90111L9.38987 4.40796C9.52421 4.26143 9.71138 4.17416 9.91023 4.16548L9.87754 3.41619L9.84484 2.66691C9.2488 2.69291 8.68742 2.9545 8.28423 3.39427L8.83705 3.90111ZM9.87754 3.41619L9.91023 4.16548C10.1091 4.1568 10.3032 4.22744 10.4498 4.36173L10.9564 3.80863L11.4629 3.25553C11.0229 2.85259 10.4409 2.6409 9.84484 2.66691L9.87754 3.41619ZM10.9564 3.80863L10.4498 4.36173L13.7676 7.4002L14.2741 6.8471L14.7806 6.294L11.4629 3.25553L10.9564 3.80863ZM14.2741 6.8471L13.7675 7.40018C13.926 7.5453 14.1138 7.65467 14.3181 7.72092L14.5494 7.00748L14.7807 6.29403L14.7807 6.29402L14.2741 6.8471ZM14.5494 7.00748L14.3181 7.72092C14.5225 7.78718 14.7387 7.80876 14.9521 7.78424L14.8665 7.03914L14.7809 6.29404L14.7807 6.29403L14.5494 7.00748ZM14.8665 7.03914L14.9521 7.78424C15.1655 7.75971 15.3712 7.68964 15.5552 7.57874L15.1681 6.93638L14.781 6.29401L14.7808 6.29404L14.8665 7.03914ZM15.1681 6.93638L15.5552 7.57874C15.7392 7.46785 15.8973 7.31871 16.0187 7.1414L15.3998 6.71773L14.7809 6.29407L14.781 6.29401L15.1681 6.93638ZM15.3998 6.71773L16.0293 7.12537L18.4505 3.38618L17.8209 2.97854L17.1914 2.57091L14.7702 6.3101L15.3998 6.71773ZM17.8209 2.97854L18.3738 3.48539C18.6425 3.19229 19.0168 3.0178 19.4144 3.00045L19.3817 2.25117L19.349 1.50188C18.5542 1.53656 17.8057 1.88536 17.2681 2.4717L17.8209 2.97854ZM19.3817 2.25117L19.4144 3.00045C19.812 2.9831 20.2001 3.12432 20.4934 3.39292L20.9999 2.83982L21.5064 2.28673C20.9198 1.74947 20.1437 1.4672 19.349 1.50188L19.3817 2.25117ZM21.7277 4.39969L20.9784 4.43242C20.9957 4.8294 20.8546 5.21708 20.5859 5.51017L21.1387 6.01701L21.6915 6.52386C22.2291 5.93751 22.5117 5.16165 22.477 4.36696L21.7277 4.39969ZM21.1387 6.01701L20.678 5.42515L17.162 8.16164L17.6227 8.75351L18.0833 9.34537L21.5993 6.60888L21.1387 6.01701ZM17.6227 8.75351L17.147 8.17366C16.9809 8.30994 16.846 8.48031 16.7514 8.67327L17.4249 9.00325L18.0985 9.33324L18.0984 9.33335L17.6227 8.75351ZM17.4249 9.00325L16.7514 8.67327C16.6569 8.86623 16.6049 9.07727 16.5991 9.29208L17.3488 9.31251L18.0985 9.33293L18.0985 9.33324L17.4249 9.00325ZM17.3488 9.31251L16.5991 9.29209C16.5932 9.5069 16.6336 9.72046 16.7175 9.91828L17.408 9.62544L18.0985 9.33261L18.0985 9.33293L17.3488 9.31251ZM17.408 9.62544L16.7175 9.91828C16.8014 10.1161 16.9269 10.2936 17.0853 10.4387L17.5918 9.88557L18.0984 9.33246L18.0985 9.3326L17.408 9.62544ZM20.9999 2.83982L20.4934 3.39292C20.7866 3.66151 20.9611 4.03544 20.9784 4.43242L21.7277 4.39969L22.477 4.36695C22.4422 3.57226 22.0931 2.82399 21.5064 2.28673L20.9999 2.83982ZM17.5918 9.88557L17.0853 10.4387L20.4031 13.4771L20.9096 12.924L21.4161 12.3709L18.0984 9.33247L17.5918 9.88557ZM4.46179 13.1109L5.01461 13.6177L8.05477 10.3018L7.50195 9.79498L6.94913 9.28813L3.90897 12.604L4.46179 13.1109ZM2.25 13.3637L2.25 14.1137L21.75 14.1137V13.3637V12.6137L2.25 12.6137L2.25 13.3637ZM8.84996 16.3518L8.12235 16.5337L9.47235 21.9337L10.2 21.7518L10.9276 21.5699L9.57756 16.1699L8.84996 16.3518ZM10.2 21.7518L10.8708 22.0872L12.6708 18.4872L12 18.1518L11.3291 17.8164L9.52914 21.4164L10.2 21.7518ZM12 18.1518L11.3291 18.4872L13.1291 22.0872L13.8 21.7518L14.4708 21.4164L12.6708 17.8164L12 18.1518ZM13.8 21.7518L14.5276 21.9337L15.8776 16.5337L15.15 16.3518L14.4224 16.1699L13.0724 21.5699L13.8 21.7518Z" fill="black"/>
</svg>
