<svg width="24" height="24" viewBox="0 0 24 24" fill="none" xmlns="http://www.w3.org/2000/svg">
<path d="M16.1313 12.6006L19.461 12.6006L17.0852 10.4236L16.973 10.3089C16.8669 10.1884 16.7805 10.051 16.7175 9.90256C16.6338 9.70499 16.5932 9.49185 16.599 9.27737C16.6048 9.06262 16.6572 8.85125 16.7517 8.65831C16.8462 8.46532 16.9805 8.29426 17.1466 8.15792L17.1613 8.14622L20.616 5.45733C20.8645 5.16853 20.9949 4.7962 20.9782 4.4144C20.9609 4.01695 20.7865 3.64267 20.4932 3.37391C20.1999 3.10514 19.8119 2.96406 19.4144 2.98141C19.0326 2.99808 18.6738 3.16115 18.4077 3.43386L16.0295 7.10908L16.0191 7.12474C15.8977 7.30209 15.739 7.45083 15.555 7.56179C15.371 7.6727 15.1651 7.7433 14.9516 7.76785C14.7385 7.79228 14.5226 7.77039 14.3185 7.70425C14.1141 7.63795 13.9258 7.52858 13.7674 7.38341L10.4497 4.34325C10.303 4.20887 10.109 4.13833 9.91027 4.147C9.71155 4.15568 9.5244 4.24286 9.39002 4.38952L8.37695 5.49509L16.1313 12.6006Z" fill="black" fill-opacity="0.2"/>
<path d="M15.8396 13.3646L7.31727 5.55971M15.8396 13.3646L2.25 13.3646M15.8396 13.3646H21.75M20.9096 12.925L17.5918 9.88655C17.5126 9.814 17.4499 9.72529 17.408 9.62642C17.3661 9.52755 17.3459 9.42083 17.3488 9.31348C17.3517 9.20614 17.3777 9.10067 17.4249 9.00423C17.4722 8.90779 17.5396 8.82262 17.6227 8.75449L21.1387 6.01799C21.5418 5.57827 21.7537 4.9965 21.7277 4.40066C21.7017 3.80483 21.4399 3.24373 20.9999 2.8408C20.5599 2.43787 19.9778 2.22613 19.3817 2.25214C18.7855 2.27816 18.2241 2.5398 17.8209 2.97952L15.3998 6.71871C15.3391 6.80734 15.2601 6.8819 15.1681 6.93735C15.0761 6.9928 14.9732 7.02785 14.8665 7.04012C14.7597 7.05238 14.6516 7.04159 14.5494 7.00845C14.4472 6.97532 14.3533 6.92063 14.2741 6.84808L10.9564 3.80961C10.663 3.54099 10.275 3.39983 9.87754 3.41717C9.48009 3.43451 9.10582 3.60894 8.83705 3.90209L7.31727 5.55971L2.25004 11.0866L4.73491 13.3622M4.46179 13.1119L7.50195 9.79595M17.0002 21.75L20.3002 19L17.0002 16.25M7.15095 16.25L3.85095 19L7.15095 21.75M10.2001 20.3601C10.2001 21.1054 11.0062 21.7101 12.0001 21.7101C12.9941 21.7101 13.8001 21.1054 13.8001 20.3601C13.8001 18.5601 10.3003 19.2351 10.3003 17.6601C10.3003 16.9147 11.0062 16.3101 12.0001 16.3101C12.7454 16.3101 13.3293 16.6476 13.5751 17.1347M18.2778 10.5147L21.3868 13.3646" stroke="black" stroke-width="1.5" stroke-linecap="round" stroke-linejoin="round"/>
</svg>
