<svg width="24" height="24" viewBox="0 0 24 24" fill="none" xmlns="http://www.w3.org/2000/svg">
<path d="M6.75 15.75C6.75 17.8209 9.10031 19.5 12 19.5C14.8997 19.5 17.25 17.8209 17.25 15.75C17.25 10.7503 7.04156 12.6253 7.04156 8.25C7.04156 6.17906 9.10406 4.5 12 4.5C14.175 4.5 15.7847 5.40375 16.5 6.75L6.75 15.75Z" fill="black" fill-opacity="0.2"/>
<path d="M3.75 12H20.25M7.15593 9C7.07846 8.75761 7.03985 8.50447 7.04156 8.25C7.04156 6.17906 9.10406 4.5 12 4.5C14.1562 4.5 15.7725 5.42531 16.5 6.75M6.75 15.75C6.75 17.8209 9.10031 19.5 12 19.5C14.8997 19.5 17.25 17.8209 17.25 15.75C17.25 13.5216 15.2231 12.6562 12.975 12" stroke="black" stroke-width="1.5" stroke-linecap="round" stroke-linejoin="round"/>
</svg>
