<svg viewBox="0 0 24 24" fill="none" xmlns="http://www.w3.org/2000/svg" width="24" height="24">
<g clip-path="url(#clip0_1013_528)">
<path opacity="0.2" fill-rule="evenodd" clip-rule="evenodd" d="M10.029 1.446C9.6 1.426 9.18 1.577 8.863 1.867L7.066 3.503 16.676 14.051 17.488 14.051 20.771 14.051 21.38 14.051C21.385 14.006 21.389 13.962 21.391 13.917 21.411 13.488 21.26 13.068 20.971 12.75L17.698 9.158C17.619 9.072 17.561 8.971 17.525 8.86 17.49 8.75 17.478 8.633 17.492 8.518 17.505 8.402 17.544 8.291 17.604 8.192 17.664 8.093 17.745 8.008 17.841 7.943L21.889 5.339C22.365 4.905 22.65 4.3 22.68 3.656 22.71 3.012 22.482 2.383 22.048 1.907 21.614 1.43 21.009 1.146 20.365 1.116 19.721 1.086 19.092 1.313 18.616 1.747L15.648 5.536C15.574 5.625 15.482 5.698 15.377 5.749 15.273 5.799 15.159 5.827 15.043 5.83 14.927 5.833 14.812 5.81 14.705 5.765 14.598 5.719 14.503 5.651 14.424 5.566L11.151 1.973C10.862 1.655 10.458 1.466 10.029 1.446Z" fill="black"/>
<path fill-rule="evenodd" clip-rule="evenodd" d="M6.624 3.907C6.4 3.662 6.418 3.282 6.663 3.059 6.908 2.836 7.288 2.854 7.511 3.098L17.488 14.05H16.677 15.865L6.624 3.907Z" fill="black"/>
<path fill-rule="evenodd" clip-rule="evenodd" d="M1.927 8.997L6.531 14.05H4.907L0.636 9.362C0.413 9.117 0.43 8.737 0.675 8.514L8.46 1.422C8.895 1.026 9.469 0.818 10.057 0.846 10.645 0.873 11.199 1.133 11.595 1.568L14.868 5.161C14.888 5.183 14.913 5.201 14.941 5.213 14.969 5.225 14.999 5.231 15.029 5.23 15.059 5.229 15.089 5.221 15.116 5.208 15.142 5.195 15.166 5.178 15.185 5.156L18.144 1.376C18.164 1.35 18.187 1.326 18.212 1.303 18.806 0.762 19.592 0.479 20.394 0.517 21.197 0.554 21.952 0.909 22.493 1.503 23.034 2.097 23.317 2.881 23.28 3.684 23.242 4.486 22.887 5.242 22.293 5.783 22.268 5.805 22.242 5.826 22.213 5.844L18.177 8.44C18.153 8.457 18.132 8.478 18.117 8.503 18.101 8.528 18.092 8.558 18.088 8.588 18.085 8.617 18.087 8.648 18.096 8.677 18.106 8.705 18.121 8.731 18.141 8.753L21.414 12.347C21.811 12.782 22.018 13.357 21.99 13.945 21.989 13.98 21.986 14.015 21.983 14.05H21.38 20.771C20.782 13.998 20.789 13.944 20.792 13.889 20.804 13.619 20.709 13.355 20.527 13.155L17.254 9.562C17.118 9.412 17.016 9.235 16.954 9.043 16.893 8.851 16.872 8.647 16.896 8.447 16.92 8.246 16.986 8.053 17.091 7.881 17.196 7.708 17.336 7.56 17.503 7.446L17.516 7.438 21.51 4.871C21.853 4.546 22.059 4.101 22.081 3.628 22.104 3.143 21.932 2.67 21.606 2.311 21.279 1.952 20.823 1.738 20.339 1.715 19.867 1.693 19.406 1.856 19.051 2.165L16.12 5.905 16.111 5.918C15.983 6.073 15.821 6.2 15.639 6.288 15.458 6.376 15.26 6.424 15.058 6.429 14.856 6.434 14.656 6.395 14.47 6.316 14.284 6.237 14.117 6.118 13.981 5.969L10.708 2.377C10.526 2.177 10.272 2.058 10.002 2.045 9.732 2.032 9.468 2.127 9.268 2.309L1.927 8.997Z" fill="black"/>
<path d="M7.258 8.514L3.665 11.787C3.42 12.01 3.041 11.992 2.818 11.747 2.595 11.502 2.612 11.123 2.857 10.9L6.45 7.627C6.695 7.404 7.074 7.422 7.297 7.667 7.521 7.911 7.503 8.291 7.258 8.514Z" fill="black"/>
<path d="M23.4 12.846C23.731 12.846 24 13.114 24 13.446 24 13.777 23.731 14.046 23.4 14.046L21.38 14.05H20.771 17.488 16.677L0.6 14.046C0.269 14.046 0 13.777 0 13.446 0 13.114 0.269 12.846 0.6 12.846H23.4Z" fill="black"/>
<path fill-rule="evenodd" clip-rule="evenodd" d="M3.993 23.742C3.966 23.689 3.947 23.631 3.936 23.568 3.912 23.416 3.94 23.248 4.02 23.064L7.188 16.044C7.292 15.812 7.416 15.648 7.56 15.552 7.633 15.501 7.711 15.463 7.794 15.437 7.883 15.41 7.977 15.396 8.076 15.396 8.26 15.396 8.424 15.448 8.568 15.552 8.72 15.648 8.848 15.812 8.952 16.044L12.132 23.064C12.22 23.248 12.252 23.416 12.228 23.568 12.218 23.631 12.2 23.689 12.175 23.742 12.139 23.815 12.089 23.877 12.024 23.928 11.912 24.008 11.764 24.048 11.58 24.048 11.356 24.048 11.18 23.996 11.052 23.892 11.007 23.85 10.964 23.8 10.922 23.742 10.853 23.646 10.788 23.528 10.728 23.388L10.129 21.996H6.002L5.412 23.388C5.348 23.53 5.283 23.648 5.217 23.742 5.174 23.801 5.131 23.851 5.088 23.892 4.976 23.996 4.816 24.048 4.608 24.048 4.416 24.048 4.26 24.004 4.14 23.916 4.077 23.867 4.028 23.809 3.993 23.742ZM9.605 20.772H6.533L8.052 17.16H8.076L9.605 20.772Z" fill="black"/>
<path fill-rule="evenodd" clip-rule="evenodd" d="M18.249 23.742C18.316 23.619 18.35 23.465 18.35 23.28V20.4C18.35 19.84 18.258 19.384 18.074 19.032 17.999 18.886 17.909 18.755 17.803 18.639 17.647 18.47 17.457 18.332 17.234 18.228 17.068 18.149 16.882 18.087 16.675 18.044 16.421 17.99 16.135 17.964 15.818 17.964 15.538 17.964 15.226 17.996 14.882 18.06 14.546 18.124 14.194 18.232 13.826 18.384 13.674 18.44 13.566 18.528 13.502 18.648 13.438 18.76 13.406 18.876 13.406 18.996 13.406 19.116 13.438 19.228 13.502 19.332 13.566 19.428 13.654 19.492 13.766 19.524 13.886 19.556 14.022 19.536 14.174 19.464 14.47 19.328 14.75 19.232 15.014 19.176 15.188 19.14 15.355 19.115 15.513 19.103 15.601 19.095 15.687 19.092 15.77 19.092 16.186 19.092 16.482 19.18 16.658 19.356 16.713 19.411 16.76 19.478 16.798 19.555 16.88 19.724 16.922 19.946 16.922 20.22V20.472H16.502C16.242 20.472 15.998 20.477 15.77 20.487 15.255 20.511 14.823 20.562 14.474 20.64 13.97 20.752 13.606 20.936 13.382 21.192 13.326 21.253 13.278 21.32 13.236 21.393 13.109 21.613 13.046 21.887 13.046 22.212 13.046 22.564 13.138 22.88 13.322 23.16 13.481 23.392 13.688 23.586 13.941 23.742 13.993 23.773 14.046 23.803 14.102 23.832 14.438 23.992 14.818 24.072 15.242 24.072 15.562 24.072 15.846 24.016 16.094 23.904 16.197 23.857 16.292 23.803 16.379 23.742 16.503 23.655 16.612 23.553 16.706 23.436 16.805 23.312 16.885 23.176 16.946 23.027V23.28C16.946 23.465 16.979 23.619 17.046 23.742 17.069 23.783 17.095 23.821 17.126 23.856 17.254 23.984 17.43 24.048 17.654 24.048 17.878 24.048 18.05 23.984 18.17 23.856 18.2 23.821 18.227 23.783 18.249 23.742ZM15.326 21.408C15.622 21.36 16.018 21.336 16.514 21.336H16.922V21.6C16.922 21.88 16.862 22.128 16.742 22.344 16.622 22.56 16.458 22.732 16.25 22.86 16.05 22.98 15.818 23.04 15.554 23.04 15.226 23.04 14.97 22.956 14.786 22.788 14.602 22.62 14.51 22.404 14.51 22.14 14.51 21.932 14.57 21.772 14.69 21.66 14.818 21.54 15.03 21.456 15.326 21.408Z" fill="black"/>
</g>
<defs>
<clipPath id="clip0_1013_528">
<rect width="24" height="24" fill="white" transform="matrix(0 -1 1 0 0 24)"/>
</clipPath>
</defs>
</svg>