<svg width="24" height="24" viewBox="0 0 24 24" fill="none" xmlns="http://www.w3.org/2000/svg">
<path d="M16.1313 12.6006L19.461 12.6006L17.0852 10.4236L16.973 10.3089C16.8669 10.1884 16.7805 10.051 16.7175 9.90256C16.6338 9.70499 16.5932 9.49185 16.599 9.27737C16.6048 9.06262 16.6572 8.85125 16.7517 8.65831C16.8462 8.46532 16.9805 8.29426 17.1466 8.15792L17.1613 8.14622L20.616 5.45733C20.8645 5.16853 20.9949 4.7962 20.9782 4.4144C20.9609 4.01695 20.7865 3.64267 20.4932 3.37391C20.1999 3.10514 19.8119 2.96406 19.4144 2.98141C19.0326 2.99808 18.6738 3.16115 18.4077 3.43386L16.0295 7.10908L16.0191 7.12474C15.8977 7.30209 15.739 7.45083 15.555 7.56179C15.371 7.6727 15.1651 7.7433 14.9516 7.76785C14.7385 7.79228 14.5226 7.77039 14.3185 7.70425C14.1141 7.63795 13.9258 7.52858 13.7674 7.38341L10.4497 4.34325C10.303 4.20887 10.109 4.13833 9.91027 4.147C9.71155 4.15568 9.5244 4.24286 9.39002 4.38952L8.37695 5.49509L16.1313 12.6006Z" fill="black" fill-opacity="0.2"/>
<path d="M7.31727 5.55971L6.76445 5.05287V5.05287L7.31727 5.55971ZM4.22837 13.9153C4.53384 14.1951 5.00825 14.1743 5.28801 13.8688C5.56776 13.5633 5.54692 13.0889 5.24145 12.8092L4.73491 13.3622L4.22837 13.9153ZM2.25004 11.0866L1.69723 10.5797C1.56275 10.7264 1.49208 10.9205 1.50076 11.1193C1.50944 11.3181 1.59676 11.5053 1.7435 11.6397L2.25004 11.0866ZM8.83705 3.90209L8.28423 3.39524V3.39524L8.83705 3.90209ZM9.87754 3.41717L9.91023 4.16646L9.91023 4.16646L9.87754 3.41717ZM10.9564 3.80961L10.4498 4.36271L10.4498 4.36271L10.9564 3.80961ZM14.2741 6.84808L14.7807 6.29499L14.7806 6.29498L14.2741 6.84808ZM14.5494 7.00845L14.3181 7.7219L14.3181 7.7219L14.5494 7.00845ZM14.8665 7.04012L14.9521 7.78521L14.9521 7.78521L14.8665 7.04012ZM15.3998 6.71871L16.0187 7.14238C16.0223 7.13708 16.0258 7.13174 16.0293 7.12635L15.3998 6.71871ZM17.8209 2.97952L17.2681 2.47267C17.2398 2.50354 17.2142 2.53673 17.1914 2.57188L17.8209 2.97952ZM19.3817 2.25214L19.349 1.50286L19.3817 2.25214ZM20.9999 2.8408L21.5064 2.2877V2.2877L20.9999 2.8408ZM21.7277 4.40066L20.9784 4.4334V4.4334L21.7277 4.40066ZM21.1387 6.01799L21.5993 6.60985C21.6324 6.58414 21.6632 6.5557 21.6915 6.52483L21.1387 6.01799ZM17.6227 8.75449L17.162 8.16262C17.157 8.16656 17.152 8.17057 17.147 8.17464L17.6227 8.75449ZM17.3488 9.31348L18.0985 9.33391V9.33391L17.3488 9.31348ZM17.408 9.62642L16.7175 9.91925L16.7175 9.91926L17.408 9.62642ZM17.5918 9.88655L18.0984 9.33345L18.0984 9.33343L17.5918 9.88655ZM20.4031 13.4781C20.7085 13.7579 21.1829 13.737 21.4627 13.4316C21.7424 13.1261 21.7216 12.6517 21.4161 12.3719L20.9096 12.925L20.4031 13.4781ZM3.90897 12.605C3.62905 12.9103 3.64963 13.3848 3.95495 13.6647C4.26026 13.9446 4.73469 13.924 5.01461 13.6187L4.46179 13.1119L3.90897 12.605ZM8.05477 10.3028C8.33469 9.99748 8.31411 9.52306 8.00879 9.24313C7.70348 8.96321 7.22905 8.98379 6.94913 9.28911L7.50195 9.79595L8.05477 10.3028ZM2.25 12.6146C1.83579 12.6146 1.5 12.9504 1.5 13.3646C1.5 13.7789 1.83579 14.1146 2.25 14.1146L2.25 13.3646L2.25 12.6146ZM21.75 14.1146C22.1642 14.1146 22.5 13.7789 22.5 13.3646C22.5 12.9504 22.1642 12.6146 21.75 12.6146V13.3646V14.1146ZM16.52 21.1738C16.2018 21.439 16.1588 21.9119 16.424 22.2301C16.6892 22.5483 17.1621 22.5913 17.4803 22.3262L17.0002 21.75L16.52 21.1738ZM20.3002 19L20.7803 19.5762C20.9513 19.4337 21.0502 19.2226 21.0502 19C21.0502 18.7774 20.9513 18.5663 20.7803 18.4238L20.3002 19ZM17.4803 15.6738C17.1621 15.4087 16.6892 15.4517 16.424 15.7699C16.1588 16.0881 16.2018 16.561 16.52 16.8262L17.0002 16.25L17.4803 15.6738ZM7.63109 16.8262C7.9493 16.561 7.99229 16.0881 7.72712 15.7699C7.46195 15.4517 6.98902 15.4087 6.67081 15.6738L7.15095 16.25L7.63109 16.8262ZM3.85095 19L3.37081 18.4238C3.19982 18.5663 3.10095 18.7774 3.10095 19C3.10095 19.2226 3.19982 19.4337 3.37081 19.5762L3.85095 19ZM6.67081 22.3262C6.98902 22.5913 7.46195 22.5483 7.72712 22.2301C7.99229 21.9119 7.9493 21.439 7.63109 21.1738L7.15095 21.75L6.67081 22.3262ZM10.9501 20.3601C10.9501 19.9458 10.6143 19.6101 10.2001 19.6101C9.78592 19.6101 9.45013 19.9458 9.45013 20.3601H10.2001H10.9501ZM12.9056 17.4726C13.0922 17.8424 13.5432 17.9909 13.913 17.8043C14.2828 17.6177 14.4313 17.1666 14.2447 16.7968L13.5751 17.1347L12.9056 17.4726ZM18.7846 9.96187C18.4792 9.68198 18.0048 9.70261 17.7249 10.008C17.445 10.3133 17.4657 10.7877 17.771 11.0676L18.2778 10.5147L18.7846 9.96187ZM20.8801 13.9175C21.1854 14.1974 21.6598 14.1768 21.9397 13.8714C22.2196 13.5661 22.199 13.0917 21.8936 12.8118L21.3868 13.3646L20.8801 13.9175ZM15.8396 13.3646L16.3461 12.8115L7.82381 5.00662L7.31727 5.55971L6.81073 6.11281L15.333 13.9177L15.8396 13.3646ZM4.73491 13.3622L5.24145 12.8092L2.75658 10.5335L2.25004 11.0866L1.7435 11.6397L4.22837 13.9153L4.73491 13.3622ZM2.25004 11.0866L2.80286 11.5934L7.87009 6.06656L7.31727 5.55971L6.76445 5.05287L1.69723 10.5797L2.25004 11.0866ZM7.31727 5.55971L7.87009 6.06656L9.38987 4.40893L8.83705 3.90209L8.28423 3.39524L6.76445 5.05287L7.31727 5.55971ZM8.83705 3.90209L9.38987 4.40893C9.52421 4.26241 9.71138 4.17513 9.91023 4.16646L9.87754 3.41717L9.84484 2.66788C9.2488 2.69389 8.68742 2.95548 8.28423 3.39524L8.83705 3.90209ZM9.87754 3.41717L9.91023 4.16646C10.1091 4.15778 10.3032 4.22842 10.4498 4.36271L10.9564 3.80961L11.4629 3.25651C11.0229 2.85356 10.4409 2.64187 9.84484 2.66788L9.87754 3.41717ZM10.9564 3.80961L10.4498 4.36271L13.7676 7.40118L14.2741 6.84808L14.7806 6.29498L11.4629 3.25651L10.9564 3.80961ZM14.2741 6.84808L13.7675 7.40116C13.926 7.54628 14.1138 7.65565 14.3181 7.7219L14.5494 7.00845L14.7807 6.29501L14.7807 6.29499L14.2741 6.84808ZM14.5494 7.00845L14.3181 7.7219C14.5225 7.78815 14.7387 7.80974 14.9521 7.78521L14.8665 7.04012L14.7809 6.29502L14.7807 6.29501L14.5494 7.00845ZM14.8665 7.04012L14.9521 7.78521C15.1655 7.76068 15.3712 7.69061 15.5552 7.57972L15.1681 6.93735L14.781 6.29499L14.7808 6.29502L14.8665 7.04012ZM15.1681 6.93735L15.5552 7.57972C15.7392 7.46882 15.8973 7.31968 16.0187 7.14238L15.3998 6.71871L14.7809 6.29504L14.781 6.29499L15.1681 6.93735ZM15.3998 6.71871L16.0293 7.12635L18.4505 3.38716L17.8209 2.97952L17.1914 2.57188L14.7702 6.31107L15.3998 6.71871ZM17.8209 2.97952L18.3738 3.48636C18.6425 3.19327 19.0168 3.01878 19.4144 3.00143L19.3817 2.25214L19.349 1.50286C18.5542 1.53754 17.8057 1.88634 17.2681 2.47267L17.8209 2.97952ZM19.3817 2.25214L19.4144 3.00143C19.812 2.98408 20.2001 3.1253 20.4934 3.3939L20.9999 2.8408L21.5064 2.2877C20.9198 1.75045 20.1437 1.46818 19.349 1.50286L19.3817 2.25214ZM21.7277 4.40066L20.9784 4.4334C20.9957 4.83038 20.8546 5.21806 20.5859 5.51114L21.1387 6.01799L21.6915 6.52483C22.2291 5.93849 22.5117 5.16263 22.477 4.36793L21.7277 4.40066ZM21.1387 6.01799L20.678 5.42612L17.162 8.16262L17.6227 8.75449L18.0833 9.34635L21.5993 6.60985L21.1387 6.01799ZM17.6227 8.75449L17.147 8.17464C16.9809 8.31091 16.846 8.48128 16.7514 8.67425L17.4249 9.00423L18.0985 9.33421L18.0984 9.33433L17.6227 8.75449ZM17.4249 9.00423L16.7514 8.67425C16.6569 8.86721 16.6049 9.07825 16.5991 9.29306L17.3488 9.31348L18.0985 9.33391L18.0985 9.33421L17.4249 9.00423ZM17.3488 9.31348L16.5991 9.29306C16.5932 9.50788 16.6336 9.72143 16.7175 9.91925L17.408 9.62642L18.0985 9.33359L18.0985 9.33391L17.3488 9.31348ZM17.408 9.62642L16.7175 9.91926C16.8014 10.1171 16.9269 10.2945 17.0853 10.4397L17.5918 9.88655L18.0984 9.33343L18.0985 9.33358L17.408 9.62642ZM20.9999 2.8408L20.4934 3.3939C20.7866 3.66248 20.9611 4.03642 20.9784 4.4334L21.7277 4.40066L22.477 4.36793C22.4422 3.57324 22.0931 2.82497 21.5064 2.2877L20.9999 2.8408ZM17.5918 9.88655L17.0853 10.4396L20.4031 13.4781L20.9096 12.925L21.4161 12.3719L18.0984 9.33345L17.5918 9.88655ZM4.46179 13.1119L5.01461 13.6187L8.05477 10.3028L7.50195 9.79595L6.94913 9.28911L3.90897 12.605L4.46179 13.1119ZM2.25 13.3646L2.25 14.1146L15.8396 14.1146V13.3646V12.6146L2.25 12.6146L2.25 13.3646ZM15.8396 13.3646V14.1146H21.75V13.3646V12.6146H15.8396V13.3646ZM17.0002 21.75L17.4803 22.3262L20.7803 19.5762L20.3002 19L19.82 18.4238L16.52 21.1738L17.0002 21.75ZM20.3002 19L20.7803 18.4238L17.4803 15.6738L17.0002 16.25L16.52 16.8262L19.82 19.5762L20.3002 19ZM7.15095 16.25L6.67081 15.6738L3.37081 18.4238L3.85095 19L4.33109 19.5762L7.63109 16.8262L7.15095 16.25ZM3.85095 19L3.37081 19.5762L6.67081 22.3262L7.15095 21.75L7.63109 21.1738L4.33109 18.4238L3.85095 19ZM10.2001 20.3601H9.45013C9.45013 21.0218 9.80968 21.5637 10.2774 21.9145C10.7449 22.2652 11.3565 22.4601 12.0001 22.4601V21.7101V20.9601C11.6499 20.9601 11.3614 20.8526 11.1774 20.7146C10.9936 20.5767 10.9501 20.4436 10.9501 20.3601H10.2001ZM12.0001 21.7101V22.4601C12.6438 22.4601 13.2553 22.2652 13.7229 21.9145C14.1906 21.5637 14.5501 21.0218 14.5501 20.3601H13.8001H13.0501C13.0501 20.4436 13.0067 20.5767 12.8228 20.7146C12.6389 20.8526 12.3504 20.9601 12.0001 20.9601V21.7101ZM13.8001 20.3601H14.5501C14.5501 19.6008 14.152 19.0917 13.6636 18.7725C13.2255 18.4862 12.6763 18.3261 12.2586 18.2052C11.7829 18.0676 11.4499 17.9731 11.2175 17.8411C11.0304 17.7348 11.0503 17.6912 11.0503 17.6601H10.3003H9.55026C9.55026 18.4164 10.0077 18.879 10.4768 19.1454C10.9006 19.3861 11.4425 19.5306 11.8418 19.6461C12.2991 19.7784 12.6248 19.8855 12.843 20.0281C13.0108 20.1378 13.0501 20.2193 13.0501 20.3601H13.8001ZM10.3003 17.6601H11.0503C11.0503 17.467 11.2674 17.0601 12.0001 17.0601V16.3101V15.5601C10.745 15.5601 9.55026 16.3625 9.55026 17.6601H10.3003ZM12.0001 16.3101V17.0601C12.5335 17.0601 12.8165 17.296 12.9056 17.4726L13.5751 17.1347L14.2447 16.7968C13.8422 15.9991 12.9574 15.5601 12.0001 15.5601V16.3101ZM18.2778 10.5147L17.771 11.0676L20.8801 13.9175L21.3868 13.3646L21.8936 12.8118L18.7846 9.96187L18.2778 10.5147Z" fill="black"/>
</svg>
