<svg xmlns="http://www.w3.org/2000/svg" width="24" height="24" fill="currentColor" viewBox="0 0 24 24"><path d="M16.86 6.33l-5.6 5.168c-2.43-0.678-4.615-1.444-4.616-3.543 0-2.237 2.227-4.05 5.356-4.05 2.348-0.005 4.087 0.971 4.86 2.425m-5.6 5.168l-4.93 4.552c0 2.237 2.538 4.05 5.67 4.05s5.67-1.813 5.67-4.05c0-2.994-3.39-3.706-6.41-4.552" opacity=".2"/><path d="M21.72 12a0.81 0.81 0 0 1-0.81 0.81h-4.057c0.93 0.72 1.627 1.741 1.627 3.24 0 1.351-0.709 2.602-1.999 3.522-1.207 0.863-2.798 1.338-4.481 1.338s-3.274-0.475-4.481-1.338C6.228 18.652 5.52 17.4 5.52 16.05a0.81 0.81 0 0 1 1.62 0c0 1.757 2.227 3.24 4.86 3.24s4.86-1.483 4.86-3.24c0-1.504-1.067-2.388-3.925-3.24H3.09a0.81 0.81 0 0 1 0-1.62h17.82A0.81 0.81 0 0 1 21.72 12M6.768 9.57a0.81 0.81 0 0 0 0.77-1.062 1.8 1.8 0 0 1-0.084-0.558c0-1.847 1.954-3.24 4.546-3.24 1.908 0 3.458 0.751 4.151 2.01a0.81 0.81 0 0 0 1.417-0.78c-0.979-1.786-3.061-2.85-5.569-2.85-3.515 0-6.166 2.089-6.166 4.86a3.48 3.48 0 0 0 0.165 1.062 0.81 0.81 0 0 0 0.769 0.558z"/></svg>