<svg width="24" height="24" viewBox="0 0 24 24" fill="none" xmlns="http://www.w3.org/2000/svg">
<path d="M16.1245 12.6143L19.4542 12.6143L17.0783 10.4372L16.9662 10.3226C16.8601 10.2021 16.7736 10.0647 16.7107 9.91623C16.627 9.71867 16.5864 9.50552 16.5921 9.29104C16.598 9.07629 16.6504 8.86493 16.7448 8.67198C16.8393 8.47899 16.9737 8.30793 17.1398 8.17159L17.1545 8.15989L20.6091 5.471C20.8576 5.1822 20.9881 4.80987 20.9714 4.42807C20.9541 4.03063 20.7797 3.65634 20.4864 3.38758C20.1931 3.11881 19.805 2.97773 19.4076 2.99508C19.0258 3.01175 18.667 3.17482 18.4009 3.44753L16.0226 7.12275L16.0123 7.13841C15.8909 7.31576 15.7322 7.4645 15.5482 7.57546C15.3642 7.68637 15.1582 7.75698 14.9448 7.78152C14.7316 7.80595 14.5158 7.78407 14.3116 7.71792C14.1072 7.65162 13.919 7.54225 13.7606 7.39708L10.4428 4.35692C10.2962 4.22254 10.1022 4.152 9.90343 4.16068C9.70471 4.16935 9.51757 4.25654 9.38319 4.40319L8.37012 5.50876L16.1245 12.6143Z" fill="black" fill-opacity="0.2"/>
<path d="M7.31727 5.55727L6.76445 5.05043V5.05043L7.31727 5.55727ZM2.25004 11.0841L1.69723 10.5773C1.56275 10.7239 1.49208 10.918 1.50076 11.1168C1.50944 11.3156 1.59676 11.5028 1.7435 11.6372L2.25004 11.0841ZM8.83705 3.89965L8.28423 3.3928V3.3928L8.83705 3.89965ZM9.87754 3.41473L9.91023 4.16402L9.91023 4.16402L9.87754 3.41473ZM10.9564 3.80717L10.4498 4.36026L10.4498 4.36026L10.9564 3.80717ZM14.2741 6.84564L14.7807 6.29255L14.7806 6.29254L14.2741 6.84564ZM14.5494 7.00601L14.3181 7.71946L14.3181 7.71946L14.5494 7.00601ZM14.8665 7.03767L14.9521 7.78277L14.9521 7.78277L14.8665 7.03767ZM15.3998 6.71627L16.0187 7.13994C16.0223 7.13464 16.0258 7.1293 16.0293 7.12391L15.3998 6.71627ZM17.8209 2.97708L17.2681 2.47023C17.2398 2.5011 17.2142 2.53429 17.1914 2.56944L17.8209 2.97708ZM19.3817 2.2497L19.349 1.50041L19.3817 2.2497ZM20.9999 2.83836L21.5064 2.28526V2.28526L20.9999 2.83836ZM21.7277 4.39822L20.9784 4.43096V4.43096L21.7277 4.39822ZM21.1387 6.01555L21.5993 6.60741C21.6324 6.5817 21.6632 6.55326 21.6915 6.52239L21.1387 6.01555ZM17.6227 8.75204L17.162 8.16018C17.157 8.16412 17.152 8.16813 17.147 8.1722L17.6227 8.75204ZM17.3488 9.31104L18.0985 9.33146V9.33146L17.3488 9.31104ZM17.408 9.62398L16.7175 9.91681L16.7175 9.91682L17.408 9.62398ZM17.5918 9.8841L18.0984 9.33101L18.0984 9.33099L17.5918 9.8841ZM20.4031 13.4757C20.7085 13.7554 21.1829 13.7346 21.4627 13.4291C21.7424 13.1236 21.7216 12.6492 21.4161 12.3695L20.9096 12.9226L20.4031 13.4757ZM3.90897 12.6026C3.62905 12.9079 3.64963 13.3823 3.95495 13.6622C4.26026 13.9422 4.73469 13.9216 5.01461 13.6163L4.46179 13.1094L3.90897 12.6026ZM8.05477 10.3004C8.33469 9.99504 8.31411 9.52062 8.00879 9.24069C7.70348 8.96077 7.22905 8.98135 6.94913 9.28666L7.50195 9.79351L8.05477 10.3004ZM2.25 12.6122C1.83579 12.6122 1.5 12.948 1.5 13.3622C1.5 13.7764 1.83579 14.1122 2.25 14.1122L2.25 13.3622L2.25 12.6122ZM21.75 14.1122C22.1642 14.1122 22.5 13.7764 22.5 13.3622C22.5 12.948 22.1642 12.6122 21.75 12.6122V13.3622V14.1122ZM16.1509 21.7483C16.1509 22.1625 16.4867 22.4983 16.9009 22.4983C17.3151 22.4983 17.6509 22.1625 17.6509 21.7483H16.9009H16.1509ZM14.1496 18.0408C13.8557 18.3327 13.8541 18.8076 14.146 19.1015C14.4379 19.3953 14.9128 19.397 15.2067 19.1051L14.6781 18.5729L14.1496 18.0408ZM11.501 22.0676C11.6774 22.4424 12.1242 22.6033 12.4989 22.4269C12.8737 22.2505 13.0346 21.8037 12.8582 21.4289L12.1796 21.7483L11.501 22.0676ZM9.63933 16.3502L10.3179 16.0309C10.1942 15.768 9.92985 15.6002 9.63933 15.6002C9.3488 15.6002 9.08441 15.768 8.96071 16.0309L9.63933 16.3502ZM6.42044 21.4289C6.24407 21.8037 6.40491 22.2505 6.7797 22.4269C7.15449 22.6033 7.60129 22.4424 7.77766 22.0676L7.09905 21.7483L6.42044 21.4289ZM11.4326 20.9106C11.8468 20.9106 12.1826 20.5748 12.1826 20.1606C12.1826 19.7464 11.8468 19.4106 11.4326 19.4106V20.1606V20.9106ZM7.84601 19.4106C7.4318 19.4106 7.09601 19.7464 7.09601 20.1606C7.09601 20.5748 7.4318 20.9106 7.84601 20.9106V20.1606V19.4106ZM15.8689 13.389L16.3754 12.8359L16.3461 12.8091L15.8396 13.3622L15.333 13.9153L15.3624 13.9421L15.8689 13.389ZM15.8396 13.3622L16.3461 12.8091L7.82381 5.00418L7.31727 5.55727L6.81073 6.11037L15.333 13.9153L15.8396 13.3622ZM4.73491 13.3598L5.24145 12.8067L2.75658 10.531L2.25004 11.0841L1.7435 11.6372L4.22837 13.9129L4.73491 13.3598ZM2.25004 11.0841L2.80286 11.591L7.87009 6.06412L7.31727 5.55727L6.76445 5.05043L1.69723 10.5773L2.25004 11.0841ZM7.31727 5.55727L7.87009 6.06412L9.38987 4.40649L8.83705 3.89965L8.28423 3.3928L6.76445 5.05043L7.31727 5.55727ZM8.83705 3.89965L9.38987 4.40649C9.52421 4.25996 9.71138 4.17269 9.91023 4.16402L9.87754 3.41473L9.84484 2.66544C9.2488 2.69145 8.68742 2.95304 8.28423 3.3928L8.83705 3.89965ZM9.87754 3.41473L9.91023 4.16402C10.1091 4.15534 10.3032 4.22598 10.4498 4.36026L10.9564 3.80717L11.4629 3.25407C11.0229 2.85112 10.4409 2.63943 9.84484 2.66544L9.87754 3.41473ZM10.9564 3.80717L10.4498 4.36026L13.7676 7.39873L14.2741 6.84564L14.7806 6.29254L11.4629 3.25407L10.9564 3.80717ZM14.2741 6.84564L13.7675 7.39872C13.926 7.54383 14.1138 7.65321 14.3181 7.71946L14.5494 7.00601L14.7807 6.29257L14.7807 6.29255L14.2741 6.84564ZM14.5494 7.00601L14.3181 7.71946C14.5225 7.78571 14.7387 7.8073 14.9521 7.78277L14.8665 7.03767L14.7809 6.29258L14.7807 6.29256L14.5494 7.00601ZM14.8665 7.03767L14.9521 7.78277C15.1655 7.75824 15.3712 7.68817 15.5552 7.57727L15.1681 6.93491L14.781 6.29255L14.7808 6.29258L14.8665 7.03767ZM15.1681 6.93491L15.5552 7.57727C15.7392 7.46638 15.8973 7.31724 16.0187 7.13994L15.3998 6.71627L14.7809 6.2926L14.781 6.29255L15.1681 6.93491ZM15.3998 6.71627L16.0293 7.12391L18.4505 3.38472L17.8209 2.97708L17.1914 2.56944L14.7702 6.30863L15.3998 6.71627ZM17.8209 2.97708L18.3738 3.48392C18.6425 3.19082 19.0168 3.01634 19.4144 2.99899L19.3817 2.2497L19.349 1.50041C18.5542 1.53509 17.8057 1.8839 17.2681 2.47023L17.8209 2.97708ZM19.3817 2.2497L19.4144 2.99899C19.812 2.98164 20.2001 3.12286 20.4934 3.39146L20.9999 2.83836L21.5064 2.28526C20.9198 1.74801 20.1437 1.46573 19.349 1.50041L19.3817 2.2497ZM21.7277 4.39822L20.9784 4.43096C20.9957 4.82794 20.8546 5.21562 20.5859 5.5087L21.1387 6.01555L21.6915 6.52239C22.2291 5.93604 22.5117 5.16019 22.477 4.36549L21.7277 4.39822ZM21.1387 6.01555L20.678 5.42368L17.162 8.16018L17.6227 8.75204L18.0833 9.34391L21.5993 6.60741L21.1387 6.01555ZM17.6227 8.75204L17.147 8.1722C16.9809 8.30847 16.846 8.47884 16.7514 8.67181L17.4249 9.00179L18.0985 9.33177L18.0984 9.33189L17.6227 8.75204ZM17.4249 9.00179L16.7514 8.67181C16.6569 8.86477 16.6049 9.0758 16.5991 9.29062L17.3488 9.31104L18.0985 9.33146L18.0985 9.33177L17.4249 9.00179ZM17.3488 9.31104L16.5991 9.29062C16.5932 9.50544 16.6336 9.71899 16.7175 9.91681L17.408 9.62398L18.0985 9.33115L18.0985 9.33146L17.3488 9.31104ZM17.408 9.62398L16.7175 9.91682C16.8014 10.1146 16.9269 10.2921 17.0853 10.4372L17.5918 9.8841L18.0984 9.33099L18.0985 9.33113L17.408 9.62398ZM20.9999 2.83836L20.4934 3.39146C20.7866 3.66004 20.9611 4.03397 20.9784 4.43096L21.7277 4.39822L22.477 4.36549C22.4422 3.5708 22.0931 2.82253 21.5064 2.28526L20.9999 2.83836ZM17.5918 9.8841L17.0853 10.4372L20.4031 13.4757L20.9096 12.9226L21.4161 12.3695L18.0984 9.33101L17.5918 9.8841ZM4.46179 13.1094L5.01461 13.6163L8.05477 10.3004L7.50195 9.79351L6.94913 9.28666L3.90897 12.6026L4.46179 13.1094ZM2.25 13.3622L2.25 14.1122L15.8396 14.1122V13.3622V12.6122L2.25 12.6122L2.25 13.3622ZM15.8396 13.3622V14.1122H21.75V13.3622V12.6122H15.8396V13.3622ZM16.9009 20.6369H16.1509C16.1509 20.7016 16.1227 20.7816 16.035 20.8583C15.9458 20.9364 15.8051 20.9983 15.6307 20.9983V21.7483V22.4983C16.6492 22.4983 17.6509 21.7559 17.6509 20.6369H16.9009ZM15.6307 21.7483V20.9983C15.4563 20.9983 15.3157 20.9364 15.2265 20.8583C15.1388 20.7816 15.1106 20.7016 15.1106 20.6369H14.3606H13.6106C13.6106 21.7559 14.6123 22.4983 15.6307 22.4983V21.7483ZM14.3606 20.6369H15.1106C15.1106 20.5722 15.1388 20.4922 15.2265 20.4155C15.3157 20.3375 15.4563 20.2755 15.6307 20.2755V19.5255V18.7755C14.6123 18.7755 13.6106 19.518 13.6106 20.6369H14.3606ZM15.6307 19.5255V20.2755C15.8051 20.2755 15.9458 20.3375 16.035 20.4155C16.1227 20.4922 16.1509 20.5722 16.1509 20.6369H16.9009H17.6509C17.6509 19.518 16.6492 18.7755 15.6307 18.7755V19.5255ZM16.9009 21.7483H17.6509V19.3668H16.9009H16.1509V21.7483H16.9009ZM16.9009 19.3668H17.6509C17.6509 18.248 16.6491 17.5054 15.6307 17.5054V18.2554V19.0054C15.805 19.0054 15.9457 19.0673 16.0349 19.1454C16.1227 19.2222 16.1509 19.3023 16.1509 19.3668H16.9009ZM15.6307 18.2554V17.5054C15.1587 17.5054 14.5831 17.6103 14.1496 18.0408L14.6781 18.5729L15.2067 19.1051C15.2384 19.0735 15.3439 19.0054 15.6307 19.0054V18.2554ZM12.1796 21.7483L12.8582 21.4289L10.3179 16.0309L9.63933 16.3502L8.96071 16.6695L11.501 22.0676L12.1796 21.7483ZM9.63933 16.3502L8.96071 16.0309L6.42044 21.4289L7.09905 21.7483L7.77766 22.0676L10.3179 16.6695L9.63933 16.3502ZM11.4326 20.1606V19.4106H7.84601V20.1606V20.9106H11.4326V20.1606Z" fill="black"/>
</svg>
