<svg width="24" height="24" viewBox="0 0 24 24" fill="none" xmlns="http://www.w3.org/2000/svg">
<path d="M16.1206 12.6128L19.4503 12.6128L17.0744 10.4358L16.9623 10.3211C16.8562 10.2006 16.7697 10.0632 16.7068 9.91477C16.6231 9.7172 16.5825 9.50406 16.5882 9.28958C16.5941 9.07482 16.6465 8.86346 16.7409 8.67051C16.8354 8.47753 16.9698 8.30647 17.1359 8.17013L17.1506 8.15843L20.6052 5.46953C20.8537 5.18074 20.9842 4.8084 20.9675 4.42661C20.9502 4.02916 20.7758 3.65488 20.4825 3.38611C20.1892 3.11735 19.8011 2.97626 19.4037 2.99362C19.0219 3.01029 18.663 3.17336 18.397 3.44606L16.0187 7.12129L16.0083 7.13695C15.887 7.3143 15.7283 7.46304 15.5443 7.574C15.3603 7.68491 15.1543 7.75551 14.9409 7.78005C14.7277 7.80448 14.5119 7.7826 14.3077 7.71646C14.1033 7.65016 13.9151 7.54079 13.7567 7.39561L10.4389 4.35546C10.2923 4.22108 10.0983 4.15053 9.89953 4.15921C9.7008 4.16789 9.51366 4.25507 9.37928 4.40172L8.36621 5.50729L16.1206 12.6128Z" fill="black" fill-opacity="0.2"/>
<path d="M15.8396 13.363L7.31689 5.55782M4.73487 13.3607L2.25 11.085L8.837 3.9005C9.10577 3.60736 9.48005 3.43293 9.87749 3.41558C10.2749 3.39824 10.663 3.5394 10.9563 3.80802L14.2741 6.84649C14.3533 6.91904 14.4472 6.97373 14.5494 7.00687C14.6516 7.04 14.7597 7.0508 14.8664 7.03853C14.9732 7.02626 15.076 6.99122 15.168 6.93576C15.2601 6.88031 15.3391 6.80575 15.3997 6.71712L17.8209 2.97793C18.2241 2.53822 18.7855 2.27657 19.3816 2.25056C19.9778 2.22454 20.5599 2.43629 20.9999 2.83921C21.4398 3.24214 21.7016 3.80324 21.7276 4.39908C21.7537 4.99492 21.5418 5.57669 21.1386 6.0164L17.6226 8.7529C17.5396 8.82103 17.4722 8.9062 17.4249 9.00264C17.3776 9.09909 17.3517 9.20455 17.3488 9.3119C17.3458 9.41924 17.366 9.52596 17.408 9.62483C17.4499 9.7237 17.5126 9.81241 17.5918 9.88496L20.9095 12.9234M4.46175 13.1103L7.5019 9.79436M8.84991 16.3512L10.1999 21.7512L11.9999 18.1512L13.7999 21.7512L15.1499 16.3512M18.0698 10.3228L21.3876 13.3612M2.25 13.3631H21.75" stroke="black" stroke-width="1.5" stroke-linecap="round" stroke-linejoin="round"/>
</svg>
