<svg viewBox="0 0 24 24" fill="none" xmlns="http://www.w3.org/2000/svg" width="24" height="24">
<g clip-path="url(#clip0_1013_488)">
<path opacity="0.2" fill-rule="evenodd" clip-rule="evenodd" d="M8.863 1.867C9.181 1.577 9.6 1.426 10.029 1.446 10.459 1.466 10.862 1.656 11.152 1.973L14.425 5.566C14.503 5.651 14.599 5.719 14.705 5.765 14.812 5.811 14.927 5.833 15.043 5.83 15.159 5.827 15.273 5.799 15.378 5.749 15.482 5.698 15.574 5.625 15.648 5.536L18.616 1.747C19.092 1.313 19.722 1.086 20.366 1.116 21.009 1.146 21.615 1.43 22.049 1.907 22.483 2.383 22.71 3.012 22.68 3.656 22.65 4.3 22.366 4.905 21.889 5.339L17.841 7.943C17.745 8.008 17.664 8.093 17.604 8.192 17.544 8.292 17.506 8.403 17.492 8.518 17.479 8.633 17.49 8.75 17.526 8.86 17.561 8.971 17.62 9.072 17.698 9.158L20.971 12.751C21.261 13.068 21.412 13.488 21.392 13.917 21.39 13.96 21.386 14.003 21.381 14.046L16.672 14.046 7.067 3.503 8.863 1.867Z" fill="black"/>
<path fill-rule="evenodd" clip-rule="evenodd" d="M6.675 3.048L6.663 3.059 6.651 3.07 6.675 3.048Z" fill="black"/>
<path d="M2.592 23.544C2.724 23.618 2.862 23.684 3.005 23.742 3.546 23.962 4.164 24.072 4.86 24.072 5.316 24.072 5.764 24.012 6.204 23.892 6.358 23.848 6.504 23.798 6.642 23.742 6.908 23.634 7.146 23.504 7.356 23.352 7.5 23.248 7.596 23.128 7.644 22.992 7.692 22.848 7.7 22.712 7.668 22.584 7.636 22.448 7.572 22.336 7.476 22.248 7.38 22.16 7.26 22.112 7.116 22.104 6.98 22.088 6.824 22.132 6.648 22.236 6.384 22.396 6.104 22.516 5.808 22.596 5.512 22.668 5.212 22.704 4.908 22.704 4.34 22.704 3.86 22.588 3.468 22.356 3.076 22.124 2.78 21.784 2.58 21.336 2.38 20.888 2.28 20.348 2.28 19.716 2.28 19.076 2.38 18.536 2.58 18.096 2.78 17.656 3.076 17.32 3.468 17.088 3.86 16.856 4.34 16.74 4.908 16.74 5.204 16.74 5.496 16.776 5.784 16.848 6.072 16.92 6.34 17.036 6.588 17.196 6.764 17.308 6.924 17.36 7.068 17.352 7.22 17.336 7.344 17.28 7.44 17.184 7.502 17.127 7.551 17.063 7.587 16.992 7.612 16.943 7.631 16.891 7.644 16.836 7.676 16.692 7.664 16.548 7.608 16.404 7.552 16.252 7.44 16.124 7.272 16.02 6.989 15.836 6.666 15.69 6.301 15.581 6.254 15.566 6.205 15.553 6.156 15.54 5.732 15.428 5.3 15.372 4.86 15.372 4.204 15.372 3.612 15.476 3.084 15.684 2.564 15.884 2.124 16.176 1.764 16.56 1.404 16.936 1.128 17.392 0.936 17.928 0.744 18.456 0.648 19.052 0.648 19.716 0.648 20.604 0.816 21.376 1.152 22.032 1.488 22.68 1.968 23.184 2.592 23.544Z" fill="black"/>
<path fill-rule="evenodd" clip-rule="evenodd" d="M15.156 21.528C15.156 21.321 15.133 21.127 15.086 20.949 14.998 20.61 14.825 20.323 14.568 20.088 14.517 20.04 14.462 19.993 14.403 19.948 14.023 19.659 13.491 19.441 12.804 19.296L11.496 19.02C11.264 18.972 11.066 18.915 10.902 18.848 10.738 18.783 10.608 18.708 10.512 18.624 10.366 18.489 10.275 18.322 10.241 18.123 10.23 18.061 10.224 17.996 10.224 17.928 10.224 17.672 10.293 17.452 10.428 17.268 10.572 17.076 10.776 16.928 11.04 16.824 11.304 16.72 11.62 16.668 11.988 16.668 12.34 16.668 12.669 16.704 12.972 16.776 13.276 16.848 13.576 16.968 13.872 17.136 14.04 17.232 14.188 17.272 14.316 17.256 14.452 17.24 14.565 17.188 14.652 17.1 14.74 17.012 14.796 16.908 14.82 16.788 14.844 16.66 14.832 16.532 14.784 16.404 14.745 16.276 14.661 16.168 14.532 16.08 14.188 15.848 13.8 15.672 13.368 15.552 12.936 15.432 12.48 15.372 12 15.372 11.512 15.372 11.064 15.436 10.656 15.564 10.257 15.684 9.909 15.86 9.612 16.092 9.368 16.289 9.169 16.518 9.017 16.779 8.99 16.825 8.964 16.872 8.94 16.92 8.78 17.24 8.7 17.596 8.7 17.988 8.7 18.069 8.704 18.147 8.71 18.224 8.751 18.74 8.932 19.166 9.252 19.5 9.549 19.796 9.964 20.025 10.499 20.187 10.643 20.231 10.795 20.27 10.956 20.304L12.276 20.58C12.772 20.684 13.12 20.816 13.32 20.976 13.461 21.084 13.554 21.219 13.599 21.381 13.621 21.459 13.632 21.544 13.632 21.636 13.632 21.972 13.488 22.248 13.2 22.464 12.912 22.672 12.453 22.776 11.82 22.776 11.388 22.776 10.977 22.728 10.584 22.632 10.192 22.536 9.82 22.384 9.468 22.176 9.316 22.08 9.176 22.044 9.048 22.068 8.92 22.092 8.812 22.156 8.724 22.26 8.644 22.356 8.592 22.472 8.568 22.608 8.552 22.736 8.572 22.868 8.628 23.004 8.684 23.14 8.784 23.256 8.928 23.352 9.163 23.503 9.427 23.633 9.719 23.742L9.768 23.76C10.08 23.864 10.413 23.94 10.764 23.988 11.116 24.044 11.469 24.072 11.82 24.072 12.333 24.072 12.792 24.012 13.2 23.892 13.347 23.849 13.487 23.799 13.618 23.742 13.851 23.641 14.06 23.519 14.244 23.376 14.541 23.152 14.764 22.884 14.916 22.572 15.076 22.26 15.156 21.912 15.156 21.528Z" fill="black"/>
<path d="M18.752 15.438C18.57 15.469 18.395 15.511 18.227 15.564 17.969 15.641 17.733 15.742 17.518 15.866 17.4 15.934 17.288 16.009 17.183 16.092 16.895 16.324 16.671 16.6 16.511 16.92 16.351 17.24 16.271 17.596 16.271 17.988 16.271 18.127 16.28 18.26 16.298 18.387 16.362 18.83 16.537 19.201 16.823 19.5L16.84 19.517C17.216 19.884 17.778 20.146 18.527 20.304L19.847 20.58C20.343 20.684 20.691 20.816 20.891 20.976 21.099 21.136 21.203 21.356 21.203 21.636 21.203 21.972 21.059 22.248 20.771 22.464 20.483 22.672 20.023 22.776 19.391 22.776 18.959 22.776 18.547 22.728 18.155 22.632 17.763 22.536 17.391 22.384 17.039 22.176 16.887 22.08 16.747 22.044 16.619 22.068 16.491 22.092 16.383 22.156 16.295 22.26 16.215 22.356 16.163 22.472 16.139 22.608 16.123 22.736 16.143 22.868 16.199 23.004 16.255 23.14 16.355 23.256 16.499 23.352 16.734 23.503 16.997 23.633 17.29 23.742L17.339 23.76C17.651 23.864 17.983 23.94 18.335 23.988 18.687 24.044 19.039 24.072 19.391 24.072 19.903 24.072 20.363 24.012 20.771 23.892 20.918 23.849 21.057 23.799 21.188 23.742 21.422 23.641 21.631 23.519 21.815 23.376 22.111 23.152 22.335 22.884 22.487 22.572 22.647 22.26 22.727 21.912 22.727 21.528 22.727 20.928 22.531 20.448 22.139 20.088 21.755 19.728 21.167 19.464 20.375 19.296L19.067 19.02C18.603 18.924 18.275 18.792 18.083 18.624 18.038 18.583 17.999 18.539 17.965 18.492 17.851 18.337 17.795 18.149 17.795 17.928 17.795 17.672 17.863 17.452 17.999 17.268 18.113 17.115 18.265 16.991 18.455 16.894 18.504 16.869 18.556 16.845 18.611 16.824 18.875 16.72 19.191 16.668 19.559 16.668 19.595 16.668 19.632 16.668 19.668 16.669 19.764 16.671 19.858 16.676 19.95 16.683 20.157 16.7 20.354 16.731 20.543 16.776 20.847 16.848 21.147 16.968 21.443 17.136 21.611 17.232 21.759 17.272 21.887 17.256 22.023 17.24 22.135 17.188 22.223 17.1 22.311 17.012 22.367 16.908 22.391 16.788 22.415 16.66 22.403 16.532 22.355 16.404 22.315 16.276 22.231 16.168 22.103 16.08 21.81 15.882 21.486 15.726 21.129 15.609 21.067 15.589 21.003 15.57 20.939 15.552 20.518 15.435 20.074 15.375 19.608 15.372L19.571 15.372C19.284 15.372 19.011 15.394 18.752 15.438Z" fill="black"/>
<path fill-rule="evenodd" clip-rule="evenodd" d="M0.6 12.846L3.81 12.846 2.818 11.747 0.636 9.362C0.413 9.117 0.43 8.737 0.675 8.514L6.651 3.07 6.675 3.048 8.46 1.422C8.895 1.026 9.469 0.818 10.057 0.846 10.645 0.873 11.199 1.133 11.595 1.568L14.868 5.161C14.888 5.183 14.913 5.201 14.941 5.213 14.969 5.225 14.999 5.231 15.029 5.23 15.059 5.229 15.089 5.221 15.116 5.208 15.142 5.195 15.166 5.178 15.185 5.156L18.144 1.376C18.164 1.35 18.187 1.326 18.212 1.303 18.806 0.762 19.592 0.479 20.394 0.517 21.197 0.554 21.952 0.909 22.493 1.503 23.034 2.097 23.317 2.881 23.28 3.684 23.242 4.486 22.887 5.242 22.293 5.783 22.268 5.805 22.242 5.826 22.213 5.844L18.177 8.44C18.153 8.457 18.132 8.478 18.117 8.503 18.101 8.528 18.092 8.558 18.088 8.588 18.085 8.617 18.087 8.648 18.096 8.677 18.106 8.705 18.121 8.731 18.141 8.753L21.414 12.347C21.552 12.498 21.667 12.666 21.757 12.846H23.4C23.731 12.846 24 13.114 24 13.446 24 13.777 23.731 14.046 23.4 14.046H0.6C0.269 14.046 0 13.777 0 13.446 0 13.114 0.269 12.846 0.6 12.846ZM7.028 4.35L1.927 8.997 3.296 10.5 6.45 7.627C6.695 7.404 7.074 7.422 7.297 7.667 7.521 7.911 7.503 8.291 7.258 8.514L4.104 11.387 5.433 12.846 14.767 12.846 7.028 4.35ZM7.915 3.542L9.268 2.309C9.468 2.127 9.732 2.032 10.002 2.045 10.272 2.058 10.526 2.177 10.708 2.377L13.981 5.969C14.117 6.118 14.284 6.237 14.47 6.316 14.656 6.395 14.856 6.434 15.058 6.429 15.26 6.424 15.458 6.376 15.639 6.288 15.821 6.2 15.983 6.073 16.111 5.918L16.12 5.905 19.051 2.165C19.406 1.856 19.867 1.693 20.339 1.715 20.823 1.738 21.279 1.952 21.606 2.311 21.932 2.67 22.104 3.143 22.081 3.628 22.059 4.101 21.853 4.546 21.51 4.871L17.516 7.438 17.503 7.446C17.336 7.56 17.196 7.708 17.091 7.881 16.986 8.053 16.92 8.246 16.896 8.447 16.872 8.647 16.893 8.851 16.954 9.043 17.016 9.235 17.118 9.412 17.254 9.562L20.246 12.846H16.39L7.915 3.542Z" fill="black"/>
</g>
<defs>
<clipPath id="clip0_1013_488">
<rect width="24" height="24" fill="white" transform="matrix(0 -1 1 0 0 24)"/>
</clipPath>
</defs>
</svg>