<svg width="24" height="24" viewBox="0 0 24 24" fill="none" xmlns="http://www.w3.org/2000/svg">
<path d="M3.75 5.25H21C21.3978 5.25 21.7794 5.40804 22.0607 5.68934C22.342 5.97064 22.5 6.35218 22.5 6.75V19.5H5.25C4.85218 19.5 4.47064 19.342 4.18934 19.0607C3.90804 18.7794 3.75 18.3978 3.75 18V5.25Z" fill="black" fill-opacity="0.2"/>
<path d="M22.5 19.5001H18L22.0472 14.1039C22.2423 13.8447 22.379 13.5464 22.448 13.2295C22.517 12.9125 22.5167 12.5844 22.447 12.2675C22.3774 11.9507 22.24 11.6527 22.0444 11.394C21.8488 11.1352 21.5996 10.9218 21.3138 10.7683C21.028 10.6149 20.7124 10.5251 20.3886 10.505C20.0648 10.485 19.7406 10.5352 19.438 10.6522C19.1355 10.7692 18.8618 10.9502 18.6358 11.1829C18.4097 11.4155 18.2367 11.6943 18.1284 12.0001M3.75 5.25L8.625 10.875M8.625 10.875L13.5 16.5M8.625 10.875L13.5 5.25M8.625 10.875L3.75 16.5" stroke="black" stroke-width="1.5" stroke-linecap="round" stroke-linejoin="round"/>
</svg>
