<svg xmlns="http://www.w3.org/2000/svg" width="24" height="24" fill="currentColor" viewBox="0 0 24 24"><path d="M23.34 5.52v12.15a1.62 1.62 0 0 1-1.62 1.62H3.09V5.52a1.62 1.62 0 0 1 1.62-1.62H21.72a1.62 1.62 0 0 1 1.62 1.62" opacity=".2"/><path d="M24.15 13.62a0.81 0.81 0 0 1-0.81 0.81H18.48a0.81 0.81 0 0 1-0.648-1.296l4.37-5.827a1.62 1.62 0 1 0-2.821-1.519 0.81 0.81 0 0 1-1.527-0.54 3.24 3.24 0 1 1 5.643 3.03l-3.398 4.532h3.24a0.81 0.81 0 0 1 0.81 0.81z m-10-7.087a0.81 0.81 0 0 0-1.143 0.08l-4.653 5.365L3.702 6.612a0.81 0.81 0 0 0-1.22 1.058l4.8 5.544-4.8 5.544a0.81 0.81 0 0 0 1.225 1.061l4.657-5.366 4.652 5.366a0.81 0.81 0 1 0 1.226-1.061l-4.816-5.544 4.805-5.544a0.81 0.81 0 0 0-0.082-1.137z"/></svg>