<svg width="24" height="24" viewBox="0 0 24 24" fill="none" xmlns="http://www.w3.org/2000/svg">
<path d="M5.25 4.5H21C21.3978 4.5 21.7794 4.65804 22.0607 4.93934C22.342 5.22064 22.5 5.60218 22.5 6V17.25C22.5 17.6478 22.342 18.0294 22.0607 18.3107C21.7794 18.592 21.3978 18.75 21 18.75H3.75V6C3.75 5.60218 3.90804 5.22064 4.18934 4.93934C4.47064 4.65804 4.85218 4.5 5.25 4.5Z" fill="black" fill-opacity="0.2"/>
<path d="M22.5 13.5013H18L22.0472 8.10508C22.2423 7.84591 22.379 7.54763 22.448 7.23067C22.517 6.91371 22.5167 6.58558 22.447 6.26877C22.3774 5.95195 22.24 5.65394 22.0444 5.39517C21.8488 5.1364 21.5996 4.92299 21.3138 4.76955C21.028 4.61612 20.7124 4.5263 20.3886 4.50626C20.0648 4.48621 19.7406 4.5364 19.438 4.6534C19.1355 4.77039 18.8618 4.95143 18.6358 5.18409C18.4097 5.41675 18.2367 5.69553 18.1284 6.00133M3.75 7.50098L8.625 13.126M8.625 13.126L13.5 18.751M8.625 13.126L13.5 7.50098M8.625 13.126L3.75 18.751" stroke="black" stroke-width="1.5" stroke-linecap="round" stroke-linejoin="round"/>
</svg>
