<svg width="24" height="24" viewBox="0 0 24 24" fill="none" xmlns="http://www.w3.org/2000/svg">
<path d="M5.25 4.5H21C21.3978 4.5 21.7794 4.65804 22.0607 4.93934C22.342 5.22064 22.5 5.60218 22.5 6V17.25C22.5 17.6478 22.342 18.0294 22.0607 18.3107C21.7794 18.592 21.3978 18.75 21 18.75H3.75V6C3.75 5.60218 3.90804 5.22064 4.18934 4.93934C4.47064 4.65804 4.85218 4.5 5.25 4.5Z" fill="black" fill-opacity="0.2"/>
<path d="M22.5 13.5004H18L22.0472 8.1041C22.2423 7.84494 22.379 7.54665 22.448 7.22969C22.517 6.91274 22.5167 6.58461 22.447 6.26779C22.3774 5.95097 22.24 5.65297 22.0444 5.3942C21.8488 5.13542 21.5996 4.92201 21.3138 4.76858C21.028 4.61515 20.7124 4.52533 20.3886 4.50528C20.0648 4.48523 19.7406 4.53542 19.438 4.65242C19.1355 4.76942 18.8618 4.95045 18.6358 5.18311C18.4097 5.41577 18.2367 5.69455 18.1284 6.00035M3.75 7.50024L8.625 13.1252M8.625 13.1252L13.5 18.7502M8.625 13.1252L13.5 7.50024M8.625 13.1252L3.75 18.7502" stroke="black" stroke-width="1.5" stroke-linecap="round" stroke-linejoin="round"/>
</svg>
