<svg xmlns="http://www.w3.org/2000/svg" width="24" height="24" fill="currentColor" viewBox="0 0 24 24"><path d="M5.501 18.499C0.652 10.418 7.121 2.338 20.855 3.145c0.808 13.738-7.273 20.202-15.354 15.354" opacity=".2"/><path d="M21.665 3.097a0.81 0.81 0 0 0-0.761-0.762C13.196 1.883 7.021 4.204 4.39 8.557a8.82 8.82 0 0 0-1.293 4.961c0.058 1.612 0.528 3.24 1.397 4.844l-1.975 1.974a0.81 0.81 0 0 0 1.146 1.146l1.974-1.975c1.604 0.868 3.233 1.338 4.844 1.396q0.169 0.006 0.337 0.006a8.808 8.808 0 0 0 4.624-1.299c4.354-2.633 6.676-8.806 6.222-16.514z m-7.057 15.13c-2.304 1.396-5.03 1.417-7.767 0.078l8.974-8.973a0.81 0.81 0 0 0-1.146-1.146l-8.973 8.979c-1.336-2.734-1.316-5.467 0.078-7.767 2.237-3.692 7.553-5.714 14.308-5.473 0.242 6.749-1.781 12.067-5.473 14.304z"/></svg>