<svg xmlns="http://www.w3.org/2000/svg" width="24" height="24" fill="currentColor" viewBox="0 0 24 24"><path d="M21.72 12A9.72 9.72 0 1 1 12 2.28a9.72 9.72 0 0 1 9.72 9.72" opacity=".2"/><path d="M12 1.47a10.53 10.53 0 0 0 0 21.06c2.178 0 4.465-0.656 6.119-1.754a0.81 0.81 0 0 0-0.898-1.35c-1.374 0.916-3.378 1.484-5.221 1.484A8.91 8.91 0 1 1 20.91 12c0 2.678-1.102 3.24-2.026 3.24s-2.026-0.562-2.025-3.24V7.95a0.81 0.81 0 0 0-1.62 0v0.431a4.86 4.86 0 1 0 0.6 6.591c0.607 1.214 1.656 1.888 3.044 1.888 2.282 0 3.646-1.817 3.646-4.86a10.541 10.541 0 0 0-10.53-10.53zM12 15.24a3.24 3.24 0 1 1 3.24-3.24 3.24 3.24 0 0 1-3.24 3.24"/></svg>