<svg width="24" height="24" viewBox="0 0 24 24" fill="none" xmlns="http://www.w3.org/2000/svg">
<rect x="3" y="3" width="18" height="9" rx="0.8325" fill="black" fill-opacity="0.2"/>
<path d="M9.75 18.0001C9.33579 18.0001 9 18.3359 9 18.7501C9 19.1643 9.33579 19.5001 9.75 19.5001V18.7501V18.0001ZM14.25 19.5001C14.6642 19.5001 15 19.1643 15 18.7501C15 18.3359 14.6642 18.0001 14.25 18.0001V18.7501V19.5001ZM12.75 16.5001C12.75 16.0859 12.4142 15.7501 12 15.7501C11.5858 15.7501 11.25 16.0859 11.25 16.5001H12H12.75ZM11.25 21.0001C11.25 21.4143 11.5858 21.7501 12 21.7501C12.4142 21.7501 12.75 21.4143 12.75 21.0001H12H11.25ZM9.75 18.7501V19.5001H14.25V18.7501V18.0001H9.75V18.7501ZM12 16.5001H11.25V21.0001H12H12.75V16.5001H12ZM3.8325 3.00009V3.75009H20.1675V3.00009V2.25009H3.8325V3.00009ZM21 3.83259H20.25V11.1676H21H21.75V3.83259H21ZM20.1675 12.0001V11.2501H3.8325V12.0001V12.7501H20.1675V12.0001ZM3 11.1676H3.75V3.83259H3H2.25V11.1676H3ZM3.8325 12.0001V11.2501C3.78694 11.2501 3.75 11.2132 3.75 11.1676H3H2.25C2.25 12.0416 2.95851 12.7501 3.8325 12.7501V12.0001ZM21 11.1676H20.25C20.25 11.2132 20.2131 11.2501 20.1675 11.2501V12.0001V12.7501C21.0415 12.7501 21.75 12.0416 21.75 11.1676H21ZM20.1675 3.00009V3.75009C20.2131 3.75009 20.25 3.78703 20.25 3.83259H21H21.75C21.75 2.9586 21.0415 2.25009 20.1675 2.25009V3.00009ZM3.8325 3.00009V2.25009C2.95851 2.25009 2.25 2.9586 2.25 3.83259H3H3.75C3.75 3.78703 3.78694 3.75009 3.8325 3.75009V3.00009ZM8.99945 3L8.24945 3L8.24945 12.25H8.99945H9.74945L9.74945 3L8.99945 3ZM14.9993 3H14.2493V12.25H14.9993H15.7493V3H14.9993ZM3 7.62506V8.37506H20.9998V7.62506V6.87506H3V7.62506Z" fill="black"/>
</svg>
