<svg viewBox="0 0 24 24" fill="none" xmlns="http://www.w3.org/2000/svg" width="24" height="24">
<rect width="16.2" height="8.32495" rx="0.75" transform="matrix(1 0 0 -1 3.90015 20.325)" fill="black" fill-opacity="0.2"/>
<path d="M12.006 8.07C12.337 8.07 12.606 7.801 12.606 7.47V5.633H14.429C14.761 5.633 15.029 5.365 15.029 5.033 15.029 4.702 14.761 4.433 14.429 4.433H12.606V2.61C12.606 2.279 12.337 2.01 12.006 2.01 11.675 2.01 11.406 2.279 11.406 2.61V4.433H9.57C9.239 4.434 8.97 4.702 8.97 5.033 8.97 5.364 9.239 5.633 9.57 5.633H11.406V7.47C11.406 7.801 11.675 8.069 12.006 8.07ZM20.821 22.59C21.649 22.59 22.321 21.918 22.321 21.09V12.9C22.321 12.072 21.649 11.4 20.821 11.4H3.18C2.352 11.4 1.679 12.072 1.679 12.9V21.09C1.679 21.918 2.352 22.59 3.18 22.59H20.821ZM2.88 12.9C2.881 12.734 3.015 12.6 3.18 12.6H8.16V16.396H2.88V12.9ZM9.36 12.6H14.64V16.396H9.36V12.6ZM15.84 12.6H20.821C20.986 12.6 21.121 12.735 21.121 12.9V16.396H15.84V12.6ZM3.18 21.39C3.015 21.39 2.881 21.256 2.88 21.09V17.596H8.16V21.39H3.18ZM9.36 17.596H14.64V21.39H9.36V17.596ZM15.84 17.596H21.121V21.09C21.121 21.255 20.986 21.39 20.821 21.39H15.84V17.596Z" fill="black"/>
</svg>