<svg width="24" height="24" viewBox="0 0 24 24" fill="none" xmlns="http://www.w3.org/2000/svg">
<rect x="2.99976" y="5.25" width="18" height="13.5141" rx="0.833333" fill="black" fill-opacity="0.2"/>
<path d="M8.99976 5.25L8.99976 18.757M14.9998 5.25V9.75114M2.99976 9.75704H21.0054M2.99976 14.2571H8.99741M12.7435 9.75147L8.55365 14.0166M17.2501 9.75014L8.25012 18.7501M21.0001 10.5001L12.7501 18.7501M21.0001 15.0001L17.2501 18.7501M3.83321 18.7641H20.1666C20.6268 18.7641 20.9999 18.391 20.9999 17.9308V6.08333C20.9999 5.6231 20.6268 5.25 20.1666 5.25H3.83321C3.37297 5.25 2.99988 5.6231 2.99988 6.08333V17.9308C2.99988 18.391 3.37298 18.7641 3.83321 18.7641Z" stroke="black" stroke-width="1.5" stroke-linecap="round" stroke-linejoin="round"/>
</svg>
