<svg viewBox="0 0 24 24" fill="none" xmlns="http://www.w3.org/2000/svg" width="24" height="24">
<rect x="3.93469" y="5.92499" width="16.2" height="12.15" rx="0.75" fill="black" fill-opacity="0.2"/>
<path d="M15.366 4.11H20.952C21.73 4.11 22.362 4.741 22.362 5.52V18.48C22.362 19.259 21.73 19.891 20.952 19.891H15.354C15.336 19.893 15.318 19.897 15.299 19.897 15.28 19.897 15.261 19.893 15.243 19.891H8.875C8.856 19.893 8.838 19.897 8.82 19.897 8.801 19.897 8.782 19.893 8.763 19.891H3.131C2.353 19.891 1.722 19.259 1.721 18.48V5.52C1.722 4.741 2.353 4.11 3.131 4.11H8.753C8.775 4.107 8.797 4.103 8.82 4.103 8.842 4.103 8.864 4.107 8.886 4.11H15.232C15.254 4.107 15.276 4.103 15.299 4.103 15.321 4.103 15.344 4.107 15.366 4.11ZM3.131 5.31C3.015 5.31 2.922 5.404 2.921 5.52V8.963H6.895C7.23 8.963 7.502 9.234 7.502 9.57 7.502 9.905 7.231 10.176 6.895 10.177H2.921V13.823H6.895C7.231 13.824 7.502 14.095 7.502 14.43 7.502 14.766 7.23 15.037 6.895 15.037H2.921V18.48C2.922 18.596 3.016 18.691 3.131 18.691H8.213V16.253C8.213 15.917 8.484 15.646 8.82 15.646 9.154 15.646 9.426 15.918 9.427 16.253V18.691H14.692V16.253C14.692 15.917 14.964 15.646 15.299 15.646 15.634 15.646 15.906 15.918 15.906 16.253V18.691H20.952C21.068 18.691 21.162 18.596 21.162 18.48V15.037H17.106C16.77 15.037 16.499 14.766 16.499 14.43 16.499 14.095 16.771 13.824 17.106 13.823H21.162V10.177H17.106C16.77 10.177 16.499 9.905 16.499 9.57 16.499 9.234 16.77 8.963 17.106 8.963H21.162V5.52C21.162 5.404 21.068 5.31 20.952 5.31H15.906V7.747C15.906 8.083 15.634 8.354 15.299 8.354 14.963 8.354 14.692 8.083 14.692 7.747V5.31H9.427V7.747C9.427 8.082 9.155 8.354 8.82 8.354 8.484 8.354 8.213 8.083 8.213 7.747V5.31H3.131ZM13.391 9.753C13.643 9.502 14.052 9.502 14.304 9.753 14.556 10.006 14.556 10.415 14.304 10.668L12.97 12 14.304 13.334C14.556 13.586 14.556 13.994 14.304 14.247 14.052 14.498 13.643 14.499 13.391 14.247L12.057 12.913 10.725 14.247C10.473 14.498 10.063 14.499 9.811 14.247 9.559 13.995 9.56 13.586 9.811 13.334L11.143 12 9.811 10.668C9.559 10.416 9.559 10.006 9.811 9.753 10.063 9.501 10.473 9.502 10.725 9.753L12.057 11.086 13.391 9.753Z" fill="black"/>
</svg>