<svg width="24" height="24" viewBox="0 0 24 24" fill="none" xmlns="http://www.w3.org/2000/svg">
<rect width="12.0013" height="13.5" rx="0.833332" transform="matrix(-1 0 0 1 21.75 5.25)" fill="black" fill-opacity="0.2"/>
<path d="M6.75 12.75C7.16421 12.75 7.5 12.4142 7.5 12C7.5 11.5858 7.16421 11.25 6.75 11.25V12V12.75ZM2.25 11.25C1.83579 11.25 1.5 11.5858 1.5 12C1.5 12.4142 1.83579 12.75 2.25 12.75V12V11.25ZM3.75 14.25C3.75 14.6642 4.08578 15 4.5 15C4.91421 15 5.25 14.6642 5.25 14.25H4.5H3.75ZM5.25 9.75C5.25 9.33579 4.91421 9 4.5 9C4.08578 9 3.75 9.33579 3.75 9.75H4.5H5.25ZM6.75 12V11.25H2.25V12V12.75H6.75V12ZM4.5 14.25H5.25V9.75H4.5H3.75V14.25H4.5ZM20.9167 5.25V4.5H10.582V5.25V6H20.9167V5.25ZM9.74867 6.08333H8.99867V17.9167H9.74867H10.4987V6.08333H9.74867ZM10.582 18.75V19.5H20.9167V18.75V18H10.582V18.75ZM21.75 17.9167H22.5V6.08333H21.75H21V17.9167H21.75ZM20.9167 18.75V19.5C21.7911 19.5 22.5 18.7911 22.5 17.9167H21.75H21C21 17.9627 20.9627 18 20.9167 18V18.75ZM9.74867 17.9167H8.99867C8.99867 18.7911 9.70755 19.5 10.582 19.5V18.75V18C10.536 18 10.4987 17.9627 10.4987 17.9167H9.74867ZM10.582 5.25V4.5C9.70754 4.5 8.99867 5.20888 8.99867 6.08333H9.74867H10.4987C10.4987 6.03731 10.536 6 10.582 6V5.25ZM20.9167 5.25V6C20.9627 6 21 6.03731 21 6.08333H21.75H22.5C22.5 5.20888 21.7911 4.5 20.9167 4.5V5.25ZM15.7496 5.25L14.9996 5.25L14.9996 18.75H15.7496H16.4996L16.4996 5.25L15.7496 5.25ZM21.7498 9.75005V9.00005H9.74848V9.75005V10.5H21.7498V9.75005ZM21.7498 14.25V13.5H9.74848V14.25V15H21.7498V14.25Z" fill="black"/>
</svg>
