<svg viewBox="0 0 24 24" fill="none" xmlns="http://www.w3.org/2000/svg" width="24" height="24">
<rect x="3.90784" y="5.85876" width="16.2" height="12.15" rx="0.75" fill="black" fill-opacity="0.2"/>
<path d="M12.717 15.844C13.164 15.844 13.527 16.206 13.527 16.653V20.097C13.527 20.544 13.164 20.906 12.717 20.906H11.299C10.852 20.906 10.49 20.543 10.489 20.097V16.653C10.489 16.206 10.852 15.844 11.299 15.844H12.717ZM8.768 4.12C8.851 4.12 8.93 4.138 9.002 4.168 9.074 4.199 9.138 4.243 9.192 4.297 9.301 4.406 9.368 4.556 9.368 4.721V9.57C9.368 9.573 9.369 9.577 9.369 9.581 9.369 9.585 9.368 9.588 9.368 9.592V19.302C9.368 19.509 9.263 19.692 9.103 19.8 9.008 19.864 8.892 19.902 8.768 19.902H3.081C2.303 19.902 1.671 19.269 1.671 18.491V5.53C1.672 4.752 2.303 4.121 3.081 4.12H8.768ZM20.902 4.12C21.68 4.12 22.311 4.752 22.311 5.53V9.444C22.321 9.488 22.328 9.533 22.328 9.58 22.328 9.626 22.321 9.672 22.311 9.715V14.306C22.321 14.35 22.329 14.395 22.329 14.442 22.329 14.489 22.321 14.534 22.311 14.577V18.491C22.311 19.269 21.68 19.902 20.902 19.902H15.248C15.042 19.902 14.859 19.797 14.752 19.638 14.687 19.542 14.649 19.426 14.648 19.302V4.721C14.648 4.418 14.874 4.169 15.166 4.129 15.194 4.124 15.223 4.12 15.252 4.12H20.902ZM2.871 18.491C2.871 18.607 2.965 18.702 3.081 18.702H8.168V15.041H2.871V18.491ZM15.848 18.702H20.902C21.017 18.702 21.111 18.607 21.111 18.491V15.042H15.848V18.702ZM15.848 13.842H21.111V10.18H15.848V13.842ZM2.871 13.841H8.168V10.181H2.871V13.841ZM12.73 10.44C12.964 10.207 13.344 10.206 13.578 10.44 13.813 10.674 13.813 11.055 13.578 11.29L12.857 12.011 13.578 12.732C13.812 12.967 13.813 13.347 13.578 13.581 13.344 13.815 12.964 13.815 12.73 13.581L12.008 12.859 11.287 13.581C11.053 13.815 10.673 13.815 10.439 13.581 10.205 13.347 10.205 12.967 10.439 12.732L11.16 12.011 10.439 11.29C10.205 11.055 10.205 10.676 10.439 10.441 10.673 10.207 11.053 10.207 11.287 10.441L12.008 11.162 12.73 10.44ZM3.081 5.32C2.965 5.321 2.872 5.415 2.871 5.53V8.981H8.168V5.32H3.081ZM15.848 8.98H21.111V5.53C21.111 5.415 21.017 5.32 20.902 5.32H15.848V8.98ZM12.717 3.094C13.164 3.094 13.527 3.456 13.527 3.904V7.346C13.527 7.794 13.164 8.156 12.717 8.156H11.299C10.852 8.156 10.49 7.794 10.489 7.346V3.904C10.49 3.456 10.852 3.094 11.299 3.094H12.717Z" fill="black"/>
</svg>