<svg width="24" height="24" viewBox="0 0 24 24" fill="none" xmlns="http://www.w3.org/2000/svg">
<path d="M3.75 18.7505H9.01531H15.0159H20.25C20.6642 18.7505 21 18.4147 21 18.0005V5.99951C21 5.5853 20.6642 5.24951 20.25 5.24951H15.0191H9.01531H3.75C3.33579 5.24951 3 5.5853 3 5.99951V18.0005C3 18.4147 3.33579 18.7505 3.75 18.7505Z" fill="black" fill-opacity="0.2"/>
<path d="M9.05402 5.25007V8.06257M9.05402 15.938V18.7505M15.0542 5.25007V8.06257M15.0542 15.938V18.7505M3.0542 9.74998H7.27295M16.7271 9.74915H20.9458M3.0542 14.25H7.27295M16.7274 14.2509H20.9462M10.3431 13.6575L13.6576 10.343M10.3431 10.3432L13.6576 13.6577M3.75 18.7505C3.33579 18.7505 3 18.4147 3 18.0005V5.99951C3 5.5853 3.33579 5.24951 3.75 5.24951H20.25C20.6642 5.24951 21 5.5853 21 5.99951V18.0005C21 18.4147 20.6642 18.7505 20.25 18.7505H3.75Z" stroke="black" stroke-width="1.5" stroke-linecap="round" stroke-linejoin="round"/>
</svg>
