<svg viewBox="0 0 24 24" fill="none" xmlns="http://www.w3.org/2000/svg" width="24" height="24">
<path d="M20.573 9.454C20.808 9.219 21.187 9.22 21.422 9.454 21.656 9.688 21.656 10.068 21.422 10.302L19.724 11.999 21.422 13.697C21.656 13.931 21.656 14.311 21.422 14.546 21.187 14.779 20.808 14.78 20.573 14.546L18.876 12.847 17.18 14.546C16.945 14.78 16.565 14.779 16.331 14.546 16.097 14.311 16.097 13.931 16.331 13.697L18.028 11.999 16.331 10.302C16.097 10.068 16.097 9.688 16.331 9.454 16.566 9.22 16.945 9.219 17.18 9.454L18.876 11.151 20.573 9.454Z" fill="black"/>
<rect x="7.20203" y="13.2655" width="2.53125" height="6.40247" rx="0.675" transform="rotate(-90 7.20203 13.2655)" fill="black"/>
<path d="M3.002 5.649C3.002 5.152 3.405 4.749 3.902 4.749H8.582C9.08 4.749 9.482 5.152 9.482 5.649V7.669C9.482 8.166 9.08 8.569 8.582 8.569H3.902C3.405 8.569 3.002 8.166 3.002 7.669V5.649Z" fill="black" fill-opacity="0.2"/>
<path d="M8.883 5.649C8.883 5.484 8.748 5.35 8.583 5.349H3.902C3.737 5.349 3.602 5.484 3.602 5.649V7.668C3.602 7.834 3.737 7.968 3.902 7.968H8.583C8.748 7.968 8.883 7.834 8.883 7.668V5.649ZM10.083 7.668C10.083 8.497 9.411 9.168 8.583 9.168H3.902C3.074 9.168 2.402 8.497 2.402 7.668V5.649C2.402 4.821 3.074 4.149 3.902 4.149H8.583C9.411 4.15 10.083 4.821 10.083 5.649V7.668Z" fill="black"/>
<path d="M3.002 16.331C3.002 15.834 3.405 15.431 3.902 15.431H8.582C9.08 15.431 9.482 15.834 9.482 16.331V18.351C9.482 18.848 9.08 19.251 8.582 19.251H3.902C3.405 19.251 3.002 18.848 3.002 18.351V16.331Z" fill="black" fill-opacity="0.2"/>
<path d="M8.883 16.331C8.883 16.166 8.748 16.032 8.583 16.031H3.902C3.737 16.031 3.602 16.166 3.602 16.331V18.351C3.602 18.516 3.737 18.651 3.902 18.651H8.583C8.748 18.65 8.883 18.516 8.883 18.351V16.331ZM10.083 18.351C10.083 19.179 9.411 19.85 8.583 19.851H3.902C3.074 19.851 2.402 19.179 2.402 18.351V16.331C2.402 15.503 3.074 14.831 3.902 14.831H8.583C9.411 14.832 10.083 15.503 10.083 16.331V18.351Z" fill="black"/>
</svg>