<svg xmlns="http://www.w3.org/2000/svg" width="24" height="24" fill="currentColor" viewBox="0 0 24 24"><path d="M20.1 5.52v12.96H3.9V5.52z" opacity=".2"/><path d="M18.48 1.47H5.52A2.43 2.43 0 0 0 3.09 3.9v16.2A2.43 2.43 0 0 0 5.52 22.53h12.96a2.43 2.43 0 0 0 2.43-2.43V3.9A2.43 2.43 0 0 0 18.48 1.47M4.71 6.33h14.58v11.34H4.71z m0.81-3.24h12.96a0.81 0.81 0 0 1 0.81 0.81v0.81H4.71V3.9a0.81 0.81 0 0 1 0.81-0.81m12.96 17.82H5.52a0.81 0.81 0 0 1-0.81-0.81v-0.81h14.58v0.81a0.81 0.81 0 0 1-0.81 0.81"/></svg>