<svg width="24" height="24" viewBox="0 0 24 24" fill="none" xmlns="http://www.w3.org/2000/svg">
<rect x="21" y="18.75" width="17.9999" height="13.5" rx="0.833333" transform="rotate(180 21 18.75)" fill="black" fill-opacity="0.2"/>
<path d="M13.1249 10.875H17.2499M6.74994 10.875H10.2272M10.8749 8.625H17.2499M6.74994 8.625L8.18177 8.625M14.9999 13.125H17.2499M6.74994 13.125H12.2727M6.74994 15.375H14.3181M17.2148 15.375H17.2499M7.03119 7.35937L15.4687 16.6406M20.1666 5.25H3.83333C3.3731 5.25 3 5.6231 3 6.08333V17.9167C3 18.3769 3.3731 18.75 3.83333 18.75H20.1666C20.6268 18.75 20.9999 18.3769 20.9999 17.9167V6.08333C20.9999 5.6231 20.6268 5.25 20.1666 5.25Z" stroke="black" stroke-width="1.5" stroke-linecap="round" stroke-linejoin="round"/>
</svg>
