<svg width="24" height="24" viewBox="0 0 24 24" fill="none" xmlns="http://www.w3.org/2000/svg">
<rect x="3" y="5.25" width="18" height="13.5141" rx="0.833332" fill="black" fill-opacity="0.2"/>
<path d="M9.00012 14.2353L9.00012 18.7291M15.0001 14.2353V18.7291M2.99976 9.72913H20.9998M2.99976 14.2291H20.9998M9.00012 5.25L9.00012 9.7159M15.0001 5.25V9.7438M6.75745 10.0385L3.30303 13.555M11.267 10.0479L7.12512 14.1898M15.767 10.0479L11.6333 14.1816M20.267 10.0479L16.1333 14.1816M3.83345 18.7641H20.1668C20.627 18.7641 21.0001 18.391 21.0001 17.9308V6.08333C21.0001 5.6231 20.627 5.25 20.1668 5.25H3.83345C3.37322 5.25 3.00012 5.62309 3.00012 6.08333V17.9308C3.00012 18.391 3.37322 18.7641 3.83345 18.7641Z" stroke="black" stroke-width="1.5" stroke-linecap="round" stroke-linejoin="round"/>
</svg>
