<svg viewBox="0 0 24 24" fill="none" xmlns="http://www.w3.org/2000/svg" width="24" height="24">
<path d="M21.72 13.529V5.61C21.72 5.113 21.317 4.71 20.82 4.71H3.18C2.683 4.71 2.28 5.113 2.28 5.61V18.39C2.28 18.887 2.683 19.29 3.18 19.29H14.342C14.839 19.29 15.242 18.887 15.242 18.39L15.241 15.329C15.24 14.832 15.643 14.429 16.141 14.429H20.82C21.317 14.429 21.72 14.026 21.72 13.529Z" fill="black" fill-opacity="0.2"/>
<path d="M20.025 16.441C20.356 16.442 20.625 16.71 20.625 17.041V18.823H22.405C22.736 18.823 23.005 19.091 23.005 19.423 23.005 19.754 22.736 20.023 22.405 20.023H20.625V21.804C20.625 22.135 20.356 22.404 20.025 22.404 19.694 22.404 19.425 22.135 19.425 21.804V20.023H17.643C17.312 20.022 17.043 19.754 17.043 19.423 17.043 19.091 17.311 18.823 17.643 18.823H19.425V17.041C19.425 16.71 19.694 16.441 20.025 16.441ZM20.821 4.11C21.649 4.11 22.321 4.782 22.321 5.61V14.43C22.32 14.761 22.051 15.03 21.721 15.03H15.84V19.29C15.84 19.62 15.573 19.888 15.243 19.889V19.89H3.18C2.352 19.89 1.68 19.218 1.679 18.39V5.61C1.679 4.781 2.352 4.11 3.18 4.11H20.821ZM2.88 18.39C2.881 18.556 3.015 18.69 3.18 18.69H8.161V15.03H2.88V18.39ZM9.361 18.69H14.64V15.03H9.361V18.69ZM2.88 13.83H8.161V10.17H2.88V13.83ZM9.361 13.83H14.64V10.17H9.361V13.83ZM15.84 13.83H21.121V10.17H15.84V13.83ZM3.18 5.31C3.015 5.31 2.881 5.444 2.88 5.61V8.97H8.161V5.31H3.18ZM9.361 8.97H14.64V5.31H9.361V8.97ZM15.84 8.97H21.121V5.61C21.121 5.444 20.986 5.31 20.821 5.31H15.84V8.97Z" fill="black"/>
</svg>