<svg width="24" height="24" viewBox="0 0 24 24" fill="none" xmlns="http://www.w3.org/2000/svg">
<path d="M8.56391 9.91826C8.9802 9.92123 9.31926 9.58458 9.31926 9.16828V6.67499C9.31926 6.26077 9.65505 5.92499 10.0693 5.92499H19.35C19.7642 5.92499 20.1 6.26077 20.1 6.67499V17.325C20.1 17.7392 19.7642 18.075 19.35 18.075H4.65002C4.23581 18.075 3.90002 17.7392 3.90002 17.325V10.6404C3.90002 10.2241 4.23908 9.88743 4.65537 9.8904L8.56391 9.91826Z" fill="black" fill-opacity="0.2"/>
<path d="M19.3506 5.43164C20.0407 5.43197 20.6006 5.99149 20.6006 6.68164V17.332C20.6003 18.0219 20.0405 18.5817 19.3506 18.582H4.65039C3.96021 18.582 3.40067 18.0222 3.40039 17.332V6.68164C3.40039 5.99129 3.96003 5.43164 4.65039 5.43164H19.3506ZM4.40039 17.332C4.40067 17.4699 4.51249 17.582 4.65039 17.582H8.7998V14.5312H4.40039V17.332ZM9.7998 17.582H14.2002V14.5312H9.7998V17.582ZM15.2002 17.582H19.3506C19.4882 17.5817 19.6003 17.4697 19.6006 17.332V14.5312H15.2002V17.582ZM4.40039 13.5312H8.7998V10.4814H4.40039V13.5312ZM9.7998 13.5312H14.2002V10.4814H9.7998V13.5312ZM15.2002 13.5312H19.6006V10.4814H15.2002V13.5312ZM9.7998 9.48145H14.2002V6.43164H9.7998V9.48145ZM15.2002 9.48145H19.6006V6.68164C19.6006 6.54377 19.4884 6.43197 19.3506 6.43164H15.2002V9.48145ZM4.40039 9.48145H7.44336L4.40039 7.4248V9.48145ZM8.7998 8.58691V6.43164H5.61035L8.7998 8.58691Z" fill="black"/>
</svg>
