<svg viewBox="0 0 24 24" fill="none" xmlns="http://www.w3.org/2000/svg" width="24" height="24">
<path d="M7.877 9.502C8.376 9.505 8.783 9.101 8.783 8.602V5.61C8.783 5.113 9.186 4.71 9.683 4.71H20.82C21.317 4.71 21.72 5.113 21.72 5.61V18.39C21.72 18.887 21.317 19.29 20.82 19.29H3.18C2.683 19.29 2.28 18.887 2.28 18.39V10.368C2.28 9.869 2.687 9.465 3.186 9.468L7.877 9.502Z" fill="black" fill-opacity="0.2"/>
<path d="M20.821 4.118C21.649 4.118 22.321 4.79 22.321 5.618V18.398C22.32 19.226 21.649 19.898 20.821 19.898H3.18C2.352 19.898 1.681 19.227 1.68 18.398V5.618C1.68 4.79 2.352 4.118 3.18 4.118H20.821ZM2.88 18.398C2.881 18.564 3.015 18.698 3.18 18.698H8.16V15.037H2.88V18.398ZM9.36 18.698H14.64V15.037H9.36V18.698ZM15.84 18.698H20.821C20.986 18.698 21.12 18.564 21.121 18.398V15.037H15.84V18.698ZM2.88 13.837H8.16V10.178H2.88V13.837ZM9.36 13.837H14.64V10.178H9.36V13.837ZM15.84 13.837H21.121V10.178H15.84V13.837ZM9.36 8.978H14.64V5.318H9.36V8.978ZM15.84 8.978H21.121V5.618C21.121 5.453 20.986 5.318 20.821 5.318H15.84V8.978ZM2.88 8.978H6.532L2.88 6.51V8.978ZM8.16 7.904V5.318H4.332L8.16 7.904Z" fill="black"/>
</svg>