<svg viewBox="0 0 24 24" fill="none" xmlns="http://www.w3.org/2000/svg" width="24" height="24">
<rect x="3.90002" y="6.23718" width="16.2" height="12.15" rx="0.75" fill="black" fill-opacity="0.2"/>
<path d="M3.179 19.89C2.351 19.89 1.679 19.218 1.679 18.39V5.61C1.68 4.782 2.351 4.11 3.179 4.11H20.82C21.648 4.11 22.319 4.782 22.32 5.61V18.39C22.319 19.218 21.648 19.89 20.82 19.89H3.179ZM20.82 18.69C20.985 18.69 21.119 18.556 21.12 18.39V5.61C21.119 5.444 20.985 5.31 20.82 5.31H3.179C3.014 5.31 2.88 5.445 2.879 5.61V18.39C2.879 18.556 3.014 18.69 3.179 18.69H20.82ZM17.664 17.664C17.429 17.898 17.028 17.876 16.767 17.616L6.384 7.233C6.124 6.972 6.102 6.571 6.336 6.336 6.571 6.102 6.972 6.124 7.233 6.384L7.448 6.6H16.8C17.131 6.6 17.4 6.869 17.4 7.2 17.4 7.531 17.131 7.8 16.8 7.8H8.648L9.848 9H16.8C17.131 9 17.4 9.269 17.4 9.6 17.4 9.931 17.131 10.2 16.8 10.2H11.048L12.248 11.4H16.8C17.131 11.4 17.4 11.669 17.4 12 17.4 12.331 17.131 12.6 16.8 12.6H13.448L14.648 13.8H16.8C17.131 13.8 17.4 14.069 17.4 14.4 17.4 14.731 17.131 15 16.8 15H15.848L17.616 16.767C17.876 17.028 17.898 17.429 17.664 17.664ZM7.2 12.6C6.869 12.6 6.6 12.331 6.6 12 6.6 11.669 6.869 11.4 7.2 11.4H8.344L9.544 12.6H7.2ZM7.2 15C6.869 15 6.6 14.731 6.6 14.4 6.6 14.069 6.869 13.8 7.2 13.8H10.744L11.944 15H7.2ZM7.2 17.4C6.869 17.4 6.6 17.131 6.6 16.8 6.6 16.469 6.869 16.2 7.2 16.2H13.144L14.344 17.4H7.2Z" fill="black"/>
</svg>