<svg viewBox="0 0 24 24" fill="none" xmlns="http://www.w3.org/2000/svg" width="24" height="24">
<path d="M8.1 11.393C7.603 11.393 7.2 10.99 7.2 10.493V2.701C7.2 2.204 7.603 1.801 8.1 1.801H15.9C16.397 1.801 16.8 2.204 16.8 2.701V10.493C16.8 10.99 16.397 11.393 15.9 11.393H8.1ZM2.773 22.8C2.276 22.8 1.873 22.397 1.873 21.9V15.292C1.873 14.795 2.276 14.392 2.773 14.392H21.227C21.724 14.392 22.127 14.795 22.127 15.292V18.261C22.127 18.758 21.724 19.161 21.227 19.161H12.527C12.03 19.161 11.627 19.564 11.627 20.061V21.9C11.627 22.397 11.224 22.8 10.727 22.8H2.773Z" fill="black" fill-opacity="0.2"/>
<path d="M8.113 12C7.284 12 6.613 11.328 6.613 10.5V2.716C6.613 1.888 7.285 1.216 8.113 1.216H15.897C16.725 1.216 17.396 1.888 17.397 2.716V10.5C17.397 11.328 16.725 12 15.897 12H8.113ZM16.197 2.716C16.196 2.551 16.062 2.416 15.897 2.416H12.597V5.996H16.197V2.716ZM11.397 2.416H8.113C7.947 2.416 7.813 2.551 7.813 2.716V5.996H11.397V2.416ZM15.897 10.8C16.062 10.8 16.197 10.666 16.197 10.5V7.196H12.597V10.8H15.897ZM11.397 7.196H7.813V10.5C7.813 10.666 7.947 10.8 8.113 10.8H11.397V7.196ZM1.805 15.591C1.473 15.591 1.205 15.322 1.205 14.991 1.205 14.659 1.473 14.391 1.805 14.391H22.205C22.536 14.391 22.805 14.659 22.805 14.991 22.805 15.322 22.536 15.591 22.205 15.591H1.805ZM1.805 19.191C1.473 19.191 1.205 18.922 1.205 18.591 1.205 18.259 1.473 17.991 1.805 17.991H22.205C22.536 17.991 22.805 18.259 22.805 18.591 22.805 18.922 22.536 19.191 22.205 19.191H1.805ZM1.805 22.791C1.473 22.791 1.205 22.522 1.205 22.191 1.205 21.859 1.473 21.591 1.805 21.591H11.405C11.736 21.591 12.005 21.859 12.005 22.191 12.005 22.522 11.736 22.791 11.405 22.791H1.805Z" fill="black"/>
</svg>