<svg width="24" height="24" viewBox="0 0 24 24" fill="none" xmlns="http://www.w3.org/2000/svg">
<path d="M3.75 5.38367C3.75 4.89563 4.14563 4.5 4.63367 4.5H8.86633C9.35437 4.5 9.75 4.89563 9.75 5.38367V7.36633C9.75 7.85437 9.35437 8.25 8.86633 8.25H4.63367C4.14563 8.25 3.75 7.85437 3.75 7.36633V5.38367Z" fill="black" fill-opacity="0.2"/>
<path d="M3.75 17.3751C3.75 16.8918 4.1418 16.5 4.6251 16.5H8.8749C9.3582 16.5 9.75 16.8918 9.75 17.3751V19.3749C9.75 19.8582 9.3582 20.25 8.8749 20.25H4.6251C4.1418 20.25 3.75 19.8582 3.75 19.3749V17.3751Z" fill="black" fill-opacity="0.2"/>
<path d="M19.6787 14.4283L15.7503 10.5M15.75 14.4283L19.6784 10.5M7.5 12.375H12.75M4.63367 8.25H8.86633C9.35437 8.25 9.75 7.85437 9.75 7.36633V5.38367C9.75 4.89563 9.35437 4.5 8.86633 4.5H4.63367C4.14563 4.5 3.75 4.89563 3.75 5.38367V7.36633C3.75 7.85437 4.14563 8.25 4.63367 8.25ZM4.6251 20.25H8.8749C9.3582 20.25 9.75 19.8582 9.75 19.3749V17.3751C9.75 16.8918 9.3582 16.5 8.8749 16.5H4.6251C4.1418 16.5 3.75 16.8918 3.75 17.3751V19.3749C3.75 19.8582 4.1418 20.25 4.6251 20.25ZM13.125 13.125V11.625C13.125 11.4179 12.9571 11.25 12.75 11.25H7.5C7.29289 11.25 7.125 11.4179 7.125 11.625L7.125 13.125C7.125 13.3321 7.29289 13.5 7.5 13.5H12.75C12.9571 13.5 13.125 13.3321 13.125 13.125Z" stroke="black" stroke-width="1.5" stroke-linecap="round"/>
</svg>
