<svg viewBox="0 0 24 24" fill="none" xmlns="http://www.w3.org/2000/svg" width="24" height="24">
<rect x="3.90002" y="5.79358" width="16.2" height="12.15" rx="0.75" fill="black" fill-opacity="0.2"/>
<path d="M3.179 4.11C2.351 4.11 1.679 4.782 1.679 5.61V18.39C1.68 19.218 2.351 19.89 3.179 19.89H20.82C21.648 19.89 22.319 19.218 22.32 18.39V5.61C22.319 4.781 21.648 4.11 20.82 4.11H3.179ZM20.82 5.31C20.985 5.31 21.119 5.444 21.12 5.61V18.39C21.119 18.556 20.985 18.69 20.82 18.69H3.179C3.014 18.69 2.88 18.555 2.879 18.39V5.61C2.879 5.444 3.014 5.31 3.179 5.31H20.82ZM12.773 13.83C12.442 13.831 12.173 14.099 12.173 14.43 12.174 14.762 12.442 15.03 12.773 15.03H18.773C19.105 15.03 19.373 14.762 19.373 14.43 19.373 14.099 19.105 13.83 18.773 13.83H12.773ZM6.773 11.4C6.442 11.4 6.173 11.669 6.173 12 6.173 12.331 6.442 12.6 6.773 12.6H18.773C19.105 12.6 19.373 12.331 19.373 12 19.373 11.669 19.105 11.4 18.773 11.4H6.773ZM12.773 8.97C12.442 8.97 12.174 9.238 12.173 9.57 12.173 9.901 12.442 10.169 12.773 10.17H18.773C19.105 10.17 19.373 9.901 19.373 9.57 19.373 9.238 19.105 8.97 18.773 8.97H12.773Z" fill="black"/>
</svg>