<svg width="24" height="24" viewBox="0 0 24 24" fill="none" xmlns="http://www.w3.org/2000/svg">
<rect x="3.00293" y="5.24268" width="18" height="13.5141" rx="1.5" fill="black" fill-opacity="0.2"/>
<path d="M12.5695 5.77568C12.8597 5.4802 12.8555 5.00534 12.56 4.71506C12.2645 4.42479 11.7897 4.42901 11.4994 4.7245L12.0344 5.25009L12.5695 5.77568ZM8.49207 7.78581C8.20179 8.0813 8.20602 8.55615 8.5015 8.84643C8.79699 9.13671 9.27185 9.13248 9.56212 8.837L9.0271 8.3114L8.49207 7.78581ZM15.5567 7.28042C15.8496 6.98753 15.8496 6.51265 15.5567 6.21976C15.2638 5.92687 14.7889 5.92687 14.496 6.21976L15.0264 6.75009L15.5567 7.28042ZM8.49604 12.2198C8.20314 12.5127 8.20314 12.9875 8.49604 13.2804C8.78893 13.5733 9.2638 13.5733 9.5567 13.2804L9.02637 12.7501L8.49604 12.2198ZM15.5567 11.7804C15.8496 11.4875 15.8496 11.0127 15.5567 10.7198C15.2638 10.4269 14.7889 10.4269 14.496 10.7198L15.0264 11.2501L15.5567 11.7804ZM8.49604 16.7198C8.20314 17.0127 8.20314 17.4875 8.49604 17.7804C8.78893 18.0733 9.2638 18.0733 9.5567 17.7804L9.02637 17.2501L8.49604 16.7198ZM15.5567 16.2804C15.8496 15.9875 15.8496 15.5127 15.5567 15.2198C15.2638 14.9269 14.7889 14.9269 14.496 15.2198L15.0264 15.7501L15.5567 16.2804ZM11.496 18.2198C11.2031 18.5127 11.2031 18.9875 11.496 19.2804C11.7889 19.5733 12.2638 19.5733 12.5567 19.2804L12.0264 18.7501L11.496 18.2198ZM9.74927 5.24268C9.74927 4.82846 9.41348 4.49268 8.99927 4.49268C8.58505 4.49268 8.24927 4.82846 8.24927 5.24268L8.99927 5.24268L9.74927 5.24268ZM8.24927 18.7574C8.24927 19.1716 8.58505 19.5074 8.99927 19.5074C9.41348 19.5074 9.74927 19.1716 9.74927 18.7574H8.99927H8.24927ZM15.7493 5.24268C15.7493 4.82846 15.4135 4.49268 14.9993 4.49268C14.5851 4.49268 14.2493 4.82846 14.2493 5.24268H14.9993H15.7493ZM14.2493 18.7574C14.2493 19.1716 14.5851 19.5074 14.9993 19.5074C15.4135 19.5074 15.7493 19.1716 15.7493 18.7574H14.9993H14.2493ZM4.50293 5.24268V5.99268H19.5029V5.24268V4.49268H4.50293V5.24268ZM21.0029 6.74268H20.2529V17.2568H21.0029H21.7529V6.74268H21.0029ZM19.5029 18.7568V18.0068H4.50293V18.7568V19.5068H19.5029V18.7568ZM3.00293 17.2568H3.75293V6.74268H3.00293H2.25293V17.2568H3.00293ZM4.50293 18.7568V18.0068C4.08872 18.0068 3.75293 17.671 3.75293 17.2568H3.00293H2.25293C2.25293 18.4994 3.26029 19.5068 4.50293 19.5068V18.7568ZM21.0029 17.2568H20.2529C20.2529 17.671 19.9172 18.0068 19.5029 18.0068V18.7568V19.5068C20.7456 19.5068 21.7529 18.4994 21.7529 17.2568H21.0029ZM19.5029 5.24268V5.99268C19.9172 5.99268 20.2529 6.32846 20.2529 6.74268H21.0029H21.7529C21.7529 5.50004 20.7456 4.49268 19.5029 4.49268V5.24268ZM4.50293 5.24268V4.49268C3.26029 4.49268 2.25293 5.50004 2.25293 6.74268H3.00293H3.75293C3.75293 6.32846 4.08872 5.99268 4.50293 5.99268V5.24268ZM12.0344 5.25009L11.4994 4.7245L8.49207 7.78581L9.0271 8.3114L9.56212 8.837L12.5695 5.77568L12.0344 5.25009ZM15.0264 6.75009L14.496 6.21976L8.49604 12.2198L9.02637 12.7501L9.5567 13.2804L15.5567 7.28042L15.0264 6.75009ZM15.0264 11.2501L14.496 10.7198L8.49604 16.7198L9.02637 17.2501L9.5567 17.7804L15.5567 11.7804L15.0264 11.2501ZM15.0264 15.7501L14.496 15.2198L11.496 18.2198L12.0264 18.7501L12.5567 19.2804L15.5567 16.2804L15.0264 15.7501ZM8.99927 5.24268L8.24927 5.24268L8.24927 18.7574H8.99927H9.74927L9.74927 5.24268L8.99927 5.24268ZM14.9993 5.24268H14.2493V18.7574H14.9993H15.7493V5.24268H14.9993ZM15.0022 9.75742V10.5074H20.9996V9.75742V9.00742H15.0022V9.75742ZM15.0022 14.2574V15.0074H20.9996V14.2574V13.5074H15.0022V14.2574ZM3.00293 9.75742V10.5074H9.00033V9.75742V9.00742H3.00293V9.75742ZM3.00293 14.2574V15.0074H9.00033V14.2574V13.5074H3.00293V14.2574Z" fill="black"/>
</svg>
