<svg width="24" height="24" viewBox="0 0 24 24" fill="none" xmlns="http://www.w3.org/2000/svg">
<rect x="3.00293" y="5.24268" width="18" height="13.5141" rx="1.5" fill="black" fill-opacity="0.2"/>
<path d="M12.0344 5.25009L8.99927 8.28525M14.9993 6.77719L8.99927 12.7772M14.9993 11.2772L8.99927 17.2772M14.9993 15.7772L12.0264 18.7501M8.99927 5.24268L8.99927 18.7574M14.9993 5.24268V18.7574M15.0022 9.75742H20.9996M15.0022 14.2574H20.9996M3.00293 9.75742H9.00033M3.00293 14.2574H9.00033M4.50293 18.7568H19.5029C20.3314 18.7568 21.0029 18.0852 21.0029 17.2568V6.74268C21.0029 5.91425 20.3314 5.24268 19.5029 5.24268H4.50293C3.6745 5.24268 3.00293 5.91425 3.00293 6.74268V17.2568C3.00293 18.0852 3.6745 18.7568 4.50293 18.7568Z" stroke="black" stroke-width="1.5" stroke-linecap="round" stroke-linejoin="round"/>
</svg>
