<svg viewBox="0 0 24 24" fill="none" xmlns="http://www.w3.org/2000/svg" width="24" height="24">
<rect x="3.90002" y="5.77747" width="16.2" height="12.15" rx="0.75" fill="black" fill-opacity="0.2"/>
<path fill-rule="evenodd" clip-rule="evenodd" d="M3.179 4.11C2.351 4.11 1.679 4.782 1.679 5.61V18.39C1.68 19.218 2.351 19.89 3.179 19.89H20.82C21.648 19.89 22.319 19.218 22.32 18.39V5.61C22.319 4.781 21.648 4.11 20.82 4.11H3.179ZM20.82 5.31C20.985 5.31 21.119 5.444 21.12 5.61V18.39C21.119 18.556 20.985 18.69 20.82 18.69H3.179C3.014 18.69 2.88 18.555 2.879 18.39V5.61C2.879 5.444 3.014 5.31 3.179 5.31H20.82ZM9 13.83C8.669 13.83 8.4 14.099 8.4 14.43 8.4 14.762 8.669 15.03 9 15.03H15C15.331 15.03 15.6 14.762 15.6 14.43 15.6 14.099 15.331 13.83 15 13.83H9ZM6 11.4C5.669 11.4 5.4 11.669 5.4 12 5.4 12.331 5.669 12.6 6 12.6H18C18.331 12.6 18.6 12.331 18.6 12 18.6 11.669 18.331 11.4 18 11.4H6ZM9 8.97C8.669 8.97 8.4 9.238 8.4 9.57 8.4 9.901 8.669 10.17 9 10.17H15C15.331 10.17 15.6 9.901 15.6 9.57 15.6 9.238 15.331 8.97 15 8.97H9Z" fill="black"/>
</svg>