<svg viewBox="0 0 24 24" fill="none" xmlns="http://www.w3.org/2000/svg" width="24" height="24">
<rect x="3.90002" y="5.94104" width="16.2" height="12.15" rx="0.75" fill="black" fill-opacity="0.2"/>
<path d="M3.179 19.89C2.351 19.89 1.679 19.218 1.679 18.39V5.61C1.68 4.782 2.351 4.11 3.179 4.11H20.82C21.648 4.11 22.319 4.782 22.32 5.61V18.39C22.319 19.218 21.648 19.89 20.82 19.89H3.179ZM20.82 18.69C20.985 18.69 21.119 18.556 21.12 18.39V5.61C21.119 5.444 20.985 5.31 20.82 5.31H3.179C3.014 5.31 2.88 5.445 2.879 5.61V18.39C2.879 18.556 3.014 18.69 3.179 18.69H20.82ZM9 12.078C8.669 12.078 8.4 11.81 8.4 11.478 8.4 11.147 8.669 10.878 9 10.878H15C15.331 10.878 15.6 11.147 15.6 11.478 15.6 11.81 15.331 12.078 15 12.078H9ZM6 14.509C5.669 14.509 5.4 14.24 5.4 13.909 5.4 13.578 5.669 13.309 6 13.309H18C18.331 13.309 18.6 13.578 18.6 13.909 18.6 14.24 18.331 14.509 18 14.509H6ZM9 16.938C8.669 16.938 8.4 16.67 8.4 16.338 8.4 16.007 8.669 15.738 9 15.738H15C15.331 15.738 15.6 16.007 15.6 16.338 15.6 16.67 15.331 16.938 15 16.938H9Z" fill="black"/>
</svg>