<svg width="24" height="24" viewBox="0 0 24 24" fill="none" xmlns="http://www.w3.org/2000/svg">
<path d="M8.21067 9.75C8.52133 9.75 8.77317 9.49816 8.77317 9.1875V5.4375C8.77317 5.12684 9.02501 4.875 9.33567 4.875H21.1875C21.4982 4.875 21.75 5.12684 21.75 5.4375V18.5625C21.75 18.8732 21.4982 19.125 21.1875 19.125H2.8125C2.50184 19.125 2.25 18.8732 2.25 18.5625V10.3125C2.25 10.0018 2.50184 9.75 2.8125 9.75H8.21067Z" fill="black" fill-opacity="0.2"/>
<path d="M8.74969 4.83205L8.7497 19.4571M15.2507 4.83205L15.2507 19.4571M2.25 9.70714H21.75M2.25 14.5821H21.75M2.50228 5.30333L8.16817 9.13282M3.15278 19.4493H20.8472C21.3458 19.4493 21.75 19.0451 21.75 18.5465V5.727C21.75 5.22841 21.3458 4.82422 20.8472 4.82422H3.15278C2.65419 4.82422 2.25 5.22841 2.25 5.727V18.5465C2.25 19.0451 2.65419 19.4493 3.15278 19.4493Z" stroke="black" stroke-width="1.5" stroke-linejoin="round"/>
</svg>
