<svg width="24" height="24" viewBox="0 0 24 24" fill="none" xmlns="http://www.w3.org/2000/svg">
<rect x="7.51514" y="3.00732" width="8.98496" height="8.87364" rx="0.833325" fill="black" fill-opacity="0.2"/>
<path d="M12.75 3C12.75 2.58579 12.4142 2.25 12 2.25C11.5858 2.25 11.25 2.58579 11.25 3H12H12.75ZM7.5 6.75C7.08579 6.75 6.75 7.08579 6.75 7.5C6.75 7.91421 7.08579 8.25 7.5 8.25V7.5V6.75ZM11.25 21.75C11.6642 21.75 12 21.4142 12 21C12 20.5858 11.6642 20.25 11.25 20.25V21V21.75ZM3 20.25C2.58579 20.25 2.25 20.5858 2.25 21C2.25 21.4142 2.58579 21.75 3 21.75V21V20.25ZM21 18.75C21.4142 18.75 21.75 18.4142 21.75 18C21.75 17.5858 21.4142 17.25 21 17.25V18V18.75ZM3 17.25C2.58579 17.25 2.25 17.5858 2.25 18C2.25 18.4142 2.58579 18.75 3 18.75V18V17.25ZM21 15.75C21.4142 15.75 21.75 15.4142 21.75 15C21.75 14.5858 21.4142 14.25 21 14.25V15V15.75ZM3 14.25C2.58579 14.25 2.25 14.5858 2.25 15C2.25 15.4142 2.58579 15.75 3 15.75V15V14.25ZM8.34852 3.00714V3.75714H15.6668V3.00714V2.25714H8.34852V3.00714ZM16.5002 3.84047H15.7502V11.0475H16.5002H17.2502V3.84047H16.5002ZM15.6668 11.8808V11.1308H8.34852V11.8808V12.6308H15.6668V11.8808ZM7.5152 11.0475H8.2652V3.84047H7.5152H6.7652V11.0475H7.5152ZM8.34852 11.8808V11.1308C8.3025 11.1308 8.2652 11.0935 8.2652 11.0475H7.5152H6.7652C6.7652 11.9219 7.47408 12.6308 8.34852 12.6308V11.8808ZM16.5002 11.0475H15.7502C15.7502 11.0935 15.7129 11.1308 15.6668 11.1308V11.8808V12.6308C16.5413 12.6308 17.2502 11.9219 17.2502 11.0475H16.5002ZM15.6668 3.00714V3.75714C15.7129 3.75714 15.7502 3.79445 15.7502 3.84047H16.5002H17.2502C17.2502 2.96602 16.5413 2.25714 15.6668 2.25714V3.00714ZM8.34852 3.00714V2.25714C7.47407 2.25714 6.7652 2.96602 6.7652 3.84047H7.5152H8.2652C8.2652 3.79445 8.30251 3.75714 8.34852 3.75714V3.00714ZM12 3H11.25V11.8884H12H12.75V3H12ZM7.5 7.5V8.25H16.5V7.5V6.75H7.5V7.5ZM11.25 21V20.25H3V21V21.75H11.25V21ZM21 18V17.25H3V18V18.75H21V18ZM21 15V14.25H3V15V15.75H21V15Z" fill="black"/>
</svg>
