<svg width="24" height="24" viewBox="0 0 24 24" fill="none" xmlns="http://www.w3.org/2000/svg">
<path d="M20.25 5.25H3.75C3.33579 5.25 3 5.58579 3 6V18C3 18.4142 3.33579 18.75 3.75 18.75H8.98975H9V9.75H21V9.74689V6C21 5.58579 20.6642 5.25 20.25 5.25Z" fill="black" fill-opacity="0.2"/>
<path d="M13.4998 12V16.5M15.7498 14.25H11.2498M20.9998 12.75V15.75M22.4998 14.25H19.4998M13.4998 19.5V22.5M11.9998 21H14.9998M17.552 19.6371L18.8835 18.3056M8.99982 9.75009L8.99982 14.2497L8.99982 17.9167C8.99982 18.3769 8.62672 18.75 8.16649 18.75H3.83333C3.37309 18.75 3 18.3769 3 17.9167V6.08345C3 5.62321 3.37309 5.25012 3.83332 5.25012H8.99982M8.99982 5.25012H14.9998M8.99982 5.25012V9.75009M14.9998 5.25012H20.1665C20.6267 5.25012 20.9998 5.62321 20.9998 6.08345V9.75009H14.9998M14.9998 5.25012V9.75009M8.99982 9.75009H3.00018M8.99982 9.75009H14.9998M3.00018 14.25L8.99982 14.2497M21.6618 21.0772L17.1452 16.5607C17.0439 16.4594 16.8562 16.4829 16.7258 16.6133L15.863 17.4761C15.7327 17.6064 15.7092 17.7942 15.8104 17.8954L20.327 22.412C20.4283 22.5133 20.616 22.4897 20.7464 22.3594L21.6092 21.4966C21.7395 21.3663 21.763 21.1785 21.6618 21.0772Z" stroke="black" stroke-width="1.5" stroke-linecap="round" stroke-linejoin="round"/>
</svg>
