<svg width="24" height="24" viewBox="0 0 24 24" fill="none" xmlns="http://www.w3.org/2000/svg">
<path d="M21.0001 13.4157V6.08332C21.0001 5.62309 20.627 5.25 20.1667 5.25H3.83357C3.37334 5.25 3.00024 5.62309 3.00024 6.08332V17.9165C3.00024 18.3768 3.37334 18.7499 3.83357 18.7499H14.1682C14.6285 18.7499 15.0016 18.3768 15.0016 17.9165V15.0823C15.0016 14.6221 15.3747 14.249 15.8349 14.249H20.1667C20.627 14.249 21.0001 13.8759 21.0001 13.4157Z" fill="black" fill-opacity="0.2"/>
<path d="M9.75 5.25C9.75 4.83579 9.41421 4.5 9 4.5C8.58579 4.5 8.25 4.83579 8.25 5.25L9 5.25L9.75 5.25ZM8.25 18.7499C8.25 19.1641 8.58579 19.4999 9 19.4999C9.41421 19.4999 9.75 19.1641 9.75 18.7499H9H8.25ZM15.75 5.25C15.75 4.83579 15.4142 4.5 15 4.5C14.5858 4.5 14.25 4.83579 14.25 5.25H15H15.75ZM14.25 18.7499C14.25 19.1641 14.5858 19.4999 15 19.4999C15.4142 19.4999 15.75 19.1641 15.75 18.7499H15H14.25ZM3.00037 9.00001C2.58615 9.00001 2.25037 9.3358 2.25037 9.75001C2.25037 10.1642 2.58615 10.5 3.00037 10.5V9.75001V9.00001ZM21.0002 10.5C21.4144 10.5 21.7502 10.1642 21.7502 9.75001C21.7502 9.3358 21.4144 9.00001 21.0002 9.00001V9.75001V10.5ZM3.00033 13.5C2.58612 13.5 2.25035 13.8358 2.25037 14.25C2.25039 14.6642 2.58619 15 3.0004 15L3.00037 14.25L3.00033 13.5ZM17.1918 17.9999C16.7776 17.9999 16.4418 18.3357 16.4418 18.7499C16.4418 19.1641 16.7776 19.4999 17.1918 19.4999V18.7499V17.9999ZM21.6016 19.4999C22.0158 19.4999 22.3516 19.1641 22.3516 18.7499C22.3516 18.3357 22.0158 17.9999 21.6016 17.9999V18.7499V19.4999ZM20.1465 16.5449C20.1465 16.1307 19.8108 15.7949 19.3965 15.7949C18.9823 15.7949 18.6465 16.1307 18.6465 16.5449H19.3965H20.1465ZM18.6465 20.9547C18.6465 21.3689 18.9823 21.7047 19.3965 21.7047C19.8108 21.7047 20.1465 21.3689 20.1465 20.9547H19.3965H18.6465ZM20.1668 14.2491L20.1668 14.9991L20.1668 14.2491ZM21.0001 6.08338H20.2501V13.4158H21.0001H21.7501V6.08338H21.0001ZM15.0016 18.7499V17.9999H3.83357V18.7499V19.4999H15.0016V18.7499ZM3.00024 17.9166H3.75024V6.08338H3.00024H2.25024V17.9166H3.00024ZM3.83357 5.25006V6.00006H20.1667V5.25006V4.50006H3.83357V5.25006ZM3.00024 6.08338H3.75024C3.75024 6.03736 3.78755 6.00006 3.83357 6.00006V5.25006V4.50006C2.95912 4.50006 2.25024 5.20893 2.25024 6.08338H3.00024ZM3.83357 18.7499V17.9999C3.78755 17.9999 3.75024 17.9626 3.75024 17.9166H3.00024H2.25024C2.25024 18.791 2.95912 19.4999 3.83357 19.4999V18.7499ZM21.0001 6.08338H21.7501C21.7501 5.20894 21.0412 4.50006 20.1667 4.50006V5.25006V6.00006C20.2128 6.00006 20.2501 6.03736 20.2501 6.08338H21.0001ZM9 5.25L8.25 5.25L8.25 18.7499H9H9.75L9.75 5.25L9 5.25ZM15 5.25H14.25V18.7499H15H15.75V5.25H15ZM3.00037 9.75001V10.5H21.0002V9.75001V9.00001H3.00037V9.75001ZM3.00037 14.25L3.0004 15L20.1668 14.9991L20.1668 14.2491L20.1667 13.4991L3.00033 13.5L3.00037 14.25ZM17.1918 18.7499V19.4999H21.6016V18.7499V17.9999H17.1918V18.7499ZM19.3965 16.5449H18.6465V20.9547H19.3965H20.1465V16.5449H19.3965ZM21.0001 13.4158H20.2501C20.2501 13.4618 20.2128 13.4991 20.1667 13.4991L20.1668 14.2491L20.1668 14.9991C21.0412 14.9991 21.7501 14.2902 21.7501 13.4158H21.0001Z" fill="black"/>
</svg>
