<svg width="24" height="24" viewBox="0 0 24 24" fill="none" xmlns="http://www.w3.org/2000/svg">
<path d="M20.25 5.25H3.75C3.33579 5.25 3 5.58579 3 6V18C3 18.4142 3.33579 18.75 3.75 18.75H8.98975H9V9.75H21V9.74689V6C21 5.58579 20.6642 5.25 20.25 5.25Z" fill="black" fill-opacity="0.2"/>
<path d="M9 18.75V19.5H9.75V18.75H9ZM21 9.75V10.5C21.4142 10.5 21.75 10.1642 21.75 9.75H21ZM14.25 12C14.25 11.5858 13.9142 11.25 13.5 11.25C13.0858 11.25 12.75 11.5858 12.75 12H13.5H14.25ZM12.75 16.5C12.75 16.9142 13.0858 17.25 13.5 17.25C13.9142 17.25 14.25 16.9142 14.25 16.5H13.5H12.75ZM15.75 15C16.1642 15 16.5 14.6642 16.5 14.25C16.5 13.8358 16.1642 13.5 15.75 13.5V14.25V15ZM11.25 13.5C10.8358 13.5 10.5 13.8358 10.5 14.25C10.5 14.6642 10.8358 15 11.25 15V14.25V13.5ZM21.75 12.75C21.75 12.3358 21.4142 12 21 12C20.5858 12 20.25 12.3358 20.25 12.75H21H21.75ZM20.25 15.75C20.25 16.1642 20.5858 16.5 21 16.5C21.4142 16.5 21.75 16.1642 21.75 15.75H21H20.25ZM22.5 15C22.9142 15 23.25 14.6642 23.25 14.25C23.25 13.8358 22.9142 13.5 22.5 13.5V14.25V15ZM19.5 13.5C19.0858 13.5 18.75 13.8358 18.75 14.25C18.75 14.6642 19.0858 15 19.5 15V14.25V13.5ZM21.662 21.0772L22.1923 20.5469V20.5469L21.662 21.0772ZM17.1455 16.5607L16.6151 17.091V17.091L17.1455 16.5607ZM14.25 19.5C14.25 19.0858 13.9142 18.75 13.5 18.75C13.0858 18.75 12.75 19.0858 12.75 19.5H13.5H14.25ZM12.75 22.5C12.75 22.9142 13.0858 23.25 13.5 23.25C13.9142 23.25 14.25 22.9142 14.25 22.5H13.5H12.75ZM12 20.25C11.5858 20.25 11.25 20.5858 11.25 21C11.25 21.4142 11.5858 21.75 12 21.75V21V20.25ZM15 21.75C15.4142 21.75 15.75 21.4142 15.75 21C15.75 20.5858 15.4142 20.25 15 20.25V21V21.75ZM3.75 5.25V6H9V5.25V4.5H3.75V5.25ZM9 5.25V6H15V5.25V4.5H9V5.25ZM15 5.25V6H20.25V5.25V4.5H15V5.25ZM20.25 5.25V6H21H21.75C21.75 5.17157 21.0784 4.5 20.25 4.5V5.25ZM3.75 18.75V18H3H2.25C2.25 18.8284 2.92157 19.5 3.75 19.5V18.75ZM3 18H3.75V14.25H3H2.25V18H3ZM3 14.25H3.75V9.75H3H2.25V14.25H3ZM3 9.75H3.75V6H3H2.25V9.75H3ZM3 6H3.75V5.25V4.5C2.92157 4.5 2.25 5.17157 2.25 6H3ZM9 5.25L8.25 5.25L8.25 9.75H9H9.75L9.75 5.25L9 5.25ZM9 9.75H8.25L8.25 14.25H9H9.75L9.75 9.75H9ZM9 14.25H8.25L8.25 18.75H9H9.75L9.75 14.25H9ZM15 5.25H14.25V9.75H15H15.75V5.25H15ZM3 9.75V10.5H9V9.75V9H3V9.75ZM9 9.75V10.5H15V9.75V9H9V9.75ZM15 9.75V10.5H21V9.75V9H15V9.75ZM3 14.25V15H9V14.25V13.5H3V14.25ZM13.5 12H12.75V16.5H13.5H14.25V12H13.5ZM15.75 14.25V13.5H11.25V14.25V15H15.75V14.25ZM21 12.75H20.25V15.75H21H21.75V12.75H21ZM22.5 14.25V13.5H19.5V14.25V15H22.5V14.25ZM21.662 21.0772L22.1923 20.5469L17.6758 16.0303L17.1455 16.5607L16.6151 17.091L21.1317 21.6075L21.662 21.0772ZM17.1455 16.5607L17.6758 16.0303C17.165 15.5195 16.4868 15.7919 16.1958 16.0829L16.7261 16.6133L17.2564 17.1436C17.2134 17.1866 17.1426 17.2314 17.04 17.2443C16.9361 17.2573 16.7608 17.2367 16.6151 17.091L17.1455 16.5607ZM16.7261 16.6133L16.1958 16.0829L15.3329 16.9457L15.8633 17.4761L16.3936 18.0064L17.2564 17.1436L16.7261 16.6133ZM15.8633 17.4761L15.3329 16.9457C15.0419 17.2368 14.7695 17.9149 15.2804 18.4258L15.8107 17.8954L16.341 17.3651C16.4867 17.5108 16.5073 17.6861 16.4943 17.79C16.4814 17.8926 16.4366 17.9634 16.3936 18.0064L15.8633 17.4761ZM15.8107 17.8954L15.2804 18.4258L19.7969 22.9423L20.3272 22.412L20.8576 21.8817L16.341 17.3651L15.8107 17.8954ZM20.3272 22.412L19.7969 22.9423C20.3077 23.4532 20.9859 23.1808 21.2769 22.8897L20.7466 22.3594L20.2163 21.8291C20.2593 21.7861 20.3301 21.7412 20.4327 21.7284C20.5366 21.7154 20.7119 21.736 20.8576 21.8817L20.3272 22.412ZM20.7466 22.3594L21.2769 22.8897L22.1397 22.0269L21.6094 21.4966L21.0791 20.9663L20.2163 21.8291L20.7466 22.3594ZM21.6094 21.4966L22.1397 22.0269C22.4308 21.7359 22.7032 21.0577 22.1923 20.5469L21.662 21.0772L21.1317 21.6075C20.986 21.4619 20.9654 21.2866 20.9784 21.1827C20.9913 21.0801 21.0361 21.0092 21.0791 20.9663L21.6094 21.4966ZM13.5 19.5H12.75V22.5H13.5H14.25V19.5H13.5ZM12 21V21.75H15V21V20.25H12V21ZM17.4697 19.7197L18 20.25L19.5 18.75L18.9697 18.2197L18.4393 17.6893L16.9393 19.1893L17.4697 19.7197ZM21 6H20.25V9.75H21H21.75V6H21ZM9 18.75V18H3.75V18.75V19.5H9V18.75Z" fill="black"/>
</svg>
