<svg viewBox="0 0 24 24" fill="none" xmlns="http://www.w3.org/2000/svg" width="24" height="24">
<path d="M2.28 5.394C2.28 4.897 2.683 4.494 3.18 4.494H20.82C21.317 4.494 21.72 4.897 21.72 5.394V18.174C21.72 18.671 21.317 19.074 20.82 19.074H3.18C2.683 19.074 2.28 18.671 2.28 18.174V5.394Z" fill="black" fill-opacity="0.2"/>
<path d="M3.179 19.89C2.351 19.89 1.679 19.218 1.679 18.39V5.61C1.68 4.782 2.351 4.11 3.179 4.11H20.82C21.648 4.11 22.319 4.782 22.32 5.61V18.39C22.319 19.218 21.648 19.89 20.82 19.89H3.179ZM20.82 18.69C20.985 18.69 21.119 18.556 21.12 18.39V5.61C21.119 5.444 20.985 5.31 20.82 5.31H3.179C3.014 5.31 2.88 5.445 2.879 5.61V18.39C2.879 18.556 3.014 18.69 3.179 18.69H20.82ZM12.773 12.078C12.442 12.078 12.173 11.81 12.173 11.478 12.174 11.147 12.442 10.879 12.773 10.878H18.773C19.105 10.878 19.373 11.147 19.373 11.478 19.373 11.81 19.105 12.078 18.773 12.078H12.773ZM6.773 14.509C6.442 14.509 6.174 14.24 6.173 13.909 6.173 13.578 6.442 13.309 6.773 13.309H18.773C19.105 13.309 19.373 13.578 19.373 13.909 19.373 14.24 19.105 14.509 18.773 14.509H6.773ZM12.773 16.938C12.442 16.938 12.173 16.67 12.173 16.338 12.174 16.007 12.442 15.738 12.773 15.738H18.773C19.105 15.738 19.373 16.007 19.373 16.338 19.373 16.67 19.105 16.938 18.773 16.938H12.773Z" fill="black"/>
</svg>