<svg viewBox="0 0 24 24" fill="none" xmlns="http://www.w3.org/2000/svg" width="24" height="24">
<rect width="16.2" height="12.15" rx="0.75" transform="matrix(-1 0 0 1 20.1 5.84192)" fill="black" fill-opacity="0.2"/>
<path d="M3.18 3.799C2.352 3.799 1.681 4.471 1.68 5.299V18.08C1.681 18.908 2.352 19.58 3.18 19.58H20.821C21.649 19.579 22.32 18.908 22.321 18.08V5.299C22.321 4.471 21.649 3.8 20.821 3.799H3.18ZM20.821 4.999C20.986 5 21.121 5.134 21.121 5.299V18.08C21.12 18.245 20.986 18.379 20.821 18.38H3.18C3.015 18.38 2.881 18.245 2.88 18.08V5.299C2.881 5.134 3.015 4.999 3.18 4.999H20.821ZM5.227 11.611C4.895 11.611 4.627 11.88 4.627 12.211 4.627 12.542 4.895 12.811 5.227 12.811H11.227C11.558 12.811 11.826 12.542 11.827 12.211 11.827 11.88 11.558 11.611 11.227 11.611H5.227ZM5.227 9.18C4.895 9.18 4.627 9.449 4.627 9.78 4.627 10.112 4.895 10.38 5.227 10.38H17.227C17.558 10.38 17.826 10.112 17.827 9.78 17.827 9.449 17.558 9.181 17.227 9.18H5.227ZM5.227 6.75C4.895 6.75 4.627 7.019 4.627 7.35 4.627 7.681 4.895 7.95 5.227 7.95H11.227C11.558 7.95 11.827 7.681 11.827 7.35 11.826 7.019 11.558 6.75 11.227 6.75H5.227Z" fill="black"/>
</svg>