<svg viewBox="0 0 24 24" fill="none" xmlns="http://www.w3.org/2000/svg" width="24" height="24">
<path d="M22.935 18.199C22.935 18.696 22.532 19.099 22.035 19.099H10.874C10.377 19.099 9.974 18.696 9.974 18.199V5.419C9.974 4.922 10.377 4.519 10.874 4.519H22.035C22.532 4.519 22.935 4.922 22.935 5.419V18.199Z" fill="black" fill-opacity="0.2"/>
<path d="M10.874 3.919C10.046 3.919 9.374 4.59 9.374 5.419V18.199C9.374 19.027 10.046 19.699 10.874 19.699H22.035C22.863 19.699 23.534 19.027 23.535 18.199V5.419C23.535 4.59 22.863 3.919 22.035 3.919H10.874ZM22.335 18.199C22.334 18.365 22.2 18.499 22.035 18.499H17.055V14.838H22.335V18.199ZM15.855 18.499H10.874C10.709 18.499 10.574 18.364 10.574 18.199V14.838H15.855V18.499ZM3.489 8.971C3.157 8.971 2.889 9.239 2.889 9.571V11.394H1.065C0.734 11.394 0.465 11.663 0.465 11.994 0.466 12.325 0.734 12.594 1.065 12.594H2.889V14.43C2.889 14.761 3.158 15.03 3.489 15.03 3.82 15.03 4.088 14.761 4.089 14.43V12.594H5.925C6.256 12.594 6.525 12.325 6.525 11.994 6.525 11.663 6.256 11.395 5.925 11.394H4.089V9.571C4.089 9.24 3.82 8.971 3.489 8.971ZM22.335 13.638H17.055V9.978H22.335V13.638ZM15.855 13.638H10.574V9.978H15.855V13.638ZM22.035 5.119C22.2 5.119 22.335 5.253 22.335 5.419V8.779H17.055V5.119H22.035ZM15.855 8.779H10.574V5.419C10.574 5.253 10.708 5.119 10.874 5.119H15.855V8.779Z" fill="black"/>
</svg>