<svg width="24" height="24" viewBox="0 0 24 24" fill="none" xmlns="http://www.w3.org/2000/svg">
<path d="M3 18.75H17.5988C17.7221 18.7499 17.8435 18.7194 17.9523 18.6612C18.061 18.603 18.1537 18.5189 18.2222 18.4163L22.5 12L18.2222 5.58375C18.1537 5.48114 18.061 5.397 17.9523 5.33879C17.8435 5.28057 17.7221 5.25007 17.5988 5.25H3L7.5 12L3 18.75Z" fill="black" fill-opacity="0.2"/>
<path d="M2.99951 18.75H17.5983C17.7216 18.7499 17.843 18.7194 17.9518 18.6612C18.0605 18.603 18.1532 18.5189 18.2217 18.4163L22.4995 12L18.2217 5.58375C18.1532 5.48114 18.0605 5.397 17.9518 5.33879C17.843 5.28057 17.7216 5.25007 17.5983 5.25H2.99951L7.49951 12L2.99951 18.75Z" stroke="black" stroke-width="1.5" stroke-linecap="round" stroke-linejoin="round"/>
</svg>
