<svg width="24" height="24" viewBox="0 0 24 24" fill="none" xmlns="http://www.w3.org/2000/svg">
<path d="M12 16.5C14.4853 16.5 16.5 14.4853 16.5 12C16.5 9.51472 14.4853 7.5 12 7.5C9.51472 7.5 7.5 9.51472 7.5 12C7.5 14.4853 9.51472 16.5 12 16.5Z" fill="black" fill-opacity="0.2"/>
<path d="M11.9996 12L20.9996 3M18.3634 5.63624C16.7693 4.04588 14.6363 3.11176 12.3865 3.01868C10.1366 2.92559 7.93381 3.68032 6.21377 5.13355C4.49373 6.58679 3.38177 8.63268 3.09787 10.8665C2.81398 13.1003 3.37883 15.3593 4.68067 17.1965C5.98252 19.0338 7.92654 20.3156 10.1281 20.7882C12.3297 21.2609 14.6286 20.89 16.5698 19.749C18.5111 18.6079 19.9533 16.7798 20.6113 14.6263C21.2693 12.4729 21.0951 10.1509 20.1231 8.11968M15.1815 8.81829C14.4371 8.07479 13.4557 7.61563 12.4079 7.5206C11.3601 7.42557 10.3121 7.70068 9.44606 8.29812C8.58005 8.89557 7.95074 9.77756 7.66752 10.7908C7.3843 11.8041 7.46507 12.8846 7.89579 13.8445C8.32651 14.8044 9.07996 15.583 10.0252 16.045C10.9704 16.5071 12.0476 16.6233 13.0697 16.3736C14.0917 16.1238 14.9939 15.5238 15.6195 14.6779C16.2451 13.832 16.5545 12.7937 16.494 11.7433" stroke="black" stroke-width="1.5" stroke-linecap="round" stroke-linejoin="round"/>
</svg>
