<svg viewBox="0 0 24 24" fill="none" xmlns="http://www.w3.org/2000/svg" width="24" height="24">
<path d="M19.29 21.72H4.71C4.495 21.72 4.289 21.635 4.137 21.483 3.985 21.331 3.9 21.125 3.9 20.91V3.09C3.9 2.875 3.985 2.669 4.137 2.517 4.289 2.365 4.495 2.28 4.71 2.28H14.057C14.296 2.28 14.525 2.375 14.694 2.544L19.836 7.686C20.005 7.855 20.1 8.084 20.1 8.323V20.91C20.1 21.125 20.015 21.331 19.863 21.483 19.711 21.635 19.505 21.72 19.29 21.72Z" fill="black" fill-opacity="0.2"/>
<path d="M20.7 20.91C20.7 21.284 20.552 21.642 20.287 21.907 20.023 22.171 19.664 22.32 19.29 22.32H4.71C4.336 22.32 3.977 22.171 3.713 21.907 3.448 21.642 3.3 21.284 3.3 20.91V3.09C3.3 2.716 3.448 2.357 3.713 2.092 3.977 1.828 4.336 1.68 4.71 1.68H14.43L14.548 1.692C14.663 1.715 14.77 1.771 14.855 1.856L20.524 7.525C20.637 7.638 20.7 7.791 20.7 7.95V20.91ZM15.03 7.05C15.03 7.215 15.165 7.35 15.33 7.35H18.652L15.03 3.728V7.05ZM4.5 20.91C4.5 20.966 4.522 21.019 4.561 21.058 4.6 21.097 4.654 21.12 4.71 21.12H19.29C19.346 21.12 19.4 21.097 19.439 21.058 19.478 21.019 19.5 20.966 19.5 20.91V8.55H15.33C14.502 8.55 13.83 7.878 13.83 7.05V2.88H4.71C4.654 2.88 4.6 2.902 4.561 2.941 4.522 2.98 4.5 3.034 4.5 3.09V20.91Z" fill="black"/>
<path d="M9.8 7.2C10.032 7.2 10.244 7.334 10.343 7.545L13.543 14.345C13.684 14.645 13.556 15.002 13.256 15.143 12.956 15.284 12.599 15.156 12.458 14.856L9.8 9.207 7.142 14.856C7.001 15.156 6.644 15.284 6.344 15.143 6.045 15.002 5.916 14.645 6.057 14.345L9.258 7.545 9.3 7.47C9.41 7.303 9.597 7.2 9.8 7.2Z" fill="black"/>
<path d="M16.801 13.201C16.801 12.832 16.43 12.4 15.8 12.4 15.17 12.401 14.8 12.832 14.8 13.201 14.8 13.57 15.17 14.001 15.8 14.001 16.43 14.001 16.8 13.57 16.801 13.201ZM18.001 13.201C18 14.378 16.937 15.201 15.8 15.201 14.663 15.201 13.6 14.378 13.6 13.201 13.6 12.024 14.663 11.201 15.8 11.2 16.937 11.2 18.001 12.023 18.001 13.201Z" fill="black"/>
<path d="M16.801 14.601V11.601C16.801 11.232 16.43 10.8 15.8 10.8 15.396 10.8 15.156 10.895 15.023 11.026 14.788 11.26 14.408 11.258 14.175 11.023 13.941 10.788 13.942 10.408 14.177 10.174 14.631 9.724 15.248 9.6 15.8 9.6 16.938 9.6 18.001 10.423 18.001 11.601V14.601C18.001 14.932 17.732 15.2 17.401 15.201 17.07 15.201 16.801 14.932 16.801 14.601Z" fill="black"/>
<path d="M12.059 12C12.391 12.001 12.659 12.269 12.659 12.6 12.659 12.932 12.391 13.2 12.059 13.2H7.541C7.209 13.2 6.941 12.932 6.941 12.6 6.941 12.269 7.209 12 7.541 12H12.059Z" fill="black"/>
<path d="M6.007 19.02C6.007 19.517 6.41 19.92 6.907 19.92H8.532C9.029 19.92 9.432 19.517 9.432 19.02V17.395C9.432 16.898 9.029 16.495 8.532 16.495H6.907C6.41 16.495 6.007 16.898 6.007 17.395V19.02Z" fill="black"/>
<path d="M14.568 19.02C14.568 19.517 14.971 19.92 15.468 19.92H17.093C17.59 19.92 17.993 19.517 17.993 19.02V17.395C17.993 16.898 17.59 16.495 17.093 16.495H15.468C14.971 16.495 14.568 16.898 14.568 17.395V19.02Z" fill="black"/>
<path d="M10.288 19.02C10.288 19.517 10.691 19.92 11.188 19.92H12.812C13.309 19.92 13.712 19.517 13.712 19.02V17.395C13.712 16.898 13.309 16.495 12.812 16.495H11.188C10.691 16.495 10.288 16.898 10.288 17.395V19.02Z" fill="black"/>
</svg>