<svg viewBox="0 0 24 24" fill="none" xmlns="http://www.w3.org/2000/svg" width="24" height="24">
<path d="M5.398 3.9C5.398 3.403 5.801 3 6.298 3H17.998C18.495 3 18.898 3.403 18.898 3.9V20.1C18.898 20.597 18.495 21 17.998 21H6.298C5.801 21 5.398 20.597 5.398 20.1V3.9Z" fill="black" fill-opacity="0.2"/>
<path d="M5.398 2.4C5.729 2.4 5.998 2.669 5.998 3V21C5.998 21.331 5.729 21.6 5.398 21.6 5.066 21.6 4.798 21.331 4.798 21V3C4.798 2.669 5.066 2.4 5.398 2.4ZM13.788 14.4C14.12 14.4 14.388 14.669 14.388 15V21C14.388 21.331 14.12 21.6 13.788 21.6 13.457 21.6 13.188 21.331 13.188 21V15C13.188 14.669 13.457 14.4 13.788 14.4ZM15.991 9.389C16.226 9.155 16.606 9.155 16.84 9.389L19.027 11.577C19.26 11.811 19.261 12.191 19.027 12.425L16.84 14.612C16.606 14.846 16.226 14.846 15.991 14.612 15.757 14.378 15.757 13.998 15.991 13.764L17.154 12.601H10.197C9.866 12.601 9.597 12.332 9.596 12.001 9.596 11.67 9.865 11.401 10.197 11.401H17.154L15.991 10.239C15.757 10.004 15.757 9.623 15.991 9.389ZM13.788 2.4C14.12 2.4 14.388 2.669 14.388 3V9C14.388 9.331 14.12 9.6 13.788 9.6 13.457 9.6 13.188 9.331 13.188 9V3C13.188 2.669 13.457 2.4 13.788 2.4Z" fill="black"/>
</svg>