<svg viewBox="0 0 24 24" fill="none" xmlns="http://www.w3.org/2000/svg" width="24" height="24">
<path d="M20.909 7.05C21.241 7.05 21.509 7.319 21.509 7.65 21.509 7.981 21.241 8.25 20.909 8.25H3.09C2.758 8.25 2.49 7.981 2.49 7.65 2.49 7.319 2.758 7.05 3.09 7.05H20.909Z" fill="black"/>
<path d="M20.909 11.1C21.241 11.1 21.509 11.369 21.509 11.7 21.509 12.031 21.241 12.3 20.909 12.3H3.09C2.758 12.3 2.49 12.031 2.49 11.7 2.49 11.369 2.758 11.1 3.09 11.1H20.909Z" fill="black"/>
<path d="M11.089 15.15C11.42 15.15 11.689 15.419 11.689 15.75 11.689 16.081 11.42 16.35 11.089 16.35H3.09C2.758 16.35 2.49 16.081 2.49 15.75 2.49 15.419 2.758 15.15 3.09 15.15H11.089Z" fill="black"/>
<path d="M12.883 15.75C12.883 15.419 13.152 15.15 13.483 15.15 13.814 15.15 14.083 15.419 14.083 15.75 14.083 16.081 13.814 16.35 13.483 16.35 13.152 16.35 12.883 16.081 12.883 15.75Z" fill="black"/>
<path d="M16.296 15.75C16.296 15.419 16.565 15.15 16.896 15.15 17.228 15.15 17.496 15.419 17.496 15.75 17.496 16.081 17.228 16.35 16.896 16.35 16.565 16.35 16.296 16.081 16.296 15.75Z" fill="black"/>
<path d="M19.71 15.75C19.71 15.419 19.978 15.15 20.31 15.15 20.641 15.15 20.91 15.419 20.91 15.75 20.91 16.081 20.641 16.35 20.31 16.35 19.978 16.35 19.71 16.081 19.71 15.75Z" fill="black"/>
<path d="M3.064 8.55C3.064 8.053 3.467 7.65 3.964 7.65H20.036C20.533 7.65 20.936 8.053 20.936 8.55V14.85C20.936 15.347 20.533 15.75 20.036 15.75H3.964C3.467 15.75 3.064 15.347 3.064 14.85V8.55Z" fill="black" fill-opacity="0.2"/>
</svg>