<svg width="24" height="24" viewBox="0 0 24 24" fill="none" xmlns="http://www.w3.org/2000/svg">
<rect x="3.75" y="7.15137" width="16.447" height="9.34033" rx="0.75" fill="black" fill-opacity="0.2"/>
<path d="M20.2524 16.5049C20.2524 16.712 20.0845 16.8799 19.8774 16.8799C19.6703 16.8799 19.5024 16.712 19.5024 16.5049C19.5024 16.2978 19.6703 16.1299 19.8774 16.1299C20.0845 16.1299 20.2524 16.2978 20.2524 16.5049Z" fill="black"/>
<path d="M16.5 16.5049C16.5 16.712 16.3321 16.8799 16.125 16.8799C15.9179 16.8799 15.75 16.712 15.75 16.5049C15.75 16.2978 15.9179 16.1299 16.125 16.1299C16.3321 16.1299 16.5 16.2978 16.5 16.5049Z" fill="black"/>
<path d="M20.25 13.1299H3.75M20.25 10.1299H3.75M12.75 16.5049H3.75M20.2515 7.12988H3.75146M20.2524 16.5049C20.2524 16.712 20.0845 16.8799 19.8774 16.8799C19.6703 16.8799 19.5024 16.712 19.5024 16.5049C19.5024 16.2978 19.6703 16.1299 19.8774 16.1299C20.0845 16.1299 20.2524 16.2978 20.2524 16.5049ZM16.5 16.5049C16.5 16.712 16.3321 16.8799 16.125 16.8799C15.9179 16.8799 15.75 16.712 15.75 16.5049C15.75 16.2978 15.9179 16.1299 16.125 16.1299C16.3321 16.1299 16.5 16.2978 16.5 16.5049Z" stroke="black" stroke-width="1.5" stroke-linecap="round" stroke-linejoin="round"/>
</svg>
