<svg viewBox="0 0 24 24" fill="none" xmlns="http://www.w3.org/2000/svg" width="24" height="24">
<path d="M6 3.9C6 3.403 6.403 3 6.9 3H17.1C17.597 3 18 3.403 18 3.9V20.1C18 20.597 17.597 21 17.1 21H6.9C6.403 21 6 20.597 6 20.1V3.9Z" fill="black" fill-opacity="0.2"/>
<path d="M5.405 2.4C5.736 2.4 6.005 2.669 6.005 3V21C6.005 21.331 5.736 21.6 5.405 21.6 5.073 21.6 4.805 21.331 4.805 21V3C4.805 2.669 5.073 2.4 5.405 2.4ZM18.595 2.4C18.927 2.4 19.195 2.669 19.195 3V21C19.195 21.331 18.927 21.6 18.595 21.6 18.264 21.6 17.995 21.331 17.995 21V3C17.995 2.669 18.264 2.4 18.595 2.4ZM13.598 9.389C13.833 9.155 14.213 9.155 14.447 9.389L16.634 11.577C16.867 11.811 16.868 12.191 16.634 12.425L14.447 14.612C14.213 14.846 13.833 14.846 13.598 14.612 13.364 14.378 13.364 13.998 13.598 13.764L14.761 12.601H7.804C7.473 12.601 7.204 12.332 7.204 12.001 7.204 11.67 7.472 11.401 7.804 11.401H14.761L13.598 10.239C13.364 10.004 13.364 9.623 13.598 9.389Z" fill="black"/>
</svg>