<svg width="24" height="24" viewBox="0 0 24 24" fill="none" xmlns="http://www.w3.org/2000/svg">
<path d="M19.5 18.1431H4.5C4.08579 18.1431 3.75 17.8238 3.75 17.4299V3.1663C3.75 2.77243 4.08579 2.45312 4.5 2.45312H19.5C19.9142 2.45312 20.25 2.77243 20.25 3.1663V17.4299C20.25 17.8238 19.9142 18.1431 19.5 18.1431Z" fill="black" fill-opacity="0.2"/>
<path d="M3.75003 2.46777H20.25M3.75 6.2832H20.25M7.12646 14.7832L3.75146 18.1582L7.12646 21.5332M3.75009 10.2832H16.3125C17.3568 10.2832 18.3583 10.698 19.0967 11.4365C19.8352 12.1749 20.25 13.1764 20.25 14.2207C20.25 15.265 19.8352 16.2665 19.0967 17.0049C18.3583 17.7434 17.3568 18.1582 16.3125 18.1582C16.3125 18.1582 8.8043 18.1582 3.75009 18.1582" stroke="black" stroke-width="1.5" stroke-linecap="round" stroke-linejoin="round"/>
</svg>
