<svg xmlns="http://www.w3.org/2000/svg" width="24" height="24" fill="currentColor" viewBox="0 0 24 24"><path d="M21.72 12a9.696 9.696 0 0 1-3.22 7.226A7.296 7.296 0 0 0 12 15.24a4.05 4.05 0 1 0-4.05-4.05A4.05 4.05 0 0 0 12 15.24a7.296 7.296 0 0 0-6.5 3.986A9.72 9.72 0 1 1 21.72 12" opacity=".2"/><path d="M12 1.47A10.53 10.53 0 1 0 22.53 12 10.541 10.541 0 0 0 12 1.47M6.54 19.037a6.48 6.48 0 0 1 10.919 0 8.892 8.892 0 0 1-10.919 0m2.22-7.847a3.24 3.24 0 1 1 3.24 3.24 3.24 3.24 0 0 1-3.24-3.24m9.898 6.724a8.04 8.04 0 0 0-3.652-2.912 4.86 4.86 0 1 0-6.014 0 8.04 8.04 0 0 0-3.652 2.912 8.91 8.91 0 1 1 13.316 0z"/></svg>