<svg width="24" height="24" viewBox="0 0 24 24" fill="none" xmlns="http://www.w3.org/2000/svg">
<path d="M12.0001 3C10.1794 2.99989 8.40146 3.55199 6.90109 4.58339C5.40072 5.61479 4.24845 7.077 3.59643 8.77693C2.94441 10.4769 2.8233 12.3346 3.24909 14.1048C3.67488 15.875 4.62755 17.4744 5.98131 18.6919C6.54594 17.5809 7.40713 16.6478 8.46946 15.9962C9.5318 15.3446 10.7538 14.9998 12.0001 15C11.2584 15 10.5334 14.7801 9.91667 14.368C9.29999 13.956 8.81934 13.3703 8.53551 12.6851C8.25168 11.9998 8.17742 11.2458 8.32211 10.5184C8.46681 9.79098 8.82396 9.1228 9.34841 8.59835C9.87285 8.0739 10.541 7.71675 11.2685 7.57205C11.9959 7.42736 12.7499 7.50162 13.4351 7.78545C14.1203 8.06928 14.706 8.54993 15.1181 9.16661C15.5301 9.7833 15.7501 10.5083 15.7501 11.25C15.7501 12.2446 15.355 13.1984 14.6517 13.9017C13.9484 14.6049 12.9946 15 12.0001 15C13.2462 14.9997 14.4682 15.3443 15.5305 15.9958C16.5928 16.6473 17.4541 17.5801 18.0188 18.6909C19.3722 17.4734 20.3246 15.874 20.7502 14.104C21.1758 12.334 21.0546 10.4765 20.4026 8.77676C19.7506 7.07704 18.5985 5.61499 17.0983 4.58363C15.5982 3.55228 13.8205 3.0001 12.0001 3Z" fill="black" fill-opacity="0.2"/>
<path d="M5.98083 18.691C6.54513 17.5795 7.40617 16.646 8.46853 15.994C9.53089 15.3419 10.7531 14.9967 11.9996 14.9967C13.2461 14.9967 14.4683 15.3419 15.5306 15.994C16.593 16.646 17.454 17.5795 18.0183 18.691M20.9995 12C20.9995 16.9706 16.9701 21 11.9995 21C7.02895 21 2.99951 16.9706 2.99951 12C2.99951 7.02944 7.02895 3 11.9995 3C16.9701 3 20.9995 7.02944 20.9995 12ZM15.7495 11.25C15.7495 13.3211 14.0706 15 11.9995 15C9.92844 15 8.24951 13.3211 8.24951 11.25C8.24951 9.17893 9.92844 7.5 11.9995 7.5C14.0706 7.5 15.7495 9.17893 15.7495 11.25Z" stroke="black" stroke-width="1.5" stroke-linecap="round" stroke-linejoin="round"/>
</svg>
