<svg viewBox="0 0 24 24" fill="none" xmlns="http://www.w3.org/2000/svg" width="24" height="24">
<path d="M13.4 21.6L13.4 2.4H19.218V21.6H13.4Z" fill="black" fill-opacity="0.2"/>
<path d="M13.8 2.1C13.8 1.603 13.397 1.2 12.9 1.2H5.1C4.603 1.2 4.2 1.603 4.2 2.1V21.9C4.2 22.397 4.603 22.8 5.1 22.8H12.9C13.397 22.8 13.8 22.397 13.8 21.9V2.1ZM19.8 18.9C19.8 18.403 19.397 18 18.9 18H15.9C15.403 18 15 18.403 15 18.9V21.9C15 22.397 15.403 22.8 15.9 22.8H18.9C19.397 22.8 19.8 22.397 19.8 21.9V18.9ZM19.8 10.5C19.8 10.003 19.397 9.6 18.9 9.6H15.9C15.403 9.6 15 10.003 15 10.5V13.5C15 13.997 15.403 14.4 15.9 14.4H18.9C19.397 14.4 19.8 13.997 19.8 13.5V10.5ZM19.8 2.1C19.8 1.603 19.397 1.2 18.9 1.2H15.9C15.403 1.2 15 1.603 15 2.1V5.1C15 5.597 15.403 6 15.9 6H18.9C19.397 6 19.8 5.597 19.8 5.1V2.1Z" fill="black"/>
</svg>