<svg width="24" height="24" viewBox="0 0 24 24" fill="none" xmlns="http://www.w3.org/2000/svg">
<path d="M3 9.75H7.5V19.5H3C2.80109 19.5 2.61032 19.421 2.46967 19.2803C2.32902 19.1397 2.25 18.9489 2.25 18.75V10.5C2.25 10.3011 2.32902 10.1103 2.46967 9.96967C2.61032 9.82902 2.80109 9.75 3 9.75Z" fill="black" fill-opacity="0.2"/>
<path d="M7.5 9.75H3C2.80109 9.75 2.61032 9.82902 2.46967 9.96967C2.32902 10.1103 2.25 10.3011 2.25 10.5V18.75C2.25 18.9489 2.32902 19.1397 2.46967 19.2803C2.61032 19.421 2.80109 19.5 3 19.5H7.5M7.5 9.75V19.5M7.5 9.75L11.25 2.25C12.0456 2.25 12.8087 2.56607 13.3713 3.12868C13.9339 3.69129 14.25 4.45435 14.25 5.25V7.5H20.25C20.4628 7.50006 20.6731 7.54539 20.867 7.63297C21.0609 7.72056 21.234 7.8484 21.3747 8.008C21.5154 8.1676 21.6206 8.35532 21.6832 8.55868C21.7458 8.76204 21.7644 8.97639 21.7378 9.1875L20.6128 18.1875C20.5672 18.5499 20.3908 18.8832 20.1169 19.1249C19.843 19.3665 19.4903 19.4999 19.125 19.5H7.5" stroke="black" stroke-width="1.5" stroke-linecap="round" stroke-linejoin="round"/>
</svg>
