<svg viewBox="0 0 24 24" fill="none" xmlns="http://www.w3.org/2000/svg" width="24" height="24">
<path d="M2.4 10.6H21.6V4.782H2.4V10.6Z" fill="black" fill-opacity="0.2"/>
<path d="M21.9 10.2C22.397 10.2 22.8 10.603 22.8 11.1V18.9C22.8 19.397 22.397 19.8 21.9 19.8H2.1C1.603 19.8 1.2 19.397 1.2 18.9V11.1C1.2 10.603 1.603 10.2 2.1 10.2H21.9ZM5.1 4.2C5.597 4.2 6 4.603 6 5.1V8.1C6 8.597 5.597 9 5.1 9H2.1C1.603 9 1.2 8.597 1.2 8.1V5.1C1.2 4.603 1.603 4.2 2.1 4.2H5.1ZM13.5 4.2C13.997 4.2 14.4 4.603 14.4 5.1V8.1C14.4 8.597 13.997 9 13.5 9H10.5C10.003 9 9.6 8.597 9.6 8.1V5.1C9.6 4.603 10.003 4.2 10.5 4.2H13.5ZM21.9 4.2C22.397 4.2 22.8 4.603 22.8 5.1V8.1C22.8 8.597 22.397 9 21.9 9H18.9C18.403 9 18 8.597 18 8.1V5.1C18 4.603 18.403 4.2 18.9 4.2H21.9Z" fill="black"/>
</svg>