<svg xmlns="http://www.w3.org/2000/svg" width="24" height="24" fill="currentColor" viewBox="0 0 24 24"><path d="M7.14 9.57v10.53H2.28a0.81 0.81 0 0 1-0.81-0.81V10.38a0.81 0.81 0 0 1 0.81-0.81z" opacity=".2"/><path d="M22.733 7.152a2.436 2.436 0 0 0-1.823-0.822H15.24v-1.62a4.05 4.05 0 0 0-4.05-4.05 0.816 0.816 0 0 0-0.725 0.448L6.64 8.76H2.28a1.62 1.62 0 0 0-1.62 1.62v8.91a1.62 1.62 0 0 0 1.62 1.62h17.416a2.43 2.43 0 0 0 2.412-2.126l1.214-9.72a2.436 2.436 0 0 0-0.589-1.912M2.28 10.38h4.05v8.91H2.28z m19.434-1.519l-1.214 9.72a0.81 0.81 0 0 1-0.804 0.709H7.95v-9.529l3.716-7.435a2.43 2.43 0 0 1 1.954 2.383v2.43a0.81 0.81 0 0 0 0.81 0.81h6.48a0.81 0.81 0 0 1 0.804 0.911z"/></svg>