<svg width="24" height="24" viewBox="0 0 24 24" fill="none" xmlns="http://www.w3.org/2000/svg">
<path d="M9.95996 4.49805C9.95996 3.66963 10.6316 2.99709 11.46 2.99707H19.5C20.3283 2.99707 20.9997 3.66887 21 4.49707V19.4971C21 20.3255 20.3284 20.9971 19.5 20.9971H11.46C10.6317 20.997 9.96022 20.3262 9.95996 19.498V4.49805ZM3 17.792C3 17.3778 3.33579 17.042 3.75 17.042H6.21094C6.62515 17.042 6.96094 17.3778 6.96094 17.792V20.252C6.96094 20.6662 6.62515 21.002 6.21094 21.002H3.75C3.33579 21.002 3 20.6662 3 20.252V17.792ZM3 10.7676C3 10.3534 3.33579 10.0176 3.75 10.0176H6.21094C6.62515 10.0176 6.96094 10.3534 6.96094 10.7676V13.2275C6.96094 13.6418 6.62515 13.9775 6.21094 13.9775H3.75C3.33579 13.9775 3 13.6418 3 13.2275V10.7676ZM3 3.74805C3 3.33383 3.33579 2.99707 3.75 2.99707H6.21094C6.62515 2.99707 6.96094 3.33383 6.96094 3.74805V6.20801C6.96069 6.62201 6.625 6.95801 6.21094 6.95801H3.75C3.33594 6.95801 3.00024 6.62201 3 6.20801V3.74805Z" fill="black" fill-opacity="0.2"/>
<path d="M21 4.49805C21 3.66962 20.3284 2.99805 19.5 2.99805H11.46C10.6316 2.99805 9.96 3.66962 9.96 4.49805V19.498C9.96 20.3265 10.6316 20.998 11.46 20.998H19.5C20.3284 20.998 21 20.3265 21 19.498V4.49805Z" stroke="black" stroke-width="1.5"/>
<path d="M6.96094 3.74805C6.96094 3.33383 6.62515 2.99805 6.21094 2.99805H3.75C3.33579 2.99805 3 3.33383 3 3.74805V6.20805C3 6.62226 3.33579 6.95805 3.75 6.95805H6.21094C6.62515 6.95805 6.96094 6.62226 6.96094 6.20805V3.74805Z" stroke="black" stroke-width="1.5"/>
<path d="M6.96094 17.7925C6.96094 17.3783 6.62515 17.0425 6.21094 17.0425H3.75C3.33579 17.0425 3 17.3783 3 17.7925V20.2525C3 20.6667 3.33579 21.0025 3.75 21.0025H6.21094C6.62515 21.0025 6.96094 20.6667 6.96094 20.2525V17.7925Z" stroke="black" stroke-width="1.5"/>
<path d="M6.96094 10.7681C6.96094 10.3539 6.62515 10.0181 6.21094 10.0181H3.75C3.33579 10.0181 3 10.3539 3 10.7681V13.2281C3 13.6423 3.33579 13.9781 3.75 13.9781H6.21094C6.62515 13.9781 6.96094 13.6423 6.96094 13.2281V10.7681Z" stroke="black" stroke-width="1.5"/>
</svg>
