<svg viewBox="0 0 24 24" fill="none" xmlns="http://www.w3.org/2000/svg" width="24" height="24">
<path d="M2.4 13.4H21.6V19.218H2.4V13.4Z" fill="black" fill-opacity="0.2"/>
<path d="M21.9 13.8C22.397 13.8 22.8 13.397 22.8 12.9V5.1C22.8 4.603 22.397 4.2 21.9 4.2H2.1C1.603 4.2 1.2 4.603 1.2 5.1V12.9C1.2 13.397 1.603 13.8 2.1 13.8H21.9ZM5.1 19.8C5.597 19.8 6 19.397 6 18.9V15.9C6 15.403 5.597 15 5.1 15H2.1C1.603 15 1.2 15.403 1.2 15.9V18.9C1.2 19.397 1.603 19.8 2.1 19.8H5.1ZM13.5 19.8C13.997 19.8 14.4 19.397 14.4 18.9V15.9C14.4 15.403 13.997 15 13.5 15H10.5C10.003 15 9.6 15.403 9.6 15.9V18.9C9.6 19.397 10.003 19.8 10.5 19.8H13.5ZM21.9 19.8C22.397 19.8 22.8 19.397 22.8 18.9V15.9C22.8 15.403 22.397 15 21.9 15H18.9C18.403 15 18 15.403 18 15.9V18.9C18 19.397 18.403 19.8 18.9 19.8H21.9Z" fill="black"/>
</svg>