<svg xmlns="http://www.w3.org/2000/svg" width="24" height="24" fill="currentColor" viewBox="0 0 24 24"><path d="M7.14 3.9v10.53H2.28a0.81 0.81 0 0 1-0.81-0.81V4.71A0.81 0.81 0 0 1 2.28 3.9z" opacity=".2"/><path d="M23.322 14.936l-1.214-9.72a2.43 2.43 0 0 0-2.412-2.126H2.28a1.62 1.62 0 0 0-1.62 1.62v8.91A1.62 1.62 0 0 0 2.28 15.24h4.36l3.825 7.652a0.816 0.816 0 0 0 0.725 0.448 4.05 4.05 0 0 0 4.05-4.05v-1.62h5.67a2.43 2.43 0 0 0 2.412-2.734M6.33 13.62H2.28V4.71h4.05z m15.187 2.155a0.804 0.804 0 0 1-0.607 0.275h-6.48a0.81 0.81 0 0 0-0.81 0.81v2.43a2.43 2.43 0 0 1-1.954 2.383l-3.716-7.435V4.709h11.746a0.81 0.81 0 0 1 0.804 0.709l1.214 9.72a0.792 0.792 0 0 1-0.197 0.637"/></svg>