<svg viewBox="0 0 24 24" fill="none" xmlns="http://www.w3.org/2000/svg" width="24" height="24">
<rect x="5.25" y="3.90234" width="13.4956" height="16.2021" rx="0.75" fill="black" fill-opacity="0.2"/>
<path d="M10.379 10.954C10.048 10.954 9.779 10.685 9.779 10.354 9.779 10.023 10.048 9.754 10.379 9.754H13.619C13.951 9.754 14.219 10.023 14.219 10.354 14.219 10.685 13.951 10.954 13.619 10.954H10.379Z" fill="black"/>
<path d="M9.816 7.714C9.485 7.713 9.216 7.445 9.216 7.114 9.216 6.782 9.485 6.514 9.816 6.514L16.296 6.514C16.628 6.514 16.896 6.782 16.896 7.114 16.896 7.445 16.628 7.714 16.296 7.714L9.816 7.714Z" fill="black"/>
<path d="M10.379 14.194C10.048 14.194 9.779 13.925 9.779 13.594 9.779 13.263 10.048 12.994 10.379 12.994H13.619C13.951 12.994 14.219 13.263 14.219 13.594 14.219 13.926 13.951 14.194 13.619 14.194H10.379Z" fill="black"/>
<path d="M9.815 17.486C9.484 17.486 9.215 17.217 9.215 16.886 9.215 16.555 9.484 16.286 9.815 16.286H16.296C16.627 16.286 16.896 16.554 16.896 16.886 16.896 17.217 16.627 17.486 16.296 17.486H9.815Z" fill="black"/>
<path d="M19.495 3.183C19.495 3.017 19.361 2.883 19.195 2.883H4.8C4.634 2.883 4.5 3.017 4.5 3.183V20.825C4.5 20.991 4.634 21.125 4.8 21.125H19.195C19.361 21.125 19.495 20.991 19.495 20.825V3.183ZM20.695 20.825C20.695 21.654 20.023 22.325 19.195 22.325H4.8C3.972 22.325 3.3 21.654 3.3 20.825V3.183C3.3 2.354 3.972 1.683 4.8 1.683H19.195C20.023 1.683 20.695 2.355 20.695 3.183V20.825Z" fill="black"/>
</svg>