<svg xmlns="http://www.w3.org/2000/svg" width="24" height="24" fill="currentColor" viewBox="0 0 24 24"><path d="M18.75 5.25v13.5H5.25V5.25z" opacity=".2"/><path d="M19.425 5.25V9.3a.675.675 0 0 1-1.35 0V6.879l-3.572 3.573a.675.675 0 0 1-.955-.955l3.573-3.572H14.7a.675.675 0 0 1 0-1.35h4.05a.675.675 0 0 1 .675.675m-9.928 8.297L5.925 17.12v-2.421a.675.675 0 0 0-1.35 0v4.05a.675.675 0 0 0 .675.675H9.3a.675.675 0 0 0 0-1.35H6.879l3.573-3.572a.675.675 0 0 0-.955-.955m9.253.478a.675.675 0 0 0-.675.675v2.421l-3.572-3.573a.675.675 0 0 0-.955.955l3.573 3.572H14.7a.675.675 0 0 0 0 1.35h4.05a.675.675 0 0 0 .675-.675V14.7a.675.675 0 0 0-.675-.675m-11.871-8.1H9.3a.675.675 0 0 0 0-1.35H5.25a.675.675 0 0 0-.675.675V9.3a.675.675 0 0 0 1.35 0V6.879l3.572 3.573a.675.675 0 0 0 .955-.955z"/></svg>