<svg viewBox="0 0 24 24" fill="none" xmlns="http://www.w3.org/2000/svg" width="24" height="24">
<path d="M1.327 7.625C1.246 7.544 1.2 7.434 1.2 7.319 1.2 7.204 1.246 7.094 1.327 7.013L4.611 3.727C4.693 3.646 4.803 3.6 4.918 3.6 5.032 3.6 5.142 3.646 5.224 3.727L8.326 6.838C8.326 6.838 9.829 6.087 11.434 7.382 11.481 7.42 11.52 7.468 11.548 7.522 11.576 7.576 11.592 7.636 11.596 7.697 11.599 7.758 11.589 7.819 11.568 7.875 11.546 7.932 11.512 7.984 11.469 8.027L5.627 13.869C5.583 13.912 5.53 13.946 5.472 13.968 5.415 13.989 5.353 13.998 5.291 13.994 5.23 13.989 5.17 13.972 5.116 13.943 5.062 13.914 5.014 13.873 4.977 13.824 4.523 13.22 3.809 11.978 4.429 10.738L1.327 7.625Z" fill="black" fill-opacity="0.2" stroke="black" stroke-linecap="round" stroke-linejoin="round"/>
<path fill-rule="evenodd" clip-rule="evenodd" d="M21.9 16.8C22.728 16.8 23.4 17.472 23.4 18.3V21.3C23.4 22.128 22.728 22.8 21.9 22.8H2.1C1.272 22.8 0.6 22.128 0.6 21.3V18.3C0.6 17.472 1.272 16.8 2.1 16.8H21.9ZM2.1 18C1.934 18 1.8 18.134 1.8 18.3V21.3C1.8 21.466 1.934 21.6 2.1 21.6H7.8V18H2.1ZM9 21.6H15V18H9V21.6ZM16.2 21.6H21.9C22.066 21.6 22.2 21.466 22.2 21.3V18.3C22.2 18.134 22.066 18 21.9 18H16.2V21.6Z" fill="black"/>
<path d="M8.593 7.376L8.591 7.377 8.595 7.375 8.593 7.376Z" fill="black"/>
<path fill-rule="evenodd" clip-rule="evenodd" d="M4.917 3C5.157 3 5.388 3.084 5.572 3.234L5.647 3.302 5.648 3.304 8.483 6.146C8.681 6.092 8.943 6.038 9.251 6.025 9.954 5.993 10.879 6.165 11.809 6.914L11.89 6.986C11.942 7.037 11.987 7.094 12.027 7.154L12.082 7.248 12.127 7.346C12.166 7.448 12.189 7.555 12.195 7.664 12.202 7.809 12.18 7.955 12.128 8.091 12.076 8.226 11.995 8.348 11.892 8.45L9.394 10.95 11.59 13.146C11.824 13.38 11.824 13.76 11.59 13.995 11.356 14.229 10.976 14.229 10.741 13.995L8.545 11.798 6.049 14.295C5.945 14.398 5.819 14.479 5.681 14.53 5.544 14.581 5.397 14.602 5.25 14.592 5.104 14.582 4.961 14.541 4.832 14.472 4.702 14.402 4.589 14.305 4.5 14.188L4.498 14.184C4.073 13.619 3.264 12.308 3.727 10.882L0.904 8.048C0.734 7.879 0.628 7.658 0.605 7.421L0.6 7.32 0.605 7.218C0.628 6.981 0.733 6.758 0.902 6.588L4.187 3.302 4.263 3.234C4.447 3.084 4.678 3 4.917 3ZM1.868 7.318L4.854 10.314C5.036 10.496 5.082 10.776 4.966 11.006 4.555 11.83 4.937 12.707 5.344 13.302L10.908 7.739C10.289 7.293 9.72 7.205 9.305 7.223 9.075 7.234 8.887 7.276 8.76 7.315 8.696 7.334 8.649 7.352 8.62 7.364 8.608 7.369 8.6 7.372 8.595 7.375 8.363 7.49 8.085 7.445 7.902 7.262L4.916 4.269 1.868 7.318Z" fill="black"/>
</svg>