<svg width="24" height="24" viewBox="0 0 24 24" fill="none" xmlns="http://www.w3.org/2000/svg">
<path fill-rule="evenodd" clip-rule="evenodd" d="M17.6975 16.0842L16.2863 14.6731L17.177 13.7825L18.5881 15.1926L17.6975 16.0842Z" fill="black" fill-opacity="0.2"/>
<path d="M14.25 3C14.25 5.05025 14.25 6.19975 14.25 8.25H19.5L14.25 3Z" fill="black" fill-opacity="0.2"/>
<path d="M14.25 3V8.25H19.5M8.37891 21H5.25C5.05109 21 4.86032 20.921 4.71967 20.7803C4.57902 20.6397 4.5 20.4489 4.5 20.25V3.75C4.5 3.55109 4.57902 3.36032 4.71967 3.21967C4.86032 3.07902 5.05109 3 5.25 3H14.25L19.5 8.25V9.86754M15.2341 14.6865L17.7064 17.1589M7.5 13.9497H10.125M7.5 11.2498H12.75M7.5 16.6497H8.81M13.703 20.9932H11.73C11.6364 20.9932 11.5465 20.9559 11.4803 20.8897C11.4141 20.8235 11.3768 20.7336 11.3768 20.64V18.667C11.3769 18.5735 11.414 18.4838 11.4801 18.4176L16.9244 12.9734C16.9906 12.9072 17.0804 12.87 17.174 12.87C17.2677 12.87 17.3575 12.9072 17.4237 12.9734L19.3966 14.945C19.4628 15.0112 19.5 15.101 19.5 15.1946C19.5 15.2883 19.4628 15.3781 19.3966 15.4443L13.9524 20.8899C13.8862 20.956 13.7965 20.9931 13.703 20.9932Z" stroke="black" stroke-width="1.5" stroke-linecap="round" stroke-linejoin="round"/>
</svg>
