<svg viewBox="0 0 24 24" fill="none" xmlns="http://www.w3.org/2000/svg" width="24" height="24">
<path d="M19.29 21.72H6.383C5.321 20.658 4.811 20.327 3.9 19.416V3.09C3.9 2.875 3.985 2.669 4.137 2.517 4.289 2.365 4.495 2.28 4.71 2.28H14.057C14.296 2.28 14.525 2.375 14.694 2.543L19.836 7.686C20.005 7.855 20.1 8.084 20.1 8.323V10.915L14.564 16.364V18.986H17.425L20.1 16.741V20.91C20.1 21.125 20.015 21.331 19.863 21.483 19.711 21.635 19.505 21.72 19.29 21.72Z" fill="black" fill-opacity="0.2"/>
<path d="M13.83 2.28C13.83 1.949 14.099 1.68 14.43 1.68 14.761 1.68 15.03 1.949 15.03 2.28V7.349H20.099C20.431 7.349 20.699 7.618 20.699 7.949 20.699 8.281 20.431 8.549 20.099 8.549L20.066 8.551 19.502 8.549H14.43C14.099 8.549 13.83 8.281 13.83 7.949V2.88 2.28Z" fill="black"/>
<path fill-rule="evenodd" clip-rule="evenodd" d="M3.9 17.593C3.569 17.593 3.3 17.324 3.3 16.993V3.09C3.3 2.716 3.448 2.357 3.713 2.092 3.977 1.828 4.336 1.68 4.71 1.68H14.43L14.548 1.692C14.663 1.715 14.77 1.771 14.855 1.856L20.524 7.525C20.637 7.638 20.699 7.79 20.699 7.949 20.699 8.281 20.431 8.549 20.099 8.549H19.502L19.5 8.198 14.182 2.88H13.83 4.71C4.654 2.88 4.6 2.901 4.561 2.941 4.522 2.98 4.5 3.034 4.5 3.09V16.993C4.5 17.324 4.231 17.593 3.9 17.593ZM19.29 22.32H10.076C9.744 22.32 9.476 22.051 9.476 21.72 9.476 21.389 9.744 21.12 10.076 21.12H19.29C19.346 21.12 19.4 21.097 19.439 21.058 19.478 21.019 19.5 20.966 19.5 20.91V20.064C19.5 19.733 19.769 19.464 20.1 19.464 20.431 19.464 20.7 19.733 20.7 20.064L20.7 20.91C20.7 21.284 20.552 21.642 20.287 21.906 20.023 22.171 19.664 22.32 19.29 22.32Z" fill="black"/>
<path d="M7.779 21.12L11.614 17.284C11.848 17.05 11.848 16.67 11.614 16.436 11.38 16.202 11 16.202 10.766 16.436L6.329 20.872 4.5 19.042 4.324 18.867C4.09 18.632 3.71 18.632 3.476 18.867 3.242 19.101 3.241 19.481 3.476 19.715L4.5 20.739 4.881 21.12 5.906 22.144C6.019 22.257 6.171 22.32 6.33 22.32 6.489 22.32 6.642 22.257 6.755 22.144L7.779 21.12Z" fill="black"/>
<path d="M20.7 16.563L23.713 13.549C23.897 13.365 24 13.115 24 12.855 24 12.595 23.897 12.345 23.713 12.161L21.582 10.032 21.51 9.967C21.36 9.845 21.177 9.768 20.985 9.749L20.889 9.745C20.825 9.745 20.761 9.751 20.7 9.763 20.541 9.795 20.392 9.864 20.266 9.967L20.195 10.032 19.5 10.727 14.314 15.912C14.304 15.923 14.293 15.934 14.283 15.945 14.179 16.059 14.105 16.196 14.064 16.344 14.057 16.368 14.051 16.394 14.046 16.419 14.043 16.435 14.041 16.451 14.038 16.467L14.036 16.482 14.034 16.496 14.032 16.509 14.027 16.605V18.737C14.027 18.996 14.131 19.246 14.314 19.43 14.326 19.442 14.338 19.453 14.35 19.464 14.506 19.605 14.703 19.692 14.911 19.713 14.943 19.716 14.976 19.717 15.008 19.717H17.14L17.237 19.713C17.302 19.706 17.361 19.695 17.423 19.676 17.548 19.637 17.669 19.573 17.771 19.488 17.793 19.469 17.814 19.45 17.834 19.43L19.5 17.763 20.7 16.563ZM19.5 16.065L17.05 18.517H15.227V16.696L18.925 12.997 19.5 13.572 20.7 14.772 20.746 14.818 20.7 14.864 19.5 16.065ZM19.773 12.148L20.7 11.223 20.889 11.034 22.709 12.855 21.594 13.969 20.7 13.075 19.773 12.148Z" fill="black"/>
</svg>