<svg width="24" height="24" viewBox="0 0 24 24" fill="none" xmlns="http://www.w3.org/2000/svg">
<path d="M15.375 20.1001H7.25147C6.38326 19.2319 5.85633 18.7994 5.25 18.1931V7.2751C5.25 7.09608 5.32112 6.92439 5.4477 6.7978C5.57429 6.67121 5.74598 6.6001 5.925 6.6001H12.675L16.05 9.9751V13.6306L14.361 15.4533V17.7635H16.05V19.4251C16.05 19.6041 15.9789 19.7758 15.8523 19.9024C15.7257 20.029 15.554 20.1001 15.375 20.1001Z" fill="black" fill-opacity="0.2"/>
<path fill-rule="evenodd" clip-rule="evenodd" d="M5.25 16.66C4.97386 16.66 4.75 16.4361 4.75 16.16V7.27471C4.75005 6.96315 4.87344 6.66396 5.09375 6.44365C5.31406 6.22334 5.61325 6.09995 5.9248 6.0999H8.45H12.6748C12.8074 6.0999 12.9346 6.15268 13.0283 6.24639L16.4033 9.62139C16.4971 9.71515 16.5498 9.84229 16.5498 9.9749V10.7248C16.5498 11.0009 16.3259 11.2248 16.0498 11.2248C15.7737 11.2248 15.5498 11.0009 15.5498 10.7248V10.1819L12.4678 7.0999H7.96411L7.95 7.1001L7.93589 7.0999H5.9248C5.87846 7.09995 5.83355 7.11791 5.80078 7.15068C5.76801 7.18346 5.75005 7.22836 5.75 7.27471V16.16C5.75 16.4361 5.52614 16.66 5.25 16.66ZM15.3971 19.5985C15.3898 19.5994 15.3824 19.5999 15.375 19.5999L14.7065 19.5985L10.3961 19.5998C10.12 19.5998 9.89619 19.8237 9.89619 20.0998C9.89619 20.376 10.1201 20.5999 10.3963 20.5999H16.0393C16.3158 20.5999 16.5397 20.3786 16.5385 20.1021C16.5372 19.8256 16.3128 19.5985 16.0363 19.5985H15.3971Z" fill="black"/>
<path fill-rule="evenodd" clip-rule="evenodd" d="M7.45 4.57471V6.6001C7.4501 6.87143 7.66634 7.09243 7.93589 7.0999L7.95 7.1001L7.96411 7.0999C8.23366 7.09243 8.4499 6.87143 8.45 6.6001V6.0999V4.57471C8.45005 4.52837 8.46801 4.48346 8.50078 4.45068C8.53355 4.41791 8.57846 4.39995 8.6248 4.3999H15.1678L18.2498 7.48193V8.62687C18.2498 8.90302 18.4742 9.12687 18.7503 9.12687C19.0265 9.12687 19.2498 8.90302 19.2498 8.62687V7.2749C19.2498 7.14229 19.1971 7.01515 19.1033 6.92139L15.7283 3.54639C15.6346 3.45268 15.5074 3.3999 15.3748 3.3999H8.6248C8.31324 3.39995 8.01406 3.52334 7.79375 3.74365C7.57344 3.96396 7.45005 4.26315 7.45 4.57471Z" fill="black"/>
<path fill-rule="evenodd" clip-rule="evenodd" d="M21.7612 13.2897L16.8618 18.1911C16.7733 18.2794 16.6662 18.3457 16.5498 18.3858C16.4901 18.4064 16.428 18.4201 16.3647 18.4264L16.2837 18.4303H14.5073C14.2907 18.4301 14.0824 18.3442 13.9292 18.1911C13.7761 18.0378 13.69 17.8296 13.6899 17.6129V15.8366L13.6938 15.7565C13.7124 15.5696 13.7954 15.3936 13.9292 15.2594L18.8296 10.359L18.8892 10.3053C18.9937 10.2196 19.1178 10.1613 19.2498 10.1353C19.3015 10.1251 19.3543 10.1198 19.4077 10.1198L19.4878 10.1237C19.6483 10.1395 19.8005 10.2032 19.9253 10.3053L19.9858 10.359L21.7612 12.1335C21.9144 12.2867 22.0004 12.4949 22.0005 12.7116C22.0005 12.9283 21.9144 13.1364 21.7612 13.2897ZM19.2886 14.3473L17.771 12.8297L14.6899 15.9128V17.4303H16.2085L19.2886 14.3473ZM19.9956 13.6403L18.478 12.1227L19.4077 11.194L20.9243 12.7116L19.9956 13.6403Z" fill="black"/>
<path d="M7.27441 19.3926L5.60352 17.7217C5.40825 17.5264 5.09175 17.5264 4.89648 17.7217C4.70142 17.917 4.70129 18.2335 4.89648 18.4287L6.92188 20.4531C7.01563 20.5468 7.14283 20.5996 7.27539 20.5996C7.40786 20.5995 7.53523 20.5468 7.62891 20.4531L11.6787 16.4033C11.8738 16.2081 11.8738 15.8915 11.6787 15.6963C11.4835 15.5011 11.167 15.5011 10.9717 15.6963L7.27441 19.3926Z" fill="black"/>
</svg>
