<svg width="24" height="24" viewBox="0 0 24 24" fill="none" xmlns="http://www.w3.org/2000/svg">
<path d="M14.2447 20.0999H5.925C5.74598 20.0999 5.57429 20.0288 5.4477 19.9022C5.32112 19.7756 5.25 19.6039 5.25 19.4249V4.5749C5.25 4.39588 5.32112 4.22419 5.4477 4.09761C5.57429 3.97102 5.74598 3.8999 5.925 3.8999H13.7143C13.9133 3.8999 14.104 3.97892 14.2447 4.11957L18.5303 8.40523C18.671 8.54588 18.75 8.73665 18.75 8.93556V13.109C15.9985 15.8606 16.8547 15.2266 14.2447 17.8366C14.2447 18.6173 14.2447 19.0431 14.2447 20.0999Z" fill="black" fill-opacity="0.2"/>
<path d="M13.5249 3.8999C13.5249 3.62376 13.7488 3.3999 14.0249 3.3999C14.301 3.3999 14.5249 3.62376 14.5249 3.8999V8.12451H18.7495C19.0255 8.12451 19.2493 8.34855 19.2495 8.62451C19.2495 8.90065 19.0257 9.12451 18.7495 9.12451H14.0249C13.7488 9.12451 13.5249 8.90065 13.5249 8.62451V3.8999Z" fill="black"/>
<path fill-rule="evenodd" clip-rule="evenodd" d="M4.75 4.57471V19.4253C4.7501 19.7366 4.87373 20.0351 5.09375 20.2554C5.31406 20.4757 5.61325 20.6 5.9248 20.6001H12.3914C12.6676 20.6001 12.8914 20.3934 12.8914 20.1173C12.8914 19.8412 12.6676 19.6001 12.3914 19.6001H5.9248C5.87846 19.6 5.83355 19.5811 5.80078 19.5483C5.7683 19.5157 5.7501 19.4714 5.75 19.4253V4.57471C5.75005 4.52837 5.76801 4.48346 5.80078 4.45068C5.83355 4.41791 5.87846 4.39995 5.9248 4.3999H13.8184L18.25 8.83154V10.7937C18.25 11.0698 18.4695 11.2935 18.7455 11.2935C19.0216 11.2935 19.2496 11.0698 19.2496 10.7937L19.2495 8.62451C19.2494 8.49204 19.1972 8.36467 19.1035 8.271L14.3789 3.54639C14.3086 3.47607 14.2191 3.42889 14.123 3.40967L14.0249 3.3999H5.9248C5.61325 3.39995 5.31406 3.52334 5.09375 3.74365C4.87344 3.96396 4.75005 4.26315 4.75 4.57471Z" fill="black"/>
<path d="M14.0249 13.5249C14.301 13.5249 14.5249 13.7488 14.5249 14.0249C14.5249 14.301 14.301 14.5249 14.0249 14.5249H9.9751C9.69896 14.5249 9.4751 14.301 9.4751 14.0249C9.4751 13.7488 9.69896 13.5249 9.9751 13.5249H14.0249Z" fill="black"/>
<path d="M12.0005 16.2251C12.2765 16.2253 12.5005 16.4491 12.5005 16.7251C12.5005 17.0011 12.2765 17.2249 12.0005 17.2251H9.9751C9.69896 17.2251 9.4751 17.0012 9.4751 16.7251C9.4751 16.449 9.69896 16.2251 9.9751 16.2251H12.0005Z" fill="black"/>
<path d="M14.0249 10.8247C14.301 10.8247 14.5249 11.0486 14.5249 11.3247C14.5249 11.6008 14.301 11.8247 14.0249 11.8247H9.9751C9.69896 11.8247 9.4751 11.6008 9.4751 11.3247C9.4751 11.0486 9.69896 10.8247 9.9751 10.8247H14.0249Z" fill="black"/>
<path fill-rule="evenodd" clip-rule="evenodd" d="M19.2939 16.5137L16.2139 19.5967H14.6953V18.0791L17.7764 14.9961L19.2939 16.5137ZM16.8672 20.3574C16.7332 20.4911 16.5568 20.5741 16.3701 20.5928L16.2891 20.5967H14.5127C14.2961 20.5964 14.0877 20.5106 13.9346 20.3574C13.7815 20.2041 13.6954 19.996 13.6953 19.7793V18.0029L13.6992 17.9229C13.7178 17.7359 13.8007 17.5599 13.9346 17.4258L18.835 12.5254L18.8945 12.4717C18.9976 12.3872 19.1197 12.3293 19.2497 12.3027C19.3031 12.2918 19.3578 12.2862 19.4131 12.2861L19.4932 12.29C19.6537 12.3059 19.8058 12.3695 19.9307 12.4717L19.9912 12.5254L21.7666 14.2998C21.9198 14.4531 22.0058 14.6613 22.0059 14.8779C22.0058 15.0947 21.9198 15.3027 21.7666 15.4561L16.8672 20.3574ZM18.4834 14.2891L20.001 15.8066L20.9297 14.8779L19.4131 13.3604L18.4834 14.2891Z" fill="black"/>
</svg>
