<svg width="24" height="24" viewBox="0 0 24 24" fill="none" xmlns="http://www.w3.org/2000/svg">
<path d="M14.661 2.75098V8.00098H19.911L14.661 2.75098Z" fill="black" fill-opacity="0.2"/>
<path fill-rule="evenodd" clip-rule="evenodd" d="M19.6006 14.2174L18.1895 12.8063L19.0801 11.9157L20.4913 13.3258L19.6006 14.2174Z" fill="black" fill-opacity="0.2"/>
<path d="M14.6553 2.75098V8.00098H19.9053L14.6553 2.75098ZM14.6553 2.75098H5.65527C5.45636 2.75098 5.2656 2.82999 5.12494 2.97065C4.98429 3.1113 4.90527 3.30206 4.90527 3.50098V20.001C4.90527 20.1999 4.98429 20.3907 5.12494 20.5313C5.2656 20.672 5.45636 20.751 5.65527 20.751H8.78418M17.1426 12.8171L19.6149 15.2895M7.90527 13.7007H10.5303M7.90527 11.0007H13.1553M7.90527 16.4006H9.21527M15.6114 19.1239H13.6385C13.5448 19.1239 13.455 19.0867 13.3887 19.0204C13.3225 18.9542 13.2853 18.8644 13.2853 18.7707V16.7978C13.2853 16.7042 13.3225 16.6145 13.3886 16.5483L18.8328 11.1041C18.899 11.0379 18.9888 11.0007 19.0825 11.0007C19.1761 11.0007 19.2659 11.0379 19.3321 11.1041L21.3051 13.0757C21.3713 13.1419 21.4084 13.2317 21.4084 13.3254C21.4084 13.419 21.3713 13.5088 21.3051 13.575L15.8608 19.0206C15.7946 19.0867 15.7049 19.1238 15.6114 19.1239Z" stroke="black" stroke-width="1.5" stroke-linecap="round" stroke-linejoin="round"/>
</svg>
