<svg viewBox="0 0 24 24" fill="none" xmlns="http://www.w3.org/2000/svg" width="24" height="24">
<path d="M16.05 21.72H8.696C7.655 20.678 4.628 17.796 3.9 17.068V6.33C3.9 6.115 3.985 5.909 4.137 5.757 4.289 5.605 4.495 5.52 4.71 5.52H12.81L16.86 9.57V13.957L14.833 16.144V18.916H16.86V20.91C16.86 21.125 16.775 21.331 16.623 21.483 16.471 21.635 16.265 21.72 16.05 21.72Z" fill="black" fill-opacity="0.2"/>
<path fill-rule="evenodd" clip-rule="evenodd" d="M3.3 6.33V14.562C3.3 14.893 3.549 15.162 3.881 15.162 4.212 15.162 4.5 14.893 4.5 14.562V6.33C4.5 6.274 4.522 6.22 4.561 6.181 4.6 6.141 4.654 6.12 4.71 6.12H7.123L7.14 6.12 7.157 6.12H12.561L16.26 9.818V10.47C16.26 10.801 16.528 11.07 16.86 11.07 17.191 11.07 17.46 10.801 17.46 10.47V9.57C17.46 9.411 17.397 9.258 17.284 9.146L13.234 5.096C13.122 4.983 12.969 4.92 12.81 4.92H7.74 4.71C4.336 4.92 3.977 5.068 3.713 5.332 3.448 5.597 3.3 5.956 3.3 6.33ZM16.05 21.12C16.059 21.12 16.068 21.119 16.077 21.118H16.836C17.172 21.118 17.445 21.39 17.446 21.726 17.448 22.054 17.182 22.32 16.854 22.32H11.057C10.725 22.32 10.457 22.105 10.457 21.774 10.457 21.443 10.726 21.12 11.057 21.119L15.248 21.118 16.05 21.12Z" fill="black"/>
<path fill-rule="evenodd" clip-rule="evenodd" d="M6.54 3.09V5.52C6.54 5.846 6.8 6.111 7.123 6.12L7.14 6.12 7.157 6.12C7.48 6.111 7.74 5.846 7.74 5.52V4.92 3.09C7.74 3.034 7.762 2.98 7.801 2.941 7.84 2.901 7.894 2.88 7.95 2.88H15.801L19.5 6.578V7.952C19.5 8.284 19.769 8.552 20.1 8.552 20.432 8.552 20.7 8.284 20.7 7.952V6.33C20.7 6.171 20.637 6.018 20.524 5.906L16.474 1.856C16.362 1.743 16.209 1.68 16.05 1.68H7.95C7.576 1.68 7.217 1.828 6.953 2.092 6.688 2.357 6.54 2.716 6.54 3.09Z" fill="black"/>
<path fill-rule="evenodd" clip-rule="evenodd" d="M23.713 13.548L17.834 19.429C17.728 19.535 17.599 19.615 17.46 19.663 17.388 19.688 17.314 19.704 17.238 19.712L17.14 19.716H15.009C14.749 19.716 14.499 19.613 14.315 19.429 14.131 19.245 14.028 18.996 14.028 18.735V16.604L14.033 16.508C14.055 16.284 14.154 16.072 14.315 15.911L20.196 10.031 20.267 9.966C20.392 9.864 20.541 9.794 20.7 9.762 20.762 9.75 20.825 9.744 20.889 9.744L20.985 9.748C21.178 9.767 21.361 9.844 21.51 9.966L21.583 10.031 23.713 12.16C23.897 12.344 24 12.594 24.001 12.854 24.001 13.114 23.897 13.364 23.713 13.548ZM20.746 14.817L18.925 12.996 15.228 16.695V18.516H17.05L20.746 14.817ZM21.595 13.968L19.774 12.147 20.889 11.033 22.709 12.854 21.595 13.968Z" fill="black"/>
<path fill-rule="evenodd" clip-rule="evenodd" d="M7.178 19.289L9.184 17.283C9.418 17.049 9.418 16.669 9.184 16.435 8.95 16.201 8.57 16.201 8.336 16.435L6.33 18.441 4.324 16.435C4.09 16.201 3.71 16.201 3.476 16.435 3.241 16.669 3.241 17.049 3.476 17.283L5.481 19.289 3.476 21.295C3.242 21.529 3.242 21.909 3.476 22.143 3.71 22.377 4.09 22.377 4.324 22.143L6.33 20.137 8.336 22.143C8.57 22.377 8.95 22.377 9.184 22.143 9.418 21.909 9.418 21.529 9.184 21.295L7.178 19.289Z" fill="black"/>
</svg>