<svg viewBox="0 0 24 24" fill="none" xmlns="http://www.w3.org/2000/svg" width="24" height="24">
<path d="M19.29 21.72H4.71C4.495 21.72 4.289 21.635 4.137 21.483 3.985 21.331 3.9 21.125 3.9 20.91V3.09C3.9 2.875 3.985 2.669 4.137 2.517 4.289 2.365 4.495 2.28 4.71 2.28H14.057C14.296 2.28 14.525 2.375 14.694 2.543L19.836 7.686C20.005 7.855 20.1 8.084 20.1 8.323V10.915L14.564 16.364V18.986H17.425L20.1 16.741V20.91C20.1 21.125 20.015 21.331 19.863 21.483 19.711 21.635 19.505 21.72 19.29 21.72Z" fill="black" fill-opacity="0.2"/>
<path d="M13.83 2.28C13.83 1.949 14.099 1.68 14.43 1.68 14.761 1.68 15.03 1.949 15.03 2.28V7.349H20.099C20.431 7.349 20.699 7.618 20.699 7.949 20.699 8.281 20.431 8.549 20.099 8.549H19.502 14.43C14.099 8.549 13.83 8.281 13.83 7.949V2.88 2.28Z" fill="black"/>
<path fill-rule="evenodd" clip-rule="evenodd" d="M3.3 3.09V20.91C3.3 21.284 3.448 21.642 3.713 21.906 3.977 22.171 4.336 22.32 4.71 22.32H19.29C19.664 22.32 20.023 22.171 20.287 21.906 20.552 21.642 20.7 21.284 20.7 20.91L20.7 20.064C20.7 19.733 20.431 19.464 20.1 19.464 19.769 19.464 19.5 19.733 19.5 20.064V20.91C19.5 20.966 19.478 21.019 19.439 21.058 19.4 21.097 19.346 21.12 19.29 21.12H4.71C4.654 21.12 4.6 21.097 4.561 21.058 4.522 21.019 4.5 20.966 4.5 20.91V3.09C4.5 3.034 4.522 2.98 4.561 2.941 4.6 2.901 4.654 2.88 4.71 2.88H13.83 14.182L19.5 8.198 19.502 8.549C19.584 8.549 19.662 8.549 19.732 8.549 19.863 8.549 19.979 8.549 20.099 8.549 20.431 8.549 20.699 8.281 20.699 7.949 20.699 7.79 20.637 7.638 20.524 7.525L14.855 1.856C14.77 1.771 14.663 1.715 14.548 1.692L14.43 1.68H4.71C4.336 1.68 3.977 1.828 3.713 2.092 3.448 2.357 3.3 2.716 3.3 3.09Z" fill="black"/>
<path d="M12.006 13.83C12.338 13.83 12.606 14.099 12.606 14.43 12.606 14.761 12.338 15.03 12.006 15.03H9.57C9.239 15.03 8.97 14.761 8.97 14.43 8.97 14.099 9.239 13.83 9.57 13.83H12.006Z" fill="black"/>
<path d="M12 17.07C12.332 17.07 12.6 17.339 12.6 17.67 12.6 18.001 12.332 18.27 12 18.27H9.57C9.239 18.27 8.97 18.001 8.97 17.67 8.97 17.339 9.239 17.07 9.57 17.07H12Z" fill="black"/>
<path d="M14.43 10.59C14.761 10.59 15.03 10.858 15.03 11.19 15.03 11.521 14.761 11.79 14.43 11.79H9.57C9.239 11.79 8.97 11.521 8.97 11.19 8.97 10.858 9.239 10.59 9.57 10.59H14.43Z" fill="black"/>
<path fill-rule="evenodd" clip-rule="evenodd" d="M20.7 14.864L20.746 14.818 20.7 14.772 20.7 14.864Z" fill="black"/>
<path fill-rule="evenodd" clip-rule="evenodd" d="M17.423 19.676C17.423 19.676 17.423 19.676 17.423 19.676ZM17.237 19.713C17.302 19.706 17.361 19.694 17.423 19.676L17.237 19.713Z" fill="black"/>
<path d="M23.713 13.549C23.897 13.365 24 13.115 24 12.855 24 12.595 23.897 12.345 23.713 12.161L21.582 10.032 21.51 9.967C21.36 9.845 21.177 9.768 20.985 9.749L20.889 9.745C20.825 9.745 20.761 9.751 20.7 9.763 20.541 9.795 20.392 9.864 20.266 9.967L20.195 10.032 14.314 15.912C14.304 15.923 14.293 15.934 14.283 15.945 14.179 16.059 14.105 16.196 14.064 16.344 14.057 16.368 14.051 16.394 14.046 16.419 14.043 16.435 14.041 16.451 14.038 16.467L14.036 16.482 14.034 16.496 14.032 16.509 14.027 16.605V18.737C14.027 18.996 14.131 19.246 14.314 19.43 14.326 19.442 14.338 19.453 14.35 19.464 14.506 19.605 14.703 19.692 14.911 19.713 14.943 19.716 14.976 19.717 15.008 19.717H17.14L17.237 19.713C17.302 19.706 17.361 19.694 17.423 19.676 17.548 19.637 17.669 19.573 17.771 19.488 17.793 19.469 17.814 19.45 17.834 19.43L23.713 13.549ZM17.05 18.517H15.227V16.696L18.925 12.997 20.7 14.772 20.746 14.818 20.7 14.864 17.05 18.517ZM19.773 12.148L20.889 11.034 22.709 12.855 21.594 13.969 19.773 12.148Z" fill="black"/>
<path fill-rule="evenodd" clip-rule="evenodd" d="M17.423 19.676C17.548 19.637 17.669 19.573 17.771 19.488 17.668 19.574 17.55 19.637 17.423 19.676Z" fill="black"/>
</svg>