<svg xmlns="http://www.w3.org/2000/svg" width="24" height="24" fill="currentColor" viewBox="0 0 24 24"><path d="M20.1 7.14v9.72H3.9v-9.72z" opacity=".2"/><path d="M20.674 17.434l-3.24 3.24a0.81 0.81 0 0 1-1.146-1.146l1.857-1.857H3.9a0.81 0.81 0 0 1 0-1.62h14.245l-1.857-1.856a0.81 0.81 0 0 1 1.146-1.146l3.24 3.24a0.81 0.81 0 0 1 0 1.146z m-14.106-6.48a0.81 0.81 0 0 0 1.146-1.146L5.856 7.951h14.245a0.81 0.81 0 0 0 0-1.62H5.856l1.858-1.856a0.81 0.81 0 0 0-1.146-1.146l-3.24 3.24a0.81 0.81 0 0 0 0 1.146z"/></svg>