<svg xmlns="http://www.w3.org/2000/svg" width="24" height="24" fill="currentColor" viewBox="0 0 24 24"><path d="M19.29 4.71V20.1a0.81 0.81 0 0 1-0.81 0.81H5.52a0.81 0.81 0 0 1-0.81-0.81V4.71z" opacity=".2"/><path d="M20.91 3.9H16.86v-0.81a2.43 2.43 0 0 0-2.43-2.43h-4.86A2.43 2.43 0 0 0 7.14 3.09v0.81H3.09a0.81 0.81 0 0 0 0 1.62h0.81v14.58A1.62 1.62 0 0 0 5.52 21.72h12.96a1.62 1.62 0 0 0 1.62-1.62V5.52h0.81a0.81 0.81 0 0 0 0-1.62M8.76 3.09a0.81 0.81 0 0 1 0.81-0.81h4.86a0.81 0.81 0 0 1 0.81 0.81v0.81H8.76z m9.72 17.01H5.52V5.52h12.96z m-8.1-10.53v6.48a0.81 0.81 0 0 1-1.62 0v-6.48a0.81 0.81 0 0 1 1.62 0m4.86 0v6.48a0.81 0.81 0 0 1-1.62 0v-6.48a0.81 0.81 0 0 1 1.62 0"/></svg>