<svg xmlns="http://www.w3.org/2000/svg" fill="currentColor" viewBox="0 0 24 24" width="24" height="24"><path d="M20.91 3.9v11.34h-3.715a0.816 0.816 0 0 0-0.574 0.236l-1.955 1.956a0.816 0.816 0 0 1-0.573 0.237h-4.189a0.816 0.816 0 0 1-0.574-0.237l-1.955-1.956a0.816 0.816 0 0 0-0.573-0.236H3.088V3.9a0.81 0.81 0 0 1 0.81-0.81h16.2a0.81 0.81 0 0 1 0.81 0.81z" opacity=".2"/><path d="M20.1 2.28H3.9A1.62 1.62 0 0 0 2.28 3.9v16.2a1.62 1.62 0 0 0 1.62 1.62h16.2a1.62 1.62 0 0 0 1.62-1.62V3.9a1.62 1.62 0 0 0-1.62-1.62m0 1.62v10.53h-2.906a1.608 1.608 0 0 0-1.144 0.475l-1.955 1.955h-4.189l-1.955-1.955a1.608 1.608 0 0 0-1.145-0.475H3.901V3.9z m0 16.2H3.9v-4.05h2.905L8.76 18.005a1.608 1.608 0 0 0 1.145 0.475h4.189a1.608 1.608 0 0 0 1.145-0.475l1.955-1.955h2.905z m-11.914-9.956a0.81 0.81 0 0 1 0-1.146l3.24-3.24a0.81 0.81 0 0 1 1.146 0l3.24 3.24a0.81 0.81 0 0 1-1.146 1.146l-1.856-1.858v6.145a0.81 0.81 0 0 1-1.62 0V8.286l-1.856 1.858a0.81 0.81 0 0 1-1.146 0z"/></svg>