<svg xmlns="http://www.w3.org/2000/svg" fill="currentColor" viewBox="0 0 24 24" width="24" height="24"><path d="M9.57 2.28v3.24a0.81 0.81 0 0 1-0.81 0.81H5.52a0.81 0.81 0 0 1-0.81-0.81V2.28a0.81 0.81 0 0 1 0.81-0.81h3.24a0.81 0.81 0 0 1 0.81 0.81m10.53 6.48h-3.24a0.81 0.81 0 0 0-0.81 0.81v3.24a0.81 0.81 0 0 0 0.81 0.81h3.24a0.81 0.81 0 0 0 0.81-0.81v-3.24a0.81 0.81 0 0 0-0.81-0.81m0 8.91h-3.24a0.81 0.81 0 0 0-0.81 0.81v3.24a0.81 0.81 0 0 0 0.81 0.81h3.24a0.81 0.81 0 0 0 0.81-0.81v-3.24a0.81 0.81 0 0 0-0.81-0.81" opacity=".2"/><path d="M16.86 14.43h3.24a1.62 1.62 0 0 0 1.62-1.62v-3.24a1.62 1.62 0 0 0-1.62-1.62h-3.24a1.62 1.62 0 0 0-1.62 1.62v0.81H7.95v-3.24H8.76a1.62 1.62 0 0 0 1.62-1.62V2.28A1.62 1.62 0 0 0 8.76 0.66H5.52A1.62 1.62 0 0 0 3.9 2.28v3.24A1.62 1.62 0 0 0 5.52 7.14h0.81v11.34A2.43 2.43 0 0 0 8.76 20.91h6.48v0.81a1.62 1.62 0 0 0 1.62 1.62h3.24a1.62 1.62 0 0 0 1.62-1.62v-3.24a1.62 1.62 0 0 0-1.62-1.62h-3.24a1.62 1.62 0 0 0-1.62 1.62v0.81H8.76a0.81 0.81 0 0 1-0.81-0.81V12H15.24v0.81a1.62 1.62 0 0 0 1.62 1.62M5.52 2.28h3.24v3.24H5.52z m11.34 16.2h3.24v3.24h-3.24z m0-8.91h3.24v3.24h-3.24z"/></svg>