<svg width="24" height="24" viewBox="0 0 24 24" fill="none" xmlns="http://www.w3.org/2000/svg">
<path d="M17.25 11.25V13.5H2.25V17.25C2.25 17.4489 2.32902 17.6397 2.46967 17.7803C2.61032 17.921 2.80109 18 3 18H5.25C5.25 17.4033 5.48705 16.831 5.90901 16.409C6.33097 15.9871 6.90326 15.75 7.5 15.75C8.09674 15.75 8.66903 15.9871 9.09099 16.409C9.51295 16.831 9.75 17.4033 9.75 18H15.75C15.75 17.4033 15.9871 16.831 16.409 16.409C16.831 15.9871 17.4033 15.75 18 15.75C18.5967 15.75 19.169 15.9871 19.591 16.409C20.0129 16.831 20.25 17.4033 20.25 18H22.5C22.6989 18 22.8897 17.921 23.0303 17.7803C23.171 17.6397 23.25 17.4489 23.25 17.25V11.25H17.25Z" fill="black" fill-opacity="0.2"/>
<path d="M20.2495 18H22.4995C22.6984 18 22.8892 17.921 23.0298 17.7803C23.1705 17.6397 23.2495 17.4489 23.2495 17.25V11.25L21.937 7.96875C21.881 7.8302 21.7848 7.71155 21.6609 7.62803C21.5369 7.54451 21.3908 7.49993 21.2414 7.5H17.2495M23.2495 11.25H17.2495M2.24951 13.5H17.2495M20.2495 18C20.2495 19.2426 19.2422 20.25 17.9995 20.25C16.7569 20.25 15.7495 19.2426 15.7495 18M20.2495 18C20.2495 16.7574 19.2422 15.75 17.9995 15.75C16.7569 15.75 15.7495 16.7574 15.7495 18M15.7495 18H9.74951M9.74951 18C9.74951 19.2426 8.74215 20.25 7.49951 20.25C6.25687 20.25 5.24951 19.2426 5.24951 18M9.74951 18C9.74951 16.7574 8.74215 15.75 7.49951 15.75C6.25687 15.75 5.24951 16.7574 5.24951 18M5.24951 18H2.99951C2.8006 18 2.60983 17.921 2.46918 17.7803C2.32853 17.6397 2.24951 17.4489 2.24951 17.25V6.75C2.24951 6.55109 2.32853 6.36032 2.46918 6.21967C2.60983 6.07902 2.8006 6 2.99951 6H17.2495V15.8784" stroke="black" stroke-width="1.5" stroke-linecap="round" stroke-linejoin="round"/>
</svg>
