<svg xmlns="http://www.w3.org/2000/svg" width="24" height="24" fill="currentColor" viewBox="0 0 24 24"><path d="M13.62 10.38v5.67a1.62 1.62 0 0 0 1.62 1.62h3.24v4.86h-4.05A5.67 5.67 0 0 1 8.76 16.86v-6.48H5.52V6.33a4.86 4.86 0 0 0 4.86-4.86h3.24v4.86h4.86v4.05z" opacity=".2"/><path d="M18.48 11.19a0.81 0.81 0 0 0 0.81-0.81V6.33A0.81 0.81 0 0 0 18.48 5.52h-4.05V1.47a0.81 0.81 0 0 0-0.81-0.81h-3.24a0.81 0.81 0 0 0-0.81 0.81A4.05 4.05 0 0 1 5.52 5.52a0.81 0.81 0 0 0-0.81 0.81v4.05a0.81 0.81 0 0 0 0.81 0.81h2.43v5.67a6.487 6.487 0 0 0 6.48 6.48H18.48a0.81 0.81 0 0 0 0.81-0.81v-4.86a0.81 0.81 0 0 0-0.81-0.81h-3.24a0.81 0.81 0 0 1-0.81-0.81v-4.86zM15.24 18.48h2.43v3.24h-3.24a4.865 4.865 0 0 1-4.86-4.86v-6.48a0.81 0.81 0 0 0-0.81-0.81H6.33V7.082A5.688 5.688 0 0 0 11.132 2.28h1.678v4.05a0.81 0.81 0 0 0 0.81 0.81h4.05v2.43H13.62a0.81 0.81 0 0 0-0.81 0.81v5.67A2.43 2.43 0 0 0 15.24 18.48"/></svg>