<svg viewBox="0 0 24 24" fill="none" xmlns="http://www.w3.org/2000/svg" width="24" height="24">
<path d="M13.867 5.551C13.633 5.317 13.633 4.937 13.867 4.702L15.586 2.984C15.82 2.75 16.2 2.75 16.435 2.984 16.669 3.218 16.668 3.598 16.435 3.832L14.716 5.551C14.482 5.785 14.102 5.785 13.867 5.551ZM17.141 16.609C16.81 16.601 16.548 16.326 16.556 15.995 16.564 15.664 16.838 15.403 17.169 15.41L18.878 15.451C19.777 15.431 20.633 15.06 21.264 14.419 21.898 13.774 22.253 12.905 22.253 12.001 22.253 11.097 21.898 10.228 21.264 9.583 20.63 8.938 19.768 8.567 18.863 8.551L17.17 8.591C16.838 8.599 16.563 8.336 16.556 8.005 16.548 7.674 16.81 7.399 17.141 7.391L18.86 7.352C18.868 7.351 18.876 7.351 18.884 7.351 20.103 7.372 21.264 7.872 22.119 8.741 22.974 9.611 23.453 10.782 23.453 12.001 23.453 13.22 22.974 14.391 22.12 15.26 21.265 16.13 20.103 16.629 18.884 16.65H18.859L17.141 16.609ZM7.566 3.832C7.333 3.598 7.332 3.218 7.566 2.984 7.801 2.75 8.181 2.75 8.415 2.984L10.134 4.702C10.368 4.937 10.368 5.317 10.134 5.551 9.899 5.785 9.519 5.785 9.285 5.551L7.566 3.832ZM1.881 15.26C1.027 14.391 0.548 13.22 0.548 12.001 0.548 10.782 1.027 9.611 1.882 8.741 2.737 7.872 3.898 7.372 5.117 7.351 5.125 7.351 5.133 7.351 5.141 7.352L6.86 7.391C7.191 7.399 7.453 7.674 7.445 8.005 7.438 8.336 7.163 8.599 6.831 8.591L5.138 8.551C4.233 8.567 3.371 8.938 2.737 9.583 2.103 10.228 1.748 11.097 1.748 12.001 1.748 12.905 2.103 13.774 2.737 14.419 3.368 15.06 4.224 15.431 5.123 15.451L6.832 15.41C7.163 15.403 7.437 15.664 7.445 15.995 7.453 16.326 7.191 16.601 6.86 16.609L5.142 16.65H5.117C3.898 16.629 2.736 16.13 1.881 15.26ZM13.867 19.297C13.633 19.063 13.632 18.683 13.867 18.449 14.101 18.215 14.481 18.215 14.715 18.449L16.434 20.167C16.668 20.402 16.668 20.781 16.434 21.016 16.199 21.25 15.819 21.25 15.585 21.016L13.867 19.297ZM7.567 21.016C7.333 20.781 7.333 20.402 7.567 20.167L9.286 18.449C9.52 18.215 9.9 18.214 10.134 18.449 10.368 18.683 10.368 19.063 10.134 19.297L8.416 21.016C8.182 21.25 7.802 21.25 7.567 21.016Z" fill="black"/>
<rect x="3.03125" y="8.65625" width="17.9375" height="6.75" rx="3.375" fill="black" fill-opacity="0.2"/>
</svg>