<svg width="24" height="24" viewBox="0 0 24 24" fill="none" xmlns="http://www.w3.org/2000/svg">
<path d="M19.1513 10.1511C19.8344 9.44381 20.2124 8.49655 20.2038 7.51331C20.1953 6.53008 19.8009 5.58953 19.1056 4.89425C18.4103 4.19897 17.4698 3.80458 16.4866 3.79604C15.5033 3.7875 14.5561 4.16548 13.8488 4.84857L4.84881 13.8486C4.16572 14.5558 3.78774 15.5031 3.79628 16.4863C3.80483 17.4696 4.19921 18.4101 4.89449 19.1054C5.58977 19.8007 6.53032 20.195 7.51356 20.2036C8.49679 20.2121 9.44405 19.8342 10.1513 19.1511L19.1513 10.1511Z" fill="black" fill-opacity="0.2"/>
<path d="M18 11.2501L19.1512 10.1513C19.8343 9.44405 20.2123 8.4968 20.2038 7.51356C20.1952 6.53032 19.8008 5.58977 19.1056 4.89449C18.4103 4.19921 17.4697 3.80483 16.4865 3.79628C15.5033 3.78774 14.556 4.16572 13.8488 4.84881L12.75 6.00006M6.00006 12.75L4.84881 13.8488C4.16572 14.556 3.78774 15.5033 3.79628 16.4865C3.80483 17.4697 4.19921 18.4103 4.89449 19.1056C5.58977 19.8008 6.53032 20.1952 7.51356 20.2038C8.4968 20.2123 9.44405 19.8343 10.1513 19.1512L11.2501 18M18 15H20.25M3.75 9H6M15 18V20.25M9 3.75V6" stroke="black" stroke-width="1.5" stroke-linecap="round" stroke-linejoin="round"/>
</svg>
