<svg width="24" height="24" viewBox="0 0 24 24" fill="none" xmlns="http://www.w3.org/2000/svg">
<path opacity="0.2" d="M10.6814 19.6818C9.83512 20.5144 8.69418 20.9788 7.50707 20.974C6.31995 20.9692 5.18284 20.4955 4.34341 19.656C3.50399 18.8166 3.03026 17.6795 3.02543 16.4924C3.02059 15.3053 3.48504 14.1643 4.3176 13.3181L13.3176 4.31809C14.1638 3.48553 15.3048 3.02108 16.4919 3.02592C17.679 3.03075 18.8161 3.50447 19.6555 4.3439C20.495 5.18332 20.9687 6.32044 20.9735 7.50756C20.9784 8.69467 20.5139 9.83561 19.6814 10.6818L10.6814 19.6818Z" fill="black"/>
<path d="M10.5007 7.13523L13.3188 4.32273C14.165 3.49017 15.306 3.02572 16.4931 3.03055C17.6802 3.03539 18.8173 3.50911 19.6567 4.34854C20.4962 5.18796 20.9699 6.32508 20.9747 7.51219C20.9796 8.69931 20.5151 9.84025 19.6825 10.6865L16.8644 13.4999M7.13596 10.4999L4.32346 13.318C3.4909 14.1643 3.02645 15.3052 3.03129 16.4923C3.03612 17.6794 3.50984 18.8166 4.34927 19.656C5.18869 20.4954 6.32581 20.9691 7.51293 20.974C8.70004 20.9788 9.84098 20.5144 10.6872 19.6818L13.5006 16.8637" stroke="black" stroke-width="1.5" stroke-linecap="round" stroke-linejoin="round"/>
</svg>
