<svg xmlns="http://www.w3.org/2000/svg" width="24" height="24" fill="currentColor" viewBox="0 0 24 24"><path d="M19.723 10.003l-9.72 9.72a4.05 4.05 0 0 1-5.726-5.726l9.72-9.72a4.05 4.05 0 0 1 5.726 5.726" opacity=".2"/><path d="M19.151 4.849a3.24 3.24 0 0 0-4.576-0.006l-1.179 1.236a0.81 0.81 0 0 1-1.173-1.113l1.187-1.245 0.013-0.013a4.86 4.86 0 0 1 6.873 6.872l-0.014 0.014-1.244 1.186a0.81 0.81 0 0 1-1.114-1.172l1.236-1.18a3.24 3.24 0 0 0-0.009-4.579m-8.548 13.073l-1.179 1.236a3.24 3.24 0 0 1-4.582-4.582l1.236-1.179a0.81 0.81 0 0 0-1.114-1.173l-1.248 1.187-0.013 0.013a4.86 4.86 0 0 0 6.873 6.873l0.013-0.013 1.187-1.245a0.81 0.81 0 1 0-1.173-1.113z m10.307-3.491H18.48a0.81 0.81 0 0 0 0 1.62h2.43a0.81 0.81 0 0 0 0-1.62m-17.82-4.86H5.52a0.81 0.81 0 0 0 0-1.62H3.09a0.81 0.81 0 0 0 0 1.62m12.15 8.1a0.81 0.81 0 0 0-0.81 0.81v2.43a0.81 0.81 0 0 0 1.62 0v-2.43a0.81 0.81 0 0 0-0.81-0.81m-6.48-11.34a0.81 0.81 0 0 0 0.81-0.81V3.091a0.81 0.81 0 0 0-1.62 0v2.43a0.81 0.81 0 0 0 0.81 0.81"/></svg>