<svg xmlns="http://www.w3.org/2000/svg" width="24" height="24" fill="currentColor" viewBox="0 0 24 24"><path d="m20.578 9.497-4.832 4.848c.967 1.935-.145 3.869-.853 4.809a.675.675 0 0 1-1.012.07l-9.107-9.102a.675.675 0 0 1 .056-1.005c2.502-2.018 4.843-.844 4.843-.844l4.832-4.848a.675.675 0 0 1 .954 0l5.12 5.114a.675.675 0 0 1 0 .957z" opacity=".2"/><path d="M5.75 4.121a.675.675 0 1 0-.999.908l2.134 2.347a5.9 5.9 0 0 0-2.478 1.218 1.35 1.35 0 0 0-.109 2.006l4.074 4.075-3.599 3.597a.675.675 0 0 0 .955.955l3.597-3.599 4.074 4.074a1.35 1.35 0 0 0 .955.397h.095a1.34 1.34 0 0 0 .982-.534 7.6 7.6 0 0 0 .977-1.71l1.843 2.025a.675.675 0 1 0 .999-.908zm8.605 14.629L5.251 9.644c.863-.696 1.789-1.043 2.756-1.035l7.354 8.09c-.188.833-.64 1.564-1.006 2.051m6.701-8.775-3.767 3.779a.675.675 0 1 1-.956-.953L20.1 9.022 14.98 3.9l-3.478 3.489a.675.675 0 0 1-.956-.953l3.479-3.49a1.35 1.35 0 0 1 1.909 0l5.121 5.12a1.35 1.35 0 0 1 0 1.909z"/></svg>