<svg xmlns="http://www.w3.org/2000/svg" width="24" height="24" fill="currentColor" viewBox="0 0 24 24"><path d="M22.294 8.996l-5.799 5.818c1.16 2.322-0.174 4.643-1.023 5.771a0.81 0.81 0 0 1-1.215 0.084l-10.928-10.923a0.81 0.81 0 0 1 0.067-1.206c3.002-2.422 5.812-1.013 5.812-1.012l5.798-5.818a0.81 0.81 0 0 1 1.145 0l6.144 6.137a0.81 0.81 0 0 1 0 1.148z" opacity=".2"/><path d="M4.5 2.545a0.81 0.81 0 1 0-1.199 1.09l2.561 2.816a7.08 7.08 0 0 0-2.974 1.462 1.62 1.62 0 0 0-0.13 2.407l4.888 4.89-4.318 4.316a0.81 0.81 0 0 0 1.146 1.146l4.316-4.318 4.889 4.888a1.62 1.62 0 0 0 1.146 0.477h0.114a1.608 1.608 0 0 0 1.178-0.641 9.12 9.12 0 0 0 1.173-2.052l2.211 2.43a0.81 0.81 0 1 0 1.199-1.09z m10.326 17.555L3.901 9.173c1.036-0.835 2.147-1.252 3.307-1.242l8.825 9.708c-0.226 1-0.768 1.877-1.207 2.461m8.041-10.53l-4.52 4.535a0.81 0.81 0 1 1-1.147-1.144L21.72 8.426 15.576 2.28l-4.174 4.187a0.81 0.81 0 0 1-1.147-1.144l4.175-4.188a1.62 1.62 0 0 1 2.291 0l6.145 6.144a1.62 1.62 0 0 1 0 2.291z"/></svg>