<svg viewBox="0 0 24 24" fill="none" xmlns="http://www.w3.org/2000/svg" width="24" height="24">
<path d="M12.344 21.72C17.713 21.72 22.064 17.368 22.064 12 22.064 6.632 17.713 2.28 12.344 2.28 6.976 2.28 2.624 6.632 2.624 12 2.624 17.368 6.976 21.72 12.344 21.72Z" fill="black" fill-opacity="0.2"/>
<path d="M11.67 7.448C11.903 7.295 12.22 7.321 12.425 7.526L15.665 10.766C15.899 11 15.899 11.38 15.665 11.614 15.431 11.849 15.051 11.848 14.816 11.614L12 8.798 9.184 11.614C8.95 11.849 8.57 11.849 8.336 11.614 8.102 11.38 8.102 11 8.336 10.766L11.576 7.526 11.67 7.448Z" fill="black"/>
<path d="M11.4 16.05V7.95C11.4 7.619 11.669 7.35 12 7.35 12.331 7.35 12.6 7.619 12.6 7.95V16.05C12.6 16.381 12.331 16.65 12 16.65 11.669 16.65 11.4 16.381 11.4 16.05Z" fill="black"/>
<path d="M20.482 3.945L20.481 5.965C20.481 6.124 20.419 6.277 20.306 6.389 20.194 6.502 20.04 6.565 19.881 6.565L17.933 6.565C17.602 6.565 17.333 6.297 17.333 5.965 17.333 5.634 17.601 5.365 17.933 5.364L18.459 5.364C17.496 4.514 16.362 3.871 15.127 3.482 13.451 2.955 11.66 2.917 9.963 3.374L9.53 3.502C7.381 4.193 5.559 5.659 4.426 7.622 3.216 9.717 2.888 12.207 3.514 14.543 4.14 16.879 5.669 18.871 7.764 20.081 9.858 21.29 12.348 21.618 14.684 20.992L15.001 20.901C16.572 20.421 17.988 19.53 19.102 18.316 20.289 17.022 21.082 15.415 21.387 13.685 21.445 13.359 21.756 13.14 22.082 13.198 22.408 13.255 22.627 13.567 22.569 13.893 22.224 15.848 21.328 17.665 19.986 19.128 18.645 20.59 16.913 21.639 14.995 22.151L14.497 22.272C12 22.809 9.386 22.403 7.164 21.12 4.793 19.751 3.063 17.497 2.355 14.854 1.646 12.21 2.018 9.393 3.386 7.022 4.669 4.801 6.731 3.142 9.162 2.36L9.653 2.215C11.57 1.699 13.594 1.742 15.487 2.338 16.895 2.781 18.187 3.517 19.281 4.49L19.281 3.945C19.281 3.614 19.55 3.345 19.881 3.345 20.212 3.345 20.482 3.613 20.482 3.945Z" fill="black"/>
</svg>