<svg width="24" height="24" viewBox="0 0 24 24" fill="none" xmlns="http://www.w3.org/2000/svg">
<path d="M12.3018 20.9795C17.2723 20.9795 21.3018 16.9501 21.3018 11.9795C21.3018 7.00893 17.2723 2.97949 12.3018 2.97949C7.33119 2.97949 3.30176 7.00893 3.30176 11.9795C3.30176 16.9501 7.33119 20.9795 12.3018 20.9795Z" fill="black" fill-opacity="0.2"/>
<path d="M14.9829 11.2295L11.9829 8.22954L8.98292 11.2295M11.9829 8.22954L11.9829 15.7295M21.2217 13.6359C20.9208 15.342 20.1388 16.9266 18.9677 18.2032C17.7967 19.4799 16.2854 20.3955 14.6116 20.8423C12.306 21.4601 9.84941 21.1367 7.78225 19.9432C5.71509 18.7497 4.2067 16.7839 3.58892 14.4783C2.97113 12.1727 3.29455 9.71611 4.48802 7.64896C5.6815 5.5818 7.64726 4.07341 9.95287 3.45563C11.6258 3.00568 13.3925 3.04296 15.0449 3.56307C16.6974 4.08318 18.1669 5.06447 19.2806 6.39148M17.4763 6.39148L19.2806 6.39148L19.2805 4.5208" stroke="black" stroke-width="1.5" stroke-linecap="round" stroke-linejoin="round"/>
</svg>
