<svg xmlns="http://www.w3.org/2000/svg" fill="currentColor" viewBox="0 0 24 24" width="24" height="24"><path d="M20.91 3.9v16.2H3.09V3.9a1.62 1.62 0 0 1 1.62-1.62h14.58a1.62 1.62 0 0 1 1.62 1.62" opacity=".2"/><path d="M21.72 13.62v6.48a0.81 0.81 0 0 1-0.81 0.81H3.09a0.81 0.81 0 0 1-0.81-0.81v-6.48a0.81 0.81 0 0 1 1.62 0v5.67h16.2V13.62a0.81 0.81 0 0 1 1.62 0M8.524 6.904l2.666-2.668v9.385a0.81 0.81 0 0 0 1.62 0V4.236l2.666 2.668a0.81 0.81 0 0 0 1.146-1.146l-4.05-4.05a0.81 0.81 0 0 0-1.146 0L7.376 5.758a0.81 0.81 0 0 0 1.146 1.146z"/></svg>