<svg width="24" height="24" viewBox="0 0 24 24" fill="none" xmlns="http://www.w3.org/2000/svg">
<path d="M7.875 15C10.5674 15 12.75 12.8174 12.75 10.125C12.75 7.43261 10.5674 5.25 7.875 5.25C5.18261 5.25 3 7.43261 3 10.125C3 12.8174 5.18261 15 7.875 15Z" fill="black" fill-opacity="0.2"/>
<path d="M0.959106 18.7498C1.70825 17.5979 2.73323 16.6514 3.94098 15.9962C5.14873 15.341 6.50101 14.9978 7.87504 14.9978C9.24908 14.9978 10.6014 15.341 11.8091 15.9962C13.0169 16.6514 14.0418 17.5979 14.791 18.7498M23.0409 18.75C22.292 17.5981 21.267 16.6517 20.0592 15.9967C18.8513 15.3418 17.499 14.9992 16.125 15C16.8429 14.9994 17.5518 14.8402 18.2011 14.5338C18.8504 14.2274 19.424 13.7814 19.8809 13.2276C20.3378 12.6738 20.6668 12.026 20.8443 11.3303C21.0218 10.6346 21.0435 9.90837 20.9077 9.20338C20.772 8.49838 20.4822 7.83206 20.0591 7.25204C19.636 6.67202 19.0901 6.19261 18.4602 5.84806C17.8303 5.50352 17.1321 5.30235 16.4155 5.25893C15.6989 5.2155 14.9815 5.3309 14.3146 5.59687M12.75 10.125C12.75 12.8174 10.5674 15 7.875 15C5.18261 15 3 12.8174 3 10.125C3 7.43261 5.18261 5.25 7.875 5.25C10.5674 5.25 12.75 7.43261 12.75 10.125Z" stroke="black" stroke-width="1.5" stroke-linecap="round" stroke-linejoin="round"/>
</svg>
