<svg xmlns="http://www.w3.org/2000/svg" width="24" height="24" fill="currentColor" viewBox="0 0 24 24"><path d="M12.81 9.976a5.266 5.266 0 1 1-5.266-5.266 5.268 5.268 0 0 1 5.266 5.266" opacity=".2"/><path d="M10.912 15.03a6.076 6.076 0 1 0-6.734 0 9.72 9.72 0 0 0-4.78 3.818 0.81 0.81 0 1 0 1.357 0.885 8.1 8.1 0 0 1 13.581 0 0.81 0.81 0 0 0 1.358-0.885 9.72 9.72 0 0 0-4.781-3.818z m-7.822-5.054a4.456 4.456 0 1 1 4.456 4.455 4.46 4.46 0 0 1-4.456-4.455m21.277 9.993a0.81 0.81 0 0 1-1.121-0.236 8.088 8.088 0 0 0-6.79-3.683 0.81 0.81 0 0 1 0-1.62 4.456 4.456 0 1 0-1.655-8.593 0.81 0.81 0 1 1-0.601-1.504 6.076 6.076 0 0 1 5.622 10.696 9.72 9.72 0 0 1 4.78 3.818 0.81 0.81 0 0 1-0.236 1.121z"/></svg>