<svg xmlns="http://www.w3.org/2000/svg" fill="currentColor" viewBox="0 0 24 24" width="24" height="24"><path d="M16.05 13.62A4.05 4.05 0 1 1 12 9.57a4.05 4.05 0 0 1 4.05 4.05M5.52 4.71a3.24 3.24 0 1 0 3.24 3.24 3.24 3.24 0 0 0-3.24-3.24m12.96 0a3.24 3.24 0 1 0 3.24 3.24 3.24 3.24 0 0 0-3.24-3.24" opacity=".2"/><path d="M23.826 14.268a0.81 0.81 0 0 1-1.134-0.162A5.22 5.22 0 0 0 18.48 12a0.81 0.81 0 0 1 0-1.62 2.43 2.43 0 1 0-2.353-3.037 0.81 0.81 0 1 1-1.57-0.406 4.05 4.05 0 1 1 6.657 4.001 6.876 6.876 0 0 1 2.776 2.195 0.81 0.81 0 0 1-0.165 1.135z m-5.455 6.238a0.81 0.81 0 1 1-1.403 0.81 5.772 5.772 0 0 0-9.937 0 0.81 0.81 0 1 1-1.402-0.81 7.296 7.296 0 0 1 3.417-3.029 4.86 4.86 0 1 1 5.908 0 7.296 7.296 0 0 1 3.417 3.029M12 16.86a3.24 3.24 0 1 0-3.24-3.24 3.24 3.24 0 0 0 3.24 3.24m-5.67-5.67a0.81 0.81 0 0 0-0.81-0.81 2.43 2.43 0 1 1 2.353-3.037 0.81 0.81 0 1 0 1.57-0.406 4.05 4.05 0 1 0-6.657 4.001 6.876 6.876 0 0 0-2.774 2.195 0.81 0.81 0 1 0 1.296 0.973A5.22 5.22 0 0 1 5.52 12a0.81 0.81 0 0 0 0.81-0.81"/></svg>