<svg xmlns="http://www.w3.org/2000/svg" fill="currentColor" viewBox="0 0 24 24" width="24" height="24"><path d="M10.38 16.05a3.24 3.24 0 1 1-3.24-3.24 3.24 3.24 0 0 1 3.24 3.24M7.14 2.28a3.24 3.24 0 1 0 3.24 3.24 3.24 3.24 0 0 0-3.24-3.24m9.72 10.53a3.24 3.24 0 1 0 3.24 3.24 3.24 3.24 0 0 0-3.24-3.24m0-4.05a3.24 3.24 0 1 0-3.24-3.24 3.24 3.24 0 0 0 3.24 3.24" opacity=".2"/><path d="M1.794 11.838a0.81 0.81 0 0 0 1.134-0.162 5.266 5.266 0 0 1 8.424 0 0.81 0.81 0 0 0 1.134 0.161 0.84 0.84 0 0 0 0.161-0.161 5.266 5.266 0 0 1 8.424 0 0.81 0.81 0 0 0 1.296-0.973 6.84 6.84 0 0 0-2.773-2.195 4.05 4.05 0 1 0-5.462 0 6.84 6.84 0 0 0-2.126 1.448 6.84 6.84 0 0 0-2.126-1.448 4.05 4.05 0 1 0-5.462 0 6.84 6.84 0 0 0-2.786 2.196 0.81 0.81 0 0 0 0.162 1.134m15.066-8.748A2.43 2.43 0 1 1 14.43 5.52a2.43 2.43 0 0 1 2.43-2.43m-9.72 0A2.43 2.43 0 1 1 4.71 5.52 2.43 2.43 0 0 1 7.14 3.09m12.454 15.948a4.05 4.05 0 1 0-5.462 0 6.84 6.84 0 0 0-2.126 1.448 6.84 6.84 0 0 0-2.126-1.448 4.05 4.05 0 1 0-5.462 0 6.84 6.84 0 0 0-2.786 2.196 0.81 0.81 0 1 0 1.296 0.972 5.266 5.266 0 0 1 8.424 0 0.81 0.81 0 0 0 1.134 0.161 0.84 0.84 0 0 0 0.161-0.161 5.266 5.266 0 0 1 8.424 0 0.81 0.81 0 0 0 1.296-0.973 6.84 6.84 0 0 0-2.773-2.195M7.14 13.62a2.43 2.43 0 1 1-2.43 2.43A2.43 2.43 0 0 1 7.14 13.62m9.72 0a2.43 2.43 0 1 1-2.43 2.43 2.43 2.43 0 0 1 2.43-2.43"/></svg>