<svg width="24" height="24" viewBox="0 0 24 24" fill="none" xmlns="http://www.w3.org/2000/svg">
<path d="M12 17.25C14.0711 17.25 15.75 15.5711 15.75 13.5C15.75 11.4289 14.0711 9.75 12 9.75C9.92893 9.75 8.25 11.4289 8.25 13.5C8.25 15.5711 9.92893 17.25 12 17.25Z" fill="black" fill-opacity="0.2"/>
<path d="M6 11.25C7.65685 11.25 9 9.90685 9 8.25C9 6.59315 7.65685 5.25 6 5.25C4.34315 5.25 3 6.59315 3 8.25C3 9.90685 4.34315 11.25 6 11.25Z" fill="black" fill-opacity="0.2"/>
<path d="M18 11.25C19.6569 11.25 21 9.90685 21 8.25C21 6.59315 19.6569 5.25 18 5.25C16.3431 5.25 15 6.59315 15 8.25C15 9.90685 16.3431 11.25 18 11.25Z" fill="black" fill-opacity="0.2"/>
<path d="M22.5 13.5C21.9765 12.8009 21.2972 12.2335 20.516 11.843C19.7349 11.4524 18.8734 11.2493 18 11.25C18.561 11.2497 19.1108 11.0921 19.5867 10.7951C20.0627 10.4981 20.4458 10.0735 20.6926 9.56971C20.9394 9.06587 21.04 8.50293 20.9829 7.9448C20.9258 7.38668 20.7134 6.85574 20.3697 6.41229C20.0261 5.96883 19.5649 5.63064 19.0387 5.43611C18.5125 5.24158 17.9422 5.19851 17.3927 5.31179C16.8433 5.42508 16.3366 5.69017 15.9302 6.07697C15.5238 6.46377 15.234 6.95678 15.0938 7.5M1.5 13.5C2.0235 12.8009 2.70281 12.2335 3.48398 11.843C4.26514 11.4524 5.12663 11.2493 6 11.25C5.43896 11.2497 4.8892 11.0921 4.41324 10.7951C3.93727 10.4981 3.55413 10.0735 3.30733 9.56971C3.06053 9.06587 2.95996 8.50293 3.01703 7.9448C3.07411 7.38668 3.28655 6.85574 3.63022 6.41229C3.9739 5.96883 4.43504 5.63064 4.96127 5.43611C5.4875 5.24158 6.05774 5.19851 6.60722 5.31179C7.1567 5.42508 7.6634 5.69017 8.06979 6.07697C8.47617 6.46377 8.76594 6.95678 8.9062 7.5M12 17.25C14.0711 17.25 15.75 15.5711 15.75 13.5C15.75 11.4289 14.0711 9.75 12 9.75C9.92893 9.75 8.25 11.4289 8.25 13.5C8.25 15.5711 9.92893 17.25 12 17.25ZM12 17.25C10.9395 17.25 9.8974 17.5267 8.97665 18.0529C8.0559 18.579 7.2884 19.3364 6.75 20.25M12 17.25C13.0605 17.25 14.1026 17.5267 15.0233 18.0529C15.9441 18.579 16.7116 19.3364 17.25 20.25" stroke="black" stroke-width="1.5" stroke-linecap="round" stroke-linejoin="round"/>
</svg>
