<svg xmlns="http://www.w3.org/2000/svg" width="24" height="24" fill="currentColor" viewBox="0 0 24 24"><path d="M24.15 10.38v6.48a0.81 0.81 0 0 1-0.81 0.81h-2.43a2.43 2.43 0 0 0-4.86 0h-6.48a2.43 2.43 0 0 0-4.86 0H2.28a0.81 0.81 0 0 1-0.81-0.81v-6.48z" opacity=".2"/><path d="M24.764 9.852l-4.61-5.372a1.62 1.62 0 0 0-1.242-0.58H2.281a1.62 1.62 0 0 0-1.62 1.62v11.34a1.62 1.62 0 0 0 1.62 1.62h1.721a3.24 3.24 0 0 0 6.277 0h5.063a3.24 3.24 0 0 0 6.277 0h1.721a1.62 1.62 0 0 0 1.62-1.62v-6.48a0.816 0.816 0 0 0-0.196-0.528m-2.377-0.282H16.86V5.52h2.051z m-12.817 0V5.52H15.24v4.05zM7.95 5.52v4.05H2.28V5.52zM7.14 19.29a1.62 1.62 0 1 1 1.62-1.62 1.62 1.62 0 0 1-1.62 1.62m11.34 0a1.62 1.62 0 1 1 1.62-1.62 1.62 1.62 0 0 1-1.62 1.62m3.139-2.43a3.24 3.24 0 0 0-6.277 0h-5.063a3.24 3.24 0 0 0-6.277 0H2.281v-5.67h21.06v5.67z"/></svg>