<svg width="24" height="24" viewBox="0 0 24 24" fill="none" xmlns="http://www.w3.org/2000/svg">
<path d="M2.25 10.5V16.5C2.25 16.6989 2.32902 16.8897 2.46967 17.0303C2.61032 17.171 2.80109 17.25 3 17.25H5.25C5.25 16.6533 5.48705 16.081 5.90901 15.659C6.33097 15.2371 6.90326 15 7.5 15C8.09674 15 8.66903 15.2371 9.09099 15.659C9.51295 16.081 9.75 16.6533 9.75 17.25H15.75C15.75 16.6533 15.9871 16.081 16.409 15.659C16.831 15.2371 17.4033 15 18 15C18.5967 15 19.169 15.2371 19.591 15.659C20.0129 16.081 20.25 16.6533 20.25 17.25H22.5C22.6989 17.25 22.8897 17.171 23.0303 17.0303C23.171 16.8897 23.25 16.6989 23.25 16.5V10.5H2.25Z" fill="black" fill-opacity="0.2"/>
<path d="M20.2495 17.25C20.2495 18.4926 19.2422 19.5 17.9995 19.5C16.7569 19.5 15.7495 18.4926 15.7495 17.25M20.2495 17.25C20.2495 16.0074 19.2422 15 17.9995 15C16.7569 15 15.7495 16.0074 15.7495 17.25M5.24951 17.25H2.99951C2.8006 17.25 2.60983 17.171 2.46918 17.0303C2.32853 16.8897 2.24951 16.6989 2.24951 16.5V6C2.24951 5.80109 2.32853 5.61032 2.46918 5.46967C2.60983 5.32902 2.8006 5.25 2.99951 5.25H18.3989C18.5087 5.24998 18.6171 5.27407 18.7166 5.32056C18.8161 5.36705 18.9041 5.43481 18.9745 5.51906L23.2495 10.5V16.5C23.2495 16.6989 23.1705 16.8897 23.0298 17.0303C22.8892 17.171 22.6984 17.25 22.4995 17.25H20.2495M15.7495 17.25H9.74951M9.74951 17.25C9.74951 18.4926 8.74215 19.5 7.49951 19.5C6.25687 19.5 5.24951 18.4926 5.24951 17.25M9.74951 17.25C9.74951 16.0074 8.74215 15 7.49951 15C6.25687 15 5.24951 16.0074 5.24951 17.25M23.2495 10.5H2.24951M15.7495 5.25V10.5M8.99951 5.25V10.5" stroke="black" stroke-width="1.5" stroke-linecap="round" stroke-linejoin="round"/>
</svg>
