<svg xmlns="http://www.w3.org/2000/svg" fill="currentColor" viewBox="0 0 24 24" width="24" height="24"><path d="M20.91 3.9H3.09a0.81 0.81 0 0 0-0.81 0.81V18.48a0.81 0.81 0 0 0 0.81 0.81h17.82a0.81 0.81 0 0 0 0.81-0.81V4.71a0.81 0.81 0 0 0-0.81-0.81m-6.48 12.15A4.05 4.05 0 1 1 18.48 12a4.05 4.05 0 0 1-4.05 4.05" opacity=".2"/><path d="M20.91 3.09H3.09a1.62 1.62 0 0 0-1.62 1.62V18.48a1.62 1.62 0 0 0 1.62 1.62h1.62v1.62a0.81 0.81 0 0 0 1.62 0v-1.62h11.34v1.62a0.81 0.81 0 0 0 1.62 0v-1.62h1.62a1.62 1.62 0 0 0 1.62-1.62V4.71a1.62 1.62 0 0 0-1.62-1.62m0 15.39H3.09V4.71h17.82v6.48h-1.688a4.86 4.86 0 1 0 0 1.62h1.688z m-5.078-7.29a1.62 1.62 0 1 0 0 1.62h1.737a3.24 3.24 0 1 1 0-1.62z"/></svg>