<svg width="24" height="24" viewBox="0 0 24 24" fill="none" xmlns="http://www.w3.org/2000/svg">
<path d="M4 6.08333C4 5.6231 4.35756 5.25 4.79864 5.25H19.2014C19.6424 5.25 20 5.6231 20 6.08333V17.9166C20 18.3768 19.6424 18.7499 19.2014 18.7499H4.79864C4.35756 18.7499 4 18.3768 4 17.9166V6.08333Z" fill="black" fill-opacity="0.2"/>
<path d="M4.50195 8.125L7.27433 15.875L10.0467 8.125M13.3797 11.7961H16.8469M13.3797 11.7961V15.875H17.4587C17.9996 15.875 18.5183 15.6601 18.9008 15.2777C19.2833 14.8952 19.4982 14.3764 19.4982 13.8355C19.4982 13.2946 19.2833 12.7759 18.9008 12.3934C18.5183 12.0109 17.9996 11.7961 17.4587 11.7961H16.8469M13.3797 11.7961V8.125H16.8469C17.3337 8.125 17.8005 8.31839 18.1448 8.66261C18.489 9.00684 18.6824 9.47371 18.6824 9.96053C18.6824 10.4473 18.489 10.9142 18.1448 11.2584C17.8005 11.6027 17.3337 11.7961 16.8469 11.7961" stroke="black" stroke-width="1.5" stroke-linecap="round" stroke-linejoin="round"/>
</svg>
