<svg viewBox="0 0 24 24" fill="none" xmlns="http://www.w3.org/2000/svg" width="24" height="24">
<path d="M14.414 16.8C14.039 16.8 13.751 16.699 13.55 16.497 13.348 16.296 13.247 16.008 13.247 15.633V7.814C13.247 7.44 13.348 7.152 13.55 6.95 13.751 6.748 14.039 6.648 14.414 6.648H17.898C18.618 6.648 19.233 6.753 19.742 6.964 20.25 7.176 20.634 7.478 20.894 7.872 21.162 8.265 21.297 8.736 21.297 9.283 21.297 9.888 21.124 10.401 20.778 10.824 20.433 11.246 19.958 11.529 19.353 11.673V11.443C20.054 11.568 20.596 11.846 20.98 12.278 21.374 12.7 21.57 13.252 21.57 13.934 21.57 14.836 21.258 15.542 20.634 16.051 20.01 16.55 19.151 16.8 18.057 16.8H14.414ZM15.378 15.144H17.754C18.33 15.144 18.753 15.033 19.022 14.812 19.29 14.582 19.425 14.246 19.425 13.804 19.425 13.363 19.29 13.032 19.022 12.811 18.753 12.59 18.33 12.48 17.754 12.48H15.378V15.144ZM15.378 10.824H17.51C18.066 10.824 18.479 10.718 18.748 10.507 19.017 10.296 19.151 9.979 19.151 9.556 19.151 9.144 19.017 8.832 18.748 8.62 18.479 8.409 18.066 8.304 17.51 8.304H15.378V10.824Z" fill="black"/>
<path d="M7.004 16.929C6.697 16.929 6.442 16.862 6.241 16.728 6.049 16.584 5.89 16.368 5.766 16.08L2.137 8.016C2.002 7.728 1.964 7.473 2.022 7.252 2.079 7.022 2.199 6.844 2.382 6.72 2.564 6.585 2.785 6.518 3.044 6.518 3.37 6.518 3.62 6.595 3.793 6.748 3.966 6.892 4.11 7.108 4.225 7.396L7.407 14.755H6.687L9.87 7.382C9.994 7.094 10.143 6.878 10.316 6.734 10.489 6.59 10.729 6.518 11.036 6.518 11.295 6.518 11.506 6.585 11.67 6.72 11.842 6.844 11.948 7.022 11.986 7.252 12.034 7.473 11.996 7.728 11.871 8.016L8.242 16.08C8.108 16.368 7.945 16.584 7.753 16.728 7.57 16.862 7.321 16.929 7.004 16.929Z" fill="black"/>
<path d="M2.972 5.604C2.972 5.107 3.375 4.704 3.872 4.704H20.103C20.6 4.704 21.003 5.107 21.003 5.604V18.384C21.003 18.881 20.6 19.284 20.103 19.284H3.872C3.375 19.284 2.972 18.881 2.972 18.384V5.604Z" fill="black" fill-opacity="0.2"/>
</svg>