<svg viewBox="0 0 24 24" fill="none" xmlns="http://www.w3.org/2000/svg" width="24" height="24">
<path d="M20.91 3.9H3.09C2.643 3.9 2.28 4.263 2.28 4.71V19.29C2.28 19.737 2.643 20.1 3.09 20.1H20.91C21.357 20.1 21.72 19.737 21.72 19.29V4.71C21.72 4.263 21.357 3.9 20.91 3.9Z" fill="black" fill-opacity="0.2"/>
<path d="M21.12 4.71C21.12 4.594 21.026 4.5 20.91 4.5H3.09C2.974 4.5 2.88 4.594 2.88 4.71V19.29C2.88 19.406 2.974 19.5 3.09 19.5H20.91C21.026 19.5 21.12 19.406 21.12 19.29V4.71ZM22.32 19.29C22.32 20.069 21.689 20.7 20.91 20.7H3.09C2.311 20.7 1.68 20.069 1.68 19.29V4.71C1.68 3.931 2.311 3.3 3.09 3.3H20.91C21.689 3.3 22.32 3.931 22.32 4.71V19.29Z" fill="black"/>
<path d="M5.925 8.558C6.484 8.558 6.938 8.104 6.938 7.545 6.938 6.986 6.484 6.533 5.925 6.533 5.366 6.533 4.913 6.986 4.913 7.545 4.913 8.104 5.366 8.558 5.925 8.558Z" fill="black"/>
<path d="M9.975 8.558C10.534 8.558 10.987 8.104 10.987 7.545 10.987 6.986 10.534 6.533 9.975 6.533 9.416 6.533 8.963 6.986 8.963 7.545 8.963 8.104 9.416 8.558 9.975 8.558Z" fill="black"/>
<path d="M13.689 17.389C13.408 17.389 13.192 17.313 13.041 17.162 12.889 17.011 12.814 16.795 12.814 16.514V10.65C12.814 10.369 12.889 10.153 13.041 10.002 13.192 9.85 13.408 9.775 13.689 9.775H16.302C16.842 9.775 17.303 9.854 17.685 10.012 18.066 10.171 18.354 10.398 18.549 10.693 18.75 10.988 18.851 11.341 18.851 11.751 18.851 12.205 18.721 12.59 18.462 12.907 18.203 13.224 17.847 13.436 17.393 13.544V13.371C17.919 13.465 18.325 13.674 18.613 13.998 18.909 14.314 19.056 14.728 19.056 15.24 19.056 15.916 18.822 16.446 18.354 16.827 17.886 17.202 17.242 17.389 16.421 17.389H13.689ZM14.412 16.147H16.194C16.626 16.147 16.943 16.064 17.145 15.898 17.346 15.726 17.447 15.474 17.447 15.142 17.447 14.811 17.346 14.563 17.145 14.397 16.943 14.232 16.626 14.149 16.194 14.149H14.412V16.147ZM14.412 12.907H16.011C16.428 12.907 16.738 12.828 16.939 12.669 17.141 12.511 17.242 12.273 17.242 11.956 17.242 11.647 17.141 11.413 16.939 11.254 16.738 11.096 16.428 11.017 16.011 11.017H14.412V12.907Z" fill="black"/>
<path d="M8.131 17.486C7.901 17.486 7.71 17.436 7.559 17.335 7.415 17.227 7.296 17.065 7.202 16.849L4.481 10.801C4.38 10.585 4.351 10.394 4.394 10.228 4.438 10.056 4.528 9.922 4.664 9.829 4.801 9.728 4.967 9.678 5.161 9.678 5.406 9.678 5.593 9.735 5.723 9.85 5.852 9.958 5.96 10.12 6.047 10.336L8.434 15.855H7.894L10.28 10.326C10.374 10.11 10.486 9.948 10.615 9.84 10.745 9.732 10.925 9.678 11.155 9.678 11.35 9.678 11.508 9.728 11.63 9.829 11.76 9.922 11.839 10.056 11.868 10.228 11.904 10.394 11.875 10.585 11.782 10.801L9.06 16.849C8.959 17.065 8.837 17.227 8.693 17.335 8.556 17.436 8.369 17.486 8.131 17.486Z" fill="black"/>
</svg>