<svg xmlns="http://www.w3.org/2000/svg" width="24" height="24" fill="currentColor" viewBox="0 0 24 24"><path d="M19.29 6.33v11.34a0.81 0.81 0 0 1-0.81 0.81H2.28a0.81 0.81 0 0 1-0.81-0.81v-11.34A0.81 0.81 0 0 1 2.28 5.52h16.2a0.81 0.81 0 0 1 0.81 0.81" opacity=".2"/><path d="M24.532 6.431a0.816 0.816 0 0 0-0.832 0.039l-3.6 2.396V6.329a1.62 1.62 0 0 0-1.62-1.62H2.28a1.62 1.62 0 0 0-1.62 1.62v11.34a1.62 1.62 0 0 0 1.62 1.62h16.2a1.62 1.62 0 0 0 1.62-1.62v-2.531l3.6 2.401a0.84 0.84 0 0 0 0.45 0.131 0.81 0.81 0 0 0 0.81-0.81v-9.72a0.816 0.816 0 0 0-0.428-0.709M18.48 17.67H2.28v-11.34h16.2z m4.86-2.323l-3.24-2.16v-2.374l3.24-2.155z"/></svg>