<svg width="24" height="24" viewBox="0 0 24 24" fill="none" xmlns="http://www.w3.org/2000/svg">
<path d="M21.9903 7.41652C21.901 9.34865 20.5408 11.992 17.9124 15.3432C15.1933 18.8497 12.8914 20.6009 11.0081 20.6009C9.84316 20.6009 8.85682 19.5346 8.05048 17.3967C7.51195 15.4361 6.97485 13.4728 6.43633 11.5164C5.8378 9.37701 5.19606 8.30804 4.50829 8.30804C4.39841 8.30804 4.08674 8.47705 3.57219 8.81506C3.21425 9.05018 2.73399 8.97971 2.47052 8.64209C2.20669 8.30401 2.25365 7.8187 2.57614 7.53602C3.36504 6.84448 4.14419 6.15049 4.91432 5.45875C6.22713 4.32806 7.21342 3.73672 7.87191 3.67499C9.42468 3.52524 10.3817 4.58108 10.7416 6.83626C11.1267 9.27304 11.3987 10.7878 11.5466 11.3819C11.9945 13.4007 12.4883 14.4087 13.0268 14.4087C13.444 14.4087 14.0703 13.757 14.9088 12.4517C15.7459 11.1435 16.1937 10.1494 16.2537 9.46513C16.3723 8.33649 15.9245 7.77566 14.9088 7.77566C14.4303 7.77566 13.9364 7.87619 13.4286 8.08692C14.4163 4.90832 16.2983 3.36445 19.0773 3.45387C21.1379 3.51144 22.1088 4.83552 21.9903 7.41652Z" fill="black" fill-opacity="0.2"/>
<path d="M21.9903 7.41652C21.901 9.34865 20.5408 11.992 17.9124 15.3432C15.1933 18.8497 12.8914 20.6009 11.0081 20.6009C9.84316 20.6009 8.85682 19.5346 8.05048 17.3967C7.51195 15.4361 6.97485 13.4728 6.43633 11.5164C5.8378 9.37701 5.19606 8.30804 4.50829 8.30804C4.39841 8.30804 4.08674 8.47705 3.57219 8.81506C3.21425 9.05018 2.73399 8.97971 2.47052 8.64209C2.20669 8.30401 2.25365 7.8187 2.57614 7.53602C3.36504 6.84448 4.14419 6.15049 4.91432 5.45875C6.22713 4.32806 7.21342 3.73672 7.87191 3.67499C9.42468 3.52524 10.3817 4.58108 10.7416 6.83626C11.1267 9.27304 11.3987 10.7878 11.5466 11.3819C11.9945 13.4007 12.4883 14.4087 13.0268 14.4087C13.444 14.4087 14.0703 13.757 14.9088 12.4517C15.7459 11.1435 16.1937 10.1494 16.2537 9.46513C16.3723 8.33649 15.9245 7.77566 14.9088 7.77566C14.4303 7.77566 13.9364 7.87619 13.4286 8.08692C14.4163 4.90832 16.2983 3.36445 19.0773 3.45387C21.1379 3.51144 22.1088 4.83552 21.9903 7.41652Z" stroke="black" stroke-width="1.5" stroke-linejoin="round"/>
</svg>
