<svg xmlns="http://www.w3.org/2000/svg" width="24" height="24" fill="currentColor" viewBox="0 0 24 24"><path d="M7.14 7.95v8.1H2.28a0.81 0.81 0 0 1-0.81-0.81V8.76a0.81 0.81 0 0 1 0.81-0.81z" opacity=".2"/><path d="M14.785 1.552a0.816 0.816 0 0 0-0.852 0.088L6.862 7.139H2.28a1.62 1.62 0 0 0-1.62 1.62v6.48a1.62 1.62 0 0 0 1.62 1.62h4.582l7.071 5.498a0.81 0.81 0 0 0 1.307-0.638v-19.44a0.816 0.816 0 0 0-0.455-0.729zM2.28 8.76h4.05v6.48H2.28z m11.34 11.304l-5.67-4.411V8.35l5.67-4.413z m10.294-6.206a0.81 0.81 0 0 1-1.146 1.146l-1.857-1.858-1.856 1.858a0.81 0.81 0 0 1-1.146-1.146l1.857-1.857-1.857-1.856a0.81 0.81 0 0 1 1.146-1.146l1.856 1.857 1.857-1.857a0.81 0.81 0 0 1 1.146 1.146l-1.858 1.856z"/></svg>