<svg xmlns="http://www.w3.org/2000/svg" width="24" height="24" fill="currentColor" viewBox="0 0 24 24"><path d="M21.72 7.14v11.34a0.81 0.81 0 0 1-0.81 0.81h-16.2a1.62 1.62 0 0 1-1.62-1.62v-12.96a1.62 1.62 0 0 0 1.62 1.62h16.2a0.81 0.81 0 0 1 0.81 0.81" opacity=".2"/><path d="M20.91 5.52h-16.2a0.81 0.81 0 0 1 0-1.62H18.48a0.81 0.81 0 0 0 0-1.62H4.71A2.43 2.43 0 0 0 2.28 4.71v12.96a2.43 2.43 0 0 0 2.43 2.43h16.2a1.62 1.62 0 0 0 1.62-1.62V7.14a1.62 1.62 0 0 0-1.62-1.62m0 12.96h-16.2a0.81 0.81 0 0 1-0.81-0.81V7.001a2.4 2.4 0 0 0 0.81 0.139h16.2z m-4.86-6.076a1.216 1.216 0 1 1 1.214 1.215 1.216 1.216 0 0 1-1.214-1.216z"/></svg>