<svg width="24" height="24" viewBox="0 0 24 24" fill="none" xmlns="http://www.w3.org/2000/svg">
<path d="M3.75 17.25C3.75 17.6478 3.90804 18.0294 4.18934 18.3107C4.47064 18.592 4.85218 18.75 5.25 18.75H20.25C20.4489 18.75 20.6397 18.671 20.7803 18.5303C20.921 18.3897 21 18.1989 21 18V7.5C21 7.30109 20.921 7.11032 20.7803 6.96967C20.6397 6.82902 20.4489 6.75 20.25 6.75H5.25C4.85218 6.75 4.47064 6.59196 4.18934 6.31066C3.90804 6.02936 3.75 5.64782 3.75 5.25V17.25Z" fill="black" fill-opacity="0.2"/>
<path d="M16.875 12.75C17.0821 12.75 17.25 12.5821 17.25 12.375C17.25 12.1679 17.0821 12 16.875 12C16.6679 12 16.5 12.1679 16.5 12.375C16.5 12.5821 16.6679 12.75 16.875 12.75Z" fill="black"/>
<path d="M3.75 5.25H3H3.75ZM3.75 17.25H3H3.75ZM5.25 3.75V3V3.75ZM18 4.5C18.4142 4.5 18.75 4.16421 18.75 3.75C18.75 3.33579 18.4142 3 18 3V3.75V4.5ZM3.75 5.25H3V17.25H3.75H4.5V5.25H3.75ZM3.75 17.25H3C3 17.8467 3.23705 18.419 3.65901 18.841L4.18934 18.3107L4.71967 17.7803C4.57902 17.6397 4.5 17.4489 4.5 17.25H3.75ZM4.18934 18.3107L3.65901 18.841C4.08097 19.2629 4.65326 19.5 5.25 19.5V18.75V18C5.05109 18 4.86032 17.921 4.71967 17.7803L4.18934 18.3107ZM5.25 18.75V19.5H20.25V18.75V18H5.25V18.75ZM20.25 18.75V19.5C20.6478 19.5 21.0294 19.342 21.3107 19.0607L20.7803 18.5303L20.25 18V18V18.75ZM20.7803 18.5303L21.3107 19.0607C21.592 18.7794 21.75 18.3978 21.75 18H21H20.25V18L20.7803 18.5303ZM21 18H21.75V7.5H21H20.25V18H21ZM21 7.5H21.75C21.75 7.10218 21.592 6.72065 21.3107 6.43934L20.7803 6.96967L20.25 7.5V7.5H21ZM20.7803 6.96967L21.3107 6.43934C21.0294 6.15804 20.6478 6 20.25 6V6.75V7.5V7.5L20.7803 6.96967ZM20.25 6.75V6H5.25V6.75V7.5H20.25V6.75ZM5.25 6.75V6C5.05109 6 4.86032 5.92098 4.71967 5.78033L4.18934 6.31066L3.65901 6.84099C4.08097 7.26295 4.65326 7.5 5.25 7.5V6.75ZM4.18934 6.31066L4.71967 5.78033C4.57902 5.63968 4.5 5.44891 4.5 5.25H3.75H3C3 5.84674 3.23705 6.41903 3.65901 6.84099L4.18934 6.31066ZM3.75 5.25H4.5C4.5 5.05109 4.57902 4.86032 4.71967 4.71967L4.18934 4.18934L3.65901 3.65901C3.23705 4.08097 3 4.65326 3 5.25H3.75ZM4.18934 4.18934L4.71967 4.71967C4.86032 4.57902 5.05109 4.5 5.25 4.5V3.75V3C4.65326 3 4.08097 3.23705 3.65901 3.65901L4.18934 4.18934ZM5.25 3.75V4.5H18V3.75V3H5.25V3.75ZM17.25 12.375H16.5C16.5 12.1679 16.6679 12 16.875 12V12.75V13.5C17.4963 13.5 18 12.9963 18 12.375H17.25ZM16.875 12.75V12C17.0821 12 17.25 12.1679 17.25 12.375H16.5H15.75C15.75 12.9963 16.2537 13.5 16.875 13.5V12.75ZM16.5 12.375H17.25C17.25 12.5821 17.0821 12.75 16.875 12.75V12V11.25C16.2537 11.25 15.75 11.7537 15.75 12.375H16.5ZM16.875 12V12.75C16.6679 12.75 16.5 12.5821 16.5 12.375H17.25H18C18 11.7537 17.4963 11.25 16.875 11.25V12Z" fill="black"/>
</svg>
