<svg width="24" height="24" viewBox="0 0 24 24" fill="none" xmlns="http://www.w3.org/2000/svg">
<path d="M12 21C16.9706 21 21 16.9706 21 12C21 7.02944 16.9706 3 12 3C7.02944 3 3 7.02944 3 12C3 16.9706 7.02944 21 12 21Z" fill="black" fill-opacity="0.2"/>
<path d="M12 16.5C12.2071 16.5 12.375 16.3321 12.375 16.125C12.375 15.9179 12.2071 15.75 12 15.75C11.7929 15.75 11.625 15.9179 11.625 16.125C11.625 16.3321 11.7929 16.5 12 16.5Z" fill="black"/>
<path d="M11.25 12.75C11.25 13.1642 11.5858 13.5 12 13.5C12.4142 13.5 12.75 13.1642 12.75 12.75H12H11.25ZM12.75 7.5C12.75 7.08579 12.4142 6.75 12 6.75C11.5858 6.75 11.25 7.08579 11.25 7.5H12H12.75ZM21 12H20.25C20.25 16.5563 16.5563 20.25 12 20.25V21V21.75C17.3848 21.75 21.75 17.3848 21.75 12H21ZM12 21V20.25C7.44365 20.25 3.75 16.5563 3.75 12H3H2.25C2.25 17.3848 6.61522 21.75 12 21.75V21ZM3 12H3.75C3.75 7.44365 7.44365 3.75 12 3.75V3V2.25C6.61522 2.25 2.25 6.61522 2.25 12H3ZM12 3V3.75C16.5563 3.75 20.25 7.44365 20.25 12H21H21.75C21.75 6.61522 17.3848 2.25 12 2.25V3ZM12 12.75H12.75V7.5H12H11.25V12.75H12ZM12 16.5V17.25C12.6213 17.25 13.125 16.7463 13.125 16.125H12.375H11.625C11.625 15.9179 11.7929 15.75 12 15.75V16.5ZM12.375 16.125H13.125C13.125 15.5037 12.6213 15 12 15V15.75V16.5C11.7929 16.5 11.625 16.3321 11.625 16.125H12.375ZM12 15.75V15C11.3787 15 10.875 15.5037 10.875 16.125H11.625H12.375C12.375 16.3321 12.2071 16.5 12 16.5V15.75ZM11.625 16.125H10.875C10.875 16.7463 11.3787 17.25 12 17.25V16.5V15.75C12.2071 15.75 12.375 15.9179 12.375 16.125H11.625Z" fill="black"/>
</svg>
