<svg width="24" height="24" viewBox="0 0 24 24" fill="none" xmlns="http://www.w3.org/2000/svg">
<path d="M13.3508 3.77062L21.5502 18.0084C22.1248 19.0116 21.3824 20.25 20.1992 20.25H3.80047C2.61735 20.25 1.87485 19.0116 2.44954 18.0084L10.6489 3.77062C11.2395 2.74313 12.7602 2.74313 13.3508 3.77062Z" fill="black" fill-opacity="0.2"/>
<path d="M11.9999 17.25C12.207 17.25 12.3749 17.0821 12.3749 16.875C12.3749 16.6679 12.207 16.5 11.9999 16.5C11.7928 16.5 11.6249 16.6679 11.6249 16.875C11.6249 17.0821 11.7928 17.25 11.9999 17.25Z" fill="black"/>
<path d="M11.9999 13.5V9.75M13.3508 3.77062L21.5502 18.0084C22.1248 19.0116 21.3824 20.25 20.1992 20.25H3.80047C2.61735 20.25 1.87485 19.0116 2.44954 18.0084L10.6489 3.77062C11.2395 2.74312 12.7602 2.74312 13.3508 3.77062ZM12.3749 16.875C12.3749 17.0821 12.207 17.25 11.9999 17.25C11.7928 17.25 11.6249 17.0821 11.6249 16.875C11.6249 16.6679 11.7928 16.5 11.9999 16.5C12.207 16.5 12.3749 16.6679 12.3749 16.875Z" stroke="black" stroke-width="1.5" stroke-linecap="round" stroke-linejoin="round"/>
</svg>
