<svg width="24" height="24" viewBox="0 0 24 24" fill="none" xmlns="http://www.w3.org/2000/svg">
<path d="M13.351 3.77063L21.5504 18.0084C22.1251 19.0116 21.3826 20.25 20.1995 20.25H3.80072C2.61759 20.25 1.87509 19.0116 2.44978 18.0084L10.6492 3.77063C11.2398 2.74313 12.7604 2.74313 13.351 3.77063Z" fill="black" fill-opacity="0.2"/>
<path d="M12.0005 13.5V9.75M12.0006 16.5008C12.2077 16.5008 12.3756 16.6687 12.3756 16.8758C12.3756 17.0829 12.2077 17.2508 12.0006 17.2508C11.7935 17.2508 11.6256 17.0829 11.6256 16.8758C11.6256 16.6687 11.7935 16.5008 12.0006 16.5008ZM13.3515 3.77062L21.5509 18.0084C22.1256 19.0116 21.3831 20.25 20.2 20.25H3.80121C2.61808 20.25 1.87558 19.0116 2.45027 18.0084L10.6496 3.77062C11.2403 2.74312 12.7609 2.74312 13.3515 3.77062Z" stroke="black" stroke-width="1.5" stroke-linecap="round" stroke-linejoin="round"/>
</svg>
