<svg width="24" height="24" viewBox="0 0 24 24" fill="none" xmlns="http://www.w3.org/2000/svg">
<path d="M8.25 15.75C8.25 17.4066 6.375 18 5.25 18C4.125 18 2.25 17.4066 2.25 15.75L5.25 8.25L8.25 15.75Z" fill="black" fill-opacity="0.2"/>
<path d="M21.75 12.75C21.75 14.4066 19.875 15 18.75 15C17.625 15 15.75 14.4066 15.75 12.75L18.75 5.25L21.75 12.75Z" fill="black" fill-opacity="0.2"/>
<path d="M11.9995 3.75V20.25M9.74951 20.25H14.2495M5.24951 8.25L18.7495 5.25M5.24951 8.25L8.24951 15.75C8.24951 17.4066 6.37451 18 5.24951 18C4.12451 18 2.24951 17.4066 2.24951 15.75L5.24951 8.25ZM18.7495 5.25L21.7495 12.75C21.7495 14.4066 19.8745 15 18.7495 15C17.6245 15 15.7495 14.4066 15.7495 12.75L18.7495 5.25Z" stroke="black" stroke-width="1.5" stroke-linecap="round" stroke-linejoin="round"/>
</svg>
