<svg xmlns="http://www.w3.org/2000/svg" width="24" height="24" fill="currentColor" viewBox="0 0 24 24"><path d="M4.71 7.95l3.24 8.1c0 1.789-2.026 2.43-3.24 2.43s-3.24-0.641-3.24-2.43z m14.58-3.24l-3.24 8.1c0 1.789 2.026 2.43 3.24 2.43s3.24-0.641 3.24-2.43z" opacity=".2"/><path d="M23.282 12.506l-3.24-8.1a0.81 0.81 0 0 0-0.927-0.489l-6.305 1.401V3.091a0.81 0.81 0 0 0-1.62 0v2.59L4.534 7.16a0.816 0.816 0 0 0-0.576 0.488v0.006l-3.24 8.094a0.84 0.84 0 0 0-0.058 0.303c0 2.36 2.485 3.24 4.05 3.24s4.05-0.88 4.05-3.24a0.84 0.84 0 0 0-0.058-0.303l-2.887-7.212 5.375-1.192v12.757h-1.62a0.81 0.81 0 0 0 0 1.62h4.86a0.81 0.81 0 0 0 0-1.62h-1.62V6.982l5.164-1.146-2.676 6.672a0.84 0.84 0 0 0-0.058 0.303c0 2.36 2.485 3.24 4.05 3.24s4.05-0.88 4.05-3.24a0.84 0.84 0 0 0-0.058-0.303zM4.71 17.67c-0.762 0-2.304-0.366-2.423-1.482l2.423-6.056 2.423 6.056c-0.119 1.117-1.661 1.482-2.423 1.482m14.58-3.24c-0.762 0-2.304-0.366-2.423-1.482l2.423-6.056 2.423 6.056c-0.119 1.117-1.661 1.482-2.423 1.482"/></svg>