<svg width="24" height="24" viewBox="0 0 24 24" fill="none" xmlns="http://www.w3.org/2000/svg">
<path d="M12 3C10.4195 2.9998 8.86671 3.41585 7.49799 4.2063C6.12927 4.99674 4.99285 6.1337 4.20306 7.50279C3.41327 8.87189 2.99795 10.4248 2.9989 12.0054C2.99985 13.586 3.41703 15.1384 4.20847 16.5066L3.0394 20.0119C2.99533 20.144 2.98894 20.2858 3.02093 20.4214C3.05293 20.557 3.12205 20.681 3.22055 20.7795C3.31905 20.878 3.44304 20.9471 3.57862 20.9791C3.7142 21.0111 3.85601 21.0047 3.98815 20.9606L7.49347 19.7916C8.68872 20.4826 10.0269 20.8894 11.4046 20.9804C12.7822 21.0715 14.1623 20.8443 15.4381 20.3166C16.7139 19.7889 17.8512 18.9748 18.762 17.9372C19.6727 16.8996 20.3326 15.6663 20.6905 14.3329C21.0483 12.9994 21.0946 11.6015 20.8258 10.2473C20.5569 8.89314 19.9801 7.61895 19.14 6.52336C18.2998 5.42777 17.2189 4.54016 15.9808 3.92919C14.7427 3.31823 13.3807 3.0003 12 3ZM14.25 17.25C12.2609 17.25 10.3533 16.4598 8.94673 15.0533C7.5402 13.6468 6.75003 11.7391 6.75003 9.75C6.75003 8.95435 7.0661 8.19129 7.62871 7.62868C8.19132 7.06607 8.95438 6.75 9.75003 6.75L11.25 9.75L10.095 11.4816C10.5532 12.5763 11.4237 13.4468 12.5185 13.905L14.25 12.75L17.25 14.25C17.25 15.0456 16.934 15.8087 16.3713 16.3713C15.8087 16.9339 15.0457 17.25 14.25 17.25Z" fill="black" fill-opacity="0.2"/>
<path d="M6.75 9.74976C6.75 8.95411 7.06607 8.19104 7.62868 7.62844C8.19129 7.06583 8.95435 6.74976 9.75 6.74976L11.25 9.74976L10.095 11.4813C10.5532 12.5761 11.4237 13.4466 12.5184 13.9048L14.25 12.7498L17.25 14.2498C17.25 15.0454 16.9339 15.8085 16.3713 16.3711C15.8087 16.9337 15.0456 17.2498 14.25 17.2498C12.2609 17.2498 10.3532 16.4596 8.9467 15.0531C7.54018 13.6465 6.75 11.7389 6.75 9.74976Z" stroke="black" stroke-width="1.5" stroke-linecap="round" stroke-linejoin="round"/>
<path d="M7.4935 19.7914C9.384 20.8856 11.6079 21.2549 13.7505 20.8304C15.8932 20.406 17.8084 19.2168 19.139 17.4846C20.4696 15.7524 21.1249 13.5954 20.9826 11.4157C20.8403 9.23605 19.9102 7.18253 18.3657 5.638C16.8212 4.09348 14.7676 3.16336 12.588 3.02108C10.4083 2.87879 8.25132 3.53405 6.5191 4.86468C4.78689 6.1953 3.59771 8.11048 3.17327 10.2531C2.74883 12.3958 3.11811 14.6197 4.21225 16.5102L3.03944 20.0118C2.99537 20.1439 2.98897 20.2857 3.02097 20.4213C3.05296 20.5569 3.12208 20.6809 3.22059 20.7794C3.31909 20.8779 3.44307 20.947 3.57865 20.979C3.71423 21.011 3.85604 21.0046 3.98819 20.9605L7.4935 19.7914Z" stroke="black" stroke-width="1.5" stroke-linecap="round" stroke-linejoin="round"/>
</svg>
