<svg xmlns="http://www.w3.org/2000/svg" width="24" height="24" fill="currentColor" viewBox="0 0 24 24"><path d="M12 2.28a9.72 9.72 0 0 0-8.414 14.587l-1.263 3.786a0.81 0.81 0 0 0 1.025 1.025l3.786-1.262a9.72 9.72 0 1 0 4.867-18.135z m2.43 15.39a8.1 8.1 0 0 1-8.1-8.1 3.24 3.24 0 0 1 3.24-3.24l1.62 3.24-1.248 1.87a4.884 4.884 0 0 0 2.617 2.617l1.87-1.248 3.24 1.62a3.24 3.24 0 0 1-3.24 3.24z" opacity=".2"/><path d="M18.032 13.705l-3.24-1.62a0.816 0.816 0 0 0-0.81 0.051l-1.486 0.992a4.08 4.08 0 0 1-1.62-1.62l0.992-1.487a0.816 0.816 0 0 0 0.05-0.81l-1.62-3.24a0.816 0.816 0 0 0-0.728-0.45A4.05 4.05 0 0 0 5.52 9.571a8.92 8.92 0 0 0 8.91 8.91 4.05 4.05 0 0 0 4.05-4.05 0.816 0.816 0 0 0-0.448-0.725z m-3.602 3.155A7.296 7.296 0 0 1 7.14 9.57a2.43 2.43 0 0 1 1.954-2.383l1.162 2.329-0.988 1.472a0.816 0.816 0 0 0-0.075 0.761 5.712 5.712 0 0 0 3.053 3.053 0.816 0.816 0 0 0 0.768-0.067l1.481-0.987 2.329 1.163a2.43 2.43 0 0 1-2.392 1.95zM12 1.47a10.53 10.53 0 0 0-9.296 15.479l-1.15 3.447a1.62 1.62 0 0 0 2.05 2.05l3.447-1.15A10.53 10.53 0 1 0 12 1.47m0 19.44a8.88 8.88 0 0 1-4.462-1.195 0.816 0.816 0 0 0-0.662-0.069l-3.787 1.264 1.262-3.787a0.816 0.816 0 0 0-0.067-0.663 8.91 8.91 0 1 1 7.715 4.449z"/></svg>