<svg width="24" height="24" viewBox="0 0 24 24" fill="none" xmlns="http://www.w3.org/2000/svg">
<rect x="4" y="8.23047" width="16" height="7.53906" rx="0.75" fill="black" fill-opacity="0.2"/>
<path d="M4.67739 16.3499C4.24539 16.3499 3.85739 16.2659 3.51339 16.0979C3.16939 15.9299 2.90139 15.7019 2.70939 15.4139C2.51739 15.1259 2.42139 14.8019 2.42139 14.4419C2.42139 14.0099 2.53339 13.6699 2.75739 13.4219C2.98139 13.1659 3.34539 12.9859 3.84939 12.8819C4.35339 12.7699 5.02139 12.7139 5.85339 12.7139H6.48939V13.6499H5.86539C5.45739 13.6499 5.12539 13.6739 4.86939 13.7219C4.62139 13.7619 4.44139 13.8339 4.32939 13.9379C4.22539 14.0419 4.17339 14.1859 4.17339 14.3699C4.17339 14.5939 4.24939 14.7779 4.40139 14.9219C4.56139 15.0659 4.78939 15.1379 5.08539 15.1379C5.31739 15.1379 5.52139 15.0859 5.69739 14.9819C5.88139 14.8699 6.02539 14.7219 6.12939 14.5379C6.23339 14.3459 6.28539 14.1299 6.28539 13.8899V12.5099C6.28539 12.1579 6.20539 11.9099 6.04539 11.7659C5.88539 11.6139 5.61339 11.5379 5.22939 11.5379C5.01339 11.5379 4.77739 11.5659 4.52139 11.6219C4.27339 11.6699 3.99739 11.7539 3.69339 11.8739C3.51739 11.9539 3.36139 11.9739 3.22539 11.9339C3.08939 11.8859 2.98539 11.8059 2.91339 11.6939C2.84139 11.5739 2.80539 11.4459 2.80539 11.3099C2.80539 11.1659 2.84539 11.0299 2.92539 10.9019C3.00539 10.7659 3.13739 10.6659 3.32139 10.6019C3.69739 10.4499 4.04939 10.3459 4.37739 10.2899C4.71339 10.2339 5.02139 10.2059 5.30139 10.2059C5.91739 10.2059 6.42139 10.2979 6.81339 10.4819C7.21339 10.6579 7.51339 10.9339 7.71339 11.3099C7.91339 11.6779 8.01339 12.1539 8.01339 12.7379V15.4019C8.01339 15.6979 7.94139 15.9259 7.79739 16.0859C7.65339 16.2459 7.44539 16.3259 7.17339 16.3259C6.90139 16.3259 6.68939 16.2459 6.53739 16.0859C6.39339 15.9259 6.32139 15.6979 6.32139 15.4019V14.9579L6.40539 15.0299C6.35739 15.3019 6.25339 15.5379 6.09339 15.7379C5.94139 15.9299 5.74539 16.0819 5.50539 16.1939C5.26539 16.2979 4.98939 16.3499 4.67739 16.3499Z" fill="black"/>
<path d="M13.0011 16.3499C12.5291 16.3499 12.1091 16.2339 11.7411 16.0019C11.3811 15.7619 11.1411 15.4459 11.0211 15.0539L11.1531 14.6579V15.4019C11.1531 15.6979 11.0771 15.9259 10.9251 16.0859C10.7731 16.2459 10.5531 16.3259 10.2651 16.3259C9.97707 16.3259 9.75307 16.2459 9.59307 16.0859C9.44107 15.9259 9.36507 15.6979 9.36507 15.4019V8.5739C9.36507 8.2699 9.44107 8.0419 9.59307 7.8899C9.75307 7.7299 9.98107 7.6499 10.2771 7.6499C10.5651 7.6499 10.7851 7.7299 10.9371 7.8899C11.0971 8.0419 11.1771 8.2699 11.1771 8.5739V11.4179H11.0331C11.1611 11.0579 11.4051 10.7659 11.7651 10.5419C12.1251 10.3179 12.5371 10.2059 13.0011 10.2059C13.5211 10.2059 13.9731 10.3299 14.3571 10.5779C14.7411 10.8259 15.0411 11.1779 15.2571 11.6339C15.4731 12.0899 15.5811 12.6339 15.5811 13.2659C15.5811 13.8979 15.4731 14.4459 15.2571 14.9099C15.0411 15.3739 14.7371 15.7299 14.3451 15.9779C13.9611 16.2259 13.5131 16.3499 13.0011 16.3499ZM12.4611 14.9939C12.7171 14.9939 12.9411 14.9299 13.1331 14.8019C13.3331 14.6739 13.4851 14.4859 13.5891 14.2379C13.7011 13.9819 13.7571 13.6579 13.7571 13.2659C13.7571 12.6819 13.6371 12.2539 13.3971 11.9819C13.1571 11.7019 12.8451 11.5619 12.4611 11.5619C12.2051 11.5619 11.9771 11.6219 11.7771 11.7419C11.5851 11.8619 11.4331 12.0499 11.3211 12.3059C11.2091 12.5539 11.1531 12.8739 11.1531 13.2659C11.1531 13.8499 11.2731 14.2859 11.5131 14.5739C11.7531 14.8539 12.0691 14.9939 12.4611 14.9939Z" fill="black"/>
<path d="M19.5573 16.3499C18.9173 16.3499 18.3573 16.2259 17.8773 15.9779C17.4053 15.7219 17.0413 15.3619 16.7853 14.8979C16.5293 14.4339 16.4013 13.8859 16.4013 13.2539C16.4013 12.7819 16.4733 12.3579 16.6173 11.9819C16.7613 11.6059 16.9693 11.2859 17.2413 11.0219C17.5213 10.7579 17.8573 10.5579 18.2493 10.4219C18.6413 10.2779 19.0773 10.2059 19.5573 10.2059C19.8053 10.2059 20.0693 10.2379 20.3493 10.3019C20.6293 10.3579 20.9053 10.4579 21.1773 10.6019C21.3373 10.6739 21.4453 10.7779 21.5013 10.9139C21.5653 11.0419 21.5893 11.1779 21.5733 11.3219C21.5573 11.4579 21.5053 11.5819 21.4173 11.6939C21.3373 11.7979 21.2333 11.8699 21.1053 11.9099C20.9773 11.9419 20.8333 11.9179 20.6733 11.8379C20.5213 11.7499 20.3613 11.6859 20.1933 11.6459C20.0333 11.6059 19.8813 11.5859 19.7373 11.5859C19.4973 11.5859 19.2853 11.6259 19.1013 11.7059C18.9173 11.7779 18.7613 11.8859 18.6333 12.0299C18.5133 12.1659 18.4173 12.3379 18.3453 12.5459C18.2813 12.7539 18.2493 12.9939 18.2493 13.2659C18.2493 13.7939 18.3773 14.2099 18.6333 14.5139C18.8973 14.8099 19.2653 14.9579 19.7373 14.9579C19.8813 14.9579 20.0333 14.9419 20.1933 14.9099C20.3533 14.8699 20.5133 14.8059 20.6733 14.7179C20.8333 14.6379 20.9773 14.6179 21.1053 14.6579C21.2333 14.6979 21.3333 14.7739 21.4053 14.8859C21.4853 14.9899 21.5293 15.1139 21.5373 15.2579C21.5533 15.3939 21.5293 15.5299 21.4653 15.6659C21.4093 15.7939 21.3053 15.8939 21.1533 15.9659C20.8813 16.1019 20.6093 16.1979 20.3373 16.2539C20.0653 16.3179 19.8053 16.3499 19.5573 16.3499Z" fill="black"/>
</svg>
