<svg width="24" height="24" viewBox="0 0 24 24" fill="none" xmlns="http://www.w3.org/2000/svg">
<path d="M20.25 4.5H3.75C3.33579 4.5 3 4.83579 3 5.25V18.75C3 19.1642 3.33579 19.5 3.75 19.5H20.25C20.6642 19.5 21 19.1642 21 18.75V5.25C21 4.83579 20.6642 4.5 20.25 4.5Z" fill="black" fill-opacity="0.2"/>
<path d="M6.37598 7.50018V8.25018C6.16888 8.25018 6.00098 8.0823 6.00098 7.87518H6.75098H7.50098C7.50098 7.25385 6.99728 6.75018 6.37598 6.75018V7.50018ZM6.75098 7.87518H6.00098C6.00098 7.66807 6.16886 7.50018 6.37598 7.50018V8.25018V9.00018C6.99729 9.00018 7.50098 8.4965 7.50098 7.87518H6.75098ZM6.37598 8.25018V7.50018C6.58309 7.50018 6.75098 7.66808 6.75098 7.87518H6.00098H5.25098C5.25098 8.49648 5.75464 9.00018 6.37598 9.00018V8.25018ZM6.00098 7.87518H6.75098C6.75098 8.08229 6.58308 8.25018 6.37598 8.25018V7.50018V6.75018C5.75465 6.75018 5.25098 7.25386 5.25098 7.87518H6.00098ZM10.1264 7.5002V8.2502C9.91934 8.2502 9.75144 8.08232 9.75144 7.8752H10.5014H11.2514C11.2514 7.25387 10.7477 6.7502 10.1264 6.7502V7.5002ZM10.5014 7.8752H9.75144C9.75144 7.66809 9.91933 7.5002 10.1264 7.5002V8.2502V9.0002C10.7478 9.0002 11.2514 8.49652 11.2514 7.8752H10.5014ZM10.1264 8.2502V7.5002C10.3336 7.5002 10.5014 7.6681 10.5014 7.8752H9.75144H9.00144C9.00144 8.4965 9.50511 9.0002 10.1264 9.0002V8.2502ZM9.75144 7.8752H10.5014C10.5014 8.08231 10.3335 8.2502 10.1264 8.2502V7.5002V6.7502C9.50512 6.7502 9.00144 7.25388 9.00144 7.8752H9.75144ZM3.75 4.5V5.25H20.25V4.5V3.75H3.75V4.5ZM20.25 4.5V5.25H21H21.75C21.75 4.42157 21.0784 3.75 20.25 3.75V4.5ZM21 5.25H20.25V18.75H21H21.75V5.25H21ZM21 18.75H20.25V19.5V20.25C21.0784 20.25 21.75 19.5784 21.75 18.75H21ZM20.25 19.5V18.75H3.75V19.5V20.25H20.25V19.5ZM3.75 19.5V18.75H3H2.25C2.25 19.5784 2.92157 20.25 3.75 20.25V19.5ZM3 18.75H3.75V5.25H3H2.25V18.75H3ZM3 5.25H3.75V4.5V3.75C2.92157 3.75 2.25 4.42157 2.25 5.25H3Z" fill="black"/>
</svg>
