<svg width="24" height="24" viewBox="0 0 24 24" fill="none" xmlns="http://www.w3.org/2000/svg">
<path d="M18.75 15H20.9167C21.3769 15 21.75 14.6269 21.75 14.1667V4.58333C21.75 4.1231 21.3769 3.75 20.9167 3.75H9.08333C8.6231 3.75 8.25 4.1231 8.25 4.58333V5.25M21.75 7.5H18.75M15.75 12V9.08333C15.75 8.6231 15.3769 8.25 14.9167 8.25H3.08333C2.6231 8.25 2.25 8.6231 2.25 9.08333V12M15.75 12V18.6667C15.75 19.1269 15.3769 19.5 14.9167 19.5H3.08333C2.6231 19.5 2.25 19.1269 2.25 18.6667V12M15.75 12H2.25" stroke="black" stroke-width="1.5" stroke-linecap="round" stroke-linejoin="round"/>
<path d="M14.917 8.25C15.377 8.25018 15.7498 8.62303 15.75 9.08301V12H2.25V9.08301C2.25018 8.62303 2.62303 8.25018 3.08301 8.25H14.917ZM20.9062 3.75C21.3722 3.75 21.75 4.16973 21.75 4.6875V7.5H8.25V4.6875C8.25 4.16973 8.62776 3.75 9.09375 3.75H20.9062Z" fill="black" fill-opacity="0.2"/>
</svg>
