<svg width="24" height="24" viewBox="0 0 24 24" fill="none" xmlns="http://www.w3.org/2000/svg">
<path d="M20.25 4.5H3.75C3.33579 4.5 3 4.83579 3 5.25V18.75C3 19.1642 3.33579 19.5 3.75 19.5H20.25C20.6642 19.5 21 19.1642 21 18.75V5.25C21 4.83579 20.6642 4.5 20.25 4.5Z" fill="black" fill-opacity="0.2"/>
<path d="M6.75 7.875C6.75 8.08211 6.58211 8.25 6.375 8.25C6.16789 8.25 6 8.08211 6 7.875C6 7.66789 6.16789 7.5 6.375 7.5C6.58211 7.5 6.75 7.66789 6.75 7.875Z" fill="black"/>
<path d="M10.5 7.875C10.5 8.08211 10.3321 8.25 10.125 8.25C9.91789 8.25 9.75 8.08211 9.75 7.875C9.75 7.66789 9.91789 7.5 10.125 7.5C10.3321 7.5 10.5 7.66789 10.5 7.875Z" fill="black"/>
<path d="M3.75 4.5V5.25H20.25V4.5V3.75H3.75V4.5ZM20.25 4.5V5.25H21H21.75C21.75 4.42157 21.0784 3.75 20.25 3.75V4.5ZM21 5.25H20.25V18.75H21H21.75V5.25H21ZM21 18.75H20.25V19.5V20.25C21.0784 20.25 21.75 19.5784 21.75 18.75H21ZM20.25 19.5V18.75H3.75V19.5V20.25H20.25V19.5ZM3.75 19.5V18.75H3H2.25C2.25 19.5784 2.92157 20.25 3.75 20.25V19.5ZM3 18.75H3.75V5.25H3H2.25V18.75H3ZM3 5.25H3.75V4.5V3.75C2.92157 3.75 2.25 4.42157 2.25 5.25H3ZM6.75 7.875H6C6 7.66789 6.16789 7.5 6.375 7.5V8.25V9C6.99632 9 7.5 8.49632 7.5 7.875H6.75ZM6.375 8.25V7.5C6.58211 7.5 6.75 7.66789 6.75 7.875H6H5.25C5.25 8.49632 5.75368 9 6.375 9V8.25ZM6 7.875H6.75C6.75 8.08211 6.58211 8.25 6.375 8.25V7.5V6.75C5.75368 6.75 5.25 7.25368 5.25 7.875H6ZM6.375 7.5V8.25C6.16789 8.25 6 8.08211 6 7.875H6.75H7.5C7.5 7.25368 6.99632 6.75 6.375 6.75V7.5ZM10.5 7.875H9.75C9.75 7.66789 9.91789 7.5 10.125 7.5V8.25V9C10.7463 9 11.25 8.49632 11.25 7.875H10.5ZM10.125 8.25V7.5C10.3321 7.5 10.5 7.66789 10.5 7.875H9.75H9C9 8.49632 9.50368 9 10.125 9V8.25ZM9.75 7.875H10.5C10.5 8.08211 10.3321 8.25 10.125 8.25V7.5V6.75C9.50368 6.75 9 7.25368 9 7.875H9.75ZM10.125 7.5V8.25C9.91789 8.25 9.75 8.08211 9.75 7.875H10.5H11.25C11.25 7.25368 10.7463 6.75 10.125 6.75V7.5Z" fill="black"/>
</svg>
