<svg xmlns="http://www.w3.org/2000/svg" fill="currentColor" viewBox="0 0 24 24" width="24" height="24"><path d="M21.72 8.76a6.48 6.48 0 0 1-9.613 5.67l-5.676 6.581A2.435 2.435 0 0 1 2.988 17.568l6.581-5.676a6.48 6.48 0 0 1 8.1-9.142L13.619 7.14l0.573 2.666 2.667 0.574 4.389-4.05a6.48 6.48 0 0 1 0.471 2.43z" opacity=".2"/><path d="M22 6.026a0.81 0.81 0 0 0-1.3-0.291l-4.08 3.765-1.745-0.374-0.374-1.745 3.765-4.08a0.81 0.81 0 0 0-0.291-1.299 7.29 7.29 0 0 0-10.024 6.759 7.32 7.32 0 0 0 0.607 2.931l-6.096 5.271q-0.023 0.019-0.043 0.04a3.24 3.24 0 0 0 4.583 4.583l0.04-0.042 5.27-6.099a7.29 7.29 0 0 0 10.22-6.683 7.2 7.2 0 0 0-0.53-2.733zM15.24 14.43a5.688 5.688 0 0 1-2.741-0.709 0.81 0.81 0 0 0-1.004 0.179l-5.661 6.554a1.62 1.62 0 0 1-2.29-2.291l6.549-5.659a0.81 0.81 0 0 0 0.179-1.006 5.67 5.67 0 0 1 5.909-8.334L13.021 6.588a0.816 0.816 0 0 0-0.197 0.719l0.574 2.666a0.816 0.816 0 0 0 0.622 0.622l2.667 0.573a0.816 0.816 0 0 0 0.719-0.196l3.424-3.16a5.676 5.676 0 0 1-5.592 6.616z"/></svg>