<svg width="24" height="24" viewBox="0 0 24 24" fill="none" xmlns="http://www.w3.org/2000/svg">
<path d="M12.75 6.75H3.75C3.33579 6.75 3 7.08579 3 7.5V16.5C3 16.9142 3.33579 17.25 3.75 17.25H12.75C13.1642 17.25 13.5 16.9142 13.5 16.5V7.5C13.5 7.08579 13.1642 6.75 12.75 6.75Z" fill="black" fill-opacity="0.2"/>
<path d="M17.7816 16.2343C17.7816 16.2343 17.201 17.9426 16.6038 18.9769C16.0066 20.0113 14.7232 21.5317 14.7232 21.5317C14.6968 21.5774 14.6601 21.6163 14.6161 21.6454C14.5721 21.6745 14.522 21.6929 14.4697 21.6993C14.4173 21.7056 14.3643 21.6997 14.3147 21.6819C14.2651 21.6642 14.2203 21.6351 14.1839 21.5971L10.4288 17.5591M17.7897 7.76528C17.7897 7.76528 17.209 6.05703 16.6118 5.02265C16.0146 3.98827 14.7312 2.46788 14.7312 2.46788C14.7048 2.4222 14.6682 2.38327 14.6242 2.35418C14.5802 2.3251 14.53 2.30666 14.4777 2.30032C14.4254 2.29398 14.3723 2.29991 14.3227 2.31765C14.2731 2.3354 14.2283 2.36446 14.1919 2.40254L10.5258 6.34493M13.5058 14.6268L20.6403 16.8189C20.7117 16.8397 20.787 16.8437 20.8603 16.8303C20.9335 16.817 21.0026 16.7868 21.0621 16.7421C21.1216 16.6974 21.17 16.6394 21.2032 16.5727C21.2365 16.5061 21.2538 16.4326 21.2538 16.3581C21.2538 16.3581 21.75 13.5749 21.75 11.8879C21.75 10.2008 21.2538 7.71808 21.2538 7.71808C21.2538 7.64356 21.2365 7.57007 21.2032 7.50342C21.17 7.43677 21.1216 7.37879 21.0621 7.33408C21.0026 7.28937 20.9335 7.25915 20.8603 7.24582C20.787 7.23249 20.7117 7.23641 20.6403 7.25728L13.5058 9.44936M6.65625 9.82548L8.25 12.3755M8.25 12.3755L9.84375 9.82548M8.25 12.3755V14.2878M3.75 6.78788H12.75C13.1642 6.78788 13.5 7.12367 13.5 7.53788V16.5379C13.5 16.9521 13.1642 17.2879 12.75 17.2879H3.75C3.33579 17.2879 3 16.9521 3 16.5379V7.53788C3 7.12367 3.33579 6.78788 3.75 6.78788Z" stroke="black" stroke-width="1.5" stroke-linecap="round" stroke-linejoin="round"/>
</svg>
