<svg width="24" height="24" viewBox="0 0 24 24" fill="none" xmlns="http://www.w3.org/2000/svg">
<path d="M21.2428 6.70602C21.1851 6.47477 21.0731 6.26059 20.9161 6.08126C20.7591 5.90192 20.5616 5.76257 20.34 5.67477C17.2013 4.46727 12 4.50009 12 4.50009C12 4.50009 6.79875 4.46727 3.65625 5.67946C3.43466 5.76726 3.23718 5.9066 3.08017 6.08594C2.92317 6.26528 2.81116 6.47945 2.75344 6.71071C2.53781 7.55071 2.25 9.19602 2.25 12.0001C2.25 14.8041 2.53781 16.4495 2.75719 17.2941C2.8152 17.5242 2.92694 17.7371 3.08322 17.9156C3.23951 18.094 3.43589 18.2329 3.65625 18.3207C6.79875 19.5329 12 19.5001 12 19.5001C12 19.5001 17.2013 19.5329 20.3438 18.3207C20.5648 18.2334 20.7619 18.0947 20.9189 17.9163C21.0759 17.7378 21.1882 17.5246 21.2466 17.2941C21.4659 16.4504 21.7537 14.8041 21.7537 12.0001C21.7537 9.19602 21.4622 7.55071 21.2428 6.70602ZM10.5 15.0001V9.00009L15 12.0001L10.5 15.0001Z" fill="black" fill-opacity="0.2"/>
<path d="M15 12L10.5 9V15L15 12Z" stroke="black" stroke-width="1.5" stroke-linecap="round" stroke-linejoin="round"/>
<path d="M2.25 12.0001C2.25 14.8041 2.53781 16.4485 2.75719 17.2942C2.8152 17.5242 2.92694 17.7371 3.08322 17.9156C3.23951 18.094 3.43589 18.2329 3.65625 18.3207C6.79875 19.5329 12 19.5001 12 19.5001C12 19.5001 17.2013 19.5329 20.3438 18.3207C20.5648 18.2334 20.7619 18.0947 20.9189 17.9163C21.0759 17.7378 21.1882 17.5246 21.2466 17.2942C21.4659 16.4504 21.7537 14.8041 21.7537 12.0001C21.7537 9.19602 21.4659 7.55165 21.2466 6.70602C21.1888 6.47477 21.0768 6.26059 20.9198 6.08126C20.7628 5.90192 20.5653 5.76257 20.3438 5.67477C17.2013 4.46727 12 4.50009 12 4.50009C12 4.50009 6.79875 4.46727 3.65625 5.67946C3.43466 5.76726 3.23718 5.9066 3.08017 6.08594C2.92317 6.26528 2.81116 6.47945 2.75344 6.71071C2.53781 7.55071 2.25 9.19602 2.25 12.0001Z" stroke="black" stroke-width="1.5" stroke-linecap="round" stroke-linejoin="round"/>
</svg>
