<svg xmlns="http://www.w3.org/2000/svg" width="24" height="24" fill="currentColor" viewBox="0 0 24 24"><path d="M21.983 6.282a1.62 1.62 0 0 0-0.976-1.114C17.617 3.864 12 3.9 12 3.9s-5.617-0.036-9.011 1.273a1.62 1.62 0 0 0-0.975 1.114c-0.233 0.907-0.544 2.684-0.544 5.712s0.311 4.805 0.547 5.718a1.62 1.62 0 0 0 0.971 1.109c3.394 1.309 9.011 1.273 9.011 1.273s5.617 0.036 9.011-1.273a1.62 1.62 0 0 0 0.975-1.109c0.236-0.911 0.547-2.689 0.547-5.718s-0.314-4.805-0.552-5.718zM10.38 15.24V8.76L15.24 12z" opacity=".2"/><path d="M15.69 11.326l-4.86-3.24a0.81 0.81 0 0 0-1.26 0.674v6.48a0.81 0.81 0 0 0 1.26 0.674l4.86-3.24a0.81 0.81 0 0 0 0-1.348m-4.5 2.401v-3.448L13.78 12z m11.576-7.648a2.436 2.436 0 0 0-1.467-1.661C17.828 3.078 12.304 3.09 12 3.09s-5.828-0.012-9.299 1.328a2.436 2.436 0 0 0-1.467 1.661C0.971 7.09 0.66 8.936 0.66 12s0.312 4.91 0.574 5.921a2.436 2.436 0 0 0 1.467 1.662c3.325 1.283 8.53 1.327 9.232 1.327h0.133c0.703 0 5.91-0.044 9.232-1.327a2.436 2.436 0 0 0 1.467-1.662c0.263-1.013 0.574-2.857 0.574-5.921s-0.312-4.91-0.574-5.921zM21.198 17.52a0.816 0.816 0 0 1-0.482 0.556c-3.204 1.237-8.654 1.216-8.72 1.215s-5.504 0.018-8.707-1.214a0.816 0.816 0 0 1-0.482-0.556c-0.241-0.924-0.524-2.628-0.525-5.52s0.283-4.596 0.522-5.515a0.816 0.816 0 0 1 0.483-0.56c3.204-1.234 8.654-1.216 8.719-1.216s5.504-0.018 8.707 1.216a0.816 0.816 0 0 1 0.483 0.555c0.241 0.923 0.524 2.627 0.524 5.519s-0.283 4.596-0.522 5.515z"/></svg>