<svg width="24" height="24" viewBox="0 0 24 24" fill="none" xmlns="http://www.w3.org/2000/svg">
<path fill-rule="evenodd" clip-rule="evenodd" d="M15.749 8.24854V11.0409L15.0693 10.3608L14.9844 10.2847C14.9257 10.2365 14.8629 10.1935 14.7959 10.1577L14.6934 10.1089L14.5859 10.0708C14.4769 10.0377 14.3634 10.021 14.249 10.021C14.1347 10.021 14.0211 10.0377 13.9121 10.0708L13.8057 10.1089C13.665 10.1672 13.5364 10.254 13.4287 10.3618L8.24902 15.5415V8.24854H15.749Z" fill="black" fill-opacity="0.2"/>
<path d="M8.35335 16.5086L13.9604 10.901C13.9984 10.863 14.0435 10.8328 14.0932 10.8123C14.1429 10.7917 14.1961 10.7811 14.2498 10.7811C14.3036 10.7811 14.3568 10.7917 14.4065 10.8123C14.4562 10.8328 14.5013 10.863 14.5393 10.901L16.4998 12.8621M16.3185 4.49951H19.5005V7.68149M7.68149 4.49951H4.49951V7.68149M19.5005 16.3187V19.5007H16.3185M4.49951 16.3187V19.5007H7.68149M7.90892 7.50861H16.0907C16.3166 7.50861 16.4998 7.69176 16.4998 7.9177V16.0995C16.4998 16.3254 16.3166 16.5086 16.0907 16.5086H7.90892C7.68299 16.5086 7.49983 16.3254 7.49983 16.0995V7.9177C7.49983 7.69176 7.68299 7.50861 7.90892 7.50861ZM10.7384 10.3724C10.7384 10.5795 10.5705 10.7474 10.3634 10.7474C10.1562 10.7474 9.98836 10.5795 9.98836 10.3724C9.98836 10.1653 10.1562 9.99738 10.3634 9.99738C10.5705 9.99738 10.7384 10.1653 10.7384 10.3724Z" stroke="black" stroke-width="1.5" stroke-linecap="round" stroke-linejoin="round"/>
</svg>
