<svg width="24" height="24" viewBox="0 0 24 24" fill="none" xmlns="http://www.w3.org/2000/svg">
<path d="M10.5 18.0002C14.6421 18.0002 18 14.6424 18 10.5002C18 6.35811 14.6421 3.00025 10.5 3.00024C6.35786 3.00024 3 6.35811 3 10.5002C3 14.6424 6.35786 18.0002 10.5 18.0002Z" fill="black" fill-opacity="0.2"/>
<path d="M15.8035 15.8035L21 21M7.77217 6.65057L7.77217 8.89487M8.8944 7.77308L6.65011 7.77308M18 10.5002C18 14.6424 14.6421 18.0002 10.5 18.0002C6.35786 18.0002 3 14.6424 3 10.5002C3 6.35811 6.35786 3.00024 10.5 3.00024C14.6421 3.00024 18 6.35811 18 10.5002ZM11.1599 12.2399L9.09406 11.4787C9.03709 11.4576 8.98794 11.4197 8.95323 11.3699C8.91851 11.32 8.8999 11.2608 8.8999 11.2001C8.8999 11.1393 8.91851 11.0801 8.95323 11.0303C8.98794 10.9804 9.03709 10.9425 9.09406 10.9214L11.1599 10.1602L11.9212 8.0943C11.9422 8.03734 11.9802 7.98819 12.03 7.95347C12.0798 7.91876 12.1391 7.90015 12.1998 7.90015C12.2605 7.90015 12.3198 7.91876 12.3696 7.95347C12.4194 7.98819 12.4574 8.03734 12.4784 8.0943L13.2397 10.1602L15.3056 10.9214C15.3625 10.9425 15.4117 10.9804 15.4464 11.0303C15.4811 11.0801 15.4997 11.1393 15.4997 11.2001C15.4997 11.2608 15.4811 11.32 15.4464 11.3699C15.4117 11.4197 15.3625 11.4576 15.3056 11.4787L13.2397 12.2399L12.4784 14.3058C12.4574 14.3628 12.4194 14.4119 12.3696 14.4466C12.3198 14.4813 12.2605 14.5 12.1998 14.5C12.1391 14.5 12.0798 14.4813 12.03 14.4466C11.9802 14.4119 11.9422 14.3628 11.9212 14.3058L11.1599 12.2399Z" stroke="black" stroke-width="1.5" stroke-linecap="round" stroke-linejoin="round"/>
</svg>
