<svg width="24" height="24" viewBox="0 0 24 24" fill="none" xmlns="http://www.w3.org/2000/svg">
<path fill-rule="evenodd" clip-rule="evenodd" d="M15.7489 8.24854V11.0409L15.0692 10.3608L14.9843 10.2847C14.9256 10.2365 14.8627 10.1935 14.7958 10.1577L14.6932 10.1089L14.5858 10.0708C14.4768 10.0377 14.3632 10.021 14.2489 10.021C14.1346 10.021 14.021 10.0377 13.912 10.0708L13.8055 10.1089C13.6648 10.1672 13.5362 10.254 13.4286 10.3618L8.2489 15.5415V8.24854H15.7489Z" fill="black" fill-opacity="0.2"/>
<path d="M8.35254 16.5L13.9596 10.8924C13.9976 10.8544 14.0427 10.8242 14.0924 10.8036C14.142 10.7831 14.1953 10.7725 14.249 10.7725C14.3028 10.7725 14.356 10.7831 14.4057 10.8036C14.4554 10.8242 14.5005 10.8544 14.5385 10.8924L16.499 12.8535M9.75 4.49902L12 2.24902L14.25 4.49902M4.5 9.75L2.25 12L4.5 14.25M19.5 9.75L21.75 12L19.5 14.25M9.75 19.501L12 21.751L14.25 19.501M7.90811 7.5H16.0899C16.3158 7.5 16.499 7.68316 16.499 7.90909V16.0909C16.499 16.3168 16.3158 16.5 16.0899 16.5H7.90811C7.68218 16.5 7.49902 16.3168 7.49902 16.0909V7.90909C7.49902 7.68316 7.68218 7.5 7.90811 7.5ZM10.7375 10.3638C10.7375 10.5709 10.5697 10.7388 10.3625 10.7388C10.1554 10.7388 9.98755 10.5709 9.98755 10.3638C9.98755 10.1567 10.1554 9.98877 10.3625 9.98877C10.5697 9.98877 10.7375 10.1567 10.7375 10.3638Z" stroke="black" stroke-width="1.5" stroke-linecap="round" stroke-linejoin="round"/>
</svg>
