<svg viewBox="0 0 24 24" fill="none" xmlns="http://www.w3.org/2000/svg" width="24" height="24">
<path opacity="0.2" d="M19.091 4.2H4.909C4.721 4.2 4.541 4.275 4.408 4.408 4.275 4.541 4.2 4.721 4.2 4.909V19.091C4.2 19.279 4.275 19.459 4.408 19.592 4.541 19.725 4.721 19.8 4.909 19.8H5.679L15.398 10.08C15.464 10.014 15.542 9.962 15.628 9.926 15.715 9.891 15.807 9.872 15.9 9.872 15.993 9.872 16.085 9.891 16.172 9.926 16.258 9.962 16.336 10.014 16.402 10.08L19.8 13.479V4.909C19.8 4.721 19.725 4.541 19.592 4.408 19.459 4.275 19.279 4.2 19.091 4.2ZM9.164 10.582C8.883 10.582 8.609 10.499 8.376 10.343 8.143 10.187 7.961 9.966 7.853 9.706 7.746 9.447 7.718 9.162 7.773 8.887 7.827 8.612 7.962 8.359 8.161 8.161 8.359 7.962 8.612 7.827 8.887 7.773 9.162 7.718 9.447 7.746 9.706 7.853 9.966 7.961 10.187 8.143 10.343 8.376 10.499 8.609 10.582 8.883 10.582 9.164 10.582 9.54 10.432 9.9 10.166 10.166 9.9 10.432 9.54 10.582 9.164 10.582Z" fill="black"/>
<path d="M19.2 4.909C19.2 4.849 19.151 4.8 19.091 4.8H4.909C4.849 4.8 4.8 4.849 4.8 4.909V19.091C4.8 19.151 4.849 19.2 4.909 19.2H19.091C19.151 19.2 19.2 19.151 19.2 19.091V4.909ZM20.4 19.091C20.4 19.814 19.814 20.4 19.091 20.4H4.909C4.186 20.4 3.6 19.814 3.6 19.091V4.909C3.6 4.186 4.186 3.6 4.909 3.6H19.091C19.814 3.6 20.4 4.186 20.4 4.909V19.091Z" fill="black"/>
<path d="M9.872 9.163C9.872 8.772 9.555 8.454 9.163 8.454 8.772 8.455 8.455 8.772 8.454 9.163 8.454 9.555 8.772 9.872 9.163 9.872 9.555 9.872 9.872 9.555 9.872 9.163ZM11.29 9.163C11.29 10.338 10.338 11.29 9.163 11.29 7.989 11.29 7.037 10.338 7.037 9.163 7.037 7.989 7.989 7.037 9.163 7.037 10.338 7.037 11.29 7.989 11.29 9.163Z" fill="black"/>
<path d="M15.9 9.272C16.072 9.272 16.242 9.306 16.401 9.371 16.559 9.437 16.703 9.535 16.825 9.656L16.826 9.655 20.224 13.055C20.459 13.289 20.458 13.669 20.224 13.903 19.99 14.137 19.61 14.137 19.376 13.903L15.978 10.503C15.968 10.494 15.954 10.485 15.941 10.48 15.928 10.475 15.914 10.472 15.9 10.472 15.886 10.472 15.871 10.475 15.858 10.48 15.845 10.485 15.833 10.494 15.823 10.503L6.103 20.224C5.869 20.458 5.489 20.458 5.255 20.224 5.021 19.99 5.021 19.61 5.255 19.376L14.973 9.655C15.095 9.533 15.24 9.437 15.399 9.371 15.558 9.306 15.728 9.272 15.9 9.272Z" fill="black"/>
<path d="M0.287 5.411C0.348 5.436 0.414 5.443 0.479 5.43 0.543 5.417 0.602 5.385 0.649 5.339L5.339 0.649C5.385 0.603 5.417 0.543 5.43 0.479 5.442 0.415 5.436 0.348 5.411 0.287 5.386 0.227 5.343 0.175 5.289 0.138 5.234 0.102 5.17 0.083 5.104 0.083L0.414 0.083C0.371 0.083 0.327 0.091 0.287 0.108 0.247 0.124 0.21 0.149 0.179 0.18 0.149 0.211 0.124 0.247 0.108 0.287 0.091 0.328 0.082 0.371 0.082 0.414L0.082 5.105C0.082 5.17 0.102 5.234 0.138 5.289 0.175 5.343 0.227 5.386 0.287 5.411Z" fill="black"/>
<path d="M0.287 18.589C0.348 18.564 0.414 18.558 0.479 18.57 0.543 18.583 0.602 18.615 0.649 18.661L5.339 23.351C5.385 23.397 5.417 23.457 5.43 23.521 5.442 23.585 5.436 23.652 5.411 23.713 5.386 23.773 5.343 23.825 5.289 23.862 5.234 23.898 5.17 23.917 5.104 23.917H0.414C0.371 23.917 0.327 23.909 0.287 23.892 0.247 23.876 0.21 23.851 0.179 23.82 0.149 23.789 0.124 23.753 0.108 23.713 0.091 23.672 0.082 23.629 0.082 23.586L0.082 18.895C0.082 18.83 0.102 18.766 0.138 18.711 0.175 18.657 0.227 18.614 0.287 18.589Z" fill="black"/>
<path d="M23.713 18.589C23.652 18.564 23.586 18.558 23.521 18.57 23.457 18.583 23.398 18.615 23.351 18.661L18.661 23.351C18.615 23.397 18.583 23.457 18.57 23.521 18.558 23.585 18.564 23.652 18.589 23.713 18.614 23.773 18.657 23.825 18.711 23.862 18.766 23.898 18.83 23.917 18.896 23.917H23.586C23.629 23.917 23.673 23.909 23.713 23.892 23.753 23.876 23.79 23.851 23.82 23.82 23.851 23.789 23.876 23.753 23.892 23.713 23.909 23.672 23.918 23.629 23.918 23.586V18.895C23.918 18.83 23.898 18.766 23.862 18.711 23.825 18.657 23.773 18.614 23.713 18.589Z" fill="black"/>
<path d="M23.713 5.411C23.652 5.436 23.585 5.443 23.521 5.43 23.457 5.417 23.398 5.385 23.351 5.339L18.661 0.649C18.615 0.603 18.583 0.543 18.57 0.479 18.557 0.415 18.564 0.348 18.589 0.287 18.614 0.227 18.657 0.175 18.711 0.138 18.766 0.102 18.83 0.083 18.896 0.083L23.586 0.083C23.629 0.083 23.673 0.091 23.713 0.108 23.753 0.124 23.79 0.149 23.82 0.18 23.851 0.211 23.876 0.247 23.892 0.287 23.909 0.328 23.918 0.371 23.918 0.414V5.105C23.918 5.17 23.898 5.234 23.862 5.289 23.825 5.343 23.773 5.386 23.713 5.411Z" fill="black"/>
</svg>