<svg width="24" height="24" viewBox="0 0 24 24" fill="none" xmlns="http://www.w3.org/2000/svg">
<path d="M17.25 15H20.25M17.25 9H20.25M10.5 13.5C11.7426 13.5 12.75 12.4926 12.75 11.25C12.75 10.0074 11.7426 9 10.5 9C9.25736 9 8.25 10.0074 8.25 11.25C8.25 12.4926 9.25736 13.5 10.5 13.5ZM10.5 13.5C9.10219 13.5 7.83281 14.4562 7.5 15.75M10.5 13.5C11.8978 13.5 13.1681 14.4553 13.5 15.75M17.25 3.75V20.25M4.5 3.75H19.5C19.9142 3.75 20.25 4.08579 20.25 4.5V19.5C20.25 19.9142 19.9142 20.25 19.5 20.25H4.5C4.08579 20.25 3.75 19.9142 3.75 19.5V4.5C3.75 4.08579 4.08579 3.75 4.5 3.75Z" stroke="black" stroke-width="1.5" stroke-linecap="round" stroke-linejoin="round"/>
</svg>
