<svg xmlns="http://www.w3.org/2000/svg" fill="currentColor" viewBox="0 0 24 24" width="24" height="24"><path d="M15.15 13.43a3.847 3.847 0 1 0-4.68 0 6.66 6.66 0 0 0-3.006 2.255 0.607 0.607 0 0 0 0.972 0.729 5.467 5.467 0 0 1 8.748 0 0.607 0.607 0 0 0 0.972-0.729 6.66 6.66 0 0 0-3.006-2.255m-4.973-3.05a2.633 2.633 0 1 1 2.633 2.633 2.633 2.633 0 0 1-2.633-2.633m9.923-8.707H5.52a1.416 1.416 0 0 0-1.417 1.417v2.633H2.28a0.608 0.608 0 0 0 0 1.215h1.823v4.456H2.28a0.608 0.608 0 0 0 0 1.216h1.823v4.455H2.28a0.608 0.608 0 0 0 0 1.216h1.823v2.633A1.416 1.416 0 0 0 5.52 22.331h14.58a1.416 1.416 0 0 0 1.417-1.417V3.094a1.416 1.416 0 0 0-1.417-1.418z m0.203 19.237a0.204 0.204 0 0 1-0.203 0.203H5.52a0.204 0.204 0 0 1-0.203-0.203V3.09a0.204 0.204 0 0 1 0.203-0.203h14.58a0.204 0.204 0 0 1 0.203 0.203z"/></svg>