<svg width="24" height="24" viewBox="0 0 24 24" fill="none" xmlns="http://www.w3.org/2000/svg">
<path d="M3 12.001L21 12.001M5.68998 6.81208L9.93723 11.0593M14.4533 4.00843L18.4937 8.04843M13.4802 7.53773L17.5343 11.5918M14.25 20.2505H18C18.4142 20.2505 18.75 19.9147 18.75 19.5005V4.50049C18.75 4.08627 18.4142 3.75049 18 3.75049L14.25 3.75049C13.8358 3.75049 13.5 4.08628 13.5 4.50049V19.5005C13.5 19.9147 13.8358 20.2505 14.25 20.2505ZM6 18.0005H9.75C10.1642 18.0005 10.5 17.6647 10.5 17.2505L10.5 6.75049C10.5 6.33627 10.1642 6.00049 9.75 6.00049L6 6.00049C5.58579 6.00049 5.25 6.33627 5.25 6.75049L5.25 17.2505C5.25 17.6647 5.58579 18.0005 6 18.0005Z" stroke="black" stroke-width="1.5" stroke-linecap="round" stroke-linejoin="round"/>
</svg>
