<svg viewBox="0 0 24 24" fill="none" xmlns="http://www.w3.org/2000/svg" width="24" height="24">
<path d="M20.715 3.09C20.715 2.759 20.984 2.49 21.315 2.49 21.646 2.49 21.915 2.759 21.915 3.09V20.91C21.915 21.241 21.646 21.51 21.315 21.51 20.984 21.51 20.715 21.241 20.715 20.91V3.09Z" fill="black"/>
<path d="M6.135 5.52C6.135 4.742 6.766 4.111 7.545 4.11H17.265C18.044 4.11 18.675 4.741 18.675 5.52V9.57C18.675 10.349 18.044 10.98 17.265 10.98H7.545C6.766 10.98 6.135 10.349 6.135 9.57V5.52Z" fill="black"/>
<path d="M3.495 14.221C3.379 14.221 3.285 14.315 3.285 14.43V18.48C3.285 18.596 3.379 18.69 3.495 18.69H17.265C17.381 18.69 17.475 18.596 17.475 18.48V14.43C17.475 14.315 17.381 14.221 17.265 14.221H3.495ZM17.265 13.021C18.044 13.021 18.675 13.652 18.675 14.43V18.48C18.675 19.259 18.044 19.89 17.265 19.89H3.495C2.716 19.89 2.085 19.259 2.085 18.48V14.43C2.085 13.652 2.716 13.021 3.495 13.021H17.265Z" fill="black"/>
</svg>