<svg viewBox="0 0 24 24" fill="none" xmlns="http://www.w3.org/2000/svg" width="24" height="24">
<path d="M20.91 3.285C21.241 3.285 21.51 3.016 21.51 2.685 21.51 2.353 21.241 2.085 20.91 2.085H3.09C2.759 2.085 2.49 2.353 2.49 2.685 2.49 3.016 2.759 3.285 3.09 3.285H20.91Z" fill="black"/>
<path d="M18.48 17.865C19.258 17.865 19.889 17.234 19.89 16.455V6.735C19.89 5.956 19.259 5.325 18.48 5.325H14.43C13.651 5.325 13.02 5.956 13.02 6.735V16.455C13.02 17.234 13.651 17.865 14.43 17.865H18.48Z" fill="black"/>
<path d="M9.78 20.505C9.78 20.621 9.686 20.715 9.57 20.715H5.52C5.404 20.715 5.31 20.621 5.31 20.505V6.735C5.31 6.619 5.404 6.525 5.52 6.525H9.57C9.686 6.525 9.779 6.619 9.78 6.735V20.505ZM10.98 6.735C10.979 5.956 10.348 5.325 9.57 5.325H5.52C4.741 5.325 4.11 5.956 4.11 6.735V20.505C4.11 21.284 4.741 21.915 5.52 21.915H9.57C10.348 21.915 10.98 21.284 10.98 20.505V6.735Z" fill="black"/>
</svg>