<svg width="24" height="24" viewBox="0 0 24 24" fill="none" xmlns="http://www.w3.org/2000/svg">
<path d="M9.91357 15.8472L5.35962 11.2932M10.4155 11.8472L6.11811 7.54975M3.75 3.75H20.25M14.25 21H18C18.4142 21 18.75 20.6642 18.75 20.25V7.5C18.75 7.08579 18.4142 6.75 18 6.75H14.25C13.8358 6.75 13.5 7.08579 13.5 7.5V20.25C13.5 20.6642 13.8358 21 14.25 21ZM6 17.25H9.75C10.1642 17.25 10.5 16.9142 10.5 16.5V7.5C10.5 7.08579 10.1642 6.75 9.75 6.75H6C5.58579 6.75 5.25 7.08579 5.25 7.5V16.5C5.25 16.9142 5.58579 17.25 6 17.25Z" stroke="black" stroke-width="1.5" stroke-linecap="round" stroke-linejoin="round"/>
</svg>
