<svg width="24" height="24" viewBox="0 0 24 24" fill="none" xmlns="http://www.w3.org/2000/svg">
<path d="M3.00391 19.5C3.00391 19.7761 2.78005 20 2.50391 20C2.22776 20 2.00391 19.7761 2.00391 19.5L2.00391 4.5C2.00391 4.22386 2.22776 4 2.50391 4C2.78005 4 3.00391 4.22386 3.00391 4.5L3.00391 19.5Z" fill="black"/>
<path d="M21.9961 19.5C21.9961 19.7761 21.7722 20 21.4961 20C21.22 20 20.9961 19.7761 20.9961 19.5V4.5C20.9961 4.22386 21.22 4 21.4961 4C21.7722 4 21.9961 4.22386 21.9961 4.5V19.5Z" fill="black"/>
<path d="M19 10.2539C19 10.6421 18.7051 10.9614 18.3271 11L18.25 11.0039H5.75L5.67285 11C5.32025 10.964 5.03994 10.6837 5.00391 10.3311L5 10.2539V6.75391C5 6.33969 5.33579 6.00391 5.75 6.00391H18.25C18.6642 6.00391 19 6.33969 19 6.75391V10.2539Z" fill="black"/>
<mask id="path-2-inside-1_798_4103" fill="white">
<rect x="5" y="13.0039" width="14" height="5" rx="0.75"/>
</mask>
<rect x="5" y="13.0039" width="14" height="5" rx="0.75" stroke="black" stroke-width="2" mask="url(#path-2-inside-1_798_4103)"/>
</svg>
