<svg width="24" height="24" viewBox="0 0 24 24" fill="none" xmlns="http://www.w3.org/2000/svg">
<path d="M5.92529 12.5H3.8999C3.62376 12.5 3.3999 12.2761 3.3999 12C3.3999 11.7239 3.62376 11.5 3.8999 11.5H5.92529C6.20126 11.5002 6.42529 11.724 6.42529 12C6.42529 12.276 6.20126 12.4998 5.92529 12.5Z" fill="black"/>
<path d="M20.1003 12.5H18.075C17.7988 12.5 17.575 12.2761 17.575 12C17.575 11.7239 17.7988 11.5 18.075 11.5H20.1003C20.3763 11.5002 20.6003 11.724 20.6003 12C20.6003 12.276 20.3763 12.4998 20.1003 12.5Z" fill="black"/>
<path d="M13.3501 12.5H10.6499C10.3738 12.5 10.1499 12.2761 10.1499 12C10.1499 11.7239 10.3738 11.5 10.6499 11.5H13.3501C13.6262 11.5001 13.8501 11.7239 13.8501 12C13.8501 12.2761 13.6262 12.4999 13.3501 12.5Z" fill="black"/>
<path d="M5.4248 7.27441C5.42507 6.62577 5.95093 6.09971 6.59961 6.09961H9.97461C10.6234 6.09961 11.1492 6.6257 11.1494 7.27441V16.7246C11.1493 17.3735 10.6235 17.8994 9.97461 17.8994H6.59961C5.95083 17.8993 5.42491 17.3734 5.4248 16.7246V7.27441ZM6.4248 16.7246C6.42491 16.8211 6.50311 16.8993 6.59961 16.8994H9.97461C10.0712 16.8994 10.1493 16.8212 10.1494 16.7246V12.5H6.4248V16.7246Z" fill="black"/>
<path d="M12.8506 5.25C12.8507 4.60124 13.3766 4.0753 14.0254 4.0752H17.4004C18.049 4.07546 18.5751 4.60134 18.5752 5.25V18.75C18.5751 19.3987 18.049 19.9245 17.4004 19.9248H14.0254C13.3766 19.9247 12.8507 19.3988 12.8506 18.75V5.25ZM13.8506 18.75C13.8507 18.8465 13.9289 18.9247 14.0254 18.9248H17.4004C17.4967 18.9245 17.5751 18.8464 17.5752 18.75V12.5H13.8506V18.75Z" fill="black"/>
</svg>
