<svg xmlns="http://www.w3.org/2000/svg" width="24" height="24" fill="currentColor" viewBox="0 0 24 24"><path d="M3.697 3.09v17.82a0.608 0.608 0 0 1-1.215 0V3.09a0.608 0.608 0 0 1 1.215 0m2.025 6.48V5.52a1.416 1.416 0 0 1 1.417-1.417h9.72A1.416 1.416 0 0 1 18.276 5.52v4.05a1.416 1.416 0 0 1-1.417 1.417h-9.72a1.416 1.416 0 0 1-1.417-1.417m1.215 0a0.204 0.204 0 0 0 0.203 0.203h9.72a0.204 0.204 0 0 0 0.203-0.203V5.52a0.204 0.204 0 0 0-0.203-0.203h-9.72a0.204 0.204 0 0 0-0.203 0.203z m15.39 4.86V18.48a1.416 1.416 0 0 1-1.417 1.417H7.14A1.416 1.416 0 0 1 5.723 18.48v-4.05a1.416 1.416 0 0 1 1.417-1.417h13.77a1.416 1.416 0 0 1 1.417 1.417m-1.214 0a0.204 0.204 0 0 0-0.203-0.203H7.14a0.204 0.204 0 0 0-0.203 0.203V18.48a0.204 0.204 0 0 0 0.203 0.203h13.77a0.204 0.204 0 0 0 0.203-0.203z"/></svg>