<svg xmlns="http://www.w3.org/2000/svg" width="24" height="24" fill="currentColor" viewBox="0 0 24 24"><path d="M21.72 11.393h-1.823V6.33A1.416 1.416 0 0 0 18.48 4.913h-4.05a1.416 1.416 0 0 0-1.417 1.417v5.063h-2.026V3.9a1.416 1.416 0 0 0-1.417-1.417H5.52A1.416 1.416 0 0 0 4.103 3.9v7.493H2.28a0.608 0.608 0 0 0 0 1.215h1.823v7.493A1.416 1.416 0 0 0 5.52 21.518h4.05a1.416 1.416 0 0 0 1.417-1.417v-7.493h2.026v5.063a1.416 1.416 0 0 0 1.417 1.417H18.48a1.416 1.416 0 0 0 1.417-1.417v-5.063H21.72a0.608 0.608 0 0 0 0-1.215m-11.947 8.707a0.204 0.204 0 0 1-0.203 0.203H5.52a0.204 0.204 0 0 1-0.203-0.203V3.9a0.204 0.204 0 0 1 0.203-0.203h4.05a0.204 0.204 0 0 1 0.203 0.203z m8.91-2.43a0.204 0.204 0 0 1-0.203 0.203h-4.05a0.204 0.204 0 0 1-0.203-0.203v-11.34a0.204 0.204 0 0 1 0.203-0.203H18.48a0.204 0.204 0 0 1 0.203 0.203z"/></svg>