<svg xmlns="http://www.w3.org/2000/svg" width="24" height="24" fill="currentColor" viewBox="0 0 24 24"><path d="M21.517 20.91a0.607 0.607 0 0 1-0.607 0.607H3.09a0.607 0.607 0 0 1 0-1.214h17.82a0.607 0.607 0 0 1 0.607 0.607m-8.505-4.05v-9.72a1.416 1.416 0 0 1 1.417-1.417h4.05A1.416 1.416 0 0 1 19.896 7.14v9.72a1.416 1.416 0 0 1-1.417 1.417h-4.05a1.416 1.416 0 0 1-1.417-1.417m1.215 0a0.204 0.204 0 0 0 0.203 0.203H18.48a0.204 0.204 0 0 0 0.203-0.203v-9.72a0.204 0.204 0 0 0-0.203-0.203h-4.05a0.204 0.204 0 0 0-0.203 0.203z m-10.125 0V3.09a1.416 1.416 0 0 1 1.417-1.417h4.05a1.416 1.416 0 0 1 1.417 1.417V16.86a1.416 1.416 0 0 1-1.417 1.417H5.519a1.416 1.416 0 0 1-1.417-1.417m1.215 0a0.204 0.204 0 0 0 0.203 0.203h4.05a0.204 0.204 0 0 0 0.203-0.203V3.09a0.204 0.204 0 0 0-0.203-0.203H5.52a0.204 0.204 0 0 0-0.203 0.203z"/></svg>