<svg width="24" height="24" viewBox="0 0 24 24" fill="none" xmlns="http://www.w3.org/2000/svg">
<path d="M19.5 20.9961C19.7761 20.9961 20 21.22 20 21.4961C20 21.7722 19.7761 21.9961 19.5 21.9961H4.5C4.22386 21.9961 4 21.7722 4 21.4961C4 21.22 4.22386 20.9961 4.5 20.9961H19.5Z" fill="black"/>
<path d="M19.5 2.00391C19.7761 2.00391 20 2.22776 20 2.50391C20 2.78005 19.7761 3.00391 19.5 3.00391L4.5 3.00391C4.22386 3.00391 4 2.78005 4 2.50391C4 2.22776 4.22386 2.00391 4.5 2.00391L19.5 2.00391Z" fill="black"/>
<path d="M10.2539 5C10.6421 5 10.9614 5.29488 11 5.67285L11.0039 5.75V18.25L11 18.3271C10.964 18.6798 10.6837 18.9601 10.3311 18.9961L10.2539 19H6.75391C6.33969 19 6.00391 18.6642 6.00391 18.25V5.75C6.00391 5.33579 6.33969 5 6.75391 5H10.2539Z" fill="black"/>
<path d="M17.0039 18V6H14.0039V18H17.0039ZM17.2539 5C17.6421 5 17.9614 5.29488 18 5.67285L18.0039 5.75V18.25L18 18.3271C17.964 18.6798 17.6837 18.9601 17.3311 18.9961L17.2539 19H13.7539C13.3397 19 13.0039 18.6642 13.0039 18.25V5.75C13.0039 5.33579 13.3397 5 13.7539 5H17.2539Z" fill="black"/>
</svg>
