<svg viewBox="0 0 24 24" fill="none" xmlns="http://www.w3.org/2000/svg" width="24" height="24">
<path d="M20.91 20.715C21.241 20.715 21.51 20.984 21.51 21.315 21.51 21.647 21.241 21.915 20.91 21.915H3.09C2.759 21.915 2.49 21.647 2.49 21.315 2.49 20.984 2.759 20.715 3.09 20.715H20.91Z" fill="black"/>
<path d="M18.48 6.135C19.258 6.135 19.889 6.766 19.89 7.545V17.265C19.89 18.044 19.259 18.675 18.48 18.675H14.43C13.651 18.675 13.02 18.044 13.02 17.265V7.545C13.02 6.766 13.651 6.135 14.43 6.135H18.48Z" fill="black"/>
<path d="M9.78 3.495C9.78 3.379 9.686 3.285 9.57 3.285H5.52C5.404 3.285 5.31 3.379 5.31 3.495V17.265C5.31 17.381 5.404 17.475 5.52 17.475H9.57C9.686 17.475 9.779 17.381 9.78 17.265V3.495ZM10.98 17.265C10.979 18.044 10.348 18.675 9.57 18.675H5.52C4.741 18.675 4.11 18.044 4.11 17.265V3.495C4.11 2.716 4.741 2.085 5.52 2.085H9.57C10.348 2.085 10.98 2.716 10.98 3.495V17.265Z" fill="black"/>
</svg>