<svg viewBox="0 0 24 24" fill="none" xmlns="http://www.w3.org/2000/svg" width="24" height="24">
<path d="M1.205 21C1.205 21.331 0.936 21.6 0.605 21.6 0.273 21.6 0.005 21.331 0.005 21L0.005 3C0.005 2.669 0.273 2.4 0.605 2.4 0.936 2.4 1.205 2.669 1.205 3L1.205 21Z" fill="black"/>
<path d="M23.995 21C23.995 21.331 23.727 21.6 23.395 21.6 23.064 21.6 22.795 21.331 22.795 21V3C22.795 2.669 23.064 2.4 23.395 2.4 23.727 2.4 23.995 2.669 23.995 3V21Z" fill="black"/>
<path d="M4.5 10.805C4.003 10.805 3.6 10.402 3.6 9.905V5.705C3.6 5.208 4.003 4.805 4.5 4.805H19.5C19.997 4.805 20.4 5.208 20.4 5.705V9.905C20.4 10.402 19.997 10.805 19.5 10.805H4.5Z" fill="black"/>
<path d="M4.5 19.205C4.003 19.205 3.6 18.802 3.6 18.305V14.105C3.6 13.608 4.003 13.205 4.5 13.205H19.5C19.997 13.205 20.4 13.608 20.4 14.105V18.305C20.4 18.802 19.997 19.205 19.5 19.205H4.5Z" fill="black"/>
</svg>