<svg xmlns="http://www.w3.org/2000/svg" width="24" height="24" fill="currentColor" viewBox="0 0 24 24"><path d="M21.517 3.09a0.607 0.607 0 0 1-0.607 0.607H3.09a0.608 0.608 0 0 1 0-1.215h17.82a0.607 0.607 0 0 1 0.607 0.607z m-1.62 4.05v9.72a1.416 1.416 0 0 1-1.417 1.417h-4.05a1.416 1.416 0 0 1-1.417-1.417v-9.72a1.416 1.416 0 0 1 1.417-1.417H18.48a1.416 1.416 0 0 1 1.417 1.417m-1.214 0a0.204 0.204 0 0 0-0.203-0.203h-4.05a0.204 0.204 0 0 0-0.203 0.203v9.72a0.204 0.204 0 0 0 0.203 0.203H18.48a0.204 0.204 0 0 0 0.203-0.203z m-7.696 0v13.77a1.416 1.416 0 0 1-1.417 1.417H5.52a1.416 1.416 0 0 1-1.417-1.417V7.14A1.416 1.416 0 0 1 5.52 5.723h4.05a1.416 1.416 0 0 1 1.417 1.417m-1.214 0a0.204 0.204 0 0 0-0.203-0.203H5.52a0.204 0.204 0 0 0-0.203 0.203v13.77a0.204 0.204 0 0 0 0.203 0.203h4.05a0.204 0.204 0 0 0 0.203-0.203z"/></svg>