<svg xmlns="http://www.w3.org/2000/svg" width="24" height="24" fill="currentColor" viewBox="0 0 24 24"><path d="M19.931 4.575a.506.506 0 0 1-.506.506H4.575a.507.507 0 0 1 0-1.013h14.85a.506.506 0 0 1 .506.506zm-1.35 3.375v8.1a1.18 1.18 0 0 1-1.181 1.181h-3.375a1.18 1.18 0 0 1-1.181-1.181v-8.1a1.18 1.18 0 0 1 1.181-1.181H17.4a1.18 1.18 0 0 1 1.181 1.181m-1.012 0a.17.17 0 0 0-.169-.169h-3.375a.17.17 0 0 0-.169.169v8.1a.17.17 0 0 0 .169.169H17.4a.17.17 0 0 0 .169-.169zm-6.413 0v11.475a1.18 1.18 0 0 1-1.181 1.181H6.6a1.18 1.18 0 0 1-1.181-1.181V7.95A1.18 1.18 0 0 1 6.6 6.769h3.375a1.18 1.18 0 0 1 1.181 1.181m-1.012 0a.17.17 0 0 0-.169-.169H6.6a.17.17 0 0 0-.169.169v11.475a.17.17 0 0 0 .169.169h3.375a.17.17 0 0 0 .169-.169z"/></svg>