<svg width="24" height="24" viewBox="0 0 24 24" fill="none" xmlns="http://www.w3.org/2000/svg">
<path d="M11.5 5.92529V3.8999C11.5 3.62376 11.7239 3.3999 12 3.3999C12.2761 3.3999 12.5 3.62376 12.5 3.8999V5.92529C12.4998 6.20126 12.276 6.42529 12 6.42529C11.724 6.42529 11.5002 6.20126 11.5 5.92529Z" fill="black"/>
<path d="M11.5 20.1006V18.0752C11.5 17.7991 11.7239 17.5752 12 17.5752C12.2761 17.5752 12.5 17.7991 12.5 18.0752V20.1006C12.4998 20.3765 12.276 20.6006 12 20.6006C11.724 20.6006 11.5002 20.3765 11.5 20.1006Z" fill="black"/>
<path d="M11.5 13.3501V10.6499C11.5 10.3738 11.7239 10.1499 12 10.1499C12.2761 10.1499 12.5 10.3738 12.5 10.6499V13.3501C12.4999 13.6262 12.2761 13.8501 12 13.8501C11.7239 13.8501 11.5001 13.6262 11.5 13.3501Z" fill="black"/>
<path d="M17.8999 9.97461C17.8999 10.6235 17.374 11.1494 16.7251 11.1494H7.2749C6.62606 11.1493 6.1001 10.6235 6.1001 9.97461V6.59961C6.1002 5.95083 6.62612 5.42491 7.2749 5.4248H16.7251C17.374 5.4248 17.8998 5.95076 17.8999 6.59961V9.97461Z" fill="black"/>
<path d="M18.9246 14.0249C18.9245 13.9283 18.8463 13.8501 18.7498 13.8501H5.24976C5.15326 13.8502 5.07506 13.9284 5.07495 14.0249V17.3999C5.07495 17.4965 5.1532 17.5746 5.24976 17.5747H18.7498C18.8464 17.5747 18.9246 17.4966 18.9246 17.3999V14.0249ZM19.9246 17.3999C19.9246 18.0488 19.3987 18.5747 18.7498 18.5747H5.24976C4.60091 18.5746 4.07495 18.0488 4.07495 17.3999V14.0249C4.07506 13.3761 4.60098 12.8502 5.24976 12.8501H18.7498C19.3986 12.8501 19.9245 13.3761 19.9246 14.0249V17.3999Z" fill="black"/>
</svg>
