<svg viewBox="0 0 24 24" fill="none" xmlns="http://www.w3.org/2000/svg" width="24" height="24">
<path d="M3.285 3.09C3.285 2.759 3.016 2.49 2.685 2.49 2.354 2.49 2.085 2.759 2.085 3.09V20.91C2.085 21.241 2.354 21.51 2.685 21.51 3.016 21.51 3.285 21.241 3.285 20.91V3.09Z" fill="black"/>
<path d="M17.865 5.52C17.865 4.742 17.234 4.111 16.455 4.11H6.735C5.956 4.11 5.325 4.741 5.325 5.52V9.57C5.325 10.349 5.956 10.98 6.735 10.98H16.455C17.234 10.98 17.865 10.349 17.865 9.57V5.52Z" fill="black"/>
<path d="M20.505 14.221C20.621 14.221 20.715 14.315 20.715 14.43V18.48C20.715 18.596 20.621 18.69 20.505 18.69H6.734C6.619 18.69 6.525 18.596 6.525 18.48V14.43C6.525 14.315 6.619 14.221 6.734 14.221H20.505ZM6.734 13.021C5.956 13.021 5.325 13.652 5.325 14.43V18.48C5.325 19.259 5.956 19.89 6.734 19.89H20.505C21.284 19.89 21.915 19.259 21.915 18.48V14.43C21.915 13.652 21.284 13.021 20.505 13.021H6.734Z" fill="black"/>
</svg>