<svg viewBox="0 0 24 24" fill="none" xmlns="http://www.w3.org/2000/svg" width="24" height="24">
<path d="M18.503 12.925C18.835 12.925 19.103 12.656 19.103 12.325 19.103 11.993 18.835 11.725 18.503 11.725H5.497C5.165 11.725 4.897 11.993 4.897 12.325 4.897 12.656 5.165 12.925 5.497 12.925H18.503Z" fill="black"/>
<path d="M20.942 8.86C21.273 8.86 21.542 8.591 21.542 8.26 21.542 7.929 21.273 7.66 20.942 7.66H3.058C2.726 7.66 2.458 7.929 2.458 8.26 2.458 8.591 2.726 8.86 3.058 8.86H20.942Z" fill="black"/>
<path d="M18.503 4.795C18.835 4.795 19.103 4.527 19.103 4.195 19.103 3.864 18.835 3.595 18.503 3.595H5.497C5.165 3.595 4.897 3.864 4.897 4.195 4.897 4.527 5.165 4.795 5.497 4.795H18.503Z" fill="black"/>
</svg>