<svg viewBox="0 0 24 24" fill="none" xmlns="http://www.w3.org/2000/svg" width="24" height="24">
<path d="M4.71 12.6H2.28C1.949 12.6 1.68 12.331 1.68 12 1.68 11.669 1.949 11.4 2.28 11.4H4.71C5.042 11.4 5.31 11.669 5.31 12 5.31 12.331 5.042 12.6 4.71 12.6Z" fill="black"/>
<path d="M21.72 12.6H19.29C18.959 12.6 18.69 12.331 18.69 12 18.69 11.669 18.959 11.4 19.29 11.4H21.72C22.052 11.4 22.32 11.669 22.32 12 22.32 12.331 22.052 12.6 21.72 12.6Z" fill="black"/>
<path d="M13.62 12.6H10.38C10.049 12.6 9.78 12.331 9.78 12 9.78 11.669 10.049 11.4 10.38 11.4H13.62C13.951 11.4 14.22 11.669 14.22 12 14.22 12.331 13.951 12.6 13.62 12.6Z" fill="black"/>
<path d="M4.11 6.329C4.11 5.551 4.741 4.92 5.52 4.92H9.57C10.348 4.92 10.979 5.551 10.979 6.329V17.67C10.979 18.448 10.348 19.079 9.57 19.079H5.52C4.741 19.079 4.11 18.448 4.11 17.67V6.329ZM5.31 17.67C5.31 17.785 5.404 17.879 5.52 17.879H9.57C9.685 17.879 9.779 17.785 9.779 17.67V12.6H5.31V17.67Z" fill="black"/>
<path d="M13.021 3.9C13.021 3.121 13.652 2.49 14.43 2.49H18.48C19.259 2.491 19.89 3.122 19.89 3.9V20.1C19.89 20.878 19.259 21.509 18.48 21.51H14.43C13.652 21.51 13.021 20.879 13.021 20.1V3.9ZM14.221 20.1C14.221 20.216 14.315 20.31 14.43 20.31H18.48C18.596 20.309 18.69 20.216 18.69 20.1V12.6H14.221V20.1Z" fill="black"/>
</svg>