<svg viewBox="0 0 24 24" fill="none" xmlns="http://www.w3.org/2000/svg" width="24" height="24">
<path d="M21 22.795C21.331 22.795 21.6 23.064 21.6 23.395 21.6 23.727 21.331 23.995 21 23.995H3C2.669 23.995 2.4 23.727 2.4 23.395 2.4 23.064 2.669 22.795 3 22.795H21Z" fill="black"/>
<path d="M21 0.005C21.331 0.005 21.6 0.273 21.6 0.605 21.6 0.936 21.331 1.205 21 1.205L3 1.205C2.669 1.205 2.4 0.936 2.4 0.605 2.4 0.273 2.669 0.005 3 0.005L21 0.005Z" fill="black"/>
<path d="M9.905 3.6C10.371 3.6 10.754 3.954 10.8 4.407L10.805 4.5V19.5L10.8 19.593C10.757 20.016 10.42 20.352 9.997 20.395L9.905 20.4H5.705C5.208 20.4 4.805 19.997 4.805 19.5V4.5C4.805 4.003 5.208 3.6 5.705 3.6H9.905Z" fill="black"/>
<path d="M18.005 19.2V4.8H14.405V19.2H18.005ZM18.305 3.6C18.771 3.6 19.154 3.954 19.2 4.407L19.205 4.5V19.5L19.2 19.593C19.157 20.016 18.82 20.352 18.397 20.395L18.305 20.4H14.105C13.608 20.4 13.205 19.997 13.205 19.5V4.5C13.205 4.003 13.608 3.6 14.105 3.6H18.305Z" fill="black"/>
</svg>