<svg width="24" height="24" viewBox="0 0 24 24" fill="none" xmlns="http://www.w3.org/2000/svg">
<path d="M20.25 3.75H3.75M18.75 7.5V16.5C18.75 16.9142 18.4142 17.25 18 17.25H14.25C13.8358 17.25 13.5 16.9142 13.5 16.5V7.5C13.5 7.08579 13.8358 6.75 14.25 6.75H18C18.4142 6.75 18.75 7.08579 18.75 7.5ZM6 6.75H9.75C10.1642 6.75 10.5 7.08579 10.5 7.5V20.25C10.5 20.6642 10.1642 21 9.75 21H6C5.58579 21 5.25 20.6642 5.25 20.25V7.5C5.25 7.08579 5.58579 6.75 6 6.75Z" stroke="black" stroke-width="1.5" stroke-linecap="round" stroke-linejoin="round"/>
</svg>
