<svg viewBox="0 0 24 24" fill="none" xmlns="http://www.w3.org/2000/svg" width="24" height="24">
<path d="M23.4 6.246C23.731 6.246 24 6.515 24 6.846 24 7.177 23.731 7.446 23.4 7.446H0.6C0.269 7.446 0 7.177 0 6.846 0 6.515 0.269 6.246 0.6 6.246H23.4Z" fill="black"/>
<path d="M18.314 17.154C18.01 17.154 17.774 17.07 17.606 16.902 17.446 16.734 17.366 16.502 17.366 16.206V9.618C17.366 9.306 17.446 9.07 17.606 8.91 17.766 8.75 17.998 8.67 18.302 8.67 18.598 8.67 18.826 8.75 18.986 8.91 19.146 9.07 19.226 9.306 19.226 9.618V15.582H22.442C22.698 15.582 22.894 15.65 23.03 15.786 23.174 15.922 23.246 16.114 23.246 16.362 23.246 16.618 23.174 16.814 23.03 16.95 22.894 17.086 22.698 17.154 22.442 17.154H18.314Z" fill="black"/>
<path d="M11.435 17.154C11.131 17.154 10.895 17.07 10.727 16.902 10.567 16.734 10.487 16.502 10.487 16.206V9.618C10.487 9.306 10.567 9.07 10.727 8.91 10.887 8.75 11.119 8.67 11.423 8.67 11.719 8.67 11.947 8.75 12.107 8.91 12.267 9.07 12.347 9.306 12.347 9.618V15.582H15.563C15.819 15.582 16.015 15.65 16.151 15.786 16.295 15.922 16.367 16.114 16.367 16.362 16.367 16.618 16.295 16.814 16.151 16.95 16.015 17.086 15.819 17.154 15.563 17.154H11.435Z" fill="black"/>
<path d="M1.692 17.262C1.468 17.262 1.284 17.21 1.14 17.106 1.004 17.002 0.916 16.862 0.876 16.686 0.844 16.51 0.88 16.314 0.984 16.098L4.056 9.366C4.184 9.094 4.336 8.898 4.512 8.778 4.688 8.65 4.892 8.586 5.124 8.586 5.356 8.586 5.56 8.65 5.736 8.778 5.912 8.898 6.06 9.094 6.18 9.366L9.276 16.098C9.38 16.314 9.416 16.514 9.384 16.698 9.36 16.874 9.28 17.014 9.144 17.118 9.008 17.214 8.832 17.262 8.616 17.262 8.344 17.262 8.132 17.198 7.98 17.07 7.836 16.942 7.708 16.742 7.596 16.47L6.876 14.802 7.62 15.318H2.616L3.36 14.802 2.652 16.47C2.532 16.75 2.404 16.954 2.268 17.082 2.14 17.202 1.948 17.262 1.692 17.262ZM5.1 10.674L3.564 14.334 3.24 13.866H6.996L6.672 14.334 5.124 10.674H5.1Z" fill="black"/>
</svg>