<svg xmlns="http://www.w3.org/2000/svg" width="24" height="24" fill="currentColor" viewBox="0 0 24 24"><path d="M20.91 13.013a0.607 0.607 0 0 0-0.607 0.607c0 2.641-1.519 3.191-4.008 3.869-1.258 0.343-2.696 0.736-3.688 1.716v-7.408h3.443a0.607 0.607 0 0 0 0-1.214h-3.443V7.687a3.037 3.037 0 1 0-1.215 0v2.896H7.949a0.608 0.608 0 0 0 0 1.215h3.443v7.408c-0.991-0.982-2.43-1.373-3.688-1.716-2.489-0.677-4.008-1.228-4.008-3.869a0.608 0.608 0 0 0-1.216 0c0 3.703 2.718 4.446 4.902 5.041 2.489 0.677 4.008 1.228 4.008 3.869a0.608 0.608 0 0 0 1.216 0c0-2.641 1.519-3.192 4.008-3.869 2.184-0.595 4.902-1.338 4.902-5.041a0.607 0.607 0 0 0-0.607-0.607z m-10.733-8.303A1.823 1.823 0 1 1 12 6.533a1.824 1.824 0 0 1-1.823-1.823"/></svg>