<svg xmlns="http://www.w3.org/2000/svg" fill="currentColor" viewBox="0 0 24 24" width="24" height="24"><path d="M7.95 9.367h-4.86a0.607 0.607 0 0 1-0.607-0.607V3.9a0.608 0.608 0 0 1 1.215 0v3.394l1.823-1.823a9.48 9.48 0 0 1 6.683-2.788h0.053a9.456 9.456 0 0 1 6.649 2.705 0.607 0.607 0 0 1-0.848 0.869 8.304 8.304 0 0 0-11.673 0.073L4.558 8.153h3.393a0.608 0.608 0 0 1 0 1.215z m12.96 5.266h-4.86a0.607 0.607 0 0 0 0 1.214h3.394l-1.828 1.823a8.256 8.256 0 0 1-5.825 2.43h-0.047a8.256 8.256 0 0 1-5.8-2.363 0.607 0.607 0 0 0-0.849 0.869 9.456 9.456 0 0 0 6.649 2.71h0.053A9.48 9.48 0 0 0 18.48 18.528l1.823-1.828v3.4a0.607 0.607 0 0 0 1.214 0V15.24a0.607 0.607 0 0 0-0.607-0.607"/></svg>