<svg xmlns="http://www.w3.org/2000/svg" fill="currentColor" viewBox="0 0 24 24" width="24" height="24"><path d="M22.15 18.1l-3.24 3.24a0.607 0.607 0 0 1-0.86 0l-3.24-3.24a0.607 0.607 0 0 1 0.86-0.86l2.203 2.202v-6.379L12 7.19l-5.873 5.873v6.379l2.203-2.202a0.607 0.607 0 0 1 0.86 0.86l-3.24 3.24a0.607 0.607 0 0 1-0.86 0l-3.24-3.24a0.607 0.607 0 0 1 0.86-0.86l2.203 2.202v-6.632a0.6 0.6 0 0 1 0.179-0.43l6.302-6.302v-4.608a0.608 0.608 0 0 1 1.216 0v4.608l6.302 6.302a0.6 0.6 0 0 1 0.178 0.43v6.632l2.203-2.202a0.607 0.607 0 0 1 0.858 0.86z"/></svg>