<svg xmlns="http://www.w3.org/2000/svg" width="24" height="24" fill="currentColor" viewBox="0 0 24 24"><path d="M20.707 8.76a8.707 8.707 0 1 0-14.175 6.77v7.81a0.6 0.6 0 0 0 0.288 0.516 0.6 0.6 0 0 0 0.319 0.091 0.6 0.6 0 0 0 0.271-0.063l4.589-2.295 4.59 2.295a0.607 0.607 0 0 0 0.878-0.544v-7.81a8.7 8.7 0 0 0 3.24-6.77m-16.2 0A7.493 7.493 0 1 1 12 16.253 7.5 7.5 0 0 1 4.507 8.76m11.746 13.597l-3.982-1.991a0.6 0.6 0 0 0-0.542 0l-3.981 1.991v-6.003a8.688 8.688 0 0 0 8.505 0zM12 14.228a5.467 5.467 0 1 0-5.467-5.467A5.472 5.472 0 0 0 12 14.228m0-9.72a4.253 4.253 0 1 1-4.253 4.253A4.253 4.253 0 0 1 12 4.508"/></svg>