<svg xmlns="http://www.w3.org/2000/svg" width="128" height="128" fill="currentColor" viewBox="0 0 24 24"><path d="M12 15.206A3.206 3.206 0 1 0 8.794 12 3.206 3.206 0 0 0 12 15.206m0-5.4A2.194 2.194 0 1 1 9.806 12 2.194 2.194 0 0 1 12 9.806m9.45-3.713H2.55a.506.506 0 0 0-.506.506v10.8a.506.506 0 0 0 .506.506h18.9a.506.506 0 0 0 .506-.506v-10.8a.506.506 0 0 0-.506-.506M3.056 10.381a4.62 4.62 0 0 0 3.275-3.275h11.337a4.62 4.62 0 0 0 3.275 3.275v3.237a4.62 4.62 0 0 0-3.275 3.275H6.331a4.62 4.62 0 0 0-3.275-3.275zm17.888-1.057a3.61 3.61 0 0 1-2.218-2.218h2.218zM5.275 7.106a3.61 3.61 0 0 1-2.218 2.218V7.106zm-2.218 7.569a3.61 3.61 0 0 1 2.218 2.218H3.057zm15.669 2.218a3.61 3.61 0 0 1 2.218-2.218v2.218z"/></svg>