<svg xmlns="http://www.w3.org/2000/svg" width="24" height="24" fill="currentColor" viewBox="0 0 24 24"><path d="M22.327 3.9v4.05a0.607 0.607 0 0 1-1.214 0V4.507h-3.443a0.608 0.608 0 0 1 0-1.215H21.72a0.607 0.607 0 0 1 0.607 0.607zM6.33 19.493H2.887v-3.443a0.608 0.608 0 0 0-1.215 0v4.05a0.607 0.607 0 0 0 0.607 0.607h4.05a0.607 0.607 0 0 0 0-1.214zM21.72 15.443a0.607 0.607 0 0 0-0.607 0.607v3.443h-3.443a0.607 0.607 0 0 0 0 1.214H21.72a0.607 0.607 0 0 0 0.607-0.607v-4.05a0.607 0.607 0 0 0-0.607-0.607M2.28 8.557a0.607 0.607 0 0 0 0.607-0.607V4.507h3.443a0.608 0.608 0 0 0 0-1.215H2.28a0.607 0.607 0 0 0-0.607 0.607v4.05a0.607 0.607 0 0 0 0.607 0.607z m4.86-1.215a0.607 0.607 0 0 0-0.607 0.607v8.1a0.608 0.608 0 0 0 1.215 0v-8.1a0.607 0.607 0 0 0-0.607-0.607z m10.327 8.707v-8.1a0.608 0.608 0 0 0-1.215 0v8.1a0.607 0.607 0 0 0 1.214 0zM13.62 7.342a0.607 0.607 0 0 0-0.607 0.607v8.1a0.607 0.607 0 0 0 1.214 0v-8.1a0.607 0.607 0 0 0-0.607-0.607m-3.24 0a0.607 0.607 0 0 0-0.607 0.607v8.1a0.608 0.608 0 0 0 1.215 0v-8.1a0.607 0.607 0 0 0-0.607-0.607z"/></svg>