<svg width="24" height="24" viewBox="0 0 24 24" fill="none" xmlns="http://www.w3.org/2000/svg">
<path d="M13.549 7.9165V15.4165M10.549 7.9165V15.4165M6.80347 16.9194C6.38925 16.9194 6.05347 16.5836 6.05347 16.1694V8.6665C6.05347 8.25229 6.38925 7.9165 6.80347 7.9165C7.21768 7.9165 7.55347 8.25229 7.55347 8.6665V16.1694C7.55347 16.5836 7.21768 16.9194 6.80347 16.9194ZM17.2994 16.9194C16.8852 16.9194 16.5494 16.5836 16.5494 16.1694V8.6665C16.5494 8.25229 16.8852 7.9165 17.2994 7.9165C17.7137 7.9165 18.0494 8.25229 18.0494 8.6665V16.1694C18.0494 16.5836 17.7137 16.9194 17.2994 16.9194Z" stroke="black" stroke-width="1.5" stroke-linecap="round" stroke-linejoin="round"/>
</svg>
