<svg xmlns="http://www.w3.org/2000/svg" width="24" height="24" fill="currentColor" viewBox="0 0 24 24"><path d="M23.34 8.963h-3.443V8.76a0.607 0.607 0 0 0-0.607-0.607h-6.48a0.607 0.607 0 0 0-0.607 0.607v0.203H5.317V4.306a1.416 1.416 0 0 1 1.417-1.418 1.464 1.464 0 0 1 1.43 1.133 0.607 0.607 0 1 0 1.19-0.241 2.664 2.664 0 0 0-2.621-2.107 2.633 2.633 0 0 0-2.633 2.633v4.657H0.658a0.607 0.607 0 0 0-0.608 0.607v4.05a5.472 5.472 0 0 0 5.468 5.467h0.202v1.823a0.608 0.608 0 0 0 1.216 0v-1.823h10.126v1.823a0.607 0.607 0 0 0 1.214 0v-1.823h0.203a5.472 5.472 0 0 0 5.467-5.467V9.57a0.607 0.607 0 0 0-0.607-0.607z m-9.923 0.405h5.265v3.645h-5.265z m9.315 4.253a4.253 4.253 0 0 1-4.253 4.253h-12.96a4.253 4.253 0 0 1-4.253-4.253v-3.443h10.936v3.443a0.607 0.607 0 0 0 0.607 0.607h6.48a0.607 0.607 0 0 0 0.607-0.607v-3.443h2.836z"/></svg>