<svg xmlns="http://www.w3.org/2000/svg" width="24" height="24" fill="currentColor" viewBox="0 0 24 24"><path d="M10.396 11.429a3.646 3.646 0 0 0-2.243-6.516H2.28a0.607 0.607 0 0 0-0.607 0.607v12.96a0.607 0.607 0 0 0 0.607 0.607h6.277a4.05 4.05 0 0 0 1.837-7.658zM2.888 6.127h5.266a2.43 2.43 0 0 1 0 4.86H2.888z m5.67 11.746H2.888v-5.67h5.67a2.836 2.836 0 0 1 0 5.67M15.444 7.14a0.607 0.607 0 0 1 0.607-0.607h6.48a0.608 0.608 0 0 1 0 1.215h-6.48a0.607 0.607 0 0 1-0.607-0.607z m3.847 2.633a4.657 4.657 0 1 0 3.726 7.453 0.607 0.607 0 0 0-0.972-0.73 3.443 3.443 0 0 1-6.143-1.458h7.439a0.607 0.607 0 0 0 0.607-0.607 4.663 4.663 0 0 0-4.657-4.657z m-3.389 4.05a3.443 3.443 0 0 1 6.778 0z"/></svg>