<svg xmlns="http://www.w3.org/2000/svg" width="24" height="24" fill="currentColor" viewBox="0 0 24 24"><path d="M21.322 16.955c-0.574-0.986-1.424-3.768-1.425-7.385a7.897 7.897 0 1 0-15.795 0c0 3.619-0.852 6.4-1.426 7.385a1.417 1.417 0 0 0 1.223 2.132h4.301a3.847 3.847 0 0 0 7.593 0h4.306a1.417 1.417 0 0 0 1.221-2.132zM12 21.112a2.633 2.633 0 0 1-2.561-2.026h5.122A2.633 2.633 0 0 1 12 21.112m8.273-3.341a0.192 0.192 0 0 1-0.172 0.101H3.9a0.192 0.192 0 0 1-0.172-0.101 0.204 0.204 0 0 1 0-0.203c0.767-1.316 1.59-4.385 1.59-7.999a6.683 6.683 0 1 1 13.366 0c0 3.613 0.824 6.678 1.591 7.999a0.204 0.204 0 0 1 0 0.203z"/></svg>