<svg xmlns="http://www.w3.org/2000/svg" width="24" height="24" fill="currentColor" viewBox="0 0 24 24"><path d="M20.1 10.583a4.68 4.68 0 0 0-1.802 0.362l-2.81-4.818H18.48a1.013 1.013 0 0 1 1.013 1.013 0.607 0.607 0 0 0 1.214 0A2.227 2.227 0 0 0 18.48 4.913h-4.05a0.607 0.607 0 0 0-0.524 0.911l1.357 2.329H8.974L7.26 5.216a0.6 0.6 0 0 0-0.524-0.303H3.901a0.608 0.608 0 0 0 0 1.215h2.485L7.906 8.724l-1.778 2.428a4.68 4.68 0 1 0 0.981 0.717l1.461-1.995 3.312 5.67a0.6 0.6 0 0 0 0.526 0.303 0.6 0.6 0 0 0 0.304-0.083 0.607 0.607 0 0 0 0.218-0.83l-3.247-5.569h6.289l1.279 2.193a4.657 4.657 0 1 0 2.851-0.975zM7.343 15.24a3.443 3.443 0 1 1-1.937-3.095l-1.997 2.734a0.607 0.607 0 0 0 0.982 0.716l1.994-2.733a3.432 3.432 0 0 1 0.957 2.378z m12.757 3.443a3.443 3.443 0 0 1-2.227-6.061l1.703 2.922a0.6 0.6 0 0 0 0.525 0.303 0.6 0.6 0 0 0 0.304-0.083 0.607 0.607 0 0 0 0.218-0.83l-1.707-2.927a3.443 3.443 0 1 1 1.183 6.676z"/></svg>