<svg width="24" height="24" viewBox="0 0 24 24" fill="none" xmlns="http://www.w3.org/2000/svg">
<path d="M9.75 8.24902H14.25M21.5241 14.4663L17.4319 5.15505C17.0099 4.73313 16.4376 4.49609 15.8409 4.49609C15.2442 4.49609 14.672 4.73313 14.25 5.15505V15.7488M14.25 15.7488C14.25 17.8199 15.9289 19.499 18 19.499C20.0711 19.499 21.75 17.8201 21.75 15.749C21.75 13.678 20.0711 11.999 18 11.999C15.9289 11.999 14.25 13.6777 14.25 15.7488ZM9.75014 15.7488V5.15505C9.32818 4.73313 8.75591 4.49609 8.1592 4.49609C7.56249 4.49609 6.99021 4.73313 6.56826 5.15505L2.47607 14.4663M9.75014 15.7488C9.75014 17.8199 8.07107 19.499 6 19.499C3.92893 19.499 2.25 17.8201 2.25 15.749C2.25 13.678 3.92893 11.999 6 11.999C8.07107 11.999 9.75014 13.6777 9.75014 15.7488Z" stroke="black" stroke-width="1.5" stroke-linecap="round" stroke-linejoin="round"/>
</svg>
