<svg xmlns="http://www.w3.org/2000/svg" width="24" height="24" fill="currentColor" viewBox="0 0 24 24"><path d="M16.508 4.007a25.56 25.56 0 0 0-4.16-3.847 0.612 0.612 0 0 0-0.697 0 25.56 25.56 0 0 0-4.161 3.847c-2.747 3.16-4.199 6.484-4.198 9.613a8.707 8.707 0 0 0 17.415 0c0-3.13-1.452-6.454-4.199-9.613M12 21.112a7.5 7.5 0 0 1-7.493-7.493c0-6.036 5.974-11.029 7.493-12.202 1.519 1.172 7.493 6.166 7.493 12.202A7.5 7.5 0 0 1 12 21.112m5.46-6.581a5.628 5.628 0 0 1-4.548 4.548l-0.101 0.008a0.607 0.607 0 0 1-0.101-1.207c1.759-0.295 3.253-1.79 3.552-3.552a0.608 0.608 0 1 1 1.199 0.203z"/></svg>