<svg width="24" height="24" viewBox="0 0 24 24" fill="none" xmlns="http://www.w3.org/2000/svg">
<path d="M12 21.75C12 20.9544 11.6839 20.1913 11.1213 19.6287C10.5587 19.0661 9.79565 18.75 9 18.75H2.25V7.5H9C9.79565 7.5 10.5587 7.81607 11.1213 8.37868C11.6839 8.94129 12 9.70435 12 10.5C12 9.70435 12.3161 8.94129 12.8787 8.37868C13.4413 7.81607 14.2044 7.5 15 7.5H21.75V18.75H15C14.2044 18.75 13.4413 19.0661 12.8787 19.6287C12.3161 20.1913 12 20.9544 12 21.75ZM12 10.5V21.75M9 4.5C9.3493 4.03426 9.80224 3.65625 10.3229 3.3959C10.8437 3.13554 11.4178 3 12 3C12.5822 3 13.1563 3.13554 13.6771 3.3959C14.1978 3.65625 14.6507 4.03426 15 4.5" stroke="black" stroke-width="1.5" stroke-linecap="round" stroke-linejoin="round"/>
</svg>
