<svg width="24" height="24" viewBox="0 0 24 24" fill="none" xmlns="http://www.w3.org/2000/svg">
<path d="M12 21.75C12 20.9544 11.6839 20.1913 11.1213 19.6287C10.5587 19.0661 9.79565 18.75 9 18.75H2.25V5.25H9C9.79565 5.25 10.5587 5.56607 11.1213 6.12868C11.6839 6.69129 12 7.45435 12 8.25C12 7.45435 12.3161 6.69129 12.8787 6.12868C13.4413 5.56607 14.2044 5.25 15 5.25H21.75V18.75H15C14.2044 18.75 13.4413 19.0661 12.8787 19.6287C12.3161 20.1913 12 20.9544 12 21.75ZM12 8.25V21.75" stroke="black" stroke-width="1.5" stroke-linecap="round" stroke-linejoin="round"/>
</svg>
