<svg viewBox="0 0 24 24" fill="none" xmlns="http://www.w3.org/2000/svg" width="24" height="24">
<path d="M12.6 20.916C12.6 21.247 12.331 21.516 12 21.516 11.669 21.516 11.4 21.247 11.4 20.916L11.4 3.096C11.4 2.765 11.669 2.496 12 2.496 12.331 2.496 12.6 2.765 12.6 3.096L12.6 20.916Z" fill="black"/>
<path d="M20.91 12.6C20.579 12.6 20.31 12.331 20.31 12 20.31 11.669 20.579 11.4 20.91 11.4H20.916C21.248 11.4 21.516 11.669 21.516 12 21.516 12.331 21.248 12.6 20.916 12.6H20.91ZM17.941 12.6C17.61 12.6 17.341 12.331 17.341 12 17.341 11.669 17.61 11.4 17.941 11.4H17.953C18.284 11.4 18.553 11.669 18.553 12 18.553 12.331 18.284 12.6 17.953 12.6H17.941ZM14.97 12.6C14.639 12.6 14.37 12.331 14.37 12 14.37 11.669 14.639 11.4 14.97 11.4H14.982C15.313 11.4 15.582 11.669 15.582 12 15.582 12.331 15.313 12.6 14.982 12.6H14.97ZM12.001 12.6C11.669 12.6 11.401 12.331 11.401 12 11.401 11.669 11.669 11.4 12.001 11.4H12.012C12.344 11.4 12.612 11.669 12.612 12 12.612 12.331 12.344 12.6 12.012 12.6H12.001ZM9.03 12.6C8.699 12.6 8.43 12.331 8.43 12 8.43 11.669 8.699 11.4 9.03 11.4H9.042C9.373 11.4 9.642 11.669 9.642 12 9.642 12.331 9.373 12.6 9.042 12.6H9.03ZM6.06 12.6C5.729 12.6 5.46 12.331 5.46 12 5.46 11.669 5.729 11.4 6.06 11.4H6.072C6.404 11.4 6.672 11.669 6.672 12 6.672 12.331 6.404 12.6 6.072 12.6H6.06ZM3.097 12.6C2.765 12.6 2.497 12.331 2.497 12 2.497 11.669 2.765 11.4 3.097 11.4H3.103C3.434 11.4 3.703 11.669 3.703 12 3.703 12.331 3.434 12.6 3.103 12.6H3.097Z" fill="black"/>
<path d="M20.91 21.504C20.579 21.504 20.31 21.235 20.31 20.904 20.31 20.573 20.579 20.304 20.91 20.304H20.916C21.248 20.304 21.516 20.573 21.516 20.904 21.516 21.235 21.248 21.504 20.916 21.504H20.91ZM17.941 21.504C17.61 21.504 17.341 21.235 17.341 20.904 17.341 20.573 17.61 20.304 17.941 20.304H17.953C18.284 20.304 18.553 20.573 18.553 20.904 18.553 21.235 18.284 21.504 17.953 21.504H17.941ZM14.97 21.504C14.639 21.504 14.37 21.235 14.37 20.904 14.37 20.573 14.639 20.304 14.97 20.304H14.982C15.313 20.304 15.582 20.573 15.582 20.904 15.582 21.235 15.313 21.504 14.982 21.504H14.97ZM12.001 21.504C11.669 21.504 11.401 21.235 11.401 20.904 11.401 20.573 11.669 20.304 12.001 20.304H12.012C12.344 20.304 12.612 20.573 12.612 20.904 12.612 21.235 12.344 21.504 12.012 21.504H12.001ZM9.03 21.504C8.699 21.504 8.43 21.235 8.43 20.904 8.43 20.573 8.699 20.304 9.03 20.304H9.042C9.373 20.304 9.642 20.573 9.642 20.904 9.642 21.235 9.373 21.504 9.042 21.504H9.03ZM6.06 21.504C5.729 21.504 5.46 21.235 5.46 20.904 5.46 20.573 5.729 20.304 6.06 20.304H6.072C6.404 20.304 6.672 20.573 6.672 20.904 6.672 21.235 6.404 21.504 6.072 21.504H6.06ZM3.097 21.504C2.765 21.504 2.497 21.235 2.497 20.904 2.497 20.573 2.765 20.304 3.097 20.304H3.103C3.434 20.304 3.703 20.573 3.703 20.904 3.703 21.235 3.434 21.504 3.103 21.504H3.097Z" fill="black"/>
<path d="M20.91 3.696C20.579 3.696 20.31 3.427 20.31 3.096 20.31 2.765 20.579 2.496 20.91 2.496L20.916 2.496C21.248 2.496 21.516 2.765 21.516 3.096 21.516 3.427 21.248 3.696 20.916 3.696H20.91ZM17.941 3.696C17.61 3.696 17.341 3.427 17.341 3.096 17.341 2.765 17.61 2.496 17.941 2.496L17.953 2.496C18.284 2.496 18.553 2.765 18.553 3.096 18.553 3.427 18.284 3.696 17.953 3.696H17.941ZM14.97 3.696C14.639 3.696 14.37 3.427 14.37 3.096 14.37 2.765 14.639 2.496 14.97 2.496L14.982 2.496C15.313 2.496 15.582 2.765 15.582 3.096 15.582 3.427 15.313 3.696 14.982 3.696H14.97ZM12.001 3.696C11.669 3.696 11.4 3.427 11.4 3.096 11.4 2.765 11.669 2.496 12 2.496L12.012 2.496C12.344 2.496 12.612 2.765 12.612 3.096 12.612 3.427 12.344 3.696 12.012 3.696H12.001ZM9.03 3.696C8.699 3.696 8.43 3.427 8.43 3.096 8.43 2.765 8.699 2.496 9.03 2.496L9.042 2.496C9.373 2.496 9.642 2.765 9.642 3.096 9.642 3.427 9.373 3.696 9.042 3.696H9.03ZM6.06 3.696C5.729 3.696 5.46 3.427 5.46 3.096 5.46 2.765 5.729 2.496 6.06 2.496L6.072 2.496C6.404 2.496 6.672 2.765 6.672 3.096 6.672 3.427 6.404 3.696 6.072 3.696H6.06ZM3.097 3.696C2.765 3.696 2.497 3.427 2.497 3.096 2.497 2.765 2.765 2.496 3.097 2.496L3.103 2.496C3.434 2.496 3.703 2.765 3.703 3.096 3.703 3.427 3.434 3.696 3.103 3.696H3.097Z" fill="black"/>
<path d="M2.496 20.91C2.496 20.579 2.765 20.31 3.096 20.31 3.427 20.31 3.696 20.579 3.696 20.91V20.916C3.696 21.248 3.427 21.516 3.096 21.516 2.765 21.516 2.496 21.248 2.496 20.916L2.496 20.91ZM2.496 17.941C2.496 17.609 2.765 17.341 3.096 17.341 3.427 17.341 3.696 17.609 3.696 17.941V17.953C3.696 18.284 3.427 18.553 3.096 18.553 2.765 18.553 2.496 18.284 2.496 17.953L2.496 17.941ZM2.496 14.97C2.496 14.639 2.765 14.37 3.096 14.37 3.427 14.37 3.696 14.639 3.696 14.97V14.982C3.696 15.313 3.427 15.582 3.096 15.582 2.765 15.582 2.496 15.313 2.496 14.982L2.496 14.97ZM2.497 12C2.497 11.669 2.765 11.4 3.097 11.4 3.428 11.4 3.696 11.669 3.696 12.001V12.012C3.696 12.344 3.427 12.612 3.096 12.612 2.765 12.612 2.496 12.344 2.496 12.012L2.497 12ZM2.496 9.03C2.496 8.699 2.765 8.43 3.096 8.43 3.427 8.43 3.696 8.699 3.696 9.03V9.042C3.696 9.373 3.427 9.642 3.096 9.642 2.765 9.642 2.496 9.373 2.496 9.042L2.496 9.03ZM2.496 6.06C2.496 5.729 2.765 5.46 3.096 5.46 3.427 5.46 3.696 5.729 3.696 6.06V6.072C3.696 6.403 3.427 6.672 3.096 6.672 2.765 6.672 2.496 6.403 2.496 6.072L2.496 6.06ZM2.497 3.096C2.497 2.765 2.765 2.496 3.097 2.496 3.428 2.496 3.696 2.765 3.696 3.097V3.103C3.696 3.434 3.427 3.703 3.096 3.703 2.765 3.703 2.496 3.434 2.496 3.103L2.497 3.096Z" fill="black"/>
<path d="M20.304 20.91C20.304 20.579 20.573 20.31 20.904 20.31 21.235 20.31 21.504 20.579 21.504 20.91V20.916C21.504 21.248 21.235 21.516 20.904 21.516 20.573 21.516 20.304 21.248 20.304 20.916V20.91ZM20.304 17.941C20.304 17.609 20.573 17.341 20.904 17.341 21.235 17.341 21.504 17.609 21.504 17.941V17.953C21.504 18.284 21.235 18.553 20.904 18.553 20.573 18.553 20.304 18.284 20.304 17.953V17.941ZM20.304 14.97C20.304 14.639 20.573 14.37 20.904 14.37 21.235 14.37 21.504 14.639 21.504 14.97V14.982C21.504 15.313 21.235 15.582 20.904 15.582 20.573 15.582 20.304 15.313 20.304 14.982V14.97ZM20.304 12.001C20.304 11.669 20.573 11.401 20.904 11.401 21.235 11.401 21.504 11.669 21.504 12.001V12.012C21.504 12.344 21.235 12.612 20.904 12.612 20.573 12.612 20.304 12.344 20.304 12.012V12.001ZM20.304 9.03C20.304 8.699 20.573 8.43 20.904 8.43 21.235 8.43 21.504 8.699 21.504 9.03V9.042C21.504 9.373 21.235 9.642 20.904 9.642 20.573 9.642 20.304 9.373 20.304 9.042V9.03ZM20.304 6.06C20.304 5.729 20.573 5.46 20.904 5.46 21.235 5.46 21.504 5.729 21.504 6.06V6.072C21.504 6.403 21.235 6.672 20.904 6.672 20.573 6.672 20.304 6.403 20.304 6.072V6.06ZM20.304 3.097C20.304 2.765 20.573 2.497 20.904 2.497 21.235 2.497 21.504 2.765 21.504 3.097V3.103C21.504 3.434 21.235 3.703 20.904 3.703 20.573 3.703 20.304 3.434 20.304 3.103V3.097Z" fill="black"/>
</svg>