<svg width="24" height="24" viewBox="0 0 24 24" fill="none" xmlns="http://www.w3.org/2000/svg">
<path d="M4.58047 5.08008C4.30433 5.08008 4.08047 4.85622 4.08047 4.58008C4.08047 4.30394 4.30433 4.08008 4.58047 4.08008L19.4301 4.08008C19.7062 4.08008 19.9301 4.30394 19.9301 4.58008C19.9301 4.85622 19.7062 5.08008 19.4301 5.08008L4.58047 5.08008Z" fill="black"/>
<path d="M11.5001 19.4253C11.5001 19.1492 11.7239 18.9253 12.0001 18.9253C12.2762 18.9253 12.5001 19.1492 12.5001 19.4253V19.4302C12.5001 19.7063 12.2762 19.9302 12.0001 19.9302C11.7239 19.9302 11.5001 19.7063 11.5001 19.4302V19.4253ZM11.5001 16.9507C11.5001 16.6745 11.7239 16.4507 12.0001 16.4507C12.2762 16.4507 12.5001 16.6745 12.5001 16.9507V16.9605C12.4999 17.2364 12.2761 17.4605 12.0001 17.4605C11.7241 17.4605 11.5003 17.2364 11.5001 16.9605V16.9507ZM11.5001 14.4751C11.5002 14.199 11.724 13.9751 12.0001 13.9751C12.2762 13.9751 12.5 14.199 12.5001 14.4751V14.4849C12.5001 14.761 12.2762 14.9849 12.0001 14.9849C11.7239 14.9849 11.5001 14.761 11.5001 14.4849V14.4751ZM11.5001 12.0005C11.5001 11.7243 11.7239 11.5005 12.0001 11.5005C12.2762 11.5005 12.5001 11.7243 12.5001 12.0005V12.0103C12.5 12.2863 12.2762 12.5103 12.0001 12.5103C11.724 12.5103 11.5002 12.2863 11.5001 12.0103V12.0005ZM11.5001 9.5249C11.5003 9.24892 11.7241 9.0249 12.0001 9.0249C12.2761 9.0249 12.4999 9.24892 12.5001 9.5249V9.53467C12.5001 9.81081 12.2762 10.0347 12.0001 10.0347C11.7239 10.0347 11.5001 9.81081 11.5001 9.53467V9.5249ZM11.5001 7.05029C11.5001 6.77415 11.7239 6.55029 12.0001 6.55029C12.2762 6.55029 12.5001 6.77415 12.5001 7.05029V7.06006C12.5001 7.3362 12.2762 7.56006 12.0001 7.56006C11.7239 7.56006 11.5001 7.3362 11.5001 7.06006V7.05029ZM11.5001 4.58057C11.5001 4.30443 11.7239 4.08057 12.0001 4.08057C12.2762 4.08057 12.5001 4.30443 12.5001 4.58057V4.58545C12.4999 4.86143 12.2761 5.08545 12.0001 5.08545C11.7241 5.08545 11.5003 4.86143 11.5001 4.58545V4.58057Z" fill="black"/>
<path d="M4.0801 19.4253C4.0801 19.1492 4.30395 18.9253 4.5801 18.9253C4.85624 18.9253 5.0801 19.1492 5.0801 19.4253V19.4302C5.0801 19.7063 4.85624 19.9302 4.5801 19.9302C4.30395 19.9302 4.0801 19.7063 4.0801 19.4302L4.0801 19.4253ZM4.0801 16.9507C4.0801 16.6745 4.30395 16.4507 4.5801 16.4507C4.85624 16.4507 5.0801 16.6745 5.0801 16.9507V16.9605C5.07991 17.2364 4.85612 17.4605 4.5801 17.4605C4.30407 17.4605 4.08028 17.2364 4.0801 16.9605L4.0801 16.9507ZM4.0801 14.4751C4.08018 14.199 4.304 13.9751 4.5801 13.9751C4.85619 13.9751 5.08002 14.199 5.0801 14.4751V14.4849C5.0801 14.761 4.85624 14.9849 4.5801 14.9849C4.30395 14.9849 4.0801 14.761 4.0801 14.4849L4.0801 14.4751ZM4.0801 12.0005C4.0801 11.7243 4.30395 11.5005 4.5801 11.5005C4.85624 11.5005 5.0801 11.7243 5.0801 12.0005V12.0103C5.08002 12.2863 4.85619 12.5103 4.5801 12.5103C4.304 12.5103 4.08018 12.2863 4.0801 12.0103L4.0801 12.0005ZM4.0801 9.5249C4.08028 9.24892 4.30407 9.0249 4.5801 9.0249C4.85613 9.0249 5.07991 9.24892 5.0801 9.5249V9.53467C5.0801 9.81081 4.85624 10.0347 4.5801 10.0347C4.30395 10.0347 4.0801 9.81081 4.0801 9.53467L4.0801 9.5249ZM4.0801 7.05029C4.0801 6.77415 4.30395 6.55029 4.5801 6.55029C4.85624 6.55029 5.0801 6.77415 5.0801 7.05029V7.06006C5.0801 7.3362 4.85624 7.56006 4.5801 7.56006C4.30395 7.56006 4.0801 7.3362 4.0801 7.06006L4.0801 7.05029ZM4.08047 4.58008C4.08047 4.30394 4.30433 4.08008 4.58047 4.08008C4.85661 4.08008 5.0801 4.30443 5.0801 4.58057V4.58545C5.07991 4.86143 4.85612 5.08545 4.5801 5.08545C4.30407 5.08545 4.08028 4.86143 4.0801 4.58545L4.08047 4.58008Z" fill="black"/>
<path d="M18.9201 19.4253C18.9201 19.1492 19.1439 18.9253 19.4201 18.9253C19.6962 18.9253 19.9201 19.1492 19.9201 19.4253V19.4302C19.9201 19.7063 19.6962 19.9302 19.4201 19.9302C19.1439 19.9302 18.9201 19.7063 18.9201 19.4302V19.4253ZM18.9201 16.9507C18.9201 16.6745 19.1439 16.4507 19.4201 16.4507C19.6962 16.4507 19.9201 16.6745 19.9201 16.9507V16.9605C19.9199 17.2364 19.6961 17.4605 19.4201 17.4605C19.144 17.4605 18.9202 17.2364 18.9201 16.9605V16.9507ZM18.9201 14.4751C18.9201 14.199 19.144 13.9751 19.4201 13.9751C19.6962 13.9751 19.92 14.199 19.9201 14.4751V14.4849C19.9201 14.761 19.6962 14.9849 19.4201 14.9849C19.1439 14.9849 18.9201 14.761 18.9201 14.4849V14.4751ZM18.9201 12.0005C18.9201 11.7243 19.1439 11.5005 19.4201 11.5005C19.6962 11.5005 19.9201 11.7243 19.9201 12.0005V12.0103C19.92 12.2863 19.6962 12.5103 19.4201 12.5103C19.144 12.5103 18.9201 12.2863 18.9201 12.0103V12.0005ZM18.9201 9.5249C18.9202 9.24892 19.144 9.0249 19.4201 9.0249C19.6961 9.0249 19.9199 9.24892 19.9201 9.5249V9.53467C19.9201 9.81081 19.6962 10.0347 19.4201 10.0347C19.1439 10.0347 18.9201 9.81081 18.9201 9.53467V9.5249ZM18.9201 7.05029C18.9201 6.77415 19.1439 6.55029 19.4201 6.55029C19.6962 6.55029 19.9201 6.77415 19.9201 7.05029V7.06006C19.9201 7.3362 19.6962 7.56006 19.4201 7.56006C19.1439 7.56006 18.9201 7.3362 18.9201 7.06006V7.05029ZM18.9201 4.58057C18.9201 4.30443 19.1439 4.08057 19.4201 4.08057C19.6962 4.08057 19.9201 4.30443 19.9201 4.58057V4.58545C19.9199 4.86143 19.6961 5.08545 19.4201 5.08545C19.144 5.08545 18.9202 4.86143 18.9201 4.58545V4.58057Z" fill="black"/>
<path d="M4.58496 11.4952C4.8611 11.4952 5.08496 11.7191 5.08496 11.9952C5.08496 12.2714 4.8611 12.4952 4.58496 12.4952H4.58008C4.30394 12.4952 4.08008 12.2714 4.08008 11.9952C4.08008 11.7191 4.30394 11.4952 4.58008 11.4952H4.58496ZM7.05957 11.4952C7.33571 11.4952 7.55957 11.7191 7.55957 11.9952C7.55957 12.2714 7.33571 12.4952 7.05957 12.4952H7.0498C6.77382 12.4951 6.5498 12.2713 6.5498 11.9952C6.5498 11.7192 6.77382 11.4954 7.0498 11.4952H7.05957ZM9.53516 11.4952C9.81123 11.4953 10.0352 11.7191 10.0352 11.9952C10.0352 12.2713 9.81123 12.4952 9.53516 12.4952H9.52539C9.24925 12.4952 9.02539 12.2714 9.02539 11.9952C9.02539 11.7191 9.24925 11.4952 9.52539 11.4952H9.53516ZM12.0098 11.4952C12.2859 11.4952 12.5098 11.7191 12.5098 11.9952C12.5098 12.2714 12.2859 12.4952 12.0098 12.4952H12C11.7239 12.4952 11.5 12.2713 11.5 11.9952C11.5 11.7191 11.7239 11.4953 12 11.4952H12.0098ZM14.4854 11.4952C14.7613 11.4954 14.9854 11.7192 14.9854 11.9952C14.9854 12.2713 14.7613 12.4951 14.4854 12.4952H14.4756C14.1994 12.4952 13.9756 12.2714 13.9756 11.9952C13.9756 11.7191 14.1994 11.4952 14.4756 11.4952H14.4854ZM16.96 11.4952C17.2361 11.4952 17.46 11.7191 17.46 11.9952C17.46 12.2714 17.2361 12.4952 16.96 12.4952H16.9502C16.6741 12.4952 16.4502 12.2714 16.4502 11.9952C16.4502 11.7191 16.6741 11.4952 16.9502 11.4952H16.96ZM19.4297 11.4952C19.7058 11.4952 19.9297 11.7191 19.9297 11.9952C19.9297 12.2714 19.7058 12.4952 19.4297 12.4952H19.4248C19.1488 12.4951 18.9248 12.2713 18.9248 11.9952C18.9248 11.7192 19.1488 11.4954 19.4248 11.4952H19.4297Z" fill="black"/>
<path d="M4.58504 18.9201C4.86118 18.9201 5.08504 19.144 5.08504 19.4201C5.08504 19.6963 4.86118 19.9201 4.58504 19.9201H4.58016C4.30401 19.9201 4.08016 19.6963 4.08016 19.4201C4.08016 19.144 4.30401 18.9201 4.58016 18.9201H4.58504ZM7.05965 18.9201C7.33579 18.9201 7.55965 19.144 7.55965 19.4201C7.55965 19.6963 7.33579 19.9201 7.05965 19.9201H7.04988C6.7739 19.9199 6.54988 19.6962 6.54988 19.4201C6.54988 19.1441 6.7739 18.9203 7.04988 18.9201H7.05965ZM9.53523 18.9201C9.81131 18.9202 10.0352 19.144 10.0352 19.4201C10.0352 19.6962 9.81131 19.92 9.53523 19.9201H9.52547C9.24933 19.9201 9.02547 19.6963 9.02547 19.4201C9.02547 19.144 9.24933 18.9201 9.52547 18.9201H9.53523ZM12.0098 18.9201C12.286 18.9201 12.5098 19.144 12.5098 19.4201C12.5098 19.6963 12.286 19.9201 12.0098 19.9201H12.0001C11.724 19.92 11.5001 19.6962 11.5001 19.4201C11.5001 19.144 11.724 18.9202 12.0001 18.9201H12.0098ZM14.4854 18.9201C14.7614 18.9203 14.9854 19.1441 14.9854 19.4201C14.9854 19.6962 14.7614 19.9199 14.4854 19.9201H14.4757C14.1995 19.9201 13.9757 19.6963 13.9757 19.4201C13.9757 19.144 14.1995 18.9201 14.4757 18.9201H14.4854ZM16.96 18.9201C17.2362 18.9201 17.46 19.144 17.46 19.4201C17.46 19.6963 17.2362 19.9201 16.96 19.9201H16.9503C16.6741 19.9201 16.4503 19.6963 16.4503 19.4201C16.4503 19.144 16.6741 18.9201 16.9503 18.9201H16.96ZM19.4298 18.9201C19.7059 18.9201 19.9298 19.144 19.9298 19.4201C19.9298 19.6963 19.7059 19.9201 19.4298 19.9201H19.4249C19.1489 19.9199 18.9249 19.6962 18.9249 19.4201C18.9249 19.1441 19.1489 18.9203 19.4249 18.9201H19.4298Z" fill="black"/>
</svg>
