<svg width="24" height="24" viewBox="0 0 24 24" fill="none" xmlns="http://www.w3.org/2000/svg">
<path d="M3.75 18H20.25M5.25 9H18.75C19.5784 9 20.25 8.32843 20.25 7.5C20.25 6.67157 19.5784 6 18.75 6H5.25C4.42157 6 3.75 6.67157 3.75 7.5C3.75 8.32843 4.42157 9 5.25 9ZM4.5 14.2536H19.5C19.9142 14.2536 20.25 13.9178 20.25 13.5036C20.25 13.0894 19.9142 12.7536 19.5 12.7536H4.5C4.08579 12.7536 3.75 13.0894 3.75 13.5036C3.75 13.9178 4.08579 14.2536 4.5 14.2536Z" stroke="black" stroke-width="1.5" stroke-linecap="round" stroke-linejoin="round"/>
</svg>
