<svg viewBox="0 0 24 24" fill="none" xmlns="http://www.w3.org/2000/svg" width="24" height="24">
<path d="M3.697 20.1V3.9C3.697 3.844 3.718 3.791 3.758 3.751 3.797 3.712 3.851 3.69 3.906 3.69H20.106C20.162 3.69 20.216 3.712 20.255 3.751 20.295 3.791 20.316 3.844 20.316 3.9V12.005C20.316 12.336 20.585 12.605 20.916 12.605 21.248 12.605 21.516 12.336 21.516 12.005V3.9C21.516 3.526 21.368 3.167 21.104 2.903 20.839 2.638 20.48 2.49 20.106 2.49H3.906C3.533 2.49 3.174 2.638 2.909 2.903 2.645 3.167 2.497 3.526 2.497 3.9V20.1C2.497 20.474 2.645 20.833 2.909 21.097 3.174 21.362 3.532 21.51 3.906 21.51H10.462C10.793 21.51 11.062 21.241 11.062 20.91 11.062 20.579 10.793 20.31 10.462 20.31H3.906C3.851 20.31 3.797 20.288 3.758 20.249 3.718 20.209 3.697 20.156 3.697 20.1Z" fill="black"/>
<path d="M20.366 14.794C20.604 14.557 20.989 14.557 21.226 14.794 21.464 15.031 21.464 15.417 21.226 15.654L15.556 21.324C15.318 21.561 14.934 21.561 14.697 21.324L12.266 18.893C12.03 18.656 12.029 18.271 12.266 18.034 12.504 17.797 12.889 17.797 13.126 18.034L15.126 20.035 20.366 14.794Z" fill="black"/>
<path d="M20.91 12.6C20.579 12.6 20.31 12.331 20.31 12 20.31 11.669 20.579 11.4 20.91 11.4H20.916C21.248 11.4 21.516 11.669 21.516 12 21.516 12.331 21.248 12.6 20.916 12.6H20.91ZM17.941 12.6C17.61 12.6 17.341 12.331 17.341 12 17.341 11.669 17.61 11.4 17.941 11.4H17.953C18.284 11.4 18.553 11.669 18.553 12 18.553 12.331 18.284 12.6 17.953 12.6H17.941ZM14.97 12.6C14.639 12.6 14.37 12.331 14.37 12 14.37 11.669 14.639 11.4 14.97 11.4H14.982C15.313 11.4 15.582 11.669 15.582 12 15.582 12.331 15.313 12.6 14.982 12.6L14.97 12.6ZM12.001 12.6C11.669 12.6 11.401 12.331 11.401 12 11.401 11.669 11.669 11.4 12.001 11.4H12.012C12.344 11.4 12.612 11.669 12.612 12 12.612 12.331 12.344 12.6 12.012 12.6H12.001ZM9.03 12.6C8.699 12.6 8.43 12.331 8.43 12 8.43 11.669 8.699 11.4 9.03 11.4H9.042C9.373 11.4 9.642 11.669 9.642 12 9.642 12.331 9.373 12.6 9.042 12.6H9.03ZM6.06 12.6C5.729 12.6 5.46 12.331 5.46 12 5.46 11.669 5.729 11.4 6.06 11.4H6.072C6.404 11.4 6.672 11.669 6.672 12 6.672 12.331 6.404 12.6 6.072 12.6H6.06ZM3.097 12.6C2.765 12.6 2.497 12.331 2.497 12 2.497 11.669 2.765 11.4 3.097 11.4H3.103C3.434 11.4 3.703 11.669 3.703 12 3.703 12.331 3.434 12.6 3.103 12.6H3.097Z" fill="black"/>
<path d="M11.4 14.994C11.4 14.663 11.669 14.394 12 14.394 12.331 14.394 12.6 14.663 12.6 14.994V15C12.6 15.331 12.331 15.6 12 15.6 11.669 15.6 11.4 15.331 11.4 15V14.994ZM11.4 11.994C11.4 11.663 11.669 11.394 12 11.394 12.331 11.394 12.6 11.663 12.6 11.994V12.006C12.6 12.337 12.331 12.606 12 12.606 11.669 12.606 11.4 12.337 11.4 12.006V11.994ZM11.4 8.994C11.4 8.663 11.669 8.394 12 8.394 12.331 8.394 12.6 8.663 12.6 8.994V9.006C12.6 9.337 12.331 9.606 12 9.606 11.669 9.606 11.4 9.337 11.4 9.006V8.994ZM11.4 6C11.4 5.669 11.669 5.4 12 5.4 12.331 5.4 12.6 5.669 12.6 6V6.006C12.6 6.337 12.331 6.606 12 6.606 11.669 6.606 11.4 6.337 11.4 6.006V6Z" fill="black"/>
</svg>