<svg viewBox="0 0 24 24" fill="none" xmlns="http://www.w3.org/2000/svg" width="24" height="24">
<path d="M3.69 9.738C3.69 8.134 4.327 6.594 5.462 5.46 6.596 4.326 8.134 3.69 9.738 3.69 10.069 3.69 10.338 3.421 10.338 3.09 10.338 2.758 10.069 2.49 9.738 2.49 7.816 2.49 5.972 3.253 4.613 4.612 3.254 5.971 2.49 7.816 2.49 9.738 2.49 10.069 2.759 10.337 3.09 10.338 3.421 10.338 3.689 10.069 3.69 9.738Z" fill="black"/>
<path d="M14.262 3.69C15.866 3.69 17.405 4.327 18.539 5.462 19.673 6.596 20.31 8.134 20.31 9.738 20.31 10.069 20.578 10.338 20.91 10.338 21.241 10.338 21.51 10.069 21.51 9.738 21.51 7.816 20.747 5.972 19.388 4.613 18.028 3.254 16.184 2.49 14.262 2.49 13.931 2.49 13.662 2.759 13.662 3.09 13.662 3.421 13.931 3.689 14.262 3.69Z" fill="black"/>
<path d="M20.31 14.262C20.31 15.866 19.673 17.405 18.538 18.539 17.404 19.673 15.866 20.31 14.262 20.31 13.931 20.31 13.662 20.578 13.662 20.91 13.662 21.241 13.931 21.51 14.262 21.51 16.184 21.51 18.028 20.747 19.387 19.388 20.746 18.028 21.51 16.184 21.51 14.262 21.51 13.931 21.241 13.662 20.91 13.662 20.579 13.662 20.311 13.931 20.31 14.262Z" fill="black"/>
<path d="M3.69 14.262C3.69 15.866 4.327 17.405 5.462 18.539 6.596 19.673 8.134 20.31 9.738 20.31 10.069 20.31 10.338 20.578 10.338 20.91 10.338 21.241 10.069 21.51 9.738 21.51 7.816 21.51 5.972 20.747 4.613 19.388 3.254 18.028 2.49 16.184 2.49 14.262 2.49 13.931 2.759 13.662 3.09 13.662 3.421 13.662 3.689 13.931 3.69 14.262Z" fill="black"/>
</svg>