<svg width="24" height="24" viewBox="0 0 24 24" fill="none" xmlns="http://www.w3.org/2000/svg">
<path d="M3.75 7.51105C3.75 7.09643 4.08611 6.76032 4.50073 6.76032C4.91535 6.76032 5.25146 7.09643 5.25146 7.51105V16.5096C5.25146 16.9242 4.91535 17.2603 4.50073 17.2603C4.08611 17.2603 3.75 16.9242 3.75 16.5096V7.51105Z" fill="black"/>
<path d="M7.5 3.75L18 3.75M7.5 20.25L18 20.25M21 6.75L21 17.25M4.50073 17.2603C4.08611 17.2603 3.75 16.9242 3.75 16.5096V7.51105C3.75 7.09643 4.08611 6.76032 4.50073 6.76032C4.91535 6.76032 5.25146 7.09643 5.25146 7.51105V16.5096C5.25146 16.9242 4.91535 17.2603 4.50073 17.2603Z" stroke="black" stroke-width="1.5" stroke-linecap="round"/>
</svg>
