<svg width="24" height="24" viewBox="0 0 24 24" fill="none" xmlns="http://www.w3.org/2000/svg">
<path d="M19.4297 18.92C19.7059 18.92 19.9297 19.1438 19.9297 19.42C19.9297 19.6961 19.7059 19.92 19.4297 19.92L4.58011 19.92C4.30396 19.92 4.08011 19.6961 4.08011 19.42C4.08011 19.1438 4.30396 18.92 4.58011 18.92L19.4297 18.92Z" fill="black"/>
<path d="M12.5001 4.58496C12.5001 4.8611 12.2762 5.08496 12.0001 5.08496C11.7239 5.08496 11.5001 4.8611 11.5001 4.58496V4.58008C11.5001 4.30394 11.7239 4.08008 12.0001 4.08008C12.2762 4.08008 12.5001 4.30394 12.5001 4.58008V4.58496ZM12.5001 7.05957C12.5001 7.33571 12.2762 7.55957 12.0001 7.55957C11.7239 7.55957 11.5001 7.33571 11.5001 7.05957V7.0498C11.5003 6.77382 11.7241 6.5498 12.0001 6.5498C12.2761 6.5498 12.4999 6.77382 12.5001 7.0498V7.05957ZM12.5001 9.53516C12.5 9.81123 12.2762 10.0352 12.0001 10.0352C11.724 10.0352 11.5002 9.81123 11.5001 9.53516V9.52539C11.5001 9.24925 11.7239 9.02539 12.0001 9.02539C12.2762 9.02539 12.5001 9.24925 12.5001 9.52539V9.53516ZM12.5001 12.0098C12.5001 12.2859 12.2762 12.5098 12.0001 12.5098C11.7239 12.5098 11.5001 12.2859 11.5001 12.0098V12C11.5002 11.7239 11.724 11.5 12.0001 11.5C12.2762 11.5 12.5 11.7239 12.5001 12V12.0098ZM12.5001 14.4854C12.4999 14.7613 12.2761 14.9854 12.0001 14.9854C11.7241 14.9854 11.5003 14.7613 11.5001 14.4854V14.4756C11.5001 14.1994 11.7239 13.9756 12.0001 13.9756C12.2762 13.9756 12.5001 14.1994 12.5001 14.4756V14.4854ZM12.5001 16.96C12.5001 17.2361 12.2762 17.46 12.0001 17.46C11.7239 17.46 11.5001 17.2361 11.5001 16.96V16.9502C11.5001 16.6741 11.7239 16.4502 12.0001 16.4502C12.2762 16.4502 12.5001 16.6741 12.5001 16.9502V16.96ZM12.5001 19.4297C12.5001 19.7058 12.2762 19.9297 12.0001 19.9297C11.7239 19.9297 11.5001 19.7058 11.5001 19.4297V19.4248C11.5003 19.1488 11.7241 18.9248 12.0001 18.9248C12.2761 18.9248 12.4999 19.1488 12.5001 19.4248V19.4297Z" fill="black"/>
<path d="M19.9201 4.58496C19.9201 4.8611 19.6962 5.08496 19.4201 5.08496C19.1439 5.08496 18.9201 4.8611 18.9201 4.58496V4.58008C18.9201 4.30394 19.1439 4.08008 19.4201 4.08008C19.6962 4.08008 19.9201 4.30394 19.9201 4.58008V4.58496ZM19.9201 7.05957C19.9201 7.33571 19.6962 7.55957 19.4201 7.55957C19.1439 7.55957 18.9201 7.33571 18.9201 7.05957V7.0498C18.9203 6.77382 19.1441 6.5498 19.4201 6.5498C19.6961 6.5498 19.9199 6.77382 19.9201 7.0498V7.05957ZM19.9201 9.53516C19.92 9.81123 19.6962 10.0352 19.4201 10.0352C19.144 10.0352 18.9202 9.81123 18.9201 9.53516V9.52539C18.9201 9.24925 19.1439 9.02539 19.4201 9.02539C19.6962 9.02539 19.9201 9.24925 19.9201 9.52539V9.53516ZM19.9201 12.0098C19.9201 12.2859 19.6962 12.5098 19.4201 12.5098C19.1439 12.5098 18.9201 12.2859 18.9201 12.0098V12C18.9202 11.7239 19.144 11.5 19.4201 11.5C19.6962 11.5 19.92 11.7239 19.9201 12V12.0098ZM19.9201 14.4854C19.9199 14.7613 19.6961 14.9854 19.4201 14.9854C19.1441 14.9854 18.9203 14.7613 18.9201 14.4854V14.4756C18.9201 14.1994 19.1439 13.9756 19.4201 13.9756C19.6962 13.9756 19.9201 14.1994 19.9201 14.4756V14.4854ZM19.9201 16.96C19.9201 17.2361 19.6962 17.46 19.4201 17.46C19.1439 17.46 18.9201 17.2361 18.9201 16.96V16.9502C18.9201 16.6741 19.1439 16.4502 19.4201 16.4502C19.6962 16.4502 19.9201 16.6741 19.9201 16.9502V16.96ZM19.9201 19.4297C19.9201 19.7058 19.6962 19.9297 19.4201 19.9297C19.1439 19.9297 18.9201 19.7058 18.9201 19.4297L18.9201 19.4248C18.9203 19.1488 19.1441 18.9248 19.4201 18.9248C19.6961 18.9248 19.9199 19.1488 19.9201 19.4248L19.9201 19.4297Z" fill="black"/>
<path d="M5.08008 4.58496C5.08008 4.8611 4.85622 5.08496 4.58008 5.08496C4.30394 5.08496 4.08008 4.8611 4.08008 4.58496L4.08008 4.58008C4.08008 4.30394 4.30394 4.08008 4.58008 4.08008C4.85622 4.08008 5.08008 4.30394 5.08008 4.58008V4.58496ZM5.08008 7.05957C5.08008 7.33571 4.85622 7.55957 4.58008 7.55957C4.30394 7.55957 4.08008 7.33571 4.08008 7.05957L4.08008 7.0498C4.08027 6.77382 4.30405 6.5498 4.58008 6.5498C4.85611 6.5498 5.0799 6.77382 5.08008 7.0498V7.05957ZM5.08008 9.53516C5.08 9.81123 4.85617 10.0352 4.58008 10.0352C4.30399 10.0352 4.08016 9.81123 4.08008 9.53516L4.08008 9.52539C4.08008 9.24925 4.30394 9.02539 4.58008 9.02539C4.85622 9.02539 5.08008 9.24925 5.08008 9.52539V9.53516ZM5.08008 12.0098C5.08008 12.2859 4.85622 12.5098 4.58008 12.5098C4.30394 12.5098 4.08008 12.2859 4.08008 12.0098L4.08008 12C4.08016 11.7239 4.30399 11.5 4.58008 11.5C4.85617 11.5 5.08 11.7239 5.08008 12V12.0098ZM5.08008 14.4854C5.07989 14.7613 4.85611 14.9854 4.58008 14.9854C4.30405 14.9854 4.08026 14.7613 4.08008 14.4854L4.08008 14.4756C4.08008 14.1994 4.30394 13.9756 4.58008 13.9756C4.85622 13.9756 5.08008 14.1994 5.08008 14.4756V14.4854ZM5.08008 16.96C5.08008 17.2361 4.85622 17.46 4.58008 17.46C4.30394 17.46 4.08008 17.2361 4.08008 16.96L4.08008 16.9502C4.08008 16.6741 4.30394 16.4502 4.58008 16.4502C4.85622 16.4502 5.08008 16.6741 5.08008 16.9502V16.96ZM5.08008 19.4297C5.08008 19.7058 4.85622 19.9297 4.58008 19.9297C4.30394 19.9297 4.08008 19.7058 4.08008 19.4297L4.08008 19.4248C4.08026 19.1488 4.30405 18.9248 4.58008 18.9248C4.85611 18.9248 5.07989 19.1488 5.08008 19.4248V19.4297Z" fill="black"/>
<path d="M19.4253 12.5001C19.1492 12.5001 18.9253 12.2762 18.9253 12.0001C18.9253 11.7239 19.1492 11.5001 19.4253 11.5001H19.4302C19.7063 11.5001 19.9302 11.7239 19.9302 12.0001C19.9302 12.2762 19.7063 12.5001 19.4302 12.5001H19.4253ZM16.9507 12.5C16.6746 12.5 16.4507 12.2762 16.4507 12C16.4507 11.7239 16.6746 11.5001 16.9507 11.5001H16.9605C17.2365 11.5002 17.4605 11.724 17.4605 12.0001C17.4605 12.2761 17.2365 12.4999 16.9605 12.5H16.9507ZM14.4751 12.5C14.1991 12.5 13.9751 12.2761 13.9751 12C13.9751 11.724 14.1991 11.5001 14.4751 11.5H14.4849C14.761 11.5 14.9849 11.7239 14.9849 12C14.9849 12.2762 14.761 12.5 14.4849 12.5H14.4751ZM12.0005 12.5C11.7244 12.5 11.5001 12.2761 11.5001 12C11.5002 11.7239 11.724 11.5 12.0001 11.5L12.0103 11.5C12.2864 11.5001 12.5103 11.724 12.5103 12C12.5103 12.2761 12.2864 12.5 12.0103 12.5H12.0005ZM9.52493 12.5C9.24895 12.4999 9.02493 12.2761 9.02493 12C9.02493 11.724 9.24895 11.5002 9.52493 11.5H9.5347C9.81084 11.5 10.0347 11.7239 10.0347 12C10.0347 12.2762 9.81084 12.5 9.5347 12.5H9.52493ZM7.05032 12.5C6.77418 12.5 6.55032 12.2762 6.55032 12C6.55032 11.7239 6.77418 11.5 7.05032 11.5H7.06009C7.33623 11.5 7.56009 11.7239 7.56009 12C7.56009 12.2762 7.33623 12.5 7.06009 12.5H7.05032ZM4.5806 12.5C4.30445 12.5 4.08008 12.2761 4.08008 12C4.08016 11.7239 4.30399 11.5 4.58008 11.5L4.58548 11.5C4.86146 11.5002 5.08548 11.724 5.08548 12C5.08548 12.2761 4.86146 12.4999 4.58548 12.5H4.5806Z" fill="black"/>
<path d="M19.4253 5.08013C19.1492 5.08013 18.9253 4.85627 18.9253 4.58013C18.9253 4.30399 19.1492 4.08013 19.4253 4.08013L19.4302 4.08013C19.7063 4.08013 19.9302 4.30399 19.9302 4.58013C19.9302 4.85627 19.7063 5.08013 19.4302 5.08013H19.4253ZM16.9507 5.08013C16.6746 5.08013 16.4507 4.85627 16.4507 4.58013C16.4507 4.30399 16.6746 4.08013 16.9507 4.08013L16.9605 4.08013C17.2365 4.08031 17.4605 4.3041 17.4605 4.58013C17.4605 4.85616 17.2365 5.07994 16.9605 5.08013H16.9507ZM14.4751 5.08013C14.1991 5.08005 13.9751 4.85622 13.9751 4.58013C13.9751 4.30403 14.1991 4.08021 14.4751 4.08013L14.4849 4.08013C14.761 4.08013 14.9849 4.30399 14.9849 4.58013C14.9849 4.85627 14.761 5.08013 14.4849 5.08013H14.4751ZM12.0005 5.08013C11.7244 5.08013 11.5001 4.85622 11.5001 4.58008C11.5001 4.30394 11.7239 4.08008 12.0001 4.08008L12.0103 4.08013C12.2864 4.08021 12.5103 4.30403 12.5103 4.58013C12.5103 4.85622 12.2864 5.08005 12.0103 5.08013H12.0005ZM9.52493 5.08013C9.24895 5.07994 9.02493 4.85616 9.02493 4.58013C9.02493 4.3041 9.24895 4.08031 9.52493 4.08013L9.5347 4.08013C9.81084 4.08013 10.0347 4.30398 10.0347 4.58013C10.0347 4.85627 9.81084 5.08013 9.5347 5.08013H9.52493ZM7.05032 5.08013C6.77418 5.08013 6.55032 4.85627 6.55032 4.58013C6.55032 4.30398 6.77418 4.08013 7.05032 4.08013L7.06009 4.08013C7.33623 4.08013 7.56009 4.30398 7.56009 4.58013C7.56009 4.85627 7.33623 5.08013 7.06009 5.08013H7.05032ZM4.5806 5.08013C4.30445 5.08013 4.08008 4.85622 4.08008 4.58008C4.08008 4.30394 4.30394 4.08008 4.58008 4.08008L4.58548 4.08013C4.86146 4.08031 5.08548 4.3041 5.08548 4.58013C5.08548 4.85615 4.86146 5.07994 4.58548 5.08013H4.5806Z" fill="black"/>
</svg>
