<svg width="24" height="24" viewBox="0 0 24 24" fill="none" xmlns="http://www.w3.org/2000/svg">
<path d="M5.08057 18.75V5.25C5.08062 5.20366 5.09857 5.15875 5.13135 5.12598C5.16415 5.09328 5.20905 5.0752 5.25537 5.0752H18.7554C18.8017 5.07525 18.8466 5.0932 18.8794 5.12598C18.9122 5.15875 18.9301 5.20366 18.9302 5.25V12.0039C18.9302 12.28 19.154 12.5039 19.4302 12.5039C19.7063 12.5039 19.9302 12.28 19.9302 12.0039V5.25C19.9301 4.93844 19.8067 4.63925 19.5864 4.41895C19.3661 4.19864 19.0669 4.07525 18.7554 4.0752H5.25537C4.94383 4.0752 4.64465 4.19871 4.42432 4.41895C4.20401 4.63926 4.08062 4.93844 4.08057 5.25V18.75C4.08057 19.0616 4.20396 19.3607 4.42432 19.5811C4.64467 19.8014 4.94374 19.9248 5.25537 19.9248H10.7183C10.9944 19.9248 11.2183 19.7009 11.2183 19.4248C11.2181 19.1488 10.9943 18.9248 10.7183 18.9248H5.25537C5.20896 18.9248 5.16417 18.9068 5.13135 18.874C5.09853 18.8412 5.08057 18.7964 5.08057 18.75Z" fill="black"/>
<path d="M18.9719 14.3283C19.1696 14.1306 19.491 14.1306 19.6887 14.3283C19.8864 14.526 19.8864 14.8474 19.6887 15.0451L14.9631 19.7697C14.7654 19.9673 14.4449 19.9674 14.2473 19.7697L12.2219 17.7443C12.0246 17.5466 12.0244 17.2261 12.2219 17.0285C12.4196 16.8308 12.741 16.8308 12.9387 17.0285L14.6047 18.6955L18.9719 14.3283Z" fill="black"/>
<path d="M19.4254 12.5C19.1492 12.5 18.9254 12.2761 18.9254 12C18.9254 11.7239 19.1492 11.5 19.4254 11.5H19.4303C19.7064 11.5 19.9303 11.7239 19.9303 12C19.9303 12.2761 19.7064 12.5 19.4303 12.5H19.4254ZM16.9508 12.5C16.6746 12.5 16.4508 12.2761 16.4508 12C16.4508 11.7239 16.6746 11.5 16.9508 11.5H16.9605C17.2365 11.5002 17.4605 11.724 17.4605 12C17.4605 12.276 17.2365 12.4998 16.9605 12.5H16.9508ZM14.4752 12.5C14.1991 12.4999 13.9752 12.2761 13.9752 12C13.9752 11.7239 14.1991 11.5001 14.4752 11.5H14.485C14.7611 11.5 14.985 11.7239 14.985 12C14.985 12.2761 14.7611 12.5 14.485 12.5L14.4752 12.5ZM12.0006 12.5C11.7244 12.5 11.5006 12.2761 11.5006 12C11.5006 11.7239 11.7244 11.5 12.0006 11.5H12.0104C12.2864 11.5001 12.5104 11.7239 12.5104 12C12.5104 12.2761 12.2864 12.4999 12.0104 12.5H12.0006ZM9.525 12.5C9.24901 12.4998 9.025 12.276 9.025 12C9.025 11.724 9.24901 11.5002 9.525 11.5H9.53477C9.81091 11.5 10.0348 11.7239 10.0348 12C10.0348 12.2761 9.81091 12.5 9.53477 12.5H9.525ZM7.05039 12.5C6.77425 12.5 6.55039 12.2761 6.55039 12C6.55039 11.7239 6.77425 11.5 7.05039 11.5H7.06016C7.3363 11.5 7.56016 11.7239 7.56016 12C7.56016 12.2761 7.3363 12.5 7.06016 12.5H7.05039ZM4.58066 12.5C4.30452 12.5 4.08066 12.2761 4.08066 12C4.08066 11.7239 4.30452 11.5 4.58066 11.5H4.58555C4.86153 11.5002 5.08555 11.724 5.08555 12C5.08555 12.276 4.86153 12.4998 4.58555 12.5H4.58066Z" fill="black"/>
<path d="M11.5001 14.4951C11.5001 14.219 11.724 13.9951 12.0001 13.9951C12.2762 13.9951 12.5001 14.219 12.5001 14.4951V14.5C12.5001 14.7761 12.2762 15 12.0001 15C11.724 15 11.5001 14.7761 11.5001 14.5V14.4951ZM11.5001 11.9951C11.5001 11.719 11.724 11.4951 12.0001 11.4951C12.2762 11.4951 12.5001 11.719 12.5001 11.9951V12.0049C12.5001 12.281 12.2762 12.5049 12.0001 12.5049C11.724 12.5049 11.5001 12.281 11.5001 12.0049V11.9951ZM11.5001 9.49512C11.5001 9.21898 11.724 8.99512 12.0001 8.99512C12.2762 8.99512 12.5001 9.21898 12.5001 9.49512V9.50488C12.5001 9.78102 12.2762 10.0049 12.0001 10.0049C11.724 10.0049 11.5001 9.78102 11.5001 9.50488V9.49512ZM11.5001 7C11.5001 6.72386 11.724 6.5 12.0001 6.5C12.2762 6.5 12.5001 6.72386 12.5001 7V7.00488C12.5001 7.28103 12.2762 7.50488 12.0001 7.50488C11.724 7.50488 11.5001 7.28103 11.5001 7.00488V7Z" fill="black"/>
</svg>
