<svg width="24" height="24" viewBox="0 0 24 24" fill="none" xmlns="http://www.w3.org/2000/svg">
<path d="M12.005 3.75384L12 3.75384M14.7519 3.75384L14.7469 3.75384M17.505 3.75384L17.5 3.75384M20.255 3.75384L20.25 3.75384M9.25183 3.75384L9.24683 3.75384M6.505 3.75384L6.5 3.75384M3.755 3.75384L3.75 3.75384M12.005 20.2499H12M12.005 20.2499V20.2524M12.005 20.2499V20.248M14.7519 20.2499H14.7469M17.505 20.2499H17.5M20.255 20.2499H20.25M20.255 20.2499V20.2524M20.255 20.2499V20.2474M9.25183 20.2499H9.24683M6.505 20.2499H6.5M3.755 20.2499H3.75M3.755 20.2499V20.2524M3.755 20.2499V20.2474M12.005 11.9999H12M12.005 11.9999V12.0024M12.005 11.9999V11.9974M14.7519 11.9999H14.7469M17.505 11.9999H17.5M20.255 11.9999H20.25M20.255 11.9999V12.0024M20.255 11.9999V11.9974M9.25183 11.9999H9.24683M6.505 11.9999H6.5M3.755 11.9999H3.75M3.755 11.9974V11.9999L3.755 12.0024M20.255 14.7494V14.7444M20.255 17.5024V17.4974M20.255 9.24926V9.24426M20.255 6.50244V6.49744M20.255 3.75244V3.74744M12.005 14.7494V14.7444M12.005 17.5024V17.4974M3.75687 20.248H12.005L20.2531 20.248M12.005 9.24926V9.24426M12.005 6.50244V6.49744M12.005 3.75244V3.74744M3.755 14.7494L3.755 14.7444M3.755 17.5024L3.755 17.4974M3.755 9.24926L3.755 9.24426M3.755 6.50244L3.755 6.49744M3.755 3.75244L3.755 3.74744" stroke="black" stroke-width="1.5" stroke-linecap="round" stroke-linejoin="round"/>
</svg>
