<svg width="24" height="24" viewBox="0 0 24 24" fill="none" xmlns="http://www.w3.org/2000/svg">
<path d="M19.4253 12.5C19.1492 12.5 18.9253 12.2761 18.9253 12C18.9253 11.7239 19.1492 11.5 19.4253 11.5H19.4302C19.7063 11.5 19.9302 11.7239 19.9302 12C19.9302 12.2761 19.7063 12.5 19.4302 12.5H19.4253ZM16.9507 12.5C16.6745 12.5 16.4507 12.2761 16.4507 12C16.4507 11.7239 16.6745 11.5 16.9507 11.5H16.9604C17.2364 11.5002 17.4604 11.724 17.4604 12C17.4604 12.276 17.2364 12.4998 16.9604 12.5H16.9507ZM14.4751 12.5C14.199 12.4999 13.9751 12.2761 13.9751 12C13.9751 11.7239 14.199 11.5001 14.4751 11.5H14.4849C14.761 11.5 14.9849 11.7239 14.9849 12C14.9849 12.2761 14.761 12.5 14.4849 12.5H14.4751ZM12.0005 12.5C11.7243 12.5 11.5005 12.2761 11.5005 12C11.5005 11.7239 11.7243 11.5 12.0005 11.5H12.0103C12.2863 11.5001 12.5103 11.7239 12.5103 12C12.5103 12.2761 12.2863 12.4999 12.0103 12.5H12.0005ZM9.5249 12.5C9.24892 12.4998 9.0249 12.276 9.0249 12C9.0249 11.724 9.24892 11.5002 9.5249 11.5H9.53467C9.81081 11.5 10.0347 11.7239 10.0347 12C10.0347 12.2761 9.81081 12.5 9.53467 12.5H9.5249ZM7.05029 12.5C6.77415 12.5 6.55029 12.2761 6.55029 12C6.55029 11.7239 6.77415 11.5 7.05029 11.5H7.06006C7.3362 11.5 7.56006 11.7239 7.56006 12C7.56006 12.2761 7.3362 12.5 7.06006 12.5H7.05029ZM4.58057 12.5C4.30442 12.5 4.08057 12.2761 4.08057 12C4.08057 11.7239 4.30442 11.5 4.58057 11.5H4.58545C4.86143 11.5002 5.08545 11.724 5.08545 12C5.08545 12.276 4.86143 12.4998 4.58545 12.5H4.58057Z" fill="black"/>
<path d="M11.5 19.4253C11.5 19.1492 11.7239 18.9253 12 18.9253C12.2761 18.9253 12.5 19.1492 12.5 19.4253V19.4302C12.5 19.7063 12.2761 19.9302 12 19.9302C11.7239 19.9302 11.5 19.7063 11.5 19.4302V19.4253ZM11.5 16.9507C11.5 16.6745 11.7239 16.4507 12 16.4507C12.2761 16.4507 12.5 16.6745 12.5 16.9507V16.9604C12.4998 17.2364 12.276 17.4604 12 17.4604C11.724 17.4604 11.5002 17.2364 11.5 16.9604V16.9507ZM11.5 14.4751C11.5001 14.199 11.7239 13.9751 12 13.9751C12.2761 13.9751 12.4999 14.199 12.5 14.4751V14.4849C12.5 14.761 12.2761 14.9849 12 14.9849C11.7239 14.9849 11.5 14.761 11.5 14.4849V14.4751ZM11.5005 12C11.5005 11.7239 11.7243 11.5 12.0005 11.5C12.2766 11.5 12.5 11.7243 12.5 12.0005V12.0103C12.4999 12.2863 12.2761 12.5103 12 12.5103C11.7239 12.5103 11.5001 12.2863 11.5 12.0103L11.5005 12ZM11.5 9.5249C11.5002 9.24892 11.724 9.0249 12 9.0249C12.276 9.0249 12.4998 9.24892 12.5 9.5249V9.53467C12.5 9.81081 12.2761 10.0347 12 10.0347C11.7239 10.0347 11.5 9.81081 11.5 9.53467V9.5249ZM11.5 7.05029C11.5 6.77415 11.7239 6.55029 12 6.55029C12.2761 6.55029 12.5 6.77415 12.5 7.05029V7.06006C12.5 7.3362 12.2761 7.56006 12 7.56006C11.7239 7.56006 11.5 7.3362 11.5 7.06006V7.05029ZM11.5 4.58057C11.5 4.30442 11.7239 4.08057 12 4.08057C12.2761 4.08057 12.5 4.30442 12.5 4.58057V4.58545C12.4998 4.86143 12.276 5.08545 12 5.08545C11.724 5.08545 11.5002 4.86143 11.5 4.58545V4.58057Z" fill="black"/>
<path d="M4.08008 19.4253C4.08008 19.1492 4.30394 18.9253 4.58008 18.9253C4.85622 18.9253 5.08008 19.1492 5.08008 19.4253V19.4302C5.08008 19.7063 4.85622 19.9302 4.58008 19.9302C4.30394 19.9302 4.08008 19.7063 4.08008 19.4302L4.08008 19.4253ZM4.08008 16.9507C4.08008 16.6745 4.30394 16.4507 4.58008 16.4507C4.85622 16.4507 5.08008 16.6745 5.08008 16.9507V16.9604C5.07989 17.2364 4.85611 17.4604 4.58008 17.4604C4.30405 17.4604 4.08026 17.2364 4.08008 16.9604L4.08008 16.9507ZM4.08008 14.4751C4.08016 14.199 4.30399 13.9751 4.58008 13.9751C4.85617 13.9751 5.08 14.199 5.08008 14.4751V14.4849C5.08008 14.761 4.85622 14.9849 4.58008 14.9849C4.30394 14.9849 4.08008 14.761 4.08008 14.4849L4.08008 14.4751ZM4.08057 12C4.08057 11.7239 4.30442 11.5 4.58057 11.5C4.85671 11.5 5.08008 11.7243 5.08008 12.0005V12.0103C5.08 12.2863 4.85617 12.5103 4.58008 12.5103C4.30399 12.5103 4.08016 12.2863 4.08008 12.0103L4.08057 12ZM4.08008 9.5249C4.08027 9.24892 4.30405 9.0249 4.58008 9.0249C4.85611 9.0249 5.0799 9.24892 5.08008 9.5249V9.53467C5.08008 9.81081 4.85622 10.0347 4.58008 10.0347C4.30394 10.0347 4.08008 9.81081 4.08008 9.53467L4.08008 9.5249ZM4.08008 7.05029C4.08008 6.77415 4.30394 6.55029 4.58008 6.55029C4.85622 6.55029 5.08008 6.77415 5.08008 7.05029V7.06006C5.08008 7.3362 4.85622 7.56006 4.58008 7.56006C4.30394 7.56006 4.08008 7.3362 4.08008 7.06006L4.08008 7.05029ZM4.08008 4.58057C4.08008 4.30442 4.30394 4.08057 4.58008 4.08057C4.85623 4.08057 5.08008 4.30442 5.08008 4.58057V4.58545C5.0799 4.86143 4.85611 5.08545 4.58008 5.08545C4.30406 5.08545 4.08027 4.86143 4.08008 4.58545L4.08008 4.58057Z" fill="black"/>
<path d="M18.9199 19.4253C18.9199 19.1492 19.1438 18.9253 19.4199 18.9253C19.6961 18.9253 19.9199 19.1492 19.9199 19.4253V19.4302C19.9199 19.7063 19.6961 19.9302 19.4199 19.9302C19.1438 19.9302 18.9199 19.7063 18.9199 19.4302V19.4253ZM18.9199 16.9507C18.9199 16.6745 19.1438 16.4507 19.4199 16.4507C19.6961 16.4507 19.9199 16.6745 19.9199 16.9507V16.9604C19.9197 17.2364 19.696 17.4604 19.4199 17.4604C19.1439 17.4604 18.9201 17.2364 18.9199 16.9604V16.9507ZM18.9199 14.4751C18.92 14.199 19.1438 13.9751 19.4199 13.9751C19.696 13.9751 19.9198 14.199 19.9199 14.4751V14.4849C19.9199 14.761 19.6961 14.9849 19.4199 14.9849C19.1438 14.9849 18.9199 14.761 18.9199 14.4849V14.4751ZM18.9199 12.0005C18.9199 11.7243 19.1438 11.5005 19.4199 11.5005C19.6961 11.5005 19.9199 11.7243 19.9199 12.0005V12.0103C19.9198 12.2863 19.696 12.5103 19.4199 12.5103C19.1438 12.5103 18.92 12.2863 18.9199 12.0103V12.0005ZM18.9199 9.5249C18.9201 9.24892 19.1439 9.0249 19.4199 9.0249C19.696 9.0249 19.9197 9.24892 19.9199 9.5249V9.53467C19.9199 9.81081 19.6961 10.0347 19.4199 10.0347C19.1438 10.0347 18.9199 9.81081 18.9199 9.53467V9.5249ZM18.9199 7.05029C18.9199 6.77415 19.1438 6.55029 19.4199 6.55029C19.6961 6.55029 19.9199 6.77415 19.9199 7.05029V7.06006C19.9199 7.3362 19.6961 7.56006 19.4199 7.56006C19.1438 7.56006 18.9199 7.3362 18.9199 7.06006V7.05029ZM18.9199 4.58057C18.9199 4.30442 19.1438 4.08057 19.4199 4.08057C19.6961 4.08057 19.9199 4.30442 19.9199 4.58057V4.58545C19.9197 4.86143 19.696 5.08545 19.4199 5.08545C19.1439 5.08545 18.9201 4.86143 18.9199 4.58545V4.58057Z" fill="black"/>
<path d="M4.58496 4.08008C4.8611 4.08008 5.08496 4.30394 5.08496 4.58008C5.08496 4.85622 4.8611 5.08008 4.58496 5.08008H4.58008C4.30394 5.08008 4.08008 4.85671 4.08008 4.58057C4.08008 4.30442 4.30394 4.08057 4.58008 4.08057L4.58496 4.08008ZM7.05957 4.08008C7.33571 4.08008 7.55957 4.30394 7.55957 4.58008C7.55957 4.85622 7.33571 5.08008 7.05957 5.08008H7.0498C6.77382 5.07989 6.5498 4.85611 6.5498 4.58008C6.5498 4.30405 6.77382 4.08026 7.0498 4.08008L7.05957 4.08008ZM9.53516 4.08008C9.81123 4.08016 10.0352 4.30399 10.0352 4.58008C10.0352 4.85617 9.81123 5.08 9.53516 5.08008L9.52539 5.08008C9.24925 5.08008 9.02539 4.85622 9.02539 4.58008C9.02539 4.30394 9.24925 4.08008 9.52539 4.08008L9.53516 4.08008ZM12.0098 4.08008C12.2859 4.08008 12.5098 4.30394 12.5098 4.58008C12.5098 4.85622 12.2859 5.08008 12.0098 5.08008H12C11.7239 5.08 11.5 4.85666 11.5 4.58057C11.5 4.30442 11.7239 4.08057 12 4.08057L12.0098 4.08008ZM14.4854 4.08008C14.7613 4.08027 14.9854 4.30405 14.9854 4.58008C14.9854 4.85611 14.7613 5.0799 14.4854 5.08008H14.4756C14.1994 5.08008 13.9756 4.85622 13.9756 4.58008C13.9756 4.30394 14.1994 4.08008 14.4756 4.08008L14.4854 4.08008ZM16.96 4.08008C17.2361 4.08008 17.46 4.30394 17.46 4.58008C17.46 4.85623 17.2361 5.08008 16.96 5.08008H16.9502C16.6741 5.08008 16.4502 4.85622 16.4502 4.58008C16.4502 4.30394 16.6741 4.08008 16.9502 4.08008L16.96 4.08008ZM19.4297 4.08008C19.7058 4.08008 19.9297 4.30394 19.9297 4.58008C19.9297 4.85623 19.7058 5.08008 19.4297 5.08008H19.4248C19.1488 5.0799 18.9248 4.85611 18.9248 4.58008C18.9248 4.30406 19.1488 4.08027 19.4248 4.08008L19.4297 4.08008Z" fill="black"/>
<path d="M4.58496 18.9199C4.8611 18.9199 5.08496 19.1438 5.08496 19.4199C5.08496 19.6961 4.8611 19.9199 4.58496 19.9199H4.58008C4.30394 19.9199 4.08008 19.6961 4.08008 19.4199C4.08008 19.1438 4.30394 18.9199 4.58008 18.9199H4.58496ZM7.05957 18.9199C7.33571 18.9199 7.55957 19.1438 7.55957 19.4199C7.55957 19.6961 7.33571 19.9199 7.05957 19.9199H7.0498C6.77382 19.9197 6.5498 19.696 6.5498 19.4199C6.5498 19.1439 6.77382 18.9201 7.0498 18.9199H7.05957ZM9.53516 18.9199C9.81123 18.92 10.0352 19.1438 10.0352 19.4199C10.0352 19.696 9.81123 19.9198 9.53516 19.9199H9.52539C9.24925 19.9199 9.02539 19.6961 9.02539 19.4199C9.02539 19.1438 9.24925 18.9199 9.52539 18.9199H9.53516ZM12.0098 18.9199C12.2859 18.9199 12.5098 19.1438 12.5098 19.4199C12.5098 19.6961 12.2859 19.9199 12.0098 19.9199H12C11.7239 19.9198 11.5 19.696 11.5 19.4199C11.5 19.1438 11.7239 18.92 12 18.9199H12.0098ZM14.4854 18.9199C14.7613 18.9201 14.9854 19.1439 14.9854 19.4199C14.9854 19.696 14.7613 19.9197 14.4854 19.9199H14.4756C14.1994 19.9199 13.9756 19.6961 13.9756 19.4199C13.9756 19.1438 14.1994 18.9199 14.4756 18.9199H14.4854ZM16.96 18.9199C17.2361 18.9199 17.46 19.1438 17.46 19.4199C17.46 19.6961 17.2361 19.9199 16.96 19.9199H16.9502C16.6741 19.9199 16.4502 19.6961 16.4502 19.4199C16.4502 19.1438 16.6741 18.9199 16.9502 18.9199H16.96ZM19.4297 18.9199C19.7058 18.9199 19.9297 19.1438 19.9297 19.4199C19.9297 19.6961 19.7058 19.9199 19.4297 19.9199H19.4248C19.1488 19.9197 18.9248 19.696 18.9248 19.4199C18.9248 19.1439 19.1488 18.9201 19.4248 18.9199H19.4297Z" fill="black"/>
</svg>
