<svg xmlns="http://www.w3.org/2000/svg" width="24" height="24" fill="currentColor" viewBox="0 0 24 24"><path d="M21.913 6.612L17.388 2.087a1.416 1.416 0 0 0-2.005 0L2.897 14.572a1.416 1.416 0 0 0-0.415 1.002v4.525a1.416 1.416 0 0 0 1.417 1.417h17.01a0.607 0.607 0 0 0 0-1.214h-10.683l11.687-11.686a1.416 1.416 0 0 0 0-2.005zM8.509 20.302H3.9a0.204 0.204 0 0 1-0.203-0.203v-4.525a0.204 0.204 0 0 1 0.06-0.143l9.053-9.053 4.812 4.811zM21.054 7.757L18.48 10.331 13.669 5.52l2.573-2.573a0.204 0.204 0 0 1 0.287 0l4.525 4.524a0.204 0.204 0 0 1 0 0.287z"/></svg>