<svg viewBox="0 0 24 24" fill="none" xmlns="http://www.w3.org/2000/svg" width="24" height="24">
<path d="M17.4 18C17.4 17.998 17.4 17.996 17.4 17.994 17.4 17.663 17.669 17.394 18 17.394 18.331 17.394 18.6 17.663 18.6 17.994 18.6 17.996 18.6 17.998 18.6 18 18.6 18.331 18.331 18.6 18 18.6 17.669 18.6 17.4 18.331 17.4 18ZM17.445 14.386C17.764 14.3 18.093 14.49 18.179 14.81 18.18 14.814 18.182 14.819 18.183 14.823 18.268 15.143 18.077 15.472 17.757 15.558 17.438 15.643 17.109 15.452 17.024 15.132 17.023 15.129 17.021 15.125 17.02 15.122 16.934 14.802 17.124 14.472 17.445 14.386ZM16.13 11.625C16.416 11.459 16.783 11.558 16.949 11.844 16.951 11.848 16.954 11.852 16.956 11.856 17.121 12.143 17.022 12.51 16.736 12.675 16.449 12.84 16.082 12.742 15.916 12.455 15.915 12.452 15.912 12.448 15.911 12.445 15.745 12.158 15.843 11.791 16.13 11.625ZM14.145 9.298C14.379 9.063 14.759 9.064 14.993 9.298L15.002 9.307C15.236 9.541 15.237 9.921 15.002 10.155 14.768 10.39 14.387 10.39 14.153 10.155 14.151 10.154 14.151 10.152 14.149 10.151 14.148 10.149 14.146 10.149 14.145 10.147 13.91 9.913 13.91 9.532 14.145 9.298ZM11.625 7.564C11.79 7.278 12.157 7.179 12.444 7.344 12.448 7.346 12.452 7.349 12.456 7.351 12.742 7.517 12.841 7.884 12.675 8.17 12.509 8.457 12.142 8.555 11.855 8.389 11.852 8.388 11.848 8.385 11.845 8.384 11.558 8.218 11.46 7.852 11.625 7.564ZM9.477 6.117C9.481 6.118 9.486 6.12 9.49 6.121 9.81 6.207 10 6.536 9.914 6.855 9.828 7.176 9.498 7.366 9.178 7.28 9.175 7.279 9.171 7.277 9.168 7.276 8.848 7.191 8.657 6.863 8.742 6.543 8.828 6.223 9.157 6.032 9.477 6.117ZM6.306 5.7C6.637 5.7 6.906 5.969 6.906 6.3 6.906 6.631 6.637 6.9 6.306 6.9 6.304 6.9 6.302 6.9 6.3 6.9 5.969 6.9 5.7 6.631 5.7 6.3 5.7 5.969 5.969 5.7 6.3 5.7 6.302 5.7 6.304 5.7 6.306 5.7Z" fill="black"/>
</svg>