<svg xmlns="http://www.w3.org/2000/svg" width="24" height="24" fill="currentColor" viewBox="0 0 24 24"><path d="M18.75 9.131a1.18 1.18 0 0 0 1.181-1.181v-2.7a1.18 1.18 0 0 0-1.181-1.181h-2.7a1.18 1.18 0 0 0-1.181 1.181v.844H9.131V5.25A1.18 1.18 0 0 0 7.95 4.069h-2.7A1.18 1.18 0 0 0 4.069 5.25v2.7A1.18 1.18 0 0 0 5.25 9.131h.844v5.738H5.25a1.18 1.18 0 0 0-1.181 1.181v2.7a1.18 1.18 0 0 0 1.181 1.181h2.7a1.18 1.18 0 0 0 1.181-1.181v-.844h5.738v.844a1.18 1.18 0 0 0 1.181 1.181h2.7a1.18 1.18 0 0 0 1.181-1.181v-2.7a1.18 1.18 0 0 0-1.181-1.181h-.844V9.131zM15.881 5.25a.17.17 0 0 1 .169-.169h2.7a.17.17 0 0 1 .169.169v2.7a.17.17 0 0 1-.169.169h-2.7a.17.17 0 0 1-.169-.169zm-10.8 2.7v-2.7a.17.17 0 0 1 .169-.169h2.7a.17.17 0 0 1 .169.169v2.7a.17.17 0 0 1-.169.169h-2.7a.17.17 0 0 1-.169-.169m3.038 10.8a.17.17 0 0 1-.169.169h-2.7a.17.17 0 0 1-.169-.169v-2.7a.17.17 0 0 1 .169-.169h2.7a.17.17 0 0 1 .169.169zm10.8-2.7v2.7a.17.17 0 0 1-.169.169h-2.7a.17.17 0 0 1-.169-.169v-2.7a.17.17 0 0 1 .169-.169h2.7a.17.17 0 0 1 .169.169m-2.025-1.181h-.844a1.18 1.18 0 0 0-1.181 1.181v.844H9.131v-.844a1.18 1.18 0 0 0-1.181-1.181h-.844V9.131h.844A1.18 1.18 0 0 0 9.131 7.95v-.844h5.738v.844a1.18 1.18 0 0 0 1.181 1.181h.844z"/></svg>