<svg width="24" height="24" viewBox="0 0 24 24" fill="none" xmlns="http://www.w3.org/2000/svg">
<path d="M6 15.75V8.25M15.75 18H8.25M18 8.25V15.75M8.25 6H15.75M16.5 3.75H19.5C19.9142 3.75 20.25 4.08579 20.25 4.5V7.5C20.25 7.91421 19.9142 8.25 19.5 8.25H16.5C16.0858 8.25 15.75 7.91421 15.75 7.5V4.5C15.75 4.08579 16.0858 3.75 16.5 3.75ZM4.5 3.75H7.5C7.91421 3.75 8.25 4.08579 8.25 4.5V7.5C8.25 7.91421 7.91421 8.25 7.5 8.25H4.5C4.08579 8.25 3.75 7.91421 3.75 7.5V4.5C3.75 4.08579 4.08579 3.75 4.5 3.75ZM16.5 15.75H19.5C19.9142 15.75 20.25 16.0858 20.25 16.5V19.5C20.25 19.9142 19.9142 20.25 19.5 20.25H16.5C16.0858 20.25 15.75 19.9142 15.75 19.5V16.5C15.75 16.0858 16.0858 15.75 16.5 15.75ZM4.5 15.75H7.5C7.91421 15.75 8.25 16.0858 8.25 16.5V19.5C8.25 19.9142 7.91421 20.25 7.5 20.25H4.5C4.08579 20.25 3.75 19.9142 3.75 19.5V16.5C3.75 16.0858 4.08579 15.75 4.5 15.75Z" stroke="black" stroke-width="1.5" stroke-linecap="round" stroke-linejoin="round"/>
</svg>
