<svg width="24" height="24" viewBox="0 0 24 24" fill="none" xmlns="http://www.w3.org/2000/svg">
<path d="M8.25 12.75C8.99168 12.75 9.7167 12.9699 10.3334 13.382C10.9501 13.794 11.4307 14.3797 11.7145 15.0649C11.9984 15.7502 12.0726 16.5042 11.9279 17.2316C11.7833 17.959 11.4261 18.6272 10.9017 19.1516C10.3772 19.6761 9.70902 20.0332 8.98159 20.1779C8.25416 20.3226 7.50016 20.2484 6.81494 19.9645C6.12971 19.6807 5.54404 19.2001 5.13199 18.5834C4.71993 17.9667 4.5 17.2417 4.5 16.5V15.8691M15.75 12.75C15.0083 12.75 14.2833 12.9699 13.6666 13.382C13.0499 13.794 12.5693 14.3797 12.2855 15.0649C12.0016 15.7502 11.9274 16.5042 12.0721 17.2316C12.2168 17.959 12.5739 18.6272 13.0984 19.1516C13.6228 19.6761 14.291 20.0332 15.0184 20.1779C15.7458 20.3226 16.4998 20.2484 17.1851 19.9645C17.8703 19.6807 18.456 19.2001 18.868 18.5834C19.2801 17.9667 19.5 17.2417 19.5 16.5V15.8691M6.75014 16.125H6.00014C4.93789 16.126 3.90955 15.7511 3.09711 15.0668C2.28466 14.3825 1.74049 13.4328 1.56089 12.3858C1.38129 11.3389 1.57784 10.2622 2.11577 9.34618C2.65369 8.43021 3.49831 7.73407 4.50014 7.38094V6.75C4.50014 5.75544 4.89522 4.80161 5.59849 4.09835C6.30175 3.39509 7.25557 3 8.25014 3C9.2447 3 10.1985 3.39509 10.9018 4.09835C11.605 4.80161 12.0001 5.75544 12.0001 6.75M12.0001 6.75V16.5M12.0001 6.75C12.0001 5.75544 12.3951 4.80161 13.0983 4.09835C13.8016 3.39509 14.7554 3 15.75 3C16.7446 3 17.6984 3.39509 18.4016 4.09835C19.1049 4.80161 19.5 5.75544 19.5 6.75V7.38094C20.5018 7.73407 21.3464 8.43021 21.8844 9.34618C22.4223 10.2622 22.6188 11.3389 22.4392 12.3858C22.2596 13.4328 21.7155 14.3825 20.903 15.0668C20.0906 15.7511 19.0622 16.126 18 16.125H17.25M18.75 10.5H18.375C17.6788 10.5 17.0111 10.2234 16.5188 9.73116C16.0266 9.23887 15.75 8.57119 15.75 7.875V7.5M5.25 10.5H5.625C6.32119 10.5 6.98887 10.2234 7.48116 9.73116C7.97344 9.23887 8.25 8.57119 8.25 7.875V7.5" stroke="black" stroke-width="1.5" stroke-linecap="round" stroke-linejoin="round"/>
</svg>
