<svg xmlns="http://www.w3.org/2000/svg" width="24" height="24" fill="currentColor" viewBox="0 0 24 24"><path d="M11.393 3.09V0.66a0.608 0.608 0 0 1 1.215 0v2.43a0.607 0.607 0 0 1-1.214 0zM18.277 12A6.277 6.277 0 1 1 12 5.723 6.284 6.284 0 0 1 18.277 12m-1.214 0A5.063 5.063 0 1 0 12 17.063 5.069 5.069 0 0 0 17.063 12M5.09 5.95a0.607 0.607 0 1 0 0.86-0.86l-1.62-1.62a0.607 0.607 0 0 0-0.86 0.86z m0 12.102l-1.62 1.62a0.607 0.607 0 1 0 0.86 0.858l1.62-1.62a0.607 0.607 0 1 0-0.86-0.86zM18.48 6.128a0.6 0.6 0 0 0 0.43-0.178l1.62-1.62a0.607 0.607 0 0 0-0.858-0.86l-1.62 1.62a0.607 0.607 0 0 0 0.429 1.037z m0.43 11.924a0.607 0.607 0 0 0-0.86 0.859l1.62 1.62a0.607 0.607 0 0 0 0.858-0.858zM3.697 12.001a0.607 0.607 0 0 0-0.607-0.607H0.66a0.608 0.608 0 0 0 0 1.216h2.43a0.607 0.607 0 0 0 0.607-0.608zM12 20.304a0.607 0.607 0 0 0-0.607 0.607v2.43a0.608 0.608 0 0 0 1.215 0v-2.43a0.607 0.607 0 0 0-0.607-0.607z m11.34-8.91h-2.43a0.607 0.607 0 0 0 0 1.214h2.43a0.607 0.607 0 0 0 0-1.214"/></svg>