<svg viewBox="0 0 24 24" fill="none" xmlns="http://www.w3.org/2000/svg" width="24" height="24">
<path d="M18.455 7.356C18.124 7.356 17.855 7.625 17.855 7.956 17.855 8.287 18.124 8.556 18.455 8.556H20.106C20.222 8.556 20.316 8.65 20.316 8.766V20.106C20.316 20.222 20.222 20.316 20.106 20.316H8.766C8.65 20.316 8.556 20.222 8.556 20.106V18.456C8.556 18.125 8.288 17.856 7.956 17.856 7.625 17.856 7.356 18.125 7.356 18.456V20.106C7.356 20.885 7.987 21.516 8.766 21.516H20.106C20.885 21.516 21.516 20.885 21.516 20.106V8.766C21.516 7.987 20.885 7.356 20.106 7.356H18.455Z" fill="black"/>
<path d="M16.655 3.906C16.655 3.882 16.655 3.857 16.653 3.833 16.635 3.474 16.483 3.151 16.245 2.912 16.117 2.783 15.964 2.679 15.794 2.607 15.626 2.536 15.44 2.496 15.246 2.496L3.905 2.496C3.504 2.496 3.141 2.664 2.885 2.933 2.644 3.186 2.496 3.529 2.496 3.906L2.496 15.246C2.496 15.987 3.067 16.594 3.793 16.651 3.83 16.654 3.867 16.656 3.905 16.656H15.246C16.024 16.656 16.655 16.025 16.655 15.246V3.906ZM15.455 3.906V15.246C15.455 15.362 15.361 15.456 15.246 15.456L3.905 15.456C3.847 15.456 3.795 15.432 3.757 15.395 3.719 15.357 3.696 15.304 3.696 15.246L3.696 3.906C3.696 3.79 3.789 3.696 3.905 3.696L15.246 3.696C15.3 3.699 15.358 3.722 15.394 3.758 15.432 3.796 15.455 3.848 15.455 3.906Z" fill="black"/>
</svg>