<svg width="24" height="24" viewBox="0 0 24 24" fill="none" xmlns="http://www.w3.org/2000/svg">
<path d="M17.9958 9L18.7451 9C19.5735 9 20.2451 9.67157 20.2451 10.5V18.75C20.2451 19.5784 19.5735 20.25 18.7451 20.25H10.4951C9.66669 20.25 8.99512 19.5784 8.99512 18.75V18M12.6731 17.9772L14.2259 19.5304M17.8368 14.1288L20.0817 16.3661M17.1845 17.98L18.9032 19.6944M13.4996 3.75L5.24963 3.75C4.42121 3.75 3.74963 4.42157 3.74963 5.25L3.74963 13.5C3.74963 14.3284 4.42121 15 5.24963 15L13.4996 15C14.3281 15 14.9996 14.3284 14.9996 13.5L14.9996 5.25C14.9996 4.42157 14.3281 3.75 13.4996 3.75Z" stroke="black" stroke-width="1.5" stroke-linecap="round" stroke-linejoin="round"/>
</svg>
