<svg viewBox="0 0 24 24" fill="none" xmlns="http://www.w3.org/2000/svg" width="24" height="24">
<path fill-rule="evenodd" clip-rule="evenodd" d="M15.45 3.899C15.45 3.783 15.356 3.689 15.24 3.689L3.9 3.689C3.784 3.689 3.69 3.783 3.69 3.899L3.69 15.239C3.69 15.355 3.784 15.449 3.9 15.449H5.55C5.881 15.449 6.15 15.717 6.15 16.049 6.15 16.38 5.881 16.649 5.55 16.649H3.9C3.121 16.649 2.49 16.018 2.49 15.239L2.49 3.899C2.49 3.12 3.121 2.489 3.9 2.489L15.24 2.489C16.019 2.489 16.65 3.12 16.65 3.899L16.65 5.552C16.65 5.883 16.381 6.152 16.05 6.152 15.719 6.152 15.45 5.883 15.45 5.552V3.899Z" fill="black"/>
<path d="M8.759 7.352C7.981 7.352 7.35 7.983 7.349 8.762V20.102C7.349 20.88 7.98 21.512 8.759 21.512H20.099C20.878 21.511 21.509 20.88 21.509 20.102V8.762C21.509 7.983 20.878 7.352 20.099 7.352H8.759ZM20.099 8.552C20.215 8.552 20.309 8.646 20.309 8.762V20.102C20.309 20.218 20.215 20.311 20.099 20.312H8.759C8.643 20.312 8.549 20.218 8.549 20.102V8.762C8.55 8.646 8.643 8.552 8.759 8.552H20.099Z" fill="black"/>
</svg>