<svg viewBox="0 0 24 24" fill="none" xmlns="http://www.w3.org/2000/svg" width="24" height="24">
<path fill-rule="evenodd" clip-rule="evenodd" d="M3.69 3.69L3.69 9.618 4.254 9.618C4.586 9.618 4.854 9.887 4.854 10.218 4.854 10.55 4.586 10.818 4.254 10.818H3.535C2.958 10.818 2.49 10.35 2.49 9.773L2.49 3.535C2.49 2.958 2.958 2.49 3.535 2.49L9.773 2.49C10.35 2.49 10.818 2.958 10.818 3.535L10.818 4.254C10.818 4.586 10.55 4.854 10.218 4.854 9.887 4.854 9.618 4.586 9.618 4.254L9.618 3.69 3.69 3.69Z" fill="black"/>
<path fill-rule="evenodd" clip-rule="evenodd" d="M14.382 19.747C14.382 19.415 14.114 19.147 13.782 19.147 13.451 19.147 13.182 19.415 13.182 19.747L13.182 20.466C13.183 21.043 13.651 21.511 14.228 21.511H20.466C21.043 21.511 21.511 21.043 21.511 20.466L21.511 14.228C21.511 13.651 21.043 13.183 20.466 13.182L19.747 13.182C19.415 13.182 19.147 13.451 19.147 13.782 19.147 14.114 19.415 14.382 19.747 14.382L20.311 14.382 20.311 20.311H14.382L14.382 19.747Z" fill="black"/>
<path fill-rule="evenodd" clip-rule="evenodd" d="M7.322 7.254C7.285 7.255 7.255 7.285 7.254 7.322L7.254 16.679C7.255 16.716 7.285 16.747 7.322 16.747L16.679 16.747C16.716 16.746 16.746 16.716 16.747 16.679V7.322C16.747 7.285 16.716 7.255 16.679 7.254L7.322 7.254ZM16.679 17.947C17.379 17.946 17.946 17.379 17.947 16.679V7.322C17.947 6.622 17.379 6.055 16.679 6.054L7.322 6.054C6.622 6.055 6.055 6.622 6.054 7.322L6.054 16.679C6.055 17.379 6.622 17.947 7.322 17.947H16.679ZM17.347 7.323C17.347 7.274 17.342 7.233 17.333 7.188L17.347 7.323Z" fill="black"/>
</svg>