<svg viewBox="0 0 24 24" fill="none" xmlns="http://www.w3.org/2000/svg" width="24" height="24">
<path fill-rule="evenodd" clip-rule="evenodd" d="M12.019 6.654C12.019 6.986 12.287 7.254 12.619 7.254H16.679C16.716 7.255 16.747 7.285 16.747 7.322V11.382C16.747 11.714 17.015 11.982 17.347 11.982 17.678 11.982 17.947 11.714 17.947 11.382V7.322C17.947 6.622 17.379 6.055 16.679 6.054H12.619C12.287 6.054 12.019 6.323 12.019 6.654ZM11.382 17.947C11.714 17.947 11.982 17.678 11.982 17.347 11.982 17.015 11.714 16.747 11.382 16.747H7.322C7.285 16.747 7.255 16.716 7.254 16.679L7.254 12.619C7.254 12.287 6.986 12.019 6.654 12.019 6.323 12.019 6.054 12.287 6.054 12.619L6.054 16.679C6.055 17.379 6.622 17.947 7.322 17.947H11.382Z" fill="black"/>
<path d="M14.228 13.182C13.65 13.182 13.182 13.65 13.182 14.228L13.182 20.466C13.183 21.043 13.651 21.511 14.228 21.511H20.466C21.043 21.511 21.511 21.043 21.511 20.466V14.228C21.511 13.651 21.043 13.183 20.466 13.182L14.228 13.182ZM20.311 14.382V20.311H14.382L14.382 14.382 20.311 14.382Z" fill="black"/>
<path fill-rule="evenodd" clip-rule="evenodd" d="M10.818 3.535C10.818 2.958 10.35 2.49 9.773 2.49L3.535 2.49C2.958 2.49 2.49 2.958 2.49 3.535L2.49 9.773C2.49 10.35 2.958 10.818 3.535 10.818H9.773C10.35 10.818 10.818 10.35 10.818 9.773V3.535ZM3.69 9.618L3.69 3.69 9.618 3.69V9.618H3.69Z" fill="black"/>
</svg>