<svg width="24" height="24" viewBox="0 0 24 24" fill="none" xmlns="http://www.w3.org/2000/svg">
<path fill-rule="evenodd" clip-rule="evenodd" d="M14.875 5.24902C14.875 5.15244 14.7968 5.07432 14.7002 5.07422L5.25 5.07422C5.15335 5.07422 5.0752 5.15237 5.0752 5.24902L5.0752 14.6992C5.0753 14.7958 5.15342 14.874 5.25 14.874H6.62471C6.90085 14.874 7.12471 15.0979 7.12471 15.374C7.12471 15.6502 6.90085 15.874 6.62471 15.874H5.25C4.60113 15.874 4.0753 15.3481 4.0752 14.6992L4.0752 5.24902C4.0752 4.60009 4.60107 4.07422 5.25 4.07422L14.7002 4.07422C15.349 4.07432 15.875 4.60015 15.875 5.24902L15.875 6.62647C15.875 6.90261 15.6511 7.12647 15.375 7.12647C15.0989 7.12647 14.875 6.90261 14.875 6.62647V5.24902Z" fill="black"/>
<path d="M9.29932 8.12647C8.65045 8.12647 8.12462 8.65243 8.12451 9.30127V18.7515C8.12451 19.4004 8.65038 19.9263 9.29932 19.9263H18.7495C19.3984 19.9262 19.9243 19.4003 19.9243 18.7515V9.30127C19.9242 8.65249 19.3983 8.12657 18.7495 8.12647H9.29932ZM18.7495 9.12647C18.846 9.12657 18.9242 9.20478 18.9243 9.30127V18.7515C18.9243 18.848 18.8461 18.9262 18.7495 18.9263H9.29932C9.20267 18.9263 9.12451 18.8481 9.12451 18.7515V9.30127C9.12462 9.20471 9.20273 9.12647 9.29932 9.12647H18.7495Z" fill="black"/>
</svg>
