<svg width="24" height="24" viewBox="0 0 24 24" fill="none" xmlns="http://www.w3.org/2000/svg">
<path d="M5.99893 15H5.24963C4.42121 15 3.74963 14.3284 3.74963 13.5V5.25C3.74963 4.42157 4.42121 3.75 5.24963 3.75H13.4996C14.3281 3.75 14.9996 4.42157 14.9996 5.25V6M9.10364 14.4069L14.226 19.5304M13.1707 9.47852L20.0817 16.3661M9.61798 10.3882L18.9032 19.6944M10.4951 20.25H18.7451C19.5735 20.25 20.2451 19.5784 20.2451 18.75V10.5C20.2451 9.67157 19.5735 9 18.7451 9H10.4951C9.66669 9 8.99512 9.67157 8.99512 10.5V18.75C8.99512 19.5784 9.66669 20.25 10.4951 20.25Z" stroke="black" stroke-width="1.5" stroke-linecap="round" stroke-linejoin="round"/>
</svg>
