<svg xmlns="http://www.w3.org/2000/svg" width="24" height="24" fill="currentColor" viewBox="0 0 24 24"><path d="M20.1 3.394c-1.755 0-3.722.963-5.847 2.86-1.526 1.364-2.843 2.953-3.746 4.143a4.894 4.894 0 0 0-6.438 4.641c0 2.706-1.724 3.914-1.801 3.966a.506.506 0 0 0 .283.928h6.412a4.894 4.894 0 0 0 4.641-6.438c1.188-.9 2.778-2.221 4.141-3.746 1.899-2.125 2.862-4.092 2.862-5.847a.506.506 0 0 0-.506-.506zM8.962 18.919H3.786c.613-.772 1.295-2.044 1.295-3.881a3.881 3.881 0 1 1 3.881 3.881m2.488-8.092c.304-.394.665-.844 1.072-1.324a6.6 6.6 0 0 1 1.974 1.974c-.478.408-.928.769-1.324 1.072a4.9 4.9 0 0 0-1.723-1.723zm3.814-.025a7.6 7.6 0 0 0-2.066-2.066c1.758-1.928 4.117-3.992 6.358-4.292-.3 2.241-2.364 4.604-4.292 6.358"/></svg>