<svg xmlns="http://www.w3.org/2000/svg" width="24" height="24" fill="currentColor" viewBox="0 0 24 24"><path d="M21.72 1.673c-2.106 0-4.466 1.156-7.016 3.432-1.831 1.637-3.412 3.544-4.496 4.971a5.873 5.873 0 0 0-7.725 5.57c0 3.247-2.069 4.697-2.161 4.759a0.607 0.607 0 0 0 0.339 1.113h7.695a5.873 5.873 0 0 0 5.569-7.725c1.426-1.08 3.334-2.665 4.969-4.495 2.279-2.55 3.434-4.91 3.434-7.017a0.607 0.607 0 0 0-0.607-0.607zM8.354 20.303H2.143c0.736-0.926 1.554-2.453 1.554-4.657a4.657 4.657 0 1 1 4.657 4.657m2.986-9.711c0.365-0.473 0.798-1.013 1.286-1.588a7.92 7.92 0 0 1 2.369 2.368c-0.574 0.49-1.114 0.923-1.589 1.287a5.88 5.88 0 0 0-2.067-2.068z m4.577-0.03a9.12 9.12 0 0 0-2.479-2.479c2.11-2.314 4.94-4.79 7.629-5.15-0.36 2.689-2.837 5.525-5.15 7.629"/></svg>