<svg xmlns="http://www.w3.org/2000/svg" width="24" height="24" fill="currentColor" viewBox="0 0 24 24"><path d="M13.823 8.356a1.013 1.013 0 1 1 1.013 1.012 1.013 1.013 0 0 1-1.013-1.012m-4.657-1.013a1.013 1.013 0 1 0 1.012 1.013 1.013 1.013 0 0 0-1.012-1.013M23.948 12a0.607 0.607 0 0 1-0.607 0.607h-2.633v1.013a8.76 8.76 0 0 1-0.349 2.438l2.415 1.055a0.607 0.607 0 0 1-0.486 1.114l-2.352-1.027a8.707 8.707 0 0 1-15.87 0l-2.352 1.027a0.607 0.607 0 1 1-0.486-1.114l2.414-1.055a8.76 8.76 0 0 1-0.349-2.438v-1.013H0.66a0.608 0.608 0 0 1 0-1.215h2.633v-1.013a8.76 8.76 0 0 1 0.349-2.439l-2.414-1.054a0.607 0.607 0 0 1 0.486-1.114l2.352 1.027a8.707 8.707 0 0 1 15.87 0l2.352-1.027a0.607 0.607 0 1 1 0.486 1.114l-2.415 1.054a8.76 8.76 0 0 1 0.349 2.439v1.013h2.633a0.607 0.607 0 0 1 0.607 0.607z m-19.44-0.607h14.986v-1.013a7.493 7.493 0 0 0-14.986 0z m6.886 9.693v-8.479H4.508v1.013a7.5 7.5 0 0 0 6.886 7.466m8.1-8.479h-6.886v8.479a7.5 7.5 0 0 0 6.886-7.466z"/></svg>