<svg width="24" height="24" viewBox="0 0 24 24" fill="none" xmlns="http://www.w3.org/2000/svg">
<path d="M12 12V21M12 12H4.5M12 12H19.5M12 21C13.9891 21 15.8968 20.2098 17.3033 18.8033C18.7098 17.3968 19.5 15.4891 19.5 13.5V12M12 21C10.0109 21 8.10322 20.2098 6.6967 18.8033C5.29018 17.3968 4.5 15.4891 4.5 13.5V12M4.5 12V10.5C4.5 8.51088 5.29018 6.60322 6.6967 5.1967C8.10322 3.79018 10.0109 3 12 3C13.9891 3 15.8968 3.79018 17.3033 5.1967C18.7098 6.60322 19.5 8.51088 19.5 10.5V12M4.5 12H1.5M19.5 12H22.5M21.7502 17.2501L19.0483 16.0698M21.7502 6.75L19.0483 7.93031M2.25 6.75L4.95187 7.93031M2.25 17.2501L4.95187 16.0698M9.37489 8.24758C9.58199 8.24758 9.74989 8.41547 9.74989 8.62258C9.74989 8.82968 9.58199 8.99758 9.37489 8.99758C9.16778 8.99758 8.99989 8.82968 8.99989 8.62258C8.99989 8.41547 9.16778 8.24758 9.37489 8.24758ZM14.6234 8.24758C14.8305 8.24758 14.9984 8.41547 14.9984 8.62258C14.9984 8.82968 14.8305 8.99758 14.6234 8.99758C14.4163 8.99758 14.2484 8.82968 14.2484 8.62258C14.2484 8.41547 14.4163 8.24758 14.6234 8.24758Z" stroke="black" stroke-width="1.5" stroke-linecap="round" stroke-linejoin="round"/>
</svg>
