<svg width="24" height="24" viewBox="0 0 24 24" fill="none" xmlns="http://www.w3.org/2000/svg">
<path d="M9.375 9C9.58211 9 9.75 8.83211 9.75 8.625C9.75 8.41789 9.58211 8.25 9.375 8.25C9.16789 8.25 9 8.41789 9 8.625C9 8.83211 9.16789 9 9.375 9Z" fill="black"/>
<path d="M14.625 9C14.8321 9 15 8.83211 15 8.625C15 8.41789 14.8321 8.25 14.625 8.25C14.4179 8.25 14.25 8.41789 14.25 8.625C14.25 8.83211 14.4179 9 14.625 9Z" fill="black"/>
<path d="M12.75 12C12.75 11.5858 12.4142 11.25 12 11.25C11.5858 11.25 11.25 11.5858 11.25 12H12H12.75ZM12 21V21.75V21ZM19.5 13.5H20.25H19.5ZM12 3V2.25V3ZM21.45 17.9374C21.8296 18.1032 22.2717 17.93 22.4375 17.5504C22.6033 17.1708 22.43 16.7287 22.0505 16.5629L21.7502 17.2501L21.45 17.9374ZM19.3486 15.3825C18.969 15.2167 18.5269 15.39 18.3611 15.7696C18.1952 16.1492 18.3685 16.5913 18.7481 16.7571L19.0483 16.0698L19.3486 15.3825ZM22.0505 7.43728C22.43 7.27146 22.6033 6.82934 22.4375 6.44976C22.2717 6.07019 21.8296 5.8969 21.45 6.06272L21.7502 6.75L22.0505 7.43728ZM18.7481 7.24303C18.3685 7.40885 18.1952 7.85098 18.3611 8.23055C18.5269 8.61013 18.969 8.78341 19.3486 8.61759L19.0483 7.93031L18.7481 7.24303ZM2.55024 6.06272C2.17066 5.8969 1.72854 6.07019 1.56272 6.44976C1.3969 6.82934 1.57019 7.27146 1.94976 7.43728L2.25 6.75L2.55024 6.06272ZM4.65164 8.61759C5.03121 8.78341 5.47334 8.61013 5.63916 8.23055C5.80497 7.85098 5.63169 7.40885 5.25211 7.24303L4.95187 7.93031L4.65164 8.61759ZM1.94976 16.5629C1.57019 16.7287 1.3969 17.1708 1.56272 17.5504C1.72854 17.93 2.17066 18.1032 2.55024 17.9374L2.25 17.2501L1.94976 16.5629ZM5.25211 16.7571C5.63169 16.5913 5.80497 16.1492 5.63916 15.7696C5.47334 15.39 5.03121 15.2167 4.65164 15.3825L4.95187 16.0698L5.25211 16.7571ZM1.5 11.25C1.08579 11.25 0.75 11.5858 0.75 12C0.75 12.4142 1.08579 12.75 1.5 12.75V12V11.25ZM22.5 12.75C22.9142 12.75 23.25 12.4142 23.25 12C23.25 11.5858 22.9142 11.25 22.5 11.25V12V12.75ZM12 12H11.25V21H12H12.75V12H12ZM19.5 13.5H18.75C18.75 15.2902 18.0388 17.0071 16.773 18.273L17.3033 18.8033L17.8336 19.3336C19.3808 17.7865 20.25 15.688 20.25 13.5H19.5ZM17.3033 18.8033L16.773 18.273C15.5071 19.5388 13.7902 20.25 12 20.25V21V21.75C14.188 21.75 16.2865 20.8808 17.8336 19.3336L17.3033 18.8033ZM12 21V20.25C10.2098 20.25 8.4929 19.5388 7.22703 18.273L6.6967 18.8033L6.16637 19.3336C7.71354 20.8808 9.81196 21.75 12 21.75V21ZM6.6967 18.8033L7.22703 18.273C5.96116 17.0071 5.25 15.2902 5.25 13.5H4.5H3.75C3.75 15.688 4.61919 17.7865 6.16637 19.3336L6.6967 18.8033ZM4.5 13.5H5.25V10.5H4.5H3.75V13.5H4.5ZM4.5 10.5H5.25C5.25 8.70979 5.96116 6.9929 7.22703 5.72703L6.6967 5.1967L6.16637 4.66637C4.61919 6.21354 3.75 8.31196 3.75 10.5H4.5ZM6.6967 5.1967L7.22703 5.72703C8.4929 4.46116 10.2098 3.75 12 3.75V3V2.25C9.81196 2.25 7.71354 3.11919 6.16637 4.66637L6.6967 5.1967ZM12 3V3.75C13.7902 3.75 15.5071 4.46116 16.773 5.72703L17.3033 5.1967L17.8336 4.66637C16.2865 3.11919 14.188 2.25 12 2.25V3ZM17.3033 5.1967L16.773 5.72703C18.0388 6.9929 18.75 8.70979 18.75 10.5H19.5H20.25C20.25 8.31196 19.3808 6.21354 17.8336 4.66637L17.3033 5.1967ZM19.5 10.5H18.75V13.5H19.5H20.25V10.5H19.5ZM21.7502 17.2501L22.0505 16.5629L19.3486 15.3825L19.0483 16.0698L18.7481 16.7571L21.45 17.9374L21.7502 17.2501ZM21.7502 6.75L21.45 6.06272L18.7481 7.24303L19.0483 7.93031L19.3486 8.61759L22.0505 7.43728L21.7502 6.75ZM2.25 6.75L1.94976 7.43728L4.65164 8.61759L4.95187 7.93031L5.25211 7.24303L2.55024 6.06272L2.25 6.75ZM2.25 17.2501L2.55024 17.9374L5.25211 16.7571L4.95187 16.0698L4.65164 15.3825L1.94976 16.5629L2.25 17.2501ZM1.5 12V12.75H22.5V12V11.25H1.5V12ZM9.75 8.625H9C9 8.41789 9.16789 8.25 9.375 8.25V9V9.75C9.99632 9.75 10.5 9.24632 10.5 8.625H9.75ZM9.375 9V8.25C9.58211 8.25 9.75 8.41789 9.75 8.625H9H8.25C8.25 9.24632 8.75368 9.75 9.375 9.75V9ZM9 8.625H9.75C9.75 8.83211 9.58211 9 9.375 9V8.25V7.5C8.75368 7.5 8.25 8.00368 8.25 8.625H9ZM9.375 8.25V9C9.16789 9 9 8.83211 9 8.625H9.75H10.5C10.5 8.00368 9.99632 7.5 9.375 7.5V8.25ZM15 8.625H14.25C14.25 8.41789 14.4179 8.25 14.625 8.25V9V9.75C15.2463 9.75 15.75 9.24632 15.75 8.625H15ZM14.625 9V8.25C14.8321 8.25 15 8.41789 15 8.625H14.25H13.5C13.5 9.24632 14.0037 9.75 14.625 9.75V9ZM14.25 8.625H15C15 8.83211 14.8321 9 14.625 9V8.25V7.5C14.0037 7.5 13.5 8.00368 13.5 8.625H14.25ZM14.625 8.25V9C14.4179 9 14.25 8.83211 14.25 8.625H15H15.75C15.75 8.00368 15.2463 7.5 14.625 7.5V8.25Z" fill="black"/>
</svg>
