<svg width="24" height="24" viewBox="0 0 24 24" fill="none" xmlns="http://www.w3.org/2000/svg">
<path d="M12.75 20.2495V2.99955C12.7499 2.86382 12.713 2.73065 12.6432 2.61424C12.5734 2.49784 12.4733 2.40256 12.3536 2.33857C12.2339 2.27458 12.099 2.24428 11.9635 2.25089C11.8279 2.2575 11.6967 2.30078 11.5838 2.37611L4.08375 7.3758C3.98088 7.44443 3.89658 7.53744 3.83835 7.64654C3.78012 7.75564 3.74977 7.87745 3.75 8.00111V20.2495M12.75 8.24951H19.5C19.6989 8.24951 19.8897 8.32853 20.0303 8.46918C20.171 8.60983 20.25 8.8006 20.25 8.99951V20.2495M1.5 20.2495H22.5M9.75 10.4995V11.9995M6.75 10.4995V11.9995M6.75 15.7495V17.2495M9.75 15.7495V17.2495" stroke="black" stroke-width="1.5" stroke-linecap="round" stroke-linejoin="round"/>
</svg>
