<svg xmlns="http://www.w3.org/2000/svg" width="24" height="24" fill="currentColor" viewBox="0 0 24 24"><path d="M23.34 20.303h-1.823V8.76a1.416 1.416 0 0 0-1.417-1.417h-6.683V2.28a1.417 1.417 0 0 0-2.204-1.178l-8.1 5.4a1.416 1.416 0 0 0-0.631 1.179v12.622H0.659a0.607 0.607 0 0 0 0 1.214h22.68a0.607 0.607 0 0 0 0-1.214z m-3.24-11.745a0.204 0.204 0 0 1 0.203 0.203v11.543h-6.885V8.56zM3.697 7.681a0.204 0.204 0 0 1 0.09-0.168l8.1-5.401a0.203 0.203 0 0 1 0.315 0.168v18.023H3.696z m6.48 2.699V12a0.607 0.607 0 0 1-1.214 0v-1.62a0.607 0.607 0 0 1 1.214 0m-3.24 0V12a0.608 0.608 0 0 1-1.215 0v-1.62a0.608 0.608 0 0 1 1.215 0m0 5.67v1.62a0.608 0.608 0 0 1-1.215 0v-1.62a0.608 0.608 0 0 1 1.215 0m3.24 0v1.62a0.607 0.607 0 0 1-1.214 0v-1.62a0.607 0.607 0 0 1 1.214 0"/></svg>