<svg xmlns="http://www.w3.org/2000/svg" width="24" height="24" fill="currentColor" viewBox="0 0 24 24"><path d="M17.67 2.483h-11.34A3.036 3.036 0 0 0 3.293 5.52v14.58a1.416 1.416 0 0 0 1.417 1.417H7.14a1.416 1.416 0 0 0 1.417-1.417v-1.823h6.886v1.823a1.416 1.416 0 0 0 1.417 1.417h2.43a1.416 1.416 0 0 0 1.417-1.417V5.52a3.036 3.036 0 0 0-3.037-3.037M4.507 17.063v-6.076h14.986v6.076z m0-10.126h14.986v2.836H4.507z m1.823-3.24h11.34A1.824 1.824 0 0 1 19.493 5.52v0.203H4.508V5.52a1.824 1.824 0 0 1 1.823-1.823z m1.013 16.403a0.204 0.204 0 0 1-0.203 0.203H4.71a0.204 0.204 0 0 1-0.203-0.203v-1.823h2.835z m11.947 0.203H16.86a0.204 0.204 0 0 1-0.203-0.203v-1.823h2.836v1.823a0.204 0.204 0 0 1-0.203 0.203m-9.923-6.277a1.013 1.013 0 1 1-1.013-1.013 1.013 1.013 0 0 1 1.013 1.013m7.29 0a1.013 1.013 0 1 1-1.013-1.013 1.013 1.013 0 0 1 1.013 1.013m7.29-6.886v2.43a0.607 0.607 0 0 1-1.214 0V7.14a0.607 0.607 0 0 1 1.214 0m-22.68 0v2.43a0.608 0.608 0 0 1-1.215 0V7.14a0.608 0.608 0 0 1 1.215 0"/></svg>