<svg xmlns="http://www.w3.org/2000/svg" width="24" height="24" fill="currentColor" viewBox="0 0 24 24"><path d="M8.153 1.47V0.66a0.608 0.608 0 0 1 1.215 0v0.81a0.608 0.608 0 0 1-1.215 0M0.66 9.367h0.81a0.608 0.608 0 0 0 0-1.215H0.66a0.608 0.608 0 0 0 0 1.215m11.069-6.543a0.607 0.607 0 0 0 0.815-0.273l0.81-1.62a0.607 0.607 0 0 0-1.088-0.543l-0.81 1.62a0.607 0.607 0 0 0 0.273 0.816m-9.72 8.632l-1.62 0.81a0.607 0.607 0 0 0 0.542 1.088l1.62-0.81a0.607 0.607 0 1 0-0.542-1.088m19.093 6.357a1.416 1.416 0 0 1 0 2.005l-1.285 1.285a1.416 1.416 0 0 1-2.005 0l-5.195-5.195a0.204 0.204 0 0 0-0.325 0.056l-1.798 4.682-0.01 0.024a1.404 1.404 0 0 1-1.293 0.85h-0.069a1.404 1.404 0 0 1-1.273-0.975L2.554 4.337a1.417 1.417 0 0 1 1.782-1.782L20.544 7.85a1.417 1.417 0 0 1 0.125 2.633l-0.024 0.01-4.683 1.797a0.204 0.204 0 0 0-0.054 0.326z m-0.859 0.859l-5.195-5.195a1.416 1.416 0 0 1 0.437-2.303l0.024-0.009 4.682-1.798a0.203 0.203 0 0 0-0.026-0.366L3.958 3.708a0.24 0.24 0 0 0-0.066-0.011 0.204 0.204 0 0 0-0.185 0.262l5.292 16.207a0.186 0.186 0 0 0 0.179 0.137 0.18 0.18 0 0 0 0.186-0.111l1.797-4.682 0.01-0.024a1.416 1.416 0 0 1 2.303-0.437l5.194 5.195a0.204 0.204 0 0 0 0.287 0l1.284-1.284a0.204 0.204 0 0 0 0-0.287z"/></svg>