<svg width="24" height="24" viewBox="0 0 24 24" fill="none" xmlns="http://www.w3.org/2000/svg">
<path d="M6.75 10.5V13.5M5.25 10.5H8.25M11.7005 17.25H3C2.58579 17.25 2.25 16.9142 2.25 16.5V7.5C2.25 7.08579 2.58579 6.75 3 6.75H9.40343M15.4431 5.25V5.67152M17.7317 6.37132L18.1525 5.52979M18.9328 13.1655C18.8842 13.117 18.8482 13.0574 18.8279 12.9918C18.8077 12.9263 18.8038 12.8568 18.8165 12.7893C18.8293 12.7219 18.8583 12.6586 18.9011 12.605C18.9439 12.5514 18.9992 12.5091 19.0622 12.4817L21.5031 11.5445C21.5798 11.5096 21.6443 11.4526 21.6882 11.3807C21.7321 11.3088 21.7534 11.2254 21.7494 11.1413C21.7454 11.0571 21.7162 10.9761 21.6656 10.9088C21.6151 10.8414 21.5454 10.7908 21.4658 10.7634L13.0468 8.01424C12.9737 7.99173 12.8958 7.98957 12.8216 8.008C12.7473 8.02643 12.6795 8.06476 12.6254 8.11884C12.5713 8.17293 12.533 8.24075 12.5146 8.31499C12.4962 8.38923 12.4983 8.46709 12.5208 8.54019L15.2684 16.9608C15.2958 17.0404 15.3464 17.11 15.4138 17.1606C15.4812 17.2112 15.5621 17.2403 15.6463 17.2444C15.7304 17.2484 15.8138 17.2271 15.8857 17.1832C15.9576 17.1393 16.0146 17.0748 16.0495 16.9981L16.9867 14.5571C17.0141 14.4942 17.0564 14.4389 17.11 14.3961C17.1637 14.3533 17.2269 14.3243 17.2944 14.3115C17.3618 14.2987 17.4313 14.3027 17.4968 14.3229C17.5624 14.3432 17.622 14.3792 17.6705 14.4278L20.3692 17.1264C20.4481 17.2053 20.555 17.2496 20.6666 17.2496C20.7781 17.2496 20.8851 17.2053 20.964 17.1264L21.6314 16.4606C21.7103 16.3817 21.7546 16.2747 21.7546 16.1631C21.7546 16.0516 21.7103 15.9446 21.6314 15.8657L18.9328 13.1655Z" stroke="black" stroke-width="1.5" stroke-linecap="round" stroke-linejoin="round"/>
</svg>
