<svg width="24" height="24" viewBox="0 0 24 24" fill="none" xmlns="http://www.w3.org/2000/svg">
<path d="M8.25 14.25C8.45711 14.25 8.625 14.0821 8.625 13.875C8.625 13.6679 8.45711 13.5 8.25 13.5C8.04289 13.5 7.875 13.6679 7.875 13.875C7.875 14.0821 8.04289 14.25 8.25 14.25Z" fill="black"/>
<path d="M8.25 18C8.45711 18 8.625 17.8321 8.625 17.625C8.625 17.4179 8.45711 17.25 8.25 17.25C8.04289 17.25 7.875 17.4179 7.875 17.625C7.875 17.8321 8.04289 18 8.25 18Z" fill="black"/>
<path d="M12 18C12.2071 18 12.375 17.8321 12.375 17.625C12.375 17.4179 12.2071 17.25 12 17.25C11.7929 17.25 11.625 17.4179 11.625 17.625C11.625 17.8321 11.7929 18 12 18Z" fill="black"/>
<path d="M15.75 18C15.9571 18 16.125 17.8321 16.125 17.625C16.125 17.4179 15.9571 17.25 15.75 17.25C15.5429 17.25 15.375 17.4179 15.375 17.625C15.375 17.8321 15.5429 18 15.75 18Z" fill="black"/>
<path d="M15.75 14.25C15.9571 14.25 16.125 14.0821 16.125 13.875C16.125 13.6679 15.9571 13.5 15.75 13.5C15.5429 13.5 15.375 13.6679 15.375 13.875C15.375 14.0821 15.5429 14.25 15.75 14.25Z" fill="black"/>
<path d="M12 14.25C12.2071 14.25 12.375 14.0821 12.375 13.875C12.375 13.6679 12.2071 13.5 12 13.5C11.7929 13.5 11.625 13.6679 11.625 13.875C11.625 14.0821 11.7929 14.25 12 14.25Z" fill="black"/>
<path d="M7.5 6V5.25C7.08579 5.25 6.75 5.58579 6.75 6H7.5ZM16.5 6H17.25C17.25 5.58579 16.9142 5.25 16.5 5.25V6ZM16.5 10.5V11.25C16.9142 11.25 17.25 10.9142 17.25 10.5H16.5ZM7.5 10.5H6.75C6.75 10.9142 7.08579 11.25 7.5 11.25V10.5ZM7.5 6V6.75H16.5V6V5.25H7.5V6ZM16.5 6H15.75V10.5H16.5H17.25V6H16.5ZM16.5 10.5V9.75H7.5V10.5V11.25H16.5V10.5ZM7.5 10.5H8.25V6H7.5H6.75V10.5H7.5ZM19.5 3.75H18.75V20.25H19.5H20.25V3.75H19.5ZM19.5 20.25H18.75V21V21.75C19.5784 21.75 20.25 21.0784 20.25 20.25H19.5ZM18.75 21V20.25H5.25V21V21.75H18.75V21ZM5.25 21V20.25H4.5H3.75C3.75 21.0784 4.42157 21.75 5.25 21.75V21ZM4.5 20.25H5.25V3.75H4.5H3.75V20.25H4.5ZM4.5 3.75H5.25V3V2.25C4.42157 2.25 3.75 2.92157 3.75 3.75H4.5ZM5.25 3V3.75H18.75V3V2.25H5.25V3ZM18.75 3V3.75H19.5H20.25C20.25 2.92157 19.5784 2.25 18.75 2.25V3ZM8.625 13.875H7.875C7.875 13.6679 8.04289 13.5 8.25 13.5V14.25V15C8.87132 15 9.375 14.4963 9.375 13.875H8.625ZM8.25 14.25V13.5C8.45711 13.5 8.625 13.6679 8.625 13.875H7.875H7.125C7.125 14.4963 7.62868 15 8.25 15V14.25ZM7.875 13.875H8.625C8.625 14.0821 8.45711 14.25 8.25 14.25V13.5V12.75C7.62868 12.75 7.125 13.2537 7.125 13.875H7.875ZM8.25 13.5V14.25C8.04289 14.25 7.875 14.0821 7.875 13.875H8.625H9.375C9.375 13.2537 8.87132 12.75 8.25 12.75V13.5ZM8.625 17.625H7.875C7.875 17.4179 8.04289 17.25 8.25 17.25V18V18.75C8.87132 18.75 9.375 18.2463 9.375 17.625H8.625ZM8.25 18V17.25C8.45711 17.25 8.625 17.4179 8.625 17.625H7.875H7.125C7.125 18.2463 7.62868 18.75 8.25 18.75V18ZM7.875 17.625H8.625C8.625 17.8321 8.45711 18 8.25 18V17.25V16.5C7.62868 16.5 7.125 17.0037 7.125 17.625H7.875ZM8.25 17.25V18C8.04289 18 7.875 17.8321 7.875 17.625H8.625H9.375C9.375 17.0037 8.87132 16.5 8.25 16.5V17.25ZM12.375 17.625H11.625C11.625 17.4179 11.7929 17.25 12 17.25V18V18.75C12.6213 18.75 13.125 18.2463 13.125 17.625H12.375ZM12 18V17.25C12.2071 17.25 12.375 17.4179 12.375 17.625H11.625H10.875C10.875 18.2463 11.3787 18.75 12 18.75V18ZM11.625 17.625H12.375C12.375 17.8321 12.2071 18 12 18V17.25V16.5C11.3787 16.5 10.875 17.0037 10.875 17.625H11.625ZM12 17.25V18C11.7929 18 11.625 17.8321 11.625 17.625H12.375H13.125C13.125 17.0037 12.6213 16.5 12 16.5V17.25ZM16.125 17.625H15.375C15.375 17.4179 15.5429 17.25 15.75 17.25V18V18.75C16.3713 18.75 16.875 18.2463 16.875 17.625H16.125ZM15.75 18V17.25C15.9571 17.25 16.125 17.4179 16.125 17.625H15.375H14.625C14.625 18.2463 15.1287 18.75 15.75 18.75V18ZM15.375 17.625H16.125C16.125 17.8321 15.9571 18 15.75 18V17.25V16.5C15.1287 16.5 14.625 17.0037 14.625 17.625H15.375ZM15.75 17.25V18C15.5429 18 15.375 17.8321 15.375 17.625H16.125H16.875C16.875 17.0037 16.3713 16.5 15.75 16.5V17.25ZM16.125 13.875H15.375C15.375 13.6679 15.5429 13.5 15.75 13.5V14.25V15C16.3713 15 16.875 14.4963 16.875 13.875H16.125ZM15.75 14.25V13.5C15.9571 13.5 16.125 13.6679 16.125 13.875H15.375H14.625C14.625 14.4963 15.1287 15 15.75 15V14.25ZM15.375 13.875H16.125C16.125 14.0821 15.9571 14.25 15.75 14.25V13.5V12.75C15.1287 12.75 14.625 13.2537 14.625 13.875H15.375ZM15.75 13.5V14.25C15.5429 14.25 15.375 14.0821 15.375 13.875H16.125H16.875C16.875 13.2537 16.3713 12.75 15.75 12.75V13.5ZM12.375 13.875H11.625C11.625 13.6679 11.7929 13.5 12 13.5V14.25V15C12.6213 15 13.125 14.4963 13.125 13.875H12.375ZM12 14.25V13.5C12.2071 13.5 12.375 13.6679 12.375 13.875H11.625H10.875C10.875 14.4963 11.3787 15 12 15V14.25ZM11.625 13.875H12.375C12.375 14.0821 12.2071 14.25 12 14.25V13.5V12.75C11.3787 12.75 10.875 13.2537 10.875 13.875H11.625ZM12 13.5V14.25C11.7929 14.25 11.625 14.0821 11.625 13.875H12.375H13.125C13.125 13.2537 12.6213 12.75 12 12.75V13.5Z" fill="black"/>
</svg>
