<svg width="24" height="24" viewBox="0 0 24 24" fill="none" xmlns="http://www.w3.org/2000/svg">
<path d="M16.5 2.25V5.25M7.5 2.25V5.25M3.75 8.25H20.25M8.25 12L9.75 11.25V17.25M12.9506 12C13.0533 11.8233 13.1909 11.6694 13.3552 11.5478C13.5194 11.4262 13.7068 11.3394 13.9058 11.2928C14.1047 11.2463 14.3111 11.2408 14.5123 11.2769C14.7135 11.3129 14.9051 11.3897 15.0755 11.5025C15.246 11.6152 15.3915 11.7617 15.5033 11.9327C15.6152 12.1038 15.6908 12.2959 15.7257 12.4973C15.7606 12.6986 15.754 12.905 15.7062 13.1037C15.6585 13.3024 15.5707 13.4893 15.4481 13.6528L12.75 17.25H15.75M4.5 3.75H19.5C19.9142 3.75 20.25 4.08579 20.25 4.5V19.5C20.25 19.9142 19.9142 20.25 19.5 20.25H4.5C4.08579 20.25 3.75 19.9142 3.75 19.5V4.5C3.75 4.08579 4.08579 3.75 4.5 3.75Z" stroke="black" stroke-width="1.5" stroke-linecap="round" stroke-linejoin="round"/>
</svg>
