<svg xmlns="http://www.w3.org/2000/svg" width="24" height="24" fill="currentColor" viewBox="0 0 24 24"><path d="M20.1 2.483h-2.633v-1.013a0.608 0.608 0 0 0-1.215 0v1.013H7.747v-1.013a0.608 0.608 0 0 0-1.215 0v1.013H3.899A1.416 1.416 0 0 0 2.482 3.9v16.2a1.416 1.416 0 0 0 1.417 1.417h16.2a1.416 1.416 0 0 0 1.417-1.417V3.9a1.416 1.416 0 0 0-1.417-1.417zM3.9 3.697h2.633v1.013a0.608 0.608 0 0 0 1.215 0v-1.013h8.505v1.013a0.607 0.607 0 0 0 1.214 0v-1.013h2.633a0.204 0.204 0 0 1 0.203 0.203v3.443H3.697V3.9a0.204 0.204 0 0 1 0.203-0.203m16.2 16.606H3.9a0.204 0.204 0 0 1-0.203-0.203V8.557h16.605v11.543a0.204 0.204 0 0 1-0.203 0.203z m-9.923-9.113v6.48a0.607 0.607 0 0 1-1.214 0v-5.497l-0.742 0.371a0.607 0.607 0 1 1-0.542-1.088l1.62-0.81a0.607 0.607 0 0 1 0.878 0.544m6.031 2.962l-2.184 2.911h2.026a0.607 0.607 0 0 1 0 1.214h-3.24a0.607 0.607 0 0 1-0.486-0.972l2.916-3.888a1.013 1.013 0 1 0-1.686-1.113 0.607 0.607 0 1 1-1.048-0.608 2.227 2.227 0 1 1 3.708 2.457z"/></svg>