<svg width="24" height="24" viewBox="0 0 24 24" fill="none" xmlns="http://www.w3.org/2000/svg">
<path d="M12.75 14.25C12.75 14.6642 12.4142 15 12 15C11.5858 15 11.25 14.6642 11.25 14.25C11.25 13.8358 11.5858 13.5 12 13.5C12.4142 13.5 12.75 13.8358 12.75 14.25Z" fill="black"/>
<path d="M16.5 2.25V5.25M7.5 2.25V5.25M3.75 8.25H20.25M4.5 3.75H19.5C19.9142 3.75 20.25 4.08579 20.25 4.5V19.5C20.25 19.9142 19.9142 20.25 19.5 20.25H4.5C4.08579 20.25 3.75 19.9142 3.75 19.5V4.5C3.75 4.08579 4.08579 3.75 4.5 3.75ZM12.75 14.25C12.75 14.6642 12.4142 15 12 15C11.5858 15 11.25 14.6642 11.25 14.25C11.25 13.8358 11.5858 13.5 12 13.5C12.4142 13.5 12.75 13.8358 12.75 14.25Z" stroke="black" stroke-width="1.5" stroke-linecap="round" stroke-linejoin="round"/>
</svg>
