<svg width="24" height="24" viewBox="0 0 24 24" fill="none" xmlns="http://www.w3.org/2000/svg">
<path d="M3.75 12.75C3.33579 12.75 3 12.4142 3 12C3 11.5858 3.33579 11.25 3.75 11.25V12V12.75ZM3.75 12V11.25L13.5 11.25V12V12.75L3.75 12.75V12ZM13.5 12H14.25C14.25 13.4497 15.4253 14.625 16.875 14.625V15.375V16.125C14.5968 16.125 12.75 14.2782 12.75 12H13.5ZM16.875 15.375V14.625C18.3247 14.625 19.5 13.4497 19.5 12H20.25H21C21 14.2782 19.1532 16.125 16.875 16.125V15.375ZM20.25 12H19.5C19.5 10.5503 18.3247 9.375 16.875 9.375V8.625V7.875C19.1532 7.875 21 9.72183 21 12H20.25ZM16.875 8.625V9.375C15.4253 9.375 14.25 10.5503 14.25 12H13.5H12.75C12.75 9.72183 14.5968 7.875 16.875 7.875V8.625Z" fill="black"/>
</svg>
