<svg xmlns="http://www.w3.org/2000/svg" width="24" height="24" fill="currentColor" viewBox="0 0 24 24"><path d="M23.34 9.773h-1.225L19.248 3.324a1.416 1.416 0 0 0-1.295-0.841H6.046a1.416 1.416 0 0 0-1.295 0.841L1.884 9.773H0.659a0.607 0.607 0 0 0 0 1.214h1.013v8.303a1.416 1.416 0 0 0 1.417 1.417h2.43a1.416 1.416 0 0 0 1.417-1.417v-1.823h10.126v1.823a1.416 1.416 0 0 0 1.417 1.417h2.43a1.416 1.416 0 0 0 1.417-1.417v-8.303h1.013a0.607 0.607 0 0 0 0-1.214zM5.861 3.818a0.204 0.204 0 0 1 0.185-0.12h11.907a0.204 0.204 0 0 1 0.185 0.12l2.647 5.955H3.215z m-0.139 15.472a0.204 0.204 0 0 1-0.203 0.203H3.089a0.204 0.204 0 0 1-0.203-0.203v-1.823h2.836z m15.187 0.203h-2.43a0.204 0.204 0 0 1-0.203-0.203v-1.823h2.836v1.823a0.204 0.204 0 0 1-0.203 0.203m0.203-3.24H2.886v-5.265h18.226z m-16.2-2.633a0.607 0.607 0 0 1 0.607-0.607h1.62a0.607 0.607 0 0 1 0 1.214h-1.62a0.607 0.607 0 0 1-0.607-0.607m11.34 0a0.607 0.607 0 0 1 0.607-0.607h1.62a0.607 0.607 0 0 1 0 1.214h-1.62a0.607 0.607 0 0 1-0.607-0.607"/></svg>