<svg viewBox="0 0 24 24" fill="none" xmlns="http://www.w3.org/2000/svg" width="24" height="24">
<path d="M21.12 5.61C21.12 5.445 20.986 5.31 20.82 5.31H3.18C3.014 5.31 2.88 5.445 2.88 5.61V18.406C2.88 18.571 3.014 18.706 3.18 18.706H20.82C20.986 18.706 21.12 18.571 21.12 18.406V5.61ZM22.32 18.406C22.32 19.234 21.648 19.906 20.82 19.906H3.18C2.352 19.906 1.68 19.234 1.68 18.406V5.61C1.68 4.782 2.352 4.11 3.18 4.11H20.82C21.648 4.11 22.32 4.782 22.32 5.61V18.406Z" fill="black"/>
<path d="M8.759 4.11C9.091 4.11 9.359 4.379 9.359 4.71V9.566C9.36 9.57 9.361 9.574 9.361 9.578 9.361 9.581 9.36 9.585 9.359 9.588V19.297C9.359 19.629 9.091 19.897 8.759 19.897 8.428 19.897 8.159 19.629 8.159 19.297V15.038H2.28C1.949 15.038 1.68 14.769 1.68 14.438 1.68 14.106 1.949 13.838 2.28 13.838H8.159V10.178H2.28C1.949 10.178 1.68 9.909 1.68 9.578 1.68 9.247 1.949 8.978 2.28 8.978H8.159V4.71C8.16 4.379 8.428 4.11 8.759 4.11ZM15.24 4.11C15.571 4.11 15.84 4.379 15.84 4.71V8.978H21.72C22.052 8.978 22.32 9.247 22.32 9.578 22.32 9.909 22.052 10.178 21.72 10.178H15.84V13.838H21.719C22.05 13.838 22.319 14.106 22.319 14.438 22.319 14.769 22.051 15.038 21.719 15.038H15.84V19.297C15.84 19.629 15.571 19.897 15.24 19.897 14.909 19.897 14.64 19.629 14.64 19.297V4.71C14.64 4.379 14.909 4.11 15.24 4.11Z" fill="black"/>
</svg>