<svg viewBox="0 0 24 24" fill="none" xmlns="http://www.w3.org/2000/svg" width="24" height="24">
<path d="M20.82 4.11C21.648 4.11 22.32 4.782 22.32 5.61V18.406C22.32 19.234 21.648 19.905 20.82 19.906H3.18C2.352 19.906 1.68 19.234 1.68 18.406V5.61C1.68 4.782 2.352 4.11 3.18 4.11H20.82ZM2.88 18.406C2.88 18.571 3.015 18.706 3.18 18.706H8.159V15.038H2.88V18.406ZM9.359 18.706H14.64V15.038H9.359V18.706ZM15.84 18.706H20.82C20.986 18.705 21.12 18.571 21.12 18.406V15.038H15.84V18.706ZM2.88 13.838H21.12V10.178H2.88V13.838ZM3.18 5.31C3.015 5.31 2.88 5.444 2.88 5.61V8.978H8.159V5.31H3.18ZM15.84 8.978H21.12V5.61C21.12 5.445 20.986 5.31 20.82 5.31H15.84V8.978ZM9.359 8.978H14.64V5.31H9.359V8.978Z" fill="black"/>
</svg>