<svg width="24" height="24" viewBox="0 0 24 24" fill="none" xmlns="http://www.w3.org/2000/svg">
<path d="M6.77783 5.25647L6.77783 18.7565M12 5.25647L12.0011 18.757M17.2222 5.25647L17.2222 18.7565M3 9.75656H6.75943M17.2407 9.75656H21.0001M3 14.2565H6.75943M17.2407 14.2565H21.0001M13.9447 10.3325L15.6114 11.9992L13.9447 13.6659M15.6114 11.9992L8.38865 11.9992M10.0553 10.3325L8.38865 11.9992L10.0553 13.6659M3.83333 18.7565H20.1666C20.6268 18.7565 20.9999 18.3834 20.9999 17.9231V6.0898C20.9999 5.62957 20.6268 5.25647 20.1666 5.25647H3.83333C3.3731 5.25647 3 5.62957 3 6.0898V17.9231C3 18.3834 3.3731 18.7565 3.83333 18.7565Z" stroke="black" stroke-width="1.5" stroke-linecap="round" stroke-linejoin="round"/>
</svg>
