<svg width="24" height="24" viewBox="0 0 24 24" fill="none" xmlns="http://www.w3.org/2000/svg">
<path d="M14.25 3V8.25H19.5L14.25 3ZM14.25 3H5.25C5.05109 3 4.86032 3.07902 4.71967 3.21967C4.57902 3.36032 4.5 3.55109 4.5 3.75V20.25C4.5 20.4489 4.57902 20.6397 4.71967 20.7803C4.86032 20.921 5.05109 21 5.25 21H8.37891M7.5 11.2498H8.24885L10.1215 14.246L11.9942 11.2498H12.7433M11.9942 11.2498L11.9942 14.246M7.5 14.9954H8.6236M8.24885 14.9951V11.2498M16.7372 13.0662L19.2096 15.5385M15.2061 19.3728H13.2332C13.1395 19.3728 13.0497 19.3356 12.9834 19.2694C12.9172 19.2031 12.88 19.1133 12.88 19.0196V17.0467C12.88 16.9531 12.9172 16.8634 12.9833 16.7972L18.4275 11.353C18.4938 11.2868 18.5836 11.2496 18.6772 11.2496C18.7708 11.2496 18.8606 11.2868 18.9269 11.353L20.8998 13.3246C20.966 13.3908 21.0032 13.4806 21.0032 13.5743C21.0032 13.6679 20.966 13.7577 20.8998 13.8239L15.4556 19.2695C15.3894 19.3356 15.2997 19.3727 15.2061 19.3728Z" stroke="black" stroke-width="1.5" stroke-linecap="round" stroke-linejoin="round"/>
</svg>
