<svg width="24" height="24" viewBox="0 0 24 24" fill="none" xmlns="http://www.w3.org/2000/svg">
<path d="M20.25 20.25H3.75M9.75 15.75H5.25M18.75 15.75H14.25M14.25 11.75H9.75M14.25 3.75H9.75L5.25 3.75L5.25 20.25M9.75 3.75L9.75 20.25M14.25 3.75L14.25 20.25M14.25 3.75H18.75L18.75 20.25M6.73914 3.99146L9.89552 7.14784M5.3219 7.0813L9.93807 11.6765M5.42883 11.698L9.62763 15.882M15.7394 3.99146L18.5588 6.81086M14.5492 7.30737L18.6359 11.3756M14.4656 11.7344L18.5076 15.7621M11.1992 3.9502L14.2014 6.95235M10.0039 7.25342L13.9961 11.2456" stroke="black" stroke-width="1.5" stroke-linecap="round" stroke-linejoin="round"/>
</svg>
