<svg viewBox="0 0 24 24" fill="none" xmlns="http://www.w3.org/2000/svg" width="24" height="24">
<path fill-rule="evenodd" clip-rule="evenodd" d="M21.195 10.589V4.696L20.595 5.222V10.917L20.8 10.737C20.914 10.638 21.055 10.589 21.195 10.589ZM2.355 16.346V10.651L2.15 10.83C2.036 10.93 1.895 10.979 1.755 10.979V16.871L2.355 16.346Z" fill="white"/>
<path d="M20.8 3.449C21.049 3.23 21.428 3.255 21.646 3.505 21.864 3.754 21.839 4.133 21.59 4.351L20.595 5.222 15.109 10.022C14.896 10.208 14.581 10.22 14.355 10.05L8.263 5.482 2.355 10.651 2.15 10.831C1.9 11.049 1.522 11.024 1.303 10.775 1.085 10.526 1.11 10.146 1.36 9.928L7.839 4.258 7.923 4.196C8.13 4.071 8.396 4.081 8.595 4.23L14.685 8.798 20.8 3.449Z" fill="black"/>
<path d="M20.8 10.739C21.049 10.521 21.428 10.546 21.646 10.795 21.864 11.044 21.839 11.423 21.59 11.641L15.109 17.312C14.896 17.498 14.581 17.51 14.355 17.34L8.263 12.772 2.15 18.122C1.9 18.339 1.522 18.314 1.303 18.065 1.085 17.816 1.11 17.436 1.36 17.218L2.355 16.346 7.839 11.549 7.923 11.486C8.13 11.361 8.396 11.371 8.595 11.52L14.685 16.088 20.595 10.916 20.8 10.739Z" fill="black"/>
<path d="M21.795 3.9V11.19H20.595V3.9H21.795Z" fill="black"/>
<path d="M1.155 3.9C1.155 3.569 1.424 3.3 1.755 3.3 2.086 3.3 2.355 3.569 2.355 3.9V10.651 16.346 19.5H21.195C21.526 19.5 21.795 19.769 21.795 20.1 21.795 20.431 21.526 20.7 21.195 20.7H1.755C1.424 20.7 1.155 20.431 1.155 20.1V3.9Z" fill="black"/>
</svg>