<svg width="24" height="24" viewBox="0 0 24 24" fill="none" xmlns="http://www.w3.org/2000/svg">
<path d="M3.3999 5.25C3.3999 4.97386 3.62376 4.75 3.8999 4.75C4.17604 4.75 4.3999 4.97386 4.3999 5.25V18.25H20.1001C20.3762 18.2501 20.6001 18.4739 20.6001 18.75C20.6001 19.0261 20.3762 19.2499 20.1001 19.25H3.8999C3.62376 19.25 3.3999 19.0261 3.3999 18.75V5.25Z" fill="black"/>
<path d="M9.44043 6.6001C9.44043 6.32396 9.21657 6.1001 8.94043 6.1001C8.66429 6.1001 8.44043 6.32396 8.44043 6.6001V7.09583H6.24072C5.96458 7.09583 5.74072 7.31968 5.74072 7.59583C5.74072 7.87197 5.96458 8.09583 6.24072 8.09583H8.44043V16.3999C8.44043 16.676 8.66429 16.8999 8.94043 16.8999C9.21657 16.8999 9.44043 16.676 9.44043 16.3999V14.9111H11.6406C11.9167 14.911 12.1406 14.6872 12.1406 14.4111C12.1406 14.1351 11.9167 13.9112 11.6406 13.9111H9.44043V6.6001Z" fill="black"/>
<path d="M16.563 8.08747V6.60049C16.563 6.32435 16.3391 6.10049 16.063 6.10049C15.7868 6.10049 15.563 6.32435 15.563 6.60049V10.5745H13.3632C13.087 10.5745 12.8632 10.7984 12.8632 11.0745C12.8632 11.3507 13.087 11.5745 13.3632 11.5745L15.563 11.5745V14.831C15.563 15.1071 15.7868 15.331 16.063 15.331C16.3391 15.331 16.563 15.1071 16.563 14.831V9.08747H18.7632C19.0392 9.08737 19.2632 8.86355 19.2632 8.58747C19.2632 8.31139 19.0392 8.08758 18.7632 8.08747L16.563 8.08747Z" fill="black"/>
</svg>
