<svg width="24" height="24" viewBox="0 0 24 24" fill="none" xmlns="http://www.w3.org/2000/svg">
<path d="M21 19.25V20C21.4142 20 21.75 19.6642 21.75 19.25H21ZM3 19.25H2.25C2.25 19.6642 2.58579 20 3 20V19.25ZM3 4.25V3.5C2.58579 3.5 2.25 3.83579 2.25 4.25H3ZM21 4.25H21.75C21.75 3.83579 21.4142 3.5 21 3.5V4.25ZM21.5732 7.76597C21.8199 7.43322 21.7501 6.9635 21.4174 6.71683C21.0846 6.47016 20.6149 6.53994 20.3682 6.8727L20.9707 7.31934L21.5732 7.76597ZM15.1529 15.1675L14.6855 15.7541C14.8447 15.8809 15.0484 15.9376 15.2502 15.9112C15.4519 15.8848 15.6343 15.7776 15.7554 15.6142L15.1529 15.1675ZM8.54839 9.90522L9.01576 9.31864C8.85927 9.19396 8.65944 9.13697 8.46072 9.16036C8.262 9.18375 8.08087 9.28557 7.9576 9.44319L8.54839 9.90522ZM2.40921 16.5378C2.15404 16.8641 2.21169 17.3354 2.53797 17.5906C2.86425 17.8458 3.33561 17.7881 3.59079 17.4618L3 16.9998L2.40921 16.5378ZM7.85949 11.5551C7.56663 11.2622 7.09176 11.2621 6.79883 11.555C6.50591 11.8479 6.50585 12.3227 6.79871 12.6157L7.3291 12.0854L7.85949 11.5551ZM13.6287 19.4472C13.9216 19.7401 14.3964 19.7402 14.6894 19.4473C14.9823 19.1545 14.9824 18.6796 14.6895 18.3867L14.1591 18.917L13.6287 19.4472ZM6.069 14.2785C5.77569 13.986 5.30081 13.9867 5.00834 14.28C4.71587 14.5733 4.71655 15.0482 5.00986 15.3407L5.53943 14.8096L6.069 14.2785ZM9.30913 19.6276C9.60244 19.9201 10.0773 19.9194 10.3698 19.6261C10.6623 19.3328 10.6616 18.8579 10.3683 18.5655L9.8387 19.0966L9.30913 19.6276ZM17.5207 12.1925C17.2279 11.8995 16.7531 11.8994 16.4601 12.1922C16.1671 12.485 16.1669 12.9598 16.4597 13.2528L16.9902 12.7227L17.5207 12.1925ZM20.2107 17.0061C20.5035 17.2991 20.9784 17.2993 21.2713 17.0064C21.5643 16.7136 21.5645 16.2388 21.2717 15.9458L20.7412 16.476L20.2107 17.0061ZM14.8892 14.0732C14.5963 13.7803 14.1214 13.7803 13.8286 14.0732C13.5357 14.3661 13.5357 14.841 13.8286 15.1338L14.3589 14.6035L14.8892 14.0732ZM18.306 19.6113C18.5989 19.9042 19.0738 19.9042 19.3667 19.6113C19.6596 19.3184 19.6596 18.8435 19.3667 18.5506L18.8363 19.081L18.306 19.6113ZM19.9195 10.0722C19.6266 9.77931 19.1517 9.77932 18.8588 10.0722C18.5659 10.3651 18.5659 10.84 18.8588 11.1329L19.3892 10.6025L19.9195 10.0722ZM20.3644 12.6383C20.6573 12.9312 21.1321 12.9312 21.425 12.6383C21.7179 12.3454 21.7179 11.8705 21.425 11.5777L20.8947 12.108L20.3644 12.6383ZM21 19.25V18.5H3V19.25V20H21V19.25ZM3 19.25H3.75V4.25H3H2.25V19.25H3ZM21 19.25H21.75V4.25H21H20.25V19.25H21ZM21 4.25V3.5H3V4.25V5H21V4.25ZM21 6.47656H20.25V10.8984H21H21.75V6.47656H21ZM20.9707 7.31934L20.3682 6.8727L14.5504 14.7209L15.1529 15.1675L15.7554 15.6142L21.5732 7.76597L20.9707 7.31934ZM15.1529 15.1675L15.6203 14.581L9.01576 9.31864L8.54839 9.90522L8.08102 10.4918L14.6855 15.7541L15.1529 15.1675ZM8.54839 9.90522L7.9576 9.44319L2.40921 16.5378L3 16.9998L3.59079 17.4618L9.13918 10.3672L8.54839 9.90522ZM7.3291 12.0854L6.79871 12.6157L13.6287 19.4472L14.1591 18.917L14.6895 18.3867L7.85949 11.5551L7.3291 12.0854ZM5.53943 14.8096L5.00986 15.3407L9.30913 19.6276L9.8387 19.0966L10.3683 18.5655L6.069 14.2785L5.53943 14.8096ZM16.9902 12.7227L16.4597 13.2528L20.2107 17.0061L20.7412 16.476L21.2717 15.9458L17.5207 12.1925L16.9902 12.7227ZM14.3589 14.6035L13.8286 15.1338L18.306 19.6113L18.8363 19.081L19.3667 18.5506L14.8892 14.0732L14.3589 14.6035ZM19.3892 10.6025L18.8588 11.1329L20.3644 12.6383L20.8947 12.108L21.425 11.5777L19.9195 10.0722L19.3892 10.6025Z" fill="black"/>
</svg>
