<svg width="24" height="24" viewBox="0 0 24 24" fill="none" xmlns="http://www.w3.org/2000/svg">
<path d="M20.875 12.0001C20.875 16.9016 16.9015 20.8751 12 20.8751M20.875 12.0001C20.875 7.09856 16.9015 3.12509 12 3.12509M20.875 12.0001H3.125M12 20.8751C7.09847 20.8751 3.125 16.9016 3.125 12.0001M12 20.8751V3.12509M3.125 12.0001C3.125 7.09856 7.09847 3.12509 12 3.12509M16.375 11.9999C16.375 14.4161 14.4162 16.3749 12 16.3749C9.58375 16.3749 7.625 14.4161 7.625 11.9999C7.625 9.58366 9.58375 7.6249 12 7.6249C14.4162 7.6249 16.375 9.58366 16.375 11.9999Z" stroke="black" stroke-width="1.5" stroke-miterlimit="10" stroke-linejoin="round"/>
</svg>
