<svg xmlns="http://www.w3.org/2000/svg" fill="currentColor" viewBox="0 0 24 24" width="24" height="24"><path d="M22.327 20.1a0.607 0.607 0 0 1-0.607 0.607H2.28a0.607 0.607 0 0 1-0.607-0.607V3.9a0.608 0.608 0 0 1 1.215 0v1.369l5.873 5.873 2.811-2.809a0.607 0.607 0 0 1 0.859 0l6.253 6.252v-2.584a0.607 0.607 0 0 1 1.214 0v4.05a0.6 0.6 0 0 1-0.01 0.112v0.006a1.2 1.2 0 0 1-0.032 0.107v0.007a0.6 0.6 0 0 1-0.052 0.101v0.006a0.6 0.6 0 0 1-0.171 0.17h-0.006a0.6 0.6 0 0 1-0.101 0.053h-0.007a1.2 1.2 0 0 1-0.107 0.031h-0.006a0.6 0.6 0 0 1-0.111 0.011h-4.054a0.607 0.607 0 0 1 0-1.215h2.584l-5.824-5.818-2.81 2.809a0.607 0.607 0 0 1-0.859 0L2.888 6.988v12.506h18.833a0.607 0.607 0 0 1 0.607 0.607z"/></svg>