<svg viewBox="0 0 24 24" fill="none" xmlns="http://www.w3.org/2000/svg" width="24" height="24">
<path d="M1.155 3.9C1.155 3.569 1.424 3.3 1.755 3.3 2.086 3.3 2.355 3.569 2.355 3.9V19.5H21.195C21.526 19.5 21.795 19.769 21.795 20.1 21.795 20.431 21.526 20.7 21.195 20.7H1.755C1.424 20.7 1.155 20.431 1.155 20.1V3.9Z" fill="black"/>
<path fill-rule="evenodd" clip-rule="evenodd" d="M16.15 11.513L19.638 8.462C19.835 8.556 20.055 8.608 20.286 8.608 21.121 8.607 21.797 7.931 21.797 7.097 21.797 6.263 21.121 5.586 20.286 5.585 19.452 5.585 18.775 6.263 18.775 7.097 18.775 7.259 18.8 7.415 18.847 7.561L15.362 10.607C15.164 10.512 14.943 10.459 14.71 10.459 14.438 10.459 14.184 10.531 13.963 10.656L9.71 7.466C9.613 7.877 9.348 8.223 8.992 8.428L13.24 11.615C13.213 11.729 13.198 11.848 13.198 11.971 13.198 12.805 13.875 13.481 14.71 13.481 15.544 13.481 16.22 12.805 16.221 11.971 16.221 11.811 16.196 11.657 16.15 11.513ZM20.286 6.785C20.458 6.786 20.597 6.925 20.597 7.097 20.597 7.269 20.458 7.407 20.286 7.408 20.115 7.408 19.975 7.269 19.975 7.097 19.975 6.925 20.114 6.785 20.286 6.785ZM15.021 11.971C15.021 11.799 14.882 11.659 14.71 11.659 14.538 11.659 14.398 11.799 14.398 11.971 14.398 12.142 14.538 12.281 14.71 12.281 14.881 12.281 15.02 12.142 15.021 11.971Z" fill="black"/>
<path fill-rule="evenodd" clip-rule="evenodd" d="M18.876 12.174C18.81 12.005 18.775 11.822 18.775 11.63 18.775 10.796 19.452 10.119 20.286 10.119 21.121 10.119 21.797 10.796 21.797 11.63 21.797 12.465 21.121 13.141 20.286 13.141 20.085 13.141 19.893 13.102 19.718 13.03L16.099 16.713C16.177 16.896 16.221 17.097 16.221 17.308 16.22 18.142 15.544 18.818 14.71 18.819 13.875 18.819 13.198 18.142 13.198 17.308 13.198 17.248 13.202 17.189 13.209 17.13L9.195 14.95C8.934 15.162 8.602 15.29 8.239 15.29 7.912 15.29 7.609 15.186 7.361 15.009L4.154 17.042C4.169 17.128 4.177 17.217 4.177 17.308 4.177 18.142 3.501 18.818 2.667 18.819 2.286 18.819 1.939 18.678 1.673 18.446 1.436 18.24 1.265 17.961 1.192 17.644 1.168 17.536 1.155 17.424 1.155 17.308 1.155 16.473 1.832 15.796 2.667 15.796 2.971 15.796 3.254 15.887 3.492 16.042L6.741 13.983C6.732 13.916 6.728 13.848 6.728 13.779 6.728 12.945 7.405 12.268 8.239 12.268 9.074 12.268 9.75 12.945 9.75 13.779 9.75 13.815 9.749 13.849 9.746 13.884L13.812 16.092C14.063 15.906 14.374 15.796 14.71 15.796 14.892 15.796 15.066 15.828 15.227 15.887L18.876 12.174ZM20.286 11.319C20.458 11.319 20.597 11.459 20.597 11.63 20.597 11.802 20.458 11.941 20.286 11.941 20.115 11.941 19.975 11.802 19.975 11.63 19.975 11.458 20.114 11.319 20.286 11.319ZM8.55 13.779C8.55 13.608 8.411 13.468 8.239 13.468 8.068 13.468 7.928 13.608 7.928 13.779 7.928 13.951 8.068 14.09 8.239 14.09 8.411 14.09 8.55 13.951 8.55 13.779ZM14.71 16.996C14.882 16.997 15.021 17.136 15.021 17.308 15.02 17.48 14.881 17.618 14.71 17.619 14.538 17.619 14.398 17.48 14.398 17.308 14.398 17.136 14.538 16.996 14.71 16.996ZM2.667 16.996C2.838 16.997 2.977 17.136 2.977 17.308 2.977 17.48 2.838 17.618 2.667 17.619 2.495 17.619 2.355 17.48 2.355 17.308 2.355 17.136 2.495 16.996 2.667 16.996Z" fill="black"/>
<path fill-rule="evenodd" clip-rule="evenodd" d="M2.101 13.271C1.722 13.117 1.418 12.814 1.265 12.435 1.109 12.656 1.118 12.962 1.304 13.175 1.508 13.408 1.853 13.446 2.101 13.271Z" fill="black"/>
<path fill-rule="evenodd" clip-rule="evenodd" d="M6.728 7.118C6.728 7.276 6.752 7.428 6.797 7.571L3.397 10.546C3.181 10.426 2.932 10.358 2.667 10.358 1.832 10.358 1.155 11.035 1.155 11.869 1.155 12.069 1.194 12.26 1.264 12.435 1.418 12.814 1.721 13.117 2.101 13.27 2.276 13.341 2.467 13.38 2.667 13.38 3.501 13.38 4.177 12.703 4.177 11.869 4.177 11.741 4.161 11.617 4.131 11.498L7.581 8.478C7.78 8.575 8.004 8.629 8.239 8.629 8.514 8.628 8.771 8.555 8.992 8.428 9.348 8.223 9.613 7.877 9.71 7.466 9.736 7.354 9.75 7.238 9.75 7.118 9.75 6.283 9.074 5.607 8.239 5.606 7.405 5.606 6.728 6.283 6.728 7.118ZM8.208 7.427C8.051 7.411 7.928 7.279 7.928 7.118 7.928 6.946 8.068 6.806 8.239 6.806 8.411 6.807 8.55 6.946 8.55 7.118 8.55 7.289 8.411 7.428 8.239 7.429 8.229 7.429 8.218 7.428 8.208 7.427ZM2.977 11.869C2.977 11.697 2.838 11.558 2.667 11.558 2.495 11.558 2.355 11.697 2.355 11.869 2.355 12.041 2.495 12.18 2.667 12.18 2.838 12.18 2.977 12.041 2.977 11.869Z" fill="black"/>
</svg>