<svg width="24" height="24" viewBox="0 0 24 24" fill="none" xmlns="http://www.w3.org/2000/svg">
<path fill-rule="evenodd" clip-rule="evenodd" d="M14.1241 4.08456L18.0796 4.07519C18.3556 4.07519 18.5793 4.29928 18.5796 4.57519L18.5796 18.9258L19.4297 18.9258C19.7058 18.9258 19.9297 19.1496 19.9297 19.4258C19.9297 19.7019 19.7058 19.9258 19.4297 19.9258L18.0796 19.9258L14.0298 19.9258L9.97998 19.9258L5.92969 19.9258L4.58008 19.9258C4.30394 19.9258 4.08008 19.7019 4.08008 19.4258C4.08008 19.1496 4.30394 18.9258 4.58008 18.9258L5.42969 18.9258L5.42969 4.5752C5.42995 4.29928 5.65371 4.0752 5.92969 4.0752L9.97949 4.0752C9.99006 4.0752 10.0006 4.07553 10.011 4.07617L13.9983 4.07617L14.0351 4.0762V4.0762L14.1241 4.08456C14.1316 4.086 14.1367 4.08762 14.1443 4.08941C14.2714 4.12122 14.3893 4.2129 14.4582 4.32297C14.479 4.35915 14.4997 4.4041 14.5114 4.44312C14.5024 4.41276 14.4906 4.38334 14.4763 4.35526V4.35526L14.4716 4.34635V4.34635V4.34635L14.4641 4.33277L14.4582 4.32297V4.32297V4.32297C14.4169 4.25522 14.3583 4.19206 14.2933 4.15122C14.2869 4.14722 14.2803 4.14336 14.2737 4.13965V4.13965L14.2631 4.13387L14.2506 4.12748V4.12748C14.2388 4.12174 14.2267 4.11642 14.2146 4.11146C14.1857 4.09963 14.1554 4.09055 14.1241 4.08456ZM17.5796 13.175L17.5796 18.9258L14.5298 18.9258L14.5298 13.175L17.5796 13.175ZM17.5796 5.07519L17.5796 12.175L14.5298 12.175L14.5298 5.07519L17.5796 5.07519ZM10.4796 8.12598L13.5298 8.12598L13.5298 5.07617L10.48 5.07617L10.4796 8.12598ZM13.5298 18.9258L13.5298 9.12598L10.4796 9.12598L10.48 18.9258L13.5298 18.9258ZM6.42969 5.07739L9.47949 5.0752L9.4796 8.1273L9.47972 11.6294L9.47985 15.129L6.42969 15.1287L6.42969 12.0789L6.42969 8.57935L6.42969 5.07739ZM9.47998 18.9258L9.47988 16.1287L6.42969 16.1287L6.42969 18.9258L9.47998 18.9258Z" fill="black"/>
</svg>
