<svg viewBox="0 0 24 24" fill="none" xmlns="http://www.w3.org/2000/svg" width="24" height="24">
<path fill-rule="evenodd" clip-rule="evenodd" d="M19.896 20.31L19.896 11.189C19.895 10.858 19.627 10.589 19.296 10.589L15.036 10.589 15.036 3.09C15.036 2.759 14.767 2.49 14.436 2.49L9.576 2.49C9.245 2.49 8.976 2.759 8.976 3.09L8.976 7.35 4.716 7.35C4.384 7.35 4.116 7.619 4.116 7.95L4.116 20.31 3.096 20.31C2.765 20.31 2.496 20.578 2.496 20.91 2.496 21.241 2.765 21.51 3.096 21.51L20.916 21.51C21.247 21.51 21.516 21.241 21.516 20.91 21.516 20.578 21.247 20.31 20.916 20.31L19.896 20.31ZM15.036 20.31L15.036 16.65 18.696 16.65 18.696 20.31 15.036 20.31ZM18.696 15.45L15.036 15.45 15.036 11.79 18.696 11.789 18.696 15.45ZM10.175 20.31L13.836 20.31 13.836 8.55 10.175 8.55 10.175 20.31ZM13.836 7.35L10.176 7.35 10.176 3.69 13.836 3.69 13.836 7.35ZM8.975 20.31L8.975 16.953 5.316 16.953 5.316 20.31 8.975 20.31ZM5.316 15.753L8.975 15.753 8.975 8.55 5.316 8.553 5.316 15.753Z" fill="black"/>
</svg>