<svg viewBox="0 0 24 24" fill="none" xmlns="http://www.w3.org/2000/svg" width="24" height="24">
<path d="M1.155 3.9C1.155 3.569 1.424 3.3 1.755 3.3 2.086 3.3 2.355 3.569 2.355 3.9V19.5H21.195C21.526 19.5 21.795 19.769 21.795 20.1 21.795 20.431 21.526 20.7 21.195 20.7H1.755C1.424 20.7 1.155 20.431 1.155 20.1V3.9Z" fill="black"/>
<path d="M8.069 7.424C7.859 7.476 7.692 7.636 7.634 7.845 7.575 8.054 7.634 8.278 7.787 8.431L14.595 15.239C12.389 15.76 10.391 16.188 8.882 16.492 8.011 16.668 7.303 16.804 6.814 16.896 6.57 16.942 6.38 16.977 6.251 17 6.187 17.012 6.137 17.022 6.105 17.027 6.088 17.03 6.076 17.032 6.067 17.033 6.064 17.034 6.061 17.034 6.059 17.035L6.057 17.036C5.73 17.093 5.513 17.405 5.57 17.731 5.621 18.016 5.865 18.219 6.144 18.226L6.265 18.217 6.268 18.216C6.27 18.216 6.274 18.216 6.278 18.215 6.287 18.213 6.3 18.21 6.317 18.207 6.351 18.201 6.401 18.193 6.466 18.181 6.597 18.157 6.789 18.121 7.036 18.075 7.53 17.982 8.243 17.845 9.12 17.668 10.874 17.314 13.287 16.8 15.922 16.158 16.132 16.107 16.299 15.946 16.357 15.737 16.416 15.528 16.357 15.305 16.204 15.151L9.395 8.342C11.471 7.853 13.451 7.431 14.983 7.12 15.875 6.939 16.615 6.796 17.131 6.698 17.389 6.648 17.592 6.61 17.729 6.585 17.797 6.572 17.85 6.562 17.886 6.556 17.903 6.553 17.916 6.55 17.924 6.548 17.929 6.548 17.932 6.547 17.934 6.547H17.938C18.264 6.488 18.481 6.175 18.422 5.849 18.362 5.523 18.05 5.306 17.724 5.365 17.723 5.365 17.721 5.366 17.72 5.366 17.717 5.366 17.714 5.368 17.709 5.368 17.7 5.37 17.686 5.373 17.668 5.376 17.632 5.382 17.579 5.393 17.509 5.406 17.37 5.432 17.166 5.469 16.906 5.518 16.386 5.618 15.642 5.763 14.744 5.945 12.949 6.309 10.536 6.824 8.069 7.424Z" fill="black"/>
</svg>