<svg width="24" height="24" viewBox="0 0 24 24" fill="none" xmlns="http://www.w3.org/2000/svg">
<path d="M21 20.25C21.4142 20.25 21.75 19.9142 21.75 19.5C21.75 19.0858 21.4142 18.75 21 18.75V19.5V20.25ZM3 19.5H2.25C2.25 19.9142 2.58579 20.25 3 20.25V19.5ZM3.75 4.5C3.75 4.08579 3.41421 3.75 3 3.75C2.58579 3.75 2.25 4.08579 2.25 4.5H3H3.75ZM21.0023 5.44556L21.7523 5.44558C21.7523 5.11107 21.5307 4.81699 21.2092 4.72468C20.8877 4.63237 20.5439 4.76415 20.3665 5.04771L21.0023 5.44556ZM14.5274 15.7928L14.1205 16.4228C14.2891 16.5318 14.4944 16.5686 14.6904 16.5249C14.8864 16.4813 15.0567 16.3609 15.1632 16.1907L14.5274 15.7928ZM8.31607 11.7801L8.72305 11.1501C8.42039 10.9546 8.02146 11.002 7.77296 11.2629L8.31607 11.7801ZM2.45689 16.8448C2.17123 17.1447 2.18281 17.6195 2.48276 17.9051C2.78271 18.1908 3.25744 18.1792 3.54311 17.8793L3 17.362L2.45689 16.8448ZM20.2518 19.4999C20.2518 19.9141 20.5876 20.2499 21.0018 20.2499C21.416 20.2499 21.7518 19.9141 21.7518 19.4999L21.0018 19.4999L20.2518 19.4999ZM3.70099 8.2273C3.44696 7.90013 2.9758 7.84083 2.64863 8.09485C2.32145 8.34888 2.26215 8.82004 2.51618 9.14721L3.10858 8.68726L3.70099 8.2273ZM6.76948 13.4023L6.17708 13.8623C6.31096 14.0347 6.51334 14.1403 6.73138 14.1514C6.94941 14.1625 7.16145 14.078 7.31215 13.92L6.76948 13.4023ZM10.8828 13.4336L10.479 14.0656C10.7915 14.2653 11.203 14.2066 11.4472 13.9275L10.8828 13.4336ZM13.9311 9.95031L14.4721 9.43086C14.3265 9.27922 14.124 9.19565 13.9138 9.20051C13.7036 9.20536 13.5052 9.29819 13.3667 9.45638L13.9311 9.95031ZM8.30854 11.7891L8.71232 11.157C8.41008 10.9639 8.01344 11.0119 7.76588 11.2714L8.30854 11.7891ZM15.9472 13.1328C16.234 13.4316 16.7088 13.4413 17.0076 13.1544C17.3064 12.8675 17.316 12.3927 17.0292 12.094L16.4882 12.6134L15.9472 13.1328ZM7.43939 12.6367C7.14649 12.3438 6.67162 12.3438 6.37873 12.6367C6.08583 12.9296 6.08583 13.4044 6.37873 13.6973L6.90906 13.167L7.43939 12.6367ZM12.3787 19.6973C12.6716 19.9902 13.1465 19.9902 13.4394 19.6973C13.7323 19.4044 13.7323 18.9296 13.4394 18.6367L12.9091 19.167L12.3787 19.6973ZM5.40097 15.113C5.10756 14.8206 4.63269 14.8215 4.34032 15.1149C4.04794 15.4083 4.04878 15.8832 4.34219 16.1756L4.87158 15.6443L5.40097 15.113ZM7.94636 19.767C8.23977 20.0594 8.71464 20.0585 9.00701 19.7651C9.29939 19.4717 9.29855 18.9968 9.00514 18.7045L8.47575 19.2357L7.94636 19.767ZM16.9527 13.1288C16.6598 12.836 16.1849 12.836 15.892 13.1288C15.5991 13.4217 15.5991 13.8966 15.892 14.1895L16.4224 13.6592L16.9527 13.1288ZM20.4192 18.7166C20.7121 19.0095 21.1869 19.0095 21.4798 18.7166C21.7727 18.4238 21.7727 17.9489 21.4798 17.656L20.9495 18.1863L20.4192 18.7166ZM13.6392 14.3232C13.3463 14.0303 12.8714 14.0303 12.5786 14.3232C12.2857 14.6161 12.2857 15.091 12.5786 15.3838L13.1089 14.8535L13.6392 14.3232ZM17.056 19.8613C17.3489 20.1542 17.8238 20.1542 18.1167 19.8613C18.4096 19.5684 18.4096 19.0935 18.1167 18.8006L17.5863 19.331L17.056 19.8613ZM18.4501 10.1069C18.1572 9.81398 17.6824 9.81398 17.3895 10.1069C17.0966 10.3998 17.0966 10.8746 17.3895 11.1675L17.9198 10.6372L18.4501 10.1069ZM20.3747 14.1528C20.6676 14.4457 21.1425 14.4457 21.4354 14.1528C21.7283 13.8599 21.7283 13.385 21.4354 13.0921L20.9051 13.6225L20.3747 14.1528ZM21 19.5V18.75H3V19.5V20.25H21V19.5ZM3 19.5H3.75V4.5H3H2.25V19.5H3ZM21.0023 5.44556L20.3665 5.04771L13.8917 15.395L14.5274 15.7928L15.1632 16.1907L21.638 5.8434L21.0023 5.44556ZM14.5274 15.7928L14.9344 15.1629L8.72305 11.1501L8.31607 11.7801L7.90909 12.4101L14.1205 16.4228L14.5274 15.7928ZM8.31607 11.7801L7.77296 11.2629L2.45689 16.8448L3 17.362L3.54311 17.8793L8.85917 12.2974L8.31607 11.7801ZM21 6.72656H20.25V11.1484H21H21.75V6.72656H21ZM21.0023 5.44556L20.2523 5.44553L20.2518 19.4999L21.0018 19.4999L21.7518 19.4999L21.7523 5.44558L21.0023 5.44556ZM3.10858 8.68726L2.51618 9.14721L6.17708 13.8623L6.76948 13.4023L7.36188 12.9424L3.70099 8.2273L3.10858 8.68726ZM10.8828 13.4336L11.4472 13.9275L14.4955 10.4442L13.9311 9.95031L13.3667 9.45638L10.3184 12.9397L10.8828 13.4336ZM6.76948 13.4023L7.31215 13.92L8.85121 12.3068L8.30854 11.7891L7.76588 11.2714L6.22682 12.8846L6.76948 13.4023ZM8.30854 11.7891L7.90477 12.4211L10.479 14.0656L10.8828 13.4336L11.2865 12.8016L8.71232 11.157L8.30854 11.7891ZM13.9311 9.95031L13.3901 10.4698L15.9472 13.1328L16.4882 12.6134L17.0292 12.094L14.4721 9.43086L13.9311 9.95031ZM6.90906 13.167L6.37873 13.6973L12.3787 19.6973L12.9091 19.167L13.4394 18.6367L7.43939 12.6367L6.90906 13.167ZM4.87158 15.6443L4.34219 16.1756L7.94636 19.767L8.47575 19.2357L9.00514 18.7045L5.40097 15.113L4.87158 15.6443ZM16.4224 13.6592L15.892 14.1895L20.4192 18.7166L20.9495 18.1863L21.4798 17.656L16.9527 13.1288L16.4224 13.6592ZM13.1089 14.8535L12.5786 15.3838L17.056 19.8613L17.5863 19.331L18.1167 18.8006L13.6392 14.3232L13.1089 14.8535ZM17.9198 10.6372L17.3895 11.1675L20.3747 14.1528L20.9051 13.6225L21.4354 13.0921L18.4501 10.1069L17.9198 10.6372Z" fill="black"/>
</svg>
