<svg width="24" height="24" viewBox="0 0 24 24" fill="none" xmlns="http://www.w3.org/2000/svg">
<path fill-rule="evenodd" clip-rule="evenodd" d="M18.5796 18.9248L18.5796 11.3242C18.5793 11.0483 18.3556 10.8242 18.0796 10.8242L14.5298 10.8242L14.5298 4.57519C14.5298 4.29905 14.3059 4.07519 14.0298 4.07519L9.97998 4.0752C9.70384 4.0752 9.47998 4.29905 9.47998 4.5752L9.47986 8.125L5.92969 8.125C5.65354 8.125 5.42969 8.34886 5.42969 8.625L5.42969 18.9248L4.58008 18.9248C4.30394 18.9248 4.08008 19.1487 4.08008 19.4248C4.08008 19.7009 4.30394 19.9248 4.58008 19.9248L19.4297 19.9248C19.7058 19.9248 19.9297 19.7009 19.9297 19.4248C19.9297 19.1487 19.7058 18.9248 19.4297 18.9248L18.5796 18.9248ZM14.5298 18.9248L14.5298 15.875L17.5796 15.875L17.5796 18.9248L14.5298 18.9248ZM17.5801 14.875L14.5298 14.875L14.5298 11.8247L17.5796 11.8242L17.5801 14.875ZM10.4795 18.9248L13.5298 18.9248L13.5298 9.125L10.4795 9.125L10.4795 18.9248ZM13.5298 8.125L10.4799 8.125L10.48 5.0752L13.5298 5.07519L13.5298 8.125ZM9.47949 18.9248L9.47949 16.1279L6.42969 16.1279L6.42969 18.9248L9.47949 18.9248ZM6.42969 15.1279L9.47949 15.1279L9.47949 9.125L6.42969 9.12744L6.42969 15.1279Z" fill="black"/>
</svg>
