<svg width="24" height="24" viewBox="0 0 24 24" fill="none" xmlns="http://www.w3.org/2000/svg">
<path d="M20.91 11.9998C20.91 16.9206 16.6179 20.91 11.8048 20.91C6.99174 20.91 3.08997 16.9208 3.08997 12M20.91 11.9998C20.91 7.07893 16.6179 3.08997 11.8048 3.08997C6.99174 3.08997 3.08997 7.07912 3.08997 12M20.91 11.9998L3.08997 12M12 20.915L12 3.095M12 2.25122C12.4658 2.25122 12.8434 2.62881 12.8434 3.0946C12.8434 3.56038 12.4658 3.93799 12 3.93799C11.5342 3.93799 11.1566 3.56038 11.1566 3.0946C11.1566 2.62881 11.5342 2.25122 12 2.25122ZM12.0001 20.062C12.4659 20.062 12.8435 20.4396 12.8435 20.9054C12.8435 21.3712 12.4659 21.7488 12.0001 21.7488C11.5343 21.7488 11.1567 21.3712 11.1567 20.9054C11.1567 20.4396 11.5343 20.062 12.0001 20.062ZM3.0946 11.1566C3.56038 11.1566 3.93799 11.5342 3.93799 12C3.93799 12.4658 3.56038 12.8434 3.0946 12.8434C2.62881 12.8434 2.25122 12.4658 2.25122 12C2.25122 11.5342 2.62881 11.1566 3.0946 11.1566ZM20.9054 11.1566C21.3712 11.1566 21.7488 11.5342 21.7488 12C21.7488 12.4658 21.3712 12.8434 20.9054 12.8434C20.4396 12.8434 20.062 12.4658 20.062 12C20.062 11.5342 20.4396 11.1566 20.9054 11.1566ZM16.3999 12C16.3999 14.4301 14.43 16.4 11.9999 16.4C9.56986 16.4 7.59991 14.4301 7.59991 12C7.59991 9.56998 9.56986 7.60003 11.9999 7.60003C14.43 7.60003 16.3999 9.56998 16.3999 12Z" stroke="black" stroke-width="1.5" stroke-linejoin="round"/>
</svg>
