<svg width="24" height="24" viewBox="0 0 24 24" fill="none" xmlns="http://www.w3.org/2000/svg">
<path d="M2.9624 5.25C2.9624 4.97386 3.18626 4.75 3.4624 4.75C3.73854 4.75 3.9624 4.97386 3.9624 5.25V18.25H19.6626C19.9387 18.2501 20.1626 18.4739 20.1626 18.75C20.1626 19.0261 19.9387 19.2499 19.6626 19.25H3.4624C3.18626 19.25 2.9624 19.0261 2.9624 18.75V5.25Z" fill="black"/>
<path fill-rule="evenodd" clip-rule="evenodd" d="M9.65217 9.96597C10.0053 9.74302 10.2398 9.34939 10.2399 8.90087C10.2399 8.64349 10.1627 8.40409 10.0303 8.2046C10.2474 8.02312 10.5177 7.86923 10.8375 7.74021C11.5461 7.4543 12.4348 7.31872 13.3303 7.27341C14.1824 7.23031 15.0118 7.27036 15.6474 7.3243C15.8001 7.84795 16.284 8.23047 16.8569 8.23047C17.5522 8.23026 18.1155 7.6669 18.1157 6.97168C18.1157 6.27628 17.5523 5.71213 16.8569 5.71191C16.3953 5.71191 15.9916 5.96043 15.7722 6.33092C15.1034 6.27291 14.2087 6.22785 13.2792 6.2749C12.3342 6.32272 11.3203 6.46735 10.4639 6.81282C9.97493 7.01008 9.51697 7.282 9.15609 7.65322C9.09891 7.64525 9.04051 7.64112 8.98115 7.64111C8.28561 7.64111 7.72138 8.20534 7.72138 8.90087C7.72155 9.44952 8.0728 9.91605 8.5626 10.0885C8.72902 10.478 9.01783 10.7902 9.34452 11.0451C9.99216 11.5503 10.921 11.9267 11.7631 12.268L11.8125 12.2881C12.7117 12.6526 13.5139 12.9823 14.0402 13.3929C14.1135 13.4501 14.1785 13.5068 14.2356 13.563C13.9735 13.7938 13.8081 14.1319 13.8081 14.5085C13.8082 14.8181 13.9201 15.1015 14.1055 15.3207C13.8691 15.5572 13.5522 15.7517 13.1618 15.9092C12.4531 16.1951 11.5651 16.3314 10.6697 16.3767C9.81775 16.4198 8.9884 16.3792 8.3529 16.3252C8.19739 15.8063 7.71642 15.4279 7.14697 15.4277C6.45144 15.4277 5.88721 15.992 5.88721 16.6875C5.88742 17.3829 6.45157 17.9463 7.14697 17.9463C7.61191 17.9461 8.01788 17.6941 8.23587 17.3193C8.90366 17.3769 9.79466 17.4214 10.7201 17.3745C11.6651 17.3267 12.6795 17.1828 13.5361 16.8373C14.1208 16.6014 14.6612 16.2587 15.0443 15.7671L15.0679 15.7673C15.7631 15.7671 16.3264 15.2038 16.3267 14.5085C16.3267 13.8854 15.8742 13.3676 15.2798 13.2666C15.1144 13.0099 14.8952 12.7922 14.6554 12.605C14.0057 12.0981 13.0732 11.7201 12.2289 11.3779L12.1881 11.3614C11.2887 10.9968 10.4855 10.6672 9.9591 10.2565C9.83307 10.1582 9.73163 10.0614 9.65217 9.96597ZM16.8569 6.71191C17 6.71212 17.1157 6.82856 17.1157 6.97168C17.1155 7.11462 16.9999 7.23026 16.8569 7.23047C16.7138 7.23047 16.5974 7.11475 16.5972 6.97168C16.5972 6.82843 16.7137 6.71191 16.8569 6.71191ZM8.98115 8.64111C9.12422 8.64132 9.23994 8.75775 9.23994 8.90087C9.23973 9.04381 9.12409 9.15945 8.98115 9.15966C8.83803 9.15966 8.72159 9.04394 8.72138 8.90087C8.72138 8.75762 8.8379 8.64111 8.98115 8.64111ZM15.0679 14.2488C15.2109 14.249 15.3267 14.3654 15.3267 14.5085C15.3264 14.6515 15.2108 14.7671 15.0679 14.7673C14.9247 14.7673 14.8083 14.6516 14.8081 14.5085C14.8081 14.3653 14.9246 14.2488 15.0679 14.2488ZM7.40576 16.6875C7.40576 16.5444 7.29004 16.4279 7.14697 16.4277C7.00372 16.4277 6.88721 16.5443 6.88721 16.6875C6.88742 16.8306 7.00385 16.9463 7.14697 16.9463C7.28991 16.9461 7.40555 16.8304 7.40576 16.6875Z" fill="black"/>
</svg>
