<svg xmlns="http://www.w3.org/2000/svg" width="24" height="24" fill="currentColor" viewBox="0 0 24 24"><path d="M12 3.394a.506.506 0 0 0-.506.506v4.725a.506.506 0 0 0 .506.506 2.869 2.869 0 1 1-2.485 1.434.506.506 0 0 0-.186-.692L5.237 7.51a.506.506 0 0 0-.692.186A8.606 8.606 0 1 0 12 3.393zM5.183 8.65l3.231 1.865a3.9 3.9 0 0 0-.295 1.486 4 4 0 0 0 .034.506l-3.603.966a7.6 7.6 0 0 1 .634-4.823zm-.371 5.797 3.603-.965a3.89 3.89 0 0 0 3.079 2.363v3.729a7.61 7.61 0 0 1-6.682-5.127m7.694 5.13v-3.729a3.881 3.881 0 0 0 0-7.696V4.423a7.594 7.594 0 0 1 0 15.154"/></svg>