<svg viewBox="0 0 24 24" fill="none" xmlns="http://www.w3.org/2000/svg" width="24" height="24">
<path fill-rule="evenodd" clip-rule="evenodd" d="M4.5 19.89H13.621C13.952 19.889 14.221 19.621 14.221 19.29V15.03H21.72C22.051 15.03 22.32 14.761 22.32 14.43V9.57C22.32 9.239 22.051 8.97 21.72 8.97L17.46 8.97V4.71C17.46 4.378 17.191 4.11 16.86 4.11H4.5V3.09C4.5 2.759 4.231 2.49 3.9 2.49 3.569 2.49 3.3 2.759 3.3 3.09V20.91C3.3 21.241 3.569 21.51 3.9 21.51 4.231 21.51 4.5 21.241 4.5 20.91V19.89ZM4.5 15.03H8.16V18.69H4.5V15.03ZM9.36 18.69V15.03H13.02L13.021 18.69 9.36 18.69ZM4.5 10.17V13.83H16.26V10.17H4.5ZM17.46 13.83V10.17L21.12 10.17V13.83H17.46ZM4.5 8.97H7.856V5.31H4.5V8.97ZM9.056 5.31V8.97H16.26L16.257 5.31H9.056Z" fill="black"/>
</svg>