<svg xmlns="http://www.w3.org/2000/svg" width="24" height="24" fill="currentColor" viewBox="0 0 24 24"><path d="M12 1.673A10.327 10.327 0 1 0 22.327 12 10.339 10.339 0 0 0 12 1.673m9.092 9.72h-2.845a6.288 6.288 0 0 0-5.64-5.64V2.908a9.127 9.127 0 0 1 8.485 8.485m-9.699 0H6.976a5.071 5.071 0 0 1 4.417-4.417z m0 1.215v4.418a5.071 5.071 0 0 1-4.417-4.418z m1.215 0h4.418a5.071 5.071 0 0 1-4.418 4.418z m0-1.214V6.977a5.071 5.071 0 0 1 4.418 4.417z m-1.215-8.485v2.845a6.288 6.288 0 0 0-5.64 5.64H2.908a9.127 9.127 0 0 1 8.485-8.485m-8.485 9.699h2.845a6.288 6.288 0 0 0 5.64 5.64v2.846a9.127 9.127 0 0 1-8.485-8.486m9.699 8.486v-2.846a6.288 6.288 0 0 0 5.64-5.64h2.845a9.127 9.127 0 0 1-8.485 8.486"/></svg>