<svg viewBox="0 0 24 24" fill="none" xmlns="http://www.w3.org/2000/svg" width="24" height="24">
<path d="M1.155 3.9C1.155 3.569 1.424 3.3 1.755 3.3 2.086 3.3 2.355 3.569 2.355 3.9V19.5H21.195C21.526 19.5 21.795 19.769 21.795 20.1 21.795 20.431 21.526 20.7 21.195 20.7H1.755C1.424 20.7 1.155 20.431 1.155 20.1V3.9Z" fill="black"/>
<path d="M10.157 5.775C9.126 6.191 8.21 6.883 7.839 8.012 7.646 8.6 7.654 9.153 7.855 9.657 8.051 10.147 8.408 10.538 8.813 10.854 9.606 11.472 10.749 11.93 11.775 12.346 12.854 12.783 13.817 13.179 14.448 13.671 14.754 13.911 14.94 14.142 15.03 14.368 15.115 14.58 15.137 14.841 15.021 15.194 14.801 15.862 14.242 16.349 13.394 16.691 12.544 17.034 11.478 17.198 10.404 17.252 9.336 17.306 8.298 17.25 7.524 17.182 7.138 17.147 6.82 17.109 6.599 17.081 6.489 17.066 6.403 17.054 6.346 17.046 6.317 17.041 6.295 17.038 6.281 17.036 6.274 17.035 6.269 17.034 6.265 17.033 6.264 17.033 6.263 17.033 6.262 17.033 5.935 16.98 5.625 17.201 5.572 17.528 5.518 17.855 5.74 18.164 6.067 18.217L6.164 17.625C6.076 18.162 6.068 18.213 6.067 18.217H6.071C6.072 18.218 6.074 18.219 6.076 18.219 6.08 18.22 6.087 18.219 6.095 18.221 6.113 18.223 6.137 18.228 6.169 18.233 6.233 18.243 6.325 18.256 6.443 18.271 6.677 18.302 7.012 18.341 7.417 18.377 8.225 18.449 9.323 18.507 10.464 18.449 11.598 18.392 12.815 18.219 13.843 17.805 14.874 17.389 15.79 16.697 16.161 15.568 16.355 14.98 16.346 14.427 16.144 13.923 15.948 13.432 15.592 13.043 15.186 12.726 14.394 12.108 13.252 11.65 12.226 11.234 11.146 10.796 10.183 10.401 9.551 9.908 9.245 9.669 9.059 9.438 8.969 9.212 8.885 9 8.863 8.74 8.979 8.386 9.199 7.718 9.757 7.23 10.605 6.888 11.455 6.545 12.522 6.382 13.596 6.328 14.663 6.274 15.701 6.329 16.475 6.398 16.861 6.432 17.18 6.469 17.401 6.498 17.51 6.512 17.596 6.525 17.653 6.534 17.682 6.538 17.704 6.541 17.718 6.544 17.725 6.545 17.73 6.545 17.734 6.546L17.738 6.547C18.065 6.6 18.374 6.378 18.427 6.051 18.481 5.724 18.259 5.415 17.932 5.362H17.93C17.929 5.362 17.926 5.361 17.924 5.361 17.92 5.36 17.913 5.359 17.904 5.358 17.887 5.355 17.862 5.352 17.831 5.347 17.767 5.338 17.674 5.323 17.556 5.308 17.322 5.277 16.987 5.238 16.582 5.202 15.774 5.13 14.676 5.072 13.535 5.13 12.401 5.187 11.184 5.361 10.157 5.775Z" fill="black"/>
</svg>