<svg width="24" height="24" viewBox="0 0 24 24" fill="none" xmlns="http://www.w3.org/2000/svg">
<path d="M16.0719 4.49951C16.0719 4.73386 16.0436 4.8386 16.0165 5.00615C15.9894 5.1737 15.9063 5.32711 15.7808 5.4413L13.2573 7.72201C13.2153 7.76133 13.1683 7.79504 13.1176 7.82232M13.1176 7.82232L11.9655 8.456C11.8549 8.51768 11.7303 8.54995 11.6037 8.54974H10.0373C9.90547 8.54955 9.77592 8.58411 9.66171 8.64994C9.54749 8.71577 9.45265 8.81054 9.38674 8.92471L8.13811 11.1051M13.1176 7.82232L9.66171 4.50244M7.37878 4.54028L6.27452 7.15096C6.19993 7.32769 6.1959 7.52629 6.26327 7.7059L7.34128 10.5809C7.38558 10.6984 7.45865 10.8029 7.55381 10.8848C7.64897 10.9666 7.76316 11.0233 7.88592 11.0496L9.89478 11.4818C10.0062 11.5057 10.1107 11.5546 10.2004 11.625C10.29 11.6953 10.3625 11.7851 10.4122 11.8877L10.7684 12.6254C10.8299 12.7522 10.9258 12.859 11.0451 12.9338C11.1645 13.0086 11.3025 13.0482 11.4434 13.0482H12.737L19.3285 19.4975M21.0013 15.6744L16.09 12.6984C16.0007 12.644 15.9011 12.6085 15.7975 12.5943L13.6583 12.3056C13.4977 12.2839 13.3343 12.3148 13.1927 12.3937C13.051 12.4726 12.9388 12.5953 12.8728 12.7434L11.5885 15.625C11.5289 15.7591 11.5098 15.9077 11.5338 16.0525C11.5578 16.1973 11.6238 16.3319 11.7235 16.4396L13.574 18.3453C13.6542 18.4316 13.713 18.5355 13.7455 18.6487C13.7781 18.7619 13.6515 19.3819 13.6294 19.4975M14.2855 4.5354L15.4816 5.71174M6.83599 6.10522L9.4902 8.78559M2.9989 6.00244L2.9989 17.9975C2.9989 18.826 3.67047 19.4975 4.4989 19.4975L19.5013 19.4975C20.3297 19.4975 21.0013 18.826 21.0013 17.9975V6.00244C21.0013 5.17401 20.3297 4.50244 19.5013 4.50244L4.4989 4.50244C3.67047 4.50244 2.9989 5.17401 2.9989 6.00244Z" stroke="black" stroke-width="1.5" stroke-linecap="round" stroke-linejoin="round"/>
</svg>
