<svg viewBox="0 0 24 24" fill="none" xmlns="http://www.w3.org/2000/svg" width="24" height="24">
<path fill-rule="evenodd" clip-rule="evenodd" d="M14.22 15.03H21.72C22.051 15.03 22.32 14.761 22.32 14.43V9.57C22.32 9.239 22.051 8.97 21.72 8.97H17.46V4.71C17.46 4.378 17.191 4.11 16.86 4.11H4.5V3.09C4.5 2.759 4.231 2.49 3.9 2.49 3.569 2.49 3.3 2.759 3.3 3.09V4.71 9.57 14.43 19.29 20.91C3.3 21.241 3.569 21.51 3.9 21.51 4.231 21.51 4.5 21.241 4.5 20.91V19.89H13.62C13.951 19.89 14.22 19.621 14.22 19.29V15.03ZM13.02 18.69H4.5V15.03H13.02V18.69ZM13.62 13.83H4.5V10.17L16.86 10.17 21.12 10.17V13.83H13.62ZM4.5 5.31V8.97H16.26V5.31H4.5Z" fill="black"/>
</svg>