<svg width="24" height="24" viewBox="0 0 24 24" fill="none" xmlns="http://www.w3.org/2000/svg">
<path fill-rule="evenodd" clip-rule="evenodd" d="M5.75 18.5747H13.3506C13.6265 18.5744 13.8506 18.3507 13.8506 18.0747V14.5249H20.0996C20.3758 14.5249 20.5996 14.301 20.5996 14.0249V9.9751C20.5996 9.69896 20.3758 9.4751 20.0996 9.4751L16.5498 9.47498V5.9248C16.5498 5.64866 16.3259 5.4248 16.0498 5.4248H5.75V4.5752C5.75 4.29905 5.52614 4.0752 5.25 4.0752C4.97386 4.0752 4.75 4.29905 4.75 4.5752V19.4248C4.75 19.7009 4.97386 19.9248 5.25 19.9248C5.52614 19.9248 5.75 19.7009 5.75 19.4248V18.5747ZM5.75 14.5249H8.7998V17.5747H5.75V14.5249ZM9.7998 17.5752V14.5249H12.8501L12.8506 17.5747L9.7998 17.5752ZM5.75 10.4746V13.5249H15.5498V10.4746H5.75ZM16.5498 13.5249V10.475L19.5996 10.4751V13.5249H16.5498ZM5.75 9.47461H8.54688V6.4248H5.75V9.47461ZM9.54688 6.4248V9.47461H15.5498L15.5474 6.4248H9.54688Z" fill="black"/>
</svg>
