<svg width="24" height="24" viewBox="0 0 24 24" fill="none" xmlns="http://www.w3.org/2000/svg">
<path fill-rule="evenodd" clip-rule="evenodd" d="M13.8496 14.5249H20.0996C20.3758 14.5249 20.5996 14.301 20.5996 14.0249V9.9751C20.5996 9.69896 20.3758 9.4751 20.0996 9.4751H16.5498V5.9248C16.5498 5.64866 16.3259 5.4248 16.0498 5.4248H5.75V4.5752C5.75 4.29905 5.52614 4.0752 5.25 4.0752C4.97386 4.0752 4.75 4.29905 4.75 4.5752V5.9248V9.9751V14.0249V18.0747V19.4248C4.75 19.7009 4.97386 19.9248 5.25 19.9248C5.52614 19.9248 5.75 19.7009 5.75 19.4248V18.5747H13.3496C13.6258 18.5747 13.8496 18.3508 13.8496 18.0747V14.5249ZM12.8496 17.5747H5.75V14.5249H12.8496V17.5747ZM13.3496 13.5249H5.75V10.4751L16.0498 10.4746L19.5996 10.4751V13.5249H13.3496ZM5.75 6.4248V9.4751H15.5498V6.4248H5.75Z" fill="black"/>
</svg>
