<svg width="24" height="24" viewBox="0 0 24 24" fill="none" xmlns="http://www.w3.org/2000/svg">
<path d="M12.75 2.99985C12.75 2.58564 12.4142 2.24985 12 2.24985C11.5858 2.24985 11.25 2.58564 11.25 2.99985H12H12.75ZM11.25 20.9999C11.25 21.4141 11.5858 21.7499 12 21.7499C12.4142 21.7499 12.75 21.4141 12.75 20.9999H12H11.25ZM2.9999 11.25C2.58569 11.25 2.2499 11.5857 2.2499 12C2.2499 12.4142 2.58569 12.75 2.9999 12.75V12V11.25ZM20.9999 12.75C21.4141 12.75 21.7499 12.4142 21.7499 12C21.7499 11.5857 21.4141 11.25 20.9999 11.25V12V12.75ZM20.875 12.0001H20.125C20.125 16.4874 16.4873 20.1251 12 20.1251V20.8751V21.6251C17.3158 21.6251 21.625 17.3158 21.625 12.0001H20.875ZM12 20.8751V20.1251C7.51271 20.1251 3.87503 16.4874 3.87503 12.0001H3.12503H2.37503C2.37503 17.3158 6.68428 21.6251 12 21.6251V20.8751ZM3.12503 12.0001H3.87503C3.87503 7.51278 7.51271 3.8751 12 3.8751V3.1251V2.3751C6.68428 2.3751 2.37503 6.68436 2.37503 12.0001H3.12503ZM12 3.1251V3.8751C16.4873 3.8751 20.125 7.51278 20.125 12.0001H20.875H21.625C21.625 6.68436 17.3158 2.3751 12 2.3751V3.1251ZM16.375 11.9999H15.625C15.625 14.0019 14.0021 15.6249 12 15.6249V16.3749V17.1249C14.8305 17.1249 17.125 14.8304 17.125 11.9999H16.375ZM12 16.3749V15.6249C9.99799 15.6249 8.37502 14.0019 8.37502 11.9999H7.62502H6.87502C6.87502 14.8304 9.16957 17.1249 12 17.1249V16.3749ZM7.62502 11.9999H8.37502C8.37502 9.99788 9.99799 8.37491 12 8.37491V7.62491V6.87491C9.16957 6.87491 6.87502 9.16945 6.87502 11.9999H7.62502ZM12 7.62491V8.37491C14.0021 8.37491 15.625 9.99788 15.625 11.9999H16.375H17.125C17.125 9.16945 14.8305 6.87491 12 6.87491V7.62491ZM12 2.99985H11.25V20.9999H12H12.75V2.99985H12ZM2.9999 12V12.75H20.9999V12V11.25H2.9999V12ZM12.845 3.09497H12.095C12.095 3.14675 12.053 3.18872 12.0012 3.18872V3.93872V4.68872C12.8814 4.68872 13.595 3.97517 13.595 3.09497H12.845ZM12.0012 3.93872V3.18872C11.9494 3.18872 11.9075 3.14675 11.9075 3.09497H11.1575H10.4075C10.4075 3.97517 11.121 4.68872 12.0012 4.68872V3.93872ZM11.1575 3.09497H11.9075C11.9075 3.04319 11.9494 3.00122 12.0012 3.00122V2.25122V1.50122C11.121 1.50122 10.4075 2.21477 10.4075 3.09497H11.1575ZM12.0012 2.25122V3.00122C12.053 3.00122 12.095 3.04319 12.095 3.09497H12.845H13.595C13.595 2.21477 12.8814 1.50122 12.0012 1.50122V2.25122ZM12.845 20.905H12.095C12.095 20.9568 12.053 20.9988 12.0012 20.9988V21.7488V22.4988C12.8814 22.4988 13.595 21.7852 13.595 20.905H12.845ZM12.0012 21.7488V20.9988C11.9494 20.9988 11.9075 20.9568 11.9075 20.905H11.1575H10.4075C10.4075 21.7852 11.121 22.4988 12.0012 22.4988V21.7488ZM11.1575 20.905H11.9075C11.9075 20.8533 11.9494 20.8113 12.0012 20.8113V20.0613V19.3113C11.121 19.3113 10.4075 20.0248 10.4075 20.905H11.1575ZM12.0012 20.0613V20.8113C12.053 20.8113 12.095 20.8533 12.095 20.905H12.845H13.595C13.595 20.0248 12.8814 19.3113 12.0012 19.3113V20.0613ZM3.93872 12.0012H3.18872C3.18872 12.053 3.14675 12.095 3.09497 12.095V12.845V13.595C3.97517 13.595 4.68872 12.8814 4.68872 12.0012H3.93872ZM3.09497 12.845V12.095C3.04319 12.095 3.00122 12.053 3.00122 12.0012H2.25122H1.50122C1.50122 12.8814 2.21477 13.595 3.09497 13.595V12.845ZM2.25122 12.0012H3.00122C3.00122 11.9494 3.04319 11.9075 3.09497 11.9075V11.1575V10.4075C2.21477 10.4075 1.50122 11.121 1.50122 12.0012H2.25122ZM3.09497 11.1575V11.9075C3.14675 11.9075 3.18872 11.9494 3.18872 12.0012H3.93872H4.68872C4.68872 11.121 3.97517 10.4075 3.09497 10.4075V11.1575ZM21.7488 12.0012H20.9988C20.9988 12.053 20.9568 12.095 20.905 12.095V12.845V13.595C21.7852 13.595 22.4988 12.8814 22.4988 12.0012H21.7488ZM20.905 12.845V12.095C20.8533 12.095 20.8113 12.053 20.8113 12.0012H20.0613H19.3113C19.3113 12.8814 20.0248 13.595 20.905 13.595V12.845ZM20.0613 12.0012H20.8113C20.8113 11.9494 20.8533 11.9075 20.905 11.9075V11.1575V10.4075C20.0248 10.4075 19.3113 11.121 19.3113 12.0012H20.0613ZM20.905 11.1575V11.9075C20.9568 11.9075 20.9988 11.9494 20.9988 12.0012H21.7488H22.4988C22.4988 11.121 21.7852 10.4075 20.905 10.4075V11.1575Z" fill="black"/>
</svg>
