<svg width="24" height="24" viewBox="0 0 24 24" fill="none" xmlns="http://www.w3.org/2000/svg">
<path fill-rule="evenodd" clip-rule="evenodd" d="M20.5912 14.1192L20.6006 18.0747C20.6006 18.3507 20.3765 18.5744 20.1006 18.5747H5.75V19.4248C5.75 19.7009 5.52614 19.9248 5.25 19.9248C4.97386 19.9248 4.75 19.7009 4.75 19.4248V18.0747V14.0249V9.9751V5.9248V4.5752C4.75 4.29905 4.97386 4.0752 5.25 4.0752C5.52614 4.0752 5.75 4.29905 5.75 4.5752V5.4248H20.1006C20.3765 5.42507 20.6006 5.64883 20.6006 5.9248V9.97461C20.6006 9.98518 20.6003 9.9957 20.5996 10.0061L20.5996 13.9934L20.5996 14.0302L20.5912 14.1192C20.5898 14.1267 20.5882 14.1318 20.5864 14.1394C20.5546 14.2665 20.4629 14.3844 20.3528 14.4533C20.3166 14.4741 20.2717 14.4948 20.2327 14.5065C20.263 14.4975 20.2924 14.4857 20.3205 14.4714L20.3294 14.4667L20.343 14.4592L20.3528 14.4533C20.4206 14.412 20.4837 14.3534 20.5246 14.2884C20.5286 14.282 20.5324 14.2754 20.5361 14.2688L20.5419 14.2582L20.5483 14.2457C20.554 14.2339 20.5594 14.2219 20.5643 14.2097C20.5762 14.1808 20.5852 14.1505 20.5912 14.1192ZM11.5007 17.5747H5.75V14.5249H11.5007V17.5747ZM19.6006 17.5747H12.5007V14.5249H19.6006V17.5747ZM16.5498 10.4747V13.5249H19.5996V10.4751L16.5498 10.4747ZM5.75 13.5249H15.5498V10.4748L5.75 10.4751V13.5249ZM19.5984 6.4248L19.6006 9.47461L16.5485 9.47472L13.0464 9.47484L9.54676 9.47496L9.54712 6.4248H12.5969H16.0964H19.5984ZM5.75 9.4751L8.54712 9.475V6.4248H5.75V9.4751Z" fill="black"/>
</svg>
