<svg width="24" height="24" viewBox="0 0 24 24" fill="none" xmlns="http://www.w3.org/2000/svg">
<path d="M21 19.5H3V4.5M16.5218 6.91338C16.5218 6.91338 9.88173 5.82586 8.92896 8.72119C7.93026 11.7561 15.7127 11.4713 14.714 14.5062C13.7612 17.4015 7.12114 16.314 7.12114 16.314M16.5167 6.06799C16.9832 6.06799 17.3613 6.44613 17.3613 6.9126C17.3613 7.37904 16.9832 7.7572 16.5167 7.7572C16.0503 7.7572 15.6721 7.37904 15.6721 6.9126C15.6721 6.44613 16.0503 6.06799 16.5167 6.06799ZM14.7653 13.468C15.2317 13.468 15.6099 13.8462 15.6099 14.3126C15.6099 14.7791 15.2317 15.1572 14.7653 15.1572C14.2988 15.1572 13.9207 14.7791 13.9207 14.3126C13.9207 13.8462 14.2988 13.468 14.7653 13.468ZM7.13074 15.4652C7.59718 15.4652 7.97534 15.8433 7.97534 16.3098C7.97534 16.7763 7.59718 17.1544 7.13074 17.1544C6.66427 17.1544 6.28613 16.7763 6.28613 16.3098C6.28613 15.8433 6.66427 15.4652 7.13074 15.4652ZM8.84338 8.52454C9.30983 8.52454 9.68799 8.90267 9.68799 9.36914C9.68799 9.83559 9.30983 10.2137 8.84338 10.2137C8.37691 10.2137 7.99878 9.83559 7.99878 9.36914C7.99878 8.90267 8.37691 8.52454 8.84338 8.52454Z" stroke="black" stroke-width="1.5" stroke-linecap="round" stroke-linejoin="round"/>
</svg>
