<svg width="24" height="24" viewBox="0 0 24 24" fill="none" xmlns="http://www.w3.org/2000/svg">
<path d="M21 19.5H3V15.0001M3 15.0001V6M3 15.0001L6.78951 11.6843M3 6V4.5M3 6L6.78951 11.6843M11.6923 11.7693L15 14.2501L17.3301 12.2112M11.6923 11.7693L9 9.75008L6.78951 11.6843M11.6923 11.7693L14 9L17.3301 12.2112M11.6923 11.7693L9 15L6.78951 11.6843M20.1466 9.74683L17.3301 12.2112M17.3301 12.2112L20.1517 14.932M8.99646 8.90234C9.46223 8.90234 9.83984 9.27993 9.83984 9.74573C9.83984 10.2115 9.46223 10.5891 8.99646 10.5891C8.53066 10.5891 8.15308 10.2115 8.15308 9.74573C8.15308 9.27993 8.53066 8.90234 8.99646 8.90234ZM8.99646 14.1497C9.46223 14.1497 9.83984 14.5272 9.83984 14.993C9.83984 15.4588 9.46223 15.8364 8.99646 15.8364C8.53066 15.8364 8.15308 15.4588 8.15308 14.993C8.15308 14.5272 8.53066 14.1497 8.99646 14.1497ZM13.9965 8.15076C14.4622 8.15076 14.8398 8.52835 14.8398 8.99414C14.8398 9.45991 14.4622 9.83752 13.9965 9.83752C13.5307 9.83752 13.1531 9.45991 13.1531 8.99414C13.1531 8.52835 13.5307 8.15076 13.9965 8.15076ZM20.1566 8.90234C20.6224 8.90234 21 9.27993 21 9.74573C21 10.2115 20.6224 10.5891 20.1566 10.5891C19.6908 10.5891 19.3132 10.2115 19.3132 9.74573C19.3132 9.27993 19.6908 8.90234 20.1566 8.90234ZM20.1434 14.0995C20.6092 14.0995 20.9868 14.4771 20.9868 14.9429C20.9868 15.4086 20.6092 15.7863 20.1434 15.7863C19.6776 15.7863 19.3 15.4086 19.3 14.9429C19.3 14.4771 19.6776 14.0995 20.1434 14.0995ZM14.9933 13.4C15.4591 13.4 15.8367 13.7776 15.8367 14.2434C15.8367 14.7092 15.4591 15.0868 14.9933 15.0868C14.5275 15.0868 14.1499 14.7092 14.1499 14.2434C14.1499 13.7776 14.5275 13.4 14.9933 13.4Z" stroke="black" stroke-width="1.5" stroke-miterlimit="10" stroke-linecap="round" stroke-linejoin="round"/>
</svg>
