<svg width="24" height="24" viewBox="0 0 24 24" fill="none" xmlns="http://www.w3.org/2000/svg">
<path fill-rule="evenodd" clip-rule="evenodd" d="M20.5424 18.901C20.5447 18.8973 20.5469 18.8937 20.5489 18.89C20.5508 18.8867 20.5527 18.8834 20.5545 18.88C20.5543 18.8804 20.5547 18.8796 20.5545 18.88C20.5525 18.8837 20.551 18.8863 20.5489 18.89C20.5518 18.885 20.5514 18.8863 20.5545 18.88V18.88C20.5559 18.8775 20.5611 18.8675 20.5624 18.865C20.561 18.8676 20.556 18.8774 20.5545 18.88C20.5609 18.8674 20.571 18.8458 20.5761 18.8337V18.8337C20.5768 18.8314 20.5752 18.836 20.5761 18.8337C20.538 19.0507 20.3705 19.2244 20.1499 19.2475C20.1336 19.2491 20.117 19.25 20.1002 19.25H3.9C3.62386 19.25 3.4 19.0261 3.4 18.75V5.25C3.4 4.97386 3.62386 4.75 3.9 4.75C4.17614 4.75 4.4 4.97386 4.4 5.25L4.39785 8.20651L7.50233 12.218L8.57178 11.0951L8.63818 11.0365C8.80268 10.916 9.0282 10.9061 9.20459 11.0199L11.2688 12.3531L13.8744 9.37838C13.9678 9.27194 14.102 9.21038 14.2436 9.20846C14.3853 9.20656 14.5213 9.26454 14.6176 9.36862L16.4417 11.3413L19.6229 5.70967L19.6694 5.62728C19.8052 5.38693 20.1107 5.3021 20.3511 5.43783C20.3979 5.4643 20.4389 5.49721 20.4734 5.53482C20.5179 5.58318 20.5517 5.63932 20.574 5.69955C20.5825 5.7248 20.5891 5.75094 20.5935 5.7778C20.5978 5.80435 20.6001 5.8316 20.6001 5.85938V5.94551V16.0284V16.0407V18.6553C20.6001 18.671 20.5993 18.6865 20.5979 18.7019L20.5953 18.7242C20.5944 18.7278 20.596 18.733 20.5976 18.7383C20.5989 18.7425 20.6002 18.7467 20.6002 18.75L20.5895 18.7572C20.5597 18.8875 20.4775 19.0014 20.3676 19.0738C20.3297 19.0971 20.2846 19.1196 20.2422 19.134C20.2475 19.1324 20.2543 19.1301 20.2609 19.1278L20.2748 19.1228V19.1228L20.2897 19.1167V19.1167C20.304 19.11 20.3214 19.1008 20.3362 19.0924V19.0924C20.3261 19.0981 20.3111 19.1065 20.3006 19.1116C20.3101 19.107 20.327 19.0975 20.3362 19.0924L20.3202 19.1018C20.3131 19.1055 20.3076 19.1083 20.3006 19.1116V19.1116C20.3118 19.1065 20.3279 19.0972 20.3362 19.0924C20.349 19.0853 20.3559 19.0817 20.3676 19.0738C20.3803 19.0659 20.3928 19.0574 20.4049 19.0486V19.0486C20.4229 19.0355 20.4457 19.0174 20.461 19.0015C20.4705 18.9924 20.4802 18.9819 20.4898 18.9708C20.5093 18.9483 20.5281 18.9232 20.5424 18.901V18.901ZM20.5761 18.8337V18.8337L20.5831 18.8153C20.5819 18.8198 20.5779 18.8293 20.5761 18.8337ZM20.5624 18.865C20.5609 18.868 20.564 18.8621 20.5624 18.865C20.5635 18.8629 20.5613 18.8671 20.5624 18.865C20.5629 18.8642 20.562 18.8658 20.5624 18.865ZM19.6589 18.8849V18.8849L19.6644 18.8947L19.6695 18.9036V18.9036L19.6644 18.8947C19.6707 18.9057 19.6806 18.9217 19.6882 18.9318V18.9318C19.7011 18.9501 19.7184 18.969 19.7322 18.9828C19.7304 18.981 19.7342 18.9849 19.7322 18.9828C19.7335 18.9841 19.7405 18.9911 19.7413 18.992C19.7376 18.988 19.7285 18.9785 19.7249 18.9744C19.6989 18.9455 19.6771 18.9166 19.6589 18.8849L19.6482 18.8645L19.6589 18.8849V18.8849ZM19.8906 19.1049C19.8452 19.0798 19.793 19.0426 19.7546 19.0053C19.7537 19.0031 19.7562 19.0069 19.7546 19.0053C19.7556 19.0075 19.7599 19.0156 19.7615 19.0171L19.7729 19.0275C19.7712 19.026 19.7632 19.0187 19.7615 19.0171C19.7627 19.0183 19.7602 19.016 19.7615 19.0171C19.7683 19.0236 19.7779 19.032 19.785 19.0378V19.0378V19.0378C19.7878 19.0402 19.7935 19.0452 19.7965 19.0474C19.8066 19.0551 19.817 19.0622 19.8278 19.0693C19.8318 19.0722 19.8382 19.0763 19.8436 19.0797V19.0797C19.8473 19.0821 19.8569 19.0879 19.8608 19.09V19.09C19.8703 19.0952 19.8816 19.1006 19.8906 19.1049V19.1049C19.8975 19.1086 19.9114 19.1159 19.9148 19.1174C19.918 19.1188 19.9212 19.12 19.9244 19.1212C19.9222 19.1203 19.9267 19.122 19.9244 19.1212C19.9153 19.1175 19.9129 19.116 19.9038 19.1117L19.8906 19.1049ZM20.1483 19.153L20.1115 19.1539L20.1236 19.1538C20.1212 19.1539 20.1156 19.1536 20.1115 19.1539C20.1135 19.1538 20.1092 19.1541 20.1115 19.1539C20.1172 19.1535 20.1199 19.154 20.1236 19.1538V19.1538L20.1483 19.153ZM20.1001 19.1553C20.1012 19.1553 20.1086 19.1541 20.1115 19.1539ZM19.6001 14.7571V14.6468V7.78454L19.4662 8.02152L17.1553 12.1131L16.639 13.0272L15.2505 15.4857C15.1828 15.6055 15.0686 15.6919 14.9351 15.7249C14.8013 15.7579 14.6592 15.7343 14.5435 15.6595L11.4518 13.6619L10.6029 13.1134L9.01025 12.0843L8.12068 13.017L7.78609 13.3685L7.42279 13.7501L7.0956 14.0938L4.4 16.9259V18.25L19.6001 18.2501V16.2309V16.2137V14.7571ZM14.3973 14.3738L14.6401 14.5306L14.6801 14.4599L15.9255 12.2552L14.2611 10.4546L12.1178 12.9015L14.3973 14.3738ZM6.80444 12.9508L4.4 15.4756V9.84303L6.80444 12.9508Z" fill="black"/>
</svg>
