<svg viewBox="0 0 24 24" fill="none" xmlns="http://www.w3.org/2000/svg" width="24" height="24">
<path d="M3.3 20.91V3.09C3.3 2.759 3.569 2.49 3.9 2.49 4.231 2.49 4.5 2.759 4.5 3.09V20.91C4.5 21.241 4.231 21.51 3.9 21.51 3.569 21.51 3.3 21.241 3.3 20.91Z" fill="black"/>
<path fill-rule="evenodd" clip-rule="evenodd" d="M12.652 5.31L12.652 7.062H17.285V5.31H12.652ZM18.484 7.662L18.485 4.71C18.485 4.379 18.216 4.11 17.885 4.11L12.052 4.11C11.721 4.11 11.452 4.379 11.452 4.71L11.452 7.662C11.452 7.993 11.721 8.261 12.052 8.262H17.884C18.216 8.261 18.484 7.993 18.484 7.662Z" fill="black"/>
<path d="M6.363 10.524L6.363 13.476C6.363 13.807 6.631 14.076 6.963 14.076L15.198 14.076C15.529 14.076 15.797 13.808 15.798 13.476V10.524C15.797 10.193 15.529 9.924 15.198 9.924H6.963C6.631 9.924 6.363 10.193 6.363 10.524ZM14.598 11.124V12.876H7.563V11.124H14.598Z" fill="black"/>
<path d="M22.315 16.323C22.315 15.991 22.046 15.723 21.715 15.723L8.68 15.723C8.349 15.723 8.08 15.991 8.08 16.323L8.08 19.275C8.08 19.606 8.349 19.875 8.68 19.875H21.715C22.046 19.875 22.315 19.606 22.315 19.275V16.323ZM21.115 18.674L9.28 18.674 9.28 16.922 21.115 16.923V18.674Z" fill="black"/>
</svg>