<svg width="24" height="24" viewBox="0 0 24 24" fill="none" xmlns="http://www.w3.org/2000/svg">
<path d="M4.5 20.2502V3.75024M9 9.75024V5.25024M9 18.7502V14.2502M13 14.2502V9.75024M4.5 5.25024H21V9.75024M21 9.75024H4.5M21 9.75024V14.2502M21 14.2502H4.5M21 14.2502V18.7502H4.5M17.3917 5.3916L20.8373 8.83713M12.9091 5.40918L16.9554 9.45552M9.1134 6.13525L12.5962 9.6058M17.5875 14.3376L20.9318 17.682M13.2068 14.457L17.2927 18.5429M9.29553 15.0669L12.7551 18.5143M17.4915 9.74146L20.8617 13.1117M13.2625 10.0125L17.1957 13.9457" stroke="black" stroke-width="1.5" stroke-linecap="round" stroke-linejoin="round"/>
</svg>
