<svg width="24" height="24" viewBox="0 0 24 24" fill="none" xmlns="http://www.w3.org/2000/svg">
<path d="M21.001 20.2475C21.4152 20.2475 21.751 19.9118 21.751 19.4975C21.751 19.0833 21.4152 18.7475 21.001 18.7475V19.4975V20.2475ZM3.00098 19.4975H2.25098C2.25098 19.9118 2.58676 20.2475 3.00098 20.2475V19.4975ZM3.75098 4.49756C3.75098 4.08335 3.41519 3.74756 3.00098 3.74756C2.58676 3.74756 2.25098 4.08335 2.25098 4.49756H3.00098H3.75098ZM16.6003 7.7039C17.0079 7.62989 17.2783 7.23951 17.2043 6.83196C17.1303 6.42441 16.7399 6.15403 16.3323 6.22804L16.4663 6.96597L16.6003 7.7039ZM8.81048 8.59809L8.63308 7.86937L7.3367 8.18497L8.28015 9.12842L8.81048 8.59809ZM14.8342 14.6218L15.0116 15.3505L16.308 15.035L15.3645 14.0915L14.8342 14.6218ZM7.04775 15.5154C6.63987 15.5875 6.36769 15.9767 6.43982 16.3846C6.51196 16.7924 6.90109 17.0646 7.30897 16.9925L7.17836 16.2539L7.04775 15.5154ZM21.001 19.4975V18.7475H3.00098V19.4975V20.2475H21.001V19.4975ZM3.00098 19.4975H3.75098V4.49756H3.00098H2.25098V19.4975H3.00098ZM16.4663 6.96597C16.3323 6.22804 16.3323 6.22805 16.3322 6.22805C16.3322 6.22806 16.3321 6.22807 16.3321 6.22809C16.3319 6.22811 16.3317 6.22815 16.3315 6.2282C16.3309 6.22829 16.3302 6.22842 16.3292 6.2286C16.3273 6.22895 16.3245 6.22947 16.3207 6.23015C16.3133 6.23151 16.3023 6.23353 16.2878 6.23618C16.2589 6.24149 16.2162 6.24936 16.1607 6.25969C16.0495 6.28035 15.8868 6.31086 15.6794 6.35042C15.2647 6.42952 14.6714 6.54486 13.9556 6.69004C12.5247 6.98024 10.6006 7.39039 8.63308 7.86937L8.81048 8.59809L8.98788 9.32681C10.9304 8.85391 12.8342 8.448 14.2537 8.16011C14.9631 8.01624 15.5507 7.90203 15.9605 7.82385C16.1654 7.78476 16.3258 7.75468 16.4348 7.73443C16.4893 7.7243 16.5309 7.71662 16.5588 7.7115C16.5727 7.70894 16.5833 7.70702 16.5902 7.70575C16.5937 7.70511 16.5963 7.70464 16.598 7.70433C16.5988 7.70418 16.5994 7.70406 16.5998 7.70399C16.6 7.70396 16.6002 7.70393 16.6003 7.70391C16.6003 7.70391 16.6003 7.7039 16.6003 7.7039C16.6004 7.7039 16.6003 7.7039 16.4663 6.96597ZM8.81048 8.59809L8.28015 9.12842C9.27847 10.1267 9.91399 10.7623 10.7351 11.5834C11.5563 12.4046 12.5631 13.4113 14.3039 15.1522L14.8342 14.6218L15.3645 14.0915C13.6237 12.3507 12.6169 11.3439 11.7958 10.5227C10.9747 9.7016 10.3391 9.06608 9.34081 8.06776L8.81048 8.59809ZM14.8342 14.6218L14.6568 13.8931C12.5796 14.3988 10.6757 14.8047 9.29088 15.0842C8.59871 15.2239 8.03679 15.3319 7.64841 15.4049C7.45423 15.4414 7.30348 15.4691 7.20155 15.4877C7.15059 15.497 7.11185 15.5039 7.08598 15.5086C7.07305 15.5109 7.06335 15.5126 7.05695 15.5138C7.05374 15.5143 7.05137 15.5148 7.04984 15.515C7.04907 15.5152 7.04851 15.5153 7.04816 15.5153C7.04799 15.5154 7.04786 15.5154 7.0478 15.5154C7.04776 15.5154 7.04775 15.5154 7.04773 15.5154C7.04773 15.5154 7.04775 15.5154 7.17836 16.2539C7.30897 16.9925 7.30901 16.9925 7.30907 16.9925C7.3091 16.9925 7.30917 16.9924 7.30924 16.9924C7.30939 16.9924 7.30958 16.9924 7.30983 16.9923C7.31033 16.9922 7.31104 16.9921 7.31196 16.992C7.3138 16.9916 7.31647 16.9912 7.31998 16.9905C7.32699 16.9893 7.33732 16.9874 7.35088 16.985C7.37799 16.9801 7.41803 16.9729 7.4703 16.9634C7.57486 16.9444 7.7284 16.9161 7.9255 16.8791C8.31967 16.805 8.8882 16.6957 9.58765 16.5545C10.9861 16.2722 12.9101 15.8621 15.0116 15.3505L14.8342 14.6218Z" fill="black"/>
</svg>
