<svg viewBox="0 0 24 24" fill="none" xmlns="http://www.w3.org/2000/svg" width="24" height="24">
<path d="M12 2.91C12.359 2.91 12.714 2.931 13.063 2.972L13.752 3.053 11.622 10.999 10.946 10.608 4.5 6.886 4.929 6.342C6.576 4.253 9.131 2.91 12 2.91ZM12 4.11C9.766 4.11 7.753 5.05 6.33 6.556L10.868 9.178 10.973 8.788 12.225 4.115C12.15 4.113 12.075 4.11 12 4.11Z" fill="black"/>
<path d="M11.627 14.525L11.642 14.702 12.448 23.919 11.781 23.907C9.008 23.858 6.463 22.867 4.455 21.241L3.937 20.822 6.117 18.641 6.546 18.213 11.514 13.244 11.627 14.525ZM10.427 16.029L6.111 20.345 5.743 20.712C7.288 21.812 9.134 22.514 11.135 22.672L10.558 16.077 10.543 15.912 10.427 16.029Z" fill="black"/>
<path d="M11.023 12.038L6.899 16.162 6.495 15.55C5.803 14.507 5.4 13.254 5.4 11.909 5.4 11.18 5.519 10.476 5.739 9.819L5.971 9.121 11.023 12.038ZM6.6 11.909C6.6 12.743 6.789 13.532 7.126 14.237L8.782 12.582 9.068 12.295 6.693 10.924C6.634 11.243 6.6 11.572 6.6 11.909Z" fill="black"/>
<path d="M13.502 12.95L15.724 13.547 20.456 14.814 21.121 14.991 20.855 15.625C19.666 18.454 17.16 20.595 14.103 21.279L13.435 21.427 13.323 20.142 13.269 19.537 12.674 12.729 13.502 12.95ZM14.033 14.492L14.466 19.433 14.508 19.924C16.652 19.254 18.426 17.749 19.45 15.786L18.974 15.659 14.178 14.374 14.018 14.331 14.033 14.492Z" fill="black"/>
<path d="M22.801 11.91C22.801 7.55 20.216 3.794 16.495 2.088L14.2 10.652 21.08 12.497H21.083L22.769 12.954C22.786 12.719 22.801 12.383 22.801 11.91ZM24.001 11.91C24.001 12.799 23.958 13.291 23.906 13.574 23.88 13.712 23.846 13.839 23.791 13.945 23.762 14.001 23.717 14.07 23.649 14.134 23.614 14.167 23.57 14.201 23.518 14.229 23.492 14.243 23.465 14.255 23.436 14.265 23.421 14.27 23.406 14.275 23.391 14.279 23.384 14.281 23.375 14.283 23.368 14.285 23.364 14.286 23.36 14.288 23.356 14.289L23.35 14.29 23.232 13.702 23.344 14.291 23.208 14.317 20.77 13.655 20.185 13.499 12.731 11.502 12.885 10.922 15.687 0.468 16.31 0.707C20.807 2.438 24.001 6.8 24.001 11.91Z" fill="black"/>
</svg>