<svg width="24" height="24" viewBox="0 0 24 24" fill="none" xmlns="http://www.w3.org/2000/svg">
<path d="M21 20.25C21.4142 20.25 21.75 19.9142 21.75 19.5C21.75 19.0858 21.4142 18.75 21 18.75V19.5V20.25ZM3 19.5H2.25C2.25 19.9142 2.58579 20.25 3 20.25V19.5ZM3 4.5V3.75C2.58579 3.75 2.25 4.08579 2.25 4.5H3ZM21 5.25C21.4142 5.25 21.75 4.91421 21.75 4.5C21.75 4.08579 21.4142 3.75 21 3.75V4.5V5.25ZM14.5781 14.2461L14.1075 14.83C14.3824 15.0517 14.7748 15.0514 15.0495 14.8295L14.5781 14.2461ZM9 9.75L9.47066 9.16607C9.18707 8.93749 8.78024 8.94571 8.50612 9.18557L9 9.75ZM2.50612 14.4356C2.19439 14.7083 2.16281 15.1822 2.43557 15.4939C2.70833 15.8056 3.18215 15.8372 3.49388 15.5644L3 15L2.50612 14.4356ZM20.6142 10.3334C20.9364 10.0731 20.9866 9.60084 20.7262 9.27865C20.4659 8.95646 19.9937 8.9063 19.6715 9.16662L20.1429 9.75L20.6142 10.3334ZM21 19.5V18.75H3V19.5V20.25H21V19.5ZM3 19.5H3.75V4.5H3H2.25V19.5H3ZM3 4.5V5.25H21V4.5V3.75H3V4.5ZM14.5781 14.2461L15.0488 13.6622L9.47066 9.16607L9 9.75L8.52934 10.3339L14.1075 14.83L14.5781 14.2461ZM9 9.75L8.50612 9.18557L2.50612 14.4356L3 15L3.49388 15.5644L9.49388 10.3144L9 9.75ZM20.1429 9.75L19.6715 9.16662L14.1068 13.6627L14.5781 14.2461L15.0495 14.8295L20.6142 10.3334L20.1429 9.75ZM9.84143 9.74365H9.09143C9.09143 9.79543 9.04946 9.8374 8.99768 9.8374V10.5874V11.3374C9.87788 11.3374 10.5914 10.6239 10.5914 9.74365H9.84143ZM8.99768 10.5874V9.8374C8.9459 9.8374 8.90393 9.79543 8.90393 9.74365H8.15393H7.40393C7.40393 10.6239 8.11748 11.3374 8.99768 11.3374V10.5874ZM8.15393 9.74365H8.90393C8.90393 9.69187 8.9459 9.6499 8.99768 9.6499V8.8999V8.1499C8.11748 8.1499 7.40393 8.86345 7.40393 9.74365H8.15393ZM8.99768 8.8999V9.6499C9.04946 9.6499 9.09143 9.69188 9.09143 9.74365H9.84143H10.5914C10.5914 8.86345 9.87788 8.1499 8.99768 8.1499V8.8999ZM15.4207 14.241H14.6707C14.6707 14.2927 14.6287 14.3347 14.5769 14.3347V15.0847V15.8347C15.4571 15.8347 16.1707 15.1212 16.1707 14.241H15.4207ZM14.5769 15.0847V14.3347C14.5251 14.3347 14.4832 14.2927 14.4832 14.241H13.7332H12.9832C12.9832 15.1212 13.6967 15.8347 14.5769 15.8347V15.0847ZM13.7332 14.241H14.4832C14.4832 14.1892 14.5251 14.1472 14.5769 14.1472V13.3972V12.6472C13.6967 12.6472 12.9832 13.3608 12.9832 14.241H13.7332ZM14.5769 13.3972V14.1472C14.6287 14.1472 14.6707 14.1892 14.6707 14.241H15.4207H16.1707C16.1707 13.3608 15.4571 12.6472 14.5769 12.6472V13.3972ZM21 9.74365H20.25C20.25 9.79543 20.208 9.8374 20.1562 9.8374V10.5874V11.3374C21.0365 11.3374 21.75 10.6239 21.75 9.74365H21ZM20.1562 10.5874V9.8374C20.1045 9.8374 20.0625 9.79543 20.0625 9.74365H19.3125H18.5625C18.5625 10.6239 19.276 11.3374 20.1562 11.3374V10.5874ZM19.3125 9.74365H20.0625C20.0625 9.69188 20.1045 9.6499 20.1562 9.6499V8.8999V8.1499C19.276 8.1499 18.5625 8.86345 18.5625 9.74365H19.3125ZM20.1562 8.8999V9.6499C20.208 9.6499 20.25 9.69187 20.25 9.74365H21H21.75C21.75 8.86345 21.0365 8.1499 20.1562 8.1499V8.8999ZM21 4.49365H20.25C20.25 4.54543 20.208 4.5874 20.1562 4.5874V5.3374V6.0874C21.0365 6.0874 21.75 5.37385 21.75 4.49365H21ZM20.1562 5.3374V4.5874C20.1045 4.5874 20.0625 4.54543 20.0625 4.49365H19.3125H18.5625C18.5625 5.37386 19.276 6.0874 20.1562 6.0874V5.3374ZM19.3125 4.49365H20.0625C20.0625 4.44188 20.1045 4.3999 20.1562 4.3999V3.6499V2.8999C19.276 2.8999 18.5625 3.61345 18.5625 4.49365H19.3125ZM20.1562 3.6499V4.3999C20.208 4.3999 20.25 4.44187 20.25 4.49365H21H21.75C21.75 3.61345 21.0365 2.8999 20.1562 2.8999V3.6499ZM15.4207 4.49365H14.6707C14.6707 4.54543 14.6287 4.5874 14.5769 4.5874V5.3374V6.0874C15.4571 6.0874 16.1707 5.37385 16.1707 4.49365H15.4207ZM14.5769 5.3374V4.5874C14.5251 4.5874 14.4832 4.54543 14.4832 4.49365H13.7332H12.9832C12.9832 5.37385 13.6967 6.0874 14.5769 6.0874V5.3374ZM13.7332 4.49365H14.4832C14.4832 4.44188 14.5251 4.3999 14.5769 4.3999V3.6499V2.8999C13.6967 2.8999 12.9832 3.61345 12.9832 4.49365H13.7332ZM14.5769 3.6499V4.3999C14.6287 4.3999 14.6707 4.44188 14.6707 4.49365H15.4207H16.1707C16.1707 3.61345 15.4571 2.8999 14.5769 2.8999V3.6499ZM9.84143 4.49365H9.09143C9.09143 4.54543 9.04946 4.5874 8.99768 4.5874V5.3374V6.0874C9.87788 6.0874 10.5914 5.37386 10.5914 4.49365H9.84143ZM8.99768 5.3374V4.5874C8.9459 4.5874 8.90393 4.54543 8.90393 4.49365H8.15393H7.40393C7.40393 5.37385 8.11748 6.0874 8.99768 6.0874V5.3374ZM8.15393 4.49365H8.90393C8.90393 4.44188 8.9459 4.3999 8.99768 4.3999V3.6499V2.8999C8.11748 2.8999 7.40393 3.61345 7.40393 4.49365H8.15393ZM8.99768 3.6499V4.3999C9.04946 4.3999 9.09143 4.44188 9.09143 4.49365H9.84143H10.5914C10.5914 3.61345 9.87788 2.8999 8.99768 2.8999V3.6499ZM4.6875 4.49365H3.9375C3.9375 4.54543 3.89553 4.5874 3.84375 4.5874V5.3374V6.0874C4.72395 6.0874 5.4375 5.37385 5.4375 4.49365H4.6875ZM3.84375 5.3374V4.5874C3.79197 4.5874 3.75 4.54543 3.75 4.49365H3H2.25C2.25 5.37385 2.96355 6.0874 3.84375 6.0874V5.3374ZM3 4.49365H3.75C3.75 4.44188 3.79197 4.3999 3.84375 4.3999V3.6499V2.8999C2.96355 2.8999 2.25 3.61345 2.25 4.49365H3ZM3.84375 3.6499V4.3999C3.89553 4.3999 3.9375 4.44188 3.9375 4.49365H4.6875H5.4375C5.4375 3.61345 4.72395 2.8999 3.84375 2.8999V3.6499ZM4.6875 14.1562H3.9375C3.9375 14.208 3.89553 14.25 3.84375 14.25V15V15.75C4.72395 15.75 5.4375 15.0365 5.4375 14.1562H4.6875ZM3.84375 15V14.25C3.79197 14.25 3.75 14.208 3.75 14.1562H3H2.25C2.25 15.0365 2.96355 15.75 3.84375 15.75V15ZM3 14.1562H3.75C3.75 14.1045 3.79197 14.0625 3.84375 14.0625V13.3125V12.5625C2.96355 12.5625 2.25 13.276 2.25 14.1562H3ZM3.84375 13.3125V14.0625C3.89553 14.0625 3.9375 14.1045 3.9375 14.1562H4.6875H5.4375C5.4375 13.276 4.72395 12.5625 3.84375 12.5625V13.3125Z" fill="black"/>
</svg>
