<svg width="24" height="24" viewBox="0 0 24 24" fill="none" xmlns="http://www.w3.org/2000/svg">
<path fill-rule="evenodd" clip-rule="evenodd" d="M9.47607 3.90039L9.47608 10.1504L5.92529 10.1504C5.64915 10.1504 5.42529 10.3742 5.42529 10.6504L5.42529 18.25L4.57568 18.25C4.29954 18.25 4.07568 18.4739 4.07568 18.75C4.07568 19.0261 4.29954 19.25 4.57568 19.25L5.92529 19.25L9.97607 19.25L14.0259 19.25L18.0757 19.25L19.4253 19.25C19.7014 19.25 19.9253 19.0261 19.9253 18.75C19.9253 18.4739 19.7014 18.25 19.4253 18.25L18.5757 18.25L18.5757 7.95019C18.5757 7.67405 18.3518 7.45019 18.0757 7.45019L14.5259 7.4502L14.5259 3.90039C14.5259 3.62425 14.302 3.40039 14.0259 3.40039L9.97607 3.40039C9.69993 3.40039 9.47607 3.62425 9.47607 3.90039ZM14.5259 18.25L14.5259 8.4502L17.5757 8.45019L17.5757 18.25L14.5259 18.25ZM13.5259 7.9502L13.5259 18.25L10.4761 18.25L10.4751 10.6504L10.4761 4.40039L13.5259 4.40039L13.5259 7.9502ZM9.47607 11.1504L6.42529 11.1504L6.42529 18.25L9.47607 18.25L9.47607 11.1504Z" fill="black"/>
</svg>
