<svg viewBox="0 0 24 24" fill="none" xmlns="http://www.w3.org/2000/svg" width="24" height="24">
<path d="M1.155 3.9C1.155 3.569 1.424 3.3 1.755 3.3 2.086 3.3 2.355 3.569 2.355 3.9V19.5H21.195C21.526 19.5 21.795 19.769 21.795 20.1 21.795 20.431 21.526 20.7 21.195 20.7H1.755C1.424 20.7 1.155 20.431 1.155 20.1V3.9Z" fill="black"/>
<path fill-rule="evenodd" clip-rule="evenodd" d="M9.183 9.559C9.606 9.292 9.888 8.819 9.888 8.281 9.888 7.972 9.795 7.685 9.636 7.446 9.897 7.228 10.221 7.043 10.605 6.888 11.455 6.545 12.522 6.382 13.596 6.328 14.619 6.276 15.614 6.324 16.377 6.389 16.56 7.018 17.141 7.477 17.828 7.477 18.663 7.476 19.339 6.8 19.339 5.966 19.339 5.132 18.663 4.455 17.828 4.454 17.274 4.454 16.79 4.753 16.527 5.197 15.724 5.127 14.65 5.073 13.535 5.13 12.401 5.187 11.184 5.361 10.157 5.775 9.57 6.012 9.02 6.338 8.587 6.784 8.519 6.774 8.449 6.769 8.377 6.769 7.543 6.769 6.866 7.446 6.866 8.281 6.866 8.939 7.287 9.499 7.875 9.706 8.075 10.174 8.421 10.548 8.813 10.854 9.591 11.46 10.705 11.912 11.716 12.322L11.775 12.346C12.854 12.783 13.817 13.179 14.448 13.671 14.536 13.74 14.614 13.808 14.683 13.876 14.368 14.153 14.17 14.558 14.17 15.01 14.17 15.382 14.304 15.722 14.527 15.985 14.243 16.269 13.863 16.502 13.394 16.691 12.544 17.034 11.478 17.198 10.404 17.252 9.381 17.304 8.386 17.255 7.623 17.19 7.437 16.568 6.86 16.113 6.176 16.113 5.342 16.113 4.665 16.79 4.665 17.625 4.665 18.459 5.342 19.136 6.176 19.136 6.734 19.135 7.221 18.833 7.483 18.383 8.284 18.452 9.354 18.506 10.464 18.449 11.598 18.392 12.815 18.219 13.843 17.805 14.545 17.522 15.193 17.11 15.653 16.521L15.681 16.521C16.516 16.521 17.192 15.845 17.192 15.01 17.192 14.262 16.649 13.641 15.936 13.52 15.737 13.212 15.474 12.951 15.186 12.726 14.407 12.118 13.288 11.664 12.275 11.253L12.226 11.234C11.146 10.796 10.183 10.401 9.551 9.908 9.4 9.79 9.278 9.674 9.183 9.559ZM17.828 5.654C18 5.655 18.139 5.794 18.139 5.966 18.139 6.138 18 6.276 17.828 6.277 17.657 6.277 17.517 6.138 17.517 5.966 17.517 5.794 17.656 5.654 17.828 5.654ZM8.377 7.969C8.549 7.97 8.688 8.109 8.688 8.281 8.688 8.453 8.549 8.591 8.377 8.592 8.206 8.592 8.066 8.453 8.066 8.281 8.066 8.109 8.205 7.969 8.377 7.969ZM15.681 14.699C15.853 14.699 15.992 14.838 15.992 15.01 15.992 15.182 15.853 15.321 15.681 15.321 15.51 15.321 15.37 15.182 15.37 15.01 15.37 14.838 15.51 14.699 15.681 14.699ZM6.487 17.625C6.487 17.453 6.348 17.313 6.176 17.313 6.004 17.313 5.865 17.453 5.865 17.625 5.865 17.797 6.005 17.936 6.176 17.936 6.348 17.935 6.487 17.796 6.487 17.625Z" fill="black"/>
</svg>