<svg viewBox="0 0 24 24" fill="none" xmlns="http://www.w3.org/2000/svg" width="24" height="24">
<path fill-rule="evenodd" clip-rule="evenodd" d="M2.355 12.551V9.594C2.188 9.629 2.032 9.691 1.891 9.776 1.573 9.966 1.33 10.271 1.22 10.633 1.178 10.772 1.155 10.92 1.155 11.073 1.155 11.801 1.67 12.408 2.355 12.551Z" fill="black"/>
<path fill-rule="evenodd" clip-rule="evenodd" d="M18.916 7.856L15.649 11.579 11.582 9.383C11.587 9.335 11.589 9.286 11.589 9.237 11.589 8.402 10.913 7.725 10.078 7.725 9.244 7.725 8.567 8.402 8.567 9.237 8.567 9.441 8.607 9.636 8.681 9.814L6.045 12.483 4.168 11.239C4.174 11.185 4.177 11.129 4.177 11.073 4.177 10.239 3.501 9.562 2.667 9.561 2.56 9.561 2.456 9.572 2.355 9.594 2.188 9.629 2.032 9.691 1.891 9.776 1.573 9.966 1.33 10.271 1.22 10.633 1.178 10.772 1.155 10.92 1.155 11.073 1.155 11.801 1.67 12.408 2.355 12.551 2.456 12.573 2.56 12.584 2.667 12.584 3.006 12.583 3.319 12.472 3.57 12.283L5.185 13.353 6.204 14.029 10.234 16.698C10.218 16.785 10.21 16.874 10.21 16.965 10.21 17.8 10.887 18.476 11.722 18.476 12.556 18.476 13.232 17.799 13.233 16.965 13.233 16.734 13.181 16.515 13.088 16.319L15.921 13.09 18.831 14.661C18.792 14.795 18.771 14.936 18.771 15.082 18.772 15.916 19.449 16.593 20.283 16.593 21.117 16.592 21.793 15.916 21.794 15.082 21.794 14.248 21.117 13.571 20.283 13.57 20.045 13.57 19.82 13.625 19.62 13.723L16.733 12.164 19.817 8.649C19.964 8.697 20.121 8.722 20.283 8.722 21.117 8.722 21.793 8.046 21.794 7.212 21.794 6.377 21.117 5.7 20.283 5.7 19.448 5.7 18.771 6.377 18.771 7.212 18.771 7.442 18.823 7.661 18.916 7.856ZM14.837 12.505L11.001 10.433C10.746 10.63 10.426 10.747 10.078 10.747 9.89 10.747 9.709 10.713 9.542 10.65L7.065 13.158 10.898 15.698C11.135 15.543 11.418 15.453 11.722 15.453 11.884 15.454 12.04 15.479 12.186 15.526L14.837 12.505ZM20.594 7.212C20.594 7.04 20.455 6.9 20.283 6.9 20.111 6.9 19.971 7.04 19.971 7.212 19.972 7.383 20.111 7.522 20.283 7.522 20.455 7.522 20.593 7.383 20.594 7.212ZM10.078 8.925C10.25 8.925 10.389 9.065 10.389 9.237 10.389 9.408 10.25 9.547 10.078 9.547 9.907 9.547 9.767 9.408 9.767 9.237 9.767 9.065 9.906 8.925 10.078 8.925ZM2.667 10.761C2.839 10.762 2.977 10.901 2.977 11.073 2.977 11.245 2.838 11.383 2.667 11.384 2.495 11.384 2.355 11.245 2.355 11.073 2.355 10.901 2.495 10.761 2.667 10.761ZM12.033 16.965C12.033 16.794 11.894 16.654 11.722 16.653 11.55 16.653 11.41 16.793 11.41 16.965 11.41 17.137 11.55 17.276 11.722 17.276 11.893 17.276 12.032 17.137 12.033 16.965ZM20.594 15.082C20.594 14.91 20.455 14.771 20.283 14.77 20.111 14.77 19.971 14.91 19.971 15.082 19.972 15.254 20.111 15.393 20.283 15.393 20.455 15.392 20.593 15.254 20.594 15.082Z" fill="black"/>
<path fill-rule="evenodd" clip-rule="evenodd" d="M1.755 3.3C1.424 3.3 1.155 3.569 1.155 3.9L1.155 11.073C1.155 10.92 1.178 10.772 1.22 10.633 1.33 10.271 1.573 9.966 1.891 9.776 2.032 9.691 2.188 9.629 2.355 9.594L2.355 3.9C2.355 3.569 2.086 3.3 1.755 3.3Z" fill="black"/>
<path d="M2.355 12.551C1.67 12.408 1.155 11.801 1.155 11.073L1.155 20.1C1.155 20.431 1.424 20.7 1.755 20.7H21.195C21.526 20.7 21.795 20.431 21.795 20.1 21.795 19.769 21.526 19.5 21.195 19.5H2.355V18.421C2.456 18.442 2.56 18.453 2.667 18.453 3.501 18.453 4.177 17.777 4.177 16.943 4.177 16.693 4.117 16.458 4.01 16.25L6.204 14.029 5.185 13.353 3.077 15.488C2.946 15.451 2.809 15.431 2.667 15.431 2.56 15.431 2.456 15.442 2.355 15.464L2.355 12.551ZM2.355 16.943C2.355 16.771 2.495 16.631 2.667 16.631 2.839 16.632 2.977 16.771 2.977 16.943 2.977 17.115 2.838 17.253 2.667 17.253 2.495 17.253 2.355 17.115 2.355 16.943Z" fill="black"/>
</svg>