<svg viewBox="0 0 24 24" fill="none" xmlns="http://www.w3.org/2000/svg" width="24" height="24">
<path fill-rule="evenodd" clip-rule="evenodd" d="M8.971 2.28L8.971 9.78 4.71 9.78C4.379 9.78 4.11 10.049 4.11 10.38L4.11 19.5 3.091 19.5C2.759 19.5 2.491 19.769 2.491 20.1 2.491 20.431 2.759 20.7 3.091 20.7L4.71 20.7 9.571 20.7 14.431 20.7 19.291 20.7 20.91 20.7C21.242 20.7 21.51 20.431 21.51 20.1 21.51 19.769 21.242 19.5 20.91 19.5L19.891 19.5 19.891 7.14C19.891 6.809 19.622 6.54 19.291 6.54L15.031 6.54 15.031 2.28C15.031 1.949 14.762 1.68 14.431 1.68L9.571 1.68C9.24 1.68 8.971 1.949 8.971 2.28ZM15.031 19.5L15.031 7.74 18.691 7.74 18.691 19.5 15.031 19.5ZM13.831 7.14L13.831 19.5 10.171 19.5 10.17 10.38 10.171 2.88 13.831 2.88 13.831 7.14ZM8.971 10.98L5.31 10.98 5.31 19.5 8.971 19.5 8.971 10.98Z" fill="black"/>
</svg>