<svg width="24" height="24" viewBox="0 0 24 24" fill="none" xmlns="http://www.w3.org/2000/svg">
<path d="M3 12.7222L8.99999 7.47217L15 11.9722L20.1428 7.47217M3 12.7222V17.7912M3 12.7222V4.5M3 17.7912L8.99999 13.9887L15 17.248L20.14 12.0075M3 17.7912V19.5H21M8.9928 6.65002C9.45924 6.65002 9.8374 7.02816 9.8374 7.49463C9.8374 7.96108 9.45924 8.33923 8.9928 8.33923C8.52633 8.33923 8.14819 7.96108 8.14819 7.49463C8.14819 7.02816 8.52633 6.65002 8.9928 6.65002ZM8.9967 13.1456C9.46315 13.1456 9.84131 13.5238 9.84131 13.9902C9.84131 14.4567 9.46315 14.8348 8.9967 14.8348C8.53023 14.8348 8.1521 14.4567 8.1521 13.9902C8.1521 13.5238 8.53023 13.1456 8.9967 13.1456ZM15.0021 16.3228C15.4685 16.3228 15.8467 16.7009 15.8467 17.1674C15.8467 17.6338 15.4685 18.012 15.0021 18.012C14.5356 18.012 14.1575 17.6338 14.1575 17.1674C14.1575 16.7009 14.5356 16.3228 15.0021 16.3228ZM20.1554 11.1554C20.6218 11.1554 21 11.5335 21 12C21 12.4664 20.6218 12.8446 20.1554 12.8446C19.6889 12.8446 19.3108 12.4664 19.3108 12C19.3108 11.5335 19.6889 11.1554 20.1554 11.1554ZM20.1554 6.65002C20.6218 6.65002 21 7.02816 21 7.49463C21 7.96108 20.6218 8.33923 20.1554 8.33923C19.6889 8.33923 19.3108 7.96108 19.3108 7.49463C19.3108 7.02816 19.6889 6.65002 20.1554 6.65002ZM14.9982 11.1172C15.4646 11.1172 15.8428 11.4953 15.8428 11.9618C15.8428 12.4282 15.4646 12.8064 14.9982 12.8064C14.5317 12.8064 14.1536 12.4282 14.1536 11.9618C14.1536 11.4953 14.5317 11.1172 14.9982 11.1172Z" stroke="black" stroke-width="1.5" stroke-miterlimit="10" stroke-linecap="round" stroke-linejoin="round"/>
</svg>
