<svg xmlns="http://www.w3.org/2000/svg" fill="currentColor" viewBox="0 0 24 24" width="24" height="24"><path d="M20.1 2.483H3.9A1.416 1.416 0 0 0 2.483 3.9v16.2a1.416 1.416 0 0 0 1.417 1.417h16.2a1.416 1.416 0 0 0 1.417-1.417V3.9a1.416 1.416 0 0 0-1.417-1.417M7.95 15.038a1.013 1.013 0 1 1-1.013 1.013 1.013 1.013 0 0 1 1.013-1.013m-4.253 5.063v-16.2a0.204 0.204 0 0 1 0.203-0.203h3.443v10.21a2.227 2.227 0 1 0 1.215 0v-3.68l5.266 5.264v4.811H3.901a0.204 0.204 0 0 1-0.203-0.203z m16.606 0a0.204 0.204 0 0 1-0.203 0.203h-5.063v-5.063a0.6 0.6 0 0 0-0.179-0.429L8.556 8.509V3.698h3.644v2.633a0.6 0.6 0 0 0 0.179 0.43l1.721 1.721a2.227 2.227 0 1 0 0.859-0.86L13.416 6.078V3.697h6.683a0.204 0.204 0 0 1 0.203 0.203z m-4.253-11.543a1.013 1.013 0 1 1-1.013 1.013 1.013 1.013 0 0 1 1.013-1.013"/></svg>