<svg viewBox="0 0 24 24" fill="none" xmlns="http://www.w3.org/2000/svg" width="24" height="24">
<path fill-rule="evenodd" clip-rule="evenodd" d="M20.536 17.632L21.172 17.053C21.607 16.656 21.867 16.103 21.894 15.515 21.922 14.927 21.715 14.352 21.318 13.917L18.045 10.324C18.025 10.302 18.009 10.276 18 10.247 17.991 10.218 17.988 10.188 17.992 10.158 17.995 10.128 18.005 10.099 18.021 10.073 18.036 10.048 18.057 10.027 18.081 10.01L22.117 7.414C22.145 7.396 22.172 7.376 22.196 7.353 22.79 6.812 23.146 6.057 23.183 5.254 23.221 4.452 22.938 3.667 22.397 3.073 21.855 2.479 21.101 2.125 20.298 2.087 19.495 2.05 18.71 2.333 18.115 2.874 18.091 2.896 18.068 2.921 18.047 2.947L15.089 6.726C15.07 6.749 15.046 6.766 15.019 6.779 14.993 6.792 14.963 6.799 14.933 6.8 14.903 6.801 14.873 6.795 14.845 6.784 14.817 6.772 14.792 6.754 14.772 6.731L11.499 3.139C11.103 2.704 10.549 2.443 9.961 2.416 9.373 2.389 8.799 2.597 8.364 2.993L7.742 3.559 8.549 4.447 9.172 3.88C9.372 3.698 9.636 3.603 9.906 3.615 10.176 3.628 10.43 3.747 10.612 3.947L13.885 7.539C14.021 7.689 14.188 7.807 14.374 7.887 14.559 7.966 14.76 8.004 14.962 7.999 15.163 7.994 15.362 7.946 15.543 7.858 15.724 7.77 15.887 7.644 16.015 7.489L16.024 7.476 18.955 3.736C19.31 3.426 19.771 3.264 20.242 3.286 20.727 3.308 21.183 3.523 21.51 3.881 21.836 4.24 22.007 4.714 21.985 5.198 21.963 5.672 21.757 6.117 21.413 6.442L17.42 9.008 17.407 9.017C17.24 9.13 17.099 9.279 16.995 9.451 16.89 9.624 16.824 9.817 16.8 10.017 16.776 10.218 16.797 10.421 16.858 10.614 16.92 10.806 17.022 10.983 17.158 11.132L20.431 14.725C20.613 14.925 20.708 15.189 20.696 15.459 20.683 15.729 20.564 15.984 20.364 16.166L19.729 16.744 20.536 17.632Z" fill="black"/>
<path fill-rule="evenodd" clip-rule="evenodd" d="M5.171 2.514C5.162 2.504 5.153 2.494 5.145 2.484L4.58 1.862C4.357 1.617 3.978 1.598 3.732 1.821 3.487 2.044 3.469 2.423 3.691 2.668L5.969 5.174 0.579 10.084C0.334 10.308 0.317 10.687 0.54 10.932L10.358 21.71C11.044 22.463 12.001 22.912 13.018 22.959 14.036 23.007 15.03 22.648 15.783 21.962L18.763 19.248 19.891 20.489C20.114 20.734 20.493 20.751 20.739 20.529 20.973 20.315 21 19.958 20.807 19.713L20.78 19.681 5.171 2.514ZM6.354 9.206L3.204 12.075 1.831 10.567 6.777 6.062 17.956 18.36 14.975 21.075C14.457 21.547 13.773 21.793 13.074 21.761 12.375 21.728 11.717 21.419 11.245 20.901L4.012 12.962 7.162 10.093C7.407 9.87 7.424 9.49 7.201 9.245 6.978 9 6.599 8.982 6.354 9.206Z" fill="black"/>
</svg>