<svg xmlns="http://www.w3.org/2000/svg" width="24" height="24" fill="currentColor" viewBox="0 0 24 24"><path d="M20.996 19.644c-1.963-.954-3.09-3.004-3.09-5.619v-1.46a1.18 1.18 0 0 0-.744-1.097l-2.1-.829a.844.844 0 0 1-.472-1.097l1.797-4.469a2.194 2.194 0 0 0-1.266-2.897c-1.093-.408-2.352.155-2.811 1.266l-1.772 4.481a.844.844 0 0 1-1.097.473l-2.136-.868a1.17 1.17 0 0 0-1.282.269c-1.745 1.791-2.63 3.887-2.63 6.228a9.24 9.24 0 0 0 2.584 6.426.5.5 0 0 0 .37.155h14.428a.506.506 0 0 0 .221-.962M6.749 8.5a.17.17 0 0 1 .179-.036l2.143.868a1.856 1.856 0 0 0 2.416-1.04l1.772-4.472c.253-.602.928-.912 1.519-.693a1.18 1.18 0 0 1 .675 1.564l-1.802 4.48a1.86 1.86 0 0 0 1.038 2.406l2.099.829a.17.17 0 0 1 .106.158v1.46q-.002.168.007.338L5.65 9.857a9.3 9.3 0 0 1 1.099-1.358zm4.097 11.094a7.56 7.56 0 0 1-2.152-3.67.506.506 0 1 0-.98.253 8.7 8.7 0 0 0 1.738 3.417h-2.89a8.23 8.23 0 0 1-2.157-5.569 7.4 7.4 0 0 1 .735-3.279l11.867 4.747c.266 1.681.993 3.093 2.109 4.101z"/></svg>