<svg width="24" height="24" viewBox="0 0 24 24" fill="none" xmlns="http://www.w3.org/2000/svg">
<path d="M10.5 20.999C9.16248 19.806 8.21511 18.238 7.78125 16.499M4.11865 9.89648L18.0752 15.4793M18 14.2494C18 17.2185 19.2478 19.7807 21.75 20.9994H5.71875C3.97243 19.1865 2.99776 16.7667 3 14.2494C3 11.6048 4.05282 9.47851 5.76282 7.7207C5.86653 7.61551 5.999 7.5433 6.1436 7.51311C6.2882 7.48292 6.43849 7.49611 6.57563 7.55101L8.955 8.51476C9.13852 8.58802 9.33469 8.62429 9.53226 8.6215C9.72984 8.61871 9.92491 8.57692 10.1063 8.49851C10.2877 8.42011 10.4518 8.30665 10.5891 8.16464C10.7265 8.02263 10.8345 7.85488 10.9069 7.67101L12.8756 2.69195C13.2647 1.75445 14.3259 1.2557 15.2784 1.61101C15.5147 1.69882 15.7308 1.83336 15.9139 2.00658C16.097 2.1798 16.2432 2.38816 16.344 2.61919C16.4447 2.85023 16.4978 3.0992 16.5001 3.35122C16.5025 3.60325 16.4539 3.85316 16.3575 4.08601L14.3559 9.06414C14.2094 9.43329 14.2152 9.84549 14.3722 10.2103C14.5291 10.5752 14.8243 10.8629 15.1931 11.0104L17.5313 11.9329C17.67 11.989 17.7887 12.0853 17.8722 12.2094C17.9558 12.3336 18.0003 12.4798 18 12.6294V14.2494Z" stroke="black" stroke-width="1.5" stroke-linecap="round" stroke-linejoin="round"/>
</svg>
