<svg width="24" height="24" viewBox="0 0 24 24" fill="none" xmlns="http://www.w3.org/2000/svg">
<path d="M8.72633 3.75626C8.37788 3.98023 8.27698 4.44426 8.50094 4.7927C8.72491 5.14114 9.18894 5.24205 9.53738 5.01809L9.13185 4.38718L8.72633 3.75626ZM10.9563 4.54306L10.4496 5.09602V5.09602L10.9563 4.54306ZM14.2741 7.58322L14.7808 7.03027L14.7808 7.03026L14.2741 7.58322ZM14.8665 7.77536L14.7808 7.03027H14.7808L14.8665 7.77536ZM15.3998 7.45378L16.0187 7.87729C16.0224 7.87199 16.0259 7.86665 16.0294 7.86126L15.3998 7.45378ZM17.8209 3.71251L17.268 3.20582C17.2397 3.23669 17.214 3.26988 17.1913 3.30503L17.8209 3.71251ZM21.1387 6.75267L21.5995 7.34441C21.6325 7.31868 21.6633 7.29023 21.6916 7.25936L21.1387 6.75267ZM17.6227 9.49068L17.1618 8.89894C17.1568 8.90289 17.1518 8.90689 17.1468 8.91097L17.6227 9.49068ZM17.3488 10.05L18.0985 10.0704V10.0704L17.3488 10.05ZM17.5918 10.6234L18.0985 10.0704L18.0985 10.0704L17.5918 10.6234ZM20.9096 13.6635L21.4163 13.1106V13.1106L20.9096 13.6635ZM21.3948 14.704L22.144 14.6713V14.6713L21.3948 14.704ZM21.0021 15.7828L21.5551 16.2895V16.2895L21.0021 15.7828ZM20.247 15.4967C19.9672 15.8021 19.9879 16.2765 20.2933 16.5564C20.5987 16.8362 21.0731 16.8155 21.3529 16.5101L20.8 16.0034L20.247 15.4967ZM8.07871 4.35213C7.79888 4.65753 7.81959 5.13195 8.12498 5.41179C8.43037 5.69162 8.90479 5.67091 9.18463 5.36552L8.63167 4.85883L8.07871 4.35213ZM8.83619 4.63564L8.28323 4.12894V4.12894L8.83619 4.63564ZM16.4418 20.7594L16.9948 21.2661V21.2661L16.4418 20.7594ZM14.3609 21.7297L14.3936 22.479V22.479L14.3609 21.7297ZM12.2032 20.9444L12.7099 20.3915L12.2032 20.9444ZM2.25 11.824L1.69704 11.3173C1.56266 11.4639 1.49204 11.6579 1.50071 11.8567C1.50939 12.0554 1.59665 12.2425 1.74331 12.3769L2.25 11.824ZM7.09613 7.64548C7.37597 7.34009 7.35525 6.86566 7.04986 6.58583C6.74447 6.30599 6.27005 6.3267 5.99021 6.63209L6.54317 7.13878L7.09613 7.64548ZM3.90887 13.3439C3.62903 13.6493 3.64974 14.1237 3.95514 14.4035C4.26053 14.6834 4.73495 14.6627 5.01479 14.3573L4.46183 13.8506L3.90887 13.3439ZM8.05494 11.0395C8.33478 10.7341 8.31407 10.2597 8.00868 9.97989C7.70329 9.70005 7.22886 9.72076 6.94903 10.0262L7.50198 10.5328L8.05494 11.0395ZM4.28311 3.91754C3.97761 3.63783 3.50319 3.65874 3.22348 3.96424C2.94377 4.26975 2.96468 4.74416 3.27018 5.02388L3.77665 4.47071L4.28311 3.91754ZM19.717 20.0821C20.0225 20.3618 20.497 20.3409 20.7767 20.0354C21.0564 19.7299 21.0355 19.2555 20.73 18.9758L20.2235 19.529L19.717 20.0821ZM9.13185 4.38718L9.53738 5.01809C9.64811 4.94692 9.77655 4.90553 9.91023 4.89969L9.87751 4.15041L9.8448 3.40112C9.44367 3.41863 9.05829 3.54289 8.72633 3.75626L9.13185 4.38718ZM9.87751 4.15041L9.91023 4.89969C10.1089 4.89102 10.303 4.96164 10.4496 5.09602L10.9563 4.54306L11.463 3.9901C11.0231 3.58695 10.441 3.37509 9.8448 3.40112L9.87751 4.15041ZM10.9563 4.54306L10.4496 5.09602L13.7674 8.13618L14.2741 7.58322L14.7808 7.03026L11.463 3.9901L10.9563 4.54306ZM14.2741 7.58322L13.7674 8.13616C13.9258 8.28134 14.1136 8.39079 14.318 8.45709L14.5494 7.74368L14.7808 7.03027V7.03027L14.2741 7.58322ZM14.5494 7.74368L14.318 8.45709C14.5224 8.52339 14.7386 8.545 14.9521 8.52045L14.8665 7.77536L14.7808 7.03027H14.7808L14.5494 7.74368ZM14.8665 7.77536L14.9521 8.52045C15.1656 8.49591 15.3713 8.42578 15.5554 8.31481L15.1681 7.67254L14.7808 7.03027H14.7808L14.8665 7.77536ZM15.1681 7.67254L15.5554 8.31481C15.7394 8.20385 15.8974 8.05464 16.0187 7.87729L15.3998 7.45378L14.7808 7.03027L14.7808 7.03027L15.1681 7.67254ZM15.3998 7.45378L16.0294 7.86126L18.4506 4.11999L17.8209 3.71251L17.1913 3.30503L14.7701 7.0463L15.3998 7.45378ZM17.8209 3.71251L18.3739 4.21921C18.6426 3.9259 19.0169 3.75137 19.4144 3.73402L19.3816 2.98473L19.3489 2.23545C18.554 2.27015 17.8055 2.61921 17.268 3.20582L17.8209 3.71251ZM19.3816 2.98473L19.4144 3.73402C19.8118 3.71667 20.1999 3.85791 20.4932 4.12668L20.9999 3.57372L21.5066 3.02076C20.9199 2.48323 20.1438 2.20074 19.3489 2.23545L19.3816 2.98473ZM21.7277 5.13445L20.9784 5.16716C20.9957 5.56461 20.8545 5.95267 20.5857 6.24598L21.1387 6.75267L21.6916 7.25936C22.2292 6.67275 22.5116 5.89663 22.4769 5.10173L21.7277 5.13445ZM21.1387 6.75267L20.6779 6.16093L17.1618 8.89894L17.6227 9.49068L18.0835 10.0824L21.5995 7.34441L21.1387 6.75267ZM17.6227 9.49068L17.1468 8.91097C16.9807 9.0473 16.8458 9.21774 16.7513 9.41073L17.4249 9.74057L18.0985 10.0704V10.0704L17.6227 9.49068ZM17.4249 9.74057L16.7513 9.41073C16.6568 9.60373 16.6049 9.81477 16.5991 10.0296L17.3488 10.05L18.0985 10.0704V10.0704L17.4249 9.74057ZM17.3488 10.05L16.5991 10.0296C16.5932 10.2444 16.6336 10.458 16.7174 10.6558L17.408 10.3631L18.0985 10.0704V10.0704L17.3488 10.05ZM17.408 10.3631L16.7174 10.6558C16.8013 10.8536 16.9267 11.0312 17.0851 11.1763L17.5918 10.6234L18.0985 10.0704V10.0704L17.408 10.3631ZM17.5918 10.6234L17.0851 11.1763L20.4029 14.2165L20.9096 13.6635L21.4163 13.1106L18.0985 10.0704L17.5918 10.6234ZM20.9096 13.6635L20.4029 14.2165C20.5495 14.3509 20.6368 14.538 20.6455 14.7367L21.3948 14.704L22.144 14.6713C22.118 14.0751 21.8562 13.5137 21.4163 13.1106L20.9096 13.6635ZM21.0021 15.7828L20.4491 15.2761L20.247 15.4967L20.8 16.0034L21.3529 16.5101L21.5551 16.2895L21.0021 15.7828ZM20.9999 3.57372L20.4932 4.12668C20.7865 4.39544 20.961 4.76972 20.9784 5.16716L21.7277 5.13445L22.4769 5.10173C22.4422 4.30684 22.0932 3.55829 21.5066 3.02076L20.9999 3.57372ZM21.3948 14.704L20.6455 14.7367C20.6541 14.9355 20.5835 15.1295 20.4491 15.2761L21.0021 15.7828L21.5551 16.2895C21.9582 15.8496 22.1701 15.2675 22.144 14.6713L21.3948 14.704ZM8.63167 4.85883L9.18463 5.36552L9.38915 5.14233L8.83619 4.63564L8.28323 4.12894L8.07871 4.35213L8.63167 4.85883ZM8.83619 4.63564L9.38915 5.14233C9.52324 4.99599 9.71107 4.90839 9.91023 4.89969L9.87751 4.15041L9.8448 3.40112C9.24906 3.42713 8.68668 3.68866 8.28323 4.12894L8.83619 4.63564ZM18.2942 18.7379L17.7413 18.2312L15.8889 20.2527L16.4418 20.7594L16.9948 21.2661L18.8472 19.2446L18.2942 18.7379ZM16.4418 20.7594L15.8889 20.2527C15.4857 20.6926 14.9243 20.9544 14.3282 20.9805L14.3609 21.7297L14.3936 22.479C15.3872 22.4356 16.3229 21.9993 16.9948 21.2661L16.4418 20.7594ZM14.3609 21.7297L14.3282 20.9805C13.732 21.0065 13.1499 20.7946 12.7099 20.3915L12.2032 20.9444L11.6966 21.4974C12.4298 22.1693 13.4 22.5224 14.3936 22.479L14.3609 21.7297ZM2.25 11.824L2.80296 12.3307L7.09613 7.64548L6.54317 7.13878L5.99021 6.63209L1.69704 11.3173L2.25 11.824ZM12.2032 20.9444L12.7099 20.3915L2.75669 11.271L2.25 11.824L1.74331 12.3769L11.6966 21.4974L12.2032 20.9444ZM4.46183 13.8506L5.01479 14.3573L8.05494 11.0395L7.50198 10.5328L6.94903 10.0262L3.90887 13.3439L4.46183 13.8506ZM3.77665 4.47071L3.27018 5.02388L19.717 20.0821L20.2235 19.529L20.73 18.9758L4.28311 3.91754L3.77665 4.47071Z" fill="black"/>
</svg>
