<svg width="24" height="24" viewBox="0 0 24 24" fill="none" xmlns="http://www.w3.org/2000/svg">
<path d="M20.8 16.0034L21.0021 15.7828C21.2709 15.4895 21.4121 15.1014 21.3948 14.704C21.3774 14.3065 21.2029 13.9323 20.9096 13.6635L17.5918 10.6233C17.5126 10.5507 17.4499 10.462 17.408 10.3631C17.366 10.2641 17.3459 10.1574 17.3488 10.0499C17.3517 9.94254 17.3777 9.83702 17.4249 9.74052C17.4722 9.64403 17.5396 9.55881 17.6227 9.49064L21.1387 6.75262C21.5418 6.31266 21.7537 5.73057 21.7277 5.1344C21.7016 4.53823 21.4398 3.97682 20.9999 3.57367C20.5599 3.17052 19.9778 2.95866 19.3816 2.98469C18.7855 3.01072 18.2241 3.27251 17.8209 3.71247L15.3998 7.45373C15.3391 7.54241 15.2601 7.61701 15.1681 7.6725C15.0761 7.72798 14.9732 7.76304 14.8665 7.77532C14.7597 7.78759 14.6516 7.77679 14.5494 7.74364C14.4472 7.71049 14.3533 7.65576 14.2741 7.58317L10.9563 4.54302C10.663 4.27425 10.275 4.13301 9.87751 4.15036C9.82618 4.1526 9.77523 4.15746 9.72485 4.16487C9.51278 4.19602 9.31071 4.27217 9.13185 4.38713M9.72485 4.16487C9.38497 4.21478 9.07025 4.38016 8.83619 4.63559L8.63167 4.85878M18.2942 18.7378L16.4418 20.7593C15.9043 21.3459 15.1558 21.695 14.3609 21.7297C13.566 21.7644 12.7899 21.4819 12.2032 20.9444L2.25 11.8239L6.54317 7.13874M4.46183 13.8505L7.50198 10.5328M3.77665 4.47066L20.2235 19.5289" stroke="black" stroke-width="1.5" stroke-linecap="round" stroke-linejoin="round"/>
</svg>
