<svg viewBox="0 0 24 24" fill="none" xmlns="http://www.w3.org/2000/svg" width="24" height="24">
<path d="M3.3 21.315V4.305C3.3 3.931 3.448 3.572 3.713 3.308 3.977 3.043 4.336 2.895 4.71 2.895H8.76C9.091 2.895 9.36 3.164 9.36 3.495 9.36 3.826 9.091 4.095 8.76 4.095H4.71C4.654 4.095 4.6 4.117 4.561 4.156 4.522 4.195 4.5 4.249 4.5 4.305V21.315C4.5 21.37 4.522 21.424 4.561 21.463 4.6 21.503 4.654 21.525 4.71 21.526H19.29C19.346 21.525 19.4 21.503 19.439 21.463 19.478 21.424 19.5 21.37 19.5 21.315V4.305C19.5 4.249 19.478 4.195 19.439 4.156 19.4 4.117 19.346 4.095 19.29 4.095H15.24C14.909 4.095 14.64 3.826 14.64 3.495 14.64 3.164 14.909 2.895 15.24 2.895H19.29C19.664 2.895 20.023 3.043 20.287 3.308 20.552 3.572 20.7 3.931 20.7 4.305V21.315C20.7 21.688 20.552 22.047 20.287 22.312 20.023 22.576 19.664 22.725 19.29 22.726H4.71C4.336 22.725 3.977 22.576 3.713 22.312 3.448 22.047 3.3 21.688 3.3 21.315Z" fill="black"/>
<path d="M15.45 5.925C15.45 5.01 15.087 4.132 14.44 3.485 13.793 2.838 12.915 2.475 12 2.475 11.085 2.475 10.207 2.838 9.56 3.485 8.913 4.132 8.55 5.01 8.55 5.925V6.135H15.45V5.925ZM16.65 6.735C16.65 7.066 16.381 7.335 16.05 7.335H7.95C7.619 7.335 7.35 7.066 7.35 6.735V5.925C7.35 4.692 7.84 3.509 8.712 2.637 9.584 1.765 10.767 1.275 12 1.275 13.233 1.275 14.416 1.765 15.288 2.637 16.16 3.509 16.65 4.692 16.65 5.925V6.735Z" fill="black"/>
<path d="M9.811 16.136C9.606 16.136 9.439 16.088 9.311 15.992 9.183 15.89 9.081 15.736 9.004 15.532L7.065 10.079C6.982 9.836 6.998 9.628 7.113 9.455 7.235 9.282 7.443 9.196 7.737 9.196 7.942 9.196 8.099 9.244 8.207 9.34 8.323 9.436 8.415 9.586 8.486 9.791L10.07 14.504H9.657L11.327 9.8C11.404 9.596 11.497 9.445 11.606 9.349 11.721 9.247 11.871 9.196 12.057 9.196 12.236 9.196 12.38 9.247 12.489 9.349 12.598 9.445 12.691 9.599 12.767 9.81L14.361 14.504H14.006L15.619 9.791C15.683 9.592 15.772 9.445 15.887 9.349 16.003 9.247 16.159 9.196 16.358 9.196 16.607 9.196 16.79 9.282 16.905 9.455 17.02 9.628 17.033 9.836 16.943 10.079L14.985 15.541C14.915 15.74 14.819 15.89 14.697 15.992 14.575 16.088 14.409 16.136 14.198 16.136 13.993 16.136 13.83 16.088 13.708 15.992 13.587 15.89 13.487 15.736 13.411 15.532L11.894 11.24H12.124L10.588 15.541C10.511 15.74 10.412 15.89 10.291 15.992 10.175 16.088 10.015 16.136 9.811 16.136Z" fill="black"/>
<path d="M17.4 17.248C17.731 17.248 18 17.516 18 17.848 18 18.179 17.731 18.448 17.4 18.448H6.6C6.269 18.448 6 18.179 6 17.848 6 17.516 6.269 17.248 6.6 17.248H17.4Z" fill="black"/>
</svg>