<svg xmlns="http://www.w3.org/2000/svg" width="24" height="24" fill="currentColor" viewBox="0 0 24 24"><path d="M15.847 14.43a0.607 0.607 0 0 1-0.607 0.607H8.76a0.607 0.607 0 0 1 0-1.214h6.48a0.607 0.607 0 0 1 0.607 0.607m-0.607-3.847H8.76a0.608 0.608 0 0 0 0 1.215h6.48a0.607 0.607 0 0 0 0-1.214z m5.467-6.683v17.01a1.416 1.416 0 0 1-1.417 1.417H4.71a1.416 1.416 0 0 1-1.417-1.417V3.9a1.416 1.416 0 0 1 1.417-1.417h3.763a4.649 4.649 0 0 1 7.054 0h3.763a1.416 1.416 0 0 1 1.417 1.417M8.557 5.52v0.203h6.886V5.52a3.443 3.443 0 0 0-6.886 0m10.936-1.62a0.204 0.204 0 0 0-0.203-0.203h-3.004a4.68 4.68 0 0 1 0.372 1.823v0.81a0.607 0.607 0 0 1-0.607 0.607h-8.1a0.607 0.607 0 0 1-0.607-0.607V5.52a4.68 4.68 0 0 1 0.372-1.823H4.712a0.204 0.204 0 0 0-0.202 0.203v17.01a0.204 0.204 0 0 0 0.202 0.203h14.58a0.204 0.204 0 0 0 0.203-0.203z"/></svg>