<svg xmlns="http://www.w3.org/2000/svg" width="24" height="24" fill="currentColor" viewBox="0 0 24 24"><path d="M19.29 2.483h-3.763a4.649 4.649 0 0 0-7.054 0H4.71A1.416 1.416 0 0 0 3.293 3.9v17.01a1.416 1.416 0 0 0 1.417 1.417h14.58a1.416 1.416 0 0 0 1.417-1.417V3.9a1.416 1.416 0 0 0-1.417-1.417M12 2.078a3.444 3.444 0 0 1 3.443 3.443v0.203H8.557v-0.203A3.444 3.444 0 0 1 12 2.078m7.493 18.833a0.204 0.204 0 0 1-0.203 0.203H4.71a0.204 0.204 0 0 1-0.203-0.203V3.901a0.204 0.204 0 0 1 0.203-0.203h3.004a4.68 4.68 0 0 0-0.372 1.823v0.81a0.607 0.607 0 0 0 0.607 0.607h8.1a0.607 0.607 0 0 0 0.607-0.607v-0.81a4.68 4.68 0 0 0-0.372-1.823h3.004a0.204 0.204 0 0 1 0.202 0.203z"/></svg>