<svg xmlns="http://www.w3.org/2000/svg" width="24" height="24" fill="currentColor" viewBox="0 0 24 24"><path d="M22.53 4.103H1.47A1.416 1.416 0 0 0 0.053 5.52v12.96a1.416 1.416 0 0 0 1.417 1.417h21.06a1.416 1.416 0 0 0 1.417-1.417V5.52a1.416 1.416 0 0 0-1.417-1.417m0.203 14.377a0.204 0.204 0 0 1-0.203 0.203H1.47a0.204 0.204 0 0 1-0.203-0.203V5.52a0.204 0.204 0 0 1 0.203-0.203h21.06a0.204 0.204 0 0 1 0.203 0.203z m-10.936-8.91v4.86a0.607 0.607 0 0 1-1.214 0v-3.392l-2.203 2.202a0.607 0.607 0 0 1-0.86 0l-2.203-2.202v3.392a0.608 0.608 0 0 1-1.215 0v-4.86a0.607 0.607 0 0 1 1.036-0.43l2.811 2.81 2.81-2.81a0.607 0.607 0 0 1 1.037 0.43z m7.923 2a0.607 0.607 0 0 1 0 0.86l-2.43 2.43a0.607 0.607 0 0 1-0.86 0l-2.43-2.43a0.607 0.607 0 1 1 0.86-0.86l1.393 1.392V9.57a0.608 0.608 0 0 1 1.215 0v3.392l1.394-1.392a0.607 0.607 0 0 1 0.858 0"/></svg>