<svg xmlns="http://www.w3.org/2000/svg" width="24" height="24" fill="currentColor" viewBox="0 0 24 24"><path d="M12.607 7.14v4.516l3.755 2.252a0.608 0.608 0 0 1-0.625 1.043l-4.05-2.43a0.6 0.6 0 0 1-0.295-0.522v-4.86a0.608 0.608 0 0 1 1.215 0zM12 2.483a9.456 9.456 0 0 0-6.732 2.79 46.8 46.8 0 0 0-2.381 2.612V5.52a0.608 0.608 0 0 0-1.215 0v4.05a0.607 0.607 0 0 0 0.607 0.607h4.05a0.607 0.607 0 0 0 0-1.214H3.568a46.8 46.8 0 0 1 2.558-2.836 8.303 8.303 0 1 1 0.172 11.909 0.607 0.607 0 1 0-0.834 0.883 9.517 9.517 0 1 0 6.535-16.436z"/></svg>