<svg width="24" height="24" viewBox="0 0 24 24" fill="none" xmlns="http://www.w3.org/2000/svg">
<path d="M10.4998 14.5988C10.0437 14.8618 9.52646 15.0002 8.99997 15C8.47347 14.9998 7.95629 14.8611 7.50039 14.5977C7.04449 14.3344 6.66593 13.9557 6.40273 13.4997C6.13954 13.0437 6.00098 12.5265 6.00098 12C6.00098 11.4735 6.13954 10.9563 6.40273 10.5003C6.66593 10.0443 7.04449 9.66561 7.50039 9.40226C7.95629 9.13891 8.47347 9.00018 8.99997 9C9.52646 8.99982 10.0437 9.13821 10.4998 9.40125M17.9998 14.5988C17.5437 14.8618 17.0265 15.0002 16.5 15C15.9735 14.9998 15.4563 14.8611 15.0004 14.5977C14.5445 14.3344 14.1659 13.9557 13.9027 13.4997C13.6395 13.0437 13.501 12.5265 13.501 12C13.501 11.4735 13.6395 10.9563 13.9027 10.5003C14.1659 10.0443 14.5445 9.66561 15.0004 9.40226C15.4563 9.13891 15.9735 9.00018 16.5 9C17.0265 8.99982 17.5437 9.13821 17.9998 9.40125M3 5.25H21C21.4142 5.25 21.75 5.58579 21.75 6V18C21.75 18.4142 21.4142 18.75 21 18.75H3C2.58579 18.75 2.25 18.4142 2.25 18V6C2.25 5.58579 2.58579 5.25 3 5.25Z" stroke="black" stroke-width="1.5" stroke-linecap="round" stroke-linejoin="round"/>
</svg>
