<svg xmlns="http://www.w3.org/2000/svg" width="24" height="24" fill="currentColor" viewBox="0 0 24 24"><path d="M21.72 4.103H2.28A1.416 1.416 0 0 0 0.863 5.52v12.96A1.416 1.416 0 0 0 2.28 19.897h19.44a1.416 1.416 0 0 0 1.417-1.417V5.52A1.416 1.416 0 0 0 21.72 4.103m0.203 14.377a0.204 0.204 0 0 1-0.203 0.203H2.28a0.204 0.204 0 0 1-0.203-0.203V5.52a0.204 0.204 0 0 1 0.203-0.203h19.44a0.204 0.204 0 0 1 0.203 0.203z m-11.017-3.978a0.607 0.607 0 0 1-0.222 0.83 3.847 3.847 0 1 1 0-6.664 0.607 0.607 0 1 1-0.608 1.051 2.633 2.633 0 1 0 0 4.561 0.607 0.607 0 0 1 0.83 0.222m8.1 0a0.607 0.607 0 0 1-0.222 0.83 3.847 3.847 0 1 1 0-6.664 0.607 0.607 0 1 1-0.608 1.051 2.633 2.633 0 1 0 0 4.561 0.607 0.607 0 0 1 0.83 0.222"/></svg>