<svg xmlns="http://www.w3.org/2000/svg" fill="currentColor" viewBox="0 0 24 24" width="24" height="24"><path d="M18.1 15.67a0.607 0.607 0 0 1-0.86 0l-2.203-2.202v6.632a0.607 0.607 0 0 1-1.214 0v-6.632l-2.203 2.202a0.607 0.607 0 0 1-0.86-0.86l3.24-3.24a0.607 0.607 0 0 1 0.86 0l3.24 3.24a0.607 0.607 0 0 1 0 0.86M15.24 3.293a8.724 8.724 0 0 0-7.854 4.949 6.277 6.277 0 1 0-1.056 12.465h4.05a0.607 0.607 0 0 0 0-1.214H6.33a5.063 5.063 0 0 1 0-10.126 4.8 4.8 0 0 1 0.599 0.036 8.64 8.64 0 0 0-0.396 2.596 0.608 0.608 0 0 0 1.215 0 7.493 7.493 0 1 1 10.49 6.87 0.607 0.607 0 0 0 0.486 1.113A8.707 8.707 0 0 0 15.24 3.292z"/></svg>