<svg width="24" height="24" viewBox="0 0 24 24" fill="none" xmlns="http://www.w3.org/2000/svg">
<path d="M6.00787 5.25L3.00055 8.31131M9 6.75L3 12.75M9 11.25L3 17.25M9 15.75L6 18.75M8.99927 5.24256L8.99927 18.7573M14.9996 5.24256V18.7573M8.99927 9.75729H20.9993M8.99927 14.2573H20.9993M3.83644 18.7567H20.1698C20.63 18.7567 21.0031 18.3836 21.0031 17.9233V6.07589C21.0031 5.61565 20.63 5.24255 20.1698 5.24255H3.83645C3.37621 5.24255 3.00311 5.61565 3.00311 6.07588V17.9233C3.00311 18.3836 3.37621 18.7567 3.83644 18.7567Z" stroke="black" stroke-width="1.5" stroke-linecap="round" stroke-linejoin="round"/>
</svg>
