<svg viewBox="0 0 24 24" fill="none" xmlns="http://www.w3.org/2000/svg" width="24" height="24">
<path d="M20.823 4.102C21.652 4.102 22.323 4.774 22.323 5.602V18.398C22.323 19.226 21.652 19.897 20.823 19.898H3.183C2.355 19.897 1.683 19.226 1.683 18.398V5.602C1.683 4.774 2.355 4.102 3.183 4.102H20.823ZM2.894 18.473C2.927 18.602 3.044 18.697 3.183 18.698H3.957L8.16 14.493V13.206L2.894 18.473ZM5.653 18.698H8.16V16.19L5.653 18.698ZM9.36 15.038V18.698H14.639V15.038H9.36ZM15.839 15.038V18.698H20.823C20.989 18.697 21.123 18.563 21.123 18.398V15.038H15.839ZM2.883 15.503V16.787L8.16 11.511V10.226L2.883 15.503ZM9.36 11.731C9.361 11.748 9.361 11.764 9.36 11.781V13.838H14.639V10.178H9.36V11.731ZM15.839 13.838H21.123V10.178H15.839V13.838ZM2.883 12.519V13.805L8.16 8.528V7.243L2.883 12.519ZM2.883 9.538V10.823L8.16 5.546V5.302H7.12L2.883 9.538ZM9.36 8.752C9.361 8.767 9.361 8.782 9.36 8.798V8.978H14.639V5.302H9.36V8.752ZM15.839 8.978H21.123V5.602C21.123 5.436 20.989 5.302 20.823 5.302H15.839V8.978ZM3.183 5.302C3.018 5.302 2.883 5.436 2.883 5.602V7.841L5.423 5.302H3.183Z" fill="black"/>
</svg>