<svg width="24" height="24" viewBox="0 0 24 24" fill="none" xmlns="http://www.w3.org/2000/svg">
<path d="M19.3528 5.41825C20.0431 5.41835 20.6028 5.97797 20.6028 6.66825V17.3313C20.6026 18.0215 20.043 18.5812 19.3528 18.5813H4.65265C3.96261 18.5811 3.40285 18.0214 3.40265 17.3313V6.66825C3.40266 5.97805 3.9625 5.41848 4.65265 5.41825H19.3528ZM4.41144 17.3938C4.4393 17.5014 4.5365 17.5811 4.65265 17.5813H5.29718L8.80011 14.0774V13.0052L4.41144 17.3938ZM6.71124 17.5813H8.80011V15.4915L6.71124 17.5813ZM9.80011 14.5315V17.5813H14.1995V14.5315H9.80011ZM15.1995 14.5315V17.5813H19.3528C19.4907 17.5812 19.6026 17.4692 19.6028 17.3313V14.5315H15.1995ZM4.40265 14.9192V15.9895L8.80011 11.5921V10.5218L4.40265 14.9192ZM9.80011 11.7757C9.80071 11.7897 9.80068 11.8036 9.80011 11.8177V13.5315H14.1995V10.4817H9.80011V11.7757ZM15.1995 13.5315H19.6028V10.4817H15.1995V13.5315ZM4.40265 12.4329V13.5042L8.80011 9.10673V8.03544L4.40265 12.4329ZM4.40265 9.94852V11.0188L8.80011 6.62138V6.41825H7.93292L4.40265 9.94852ZM9.80011 9.29325C9.8006 9.30598 9.80058 9.31861 9.80011 9.33134V9.48173H14.1995V6.41825H9.80011V9.29325ZM15.1995 9.48173H19.6028V6.66825C19.6028 6.53025 19.4908 6.41835 19.3528 6.41825H15.1995V9.48173ZM4.65265 6.41825C4.51478 6.41848 4.40266 6.53033 4.40265 6.66825V8.53446L6.51886 6.41825H4.65265Z" fill="black"/>
</svg>
