<svg width="24" height="24" viewBox="0 0 24 24" fill="none" xmlns="http://www.w3.org/2000/svg">
<path d="M20 20.6851H20.75V20.6851H20ZM9.74902 17.627C9.33481 17.627 8.99902 17.9627 8.99902 18.377C8.99902 18.7912 9.33481 19.127 9.74902 19.127V18.377V17.627ZM14.2475 19.127C14.6617 19.127 14.9975 18.7912 14.9975 18.377C14.9975 17.9627 14.6617 17.627 14.2475 17.627V18.377V19.127ZM13.5 4.1001C13.0858 4.1001 12.75 4.43588 12.75 4.8501C12.75 5.26431 13.0858 5.6001 13.5 5.6001V4.8501V4.1001ZM13.5 14.6001C13.0858 14.6001 12.75 14.9359 12.75 15.3501C12.75 15.7643 13.0858 16.1001 13.5 16.1001V15.3501V14.6001ZM19.505 8.75L20.0353 9.28033C20.2498 9.06583 20.314 8.74324 20.1979 8.46299C20.0818 8.18273 19.8083 8 19.505 8V8.75ZM16.805 11.45L16.2747 11.9803C16.5675 12.2732 17.0424 12.2732 17.3353 11.9803L16.805 11.45ZM14.105 8.75V8C13.8016 8 13.5282 8.18273 13.4121 8.46299C13.296 8.74324 13.3602 9.06583 13.5747 9.28033L14.105 8.75ZM10.5 16.1001C10.9142 16.1001 11.25 15.7643 11.25 15.3501C11.25 14.9359 10.9142 14.6001 10.5 14.6001V15.3501V16.1001ZM1.5 14.6001H0.75H1.5ZM10.5 5.6001C10.9142 5.6001 11.25 5.26431 11.25 4.8501C11.25 4.43588 10.9142 4.1001 10.5 4.1001V4.8501V5.6001ZM6.75 8.6001C6.75 8.18588 6.41421 7.8501 6 7.8501C5.58579 7.8501 5.25 8.18588 5.25 8.6001H6H6.75ZM5.25 11.6001C5.25 12.0143 5.58579 12.3501 6 12.3501C6.41421 12.3501 6.75 12.0143 6.75 11.6001H6H5.25ZM4.5 7.8501C4.08579 7.8501 3.75 8.18588 3.75 8.6001C3.75 9.01431 4.08579 9.3501 4.5 9.3501V8.6001V7.8501ZM7.5 9.3501C7.91421 9.3501 8.25 9.01431 8.25 8.6001C8.25 8.18588 7.91421 7.8501 7.5 7.8501V8.6001V9.3501ZM11.25 2.74756C11.25 2.33334 10.9142 1.99756 10.5 1.99756C10.0858 1.99756 9.75 2.33335 9.75 2.74756L10.5 2.74756L11.25 2.74756ZM9.75 15.3476C9.75 15.7618 10.0858 16.0976 10.5 16.0976C10.9142 16.0976 11.25 15.7618 11.25 15.3476H10.5H9.75ZM20 15.2496H19.25L19.25 20.6851H20H20.75L20.75 15.2496H20ZM20 20.6851H19.25C19.25 20.5616 19.3148 20.4977 19.3297 20.4863L19.787 21.0808L20.2443 21.6752C20.5319 21.4539 20.75 21.1054 20.75 20.6851H20ZM19.787 21.0808L19.3297 20.4863C19.3369 20.4808 19.3359 20.4835 19.3233 20.4874C19.3111 20.4913 19.2936 20.4946 19.2727 20.4946V21.2446V21.9946C19.61 21.9946 19.961 21.8931 20.2443 21.6752L19.787 21.0808ZM19.2727 21.2446V20.4946H4.72727V21.2446V21.9946H19.2727V21.2446ZM4.72727 21.2446V20.4946C4.70642 20.4946 4.68885 20.4913 4.67667 20.4874C4.66414 20.4835 4.66315 20.4808 4.67033 20.4863L4.21301 21.0808L3.7557 21.6752C4.03897 21.8931 4.39003 21.9946 4.72727 21.9946V21.2446ZM4.21301 21.0808L4.67033 20.4863C4.68516 20.4977 4.75 20.5616 4.75 20.6851H4H3.25C3.25 21.1054 3.46809 21.4539 3.7557 21.6752L4.21301 21.0808ZM4 20.6851H4.75V15.249H4H3.25V20.6851H4ZM9.74902 18.377V19.127H14.2475V18.377V17.627H9.74902V18.377ZM13.5 4.8501V5.6001H21.75V4.8501V4.1001H13.5V4.8501ZM21.75 4.8501V5.6001V5.6001L22.2803 5.06977L22.8107 4.53944C22.5294 4.25813 22.1478 4.1001 21.75 4.1001V4.8501ZM22.2803 5.06977L21.75 5.6001V5.6001H22.5H23.25C23.25 5.20227 23.092 4.82074 22.8107 4.53944L22.2803 5.06977ZM22.5 5.6001H21.75V14.6001H22.5H23.25V5.6001H22.5ZM22.5 14.6001H21.75V14.6001L22.2803 15.1304L22.8107 15.6608C23.092 15.3795 23.25 14.9979 23.25 14.6001H22.5ZM22.2803 15.1304L21.75 14.6001V14.6001V15.3501V16.1001C22.1478 16.1001 22.5294 15.9421 22.8107 15.6608L22.2803 15.1304ZM21.75 15.3501V14.6001H13.5V15.3501V16.1001H21.75V15.3501ZM19.505 8.75L18.9746 8.21967L16.2747 10.9197L16.805 11.45L17.3353 11.9803L20.0353 9.28033L19.505 8.75ZM16.805 11.45L17.3353 10.9197L14.6353 8.21967L14.105 8.75L13.5747 9.28033L16.2747 11.9803L16.805 11.45ZM14.105 8.75V9.5H19.505V8.75V8H14.105V8.75ZM10.5 15.3501V14.6001H2.25V15.3501V16.1001H10.5V15.3501ZM2.25 15.3501V14.6001L2.25 14.6001L1.71967 15.1304L1.18934 15.6608C1.47065 15.9421 1.85218 16.1001 2.25 16.1001V15.3501ZM1.71967 15.1304L2.25 14.6001L2.25 14.6001H1.5H0.75C0.75 14.9979 0.908035 15.3795 1.18934 15.6608L1.71967 15.1304ZM1.5 14.6001H2.25V5.6001H1.5H0.75V14.6001H1.5ZM1.5 5.6001H2.25L2.25 5.6001L1.71967 5.06977L1.18934 4.53944C0.908035 4.82074 0.75 5.20227 0.75 5.6001H1.5ZM1.71967 5.06977L2.25 5.6001L2.25 5.6001V4.8501V4.1001C1.85217 4.1001 1.47064 4.25813 1.18934 4.53944L1.71967 5.06977ZM2.25 4.8501V5.6001H10.5V4.8501V4.1001H2.25V4.8501ZM6 8.6001H5.25V11.6001H6H6.75V8.6001H6ZM4.5 8.6001V9.3501H7.5V8.6001V7.8501H4.5V8.6001ZM10.5 2.74756L9.75 2.74756L9.75 15.3476H10.5H11.25L11.25 2.74756L10.5 2.74756Z" fill="black"/>
</svg>
