<svg viewBox="0 0 24 24" fill="none" xmlns="http://www.w3.org/2000/svg" width="24" height="24">
<path d="M6.9 6.302C6.9 6.307 6.901 6.312 6.902 6.317 6.903 6.321 6.904 6.326 6.905 6.33L6.905 6.351C6.906 6.373 6.907 6.394 6.911 6.415 6.952 6.706 7.202 6.93 7.505 6.93H15.45C15.506 6.93 15.559 6.952 15.599 6.991 15.638 7.03 15.66 7.084 15.66 7.14V16.223C15.66 16.554 15.929 16.823 16.26 16.823 16.591 16.823 16.859 16.554 16.86 16.223V14.227H21.27C21.643 14.227 22.002 14.077 22.267 13.813 22.531 13.548 22.68 13.19 22.68 12.816V3.906C22.68 3.532 22.531 3.173 22.267 2.909 22.002 2.644 21.643 2.496 21.27 2.496H8.31C7.936 2.496 7.577 2.644 7.313 2.909 7.048 3.173 6.9 3.532 6.9 3.906V6.302ZM16.86 13.027V7.14C16.86 6.766 16.712 6.407 16.447 6.142 16.183 5.878 15.824 5.73 15.45 5.73H8.1V3.906C8.1 3.85 8.122 3.796 8.161 3.757 8.2 3.718 8.254 3.696 8.31 3.696H21.27C21.325 3.696 21.379 3.718 21.418 3.757 21.458 3.796 21.48 3.85 21.48 3.906V12.816C21.48 12.871 21.458 12.925 21.418 12.964 21.379 13.004 21.325 13.027 21.27 13.027H16.86Z" fill="black"/>
<path fill-rule="evenodd" clip-rule="evenodd" d="M1.277 3.366C1.522 3.144 1.901 3.162 2.124 3.407L2.343 3.648C2.351 3.658 2.359 3.668 2.368 3.677L18.324 21.227 18.356 21.265C18.544 21.51 18.516 21.863 18.283 22.074 18.038 22.297 17.659 22.28 17.436 22.034L13.278 17.46H5.9L2.057 20.567C1.877 20.712 1.629 20.74 1.421 20.641 1.213 20.541 1.08 20.331 1.08 20.1V7.14C1.08 6.766 1.228 6.407 1.492 6.142 1.757 5.878 2.116 5.73 2.49 5.73H2.614L1.236 4.214C1.013 3.969 1.032 3.589 1.277 3.366ZM3.705 6.93L12.187 16.26H5.688C5.585 16.26 5.484 16.287 5.395 16.337L5.31 16.393 2.28 18.842V7.14C2.28 7.084 2.301 7.03 2.341 6.991 2.38 6.952 2.434 6.93 2.49 6.93H3.705Z" fill="black"/>
</svg>