<svg xmlns="http://www.w3.org/2000/svg" width="24" height="24" fill="currentColor" viewBox="0 0 24 24"><path d="M4.35 2.686a0.607 0.607 0 0 0-0.899 0.81l0.551 0.607h-0.911A1.416 1.416 0 0 0 1.674 5.52v16.2a1.404 1.404 0 0 0 0.82 1.285 1.404 1.404 0 0 0 1.519-0.203l3.355-2.905h10.993l1.293 1.417a0.607 0.607 0 1 0 0.898-0.817zM7.14 18.683a0.6 0.6 0 0 0-0.397 0.147l-3.522 3.038a0.203 0.203 0 0 1-0.334-0.148V5.52a0.204 0.204 0 0 1 0.203-0.203h2.014l12.15 13.366zM22.327 5.52v12.353a0.607 0.607 0 0 1-1.214 0V5.52a0.204 0.204 0 0 0-0.203-0.203h-11.159a0.608 0.608 0 0 1 0-1.215h11.159a1.416 1.416 0 0 1 1.417 1.417z"/></svg>