<svg xmlns="http://www.w3.org/2000/svg" width="24" height="24" fill="currentColor" viewBox="0 0 24 24"><path d="M20.91 4.103H3.09A1.416 1.416 0 0 0 1.673 5.52v16.2a1.404 1.404 0 0 0 0.819 1.285 1.44 1.44 0 0 0 0.599 0.133 1.404 1.404 0 0 0 0.911-0.334l0.006-0.005 3.359-2.899h13.544a1.416 1.416 0 0 0 1.417-1.418v-12.96a1.416 1.416 0 0 0-1.417-1.417z m0.203 14.377a0.204 0.204 0 0 1-0.203 0.203H7.14a0.6 0.6 0 0 0-0.397 0.147l-3.526 3.045a0.203 0.203 0 0 1-0.33-0.155V5.52a0.204 0.204 0 0 1 0.203-0.203h17.82a0.204 0.204 0 0 1 0.203 0.203z m-5.265-8.1a0.607 0.607 0 0 1-0.607 0.607h-6.48a0.608 0.608 0 0 1 0-1.215h6.48a0.607 0.607 0 0 1 0.607 0.607z m0 3.24a0.607 0.607 0 0 1-0.607 0.607h-6.48a0.608 0.608 0 0 1 0-1.215h6.48a0.607 0.607 0 0 1 0.607 0.607z"/></svg>