<svg xmlns="http://www.w3.org/2000/svg" fill="currentColor" viewBox="0 0 24 24" width="24" height="24"><path d="M15.847 6.33a0.607 0.607 0 0 1-0.607 0.607H8.76a0.608 0.608 0 0 1 0-1.215h6.48a0.607 0.607 0 0 1 0.607 0.607zM15.24 8.963H8.76a0.607 0.607 0 0 0 0 1.214h6.48a0.607 0.607 0 0 0 0-1.214m4.657-5.873v17.82a1.416 1.416 0 0 1-1.417 1.417H5.52a1.416 1.416 0 0 1-1.417-1.417V3.09A1.416 1.416 0 0 1 5.52 1.673h12.96a1.416 1.416 0 0 1 1.417 1.417m-1.214 0a0.204 0.204 0 0 0-0.203-0.203H5.52a0.204 0.204 0 0 0-0.203 0.203v17.82a0.204 0.204 0 0 0 0.203 0.203h12.96a0.204 0.204 0 0 0 0.203-0.203zM12 16.253a1.013 1.013 0 1 0 1.013 1.013 1.013 1.013 0 0 0-1.013-1.013"/></svg>