<svg width="24" height="24" viewBox="0 0 24 24" fill="none" xmlns="http://www.w3.org/2000/svg">
<path d="M12.375 16.875C12.375 17.0821 12.2071 17.25 12 17.25C11.7929 17.25 11.625 17.0821 11.625 16.875C11.625 16.6679 11.7929 16.5 12 16.5C12.2071 16.5 12.375 16.6679 12.375 16.875Z" fill="black"/>
<path d="M15 6.75H9M15 9.75H9M18.75 3.75V20.25C18.75 20.6642 18.4142 21 18 21H6C5.58579 21 5.25 20.6642 5.25 20.25V3.75C5.25 3.33579 5.58579 3 6 3H18C18.4142 3 18.75 3.33579 18.75 3.75ZM12.375 16.875C12.375 17.0821 12.2071 17.25 12 17.25C11.7929 17.25 11.625 17.0821 11.625 16.875C11.625 16.6679 11.7929 16.5 12 16.5C12.2071 16.5 12.375 16.6679 12.375 16.875Z" stroke="black" stroke-width="1.5" stroke-linecap="round" stroke-linejoin="round"/>
</svg>
