<svg width="24" height="24" viewBox="0 0 24 24" fill="none" xmlns="http://www.w3.org/2000/svg">
<g clip-path="url(#clip0_2240_6715)">
<path d="M23.2499 17.25C23.2499 18.4926 22.2426 19.5 20.9999 19.5C19.7573 19.5 18.7499 18.4926 18.7499 17.25M23.2499 17.25C23.2499 16.0074 22.2426 15 20.9999 15C19.7573 15 18.7499 16.0074 18.7499 17.25M23.2499 17.25V12.75C23.2499 11.9543 22.9339 11.1913 22.3712 10.6287C21.8086 10.0661 21.0456 9.75 20.2499 9.75V9C20.2499 7.80652 19.7758 6.66193 18.9319 5.81802C18.088 4.9741 16.9434 4.5 15.7499 4.5H14.9999C14.801 4.5 14.6102 4.57902 14.4696 4.71967C14.3289 4.86032 14.2499 5.05109 14.2499 5.25V17.25M18.7499 17.25H9.74993M5.24993 17.25C5.24993 18.4926 4.24257 19.5 2.99993 19.5C1.75729 19.5 0.749926 18.4926 0.749926 17.25C0.749926 16.0074 1.75729 15 2.99993 15C4.24257 15 5.24993 16.0074 5.24993 17.25ZM5.24993 17.25C5.24993 18.4926 6.25729 19.5 7.49993 19.5C8.74257 19.5 9.74993 18.4926 9.74993 17.25M5.24993 17.25C5.24993 16.0074 6.25729 15 7.49993 15C8.74257 15 9.74993 16.0074 9.74993 17.25M11.2499 17.0029V11.9995H1.49993C1.30101 11.9995 1.11025 12.0372 0.969596 12.1042C0.828944 12.1712 0.749926 12.2621 0.749926 12.3569V17.0029M10.0359 9.64401C9.51823 10.0886 8.88654 10.3752 8.21588 10.4699C7.54522 10.5646 6.86378 10.4633 6.25252 10.1781L2.76886 8.55422C2.15747 8.26928 1.64187 7.81237 1.28331 7.23776C0.924748 6.66315 0.73829 5.99498 0.746084 5.31264L2.00565 2.6115C2.52334 2.16693 3.15504 1.88027 3.8257 1.7856C4.49636 1.69092 5.17779 1.79219 5.78906 2.07738L9.27272 3.70128C9.8841 3.98622 10.3997 4.44314 10.7583 5.01775C11.1168 5.59236 11.3033 6.26053 11.2955 6.94287L10.0359 9.64401Z" stroke="black" stroke-width="1.5" stroke-linecap="round" stroke-linejoin="round"/>
</g>
<defs>
<clipPath id="clip0_2240_6715">
<rect width="24" height="24" fill="white"/>
</clipPath>
</defs>
</svg>
