<svg xmlns="http://www.w3.org/2000/svg" width="24" height="24" fill="currentColor" viewBox="0 0 24 24"><path d="M7.69 4.452a0.607 0.607 0 0 0-1.1 0l-6.48 13.77a0.607 0.607 0 1 0 1.1 0.517l1.741-3.702h8.377l1.741 3.701a0.607 0.607 0 1 0 1.099-0.517z m-4.167 9.371L7.14 6.137l3.617 7.686z m15.767-4.86c-1.236 0-2.198 0.332-2.858 0.986a0.608 0.608 0 0 0 0.856 0.863c0.424-0.42 1.098-0.634 2.002-0.634 1.452 0 2.633 1 2.633 2.228v0.733a4.08 4.08 0 0 0-2.633-0.936c-2.122 0-3.847 1.544-3.847 3.443s1.727 3.443 3.847 3.442a4.08 4.08 0 0 0 2.633-0.936v0.328a0.607 0.607 0 0 0 1.214 0v-6.076c0-1.898-1.721-3.443-3.847-3.442z m0 8.91c-1.452 0-2.633-1-2.633-2.227s1.181-2.227 2.633-2.228 2.633 1 2.633 2.228-1.181 2.227-2.633 2.227"/></svg>