<svg xmlns="http://www.w3.org/2000/svg" width="24" height="24" fill="currentColor" viewBox="0 0 24 24"><path d="M22.53 8.153h-1.823V5.52a1.416 1.416 0 0 0-1.417-1.417H3.9A1.416 1.416 0 0 0 2.483 5.52v2.633H0.66a0.608 0.608 0 0 0 0 1.215h1.823v2.633a1.416 1.416 0 0 0 1.417 1.417h15.39a1.416 1.416 0 0 0 1.417-1.417V9.368h1.823a0.204 0.204 0 0 1 0.203 0.203v5.063a0.204 0.204 0 0 1-0.147 0.194l-10.165 2.904a1.428 1.428 0 0 0-1.027 1.358v3.442a0.608 0.608 0 0 0 1.216 0v-3.442a0.204 0.204 0 0 1 0.146-0.195l10.165-2.904a1.428 1.428 0 0 0 1.027-1.357V9.571a1.416 1.416 0 0 0-1.417-1.417zM19.493 12a0.204 0.204 0 0 1-0.203 0.203H3.9A0.204 0.204 0 0 1 3.697 12V5.52a0.204 0.204 0 0 1 0.203-0.203h15.39a0.204 0.204 0 0 1 0.203 0.203z"/></svg>