<svg width="24" height="24" viewBox="0 0 24 24" fill="none" xmlns="http://www.w3.org/2000/svg">
<path d="M7.31689 5.55799L15.8395 13.3632M4.73487 13.3608L2.25 11.0851L8.837 3.90062C9.10577 3.60748 9.48005 3.43305 9.87749 3.41571C10.2749 3.39836 10.663 3.53953 10.9563 3.80814L14.2741 6.84661C14.3533 6.91916 14.4472 6.97386 14.5494 7.00699C14.6516 7.04012 14.7597 7.05092 14.8664 7.03865C14.9732 7.02638 15.076 6.99134 15.168 6.93589C15.2601 6.88044 15.3391 6.80587 15.3997 6.71725L17.8209 2.97805C18.2241 2.53834 18.7855 2.27669 19.3816 2.25068C19.9778 2.22466 20.5599 2.43641 20.9999 2.83933C21.4398 3.24226 21.7016 3.80336 21.7276 4.3992C21.7537 4.99504 21.5418 5.57681 21.1386 6.01652L17.6226 8.75302C17.5396 8.82115 17.4722 8.90632 17.4249 9.00277C17.3776 9.09921 17.3517 9.20467 17.3488 9.31202C17.3458 9.41936 17.366 9.52608 17.408 9.62495C17.4499 9.72382 17.5126 9.81254 17.5918 9.88508L20.9095 12.9236M4.46175 13.1103L7.5019 9.79438M12.75 21.7515H6.73578M6.73578 21.7515H6.72525C5.90264 21.7515 5.23578 21.0785 5.23578 20.2483M6.73578 21.7515C5.90735 21.7515 5.23578 21.0767 5.23578 20.2483M2.25001 17.2447C2.25001 18.0684 2.90648 18.7374 3.72022 18.7478C3.72663 18.7479 3.73305 18.7479 3.73947 18.7479V18.7433H5.23578M5.23578 18.7433V20.2483M5.23578 18.7433V16.3441M2.25001 17.2447V17.2585C2.25001 18.0746 2.90648 18.7375 3.72022 18.7478M2.25001 17.2447V14.7515M4.74996 13.3632H15.8395M21.75 13.3632H15.8395M18.0734 10.3258L21.3911 13.3643" stroke="black" stroke-width="1.5" stroke-linecap="round" stroke-linejoin="round"/>
</svg>
