<svg xmlns="http://www.w3.org/2000/svg" fill="currentColor" viewBox="0 0 24 24" width="24" height="24"><path d="M20.707 3.9v4.05a0.607 0.607 0 0 1-1.214 0V4.507h-3.443a0.608 0.608 0 0 1 0-1.215h4.05a0.607 0.607 0 0 1 0.607 0.607zM7.95 19.493H4.507v-3.443a0.608 0.608 0 0 0-1.215 0v4.05a0.607 0.607 0 0 0 0.607 0.607h4.05a0.607 0.607 0 0 0 0-1.214z m12.15-4.05a0.607 0.607 0 0 0-0.607 0.607v3.443h-3.443a0.607 0.607 0 0 0 0 1.214h4.05a0.607 0.607 0 0 0 0.607-0.607v-4.05a0.607 0.607 0 0 0-0.607-0.607M7.95 3.293H3.9a0.607 0.607 0 0 0-0.607 0.607v4.05a0.607 0.607 0 0 0 1.214 0V4.507h3.443a0.608 0.608 0 0 0 0-1.215z"/></svg>