<svg xmlns="http://www.w3.org/2000/svg" fill="currentColor" viewBox="0 0 24 24" width="24" height="24"><path d="M14.43 8.963h-4.86a0.607 0.607 0 0 0-0.607 0.607v4.86a0.607 0.607 0 0 0 0.607 0.607h4.86a0.607 0.607 0 0 0 0.607-0.607v-4.86a0.607 0.607 0 0 0-0.607-0.607m-0.607 4.86h-3.646v-3.646h3.645z m8.707 0h-1.823v-3.646h1.823a0.607 0.607 0 0 0 0-1.214h-1.823V4.71a1.416 1.416 0 0 0-1.417-1.417h-4.253V1.47a0.607 0.607 0 0 0-1.214 0v1.823h-3.646V1.47a0.607 0.607 0 0 0-1.214 0v1.823H4.71a1.416 1.416 0 0 0-1.417 1.417v4.253H1.47a0.607 0.607 0 0 0 0 1.214h1.823v3.645H1.47a0.608 0.608 0 0 0 0 1.215h1.823v4.253a1.416 1.416 0 0 0 1.417 1.417h4.253v1.823a0.607 0.607 0 0 0 1.214 0v-1.823h3.645v1.823a0.608 0.608 0 0 0 1.215 0v-1.823h4.253a1.416 1.416 0 0 0 1.417-1.417v-4.253h1.823a0.607 0.607 0 0 0 0-1.214m-3.037 5.467a0.204 0.204 0 0 1-0.203 0.203H4.71a0.204 0.204 0 0 1-0.203-0.203V4.71a0.204 0.204 0 0 1 0.203-0.203h14.58a0.204 0.204 0 0 1 0.203 0.203z"/></svg>