<svg width="24" height="24" viewBox="0 0 24 24" fill="none" xmlns="http://www.w3.org/2000/svg">
<path d="M19.3506 5.43164C20.0407 5.43197 20.6006 5.99149 20.6006 6.68164V17.332C20.6003 18.0219 20.0405 18.5817 19.3506 18.582H4.65039C3.96021 18.582 3.40067 18.0222 3.40039 17.332V6.68164C3.40039 5.99129 3.96003 5.43164 4.65039 5.43164H19.3506ZM5.66406 17.582H8.7998V14.5312H5.65527C5.65796 15.8573 5.66192 16.9707 5.66406 17.582ZM9.7998 17.582H14.2002V14.5312H9.7998V17.582ZM15.2002 17.582H19.3506C19.4882 17.5817 19.6003 17.4697 19.6006 17.332V14.5312H15.2002V17.582ZM5.65332 10.4814C5.65212 11.5022 5.65291 12.5511 5.6543 13.5312H8.7998V10.4814H5.65332ZM9.7998 13.5312H14.2002V10.4814H9.7998V13.5312ZM15.2002 13.5312H19.6006V10.4814H15.2002V13.5312ZM5.66309 7.59277C5.65932 8.17567 5.65888 8.81501 5.65723 9.48145H8.7998V7.59277H5.66309ZM9.7998 7.59277V9.48145H14.2002V7.59277H9.7998ZM15.2002 7.59277V9.48145H19.6006V7.59277H15.2002Z" fill="black"/>
</svg>
