<svg width="24" height="24" viewBox="0 0 24 24" fill="none" xmlns="http://www.w3.org/2000/svg">
<path d="M9 5.25H3.75C3.33579 5.25 3 5.58579 3 6V9.75M9 5.25H15M9 5.25L9 9.75M15 5.25H20.25C20.6642 5.25 21 5.58579 21 6M15 5.25V9.75M21 6H4.5C4.08579 6 3.75 6.33579 3.75 6.75V18.75M21 6V9.75H15M3.75 18.75C3.33579 18.75 3 18.4142 3 18V14.25M3.75 18.75H9L9 14.25M3 14.25V9.75M3 14.25H9M3 9.75H9M9 9.75L9 14.25M9 9.75H15M13.5 12V16.5M15.75 14.25H11.25M21 12.75V15.75M22.5 14.25H19.5M13.5 19.5V22.5M12 21H15M18 19.1894L18.4393 18.75M21.662 21.0772L17.1455 16.5607C17.0442 16.4594 16.8564 16.4829 16.7261 16.6133L15.8633 17.4761C15.7329 17.6064 15.7094 17.7942 15.8107 17.8954L20.3272 22.412C20.4285 22.5133 20.6163 22.4897 20.7466 22.3594L21.6094 21.4966C21.7397 21.3663 21.7633 21.1785 21.662 21.0772Z" stroke="black" stroke-width="1.5" stroke-linecap="round" stroke-linejoin="round"/>
</svg>
