<svg xmlns="http://www.w3.org/2000/svg" width="24" height="24" fill="currentColor" viewBox="0 0 24 24"><path d="M3.697 17.266c0 1.228 0.817 2.227 1.823 2.227a1.644 1.644 0 0 0 1.182-0.534 0.607 0.607 0 0 1 0.877 0.84 2.844 2.844 0 0 1-2.058 0.909c-1.675 0-3.037-1.544-3.037-3.442s1.363-3.443 3.037-3.443a2.844 2.844 0 0 1 2.058 0.911 0.607 0.607 0 0 1-0.877 0.84 1.644 1.644 0 0 0-1.182-0.537c-1.006 0-1.823 1-1.823 2.227z m17.01-9.316V21.72a0.607 0.607 0 0 1-1.214 0V8.557h-5.063a0.607 0.607 0 0 1-0.607-0.607V2.887H4.71a0.204 0.204 0 0 0-0.203 0.203v7.29a0.608 0.608 0 0 1-1.215 0V3.09a1.416 1.416 0 0 1 1.417-1.417h9.72a0.6 0.6 0 0 1 0.431 0.177l5.67 5.67a0.6 0.6 0 0 1 0.177 0.43m-5.67-0.607h3.597l-3.597-3.597z m0.81 8.505v2.026h1.013a0.607 0.607 0 0 1 0 1.214h-1.013v1.013a0.607 0.607 0 0 1-1.214 0v-1.013h-2.026v1.013a0.608 0.608 0 0 1-1.215 0v-1.013h-1.013a0.607 0.607 0 0 1 0-1.214h1.013v-2.026h-1.013a0.607 0.607 0 0 1 0-1.214h1.013v-1.013a0.608 0.608 0 0 1 1.215 0v1.013h2.026v-1.013a0.607 0.607 0 0 1 1.214 0v1.013h1.013a0.608 0.608 0 0 1 0 1.216z m-1.214 0h-2.026v2.026h2.026z"/></svg>