<svg xmlns="http://www.w3.org/2000/svg" width="24" height="24" fill="currentColor" viewBox="0 0 24 24"><path d="M3.08 12a2.808 2.808 0 0 1 0.962 1.127c0.466 0.961 0.466 2.165 0.465 3.327 0 2.458 0.122 3.847 2.633 3.848a0.607 0.607 0 0 1 0 1.214c-1.709 0-2.815-0.568-3.382-1.734-0.466-0.961-0.466-2.165-0.465-3.328 0-2.458-0.122-3.847-2.633-3.847a0.608 0.608 0 0 1 0-1.215c2.51 0 2.633-1.39 2.633-3.848 0-1.163 0-2.368 0.465-3.327 0.566-1.168 1.673-1.734 3.382-1.734a0.608 0.608 0 0 1 0 1.215c-2.51 0-2.633 1.39-2.633 3.848 0 1.163 0 2.368-0.465 3.327a2.808 2.808 0 0 1-0.962 1.127m20.26-0.607c-2.51 0-2.633-1.39-2.633-3.847 0-1.163 0-2.368-0.465-3.328-0.566-1.168-1.673-1.734-3.382-1.734a0.608 0.608 0 0 0 0 1.216c2.51 0 2.633 1.39 2.633 3.847 0 1.163 0 2.368 0.465 3.327a2.808 2.808 0 0 0 0.962 1.127 2.808 2.808 0 0 0-0.962 1.127c-0.466 0.961-0.466 2.165-0.465 3.328 0 2.458-0.122 3.847-2.633 3.847a0.607 0.607 0 0 0 0 1.214c1.709 0 2.815-0.568 3.382-1.734 0.466-0.961 0.466-2.165 0.465-3.327 0-2.458 0.122-3.847 2.633-3.848a0.607 0.607 0 0 0 0-1.214z"/></svg>