<svg width="24" height="24" viewBox="0 0 24 24" fill="none" xmlns="http://www.w3.org/2000/svg">
<path d="M10.125 8.75474H13.875L11.625 11.7547C11.9897 11.7548 12.3489 11.8434 12.6718 12.0131C12.9946 12.1828 13.2713 12.4284 13.4781 12.7288C13.6849 13.0292 13.8156 13.3754 13.8589 13.7375C13.9022 14.0996 13.8569 14.4669 13.7267 14.8076C13.5966 15.1483 13.3856 15.4522 13.1119 15.6933C12.8382 15.9343 12.5101 16.1052 12.1556 16.1912C11.8012 16.2773 11.4312 16.2759 11.0775 16.1871C10.7237 16.0984 10.3969 15.925 10.125 15.6819M20.25 10.5V5.25C20.25 5.05109 20.171 4.86032 20.0303 4.71967C19.8897 4.57902 19.6989 4.5 19.5 4.5H4.5C4.30109 4.5 4.11032 4.57902 3.96967 4.71967C3.82902 4.86032 3.75 5.05109 3.75 5.25V10.5C3.75 19.5 12 21.75 12 21.75C12 21.75 20.25 19.5 20.25 10.5Z" stroke="black" stroke-width="1.5" stroke-linecap="round" stroke-linejoin="round"/>
</svg>
