<svg width="24" height="24" viewBox="0 0 24 24" fill="none" xmlns="http://www.w3.org/2000/svg">
<path d="M3.06543 7.21094L11.9998 12.1009M11.9998 12.1009L20.9342 7.21094M11.9998 12.1009L12 21.7486M12 21.7486C12.1258 21.7486 12.2496 21.7169 12.36 21.6565L20.61 17.1396C20.7278 17.0752 20.8261 16.9803 20.8947 16.8648C20.9633 16.7494 20.9997 16.6177 21 16.4834V7.51713C20.9997 7.38284 20.9633 7.25111 20.8947 7.13567C20.8261 7.02023 20.7278 6.92533 20.61 6.86088L12.36 2.344C12.2496 2.28361 12.1258 2.25195 12 2.25195C11.8742 2.25195 11.7504 2.28361 11.64 2.344L3.39 6.86088C3.2722 6.92533 3.17386 7.02023 3.10526 7.13567C3.03666 7.25111 3.0003 7.38284 3 7.51713V16.4834C3.0003 16.6177 3.03666 16.7494 3.10526 16.8648C3.17386 16.9803 3.2722 17.0752 3.39 17.1396L11.64 21.6565C11.7504 21.7169 11.8742 21.7486 12 21.7486Z" stroke="black" stroke-width="1.5" stroke-linecap="round" stroke-linejoin="round"/>
</svg>
