<svg xmlns="http://www.w3.org/2000/svg" fill="currentColor" viewBox="0 0 24 24" width="24" height="24"><path d="M20.606 5.25v3.375a.506.506 0 0 1-1.012 0V5.756h-2.869a.507.507 0 0 1 0-1.013H20.1a.506.506 0 0 1 .506.506zM7.275 18.244H4.406v-2.869a.507.507 0 0 0-1.013 0v3.375a.506.506 0 0 0 .506.506h3.375a.506.506 0 0 0 0-1.012zM20.1 14.869a.506.506 0 0 0-.506.506v2.869h-2.869a.506.506 0 0 0 0 1.012H20.1a.506.506 0 0 0 .506-.506v-3.375a.506.506 0 0 0-.506-.506M3.9 9.131a.506.506 0 0 0 .506-.506V5.756h2.869a.507.507 0 0 0 0-1.013H3.9a.506.506 0 0 0-.506.506v3.375a.506.506 0 0 0 .506.506zm13.078 6.008-4.725 2.7a.5.5 0 0 1-.506 0l-4.725-2.7a.5.5 0 0 1-.253-.44v-5.4a.5.5 0 0 1 .253-.44l4.725-2.7a.5.5 0 0 1 .506 0l4.725 2.7a.5.5 0 0 1 .253.44v5.4a.5.5 0 0 1-.253.44m-8.683-5.84L12 11.416l3.705-2.117L12 7.182zm-.514 5.106 3.713 2.121v-4.234l-3.713-2.121zm8.438 0v-4.234l-3.713 2.121v4.234z"/></svg>