<svg xmlns="http://www.w3.org/2000/svg" width="24" height="24" fill="currentColor" viewBox="0 0 24 24"><path d="M23.065 8.95a1.44 1.44 0 0 0-1.267-1l-6.101-0.493-2.351-5.691a1.454 1.454 0 0 0-2.691 0L8.304 7.454l-6.101 0.496a1.44 1.44 0 0 0-1.267 1.001 1.464 1.464 0 0 0 0.433 1.562l4.657 4.011-1.417 5.998a1.458 1.458 0 0 0 0.567 1.52 1.428 1.428 0 0 0 1.61 0.061L12 18.898l5.222 3.211a1.428 1.428 0 0 0 1.611-0.061 1.458 1.458 0 0 0 0.566-1.52l-1.417-5.998 4.65-4.016a1.464 1.464 0 0 0 0.433-1.564m-1.229 0.644l-4.929 4.253a0.612 0.612 0 0 0-0.195 0.599l1.506 6.357a0.24 0.24 0 0 1-0.096 0.261 0.228 0.228 0 0 1-0.262 0.009l-5.541-3.404a0.612 0.612 0 0 0-0.636 0L6.143 21.072a0.228 0.228 0 0 1-0.263-0.01 0.24 0.24 0 0 1-0.101-0.26l1.506-6.358a0.612 0.612 0 0 0-0.194-0.598L2.161 9.593a0.24 0.24 0 0 1-0.074-0.269 0.228 0.228 0 0 1 0.21-0.167l6.471-0.522a0.612 0.612 0 0 0 0.513-0.373l2.493-6.035a0.238 0.238 0 0 1 0.444 0l2.494 6.035a0.612 0.612 0 0 0 0.512 0.373l6.472 0.522a0.228 0.228 0 0 1 0.21 0.167 0.24 0.24 0 0 1-0.068 0.269z"/></svg>