<svg viewBox="0 0 24 24" fill="none" xmlns="http://www.w3.org/2000/svg" width="24" height="24">
<path d="M17.8281 15.6098C17.4748 15.6098 17.1148 15.5698 16.7481 15.4898C16.3881 15.4032 16.0748 15.2832 15.8081 15.1298C15.6348 15.0365 15.5148 14.9265 15.4481 14.7998C15.3881 14.6665 15.3648 14.5365 15.3781 14.4098C15.3981 14.2832 15.4514 14.1732 15.5381 14.0798C15.6248 13.9798 15.7348 13.9165 15.8681 13.8898C16.0081 13.8632 16.1614 13.8898 16.3281 13.9698C16.5881 14.0965 16.8348 14.1865 17.0681 14.2398C17.3014 14.2932 17.5348 14.3198 17.7681 14.3198C18.0348 14.3198 18.2581 14.2865 18.4381 14.2198C18.6181 14.1465 18.7548 14.0432 18.8481 13.9098C18.9414 13.7765 18.9881 13.6098 18.9881 13.4098C18.9881 13.1298 18.8914 12.9198 18.6981 12.7798C18.5048 12.6398 18.2214 12.5698 17.8481 12.5698H17.2581C17.0381 12.5698 16.8681 12.5165 16.7481 12.4098C16.6348 12.2965 16.5781 12.1432 16.5781 11.9498C16.5781 11.7498 16.6348 11.5965 16.7481 11.4898C16.8681 11.3765 17.0381 11.3198 17.2581 11.3198H17.6981C17.9248 11.3198 18.1148 11.2865 18.2681 11.2198C18.4281 11.1465 18.5514 11.0465 18.6381 10.9198C18.7314 10.7932 18.7781 10.6365 18.7781 10.4498C18.7781 10.1832 18.6848 9.97984 18.4981 9.83984C18.3181 9.69984 18.0548 9.62984 17.7081 9.62984C17.4948 9.62984 17.2848 9.65651 17.0781 9.70984C16.8714 9.75651 16.6481 9.84318 16.4081 9.96984C16.2614 10.0432 16.1248 10.0665 15.9981 10.0398C15.8714 10.0132 15.7648 9.95318 15.6781 9.85984C15.5981 9.76651 15.5448 9.65984 15.5181 9.53984C15.4981 9.41318 15.5148 9.28651 15.5681 9.15984C15.6281 9.03318 15.7348 8.92984 15.8881 8.84984C16.1748 8.68318 16.4848 8.55651 16.8181 8.46984C17.1581 8.38318 17.5014 8.33984 17.8481 8.33984C18.3548 8.33984 18.7881 8.41651 19.1481 8.56984C19.5081 8.72318 19.7848 8.94318 19.9781 9.22984C20.1714 9.50984 20.2681 9.84984 20.2681 10.2498C20.2681 10.5232 20.2148 10.7732 20.1081 10.9998C20.0014 11.2265 19.8514 11.4198 19.6581 11.5798C19.4714 11.7332 19.2414 11.8432 18.9681 11.9098V11.7798C19.4414 11.8598 19.8114 12.0565 20.0781 12.3698C20.3448 12.6832 20.4781 13.0765 20.4781 13.5498C20.4781 13.9698 20.3714 14.3365 20.1581 14.6498C19.9448 14.9565 19.6381 15.1932 19.2381 15.3598C18.8448 15.5265 18.3748 15.6098 17.8281 15.6098Z" fill="black"/>
<path d="M10.382 15.4998C10.1353 15.4998 9.95201 15.4432 9.83201 15.3298C9.71867 15.2098 9.662 15.0365 9.662 14.8098C9.662 14.6632 9.69867 14.5265 9.77201 14.3998C9.84534 14.2732 9.94534 14.1432 10.072 14.0098L11.952 12.0298C12.232 11.7298 12.432 11.4632 12.552 11.2298C12.6787 10.9965 12.742 10.7632 12.742 10.5298C12.742 10.2365 12.6453 10.0132 12.452 9.85984C12.2653 9.70651 11.992 9.62984 11.632 9.62984C11.4387 9.62984 11.2387 9.65984 11.032 9.71984C10.832 9.77318 10.622 9.86318 10.402 9.98984C10.2553 10.0698 10.1187 10.0998 9.99201 10.0798C9.87201 10.0532 9.76867 9.99651 9.682 9.90984C9.59534 9.81651 9.53867 9.70651 9.51201 9.57984C9.48534 9.45318 9.49867 9.32651 9.55201 9.19984C9.60534 9.07318 9.70534 8.96651 9.85201 8.87984C10.1453 8.69984 10.4653 8.56651 10.812 8.47984C11.1587 8.38651 11.502 8.33984 11.842 8.33984C12.3687 8.33984 12.812 8.41984 13.172 8.57984C13.532 8.73318 13.8053 8.95984 13.992 9.25984C14.1787 9.55984 14.272 9.92651 14.272 10.3598C14.272 10.6398 14.2287 10.9132 14.142 11.1798C14.0553 11.4465 13.9187 11.7165 13.732 11.9898C13.552 12.2565 13.312 12.5432 13.012 12.8498L11.262 14.6298V14.2298H13.972C14.1853 14.2298 14.3453 14.2832 14.452 14.3898C14.5653 14.4965 14.622 14.6532 14.622 14.8598C14.622 15.0665 14.5653 15.2265 14.452 15.3398C14.3453 15.4465 14.1853 15.4998 13.972 15.4998H10.382Z" fill="black"/>
<path d="M4.57591 15.4998C4.36258 15.4998 4.19924 15.4432 4.08591 15.3298C3.97258 15.2165 3.91591 15.0598 3.91591 14.8598C3.91591 14.6532 3.97258 14.4965 4.08591 14.3898C4.19924 14.2832 4.36258 14.2298 4.57591 14.2298H5.58591V9.71984H6.31591L4.85591 10.6098C4.70258 10.7032 4.55924 10.7398 4.42591 10.7198C4.29924 10.6998 4.18924 10.6432 4.09591 10.5498C4.00258 10.4565 3.93924 10.3465 3.90591 10.2198C3.87924 10.0865 3.89258 9.95651 3.94591 9.82984C3.99924 9.69651 4.09924 9.58318 4.24591 9.48984L5.63591 8.64984C5.77591 8.56318 5.91591 8.49318 6.05591 8.43984C6.20258 8.38651 6.34591 8.35984 6.48591 8.35984C6.68591 8.35984 6.84258 8.41318 6.95591 8.51984C7.07591 8.61984 7.13591 8.77651 7.13591 8.98984V14.2298H8.04591C8.25258 14.2298 8.41258 14.2832 8.52591 14.3898C8.63924 14.4965 8.69591 14.6532 8.69591 14.8598C8.69591 15.0665 8.63924 15.2265 8.52591 15.3398C8.41258 15.4465 8.25258 15.4998 8.04591 15.4998H4.57591Z" fill="black"/>
</svg>