<svg width="24" height="24" viewBox="0 0 24 24" fill="none" xmlns="http://www.w3.org/2000/svg">
<path d="M12.7499 12L7.7915 15.3928M21.7498 5.84277L15.4058 10.1825M21.7499 18.1577L7.7915 8.60742M8.25 7.125C8.25 8.57475 7.07475 9.75 5.625 9.75C4.17525 9.75 3 8.57475 3 7.125C3 5.67525 4.17525 4.5 5.625 4.5C7.07475 4.5 8.25 5.67525 8.25 7.125ZM8.25 16.875C8.25 18.3247 7.07475 19.5 5.625 19.5C4.17525 19.5 3 18.3247 3 16.875C3 15.4253 4.17525 14.25 5.625 14.25C7.07475 14.25 8.25 15.4253 8.25 16.875Z" stroke="black" stroke-width="1.5" stroke-linecap="round" stroke-linejoin="round"/>
</svg>
