<svg width="24" height="24" viewBox="0 0 24 24" fill="none" xmlns="http://www.w3.org/2000/svg">
<path d="M10.1504 6.15039C10.1504 6.01642 10.15 5.98047 10.15 5.74849C10.1384 5.74197 9.97461 5.75 9.97461 5.75H5.9248C5.9248 5.75 5.76057 5.74259 5.75 5.74849C5.75 5.92578 5.75 6.01635 5.75 6.15039V11.5498C5.75 11.5934 5.75 11.9405 5.74701 11.95L5.9248 11.9502H9.97461C10.0314 11.9478 10.0912 11.95 10.15 11.95C10.15 11.8445 10.1504 11.7006 10.1504 11.5498V6.15039ZM11.1504 11.5498C11.1504 11.896 11.0455 12.2289 10.8525 12.4863C10.6594 12.7439 10.3537 12.9502 9.97461 12.9502H5.9248C5.54585 12.9501 5.241 12.7439 5.04785 12.4863C4.85478 12.2289 4.75 11.8961 4.75 11.5498V6.15039C4.75 5.80418 4.85483 5.47128 5.04785 5.21387C5.241 4.95633 5.54584 4.75007 5.9248 4.75H9.97461C10.3537 4.75 10.6594 4.95629 10.8525 5.21387C11.0455 5.47125 11.1504 5.80427 11.1504 6.15039V11.5498Z" fill="black"/>
<path d="M18.0747 4.75C18.346 4.75 18.6146 4.8225 18.8296 4.96582C19.0411 5.10685 19.2505 5.35674 19.2505 5.7002V8.40039C19.2503 8.74359 19.041 8.9928 18.8296 9.13379C18.6146 9.27715 18.346 9.34961 18.0747 9.34961H14.0249C13.7536 9.34957 13.485 9.27711 13.27 9.13379C13.0587 8.99275 12.8503 8.74338 12.8501 8.40039V5.7002C12.8501 5.35691 13.0586 5.10689 13.27 4.96582C13.485 4.8225 13.7536 4.75003 14.0249 4.75H18.0747ZM13.8501 5.75C13.8501 5.89931 13.8501 6.55712 13.8501 7.04932C13.8501 7.2131 13.8438 8.34961 13.8501 8.34961H18.0747C18.1554 8.34961 18.1665 8.35059 18.2505 8.35059V5.75C18.1587 5.75 18.155 5.75 18.0747 5.75H13.8501Z" fill="black"/>
<path d="M9.97461 14.6496C10.2459 14.6496 10.5145 14.7221 10.7295 14.8654C10.941 15.0065 11.1504 15.2563 11.1504 15.5998V18.3C11.1502 18.6432 10.9409 18.8924 10.7295 19.0334C10.5145 19.1768 10.246 19.2492 9.97461 19.2492H5.9248C5.65353 19.2492 5.38491 19.1767 5.16992 19.0334C4.95863 18.8924 4.75016 18.643 4.75 18.3V15.5998C4.75 15.2565 4.95849 15.0065 5.16992 14.8654C5.38491 14.7221 5.65353 14.6496 5.9248 14.6496H9.97461ZM5.75 15.6496C5.75 15.7989 5.75 16.4567 5.75 16.9489C5.75 17.1127 5.74365 18.2492 5.75 18.2492H9.97461C10.0553 18.2492 10.0664 18.2502 10.1504 18.2502V15.6496C10.0586 15.6496 10.0549 15.6496 9.97461 15.6496H5.75Z" fill="black"/>
<path d="M18.2505 12.4502C18.2505 12.3162 18.2501 12.2803 18.2501 12.0483C18.2385 12.0418 18.0747 12.0498 18.0747 12.0498H14.0249C14.0249 12.0498 13.8607 12.0424 13.8501 12.0483C13.8501 12.2256 13.8501 12.3162 13.8501 12.4502V17.8496C13.8501 17.8932 13.8501 18.2403 13.8471 18.2498L14.0249 18.25H18.0747C18.1315 18.2476 18.1913 18.2498 18.2501 18.2498C18.2501 18.1443 18.2505 18.0004 18.2505 17.8496V12.4502ZM19.2505 17.8496C19.2505 18.1958 19.1456 18.5287 18.9526 18.7861C18.7595 19.0437 18.4538 19.25 18.0747 19.25H14.0249C13.6459 19.2499 13.3411 19.0437 13.1479 18.7861C12.9549 18.5287 12.8501 18.1959 12.8501 17.8496V12.4502C12.8501 12.104 12.9549 11.7711 13.1479 11.5137C13.3411 11.2561 13.6459 11.0499 14.0249 11.0498H18.0747C18.4538 11.0498 18.7595 11.2561 18.9526 11.5137C19.1456 11.7711 19.2505 12.1041 19.2505 12.4502V17.8496Z" fill="black"/>
</svg>
