<svg viewBox="0 0 24 24" fill="none" xmlns="http://www.w3.org/2000/svg" width="24" height="24">
<path d="M9.78 4.98C9.78 4.82 9.78 4.777 9.78 4.498 9.766 4.49 9.57 4.5 9.57 4.5H4.71C4.71 4.5 4.513 4.491 4.5 4.498 4.5 4.711 4.5 4.82 4.5 4.98V11.46C4.5 11.512 4.5 11.929 4.496 11.94L4.71 11.94H9.57C9.638 11.937 9.709 11.94 9.78 11.94 9.78 11.813 9.78 11.641 9.78 11.46V4.98ZM10.98 11.46C10.98 11.875 10.855 12.275 10.623 12.584 10.391 12.893 10.024 13.14 9.57 13.14H4.71C4.255 13.14 3.889 12.893 3.657 12.584 3.426 12.275 3.3 11.875 3.3 11.46V4.98C3.3 4.565 3.426 4.166 3.657 3.857 3.889 3.548 4.255 3.3 4.71 3.3H9.57C10.024 3.3 10.391 3.548 10.623 3.857 10.855 4.166 10.98 4.565 10.98 4.98V11.46Z" fill="black"/>
<path d="M19.29 3.3C19.615 3.3 19.938 3.387 20.196 3.559 20.449 3.728 20.701 4.028 20.701 4.44V7.68C20.7 8.092 20.449 8.391 20.196 8.561 19.938 8.733 19.615 8.82 19.29 8.82H14.43C14.104 8.819 13.782 8.733 13.524 8.561 13.27 8.391 13.02 8.092 13.02 7.68V4.44C13.02 4.028 13.27 3.728 13.524 3.559 13.782 3.387 14.104 3.3 14.43 3.3H19.29ZM14.22 4.5C14.22 4.679 14.22 5.469 14.22 6.059 14.22 6.256 14.213 7.62 14.22 7.62H19.29C19.386 7.62 19.4 7.621 19.501 7.621V4.5C19.39 4.5 19.386 4.5 19.29 4.5H14.22Z" fill="black"/>
<path d="M9.57 15.18C9.895 15.18 10.217 15.267 10.475 15.438 10.729 15.608 10.98 15.908 10.98 16.32V19.56C10.98 19.972 10.729 20.271 10.475 20.44 10.217 20.612 9.895 20.699 9.57 20.699H4.71C4.384 20.699 4.062 20.612 3.804 20.44 3.55 20.271 3.3 19.972 3.3 19.56V16.32C3.3 15.908 3.55 15.608 3.804 15.438 4.062 15.267 4.384 15.18 4.71 15.18H9.57ZM4.5 16.38C4.5 16.559 4.5 17.348 4.5 17.939 4.5 18.135 4.492 19.499 4.5 19.499H9.57C9.666 19.499 9.68 19.5 9.78 19.5V16.38C9.67 16.38 9.666 16.38 9.57 16.38H4.5Z" fill="black"/>
<path d="M19.501 12.54C19.501 12.379 19.5 12.336 19.5 12.058 19.486 12.05 19.29 12.06 19.29 12.06H14.43C14.43 12.06 14.233 12.051 14.22 12.058 14.22 12.271 14.22 12.379 14.22 12.54V19.02C14.22 19.072 14.22 19.488 14.217 19.5L14.43 19.5H19.29C19.358 19.497 19.43 19.5 19.5 19.5 19.5 19.373 19.501 19.2 19.501 19.02V12.54ZM20.701 19.02C20.701 19.435 20.575 19.834 20.343 20.143 20.111 20.452 19.745 20.7 19.29 20.7H14.43C13.975 20.7 13.609 20.452 13.377 20.143 13.146 19.834 13.02 19.435 13.02 19.02V12.54C13.02 12.125 13.146 11.725 13.377 11.416 13.609 11.107 13.975 10.86 14.43 10.86H19.29C19.745 10.86 20.111 11.107 20.343 11.416 20.575 11.725 20.701 12.125 20.701 12.54V19.02Z" fill="black"/>
</svg>