<svg width="24" height="24" viewBox="0 0 24 24" fill="none" xmlns="http://www.w3.org/2000/svg">
<path d="M18.9246 8.02393C18.9245 7.17436 18.2863 6.29501 17.0105 5.59912C15.7535 4.91358 13.9828 4.47412 11.9998 4.47412C10.0167 4.47415 8.24596 4.91351 6.98901 5.59912C5.71322 6.29501 5.07505 7.17436 5.07495 8.02393C5.07495 8.87352 5.71323 9.7528 6.98901 10.4487C8.24596 11.1343 10.0167 11.5737 11.9998 11.5737C13.9829 11.5737 15.7535 11.1343 17.0105 10.4487C18.2864 9.75279 18.9246 8.87356 18.9246 8.02393ZM19.9246 8.02393C19.9246 9.41094 18.9012 10.5568 17.49 11.3267C16.0597 12.1068 14.1173 12.5737 11.9998 12.5737C9.88235 12.5737 7.94078 12.1068 6.5105 11.3267C5.09907 10.5568 4.07495 9.41105 4.07495 8.02393C4.07505 6.63689 5.09914 5.49102 6.5105 4.72119C7.94076 3.94112 9.88243 3.47415 11.9998 3.47412C14.1173 3.47412 16.0597 3.94101 17.49 4.72119C18.9013 5.49102 19.9245 6.63695 19.9246 8.02393Z" fill="black"/>
<path d="M4.07495 12.0742V8.02393C4.07495 7.74778 4.29881 7.52441 4.57495 7.52441C4.85109 7.52441 5.07495 7.74778 5.07495 8.02393V12.0742C5.07495 12.9238 5.71323 13.8031 6.98901 14.499C8.24597 15.1846 10.0167 15.624 11.9998 15.624C13.9828 15.624 15.7535 15.1846 17.0105 14.499C18.2864 13.8031 18.9246 12.9239 18.9246 12.0742V8.02393C18.9246 7.74791 19.1486 7.52463 19.4246 7.52441C19.7007 7.52441 19.9246 7.74778 19.9246 8.02393V12.0742C19.9246 13.4612 18.9012 14.6071 17.49 15.377C16.0596 16.1571 14.1172 16.624 11.9998 16.624C9.88238 16.624 7.94079 16.1571 6.5105 15.377C5.09907 14.6071 4.07495 13.4614 4.07495 12.0742Z" fill="black"/>
<path d="M4.07495 16.124V12.0742C4.07495 11.7981 4.29881 11.5742 4.57495 11.5742C4.85109 11.5742 5.07495 11.7981 5.07495 12.0742V16.124C5.07495 16.9466 5.67214 17.7965 6.87183 18.4834C7.11136 18.6206 7.19456 18.9264 7.05737 19.166C6.92017 19.4055 6.61435 19.4886 6.37476 19.3516C5.03618 18.5852 4.07495 17.4672 4.07495 16.124Z" fill="black"/>
<path d="M17.4105 21.7141C17.2539 21.7141 17.1339 21.6741 17.0505 21.5941C16.9705 21.5108 16.9305 21.3924 16.9305 21.2391V18.6641C16.9305 18.5108 16.9705 18.3941 17.0505 18.3141C17.1339 18.2308 17.2539 18.1891 17.4105 18.1891H18.6305C18.8839 18.1891 19.0989 18.2274 19.2755 18.3041C19.4555 18.3774 19.5922 18.4824 19.6855 18.6191C19.7789 18.7558 19.8255 18.9158 19.8255 19.0991C19.8255 19.3058 19.7655 19.4824 19.6455 19.6291C19.5289 19.7758 19.3689 19.8757 19.1655 19.9291V19.8491C19.4055 19.8924 19.5905 19.9891 19.7205 20.1391C19.8539 20.2891 19.9205 20.4808 19.9205 20.7141C19.9205 21.0241 19.8089 21.2691 19.5855 21.4491C19.3655 21.6258 19.0639 21.7141 18.6805 21.7141H17.4105ZM17.8105 21.0391H18.5555C18.7255 21.0391 18.8489 21.0074 18.9255 20.9441C19.0055 20.8774 19.0455 20.7791 19.0455 20.6491C19.0455 20.5191 19.0055 20.4224 18.9255 20.3591C18.8489 20.2957 18.7255 20.2641 18.5555 20.2641H17.8105V21.0391ZM17.8105 19.5891H18.4655C18.6322 19.5891 18.7539 19.5591 18.8305 19.4991C18.9105 19.4391 18.9505 19.3474 18.9505 19.2241C18.9505 19.1008 18.9105 19.0108 18.8305 18.9541C18.7539 18.8941 18.6322 18.8641 18.4655 18.8641H17.8105V19.5891Z" fill="black"/>
<path d="M14.3393 21.7141C14.1826 21.7141 14.0626 21.6741 13.9793 21.5941C13.8993 21.5108 13.8593 21.3924 13.8593 21.2391V18.6641C13.8593 18.5108 13.8993 18.3941 13.9793 18.3141C14.0626 18.2308 14.1826 18.1891 14.3393 18.1891H16.0343C16.1543 18.1891 16.2443 18.2191 16.3043 18.2791C16.3643 18.3391 16.3943 18.4258 16.3943 18.5391C16.3943 18.6558 16.3643 18.7458 16.3043 18.8091C16.2443 18.8691 16.1543 18.8991 16.0343 18.8991H14.7393V19.5691H15.9243C16.0409 19.5691 16.1293 19.5991 16.1893 19.6591C16.2526 19.7191 16.2843 19.8074 16.2843 19.9241C16.2843 20.0408 16.2526 20.1291 16.1893 20.1891C16.1293 20.2491 16.0409 20.2791 15.9243 20.2791H14.7393V21.0041H16.0343C16.1543 21.0041 16.2443 21.0357 16.3043 21.0991C16.3643 21.1591 16.3943 21.2457 16.3943 21.3591C16.3943 21.4757 16.3643 21.5641 16.3043 21.6241C16.2443 21.6841 16.1543 21.7141 16.0343 21.7141H14.3393Z" fill="black"/>
<path d="M9.58961 21.7591C9.46628 21.7591 9.36628 21.7308 9.28961 21.6741C9.21294 21.6141 9.15294 21.5224 9.10961 21.3991L8.13461 18.6841C8.08128 18.5341 8.08961 18.4074 8.15961 18.3041C8.23294 18.1974 8.36128 18.1441 8.54461 18.1441C8.66794 18.1441 8.76461 18.1741 8.83461 18.2341C8.90461 18.2907 8.95961 18.3808 8.99961 18.5041L9.74461 20.7391H9.50961L10.3096 18.5041C10.3563 18.3808 10.4146 18.2907 10.4846 18.2341C10.5546 18.1741 10.6446 18.1441 10.7546 18.1441C10.8646 18.1441 10.9529 18.1741 11.0196 18.2341C11.0863 18.2907 11.1413 18.3824 11.1846 18.5091L11.9346 20.7391H11.7346L12.4996 18.5041C12.5396 18.3808 12.5929 18.2907 12.6596 18.2341C12.7296 18.1741 12.8263 18.1441 12.9496 18.1441C13.1029 18.1441 13.2146 18.1974 13.2846 18.3041C13.3579 18.4074 13.3663 18.5341 13.3096 18.6841L12.3246 21.4041C12.2813 21.5241 12.2213 21.6141 12.1446 21.6741C12.0713 21.7308 11.9729 21.7591 11.8496 21.7591C11.7229 21.7591 11.6213 21.7308 11.5446 21.6741C11.4713 21.6141 11.4129 21.5224 11.3696 21.3991L10.6646 19.4191H10.7896L10.0696 21.4041C10.0229 21.5241 9.96294 21.6141 9.88961 21.6741C9.81628 21.7308 9.71628 21.7591 9.58961 21.7591Z" fill="black"/>
</svg>
