<svg xmlns="http://www.w3.org/2000/svg" width="24" height="24" fill="currentColor" viewBox="0 0 24 24"><path d="M12 1.673c-5.336 0-9.517 2.401-9.517 5.467v9.72c0 3.066 4.181 5.467 9.517 5.467s9.517-2.401 9.517-5.467v-9.72c0-3.066-4.181-5.467-9.517-5.467m0 1.215c4.5 0 8.303 1.948 8.303 4.253S16.501 11.394 12 11.394 3.697 9.446 3.697 7.141 7.499 2.888 12 2.888m8.303 13.973c0 2.305-3.802 4.253-8.303 4.253s-8.303-1.948-8.303-4.253v-2.148c1.62 1.657 4.694 2.755 8.303 2.755s6.683-1.098 8.303-2.755z m0-4.86c0 2.305-3.802 4.253-8.303 4.253s-8.303-1.948-8.303-4.253v-2.148c1.62 1.657 4.694 2.755 8.303 2.755s6.683-1.098 8.303-2.755z"/></svg>