<svg width="24" height="24" viewBox="0 0 24 24" fill="none" xmlns="http://www.w3.org/2000/svg">
<path d="M20.25 7.5C20.25 9.98528 16.5563 12 12 12C7.44365 12 3.75 9.98528 3.75 7.5M20.25 7.5C20.25 5.01472 16.5563 3 12 3C7.44365 3 3.75 5.01472 3.75 7.5M20.25 7.5V12M3.75 7.5V12M3.75 12C3.75 14.4853 7.44375 16.5 12 16.5C16.5562 16.5 20.25 14.4853 20.25 12M3.75 12V16.5M20.25 12V15.1531M3.75 16.5C3.75 17.1856 4.0311 17.8354 4.53386 18.417M3.75 16.5C3.75 18.9853 7.44375 21 12 21C16.5562 21 18.2614 20.0859 20.2432 19.5549M17.8001 18.1363L20.2496 19.5505L18.8354 22" stroke="black" stroke-width="1.5" stroke-linecap="round" stroke-linejoin="round"/>
</svg>
