<svg width="24" height="24" viewBox="0 0 24 24" fill="none" xmlns="http://www.w3.org/2000/svg">
<path d="M3.27002 10.125C3.27002 10.3321 3.10213 10.5 2.89502 10.5C2.68791 10.5 2.52002 10.3321 2.52002 10.125C2.52002 9.91789 2.68791 9.75 2.89502 9.75C3.10213 9.75 3.27002 9.91789 3.27002 10.125Z" fill="black"/>
<path d="M5.7627 13.8501L9.17537 17.2628L5.7627 20.6754" fill="black"/>
<path d="M11.6833 20.625C11.6833 20.8321 11.5155 21 11.3083 21C11.1012 21 10.9333 20.8321 10.9333 20.625C10.9333 20.4179 11.1012 20.25 11.3083 20.25C11.5155 20.25 11.6833 20.4179 11.6833 20.625Z" fill="black"/>
<path d="M16.3525 10.5C17.9058 10.5 19.165 8.82107 19.165 6.75C19.165 4.67893 17.9058 3 16.3525 3C14.7992 3 13.54 4.67893 13.54 6.75C13.54 8.82107 14.7992 10.5 16.3525 10.5Z" stroke="black" stroke-width="1.5" stroke-linecap="round" stroke-linejoin="round"/>
<path d="M7.83252 10.5C9.38582 10.5 10.645 8.82107 10.645 6.75C10.645 4.67893 9.38582 3 7.83252 3C6.27922 3 5.02002 4.67893 5.02002 6.75C5.02002 8.82107 6.27922 10.5 7.83252 10.5Z" stroke="black" stroke-width="1.5" stroke-linecap="round" stroke-linejoin="round"/>
<path d="M3.27002 10.125C3.27002 10.3321 3.10213 10.5 2.89502 10.5C2.68791 10.5 2.52002 10.3321 2.52002 10.125C2.52002 9.91789 2.68791 9.75 2.89502 9.75C3.10213 9.75 3.27002 9.91789 3.27002 10.125Z" stroke="black" stroke-width="1.5" stroke-linecap="round" stroke-linejoin="round"/>
<path d="M16.3525 21C17.9058 21 19.165 19.3211 19.165 17.25C19.165 15.1789 17.9058 13.5 16.3525 13.5C14.7992 13.5 13.54 15.1789 13.54 17.25C13.54 19.3211 14.7992 21 16.3525 21Z" stroke="black" stroke-width="1.5" stroke-linecap="round" stroke-linejoin="round"/>
<path d="M5.7627 13.8501L9.17537 17.2628L5.7627 20.6754" stroke="black" stroke-width="1.5" stroke-linecap="round" stroke-linejoin="round"/>
<path d="M11.6833 20.625C11.6833 20.8321 11.5155 21 11.3083 21C11.1012 21 10.9333 20.8321 10.9333 20.625C10.9333 20.4179 11.1012 20.25 11.3083 20.25C11.5155 20.25 11.6833 20.4179 11.6833 20.625Z" stroke="black" stroke-width="1.5" stroke-linecap="round" stroke-linejoin="round"/>
</svg>
