<svg width="24" height="24" viewBox="0 0 24 24" fill="none" xmlns="http://www.w3.org/2000/svg">
<path d="M13.5 17.25H8.25M13.5 17.25V19.5C13.5 19.9142 13.8358 20.25 14.25 20.25H21.75C22.1642 20.25 22.5 19.9142 22.5 19.5V4.5C22.5 4.08579 22.1642 3.75 21.75 3.75H14.25C13.8358 3.75 13.5 4.08579 13.5 4.5V7.5M13.5 17.25V7.5M8.25 17.25H3C2.60218 17.25 2.22064 17.092 1.93934 16.8107C1.65804 16.5294 1.5 16.1478 1.5 15.75V9C1.5 8.60218 1.65804 8.22064 1.93934 7.93934C2.22064 7.65804 2.60218 7.5 3 7.5H13.5M8.25 17.25V20.25M10.5 20.25H8.25M8.25 20.25H6M19.5 6.75H16.5M19.5 9.75H16.5M18.0005 16.4973C18.2076 16.4973 18.3755 16.6652 18.3755 16.8723C18.3755 17.0794 18.2076 17.2473 18.0005 17.2473C17.7934 17.2473 17.6255 17.0794 17.6255 16.8723C17.6255 16.6652 17.7934 16.4973 18.0005 16.4973Z" stroke="black" stroke-width="1.5" stroke-miterlimit="10" stroke-linecap="round" stroke-linejoin="round"/>
</svg>
