<svg width="24" height="24" viewBox="0 0 24 24" fill="none" xmlns="http://www.w3.org/2000/svg">
<path d="M18 17.25C18.2071 17.25 18.375 17.0821 18.375 16.875C18.375 16.6679 18.2071 16.5 18 16.5C17.7929 16.5 17.625 16.6679 17.625 16.875C17.625 17.0821 17.7929 17.25 18 17.25Z" fill="black"/>
<path d="M13.5 18C13.9142 18 14.25 17.6642 14.25 17.25C14.25 16.8358 13.9142 16.5 13.5 16.5V17.25V18ZM1.5 15.75H0.75H1.5ZM3 7.5V8.25V7.5ZM13.5 8.25C13.9142 8.25 14.25 7.91421 14.25 7.5C14.25 7.08579 13.9142 6.75 13.5 6.75V7.5V8.25ZM10.5 21C10.9142 21 11.25 20.6642 11.25 20.25C11.25 19.8358 10.9142 19.5 10.5 19.5V20.25V21ZM6 19.5C5.58579 19.5 5.25 19.8358 5.25 20.25C5.25 20.6642 5.58579 21 6 21V20.25V19.5ZM19.5 7.5C19.9142 7.5 20.25 7.16421 20.25 6.75C20.25 6.33579 19.9142 6 19.5 6V6.75V7.5ZM16.5 6C16.0858 6 15.75 6.33579 15.75 6.75C15.75 7.16421 16.0858 7.5 16.5 7.5V6.75V6ZM19.5 10.5C19.9142 10.5 20.25 10.1642 20.25 9.75C20.25 9.33579 19.9142 9 19.5 9V9.75V10.5ZM16.5 9C16.0858 9 15.75 9.33579 15.75 9.75C15.75 10.1642 16.0858 10.5 16.5 10.5V9.75V9ZM9 17.25C9 16.8358 8.66421 16.5 8.25 16.5C7.83579 16.5 7.5 16.8358 7.5 17.25H8.25H9ZM7.5 20.25C7.5 20.6642 7.83579 21 8.25 21C8.66421 21 9 20.6642 9 20.25H8.25H7.5ZM13.5 17.25V16.5H3V17.25V18H13.5V17.25ZM3 17.25V16.5C2.80109 16.5 2.61032 16.421 2.46967 16.2803L1.93934 16.8107L1.40901 17.341C1.83097 17.7629 2.40326 18 3 18V17.25ZM1.93934 16.8107L2.46967 16.2803C2.32902 16.1397 2.25 15.9489 2.25 15.75H1.5H0.75C0.75 16.3467 0.987053 16.919 1.40901 17.341L1.93934 16.8107ZM1.5 15.75H2.25V9H1.5H0.75V15.75H1.5ZM1.5 9H2.25C2.25 8.80109 2.32902 8.61032 2.46967 8.46967L1.93934 7.93934L1.40901 7.40901C0.987053 7.83097 0.75 8.40326 0.75 9H1.5ZM1.93934 7.93934L2.46967 8.46967C2.61032 8.32902 2.80109 8.25 3 8.25V7.5V6.75C2.40326 6.75 1.83097 6.98705 1.40901 7.40901L1.93934 7.93934ZM3 7.5V8.25H13.5V7.5V6.75H3V7.5ZM10.5 20.25V19.5H6V20.25V21H10.5V20.25ZM19.5 6.75V6H16.5V6.75V7.5H19.5V6.75ZM19.5 9.75V9H16.5V9.75V10.5H19.5V9.75ZM14.25 3.75V4.5H21.75V3.75V3H14.25V3.75ZM21.75 3.75V4.5H22.5H23.25C23.25 3.67157 22.5784 3 21.75 3V3.75ZM22.5 4.5H21.75V19.5H22.5H23.25V4.5H22.5ZM22.5 19.5H21.75V20.25V21C22.5784 21 23.25 20.3284 23.25 19.5H22.5ZM21.75 20.25V19.5H14.25V20.25V21H21.75V20.25ZM14.25 20.25V19.5H13.5H12.75C12.75 20.3284 13.4216 21 14.25 21V20.25ZM13.5 19.5H14.25V4.5H13.5H12.75V19.5H13.5ZM13.5 4.5H14.25V3.75V3C13.4216 3 12.75 3.67157 12.75 4.5H13.5ZM8.25 17.25H7.5V20.25H8.25H9V17.25H8.25ZM18.375 16.875H17.625C17.625 16.6679 17.7929 16.5 18 16.5V17.25V18C18.6213 18 19.125 17.4963 19.125 16.875H18.375ZM18 17.25V16.5C18.2071 16.5 18.375 16.6679 18.375 16.875H17.625H16.875C16.875 17.4963 17.3787 18 18 18V17.25ZM17.625 16.875H18.375C18.375 17.0821 18.2071 17.25 18 17.25V16.5V15.75C17.3787 15.75 16.875 16.2537 16.875 16.875H17.625ZM18 16.5V17.25C17.7929 17.25 17.625 17.0821 17.625 16.875H18.375H19.125C19.125 16.2537 18.6213 15.75 18 15.75V16.5Z" fill="black"/>
</svg>
