<svg xmlns="http://www.w3.org/2000/svg" width="24" height="24" fill="currentColor" viewBox="0 0 24 24"><path d="M21.72 6.533h-1.823V5.52a2.227 2.227 0 0 0-2.227-2.227H3.09A2.227 2.227 0 0 0 0.863 5.52v9.72a2.227 2.227 0 0 0 2.227 2.227h11.543v1.013a2.227 2.227 0 0 0 2.227 2.227h4.86a2.227 2.227 0 0 0 2.227-2.227V8.76A2.227 2.227 0 0 0 21.72 6.533m-18.63 9.72a1.013 1.013 0 0 1-1.013-1.013V5.52a1.013 1.013 0 0 1 1.013-1.013h14.58a1.013 1.013 0 0 1 1.013 1.013v1.013H16.86A2.227 2.227 0 0 0 14.633 8.76v7.493zM22.733 18.48a1.013 1.013 0 0 1-1.013 1.013h-4.86a1.013 1.013 0 0 1-1.013-1.013V8.76a1.013 1.013 0 0 1 1.013-1.013h4.86a1.013 1.013 0 0 1 1.013 1.013z m-10.126 1.62a0.607 0.607 0 0 1-0.607 0.607H7.95a0.607 0.607 0 0 1 0-1.214H12a0.607 0.607 0 0 1 0.607 0.607m8.1-9.72a0.607 0.607 0 0 1-0.607 0.607H18.48a0.608 0.608 0 0 1 0-1.215h1.62a0.607 0.607 0 0 1 0.607 0.607z"/></svg>