<svg width="24" height="24" viewBox="0 0 24 24" fill="none" xmlns="http://www.w3.org/2000/svg">
<path d="M6.37518 6.1875V9.5625M6.37518 9.5625V15.1875H3.75018C3.33597 15.1875 3.00018 14.8517 3.00018 14.4375V10.3125C3.00018 9.89829 3.33597 9.5625 3.75018 9.5625H6.37518ZM9.00018 8.8125V15.9375M9.00018 7.6875V6.1875M14.9998 15.1875V9.5625H12.3748C11.9606 9.5625 11.6248 9.89829 11.6248 10.3125V14.4375C11.6248 14.8517 11.9606 15.1875 12.3748 15.1875H14.9998ZM14.9998 15.1875V17.0625C14.9998 17.4767 14.664 17.8125 14.2498 17.8125H10.8748M20.9998 15.1875V9.5625H18.3748C17.9606 9.5625 17.6248 9.89829 17.6248 10.3125V14.4375C17.6248 14.8517 17.9606 15.1875 18.3748 15.1875H20.9998ZM20.9998 15.1875V17.0625C20.9998 17.4767 20.664 17.8125 20.2498 17.8125H16.8748" stroke="black" stroke-width="1.5"/>
</svg>
