<svg width="24" height="24" viewBox="0 0 24 24" fill="none" xmlns="http://www.w3.org/2000/svg">
<path d="M12 3V6.75M12 14.25V21M18.7913 14.25H3.75C3.55109 14.25 3.36032 14.171 3.21967 14.0303C3.07902 13.8897 3 13.6989 3 13.5V7.5C3 7.30109 3.07902 7.11032 3.21967 6.96967C3.36032 6.82902 3.55109 6.75 3.75 6.75H18.7913C18.8963 6.7501 19.0001 6.77227 19.0961 6.81507C19.192 6.85787 19.2779 6.92034 19.3481 6.99844L22.5 10.5L19.3481 14.0016C19.2779 14.0797 19.192 14.1421 19.0961 14.1849C19.0001 14.2277 18.8963 14.2499 18.7913 14.25Z" stroke="black" stroke-width="1.5" stroke-linecap="round" stroke-linejoin="round"/>
</svg>
