<svg viewBox="0 0 24 24" fill="none" xmlns="http://www.w3.org/2000/svg" width="24" height="24">
<path d="M23.4 2.4C23.731 2.4 24 2.669 24 3 24 3.331 23.731 3.6 23.4 3.6H0.6C0.269 3.6 0 3.331 0 3 0 2.669 0.269 2.4 0.6 2.4H23.4Z" fill="black"/>
<path d="M23.4 20.4C23.731 20.4 24 20.669 24 21 24 21.331 23.731 21.6 23.4 21.6H0.6C0.269 21.6 0 21.331 0 21 0 20.669 0.269 20.4 0.6 20.4H23.4Z" fill="black"/>
<path d="M3.6 15.6H20.4V8.4H3.6V15.6ZM24 18.3C24 18.766 23.646 19.149 23.193 19.195L23.1 19.2H0.9C0.403 19.2 0 18.797 0 18.3V5.7C0 5.203 0.403 4.8 0.9 4.8H23.1L23.193 4.805C23.646 4.851 24 5.234 24 5.7V18.3Z" fill="black"/>
</svg>