<svg viewBox="0 0 24 24" fill="none" xmlns="http://www.w3.org/2000/svg" width="24" height="24">
<path d="M2.4 20.4H21.6V3.6H2.4V20.4ZM22.8 20.7C22.8 21.166 22.446 21.549 21.993 21.595L21.9 21.6H2.1C1.603 21.6 1.2 21.197 1.2 20.7V3.3C1.2 2.803 1.603 2.4 2.1 2.4H21.9L21.993 2.405C22.446 2.451 22.8 2.834 22.8 3.3V20.7Z" fill="black"/>
<path d="M6 6.9C6 6.403 6.403 6 6.9 6H9.9C10.397 6 10.8 6.403 10.8 6.9V17.1C10.8 17.597 10.397 18 9.9 18H6.9C6.403 18 6 17.597 6 17.1V6.9Z" fill="black"/>
<path d="M13.2 6.9C13.2 6.403 13.603 6 14.1 6H17.1C17.597 6 18 6.403 18 6.9V17.1C18 17.597 17.597 18 17.1 18H14.1C13.603 18 13.2 17.597 13.2 17.1V6.9Z" fill="black"/>
</svg>