<svg xmlns="http://www.w3.org/2000/svg" width="24" height="24" fill="currentColor" viewBox="0 0 24 24"><path d="M21.113 15.24a1.013 1.013 0 1 1-1.013-1.013 1.013 1.013 0 0 1 1.013 1.013m-0.441 3.805a4.662 4.662 0 0 1-4.622 4.092H13.62A4.663 4.663 0 0 1 8.963 18.48v-4.282a6.276 6.276 0 0 1-5.67-6.248v-4.86a0.607 0.607 0 0 1 0.607-0.607h2.43a0.608 0.608 0 0 1 0 1.215H4.507v4.253a5.064 5.064 0 0 0 5.063 5.063h0.068c2.754-0.036 4.994-2.345 4.995-5.147V3.698h-1.823a0.608 0.608 0 0 1 0-1.215H15.24a0.607 0.607 0 0 1 0.607 0.607v4.776c0 3.283-2.498 6.018-5.67 6.33v4.284a3.444 3.444 0 0 0 3.443 3.443h2.43a3.444 3.444 0 0 0 3.398-2.892 3.847 3.847 0 1 1 1.224 0.014m2.061-3.805a2.633 2.633 0 1 0-2.633 2.633 2.633 2.633 0 0 0 2.633-2.633"/></svg>