<svg width="24" height="24" viewBox="0 0 24 24" fill="none" xmlns="http://www.w3.org/2000/svg">
<path d="M19.5 18C21.1569 18 22.5 16.6569 22.5 15C22.5 13.3431 21.1569 12 19.5 12C17.8431 12 16.5 13.3431 16.5 15C16.5 16.6569 17.8431 18 19.5 18ZM19.5 18C19.5 18.9946 19.1049 19.9484 18.4017 20.6516C17.6984 21.3549 16.7446 21.75 15.75 21.75H13.5C12.5054 21.75 11.5516 21.3549 10.8483 20.6516C10.1451 19.9484 9.75 18.9946 9.75 18V13.5M9.75 13.5C9.77312 13.5 9.79624 13.5003 9.81938 13.5C12.705 13.4625 15 11.0569 15 8.17219V3.75H12.75M9.75 13.5C9.07825 13.5 8.41251 13.3715 7.78898 13.1205C7.14399 12.8607 6.55702 12.4755 6.06214 11.9871C5.56726 11.4986 5.17433 10.9168 4.90616 10.2752C4.638 9.63372 4.49994 8.94532 4.5 8.25V3.75H6.75M19.4993 14.6223C19.7064 14.6223 19.8743 14.7902 19.8743 14.9973C19.8743 15.2044 19.7064 15.3723 19.4993 15.3723C19.2922 15.3723 19.1243 15.2044 19.1243 14.9973C19.1243 14.7902 19.2922 14.6223 19.4993 14.6223Z" stroke="black" stroke-width="1.5" stroke-linecap="round" stroke-linejoin="round"/>
</svg>
