<svg xmlns="http://www.w3.org/2000/svg" width="24" height="24" fill="currentColor" viewBox="0 0 24 24"><path d="M20.53 5.9l-4.05-4.05a0.6 0.6 0 0 0-0.43-0.178h-8.1a1.416 1.416 0 0 0-1.417 1.417v1.823H4.71a1.416 1.416 0 0 0-1.417 1.417v14.58a1.416 1.416 0 0 0 1.417 1.417h11.34a1.416 1.416 0 0 0 1.417-1.417v-1.823h1.823a1.416 1.416 0 0 0 1.417-1.417v-11.34a0.6 0.6 0 0 0-0.177-0.43z m-4.277 15.01a0.204 0.204 0 0 1-0.203 0.203h-11.34a0.204 0.204 0 0 1-0.203-0.203V6.33a0.204 0.204 0 0 1 0.203-0.203h7.848l3.695 3.695z m3.24-3.24a0.204 0.204 0 0 1-0.203 0.203h-1.823V9.57a0.6 0.6 0 0 0-0.179-0.43l-4.05-4.05a0.6 0.6 0 0 0-0.429-0.178H7.746V3.089a0.204 0.204 0 0 1 0.203-0.203h7.848l3.695 3.695z m-6.076-3.24a0.607 0.607 0 0 1-0.607 0.607h-4.86a0.608 0.608 0 0 1 0-1.215h4.86a0.607 0.607 0 0 1 0.607 0.607z m0 3.24a0.607 0.607 0 0 1-0.607 0.607h-4.86a0.607 0.607 0 0 1 0-1.214h4.86a0.607 0.607 0 0 1 0.607 0.607"/></svg>