<svg xmlns="http://www.w3.org/2000/svg" width="24" height="24" fill="currentColor" viewBox="0 0 24 24"><path d="M14.43 11.393h-1.823V4.507h1.013a3.444 3.444 0 0 1 3.443 3.443 0.607 0.607 0 0 0 1.214 0 4.663 4.663 0 0 0-4.657-4.657h-1.013V1.47a0.608 0.608 0 0 0-1.215 0v1.823h-1.013a4.658 4.658 0 0 0 0 9.315h1.013v6.886H9.569a3.444 3.444 0 0 1-3.443-3.443 0.608 0.608 0 0 0-1.216 0 4.663 4.663 0 0 0 4.658 4.657h1.822v1.823a0.608 0.608 0 0 0 1.216 0v-1.823h1.823a4.657 4.657 0 0 0 0-9.314z m-4.05 0a3.443 3.443 0 0 1 0-6.886h1.013v6.886z m4.05 8.1h-1.823v-6.886h1.823a3.443 3.443 0 0 1 0 6.886"/></svg>