<svg width="24" height="24" viewBox="0 0 24 24" fill="none" xmlns="http://www.w3.org/2000/svg">
<path d="M19.4255 11.5C19.7015 11.5002 19.9255 11.724 19.9255 12C19.9255 12.276 19.7015 12.4998 19.4255 12.5H10.6501C10.374 12.5 10.1501 12.2761 10.1501 12C10.1501 11.7238 10.374 11.5 10.6501 11.5H19.4255Z" fill="black"/>
<path d="M4.38379 8.16307C4.57063 8.08568 4.78571 8.12847 4.92871 8.27147L8.30371 11.6465C8.49897 11.8417 8.49897 12.1582 8.30371 12.3535L4.92871 15.7285C4.78571 15.8715 4.57063 15.9143 4.38379 15.8369C4.19699 15.7595 4.0752 15.5772 4.0752 15.375V8.62499C4.0752 8.42278 4.19699 8.24048 4.38379 8.16307ZM5.0752 14.168L7.24316 12L5.0752 9.83202V14.168Z" fill="black"/>
</svg>
