<svg width="24" height="24" viewBox="0 0 24 24" fill="none" xmlns="http://www.w3.org/2000/svg">
<path d="M8.25005 3.75005L4.37161 7.62848C4.17454 7.82542 4.01821 8.05926 3.91156 8.31663C3.8049 8.57401 3.75 8.84988 3.75 9.12848C3.75 9.40709 3.8049 9.68296 3.91156 9.94033C4.01821 10.1977 4.17454 10.4315 4.37161 10.6285C4.56855 10.8255 4.80238 10.9819 5.05976 11.0885C5.31714 11.1952 5.59301 11.2501 5.87161 11.2501C6.15021 11.2501 6.42608 11.1952 6.68346 11.0885C6.94083 10.9819 7.17467 10.8255 7.37161 10.6285L13.6285 4.37161C13.8254 4.17454 14.0593 4.01821 14.3166 3.91156C14.574 3.8049 14.8499 3.75 15.1285 3.75C15.4071 3.75 15.683 3.8049 15.9403 3.91156C16.1977 4.01821 16.4315 4.17454 16.6285 4.37161C16.8255 4.56855 16.9819 4.80238 17.0885 5.05976C17.1952 5.31714 17.2501 5.59301 17.2501 5.87161C17.2501 6.15021 17.1952 6.42608 17.0885 6.68346C16.9819 6.94083 16.8255 7.17467 16.6285 7.37161L7.37161 16.6285C7.17454 16.8254 7.01821 17.0593 6.91156 17.3166C6.8049 17.574 6.75 17.8499 6.75 18.1285C6.75 18.4071 6.8049 18.683 6.91156 18.9403C7.01821 19.1977 7.17454 19.4315 7.37161 19.6285C7.56854 19.8255 7.80238 19.9819 8.05976 20.0885C8.31714 20.1952 8.59301 20.2501 8.87161 20.2501C9.15021 20.2501 9.42608 20.1952 9.68346 20.0885C9.94083 19.9819 10.1747 19.8255 10.3716 19.6285L16.6285 13.3716C16.8254 13.1745 17.0593 13.0182 17.3166 12.9116C17.574 12.8049 17.8499 12.75 18.1285 12.75C18.4071 12.75 18.683 12.8049 18.9403 12.9116C19.1977 13.0182 19.4315 13.1745 19.6285 13.3716C19.8255 13.5685 19.9819 13.8024 20.0885 14.0598C20.1952 14.3171 20.2501 14.593 20.2501 14.8716C20.2501 15.1502 20.1952 15.4261 20.0885 15.6835C19.9819 15.9408 19.8255 16.1747 19.6285 16.3716L18.75 17.25C18.553 17.447 18.3967 17.6808 18.29 17.9382C18.1833 18.1956 18.1284 18.4714 18.1284 18.75C18.1284 19.0286 18.1833 19.3045 18.29 19.5619C18.3967 19.8193 18.553 20.0531 18.75 20.25" stroke="black" stroke-width="1.5" stroke-linecap="round" stroke-linejoin="round"/>
</svg>
