<svg xmlns="http://www.w3.org/2000/svg" width="24" height="24" fill="currentColor" viewBox="0 0 24 24"><path d="M19.721 18.1a1.684 1.684 0 0 0 0 2.382 0.607 0.607 0 1 1-0.858 0.858 2.897 2.897 0 0 1 0-4.098l0.949-0.95a1.684 1.684 0 0 0-2.382-2.38l-6.758 6.758a2.899 2.899 0 0 1-4.1-4.099l10-9.999a1.684 1.684 0 0 0-2.382-2.38l-6.76 6.758a2.899 2.899 0 0 1-4.099-4.099l4.189-4.189a0.607 0.607 0 1 1 0.86 0.859L4.19 7.71a1.684 1.684 0 0 0 2.382 2.381l6.759-6.759a2.899 2.899 0 0 1 4.099 4.1l-10 9.998a1.684 1.684 0 0 0 2.381 2.381l6.76-6.759a2.899 2.899 0 0 1 4.099 4.1z"/></svg>