<svg xmlns="http://www.w3.org/2000/svg" width="24" height="24" fill="currentColor" viewBox="0 0 24 24"><path d="M12 1.673A10.327 10.327 0 1 0 22.327 12 10.339 10.339 0 0 0 12 1.673m9.094 9.75a16.8 16.8 0 0 0-0.993-0.03 16.8 16.8 0 0 0-4.581 0.637 16.8 16.8 0 0 0-1.462-3.269l-0.044-0.074a16.8 16.8 0 0 0 4.13-3.413 9.096 9.096 0 0 1 2.95 6.151z m-3.9-6.906a15.6 15.6 0 0 1-3.838 3.15 16.92 16.92 0 0 0-4.304-4.289 9.096 9.096 0 0 1 8.142 1.139m-9.476-0.558a15.72 15.72 0 0 1 4.557 4.28A15.6 15.6 0 0 1 5.52 9.773a15.6 15.6 0 0 1-2.312-0.172 9.156 9.156 0 0 1 4.51-5.642M2.887 12a9.6 9.6 0 0 1 0.081-1.207 16.8 16.8 0 0 0 2.552 0.194 16.8 16.8 0 0 0 7.421-1.721l0.068 0.112a15.6 15.6 0 0 1 1.355 3.028 16.8 16.8 0 0 0-2.641 1.226 16.92 16.92 0 0 0-5.638 5.294 9.096 9.096 0 0 1-3.197-6.925z m4.17 7.652a15.72 15.72 0 0 1 5.271-4.974 15.6 15.6 0 0 1 2.367-1.106 15.6 15.6 0 0 1 0.436 3.661 15.6 15.6 0 0 1-0.385 3.456 9.096 9.096 0 0 1-7.688-1.037z m9.036 0.488a16.8 16.8 0 0 0 0.252-2.907 16.8 16.8 0 0 0-0.492-4.037 15.6 15.6 0 0 1 4.247-0.589q0.494 0 0.989 0.033a9.132 9.132 0 0 1-4.996 7.5"/></svg>