<svg xmlns="http://www.w3.org/2000/svg" width="24" height="24" fill="currentColor" viewBox="0 0 24 24"><path d="M4.35 2.686a0.607 0.607 0 0 0-0.899 0.81l2.4 2.64c-1.696 2.518-2.557 5.032-2.557 7.485a8.707 8.707 0 0 0 14.912 6.108l1.446 1.587a0.607 0.607 0 0 0 0.899-0.819zM12 21.113a7.5 7.5 0 0 1-7.493-7.493c0-2.126 0.736-4.33 2.187-6.554l10.69 11.76A7.476 7.476 0 0 1 12 21.112zM8.294 4.009a0.607 0.607 0 0 1-0.02-0.859 24.84 24.84 0 0 1 3.378-2.986 0.612 0.612 0 0 1 0.697 0 25.44 25.44 0 0 1 4.161 3.848c2.747 3.156 4.199 6.48 4.198 9.609a8.76 8.76 0 0 1-0.312 2.316 0.607 0.607 0 0 1-0.585 0.447 0.6 0.6 0 0 1-0.161-0.022 0.607 0.607 0 0 1-0.425-0.748 7.44 7.44 0 0 0 0.269-1.993c0-6.037-5.974-11.03-7.493-12.203a25.68 25.68 0 0 0-2.847 2.57 0.607 0.607 0 0 1-0.858 0.021z"/></svg>