<svg xmlns="http://www.w3.org/2000/svg" width="24" height="24" fill="currentColor" viewBox="0 0 24 24"><path d="M22.15 5.09l-3.24-3.24a0.607 0.607 0 0 0-0.86 0l-9.72 9.72a0.6 0.6 0 0 0-0.177 0.43v3.24a0.607 0.607 0 0 0 0.607 0.607H12a0.6 0.6 0 0 0 0.43-0.179l9.72-9.72a0.607 0.607 0 0 0 0-0.858m-10.402 9.543H9.367V12.252l6.683-6.683 2.381 2.381z m7.542-7.542l-2.381-2.381L18.48 3.139 20.861 5.52zM21.517 12v8.1a1.416 1.416 0 0 1-1.417 1.417H3.9a1.416 1.416 0 0 1-1.417-1.417V3.9A1.416 1.416 0 0 1 3.9 2.483H12a0.608 0.608 0 0 1 0 1.215H3.9a0.204 0.204 0 0 0-0.203 0.203v16.2a0.204 0.204 0 0 0 0.203 0.203h16.2a0.204 0.204 0 0 0 0.203-0.203v-8.1a0.607 0.607 0 0 1 1.214 0z"/></svg>