<svg width="24" height="24" viewBox="0 0 24 24" fill="none" xmlns="http://www.w3.org/2000/svg">
<path d="M11.0342 19.9128L9.58682 21.0686C8.78931 20.8582 8.02325 20.543 7.30869 20.1311L7.02744 17.627C6.80215 17.4271 6.58897 17.2139 6.389 16.9886L3.884 16.6951C3.4696 15.9814 3.15212 15.2156 2.93994 14.418L4.51307 12.4492C4.49525 12.1482 4.49525 11.8464 4.51307 11.5455L2.94088 9.57671C3.1527 8.77897 3.46953 8.0129 3.88307 7.29858L6.38713 7.01733C6.58709 6.79205 6.80028 6.57886 7.02557 6.3789L7.30682 3.87577C8.0201 3.4642 8.78492 3.14926 9.58119 2.93921L11.5499 4.51233C11.8509 4.49452 12.1527 4.49452 12.4537 4.51233L14.4224 2.94015C15.2202 3.15197 15.9863 3.4688 16.7006 3.88233L16.9818 6.3864C17.2071 6.58636 17.4203 6.79955 17.6203 7.02483L20.1234 7.30608C20.5378 8.01986 20.8553 8.78566 21.0674 9.58327L19.9588 10.9707M17.8875 15.7856L20.3599 18.258M15.75 12C15.75 14.0711 14.0711 15.75 12 15.75C9.92893 15.75 8.25 14.0711 8.25 12C8.25 9.92893 9.92893 8.25 12 8.25C14.0711 8.25 15.75 9.92893 15.75 12ZM16.3565 22.0924H14.3835C14.2899 22.0924 14.2 22.0552 14.1338 21.989C14.0676 21.9227 14.0304 21.8329 14.0304 21.7392V19.7663C14.0304 19.6727 14.0676 19.583 14.1337 19.5168L19.5779 14.0726C19.6441 14.0064 19.7339 13.9692 19.8276 13.9692C19.9212 13.9692 20.011 14.0064 20.0772 14.0726L22.0502 16.0442C22.1163 16.1104 22.1535 16.2002 22.1535 16.2939C22.1535 16.3875 22.1163 16.4773 22.0502 16.5435L16.6059 21.9891C16.5397 22.0552 16.45 22.0924 16.3565 22.0924Z" stroke="black" stroke-width="1.5" stroke-linecap="round" stroke-linejoin="round"/>
</svg>
