<svg xmlns="http://www.w3.org/2000/svg" width="24" height="24" fill="currentColor" viewBox="0 0 24 24"><path d="M10.38 3.293a0.607 0.607 0 0 0-0.607 0.607v1.823H1.47A1.416 1.416 0 0 0 0.053 7.14v9.72a1.416 1.416 0 0 0 1.417 1.417h8.303v1.823a0.607 0.607 0 0 0 1.214 0V3.9a0.607 0.607 0 0 0-0.607-0.607M1.47 17.063a0.204 0.204 0 0 1-0.203-0.203v-9.72a0.204 0.204 0 0 1 0.203-0.203h8.303v10.126zM23.947 7.14v9.72a1.416 1.416 0 0 1-1.417 1.417H13.62a0.607 0.607 0 0 1 0-1.214h8.91a0.204 0.204 0 0 0 0.203-0.203v-9.72a0.204 0.204 0 0 0-0.203-0.203H13.62a0.608 0.608 0 0 1 0-1.215h8.91a1.416 1.416 0 0 1 1.417 1.417z m-16.2 3.24a0.607 0.607 0 0 1-0.607 0.607h-1.013v2.633a0.608 0.608 0 0 1-1.215 0v-2.633h-1.013a0.607 0.607 0 0 1 0-1.214h3.24a0.607 0.607 0 0 1 0.607 0.607z"/></svg>