<svg xmlns="http://www.w3.org/2000/svg" width="24" height="24" fill="currentColor" viewBox="0 0 24 24"><path d="M4.35 2.686a0.607 0.607 0 0 0-0.899 0.81l2.115 2.329c-3.775 2.218-5.389 5.771-5.46 5.93a0.6 0.6 0 0 0 0 0.495c0.035 0.078 0.877 1.946 2.757 3.826C4.609 17.82 7.608 19.898 12 19.898a12.6 12.6 0 0 0 5.323-1.138l2.329 2.56a0.607 0.607 0 0 0 0.899-0.818z m4.922 7.221l4.557 5.014a3.443 3.443 0 0 1-4.557-5.014M12 18.684c-3.178 0-5.952-1.157-8.246-3.436a13.68 13.68 0 0 1-2.416-3.247c0.434-0.83 2.035-3.562 5.063-5.256l2.045 2.249a4.657 4.657 0 0 0 6.211 6.833l1.803 1.985A11.52 11.52 0 0 1 12 18.684m0.648-10.064a0.607 0.607 0 0 1 0.228-1.194 4.68 4.68 0 0 1 3.762 4.137 0.607 0.607 0 0 1-0.548 0.661h-0.057a0.607 0.607 0 0 1-0.607-0.552 3.456 3.456 0 0 0-2.777-3.054z m11.246 3.63c-0.042 0.094-1.05 2.329-3.327 4.365a0.607 0.607 0 1 1-0.81-0.905 13.56 13.56 0 0 0 2.905-3.709 13.68 13.68 0 0 0-2.416-3.247C17.951 6.475 15.176 5.318 12 5.318a12 12 0 0 0-1.993 0.162 0.607 0.607 0 1 1-0.203-1.197A13.2 13.2 0 0 1 12 4.104c4.392 0 7.391 2.08 9.137 3.823 1.882 1.882 2.724 3.746 2.757 3.828a0.6 0.6 0 0 1 0 0.495"/></svg>