<svg width="24" height="24" viewBox="0 0 24 24" fill="none" xmlns="http://www.w3.org/2000/svg">
<path d="M4.5 3.75L19.5 20.25M14.5227 14.7746C13.7867 15.4437 12.8151 15.793 11.8216 15.7457C10.828 15.6984 9.89397 15.2584 9.22488 14.5224C8.55578 13.7864 8.20646 12.8148 8.25376 11.8213C8.30105 10.8278 8.74109 9.8937 9.47706 9.22461M12.7061 8.31641C13.5033 8.46908 14.2295 8.87632 14.7755 9.47696C15.3216 10.0776 15.658 10.8392 15.7342 11.6473M19.557 15.8531C21.6007 14.0231 22.4998 12 22.4998 12C22.4998 12 19.4998 5.25001 11.9998 5.25001C11.3503 5.24912 10.7019 5.3018 10.061 5.40751M6.9375 6.43164C3.11531 8.36664 1.5 12.0004 1.5 12.0004C1.5 12.0004 4.5 18.7504 12 18.7504C13.7574 18.7642 15.4927 18.3593 17.0625 17.5691" stroke="black" stroke-width="1.5" stroke-linecap="round" stroke-linejoin="round"/>
</svg>
