<svg xmlns="http://www.w3.org/2000/svg" width="24" height="24" fill="currentColor" viewBox="0 0 24 24"><path d="M21.517 5.858a3.42 3.42 0 0 0-1.077-2.455c-1.34-1.268-3.511-1.224-4.842 0.111L13.5 5.622l-0.064-0.064a2.227 2.227 0 0 0-3.15 0l-0.91 0.911a1.416 1.416 0 0 0 0 2.005l0.351 0.352-5.306 5.31a3.828 3.828 0 0 0-0.996 3.719l-0.841 1.923a1.188 1.188 0 0 0 0.249 1.317 1.404 1.404 0 0 0 1 0.422 1.44 1.44 0 0 0 0.575-0.12l1.822-0.8a3.84 3.84 0 0 0 3.629-1.02l5.31-5.311 0.352 0.352a1.416 1.416 0 0 0 2.005 0l0.911-0.91a2.227 2.227 0 0 0 0-3.152l-0.067-0.067 2.137-2.15a3.42 3.42 0 0 0 1.013-2.482zM9.001 18.718a2.64 2.64 0 0 1-2.633 0.655 0.6 0.6 0 0 0-0.421 0.024l-2.025 0.885a0.204 0.204 0 0 1-0.212-0.031l0.923-2.115a0.6 0.6 0 0 0 0.019-0.437 2.616 2.616 0 0 1 0.634-2.706l5.31-5.31 3.722 3.723z m10.648-11.24l-2.569 2.589a0.607 0.607 0 0 0 0 0.858l0.494 0.495a1.013 1.013 0 0 1 0 1.433l-0.911 0.911a0.204 0.204 0 0 1-0.285 0l-6.146-6.146a0.204 0.204 0 0 1 0-0.287l0.911-0.911a1.013 1.013 0 0 1 1.432 0l0.495 0.496a0.6 0.6 0 0 0 0.43 0.177 0.6 0.6 0 0 0 0.431-0.179l2.525-2.54c0.869-0.869 2.28-0.911 3.146-0.086a2.227 2.227 0 0 1 0.044 3.196z"/></svg>