<svg width="24" height="24" viewBox="0 0 24 24" fill="none" xmlns="http://www.w3.org/2000/svg">
<path d="M14.9356 13.3078L9.62181 18.6225C9.23646 19.0091 8.75293 19.2833 8.22329 19.4154C7.69366 19.5476 7.138 19.5327 6.61619 19.3725L4.74119 20.1918C4.60304 20.2523 4.44989 20.2696 4.30172 20.2417C4.15354 20.2138 4.01723 20.1418 3.91056 20.0353C3.83401 19.9587 3.78233 19.8609 3.76226 19.7545C3.74219 19.6481 3.75467 19.5382 3.79806 19.439L4.65962 17.4646C4.48076 16.9348 4.45357 16.3654 4.58113 15.8209C4.70868 15.2764 4.9859 14.7784 5.3815 14.3831L10.6962 9.06934M17.1029 10.6104L17.5604 11.0688C17.6998 11.2081 17.8103 11.3735 17.8857 11.5555C17.9611 11.7375 17.9999 11.9326 17.9999 12.1296C17.9999 12.3266 17.9611 12.5217 17.8857 12.7037C17.8103 12.8857 17.6998 13.0511 17.5604 13.1904L16.7167 14.0341C16.576 14.1747 16.3854 14.2536 16.1865 14.2536C15.9877 14.2536 15.797 14.1747 15.6564 14.0341L9.9695 8.34442C9.82895 8.20378 9.75 8.01309 9.75 7.81426C9.75 7.61544 9.82895 7.42475 9.9695 7.28411L10.8132 6.44036C10.9525 6.30103 11.1179 6.19051 11.2999 6.11511C11.4819 6.03971 11.677 6.0009 11.874 6.0009C12.071 6.0009 12.2661 6.03971 12.4481 6.11511C12.6301 6.19051 12.7955 6.30103 12.9348 6.44036L13.3932 6.89786L15.737 4.54473C16.7486 3.53317 18.3967 3.4713 19.4345 4.45098C19.6896 4.69202 19.8938 4.98177 20.035 5.3031C20.1761 5.62442 20.2514 5.97079 20.2564 6.32173C20.2614 6.67266 20.196 7.02103 20.064 7.34623C19.932 7.67143 19.7361 7.96686 19.4879 8.21505L17.1029 10.6104Z" stroke="black" stroke-width="1.5" stroke-linecap="round" stroke-linejoin="round"/>
</svg>
