<svg xmlns="http://www.w3.org/2000/svg" fill="currentColor" viewBox="0 0 24 24" width="24" height="24"><path d="M12.607 11.19v9.72a0.608 0.608 0 0 1-1.215 0v-9.72a0.607 0.607 0 0 1 1.214 0z m6.683 7.493a0.607 0.607 0 0 0-0.607 0.607v1.62a0.607 0.607 0 0 0 1.214 0v-1.62a0.607 0.607 0 0 0-0.607-0.607m2.43-3.24h-1.823V3.09a0.607 0.607 0 0 0-1.214 0v12.353H16.86a0.608 0.608 0 0 0 0 1.215h4.86a0.607 0.607 0 0 0 0-1.214z m-17.01 0a0.607 0.607 0 0 0-0.607 0.607v4.86a0.608 0.608 0 0 0 1.215 0v-4.86a0.607 0.607 0 0 0-0.607-0.607z m2.43-3.24H5.317V3.09a0.608 0.608 0 0 0-1.215 0v9.113H2.279a0.607 0.607 0 0 0 0 1.214h4.86a0.607 0.607 0 0 0 0-1.214z m7.29-4.86h-1.823V3.09a0.608 0.608 0 0 0-1.215 0v4.253H9.569a0.608 0.608 0 0 0 0 1.215h4.86a0.608 0.608 0 0 0 0-1.215z"/></svg>