<svg xmlns="http://www.w3.org/2000/svg" fill="currentColor" viewBox="0 0 24 24" width="24" height="24"><path d="M12.506 11.325v8.1a.507.507 0 0 1-1.013 0v-8.1a.506.506 0 0 1 1.012 0zm5.569 6.244a.506.506 0 0 0-.506.506v1.35a.506.506 0 0 0 1.012 0v-1.35a.506.506 0 0 0-.506-.506m2.025-2.7h-1.519V4.575a.506.506 0 0 0-1.012 0v10.294H16.05a.507.507 0 0 0 0 1.013h4.05a.506.506 0 0 0 0-1.012zm-14.175 0a.506.506 0 0 0-.506.506v4.05a.507.507 0 0 0 1.013 0v-4.05a.506.506 0 0 0-.506-.506zm2.025-2.7H6.431V4.575a.507.507 0 0 0-1.013 0v7.594H3.899a.506.506 0 0 0 0 1.012h4.05a.506.506 0 0 0 0-1.012zm6.075-4.05h-1.519V4.575a.507.507 0 0 0-1.013 0v3.544H9.974a.507.507 0 0 0 0 1.013h4.05a.507.507 0 0 0 0-1.013z"/></svg>