<svg xmlns="http://www.w3.org/2000/svg" fill="currentColor" viewBox="0 0 24 24" width="24" height="24"><path d="M17.063 7.14a0.607 0.607 0 0 1 0.607-0.607h3.24a0.608 0.608 0 0 1 0 1.215h-3.24a0.607 0.607 0 0 1-0.607-0.607z m-13.973 0.607h10.733v1.823a0.607 0.607 0 0 0 1.214 0v-4.86a0.607 0.607 0 0 0-1.214 0v1.823H3.09a0.608 0.608 0 0 0 0 1.215z m17.82 8.505h-9.72a0.607 0.607 0 0 0 0 1.214h9.72a0.607 0.607 0 0 0 0-1.214m-12.96-2.43a0.607 0.607 0 0 0-0.607 0.607v1.823H3.09a0.608 0.608 0 0 0 0 1.215h4.253v1.823a0.608 0.608 0 0 0 1.215 0v-4.86a0.607 0.607 0 0 0-0.607-0.607z"/></svg>