<svg viewBox="0 0 24 24" fill="none" xmlns="http://www.w3.org/2000/svg" width="24" height="24">
<path fill-rule="evenodd" clip-rule="evenodd" d="M22.308 9.452L22.32 9.57C22.32 9.529 22.316 9.49 22.308 9.452Z" fill="black"/>
<path fill-rule="evenodd" clip-rule="evenodd" d="M16.651 8.97L20.272 8.97 16.651 5.348 16.651 8.97ZM22.191 9.197C22.248 9.27 22.29 9.357 22.308 9.452L22.32 9.57 22.32 19.29C22.32 19.664 22.172 20.023 21.908 20.288 21.643 20.552 21.284 20.7 20.91 20.7L3.09 20.7C2.716 20.7 2.358 20.552 2.094 20.288 1.829 20.023 1.68 19.664 1.68 19.29L1.68 4.71C1.68 4.336 1.829 3.977 2.094 3.713 2.358 3.448 2.716 3.3 3.09 3.3L16.051 3.3C16.143 3.3 16.234 3.322 16.315 3.362 16.374 3.39 16.428 3.429 16.475 3.476L22.144 9.145C22.161 9.162 22.176 9.179 22.191 9.197ZM15.451 9.57C15.451 9.901 15.719 10.17 16.051 10.17L21.12 10.17 21.12 19.29C21.12 19.346 21.099 19.4 21.059 19.439 21.02 19.478 20.966 19.5 20.91 19.5L3.09 19.5C3.034 19.5 2.981 19.478 2.942 19.439 2.903 19.4 2.88 19.346 2.88 19.29L2.88 4.71C2.88 4.654 2.903 4.6 2.942 4.561 2.981 4.522 3.034 4.5 3.09 4.5L15.451 4.5 15.451 9.57Z" fill="black"/>
</svg>