<svg width="24" height="24" viewBox="0 0 24 24" fill="none" xmlns="http://www.w3.org/2000/svg">
<path d="M14.25 3V8.25H19.5M4.5 11.25V3.75C4.5 3.55109 4.57902 3.36032 4.71967 3.21967C4.86032 3.07902 5.05109 3 5.25 3H14.25L19.5 8.25V20.25C19.5 20.4489 19.421 20.6397 19.2803 20.7803C19.1397 20.921 18.9489 21 18.75 21H15.75M10.7317 16.8451C10.7317 17.8012 9.95656 18.5763 9.00043 18.5763C8.0443 18.5763 7.26921 17.8012 7.26921 16.8451C7.26921 15.8889 8.0443 15.1138 9.00043 15.1138C9.95656 15.1138 10.7317 15.8889 10.7317 16.8451ZM9.08916 20.2257C9.03116 20.2257 8.97273 20.2257 8.91604 20.2257L7.52889 21C6.98889 20.8184 6.48802 20.5364 6.05259 20.169L6.0474 18.6109C6.01667 18.5624 5.98767 18.5135 5.96084 18.4633L4.58148 17.6778C4.47284 17.1282 4.47284 16.5627 4.58148 16.0132L5.95954 15.2298C5.98767 15.1801 6.01667 15.1307 6.0461 15.0822L6.05302 13.5241C6.48806 13.1557 6.9888 12.8727 7.52889 12.6901L8.91387 13.4644C8.97187 13.4644 9.0303 13.4644 9.08699 13.4644L10.472 12.6901C11.012 12.8718 11.5128 13.1537 11.9483 13.5211L11.9535 15.0792C11.9842 15.1277 12.0132 15.1766 12.04 15.2268L13.4185 16.0119C13.5272 16.5614 13.5272 17.1269 13.4185 17.6765L12.0405 18.4599C12.0123 18.5096 11.9833 18.559 11.9539 18.6074L11.947 20.1655C11.5122 20.5341 11.0118 20.8172 10.472 21L9.08916 20.2257Z" stroke="black" stroke-width="1.5" stroke-linecap="round" stroke-linejoin="round"/>
</svg>
