<svg xmlns="http://www.w3.org/2000/svg" width="24" height="24" fill="currentColor" viewBox="0 0 24 24"><path d="M10.076 14.093a0.607 0.607 0 0 0-1.012 0l-2.283 3.425-1.155-1.797a0.607 0.607 0 0 0-1.023 0l-3.645 5.67a0.607 0.607 0 0 0 0.511 0.936h12.96a0.607 0.607 0 0 0 0.506-0.944z m-7.492 7.02l2.53-3.939 1.146 1.782a0.607 0.607 0 0 0 1.013 0.009l2.292-3.443 3.73 5.591zM20.53 7.522l-5.67-5.67a0.6 0.6 0 0 0-0.43-0.178h-9.72a1.416 1.416 0 0 0-1.417 1.417v8.91a0.608 0.608 0 0 0 1.215 0V3.091a0.204 0.204 0 0 1 0.203-0.203h9.113v5.063a0.607 0.607 0 0 0 0.607 0.607h5.063v12.353a0.204 0.204 0 0 1-0.203 0.203h-0.81a0.607 0.607 0 0 0 0 1.214h0.81a1.416 1.416 0 0 0 1.417-1.417v-12.96a0.6 0.6 0 0 0-0.177-0.429z m-5.493-3.776l3.597 3.597h-3.597z"/></svg>