<svg viewBox="0 0 24 24" fill="none" xmlns="http://www.w3.org/2000/svg" width="24" height="24">
<path fill-rule="evenodd" clip-rule="evenodd" d="M14.548 1.692L14.43 1.68C14.471 1.68 14.51 1.684 14.548 1.692Z" fill="black"/>
<path d="M12.003 10.632C13.944 10.632 15.519 12.206 15.519 14.147 15.519 16.089 13.944 17.664 12.003 17.664 10.061 17.664 8.487 16.089 8.487 14.147 8.487 12.206 10.061 10.632 12.003 10.632ZM13.453 13.545L14.237 13.547C14.185 13.35 14.108 13.164 14.008 12.991L13.453 13.545ZM9.687 14.147C9.687 15.426 10.724 16.464 12.003 16.464 13.074 16.464 13.973 15.735 14.237 14.747H13.456C13.22 15.318 12.658 15.72 12.003 15.72 11.134 15.72 10.431 15.016 10.431 14.147 10.431 13.279 11.135 12.576 12.003 12.576 12.216 12.576 12.42 12.618 12.606 12.695L13.158 12.144C12.818 11.947 12.424 11.832 12.003 11.832 10.724 11.832 9.687 12.869 9.687 14.147ZM11.631 14.147C11.631 14.353 11.797 14.52 12.003 14.52 12.208 14.52 12.374 14.353 12.374 14.147 12.374 13.942 12.208 13.776 12.003 13.776 11.797 13.776 11.631 13.942 11.631 14.147Z" fill="black"/>
<path fill-rule="evenodd" clip-rule="evenodd" d="M15.03 7.349V3.728L18.652 7.349H15.03ZM14.803 1.81C14.73 1.751 14.643 1.71 14.548 1.692L14.43 1.68H4.71C4.336 1.68 3.977 1.828 3.713 2.092 3.448 2.357 3.3 2.716 3.3 3.09V20.91C3.3 21.284 3.448 21.642 3.713 21.906 3.977 22.171 4.336 22.32 4.71 22.32H19.29C19.664 22.32 20.023 22.171 20.287 21.906 20.552 21.642 20.7 21.284 20.7 20.91V7.949C20.7 7.857 20.678 7.766 20.638 7.685 20.61 7.626 20.571 7.572 20.524 7.525L14.855 1.856C14.838 1.839 14.821 1.824 14.803 1.81ZM14.43 8.549C14.099 8.549 13.83 8.281 13.83 7.949V2.88H4.71C4.654 2.88 4.6 2.901 4.561 2.941 4.522 2.98 4.5 3.034 4.5 3.09V20.91C4.5 20.966 4.522 21.019 4.561 21.058 4.6 21.097 4.654 21.12 4.71 21.12H19.29C19.346 21.12 19.4 21.097 19.439 21.058 19.478 21.019 19.5 20.966 19.5 20.91V8.549H14.43ZM12.003 10.632C13.944 10.632 15.519 12.206 15.519 14.147 15.519 16.089 13.944 17.664 12.003 17.664 10.061 17.664 8.487 16.089 8.487 14.147 8.487 12.206 10.061 10.632 12.003 10.632ZM9.687 14.147C9.687 15.426 10.724 16.464 12.003 16.464 13.074 16.464 13.973 15.735 14.237 14.747H13.456C13.22 15.318 12.658 15.72 12.003 15.72 11.134 15.72 10.431 15.016 10.431 14.147 10.431 13.279 11.135 12.576 12.003 12.576 12.216 12.576 12.42 12.618 12.606 12.695L13.158 12.144C12.818 11.947 12.424 11.832 12.003 11.832 10.724 11.832 9.687 12.869 9.687 14.147ZM14.237 13.547L13.453 13.545 14.008 12.991C14.108 13.164 14.185 13.35 14.237 13.547ZM11.631 14.147C11.631 14.353 11.797 14.52 12.003 14.52 12.208 14.52 12.374 14.353 12.374 14.147 12.374 13.942 12.208 13.776 12.003 13.776 11.797 13.776 11.631 13.942 11.631 14.147Z" fill="black"/>
</svg>