<svg xmlns="http://www.w3.org/2000/svg" width="24" height="24" fill="currentColor" viewBox="0 0 24 24"><path d="M8.993 12.25a0.612 0.612 0 0 0-0.663 0.132l-2.252 2.252H3.9a0.607 0.607 0 0 0-0.607 0.607v4.05a0.607 0.607 0 0 0 0.607 0.607h2.178l2.252 2.253a0.607 0.607 0 0 0 1.037-0.43v-8.91a0.612 0.612 0 0 0-0.374-0.56z m-0.84 7.999l-1.393-1.387a0.6 0.6 0 0 0-0.43-0.178H4.507v-2.836h1.823a0.6 0.6 0 0 0 0.43-0.178l1.393-1.392z m6.074-2.983a3.9 3.9 0 0 1-1.923 3.36 0.607 0.607 0 0 1-0.608-1.049 2.683 2.683 0 0 0 0-4.621 0.607 0.607 0 0 1 0.608-1.049 3.9 3.9 0 0 1 1.923 3.36z m6.303-9.744l-5.67-5.67a0.6 0.6 0 0 0-0.43-0.179h-9.72a1.416 1.416 0 0 0-1.417 1.417v8.1a0.608 0.608 0 0 0 1.215 0v-8.1a0.204 0.204 0 0 1 0.203-0.203h9.113v5.063a0.607 0.607 0 0 0 0.607 0.607h5.063v12.353a0.204 0.204 0 0 1-0.203 0.203h-3.24a0.607 0.607 0 0 0 0 1.214h3.24a1.416 1.416 0 0 0 1.417-1.417v-12.96a0.6 0.6 0 0 0-0.177-0.43z m-5.492-3.776l3.597 3.597h-3.597z"/></svg>