<svg viewBox="0 0 24 24" fill="none" xmlns="http://www.w3.org/2000/svg" width="24" height="24">
<g clip-path="url(#clip0_548_10892)">
<path d="M17.677 21.816C17.466 21.816 17.303 21.762 17.187 21.653 17.079 21.537 17.024 21.374 17.024 21.163V15.701C17.024 15.489 17.079 15.33 17.187 15.221 17.303 15.105 17.466 15.048 17.677 15.048H19.981C20.455 15.048 20.858 15.118 21.191 15.259 21.523 15.4 21.776 15.601 21.949 15.864 22.128 16.126 22.218 16.44 22.218 16.805 22.218 17.214 22.099 17.56 21.863 17.841 21.626 18.123 21.303 18.312 20.893 18.408V18.264C21.367 18.334 21.735 18.513 21.997 18.801 22.259 19.089 22.391 19.464 22.391 19.925 22.391 20.526 22.186 20.994 21.776 21.326 21.373 21.653 20.81 21.816 20.087 21.816H17.677ZM18.205 20.885H19.933C20.368 20.885 20.688 20.802 20.893 20.635 21.098 20.462 21.2 20.206 21.2 19.867 21.2 19.521 21.098 19.266 20.893 19.099 20.688 18.933 20.368 18.849 19.933 18.849H18.205V20.885ZM18.205 17.918H19.77C20.192 17.918 20.506 17.838 20.711 17.678 20.922 17.512 21.027 17.269 21.027 16.949 21.027 16.629 20.922 16.389 20.711 16.229 20.506 16.062 20.192 15.979 19.77 15.979H18.205V17.918Z" fill="black"/>
<path d="M10.364 21.816C10.153 21.816 9.99 21.762 9.875 21.653 9.766 21.537 9.712 21.374 9.712 21.163V15.701C9.712 15.489 9.766 15.33 9.875 15.221 9.99 15.105 10.153 15.048 10.364 15.048H12.227C13.36 15.048 14.233 15.339 14.848 15.921 15.468 16.504 15.779 17.339 15.779 18.427 15.779 18.971 15.699 19.454 15.539 19.877 15.385 20.293 15.155 20.645 14.848 20.933 14.547 21.221 14.176 21.441 13.734 21.595 13.299 21.742 12.796 21.816 12.227 21.816H10.364ZM10.94 20.798H12.15C12.547 20.798 12.889 20.75 13.177 20.654 13.472 20.552 13.715 20.405 13.907 20.213 14.105 20.014 14.252 19.768 14.348 19.473 14.444 19.173 14.492 18.824 14.492 18.427 14.492 17.634 14.297 17.041 13.907 16.651 13.516 16.261 12.931 16.065 12.15 16.065H10.94V20.798Z" fill="black"/>
<path d="M1.953 21.893C1.774 21.893 1.636 21.841 1.54 21.739 1.444 21.637 1.396 21.496 1.396 21.317V15.547C1.396 15.361 1.448 15.221 1.55 15.125 1.652 15.022 1.793 14.971 1.972 14.971 2.132 14.971 2.257 15.003 2.347 15.067 2.443 15.125 2.529 15.227 2.606 15.374L4.977 19.761H4.67L7.041 15.374C7.118 15.227 7.201 15.125 7.291 15.067 7.38 15.003 7.505 14.971 7.665 14.971 7.844 14.971 7.982 15.022 8.078 15.125 8.174 15.221 8.222 15.361 8.222 15.547V21.317C8.222 21.496 8.174 21.637 8.078 21.739 7.988 21.841 7.851 21.893 7.665 21.893 7.486 21.893 7.348 21.841 7.252 21.739 7.156 21.637 7.108 21.496 7.108 21.317V16.872H7.32L5.304 20.549C5.24 20.658 5.172 20.737 5.102 20.789 5.032 20.84 4.936 20.865 4.814 20.865 4.692 20.865 4.593 20.84 4.516 20.789 4.44 20.731 4.372 20.651 4.315 20.549L2.28 16.862H2.51V21.317C2.51 21.496 2.462 21.637 2.366 21.739 2.276 21.841 2.139 21.893 1.953 21.893Z" fill="black"/>
<path d="M14.024 9.359H19.095V11.189C19.095 11.52 19.363 11.789 19.695 11.789 20.026 11.789 20.295 11.52 20.295 11.189L20.294 8.759C20.294 8.668 20.274 8.581 20.238 8.504 20.154 8.325 19.984 8.195 19.782 8.165L19.756 8.162C19.893 8.178 20.025 8.241 20.118 8.334L14.449 2.665C14.409 2.625 14.364 2.591 14.314 2.564 14.261 2.534 14.202 2.513 14.142 2.501L14.024 2.489H4.304C3.93 2.489 3.571 2.637 3.307 2.902 3.043 3.166 2.895 3.525 2.895 3.899V11.189C2.895 11.52 3.163 11.789 3.495 11.789 3.826 11.789 4.095 11.52 4.095 11.189V3.899C4.095 3.843 4.116 3.789 4.155 3.75 4.195 3.711 4.249 3.689 4.304 3.689H13.424V8.759C13.424 9.09 13.693 9.359 14.024 9.359ZM18.246 8.159H14.624V4.537L18.246 8.159Z" fill="black"/>
</g>
<defs>
<clipPath id="clip0_548_10892">
<rect width="24" height="24" fill="white"/>
</clipPath>
</defs>
</svg>