<svg width="24" height="24" viewBox="0 0 24 24" fill="none" xmlns="http://www.w3.org/2000/svg">
<path d="M17.21 10.4485L12.7615 6H5.1355C4.96695 6 4.80531 6.06695 4.68613 6.18613C4.56695 6.30531 4.5 6.46695 4.5 6.6355V20.6165C4.5 20.785 4.56695 20.9466 4.68613 21.0658C4.80531 21.185 4.96695 21.252 5.1355 21.252H16.5745C16.743 21.252 16.9046 21.185 17.0238 21.0658C17.143 20.9466 17.21 20.785 17.21 20.6165V10.4485ZM12.7615 6V10.4485H17.21M8.94849 13.6377L12.7615 17.4507M12.7615 13.6377L8.94849 17.4507M7.5 6V3.75C7.5 3.55109 7.57902 3.36032 7.71967 3.21967C7.86032 3.07902 8.05109 3 8.25 3H15.75L19.5 6.75V17.25C19.5 17.4489 19.421 17.6397 19.2803 17.7803C19.1397 17.921 18.9489 18 18.75 18H17.3001" stroke="black" stroke-width="1.5" stroke-linecap="round" stroke-linejoin="round"/>
</svg>
