<svg width="24" height="24" viewBox="0 0 24 24" fill="none" xmlns="http://www.w3.org/2000/svg">
<path d="M7.5 11.75C7.5 11.3358 7.83579 11 8.25 11H9.75C10.1642 11 10.5 11.3358 10.5 11.75V12.25C10.5 12.6642 10.1642 13 9.75 13H8.25C7.83579 13 7.5 12.6642 7.5 12.25V11.75Z" fill="black"/>
<path d="M7.5 16.75C7.5 16.3358 7.83579 16 8.25 16H9.75C10.1642 16 10.5 16.3358 10.5 16.75V17.25C10.5 17.6642 10.1642 18 9.75 18H8.25C7.83579 18 7.5 17.6642 7.5 17.25V16.75Z" fill="black"/>
<path d="M5.25 3V3.75V3ZM14.25 3L14.7803 2.46967C14.6397 2.32902 14.4489 2.25 14.25 2.25V3ZM19.5 8.25H20.25C20.25 8.05109 20.171 7.86032 20.0303 7.71967L19.5 8.25ZM14.25 8.25H13.5C13.5 8.66421 13.8358 9 14.25 9V8.25ZM16.5 17.75C16.9142 17.75 17.25 17.4142 17.25 17C17.25 16.5858 16.9142 16.25 16.5 16.25V17V17.75ZM13.5 16.25C13.0858 16.25 12.75 16.5858 12.75 17C12.75 17.4142 13.0858 17.75 13.5 17.75V17V16.25ZM16.5 12.75C16.9142 12.75 17.25 12.4142 17.25 12C17.25 11.5858 16.9142 11.25 16.5 11.25V12V12.75ZM13.5 11.25C13.0858 11.25 12.75 11.5858 12.75 12C12.75 12.4142 13.0858 12.75 13.5 12.75V12V11.25ZM18.75 21V20.25H5.25V21V21.75H18.75V21ZM5.25 21V20.25H5.25L4.71967 20.7803L4.18934 21.3107C4.47065 21.592 4.85218 21.75 5.25 21.75V21ZM4.71967 20.7803L5.25 20.25H5.25H4.5H3.75C3.75 20.6478 3.90804 21.0294 4.18934 21.3107L4.71967 20.7803ZM4.5 20.25H5.25V3.75H4.5H3.75V20.25H4.5ZM4.5 3.75H5.25L5.25 3.75L4.71967 3.21967L4.18934 2.68934C3.90804 2.97064 3.75 3.35217 3.75 3.75H4.5ZM4.71967 3.21967L5.25 3.75L5.25 3.75V3V2.25C4.85217 2.25 4.47064 2.40804 4.18934 2.68934L4.71967 3.21967ZM5.25 3V3.75H14.25V3V2.25H5.25V3ZM14.25 3L13.7197 3.53033L18.9697 8.78033L19.5 8.25L20.0303 7.71967L14.7803 2.46967L14.25 3ZM19.5 8.25H18.75V20.25H19.5H20.25V8.25H19.5ZM19.5 20.25H18.75H18.75L19.2803 20.7803L19.8107 21.3107C20.092 21.0294 20.25 20.6478 20.25 20.25H19.5ZM19.2803 20.7803L18.75 20.25H18.75V21V21.75C19.1478 21.75 19.5294 21.592 19.8107 21.3107L19.2803 20.7803ZM14.25 3H13.5V8.25H14.25H15V3H14.25ZM14.25 8.25V9H19.5V8.25V7.5H14.25V8.25ZM16.5 17V16.25H13.5V17V17.75H16.5V17ZM16.5 12V11.25H13.5V12V12.75H16.5V12ZM8.25 11V11.75H9.75V11V10.25H8.25V11ZM10.5 11.75H9.75V12.25H10.5H11.25V11.75H10.5ZM9.75 13V12.25H8.25V13V13.75H9.75V13ZM7.5 12.25H8.25V11.75H7.5H6.75V12.25H7.5ZM8.25 13V12.25H7.5H6.75C6.75 13.0784 7.42157 13.75 8.25 13.75V13ZM10.5 12.25H9.75V13V13.75C10.5784 13.75 11.25 13.0784 11.25 12.25H10.5ZM9.75 11V11.75H10.5H11.25C11.25 10.9216 10.5784 10.25 9.75 10.25V11ZM8.25 11V10.25C7.42157 10.25 6.75 10.9216 6.75 11.75H7.5H8.25V11ZM8.25 16V16.75H9.75V16V15.25H8.25V16ZM10.5 16.75H9.75V17.25H10.5H11.25V16.75H10.5ZM9.75 18V17.25H8.25V18V18.75H9.75V18ZM7.5 17.25H8.25V16.75H7.5H6.75V17.25H7.5ZM8.25 18V17.25H7.5H6.75C6.75 18.0784 7.42157 18.75 8.25 18.75V18ZM10.5 17.25H9.75V18V18.75C10.5784 18.75 11.25 18.0784 11.25 17.25H10.5ZM9.75 16V16.75H10.5H11.25C11.25 15.9216 10.5784 15.25 9.75 15.25V16ZM8.25 16V15.25C7.42157 15.25 6.75 15.9216 6.75 16.75H7.5H8.25V16Z" fill="black"/>
</svg>
