<svg width="24" height="24" viewBox="0 0 24 24" fill="none" xmlns="http://www.w3.org/2000/svg">
<path d="M14.05 17.999H9M14.05 15.0069H9M19.5 8.25L14.25 3H5.25C5.05109 3 4.86032 3.07902 4.71967 3.21967C4.57902 3.36032 4.5 3.55109 4.5 3.75V20.25C4.5 20.4489 4.57902 20.6397 4.71967 20.7803C4.86032 20.921 5.05109 21 5.25 21H18.75C18.9489 21 19.1397 20.921 19.2803 20.7803C19.421 20.6397 19.5 20.4489 19.5 20.25V8.25ZM14.25 3V8.25H19.5M9.75996 10.5654H10.775C11.1892 10.5654 11.525 10.9011 11.525 11.3154C11.525 11.7296 11.1892 12.0654 10.775 12.0654H9.75996C9.34574 12.0654 9.00996 11.7296 9.00996 11.3154C9.00996 10.9011 9.34574 10.5654 9.75996 10.5654Z" stroke="black" stroke-width="1.5" stroke-linecap="round" stroke-linejoin="round"/>
</svg>
