<svg width="24" height="24" viewBox="0 0 24 24" fill="none" xmlns="http://www.w3.org/2000/svg">
<path d="M12.7406 14.4C12.7406 14.4 9.98156 13.6707 9.75937 15.4313C9.53718 17.1919 13.3622 16.38 13.1137 18.3113C12.8822 20.1075 10.1344 19.3425 10.1344 19.3425M4.5 10.5V3.75C4.5 3.55109 4.57902 3.36032 4.71967 3.21967C4.86032 3.07902 5.05109 3 5.25 3H14.25L19.5 8.25V20.25C19.5 20.4489 19.421 20.6397 19.2803 20.7803C19.1397 20.921 18.9489 21 18.75 21H16.5M19.5 8.25H14.25V3M7.5 14.25H3.75M5.625 14.25V19.5" stroke="black" stroke-width="1.5" stroke-linecap="round" stroke-linejoin="round"/>
</svg>
