<svg viewBox="0 0 24 24" fill="none" xmlns="http://www.w3.org/2000/svg" width="24" height="24">
<path d="M3.3 20.91V3.09C3.3 2.716 3.448 2.357 3.713 2.092 3.977 1.828 4.336 1.68 4.71 1.68H14.43L14.548 1.692C14.663 1.715 14.77 1.771 14.855 1.856L20.524 7.525C20.637 7.638 20.7 7.79 20.7 7.949V20.91C20.7 21.284 20.552 21.642 20.287 21.906 20.023 22.171 19.664 22.32 19.29 22.32H4.71C4.336 22.32 3.977 22.171 3.713 21.906 3.448 21.642 3.3 21.284 3.3 20.91ZM4.5 20.91C4.5 20.966 4.522 21.019 4.561 21.058 4.6 21.097 4.654 21.12 4.71 21.12H19.29C19.346 21.12 19.4 21.097 19.439 21.058 19.478 21.019 19.5 20.966 19.5 20.91V8.198L14.182 2.88H4.71C4.654 2.88 4.6 2.901 4.561 2.941 4.522 2.98 4.5 3.034 4.5 3.09V20.91Z" fill="black"/>
<path d="M13.83 2.28C13.83 1.949 14.099 1.68 14.43 1.68 14.762 1.68 15.03 1.949 15.03 2.28V7.349H20.1C20.431 7.349 20.7 7.618 20.7 7.949 20.7 8.281 20.431 8.549 20.1 8.549H14.43C14.099 8.549 13.83 8.281 13.83 7.949V2.28Z" fill="black"/>
<path d="M8.759 18.684C8.427 18.684 8.159 18.415 8.159 18.084 8.159 17.753 8.427 17.484 8.759 17.484H15.239C15.57 17.484 15.839 17.753 15.839 18.084 15.839 18.415 15.57 18.684 15.239 18.684H8.759Z" fill="black"/>
<path d="M8.759 15.24C8.427 15.24 8.159 14.971 8.159 14.64 8.159 14.309 8.427 14.04 8.759 14.04L15.239 14.04C15.57 14.04 15.839 14.309 15.839 14.64 15.839 14.971 15.57 15.24 15.239 15.24L8.759 15.24Z" fill="black"/>
<path d="M15.839 10.896C15.839 11.393 15.436 11.796 14.939 11.796H9.059C8.562 11.796 8.159 11.393 8.159 10.896V10.296C8.159 9.799 8.562 9.396 9.059 9.396L14.939 9.396C15.436 9.396 15.839 9.799 15.839 10.296V10.896Z" fill="black"/>
</svg>