<svg xmlns="http://www.w3.org/2000/svg" width="24" height="24" fill="currentColor" viewBox="0 0 24 24"><path d="M4.306 13.823h-1.62a0.607 0.607 0 0 0-0.608 0.607v5.67a0.607 0.607 0 0 0 0.608 0.607h1.62a3.443 3.443 0 0 0 0-6.885z m0 5.67h-1.013v-4.456h1.013a2.228 2.228 0 0 1 0 4.456m17.025-0.553a0.607 0.607 0 0 1 0.018 0.858 2.844 2.844 0 0 1-2.058 0.909c-1.675 0-3.037-1.544-3.037-3.443s1.363-3.443 3.037-3.442a2.844 2.844 0 0 1 2.058 0.91 0.607 0.607 0 0 1-0.877 0.84 1.644 1.644 0 0 0-1.182-0.536c-1.006 0-1.823 1-1.823 2.227s0.817 2.227 1.823 2.227a1.644 1.644 0 0 0 1.182-0.534 0.607 0.607 0 0 1 0.859-0.018z m-9.33-5.117c-1.675 0-3.037 1.544-3.037 3.443s1.363 3.443 3.037 3.442 3.037-1.544 3.037-3.442-1.363-3.443-3.037-3.443m0 5.67c-1.006 0-1.823-1-1.823-2.227s0.817-2.227 1.823-2.228 1.823 1 1.823 2.228-0.817 2.227-1.823 2.227m-8.1-8.506a0.607 0.607 0 0 0 0.607-0.607V3.09a0.204 0.204 0 0 1 0.203-0.203h9.113v5.063a0.607 0.607 0 0 0 0.607 0.607h5.063v1.823a0.607 0.607 0 0 0 1.214 0V7.95a0.6 0.6 0 0 0-0.177-0.43l-5.67-5.67a0.6 0.6 0 0 0-0.43-0.177h-9.72a1.416 1.416 0 0 0-1.417 1.417v7.29a0.607 0.607 0 0 0 0.607 0.607m11.137-7.242l3.597 3.597h-3.597z"/></svg>