<svg xmlns="http://www.w3.org/2000/svg" width="24" height="24" fill="currentColor" viewBox="0 0 24 24"><path d="M20.53 7.52l-5.67-5.67a0.6 0.6 0 0 0-0.43-0.177h-9.72a1.416 1.416 0 0 0-1.417 1.417v7.29a0.608 0.608 0 0 0 1.215 0V3.09a0.204 0.204 0 0 1 0.203-0.203h9.113v5.063a0.607 0.607 0 0 0 0.607 0.607h5.063v12.353a0.204 0.204 0 0 1-0.203 0.203h-0.81a0.607 0.607 0 0 0 0 1.214h0.81a1.416 1.416 0 0 0 1.417-1.417v-12.96a0.6 0.6 0 0 0-0.177-0.43z m-5.493-3.775l3.597 3.597h-3.597z m-0.313 10.152a0.6 0.6 0 0 0-0.617 0.017l-2.31 1.444v-0.119a1.416 1.416 0 0 0-1.417-1.417h-6.48a1.416 1.416 0 0 0-1.417 1.417v4.86A1.416 1.416 0 0 0 3.9 21.516h6.48a1.416 1.416 0 0 0 1.417-1.417v-0.119l2.31 1.444a0.607 0.607 0 0 0 0.93-0.515v-6.48a0.6 0.6 0 0 0-0.313-0.532m-4.142 6.202a0.204 0.204 0 0 1-0.203 0.203h-6.48a0.204 0.204 0 0 1-0.203-0.203v-4.86a0.204 0.204 0 0 1 0.203-0.203h6.48a0.204 0.204 0 0 1 0.203 0.203z m3.24-0.287l-2.026-1.266v-1.756l2.026-1.266z"/></svg>