<svg xmlns="http://www.w3.org/2000/svg" width="24" height="24" fill="currentColor" viewBox="0 0 24 24"><path d="M20.53 7.52l-5.67-5.67a0.6 0.6 0 0 0-0.43-0.177h-9.72a1.416 1.416 0 0 0-1.417 1.417v17.82a1.416 1.416 0 0 0 1.417 1.417h14.58a1.416 1.416 0 0 0 1.417-1.417v-12.96a0.6 0.6 0 0 0-0.177-0.43m-5.493-3.775l3.597 3.597h-3.597z m4.253 17.367H4.71a0.204 0.204 0 0 1-0.203-0.203V3.089a0.204 0.204 0 0 1 0.203-0.203h9.113v5.063a0.607 0.607 0 0 0 0.607 0.607h5.063v12.353a0.204 0.204 0 0 1-0.203 0.203m-4.253-6.683a0.607 0.607 0 0 1-0.607 0.607h-1.823v1.823a0.608 0.608 0 0 1-1.215 0V15.036H9.569a0.607 0.607 0 0 1 0-1.214h1.823v-1.823a0.608 0.608 0 0 1 1.215 0v1.823h1.823a0.607 0.607 0 0 1 0.607 0.607"/></svg>