<svg xmlns="http://www.w3.org/2000/svg" width="24" height="24" fill="currentColor" viewBox="0 0 24 24"><path d="M21.517 14.43a0.607 0.607 0 0 1-0.607 0.607h-1.417v5.063a0.607 0.607 0 0 1-1.215 0v-5.063h-1.417a0.607 0.607 0 0 1 0-1.214h4.05a0.607 0.607 0 0 1 0.607 0.607zM8.152 16.456a2.633 2.633 0 0 1-2.633 2.632h-1.013v1.013a0.608 0.608 0 0 1-1.216 0v-5.67a0.607 0.607 0 0 1 0.608-0.607h1.62a2.633 2.633 0 0 1 2.632 2.633z m-1.216 0a1.416 1.416 0 0 0-1.417-1.418h-1.013v2.836h1.013a1.416 1.416 0 0 0 1.417-1.417z m8.1 0a2.633 2.633 0 0 1-2.633 2.632h-1.013v1.013a0.608 0.608 0 0 1-1.215 0v-5.67a0.607 0.607 0 0 1 0.607-0.607h1.62a2.633 2.633 0 0 1 2.633 2.633z m-1.214 0a1.416 1.416 0 0 0-1.418-1.418h-1.012v2.836h1.012a1.416 1.416 0 0 0 1.418-1.417zM3.292 10.38V3.09a1.416 1.416 0 0 1 1.417-1.417h9.72a0.6 0.6 0 0 1 0.431 0.177l5.67 5.67a0.6 0.6 0 0 1 0.177 0.43v2.43a0.607 0.607 0 0 1-1.214 0V8.557h-5.063a0.607 0.607 0 0 1-0.607-0.607V2.887H4.71a0.204 0.204 0 0 0-0.203 0.203v7.29a0.608 0.608 0 0 1-1.215 0m11.745-3.037h3.597l-3.597-3.597z"/></svg>