<svg width="24" height="24" viewBox="0 0 24 24" fill="none" xmlns="http://www.w3.org/2000/svg">
<g clip-path="url(#clip0_548_10892)">
<path d="M16.7308 20.1799C16.5548 20.1799 16.4188 20.1346 16.3228 20.0439C16.2321 19.9479 16.1868 19.8119 16.1868 19.6359V15.0839C16.1868 14.9079 16.2321 14.7746 16.3228 14.6839C16.4188 14.5879 16.5548 14.5399 16.7308 14.5399H18.6508C19.0455 14.5399 19.3815 14.5986 19.6588 14.7159C19.9361 14.8332 20.1468 15.0012 20.2908 15.2199C20.4401 15.4386 20.5148 15.6999 20.5148 16.0039C20.5148 16.3452 20.4161 16.6332 20.2188 16.8679C20.0215 17.1026 19.7521 17.2599 19.4108 17.3399V17.2199C19.8055 17.2786 20.1121 17.4279 20.3308 17.6679C20.5495 17.9079 20.6588 18.2199 20.6588 18.6039C20.6588 19.1052 20.4881 19.4946 20.1468 19.7719C19.8108 20.0439 19.3415 20.1799 18.7388 20.1799H16.7308ZM17.1708 19.4039H18.6108C18.9735 19.4039 19.2401 19.3346 19.4108 19.1959C19.5815 19.0519 19.6668 18.8386 19.6668 18.5559C19.6668 18.2679 19.5815 18.0546 19.4108 17.9159C19.2401 17.7772 18.9735 17.7079 18.6108 17.7079H17.1708V19.4039ZM17.1708 16.9319H18.4748C18.8268 16.9319 19.0881 16.8652 19.2588 16.7319C19.4348 16.5932 19.5228 16.3906 19.5228 16.1239C19.5228 15.8572 19.4348 15.6572 19.2588 15.5239C19.0881 15.3852 18.8268 15.3159 18.4748 15.3159H17.1708V16.9319Z" fill="black"/>
<path d="M10.637 20.1799C10.461 20.1799 10.325 20.1346 10.229 20.0439C10.1384 19.9479 10.093 19.8119 10.093 19.6359V15.0839C10.093 14.9079 10.1384 14.7746 10.229 14.6839C10.325 14.5879 10.461 14.5399 10.637 14.5399H12.189C13.133 14.5399 13.861 14.7826 14.373 15.2679C14.8904 15.7532 15.149 16.4492 15.149 17.3559C15.149 17.8092 15.0824 18.2119 14.949 18.5639C14.821 18.9106 14.629 19.2039 14.373 19.4439C14.1224 19.6839 13.813 19.8679 13.445 19.9959C13.0824 20.1186 12.6637 20.1799 12.189 20.1799H10.637ZM11.117 19.3319H12.125C12.4557 19.3319 12.741 19.2919 12.981 19.2119C13.2264 19.1266 13.429 19.0039 13.589 18.8439C13.7544 18.6786 13.877 18.4732 13.957 18.2279C14.037 17.9772 14.077 17.6866 14.077 17.3559C14.077 16.6946 13.9144 16.2012 13.589 15.8759C13.2637 15.5506 12.7757 15.3879 12.125 15.3879H11.117V19.3319Z" fill="black"/>
<path d="M3.62772 20.2439C3.47839 20.2439 3.36372 20.2012 3.28372 20.1159C3.20372 20.0306 3.16372 19.9132 3.16372 19.7639V14.9559C3.16372 14.8012 3.20639 14.6839 3.29172 14.6039C3.37706 14.5186 3.49439 14.4759 3.64372 14.4759C3.77706 14.4759 3.88106 14.5026 3.95572 14.5559C4.03572 14.6039 4.10772 14.6892 4.17172 14.8119L6.14772 18.4679H5.89172L7.86772 14.8119C7.93172 14.6892 8.00106 14.6039 8.07572 14.5559C8.15039 14.5026 8.25439 14.4759 8.38772 14.4759C8.53706 14.4759 8.65172 14.5186 8.73172 14.6039C8.81172 14.6839 8.85172 14.8012 8.85172 14.9559V19.7639C8.85172 19.9132 8.81172 20.0306 8.73172 20.1159C8.65706 20.2012 8.54239 20.2439 8.38772 20.2439C8.23839 20.2439 8.12372 20.2012 8.04372 20.1159C7.96372 20.0306 7.92372 19.9132 7.92372 19.7639V16.0599H8.09972L6.41972 19.1239C6.36639 19.2146 6.31039 19.2812 6.25172 19.3239C6.19306 19.3666 6.11306 19.3879 6.01172 19.3879C5.91039 19.3879 5.82772 19.3666 5.76372 19.3239C5.69972 19.2759 5.64372 19.2092 5.59572 19.1239L3.89972 16.0519H4.09172V19.7639C4.09172 19.9132 4.05172 20.0306 3.97172 20.1159C3.89706 20.2012 3.78239 20.2439 3.62772 20.2439Z" fill="black"/>
<path d="M13.687 9.79883H17.9121V11.3242C17.9121 11.6004 18.136 11.8242 18.4121 11.8242C18.6883 11.8242 18.9121 11.6004 18.9121 11.3242L18.9116 9.29883C18.9116 9.22296 18.8949 9.15086 18.8646 9.08642C18.7946 8.93777 18.6535 8.82907 18.4852 8.80422L18.4635 8.80147C18.5773 8.81507 18.6879 8.8677 18.765 8.94464L14.041 4.2207C14.0075 4.18717 13.9696 4.1589 13.9287 4.13642C13.8839 4.11175 13.8354 4.09404 13.7852 4.08398L13.687 4.07422H5.58691C5.27535 4.07427 4.97617 4.19766 4.75586 4.41797C4.53555 4.63828 4.41216 4.93746 4.41211 5.24902V11.3242C4.41211 11.6004 4.63597 11.8242 4.91211 11.8242C5.18825 11.8242 5.41211 11.6004 5.41211 11.3242V5.24902C5.41216 5.20268 5.43012 5.15777 5.46289 5.125C5.49566 5.09223 5.54057 5.07427 5.58691 5.07422H13.187V9.29883C13.187 9.57497 13.4109 9.79883 13.687 9.79883ZM17.2051 8.79883H14.187V5.78076L17.2051 8.79883Z" fill="black"/>
</g>
<defs>
<clipPath id="clip0_548_10892">
<rect width="24" height="24" fill="white"/>
</clipPath>
</defs>
</svg>
