<svg viewBox="0 0 24 24" fill="none" xmlns="http://www.w3.org/2000/svg" width="24" height="24">
<path d="M3.3 20.91V3.09C3.3 2.716 3.448 2.357 3.713 2.092 3.977 1.828 4.336 1.68 4.71 1.68H14.057C14.454 1.68 14.837 1.838 15.118 2.119L20.261 7.262C20.542 7.543 20.7 7.925 20.7 8.323V20.91C20.7 21.284 20.552 21.642 20.287 21.906 20.023 22.171 19.664 22.32 19.29 22.32H4.71C4.336 22.32 3.977 22.171 3.713 21.906 3.448 21.642 3.3 21.284 3.3 20.91ZM4.5 20.91C4.5 20.966 4.522 21.019 4.561 21.058 4.6 21.097 4.654 21.12 4.71 21.12H19.29C19.346 21.12 19.4 21.097 19.439 21.058 19.478 21.019 19.5 20.966 19.5 20.91V8.323C19.5 8.244 19.468 8.166 19.412 8.11L14.27 2.968C14.214 2.912 14.136 2.88 14.057 2.88H4.71C4.654 2.88 4.6 2.901 4.561 2.941 4.522 2.98 4.5 3.034 4.5 3.09V20.91Z" fill="black"/>
<path d="M13.83 7.049V2.28C13.83 1.949 14.099 1.68 14.43 1.68 14.761 1.68 15.03 1.949 15.03 2.28V7.049C15.03 7.215 15.164 7.349 15.33 7.349H20.099C20.431 7.349 20.699 7.618 20.699 7.949 20.699 8.281 20.431 8.549 20.099 8.549H15.33C14.501 8.549 13.83 7.878 13.83 7.049Z" fill="black"/>
<path d="M15.24 15.6C15.572 15.6 15.84 15.869 15.84 16.2 15.84 16.531 15.572 16.8 15.24 16.8H8.76C8.429 16.8 8.16 16.531 8.16 16.2 8.16 15.869 8.429 15.6 8.76 15.6H15.24Z" fill="black"/>
<path d="M15.24 18.001C15.572 18.001 15.84 18.27 15.84 18.601 15.84 18.932 15.572 19.201 15.24 19.201H8.76C8.429 19.201 8.16 18.933 8.16 18.601 8.16 18.27 8.429 18.001 8.76 18.001H15.24Z" fill="black"/>
<path fill-rule="evenodd" clip-rule="evenodd" d="M12.986 8.654C12.904 8.625 12.812 8.637 12.74 8.687 12.669 8.738 12.627 8.82 12.627 8.908V10.924C12.627 11.021 12.678 11.109 12.762 11.157L14.508 12.166C14.584 12.21 14.677 12.214 14.757 12.177 14.836 12.141 14.893 12.067 14.909 11.981 15.037 11.289 14.914 10.572 14.562 9.963 14.209 9.353 13.65 8.888 12.986 8.654Z" fill="black"/>
<path fill-rule="evenodd" clip-rule="evenodd" d="M12 8.484C11.482 8.484 10.972 8.621 10.523 8.879 10.075 9.138 9.701 9.51 9.441 9.958 9.181 10.407 9.043 10.916 9.042 11.434 9.04 11.952 9.176 12.462 9.433 12.911 9.69 13.361 10.061 13.735 10.509 13.997 10.956 14.258 11.465 14.397 11.983 14.401 12.501 14.404 13.012 14.271 13.463 14.015 13.913 13.758 14.289 13.388 14.551 12.941 14.587 12.879 14.598 12.805 14.58 12.736 14.562 12.667 14.516 12.607 14.454 12.571L12.27 11.298V8.754C12.27 8.682 12.241 8.613 12.191 8.563 12.14 8.512 12.072 8.484 12 8.484Z" fill="black"/>
</svg>