<svg xmlns="http://www.w3.org/2000/svg" width="24" height="24" fill="currentColor" viewBox="0 0 24 24"><path d="M14.633 20.1a0.607 0.607 0 0 1-0.607 0.607h-2.836a0.607 0.607 0 0 1-0.607-0.607v-5.67a0.608 0.608 0 1 1 1.215 0v5.063h2.228a0.607 0.607 0 0 1 0.607 0.607m-6.33-6.166a0.607 0.607 0 0 0-0.846 0.141l-1.531 2.143-1.532-2.143a0.608 0.608 0 1 0-0.988 0.709l1.772 2.48-1.772 2.481a0.608 0.608 0 1 0 0.988 0.709l1.532-2.146 1.531 2.142a0.6 0.6 0 0 0 0.494 0.256 0.6 0.6 0 0 0 0.353-0.114 0.607 0.607 0 0 0 0.142-0.847l-1.773-2.482 1.773-2.481a0.607 0.607 0 0 0-0.142-0.849z m10.076 2.644c-1.098-0.317-1.357-0.475-1.316-0.8a0.672 0.672 0 0 1 0.291-0.515c0.568-0.384 1.787-0.185 2.171-0.085a0.607 0.607 0 0 0 0.311-1.175c-0.203-0.055-2.035-0.506-3.16 0.251a1.884 1.884 0 0 0-0.818 1.37c-0.182 1.436 1.241 1.848 2.184 2.12 1.228 0.354 1.495 0.54 1.438 0.988a0.696 0.696 0 0 1-0.304 0.541c-0.568 0.378-1.77 0.166-2.146 0.063a0.607 0.607 0 0 0-0.325 1.167 6 6 0 0 0 1.487 0.203c0.556 0 1.169-0.096 1.656-0.419a1.92 1.92 0 0 0 0.841-1.398c0.204-1.585-1.307-2.022-2.31-2.311M3.293 10.38V3.09a1.416 1.416 0 0 1 1.417-1.417h9.72a0.6 0.6 0 0 1 0.43 0.177l5.67 5.67a0.6 0.6 0 0 1 0.177 0.43v2.43a0.607 0.607 0 1 1-1.214 0V8.557h-5.063a0.607 0.607 0 0 1-0.607-0.607V2.887H4.71a0.204 0.204 0 0 0-0.203 0.203v7.29a0.608 0.608 0 1 1-1.215 0z m11.745-3.037h3.594l-3.594-3.597z"/></svg>