<svg xmlns="http://www.w3.org/2000/svg" width="24" height="24" fill="currentColor" viewBox="0 0 24 24"><path d="M22.202 4.136a1.392 1.392 0 0 0-1.292-0.844H3.09a1.417 1.417 0 0 0-1.046 2.371l0.006 0.007 6.912 7.38v7.859a1.417 1.417 0 0 0 2.204 1.178l3.24-2.16a1.416 1.416 0 0 0 0.631-1.179v-5.699l6.918-7.391a1.404 1.404 0 0 0 0.247-1.523z m-1.14 0.704l-7.076 7.555a0.6 0.6 0 0 0-0.164 0.415v5.939a0.204 0.204 0 0 1-0.09 0.169l-3.24 2.16a0.203 0.203 0 0 1-0.315-0.168v-8.1a0.6 0.6 0 0 0-0.164-0.415L2.94 4.843a0.203 0.203 0 0 1 0.149-0.336h17.82a0.192 0.192 0 0 1 0.185 0.12 0.192 0.192 0 0 1-0.033 0.211z"/></svg>