<svg width="24" height="24" viewBox="0 0 24 24" fill="none" xmlns="http://www.w3.org/2000/svg">
<path d="M18 15.75L22.5 20.25M22.5 15.75L18 20.25M3.19688 5.75437C3.09929 5.64697 3.03495 5.51357 3.01167 5.37033C2.98839 5.22709 3.00716 5.08018 3.06571 4.94739C3.12426 4.81461 3.22008 4.70167 3.34154 4.62226C3.463 4.54284 3.60489 4.50038 3.75001 4.5H20.25C20.3953 4.50001 20.5374 4.54222 20.6592 4.62149C20.7809 4.70076 20.877 4.81368 20.9358 4.94654C20.9946 5.07939 21.0135 5.22646 20.9903 5.36987C20.9671 5.51328 20.9027 5.64686 20.805 5.75437L14.25 12.75V18.2484C14.2501 18.3719 14.2197 18.4936 14.1614 18.6025C14.1032 18.7114 14.019 18.8043 13.9163 18.8728L10.9163 20.8725C10.8034 20.9478 10.6723 20.9911 10.5368 20.9977C10.4013 21.0044 10.2665 20.9741 10.1468 20.9103C10.0272 20.8464 9.92706 20.7512 9.85718 20.635C9.7873 20.5187 9.75026 20.3857 9.75001 20.25V12.75L3.19688 5.75437Z" stroke="black" stroke-width="1.5" stroke-linecap="round" stroke-linejoin="round"/>
</svg>
