<svg viewBox="0 0 24 24" fill="none" xmlns="http://www.w3.org/2000/svg" width="24" height="24">
<path d="M20.238 2.036C20.511 2.036 20.778 2.116 21.007 2.265 21.236 2.414 21.417 2.626 21.527 2.875 21.638 3.125 21.673 3.401 21.629 3.671 21.586 3.94 21.465 4.192 21.281 4.394L21.275 4.401 14.358 11.783V17.484C14.358 17.716 14.301 17.945 14.191 18.149 14.109 18.303 14 18.44 13.869 18.552L13.731 18.658 10.491 20.818C10.278 20.959 10.032 21.041 9.777 21.053 9.522 21.066 9.269 21.008 9.044 20.888 8.82 20.768 8.631 20.59 8.5 20.371 8.368 20.153 8.298 19.902 8.298 19.647V11.783L1.383 4.401 1.377 4.394C1.193 4.192 1.073 3.941 1.029 3.672 0.985 3.403 1.02 3.127 1.13 2.878 1.24 2.628 1.42 2.415 1.649 2.266 1.877 2.117 2.144 2.037 2.416 2.036H20.238ZM2.36 3.246C2.341 3.251 2.322 3.259 2.305 3.27 2.271 3.292 2.244 3.324 2.228 3.362 2.211 3.399 2.206 3.44 2.212 3.48 2.219 3.52 2.238 3.558 2.265 3.588L9.336 11.136C9.44 11.247 9.498 11.394 9.498 11.546V19.645C9.498 19.683 9.509 19.72 9.528 19.752 9.548 19.785 9.576 19.812 9.609 19.83 9.643 19.848 9.68 19.856 9.718 19.854 9.756 19.853 9.793 19.84 9.825 19.819L13.064 17.66C13.093 17.64 13.117 17.614 13.133 17.583 13.149 17.553 13.158 17.519 13.158 17.485V11.546C13.158 11.394 13.216 11.247 13.321 11.136L20.393 3.588C20.42 3.558 20.439 3.52 20.446 3.48 20.452 3.44 20.447 3.399 20.43 3.362 20.414 3.324 20.387 3.292 20.353 3.27 20.319 3.248 20.279 3.236 20.238 3.236H2.42L2.36 3.246Z" fill="black"/>
<path d="M19.358 15.289C19.694 15.289 19.965 15.561 19.965 15.896V17.725H21.782C22.117 17.725 22.39 17.997 22.39 18.332 22.39 18.668 22.117 18.939 21.782 18.939H19.965V20.756C19.965 21.091 19.694 21.364 19.358 21.364 19.023 21.364 18.751 21.091 18.751 20.756V18.939H16.922C16.586 18.939 16.315 18.668 16.315 18.332 16.315 17.997 16.586 17.725 16.922 17.725H18.751V15.896C18.751 15.561 19.023 15.289 19.358 15.289Z" fill="black"/>
</svg>