<svg width="24" height="24" viewBox="0 0 24 24" fill="none" xmlns="http://www.w3.org/2000/svg">
<path d="M12 11.25V14.25M6 6H18M6.75 2.25H17.25C17.4489 2.25 17.6397 2.32902 17.7803 2.46967C17.921 2.61032 18 2.80109 18 3V7.24969C18 7.41197 17.9474 7.56986 17.85 7.69969L15.9 10.3003C15.8026 10.4301 15.75 10.588 15.75 10.7503V21C15.75 21.1989 15.671 21.3897 15.5303 21.5303C15.3897 21.671 15.1989 21.75 15 21.75H9C8.80109 21.75 8.61032 21.671 8.46967 21.5303C8.32902 21.3897 8.25 21.1989 8.25 21V10.7503C8.25 10.588 8.19737 10.4301 8.1 10.3003L6.15 7.69969C6.05263 7.56986 6 7.41197 6 7.24969V3C6 2.80109 6.07902 2.61032 6.21967 2.46967C6.36032 2.32902 6.55109 2.25 6.75 2.25Z" stroke="black" stroke-width="1.5" stroke-linecap="round" stroke-linejoin="round"/>
</svg>
