<svg xmlns="http://www.w3.org/2000/svg" width="24" height="24" fill="currentColor" viewBox="0 0 24 24"><path d="M9.852 1.702a1.404 1.404 0 0 0-1.588 0.836s0 0.008 0 0.012l-6.48 16.194a1.416 1.416 0 0 0 1.306 1.963h6.48a1.416 1.416 0 0 0 1.417-1.417v-16.2a1.404 1.404 0 0 0-1.136-1.388z m-0.079 17.588a0.204 0.204 0 0 1-0.203 0.203h-6.48a0.204 0.204 0 0 1-0.187-0.282L2.908 19.2l6.48-16.192a0.203 0.203 0 0 1 0.385 0.082z m12.445-0.546l-6.48-16.194v-0.012a1.417 1.417 0 0 0-2.725 0.552v16.2a1.416 1.416 0 0 0 1.417 1.417h6.48a1.416 1.416 0 0 0 1.309-1.963z m-1.14 0.658a0.192 0.192 0 0 1-0.169 0.091h-6.479a0.204 0.204 0 0 1-0.203-0.203v-16.2a0.185 0.185 0 0 1 0.162-0.203 0.24 0.24 0 0 1 0.055-0.006 0.18 0.18 0 0 1 0.172 0.121l6.48 16.192 0.005 0.011a0.204 0.204 0 0 1-0.023 0.195z"/></svg>