<svg xmlns="http://www.w3.org/2000/svg" width="24" height="24" fill="currentColor" viewBox="0 0 24 24"><path d="M23.681 10.361a1.416 1.416 0 0 0-1.151-0.588h-1.823V7.95a1.416 1.416 0 0 0-1.417-1.417h-7.087L9.342 4.386a1.44 1.44 0 0 0-0.851-0.283H3.09A1.416 1.416 0 0 0 1.673 5.52v14.58a0.607 0.607 0 0 0 0.607 0.607h18.134a0.612 0.612 0 0 0 0.576-0.415l2.885-8.654a1.416 1.416 0 0 0-0.194-1.278zM3.09 5.317h5.401a0.204 0.204 0 0 1 0.121 0.041l3.023 2.268a0.6 0.6 0 0 0 0.365 0.121h7.29a0.204 0.204 0 0 1 0.203 0.203v1.823H6.104a1.416 1.416 0 0 0-1.344 0.968l-1.872 5.613V5.52a0.204 0.204 0 0 1 0.203-0.203z m19.632 5.937l-2.746 8.239H3.124l2.788-8.367a0.204 0.204 0 0 1 0.192-0.139h16.426a0.204 0.204 0 0 1 0.192 0.267"/></svg>