<svg viewBox="0 0 24 24" fill="none" xmlns="http://www.w3.org/2000/svg" width="24" height="24">
<path d="M12.02 10.165C12.041 10.166 12.061 10.168 12.082 10.171 12.097 10.173 12.111 10.176 12.125 10.179 12.144 10.184 12.161 10.19 12.179 10.196 12.193 10.201 12.206 10.205 12.219 10.211 12.278 10.237 12.334 10.274 12.382 10.323L14.569 12.509C14.779 12.72 14.779 13.062 14.569 13.273 14.358 13.484 14.017 13.484 13.806 13.273L12.54 12.008V16.537C12.54 16.835 12.298 17.076 12 17.076 11.702 17.076 11.46 16.835 11.46 16.537V12.008L10.195 13.273C9.984 13.484 9.642 13.484 9.431 13.273 9.22 13.062 9.22 12.72 9.431 12.509L11.618 10.323C11.643 10.297 11.671 10.273 11.701 10.253 11.727 10.236 11.757 10.22 11.785 10.208 11.797 10.203 11.81 10.2 11.822 10.196 11.841 10.189 11.86 10.182 11.879 10.177 11.892 10.174 11.906 10.173 11.919 10.171 11.94 10.168 11.962 10.166 11.983 10.165 11.989 10.165 11.994 10.164 12 10.164 12.007 10.164 12.013 10.165 12.02 10.165Z" fill="black"/>
<path fill-rule="evenodd" clip-rule="evenodd" d="M10.534 6.533H2.887V4.71C2.887 4.656 2.909 4.605 2.947 4.567 2.985 4.529 3.036 4.507 3.09 4.507H8.424C8.478 4.507 8.529 4.529 8.567 4.567L10.534 6.533ZM1.673 7.14V19.354C1.674 19.713 1.817 20.057 2.07 20.311 2.324 20.564 2.667 20.707 3.025 20.708H20.999C21.351 20.708 21.689 20.568 21.938 20.319 22.187 20.07 22.327 19.732 22.327 19.38V7.95C22.327 7.574 22.178 7.214 21.912 6.948 21.647 6.682 21.286 6.533 20.91 6.533H12.252L9.426 3.707C9.194 3.475 8.889 3.332 8.565 3.3L8.425 3.293H3.09C2.714 3.293 2.353 3.442 2.088 3.708 1.822 3.974 1.673 4.334 1.673 4.71V7.14ZM12.011 7.747H11.989 2.887V19.351C2.887 19.388 2.903 19.424 2.929 19.45 2.956 19.477 2.991 19.493 3.029 19.493H20.999C21.029 19.493 21.058 19.481 21.079 19.46 21.1 19.439 21.112 19.41 21.112 19.38V7.95C21.112 7.896 21.091 7.845 21.053 7.807 21.015 7.769 20.964 7.747 20.91 7.747H12.011Z" fill="black"/>
</svg>