<svg xmlns="http://www.w3.org/2000/svg" width="24" height="24" fill="currentColor" viewBox="0 0 24 24"><path d="M20.91 6.533H12.252L9.427 3.708a1.416 1.416 0 0 0-1.002-0.415H3.09a1.416 1.416 0 0 0-1.417 1.417v14.642a1.356 1.356 0 0 0 1.355 1.355H21a1.328 1.328 0 0 0 1.327-1.327V7.95a1.416 1.416 0 0 0-1.417-1.417M3.09 4.507h5.335a0.204 0.204 0 0 1 0.143 0.06l1.966 1.966H2.888V4.71a0.204 0.204 0 0 1 0.203-0.203zM21.113 19.38a0.113 0.113 0 0 1-0.113 0.113H3.028a0.144 0.144 0 0 1-0.14-0.139V7.748h18.023a0.204 0.204 0 0 1 0.203 0.203z m-6.076-5.76a0.607 0.607 0 0 1-0.607 0.607h-1.823v1.823a0.608 0.608 0 0 1-1.215 0v-1.823H9.569a0.607 0.607 0 0 1 0-1.214h1.823v-1.823a0.608 0.608 0 0 1 1.215 0v1.823h1.823a0.607 0.607 0 0 1 0.607 0.607"/></svg>