<svg viewBox="0 0 24 24" fill="none" xmlns="http://www.w3.org/2000/svg" width="24" height="24">
<path d="M19.806 10.171C20.141 10.171 20.413 10.443 20.413 10.779V12.608H22.229C22.565 12.608 22.838 12.879 22.838 13.215 22.838 13.55 22.565 13.822 22.229 13.822H20.413V15.638C20.413 15.974 20.142 16.246 19.806 16.246 19.47 16.246 19.199 15.974 19.199 15.638V13.822H17.37C17.034 13.822 16.763 13.55 16.763 13.215 16.763 12.879 17.034 12.608 17.37 12.608H19.199V10.779C19.199 10.443 19.471 10.171 19.806 10.171Z" fill="black"/>
<path d="M2.616 19.93C2.428 19.93 2.277 19.887 2.162 19.8 2.061 19.728 2.004 19.62 1.989 19.476 1.989 19.332 2.025 19.174 2.097 19.001L8.167 5.047C8.268 4.831 8.39 4.68 8.534 4.594 8.678 4.493 8.822 4.443 8.966 4.443 9.139 4.443 9.29 4.493 9.42 4.594 9.564 4.68 9.679 4.831 9.765 5.047L15.835 19.001C15.921 19.174 15.957 19.332 15.943 19.476 15.943 19.62 15.892 19.728 15.792 19.8 15.705 19.887 15.568 19.93 15.381 19.93 15.18 19.93 15.014 19.879 14.884 19.779 14.769 19.663 14.668 19.512 14.582 19.325L12.919 15.415 13.632 15.739H4.279L5.013 15.415 3.35 19.325C3.264 19.541 3.156 19.699 3.026 19.8 2.911 19.887 2.774 19.93 2.616 19.93ZM8.944 6.214L5.272 14.854 4.776 14.595H13.135L12.681 14.854 8.988 6.214H8.944Z" fill="black"/>
</svg>