<svg viewBox="0 0 24 24" fill="none" xmlns="http://www.w3.org/2000/svg" width="24" height="24">
<path d="M7.296 19.29V4.71C7.296 4.378 7.565 4.11 7.896 4.11 8.227 4.11 8.496 4.378 8.496 4.71V19.29C8.496 19.621 8.227 19.89 7.896 19.89 7.565 19.89 7.296 19.621 7.296 19.29Z" fill="black"/>
<path d="M14.586 7.95V5.31H1.206V7.95C1.206 8.281 0.937 8.55 0.606 8.55 0.275 8.55 0.006 8.281 0.006 7.95V4.71C0.006 4.378 0.274 4.11 0.606 4.11H15.186C15.517 4.11 15.786 4.379 15.786 4.71V7.95C15.786 8.281 15.517 8.55 15.186 8.55 14.855 8.55 14.586 8.281 14.586 7.95Z" fill="black"/>
<path d="M11.136 18.69C11.467 18.69 11.736 18.959 11.736 19.29 11.736 19.621 11.467 19.89 11.136 19.89H4.656C4.324 19.89 4.056 19.622 4.056 19.29 4.056 18.959 4.324 18.69 4.656 18.69H11.136Z" fill="black"/>
<path d="M18.278 19.289V11.999C18.278 11.667 18.547 11.399 18.878 11.399 19.21 11.399 19.478 11.667 19.478 11.999V19.289C19.478 19.62 19.209 19.889 18.878 19.889 18.547 19.889 18.278 19.62 18.278 19.289Z" fill="black"/>
<path d="M21.923 13.618V12.599H15.833V13.618C15.833 13.95 15.564 14.218 15.233 14.218 14.902 14.218 14.633 13.95 14.633 13.618V11.999C14.633 11.667 14.902 11.399 15.233 11.399H22.523C22.855 11.399 23.123 11.667 23.123 11.999V13.618C23.123 13.95 22.855 14.218 22.523 14.218 22.192 14.218 21.923 13.95 21.923 13.618Z" fill="black"/>
<path d="M20.498 18.69C20.83 18.69 21.098 18.959 21.098 19.29 21.098 19.622 20.83 19.89 20.498 19.89H17.258C16.927 19.89 16.658 19.622 16.658 19.29 16.658 18.959 16.927 18.69 17.258 18.69H20.498Z" fill="black"/>
</svg>