<svg xmlns="http://www.w3.org/2000/svg" width="24" height="24" fill="currentColor" viewBox="0 0 24 24"><path d="M6.533 7.95v-4.86a0.608 0.608 0 0 1 1.215 0v4.86a0.608 0.608 0 0 1-1.215 0m14.175-4.86V21.72a0.607 0.607 0 0 1-1.214 0v-5.063h-5.063a0.607 0.607 0 0 1-0.607-0.607c0-0.446 0.068-10.961 6.038-13.518a0.607 0.607 0 0 1 0.846 0.558m-1.214 1.013c-3.725 2.459-4.336 9.263-4.435 11.34h4.435z m-8.513-1.114a0.608 0.608 0 1 0-1.199 0.203l0.802 4.807a3.443 3.443 0 0 1-6.886 0L4.5 3.192a0.608 0.608 0 0 0-1.199-0.203l-0.81 4.86-0.008 0.101a4.663 4.663 0 0 0 4.05 4.618v9.153a0.608 0.608 0 0 0 1.215 0v-9.153a4.663 4.663 0 0 0 4.05-4.618l-0.008-0.101z"/></svg>