<svg viewBox="0 0 24 24" fill="none" xmlns="http://www.w3.org/2000/svg" width="24" height="24">
<path d="M5.653 17.957C5.466 17.957 5.315 17.914 5.199 17.827 5.099 17.755 5.041 17.647 5.027 17.503 5.027 17.359 5.063 17.201 5.135 17.028L11.204 3.075C11.305 2.859 11.427 2.707 11.571 2.621 11.715 2.52 11.859 2.47 12.003 2.47 12.176 2.47 12.327 2.52 12.457 2.621 12.601 2.707 12.716 2.859 12.803 3.075L18.872 17.028C18.959 17.201 18.995 17.359 18.98 17.503 18.98 17.647 18.93 17.755 18.829 17.827 18.743 17.914 18.606 17.957 18.419 17.957 18.217 17.957 18.051 17.907 17.922 17.806 17.807 17.691 17.706 17.539 17.619 17.352L15.956 13.443 16.669 13.767H7.316L8.051 13.443 6.387 17.352C6.301 17.568 6.193 17.727 6.063 17.827 5.948 17.914 5.811 17.957 5.653 17.957ZM11.982 4.241L8.31 12.881 7.813 12.622H16.172L15.719 12.881 12.025 4.241H11.982Z" fill="black"/>
<path d="M20.91 21.173C21.241 21.173 21.51 21.442 21.51 21.773 21.51 22.104 21.241 22.373 20.91 22.373H3.09C2.759 22.373 2.49 22.104 2.49 21.773 2.49 21.442 2.759 21.173 3.09 21.173H20.91Z" fill="black"/>
</svg>