<svg width="24" height="24" viewBox="0 0 24 24" fill="none" xmlns="http://www.w3.org/2000/svg">
<path d="M6.71088 16.9641C6.55488 16.9641 6.42888 16.9281 6.33288 16.8561C6.24888 16.7961 6.20088 16.7061 6.18888 16.5861C6.18888 16.4661 6.21888 16.3341 6.27888 16.1901L11.3369 4.56211C11.4209 4.38211 11.5229 4.25611 11.6429 4.1841C11.7629 4.10011 11.8829 4.05811 12.0029 4.05811C12.1469 4.05811 12.2729 4.10011 12.3809 4.1841C12.5009 4.25611 12.5969 4.38211 12.6689 4.56211L17.7269 16.1901C17.7989 16.3341 17.8289 16.4661 17.8169 16.5861C17.8169 16.7061 17.7749 16.7961 17.6909 16.8561C17.6189 16.9281 17.5049 16.9641 17.3489 16.9641C17.1809 16.9641 17.0429 16.9221 16.9349 16.8381C16.8389 16.7421 16.7549 16.6161 16.6829 16.4601L15.2969 13.2021L15.8909 13.4721H8.09688L8.70888 13.2021L7.32288 16.4601C7.25088 16.6401 7.16088 16.7721 7.05288 16.8561C6.95688 16.9281 6.84288 16.9641 6.71088 16.9641ZM11.9849 5.53411L8.92488 12.7341L8.51088 12.5181H15.4769L15.0989 12.7341L12.0209 5.53411H11.9849Z" fill="black"/>
<path d="M19.4246 19.6442C19.7007 19.6442 19.9246 19.868 19.9246 20.1442C19.9246 20.4203 19.7007 20.6442 19.4246 20.6442H4.57495C4.29881 20.6442 4.07495 20.4203 4.07495 20.1442C4.07495 19.868 4.29881 19.6442 4.57495 19.6442H19.4246Z" fill="black"/>
</svg>
