<svg viewBox="0 0 24 24" fill="none" xmlns="http://www.w3.org/2000/svg" width="24" height="24">
<path d="M13.83 2.28C13.83 1.949 14.099 1.68 14.43 1.68 14.761 1.68 15.03 1.949 15.03 2.28V7.349H20.099C20.431 7.349 20.699 7.618 20.699 7.949 20.699 8.281 20.431 8.549 20.099 8.549H14.43C14.099 8.549 13.83 8.281 13.83 7.949V2.28Z" fill="black"/>
<path d="M3.3 20.91V3.09C3.3 2.716 3.448 2.357 3.713 2.092 3.977 1.828 4.336 1.68 4.71 1.68H14.43L14.548 1.692C14.663 1.715 14.77 1.771 14.855 1.856L20.524 7.525C20.637 7.638 20.699 7.79 20.699 7.949L20.7 20.91C20.7 21.284 20.552 21.642 20.287 21.906 20.023 22.171 19.664 22.32 19.29 22.32H4.71C4.336 22.32 3.977 22.171 3.713 21.906 3.448 21.642 3.3 21.284 3.3 20.91ZM4.5 20.91C4.5 20.966 4.522 21.019 4.561 21.058 4.6 21.097 4.654 21.12 4.71 21.12H19.29C19.346 21.12 19.4 21.097 19.439 21.058 19.478 21.019 19.5 20.966 19.5 20.91V8.198L14.182 2.88H4.71C4.654 2.88 4.6 2.901 4.561 2.941 4.522 2.98 4.5 3.034 4.5 3.09V20.91Z" fill="black"/>
<path d="M13.368 14.64C13.036 14.64 12.768 14.909 12.768 15.24 12.768 15.571 13.036 15.84 13.368 15.84H16.608C16.939 15.84 17.208 15.571 17.208 15.24 17.208 14.909 16.939 14.64 16.608 14.64H13.368Z" fill="black"/>
<path d="M13.368 11.4C13.036 11.4 12.768 11.669 12.768 12 12.768 12.331 13.036 12.6 13.368 12.6H16.608C16.939 12.6 17.208 12.331 17.208 12 17.208 11.669 16.939 11.4 16.608 11.4H13.368Z" fill="black"/>
<path d="M13.368 17.88C13.036 17.88 12.768 18.149 12.768 18.48 12.768 18.811 13.036 19.08 13.368 19.08H16.608C16.939 19.08 17.208 18.811 17.208 18.48 17.208 18.149 16.939 17.88 16.608 17.88H13.368Z" fill="black"/>
<path d="M10.632 14.64C10.964 14.64 11.232 14.909 11.232 15.24 11.232 15.571 10.964 15.84 10.632 15.84H7.392C7.061 15.84 6.792 15.571 6.792 15.24 6.792 14.909 7.061 14.64 7.392 14.64H10.632Z" fill="black"/>
<path d="M10.632 11.4C10.964 11.4 11.232 11.669 11.232 12 11.232 12.331 10.964 12.6 10.632 12.6H7.392C7.061 12.6 6.792 12.331 6.792 12 6.792 11.669 7.061 11.4 7.392 11.4H10.632Z" fill="black"/>
<path d="M10.632 17.88C10.964 17.88 11.232 18.149 11.232 18.48 11.232 18.811 10.964 19.08 10.632 19.08H7.392C7.061 19.08 6.792 18.811 6.792 18.48 6.792 18.149 7.061 17.88 7.392 17.88H10.632Z" fill="black"/>
</svg>