<svg width="24" height="24" viewBox="0 0 24 24" fill="none" xmlns="http://www.w3.org/2000/svg">
<path d="M15.8346 13.3554L7.31693 5.55653M4.73491 13.3593L2.25004 11.0836L8.83705 3.89916C9.10582 3.60601 9.48009 3.43158 9.87754 3.41424C10.275 3.3969 10.663 3.53806 10.9564 3.80668L14.2741 6.84515C14.3533 6.9177 14.4472 6.97239 14.5494 7.00552C14.6516 7.03866 14.7597 7.04945 14.8665 7.03719C14.9732 7.02492 15.0761 6.98987 15.1681 6.93442C15.2601 6.87897 15.3391 6.80441 15.3998 6.71578L17.8209 2.97659C18.2241 2.53687 18.7855 2.27523 19.3817 2.24921C19.9778 2.2232 20.5599 2.43494 20.9999 2.83787C21.4399 3.2408 21.7017 3.8019 21.7277 4.39773C21.7537 4.99357 21.5418 5.57534 21.1387 6.01506L17.6227 8.75156C17.5396 8.81969 17.4722 8.90486 17.4249 9.0013C17.3777 9.09774 17.3517 9.20321 17.3488 9.31055C17.3459 9.4179 17.3661 9.52462 17.408 9.62349C17.4499 9.72236 17.5126 9.81107 17.5918 9.88362L20.9096 12.9221M4.46179 13.1093L7.50195 9.79341M2.25 13.3618L21.75 13.3618M7.46734 15.7055L5.25 17.5533L7.46734 19.4011M16.53 15.7055L18.7474 17.5533L16.53 19.4011M12.9327 15.3627L11.0673 20.4927M18.0665 10.3169L21.3843 13.3554M2.24951 13.3554H21.7495V21.7514H2.24951V13.3554Z" stroke="black" stroke-width="1.5" stroke-linecap="round" stroke-linejoin="round"/>
</svg>
