<svg xmlns="http://www.w3.org/2000/svg" width="24" height="24" fill="currentColor" viewBox="0 0 24 24"><path d="M5.09 9.19l-3.24-3.24a0.607 0.607 0 0 1 0-0.86l3.24-3.24a0.607 0.607 0 1 1 0.86 0.86L3.14 5.52l2.81 2.81a0.607 0.607 0 1 1-0.86 0.858z m4.05 0a0.607 0.607 0 0 0 0.86 0l3.24-3.24a0.607 0.607 0 0 0 0-0.86l-3.24-3.24a0.607 0.607 0 1 0-0.86 0.86L11.95 5.52 9.14 8.33a0.607 0.607 0 0 0 0 0.858z m10.15-5.897H16.86a0.608 0.608 0 0 0 0 1.215h2.43a0.204 0.204 0 0 1 0.203 0.203v14.58a0.204 0.204 0 0 1-0.203 0.203H4.71a0.204 0.204 0 0 1-0.203-0.203v-6.48a0.608 0.608 0 0 0-1.215 0v6.48a1.416 1.416 0 0 0 1.417 1.417h14.58a1.416 1.416 0 0 0 1.417-1.417V4.711a1.416 1.416 0 0 0-1.417-1.417z"/></svg>