<svg width="24" height="24" viewBox="0 0 24 24" fill="none" xmlns="http://www.w3.org/2000/svg">
<path d="M7.82347 5.00349C7.51801 4.72374 7.04359 4.74458 6.76384 5.05005C6.48408 5.35552 6.50493 5.82993 6.81039 6.10969L7.31693 5.55659L7.82347 5.00349ZM2.25004 11.0837L1.69723 10.5768C1.56275 10.7235 1.49208 10.9176 1.50076 11.1164C1.50944 11.3152 1.59676 11.5024 1.7435 11.6368L2.25004 11.0837ZM8.83705 3.89922L8.28423 3.39237V3.39237L8.83705 3.89922ZM9.87754 3.4143L9.91023 4.16359L9.91023 4.16359L9.87754 3.4143ZM10.9564 3.80674L11.4629 3.25364V3.25364L10.9564 3.80674ZM14.2741 6.84521L14.7807 6.29212L14.7806 6.29211L14.2741 6.84521ZM14.5494 7.00558L14.3181 7.71903L14.3181 7.71903L14.5494 7.00558ZM14.8665 7.03725L14.9521 7.78234L14.9521 7.78234L14.8665 7.03725ZM15.3998 6.71584L16.0187 7.13951C16.0223 7.13421 16.0258 7.12887 16.0293 7.12348L15.3998 6.71584ZM17.8209 2.97665L17.2681 2.46981C17.2398 2.50067 17.2142 2.53386 17.1914 2.56901L17.8209 2.97665ZM20.9999 2.83793L21.5064 2.28483L20.9999 2.83793ZM21.7277 4.3978L22.477 4.36506V4.36506L21.7277 4.3978ZM21.1387 6.01512L21.5993 6.60699C21.6324 6.58127 21.6632 6.55283 21.6915 6.52197L21.1387 6.01512ZM17.6227 8.75162L17.162 8.15975C17.157 8.16369 17.152 8.1677 17.147 8.17177L17.6227 8.75162ZM17.3488 9.31062L16.5991 9.29019L16.5991 9.2902L17.3488 9.31062ZM17.408 9.62355L16.7175 9.91639L16.7175 9.91639L17.408 9.62355ZM17.5918 9.88368L18.0984 9.33058L18.0984 9.33057L17.5918 9.88368ZM20.4031 13.4752C20.7085 13.755 21.1829 13.7342 21.4627 13.4287C21.7424 13.1232 21.7216 12.6488 21.4161 12.369L20.9096 12.9221L20.4031 13.4752ZM3.90897 12.6025C3.62905 12.9078 3.64963 13.3823 3.95495 13.6622C4.26026 13.9421 4.73469 13.9215 5.01461 13.6162L4.46179 13.1094L3.90897 12.6025ZM8.05477 10.3003C8.33469 9.995 8.31411 9.52057 8.00879 9.24065C7.70348 8.96073 7.22905 8.98131 6.94913 9.28662L7.50195 9.79347L8.05477 10.3003ZM2.25 12.6118C1.83579 12.6118 1.5 12.9476 1.5 13.3618C1.5 13.776 1.83579 14.1118 2.25 14.1118L2.25 13.3618L2.25 12.6118ZM21.75 14.1118C22.1642 14.1118 22.5 13.776 22.5 13.3618C22.5 12.9476 22.1642 12.6118 21.75 12.6118V13.3618V14.1118ZM2.24951 13.3555V12.6055C1.8353 12.6055 1.49951 12.9413 1.49951 13.3555H2.24951ZM21.7495 13.3555H22.4995C22.4995 12.9413 22.1637 12.6055 21.7495 12.6055V13.3555ZM21.7495 21.7515V22.5015C22.1637 22.5015 22.4995 22.1657 22.4995 21.7515H21.7495ZM2.24951 21.7515H1.49951C1.49951 22.1657 1.8353 22.5015 2.24951 22.5015V21.7515ZM7.94748 16.2817C8.26569 16.0166 8.30868 15.5436 8.04351 15.2254C7.77834 14.9072 7.30541 14.8642 6.9872 15.1294L7.46734 15.7056L7.94748 16.2817ZM5.25 17.5534L4.76986 16.9772C4.59887 17.1197 4.5 17.3308 4.5 17.5534C4.5 17.7759 4.59887 17.987 4.76986 18.1295L5.25 17.5534ZM6.9872 19.9773C7.30541 20.2425 7.77834 20.1995 8.04351 19.8813C8.30868 19.5631 8.26569 19.0901 7.94748 18.825L7.46734 19.4011L6.9872 19.9773ZM17.0102 15.1294C16.692 14.8642 16.219 14.9072 15.9539 15.2254C15.6887 15.5436 15.7317 16.0166 16.0499 16.2817L16.53 15.7056L17.0102 15.1294ZM18.7474 17.5534L19.2275 18.1295C19.3985 17.987 19.4974 17.7759 19.4974 17.5534C19.4974 17.3308 19.3985 17.1197 19.2275 16.9772L18.7474 17.5534ZM16.0499 18.825C15.7317 19.0901 15.6887 19.5631 15.9539 19.8813C16.219 20.1995 16.692 20.2425 17.0102 19.9773L16.53 19.4011L16.0499 18.825ZM13.6376 15.6191C13.7791 15.2298 13.5783 14.7995 13.189 14.6579C12.7997 14.5164 12.3694 14.7172 12.2279 15.1065L12.9327 15.3628L13.6376 15.6191ZM10.3624 20.2365C10.2209 20.6258 10.4217 21.0561 10.811 21.1976C11.2002 21.3392 11.6306 21.1384 11.7721 20.7491L11.0673 20.4928L10.3624 20.2365ZM15.8689 13.3887L16.3754 12.8356L7.82347 5.00349L7.31693 5.55659L6.81039 6.10969L15.3624 13.9418L15.8689 13.3887ZM4.73491 13.3594L5.24145 12.8063L2.75658 10.5306L2.25004 11.0837L1.7435 11.6368L4.22837 13.9125L4.73491 13.3594ZM2.25004 11.0837L2.80286 11.5905L9.38987 4.40606L8.83705 3.89922L8.28423 3.39237L1.69723 10.5768L2.25004 11.0837ZM8.83705 3.89922L9.38987 4.40606C9.52421 4.25954 9.71138 4.17227 9.91023 4.16359L9.87754 3.4143L9.84484 2.66501C9.2488 2.69102 8.68742 2.95261 8.28423 3.39237L8.83705 3.89922ZM9.87754 3.4143L9.91023 4.16359C10.1091 4.15491 10.3032 4.22555 10.4498 4.35984L10.9564 3.80674L11.4629 3.25364C11.0229 2.85069 10.4409 2.63901 9.84484 2.66501L9.87754 3.4143ZM10.9564 3.80674L10.4498 4.35984L13.7676 7.39831L14.2741 6.84521L14.7806 6.29211L11.4629 3.25364L10.9564 3.80674ZM14.2741 6.84521L13.7675 7.39829C13.926 7.54341 14.1138 7.65278 14.3181 7.71903L14.5494 7.00558L14.7807 6.29214L14.7807 6.29212L14.2741 6.84521ZM14.5494 7.00558L14.3181 7.71903C14.5225 7.78528 14.7387 7.80687 14.9521 7.78234L14.8665 7.03725L14.7809 6.29215L14.7807 6.29214L14.5494 7.00558ZM14.8665 7.03725L14.9521 7.78234C15.1655 7.75782 15.3712 7.68774 15.5552 7.57685L15.1681 6.93448L14.781 6.29212L14.7808 6.29215L14.8665 7.03725ZM15.1681 6.93448L15.5552 7.57685C15.7392 7.46595 15.8973 7.31682 16.0187 7.13951L15.3998 6.71584L14.7809 6.29218L14.781 6.29212L15.1681 6.93448ZM15.3998 6.71584L16.0293 7.12348L18.4505 3.38429L17.8209 2.97665L17.1914 2.56901L14.7702 6.30821L15.3998 6.71584ZM17.8209 2.97665L18.3738 3.4835C18.6425 3.1904 19.0168 3.01591 19.4144 2.99856L19.3817 2.24927L19.349 1.49999C18.5542 1.53467 17.8057 1.88347 17.2681 2.46981L17.8209 2.97665ZM19.3817 2.24927L19.4144 2.99856C19.812 2.98121 20.2001 3.12243 20.4934 3.39103L20.9999 2.83793L21.5064 2.28483C20.9198 1.74758 20.1437 1.46531 19.349 1.49999L19.3817 2.24927ZM21.7277 4.3978L20.9784 4.43053C20.9957 4.82751 20.8546 5.21519 20.5859 5.50827L21.1387 6.01512L21.6915 6.52197C22.2291 5.93562 22.5117 5.15976 22.477 4.36506L21.7277 4.3978ZM21.1387 6.01512L20.678 5.42325L17.162 8.15975L17.6227 8.75162L18.0833 9.34348L21.5993 6.60699L21.1387 6.01512ZM17.6227 8.75162L17.147 8.17177C16.9809 8.30804 16.846 8.47842 16.7514 8.67138L17.4249 9.00136L18.0985 9.33134L18.0984 9.33146L17.6227 8.75162ZM17.4249 9.00136L16.7514 8.67138C16.6569 8.86434 16.6049 9.07538 16.5991 9.29019L17.3488 9.31062L18.0985 9.33104L18.0985 9.33134L17.4249 9.00136ZM17.3488 9.31062L16.5991 9.2902C16.5932 9.50501 16.6336 9.71856 16.7175 9.91639L17.408 9.62355L18.0985 9.33072L18.0985 9.33103L17.3488 9.31062ZM17.408 9.62355L16.7175 9.91639C16.8014 10.1142 16.9269 10.2917 17.0853 10.4368L17.5918 9.88368L18.0984 9.33057L18.0985 9.33071L17.408 9.62355ZM20.9999 2.83793L20.4934 3.39103C20.7866 3.65961 20.9611 4.03355 20.9784 4.43053L21.7277 4.3978L22.477 4.36506C22.4422 3.57037 22.0931 2.8221 21.5064 2.28483L20.9999 2.83793ZM17.5918 9.88368L17.0853 10.4368L20.4031 13.4752L20.9096 12.9221L21.4161 12.369L18.0984 9.33058L17.5918 9.88368ZM4.46179 13.1094L5.01461 13.6162L8.05477 10.3003L7.50195 9.79347L6.94913 9.28662L3.90897 12.6025L4.46179 13.1094ZM2.25 13.3618L2.25 14.1118L21.75 14.1118V13.3618V12.6118L2.25 12.6118L2.25 13.3618ZM2.24951 13.3555V14.1055H21.7495V13.3555V12.6055H2.24951V13.3555ZM21.7495 13.3555H20.9995V21.7515H21.7495H22.4995V13.3555H21.7495ZM21.7495 21.7515V21.0015H2.24951V21.7515V22.5015H21.7495V21.7515ZM2.24951 21.7515H2.99951V13.3555H2.24951H1.49951V21.7515H2.24951ZM7.46734 15.7056L6.9872 15.1294L4.76986 16.9772L5.25 17.5534L5.73014 18.1295L7.94748 16.2817L7.46734 15.7056ZM5.25 17.5534L4.76986 18.1295L6.9872 19.9773L7.46734 19.4011L7.94748 18.825L5.73014 16.9772L5.25 17.5534ZM16.53 15.7056L16.0499 16.2817L18.2672 18.1295L18.7474 17.5534L19.2275 16.9772L17.0102 15.1294L16.53 15.7056ZM18.7474 17.5534L18.2672 16.9772L16.0499 18.825L16.53 19.4011L17.0102 19.9773L19.2275 18.1295L18.7474 17.5534ZM12.9327 15.3628L12.2279 15.1065L10.3624 20.2365L11.0673 20.4928L11.7721 20.7491L13.6376 15.6191L12.9327 15.3628Z" fill="black"/>
</svg>
