<svg xmlns="http://www.w3.org/2000/svg" width="24" height="24" fill="currentColor" viewBox="0 0 24 24"><path d="M21.517 12a0.607 0.607 0 0 1-0.607 0.607H12a0.608 0.608 0 0 1 0-1.215h8.91a0.607 0.607 0 0 1 0.607 0.607zM12 6.127h8.91a0.608 0.608 0 0 0 0-1.215H12a0.608 0.608 0 0 0 0 1.215m8.91 11.746H12a0.607 0.607 0 0 0 0 1.214h8.91a0.607 0.607 0 0 0 0-1.214M7.52 3.47L4.71 6.28l-1.19-1.19a0.607 0.607 0 0 0-0.86 0.86l1.62 1.62a0.607 0.607 0 0 0 0.86 0l3.24-3.24a0.607 0.607 0 0 0-0.86-0.86m0 6.48l-2.81 2.81-1.19-1.19a0.607 0.607 0 1 0-0.86 0.86l1.62 1.62a0.607 0.607 0 0 0 0.86 0l3.24-3.24a0.607 0.607 0 0 0-0.86-0.86m0 6.48l-2.81 2.81-1.19-1.19a0.607 0.607 0 0 0-0.86 0.858l1.62 1.62a0.607 0.607 0 0 0 0.86 0l3.24-3.24a0.607 0.607 0 0 0-0.86-0.859z"/></svg>