<svg xmlns="http://www.w3.org/2000/svg" width="24" height="24" fill="currentColor" viewBox="0 0 24 24"><path d="M24.108 10.82l-8.928-5.686a1.416 1.416 0 0 0-1.44-0.047 1.404 1.404 0 0 0-0.728 1.227v4.151L4.649 5.134a1.416 1.416 0 0 0-1.44-0.047 1.404 1.404 0 0 0-0.729 1.227v11.373a1.404 1.404 0 0 0 0.729 1.227 1.416 1.416 0 0 0 1.44-0.046l8.363-5.327v4.146a1.404 1.404 0 0 0 0.728 1.227 1.416 1.416 0 0 0 1.44-0.046l8.928-5.687a1.397 1.397 0 0 0 0-2.359z m-11.182 1.335l-8.925 5.685a0.192 0.192 0 0 1-0.203 0.006 0.18 0.18 0 0 1-0.101-0.16V6.313a0.18 0.18 0 0 1 0.101-0.161 0.24 0.24 0 0 1 0.101-0.026 0.192 0.192 0 0 1 0.101 0.032l8.929 5.687a0.182 0.182 0 0 1 0 0.31z m10.53 0l-8.925 5.685a0.192 0.192 0 0 1-0.203 0.006 0.18 0.18 0 0 1-0.101-0.16V6.313a0.18 0.18 0 0 1 0.101-0.161 0.24 0.24 0 0 1 0.101-0.026 0.192 0.192 0 0 1 0.101 0.032l8.929 5.687a0.182 0.182 0 0 1 0 0.31z"/></svg>