<svg width="24" height="24" viewBox="0 0 24 24" fill="none" xmlns="http://www.w3.org/2000/svg">
<path d="M3.75 6.73516V17.2633C3.75114 17.3958 3.7878 17.5257 3.85616 17.6393C3.92451 17.7528 4.02206 17.846 4.13865 17.9091C4.25524 17.9722 4.38661 18.0029 4.51909 17.9979C4.65156 17.993 4.78029 17.9527 4.89187 17.8811L13.1597 12.617C13.2639 12.5511 13.3497 12.4598 13.4091 12.3518C13.4686 12.2438 13.4997 12.1225 13.4997 11.9992C13.4997 11.8759 13.4686 11.7546 13.4091 11.6466C13.3497 11.5386 13.2639 11.4474 13.1597 11.3814L4.89187 6.11735C4.78029 6.04578 4.65156 6.00544 4.51909 6.00051C4.38661 5.99559 4.25524 6.02626 4.13865 6.08934C4.02206 6.15243 3.92451 6.24561 3.85616 6.35919C3.7878 6.47277 3.75114 6.6026 3.75 6.73516Z" stroke="black" stroke-width="1.5" stroke-linecap="round" stroke-linejoin="round"/>
<path d="M13.5 6.73516V17.2633C13.5011 17.3958 13.5378 17.5257 13.6062 17.6393C13.6745 17.7528 13.7721 17.846 13.8887 17.9091C14.0052 17.9722 14.1366 18.0029 14.2691 17.9979C14.4016 17.993 14.5303 17.9527 14.6419 17.8811L22.9097 12.617C23.0139 12.5511 23.0997 12.4598 23.1591 12.3518C23.2186 12.2438 23.2497 12.1225 23.2497 11.9992C23.2497 11.8759 23.2186 11.7546 23.1591 11.6466C23.0997 11.5386 23.0139 11.4474 22.9097 11.3814L14.6419 6.11735C14.5303 6.04578 14.4016 6.00544 14.2691 6.00051C14.1366 5.99559 14.0052 6.02626 13.8887 6.08934C13.7721 6.15243 13.6745 6.24561 13.6062 6.35919C13.5378 6.47277 13.5011 6.6026 13.5 6.73516Z" stroke="black" stroke-width="1.5" stroke-linecap="round" stroke-linejoin="round"/>
</svg>
