<svg width="24" height="24" viewBox="0 0 24 24" fill="none" xmlns="http://www.w3.org/2000/svg">
<path d="M10.4088 10.5909L11.9998 8.99995L13.5908 10.5909M11.9995 9.00916V15.002M10.4087 13.411L11.9995 15.002L13.5907 13.411M19.5 21.75H4.5C4.08579 21.75 3.75 21.4142 3.75 21L3.75 17.25C3.75 16.8358 4.08579 16.5 4.5 16.5H19.5C19.9142 16.5 20.25 16.8358 20.25 17.25V21C20.25 21.4142 19.9142 21.75 19.5 21.75ZM19.5 7.5L4.5 7.5C4.08579 7.5 3.75 7.16421 3.75 6.75L3.75 3C3.75 2.58579 4.08579 2.25 4.5 2.25L19.5 2.25C19.9142 2.25 20.25 2.58579 20.25 3V6.75C20.25 7.16421 19.9142 7.5 19.5 7.5Z" stroke="black" stroke-width="1.5" stroke-linecap="round" stroke-linejoin="round"/>
</svg>
