<svg xmlns="http://www.w3.org/2000/svg" width="24" height="24" fill="currentColor" viewBox="0 0 24 24"><path d="M20.1 13.013H3.9a1.416 1.416 0 0 0-1.417 1.417V18.48a1.416 1.416 0 0 0 1.417 1.417h16.2a1.416 1.416 0 0 0 1.417-1.417v-4.05a1.416 1.416 0 0 0-1.417-1.417m0.203 5.467a0.204 0.204 0 0 1-0.203 0.203H3.9a0.204 0.204 0 0 1-0.203-0.203v-4.05a0.204 0.204 0 0 1 0.203-0.203h16.2a0.204 0.204 0 0 1 0.203 0.203zM20.1 4.103H3.9A1.416 1.416 0 0 0 2.483 5.52v4.05a1.416 1.416 0 0 0 1.417 1.417h16.2a1.416 1.416 0 0 0 1.417-1.417V5.52a1.416 1.416 0 0 0-1.417-1.417m0.203 5.467a0.204 0.204 0 0 1-0.203 0.203H3.9a0.204 0.204 0 0 1-0.203-0.203V5.52a0.204 0.204 0 0 1 0.203-0.203h16.2a0.204 0.204 0 0 1 0.203 0.203z"/></svg>