<svg xmlns="http://www.w3.org/2000/svg" width="24" height="24" fill="currentColor" viewBox="0 0 24 24"><path d="M19.862 6.541A11.064 11.064 0 0 0 12 3.293h-0.04c-6.12 0.022-11.098 5.069-11.097 11.252v2.316A1.416 1.416 0 0 0 2.28 18.278h19.44a1.416 1.416 0 0 0 1.417-1.417v-2.43a11.064 11.064 0 0 0-3.276-7.89z m2.061 10.32a0.204 0.204 0 0 1-0.203 0.203h-10.957l5.778-7.945a0.607 0.607 0 0 0-0.982-0.715L9.26 17.064H2.28a0.204 0.204 0 0 1-0.203-0.203v-2.316a10.8 10.8 0 0 1 0.063-1.127h2.569a0.608 0.608 0 0 0 0-1.215H2.351c1.001-4.212 4.639-7.405 9.041-7.675v2.613a0.608 0.608 0 0 0 1.215 0V4.528a9.924 9.924 0 0 1 9.065 7.675h-2.382a0.607 0.607 0 0 0 0 1.214h2.582q0.05 0.502 0.051 1.013z"/></svg>