<svg xmlns="http://www.w3.org/2000/svg" width="24" height="24" fill="currentColor" viewBox="0 0 24 24"><path d="M18.552 7.451A9.22 9.22 0 0 0 12 4.744h-.033c-5.1.018-9.248 4.224-9.248 9.377v1.93A1.18 1.18 0 0 0 3.9 17.232h16.2a1.18 1.18 0 0 0 1.181-1.181v-2.025a9.22 9.22 0 0 0-2.73-6.575zm1.717 8.6a.17.17 0 0 1-.169.169h-9.131l4.815-6.621a.506.506 0 0 0-.818-.596L9.717 16.22H3.9a.17.17 0 0 1-.169-.169v-1.93a9 9 0 0 1 .052-.939h2.141a.507.507 0 0 0 0-1.013H3.959c.834-3.51 3.866-6.171 7.534-6.396v2.178a.507.507 0 0 0 1.013 0V5.773a8.27 8.27 0 0 1 7.554 6.396h-1.985a.506.506 0 0 0 0 1.012h2.152q.042.418.042.844z"/></svg>