<svg width="24" height="24" viewBox="0 0 24 24" fill="none" xmlns="http://www.w3.org/2000/svg">
<path d="M16.2948 7.08626C16.4377 7.61972 16.9861 7.9363 17.5195 7.79336C18.053 7.65042 18.3696 7.10208 18.2267 6.56862C18.0837 6.03515 17.5354 5.71857 17.0019 5.86151C16.4684 6.00445 16.1519 6.55279 16.2948 7.08626Z" stroke="black" stroke-width="1.5" stroke-linecap="round" stroke-linejoin="round"/>
<path d="M13.9491 7.80865C13.9338 7.75144 13.9183 7.69379 13.9033 7.63786L12.7728 6.47405C12.8092 5.8933 12.955 5.32464 13.2023 4.79794L14.7381 4.38094C14.7778 4.33781 14.8184 4.29627 14.8608 4.25653L15.2712 2.68807C15.7846 2.43562 16.3425 2.28613 16.9134 2.24805L18.0505 3.40049C18.107 3.41508 18.1634 3.43065 18.219 3.44687L19.758 3.04182C20.2365 3.37361 20.648 3.79281 20.9709 4.27737L20.5731 5.84841C20.5885 5.90562 20.6039 5.96327 20.6189 6.0192L21.7489 7.18087C21.7124 7.76163 21.5667 8.33029 21.3193 8.85699L19.7836 9.27399C19.7439 9.31712 19.7033 9.35866 19.6608 9.3984L19.2507 10.9659C18.7373 11.2183 18.1794 11.3678 17.6085 11.4059L16.4714 10.2535C16.4148 10.2389 16.3585 10.2233 16.3029 10.2071L14.7639 10.6121C14.2854 10.2807 13.8738 9.86179 13.5508 9.37755L13.9491 7.80865Z" stroke="black" stroke-width="1.5" stroke-linecap="round" stroke-linejoin="round"/>
<path d="M6.305 16.4143C6.54123 17.2959 7.44742 17.8191 8.32904 17.5829C9.21065 17.3467 9.73384 16.4405 9.49761 15.5589C9.26138 14.6772 8.35519 14.1541 7.47358 14.3903C6.59196 14.6265 6.06877 15.5327 6.305 16.4143Z" stroke="black" stroke-width="1.5" stroke-linecap="round" stroke-linejoin="round"/>
<path d="M3.7314 17.2222C3.7121 17.1502 3.69265 17.0776 3.67378 17.0071L2.25024 15.5418C2.29614 14.8105 2.47965 14.0945 2.79112 13.4313L4.72486 12.9062C4.77485 12.8519 4.82595 12.7996 4.87939 12.7496L5.39608 10.7747C6.04255 10.4568 6.74501 10.2686 7.46381 10.2206L8.89561 11.6717C8.9668 11.6901 9.03774 11.7097 9.10775 11.7301L11.0455 11.2201C11.6481 11.6379 12.1662 12.1657 12.5728 12.7758L12.072 14.754C12.0913 14.826 12.1107 14.8986 12.1296 14.969L13.5524 16.4317C13.5065 17.163 13.323 17.879 13.0115 18.5422L11.0778 19.0673C11.0278 19.1216 10.9767 19.1739 10.9232 19.2239L10.4068 21.1976C9.76033 21.5155 9.05787 21.7037 8.33907 21.7516L6.90727 20.3006C6.83608 20.2822 6.76514 20.2626 6.69513 20.2422L4.75735 20.7522C4.15485 20.3348 3.6366 19.8074 3.22984 19.1977L3.7314 17.2222Z" stroke="black" stroke-width="1.5" stroke-linecap="round" stroke-linejoin="round"/>
</svg>
