<svg xmlns="http://www.w3.org/2000/svg" fill="currentColor" viewBox="0 0 24 24" width="24" height="24"><path d="M12 7.343A4.657 4.657 0 1 0 16.657 12 4.663 4.663 0 0 0 12 7.343m0 8.1A3.443 3.443 0 1 1 15.443 12 3.444 3.444 0 0 1 12 15.443m8.707-3.155a9.6 9.6 0 0 0 0-0.575l1.552-1.94a0.6 0.6 0 0 0 0.113-0.535 10.8 10.8 0 0 0-1.082-2.614 0.6 0.6 0 0 0-0.458-0.304l-2.476-0.274q-0.196-0.21-0.405-0.406l-0.275-2.477a0.6 0.6 0 0 0-0.304-0.458 10.8 10.8 0 0 0-2.608-1.079 0.6 0.6 0 0 0-0.536 0.115l-1.944 1.557a9.6 9.6 0 0 0-0.574 0L9.774 1.74a0.6 0.6 0 0 0-0.535-0.113 10.8 10.8 0 0 0-2.614 1.081 0.6 0.6 0 0 0-0.303 0.459l-0.27 2.475q-0.21 0.197-0.406 0.406l-2.478 0.282a0.6 0.6 0 0 0-0.458 0.304 10.8 10.8 0 0 0-1.079 2.608 0.6 0.6 0 0 0 0.113 0.53l1.556 1.944a9.6 9.6 0 0 0 0 0.574l-1.558 1.941a0.6 0.6 0 0 0-0.112 0.535 10.8 10.8 0 0 0 1.081 2.608 0.6 0.6 0 0 0 0.458 0.303l2.476 0.275q0.197 0.21 0.405 0.404l0.282 2.474a0.6 0.6 0 0 0 0.304 0.458 10.8 10.8 0 0 0 2.609 1.079 0.6 0.6 0 0 0 0.535-0.113l1.934-1.552q0.288 0.008 0.575 0l1.945 1.558a0.6 0.6 0 0 0 0.38 0.133 0.6 0.6 0 0 0 0.156-0.02 10.8 10.8 0 0 0 2.608-1.081 0.6 0.6 0 0 0 0.304-0.459l0.275-2.475q0.21-0.196 0.405-0.406l2.477-0.275a0.6 0.6 0 0 0 0.459-0.303 10.8 10.8 0 0 0 1.078-2.609 0.6 0.6 0 0 0-0.112-0.535z m-0.314 4.216l-2.394 0.266a0.6 0.6 0 0 0-0.387 0.203 7.2 7.2 0 0 1-0.638 0.638 0.6 0.6 0 0 0-0.203 0.387l-0.266 2.392a9.6 9.6 0 0 1-1.758 0.723l-1.881-1.505a0.6 0.6 0 0 0-0.379-0.133h-0.036a8.4 8.4 0 0 1-0.903 0 0.6 0.6 0 0 0-0.417 0.132L9.252 21.113a9.6 9.6 0 0 1-1.756-0.726l-0.266-2.392a0.6 0.6 0 0 0-0.203-0.386 7.2 7.2 0 0 1-0.638-0.639 0.6 0.6 0 0 0-0.387-0.202l-2.392-0.267a9.6 9.6 0 0 1-0.723-1.753l1.505-1.88a0.6 0.6 0 0 0 0.132-0.417 8.4 8.4 0 0 1 0-0.903 0.6 0.6 0 0 0-0.132-0.417L2.887 9.252a9.6 9.6 0 0 1 0.726-1.756l2.392-0.266a0.6 0.6 0 0 0 0.386-0.203 7.2 7.2 0 0 1 0.639-0.638 0.6 0.6 0 0 0 0.202-0.387l0.267-2.392a9.6 9.6 0 0 1 1.753-0.723l1.88 1.505a0.6 0.6 0 0 0 0.417 0.132 8.4 8.4 0 0 1 0.903 0 0.6 0.6 0 0 0 0.417-0.132l1.879-1.505a9.6 9.6 0 0 1 1.756 0.726l0.266 2.394a0.6 0.6 0 0 0 0.203 0.387 7.2 7.2 0 0 1 0.638 0.638 0.6 0.6 0 0 0 0.387 0.203l2.392 0.266a9.6 9.6 0 0 1 0.723 1.751l-1.505 1.88a0.6 0.6 0 0 0-0.132 0.417 8.4 8.4 0 0 1 0 0.903 0.6 0.6 0 0 0 0.132 0.417l1.505 1.879a9.6 9.6 0 0 1-0.724 1.756z"/></svg>