<svg width="24" height="24" viewBox="0 0 24 24" fill="none" xmlns="http://www.w3.org/2000/svg">
<path d="M18.75 15.75V10.3716C18.75 10.1745 18.7112 9.97928 18.6358 9.79718C18.5603 9.61508 18.4497 9.44964 18.3103 9.31031L13.5 4.5M18.75 15.75C17.5074 15.75 16.5 16.7574 16.5 18C16.5 19.2426 17.5074 20.25 18.75 20.25C19.9926 20.25 21 19.2426 21 18C21 16.7574 19.9926 15.75 18.75 15.75ZM18 4.5H13.5V9M5.25 8.25V13.6284C5.24997 13.8255 5.28878 14.0207 5.36423 14.2028C5.43967 14.3849 5.55027 14.5504 5.68969 14.6897L10.5 19.5M5.25 8.25C6.49264 8.25 7.5 7.24264 7.5 6C7.5 4.75736 6.49264 3.75 5.25 3.75C4.00736 3.75 3 4.75736 3 6C3 7.24264 4.00736 8.25 5.25 8.25ZM6 19.5H10.5V15" stroke="black" stroke-width="1.5" stroke-linecap="round" stroke-linejoin="round"/>
</svg>
