<svg width="24" height="24" viewBox="0 0 24 24" fill="none" xmlns="http://www.w3.org/2000/svg">
<path fill-rule="evenodd" clip-rule="evenodd" d="M12 21.75C10.0716 21.75 8.18637 21.1778 6.58299 20.1065C4.97983 19.0352 3.73009 17.5128 2.99217 15.7315C2.9343 15.5918 2.88121 15.4504 2.83006 15.3086C2.81754 15.281 2.80893 15.252 2.79978 15.2227C2.22459 13.5804 2.09672 11.8108 2.43748 10.0977C2.52752 9.64506 2.65006 9.20155 2.80174 8.76956C2.80944 8.74576 2.8162 8.72194 2.82615 8.69924C3.31017 7.35367 4.08596 6.12499 5.10545 5.10549C6.46895 3.74199 8.20641 2.81376 10.0976 2.43752C10.7194 2.31386 11.3486 2.2535 11.9765 2.25198C11.9929 2.25147 12.009 2.2524 12.0254 2.25295C13.2912 2.25623 14.5507 2.50313 15.7314 2.99221C17.5128 3.73013 19.0351 4.97987 20.1064 6.58303C20.5467 7.24196 20.9013 7.94898 21.1679 8.68655C21.1827 8.71856 21.1939 8.7519 21.2041 8.78616C21.563 9.81393 21.75 10.8998 21.75 12C21.75 12.4142 21.4142 12.75 21 12.75C20.5858 12.75 20.25 12.4142 20.25 12C20.25 11.2345 20.1423 10.4775 19.9355 9.74905H16.3252C16.436 10.4495 16.5 11.1998 16.5 12C16.5 12.4142 16.1642 12.75 15.75 12.75C15.3358 12.75 15 12.4142 15 12C15 11.1909 14.926 10.4409 14.8027 9.74905H9.19725C9.074 10.4409 8.99998 11.1909 8.99998 12C8.99998 12.8087 9.07315 13.5585 9.19627 14.25H12C12.4141 14.2501 12.75 14.5859 12.75 15C12.75 15.4142 12.4141 15.7499 12 15.75H9.56346C9.89276 16.7922 10.3275 17.6594 10.7607 18.3526C11.1999 19.0553 11.6374 19.5798 11.9609 19.9248C12.1224 20.0971 12.2552 20.2239 12.3447 20.3057C12.3893 20.3465 12.4231 20.3764 12.4443 20.3946C12.4549 20.4036 12.4627 20.4098 12.4668 20.4131L12.4678 20.4141C12.5175 20.4539 12.5589 20.5003 12.5957 20.5489C12.6123 20.5708 12.6274 20.5935 12.6416 20.6172C12.6523 20.6352 12.6627 20.6532 12.6719 20.6719C12.6838 20.6964 12.6948 20.7212 12.7041 20.7471C12.7119 20.7689 12.7178 20.7911 12.7236 20.8135C12.739 20.8734 12.75 20.9354 12.75 21C12.75 21.0614 12.7405 21.1206 12.7265 21.1778C12.7211 21.2002 12.7146 21.2222 12.707 21.2442C12.698 21.2702 12.6884 21.2957 12.6767 21.3203C12.6523 21.3719 12.6231 21.4223 12.5859 21.4688C12.5444 21.5206 12.4963 21.5638 12.4453 21.6016C12.4279 21.6145 12.41 21.6264 12.3916 21.6377C12.3693 21.6514 12.3466 21.6637 12.3232 21.6748C12.3013 21.6854 12.2789 21.6948 12.2558 21.7031C12.2324 21.7117 12.2087 21.7185 12.1846 21.7246C12.1566 21.7317 12.1287 21.7393 12.0996 21.7432C12.0914 21.7443 12.0834 21.7463 12.0752 21.7471C12.0505 21.7496 12.0253 21.75 12 21.75ZM7.99998 8.24905C8.38143 6.87415 8.93379 5.74128 9.48924 4.85256C9.69287 4.52675 9.89687 4.23384 10.0928 3.97366C8.60812 4.32644 7.2478 5.08424 6.166 6.16604C5.55215 6.77989 5.04382 7.48405 4.6533 8.24905H7.99998ZM19.3467 8.24905C19.2009 7.96354 19.0387 7.68545 18.8594 7.41702C17.9528 6.06033 16.6647 5.00238 15.1572 4.37795C14.7506 4.20953 14.3327 4.07559 13.9082 3.97463C14.1038 4.23455 14.3074 4.52721 14.5107 4.85256C15.0662 5.74128 15.6185 6.87415 16 8.24905H19.3467ZM14.4355 8.24905C14.1063 7.20742 13.6723 6.34042 13.2392 5.64749C12.8 4.94477 12.3625 4.42028 12.039 4.07522C12.0259 4.06119 12.0127 4.04763 12 4.0342C11.9872 4.04763 11.9741 4.06119 11.9609 4.07522C11.6374 4.42028 11.1999 4.94477 10.7607 5.64749C10.3276 6.34042 9.89369 7.20742 9.56443 8.24905H14.4355ZM7.67478 14.25C7.56404 13.5498 7.49998 12.7998 7.49998 12C7.49998 11.1998 7.56395 10.4495 7.67478 9.74905H4.06346C4.00354 9.9603 3.95124 10.1742 3.90818 10.3906C3.65261 11.6757 3.70853 12.9982 4.06346 14.25H7.67478ZM10.0928 20.0254C9.89702 19.7654 9.69271 19.473 9.48924 19.1475C8.93363 18.2585 8.38046 17.1254 7.999 15.75H4.65232C5.2916 17.0024 6.24187 18.0742 7.41697 18.8594C8.2367 19.4071 9.14357 19.7997 10.0928 20.0254Z" fill="black"/>
<path d="M15.585 16.5821C15.8776 16.2893 16.3525 16.2887 16.6455 16.5811C16.9382 16.8737 16.9389 17.3496 16.6465 17.6426L15.5947 18.6944C15.4213 18.8707 15.3252 19.1092 15.3262 19.3565C15.3273 19.6036 15.4258 19.8409 15.6006 20.0157C15.7754 20.1902 16.0127 20.2891 16.2598 20.2901C16.5069 20.291 16.7447 20.1939 16.9209 20.0206L17.9717 18.9688C18.2643 18.6758 18.7391 18.6752 19.0322 18.9678C19.3248 19.2604 19.3254 19.7354 19.0332 20.0284L17.9775 21.085L17.9736 21.0899C17.5154 21.5407 16.8967 21.7925 16.2539 21.7901C15.6111 21.7875 14.9947 21.5306 14.54 21.0762C14.0855 20.6216 13.8289 20.0052 13.8262 19.3623C13.8236 18.7195 14.0755 18.1019 14.5264 17.6436L14.5303 17.6397L15.585 16.5821Z" fill="black"/>
<path d="M18.5342 16.0196C18.8271 15.7267 19.3018 15.7267 19.5947 16.0196C19.8873 16.3125 19.8875 16.7873 19.5947 17.0801L17.3447 19.3301C17.0519 19.6228 16.5771 19.6226 16.2842 19.3301C15.9913 19.0373 15.9914 18.5625 16.2842 18.2696L18.5342 16.0196Z" fill="black"/>
<path d="M19.627 13.5616C20.2699 13.5642 20.8862 13.8208 21.3408 14.2754C21.7953 14.7301 22.0521 15.3464 22.0547 15.9893C22.0571 16.6321 21.8053 17.2508 21.3545 17.709L21.3496 17.7129L20.293 18.7686C19.9999 19.0608 19.525 19.0603 19.2324 18.7676C18.9399 18.4746 18.9405 17.9997 19.2334 17.7071L20.2852 16.6553C20.4582 16.4792 20.5556 16.2421 20.5547 15.9952C20.5537 15.748 20.4549 15.5108 20.2803 15.336C20.1055 15.1612 19.8683 15.0626 19.6211 15.0616C19.3738 15.0606 19.1363 15.1576 18.96 15.3311L17.9072 16.3819C17.6141 16.6742 17.1383 16.6737 16.8457 16.3809C16.5533 16.0879 16.5541 15.613 16.8467 15.3204L17.9043 14.2657L17.9082 14.2618C18.3665 13.8109 18.9841 13.559 19.627 13.5616Z" fill="black"/>
</svg>
