<svg xmlns="http://www.w3.org/2000/svg" width="128" height="128" fill="currentColor" viewBox="0 0 24 24"><path d="M12 1.673A10.327 10.327 0 1 0 22.327 12 10.339 10.339 0 0 0 12 1.673m8.258 6.48h-4.088a13.44 13.44 0 0 0-2.605-5.13 9.144 9.144 0 0 1 6.693 5.13M21.112 12a9.12 9.12 0 0 1-0.388 2.633h-4.289a15.72 15.72 0 0 0 0-5.266h4.289A9.12 9.12 0 0 1 21.112 12m-9.113 8.893a11.16 11.16 0 0 1-1.539-1.969 12.6 12.6 0 0 1-1.363-3.076h5.802a12.6 12.6 0 0 1-1.363 3.076 11.16 11.16 0 0 1-1.538 1.969z m-3.195-6.26a14.04 14.04 0 0 1 0-5.266h6.389a14.04 14.04 0 0 1 0 5.265zM2.886 12a9.12 9.12 0 0 1 0.388-2.633h4.288a15.72 15.72 0 0 0 0 5.266H3.274A9.12 9.12 0 0 1 2.886 12m9.113-8.893a11.16 11.16 0 0 1 1.538 1.969 12.6 12.6 0 0 1 1.363 3.076H9.098a12.6 12.6 0 0 1 1.364-3.076A11.16 11.16 0 0 1 12 3.107z m-1.565-0.085a13.44 13.44 0 0 0-2.605 5.13H3.74a9.144 9.144 0 0 1 6.694-5.13M3.74 15.847h4.089a13.44 13.44 0 0 0 2.605 5.13 9.144 9.144 0 0 1-6.694-5.13m9.821 5.13a13.44 13.44 0 0 0 2.609-5.13h4.088a9.144 9.144 0 0 1-6.693 5.13z"/></svg>