<svg xmlns="http://www.w3.org/2000/svg" width="24" height="24" fill="currentColor" viewBox="0 0 24 24"><path d="M12 1.673a10.328 10.328 0 0 0 0 20.655 0.607 0.607 0 0 0 0.38-1.08c-0.01-0.007-0.972-0.794-1.918-2.323a12.6 12.6 0 0 1-1.364-3.075h2.901a0.607 0.607 0 0 0 0-1.215H8.804a14.04 14.04 0 0 1 0-5.264h6.389a13.92 13.92 0 0 1 0.249 2.633 0.608 0.608 0 0 0 1.215 0 15.6 15.6 0 0 0-0.222-2.633h4.289a9.12 9.12 0 0 1 0.388 2.633 0.607 0.607 0 0 0 1.214 0 10.339 10.339 0 0 0-10.327-10.328z m-1.565 1.35a13.44 13.44 0 0 0-2.605 5.13H3.742a9.144 9.144 0 0 1 6.693-5.13m0 17.955a9.144 9.144 0 0 1-6.693-5.13h4.088a13.44 13.44 0 0 0 2.605 5.13m-2.87-6.345H3.276a9.12 9.12 0 0 1 0-5.266h4.289a15.72 15.72 0 0 0 0 5.265z m1.535-6.48a12.6 12.6 0 0 1 1.363-3.075 11.04 11.04 0 0 1 1.538-1.969 11.04 11.04 0 0 1 1.539 1.969 12.6 12.6 0 0 1 1.363 3.075z m7.071 0a13.44 13.44 0 0 0-2.605-5.13 9.144 9.144 0 0 1 6.694 5.13z m5.169 8.327L19.34 18.48l2 2a0.607 0.607 0 1 1-0.858 0.858l-2.001-1.999-2 1.999a0.607 0.607 0 0 1-0.859-0.858l1.999-2-1.999-2a0.607 0.607 0 0 1 0.859-0.86l2 2 2.001-2a0.607 0.607 0 0 1 0.858 0.86"/></svg>