<svg xmlns="http://www.w3.org/2000/svg" width="128" height="128" fill="currentColor" viewBox="0 0 24 24"><path d="M12 3.394A8.606 8.606 0 1 0 20.606 12 8.616 8.616 0 0 0 12 3.394m6.882 5.4h-3.407a11.2 11.2 0 0 0-2.171-4.275 7.62 7.62 0 0 1 5.578 4.275M19.593 12a7.6 7.6 0 0 1-.323 2.194h-3.574a13.1 13.1 0 0 0 0-4.388h3.574A7.6 7.6 0 0 1 19.593 12m-7.594 7.411a9.3 9.3 0 0 1-1.282-1.641 10.5 10.5 0 0 1-1.136-2.563h4.835a10.5 10.5 0 0 1-1.136 2.563 9.3 9.3 0 0 1-1.282 1.641zm-2.662-5.217a11.7 11.7 0 0 1 0-4.388h5.324a11.7 11.7 0 0 1 0 4.387zM4.405 12a7.6 7.6 0 0 1 .323-2.194h3.574a13.1 13.1 0 0 0 0 4.388H4.728A7.6 7.6 0 0 1 4.405 12m7.594-7.411a9.3 9.3 0 0 1 1.282 1.641 10.5 10.5 0 0 1 1.136 2.563H9.582a10.5 10.5 0 0 1 1.136-2.563A9.3 9.3 0 0 1 12 4.589zm-1.304-.071a11.2 11.2 0 0 0-2.171 4.275H5.117a7.62 7.62 0 0 1 5.578-4.275M5.117 15.206h3.407a11.2 11.2 0 0 0 2.171 4.275 7.62 7.62 0 0 1-5.578-4.275m8.184 4.275a11.2 11.2 0 0 0 2.174-4.275h3.407a7.62 7.62 0 0 1-5.578 4.275z"/></svg>