<svg width="24" height="24" viewBox="0 0 24 24" fill="none" xmlns="http://www.w3.org/2000/svg">
<path d="M11.0859 9.94403L9.91406 7.30591M16.6153 10.4615L14.1347 11.2884M16.9744 15.8691L13.7756 13.381M10.3181 13.4943L6.93187 16.5056M14.25 12C14.25 13.2426 13.2426 14.25 12 14.25C10.7574 14.25 9.75 13.2426 9.75 12C9.75 10.7574 10.7574 9.75 12 9.75C13.2426 9.75 14.25 10.7574 14.25 12ZM11.25 5.25C11.25 6.49264 10.2426 7.5 9 7.5C7.75736 7.5 6.75 6.49264 6.75 5.25C6.75 4.00736 7.75736 3 9 3C10.2426 3 11.25 4.00736 11.25 5.25ZM21 9.75C21 10.9926 19.9926 12 18.75 12C17.5074 12 16.5 10.9926 16.5 9.75C16.5 8.50736 17.5074 7.5 18.75 7.5C19.9926 7.5 21 8.50736 21 9.75ZM21 17.25C21 18.4926 19.9926 19.5 18.75 19.5C17.5074 19.5 16.5 18.4926 16.5 17.25C16.5 16.0074 17.5074 15 18.75 15C19.9926 15 21 16.0074 21 17.25ZM7.5 18C7.5 19.2426 6.49264 20.25 5.25 20.25C4.00736 20.25 3 19.2426 3 18C3 16.7574 4.00736 15.75 5.25 15.75C6.49264 15.75 7.5 16.7574 7.5 18Z" stroke="black" stroke-width="1.5" stroke-linecap="round" stroke-linejoin="round"/>
</svg>
