<svg width="24" height="24" viewBox="0 0 24 24" fill="none" xmlns="http://www.w3.org/2000/svg">
<path d="M2.25 19.4971C2.25 19.9113 2.58579 20.2471 3 20.2471H4.5C4.91421 20.2471 5.25 19.9113 5.25 19.4971V17.9971C5.25 17.5829 4.91421 17.2471 4.5 17.2471H3C2.58579 17.2471 2.25 17.5829 2.25 17.9971V19.4971Z" stroke="black" stroke-width="1.5"/>
<path d="M8.75366 19.4971C8.75366 19.9113 9.08945 20.2471 9.50366 20.2471H21C21.4142 20.2471 21.75 19.9113 21.75 19.4971V17.9971C21.75 17.5829 21.4142 17.2471 21 17.2471H9.50366C9.08945 17.2471 8.75366 17.5829 8.75366 17.9971V19.4971Z" stroke="black" stroke-width="1.5"/>
<path d="M8.75366 6.00195C8.75366 6.41617 9.08945 6.75195 9.50366 6.75195H21C21.4142 6.75195 21.75 6.41617 21.75 6.00195V4.50195C21.75 4.08774 21.4142 3.75195 21 3.75195H9.50366C9.08945 3.75195 8.75366 4.08774 8.75366 4.50195V6.00195Z" stroke="black" stroke-width="1.5"/>
<path d="M8.75366 12.75C8.75366 13.1642 9.08945 13.5 9.50366 13.5H21C21.4142 13.5 21.75 13.1642 21.75 12.75V11.25C21.75 10.8358 21.4142 10.5 21 10.5H9.50366C9.08945 10.5 8.75366 10.8358 8.75366 11.25V12.75Z" stroke="black" stroke-width="1.5"/>
<path d="M2.25 12.7495C2.25 13.1637 2.58579 13.4995 3 13.4995H4.5C4.91421 13.4995 5.25 13.1637 5.25 12.7495V11.2495C5.25 10.8353 4.91421 10.4995 4.5 10.4995H3C2.58579 10.4995 2.25 10.8353 2.25 11.2495V12.7495Z" stroke="black" stroke-width="1.5"/>
<path d="M2.25 6.00195C2.25 6.41617 2.58579 6.75195 3 6.75195H4.5C4.91421 6.75195 5.25 6.41617 5.25 6.00195V4.50195C5.25 4.08774 4.91421 3.75195 4.5 3.75195H3C2.58579 3.75195 2.25 4.08774 2.25 4.50195V6.00195Z" stroke="black" stroke-width="1.5"/>
</svg>
