<svg viewBox="0 0 24 24" fill="none" xmlns="http://www.w3.org/2000/svg" width="24" height="24">
<path d="M0 4.5C0 4.003 0.403 3.6 0.9 3.6H2.7C3.197 3.6 3.6 4.003 3.6 4.5V6.3C3.6 6.797 3.197 7.2 2.7 7.2H0.9C0.403 7.2 0 6.797 0 6.3V4.5Z" fill="black"/>
<path d="M0 11.1C0 10.603 0.403 10.2 0.9 10.2H2.7C3.197 10.2 3.6 10.603 3.6 11.1V12.9C3.6 13.397 3.197 13.8 2.7 13.8H0.9C0.403 13.8 0 13.397 0 12.9V11.1Z" fill="black"/>
<path d="M0 17.7C0 17.203 0.403 16.8 0.9 16.8H2.7C3.197 16.8 3.6 17.203 3.6 17.7V19.5C3.6 19.997 3.197 20.4 2.7 20.4H0.9C0.403 20.4 0 19.997 0 19.5V17.7Z" fill="black"/>
<path d="M4.8 4.5C4.8 4.003 5.203 3.6 5.7 3.6H23.1C23.597 3.6 24 4.003 24 4.5V6.3C24 6.797 23.597 7.2 23.1 7.2H5.7C5.203 7.2 4.8 6.797 4.8 6.3V4.5Z" fill="black"/>
<path d="M4.8 17.7C4.8 17.203 5.203 16.8 5.7 16.8H23.1C23.597 16.8 24 17.203 24 17.7V19.5C24 19.997 23.597 20.4 23.1 20.4H5.7C5.203 20.4 4.8 19.997 4.8 19.5V17.7Z" fill="black"/>
<path d="M4.8 11.1C4.8 10.603 5.203 10.2 5.7 10.2H23.1C23.597 10.2 24 10.603 24 11.1V12.9C24 13.397 23.597 13.8 23.1 13.8H5.7C5.203 13.8 4.8 13.397 4.8 12.9V11.1Z" fill="black"/>
</svg>