<svg xmlns="http://www.w3.org/2000/svg" width="24" height="24" fill="currentColor" viewBox="0 0 24 24"><path d="M19.29 3.293H4.71a1.416 1.416 0 0 0-1.417 1.417v14.58a1.416 1.416 0 0 0 1.417 1.417h14.58a1.416 1.416 0 0 0 1.417-1.417V4.71a1.416 1.416 0 0 0-1.417-1.417m0.203 1.417v6.683h-6.885V4.507h6.683a0.204 0.204 0 0 1 0.203 0.203zM4.71 4.507h6.683v6.886H4.507V4.71a0.204 0.204 0 0 1 0.203-0.203m-0.203 14.783v-6.683h6.886v6.886H4.71a0.204 0.204 0 0 1-0.203-0.203m14.783 0.203h-6.683v-6.885h6.886v6.683a0.204 0.204 0 0 1-0.203 0.203z"/></svg>