<svg viewBox="0 0 24 24" fill="none" xmlns="http://www.w3.org/2000/svg" width="24" height="24">
<path d="M21 7.198C21.331 7.198 21.6 7.466 21.6 7.798 21.6 8.129 21.331 8.398 21 8.398H6.6C6.268 8.398 6 8.129 6 7.798 6 7.466 6.268 7.198 6.6 7.198H21Z" fill="black"/>
<path d="M21 4.798C21.331 4.798 21.6 5.066 21.6 5.398 21.6 5.729 21.331 5.998 21 5.998H6.6C6.268 5.998 6 5.729 6 5.398 6 5.066 6.268 4.798 6.6 4.798H21Z" fill="black"/>
<path d="M21 18.002C21.331 18.002 21.6 18.271 21.6 18.602 21.6 18.934 21.331 19.202 21 19.202H6.6C6.268 19.202 6 18.934 6 18.602 6 18.271 6.268 18.002 6.6 18.002H21Z" fill="black"/>
<path d="M20.995 15.602C21.326 15.602 21.595 15.871 21.595 16.202 21.595 16.534 21.326 16.802 20.995 16.802H6.595C6.264 16.802 5.995 16.534 5.995 16.202 5.995 15.871 6.264 15.602 6.595 15.602H20.995Z" fill="black"/>
<path d="M2.4 13.798C2.4 13.466 2.669 13.198 3 13.198 3.332 13.198 3.6 13.466 3.6 13.798L3.6 21.002C3.6 21.334 3.332 21.602 3 21.602 2.669 21.602 2.4 21.334 2.4 21.002L2.4 13.798Z" fill="black"/>
<path d="M2.4 2.998C2.4 2.666 2.669 2.398 3 2.398 3.332 2.398 3.6 2.666 3.6 2.998L3.6 10.202C3.6 10.534 3.332 10.802 3 10.802 2.669 10.802 2.4 10.534 2.4 10.202L2.4 2.998Z" fill="black"/>
</svg>