<svg width="24" height="24" viewBox="0 0 24 24" fill="none" xmlns="http://www.w3.org/2000/svg">
<path d="M18.75 11.2524V19.575C18.75 19.9478 18.4478 20.25 18.075 20.25H5.925C5.55221 20.25 5.25 19.9478 5.25 19.575V11.2524M15.25 14.25H8.75M15.25 17.25H8.75M15.25 11.25H8.75M18.7471 7.48289C18.5123 7.79592 18.185 8.02714 17.8115 8.14381C17.4381 8.26048 17.0373 8.25668 16.6661 8.13294C16.2949 8.00921 15.972 7.77181 15.7433 7.45439C15.5145 7.13696 15.3914 6.75559 15.3914 6.36431C15.3914 5.97302 15.5145 5.59165 15.7433 5.27423C15.972 4.9568 16.2949 4.71941 16.6661 4.59567C17.0373 4.47193 17.4381 4.46813 17.8115 4.5848C18.185 4.70147 18.5123 4.93269 18.7471 5.24572M8.75928 8.24805L7.00464 4.51943L5.25 8.24805M8.2432 7.15029H5.76587M10.677 6.24779H12.3665M10.677 6.24779V8.22861H12.483C12.7457 8.22861 12.9976 8.12427 13.1834 7.93853C13.3691 7.75279 13.4735 7.50087 13.4735 7.2382C13.4735 6.97553 13.3691 6.72361 13.1834 6.53787C12.9976 6.35213 12.7457 6.24779 12.483 6.24779H12.3665M10.677 6.24779V4.5H12.3665C12.5983 4.5 12.8206 4.59207 12.9845 4.75596C13.1484 4.91984 13.2404 5.14212 13.2404 5.37389C13.2404 5.60566 13.1484 5.82794 12.9845 5.99183C12.8206 6.15572 12.5983 6.24779 12.3665 6.24779" stroke="black" stroke-width="1.5" stroke-linecap="round" stroke-linejoin="round"/>
</svg>
