<svg viewBox="0 0 24 24" fill="none" xmlns="http://www.w3.org/2000/svg" width="24" height="24">
<path d="M20.997 13.209C21.328 13.209 21.597 12.941 21.597 12.609 21.597 12.278 21.328 12.009 20.997 12.009H6.596C6.265 12.009 5.996 12.278 5.996 12.609 5.996 12.941 6.265 13.209 6.596 13.209H20.997Z" fill="black"/>
<path d="M21 19.205C21.331 19.205 21.6 18.936 21.6 18.605 21.6 18.273 21.331 18.005 21 18.005H6.6C6.268 18.005 6 18.273 6 18.605 6 18.936 6.268 19.205 6.6 19.205H21Z" fill="black"/>
<path d="M20.396 7.205C21.058 7.205 21.596 6.667 21.596 6.005 21.596 5.342 21.058 4.805 20.396 4.805H7.196C6.533 4.805 5.996 5.342 5.996 6.005 5.996 6.667 6.533 7.205 7.196 7.205H20.396Z" fill="black"/>
<path d="M2.4 21C2.4 21.331 2.669 21.6 3 21.6 3.332 21.6 3.6 21.331 3.6 21L3.6 3C3.6 2.669 3.332 2.4 3 2.4 2.669 2.4 2.4 2.669 2.4 3L2.4 21Z" fill="black"/>
</svg>