<svg width="24" height="24" viewBox="0 0 24 24" fill="none" xmlns="http://www.w3.org/2000/svg">
<path d="M7.50026 17.7461C7.50026 17.3319 7.83604 16.9961 8.25026 16.9961H18.7503C19.1645 16.9961 19.5003 17.3319 19.5003 17.7461C19.5003 18.1603 19.1645 18.4961 18.7503 18.4961H8.25026C7.83604 18.4961 7.50026 18.1603 7.50026 17.7461Z" fill="black"/>
<path d="M4.50031 20L4.50026 4.00004M7.50026 7.00004L19.5002 6.99999M7.50026 12L19.5002 12M7.50026 17.7461C7.50026 17.3319 7.83604 16.9961 8.25026 16.9961H18.7503C19.1645 16.9961 19.5003 17.3319 19.5003 17.7461C19.5003 18.1603 19.1645 18.4961 18.7503 18.4961H8.25026C7.83604 18.4961 7.50026 18.1603 7.50026 17.7461Z" stroke="black" stroke-width="1.5" stroke-linecap="round"/>
</svg>
