<svg width="24" height="24" viewBox="0 0 24 24" fill="none" xmlns="http://www.w3.org/2000/svg">
<path d="M7.50026 6.25392C7.50026 6.66813 7.83604 7.00392 8.25026 7.00392H18.7503C19.1645 7.00392 19.5003 6.66813 19.5003 6.25392C19.5003 5.8397 19.1645 5.50392 18.7503 5.50392H8.25026C7.83604 5.50392 7.50026 5.8397 7.50026 6.25392Z" fill="black"/>
<path d="M4.50031 4.00001L4.50026 20M7.50026 17L19.5002 17M7.50026 12L19.5002 12M7.50026 6.25392C7.50026 6.66813 7.83604 7.00392 8.25026 7.00392H18.7503C19.1645 7.00392 19.5003 6.66813 19.5003 6.25392C19.5003 5.8397 19.1645 5.50392 18.7503 5.50392H8.25026C7.83604 5.50392 7.50026 5.8397 7.50026 6.25392Z" stroke="black" stroke-width="1.5" stroke-linecap="round"/>
</svg>
