<svg xmlns="http://www.w3.org/2000/svg" width="24" height="24" fill="currentColor" viewBox="0 0 24 24"><path d="M14.227 4.71V16.86a0.607 0.607 0 0 1-1.214 0v-5.467H3.697v5.467a0.608 0.608 0 0 1-1.215 0V4.71a0.608 0.608 0 0 1 1.215 0v5.467h9.316V4.71a0.607 0.607 0 0 1 1.214 0m9.113 14.783h-3.644l3.644-4.855a3.037 3.037 0 1 0-5.294-2.841 0.607 0.607 0 1 0 1.143 0.405 1.824 1.824 0 0 1 1.465-1.197 1.823 1.823 0 0 1 1.708 2.902l-4.368 5.828a0.607 0.607 0 0 0 0.486 0.972h4.86a0.607 0.607 0 0 0 0-1.214"/></svg>