<svg xmlns="http://www.w3.org/2000/svg" width="24" height="24" fill="currentColor" viewBox="0 0 24 24"><path d="M23.947 17.266a3.443 3.443 0 0 1-5.901 2.408 0.607 0.607 0 0 1 0.868-0.85 2.227 2.227 0 1 0 1.592-3.787 0.607 0.607 0 0 1-0.498-0.955l2.167-3.095h-3.694a0.607 0.607 0 0 1 0-1.214h4.86a0.607 0.607 0 0 1 0.497 0.955l-2.28 3.258a3.444 3.444 0 0 1 2.39 3.278zM13.62 4.103a0.607 0.607 0 0 0-0.607 0.607v5.467H3.697V4.71a0.608 0.608 0 0 0-1.215 0V16.86a0.608 0.608 0 0 0 1.215 0v-5.467h9.316v5.467a0.607 0.607 0 0 0 1.214 0V4.71a0.607 0.607 0 0 0-0.607-0.607"/></svg>