<svg xmlns="http://www.w3.org/2000/svg" width="24" height="24" fill="currentColor" viewBox="0 0 24 24"><path d="M14.227 4.71V16.86a0.607 0.607 0 0 1-1.214 0v-5.467H3.697v5.467a0.608 0.608 0 0 1-1.215 0V4.71a0.608 0.608 0 0 1 1.215 0v5.467h9.316V4.71a0.607 0.607 0 0 1 1.214 0m10.53 12.96a0.607 0.607 0 0 1-0.607 0.607h-1.013v1.823a0.607 0.607 0 0 1-1.214 0v-1.823H16.86a0.607 0.607 0 0 1-0.48-0.98l5.67-7.29a0.607 0.607 0 0 1 1.087 0.373v6.683h1.013a0.607 0.607 0 0 1 0.607 0.607m-2.835-5.519l-3.82 4.912h3.82z"/></svg>