<svg width="24" height="24" viewBox="0 0 24 24" fill="none" xmlns="http://www.w3.org/2000/svg">
<path d="M9.75 19.5C10.1642 19.5 10.5 19.1642 10.5 18.75V5.25C10.5 4.83579 10.1642 4.5 9.75 4.5H8.25C7.83579 4.5 7.5 4.83579 7.5 5.25V18.75C7.5 19.1642 7.83579 19.5 8.25 19.5H9.75Z" stroke="black" stroke-width="1.5"/>
<path d="M15.75 19.5C16.1642 19.5 16.5 19.1642 16.5 18.75V5.25C16.5 4.83579 16.1642 4.5 15.75 4.5H14.25C13.8358 4.5 13.5 4.83579 13.5 5.25V18.75C13.5 19.1642 13.8358 19.5 14.25 19.5H15.75Z" stroke="black" stroke-width="1.5"/>
</svg>
