<svg width="24" height="24" viewBox="0 0 24 24" fill="none" xmlns="http://www.w3.org/2000/svg">
<path d="M15.7496 7.125C15.7496 6.62772 15.9472 6.15081 16.2988 5.79917C16.6505 5.44754 17.1274 5.25 17.6246 5.25C18.1219 5.25 18.5988 5.44754 18.9505 5.79917C19.3021 6.15081 19.4996 6.62772 19.4996 7.125V14.25C19.4996 15.2349 19.3057 16.2102 18.9287 17.1201C18.5518 18.0301 17.9994 18.8569 17.3029 19.5533C16.6065 20.2497 15.7797 20.8022 14.8698 21.1791C13.9598 21.556 12.9846 21.75 11.9996 21.75C7.85777 21.75 6.30433 19.755 3.25089 13.3125C3.00618 12.8821 2.94164 12.3723 3.07137 11.8945C3.20109 11.4167 3.51455 11.0096 3.94334 10.762C4.37213 10.5144 4.88144 10.4465 5.36012 10.5731C5.8388 10.6996 6.24799 11.0104 6.49839 11.4375L8.24964 14.25V5.625C8.24964 5.12772 8.44719 4.65081 8.79882 4.29917C9.15045 3.94754 9.62736 3.75 10.1246 3.75C10.6219 3.75 11.0988 3.94754 11.4505 4.29917C11.8021 4.65081 11.9996 5.12772 11.9996 5.625M11.9995 11.25V4.125C11.9995 3.62772 12.1971 3.15081 12.5487 2.79917C12.9003 2.44754 13.3772 2.25 13.8745 2.25C14.3718 2.25 14.8487 2.44754 15.2003 2.79917C15.552 3.15081 15.7495 3.62772 15.7495 4.125V11.25" stroke="black" stroke-width="1.5" stroke-linecap="round" stroke-linejoin="round"/>
</svg>
