<svg xmlns="http://www.w3.org/2000/svg" width="24" height="24" fill="currentColor" viewBox="0 0 24 24"><path d="M9.367 5.116a1.013 1.013 0 1 1-1.013-1.013 1.013 1.013 0 0 1 1.013 1.013m6.277 1.012a1.013 1.013 0 1 0-1.012-1.012 1.013 1.013 0 0 0 1.012 1.012m-7.29 4.86a1.013 1.013 0 1 0 1.013 1.013 1.013 1.013 0 0 0-1.013-1.013m7.29 0a1.013 1.013 0 1 0 1.013 1.013 1.013 1.013 0 0 0-1.013-1.013m-7.29 6.886a1.013 1.013 0 1 0 1.013 1.013 1.013 1.013 0 0 0-1.013-1.013m7.29 0a1.013 1.013 0 1 0 1.013 1.013 1.013 1.013 0 0 0-1.013-1.013"/></svg>