<svg width="24" height="24" viewBox="0 0 24 24" fill="none" xmlns="http://www.w3.org/2000/svg">
<path d="M18 12C18 12.2071 17.8321 12.375 17.625 12.375C17.4179 12.375 17.25 12.2071 17.25 12C17.25 11.7929 17.4179 11.625 17.625 11.625C17.8321 11.625 18 11.7929 18 12Z" fill="black"/>
<path d="M21 6.75H3C2.58579 6.75 2.25 7.08579 2.25 7.5V16.5C2.25 16.9142 2.58579 17.25 3 17.25H21C21.4142 17.25 21.75 16.9142 21.75 16.5V7.5C21.75 7.08579 21.4142 6.75 21 6.75Z" stroke="black" stroke-width="1.5" stroke-linecap="round" stroke-linejoin="round"/>
<path d="M18 12C18 12.2071 17.8321 12.375 17.625 12.375C17.4179 12.375 17.25 12.2071 17.25 12C17.25 11.7929 17.4179 11.625 17.625 11.625C17.8321 11.625 18 11.7929 18 12Z" stroke="black" stroke-width="1.5" stroke-linecap="round" stroke-linejoin="round"/>
</svg>
