<svg width="24" height="24" viewBox="0 0 24 24" fill="none" xmlns="http://www.w3.org/2000/svg">
<path d="M11.9996 5.25C11.1712 5.25 10.4996 5.92157 10.4996 6.75C10.4996 7.57843 11.1712 8.25 11.9996 8.25C12.828 8.25 13.4996 7.57843 13.4996 6.75C13.4996 5.92157 12.828 5.25 11.9996 5.25ZM11.9996 5.25V2.28653M11.2496 20.25H6.74957C6.55066 20.25 6.35989 20.171 6.21924 20.0303C6.07859 19.8897 5.99957 19.6989 5.99957 19.5V16.1072L3.41394 14.9231C3.2431 14.8375 3.11138 14.6899 3.0457 14.5104C2.98001 14.331 2.98531 14.1332 3.06051 13.9575L5.24957 9.75C5.24957 8.47158 5.57636 7.21437 6.19891 6.09777C6.82145 4.98116 7.71909 4.04223 8.80659 3.37012C9.89408 2.69801 11.1353 2.31504 12.4125 2.25758C13.6896 2.20012 14.9602 2.47007 16.1037 3.0418C17.2471 3.61353 18.2255 4.46805 18.9458 5.52424C19.6661 6.58042 20.1045 7.8032 20.2193 9.07646C20.3341 10.3497 20.1215 11.6312 19.6018 12.7992C19.082 13.9672 18.2723 14.9829 17.2496 15.75L17.9996 21.75M20.0977 8.25H17.2496L14.4596 11.5978M14.9996 12.75C14.9996 13.5784 14.328 14.25 13.4996 14.25C12.6712 14.25 11.9996 13.5784 11.9996 12.75C11.9996 11.9216 12.6712 11.25 13.4996 11.25C14.328 11.25 14.9996 11.9216 14.9996 12.75Z" stroke="black" stroke-width="1.5" stroke-linecap="round" stroke-linejoin="round"/>
</svg>
