<svg xmlns="http://www.w3.org/2000/svg" width="24" height="24" fill="currentColor" viewBox="0 0 24 24"><path d="M21.59 5.916l-8.91-4.878a1.404 1.404 0 0 0-1.36 0L2.41 5.916a1.416 1.416 0 0 0-0.737 1.242v9.684a1.416 1.416 0 0 0 0.737 1.242l8.91 4.878a1.416 1.416 0 0 0 1.36 0l8.91-4.878a1.416 1.416 0 0 0 0.737-1.242v-9.684a1.416 1.416 0 0 0-0.737-1.242m-0.477 10.926a0.204 0.204 0 0 1-0.101 0.178l-8.91 4.878a0.204 0.204 0 0 1-0.194 0l-8.919-4.878a0.204 0.204 0 0 1-0.101-0.178v-9.684a0.204 0.204 0 0 1 0.101-0.178l8.91-4.878a0.204 0.204 0 0 1 0.195 0l8.91 4.878a0.204 0.204 0 0 1 0.1 0.178z"/></svg>