<svg xmlns="http://www.w3.org/2000/svg" width="24" height="24" fill="currentColor" viewBox="0 0 24 24"><path d="M19.302 4.697a10.327 10.327 0 1 0-14.604 14.605 10.327 10.327 0 1 0 14.604-14.605m-10.745 15.744v-6.011a0.204 0.204 0 0 1 0.203-0.203h6.48a0.204 0.204 0 0 1 0.203 0.203v6.011a9.168 9.168 0 0 1-6.886 0m5.266-7.429h-3.646V9.134l3.645-1.822z m4.621 5.431a9.24 9.24 0 0 1-1.786 1.392v-5.406a1.416 1.416 0 0 0-1.417-1.417h-0.203V6.329a0.607 0.607 0 0 0-0.878-0.544L9.3 8.215a0.612 0.612 0 0 0-0.336 0.544v4.253h-0.203a1.416 1.416 0 0 0-1.417 1.417v5.406a9.24 9.24 0 0 1-1.786-1.392 9.113 9.113 0 1 1 12.887 0z"/></svg>