<svg width="24" height="24" viewBox="0 0 24 24" fill="none" xmlns="http://www.w3.org/2000/svg">
<path d="M8.25 12L2.25 18L9 20.25L12.75 16.5M17.2499 15L14.7805 17.4694C14.7109 17.5391 14.6281 17.5944 14.5371 17.6322C14.446 17.6699 14.3484 17.6893 14.2499 17.6893C14.1513 17.6893 14.0537 17.6699 13.9627 17.6322C13.8716 17.5944 13.7889 17.5391 13.7193 17.4694L7.28051 11.0306C7.21078 10.961 7.15546 10.8783 7.11772 10.7872C7.07997 10.6962 7.06055 10.5986 7.06055 10.5C7.06055 10.4014 7.07997 10.3038 7.11772 10.2128C7.15546 10.1217 7.21078 10.039 7.28051 9.96937L9.74989 7.5M23.2499 10.5L18.5305 15.2194C18.4609 15.2891 18.3781 15.3444 18.2871 15.3822C18.196 15.4199 18.0984 15.4393 17.9999 15.4393C17.9013 15.4393 17.8037 15.4199 17.7127 15.3822C17.6216 15.3444 17.5389 15.2891 17.4693 15.2194L9.53051 7.28063C9.46078 7.21097 9.40546 7.12825 9.36772 7.03721C9.32997 6.94616 9.31055 6.84856 9.31055 6.75C9.31055 6.65144 9.32997 6.55384 9.36772 6.46279C9.40546 6.37175 9.46078 6.28903 9.53051 6.21937L14.2499 1.5" stroke="black" stroke-width="1.5" stroke-linecap="round" stroke-linejoin="round"/>
</svg>
