<svg xmlns="http://www.w3.org/2000/svg" width="24" height="24" fill="currentColor" viewBox="0 0 24 24"><path d="M21.102 10.188l-8.1-8.1a1.416 1.416 0 0 0-2.005 0l-8.1 8.1a1.416 1.416 0 0 0-0.415 1.002v9.72a0.607 0.607 0 0 0 0.607 0.607h6.48a0.607 0.607 0 0 0 0.607-0.607v-5.873h3.644v5.873a0.607 0.607 0 0 0 0.608 0.607h6.48a0.607 0.607 0 0 0 0.607-0.607v-9.72a1.416 1.416 0 0 0-0.415-1.002z m-0.8 10.115h-5.265v-5.873a0.607 0.607 0 0 0-0.607-0.607h-4.86a0.607 0.607 0 0 0-0.607 0.607v5.873H3.697v-9.113a0.204 0.204 0 0 1 0.059-0.144l8.1-8.1a0.204 0.204 0 0 1 0.288 0l8.1 8.1a0.204 0.204 0 0 1 0.059 0.144z"/></svg>