<svg width="24" height="24" viewBox="0 0 24 24" fill="none" xmlns="http://www.w3.org/2000/svg">
<path d="M9.75 20.2506V14.2506H14.25V20.2506H20.25V11.2506C20.2501 11.1521 20.2307 11.0545 20.1931 10.9635C20.1555 10.8724 20.1003 10.7897 20.0306 10.72L12.5306 3.21996C12.461 3.15023 12.3783 3.09491 12.2872 3.05717C12.1962 3.01943 12.0986 3 12 3C11.9014 3 11.8038 3.01943 11.7128 3.05717C11.6217 3.09491 11.539 3.15023 11.4694 3.21996L3.96938 10.72C3.89975 10.7897 3.84454 10.8724 3.8069 10.9635C3.76926 11.0545 3.74992 11.1521 3.75 11.2506V20.2506H9.75Z" stroke="black" stroke-width="1.5" stroke-linecap="round" stroke-linejoin="round"/>
</svg>
