<svg width="24" height="24" viewBox="0 0 24 24" fill="none" xmlns="http://www.w3.org/2000/svg">
<path d="M3.75 12C3.75 12.4137 4.08539 12.7491 4.49913 12.7491H19.5009C19.9146 12.7491 20.25 12.4137 20.25 12C20.25 11.5862 19.9146 11.2509 19.5009 11.2509H4.49913C4.0854 11.2509 3.75 11.5862 3.75 12Z" fill="black"/>
<path d="M3.75 6H13.5M3.75 18H13.5M4.49913 12.7491H19.5009C19.9146 12.7491 20.25 12.4137 20.25 12C20.25 11.5862 19.9146 11.2509 19.5009 11.2509H4.49913C4.0854 11.2509 3.75 11.5862 3.75 12C3.75 12.4137 4.08539 12.7491 4.49913 12.7491Z" stroke="black" stroke-width="1.5" stroke-linecap="round" stroke-linejoin="round"/>
</svg>
