<svg width="24" height="24" viewBox="0 0 24 24" fill="none" xmlns="http://www.w3.org/2000/svg">
<path d="M10.125 15.1772C10.4469 15.4651 10.8449 15.6543 11.2715 15.7221C11.698 15.79 12.1351 15.7336 12.5304 15.5598C12.9258 15.386 13.2628 15.102 13.5012 14.7419C13.7396 14.3817 13.8692 13.9605 13.8747 13.5287C13.8802 13.0968 13.7613 12.6725 13.5321 12.3064C13.303 11.9403 12.9733 11.6478 12.5825 11.464C12.1917 11.2802 11.7562 11.2128 11.3281 11.2697C10.9 11.3267 10.4973 11.5057 10.1681 11.7853L10.875 8.25002H13.875M20.25 10.5V5.25C20.25 5.05109 20.171 4.86032 20.0303 4.71967C19.8897 4.57902 19.6989 4.5 19.5 4.5H4.5C4.30109 4.5 4.11032 4.57902 3.96967 4.71967C3.82902 4.86032 3.75 5.05109 3.75 5.25V10.5C3.75 19.5 12 21.75 12 21.75C12 21.75 20.25 19.5 20.25 10.5Z" stroke="black" stroke-width="1.5" stroke-linecap="round" stroke-linejoin="round"/>
</svg>
