<svg xmlns="http://www.w3.org/2000/svg" width="24" height="24" fill="currentColor" viewBox="0 0 24 24"><path d="M21.517 9.57a0.607 0.607 0 0 1-1.214 0V4.558l-7.062 7.062a0.607 0.607 0 0 1-0.859-0.86l7.06-7.063h-5.012a0.608 0.608 0 0 1 0-1.215h6.48a0.607 0.607 0 0 1 0.607 0.607z m-3.847 2.633a0.607 0.607 0 0 0-0.607 0.607v7.29a0.204 0.204 0 0 1-0.203 0.203H3.9a0.204 0.204 0 0 1-0.203-0.203V7.14a0.204 0.204 0 0 1 0.203-0.203h7.29a0.608 0.608 0 0 0 0-1.215H3.9a1.416 1.416 0 0 0-1.417 1.417v12.96A1.416 1.416 0 0 0 3.9 21.516h12.96a1.416 1.416 0 0 0 1.417-1.417v-7.29a0.607 0.607 0 0 0-0.607-0.607z"/></svg>