<svg width="24" height="24" viewBox="0 0 24 24" fill="none" xmlns="http://www.w3.org/2000/svg">
<path d="M6.75012 18.75L15.0095 10.6728C15.0655 10.618 15.1319 10.5746 15.2051 10.5449C15.2782 10.5153 15.3566 10.5 15.4358 10.5C15.515 10.5 15.5934 10.5153 15.6666 10.5449C15.7397 10.5746 15.8062 10.618 15.8622 10.6728L18.7501 13.4976M9.75 2.25H14.25M21.75 9.75V14.25M9.75 21.75H14.25M2.25 9.75V14.25M2.25 5.25V3C2.25 2.58579 2.58579 2.25 3 2.25H5.25M18.75 2.25L21 2.25C21.4142 2.25 21.75 2.58579 21.75 3V5.25M21.75 18.75V21C21.75 21.4142 21.4142 21.75 21 21.75H18.75M5.25 21.75H3C2.58579 21.75 2.25 21.4142 2.25 21L2.25 18.75M5.86382 5.25H18.1365C18.4754 5.25 18.7502 5.52473 18.7502 5.86364V18.1364C18.7502 18.4753 18.4754 18.75 18.1365 18.75H5.86382C5.52492 18.75 5.25018 18.4753 5.25018 18.1364V5.86364C5.25018 5.52473 5.52492 5.25 5.86382 5.25ZM11.0884 9.58852C11.0884 10.417 10.4169 11.0885 9.58844 11.0885C8.76001 11.0885 8.08844 10.417 8.08844 9.58852C8.08844 8.76008 8.76001 8.0885 9.58844 8.0885C10.4169 8.0885 11.0884 8.76008 11.0884 9.58852Z" stroke="black" stroke-width="1.5" stroke-linecap="round" stroke-linejoin="round"/>
</svg>
