<svg xmlns="http://www.w3.org/2000/svg" width="24" height="24" fill="currentColor" viewBox="0 0 24 24"><path d="M20.91 3.293H3.09a1.416 1.416 0 0 0-1.417 1.417v14.58a1.416 1.416 0 0 0 1.417 1.417h17.82a1.416 1.416 0 0 0 1.417-1.417V4.71a1.416 1.416 0 0 0-1.417-1.417M3.09 4.508h17.82a0.204 0.204 0 0 1 0.203 0.203v10.891l-2.985-2.984a1.416 1.416 0 0 0-2.005 0l-2.168 2.168-4.597-4.598a1.416 1.416 0 0 0-2.006 0l-4.465 4.465V4.71a0.204 0.204 0 0 1 0.203-0.203z m-0.203 14.783v-2.919l5.323-5.324a0.204 0.204 0 0 1 0.288 0l8.446 8.446H3.09a0.204 0.204 0 0 1-0.203-0.203m18.023 0.203h-2.248l-3.847-3.847 2.167-2.169a0.204 0.204 0 0 1 0.287 0l3.847 3.848v1.966a0.204 0.204 0 0 1-0.206 0.203z m-7.087-10.327a1.013 1.013 0 1 1 1.013 1.013 1.013 1.013 0 0 1-1.013-1.013"/></svg>