<svg width="24" height="24" viewBox="0 0 24 24" fill="none" xmlns="http://www.w3.org/2000/svg">
<path d="M13.2805 14.8445C12.9875 15.1372 12.9872 15.6121 13.2799 15.9051C13.5726 16.1982 14.0475 16.1985 14.3406 15.9058L13.8105 15.3751L13.2805 14.8445ZM16.219 12.9695L16.749 13.5001L16.7491 13.5L16.219 12.9695ZM17.2793 12.9695L17.8098 12.4394L17.8095 12.439L17.2793 12.9695ZM20.4697 17.2234C20.7625 17.5164 21.2374 17.5166 21.5304 17.2238C21.8234 16.931 21.8235 16.4561 21.5308 16.1631L21.0002 16.6932L20.4697 17.2234ZM2.46962 15.284C2.17675 15.5769 2.1768 16.0518 2.46972 16.3447C2.76264 16.6375 3.23751 16.6375 3.53038 16.3446L3 15.8143L2.46962 15.284ZM8.09437 10.719L8.62475 11.2493L8.625 11.249L8.09437 10.719ZM9.15563 10.719L8.625 11.249L8.62527 11.2493L9.15563 10.719ZM17.405 20.0299C17.6978 20.3228 18.1727 20.3229 18.4656 20.03C18.7585 19.7371 18.7585 19.2622 18.4657 18.9693L17.9353 19.4996L17.405 20.0299ZM3.75 4.5V5.25H20.25V4.5V3.75H3.75V4.5ZM20.25 4.5V5.25H21H21.75C21.75 4.42157 21.0784 3.75 20.25 3.75V4.5ZM21 5.25H20.25V18.75H21H21.75V5.25H21ZM21 18.75H20.25V19.5V20.25C21.0784 20.25 21.75 19.5784 21.75 18.75H21ZM20.25 19.5V18.75H3.75V19.5V20.25H20.25V19.5ZM3.75 19.5V18.75H3H2.25C2.25 19.5784 2.92157 20.25 3.75 20.25V19.5ZM3 18.75H3.75V5.25H3H2.25V18.75H3ZM3 5.25H3.75V4.5V3.75C2.92157 3.75 2.25 4.42157 2.25 5.25H3ZM15 9.375H14.25C14.25 9.16789 14.4179 9 14.625 9V9.75V10.5C15.2463 10.5 15.75 9.99632 15.75 9.375H15ZM14.625 9.75V9C14.8321 9 15 9.16789 15 9.375H14.25H13.5C13.5 9.99632 14.0037 10.5 14.625 10.5V9.75ZM14.25 9.375H15C15 9.58211 14.8321 9.75 14.625 9.75V9V8.25C14.0037 8.25 13.5 8.75368 13.5 9.375H14.25ZM14.625 9V9.75C14.4179 9.75 14.25 9.58211 14.25 9.375H15H15.75C15.75 8.75368 15.2463 8.25 14.625 8.25V9ZM13.8105 15.3751L14.3406 15.9058L16.749 13.5001L16.219 12.9695L15.689 12.4389L13.2805 14.8445L13.8105 15.3751ZM16.219 12.9695L16.7491 13.5V13.5V12.75V12C16.3515 12 15.9701 12.1579 15.6888 12.439L16.219 12.9695ZM16.7491 12.75V13.5V13.5L17.2793 12.9695L17.8095 12.439C17.5282 12.1579 17.1468 12 16.7491 12V12.75ZM17.2793 12.9695L16.7488 13.4996L20.4697 17.2234L21.0002 16.6932L21.5308 16.1631L17.8098 12.4394L17.2793 12.9695ZM3 15.8143L3.53038 16.3446L8.62475 11.2493L8.09437 10.719L7.564 10.1887L2.46962 15.284L3 15.8143ZM8.09437 10.719L8.625 11.249H8.625L8.33779 10.5562L8.05059 9.86336C7.86849 9.93885 7.70306 10.0495 7.56375 10.189L8.09437 10.719ZM8.33779 10.5562L8.625 11.249V11.249V10.499V9.74902C8.42788 9.74902 8.23269 9.78788 8.05059 9.86336L8.33779 10.5562ZM8.625 10.499V11.249V11.249L8.91221 10.5562L9.19941 9.86336C9.01731 9.78788 8.82212 9.74902 8.625 9.74902V10.499ZM8.91221 10.5562L8.625 11.249H8.625L9.15563 10.719L9.68625 10.189C9.54694 10.0495 9.38151 9.93885 9.19941 9.86336L8.91221 10.5562ZM9.15563 10.719L8.62527 11.2493L17.405 20.0299L17.9353 19.4996L18.4657 18.9693L9.68598 10.1887L9.15563 10.719Z" fill="black"/>
</svg>
