<svg viewBox="0 0 24 24" fill="none" xmlns="http://www.w3.org/2000/svg" width="24" height="24">
<path d="M1.2 18.273C1.531 18.273 1.8 18.542 1.8 18.873V21.818C1.8 21.919 1.84 22.017 1.911 22.089 1.983 22.16 2.081 22.2 2.182 22.2H5.127C5.458 22.2 5.727 22.469 5.727 22.8 5.727 23.131 5.458 23.4 5.127 23.4H2.182C1.763 23.4 1.36 23.234 1.063 22.937 0.766 22.641 0.6 22.237 0.6 21.818V18.873C0.6 18.542 0.869 18.273 1.2 18.273ZM22.8 18.273C23.131 18.273 23.4 18.542 23.4 18.873V21.818C23.4 22.237 23.234 22.641 22.937 22.937 22.641 23.234 22.237 23.4 21.818 23.4H18.873C18.542 23.4 18.273 23.131 18.273 22.8 18.273 22.469 18.542 22.2 18.873 22.2H21.818C21.919 22.2 22.017 22.16 22.089 22.089 22.16 22.017 22.2 21.919 22.2 21.818V18.873C22.2 18.542 22.469 18.273 22.8 18.273ZM19.091 3.6C19.814 3.6 20.4 4.186 20.4 4.909V19.091C20.4 19.814 19.814 20.4 19.091 20.4H4.909C4.186 20.4 3.6 19.814 3.6 19.091V4.909C3.6 4.186 4.186 3.6 4.909 3.6H19.091ZM4.909 4.8C4.849 4.8 4.8 4.849 4.8 4.909V19.091C4.8 19.151 4.849 19.2 4.909 19.2H5.43L14.973 9.655V9.656C15.095 9.535 15.24 9.437 15.398 9.371 15.557 9.306 15.728 9.272 15.9 9.272 16.072 9.272 16.242 9.306 16.4 9.371 16.559 9.437 16.703 9.535 16.825 9.656L16.826 9.655 19.2 12.029V4.909C19.2 4.849 19.151 4.8 19.091 4.8H4.909ZM15.858 10.48C15.845 10.485 15.833 10.494 15.823 10.503L7.127 19.2H19.091C19.151 19.2 19.2 19.151 19.2 19.091V13.726L15.977 10.503H15.976C15.966 10.494 15.954 10.485 15.941 10.48 15.928 10.475 15.914 10.472 15.9 10.472 15.886 10.472 15.871 10.475 15.858 10.48ZM9.163 7.146C10.277 7.146 11.181 8.05 11.181 9.164 11.181 10.278 10.277 11.182 9.163 11.182 8.049 11.182 7.145 10.278 7.145 9.164 7.145 8.05 8.049 7.146 9.163 7.146ZM9.163 8.346C8.711 8.346 8.345 8.713 8.345 9.164 8.345 9.615 8.712 9.982 9.163 9.982 9.615 9.982 9.981 9.616 9.981 9.164 9.981 8.712 9.615 8.346 9.163 8.346ZM5.127 0.6C5.458 0.6 5.727 0.869 5.727 1.2 5.727 1.531 5.458 1.8 5.127 1.8H2.182C2.081 1.8 1.983 1.84 1.911 1.911 1.84 1.983 1.8 2.081 1.8 2.182V5.127C1.8 5.458 1.531 5.727 1.2 5.727 0.869 5.727 0.6 5.458 0.6 5.127V2.182C0.6 1.763 0.766 1.36 1.063 1.063 1.36 0.766 1.763 0.6 2.182 0.6H5.127ZM21.818 0.6C22.237 0.6 22.641 0.766 22.937 1.063 23.234 1.36 23.4 1.763 23.4 2.182V5.127C23.4 5.458 23.131 5.727 22.8 5.727 22.469 5.727 22.2 5.458 22.2 5.127V2.182C22.2 2.081 22.16 1.983 22.089 1.911 22.017 1.84 21.919 1.8 21.818 1.8H18.873C18.542 1.8 18.273 1.531 18.273 1.2 18.273 0.869 18.542 0.6 18.873 0.6H21.818Z" fill="black"/>
</svg>