<svg width="24" height="24" viewBox="0 0 24 24" fill="none" xmlns="http://www.w3.org/2000/svg">
<path d="M3 17.2275C3.27614 17.2275 3.5 17.4514 3.5 17.7275V20.1816C3.50006 20.2659 3.53324 20.3476 3.59277 20.4072C3.65243 20.4668 3.73403 20.5 3.81836 20.5H6.27246C6.54851 20.5 6.77232 20.724 6.77246 21C6.77233 21.276 6.54852 21.5 6.27246 21.5H3.81836C3.46881 21.5 3.13294 21.3614 2.88574 21.1143C2.63868 20.8671 2.50006 20.5311 2.5 20.1816V17.7275C2.5 17.4514 2.72386 17.2275 3 17.2275ZM21 17.2275C21.276 17.2277 21.5 17.4515 21.5 17.7275V20.1816C21.4999 20.5312 21.3614 20.8671 21.1143 21.1143C20.8671 21.3614 20.5312 21.4999 20.1816 21.5H17.7275C17.4515 21.5 17.2277 21.276 17.2275 21C17.2277 20.724 17.4515 20.5 17.7275 20.5H20.1816C20.2659 20.4999 20.3476 20.4668 20.4072 20.4072C20.4668 20.3476 20.4999 20.2659 20.5 20.1816V17.7275C20.5 17.4515 20.724 17.2277 21 17.2275ZM17.9092 5C18.5116 5.00005 19 5.4884 19 6.09082V17.9092C19 18.5116 18.5116 19 17.9092 19H6.09082C5.4884 19 5.00005 18.5116 5 17.9092V6.09082C5.00005 5.4884 5.4884 5.00005 6.09082 5H17.9092ZM6.09082 6C6.04068 6.00005 6.00005 6.04068 6 6.09082V17.9092C6.00005 17.9593 6.04068 18 6.09082 18H6.52539L14.4775 10.0459V10.0469C14.5788 9.9455 14.6997 9.86447 14.832 9.80957C14.9643 9.75476 15.1068 9.72661 15.25 9.72656C15.393 9.72661 15.5349 9.75493 15.667 9.80957C15.7992 9.86436 15.9193 9.94572 16.0205 10.0469L16.0215 10.0459L18 12.0244V6.09082C18 6.04068 17.9593 6.00005 17.9092 6H6.09082ZM15.2148 10.7334C15.204 10.7379 15.1939 10.7447 15.1855 10.7529L7.93945 18H17.9092C17.9593 18 18 17.9593 18 17.9092V13.4385L15.3145 10.7529H15.3135C15.3052 10.7448 15.2949 10.7379 15.2842 10.7334C15.2734 10.729 15.2616 10.7266 15.25 10.7266C15.2382 10.7266 15.2258 10.7289 15.2148 10.7334ZM9.63574 7.95508C10.5645 7.95508 11.3173 8.70796 11.3174 9.63672C11.3171 10.5653 10.5644 11.3184 9.63574 11.3184C8.70734 11.318 7.95437 10.5651 7.9541 9.63672C7.9542 8.70816 8.70724 7.95541 9.63574 7.95508ZM9.63574 8.95508C9.25952 8.9554 8.9542 9.26044 8.9541 9.63672C8.95437 10.0129 9.25962 10.318 9.63574 10.3184C10.0121 10.3184 10.3171 10.0131 10.3174 9.63672C10.3173 9.26024 10.0122 8.95508 9.63574 8.95508ZM6.27246 2.5C6.5486 2.5 6.77246 2.72386 6.77246 3C6.77246 3.27614 6.5486 3.5 6.27246 3.5H3.81836C3.73397 3.5 3.65244 3.5331 3.59277 3.59277C3.5331 3.65244 3.5 3.73397 3.5 3.81836V6.27246C3.5 6.5486 3.27614 6.77246 3 6.77246C2.72386 6.77246 2.5 6.5486 2.5 6.27246V3.81836C2.5 3.46876 2.63854 3.13295 2.88574 2.88574C3.13295 2.63854 3.46876 2.5 3.81836 2.5H6.27246ZM20.1816 2.5C20.5311 2.50006 20.8671 2.63868 21.1143 2.88574C21.3614 3.13294 21.5 3.46881 21.5 3.81836V6.27246C21.5 6.54852 21.276 6.77233 21 6.77246C20.724 6.77232 20.5 6.54851 20.5 6.27246V3.81836C20.5 3.73403 20.4668 3.65243 20.4072 3.59277C20.3476 3.53324 20.2659 3.50006 20.1816 3.5H17.7275C17.4514 3.5 17.2275 3.27614 17.2275 3C17.2275 2.72386 17.4514 2.5 17.7275 2.5H20.1816Z" fill="black"/>
</svg>
