<svg viewBox="0 0 24 24" fill="none" xmlns="http://www.w3.org/2000/svg" width="24" height="24">
<path d="M1.2 18.825C1.531 18.825 1.8 19.094 1.8 19.425V21.9C1.8 22.066 1.934 22.2 2.1 22.2H4.575C4.906 22.2 5.175 22.469 5.175 22.8 5.175 23.131 4.906 23.4 4.575 23.4H2.1C1.272 23.4 0.6 22.728 0.6 21.9V19.425C0.6 19.094 0.869 18.825 1.2 18.825ZM14.475 22.2C14.806 22.2 15.075 22.469 15.075 22.8 15.075 23.131 14.806 23.4 14.475 23.4H9.525C9.194 23.4 8.925 23.131 8.925 22.8 8.925 22.469 9.194 22.2 9.525 22.2H14.475ZM22.8 18.825C23.131 18.825 23.4 19.094 23.4 19.425V21.9C23.4 22.728 22.728 23.4 21.9 23.4H19.425C19.094 23.4 18.825 23.131 18.825 22.8 18.825 22.469 19.094 22.2 19.425 22.2H21.9C22.066 22.2 22.2 22.066 22.2 21.9V19.425C22.2 19.094 22.469 18.825 22.8 18.825ZM19.091 3.6C19.814 3.6 20.4 4.186 20.4 4.909V19.091C20.4 19.814 19.814 20.4 19.091 20.4H4.909C4.186 20.4 3.6 19.814 3.6 19.091V4.909C3.6 4.186 4.186 3.6 4.909 3.6H19.091ZM4.909 4.8C4.849 4.8 4.8 4.849 4.8 4.909V19.091C4.8 19.151 4.849 19.2 4.909 19.2H5.43L14.973 9.655V9.656C15.095 9.535 15.24 9.437 15.398 9.371 15.557 9.306 15.728 9.272 15.9 9.272 16.072 9.272 16.242 9.306 16.4 9.371 16.559 9.437 16.703 9.535 16.825 9.656L16.826 9.655 19.2 12.029V4.909C19.2 4.849 19.151 4.8 19.091 4.8H4.909ZM15.858 10.48C15.845 10.485 15.833 10.494 15.823 10.503L7.127 19.2H19.091C19.151 19.2 19.2 19.151 19.2 19.091V13.726L15.977 10.503H15.976C15.966 10.494 15.954 10.485 15.941 10.48 15.928 10.475 15.914 10.472 15.9 10.472 15.886 10.472 15.871 10.475 15.858 10.48ZM1.2 8.925C1.531 8.925 1.8 9.194 1.8 9.525V14.475C1.8 14.806 1.531 15.075 1.2 15.075 0.869 15.075 0.6 14.806 0.6 14.475V9.525C0.6 9.194 0.869 8.925 1.2 8.925ZM22.8 8.925C23.131 8.925 23.4 9.194 23.4 9.525V14.475C23.4 14.806 23.131 15.075 22.8 15.075 22.469 15.075 22.2 14.806 22.2 14.475V9.525C22.2 9.194 22.469 8.925 22.8 8.925ZM9.163 7.146C10.277 7.146 11.181 8.05 11.181 9.164 11.181 10.278 10.277 11.182 9.163 11.182 8.049 11.182 7.145 10.278 7.145 9.164 7.145 8.05 8.049 7.146 9.163 7.146ZM9.163 8.346C8.711 8.346 8.345 8.713 8.345 9.164 8.345 9.615 8.712 9.982 9.163 9.982 9.615 9.982 9.981 9.616 9.981 9.164 9.981 8.712 9.615 8.346 9.163 8.346ZM4.575 0.6C4.906 0.6 5.175 0.869 5.175 1.2 5.175 1.531 4.906 1.8 4.575 1.8H2.1C1.934 1.8 1.8 1.934 1.8 2.1V4.575C1.8 4.906 1.531 5.175 1.2 5.175 0.869 5.175 0.6 4.906 0.6 4.575V2.1C0.6 1.272 1.272 0.6 2.1 0.6H4.575ZM21.9 0.6C22.728 0.6 23.4 1.272 23.4 2.1V4.575C23.4 4.906 23.131 5.175 22.8 5.175 22.469 5.175 22.2 4.906 22.2 4.575V2.1C22.2 1.934 22.066 1.8 21.9 1.8H19.425C19.094 1.8 18.825 1.531 18.825 1.2 18.825 0.869 19.094 0.6 19.425 0.6H21.9ZM14.475 0.6C14.806 0.6 15.075 0.869 15.075 1.2 15.075 1.531 14.806 1.8 14.475 1.8H9.525C9.194 1.8 8.925 1.531 8.925 1.2 8.925 0.869 9.194 0.6 9.525 0.6H14.475Z" fill="black"/>
</svg>