<svg xmlns="http://www.w3.org/2000/svg" width="24" height="24" fill="currentColor" viewBox="0 0 24 24"><path d="M20.1 2.483H3.9A1.416 1.416 0 0 0 2.483 3.9v16.2a1.416 1.416 0 0 0 1.417 1.417h16.2a1.416 1.416 0 0 0 1.417-1.417V3.9a1.416 1.416 0 0 0-1.417-1.417M3.9 3.697h16.2a0.204 0.204 0 0 1 0.203 0.203v10.733H17.196a1.416 1.416 0 0 0-1.002 0.415l-1.955 1.955a0.204 0.204 0 0 1-0.143 0.06h-4.189a0.204 0.204 0 0 1-0.143-0.059l-1.954-1.956a1.416 1.416 0 0 0-1.002-0.415H3.701V3.9a0.204 0.204 0 0 1 0.203-0.203z m16.2 16.606H3.9a0.204 0.204 0 0 1-0.203-0.203v-4.253H6.804a0.204 0.204 0 0 1 0.143 0.059l1.955 1.956a1.416 1.416 0 0 0 1.002 0.415h4.189a1.416 1.416 0 0 0 1.002-0.415l1.955-1.955a0.204 0.204 0 0 1 0.142-0.06h3.107v4.253a0.204 0.204 0 0 1-0.203 0.203z"/></svg>