<svg viewBox="0 0 24 24" fill="none" xmlns="http://www.w3.org/2000/svg" width="24" height="24">
<path d="M3.096 12.603C2.764 12.603 2.496 12.335 2.496 12.003 2.496 11.672 2.764 11.403 3.096 11.403L20.915 11.403C21.246 11.403 21.515 11.672 21.515 12.003 21.515 12.335 21.246 12.603 20.915 12.603L3.096 12.603Z" fill="black"/>
<path d="M6.056 3.696C5.725 3.696 5.456 3.427 5.456 3.096 5.456 2.765 5.725 2.496 6.056 2.496L17.936 2.496C18.267 2.496 18.536 2.765 18.536 3.096 18.536 3.427 18.267 3.696 17.936 3.696L6.056 3.696Z" fill="black"/>
<path d="M6.065 21.522C5.734 21.521 5.465 21.253 5.465 20.922 5.465 20.59 5.734 20.322 6.065 20.322L17.946 20.322C18.277 20.322 18.546 20.59 18.546 20.922 18.546 21.253 18.277 21.522 17.946 21.522L6.065 21.522Z" fill="black"/>
<path d="M14.15 7.725C14.384 7.959 14.384 8.339 14.15 8.573 13.916 8.808 13.536 8.808 13.301 8.573L12.005 7.277 10.709 8.573C10.475 8.808 10.095 8.808 9.861 8.573 9.627 8.339 9.627 7.959 9.861 7.725L11.581 6.005C11.815 5.77 12.195 5.77 12.43 6.005L14.15 7.725Z" fill="black"/>
<path d="M9.861 16.292C9.627 16.058 9.627 15.678 9.861 15.444 10.095 15.21 10.475 15.21 10.709 15.444L12.005 16.74 13.301 15.444C13.536 15.21 13.916 15.21 14.15 15.444 14.384 15.678 14.384 16.058 14.15 16.292L12.43 18.013C12.195 18.247 11.815 18.247 11.581 18.013L9.861 16.292Z" fill="black"/>
</svg>