<svg width="24" height="24" viewBox="0 0 24 24" fill="none" xmlns="http://www.w3.org/2000/svg">
<path d="M11.625 8C11.8321 8 12 7.83211 12 7.625C12 7.41789 11.8321 7.25 11.625 7.25C11.4179 7.25 11.25 7.41789 11.25 7.625C11.25 7.83211 11.4179 8 11.625 8Z" fill="black"/>
<path d="M11.25 10.25C10.8358 10.25 10.5 10.5858 10.5 11C10.5 11.4142 10.8358 11.75 11.25 11.75V11V10.25ZM12.75 17C13.1642 17 13.5 16.6642 13.5 16.25C13.5 15.8358 13.1642 15.5 12.75 15.5V16.25V17ZM21 11.75H20.25C20.25 16.3063 16.5563 20 12 20V20.75V21.5C17.3848 21.5 21.75 17.1348 21.75 11.75H21ZM12 20.75V20C7.44365 20 3.75 16.3063 3.75 11.75H3H2.25C2.25 17.1348 6.61522 21.5 12 21.5V20.75ZM3 11.75H3.75C3.75 7.19365 7.44365 3.5 12 3.5V2.75V2C6.61522 2 2.25 6.36522 2.25 11.75H3ZM12 2.75V3.5C16.5563 3.5 20.25 7.19365 20.25 11.75H21H21.75C21.75 6.36522 17.3848 2 12 2V2.75ZM11.25 11V11.75V11.75L11.7803 11.2197L12.3107 10.6893C12.0294 10.408 11.6478 10.25 11.25 10.25V11ZM11.7803 11.2197L11.25 11.75V11.75H12H12.75C12.75 11.3522 12.592 10.9706 12.3107 10.6893L11.7803 11.2197ZM12 11.75H11.25V15.5H12H12.75V11.75H12ZM12 15.5H11.25C11.25 15.8978 11.408 16.2794 11.6893 16.5607L12.2197 16.0303L12.75 15.5L12.75 15.5H12ZM12.2197 16.0303L11.6893 16.5607C11.9706 16.842 12.3522 17 12.75 17V16.25V15.5L12.75 15.5L12.2197 16.0303ZM12 7.625H11.25C11.25 7.41789 11.4179 7.25 11.625 7.25V8V8.75C12.2463 8.75 12.75 8.24632 12.75 7.625H12ZM11.625 8V7.25C11.8321 7.25 12 7.41789 12 7.625H11.25H10.5C10.5 8.24632 11.0037 8.75 11.625 8.75V8ZM11.25 7.625H12C12 7.83211 11.8321 8 11.625 8V7.25V6.5C11.0037 6.5 10.5 7.00368 10.5 7.625H11.25ZM11.625 7.25V8C11.4179 8 11.25 7.83211 11.25 7.625H12H12.75C12.75 7.00368 12.2463 6.5 11.625 6.5V7.25Z" fill="black"/>
</svg>
