<svg xmlns="http://www.w3.org/2000/svg" width="24" height="24" fill="currentColor" viewBox="0 0 24 24"><path d="M13.417 16.86a0.607 0.607 0 0 1-0.607 0.607 1.416 1.416 0 0 1-1.417-1.417V12a0.204 0.204 0 0 0-0.203-0.203 0.607 0.607 0 0 1 0-1.214A1.416 1.416 0 0 1 12.607 12v4.05a0.204 0.204 0 0 0 0.203 0.203 0.607 0.607 0 0 1 0.607 0.607m-1.823-8.303a1.013 1.013 0 1 0-1.012-1.013 1.013 1.013 0 0 0 1.012 1.013M22.327 12A10.327 10.327 0 1 1 12 1.673 10.339 10.339 0 0 1 22.327 12m-1.214 0A9.113 9.113 0 1 0 12 21.113 9.12 9.12 0 0 0 21.113 12"/></svg>