<svg width="24" height="24" viewBox="0 0 24 24" fill="none" xmlns="http://www.w3.org/2000/svg">
<path d="M10.5 4.5V19.5M13.5 6.75H21.75C21.9489 6.75 22.1397 6.82902 22.2803 6.96967C22.421 7.11032 22.5 7.30109 22.5 7.5V16.5C22.5 16.6989 22.421 16.8897 22.2803 17.0303C22.1397 17.171 21.9489 17.25 21.75 17.25H13.5M10.5 17.25H2.25C2.05109 17.25 1.86032 17.171 1.71967 17.0303C1.57902 16.8897 1.5 16.6989 1.5 16.5V7.5C1.5 7.30109 1.57902 7.11032 1.71967 6.96967C1.86032 6.82902 2.05109 6.75 2.25 6.75H10.5M4.5 10.5H7.5M6 10.5V13.5" stroke="black" stroke-width="1.5" stroke-linecap="round" stroke-linejoin="round"/>
</svg>
