<svg width="24" height="24" viewBox="0 0 24 24" fill="none" xmlns="http://www.w3.org/2000/svg">
<path d="M11.5 18.0754V5.92505C11.5 5.64891 11.7239 5.42505 12 5.42505C12.2762 5.42505 12.5 5.64891 12.5 5.92505V18.0754C12.4998 18.3514 12.2761 18.5754 12 18.5754C11.724 18.5754 11.5003 18.3514 11.5 18.0754Z" fill="black"/>
<path d="M17.5754 8.62524V6.42505H6.42505V8.62524C6.42494 8.9013 6.20113 9.12524 5.92505 9.12524C5.64897 9.12524 5.42515 8.9013 5.42505 8.62524V5.92505C5.42505 5.64891 5.64891 5.42505 5.92505 5.42505H18.0754C18.3514 5.42526 18.5754 5.64904 18.5754 5.92505V8.62524C18.5753 8.90117 18.3513 9.12503 18.0754 9.12524C17.7994 9.12524 17.5755 8.9013 17.5754 8.62524Z" fill="black"/>
<path d="M14.7004 17.575C14.9764 17.5753 15.2004 17.799 15.2004 18.075C15.2004 18.3511 14.9764 18.5748 14.7004 18.575H9.30005C9.02391 18.575 8.80005 18.3512 8.80005 18.075C8.80005 17.7989 9.02391 17.575 9.30005 17.575H14.7004Z" fill="black"/>
<path d="M17.526 13.4648C17.5688 13.4471 17.6158 13.4424 17.6612 13.4514C17.7066 13.4604 17.7483 13.4827 17.781 13.5154L20.1204 15.8548C20.1422 15.8765 20.1594 15.9023 20.1712 15.9307C20.183 15.9591 20.189 15.9895 20.189 16.0203C20.189 16.051 20.183 16.0815 20.1712 16.1099C20.1594 16.1383 20.1422 16.1641 20.1204 16.1858L17.781 18.5252C17.7483 18.5579 17.7066 18.5803 17.6612 18.5893C17.6158 18.5983 17.5687 18.5937 17.526 18.576C17.4832 18.5583 17.4466 18.5282 17.4209 18.4897C17.3952 18.4512 17.3815 18.406 17.3816 18.3597V13.6809C17.3816 13.6346 17.3953 13.5894 17.421 13.5509C17.4467 13.5125 17.4833 13.4825 17.526 13.4648Z" fill="black"/>
</svg>
