<svg viewBox="0 0 24 24" fill="none" xmlns="http://www.w3.org/2000/svg" width="24" height="24">
<path d="M23.366 15C23.697 15 23.966 14.731 23.966 14.4 23.966 14.069 23.697 13.8 23.366 13.8H13.2C12.869 13.8 12.6 14.069 12.6 14.4 12.6 14.731 12.869 15 13.2 15H23.366Z" fill="black"/>
<path d="M19.8 10.2C20.131 10.2 20.4 9.931 20.4 9.6 20.4 9.269 20.131 9 19.8 9H13.2C12.869 9 12.6 9.269 12.6 9.6 12.6 9.931 12.869 10.2 13.2 10.2H19.8Z" fill="black"/>
<path d="M19.8 6.6C20.131 6.6 20.4 6.331 20.4 6 20.4 5.669 20.131 5.4 19.8 5.4H13.2C12.869 5.4 12.6 5.669 12.6 6 12.6 6.331 12.869 6.6 13.2 6.6H19.8Z" fill="black"/>
<path d="M8.146 13.795L5.575 11.224C5.34 10.99 5.34 10.61 5.575 10.376 5.809 10.141 6.189 10.141 6.423 10.376L10.018 13.971 10.096 14.065C10.25 14.298 10.223 14.614 10.018 14.82L6.424 18.414C6.19 18.648 5.81 18.648 5.576 18.414 5.341 18.179 5.341 17.8 5.576 17.565L8.146 14.995H2.306L0.601 15C0.27 15.001 0.001 14.732 0 14.401-0.001 14.07 0.268 13.801 0.599 13.8L2.303 13.795H8.146Z" fill="black"/>
</svg>