<svg viewBox="0 0 24 24" fill="none" xmlns="http://www.w3.org/2000/svg" width="24" height="24">
<path d="M11.4 19.29V4.71C11.4 4.379 11.669 4.11 12 4.11 12.331 4.11 12.6 4.379 12.6 4.71V19.29C12.6 19.622 12.331 19.89 12 19.89 11.669 19.89 11.4 19.622 11.4 19.29Z" fill="black"/>
<path d="M18.69 7.95V5.31H5.31V7.95C5.31 8.282 5.041 8.55 4.71 8.55 4.379 8.55 4.11 8.282 4.11 7.95V4.71C4.11 4.379 4.379 4.11 4.71 4.11H19.29C19.622 4.11 19.89 4.379 19.89 4.71V7.95C19.89 8.281 19.622 8.55 19.29 8.55 18.959 8.55 18.691 8.282 18.69 7.95Z" fill="black"/>
<path d="M15.24 18.69C15.572 18.69 15.84 18.959 15.84 19.29 15.84 19.621 15.572 19.89 15.24 19.89H8.76C8.429 19.89 8.16 19.621 8.16 19.29 8.16 18.959 8.429 18.69 8.76 18.69H15.24Z" fill="black"/>
<path d="M18.631 13.758C18.683 13.737 18.739 13.731 18.793 13.742 18.848 13.752 18.898 13.779 18.937 13.818L21.744 16.626C21.771 16.652 21.791 16.683 21.805 16.717 21.82 16.751 21.827 16.787 21.827 16.824 21.827 16.861 21.82 16.898 21.805 16.932 21.791 16.966 21.771 16.997 21.744 17.023L18.937 19.83C18.898 19.869 18.848 19.896 18.793 19.907 18.739 19.918 18.682 19.912 18.631 19.891 18.58 19.87 18.536 19.834 18.505 19.788 18.474 19.741 18.458 19.687 18.458 19.632V14.017C18.458 13.962 18.474 13.907 18.505 13.861 18.536 13.815 18.58 13.779 18.631 13.758Z" fill="black"/>
</svg>