<svg width="24" height="24" viewBox="0 0 24 24" fill="none" xmlns="http://www.w3.org/2000/svg">
<path d="M19.5 3V2.25V3ZM4.5 3V2.25V3ZM3 4.5H2.25H3ZM3 19.5H2.25H3ZM6 15.1904H5.25L5.25 21H6H6.75L6.75 15.1904H6ZM6 3L5.25 3L5.25 9H6H6.75L6.75 3L6 3ZM12 3L11.25 3L11.25 21H12H12.75L12.75 3L12 3ZM9 18H8.25V21H9H9.75V18H9ZM9 3H8.25V6H9H9.75V3H9ZM19.5 3V2.25H4.5V3V3.75H19.5V3ZM4.5 3V2.25C3.90326 2.25 3.33097 2.48705 2.90901 2.90901L3.43934 3.43934L3.96967 3.96967C4.11032 3.82902 4.30109 3.75 4.5 3.75V3ZM3.43934 3.43934L2.90901 2.90901C2.48705 3.33097 2.25 3.90326 2.25 4.5H3H3.75C3.75 4.30109 3.82902 4.11032 3.96967 3.96967L3.43934 3.43934ZM3 4.5H2.25V19.5H3H3.75V4.5H3ZM3 19.5H2.25C2.25 20.0967 2.48705 20.669 2.90901 21.091L3.43934 20.5607L3.96967 20.0303C3.82902 19.8897 3.75 19.6989 3.75 19.5H3ZM3.43934 20.5607L2.90901 21.091C3.33097 21.5129 3.90326 21.75 4.5 21.75V21V20.25C4.30109 20.25 4.11032 20.171 3.96967 20.0303L3.43934 20.5607ZM4.5 21V21.75H19.5V21V20.25H4.5V21ZM19.5 21V21.75C20.0967 21.75 20.669 21.5129 21.091 21.091L20.5607 20.5607L20.0303 20.0303C19.8897 20.171 19.6989 20.25 19.5 20.25V21ZM20.5607 20.5607L21.091 21.091C21.5129 20.669 21.75 20.0967 21.75 19.5H21H20.25C20.25 19.6989 20.171 19.8897 20.0303 20.0303L20.5607 20.5607ZM21 19.5H21.75V4.5H21H20.25V19.5H21ZM21 4.5H21.75C21.75 3.90326 21.5129 3.33097 21.091 2.90901L20.5607 3.43934L20.0303 3.96967C20.171 4.11032 20.25 4.30109 20.25 4.5H21ZM20.5607 3.43934L21.091 2.90901C20.669 2.48705 20.0967 2.25 19.5 2.25V3V3.75C19.6989 3.75 19.8897 3.82902 20.0303 3.96967L20.5607 3.43934ZM18.75 12H18C18 15.3137 15.3137 18 12 18V18.75V19.5C16.1421 19.5 19.5 16.1421 19.5 12H18.75ZM12 18.75V18C8.68629 18 6 15.3137 6 12H5.25H4.5C4.5 16.1421 7.85786 19.5 12 19.5V18.75ZM5.25 12H6C6 8.68629 8.68629 6 12 6V5.25V4.5C7.85786 4.5 4.5 7.85786 4.5 12H5.25ZM12 5.25V6C15.3137 6 18 8.68629 18 12H18.75H19.5C19.5 7.85786 16.1421 4.5 12 4.5V5.25ZM12 5.25H11.25V18.75H12H12.75V5.25H12ZM15.0046 6H14.2546V18H15.0046H15.7546V6H15.0046Z" fill="black"/>
</svg>
