<svg viewBox="0 0 24 24" fill="none" xmlns="http://www.w3.org/2000/svg" width="24" height="24">
<path d="M21 22.795C21.331 22.795 21.6 23.064 21.6 23.395 21.6 23.727 21.331 23.995 21 23.995H3C2.669 23.995 2.4 23.727 2.4 23.395 2.4 23.064 2.669 22.795 3 22.795H21Z" fill="black"/>
<path d="M21 0.005C21.331 0.005 21.6 0.273 21.6 0.605 21.6 0.936 21.331 1.205 21 1.205L3 1.205C2.669 1.205 2.4 0.936 2.4 0.605 2.4 0.273 2.669 0.005 3 0.005L21 0.005Z" fill="black"/>
<path d="M4.505 19.204C4.008 19.204 3.605 18.801 3.605 18.304V14.104C3.605 13.607 4.008 13.204 4.505 13.204H19.505C20.002 13.204 20.405 13.607 20.405 14.104V18.304C20.405 18.801 20.002 19.204 19.505 19.204H4.505Z" fill="black"/>
<path d="M4.505 10.801C4.008 10.801 3.605 10.398 3.605 9.901V5.701C3.605 5.204 4.008 4.801 4.505 4.801H19.505C20.002 4.801 20.405 5.204 20.405 5.701V9.901C20.405 10.398 20.002 10.801 19.505 10.801H4.505Z" fill="black"/>
</svg>