<svg width="24" height="24" viewBox="0 0 24 24" fill="none" xmlns="http://www.w3.org/2000/svg">
<path d="M5.25195 19.5C5.25195 19.7761 5.0281 20 4.75195 20C4.47581 20 4.25195 19.7761 4.25195 19.5L4.25195 4.5C4.25195 4.22386 4.47581 4 4.75195 4C5.0281 4 5.25195 4.22386 5.25195 4.5L5.25195 19.5Z" fill="black"/>
<path d="M7.24805 6.75391C7.24805 6.33969 7.58383 6.00391 7.99805 6.00391H11.498C11.9123 6.00391 12.248 6.33969 12.248 6.75391V17.2539C12.248 17.6681 11.9123 18.0039 11.498 18.0039H7.99805C7.58383 18.0039 7.24805 17.6681 7.24805 17.2539V6.75391Z" fill="black"/>
<path d="M14.248 6.75391C14.248 6.33969 14.5838 6.00391 14.998 6.00391H18.498C18.9123 6.00391 19.248 6.33969 19.248 6.75391V17.2539C19.248 17.6681 18.9123 18.0039 18.498 18.0039H14.998C14.5838 18.0039 14.248 17.6681 14.248 17.2539V6.75391Z" fill="black"/>
</svg>
