<svg viewBox="0 0 24 24" fill="none" xmlns="http://www.w3.org/2000/svg" width="24" height="24">
<path d="M3.902 21C3.902 21.331 3.634 21.6 3.302 21.6 2.971 21.6 2.702 21.331 2.702 21L2.702 3C2.702 2.669 2.971 2.4 3.302 2.4 3.634 2.4 3.902 2.669 3.902 3L3.902 21Z" fill="black"/>
<path d="M6.298 5.705C6.298 5.208 6.701 4.805 7.198 4.805H11.398C11.895 4.805 12.298 5.208 12.298 5.705V18.305C12.298 18.802 11.895 19.205 11.398 19.205H7.198C6.701 19.205 6.298 18.802 6.298 18.305V5.705Z" fill="black"/>
<path d="M14.698 5.705C14.698 5.208 15.101 4.805 15.598 4.805H19.798C20.295 4.805 20.698 5.208 20.698 5.705V18.305C20.698 18.802 20.295 19.205 19.798 19.205H15.598C15.101 19.205 14.698 18.802 14.698 18.305V5.705Z" fill="black"/>
</svg>