<svg viewBox="0 0 24 24" fill="none" xmlns="http://www.w3.org/2000/svg" width="24" height="24">
<path d="M1.205 21C1.205 21.331 0.936 21.6 0.605 21.6 0.273 21.6 0.005 21.331 0.005 21L0.005 3C0.005 2.669 0.273 2.4 0.605 2.4 0.936 2.4 1.205 2.669 1.205 3L1.205 21Z" fill="black"/>
<path d="M23.995 21C23.995 21.331 23.727 21.6 23.395 21.6 23.064 21.6 22.795 21.331 22.795 21V3C22.795 2.669 23.064 2.4 23.395 2.4 23.727 2.4 23.995 2.669 23.995 3V21Z" fill="black"/>
<path d="M3.6 4.5C3.6 4.003 4.003 3.6 4.5 3.6H8.7C9.197 3.6 9.6 4.003 9.6 4.5V19.5C9.6 19.997 9.197 20.4 8.7 20.4H4.5C4.003 20.4 3.6 19.997 3.6 19.5V4.5Z" fill="black"/>
<path d="M14.4 4.505C14.4 4.008 14.803 3.605 15.3 3.605H19.5C19.997 3.605 20.4 4.008 20.4 4.505V19.505C20.4 20.002 19.997 20.405 19.5 20.405H15.3C14.803 20.405 14.4 20.002 14.4 19.505V4.505Z" fill="black"/>
</svg>