<svg viewBox="0 0 24 24" fill="none" xmlns="http://www.w3.org/2000/svg" width="24" height="24">
<path d="M1.205 21C1.205 21.331 0.936 21.6 0.605 21.6 0.273 21.6 0.005 21.331 0.005 21L0.005 3C0.005 2.669 0.273 2.4 0.605 2.4 0.936 2.4 1.205 2.669 1.205 3L1.205 21Z" fill="black"/>
<path d="M23.995 21C23.995 21.331 23.727 21.6 23.395 21.6 23.064 21.6 22.795 21.331 22.795 21V3C22.795 2.669 23.064 2.4 23.395 2.4 23.727 2.4 23.995 2.669 23.995 3V21Z" fill="black"/>
<path d="M4.796 4.505C4.796 4.008 5.199 3.605 5.696 3.605H9.896C10.393 3.605 10.796 4.008 10.796 4.505V19.505C10.796 20.002 10.393 20.405 9.896 20.405H5.696C5.199 20.405 4.796 20.002 4.796 19.505V4.505Z" fill="black"/>
<path d="M13.199 4.505C13.199 4.008 13.602 3.605 14.099 3.605H18.299C18.796 3.605 19.199 4.008 19.199 4.505V19.505C19.199 20.002 18.796 20.405 18.299 20.405H14.099C13.602 20.405 13.199 20.002 13.199 19.505V4.505Z" fill="black"/>
</svg>