<svg viewBox="0 0 24 24" fill="none" xmlns="http://www.w3.org/2000/svg" width="24" height="24">
<path d="M21 3.902C21.331 3.902 21.6 3.634 21.6 3.302 21.6 2.971 21.331 2.702 21 2.702L3 2.702C2.669 2.702 2.4 2.971 2.4 3.302 2.4 3.634 2.669 3.902 3 3.902L21 3.902Z" fill="black"/>
<path d="M5.705 6.298C5.208 6.298 4.805 6.701 4.805 7.198V11.398C4.805 11.895 5.208 12.298 5.705 12.298H18.305C18.802 12.298 19.205 11.895 19.205 11.398V7.198C19.205 6.701 18.802 6.298 18.305 6.298H5.705Z" fill="black"/>
<path d="M5.705 14.698C5.208 14.698 4.805 15.101 4.805 15.598V19.798C4.805 20.295 5.208 20.698 5.705 20.698H18.305C18.802 20.698 19.205 20.295 19.205 19.798V15.598C19.205 15.101 18.802 14.698 18.305 14.698H5.705Z" fill="black"/>
</svg>