<svg viewBox="0 0 24 24" fill="none" xmlns="http://www.w3.org/2000/svg" width="24" height="24">
<path d="M21 11.4C21.331 11.4 21.6 11.669 21.6 12 21.6 12.331 21.331 12.6 21 12.6L3 12.6C2.669 12.6 2.4 12.331 2.4 12 2.4 11.669 2.669 11.4 3 11.4L21 11.4Z" fill="black"/>
<path d="M5.7 20.995C5.203 20.995 4.8 20.592 4.8 20.095V15.895C4.8 15.398 5.203 14.995 5.7 14.995H18.3C18.797 14.995 19.2 15.398 19.2 15.895V20.095C19.2 20.592 18.797 20.995 18.3 20.995H5.7Z" fill="black"/>
<path d="M5.7 9.005C5.203 9.005 4.8 8.602 4.8 8.105V3.905C4.8 3.408 5.203 3.005 5.7 3.005H18.3C18.797 3.005 19.2 3.408 19.2 3.905V8.105C19.2 8.602 18.797 9.005 18.3 9.005H5.7Z" fill="black"/>
</svg>