<svg width="24" height="24" viewBox="0 0 24 24" fill="none" xmlns="http://www.w3.org/2000/svg">
<path d="M12.1199 3.77574C12.0533 3.70914 11.9456 3.70864 11.8789 3.77505L3.7748 11.8792C3.70811 11.9459 3.70811 12.0541 3.7748 12.1208L11.8789 20.2249C11.9456 20.2914 12.0533 20.2909 12.1199 20.2243L20.224 12.1202C20.2903 12.0535 20.2903 11.9465 20.224 11.8798L12.1199 3.77574ZM20.9311 11.1727C21.388 11.6299 21.388 12.3701 20.9311 12.8273L12.827 20.9314C12.3699 21.3885 11.629 21.389 11.1718 20.9321L3.0677 12.828C2.61048 12.3707 2.61048 11.6293 3.0677 11.172L11.1718 3.06794C11.629 2.61101 12.3699 2.61151 12.827 3.06863L20.9311 11.1727Z" fill="black"/>
</svg>
