<svg xmlns="http://www.w3.org/2000/svg" width="24" height="24" fill="currentColor" viewBox="0 0 24 24"><path d="M22.53 16.253h-1.013V6.33a2.227 2.227 0 0 0-2.227-2.227H4.71a2.227 2.227 0 0 0-2.227 2.227v9.923h-1.013a0.607 0.607 0 0 0-0.607 0.607v1.62a2.227 2.227 0 0 0 2.227 2.227h17.82a2.227 2.227 0 0 0 2.227-2.227v-1.62a0.607 0.607 0 0 0-0.607-0.607M3.697 6.33a1.013 1.013 0 0 1 1.013-1.013h14.58a1.013 1.013 0 0 1 1.013 1.013v9.923H3.697zM21.923 18.48a1.013 1.013 0 0 1-1.013 1.013H3.09a1.013 1.013 0 0 1-1.013-1.013v-1.013h19.846z m-7.696-10.53a0.607 0.607 0 0 1-0.607 0.607h-3.24a0.608 0.608 0 0 1 0-1.215h3.24a0.607 0.607 0 0 1 0.607 0.607z"/></svg>