<svg width="24" height="24" viewBox="0 0 24 24" fill="none" xmlns="http://www.w3.org/2000/svg">
<path d="M3 6.25C3 5.83579 3.33579 5.5 3.75 5.5H20.25C20.6642 5.5 21 5.83579 21 6.25V10.75C21 11.1642 20.6642 11.5 20.25 11.5H3.75C3.33579 11.5 3 11.1642 3 10.75V6.25Z" fill="black"/>
<path d="M10 13.5C10.5523 13.5 11 13.9477 11 14.5C11 15.0523 10.5523 15.5 10 15.5H4C3.44772 15.5 3 15.0523 3 14.5C3 13.9477 3.44772 13.5 4 13.5H10Z" fill="black"/>
<path d="M20 13.5C20.5523 13.5 21 13.9477 21 14.5C21 15.0523 20.5523 15.5 20 15.5H14C13.4477 15.5 13 15.0523 13 14.5C13 13.9477 13.4477 13.5 14 13.5H20Z" fill="black"/>
<path d="M20 17.5C20.5523 17.5 21 17.9477 21 18.5C21 19.0523 20.5523 19.5 20 19.5H14C13.4477 19.5 13 19.0523 13 18.5C13 17.9477 13.4477 17.5 14 17.5H20Z" fill="black"/>
<path d="M10 17.5C10.5523 17.5 11 17.9477 11 18.5C11 19.0523 10.5523 19.5 10 19.5H4C3.44772 19.5 3 19.0523 3 18.5C3 17.9477 3.44772 17.5 4 17.5H10Z" fill="black"/>
</svg>
