<svg viewBox="0 0 24 24" fill="none" xmlns="http://www.w3.org/2000/svg" width="24" height="24">
<path d="M1.2 4.5C1.2 4.003 1.603 3.6 2.1 3.6H21.9C22.397 3.6 22.8 4.003 22.8 4.5V9.9C22.8 10.397 22.397 10.8 21.9 10.8H2.1C1.603 10.8 1.2 10.397 1.2 9.9V4.5Z" fill="black"/>
<path d="M2.1 20.4C1.603 20.4 1.2 19.997 1.2 19.5V14.1C1.2 13.603 1.603 13.2 2.1 13.2H7.5C7.997 13.2 8.4 13.603 8.4 14.1V19.5C8.4 19.997 7.997 20.4 7.5 20.4H2.1Z" fill="black"/>
<path d="M11.7 20.4C11.203 20.4 10.8 19.997 10.8 19.5V14.1C10.8 13.603 11.203 13.2 11.7 13.2H21.9C22.397 13.2 22.8 13.603 22.8 14.1V19.5C22.8 19.997 22.397 20.4 21.9 20.4H11.7Z" fill="black"/>
</svg>