<svg width="24" height="24" viewBox="0 0 24 24" fill="none" xmlns="http://www.w3.org/2000/svg">
<path d="M19.4995 2.99854C20.3279 2.99854 20.9995 3.67011 20.9995 4.49854V8.99854C20.9995 9.82696 20.3279 10.4985 19.4995 10.4985L4.49951 10.4985C3.67108 10.4985 2.99951 9.82696 2.99951 8.99854L2.99951 4.49854C2.99951 3.67011 3.67109 2.99854 4.49951 2.99854L19.4995 2.99854Z" stroke="black" stroke-width="1.5"/>
<path d="M21.0011 20.2471C21.0011 20.6613 20.6653 20.9971 20.2511 20.9971H14.2511C13.8368 20.9971 13.5011 20.6613 13.5011 20.2471V19.4971C13.5011 19.0829 13.8368 18.7471 14.2511 18.7471L20.2511 18.7471C20.6653 18.7471 21.0011 19.0829 21.0011 19.4971V20.2471Z" stroke="black" stroke-width="1.5"/>
<path d="M21.0011 15C21.0011 15.4142 20.6653 15.75 20.2511 15.75L14.2511 15.75C13.8368 15.75 13.5011 15.4142 13.5011 15V14.25C13.5011 13.8358 13.8368 13.5 14.2511 13.5L20.2511 13.5C20.6653 13.5 21.0011 13.8358 21.0011 14.25V15Z" stroke="black" stroke-width="1.5"/>
<path d="M10.5027 14.9954C10.5027 15.4096 10.1669 15.7454 9.75268 15.7454L3.75268 15.7454C3.33847 15.7454 3.00268 15.4096 3.00268 14.9954L3.00268 14.2454C3.00268 13.8311 3.33847 13.4954 3.75268 13.4954L9.75268 13.4954C10.1669 13.4954 10.5027 13.8311 10.5027 14.2454V14.9954Z" stroke="black" stroke-width="1.5"/>
<path d="M10.5027 20.2517C10.5027 20.6659 10.1669 21.0017 9.75268 21.0017H3.75268C3.33847 21.0017 3.00268 20.6659 3.00268 20.2517L3.00268 19.5017C3.00268 19.0875 3.33847 18.7517 3.75268 18.7517L9.75268 18.7517C10.1669 18.7517 10.5027 19.0875 10.5027 19.5017V20.2517Z" stroke="black" stroke-width="1.5"/>
</svg>
