<svg width="24" height="24" viewBox="0 0 24 24" fill="none" xmlns="http://www.w3.org/2000/svg">
<path d="M19.2502 9.97461C19.2502 10.6235 18.7234 11.1504 18.0745 11.1504H14.0247C13.3758 11.1503 12.8499 10.6235 12.8499 9.97461V5.9248C12.85 5.27602 13.3759 4.75011 14.0247 4.75H18.0745C18.7233 4.75 19.2501 5.27596 19.2502 5.9248V9.97461Z" fill="black"/>
<path d="M19.2502 18.0747C19.2502 18.7236 18.7234 19.2505 18.0745 19.2505H14.0247C13.3758 19.2504 12.8499 18.7236 12.8499 18.0747V14.0249C12.85 13.3761 13.3759 12.8502 14.0247 12.8501H18.0745C18.7233 12.8501 19.2501 13.3761 19.2502 14.0249V18.0747Z" fill="black"/>
<path d="M11.1501 9.97461C11.1501 10.6235 10.6233 11.1504 9.97437 11.1504H5.92456C5.27572 11.1503 4.74976 10.6235 4.74976 9.97461V5.9248C4.74986 5.27602 5.27578 4.75011 5.92456 4.75H9.97437C10.6232 4.75 11.15 5.27596 11.1501 5.9248V9.97461Z" fill="black"/>
<path d="M11.1501 18.0747C11.1501 18.7236 10.6233 19.2505 9.97437 19.2505H5.92456C5.27572 19.2504 4.74976 18.7236 4.74976 18.0747V14.0249C4.74986 13.3761 5.27578 12.8502 5.92456 12.8501H9.97437C10.6232 12.8501 11.15 13.3761 11.1501 14.0249V18.0747Z" fill="black"/>
</svg>
