<svg viewBox="0 0 24 24" fill="none" xmlns="http://www.w3.org/2000/svg" width="24" height="24">
<path d="M21.6 3.6C22.263 3.6 22.8 4.137 22.8 4.8 22.8 5.463 22.263 6 21.6 6H2.4C1.737 6 1.2 5.463 1.2 4.8 1.2 4.137 1.737 3.6 2.4 3.6H21.6Z" fill="black"/>
<path d="M21.6 13.2C22.263 13.2 22.8 13.737 22.8 14.4 22.8 15.063 22.263 15.6 21.6 15.6H2.4C1.737 15.6 1.2 15.063 1.2 14.4 1.2 13.737 1.737 13.2 2.4 13.2H21.6Z" fill="black"/>
<path d="M21.6 8.4C22.263 8.4 22.8 8.937 22.8 9.6 22.8 10.263 22.263 10.8 21.6 10.8H2.4C1.737 10.8 1.2 10.263 1.2 9.6 1.2 8.937 1.737 8.4 2.4 8.4H21.6Z" fill="black"/>
<path d="M21.6 18C22.263 18 22.8 18.537 22.8 19.2 22.8 19.863 22.263 20.4 21.6 20.4H2.4C1.737 20.4 1.2 19.863 1.2 19.2 1.2 18.537 1.737 18 2.4 18H21.6Z" fill="black"/>
</svg>