<svg width="24" height="24" viewBox="0 0 24 24" fill="none" xmlns="http://www.w3.org/2000/svg">
<path d="M3 4.5C3 3.67157 3.67157 3 4.5 3H9C9.82843 3 10.5 3.67157 10.5 4.5V9C10.5 9.82843 9.82843 10.5 9 10.5H4.5C3.67157 10.5 3 9.82843 3 9V4.5Z" stroke="black" stroke-width="1.5"/>
<path d="M13.5 4.5C13.5 3.67157 14.1716 3 15 3H19.5C20.3284 3 21 3.67157 21 4.5V9C21 9.82843 20.3284 10.5 19.5 10.5H15C14.1716 10.5 13.5 9.82843 13.5 9V4.5Z" stroke="black" stroke-width="1.5"/>
<path d="M3 15C3 14.1716 3.67157 13.5 4.5 13.5H9C9.82843 13.5 10.5 14.1716 10.5 15V19.5C10.5 20.3284 9.82843 21 9 21H4.5C3.67157 21 3 20.3284 3 19.5V15Z" stroke="black" stroke-width="1.5"/>
<path d="M13.5 15C13.5 14.1716 14.1716 13.5 15 13.5H19.5C20.3284 13.5 21 14.1716 21 15V19.5C21 20.3284 20.3284 21 19.5 21H15C14.1716 21 13.5 20.3284 13.5 19.5V15Z" stroke="black" stroke-width="1.5"/>
</svg>
