<svg viewBox="0 0 24 24" fill="none" xmlns="http://www.w3.org/2000/svg" width="24" height="24">
<path d="M20.7 9.57C20.7 10.348 20.068 10.98 19.289 10.98H14.43C13.651 10.98 13.02 10.348 13.02 9.57V4.71C13.02 3.931 13.651 3.3 14.43 3.3H19.289C20.068 3.3 20.7 3.931 20.7 4.71V9.57Z" fill="black"/>
<path d="M20.7 19.29C20.7 20.068 20.068 20.701 19.289 20.701H14.43C13.651 20.7 13.02 20.068 13.02 19.29V14.43C13.02 13.651 13.651 13.02 14.43 13.02H19.289C20.068 13.02 20.7 13.651 20.7 14.43V19.29Z" fill="black"/>
<path d="M10.98 9.57C10.98 10.348 10.348 10.98 9.569 10.98H4.709C3.931 10.98 3.3 10.348 3.3 9.57V4.71C3.3 3.931 3.931 3.3 4.709 3.3H9.569C10.348 3.3 10.98 3.931 10.98 4.71V9.57Z" fill="black"/>
<path d="M10.98 19.29C10.98 20.068 10.348 20.701 9.569 20.701H4.709C3.931 20.7 3.3 20.068 3.3 19.29V14.43C3.3 13.651 3.931 13.02 4.709 13.02H9.569C10.348 13.02 10.98 13.651 10.98 14.43V19.29Z" fill="black"/>
</svg>