<svg viewBox="0 0 24 24" fill="none" xmlns="http://www.w3.org/2000/svg" width="24" height="24">
<path d="M3.702 20.91C3.702 21.241 3.433 21.51 3.102 21.51 2.771 21.51 2.502 21.241 2.502 20.91L2.502 3.09C2.502 2.759 2.771 2.49 3.102 2.49 3.433 2.49 3.702 2.759 3.702 3.09L3.702 20.91Z" fill="black"/>
<path d="M20.31 3.091C20.31 2.759 20.578 2.491 20.91 2.491 21.241 2.491 21.51 2.759 21.51 3.091L21.51 20.91C21.51 21.242 21.241 21.51 20.91 21.51 20.578 21.51 20.31 21.242 20.31 20.91L20.31 3.091Z" fill="black"/>
<path d="M6.682 18.498C6.526 18.498 6.399 18.462 6.302 18.39 6.218 18.33 6.17 18.239 6.158 18.119 6.158 17.998 6.188 17.865 6.248 17.72L11.333 6.03C11.418 5.849 11.52 5.723 11.641 5.65 11.761 5.566 11.882 5.524 12.003 5.524 12.147 5.524 12.274 5.566 12.383 5.65 12.503 5.723 12.6 5.849 12.672 6.03L17.757 17.72C17.829 17.865 17.86 17.998 17.848 18.119 17.848 18.239 17.805 18.33 17.721 18.39 17.649 18.462 17.534 18.498 17.377 18.498 17.208 18.498 17.07 18.456 16.961 18.372 16.864 18.275 16.78 18.149 16.708 17.992L15.314 14.716 15.911 14.988H8.076L8.691 14.716 7.298 17.992C7.225 18.173 7.135 18.306 7.026 18.39 6.93 18.462 6.815 18.498 6.682 18.498ZM11.985 7.008L8.908 14.246 8.492 14.029H15.495L15.115 14.246 12.021 7.008H11.985Z" fill="black"/>
<path d="M12.002 5.451C12.162 5.451 12.304 5.499 12.426 5.593 12.562 5.677 12.664 5.816 12.739 6.003L17.822 17.688C17.897 17.838 17.931 17.982 17.919 18.118L17.911 18.218C17.892 18.313 17.842 18.39 17.762 18.447 17.67 18.533 17.538 18.57 17.377 18.57 17.242 18.57 17.12 18.545 17.015 18.492L16.917 18.429 16.91 18.423C16.832 18.345 16.763 18.25 16.701 18.139L16.641 18.02 15.382 15.06H8.624L7.364 18.017 7.365 18.018C7.29 18.206 7.193 18.351 7.071 18.446L7.07 18.447C6.96 18.53 6.829 18.57 6.683 18.57 6.515 18.57 6.371 18.532 6.259 18.447 6.182 18.392 6.13 18.315 6.104 18.224L6.086 18.125 6.085 18.118C6.085 17.986 6.119 17.844 6.181 17.693L6.183 17.691 11.267 6.002V6C11.355 5.811 11.466 5.671 11.604 5.588 11.732 5.499 11.865 5.451 12.002 5.451ZM12.003 5.524C11.882 5.524 11.761 5.566 11.641 5.65 11.52 5.723 11.418 5.849 11.333 6.03L6.248 17.72C6.188 17.865 6.158 17.998 6.158 18.119 6.17 18.239 6.218 18.33 6.302 18.39 6.375 18.444 6.464 18.478 6.57 18.492L6.682 18.498C6.782 18.498 6.871 18.478 6.95 18.438L7.026 18.39C7.108 18.327 7.178 18.236 7.24 18.118L7.298 17.992 8.575 14.988H15.43L16.708 17.992C16.78 18.149 16.864 18.275 16.961 18.372 17.042 18.435 17.141 18.475 17.256 18.491L17.377 18.498C17.534 18.498 17.649 18.462 17.721 18.39 17.805 18.33 17.848 18.239 17.848 18.119 17.86 17.998 17.829 17.865 17.757 17.72L12.672 6.03C12.6 5.849 12.503 5.723 12.383 5.65 12.301 5.587 12.209 5.548 12.108 5.532L12.003 5.524ZM12.021 7.008L15.022 14.028H9.001L11.985 7.008H12.021ZM9.109 13.957H14.913L12.002 7.149 9.109 13.957Z" fill="black"/>
</svg>