<svg width="24" height="24" viewBox="0 0 24 24" fill="none" xmlns="http://www.w3.org/2000/svg">
<path d="M5.08496 19.4248C5.08496 19.7009 4.8611 19.9248 4.58496 19.9248C4.30882 19.9248 4.08496 19.7009 4.08496 19.4248L4.08496 4.5752C4.08496 4.29905 4.30882 4.0752 4.58496 4.0752C4.8611 4.0752 5.08496 4.29905 5.08496 4.5752L5.08496 19.4248Z" fill="black"/>
<path d="M18.9248 4.57568C18.9248 4.29954 19.1487 4.07568 19.4248 4.07568C19.701 4.07568 19.9248 4.29954 19.9248 4.57568L19.9248 19.4253C19.9248 19.7014 19.7009 19.9253 19.4248 19.9253C19.1487 19.9253 18.9248 19.7014 18.9248 19.4253L18.9248 4.57568Z" fill="black"/>
<path d="M7.56865 17.4154C7.43796 17.4154 7.3324 17.3853 7.25197 17.325C7.1816 17.2747 7.14139 17.1993 7.13133 17.0988C7.13133 16.9982 7.15647 16.8876 7.20673 16.767L11.4442 7.02531C11.5146 6.87451 11.6 6.76895 11.7006 6.70863C11.8011 6.63826 11.9016 6.60307 12.0022 6.60307C12.1228 6.60307 12.2284 6.63826 12.3189 6.70863C12.4194 6.76895 12.4998 6.87451 12.5601 7.02531L16.7976 16.767C16.8579 16.8876 16.8831 16.9982 16.873 17.0988C16.873 17.1993 16.8378 17.2747 16.7675 17.325C16.7071 17.3853 16.6116 17.4154 16.4809 17.4154C16.3402 17.4154 16.2246 17.3802 16.1341 17.3099C16.0537 17.2294 15.9833 17.1239 15.923 16.9932L14.7618 14.2637L15.2595 14.4899H8.72981L9.24253 14.2637L8.08137 16.9932C8.02105 17.144 7.94565 17.2546 7.85517 17.325C7.77475 17.3853 7.67924 17.4154 7.56865 17.4154ZM11.9871 7.83963L9.42349 13.8716L9.07665 13.6907H14.9126L14.5959 13.8716L12.0173 7.83963H11.9871Z" fill="black"/>
<path d="M12.0017 6.54272C12.1347 6.54272 12.2537 6.58212 12.3552 6.66089C12.4681 6.73048 12.5535 6.84671 12.616 7.00268L16.8513 16.74C16.9139 16.8652 16.9422 16.9852 16.9324 17.0984L16.9255 17.1814C16.9097 17.2605 16.8683 17.3251 16.8015 17.3728C16.7253 17.4441 16.6152 17.4753 16.4812 17.4753C16.368 17.4753 16.2665 17.4544 16.1794 17.4099L16.0974 17.3572L16.0916 17.3523C16.0268 17.2875 15.9689 17.2084 15.9177 17.116L15.8679 17.0164L14.8181 14.5496H9.18628L8.13648 17.0144L8.13745 17.0154C8.07483 17.1719 7.9938 17.2927 7.89234 17.3718L7.89136 17.3728C7.79961 17.4416 7.69111 17.4753 7.56909 17.4753C7.42932 17.4753 7.30913 17.443 7.21558 17.3728C7.15148 17.3264 7.10861 17.2628 7.08667 17.1863L7.07202 17.1042L7.07105 17.0984C7.07111 16.9881 7.09876 16.8696 7.15112 16.7439L7.1521 16.7429L11.3894 7.00171V6.99975C11.4628 6.84248 11.5554 6.72554 11.6697 6.65698C11.7768 6.58281 11.8878 6.54283 12.0017 6.54272ZM12.0022 6.60307C11.9016 6.60307 11.8011 6.63826 11.7006 6.70863C11.6 6.76895 11.5146 6.87451 11.4442 7.02531L7.20673 16.767C7.15647 16.8876 7.13133 16.9982 7.13133 17.0988C7.14139 17.1993 7.1816 17.2747 7.25197 17.325C7.3123 17.3702 7.38674 17.3986 7.47534 17.4099L7.56865 17.4154C7.65125 17.4154 7.72599 17.3987 7.79175 17.365L7.85517 17.325C7.92305 17.2721 7.98206 17.1965 8.03296 17.0984L8.08137 16.9932L9.14624 14.49H14.8582L15.923 16.9932C15.9833 17.1239 16.0537 17.2294 16.1341 17.3099C16.2018 17.3624 16.2839 17.3957 16.3796 17.4089L16.4809 17.4154C16.6116 17.4154 16.7071 17.3853 16.7675 17.325C16.8378 17.2747 16.873 17.1993 16.873 17.0988C16.8831 16.9982 16.8579 16.8876 16.7976 16.767L12.5601 7.02531C12.4998 6.87451 12.4194 6.76895 12.3189 6.70863C12.251 6.65582 12.1745 6.62329 12.0896 6.61011L12.0022 6.60307ZM12.0173 7.83963L14.5183 13.6902H9.50073L11.9871 7.83963H12.0173ZM9.59058 13.6306H14.4275L12.0017 7.95776L9.59058 13.6306Z" fill="black"/>
</svg>
