<svg viewBox="0 0 24 24" fill="none" xmlns="http://www.w3.org/2000/svg" width="24" height="24">
<path d="M16.051 4.921C16.21 4.921 16.363 4.984 16.475 5.096 16.588 5.209 16.651 5.362 16.651 5.521L16.65 18.652 20.487 14.816C20.721 14.582 21.101 14.582 21.335 14.816 21.569 15.05 21.569 15.43 21.335 15.664L16.474 20.525C16.24 20.759 15.86 20.76 15.626 20.525L10.766 15.664C10.532 15.43 10.532 15.05 10.766 14.816 11 14.582 11.38 14.582 11.614 14.816L15.45 18.652 15.451 6.121H1.471C1.139 6.121 0.871 5.852 0.871 5.521 0.871 5.189 1.139 4.921 1.471 4.921H16.051Z" fill="black"/>
</svg>