<svg width="24" height="24" viewBox="0 0 24 24" fill="none" xmlns="http://www.w3.org/2000/svg">
<path d="M8.25 21.75H15.75M12.75 5.25C14.625 5.56594 16.1822 7.125 16.5 9M7.37824 15.6565C6.48665 14.96 5.76449 14.0705 5.266 13.0549C4.76751 12.0392 4.50566 10.9238 4.50012 9.79243C4.47762 5.72743 7.75512 2.344 11.8192 2.25025C13.3942 2.2121 14.9412 2.6709 16.2408 3.56156C17.5403 4.45223 18.5264 5.72951 19.0591 7.2122C19.5918 8.69489 19.644 10.3077 19.2084 11.8217C18.7728 13.3358 17.8715 14.6742 16.6323 15.6471C16.359 15.859 16.1375 16.1304 15.9846 16.4407C15.8318 16.7509 15.7516 17.0919 15.7501 17.4377V18.0002C15.7501 18.1992 15.6711 18.3899 15.5304 18.5306C15.3898 18.6712 15.199 18.7502 15.0001 18.7502H9.00012C8.8012 18.7502 8.61044 18.6712 8.46979 18.5306C8.32913 18.3899 8.25012 18.1992 8.25012 18.0002V17.4377C8.24976 17.0941 8.17104 16.7551 8.01996 16.4464C7.86888 16.1377 7.64941 15.8676 7.37824 15.6565Z" stroke="black" stroke-width="1.5" stroke-linecap="round" stroke-linejoin="round"/>
</svg>
