<svg xmlns="http://www.w3.org/2000/svg" width="24" height="24" fill="currentColor" viewBox="0 0 24 24"><path d="M16.657 22.53a0.607 0.607 0 0 1-0.607 0.607h-8.1a0.607 0.607 0 0 1 0-1.214h8.1a0.607 0.607 0 0 1 0.607 0.607m4.05-12.96a8.664 8.664 0 0 1-3.329 6.848 1.848 1.848 0 0 0-0.721 1.455v0.607a1.416 1.416 0 0 1-1.417 1.417H8.76A1.416 1.416 0 0 1 7.343 18.48v-0.607a1.824 1.824 0 0 0-0.709-1.441 8.664 8.664 0 0 1-3.341-6.808c-0.026-4.721 3.786-8.647 8.498-8.761a8.707 8.707 0 0 1 8.917 8.707z m-1.214 0a7.493 7.493 0 0 0-7.674-7.493c-4.054 0.101-7.333 3.476-7.312 7.535a7.464 7.464 0 0 0 2.875 5.86 3.036 3.036 0 0 1 1.175 2.401v0.607a0.204 0.204 0 0 0 0.203 0.203h6.48a0.204 0.204 0 0 0 0.203-0.203v-0.607a3.06 3.06 0 0 1 1.184-2.407 7.452 7.452 0 0 0 2.866-5.895z m-2.033-0.911a5.628 5.628 0 0 0-4.548-4.548 0.608 0.608 0 1 0-0.203 1.199c1.759 0.295 3.253 1.79 3.552 3.552a0.607 0.607 0 0 0 0.599 0.506l0.101-0.008a0.607 0.607 0 0 0 0.499-0.701"/></svg>