<svg viewBox="0 0 24 24" fill="none" xmlns="http://www.w3.org/2000/svg" width="24" height="24">
<path d="M21.601 7.104C21.601 6.562 21.495 6.026 21.287 5.526 21.08 5.026 20.777 4.572 20.394 4.189 20.012 3.806 19.557 3.503 19.057 3.296 18.557 3.089 18.021 2.982 17.48 2.982 16.939 2.982 16.404 3.089 15.904 3.296 15.404 3.503 14.949 3.807 14.567 4.189L13.452 5.304C13.218 5.537 12.838 5.538 12.604 5.304 12.37 5.069 12.37 4.69 12.604 4.455L13.718 3.341C14.212 2.847 14.799 2.455 15.444 2.188 16.09 1.92 16.781 1.782 17.48 1.782 18.179 1.782 18.871 1.92 19.517 2.188 20.162 2.455 20.749 2.847 21.243 3.341L21.423 3.531C21.833 3.983 22.162 4.502 22.396 5.067 22.663 5.712 22.801 6.405 22.801 7.104 22.801 7.802 22.663 8.494 22.396 9.139 22.162 9.704 21.833 10.225 21.423 10.677L21.243 10.865 17.727 14.381C17.233 14.876 16.645 15.268 15.999 15.535 15.353 15.803 14.66 15.94 13.961 15.94 13.261 15.939 12.568 15.801 11.922 15.533 11.276 15.264 10.689 14.87 10.196 14.375 9.685 13.864 9.283 13.254 9.017 12.583 8.75 11.911 8.623 11.191 8.644 10.468 8.654 10.137 8.931 9.877 9.262 9.887 9.593 9.897 9.852 10.172 9.843 10.503 9.827 11.062 9.926 11.619 10.132 12.139 10.313 12.594 10.574 13.013 10.901 13.375L11.045 13.528C11.428 13.911 11.882 14.216 12.382 14.424 12.882 14.632 13.419 14.739 13.961 14.74 14.503 14.74 15.04 14.634 15.54 14.427 16.041 14.22 16.496 13.916 16.879 13.533L20.394 10.017C20.777 9.634 21.08 9.181 21.287 8.681 21.495 8.181 21.601 7.645 21.601 7.104Z" fill="black"/>
<path d="M9.383 6.64C10.082 6.64 10.773 6.778 11.419 7.046 12.064 7.313 12.65 7.704 13.144 8.198 13.657 8.709 14.061 9.32 14.33 9.993 14.598 10.666 14.725 11.387 14.703 12.112 14.694 12.443 14.418 12.703 14.087 12.694 13.756 12.684 13.495 12.408 13.505 12.076 13.521 11.516 13.422 10.958 13.214 10.437 13.007 9.916 12.695 9.444 12.298 9.048L12.297 9.047C11.914 8.665 11.459 8.361 10.959 8.154 10.46 7.947 9.924 7.84 9.383 7.84 8.842 7.84 8.306 7.947 7.806 8.154 7.306 8.361 6.851 8.664 6.469 9.047L2.953 12.563C2.181 13.335 1.747 14.382 1.746 15.474 1.745 16.565 2.178 17.613 2.948 18.386 3.331 18.77 3.785 19.074 4.286 19.282 4.786 19.49 5.322 19.597 5.864 19.598 6.406 19.598 6.942 19.492 7.443 19.285 7.943 19.077 8.398 18.774 8.781 18.39L9.895 17.277C10.13 17.043 10.509 17.043 10.744 17.277 10.978 17.512 10.978 17.891 10.744 18.126L9.63 19.239C9.136 19.734 8.548 20.126 7.902 20.393 7.256 20.661 6.562 20.798 5.863 20.798 5.163 20.797 4.471 20.659 3.825 20.391 3.179 20.122 2.592 19.729 2.098 19.233 1.165 18.297 0.616 17.05 0.552 15.736L0.546 15.473C0.547 14.063 1.108 12.711 2.105 11.714L5.62 8.199 5.81 8.018C6.262 7.609 6.782 7.28 7.346 7.046 7.992 6.778 8.684 6.64 9.383 6.64Z" fill="black"/>
<path d="M19.822 15.543C20.157 15.543 20.429 15.815 20.429 16.15V17.979H22.245C22.581 17.979 22.854 18.251 22.854 18.586 22.854 18.922 22.581 19.193 22.245 19.193H20.429V21.01C20.429 21.345 20.157 21.618 19.822 21.618 19.486 21.618 19.215 21.345 19.215 21.01V19.193H17.386C17.05 19.193 16.779 18.922 16.779 18.586 16.779 18.251 17.05 17.979 17.386 17.979H19.215V16.15C19.215 15.815 19.487 15.543 19.822 15.543Z" fill="black"/>
</svg>