<svg xmlns="http://www.w3.org/2000/svg" width="24" height="24" fill="currentColor" viewBox="0 0 24 24"><path d="M20.91 1.673H3.09a1.416 1.416 0 0 0-1.417 1.417v17.82a1.416 1.416 0 0 0 1.417 1.417h17.82a1.416 1.416 0 0 0 1.417-1.417V3.09a1.416 1.416 0 0 0-1.417-1.417m0.203 19.237a0.204 0.204 0 0 1-0.203 0.203H3.09a0.204 0.204 0 0 1-0.203-0.203V3.09a0.204 0.204 0 0 1 0.203-0.203h17.82a0.204 0.204 0 0 1 0.203 0.203zM8.557 10.38v6.48a0.608 0.608 0 0 1-1.215 0v-6.48a0.608 0.608 0 0 1 1.215 0m8.91 2.836v3.644a0.608 0.608 0 0 1-1.215 0v-3.646a2.228 2.228 0 0 0-4.456 0v3.645a0.608 0.608 0 0 1-1.216 0v-6.48a0.607 0.607 0 0 1 1.215 0v0.213a3.443 3.443 0 0 1 5.67 2.621zM8.962 7.546a1.013 1.013 0 1 1-1.013-1.013 1.013 1.013 0 0 1 1.013 1.013"/></svg>