<svg width="24" height="24" viewBox="0 0 24 24" fill="none" xmlns="http://www.w3.org/2000/svg">
<path d="M19.4303 16.0303L19.4303 20.5303M9.44815 11.2537C9.43081 11.8472 9.53496 12.4381 9.75421 12.9899C9.97346 13.5417 10.3032 14.043 10.7231 14.4628C11.1289 14.8698 11.6109 15.1928 12.1416 15.4134C12.6723 15.6339 13.2412 15.7477 13.8159 15.7481C14.3906 15.7485 14.9598 15.6356 15.4908 15.4159C16.0218 15.1961 16.5043 14.8738 16.9106 14.4674L20.1656 11.2124C20.5716 10.8066 20.8937 10.3247 21.1134 9.79436C21.3331 9.26401 21.4462 8.69557 21.4462 8.1215C21.4462 7.54744 21.3331 6.979 21.1134 6.44865C20.8937 5.9183 20.5716 5.43643 20.1656 5.03057C19.7598 4.62458 19.2779 4.30253 18.7476 4.08281C18.2172 3.86309 17.6488 3.75 17.0747 3.75C16.5006 3.75 15.9322 3.86309 15.4019 4.08281C14.8715 4.30253 14.3896 4.62458 13.9838 5.03057L12.9525 6.06182M10.7438 17.279L9.71253 18.3102C9.30619 18.7166 8.8237 19.0389 8.29267 19.2587C7.76165 19.4784 7.1925 19.5913 6.6178 19.5909C6.04311 19.5904 5.47413 19.4767 4.94344 19.2561C4.41275 19.0356 3.93075 18.7125 3.52503 18.3055C2.70751 17.4852 2.24895 16.3739 2.25 15.2158C2.25106 14.0576 2.71165 12.9472 3.53065 12.1283L6.78565 8.87334C7.19152 8.46736 7.67339 8.14531 8.20374 7.92559C8.73408 7.70586 9.30252 7.59277 9.87659 7.59277C10.4507 7.59277 11.0191 7.70586 11.5494 7.92559C12.0798 8.14531 12.5617 8.46736 12.9675 8.87334C13.3892 9.29311 13.7204 9.79485 13.9407 10.3476C14.1609 10.9003 14.2656 11.4923 14.2481 12.0871M17.1747 18.2859H21.6747" stroke="black" stroke-width="1.5" stroke-linecap="round" stroke-linejoin="round"/>
</svg>
