<svg width="24" height="24" viewBox="0 0 24 24" fill="none" xmlns="http://www.w3.org/2000/svg">
<path d="M8.25 8.25C8.45711 8.25 8.625 8.08211 8.625 7.875C8.625 7.66789 8.45711 7.5 8.25 7.5C8.04289 7.5 7.875 7.66789 7.875 7.875C7.875 8.08211 8.04289 8.25 8.25 8.25Z" fill="black"/>
<path d="M12 10.5C12 10.0858 11.6642 9.75 11.25 9.75C10.8358 9.75 10.5 10.0858 10.5 10.5H11.25H12ZM10.5 16.5C10.5 16.9142 10.8358 17.25 11.25 17.25C11.6642 17.25 12 16.9142 12 16.5H11.25H10.5ZM9 10.5C9 10.0858 8.66421 9.75 8.25 9.75C7.83579 9.75 7.5 10.0858 7.5 10.5H8.25H9ZM7.5 16.5C7.5 16.9142 7.83579 17.25 8.25 17.25C8.66421 17.25 9 16.9142 9 16.5H8.25H7.5ZM10.5 13.125C10.5 13.5392 10.8358 13.875 11.25 13.875C11.6642 13.875 12 13.5392 12 13.125H11.25H10.5ZM13.875 10.5V9.75V10.5ZM15.75 16.5C15.75 16.9142 16.0858 17.25 16.5 17.25C16.9142 17.25 17.25 16.9142 17.25 16.5H16.5H15.75ZM3.75 3V3.75H20.25V3V2.25H3.75V3ZM20.25 3V3.75H21H21.75C21.75 2.92157 21.0784 2.25 20.25 2.25V3ZM21 3.75H20.25V20.25H21H21.75V3.75H21ZM21 20.25H20.25V21V21.75C21.0784 21.75 21.75 21.0784 21.75 20.25H21ZM20.25 21V20.25H3.75V21V21.75H20.25V21ZM3.75 21V20.25H3H2.25C2.25 21.0784 2.92157 21.75 3.75 21.75V21ZM3 20.25H3.75V3.75H3H2.25V20.25H3ZM3 3.75H3.75V3V2.25C2.92157 2.25 2.25 2.92157 2.25 3.75H3ZM11.25 10.5H10.5V16.5H11.25H12V10.5H11.25ZM8.25 10.5H7.5V16.5H8.25H9V10.5H8.25ZM11.25 13.125H12C12 12.6277 12.1975 12.1508 12.5492 11.7992L12.0188 11.2688L11.4885 10.7385C10.8556 11.3714 10.5 12.2299 10.5 13.125H11.25ZM12.0188 11.2688L12.5492 11.7992C12.9008 11.4475 13.3777 11.25 13.875 11.25V10.5V9.75C12.9799 9.75 12.1214 10.1056 11.4885 10.7385L12.0188 11.2688ZM13.875 10.5V11.25C14.3723 11.25 14.8492 11.4475 15.2008 11.7992L15.7312 11.2688L16.2615 10.7385C15.6286 10.1056 14.7701 9.75 13.875 9.75V10.5ZM15.7312 11.2688L15.2008 11.7992C15.5525 12.1508 15.75 12.6277 15.75 13.125H16.5H17.25C17.25 12.2299 16.8944 11.3714 16.2615 10.7385L15.7312 11.2688ZM16.5 13.125H15.75V16.5H16.5H17.25V13.125H16.5ZM8.625 7.875H7.875C7.875 7.66789 8.04289 7.5 8.25 7.5V8.25V9C8.87132 9 9.375 8.49632 9.375 7.875H8.625ZM8.25 8.25V7.5C8.45711 7.5 8.625 7.66789 8.625 7.875H7.875H7.125C7.125 8.49632 7.62868 9 8.25 9V8.25ZM7.875 7.875H8.625C8.625 8.08211 8.45711 8.25 8.25 8.25V7.5V6.75C7.62868 6.75 7.125 7.25368 7.125 7.875H7.875ZM8.25 7.5V8.25C8.04289 8.25 7.875 8.08211 7.875 7.875H8.625H9.375C9.375 7.25368 8.87132 6.75 8.25 6.75V7.5Z" fill="black"/>
</svg>
