<svg xmlns="http://www.w3.org/2000/svg" width="24" height="24" fill="currentColor" viewBox="0 0 24 24"><path d="M19.425 3.394H4.575a1.18 1.18 0 0 0-1.181 1.181v14.85a1.18 1.18 0 0 0 1.181 1.181h14.85a1.18 1.18 0 0 0 1.181-1.181V4.575a1.18 1.18 0 0 0-1.181-1.181m.169 16.031a.17.17 0 0 1-.169.169H4.575a.17.17 0 0 1-.169-.169V4.575a.17.17 0 0 1 .169-.169h14.85a.17.17 0 0 1 .169.169zM9.131 10.65v5.4a.507.507 0 0 1-1.013 0v-5.4a.507.507 0 0 1 1.013 0m7.425 2.363v3.037a.507.507 0 0 1-1.013 0v-3.038a1.857 1.857 0 0 0-3.713 0v3.037a.507.507 0 0 1-1.013 0v-5.4a.506.506 0 0 1 1.012 0v.178a2.869 2.869 0 0 1 4.725 2.184zM9.468 8.288a.844.844 0 1 1-.844-.844.844.844 0 0 1 .844.844"/></svg>