<svg width="24" height="24" viewBox="0 0 24 24" fill="none" xmlns="http://www.w3.org/2000/svg">
<path d="M9.00049 15L15.0005 9M10.5005 7.13596L13.3186 4.32346C14.1648 3.4909 15.3058 3.02645 16.4929 3.03129C17.68 3.03612 18.8171 3.50984 19.6566 4.34927C20.496 5.18869 20.9697 6.32581 20.9745 7.51293C20.9794 8.70004 20.5149 9.84098 19.6824 10.6872L16.8642 13.5006M7.13596 10.5L4.32346 13.3181C3.4909 14.1644 3.02645 15.3053 3.03129 16.4924C3.03612 17.6795 3.50984 18.8166 4.34927 19.6561C5.18869 20.4955 6.32581 20.9692 7.51293 20.974C8.70004 20.9789 9.84098 20.5144 10.6872 19.6819L13.5006 16.8637" stroke="black" stroke-width="1.5" stroke-linecap="round" stroke-linejoin="round"/>
</svg>
