<svg viewBox="0 0 24 24" fill="none" xmlns="http://www.w3.org/2000/svg" width="24" height="24">
<path d="M20.91 4.919C21.241 4.919 21.51 5.188 21.51 5.519 21.51 5.851 21.241 6.119 20.91 6.119H7.95C7.619 6.119 7.35 5.851 7.35 5.519 7.35 5.188 7.619 4.919 7.95 4.919H20.91Z" fill="black"/>
<path d="M20.91 11.4C21.241 11.4 21.51 11.668 21.51 12 21.51 12.331 21.241 12.6 20.91 12.6H7.95C7.619 12.6 7.35 12.331 7.35 12 7.35 11.668 7.619 11.4 7.95 11.4H20.91Z" fill="black"/>
<path d="M20.91 17.88C21.241 17.88 21.51 18.148 21.51 18.48 21.51 18.811 21.241 19.08 20.91 19.08H7.95C7.619 19.08 7.35 18.811 7.35 18.48 7.35 18.148 7.619 17.88 7.95 17.88H20.91Z" fill="black"/>
<path d="M3.495 6.734C4.166 6.734 4.71 6.191 4.71 5.519 4.71 4.848 4.166 4.304 3.495 4.304 2.824 4.304 2.28 4.848 2.28 5.519 2.28 6.191 2.824 6.734 3.495 6.734Z" fill="black"/>
<path d="M2.277 5.202C2.277 4.705 2.68 4.302 3.177 4.302H3.813C4.31 4.302 4.713 4.705 4.713 5.202V5.838C4.713 6.335 4.31 6.738 3.813 6.738H3.177C2.68 6.738 2.277 6.335 2.277 5.838V5.202Z" fill="black"/>
<path d="M2.277 11.681C2.277 11.184 2.68 10.781 3.177 10.781H3.813C4.31 10.781 4.713 11.184 4.713 11.681V12.317C4.713 12.814 4.31 13.217 3.813 13.217H3.177C2.68 13.217 2.277 12.814 2.277 12.317V11.681Z" fill="black"/>
<path d="M2.277 18.162C2.277 17.665 2.68 17.262 3.177 17.262H3.813C4.31 17.262 4.713 17.665 4.713 18.162V18.798C4.713 19.295 4.31 19.698 3.813 19.698H3.177C2.68 19.698 2.277 19.295 2.277 18.798V18.162Z" fill="black"/>
</svg>