<svg width="24" height="24" viewBox="0 0 24 24" fill="none" xmlns="http://www.w3.org/2000/svg">
<path d="M8.41123 20.0252C8.2779 20.0252 8.17123 19.9852 8.09123 19.9052C8.01456 19.8252 7.97623 19.7218 7.97623 19.5952C7.97623 19.4718 8.01456 19.3718 8.09123 19.2952C8.17123 19.2152 8.2779 19.1752 8.41123 19.1752C8.54456 19.1752 8.6479 19.2152 8.72123 19.2952C8.7979 19.3718 8.83623 19.4718 8.83623 19.5952C8.83623 19.7218 8.7979 19.8252 8.72123 19.9052C8.6479 19.9852 8.54456 20.0252 8.41123 20.0252Z" fill="black"/>
<path d="M7.00244 20.9452C6.88244 20.9452 6.78911 20.9118 6.72244 20.8452C6.65911 20.7818 6.62744 20.6885 6.62744 20.5652V16.8152C6.62744 16.6885 6.65911 16.5935 6.72244 16.5302C6.78911 16.4635 6.88244 16.4302 7.00244 16.4302C7.12244 16.4302 7.21577 16.4635 7.28244 16.5302C7.34911 16.5935 7.38244 16.6885 7.38244 16.8152V20.5652C7.38244 20.8185 7.25577 20.9452 7.00244 20.9452Z" fill="black"/>
<path d="M5.49365 20.9452C5.37365 20.9452 5.28032 20.9118 5.21365 20.8452C5.15032 20.7818 5.11865 20.6885 5.11865 20.5652V16.8152C5.11865 16.6885 5.15032 16.5935 5.21365 16.5302C5.28032 16.4635 5.37365 16.4302 5.49365 16.4302C5.61365 16.4302 5.70699 16.4635 5.77365 16.5302C5.84032 16.5935 5.87365 16.6885 5.87365 16.8152V20.5652C5.87365 20.8185 5.74699 20.9452 5.49365 20.9452Z" fill="black"/>
<path d="M3.98486 20.9452C3.86486 20.9452 3.77153 20.9118 3.70486 20.8452C3.64153 20.7818 3.60986 20.6885 3.60986 20.5652V16.8152C3.60986 16.6885 3.64153 16.5935 3.70486 16.5302C3.77153 16.4635 3.86486 16.4302 3.98486 16.4302C4.10486 16.4302 4.1982 16.4635 4.26486 16.5302C4.33153 16.5935 4.36486 16.6885 4.36486 16.8152V20.5652C4.36486 20.8185 4.2382 20.9452 3.98486 20.9452Z" fill="black"/>
<path d="M6.90244 14.0252C6.76911 14.0252 6.66244 13.9852 6.58244 13.9052C6.50577 13.8252 6.46744 13.7218 6.46744 13.5952C6.46744 13.4718 6.50577 13.3718 6.58244 13.2952C6.66244 13.2152 6.76911 13.1752 6.90244 13.1752C7.03577 13.1752 7.13911 13.2152 7.21244 13.2952C7.28911 13.3718 7.32744 13.4718 7.32744 13.5952C7.32744 13.7218 7.28911 13.8252 7.21244 13.9052C7.13911 13.9852 7.03577 14.0252 6.90244 14.0252Z" fill="black"/>
<path d="M5.49365 14.9452C5.37365 14.9452 5.28032 14.9118 5.21365 14.8452C5.15032 14.7818 5.11865 14.6885 5.11865 14.5652V10.8152C5.11865 10.6885 5.15032 10.5935 5.21365 10.5302C5.28032 10.4635 5.37365 10.4302 5.49365 10.4302C5.61365 10.4302 5.70699 10.4635 5.77365 10.5302C5.84032 10.5935 5.87365 10.6885 5.87365 10.8152V14.5652C5.87365 14.8185 5.74699 14.9452 5.49365 14.9452Z" fill="black"/>
<path d="M3.98486 14.9452C3.86486 14.9452 3.77153 14.9118 3.70486 14.8452C3.64153 14.7818 3.60986 14.6885 3.60986 14.5652V10.8152C3.60986 10.6885 3.64153 10.5935 3.70486 10.5302C3.77153 10.4635 3.86486 10.4302 3.98486 10.4302C4.10486 10.4302 4.1982 10.4635 4.26486 10.5302C4.33153 10.5935 4.36486 10.6885 4.36486 10.8152V14.5652C4.36486 14.8185 4.2382 14.9452 3.98486 14.9452Z" fill="black"/>
<path d="M5.39365 8.02518C5.26032 8.02518 5.15365 7.98518 5.07365 7.90518C4.99699 7.82518 4.95865 7.72184 4.95865 7.59518C4.95865 7.47184 4.99699 7.37184 5.07365 7.29518C5.15365 7.21518 5.26032 7.17518 5.39365 7.17518C5.52699 7.17518 5.63032 7.21518 5.70365 7.29518C5.78032 7.37184 5.81865 7.47184 5.81865 7.59518C5.81865 7.72184 5.78032 7.82518 5.70365 7.90518C5.63032 7.98518 5.52699 8.02518 5.39365 8.02518Z" fill="black"/>
<path d="M3.98486 8.94518C3.86486 8.94518 3.77153 8.91184 3.70486 8.84518C3.64153 8.78184 3.60986 8.68851 3.60986 8.56518V4.81518C3.60986 4.68851 3.64153 4.59351 3.70486 4.53018C3.77153 4.46351 3.86486 4.43018 3.98486 4.43018C4.10486 4.43018 4.1982 4.46351 4.26486 4.53018C4.33153 4.59351 4.36486 4.68851 4.36486 4.81518V8.56518C4.36486 8.81851 4.2382 8.94518 3.98486 8.94518Z" fill="black"/>
<path d="M20.2699 6.00018C20.546 6.0002 20.7699 6.22405 20.7699 6.50018C20.7699 6.77631 20.546 7.00015 20.2699 7.00018H10.7299C10.4537 7.00018 10.2299 6.77632 10.2299 6.50018C10.2299 6.22403 10.4537 6.00018 10.7299 6.00018H20.2699Z" fill="black"/>
<path d="M20.2699 19.0002C20.546 19.0002 20.7699 19.224 20.7699 19.5002C20.7699 19.7763 20.546 20.0002 20.2699 20.0002H10.7299C10.4537 20.0002 10.2299 19.7763 10.2299 19.5002C10.2299 19.224 10.4537 19.0002 10.7299 19.0002H20.2699Z" fill="black"/>
<path d="M20.2699 13.0002C20.546 13.0002 20.7699 13.224 20.7699 13.5002C20.7699 13.7763 20.546 14.0002 20.2699 14.0002H10.7299C10.4537 14.0002 10.2299 13.7763 10.2299 13.5002C10.2299 13.224 10.4537 13.0002 10.7299 13.0002H20.2699Z" fill="black"/>
</svg>
