<svg width="24" height="24" viewBox="0 0 24 24" fill="none" xmlns="http://www.w3.org/2000/svg">
<path d="M20.2498 5.34991H11.6267M20.2498 12.0516H11.6267M20.2498 18.6499H11.6267M6.8139 7.49899V4.77224C6.8139 4.06965 6.16257 3.49976 5.35944 3.49976C4.92492 3.49976 5.25274 3.50025 4.2686 3.50024M3.90522 13.7841V11.0574C3.90522 10.3548 3.90454 10.4276 3.90454 9.78491M6.96878 19.7813C6.74359 20.0816 6.42964 20.3033 6.0714 20.4152C5.71315 20.5272 5.32878 20.5235 4.97273 20.4048C4.61667 20.2861 4.30699 20.0584 4.08754 19.754C3.86809 19.4495 3.75 19.0837 3.75 18.7084C3.75 18.3331 3.86809 17.9673 4.08754 17.6628C4.30699 17.3583 4.61667 17.1306 4.97273 17.0119C5.32878 16.8932 5.71315 16.8896 6.0714 17.0015C6.42964 17.1134 6.74359 17.3352 6.96878 17.6355M6.81373 6.4927C6.81373 7.04891 6.16254 7.4998 5.35927 7.4998C4.55599 7.4998 3.90481 7.04891 3.90481 6.4927C3.90481 5.93649 4.55599 5.4856 5.35927 5.4856C6.16254 5.4856 6.81373 5.93649 6.81373 6.4927ZM3.90539 12.5124C3.90539 13.2152 4.55658 13.7849 5.35985 13.7849C6.16313 13.7849 6.81431 13.2152 6.81431 12.5124C6.81431 11.8097 6.16313 11.2399 5.35985 11.2399C4.55658 11.2399 3.90539 11.8097 3.90539 12.5124Z" stroke="black" stroke-width="1.5" stroke-linecap="round" stroke-linejoin="round"/>
</svg>
