<svg width="24" height="24" viewBox="0 0 24 24" fill="none" xmlns="http://www.w3.org/2000/svg">
<path d="M7.50269 7.48476L5.62732 3.4996L3.75195 7.48476M6.95106 6.31214H4.30328M4.28616 11.8882H5.90673M4.28616 11.8882V13.7882H6.01849C6.27044 13.7882 6.51208 13.6881 6.69023 13.5099C6.86839 13.3318 6.96848 13.0901 6.96848 12.8382C6.96848 12.5862 6.86839 12.3446 6.69023 12.1665C6.51208 11.9883 6.27044 11.8882 6.01849 11.8882H5.90673M4.28616 11.8882V10.2118H5.90673C6.12904 10.2118 6.34224 10.3001 6.49944 10.4573C6.65664 10.6145 6.74495 10.8277 6.74495 11.05C6.74495 11.2723 6.65664 11.4855 6.49944 11.6427C6.34224 11.7999 6.12904 11.8882 5.90673 11.8882M7.2366 19.7811C7.01141 20.0814 6.69746 20.3032 6.33922 20.4151C5.98098 20.527 5.5966 20.5233 5.24055 20.4047C4.8845 20.286 4.57481 20.0583 4.35536 19.7538C4.13591 19.4493 4.01782 19.0835 4.01782 18.7082C4.01782 18.3329 4.13591 17.9671 4.35536 17.6626C4.57481 17.3582 4.8845 17.1305 5.24055 17.0118C5.5966 16.8931 5.98098 16.8894 6.33922 17.0013C6.69746 17.1132 7.01141 17.335 7.2366 17.6353M20.2498 5.35H11.6267M20.2498 12.0517H11.6267M20.2498 18.65H11.6267" stroke="black" stroke-width="1.5" stroke-linecap="round" stroke-linejoin="round"/>
</svg>
