<svg width="24" height="24" viewBox="0 0 24 24" fill="none" xmlns="http://www.w3.org/2000/svg">
<path d="M6.05821 19.8125C5.66821 19.8125 5.33321 19.7375 5.05321 19.5875C4.77321 19.4375 4.55821 19.2258 4.40821 18.9525C4.26154 18.6792 4.18821 18.3592 4.18821 17.9925C4.18821 17.7192 4.22988 17.4708 4.31321 17.2475C4.39988 17.0242 4.52321 16.8325 4.68321 16.6725C4.84654 16.5125 5.04321 16.3908 5.27321 16.3075C5.50654 16.2208 5.76821 16.1775 6.05821 16.1775C6.21154 16.1775 6.36988 16.1958 6.53321 16.2325C6.69988 16.2658 6.84654 16.3175 6.97321 16.3875C7.06654 16.4375 7.13154 16.5008 7.16821 16.5775C7.20488 16.6542 7.21654 16.7325 7.20321 16.8125C7.19321 16.8925 7.16488 16.9642 7.11821 17.0275C7.07154 17.0908 7.01154 17.1342 6.93821 17.1575C6.86488 17.1775 6.78488 17.1658 6.69821 17.1225C6.59821 17.0758 6.49821 17.0408 6.39821 17.0175C6.30154 16.9908 6.19988 16.9775 6.09321 16.9775C5.88654 16.9775 5.71321 17.0175 5.57321 17.0975C5.43654 17.1742 5.33321 17.2875 5.26321 17.4375C5.19321 17.5875 5.15821 17.7725 5.15821 17.9925C5.15821 18.2125 5.19321 18.3992 5.26321 18.5525C5.33321 18.7025 5.43654 18.8175 5.57321 18.8975C5.71321 18.9742 5.88654 19.0125 6.09321 19.0125C6.17988 19.0125 6.27321 19.0025 6.37321 18.9825C6.47321 18.9592 6.57154 18.9242 6.66821 18.8775C6.76821 18.8342 6.85654 18.8225 6.93321 18.8425C7.01321 18.8625 7.07654 18.9025 7.12321 18.9625C7.17321 19.0225 7.20488 19.0925 7.21821 19.1725C7.23154 19.2492 7.21988 19.3258 7.18321 19.4025C7.14988 19.4792 7.08988 19.5408 7.00321 19.5875C6.88654 19.6575 6.74154 19.7125 6.56821 19.7525C6.39821 19.7925 6.22821 19.8125 6.05821 19.8125Z" fill="black"/>
<path d="M4.72403 13.7575C4.56736 13.7575 4.44736 13.7175 4.36403 13.6375C4.28403 13.5542 4.24403 13.4358 4.24403 13.2825V10.7075C4.24403 10.5542 4.28403 10.4375 4.36403 10.3575C4.44736 10.2742 4.56736 10.2325 4.72403 10.2325H5.94403C6.19736 10.2325 6.41236 10.2708 6.58903 10.3475C6.76903 10.4208 6.9057 10.5258 6.99903 10.6625C7.09236 10.7992 7.13903 10.9592 7.13903 11.1425C7.13903 11.3492 7.07903 11.5258 6.95903 11.6725C6.84236 11.8192 6.68236 11.9192 6.47903 11.9725V11.8925C6.71903 11.9358 6.90403 12.0325 7.03403 12.1825C7.16736 12.3325 7.23403 12.5242 7.23403 12.7575C7.23403 13.0675 7.12236 13.3125 6.89903 13.4925C6.67903 13.6692 6.37736 13.7575 5.99403 13.7575H4.72403ZM5.12403 13.0825H5.86903C6.03903 13.0825 6.16236 13.0508 6.23903 12.9875C6.31903 12.9208 6.35903 12.8225 6.35903 12.6925C6.35903 12.5625 6.31903 12.4658 6.23903 12.4025C6.16236 12.3392 6.03903 12.3075 5.86903 12.3075H5.12403V13.0825ZM5.12403 11.6325H5.77903C5.9457 11.6325 6.06736 11.6025 6.14403 11.5425C6.22403 11.4825 6.26403 11.3908 6.26403 11.2675C6.26403 11.1442 6.22403 11.0542 6.14403 10.9975C6.06736 10.9375 5.9457 10.9075 5.77903 10.9075H5.12403V11.6325Z" fill="black"/>
<path d="M4.25766 7.8025C4.15433 7.8025 4.06766 7.77917 3.99766 7.7325C3.92766 7.6825 3.88433 7.61583 3.86766 7.5325C3.851 7.44583 3.866 7.34917 3.91266 7.2425L5.15766 4.5625C5.21766 4.4325 5.291 4.3375 5.37766 4.2775C5.46766 4.2175 5.56933 4.1875 5.68266 4.1875C5.796 4.1875 5.89433 4.2175 5.97766 4.2775C6.06433 4.3375 6.13933 4.4325 6.20266 4.5625L7.44766 7.2425C7.501 7.34917 7.51933 7.44583 7.50266 7.5325C7.48933 7.61917 7.44766 7.68583 7.37766 7.7325C7.311 7.77917 7.22766 7.8025 7.12766 7.8025C6.99433 7.8025 6.891 7.7725 6.81766 7.7125C6.74766 7.6525 6.68433 7.55583 6.62766 7.4225L6.35766 6.7875L6.70766 7.0425H4.64766L5.00266 6.7875L4.73266 7.4225C4.67266 7.55583 4.611 7.6525 4.54766 7.7125C4.48433 7.7725 4.38766 7.8025 4.25766 7.8025ZM5.67266 5.1925L5.09266 6.5775L4.95266 6.3375H6.40766L6.26766 6.5775L5.68266 5.1925H5.67266Z" fill="black"/>
<path d="M19.6389 5.52703C19.9149 5.52716 20.1389 5.75097 20.1389 6.02703C20.1389 6.30309 19.9149 6.5269 19.6389 6.52703H9.09786C8.82172 6.52703 8.59786 6.30317 8.59786 6.02703C8.59786 5.75089 8.82172 5.52703 9.09786 5.52703H19.6389Z" fill="black"/>
<path d="M19.6389 17.4279C19.9149 17.428 20.1389 17.6518 20.1389 17.9279C20.1389 18.204 19.9149 18.4278 19.6389 18.4279H9.09786C8.82172 18.4279 8.59786 18.2041 8.59786 17.9279C8.59786 17.6518 8.82172 17.4279 9.09786 17.4279H19.6389Z" fill="black"/>
<path d="M19.6389 11.4802C19.9149 11.4803 20.1389 11.7041 20.1389 11.9802C20.1389 12.2562 19.9149 12.48 19.6389 12.4802H9.09786C8.82172 12.4802 8.59786 12.2563 8.59786 11.9802C8.59786 11.704 8.82172 11.4802 9.09786 11.4802H19.6389Z" fill="black"/>
</svg>
