<svg xmlns="http://www.w3.org/2000/svg" fill="currentColor" viewBox="0 0 24 24" width="24" height="24"><path d="M21.517 12a0.607 0.607 0 0 1-0.607 0.607h-11.34a0.608 0.608 0 0 1 0-1.215h11.34a0.607 0.607 0 0 1 0.607 0.607zM9.57 6.127h11.34a0.608 0.608 0 0 0 0-1.215h-11.34a0.608 0.608 0 0 0 0 1.215m11.34 11.746h-11.34a0.607 0.607 0 0 0 0 1.214h11.34a0.607 0.607 0 0 0 0-1.214M3.361 4.444l0.742-0.371v5.497a0.608 0.608 0 0 0 1.215 0v-6.48a0.607 0.607 0 0 0-0.878-0.544l-1.62 0.81a0.607 0.607 0 0 0 0.542 1.088z m2.969 15.049H4.304l2.175-2.91a2.16 2.16 0 0 0 0.437-1.647 2.208 2.208 0 0 0-0.891-1.48 2.316 2.316 0 0 0-3.174 0.436 2.28 2.28 0 0 0-0.332 0.599 0.608 0.608 0 0 0 1.142 0.417 0.96 0.96 0 0 1 0.15-0.27 1.092 1.092 0 0 1 1.497-0.203 0.996 0.996 0 0 1 0.405 0.669 0.96 0.96 0 0 1-0.203 0.737l-0.006 0.01-2.9 3.885a0.607 0.607 0 0 0 0.486 0.971h3.24a0.607 0.607 0 0 0 0-1.214"/></svg>