<svg width="24" height="24" viewBox="0 0 24 24" fill="none" xmlns="http://www.w3.org/2000/svg">
<path d="M7.89876 20.0248C7.76543 20.0248 7.65876 19.9848 7.57876 19.9048C7.50209 19.8248 7.46376 19.7215 7.46376 19.5948C7.46376 19.4715 7.50209 19.3715 7.57876 19.2948C7.65876 19.2148 7.76543 19.1748 7.89876 19.1748C8.03209 19.1748 8.13543 19.2148 8.20876 19.2948C8.28543 19.3715 8.32376 19.4715 8.32376 19.5948C8.32376 19.7215 8.28543 19.8248 8.20876 19.9048C8.13543 19.9848 8.03209 20.0248 7.89876 20.0248Z" fill="black"/>
<path d="M6.57587 20.0398C6.45254 20.0398 6.35754 20.0048 6.29087 19.9348C6.22754 19.8615 6.19587 19.7598 6.19587 19.6298V17.9198C6.19587 17.7865 6.22754 17.6848 6.29087 17.6148C6.35754 17.5415 6.45254 17.5048 6.57587 17.5048C6.69587 17.5048 6.78754 17.5415 6.85087 17.6148C6.91754 17.6848 6.95087 17.7865 6.95087 17.9198V19.6298C6.95087 19.7598 6.9192 19.8615 6.85587 19.9348C6.79254 20.0048 6.6992 20.0398 6.57587 20.0398ZM6.57587 17.0948C6.43587 17.0948 6.32754 17.0632 6.25087 16.9998C6.17754 16.9332 6.14087 16.8398 6.14087 16.7198C6.14087 16.5965 6.17754 16.5032 6.25087 16.4398C6.32754 16.3732 6.43587 16.3398 6.57587 16.3398C6.71587 16.3398 6.82254 16.3732 6.89587 16.4398C6.9692 16.5032 7.00587 16.5965 7.00587 16.7198C7.00587 16.8398 6.9692 16.9332 6.89587 16.9998C6.82254 17.0632 6.71587 17.0948 6.57587 17.0948Z" fill="black"/>
<path d="M5.23798 20.0398C5.11465 20.0398 5.01965 20.0048 4.95298 19.9348C4.88965 19.8615 4.85798 19.7598 4.85798 19.6298V17.9198C4.85798 17.7865 4.88965 17.6848 4.95298 17.6148C5.01965 17.5415 5.11465 17.5048 5.23798 17.5048C5.35798 17.5048 5.44965 17.5415 5.51298 17.6148C5.57965 17.6848 5.61298 17.7865 5.61298 17.9198V19.6298C5.61298 19.7598 5.58131 19.8615 5.51798 19.9348C5.45465 20.0048 5.36131 20.0398 5.23798 20.0398ZM5.23798 17.0948C5.09798 17.0948 4.98965 17.0632 4.91298 16.9998C4.83965 16.9332 4.80298 16.8398 4.80298 16.7198C4.80298 16.5965 4.83965 16.5032 4.91298 16.4398C4.98965 16.3732 5.09798 16.3398 5.23798 16.3398C5.37798 16.3398 5.48465 16.3732 5.55798 16.4398C5.63131 16.5032 5.66798 16.5965 5.66798 16.7198C5.66798 16.8398 5.63131 16.9332 5.55798 16.9998C5.48465 17.0632 5.37798 17.0948 5.23798 17.0948Z" fill="black"/>
<path d="M3.90009 20.0398C3.77675 20.0398 3.68175 20.0048 3.61509 19.9348C3.55175 19.8615 3.52009 19.7598 3.52009 19.6298V17.9198C3.52009 17.7865 3.55175 17.6848 3.61509 17.6148C3.68175 17.5415 3.77675 17.5048 3.90009 17.5048C4.02009 17.5048 4.11175 17.5415 4.17509 17.6148C4.24175 17.6848 4.27509 17.7865 4.27509 17.9198V19.6298C4.27509 19.7598 4.24342 19.8615 4.18009 19.9348C4.11675 20.0048 4.02342 20.0398 3.90009 20.0398ZM3.90009 17.0948C3.76009 17.0948 3.65175 17.0632 3.57509 16.9998C3.50175 16.9332 3.46509 16.8398 3.46509 16.7198C3.46509 16.5965 3.50175 16.5032 3.57509 16.4398C3.65175 16.3732 3.76009 16.3398 3.90009 16.3398C4.04009 16.3398 4.14675 16.3732 4.22009 16.4398C4.29342 16.5032 4.33009 16.5965 4.33009 16.7198C4.33009 16.8398 4.29342 16.9332 4.22009 16.9998C4.14675 17.0632 4.04009 17.0948 3.90009 17.0948Z" fill="black"/>
<path d="M6.56087 14.0248C6.42754 14.0248 6.32087 13.9848 6.24087 13.9048C6.1642 13.8248 6.12587 13.7215 6.12587 13.5948C6.12587 13.4715 6.1642 13.3715 6.24087 13.2948C6.32087 13.2148 6.42754 13.1748 6.56087 13.1748C6.6942 13.1748 6.79754 13.2148 6.87087 13.2948C6.94754 13.3715 6.98587 13.4715 6.98587 13.5948C6.98587 13.7215 6.94754 13.8248 6.87087 13.9048C6.79754 13.9848 6.6942 14.0248 6.56087 14.0248Z" fill="black"/>
<path d="M5.23798 14.0398C5.11465 14.0398 5.01965 14.0048 4.95298 13.9348C4.88965 13.8615 4.85798 13.7598 4.85798 13.6298V11.9198C4.85798 11.7865 4.88965 11.6848 4.95298 11.6148C5.01965 11.5415 5.11465 11.5048 5.23798 11.5048C5.35798 11.5048 5.44965 11.5415 5.51298 11.6148C5.57965 11.6848 5.61298 11.7865 5.61298 11.9198V13.6298C5.61298 13.7598 5.58131 13.8615 5.51798 13.9348C5.45465 14.0048 5.36131 14.0398 5.23798 14.0398ZM5.23798 11.0948C5.09798 11.0948 4.98965 11.0632 4.91298 10.9998C4.83965 10.9332 4.80298 10.8398 4.80298 10.7198C4.80298 10.5965 4.83965 10.5032 4.91298 10.4398C4.98965 10.3732 5.09798 10.3398 5.23798 10.3398C5.37798 10.3398 5.48465 10.3732 5.55798 10.4398C5.63131 10.5032 5.66798 10.5965 5.66798 10.7198C5.66798 10.8398 5.63131 10.9332 5.55798 10.9998C5.48465 11.0632 5.37798 11.0948 5.23798 11.0948Z" fill="black"/>
<path d="M3.90009 14.0398C3.77675 14.0398 3.68175 14.0048 3.61509 13.9348C3.55175 13.8615 3.52009 13.7598 3.52009 13.6298V11.9198C3.52009 11.7865 3.55175 11.6848 3.61509 11.6148C3.68175 11.5415 3.77675 11.5048 3.90009 11.5048C4.02009 11.5048 4.11175 11.5415 4.17509 11.6148C4.24175 11.6848 4.27509 11.7865 4.27509 11.9198V13.6298C4.27509 13.7598 4.24342 13.8615 4.18009 13.9348C4.11675 14.0048 4.02342 14.0398 3.90009 14.0398ZM3.90009 11.0948C3.76009 11.0948 3.65175 11.0632 3.57509 10.9998C3.50175 10.9332 3.46509 10.8398 3.46509 10.7198C3.46509 10.5965 3.50175 10.5032 3.57509 10.4398C3.65175 10.3732 3.76009 10.3398 3.90009 10.3398C4.04009 10.3398 4.14675 10.3732 4.22009 10.4398C4.29342 10.5032 4.33009 10.5965 4.33009 10.7198C4.33009 10.8398 4.29342 10.9332 4.22009 10.9998C4.14675 11.0632 4.04009 11.0948 3.90009 11.0948Z" fill="black"/>
<path d="M5.22298 8.02484C5.08964 8.02484 4.98298 7.98484 4.90298 7.90484C4.82631 7.82484 4.78798 7.72151 4.78798 7.59484C4.78798 7.47151 4.82631 7.37151 4.90298 7.29484C4.98298 7.21484 5.08964 7.17484 5.22298 7.17484C5.35631 7.17484 5.45964 7.21484 5.53298 7.29484C5.60964 7.37151 5.64798 7.47151 5.64798 7.59484C5.64798 7.72151 5.60964 7.82484 5.53298 7.90484C5.45964 7.98484 5.35631 8.02484 5.22298 8.02484Z" fill="black"/>
<path d="M3.90009 8.03984C3.77675 8.03984 3.68175 8.00484 3.61509 7.93484C3.55175 7.86151 3.52009 7.75984 3.52009 7.62984V5.91984C3.52009 5.78651 3.55175 5.68484 3.61509 5.61484C3.68175 5.54151 3.77675 5.50484 3.90009 5.50484C4.02009 5.50484 4.11175 5.54151 4.17509 5.61484C4.24175 5.68484 4.27509 5.78651 4.27509 5.91984V7.62984C4.27509 7.75984 4.24342 7.86151 4.18009 7.93484C4.11675 8.00484 4.02342 8.03984 3.90009 8.03984ZM3.90009 5.09484C3.76009 5.09484 3.65175 5.06318 3.57509 4.99984C3.50175 4.93318 3.46509 4.83984 3.46509 4.71984C3.46509 4.59651 3.50175 4.50318 3.57509 4.43984C3.65175 4.37318 3.76009 4.33984 3.90009 4.33984C4.04009 4.33984 4.14675 4.37318 4.22009 4.43984C4.29342 4.50318 4.33009 4.59651 4.33009 4.71984C4.33009 4.83984 4.29342 4.93318 4.22009 4.99984C4.14675 5.06318 4.04009 5.09484 3.90009 5.09484Z" fill="black"/>
<path d="M20.2701 5.99984C20.5463 5.99987 20.7701 6.22371 20.7701 6.49984C20.7701 6.77597 20.5463 6.99982 20.2701 6.99984H10.7301C10.4539 6.99984 10.2301 6.77599 10.2301 6.49984C10.2301 6.2237 10.4539 5.99984 10.7301 5.99984H20.2701Z" fill="black"/>
<path d="M20.2701 18.9998C20.5463 18.9999 20.7701 19.2237 20.7701 19.4998C20.7701 19.776 20.5463 19.9998 20.2701 19.9998H10.7301C10.4539 19.9998 10.2301 19.776 10.2301 19.4998C10.2301 19.2237 10.4539 18.9998 10.7301 18.9998H20.2701Z" fill="black"/>
<path d="M20.2701 12.9998C20.5463 12.9999 20.7701 13.2237 20.7701 13.4998C20.7701 13.776 20.5463 13.9998 20.2701 13.9998H10.7301C10.4539 13.9998 10.2301 13.776 10.2301 13.4998C10.2301 13.2237 10.4539 12.9998 10.7301 12.9998H20.2701Z" fill="black"/>
</svg>
