<svg viewBox="0 0 24 24" fill="none" xmlns="http://www.w3.org/2000/svg" width="24" height="24">
<path d="M5.189 21.666C4.857 21.666 4.567 21.604 4.319 21.48 4.075 21.356 3.885 21.178 3.749 20.946 3.613 20.71 3.545 20.434 3.545 20.118 3.545 19.878 3.583 19.664 3.659 19.476 3.735 19.284 3.845 19.122 3.989 18.99 4.137 18.858 4.311 18.758 4.511 18.69 4.715 18.618 4.941 18.582 5.189 18.582 5.305 18.582 5.427 18.594 5.555 18.618 5.683 18.638 5.815 18.678 5.951 18.738 6.047 18.774 6.113 18.83 6.149 18.906 6.189 18.978 6.205 19.056 6.197 19.14 6.193 19.224 6.169 19.3 6.125 19.368 6.085 19.436 6.027 19.482 5.951 19.506 5.879 19.53 5.797 19.52 5.705 19.476 5.641 19.444 5.573 19.422 5.501 19.41 5.433 19.394 5.367 19.386 5.303 19.386 5.195 19.386 5.099 19.402 5.015 19.434 4.935 19.466 4.867 19.514 4.811 19.578 4.755 19.638 4.711 19.714 4.679 19.806 4.651 19.898 4.637 20.002 4.637 20.118 4.637 20.35 4.695 20.532 4.811 20.664 4.927 20.796 5.091 20.862 5.303 20.862 5.367 20.862 5.433 20.856 5.501 20.844 5.569 20.828 5.637 20.804 5.705 20.772 5.797 20.728 5.879 20.72 5.951 20.748 6.023 20.772 6.081 20.818 6.125 20.886 6.169 20.954 6.193 21.03 6.197 21.114 6.201 21.194 6.183 21.272 6.143 21.348 6.103 21.42 6.035 21.474 5.939 21.51 5.807 21.57 5.677 21.61 5.549 21.63 5.425 21.654 5.305 21.666 5.189 21.666Z" fill="black"/>
<path d="M5.22 14.466C4.992 14.466 4.788 14.412 4.608 14.304 4.432 14.192 4.316 14.046 4.26 13.866L4.326 13.62V13.914C4.326 14.09 4.28 14.224 4.188 14.316 4.1 14.408 3.972 14.454 3.804 14.454 3.632 14.454 3.5 14.408 3.408 14.316 3.32 14.224 3.276 14.09 3.276 13.914V10.656C3.276 10.48 3.322 10.346 3.414 10.254 3.506 10.162 3.636 10.116 3.804 10.116 3.976 10.116 4.108 10.162 4.2 10.254 4.296 10.346 4.344 10.48 4.344 10.656V11.94H4.272C4.332 11.776 4.45 11.642 4.626 11.538 4.802 11.434 5 11.382 5.22 11.382 5.476 11.382 5.7 11.444 5.892 11.568 6.088 11.692 6.24 11.868 6.348 12.096 6.456 12.324 6.51 12.6 6.51 12.924 6.51 13.24 6.456 13.514 6.348 13.746 6.24 13.978 6.088 14.156 5.892 14.28 5.7 14.404 5.476 14.466 5.22 14.466ZM4.884 13.68C4.992 13.68 5.086 13.654 5.166 13.602 5.25 13.546 5.316 13.464 5.364 13.356 5.412 13.244 5.436 13.1 5.436 12.924 5.436 12.656 5.384 12.464 5.28 12.348 5.176 12.228 5.044 12.168 4.884 12.168 4.776 12.168 4.68 12.194 4.596 12.246 4.512 12.298 4.446 12.38 4.398 12.492 4.35 12.6 4.326 12.744 4.326 12.924 4.326 13.188 4.378 13.38 4.482 13.5 4.586 13.62 4.72 13.68 4.884 13.68Z" fill="black"/>
<path d="M4.457 7.266C4.229 7.266 4.027 7.224 3.851 7.14 3.679 7.056 3.543 6.942 3.443 6.798 3.347 6.65 3.299 6.482 3.299 6.294 3.299 6.078 3.355 5.908 3.467 5.784 3.579 5.66 3.759 5.572 4.007 5.52 4.255 5.464 4.585 5.436 4.997 5.436H5.327V5.94H4.997C4.841 5.94 4.711 5.952 4.607 5.976 4.507 5.996 4.433 6.03 4.385 6.078 4.337 6.122 4.313 6.18 4.313 6.252 4.313 6.344 4.345 6.42 4.409 6.48 4.477 6.54 4.573 6.57 4.697 6.57 4.797 6.57 4.885 6.548 4.961 6.504 5.041 6.46 5.105 6.4 5.153 6.324 5.201 6.244 5.225 6.152 5.225 6.048V5.352C5.225 5.208 5.187 5.106 5.111 5.046 5.039 4.986 4.913 4.956 4.733 4.956 4.637 4.956 4.529 4.968 4.409 4.992 4.289 5.012 4.155 5.05 4.007 5.106 3.899 5.146 3.807 5.152 3.731 5.124 3.655 5.096 3.595 5.048 3.551 4.98 3.511 4.912 3.491 4.838 3.491 4.758 3.495 4.678 3.521 4.602 3.569 4.53 3.621 4.458 3.699 4.402 3.803 4.362 3.995 4.29 4.171 4.242 4.331 4.218 4.495 4.194 4.645 4.182 4.781 4.182 5.109 4.182 5.379 4.23 5.591 4.326 5.807 4.418 5.967 4.562 6.071 4.758 6.179 4.95 6.233 5.198 6.233 5.502V6.714C6.233 6.89 6.191 7.024 6.107 7.116 6.023 7.208 5.901 7.254 5.741 7.254 5.577 7.254 5.451 7.208 5.363 7.116 5.279 7.024 5.237 6.89 5.237 6.714V6.558L5.273 6.642C5.253 6.77 5.207 6.88 5.135 6.972 5.063 7.064 4.969 7.136 4.853 7.188 4.737 7.24 4.605 7.266 4.457 7.266Z" fill="black"/>
<path d="M21.576 5.348C21.907 5.348 22.176 5.617 22.176 5.948 22.176 6.28 21.907 6.548 21.576 6.548H8.926C8.595 6.548 8.326 6.28 8.326 5.948 8.326 5.617 8.595 5.348 8.926 5.348H21.576Z" fill="black"/>
<path d="M21.576 19.667C21.907 19.667 22.176 19.936 22.176 20.267 22.176 20.598 21.907 20.867 21.576 20.867H8.926C8.595 20.867 8.326 20.598 8.326 20.267 8.326 19.935 8.595 19.667 8.926 19.667H21.576Z" fill="black"/>
<path d="M21.576 12.38C21.907 12.38 22.176 12.648 22.176 12.98 22.176 13.311 21.907 13.579 21.576 13.58H8.926C8.595 13.58 8.326 13.311 8.326 12.98 8.326 12.648 8.595 12.38 8.926 12.38H21.576Z" fill="black"/>
</svg>