<svg xmlns="http://www.w3.org/2000/svg" width="24" height="24" fill="currentColor" viewBox="0 0 24 24"><path d="M12 5.723a3.847 3.847 0 1 0 3.847 3.847A3.847 3.847 0 0 0 12 5.723m0 6.48a2.633 2.633 0 1 1 2.633-2.633A2.633 2.633 0 0 1 12 12.203m0-11.34a8.718 8.718 0 0 0-8.707 8.707c0 3.13 1.452 6.454 4.199 9.613a25.56 25.56 0 0 0 4.16 3.847 0.612 0.612 0 0 0 0.697 0 25.56 25.56 0 0 0 4.161-3.847c2.747-3.16 4.199-6.48 4.198-9.613a8.718 8.718 0 0 0-8.707-8.707z m0 20.909c-1.519-1.172-7.493-6.166-7.493-12.202a7.493 7.493 0 0 1 14.986 0c0 6.036-5.974 11.029-7.493 12.202"/></svg>