<svg width="24" height="24" viewBox="0 0 24 24" fill="none" xmlns="http://www.w3.org/2000/svg">
<path d="M7.5 8.25C7.5 8.66421 7.83579 9 8.25 9C8.66421 9 9 8.66421 9 8.25H8.25H7.5ZM8.25 5.25H7.5H8.25ZM12 1.5V0.75V1.5ZM15 8.25C15 8.66421 15.3358 9 15.75 9C16.1642 9 16.5 8.66421 16.5 8.25H15.75H15ZM4.5 8.25V9H19.5V8.25V7.5H4.5V8.25ZM19.5 8.25V9H20.25H21C21 8.17157 20.3284 7.5 19.5 7.5V8.25ZM20.25 9H19.5V19.5H20.25H21V9H20.25ZM20.25 19.5H19.5V20.25V21C20.3284 21 21 20.3284 21 19.5H20.25ZM19.5 20.25V19.5H4.5V20.25V21H19.5V20.25ZM4.5 20.25V19.5H3.75H3C3 20.3284 3.67157 21 4.5 21V20.25ZM3.75 19.5H4.5V9H3.75H3V19.5H3.75ZM3.75 9H4.5V8.25V7.5C3.67157 7.5 3 8.17157 3 9H3.75ZM12.375 14.25H11.625C11.625 14.0429 11.7929 13.875 12 13.875V14.625V15.375C12.6213 15.375 13.125 14.8713 13.125 14.25H12.375ZM12 14.625V13.875C12.2071 13.875 12.375 14.0429 12.375 14.25H11.625H10.875C10.875 14.8713 11.3787 15.375 12 15.375V14.625ZM11.625 14.25H12.375C12.375 14.4571 12.2071 14.625 12 14.625V13.875V13.125C11.3787 13.125 10.875 13.6287 10.875 14.25H11.625ZM12 13.875V14.625C11.7929 14.625 11.625 14.4571 11.625 14.25H12.375H13.125C13.125 13.6287 12.6213 13.125 12 13.125V13.875ZM8.25 8.25H9V5.25H8.25H7.5V8.25H8.25ZM8.25 5.25H9C9 4.45435 9.31607 3.69129 9.87868 3.12868L9.34835 2.59835L8.81802 2.06802C7.97411 2.91193 7.5 4.05653 7.5 5.25H8.25ZM9.34835 2.59835L9.87868 3.12868C10.4413 2.56607 11.2044 2.25 12 2.25V1.5V0.75C10.8065 0.75 9.66193 1.22411 8.81802 2.06802L9.34835 2.59835ZM12 1.5V2.25C12.7956 2.25 13.5587 2.56607 14.1213 3.12868L14.6517 2.59835L15.182 2.06802C14.3381 1.22411 13.1935 0.75 12 0.75V1.5ZM14.6517 2.59835L14.1213 3.12868C14.6839 3.69129 15 4.45435 15 5.25H15.75H16.5C16.5 4.05653 16.0259 2.91193 15.182 2.06802L14.6517 2.59835ZM15.75 5.25H15V8.25H15.75H16.5V5.25H15.75Z" fill="black"/>
</svg>
