<svg xmlns="http://www.w3.org/2000/svg" width="24" height="24" fill="currentColor" viewBox="0 0 24 24"><path d="M20.1 7.343h-3.443V4.71a4.658 4.658 0 0 0-9.315 0v2.633H3.899A1.416 1.416 0 0 0 2.482 8.76v11.34a1.416 1.416 0 0 0 1.417 1.417h16.2a1.416 1.416 0 0 0 1.417-1.417V8.76a1.416 1.416 0 0 0-1.417-1.417zM8.557 4.71a3.443 3.443 0 0 1 6.886 0v2.633H8.557z m11.745 15.39a0.204 0.204 0 0 1-0.203 0.203h-16.2a0.204 0.204 0 0 1-0.203-0.203V8.76a0.204 0.204 0 0 1 0.203-0.203h16.2a0.204 0.204 0 0 1 0.203 0.203z m-7.29-5.67a1.013 1.013 0 1 1-1.013-1.013 1.013 1.013 0 0 1 1.013 1.013"/></svg>