<svg xmlns="http://www.w3.org/2000/svg" width="24" height="24" fill="currentColor" viewBox="0 0 24 24"><path d="M19.425 6.094h-3.544V5.25a1.856 1.856 0 0 0-1.856-1.856h-4.05A1.856 1.856 0 0 0 8.119 5.25v.844H4.575a1.18 1.18 0 0 0-1.181 1.181v10.8a1.18 1.18 0 0 0 1.181 1.181h14.85a1.18 1.18 0 0 0 1.181-1.181v-10.8a1.18 1.18 0 0 0-1.181-1.181M9.131 5.25a.844.844 0 0 1 .844-.844h4.05a.844.844 0 0 1 .844.844v.844H9.131zm5.738 1.856v11.138H9.131V7.106zM4.406 18.075v-10.8a.17.17 0 0 1 .169-.169h3.544v11.138H4.575a.17.17 0 0 1-.169-.169m15.188 0a.17.17 0 0 1-.169.169h-3.544V7.107h3.544a.17.17 0 0 1 .169.169z"/></svg>