<svg xmlns="http://www.w3.org/2000/svg" width="24" height="24" fill="currentColor" viewBox="0 0 24 24"><path d="M20.91 4.913h-4.253V3.9a2.227 2.227 0 0 0-2.227-2.227h-4.86A2.227 2.227 0 0 0 7.343 3.9v1.013H3.09a1.416 1.416 0 0 0-1.417 1.417v12.96a1.416 1.416 0 0 0 1.417 1.417h17.82a1.416 1.416 0 0 0 1.417-1.417v-12.96a1.416 1.416 0 0 0-1.417-1.417M8.557 3.9a1.013 1.013 0 0 1 1.013-1.013h4.86a1.013 1.013 0 0 1 1.013 1.013v1.013H8.557z m6.886 2.227v13.366H8.557V6.127zM2.887 19.29v-12.96a0.204 0.204 0 0 1 0.203-0.203h4.253v13.366H3.09a0.204 0.204 0 0 1-0.203-0.203m18.226 0a0.204 0.204 0 0 1-0.203 0.203h-4.253V6.128h4.253a0.204 0.204 0 0 1 0.203 0.203z"/></svg>