<svg viewBox="0 0 24 24" fill="none" xmlns="http://www.w3.org/2000/svg" width="24" height="24">
<path d="M14.036 14.219C13.705 14.219 13.436 13.95 13.436 13.619 13.436 13.288 13.705 13.019 14.036 13.019H18.89C19.221 13.019 19.49 13.288 19.49 13.619 19.49 13.95 19.221 14.219 18.89 14.219H14.036Z" fill="black"/>
<path d="M14.036 10.979C13.705 10.979 13.436 10.71 13.436 10.379 13.436 10.048 13.705 9.779 14.036 9.779L18.89 9.779C19.221 9.779 19.49 10.047 19.49 10.379 19.49 10.71 19.221 10.979 18.89 10.979L14.036 10.979Z" fill="black"/>
<path d="M5.121 14.219C4.79 14.219 4.521 13.95 4.521 13.619 4.521 13.288 4.79 13.019 5.121 13.019H9.975C10.306 13.019 10.575 13.288 10.575 13.619 10.575 13.95 10.306 14.219 9.975 14.219H5.121Z" fill="black"/>
<path d="M5.121 10.979C4.79 10.979 4.521 10.71 4.521 10.379 4.521 10.048 4.79 9.779 5.121 9.779L9.975 9.779C10.306 9.779 10.575 10.047 10.575 10.379 10.575 10.71 10.306 10.979 9.975 10.979L5.121 10.979Z" fill="black"/>
<path d="M11.411 3.09C11.411 2.759 11.68 2.49 12.011 2.49 12.342 2.49 12.611 2.759 12.611 3.09L12.611 20.91C12.611 21.241 12.342 21.51 12.011 21.51 11.68 21.51 11.411 21.241 11.411 20.91L11.411 3.09Z" fill="black"/>
<path d="M20.319 6.06C20.319 5.729 20.587 5.46 20.919 5.46 21.25 5.46 21.518 5.729 21.519 6.06L21.519 17.94C21.519 18.272 21.25 18.54 20.919 18.54 20.587 18.54 20.319 18.272 20.319 17.94L20.319 6.06Z" fill="black"/>
<path d="M2.493 6.06C2.493 5.729 2.762 5.46 3.093 5.46 3.424 5.46 3.693 5.729 3.693 6.06L3.693 17.94C3.693 18.272 3.425 18.54 3.093 18.54 2.762 18.54 2.493 18.272 2.493 17.94L2.493 6.06Z" fill="black"/>
</svg>