<svg viewBox="0 0 24 24" fill="none" xmlns="http://www.w3.org/2000/svg" width="24" height="24">
<path d="M11.4 12.6H12.6V11.4H11.4V12.6ZM13.8 12.9C13.8 13.397 13.397 13.8 12.9 13.8H11.1C10.603 13.8 10.2 13.397 10.2 12.9V11.1C10.2 10.603 10.603 10.2 11.1 10.2H12.9C13.397 10.2 13.8 10.603 13.8 11.1V12.9Z" fill="black"/>
<path d="M17.62 9.56L19.461 11.401H15.597C15.266 11.401 14.997 11.67 14.997 12.001 14.997 12.332 15.266 12.601 15.597 12.601H19.458L17.62 14.439C17.385 14.674 17.385 15.054 17.62 15.288 17.854 15.522 18.234 15.522 18.468 15.288L21.332 12.424C21.566 12.19 21.566 11.81 21.332 11.576L18.468 8.712C18.234 8.478 17.854 8.478 17.62 8.712 17.385 8.946 17.385 9.326 17.62 9.56Z" fill="black"/>
<path d="M6.384 9.56L4.545 11.399 8.407 11.399C8.738 11.399 9.007 11.667 9.007 11.999 9.007 12.33 8.731 12.6 8.4 12.6L4.543 12.599 6.384 14.439C6.618 14.674 6.618 15.054 6.384 15.288 6.15 15.522 5.77 15.522 5.536 15.288L2.677 12.429C2.442 12.195 2.437 11.81 2.672 11.576L5.536 8.712C5.77 8.477 6.15 8.477 6.384 8.712 6.618 8.946 6.618 9.326 6.384 9.56Z" fill="black"/>
<path d="M11.401 4.543L9.56 6.384C9.326 6.618 8.946 6.618 8.712 6.384 8.477 6.15 8.477 5.77 8.712 5.536L11.575 2.672C11.81 2.438 12.19 2.438 12.424 2.672L15.288 5.536C15.522 5.77 15.522 6.15 15.288 6.384 15.054 6.618 14.674 6.618 14.439 6.384L12.601 4.546 12.601 8.407C12.601 8.738 12.332 9.007 12.001 9.007 11.67 9.007 11.401 8.738 11.401 8.407L11.401 4.543Z" fill="black"/>
<path d="M12.599 19.46V15.597C12.599 15.266 12.33 14.997 11.999 14.997 11.668 14.997 11.399 15.266 11.399 15.597V19.458L9.56 17.62C9.326 17.385 8.946 17.385 8.712 17.62 8.478 17.854 8.478 18.234 8.712 18.468L11.576 21.332C11.81 21.566 12.19 21.566 12.424 21.332L15.288 18.468C15.522 18.234 15.522 17.854 15.288 17.62 15.054 17.385 14.674 17.385 14.439 17.62L12.599 19.46Z" fill="black"/>
</svg>