<svg width="24" height="24" viewBox="0 0 24 24" fill="none" xmlns="http://www.w3.org/2000/svg">
<path d="M7.48683 12.0017H2.25383M11.9998 16.5071V21.7538M8.81785 18.572L11.9998 21.7538L15.1818 18.572M11.9998 7.48866V2.25384M5.42954 15.1836L2.24756 12.0017L5.42954 8.81967M15.1819 5.43137L11.9999 2.24939L8.8179 5.43137M11.9999 2.24939L11.9999 7.49635M16.5129 12.0017H21.7459M11.9999 16.5148V21.7496M18.5702 8.81997L21.7521 12.002L18.5702 15.1839M10.4999 11.3333V12.6666C10.4999 13.1269 10.8729 13.5 11.3332 13.5H12.6665C13.1268 13.5 13.4999 13.1269 13.4999 12.6666V11.3333C13.4999 10.8731 13.1268 10.5 12.6665 10.5H11.3332C10.8729 10.5 10.4999 10.8731 10.4999 11.3333ZM13.4999 12.6702V11.3368C13.4999 10.8766 13.1268 10.5035 12.6666 10.5035H11.3332C10.873 10.5035 10.4999 10.8766 10.4999 11.3368V12.6702C10.4999 13.1304 10.873 13.5035 11.3332 13.5035H12.6666C13.1268 13.5035 13.4999 13.1304 13.4999 12.6702Z" stroke="black" stroke-width="1.5" stroke-linecap="round" stroke-linejoin="round"/>
</svg>
