<svg viewBox="0 0 24 24" fill="none" xmlns="http://www.w3.org/2000/svg" width="24" height="24">
<path d="M13.6964 13.8493C13.4205 13.849 13.1964 13.6252 13.1964 13.3492C13.1964 13.0733 13.4205 12.8495 13.6964 12.8493H17.7413C18.0175 12.8493 18.2413 13.0731 18.2413 13.3493C18.2413 13.6254 18.0175 13.8493 17.7413 13.8493H13.6964Z" fill="black"/>
<path d="M13.6964 11.1491C13.4205 11.1488 13.1964 10.925 13.1964 10.6491C13.1964 10.3731 13.4205 10.1493 13.6964 10.1491L17.7413 10.1491C18.0175 10.1491 18.2413 10.3729 18.2413 10.6491C18.2413 10.9252 18.0175 11.1491 17.7413 11.1491L13.6964 11.1491Z" fill="black"/>
<path d="M6.26768 13.8493C5.99177 13.849 5.76768 13.6252 5.76768 13.3492C5.76768 13.0733 5.99177 12.8495 6.26768 12.8493H10.3126C10.5887 12.8493 10.8126 13.0731 10.8126 13.3493C10.8126 13.6254 10.5887 13.8493 10.3126 13.8493H6.26768Z" fill="black"/>
<path d="M6.26768 11.1491C5.99177 11.1488 5.76768 10.925 5.76768 10.6491C5.76768 10.3731 5.99177 10.1493 6.26768 10.1491L10.3126 10.1491C10.5887 10.1491 10.8126 10.3729 10.8126 10.6491C10.8126 10.9252 10.5887 11.1491 10.3126 11.1491L6.26768 11.1491Z" fill="black"/>
<path d="M11.5093 4.5752C11.5093 4.29905 11.7331 4.0752 12.0093 4.0752C12.2854 4.0752 12.5093 4.29905 12.5093 4.5752L12.5093 19.4248C12.5093 19.7009 12.2854 19.9248 12.0093 19.9248C11.7331 19.9248 11.5093 19.7009 11.5093 19.4248L11.5093 4.5752Z" fill="black"/>
<path d="M18.9321 7.04981C18.9323 6.77384 19.1561 6.54981 19.4321 6.54981C19.7081 6.54981 19.9319 6.77384 19.9321 7.04981L19.9321 16.9502C19.9321 17.2263 19.7083 17.4502 19.4321 17.4502C19.156 17.4502 18.9321 17.2263 18.9321 16.9502L18.9321 7.04981Z" fill="black"/>
<path d="M4.07764 7.0498C4.07785 6.77384 4.30163 6.5498 4.57764 6.5498C4.85365 6.5498 5.07743 6.77384 5.07764 7.0498L5.07764 16.9502C5.07764 17.2263 4.85378 17.4502 4.57764 17.4502C4.30149 17.4502 4.07764 17.2263 4.07764 16.9502L4.07764 7.0498Z" fill="black"/>
</svg>