<svg viewBox="0 0 24 24" fill="none" xmlns="http://www.w3.org/2000/svg" width="24" height="24">
<path d="M5.524 8.707C5.758 8.473 6.138 8.473 6.372 8.707 6.606 8.941 6.606 9.322 6.372 9.557L4.533 11.394H8.395C8.726 11.394 8.994 11.663 8.995 11.994 8.995 12.325 8.726 12.594 8.395 12.594H4.531L6.372 14.435C6.606 14.669 6.606 15.049 6.372 15.283 6.138 15.518 5.758 15.518 5.524 15.283L2.659 12.419C2.425 12.185 2.425 11.805 2.659 11.571L5.524 8.707ZM17.62 8.707C17.854 8.473 18.234 8.473 18.468 8.707L21.332 11.571C21.566 11.805 21.566 12.185 21.332 12.419L18.468 15.283C18.234 15.518 17.854 15.517 17.62 15.283 17.385 15.049 17.385 14.668 17.62 14.434L19.458 12.596H15.597C15.266 12.596 14.997 12.327 14.997 11.996 14.997 11.665 15.266 11.396 15.597 11.396H19.461L17.62 9.555C17.385 9.321 17.385 8.941 17.62 8.707ZM13.191 11.095C13.191 10.929 13.057 10.795 12.891 10.795H11.091C10.925 10.795 10.791 10.929 10.791 11.095V12.895L10.797 12.956C10.825 13.093 10.946 13.195 11.091 13.195H12.891C13.057 13.195 13.191 13.061 13.191 12.895V11.095ZM14.391 12.895C14.391 13.724 13.719 14.395 12.891 14.395H11.091C10.263 14.395 9.591 13.724 9.591 12.895V11.095C9.591 10.267 10.263 9.595 11.091 9.595H12.891C13.719 9.595 14.391 10.267 14.391 11.095V12.895Z" fill="black"/>
</svg>