<svg viewBox="0 0 24 24" fill="none" xmlns="http://www.w3.org/2000/svg" width="24" height="24">
<path d="M15.288 5.528C15.522 5.762 15.522 6.142 15.288 6.376 15.054 6.61 14.673 6.61 14.439 6.376L12.601 4.537 12.601 8.399C12.601 8.73 12.332 8.998 12.001 8.999 11.67 8.999 11.401 8.73 11.401 8.399L11.401 4.535 9.56 6.376C9.326 6.61 8.946 6.61 8.712 6.376 8.478 6.142 8.478 5.762 8.712 5.528L11.576 2.664C11.81 2.429 12.19 2.429 12.424 2.664L15.288 5.528ZM15.288 17.624C15.523 17.858 15.523 18.238 15.288 18.472L12.424 21.336C12.19 21.57 11.81 21.57 11.576 21.336L8.712 18.472C8.478 18.238 8.478 17.858 8.712 17.624 8.946 17.389 9.327 17.389 9.561 17.624L11.399 19.462 11.399 15.601C11.399 15.27 11.668 15.001 11.999 15.001 12.33 15.001 12.599 15.27 12.599 15.601L12.599 19.465 14.44 17.624C14.674 17.389 15.054 17.389 15.288 17.624ZM12.9 13.195C13.066 13.195 13.2 13.061 13.2 12.895L13.2 11.095C13.2 10.929 13.066 10.795 12.9 10.795L11.1 10.795 11.039 10.801C10.903 10.829 10.8 10.95 10.8 11.095L10.8 12.895C10.8 13.061 10.934 13.195 11.1 13.195L12.9 13.195ZM11.1 14.395C10.272 14.395 9.6 13.724 9.6 12.895L9.6 11.095C9.6 10.267 10.272 9.595 11.1 9.595L12.9 9.595C13.728 9.595 14.4 10.267 14.4 11.095L14.4 12.895C14.4 13.724 13.728 14.395 12.9 14.395L11.1 14.395Z" fill="black"/>
</svg>