<svg width="24" height="24" viewBox="0 0 24 24" fill="none" xmlns="http://www.w3.org/2000/svg">
<path d="M5.95999 9.34832C6.25288 9.05542 6.25288 8.58055 5.95999 8.28765C5.6671 7.99476 5.19222 7.99476 4.89933 8.28765L5.42966 8.81798L5.95999 9.34832ZM2.24768 12L1.71735 11.4696C1.42446 11.7625 1.42446 12.2374 1.71735 12.5303L2.24768 12ZM4.89933 15.7123C5.19222 16.0052 5.6671 16.0052 5.95999 15.7123C6.25288 15.4194 6.25288 14.9445 5.95999 14.6516L5.42966 15.1819L4.89933 15.7123ZM7.49459 12.75C7.90881 12.75 8.24459 12.4142 8.24459 12C8.24459 11.5857 7.9088 11.25 7.49459 11.25L7.49459 12L7.49459 12.75ZM18.04 14.6516C17.7471 14.9445 17.7471 15.4194 18.04 15.7123C18.3329 16.0052 18.8077 16.0052 19.1006 15.7123L18.5703 15.1819L18.04 14.6516ZM21.7523 12L22.2826 12.5303C22.4233 12.3896 22.5023 12.1989 22.5023 12C22.5023 11.801 22.4233 11.6103 22.2826 11.4696L21.7523 12ZM19.1006 8.28764C18.8077 7.99475 18.3329 7.99475 18.04 8.28764C17.7471 8.58054 17.7471 9.05541 18.04 9.3483L18.5703 8.81797L19.1006 8.28764ZM16.513 11.25C16.0988 11.25 15.763 11.5857 15.763 12C15.763 12.4142 16.0988 12.75 16.513 12.75L16.513 12L16.513 11.25ZM11.3316 13.5L11.3316 14.25V14.25L11.3316 13.5ZM10.4983 12.6666L11.2483 12.6666V12.6666L10.4983 12.6666ZM13.4983 12.6666L14.2483 12.6666V12.6666L13.4983 12.6666ZM12.665 13.5L12.665 12.75V12.75L12.665 13.5ZM12.665 10.5L12.665 9.74996V9.74996L12.665 10.5ZM13.4983 11.3333L12.7483 11.3333V11.3333L13.4983 11.3333ZM11.3316 10.5L11.3316 11.25V11.25L11.3316 10.5ZM10.4983 11.3333L9.74829 11.3333V11.3333L10.4983 11.3333ZM5.42966 8.81798L4.89933 8.28765L1.71735 11.4696L2.24768 12L2.77801 12.5303L5.95999 9.34832L5.42966 8.81798ZM2.24768 12L1.71735 12.5303L4.89933 15.7123L5.42966 15.1819L5.95999 14.6516L2.77801 11.4696L2.24768 12ZM7.49459 12L7.49459 11.25L2.24768 11.25L2.24768 12L2.24768 12.75L7.49459 12.75L7.49459 12ZM18.5703 15.1819L19.1006 15.7123L22.2826 12.5303L21.7523 12L21.222 11.4696L18.04 14.6516L18.5703 15.1819ZM21.7523 12L22.2826 11.4696L19.1006 8.28764L18.5703 8.81797L18.04 9.3483L21.222 12.5303L21.7523 12ZM16.513 12L16.513 12.75L21.7523 12.75L21.7523 12L21.7523 11.25L16.513 11.25L16.513 12ZM11.3316 10.5L11.3316 11.25L12.665 11.25L12.665 10.5L12.665 9.74996L11.3316 9.74996L11.3316 10.5ZM13.4983 11.3333L12.7483 11.3333L12.7483 12.6666L13.4983 12.6666L14.2483 12.6666L14.2483 11.3333L13.4983 11.3333ZM12.665 13.5L12.665 12.75L11.3316 12.75L11.3316 13.5L11.3316 14.25L12.665 14.25L12.665 13.5ZM10.4983 12.6666L11.2483 12.6666L11.2483 11.3333L10.4983 11.3333L9.74829 11.3333L9.74829 12.6666L10.4983 12.6666ZM11.3316 13.5L11.3316 12.75C11.2856 12.75 11.2483 12.7127 11.2483 12.6666L10.4983 12.6666L9.74829 12.6666C9.74829 13.5411 10.4572 14.25 11.3316 14.25L11.3316 13.5ZM13.4983 12.6666L12.7483 12.6666C12.7483 12.7127 12.711 12.75 12.665 12.75L12.665 13.5L12.665 14.25C13.5394 14.25 14.2483 13.5411 14.2483 12.6666L13.4983 12.6666ZM12.665 10.5L12.665 11.25C12.711 11.25 12.7483 11.2873 12.7483 11.3333L13.4983 11.3333L14.2483 11.3333C14.2483 10.4588 13.5394 9.74996 12.665 9.74996L12.665 10.5ZM11.3316 10.5L11.3316 9.74996C10.4572 9.74996 9.74829 10.4588 9.74829 11.3333L10.4983 11.3333L11.2483 11.3333C11.2483 11.2873 11.2856 11.25 11.3316 11.25L11.3316 10.5Z" fill="black"/>
</svg>
