<svg width="24" height="24" viewBox="0 0 24 24" fill="none" xmlns="http://www.w3.org/2000/svg">
<path d="M11.2493 5.25171C11.2493 4.83709 11.5854 4.50098 12 4.50098C12.4146 4.50098 12.7507 4.83709 12.7507 5.25171V7.49927C12.7507 7.91389 12.4146 8.25 12 8.25C11.5854 8.25 11.2493 7.91389 11.2493 7.49927V5.25171Z" fill="black"/>
<path d="M9.00073 5.25146C8.58611 5.25146 8.25 4.91535 8.25 4.50073C8.25 4.08611 8.58611 3.75 9.00073 3.75H14.9993C15.4139 3.75 15.75 4.08611 15.75 4.50073C15.75 4.91535 15.4139 5.25146 14.9993 5.25146H9.00073Z" fill="black"/>
<path d="M8.25 20.25H15.75M12 20.25V15.75M20.25 12H15.75M8.25 12H3.75M3.75 15.75V8.24997M20.25 15.75V8.24997M12 8.25C11.5854 8.25 11.2493 7.91389 11.2493 7.49927V5.25171C11.2493 4.83709 11.5854 4.50098 12 4.50098C12.4146 4.50098 12.7507 4.83709 12.7507 5.25171V7.49927C12.7507 7.91389 12.4146 8.25 12 8.25ZM15.75 4.50073C15.75 4.91535 15.4139 5.25146 14.9993 5.25146H9.00073C8.58611 5.25146 8.25 4.91535 8.25 4.50073C8.25 4.08611 8.58611 3.75 9.00073 3.75H14.9993C15.4139 3.75 15.75 4.08611 15.75 4.50073Z" stroke="black" stroke-width="1.5" stroke-linecap="round"/>
</svg>
