<svg width="24" height="24" viewBox="0 0 24 24" fill="none" xmlns="http://www.w3.org/2000/svg">
<path d="M22.5 16.5V6.75C22.5 6.55109 22.421 6.36032 22.2803 6.21967C22.1397 6.07902 21.9489 6 21.75 6H2.25C2.05109 6 1.86032 6.07902 1.71967 6.21967C1.57902 6.36032 1.5 6.55109 1.5 6.75V16.5M22.5 16.5H1.5M22.5 16.5V18.75M1.5 16.5V18.75M4.5 16.5V18.75M7.5 16.5V18.75M10.5 16.5V18.75M13.5 16.5V18.75M16.5 16.5V18.75M19.5 16.5V18.75M4.5 9H10.5V13.5H4.5V9ZM13.5 9H19.5V13.5H13.5V9Z" stroke="black" stroke-width="1.5" stroke-linecap="round" stroke-linejoin="round"/>
</svg>
