<svg xmlns="http://www.w3.org/2000/svg" fill="currentColor" viewBox="0 0 24 24" width="24" height="24"><path d="M22.53 4.913H1.47a1.416 1.416 0 0 0-1.417 1.417v12.96a0.608 0.608 0 0 0 1.215 0v-1.823h2.026v1.823a0.608 0.608 0 0 0 1.216 0v-1.823h2.025v1.823a0.608 0.608 0 0 0 1.216 0v-1.823h2.025v1.823a0.607 0.607 0 0 0 1.215 0v-1.823h2.025v1.823a0.607 0.607 0 0 0 1.215 0v-1.823h2.025v1.823a0.607 0.607 0 0 0 1.215 0v-1.823h2.025v1.823a0.607 0.607 0 0 0 1.215 0v-1.823h2.025v1.823a0.607 0.607 0 0 0 1.215 0v-12.96a1.416 1.416 0 0 0-1.417-1.417zM1.267 6.33a0.204 0.204 0 0 1 0.203-0.203h21.06a0.204 0.204 0 0 1 0.203 0.203v9.923H1.267z m9.113 7.897a0.607 0.607 0 0 0 0.607-0.607V8.76a0.607 0.607 0 0 0-0.607-0.607h-6.48a0.607 0.607 0 0 0-0.607 0.607v4.86a0.607 0.607 0 0 0 0.607 0.607z m-5.873-4.86h5.266v3.645H4.507z m9.113 4.86h6.48a0.607 0.607 0 0 0 0.607-0.607V8.76a0.607 0.607 0 0 0-0.607-0.607h-6.48a0.607 0.607 0 0 0-0.607 0.607v4.86a0.607 0.607 0 0 0 0.607 0.607m0.607-4.86h5.266v3.645h-5.266z"/></svg>