<svg xmlns="http://www.w3.org/2000/svg" width="24" height="24" fill="currentColor" viewBox="0 0 24 24"><path d="M3.293 12a0.607 0.607 0 0 1 0.607-0.607h7.29a0.608 0.608 0 0 1 0 1.215H3.9a0.607 0.607 0 0 1-0.607-0.607z m0.607-5.873h5.67a0.608 0.608 0 0 0 0-1.215H3.9a0.608 0.608 0 0 0 0 1.215m13.77 11.746H3.9a0.607 0.607 0 0 0 0 1.214h13.77a0.607 0.607 0 0 0 0-1.214m4.48-10.353l-4.05-4.05a0.607 0.607 0 0 0-0.86 0l-4.05 4.05a0.607 0.607 0 0 0 0.86 0.86l3.013-3.012v8.252a0.607 0.607 0 0 0 1.214 0V5.368l3.013 3.012a0.607 0.607 0 0 0 0.858-0.86z"/></svg>