<svg xmlns="http://www.w3.org/2000/svg" width="24" height="24" fill="currentColor" viewBox="0 0 24 24"><path d="M12.607 3.09v17.82a0.608 0.608 0 0 1-1.215 0V3.09a0.607 0.607 0 0 1 1.214 0zM5.948 8.33a0.607 0.607 0 0 0-0.859 0.858l2.202 2.204H0.659a0.608 0.608 0 0 0 0 1.215h6.632l-2.202 2.203a0.607 0.607 0 1 0 0.859 0.86l3.24-3.24a0.607 0.607 0 0 0 0-0.86z m17.391 3.062h-6.633l2.202-2.204a0.607 0.607 0 0 0-0.859-0.859l-3.24 3.24a0.607 0.607 0 0 0 0 0.859l3.24 3.24a0.607 0.607 0 0 0 0.858-0.859l-2.202-2.203h6.633a0.608 0.608 0 0 0 0-1.216z"/></svg>