<svg xmlns="http://www.w3.org/2000/svg" width="24" height="24" fill="currentColor" viewBox="0 0 24 24"><path d="M21.517 12a0.607 0.607 0 0 1-0.607 0.607H3.09a0.608 0.608 0 0 1 0-1.215h17.82a0.607 0.607 0 0 1 0.607 0.607z m-9.947-2.81a0.607 0.607 0 0 0 0.86 0l3.24-3.24a0.607 0.607 0 0 0-0.86-0.86l-2.203 2.202V0.66a0.608 0.608 0 0 0-1.215 0v6.632L9.188 5.09a0.607 0.607 0 0 0-0.859 0.86z m0.86 5.62a0.607 0.607 0 0 0-0.86 0l-3.24 3.24a0.607 0.607 0 0 0 0.858 0.858l2.204-2.202v6.633a0.608 0.608 0 0 0 1.215 0v-6.633l2.203 2.202a0.607 0.607 0 0 0 0.86-0.859z"/></svg>