<svg width="24" height="24" viewBox="0 0 24 24" fill="none" xmlns="http://www.w3.org/2000/svg">
<path d="M12 20.25L12 3.75M5.25 19.125H7.5C8.32843 19.125 9 18.4534 9 17.625V6.375C9 5.54657 8.32843 4.875 7.5 4.875H5.25C4.42157 4.875 3.75 5.54657 3.75 6.375V17.625C3.75 18.4534 4.42157 19.125 5.25 19.125ZM16.5 19.125H18.75C19.5784 19.125 20.25 18.4534 20.25 17.625V6.375C20.25 5.54657 19.5784 4.875 18.75 4.875H16.5C15.6716 4.875 15 5.54657 15 6.375V17.625C15 18.4534 15.6716 19.125 16.5 19.125Z" stroke="black" stroke-width="1.5" stroke-linecap="round" stroke-linejoin="round"/>
</svg>
