<svg xmlns="http://www.w3.org/2000/svg" fill="currentColor" viewBox="0 0 24 24" width="24" height="24"><path d="M20.1 3.293H3.9A2.227 2.227 0 0 0 1.673 5.52v11.34a2.227 2.227 0 0 0 2.227 2.227h16.2a2.227 2.227 0 0 0 2.227-2.227V5.52a2.227 2.227 0 0 0-2.227-2.227m1.013 13.567a1.013 1.013 0 0 1-1.013 1.013H3.9a1.013 1.013 0 0 1-1.013-1.013V5.52a1.013 1.013 0 0 1 1.013-1.013h16.2a1.013 1.013 0 0 1 1.013 1.013z m-5.265 4.86a0.607 0.607 0 0 1-0.607 0.607h-6.48a0.607 0.607 0 0 1 0-1.214h6.48a0.607 0.607 0 0 1 0.607 0.607m-0.987-11.77a0.607 0.607 0 1 1-0.859 0.86l-1.394-1.392v5.012a0.608 0.608 0 0 1-1.215 0V9.418l-1.393 1.392a0.607 0.607 0 0 1-0.86-0.86l2.43-2.43a0.607 0.607 0 0 1 0.86 0z"/></svg>