<svg xmlns="http://www.w3.org/2000/svg" fill="currentColor" viewBox="0 0 24 24" width="24" height="24"><path d="M13.62 0.863h-3.24A6.284 6.284 0 0 0 4.103 7.14v9.72a6.284 6.284 0 0 0 6.277 6.277h3.24a6.284 6.284 0 0 0 6.277-6.277v-9.72a6.284 6.284 0 0 0-6.277-6.277m5.063 15.997a5.069 5.069 0 0 1-5.063 5.063h-3.24a5.069 5.069 0 0 1-5.063-5.063v-9.72a5.069 5.069 0 0 1 5.063-5.063h3.24a5.069 5.069 0 0 1 5.063 5.063z m-6.075-9.872v10.023l1.394-1.392a0.607 0.607 0 0 1 0.859 0.859l-2.43 2.43a0.607 0.607 0 0 1-0.859 0l-2.43-2.43a0.607 0.607 0 0 1 0.859-0.859l1.393 1.395V6.99l-1.393 1.39a0.607 0.607 0 0 1-0.859-0.86l2.43-2.43a0.607 0.607 0 0 1 0.859 0l2.43 2.43a0.607 0.607 0 1 1-0.859 0.86z"/></svg>