<svg width="24" height="24" viewBox="0 0 24 24" fill="none" xmlns="http://www.w3.org/2000/svg">
<path d="M19.5 15.375C19.5 16.8247 18.3247 18 16.875 18C15.4253 18 14.25 16.8247 14.25 15.375C14.25 13.9253 15.4253 12.75 16.875 12.75C18.3247 12.75 19.5 13.9253 19.5 15.375ZM19.5 15.375V2.25L7.5 5.25V18.375M7.5 18.375C7.5 19.8247 6.32475 21 4.875 21C3.42525 21 2.25 19.8247 2.25 18.375C2.25 16.9253 3.42525 15.75 4.875 15.75C6.32475 15.75 7.5 16.9253 7.5 18.375Z" stroke="black" stroke-width="1.5" stroke-linecap="round" stroke-linejoin="round"/>
</svg>
