<svg xmlns="http://www.w3.org/2000/svg" width="24" height="24" fill="currentColor" viewBox="0 0 24 24"><path d="M20.473 0.991a0.6 0.6 0 0 0-0.522-0.11l-12.96 3.24a0.607 0.607 0 0 0-0.459 0.589v11.554a3.443 3.443 0 1 0 1.215 2.62v-8.841l11.746-2.937v5.916a3.443 3.443 0 1 0 1.214 2.621V1.468a0.6 0.6 0 0 0-0.234-0.479zM4.304 21.113a2.227 2.227 0 1 1 2.228-2.227 2.227 2.227 0 0 1-2.228 2.227M7.747 8.792V5.184l11.746-2.936V5.856z m9.517 9.081a2.227 2.227 0 1 1 2.228-2.227 2.227 2.227 0 0 1-2.228 2.227"/></svg>