<svg xmlns="http://www.w3.org/2000/svg" width="24" height="24" fill="currentColor" viewBox="0 0 24 24"><path d="M18.56 3.252c-2.014 0-3.644 1.631-3.644 3.646s1.631 3.646 3.646 3.645 3.646-1.631 3.645-3.644-1.631-3.646-3.645-3.646m-8.019 2.916c-1.613 0-2.916 1.303-2.916 2.916s1.303 2.916 2.916 2.916 2.916-1.303 2.916-2.916-1.303-2.916-2.916-2.916m-6.561 2.916a2.188 2.188 0 1 0 0.001 4.375 2.188 2.188 0 0 0-0.001-4.375m14.58 2.916c-2.014 0-3.644 1.645-3.645 3.667v5.081h7.29v-5.081a3.655 3.655 0 0 0-3.645-3.667m-8.02 1.458c-1.613 0-2.916 1.435-2.916 3.203v4.087h5.832v-4.087c0-1.768-1.303-3.203-2.916-3.203m-6.56 1.458c-1.207 0-2.186 0.994-2.187 2.22v3.613h4.374v-3.613c0-1.225-0.979-2.22-2.186-2.22"/></svg>