<svg xmlns="http://www.w3.org/2000/svg" width="24" height="24" fill="currentColor" viewBox="0 0 24 24"><path d="M20.91 8.153h-5.063V3.09a1.416 1.416 0 0 0-1.417-1.417h-4.86a1.416 1.416 0 0 0-1.417 1.417v5.063H3.09a1.416 1.416 0 0 0-1.417 1.417v4.86a1.416 1.416 0 0 0 1.417 1.417h5.063v5.063a1.416 1.416 0 0 0 1.417 1.417h4.86a1.416 1.416 0 0 0 1.417-1.417v-5.063h5.063a1.416 1.416 0 0 0 1.417-1.417v-4.86a1.416 1.416 0 0 0-1.417-1.417m0.203 6.277a0.204 0.204 0 0 1-0.203 0.203H15.24a0.607 0.607 0 0 0-0.607 0.607v5.67a0.204 0.204 0 0 1-0.203 0.203h-4.86a0.204 0.204 0 0 1-0.203-0.203V15.24a0.607 0.607 0 0 0-0.607-0.607H3.09a0.204 0.204 0 0 1-0.203-0.203v-4.86a0.204 0.204 0 0 1 0.203-0.203H8.76a0.607 0.607 0 0 0 0.607-0.607V3.09a0.204 0.204 0 0 1 0.203-0.203h4.86a0.204 0.204 0 0 1 0.203 0.203V8.76a0.607 0.607 0 0 0 0.607 0.607h5.67a0.204 0.204 0 0 1 0.203 0.203z"/></svg>