<svg width="24" height="24" viewBox="0 0 24 24" fill="none" xmlns="http://www.w3.org/2000/svg">
<path d="M12 15.75C14.0711 15.75 15.75 14.0711 15.75 12C15.75 9.92893 14.0711 8.25 12 8.25C9.92893 8.25 8.25 9.92893 8.25 12C8.25 14.0711 9.92893 15.75 12 15.75Z" stroke="black" stroke-width="1.5" stroke-linecap="round" stroke-linejoin="round"/>
<path d="M20.61 17.1413L12.36 21.6582C12.2496 21.7186 12.1258 21.7502 12 21.7502C11.8742 21.7502 11.7504 21.7186 11.64 21.6582L3.39 17.1413C3.2722 17.0768 3.17386 16.9819 3.10526 16.8665C3.03666 16.7511 3.0003 16.6193 3 16.485V7.51691C3.0003 7.38263 3.03666 7.25089 3.10526 7.13546C3.17386 7.02002 3.2722 6.92512 3.39 6.86066L11.64 2.34379C11.7504 2.28339 11.8742 2.25174 12 2.25174C12.1258 2.25174 12.2496 2.28339 12.36 2.34379L20.61 6.86066C20.7278 6.92512 20.8261 7.02002 20.8947 7.13546C20.9633 7.25089 20.9997 7.38263 21 7.51691V16.4832C21 16.6178 20.9638 16.7499 20.8952 16.8657C20.8266 16.9815 20.7281 17.0767 20.61 17.1413Z" stroke="black" stroke-width="1.5" stroke-linecap="round" stroke-linejoin="round"/>
</svg>
