<svg width="24" height="24" viewBox="0 0 24 24" fill="none" xmlns="http://www.w3.org/2000/svg">
<path d="M23.25 12L21 14.25L18.75 12M21 14.25V12C21.0007 10.0945 20.3966 8.23796 19.2748 6.69775C18.1529 5.15754 16.5711 4.01315 14.7573 3.42938C12.9434 2.84561 10.9911 2.8526 9.18147 3.44934C7.37185 4.04607 5.79832 5.20176 4.6875 6.74996M5.25 12L3 9.75L0.75 12M3 9.75V12C2.99929 13.9055 3.60337 15.762 4.72524 17.3022C5.84712 18.8424 7.42888 19.9868 9.24273 20.5706C11.0566 21.1543 13.0089 21.1474 14.8185 20.5506C16.6282 19.9539 18.2017 18.7982 19.3125 17.25M13.8753 12C13.8753 13.0355 13.0358 13.875 12.0003 13.875C10.9648 13.875 10.1253 13.0355 10.1253 12C10.1253 10.9645 10.9648 10.125 12.0003 10.125C13.0358 10.125 13.8753 10.9645 13.8753 12ZM12.0966 15.6614C12.0337 15.6614 11.9705 15.6614 11.9091 15.6614L10.4067 16.5C9.82187 16.3033 9.27941 15.9979 8.80781 15.6L8.80219 13.9125C8.76891 13.86 8.7375 13.807 8.70844 13.7527L7.21453 12.9019C7.09686 12.3067 7.09686 11.6942 7.21453 11.0991L8.70703 10.2506C8.7375 10.1967 8.76891 10.1433 8.80078 10.0908L8.80828 8.40328C9.27945 8.00421 9.82177 7.69774 10.4067 7.5L11.9067 8.33859C11.9695 8.33859 12.0328 8.33859 12.0942 8.33859L13.5942 7.5C14.1791 7.69673 14.7215 8.00207 15.1931 8.4L15.1987 10.0875C15.232 10.14 15.2634 10.193 15.2925 10.2473L16.7855 11.0977C16.9031 11.6928 16.9031 12.3053 16.7855 12.9005L15.293 13.7489C15.2625 13.8028 15.2311 13.8562 15.1992 13.9087L15.1917 15.5962C14.7209 15.9954 14.1789 16.302 13.5942 16.5L12.0966 15.6614Z" stroke="black" stroke-width="1.5" stroke-linecap="round" stroke-linejoin="round"/>
</svg>
