<svg width="24" height="24" viewBox="0 0 24 24" fill="none" xmlns="http://www.w3.org/2000/svg">
<path d="M19.5 3.75H4.5C4.08579 3.75 3.75 4.08579 3.75 4.5V19.5C3.75 19.9142 4.08579 20.25 4.5 20.25H19.5C19.9142 20.25 20.25 19.9142 20.25 19.5V4.5C20.25 4.08579 19.9142 3.75 19.5 3.75Z" stroke="black" stroke-width="1.5" stroke-linecap="round" stroke-linejoin="round"/>
<path d="M15.357 8.25H8.64297C8.42594 8.25 8.25 8.42594 8.25 8.64297V15.357C8.25 15.5741 8.42594 15.75 8.64297 15.75H15.357C15.5741 15.75 15.75 15.5741 15.75 15.357V8.64297C15.75 8.42594 15.5741 8.25 15.357 8.25Z" stroke="black" stroke-width="1.5" stroke-linecap="round" stroke-linejoin="round"/>
<path d="M12.6714 11.25H11.3286C11.2852 11.25 11.25 11.2852 11.25 11.3286V12.6714C11.25 12.7148 11.2852 12.75 11.3286 12.75H12.6714C12.7148 12.75 12.75 12.7148 12.75 12.6714V11.3286C12.75 11.2852 12.7148 11.25 12.6714 11.25Z" stroke="black" stroke-width="1.5" stroke-linecap="round" stroke-linejoin="round"/>
</svg>
