<svg width="24" height="24" viewBox="0 0 24 24" fill="none" xmlns="http://www.w3.org/2000/svg">
<path d="M19.5 3.75H4.5C4.08579 3.75 3.75 4.08579 3.75 4.5V19.5C3.75 19.9142 4.08579 20.25 4.5 20.25H19.5C19.9142 20.25 20.25 19.9142 20.25 19.5V4.5C20.25 4.08579 19.9142 3.75 19.5 3.75Z" stroke="black" stroke-width="1.5" stroke-linecap="round" stroke-linejoin="round"/>
<path d="M15.357 8.25007H8.64297C8.42594 8.25007 8.25 8.42601 8.25 8.64304V15.3571C8.25 15.5741 8.42594 15.7501 8.64297 15.7501H15.357C15.5741 15.7501 15.75 15.5741 15.75 15.3571V8.64304C15.75 8.42601 15.5741 8.25007 15.357 8.25007Z" stroke="black" stroke-width="1.5" stroke-linecap="round" stroke-linejoin="round"/>
</svg>
