<svg viewBox="0 0 24 24" fill="none" xmlns="http://www.w3.org/2000/svg" width="24" height="24">
<path fill-rule="evenodd" clip-rule="evenodd" d="M16.651 7.35V3.897C16.651 3.118 16.019 2.487 15.241 2.487L3.901 2.487C3.122 2.487 2.491 3.118 2.491 3.897V15.237C2.491 16.016 3.122 16.647 3.901 16.647H7.35V20.1C7.35 20.879 7.981 21.51 8.76 21.51H20.1C20.879 21.51 21.51 20.879 21.51 20.1V8.76C21.51 7.981 20.879 7.35 20.1 7.35H16.651ZM9.994 15.447L8.55 15.447V14.007L14.007 8.55H15.451L15.451 9.991 9.994 15.447ZM11.691 15.447L15.451 11.688 15.451 15.237C15.45 15.353 15.357 15.447 15.241 15.447L11.691 15.447ZM8.55 8.76V12.31L12.31 8.55H8.76C8.644 8.55 8.55 8.644 8.55 8.76ZM16.651 8.55V15.237C16.65 16.016 16.019 16.647 15.241 16.647H8.55V20.1C8.55 20.216 8.644 20.31 8.76 20.31H20.1C20.216 20.31 20.31 20.216 20.31 20.1V8.76C20.31 8.644 20.216 8.55 20.1 8.55H16.651ZM3.901 15.447H7.35V8.76C7.35 7.981 7.981 7.35 8.76 7.35H15.451V3.897C15.451 3.781 15.357 3.687 15.241 3.687L3.901 3.687C3.785 3.687 3.691 3.781 3.691 3.897V15.237C3.691 15.353 3.785 15.447 3.901 15.447Z" fill="black"/>
</svg>