<svg width="24" height="24" viewBox="0 0 24 24" fill="none" xmlns="http://www.w3.org/2000/svg">
<path d="M9.75 9.75L14.25 14.25M5.25 3.75H13.5C14.3284 3.75 15 4.42157 15 5.25V13.5C15 14.3284 14.3284 15 13.5 15H5.25C4.42157 15 3.75 14.3284 3.75 13.5V5.25C3.75 4.42157 4.42157 3.75 5.25 3.75ZM10.5 9H18.75C19.5784 9 20.25 9.67157 20.25 10.5V18.75C20.25 19.5784 19.5784 20.25 18.75 20.25H10.5C9.67157 20.25 9 19.5784 9 18.75V10.5C9 9.67157 9.67157 9 10.5 9Z" stroke="black" stroke-width="1.5" stroke-linecap="round" stroke-linejoin="round"/>
</svg>
