<svg width="24" height="24" viewBox="0 0 24 24" fill="none" xmlns="http://www.w3.org/2000/svg">
<path d="M5.08008 17.397C5.08008 17.6731 4.85622 17.897 4.58007 17.897C4.30393 17.897 4.08008 17.6731 4.08008 17.397L4.08008 6.59717C4.08008 6.32102 4.30394 6.09717 4.58008 6.09717C4.85622 6.09717 5.08008 6.32102 5.08008 6.59717L5.08008 17.397Z" fill="black"/>
<path d="M6.6001 19.917C6.32396 19.917 6.1001 19.6931 6.1001 19.417C6.1001 19.1408 6.32396 18.917 6.6001 18.917L17.3999 18.917C17.676 18.917 17.8999 19.1408 17.8999 19.417C17.8999 19.6931 17.676 19.917 17.3999 19.917L6.6001 19.917Z" fill="black"/>
<path d="M13.9199 10.0674L10.0703 10.0674L10.0703 13.917L13.9199 13.917L13.9199 10.0674ZM9.07031 9.82129C9.07031 9.4048 9.40773 9.06738 9.82422 9.06738L14.166 9.06738C14.5824 9.0675 14.9199 9.40487 14.9199 9.82129L14.9199 14.1631C14.9198 14.5794 14.5823 14.9169 14.166 14.917L9.82422 14.917C9.4078 14.917 9.07043 14.5795 9.07031 14.1631L9.07031 9.82129Z" fill="black"/>
<path d="M13.9199 10.0674L10.0703 10.0674L10.0703 13.917L13.9199 13.917L13.9199 10.0674ZM9.07031 9.82129C9.07031 9.4048 9.40773 9.06738 9.82422 9.06738L14.166 9.06738C14.5824 9.0675 14.9199 9.40487 14.9199 9.82129L14.9199 14.1631C14.9198 14.5794 14.5823 14.9169 14.166 14.917L9.82422 14.917C9.4078 14.917 9.07043 14.5795 9.07031 14.1631L9.07031 9.82129Z" fill="black"/>
<path d="M19.9199 17.397C19.9199 17.6731 19.6961 17.897 19.4199 17.897C19.1438 17.897 18.9199 17.6731 18.9199 17.397L18.9199 6.59717C18.9199 6.32103 19.1438 6.09717 19.4199 6.09717C19.6961 6.09717 19.9199 6.32103 19.9199 6.59717L19.9199 17.397Z" fill="black"/>
<path d="M17.9004 5.33008C17.9004 5.74429 17.5646 6.08008 17.1504 6.08008L6.84961 6.08008C6.4354 6.08008 6.09961 5.74429 6.09961 5.33008L6.09961 4.83008C6.09961 4.41586 6.4354 4.08008 6.84961 4.08008L17.1504 4.08008C17.5646 4.08008 17.9004 4.41586 17.9004 4.83008L17.9004 5.33008Z" fill="black"/>
</svg>
