<svg viewBox="0 0 24 24" fill="none" xmlns="http://www.w3.org/2000/svg" width="24" height="24">
<path d="M18.478 20.302C18.81 20.302 19.078 20.571 19.078 20.902 19.078 21.234 18.81 21.502 18.478 21.502L5.518 21.502C5.187 21.502 4.918 21.234 4.918 20.902 4.918 20.571 5.187 20.302 5.518 20.302L18.478 20.302Z" fill="black"/>
<path d="M21.502 18.478C21.502 18.81 21.234 19.078 20.902 19.078 20.571 19.078 20.302 18.81 20.302 18.478L20.302 5.518C20.302 5.187 20.571 4.918 20.902 4.918 21.234 4.918 21.502 5.187 21.502 5.518L21.502 18.478Z" fill="black"/>
<path d="M9.683 9.694L9.683 14.314 14.302 14.314 14.302 9.694 9.683 9.694ZM9.387 15.514C8.888 15.514 8.483 15.109 8.483 14.609L8.483 9.399C8.483 8.899 8.888 8.494 9.387 8.494L14.598 8.494C15.097 8.494 15.502 8.899 15.502 9.399L15.502 14.609C15.502 15.109 15.097 15.514 14.598 15.514L9.387 15.514Z" fill="black"/>
<path d="M9.683 9.694L9.683 14.314 14.302 14.314 14.302 9.694 9.683 9.694ZM9.387 15.514C8.888 15.514 8.483 15.109 8.483 14.609L8.483 9.399C8.483 8.899 8.888 8.494 9.387 8.494L14.598 8.494C15.097 8.494 15.502 8.899 15.502 9.399L15.502 14.609C15.502 15.109 15.097 15.514 14.598 15.514L9.387 15.514Z" fill="black"/>
<path d="M18.478 2.494C18.81 2.494 19.078 2.763 19.078 3.094 19.078 3.426 18.81 3.694 18.478 3.694L5.518 3.694C5.187 3.694 4.918 3.426 4.918 3.094 4.918 2.763 5.187 2.494 5.518 2.494L18.478 2.494Z" fill="black"/>
<path d="M3.998 4.918C4.495 4.918 4.898 5.321 4.898 5.818L4.898 18.179C4.898 18.676 4.495 19.079 3.998 19.079L3.398 19.079C2.901 19.079 2.498 18.676 2.498 18.179L2.498 5.818C2.498 5.321 2.901 4.918 3.398 4.918L3.998 4.918Z" fill="black"/>
</svg>