<svg width="24" height="24" viewBox="0 0 24 24" fill="none" xmlns="http://www.w3.org/2000/svg">
<path d="M20.4053 7.875L20.4053 18.375M3.90528 7.875L3.90527 18.375M17.4053 21.375L6.90527 21.375M17.4053 4.87354C17.4053 5.28815 17.0692 5.62427 16.6545 5.62427H7.65601C7.24139 5.62427 6.90527 5.28815 6.90527 4.87354C6.90527 4.45892 7.24139 4.1228 7.65601 4.1228H16.6545C17.0692 4.1228 17.4053 4.45892 17.4053 4.87354ZM8.79824 9.5H15.5123C15.7293 9.5 15.9053 9.67594 15.9053 9.89297V16.607C15.9053 16.8241 15.7293 17 15.5123 17H8.79824C8.58121 17 8.40527 16.8241 8.40527 16.607V9.89297C8.40527 9.67594 8.58121 9.5 8.79824 9.5Z" stroke="black" stroke-width="1.5" stroke-linecap="round" stroke-linejoin="round"/>
</svg>
