<svg viewBox="0 0 24 24" fill="none" xmlns="http://www.w3.org/2000/svg" width="24" height="24">
<path d="M3.696 18.476C3.696 18.808 3.427 19.076 3.096 19.076 2.765 19.076 2.496 18.808 2.496 18.476L2.496 5.517C2.496 5.185 2.765 4.917 3.096 4.917 3.427 4.917 3.696 5.185 3.696 5.517L3.696 18.476Z" fill="black"/>
<path d="M5.52 21.5C5.189 21.5 4.92 21.232 4.92 20.9 4.92 20.569 5.189 20.3 5.52 20.3L18.48 20.3C18.811 20.3 19.08 20.569 19.08 20.9 19.08 21.232 18.811 21.5 18.48 21.5L5.52 21.5Z" fill="black"/>
<path d="M14.304 9.681L9.684 9.681 9.684 14.3 14.304 14.3 14.304 9.681ZM8.484 9.386C8.484 8.886 8.889 8.481 9.389 8.481L14.599 8.481C15.099 8.481 15.504 8.886 15.504 9.386L15.504 14.596C15.504 15.095 15.099 15.5 14.599 15.5L9.389 15.5C8.889 15.5 8.485 15.095 8.484 14.596L8.484 9.386Z" fill="black"/>
<path d="M14.304 9.681L9.684 9.681 9.684 14.3 14.304 14.3 14.304 9.681ZM8.484 9.386C8.484 8.886 8.889 8.481 9.389 8.481L14.599 8.481C15.099 8.481 15.504 8.886 15.504 9.386L15.504 14.596C15.504 15.095 15.099 15.5 14.599 15.5L9.389 15.5C8.889 15.5 8.485 15.095 8.484 14.596L8.484 9.386Z" fill="black"/>
<path d="M21.504 18.476C21.504 18.808 21.235 19.076 20.904 19.076 20.573 19.076 20.304 18.808 20.304 18.476L20.304 5.517C20.304 5.185 20.573 4.917 20.904 4.917 21.235 4.917 21.504 5.185 21.504 5.517L21.504 18.476Z" fill="black"/>
<path d="M19.08 3.996C19.08 4.493 18.678 4.896 18.18 4.896L5.82 4.896C5.322 4.896 4.92 4.493 4.92 3.996L4.92 3.396C4.92 2.899 5.322 2.496 5.82 2.496L18.18 2.496C18.678 2.496 19.08 2.899 19.08 3.396L19.08 3.996Z" fill="black"/>
</svg>