<svg width="24" height="24" viewBox="0 0 24 24" fill="none" xmlns="http://www.w3.org/2000/svg">
<path d="M17.4053 21L6.90527 21M17.4053 4.5L6.90527 4.5M3.90527 18L3.90527 7.5M20.4052 18C19.9905 18 19.6544 17.6639 19.6544 17.2493V8.25073C19.6544 7.83611 19.9905 7.5 20.4052 7.5C20.8198 7.5 21.1559 7.83611 21.1559 8.25073V17.2493C21.1559 17.6639 20.8198 18 20.4052 18ZM8.79824 9H15.5123C15.7293 9 15.9053 9.17594 15.9053 9.39297V16.107C15.9053 16.3241 15.7293 16.5 15.5123 16.5H8.79824C8.58121 16.5 8.40527 16.3241 8.40527 16.107V9.39297C8.40527 9.17594 8.58121 9 8.79824 9Z" stroke="black" stroke-width="1.5" stroke-linecap="round" stroke-linejoin="round"/>
</svg>
