<svg width="24" height="24" viewBox="0 0 24 24" fill="none" xmlns="http://www.w3.org/2000/svg">
<path d="M6.74513 3.75L17.2483 3.75M6.74513 20.25L17.2483 20.25M20.2491 6.75L20.2491 17.25M3.7501 17.25C3.33536 17.25 2.99915 16.9139 2.99915 16.4993V7.50073C2.99915 7.08612 3.33536 6.75 3.7501 6.75C4.16484 6.75 4.50106 7.08612 4.50106 7.50073V16.4993C4.50106 16.9139 4.16484 17.25 3.7501 17.25ZM8.63866 8.25H15.3547C15.5718 8.25 15.7478 8.42594 15.7478 8.64297V15.357C15.7478 15.5741 15.5718 15.75 15.3547 15.75H8.63866C8.42157 15.75 8.24558 15.5741 8.24558 15.357V8.64297C8.24558 8.42594 8.42157 8.25 8.63866 8.25Z" stroke="black" stroke-width="1.5" stroke-linecap="round" stroke-linejoin="round"/>
</svg>
