<svg width="24" height="24" viewBox="0 0 24 24" fill="none" xmlns="http://www.w3.org/2000/svg">
<path d="M18.9201 6.60018C18.9201 6.32403 19.1439 6.10018 19.4201 6.10018C19.6962 6.10018 19.9201 6.32403 19.9201 6.60018L19.9201 17.4C19.9201 17.6761 19.6962 17.9 19.4201 17.9C19.1439 17.9 18.9201 17.6761 18.9201 17.4L18.9201 6.60018Z" fill="black"/>
<path d="M17.4 4.08008C17.6761 4.08008 17.9 4.30394 17.9 4.58008C17.9 4.85622 17.6761 5.08008 17.4 5.08008L6.60018 5.08008C6.32403 5.08008 6.10018 4.85622 6.10018 4.58008C6.10018 4.30394 6.32403 4.08008 6.60018 4.08008L17.4 4.08008Z" fill="black"/>
<path d="M17.4 18.9201C17.6761 18.9201 17.9 19.1439 17.9 19.4201C17.9 19.6962 17.6761 19.9201 17.4 19.9201L6.60018 19.9201C6.32403 19.9201 6.10018 19.6962 6.10018 19.4201C6.10018 19.1439 6.32403 18.9201 6.60018 18.9201L17.4 18.9201Z" fill="black"/>
<path d="M10.0801 13.9298H13.9297V10.0802H10.0801V13.9298ZM14.9297 14.1759C14.9297 14.5923 14.5923 14.9298 14.1758 14.9298H9.83398C9.41759 14.9297 9.08008 14.5923 9.08008 14.1759V9.83406C9.08019 9.41774 9.41766 9.08027 9.83398 9.08016H14.1758C14.5922 9.08016 14.9296 9.41767 14.9297 9.83406V14.1759Z" fill="black"/>
<path d="M10.0801 13.9298H13.9297V10.0802H10.0801V13.9298ZM14.9297 14.1759C14.9297 14.5923 14.5923 14.9298 14.1758 14.9298H9.83398C9.41759 14.9297 9.08008 14.5923 9.08008 14.1759V9.83406C9.08019 9.41774 9.41766 9.08027 9.83398 9.08016H14.1758C14.5922 9.08016 14.9296 9.41767 14.9297 9.83406V14.1759Z" fill="black"/>
<path d="M4.08008 6.60018C4.08008 6.32403 4.30394 6.10018 4.58008 6.10018C4.85622 6.10018 5.08008 6.32403 5.08008 6.60018L5.08008 17.4C5.08008 17.6761 4.85622 17.9 4.58008 17.9C4.30394 17.9 4.08008 17.6761 4.08008 17.4L4.08008 6.60018Z" fill="black"/>
</svg>
