<svg width="24" height="24" viewBox="0 0 24 24" fill="none" xmlns="http://www.w3.org/2000/svg">
<path d="M15.75 16.498C15.75 16.0838 15.4142 15.748 15 15.748L8.99999 15.748C8.58577 15.748 8.24999 16.0838 8.24999 16.498C8.24999 16.9123 8.58577 17.248 8.99999 17.248L15 17.248C15.4142 17.248 15.75 16.9123 15.75 16.498Z" fill="black"/>
<path d="M8.24999 9.74902L15.75 9.74902M8.24999 12.752L15.75 12.752M19.5 3.75L19.5 20.25C19.5 20.6642 19.1642 21 18.75 21L5.25 21C4.83579 21 4.5 20.6642 4.5 20.25L4.5 3.75C4.5 3.33579 4.83579 3 5.25 3L18.75 3C19.1642 3 19.5 3.33579 19.5 3.75ZM15 17.248L8.99999 17.248C8.58577 17.248 8.24999 16.9123 8.24999 16.498C8.24999 16.0838 8.58577 15.748 8.99999 15.748L15 15.748C15.4142 15.748 15.75 16.0838 15.75 16.498C15.75 16.9123 15.4142 17.248 15 17.248Z" stroke="black" stroke-width="1.5" stroke-linecap="round"/>
</svg>
