<svg width="24" height="24" viewBox="0 0 24 24" fill="none" xmlns="http://www.w3.org/2000/svg">
<path d="M8.25 7.50197C8.25 7.91618 8.58579 8.25197 9 8.25197L15 8.25197C15.4142 8.25197 15.75 7.91618 15.75 7.50197C15.75 7.08775 15.4142 6.75197 15 6.75197L9 6.75197C8.58579 6.75197 8.25 7.08775 8.25 7.50197Z" fill="black"/>
<path d="M15.75 14.251H8.25M15.75 11.2481H8.25M4.5 20.25V3.75003C4.5 3.33582 4.83579 3.00003 5.25 3.00003H18.75C19.1642 3.00003 19.5 3.33582 19.5 3.75003V20.25C19.5 20.6642 19.1642 21 18.75 21H5.25C4.83579 21 4.5 20.6642 4.5 20.25ZM9 6.75197L15 6.75197C15.4142 6.75197 15.75 7.08775 15.75 7.50197C15.75 7.91618 15.4142 8.25197 15 8.25197L9 8.25197C8.58579 8.25197 8.25 7.91618 8.25 7.50197C8.25 7.08775 8.58579 6.75197 9 6.75197Z" stroke="black" stroke-width="1.5" stroke-linecap="round"/>
</svg>
