<svg width="24" height="24" viewBox="0 0 24 24" fill="none" xmlns="http://www.w3.org/2000/svg">
<path d="M7.875 15.001C8.08211 15.001 8.25 14.8331 8.25 14.626C8.25 14.4189 8.08211 14.251 7.875 14.251C7.66789 14.251 7.5 14.4189 7.5 14.626C7.5 14.8331 7.66789 15.001 7.875 15.001Z" fill="black"/>
<path d="M7.875 9.75098C8.08211 9.75098 8.25 9.58308 8.25 9.37598C8.25 9.16887 8.08211 9.00098 7.875 9.00098C7.66789 9.00098 7.5 9.16887 7.5 9.37598C7.5 9.58308 7.66789 9.75098 7.875 9.75098Z" fill="black"/>
<path d="M12.0002 7.50098C12.2073 7.50098 12.3752 7.33308 12.3752 7.12598C12.3752 6.91887 12.2073 6.75098 12.0002 6.75098C11.7931 6.75098 11.6252 6.91887 11.6252 7.12598C11.6252 7.33308 11.7931 7.50098 12.0002 7.50098Z" fill="black"/>
<path d="M16.125 9.75098C16.3321 9.75098 16.5 9.58308 16.5 9.37598C16.5 9.16887 16.3321 9.00098 16.125 9.00098C15.9179 9.00098 15.75 9.16887 15.75 9.37598C15.75 9.58308 15.9179 9.75098 16.125 9.75098Z" fill="black"/>
<path d="M12 18.0005L12.75 18.001V18.0005H12ZM14.25 15.7505V15.0005V15.7505ZM18.5822 15.7505L18.5823 15.0005H18.5822V15.7505ZM20.7759 14.002L21.5071 14.1692L21.5073 14.168L20.7759 14.002ZM21 11.9226L20.25 11.929V11.929L21 11.9226ZM11.9062 3.00046L11.8987 2.25049L11.8984 2.2505L11.9062 3.00046ZM3 12.0005H3.75V12.0004L3 12.0005ZM9 20.1201L9.25 19.413L9.24988 19.413L9 20.1201ZM12 18.0005H12.75C12.75 17.6026 12.908 17.2211 13.1893 16.9398L12.659 16.4095L12.1287 15.8791C11.5661 16.4417 11.25 17.2048 11.25 18.0005H12ZM12.659 16.4095L13.1893 16.9398C13.4706 16.6585 13.8522 16.5005 14.25 16.5005V15.7505V15.0005C13.4544 15.0005 12.6913 15.3165 12.1287 15.8791L12.659 16.4095ZM14.25 15.7505V16.5005H18.5822V15.7505V15.0005H14.25V15.7505ZM18.5822 15.7505L18.5821 16.5005C19.2616 16.5006 19.921 16.27 20.4524 15.8465L19.9849 15.26L19.5175 14.6735C19.2518 14.8852 18.9221 15.0005 18.5823 15.0005L18.5822 15.7505ZM19.9849 15.26L20.4524 15.8465C20.9837 15.423 21.3556 14.8316 21.5071 14.1692L20.7759 14.002L20.0448 13.8348C19.9691 14.166 19.7831 14.4617 19.5175 14.6735L19.9849 15.26ZM20.7759 14.002L21.5073 14.168C21.675 13.4293 21.7564 12.6737 21.75 11.9162L21 11.9226L20.25 11.929C20.2555 12.5705 20.1865 13.2104 20.0445 13.836L20.7759 14.002ZM21 11.9226L21.75 11.9163C21.7042 6.54936 17.2667 2.19665 11.8987 2.25049L11.9062 3.00046L11.9138 3.75042C16.4533 3.70489 20.2114 7.39218 20.25 11.929L21 11.9226ZM11.9062 3.00046L11.8984 2.2505C9.33022 2.27725 6.87628 3.31628 5.06971 5.14187L5.60281 5.66941L6.13591 6.19696C7.66454 4.65223 9.74095 3.77305 11.9141 3.75042L11.9062 3.00046ZM5.60281 5.66941L5.06971 5.14187C3.26314 6.96745 2.24986 9.43214 2.25 12.0005L3 12.0005L3.75 12.0004C3.74988 9.82719 4.60727 7.74169 6.13591 6.19696L5.60281 5.66941ZM3 12.0005H2.25C2.25 16.2844 5.00253 19.503 8.75012 20.8273L9 20.1201L9.24988 19.413C6.00934 18.2679 3.75 15.5559 3.75 12.0005H3ZM9 20.1201L8.75 20.8273C9.20232 20.9872 9.6864 21.0363 10.1616 20.9705L10.0587 20.2275L9.95581 19.4846C9.7182 19.5176 9.47616 19.493 9.25 19.413L9 20.1201ZM10.0587 20.2275L10.1616 20.9705C10.6368 20.9046 11.0893 20.7258 11.4812 20.4489L11.0484 19.8364L10.6156 19.2239C10.4197 19.3623 10.1934 19.4517 9.95581 19.4846L10.0587 20.2275ZM11.0484 19.8364L11.4812 20.4489C11.873 20.1721 12.1927 19.8053 12.4135 19.3794L11.7476 19.0342L11.0817 18.6891C10.9713 18.9021 10.8115 19.0855 10.6156 19.2239L11.0484 19.8364ZM11.7476 19.0342L12.4135 19.3794C12.6342 18.9534 12.7497 18.4808 12.75 18.001L12 18.0005L11.25 17.9999C11.2498 18.2398 11.1921 18.4761 11.0817 18.6891L11.7476 19.0342ZM8.25 14.626H7.5C7.5 14.4189 7.66789 14.251 7.875 14.251V15.001V15.751C8.49632 15.751 9 15.2473 9 14.626H8.25ZM7.875 15.001V14.251C8.08211 14.251 8.25 14.4189 8.25 14.626H7.5H6.75C6.75 15.2473 7.25368 15.751 7.875 15.751V15.001ZM7.5 14.626H8.25C8.25 14.8331 8.08211 15.001 7.875 15.001V14.251V13.501C7.25368 13.501 6.75 14.0047 6.75 14.626H7.5ZM7.875 14.251V15.001C7.66789 15.001 7.5 14.8331 7.5 14.626H8.25H9C9 14.0047 8.49632 13.501 7.875 13.501V14.251ZM8.25 9.37598H7.5C7.5 9.16887 7.66789 9.00098 7.875 9.00098V9.75098V10.501C8.49632 10.501 9 9.9973 9 9.37598H8.25ZM7.875 9.75098V9.00098C8.08211 9.00098 8.25 9.16887 8.25 9.37598H7.5H6.75C6.75 9.9973 7.25368 10.501 7.875 10.501V9.75098ZM7.5 9.37598H8.25C8.25 9.58308 8.08211 9.75098 7.875 9.75098V9.00098V8.25098C7.25368 8.25098 6.75 8.75466 6.75 9.37598H7.5ZM7.875 9.00098V9.75098C7.66789 9.75098 7.5 9.58308 7.5 9.37598H8.25H9C9 8.75466 8.49632 8.25098 7.875 8.25098V9.00098ZM12.3752 7.12598H11.6252C11.6252 6.91887 11.7931 6.75098 12.0002 6.75098V7.50098V8.25098C12.6215 8.25098 13.1252 7.7473 13.1252 7.12598H12.3752ZM12.0002 7.50098V6.75098C12.2073 6.75098 12.3752 6.91887 12.3752 7.12598H11.6252H10.8752C10.8752 7.7473 11.3788 8.25098 12.0002 8.25098V7.50098ZM11.6252 7.12598H12.3752C12.3752 7.33308 12.2073 7.50098 12.0002 7.50098V6.75098V6.00098C11.3788 6.00098 10.8752 6.50466 10.8752 7.12598H11.6252ZM12.0002 6.75098V7.50098C11.7931 7.50098 11.6252 7.33308 11.6252 7.12598H12.3752H13.1252C13.1252 6.50466 12.6215 6.00098 12.0002 6.00098V6.75098ZM16.5 9.37598H15.75C15.75 9.16887 15.9179 9.00098 16.125 9.00098V9.75098V10.501C16.7463 10.501 17.25 9.9973 17.25 9.37598H16.5ZM16.125 9.75098V9.00098C16.3321 9.00098 16.5 9.16887 16.5 9.37598H15.75H15C15 9.9973 15.5037 10.501 16.125 10.501V9.75098ZM15.75 9.37598H16.5C16.5 9.58308 16.3321 9.75098 16.125 9.75098V9.00098V8.25098C15.5037 8.25098 15 8.75466 15 9.37598H15.75ZM16.125 9.00098V9.75098C15.9179 9.75098 15.75 9.58308 15.75 9.37598H16.5H17.25C17.25 8.75466 16.7463 8.25098 16.125 8.25098V9.00098Z" fill="black"/>
</svg>
