<svg width="24" height="24" viewBox="0 0 24 24" fill="none" xmlns="http://www.w3.org/2000/svg">
<path d="M12.763 5.42509H19.3499C19.6269 5.42513 19.882 5.51676 20.0892 5.66923C20.1518 5.6936 20.2105 5.73098 20.261 5.78153C20.3134 5.83391 20.351 5.8951 20.3753 5.96024C20.5169 6.16284 20.5999 6.4092 20.5999 6.67509V17.3382C20.5997 18.0283 20.0401 18.5881 19.3499 18.5882H4.64972C3.9596 18.588 3.39992 18.0283 3.39972 17.3382V6.67509C3.39977 5.98486 3.95951 5.42522 4.64972 5.42509H12.6292C12.6738 5.41909 12.7184 5.41906 12.763 5.42509ZM15.1995 14.5315V17.5882H19.3499C19.4878 17.5881 19.5997 17.476 19.5999 17.3382V14.5315H15.1995ZM9.80011 17.5882H14.1995V14.5315H9.80011V17.5882ZM6.70441 17.5882H8.80011V15.4915L6.70441 17.5882ZM4.40753 17.3977C4.43435 17.5069 4.5324 17.5881 4.64972 17.5882H5.29034L8.80011 14.0774V13.0061L4.40753 17.3977ZM4.39972 14.9212V15.9925L8.80011 11.5921V10.5208L4.39972 14.9212ZM15.1995 10.4817V13.5315H19.5999V10.4817H15.1995ZM9.80011 11.7757C9.80071 11.7897 9.80068 11.8036 9.80011 11.8177V13.5315H14.1995V10.4817H9.80011V11.7757ZM4.39972 12.4358V13.5071L11.4818 6.42509H10.4114L4.39972 12.4358ZM4.39972 9.95145V11.0218L8.99738 6.42509H7.92609L4.39972 9.95145ZM17.2679 9.48173H19.5999V7.1497L17.2679 9.48173ZM9.8382 9.48173H10.9105L13.9681 6.42509H12.8958L9.8382 9.48173ZM12.3255 9.48173H13.3958L16.4525 6.42509H15.3821L12.3255 9.48173ZM14.8089 9.48173H15.8538L18.9105 6.42509H17.8665L14.8089 9.48173ZM4.64972 6.42509C4.51179 6.42522 4.39977 6.53714 4.39972 6.67509V8.53739L6.51202 6.42509H4.64972Z" fill="black"/>
</svg>
