<svg width="24" height="24" viewBox="0 0 24 24" fill="none" xmlns="http://www.w3.org/2000/svg">
<path d="M8.9997 18.7573L8.99969 9.7573H20.9997M14.9997 9.7573V18.7573M8.99969 14.2573H20.9997M6.75739 5.53853L3.30297 9.05495M11.2669 5.54789L2.99951 13.8153M8.62689 12.6878L3.27188 18.0428M15.7669 5.54789L11.6332 9.68159M8.74719 17.0676L7.30148 18.5133M20.2669 5.54789L16.1332 9.68159M3.83284 18.7644H20.1662C20.6264 18.7644 20.9995 18.3913 20.9995 17.931V6.08358C20.9995 5.62334 20.6264 5.25024 20.1662 5.25024H3.83284C3.37261 5.25024 2.99951 5.62334 2.99951 6.08358V17.931C2.99951 18.3913 3.37261 18.7644 3.83284 18.7644Z" stroke="black" stroke-width="1.5" stroke-linecap="round" stroke-linejoin="round"/>
</svg>
