<svg xmlns="http://www.w3.org/2000/svg" width="24" height="24" fill="currentColor" viewBox="0 0 24 24"><path d="M20.125 11.57a0.607 0.607 0 0 1 0 0.86l-8.309 8.302a5.468 5.468 0 0 1-7.731-7.734l10.051-10.197a3.848 3.848 0 1 1 5.444 5.439L9.528 18.434a2.228 2.228 0 1 1-3.154-3.147l8.433-8.573a0.607 0.607 0 0 1 0.866 0.852l-8.432 8.576a1.013 1.013 0 1 0 1.429 1.436l10.048-10.196a2.633 2.633 0 1 0-3.72-3.726l-10.053 10.194a4.253 4.253 0 1 0 6.011 6.018l8.309-8.302a0.607 0.607 0 0 1 0.859 0.003z"/></svg>