<svg width="24" height="24" viewBox="0 0 24 24" fill="none" xmlns="http://www.w3.org/2000/svg">
<path d="M15.0005 7.50034L7.19014 15.44C6.91569 15.7228 6.7635 16.1021 6.76646 16.4961C6.76943 16.8901 6.92731 17.2672 7.20599 17.5457C7.48468 17.8243 7.86177 17.982 8.25579 17.9848C8.64981 17.9876 9.0291 17.8352 9.3117 17.5607L18.622 8.1219C19.1847 7.55923 19.5008 6.79608 19.5008 6.00034C19.5008 5.2046 19.1847 4.44145 18.622 3.87878C18.0593 3.31611 17.2962 3 16.5005 3C15.7047 3 14.9416 3.31611 14.3789 3.87878L5.06858 13.3185C4.23602 14.1647 3.77157 15.3056 3.7764 16.4928C3.78124 17.6799 4.25496 18.817 5.09439 19.6564C5.93381 20.4958 7.07093 20.9696 8.25804 20.9744C9.44516 20.9792 10.5861 20.5148 11.4323 19.6822L19.1255 12.0003" stroke="black" stroke-width="1.5" stroke-linecap="round" stroke-linejoin="round"/>
</svg>
