<svg xmlns="http://www.w3.org/2000/svg" width="24" height="24" fill="currentColor" viewBox="0 0 24 24"><path d="M21.911 2.089a1.404 1.404 0 0 0-1.387-0.362h-0.011L1.08 7.622a1.417 1.417 0 0 0-0.217 2.642l8.663 4.215 4.208 8.658a1.404 1.404 0 0 0 1.277 0.81q0.061 0.001 0.122-0.005a1.404 1.404 0 0 0 1.245-1.021l5.893-19.433v-0.01a1.404 1.404 0 0 0-0.36-1.388z m-0.81 1.053L15.214 22.572v0.011a0.203 0.203 0 0 1-0.381 0.026l-4.118-8.462 4.961-4.961a0.607 0.607 0 1 0-0.86-0.859l-4.96 4.961-8.47-4.125a0.203 0.203 0 0 1 0.031-0.379h0.011l19.43-5.891a0.192 0.192 0 0 1 0.195 0.053 0.204 0.204 0 0 1 0.053 0.194z"/></svg>