<svg width="24" height="24" viewBox="0 0 24 24" fill="none" xmlns="http://www.w3.org/2000/svg">
<path d="M19.6001 5.9248C19.6 5.82837 19.5217 5.75021 19.4253 5.75H4.57471C4.47821 5.75011 4.40001 5.82831 4.3999 5.9248V18.0752C4.40001 18.1717 4.47821 18.2499 4.57471 18.25H19.4253C19.5217 18.2498 19.6 18.1716 19.6001 18.0752V5.9248ZM20.6001 18.0752C20.6 18.7239 20.074 19.2498 19.4253 19.25H4.57471C3.92593 19.2499 3.40001 18.724 3.3999 18.0752V5.9248C3.40001 5.27602 3.92593 4.75011 4.57471 4.75H19.4253C20.074 4.75021 20.6 5.27609 20.6001 5.9248V18.0752Z" fill="black"/>
<path d="M15.1976 14.5C15.0483 14.5 14.934 14.4603 14.8546 14.381C14.7753 14.3017 14.7356 14.192 14.7356 14.052C14.7356 13.9073 14.7753 13.7977 14.8546 13.723C14.934 13.6483 15.0483 13.611 15.1976 13.611H15.9046V10.454H16.4156L15.3936 11.077C15.2863 11.1423 15.186 11.168 15.0926 11.154C15.004 11.14 14.927 11.1003 14.8616 11.035C14.7963 10.9697 14.752 10.8927 14.7286 10.804C14.71 10.7107 14.7193 10.6197 14.7566 10.531C14.794 10.4377 14.864 10.3583 14.9666 10.293L15.9396 9.705C16.0376 9.64433 16.1356 9.59533 16.2336 9.558C16.3363 9.52067 16.4366 9.502 16.5346 9.502C16.6746 9.502 16.7843 9.53933 16.8636 9.614C16.9476 9.684 16.9896 9.79367 16.9896 9.943V13.611H17.6266C17.7713 13.611 17.8833 13.6483 17.9626 13.723C18.042 13.7977 18.0816 13.9073 18.0816 14.052C18.0816 14.1967 18.042 14.3087 17.9626 14.388C17.8833 14.4627 17.7713 14.5 17.6266 14.5H15.1976Z" fill="black"/>
<path d="M12.0014 14.577C11.404 14.577 10.9467 14.3553 10.6294 13.912C10.3167 13.464 10.1604 12.8317 10.1604 12.015C10.1604 11.469 10.2304 11.0093 10.3704 10.636C10.515 10.258 10.7227 9.97333 10.9934 9.782C11.2687 9.586 11.6047 9.488 12.0014 9.488C12.6034 9.488 13.0607 9.705 13.3734 10.139C13.686 10.5683 13.8424 11.1937 13.8424 12.015C13.8424 12.561 13.77 13.0253 13.6254 13.408C13.4854 13.786 13.28 14.0753 13.0094 14.276C12.7387 14.4767 12.4027 14.577 12.0014 14.577ZM12.0014 13.695C12.272 13.695 12.4727 13.562 12.6034 13.296C12.734 13.0253 12.7994 12.5983 12.7994 12.015C12.7994 11.4317 12.734 11.0117 12.6034 10.755C12.4727 10.4983 12.272 10.37 12.0014 10.37C11.7307 10.37 11.53 10.4983 11.3994 10.755C11.2687 11.0117 11.2034 11.4317 11.2034 12.015C11.2034 12.5983 11.2687 13.0253 11.3994 13.296C11.53 13.562 11.7307 13.695 12.0014 13.695Z" fill="black"/>
<path d="M7.8041 14.577C7.20677 14.577 6.74943 14.3553 6.4321 13.912C6.11943 13.464 5.9631 12.8317 5.9631 12.015C5.9631 11.469 6.0331 11.0093 6.1731 10.636C6.31777 10.258 6.52543 9.97333 6.7961 9.782C7.07143 9.586 7.40743 9.488 7.8041 9.488C8.4061 9.488 8.86344 9.705 9.1761 10.139C9.48877 10.5683 9.6451 11.1937 9.6451 12.015C9.6451 12.561 9.57277 13.0253 9.4281 13.408C9.2881 13.786 9.08277 14.0753 8.8121 14.276C8.54143 14.4767 8.20543 14.577 7.8041 14.577ZM7.8041 13.695C8.07477 13.695 8.27543 13.562 8.4061 13.296C8.53677 13.0253 8.6021 12.5983 8.6021 12.015C8.6021 11.4317 8.53677 11.0117 8.4061 10.755C8.27543 10.4983 8.07477 10.37 7.8041 10.37C7.53343 10.37 7.33277 10.4983 7.2021 10.755C7.07143 11.0117 7.0061 11.4317 7.0061 12.015C7.0061 12.5983 7.07143 13.0253 7.2021 13.296C7.33277 13.562 7.53343 13.695 7.8041 13.695Z" fill="black"/>
</svg>
