<svg viewBox="0 0 24 24" fill="none" xmlns="http://www.w3.org/2000/svg" width="24" height="24">
<path d="M17.07 14.842V3.9C17.07 3.569 17.339 3.3 17.67 3.3 18.002 3.3 18.27 3.569 18.27 3.9V14.842C18.27 15.173 18.002 15.442 17.67 15.442 17.339 15.442 17.07 15.173 17.07 14.842Z" fill="black"/>
<path d="M13.02 20.1V3.9C13.02 3.569 13.289 3.3 13.62 3.3 13.952 3.3 14.22 3.569 14.22 3.9V20.1C14.22 20.431 13.952 20.7 13.62 20.7 13.289 20.7 13.02 20.431 13.02 20.1Z" fill="black"/>
<path d="M2.49 9.57C2.49 7.907 3.151 6.312 4.327 5.136 5.502 3.961 7.097 3.3 8.76 3.3H20.1C20.431 3.3 20.7 3.569 20.7 3.9 20.7 4.231 20.431 4.5 20.1 4.5H8.76C7.415 4.5 6.126 5.034 5.175 5.985 4.224 6.935 3.69 8.225 3.69 9.57 3.69 10.914 4.224 12.205 5.175 13.155 6.126 14.106 7.415 14.64 8.76 14.64H13.621C13.952 14.64 14.221 14.909 14.221 15.24 14.221 15.571 13.952 15.84 13.621 15.84H8.76C7.097 15.84 5.502 15.18 4.327 14.004 3.151 12.828 2.49 11.232 2.49 9.57Z" fill="black"/>
<path d="M22.53 17.071C22.861 17.071 23.13 17.339 23.13 17.671 23.13 18.002 22.861 18.271 22.53 18.271H17.67C17.339 18.271 17.07 18.002 17.07 17.671 17.07 17.339 17.339 17.071 17.67 17.071H22.53Z" fill="black"/>
<path d="M19.5 20.1V15.24C19.5 14.909 19.769 14.64 20.1 14.64 20.432 14.64 20.7 14.909 20.7 15.24V20.1C20.7 20.431 20.432 20.7 20.1 20.7 19.769 20.7 19.5 20.431 19.5 20.1Z" fill="black"/>
</svg>