<svg width="24" height="24" viewBox="0 0 24 24" fill="none" xmlns="http://www.w3.org/2000/svg">
<path d="M19.6001 5.9248C19.6 5.82837 19.5217 5.75021 19.4253 5.75H4.57471C4.47821 5.75011 4.40001 5.82831 4.3999 5.9248V18.0752C4.40001 18.1717 4.47821 18.2499 4.57471 18.25H19.4253C19.5217 18.2498 19.6 18.1716 19.6001 18.0752V5.9248ZM20.6001 18.0752C20.6 18.7239 20.074 19.2498 19.4253 19.25H4.57471C3.92593 19.2499 3.40001 18.724 3.3999 18.0752V5.9248C3.40001 5.27602 3.92593 4.75011 4.57471 4.75H19.4253C20.074 4.75021 20.6 5.27609 20.6001 5.9248V18.0752Z" fill="black"/>
<path d="M16.4921 14.577C16.1188 14.577 15.7921 14.5047 15.5121 14.36C15.2368 14.2107 15.0244 14.0007 14.8751 13.73C14.7258 13.4593 14.6511 13.1397 14.6511 12.771C14.6511 12.4957 14.6931 12.2483 14.7771 12.029C14.8611 11.8097 14.9824 11.623 15.1411 11.469C15.3044 11.315 15.5004 11.1983 15.7291 11.119C15.9578 11.035 16.2121 10.993 16.4921 10.993C16.6368 10.993 16.7908 11.0117 16.9541 11.049C17.1174 11.0817 17.2784 11.14 17.4371 11.224C17.5304 11.266 17.5934 11.3267 17.6261 11.406C17.6634 11.4807 17.6774 11.56 17.6681 11.644C17.6588 11.7233 17.6284 11.7957 17.5771 11.861C17.5304 11.9217 17.4698 11.9637 17.3951 11.987C17.3204 12.0057 17.2364 11.9917 17.1431 11.945C17.0544 11.8937 16.9611 11.8563 16.8631 11.833C16.7698 11.8097 16.6811 11.798 16.5971 11.798C16.4571 11.798 16.3334 11.8213 16.2261 11.868C16.1188 11.91 16.0278 11.973 15.9531 12.057C15.8831 12.1363 15.8271 12.2367 15.7851 12.358C15.7478 12.4793 15.7291 12.6193 15.7291 12.778C15.7291 13.086 15.8038 13.3287 15.9531 13.506C16.1071 13.6787 16.3218 13.765 16.5971 13.765C16.6811 13.765 16.7698 13.7557 16.8631 13.737C16.9564 13.7137 17.0498 13.6763 17.1431 13.625C17.2364 13.5783 17.3204 13.5667 17.3951 13.59C17.4698 13.6133 17.5281 13.6577 17.5701 13.723C17.6168 13.7837 17.6424 13.856 17.6471 13.94C17.6564 14.0193 17.6424 14.0987 17.6051 14.178C17.5724 14.2527 17.5118 14.311 17.4231 14.353C17.2644 14.4323 17.1058 14.4883 16.9471 14.521C16.7884 14.5583 16.6368 14.577 16.4921 14.577Z" fill="black"/>
<path d="M12.6676 14.577C12.3923 14.577 12.1473 14.5093 11.9326 14.374C11.7226 14.234 11.5826 14.0497 11.5126 13.821L11.5896 13.59V14.024C11.5896 14.1967 11.5453 14.3297 11.4566 14.423C11.368 14.5163 11.2396 14.563 11.0716 14.563C10.9036 14.563 10.773 14.5163 10.6796 14.423C10.591 14.3297 10.5466 14.1967 10.5466 14.024V10.041C10.5466 9.86367 10.591 9.73067 10.6796 9.642C10.773 9.54867 10.906 9.502 11.0786 9.502C11.2466 9.502 11.375 9.54867 11.4636 9.642C11.557 9.73067 11.6036 9.86367 11.6036 10.041V11.7H11.5196C11.5943 11.49 11.7366 11.3197 11.9466 11.189C12.1566 11.0583 12.397 10.993 12.6676 10.993C12.971 10.993 13.2346 11.0653 13.4586 11.21C13.6826 11.3547 13.8576 11.56 13.9836 11.826C14.1096 12.092 14.1726 12.4093 14.1726 12.778C14.1726 13.1467 14.1096 13.4663 13.9836 13.737C13.8576 14.0077 13.6803 14.2153 13.4516 14.36C13.2276 14.5047 12.9663 14.577 12.6676 14.577ZM12.3526 13.786C12.502 13.786 12.6326 13.7487 12.7446 13.674C12.8613 13.5993 12.95 13.4897 13.0106 13.345C13.076 13.1957 13.1086 13.0067 13.1086 12.778C13.1086 12.4373 13.0386 12.1877 12.8986 12.029C12.7586 11.8657 12.5766 11.784 12.3526 11.784C12.2033 11.784 12.0703 11.819 11.9536 11.889C11.8416 11.959 11.753 12.0687 11.6876 12.218C11.6223 12.3627 11.5896 12.5493 11.5896 12.778C11.5896 13.1187 11.6596 13.373 11.7996 13.541C11.9396 13.7043 12.124 13.786 12.3526 13.786Z" fill="black"/>
<path d="M7.81214 14.577C7.56014 14.577 7.33381 14.528 7.13314 14.43C6.93247 14.332 6.77614 14.199 6.66414 14.031C6.55214 13.863 6.49614 13.674 6.49614 13.464C6.49614 13.212 6.56147 13.0137 6.69214 12.869C6.82281 12.7197 7.03514 12.6147 7.32914 12.554C7.62314 12.4887 8.01281 12.456 8.49814 12.456H8.86914V13.002H8.50514C8.26714 13.002 8.07347 13.016 7.92414 13.044C7.77947 13.0673 7.67447 13.1093 7.60914 13.17C7.54847 13.2307 7.51814 13.3147 7.51814 13.422C7.51814 13.5527 7.56247 13.66 7.65114 13.744C7.74447 13.828 7.87747 13.87 8.05014 13.87C8.18547 13.87 8.30447 13.8397 8.40714 13.779C8.51447 13.7137 8.59847 13.6273 8.65914 13.52C8.71981 13.408 8.75014 13.282 8.75014 13.142V12.337C8.75014 12.1317 8.70347 11.987 8.61014 11.903C8.51681 11.8143 8.35814 11.77 8.13414 11.77C8.00814 11.77 7.87047 11.7863 7.72114 11.819C7.57647 11.847 7.41547 11.896 7.23814 11.966C7.13547 12.0127 7.04447 12.0243 6.96514 12.001C6.88581 11.973 6.82514 11.9263 6.78314 11.861C6.74114 11.791 6.72014 11.7163 6.72014 11.637C6.72014 11.553 6.74347 11.4737 6.79014 11.399C6.83681 11.3197 6.91381 11.2613 7.02114 11.224C7.24047 11.1353 7.44581 11.0747 7.63714 11.042C7.83314 11.0093 8.01281 10.993 8.17614 10.993C8.53547 10.993 8.82947 11.0467 9.05814 11.154C9.29147 11.2567 9.46647 11.4177 9.58314 11.637C9.69981 11.8517 9.75814 12.1293 9.75814 12.47V14.024C9.75814 14.1967 9.71614 14.3297 9.63214 14.423C9.54814 14.5163 9.42681 14.563 9.26814 14.563C9.10947 14.563 8.98581 14.5163 8.89714 14.423C8.81314 14.3297 8.77114 14.1967 8.77114 14.024V13.765L8.82014 13.807C8.79214 13.9657 8.73147 14.1033 8.63814 14.22C8.54947 14.332 8.43514 14.4207 8.29514 14.486C8.15514 14.5467 7.99414 14.577 7.81214 14.577Z" fill="black"/>
</svg>
