<svg viewBox="0 0 24 24" fill="none" xmlns="http://www.w3.org/2000/svg" width="24" height="24">
<path d="M21.12 4.71C21.12 4.594 21.026 4.5 20.91 4.5H3.09C2.974 4.5 2.88 4.594 2.88 4.71V19.29C2.88 19.406 2.974 19.5 3.09 19.5H20.91C21.026 19.5 21.12 19.406 21.12 19.29V4.71ZM22.32 19.29C22.32 20.069 21.689 20.7 20.91 20.7H3.09C2.311 20.7 1.68 20.069 1.68 19.29V4.71C1.68 3.931 2.311 3.3 3.09 3.3H20.91C21.689 3.3 22.32 3.931 22.32 4.71V19.29Z" fill="black"/>
<path d="M14.7 15.076C14.487 15.076 14.322 15.017 14.204 14.899 14.092 14.782 14.036 14.611 14.036 14.387V9.758C14.036 9.54 14.095 9.372 14.212 9.254 14.33 9.137 14.498 9.078 14.716 9.078H17.589C17.757 9.078 17.883 9.123 17.967 9.212 18.057 9.296 18.102 9.42 18.102 9.582 18.102 9.75 18.057 9.879 17.967 9.968 17.883 10.052 17.757 10.094 17.589 10.094H15.338V11.539H17.404C17.572 11.539 17.701 11.584 17.791 11.674 17.88 11.758 17.925 11.881 17.925 12.043 17.925 12.206 17.88 12.332 17.791 12.421 17.701 12.511 17.572 12.556 17.404 12.556H15.338V14.387C15.338 14.846 15.125 15.076 14.7 15.076Z" fill="black"/>
<path d="M11.566 15.218C11.527 15.342 11.462 15.431 11.373 15.487 11.289 15.543 11.193 15.571 11.087 15.571 10.986 15.571 10.894 15.543 10.81 15.487 10.726 15.437 10.664 15.364 10.625 15.269 10.586 15.174 10.589 15.059 10.633 14.924L12.532 9.002C12.571 8.879 12.636 8.79 12.725 8.734 12.815 8.672 12.907 8.644 13.002 8.65 13.103 8.65 13.195 8.678 13.279 8.734 13.369 8.784 13.434 8.857 13.473 8.952 13.512 9.042 13.509 9.154 13.464 9.288L11.566 15.218Z" fill="black"/>
<path d="M8.432 15.076C8.22 15.076 8.057 15.017 7.945 14.899 7.833 14.782 7.777 14.616 7.777 14.404V10.153H6.29C6.117 10.153 5.982 10.106 5.887 10.01 5.792 9.915 5.744 9.784 5.744 9.616 5.744 9.442 5.792 9.31 5.887 9.221 5.982 9.126 6.117 9.078 6.29 9.078H10.566C10.74 9.078 10.874 9.126 10.969 9.221 11.064 9.31 11.112 9.442 11.112 9.616 11.112 9.784 11.064 9.915 10.969 10.01 10.874 10.106 10.74 10.153 10.566 10.153H9.079V14.404C9.079 14.616 9.023 14.782 8.911 14.899 8.805 15.017 8.645 15.076 8.432 15.076Z" fill="black"/>
</svg>