<svg width="24" height="24" viewBox="0 0 24 24" fill="none" xmlns="http://www.w3.org/2000/svg">
<path d="M19.6001 5.9248C19.6 5.82837 19.5217 5.75021 19.4253 5.75H4.57471C4.47821 5.75011 4.40001 5.82831 4.3999 5.9248V18.0752C4.40001 18.1717 4.47821 18.2499 4.57471 18.25H19.4253C19.5217 18.2498 19.6 18.1716 19.6001 18.0752V5.9248ZM20.6001 18.0752C20.6 18.7239 20.074 19.2498 19.4253 19.25H4.57471C3.92593 19.2499 3.40001 18.724 3.3999 18.0752V5.9248C3.40001 5.27602 3.92593 4.75011 4.57471 4.75H19.4253C20.074 4.75021 20.6 5.27609 20.6001 5.9248V18.0752Z" fill="black"/>
<path d="M6 15.5C6 15.2239 6.22386 15 6.5 15H8.5C8.77614 15 9 15.2239 9 15.5C9 15.7761 8.77614 16 8.5 16H6.5C6.22386 16 6 15.7761 6 15.5Z" fill="black"/>
<path d="M10.5 15.5C10.5 15.2239 10.7239 15 11 15H13C13.2761 15 13.5 15.2239 13.5 15.5C13.5 15.7761 13.2761 16 13 16H11C10.7239 16 10.5 15.7761 10.5 15.5Z" fill="black"/>
<path d="M15 15.5C15 15.2239 15.2239 15 15.5 15H17.5C17.7761 15 18 15.2239 18 15.5C18 15.7761 17.7761 16 17.5 16H15.5C15.2239 16 15 15.7761 15 15.5Z" fill="black"/>
</svg>
