<svg width="24" height="24" viewBox="0 0 24 24" fill="none" xmlns="http://www.w3.org/2000/svg">
<path d="M15.6739 14.25V9.75L14.5489 10.5M12.5 13.7935H12.55M10.625 12C10.625 13.2426 9.86953 14.25 8.93755 14.25C8.00557 14.25 7.25005 13.2426 7.25005 12C7.25005 10.7574 8.00557 9.75 8.93755 9.75C9.86953 9.75 10.625 10.7574 10.625 12ZM3.75 4.5H20.25C20.6642 4.5 21 4.83579 21 5.25V18.75C21 19.1642 20.6642 19.5 20.25 19.5H3.75C3.33579 19.5 3 19.1642 3 18.75V5.25C3 4.83579 3.33579 4.5 3.75 4.5Z" stroke="black" stroke-width="1.5" stroke-linecap="round" stroke-linejoin="round"/>
</svg>
