<svg viewBox="0 0 24 24" fill="none" xmlns="http://www.w3.org/2000/svg" width="24" height="24">
<path d="M21.12 4.71C21.12 4.594 21.026 4.5 20.91 4.5H3.09C2.974 4.5 2.88 4.594 2.88 4.71V19.29C2.88 19.406 2.974 19.5 3.09 19.5H20.91C21.026 19.5 21.12 19.406 21.12 19.29V4.71ZM22.32 19.29C22.32 20.069 21.689 20.7 20.91 20.7H3.09C2.311 20.7 1.68 20.069 1.68 19.29V4.71C1.68 3.931 2.311 3.3 3.09 3.3H20.91C21.689 3.3 22.32 3.931 22.32 4.71V19.29Z" fill="black"/>
<path d="M17.391 15.092C16.943 15.092 16.551 15.006 16.215 14.832 15.884 14.653 15.629 14.401 15.45 14.076 15.271 13.751 15.181 13.368 15.181 12.925 15.181 12.595 15.232 12.298 15.333 12.035 15.433 11.772 15.579 11.548 15.769 11.363 15.965 11.178 16.2 11.038 16.475 10.943 16.749 10.842 17.055 10.792 17.391 10.792 17.564 10.792 17.749 10.814 17.945 10.859 18.141 10.898 18.334 10.968 18.525 11.069 18.636 11.119 18.712 11.192 18.751 11.287 18.796 11.377 18.813 11.472 18.802 11.573 18.791 11.668 18.754 11.755 18.693 11.833 18.636 11.906 18.564 11.956 18.474 11.984 18.384 12.007 18.284 11.99 18.172 11.934 18.065 11.872 17.953 11.828 17.836 11.8 17.724 11.772 17.617 11.758 17.517 11.758 17.349 11.758 17.2 11.786 17.071 11.842 16.943 11.892 16.833 11.968 16.744 12.068 16.66 12.164 16.593 12.284 16.542 12.43 16.497 12.575 16.475 12.743 16.475 12.934 16.475 13.303 16.565 13.594 16.744 13.807 16.929 14.014 17.186 14.118 17.517 14.118 17.617 14.118 17.724 14.107 17.836 14.084 17.948 14.056 18.06 14.012 18.172 13.95 18.284 13.894 18.384 13.88 18.474 13.908 18.564 13.936 18.634 13.989 18.684 14.068 18.74 14.14 18.771 14.227 18.777 14.328 18.788 14.423 18.771 14.518 18.726 14.614 18.687 14.703 18.614 14.773 18.508 14.824 18.317 14.919 18.127 14.986 17.937 15.025 17.746 15.07 17.564 15.092 17.391 15.092Z" fill="black"/>
<path d="M12.801 15.092C12.471 15.092 12.177 15.011 11.919 14.849 11.667 14.681 11.499 14.46 11.415 14.185L11.508 13.908V14.429C11.508 14.636 11.454 14.796 11.348 14.908 11.242 15.02 11.088 15.076 10.886 15.076 10.684 15.076 10.528 15.02 10.416 14.908 10.309 14.796 10.256 14.636 10.256 14.429V9.649C10.256 9.436 10.309 9.277 10.416 9.17 10.528 9.058 10.687 9.002 10.894 9.002 11.096 9.002 11.25 9.058 11.356 9.17 11.468 9.277 11.524 9.436 11.524 9.649V11.64H11.424C11.513 11.388 11.684 11.184 11.936 11.027 12.188 10.87 12.476 10.792 12.801 10.792 13.165 10.792 13.482 10.878 13.75 11.052 14.019 11.226 14.229 11.472 14.38 11.791 14.532 12.11 14.607 12.491 14.607 12.934 14.607 13.376 14.532 13.76 14.38 14.084 14.229 14.409 14.016 14.658 13.742 14.832 13.473 15.006 13.16 15.092 12.801 15.092ZM12.423 14.143C12.602 14.143 12.759 14.098 12.894 14.009 13.034 13.919 13.14 13.788 13.213 13.614 13.291 13.435 13.33 13.208 13.33 12.934 13.33 12.525 13.246 12.225 13.078 12.035 12.91 11.839 12.692 11.741 12.423 11.741 12.244 11.741 12.084 11.783 11.944 11.867 11.81 11.951 11.704 12.082 11.625 12.262 11.547 12.435 11.508 12.659 11.508 12.934 11.508 13.342 11.592 13.648 11.76 13.849 11.928 14.045 12.149 14.143 12.423 14.143Z" fill="black"/>
<path d="M6.975 15.092C6.672 15.092 6.401 15.034 6.16 14.916 5.919 14.798 5.731 14.639 5.597 14.437 5.463 14.236 5.395 14.009 5.395 13.757 5.395 13.454 5.474 13.216 5.631 13.043 5.787 12.864 6.042 12.738 6.395 12.665 6.748 12.586 7.215 12.547 7.798 12.547H8.243V13.202H7.806C7.521 13.202 7.288 13.219 7.109 13.253 6.935 13.281 6.809 13.331 6.731 13.404 6.658 13.477 6.622 13.578 6.622 13.706 6.622 13.863 6.675 13.992 6.781 14.093 6.893 14.194 7.053 14.244 7.26 14.244 7.423 14.244 7.565 14.208 7.689 14.135 7.817 14.056 7.918 13.953 7.991 13.824 8.064 13.69 8.1 13.538 8.1 13.37V12.404C8.1 12.158 8.044 11.984 7.932 11.884 7.82 11.777 7.63 11.724 7.361 11.724 7.21 11.724 7.045 11.744 6.865 11.783 6.692 11.816 6.499 11.875 6.286 11.959 6.163 12.015 6.053 12.029 5.958 12.001 5.863 11.968 5.79 11.912 5.74 11.833 5.689 11.749 5.664 11.66 5.664 11.564 5.664 11.464 5.692 11.368 5.748 11.279 5.804 11.184 5.897 11.114 6.025 11.069 6.289 10.962 6.535 10.89 6.765 10.85 7 10.811 7.215 10.792 7.411 10.792 7.843 10.792 8.195 10.856 8.47 10.985 8.75 11.108 8.96 11.301 9.1 11.564 9.24 11.822 9.31 12.155 9.31 12.564V14.429C9.31 14.636 9.259 14.796 9.159 14.908 9.058 15.02 8.912 15.076 8.722 15.076 8.531 15.076 8.383 15.02 8.277 14.908 8.176 14.796 8.125 14.636 8.125 14.429V14.118L8.184 14.168C8.151 14.359 8.078 14.524 7.966 14.664 7.859 14.798 7.722 14.905 7.554 14.983 7.386 15.056 7.193 15.092 6.975 15.092Z" fill="black"/>
</svg>