<svg width="24" height="24" viewBox="0 0 24 24" fill="none" xmlns="http://www.w3.org/2000/svg">
<path d="M16.5 2.25V5.25M7.5 2.25V5.25M3.75 8.25H20.25M15.0467 20.25H19.5C19.9142 20.25 20.25 19.9142 20.25 19.5V4.5C20.25 4.08579 19.9142 3.75 19.5 3.75H4.5C4.08579 3.75 3.75 4.08579 3.75 4.5V10.4466M9 14.25V15.7499H10.4956M13.5 15.75C13.5 18.2353 11.4853 20.25 9 20.25C6.51472 20.25 4.5 18.2353 4.5 15.75C4.5 13.2647 6.51472 11.25 9 11.25C11.4853 11.25 13.5 13.2647 13.5 15.75Z" stroke="black" stroke-width="1.5" stroke-linecap="round" stroke-linejoin="round"/>
</svg>
