<svg xmlns="http://www.w3.org/2000/svg" width="24" height="24" fill="currentColor" viewBox="0 0 24 24"><path d="M3.697 4.71v14.58a0.608 0.608 0 0 1-1.215 0V4.71a0.608 0.608 0 0 1 1.215 0m9.576 5.712l-2.286 0.742V8.76a0.607 0.607 0 0 0-1.214 0v2.404l-2.286-0.742a0.607 0.607 0 1 0-0.376 1.156l2.286 0.741-1.417 1.945a0.607 0.607 0 1 0 0.982 0.716l1.417-1.946 1.417 1.946a0.607 0.607 0 0 0 0.982-0.716l-1.418-1.945 2.286-0.741a0.607 0.607 0 1 0-0.375-1.156z m10.486 0.39a0.607 0.607 0 0 0-0.766-0.39l-2.286 0.742V8.76a0.607 0.607 0 0 0-1.214 0v2.404l-2.286-0.742a0.607 0.607 0 1 0-0.376 1.156l2.286 0.741-1.412 1.945a0.607 0.607 0 1 0 0.981 0.716l1.418-1.946 1.417 1.946a0.607 0.607 0 0 0 0.981-0.716l-1.412-1.945 2.286-0.741a0.607 0.607 0 0 0 0.382-0.766z"/></svg>