<svg width="24" height="24" viewBox="0 0 24 24" fill="none" xmlns="http://www.w3.org/2000/svg">
<path d="M17.2498 7.12476C17.2498 6.91765 17.0819 6.74976 16.8748 6.74976C16.6676 6.74976 16.4998 6.91765 16.4998 7.12476C16.4998 7.33186 16.6676 7.49976 16.8748 7.49976C17.0819 7.49976 17.2498 7.33186 17.2498 7.12476Z" stroke="black" stroke-width="1.5" stroke-linecap="round" stroke-linejoin="round"/>
<path d="M8.25 8.99156C8.2477 9.85616 8.41228 10.7131 8.73469 11.5153L3.21938 17.0306C3.07899 17.1712 3.00009 17.3617 3 17.5603V20.25C3 20.4489 3.07902 20.6397 3.21967 20.7803C3.36032 20.921 3.55109 21 3.75 21H6.75V18.75H9V16.5H11.25L12.4847 15.2653C13.2869 15.5877 14.1438 15.7523 15.0084 15.75C18.6253 15.75 21.6309 12.8362 21.75 9.22125C21.7803 8.29776 21.6206 7.37789 21.281 6.51861C20.9413 5.65932 20.4288 4.87892 19.7753 4.22575C19.1218 3.57257 18.3411 3.06052 17.4816 2.72131C16.6222 2.3821 15.7022 2.22296 14.7787 2.25375C11.1637 2.36906 8.25 5.37468 8.25 8.99156Z" stroke="black" stroke-width="1.5" stroke-linecap="round" stroke-linejoin="round"/>
</svg>
