<svg width="24" height="24" viewBox="0 0 24 24" fill="none" xmlns="http://www.w3.org/2000/svg">
<path d="M16.875 7.5C17.0821 7.5 17.25 7.33211 17.25 7.125C17.25 6.91789 17.0821 6.75 16.875 6.75C16.6679 6.75 16.5 6.91789 16.5 7.125C16.5 7.33211 16.6679 7.5 16.875 7.5Z" fill="black"/>
<path d="M8.73469 11.5153L9.26502 12.0456C9.47748 11.8332 9.54263 11.5144 9.43059 11.2356L8.73469 11.5153ZM8.25 8.99156L9 8.99355V8.99156H8.25ZM14.7787 2.25375L14.8027 3.00337L14.8037 3.00333L14.7787 2.25375ZM21.75 9.22125L22.4996 9.24593L22.4996 9.24583L21.75 9.22125ZM15.0084 15.75V15L15.0064 15L15.0084 15.75ZM12.4847 15.2653L12.7644 14.5694C12.4856 14.4574 12.1668 14.5225 11.9544 14.735L12.4847 15.2653ZM11.25 16.5V17.25C11.4489 17.25 11.6397 17.171 11.7803 17.0303L11.25 16.5ZM9 16.5V15.75C8.58579 15.75 8.25 16.0858 8.25 16.5H9ZM9 18.75V19.5C9.41421 19.5 9.75 19.1642 9.75 18.75H9ZM6.75 18.75V18C6.33579 18 6 18.3358 6 18.75H6.75ZM6.75 21V21.75C7.16421 21.75 7.5 21.4142 7.5 21H6.75ZM3 17.5603L2.25 17.56V17.5603H3ZM3.21938 17.0306L2.68904 16.5003L2.68875 16.5006L3.21938 17.0306ZM8.73469 11.5153L9.43059 11.2356C9.14416 10.5229 8.99796 9.76165 9 8.99355L8.25 8.99156L7.5 8.98957C7.49745 9.95066 7.68039 10.9032 8.03878 11.795L8.73469 11.5153ZM8.25 8.99156H9C9 5.77995 11.592 3.10578 14.8027 3.00337L14.7787 2.25375L14.7548 1.50413C10.7355 1.63234 7.5 4.96942 7.5 8.99156H8.25ZM14.7787 2.25375L14.8037 3.00333C15.6246 2.97597 16.4423 3.11743 17.2063 3.41894L17.4816 2.72131L17.757 2.02368C16.802 1.64678 15.7798 1.46996 14.7538 1.50416L14.7787 2.25375ZM17.4816 2.72131L17.2063 3.41894C17.9703 3.72046 18.6642 4.17562 19.2451 4.75622L19.7753 4.22575L20.3055 3.69527C19.5794 2.96952 18.7119 2.40057 17.757 2.02368L17.4816 2.72131ZM19.7753 4.22575L19.2451 4.75622C19.826 5.33682 20.2816 6.03051 20.5835 6.79432L21.281 6.51861L21.9785 6.2429C21.6011 5.28814 21.0316 4.42103 20.3055 3.69527L19.7753 4.22575ZM21.281 6.51861L20.5835 6.79432C20.8854 7.55812 21.0273 8.37579 21.0004 9.19666L21.75 9.22125L22.4996 9.24583C22.5332 8.21973 22.3559 7.19765 21.9785 6.2429L21.281 6.51861ZM21.75 9.22125L21.0004 9.19656C20.8946 12.408 18.2199 15 15.0084 15V15.75V16.5C19.0307 16.5 22.3672 13.2645 22.4996 9.24593L21.75 9.22125ZM15.0084 15.75L15.0064 15C14.2383 15.002 13.4771 14.8558 12.7644 14.5694L12.4847 15.2653L12.205 15.9612C13.0968 16.3196 14.0493 16.5025 15.0104 16.5L15.0084 15.75ZM12.4847 15.2653L11.9544 14.735L10.7197 15.9697L11.25 16.5L11.7803 17.0303L13.015 15.7956L12.4847 15.2653ZM11.25 16.5V15.75H9V16.5V17.25H11.25V16.5ZM9 16.5H8.25V18.75H9H9.75V16.5H9ZM9 18.75V18H6.75V18.75V19.5H9V18.75ZM6.75 18.75H6V21H6.75H7.5V18.75H6.75ZM6.75 21V20.25H3.75V21V21.75H6.75V21ZM3.75 21V20.25H3.75L3.21967 20.7803L2.68934 21.3107C2.97065 21.592 3.35218 21.75 3.75 21.75V21ZM3.21967 20.7803L3.75 20.25H3.75H3H2.25C2.25 20.6478 2.40804 21.0294 2.68934 21.3107L3.21967 20.7803ZM3 20.25H3.75V17.5603H3H2.25V20.25H3ZM3 17.5603L3.75 17.5607V17.5607L3.21938 17.0306L2.68875 16.5006C2.40798 16.7817 2.25018 17.1627 2.25 17.56L3 17.5603ZM3.21938 17.0306L3.74971 17.561L9.26502 12.0456L8.73469 11.5153L8.20436 10.985L2.68904 16.5003L3.21938 17.0306ZM17.25 7.125H16.5C16.5 6.91789 16.6679 6.75 16.875 6.75V7.5V8.25C17.4963 8.25 18 7.74632 18 7.125H17.25ZM16.875 7.5V6.75C17.0821 6.75 17.25 6.91789 17.25 7.125H16.5H15.75C15.75 7.74632 16.2537 8.25 16.875 8.25V7.5ZM16.5 7.125H17.25C17.25 7.33211 17.0821 7.5 16.875 7.5V6.75V6C16.2537 6 15.75 6.50368 15.75 7.125H16.5ZM16.875 6.75V7.5C16.6679 7.5 16.5 7.33211 16.5 7.125H17.25H18C18 6.50368 17.4963 6 16.875 6V6.75Z" fill="black"/>
</svg>
