<svg viewBox="0 0 24 24" fill="none" xmlns="http://www.w3.org/2000/svg" width="24" height="24">
<path fill-rule="evenodd" clip-rule="evenodd" d="M9.229 3.869L9.251 3.839C9.244 3.849 9.236 3.86 9.229 3.869ZM14.772 3.869C14.764 3.86 14.756 3.849 14.749 3.839L14.772 3.869Z" fill="black"/>
<path d="M13.836 10.099C13.977 10.099 14.116 10.131 14.242 10.193L14.363 10.264 14.472 10.353C14.539 10.418 14.596 10.492 14.641 10.574L14.7 10.701 15.425 12.671 17.398 13.399C17.53 13.448 17.65 13.526 17.747 13.627L17.835 13.736 17.906 13.857C17.968 13.983 18 14.121 18 14.263 18 14.451 17.942 14.634 17.835 14.789 17.727 14.943 17.575 15.061 17.399 15.126L15.427 15.853 14.7 17.824C14.635 18 14.517 18.153 14.363 18.261 14.208 18.369 14.025 18.426 13.836 18.426 13.648 18.426 13.465 18.369 13.31 18.261 13.156 18.153 13.038 18.002 12.973 17.825L12.245 15.852 10.275 15.126C10.098 15.061 9.945 14.943 9.838 14.789 9.73 14.634 9.673 14.451 9.673 14.263 9.673 14.074 9.73 13.891 9.838 13.736L9.927 13.627C10.023 13.526 10.143 13.448 10.275 13.399L12.245 12.671 12.973 10.701 13.031 10.574C13.099 10.451 13.194 10.345 13.31 10.264L13.431 10.193C13.556 10.131 13.695 10.099 13.836 10.099ZM13.276 13.347C13.215 13.512 13.086 13.642 12.921 13.702L11.4 14.263 12.921 14.823 13.037 14.881C13.146 14.951 13.231 15.055 13.276 15.179L13.836 16.698 14.397 15.179 14.455 15.062C14.525 14.953 14.629 14.868 14.753 14.823L16.272 14.263 14.753 13.702C14.588 13.642 14.457 13.512 14.397 13.347L13.836 11.826 13.276 13.347Z" fill="black"/>
<path d="M10.268 8.887C10.599 8.888 10.868 9.156 10.868 9.487V10.099H11.48C11.811 10.099 12.08 10.368 12.08 10.699 12.08 11.03 11.811 11.299 11.48 11.299H10.868V11.911C10.868 12.242 10.599 12.51 10.268 12.511 9.937 12.511 9.668 12.242 9.668 11.911V11.299H9.056C8.725 11.299 8.456 11.03 8.456 10.699 8.456 10.368 8.725 10.099 9.056 10.099H9.668V9.487C9.668 9.156 9.937 8.887 10.268 8.887Z" fill="black"/>
<path d="M8.472 2.895H4.71C4.336 2.895 3.977 3.043 3.713 3.307 3.448 3.572 3.3 3.931 3.3 4.305V21.314C3.3 21.688 3.448 22.047 3.713 22.312 3.977 22.576 4.336 22.725 4.71 22.725H19.29C19.664 22.725 20.023 22.576 20.287 22.312 20.552 22.047 20.7 21.688 20.7 21.314V4.305C20.7 3.931 20.552 3.572 20.287 3.307 20.023 3.043 19.664 2.895 19.29 2.895H15.528C15.452 2.806 15.372 2.72 15.288 2.636 14.416 1.764 13.233 1.275 12 1.275 10.767 1.275 9.584 1.764 8.712 2.636 8.628 2.72 8.548 2.806 8.472 2.895ZM9.229 3.869L9.251 3.839C9.345 3.715 9.449 3.596 9.56 3.485 10.207 2.838 11.085 2.475 12 2.475 12.915 2.475 13.793 2.838 14.44 3.485 14.551 3.596 14.655 3.715 14.749 3.839L14.772 3.869C15.21 4.46 15.45 5.18 15.45 5.925V6.134H8.55V5.925C8.55 5.18 8.79 4.46 9.229 3.869ZM7.725 4.095C7.48 4.668 7.35 5.29 7.35 5.925V6.734C7.35 7.066 7.619 7.334 7.95 7.334H16.05C16.381 7.334 16.65 7.066 16.65 6.734V5.925C16.65 5.29 16.52 4.668 16.275 4.095H19.29C19.346 4.095 19.4 4.116 19.439 4.156 19.478 4.195 19.5 4.249 19.5 4.305V21.314C19.5 21.37 19.478 21.424 19.439 21.463 19.4 21.503 19.346 21.525 19.29 21.525H4.71C4.654 21.525 4.6 21.503 4.561 21.463 4.522 21.424 4.5 21.37 4.5 21.314V4.305C4.5 4.249 4.522 4.195 4.561 4.156 4.6 4.116 4.654 4.095 4.71 4.095H7.725Z" fill="black"/>
</svg>