<svg viewBox="0 0 24 24" fill="none" xmlns="http://www.w3.org/2000/svg" width="24" height="24">
<path fill-rule="evenodd" clip-rule="evenodd" d="M9.69042 5.2245L9.70934 5.19928C9.70329 5.20789 9.69699 5.2163 9.69042 5.2245ZM14.3096 5.2245C14.303 5.2163 14.2967 5.20789 14.2907 5.19927L14.3096 5.2245Z" fill="black"/>
<path d="M13.5303 10.4158C13.6478 10.4158 13.7635 10.4426 13.8682 10.4939L13.9688 10.5535L14.0596 10.6277C14.1159 10.6813 14.1635 10.7433 14.2012 10.8113L14.25 10.9177L14.8545 12.5593L16.498 13.1658C16.6084 13.2065 16.7086 13.2718 16.7891 13.3562L16.8623 13.447L16.9219 13.5476C16.9733 13.6523 17 13.7678 17 13.8855C17 14.0423 16.9519 14.1953 16.8623 14.324C16.7727 14.4526 16.6461 14.5509 16.499 14.6052L14.8555 15.2107L14.25 16.8533C14.1957 17.0003 14.0974 17.1279 13.9688 17.2175C13.8401 17.3072 13.6871 17.3552 13.5303 17.3552C13.3735 17.3552 13.2205 17.3072 13.0918 17.2175C12.9632 17.1279 12.8649 17.0013 12.8105 16.8542L12.2041 15.2097L10.5625 14.6052C10.4153 14.5509 10.2879 14.4527 10.1982 14.324C10.1087 14.1953 10.0605 14.0422 10.0605 13.8855C10.0606 13.7287 10.1086 13.5757 10.1982 13.447L10.2725 13.3562C10.3529 13.2719 10.4522 13.2065 10.5625 13.1658L12.2041 12.5593L12.8105 10.9177L12.8594 10.8113C12.9159 10.7092 12.9952 10.6208 13.0918 10.5535L13.1924 10.4939C13.297 10.4426 13.4127 10.4158 13.5303 10.4158ZM13.0635 13.1228C13.0128 13.26 12.9048 13.3681 12.7676 13.4187L11.5 13.8855L12.7676 14.3523L12.8643 14.4011C12.9551 14.4594 13.0255 14.5461 13.0635 14.6492L13.5303 15.9148L13.9971 14.6492L14.0459 14.5515C14.1041 14.4608 14.191 14.3902 14.2939 14.3523L15.5596 13.8855L14.2939 13.4187C14.1566 13.3681 14.0477 13.2601 13.9971 13.1228L13.5303 11.8552L13.0635 13.1228Z" fill="black"/>
<path d="M10.5566 9.40601C10.8326 9.40627 11.0566 9.63003 11.0566 9.90601V10.4158H11.5664C11.8424 10.4159 12.0664 10.6397 12.0664 10.9158C12.0664 11.1918 11.8424 11.4156 11.5664 11.4158H11.0566V11.9255C11.0564 12.2013 10.8324 12.4253 10.5566 12.4255C10.2807 12.4255 10.0569 12.2015 10.0566 11.9255V11.4158H9.54688C9.27073 11.4158 9.04688 11.1919 9.04688 10.9158C9.04688 10.6396 9.27073 10.4158 9.54688 10.4158H10.0566V9.90601C10.0566 9.62986 10.2805 9.40601 10.5566 9.40601Z" fill="black"/>
<path d="M9.06016 4.41235H5.9248C5.61325 4.41241 5.31406 4.53579 5.09375 4.7561C4.87344 4.97641 4.75005 5.2756 4.75 5.58716V19.762C4.75 20.0735 4.87358 20.3727 5.09375 20.593C5.31406 20.8133 5.61325 20.9377 5.9248 20.9377H18.0752C18.3868 20.9377 18.6859 20.8133 18.9062 20.593C19.1264 20.3727 19.25 20.0735 19.25 19.762V5.58716C19.2499 5.2756 19.1266 4.97641 18.9062 4.7561C18.6859 4.53579 18.3868 4.41241 18.0752 4.41235H14.9398C14.8763 4.33833 14.8097 4.26649 14.7402 4.19702C14.0135 3.47032 13.0277 3.06226 12 3.06226C10.9723 3.06226 9.98647 3.47032 9.25977 4.19702C9.19029 4.26649 9.12373 4.33833 9.06016 4.41235ZM9.69042 5.2245L9.70934 5.19928C9.7879 5.0957 9.87383 4.99702 9.9668 4.90405C10.506 4.36489 11.2375 4.06226 12 4.06226C12.7625 4.06226 13.494 4.36489 14.0332 4.90405C14.1262 4.99702 14.2121 5.0957 14.2907 5.19927L14.3096 5.2245C14.6747 5.71696 14.875 6.31686 14.875 6.93726V7.11206H9.125V6.93726C9.125 6.31686 9.32534 5.71696 9.69042 5.2245ZM8.43751 5.41235C8.23324 5.88976 8.125 6.40795 8.125 6.93726V7.61206C8.125 7.8882 8.34886 8.11206 8.625 8.11206H15.375C15.6511 8.11206 15.875 7.8882 15.875 7.61206V6.93726C15.875 6.40795 15.7668 5.88976 15.5625 5.41235H18.0752C18.1215 5.41241 18.1664 5.43036 18.1992 5.46313C18.232 5.49591 18.2499 5.54081 18.25 5.58716V19.762C18.25 19.8082 18.2319 19.8532 18.1992 19.886C18.1664 19.9188 18.1215 19.9377 18.0752 19.9377H5.9248C5.87846 19.9377 5.83355 19.9188 5.80078 19.886C5.76815 19.8532 5.75 19.8082 5.75 19.762V5.58716C5.75005 5.54082 5.76801 5.49591 5.80078 5.46313C5.83355 5.43036 5.87846 5.41241 5.9248 5.41235H8.43751Z" fill="black"/>
</svg>