<svg width="24" height="24" viewBox="0 0 24 24" fill="none" xmlns="http://www.w3.org/2000/svg">
<path d="M12 15.15C8.68629 15.15 6 12.4637 6 9.14999C6 8.45058 6.11967 7.77912 6.33965 7.15497C6.81806 5.79762 7.77088 4.66401 8.999 3.95326C9.88175 3.4424 10.9067 3.14999 12 3.14999C13.0933 3.14999 14.1183 3.4424 15.001 3.95326M12 15.15C15.3137 15.15 18 12.4637 18 9.14999C18 8.45058 17.8803 7.77912 17.6603 7.15497C17.3653 6.31795 16.8899 5.56601 16.2808 4.94585C15.9021 4.56033 15.4718 4.22573 15.001 3.95326M15.001 3.95326L8.999 7.15497M17.6603 7.15497H8.999M8.999 7.15497H6.33965M12 15.15C13.1099 15.15 14.1718 15.3222 15.1649 15.6415M12 15.15C9.74339 15.15 7.68501 15.8622 6 17.074C4.78338 17.9489 3.7614 19.0842 3 20.3999M18.75 15.9V20.4M21 18.15H16.5" stroke="black" stroke-width="1.5" stroke-linecap="round" stroke-linejoin="round"/>
</svg>
