<svg width="24" height="24" viewBox="0 0 24 24" fill="none" xmlns="http://www.w3.org/2000/svg">
<path d="M18.75 3.75H15C14.5858 3.75 14.25 4.08579 14.25 4.5V19.5C14.25 19.9142 14.5858 20.25 15 20.25H18.75C19.1642 20.25 19.5 19.9142 19.5 19.5V4.5C19.5 4.08579 19.1642 3.75 18.75 3.75Z" stroke="black" stroke-width="1.5" stroke-linecap="round" stroke-linejoin="round"/>
<path d="M9 3.75H5.25C4.83579 3.75 4.5 4.08579 4.5 4.5V19.5C4.5 19.9142 4.83579 20.25 5.25 20.25H9C9.41421 20.25 9.75 19.9142 9.75 19.5V4.5C9.75 4.08579 9.41421 3.75 9 3.75Z" stroke="black" stroke-width="1.5" stroke-linecap="round" stroke-linejoin="round"/>
</svg>
