<svg xmlns="http://www.w3.org/2000/svg" width="24" height="24" fill="currentColor" viewBox="0 0 24 24"><path d="M21.912 6.612l-4.525-4.525a1.416 1.416 0 0 0-2.005 0L2.897 14.573a1.416 1.416 0 0 0-0.415 1.002v4.525a1.416 1.416 0 0 0 1.417 1.417H8.424a1.416 1.416 0 0 0 1.002-0.415L21.911 8.616a1.416 1.416 0 0 0 0-2.005zM8.567 20.243a0.204 0.204 0 0 1-0.143 0.06H3.899a0.204 0.204 0 0 1-0.203-0.203v-4.525a0.204 0.204 0 0 1 0.06-0.143l9.053-9.054 4.811 4.811zM21.052 7.758l-2.573 2.573L13.668 5.52l2.573-2.574a0.204 0.204 0 0 1 0.287 0l4.524 4.525a0.204 0.204 0 0 1 0 0.287"/></svg>