<svg width="24" height="24" viewBox="0 0 24 24" fill="none" xmlns="http://www.w3.org/2000/svg">
<path d="M9.04037 14.9883L4.51318 19.5155M2.25244 21.7512H12.2481M21.5483 9.22218C21.6888 9.08154 21.7678 8.89085 21.7678 8.69203C21.7678 8.4932 21.6888 8.30251 21.5483 8.16187L15.8614 2.47218C15.7208 2.33164 15.5301 2.25269 15.3312 2.25269C15.1324 2.25269 14.9417 2.33164 14.8011 2.47218L9.42921 7.85906C9.42921 7.85906 6.82765 6.55874 4.0489 8.80124C3.9665 8.8672 3.89895 8.94981 3.85066 9.04366C3.80238 9.13752 3.77444 9.24051 3.76869 9.3459C3.76294 9.45129 3.7795 9.5567 3.81728 9.65526C3.85507 9.75381 3.91323 9.84327 3.98796 9.91781L14.1036 20.0325C14.1793 20.1077 14.2703 20.1659 14.3703 20.2031C14.4704 20.2403 14.5772 20.2558 14.6837 20.2484C14.7902 20.2411 14.8939 20.2111 14.9879 20.1604C15.0818 20.1097 15.1639 20.0396 15.2286 19.9547C16.0151 18.9084 17.2508 16.7587 16.1764 14.6109L21.5483 9.22218Z" stroke="black" stroke-width="1.5" stroke-linecap="round" stroke-linejoin="round"/>
</svg>
