<svg viewBox="0 0 24 24" fill="none" xmlns="http://www.w3.org/2000/svg" width="24" height="24">
<path d="M1.205 16.444C1.205 16.5 1.227 16.553 1.266 16.592L7.407 22.737C7.447 22.777 7.501 22.798 7.556 22.798 7.612 22.798 7.666 22.777 7.705 22.738L7.704 22.737 13.506 16.92C13.688 16.737 13.966 16.692 14.197 16.806 14.199 16.808 14.205 16.809 14.211 16.812 14.226 16.819 14.25 16.829 14.283 16.843 14.35 16.87 14.454 16.91 14.59 16.951 14.862 17.033 15.257 17.122 15.737 17.144 16.687 17.187 17.991 16.966 19.364 15.858L19.366 15.857C19.389 15.839 19.408 15.815 19.422 15.789 19.435 15.763 19.443 15.734 19.445 15.705 19.446 15.675 19.441 15.646 19.431 15.618 19.426 15.605 19.419 15.592 19.411 15.579L19.383 15.544 8.457 4.62C8.437 4.6 8.412 4.585 8.385 4.574 8.357 4.564 8.327 4.559 8.297 4.562 8.267 4.564 8.238 4.572 8.211 4.586 8.186 4.6 8.166 4.619 8.148 4.641 7.31 5.756 6.19 7.803 7.18 9.783 7.295 10.014 7.251 10.292 7.069 10.475L1.267 16.294 1.266 16.296C1.227 16.335 1.205 16.389 1.205 16.444ZM0.005 16.444C0.005 16.117 0.118 15.801 0.323 15.55L0.417 15.447 5.93 9.918C4.933 7.402 6.37 5.007 7.187 3.919L7.189 3.917C7.311 3.758 7.465 3.625 7.642 3.53 7.818 3.435 8.014 3.378 8.214 3.364 8.414 3.35 8.615 3.379 8.803 3.449 8.991 3.519 9.162 3.629 9.305 3.771L20.231 14.696C20.371 14.836 20.48 15.004 20.551 15.189 20.622 15.374 20.653 15.573 20.643 15.771 20.632 15.969 20.58 16.162 20.489 16.339 20.398 16.515 20.271 16.671 20.116 16.795 18.489 18.107 16.888 18.397 15.683 18.343 15.086 18.316 14.592 18.204 14.243 18.099 14.184 18.081 14.13 18.062 14.079 18.045L8.554 23.585 8.552 23.586C8.288 23.85 7.93 23.998 7.556 23.998 7.182 23.998 6.823 23.85 6.559 23.586L0.417 17.44C0.153 17.176 0.005 16.818 0.005 16.444Z" fill="black"/>
<path d="M14.784 10.068C14.55 10.302 14.17 10.302 13.936 10.068 13.701 9.834 13.701 9.454 13.936 9.22L18.825 4.331C19.059 4.096 19.439 4.096 19.673 4.331 19.907 4.565 19.907 4.945 19.673 5.179L14.784 10.068Z" fill="black"/>
<path d="M23.406 0.005C23.737 0.005 24.006 0.274 24.006 0.605 24.006 0.937 23.737 1.205 23.406 1.205L12.6 1.205C12.269 1.205 12 0.937 12 0.605 12 0.274 12.269 0.005 12.6 0.005L23.406 0.005Z" fill="black"/>
</svg>