<svg viewBox="0 0 24 24" fill="none" xmlns="http://www.w3.org/2000/svg" width="24" height="24">
<path d="M22.801 7.559C22.801 7.503 22.779 7.45 22.74 7.411L16.598 1.266C16.559 1.226 16.505 1.205 16.45 1.205 16.394 1.205 16.34 1.226 16.301 1.264L16.302 1.266 10.5 7.083C10.318 7.266 10.04 7.311 9.809 7.196 9.806 7.195 9.801 7.194 9.795 7.191 9.78 7.184 9.756 7.174 9.723 7.16 9.656 7.133 9.552 7.093 9.416 7.052 9.144 6.97 8.749 6.881 8.269 6.859 7.319 6.816 6.015 7.037 4.642 8.145L4.639 8.146C4.616 8.164 4.598 8.187 4.584 8.214 4.571 8.24 4.563 8.269 4.561 8.298 4.559 8.328 4.564 8.357 4.575 8.385 4.58 8.398 4.587 8.411 4.595 8.423L4.623 8.459 15.548 19.383C15.569 19.403 15.594 19.418 15.621 19.428 15.649 19.439 15.679 19.443 15.709 19.441 15.739 19.439 15.768 19.431 15.795 19.417 15.819 19.403 15.84 19.384 15.858 19.362 16.696 18.247 17.816 16.199 16.826 14.22 16.711 13.989 16.755 13.711 16.937 13.528L22.739 7.709 22.74 7.707C22.779 7.668 22.801 7.614 22.801 7.559ZM24.001 7.559C24.001 7.886 23.888 8.202 23.682 8.453L23.589 8.556 18.076 14.085C19.073 16.601 17.636 18.996 16.819 20.084L16.816 20.086C16.695 20.245 16.54 20.377 16.364 20.473 16.188 20.568 15.992 20.625 15.792 20.639 15.592 20.653 15.391 20.623 15.203 20.553 15.015 20.484 14.844 20.374 14.701 20.232L3.775 9.307C3.634 9.167 3.526 8.999 3.455 8.814 3.384 8.629 3.352 8.43 3.363 8.232 3.374 8.034 3.426 7.84 3.517 7.664 3.608 7.488 3.735 7.332 3.889 7.208 5.517 5.896 7.118 5.606 8.323 5.66 8.92 5.687 9.414 5.799 9.763 5.904 9.822 5.922 9.876 5.941 9.927 5.958L15.452 0.418 15.453 0.417C15.718 0.153 16.076 0.005 16.45 0.005 16.823 0.005 17.182 0.153 17.447 0.417L23.589 6.563C23.853 6.827 24.001 7.185 24.001 7.559Z" fill="black"/>
<path d="M9.231 13.935C9.465 13.701 9.845 13.701 10.08 13.935 10.314 14.169 10.314 14.549 10.08 14.783L5.191 19.672C4.956 19.907 4.576 19.907 4.342 19.672 4.108 19.438 4.108 19.058 4.342 18.824L9.231 13.935Z" fill="black"/>
<path d="M11.395 22.795C11.727 22.795 11.995 23.064 11.995 23.395 11.995 23.727 11.727 23.995 11.395 23.995H0.6C0.269 23.995 0 23.727 0 23.395 0 23.064 0.269 22.795 0.6 22.795H11.395Z" fill="black"/>
</svg>