<svg xmlns="http://www.w3.org/2000/svg" width="24" height="24" fill="currentColor" viewBox="0 0 24 24"><path d="M22.723 7.422l-6.145-6.145a1.416 1.416 0 0 0-2.005 0L9.056 6.812c-0.964-0.329-3.443-0.845-6.045 1.257a1.416 1.416 0 0 0-0.114 2.108l5.033 5.033-4.461 4.456a0.607 0.607 0 1 0 0.859 0.858l4.461-4.461 5.033 5.038a1.416 1.416 0 0 0 1.002 0.416h0.1a1.416 1.416 0 0 0 1.032-0.56c1.997-2.653 1.736-4.782 1.262-6.004l5.504-5.523a1.416 1.416 0 0 0-0.001-2.007z m-0.859 1.145l-5.798 5.817a0.612 0.612 0 0 0-0.113 0.701c1.007 2.012-0.173 4.082-0.966 5.136a0.204 0.204 0 0 1-0.304 0.021L3.756 9.318a0.204 0.204 0 0 1 0.018-0.304C5.04 7.993 6.254 7.722 7.186 7.722a4.32 4.32 0 0 1 1.746 0.346 0.612 0.612 0 0 0 0.702-0.118l5.797-5.813a0.204 0.204 0 0 1 0.287 0l6.145 6.144a0.204 0.204 0 0 1 0 0.287z"/></svg>