<svg width="24" height="24" viewBox="0 0 24 24" fill="none" xmlns="http://www.w3.org/2000/svg">
<path d="M12 8.25098L9 21.001M6.25313 14.251C5.6785 13.2547 5.34072 12.1396 5.26589 10.9919C5.19106 9.84415 5.3812 8.69461 5.82159 7.63212C6.26199 6.56963 6.94084 5.62267 7.80567 4.86444C8.67049 4.10622 9.69812 3.55705 10.8091 3.2594C11.92 2.96176 13.0846 2.92361 14.2126 3.14791C15.3407 3.3722 16.402 3.85294 17.3146 4.55294C18.2272 5.25293 18.9666 6.15344 19.4756 7.18483C19.9846 8.21621 20.2496 9.35084 20.25 10.501C20.25 14.6429 17.25 17.251 14.25 17.251C11.25 17.251 10.3472 15.2757 10.3472 15.2757" stroke="black" stroke-width="1.5" stroke-linecap="round" stroke-linejoin="round"/>
</svg>
