<svg xmlns="http://www.w3.org/2000/svg" width="24" height="24" fill="currentColor" viewBox="0 0 24 24"><path d="M21.517 10.38c0 2.232-0.78 4.272-2.195 5.744-1.316 1.369-3.1 2.154-4.892 2.154-1.967 0-3.194-0.716-3.911-1.381l-1.167 4.961a0.607 0.607 0 0 1-0.592 0.47 0.6 0.6 0 0 1-0.139-0.016 0.607 0.607 0 0 1-0.453-0.73l3.24-13.77a0.607 0.607 0 1 1 1.184 0.277l-1.731 7.354c0.283 0.438 1.261 1.62 3.569 1.62 2.887 0 5.873-2.5 5.873-6.683a7.493 7.493 0 1 0-13.983 3.746 0.607 0.607 0 1 1-1.052 0.608 8.707 8.707 0 1 1 16.249-4.354"/></svg>