<svg xmlns="http://www.w3.org/2000/svg" width="24" height="24" fill="currentColor" viewBox="0 0 24 24"><path d="M22.801 12.266l-7.764-3.882V3.9a3.038 3.038 0 0 0-6.075 0v4.484l-7.764 3.882a0.612 0.612 0 0 0-0.336 0.544v3.24a0.607 0.607 0 0 0 0.727 0.595l7.373-1.475v2.247l-1.443 1.442a0.6 0.6 0 0 0-0.179 0.43v3.24a0.607 0.607 0 0 0 0.833 0.564l3.825-1.53 3.824 1.53a0.607 0.607 0 0 0 0.833-0.564v-3.24a0.6 0.6 0 0 0-0.179-0.43l-1.441-1.442v-2.247l7.373 1.475a0.607 0.607 0 0 0 0.727-0.595v-3.24a0.612 0.612 0 0 0-0.336-0.544z m-0.878 3.042l-7.373-1.474a0.607 0.607 0 0 0-0.727 0.595v3.24a0.6 0.6 0 0 0 0.179 0.429l1.441 1.443v2.09l-3.217-1.286a0.6 0.6 0 0 0-0.452 0l-3.217 1.286v-2.09l1.441-1.443a0.6 0.6 0 0 0 0.179-0.429v-3.24a0.607 0.607 0 0 0-0.727-0.595l-7.373 1.474v-2.126l7.764-3.882a0.612 0.612 0 0 0 0.336-0.541v-4.86a1.823 1.823 0 0 1 3.645 0v4.86a0.612 0.612 0 0 0 0.336 0.543l7.764 3.882z"/></svg>