<svg xmlns="http://www.w3.org/2000/svg" width="24" height="24" fill="currentColor" viewBox="0 0 24 24"><path d="M22.465 10.805L7.877 1.882a1.416 1.416 0 0 0-1.435-0.028 1.392 1.392 0 0 0-0.719 1.223v17.846a1.392 1.392 0 0 0 0.719 1.223 1.416 1.416 0 0 0 1.435-0.028l14.588-8.923a1.399 1.399 0 0 0 0-2.391z m-0.633 1.355L7.242 21.083a0.204 0.204 0 0 1-0.209 0 0.18 0.18 0 0 1-0.101-0.163V3.077a0.18 0.18 0 0 1 0.101-0.163 0.24 0.24 0 0 1 0.107-0.027 0.24 0.24 0 0 1 0.101 0.031l14.589 8.922a0.185 0.185 0 0 1 0 0.318z"/></svg>