<svg width="24" height="24" viewBox="0 0 24 24" fill="none" xmlns="http://www.w3.org/2000/svg">
<path d="M15.2201 12.9709C15.1335 12.8846 15.0694 12.7783 15.0332 12.6615C14.9971 12.5446 14.9901 12.4207 15.0129 12.3005C15.0356 12.1804 15.0874 12.0676 15.1637 11.972C15.24 11.8764 15.3385 11.801 15.4507 11.7522L19.8016 10.0816C19.9383 10.0195 20.0533 9.91779 20.1315 9.78966C20.2098 9.66153 20.2478 9.51286 20.2406 9.3629C20.2334 9.21293 20.1814 9.06857 20.0913 8.94849C20.0012 8.82841 19.8771 8.73815 19.7351 8.68938L4.72852 3.78907C4.59821 3.74895 4.45943 3.7451 4.3271 3.77796C4.19477 3.81081 4.0739 3.87912 3.97748 3.97553C3.88107 4.07194 3.81276 4.19281 3.77991 4.32514C3.74706 4.45748 3.7509 4.59626 3.79102 4.72657L8.68852 19.7359C8.73729 19.8779 8.82755 20.002 8.94763 20.0922C9.06771 20.1823 9.21207 20.2343 9.36204 20.2415C9.51201 20.2486 9.66067 20.2106 9.7888 20.1324C9.91693 20.0541 10.0186 19.9392 10.0807 19.8025L11.7513 15.4516C11.8001 15.3394 11.8756 15.2409 11.9711 15.1646C12.0667 15.0882 12.1795 15.0365 12.2997 15.0137C12.4198 14.991 12.5438 14.998 12.6606 15.0341C12.7775 15.0702 12.8837 15.1344 12.9701 15.2209L17.7804 20.0313C17.921 20.1718 18.1117 20.2508 18.3106 20.2508C18.5094 20.2508 18.7001 20.1718 18.8407 20.0313L20.0304 18.8444C20.1709 18.7037 20.2499 18.5131 20.2499 18.3142C20.2499 18.1154 20.1709 17.9247 20.0304 17.7841L15.2201 12.9709Z" stroke="black" stroke-width="1.5" stroke-linecap="round" stroke-linejoin="round"/>
</svg>
