<svg xmlns="http://www.w3.org/2000/svg" width="24" height="24" fill="currentColor" viewBox="0 0 24 24"><path d="M15.907 12.618a0.192 0.192 0 0 1-0.055-0.181 0.204 0.204 0 0 1 0.109-0.144l4.683-1.798 0.024-0.009a1.417 1.417 0 0 0-0.125-2.636L4.333 2.555a1.412 1.412 0 0 0-1.781 1.781L7.848 20.545a1.404 1.404 0 0 0 1.276 0.972h0.069a1.404 1.404 0 0 0 1.287-0.847l0.009-0.024 1.798-4.682a0.204 0.204 0 0 1 0.325-0.054l5.195 5.194a1.416 1.416 0 0 0 2.005 0l1.285-1.285a1.416 1.416 0 0 0 0-2.005z m4.336 6.341l-1.284 1.284a0.204 0.204 0 0 1-0.287 0l-5.195-5.195a1.416 1.416 0 0 0-2.303 0.437l-0.009 0.024-1.798 4.682a0.203 0.203 0 0 1-0.366-0.026L3.708 3.956a0.192 0.192 0 0 1 0.048-0.202 0.192 0.192 0 0 1 0.137-0.058 0.24 0.24 0 0 1 0.065 0.01l16.208 5.293a0.203 0.203 0 0 1 0.026 0.366l-4.682 1.797-0.024 0.01a1.416 1.416 0 0 0-0.437 2.303l5.195 5.195a0.204 0.204 0 0 1 0 0.286z"/></svg>