<svg viewBox="0 0 24 24" fill="none" xmlns="http://www.w3.org/2000/svg" width="24" height="24">
<path d="M20.31 3.9C20.309 3.784 20.216 3.69 20.1 3.69H3.9C3.784 3.69 3.69 3.784 3.69 3.9V20.1C3.69 20.216 3.784 20.31 3.9 20.31H20.1C20.216 20.31 20.31 20.216 20.31 20.1V3.9ZM21.51 20.1C21.51 20.879 20.878 21.51 20.1 21.51H3.9C3.121 21.51 2.49 20.879 2.49 20.1V3.9C2.49 3.121 3.121 2.49 3.9 2.49H20.1C20.878 2.49 21.509 3.121 21.51 3.9V20.1Z" fill="black"/>
<path d="M15.3 19.2C14.803 19.2 14.4 18.797 14.4 18.3V5.7C14.4 5.203 14.803 4.8 15.3 4.8H18.3C18.797 4.8 19.2 5.203 19.2 5.7V18.3C19.2 18.797 18.797 19.2 18.3 19.2H15.3Z" fill="black"/>
</svg>