<svg width="24" height="24" viewBox="0 0 24 24" fill="none" xmlns="http://www.w3.org/2000/svg">
<path d="M6.75 7.50342C6.75 7.0892 7.08579 6.75342 7.5 6.75342H16.5C16.9142 6.75342 17.25 7.0892 17.25 7.50342V9.00342C17.25 9.41763 16.9142 9.75342 16.5 9.75342H7.5C7.08579 9.75342 6.75 9.41763 6.75 9.00342V7.50342Z" fill="black"/>
<path d="M19.5 3.75H4.5C4.08579 3.75 3.75 4.08579 3.75 4.5V19.5C3.75 19.9142 4.08579 20.25 4.5 20.25H19.5C19.9142 20.25 20.25 19.9142 20.25 19.5V4.5C20.25 4.08579 19.9142 3.75 19.5 3.75Z" stroke="black" stroke-width="1.5" stroke-linecap="round" stroke-linejoin="round"/>
<path d="M6.75 7.50342C6.75 7.0892 7.08579 6.75342 7.5 6.75342H16.5C16.9142 6.75342 17.25 7.0892 17.25 7.50342V9.00342C17.25 9.41763 16.9142 9.75342 16.5 9.75342H7.5C7.08579 9.75342 6.75 9.41763 6.75 9.00342V7.50342Z" stroke="black" stroke-width="1.5" stroke-linecap="round" stroke-linejoin="round"/>
</svg>
