<svg width="24" height="24" viewBox="0 0 24 24" fill="none" xmlns="http://www.w3.org/2000/svg">
<path d="M13.5645 6.74985C13.5645 6.33578 13.9004 6.00008 14.3145 5.99985H17.2549C17.6691 5.99985 18.0049 6.33564 18.0049 6.74985L18.0049 17.2625C18.0049 17.6768 17.6691 18.0125 17.2549 18.0125L14.3145 18.0125C13.9004 18.0123 13.5645 17.6766 13.5645 17.2625L13.5645 6.74985Z" fill="black"/>
<path fill-rule="evenodd" clip-rule="evenodd" d="M3 4.49985C3 3.67142 3.67157 2.99985 4.5 2.99985L19.5 2.99985C20.3284 2.99985 21 3.67142 21 4.49985V19.4998C21 20.3283 20.3284 20.9998 19.5 20.9998H4.5C3.67157 20.9998 3 20.3283 3 19.4998L3 4.49985ZM19.5 19.4998V4.49985L4.5 4.49985L4.5 19.4998H19.5Z" fill="black"/>
</svg>
