<svg width="24" height="24" viewBox="0 0 24 24" fill="none" xmlns="http://www.w3.org/2000/svg">
<path d="M6.75 10.4355C6.33593 10.4355 6.00023 10.0996 6 9.68555V6.74512C6 6.3309 6.33579 5.99512 6.75 5.99512H17.2627C17.6769 5.99512 18.0127 6.3309 18.0127 6.74512V9.68555C18.0125 10.0996 17.6768 10.4355 17.2627 10.4355H6.75Z" fill="black"/>
<path fill-rule="evenodd" clip-rule="evenodd" d="M4.5 21C3.67157 21 3 20.3284 3 19.5V4.5C3 3.67157 3.67157 3 4.5 3H19.5C20.3284 3 21 3.67157 21 4.5V19.5C21 20.3284 20.3284 21 19.5 21H4.5ZM19.5 4.5H4.5V19.5H19.5V4.5Z" fill="black"/>
</svg>
