<svg width="24" height="24" viewBox="0 0 24 24" fill="none" xmlns="http://www.w3.org/2000/svg">
<path d="M18.9246 5.25C18.9245 5.15344 18.8463 5.0752 18.7498 5.0752H5.24976C5.15326 5.0753 5.07506 5.1535 5.07495 5.25V18.75C5.07495 18.8466 5.1532 18.9247 5.24976 18.9248H18.7498C18.8464 18.9248 18.9246 18.8467 18.9246 18.75V5.25ZM19.9246 18.75C19.9246 19.3989 19.3987 19.9248 18.7498 19.9248H5.24976C4.60091 19.9247 4.07495 19.3989 4.07495 18.75V5.25C4.07506 4.60122 4.60098 4.0753 5.24976 4.0752H18.7498C19.3986 4.0752 19.9245 4.60116 19.9246 5.25V18.75Z" fill="black"/>
<path d="M14.75 18C14.3358 18 14 17.6642 14 17.25V6.75C14 6.33579 14.3358 6 14.75 6H17.25C17.6642 6 18 6.33579 18 6.75V17.25C18 17.6642 17.6642 18 17.25 18H14.75Z" fill="black"/>
</svg>
