<svg width="24" height="24" viewBox="0 0 24 24" fill="none" xmlns="http://www.w3.org/2000/svg">
<path d="M17.625 11.25C17.8321 11.25 18 11.0821 18 10.875C18 10.6679 17.8321 10.5 17.625 10.5C17.4179 10.5 17.25 10.6679 17.25 10.875C17.25 11.0821 17.4179 11.25 17.625 11.25Z" fill="black"/>
<path d="M5.25 7.5C5.25 7.91421 5.58579 8.25 6 8.25C6.41421 8.25 6.75 7.91421 6.75 7.5H6H5.25ZM6 3.75V3C5.58579 3 5.25 3.33579 5.25 3.75H6ZM18 3.75H18.75C18.75 3.33579 18.4142 3 18 3V3.75ZM17.25 7.5C17.25 7.91421 17.5858 8.25 18 8.25C18.4142 8.25 18.75 7.91421 18.75 7.5H18H17.25ZM6 14.25V13.5C5.58579 13.5 5.25 13.8358 5.25 14.25H6ZM18 14.25H18.75C18.75 13.8358 18.4142 13.5 18 13.5V14.25ZM18 20.25V21C18.4142 21 18.75 20.6642 18.75 20.25H18ZM6 20.25H5.25C5.25 20.6642 5.58579 21 6 21V20.25ZM6 17.25C6.41421 17.25 6.75 16.9142 6.75 16.5C6.75 16.0858 6.41421 15.75 6 15.75V16.5V17.25ZM2.25 16.5H1.5C1.5 16.9142 1.83579 17.25 2.25 17.25V16.5ZM21.75 16.5V17.25C22.1642 17.25 22.5 16.9142 22.5 16.5H21.75ZM18 15.75C17.5858 15.75 17.25 16.0858 17.25 16.5C17.25 16.9142 17.5858 17.25 18 17.25V16.5V15.75ZM6 7.5H6.75V3.75H6H5.25V7.5H6ZM6 3.75V4.5H18V3.75V3H6V3.75ZM18 3.75H17.25V7.5H18H18.75V3.75H18ZM6 14.25V15H18V14.25V13.5H6V14.25ZM18 14.25H17.25V20.25H18H18.75V14.25H18ZM18 20.25V19.5H6V20.25V21H18V20.25ZM6 20.25H6.75V14.25H6H5.25V20.25H6ZM6 16.5V15.75H2.25V16.5V17.25H6V16.5ZM2.25 16.5H3V9H2.25H1.5V16.5H2.25ZM2.25 9H3C3 8.64086 3.33406 8.25 3.87469 8.25V7.5V6.75C2.62094 6.75 1.5 7.70164 1.5 9H2.25ZM3.87469 7.5V8.25H20.1253V7.5V6.75H3.87469V7.5ZM20.1253 7.5V8.25C20.6659 8.25 21 8.64086 21 9H21.75H22.5C22.5 7.70164 21.3791 6.75 20.1253 6.75V7.5ZM21.75 9H21V16.5H21.75H22.5V9H21.75ZM21.75 16.5V15.75H18V16.5V17.25H21.75V16.5ZM18 10.875H17.25C17.25 10.6679 17.4179 10.5 17.625 10.5V11.25V12C18.2463 12 18.75 11.4963 18.75 10.875H18ZM17.625 11.25V10.5C17.8321 10.5 18 10.6679 18 10.875H17.25H16.5C16.5 11.4963 17.0037 12 17.625 12V11.25ZM17.25 10.875H18C18 11.0821 17.8321 11.25 17.625 11.25V10.5V9.75C17.0037 9.75 16.5 10.2537 16.5 10.875H17.25ZM17.625 10.5V11.25C17.4179 11.25 17.25 11.0821 17.25 10.875H18H18.75C18.75 10.2537 18.2463 9.75 17.625 9.75V10.5Z" fill="black"/>
</svg>
