<svg xmlns="http://www.w3.org/2000/svg" width="24" height="24" fill="currentColor" viewBox="0 0 24 24"><path d="M20.776 6.533h-1.689V3.09a0.607 0.607 0 0 0-0.607-0.607H5.52a0.607 0.607 0 0 0-0.607 0.607v3.443H3.224c-1.302 0-2.362 1-2.361 2.227v8.1a0.607 0.607 0 0 0 0.607 0.607h3.443v3.443a0.607 0.607 0 0 0 0.607 0.607h12.96a0.607 0.607 0 0 0 0.607-0.607v-3.443h3.443a0.607 0.607 0 0 0 0.607-0.607V8.76c0-1.228-1.06-2.227-2.361-2.227M6.127 3.697h11.746v2.836H6.127z m11.746 16.606H6.127v-5.265h11.746z m4.05-4.05h-2.836v-1.823a0.607 0.607 0 0 0-0.607-0.607H5.52a0.607 0.607 0 0 0-0.607 0.607v1.823H2.077V8.76c0-0.558 0.515-1.013 1.147-1.013h17.552c0.632 0 1.147 0.455 1.147 1.013z m-2.836-5.467a1.013 1.013 0 1 1-1.013-1.013 1.013 1.013 0 0 1 1.013 1.013"/></svg>