<svg width="24" height="24" viewBox="0 0 24 24" fill="none" xmlns="http://www.w3.org/2000/svg">
<path d="M6.0006 20.2506C5.80169 20.2506 5.61092 20.1716 5.47027 20.0309C5.32962 19.8903 5.2506 19.6995 5.2506 19.5006V15.4984C4.8505 15.6877 4.40903 15.7728 3.96724 15.7457C3.52545 15.7186 3.09768 15.5802 2.72372 15.3435C2.34975 15.1067 2.04173 14.7792 1.82829 14.3914C1.61485 14.0037 1.50293 13.5682 1.50293 13.1256C1.50293 12.683 1.61485 12.2476 1.82829 11.8598C2.04173 11.472 2.34975 11.1445 2.72372 10.9078C3.09768 10.671 3.52545 10.5326 3.96724 10.5055C4.40903 10.4784 4.8505 10.5635 5.2506 10.7528V6.75061C5.2506 6.5517 5.32962 6.36093 5.47027 6.22028C5.61092 6.07963 5.80169 6.00061 6.0006 6.00061H10.3778C10.1883 5.60051 10.103 5.15898 10.13 4.71709C10.157 4.27519 10.2953 3.8473 10.532 3.4732C10.7687 3.09911 11.0963 2.79097 11.4841 2.57745C11.8719 2.36392 12.3074 2.25195 12.7501 2.25195C13.1928 2.25195 13.6284 2.36392 14.0162 2.57745C14.404 2.79097 14.7315 3.09911 14.9683 3.4732C15.205 3.8473 15.3433 4.27519 15.3703 4.71709C15.3972 5.15898 15.312 5.60051 15.1225 6.00061H19.5006C19.6995 6.00061 19.8903 6.07963 20.0309 6.22028C20.1716 6.36093 20.2506 6.5517 20.2506 6.75061V10.7528C19.8505 10.5635 19.409 10.4784 18.9672 10.5055C18.5254 10.5326 18.0977 10.671 17.7237 10.9078C17.3498 11.1445 17.0417 11.472 16.8283 11.8598C16.6149 12.2476 16.5029 12.683 16.5029 13.1256C16.5029 13.5682 16.6149 14.0037 16.8283 14.3914C17.0417 14.7792 17.3498 15.1067 17.7237 15.3435C18.0977 15.5802 18.5254 15.7186 18.9672 15.7457C19.409 15.7728 19.8505 15.6877 20.2506 15.4984V19.5006C20.2506 19.6995 20.1716 19.8903 20.0309 20.0309C19.8903 20.1716 19.6995 20.2506 19.5006 20.2506H6.0006Z" stroke="black" stroke-width="1.5" stroke-linecap="round" stroke-linejoin="round"/>
</svg>
