<svg viewBox="0 0 24 24" fill="none" xmlns="http://www.w3.org/2000/svg" width="24" height="24">
<path d="M21.12 6.328V2.878H17.67C17.339 2.878 17.07 2.609 17.07 2.278 17.07 1.947 17.339 1.678 17.67 1.678H21.72C22.051 1.678 22.32 1.947 22.32 2.278V6.328C22.32 6.659 22.051 6.928 21.72 6.928 21.389 6.928 21.12 6.659 21.12 6.328Z" fill="black"/>
<path d="M1.68 17.671C1.68 17.339 1.949 17.071 2.28 17.071 2.611 17.071 2.88 17.339 2.88 17.671V21.121H6.33C6.661 21.121 6.93 21.389 6.93 21.721 6.93 22.052 6.661 22.321 6.33 22.321H2.28C1.949 22.321 1.68 22.052 1.68 21.721V17.671Z" fill="black"/>
<path d="M21.12 17.671C21.12 17.339 21.389 17.071 21.72 17.071 22.051 17.071 22.32 17.339 22.32 17.671V21.721C22.32 22.052 22.051 22.321 21.72 22.321H17.67C17.339 22.321 17.07 22.052 17.07 21.721 17.07 21.389 17.339 21.121 17.67 21.121H21.12V17.671Z" fill="black"/>
<path d="M1.68 6.328V2.278C1.68 1.947 1.949 1.678 2.28 1.678H6.33C6.661 1.678 6.93 1.947 6.93 2.278 6.93 2.609 6.661 2.878 6.33 2.878H2.88V6.328C2.88 6.659 2.611 6.928 2.28 6.928 1.949 6.928 1.68 6.659 1.68 6.328Z" fill="black"/>
<path d="M9.883 5.463C9.883 5.425 9.852 5.393 9.814 5.393H5.454C5.416 5.393 5.384 5.425 5.384 5.463V9.823C5.384 9.861 5.416 9.892 5.454 9.892H9.814C9.852 9.892 9.883 9.861 9.883 9.823V5.463ZM11.197 9.823C11.196 10.586 10.578 11.205 9.814 11.205H5.454C4.691 11.205 4.072 10.586 4.072 9.823V5.463C4.072 4.699 4.691 4.08 5.454 4.08H9.814C10.578 4.081 11.197 4.699 11.197 5.463V9.823Z" fill="black"/>
<path d="M9.883 14.181C9.883 14.142 9.852 14.111 9.814 14.111H5.454C5.416 14.111 5.384 14.142 5.384 14.181V18.54C5.384 18.579 5.416 18.609 5.454 18.609H9.814C9.852 18.609 9.883 18.578 9.883 18.54V14.181ZM11.197 18.54C11.196 19.304 10.578 19.923 9.814 19.923H5.454C4.691 19.923 4.072 19.304 4.072 18.54V14.181C4.072 13.417 4.691 12.798 5.454 12.798H9.814C10.578 12.798 11.197 13.417 11.197 14.181V18.54Z" fill="black"/>
<path d="M18.601 5.463C18.601 5.425 18.57 5.393 18.532 5.393H14.173C14.134 5.393 14.102 5.425 14.102 5.463V9.823C14.103 9.861 14.134 9.892 14.173 9.892H18.532C18.57 9.892 18.601 9.861 18.601 9.823V5.463ZM19.915 9.823C19.915 10.586 19.296 11.205 18.532 11.205H14.173C13.409 11.205 12.79 10.586 12.79 9.823V5.463C12.79 4.699 13.409 4.08 14.173 4.08H18.532C19.296 4.081 19.915 4.699 19.915 5.463V9.823Z" fill="black"/>
<path d="M12.79 16.361V13.454C12.79 13.092 13.083 12.798 13.446 12.798 13.809 12.798 14.102 13.092 14.102 13.454V16.361C14.102 16.723 13.809 17.017 13.446 17.017 13.083 17.017 12.79 16.723 12.79 16.361Z" fill="black"/>
<path d="M15.695 13.454C15.695 13.092 15.99 12.798 16.352 12.798 16.715 12.798 17.009 13.092 17.009 13.454V19.267C17.008 19.629 16.715 19.923 16.352 19.923H13.446C13.083 19.923 12.79 19.629 12.79 19.267 12.79 18.904 13.083 18.609 13.446 18.609H15.695V13.454Z" fill="black"/>
<path d="M19.258 14.252C19.621 14.253 19.914 14.546 19.914 14.909 19.914 15.271 19.621 15.565 19.258 15.565H16.352C15.989 15.565 15.696 15.271 15.696 14.909 15.696 14.546 15.989 14.252 16.352 14.252H19.258Z" fill="black"/>
<path d="M18.602 19.264V17.814C18.602 17.451 18.895 17.157 19.258 17.157 19.621 17.157 19.914 17.451 19.914 17.814V19.264C19.914 19.627 19.621 19.921 19.258 19.921 18.895 19.921 18.602 19.627 18.602 19.264Z" fill="black"/>
</svg>