<svg width="24" height="24" viewBox="0 0 24 24" fill="none" xmlns="http://www.w3.org/2000/svg">
<path d="M17.25 3H21V6.75M6.75 21H3V17.25M21 17.25V21H17.25M3 6.75V3H6.75M13.3423 17.9988H14.8524V13.2588M14.8524 14.3696H17.2224M17.8463 16.7407V17.925M6.55884 6.00146H9.93384C10.2445 6.00146 10.4963 6.2533 10.4963 6.56396V9.93896C10.4963 10.2496 10.2445 10.5015 9.93384 10.5015H6.55884C6.24818 10.5015 5.99634 10.2496 5.99634 9.93896V6.56396C5.99634 6.2533 6.24818 6.00146 6.55884 6.00146ZM6.55884 13.499H9.93384C10.2445 13.499 10.4963 13.7509 10.4963 14.0615V17.4365C10.4963 17.7472 10.2445 17.999 9.93384 17.999H6.55884C6.24818 17.999 5.99634 17.7472 5.99634 17.4365V14.0615C5.99634 13.7509 6.24818 13.499 6.55884 13.499ZM13.9088 6.00098H17.2838C17.5945 6.00098 17.8463 6.25282 17.8463 6.56348V9.93848C17.8463 10.2491 17.5945 10.501 17.2838 10.501H13.9088C13.5982 10.501 13.3463 10.2491 13.3463 9.93848V6.56348C13.3463 6.25282 13.5982 6.00098 13.9088 6.00098Z" stroke="black" stroke-width="1.5" stroke-linecap="round" stroke-linejoin="round"/>
</svg>
