<svg width="24" height="24" viewBox="0 0 24 24" fill="none" xmlns="http://www.w3.org/2000/svg">
<path d="M11.25 13.5C11.25 13.9142 11.5858 14.25 12 14.25C12.4142 14.25 12.75 13.9142 12.75 13.5H12H11.25ZM12 12.75V12C11.5858 12 11.25 12.3358 11.25 12.75H12ZM8.25 10.5C8.25 10.9142 8.58579 11.25 9 11.25C9.41421 11.25 9.75 10.9142 9.75 10.5H9H8.25ZM12.375 16.875H11.625C11.625 16.6679 11.7929 16.5 12 16.5V17.25V18C12.6213 18 13.125 17.4963 13.125 16.875H12.375ZM12 17.25V16.5C12.2071 16.5 12.375 16.6679 12.375 16.875H11.625H10.875C10.875 17.4963 11.3787 18 12 18V17.25ZM11.625 16.875H12.375C12.375 17.0821 12.2071 17.25 12 17.25V16.5V15.75C11.3787 15.75 10.875 16.2537 10.875 16.875H11.625ZM12 16.5V17.25C11.7929 17.25 11.625 17.0821 11.625 16.875H12.375H13.125C13.125 16.2537 12.6213 15.75 12 15.75V16.5ZM12 13.5H12.75V12.75H12H11.25V13.5H12ZM12 12.75V13.5C13.9736 13.5 15.75 12.0795 15.75 10.125H15H14.25C14.25 11.0692 13.3395 12 12 12V12.75ZM15 10.125H15.75C15.75 8.17049 13.9736 6.75 12 6.75V7.5V8.25C13.3395 8.25 14.25 9.18076 14.25 10.125H15ZM12 7.5V6.75C10.0264 6.75 8.25 8.17049 8.25 10.125H9H9.75C9.75 9.18076 10.6605 8.25 12 8.25V7.5ZM9 10.125H8.25V10.5H9H9.75V10.125H9ZM21 12H20.25C20.25 16.5563 16.5563 20.25 12 20.25V21V21.75C17.3848 21.75 21.75 17.3848 21.75 12H21ZM12 21V20.25C7.44365 20.25 3.75 16.5563 3.75 12H3H2.25C2.25 17.3848 6.61522 21.75 12 21.75V21ZM3 12H3.75C3.75 7.44365 7.44365 3.75 12 3.75V3V2.25C6.61522 2.25 2.25 6.61522 2.25 12H3ZM12 3V3.75C16.5563 3.75 20.25 7.44365 20.25 12H21H21.75C21.75 6.61522 17.3848 2.25 12 2.25V3Z" fill="black"/>
</svg>
