<svg xmlns="http://www.w3.org/2000/svg" width="24" height="24" fill="currentColor" viewBox="0 0 24 24"><path d="M13.013 17.266a1.013 1.013 0 1 1-1.013-1.013 1.013 1.013 0 0 1 1.013 1.013M12 6.533c-2.126 0-3.847 1.544-3.847 3.443v0.405a0.607 0.607 0 0 0 1.214 0v-0.405c0-1.228 1.181-2.227 2.633-2.228s2.633 1 2.633 2.228-1.181 2.227-2.633 2.227a0.607 0.607 0 0 0-0.607 0.607v0.81a0.607 0.607 0 0 0 1.214 0v-0.245c1.834-0.262 3.24-1.687 3.24-3.399 0-1.898-1.721-3.443-3.847-3.443M22.327 12A10.327 10.327 0 1 1 12 1.673 10.339 10.339 0 0 1 22.327 12m-1.214 0A9.113 9.113 0 1 0 12 21.113 9.12 9.12 0 0 0 21.113 12"/></svg>