<svg xmlns="http://www.w3.org/2000/svg" width="24" height="24" fill="currentColor" viewBox="0 0 24 24"><path d="M8.557 20.1a0.607 0.607 0 0 1-0.607 0.607h-4.86a2.227 2.227 0 0 1-1.924-3.341l3.717-6.423-1.9 0.506a0.608 0.608 0 0 1-0.314-1.175l3.318-0.888a0.607 0.607 0 0 1 0.747 0.431l0.892 3.317a0.607 0.607 0 0 1-0.43 0.744 0.6 0.6 0 0 1-0.158 0.022 0.607 0.607 0 0 1-0.587-0.45l-0.506-1.904-3.73 6.428a1.013 1.013 0 0 0 0.873 1.519h4.86a0.607 0.607 0 0 1 0.607 0.607z m14.277-2.734l-2.343-4.05a0.607 0.607 0 0 0-1.051 0.608l2.342 4.05a1.013 1.013 0 0 1-0.872 1.519h-7.444l1.394-1.393a0.607 0.607 0 0 0-0.86-0.86l-2.43 2.43a0.607 0.607 0 0 0 0 0.858l2.43 2.43a0.607 0.607 0 0 0 0.86-0.858l-1.394-1.393h7.444a2.227 2.227 0 0 0 1.924-3.341M12.876 2.584l3.718 6.423-1.9-0.506a0.607 0.607 0 0 0-0.314 1.17l3.319 0.89a0.607 0.607 0 0 0 0.743-0.431l0.89-3.319a0.607 0.607 0 1 0-1.172-0.314l-0.512 1.905-3.723-6.426a2.227 2.227 0 0 0-3.847 0L7.728 6.026a0.607 0.607 0 0 0 1.052 0.608l2.345-4.05a1.013 1.013 0 0 1 1.752 0z"/></svg>