<svg width="24" height="24" viewBox="0 0 24 24" fill="none" xmlns="http://www.w3.org/2000/svg">
<path d="M14.2505 17.249L12.0005 19.499L14.2505 21.749M12.0005 19.499H20.2505C20.5137 19.4988 20.7721 19.4292 20.9999 19.2975C21.2278 19.1657 21.4169 18.9763 21.5484 18.7484C21.6798 18.5204 21.749 18.2618 21.749 17.9986C21.7489 17.7355 21.6796 17.4769 21.548 17.249L19.3786 13.499M18.2473 7.04785L17.4232 10.1219L14.3501 9.29785M3.50586 10.9462L6.57805 10.124L7.40305 13.1962M6.57805 10.124L2.45292 17.249C2.32133 17.4769 2.25202 17.7355 2.25195 17.9986C2.25189 18.2618 2.32106 18.5204 2.45253 18.7484C2.584 18.9763 2.77314 19.1657 3.00095 19.2975C3.22877 19.4292 3.48724 19.4988 3.75042 19.499H8.25042M17.423 10.124L13.298 2.99896C13.1663 2.77121 12.9769 2.58212 12.749 2.45066C12.5211 2.3192 12.2627 2.25 11.9996 2.25C11.7364 2.25 11.478 2.3192 11.2501 2.45066C11.0222 2.58212 10.8328 2.77121 10.7011 2.99896L8.53174 6.74896" stroke="black" stroke-width="1.5" stroke-linecap="round" stroke-linejoin="round"/>
</svg>
