<svg width="24" height="24" viewBox="0 0 24 24" fill="none" xmlns="http://www.w3.org/2000/svg">
<path d="M15.7774 2.71589C15.7597 2.80788 15.7505 2.90286 15.7505 3C15.7505 3.82843 16.4221 4.5 17.2505 4.5C18.0789 4.5 18.7505 3.82843 18.7505 3C18.7505 2.17157 18.0789 1.5 17.2505 1.5C16.5192 1.5 15.9101 2.02332 15.7774 2.71589ZM15.7774 2.71589L12.7505 2.25L12.0005 6.75M12.0005 6.75C9.53674 6.75 7.28672 7.38281 5.57015 8.42625C5.37341 8.15635 5.11905 7.93364 4.82553 7.77428C4.53201 7.61491 4.20669 7.5229 3.87318 7.5049C3.53967 7.48691 3.20633 7.54339 2.89737 7.67024C2.5884 7.7971 2.31156 7.99115 2.08691 8.23831C1.86227 8.48547 1.69548 8.77955 1.59863 9.09919C1.50178 9.41883 1.4773 9.75603 1.52698 10.0863C1.57666 10.4166 1.69925 10.7317 1.88585 11.0087C2.07244 11.2857 2.31837 11.5177 2.60578 11.6878C2.37207 12.2635 2.25144 12.8787 2.25047 13.5C2.25047 17.2275 6.61547 20.25 12.0005 20.25C17.3855 20.25 21.7505 17.2275 21.7505 13.5C21.7495 12.8787 21.6289 12.2635 21.3952 11.6878C21.6826 11.5177 21.9285 11.2857 22.1151 11.0087C22.3017 10.7317 22.4243 10.4166 22.474 10.0863C22.5236 9.75603 22.4992 9.41883 22.4023 9.09919C22.3055 8.77955 22.1387 8.48547 21.914 8.23831C21.6894 7.99115 21.4125 7.7971 21.1036 7.67024C20.7946 7.54339 20.4613 7.48691 20.1278 7.5049C19.7942 7.5229 19.4689 7.61491 19.1754 7.77428C18.8819 7.93364 18.6275 8.15635 18.4308 8.42625C16.7142 7.38281 14.4642 6.75 12.0005 6.75ZM15.0005 16.5C14.0772 16.9924 13.0469 17.25 12.0005 17.25C10.9541 17.25 9.92378 16.9924 9.00049 16.5M8.25513 11.2478C8.67054 11.2478 9.00732 11.5846 9.00732 12C9.00732 12.4154 8.67054 12.7522 8.25513 12.7522C7.83969 12.7522 7.50293 12.4154 7.50293 12C7.50293 11.5846 7.83969 11.2478 8.25513 11.2478ZM15.7488 11.2478C16.1642 11.2478 16.501 11.5846 16.501 12C16.501 12.4154 16.1642 12.7522 15.7488 12.7522C15.3333 12.7522 14.9966 12.4154 14.9966 12C14.9966 11.5846 15.3333 11.2478 15.7488 11.2478Z" stroke="black" stroke-width="1.5" stroke-linecap="round" stroke-linejoin="round"/>
</svg>
