<svg xmlns="http://www.w3.org/2000/svg" width="24" height="24" fill="currentColor" viewBox="0 0 24 24"><path d="M23.947 9.57a3.037 3.037 0 0 0-5.127-2.203c-1.758-0.961-3.884-1.526-6.107-1.626l0.596-3.58 2.142 0.33a2.227 2.227 0 1 0 0.22-1.195l-2.771-0.426a0.607 0.607 0 0 0-0.691 0.499l-0.727 4.363c-2.292 0.074-4.496 0.646-6.304 1.636a3.037 3.037 0 1 0-4.05 4.522 5.76 5.76 0 0 0-0.268 1.731c0 2.153 1.189 4.16 3.347 5.653 2.089 1.447 4.855 2.244 7.792 2.244s5.702-0.797 7.791-2.244c2.158-1.494 3.347-3.502 3.347-5.654a5.76 5.76 0 0 0-0.266-1.732 3.06 3.06 0 0 0 1.076-2.318m-6.277-8.303a1.013 1.013 0 1 1-1.013 1.013 1.013 1.013 0 0 1 1.013-1.013m4.166 9.873a0.607 0.607 0 0 0-0.249 0.76 4.68 4.68 0 0 1 0.335 1.72c0 3.684-4.456 6.683-9.923 6.683S2.076 17.305 2.076 13.62a4.68 4.68 0 0 1 0.334-1.715 0.607 0.607 0 0 0-0.249-0.764 1.823 1.823 0 1 1 2.401-2.643 0.607 0.607 0 0 0 0.789 0.172l0.035-0.02c1.824-1.105 4.171-1.712 6.613-1.713 2.44 0 4.787 0.607 6.611 1.711l0.016 0.011a0.607 0.607 0 0 0 0.81-0.162 1.823 1.823 0 1 1 2.402 2.643z m-6.06 5.434a0.607 0.607 0 0 1-0.252 0.821 7.512 7.512 0 0 1-7.048 0 0.607 0.607 0 0 1 0.568-1.073 6.3 6.3 0 0 0 5.912 0 0.607 0.607 0 0 1 0.82 0.252M7.95 13.416a1.417 1.417 0 1 1 1.417-1.417 1.416 1.416 0 0 1-1.417 1.417m9.517-1.417a1.417 1.417 0 1 1-1.417-1.417 1.416 1.416 0 0 1 1.417 1.417"/></svg>