<svg width="24" height="24" viewBox="0 0 24 24" fill="none" xmlns="http://www.w3.org/2000/svg">
<path d="M12.7505 2.25L12.8646 1.50873C12.4588 1.44627 12.0782 1.72171 12.0107 2.1267L12.7505 2.25ZM15.6636 3.45721C16.073 3.52022 16.4559 3.23942 16.5189 2.83003C16.582 2.42064 16.3012 2.03768 15.8918 1.97467L15.7777 2.71594L15.6636 3.45721ZM5.57015 8.42625L4.96409 8.86804C5.19376 9.18312 5.62655 9.26966 5.95973 9.06713L5.57015 8.42625ZM18.4308 8.42625L18.0412 9.06713C18.3744 9.26966 18.8072 9.18312 19.0368 8.86804L18.4308 8.42625ZM21.3952 11.6878L21.0131 11.0424C20.6936 11.2315 20.5606 11.6259 20.7002 11.9699L21.3952 11.6878ZM21.7505 13.5H22.5005V13.4988L21.7505 13.5ZM2.25047 13.5L1.50047 13.4988V13.5H2.25047ZM2.60578 11.6878L3.30069 11.9699C3.44035 11.6259 3.30732 11.2315 2.98784 11.0424L2.60578 11.6878ZM15.3534 17.1618C15.7189 16.9668 15.8572 16.5125 15.6623 16.1471C15.4673 15.7816 15.013 15.6433 14.6475 15.8382L15.0005 16.5L15.3534 17.1618ZM12.0005 17.25V16.5V17.25ZM9.35343 15.8382C8.98795 15.6433 8.53365 15.7816 8.33872 16.1471C8.1438 16.5125 8.28206 16.9668 8.64755 17.1618L9.00049 16.5L9.35343 15.8382ZM18.7505 3H18.0005C18.0005 3.41421 17.6647 3.75 17.2505 3.75V4.5V5.25C18.4931 5.25 19.5005 4.24264 19.5005 3H18.7505ZM17.2505 4.5V3.75C16.8363 3.75 16.5005 3.41421 16.5005 3H15.7505H15.0005C15.0005 4.24264 16.0078 5.25 17.2505 5.25V4.5ZM15.7505 3H16.5005C16.5005 2.58579 16.8363 2.25 17.2505 2.25V1.5V0.75C16.0078 0.75 15.0005 1.75736 15.0005 3H15.7505ZM17.2505 1.5V2.25C17.6647 2.25 18.0005 2.58579 18.0005 3H18.7505H19.5005C19.5005 1.75736 18.4931 0.75 17.2505 0.75V1.5ZM12.0005 6.75L12.7403 6.8733L13.4903 2.3733L12.7505 2.25L12.0107 2.1267L11.2607 6.6267L12.0005 6.75ZM12.7505 2.25L12.6364 2.99127L15.6636 3.45721L15.7777 2.71594L15.8918 1.97467L12.8646 1.50873L12.7505 2.25ZM5.57015 8.42625L5.95973 9.06713C7.54752 8.10197 9.66021 7.5 12.0005 7.5V6.75V6C9.41326 6 7.02591 6.66365 5.18058 7.78536L5.57015 8.42625ZM12.0005 6.75V7.5C14.3408 7.5 16.4534 8.10197 18.0412 9.06713L18.4308 8.42625L18.8204 7.78536C16.975 6.66366 14.5877 6 12.0005 6V6.75ZM18.4308 8.42625L19.0368 8.86804C19.168 8.68811 19.3376 8.53964 19.5333 8.4334L19.1754 7.77428L18.8175 7.11516C18.4262 7.32764 18.087 7.62459 17.8247 7.98445L18.4308 8.42625ZM19.1754 7.77428L19.5333 8.4334C19.7289 8.32715 19.9458 8.26581 20.1682 8.25381L20.1278 7.5049L20.0874 6.75599C19.6427 6.77998 19.2089 6.90267 18.8175 7.11516L19.1754 7.77428ZM20.1278 7.5049L20.1682 8.25381C20.3905 8.24182 20.6127 8.27947 20.8187 8.36404L21.1036 7.67024L21.3884 6.97645C20.9765 6.80731 20.532 6.732 20.0874 6.75599L20.1278 7.5049ZM21.1036 7.67024L20.8187 8.36404C21.0247 8.44861 21.2092 8.57798 21.359 8.74275L21.914 8.23831L22.469 7.73387C22.1695 7.40432 21.8004 7.14559 21.3884 6.97645L21.1036 7.67024ZM21.914 8.23831L21.359 8.74275C21.5088 8.90753 21.62 9.10358 21.6845 9.31667L22.4023 9.09919L23.1201 8.88171C22.9909 8.45552 22.7686 8.06342 22.469 7.73387L21.914 8.23831ZM22.4023 9.09919L21.6845 9.31667C21.7491 9.52977 21.7654 9.75456 21.7323 9.97475L22.474 10.0863L23.2156 10.1979C23.2818 9.75749 23.2492 9.3079 23.1201 8.88171L22.4023 9.09919ZM22.474 10.0863L21.7323 9.97475C21.6992 10.1949 21.6175 10.405 21.4931 10.5897L22.1151 11.0087L22.7371 11.4277C22.9859 11.0583 23.1494 10.6382 23.2156 10.1979L22.474 10.0863ZM22.1151 11.0087L21.4931 10.5897C21.3687 10.7743 21.2047 10.929 21.0131 11.0424L21.3952 11.6878L21.7772 12.3332C22.1604 12.1064 22.4883 11.797 22.7371 11.4277L22.1151 11.0087ZM21.3952 11.6878L20.7002 11.9699C20.8977 12.4563 20.9996 12.9762 21.0005 13.5012L21.7505 13.5L22.5005 13.4988C22.4993 12.7812 22.36 12.0706 22.0901 11.4057L21.3952 11.6878ZM21.7505 13.5H21.0005C21.0005 15.0481 20.0948 16.5298 18.4679 17.6562C16.844 18.7805 14.5597 19.5 12.0005 19.5V20.25V21C14.8262 21 17.417 20.2082 19.3218 18.8894C21.2236 17.5727 22.5005 15.6794 22.5005 13.5H21.7505ZM12.0005 20.25V19.5C9.44123 19.5 7.15698 18.7805 5.53302 17.6562C3.9061 16.5298 3.00047 15.0481 3.00047 13.5H2.25047H1.50047C1.50047 15.6794 2.77733 17.5727 4.67917 18.8894C6.58395 20.2082 9.1747 21 12.0005 21V20.25ZM2.25047 13.5L3.00047 13.5012C3.00129 12.9762 3.10322 12.4563 3.30069 11.9699L2.60578 11.6878L1.91087 11.4057C1.64093 12.0706 1.50159 12.7812 1.50047 13.4988L2.25047 13.5ZM2.60578 11.6878L2.98784 11.0424C2.79623 10.929 2.63228 10.7743 2.50788 10.5897L1.88585 11.0087L1.26381 11.4277C1.51261 11.797 1.84051 12.1064 2.22372 12.3332L2.60578 11.6878ZM1.88585 11.0087L2.50788 10.5897C2.38348 10.405 2.30176 10.1949 2.26864 9.97475L1.52698 10.0863L0.785326 10.1979C0.851566 10.6382 1.01501 11.0583 1.26381 11.4277L1.88585 11.0087ZM1.52698 10.0863L2.26864 9.97475C2.23552 9.75456 2.25184 9.52977 2.3164 9.31667L1.59863 9.09919L0.880851 8.88171C0.751718 9.3079 0.719087 9.75749 0.785326 10.1979L1.52698 10.0863ZM1.59863 9.09919L2.3164 9.31667C2.38097 9.10358 2.49217 8.90753 2.64193 8.74275L2.08691 8.23831L1.5319 7.73387C1.23238 8.06342 1.00998 8.45552 0.880851 8.88171L1.59863 9.09919ZM2.08691 8.23831L2.64193 8.74275C2.79169 8.57798 2.97625 8.44861 3.18223 8.36404L2.89737 7.67024L2.61251 6.97645C2.20055 7.14559 1.83142 7.40432 1.5319 7.73387L2.08691 8.23831ZM2.89737 7.67024L3.18223 8.36404C3.38821 8.27947 3.61043 8.24182 3.83277 8.25381L3.87318 7.5049L3.91358 6.75599C3.46891 6.732 3.02446 6.80731 2.61251 6.97645L2.89737 7.67024ZM3.87318 7.5049L3.83277 8.25381C4.05511 8.26581 4.27199 8.32715 4.46767 8.4334L4.82553 7.77428L5.18339 7.11516C4.79202 6.90267 4.35826 6.77998 3.91358 6.75599L3.87318 7.5049ZM4.82553 7.77428L4.46767 8.4334C4.66335 8.53964 4.83293 8.68811 4.96409 8.86804L5.57015 8.42625L6.17622 7.98445C5.9139 7.62459 5.57475 7.32764 5.18339 7.11516L4.82553 7.77428ZM16.5005 12H15.7505V12.75V13.5C16.5789 13.5 17.2505 12.8284 17.2505 12H16.5005ZM15.7505 12.75V12H15.0005H14.2505C14.2505 12.8284 14.9221 13.5 15.7505 13.5V12.75ZM15.0005 12H15.7505V11.25V10.5C14.9221 10.5 14.2505 11.1716 14.2505 12H15.0005ZM15.7505 11.25V12H16.5005H17.2505C17.2505 11.1716 16.5789 10.5 15.7505 10.5V11.25ZM9.00049 12H8.25049V12.75V13.5C9.07892 13.5 9.75049 12.8284 9.75049 12H9.00049ZM8.25049 12.75V12H7.50049H6.75049C6.75049 12.8284 7.42206 13.5 8.25049 13.5V12.75ZM7.50049 12H8.25049V11.25V10.5C7.42206 10.5 6.75049 11.1716 6.75049 12H7.50049ZM8.25049 11.25V12H9.00049H9.75049C9.75049 11.1716 9.07892 10.5 8.25049 10.5V11.25ZM15.0005 16.5L14.6475 15.8382C13.8329 16.2727 12.9238 16.5 12.0005 16.5V17.25V18C13.17 18 14.3215 17.7121 15.3534 17.1618L15.0005 16.5ZM12.0005 17.25V16.5C11.0772 16.5 10.1681 16.2727 9.35343 15.8382L9.00049 16.5L8.64755 17.1618C9.67946 17.7121 10.831 18 12.0005 18V17.25Z" fill="black"/>
</svg>
