<svg viewBox="0 0 24 24" fill="none" xmlns="http://www.w3.org/2000/svg" width="24" height="24">
<path d="M3.096 12.595C2.765 12.595 2.496 12.327 2.496 11.995 2.496 11.664 2.765 11.395 3.096 11.395L20.916 11.395C21.247 11.395 21.516 11.664 21.516 11.995 21.516 12.327 21.247 12.595 20.916 12.595L3.096 12.595Z" fill="black"/>
<path d="M6.056 3.688C5.725 3.688 5.456 3.419 5.456 3.088 5.456 2.757 5.725 2.488 6.056 2.488L17.937 2.488C18.268 2.488 18.537 2.757 18.537 3.088 18.537 3.419 18.268 3.688 17.937 3.688L6.056 3.688Z" fill="black"/>
<path fill-rule="evenodd" clip-rule="evenodd" d="M11.998 16.836L11.378 17.456H12.618L11.998 16.836Z" fill="white"/>
<path fill-rule="evenodd" clip-rule="evenodd" d="M13.293 9.685L11.998 8.391 10.704 9.685C10.469 9.919 10.089 9.919 9.855 9.685 9.621 9.451 9.621 9.071 9.855 8.836L11.149 7.542 9.856 6.249C9.81 6.203 9.773 6.151 9.745 6.095 9.631 5.87 9.668 5.589 9.856 5.401 10.091 5.166 10.471 5.166 10.705 5.401L11.998 6.694 13.292 5.4C13.526 5.166 13.906 5.166 14.14 5.4 14.328 5.588 14.365 5.87 14.251 6.095 14.223 6.151 14.186 6.202 14.14 6.249L12.846 7.542 14.141 8.837C14.376 9.071 14.376 9.451 14.141 9.685 13.907 9.92 13.527 9.92 13.293 9.685Z" fill="black"/>
<path fill-rule="evenodd" clip-rule="evenodd" d="M12.618 17.925L13.293 18.6C13.528 18.834 13.908 18.834 14.142 18.6 14.324 18.417 14.365 18.146 14.263 17.925 14.234 17.862 14.194 17.803 14.142 17.751L12.847 16.456 14.141 15.163C14.375 14.929 14.375 14.549 14.141 14.314 13.906 14.08 13.526 14.08 13.292 14.314L11.999 15.608 10.705 14.315C10.471 14.08 10.091 14.08 9.857 14.315 9.623 14.549 9.623 14.929 9.857 15.163L11.15 16.456 9.856 17.751C9.804 17.803 9.763 17.862 9.735 17.925 9.633 18.146 9.673 18.417 9.856 18.599 10.09 18.834 10.47 18.834 10.704 18.599L11.379 17.925 11.999 17.305 12.618 17.925Z" fill="black"/>
<path d="M6.066 21.513C5.734 21.513 5.466 21.244 5.466 20.913 5.466 20.582 5.734 20.313 6.066 20.313L17.946 20.313C18.277 20.313 18.546 20.582 18.546 20.913 18.546 21.245 18.277 21.513 17.946 21.513L6.066 21.513Z" fill="black"/>
</svg>