<svg xmlns="http://www.w3.org/2000/svg" width="24" height="24" fill="currentColor" viewBox="0 0 24 24"><path d="M6.127 8.356a1.013 1.013 0 1 1-1.013-1.013 1.013 1.013 0 0 1 1.013 1.013M12 7.343a1.013 1.013 0 1 0 1.013 1.013 1.013 1.013 0 0 0-1.013-1.013m6.886 2.024a1.013 1.013 0 1 0-1.013-1.013 1.013 1.013 0 0 0 1.013 1.013M5.116 14.633a1.013 1.013 0 1 0 1.012 1.013 1.013 1.013 0 0 0-1.012-1.013m6.885 0a1.013 1.013 0 1 0 1.013 1.013 1.013 1.013 0 0 0-1.013-1.013m6.886 0a1.013 1.013 0 1 0 1.013 1.013 1.013 1.013 0 0 0-1.013-1.013"/></svg>