<svg xmlns="http://www.w3.org/2000/svg" fill="currentColor" viewBox="0 0 24 24" width="24" height="24"><path d="M1.673 12A7.096 7.096 0 0 1 8.76 4.913h11.492l-1.392-1.393a0.607 0.607 0 0 1 0.858-0.86l2.43 2.43a0.607 0.607 0 0 1 0 0.86l-2.43 2.43a0.607 0.607 0 0 1-0.858-0.86l1.392-1.393H8.76A5.88 5.88 0 0 0 2.887 12a0.608 0.608 0 0 1-1.215 0z m20.047-0.607a0.607 0.607 0 0 0-0.607 0.607 5.88 5.88 0 0 1-5.873 5.873H3.748l1.392-1.393a0.607 0.607 0 0 0-0.86-0.86l-2.43 2.43a0.607 0.607 0 0 0 0 0.86l2.43 2.43a0.607 0.607 0 0 0 0.86-0.858l-1.392-1.394H15.24a7.096 7.096 0 0 0 7.087-7.087 0.607 0.607 0 0 0-0.607-0.607z m-8.91 3.644a0.607 0.607 0 0 0 0.607-0.607v-4.86a0.607 0.607 0 0 0-0.878-0.544l-1.62 0.81a0.607 0.607 0 1 0 0.542 1.086l0.742-0.37v3.878a0.607 0.607 0 0 0 0.607 0.607"/></svg>