<svg viewBox="0 0 24 24" fill="none" xmlns="http://www.w3.org/2000/svg" width="24" height="24">
<path d="M4.067 16.043V7.944C4.067 7.888 4.089 7.834 4.128 7.795 4.167 7.756 4.221 7.734 4.277 7.734H11.237C11.568 7.734 11.837 7.466 11.837 7.134 11.837 6.803 11.568 6.534 11.237 6.534H4.277C3.903 6.534 3.544 6.682 3.279 6.947 3.015 7.211 2.867 7.57 2.867 7.944V16.043C2.867 16.417 3.015 16.776 3.279 17.04 3.544 17.304 3.903 17.453 4.277 17.453H11.237C11.568 17.453 11.837 17.184 11.837 16.853 11.836 16.521 11.568 16.253 11.237 16.253H4.277C4.221 16.253 4.167 16.231 4.128 16.192 4.089 16.152 4.067 16.098 4.067 16.043Z" fill="black"/>
<path d="M9.23 13.998C8.996 13.764 8.616 13.764 8.382 13.998 8.148 14.232 8.148 14.612 8.382 14.846L10.388 16.851 8.382 18.858C8.148 19.092 8.148 19.472 8.382 19.706 8.616 19.94 8.996 19.94 9.23 19.706L11.661 17.277C11.895 17.043 11.895 16.663 11.661 16.428L9.23 13.998Z" fill="black"/>
<path d="M14.219 10.379C14.219 10.711 13.95 10.979 13.619 10.979 13.288 10.979 13.019 10.711 13.019 10.379V3.898C13.019 3.566 13.288 3.298 13.619 3.298 13.95 3.298 14.219 3.566 14.219 3.898V10.379Z" fill="black"/>
<path d="M16.38 10.379C16.38 10.711 16.111 10.979 15.78 10.979 15.448 10.979 15.18 10.711 15.18 10.379V3.898C15.18 3.566 15.448 3.298 15.78 3.298 16.111 3.298 16.38 3.566 16.38 3.898V10.379Z" fill="black"/>
<path d="M13.619 4.498C13.288 4.498 13.019 4.229 13.019 3.898 13.019 3.566 13.288 3.298 13.619 3.298L15.759 3.298C16.09 3.298 16.359 3.566 16.359 3.898 16.359 4.229 16.09 4.498 15.759 4.498H13.619Z" fill="black"/>
<path d="M13.619 10.988C13.288 10.988 13.019 10.72 13.019 10.388 13.019 10.057 13.288 9.788 13.619 9.788H15.759C16.09 9.788 16.359 10.057 16.359 10.388 16.359 10.72 16.09 10.988 15.759 10.988H13.619Z" fill="black"/>
<path d="M18.539 10.379C18.539 10.711 18.271 10.979 17.939 10.979 17.608 10.979 17.339 10.711 17.339 10.379V3.898C17.339 3.566 17.608 3.298 17.939 3.298 18.271 3.298 18.539 3.566 18.539 3.898V10.379Z" fill="black"/>
<path d="M20.7 10.379C20.7 10.711 20.431 10.979 20.1 10.979 19.769 10.979 19.5 10.711 19.5 10.379V3.898C19.5 3.566 19.769 3.298 20.1 3.298 20.431 3.298 20.7 3.566 20.7 3.898V10.379Z" fill="black"/>
<path fill-rule="evenodd" clip-rule="evenodd" d="M20.701 14.429C20.7 13.651 20.068 13.02 19.29 13.02H14.43C13.651 13.02 13.02 13.651 13.02 14.429V19.289C13.02 20.068 13.651 20.7 14.43 20.7H19.29C20.068 20.7 20.701 20.068 20.701 19.289V14.429ZM14.43 19.5C14.314 19.5 14.22 19.405 14.22 19.289V18.098L18.092 14.22 19.29 14.22C19.406 14.22 19.5 14.313 19.501 14.429V15.702L15.702 19.5H14.43ZM14.43 14.22L16.402 14.22 14.22 16.401 14.22 14.429C14.22 14.313 14.314 14.22 14.43 14.22ZM19.501 17.399L17.4 19.5H19.29C19.406 19.5 19.501 19.405 19.501 19.289L19.501 17.399Z" fill="black"/>
</svg>