<svg viewBox="0 0 24 24" fill="none" xmlns="http://www.w3.org/2000/svg" width="24" height="24">
<path d="M4.067 16.043V7.944C4.067 7.888 4.089 7.834 4.128 7.795 4.167 7.756 4.221 7.734 4.277 7.734H11.237C11.568 7.734 11.837 7.465 11.837 7.134 11.837 6.803 11.568 6.534 11.237 6.534H4.277C3.903 6.534 3.544 6.682 3.279 6.946 3.015 7.211 2.867 7.57 2.867 7.944V16.043C2.867 16.416 3.015 16.775 3.279 17.04 3.544 17.304 3.903 17.452 4.277 17.452H11.237C11.568 17.452 11.837 17.184 11.837 16.852 11.836 16.521 11.568 16.252 11.237 16.252H4.277C4.221 16.252 4.167 16.231 4.128 16.191 4.089 16.152 4.067 16.098 4.067 16.043Z" fill="black"/>
<path d="M9.23 13.998C8.996 13.764 8.616 13.763 8.382 13.998 8.148 14.232 8.148 14.612 8.382 14.846L10.388 16.851 8.382 18.857C8.148 19.092 8.148 19.471 8.382 19.706 8.616 19.94 8.996 19.94 9.23 19.706L11.661 17.277C11.895 17.042 11.895 16.662 11.661 16.428L9.23 13.998Z" fill="black"/>
<path d="M19.501 4.71C19.5 4.594 19.406 4.5 19.29 4.5H14.43C14.314 4.5 14.22 4.594 14.22 4.71V9.57C14.22 9.685 14.314 9.78 14.43 9.78H19.29C19.406 9.78 19.501 9.686 19.501 9.57V4.71ZM20.701 9.57C20.701 10.348 20.068 10.98 19.29 10.98H14.43C13.651 10.98 13.02 10.348 13.02 9.57V4.71C13.02 3.931 13.651 3.3 14.43 3.3H19.29C20.068 3.3 20.7 3.931 20.701 4.71V9.57Z" fill="black"/>
<path d="M20.701 19.289V14.429C20.7 13.651 20.068 13.02 19.29 13.02H14.43C13.651 13.02 13.02 13.651 13.02 14.429V19.289C13.02 20.068 13.651 20.7 14.43 20.7H19.29C20.068 20.7 20.701 20.068 20.701 19.289ZM19.501 17.399L19.501 19.289C19.501 19.405 19.406 19.5 19.29 19.5H17.4L19.501 17.399ZM15.702 19.5H14.43C14.314 19.5 14.22 19.405 14.22 19.289V18.098L18.092 14.22H19.29C19.406 14.22 19.5 14.313 19.501 14.429V15.702L15.702 19.5ZM14.22 16.401V14.429C14.22 14.313 14.314 14.22 14.43 14.22H16.402L14.22 16.401Z" fill="black"/>
</svg>