<svg xmlns="http://www.w3.org/2000/svg" width="24" height="24" fill="currentColor" viewBox="0 0 24 24"><path d="M21.6 5.087a1.416 1.416 0 0 0-1.44 0.047l-8.363 5.326V6.314a1.404 1.404 0 0 0-0.728-1.227 1.416 1.416 0 0 0-1.44 0.047l-8.928 5.686a1.397 1.397 0 0 0 0 2.36l8.928 5.686a1.416 1.416 0 0 0 1.44 0.047 1.404 1.404 0 0 0 0.728-1.227v-4.146l8.363 5.326a1.416 1.416 0 0 0 1.44 0.047 1.404 1.404 0 0 0 0.728-1.227V6.313A1.404 1.404 0 0 0 21.6 5.086z m-11.017 12.6a0.18 0.18 0 0 1-0.101 0.161 0.192 0.192 0 0 1-0.203-0.006l-8.925-5.687a0.182 0.182 0 0 1 0-0.31l8.925-5.687a0.192 0.192 0 0 1 0.101-0.032 0.24 0.24 0 0 1 0.101 0.026 0.18 0.18 0 0 1 0.101 0.161z m10.53 0a0.18 0.18 0 0 1-0.101 0.161 0.192 0.192 0 0 1-0.203-0.006L11.88 12.155a0.182 0.182 0 0 1 0-0.31l8.929-5.687a0.192 0.192 0 0 1 0.101-0.032 0.24 0.24 0 0 1 0.101 0.026 0.18 0.18 0 0 1 0.101 0.161z"/></svg>