<svg width="24" height="24" viewBox="0 0 24 24" fill="none" xmlns="http://www.w3.org/2000/svg">
<path d="M20.9997 6.73516V17.2633C20.9986 17.3958 20.9619 17.5257 20.8936 17.6393C20.8252 17.7528 20.7277 17.846 20.6111 17.9091C20.4945 17.9722 20.3631 18.0029 20.2307 17.9979C20.0982 17.993 19.9695 17.9527 19.8579 17.8811L11.5901 12.617C11.4859 12.5511 11.4001 12.4598 11.3406 12.3518C11.2812 12.2438 11.25 12.1225 11.25 11.9992C11.25 11.8759 11.2812 11.7546 11.3406 11.6466C11.4001 11.5386 11.4859 11.4474 11.5901 11.3814L19.8579 6.11735C19.9695 6.04578 20.0982 6.00544 20.2307 6.00051C20.3631 5.99559 20.4945 6.02626 20.6111 6.08934C20.7277 6.15243 20.8252 6.24561 20.8936 6.35919C20.9619 6.47277 20.9986 6.6026 20.9997 6.73516Z" stroke="black" stroke-width="1.5" stroke-linecap="round" stroke-linejoin="round"/>
<path d="M11.2497 6.73516V17.2633C11.2486 17.3958 11.2119 17.5257 11.1436 17.6393C11.0752 17.7528 10.9777 17.846 10.8611 17.9091C10.7445 17.9722 10.6131 18.0029 10.4807 17.9979C10.3482 17.993 10.2195 17.9527 10.1079 17.8811L1.84005 12.617C1.73588 12.5511 1.65008 12.4598 1.59063 12.3518C1.53118 12.2438 1.5 12.1225 1.5 11.9992C1.5 11.8759 1.53118 11.7546 1.59063 11.6466C1.65008 11.5386 1.73588 11.4474 1.84005 11.3814L10.1079 6.11735C10.2195 6.04578 10.3482 6.00544 10.4807 6.00051C10.6131 5.99559 10.7445 6.02626 10.8611 6.08934C10.9777 6.15243 11.0752 6.24561 11.1436 6.35919C11.2119 6.47277 11.2486 6.6026 11.2497 6.73516Z" stroke="black" stroke-width="1.5" stroke-linecap="round" stroke-linejoin="round"/>
</svg>
