<svg xmlns="http://www.w3.org/2000/svg" width="24" height="24" fill="currentColor" viewBox="0 0 24 24"><path d="M9.166 4.913H3.09a1.416 1.416 0 0 0-1.417 1.417v6.48a1.416 1.416 0 0 0 1.417 1.417h6.277v1.013a3.444 3.444 0 0 1-3.443 3.443 0.607 0.607 0 0 0 0 1.214 4.663 4.663 0 0 0 4.658-4.657V6.33a1.416 1.416 0 0 0-1.418-1.417z m0.202 8.1H3.091a0.204 0.204 0 0 1-0.203-0.203v-6.48a0.204 0.204 0 0 1 0.203-0.203h6.076a0.204 0.204 0 0 1 0.203 0.203z m11.543-8.1h-6.075a1.416 1.416 0 0 0-1.418 1.417v6.48a1.416 1.416 0 0 0 1.418 1.417h6.277v1.013a3.444 3.444 0 0 1-3.443 3.443 0.607 0.607 0 0 0 0 1.214 4.663 4.663 0 0 0 4.657-4.657V6.33a1.416 1.416 0 0 0-1.417-1.417z m0.203 8.1h-6.277a0.204 0.204 0 0 1-0.203-0.203v-6.48a0.204 0.204 0 0 1 0.203-0.203h6.075a0.204 0.204 0 0 1 0.203 0.203z"/></svg>