<svg xmlns="http://www.w3.org/2000/svg" fill="currentColor" viewBox="0 0 24 24" width="24" height="24"><path d="M14.227 21.72a0.607 0.607 0 0 1-0.607 0.607h-3.24a0.607 0.607 0 0 1 0-1.214h3.24a0.607 0.607 0 0 1 0.607 0.607M12 10.177a1.013 1.013 0 1 0-1.013-1.013 1.013 1.013 0 0 0 1.013 1.013m9.484 4.597l-1.252 5.63a1.416 1.416 0 0 1-2.258 0.81l-2.814-2.127H8.843l-2.817 2.127a1.416 1.416 0 0 1-2.262-0.81l-1.248-5.63a1.428 1.428 0 0 1 0.296-1.214l2.936-3.52a12.24 12.24 0 0 1 0.859-3.716c1.288-3.228 3.596-5.252 4.529-5.974a1.416 1.416 0 0 1 1.738 0c0.932 0.721 3.24 2.746 4.528 5.974a12.24 12.24 0 0 1 0.858 3.716l2.937 3.52a1.428 1.428 0 0 1 0.288 1.214zM8.988 17.873h6.023c2.22-3.894 2.645-7.627 1.259-11.099-1.21-3.037-3.478-4.948-4.144-5.467a0.204 0.204 0 0 0-0.251 0c-0.666 0.515-2.936 2.43-4.143 5.467-1.386 3.472-0.962 7.205 1.258 11.099z m-1.14 0.445c-1.216-2.176-1.914-4.313-2.088-6.398l-2.017 2.416a0.204 0.204 0 0 0-0.042 0.173l1.253 5.634a0.204 0.204 0 0 0 0.324 0.114l0.013-0.011z m12.41-3.982l-2.013-2.416c-0.174 2.084-0.871 4.222-2.088 6.398l2.555 1.924 0.013 0.01a0.204 0.204 0 0 0 0.324-0.114l1.254-5.628a0.204 0.204 0 0 0-0.047-0.172z"/></svg>