<svg xmlns="http://www.w3.org/2000/svg" fill="currentColor" viewBox="0 0 24 24" width="24" height="24"><path d="M21.503 3.823a1.416 1.416 0 0 0-1.327-1.326c-1.247-0.074-4.432 0.04-7.076 2.683l-0.541 0.543H6.569a1.404 1.404 0 0 0-1.001 0.415l-3.478 3.476a1.417 1.417 0 0 0 0.804 2.406l3.963 0.554 4.572 4.572 0.553 3.967a1.417 1.417 0 0 0 2.406 0.801l3.478-3.477a1.404 1.404 0 0 0 0.415-1.001v-5.994l0.541-0.541c2.642-2.646 2.758-5.828 2.683-7.077zM2.898 10.684a0.204 0.204 0 0 1 0.049-0.203L6.424 6.996a0.204 0.204 0 0 1 0.142-0.059h4.776l-4.419 4.419-3.862-0.539a0.192 0.192 0 0 1-0.164-0.133z m14.164 6.748a0.204 0.204 0 0 1-0.06 0.143l-3.477 3.477a0.203 0.203 0 0 1-0.344-0.113l-0.539-3.864 4.418-4.42z m0.897-7.39l-5.96 5.959L7.998 12l5.96-5.962a7.944 7.944 0 0 1 6.146-2.329 0.204 0.204 0 0 1 0.184 0.191 7.944 7.944 0 0 1-2.329 6.14z m-8.796 8.268c-0.437 0.965-1.91 3.209-6.075 3.208a0.607 0.607 0 0 1-0.608-0.607c0-4.164 2.244-5.638 3.209-6.075a0.608 0.608 0 1 1 0.507 1.105c-0.709 0.32-2.281 1.369-2.478 4.345 2.976-0.197 4.024-1.774 4.345-2.478a0.608 0.608 0 1 1 1.105 0.506z"/></svg>