<svg width="24" height="24" viewBox="0 0 24 24" fill="none" xmlns="http://www.w3.org/2000/svg">
<path d="M11.9996 9.74902C12.2067 9.74902 12.3746 9.58113 12.3746 9.37402C12.3746 9.16692 12.2067 8.99902 11.9996 8.99902C11.7925 8.99902 11.6246 9.16692 11.6246 9.37402C11.6246 9.58113 11.7925 9.74902 11.9996 9.74902Z" fill="black"/>
<path d="M13.5 21H10.5M8.88822 18.0004C3.51728 8.93662 9.73759 3.05006 11.5395 1.65787C11.6711 1.55555 11.8331 1.5 11.9998 1.5C12.1665 1.5 12.3285 1.55555 12.4601 1.65787C14.262 3.05006 20.4823 8.93662 15.1113 18.0004M8.88822 18.0004H15.1113M8.88822 18.0004L6.12767 20.0845C6.02823 20.1642 5.91014 20.2171 5.78455 20.2385C5.65895 20.2598 5.52999 20.2488 5.40982 20.2065C5.28966 20.1642 5.18225 20.092 5.09773 19.9967C5.01321 19.9014 4.95436 19.7861 4.92673 19.6617L3.76798 14.4464C3.74301 14.3344 3.74406 14.2182 3.77104 14.1068C3.79802 13.9953 3.85021 13.8914 3.92361 13.8033L6.76517 10.3945M15.1113 18.0004L17.8723 20.0845C17.9717 20.1642 18.0898 20.2171 18.2154 20.2385C18.341 20.2598 18.4699 20.2488 18.5901 20.2065C18.7103 20.1642 18.8177 20.092 18.9022 19.9967C18.9867 19.9014 19.0456 19.7861 19.0732 19.6617L20.232 14.4464C20.2569 14.3344 20.2559 14.2182 20.2289 14.1068C20.2019 13.9953 20.1497 13.8914 20.0763 13.8033L17.2348 10.3945M12.3746 9.37402C12.3746 9.58113 12.2067 9.74902 11.9996 9.74902C11.7925 9.74902 11.6246 9.58113 11.6246 9.37402C11.6246 9.16692 11.7925 8.99902 11.9996 8.99902C12.2067 8.99902 12.3746 9.16692 12.3746 9.37402Z" stroke="black" stroke-width="1.5" stroke-linecap="round" stroke-linejoin="round"/>
</svg>
