<svg xmlns="http://www.w3.org/2000/svg" fill="currentColor" viewBox="0 0 24 24" width="24" height="24"><path d="M19.919 5.186a1.18 1.18 0 0 0-1.106-1.105c-1.039-.062-3.693.033-5.896 2.236l-.451.452H7.474a1.17 1.17 0 0 0-.834.346l-2.898 2.897a1.181 1.181 0 0 0 .67 2.005l3.302.461 3.81 3.81.461 3.306a1.181 1.181 0 0 0 2.005.668l2.898-2.898a1.17 1.17 0 0 0 .346-.834v-4.995l.451-.451c2.202-2.205 2.298-4.857 2.236-5.897zM4.415 10.903a.17.17 0 0 1 .041-.169L7.353 7.83a.17.17 0 0 1 .119-.049h3.98l-3.683 3.682-3.218-.449a.16.16 0 0 1-.137-.111zm11.803 5.624a.17.17 0 0 1-.05.119l-2.897 2.897a.169.169 0 0 1-.287-.094l-.449-3.22 3.682-3.683zm.748-6.159-4.967 4.966L8.665 12l4.967-4.968a6.62 6.62 0 0 1 5.121-1.941.17.17 0 0 1 .154.159 6.62 6.62 0 0 1-1.941 5.117zm-7.33 6.89c-.364.804-1.592 2.674-5.063 2.674a.506.506 0 0 1-.506-.506c0-3.47 1.87-4.698 2.674-5.063a.507.507 0 1 1 .422.921c-.591.267-1.901 1.141-2.065 3.621 2.48-.164 3.353-1.478 3.621-2.065a.507.507 0 1 1 .921.422z"/></svg>