<svg xmlns="http://www.w3.org/2000/svg" width="24" height="24" fill="currentColor" viewBox="0 0 24 24"><path d="M21.517 3.9V8.76a0.607 0.607 0 0 1-0.607 0.607h-4.86a0.608 0.608 0 0 1 0-1.215h3.394L17.616 6.329a8.256 8.256 0 0 0-5.825-2.43h-0.047a8.256 8.256 0 0 0-5.8 2.357 0.607 0.607 0 1 1-0.849-0.869 9.456 9.456 0 0 1 6.649-2.71h0.053A9.48 9.48 0 0 1 18.48 5.465l1.823 1.823V3.899a0.607 0.607 0 0 1 1.214 0z m-3.462 13.843a8.256 8.256 0 0 1-5.801 2.363h-0.046a8.256 8.256 0 0 1-5.825-2.43l-1.828-1.829h3.394a0.607 0.607 0 0 0 0-1.214h-4.86a0.607 0.607 0 0 0-0.607 0.607v4.86a0.608 0.608 0 0 0 1.215 0v-3.394L5.52 18.534a9.48 9.48 0 0 0 6.683 2.788h0.053a9.456 9.456 0 0 0 6.649-2.71 0.607 0.607 0 1 0-0.849-0.869z"/></svg>