<svg width="24" height="24" viewBox="0 0 24 24" fill="none" xmlns="http://www.w3.org/2000/svg">
<path d="M20.999 9.74662V10.4966H21.749V9.74662H20.999ZM11.25 15.332C11.25 15.7462 11.5858 16.082 12 16.082C12.4142 16.082 12.75 15.7462 12.75 15.332H12H11.25ZM12.75 12C12.75 11.5858 12.4142 11.25 12 11.25C11.5858 11.25 11.25 11.5858 11.25 12H12H12.75ZM10.8644 13.9687C10.5715 13.6758 10.0967 13.6758 9.80378 13.9687C9.51088 14.2615 9.51088 14.7364 9.80378 15.0293L10.3341 14.499L10.8644 13.9687ZM12.0001 16.165L11.4698 16.6953C11.7627 16.9882 12.2375 16.9882 12.5304 16.6953L12.0001 16.165ZM14.1964 15.0293C14.4893 14.7364 14.4893 14.2615 14.1964 13.9687C13.9035 13.6758 13.4287 13.6758 13.1358 13.9687L13.6661 14.499L14.1964 15.0293ZM3.83333 5.25V6H20.1656V5.25V4.5H3.83333V5.25ZM20.999 6.08333H20.249V9.74662H20.999H21.749V6.08333H20.999ZM20.999 9.74662V8.99662H3V9.74662V10.4966H20.999V9.74662ZM3 9.74662H3.75V6.08333H3H2.25V9.74662H3ZM20.1656 5.25V6C20.2117 6 20.249 6.03731 20.249 6.08333H20.999H21.749C21.749 5.20888 21.0401 4.5 20.1656 4.5V5.25ZM3.83333 5.25V4.5C2.95888 4.5 2.25 5.20888 2.25 6.08333H3H3.75C3.75 6.03731 3.78731 6 3.83333 6V5.25ZM9 5.25H8.25V9.75H9H9.75V5.25H9ZM15 5.25H14.25V9.75H15H15.75V5.25H15ZM12 15.332H12.75V12H12H11.25V15.332H12ZM10.3341 14.499L9.80378 15.0293L11.4698 16.6953L12.0001 16.165L12.5304 15.6347L10.8644 13.9687L10.3341 14.499ZM12.0001 16.165L12.5304 16.6953L14.1964 15.0293L13.6661 14.499L13.1358 13.9687L11.4698 15.6347L12.0001 16.165ZM21 9.74662H20.25V17.9167H21H21.75V9.74662H21ZM20.1667 18.75V18H3.83333V18.75V19.5H20.1667V18.75ZM3 17.9167H3.75V9.74662H3H2.25V17.9167H3ZM3.83333 18.75V18C3.78731 18 3.75 17.9627 3.75 17.9167H3H2.25C2.25 18.7911 2.95888 19.5 3.83333 19.5V18.75ZM21 17.9167H20.25C20.25 17.9627 20.2127 18 20.1667 18V18.75V19.5C21.0411 19.5 21.75 18.7911 21.75 17.9167H21Z" fill="black"/>
</svg>
