<svg viewBox="0 0 24 24" fill="none" xmlns="http://www.w3.org/2000/svg" width="24" height="24">
<path d="M12.924 4.111H20.82C21.154 4.111 21.46 4.221 21.71 4.405 21.784 4.434 21.854 4.477 21.913 4.537 21.976 4.6 22.02 4.674 22.049 4.752 22.22 4.995 22.32 5.291 22.32 5.611V18.406C22.32 19.234 21.648 19.906 20.82 19.906H3.18C2.352 19.906 1.68 19.234 1.68 18.406V5.611C1.68 4.782 2.351 4.111 3.18 4.111H12.746C12.805 4.102 12.865 4.102 12.924 4.111ZM2.88 15.038V18.406C2.88 18.572 3.015 18.706 3.18 18.706H8.159V15.038H2.88ZM9.359 15.038V18.706H14.64V15.038H9.359ZM15.84 15.038V18.706H20.82C20.985 18.706 21.12 18.572 21.12 18.406V15.038H15.84ZM2.88 13.838H8.159V10.177H5C4.983 10.178 4.965 10.178 4.948 10.177H2.88V13.838ZM9.359 13.838H14.64V10.177H9.359V13.838ZM15.84 13.838H21.12V10.177H15.84V13.838ZM3.444 8.977H4.728L8.395 5.311H7.112L3.444 8.977ZM6.425 8.977H7.712L11.378 5.311H10.092L6.425 8.977ZM9.407 8.977H10.693L14.36 5.311H13.075L9.407 8.977ZM12.39 8.977H13.676L17.342 5.311H16.056L12.39 8.977ZM15.371 8.977H16.625L20.292 5.311H19.039L15.371 8.977ZM18.322 8.977H21.12V6.179L18.322 8.977ZM3.18 5.311C3.014 5.311 2.88 5.445 2.88 5.611V7.843L5.412 5.311H3.18Z" fill="black"/>
</svg>