<svg viewBox="0 0 24 24" fill="none" xmlns="http://www.w3.org/2000/svg" width="24" height="24">
<path d="M3.89941 15.5C4.17543 15.5 4.39921 15.724 4.39941 16V17.332C4.39967 17.4698 4.51156 17.582 4.64941 17.582H6.4873C6.76332 17.5822 6.9873 17.806 6.9873 18.082C6.98704 18.3579 6.76316 18.5819 6.4873 18.582H4.64941C3.95927 18.582 3.39967 18.0221 3.39941 17.332V16C3.39961 15.7241 3.62345 15.5001 3.89941 15.5ZM13.8379 17.582C14.1139 17.5822 14.3379 17.806 14.3379 18.082C14.3376 18.3578 14.1137 18.5818 13.8379 18.582H10.1621C9.88625 18.5819 9.66237 18.3579 9.66211 18.082C9.66211 17.806 9.88609 17.5822 10.1621 17.582H13.8379ZM20.1006 15.5C20.3765 15.5001 20.6004 15.7241 20.6006 16V17.332C20.6003 18.0221 20.0407 18.5819 19.3506 18.582H17.5127C17.2368 18.5819 17.013 18.3579 17.0127 18.082C17.0127 17.8059 17.2366 17.5821 17.5127 17.582H19.3506C19.4884 17.5819 19.6003 17.4698 19.6006 17.332V16C19.6008 15.7241 19.8246 15.5001 20.1006 15.5ZM11.7256 11.5889C11.9196 11.4609 12.1837 11.4826 12.3545 11.6533L13.8545 13.1533C14.0494 13.3485 14.0494 13.6651 13.8545 13.8604C13.6593 14.0555 13.3427 14.0554 13.1475 13.8604L12.5 13.2129V15.7568C12.5 16.033 12.2761 16.2568 12 16.2568C11.724 16.2567 11.5 16.0329 11.5 15.7568V13.2148L10.8545 13.8604C10.6593 14.0555 10.3427 14.0554 10.1475 13.8604C9.9522 13.6651 9.9522 13.3486 10.1475 13.1533L11.6475 11.6533L11.7256 11.5889ZM3.89941 11.5068C4.17556 11.5068 4.39941 11.7307 4.39941 12.0068V13.3379C4.39941 13.614 4.17556 13.8379 3.89941 13.8379C3.62333 13.8378 3.39941 13.614 3.39941 13.3379V12.0068C3.39941 11.7307 3.62333 11.5069 3.89941 11.5068ZM20.1006 11.5068C20.3766 11.507 20.6006 11.7308 20.6006 12.0068V13.3379C20.6006 13.614 20.3766 13.8378 20.1006 13.8379C19.8245 13.8378 19.6006 13.614 19.6006 13.3379V12.0068C19.6006 11.7307 19.8245 11.5069 20.1006 11.5068ZM19.3506 5.62891C20.0408 5.62904 20.6006 6.18863 20.6006 6.87891V10.6787H3.40039V6.87891C3.40039 6.18859 3.96009 5.62897 4.65039 5.62891H19.3506ZM4.65039 6.62891C4.51238 6.62897 4.40039 6.74088 4.40039 6.87891V9.67871H8.7998V6.62891H4.65039ZM9.7998 9.67871H14.2002V6.62891H9.7998V9.67871ZM15.2002 9.67871H19.6006V6.87891C19.6006 6.74092 19.4885 6.62904 19.3506 6.62891H15.2002V9.67871Z" fill="black"/>
</svg>