<svg width="24" height="24" viewBox="0 0 24 24" fill="none" xmlns="http://www.w3.org/2000/svg">
<path d="M20.999 9.74662V10.4966H21.749V9.74662H20.999ZM3 9.74662H2.25V10.4966H3V9.74662ZM9.75 5.25C9.75 4.83579 9.41421 4.5 9 4.5C8.58579 4.5 8.25 4.83579 8.25 5.25H9H9.75ZM15.75 5.25C15.75 4.83579 15.4142 4.5 15 4.5C14.5858 4.5 14.25 4.83579 14.25 5.25H15H15.75ZM12.75 12.833C12.75 12.4188 12.4142 12.083 12 12.083C11.5858 12.083 11.25 12.4188 11.25 12.833H12H12.75ZM11.25 16.165C11.25 16.5792 11.5858 16.915 12 16.915C12.4142 16.915 12.75 16.5792 12.75 16.165H12H11.25ZM9.80378 13.1357C9.51088 13.4286 9.51088 13.9034 9.80378 14.1963C10.0967 14.4892 10.5715 14.4892 10.8644 14.1963L10.3341 13.666L9.80378 13.1357ZM12.0001 12L12.5304 11.4697C12.2375 11.1768 11.7627 11.1768 11.4698 11.4697L12.0001 12ZM13.1358 14.1963C13.4287 14.4892 13.9035 14.4892 14.1964 14.1963C14.4893 13.9034 14.4893 13.4286 14.1964 13.1357L13.6661 13.666L13.1358 14.1963ZM13.875 19.5C14.2892 19.5 14.625 19.1642 14.625 18.75C14.625 18.3358 14.2892 18 13.875 18V18.75V19.5ZM10.125 18C9.71079 18 9.375 18.3358 9.375 18.75C9.375 19.1642 9.71079 19.5 10.125 19.5V18.75V18ZM6.5625 19.5C6.97671 19.5 7.3125 19.1642 7.3125 18.75C7.3125 18.3358 6.97671 18 6.5625 18V18.75V19.5ZM17.4375 18C17.0233 18 16.6875 18.3358 16.6875 18.75C16.6875 19.1642 17.0233 19.5 17.4375 19.5V18.75V18ZM3.75 17.25C3.75 16.8358 3.41421 16.5 3 16.5C2.58579 16.5 2.25 16.8358 2.25 17.25H3H3.75ZM2.25 14.25C2.25 14.6642 2.58579 15 3 15C3.41421 15 3.75 14.6642 3.75 14.25H3H2.25ZM3.75 12.75C3.75 12.3358 3.41421 12 3 12C2.58579 12 2.25 12.3358 2.25 12.75H3H3.75ZM21.75 17.25C21.75 16.8358 21.4142 16.5 21 16.5C20.5858 16.5 20.25 16.8358 20.25 17.25H21H21.75ZM21.75 12.75C21.75 12.3358 21.4142 12 21 12C20.5858 12 20.25 12.3358 20.25 12.75H21H21.75ZM20.25 14.25C20.25 14.6642 20.5858 15 21 15C21.4142 15 21.75 14.6642 21.75 14.25H21H20.25ZM3.83333 5.25V6H20.1656V5.25V4.5H3.83333V5.25ZM20.999 6.08333H20.249V9.74662H20.999H21.749V6.08333H20.999ZM20.999 9.74662V8.99662H3V9.74662V10.4966H20.999V9.74662ZM3 9.74662H3.75V6.08333H3H2.25V9.74662H3ZM20.1656 5.25V6C20.2117 6 20.249 6.03731 20.249 6.08333H20.999H21.749C21.749 5.20888 21.0401 4.5 20.1656 4.5V5.25ZM3.83333 5.25V4.5C2.95888 4.5 2.25 5.20888 2.25 6.08333H3H3.75C3.75 6.03731 3.78731 6 3.83333 6V5.25ZM9 5.25H8.25V9.75H9H9.75V5.25H9ZM15 5.25H14.25V9.75H15H15.75V5.25H15ZM12 12.833H11.25V16.165H12H12.75V12.833H12ZM10.3341 13.666L10.8644 14.1963L12.5304 12.5303L12.0001 12L11.4698 11.4697L9.80378 13.1357L10.3341 13.666ZM12.0001 12L11.4698 12.5303L13.1358 14.1963L13.6661 13.666L14.1964 13.1357L12.5304 11.4697L12.0001 12ZM13.875 18.75V18H10.125V18.75V19.5H13.875V18.75ZM6.5625 18.75V18H3.83333V18.75V19.5H6.5625V18.75ZM20.1667 18.75V18H17.4375V18.75V19.5H20.1667V18.75ZM3 17.9167H3.75V17.25H3H2.25V17.9167H3ZM3 14.25H3.75V12.75H3H2.25V14.25H3ZM21 17.25H20.25V17.9167H21H21.75V17.25H21ZM21 12.75H20.25V14.25H21H21.75V12.75H21ZM3.83333 18.75V18C3.78731 18 3.75 17.9627 3.75 17.9167H3H2.25C2.25 18.7911 2.95888 19.5 3.83333 19.5V18.75ZM20.1667 18.75V19.5C21.0411 19.5 21.75 18.7911 21.75 17.9167H21H20.25C20.25 17.9627 20.2127 18 20.1667 18V18.75Z" fill="black"/>
</svg>
