<svg width="24" height="24" viewBox="0 0 24 24" fill="none" xmlns="http://www.w3.org/2000/svg">
<path d="M9 9.7573L9 18.7573M15 9.7573V18.7573M2.99963 9.7573H20.9996M2.99963 14.2573H20.9996M6.75732 5.53854L3.30291 9.05497M11.2668 5.5479L7.125 9.68975M15.7668 5.5479L11.6331 9.6816M20.2668 5.5479L16.1331 9.6816M3.83315 18.7644H20.1665C20.6267 18.7644 20.9998 18.3913 20.9998 17.931V6.08358C20.9998 5.62334 20.6267 5.25024 20.1665 5.25024H3.83315C3.37291 5.25024 2.99982 5.62334 2.99982 6.08358V17.931C2.99982 18.3913 3.37291 18.7644 3.83315 18.7644Z" stroke="black" stroke-width="1.5" stroke-linecap="round" stroke-linejoin="round"/>
</svg>
