<svg xmlns="http://www.w3.org/2000/svg" width="24" height="24" fill="currentColor" viewBox="0 0 24 24"><path d="M9.722 14.278a7.044 7.044 0 0 1 2.076 5.012 0.607 0.607 0 0 1-1.214 0 5.873 5.873 0 0 0-5.873-5.873 0.607 0.607 0 0 1 0-1.214 7.044 7.044 0 0 1 5.013 2.076z m-5.012-6.936a0.608 0.608 0 0 0 0 1.215 10.733 10.733 0 0 1 10.733 10.733 0.608 0.608 0 0 0 1.215 0 11.947 11.947 0 0 0-11.947-11.947z m11.885 0.062a16.704 16.704 0 0 0-11.885-4.922 0.608 0.608 0 0 0 0 1.215 15.48 15.48 0 0 1 11.026 4.567 15.48 15.48 0 0 1 4.567 11.026 0.607 0.607 0 0 0 1.214 0 16.704 16.704 0 0 0-4.922-11.885z m-11.479 10.468a1.013 1.013 0 1 0 1.012 1.012 1.013 1.013 0 0 0-1.012-1.012"/></svg>