<svg viewBox="0 0 24 24" fill="none" xmlns="http://www.w3.org/2000/svg" width="24" height="24">
<path d="M1.2 3.373C1.2 2.037 2.816 1.367 3.761 2.312L21.688 20.239C22.633 21.184 21.964 22.799 20.627 22.8H2.7C1.872 22.8 1.2 22.128 1.2 21.3V3.373ZM6 12.724C6 11.922 6.969 11.521 7.536 12.087L11.912 16.463C12.479 17.03 12.078 18 11.276 18H6.9C6.403 18 6 17.597 6 17.1V12.724ZM7.2 16.8H10.552L7.2 13.448V16.8ZM2.4 7.2H3.6C3.931 7.2 4.2 7.468 4.2 7.8 4.2 8.131 3.931 8.4 3.6 8.4H2.4V12H3.6C3.931 12 4.2 12.268 4.2 12.6 4.2 12.931 3.931 13.2 3.6 13.2H2.4V16.8H3.6C3.931 16.8 4.2 17.068 4.2 17.4 4.2 17.731 3.931 18 3.6 18H2.4V21.3C2.4 21.465 2.534 21.6 2.7 21.6H6.004V20.4C6.004 20.068 6.272 19.8 6.604 19.8 6.935 19.8 7.203 20.068 7.204 20.4V21.6H10.8V20.4C10.8 20.068 11.069 19.8 11.4 19.8 11.731 19.8 12 20.068 12 20.4V21.6H15.6V20.4C15.6 20.068 15.869 19.8 16.2 19.8 16.531 19.8 16.8 20.068 16.8 20.4V21.6H20.627C20.895 21.599 21.028 21.276 20.839 21.087L2.912 3.161C2.723 2.972 2.4 3.106 2.4 3.373V7.2Z" fill="black"/>
</svg>