<svg xmlns="http://www.w3.org/2000/svg" width="24" height="24" fill="currentColor" viewBox="0 0 24 24"><path d="M21.102 6.474l-3.576-3.576a1.404 1.404 0 0 0-1.001-0.415H3.9A1.416 1.416 0 0 0 2.483 3.9v16.2a1.416 1.416 0 0 0 1.417 1.417h16.2a1.416 1.416 0 0 0 1.417-1.417V7.475a1.404 1.404 0 0 0-0.415-1.001m-4.85 13.829H7.746v-5.873a0.204 0.204 0 0 1 0.203-0.203h8.1a0.204 0.204 0 0 1 0.203 0.203z m4.05-0.203a0.204 0.204 0 0 1-0.203 0.203h-2.633v-5.873a1.416 1.416 0 0 0-1.417-1.417h-8.1a1.416 1.416 0 0 0-1.417 1.417v5.873H3.899a0.204 0.204 0 0 1-0.203-0.203V3.9a0.204 0.204 0 0 1 0.203-0.203H16.524a0.204 0.204 0 0 1 0.143 0.059l3.576 3.576a0.204 0.204 0 0 1 0.059 0.143zM15.037 6.33a0.607 0.607 0 0 1-0.607 0.607H8.76a0.608 0.608 0 0 1 0-1.215h5.67a0.607 0.607 0 0 1 0.607 0.607z"/></svg>