<svg xmlns="http://www.w3.org/2000/svg" fill="currentColor" viewBox="0 0 24 24" width="24" height="24"><path d="M8.963 12.81a0.607 0.607 0 0 1 0.607-0.607h6.48a0.608 0.608 0 0 1 0 1.215h-6.48a0.607 0.607 0 0 1-0.607-0.607z m0.607-2.633h6.48a0.608 0.608 0 0 0 0-1.215h-6.48a0.607 0.607 0 0 0 0 1.214zM22.327 18.48a3.036 3.036 0 0 1-3.037 3.037h-11.34A3.036 3.036 0 0 1 4.913 18.48V5.52a1.823 1.823 0 0 0-3.646 0c0 0.684 0.565 1.133 0.571 1.138a0.607 0.607 0 1 1-0.733 0.968c-0.041-0.032-1.052-0.805-1.052-2.106a3.036 3.036 0 0 1 3.037-3.037H16.86A3.036 3.036 0 0 1 19.897 5.52v10.733h1.013a0.6 0.6 0 0 1 0.365 0.121c0.041 0.032 1.052 0.805 1.052 2.106m-12.555 0c0-0.684-0.566-1.133-0.572-1.138a0.607 0.607 0 0 1 0.369-1.09h9.113V5.519a1.824 1.824 0 0 0-1.823-1.823h-11.34a3 3 0 0 1 0.607 1.823v12.96a1.823 1.823 0 0 0 3.644 0z m11.34 0a1.512 1.512 0 0 0-0.44-1.013h-9.9a2.52 2.52 0 0 1 0.215 1.013 3.024 3.024 0 0 1-0.607 1.823h8.91a1.824 1.824 0 0 0 1.823-1.823z"/></svg>