<svg xmlns="http://www.w3.org/2000/svg" width="24" height="24" fill="currentColor" viewBox="0 0 24 24"><path d="M20.1 3.293H3.9a1.416 1.416 0 0 0-1.417 1.417v5.67c0 5.258 2.544 8.444 4.677 10.19 2.302 1.883 4.584 2.52 4.68 2.547a0.6 0.6 0 0 0 0.321 0c0.096-0.026 2.378-0.664 4.68-2.547 2.135-1.746 4.678-4.931 4.677-10.19V4.71a1.416 1.416 0 0 0-1.417-1.417z m0.203 7.087c0 3.823-1.411 6.924-4.197 9.22A13.32 13.32 0 0 1 12 21.894a13.2 13.2 0 0 1-4.106-2.294c-2.784-2.296-4.196-5.396-4.197-9.22V4.71a0.204 0.204 0 0 1 0.203-0.203h16.2a0.204 0.204 0 0 1 0.203 0.203z m-3.823-1.24a0.607 0.607 0 0 1 0 0.86l-5.67 5.67a0.607 0.607 0 0 1-0.86 0l-2.43-2.43a0.607 0.607 0 0 1 0.86-0.86l2 2 5.24-5.24a0.607 0.607 0 0 1 0.86 0"/></svg>