<svg width="24" height="24" viewBox="0 0 24 24" fill="none" xmlns="http://www.w3.org/2000/svg">
<path d="M12 15C13.0355 15 13.875 14.1605 13.875 13.125C13.875 12.0895 13.0355 11.25 12 11.25C10.9645 11.25 10.125 12.0895 10.125 13.125C10.125 14.1605 10.9645 15 12 15ZM12 15V17.25M8.25 8.25V5.25C8.25 4.25544 8.64509 3.30161 9.34835 2.59835C10.0516 1.89509 11.0054 1.5 12 1.5C12.9946 1.5 13.9484 1.89509 14.6517 2.59835C15.3549 3.30161 15.75 4.25544 15.75 5.25V8.25M4.5 8.25H19.5C19.9142 8.25 20.25 8.58579 20.25 9V19.5C20.25 19.9142 19.9142 20.25 19.5 20.25H4.5C4.08579 20.25 3.75 19.9142 3.75 19.5V9C3.75 8.58579 4.08579 8.25 4.5 8.25Z" stroke="black" stroke-width="1.5" stroke-linecap="round" stroke-linejoin="round"/>
</svg>
