<svg width="24" height="24" viewBox="0 0 24 24" fill="none" xmlns="http://www.w3.org/2000/svg">
<path d="M13.6359 2.9999H10.3631M10.3631 21.0001H13.6359M17.7272 2.9999H20.1817C20.3987 2.9999 20.6068 3.08611 20.7603 3.23955C20.9137 3.39299 20.9999 3.6011 20.9999 3.8181V6.27268M20.9999 13.6364V10.3637M17.7272 21.0001H20.1817C20.3987 21.0001 20.6068 20.9139 20.7603 20.7604C20.9137 20.607 20.9999 20.3989 20.9999 20.1819V17.7273M2.99951 10.3637V13.6364M6.27228 21.0001H3.8177C3.60071 21.0001 3.3926 20.9139 3.23916 20.7604C3.08571 20.607 2.99951 20.3989 2.99951 20.1819V17.7273M6.2725 2.99988H3.81792C3.60092 2.99988 3.39281 3.08608 3.23937 3.23952C3.08593 3.39296 2.99973 3.60107 2.99973 3.81807V6.27265M18.3945 9.44208V5.60519H14.5576M18.3945 5.60519L13.9182 10.0816M5.6049 14.5579V18.3948H9.44179M5.6049 18.3948L10.0813 13.9184M14.5576 18.3948H18.3945V14.5579M18.3945 18.3948L13.9182 13.9184M9.4416 5.60516H5.60471V9.44205M5.60471 5.60516L10.0811 10.0815" stroke="black" stroke-width="1.27896" stroke-linecap="round" stroke-linejoin="round"/>
</svg>
