<svg xmlns="http://www.w3.org/2000/svg" width="24" height="24" fill="currentColor" viewBox="0 0 24 24"><path d="M16.86 15.443a3.84 3.84 0 0 0-2.866 1.283l-4.951-3.183a3.84 3.84 0 0 0 0-3.086l4.951-3.183a3.847 3.847 0 1 0-0.657-1.021L8.386 9.436a3.847 3.847 0 1 0 0 5.128l4.951 3.183a3.847 3.847 0 1 0 3.523-2.304m0-13.366a2.633 2.633 0 1 1-2.633 2.633 2.633 2.633 0 0 1 2.633-2.633M5.52 14.633A2.633 2.633 0 1 1 8.153 12 2.633 2.633 0 0 1 5.52 14.633m11.34 7.29a2.633 2.633 0 1 1 2.633-2.633 2.633 2.633 0 0 1-2.633 2.633"/></svg>