<svg xmlns="http://www.w3.org/2000/svg" width="24" height="24" fill="currentColor" viewBox="0 0 24 24"><path d="M22.53 16.253H5.176c0.338-0.662 0.682-1.351 1.018-2.055a2.4 2.4 0 0 0 0.436 0.036c1.441 0 3.148-1.126 5.096-3.363 0.101 0.304 0.223 0.632 0.372 0.968 0.697 1.565 1.588 2.369 2.648 2.389h0.039c0.892 0 1.793-0.584 2.734-1.779 0.59 0.836 1.936 1.78 5.012 1.779a0.607 0.607 0 0 0 0-1.214c-4.019 0-4.241-1.681-4.253-1.829a0.588 0.588 0 0 0-0.42-0.587 0.617 0.617 0 0 0-0.697 0.263c-1.231 1.89-2.032 2.16-2.393 2.154-1.092-0.022-1.934-2.398-2.173-3.543a0.607 0.607 0 0 0-1.07-0.256c-1.89 2.369-3.575 3.698-4.773 3.792 2.412-5.273 3.144-8.628 2.232-10.241-0.282-0.498-0.868-1.092-2.058-1.092-1.519 0-2.734 1.481-3.322 4.06-0.69 3.022-0.301 6.672 1.471 7.988-0.42 0.875-0.851 1.729-1.267 2.531H1.469a0.607 0.607 0 0 0 0 1.214h1.697c-1.226 2.286-2.203 3.914-2.218 3.94a0.607 0.607 0 1 0 1.04 0.625c0.017-0.026 1.17-1.951 2.553-4.565h17.987a0.607 0.607 0 0 0 0-1.214zM4.79 6.004c0.431-1.892 1.271-3.115 2.139-3.116 0.648 0 0.875 0.254 0.999 0.476 0.406 0.709 0.607 2.85-2.317 9.213-1.044-1.043-1.435-3.887-0.821-6.573"/></svg>