<svg width="24" height="24" viewBox="0 0 24 24" fill="none" xmlns="http://www.w3.org/2000/svg">
<path d="M12 7.5C12 8.74264 10.9926 9.75 9.75 9.75C8.50736 9.75 7.5 8.74264 7.5 7.5M12 7.5C12 6.25736 10.9926 5.25 9.75 5.25C8.50736 5.25 7.5 6.25736 7.5 7.5M12 7.5H20.25M7.5 7.5H3.75M18 16.5C18 17.7426 16.9926 18.75 15.75 18.75C14.5074 18.75 13.5 17.7426 13.5 16.5M18 16.5C18 15.2574 16.9926 14.25 15.75 14.25C14.5074 14.25 13.5 15.2574 13.5 16.5M18 16.5H20.25M13.5 16.5H3.75" stroke="black" stroke-width="1.5" stroke-linecap="round" stroke-linejoin="round"/>
</svg>
