<svg width="24" height="24" viewBox="0 0 24 24" fill="none" xmlns="http://www.w3.org/2000/svg">
<path d="M16.1995 4.48446C16.2184 4.48838 16.2373 4.49278 16.2563 4.49767L18.6113 5.10476C19.1316 5.23887 19.4952 5.70805 19.4952 6.24532V18.5732C19.4952 18.9444 19.3217 19.283 19.043 19.5011C18.9178 19.5991 18.7713 19.6728 18.6098 19.7142L16.2547 20.3179C15.5097 20.5089 14.7844 19.9461 14.7844 19.1769V5.63823C14.7844 4.88797 15.4743 4.33426 16.1995 4.48446ZM16.1995 4.48446L15.4351 4.28734C15.0306 4.18303 14.6011 4.30077 14.3063 4.59677L8.60924 10.318M16.1995 4.48446L16.5019 4.56246M8.13462 14.1565L4.88464 16.6929C4.50796 16.9869 3.97009 16.9488 3.63853 16.6048C3.2861 16.2391 3.29085 15.6587 3.64923 15.2988L6.46513 12.4709M3.95575 8.03184L3.90551 8.0436C3.37286 8.16833 2.99621 8.64339 2.99622 9.19044L2.99629 15.7193C2.9963 16.3681 3.52229 16.8941 4.17113 16.8941M18.8347 19.6545L15.4519 20.5119C15.0493 20.6139 14.6228 20.4964 14.3293 20.2025L3.63489 9.49687C3.28866 9.15028 3.2882 8.58887 3.63386 8.24171C3.94953 7.92467 4.45166 7.89171 4.80606 8.16476L14.7844 15.8527M14.7844 8.96712L10.7336 12.1286" stroke="black" stroke-width="1.5" stroke-linecap="round" stroke-linejoin="round"/>
</svg>
