<svg width="24" height="24" viewBox="0 0 24 24" fill="none" xmlns="http://www.w3.org/2000/svg">
<path d="M16.2546 20.3179L16.0684 19.5914V19.5914L16.2546 20.3179ZM18.6097 19.7142L18.7959 20.4407V20.4407L18.6097 19.7142ZM18.6112 5.10476L18.424 5.83101L18.6112 5.10476ZM16.2562 4.49767L16.4434 3.77141L16.2562 4.49767ZM4.80595 8.16476L4.34821 8.75888H4.34821L4.80595 8.16476ZM14.3291 20.2025L13.7985 20.7326V20.7326L14.3291 20.2025ZM3.63478 9.49687L3.10417 10.0269H3.10417L3.63478 9.49687ZM18.8346 19.6545L18.6503 18.9275V18.9275L18.8346 19.6545ZM15.4518 20.5119L15.2676 19.7848L15.4518 20.5119ZM3.63374 8.24171L3.10227 7.71253L3.10227 7.71253L3.63374 8.24171ZM4.88453 16.6929L5.34596 17.2842H5.34596L4.88453 16.6929ZM3.64912 15.2988L3.11767 14.7696H3.11767L3.64912 15.2988ZM3.63842 16.6048L3.09837 17.1252H3.09837L3.63842 16.6048ZM14.3062 4.59677L13.7748 4.06756V4.06756L14.3062 4.59677ZM15.435 4.28734L15.6222 3.5611V3.5611L15.435 4.28734ZM4.12664 8.76208C4.52995 8.66764 4.78033 8.26413 4.68588 7.86083C4.59144 7.45753 4.18793 7.20715 3.78463 7.30159L3.95564 8.03184L4.12664 8.76208ZM16.2562 4.49767L16.069 5.22392L18.424 5.83101L18.6112 5.10476L18.7984 4.3785L16.4434 3.77141L16.2562 4.49767ZM19.495 6.24532H18.745V18.5732H19.495H20.245V6.24532H19.495ZM18.6097 19.7142L18.4234 18.9877L16.0684 19.5914L16.2546 20.3179L16.4409 21.0444L18.7959 20.4407L18.6097 19.7142ZM14.7843 19.1769H15.5343V5.63823H14.7843H14.0343V19.1769H14.7843ZM16.2546 20.3179L16.0684 19.5914C15.7977 19.6608 15.5343 19.4563 15.5343 19.1769H14.7843H14.0343C14.0343 20.4359 15.2214 21.357 16.4409 21.0444L16.2546 20.3179ZM19.495 18.5732H18.745C18.745 18.7686 18.6127 18.9392 18.4234 18.9877L18.6097 19.7142L18.7959 20.4407C19.6487 20.2221 20.245 19.4536 20.245 18.5732H19.495ZM18.6112 5.10476L18.424 5.83101C18.613 5.87973 18.745 6.05016 18.745 6.24532H19.495H20.245C20.245 5.36594 19.65 4.59801 18.7984 4.3785L18.6112 5.10476ZM16.2562 4.49767L16.4434 3.77141C15.2233 3.45688 14.0343 4.3782 14.0343 5.63823H14.7843H15.5343C15.5343 5.35859 15.7982 5.15412 16.069 5.22392L16.2562 4.49767ZM4.80595 8.16476L4.34821 8.75888L14.3448 16.4609L14.8025 15.8668L15.2603 15.2727L5.26369 7.57065L4.80595 8.16476ZM14.3291 20.2025L14.8598 19.6725L4.16539 8.96682L3.63478 9.49687L3.10417 10.0269L13.7985 20.7326L14.3291 20.2025ZM18.8346 19.6545L18.6503 18.9275L15.2676 19.7848L15.4518 20.5119L15.6361 21.2389L19.0188 20.3815L18.8346 19.6545ZM14.3291 20.2025L13.7985 20.7326C14.2789 21.2135 14.9771 21.4059 15.6361 21.2389L15.4518 20.5119L15.2676 19.7848C15.1213 19.8219 14.9664 19.7792 14.8598 19.6725L14.3291 20.2025ZM3.63374 8.24171L3.10227 7.71253C2.46491 8.35266 2.46576 9.38784 3.10417 10.0269L3.63478 9.49687L4.16539 8.96682C4.11134 8.91272 4.11127 8.82508 4.16522 8.77089L3.63374 8.24171ZM18.9562 19.067L18.4985 19.6612C18.2231 19.449 18.3134 19.0129 18.6503 18.9275L18.8346 19.6545L19.0188 20.3815C19.8953 20.1594 20.1302 19.0248 19.4139 18.4729L18.9562 19.067ZM4.80595 8.16476L5.26369 7.57065C4.61021 7.06716 3.68433 7.12794 3.10227 7.71253L3.63374 8.24171L4.16522 8.77089C4.2145 8.7214 4.29288 8.71625 4.34821 8.75888L4.80595 8.16476ZM14.9307 8.85288L14.4692 8.26162L10.272 11.5373L10.7334 12.1286L11.1949 12.7198L15.3921 9.44413L14.9307 8.85288ZM8.13451 14.1565L7.67308 13.5653L4.42309 16.1017L4.88453 16.6929L5.34596 17.2842L8.59595 14.7478L8.13451 14.1565ZM3.64912 15.2988L4.18057 15.828L6.99647 13.0001L6.46502 12.4709L5.93357 11.9417L3.11767 14.7696L3.64912 15.2988ZM3.63842 16.6048L4.17847 16.0844C4.10928 16.0126 4.11021 15.8986 4.18057 15.828L3.64912 15.2988L3.11767 14.7696C2.47127 15.4187 2.46269 16.4656 3.09837 17.1252L3.63842 16.6048ZM4.88453 16.6929L4.42309 16.1017C4.34915 16.1594 4.24355 16.1519 4.17847 16.0844L3.63842 16.6048L3.09837 17.1252C3.6964 17.7458 4.66655 17.8144 5.34596 17.2842L4.88453 16.6929ZM8.60913 10.318L9.14058 10.8472L14.8377 5.12598L14.3062 4.59677L13.7748 4.06756L8.07768 9.78877L8.60913 10.318ZM15.435 4.28734L15.2477 5.01358L16.3145 5.2887L16.5018 4.56246L16.6891 3.83622L15.6222 3.5611L15.435 4.28734ZM14.3062 4.59677L14.8377 5.12598C14.9447 5.01846 15.1007 4.97569 15.2477 5.01358L15.435 4.28734L15.6222 3.5611C14.9602 3.39037 14.2572 3.58307 13.7748 4.06756L14.3062 4.59677ZM3.9054 8.0436L4.0764 8.77384L4.12664 8.76208L3.95564 8.03184L3.78463 7.30159L3.73439 7.31336L3.9054 8.0436ZM2.9961 9.19044L2.2461 9.19045L2.24618 15.7193L2.99618 15.7193L3.74618 15.7193L3.7461 9.19043L2.9961 9.19044ZM4.17102 16.8941V16.1441C3.93639 16.1441 3.74618 15.9539 3.74618 15.7193L2.99618 15.7193L2.24618 15.7193C2.24619 16.7824 3.10797 17.6441 4.17102 17.6441V16.8941ZM3.9054 8.0436L3.73439 7.31336C2.86258 7.51751 2.24609 8.29506 2.2461 9.19045L2.9961 9.19044L3.7461 9.19043C3.7461 8.99172 3.88292 8.81915 4.0764 8.77384L3.9054 8.0436Z" fill="black"/>
</svg>
