<svg width="24" height="24" viewBox="0 0 24 24" fill="none" xmlns="http://www.w3.org/2000/svg">
<path d="M9 10.5H15M9 13.5H15M4.23281 21.5728C4.12357 21.6647 3.99038 21.7235 3.84887 21.7423C3.70737 21.7612 3.56343 21.7392 3.43397 21.6791C3.30451 21.6189 3.1949 21.523 3.11803 21.4028C3.04116 21.2825 3.00021 21.1428 3 21V6C3 5.80109 3.07902 5.61032 3.21967 5.46967C3.36032 5.32902 3.55109 5.25 3.75 5.25H20.25C20.4489 5.25 20.6397 5.32902 20.7803 5.46967C20.921 5.61032 21 5.80109 21 6V18C21 18.1989 20.921 18.3897 20.7803 18.5303C20.6397 18.671 20.4489 18.75 20.25 18.75H7.5L4.23281 21.5728Z" stroke="black" stroke-width="1.5" stroke-linecap="round" stroke-linejoin="round"/>
</svg>
