<svg width="24" height="24" viewBox="0 0 24 24" fill="none" xmlns="http://www.w3.org/2000/svg">
<path d="M19.4248 6.08008C19.7009 6.08008 19.9248 6.30394 19.9248 6.58008C19.9248 6.85622 19.7009 7.08008 19.4248 7.08008H4.5752C4.29905 7.08008 4.0752 6.85622 4.0752 6.58008C4.0752 6.30394 4.29905 6.08008 4.5752 6.08008H19.4248Z" fill="black"/>
<path d="M19.4248 16.9199C19.7009 16.9199 19.9248 17.1438 19.9248 17.4199C19.9248 17.6961 19.7009 17.9199 19.4248 17.9199H4.5752C4.29905 17.9199 4.0752 17.6961 4.0752 17.4199C4.0752 17.1438 4.29905 16.9199 4.5752 16.9199H19.4248Z" fill="black"/>
<path d="M17.9199 19.4248C17.9199 19.7009 17.6961 19.9248 17.4199 19.9248C17.1438 19.9248 16.9199 19.7009 16.9199 19.4248L16.9199 4.5752C16.9199 4.29905 17.1438 4.0752 17.4199 4.0752C17.6961 4.0752 17.9199 4.29905 17.9199 4.5752L17.9199 19.4248Z" fill="black"/>
<path d="M7.08008 19.4248C7.08008 19.7009 6.85622 19.9248 6.58008 19.9248C6.30394 19.9248 6.08008 19.7009 6.08008 19.4248L6.08008 4.5752C6.08008 4.29905 6.30394 4.0752 6.58008 4.0752C6.85622 4.0752 7.08008 4.29905 7.08008 4.5752L7.08008 19.4248Z" fill="black"/>
<path d="M12.5002 19.4248C12.5002 19.7009 12.2763 19.9248 12.0002 19.9248C11.7241 19.9248 11.5002 19.7009 11.5002 19.4248L11.5002 4.5752C11.5002 4.29905 11.7241 4.0752 12.0002 4.0752C12.2763 4.0752 12.5002 4.29905 12.5002 4.5752L12.5002 19.4248Z" fill="black"/>
<path d="M4.57539 12.5002C4.29925 12.5002 4.07539 12.2763 4.07539 12.0002C4.07539 11.7241 4.29925 11.5002 4.57539 11.5002L19.425 11.5002C19.7011 11.5002 19.925 11.7241 19.925 12.0002C19.925 12.2763 19.7011 12.5002 19.425 12.5002L4.57539 12.5002Z" fill="black"/>
</svg>
