<svg width="24" height="24" viewBox="0 0 24 24" fill="none" xmlns="http://www.w3.org/2000/svg">
<path d="M3.75 5.25H20.25M3.75 12H8.625M3.75 18.75H20.25M5.25 3.75L5.25 20.25M14.995 15.75V13.125M14.995 10.875V8.25M8.625 3.75L8.625 20.25M16.4999 13.125C16.7982 13.125 17.0844 13.0065 17.2954 12.7955C17.5064 12.5845 17.6249 12.2984 17.6249 12C17.6249 11.7016 17.5064 11.4155 17.2954 11.2045C17.0844 10.9935 16.7982 10.875 16.4999 10.875H12.3749C12.2754 10.875 12.18 10.8355 12.1097 10.7652C12.0394 10.6948 11.9999 10.5995 11.9999 10.5V8.625C11.9999 8.52554 12.0394 8.43016 12.1097 8.35983C12.18 8.28951 12.2754 8.25 12.3749 8.25H16.453C18.5207 8.25 20.2344 9.90375 20.2499 11.9714C20.2537 12.4663 20.1594 12.957 19.9727 13.4153C19.7859 13.8735 19.5103 14.2903 19.1617 14.6416C18.8131 14.9928 18.3984 15.2716 17.9416 15.4618C17.4847 15.6521 16.9948 15.75 16.4999 15.75H12.3749C12.2754 15.75 12.18 15.7105 12.1097 15.6402C12.0394 15.5698 11.9999 15.4745 11.9999 15.375V13.5C11.9999 13.4005 12.0394 13.3052 12.1097 13.2348C12.18 13.1645 12.2754 13.125 12.3749 13.125H16.4999Z" stroke="black" stroke-width="1.5" stroke-linecap="round" stroke-linejoin="round"/>
</svg>
