<svg xmlns="http://www.w3.org/2000/svg" width="24" height="24" fill="currentColor" viewBox="0 0 24 24"><path d="M18.976 12.298l-5.315-1.959-1.959-5.315a1.41 1.41 0 0 0-2.644 0l-1.959 5.315-5.315 1.959a1.41 1.41 0 0 0 0 2.644l5.315 1.959 1.959 5.315a1.41 1.41 0 0 0 2.644 0l1.959-5.315 5.315-1.959a1.41 1.41 0 0 0 0-2.644m-0.42 1.504l-5.577 2.056a0.6 0.6 0 0 0-0.36 0.36l-2.055 5.576a0.194 0.194 0 0 1-0.365 0l-2.056-5.576a0.6 0.6 0 0 0-0.36-0.36l-5.576-2.056a0.194 0.194 0 0 1 0-0.364l5.576-2.056a0.6 0.6 0 0 0 0.36-0.36l2.056-5.576a0.194 0.194 0 0 1 0.365 0l2.055 5.576a0.6 0.6 0 0 0 0.36 0.36l5.577 2.056a0.194 0.194 0 0 1 0 0.364m-4.733-10.712a0.607 0.607 0 0 1 0.607-0.607h1.823V0.66a0.608 0.608 0 0 1 1.215 0v1.823h1.823a0.608 0.608 0 0 1 0 1.215h-1.823v1.823a0.608 0.608 0 0 1-1.215 0V3.698h-1.823a0.607 0.607 0 0 1-0.607-0.607z m10.125 4.86a0.607 0.607 0 0 1-0.607 0.607h-1.013v1.013a0.607 0.607 0 0 1-1.214 0v-1.013h-1.013a0.608 0.608 0 0 1 0-1.215h1.013v-1.013a0.607 0.607 0 0 1 1.214 0v1.013h1.013a0.607 0.607 0 0 1 0.607 0.607z"/></svg>