<svg xmlns="http://www.w3.org/2000/svg" fill="currentColor" viewBox="0 0 24 24" width="24" height="24"><path d="M10.177 3.9v16.2a0.607 0.607 0 0 1-1.214 0v-7.493H2.938l2.202 2.203a0.607 0.607 0 1 1-0.86 0.86l-3.24-3.24a0.607 0.607 0 0 1 0-0.86l3.24-3.24a0.607 0.607 0 0 1 0.86 0.858l-2.202 2.204h6.025V3.899a0.607 0.607 0 0 1 1.214 0z m12.781 7.67l-3.24-3.24a0.607 0.607 0 0 0-0.858 0.858l2.202 2.204h-6.025V3.899a0.607 0.607 0 0 0-1.214 0v16.2a0.607 0.607 0 0 0 1.214 0v-7.493h6.025l-2.202 2.203a0.607 0.607 0 1 0 0.858 0.859l3.24-3.24a0.607 0.607 0 0 0 0-0.858"/></svg>