<svg xmlns="http://www.w3.org/2000/svg" width="24" height="24" fill="currentColor" viewBox="0 0 24 24"><path d="M21.221 9.458a1.2 1.2 0 0 0-1.056-.833l-5.084-.411-1.959-4.742a1.212 1.212 0 0 0-2.243 0L8.92 8.212l-5.084.413a1.2 1.2 0 0 0-1.056.834 1.22 1.22 0 0 0 .361 1.302l3.881 3.342-1.181 4.999a1.215 1.215 0 0 0 .472 1.266 1.19 1.19 0 0 0 1.342.051L12 17.748l4.352 2.676a1.19 1.19 0 0 0 1.342-.051 1.215 1.215 0 0 0 .472-1.266l-1.181-4.999 3.875-3.346a1.22 1.22 0 0 0 .361-1.304m-1.024.537-4.108 3.544a.51.51 0 0 0-.162.499l1.255 5.298a.2.2 0 0 1-.08.217.19.19 0 0 1-.219.008l-4.617-2.837a.51.51 0 0 0-.53 0L7.119 19.56a.19.19 0 0 1-.219-.008.2.2 0 0 1-.084-.217l1.255-5.298a.51.51 0 0 0-.162-.499L3.801 9.994a.2.2 0 0 1-.062-.224.19.19 0 0 1 .175-.139l5.393-.435a.51.51 0 0 0 .427-.311l2.078-5.029a.198.198 0 0 1 .37 0l2.078 5.029a.51.51 0 0 0 .427.311l5.393.435a.19.19 0 0 1 .175.139.2.2 0 0 1-.057.224z"/></svg>