<svg width="24" height="24" viewBox="0 0 24 24" fill="none" xmlns="http://www.w3.org/2000/svg">
<path d="M15.8396 13.3646L7.31727 5.55971M15.8396 13.3646L2.25 13.3646M15.8396 13.3646H21.75M20.9096 12.925L17.5918 9.88655C17.5126 9.814 17.4499 9.72529 17.408 9.62642C17.3661 9.52755 17.3459 9.42083 17.3488 9.31348C17.3517 9.20614 17.3777 9.10067 17.4249 9.00423C17.4722 8.90779 17.5396 8.82262 17.6227 8.75449L21.1387 6.01799C21.5418 5.57827 21.7537 4.9965 21.7277 4.40066C21.7017 3.80483 21.4399 3.24373 20.9999 2.8408C20.5599 2.43787 19.9778 2.22613 19.3817 2.25214C18.7855 2.27816 18.2241 2.5398 17.8209 2.97952L15.3998 6.71871C15.3391 6.80734 15.2601 6.8819 15.1681 6.93735C15.0761 6.9928 14.9732 7.02785 14.8665 7.04012C14.7597 7.05238 14.6516 7.04159 14.5494 7.00845C14.4472 6.97532 14.3533 6.92063 14.2741 6.84808L10.9564 3.80961C10.663 3.54099 10.275 3.39983 9.87754 3.41717C9.48009 3.43451 9.10582 3.60894 8.83705 3.90209L7.31727 5.55971L2.25004 11.0866L4.73491 13.3622M4.46179 13.1119L7.50195 9.79595M17.0002 21.75L20.3002 19L17.0002 16.25M7.15095 16.25L3.85095 19L7.15095 21.75M10.2001 20.3601C10.2001 21.1054 11.0062 21.7101 12.0001 21.7101C12.9941 21.7101 13.8001 21.1054 13.8001 20.3601C13.8001 18.5601 10.3003 19.2351 10.3003 17.6601C10.3003 16.9147 11.0062 16.3101 12.0001 16.3101C12.7454 16.3101 13.3293 16.6476 13.5751 17.1347M18.2778 10.5147L21.3868 13.3646" stroke="black" stroke-width="1.5" stroke-linecap="round" stroke-linejoin="round"/>
</svg>
