<svg width="24" height="24" viewBox="0 0 24 24" fill="none" xmlns="http://www.w3.org/2000/svg">
<path d="M7.31727 5.55709L6.76445 5.05024V5.05024L7.31727 5.55709ZM2.25004 11.0839L1.69723 10.5771C1.56275 10.7238 1.49208 10.9178 1.50076 11.1166C1.50944 11.3154 1.59676 11.5026 1.7435 11.637L2.25004 11.0839ZM8.83705 3.89946L8.28423 3.39262V3.39262L8.83705 3.89946ZM9.87754 3.41455L9.91023 4.16383L9.91023 4.16383L9.87754 3.41455ZM10.9564 3.80698L10.4498 4.36008L10.4498 4.36008L10.9564 3.80698ZM14.2741 6.84545L14.7807 6.29237L14.7806 6.29235L14.2741 6.84545ZM14.5494 7.00583L14.3181 7.71927L14.3181 7.71927L14.5494 7.00583ZM14.8665 7.03749L14.9521 7.78259L14.9521 7.78259L14.8665 7.03749ZM15.3998 6.71609L16.0187 7.13976C16.0223 7.13446 16.0258 7.12911 16.0293 7.12372L15.3998 6.71609ZM17.8209 2.9769L17.2681 2.47005C17.2398 2.50092 17.2142 2.5341 17.1914 2.56926L17.8209 2.9769ZM19.3817 2.24952L19.349 1.50023L19.3817 2.24952ZM20.9999 2.83818L21.5064 2.28508V2.28508L20.9999 2.83818ZM21.7277 4.39804L20.9784 4.43077V4.43077L21.7277 4.39804ZM21.1387 6.01536L21.5993 6.60723C21.6324 6.58151 21.6632 6.55307 21.6915 6.52221L21.1387 6.01536ZM17.6227 8.75186L17.162 8.16C17.157 8.16394 17.152 8.16794 17.147 8.17202L17.6227 8.75186ZM17.3488 9.31086L18.0985 9.33128V9.33128L17.3488 9.31086ZM17.408 9.6238L16.7175 9.91663L16.7175 9.91664L17.408 9.6238ZM17.5918 9.88392L18.0984 9.33082L18.0984 9.33081L17.5918 9.88392ZM20.4031 13.4755C20.7085 13.7552 21.1829 13.7344 21.4627 13.4289C21.7424 13.1235 21.7216 12.649 21.4161 12.3693L20.9096 12.9224L20.4031 13.4755ZM3.90897 12.6024C3.62905 12.9077 3.64963 13.3821 3.95495 13.6621C4.26026 13.942 4.73469 13.9214 5.01461 13.6161L4.46179 13.1092L3.90897 12.6024ZM8.05477 10.3002C8.33469 9.99486 8.31411 9.52043 8.00879 9.24051C7.70348 8.96059 7.22905 8.98117 6.94913 9.28648L7.50195 9.79333L8.05477 10.3002ZM2.25 12.612C1.83579 12.612 1.5 12.9478 1.5 13.362C1.5 13.7762 1.83579 14.112 2.25 14.112L2.25 13.362L2.25 12.612ZM21.75 14.112C22.1642 14.112 22.5 13.7762 22.5 13.362C22.5 12.9478 22.1642 12.612 21.75 12.612V13.362V14.112ZM16.1509 21.7481C16.1509 22.1623 16.4867 22.4981 16.9009 22.4981C17.3151 22.4981 17.6509 22.1623 17.6509 21.7481H16.9009H16.1509ZM14.1496 18.0406C13.8557 18.3325 13.8541 18.8074 14.146 19.1013C14.4379 19.3952 14.9128 19.3968 15.2067 19.1049L14.6781 18.5728L14.1496 18.0406ZM11.501 22.0674C11.6774 22.4422 12.1242 22.6031 12.4989 22.4267C12.8737 22.2503 13.0346 21.8035 12.8582 21.4288L12.1796 21.7481L11.501 22.0674ZM9.63933 16.35L10.3179 16.0307C10.1942 15.7678 9.92985 15.6 9.63933 15.6C9.3488 15.6 9.08441 15.7678 8.96071 16.0307L9.63933 16.35ZM6.42044 21.4288C6.24407 21.8035 6.40491 22.2503 6.7797 22.4267C7.15449 22.6031 7.60129 22.4422 7.77766 22.0674L7.09905 21.7481L6.42044 21.4288ZM11.4326 20.9104C11.8468 20.9104 12.1826 20.5746 12.1826 20.1604C12.1826 19.7462 11.8468 19.4104 11.4326 19.4104V20.1604V20.9104ZM7.84601 19.4104C7.4318 19.4104 7.09601 19.7462 7.09601 20.1604C7.09601 20.5746 7.4318 20.9104 7.84601 20.9104V20.1604V19.4104ZM15.8689 13.3889L16.3754 12.8358L16.3461 12.8089L15.8396 13.362L15.333 13.9151L15.3624 13.942L15.8689 13.3889ZM15.8396 13.362L16.3461 12.8089L7.82381 5.00399L7.31727 5.55709L6.81073 6.11019L15.333 13.9151L15.8396 13.362ZM4.73491 13.3596L5.24145 12.8065L2.75658 10.5308L2.25004 11.0839L1.7435 11.637L4.22837 13.9127L4.73491 13.3596ZM2.25004 11.0839L2.80286 11.5908L7.87009 6.06394L7.31727 5.55709L6.76445 5.05024L1.69723 10.5771L2.25004 11.0839ZM7.31727 5.55709L7.87009 6.06394L9.38987 4.40631L8.83705 3.89946L8.28423 3.39262L6.76445 5.05024L7.31727 5.55709ZM8.83705 3.89946L9.38987 4.40631C9.52421 4.25978 9.71138 4.17251 9.91023 4.16383L9.87754 3.41455L9.84484 2.66526C9.2488 2.69127 8.68742 2.95286 8.28423 3.39262L8.83705 3.89946ZM9.87754 3.41455L9.91023 4.16383C10.1091 4.15515 10.3032 4.22579 10.4498 4.36008L10.9564 3.80698L11.4629 3.25389C11.0229 2.85094 10.4409 2.63925 9.84484 2.66526L9.87754 3.41455ZM10.9564 3.80698L10.4498 4.36008L13.7676 7.39855L14.2741 6.84545L14.7806 6.29235L11.4629 3.25388L10.9564 3.80698ZM14.2741 6.84545L13.7675 7.39854C13.926 7.54365 14.1138 7.65302 14.3181 7.71927L14.5494 7.00583L14.7807 6.29238L14.7807 6.29237L14.2741 6.84545ZM14.5494 7.00583L14.3181 7.71927C14.5225 7.78553 14.7387 7.80711 14.9521 7.78259L14.8665 7.03749L14.7809 6.2924L14.7807 6.29238L14.5494 7.00583ZM14.8665 7.03749L14.9521 7.78259C15.1655 7.75806 15.3712 7.68799 15.5552 7.57709L15.1681 6.93473L14.781 6.29236L14.7808 6.2924L14.8665 7.03749ZM15.1681 6.93473L15.5552 7.57709C15.7392 7.4662 15.8973 7.31706 16.0187 7.13976L15.3998 6.71609L14.7809 6.29242L14.781 6.29236L15.1681 6.93473ZM15.3998 6.71609L16.0293 7.12372L18.4505 3.38453L17.8209 2.9769L17.1914 2.56926L14.7702 6.30845L15.3998 6.71609ZM17.8209 2.9769L18.3738 3.48374C18.6425 3.19064 19.0168 3.01615 19.4144 2.9988L19.3817 2.24952L19.349 1.50023C18.5542 1.53491 17.8057 1.88372 17.2681 2.47005L17.8209 2.9769ZM19.3817 2.24952L19.4144 2.9988C19.812 2.98146 20.2001 3.12268 20.4934 3.39127L20.9999 2.83818L21.5064 2.28508C20.9198 1.74782 20.1437 1.46555 19.349 1.50023L19.3817 2.24952ZM21.7277 4.39804L20.9784 4.43077C20.9957 4.82775 20.8546 5.21543 20.5859 5.50852L21.1387 6.01536L21.6915 6.52221C22.2291 5.93586 22.5117 5.16 22.477 4.36531L21.7277 4.39804ZM21.1387 6.01536L20.678 5.4235L17.162 8.16L17.6227 8.75186L18.0833 9.34373L21.5993 6.60723L21.1387 6.01536ZM17.6227 8.75186L17.147 8.17202C16.9809 8.30828 16.846 8.47866 16.7514 8.67163L17.4249 9.00161L18.0985 9.33159L18.0984 9.33171L17.6227 8.75186ZM17.4249 9.00161L16.7514 8.67163C16.6569 8.86459 16.6049 9.07562 16.5991 9.29044L17.3488 9.31086L18.0985 9.33128L18.0985 9.33159L17.4249 9.00161ZM17.3488 9.31086L16.5991 9.29044C16.5932 9.50526 16.6336 9.71881 16.7175 9.91663L17.408 9.6238L18.0985 9.33096L18.0985 9.33128L17.3488 9.31086ZM17.408 9.6238L16.7175 9.91664C16.8014 10.1145 16.9269 10.2919 17.0853 10.437L17.5918 9.88392L18.0984 9.33081L18.0985 9.33095L17.408 9.6238ZM20.9999 2.83818L20.4934 3.39127C20.7866 3.65986 20.9611 4.03379 20.9784 4.43077L21.7277 4.39804L22.477 4.36531C22.4422 3.57061 22.0931 2.82234 21.5064 2.28508L20.9999 2.83818ZM17.5918 9.88392L17.0853 10.437L20.4031 13.4755L20.9096 12.9224L21.4161 12.3693L18.0984 9.33082L17.5918 9.88392ZM4.46179 13.1092L5.01461 13.6161L8.05477 10.3002L7.50195 9.79333L6.94913 9.28648L3.90897 12.6024L4.46179 13.1092ZM2.25 13.362L2.25 14.112L15.8396 14.112V13.362V12.612L2.25 12.612L2.25 13.362ZM15.8396 13.362V14.112H21.75V13.362V12.612H15.8396V13.362ZM16.9009 20.6367H16.1509C16.1509 20.7014 16.1227 20.7814 16.035 20.8582C15.9458 20.9362 15.8051 20.9981 15.6307 20.9981V21.7481V22.4981C16.6492 22.4981 17.6509 21.7557 17.6509 20.6367H16.9009ZM15.6307 21.7481V20.9981C15.4563 20.9981 15.3157 20.9362 15.2265 20.8582C15.1388 20.7814 15.1106 20.7014 15.1106 20.6367H14.3606H13.6106C13.6106 21.7557 14.6123 22.4981 15.6307 22.4981V21.7481ZM14.3606 20.6367H15.1106C15.1106 20.5721 15.1388 20.492 15.2265 20.4153C15.3157 20.3373 15.4563 20.2754 15.6307 20.2754V19.5254V18.7754C14.6123 18.7754 13.6106 19.5178 13.6106 20.6367H14.3606ZM15.6307 19.5254V20.2754C15.8051 20.2754 15.9458 20.3373 16.035 20.4153C16.1227 20.492 16.1509 20.5721 16.1509 20.6367H16.9009H17.6509C17.6509 19.5178 16.6492 18.7754 15.6307 18.7754V19.5254ZM16.9009 21.7481H17.6509V19.3666H16.9009H16.1509V21.7481H16.9009ZM16.9009 19.3666H17.6509C17.6509 18.2478 16.6491 17.5052 15.6307 17.5052V18.2552V19.0052C15.805 19.0052 15.9457 19.0671 16.0349 19.1452C16.1227 19.222 16.1509 19.3021 16.1509 19.3666H16.9009ZM15.6307 18.2552V17.5052C15.1587 17.5052 14.5831 17.6102 14.1496 18.0406L14.6781 18.5728L15.2067 19.1049C15.2384 19.0734 15.3439 19.0052 15.6307 19.0052V18.2552ZM12.1796 21.7481L12.8582 21.4288L10.3179 16.0307L9.63933 16.35L8.96071 16.6694L11.501 22.0674L12.1796 21.7481ZM9.63933 16.35L8.96071 16.0307L6.42044 21.4288L7.09905 21.7481L7.77766 22.0674L10.3179 16.6694L9.63933 16.35ZM11.4326 20.1604V19.4104H7.84601V20.1604V20.9104H11.4326V20.1604Z" fill="black"/>
</svg>
