<svg width="24" height="24" viewBox="0 0 24 24" fill="none" xmlns="http://www.w3.org/2000/svg">
<path d="M15.8396 13.3629L7.31689 5.5577M15.8396 13.3629L2.25 13.3629M15.8396 13.3629L21.75 13.3629M4.73487 13.3605L2.25 11.0848L8.837 3.90038C9.10577 3.60723 9.48005 3.4328 9.87749 3.41546C10.2749 3.39812 10.663 3.53928 10.9563 3.8079L14.2741 6.84637C14.3533 6.91892 14.4472 6.97361 14.5494 7.00674C14.6516 7.03988 14.7597 7.05067 14.8664 7.03841C14.9732 7.02614 15.076 6.99109 15.168 6.93564C15.2601 6.88019 15.3391 6.80563 15.3997 6.717L17.8209 2.97781C18.2241 2.53809 18.7855 2.27645 19.3816 2.25043C19.9778 2.22442 20.5599 2.43616 20.9999 2.83909C21.4398 3.24202 21.7016 3.80312 21.7276 4.39896C21.7537 4.99479 21.5418 5.57656 21.1386 6.01628L17.6226 8.75278C17.5396 8.82091 17.4722 8.90608 17.4249 9.00252C17.3776 9.09896 17.3517 9.20443 17.3488 9.31177C17.3458 9.41912 17.366 9.52584 17.408 9.62471C17.4499 9.72358 17.5126 9.81229 17.5918 9.88484L20.9095 12.9233M4.46175 13.1102L7.5019 9.79424M9.08228 21.7509L6.5411 16.3509L3.99993 21.7509M8.33503 20.1627H4.7472M14.25 21.751H11.55V16.351M19.6999 21.751H16.9999V16.351M18.0721 10.3247L21.3898 13.3631" stroke="black" stroke-width="1.5" stroke-linecap="round" stroke-linejoin="round"/>
</svg>
