<svg xmlns="http://www.w3.org/2000/svg" width="24" height="24" fill="currentColor" viewBox="0 0 24 24"><path d="M21.517 12a0.607 0.607 0 0 1-0.607 0.607h-4.714c1.142 0.701 2.081 1.759 2.081 3.443 0 2.568-2.815 4.657-6.277 4.657s-6.277-2.089-6.277-4.657a0.608 0.608 0 0 1 1.215 0c0 1.898 2.272 3.443 5.063 3.443s5.063-1.544 5.063-3.443c0-1.846-1.565-2.693-4.098-3.443H3.091a0.607 0.607 0 0 1 0-1.214h17.82a0.607 0.607 0 0 1 0.607 0.607zM6.768 9.367a0.6 0.6 0 0 0 0.191-0.03 0.607 0.607 0 0 0 0.384-0.767 2.04 2.04 0 0 1-0.09-0.62c0-1.962 2.041-3.443 4.747-3.443 1.982 0 3.6 0.791 4.327 2.116a0.608 0.608 0 0 0 1.066-0.586C16.45 4.318 14.43 3.293 12 3.293c-3.398 0-5.963 2.002-5.963 4.657a3.24 3.24 0 0 0 0.154 1 0.612 0.612 0 0 0 0.577 0.417"/></svg>