<svg viewBox="0 0 24 24" fill="none" xmlns="http://www.w3.org/2000/svg" width="24" height="24">
<path fill-rule="evenodd" clip-rule="evenodd" d="M6.646 3.075L6.68 3.044C6.674 3.049 6.669 3.054 6.663 3.059 6.657 3.064 6.652 3.069 6.646 3.075Z" fill="black"/>
<path d="M6.391 16.432C6.56 16.291 6.632 16.078 6.599 15.876 6.583 15.773 6.539 15.673 6.468 15.587 6.384 15.487 6.275 15.421 6.157 15.391 5.977 15.344 5.777 15.382 5.623 15.511L1.127 19.256C0.991 19.37 0.912 19.54 0.912 19.718 0.912 19.896 0.991 20.064 1.127 20.178L5.623 23.925C5.877 24.137 6.255 24.102 6.468 23.848 6.577 23.717 6.621 23.553 6.603 23.397 6.587 23.248 6.515 23.106 6.391 23.003L2.449 19.717 6.391 16.432Z" fill="black"/>
<path d="M13.742 21.379C13.763 21.455 13.773 21.536 13.773 21.624 13.773 21.96 13.629 22.236 13.341 22.452 13.053 22.66 12.593 22.764 11.961 22.764 11.529 22.764 11.117 22.716 10.725 22.62 10.333 22.524 9.961 22.372 9.609 22.164 9.457 22.068 9.317 22.032 9.189 22.056 9.061 22.08 8.953 22.144 8.865 22.248 8.785 22.344 8.733 22.46 8.709 22.596 8.693 22.724 8.713 22.856 8.769 22.992 8.825 23.128 8.925 23.244 9.069 23.34 9.105 23.363 9.143 23.386 9.18 23.409 9.4 23.539 9.643 23.652 9.909 23.748 10.221 23.852 10.553 23.928 10.905 23.976 11.257 24.032 11.609 24.06 11.961 24.06 12.473 24.06 12.933 24 13.341 23.88 13.721 23.768 14.049 23.611 14.325 23.409 14.345 23.394 14.365 23.379 14.385 23.364 14.681 23.14 14.905 22.872 15.057 22.56 15.217 22.248 15.297 21.9 15.297 21.516 15.297 21.339 15.28 21.173 15.246 21.017 15.165 20.643 14.985 20.33 14.709 20.076 14.677 20.045 14.643 20.016 14.608 19.987 14.225 19.672 13.67 19.437 12.945 19.284L11.637 19.008C11.517 18.983 11.406 18.956 11.304 18.926 11.012 18.841 10.795 18.736 10.653 18.612 10.461 18.436 10.365 18.204 10.365 17.916L10.365 17.895C10.368 17.648 10.437 17.435 10.569 17.256 10.713 17.064 10.917 16.916 11.181 16.812 11.445 16.708 11.761 16.656 12.129 16.656 12.481 16.656 12.809 16.692 13.113 16.764 13.417 16.836 13.717 16.956 14.013 17.124 14.181 17.22 14.329 17.26 14.457 17.244 14.593 17.228 14.705 17.176 14.793 17.088 14.881 17 14.937 16.896 14.961 16.776 14.985 16.648 14.973 16.52 14.925 16.392 14.885 16.264 14.801 16.156 14.673 16.068 14.329 15.836 13.941 15.66 13.509 15.54 13.077 15.42 12.621 15.36 12.141 15.36 11.653 15.36 11.205 15.424 10.797 15.552 10.397 15.672 10.049 15.848 9.753 16.08 9.545 16.247 9.371 16.437 9.23 16.65 9.175 16.732 9.126 16.818 9.081 16.908 8.921 17.228 8.841 17.584 8.841 17.976L8.841 18.004C8.847 18.615 9.03 19.11 9.393 19.488 9.733 19.828 10.23 20.08 10.885 20.243 10.954 20.26 11.025 20.276 11.097 20.292L12.417 20.568C12.913 20.672 13.261 20.804 13.461 20.964 13.604 21.074 13.698 21.212 13.742 21.379Z" fill="black"/>
<path d="M18.372 15.39C18.118 15.178 17.739 15.213 17.527 15.468 17.463 15.545 17.421 15.634 17.401 15.727 17.356 15.937 17.426 16.165 17.603 16.313L21.546 19.599 17.603 22.883C17.447 23.014 17.374 23.208 17.39 23.397 17.401 23.515 17.446 23.631 17.527 23.728 17.739 23.983 18.118 24.017 18.372 23.805L22.867 20.059C23.004 19.945 23.083 19.776 23.083 19.597 23.083 19.42 23.004 19.251 22.867 19.137L18.372 15.39Z" fill="black"/>
<path d="M0 13.452C0 13.783 0.269 14.052 0.6 14.052H23.4C23.731 14.052 24 13.783 24 13.452 24 13.12 23.731 12.852 23.4 12.852H21.76C21.67 12.67 21.554 12.5 21.414 12.347L18.141 8.753C18.121 8.731 18.106 8.705 18.096 8.677 18.087 8.648 18.085 8.617 18.088 8.588 18.092 8.558 18.101 8.528 18.117 8.503 18.132 8.478 18.153 8.457 18.177 8.44L22.213 5.844C22.242 5.826 22.268 5.805 22.293 5.783 22.887 5.242 23.242 4.486 23.28 3.684 23.317 2.881 23.034 2.097 22.493 1.503 21.952 0.909 21.197 0.554 20.394 0.517 19.592 0.479 18.806 0.762 18.212 1.303 18.187 1.326 18.164 1.35 18.144 1.376L15.185 5.156C15.166 5.178 15.142 5.195 15.116 5.208 15.089 5.221 15.059 5.229 15.029 5.23 14.999 5.231 14.969 5.225 14.941 5.213 14.913 5.201 14.888 5.183 14.868 5.161L11.595 1.568C11.199 1.133 10.645 0.873 10.057 0.846 9.469 0.818 8.895 1.026 8.46 1.422L6.68 3.044 6.646 3.075 0.675 8.514C0.43 8.737 0.413 9.117 0.636 9.362L2.818 11.747 3.815 12.852H0.6C0.269 12.852 0 13.12 0 13.452ZM17.254 9.562L20.251 12.852H16.396L7.915 3.542 9.268 2.309C9.468 2.127 9.732 2.032 10.002 2.045 10.272 2.058 10.526 2.177 10.708 2.377L13.981 5.969C14.117 6.118 14.284 6.237 14.47 6.316 14.656 6.395 14.856 6.434 15.058 6.429 15.26 6.424 15.458 6.376 15.639 6.288 15.821 6.2 15.983 6.073 16.111 5.918L16.12 5.905 19.051 2.165C19.406 1.856 19.867 1.693 20.339 1.715 20.823 1.738 21.279 1.952 21.606 2.311 21.932 2.67 22.104 3.143 22.081 3.628 22.059 4.101 21.853 4.546 21.51 4.871L17.516 7.438 17.503 7.446C17.336 7.56 17.196 7.708 17.091 7.881 16.986 8.053 16.92 8.246 16.896 8.447 16.872 8.647 16.893 8.851 16.954 9.043 17.016 9.235 17.118 9.412 17.254 9.562ZM1.927 8.997L7.028 4.35 14.772 12.852H5.439L4.104 11.387 7.258 8.514C7.503 8.291 7.521 7.911 7.297 7.667 7.074 7.422 6.695 7.404 6.45 7.627L3.296 10.5 1.927 8.997Z" fill="black"/>
</svg>