<svg viewBox="0 0 24 24" fill="none" xmlns="http://www.w3.org/2000/svg" width="24" height="24">
<path d="M11.99 22.668V16.26C11.99 16.004 11.922 15.812 11.786 15.684 11.658 15.548 11.47 15.48 11.222 15.48 10.974 15.48 10.782 15.548 10.646 15.684 10.518 15.812 10.454 16.004 10.454 16.26V23.184C10.454 23.431 10.522 23.628 10.658 23.772 10.794 23.908 10.986 23.976 11.234 23.976H15.47C15.686 23.976 15.85 23.92 15.962 23.808 15.974 23.796 15.985 23.783 15.996 23.771 16.093 23.655 16.142 23.503 16.142 23.316 16.142 23.108 16.082 22.948 15.962 22.836 15.85 22.724 15.686 22.668 15.47 22.668H11.99Z" fill="black"/>
<path d="M18.727 16.203C18.717 15.975 18.65 15.802 18.524 15.684 18.396 15.548 18.208 15.48 17.96 15.48 17.712 15.48 17.52 15.548 17.384 15.684 17.374 15.693 17.364 15.705 17.355 15.715 17.246 15.842 17.192 16.024 17.192 16.26V23.184C17.192 23.431 17.261 23.628 17.396 23.772 17.532 23.908 17.724 23.976 17.972 23.976H22.208C22.424 23.976 22.588 23.92 22.7 23.808 22.712 23.796 22.723 23.783 22.734 23.771 22.827 23.66 22.876 23.516 22.88 23.34V23.291C22.875 23.095 22.815 22.943 22.7 22.836 22.588 22.724 22.424 22.668 22.208 22.668H18.728V16.26C18.728 16.24 18.728 16.222 18.727 16.203Z" fill="black"/>
<path d="M0.936 23.372L0.936 23.592C0.947 23.657 0.967 23.717 0.996 23.771 1.031 23.835 1.079 23.892 1.14 23.94 1.26 24.028 1.416 24.072 1.608 24.072 1.816 24.072 1.976 24.02 2.088 23.916 2.13 23.876 2.172 23.828 2.213 23.771 2.281 23.676 2.347 23.556 2.412 23.412L3.002 22.02H7.129L7.728 23.412C7.789 23.554 7.855 23.673 7.925 23.771 7.966 23.826 8.008 23.875 8.052 23.916 8.18 24.02 8.356 24.072 8.58 24.072 8.764 24.072 8.912 24.032 9.024 23.952 9.088 23.902 9.137 23.841 9.172 23.771 9.199 23.717 9.218 23.657 9.228 23.592 9.252 23.44 9.22 23.272 9.132 23.088L5.952 16.068C5.848 15.836 5.72 15.672 5.568 15.576 5.424 15.472 5.26 15.42 5.076 15.42 4.884 15.42 4.712 15.472 4.56 15.576 4.416 15.672 4.292 15.836 4.188 16.068L1.02 23.088C0.977 23.187 0.949 23.282 0.936 23.372ZM3.533 20.796L5.052 17.184H5.076L6.605 20.796H3.533Z" fill="black"/>
<path d="M7.915 3.547L7.028 4.355 6.624 3.911C6.404 3.67 6.418 3.299 6.651 3.075L0.675 8.519C0.43 8.742 0.413 9.121 0.636 9.366L3.81 12.85H0.6C0.269 12.85 0 13.119 0 13.45 0 13.782 0.269 14.05 0.6 14.05H17.484L20.771 14.055 23.4 14.05C23.731 14.05 24 13.782 24 13.45 24 13.119 23.731 12.85 23.4 12.85H21.757C21.667 12.671 21.552 12.503 21.414 12.351L18.141 8.758C18.121 8.736 18.106 8.71 18.096 8.681 18.087 8.653 18.085 8.622 18.088 8.592 18.092 8.562 18.101 8.533 18.117 8.507 18.132 8.482 18.153 8.461 18.177 8.445L22.213 5.849C22.242 5.831 22.268 5.81 22.293 5.788 22.887 5.246 23.242 4.491 23.28 3.688 23.317 2.886 23.034 2.101 22.493 1.507 21.952 0.914 21.197 0.559 20.394 0.521 19.592 0.484 18.806 0.767 18.212 1.308 18.187 1.331 18.164 1.355 18.144 1.381L15.185 5.16C15.166 5.183 15.142 5.2 15.116 5.213 15.089 5.226 15.059 5.234 15.029 5.235 14.999 5.235 14.969 5.23 14.941 5.218 14.913 5.206 14.888 5.188 14.868 5.166L11.595 1.573C11.199 1.138 10.645 0.878 10.057 0.85 9.469 0.823 8.895 1.031 8.46 1.427L6.675 3.053C6.921 2.841 7.291 2.862 7.511 3.103L7.915 3.547ZM7.915 3.547L9.268 2.314C9.468 2.132 9.732 2.037 10.002 2.05 10.272 2.062 10.526 2.181 10.708 2.381L13.981 5.974C14.117 6.123 14.284 6.242 14.47 6.321 14.656 6.4 14.856 6.439 15.058 6.434 15.26 6.429 15.458 6.381 15.639 6.292 15.821 6.204 15.983 6.078 16.111 5.923L16.12 5.91 19.051 2.17C19.406 1.86 19.867 1.698 20.339 1.72 20.823 1.743 21.279 1.957 21.606 2.316 21.932 2.674 22.104 3.148 22.081 3.633 22.059 4.106 21.853 4.551 21.51 4.876L17.516 7.442 17.503 7.451C17.336 7.565 17.196 7.713 17.091 7.886 16.986 8.058 16.92 8.251 16.896 8.451 16.872 8.652 16.893 8.856 16.954 9.048 17.016 9.24 17.118 9.417 17.254 9.566L20.246 12.85H16.39L7.915 3.547ZM7.028 4.355L14.767 12.85H5.433L4.105 11.392 7.258 8.519C7.503 8.296 7.521 7.917 7.297 7.672 7.074 7.427 6.695 7.409 6.45 7.632L3.296 10.505 1.927 9.002 7.028 4.355Z" fill="black"/>
<path fill-rule="evenodd" clip-rule="evenodd" d="M7.915 3.547L7.028 4.355 6.624 3.911C6.404 3.67 6.418 3.299 6.651 3.075L6.675 3.053C6.921 2.841 7.291 2.862 7.511 3.103L7.915 3.547Z" fill="black"/>
</svg>