<svg width="24" height="24" viewBox="0 0 24 24" fill="none" xmlns="http://www.w3.org/2000/svg">
<path d="M15.8396 13.363L7.31689 5.55782M4.73487 13.3607L2.25 11.085L8.837 3.9005C9.10577 3.60736 9.48005 3.43293 9.87749 3.41558C10.2749 3.39824 10.663 3.5394 10.9563 3.80802L14.2741 6.84649C14.3533 6.91904 14.4472 6.97373 14.5494 7.00687C14.6516 7.04 14.7597 7.0508 14.8664 7.03853C14.9732 7.02626 15.076 6.99122 15.168 6.93576C15.2601 6.88031 15.3391 6.80575 15.3997 6.71712L17.8209 2.97793C18.2241 2.53822 18.7855 2.27657 19.3816 2.25056C19.9778 2.22454 20.5599 2.43629 20.9999 2.83921C21.4398 3.24214 21.7016 3.80324 21.7276 4.39908C21.7537 4.99492 21.5418 5.57669 21.1386 6.0164L17.6226 8.7529C17.5396 8.82103 17.4722 8.9062 17.4249 9.00264C17.3776 9.09909 17.3517 9.20455 17.3488 9.3119C17.3458 9.41924 17.366 9.52596 17.408 9.62483C17.4499 9.7237 17.5126 9.81241 17.5918 9.88496L20.9095 12.9234M4.46175 13.1103L7.5019 9.79436M8.84991 16.3512L10.1999 21.7512L11.9999 18.1512L13.7999 21.7512L15.1499 16.3512M18.0698 10.3228L21.3876 13.3612M2.25 13.3631H21.75" stroke="black" stroke-width="1.5" stroke-linecap="round" stroke-linejoin="round"/>
</svg>
