<svg viewBox="0 0 24 24" fill="none" xmlns="http://www.w3.org/2000/svg" width="24" height="24">
<path fill-rule="evenodd" clip-rule="evenodd" d="M12.322 8.9C12.246 8.873 12.16 8.884 12.094 8.931 12.027 8.978 11.988 9.055 11.988 9.136V11.013C11.988 11.103 12.036 11.185 12.113 11.23L13.739 12.168C13.809 12.209 13.896 12.213 13.97 12.179 14.044 12.145 14.097 12.077 14.112 11.997 14.231 11.352 14.117 10.686 13.789 10.118 13.461 9.55 12.94 9.118 12.322 8.9Z" fill="black"/>
<path fill-rule="evenodd" clip-rule="evenodd" d="M11.405 8.742C10.923 8.742 10.449 8.869 10.031 9.11 9.613 9.351 9.266 9.697 9.024 10.114 8.782 10.531 8.653 11.005 8.652 11.487 8.65 11.969 8.776 12.444 9.016 12.862 9.255 13.281 9.601 13.629 10.017 13.872 10.433 14.115 10.907 14.245 11.389 14.248 11.871 14.251 12.347 14.127 12.766 13.889 13.185 13.65 13.535 13.305 13.779 12.89 13.812 12.832 13.822 12.764 13.805 12.699 13.788 12.635 13.746 12.579 13.689 12.545L11.656 11.361V8.993C11.656 8.927 11.629 8.863 11.582 8.816 11.535 8.769 11.471 8.742 11.405 8.742Z" fill="black"/>
<path d="M2.399 22.252C2.399 20.951 2.991 19.722 4.01 18.83 5.027 17.94 6.391 17.452 7.799 17.452H9.95L8.575 16.076C8.34 15.841 8.34 15.462 8.575 15.227 8.809 14.993 9.189 14.993 9.423 15.227L11.823 17.627C12.057 17.862 12.057 18.241 11.823 18.476L9.423 20.876C9.189 21.11 8.809 21.11 8.575 20.876 8.34 20.641 8.34 20.262 8.575 20.027L9.95 18.652H7.799C6.661 18.652 5.583 19.048 4.8 19.733 4.019 20.416 3.599 21.325 3.599 22.252 3.599 22.583 3.33 22.852 2.999 22.852 2.667 22.852 2.399 22.583 2.399 22.252ZM4.204 14.814V6.151C4.204 5.818 4.328 5.491 4.56 5.245 4.793 4.998 5.117 4.852 5.463 4.852H17.272C18.041 4.852 18.606 5.502 18.606 6.23V21.552C18.606 21.886 18.48 22.212 18.248 22.458 18.015 22.705 17.691 22.852 17.345 22.852H12.889C12.558 22.851 12.289 22.583 12.289 22.252 12.289 21.92 12.558 21.652 12.889 21.652H17.345C17.348 21.652 17.352 21.651 17.357 21.649 17.361 21.647 17.368 21.643 17.375 21.635 17.391 21.619 17.406 21.589 17.406 21.552V6.23C17.406 6.169 17.383 6.122 17.354 6.091 17.326 6.062 17.297 6.052 17.272 6.052H5.463C5.461 6.052 5.457 6.052 5.453 6.054 5.448 6.056 5.44 6.06 5.433 6.068 5.417 6.084 5.404 6.114 5.404 6.151V14.814C5.404 15.145 5.135 15.414 4.804 15.414 4.472 15.414 4.204 15.145 4.204 14.814ZM7.204 3.65V3.172C7.204 2.838 7.324 2.508 7.553 2.256 7.784 2.002 8.11 1.847 8.463 1.847H20.269C21.057 1.847 21.601 2.531 21.601 3.253V19.126C21.601 19.46 21.481 19.791 21.252 20.043 21.021 20.296 20.695 20.45 20.341 20.45H19.801C19.47 20.45 19.201 20.182 19.201 19.85 19.201 19.519 19.47 19.251 19.801 19.25H20.343L20.346 19.249C20.35 19.248 20.357 19.244 20.365 19.235 20.383 19.215 20.401 19.176 20.401 19.126V3.253C20.401 3.178 20.374 3.121 20.343 3.087 20.313 3.054 20.286 3.047 20.269 3.047H8.463L8.46 3.048C8.456 3.05 8.45 3.054 8.441 3.063 8.423 3.083 8.404 3.122 8.404 3.172V3.65C8.404 3.982 8.135 4.25 7.804 4.25 7.472 4.25 7.204 3.982 7.204 3.65Z" fill="black"/>
</svg>