<svg width="24" height="24" viewBox="0 0 24 24" fill="none" xmlns="http://www.w3.org/2000/svg">
<path d="M22.5 19.5004H18L22.0472 14.1041C22.2423 13.8449 22.379 13.5467 22.448 13.2297C22.517 12.9127 22.5167 12.5846 22.447 12.2678C22.3774 11.951 22.24 11.653 22.0444 11.3942C21.8488 11.1354 21.5996 10.922 21.3138 10.7686C21.028 10.6151 20.7124 10.5253 20.3886 10.5053C20.0648 10.4852 19.7406 10.5354 19.438 10.6524C19.1355 10.7694 18.8618 10.9504 18.6358 11.1831C18.4097 11.4158 18.2367 11.6946 18.1284 12.0004M3.75 5.25L13.5 16.5M13.5 5.25L3.75 16.5" stroke="black" stroke-width="1.5" stroke-linecap="round" stroke-linejoin="round"/>
</svg>
