<svg xmlns="http://www.w3.org/2000/svg" width="24" height="24" fill="currentColor" viewBox="0 0 24 24"><path d="M23.947 13.62a0.607 0.607 0 0 1-0.607 0.607H18.48a0.607 0.607 0 0 1-0.486-0.972l4.37-5.827a1.823 1.823 0 1 0-3.176-1.706 0.607 0.607 0 0 1-1.145-0.406 3 3 0 0 1 0.437-0.81 3.04 3.04 0 0 1 4.86 3.652l-3.644 4.854h3.645a0.607 0.607 0 0 1 0.607 0.607z m-9.93-6.938a0.607 0.607 0 0 0-0.857 0.061L8.354 12.288 3.548 6.743a0.607 0.607 0 1 0-0.916 0.795l4.92 5.678-4.92 5.677a0.607 0.607 0 1 0 0.916 0.795l4.806-5.545 4.806 5.545a0.607 0.607 0 0 0 0.917-0.795l-4.92-5.677 4.92-5.678a0.607 0.607 0 0 0-0.061-0.856z"/></svg>