<svg xmlns="http://www.w3.org/2000/svg" width="24" height="24" fill="currentColor" viewBox="0 0 24 24"><path d="M21.462 3.109a0.607 0.607 0 0 0-0.571-0.571c-7.632-0.45-13.736 1.838-16.33 6.12-1.766 2.915-1.697 6.359 0.181 9.74l-2.082 2.082a0.607 0.607 0 1 0 0.86 0.858l2.082-2.082c1.748 0.971 3.514 1.459 5.212 1.46a8.64 8.64 0 0 0 4.527-1.278c4.282-2.593 6.569-8.698 6.12-16.33z m-6.749 15.289c-2.438 1.476-5.33 1.454-8.214-0.039l9.173-9.173a0.607 0.607 0 0 0-0.859-0.859L5.64 17.501c-1.494-2.885-1.519-5.771-0.04-8.214 2.297-3.79 7.759-5.852 14.681-5.563 0.283 6.917-1.778 12.38-5.569 14.676z"/></svg>