<svg width="24" height="24" viewBox="0 0 24 24" fill="none" xmlns="http://www.w3.org/2000/svg">
<g clip-path="url(#clip0_2240_6784)">
<path d="M3.7605 17.9922H1.5105C1.31159 17.9922 1.12082 17.9132 0.980168 17.7725C0.839516 17.6319 0.760498 17.4411 0.760498 17.2422V6.75C0.760498 6.55109 0.839516 6.36032 0.980168 6.21967C1.12082 6.07902 1.31159 6 1.5105 6L14.11 6.00566L21.2238 7.50566C21.6011 7.74219 21.5592 7.71181 21.9195 7.97441L23.257 13.5V17.2489C23.257 17.4479 23.178 17.6308 23.0374 17.7715C22.8967 17.9121 22.7059 17.9911 22.507 17.9911H16.3869M14.11 6.00566V15.7478M23.257 13.5L0.760498 13.5M16.3869 17.9911C16.3869 19.2338 15.3545 20.2478 14.1118 20.2478C12.8692 20.2478 11.8618 19.2405 11.8618 17.9978M16.3869 17.9911C16.3869 16.7485 15.3545 15.7478 14.1118 15.7478C12.8692 15.7478 11.8618 16.7552 11.8618 17.9978M11.8618 17.9978L8.2605 17.9922M8.2605 17.9922C8.2605 19.2348 7.25314 20.2422 6.0105 20.2422C4.76786 20.2422 3.7605 19.2348 3.7605 17.9922M8.2605 17.9922C8.2605 16.7495 7.25314 15.7422 6.0105 15.7422C4.76786 15.7422 3.7605 16.7495 3.7605 17.9922M23.0871 20.2422L19.1879 20.2422C19.118 20.2422 19.0575 20.2058 19.0418 20.1544C18.769 19.2606 20.317 17.9922 21.1653 17.9922M22.1663 17.9922H21.0056M19.18 20.2422L23.0792 20.2422C23.149 20.2422 23.2095 20.2058 23.2252 20.1544C23.498 19.2606 21.95 17.9922 21.1018 17.9922M20.1007 17.9922H21.2614" stroke="black" stroke-width="1.5" stroke-linecap="round" stroke-linejoin="round"/>
</g>
<defs>
<clipPath id="clip0_2240_6784">
<rect width="24" height="24" fill="white"/>
</clipPath>
</defs>
</svg>
