<svg width="24" height="24" viewBox="0 0 24 24" fill="none" xmlns="http://www.w3.org/2000/svg">
<path d="M15.75 12C15.75 14.0711 14.0711 15.75 12 15.75C9.92893 15.75 8.25 14.0711 8.25 12C8.25 9.92893 9.92893 8.25 12 8.25C14.0711 8.25 15.75 9.92893 15.75 12ZM15.75 12C15.75 14.0709 16.5 15.75 18.375 15.75C20.25 15.75 21 14.0709 21 12C21 10.22 20.4722 8.47991 19.4832 6.99987C18.4943 5.51983 17.0887 4.36628 15.4442 3.68509C13.7996 3.0039 11.99 2.82567 10.2442 3.17294C8.49836 3.5202 6.89472 4.37737 5.63604 5.63604C4.37737 6.89472 3.5202 8.49836 3.17294 10.2442C2.82567 11.99 3.0039 13.7996 3.68509 15.4442C4.36628 17.0887 5.51983 18.4943 6.99987 19.4832C8.47991 20.4722 10.22 21 12 21C13.8403 21 15.8241 20.4478 17.25 19.5M15.75 12L15.75 8.25" stroke="black" stroke-width="1.5" stroke-linecap="round" stroke-linejoin="round"/>
</svg>
