<svg viewBox="0 0 24 24" fill="none" xmlns="http://www.w3.org/2000/svg" width="24" height="24">
<path d="M12.708 15.831C13.155 15.831 13.517 16.194 13.518 16.641V20.084C13.517 20.531 13.155 20.893 12.708 20.893H11.29C10.843 20.893 10.48 20.531 10.48 20.084V16.641C10.48 16.194 10.843 15.831 11.29 15.831H12.708ZM8.759 4.107C8.841 4.107 8.921 4.125 8.993 4.155 9.065 4.186 9.129 4.23 9.183 4.284 9.291 4.393 9.359 4.543 9.359 4.709V9.557C9.359 9.56 9.36 9.565 9.36 9.568 9.36 9.572 9.359 9.576 9.359 9.579V19.289C9.358 19.496 9.253 19.679 9.094 19.787 8.998 19.851 8.882 19.889 8.759 19.889H3.071C2.293 19.889 1.662 19.257 1.662 18.478V5.517C1.662 4.739 2.293 4.108 3.071 4.107H8.759ZM20.892 4.107C21.67 4.108 22.301 4.739 22.302 5.517V9.431C22.312 9.475 22.318 9.52 22.318 9.567 22.318 9.613 22.312 9.659 22.302 9.702V14.293C22.312 14.337 22.32 14.382 22.32 14.429 22.32 14.476 22.312 14.521 22.302 14.564V18.478C22.302 19.257 21.671 19.889 20.892 19.889H15.239C14.991 19.889 14.777 19.738 14.686 19.522 14.656 19.451 14.639 19.372 14.639 19.289V4.709C14.639 4.405 14.865 4.156 15.157 4.116 15.185 4.112 15.213 4.107 15.243 4.107H20.892ZM2.862 18.478C2.862 18.594 2.956 18.689 3.071 18.689H8.159V15.028H2.862V18.478ZM15.839 18.689H20.892C21.008 18.689 21.102 18.594 21.102 18.478V15.029H15.839V18.689ZM15.839 13.829H21.102V10.167H15.839V13.829ZM2.862 13.828H8.159V10.168H2.862V13.828ZM12.721 10.43C12.955 10.196 13.335 10.195 13.569 10.43 13.803 10.664 13.803 11.044 13.569 11.278L12.847 11.999 13.569 12.721C13.803 12.955 13.803 13.335 13.569 13.569 13.335 13.803 12.955 13.803 12.721 13.569L11.999 12.847 11.278 13.569C11.044 13.803 10.664 13.803 10.43 13.569 10.195 13.335 10.196 12.955 10.43 12.721L11.15 11.999 10.43 11.278C10.195 11.044 10.196 10.664 10.43 10.43 10.664 10.195 11.044 10.195 11.278 10.43L11.999 11.15 12.721 10.43ZM3.071 5.307C2.956 5.308 2.862 5.402 2.862 5.517V8.968H8.159V5.307H3.071ZM15.839 8.967H21.102V5.517C21.101 5.402 21.008 5.308 20.892 5.307H15.839V8.967ZM12.708 3.081C13.155 3.081 13.517 3.444 13.518 3.891V7.334C13.518 7.781 13.155 8.143 12.708 8.143H11.29C10.843 8.143 10.48 7.781 10.48 7.334V3.891C10.481 3.444 10.843 3.081 11.29 3.081H12.708Z" fill="black"/>
</svg>