<svg viewBox="0 0 24 24" fill="none" xmlns="http://www.w3.org/2000/svg" width="24" height="24">
<path d="M20.818 4.102C21.646 4.103 22.318 4.774 22.318 5.602V9.521C22.32 9.537 22.323 9.553 22.323 9.57 22.323 9.586 22.32 9.602 22.318 9.618V11.024C22.32 11.05 22.32 11.075 22.318 11.101V18.398C22.318 19.226 21.646 19.897 20.818 19.898H3.178C2.35 19.898 1.678 19.226 1.678 18.398V14.44C1.678 14.437 1.677 14.433 1.677 14.43 1.677 14.426 1.678 14.422 1.678 14.418V9.581C1.678 9.577 1.677 9.574 1.677 9.57 1.677 9.566 1.678 9.562 1.678 9.558V5.602C1.678 4.774 2.35 4.102 3.178 4.102H20.818ZM17.917 18.698H20.818C20.984 18.697 21.118 18.563 21.118 18.398V15.496L17.917 18.698ZM14.934 18.698H16.22L21.118 13.799V12.514L14.934 18.698ZM20.48 10.17L11.953 18.698H13.237L21.118 10.817V10.17H20.48ZM9.357 18.31V18.698H10.256L18.783 10.17H17.497L9.357 18.31ZM2.878 18.398C2.878 18.563 3.013 18.698 3.178 18.698H8.157V15.03H2.878V18.398ZM9.357 15.329V16.613L15.8 10.17H14.516L9.357 15.329ZM2.878 13.83H8.157V10.17H2.878V13.83ZM9.357 13.632L12.819 10.17H9.357V13.632ZM15.837 8.97H21.118V5.602C21.118 5.437 20.984 5.303 20.818 5.302H15.837V8.97ZM3.178 5.302C3.013 5.302 2.878 5.437 2.878 5.602V8.97H8.157V5.302H3.178ZM9.357 8.97H14.637V5.302H9.357V8.97Z" fill="black"/>
</svg>