<svg xmlns="http://www.w3.org/2000/svg" width="24" height="24" fill="currentColor" viewBox="0 0 24 24"><path d="M21.72 4.103H2.28a0.607 0.607 0 0 0-0.607 0.607V18.48a1.416 1.416 0 0 0 1.417 1.417h17.82a1.416 1.416 0 0 0 1.417-1.417V4.71a0.607 0.607 0 0 0-0.607-0.607M2.887 10.178h4.455v3.645H2.887z m5.67 0h12.556v3.645H8.557z m12.556-4.86V8.964H2.887V5.318zM2.887 18.481v-3.443h4.455v3.646H3.089a0.204 0.204 0 0 1-0.203-0.203z m18.023 0.203H8.557v-3.646h12.556v3.443a0.204 0.204 0 0 1-0.203 0.203"/></svg>