<svg viewBox="0 0 24 24" fill="none" xmlns="http://www.w3.org/2000/svg" width="24" height="24">
<path d="M13.126 3.919C13.954 3.919 14.626 4.59 14.626 5.419V18.199C14.626 19.027 13.954 19.699 13.126 19.699H1.965C1.137 19.699 0.466 19.027 0.465 18.199V5.419C0.465 4.59 1.137 3.919 1.965 3.919H13.126ZM1.665 18.199C1.666 18.365 1.8 18.499 1.965 18.499H6.945V14.838H1.665V18.199ZM8.145 18.499H13.126C13.291 18.499 13.426 18.364 13.426 18.199V14.838H8.145V18.499ZM20.511 8.971C20.843 8.971 21.111 9.239 21.111 9.571V11.394H22.935C23.266 11.394 23.535 11.663 23.535 11.994 23.534 12.325 23.266 12.594 22.935 12.594H21.111V14.43C21.111 14.761 20.842 15.03 20.511 15.03 20.181 15.03 19.912 14.761 19.911 14.43V12.594H18.075C17.744 12.594 17.475 12.325 17.475 11.994 17.475 11.663 17.744 11.395 18.075 11.394H19.911V9.571C19.911 9.24 20.18 8.971 20.511 8.971ZM1.665 13.638H6.945V9.978H1.665V13.638ZM8.145 13.638H13.426V9.978H8.145V13.638ZM1.965 5.119C1.8 5.119 1.665 5.253 1.665 5.419V8.779H6.945V5.119H1.965ZM8.145 8.779H13.426V5.419C13.426 5.253 13.292 5.119 13.126 5.119H8.145V8.779Z" fill="black"/>
</svg>