<svg viewBox="0 0 24 24" fill="none" xmlns="http://www.w3.org/2000/svg" width="24" height="24">
<path d="M21.841 14.855C22.115 14.91 22.321 15.153 22.321 15.443V18.649C22.32 19.457 21.551 19.89 20.911 19.89H3.09C2.45 19.89 1.681 19.457 1.68 18.649V15.443C1.68 15.153 1.886 14.911 2.16 14.855 2.199 14.847 2.239 14.843 2.28 14.843H21.721C21.762 14.843 21.802 14.847 21.841 14.855ZM2.88 18.623C2.883 18.626 2.886 18.63 2.89 18.633 2.923 18.659 2.992 18.69 3.09 18.69H8.161V16.043H2.88V18.623ZM9.361 18.69H14.64V16.043H9.361V18.69ZM15.84 18.69H20.911C21.009 18.69 21.078 18.659 21.111 18.633 21.115 18.63 21.118 18.626 21.121 18.623V16.043H15.84V18.69ZM12.734 10.419C12.968 10.185 13.348 10.185 13.582 10.419 13.816 10.653 13.816 11.033 13.582 11.268L12.86 11.988 13.582 12.71C13.816 12.945 13.816 13.324 13.582 13.559 13.348 13.793 12.968 13.793 12.734 13.559L12.012 12.837 11.291 13.559C11.057 13.793 10.677 13.793 10.443 13.559 10.208 13.324 10.208 12.945 10.443 12.71L11.163 11.988 10.443 11.268C10.208 11.033 10.208 10.653 10.443 10.419 10.677 10.185 11.057 10.185 11.291 10.419L12.012 11.14 12.734 10.419ZM6.952 10.47C7.399 10.47 7.761 10.833 7.761 11.28V12.697C7.761 13.145 7.399 13.507 6.952 13.507H1.484C1.036 13.507 0.674 13.145 0.674 12.697V11.28C0.674 10.833 1.036 10.47 1.484 10.47H6.952ZM22.53 10.47C22.978 10.47 23.34 10.833 23.34 11.28V12.697C23.34 13.145 22.978 13.507 22.53 13.507H17.064C16.616 13.507 16.253 13.145 16.253 12.697V11.28C16.253 10.833 16.616 10.47 17.064 10.47H22.53ZM20.911 4.11C21.553 4.11 22.32 4.545 22.321 5.353V8.557C22.321 8.888 22.052 9.157 21.721 9.157H2.28C2.156 9.157 2.041 9.12 1.945 9.055 1.786 8.947 1.68 8.764 1.68 8.557V5.353C1.681 4.545 2.448 4.11 3.09 4.11H20.911ZM3.09 5.31C2.992 5.31 2.924 5.342 2.891 5.368 2.886 5.372 2.883 5.375 2.88 5.378V7.957H8.161V5.31H3.09ZM9.361 7.957H14.64V5.31H9.361V7.957ZM15.84 7.957H21.121V5.378C21.118 5.375 21.115 5.372 21.11 5.368 21.077 5.342 21.008 5.31 20.911 5.31H15.84V7.957Z" fill="black"/>
</svg>