<svg width="24" height="24" viewBox="0 0 24 24" fill="none" xmlns="http://www.w3.org/2000/svg">
<path d="M9.75 4.5C9.33579 4.5 9 4.83579 9 5.25C9 5.66421 9.33579 6 9.75 6V5.25V4.5ZM14.2495 6C14.6638 6 14.9995 5.66421 14.9995 5.25C14.9995 4.83579 14.6638 4.5 14.2495 4.5V5.25V6ZM11.25 7.5C11.25 7.91421 11.5858 8.25 12 8.25C12.4142 8.25 12.75 7.91421 12.75 7.5H12H11.25ZM12.75 3C12.75 2.58579 12.4142 2.25 12 2.25C11.5858 2.25 11.25 2.58579 11.25 3H12H12.75ZM9.75 5.25V6H14.2495V5.25V4.5H9.75V5.25ZM12 7.5H12.75V3H12H11.25V7.5H12ZM3.83398 21.249V21.999H20.1656V21.249V20.499H3.83398V21.249ZM20.9989 20.4158H21.7489V12.8333H20.9989H20.2489V20.4158H20.9989ZM20.1656 12V11.25H3.83398V12V12.75H20.1656V12ZM3.00073 12.8333H2.25073V20.4158H3.00073H3.75073V12.8333H3.00073ZM3.83398 12V11.25C2.95957 11.25 2.25073 11.9588 2.25073 12.8333H3.00073H3.75073C3.75073 12.7873 3.78801 12.75 3.83398 12.75V12ZM20.9989 12.8333H21.7489C21.7489 11.9588 21.04 11.25 20.1656 11.25V12V12.75C20.2116 12.75 20.2489 12.7873 20.2489 12.8333H20.9989ZM20.1656 21.249V21.999C21.04 21.999 21.7489 21.2902 21.7489 20.4158H20.9989H20.2489C20.2489 20.4618 20.2116 20.499 20.1656 20.499V21.249ZM3.83398 21.249V20.499C3.788 20.499 3.75073 20.4618 3.75073 20.4158H3.00073H2.25073C2.25073 21.2902 2.95958 21.999 3.83398 21.999V21.249ZM8.99982 21.2492H9.74982L9.74982 12H8.99982H8.24982L8.24982 21.2492H8.99982ZM14.9991 21.2492H15.7491V12H14.9991H14.2491V21.2492H14.9991ZM3.00073 16.6245V17.3745H20.9989V16.6245V15.8745H3.00073V16.6245Z" fill="black"/>
</svg>
