<svg width="24" height="24" viewBox="0 0 24 24" fill="none" xmlns="http://www.w3.org/2000/svg">
<path d="M8.99963 5.24988L8.99963 18.7569M14.9996 5.24988V9.75102M2.99963 9.75692H21.0053M2.99963 14.2569H8.99729M12.7434 9.75135L8.55353 14.0164M17.25 9.75002L8.25 18.75M21 10.5L12.75 18.75M21 15L17.25 18.75M3.83315 18.764H20.1665C20.6267 18.764 20.9998 18.3909 20.9998 17.9307V6.08321C20.9998 5.62297 20.6267 5.24988 20.1665 5.24988H3.83315C3.37291 5.24988 2.99982 5.62297 2.99982 6.08321V17.9307C2.99982 18.3909 3.37291 18.764 3.83315 18.764Z" stroke="black" stroke-width="1.5" stroke-linecap="round" stroke-linejoin="round"/>
</svg>
