<svg width="24" height="24" viewBox="0 0 24 24" fill="none" xmlns="http://www.w3.org/2000/svg">
<path d="M19.1484 14.9587C19.4413 15.2516 19.9161 15.2516 20.209 14.9587C20.5019 14.6658 20.5019 14.1909 20.209 13.898L19.6787 14.4283L19.1484 14.9587ZM16.2807 9.96965C15.9878 9.67675 15.5129 9.67675 15.22 9.96965C14.9271 10.2625 14.9271 10.7374 15.22 11.0303L15.7503 10.5L16.2807 9.96965ZM15.2197 13.898C14.9268 14.1909 14.9268 14.6658 15.2197 14.9587C15.5126 15.2516 15.9874 15.2516 16.2803 14.9587L15.75 14.4283L15.2197 13.898ZM20.2087 11.0303C20.5016 10.7374 20.5016 10.2625 20.2087 9.96965C19.9158 9.67675 19.4409 9.67675 19.148 9.96965L19.6784 10.5L20.2087 11.0303ZM13.125 13.125H12.375V13.125H13.125ZM12.75 13.5V14.25V14.25V13.5ZM12.75 11.25V12V12V11.25ZM13.125 11.625H13.875V11.625H13.125ZM7.125 11.625H6.375V11.625H7.125ZM7.5 11.25V10.5V10.5V11.25ZM7.125 13.125H7.875V13.125H7.125ZM7.5 13.5V12.75V12.75V13.5ZM19.6787 14.4283L20.209 13.898L16.2807 9.96965L15.7503 10.5L15.22 11.0303L19.1484 14.9587L19.6787 14.4283ZM15.75 14.4283L16.2803 14.9587L20.2087 11.0303L19.6784 10.5L19.148 9.96965L15.2197 13.898L15.75 14.4283ZM4.63367 4.5V5.25H8.86633V4.5V3.75H4.63367V4.5ZM9.75 5.38367H9V7.36633H9.75H10.5V5.38367H9.75ZM8.86633 8.25V7.5H4.63367V8.25V9H8.86633V8.25ZM3.75 7.36633H4.5V5.38367H3.75H3V7.36633H3.75ZM4.63367 8.25V7.5C4.55985 7.5 4.5 7.44015 4.5 7.36633H3.75H3C3 8.26858 3.73142 9 4.63367 9V8.25ZM9.75 7.36633H9C9 7.44015 8.94015 7.5 8.86633 7.5V8.25V9C9.76858 9 10.5 8.26858 10.5 7.36633H9.75ZM8.86633 4.5V5.25C8.94015 5.25 9 5.30985 9 5.38367H9.75H10.5C10.5 4.48142 9.76858 3.75 8.86633 3.75V4.5ZM4.63367 4.5V3.75C3.73142 3.75 3 4.48142 3 5.38367H3.75H4.5C4.5 5.30985 4.55985 5.25 4.63367 5.25V4.5ZM4.6251 16.5V17.25H8.8749V16.5V15.75H4.6251V16.5ZM9.75 17.3751H9V19.3749H9.75H10.5V17.3751H9.75ZM8.8749 20.25V19.5H4.6251V20.25V21H8.8749V20.25ZM3.75 19.3749H4.5V17.3751H3.75H3V19.3749H3.75ZM4.6251 20.25V19.5C4.55601 19.5 4.5 19.444 4.5 19.3749H3.75H3C3 20.2724 3.72758 21 4.6251 21V20.25ZM9.75 19.3749H9C9 19.444 8.94399 19.5 8.8749 19.5V20.25V21C9.77242 21 10.5 20.2724 10.5 19.3749H9.75ZM8.8749 16.5V17.25C8.94399 17.25 9 17.306 9 17.3751H9.75H10.5C10.5 16.4776 9.77242 15.75 8.8749 15.75V16.5ZM4.6251 16.5V15.75C3.72758 15.75 3 16.4776 3 17.3751H3.75H4.5C4.5 17.306 4.55601 17.25 4.6251 17.25V16.5ZM7.125 13.125H7.875L7.875 11.625H7.125H6.375L6.375 13.125H7.125ZM7.5 11.25V12H12.75V11.25V10.5H7.5V11.25ZM13.125 11.625H12.375V13.125H13.125H13.875V11.625H13.125ZM12.75 13.5V12.75H7.5V13.5V14.25H12.75V13.5ZM13.125 13.125H12.375C12.375 12.9179 12.5429 12.75 12.75 12.75V13.5V14.25C13.3713 14.25 13.875 13.7463 13.875 13.125H13.125ZM12.75 11.25V12C12.5429 12 12.375 11.8321 12.375 11.625H13.125H13.875C13.875 11.0037 13.3713 10.5 12.75 10.5V11.25ZM7.125 11.625H7.875C7.875 11.8321 7.70711 12 7.5 12V11.25V10.5C6.87868 10.5 6.375 11.0037 6.375 11.625H7.125ZM7.125 13.125H6.375C6.375 13.7463 6.87868 14.25 7.5 14.25V13.5V12.75C7.70711 12.75 7.875 12.9179 7.875 13.125H7.125ZM7.5 12.375V13.125H12.75V12.375V11.625H7.5V12.375Z" fill="black"/>
</svg>
