<svg viewBox="0 0 24 24" fill="none" xmlns="http://www.w3.org/2000/svg" width="24" height="24">
<path d="M20.821 4.11C21.649 4.11 22.321 4.782 22.321 5.61V18.39C22.32 19.218 21.649 19.89 20.821 19.89H3.18C2.352 19.89 1.681 19.218 1.68 18.39V5.61C1.681 4.781 2.352 4.11 3.18 4.11H20.821ZM2.88 18.39C2.881 18.556 3.015 18.69 3.18 18.69H8.16V15.037H2.88V18.39ZM9.36 18.69H14.64V15.037H9.36V18.69ZM15.84 18.69H20.821C20.986 18.69 21.12 18.555 21.121 18.39V15.037H15.84V18.69ZM2.88 13.837H8.16V10.178H2.88V13.837ZM9.36 13.837H14.64V10.178H9.36V13.837ZM15.84 13.837H21.121V10.178H15.84V13.837ZM9.36 8.978H14.64V5.31H9.36V8.978ZM15.84 8.978H21.121V5.61C21.121 5.444 20.986 5.31 20.821 5.31H15.84V8.978ZM2.88 8.978H6.532L2.88 6.51V8.978ZM8.16 7.904V5.31H4.32L8.16 7.904Z" fill="black"/>
</svg>