<svg viewBox="0 0 24 24" fill="none" xmlns="http://www.w3.org/2000/svg" width="24" height="24">
<path d="M20.823 4.102C21.652 4.102 22.323 4.774 22.323 5.602V18.398C22.323 19.226 21.652 19.897 20.823 19.898H3.183C2.355 19.897 1.683 19.226 1.683 18.398V5.602C1.683 4.774 2.355 4.102 3.183 4.102H20.823ZM2.883 15.038V18.398C2.883 18.563 3.018 18.697 3.183 18.698H8.16V15.038H2.883ZM9.36 18.486V18.698H10.435L14.639 14.492V13.206L9.36 18.486ZM12.132 18.698H14.639V16.189L12.132 18.698ZM15.839 18.698H20.823C20.989 18.697 21.123 18.563 21.123 18.398V15.038H15.839V18.698ZM9.36 15.504V16.789L14.639 11.509V10.225L9.36 15.504ZM2.883 13.838H8.16V10.178H2.883V13.838ZM15.839 11.744C15.84 11.752 15.84 11.76 15.839 11.768V13.838H21.123V10.178H15.839V11.744ZM9.36 12.521V13.806L14.639 8.527V7.241L9.36 12.521ZM9.36 9.539V10.824L14.639 5.544V5.302H13.598L9.36 9.539ZM3.183 5.302C3.018 5.302 2.883 5.436 2.883 5.602V8.978H8.16V5.302H3.183ZM15.839 8.762C15.84 8.771 15.84 8.779 15.839 8.787V8.978H21.123V5.602C21.123 5.436 20.989 5.302 20.823 5.302H15.839V8.762ZM9.36 7.843L11.901 5.302H9.36V7.843Z" fill="black"/>
</svg>