<svg viewBox="0 0 24 24" fill="none" xmlns="http://www.w3.org/2000/svg" width="24" height="24">
<path d="M20.82 3.799C21.648 3.799 22.319 4.471 22.32 5.299V18.08C22.319 18.908 21.648 19.58 20.82 19.58H3.179C2.351 19.579 1.68 18.908 1.679 18.08V5.299C1.679 4.471 2.351 3.8 3.179 3.799H20.82ZM3.179 4.999C3.014 5 2.879 5.134 2.879 5.299V18.08C2.88 18.245 3.014 18.379 3.179 18.38H20.82C20.985 18.38 21.119 18.245 21.12 18.08V5.299C21.119 5.134 20.985 4.999 20.82 4.999H3.179ZM15 11.611C15.331 11.611 15.6 11.88 15.6 12.211 15.6 12.542 15.331 12.811 15 12.811H9C8.669 12.811 8.4 12.542 8.4 12.211 8.4 11.88 8.669 11.611 9 11.611H15ZM18 9.18C18.331 9.18 18.6 9.449 18.6 9.78 18.6 10.112 18.331 10.38 18 10.38H6C5.669 10.38 5.4 10.112 5.4 9.78 5.4 9.449 5.669 9.18 6 9.18H18ZM15 6.75C15.331 6.75 15.6 7.019 15.6 7.35 15.6 7.681 15.331 7.95 15 7.95H9C8.669 7.95 8.4 7.681 8.4 7.35 8.4 7.019 8.669 6.75 9 6.75H15Z" fill="black"/>
</svg>