<svg width="24" height="24" viewBox="0 0 24 24" fill="none" xmlns="http://www.w3.org/2000/svg">
<path d="M17.25 11.25C16.8358 11.25 16.5 11.5858 16.5 12C16.5 12.4142 16.8358 12.75 17.25 12.75V12V11.25ZM21.75 12.75C22.1642 12.75 22.5 12.4142 22.5 12C22.5 11.5858 22.1642 11.25 21.75 11.25V12V12.75ZM18.75 14.25C18.75 14.6642 19.0858 15 19.5 15C19.9142 15 20.25 14.6642 20.25 14.25H19.5H18.75ZM20.25 9.75C20.25 9.33579 19.9142 9 19.5 9C19.0858 9 18.75 9.33579 18.75 9.75H19.5H20.25ZM17.25 12V12.75H21.75V12V11.25H17.25V12ZM19.5 14.25H20.25V9.75H19.5H18.75V14.25H19.5ZM3.08333 5.25V6H13.418V5.25V4.5H3.08333V5.25ZM14.2513 6.08333H13.5013V17.9167H14.2513H15.0013V6.08333H14.2513ZM13.418 18.75V18H3.08333V18.75V19.5H13.418V18.75ZM2.25 17.9167H3V6.08333H2.25H1.5V17.9167H2.25ZM3.08333 18.75V18C3.03731 18 3 17.9627 3 17.9167H2.25H1.5C1.5 18.7911 2.20888 19.5 3.08333 19.5V18.75ZM14.2513 17.9167H13.5013C13.5013 17.9627 13.464 18 13.418 18V18.75V19.5C14.2924 19.5 15.0013 18.7911 15.0013 17.9167H14.2513ZM13.418 5.25V6C13.464 6 13.5013 6.03731 13.5013 6.08333H14.2513H15.0013C15.0013 5.20888 14.2925 4.5 13.418 4.5V5.25ZM3.08333 5.25V4.5C2.20888 4.5 1.5 5.20888 1.5 6.08333H2.25H3C3 6.03731 3.03731 6 3.08333 6V5.25ZM8.25037 5.25L7.50037 5.25L7.50037 18.75H8.25037H9.00037L9.00037 5.25L8.25037 5.25ZM2.25018 9.75005V10.5H14.2515V9.75005V9.00005H2.25018V9.75005ZM2.25018 14.25V15H14.2515V14.25V13.5H2.25018V14.25Z" fill="black"/>
</svg>
