<svg width="24" height="24" viewBox="0 0 24 24" fill="none" xmlns="http://www.w3.org/2000/svg">
<path d="M18.6875 15.7012C18.9634 15.7014 19.1875 15.9252 19.1875 16.2012V17.6855H20.6709C20.947 17.6855 21.1709 17.9094 21.1709 18.1855C21.1707 18.4615 20.9469 18.6855 20.6709 18.6855H19.1875V20.1699C19.1873 20.4457 18.9633 20.6697 18.6875 20.6699C18.4115 20.6699 18.1877 20.4459 18.1875 20.1699V18.6855H16.7021C16.4263 18.6853 16.2023 18.4614 16.2021 18.1855C16.2021 17.9095 16.4262 17.6858 16.7021 17.6855H18.1875V16.2012C18.1875 15.925 18.4114 15.7012 18.6875 15.7012ZM19.3506 5.4248C20.0406 5.42511 20.6005 5.98473 20.6006 6.6748V14.0254C20.6003 14.3011 20.3763 14.525 20.1006 14.5254H15.2012V18.0752C15.201 18.3505 14.9773 18.5732 14.7021 18.5742V18.5752H4.65039C3.96016 18.5752 3.4006 18.0154 3.40039 17.3252V14.0342C3.40034 14.0313 3.39942 14.0283 3.39941 14.0254C3.39941 14.0221 3.40033 14.0189 3.40039 14.0156V9.9834C3.40034 9.98047 3.39941 9.97755 3.39941 9.97461C3.39942 9.97134 3.40033 9.96809 3.40039 9.96484V6.6748C3.4005 5.98454 3.9601 5.4248 4.65039 5.4248H19.3506ZM4.40039 17.3252C4.4006 17.4631 4.51245 17.5752 4.65039 17.5752H8.80078V14.5254H4.40039V17.3252ZM9.80078 17.5752H14.2012V14.5254H9.80078V17.5752ZM4.40039 13.5254H8.80078V10.4746H4.40039V13.5254ZM9.80078 13.5254H14.2012V10.4746H9.80078V13.5254ZM15.2012 13.5254H19.6006V10.4746H15.2012V13.5254ZM4.65039 6.4248C4.51239 6.4248 4.4005 6.53682 4.40039 6.6748V9.47461H8.80078V6.4248H4.65039ZM9.80078 9.47461H14.2012V6.4248H9.80078V9.47461ZM15.2012 9.47461H19.6006V6.6748C19.6005 6.53701 19.4883 6.42511 19.3506 6.4248H15.2012V9.47461Z" fill="black"/>
</svg>
