<svg width="24" height="24" viewBox="0 0 24 24" fill="none" xmlns="http://www.w3.org/2000/svg">
<path d="M4.64941 5.4248C3.95942 5.42513 3.39955 5.98476 3.39941 6.6748V17.3252C3.39963 18.0152 3.95947 18.5749 4.64941 18.5752H19.3496C20.0398 18.5752 20.5994 18.0154 20.5996 17.3252V6.6748C20.5995 5.98456 20.0399 5.4248 19.3496 5.4248H4.64941ZM19.3496 6.4248C19.4876 6.4248 19.5995 6.53685 19.5996 6.6748V17.3252C19.5994 17.4631 19.4876 17.5752 19.3496 17.5752H4.64941C4.51175 17.5749 4.39962 17.4629 4.39941 17.3252V6.6748C4.39955 6.53705 4.5117 6.42513 4.64941 6.4248H19.3496ZM12.6445 13.5254C12.3685 13.5255 12.1445 13.7493 12.1445 14.0254C12.1447 14.3013 12.3686 14.5253 12.6445 14.5254H17.6445C17.9206 14.5254 18.1443 14.3014 18.1445 14.0254C18.1445 13.7492 17.9207 13.5254 17.6445 13.5254H12.6445ZM7.64453 11.5C7.3685 11.5001 7.14453 11.7239 7.14453 12C7.14453 12.2761 7.3685 12.4999 7.64453 12.5H17.6445C17.9207 12.5 18.1445 12.2761 18.1445 12C18.1445 11.7239 17.9207 11.5 17.6445 11.5H7.64453ZM12.6445 9.47461C12.3686 9.47474 12.1447 9.69872 12.1445 9.97461C12.1445 10.2507 12.3685 10.4745 12.6445 10.4746H17.6445C17.9207 10.4746 18.1445 10.2508 18.1445 9.97461C18.1443 9.69864 17.9206 9.47461 17.6445 9.47461H12.6445Z" fill="black"/>
</svg>
