<svg viewBox="0 0 24 24" fill="none" xmlns="http://www.w3.org/2000/svg" width="24" height="24">
<path d="M21.12 5.618C21.12 5.452 20.986 5.318 20.82 5.318H3.18C3.014 5.318 2.88 5.452 2.88 5.618V18.398C2.88 18.564 3.014 18.698 3.18 18.698H20.82C20.986 18.698 21.12 18.564 21.12 18.398V5.618ZM22.32 18.398C22.32 19.226 21.648 19.898 20.82 19.898H3.18C2.352 19.898 1.68 19.227 1.68 18.398V5.618C1.68 4.789 2.352 4.118 3.18 4.118H20.82C21.649 4.118 22.32 4.79 22.32 5.618V18.398Z" fill="black"/>
<path fill-rule="evenodd" clip-rule="evenodd" d="M9.36 8.978H14.64V4.718H15.84V8.978H21.721V10.178H15.84V13.837H21.721V15.037H15.84V19.298H14.64V15.037H9.36V19.298H8.16V15.037H2.28V13.837H8.16V10.178H2.28V8.978H8.16V4.718H9.36V8.978ZM9.36 13.837H14.64V10.178H9.36V13.837Z" fill="black"/>
</svg>