<svg width="24" height="24" viewBox="0 0 24 24" fill="none" xmlns="http://www.w3.org/2000/svg">
<path d="M12.75 12H12V12.75H12.75V12ZM21.2197 5.46968L20.6893 6.00001V6.00001L21.2197 5.46968ZM21.2197 6.53034L20.6893 6.00001V6.00001L21.2197 6.53034ZM18.2197 3.53034L17.6893 3.00001V3.00001L18.2197 3.53034ZM19.2803 3.53034L19.8107 3.00001V3.00001L19.2803 3.53034ZM12.9697 8.78034L13.5 9.31067V9.31067L12.9697 8.78034ZM15.9697 11.7803L16.5 12.3107V12.3107L15.9697 11.7803ZM17.0303 4.71968C16.7374 4.42679 16.2626 4.42679 15.9697 4.71968C15.6768 5.01257 15.6768 5.48745 15.9697 5.78034L16.5 5.25001L17.0303 4.71968ZM18.9697 8.78034C19.2626 9.07323 19.7374 9.07323 20.0303 8.78034C20.3232 8.48745 20.3232 8.01257 20.0303 7.71968L19.5 8.25001L18.9697 8.78034ZM2.25 11.5L1.5 11.5V11.5H2.25ZM2.25 16.25H1.5V16.25L2.25 16.25ZM2.25012 7.5L3.00012 7.50003V7.50001L2.25012 7.5ZM2.25001 20.25L3.00001 20.25V20.25L2.25001 20.25ZM10.5 12.75V12H9V12.75H9.75H10.5ZM9.75 15H9V15.75H9.75V15ZM12 15.75H12.75V14.25H12V15V15.75ZM15.4393 12V11.25H12.75V12V12.75H15.4393V12ZM12.75 12H13.5V9.31067H12.75H12V12H12.75ZM12.9697 8.78034L13.5 9.31067L18.75 4.06067L18.2197 3.53034L17.6893 3.00001L12.4393 8.25001L12.9697 8.78034ZM19.2803 3.53034L18.75 4.06067L20.6893 6.00001L21.2197 5.46968L21.75 4.93935L19.8107 3.00001L19.2803 3.53034ZM21.2197 6.53034L20.6893 6.00001L15.4393 11.25L15.9697 11.7803L16.5 12.3107L21.75 7.06067L21.2197 6.53034ZM21.2197 5.46968L20.6893 6.00001V6.00001L21.2197 6.53034L21.75 7.06067C22.3358 6.47488 22.3358 5.52513 21.75 4.93935L21.2197 5.46968ZM18.2197 3.53034L18.75 4.06067V4.06067L19.2803 3.53034L19.8107 3.00001C19.2249 2.41422 18.2751 2.41422 17.6893 3.00001L18.2197 3.53034ZM12.75 9.31067H13.5V9.31067L12.9697 8.78034L12.4393 8.25001C12.158 8.53131 12 8.91284 12 9.31067H12.75ZM15.4393 12V12.75C15.8372 12.75 16.2187 12.592 16.5 12.3107L15.9697 11.7803L15.4393 11.25V11.25V12ZM16.5 5.25001L15.9697 5.78034L18.9697 8.78034L19.5 8.25001L20.0303 7.71968L17.0303 4.71968L16.5 5.25001ZM21.75 17H21V20.25H21.75H22.5V17H21.75ZM8.75 7.50001H8V11.5H8.75H9.5V7.50001H8.75ZM8.75 11.5H8V16.25H8.75H9.5V11.5H8.75ZM8.75 16.25H8V21H8.75H9.5V16.25H8.75ZM15.25 16.25H14.5V21H15.25H16V16.25H15.25ZM2.25 11.5V12.25H8.75V11.5V10.75H2.25V11.5ZM2.25 16.25V17H8.75V16.25V15.5H2.25V16.25ZM8.75 16.25V17H15.25V16.25V15.5H8.75V16.25ZM15.25 16.25V17H21V16.25V15.5H15.25V16.25ZM3.00012 6.75001V7.50001H8V6.75001V6.00001H3.00012V6.75001ZM3.00001 21V21.75H8.75V21V20.25H3.00001V21ZM8.75 21V21.75H15.25V21V20.25H8.75V21ZM15.25 21V21.75H21V21V20.25H15.25V21ZM2.25012 7.5L1.50012 7.49998L1.5 11.5L2.25 11.5L3 11.5L3.00012 7.50003L2.25012 7.5ZM2.25 11.5H1.5V16.25H2.25H3V11.5H2.25ZM2.25 16.25L1.5 16.25L1.50001 20.25L2.25001 20.25L3.00001 20.25L3 16.25L2.25 16.25ZM8.75 7.50001H9.5C9.5 6.67158 8.82842 6.00001 8 6.00001V6.75001V7.50001H8H8.75ZM3.00001 21V20.25H3.00001L2.25001 20.25L1.50001 20.25C1.5 21.0784 2.17157 21.75 3.00001 21.75V21ZM21.75 20.25H21V21V21.75C21.8284 21.75 22.5 21.0784 22.5 20.25H21.75ZM21.75 17H22.5C22.5 16.1716 21.8284 15.5 21 15.5V16.25V17H21.75ZM3.00012 6.75001V6.00001C2.1717 6.00001 1.50013 6.67157 1.50012 7.5L2.25012 7.5L3.00012 7.50001H3.00012V6.75001ZM9.75 12.75H9V15H9.75H10.5V12.75H9.75ZM12 15V14.25H9.75V15V15.75H12V15Z" fill="black"/>
</svg>
