<svg width="24" height="24" viewBox="0 0 24 24" fill="none" xmlns="http://www.w3.org/2000/svg">
<path d="M19.3506 5.4248C20.0406 5.42513 20.6005 5.98476 20.6006 6.6748V17.3252C20.6004 18.0152 20.0405 18.5749 19.3506 18.5752H4.65039C3.96016 18.5752 3.4006 18.0154 3.40039 17.3252V6.6748C3.40052 5.98456 3.96012 5.4248 4.65039 5.4248H19.3506ZM4.40039 17.3252C4.4006 17.4631 4.51245 17.5752 4.65039 17.5752H8.7998V14.5312H4.40039V17.3252ZM9.7998 17.5752H14.2002V14.5312H9.7998V17.5752ZM15.2002 17.5752H19.3506C19.4882 17.5749 19.6004 17.4629 19.6006 17.3252V14.5312H15.2002V17.5752ZM4.40039 13.5312H8.7998V10.4814H4.40039V13.5312ZM9.7998 13.5312H14.2002V10.4814H9.7998V13.5312ZM15.2002 13.5312H19.6006V10.4814H15.2002V13.5312ZM9.7998 9.48145H14.2002V6.4248H9.7998V9.48145ZM15.2002 9.48145H19.6006V6.6748C19.6005 6.53705 19.4883 6.42513 19.3506 6.4248H15.2002V9.48145ZM4.40039 9.48145H7.44336L4.40039 7.4248V9.48145ZM8.7998 8.58691V6.4248H5.59961L8.7998 8.58691Z" fill="black"/>
</svg>
