<svg width="24" height="24" viewBox="0 0 24 24" fill="none" xmlns="http://www.w3.org/2000/svg">
<path d="M9.75006 5.25C9.75006 4.83579 9.41427 4.5 9.00006 4.5C8.58585 4.5 8.25006 4.83579 8.25006 5.25L9.00006 5.25L9.75006 5.25ZM8.25006 18.7499C8.25006 19.1641 8.58585 19.4999 9.00006 19.4999C9.41428 19.4999 9.75006 19.1641 9.75006 18.7499H9.00006H8.25006ZM15.7501 5.25C15.7501 4.83579 15.4143 4.5 15.0001 4.5C14.5858 4.5 14.2501 4.83579 14.2501 5.25H15.0001H15.7501ZM14.2501 18.7499C14.2501 19.1641 14.5858 19.4999 15.0001 19.4999C15.4143 19.4999 15.7501 19.1641 15.7501 18.7499H15.0001H14.2501ZM3.00043 9.00001C2.58621 9.00001 2.25043 9.3358 2.25043 9.75001C2.25043 10.1642 2.58621 10.5 3.00043 10.5V9.75001V9.00001ZM21.0002 10.5C21.4145 10.5 21.7502 10.1642 21.7502 9.75001C21.7502 9.3358 21.4145 9.00001 21.0002 9.00001V9.75001V10.5ZM3.00039 13.5C2.58618 13.5 2.25041 13.8358 2.25043 14.25C2.25045 14.6642 2.58625 15 3.00046 15L3.00043 14.25L3.00039 13.5ZM17.1918 17.9999C16.7776 17.9999 16.4418 18.3357 16.4418 18.7499C16.4418 19.1641 16.7776 19.4999 17.1918 19.4999V18.7499V17.9999ZM21.6016 19.4999C22.0159 19.4999 22.3516 19.1641 22.3516 18.7499C22.3516 18.3357 22.0159 17.9999 21.6016 17.9999V18.7499V19.4999ZM20.1466 16.5449C20.1466 16.1307 19.8108 15.7949 19.3966 15.7949C18.9824 15.7949 18.6466 16.1307 18.6466 16.5449H19.3966H20.1466ZM18.6466 20.9547C18.6466 21.3689 18.9824 21.7047 19.3966 21.7047C19.8108 21.7047 20.1466 21.3689 20.1466 20.9547H19.3966H18.6466ZM20.1668 14.2491L20.1667 13.4991L20.1668 14.2491ZM21.0001 6.08337H20.2501V13.4158H21.0001H21.7501V6.08337H21.0001ZM15.0016 18.7499V17.9999H3.83357V18.7499V19.4999H15.0016V18.7499ZM3.00024 17.9166H3.75024V6.08337H3.00024H2.25024V17.9166H3.00024ZM3.83357 5.25005V6.00005H20.1667V5.25005V4.50005H3.83357V5.25005ZM3.00024 6.08337H3.75024C3.75024 6.03735 3.78755 6.00005 3.83357 6.00005V5.25005V4.50005C2.95912 4.50005 2.25024 5.20892 2.25024 6.08337H3.00024ZM3.83357 18.7499V17.9999C3.78755 17.9999 3.75024 17.9626 3.75024 17.9166H3.00024H2.25024C2.25024 18.791 2.95912 19.4999 3.83357 19.4999V18.7499ZM21.0001 6.08337H21.7501C21.7501 5.20892 21.0412 4.50005 20.1667 4.50005V5.25005V6.00005C20.2128 6.00005 20.2501 6.03735 20.2501 6.08337H21.0001ZM9.00006 5.25L8.25006 5.25L8.25006 18.7499H9.00006H9.75006L9.75006 5.25L9.00006 5.25ZM15.0001 5.25H14.2501V18.7499H15.0001H15.7501V5.25H15.0001ZM3.00043 9.75001V10.5H21.0002V9.75001V9.00001H3.00043V9.75001ZM3.00043 14.25L3.00046 15L20.1668 14.9991L20.1668 14.2491L20.1667 13.4991L3.00039 13.5L3.00043 14.25ZM17.1918 18.7499V19.4999H21.6016V18.7499V17.9999H17.1918V18.7499ZM19.3966 16.5449H18.6466V20.9547H19.3966H20.1466V16.5449H19.3966ZM21.0001 13.4158H20.2501C20.2501 13.4618 20.2128 13.4991 20.1667 13.4991L20.1668 14.2491L20.1668 14.9991C21.0412 14.9991 21.7501 14.2902 21.7501 13.4158H21.0001Z" fill="black"/>
</svg>
