<svg viewBox="0 0 24 24" fill="none" xmlns="http://www.w3.org/2000/svg" width="24" height="24">
<path d="M15.324 4.11H20.91C21.689 4.11 22.32 4.741 22.32 5.52V18.48C22.32 19.259 21.689 19.891 20.91 19.891H15.312C15.294 19.893 15.276 19.897 15.257 19.897 15.238 19.897 15.219 19.893 15.201 19.891H8.833C8.815 19.893 8.797 19.897 8.778 19.897 8.759 19.897 8.74 19.893 8.722 19.891H3.09C2.311 19.891 1.68 19.259 1.68 18.48V5.52C1.68 4.741 2.311 4.11 3.09 4.11H8.711C8.733 4.107 8.755 4.103 8.778 4.103 8.801 4.103 8.823 4.107 8.845 4.11H15.19C15.212 4.107 15.235 4.103 15.257 4.103 15.28 4.103 15.302 4.107 15.324 4.11ZM3.09 5.31C2.974 5.31 2.88 5.404 2.88 5.52V8.963H6.854C7.189 8.963 7.461 9.234 7.461 9.57 7.461 9.905 7.189 10.176 6.854 10.177H2.88V13.823H6.854C7.189 13.824 7.461 14.095 7.461 14.43 7.461 14.766 7.189 15.037 6.854 15.037H2.88V18.48C2.88 18.596 2.974 18.691 3.09 18.691H8.171V16.253C8.171 15.917 8.443 15.646 8.778 15.646 9.113 15.646 9.385 15.918 9.385 16.253V18.691H14.65V16.253C14.65 15.917 14.922 15.646 15.257 15.646 15.592 15.646 15.864 15.918 15.864 16.253V18.691H20.91C21.026 18.691 21.12 18.596 21.12 18.48V15.037H17.064C16.729 15.037 16.457 14.766 16.457 14.43 16.458 14.095 16.729 13.824 17.064 13.823H21.12V10.177H17.064C16.729 10.177 16.458 9.905 16.457 9.57 16.457 9.234 16.729 8.963 17.064 8.963H21.12V5.52C21.12 5.404 21.026 5.31 20.91 5.31H15.864V7.747C15.864 8.083 15.592 8.354 15.257 8.354 14.922 8.354 14.65 8.083 14.65 7.747V5.31H9.385V7.747C9.385 8.082 9.113 8.354 8.778 8.354 8.442 8.354 8.171 8.083 8.171 7.747V5.31H3.09ZM13.351 9.753C13.603 9.502 14.011 9.502 14.263 9.753 14.515 10.006 14.515 10.414 14.263 10.666L12.93 11.999 14.263 13.332C14.516 13.584 14.515 13.994 14.263 14.247 14.011 14.498 13.603 14.498 13.351 14.247L12.016 12.912 10.683 14.245C10.431 14.497 10.023 14.497 9.771 14.245 9.519 13.993 9.518 13.584 9.771 13.332L11.103 11.999 9.771 10.666C9.519 10.414 9.519 10.006 9.771 9.753 10.023 9.502 10.431 9.502 10.683 9.753L12.017 11.086 13.351 9.753Z" fill="black"/>
</svg>