<svg width="24" height="24" viewBox="0 0 24 24" fill="none" xmlns="http://www.w3.org/2000/svg">
<path d="M9 14.2353L9 18.7291M15 14.2353V18.7291M2.99963 9.72913H20.9996M2.99963 14.2291H20.9996M9 5.25L9 9.7159M15 5.25V9.7438M6.75732 10.0385L3.30291 13.555M11.2668 10.0479L7.125 14.1898M15.7668 10.0479L11.6331 14.1816M20.2668 10.0479L16.1331 14.1816M3.83333 18.7641H20.1667C20.6269 18.7641 21 18.391 21 17.9308V6.08333C21 5.6231 20.6269 5.25 20.1667 5.25H3.83333C3.3731 5.25 3 5.62309 3 6.08333V17.9308C3 18.391 3.3731 18.7641 3.83333 18.7641Z" stroke="black" stroke-width="1.5" stroke-linecap="round" stroke-linejoin="round"/>
</svg>
