<svg viewBox="0 0 24 24" fill="none" xmlns="http://www.w3.org/2000/svg" width="24" height="24">
<path d="M3.18 4.11C2.352 4.11 1.681 4.781 1.68 5.61V18.39C1.681 19.218 2.352 19.89 3.18 19.89H20.821C21.649 19.89 22.32 19.218 22.321 18.39V5.61C22.321 4.782 21.649 4.11 20.821 4.11H3.18ZM20.821 5.31C20.986 5.31 21.121 5.444 21.121 5.61V18.39C21.12 18.555 20.986 18.69 20.821 18.69H3.18C3.015 18.69 2.881 18.556 2.88 18.39V5.61C2.881 5.444 3.015 5.31 3.18 5.31H20.821ZM9 13.83C8.669 13.83 8.4 14.099 8.4 14.43 8.4 14.762 8.669 15.03 9 15.03H15C15.331 15.03 15.6 14.762 15.6 14.43 15.6 14.099 15.331 13.83 15 13.83H9ZM6 11.4C5.669 11.4 5.4 11.669 5.4 12 5.4 12.331 5.669 12.6 6 12.6H18C18.331 12.6 18.6 12.331 18.6 12 18.6 11.669 18.331 11.4 18 11.4H6ZM9 8.97C8.669 8.97 8.4 9.238 8.4 9.57 8.4 9.901 8.669 10.17 9 10.17H15C15.331 10.17 15.6 9.901 15.6 9.57 15.6 9.238 15.331 8.97 15 8.97H9Z" fill="black"/>
</svg>