<svg viewBox="0 0 24 24" fill="none" xmlns="http://www.w3.org/2000/svg" width="24" height="24">
<path d="M13.516 12C12.688 12 12.016 11.328 12.016 10.5V2.716C12.017 1.888 12.688 1.216 13.516 1.216H21.3C22.128 1.216 22.8 1.888 22.8 2.716V10.5C22.8 11.328 22.128 12 21.3 12H13.516ZM21.6 2.716C21.6 2.551 21.466 2.416 21.3 2.416H18V5.996H21.6V2.716ZM16.8 2.416H13.516C13.351 2.416 13.217 2.551 13.216 2.716V5.996H16.8V2.416ZM21.3 10.8C21.466 10.8 21.6 10.666 21.6 10.5V7.196H18V10.8H21.3ZM16.8 7.196H13.216V10.5C13.216 10.666 13.351 10.8 13.516 10.8H16.8V7.196ZM1.805 15.591C1.473 15.591 1.205 15.322 1.205 14.991 1.205 14.659 1.473 14.391 1.805 14.391H22.205C22.536 14.391 22.805 14.659 22.805 14.991 22.805 15.322 22.536 15.591 22.205 15.591H1.805ZM1.805 19.191C1.473 19.191 1.205 18.922 1.205 18.591 1.205 18.259 1.473 17.991 1.805 17.991H22.205C22.536 17.991 22.805 18.259 22.805 18.591 22.805 18.922 22.536 19.191 22.205 19.191H1.805ZM1.805 22.791C1.473 22.791 1.205 22.522 1.205 22.191 1.205 21.859 1.473 21.591 1.805 21.591H11.405C11.736 21.591 12.005 21.859 12.005 22.191 12.005 22.522 11.736 22.791 11.405 22.791H1.805Z" fill="black"/>
</svg>