<svg width="24" height="24" viewBox="0 0 24 24" fill="none" xmlns="http://www.w3.org/2000/svg">
<path d="M11.9999 12L20.9999 3M18.3636 5.63624C16.7695 4.04588 14.6366 3.11176 12.3867 3.01868C10.1369 2.92559 7.93406 3.68032 6.21401 5.13355C4.49397 6.58679 3.38201 8.63268 3.09812 10.8665C2.81422 13.1003 3.37907 15.3593 4.68092 17.1965C5.98277 19.0338 7.92678 20.3156 10.1284 20.7882C12.33 21.2609 14.6288 20.89 16.57 19.749C18.5113 18.6079 19.9536 16.7798 20.6116 14.6263C21.2696 12.4729 21.0953 10.1509 20.1233 8.11968M15.1818 8.81811C14.4374 8.07461 13.456 7.61544 12.4082 7.52041C11.3604 7.42539 10.3124 7.7005 9.4464 8.29794C8.58038 8.89538 7.95108 9.77738 7.66786 10.7906C7.38464 11.8039 7.46541 12.8844 7.89613 13.8443C8.32685 14.8042 9.0803 15.5828 10.0255 16.0449C10.9707 16.5069 12.048 16.6231 13.07 16.3734C14.092 16.1236 14.9942 15.5237 15.6198 14.6777C16.2454 13.8318 16.5548 12.7935 16.4943 11.7431" stroke="black" stroke-width="1.5" stroke-linecap="round" stroke-linejoin="round"/>
</svg>
