<svg width="24" height="24" viewBox="0 0 24 24" fill="none" xmlns="http://www.w3.org/2000/svg">
<path d="M15 7.5V18.8128C15.0001 18.9362 15.0306 19.0576 15.0888 19.1663C15.147 19.2751 15.2311 19.3678 15.3337 19.4362L16.365 20.1234C16.465 20.1901 16.5796 20.2318 16.6991 20.2449C16.8186 20.2581 16.9395 20.2423 17.0517 20.1989C17.1638 20.1555 17.2638 20.0858 17.3434 19.9957C17.4229 19.9055 17.4797 19.7976 17.5087 19.6809L18.75 15M3.75 18.7508C3.75003 18.8937 3.79085 19.0335 3.86765 19.1539C3.94446 19.2744 4.05405 19.3704 4.18354 19.4306C4.31304 19.4909 4.45705 19.5129 4.59864 19.4941C4.74023 19.4754 4.87351 19.4165 4.98281 19.3246C9.89531 15.2033 15 15.0008 15 15.0008H18.75C19.7446 15.0008 20.6984 14.6058 21.4017 13.9025C22.1049 13.1992 22.5 12.2454 22.5 11.2508C22.5 10.2563 22.1049 9.30245 21.4017 8.59919C20.6984 7.89593 19.7446 7.50084 18.75 7.50084H15C15 7.50084 9.89531 7.29834 4.98281 3.17803C4.87357 3.08613 4.74038 3.02732 4.59887 3.0085C4.45737 2.98968 4.31343 3.01164 4.18397 3.07179C4.05451 3.13194 3.9449 3.22779 3.86803 3.34808C3.79116 3.46836 3.75021 3.60809 3.75 3.75084V18.7508Z" stroke="black" stroke-width="1.5" stroke-linecap="round" stroke-linejoin="round"/>
</svg>
