<svg xmlns="http://www.w3.org/2000/svg" width="24" height="24" fill="currentColor" viewBox="0 0 24 24"><path d="M23.947 11.19a4.662 4.662 0 0 0-4.657-4.657h-4.034c-0.262-0.016-5.478-0.361-10.444-4.527a1.417 1.417 0 0 0-2.329 1.085v16.2a1.404 1.404 0 0 0 0.817 1.284 1.44 1.44 0 0 0 0.6 0.133 1.404 1.404 0 0 0 0.911-0.333c4.05-3.394 8.258-4.253 9.821-4.462v3.443a1.416 1.416 0 0 0 0.631 1.18l1.113 0.741a1.416 1.416 0 0 0 2.159-0.827l1.228-4.628a4.664 4.664 0 0 0 4.183-4.63zM4.031 19.444a0.203 0.203 0 0 1-0.334-0.154v-16.2a0.192 0.192 0 0 1 0.117-0.182 0.24 0.24 0 0 1 0.086-0.021 0.192 0.192 0 0 1 0.127 0.049c4.456 3.738 9.011 4.576 10.602 4.76v6.986c-1.588 0.187-6.143 1.026-10.598 4.763z m13.328 0.709a0.204 0.204 0 0 1-0.308 0.12l-1.114-0.742a0.204 0.204 0 0 1-0.09-0.169v-3.514h2.653z m1.931-5.52h-3.443V7.748h3.443a3.443 3.443 0 1 1 0 6.886z"/></svg>