<svg viewBox="0 0 24 24" fill="none" xmlns="http://www.w3.org/2000/svg" width="24" height="24">
<path d="M6.007 19.02C6.007 19.517 6.41 19.92 6.907 19.92H8.532C9.029 19.92 9.432 19.517 9.432 19.02V17.395C9.432 16.898 9.029 16.495 8.532 16.495H6.907C6.41 16.495 6.007 16.898 6.007 17.395V19.02Z" fill="black"/>
<path d="M14.568 19.02C14.568 19.517 14.971 19.92 15.468 19.92H17.093C17.59 19.92 17.993 19.517 17.993 19.02V17.395C17.993 16.898 17.59 16.495 17.093 16.495H15.468C14.971 16.495 14.568 16.898 14.568 17.395V19.02Z" fill="black"/>
<path d="M10.288 19.02C10.288 19.517 10.691 19.92 11.188 19.92H12.812C13.309 19.92 13.712 19.517 13.712 19.02V17.395C13.712 16.898 13.309 16.495 12.812 16.495H11.188C10.691 16.495 10.288 16.898 10.288 17.395V19.02Z" fill="black"/>
<path d="M15.8 9.601C16.937 9.601 18 10.423 18 11.6V14.601C18 14.932 17.731 15.201 17.4 15.201 17.19 15.201 17.005 15.092 16.898 14.928 16.567 15.101 16.189 15.201 15.8 15.201 14.663 15.201 13.601 14.378 13.601 13.201 13.601 12.023 14.663 11.2 15.8 11.2 16.137 11.2 16.466 11.274 16.764 11.405 16.66 11.095 16.32 10.801 15.8 10.801 15.397 10.801 15.156 10.894 15.023 11.026 14.788 11.259 14.409 11.258 14.175 11.023 13.942 10.788 13.942 10.408 14.177 10.175 14.631 9.724 15.248 9.601 15.8 9.601ZM9.8 7.2C10.032 7.2 10.244 7.334 10.343 7.544L13.543 14.346C13.684 14.645 13.556 15.003 13.256 15.144 12.957 15.285 12.598 15.156 12.457 14.857L11.678 13.201H7.922L7.143 14.857C7.001 15.156 6.644 15.284 6.345 15.144 6.045 15.003 5.916 14.645 6.056 14.346L9.257 7.544C9.356 7.334 9.568 7.2 9.8 7.2ZM8.487 12.001H11.113L9.799 9.209 8.487 12.001ZM14.801 13.201C14.801 13.57 15.17 14.001 15.8 14.001 16.351 14.001 16.704 13.671 16.784 13.341L16.8 13.201 16.784 13.06C16.704 12.73 16.352 12.4 15.8 12.4 15.17 12.4 14.801 12.832 14.801 13.201ZM20.7 20.91C20.7 21.284 20.552 21.642 20.287 21.907 20.023 22.171 19.664 22.32 19.29 22.32H4.71C4.336 22.32 3.977 22.171 3.713 21.907 3.448 21.642 3.3 21.284 3.3 20.91V3.09C3.3 2.716 3.448 2.357 3.713 2.092 3.977 1.828 4.336 1.68 4.71 1.68H14.43L14.548 1.692C14.663 1.715 14.77 1.771 14.855 1.856L20.524 7.525C20.637 7.638 20.7 7.791 20.7 7.95V20.91ZM15.03 7.05C15.03 7.215 15.165 7.35 15.33 7.35H18.652L15.03 3.728V7.05ZM4.5 20.91C4.5 20.966 4.522 21.019 4.561 21.058 4.6 21.097 4.654 21.12 4.71 21.12H19.29C19.346 21.12 19.4 21.097 19.439 21.058 19.478 21.019 19.5 20.966 19.5 20.91V8.55H15.33C14.502 8.55 13.83 7.878 13.83 7.05V2.88H4.71C4.654 2.88 4.6 2.902 4.561 2.941 4.522 2.98 4.5 3.034 4.5 3.09V20.91Z" fill="black"/>
</svg>