<svg viewBox="0 0 24 24" fill="none" xmlns="http://www.w3.org/2000/svg" width="24" height="24">
<path d="M5.698 21C5.698 21.331 5.429 21.6 5.098 21.6 4.767 21.6 4.498 21.331 4.498 21L4.498 3C4.498 2.669 4.767 2.4 5.098 2.4 5.429 2.4 5.698 2.669 5.698 3L5.698 21Z" fill="black"/>
<path d="M14.089 9C14.089 9.331 13.82 9.6 13.489 9.6 13.157 9.6 12.889 9.331 12.889 9V3C12.889 2.669 13.157 2.4 13.489 2.4 13.82 2.4 14.089 2.669 14.089 3V9Z" fill="black"/>
<path d="M14.089 21C14.089 21.331 13.82 21.6 13.489 21.6 13.157 21.6 12.889 21.331 12.889 21V15C12.889 14.669 13.157 14.4 13.489 14.4 13.82 14.4 14.089 14.669 14.089 15V21Z" fill="black"/>
<path d="M18.726 12.425C18.961 12.191 18.961 11.811 18.726 11.577L16.54 9.389C16.305 9.155 15.926 9.155 15.691 9.389 15.457 9.623 15.457 10.004 15.691 10.238L16.854 11.401H9.896C9.565 11.401 9.296 11.67 9.296 12.001 9.297 12.332 9.565 12.601 9.896 12.601H16.854L15.691 13.763C15.457 13.998 15.457 14.377 15.691 14.612 15.925 14.846 16.305 14.846 16.54 14.612L18.726 12.425Z" fill="black"/>
</svg>