<svg viewBox="0 0 24 24" fill="none" xmlns="http://www.w3.org/2000/svg" width="24" height="24">
<path d="M7.14 9.78C7.471 9.78 7.74 10.049 7.74 10.38 7.74 10.711 7.472 10.98 7.14 10.98H6.12V13.62C6.119 13.951 5.851 14.22 5.52 14.22 5.188 14.22 4.92 13.951 4.92 13.62V10.98H3.9C3.569 10.98 3.3 10.711 3.3 10.38 3.3 10.048 3.569 9.78 3.9 9.78H7.14Z" fill="black"/>
<path fill-rule="evenodd" clip-rule="evenodd" d="M3.497 2.646C3.742 2.424 4.121 2.442 4.344 2.687L20.544 20.507C20.767 20.752 20.748 21.131 20.503 21.354 20.258 21.577 19.879 21.559 19.656 21.314L16.881 18.262C16.854 18.265 16.827 18.27 16.8 18.27H1.47C1.096 18.27 0.737 18.12 0.472 17.856 0.208 17.592 0.06 17.233 0.06 16.86V7.139C0.06 6.766 0.208 6.406 0.472 6.142 0.737 5.878 1.096 5.73 1.47 5.73H5.488L3.456 3.494C3.233 3.249 3.252 2.869 3.497 2.646ZM1.47 6.93C1.414 6.93 1.36 6.951 1.321 6.991 1.281 7.03 1.26 7.084 1.26 7.139V16.86C1.26 16.915 1.282 16.968 1.321 17.008 1.36 17.047 1.414 17.07 1.47 17.07H15.797L6.579 6.93H1.47Z" fill="black"/>
<path d="M22.53 5.73C22.904 5.73 23.262 5.878 23.527 6.142 23.791 6.406 23.94 6.766 23.94 7.139V16.86C23.94 17.234 23.791 17.592 23.527 17.856 23.262 18.12 22.904 18.27 22.53 18.27H21C20.669 18.27 20.4 18.001 20.4 17.67 20.4 17.339 20.669 17.07 21 17.07H22.53C22.586 17.07 22.639 17.047 22.678 17.008 22.717 16.968 22.74 16.915 22.74 16.86V7.139C22.74 7.084 22.717 7.03 22.678 6.991 22.639 6.952 22.586 6.93 22.53 6.93H10.8C10.469 6.93 10.2 6.661 10.2 6.33 10.2 5.998 10.469 5.73 10.8 5.73H22.53Z" fill="black"/>
</svg>