<svg width="24" height="24" viewBox="0 0 24 24" fill="none" xmlns="http://www.w3.org/2000/svg">
<path d="M22.1615 21.2439H2.25C2.05109 21.2439 1.86032 21.1649 1.71967 21.0242C1.57902 20.8836 1.5 20.6928 1.5 20.4939V5.6001C1.5 5.40119 1.57902 5.21042 1.71967 5.06977C1.86032 4.92912 2.05109 4.8501 2.25 4.8501H10.5M6 8.6001V11.6001M4.5 8.6001H7.5M10.5 2.74756L10.5 15.3476M19.5 16.375L17.625 18.25M18.3203 13.8105L14.7578 17.373M2.37001 21.2439H21.7504C21.9493 21.2439 22.14 21.1649 22.2807 21.0242C22.4213 20.8836 22.5004 20.6928 22.5004 20.4939V5.6001C22.5004 5.40119 22.4213 5.21042 22.2807 5.06977C22.14 4.92912 21.9493 4.8501 21.7504 4.8501H13.5004" stroke="black" stroke-width="1.5" stroke-linecap="round" stroke-linejoin="round"/>
</svg>
