<svg viewBox="0 0 24 24" fill="none" xmlns="http://www.w3.org/2000/svg" width="24" height="24">
<g clip-path="url(#clip0_902_164)">
<path d="M20.936 1.825C21.267 1.825 21.536 2.094 21.536 2.425 21.536 2.757 21.267 3.025 20.936 3.025H3.116C2.785 3.025 2.516 2.757 2.516 2.425 2.516 2.094 2.785 1.825 3.116 1.825H20.936Z" fill="black"/>
<path d="M20.936 5.875C21.267 5.875 21.536 6.144 21.536 6.475 21.536 6.807 21.267 7.075 20.936 7.075H3.116C2.785 7.075 2.516 6.807 2.516 6.475 2.516 6.144 2.785 5.875 3.116 5.875H20.936Z" fill="black"/>
<path fill-rule="evenodd" clip-rule="evenodd" d="M17.13 9.926C17.122 9.925 17.115 9.925 17.107 9.925H17.069C17.089 9.925 17.11 9.925 17.13 9.926Z" fill="black"/>
<path fill-rule="evenodd" clip-rule="evenodd" d="M2.486 18.098C2.472 18.15 2.464 18.204 2.464 18.261 2.464 18.341 2.48 18.417 2.508 18.487 2.458 18.363 2.45 18.226 2.486 18.098ZM2.64 18.684C2.638 18.683 2.641 18.686 2.64 18.684 2.643 18.687 2.65 18.695 2.653 18.698L2.64 18.684Z" fill="black"/>
<path fill-rule="evenodd" clip-rule="evenodd" d="M17.13 9.926C17.11 9.925 17.089 9.925 17.069 9.925H10.992 3.116C2.785 9.925 2.516 10.194 2.516 10.525 2.516 10.857 2.785 11.125 3.116 11.125H10.992 17.069 17.107C17.96 11.135 18.776 11.479 19.38 12.083 19.992 12.695 20.336 13.526 20.336 14.392 20.336 15.259 19.993 16.091 19.38 16.703 18.767 17.316 17.936 17.661 17.069 17.661H4.512L6.803 15.369C7.037 15.135 7.037 14.755 6.803 14.521 6.569 14.286 6.189 14.286 5.955 14.521L2.64 17.836 2.631 17.845C2.562 17.918 2.511 18.008 2.486 18.098 2.45 18.226 2.458 18.363 2.508 18.487 2.538 18.559 2.581 18.626 2.64 18.684 2.643 18.687 2.65 18.695 2.653 18.698L5.955 22C6.189 22.233 6.569 22.234 6.803 22 7.038 21.765 7.037 21.386 6.803 21.151L4.513 18.861H17.069C18.254 18.861 19.391 18.39 20.228 17.552 21.066 16.714 21.536 15.577 21.536 14.392 21.536 13.208 21.066 12.072 20.228 11.234 19.405 10.411 18.293 9.942 17.13 9.926Z" fill="black"/>
</g>
<defs>
<clipPath id="clip0_902_164">
<rect width="24" height="24" fill="white"/>
</clipPath>
</defs>
</svg>