<svg width="24" height="24" viewBox="0 0 24 24" fill="none" xmlns="http://www.w3.org/2000/svg">
<path d="M7.00391 19.5C7.00391 19.7761 6.78005 20 6.50391 20C6.22776 20 6.00391 19.7761 6.00391 19.5L6.00391 4.5C6.00391 4.22386 6.22776 4 6.50391 4C6.78005 4 7.00391 4.22386 7.00391 4.5L7.00391 19.5Z" fill="black"/>
<path d="M17.9961 19.5C17.9961 19.7761 17.7722 20 17.4961 20C17.22 20 16.9961 19.7761 16.9961 19.5V4.5C16.9961 4.22386 17.22 4 17.4961 4C17.7722 4 17.9961 4.22386 17.9961 4.5V19.5Z" fill="black"/>
<path d="M15.861 12.3543C16.0562 12.1592 16.056 11.8426 15.861 11.6473L14.0388 9.82407C13.8436 9.62907 13.527 9.62923 13.3318 9.82407C13.1367 10.0193 13.1366 10.3369 13.3318 10.5321L14.2995 11.4998H8.50174C8.22603 11.5002 8.00191 11.7241 8.00174 11.9998C8.00174 12.2757 8.22593 12.4994 8.50174 12.4998H14.3015L13.3318 13.4695C13.1367 13.6648 13.1366 13.9814 13.3318 14.1766C13.527 14.3715 13.8436 14.3715 14.0388 14.1766L15.861 12.3543Z" fill="black"/>
</svg>
