<svg viewBox="0 0 24 24" fill="none" xmlns="http://www.w3.org/2000/svg" width="24" height="24">
<path d="M9.78 13.6V-0.171C9.78-0.502 10.049-0.771 10.38-0.771 10.711-0.771 10.98-0.502 10.98-0.171V13.6C10.98 13.931 10.711 14.2 10.38 14.2 10.049 14.2 9.78 13.931 9.78 13.6Z" fill="black"/>
<path d="M0.06 21.625V10.31C0.06 9.979 0.328 9.71 0.66 9.71 0.991 9.71 1.26 9.979 1.26 10.31V21.625C1.26 21.666 1.278 21.729 1.351 21.791 1.427 21.856 1.549 21.906 1.691 21.906H22.309C22.451 21.906 22.573 21.856 22.649 21.791 22.722 21.729 22.74 21.666 22.74 21.625V8.457C22.74 8.126 23.009 7.857 23.34 7.857 23.672 7.857 23.94 8.126 23.94 8.457V21.625C23.94 22.05 23.742 22.436 23.428 22.704 23.118 22.969 22.714 23.106 22.309 23.106H1.691C1.286 23.106 0.882 22.969 0.572 22.704 0.258 22.436 0.06 22.051 0.06 21.625Z" fill="black"/>
<path d="M22.74 12.79V3.069C22.74 3.014 22.718 2.96 22.679 2.92 22.639 2.881 22.585 2.859 22.53 2.859H13.62C13.289 2.859 13.02 2.591 13.02 2.259 13.02 1.928 13.289 1.659 13.62 1.659H22.53C22.904 1.659 23.263 1.808 23.527 2.072 23.792 2.336 23.94 2.695 23.94 3.069V12.79C23.939 13.121 23.671 13.39 23.34 13.39 23.009 13.39 22.74 13.121 22.74 12.79Z" fill="black"/>
<path d="M0.06 12.79V3.069C0.06 2.695 0.208 2.336 0.472 2.072 0.737 1.808 1.096 1.659 1.47 1.659H10.379C10.711 1.659 10.979 1.928 10.979 2.259 10.979 2.591 10.711 2.859 10.379 2.859H1.47C1.414 2.859 1.36 2.881 1.321 2.92 1.281 2.96 1.26 3.014 1.26 3.069V12.79C1.26 13.121 0.991 13.39 0.66 13.39 0.329 13.39 0.06 13.121 0.06 12.79Z" fill="black"/>
<path d="M7.14 5.709C7.472 5.71 7.74 5.978 7.74 6.309 7.74 6.641 7.472 6.909 7.14 6.909H3.9C3.569 6.909 3.3 6.641 3.3 6.309 3.3 5.978 3.569 5.709 3.9 5.709H7.14Z" fill="black"/>
<path d="M4.92 9.55V6.309C4.92 5.978 5.189 5.709 5.52 5.709 5.851 5.709 6.12 5.978 6.12 6.309V9.55C6.12 9.881 5.851 10.15 5.52 10.15 5.189 10.15 4.92 9.881 4.92 9.55Z" fill="black"/>
<path d="M19.674 16.827C19.908 16.593 20.288 16.593 20.523 16.827 20.757 17.061 20.757 17.441 20.523 17.675L18.498 19.7C18.263 19.935 17.883 19.935 17.649 19.7 17.415 19.466 17.415 19.086 17.649 18.852L19.674 16.827Z" fill="black"/>
<path d="M19.269 14.599C19.503 14.365 19.883 14.365 20.117 14.599 20.351 14.834 20.351 15.213 20.117 15.448L16.27 19.295C16.035 19.529 15.656 19.529 15.421 19.295 15.187 19.061 15.187 18.681 15.421 18.447L19.269 14.599Z" fill="black"/>
</svg>