<svg viewBox="0 0 24 24" fill="none" xmlns="http://www.w3.org/2000/svg" width="24" height="24">
<path d="M7.9502 10.1497C8.22613 10.1498 8.45 10.3738 8.4502 10.6497C8.4502 10.9257 8.22625 11.1496 7.9502 11.1497H7.09961V13.3499C7.0995 13.6259 6.87569 13.8499 6.59961 13.8499C6.3237 13.8497 6.09971 13.6258 6.09961 13.3499V11.1497H5.25C4.97386 11.1497 4.75 10.9258 4.75 10.6497C4.7502 10.3737 4.97398 10.1497 5.25 10.1497H7.9502Z" fill="black"/>
<path fill-rule="evenodd" clip-rule="evenodd" d="M4.91406 4.20532C5.1184 4.01985 5.43445 4.03527 5.62012 4.2395L19.1201 19.0891C19.3056 19.2935 19.2902 19.6095 19.0859 19.7952C18.8817 19.9805 18.5656 19.9659 18.3799 19.762L16.0674 17.218C16.0453 17.221 16.0229 17.2248 16 17.2249H3.22461C2.91314 17.2247 2.61381 17.1004 2.39355 16.8801C2.17373 16.6599 2.04991 16.3612 2.0498 16.0501V7.94947C2.04995 7.63804 2.17333 7.33863 2.39355 7.11841C2.6138 6.8982 2.91317 6.77478 3.22461 6.77466H6.57324L4.87988 4.91138C4.69447 4.70711 4.71003 4.39102 4.91406 4.20532ZM3.22461 7.77466C3.17838 7.77477 3.1333 7.79277 3.10059 7.82544C3.0679 7.85813 3.04995 7.90325 3.0498 7.94947V16.0501C3.04991 16.096 3.06829 16.1404 3.10059 16.1731C3.1333 16.2058 3.17835 16.2247 3.22461 16.2249H15.1641L7.48242 7.77466H3.22461Z" fill="black"/>
<path d="M20.7754 6.77466C21.0866 6.77477 21.3853 6.89851 21.6055 7.11841C21.8257 7.33863 21.95 7.63804 21.9502 7.94947V16.0501C21.9501 16.3614 21.8256 16.6599 21.6055 16.8801C21.3852 17.1004 21.0869 17.2247 20.7754 17.2249H19.5C19.2239 17.2249 19.0001 17.0009 19 16.7249C19.0002 16.4489 19.224 16.2249 19.5 16.2249H20.7754C20.8217 16.2247 20.8657 16.2058 20.8984 16.1731C20.931 16.1404 20.9501 16.0962 20.9502 16.0501V7.94947C20.95 7.90325 20.9311 7.85813 20.8984 7.82544C20.8658 7.79307 20.8214 7.77477 20.7754 7.77466H11C10.7239 7.77466 10.5 7.5508 10.5 7.27466C10.5002 6.99869 10.724 6.77466 11 6.77466H20.7754Z" fill="black"/>
</svg>