<svg width="24" height="24" viewBox="0 0 24 24" fill="none" xmlns="http://www.w3.org/2000/svg">
<path d="M3 6.25C3 5.83579 3.33579 5.5 3.75 5.5H20.25C20.6642 5.5 21 5.83579 21 6.25V12.75C21 13.1642 20.6642 13.5 20.25 13.5H3.75C3.33579 13.5 3 13.1642 3 12.75V6.25Z" fill="black"/>
<path d="M3 15.25C3 14.8358 3.33579 14.5 3.75 14.5H6.25C6.66421 14.5 7 14.8358 7 15.25V17.75C7 18.1642 6.66421 18.5 6.25 18.5H3.75C3.33579 18.5 3 18.1642 3 17.75V15.25Z" fill="black"/>
<path d="M17 15.25C17 14.8358 17.3358 14.5 17.75 14.5H20.25C20.6642 14.5 21 14.8358 21 15.25V17.75C21 18.1642 20.6642 18.5 20.25 18.5H17.75C17.3358 18.5 17 18.1642 17 17.75V15.25Z" fill="black"/>
<path d="M10 15.25C10 14.8358 10.3358 14.5 10.75 14.5H13.25C13.6642 14.5 14 14.8358 14 15.25V17.75C14 18.1642 13.6642 18.5 13.25 18.5H10.75C10.3358 18.5 10 18.1642 10 17.75V15.25Z" fill="black"/>
</svg>
