<svg viewBox="0 0 24 24" fill="none" xmlns="http://www.w3.org/2000/svg" width="24" height="24">
<path d="M5.1 22.8C4.603 22.8 4.2 22.397 4.2 21.9V2.1C4.2 1.603 4.603 1.2 5.1 1.2H12.9C13.397 1.2 13.8 1.603 13.8 2.1V21.9C13.8 22.397 13.397 22.8 12.9 22.8H5.1Z" fill="black"/>
<path d="M15.9 22.8C15.403 22.8 15 22.397 15 21.9V18.9C15 18.403 15.403 18 15.9 18H18.9C19.397 18 19.8 18.403 19.8 18.9V21.9C19.8 22.397 19.397 22.8 18.9 22.8H15.9Z" fill="black"/>
<path d="M15.9 6C15.403 6 15 5.597 15 5.1V2.1C15 1.603 15.403 1.2 15.9 1.2H18.9C19.397 1.2 19.8 1.603 19.8 2.1V5.1C19.8 5.597 19.397 6 18.9 6H15.9Z" fill="black"/>
<path d="M15.9 14.4C15.403 14.4 15 13.997 15 13.5V10.5C15 10.003 15.403 9.6 15.9 9.6H18.9C19.397 9.6 19.8 10.003 19.8 10.5V13.5C19.8 13.997 19.397 14.4 18.9 14.4H15.9Z" fill="black"/>
</svg>