<svg width="24" height="24" viewBox="0 0 24 24" fill="none" xmlns="http://www.w3.org/2000/svg">
<path d="M19.502 21C20.3304 21 21.002 20.3284 21.002 19.5V11.46C21.002 10.6316 20.3304 9.96 19.502 9.96H4.50199C3.67356 9.96 3.00199 10.6316 3.00199 11.46V19.5C3.00199 20.3284 3.67357 21 4.50199 21H19.502Z" stroke="black" stroke-width="1.5"/>
<path d="M20.252 6.96094C20.6662 6.96094 21.002 6.62515 21.002 6.21094V3.75C21.002 3.33579 20.6662 3 20.252 3H17.792C17.3778 3 17.042 3.33579 17.042 3.75V6.21094C17.042 6.62515 17.3778 6.96094 17.792 6.96094H20.252Z" stroke="black" stroke-width="1.5"/>
<path d="M6.20756 6.96094C6.62177 6.96094 6.95756 6.62515 6.95756 6.21094V3.75C6.95756 3.33579 6.62177 3 6.20756 3H3.74756C3.33335 3 2.99756 3.33579 2.99756 3.75V6.21094C2.99756 6.62515 3.33335 6.96094 3.74756 6.96094H6.20756Z" stroke="black" stroke-width="1.5"/>
<path d="M13.232 6.96094C13.6462 6.96094 13.982 6.62515 13.982 6.21094V3.75C13.982 3.33579 13.6462 3 13.232 3H10.772C10.3578 3 10.022 3.33579 10.022 3.75V6.21094C10.022 6.62515 10.3578 6.96094 10.772 6.96094H13.232Z" stroke="black" stroke-width="1.5"/>
</svg>
