<svg viewBox="0 0 24 24" fill="none" xmlns="http://www.w3.org/2000/svg" width="24" height="24">
<path d="M1.2 5.1C1.2 4.603 1.603 4.2 2.1 4.2H21.9C22.397 4.2 22.8 4.603 22.8 5.1V12.9C22.8 13.397 22.397 13.8 21.9 13.8H2.1C1.603 13.8 1.2 13.397 1.2 12.9V5.1Z" fill="black"/>
<path d="M1.2 15.9C1.2 15.403 1.603 15 2.1 15H5.1C5.597 15 6 15.403 6 15.9V18.9C6 19.397 5.597 19.8 5.1 19.8H2.1C1.603 19.8 1.2 19.397 1.2 18.9V15.9Z" fill="black"/>
<path d="M18 15.9C18 15.403 18.403 15 18.9 15H21.9C22.397 15 22.8 15.403 22.8 15.9V18.9C22.8 19.397 22.397 19.8 21.9 19.8H18.9C18.403 19.8 18 19.397 18 18.9V15.9Z" fill="black"/>
<path d="M9.6 15.9C9.6 15.403 10.003 15 10.5 15H13.5C13.997 15 14.4 15.403 14.4 15.9V18.9C14.4 19.397 13.997 19.8 13.5 19.8H10.5C10.003 19.8 9.6 19.397 9.6 18.9V15.9Z" fill="black"/>
</svg>