<svg viewBox="0 0 24 24" fill="none" xmlns="http://www.w3.org/2000/svg" width="24" height="24">
<path d="M1.2 18.9C1.2 19.397 1.603 19.8 2.1 19.8H21.9C22.397 19.8 22.8 19.397 22.8 18.9V11.1C22.8 10.603 22.397 10.2 21.9 10.2H2.1C1.603 10.2 1.2 10.603 1.2 11.1V18.9Z" fill="black"/>
<path d="M1.2 8.1C1.2 8.597 1.603 9 2.1 9H5.1C5.597 9 6 8.597 6 8.1V5.1C6 4.603 5.597 4.2 5.1 4.2H2.1C1.603 4.2 1.2 4.603 1.2 5.1V8.1Z" fill="black"/>
<path d="M18 8.1C18 8.597 18.403 9 18.9 9H21.9C22.397 9 22.8 8.597 22.8 8.1V5.1C22.8 4.603 22.397 4.2 21.9 4.2H18.9C18.403 4.2 18 4.603 18 5.1V8.1Z" fill="black"/>
<path d="M9.6 8.1C9.6 8.597 10.003 9 10.5 9H13.5C13.997 9 14.4 8.597 14.4 8.1V5.1C14.4 4.603 13.997 4.2 13.5 4.2H10.5C10.003 4.2 9.6 4.603 9.6 5.1V8.1Z" fill="black"/>
</svg>