<svg viewBox="0 0 24 24" fill="none" xmlns="http://www.w3.org/2000/svg" width="24" height="24">
<path d="M18.9 22.8C19.397 22.8 19.8 22.397 19.8 21.9V2.1C19.8 1.603 19.397 1.2 18.9 1.2H11.1C10.603 1.2 10.2 1.603 10.2 2.1V21.9C10.2 22.397 10.603 22.8 11.1 22.8H18.9Z" fill="black"/>
<path d="M8.1 22.8C8.597 22.8 9 22.397 9 21.9V18.9C9 18.403 8.597 18 8.1 18H5.1C4.603 18 4.2 18.403 4.2 18.9V21.9C4.2 22.397 4.603 22.8 5.1 22.8H8.1Z" fill="black"/>
<path d="M8.1 6C8.597 6 9 5.597 9 5.1V2.1C9 1.603 8.597 1.2 8.1 1.2H5.1C4.603 1.2 4.2 1.603 4.2 2.1V5.1C4.2 5.597 4.603 6 5.1 6H8.1Z" fill="black"/>
<path d="M8.1 14.4C8.597 14.4 9 13.997 9 13.5V10.5C9 10.003 8.597 9.6 8.1 9.6H5.1C4.603 9.6 4.2 10.003 4.2 10.5V13.5C4.2 13.997 4.603 14.4 5.1 14.4H8.1Z" fill="black"/>
</svg>