<svg width="24" height="24" viewBox="0 0 24 24" fill="none" xmlns="http://www.w3.org/2000/svg">
<path d="M4.49756 3C3.66913 3 2.99756 3.67157 2.99756 4.5L2.99756 12.54C2.99756 13.3684 3.66913 14.04 4.49756 14.04L19.4976 14.04C20.326 14.04 20.9976 13.3684 20.9976 12.54L20.9976 4.5C20.9976 3.67157 20.326 3 19.4976 3L4.49756 3Z" stroke="black" stroke-width="1.5"/>
<path d="M3.74756 17.0391C3.33335 17.0391 2.99756 17.3748 2.99756 17.7891L2.99756 20.25C2.99756 20.6642 3.33335 21 3.74756 21H6.20756C6.62177 21 6.95756 20.6642 6.95756 20.25L6.95756 17.7891C6.95756 17.3748 6.62177 17.0391 6.20756 17.0391L3.74756 17.0391Z" stroke="black" stroke-width="1.5"/>
<path d="M17.792 17.0391C17.3778 17.0391 17.042 17.3748 17.042 17.7891V20.25C17.042 20.6642 17.3778 21 17.792 21H20.252C20.6662 21 21.002 20.6642 21.002 20.25V17.7891C21.002 17.3748 20.6662 17.0391 20.252 17.0391L17.792 17.0391Z" stroke="black" stroke-width="1.5"/>
<path d="M10.7676 17.0391C10.3534 17.0391 10.0176 17.3748 10.0176 17.7891V20.25C10.0176 20.6642 10.3534 21 10.7676 21H13.2276C13.6418 21 13.9776 20.6642 13.9776 20.25L13.9776 17.7891C13.9776 17.3748 13.6418 17.0391 13.2276 17.0391H10.7676Z" stroke="black" stroke-width="1.5"/>
</svg>
