<svg width="24" height="24" viewBox="0 0 24 24" fill="none" xmlns="http://www.w3.org/2000/svg">
<path d="M17.75 21C18.1642 21 18.5 20.6642 18.5 20.25V3.75C18.5 3.33579 18.1642 3 17.75 3H11.25C10.8358 3 10.5 3.33579 10.5 3.75V20.25C10.5 20.6642 10.8358 21 11.25 21H17.75Z" fill="black"/>
<path d="M8.75 21C9.16421 21 9.5 20.6642 9.5 20.25V17.75C9.5 17.3358 9.16421 17 8.75 17H6.25C5.83579 17 5.5 17.3358 5.5 17.75V20.25C5.5 20.6642 5.83579 21 6.25 21H8.75Z" fill="black"/>
<path d="M8.75 7C9.16421 7 9.5 6.66421 9.5 6.25V3.75C9.5 3.33579 9.16421 3 8.75 3H6.25C5.83579 3 5.5 3.33579 5.5 3.75V6.25C5.5 6.66421 5.83579 7 6.25 7H8.75Z" fill="black"/>
<path d="M8.75 14C9.16421 14 9.5 13.6642 9.5 13.25V10.75C9.5 10.3358 9.16421 10 8.75 10H6.25C5.83579 10 5.5 10.3358 5.5 10.75V13.25C5.5 13.6642 5.83579 14 6.25 14H8.75Z" fill="black"/>
</svg>
