<svg width="24" height="24" viewBox="0 0 24 24" fill="none" xmlns="http://www.w3.org/2000/svg">
<path d="M3 4.49805C3 3.66962 3.67157 2.99805 4.5 2.99805H12.54C13.3684 2.99805 14.04 3.66962 14.04 4.49805V19.498C14.04 20.3265 13.3684 20.998 12.54 20.998H4.5C3.67157 20.998 3 20.3265 3 19.498V4.49805Z" stroke="black" stroke-width="1.5"/>
<path d="M17.0391 3.74805C17.0391 3.33383 17.3748 2.99805 17.7891 2.99805H20.25C20.6642 2.99805 21 3.33383 21 3.74805V6.20805C21 6.62226 20.6642 6.95805 20.25 6.95805H17.7891C17.3748 6.95805 17.0391 6.62226 17.0391 6.20805V3.74805Z" stroke="black" stroke-width="1.5"/>
<path d="M17.0391 17.7925C17.0391 17.3783 17.3748 17.0425 17.7891 17.0425H20.25C20.6642 17.0425 21 17.3783 21 17.7925V20.2525C21 20.6667 20.6642 21.0025 20.25 21.0025H17.7891C17.3748 21.0025 17.0391 20.6667 17.0391 20.2525V17.7925Z" stroke="black" stroke-width="1.5"/>
<path d="M17.0391 10.7681C17.0391 10.3539 17.3748 10.0181 17.7891 10.0181H20.25C20.6642 10.0181 21 10.3539 21 10.7681V13.2281C21 13.6423 20.6642 13.9781 20.25 13.9781H17.7891C17.3748 13.9781 17.0391 13.6423 17.0391 13.2281V10.7681Z" stroke="black" stroke-width="1.5"/>
</svg>
