<svg width="24" height="24" viewBox="0 0 24 24" fill="none" xmlns="http://www.w3.org/2000/svg">
<path d="M3 17.75C3 18.1642 3.33579 18.5 3.75 18.5H20.25C20.6642 18.5 21 18.1642 21 17.75V11.25C21 10.8358 20.6642 10.5 20.25 10.5H3.75C3.33579 10.5 3 10.8358 3 11.25V17.75Z" fill="black"/>
<path d="M3 8.75C3 9.16421 3.33579 9.5 3.75 9.5H6.25C6.66421 9.5 7 9.16421 7 8.75V6.25C7 5.83579 6.66421 5.5 6.25 5.5H3.75C3.33579 5.5 3 5.83579 3 6.25V8.75Z" fill="black"/>
<path d="M17 8.75C17 9.16421 17.3358 9.5 17.75 9.5H20.25C20.6642 9.5 21 9.16421 21 8.75V6.25C21 5.83579 20.6642 5.5 20.25 5.5H17.75C17.3358 5.5 17 5.83579 17 6.25V8.75Z" fill="black"/>
<path d="M10 8.75C10 9.16421 10.3358 9.5 10.75 9.5H13.25C13.6642 9.5 14 9.16421 14 8.75V6.25C14 5.83579 13.6642 5.5 13.25 5.5H10.75C10.3358 5.5 10 5.83579 10 6.25V8.75Z" fill="black"/>
</svg>
