<svg viewBox="0 0 24 24" fill="none" xmlns="http://www.w3.org/2000/svg" width="24" height="24">
<path d="M19.495 3.183C19.495 3.017 19.361 2.883 19.195 2.883H4.8C4.634 2.883 4.5 3.017 4.5 3.183V20.825C4.5 20.991 4.634 21.125 4.8 21.125H19.195C19.361 21.125 19.495 20.991 19.495 20.825V3.183ZM20.695 20.825C20.695 21.654 20.023 22.325 19.195 22.325H4.8C3.972 22.325 3.3 21.654 3.3 20.825V3.183C3.3 2.354 3.972 1.683 4.8 1.683H19.195C20.023 1.683 20.695 2.355 20.695 3.183V20.825Z" fill="black"/>
<path d="M7.278 16.034L9.718 13.594 7.278 11.155C7.044 10.92 7.044 10.541 7.278 10.306 7.513 10.072 7.893 10.072 8.127 10.306L10.991 13.17C11.225 13.404 11.225 13.784 10.991 14.019L8.127 16.882C7.893 17.117 7.513 17.117 7.278 16.882 7.044 16.648 7.044 16.268 7.278 16.034Z" fill="black"/>
<path d="M13.056 10.954C12.724 10.954 12.456 10.685 12.456 10.354 12.456 10.023 12.724 9.754 13.056 9.754L16.296 9.754C16.627 9.754 16.896 10.023 16.896 10.354 16.896 10.685 16.627 10.954 16.296 10.954L13.056 10.954Z" fill="black"/>
<path d="M9.816 7.714C9.485 7.713 9.216 7.445 9.216 7.114 9.216 6.782 9.485 6.514 9.816 6.514L16.296 6.514C16.628 6.514 16.896 6.782 16.896 7.114 16.896 7.445 16.628 7.714 16.296 7.714L9.816 7.714Z" fill="black"/>
<path d="M13.056 14.194C12.724 14.194 12.456 13.925 12.456 13.594 12.456 13.263 12.724 12.994 13.056 12.994H16.296C16.627 12.994 16.896 13.263 16.896 13.594 16.896 13.926 16.627 14.194 16.296 14.194H13.056Z" fill="black"/>
<path d="M13.056 17.486C12.725 17.486 12.456 17.217 12.456 16.886 12.456 16.555 12.725 16.286 13.056 16.286H16.296C16.628 16.286 16.896 16.555 16.896 16.886 16.896 17.217 16.628 17.486 16.296 17.486H13.056Z" fill="black"/>
</svg>