<svg width="24" height="24" viewBox="0 0 24 24" fill="none" xmlns="http://www.w3.org/2000/svg">
<path d="M13.5249 3.8999C13.5249 3.62376 13.7488 3.3999 14.0249 3.3999C14.301 3.3999 14.5249 3.62376 14.5249 3.8999V8.12451H18.7495C19.0255 8.12451 19.2493 8.34855 19.2495 8.62451C19.2495 8.90065 19.0257 9.12451 18.7495 9.12451L18.7217 9.12594L18.252 9.12451H14.0249C13.7488 9.12451 13.5249 8.90065 13.5249 8.62451V4.3999V3.8999Z" fill="black"/>
<path fill-rule="evenodd" clip-rule="evenodd" d="M5.25 16.6605C4.97386 16.6605 4.75 16.4366 4.75 16.1605V4.57471C4.75005 4.26315 4.87344 3.96396 5.09375 3.74365C5.31406 3.52334 5.61325 3.39995 5.9248 3.3999H14.0249L14.123 3.40967C14.2191 3.42889 14.3086 3.47607 14.3789 3.54639L19.1035 8.271C19.1972 8.36467 19.2494 8.49204 19.2495 8.62451C19.2495 8.90065 19.0257 9.12451 18.7495 9.12451H18.252L18.25 8.83154L13.8184 4.3999H13.5249H5.9248C5.87846 4.39995 5.83355 4.41791 5.80078 4.45068C5.76801 4.48346 5.75005 4.52837 5.75 4.57471V16.1605C5.75 16.4366 5.52614 16.6605 5.25 16.6605ZM18.0752 20.6001H10.3965C10.1203 20.6001 9.89648 20.3762 9.89648 20.1001C9.89648 19.824 10.1203 19.6001 10.3965 19.6001H18.0752C18.1215 19.6 18.1664 19.5811 18.1992 19.5483C18.2317 19.5157 18.2499 19.4714 18.25 19.4253V18.72C18.25 18.4438 18.4738 18.22 18.75 18.22C19.0261 18.22 19.2499 18.4438 19.2499 18.7199L19.25 19.4253C19.2499 19.7366 19.1263 20.0351 18.9062 20.2554C18.6859 20.4757 18.3868 20.6 18.0752 20.6001Z" fill="black"/>
<path d="M11.6787 16.4038C11.8738 16.2086 11.8738 15.892 11.6787 15.6968C11.4835 15.5015 11.167 15.5016 10.9717 15.6968L7.27441 19.3931L5.60352 17.7222C5.40825 17.5269 5.09175 17.5269 4.89648 17.7222C4.70142 17.9174 4.70129 18.234 4.89648 18.4292L6.92188 20.4536C7.01563 20.5473 7.14283 20.6001 7.27539 20.6001C7.40786 20.6 7.53523 20.5473 7.62891 20.4536L11.6787 16.4038Z" fill="black"/>
<path d="M21.7607 13.2905C21.9139 13.1372 22 12.9291 22 12.7124C21.9999 12.4957 21.9139 12.2875 21.7607 12.1343L19.9854 10.3599L19.9248 10.3062C19.8 10.204 19.6478 10.1403 19.4873 10.1245L19.4072 10.1206C19.3539 10.1206 19.3012 10.1259 19.2496 10.136C19.1175 10.1621 18.9933 10.2204 18.8887 10.3062L18.8291 10.3599L13.9287 15.2603C13.9198 15.2692 13.9112 15.2783 13.9027 15.2875C13.816 15.3829 13.7542 15.4969 13.7201 15.6196C13.7143 15.6404 13.7094 15.6615 13.7053 15.6827C13.7027 15.6959 13.7005 15.7091 13.6986 15.7224L13.6965 15.7352L13.6947 15.7464L13.6934 15.7573L13.6895 15.8374V17.6138C13.6895 17.8304 13.7756 18.0386 13.9287 18.1919C13.9383 18.2015 13.9481 18.2108 13.9581 18.2198C14.088 18.3373 14.2527 18.4097 14.4262 18.4271C14.4529 18.4298 14.4798 18.4311 14.5068 18.4312H16.2832L16.3643 18.4272C16.418 18.4219 16.4679 18.4121 16.5191 18.3964C16.6237 18.3643 16.7245 18.3106 16.8092 18.2396C16.8272 18.2245 16.8446 18.2086 16.8613 18.1919L21.7607 13.2905ZM16.208 17.4312H14.6895V15.9136L17.7705 12.8306L19.2881 14.3481L16.208 17.4312ZM18.4775 12.1235L19.4072 11.1948L20.9238 12.7124L19.9951 13.6411L18.4775 12.1235Z" fill="black"/>
</svg>
