<svg viewBox="0 0 24 24" fill="none" xmlns="http://www.w3.org/2000/svg" width="24" height="24">
<path d="M13.83 2.28C13.83 1.949 14.099 1.68 14.43 1.68 14.761 1.68 15.03 1.949 15.03 2.28V7.349H20.099C20.431 7.349 20.699 7.618 20.699 7.949 20.699 8.281 20.431 8.549 20.099 8.549H14.43C14.099 8.549 13.83 8.281 13.83 7.949V2.28Z" fill="black"/>
<path fill-rule="evenodd" clip-rule="evenodd" d="M3.3 3.09V20.91C3.3 21.284 3.448 21.642 3.713 21.906 3.977 22.171 4.336 22.32 4.71 22.32H12.47C12.801 22.32 13.07 22.072 13.07 21.741 13.07 21.409 12.801 21.12 12.47 21.12H4.71C4.654 21.12 4.6 21.097 4.561 21.058 4.522 21.019 4.5 20.966 4.5 20.91V3.09C4.5 3.034 4.522 2.98 4.561 2.941 4.6 2.901 4.654 2.88 4.71 2.88H14.182L19.5 8.198V10.552C19.5 10.884 19.763 11.152 20.095 11.152 20.426 11.152 20.7 10.884 20.7 10.552L20.699 7.949C20.699 7.79 20.637 7.638 20.524 7.525L14.855 1.856C14.77 1.771 14.663 1.715 14.548 1.692L14.43 1.68H4.71C4.336 1.68 3.977 1.828 3.713 2.092 3.448 2.357 3.3 2.716 3.3 3.09Z" fill="black"/>
<path d="M14.43 13.83C14.761 13.83 15.03 14.099 15.03 14.43 15.03 14.761 14.761 15.03 14.43 15.03H9.57C9.239 15.03 8.97 14.761 8.97 14.43 8.97 14.099 9.239 13.83 9.57 13.83H14.43Z" fill="black"/>
<path d="M12.001 17.07C12.332 17.07 12.601 17.339 12.601 17.67 12.601 18.001 12.332 18.27 12.001 18.27H9.57C9.239 18.27 8.97 18.001 8.97 17.67 8.97 17.339 9.239 17.07 9.57 17.07H12.001Z" fill="black"/>
<path d="M14.43 10.59C14.761 10.59 15.03 10.858 15.03 11.19 15.03 11.521 14.761 11.79 14.43 11.79H9.57C9.239 11.79 8.97 11.521 8.97 11.19 8.97 10.858 9.239 10.59 9.57 10.59H14.43Z" fill="black"/>
<path fill-rule="evenodd" clip-rule="evenodd" d="M20.753 17.416L17.057 21.116H15.234V19.295L18.932 15.595 20.753 17.416ZM17.841 22.029C17.68 22.189 17.468 22.289 17.244 22.311L17.147 22.316H15.015C14.755 22.316 14.505 22.213 14.322 22.029 14.138 21.845 14.034 21.595 14.034 21.335V19.203L14.039 19.107C14.061 18.883 14.161 18.672 14.322 18.511L20.202 12.63 20.273 12.566C20.397 12.465 20.544 12.395 20.7 12.363 20.764 12.35 20.829 12.343 20.896 12.343L20.992 12.348C21.184 12.367 21.367 12.443 21.517 12.566L21.589 12.63 23.72 14.76C23.904 14.944 24.007 15.194 24.007 15.453 24.007 15.714 23.904 15.963 23.72 16.147L17.841 22.029ZM19.78 14.747L21.601 16.568 22.716 15.453 20.896 13.632 19.78 14.747Z" fill="black"/>
</svg>