<svg viewBox="0 0 24 24" fill="none" xmlns="http://www.w3.org/2000/svg" width="24" height="24">
<path d="M20.1 19.464C20.431 19.464 20.7 19.732 20.7 20.064V20.911C20.699 21.284 20.551 21.643 20.287 21.907 20.023 22.171 19.664 22.321 19.29 22.321H11.016C10.708 22.32 10.458 22.069 10.458 21.761 10.458 21.407 10.744 21.121 11.097 21.121H19.29C19.345 21.121 19.399 21.098 19.439 21.059 19.478 21.02 19.499 20.966 19.5 20.911V20.064C19.5 19.733 19.769 19.464 20.1 19.464Z" fill="black"/>
<path d="M8.335 16.436C8.569 16.201 8.949 16.201 9.184 16.436 9.418 16.67 9.418 17.05 9.184 17.284L7.179 19.289 9.184 21.295C9.418 21.53 9.418 21.909 9.184 22.144 8.949 22.378 8.569 22.378 8.335 22.144L6.33 20.137 4.324 22.144C4.09 22.378 3.71 22.378 3.475 22.144 3.241 21.909 3.241 21.53 3.475 21.295L5.482 19.289 3.475 17.284C3.363 17.171 3.304 17.025 3.3 16.877 3.299 16.866 3.299 16.854 3.3 16.842 3.304 16.695 3.363 16.548 3.475 16.436 3.71 16.201 4.09 16.201 4.324 16.436L6.33 18.441 8.335 16.436Z" fill="black"/>
<path fill-rule="evenodd" clip-rule="evenodd" d="M20.986 9.749C21.178 9.768 21.361 9.844 21.511 9.967L21.583 10.031 23.714 12.161C23.897 12.344 24.001 12.594 24.001 12.854 24.001 13.114 23.897 13.364 23.714 13.548L17.834 19.43C17.674 19.59 17.462 19.69 17.238 19.712L17.141 19.717H15.009C14.749 19.716 14.5 19.613 14.316 19.43 14.133 19.246 14.029 18.996 14.029 18.736V16.604L14.034 16.508C14.056 16.284 14.156 16.073 14.316 15.912L20.196 10.031 20.267 9.967C20.442 9.824 20.662 9.744 20.889 9.744L20.986 9.749ZM15.228 16.696V18.517H17.05L20.747 14.817 18.925 12.996 15.228 16.696ZM19.775 12.148L21.595 13.969 22.709 12.854 20.889 11.033 19.775 12.148Z" fill="black"/>
<path fill-rule="evenodd" clip-rule="evenodd" d="M14.551 1.692L14.633 1.716C14.638 1.718 14.644 1.72 14.649 1.723 14.66 1.727 14.67 1.732 14.68 1.737 14.703 1.748 14.727 1.759 14.749 1.773 14.756 1.778 14.764 1.782 14.771 1.787 14.793 1.803 14.814 1.82 14.834 1.839 14.843 1.846 14.851 1.853 14.859 1.861L20.524 7.526C20.636 7.638 20.7 7.791 20.7 7.95L20.687 8.071C20.631 8.344 20.389 8.55 20.1 8.55L20.066 8.551 19.502 8.55H14.43C14.099 8.55 13.83 8.281 13.83 7.95V2.88H4.709C4.654 2.881 4.6 2.902 4.561 2.941 4.522 2.981 4.5 3.035 4.5 3.09V14.563C4.499 14.894 4.231 15.163 3.9 15.163 3.569 15.163 3.3 14.894 3.3 14.563V3.09C3.3 2.717 3.448 2.357 3.712 2.093 3.976 1.829 4.336 1.679 4.709 1.679H14.43L14.551 1.692ZM15.03 7.35H18.651L15.03 3.729V7.35Z" fill="black"/>
</svg>