<svg xmlns="http://www.w3.org/2000/svg" width="24" height="24" fill="currentColor" viewBox="0 0 24 24"><path d="M20.91 4.103h-4.253v-1.013a2.227 2.227 0 0 0-2.227-2.227h-4.86a2.227 2.227 0 0 0-2.227 2.227v1.013H3.09a0.608 0.608 0 0 0 0 1.215h1.013v14.783A1.416 1.416 0 0 0 5.52 21.518h12.96a1.416 1.416 0 0 0 1.417-1.417V5.318h1.013a0.608 0.608 0 0 0 0-1.215M8.557 3.09a1.013 1.013 0 0 1 1.013-1.013h4.86a1.013 1.013 0 0 1 1.013 1.013v1.013H8.557z m10.126 17.01a0.204 0.204 0 0 1-0.203 0.203H5.52a0.204 0.204 0 0 1-0.203-0.203V5.317h13.366z m-8.506-10.53v6.48a0.607 0.607 0 0 1-1.214 0v-6.48a0.607 0.607 0 0 1 1.214 0m4.86 0v6.48a0.607 0.607 0 0 1-1.214 0v-6.48a0.607 0.607 0 0 1 1.214 0"/></svg>