<svg xmlns="http://www.w3.org/2000/svg" fill="currentColor" viewBox="0 0 24 24" width="24" height="24"><path d="M16.86 14.227h3.24a1.416 1.416 0 0 0 1.417-1.417v-3.24a1.416 1.416 0 0 0-1.417-1.417h-3.24a1.416 1.416 0 0 0-1.417 1.417v1.013H7.747V6.938H8.76a1.416 1.416 0 0 0 1.417-1.417v-3.24A1.416 1.416 0 0 0 8.76 0.864H5.52a1.416 1.416 0 0 0-1.417 1.417v3.24A1.416 1.416 0 0 0 5.52 6.938h1.013v11.543A2.227 2.227 0 0 0 8.76 20.708h6.683v1.013a1.416 1.416 0 0 0 1.417 1.417h3.24a1.416 1.416 0 0 0 1.417-1.417v-3.24a1.416 1.416 0 0 0-1.417-1.417h-3.24a1.416 1.416 0 0 0-1.417 1.417v1.013H8.76a1.013 1.013 0 0 1-1.013-1.013v-6.683h7.696v1.013a1.416 1.416 0 0 0 1.417 1.417zM5.317 5.52V2.28a0.204 0.204 0 0 1 0.203-0.203h3.24a0.204 0.204 0 0 1 0.203 0.203v3.24a0.204 0.204 0 0 1-0.203 0.203H5.52a0.204 0.204 0 0 1-0.203-0.203m11.34 12.96a0.204 0.204 0 0 1 0.203-0.203h3.24a0.204 0.204 0 0 1 0.203 0.203v3.24a0.204 0.204 0 0 1-0.203 0.203h-3.24a0.204 0.204 0 0 1-0.203-0.203z m0-8.91a0.204 0.204 0 0 1 0.203-0.203h3.24a0.204 0.204 0 0 1 0.203 0.203v3.24a0.204 0.204 0 0 1-0.203 0.203h-3.24a0.204 0.204 0 0 1-0.203-0.203z"/></svg>