<svg width="24" height="24" viewBox="0 0 24 24" fill="none" xmlns="http://www.w3.org/2000/svg">
<path d="M20.25 18H22.5C22.6989 18 22.8897 17.921 23.0303 17.7803C23.171 17.6397 23.25 17.4489 23.25 17.25V11.25L21.9375 7.96875C21.8815 7.8302 21.7853 7.71155 21.6613 7.62803C21.5374 7.54451 21.3913 7.49993 21.2419 7.5H17.25M23.25 11.25H17.25M2.25 13.5H17.25M20.25 18C20.25 19.2426 19.2426 20.25 18 20.25C16.7574 20.25 15.75 19.2426 15.75 18M20.25 18C20.25 16.7574 19.2426 15.75 18 15.75C16.7574 15.75 15.75 16.7574 15.75 18M15.75 18H9.75M9.75 18C9.75 19.2426 8.74264 20.25 7.5 20.25C6.25736 20.25 5.25 19.2426 5.25 18M9.75 18C9.75 16.7574 8.74264 15.75 7.5 15.75C6.25736 15.75 5.25 16.7574 5.25 18M5.25 18H3C2.80109 18 2.61032 17.921 2.46967 17.7803C2.32902 17.6397 2.25 17.4489 2.25 17.25V6.75C2.25 6.55109 2.32902 6.36032 2.46967 6.21967C2.61032 6.07902 2.80109 6 3 6H17.25V15.8784" stroke="black" stroke-width="1.5" stroke-linecap="round" stroke-linejoin="round"/>
</svg>
