<svg xmlns="http://www.w3.org/2000/svg" width="24" height="24" fill="currentColor" viewBox="0 0 24 24"><path d="M18.48 10.987a0.607 0.607 0 0 0 0.607-0.607V6.33a0.607 0.607 0 0 0-0.607-0.607h-4.253V1.47a0.607 0.607 0 0 0-0.607-0.607h-3.24a0.607 0.607 0 0 0-0.607 0.607A4.253 4.253 0 0 1 5.52 5.723a0.607 0.607 0 0 0-0.607 0.607v4.05a0.607 0.607 0 0 0 0.607 0.607h2.633v5.873a6.284 6.284 0 0 0 6.277 6.277H18.48a0.607 0.607 0 0 0 0.607-0.607v-4.86a0.607 0.607 0 0 0-0.607-0.607h-3.24a1.013 1.013 0 0 1-1.013-1.013v-5.063z m-3.24 7.29h2.633v3.646h-3.443a5.069 5.069 0 0 1-5.063-5.063v-6.48a0.607 0.607 0 0 0-0.607-0.607H6.127v-2.868a5.479 5.479 0 0 0 4.827-4.827h2.058v4.253a0.607 0.607 0 0 0 0.607 0.607h4.253v2.836h-4.253a0.607 0.607 0 0 0-0.607 0.607v5.67a2.227 2.227 0 0 0 2.227 2.227z"/></svg>