<svg xmlns="http://www.w3.org/2000/svg" width="24" height="24" fill="currentColor" viewBox="0 0 24 24"><path d="M9.773 3.09a0.607 0.607 0 0 1 0.607-0.607h3.24a0.608 0.608 0 0 1 0 1.215h-3.24a0.607 0.607 0 0 1-0.607-0.607z m3.847 17.213h-3.24a0.607 0.607 0 0 0 0 1.214h3.24a0.607 0.607 0 0 0 0-1.214m6.48-17.82h-2.43a0.608 0.608 0 0 0 0 1.215h2.43a0.204 0.204 0 0 1 0.203 0.203v2.43a0.607 0.607 0 0 0 1.214 0V3.901A1.416 1.416 0 0 0 20.1 2.484z m0.81 7.29a0.607 0.607 0 0 0-0.607 0.607v3.24a0.607 0.607 0 0 0 1.214 0v-3.24a0.607 0.607 0 0 0-0.607-0.607m-17.82 4.454a0.607 0.607 0 0 0 0.607-0.607v-3.24a0.608 0.608 0 0 0-1.215 0v3.24a0.607 0.607 0 0 0 0.607 0.607z m3.24 6.076H3.9a0.204 0.204 0 0 1-0.203-0.203v-2.43a0.608 0.608 0 0 0-1.215 0v2.43a1.416 1.416 0 0 0 1.417 1.417h2.43a0.607 0.607 0 0 0 0-1.214zM4.35 2.686a0.607 0.607 0 0 0-0.899 0.81l16.2 17.82a0.607 0.607 0 0 0 0.899-0.819z"/></svg>