<svg width="24" height="24" viewBox="0 0 24 24" fill="none" xmlns="http://www.w3.org/2000/svg">
<path d="M18 11.2498L19.1512 10.1511C19.8343 9.44381 20.2123 8.49655 20.2038 7.51331C20.1952 6.53008 19.8008 5.58953 19.1056 4.89425C18.4103 4.19897 17.4697 3.80458 16.4865 3.79604C15.5033 3.7875 14.556 4.16548 13.8488 4.84857L12.75 5.99982M5.99982 12.75L4.84857 13.8488C4.16548 14.556 3.7875 15.5033 3.79604 16.4865C3.80458 17.4697 4.19897 18.4103 4.89425 19.1056C5.58953 19.8008 6.53008 20.1952 7.51331 20.2038C8.49655 20.2123 9.44381 19.8343 10.1511 19.1512L11.2498 18M18 15H20.25M3.75 9H6M15 18V20.25M9 3.75V6" stroke="black" stroke-width="1.5" stroke-linecap="round" stroke-linejoin="round"/>
</svg>
