<svg xmlns="http://www.w3.org/2000/svg" width="24" height="24" fill="currentColor" viewBox="0 0 24 24"><path d="M19.29 4.71a3.444 3.444 0 0 0-4.86-0.005l-1.181 1.235a0.607 0.607 0 1 1-0.878-0.839l1.185-1.243 0.01-0.011a4.657 4.657 0 0 1 6.587 6.587l-0.011 0.01-1.243 1.185a0.607 0.607 0 1 1-0.839-0.878l1.238-1.181a3.444 3.444 0 0 0-0.009-4.86z m-8.544 13.355l-1.176 1.235a3.444 3.444 0 0 1-4.87-4.87l1.239-1.182a0.607 0.607 0 0 0-0.839-0.878l-1.243 1.186-0.011 0.01a4.657 4.657 0 0 0 6.587 6.587l0.009-0.011 1.186-1.243a0.607 0.607 0 1 0-0.878-0.839z m10.164-3.432H18.48a0.608 0.608 0 0 0 0 1.215h2.43a0.607 0.607 0 0 0 0-1.214zM3.09 9.368H5.52a0.608 0.608 0 0 0 0-1.215H3.09a0.608 0.608 0 0 0 0 1.215M15.24 17.874a0.607 0.607 0 0 0-0.607 0.607v2.43a0.608 0.608 0 0 0 1.215 0v-2.43a0.607 0.607 0 0 0-0.607-0.607zM8.76 6.128a0.607 0.607 0 0 0 0.607-0.607V3.091a0.608 0.608 0 0 0-1.215 0v2.43a0.607 0.607 0 0 0 0.607 0.607z"/></svg>