<svg width="24" height="24" viewBox="0 0 24 24" fill="none" xmlns="http://www.w3.org/2000/svg">
<path d="M8.25 8.25H4.5C4.08579 8.25 3.75 8.58579 3.75 9V19.5C3.75 19.9142 4.08579 20.25 4.5 20.25H19.5C19.9142 20.25 20.25 19.9142 20.25 19.5V9C20.25 8.58579 19.9142 8.25 19.5 8.25H8.25ZM8.25 8.25V5.25C8.25 4.25544 8.64509 3.30161 9.34835 2.59835C10.0516 1.89509 11.0054 1.5 12 1.5C13.8141 1.5 15.4022 2.78813 15.75 4.5M12 13.8745C12.2071 13.8745 12.375 14.0424 12.375 14.2495C12.375 14.4566 12.2071 14.6245 12 14.6245C11.7929 14.6245 11.625 14.4566 11.625 14.2495C11.625 14.0424 11.7929 13.8745 12 13.8745Z" stroke="black" stroke-width="1.5" stroke-linecap="round" stroke-linejoin="round"/>
</svg>
