<svg xmlns="http://www.w3.org/2000/svg" width="24" height="24" fill="currentColor" viewBox="0 0 24 24"><path d="M4.35 2.686a0.607 0.607 0 0 0-0.899 0.81l2.806 3.088c-0.961 0.151-2.093 0.556-3.245 1.486a1.416 1.416 0 0 0-0.114 2.108l5.033 5.033-4.461 4.456a0.607 0.607 0 1 0 0.86 0.858l4.46-4.461 5.033 5.038a1.416 1.416 0 0 0 1.002 0.416h0.101a1.416 1.416 0 0 0 1.032-0.56 8.64 8.64 0 0 0 1.26-2.312l2.43 2.678a0.607 0.607 0 1 0 0.897-0.818z m10.637 17.538a0.204 0.204 0 0 1-0.304 0.02L3.757 9.319a0.204 0.204 0 0 1 0.018-0.303c1.334-1.078 2.616-1.306 3.522-1.287l8.956 9.852c-0.22 1.076-0.799 2.021-1.267 2.643z m7.737-10.796l-4.52 4.534a0.607 0.607 0 1 1-0.86-0.858l4.52-4.535a0.204 0.204 0 0 0 0-0.288l-6.144-6.144a0.204 0.204 0 0 0-0.287 0L11.26 6.324a0.607 0.607 0 0 1-0.861-0.858l4.175-4.188a1.416 1.416 0 0 1 2.005 0l6.145 6.145a1.416 1.416 0 0 1 0 2.004z"/></svg>