<svg width="24" height="24" viewBox="0 0 24 24" fill="none" xmlns="http://www.w3.org/2000/svg">
<path d="M14.9829 11.2296L11.9829 8.22961L8.98289 11.2296M11.9829 8.22961V15.7296M21.2217 13.636C20.9208 15.342 20.1388 16.9266 18.9677 18.2033C17.7967 19.4799 16.2854 20.3955 14.6116 20.8424C12.306 21.4601 9.84941 21.1367 7.78225 19.9432C5.71509 18.7498 4.2067 16.784 3.58892 14.4784C2.97113 12.1728 3.29455 9.71618 4.48802 7.64902C5.6815 5.58186 7.64726 4.07348 9.95287 3.45569C11.6258 3.00575 13.3925 3.04302 15.0449 3.56313C16.6974 4.08324 18.1669 5.06453 19.2806 6.39154M17.4763 6.39154L19.2806 6.39154L19.2805 4.52086" stroke="black" stroke-width="1.5" stroke-linecap="round" stroke-linejoin="round"/>
</svg>
