<svg xmlns="http://www.w3.org/2000/svg" fill="currentColor" viewBox="0 0 24 24" width="24" height="24"><path d="M23.137 12.81v6.48a1.416 1.416 0 0 1-1.417 1.417H2.28a1.416 1.416 0 0 1-1.417-1.417v-6.48A1.416 1.416 0 0 1 2.28 11.393h4.86a0.608 0.608 0 0 1 0 1.215H2.28a0.204 0.204 0 0 0-0.203 0.203v6.48a0.204 0.204 0 0 0 0.203 0.203h19.44a0.204 0.204 0 0 0 0.203-0.203v-6.48a0.204 0.204 0 0 0-0.203-0.203h-4.86a0.607 0.607 0 0 1 0-1.214h4.86a1.416 1.416 0 0 1 1.417 1.417zM7.568 6.76l3.824-3.822V12a0.608 0.608 0 0 0 1.215 0V2.938l3.823 3.822a0.607 0.607 0 0 0 0.86-0.86l-4.86-4.86a0.607 0.607 0 0 0-0.86 0l-4.86 4.86a0.607 0.607 0 0 0 0.86 0.86z m11.519 9.29a1.013 1.013 0 1 0-1.013 1.013 1.013 1.013 0 0 0 1.013-1.013"/></svg>