<svg xmlns="http://www.w3.org/2000/svg" fill="currentColor" viewBox="0 0 24 24" width="24" height="24"><path d="M1.915 11.676a0.607 0.607 0 0 0 0.851-0.121 5.467 5.467 0 0 1 8.748 0 0.607 0.607 0 0 0 0.851 0.12 0.6 0.6 0 0 0 0.12-0.12 5.467 5.467 0 0 1 8.748 0 0.607 0.607 0 0 0 0.972-0.73 6.66 6.66 0 0 0-3.006-2.253 3.847 3.847 0 1 0-4.68 0A6.6 6.6 0 0 0 12 10.249a6.6 6.6 0 0 0-2.52-1.677 3.847 3.847 0 1 0-4.68 0 6.648 6.648 0 0 0-3.006 2.254 0.607 0.607 0 0 0 0.121 0.851zM16.86 2.887A2.633 2.633 0 1 1 14.227 5.52a2.633 2.633 0 0 1 2.633-2.633m-9.72 0A2.633 2.633 0 1 1 4.507 5.52 2.633 2.633 0 0 1 7.14 2.887M19.2 19.1a3.847 3.847 0 1 0-4.68 0 6.6 6.6 0 0 0-2.52 1.678 6.6 6.6 0 0 0-2.52-1.678 3.847 3.847 0 1 0-4.68 0 6.648 6.648 0 0 0-3.006 2.255 0.607 0.607 0 1 0 0.972 0.73 5.467 5.467 0 0 1 8.748 0 0.607 0.607 0 0 0 0.851 0.12 0.6 0.6 0 0 0 0.12-0.12 5.467 5.467 0 0 1 8.748 0 0.607 0.607 0 0 0 0.972-0.73A6.66 6.66 0 0 0 19.2 19.102zM7.14 13.417a2.633 2.633 0 1 1-2.633 2.633 2.633 2.633 0 0 1 2.633-2.633m9.72 0a2.633 2.633 0 1 1-2.633 2.633 2.633 2.633 0 0 1 2.633-2.633"/></svg>