<svg xmlns="http://www.w3.org/2000/svg" fill="currentColor" viewBox="0 0 24 24" width="24" height="24"><path d="M23.705 14.106a0.607 0.607 0 0 1-0.851-0.121 5.424 5.424 0 0 0-4.374-2.187 0.607 0.607 0 0 1 0-1.214 2.633 2.633 0 1 0-2.55-3.29 0.607 0.607 0 0 1-1.176-0.304 3.847 3.847 0 1 1 6.066 4.013 6.648 6.648 0 0 1 3.006 2.255 0.607 0.607 0 0 1-0.121 0.85z m-5.509 6.5a0.607 0.607 0 0 1-0.222 0.831 0.6 0.6 0 0 1-0.304 0.081 0.6 0.6 0 0 1-0.527-0.303 5.974 5.974 0 0 0-10.289 0 0.607 0.607 0 1 1-1.051-0.607 7.08 7.08 0 0 1 3.665-3.084 4.657 4.657 0 1 1 5.072 0 7.08 7.08 0 0 1 3.654 3.082zM12 17.063a3.443 3.443 0 1 0-3.443-3.443A3.444 3.444 0 0 0 12 17.063m-5.873-5.873a0.607 0.607 0 0 0-0.607-0.607 2.633 2.633 0 1 1 2.55-3.292 0.607 0.607 0 1 0 1.176-0.303 3.847 3.847 0 1 0-6.066 4.012 6.648 6.648 0 0 0-3.006 2.256 0.607 0.607 0 1 0 0.972 0.729A5.424 5.424 0 0 1 5.52 11.798a0.607 0.607 0 0 0 0.607-0.607z"/></svg>