<svg xmlns="http://www.w3.org/2000/svg" width="24" height="24" fill="currentColor" viewBox="0 0 24 24"><path d="M10.441 15.082a5.873 5.873 0 1 0-5.791 0 9.504 9.504 0 0 0-5.082 3.877 0.607 0.607 0 0 0 1.018 0.663 8.304 8.304 0 0 1 13.92 0 0.607 0.607 0 0 0 1.012-0.663 9.504 9.504 0 0 0-5.077-3.877m-7.553-5.106a4.657 4.657 0 1 1 4.658 4.657 4.663 4.663 0 0 1-4.658-4.657m21.364 9.82a0.607 0.607 0 0 1-0.84-0.176 8.28 8.28 0 0 0-6.956-3.773 0.607 0.607 0 0 1 0-1.214 4.657 4.657 0 1 0-1.73-8.985 0.607 0.607 0 1 1-0.451-1.128 5.873 5.873 0 0 1 5.077 10.56 9.504 9.504 0 0 1 5.082 3.878 0.607 0.607 0 0 1-0.181 0.838z"/></svg>