<svg xmlns="http://www.w3.org/2000/svg" width="24" height="24" fill="currentColor" viewBox="0 0 24 24"><path d="M24.611 9.984l-4.612-5.375a1.416 1.416 0 0 0-1.087-0.506H2.281A1.416 1.416 0 0 0 0.864 5.52v11.34a1.416 1.416 0 0 0 1.417 1.417H4.164a3.037 3.037 0 0 0 5.953 0h5.387a3.037 3.037 0 0 0 5.953 0h1.883a1.416 1.416 0 0 0 1.417-1.417v-6.48a0.6 0.6 0 0 0-0.146-0.396m-5.538-4.589l3.755 4.378h-6.171V5.317h2.254a0.204 0.204 0 0 1 0.161 0.078z m-9.705 4.378V5.317h6.076v4.456zM2.281 5.317h5.873v4.456H2.078V5.52a0.204 0.204 0 0 1 0.203-0.203m4.86 14.176a1.823 1.823 0 1 1 1.823-1.823 1.824 1.824 0 0 1-1.823 1.823m11.34 0a1.823 1.823 0 1 1 1.823-1.823 1.824 1.824 0 0 1-1.823 1.823m4.86-2.43h-1.883a3.037 3.037 0 0 0-5.953 0h-5.387a3.037 3.037 0 0 0-5.953 0H2.282a0.204 0.204 0 0 1-0.202-0.203v-5.873h21.465v5.873a0.204 0.204 0 0 1-0.203 0.203z"/></svg>