<svg width="24" height="24" viewBox="0 0 24 24" fill="none" xmlns="http://www.w3.org/2000/svg">
<path d="M20.25 17.25C20.25 18.4926 19.2426 19.5 18 19.5C16.7574 19.5 15.75 18.4926 15.75 17.25M20.25 17.25C20.25 16.0074 19.2426 15 18 15C16.7574 15 15.75 16.0074 15.75 17.25M5.25 17.25H3C2.80109 17.25 2.61032 17.171 2.46967 17.0303C2.32902 16.8897 2.25 16.6989 2.25 16.5V6C2.25 5.80109 2.32902 5.61032 2.46967 5.46967C2.61032 5.32902 2.80109 5.25 3 5.25H18.3994C18.5092 5.24998 18.6176 5.27407 18.7171 5.32056C18.8166 5.36705 18.9046 5.43481 18.975 5.51906L23.25 10.5V16.5C23.25 16.6989 23.171 16.8897 23.0303 17.0303C22.8897 17.171 22.6989 17.25 22.5 17.25H20.25M15.75 17.25H9.75M9.75 17.25C9.75 18.4926 8.74264 19.5 7.5 19.5C6.25736 19.5 5.25 18.4926 5.25 17.25M9.75 17.25C9.75 16.0074 8.74264 15 7.5 15C6.25736 15 5.25 16.0074 5.25 17.25M23.25 10.5H2.25M15.75 5.25V10.5M9 5.25V10.5" stroke="black" stroke-width="1.5" stroke-linecap="round" stroke-linejoin="round"/>
</svg>
