<svg xmlns="http://www.w3.org/2000/svg" width="24" height="24" fill="currentColor" viewBox="0 0 24 24"><path d="M24.437 6.605a0.612 0.612 0 0 0-0.624 0.03l-3.916 2.61V6.33A1.416 1.416 0 0 0 18.48 4.913H2.28a1.416 1.416 0 0 0-1.417 1.417v11.34A1.416 1.416 0 0 0 2.28 19.087h16.2a1.416 1.416 0 0 0 1.417-1.417v-2.915l3.916 2.611a0.607 0.607 0 0 0 0.944-0.506v-9.72a0.612 0.612 0 0 0-0.32-0.535m-5.754 11.065a0.204 0.204 0 0 1-0.203 0.203H2.28a0.204 0.204 0 0 1-0.203-0.203v-11.34a0.204 0.204 0 0 1 0.203-0.203h16.2a0.204 0.204 0 0 1 0.203 0.203z m4.86-1.945l-3.646-2.43v-2.59l3.646-2.43z"/></svg>