<svg xmlns="http://www.w3.org/2000/svg" width="24" height="24" fill="currentColor" viewBox="0 0 24 24"><path d="M14.698 1.734a0.612 0.612 0 0 0-0.64 0.066L6.932 7.343H2.281A1.416 1.416 0 0 0 0.864 8.76v6.48a1.416 1.416 0 0 0 1.417 1.417h4.651l7.126 5.543a0.607 0.607 0 0 0 0.98-0.48V2.28a0.612 0.612 0 0 0-0.34-0.546M2.078 15.24V8.76a0.204 0.204 0 0 1 0.203-0.203h4.253v6.886H2.281a0.204 0.204 0 0 1-0.203-0.203m11.746 5.238l-6.076-4.724V8.246l6.076-4.724z m5.116-11.021a3.847 3.847 0 0 1 0 5.087 0.607 0.607 0 1 1-0.911-0.804 2.633 2.633 0 0 0 0-3.48 0.607 0.607 0 0 1 0.911-0.803M23.948 12a7.884 7.884 0 0 1-2.011 5.264 0.607 0.607 0 1 1-0.905-0.81 6.684 6.684 0 0 0 0-8.91 0.607 0.607 0 1 1 0.905-0.81A7.884 7.884 0 0 1 23.948 12"/></svg>