<svg xmlns="http://www.w3.org/2000/svg" width="24" height="24" fill="currentColor" viewBox="0 0 24 24"><path d="M22.841 18.185L13.986 2.808a2.304 2.304 0 0 0-3.971 0L1.16 18.185a2.184 2.184 0 0 0 0 2.199 2.268 2.268 0 0 0 1.986 1.133h17.709a2.268 2.268 0 0 0 1.985-1.133 2.184 2.184 0 0 0 0.002-2.199z m-1.054 1.591a1.056 1.056 0 0 1-0.932 0.527H3.146a1.056 1.056 0 0 1-0.932-0.527 0.96 0.96 0 0 1 0-0.984l8.855-15.377a1.088 1.088 0 0 1 1.865 0l8.854 15.377a0.96 0.96 0 0 1-0.001 0.984m-10.394-6.156V9.57a0.608 0.608 0 0 1 1.215 0v4.05a0.607 0.607 0 0 1-1.214 0z m1.62 3.644a1.013 1.013 0 1 1-1.013-1.012 1.013 1.013 0 0 1 1.013 1.012"/></svg>