<svg width="24" height="24" viewBox="0 0 24 24" fill="none" xmlns="http://www.w3.org/2000/svg">
<path d="M12.0005 17.25C12.2076 17.25 12.3755 17.0821 12.3755 16.875C12.3755 16.6679 12.2076 16.5 12.0005 16.5C11.7934 16.5 11.6255 16.6679 11.6255 16.875C11.6255 17.0821 11.7934 17.25 12.0005 17.25Z" fill="black"/>
<path d="M13.3515 3.77062L12.7013 4.14439L12.7016 4.14491L13.3515 3.77062ZM21.5509 18.0084L22.2017 17.6356L22.2008 17.6342L21.5509 18.0084ZM2.45027 18.0084L1.80034 17.6341L1.7995 17.6356L2.45027 18.0084ZM10.6496 3.77062L11.2996 4.14491L11.2999 4.14439L10.6496 3.77062ZM11.2505 13.5C11.2505 13.9142 11.5863 14.25 12.0005 14.25C12.4147 14.25 12.7505 13.9142 12.7505 13.5H12.0005H11.2505ZM12.7505 9.75C12.7505 9.33579 12.4147 9 12.0005 9C11.5863 9 11.2505 9.33579 11.2505 9.75H12.0005H12.7505ZM13.3515 3.77062L12.7016 4.14491L20.901 18.3827L21.5509 18.0084L22.2008 17.6342L14.0014 3.39634L13.3515 3.77062ZM21.5509 18.0084L20.9001 18.3813C21.1723 18.8563 20.8395 19.5 20.2 19.5V20.25V21C21.9267 21 23.0789 19.1668 22.2017 17.6356L21.5509 18.0084ZM20.2 20.25V19.5H3.80121V20.25V21H20.2V20.25ZM3.80121 20.25V19.5C3.16167 19.5 2.82888 18.8563 3.10104 18.3813L2.45027 18.0084L1.7995 17.6356C0.922288 19.1668 2.0745 21 3.80121 21V20.25ZM2.45027 18.0084L3.1002 18.3827L11.2996 4.14491L10.6496 3.77062L9.99971 3.39634L1.80034 17.6342L2.45027 18.0084ZM10.6496 3.77062L11.2999 4.14439C11.6021 3.61854 12.399 3.61854 12.7013 4.14439L13.3515 3.77062L14.0018 3.39686C13.1228 1.86771 10.8784 1.86771 9.99941 3.39686L10.6496 3.77062ZM12.0005 13.5H12.7505V9.75H12.0005H11.2505V13.5H12.0005ZM12.3755 16.875H11.6255C11.6255 16.6679 11.7934 16.5 12.0005 16.5V17.25V18C12.6218 18 13.1255 17.4963 13.1255 16.875H12.3755ZM12.0005 17.25V16.5C12.2076 16.5 12.3755 16.6679 12.3755 16.875H11.6255H10.8755C10.8755 17.4963 11.3792 18 12.0005 18V17.25ZM11.6255 16.875H12.3755C12.3755 17.0821 12.2076 17.25 12.0005 17.25V16.5V15.75C11.3792 15.75 10.8755 16.2537 10.8755 16.875H11.6255ZM12.0005 16.5V17.25C11.7934 17.25 11.6255 17.0821 11.6255 16.875H12.3755H13.1255C13.1255 16.2537 12.6218 15.75 12.0005 15.75V16.5Z" fill="black"/>
</svg>
