<svg viewBox="0 0 24 24" fill="none" xmlns="http://www.w3.org/2000/svg" width="24" height="24">
<path d="M21.241 16.959C20.473 16.959 19.801 16.81 19.225 16.512 18.659 16.205 18.222 15.773 17.915 15.216 17.607 14.66 17.454 14.002 17.454 13.244 17.454 12.677 17.54 12.168 17.713 11.717 17.886 11.266 18.135 10.882 18.462 10.565 18.798 10.248 19.201 10.008 19.671 9.845 20.142 9.672 20.665 9.586 21.241 9.586 21.539 9.586 21.855 9.624 22.191 9.701 22.527 9.768 22.859 9.888 23.185 10.061 23.377 10.148 23.507 10.272 23.574 10.436 23.651 10.589 23.679 10.752 23.66 10.925 23.641 11.088 23.579 11.237 23.473 11.372 23.377 11.496 23.252 11.583 23.099 11.631 22.945 11.669 22.772 11.64 22.58 11.544 22.398 11.439 22.206 11.362 22.004 11.314 21.812 11.266 21.63 11.242 21.457 11.242 21.169 11.242 20.915 11.29 20.694 11.386 20.473 11.472 20.286 11.602 20.132 11.775 19.988 11.938 19.873 12.144 19.787 12.394 19.71 12.644 19.671 12.932 19.671 13.258 19.671 13.892 19.825 14.391 20.132 14.756 20.449 15.111 20.891 15.288 21.457 15.288 21.63 15.288 21.812 15.269 22.004 15.231 22.196 15.183 22.388 15.106 22.58 15 22.772 14.904 22.945 14.88 23.099 14.928 23.252 14.976 23.372 15.068 23.459 15.202 23.555 15.327 23.607 15.476 23.617 15.648 23.636 15.812 23.607 15.975 23.531 16.138 23.463 16.292 23.339 16.412 23.156 16.498 22.83 16.661 22.503 16.776 22.177 16.844 21.851 16.92 21.539 16.959 21.241 16.959Z" fill="black"/>
<path d="M13.373 16.959C12.807 16.959 12.303 16.82 11.861 16.542 11.429 16.254 11.141 15.874 10.997 15.404L11.156 14.929V15.822C11.156 16.177 11.064 16.45 10.882 16.642 10.7 16.834 10.436 16.93 10.09 16.93 9.744 16.93 9.476 16.834 9.284 16.642 9.101 16.45 9.01 16.177 9.01 15.822V7.628C9.01 7.263 9.101 6.99 9.284 6.807 9.476 6.615 9.749 6.519 10.104 6.519 10.45 6.519 10.714 6.615 10.896 6.807 11.088 6.99 11.184 7.263 11.184 7.628V11.041H11.012C11.165 10.609 11.458 10.258 11.89 9.99 12.322 9.721 12.816 9.586 13.373 9.586 13.997 9.586 14.54 9.735 15 10.033 15.461 10.33 15.821 10.753 16.08 11.3 16.34 11.847 16.469 12.5 16.469 13.258 16.469 14.017 16.34 14.674 16.08 15.231 15.821 15.788 15.456 16.215 14.986 16.513 14.525 16.81 13.988 16.959 13.373 16.959ZM12.725 15.332C13.032 15.332 13.301 15.255 13.532 15.102 13.772 14.948 13.954 14.722 14.079 14.425 14.213 14.118 14.28 13.729 14.28 13.258 14.28 12.558 14.136 12.044 13.848 11.718 13.56 11.382 13.186 11.214 12.725 11.214 12.418 11.214 12.144 11.286 11.904 11.43 11.674 11.574 11.492 11.799 11.357 12.106 11.223 12.404 11.156 12.788 11.156 13.258 11.156 13.959 11.3 14.482 11.588 14.828 11.876 15.164 12.255 15.332 12.725 15.332Z" fill="black"/>
<path d="M3.385 16.959C2.867 16.959 2.401 16.858 1.988 16.656 1.576 16.455 1.254 16.181 1.024 15.836 0.793 15.49 0.678 15.101 0.678 14.669 0.678 14.151 0.812 13.743 1.081 13.445 1.35 13.138 1.787 12.922 2.392 12.797 2.996 12.663 3.798 12.596 4.796 12.596H5.56V13.719H4.811C4.321 13.719 3.923 13.748 3.616 13.805 3.318 13.853 3.102 13.94 2.968 14.064 2.843 14.189 2.78 14.362 2.78 14.583 2.78 14.852 2.872 15.072 3.054 15.245 3.246 15.418 3.52 15.504 3.875 15.504 4.153 15.504 4.398 15.442 4.609 15.317 4.83 15.183 5.003 15.005 5.128 14.784 5.252 14.554 5.315 14.295 5.315 14.007V12.351C5.315 11.928 5.219 11.631 5.027 11.458 4.835 11.276 4.508 11.184 4.048 11.184 3.788 11.184 3.505 11.218 3.198 11.285 2.9 11.343 2.569 11.444 2.204 11.588 1.993 11.684 1.806 11.708 1.643 11.66 1.48 11.602 1.355 11.506 1.268 11.372 1.182 11.228 1.139 11.074 1.139 10.911 1.139 10.738 1.187 10.575 1.283 10.421 1.379 10.258 1.537 10.138 1.758 10.061 2.209 9.879 2.632 9.754 3.025 9.687 3.428 9.62 3.798 9.586 4.134 9.586 4.873 9.586 5.478 9.696 5.948 9.917 6.428 10.128 6.788 10.46 7.028 10.911 7.268 11.352 7.388 11.924 7.388 12.624V15.821C7.388 16.176 7.302 16.45 7.129 16.642 6.956 16.834 6.707 16.93 6.38 16.93 6.054 16.93 5.8 16.834 5.617 16.642 5.444 16.45 5.358 16.176 5.358 15.821V15.288L5.459 15.375C5.401 15.701 5.276 15.984 5.084 16.224 4.902 16.455 4.667 16.637 4.379 16.772 4.091 16.896 3.76 16.959 3.385 16.959Z" fill="black"/>
</svg>