<svg width="24" height="24" viewBox="0 0 24 24" fill="none" xmlns="http://www.w3.org/2000/svg">
<path d="M6.75439 7.875C6.75439 8.08211 6.5865 8.25 6.37939 8.25C6.17229 8.25 6.00439 8.08211 6.00439 7.875C6.00439 7.66789 6.17229 7.5 6.37939 7.5C6.5865 7.5 6.75439 7.66789 6.75439 7.875Z" fill="black"/>
<path d="M10.5034 7.875C10.5034 8.08211 10.3355 8.25 10.1284 8.25C9.92131 8.25 9.75342 8.08211 9.75342 7.875C9.75342 7.66789 9.92131 7.5 10.1284 7.5C10.3355 7.5 10.5034 7.66789 10.5034 7.875Z" fill="black"/>
<path d="M20.25 4.5H3.75C3.33579 4.5 3 4.83579 3 5.25V18.75C3 19.1642 3.33579 19.5 3.75 19.5H20.25C20.6642 19.5 21 19.1642 21 18.75V5.25C21 4.83579 20.6642 4.5 20.25 4.5Z" stroke="black" stroke-width="1.5" stroke-linecap="round" stroke-linejoin="round"/>
<path d="M6.75439 7.875C6.75439 8.08211 6.5865 8.25 6.37939 8.25C6.17229 8.25 6.00439 8.08211 6.00439 7.875C6.00439 7.66789 6.17229 7.5 6.37939 7.5C6.5865 7.5 6.75439 7.66789 6.75439 7.875Z" stroke="black" stroke-width="1.5" stroke-linecap="round" stroke-linejoin="round"/>
<path d="M10.5034 7.875C10.5034 8.08211 10.3355 8.25 10.1284 8.25C9.92131 8.25 9.75342 8.08211 9.75342 7.875C9.75342 7.66789 9.92131 7.5 10.1284 7.5C10.3355 7.5 10.5034 7.66789 10.5034 7.875Z" stroke="black" stroke-width="1.5" stroke-linecap="round" stroke-linejoin="round"/>
</svg>
