<svg xmlns="http://www.w3.org/2000/svg" width="24" height="24" fill="currentColor" viewBox="0 0 24 24"><path d="M20.91 3.293H3.09a1.416 1.416 0 0 0-1.417 1.417v14.58a1.416 1.416 0 0 0 1.417 1.417h17.82a1.416 1.416 0 0 0 1.417-1.417V4.71a1.416 1.416 0 0 0-1.417-1.417m0.203 15.997a0.204 0.204 0 0 1-0.203 0.203H3.09a0.204 0.204 0 0 1-0.203-0.203V4.71a0.204 0.204 0 0 1 0.203-0.203h17.82a0.204 0.204 0 0 1 0.203 0.203zM6.937 7.546a1.013 1.013 0 1 1-1.013-1.013 1.013 1.013 0 0 1 1.013 1.013m4.05 0a1.013 1.013 0 1 1-1.013-1.013 1.013 1.013 0 0 1 1.013 1.013"/></svg>