<svg width="24" height="24" viewBox="0 0 24 24" fill="none" xmlns="http://www.w3.org/2000/svg">
<path d="M9.75 11.9009C9.15044 10.8159 8.90167 9.57183 9.0379 8.33969C9.17412 7.10755 9.68865 5.94785 10.5107 5.02001C11.3328 4.09217 12.4221 3.44175 13.6289 3.15815C14.8357 2.87455 16.1007 2.9717 17.25 3.43624L13.5 7.50031L14.0306 9.96968L16.5 10.5003L20.5641 6.75031C21.0286 7.89962 21.1258 9.16461 20.8422 10.3714C20.5586 11.5782 19.9081 12.6675 18.9803 13.4896C18.0525 14.3117 16.8928 14.8262 15.6606 14.9624C14.4285 15.0986 13.1844 14.8499 12.0994 14.2503L6.84375 20.3441C6.42106 20.7667 5.84777 21.0042 5.25 21.0042C4.65222 21.0042 4.07894 20.7667 3.65625 20.3441C3.23356 19.9214 2.99609 19.3481 2.99609 18.7503C2.99609 18.1525 3.23356 17.5792 3.65625 17.1566L9.75 11.9009Z" stroke="black" stroke-width="1.5" stroke-linecap="round" stroke-linejoin="round"/>
</svg>
