<svg width="24" height="24" viewBox="0 0 24 24" fill="none" xmlns="http://www.w3.org/2000/svg">
<path d="M17.7816 16.2344C17.7816 16.2344 17.201 17.9427 16.6038 18.9771C16.0066 20.0115 14.7232 21.5318 14.7232 21.5318C14.6968 21.5775 14.6601 21.6165 14.6161 21.6455C14.5721 21.6746 14.522 21.6931 14.4697 21.6994C14.4173 21.7057 14.3643 21.6998 14.3147 21.6821C14.2651 21.6643 14.2203 21.6353 14.1839 21.5972L10.4288 17.5592M17.7897 7.7654C17.7897 7.7654 17.209 6.05715 16.6118 5.02277C16.0146 3.98839 14.7312 2.46801 14.7312 2.46801C14.7048 2.42232 14.6682 2.38339 14.6242 2.3543C14.5802 2.32522 14.53 2.30678 14.4777 2.30044C14.4254 2.2941 14.3723 2.30003 14.3227 2.31778C14.2731 2.33552 14.2283 2.36458 14.1919 2.40266L10.5258 6.34505M13.5058 14.6269L20.6403 16.819C20.7117 16.8399 20.787 16.8438 20.8603 16.8305C20.9335 16.8171 21.0026 16.7869 21.0621 16.7422C21.1216 16.6975 21.17 16.6395 21.2032 16.5729C21.2365 16.5062 21.2538 16.4327 21.2538 16.3582C21.2538 16.3582 21.75 13.5751 21.75 11.888C21.75 10.2009 21.2538 7.7182 21.2538 7.7182C21.2538 7.64368 21.2365 7.57019 21.2032 7.50354C21.17 7.43689 21.1216 7.37891 21.0621 7.3342C21.0026 7.28949 20.9335 7.25927 20.8603 7.24594C20.787 7.23261 20.7117 7.23654 20.6403 7.2574L13.5058 9.44948M6.65625 9.8256L8.25 12.3756M8.25 12.3756L9.84375 9.8256M8.25 12.3756V14.2879M3.75 6.78801H12.75C13.1642 6.78801 13.5 7.12379 13.5 7.53801V16.538C13.5 16.9522 13.1642 17.288 12.75 17.288H3.75C3.33579 17.288 3 16.9522 3 16.538V7.53801C3 7.12379 3.33579 6.78801 3.75 6.78801Z" stroke="black" stroke-width="1.5" stroke-linecap="round" stroke-linejoin="round"/>
</svg>
