<svg xmlns="http://www.w3.org/2000/svg" width="24" height="24" fill="currentColor" viewBox="0 0 24 24"><path d="M12.3 3.499c-.383-.007-.744.258-.881.683q-.007.022-.019.072l-.004.015c-.304.984-2.795 8.945-2.795 8.945h-.046l-3.19-9.082c-.216-.513-.748-.763-1.23-.562-.493.209-.748.816-.585 1.374.383 1.101 4.017 11.026 4.017 11.026l-.239.592c-.402 1.219-1.2 2.043-2.399 2.043-.118 0-.52-.027-.546-.031-.387-.023-.748.262-.854.698-.118.498.14 1.01.581 1.154.319.06.645.084.938.084 2.214 0 3.296-1.431 4.025-3.524 0 0 3.835-11.409 4.017-11.88.031-.076.053-.14.076-.205l-.004-.004c.004-.015.012-.027.015-.041.156-.551-.114-1.135-.6-1.31a.9.9 0 0 0-.277-.05m4.541 2.426c-.239.004-.505.095-.775.364-.816.82-1.633 3.28-1.633 3.28s2.453-.82 3.28-1.652-.015-1.625-.015-1.625-.368-.372-.858-.368m2.452 4.86c-1.215 0-3.645 1.215-3.645 1.215s2.43 1.215 3.66 1.215 1.196-1.215 1.196-1.215.004-1.215-1.211-1.215m-4.86 3.645s.816 2.461 1.633 3.28 1.633-.004 1.633-.004.839-.797.015-1.625c-.828-.832-3.28-1.652-3.28-1.652"/></svg>