<svg width="24" height="24" viewBox="0 0 24 24" fill="none" xmlns="http://www.w3.org/2000/svg">
<path d="M15.8035 15.8032L21 20.9998M7.77205 6.64983V8.89412M8.89412 7.77238H6.64983M18 10.5C18 14.6421 14.6421 18 10.5 18C6.35786 18 3 14.6421 3 10.5C3 6.35786 6.35786 3 10.5 3C14.6421 3 18 6.35786 18 10.5ZM11.1599 12.2397L9.09406 11.4784C9.03709 11.4574 8.98794 11.4194 8.95323 11.3696C8.91851 11.3198 8.8999 11.2605 8.8999 11.1998C8.8999 11.1391 8.91851 11.0798 8.95323 11.03C8.98794 10.9802 9.03709 10.9422 9.09406 10.9212L11.1599 10.1599L11.9212 8.09406C11.9422 8.03709 11.9802 7.98794 12.03 7.95323C12.0798 7.91851 12.1391 7.8999 12.1998 7.8999C12.2605 7.8999 12.3198 7.91851 12.3696 7.95323C12.4194 7.98794 12.4574 8.03709 12.4784 8.09406L13.2397 10.1599L15.3056 10.9212C15.3625 10.9422 15.4117 10.9802 15.4464 11.03C15.4811 11.0798 15.4997 11.1391 15.4997 11.1998C15.4997 11.2605 15.4811 11.3198 15.4464 11.3696C15.4117 11.4194 15.3625 11.4574 15.3056 11.4784L13.2397 12.2397L12.4784 14.3056C12.4574 14.3625 12.4194 14.4117 12.3696 14.4464C12.3198 14.4811 12.2605 14.4997 12.1998 14.4997C12.1391 14.4997 12.0798 14.4811 12.03 14.4464C11.9802 14.4117 11.9422 14.3625 11.9212 14.3056L11.1599 12.2397Z" stroke="black" stroke-width="1.5" stroke-linecap="round" stroke-linejoin="round"/>
</svg>
