<?xml version="1.0" ?><!DOCTYPE svg  PUBLIC '-//W3C//DTD SVG 1.1//EN'  'http://www.w3.org/Graphics/SVG/1.1/DTD/svg11.dtd'><svg width="512px" height="512px" viewBox="0 0 512 512" enable-background="new 0 0 512 512" id="Layer_1" version="1.1" xml:space="preserve" xmlns="http://www.w3.org/2000/svg" xmlns:xlink="http://www.w3.org/1999/xlink"><g><g><path d="M432.99,421.654H79.01c-12.131,0-22-9.869-22-22v-236.25c0-12.131,9.869-22,22-22h353.98c12.131,0,22,9.869,22,22v236.25    C454.99,411.785,445.121,421.654,432.99,421.654z M79.01,161.404c-1.103,0-2,0.897-2,2v236.25c0,1.103,0.897,2,2,2h353.98    c1.103,0,2-0.897,2-2v-236.25c0-1.103-0.897-2-2-2H79.01z"/></g><g><path d="M343.029,367.678c-43.745,0-79.334-35.588-79.334-79.333c0-43.745,35.589-79.334,79.334-79.334    s79.334,35.589,79.334,79.334C422.363,332.089,386.774,367.678,343.029,367.678z M343.029,229.011    c-32.717,0-59.334,26.617-59.334,59.334c0,32.716,26.617,59.333,59.334,59.333s59.334-26.617,59.334-59.333    C402.363,255.628,375.746,229.011,343.029,229.011z"/></g><g><path d="M343.027,331.303c-23.687,0-42.957-19.271-42.957-42.958s19.271-42.958,42.957-42.958    c23.688,0,42.959,19.271,42.959,42.958S366.715,331.303,343.027,331.303z M343.027,265.387c-12.658,0-22.957,10.299-22.957,22.958    s10.299,22.958,22.957,22.958c12.659,0,22.959-10.299,22.959-22.958S355.687,265.387,343.027,265.387z"/></g><g><path d="M194.709,161.404h-74.668c-12.131,0-22-9.869-22-22v-27.059c0-12.131,9.869-22,22-22h74.668c12.131,0,22,9.869,22,22    v27.059C216.709,151.535,206.84,161.404,194.709,161.404z M120.041,110.346c-1.103,0-2,0.897-2,2v27.059c0,1.103,0.897,2,2,2    h74.668c1.103,0,2-0.897,2-2v-27.059c0-1.103-0.897-2-2-2H120.041z"/></g><g><path d="M165.375,192.346h-62.666c-5.522,0-10-4.477-10-10s4.478-10,10-10h62.666c5.522,0,10,4.477,10,10    S170.897,192.346,165.375,192.346z"/></g></g></svg>