<?xml version="1.0" encoding="utf-8"?>
<!-- Generator: Adobe Illustrator 19.2.1, SVG Export Plug-In . SVG Version: 6.00 Build 0)  -->
<svg xmlns="http://www.w3.org/2000/svg" width="512" height="512" viewBox="0 0 512 512">
<path d="M351.6,255.3c0,53.2-43.1,96.4-96.4,96.4s-96.4-43.1-96.4-96.4s43.1-96.4,96.4-96.4S351.6,202.1,351.6,255.3z M256,64
	C150,64,64,150,64,256s86,192,192,192s192-86,192-192S362,64,256,64z M256,416c-88.4,0-160-71.6-160-160S167.6,96,256,96
	s160,71.6,160,160S344.4,416,256,416z"/>
</svg>
