<?xml version="1.0" encoding="utf-8"?>
<!-- Generator: Adobe Illustrator 24.2.0, SVG Export Plug-In . SVG Version: 6.00 Build 0)  -->
<svg xmlns="http://www.w3.org/2000/svg" width="512" height="512" viewBox="0 0 512 512">
<path id="Table_column_groups" d="M32,32v416h416V32H32z M288,64v64l-64-64H288z M288,384l-96-96v-64l96,96V384z M192,96l96,96v64
	l-96-96V96z M64,64h96v96H64V64z M64,192h96v96H64V192z M64,416v-96h96v96H64z M192,416v-64l64,64H192z M416,416h-96v-96h96V416z
	 M416,288h-96v-96h96V288z M416,160h-96V64h96V160z"/>
</svg>
