<svg xmlns="http://www.w3.org/2000/svg" fill="currentColor" viewBox="0 0 24 24">
  <path d="M19.931 19.425a.506.506 0 0 1-.506.506H4.575a.506.506 0 0 1 0-1.012h14.85a.506.506 0 0 1 .506.506m-7.087-3.375v-8.1a1.18 1.18 0 0 1 1.181-1.181H17.4a1.18 1.18 0 0 1 1.181 1.181v8.1a1.18 1.18 0 0 1-1.181 1.181h-3.375a1.18 1.18 0 0 1-1.181-1.181m1.012 0a.17.17 0 0 0 .169.169H17.4a.17.17 0 0 0 .169-.169v-8.1a.17.17 0 0 0-.169-.169h-3.375a.17.17 0 0 0-.169.169zm-8.437 0V4.575A1.18 1.18 0 0 1 6.6 3.394h3.375a1.18 1.18 0 0 1 1.181 1.181V16.05a1.18 1.18 0 0 1-1.181 1.181H6.6a1.18 1.18 0 0 1-1.181-1.181m1.012 0a.17.17 0 0 0 .169.169h3.375a.17.17 0 0 0 .169-.169V4.575a.17.17 0 0 0-.169-.169H6.6a.17.17 0 0 0-.169.169z"/>
</svg>
