<svg xmlns="http://www.w3.org/2000/svg" fill="currentColor" viewBox="0 0 24 24">
  <path d="M19.256 9.3a7.256 7.256 0 1 0-11.812 5.642v6.508a.5.5 0 0 0 .24.43.5.5 0 0 0 .266.076.5.5 0 0 0 .226-.053L12 19.991l3.825 1.912a.506.506 0 0 0 .731-.453v-6.508a7.25 7.25 0 0 0 2.7-5.642m-13.5 0A6.244 6.244 0 1 1 12 15.544 6.25 6.25 0 0 1 5.756 9.3m9.788 11.331-3.319-1.659a.5.5 0 0 0-.452 0l-3.317 1.659v-5.003a7.24 7.24 0 0 0 7.088 0zM12 13.856A4.556 4.556 0 1 0 7.444 9.3 4.56 4.56 0 0 0 12 13.856m0-8.1A3.544 3.544 0 1 1 8.456 9.3 3.544 3.544 0 0 1 12 5.756"/>
</svg>
