<svg xmlns="http://www.w3.org/2000/svg" fill="currentColor" viewBox="0 0 24 24">
  <path d="M12 15.206A3.206 3.206 0 1 0 8.794 12 3.206 3.206 0 0 0 12 15.206m0-5.4A2.194 2.194 0 1 1 9.806 12 2.194 2.194 0 0 1 12 9.806m9.45-3.712H2.55a.506.506 0 0 0-.506.506v10.8a.506.506 0 0 0 .506.506h18.9a.506.506 0 0 0 .506-.506V6.6a.506.506 0 0 0-.506-.506M3.056 10.382a4.62 4.62 0 0 0 3.276-3.276h11.336a4.62 4.62 0 0 0 3.276 3.276v3.236a4.62 4.62 0 0 0-3.276 3.276H6.332a4.62 4.62 0 0 0-3.276-3.276zm17.888-1.058a3.61 3.61 0 0 1-2.218-2.218h2.218zM5.274 7.106a3.61 3.61 0 0 1-2.218 2.218V7.106zm-2.218 7.57a3.61 3.61 0 0 1 2.218 2.218H3.056zm15.67 2.218a3.61 3.61 0 0 1 2.218-2.218v2.218z"/>
</svg>
