<svg xmlns="http://www.w3.org/2000/svg" fill="currentColor" viewBox="0 0 24 24">
  <path d="M21.45 9.469h-2.869V9.3a.506.506 0 0 0-.506-.506h-5.4a.506.506 0 0 0-.506.506v.169H6.431V5.588a1.18 1.18 0 0 1 1.182-1.182 1.22 1.22 0 0 1 1.191.944.506.506 0 1 0 .992-.2 2.22 2.22 0 0 0-2.183-1.756 2.194 2.194 0 0 0-2.194 2.194v3.881H2.55a.506.506 0 0 0-.506.506v3.375A4.56 4.56 0 0 0 6.6 17.906h.169v1.519a.506.506 0 0 0 1.012 0v-1.519h8.438v1.519a.506.506 0 0 0 1.012 0v-1.519h.169a4.56 4.56 0 0 0 4.556-4.556V9.975a.506.506 0 0 0-.506-.506m-8.269.337h4.388v3.038h-4.388zm7.763 3.544a3.544 3.544 0 0 1-3.544 3.544H6.6a3.544 3.544 0 0 1-3.544-3.544v-2.869h9.113v2.869a.506.506 0 0 0 .506.506h5.4a.506.506 0 0 0 .506-.506v-2.869h2.363z"/>
</svg>
