<svg xmlns="http://www.w3.org/2000/svg" fill="currentColor" viewBox="0 0 24 24">
  <path d="M19.768 16.129c-.477-.822-1.187-3.139-1.187-6.154a6.581 6.581 0 1 0-13.162 0c0 3.016-.71 5.333-1.188 6.154a1.181 1.181 0 0 0 1.019 1.777h3.584a3.206 3.206 0 0 0 6.328 0h3.588a1.181 1.181 0 0 0 1.018-1.777M12 19.594a2.194 2.194 0 0 1-2.134-1.688h4.268A2.194 2.194 0 0 1 12 19.594m6.894-2.785a.16.16 0 0 1-.143.085H5.25a.16.16 0 0 1-.143-.085.17.17 0 0 1 0-.168c.638-1.097 1.324-3.655 1.324-6.666a5.569 5.569 0 1 1 11.138 0c0 3.01.687 5.565 1.325 6.666a.17.17 0 0 1 0 .168"/>
</svg>
