<svg xmlns="http://www.w3.org/2000/svg" fill="currentColor" viewBox="0 0 24 24">
  <path d="M18.75 10.819a3.9 3.9 0 0 0-1.502.302l-2.341-4.015H17.4a.844.844 0 0 1 .844.844.506.506 0 0 0 1.012 0A1.856 1.856 0 0 0 17.4 6.094h-3.375a.506.506 0 0 0-.437.759l1.131 1.941H9.478L8.05 6.347a.5.5 0 0 0-.437-.253H5.25a.506.506 0 0 0 0 1.012h2.071L8.587 9.27l-1.481 2.023a3.9 3.9 0 1 0 .817.598l1.218-1.663 2.759 4.725a.5.5 0 0 0 .438.253.5.5 0 0 0 .253-.069.506.506 0 0 0 .183-.692l-2.706-4.64h5.24l1.066 1.827a3.881 3.881 0 1 0 2.376-.813M8.119 14.7a2.869 2.869 0 1 1-1.614-2.579l-1.664 2.278a.506.506 0 0 0 .818.597l1.662-2.278a2.86 2.86 0 0 1 .798 1.982m10.631 2.869a2.869 2.869 0 0 1-1.856-5.051l1.419 2.435a.5.5 0 0 0 .438.253.5.5 0 0 0 .253-.069.506.506 0 0 0 .182-.692l-1.422-2.439a2.869 2.869 0 1 1 .986 5.563"/>
</svg>
