<svg xmlns="http://www.w3.org/2000/svg" fill="currentColor" viewBox="0 0 24 24">
  <path d="m20.859 13.623-3.507-7.985a.5.5 0 0 0-.106-.154 2.53 2.53 0 0 0-3.579 0 .5.5 0 0 0-.148.357v2.278h-3.038V5.841a.5.5 0 0 0-.148-.359 2.53 2.53 0 0 0-3.579 0 .5.5 0 0 0-.106.154l-3.507 7.987a3.881 3.881 0 1 0 7.34 1.752V9.131h3.038v6.244a3.881 3.881 0 1 0 7.34-1.752M6.6 18.244a2.869 2.869 0 1 1 2.869-2.869A2.87 2.87 0 0 1 6.6 18.244m0-6.75a3.9 3.9 0 0 0-1.565.331l2.498-5.686a1.52 1.52 0 0 1 1.936-.07v6.69A3.87 3.87 0 0 0 6.6 11.494m7.931-5.424a1.52 1.52 0 0 1 1.936.07l2.498 5.685a3.87 3.87 0 0 0-4.434.934zM17.4 18.244a2.869 2.869 0 1 1 2.869-2.869 2.87 2.87 0 0 1-2.869 2.869"/>
</svg>
