<svg xmlns="http://www.w3.org/2000/svg" fill="currentColor" viewBox="0 0 24 24">
  <path d="M14.7 8.119H5.25A1.18 1.18 0 0 0 4.069 9.3v9.45a1.18 1.18 0 0 0 1.181 1.181h9.45a1.18 1.18 0 0 0 1.181-1.181V9.3A1.18 1.18 0 0 0 14.7 8.119m.169 10.631a.17.17 0 0 1-.169.169H5.25a.17.17 0 0 1-.169-.169V9.3a.17.17 0 0 1 .169-.169h9.45a.17.17 0 0 1 .169.169zM12.844 4.575a.506.506 0 0 1 .506-.506h1.35a.506.506 0 0 1 0 1.012h-1.35a.506.506 0 0 1-.506-.506m7.087.675v.675a.506.506 0 0 1-1.012 0V5.25a.17.17 0 0 0-.169-.169h-.675a.506.506 0 0 1 0-1.012h.675a1.18 1.18 0 0 1 1.181 1.181m0 4.05v1.35a.506.506 0 0 1-1.012 0V9.3a.506.506 0 0 1 1.012 0m0 4.725v.675a1.18 1.18 0 0 1-1.181 1.181h-.675a.506.506 0 0 1 0-1.012h.675a.17.17 0 0 0 .169-.169v-.675a.506.506 0 0 1 1.012 0m-11.812-8.1V5.25A1.18 1.18 0 0 1 9.3 4.069h.675a.506.506 0 0 1 0 1.012H9.3a.17.17 0 0 0-.169.169v.675a.506.506 0 0 1-1.012 0"/>
</svg>
