<svg xmlns="http://www.w3.org/2000/svg" fill="currentColor" viewBox="0 0 24 24">
  <path d="M21.912 11.795c-.029-.066-.731-1.623-2.298-3.19C18.159 7.152 15.66 5.419 12 5.419S5.841 7.152 4.386 8.605c-1.568 1.568-2.27 3.122-2.298 3.19a.5.5 0 0 0 0 .412c.029.065.731 1.622 2.298 3.189C5.841 16.849 8.34 18.581 12 18.581s6.159-1.732 7.614-3.185c1.568-1.568 2.27-3.122 2.298-3.189a.5.5 0 0 0 0-.412M12 17.569c-2.648 0-4.96-.964-6.872-2.863A11.4 11.4 0 0 1 3.114 12a11.4 11.4 0 0 1 2.014-2.705C7.04 7.395 9.352 6.431 12 6.431s4.96.964 6.872 2.864A11.4 11.4 0 0 1 20.886 12c-.538 1.03-3.233 5.569-8.886 5.569m0-9.45A3.881 3.881 0 1 0 15.881 12 3.886 3.886 0 0 0 12 8.119m0 6.75A2.869 2.869 0 1 1 14.869 12 2.87 2.87 0 0 1 12 14.869"/>
</svg>
