<svg xmlns="http://www.w3.org/2000/svg" fill="currentColor" viewBox="0 0 24 24">
  <path d="M18.75 4.069h-2.194v-.844a.506.506 0 0 0-1.012 0v.844H8.456v-.844a.506.506 0 0 0-1.012 0v.844H5.25A1.18 1.18 0 0 0 4.069 5.25v13.5a1.18 1.18 0 0 0 1.181 1.181h13.5a1.18 1.18 0 0 0 1.181-1.181V5.25a1.18 1.18 0 0 0-1.181-1.181M5.25 5.081h2.194v.844a.506.506 0 0 0 1.012 0v-.844h7.088v.844a.506.506 0 0 0 1.012 0v-.844h2.194a.17.17 0 0 1 .169.169v2.869H5.081V5.25a.17.17 0 0 1 .169-.169m13.5 13.838H5.25a.17.17 0 0 1-.169-.169V9.131h13.838v9.619a.17.17 0 0 1-.169.169m-5.906-6.582a.844.844 0 1 1-.844-.843.844.844 0 0 1 .844.844zm3.712 0a.844.844 0 1 1-.844-.843.844.844 0 0 1 .844.844zm-7.425 3.376a.844.844 0 1 1-.844-.844.844.844 0 0 1 .844.844m3.713 0a.844.844 0 1 1-.844-.844.844.844 0 0 1 .844.844m3.712 0a.844.844 0 1 1-.844-.844.844.844 0 0 1 .844.844"/>
</svg>
