<svg xmlns="http://www.w3.org/2000/svg" fill="currentColor" viewBox="0 0 24 24">
  <path d="M21.45 10.144h-1.021L18.04 4.77a1.18 1.18 0 0 0-1.079-.701H7.039a1.18 1.18 0 0 0-1.079.701l-2.389 5.374H2.55a.506.506 0 0 0 0 1.012h.844v6.919a1.18 1.18 0 0 0 1.181 1.181H6.6a1.18 1.18 0 0 0 1.181-1.181v-1.519h8.438v1.519a1.18 1.18 0 0 0 1.181 1.181h2.025a1.18 1.18 0 0 0 1.181-1.181v-6.919h.844a.506.506 0 0 0 0-1.012M6.884 5.182a.17.17 0 0 1 .155-.101h9.922a.17.17 0 0 1 .155.101l2.205 4.962H4.679zm-.115 12.893a.17.17 0 0 1-.169.169H4.575a.17.17 0 0 1-.169-.169v-1.519h2.363zm12.656.169H17.4a.17.17 0 0 1-.169-.169v-1.519h2.363v1.519a.17.17 0 0 1-.169.169m.169-2.7H4.406v-4.388h15.188zm-13.5-2.194a.506.506 0 0 1 .506-.506h1.35a.506.506 0 0 1 0 1.012H6.6a.506.506 0 0 1-.506-.506m9.45 0a.506.506 0 0 1 .506-.506h1.35a.506.506 0 0 1 0 1.012h-1.35a.506.506 0 0 1-.506-.506"/>
</svg>
