<svg xmlns="http://www.w3.org/2000/svg" fill="currentColor" viewBox="0 0 24 24">
  <path d="M20.489 6.276a.5.5 0 0 0-.389-.182H6.347l-.538-2.959a.506.506 0 0 0-.497-.416H3.225a.506.506 0 0 0 0 1.012h1.664l2.178 11.976a1.85 1.85 0 0 0 .526.994 2.194 2.194 0 1 0 3.216.53h4.407a2.194 2.194 0 1 0 1.847-1.012H8.892a.844.844 0 0 1-.83-.693l-.304-1.67h9.988a1.856 1.856 0 0 0 1.827-1.524l1.025-5.642a.5.5 0 0 0-.109-.414M10.144 18.413a1.181 1.181 0 1 1-1.181-1.182 1.18 1.18 0 0 1 1.181 1.182m8.1 0a1.181 1.181 0 1 1-1.181-1.182 1.18 1.18 0 0 1 1.181 1.182m.332-6.262a.844.844 0 0 1-.83.693H7.575L6.532 7.106h12.961z"/>
</svg>
