<svg xmlns="http://www.w3.org/2000/svg" fill="currentColor" viewBox="0 0 24 24">
  <path d="M20.261 7.51 16.49 3.74a1.18 1.18 0 0 0-1.67 0L4.415 14.144a1.18 1.18 0 0 0-.346.835v3.771a1.18 1.18 0 0 0 1.181 1.181h3.771a1.18 1.18 0 0 0 .835-.346l7.27-7.269.389 1.554-3.173 3.172a.506.506 0 1 0 .717.716l3.375-3.375a.5.5 0 0 0 .133-.481l-.606-2.422 2.3-2.299a1.18 1.18 0 0 0 0-1.671M5.081 18.75v-2.827l2.997 2.996H5.25a.17.17 0 0 1-.169-.169m4.219-.041L5.29 14.7l7.385-7.384 4.01 4.009zM19.545 8.465 17.4 10.609 13.391 6.6l2.144-2.144a.17.17 0 0 1 .239 0l3.771 3.77a.17.17 0 0 1 0 .239"/>
</svg>
