<svg xmlns="http://www.w3.org/2000/svg" fill="currentColor" viewBox="0 0 24 24">
  <path d="M9.975 4.069H6.6A1.18 1.18 0 0 0 5.419 5.25v13.5A1.18 1.18 0 0 0 6.6 19.931h3.375a1.18 1.18 0 0 0 1.181-1.181V5.25a1.18 1.18 0 0 0-1.181-1.181m.169 14.681a.17.17 0 0 1-.169.169H6.6a.17.17 0 0 1-.169-.169V5.25a.17.17 0 0 1 .169-.169h3.375a.17.17 0 0 1 .169.169zM17.4 4.069h-3.375a1.18 1.18 0 0 0-1.181 1.181v13.5a1.18 1.18 0 0 0 1.181 1.181H17.4a1.18 1.18 0 0 0 1.181-1.181V5.25A1.18 1.18 0 0 0 17.4 4.069m.169 14.681a.17.17 0 0 1-.169.169h-3.375a.17.17 0 0 1-.169-.169V5.25a.17.17 0 0 1 .169-.169H17.4a.17.17 0 0 1 .169.169z"/>
</svg>
