<svg xmlns="http://www.w3.org/2000/svg" fill="currentColor" viewBox="0 0 24 24">
  <path d="M19.425 8.119h-2.869V5.25a1.18 1.18 0 0 0-1.181-1.181h-10.8A1.18 1.18 0 0 0 3.394 5.25v10.8a.51.51 0 0 0 .288.456.5.5 0 0 0 .218.05.5.5 0 0 0 .318-.112l3.201-2.588h.025v2.869a1.18 1.18 0 0 0 1.181 1.181h7.956l3.201 2.588a.5.5 0 0 0 .318.112.5.5 0 0 0 .218-.05.51.51 0 0 0 .288-.456V9.3a1.18 1.18 0 0 0-1.181-1.181M7.24 12.844a.5.5 0 0 0-.319.112l-2.515 2.033V5.25a.17.17 0 0 1 .169-.169h10.8a.17.17 0 0 1 .169.169v7.425a.17.17 0 0 1-.169.169zm12.354 6.195-2.515-2.033a.5.5 0 0 0-.319-.112H8.625a.17.17 0 0 1-.169-.169v-2.869h6.919a1.18 1.18 0 0 0 1.181-1.181V9.131h2.869a.17.17 0 0 1 .169.169z"/>
</svg>
