<svg xmlns="http://www.w3.org/2000/svg" fill="currentColor" viewBox="0 0 24 24">
  <path d="M21.133 6.917a.506.506 0 0 0-.716 0L17.4 9.934 14.066 6.6l3.017-3.017a.506.506 0 0 0-.716-.716L13.35 5.884l-2.342-2.342a.506.506 0 1 0-.716.716l.654.655-4.588 4.588a3.206 3.206 0 0 0 0 4.535l1.445 1.444-4.261 4.262a.506.506 0 1 0 .716.716l4.262-4.261 1.445 1.445a3.206 3.206 0 0 0 4.534 0l4.589-4.588.654.654a.506.506 0 0 0 .716-.716l-2.342-2.342 3.017-3.017a.506.506 0 0 0 0-.716m-7.35 10.009a2.194 2.194 0 0 1-3.103 0L7.074 13.32a2.194 2.194 0 0 1 0-3.103l4.588-4.588 6.709 6.709z"/>
</svg>
