<svg xmlns="http://www.w3.org/2000/svg" fill="currentColor" viewBox="0 0 24 24">
  <path d="m17.813 12.248-4.429-1.632-1.632-4.429a1.175 1.175 0 0 0-2.204 0l-1.632 4.429-4.429 1.632a1.175 1.175 0 0 0 0 2.204l4.429 1.632 1.632 4.429a1.175 1.175 0 0 0 2.204 0l1.632-4.429 4.429-1.632a1.175 1.175 0 0 0 0-2.204m-.351 1.254-4.647 1.713a.5.5 0 0 0-.3.3l-1.713 4.647a.162.162 0 0 1-.304 0l-1.713-4.647a.5.5 0 0 0-.3-.3l-4.647-1.713a.162.162 0 0 1 0-.304l4.647-1.713a.5.5 0 0 0 .3-.3l1.713-4.647a.162.162 0 0 1 .304 0l1.713 4.647a.5.5 0 0 0 .3.3l4.647 1.713a.162.162 0 0 1 0 .304m-3.943-8.927a.506.506 0 0 1 .506-.506h1.519V2.55a.506.506 0 0 1 1.012 0v1.519h1.519a.506.506 0 0 1 0 1.012h-1.519V6.6a.506.506 0 0 1-1.012 0V5.081h-1.519a.506.506 0 0 1-.506-.506m8.437 4.05a.506.506 0 0 1-.506.506h-.844v.844a.506.506 0 0 1-1.012 0v-.844h-.844a.506.506 0 0 1 0-1.012h.844v-.844a.506.506 0 0 1 1.012 0v.844h.844a.506.506 0 0 1 .506.506"/>
</svg>
