<svg xmlns="http://www.w3.org/2000/svg" fill="currentColor" viewBox="0 0 24 24">
  <path d="M4.575 8.456h2.919a2.531 2.531 0 0 0 4.962 0h6.969a.506.506 0 0 0 0-1.012h-6.969a2.531 2.531 0 0 0-4.962 0H4.575a.506.506 0 0 0 0 1.012m5.4-2.025A1.519 1.519 0 1 1 8.456 7.95a1.52 1.52 0 0 1 1.519-1.519m9.45 9.113h-1.569a2.531 2.531 0 0 0-4.962 0H4.575a.506.506 0 0 0 0 1.012h8.319a2.531 2.531 0 0 0 4.962 0h1.569a.506.506 0 0 0 0-1.012m-4.05 2.025a1.519 1.519 0 1 1 1.519-1.519 1.52 1.52 0 0 1-1.519 1.519"/>
</svg>
