<svg xmlns="http://www.w3.org/2000/svg" fill="currentColor" viewBox="0 0 24 24">
  <path d="M9.975 4.744h-4.05a1.18 1.18 0 0 0-1.181 1.181v4.05a1.18 1.18 0 0 0 1.181 1.181h4.05a1.18 1.18 0 0 0 1.181-1.181v-4.05a1.18 1.18 0 0 0-1.181-1.181m.169 5.231a.17.17 0 0 1-.169.169h-4.05a.17.17 0 0 1-.169-.169v-4.05a.17.17 0 0 1 .169-.169h4.05a.17.17 0 0 1 .169.169zm7.931-5.231h-4.05a1.18 1.18 0 0 0-1.181 1.181v4.05a1.18 1.18 0 0 0 1.181 1.181h4.05a1.18 1.18 0 0 0 1.181-1.181v-4.05a1.18 1.18 0 0 0-1.181-1.181m.169 5.231a.17.17 0 0 1-.169.169h-4.05a.17.17 0 0 1-.169-.169v-4.05a.17.17 0 0 1 .169-.169h4.05a.17.17 0 0 1 .169.169zm-8.269 2.869h-4.05a1.18 1.18 0 0 0-1.181 1.181v4.05a1.18 1.18 0 0 0 1.181 1.181h4.05a1.18 1.18 0 0 0 1.181-1.181v-4.05a1.18 1.18 0 0 0-1.181-1.181m.169 5.231a.17.17 0 0 1-.169.169h-4.05a.17.17 0 0 1-.169-.169v-4.05a.17.17 0 0 1 .169-.169h4.05a.17.17 0 0 1 .169.169zm7.931-5.231h-4.05a1.18 1.18 0 0 0-1.181 1.181v4.05a1.18 1.18 0 0 0 1.181 1.181h4.05a1.18 1.18 0 0 0 1.181-1.181v-4.05a1.18 1.18 0 0 0-1.181-1.181m.169 5.231a.17.17 0 0 1-.169.169h-4.05a.17.17 0 0 1-.169-.169v-4.05a.17.17 0 0 1 .169-.169h4.05a.17.17 0 0 1 .169.169z"/>
</svg>
