<svg xmlns="http://www.w3.org/2000/svg" fill="currentColor" viewBox="0 0 24 24">
  <path d="M8.408 5.71a.506.506 0 0 0-.916 0l-5.4 11.475a.506.506 0 1 0 .916.431l1.451-3.085h6.982l1.451 3.084a.506.506 0 1 0 .916-.431zm-3.472 7.809L7.95 7.114l3.014 6.405zm13.139-4.05c-1.03 0-1.832.277-2.382.822a.506.506 0 0 0 .714.718c.353-.35.915-.528 1.668-.528 1.21 0 2.194.833 2.194 1.857v.61a3.4 3.4 0 0 0-2.194-.779c-1.768 0-3.206 1.287-3.206 2.868s1.439 2.869 3.206 2.869a3.4 3.4 0 0 0 2.194-.779v.273a.506.506 0 0 0 1.012 0v-5.062c0-1.583-1.434-2.869-3.206-2.869m0 7.425c-1.21 0-2.194-.833-2.194-1.856s.984-1.856 2.194-1.857 2.194.833 2.194 1.857-.984 1.856-2.194 1.856"/>
</svg>
