<svg xmlns="http://www.w3.org/2000/svg" fill="currentColor" viewBox="0 0 24 24">
  <path d="m19.108 6.917-3.375-3.375a.5.5 0 0 0-.358-.148h-6.75a1.18 1.18 0 0 0-1.181 1.181v1.519H5.925a1.18 1.18 0 0 0-1.181 1.181v12.15a1.18 1.18 0 0 0 1.181 1.181h9.45a1.18 1.18 0 0 0 1.181-1.181v-1.519h1.519a1.18 1.18 0 0 0 1.181-1.181v-9.45a.5.5 0 0 0-.148-.358m-3.564 12.508a.17.17 0 0 1-.169.169h-9.45a.17.17 0 0 1-.169-.169V7.275a.17.17 0 0 1 .169-.169h6.54l3.079 3.079zm2.7-2.7a.17.17 0 0 1-.169.169h-1.519V9.975a.5.5 0 0 0-.148-.358l-3.375-3.375a.5.5 0 0 0-.358-.148H8.456V4.575a.17.17 0 0 1 .169-.169h6.54l3.079 3.079zm-5.063-2.7a.506.506 0 0 1-.506.506h-4.05a.506.506 0 0 1 0-1.012h4.05a.506.506 0 0 1 .506.506m0 2.7a.506.506 0 0 1-.506.506h-4.05a.506.506 0 0 1 0-1.012h4.05a.506.506 0 0 1 .506.506"/>
</svg>
