<svg xmlns="http://www.w3.org/2000/svg" fill="currentColor" viewBox="0 0 24 24">
  <path d="M21.281 12.675v5.4a1.18 1.18 0 0 1-1.181 1.181H3.9a1.18 1.18 0 0 1-1.181-1.181v-5.4A1.18 1.18 0 0 1 3.9 11.494h3.375a.506.506 0 0 1 0 1.012H3.9a.17.17 0 0 0-.169.169v5.4a.17.17 0 0 0 .169.169h16.2a.17.17 0 0 0 .169-.169v-5.4a.17.17 0 0 0-.169-.169h-3.375a.506.506 0 0 1 0-1.012H20.1a1.18 1.18 0 0 1 1.181 1.181m-9.639-.317a.506.506 0 0 0 .716 0l4.05-4.05a.506.506 0 0 0-.716-.716l-3.186 3.185V3.225a.506.506 0 0 0-1.012 0v7.552L8.308 7.592a.506.506 0 0 0-.716.716zm6.264 3.017a.844.844 0 1 0-.843.844.844.844 0 0 0 .843-.844"/>
</svg>
