<svg xmlns="http://www.w3.org/2000/svg" fill="currentColor" viewBox="0 0 24 24">
  <path d="M7.106 6.263a.844.844 0 1 1-.843-.844.844.844 0 0 1 .843.844M12 5.419a.844.844 0 1 0 .844.844.844.844 0 0 0-.844-.844m5.738 1.687a.844.844 0 1 0-.844-.843.844.844 0 0 0 .844.843m-11.475 4.05a.844.844 0 1 0 .843.844.844.844 0 0 0-.843-.844m5.737 0a.844.844 0 1 0 .844.844.844.844 0 0 0-.844-.844m5.738 0a.844.844 0 1 0 .843.844.844.844 0 0 0-.843-.844M6.263 16.894a.844.844 0 1 0 .843.844.844.844 0 0 0-.843-.844m5.737 0a.844.844 0 1 0 .844.844.844.844 0 0 0-.844-.844m5.738 0a.844.844 0 1 0 .843.844.844.844 0 0 0-.843-.844"/>
</svg>
