<svg xmlns="http://www.w3.org/2000/svg" fill="currentColor" viewBox="0 0 24 24">
  <path d="M5.625 4.237a.506.506 0 0 0-.75.676l2 2.199C5.462 9.21 4.744 11.306 4.744 13.35a7.256 7.256 0 0 0 12.427 5.09l1.204 1.322a.506.506 0 0 0 .75-.681zM12 19.594a6.25 6.25 0 0 1-6.244-6.244c0-1.772.613-3.608 1.822-5.462l8.909 9.801A6.23 6.23 0 0 1 12 19.594M8.912 5.34a.506.506 0 0 1-.017-.716 20.7 20.7 0 0 1 2.815-2.488.51.51 0 0 1 .58 0 21.2 21.2 0 0 1 3.467 3.206c2.289 2.63 3.499 5.4 3.499 8.008a7.3 7.3 0 0 1-.26 1.93.506.506 0 0 1-.487.372.5.5 0 0 1-.134-.018.506.506 0 0 1-.355-.623 6.2 6.2 0 0 0 .224-1.661c0-5.031-4.978-9.192-6.244-10.169a21.4 21.4 0 0 0-2.373 2.142.506.506 0 0 1-.715.017"/>
</svg>
