<svg xmlns="http://www.w3.org/2000/svg" fill="currentColor" viewBox="0 0 24 24">
  <path d="m22.363 8.854-10.125-5.4a.5.5 0 0 0-.476 0l-10.125 5.4a.506.506 0 0 0 0 .892l2.432 1.298v4.187a1.18 1.18 0 0 0 .299.786C5.454 17.226 7.89 19.256 12 19.256a10.7 10.7 0 0 0 4.219-.821v3.015a.506.506 0 0 0 1.012 0v-3.514a9.6 9.6 0 0 0 2.401-1.92 1.17 1.17 0 0 0 .299-.785v-4.187l2.432-1.298a.506.506 0 0 0 0-.892M12 18.244c-3.713 0-5.906-1.819-6.878-2.904a.17.17 0 0 1-.041-.109v-3.647l6.681 3.562a.5.5 0 0 0 .476 0l3.981-2.123v4.304c-1.097.524-2.494.917-4.219.917m6.919-3.013a.17.17 0 0 1-.041.109 8.5 8.5 0 0 1-1.647 1.41v-4.267l1.688-.899zm-1.869-3.797a.5.5 0 0 0-.085-.06L12.24 8.855a.506.506 0 0 0-.475.892L15.987 12 12 14.126 2.951 9.3 12 4.474 21.049 9.3z"/>
</svg>
