<svg xmlns="http://www.w3.org/2000/svg" fill="currentColor" viewBox="0 0 24 24">
  <path d="M9.494 12.208a.51.51 0 0 0-.552.109l-1.877 1.877H5.25a.506.506 0 0 0-.506.506v3.375a.506.506 0 0 0 .506.506h1.815l1.877 1.877a.506.506 0 0 0 .864-.358v-7.425a.51.51 0 0 0-.312-.467m-.7 6.665-1.161-1.156a.5.5 0 0 0-.358-.148H5.756v-2.363h1.519a.5.5 0 0 0 .358-.148l1.161-1.16zm5.062-2.485a3.25 3.25 0 0 1-1.603 2.799.506.506 0 0 1-.506-.874 2.236 2.236 0 0 0 0-3.851.506.506 0 0 1 .506-.874 3.25 3.25 0 0 1 1.603 2.8m5.252-8.121-4.725-4.725a.5.5 0 0 0-.358-.148h-8.1a1.18 1.18 0 0 0-1.181 1.181v6.75a.506.506 0 0 0 1.012 0v-6.75a.17.17 0 0 1 .169-.169h7.594v4.219a.506.506 0 0 0 .506.506h4.219v10.294a.17.17 0 0 1-.169.169h-2.7a.506.506 0 0 0 0 1.012h2.7a1.18 1.18 0 0 0 1.181-1.181v-10.8a.5.5 0 0 0-.148-.358m-4.577-3.145 2.997 2.997h-2.997z"/>
</svg>
