<svg xmlns="http://www.w3.org/2000/svg" fill="currentColor" viewBox="0 0 24 24">
  <path d="M5.25 11.156a.506.506 0 0 0 .506-.506V4.575a.17.17 0 0 1 .169-.169h7.594v4.219a.506.506 0 0 0 .506.506h4.219v1.519a.506.506 0 0 0 1.012 0V8.625a.5.5 0 0 0-.148-.358l-4.725-4.725a.5.5 0 0 0-.358-.148h-8.1a1.18 1.18 0 0 0-1.181 1.181v6.075a.506.506 0 0 0 .506.506m9.281-6.034 2.997 2.997h-2.997zm-.432 9.197-1.477 2.069 1.477 2.068a.506.506 0 1 1-.823.59L12 17.258l-1.276 1.786a.506.506 0 0 1-.823-.59l1.477-2.066-1.477-2.069a.506.506 0 1 1 .823-.59L12 15.517l1.276-1.786a.506.506 0 0 1 .823.59zm-5.305-.294a.506.506 0 0 1-.506.506H7.106v4.219a.506.506 0 0 1-1.012 0v-4.219H4.913a.506.506 0 0 1 0-1.012h3.374a.506.506 0 0 1 .507.506m10.8 0a.506.506 0 0 1-.506.506h-1.182v4.219a.506.506 0 0 1-1.012 0v-4.219h-1.181a.506.506 0 0 1 0-1.012h3.375a.506.506 0 0 1 .506.506"/>
</svg>
