<svg xmlns="http://www.w3.org/2000/svg" fill="currentColor" viewBox="0 0 24 24">
  <path d="M19.931 14.025a.506.506 0 0 1-.506.506h-1.181v4.219a.506.506 0 0 1-1.013 0v-4.219H16.05a.506.506 0 0 1 0-1.012h3.375a.506.506 0 0 1 .506.506M8.794 15.713A2.194 2.194 0 0 1 6.6 17.906h-.844v.844a.506.506 0 0 1-1.012 0v-4.725a.506.506 0 0 1 .506-.506H6.6a2.194 2.194 0 0 1 2.194 2.194m-1.013 0A1.18 1.18 0 0 0 6.6 14.531h-.844v2.363H6.6a1.18 1.18 0 0 0 1.181-1.181m6.75 0a2.194 2.194 0 0 1-2.193 2.193h-.844v.844a.506.506 0 0 1-1.013 0v-4.725a.506.506 0 0 1 .507-.506h1.35a2.194 2.194 0 0 1 2.193 2.194m-1.012 0a1.18 1.18 0 0 0-1.181-1.182h-.844v2.363h.844a1.18 1.18 0 0 0 1.181-1.181M4.744 10.65V4.575a1.18 1.18 0 0 1 1.181-1.181h8.1a.5.5 0 0 1 .359.148l4.725 4.725a.5.5 0 0 1 .147.358v2.025a.506.506 0 0 1-1.012 0V9.131h-4.219a.506.506 0 0 1-.506-.506V4.406H5.925a.17.17 0 0 0-.169.169v6.075a.506.506 0 0 1-1.012 0m9.787-2.531h2.997l-2.997-2.997z"/>
</svg>
