<svg xmlns="http://www.w3.org/2000/svg" fill="currentColor" viewBox="0 0 24 24">
  <path d="M16.725 13.519h-1.35a.506.506 0 0 0-.506.506v4.725a.506.506 0 0 0 1.012 0v-.844h.844a2.194 2.194 0 0 0 0-4.387m0 3.375h-.844v-2.363h.844a1.181 1.181 0 0 1 0 2.363m-4.219-2.869v4.725a.506.506 0 0 1-1.012 0v-4.725a.506.506 0 0 1 1.012 0M9.131 18.75a.506.506 0 0 1-.506.506h-2.7a.506.506 0 0 1-.44-.759l2.268-3.966H5.925a.506.506 0 0 1 0-1.012h2.7a.506.506 0 0 1 .44.759l-2.268 3.966h1.828a.506.506 0 0 1 .506.506m9.977-10.483-4.725-4.725a.5.5 0 0 0-.358-.148h-8.1a1.18 1.18 0 0 0-1.181 1.181v6.075a.506.506 0 0 0 1.012 0V4.575a.17.17 0 0 1 .169-.169h7.594v4.219a.506.506 0 0 0 .506.506h4.219v1.519a.506.506 0 0 0 1.012 0V8.625a.5.5 0 0 0-.148-.358m-4.577-.148V5.122l2.997 2.997z"/>
</svg>
