<svg xmlns="http://www.w3.org/2000/svg" fill="currentColor" viewBox="0 0 24 24">
  <path d="M19.425 4.744H4.575a1.18 1.18 0 0 0-1.181 1.181v12.15a1.18 1.18 0 0 0 1.181 1.181h14.85a1.18 1.18 0 0 0 1.181-1.181V5.925a1.18 1.18 0 0 0-1.181-1.181M4.406 8.456h7.088v7.088H4.406zm8.1-1.012V5.756h3.038v1.688zm-1.012 0H8.456V5.756h3.038zm0 9.112v1.688H8.456v-1.688zm1.012 0h3.038v1.688h-3.038zm0-1.012V8.456h7.088v7.088zm7.088-9.619v1.519h-3.038V5.756h2.869a.17.17 0 0 1 .169.169M4.575 5.756h2.869v1.688H4.406V5.925a.17.17 0 0 1 .169-.169m-.169 12.319v-1.519h3.038v1.688H4.575a.17.17 0 0 1-.169-.169m15.019.169h-2.869v-1.688h3.038v1.519a.17.17 0 0 1-.169.169"/>
</svg>
