<svg xmlns="http://www.w3.org/2000/svg" fill="currentColor" viewBox="0 0 24 24">
  <path d="M20.504 5.447a1.17 1.17 0 0 0-1.079-.703H4.575a1.181 1.181 0 0 0-.872 1.976l.005.005 5.761 6.151v6.549a1.181 1.181 0 0 0 1.836.982l2.7-1.8a1.18 1.18 0 0 0 .526-.983v-4.748l5.766-6.16a1.17 1.17 0 0 0 .207-1.269m-.95.586-5.898 6.296a.5.5 0 0 0-.137.346v4.949a.17.17 0 0 1-.075.141l-2.7 1.8a.169.169 0 0 1-.263-.14v-6.75a.5.5 0 0 0-.136-.346L4.451 6.036a.16.16 0 0 1-.028-.179.16.16 0 0 1 .152-.101h14.85a.16.16 0 0 1 .154.101.16.16 0 0 1-.025.176m2.254 13.035a.506.506 0 1 1-.716.716l-1.667-1.668-1.666 1.668a.506.506 0 0 1-.717-.716L18.71 17.4l-1.668-1.667a.506.506 0 0 1 .717-.717l1.666 1.669 1.667-1.668a.506.506 0 0 1 .716.717L20.141 17.4z"/>
</svg>
