<svg xmlns="http://www.w3.org/2000/svg" fill="currentColor" viewBox="0 0 24 24">
  <path d="M7.444 8.625v-4.05a.506.506 0 0 1 1.012 0v4.05a.506.506 0 0 1-1.012 0m11.812-4.05V20.1a.506.506 0 0 1-1.012 0v-4.219h-4.219a.506.506 0 0 1-.506-.506c0-.372.057-9.134 5.032-11.265a.506.506 0 0 1 .705.465m-1.012.844c-3.104 2.049-3.613 7.719-3.697 9.45h3.697zm-7.095-.928a.506.506 0 1 0-.998.168l.668 4.006a2.869 2.869 0 0 1-5.738.001l.669-4.007a.506.506 0 0 0-.999-.168l-.675 4.05-.007.084a3.886 3.886 0 0 0 3.375 3.848V20.1a.506.506 0 0 0 1.012 0v-7.627a3.886 3.886 0 0 0 3.375-3.848l-.006-.084z"/>
</svg>
