<svg xmlns="http://www.w3.org/2000/svg" fill="currentColor" viewBox="0 0 24 24">
  <path d="M17.906 7.95v2.7a.506.506 0 0 1-1.012 0V8.456H14.7a.506.506 0 0 1 0-1.012h2.7a.506.506 0 0 1 .506.506M9.3 15.544H7.106V13.35a.506.506 0 0 0-1.012 0v2.7a.506.506 0 0 0 .506.506h2.7a.506.506 0 0 0 0-1.012m11.306-9.619v12.15a1.18 1.18 0 0 1-1.181 1.181H4.575a1.18 1.18 0 0 1-1.181-1.181V5.925a1.18 1.18 0 0 1 1.181-1.181h14.85a1.18 1.18 0 0 1 1.181 1.181m-1.012 0a.17.17 0 0 0-.169-.169H4.575a.17.17 0 0 0-.169.169v12.15a.17.17 0 0 0 .169.169h14.85a.17.17 0 0 0 .169-.169z"/>
</svg>
