<svg xmlns="http://www.w3.org/2000/svg" fill="currentColor" viewBox="0 0 24 24">
  <path d="M12 3.394A8.606 8.606 0 1 0 20.606 12 8.616 8.616 0 0 0 12 3.394m6.882 5.4h-3.407a11.2 11.2 0 0 0-2.171-4.276 7.62 7.62 0 0 1 5.578 4.276M19.594 12a7.6 7.6 0 0 1-.323 2.194h-3.575a13.1 13.1 0 0 0 0-4.388h3.575A7.6 7.6 0 0 1 19.594 12M12 19.411a9.3 9.3 0 0 1-1.282-1.641 10.5 10.5 0 0 1-1.135-2.564h4.834a10.5 10.5 0 0 1-1.135 2.564A9.3 9.3 0 0 1 12 19.411m-2.662-5.217a11.7 11.7 0 0 1 0-4.388h5.324a11.7 11.7 0 0 1 0 4.388zM4.406 12a7.6 7.6 0 0 1 .323-2.194h3.575a13.1 13.1 0 0 0 0 4.388H4.729A7.6 7.6 0 0 1 4.406 12M12 4.589a9.3 9.3 0 0 1 1.282 1.641 10.5 10.5 0 0 1 1.135 2.564H9.583a10.5 10.5 0 0 1 1.135-2.564A9.3 9.3 0 0 1 12 4.589m-1.304-.071a11.2 11.2 0 0 0-2.171 4.276H5.118a7.62 7.62 0 0 1 5.578-4.276M5.118 15.206h3.407a11.2 11.2 0 0 0 2.171 4.276 7.62 7.62 0 0 1-5.578-4.276m8.184 4.276a11.2 11.2 0 0 0 2.173-4.276h3.407a7.62 7.62 0 0 1-5.578 4.276z"/>
</svg>
