<svg xmlns="http://www.w3.org/2000/svg" fill="currentColor" viewBox="0 0 24 24">
  <path d="M12 3.394A8.606 8.606 0 1 0 20.606 12 8.616 8.616 0 0 0 12 3.394m0 1.012a7.6 7.6 0 0 1 6.525 3.713H12a3.89 3.89 0 0 0-3.791 3.052L6.002 7.348A7.59 7.59 0 0 1 12 4.406M14.869 12A2.869 2.869 0 1 1 12 9.131 2.87 2.87 0 0 1 14.869 12M4.406 12a7.54 7.54 0 0 1 .971-3.713l3.262 5.654.016.022a3.876 3.876 0 0 0 4.526 1.735l-2.208 3.826A7.605 7.605 0 0 1 4.406 12m7.692 7.594 3.264-5.653.017-.035a3.87 3.87 0 0 0-.763-4.775h4.418a7.594 7.594 0 0 1-6.932 10.463z"/>
</svg>
