<svg xmlns="http://www.w3.org/2000/svg" fill="currentColor" viewBox="0 0 24 24">
  <path d="M21.956 16.388a2.869 2.869 0 0 1-4.918 2.007.506.506 0 0 1 .724-.708 1.856 1.856 0 1 0 1.326-3.156.506.506 0 0 1-.416-.796l1.806-2.579H17.4a.506.506 0 0 1 0-1.012h4.05a.506.506 0 0 1 .414.796l-1.9 2.715a2.87 2.87 0 0 1 1.992 2.733M13.35 5.419a.506.506 0 0 0-.506.506v4.556H5.081V5.925a.506.506 0 0 0-1.012 0V16.05a.506.506 0 0 0 1.012 0v-4.556h7.763v4.556a.506.506 0 0 0 1.012 0V5.925a.506.506 0 0 0-.506-.506"/>
</svg>
