<svg xmlns="http://www.w3.org/2000/svg" fill="currentColor" viewBox="0 0 24 24">
  <path d="M21.956 16.388a2.87 2.87 0 0 1-2.868 2.868 2.84 2.84 0 0 1-2.05-.827.506.506 0 0 1 .724-.708 1.83 1.83 0 0 0 1.326.523 1.856 1.856 0 0 0 0-3.713 1.83 1.83 0 0 0-1.326.523.506.506 0 0 1-.861-.438l.675-4.05a.506.506 0 0 1 .499-.422h3.375a.506.506 0 0 1 0 1.012h-2.946l-.422 2.531a3 3 0 0 1 1.006-.168 2.87 2.87 0 0 1 2.868 2.869M13.35 5.419a.506.506 0 0 0-.506.506v4.556H5.081V5.925a.506.506 0 0 0-1.012 0V16.05a.506.506 0 0 0 1.012 0v-4.556h7.763v4.556a.506.506 0 0 0 1.012 0V5.925a.506.506 0 0 0-.506-.506"/>
</svg>
