<svg xmlns="http://www.w3.org/2000/svg" fill="currentColor" viewBox="0 0 24 24">
  <path d="M16.05 7.444h-2.025a.506.506 0 0 0-.506.506v8.1a.506.506 0 0 0 .506.506h2.025a4.556 4.556 0 0 0 0-9.112m0 8.1h-1.519V8.456h1.519a3.544 3.544 0 0 1 0 7.088m-5.231.506v-3.544H5.756v3.544a.506.506 0 0 1-1.012 0v-8.1a.506.506 0 0 1 1.012 0v3.544h5.063V7.95a.506.506 0 0 1 1.012 0v8.1a.506.506 0 0 1-1.012 0M3.394 5.25a.506.506 0 0 1 .506-.506h16.2a.506.506 0 0 1 0 1.012H3.9a.506.506 0 0 1-.506-.506m17.212 13.5a.506.506 0 0 1-.506.506H3.9a.506.506 0 0 1 0-1.012h16.2a.506.506 0 0 1 .506.506"/>
</svg>
