<svg xmlns="http://www.w3.org/2000/svg" fill="currentColor" viewBox="0 0 24 24">
  <path d="m19.992 6.93-7.425-4.065a1.17 1.17 0 0 0-1.134 0L4.008 6.93a1.18 1.18 0 0 0-.614 1.035v8.07a1.18 1.18 0 0 0 .614 1.035l7.425 4.065a1.18 1.18 0 0 0 1.134 0l7.425-4.065a1.18 1.18 0 0 0 .614-1.035v-8.07a1.18 1.18 0 0 0-.614-1.035m-.398 9.105a.17.17 0 0 1-.085.147l-7.425 4.066a.17.17 0 0 1-.162 0l-7.431-4.066a.17.17 0 0 1-.085-.147v-8.07a.17.17 0 0 1 .085-.147l7.425-4.066a.17.17 0 0 1 .162 0l7.425 4.066a.17.17 0 0 1 .084.147z"/>
</svg>
