<svg xmlns="http://www.w3.org/2000/svg" fill="currentColor" viewBox="0 0 24 24">
  <path d="M22.483 10.292a.506.506 0 0 0-.716 0l-4.248 4.248a.17.17 0 0 1-.238 0l-7.146-7.146a.17.17 0 0 1 0-.238l4.248-4.248a.506.506 0 0 0-.716-.716L9.419 6.44a1.18 1.18 0 0 0-.144 1.494L7.394 9.815a1.18 1.18 0 0 0 0 1.67l.515.515-5.042 5.042a.506.506 0 0 0 .198.838l6.075 2.025a.51.51 0 0 0 .518-.122l3.017-3.017.515.515a1.18 1.18 0 0 0 1.67 0l1.88-1.881a1.18 1.18 0 0 0 1.495-.144l4.248-4.248a.506.506 0 0 0 0-.716m-13.32 8.554-5.001-1.667 4.463-4.463 3.334 3.334zm4.978-2.278a.17.17 0 0 1-.237 0l-.874-.872-4.05-4.05-.87-.877a.17.17 0 0 1 0-.238l1.865-1.865 6.034 6.034z"/>
</svg>
