<svg xmlns="http://www.w3.org/2000/svg" fill="currentColor" viewBox="0 0 24 24">
  <path d="M12.675 10.819H5.25a.506.506 0 0 0-.506.506v7.425a.506.506 0 0 0 .506.506h7.425a.506.506 0 0 0 .506-.506v-7.425a.506.506 0 0 0-.506-.506m-.506 7.425H5.756v-6.413h6.413zm7.087-1.519v1.35a1.18 1.18 0 0 1-1.181 1.181H16.05a.506.506 0 0 1 0-1.012h2.025a.17.17 0 0 0 .169-.169v-1.35a.506.506 0 0 1 1.012 0m0-6.075v2.7a.506.506 0 0 1-1.012 0v-2.7a.506.506 0 0 1 1.012 0m0-4.725v1.35a.506.506 0 0 1-1.012 0v-1.35a.17.17 0 0 0-.169-.169h-1.35a.506.506 0 0 1 0-1.012h1.35a1.18 1.18 0 0 1 1.181 1.181m-5.4-.675a.506.506 0 0 1-.506.506h-2.7a.506.506 0 0 1 0-1.012h2.7a.506.506 0 0 1 .506.506m-9.112 2.7V5.925a1.18 1.18 0 0 1 1.181-1.181h1.35a.506.506 0 0 1 0 1.012h-1.35a.17.17 0 0 0-.169.169V7.95a.506.506 0 0 1-1.012 0"/>
</svg>
