<svg xmlns="http://www.w3.org/2000/svg" fill="currentColor" viewBox="0 0 24 24">
  <path d="m19.762 18.143-5.231-8.718V4.406h.844a.506.506 0 0 0 0-1.012h-6.75a.506.506 0 0 0 0 1.012h.844v5.019l-5.232 8.718a1.181 1.181 0 0 0 1.013 1.788h13.5a1.181 1.181 0 0 0 1.013-1.788zM10.41 9.826a.5.5 0 0 0 .071-.261V4.406h3.038v5.159a.5.5 0 0 0 .071.261l3.346 5.575c-1.047.267-2.604.253-4.707-.815-1.429-.724-2.784-1.08-4.036-1.066zm8.485 9.008a.17.17 0 0 1-.147.085H5.25a.17.17 0 0 1-.144-.253l2.447-4.085c1.256-.176 2.673.131 4.213.91 1.584.795 2.906 1.065 3.982 1.065a5.7 5.7 0 0 0 1.727-.253l1.418 2.363a.17.17 0 0 1 .002.168"/>
</svg>
