<svg xmlns="http://www.w3.org/2000/svg" fill="currentColor" viewBox="0 0 24 24">
  <path d="M20.775 15.544h-.844V7.275a1.856 1.856 0 0 0-1.856-1.856H5.925a1.856 1.856 0 0 0-1.856 1.856v8.269h-.844a.506.506 0 0 0-.506.506v1.35a1.856 1.856 0 0 0 1.856 1.856h14.85a1.856 1.856 0 0 0 1.856-1.856v-1.35a.506.506 0 0 0-.506-.506M5.081 7.275a.844.844 0 0 1 .844-.844h12.15a.844.844 0 0 1 .844.844v8.269H5.081zM20.269 17.4a.844.844 0 0 1-.844.844H4.575a.844.844 0 0 1-.844-.844v-.844h16.538zm-6.413-8.775a.506.506 0 0 1-.506.506h-2.7a.506.506 0 0 1 0-1.012h2.7a.506.506 0 0 1 .506.506"/>
</svg>
