<svg xmlns="http://www.w3.org/2000/svg" fill="currentColor" viewBox="0 0 24 24">
  <path d="M8.794 6.6a.506.506 0 0 1 .506-.506h10.125a.506.506 0 0 1 0 1.012H9.3a.506.506 0 0 1-.506-.506m10.631 4.894H9.3a.506.506 0 0 0 0 1.012h10.125a.506.506 0 0 0 0-1.012m0 5.4H9.3a.506.506 0 0 0 0 1.012h10.125a.506.506 0 0 0 0-1.012m-13.5-10.8h-1.35a.506.506 0 0 0 0 1.012h1.35a.506.506 0 0 0 0-1.012m0 5.4h-1.35a.506.506 0 0 0 0 1.012h1.35a.506.506 0 0 0 0-1.012m0 5.4h-1.35a.506.506 0 0 0 0 1.012h1.35a.506.506 0 0 0 0-1.012"/>
</svg>
