<svg xmlns="http://www.w3.org/2000/svg" fill="currentColor" viewBox="0 0 24 24">
  <path d="M15.881 20.775a.506.506 0 0 1-.506.506h-6.75a.506.506 0 0 1 0-1.012h6.75a.506.506 0 0 1 .506.506m3.375-10.8a7.22 7.22 0 0 1-2.774 5.707 1.54 1.54 0 0 0-.601 1.212v.506a1.18 1.18 0 0 1-1.181 1.181H9.3A1.18 1.18 0 0 1 8.119 17.4v-.506a1.52 1.52 0 0 0-.591-1.201 7.22 7.22 0 0 1-2.784-5.673c-.022-3.934 3.155-7.207 7.081-7.301a7.256 7.256 0 0 1 7.431 7.256m-1.012 0a6.244 6.244 0 0 0-6.395-6.244c-3.378.085-6.111 2.898-6.093 6.279a6.22 6.22 0 0 0 2.397 4.883 2.53 2.53 0 0 1 .978 2.001v.506a.17.17 0 0 0 .169.169h5.4a.17.17 0 0 0 .169-.169v-.506a2.55 2.55 0 0 1 .987-2.007 6.21 6.21 0 0 0 2.388-4.912m-1.695-.759a4.69 4.69 0 0 0-3.79-3.79.506.506 0 1 0-.168.999c1.466.246 2.711 1.491 2.96 2.959a.506.506 0 0 0 .498.422l.085-.006a.506.506 0 0 0 .416-.584z"/>
</svg>
