<svg xmlns="http://www.w3.org/2000/svg" fill="currentColor" viewBox="0 0 24 24">
  <path d="M12 6.769a3.206 3.206 0 1 0 3.206 3.206A3.206 3.206 0 0 0 12 6.769m0 5.4a2.194 2.194 0 1 1 2.194-2.194A2.194 2.194 0 0 1 12 12.169m0-9.45a7.265 7.265 0 0 0-7.256 7.256c0 2.608 1.21 5.378 3.499 8.011a21.3 21.3 0 0 0 3.467 3.206.51.51 0 0 0 .58 0 21.3 21.3 0 0 0 3.467-3.206c2.289-2.633 3.499-5.4 3.499-8.011A7.265 7.265 0 0 0 12 2.719m0 17.424c-1.266-.977-6.244-5.138-6.244-10.168a6.244 6.244 0 0 1 12.488 0c0 5.03-4.978 9.191-6.244 10.168"/>
</svg>
