<svg xmlns="http://www.w3.org/2000/svg" fill="currentColor" viewBox="0 0 24 24">
  <path d="M20.147 9.959c-.939-.511-2.201-.879-3.591-1.052v-.62c0-1.023-.808-1.949-2.278-2.609-1.336-.603-3.105-.934-4.978-.934s-3.642.331-4.978.934c-1.47.66-2.278 1.587-2.278 2.609v3.375c0 1.023.808 1.949 2.278 2.61.885.398 1.958.675 3.122.821v.62c0 1.023.808 1.949 2.278 2.609 1.336.603 3.105.934 4.978.934s3.642-.332 4.978-.934c1.467-.661 2.278-1.587 2.278-2.609v-3.375c0-.899-.642-1.744-1.809-2.379m-.484.889c.826.45 1.281.983 1.281 1.49 0 1.197-2.564 2.531-6.244 2.531a14 14 0 0 1-1.79-.113 9.4 9.4 0 0 0 1.368-.484c1.467-.661 2.278-1.587 2.278-2.61V9.927c1.215.163 2.304.483 3.107.921m-9.337 3.31q-.498.034-1.026.036-.671 0-1.289-.057H7.98a14 14 0 0 1-.874-.109v-2.355a15 15 0 0 0 2.194.158 15 15 0 0 0 2.194-.158v2.352q-.55.088-1.155.132zm5.218-4.024v1.528c0 .805-1.16 1.671-3.038 2.153v-2.334a9.7 9.7 0 0 0 1.772-.584 5.6 5.6 0 0 0 1.266-.763M9.3 5.756c3.68 0 6.244 1.334 6.244 2.532S12.98 10.819 9.3 10.819 3.056 9.485 3.056 8.287 5.62 5.756 9.3 5.756m-6.244 5.906v-1.528a5.6 5.6 0 0 0 1.266.76 9.7 9.7 0 0 0 1.772.584v2.334c-1.878-.479-3.038-1.345-3.038-2.15m5.4 4.05v-.529q.417.023.844.023.499 0 .984-.031a10 10 0 0 0 1.21.355v2.335c-1.878-.482-3.038-1.348-3.038-2.152zm4.05 2.363v-2.354a15 15 0 0 0 2.194.16 15 15 0 0 0 2.194-.158v2.352a14.3 14.3 0 0 1-4.388 0m5.4-.21v-2.334a9.7 9.7 0 0 0 1.772-.584 5.6 5.6 0 0 0 1.266-.759v1.525c0 .804-1.16 1.67-3.038 2.152"/>
</svg>
