<svg xmlns="http://www.w3.org/2000/svg" fill="currentColor" viewBox="0 0 24 24">
  <path d="M11.473 4.677c-.551-.839-1.361-1.283-2.342-1.283s-1.79.444-2.341 1.283c-.449.684-.696 1.607-.696 2.598s.247 1.914.696 2.598c.551.839 1.361 1.283 2.341 1.283s1.79-.444 2.342-1.283c.449-.683.696-1.603.696-2.598s-.247-1.914-.696-2.598m-2.342 5.467c-1.603 0-2.025-1.803-2.025-2.869s.422-2.869 2.025-2.869 2.025 1.803 2.025 2.869-.422 2.869-2.025 2.869m8.417 3.983c-.551-.839-1.361-1.283-2.342-1.283s-1.79.444-2.341 1.283c-.449.683-.696 1.603-.696 2.598s.247 1.914.696 2.598c.551.844 1.361 1.283 2.341 1.283s1.79-.444 2.342-1.283c.449-.683.696-1.603.696-2.598s-.247-1.914-.696-2.598m-2.342 5.467c-1.599 0-2.025-1.803-2.025-2.869s.426-2.869 2.025-2.869 2.025 1.803 2.025 2.869-.422 2.869-2.025 2.869M13.582 5.271a.506.506 0 0 1 .197-.688l2.025-1.126a.506.506 0 0 1 .752.443v6.75a.506.506 0 0 1-1.012 0V4.761l-1.273.707a.506.506 0 0 1-.689-.197M9.806 13.35v6.75a.506.506 0 0 1-1.012 0v-5.889l-1.273.707a.506.506 0 1 1-.492-.885l2.025-1.126a.506.506 0 0 1 .752.443"/>
</svg>
