<svg xmlns="http://www.w3.org/2000/svg" fill="currentColor" viewBox="0 0 24 24">
  <path d="M5.081 5.925v12.15a.506.506 0 0 1-1.012 0V5.925a.506.506 0 0 1 1.012 0m7.98 4.76-1.905.618V9.3a.506.506 0 0 0-1.012 0v2.003l-1.905-.618a.506.506 0 1 0-.313.962l1.905.619-1.182 1.621a.506.506 0 1 0 .819.595l1.181-1.621 1.181 1.621a.506.506 0 0 0 .819-.595l-1.181-1.621 1.905-.619a.506.506 0 1 0-.313-.962zm8.738.324a.506.506 0 0 0-.638-.324l-1.905.618V9.3a.506.506 0 0 0-1.012 0v2.003l-1.905-.618a.506.506 0 1 0-.313.962l1.905.619-1.177 1.621a.506.506 0 1 0 .818.595l1.181-1.621 1.182 1.621a.506.506 0 0 0 .818-.595l-1.177-1.621 1.905-.619a.506.506 0 0 0 .318-.638"/>
</svg>
