<svg xmlns="http://www.w3.org/2000/svg" fill="currentColor" viewBox="0 0 24 24">
  <path d="M7.275 13.181H3.9a.506.506 0 0 1 0-1.012h3.104l1.199-1.8a.506.506 0 0 1 .844 0l2.278 3.418.928-1.393a.5.5 0 0 1 .422-.225H14.7a.506.506 0 0 1 0 1.012h-1.754l-1.199 1.8a.506.506 0 0 1-.844 0l-2.278-3.418-.928 1.393a.5.5 0 0 1-.422.225m8.944-8.437c-1.772 0-3.313.799-4.219 2.138-.906-1.339-2.447-2.138-4.219-2.138a5.07 5.07 0 0 0-5.062 5.062v.185a.506.506 0 0 0 1.012-.032v-.153a4.054 4.054 0 0 1 4.05-4.05c1.711 0 3.148.914 3.751 2.386a.506.506 0 0 0 .936 0c.603-1.472 2.04-2.386 3.751-2.386a4.054 4.054 0 0 1 4.05 4.05c0 4.702-6.886 8.914-8.269 9.713-.83-.478-3.636-2.179-5.751-4.486a.506.506 0 1 0-.746.684c2.611 2.849 6.11 4.749 6.257 4.829a.5.5 0 0 0 .48 0 28 28 0 0 0 4.477-3.122c3.029-2.59 4.564-5.154 4.564-7.618a5.07 5.07 0 0 0-5.062-5.062"/>
</svg>
