<svg xmlns="http://www.w3.org/2000/svg" fill="currentColor" viewBox="0 0 24 24">
  <path d="m20.26 7.51-3.77-3.771a1.18 1.18 0 0 0-1.671 0L4.415 14.144a1.18 1.18 0 0 0-.346.835v3.771a1.18 1.18 0 0 0 1.181 1.181h3.771a1.18 1.18 0 0 0 .835-.346L20.26 9.18a1.18 1.18 0 0 0 0-1.67M5.291 14.7l7.384-7.384 1.646 1.647-7.383 7.383zm-.21 4.05v-2.828l2.996 2.997H5.25a.17.17 0 0 1-.169-.169m4.219-.041-1.646-1.646 7.383-7.385 1.647 1.647zM19.544 8.465 17.4 10.609 13.391 6.6l2.144-2.145a.17.17 0 0 1 .239 0l3.77 3.771a.17.17 0 0 1 0 .239"/>
</svg>
