<svg xmlns="http://www.w3.org/2000/svg" fill="currentColor" viewBox="0 0 24 24">
  <path d="m20.936 8.185-5.121-5.12a1.18 1.18 0 0 0-1.671 0L9.547 7.677c-.803-.274-2.869-.704-5.038 1.048a1.18 1.18 0 0 0-.094 1.756l4.194 4.195-3.717 3.712a.506.506 0 1 0 .716.716l3.716-3.717 4.195 4.197a1.18 1.18 0 0 0 .835.347h.084a1.18 1.18 0 0 0 .86-.467c1.664-2.211 1.447-3.985 1.052-5.004l4.587-4.602a1.18 1.18 0 0 0-.001-1.673m-.716.955-4.832 4.848a.51.51 0 0 0-.094.584c.839 1.677-.144 3.402-.805 4.279a.17.17 0 0 1-.253.017L5.13 9.765a.17.17 0 0 1 .015-.253C6.2 8.661 7.212 8.435 7.989 8.435a3.6 3.6 0 0 1 1.455.288.51.51 0 0 0 .585-.098l4.831-4.844a.17.17 0 0 1 .239 0l5.121 5.12a.17.17 0 0 1 0 .239"/>
</svg>
