<svg xmlns="http://www.w3.org/2000/svg" fill="currentColor" viewBox="0 0 24 24">
  <path d="M15.256 12.515a.16.16 0 0 1-.046-.151.17.17 0 0 1 .091-.12l3.902-1.499.02-.008a1.181 1.181 0 0 0-.103-2.196L5.612 4.128a1.177 1.177 0 0 0-1.484 1.484L8.541 19.12a1.17 1.17 0 0 0 1.063.81h.058a1.17 1.17 0 0 0 1.072-.707l.009-.02 1.498-3.902a.17.17 0 0 1 .271-.045l4.329 4.329a1.18 1.18 0 0 0 1.671 0l1.071-1.07a1.18 1.18 0 0 0 0-1.671zm3.613 5.284-1.07 1.07a.17.17 0 0 1-.239 0l-4.329-4.329a1.18 1.18 0 0 0-1.919.364l-.008.02-1.498 3.903a.169.169 0 0 1-.304-.022L5.091 5.298a.16.16 0 0 1 .039-.169.16.16 0 0 1 .114-.048.2.2 0 0 1 .054.009l13.507 4.411a.169.169 0 0 1 .022.304l-3.903 1.499-.02.008a1.18 1.18 0 0 0-.364 1.919l4.329 4.329a.17.17 0 0 1 0 .239"/>
</svg>
