<svg xmlns="http://www.w3.org/2000/svg" fill="currentColor" viewBox="0 0 24 24">
  <path d="M19.313 7.444h-1.407V4.575a.506.506 0 0 0-.506-.506H6.6a.506.506 0 0 0-.506.506v2.869H4.687c-1.085 0-1.968.833-1.968 1.856v6.75a.506.506 0 0 0 .506.506h2.869v2.869a.506.506 0 0 0 .506.506h10.8a.506.506 0 0 0 .506-.506v-2.869h2.869a.506.506 0 0 0 .506-.506V9.3c0-1.023-.883-1.856-1.968-1.856M7.106 5.081h9.788v2.363H7.106zm9.788 13.838H7.106v-4.388h9.788zm3.375-3.375h-2.363v-1.519a.506.506 0 0 0-.506-.506H6.6a.506.506 0 0 0-.506.506v1.519H3.731V9.3c0-.465.429-.844.956-.844h14.626c.527 0 .956.379.956.844zm-2.363-4.557a.844.844 0 1 1-.843-.843.844.844 0 0 1 .843.844z"/>
</svg>
