<svg xmlns="http://www.w3.org/2000/svg" fill="currentColor" viewBox="0 0 24 24">
  <path d="M19.931 5.25v8.775a1.18 1.18 0 0 1-1.181 1.181H9.173l1.16 1.161a.506.506 0 1 1-.716.716l-2.025-2.025a.506.506 0 0 1 0-.716l2.025-2.025a.506.506 0 0 1 .716.716l-1.16 1.161h9.577a.17.17 0 0 0 .169-.169V5.25a.17.17 0 0 0-.169-.169H9.3a.17.17 0 0 0-.169.169v.675a.506.506 0 0 1-1.012 0V5.25A1.18 1.18 0 0 1 9.3 4.069h9.45a1.18 1.18 0 0 1 1.181 1.181m-4.556 12.319a.506.506 0 0 0-.506.506v.675a.17.17 0 0 1-.169.169H5.25a.17.17 0 0 1-.169-.169V9.975a.17.17 0 0 1 .169-.169h9.577l-1.16 1.161a.506.506 0 1 0 .716.716l2.025-2.025a.506.506 0 0 0 0-.716l-2.025-2.025a.506.506 0 0 0-.716.716l1.16 1.161H5.25a1.18 1.18 0 0 0-1.181 1.181v8.775a1.18 1.18 0 0 0 1.181 1.181h9.45a1.18 1.18 0 0 0 1.181-1.181v-.675a.506.506 0 0 0-.506-.506"/>
</svg>
