<svg xmlns="http://www.w3.org/2000/svg" fill="currentColor" viewBox="0 0 24 24">
  <path d="M13.519 9.975V6.6a.506.506 0 0 1 1.012 0v2.152l3.861-3.86a.506.506 0 0 1 .716.716l-3.861 3.861H17.4a.506.506 0 0 1 0 1.012h-3.375a.506.506 0 0 1-.506-.506m-3.544 3.544H6.6a.506.506 0 0 0 0 1.012h2.153l-3.861 3.861a.506.506 0 1 0 .716.716l3.861-3.861V17.4a.506.506 0 0 0 1.012 0v-3.375a.506.506 0 0 0-.506-.506m5.272 1.012H17.4a.506.506 0 0 0 0-1.012h-3.375a.506.506 0 0 0-.506.506V17.4a.506.506 0 0 0 1.012 0v-2.153l3.861 3.861a.506.506 0 0 0 .716-.716zM9.975 6.094a.506.506 0 0 0-.506.506v2.152l-3.861-3.86a.506.506 0 0 0-.716.716l3.861 3.861H6.6a.506.506 0 0 0 0 1.012h3.375a.506.506 0 0 0 .506-.506V6.6a.506.506 0 0 0-.506-.506"/>
</svg>
