<svg xmlns="http://www.w3.org/2000/svg" fill="currentColor" viewBox="0 0 24 24">
  <path d="M19.201 11.555a.506.506 0 1 0-.902-.46 6.9 6.9 0 0 1-3.021 2.983l-1.531-3.442a3.206 3.206 0 0 0-1.241-5.852V3.225a.506.506 0 0 0-1.012 0v1.559a3.206 3.206 0 0 0-1.241 5.852l-4.115 9.258a.506.506 0 1 0 .928.412l2.185-4.916a7.9 7.9 0 0 0 2.749.491 8.2 8.2 0 0 0 2.757-.48l2.181 4.905a.506.506 0 1 0 .928-.412L15.691 15a7.93 7.93 0 0 0 3.51-3.445M12 5.756A2.194 2.194 0 1 1 9.806 7.95 2.194 2.194 0 0 1 12 5.756m0 9.113a6.9 6.9 0 0 1-2.34-.408l1.519-3.413a3.2 3.2 0 0 0 1.647 0l1.519 3.426a7.2 7.2 0 0 1-2.345.395"/>
</svg>
