<svg xmlns="http://www.w3.org/2000/svg" fill="currentColor" viewBox="0 0 24 24">
  <path d="M18.75 4.744H5.25a1.18 1.18 0 0 0-1.181 1.181v4.725c0 4.382 2.12 7.037 3.898 8.492 1.918 1.569 3.82 2.1 3.9 2.122a.5.5 0 0 0 .266 0c.08-.022 1.982-.553 3.9-2.122 1.779-1.455 3.898-4.11 3.898-8.492V5.925a1.18 1.18 0 0 0-1.181-1.181m.169 5.906c0 3.186-1.176 5.77-3.497 7.683A11.1 11.1 0 0 1 12 20.245a11 11 0 0 1-3.422-1.912c-2.321-1.913-3.497-4.497-3.497-7.683V5.925a.17.17 0 0 1 .169-.169h13.5a.17.17 0 0 1 .169.169z"/>
</svg>
