<svg xmlns="http://www.w3.org/2000/svg" fill="currentColor" viewBox="0 0 24 24">
  <path d="M19.425 5.419H4.575A1.18 1.18 0 0 0 3.394 6.6v10.8a1.18 1.18 0 0 0 1.181 1.181h14.85a1.18 1.18 0 0 0 1.181-1.181V6.6a1.18 1.18 0 0 0-1.181-1.181m-9.619 8.1v-3.038h4.388v3.038zm4.388 1.012v3.038H9.806v-3.038zm-9.788-4.05h4.388v3.038H4.406zm5.4-1.012V6.431h4.388v3.038zm5.4 1.012h4.388v3.038h-4.388zM19.594 6.6v2.869h-4.388V6.431h4.219a.17.17 0 0 1 .169.169M4.575 6.431h4.219v3.038H4.406V6.6a.17.17 0 0 1 .169-.169M4.406 17.4v-2.869h4.388v3.038H4.575a.17.17 0 0 1-.169-.169m15.019.169h-4.219v-3.038h4.388V17.4a.17.17 0 0 1-.169.169"/>
</svg>
