<svg xmlns="http://www.w3.org/2000/svg" fill="currentColor" viewBox="0 0 24 24">
  <path d="M11.831 12a.506.506 0 0 1-.506.506H5.25a.506.506 0 0 1 0-1.012h6.075a.506.506 0 0 1 .506.506M5.25 7.106h11.475a.506.506 0 0 0 0-1.012H5.25a.506.506 0 0 0 0 1.012m4.725 9.788H5.25a.506.506 0 0 0 0 1.012h4.725a.506.506 0 0 0 0-1.012m10.483-1.877a.506.506 0 0 0-.716 0l-2.511 2.51V10.65a.506.506 0 0 0-1.012 0v6.877l-2.511-2.51a.506.506 0 0 0-.716.716l3.375 3.375a.506.506 0 0 0 .716 0l3.375-3.375a.506.506 0 0 0 0-.716"/>
</svg>
