<svg xmlns="http://www.w3.org/2000/svg" fill="currentColor" viewBox="0 0 24 24">
  <path d="M19.931 12a.506.506 0 0 1-.506.506h-3.928c.952.584 1.734 1.466 1.734 2.869 0 2.14-2.346 3.881-5.231 3.881s-5.231-1.742-5.231-3.881a.506.506 0 0 1 1.012 0c0 1.582 1.893 2.869 4.219 2.869s4.219-1.287 4.219-2.869c0-1.538-1.304-2.244-3.415-2.869H4.575a.506.506 0 0 1 0-1.012h14.85a.506.506 0 0 1 .506.506M7.64 9.806a.5.5 0 0 0 .159-.025.506.506 0 0 0 .32-.639 1.7 1.7 0 0 1-.075-.517c0-1.635 1.701-2.869 3.956-2.869 1.652 0 3 .659 3.606 1.763a.506.506 0 0 0 .888-.488C15.707 5.598 14.025 4.744 12 4.744c-2.832 0-4.969 1.668-4.969 3.881a2.7 2.7 0 0 0 .128.833.51.51 0 0 0 .481.348"/>
</svg>
