<svg xmlns="http://www.w3.org/2000/svg" fill="currentColor" viewBox="0 0 24 24">
  <path d="M21.956 13.35a.506.506 0 0 1-.506.506H17.4a.506.506 0 0 1-.405-.81l3.642-4.856a1.519 1.519 0 1 0-2.646-1.421.506.506 0 0 1-.955-.338 2.5 2.5 0 0 1 .364-.675 2.531 2.531 0 0 1 4.05 3.043l-3.037 4.045h3.037a.506.506 0 0 1 .506.506m-8.274-5.782a.506.506 0 0 0-.714.05L8.963 12.24 4.957 7.618a.506.506 0 1 0-.764.664l4.1 4.73-4.1 4.731a.506.506 0 1 0 .764.664l4.006-4.622 4.005 4.622a.506.506 0 0 0 .764-.664l-4.1-4.731 4.1-4.73a.506.506 0 0 0-.05-.714"/>
</svg>
