<svg xmlns="http://www.w3.org/2000/svg" fill="currentColor" viewBox="0 0 24 24">
  <path d="M20.1 8.794h-4.303l.75-4.129a.506.506 0 1 0-.996-.18l-.783 4.309h-4.371l.75-4.129a.506.506 0 0 0-.996-.18l-.783 4.309H5.25a.506.506 0 0 0 0 1.012h3.934l-.798 4.388H3.9a.506.506 0 0 0 0 1.012h4.303l-.751 4.129a.506.506 0 0 0 .408.59.5.5 0 0 0 .09.006.506.506 0 0 0 .497-.416l.785-4.309h4.371l-.75 4.129a.506.506 0 0 0 .408.59.5.5 0 0 0 .091.009.506.506 0 0 0 .497-.416l.783-4.312h4.118a.506.506 0 0 0 0-1.012h-3.934l.798-4.388H20.1a.506.506 0 0 0 0-1.012m-6.314 5.4h-4.37l.798-4.388h4.37z"/>
</svg>
