<svg xmlns="http://www.w3.org/2000/svg" fill="currentColor" viewBox="0 0 24 24">
  <path d="M18.75 4.069H5.25A1.18 1.18 0 0 0 4.069 5.25v13.5a1.18 1.18 0 0 0 1.181 1.181h13.5a1.18 1.18 0 0 0 1.181-1.181V5.25a1.18 1.18 0 0 0-1.181-1.181m.169 14.681a.17.17 0 0 1-.169.169H5.25a.17.17 0 0 1-.169-.169V5.25a.17.17 0 0 1 .169-.169h13.5a.17.17 0 0 1 .169.169zm-3.861-9.092L12.715 12l2.343 2.342a.506.506 0 1 1-.716.716L12 12.715l-2.342 2.343a.506.506 0 0 1-.716-.716L11.284 12 8.942 9.658a.506.506 0 0 1 .716-.716L12 11.284l2.342-2.342a.506.506 0 0 1 .716.716"/>
</svg>
