<svg xmlns="http://www.w3.org/2000/svg" fill="currentColor" viewBox="0 0 24 24">
  <path d="M16.05 14.869a3.2 3.2 0 0 0-2.388 1.069l-4.126-2.652a3.2 3.2 0 0 0 0-2.572l4.126-2.652a3.206 3.206 0 1 0-.548-.851L8.988 9.863a3.206 3.206 0 1 0 0 4.274l4.126 2.652a3.206 3.206 0 1 0 2.936-1.92m0-11.138a2.194 2.194 0 1 1-2.194 2.194 2.194 2.194 0 0 1 2.194-2.194M6.6 14.194A2.194 2.194 0 1 1 8.794 12 2.194 2.194 0 0 1 6.6 14.194m9.45 6.075a2.194 2.194 0 1 1 2.194-2.194 2.194 2.194 0 0 1-2.194 2.194"/>
</svg>
