<svg xmlns="http://www.w3.org/2000/svg" fill="currentColor" viewBox="0 0 24 24">
  <path d="M10.65 14.194a.506.506 0 0 0-.506.506v2.828l-3.466-3.466a.84.84 0 0 1-.247-.596V9.078a2.531 2.531 0 1 0-1.012 0v4.388a1.85 1.85 0 0 0 .543 1.312l3.466 3.466H6.6a.506.506 0 0 0 0 1.012h4.05a.506.506 0 0 0 .506-.506V14.7a.506.506 0 0 0-.506-.506M4.406 6.6a1.519 1.519 0 1 1 1.519 1.519A1.52 1.52 0 0 1 4.406 6.6m14.175 8.319v-4.387a1.85 1.85 0 0 0-.543-1.313l-3.466-3.463H17.4a.506.506 0 0 0 0-1.012h-4.05a.506.506 0 0 0-.506.506V9.3a.506.506 0 0 0 1.012 0V6.472l3.466 3.466a.84.84 0 0 1 .247.596v4.388a2.531 2.531 0 1 0 1.012 0zm-.506 4a1.519 1.519 0 1 1 1.519-1.519 1.52 1.52 0 0 1-1.519 1.519"/>
</svg>
