<svg xmlns="http://www.w3.org/2000/svg" fill="currentColor" viewBox="0 0 24 24">
  <path d="M20.537 15.797a.506.506 0 0 1-.182.692l-8.1 4.725a.5.5 0 0 1-.506 0l-8.1-4.725a.506.506 0 0 1 .506-.874l7.847 4.575 7.847-4.575a.506.506 0 0 1 .688.182m-.69-4.234L12 16.139l-7.847-4.576a.506.506 0 0 0-.506.874l8.1 4.725a.5.5 0 0 0 .506 0l8.1-4.725a.506.506 0 0 0-.506-.874M3.394 7.95a.5.5 0 0 1 .253-.437l8.1-4.725a.5.5 0 0 1 .506 0l8.1 4.725a.506.506 0 0 1 0 .874l-8.1 4.725a.5.5 0 0 1-.506 0l-8.1-4.725a.5.5 0 0 1-.253-.437m1.511 0L12 12.089l7.095-4.139L12 3.816z"/>
</svg>
