<svg xmlns="http://www.w3.org/2000/svg" fill="currentColor" viewBox="0 0 24 24">
  <path d="M19.425 5.419h-3.544v-.844a1.856 1.856 0 0 0-1.856-1.856h-4.05a1.856 1.856 0 0 0-1.856 1.856v.844H4.575a.506.506 0 0 0 0 1.012h.844V18.75A1.18 1.18 0 0 0 6.6 19.931h10.8a1.18 1.18 0 0 0 1.181-1.181V6.431h.844a.506.506 0 0 0 0-1.012M9.131 4.575a.844.844 0 0 1 .844-.844h4.05a.844.844 0 0 1 .844.844v.844H9.131zm8.438 14.175a.17.17 0 0 1-.169.169H6.6a.17.17 0 0 1-.169-.169V6.431h11.138zm-7.088-8.775v5.4a.506.506 0 0 1-1.012 0v-5.4a.506.506 0 0 1 1.012 0m4.05 0v5.4a.506.506 0 0 1-1.012 0v-5.4a.506.506 0 0 1 1.012 0"/>
</svg>
