<svg xmlns="http://www.w3.org/2000/svg" fill="currentColor" viewBox="0 0 24 24">
  <path d="M10.144 4.575a.506.506 0 0 1 .506-.506h2.7a.506.506 0 0 1 0 1.012h-2.7a.506.506 0 0 1-.506-.506m3.206 14.344h-2.7a.506.506 0 0 0 0 1.012h2.7a.506.506 0 0 0 0-1.012m5.4-14.85h-2.025a.506.506 0 0 0 0 1.012h2.025a.17.17 0 0 1 .169.169v2.025a.506.506 0 0 0 1.012 0V5.25a1.18 1.18 0 0 0-1.181-1.181m.675 6.075a.506.506 0 0 0-.506.506v2.7a.506.506 0 0 0 1.012 0v-2.7a.506.506 0 0 0-.506-.506m0 6.075a.506.506 0 0 0-.506.506v2.025a.17.17 0 0 1-.169.169h-2.025a.506.506 0 0 0 0 1.012h2.025a1.18 1.18 0 0 0 1.181-1.181v-2.025a.506.506 0 0 0-.506-.506m-14.85-2.363a.506.506 0 0 0 .506-.506v-2.7a.506.506 0 0 0-1.012 0v2.7a.506.506 0 0 0 .506.506m2.7 5.063H5.25a.17.17 0 0 1-.169-.169v-2.025a.506.506 0 0 0-1.012 0v2.025a1.18 1.18 0 0 0 1.181 1.181h2.025a.506.506 0 0 0 0-1.012m-2.7-11.138a.506.506 0 0 0 .506-.506V5.25a.17.17 0 0 1 .169-.169h2.025a.506.506 0 0 0 0-1.012H5.25A1.18 1.18 0 0 0 4.069 5.25v2.025a.506.506 0 0 0 .506.506m11.475 8.775h-8.1a.506.506 0 0 1-.506-.506v-8.1a.506.506 0 0 1 .506-.506h8.1a.506.506 0 0 1 .506.506v8.1a.506.506 0 0 1-.506.506m-.506-8.1H8.456v7.088h7.088z"/>
</svg>
