<svg xmlns="http://www.w3.org/2000/svg" fill="currentColor" viewBox="0 0 24 24">
  <path d="M21.281 12.675v5.4a1.18 1.18 0 0 1-1.181 1.181H3.9a1.18 1.18 0 0 1-1.181-1.181v-5.4A1.18 1.18 0 0 1 3.9 11.494h4.05a.506.506 0 0 1 0 1.012H3.9a.17.17 0 0 0-.169.169v5.4a.17.17 0 0 0 .169.169h16.2a.17.17 0 0 0 .169-.169v-5.4a.17.17 0 0 0-.169-.169h-4.05a.506.506 0 0 1 0-1.012h4.05a1.18 1.18 0 0 1 1.181 1.181M8.308 7.633l3.186-3.185V12a.506.506 0 0 0 1.012 0V4.448l3.186 3.185a.506.506 0 0 0 .716-.716l-4.05-4.05a.506.506 0 0 0-.716 0l-4.05 4.05a.506.506 0 0 0 .716.716m9.598 7.742a.844.844 0 1 0-.843.844.844.844 0 0 0 .843-.844"/>
</svg>
