<svg xmlns="http://www.w3.org/2000/svg" fill="currentColor" viewBox="0 0 24 24">
  <path d="M10.701 14.568a4.894 4.894 0 1 0-4.827 0 7.92 7.92 0 0 0-4.234 3.23.506.506 0 0 0 .848.554 6.92 6.92 0 0 1 11.599 0 .506.506 0 0 0 .844-.554 7.92 7.92 0 0 0-4.23-3.23m-6.295-4.255a3.881 3.881 0 1 1 3.882 3.881 3.886 3.886 0 0 1-3.882-3.881m17.803 8.184a.506.506 0 0 1-.7-.147 6.9 6.9 0 0 0-5.796-3.144.506.506 0 0 1 0-1.012 3.881 3.881 0 1 0-1.442-7.487.506.506 0 1 1-.376-.94 4.894 4.894 0 0 1 4.231 8.801 7.92 7.92 0 0 1 4.234 3.23.506.506 0 0 1-.151.699"/>
</svg>
