<svg xmlns="http://www.w3.org/2000/svg" fill="currentColor" viewBox="0 0 24 24">
  <path d="m22.509 10.32-3.843-4.479a1.18 1.18 0 0 0-.907-.422H3.9A1.18 1.18 0 0 0 2.719 6.6v9.45A1.18 1.18 0 0 0 3.9 17.231h1.569a2.531 2.531 0 0 0 4.962 0h4.488a2.531 2.531 0 0 0 4.962 0h1.569a1.18 1.18 0 0 0 1.181-1.181v-5.4a.5.5 0 0 0-.122-.33m-4.615-3.824 3.129 3.648h-5.142V6.431h1.878a.17.17 0 0 1 .135.065m-8.088 3.648V6.431h5.063v3.713zM3.9 6.431h4.894v3.713H3.731V6.6a.17.17 0 0 1 .169-.169m4.05 11.813a1.519 1.519 0 1 1 1.519-1.519 1.52 1.52 0 0 1-1.519 1.519m9.45 0a1.519 1.519 0 1 1 1.519-1.519 1.52 1.52 0 0 1-1.519 1.519m4.05-2.025h-1.569a2.531 2.531 0 0 0-4.962 0h-4.488a2.531 2.531 0 0 0-4.962 0H3.9a.17.17 0 0 1-.169-.169v-4.894h17.888v4.894a.17.17 0 0 1-.169.169"/>
</svg>
