<svg xmlns="http://www.w3.org/2000/svg" fill="currentColor" viewBox="0 0 24 24">
  <path d="M14.248 3.445a.51.51 0 0 0-.534.055L7.776 8.119H3.9A1.18 1.18 0 0 0 2.719 9.3v5.4A1.18 1.18 0 0 0 3.9 15.881h3.876l5.939 4.619a.506.506 0 0 0 .816-.4V3.9a.51.51 0 0 0-.283-.455M3.731 14.7V9.3a.17.17 0 0 1 .169-.169h3.544v5.738H3.9a.17.17 0 0 1-.169-.169m9.788 4.365-5.063-3.938V8.873l5.063-3.938zm8.289-5.4a.506.506 0 1 1-.716.715l-1.667-1.665-1.667 1.668a.506.506 0 0 1-.716-.716L18.71 12l-1.668-1.667a.506.506 0 0 1 .716-.716l1.667 1.667 1.667-1.667a.506.506 0 0 1 .716.716L20.14 12z"/>
</svg>
