<svg xmlns="http://www.w3.org/2000/svg" fill="currentColor" viewBox="0 0 24 24">
  <path d="M21.034 17.154 13.655 4.34a1.92 1.92 0 0 0-3.31 0L2.966 17.154a1.82 1.82 0 0 0 0 1.833 1.89 1.89 0 0 0 1.655.944h14.758a1.89 1.89 0 0 0 1.653-.944 1.82 1.82 0 0 0 .002-1.833m-.878 1.326a.88.88 0 0 1-.777.439H4.621a.88.88 0 0 1-.777-.439.8.8 0 0 1 0-.82l7.379-12.814a.907.907 0 0 1 1.554 0l7.38 12.814a.8.8 0 0 1-.001.82m-8.662-5.13V9.975a.506.506 0 0 1 1.012 0v3.375a.506.506 0 0 1-1.012 0m1.35 3.038a.844.844 0 1 1-.844-.844.844.844 0 0 1 .844.844"/>
</svg>
