<svg xmlns="http://www.w3.org/2000/svg" fill="currentColor" viewBox="0 0 24 24">
  <path d="m21.245 12.487-2.7-6.75a.506.506 0 0 0-.579-.306l-5.46 1.213V4.575a.506.506 0 0 0-1.012 0v2.294L5.815 8.135a.5.5 0 0 0-.36.306l-2.7 6.75a.5.5 0 0 0-.036.184c0 1.844 1.967 2.531 3.206 2.531s3.206-.687 3.206-2.531a.5.5 0 0 0-.036-.188L6.616 8.99l4.878-1.084v11.013H9.975a.506.506 0 0 0 0 1.012h4.05a.506.506 0 0 0 0-1.012h-1.519V7.681l4.743-1.054-2.344 5.86a.5.5 0 0 0-.036.188c0 1.844 1.967 2.531 3.206 2.531s3.206-.687 3.206-2.531a.5.5 0 0 0-.036-.188m-15.32 4.407a3.1 3.1 0 0 1-1.475-.385c-.453-.264-.688-.606-.716-1.044l2.194-5.476 2.193 5.476c-.082 1.163-1.641 1.429-2.196 1.429m12.15-2.7a3.1 3.1 0 0 1-1.475-.385c-.453-.264-.688-.606-.716-1.044l2.194-5.476 2.193 5.476c-.082 1.163-1.641 1.429-2.196 1.429"/>
</svg>
