<svg xmlns="http://www.w3.org/2000/svg" fill="currentColor" viewBox="0 0 24 24">
  <path d="m16.951 13.572-2.7-1.35a.5.5 0 0 0-.506.032l-1.323.882a3.6 3.6 0 0 1-1.558-1.558l.883-1.322a.5.5 0 0 0 .032-.506l-1.35-2.7a.51.51 0 0 0-.454-.281 3.206 3.206 0 0 0-3.206 3.206 7.265 7.265 0 0 0 7.256 7.256 3.206 3.206 0 0 0 3.206-3.206.51.51 0 0 0-.28-.453m-2.926 2.647a6.25 6.25 0 0 1-6.244-6.244 2.194 2.194 0 0 1 1.892-2.173l1.068 2.137-.877 1.314a.5.5 0 0 0-.045.475 4.6 4.6 0 0 0 2.453 2.453.5.5 0 0 0 .475-.045l1.314-.877 2.137 1.068a2.194 2.194 0 0 1-2.173 1.892M12 3.394a8.606 8.606 0 0 0-7.564 12.714l-.981 2.942a1.181 1.181 0 0 0 1.495 1.495l2.942-.981A8.606 8.606 0 1 0 12 3.394m0 16.2a7.6 7.6 0 0 1-3.802-1.019.5.5 0 0 0-.253-.069.5.5 0 0 0-.16.026L4.63 19.584a.169.169 0 0 1-.214-.214l1.052-3.151a.5.5 0 0 0-.042-.415A7.594 7.594 0 1 1 12 19.594"/>
</svg>
