<svg xmlns="http://www.w3.org/2000/svg" fill="currentColor" viewBox="0 0 24 24">
  <path d="m14.981 11.578-4.05-2.7a.506.506 0 0 0-.787.422v5.4a.506.506 0 0 0 .787.422l4.05-2.7a.506.506 0 0 0 0-.844m-3.825 2.176v-3.508L13.787 12zm9.653-6.648a1.86 1.86 0 0 0-1.121-1.265C16.809 4.726 12.192 4.744 12 4.744s-4.809-.018-7.692 1.097a1.86 1.86 0 0 0-1.117 1.265c-.215.835-.472 2.363-.472 4.894s.257 4.059.472 4.894a1.86 1.86 0 0 0 1.121 1.265c2.879 1.115 7.496 1.097 7.688 1.097h.06c.583 0 4.894-.037 7.632-1.097a1.86 1.86 0 0 0 1.12-1.265c.215-.833.472-2.357.473-4.894s-.257-4.059-.476-4.894m-.981 9.535a.84.84 0 0 1-.506.578c-2.7 1.041-7.273 1.025-7.322 1.025s-4.616.017-7.32-1.027a.84.84 0 0 1-.506-.579c-.203-.775-.443-2.21-.443-4.638s.24-3.863.441-4.641a.84.84 0 0 1 .506-.578c2.602-1.003 6.945-1.025 7.302-1.025H12c.046 0 4.616-.017 7.32 1.027a.84.84 0 0 1 .506.579c.201.775.44 2.21.44 4.641s-.237 3.86-.438 4.638"/>
</svg>
